ISO-10303-21;
HEADER;
/* Generated by software containing ST-Developer
 * from STEP Tools, Inc. (www.steptools.com) 
 */

FILE_DESCRIPTION(
/* description */ (''),
/* implementation_level */ '2;1');

FILE_NAME(
/* name */ 
'C:\\Users\\designnet\\AppData\\Local\\Temp\\derivatives\\21353_4686c9
0c\\AssemblyExtractor\\21353_4686c90c\\9945daa8-0546-11ec-bf54-06214ff
114d7.step',
/* time_stamp */ '2021-08-25T01:49:00+00:00',
/* author */ (''),
/* organization */ (''),
/* preprocessor_version */ 'ST-DEVELOPER v18.1',
/* originating_system */ 'Autodesk Translation Framework v10.6.0.1341',

/* authorisation */ '');

FILE_SCHEMA (('AUTOMOTIVE_DESIGN { 1 0 10303 214 3 1 1 }'));
ENDSEC;

DATA;
#10=MECHANICAL_DESIGN_GEOMETRIC_PRESENTATION_REPRESENTATION('',(#13),#224);
#11=SHAPE_REPRESENTATION_RELATIONSHIP('SRR','None',#231,#12);
#12=ADVANCED_BREP_SHAPE_REPRESENTATION('',(#14),#223);
#13=STYLED_ITEM('',(#240),#14);
#14=MANIFOLD_SOLID_BREP('Body1',#60);
#15=PLANE('',#79);
#16=PLANE('',#80);
#17=LINE('',#217,#18);
#18=VECTOR('',#91,0.37846);
#19=CYLINDRICAL_SURFACE('',#77,0.37846);
#20=FACE_OUTER_BOUND('',#24,.T.);
#21=FACE_OUTER_BOUND('',#25,.T.);
#22=FACE_OUTER_BOUND('',#26,.T.);
#23=FACE_OUTER_BOUND('',#27,.T.);
#24=EDGE_LOOP('',(#43,#44,#45,#46,#47));
#25=EDGE_LOOP('',(#48,#49,#50,#51,#52));
#26=EDGE_LOOP('',(#53));
#27=EDGE_LOOP('',(#54));
#28=CIRCLE('',#74,0.37846);
#29=CIRCLE('',#75,0.37846);
#30=CIRCLE('',#76,0.25146);
#31=CIRCLE('',#78,0.37846);
#32=B_SPLINE_CURVE_WITH_KNOTS('',3,(#201,#202,#203,#204,#205,#206,#207,
#208,#209,#210),.UNSPECIFIED.,.F.,.F.,(4,1,1,1,1,1,1,4),(-1.,-0.857142857142857,
-0.714285714285714,-0.571428571428571,-0.428571428571429,-0.285714285714286,
-0.142857142857143,0.),.UNSPECIFIED.);
#33=VERTEX_POINT('',#199);
#34=VERTEX_POINT('',#200);
#35=VERTEX_POINT('',#211);
#36=VERTEX_POINT('',#216);
#37=EDGE_CURVE('',#33,#34,#32,.T.);
#38=EDGE_CURVE('',#34,#35,#28,.T.);
#39=EDGE_CURVE('',#35,#34,#29,.T.);
#40=EDGE_CURVE('',#33,#33,#30,.T.);
#41=EDGE_CURVE('',#35,#36,#17,.T.);
#42=EDGE_CURVE('',#36,#36,#31,.T.);
#43=ORIENTED_EDGE('',*,*,#37,.T.);
#44=ORIENTED_EDGE('',*,*,#38,.T.);
#45=ORIENTED_EDGE('',*,*,#39,.T.);
#46=ORIENTED_EDGE('',*,*,#37,.F.);
#47=ORIENTED_EDGE('',*,*,#40,.T.);
#48=ORIENTED_EDGE('',*,*,#38,.F.);
#49=ORIENTED_EDGE('',*,*,#39,.F.);
#50=ORIENTED_EDGE('',*,*,#41,.T.);
#51=ORIENTED_EDGE('',*,*,#42,.F.);
#52=ORIENTED_EDGE('',*,*,#41,.F.);
#53=ORIENTED_EDGE('',*,*,#40,.F.);
#54=ORIENTED_EDGE('',*,*,#42,.T.);
#55=B_SPLINE_SURFACE_WITH_KNOTS('',3,3,((#99,#100,#101,#102,#103,#104,#105,
#106,#107,#108),(#109,#110,#111,#112,#113,#114,#115,#116,#117,#118),(#119,
#120,#121,#122,#123,#124,#125,#126,#127,#128),(#129,#130,#131,#132,#133,
#134,#135,#136,#137,#138),(#139,#140,#141,#142,#143,#144,#145,#146,#147,
#148),(#149,#150,#151,#152,#153,#154,#155,#156,#157,#158),(#159,#160,#161,
#162,#163,#164,#165,#166,#167,#168),(#169,#170,#171,#172,#173,#174,#175,
#176,#177,#178),(#179,#180,#181,#182,#183,#184,#185,#186,#187,#188),(#189,
#190,#191,#192,#193,#194,#195,#196,#197,#198)),.UNSPECIFIED.,.F.,.T.,.F.,
(4,1,1,1,1,1,1,4),(4,1,1,1,1,1,1,4),(0.,0.142857142857143,0.285714285714286,
0.428571428571429,0.571428571428571,0.714285714285714,0.857142857142857,
1.),(-3.14159265358979,-2.24399475256414,-1.34639685153848,-0.448798950512828,
0.448798950512828,1.34639685153848,2.24399475256414,3.14159265358979),
 .UNSPECIFIED.);
#56=ADVANCED_FACE('',(#20),#55,.F.);
#57=ADVANCED_FACE('',(#21),#19,.T.);
#58=ADVANCED_FACE('',(#22),#15,.T.);
#59=ADVANCED_FACE('',(#23),#16,.T.);
#60=CLOSED_SHELL('',(#56,#57,#58,#59));
#61=DERIVED_UNIT_ELEMENT(#63,1.);
#62=DERIVED_UNIT_ELEMENT(#226,-3.);
#63=(
MASS_UNIT()
NAMED_UNIT(*)
SI_UNIT(.KILO.,.GRAM.)
);
#64=DERIVED_UNIT((#61,#62));
#65=MEASURE_REPRESENTATION_ITEM('density measure',
POSITIVE_RATIO_MEASURE(7850.),#64);
#66=PROPERTY_DEFINITION_REPRESENTATION(#71,#68);
#67=PROPERTY_DEFINITION_REPRESENTATION(#72,#69);
#68=REPRESENTATION('material name',(#70),#223);
#69=REPRESENTATION('density',(#65),#223);
#70=DESCRIPTIVE_REPRESENTATION_ITEM('Steel','Steel');
#71=PROPERTY_DEFINITION('material property','material name',#233);
#72=PROPERTY_DEFINITION('material property','density of part',#233);
#73=AXIS2_PLACEMENT_3D('placement',#98,#81,#82);
#74=AXIS2_PLACEMENT_3D('',#212,#83,#84);
#75=AXIS2_PLACEMENT_3D('',#213,#85,#86);
#76=AXIS2_PLACEMENT_3D('',#214,#87,#88);
#77=AXIS2_PLACEMENT_3D('',#215,#89,#90);
#78=AXIS2_PLACEMENT_3D('',#218,#92,#93);
#79=AXIS2_PLACEMENT_3D('',#219,#94,#95);
#80=AXIS2_PLACEMENT_3D('',#220,#96,#97);
#81=DIRECTION('axis',(0.,0.,1.));
#82=DIRECTION('refdir',(1.,0.,0.));
#83=DIRECTION('center_axis',(0.,0.,-1.));
#84=DIRECTION('ref_axis',(0.,-1.,0.));
#85=DIRECTION('center_axis',(0.,0.,-1.));
#86=DIRECTION('ref_axis',(0.,-1.,0.));
#87=DIRECTION('center_axis',(0.,0.,1.));
#88=DIRECTION('ref_axis',(0.,-1.,0.));
#89=DIRECTION('center_axis',(0.,0.,-1.));
#90=DIRECTION('ref_axis',(0.,1.,0.));
#91=DIRECTION('',(0.,0.,1.));
#92=DIRECTION('center_axis',(0.,0.,1.));
#93=DIRECTION('ref_axis',(0.,1.,0.));
#94=DIRECTION('center_axis',(0.,0.,-1.));
#95=DIRECTION('ref_axis',(0.,1.,0.));
#96=DIRECTION('center_axis',(0.,0.,1.));
#97=DIRECTION('ref_axis',(0.,-1.,0.));
#98=CARTESIAN_POINT('',(0.,0.,0.));
#99=CARTESIAN_POINT('Ctrl Pts',(-4.63303070341547,7.04198460483807,-2.4638));
#100=CARTESIAN_POINT('Ctrl Pts',(-4.51979573620808,7.04198460483807,-2.4638));
#101=CARTESIAN_POINT('Ctrl Pts',(-4.2941718980461,6.93363357661108,-2.4638));
#102=CARTESIAN_POINT('Ctrl Pts',(-4.2109955098127,6.5672278162093,-2.4638));
#103=CARTESIAN_POINT('Ctrl Pts',(-4.44494909327604,6.27272140601402,-2.4638));
#104=CARTESIAN_POINT('Ctrl Pts',(-4.82073986207627,6.2735853476915,-2.4638));
#105=CARTESIAN_POINT('Ctrl Pts',(-5.05612729645092,6.56703128934192,-2.4638));
#106=CARTESIAN_POINT('Ctrl Pts',(-4.97121652918936,6.93351986585982,-2.4638));
#107=CARTESIAN_POINT('Ctrl Pts',(-4.74626567062286,7.04198460483807,-2.4638));
#108=CARTESIAN_POINT('Ctrl Pts',(-4.63303070341547,7.04198460483807,-2.4638));
#109=CARTESIAN_POINT('Ctrl Pts',(-4.63303070341547,7.04198460483807,-2.47329957778585));
#110=CARTESIAN_POINT('Ctrl Pts',(-4.51979175933365,7.04198460483807,-2.47329957778585));
#111=CARTESIAN_POINT('Ctrl Pts',(-4.29416789336362,6.93363899156355,-2.47329957778585));
#112=CARTESIAN_POINT('Ctrl Pts',(-4.21099062936598,6.5672272489746,-2.47329957778585));
#113=CARTESIAN_POINT('Ctrl Pts',(-4.44494641102046,6.27271465491817,-2.47329957778586));
#114=CARTESIAN_POINT('Ctrl Pts',(-4.82074220432391,6.27358219558204,-2.47329957778585));
#115=CARTESIAN_POINT('Ctrl Pts',(-5.05613561185385,6.56702852754387,-2.47329957778585));
#116=CARTESIAN_POINT('Ctrl Pts',(-4.97121840364141,6.93352386442405,-2.47329957778585));
#117=CARTESIAN_POINT('Ctrl Pts',(-4.7462696474973,7.04198460483807,-2.47329957778585));
#118=CARTESIAN_POINT('Ctrl Pts',(-4.63303070341547,7.04198460483807,-2.47329957778585));
#119=CARTESIAN_POINT('Ctrl Pts',(-4.63303070341548,7.04188791509375,-2.49209777924137));
#120=CARTESIAN_POINT('Ctrl Pts',(-4.51982403690228,7.04188791509375,-2.49209777924137));
#121=CARTESIAN_POINT('Ctrl Pts',(-4.29425783718867,6.93356542480536,-2.49209777924137));
#122=CARTESIAN_POINT('Ctrl Pts',(-4.21110256055831,6.56725232862303,-2.49209777924137));
#123=CARTESIAN_POINT('Ctrl Pts',(-4.4449967206462,6.27282018176436,-2.49209777924137));
#124=CARTESIAN_POINT('Ctrl Pts',(-4.82069227609991,6.27368447177954,-2.49209777924137));
#125=CARTESIAN_POINT('Ctrl Pts',(-5.05602051766021,6.56705550496797,-2.49209777924137));
#126=CARTESIAN_POINT('Ctrl Pts',(-4.97113042515634,6.93345151915074,-2.49209777924137));
#127=CARTESIAN_POINT('Ctrl Pts',(-4.74623736992867,7.04188791509375,-2.49209777924137));
#128=CARTESIAN_POINT('Ctrl Pts',(-4.63303070341548,7.04188791509375,-2.49209777924137));
#129=CARTESIAN_POINT('Ctrl Pts',(-4.63303070341548,7.03564291828231,-2.52008128398197));
#130=CARTESIAN_POINT('Ctrl Pts',(-4.52169501840432,7.03564291828231,-2.52008128398197));
#131=CARTESIAN_POINT('Ctrl Pts',(-4.29985187190729,6.92910495578735,-2.52008128398197));
#132=CARTESIAN_POINT('Ctrl Pts',(-4.21806964184357,6.56884168327961,-2.52008128398197));
#133=CARTESIAN_POINT('Ctrl Pts',(-4.44810194395925,6.27927306943985,-2.52008128398197));
#134=CARTESIAN_POINT('Ctrl Pts',(-4.81759341090892,6.28012085658474,-2.52008128398197));
#135=CARTESIAN_POINT('Ctrl Pts',(-5.04903377764608,6.5686494726296,-2.52008128398197));
#136=CARTESIAN_POINT('Ctrl Pts',(-4.96554882526088,6.92899381075585,-2.52008128398197));
#137=CARTESIAN_POINT('Ctrl Pts',(-4.74436638842664,7.03564291828231,-2.52008128398197));
#138=CARTESIAN_POINT('Ctrl Pts',(-4.63303070341548,7.03564291828231,-2.52008128398197));
#139=CARTESIAN_POINT('Ctrl Pts',(-4.63303070341548,7.02069949213114,-2.54678294941096));
#140=CARTESIAN_POINT('Ctrl Pts',(-4.52616248498979,7.02069949213114,-2.54678294941096));
#141=CARTESIAN_POINT('Ctrl Pts',(-4.31322803068493,6.91844464725532,-2.54678294941096));
#142=CARTESIAN_POINT('Ctrl Pts',(-4.23472921369256,6.5726434320255,-2.54678294941096));
#143=CARTESIAN_POINT('Ctrl Pts',(-4.45552588765162,6.29469775997719,-2.54678294941096));
#144=CARTESIAN_POINT('Ctrl Pts',(-4.81018386594727,6.29551468889855,-2.54678294941096));
#145=CARTESIAN_POINT('Ctrl Pts',(-5.03233540266577,6.572456996784,-2.54678294941096));
#146=CARTESIAN_POINT('Ctrl Pts',(-4.95219731271606,6.91833671131258,-2.54678294941096));
#147=CARTESIAN_POINT('Ctrl Pts',(-4.73989892184116,7.02069949213114,-2.54678294941096));
#148=CARTESIAN_POINT('Ctrl Pts',(-4.63303070341548,7.02069949213114,-2.54678294941096));
#149=CARTESIAN_POINT('Ctrl Pts',(-4.63303070341548,6.99796748952804,-2.56952726611673));
#150=CARTESIAN_POINT('Ctrl Pts',(-4.53296537475703,6.99796748952804,-2.56952726611673));
#151=CARTESIAN_POINT('Ctrl Pts',(-4.33358290909244,6.90221866320727,-2.56952726611673));
#152=CARTESIAN_POINT('Ctrl Pts',(-4.26008036672594,6.57842766102745,-2.56952726611673));
#153=CARTESIAN_POINT('Ctrl Pts',(-4.4668239167976,6.31817368062659,-2.56952726611674));
#154=CARTESIAN_POINT('Ctrl Pts',(-4.79890833533678,6.31893736847715,-2.56952726611673));
#155=CARTESIAN_POINT('Ctrl Pts',(-5.00691920984134,6.57825385257032,-2.56952726611673));
#156=CARTESIAN_POINT('Ctrl Pts',(-4.93188365486632,6.90211808808976,-2.56952726611673));
#157=CARTESIAN_POINT('Ctrl Pts',(-4.73309603207392,6.99796748952804,-2.56952726611673));
#158=CARTESIAN_POINT('Ctrl Pts',(-4.63303070341548,6.99796748952804,-2.56952726611673));
#159=CARTESIAN_POINT('Ctrl Pts',(-4.63303070341548,6.9712757167877,-2.58443503673213));
#160=CARTESIAN_POINT('Ctrl Pts',(-4.54095395316613,6.9712757167877,-2.58443503673213));
#161=CARTESIAN_POINT('Ctrl Pts',(-4.35748415096325,6.88316530572735,-2.58443503673213));
#162=CARTESIAN_POINT('Ctrl Pts',(-4.28984834968006,6.58521956125595,-2.58443503673213));
#163=CARTESIAN_POINT('Ctrl Pts',(-4.48009044160978,6.34574009212862,-2.58443503673213));
#164=CARTESIAN_POINT('Ctrl Pts',(-4.78566828532053,6.34644065962669,-2.58443503673213));
#165=CARTESIAN_POINT('Ctrl Pts',(-4.97707428012767,6.58506094801698,-2.58443503673213));
#166=CARTESIAN_POINT('Ctrl Pts',(-4.90803117202535,6.88307361175318,-2.58443503673213));
#167=CARTESIAN_POINT('Ctrl Pts',(-4.72510745366482,6.9712757167877,-2.58443503673213));
#168=CARTESIAN_POINT('Ctrl Pts',(-4.63303070341548,6.9712757167877,-2.58443503673213));
#169=CARTESIAN_POINT('Ctrl Pts',(-4.63303070341547,6.94327974085344,-2.59071389265862));
#170=CARTESIAN_POINT('Ctrl Pts',(-4.54932699297332,6.94327974085344,-2.59071389265862));
#171=CARTESIAN_POINT('Ctrl Pts',(-4.38254733164009,6.86318896774966,-2.59071389265862));
#172=CARTESIAN_POINT('Ctrl Pts',(-4.32106363647928,6.59234248696473,-2.59071389265862));
#173=CARTESIAN_POINT('Ctrl Pts',(-4.49400122884818,6.37464347236221,-2.59071389265862));
#174=CARTESIAN_POINT('Ctrl Pts',(-4.77178476432,6.3752831507062,-2.59071389265862));
#175=CARTESIAN_POINT('Ctrl Pts',(-4.94578335992969,6.59219657024533,-2.59071389265862));
#176=CARTESIAN_POINT('Ctrl Pts',(-4.88301598667547,6.86310449699502,-2.59071389265862));
#177=CARTESIAN_POINT('Ctrl Pts',(-4.71673441385763,6.94327974085344,-2.59071389265862));
#178=CARTESIAN_POINT('Ctrl Pts',(-4.63303070341547,6.94327974085344,-2.59071389265862));
#179=CARTESIAN_POINT('Ctrl Pts',(-4.63303070341547,6.92448418262393,-2.5908));
#180=CARTESIAN_POINT('Ctrl Pts',(-4.55495391592127,6.92448418262393,-2.5908));
#181=CARTESIAN_POINT('Ctrl Pts',(-4.3993794935421,6.84976997482446,-2.5908));
#182=CARTESIAN_POINT('Ctrl Pts',(-4.34202733698749,6.59712537104573,-2.5908));
#183=CARTESIAN_POINT('Ctrl Pts',(-4.50334420432846,6.39405764477074,-2.5908));
#184=CARTESIAN_POINT('Ctrl Pts',(-4.76246056856686,6.39465142592935,-2.5908));
#185=CARTESIAN_POINT('Ctrl Pts',(-4.92476409216101,6.59699103833577,-2.5908));
#186=CARTESIAN_POINT('Ctrl Pts',(-4.8662190175143,6.84969232843983,-2.5908));
#187=CARTESIAN_POINT('Ctrl Pts',(-4.71110749090968,6.92448418262393,-2.5908));
#188=CARTESIAN_POINT('Ctrl Pts',(-4.63303070341547,6.92448418262393,-2.5908));
#189=CARTESIAN_POINT('Ctrl Pts',(-4.63303070341547,6.91498460483808,-2.5908));
#190=CARTESIAN_POINT('Ctrl Pts',(-4.5577940473515,6.91498460483808,-2.5908));
#191=CARTESIAN_POINT('Ctrl Pts',(-4.40788290655931,6.84299298205639,-2.5908));
#192=CARTESIAN_POINT('Ctrl Pts',(-4.35261805800155,6.59954217480956,-2.5908));
#193=CARTESIAN_POINT('Ctrl Pts',(-4.50806372755102,6.40386341904223,-2.5908));
#194=CARTESIAN_POINT('Ctrl Pts',(-4.75775021151895,6.40443744740511,-2.5908));
#195=CARTESIAN_POINT('Ctrl Pts',(-4.91414857395581,6.5994115965554,-2.5908));
#196=CARTESIAN_POINT('Ctrl Pts',(-4.85773135275517,6.84291742927534,-2.5908));
#197=CARTESIAN_POINT('Ctrl Pts',(-4.70826735947945,6.91498460483808,-2.5908));
#198=CARTESIAN_POINT('Ctrl Pts',(-4.63303070341547,6.91498460483808,-2.5908));
#199=CARTESIAN_POINT('',(-4.63303070341547,6.91498460483808,-2.5908));
#200=CARTESIAN_POINT('',(-4.63303070341547,7.04198460483807,-2.4638));
#201=CARTESIAN_POINT('Ctrl Pts',(-4.63303070341547,6.91498460483808,-2.5908));
#202=CARTESIAN_POINT('Ctrl Pts',(-4.63303070341547,6.92448418262393,-2.5908));
#203=CARTESIAN_POINT('Ctrl Pts',(-4.63303070341547,6.94327974085344,-2.59071389265862));
#204=CARTESIAN_POINT('Ctrl Pts',(-4.63303070341548,6.9712757167877,-2.58443503673213));
#205=CARTESIAN_POINT('Ctrl Pts',(-4.63303070341548,6.99796748952804,-2.56952726611673));
#206=CARTESIAN_POINT('Ctrl Pts',(-4.63303070341548,7.02069949213114,-2.54678294941096));
#207=CARTESIAN_POINT('Ctrl Pts',(-4.63303070341548,7.03564291828231,-2.52008128398197));
#208=CARTESIAN_POINT('Ctrl Pts',(-4.63303070341548,7.04188791509375,-2.49209777924137));
#209=CARTESIAN_POINT('Ctrl Pts',(-4.63303070341547,7.04198460483807,-2.47329957778585));
#210=CARTESIAN_POINT('Ctrl Pts',(-4.63303070341547,7.04198460483807,-2.4638));
#211=CARTESIAN_POINT('',(-4.63303070341547,6.28506460483808,-2.4638));
#212=CARTESIAN_POINT('Origin',(-4.63303070341547,6.66352460483808,-2.4638));
#213=CARTESIAN_POINT('Origin',(-4.63303070341547,6.66352460483808,-2.4638));
#214=CARTESIAN_POINT('Origin',(-4.63303070341547,6.66352460483808,-2.5908));
#215=CARTESIAN_POINT('Origin',(-4.63303070341547,6.66352460483808,-1.2954));
#216=CARTESIAN_POINT('',(-4.63303070341547,6.28506460483808,0.));
#217=CARTESIAN_POINT('',(-4.63303070341547,6.28506460483808,-1.2954));
#218=CARTESIAN_POINT('Origin',(-4.63303070341547,6.66352460483808,0.));
#219=CARTESIAN_POINT('Origin',(-4.63303070341547,6.66352460483808,-2.5908));
#220=CARTESIAN_POINT('Origin',(-4.63303070341547,6.66352460483808,0.));
#221=UNCERTAINTY_MEASURE_WITH_UNIT(LENGTH_MEASURE(0.001),#225,
'DISTANCE_ACCURACY_VALUE',
'Maximum model space distance between geometric entities at asserted c
onnectivities');
#222=UNCERTAINTY_MEASURE_WITH_UNIT(LENGTH_MEASURE(0.001),#225,
'DISTANCE_ACCURACY_VALUE',
'Maximum model space distance between geometric entities at asserted c
onnectivities');
#223=(
GEOMETRIC_REPRESENTATION_CONTEXT(3)
GLOBAL_UNCERTAINTY_ASSIGNED_CONTEXT((#221))
GLOBAL_UNIT_ASSIGNED_CONTEXT((#225,#227,#228))
REPRESENTATION_CONTEXT('','3D')
);
#224=(
GEOMETRIC_REPRESENTATION_CONTEXT(3)
GLOBAL_UNCERTAINTY_ASSIGNED_CONTEXT((#222))
GLOBAL_UNIT_ASSIGNED_CONTEXT((#225,#227,#228))
REPRESENTATION_CONTEXT('','3D')
);
#225=(
LENGTH_UNIT()
NAMED_UNIT(*)
SI_UNIT(.CENTI.,.METRE.)
);
#226=(
LENGTH_UNIT()
NAMED_UNIT(*)
SI_UNIT($,.METRE.)
);
#227=(
NAMED_UNIT(*)
PLANE_ANGLE_UNIT()
SI_UNIT($,.RADIAN.)
);
#228=(
NAMED_UNIT(*)
SI_UNIT($,.STERADIAN.)
SOLID_ANGLE_UNIT()
);
#229=SHAPE_DEFINITION_REPRESENTATION(#230,#231);
#230=PRODUCT_DEFINITION_SHAPE('',$,#233);
#231=SHAPE_REPRESENTATION('',(#73),#223);
#232=PRODUCT_DEFINITION_CONTEXT('part definition',#237,'design');
#233=PRODUCT_DEFINITION('temp_body','temp_body',#234,#232);
#234=PRODUCT_DEFINITION_FORMATION('',$,#239);
#235=PRODUCT_RELATED_PRODUCT_CATEGORY('temp_body','temp_body',(#239));
#236=APPLICATION_PROTOCOL_DEFINITION('international standard',
'automotive_design',2009,#237);
#237=APPLICATION_CONTEXT(
'Core Data for Automotive Mechanical Design Process');
#238=PRODUCT_CONTEXT('part definition',#237,'mechanical');
#239=PRODUCT('temp_body','temp_body',$,(#238));
#240=PRESENTATION_STYLE_ASSIGNMENT((#241));
#241=SURFACE_STYLE_USAGE(.BOTH.,#242);
#242=SURFACE_SIDE_STYLE('',(#243));
#243=SURFACE_STYLE_FILL_AREA(#244);
#244=FILL_AREA_STYLE('Steel - Satin',(#245));
#245=FILL_AREA_STYLE_COLOUR('Steel - Satin',#246);
#246=COLOUR_RGB('Steel - Satin',0.627450980392157,0.627450980392157,0.627450980392157);
ENDSEC;
END-ISO-10303-21;
