ISO-10303-21;
HEADER;
/* Generated by software containing ST-Developer
 * from STEP Tools, Inc. (www.steptools.com) 
 */

FILE_DESCRIPTION(
/* description */ (''),
/* implementation_level */ '2;1');

FILE_NAME(
/* name */ 
'C:\\Users\\designnet\\AppData\\Local\\Temp\\derivatives\\21353_4686c9
0c\\AssemblyExtractor\\21353_4686c90c\\9946ec08-0546-11ec-bbbd-06214ff
114d7.step',
/* time_stamp */ '2021-08-25T01:49:01+00:00',
/* author */ (''),
/* organization */ (''),
/* preprocessor_version */ 'ST-DEVELOPER v18.1',
/* originating_system */ 'Autodesk Translation Framework v10.6.0.1341',

/* authorisation */ '');

FILE_SCHEMA (('AUTOMOTIVE_DESIGN { 1 0 10303 214 3 1 1 }'));
ENDSEC;

DATA;
#10=MECHANICAL_DESIGN_GEOMETRIC_PRESENTATION_REPRESENTATION('',(#13),#224);
#11=SHAPE_REPRESENTATION_RELATIONSHIP('SRR','None',#231,#12);
#12=ADVANCED_BREP_SHAPE_REPRESENTATION('',(#14),#223);
#13=STYLED_ITEM('',(#240),#14);
#14=MANIFOLD_SOLID_BREP('Body1',#60);
#15=PLANE('',#79);
#16=PLANE('',#80);
#17=LINE('',#217,#18);
#18=VECTOR('',#91,0.37846);
#19=CYLINDRICAL_SURFACE('',#77,0.37846);
#20=FACE_OUTER_BOUND('',#24,.T.);
#21=FACE_OUTER_BOUND('',#25,.T.);
#22=FACE_OUTER_BOUND('',#26,.T.);
#23=FACE_OUTER_BOUND('',#27,.T.);
#24=EDGE_LOOP('',(#43,#44,#45,#46,#47));
#25=EDGE_LOOP('',(#48,#49,#50,#51,#52));
#26=EDGE_LOOP('',(#53));
#27=EDGE_LOOP('',(#54));
#28=CIRCLE('',#74,0.37846);
#29=CIRCLE('',#75,0.37846);
#30=CIRCLE('',#76,0.25146);
#31=CIRCLE('',#78,0.37846);
#32=B_SPLINE_CURVE_WITH_KNOTS('',3,(#201,#202,#203,#204,#205,#206,#207,
#208,#209,#210),.UNSPECIFIED.,.F.,.F.,(4,1,1,1,1,1,1,4),(-1.,-0.857142857142857,
-0.714285714285714,-0.571428571428571,-0.428571428571429,-0.285714285714286,
-0.142857142857143,0.),.UNSPECIFIED.);
#33=VERTEX_POINT('',#199);
#34=VERTEX_POINT('',#200);
#35=VERTEX_POINT('',#211);
#36=VERTEX_POINT('',#216);
#37=EDGE_CURVE('',#33,#34,#32,.T.);
#38=EDGE_CURVE('',#34,#35,#28,.T.);
#39=EDGE_CURVE('',#35,#34,#29,.T.);
#40=EDGE_CURVE('',#33,#33,#30,.T.);
#41=EDGE_CURVE('',#35,#36,#17,.T.);
#42=EDGE_CURVE('',#36,#36,#31,.T.);
#43=ORIENTED_EDGE('',*,*,#37,.T.);
#44=ORIENTED_EDGE('',*,*,#38,.T.);
#45=ORIENTED_EDGE('',*,*,#39,.T.);
#46=ORIENTED_EDGE('',*,*,#37,.F.);
#47=ORIENTED_EDGE('',*,*,#40,.T.);
#48=ORIENTED_EDGE('',*,*,#38,.F.);
#49=ORIENTED_EDGE('',*,*,#39,.F.);
#50=ORIENTED_EDGE('',*,*,#41,.T.);
#51=ORIENTED_EDGE('',*,*,#42,.F.);
#52=ORIENTED_EDGE('',*,*,#41,.F.);
#53=ORIENTED_EDGE('',*,*,#40,.F.);
#54=ORIENTED_EDGE('',*,*,#42,.T.);
#55=B_SPLINE_SURFACE_WITH_KNOTS('',3,3,((#99,#100,#101,#102,#103,#104,#105,
#106,#107,#108),(#109,#110,#111,#112,#113,#114,#115,#116,#117,#118),(#119,
#120,#121,#122,#123,#124,#125,#126,#127,#128),(#129,#130,#131,#132,#133,
#134,#135,#136,#137,#138),(#139,#140,#141,#142,#143,#144,#145,#146,#147,
#148),(#149,#150,#151,#152,#153,#154,#155,#156,#157,#158),(#159,#160,#161,
#162,#163,#164,#165,#166,#167,#168),(#169,#170,#171,#172,#173,#174,#175,
#176,#177,#178),(#179,#180,#181,#182,#183,#184,#185,#186,#187,#188),(#189,
#190,#191,#192,#193,#194,#195,#196,#197,#198)),.UNSPECIFIED.,.F.,.T.,.F.,
(4,1,1,1,1,1,1,4),(4,1,1,1,1,1,1,4),(0.,0.142857142857143,0.285714285714286,
0.428571428571429,0.571428571428571,0.714285714285714,0.857142857142857,
1.),(-3.14159265358979,-2.24399475256414,-1.34639685153848,-0.448798950512828,
0.448798950512828,1.34639685153848,2.24399475256414,3.14159265358979),
 .UNSPECIFIED.);
#56=ADVANCED_FACE('',(#20),#55,.F.);
#57=ADVANCED_FACE('',(#21),#19,.T.);
#58=ADVANCED_FACE('',(#22),#15,.T.);
#59=ADVANCED_FACE('',(#23),#16,.T.);
#60=CLOSED_SHELL('',(#56,#57,#58,#59));
#61=DERIVED_UNIT_ELEMENT(#63,1.);
#62=DERIVED_UNIT_ELEMENT(#226,-3.);
#63=(
MASS_UNIT()
NAMED_UNIT(*)
SI_UNIT(.KILO.,.GRAM.)
);
#64=DERIVED_UNIT((#61,#62));
#65=MEASURE_REPRESENTATION_ITEM('density measure',
POSITIVE_RATIO_MEASURE(7850.),#64);
#66=PROPERTY_DEFINITION_REPRESENTATION(#71,#68);
#67=PROPERTY_DEFINITION_REPRESENTATION(#72,#69);
#68=REPRESENTATION('material name',(#70),#223);
#69=REPRESENTATION('density',(#65),#223);
#70=DESCRIPTIVE_REPRESENTATION_ITEM('Steel','Steel');
#71=PROPERTY_DEFINITION('material property','material name',#233);
#72=PROPERTY_DEFINITION('material property','density of part',#233);
#73=AXIS2_PLACEMENT_3D('placement',#98,#81,#82);
#74=AXIS2_PLACEMENT_3D('',#212,#83,#84);
#75=AXIS2_PLACEMENT_3D('',#213,#85,#86);
#76=AXIS2_PLACEMENT_3D('',#214,#87,#88);
#77=AXIS2_PLACEMENT_3D('',#215,#89,#90);
#78=AXIS2_PLACEMENT_3D('',#218,#92,#93);
#79=AXIS2_PLACEMENT_3D('',#219,#94,#95);
#80=AXIS2_PLACEMENT_3D('',#220,#96,#97);
#81=DIRECTION('axis',(0.,0.,1.));
#82=DIRECTION('refdir',(1.,0.,0.));
#83=DIRECTION('center_axis',(0.,0.,-1.));
#84=DIRECTION('ref_axis',(0.,-1.,0.));
#85=DIRECTION('center_axis',(0.,0.,-1.));
#86=DIRECTION('ref_axis',(0.,-1.,0.));
#87=DIRECTION('center_axis',(0.,0.,1.));
#88=DIRECTION('ref_axis',(0.,-1.,0.));
#89=DIRECTION('center_axis',(0.,0.,-1.));
#90=DIRECTION('ref_axis',(0.,1.,0.));
#91=DIRECTION('',(0.,0.,1.));
#92=DIRECTION('center_axis',(0.,0.,1.));
#93=DIRECTION('ref_axis',(0.,1.,0.));
#94=DIRECTION('center_axis',(0.,0.,-1.));
#95=DIRECTION('ref_axis',(0.,1.,0.));
#96=DIRECTION('center_axis',(0.,0.,1.));
#97=DIRECTION('ref_axis',(0.,-1.,0.));
#98=CARTESIAN_POINT('',(0.,0.,0.));
#99=CARTESIAN_POINT('Ctrl Pts',(-4.63303070341547,4.68994460483807,-2.4638));
#100=CARTESIAN_POINT('Ctrl Pts',(-4.51979573620808,4.68994460483807,-2.4638));
#101=CARTESIAN_POINT('Ctrl Pts',(-4.29417941857951,4.58160898137486,-2.4638));
#102=CARTESIAN_POINT('Ctrl Pts',(-4.21097920822248,4.21519229431296,-2.4638));
#103=CARTESIAN_POINT('Ctrl Pts',(-4.44495202797484,3.92069915933946,-2.4638));
#104=CARTESIAN_POINT('Ctrl Pts',(-4.82074120903222,3.9215354431088,-2.4638));
#105=CARTESIAN_POINT('Ctrl Pts',(-5.05610893526579,4.2149917004847,-2.4638));
#106=CARTESIAN_POINT('Ctrl Pts',(-4.97122097452238,4.58149726907103,-2.4638));
#107=CARTESIAN_POINT('Ctrl Pts',(-4.74626567062286,4.68994460483807,-2.4638));
#108=CARTESIAN_POINT('Ctrl Pts',(-4.63303070341547,4.68994460483807,-2.4638));
#109=CARTESIAN_POINT('Ctrl Pts',(-4.63303070341547,4.68994460483807,-2.47329957778585));
#110=CARTESIAN_POINT('Ctrl Pts',(-4.51979175933365,4.68994460483807,-2.47329957778585));
#111=CARTESIAN_POINT('Ctrl Pts',(-4.29417594919779,4.58161423223045,-2.47329957778585));
#112=CARTESIAN_POINT('Ctrl Pts',(-4.21097490009514,4.21519190679798,-2.47329957778586));
#113=CARTESIAN_POINT('Ctrl Pts',(-4.44494958972922,3.92069293639465,-2.47329957778585));
#114=CARTESIAN_POINT('Ctrl Pts',(-4.82074320216385,3.92153288036242,-2.47329957778586));
#115=CARTESIAN_POINT('Ctrl Pts',(-5.05611672201216,4.21498917664349,-2.47329957778585));
#116=CARTESIAN_POINT('Ctrl Pts',(-4.97122220078957,4.5815011073089,-2.47329957778586));
#117=CARTESIAN_POINT('Ctrl Pts',(-4.7462696474973,4.68994460483807,-2.47329957778585));
#118=CARTESIAN_POINT('Ctrl Pts',(-4.63303070341547,4.68994460483807,-2.47329957778585));
#119=CARTESIAN_POINT('Ctrl Pts',(-4.63303070341547,4.68984793248664,-2.4920977968531));
#120=CARTESIAN_POINT('Ctrl Pts',(-4.51982403690228,4.68984793248664,-2.4920977968531));
#121=CARTESIAN_POINT('Ctrl Pts',(-4.29426542940789,4.58154080523015,-2.49209779685309));
#122=CARTESIAN_POINT('Ctrl Pts',(-4.2110863398672,4.21521683008105,-2.4920977968531));
#123=CARTESIAN_POINT('Ctrl Pts',(-4.44499968772427,3.92079800424728,-2.4920977968531));
#124=CARTESIAN_POINT('Ctrl Pts',(-4.82069357352922,3.92163464834792,-2.4920977968531));
#125=CARTESIAN_POINT('Ctrl Pts',(-5.05600208683073,4.21501595249866,-2.4920977968531));
#126=CARTESIAN_POINT('Ctrl Pts',(-4.97113478080248,4.58142889995193,-2.4920977968531));
#127=CARTESIAN_POINT('Ctrl Pts',(-4.74623736992867,4.68984793248664,-2.4920977968531));
#128=CARTESIAN_POINT('Ctrl Pts',(-4.63303070341547,4.68984793248664,-2.4920977968531));
#129=CARTESIAN_POINT('Ctrl Pts',(-4.63303070341547,4.68360291732742,-2.52008131957971));
#130=CARTESIAN_POINT('Ctrl Pts',(-4.52169501840432,4.68360291732742,-2.52008131957971));
#131=CARTESIAN_POINT('Ctrl Pts',(-4.29985901747137,4.57708017861783,-2.5200813195797));
#132=CARTESIAN_POINT('Ctrl Pts',(-4.2180533473524,4.21680600277558,-2.52008131957971));
#133=CARTESIAN_POINT('Ctrl Pts',(-4.44810471602471,3.92725027959601,-2.5200813195797));
#134=CARTESIAN_POINT('Ctrl Pts',(-4.81759489772172,3.92807084400789,-2.52008131957971));
#135=CARTESIAN_POINT('Ctrl Pts',(-5.0490159700824,4.2166097660099,-2.52008131957971));
#136=CARTESIAN_POINT('Ctrl Pts',(-4.9655534975235,4.57697099668766,-2.52008131957971));
#137=CARTESIAN_POINT('Ctrl Pts',(-4.74436638842663,4.68360291732742,-2.52008131957971));
#138=CARTESIAN_POINT('Ctrl Pts',(-4.63303070341547,4.68360291732742,-2.52008131957971));
#139=CARTESIAN_POINT('Ctrl Pts',(-4.63303070341547,4.66865950555355,-2.54678299763634));
#140=CARTESIAN_POINT('Ctrl Pts',(-4.52616248498979,4.66865950555355,-2.54678299763634));
#141=CARTESIAN_POINT('Ctrl Pts',(-4.31323535422454,4.56641911802989,-2.54678299763634));
#142=CARTESIAN_POINT('Ctrl Pts',(-4.23471406900968,4.22060773397589,-2.54678299763634));
#143=CARTESIAN_POINT('Ctrl Pts',(-4.45552875997796,3.94267473860934,-2.54678299763634));
#144=CARTESIAN_POINT('Ctrl Pts',(-4.8101849888648,3.94346558828855,-2.54678299763634));
#145=CARTESIAN_POINT('Ctrl Pts',(-5.03231784970546,4.22041748816567,-2.54678299763634));
#146=CARTESIAN_POINT('Ctrl Pts',(-4.9522012348595,4.56631307121335,-2.54678299763634));
#147=CARTESIAN_POINT('Ctrl Pts',(-4.73989892184116,4.66865950555355,-2.54678299763634));
#148=CARTESIAN_POINT('Ctrl Pts',(-4.63303070341547,4.66865950555355,-2.54678299763634));
#149=CARTESIAN_POINT('Ctrl Pts',(-4.63303070341547,4.6459274800591,-2.56952732769133));
#150=CARTESIAN_POINT('Ctrl Pts',(-4.53296537475703,4.6459274800591,-2.56952732769133));
#151=CARTESIAN_POINT('Ctrl Pts',(-4.33358959481027,4.55019226290916,-2.56952732769133));
#152=CARTESIAN_POINT('Ctrl Pts',(-4.26006600479839,4.22639163180262,-2.56952732769133));
#153=CARTESIAN_POINT('Ctrl Pts',(-4.46682652857711,3.96614940788829,-2.56952732769133));
#154=CARTESIAN_POINT('Ctrl Pts',(-4.79890950027417,3.96688866106597,-2.56952732769133));
#155=CARTESIAN_POINT('Ctrl Pts',(-5.0069029456917,4.22621423156285,-2.56952732769133));
#156=CARTESIAN_POINT('Ctrl Pts',(-4.93188753459269,4.55009345304291,-2.56952732769133));
#157=CARTESIAN_POINT('Ctrl Pts',(-4.73309603207392,4.6459274800591,-2.56952732769133));
#158=CARTESIAN_POINT('Ctrl Pts',(-4.63303070341547,4.6459274800591,-2.56952732769133));
#159=CARTESIAN_POINT('Ctrl Pts',(-4.63303070341548,4.61923568572323,-2.58443512718112));
#160=CARTESIAN_POINT('Ctrl Pts',(-4.54095395316613,4.61923568572323,-2.58443512718112));
#161=CARTESIAN_POINT('Ctrl Pts',(-4.35748999441396,4.53113791189139,-2.58443512718112));
#162=CARTESIAN_POINT('Ctrl Pts',(-4.28983480646672,4.23318311176435,-2.58443512718112));
#163=CARTESIAN_POINT('Ctrl Pts',(-4.48009270477989,3.99371425826971,-2.58443512718112));
#164=CARTESIAN_POINT('Ctrl Pts',(-4.78566956011553,3.99439231040409,-2.58443512718112));
#165=CARTESIAN_POINT('Ctrl Pts',(-4.97705962097489,4.23302115469611,-2.58443512718112));
#166=CARTESIAN_POINT('Ctrl Pts',(-4.90803511514604,4.53104783764139,-2.58443512718112));
#167=CARTESIAN_POINT('Ctrl Pts',(-4.72510745366482,4.61923568572323,-2.58443512718112));
#168=CARTESIAN_POINT('Ctrl Pts',(-4.63303070341548,4.61923568572323,-2.58443512718112));
#169=CARTESIAN_POINT('Ctrl Pts',(-4.63303070341548,4.59123972142918,-2.59071395125614));
#170=CARTESIAN_POINT('Ctrl Pts',(-4.54932699297332,4.59123972142918,-2.59071395125614));
#171=CARTESIAN_POINT('Ctrl Pts',(-4.38255306050594,4.51116030040298,-2.59071395125613));
#172=CARTESIAN_POINT('Ctrl Pts',(-4.32105177011899,4.24030585437544,-2.59071395125614));
#173=CARTESIAN_POINT('Ctrl Pts',(-4.49400347600401,4.02261676177942,-2.59071395125614));
#174=CARTESIAN_POINT('Ctrl Pts',(-4.77178565059501,4.02323601888675,-2.59071395125614));
#175=CARTESIAN_POINT('Ctrl Pts',(-4.94576962166585,4.24015694539948,-2.59071395125614));
#176=CARTESIAN_POINT('Ctrl Pts',(-4.88301906645923,4.51107730593767,-2.59071395125614));
#177=CARTESIAN_POINT('Ctrl Pts',(-4.71673441385763,4.59123972142918,-2.59071395125614));
#178=CARTESIAN_POINT('Ctrl Pts',(-4.63303070341548,4.59123972142918,-2.59071395125614));
#179=CARTESIAN_POINT('Ctrl Pts',(-4.63303070341547,4.57244418262393,-2.5908));
#180=CARTESIAN_POINT('Ctrl Pts',(-4.55495391592127,4.57244418262393,-2.5908));
#181=CARTESIAN_POINT('Ctrl Pts',(-4.39938439171801,4.49774068499407,-2.5908));
#182=CARTESIAN_POINT('Ctrl Pts',(-4.34201578921195,4.245088362323,-2.5908));
#183=CARTESIAN_POINT('Ctrl Pts',(-4.50334609685745,4.04202960260464,-2.5908));
#184=CARTESIAN_POINT('Ctrl Pts',(-4.76246168481023,4.04260427993079,-2.5908));
#185=CARTESIAN_POINT('Ctrl Pts',(-4.924751715461,4.24495119404738,-2.5908));
#186=CARTESIAN_POINT('Ctrl Pts',(-4.86622243078316,4.49766441457441,-2.5908));
#187=CARTESIAN_POINT('Ctrl Pts',(-4.71110749090968,4.57244418262393,-2.5908));
#188=CARTESIAN_POINT('Ctrl Pts',(-4.63303070341547,4.57244418262393,-2.5908));
#189=CARTESIAN_POINT('Ctrl Pts',(-4.63303070341547,4.56294460483807,-2.5908));
#190=CARTESIAN_POINT('Ctrl Pts',(-4.5577940473515,4.56294460483807,-2.5908));
#191=CARTESIAN_POINT('Ctrl Pts',(-4.40788790342379,4.49096321743634,-2.5908));
#192=CARTESIAN_POINT('Ctrl Pts',(-4.35260722674362,4.24750515019387,-2.5908));
#193=CARTESIAN_POINT('Ctrl Pts',(-4.50806567745156,4.05183521487591,-2.5908));
#194=CARTESIAN_POINT('Ctrl Pts',(-4.75775110647626,4.05239086650788,-2.5908));
#195=CARTESIAN_POINT('Ctrl Pts',(-4.91413637424219,4.2473718697308,-2.5908));
#196=CARTESIAN_POINT('Ctrl Pts',(-4.8577343063657,4.49088899248279,-2.5908));
#197=CARTESIAN_POINT('Ctrl Pts',(-4.70826735947945,4.56294460483807,-2.5908));
#198=CARTESIAN_POINT('Ctrl Pts',(-4.63303070341547,4.56294460483807,-2.5908));
#199=CARTESIAN_POINT('',(-4.63303070341547,4.56294460483807,-2.5908));
#200=CARTESIAN_POINT('',(-4.63303070341547,4.68994460483807,-2.4638));
#201=CARTESIAN_POINT('Ctrl Pts',(-4.63303070341547,4.56294460483807,-2.5908));
#202=CARTESIAN_POINT('Ctrl Pts',(-4.63303070341547,4.57244418262393,-2.5908));
#203=CARTESIAN_POINT('Ctrl Pts',(-4.63303070341548,4.59123972142918,-2.59071395125614));
#204=CARTESIAN_POINT('Ctrl Pts',(-4.63303070341548,4.61923568572323,-2.58443512718112));
#205=CARTESIAN_POINT('Ctrl Pts',(-4.63303070341547,4.6459274800591,-2.56952732769133));
#206=CARTESIAN_POINT('Ctrl Pts',(-4.63303070341547,4.66865950555355,-2.54678299763634));
#207=CARTESIAN_POINT('Ctrl Pts',(-4.63303070341547,4.68360291732742,-2.52008131957971));
#208=CARTESIAN_POINT('Ctrl Pts',(-4.63303070341547,4.68984793248664,-2.4920977968531));
#209=CARTESIAN_POINT('Ctrl Pts',(-4.63303070341547,4.68994460483807,-2.47329957778585));
#210=CARTESIAN_POINT('Ctrl Pts',(-4.63303070341547,4.68994460483807,-2.4638));
#211=CARTESIAN_POINT('',(-4.63303070341547,3.93302460483807,-2.4638));
#212=CARTESIAN_POINT('Origin',(-4.63303070341547,4.31148460483807,-2.4638));
#213=CARTESIAN_POINT('Origin',(-4.63303070341547,4.31148460483807,-2.4638));
#214=CARTESIAN_POINT('Origin',(-4.63303070341547,4.31148460483807,-2.5908));
#215=CARTESIAN_POINT('Origin',(-4.63303070341547,4.31148460483807,-1.2954));
#216=CARTESIAN_POINT('',(-4.63303070341547,3.93302460483807,0.));
#217=CARTESIAN_POINT('',(-4.63303070341547,3.93302460483807,-1.2954));
#218=CARTESIAN_POINT('Origin',(-4.63303070341547,4.31148460483807,0.));
#219=CARTESIAN_POINT('Origin',(-4.63303070341547,4.31148460483807,-2.5908));
#220=CARTESIAN_POINT('Origin',(-4.63303070341547,4.31148460483807,0.));
#221=UNCERTAINTY_MEASURE_WITH_UNIT(LENGTH_MEASURE(0.001),#225,
'DISTANCE_ACCURACY_VALUE',
'Maximum model space distance between geometric entities at asserted c
onnectivities');
#222=UNCERTAINTY_MEASURE_WITH_UNIT(LENGTH_MEASURE(0.001),#225,
'DISTANCE_ACCURACY_VALUE',
'Maximum model space distance between geometric entities at asserted c
onnectivities');
#223=(
GEOMETRIC_REPRESENTATION_CONTEXT(3)
GLOBAL_UNCERTAINTY_ASSIGNED_CONTEXT((#221))
GLOBAL_UNIT_ASSIGNED_CONTEXT((#225,#227,#228))
REPRESENTATION_CONTEXT('','3D')
);
#224=(
GEOMETRIC_REPRESENTATION_CONTEXT(3)
GLOBAL_UNCERTAINTY_ASSIGNED_CONTEXT((#222))
GLOBAL_UNIT_ASSIGNED_CONTEXT((#225,#227,#228))
REPRESENTATION_CONTEXT('','3D')
);
#225=(
LENGTH_UNIT()
NAMED_UNIT(*)
SI_UNIT(.CENTI.,.METRE.)
);
#226=(
LENGTH_UNIT()
NAMED_UNIT(*)
SI_UNIT($,.METRE.)
);
#227=(
NAMED_UNIT(*)
PLANE_ANGLE_UNIT()
SI_UNIT($,.RADIAN.)
);
#228=(
NAMED_UNIT(*)
SI_UNIT($,.STERADIAN.)
SOLID_ANGLE_UNIT()
);
#229=SHAPE_DEFINITION_REPRESENTATION(#230,#231);
#230=PRODUCT_DEFINITION_SHAPE('',$,#233);
#231=SHAPE_REPRESENTATION('',(#73),#223);
#232=PRODUCT_DEFINITION_CONTEXT('part definition',#237,'design');
#233=PRODUCT_DEFINITION('temp_body','temp_body',#234,#232);
#234=PRODUCT_DEFINITION_FORMATION('',$,#239);
#235=PRODUCT_RELATED_PRODUCT_CATEGORY('temp_body','temp_body',(#239));
#236=APPLICATION_PROTOCOL_DEFINITION('international standard',
'automotive_design',2009,#237);
#237=APPLICATION_CONTEXT(
'Core Data for Automotive Mechanical Design Process');
#238=PRODUCT_CONTEXT('part definition',#237,'mechanical');
#239=PRODUCT('temp_body','temp_body',$,(#238));
#240=PRESENTATION_STYLE_ASSIGNMENT((#241));
#241=SURFACE_STYLE_USAGE(.BOTH.,#242);
#242=SURFACE_SIDE_STYLE('',(#243));
#243=SURFACE_STYLE_FILL_AREA(#244);
#244=FILL_AREA_STYLE('Steel - Satin',(#245));
#245=FILL_AREA_STYLE_COLOUR('Steel - Satin',#246);
#246=COLOUR_RGB('Steel - Satin',0.627450980392157,0.627450980392157,0.627450980392157);
ENDSEC;
END-ISO-10303-21;
