ISO-10303-21;
HEADER;
/* Generated by software containing ST-Developer
 * from STEP Tools, Inc. (www.steptools.com) 
 */

FILE_DESCRIPTION(
/* description */ (''),
/* implementation_level */ '2;1');

FILE_NAME(
/* name */ 
'C:\\Users\\designnet\\AppData\\Local\\Temp\\derivatives\\21353_4686c9
0c\\AssemblyExtractor\\21353_4686c90c\\994676da-0546-11ec-8292-06214ff
114d7.step',
/* time_stamp */ '2021-08-25T01:49:01+00:00',
/* author */ (''),
/* organization */ (''),
/* preprocessor_version */ 'ST-DEVELOPER v18.1',
/* originating_system */ 'Autodesk Translation Framework v10.6.0.1341',

/* authorisation */ '');

FILE_SCHEMA (('AUTOMOTIVE_DESIGN { 1 0 10303 214 3 1 1 }'));
ENDSEC;

DATA;
#10=MECHANICAL_DESIGN_GEOMETRIC_PRESENTATION_REPRESENTATION('',(#13),#224);
#11=SHAPE_REPRESENTATION_RELATIONSHIP('SRR','None',#231,#12);
#12=ADVANCED_BREP_SHAPE_REPRESENTATION('',(#14),#223);
#13=STYLED_ITEM('',(#240),#14);
#14=MANIFOLD_SOLID_BREP('Body1',#60);
#15=PLANE('',#79);
#16=PLANE('',#80);
#17=LINE('',#217,#18);
#18=VECTOR('',#91,0.37846);
#19=CYLINDRICAL_SURFACE('',#77,0.37846);
#20=FACE_OUTER_BOUND('',#24,.T.);
#21=FACE_OUTER_BOUND('',#25,.T.);
#22=FACE_OUTER_BOUND('',#26,.T.);
#23=FACE_OUTER_BOUND('',#27,.T.);
#24=EDGE_LOOP('',(#43,#44,#45,#46,#47));
#25=EDGE_LOOP('',(#48,#49,#50,#51,#52));
#26=EDGE_LOOP('',(#53));
#27=EDGE_LOOP('',(#54));
#28=CIRCLE('',#74,0.37846);
#29=CIRCLE('',#75,0.37846);
#30=CIRCLE('',#76,0.25146);
#31=CIRCLE('',#78,0.37846);
#32=B_SPLINE_CURVE_WITH_KNOTS('',3,(#201,#202,#203,#204,#205,#206,#207,
#208,#209,#210),.UNSPECIFIED.,.F.,.F.,(4,1,1,1,1,1,1,4),(-1.,-0.857142857142857,
-0.714285714285714,-0.571428571428571,-0.428571428571429,-0.285714285714286,
-0.142857142857143,0.),.UNSPECIFIED.);
#33=VERTEX_POINT('',#199);
#34=VERTEX_POINT('',#200);
#35=VERTEX_POINT('',#211);
#36=VERTEX_POINT('',#216);
#37=EDGE_CURVE('',#33,#34,#32,.T.);
#38=EDGE_CURVE('',#34,#35,#28,.T.);
#39=EDGE_CURVE('',#35,#34,#29,.T.);
#40=EDGE_CURVE('',#33,#33,#30,.T.);
#41=EDGE_CURVE('',#35,#36,#17,.T.);
#42=EDGE_CURVE('',#36,#36,#31,.T.);
#43=ORIENTED_EDGE('',*,*,#37,.T.);
#44=ORIENTED_EDGE('',*,*,#38,.T.);
#45=ORIENTED_EDGE('',*,*,#39,.T.);
#46=ORIENTED_EDGE('',*,*,#37,.F.);
#47=ORIENTED_EDGE('',*,*,#40,.T.);
#48=ORIENTED_EDGE('',*,*,#38,.F.);
#49=ORIENTED_EDGE('',*,*,#39,.F.);
#50=ORIENTED_EDGE('',*,*,#41,.T.);
#51=ORIENTED_EDGE('',*,*,#42,.F.);
#52=ORIENTED_EDGE('',*,*,#41,.F.);
#53=ORIENTED_EDGE('',*,*,#40,.F.);
#54=ORIENTED_EDGE('',*,*,#42,.T.);
#55=B_SPLINE_SURFACE_WITH_KNOTS('',3,3,((#99,#100,#101,#102,#103,#104,#105,
#106,#107,#108),(#109,#110,#111,#112,#113,#114,#115,#116,#117,#118),(#119,
#120,#121,#122,#123,#124,#125,#126,#127,#128),(#129,#130,#131,#132,#133,
#134,#135,#136,#137,#138),(#139,#140,#141,#142,#143,#144,#145,#146,#147,
#148),(#149,#150,#151,#152,#153,#154,#155,#156,#157,#158),(#159,#160,#161,
#162,#163,#164,#165,#166,#167,#168),(#169,#170,#171,#172,#173,#174,#175,
#176,#177,#178),(#179,#180,#181,#182,#183,#184,#185,#186,#187,#188),(#189,
#190,#191,#192,#193,#194,#195,#196,#197,#198)),.UNSPECIFIED.,.F.,.T.,.F.,
(4,1,1,1,1,1,1,4),(4,1,1,1,1,1,1,4),(0.,0.142857142857143,0.285714285714286,
0.428571428571429,0.571428571428571,0.714285714285714,0.857142857142857,
1.),(-3.14159265358979,-2.24399475256414,-1.34639685153848,-0.448798950512828,
0.448798950512828,1.34639685153848,2.24399475256414,3.14159265358979),
 .UNSPECIFIED.);
#56=ADVANCED_FACE('',(#20),#55,.F.);
#57=ADVANCED_FACE('',(#21),#19,.T.);
#58=ADVANCED_FACE('',(#22),#15,.T.);
#59=ADVANCED_FACE('',(#23),#16,.T.);
#60=CLOSED_SHELL('',(#56,#57,#58,#59));
#61=DERIVED_UNIT_ELEMENT(#63,1.);
#62=DERIVED_UNIT_ELEMENT(#226,-3.);
#63=(
MASS_UNIT()
NAMED_UNIT(*)
SI_UNIT(.KILO.,.GRAM.)
);
#64=DERIVED_UNIT((#61,#62));
#65=MEASURE_REPRESENTATION_ITEM('density measure',
POSITIVE_RATIO_MEASURE(7850.),#64);
#66=PROPERTY_DEFINITION_REPRESENTATION(#71,#68);
#67=PROPERTY_DEFINITION_REPRESENTATION(#72,#69);
#68=REPRESENTATION('material name',(#70),#223);
#69=REPRESENTATION('density',(#65),#223);
#70=DESCRIPTIVE_REPRESENTATION_ITEM('Steel','Steel');
#71=PROPERTY_DEFINITION('material property','material name',#233);
#72=PROPERTY_DEFINITION('material property','density of part',#233);
#73=AXIS2_PLACEMENT_3D('placement',#98,#81,#82);
#74=AXIS2_PLACEMENT_3D('',#212,#83,#84);
#75=AXIS2_PLACEMENT_3D('',#213,#85,#86);
#76=AXIS2_PLACEMENT_3D('',#214,#87,#88);
#77=AXIS2_PLACEMENT_3D('',#215,#89,#90);
#78=AXIS2_PLACEMENT_3D('',#218,#92,#93);
#79=AXIS2_PLACEMENT_3D('',#219,#94,#95);
#80=AXIS2_PLACEMENT_3D('',#220,#96,#97);
#81=DIRECTION('axis',(0.,0.,1.));
#82=DIRECTION('refdir',(1.,0.,0.));
#83=DIRECTION('center_axis',(0.,0.,-1.));
#84=DIRECTION('ref_axis',(0.,-1.,0.));
#85=DIRECTION('center_axis',(0.,0.,-1.));
#86=DIRECTION('ref_axis',(0.,-1.,0.));
#87=DIRECTION('center_axis',(0.,0.,1.));
#88=DIRECTION('ref_axis',(0.,-1.,0.));
#89=DIRECTION('center_axis',(0.,0.,-1.));
#90=DIRECTION('ref_axis',(0.,1.,0.));
#91=DIRECTION('',(0.,0.,1.));
#92=DIRECTION('center_axis',(0.,0.,1.));
#93=DIRECTION('ref_axis',(0.,1.,0.));
#94=DIRECTION('center_axis',(0.,0.,-1.));
#95=DIRECTION('ref_axis',(0.,1.,0.));
#96=DIRECTION('center_axis',(0.,0.,1.));
#97=DIRECTION('ref_axis',(0.,-1.,0.));
#98=CARTESIAN_POINT('',(0.,0.,0.));
#99=CARTESIAN_POINT('Ctrl Pts',(-4.63303070341547,5.86596460483807,-2.4638));
#100=CARTESIAN_POINT('Ctrl Pts',(-4.51979573620808,5.86596460483807,-2.4638));
#101=CARTESIAN_POINT('Ctrl Pts',(-4.29417526264324,5.75762092296898,-2.4638));
#102=CARTESIAN_POINT('Ctrl Pts',(-4.21098778297986,5.39121020583829,-2.4638));
#103=CARTESIAN_POINT('Ctrl Pts',(-4.44495032053089,5.09670981083871,-2.4638));
#104=CARTESIAN_POINT('Ctrl Pts',(-4.82074036457857,5.09756081193441,-2.4638));
#105=CARTESIAN_POINT('Ctrl Pts',(-5.05611868362227,5.39101157955587,-2.4638));
#106=CARTESIAN_POINT('Ctrl Pts',(-4.97121844034359,5.75750814202204,-2.4638));
#107=CARTESIAN_POINT('Ctrl Pts',(-4.74626567062286,5.86596460483807,-2.4638));
#108=CARTESIAN_POINT('Ctrl Pts',(-4.63303070341547,5.86596460483807,-2.4638));
#109=CARTESIAN_POINT('Ctrl Pts',(-4.63303070341547,5.86596460483807,-2.47329957778585));
#110=CARTESIAN_POINT('Ctrl Pts',(-4.51979175933365,5.86596460483807,-2.47329957778585));
#111=CARTESIAN_POINT('Ctrl Pts',(-4.29417151554121,5.75762626612794,-2.47329957778586));
#112=CARTESIAN_POINT('Ctrl Pts',(-4.2109831810815,5.39120972977208,-2.47329957778585));
#113=CARTESIAN_POINT('Ctrl Pts',(-4.44494775526001,5.09670331629031,-2.47329957778586));
#114=CARTESIAN_POINT('Ctrl Pts',(-4.82074253819803,5.09755794937788,-2.47329957778585));
#115=CARTESIAN_POINT('Ctrl Pts',(-5.05612674522145,5.39100893573005,-2.47329957778586));
#116=CARTESIAN_POINT('Ctrl Pts',(-4.97121999955485,5.75751206865097,-2.47329957778585));
#117=CARTESIAN_POINT('Ctrl Pts',(-4.7462696474973,5.86596460483807,-2.47329957778585));
#118=CARTESIAN_POINT('Ctrl Pts',(-4.63303070341547,5.86596460483807,-2.47329957778585));
#119=CARTESIAN_POINT('Ctrl Pts',(-4.63303070341547,5.86586792302298,-2.49209778747735));
#120=CARTESIAN_POINT('Ctrl Pts',(-4.51982403690228,5.86586792302298,-2.49209778747735));
#121=CARTESIAN_POINT('Ctrl Pts',(-4.29426123678983,5.75755276040646,-2.49209778747735));
#122=CARTESIAN_POINT('Ctrl Pts',(-4.21109487364558,5.39123473032326,-2.49209778747735));
#123=CARTESIAN_POINT('Ctrl Pts',(-4.44499796367451,5.09680862069286,-2.49209778747735));
#124=CARTESIAN_POINT('Ctrl Pts',(-4.820692754447,5.0976599765022,-2.49209778747735));
#125=CARTESIAN_POINT('Ctrl Pts',(-5.05601187095646,5.39103581331666,-2.49209778747735));
#126=CARTESIAN_POINT('Ctrl Pts',(-4.97113229213283,5.75743978513886,-2.49209778747735));
#127=CARTESIAN_POINT('Ctrl Pts',(-4.74623736992867,5.86586792302298,-2.49209778747735));
#128=CARTESIAN_POINT('Ctrl Pts',(-4.63303070341547,5.86586792302298,-2.49209778747735));
#129=CARTESIAN_POINT('Ctrl Pts',(-4.63303070341547,5.8596229178389,-2.52008130047879));
#130=CARTESIAN_POINT('Ctrl Pts',(-4.52169501840432,5.8596229178389,-2.52008130047879));
#131=CARTESIAN_POINT('Ctrl Pts',(-4.29985506031357,5.75309221237743,-2.52008130047879));
#132=CARTESIAN_POINT('Ctrl Pts',(-4.21806191496777,5.3928239904609,-2.52008130047879));
#133=CARTESIAN_POINT('Ctrl Pts',(-4.44810309624614,5.10326121406759,-2.52008130047879));
#134=CARTESIAN_POINT('Ctrl Pts',(-4.81759398345793,5.10409626220334,-2.52008130047879));
#135=CARTESIAN_POINT('Ctrl Pts',(-5.04902542723512,5.39262970300686,-2.52008130047879));
#136=CARTESIAN_POINT('Ctrl Pts',(-4.96555085101154,5.75298198158893,-2.52008130047879));
#137=CARTESIAN_POINT('Ctrl Pts',(-4.74436638842663,5.8596229178389,-2.52008130047879));
#138=CARTESIAN_POINT('Ctrl Pts',(-4.63303070341547,5.8596229178389,-2.52008130047879));
#139=CARTESIAN_POINT('Ctrl Pts',(-4.63303070341547,5.84467949822443,-2.54678297180942));
#140=CARTESIAN_POINT('Ctrl Pts',(-4.52616248498979,5.84467949822443,-2.54678297180942));
#141=CARTESIAN_POINT('Ctrl Pts',(-4.3132313151463,5.74243155089464,-2.54678297180942));
#142=CARTESIAN_POINT('Ctrl Pts',(-4.23472203875868,5.39662572586218,-2.54678297180942));
#143=CARTESIAN_POINT('Ctrl Pts',(-4.45552709527631,5.11868580116752,-2.54678297180942));
#144=CARTESIAN_POINT('Ctrl Pts',(-4.81018426834722,5.11949053010984,-2.54678297180942));
#145=CARTESIAN_POINT('Ctrl Pts',(-5.0323271661733,5.39643732201144,-2.54678297180942));
#146=CARTESIAN_POINT('Ctrl Pts',(-4.95219898302496,5.74232449304819,-2.54678297180942));
#147=CARTESIAN_POINT('Ctrl Pts',(-4.73989892184116,5.84467949822443,-2.54678297180942));
#148=CARTESIAN_POINT('Ctrl Pts',(-4.63303070341547,5.84467949822443,-2.54678297180942));
#149=CARTESIAN_POINT('Ctrl Pts',(-4.63303070341548,5.82194748516635,-2.56952729458081));
#150=CARTESIAN_POINT('Ctrl Pts',(-4.53296537475703,5.82194748516635,-2.56952729458081));
#151=CARTESIAN_POINT('Ctrl Pts',(-4.33358590133596,5.72620514923976,-2.56952729458082));
#152=CARTESIAN_POINT('Ctrl Pts',(-4.2600735595423,5.40240977944895,-2.56952729458081));
#153=CARTESIAN_POINT('Ctrl Pts',(-4.46682501004112,5.14216112652135,-2.56952729458082));
#154=CARTESIAN_POINT('Ctrl Pts',(-4.79890876727859,5.14291338212537,-2.56952729458081));
#155=CARTESIAN_POINT('Ctrl Pts',(-5.0069115804503,5.40223411673744,-2.56952729458082));
#156=CARTESIAN_POINT('Ctrl Pts',(-4.93188532041584,5.72610539531238,-2.56952729458081));
#157=CARTESIAN_POINT('Ctrl Pts',(-4.73309603207392,5.82194748516635,-2.56952729458081));
#158=CARTESIAN_POINT('Ctrl Pts',(-4.63303070341548,5.82194748516635,-2.56952729458081));
#159=CARTESIAN_POINT('Ctrl Pts',(-4.63303070341547,5.79525570256296,-2.58443507834724));
#160=CARTESIAN_POINT('Ctrl Pts',(-4.54095395316613,5.79525570256296,-2.58443507834724));
#161=CARTESIAN_POINT('Ctrl Pts',(-4.35748675530423,5.70715131423001,-2.58443507834724));
#162=CARTESIAN_POINT('Ctrl Pts',(-4.28984192562407,5.40920145785214,-2.58443507834724));
#163=CARTESIAN_POINT('Ctrl Pts',(-4.48009138014783,5.16972679459017,-2.58443507834724));
#164=CARTESIAN_POINT('Ctrl Pts',(-4.78566878110055,5.17041682510582,-2.58443507834724));
#165=CARTESIAN_POINT('Ctrl Pts',(-4.97706740749234,5.40904112051987,-2.58443507834724));
#166=CARTESIAN_POINT('Ctrl Pts',(-4.90803288685487,5.70706037490742,-2.58443507834724));
#167=CARTESIAN_POINT('Ctrl Pts',(-4.72510745366482,5.79525570256296,-2.58443507834724));
#168=CARTESIAN_POINT('Ctrl Pts',(-4.63303070341547,5.79525570256296,-2.58443507834724));
#169=CARTESIAN_POINT('Ctrl Pts',(-4.63303070341547,5.76725973195198,-2.59071391965075));
#170=CARTESIAN_POINT('Ctrl Pts',(-4.54932699297332,5.76725973195198,-2.59071391965075));
#171=CARTESIAN_POINT('Ctrl Pts',(-4.3825498999353,5.68717437424177,-2.59071391965075));
#172=CARTESIAN_POINT('Ctrl Pts',(-4.32105801361276,5.41632428211868,-2.59071391965075));
#173=CARTESIAN_POINT('Ctrl Pts',(-4.49400217313428,5.19862976543827,-2.59071391965075));
#174=CARTESIAN_POINT('Ctrl Pts',(-4.7717850832186,5.1992598903078,-2.59071391965075));
#175=CARTESIAN_POINT('Ctrl Pts',(-4.94577691419522,5.41617681996062,-2.59071391965075));
#176=CARTESIAN_POINT('Ctrl Pts',(-4.88301729977518,5.68709058980466,-2.59071391965075));
#177=CARTESIAN_POINT('Ctrl Pts',(-4.71673441385763,5.76725973195198,-2.59071391965075));
#178=CARTESIAN_POINT('Ctrl Pts',(-4.63303070341547,5.76725973195198,-2.59071391965075));
#179=CARTESIAN_POINT('Ctrl Pts',(-4.63303070341547,5.74846418262393,-2.5908));
#180=CARTESIAN_POINT('Ctrl Pts',(-4.55495391592127,5.74846418262393,-2.5908));
#181=CARTESIAN_POINT('Ctrl Pts',(-4.39938167521155,5.67375507891305,-2.5908));
#182=CARTESIAN_POINT('Ctrl Pts',(-4.3420218595218,5.42110696980911,-2.5908));
#183=CARTESIAN_POINT('Ctrl Pts',(-4.50334498773644,5.21804330238375,-2.5908));
#184=CARTESIAN_POINT('Ctrl Pts',(-4.76246100561132,5.21862814289708,-2.5908));
#185=CARTESIAN_POINT('Ctrl Pts',(-4.92475828964962,5.4209711750955,-2.5908));
#186=CARTESIAN_POINT('Ctrl Pts',(-4.86622050459826,5.67367807373268,-2.5908));
#187=CARTESIAN_POINT('Ctrl Pts',(-4.71110749090968,5.74846418262393,-2.5908));
#188=CARTESIAN_POINT('Ctrl Pts',(-4.63303070341547,5.74846418262393,-2.5908));
#189=CARTESIAN_POINT('Ctrl Pts',(-4.63303070341547,5.73896460483807,-2.5908));
#190=CARTESIAN_POINT('Ctrl Pts',(-4.5577940473515,5.73896460483807,-2.5908));
#191=CARTESIAN_POINT('Ctrl Pts',(-4.40788514209701,5.66697786319351,-2.5908));
#192=CARTESIAN_POINT('Ctrl Pts',(-4.35261292406564,5.42352376254962,-2.5908));
#193=CARTESIAN_POINT('Ctrl Pts',(-4.50806454297538,5.22784900345595,-2.5908));
#194=CARTESIAN_POINT('Ctrl Pts',(-4.75775054539632,5.22841443371416,-2.5908));
#195=CARTESIAN_POINT('Ctrl Pts',(-4.91414285133811,5.42339178938211,-2.5908));
#196=CARTESIAN_POINT('Ctrl Pts',(-4.85773262258248,5.66690292820192,-2.5908));
#197=CARTESIAN_POINT('Ctrl Pts',(-4.70826735947945,5.73896460483807,-2.5908));
#198=CARTESIAN_POINT('Ctrl Pts',(-4.63303070341547,5.73896460483807,-2.5908));
#199=CARTESIAN_POINT('',(-4.63303070341547,5.73896460483807,-2.5908));
#200=CARTESIAN_POINT('',(-4.63303070341547,5.86596460483807,-2.4638));
#201=CARTESIAN_POINT('Ctrl Pts',(-4.63303070341547,5.73896460483807,-2.5908));
#202=CARTESIAN_POINT('Ctrl Pts',(-4.63303070341547,5.74846418262393,-2.5908));
#203=CARTESIAN_POINT('Ctrl Pts',(-4.63303070341547,5.76725973195198,-2.59071391965075));
#204=CARTESIAN_POINT('Ctrl Pts',(-4.63303070341547,5.79525570256296,-2.58443507834724));
#205=CARTESIAN_POINT('Ctrl Pts',(-4.63303070341548,5.82194748516635,-2.56952729458081));
#206=CARTESIAN_POINT('Ctrl Pts',(-4.63303070341547,5.84467949822443,-2.54678297180942));
#207=CARTESIAN_POINT('Ctrl Pts',(-4.63303070341547,5.8596229178389,-2.52008130047879));
#208=CARTESIAN_POINT('Ctrl Pts',(-4.63303070341547,5.86586792302298,-2.49209778747735));
#209=CARTESIAN_POINT('Ctrl Pts',(-4.63303070341547,5.86596460483807,-2.47329957778585));
#210=CARTESIAN_POINT('Ctrl Pts',(-4.63303070341547,5.86596460483807,-2.4638));
#211=CARTESIAN_POINT('',(-4.63303070341547,5.10904460483808,-2.4638));
#212=CARTESIAN_POINT('Origin',(-4.63303070341547,5.48750460483808,-2.4638));
#213=CARTESIAN_POINT('Origin',(-4.63303070341547,5.48750460483808,-2.4638));
#214=CARTESIAN_POINT('Origin',(-4.63303070341547,5.48750460483808,-2.5908));
#215=CARTESIAN_POINT('Origin',(-4.63303070341547,5.48750460483808,-1.2954));
#216=CARTESIAN_POINT('',(-4.63303070341547,5.10904460483808,0.));
#217=CARTESIAN_POINT('',(-4.63303070341547,5.10904460483808,-1.2954));
#218=CARTESIAN_POINT('Origin',(-4.63303070341547,5.48750460483808,0.));
#219=CARTESIAN_POINT('Origin',(-4.63303070341547,5.48750460483808,-2.5908));
#220=CARTESIAN_POINT('Origin',(-4.63303070341547,5.48750460483808,0.));
#221=UNCERTAINTY_MEASURE_WITH_UNIT(LENGTH_MEASURE(0.001),#225,
'DISTANCE_ACCURACY_VALUE',
'Maximum model space distance between geometric entities at asserted c
onnectivities');
#222=UNCERTAINTY_MEASURE_WITH_UNIT(LENGTH_MEASURE(0.001),#225,
'DISTANCE_ACCURACY_VALUE',
'Maximum model space distance between geometric entities at asserted c
onnectivities');
#223=(
GEOMETRIC_REPRESENTATION_CONTEXT(3)
GLOBAL_UNCERTAINTY_ASSIGNED_CONTEXT((#221))
GLOBAL_UNIT_ASSIGNED_CONTEXT((#225,#227,#228))
REPRESENTATION_CONTEXT('','3D')
);
#224=(
GEOMETRIC_REPRESENTATION_CONTEXT(3)
GLOBAL_UNCERTAINTY_ASSIGNED_CONTEXT((#222))
GLOBAL_UNIT_ASSIGNED_CONTEXT((#225,#227,#228))
REPRESENTATION_CONTEXT('','3D')
);
#225=(
LENGTH_UNIT()
NAMED_UNIT(*)
SI_UNIT(.CENTI.,.METRE.)
);
#226=(
LENGTH_UNIT()
NAMED_UNIT(*)
SI_UNIT($,.METRE.)
);
#227=(
NAMED_UNIT(*)
PLANE_ANGLE_UNIT()
SI_UNIT($,.RADIAN.)
);
#228=(
NAMED_UNIT(*)
SI_UNIT($,.STERADIAN.)
SOLID_ANGLE_UNIT()
);
#229=SHAPE_DEFINITION_REPRESENTATION(#230,#231);
#230=PRODUCT_DEFINITION_SHAPE('',$,#233);
#231=SHAPE_REPRESENTATION('',(#73),#223);
#232=PRODUCT_DEFINITION_CONTEXT('part definition',#237,'design');
#233=PRODUCT_DEFINITION('temp_body','temp_body',#234,#232);
#234=PRODUCT_DEFINITION_FORMATION('',$,#239);
#235=PRODUCT_RELATED_PRODUCT_CATEGORY('temp_body','temp_body',(#239));
#236=APPLICATION_PROTOCOL_DEFINITION('international standard',
'automotive_design',2009,#237);
#237=APPLICATION_CONTEXT(
'Core Data for Automotive Mechanical Design Process');
#238=PRODUCT_CONTEXT('part definition',#237,'mechanical');
#239=PRODUCT('temp_body','temp_body',$,(#238));
#240=PRESENTATION_STYLE_ASSIGNMENT((#241));
#241=SURFACE_STYLE_USAGE(.BOTH.,#242);
#242=SURFACE_SIDE_STYLE('',(#243));
#243=SURFACE_STYLE_FILL_AREA(#244);
#244=FILL_AREA_STYLE('Steel - Satin',(#245));
#245=FILL_AREA_STYLE_COLOUR('Steel - Satin',#246);
#246=COLOUR_RGB('Steel - Satin',0.627450980392157,0.627450980392157,0.627450980392157);
ENDSEC;
END-ISO-10303-21;
