ISO-10303-21;
HEADER;
/* Generated by software containing ST-Developer
 * from STEP Tools, Inc. (www.steptools.com) 
 */

FILE_DESCRIPTION(
/* description */ (''),
/* implementation_level */ '2;1');

FILE_NAME(
/* name */ 
'C:\\Users\\designnet\\AppData\\Local\\Temp\\derivatives\\21353_4686c9
0c\\AssemblyExtractor\\21353_4686c90c\\9947d6a6-0546-11ec-bd52-06214ff
114d7.step',
/* time_stamp */ '2021-08-25T01:49:02+00:00',
/* author */ (''),
/* organization */ (''),
/* preprocessor_version */ 'ST-DEVELOPER v18.1',
/* originating_system */ 'Autodesk Translation Framework v10.6.0.1341',

/* authorisation */ '');

FILE_SCHEMA (('AUTOMOTIVE_DESIGN { 1 0 10303 214 3 1 1 }'));
ENDSEC;

DATA;
#10=MECHANICAL_DESIGN_GEOMETRIC_PRESENTATION_REPRESENTATION('',(#13),#244);
#11=SHAPE_REPRESENTATION_RELATIONSHIP('SRR','None',#251,#12);
#12=ADVANCED_BREP_SHAPE_REPRESENTATION('',(#14),#243);
#13=STYLED_ITEM('',(#260),#14);
#14=MANIFOLD_SOLID_BREP('Body1',#60);
#15=PLANE('',#79);
#16=PLANE('',#80);
#17=LINE('',#237,#18);
#18=VECTOR('',#91,0.50292);
#19=CYLINDRICAL_SURFACE('',#77,0.50292);
#20=FACE_OUTER_BOUND('',#24,.T.);
#21=FACE_OUTER_BOUND('',#25,.T.);
#22=FACE_OUTER_BOUND('',#26,.T.);
#23=FACE_OUTER_BOUND('',#27,.T.);
#24=EDGE_LOOP('',(#43,#44,#45,#46,#47));
#25=EDGE_LOOP('',(#48,#49,#50,#51,#52));
#26=EDGE_LOOP('',(#53));
#27=EDGE_LOOP('',(#54));
#28=CIRCLE('',#74,0.50292);
#29=CIRCLE('',#75,0.50292);
#30=CIRCLE('',#76,0.40132);
#31=CIRCLE('',#78,0.50292);
#32=B_SPLINE_CURVE_WITH_KNOTS('',3,(#221,#222,#223,#224,#225,#226,#227,
#228,#229,#230),.UNSPECIFIED.,.F.,.F.,(4,1,1,1,1,1,1,4),(-1.,-0.857142857142857,
-0.714285714285714,-0.571428571428571,-0.428571428571429,-0.285714285714286,
-0.142857142857143,0.),.UNSPECIFIED.);
#33=VERTEX_POINT('',#219);
#34=VERTEX_POINT('',#220);
#35=VERTEX_POINT('',#231);
#36=VERTEX_POINT('',#236);
#37=EDGE_CURVE('',#33,#34,#32,.T.);
#38=EDGE_CURVE('',#34,#35,#28,.T.);
#39=EDGE_CURVE('',#35,#34,#29,.T.);
#40=EDGE_CURVE('',#33,#33,#30,.T.);
#41=EDGE_CURVE('',#35,#36,#17,.T.);
#42=EDGE_CURVE('',#36,#36,#31,.T.);
#43=ORIENTED_EDGE('',*,*,#37,.T.);
#44=ORIENTED_EDGE('',*,*,#38,.T.);
#45=ORIENTED_EDGE('',*,*,#39,.T.);
#46=ORIENTED_EDGE('',*,*,#37,.F.);
#47=ORIENTED_EDGE('',*,*,#40,.T.);
#48=ORIENTED_EDGE('',*,*,#38,.F.);
#49=ORIENTED_EDGE('',*,*,#39,.F.);
#50=ORIENTED_EDGE('',*,*,#41,.T.);
#51=ORIENTED_EDGE('',*,*,#42,.F.);
#52=ORIENTED_EDGE('',*,*,#41,.F.);
#53=ORIENTED_EDGE('',*,*,#40,.F.);
#54=ORIENTED_EDGE('',*,*,#42,.T.);
#55=B_SPLINE_SURFACE_WITH_KNOTS('',3,3,((#99,#100,#101,#102,#103,#104,#105,
#106,#107,#108,#109,#110),(#111,#112,#113,#114,#115,#116,#117,#118,#119,
#120,#121,#122),(#123,#124,#125,#126,#127,#128,#129,#130,#131,#132,#133,
#134),(#135,#136,#137,#138,#139,#140,#141,#142,#143,#144,#145,#146),(#147,
#148,#149,#150,#151,#152,#153,#154,#155,#156,#157,#158),(#159,#160,#161,
#162,#163,#164,#165,#166,#167,#168,#169,#170),(#171,#172,#173,#174,#175,
#176,#177,#178,#179,#180,#181,#182),(#183,#184,#185,#186,#187,#188,#189,
#190,#191,#192,#193,#194),(#195,#196,#197,#198,#199,#200,#201,#202,#203,
#204,#205,#206),(#207,#208,#209,#210,#211,#212,#213,#214,#215,#216,#217,
#218)),.UNSPECIFIED.,.F.,.T.,.F.,(4,1,1,1,1,1,1,4),(4,1,1,1,1,1,1,1,1,4),
(0.,0.142857142857143,0.285714285714286,0.428571428571429,0.571428571428571,
0.714285714285714,0.857142857142857,1.),(-3.14159265358979,-2.24399475256414,
-1.34639685153848,-0.448798950512828,0.448798950512828,1.34639685153848,
1.79519580205131,2.24399475256414,2.69279370307697,3.14159265358979),
 .UNSPECIFIED.);
#56=ADVANCED_FACE('',(#20),#55,.F.);
#57=ADVANCED_FACE('',(#21),#19,.T.);
#58=ADVANCED_FACE('',(#22),#15,.T.);
#59=ADVANCED_FACE('',(#23),#16,.T.);
#60=CLOSED_SHELL('',(#56,#57,#58,#59));
#61=DERIVED_UNIT_ELEMENT(#63,1.);
#62=DERIVED_UNIT_ELEMENT(#246,-3.);
#63=(
MASS_UNIT()
NAMED_UNIT(*)
SI_UNIT(.KILO.,.GRAM.)
);
#64=DERIVED_UNIT((#61,#62));
#65=MEASURE_REPRESENTATION_ITEM('density measure',
POSITIVE_RATIO_MEASURE(7850.),#64);
#66=PROPERTY_DEFINITION_REPRESENTATION(#71,#68);
#67=PROPERTY_DEFINITION_REPRESENTATION(#72,#69);
#68=REPRESENTATION('material name',(#70),#243);
#69=REPRESENTATION('density',(#65),#243);
#70=DESCRIPTIVE_REPRESENTATION_ITEM('Steel','Steel');
#71=PROPERTY_DEFINITION('material property','material name',#253);
#72=PROPERTY_DEFINITION('material property','density of part',#253);
#73=AXIS2_PLACEMENT_3D('placement',#98,#81,#82);
#74=AXIS2_PLACEMENT_3D('',#232,#83,#84);
#75=AXIS2_PLACEMENT_3D('',#233,#85,#86);
#76=AXIS2_PLACEMENT_3D('',#234,#87,#88);
#77=AXIS2_PLACEMENT_3D('',#235,#89,#90);
#78=AXIS2_PLACEMENT_3D('',#238,#92,#93);
#79=AXIS2_PLACEMENT_3D('',#239,#94,#95);
#80=AXIS2_PLACEMENT_3D('',#240,#96,#97);
#81=DIRECTION('axis',(0.,0.,1.));
#82=DIRECTION('refdir',(1.,0.,0.));
#83=DIRECTION('center_axis',(0.,1.,2.22044604925031E-16));
#84=DIRECTION('ref_axis',(-1.,0.,-4.48574959444506E-17));
#85=DIRECTION('center_axis',(0.,1.,2.22044604925031E-16));
#86=DIRECTION('ref_axis',(-1.,0.,-4.48574959444506E-17));
#87=DIRECTION('center_axis',(0.,-1.,-2.22044604925031E-16));
#88=DIRECTION('ref_axis',(-1.,9.96036496491172E-33,-4.48574959444506E-17));
#89=DIRECTION('center_axis',(0.,1.,2.22044604925031E-16));
#90=DIRECTION('ref_axis',(1.,0.,0.));
#91=DIRECTION('',(0.,-1.,-2.22044604925031E-16));
#92=DIRECTION('center_axis',(0.,-1.,-2.22044604925031E-16));
#93=DIRECTION('ref_axis',(1.,0.,0.));
#94=DIRECTION('center_axis',(0.,1.,2.22044604925031E-16));
#95=DIRECTION('ref_axis',(1.,0.,0.));
#96=DIRECTION('center_axis',(0.,-1.,-2.22044604925031E-16));
#97=DIRECTION('ref_axis',(-1.,0.,0.));
#98=CARTESIAN_POINT('',(0.,0.,0.));
#99=CARTESIAN_POINT('Ctrl Pts',(-4.11994996337358,8.65632,1.82044252412981));
#100=CARTESIAN_POINT('Ctrl Pts',(-4.11994996337358,8.65632,1.66996921200187));
#101=CARTESIAN_POINT('Ctrl Pts',(-4.26396137071731,8.65632,1.37003786734091));
#102=CARTESIAN_POINT('Ctrl Pts',(-4.7507916105001,8.65632,1.25971432990994));
#103=CARTESIAN_POINT('Ctrl Pts',(-5.1422839744837,8.65632,1.57017785250944));
#104=CARTESIAN_POINT('Ctrl Pts',(-5.14085720003562,8.65632,2.07027837052064));
#105=CARTESIAN_POINT('Ctrl Pts',(-4.81643619525545,8.65632,2.32919003705048));
#106=CARTESIAN_POINT('Ctrl Pts',(-4.50699223247125,8.65632,2.32718388833255));
#107=CARTESIAN_POINT('Ctrl Pts',(-4.29867463882574,8.65632,2.22740646857479));
#108=CARTESIAN_POINT('Ctrl Pts',(-4.15423517761153,8.65632,2.04601434986165));
#109=CARTESIAN_POINT('Ctrl Pts',(-4.11994996337358,8.65632,1.89567918019378));
#110=CARTESIAN_POINT('Ctrl Pts',(-4.11994996337358,8.65632,1.82044252412981));
#111=CARTESIAN_POINT('Ctrl Pts',(-4.11994996337358,8.66391966222868,1.82044252412981));
#112=CARTESIAN_POINT('Ctrl Pts',(-4.11994996337358,8.66391966222868,1.66996603050232));
#113=CARTESIAN_POINT('Ctrl Pts',(-4.26395709494887,8.66391966222868,1.37003476488376));
#114=CARTESIAN_POINT('Ctrl Pts',(-4.75079204548589,8.66391966222868,1.25971064728583));
#115=CARTESIAN_POINT('Ctrl Pts',(-5.1422892855674,8.66391966222868,1.57017559176054));
#116=CARTESIAN_POINT('Ctrl Pts',(-5.1408599549678,8.66391966222869,2.07028024848417));
#117=CARTESIAN_POINT('Ctrl Pts',(-4.81643910563043,8.66391966222868,2.32919489358058));
#118=CARTESIAN_POINT('Ctrl Pts',(-4.50699310327051,8.66391966222868,2.32718757775276));
#119=CARTESIAN_POINT('Ctrl Pts',(-4.29867286709699,8.66391966222868,2.22740956665371));
#120=CARTESIAN_POINT('Ctrl Pts',(-4.15423372029113,8.66391966222869,2.04601589805084));
#121=CARTESIAN_POINT('Ctrl Pts',(-4.11994996337358,8.66391966222868,1.89568077094356));
#122=CARTESIAN_POINT('Ctrl Pts',(-4.11994996337358,8.66391966222868,1.82044252412981));
#123=CARTESIAN_POINT('Ctrl Pts',(-4.12002732192283,8.67895821605894,1.82044252412981));
#124=CARTESIAN_POINT('Ctrl Pts',(-4.12002732192283,8.67895821605894,1.66999185255723));
#125=CARTESIAN_POINT('Ctrl Pts',(-4.26401589881967,8.67895821605894,1.37010665552292));
#126=CARTESIAN_POINT('Ctrl Pts',(-4.75077200280099,8.67895821605894,1.25979999582324));
#127=CARTESIAN_POINT('Ctrl Pts',(-5.14220492198906,8.67895821605894,1.57021598902237));
#128=CARTESIAN_POINT('Ctrl Pts',(-5.14077796121231,8.67895821605895,2.07024023920127));
#129=CARTESIAN_POINT('Ctrl Pts',(-4.81640688315754,8.67895821605894,2.3291125531026));
#130=CARTESIAN_POINT('Ctrl Pts',(-4.50701019488524,8.67895821605894,2.32710652768737));
#131=CARTESIAN_POINT('Ctrl Pts',(-4.29872422489552,8.67895821605894,2.22734436169583));
#132=CARTESIAN_POINT('Ctrl Pts',(-4.15430703109829,8.67895821605894,2.0459798984525));
#133=CARTESIAN_POINT('Ctrl Pts',(-4.12002732192283,8.67895821605894,1.8956678599161));
#134=CARTESIAN_POINT('Ctrl Pts',(-4.12002732192283,8.67895821605894,1.82044252412981));
#135=CARTESIAN_POINT('Ctrl Pts',(-4.12502331222714,8.70134501272078,1.82044252412981));
#136=CARTESIAN_POINT('Ctrl Pts',(-4.12502331222714,8.70134501272078,1.67148863775886));
#137=CARTESIAN_POINT('Ctrl Pts',(-4.26758395696708,8.70134501272078,1.37458289917792));
#138=CARTESIAN_POINT('Ctrl Pts',(-4.74950096161557,8.70134501272078,1.2653725523724));
#139=CARTESIAN_POINT('Ctrl Pts',(-5.13704176137318,8.70134501272078,1.57270352276299));
#140=CARTESIAN_POINT('Ctrl Pts',(-5.13563057168887,8.70134501272079,2.06775720463215));
#141=CARTESIAN_POINT('Ctrl Pts',(-4.81448218379517,8.70134501272078,2.32405563721009));
#142=CARTESIAN_POINT('Ctrl Pts',(-4.50816077611384,8.70134501272078,2.32207027023783));
#143=CARTESIAN_POINT('Ctrl Pts',(-4.30194587761528,8.70134501272078,2.22329965934728));
#144=CARTESIAN_POINT('Ctrl Pts',(-4.15896334404895,8.70134501272078,2.0437381079505));
#145=CARTESIAN_POINT('Ctrl Pts',(-4.12502331222714,8.70134501272078,1.89491946731529));
#146=CARTESIAN_POINT('Ctrl Pts',(-4.12502331222714,8.70134501272078,1.82044252412981));
#147=CARTESIAN_POINT('Ctrl Pts',(-4.13697805868962,8.72270633981482,1.82044252412981));
#148=CARTESIAN_POINT('Ctrl Pts',(-4.13697805868962,8.72270633981482,1.67506261102723));
#149=CARTESIAN_POINT('Ctrl Pts',(-4.27611158690764,8.72270633981482,1.38528651363732));
#150=CARTESIAN_POINT('Ctrl Pts',(-4.74646057163439,8.72270633981482,1.27869810656127));
#151=CARTESIAN_POINT('Ctrl Pts',(-5.12469974646119,8.72270633981482,1.578650436789));
#152=CARTESIAN_POINT('Ctrl Pts',(-5.12332015944856,8.72270633981482,2.06182013773934));
#153=CARTESIAN_POINT('Ctrl Pts',(-4.80988361755323,8.72270633981482,2.31196676086597));
#154=CARTESIAN_POINT('Ctrl Pts',(-4.51091605553888,8.72270633981482,2.31002802543726));
#155=CARTESIAN_POINT('Ctrl Pts',(-4.30965061540576,8.72270633981482,2.21362865585984));
#156=CARTESIAN_POINT('Ctrl Pts',(-4.17010178939022,8.72270633981482,2.03837751477078));
#157=CARTESIAN_POINT('Ctrl Pts',(-4.13697805868962,8.72270633981482,1.8931324806811));
#158=CARTESIAN_POINT('Ctrl Pts',(-4.13697805868962,8.72270633981482,1.82044252412981));
#159=CARTESIAN_POINT('Ctrl Pts',(-4.15516365183758,8.74090178804465,1.82044252412981));
#160=CARTESIAN_POINT('Ctrl Pts',(-4.15516365183758,8.74090178804465,1.68050492284102));
#161=CARTESIAN_POINT('Ctrl Pts',(-4.28909133197101,8.74090178804465,1.40157431673058));
#162=CARTESIAN_POINT('Ctrl Pts',(-4.74183475996754,8.74090178804465,1.29897542800109));
#163=CARTESIAN_POINT('Ctrl Pts',(-5.10591573467247,8.74090178804464,1.58770085948042));
#164=CARTESIAN_POINT('Ctrl Pts',(-5.1045887000087,8.74090178804465,2.05278536515908));
#165=CARTESIAN_POINT('Ctrl Pts',(-4.80288316709408,8.74090178804465,2.29356862052203));
#166=CARTESIAN_POINT('Ctrl Pts',(-4.5151058685602,8.74090178804465,2.29170286585652));
#167=CARTESIAN_POINT('Ctrl Pts',(-4.32137418769061,8.74090178804465,2.19891167108331));
#168=CARTESIAN_POINT('Ctrl Pts',(-4.18704817619955,8.74090178804465,2.03022025333775));
#169=CARTESIAN_POINT('Ctrl Pts',(-4.15516365183758,8.74090178804465,1.89041132477421));
#170=CARTESIAN_POINT('Ctrl Pts',(-4.15516365183758,8.74090178804465,1.82044252412981));
#171=CARTESIAN_POINT('Ctrl Pts',(-4.17651706160129,8.75282799335402,1.82044252412981));
#172=CARTESIAN_POINT('Ctrl Pts',(-4.17651706160129,8.75282799335402,1.68689578556831));
#173=CARTESIAN_POINT('Ctrl Pts',(-4.30433278543542,8.75282799335402,1.42069987423117));
#174=CARTESIAN_POINT('Ctrl Pts',(-4.73640308779139,8.75282799335402,1.32278555041803));
#175=CARTESIAN_POINT('Ctrl Pts',(-5.08385877366586,8.75282799335402,1.59832818883057));
#176=CARTESIAN_POINT('Ctrl Pts',(-5.08259387486064,8.75282799335402,2.04217647634744));
#177=CARTESIAN_POINT('Ctrl Pts',(-4.79466279323833,8.75282799335402,2.27196482368));
#178=CARTESIAN_POINT('Ctrl Pts',(-4.52002537459056,8.75282799335402,2.27018495854691));
#179=CARTESIAN_POINT('Ctrl Pts',(-4.33514023046436,8.75282799335402,2.18163055936339));
#180=CARTESIAN_POINT('Ctrl Pts',(-4.20694676233655,8.75282799335402,2.02064178800273));
#181=CARTESIAN_POINT('Ctrl Pts',(-4.17651706160129,8.75282799335402,1.88721589341056));
#182=CARTESIAN_POINT('Ctrl Pts',(-4.17651706160129,8.75282799335402,1.82044252412981));
#183=CARTESIAN_POINT('Ctrl Pts',(-4.19891384690863,8.75785109070843,1.82044252412981));
#184=CARTESIAN_POINT('Ctrl Pts',(-4.19891384690863,8.75785109070843,1.69359421741406));
#185=CARTESIAN_POINT('Ctrl Pts',(-4.3203126502424,8.75785109070843,1.44075536346649));
#186=CARTESIAN_POINT('Ctrl Pts',(-4.73070665489859,8.75785109070843,1.34775364534643));
#187=CARTESIAN_POINT('Ctrl Pts',(-5.06073191068339,8.75785109070843,1.60947145159198));
#188=CARTESIAN_POINT('Ctrl Pts',(-5.05952840541911,8.75785109070843,2.03105198935048));
#189=CARTESIAN_POINT('Ctrl Pts',(-4.78604505547575,8.75785109070843,2.24931259557516));
#190=CARTESIAN_POINT('Ctrl Pts',(-4.52518654591631,8.75785109070843,2.2476210915482));
#191=CARTESIAN_POINT('Ctrl Pts',(-4.34957629408704,8.75785109070843,2.16350963319898));
#192=CARTESIAN_POINT('Ctrl Pts',(-4.22781548390755,8.75785109070843,2.01059758582589));
#193=CARTESIAN_POINT('Ctrl Pts',(-4.19891384690863,8.75785109070843,1.88386667748769));
#194=CARTESIAN_POINT('Ctrl Pts',(-4.19891384690863,8.75785109070843,1.82044252412981));
#195=CARTESIAN_POINT('Ctrl Pts',(-4.2139503011449,8.75792,1.82044252412981));
#196=CARTESIAN_POINT('Ctrl Pts',(-4.2139503011449,8.75792,1.69809575577242));
#197=CARTESIAN_POINT('Ctrl Pts',(-4.33104695827671,8.75792,1.45422427422956));
#198=CARTESIAN_POINT('Ctrl Pts',(-4.72688165361877,8.75792,1.364521524336));
#199=CARTESIAN_POINT('Ctrl Pts',(-5.04519790343518,8.75792,1.61695581764292));
#200=CARTESIAN_POINT('Ctrl Pts',(-5.0440391788157,8.75792,2.02358076229334));
#201=CARTESIAN_POINT('Ctrl Pts',(-4.78025533710126,8.75792,2.23409787595567));
#202=CARTESIAN_POINT('Ctrl Pts',(-4.52865037028295,8.75792,2.23246732148421));
#203=CARTESIAN_POINT('Ctrl Pts',(-4.35927065509495,8.75792,2.15133952962494));
#204=CARTESIAN_POINT('Ctrl Pts',(-4.24182807853314,8.75792,2.003852085625));
#205=CARTESIAN_POINT('Ctrl Pts',(-4.2139503011449,8.75792,1.88161590830851));
#206=CARTESIAN_POINT('Ctrl Pts',(-4.2139503011449,8.75792,1.82044252412981));
#207=CARTESIAN_POINT('Ctrl Pts',(-4.22154996337358,8.75792,1.82044252412981));
#208=CARTESIAN_POINT('Ctrl Pts',(-4.22154996337358,8.75792,1.70036786091661));
#209=CARTESIAN_POINT('Ctrl Pts',(-4.33646815711251,8.75792,1.46102870709624));
#210=CARTESIAN_POINT('Ctrl Pts',(-4.72494885350484,8.75792,1.37299275298466));
#211=CARTESIAN_POINT('Ctrl Pts',(-5.03735185102711,8.75792,1.62073637202871));
#212=CARTESIAN_POINT('Ctrl Pts',(-5.03621331384126,8.75792,2.01980648236088));
#213=CARTESIAN_POINT('Ctrl Pts',(-4.77733190598639,8.75792,2.22641276171297));
#214=CARTESIAN_POINT('Ctrl Pts',(-4.53040187507778,8.75792,2.22481189556432));
#215=CARTESIAN_POINT('Ctrl Pts',(-4.3641686437849,8.75792,2.14519153030308));
#216=CARTESIAN_POINT('Ctrl Pts',(-4.24890887170487,8.75792,2.00044428405723));
#217=CARTESIAN_POINT('Ctrl Pts',(-4.22154996337358,8.75792,1.88047985573642));
#218=CARTESIAN_POINT('Ctrl Pts',(-4.22154996337358,8.75792,1.82044252412981));
#219=CARTESIAN_POINT('',(-4.22154996337358,8.75792,1.82044252412981));
#220=CARTESIAN_POINT('',(-4.11994996337358,8.65632,1.82044252412981));
#221=CARTESIAN_POINT('Ctrl Pts',(-4.22154996337358,8.75792,1.82044252412981));
#222=CARTESIAN_POINT('Ctrl Pts',(-4.2139503011449,8.75792,1.82044252412981));
#223=CARTESIAN_POINT('Ctrl Pts',(-4.19891384690863,8.75785109070843,1.82044252412981));
#224=CARTESIAN_POINT('Ctrl Pts',(-4.17651706160129,8.75282799335402,1.82044252412981));
#225=CARTESIAN_POINT('Ctrl Pts',(-4.15516365183758,8.74090178804465,1.82044252412981));
#226=CARTESIAN_POINT('Ctrl Pts',(-4.13697805868962,8.72270633981482,1.82044252412981));
#227=CARTESIAN_POINT('Ctrl Pts',(-4.12502331222714,8.70134501272078,1.82044252412981));
#228=CARTESIAN_POINT('Ctrl Pts',(-4.12002732192283,8.67895821605894,1.82044252412981));
#229=CARTESIAN_POINT('Ctrl Pts',(-4.11994996337358,8.66391966222868,1.82044252412981));
#230=CARTESIAN_POINT('Ctrl Pts',(-4.11994996337358,8.65632,1.82044252412981));
#231=CARTESIAN_POINT('',(-5.12578996337358,8.65632,1.82044252412981));
#232=CARTESIAN_POINT('Origin',(-4.62286996337358,8.65632,1.82044252412981));
#233=CARTESIAN_POINT('Origin',(-4.62286996337358,8.65632,1.82044252412981));
#234=CARTESIAN_POINT('Origin',(-4.62286996337358,8.75792,1.82044252412981));
#235=CARTESIAN_POINT('Origin',(-4.62286996337358,8.4328,1.82044252412981));
#236=CARTESIAN_POINT('',(-5.12578996337358,8.10768,1.82044252412981));
#237=CARTESIAN_POINT('',(-5.12578996337358,8.4328,1.82044252412981));
#238=CARTESIAN_POINT('Origin',(-4.62286996337358,8.10768,1.82044252412981));
#239=CARTESIAN_POINT('Origin',(-4.62286996337358,8.75792,1.82044252412981));
#240=CARTESIAN_POINT('Origin',(-4.62286996337358,8.10768,1.82044252412981));
#241=UNCERTAINTY_MEASURE_WITH_UNIT(LENGTH_MEASURE(0.001),#245,
'DISTANCE_ACCURACY_VALUE',
'Maximum model space distance between geometric entities at asserted c
onnectivities');
#242=UNCERTAINTY_MEASURE_WITH_UNIT(LENGTH_MEASURE(0.001),#245,
'DISTANCE_ACCURACY_VALUE',
'Maximum model space distance between geometric entities at asserted c
onnectivities');
#243=(
GEOMETRIC_REPRESENTATION_CONTEXT(3)
GLOBAL_UNCERTAINTY_ASSIGNED_CONTEXT((#241))
GLOBAL_UNIT_ASSIGNED_CONTEXT((#245,#247,#248))
REPRESENTATION_CONTEXT('','3D')
);
#244=(
GEOMETRIC_REPRESENTATION_CONTEXT(3)
GLOBAL_UNCERTAINTY_ASSIGNED_CONTEXT((#242))
GLOBAL_UNIT_ASSIGNED_CONTEXT((#245,#247,#248))
REPRESENTATION_CONTEXT('','3D')
);
#245=(
LENGTH_UNIT()
NAMED_UNIT(*)
SI_UNIT(.CENTI.,.METRE.)
);
#246=(
LENGTH_UNIT()
NAMED_UNIT(*)
SI_UNIT($,.METRE.)
);
#247=(
NAMED_UNIT(*)
PLANE_ANGLE_UNIT()
SI_UNIT($,.RADIAN.)
);
#248=(
NAMED_UNIT(*)
SI_UNIT($,.STERADIAN.)
SOLID_ANGLE_UNIT()
);
#249=SHAPE_DEFINITION_REPRESENTATION(#250,#251);
#250=PRODUCT_DEFINITION_SHAPE('',$,#253);
#251=SHAPE_REPRESENTATION('',(#73),#243);
#252=PRODUCT_DEFINITION_CONTEXT('part definition',#257,'design');
#253=PRODUCT_DEFINITION('temp_body','temp_body',#254,#252);
#254=PRODUCT_DEFINITION_FORMATION('',$,#259);
#255=PRODUCT_RELATED_PRODUCT_CATEGORY('temp_body','temp_body',(#259));
#256=APPLICATION_PROTOCOL_DEFINITION('international standard',
'automotive_design',2009,#257);
#257=APPLICATION_CONTEXT(
'Core Data for Automotive Mechanical Design Process');
#258=PRODUCT_CONTEXT('part definition',#257,'mechanical');
#259=PRODUCT('temp_body','temp_body',$,(#258));
#260=PRESENTATION_STYLE_ASSIGNMENT((#261));
#261=SURFACE_STYLE_USAGE(.BOTH.,#262);
#262=SURFACE_SIDE_STYLE('',(#263));
#263=SURFACE_STYLE_FILL_AREA(#264);
#264=FILL_AREA_STYLE('Steel - Satin',(#265));
#265=FILL_AREA_STYLE_COLOUR('Steel - Satin',#266);
#266=COLOUR_RGB('Steel - Satin',0.627450980392157,0.627450980392157,0.627450980392157);
ENDSEC;
END-ISO-10303-21;
