ISO-10303-21;
HEADER;
/* Generated by software containing ST-Developer
 * from STEP Tools, Inc. (www.steptools.com) 
 */

FILE_DESCRIPTION(
/* description */ (''),
/* implementation_level */ '2;1');

FILE_NAME(
/* name */ 
'C:\\Users\\designnet\\AppData\\Local\\Temp\\derivatives\\21353_4686c9
0c\\AssemblyExtractor\\21353_4686c90c\\994872a6-0546-11ec-89aa-06214ff
114d7.step',
/* time_stamp */ '2021-08-25T01:49:03+00:00',
/* author */ (''),
/* organization */ (''),
/* preprocessor_version */ 'ST-DEVELOPER v18.1',
/* originating_system */ 'Autodesk Translation Framework v10.6.0.1341',

/* authorisation */ '');

FILE_SCHEMA (('AUTOMOTIVE_DESIGN { 1 0 10303 214 3 1 1 }'));
ENDSEC;

DATA;
#10=MECHANICAL_DESIGN_GEOMETRIC_PRESENTATION_REPRESENTATION('',(#13),#156);
#11=SHAPE_REPRESENTATION_RELATIONSHIP('SRR','None',#163,#12);
#12=ADVANCED_BREP_SHAPE_REPRESENTATION('',(#14),#155);
#13=STYLED_ITEM('',(#172),#14);
#14=MANIFOLD_SOLID_BREP('Body1',#80);
#15=PLANE('',#101);
#16=PLANE('',#104);
#17=CYLINDRICAL_SURFACE('',#98,1.27381);
#18=FACE_OUTER_BOUND('',#23,.T.);
#19=FACE_OUTER_BOUND('',#24,.T.);
#20=FACE_OUTER_BOUND('',#25,.T.);
#21=FACE_OUTER_BOUND('',#26,.T.);
#22=FACE_OUTER_BOUND('',#27,.T.);
#23=EDGE_LOOP('',(#55,#56,#57,#58,#59));
#24=EDGE_LOOP('',(#60,#61,#62,#63,#64,#65));
#25=EDGE_LOOP('',(#66));
#26=EDGE_LOOP('',(#67,#68,#69,#70,#71));
#27=EDGE_LOOP('',(#72));
#28=LINE('',#137,#31);
#29=LINE('',#143,#32);
#30=LINE('',#151,#33);
#31=VECTOR('',#111,1.23571);
#32=VECTOR('',#118,1.27381);
#33=VECTOR('',#129,1.23571);
#34=CIRCLE('',#95,1.19761);
#35=CIRCLE('',#96,1.27381);
#36=CIRCLE('',#97,1.27381);
#37=CIRCLE('',#99,1.27381);
#38=CIRCLE('',#100,1.27381);
#39=CIRCLE('',#103,1.19761);
#40=VERTEX_POINT('',#134);
#41=VERTEX_POINT('',#136);
#42=VERTEX_POINT('',#138);
#43=VERTEX_POINT('',#142);
#44=VERTEX_POINT('',#144);
#45=VERTEX_POINT('',#149);
#46=EDGE_CURVE('',#40,#40,#34,.T.);
#47=EDGE_CURVE('',#40,#41,#28,.T.);
#48=EDGE_CURVE('',#41,#42,#35,.T.);
#49=EDGE_CURVE('',#42,#41,#36,.T.);
#50=EDGE_CURVE('',#42,#43,#29,.T.);
#51=EDGE_CURVE('',#44,#43,#37,.T.);
#52=EDGE_CURVE('',#43,#44,#38,.T.);
#53=EDGE_CURVE('',#45,#45,#39,.T.);
#54=EDGE_CURVE('',#45,#44,#30,.T.);
#55=ORIENTED_EDGE('',*,*,#46,.T.);
#56=ORIENTED_EDGE('',*,*,#47,.T.);
#57=ORIENTED_EDGE('',*,*,#48,.T.);
#58=ORIENTED_EDGE('',*,*,#49,.T.);
#59=ORIENTED_EDGE('',*,*,#47,.F.);
#60=ORIENTED_EDGE('',*,*,#48,.F.);
#61=ORIENTED_EDGE('',*,*,#49,.F.);
#62=ORIENTED_EDGE('',*,*,#50,.T.);
#63=ORIENTED_EDGE('',*,*,#51,.F.);
#64=ORIENTED_EDGE('',*,*,#52,.F.);
#65=ORIENTED_EDGE('',*,*,#50,.F.);
#66=ORIENTED_EDGE('',*,*,#46,.F.);
#67=ORIENTED_EDGE('',*,*,#53,.T.);
#68=ORIENTED_EDGE('',*,*,#54,.T.);
#69=ORIENTED_EDGE('',*,*,#51,.T.);
#70=ORIENTED_EDGE('',*,*,#52,.T.);
#71=ORIENTED_EDGE('',*,*,#54,.F.);
#72=ORIENTED_EDGE('',*,*,#53,.F.);
#73=CONICAL_SURFACE('',#94,1.23571,0.785398163397448);
#74=CONICAL_SURFACE('',#102,1.23571,0.785398163397448);
#75=ADVANCED_FACE('',(#18),#73,.T.);
#76=ADVANCED_FACE('',(#19),#17,.T.);
#77=ADVANCED_FACE('',(#20),#15,.T.);
#78=ADVANCED_FACE('',(#21),#74,.T.);
#79=ADVANCED_FACE('',(#22),#16,.T.);
#80=CLOSED_SHELL('',(#75,#76,#77,#78,#79));
#81=DERIVED_UNIT_ELEMENT(#83,1.);
#82=DERIVED_UNIT_ELEMENT(#158,-3.);
#83=(
MASS_UNIT()
NAMED_UNIT(*)
SI_UNIT(.KILO.,.GRAM.)
);
#84=DERIVED_UNIT((#81,#82));
#85=MEASURE_REPRESENTATION_ITEM('density measure',
POSITIVE_RATIO_MEASURE(7850.),#84);
#86=PROPERTY_DEFINITION_REPRESENTATION(#91,#88);
#87=PROPERTY_DEFINITION_REPRESENTATION(#92,#89);
#88=REPRESENTATION('material name',(#90),#155);
#89=REPRESENTATION('density',(#85),#155);
#90=DESCRIPTIVE_REPRESENTATION_ITEM('Steel','Steel');
#91=PROPERTY_DEFINITION('material property','material name',#165);
#92=PROPERTY_DEFINITION('material property','density of part',#165);
#93=AXIS2_PLACEMENT_3D('placement',#132,#105,#106);
#94=AXIS2_PLACEMENT_3D('',#133,#107,#108);
#95=AXIS2_PLACEMENT_3D('',#135,#109,#110);
#96=AXIS2_PLACEMENT_3D('',#139,#112,#113);
#97=AXIS2_PLACEMENT_3D('',#140,#114,#115);
#98=AXIS2_PLACEMENT_3D('',#141,#116,#117);
#99=AXIS2_PLACEMENT_3D('',#145,#119,#120);
#100=AXIS2_PLACEMENT_3D('',#146,#121,#122);
#101=AXIS2_PLACEMENT_3D('',#147,#123,#124);
#102=AXIS2_PLACEMENT_3D('',#148,#125,#126);
#103=AXIS2_PLACEMENT_3D('',#150,#127,#128);
#104=AXIS2_PLACEMENT_3D('',#152,#130,#131);
#105=DIRECTION('axis',(0.,0.,1.));
#106=DIRECTION('refdir',(1.,0.,0.));
#107=DIRECTION('center_axis',(0.,1.,0.));
#108=DIRECTION('ref_axis',(0.,-2.22044604925031E-16,1.));
#109=DIRECTION('center_axis',(0.,1.,2.22044604925031E-16));
#110=DIRECTION('ref_axis',(0.,-2.22044604925031E-16,1.));
#111=DIRECTION('',(8.65956056235493E-17,0.707106781186548,-0.707106781186547));
#112=DIRECTION('center_axis',(0.,-1.,-2.22044604925031E-16));
#113=DIRECTION('ref_axis',(0.,-2.22044604925031E-16,1.));
#114=DIRECTION('center_axis',(0.,-1.,-2.22044604925031E-16));
#115=DIRECTION('ref_axis',(0.,-2.22044604925031E-16,1.));
#116=DIRECTION('center_axis',(0.,-1.,-2.22044604925031E-16));
#117=DIRECTION('ref_axis',(0.,2.22044604925031E-16,-1.));
#118=DIRECTION('',(0.,1.,2.22044604925031E-16));
#119=DIRECTION('center_axis',(0.,1.,2.22044604925031E-16));
#120=DIRECTION('ref_axis',(0.,-2.22044604925031E-16,1.));
#121=DIRECTION('center_axis',(0.,1.,2.22044604925031E-16));
#122=DIRECTION('ref_axis',(0.,-2.22044604925031E-16,1.));
#123=DIRECTION('center_axis',(0.,-1.,-2.22044604925031E-16));
#124=DIRECTION('ref_axis',(0.,2.22044604925031E-16,-1.));
#125=DIRECTION('center_axis',(0.,-1.,0.));
#126=DIRECTION('ref_axis',(0.,-2.22044604925031E-16,1.));
#127=DIRECTION('center_axis',(0.,-1.,-2.22044604925031E-16));
#128=DIRECTION('ref_axis',(0.,-2.22044604925031E-16,1.));
#129=DIRECTION('',(-8.65956056235493E-17,-0.707106781186547,-0.707106781186548));
#130=DIRECTION('center_axis',(0.,1.,2.22044604925031E-16));
#131=DIRECTION('ref_axis',(0.,-2.22044604925031E-16,1.));
#132=CARTESIAN_POINT('',(0.,0.,0.));
#133=CARTESIAN_POINT('Origin',(4.59967360358548,7.71652,-1.30829741350156));
#134=CARTESIAN_POINT('',(4.59967360358548,7.67842,-2.50590741350156));
#135=CARTESIAN_POINT('Origin',(4.59967360358548,7.67842,-1.30829741350156));
#136=CARTESIAN_POINT('',(4.59967360358548,7.75462,-2.58210741350156));
#137=CARTESIAN_POINT('',(4.59967360358548,7.71652,-2.54400741350156));
#138=CARTESIAN_POINT('',(4.59967360358548,7.75462,-0.0344874135015616));
#139=CARTESIAN_POINT('Origin',(4.59967360358548,7.75462,-1.30829741350156));
#140=CARTESIAN_POINT('Origin',(4.59967360358548,7.75462,-1.30829741350156));
#141=CARTESIAN_POINT('Origin',(4.59967360358548,7.89305,-1.30829741350156));
#142=CARTESIAN_POINT('',(4.59967360358548,8.03148,-0.0344874135015616));
#143=CARTESIAN_POINT('',(4.59967360358548,7.89305,-0.0344874135015616));
#144=CARTESIAN_POINT('',(4.59967360358548,8.03148,-2.58210741350156));
#145=CARTESIAN_POINT('Origin',(4.59967360358548,8.03148,-1.30829741350156));
#146=CARTESIAN_POINT('Origin',(4.59967360358548,8.03148,-1.30829741350156));
#147=CARTESIAN_POINT('Origin',(4.59967360358548,7.67842,-1.30829741350156));
#148=CARTESIAN_POINT('Origin',(4.59967360358548,8.06958,-1.30829741350156));
#149=CARTESIAN_POINT('',(4.59967360358548,8.10768,-2.50590741350156));
#150=CARTESIAN_POINT('Origin',(4.59967360358548,8.10768,-1.30829741350156));
#151=CARTESIAN_POINT('',(4.59967360358548,8.06958,-2.54400741350156));
#152=CARTESIAN_POINT('Origin',(4.59967360358548,8.10768,-1.30829741350156));
#153=UNCERTAINTY_MEASURE_WITH_UNIT(LENGTH_MEASURE(0.001),#157,
'DISTANCE_ACCURACY_VALUE',
'Maximum model space distance between geometric entities at asserted c
onnectivities');
#154=UNCERTAINTY_MEASURE_WITH_UNIT(LENGTH_MEASURE(0.001),#157,
'DISTANCE_ACCURACY_VALUE',
'Maximum model space distance between geometric entities at asserted c
onnectivities');
#155=(
GEOMETRIC_REPRESENTATION_CONTEXT(3)
GLOBAL_UNCERTAINTY_ASSIGNED_CONTEXT((#153))
GLOBAL_UNIT_ASSIGNED_CONTEXT((#157,#159,#160))
REPRESENTATION_CONTEXT('','3D')
);
#156=(
GEOMETRIC_REPRESENTATION_CONTEXT(3)
GLOBAL_UNCERTAINTY_ASSIGNED_CONTEXT((#154))
GLOBAL_UNIT_ASSIGNED_CONTEXT((#157,#159,#160))
REPRESENTATION_CONTEXT('','3D')
);
#157=(
LENGTH_UNIT()
NAMED_UNIT(*)
SI_UNIT(.CENTI.,.METRE.)
);
#158=(
LENGTH_UNIT()
NAMED_UNIT(*)
SI_UNIT($,.METRE.)
);
#159=(
NAMED_UNIT(*)
PLANE_ANGLE_UNIT()
SI_UNIT($,.RADIAN.)
);
#160=(
NAMED_UNIT(*)
SI_UNIT($,.STERADIAN.)
SOLID_ANGLE_UNIT()
);
#161=SHAPE_DEFINITION_REPRESENTATION(#162,#163);
#162=PRODUCT_DEFINITION_SHAPE('',$,#165);
#163=SHAPE_REPRESENTATION('',(#93),#155);
#164=PRODUCT_DEFINITION_CONTEXT('part definition',#169,'design');
#165=PRODUCT_DEFINITION('temp_body','temp_body',#166,#164);
#166=PRODUCT_DEFINITION_FORMATION('',$,#171);
#167=PRODUCT_RELATED_PRODUCT_CATEGORY('temp_body','temp_body',(#171));
#168=APPLICATION_PROTOCOL_DEFINITION('international standard',
'automotive_design',2009,#169);
#169=APPLICATION_CONTEXT(
'Core Data for Automotive Mechanical Design Process');
#170=PRODUCT_CONTEXT('part definition',#169,'mechanical');
#171=PRODUCT('temp_body','temp_body',$,(#170));
#172=PRESENTATION_STYLE_ASSIGNMENT((#173));
#173=SURFACE_STYLE_USAGE(.BOTH.,#174);
#174=SURFACE_SIDE_STYLE('',(#175));
#175=SURFACE_STYLE_FILL_AREA(#176);
#176=FILL_AREA_STYLE('Steel - Satin',(#177));
#177=FILL_AREA_STYLE_COLOUR('Steel - Satin',#178);
#178=COLOUR_RGB('Steel - Satin',0.627450980392157,0.627450980392157,0.627450980392157);
ENDSEC;
END-ISO-10303-21;
