# https://github.com/mikedh/trimesh
v -12.50000000 10.00000000 0.00000000
v -12.50000000 10.00000000 0.50000000
v -11.54167461 10.81347847 0.50000000
v -11.62123108 10.87876892 0.50000000
v -11.45090866 10.76496315 0.50000000
v -11.35242271 10.73508739 0.50000000
v -11.25000000 10.72500038 0.50000000
v -11.14757729 10.73508739 0.50000000
v -11.04909134 10.76496315 0.50000000
v -10.95832539 10.81347847 0.50000000
v -11.52716351 11.13519478 0.00000000
v -11.46213245 11.03786755 0.00000000
v -11.36480522 10.97283649 0.00000000
v -11.41667080 11.00055885 0.00000000
v -11.49944115 11.08332920 0.00000000
v -11.54423523 11.19147301 0.00000000
v -11.55000019 11.25000000 0.00000000
v -11.54423523 11.30852699 0.00000000
v -11.52716351 11.36480522 0.00000000
v -11.30852699 10.95576477 0.00000000
v -11.25000000 10.94999981 0.00000000
v -11.19147301 10.95576477 0.00000000
v -11.13519478 10.97283649 0.00000000
v -11.08332920 11.00055885 0.00000000
v -11.03786755 11.03786755 0.00000000
v -11.00055885 11.08332920 0.00000000
v -10.97283649 11.13519478 0.00000000
v -10.95576477 11.19147301 0.00000000
v -10.94999981 11.25000000 0.00000000
v -10.95576477 11.30852699 0.00000000
v -10.97283649 11.36480522 0.00000000
v -11.52716351 11.13519478 0.27500001
v -11.46213245 11.03786755 0.27500001
v -11.36480522 10.97283649 0.27500001
v -11.41667080 11.00055885 0.27500001
v -11.49944115 11.08332920 0.27499998
v -11.54423523 11.19147301 0.27500001
v -11.55000019 11.25000000 0.27500001
v -11.54423523 11.30852699 0.27500001
v -11.52716351 11.36480522 0.27500001
v -11.30852699 10.95576477 0.27500001
v -11.25000000 10.94999981 0.27500001
v -11.19147301 10.95576477 0.27500001
v -11.13519478 10.97283649 0.27500001
v -11.08332920 11.00055885 0.27500001
v -11.03786755 11.03786755 0.27500001
v -11.00055885 11.08332920 0.27499998
v -10.97283649 11.13519478 0.27500001
v -10.95576477 11.19147301 0.27500001
v -10.94999981 11.25000000 0.27500001
v -10.95576477 11.30852699 0.27500001
v -10.97283649 11.36480522 0.27500001
v -11.49944115 11.41667080 0.00000000
v -11.46213245 11.46213245 0.00000000
v -11.41667080 11.49944115 0.00000000
v -11.36480522 11.52716351 0.00000000
v -11.30852699 11.54423523 0.00000000
v -11.25000000 11.55000019 0.00000000
v -11.19147301 11.54423523 0.00000000
v -11.13519478 11.52716351 0.00000000
v -11.03786755 11.46213245 0.00000000
v -11.08332920 11.49944115 0.00000000
v -11.00055885 11.41667080 0.00000000
v -11.49944115 11.41667080 0.27499998
v -11.46213245 11.46213245 0.27500001
v -11.41667080 11.49944115 0.27500001
v -11.36480522 11.52716351 0.27500001
v -11.30852699 11.54423523 0.27500001
v -11.25000000 11.55000019 0.27500001
v -11.19147301 11.54423523 0.27500001
v -11.13519478 11.52716351 0.27500001
v -11.03786755 11.46213150 0.27500001
v -11.08332920 11.49944115 0.27500001
v -11.00055885 11.41667080 0.27499998
v -11.73503685 11.04909134 0.50000000
v -11.76491261 11.14757729 0.50000000
v -11.77499962 11.25000000 0.50000000
v -11.76491261 11.35242271 0.50000000
v -11.73503685 11.45090866 0.50000000
v -11.68652153 10.95832539 0.50000000
v -11.68652153 11.54167461 0.50000000
v -11.62123108 11.62123108 0.50000000
v -11.54167461 11.68652153 0.50000000
v -11.45090866 11.73503685 0.50000000
v -11.35242271 11.76491261 0.50000000
v -11.25000000 11.77499962 0.50000000
v -11.14757729 11.76491261 0.50000000
v -11.04909134 11.73503685 0.50000000
v -10.95832539 11.68652153 0.50000000
v -10.00000000 10.00000000 0.00000000
v -10.87876892 10.87876892 0.50000000
v -10.00000000 10.00000000 0.50000000
v -10.81347847 10.95832539 0.50000000
v -10.76496315 11.04909134 0.50000000
v -10.73508739 11.14757729 0.50000000
v -10.72500038 11.25000000 0.50000000
v -10.73508739 11.35242271 0.50000000
v -10.76496315 11.45090866 0.50000000
v -10.87876892 11.62123108 0.50000000
v -10.81347847 11.54167461 0.50000000
v -12.50000000 12.50000000 0.00000000
v -12.50000000 12.50000000 0.50000000
v -10.00000000 12.50000000 0.00000000
v -10.00000000 12.50000000 0.50000000
v -8.35319519 13.63148499 0.50000000
v -8.15057945 15.29269695 0.50000000
v -8.15190220 13.99633884 1.28869104
v -8.15319538 13.83151340 1.97689402
v -6.28650284 15.84723377 1.37029600
v -6.44053078 15.88939190 1.43849802
v -6.32749224 16.34084892 2.16885090
v -3.91909623 13.63148499 0.50000000
v -2.36021543 11.25358391 0.50000000
v -4.12171221 15.29269695 0.50000000
v -4.12038946 13.99633884 1.28869104
v -4.11909628 13.83151340 1.97689402
v -5.98579693 15.84723377 1.37029600
v -5.83176899 15.88939190 1.43849802
v -5.94480801 16.34084892 2.16885090
v -8.35319519 13.63148499 4.50000000
v -8.15316010 13.83149529 4.50000000
v -8.15274811 13.88365841 4.50000000
v -8.15147591 14.21737862 4.50000000
v -8.15131474 15.67711639 4.50000000
v -3.91909623 13.63148499 4.50000000
v -2.36021543 11.25358391 4.50000000
v -1.39696860 11.25358391 4.50000000
v -0.95610011 11.83893108 4.50000000
v -0.85475314 11.76252747 4.50000000
v -0.64720958 11.63563538 4.50000000
v -0.54138273 11.58541298 4.50000000
v -0.43445513 11.54415894 4.50000000
v -0.43418735 11.54407883 4.50000000
v -0.43043515 11.54304218 4.50000000
v -0.75173402 11.69471455 4.50000000
v -0.32664022 11.51197147 4.50000000
v -0.32318404 11.51131725 4.50000000
v -0.21841151 11.48897839 4.50000000
v -0.21814218 11.48892212 4.50000000
v -0.10891274 11.47505760 4.50000000
v -0.10918238 11.47506905 4.50000000
v -0.00000650 11.47044849 4.50000000
v -1.60333514 12.59967518 4.50000000
v -1.68493116 12.73813534 4.50000000
v -1.76333845 12.88332367 4.50000000
v -1.83842051 13.03496552 4.50000000
v -1.91005123 13.19278145 4.50000000
v -1.97808444 13.35644913 4.50000000
v -2.04240298 13.52571487 4.50000000
v -2.10287809 13.70020866 4.50000000
v -2.10307884 13.70081902 4.50000000
v -1.24816966 12.11808109 4.50000000
v -1.34096384 12.22717381 4.50000000
v -1.05555975 11.92377186 4.50000000
v -1.15297663 12.01688099 4.50000000
v -1.43119717 12.34395218 4.50000000
v -1.51870561 12.46819687 4.50000000
v -4.11913204 13.83149529 4.50000000
v -4.11954451 13.88365841 4.50000000
v -4.12081575 14.21737862 4.50000000
v -4.12097692 15.67711639 4.50000000
v -2.16019583 13.88192844 4.50000000
v -8.35319519 17.98499107 0.50000000
v -12.50000000 22.50000000 0.00000000
v -12.50000000 22.50000000 0.50000000
v -10.00000000 22.50000000 0.00000000
v -10.00000000 22.50000000 0.50000000
v -11.36480522 23.47283554 0.00000000
v -11.49944115 23.58332825 0.00000000
v -11.46213245 23.53786850 0.00000000
v -11.41667080 23.50055885 0.00000000
v -11.30852699 23.45576477 0.00000000
v -11.25000000 23.45000076 0.00000000
v -11.19147301 23.45576477 0.00000000
v -11.13519478 23.47283554 0.00000000
v -11.08332920 23.50055885 0.00000000
v -11.03786755 23.53786850 0.00000000
v -11.00055885 23.58332825 0.00000000
v -11.36480522 23.47283554 0.27500001
v -11.49944115 23.58332825 0.27499998
v -11.46213245 23.53786850 0.27500001
v -11.41667080 23.50055885 0.27500001
v -11.30852699 23.45576477 0.27500001
v -11.25000000 23.45000076 0.27500001
v -11.19147301 23.45576477 0.27500001
v -11.13519478 23.47283554 0.27500001
v -11.08332920 23.50055885 0.27500001
v -11.03786755 23.53786850 0.27500001
v -11.00055885 23.58332825 0.27499998
v -11.52716351 23.63519478 0.00000000
v -11.54423523 23.69147301 0.00000000
v -11.55000019 23.75000000 0.00000000
v -11.54423523 23.80852699 0.00000000
v -11.52716351 23.86480522 0.00000000
v -11.49944115 23.91667175 0.00000000
v -11.46213245 23.96213150 0.00000000
v -11.41667080 23.99944115 0.00000000
v -11.36480522 24.02716446 0.00000000
v -10.97283649 23.63519478 0.00000000
v -10.95576477 23.69147301 0.00000000
v -10.94999981 23.75000000 0.00000000
v -10.95576477 23.80852699 0.00000000
v -11.30852699 24.04423523 0.00000000
v -11.25000000 24.04999924 0.00000000
v -11.19147301 24.04423523 0.00000000
v -11.13519478 24.02716446 0.00000000
v -10.97283649 23.86480522 0.00000000
v -11.00055885 23.91667175 0.00000000
v -11.03786755 23.96213150 0.00000000
v -11.08332920 23.99944115 0.00000000
v -11.52716351 23.63519478 0.27500001
v -11.54423523 23.69147301 0.27500001
v -11.55000019 23.75000000 0.27500001
v -11.54423523 23.80852699 0.27500001
v -11.52716351 23.86480522 0.27500001
v -11.49944115 23.91667175 0.27499998
v -11.46213245 23.96213150 0.27500001
v -11.41667080 23.99944115 0.27500001
v -11.36480522 24.02716446 0.27500001
v -10.97283649 23.63519478 0.27500001
v -10.95576477 23.69147301 0.27500001
v -10.94999981 23.75000000 0.27500001
v -10.95576477 23.80852699 0.27500001
v -11.30852699 24.04423523 0.27500001
v -11.25000000 24.04999924 0.27500001
v -11.19147301 24.04423523 0.27500001
v -11.13519478 24.02716446 0.27500001
v -10.97283649 23.86480522 0.27500001
v -11.00055885 23.91667175 0.27499998
v -11.03786755 23.96213150 0.27500001
v -11.08332920 23.99944115 0.27500001
v -11.73503685 23.54909134 0.50000000
v -11.76491261 23.64757729 0.50000000
v -11.77499962 23.75000000 0.50000000
v -11.76491261 23.85242271 0.50000000
v -11.73503685 23.95090866 0.50000000
v -11.54167461 23.31347847 0.50000000
v -11.35242271 23.23508835 0.50000000
v -11.45090866 23.26496315 0.50000000
v -11.62123108 23.37876892 0.50000000
v -11.68652153 23.45832634 0.50000000
v -11.25000000 23.22500038 0.50000000
v -11.14757729 23.23508835 0.50000000
v -11.04909134 23.26496315 0.50000000
v -10.95832539 23.31347847 0.50000000
v -11.68652153 24.04167366 0.50000000
v -12.50000000 25.00000000 0.00000000
v -12.50000000 25.00000000 0.50000000
v -11.62123108 24.12123108 0.50000000
v -11.54167461 24.18652153 0.50000000
v -11.45090866 24.23503685 0.50000000
v -11.35242271 24.26491165 0.50000000
v -11.25000000 24.27499962 0.50000000
v -11.14757729 24.26491165 0.50000000
v -11.04909134 24.23503685 0.50000000
v -10.95832539 24.18652153 0.50000000
v -10.87876892 23.37876892 0.50000000
v -10.81347847 23.45832634 0.50000000
v -10.76496315 23.54909134 0.50000000
v -10.73508739 23.64757729 0.50000000
v -10.72500038 23.75000000 0.50000000
v -10.76496315 23.95090866 0.50000000
v -10.81347847 24.04167366 0.50000000
v -10.73508739 23.85242271 0.50000000
v -10.00000000 25.00000000 0.00000000
v -10.87876892 24.12123108 0.50000000
v -10.00000000 25.00000000 0.50000000
v -3.91909623 17.98499107 0.50000000
v -0.53657758 18.24608803 0.54984999
v -0.43047985 18.23535538 0.53194898
v -0.32357630 18.22698593 0.51799101
v -0.21605864 18.22099495 0.50800198
v -0.10812797 18.21739769 0.50200099
v -0.00000602 18.21619415 0.50000000
v -1.59489334 18.51137543 0.99221599
v -1.67649674 18.54768753 1.05277097
v -1.75493646 18.58578300 1.11628902
v -0.84802079 18.29225922 0.62683600
v -1.04799867 18.33437347 0.69706303
v -0.94891131 18.31220627 0.66009903
v -1.24009013 18.38519669 0.78181100
v -1.33272195 18.41375542 0.82943499
v -1.14512241 18.35871696 0.73765898
v -0.74554914 18.27457047 0.59733802
v -0.64166737 18.25917053 0.57165998
v -1.42284489 18.44434547 0.88044202
v -1.51028931 18.47690582 0.93473601
v -2.36021543 20.82206345 0.50000000
v -1.83007479 18.62557411 1.18265104
v -1.90177381 18.66700745 1.25173199
v -1.96989095 18.70998001 1.32339203
v -2.03430057 18.75443268 1.39751697
v -2.09487534 18.80026436 1.47394598
v -2.15441346 18.84825706 1.55255604
v -0.58763659 22.51780701 0.50000000
v -0.25057989 22.87748909 0.69501299
v -0.22023971 22.84811974 0.70221400
v -0.23573945 22.86248016 0.69869202
v -0.33387801 22.99804497 0.66549999
v -0.30282989 22.94337273 0.67887503
v -0.31399512 22.96114349 0.67452598
v -0.32436213 22.97937965 0.67006499
v -0.29088840 22.92608833 0.68310702
v -0.27818000 22.90931892 0.68721402
v -0.26474261 22.89310646 0.69118500
v -0.35038593 23.03650093 0.65610099
v -0.34256151 23.01709557 0.66084301
v -0.35733840 23.05621529 0.65128601
v -0.36338574 23.07621574 0.64640200
v -0.36853483 23.09645271 0.64146203
v -0.37278321 23.11688805 0.63647699
v -0.20411853 22.83441734 0.70557499
v -0.09600693 22.76763153 0.72197002
v -0.07641245 22.75925636 0.72402799
v -0.05646048 22.75172043 0.72588003
v -0.01565016 22.73919868 0.72895700
v -0.03619337 22.74502945 0.72752398
v -0.15230554 22.79758644 0.71461302
v -0.18740185 22.82141113 0.70876497
v -0.17011511 22.80913925 0.71177799
v -0.13398591 22.78681755 0.71725798
v -0.11520908 22.77681923 0.71971297
v -0.32426283 23.42032623 0.56247801
v -0.31388429 23.43857384 0.55803001
v -0.30269343 23.45637321 0.55369002
v -0.29070485 23.47367096 0.54947001
v -0.20359430 23.56545830 0.52709103
v -0.26445723 23.50668716 0.54141903
v -0.25025603 23.52233887 0.53760600
v -0.27796000 23.49046898 0.54537600
v -0.23534805 23.53735733 0.53394198
v -0.21978237 23.55173111 0.53043503
v -0.18678828 23.57846069 0.52391797
v -0.16942392 23.59074593 0.52092302
v -0.15152262 23.60229683 0.51810700
v -0.13311557 23.61307526 0.51547998
v -0.11424082 23.62304306 0.51304603
v -0.07524062 23.64058304 0.50876898
v -0.05518504 23.64810371 0.50693798
v -0.09494223 23.63222885 0.51080698
v -0.03480839 23.65475273 0.50531501
v -0.01415675 23.66053963 0.50390297
v -0.58763659 24.90286636 0.50000000
v -0.37608972 23.13748932 0.63145202
v -0.37994337 23.17904663 0.62132400
v -0.37848005 23.15822983 0.62639600
v -0.37848035 23.24147224 0.60609198
v -0.37992570 23.22067261 0.61116302
v -0.38041860 23.19985580 0.61624402
v -0.37277880 23.28279114 0.59601700
v -0.36337203 23.32345009 0.58610100
v -0.36852419 23.30321312 0.59103501
v -0.35731819 23.34345818 0.58122402
v -0.37608132 23.26218224 0.60104001
v -0.35035217 23.36317062 0.57641500
v -0.34252116 23.38258743 0.57168102
v -0.33382013 23.40165138 0.56703299
v -8.15240574 17.77322960 4.50000000
v -8.15240288 17.77877426 4.50000000
v -8.14461231 17.77882195 4.50000000
v -8.35319519 17.98499107 4.50000000
v -4.12767982 17.77882195 4.50000000
v -4.11988592 17.77322960 4.50000000
v -4.11988926 17.77877426 4.50000000
v -3.91909623 17.98499107 4.50000000
v -2.15417433 18.80985641 4.50000000
v -2.15377951 20.13192940 3.70062304
v -2.08865452 20.18508720 3.77922511
v -2.02795291 20.23081970 3.85565305
v -1.96346653 20.27515602 3.92977905
v -0.04907600 20.07289505 3.59229994
v -2.15379095 19.90395355 4.50000000
v -2.15476465 20.13077927 4.50000000
v -2.14315391 20.14074516 4.50000000
v -2.09059191 20.18363762 4.50000000
v -2.02966547 20.22959709 4.50000000
v -1.96495807 20.27413750 4.50000000
v -1.89532685 20.31800461 4.00144720
v -1.82365084 20.35928535 4.07051992
v -1.74859190 20.39893723 4.13688707
v -1.67026663 20.43687630 4.20040083
v -2.36021543 20.82206345 4.50000000
v -1.58882320 20.47303963 4.26095915
v -1.89660406 20.31716728 4.50000000
v -1.82472348 20.35860825 4.50000000
v -1.74947131 20.39839935 4.50000000
v -1.67096710 20.43646049 4.50000000
v -1.58935976 20.47272873 4.50000000
v -1.50441778 20.50735283 4.31843281
v -1.41720724 20.53976440 4.37272787
v -1.50480688 20.50713158 4.50000000
v -1.41746604 20.53961945 4.50000000
v -1.32735169 20.57020950 4.42373991
v -1.32749784 20.57012749 4.50000000
v -1.23501682 20.59862709 4.47135782
v -1.23506820 20.59859848 4.50000000
v -1.17272294 20.61599922 4.50000000
v -1.16855526 20.61608124 4.50000000
v -0.58763659 22.51780701 4.50000000
v -0.25659695 22.87600517 4.50000000
v -0.22582737 22.84605217 4.50000000
v -0.24154714 22.86070061 4.50000000
v -0.20946433 22.83207512 4.50000000
v -0.11914413 22.77329063 4.50000000
v -0.09962237 22.76391411 4.50000000
v -0.07969972 22.75536156 4.50000000
v -0.05940891 22.74766350 4.50000000
v -0.03879461 22.74083328 4.50000000
v -0.01789696 22.73487854 4.50000000
v -0.15683976 22.79449654 4.50000000
v -0.17493793 22.80628204 4.50000000
v -0.19248724 22.81880951 4.50000000
v -0.13823052 22.78349876 4.50000000
v -0.29743209 22.92554092 4.50000000
v -0.30951563 22.94314957 4.50000000
v -0.32080084 22.96125031 4.50000000
v -0.33126402 22.97982407 4.50000000
v -0.34088093 22.99882317 4.50000000
v -0.27094439 22.89193153 4.50000000
v -0.28456578 22.90845108 4.50000000
v -0.34963530 23.01821136 4.50000000
v -0.35751125 23.03795624 4.50000000
v -0.36449274 23.05801010 4.50000000
v -0.37056622 23.07834816 4.50000000
v -0.37571970 23.09892082 4.50000000
v -0.37994456 23.11968613 4.50000000
v -0.38323101 23.14061737 4.50000000
v -0.38557547 23.16168022 4.50000000
v -0.38696942 23.18281555 4.50000000
v -0.38740933 23.20371056 4.50000000
v -0.38761747 24.18692398 4.50000000
v -0.38716850 24.20629692 4.50000000
v -0.38709557 24.20913506 4.50000000
v -0.38581538 24.22871399 4.50000000
v -0.38561705 24.23157692 4.50000000
v -0.38320518 24.25381279 4.50000000
v -0.38026741 24.27325821 4.50000000
v -0.37984496 24.27598953 4.50000000
v -0.37608299 24.29529572 4.50000000
v -0.37553680 24.29803467 4.50000000
v -0.37033013 24.31975555 4.50000000
v -0.36417344 24.34134483 4.50000000
v -0.35714599 24.36251831 4.50000000
v -0.34921035 24.38342094 4.50000000
v -0.34039482 24.40394783 4.50000000
v -0.33184883 24.42173195 4.50000000
v -0.33068994 24.42411232 4.50000000
v -0.32141584 24.44145584 4.50000000
v -0.32019860 24.44371033 4.50000000
v -0.31016174 24.46069527 4.50000000
v -0.30885768 24.46288109 4.50000000
v -0.29668230 24.48156548 4.50000000
v -0.28379032 24.49961090 4.50000000
v -0.27164251 24.51515388 4.50000000
v -0.27010971 24.51709747 4.50000000
v -0.58763659 24.90286636 4.50000000
v -0.25570536 24.53395081 4.50000000
v -0.24226171 24.54837418 4.50000000
v -0.24059317 24.55014801 4.50000000
v -0.22654110 24.56396484 4.50000000
v -0.22481279 24.56564903 4.50000000
v -0.20839030 24.58043480 4.50000000
v -0.19130518 24.59449768 4.50000000
v -0.17562078 24.60630417 4.50000000
v -0.17373274 24.60771179 4.50000000
v -0.15751110 24.61884689 4.50000000
v -0.15556674 24.62017059 4.50000000
v -0.13683997 24.63181877 4.50000000
v -0.11768891 24.64258194 4.50000000
v -0.09814893 24.65246391 4.50000000
v -0.08024399 24.66054726 4.50000000
v -0.07809965 24.66150284 4.50000000
v -0.05778680 24.66959190 4.50000000
v -0.03924325 24.67604065 4.50000000
v -0.03709883 24.67677498 4.50000000
v -0.01607942 24.68303680 4.50000000
v 2.36021519 11.25358391 0.50000000
v 3.91967940 11.11820316 0.50000000
v 4.12171221 12.21041393 0.50000000
v 6.11433983 12.63426113 0.79270601
v 6.15795994 12.63426113 0.79270601
v 5.63614988 13.03944206 1.08485103
v 4.12004519 11.31820297 1.71671104
v 3.91967940 15.97482872 0.50000000
v 4.11967945 14.55604076 2.17863989
v 8.35261250 11.11820316 0.50000000
v 8.15057945 12.21041393 0.50000000
v 6.63614988 13.03944206 1.08485103
v 10.00000000 10.00000000 0.00000000
v 10.00000000 10.00000000 0.50000000
v 10.87876892 10.87876892 0.50000000
v 10.73508739 11.14757729 0.50000000
v 10.81347847 10.95832539 0.50000000
v 10.76496315 11.04909134 0.50000000
v 10.72500038 11.25000000 0.50000000
v 10.73508739 11.35242271 0.50000000
v 10.76496315 11.45090866 0.50000000
v 10.81347847 11.54167461 0.50000000
v 10.87876892 11.62123108 0.50000000
v 12.50000000 10.00000000 0.00000000
v 10.95832539 10.81347847 0.50000000
v 11.04909134 10.76496315 0.50000000
v 11.14757729 10.73508739 0.50000000
v 11.25000000 10.72500038 0.50000000
v 11.35242271 10.73508739 0.50000000
v 11.45090866 10.76496315 0.50000000
v 11.54167461 10.81347847 0.50000000
v 11.62123108 10.87876892 0.50000000
v 12.50000000 10.00000000 0.50000000
v 11.08332920 11.00055885 0.00000000
v 11.03786755 11.03786755 0.00000000
v 11.00055885 11.08332920 0.00000000
v 10.97283649 11.13519478 0.00000000
v 11.13519478 10.97283649 0.00000000
v 11.19147301 10.95576477 0.00000000
v 11.25000000 10.94999981 0.00000000
v 11.30852699 10.95576477 0.00000000
v 10.95576477 11.19147301 0.00000000
v 10.94999981 11.25000000 0.00000000
v 10.95576477 11.30852699 0.00000000
v 10.97283649 11.36480522 0.00000000
v 11.36480522 10.97283649 0.00000000
v 11.41667080 11.00055885 0.00000000
v 11.46213245 11.03786755 0.00000000
v 11.49944115 11.08332920 0.00000000
v 11.52716351 11.13519478 0.00000000
v 11.54423523 11.19147301 0.00000000
v 11.55000019 11.25000000 0.00000000
v 11.54423523 11.30852699 0.00000000
v 11.52716351 11.36480522 0.00000000
v 11.08332920 11.00055885 0.27500001
v 11.03786755 11.03786755 0.27500001
v 11.00055885 11.08332920 0.27499998
v 10.97283649 11.13519478 0.27500001
v 11.13519478 10.97283649 0.27500001
v 11.19147301 10.95576477 0.27500001
v 11.25000000 10.94999981 0.27500001
v 11.30852699 10.95576477 0.27500001
v 10.95576477 11.19147301 0.27500001
v 10.94999981 11.25000000 0.27500001
v 10.95576477 11.30852699 0.27500001
v 10.97283649 11.36480522 0.27500001
v 11.36480522 10.97283649 0.27500001
v 11.41667080 11.00055885 0.27500001
v 11.46213245 11.03786755 0.27500001
v 11.49944115 11.08332920 0.27499998
v 11.52716351 11.13519478 0.27500001
v 11.54423523 11.19147301 0.27500001
v 11.55000019 11.25000000 0.27500001
v 11.54423523 11.30852699 0.27500001
v 11.52716351 11.36480522 0.27500001
v 11.00055885 11.41667080 0.00000000
v 11.03786755 11.46213245 0.00000000
v 11.08332920 11.49944115 0.00000000
v 11.13519478 11.52716351 0.00000000
v 11.19147301 11.54423523 0.00000000
v 11.25000000 11.55000019 0.00000000
v 11.30852699 11.54423523 0.00000000
v 11.41667080 11.49944115 0.00000000
v 11.46213245 11.46213245 0.00000000
v 11.49944115 11.41667080 0.00000000
v 11.36480522 11.52716351 0.00000000
v 11.00055885 11.41667080 0.27499998
v 11.03786755 11.46213245 0.27500001
v 11.08332920 11.49944115 0.27500001
v 11.13519478 11.52716351 0.27500001
v 11.19147301 11.54423523 0.27500001
v 11.25000000 11.55000019 0.27500001
v 11.30852699 11.54423523 0.27500001
v 11.41667080 11.49944115 0.27500001
v 11.46213245 11.46213150 0.27500001
v 11.49944115 11.41667080 0.27499998
v 11.36480522 11.52716351 0.27500001
v 11.68652153 10.95832539 0.50000000
v 10.95832539 11.68652153 0.50000000
v 11.04909134 11.73503685 0.50000000
v 11.14757729 11.76491261 0.50000000
v 11.25000000 11.77499962 0.50000000
v 11.68652153 11.54167461 0.50000000
v 11.62123108 11.62123108 0.50000000
v 11.45090866 11.73503685 0.50000000
v 11.35242271 11.76491261 0.50000000
v 11.54167461 11.68652153 0.50000000
v 11.73503685 11.04909134 0.50000000
v 11.76491261 11.14757729 0.50000000
v 11.77499962 11.25000000 0.50000000
v 11.76491261 11.35242271 0.50000000
v 11.73503685 11.45090866 0.50000000
v 10.00000000 12.50000000 0.00000000
v 10.00000000 12.50000000 0.50000000
v 12.50000000 12.50000000 0.00000000
v 12.50000000 12.50000000 0.50000000
v 8.15224743 11.31820297 1.71671104
v 8.35261250 15.97482872 0.50000000
v 8.15261269 14.55604076 2.17863989
v 0.00307863 11.47063637 4.50000000
v 0.10891041 11.47505760 4.50000000
v 0.10918007 11.47506905 4.50000000
v 0.11231463 11.47551537 4.50000000
v 0.21786086 11.48888779 4.50000000
v 0.21813013 11.48892212 4.50000000
v 0.32663786 11.51197147 4.50000000
v 0.43418458 11.54407883 4.50000000
v 0.43825400 11.54563427 4.50000000
v 0.43445235 11.54415894 4.50000000
v 0.43852183 11.54573822 4.50000000
v 0.54557228 11.58739567 4.50000000
v 0.54137903 11.58541298 4.50000000
v 0.54583901 11.58752251 4.50000000
v 0.64720762 11.63563538 4.50000000
v 0.75173086 11.69471455 4.50000000
v 0.85475528 11.76252747 4.50000000
v 0.95609319 11.83893108 4.50000000
v 2.24496436 11.25358391 4.50000000
v 2.24570107 11.25358391 4.50000000
v 2.36021519 11.25358391 4.50000000
v 2.36021519 11.28285599 4.50000000
v 1.05555892 11.92377186 4.50000000
v 1.15297568 12.01688099 4.50000000
v 1.24816620 12.11808109 4.50000000
v 1.34096181 12.22717381 4.50000000
v 1.43119407 12.34395218 4.50000000
v 1.51870358 12.46819687 4.50000000
v 1.60333109 12.59967518 4.50000000
v 1.68492508 12.73813534 4.50000000
v 1.89640474 13.63813114 4.09063244
v 1.87908947 13.73639679 4.13816261
v 1.86425817 13.64037514 4.17562342
v 2.36021519 13.59137249 4.09833097
v 2.36021519 13.63813114 4.09063244
v 1.76333618 12.88332367 4.50000000
v 1.83842254 13.03496552 4.50000000
v 1.90991390 13.28107071 4.44761133
v 1.91139376 13.26907825 4.45680857
v 1.91004741 13.19278145 4.50000000
v 1.94993293 13.18033504 4.50000000
v 1.92529285 13.22945881 4.50000000
v 1.97307312 13.15888023 4.41050482
v 2.03461695 13.17006302 4.50000000
v 2.09626293 13.16967297 4.50000000
v 2.36021519 13.23648548 4.33812189
v 2.36021519 13.15888023 4.41050482
v 2.36021519 13.16967297 4.50000000
v 3.91967940 11.11820316 4.50000000
v 4.12018728 11.31829834 4.50000000
v 4.12024164 12.32215595 4.50000000
v 3.91967940 13.47261620 4.11788273
v 4.12068367 13.47261620 4.11788273
v 3.91967940 13.63813114 4.09063244
v 4.12053680 13.63813114 4.09063244
v 4.12111998 12.98935890 4.50000000
v 3.91967940 13.15888023 4.41050482
v 4.12096786 13.15888023 4.41050482
v 3.91967940 13.16967297 4.50000000
v 4.12096071 13.16967297 4.50000000
v 1.89524305 13.85464859 4.08927727
v 1.90900028 13.88528538 4.08908558
v 1.97701705 14.05070877 4.08805037
v 2.04131722 14.22179222 4.08697939
v 2.10178161 14.39816570 4.08587551
v 2.11469889 14.43943787 4.08561707
v 2.11487103 14.43996716 4.08561373
v 2.12315917 14.46544170 4.08545446
v 2.15938115 14.58164692 4.08472729
v 2.15901065 14.95552921 4.08238697
v 2.36021519 14.95552921 4.08238697
v 2.15866327 15.36294937 4.26971722
v 2.15865445 15.38509274 4.31368732
v 2.15826964 15.47891998 4.50000000
v 2.36021519 15.36294937 4.26971722
v 2.36021519 15.47891998 4.50000000
v 4.11993361 14.32023144 4.08636332
v 3.91967940 14.95552921 4.08238697
v 4.11981678 14.95552921 4.08238697
v 3.91967940 15.36294937 4.26971722
v 4.11976290 15.36294937 4.26971722
v 3.91967940 15.47891998 4.50000000
v 4.11976719 15.47891998 4.50000000
v 4.11971378 15.76960087 4.50000000
v 3.91967940 15.97482872 4.50000000
v 8.15210533 11.31829834 4.50000000
v 8.35261250 11.11820316 4.50000000
v 8.15229702 13.47261620 4.11788273
v 8.15231228 13.63813114 4.09063244
v 8.35261250 13.47261620 4.11788273
v 8.35261250 13.63813114 4.09063244
v 8.15223980 13.15888023 4.41050482
v 8.15222931 13.16967297 4.50000000
v 8.35261250 13.15888023 4.41050482
v 8.35261250 13.16967297 4.50000000
v 8.15235806 14.32023144 4.08636332
v 8.15200233 14.92081547 4.08260441
v 8.15203476 14.95552921 4.08238697
v 8.35261250 14.95552921 4.08238697
v 8.15231705 15.36294937 4.26971722
v 8.35261250 15.36294937 4.26971722
v 8.15231037 15.47891998 4.50000000
v 8.35261250 15.47891998 4.50000000
v 8.15257835 15.76960087 4.50000000
v 8.35261250 15.97482872 4.50000000
v 0.10812601 18.21739578 0.50200099
v 0.21604660 18.22099495 0.50800198
v 0.32357422 18.22698593 0.51799101
v 0.43047783 18.23535538 0.53194898
v 0.53657556 18.24608803 0.54984999
v 0.64166534 18.25917053 0.57165998
v 0.74554604 18.27457047 0.59733802
v 0.84802300 18.29225922 0.62683600
v 0.94890428 18.31220627 0.66009903
v 1.04799855 18.33437347 0.69706303
v 1.14512146 18.35871696 0.73765898
v 1.24008715 18.38519669 0.78181100
v 1.33271992 18.41375542 0.82943499
v 1.42284179 18.44434547 0.88044202
v 1.51028740 18.47690582 0.93473601
v 1.59488952 18.51137543 0.99221599
v 1.67649066 18.54768944 1.05277097
v 1.75493407 18.58578110 1.11628902
v 2.36021519 20.82206345 0.50000000
v 1.83007705 18.62557411 1.18265104
v 1.90177000 18.66700745 1.25173199
v 1.96988606 18.70998001 1.32339203
v 2.03429341 18.75443268 1.39751697
v 2.09487414 18.80026436 1.47394598
v 2.15441346 18.84825706 1.55255604
v 0.81235868 22.51780701 0.50000000
v 0.44339547 22.84672546 0.70255500
v 0.45894939 22.86102867 0.69904798
v 0.47386327 22.87597084 0.69538498
v 0.55769020 22.99617767 0.66595697
v 0.48808590 22.89153290 0.69157100
v 0.51438093 22.92440224 0.68352002
v 0.52640730 22.94163322 0.67930102
v 0.50160062 22.90768623 0.68761402
v 0.53764528 22.95936012 0.67496300
v 0.54808420 22.97755241 0.67051202
v 0.57436997 23.03456306 0.65657502
v 0.56646168 23.01519012 0.66130900
v 0.58140987 23.05424500 0.65176702
v 0.58754671 23.07422066 0.64688897
v 0.59279627 23.09443665 0.64195502
v 0.59711599 23.11485100 0.63697302
v 0.00513969 22.73423958 0.73017597
v 0.04727699 22.72698021 0.73196101
v 0.02612807 22.73015785 0.73117799
v 0.06854845 22.72467041 0.73252702
v 0.08990242 22.72328758 0.73286903
v 0.11129980 22.72278023 0.73299301
v 0.13269831 22.72319984 0.73289102
v 0.15405767 22.72449493 0.73257101
v 0.17533883 22.72671127 0.73202699
v 0.23831904 22.73867035 0.72908700
v 0.19650115 22.72980499 0.73126602
v 0.21751043 22.73379135 0.73028600
v 0.25888756 22.74441528 0.72767502
v 0.27918372 22.75101852 0.72605199
v 0.29917315 22.75846672 0.72422099
v 0.31880093 22.76676559 0.72218299
v 0.33804455 22.77587128 0.71994603
v 0.35686797 22.78578568 0.71751100
v 0.37523076 22.79648399 0.71488398
v 0.41043591 22.82015800 0.70907199
v 0.39309090 22.80796051 0.71206701
v 0.42720816 22.83309555 0.70589900
v 0.51665080 23.47197914 0.54988301
v 0.52856255 23.45462990 0.55411500
v 0.53966796 23.43677711 0.55846602
v 0.41320229 23.57720184 0.52422500
v 0.39589122 23.58955574 0.52121198
v 0.47641057 23.52080345 0.53797698
v 0.42994651 23.56412315 0.52741498
v 0.46157578 23.53589249 0.53429800
v 0.44608071 23.55034065 0.53077602
v 0.49055555 23.50510788 0.54180598
v 0.50397658 23.48882484 0.54577601
v 0.00673948 23.66546249 0.50270498
v 0.02783974 23.66948128 0.50172502
v 0.04909395 23.67259979 0.50096297
v 0.07047328 23.67482758 0.50041902
v 0.09193455 23.67614174 0.50009900
v 0.11342755 23.67654991 0.50000000
v 0.13491854 23.67605209 0.50012100
v 0.15637340 23.67464638 0.50046301
v 0.17774366 23.67234230 0.50102901
v 0.28190866 23.64738846 0.50711000
v 0.19898252 23.66911697 0.50181198
v 0.22006525 23.66501999 0.50281399
v 0.24093878 23.66000557 0.50403303
v 0.26156977 23.65414810 0.50546700
v 0.30193290 23.63979149 0.50896198
v 0.34085256 23.62208748 0.51327902
v 0.32159591 23.63135147 0.51102000
v 0.35968506 23.61204338 0.51573199
v 0.37804556 23.60118866 0.51837802
v 0.81235868 24.90286636 0.50000000
v 0.58267057 23.34148026 0.58170402
v 0.60052657 23.13544083 0.63195199
v 0.60455233 23.17697716 0.62182701
v 0.60301590 23.15616989 0.62689900
v 0.60473669 23.21860695 0.61166602
v 0.60338420 23.23941231 0.60659403
v 0.60513663 23.19779205 0.61674798
v 0.59785771 23.28075027 0.59651297
v 0.58864695 23.32145309 0.58658803
v 0.59371388 23.30119896 0.59152800
v 0.60108179 23.26013184 0.60154003
v 0.57580543 23.36122894 0.57688898
v 0.56805962 23.38067818 0.57214701
v 0.55944008 23.39977455 0.56748998
v 0.54997903 23.41849899 0.56292599
v 4.90936947 22.10026932 0.50000000
v 5.17273569 23.00374794 0.56123602
v 5.18312168 23.02201271 0.55687600
v 5.19431639 23.03982925 0.55262202
v 5.20630026 23.05715370 0.54848599
v 5.21905041 23.07396698 0.54447299
v 5.23254776 23.09021187 0.54059500
v 5.26165771 23.12091827 0.53326702
v 5.24675322 23.10587883 0.53685802
v 6.04697895 23.00190926 0.56167400
v 6.03668451 23.02022362 0.55730402
v 6.02556133 23.03808212 0.55303800
v 6.01366377 23.05546570 0.54889101
v 6.00098085 23.07232475 0.54486501
v 5.98755693 23.08862686 0.54097402
v 5.95858192 23.11945343 0.53361601
v 5.97341776 23.10434914 0.53722203
v 5.29286289 22.41708183 0.70148599
v 5.26124239 22.44518471 0.69474000
v 5.24640417 22.46021461 0.69113398
v 5.23224831 22.47585678 0.68738198
v 5.21879864 22.49208260 0.68349099
v 5.20609665 22.50887871 0.67946500
v 5.19415379 22.52618408 0.67531699
v 5.17263651 22.56224251 0.66668200
v 5.16310263 22.58092690 0.66220897
v 5.13965034 22.63917351 0.64827698
v 5.14660740 22.61943626 0.65299600
v 5.15442610 22.60000420 0.65764397
v 5.18298578 22.54397774 0.67105502
v 5.27674198 22.43080330 0.69819200
v 5.30958605 22.40406418 0.70461202
v 5.32686567 22.39176559 0.70756602
v 5.34468126 22.38020515 0.71034402
v 5.36299849 22.36941528 0.71293700
v 5.38177586 22.35940552 0.71534300
v 5.40098095 22.35020447 0.71755499
v 5.42057419 22.34181595 0.71957201
v 5.46080017 22.32757187 0.72299802
v 5.44052982 22.33427048 0.72138703
v 5.11852264 22.74131393 0.62388200
v 5.12089872 22.72055244 0.62883800
v 5.11707211 22.76215553 0.61891001
v 5.12423801 22.86602783 0.59410697
v 5.12847328 22.88648605 0.58922499
v 5.11658287 22.78299522 0.61393201
v 5.11853600 22.82465935 0.60398102
v 5.11707640 22.80383873 0.60895199
v 5.12091780 22.84540176 0.59903097
v 5.12422323 22.69992256 0.63376200
v 5.12845421 22.67946243 0.63864899
v 5.13361073 22.65919876 0.64349002
v 5.13969183 22.92677498 0.57960802
v 5.14665174 22.94651604 0.57489502
v 5.13363695 22.90674400 0.58438802
v 5.15448427 22.96595573 0.57025498
v 5.16319084 22.98503876 0.56569898
v 5.92424154 22.41575623 0.70180398
v 5.94042015 22.42941284 0.69852602
v 5.95598030 22.44372940 0.69508898
v 5.97088718 22.45869446 0.69149798
v 5.98511076 22.47427750 0.68776000
v 5.99863815 22.49044609 0.68388301
v 6.01141071 22.50718880 0.67987001
v 6.02343035 22.52444458 0.67573398
v 6.04510546 22.56041145 0.66711998
v 6.03467894 22.54219055 0.67148298
v 6.05471468 22.57905960 0.66265601
v 6.07842398 22.63720131 0.64874798
v 6.06348801 22.59809494 0.65810102
v 6.07139206 22.61749268 0.65346098
v 5.48134184 22.32172585 0.72440302
v 5.50213385 22.31676483 0.72559798
v 5.52312708 22.31268311 0.72658002
v 5.54427624 22.30949211 0.72734803
v 5.56555080 22.30718803 0.72790200
v 5.58690596 22.30579758 0.72823697
v 5.60830545 22.30529213 0.72835797
v 5.62970686 22.30570221 0.72825903
v 5.65106773 22.30700684 0.72794503
v 5.67235136 22.30922508 0.72741199
v 5.69351673 22.31231880 0.72666597
v 5.71452570 22.31632042 0.72570503
v 5.73533869 22.32119751 0.72453099
v 5.75590849 22.32695389 0.72314698
v 5.79619360 22.34103012 0.71976101
v 5.81582832 22.34933281 0.71776402
v 5.83506870 22.35845566 0.71557099
v 5.77620459 22.33356857 0.72155601
v 5.85389233 22.36838722 0.71318400
v 5.87225485 22.37910271 0.71060902
v 5.89012194 22.39058876 0.70784903
v 5.90745783 22.40281105 0.70491302
v 6.09753799 22.71849823 0.62932801
v 6.10001993 22.73925209 0.62437499
v 6.10155964 22.76008415 0.61940402
v 6.09486675 22.86398888 0.59459400
v 6.09071302 22.88446045 0.58970702
v 6.10214520 22.78092766 0.61442602
v 6.10174274 22.80176926 0.60944498
v 6.10039091 22.82260132 0.60447401
v 6.09808969 22.84334755 0.59952098
v 6.08980227 22.67744255 0.63913101
v 6.08456326 22.65720177 0.64396697
v 6.09413338 22.69788551 0.63424897
v 6.07281399 22.94457245 0.57536000
v 6.08565617 22.90474701 0.58486599
v 6.07967663 22.92479706 0.58007902
v 6.06506538 22.96404266 0.57071197
v 6.05644369 22.98316383 0.56614703
v 5.29341745 23.14904785 0.52655202
v 5.31021452 23.16208076 0.52344298
v 5.32758045 23.17437553 0.52050698
v 5.34548426 23.18593597 0.51774597
v 5.36388922 23.19673729 0.51517200
v 5.42176485 23.22427750 0.50859499
v 5.44182158 23.23180008 0.50680000
v 5.46219730 23.23846245 0.50520903
v 5.38276291 23.20671844 0.51278698
v 5.40206528 23.21590805 0.51059198
v 5.27722120 23.13531494 0.52982998
v 5.48284960 23.24425697 0.50382501
v 5.50374460 23.24919128 0.50265098
v 5.54609919 23.25634384 0.50094402
v 5.52484512 23.25320435 0.50168997
v 5.56747961 23.25856590 0.50041097
v 5.58894062 23.25987625 0.50009698
v 5.61043358 23.26028633 0.50000000
v 5.63192463 23.25979042 0.50011897
v 5.65337896 23.25838280 0.50045401
v 5.75857258 23.23784447 0.50535798
v 5.77891493 23.23109436 0.50696898
v 5.79893875 23.22348404 0.50878400
v 5.85669041 23.19569778 0.51541901
v 5.83785868 23.20575714 0.51301497
v 5.81860161 23.21503258 0.51080102
v 5.67474794 23.25605965 0.50100797
v 5.69598866 23.25284386 0.50177598
v 5.71707058 23.24873924 0.50275803
v 5.73794365 23.24372292 0.50395298
v 5.89289856 23.17318726 0.52078998
v 5.92695570 23.14772415 0.52687001
v 5.91020823 23.16081429 0.52374297
v 5.87504816 23.18482399 0.51801199
v 5.94308519 23.13391876 0.53016400
v 4.90936947 24.46507454 0.50000000
v 6.30936480 22.10026932 0.50000000
v 6.30936480 24.46507454 0.50000000
v 10.00000000 22.50000000 0.00000000
v 10.00000000 22.50000000 0.50000000
v 12.50000000 22.50000000 0.00000000
v 12.50000000 22.50000000 0.50000000
v 10.81347847 23.45832634 0.50000000
v 10.87876892 23.37876892 0.50000000
v 10.76496315 23.54909134 0.50000000
v 10.73508739 23.64757729 0.50000000
v 10.72500038 23.75000000 0.50000000
v 10.73508739 23.85242271 0.50000000
v 10.76496315 23.95090866 0.50000000
v 10.81347847 24.04167366 0.50000000
v 10.00000000 25.00000000 0.00000000
v 10.00000000 25.00000000 0.50000000
v 10.87876892 24.12123108 0.50000000
v 11.00055885 23.58332825 0.00000000
v 11.08332920 23.50055885 0.00000000
v 11.03786755 23.53786850 0.00000000
v 11.13519478 23.47283554 0.00000000
v 11.19147301 23.45576477 0.00000000
v 11.25000000 23.45000076 0.00000000
v 11.30852699 23.45576477 0.00000000
v 11.36480522 23.47283554 0.00000000
v 11.41667080 23.50055885 0.00000000
v 11.46213245 23.53786850 0.00000000
v 11.49944115 23.58332825 0.00000000
v 11.00055885 23.58332825 0.27499998
v 11.08332920 23.50055885 0.27500001
v 11.03786755 23.53786850 0.27500001
v 11.13519478 23.47283554 0.27500001
v 11.19147301 23.45576477 0.27500001
v 11.25000000 23.45000076 0.27500001
v 11.30852699 23.45576477 0.27500001
v 11.36480522 23.47283554 0.27500001
v 11.41667080 23.50055885 0.27500001
v 11.46213245 23.53786850 0.27500001
v 11.49944115 23.58332825 0.27499998
v 10.97283649 23.63519478 0.00000000
v 10.95576477 23.69147301 0.00000000
v 10.94999981 23.75000000 0.00000000
v 10.95576477 23.80852699 0.00000000
v 10.97283649 23.86480522 0.00000000
v 11.00055885 23.91667175 0.00000000
v 11.03786755 23.96213150 0.00000000
v 11.08332920 23.99944115 0.00000000
v 11.13519478 24.02716446 0.00000000
v 11.19147301 24.04423523 0.00000000
v 11.25000000 24.04999924 0.00000000
v 11.30852699 24.04423523 0.00000000
v 11.52716351 23.63519478 0.00000000
v 11.54423523 23.69147301 0.00000000
v 11.55000019 23.75000000 0.00000000
v 11.54423523 23.80852699 0.00000000
v 11.49944115 23.91667175 0.00000000
v 11.41667080 23.99944115 0.00000000
v 11.36480522 24.02716446 0.00000000
v 11.46213245 23.96213150 0.00000000
v 11.52716351 23.86480522 0.00000000
v 10.97283649 23.63519478 0.27500001
v 10.95576477 23.69147301 0.27500001
v 10.94999981 23.75000000 0.27500001
v 10.95576477 23.80852699 0.27500001
v 10.97283649 23.86480522 0.27500001
v 11.00055885 23.91667175 0.27499998
v 11.03786755 23.96213150 0.27500001
v 11.08332920 23.99944115 0.27500001
v 11.13519478 24.02716446 0.27500001
v 11.19147301 24.04423523 0.27500001
v 11.25000000 24.04999924 0.27500001
v 11.30852699 24.04423523 0.27500001
v 11.52716351 23.63519478 0.27500001
v 11.54423523 23.69147301 0.27500001
v 11.55000019 23.75000000 0.27500001
v 11.54423523 23.80852699 0.27500001
v 11.49944115 23.91667175 0.27499998
v 11.41667080 23.99944115 0.27500001
v 11.36480522 24.02716446 0.27500001
v 11.46213245 23.96213150 0.27500001
v 11.52716351 23.86480522 0.27500001
v 10.95832539 23.31347847 0.50000000
v 11.04909134 23.26496315 0.50000000
v 11.14757729 23.23508835 0.50000000
v 11.25000000 23.22500038 0.50000000
v 11.35242271 23.23508835 0.50000000
v 11.45090866 23.26496315 0.50000000
v 11.54167461 23.31347847 0.50000000
v 11.62123108 23.37876892 0.50000000
v 11.68652153 23.45832634 0.50000000
v 11.68652153 24.04167366 0.50000000
v 11.73503685 23.54909134 0.50000000
v 11.76491261 23.64757729 0.50000000
v 11.77499962 23.75000000 0.50000000
v 11.76491261 23.85242271 0.50000000
v 11.73503685 23.95090866 0.50000000
v 12.50000000 25.00000000 0.00000000
v 10.95832539 24.18652153 0.50000000
v 11.04909134 24.23503685 0.50000000
v 11.14757729 24.26491165 0.50000000
v 11.25000000 24.27499962 0.50000000
v 11.35242271 24.26491165 0.50000000
v 11.45090866 24.23503685 0.50000000
v 11.62123108 24.12123108 0.50000000
v 11.54167461 24.18652153 0.50000000
v 12.50000000 25.00000000 0.50000000
v 2.15388060 19.09279633 4.50000000
v 0.04907400 20.07289505 3.59229994
v 2.15377951 20.13192940 3.70062304
v 2.08865333 20.18508720 3.77922511
v 2.02794528 20.23081970 3.85565305
v 1.96346164 20.27515602 3.92977905
v 1.50441587 20.50735283 4.31843281
v 1.04095614 20.61608124 4.50000000
v 1.16855419 20.61608124 4.50000000
v 1.41720426 20.53976440 4.37272787
v 1.41746306 20.53961945 4.50000000
v 1.50480497 20.50713158 4.50000000
v 1.32734978 20.57020950 4.42373991
v 1.23501384 20.59862709 4.47135782
v 1.23506522 20.59859848 4.50000000
v 1.17272151 20.61599922 4.50000000
v 1.32749593 20.57012749 4.50000000
v 2.15379095 19.90395355 4.50000000
v 2.09059048 20.18363762 4.50000000
v 2.10149956 20.17428398 4.50000000
v 2.02965784 20.22959709 4.50000000
v 1.96495330 20.27413750 4.50000000
v 2.15476465 20.13077927 4.50000000
v 1.89532292 20.31800461 4.00144720
v 1.82365322 20.35928535 4.07051992
v 1.74858963 20.39893723 4.13688707
v 1.67026031 20.43687630 4.20040083
v 1.58881927 20.47303963 4.26095915
v 1.74946904 20.39839935 4.50000000
v 1.58935583 20.47272873 4.50000000
v 1.67096078 20.43646049 4.50000000
v 1.82472587 20.35860825 4.50000000
v 1.89660025 20.31716728 4.50000000
v 2.36021519 20.82206345 4.50000000
v 0.00325406 22.72980881 4.50000000
v 0.02461159 22.72564507 4.50000000
v 0.04612850 22.72239113 4.50000000
v 0.06777608 22.72004318 4.50000000
v 0.08950493 22.71862221 4.50000000
v 0.11128116 22.71810722 4.50000000
v 0.13305821 22.71853065 4.50000000
v 0.15479304 22.71986008 4.50000000
v 0.17645018 22.72211838 4.50000000
v 0.19798143 22.72528267 4.50000000
v 0.21935949 22.72935486 4.50000000
v 0.24053203 22.73433685 4.50000000
v 0.26145470 22.74020195 4.50000000
v 0.28209832 22.74694633 4.50000000
v 0.30242488 22.75455856 4.50000000
v 0.32238588 22.76302719 4.50000000
v 0.34194845 22.77232361 4.50000000
v 0.36107948 22.78244781 4.50000000
v 0.37973800 22.79337120 4.50000000
v 0.39788729 22.80507851 4.50000000
v 0.41549364 22.81753159 4.50000000
v 0.43252975 22.83072662 4.50000000
v 0.44895461 22.84463501 4.50000000
v 0.46473846 22.85921669 4.50000000
v 0.47985700 22.87445831 4.50000000
v 0.49427477 22.89032364 4.50000000
v 0.50796986 22.90678596 4.50000000
v 0.52091110 22.92382240 4.50000000
v 0.53307468 22.94137764 4.50000000
v 0.54444015 22.95943260 4.50000000
v 0.55498499 22.97796249 4.50000000
v 0.56468582 22.99692154 4.50000000
v 0.57352853 23.01627350 4.50000000
v 0.58149117 23.03598595 4.50000000
v 0.58856165 23.05600548 4.50000000
v 0.59472674 23.07632065 4.50000000
v 0.59997123 23.09687042 4.50000000
v 0.60428882 23.11761856 4.50000000
v 0.81235868 22.51780701 4.50000000
v 0.60766959 23.13853645 4.50000000
v 0.61010599 23.15958977 4.50000000
v 0.61159492 23.18071556 4.50000000
v 0.61212963 23.20165825 4.50000000
v 0.61234009 24.18474770 4.50000000
v 0.61191320 24.20685577 4.50000000
v 0.61025524 24.23200989 4.50000000
v 0.61053628 24.22924232 4.50000000
v 0.60820901 24.25160408 4.50000000
v 0.60781991 24.25427818 4.50000000
v 0.60494280 24.27379227 4.50000000
v 0.60444468 24.27642632 4.50000000
v 0.60074008 24.29580116 4.50000000
v 0.58170587 24.36283875 4.50000000
v 0.58260745 24.36042404 4.50000000
v 0.57376415 24.38371658 4.50000000
v 0.57476002 24.38135910 4.50000000
v 0.56494576 24.40421486 4.50000000
v 0.56603050 24.40192604 4.50000000
v 0.53340769 24.46307373 4.50000000
v 0.53474331 24.46099663 4.50000000
v 0.55643737 24.42208862 4.50000000
v 0.54600245 24.44177818 4.50000000
v 0.54474837 24.44392586 4.50000000
v 0.50982898 24.49784279 4.50000000
v 0.52126622 24.48169327 4.50000000
v 0.52267629 24.47969437 4.50000000
v 0.49625665 24.51534653 4.50000000
v 0.60013717 24.29838181 4.50000000
v 0.59561110 24.31760597 4.50000000
v 0.59490448 24.32013893 4.50000000
v 0.58957708 24.33911324 4.50000000
v 0.58875561 24.34164238 4.50000000
v 0.00509045 24.68832970 4.50000000
v 0.02651894 24.69267082 4.50000000
v 0.04589901 24.69570541 4.50000000
v 0.04810784 24.69604301 4.50000000
v 0.06987093 24.69845200 4.50000000
v 0.09161557 24.69986534 4.50000000
v 0.11349769 24.70030403 4.50000000
v 0.13305299 24.69982910 4.50000000
v 0.13527597 24.69976807 4.50000000
v 0.15706185 24.69825363 4.50000000
v 0.17876597 24.69575119 4.50000000
v 0.38212028 24.61896706 4.50000000
v 0.36149648 24.63180923 4.50000000
v 0.36348546 24.63067818 4.50000000
v 0.34442493 24.64150047 4.50000000
v 0.38017470 24.62019348 4.50000000
v 0.20038928 24.69227409 4.50000000
v 0.21955913 24.68830490 4.50000000
v 0.22179855 24.68783379 4.50000000
v 0.24294534 24.68244553 4.50000000
v 0.26393896 24.67608643 4.50000000
v 0.28454283 24.66882896 4.50000000
v 0.30278572 24.66147423 4.50000000
v 0.30487826 24.66062546 4.50000000
v 0.32483274 24.65151978 4.50000000
v 0.43476880 24.57900238 4.50000000
v 0.48188806 24.53230667 4.50000000
v 0.46688396 24.54853058 4.50000000
v 0.44939750 24.56571960 4.50000000
v 0.45113644 24.56413651 4.50000000
v 0.40027118 24.60639954 4.50000000
v 0.41778854 24.59310532 4.50000000
v 0.41593856 24.59451294 4.50000000
v 0.81235868 24.72049522 4.50000000
v 0.81235868 24.90286636 4.50000000
v 4.90936947 22.10026932 4.50000000
v 5.46203041 22.10026932 4.50000000
v 5.32205820 22.38885498 4.50000000
v 5.28753138 22.41468048 4.50000000
v 5.30450869 22.40139771 4.50000000
v 5.34015608 22.37705612 4.50000000
v 5.35876608 22.36604118 4.50000000
v 5.37785244 22.35582352 4.50000000
v 5.39737606 22.34643173 4.50000000
v 5.41729736 22.33786964 4.50000000
v 5.43759012 22.33016014 4.50000000
v 5.45820618 22.32332039 4.50000000
v 5.27116823 22.42867470 4.50000000
v 5.25544882 22.44334221 4.50000000
v 5.24039888 22.45866394 4.50000000
v 5.22605181 22.47461128 4.50000000
v 5.19956398 22.50826263 4.50000000
v 5.21243000 22.49115181 4.50000000
v 5.18747997 22.52589035 4.50000000
v 5.16573381 22.56261253 4.50000000
v 5.15611649 22.58163452 4.50000000
v 5.14736176 22.60104752 4.50000000
v 5.13948727 22.62081528 4.50000000
v 5.13250637 22.64089394 4.50000000
v 5.17619562 22.54401588 4.50000000
v 5.12643337 22.66125488 4.50000000
v 5.12127876 22.68185234 4.50000000
v 5.11705494 22.70264626 4.50000000
v 5.11376905 22.72360229 4.50000000
v 5.11142588 22.74468803 4.50000000
v 5.11003208 22.76584816 4.50000000
v 5.10959244 22.78676987 4.50000000
v 5.56478071 22.30250549 4.50000000
v 5.58651018 22.30108261 4.50000000
v 5.60828638 22.30056953 4.50000000
v 5.63006544 22.30099106 4.50000000
v 5.65180063 22.30232239 4.50000000
v 5.47910309 22.31735992 4.50000000
v 5.50025368 22.31228447 4.50000000
v 5.52161407 22.30811691 4.50000000
v 5.54313135 22.30485725 4.50000000
v 5.67345953 22.30458260 4.50000000
v 5.69499207 22.30775070 4.50000000
v 5.71636963 22.31183052 4.50000000
v 5.73754311 22.31681633 4.50000000
v 5.75846767 22.32269096 4.50000000
v 5.77911091 22.32944489 4.50000000
v 5.79943752 22.33706474 4.50000000
v 5.81940031 22.34554672 4.50000000
v 5.83896160 22.35485458 4.50000000
v 5.85809469 22.36499214 4.50000000
v 5.87675381 22.37592888 4.50000000
v 5.89490271 22.38764954 4.50000000
v 5.91250896 22.40011787 4.50000000
v 5.92954636 22.41333008 4.50000000
v 5.94597054 22.42725563 4.50000000
v 5.96175528 22.44185829 4.50000000
v 5.97687197 22.45711708 4.50000000
v 5.99129009 22.47300148 4.50000000
v 6.00498629 22.48948479 4.50000000
v 6.01792717 22.50654221 4.50000000
v 6.03009033 22.52411842 4.50000000
v 6.04145527 22.54219627 4.50000000
v 6.05199957 22.56074905 4.50000000
v 6.06170034 22.57973099 4.50000000
v 6.07054186 22.59910583 4.50000000
v 6.07850456 22.61884117 4.50000000
v 6.08557463 22.63888741 4.50000000
v 6.09173918 22.65922546 4.50000000
v 6.09698296 22.67980003 4.50000000
v 6.10130072 22.70057297 4.50000000
v 6.10468006 22.72151566 4.50000000
v 6.10711670 22.74259377 4.50000000
v 6.10860538 22.76374626 4.50000000
v 6.10913992 22.78471375 4.50000000
v 5.10938883 23.74979782 4.50000000
v 5.10991383 23.77203560 4.50000000
v 5.11138201 23.79433823 4.50000000
v 5.11380959 23.81666183 4.50000000
v 5.11715984 23.83875275 4.50000000
v 5.12092018 23.85802460 4.50000000
v 5.12146807 23.86077499 4.50000000
v 5.12667704 23.88247490 4.50000000
v 5.13206673 23.90138817 4.50000000
v 5.13283443 23.90403748 4.50000000
v 5.13986111 23.92518806 4.50000000
v 5.14779854 23.94606590 4.50000000
v 5.15663862 23.96661758 4.50000000
v 5.16631842 23.98670959 4.50000000
v 5.17558670 24.00402069 4.50000000
v 5.17681313 24.00628662 4.50000000
v 5.18818378 24.02547836 4.50000000
v 5.19890499 24.04193306 4.50000000
v 5.20029736 24.04405022 4.50000000
v 5.21325445 24.06216240 4.50000000
v 6.10934591 23.74762154 4.50000000
v 6.10891914 23.76970291 4.50000000
v 6.10753870 23.79212189 4.50000000
v 6.10522079 23.81434250 4.50000000
v 6.10482359 23.81708717 4.50000000
v 6.05343866 23.98468781 4.50000000
v 6.04302883 24.00431061 4.50000000
v 6.03174114 24.02355766 4.50000000
v 6.01970673 24.04218102 4.50000000
v 6.00682878 24.06035423 4.50000000
v 6.10194826 23.83656502 4.50000000
v 6.10144711 23.83921051 4.50000000
v 6.09774446 23.85854912 4.50000000
v 6.09262896 23.88027191 4.50000000
v 6.09190512 23.88287354 4.50000000
v 6.08656597 23.90186310 4.50000000
v 6.07870388 23.92552757 4.50000000
v 6.07176304 23.94400597 4.50000000
v 6.07962894 23.92304230 4.50000000
v 6.07075977 23.94637871 4.50000000
v 6.06193924 23.96685410 4.50000000
v 6.06303263 23.96455002 4.50000000
v 4.90936947 24.46507454 4.50000000
v 5.22690153 24.07958603 4.50000000
v 5.24134541 24.09646034 4.50000000
v 5.25645638 24.11263275 4.50000000
v 5.27219868 24.12807655 4.50000000
v 5.28681898 24.14123726 4.50000000
v 5.28866768 24.14288139 4.50000000
v 5.30380821 24.15534401 4.50000000
v 5.30566835 24.15686226 4.50000000
v 5.32137680 24.16867256 4.50000000
v 5.32328272 24.17009163 4.50000000
v 5.34149027 24.18255997 4.50000000
v 5.36017513 24.19417000 4.50000000
v 5.37724066 24.20376015 4.50000000
v 5.37927675 24.20489311 4.50000000
v 5.39678621 24.21374893 4.50000000
v 5.39886570 24.21478653 4.50000000
v 5.41674805 24.22285271 4.50000000
v 5.41891384 24.22381783 4.50000000
v 5.43922615 24.23189354 4.50000000
v 5.45774651 24.23832703 4.50000000
v 5.45991325 24.23906898 4.50000000
v 5.48087978 24.24531174 4.50000000
v 5.50215387 24.25061989 4.50000000
v 5.52130556 24.25450134 4.50000000
v 5.52352858 24.25494194 4.50000000
v 5.54511213 24.25831032 4.50000000
v 5.56457806 24.26047325 4.50000000
v 5.56682730 24.26071358 4.50000000
v 5.58637667 24.26198959 4.50000000
v 5.58862448 24.26213074 4.50000000
v 5.60820389 24.26252937 4.50000000
v 5.61050510 24.26256943 4.50000000
v 5.63003063 24.26209259 4.50000000
v 5.63227654 24.26203156 4.50000000
v 5.65411949 24.26051521 4.50000000
v 5.67576933 24.25802040 4.50000000
v 5.69739056 24.25454712 4.50000000
v 5.71653986 24.25058937 4.50000000
v 5.71880293 24.25011253 4.50000000
v 5.73776388 24.24529266 4.50000000
v 5.73994923 24.24473190 4.50000000
v 5.75872374 24.23905754 4.50000000
v 5.76088953 24.23839760 4.50000000
v 5.77940178 24.23188782 4.50000000
v 5.78154230 24.23113060 4.50000000
v 5.80187035 24.22294235 4.50000000
v 5.83934116 24.20490646 4.50000000
v 5.84137869 24.20386505 4.50000000
v 5.82187891 24.21382141 4.50000000
v 5.89722633 24.16881180 4.50000000
v 5.89531469 24.17013550 4.50000000
v 5.93176699 24.14141464 4.50000000
v 5.94816875 24.12653542 4.50000000
v 5.91291618 24.15692520 4.50000000
v 5.91478491 24.15550423 4.50000000
v 5.99165487 24.07972908 4.50000000
v 5.99325657 24.07783508 4.50000000
v 5.97889042 24.09477425 4.50000000
v 5.97725630 24.09654236 4.50000000
v 5.96384478 24.11102104 4.50000000
v 5.86048126 24.19302940 4.50000000
v 5.87915945 24.18130493 4.50000000
v 6.30936480 22.10026932 4.50000000
v 6.30936480 24.38465309 4.50000000
v 6.30936480 24.38288116 4.50000000
v 6.30936480 24.46507454 4.50000000
f 1105 753 751
f 741 740 1133
f 1133 742 741
f 1097 745 743
f 1098 744 745
f 1099 746 744
f 1100 747 746
f 1101 748 747
f 1102 749 748
f 1104 750 749
f 751 750 1105
f 739 737 1131
f 1108 755 752
f 756 755 1110
f 1110 757 756
f 1107 754 753
f 752 754 1108
f 1111 758 757
f 759 758 1113
f 1114 761 760
f 1113 760 759
f 1121 731 729
f 948 950 949
f 954 953 951
f 952 953 955
f 945 953 954
f 953 826 955
f 795 956 972
f 1135 295 726
f 1119 728 727
f 1120 729 728
f 763 761 1116
f 731 1123 734
f 1123 732 734
f 1124 733 732
f 1126 736 735
f 730 736 1128
f 1128 738 730
f 735 733 1126
f 1131 740 739
f 1129 737 738
f 807 1149 808
f 788 789 1189
f 1189 789 785
f 1185 786 787
f 787 788 1187
f 792 1193 790
f 791 1183 792
f 790 1191 785
f 793 1183 791
f 796 1168 807
f 794 1184 793
f 808 1151 809
f 1153 810 809
f 1157 767 810
f 1155 765 766
f 1161 775 765
f 1159 766 767
f 803 1147 805
f 805 1164 804
f 804 1167 796
f 1142 806 801
f 1116 762 763
f 1118 764 762
f 1119 727 764
f 797 742 1136
f 1136 799 797
f 1138 798 799
f 1139 802 798
f 1143 801 800
f 1141 800 802
f 943 947 940
f 1170 776 777
f 777 778 1171
f 778 779 1173
f 779 780 1173
f 780 781 1175
f 1175 781 782
f 782 783 1178
f 783 784 1179
f 786 1185 784
f 891 901 903
f 891 888 890
f 842 891 872
f 891 892 893
f 893 894 895
f 891 893 898
f 893 895 899
f 898 899 896
f 891 898 901
f 898 896 897
f 898 893 899
f 890 888 889
f 901 898 900
f 872 891 903
f 903 901 902
f 914 867 842
f 867 914 822
f 904 906 913
f 906 904 905
f 906 910 914
f 908 918 910
f 879 914 881
f 903 869 870
f 903 870 872
f 872 870 871
f 872 873 874
f 872 874 875
f 872 876 878
f 876 872 875
f 914 872 878
f 876 875 877
f 908 912 907
f 878 880 881
f 914 878 881
f 891 842 888
f 849 882 883
f 888 849 883
f 883 884 885
f 883 885 887
f 887 885 886
f 888 883 887
f 947 943 950
f 921 817 924
f 932 924 937
f 924 822 937
f 933 932 935
f 937 936 935
f 935 932 937
f 936 934 935
f 937 940 938
f 938 940 939
f 930 924 932
f 937 946 943
f 941 950 942
f 937 822 953
f 942 950 943
f 946 937 953
f 945 954 944
f 953 945 946
f 940 937 943
f 947 950 948
f 910 918 822
f 910 906 909
f 910 911 912
f 822 914 910
f 912 908 910
f 913 906 914
f 904 913 915
f 822 918 920
f 916 919 918
f 918 908 917
f 806 1145 803
f 920 918 919
f 972 971 265
f 921 923 922
f 923 921 924
f 925 924 929
f 926 930 928
f 927 926 928
f 932 928 930
f 930 929 924
f 926 1338 930
f 813 814 1295
f 1295 814 815
f 815 816 1298
f 931 921 1326
f 924 925 1332
f 925 929 1333
f 921 922 1327
f 922 923 1330
f 923 924 1332
f 929 930 1336
f 818 931 1324
f 926 927 1339
f 927 928 1341
f 811 1321 956
f 928 932 1343
f 932 933 1344
f 1344 933 935
f 934 1347 935
f 1348 934 936
f 1350 936 937
f 863 864 1288
f 898 897 1253
f 901 900 1255
f 902 901 1255
f 903 902 1257
f 868 903 1258
f 854 1282 859
f 854 855 1284
f 855 865 1285
f 863 1287 865
f 1356 939 940
f 864 866 1290
f 866 867 1291
f 867 812 1291
f 812 813 1292
f 858 857 1280
f 857 859 1282
f 816 817 1298
f 817 819 1323
f 819 818 1323
f 1383 944 954
f 1302 912 911
f 1300 911 910
f 1374 952 955
f 955 826 1374
f 1378 825 824
f 1380 826 827
f 1377 827 825
f 1307 823 822
f 1307 824 823
f 1319 820 920
f 1375 951 953
f 954 951 1383
f 1373 953 952
f 1352 937 938
f 1353 938 939
f 1387 958 956
f 957 594 958
f 589 959 960
f 972 594 960
f 1370 943 946
f 1356 940 947
f 1358 947 948
f 1358 948 949
f 1360 949 950
f 1363 950 941
f 1382 945 944
f 1367 942 943
f 1365 941 942
f 1370 946 945
f 900 898 1253
f 1305 822 821
f 821 820 1305
f 1303 907 912
f 1310 908 907
f 1313 918 917
f 1312 917 908
f 920 919 1318
f 1317 916 918
f 919 916 1315
f 851 853 1234
f 1223 840 835
f 1225 836 839
f 1224 835 836
f 1226 839 838
f 838 837 1227
f 1216 828 841
f 1231 861 860
f 860 852 1232
f 1230 862 861
f 1229 837 862
f 852 851 1233
f 1235 853 856
f 1280 856 858
f 869 868 1259
f 1259 870 869
f 1261 872 871
f 871 870 1261
f 1265 877 875
f 873 872 1263
f 1203 795 343
f 1163 770 774
f 1196 773 772
f 772 770 1196
f 1194 768 771
f 769 768 1199
f 769 1199 794
f 1197 771 773
f 1163 774 775
f 726 795 1202
f 1263 874 873
f 1205 811 957
f 1207 842 828
f 841 829 1217
f 830 831 1219
f 1218 829 830
f 1228 834 840
f 1221 831 832
f 832 833 1220
f 833 834 1222
f 886 1236 887
f 1214 849 850
f 882 849 1215
f 850 848 1213
f 1237 888 887
f 1238 889 888
f 883 882 1241
f 883 1242 884
f 884 1243 885
f 885 1244 886
f 848 847 1212
f 889 1240 890
f 892 891 1245
f 1245 891 890
f 893 892 1247
f 894 893 1247
f 895 894 1249
f 899 895 1250
f 896 899 1250
f 897 896 1251
f 904 915 1275
f 875 874 1265
f 1266 876 877
f 1268 878 876
f 914 879 1272
f 1269 880 878
f 881 880 1270
f 1270 879 881
f 915 913 1273
f 1272 913 914
f 903 868 869
f 906 905 1277
f 905 904 1275
f 909 906 1278
f 910 909 1300
f 843 842 1208
f 844 843 1206
f 845 844 1209
f 1210 846 845
f 847 846 1211
f 680 679 699
f 679 485 699
f 650 672 649
f 672 674 649
f 674 676 673
f 675 673 676
f 676 678 675
f 677 675 678
f 678 676 679
f 678 679 677
f 680 677 679
f 676 485 679
f 593 681 595
f 594 689 682
f 681 593 645
f 681 645 682
f 681 682 688
f 595 681 683
f 683 681 687
f 687 681 688
f 688 682 690
f 668 671 669
f 661 630 662
f 662 630 663
f 663 630 664
f 664 630 665
f 665 630 666
f 665 666 667
f 667 666 670
f 667 670 671
f 667 671 668
f 682 689 690
f 725 667 668
f 669 1063 668
f 669 671 1096
f 670 666 1096
f 671 670 1096
f 485 650 648
f 650 485 672
f 672 485 674
f 674 485 676
f 700 697 698
f 684 686 694
f 691 684 694
f 692 691 694
f 693 692 694
f 693 694 696
f 695 693 696
f 695 696 698
f 697 695 698
f 700 680 699
f 699 595 697
f 700 699 697
f 703 271 701
f 703 701 702
f 703 704 706
f 706 704 705
f 703 706 707
f 703 707 714
f 707 708 710
f 710 708 709
f 686 594 694
f 683 687 685
f 686 683 685
f 683 686 684
f 685 687 689
f 689 687 688
f 690 689 688
f 595 699 485
f 689 594 685
f 686 685 594
f 660 630 661
f 694 594 696
f 696 594 698
f 698 594 700
f 683 684 595
f 684 691 595
f 595 691 692
f 595 692 693
f 595 693 695
f 695 697 595
f 703 602 603
f 652 644 654
f 654 644 655
f 647 652 648
f 650 649 647
f 647 648 650
f 653 648 652
f 653 652 655
f 655 652 654
f 655 651 653
f 644 651 655
f 605 604 704
f 704 603 605
f 704 604 606
f 705 606 608
f 608 607 705
f 705 607 609
f 706 609 610
f 707 610 611
f 708 611 612
f 633 626 628
f 634 633 635
f 637 634 635
f 642 641 638
f 638 640 642
f 638 636 639
f 640 638 639
f 640 643 642
f 626 634 638
f 634 626 633
f 613 709 612
f 629 638 641
f 633 628 632
f 645 483 646
f 645 646 644
f 644 682 645
f 646 483 651
f 485 648 653
f 651 485 653
f 646 651 644
f 667 725 665
f 630 629 719
f 666 630 719
f 722 658 659
f 723 659 660
f 724 660 661
f 724 661 662
f 724 662 663
f 725 663 664
f 725 664 665
f 725 724 663
f 673 675 478
f 675 677 484
f 677 680 484
f 680 700 484
f 631 632 720
f 630 657 656
f 657 630 658
f 658 630 659
f 659 630 660
f 718 625 631
f 613 618 710
f 711 618 619
f 712 619 620
f 713 620 621
f 714 621 622
f 715 622 623
f 716 623 624
f 717 624 625
f 629 617 719
f 714 707 710
f 721 632 628
f 721 628 627
f 721 627 656
f 721 656 657
f 657 658 722
f 720 718 631
f 720 632 721
f 723 722 659
f 724 723 660
f 817 921 931
f 807 808 809
f 767 807 809
f 810 767 809
f 957 811 719
f 812 867 813
f 813 867 814
f 814 867 815
f 867 816 815
f 816 867 817
f 817 867 924
f 796 807 767
f 817 931 818
f 817 818 819
f 867 822 924
f 820 822 920
f 826 953 825
f 822 820 821
f 824 822 823
f 822 824 953
f 826 825 827
f 767 800 796
f 788 783 790
f 789 788 785
f 793 791 794
f 792 768 791
f 794 791 769
f 768 769 791
f 972 267 795
f 795 726 956
f 800 767 764
f 825 953 824
f 742 797 798
f 800 742 802
f 797 799 798
f 802 742 798
f 801 806 800
f 806 803 796
f 804 796 803
f 805 804 803
f 806 796 800
f 865 857 853
f 849 888 842
f 842 846 849
f 851 862 853
f 852 860 851
f 853 842 867
f 854 857 865
f 855 854 865
f 853 867 865
f 853 857 856
f 849 846 850
f 857 858 856
f 857 854 859
f 862 851 860
f 862 838 853
f 862 860 861
f 864 863 865
f 864 865 867
f 866 864 867
f 914 842 872
f 834 838 839
f 842 841 828
f 829 841 830
f 834 830 841
f 834 841 842
f 831 833 832
f 833 830 834
f 833 831 830
f 839 835 834
f 835 839 836
f 787 786 788
f 837 838 862
f 834 853 838
f 853 834 842
f 835 840 834
f 842 843 844
f 845 842 844
f 842 845 846
f 850 846 848
f 846 847 848
f 728 800 764
f 956 288 811
f 767 297 764
f 728 764 727
f 728 731 734
f 731 728 729
f 800 728 734
f 742 734 730
f 732 730 734
f 733 735 732
f 726 288 956
f 732 735 730
f 730 735 736
f 730 738 742
f 737 740 738
f 740 737 739
f 734 742 800
f 742 738 740
f 742 740 741
f 744 743 745
f 90 971 959
f 710 711 712
f 714 710 712
f 714 712 713
f 703 714 721
f 714 715 718
f 718 715 716
f 718 716 717
f 721 714 718
f 288 719 811
f 744 746 747
f 484 594 957
f 957 719 484
f 721 718 720
f 721 722 723
f 721 723 725
f 725 723 724
f 1064 703 721
f 1066 721 725
f 1096 719 288
f 776 342 778
f 770 767 765
f 766 765 767
f 768 792 770
f 792 767 770
f 771 768 772
f 770 772 768
f 772 773 771
f 775 774 770
f 770 765 775
f 767 792 783
f 779 778 342
f 778 777 776
f 780 779 782
f 781 780 782
f 783 782 779
f 784 783 786
f 792 790 783
f 790 785 788
f 786 783 788
f 752 755 751
f 747 748 749
f 744 747 751
f 751 747 749
f 751 749 750
f 744 751 756
f 297 744 764
f 756 751 755
f 751 753 754
f 751 754 752
f 958 594 972
f 744 756 763
f 756 757 758
f 756 758 759
f 764 744 763
f 763 756 759
f 763 759 760
f 763 760 761
f 764 763 762
f 783 352 767
f 1202 1185 1186
f 1202 1178 1179
f 1175 1203 456
f 1203 1175 1176
f 1198 1196 1202
f 1197 1198 1202
f 1200 1194 1202
f 1199 1201 1202
f 1201 1200 1202
f 1194 1197 1202
f 1202 1179 1185
f 1202 1177 1178
f 1187 1188 1202
f 1202 1186 1187
f 1193 1202 1192
f 1202 1189 1190
f 1202 1188 1189
f 1190 1191 1202
f 1202 1191 1192
f 1202 1181 1182
f 1193 1183 1202
f 1202 1167 1166
f 1144 1202 1145
f 1202 1144 1142
f 1146 1202 1147
f 1202 1146 1145
f 1148 1202 1164
f 1202 1148 1147
f 1164 1202 1165
f 1165 1202 1166
f 1167 1202 1168
f 1202 1183 1181
f 1149 1150 1202
f 1149 1202 1152
f 1151 1152 1202
f 1202 1150 1168
f 1157 1153 1202
f 1202 1153 1154
f 1202 1154 1151
f 1158 1157 1202
f 1176 1177 1202
f 1204 1219 1221
f 1231 1232 1204
f 1232 1233 1204
f 1233 1234 1204
f 1234 1235 1204
f 1210 1204 1205
f 1209 1206 1204
f 1206 1208 1204
f 1210 1209 1204
f 1218 1219 1204
f 1230 1204 1229
f 1204 1216 1217
f 1204 1207 1216
f 1208 1207 1204
f 1218 1204 1217
f 1204 1222 1228
f 1220 1222 1204
f 1221 1220 1204
f 1228 1223 1204
f 1210 1205 1211
f 1160 1161 1202
f 1184 1180 1202
f 1202 1182 1184
f 1202 1180 1199
f 1156 1159 1202
f 1159 1158 1202
f 1162 1155 1202
f 1202 1155 1156
f 1195 1163 1202
f 1202 1163 1160
f 1202 1143 1141
f 1202 1161 1162
f 1202 1196 1195
f 1203 1176 1202
f 1223 1224 1204
f 1224 1225 1204
f 1225 1226 1204
f 1227 1204 1226
f 1227 1229 1204
f 1230 1231 1204
f 944 1383 1382
f 827 1379 1380
f 1379 827 1377
f 825 1378 1377
f 824 1307 1308
f 1381 826 1380
f 919 1315 1316
f 919 1316 1318
f 916 1317 1315
f 920 1318 1320
f 920 1320 1319
f 824 1308 1378
f 951 1371 1372
f 951 1372 1383
f 1371 951 1375
f 1321 1387 956
f 399 1135 1098
f 1098 1135 1099
f 1099 1135 1100
f 1100 1135 1101
f 1101 1135 1102
f 1366 942 1367
f 1361 950 1362
f 941 1364 1363
f 1362 950 1363
f 949 1360 1359
f 945 1368 1370
f 945 1369 1368
f 1369 945 1382
f 942 1366 1365
f 1364 941 1365
f 1135 1103 1102
f 943 1370 1367
f 820 1319 1304
f 820 1304 1305
f 822 1306 1307
f 822 1305 1306
f 1381 1374 826
f 953 1376 1375
f 1376 953 1373
f 952 1374 1373
f 1132 1135 1133
f 1123 1135 1124
f 1124 1135 1125
f 1125 1135 1126
f 1127 1135 1128
f 1135 1127 1126
f 1128 1135 1129
f 1129 1135 1130
f 1130 1135 1131
f 1131 1135 1132
f 1135 1122 1121
f 1133 1135 1134
f 1134 1135 1136
f 1136 1135 1137
f 1137 1135 1138
f 1138 1135 1139
f 1139 1135 1202
f 1139 1202 1140
f 1140 1202 1141
f 1143 1202 1142
f 1112 1135 1113
f 1103 1135 1104
f 1104 1135 1105
f 1105 1135 1106
f 1106 1135 1107
f 1107 1135 1108
f 1108 1135 1109
f 1109 1135 1110
f 1110 1135 1111
f 1111 1135 1112
f 1212 1211 1205
f 1113 1135 1114
f 1114 1135 1115
f 1135 1116 1115
f 1116 1135 1117
f 1117 1135 1118
f 1118 1135 1119
f 1119 1135 1120
f 1120 1135 1121
f 1122 1135 1123
f 1385 1349 1350
f 1321 1341 1342
f 1321 1342 1343
f 1344 1321 1343
f 1321 1344 1345
f 1346 1321 1345
f 1321 1346 1347
f 1347 1387 1321
f 1387 1347 1348
f 1348 1349 1385
f 1350 1351 1386
f 1340 1341 1321
f 1386 1351 1352
f 1354 1355 1386
f 1386 1352 1353
f 1386 1353 1354
f 1358 1359 1386
f 1386 1359 1360
f 1361 1362 1386
f 1386 1360 1361
f 1365 1366 1386
f 1321 1331 1332
f 1298 1322 1321
f 1322 1323 1321
f 1323 1324 1321
f 1324 1325 1321
f 1325 1326 1321
f 1321 1326 1327
f 1328 1329 1321
f 1328 1321 1327
f 1321 1329 1330
f 1386 1362 1363
f 1331 1321 1330
f 1332 1333 1321
f 1335 1321 1334
f 1334 1321 1333
f 1335 1336 1321
f 1321 1337 1338
f 1321 1338 1339
f 1337 1321 1336
f 1339 1340 1321
f 1386 1381 1380
f 1386 1306 1305
f 1308 1307 1386
f 1317 1314 1386
f 1386 1316 1315
f 1386 1315 1317
f 1374 1381 1386
f 1380 1379 1386
f 1379 1377 1386
f 1386 1377 1378
f 1305 1304 1386
f 1386 1373 1374
f 1386 1355 1356
f 1386 1356 1357
f 1357 1358 1386
f 1386 1385 1350
f 1387 1348 1385
f 1386 1384 958
f 1386 958 1385
f 1385 958 1387
f 1386 1367 1370
f 1386 1363 1364
f 1364 1365 1386
f 1371 1375 1386
f 1386 1375 1376
f 1376 1373 1386
f 1370 1368 1386
f 1369 1382 1386
f 1386 1368 1369
f 1367 1386 1366
f 1297 1321 1296
f 1383 1372 1386
f 1386 1382 1383
f 1372 1371 1386
f 1318 1316 1386
f 1320 1318 1386
f 1320 1386 1319
f 1304 1319 1386
f 1378 1308 1386
f 1307 1306 1386
f 1260 1259 1384
f 1252 1251 1205
f 1253 1252 1205
f 1254 1253 1205
f 1255 1254 1205
f 1256 1255 1205
f 1384 1256 1205
f 1257 1256 1384
f 1258 1257 1384
f 1259 1258 1384
f 1250 1249 1205
f 1261 1260 1384
f 1262 1261 1384
f 1263 1262 1384
f 1384 1264 1263
f 1264 1384 1265
f 1265 1384 1266
f 1266 1384 1267
f 1267 1384 1268
f 1268 1384 1269
f 1237 1236 1205
f 1214 1213 1205
f 1213 1212 1205
f 1215 1214 1205
f 1241 1215 1205
f 1279 1204 1235
f 1242 1241 1205
f 1243 1242 1205
f 1244 1243 1205
f 1236 1244 1205
f 1269 1384 1270
f 1238 1237 1205
f 1240 1239 1205
f 1239 1238 1205
f 1245 1240 1205
f 1246 1245 1205
f 1247 1246 1205
f 1248 1247 1205
f 1249 1248 1205
f 1251 1250 1205
f 1287 1321 1286
f 1303 1302 1386
f 1309 1303 1386
f 1311 1310 1386
f 1310 1309 1386
f 1312 1311 1386
f 1314 1313 1386
f 1313 1312 1386
f 1321 1285 1286
f 1321 1287 1288
f 1302 1301 1386
f 1321 1288 1289
f 1321 1289 1290
f 1321 1290 1291
f 1321 1291 1292
f 1321 1292 1293
f 1321 1293 1294
f 1321 1294 1295
f 1321 1295 1296
f 1321 1297 1298
f 1204 1282 1321
f 1270 1384 1271
f 1272 1384 1273
f 1384 1272 1271
f 1273 1384 1274
f 1274 1384 1275
f 1275 1384 1386
f 1279 1280 1204
f 1280 1281 1204
f 1282 1204 1281
f 950 1361 1360
f 1321 1282 1283
f 1321 1284 1285
f 1284 1321 1283
f 1275 1386 1276
f 1276 1386 1277
f 1277 1386 1278
f 1278 1386 1299
f 1300 1299 1386
f 1301 1300 1386
f 799 1137 1138
f 757 1110 1111
f 1112 758 1111
f 758 1112 1113
f 760 1113 1114
f 761 1115 1116
f 1115 761 1114
f 762 1116 1117
f 762 1117 1118
f 764 1118 1119
f 799 1136 1137
f 755 1109 1110
f 798 1138 1139
f 802 1139 1140
f 1149 807 1150
f 1150 807 1168
f 1154 809 1151
f 808 1149 1152
f 1151 808 1152
f 803 1145 1146
f 1147 803 1146
f 746 1099 1100
f 738 1128 1129
f 737 1129 1130
f 737 1130 1131
f 740 1131 1132
f 740 1132 1133
f 742 1133 1134
f 742 1134 1136
f 745 1097 1098
f 744 1098 1099
f 802 1140 1141
f 747 1100 1101
f 748 1101 1102
f 749 1102 1103
f 749 1103 1104
f 750 1104 1105
f 753 1105 1106
f 753 1106 1107
f 754 1107 1108
f 755 1108 1109
f 1187 788 1188
f 1173 780 1174
f 1179 784 1185
f 1175 1174 780
f 1177 1176 782
f 1175 782 1176
f 1178 1177 782
f 1178 783 1179
f 1185 787 1186
f 1187 1186 787
f 1173 1172 778
f 1191 1190 785
f 1189 1188 788
f 1189 785 1190
f 1193 1192 790
f 1191 790 1192
f 1193 792 1183
f 1159 1156 766
f 810 1153 1157
f 809 1154 1153
f 1168 796 1167
f 800 1141 1143
f 801 1143 1142
f 806 1142 1144
f 1145 806 1144
f 805 1147 1148
f 1164 805 1148
f 1165 1166 804
f 1165 804 1164
f 1167 804 1166
f 736 1127 1128
f 1202 1135 726
f 1182 1181 793
f 1183 793 1181
f 1180 794 1199
f 794 1180 1184
f 1184 1182 793
f 1170 1169 776
f 1171 1170 777
f 1171 778 1172
f 1075 1073 1079
f 1072 1074 1073
f 1074 1069 1092
f 1070 1090 1071
f 1090 1076 1071
f 1076 1072 1075
f 1076 1077 1078
f 1076 1079 1077
f 1078 1071 1076
f 1075 1079 1076
f 1072 1069 1074
f 1075 1072 1073
f 1070 1071 1096
f 1066 1065 1085
f 1067 1066 1081
f 1086 1068 1084
f 1068 1067 1083
f 1065 1063 1080
f 1095 1086 1084
f 1085 1065 1080
f 1065 668 1063
f 972 956 958
f 1384 957 958
f 725 668 1065
f 1096 666 719
f 371 703 1064
f 721 1089 1064
f 721 1066 1068
f 725 1065 1066
f 1089 721 1068
f 1081 1066 1082
f 1063 669 1096
f 1090 371 1064
f 1068 1066 1067
f 1090 1064 1089
f 1090 1070 383
f 1096 382 1070
f 1069 1072 1090
f 1090 1072 1076
f 1069 1090 1092
f 1083 1081 1096
f 1096 1074 1092
f 1096 1073 1074
f 1096 1092 1093
f 1096 1093 1091
f 1091 1094 1096
f 1096 1094 1095
f 1096 1095 1084
f 1096 1084 1083
f 1082 1096 1081
f 1096 1078 1077
f 1096 1082 1085
f 728 1119 1120
f 729 1120 1121
f 731 1121 1122
f 731 1122 1123
f 732 1123 1124
f 733 1124 1125
f 733 1125 1126
f 736 1126 1127
f 1088 1091 1089
f 1085 1082 1066
f 1081 1083 1067
f 1084 1068 1083
f 1080 1063 1096
f 1096 1085 1080
f 1086 1087 1068
f 1089 1068 1087
f 1089 1087 1088
f 1086 1095 1087
f 1158 767 1157
f 1087 1094 1088
f 1089 1093 1090
f 1094 1087 1095
f 1093 1089 1091
f 1092 1090 1093
f 1091 1088 1094
f 1077 1079 1096
f 1079 1073 1096
f 1096 1071 1078
f 1323 1322 817
f 1288 864 1289
f 1282 1281 857
f 1290 1289 864
f 1290 866 1291
f 1291 812 1292
f 1292 813 1293
f 1294 1293 813
f 1295 1294 813
f 1296 1295 815
f 1322 1298 817
f 1287 863 1288
f 1298 1297 815
f 1297 1296 815
f 1324 1323 818
f 1325 1324 931
f 1327 1326 921
f 1326 1325 931
f 1329 1328 922
f 1328 1327 922
f 1330 1329 922
f 906 1277 1278
f 900 1253 1254
f 1255 900 1254
f 902 1255 1256
f 1257 902 1256
f 1258 903 1257
f 913 1272 1273
f 915 1273 1274
f 915 1274 1275
f 905 1275 1276
f 1332 1331 923
f 905 1276 1277
f 1299 909 1278
f 1280 1279 856
f 1281 1280 857
f 1283 1282 854
f 1285 1284 855
f 1284 1283 854
f 1287 1286 865
f 1285 865 1286
f 936 1350 1349
f 918 1313 1314
f 918 1314 1317
f 912 1302 1303
f 1344 1343 932
f 1345 1344 935
f 1346 1345 935
f 1347 1346 935
f 1349 1348 936
f 934 1348 1347
f 917 1312 1313
f 937 1351 1350
f 937 1352 1351
f 938 1353 1352
f 939 1354 1353
f 939 1356 1355
f 1354 939 1355
f 947 1358 1357
f 947 1357 1356
f 949 1359 1358
f 1341 1340 927
f 1331 1330 923
f 1333 1332 925
f 1335 1334 929
f 1334 1333 929
f 1336 1335 929
f 1338 1337 930
f 1337 1336 930
f 1339 1338 926
f 1340 1339 927
f 1253 897 1252
f 1343 1342 928
f 1342 1341 928
f 909 1299 1300
f 911 1300 1301
f 911 1301 1302
f 907 1303 1309
f 907 1309 1310
f 1311 908 1310
f 908 1311 1312
f 839 1226 1225
f 830 1219 1218
f 831 1221 1219
f 832 1220 1221
f 834 1228 1222
f 833 1222 1220
f 840 1223 1228
f 835 1224 1223
f 836 1225 1224
f 837 1229 1227
f 829 1218 1217
f 838 1227 1226
f 842 1207 1208
f 843 1208 1206
f 1206 1209 844
f 845 1209 1210
f 846 1210 1211
f 847 1211 1212
f 848 1212 1213
f 849 1214 1215
f 1198 773 1196
f 767 1158 1159
f 766 1156 1155
f 765 1155 1162
f 765 1162 1161
f 1160 775 1161
f 775 1160 1163
f 771 1197 1194
f 770 1163 1195
f 770 1195 1196
f 850 1213 1214
f 773 1198 1197
f 768 1201 1199
f 768 1194 1200
f 1201 768 1200
f 795 1203 1202
f 811 1205 1204
f 957 1384 1205
f 828 1216 1207
f 841 1217 1216
f 1243 884 1242
f 879 1271 1272
f 880 1269 1270
f 887 1236 1237
f 888 1237 1238
f 889 1238 1239
f 1240 889 1239
f 1245 890 1240
f 882 1215 1241
f 1242 883 1241
f 879 1270 1271
f 1244 885 1243
f 1236 886 1244
f 1246 892 1245
f 1247 892 1246
f 894 1247 1248
f 1249 894 1248
f 1250 895 1249
f 1251 896 1250
f 1251 1252 897
f 870 1259 1260
f 1204 1321 811
f 861 1231 1230
f 860 1232 1231
f 862 1230 1229
f 852 1233 1232
f 851 1234 1233
f 853 1235 1234
f 856 1279 1235
f 868 1258 1259
f 649 674 673
f 870 1260 1261
f 872 1262 1263
f 1262 872 1261
f 874 1263 1264
f 877 1265 1266
f 874 1264 1265
f 876 1267 1268
f 1267 876 1266
f 878 1268 1269
f 346 428 344
f 450 324 325
f 323 324 447
f 357 323 446
f 356 357 445
f 355 356 444
f 442 353 355
f 351 353 442
f 352 351 440
f 350 352 439
f 347 354 435
f 349 348 432
f 348 347 434
f 349 430 345
f 452 325 326
f 344 427 311
f 346 345 429
f 322 321 413
f 318 320 411
f 320 319 412
f 321 318 410
f 743 316 409
f 317 408 316
f 317 315 407
f 315 314 406
f 314 313 405
f 322 404 313
f 312 297 401
f 337 340 469
f 368 290 370
f 366 294 367
f 288 126 382
f 361 360 362
f 361 359 360
f 361 358 359
f 365 163 361
f 343 295 456
f 339 341 474
f 476 342 776
f 341 342 476
f 338 339 472
f 338 471 340
f 312 403 319
f 468 336 337
f 335 336 468
f 334 335 466
f 463 333 334
f 327 333 463
f 332 327 462
f 331 332 460
f 458 329 331
f 457 328 329
f 330 328 454
f 354 350 437
f 452 326 330
f 333 328 337
f 349 346 344
f 345 346 349
f 344 307 354
f 342 338 779
f 337 338 340
f 338 342 341
f 338 341 339
f 335 337 336
f 334 337 335
f 333 337 334
f 779 352 783
f 338 352 779
f 337 328 338
f 348 354 347
f 328 333 332
f 328 352 338
f 166 103 104
f 104 105 167
f 107 115 106
f 106 109 110
f 109 106 117
f 115 107 108
f 106 110 111
f 105 361 163
f 107 106 358
f 92 113 112
f 92 90 489
f 305 419 296
f 306 308 423
f 307 306 422
f 307 421 299
f 310 311 426
f 309 424 308
f 310 425 309
f 304 303 414
f 305 304 420
f 302 299 418
f 300 301 416
f 302 417 301
f 303 300 415
f 297 298 402
f 367 294 368
f 296 400 298
f 328 323 352
f 355 323 356
f 323 357 356
f 355 352 323
f 352 307 767
f 351 355 353
f 352 355 351
f 354 352 350
f 354 307 352
f 349 344 354
f 354 348 349
f 415 300 416
f 406 314 405
f 405 313 404
f 403 312 401
f 412 319 403
f 425 310 426
f 424 309 425
f 423 308 424
f 422 306 423
f 421 307 422
f 420 304 414
f 419 305 420
f 418 299 421
f 417 302 418
f 407 315 406
f 416 301 417
f 414 303 415
f 401 297 402
f 400 296 419
f 402 298 400
f 1135 399 295
f 398 383 1070
f 398 1070 382
f 398 397 395
f 397 396 395
f 396 393 395
f 396 394 393
f 394 392 393
f 431 430 349
f 444 443 355
f 443 442 355
f 442 441 351
f 441 440 351
f 440 439 352
f 439 438 350
f 437 436 354
f 436 435 354
f 435 434 347
f 433 432 348
f 434 433 348
f 432 431 349
f 438 437 350
f 392 390 393
f 430 429 345
f 429 428 346
f 427 344 428
f 426 311 427
f 456 295 399
f 413 321 410
f 413 404 322
f 411 320 412
f 411 410 318
f 408 317 407
f 743 409 1097
f 409 316 408
f 373 367 374
f 382 373 374
f 387 381 383
f 384 378 385
f 380 381 387
f 385 379 380
f 378 379 385
f 379 381 380
f 379 370 381
f 378 370 379
f 377 378 384
f 376 370 377
f 375 369 376
f 374 368 375
f 382 374 375
f 373 372 367
f 372 366 367
f 370 378 377
f 369 370 376
f 368 369 375
f 367 368 374
f 368 370 369
f 364 363 365
f 365 361 364
f 361 362 364
f 382 1096 288
f 381 290 371
f 370 290 381
f 392 394 382
f 390 395 393
f 395 383 398
f 392 391 389
f 391 388 389
f 389 390 392
f 383 395 390
f 383 389 388
f 389 383 390
f 383 371 1090
f 371 383 381
f 382 397 398
f 396 397 382
f 394 396 382
f 113 92 478
f 382 391 392
f 382 388 391
f 388 382 387
f 382 386 387
f 387 383 388
f 387 386 380
f 386 385 380
f 382 385 386
f 382 384 385
f 382 377 384
f 382 376 377
f 382 375 376
f 267 163 288
f 148 147 290
f 149 148 291
f 150 149 292
f 151 150 293
f 162 151 294
f 162 366 126
f 366 162 294
f 126 366 372
f 126 372 373
f 126 373 382
f 104 167 166
f 105 267 167
f 267 105 163
f 289 147 146
f 288 163 268
f 166 971 103
f 284 285 271
f 285 269 270
f 270 271 285
f 271 272 273
f 271 273 701
f 701 273 274
f 287 286 277
f 275 287 277
f 277 276 275
f 277 286 290
f 279 278 284
f 116 121 158
f 285 135 130
f 269 131 132
f 269 130 131
f 271 133 134
f 270 132 133
f 134 136 271
f 271 136 137
f 146 277 289
f 147 289 290
f 148 290 291
f 291 292 149
f 150 292 293
f 151 293 294
f 279 280 278
f 115 159 160
f 115 160 161
f 159 116 158
f 158 121 125
f 158 125 365
f 159 158 365
f 160 159 365
f 360 111 362
f 362 119 364
f 363 115 161
f 161 160 365
f 363 161 365
f 297 312 321
f 303 304 300
f 296 304 305
f 307 310 309
f 326 328 330
f 328 332 331
f 328 331 329
f 327 332 333
f 324 326 325
f 326 323 328
f 323 326 324
f 743 297 321
f 321 312 320
f 319 320 312
f 304 297 307
f 321 320 318
f 743 317 316
f 743 315 317
f 297 743 744
f 322 315 743
f 313 314 322
f 321 322 743
f 314 315 322
f 307 297 767
f 311 310 344
f 310 307 344
f 308 306 309
f 306 307 309
f 290 271 371
f 284 271 286
f 281 279 286
f 286 282 281
f 284 286 279
f 283 279 281
f 290 286 271
f 365 268 163
f 289 277 290
f 291 290 292
f 292 290 294
f 293 292 294
f 271 703 371
f 294 290 368
f 287 143 157
f 267 288 295
f 265 971 166
f 295 343 267
f 267 972 265
f 343 795 267
f 295 288 726
f 297 304 296
f 298 297 296
f 304 307 300
f 301 300 299
f 301 299 302
f 299 300 307
f 106 111 359
f 138 272 271
f 139 273 272
f 140 274 273
f 152 283 281
f 153 281 282
f 156 282 286
f 157 286 287
f 155 279 283
f 105 125 120
f 120 125 121
f 108 107 122
f 361 105 120
f 116 108 121
f 133 271 270
f 358 106 359
f 122 107 123
f 123 107 124
f 121 108 122
f 120 121 122
f 120 122 123
f 120 123 124
f 124 107 358
f 359 111 360
f 124 358 120
f 361 120 358
f 126 113 127
f 137 138 271
f 111 118 119
f 105 112 125
f 113 477 127
f 113 268 112
f 106 114 117
f 114 106 115
f 971 90 103
f 117 114 118
f 268 113 288
f 115 108 116
f 110 109 117
f 118 114 119
f 110 117 118
f 111 110 118
f 272 138 139
f 112 268 365
f 114 115 363
f 288 113 126
f 143 287 275
f 144 275 276
f 145 276 277
f 135 284 278
f 154 280 279
f 128 278 280
f 135 285 284
f 130 269 285
f 132 270 269
f 119 362 111
f 156 126 153
f 126 143 144
f 126 144 145
f 146 126 145
f 126 146 147
f 126 147 148
f 126 148 149
f 150 126 149
f 126 150 151
f 126 151 162
f 115 116 159
f 125 112 365
f 119 114 364
f 143 126 157
f 364 114 363
f 275 144 143
f 146 145 277
f 276 145 144
f 278 128 129
f 278 129 135
f 279 155 154
f 280 154 128
f 283 152 155
f 282 156 153
f 286 157 156
f 281 153 152
f 139 127 140
f 273 139 141
f 273 141 140
f 274 140 142
f 152 126 155
f 126 152 153
f 126 127 132
f 126 129 128
f 130 126 131
f 129 126 135
f 135 126 130
f 155 126 154
f 154 126 128
f 131 126 132
f 445 444 356
f 142 140 127
f 142 127 596
f 596 127 597
f 597 127 600
f 132 127 133
f 133 127 134
f 134 127 136
f 136 127 137
f 137 127 139
f 138 137 139
f 141 139 140
f 157 126 156
f 636 637 635
f 713 712 620
f 714 713 621
f 715 714 622
f 716 715 623
f 717 716 624
f 718 717 625
f 722 721 657
f 675 484 478
f 478 490 486
f 490 594 486
f 488 481 487
f 92 112 105
f 104 92 105
f 594 490 590
f 712 711 619
f 487 483 593
f 682 478 486
f 488 487 595
f 593 595 487
f 682 486 594
f 960 590 589
f 960 594 590
f 595 485 488
f 594 484 700
f 614 127 477
f 615 614 477
f 616 615 477
f 617 616 477
f 274 142 596
f 589 90 959
f 478 92 490
f 477 113 478
f 489 90 589
f 490 92 489
f 479 481 480
f 482 479 480
f 481 479 487
f 487 479 483
f 482 480 481
f 482 481 488
f 485 479 482
f 485 482 488
f 651 483 479
f 478 719 477
f 597 274 596
f 719 478 484
f 477 719 617
f 701 274 597
f 702 701 600
f 703 702 601
f 704 703 603
f 705 704 606
f 706 705 609
f 707 706 610
f 708 707 611
f 709 708 612
f 710 709 613
f 711 710 618
f 636 617 639
f 618 617 619
f 614 615 608
f 617 608 615
f 617 615 616
f 619 617 620
f 617 621 620
f 621 617 622
f 622 617 623
f 623 617 624
f 624 617 625
f 625 617 631
f 632 631 617
f 632 617 635
f 635 617 636
f 618 613 617
f 639 617 640
f 643 640 617
f 629 641 617
f 641 642 617
f 643 617 642
f 626 656 627
f 626 627 628
f 638 629 626
f 656 626 630
f 630 626 629
f 638 634 637
f 638 637 636
f 633 632 635
f 600 599 597
f 701 597 598
f 701 598 599
f 599 600 701
f 600 601 702
f 601 602 703
f 483 645 593
f 644 652 478
f 478 682 644
f 479 485 651
f 647 649 478
f 647 478 652
f 673 478 649
f 600 127 614
f 597 599 598
f 446 445 357
f 601 600 602
f 604 605 603
f 602 600 614
f 602 614 603
f 604 614 606
f 604 603 614
f 606 614 608
f 607 617 609
f 617 607 608
f 609 617 610
f 610 617 611
f 611 617 612
f 613 612 617
f 1169 476 776
f 428 429 399
f 399 427 428
f 427 399 426
f 425 426 399
f 424 425 399
f 422 423 399
f 421 422 399
f 421 399 418
f 417 418 399
f 423 424 399
f 416 417 399
f 415 416 399
f 414 415 399
f 1203 343 456
f 399 429 430
f 474 341 475
f 476 475 341
f 474 473 339
f 472 339 473
f 471 338 472
f 471 470 340
f 469 340 470
f 468 337 469
f 466 465 334
f 465 464 334
f 468 467 335
f 466 335 467
f 463 334 464
f 462 327 463
f 406 399 407
f 456 438 439
f 456 436 437
f 437 438 456
f 399 436 456
f 399 435 436
f 399 434 435
f 399 433 434
f 399 432 433
f 399 431 432
f 399 430 431
f 1097 399 1098
f 414 399 420
f 408 399 409
f 399 1097 409
f 456 1173 1174
f 407 399 408
f 413 399 404
f 399 406 405
f 404 399 405
f 403 401 399
f 403 399 412
f 399 402 400
f 419 399 400
f 419 420 399
f 401 402 399
f 399 410 411
f 399 413 410
f 411 412 399
f 456 468 469
f 456 453 454
f 456 454 455
f 456 455 457
f 456 457 458
f 456 459 460
f 459 456 458
f 456 460 461
f 456 461 462
f 456 462 463
f 456 463 464
f 456 464 465
f 456 467 468
f 456 465 466
f 467 456 466
f 460 332 461
f 456 469 470
f 456 470 471
f 472 456 471
f 456 472 473
f 456 473 474
f 456 474 475
f 456 476 1169
f 476 456 475
f 456 1169 1170
f 1171 456 1170
f 456 1171 1172
f 456 1172 1173
f 462 461 332
f 456 450 451
f 456 452 453
f 460 459 331
f 459 458 331
f 458 457 329
f 457 455 328
f 454 453 330
f 453 452 330
f 455 454 328
f 451 450 325
f 452 451 325
f 450 449 324
f 449 448 324
f 448 447 324
f 447 446 323
f 456 439 440
f 1175 456 1174
f 451 452 456
f 456 449 450
f 456 448 449
f 456 447 448
f 456 446 447
f 456 445 446
f 456 444 445
f 456 443 444
f 456 442 443
f 456 441 442
f 456 440 441
f 17 18 39
f 16 17 38
f 11 16 37
f 15 11 32
f 12 15 36
f 20 13 34
f 13 14 35
f 14 12 33
f 101 1 102
f 55 101 56
f 54 101 55
f 53 101 54
f 19 101 53
f 18 101 19
f 17 101 18
f 16 101 17
f 27 26 47
f 33 12 36
f 35 14 33
f 32 11 37
f 63 31 52
f 31 30 51
f 30 29 50
f 29 28 49
f 28 27 48
f 18 19 40
f 26 25 46
f 25 24 45
f 24 23 44
f 23 22 43
f 22 21 42
f 21 20 41
f 19 53 64
f 21 22 1
f 2 75 76
f 6 5 2
f 4 2 3
f 5 3 2
f 80 75 2
f 2 4 80
f 102 1 2
f 23 1 22
f 2 92 6
f 12 14 1
f 20 21 1
f 90 2 1
f 90 1 23
f 15 1 11
f 12 1 15
f 13 1 14
f 11 101 16
f 35 5 34
f 41 34 6
f 42 41 7
f 43 42 7
f 44 43 8
f 45 44 10
f 35 4 3
f 5 35 3
f 6 34 5
f 7 41 6
f 8 43 7
f 44 8 9
f 10 44 9
f 91 45 10
f 11 1 101
f 92 94 93
f 31 90 30
f 2 90 92
f 6 92 7
f 7 92 8
f 8 92 9
f 9 92 10
f 10 92 91
f 92 93 91
f 30 90 29
f 92 95 94
f 92 96 95
f 92 97 96
f 103 90 31
f 56 103 57
f 57 103 58
f 58 103 59
f 59 103 60
f 87 71 88
f 79 40 81
f 81 65 82
f 82 66 83
f 83 67 84
f 84 67 85
f 89 73 99
f 85 68 86
f 86 70 87
f 103 31 63
f 88 71 89
f 90 23 24
f 90 24 25
f 26 90 25
f 27 90 26
f 28 90 27
f 29 90 28
f 102 85 86
f 99 74 100
f 97 104 98
f 98 104 100
f 101 103 56
f 102 81 82
f 102 82 83
f 102 83 84
f 102 84 85
f 100 52 98
f 102 86 87
f 104 102 87
f 104 101 102
f 103 101 104
f 104 88 89
f 100 104 99
f 104 89 99
f 104 87 88
f 93 46 91
f 103 63 61
f 60 103 62
f 62 103 61
f 48 47 93
f 49 48 95
f 50 49 96
f 51 50 96
f 52 51 97
f 73 72 99
f 48 93 94
f 95 48 94
f 96 49 95
f 97 51 96
f 52 97 98
f 97 92 104
f 74 52 100
f 62 73 60
f 74 63 52
f 53 54 65
f 54 55 66
f 55 56 67
f 56 57 68
f 57 58 69
f 58 59 70
f 59 60 71
f 52 31 51
f 62 61 72
f 61 63 74
f 64 53 65
f 65 54 66
f 66 55 67
f 67 56 68
f 68 57 69
f 69 58 70
f 44 23 43
f 36 15 32
f 37 16 38
f 38 17 39
f 39 18 40
f 40 19 64
f 41 20 34
f 42 21 41
f 43 22 42
f 70 59 71
f 45 24 44
f 46 25 45
f 47 26 46
f 48 27 47
f 49 28 48
f 50 29 49
f 51 30 50
f 66 82 65
f 80 32 75
f 4 36 80
f 75 32 76
f 76 37 77
f 77 39 78
f 78 40 79
f 40 64 81
f 81 64 65
f 47 46 93
f 67 83 66
f 67 68 85
f 68 69 86
f 86 69 70
f 71 87 70
f 74 99 72
f 71 73 89
f 36 4 33
f 71 60 73
f 73 62 72
f 72 61 74
f 102 2 76
f 102 76 77
f 102 77 78
f 102 78 79
f 102 79 81
f 34 13 35
f 36 32 80
f 32 37 76
f 35 33 4
f 37 38 77
f 77 38 39
f 40 78 39
f 46 45 91
f 13 20 1
f 542 521 563
f 531 510 532
f 533 512 534
f 534 513 539
f 536 515 535
f 537 516 536
f 538 517 537
f 539 518 540
f 540 519 541
f 541 520 542
f 535 514 531
f 543 522 538
f 544 523 543
f 545 524 544
f 546 525 545
f 547 526 546
f 572 561 551
f 548 527 547
f 549 528 548
f 550 529 549
f 523 522 543
f 513 534 512
f 515 514 535
f 516 515 536
f 517 516 537
f 522 517 538
f 513 518 539
f 518 519 540
f 519 520 541
f 520 521 542
f 521 552 563
f 552 553 564
f 524 523 544
f 525 524 545
f 526 525 546
f 527 526 547
f 561 530 551
f 528 527 548
f 529 528 549
f 530 529 550
f 532 511 533
f 491 532 533
f 573 562 570
f 571 560 572
f 570 559 571
f 530 591 500
f 559 562 591
f 591 562 558
f 559 591 560
f 591 530 561
f 591 561 560
f 531 532 491
f 569 558 573
f 545 544 508
f 546 545 574
f 547 546 574
f 548 547 585
f 549 548 586
f 550 549 586
f 551 550 587
f 574 545 508
f 547 574 584
f 558 562 573
f 510 511 532
f 553 554 565
f 554 555 566
f 555 556 567
f 556 557 568
f 557 558 569
f 562 559 570
f 560 561 572
f 559 560 571
f 551 530 550
f 555 591 556
f 556 591 557
f 557 591 558
f 563 552 564
f 564 553 565
f 565 554 566
f 566 555 567
f 567 556 568
f 568 557 569
f 491 533 493
f 521 589 552
f 552 589 553
f 589 554 553
f 589 555 554
f 534 493 533
f 534 539 492
f 539 540 495
f 495 540 541
f 542 496 541
f 590 490 492
f 520 589 521
f 493 534 494
f 494 534 492
f 492 539 495
f 495 541 496
f 496 542 497
f 542 563 498
f 590 492 495
f 590 495 496
f 590 496 497
f 494 490 493
f 514 489 510
f 489 500 490
f 510 489 511
f 515 489 514
f 516 489 515
f 517 489 516
f 522 489 517
f 489 512 511
f 489 513 512
f 590 497 498
f 492 490 494
f 490 501 491
f 490 502 501
f 490 503 502
f 493 490 491
f 513 489 589
f 513 589 518
f 518 589 519
f 519 589 520
f 506 505 509
f 502 531 501
f 501 531 491
f 503 535 502
f 504 536 503
f 505 538 504
f 504 503 509
f 505 504 509
f 543 505 506
f 507 543 506
f 508 544 507
f 544 543 507
f 507 506 509
f 508 507 509
f 574 508 509
f 584 574 509
f 585 584 509
f 586 585 509
f 587 586 509
f 514 510 531
f 580 579 592
f 528 529 500
f 497 542 498
f 498 564 499
f 500 489 522
f 522 523 500
f 523 524 500
f 500 524 525
f 500 525 526
f 500 526 527
f 527 528 500
f 511 512 533
f 529 530 500
f 500 591 509
f 490 500 509
f 490 509 503
f 535 531 502
f 536 535 503
f 537 536 504
f 538 537 504
f 543 538 505
f 573 582 569
f 579 551 588
f 578 569 582
f 577 567 578
f 576 566 577
f 575 566 576
f 499 565 575
f 580 571 572
f 572 551 579
f 570 571 580
f 573 570 583
f 582 581 592
f 578 568 569
f 567 568 578
f 566 567 577
f 566 575 565
f 565 499 564
f 498 563 564
f 551 587 588
f 587 550 586
f 586 548 585
f 585 547 584
f 583 570 580
f 580 572 579
f 583 580 592
f 581 583 592
f 592 590 582
f 589 592 591
f 589 591 555
f 592 589 590
f 582 590 578
f 578 590 577
f 577 590 576
f 575 590 499
f 576 590 575
f 582 573 581
f 581 573 583
f 587 509 592
f 509 591 592
f 588 587 592
f 579 588 592
f 590 498 499
f 219 250 218
f 219 224 252
f 224 225 253
f 253 225 226
f 227 254 226
f 227 231 256
f 249 218 250
f 250 219 251
f 251 219 252
f 252 253 248
f 253 254 248
f 252 224 253
f 253 226 254
f 254 227 255
f 255 227 256
f 256 231 266
f 267 247 248
f 267 248 254
f 166 175 176
f 166 176 177
f 197 247 198
f 236 215 246
f 231 210 230
f 246 217 249
f 190 247 191
f 191 247 192
f 192 247 193
f 193 247 194
f 194 247 195
f 195 247 196
f 196 247 197
f 251 252 248
f 247 164 248
f 247 265 198
f 248 233 234
f 248 234 235
f 248 235 236
f 248 236 246
f 248 246 249
f 249 250 248
f 250 251 248
f 205 265 206
f 264 223 261
f 228 264 262
f 263 228 262
f 266 229 263
f 264 167 267
f 265 207 208
f 265 208 209
f 198 265 203
f 203 265 204
f 204 265 205
f 261 221 260
f 210 265 209
f 206 265 210
f 265 247 267
f 263 267 266
f 267 254 255
f 267 255 256
f 267 256 266
f 264 267 262
f 262 267 263
f 167 259 258
f 199 166 178
f 200 166 199
f 201 166 200
f 202 166 201
f 207 166 202
f 207 265 166
f 220 189 258
f 258 188 257
f 220 258 259
f 178 166 177
f 167 260 259
f 167 261 260
f 167 264 261
f 221 220 260
f 222 221 261
f 223 222 261
f 228 223 264
f 229 228 263
f 260 220 259
f 185 174 184
f 200 199 220
f 199 178 189
f 197 198 219
f 196 197 218
f 195 196 217
f 194 195 216
f 193 194 215
f 190 211 169
f 192 193 214
f 191 192 213
f 190 191 212
f 189 178 188
f 188 177 187
f 187 176 186
f 186 175 185
f 201 200 221
f 184 173 183
f 183 172 179
f 179 168 182
f 181 170 180
f 182 171 181
f 178 177 188
f 177 176 187
f 176 175 186
f 175 174 185
f 174 173 184
f 173 172 183
f 168 171 182
f 170 169 180
f 171 170 181
f 180 169 211
f 227 206 231
f 229 208 228
f 228 207 223
f 226 205 227
f 225 204 226
f 224 203 225
f 223 202 222
f 222 201 221
f 221 200 220
f 220 199 189
f 219 198 224
f 218 197 219
f 217 196 218
f 216 195 217
f 215 194 216
f 234 214 235
f 214 193 215
f 213 192 214
f 212 191 213
f 211 190 212
f 210 231 206
f 210 209 230
f 209 208 229
f 208 207 228
f 205 206 227
f 204 205 226
f 203 204 225
f 198 203 224
f 207 202 223
f 202 201 222
f 186 243 244
f 182 239 179
f 183 179 238
f 184 183 242
f 185 184 242
f 186 185 243
f 187 186 245
f 188 187 257
f 189 188 258
f 238 179 239
f 240 237 182
f 240 180 241
f 241 211 232
f 239 182 237
f 242 183 238
f 243 185 242
f 175 164 174
f 245 186 244
f 257 187 245
f 211 212 233
f 212 213 234
f 234 213 214
f 215 235 214
f 215 216 246
f 246 216 217
f 218 249 217
f 230 229 266
f 231 230 266
f 232 211 233
f 233 212 234
f 235 215 236
f 211 241 180
f 172 168 179
f 173 174 164
f 172 173 164
f 190 164 247
f 168 164 171
f 168 172 164
f 170 171 164
f 169 164 190
f 169 170 164
f 167 258 257
f 245 167 257
f 244 167 245
f 243 167 244
f 242 167 243
f 238 167 242
f 165 166 167
f 165 167 238
f 237 165 239
f 240 165 237
f 238 239 165
f 165 240 241
f 166 164 175
f 166 165 164
f 230 209 229
f 248 164 165
f 241 232 165
f 165 232 233
f 248 165 233
f 181 180 240
f 182 181 240
f 1017 996 1018
f 994 993 1045
f 1010 1011 961
f 1011 1016 961
f 961 1053 962
f 1016 1053 961
f 986 987 964
f 988 986 1039
f 987 985 964
f 989 988 1040
f 990 989 1041
f 991 990 1041
f 992 991 1042
f 993 992 1044
f 1009 1010 961
f 995 994 1046
f 1029 995 1046
f 1040 988 1039
f 1041 989 1040
f 1042 991 1041
f 986 964 1038
f 1039 986 1038
f 992 1042 1043
f 1044 992 1043
f 1045 993 1044
f 1046 994 1045
f 1029 1046 1048
f 1030 1009 1029
f 1018 997 1019
f 1019 998 1020
f 1020 999 1021
f 1021 1000 1022
f 1022 1001 1023
f 1023 1002 1024
f 1024 1003 1025
f 1025 1004 1026
f 1026 1005 1027
f 1027 1006 1028
f 1028 1007 1035
f 1029 1008 995
f 970 1022 1023
f 1031 1010 1030
f 1032 1011 1031
f 1033 1012 1037
f 1035 1014 1034
f 1036 1015 1033
f 1034 1013 1036
f 1037 1016 1032
f 981 982 961
f 982 983 961
f 961 983 984
f 961 984 1008
f 961 1008 1009
f 1055 1025 1056
f 1053 1012 1015
f 1013 1014 1053
f 1053 1015 1013
f 1053 1014 1007
f 1025 1054 1024
f 1025 1026 1056
f 1026 1027 1057
f 1057 1027 1028
f 1035 1058 1028
f 1035 1034 1061
f 973 1024 1054
f 1054 1025 1055
f 1053 1016 1012
f 1056 1026 1057
f 1057 1028 1058
f 1058 1035 1059
f 1059 1035 1061
f 1061 1034 1060
f 1062 972 1058
f 962 1053 1062
f 1052 1051 1062
f 1062 1058 1059
f 1061 1060 1062
f 1062 1059 1061
f 1047 1052 1062
f 1060 1033 1047
f 1024 973 1023
f 1030 1029 1049
f 1031 1030 1050
f 1032 1031 1050
f 1034 1036 1060
f 1037 1032 1051
f 1037 1047 1033
f 1036 1033 1060
f 1049 1029 1048
f 1050 1030 1049
f 1051 1032 1050
f 1037 1051 1052
f 1060 1047 1062
f 1047 1037 1052
f 1046 962 1048
f 1049 1048 962
f 1050 1049 962
f 1051 1050 962
f 1051 962 1062
f 1004 1053 1005
f 1005 1053 1006
f 1006 1053 1007
f 971 1053 1004
f 971 1062 1053
f 969 1021 970
f 964 985 963
f 963 1017 965
f 1017 1018 966
f 1018 1019 967
f 967 1019 1020
f 1021 968 1020
f 1021 1022 970
f 960 966 972
f 965 1017 966
f 966 1018 967
f 967 1020 968
f 968 1021 969
f 966 960 965
f 970 1023 973
f 996 971 997
f 997 971 998
f 998 971 999
f 999 971 1000
f 1000 971 1001
f 1001 971 1002
f 971 1003 1002
f 971 1004 1003
f 972 966 967
f 972 967 968
f 972 968 969
f 1045 962 1046
f 960 1040 1039
f 960 1038 964
f 963 960 964
f 960 1039 1038
f 961 959 981
f 960 961 962
f 960 962 1040
f 1040 962 1041
f 1041 962 1042
f 1042 962 1043
f 1043 962 1044
f 1044 962 1045
f 972 969 970
f 975 959 976
f 977 959 975
f 959 974 976
f 959 996 974
f 978 959 977
f 979 959 978
f 980 959 979
f 981 959 980
f 996 959 971
f 1017 963 985
f 965 960 963
f 1005 1006 1027
f 994 983 993
f 995 984 994
f 996 1017 974
f 996 997 1018
f 997 998 1019
f 998 999 1020
f 999 1000 1021
f 1000 1001 1022
f 1001 1002 1023
f 1002 1003 1024
f 1003 1004 1025
f 1004 1005 1026
f 993 982 992
f 1006 1007 1028
f 1008 984 995
f 1009 1008 1029
f 1010 1009 1030
f 1011 1010 1031
f 1016 1011 1032
f 1012 1016 1037
f 1015 1012 1033
f 1007 1014 1035
f 1014 1013 1034
f 1013 1015 1036
f 985 974 1017
f 980 979 990
f 972 970 973
f 1054 972 973
f 1055 972 1054
f 1056 972 1055
f 1057 972 1056
f 1058 972 1057
f 1062 971 972
f 976 974 985
f 975 976 987
f 977 975 986
f 978 977 988
f 979 978 989
f 959 961 960
f 981 980 991
f 982 981 992
f 983 982 993
f 984 983 994
f 987 976 985
f 986 975 987
f 988 977 986
f 989 978 988
f 990 979 989
f 991 980 990
f 992 981 991

