# WaveFront *.obj file
# Vertices: 97
# Triangles : 194

v -5.5562501621246341e+00 6.3500002026557922e+00 4.1274999999999995e+00
v -5.5385895202240238e+00 6.2215094903922594e+00 4.1274999999999995e+00
v -5.4869174035398993e+00 6.1025483464514165e+00 4.1274999999999995e+00
v -5.4050660965825177e+00 6.0019395746683353e+00 4.1274999999999995e+00
v -5.2991061363440952e+00 5.9271448673916609e+00 4.1274999999999995e+00
v -5.1768960883409507e+00 5.8837114058970856e+00 4.1274999999999995e+00
v -5.0474997127597092e+00 5.8748604513287974e+00 4.1274999999999995e+00
v -4.9205137468282016e+00 5.9012484384967037e+00 4.1274999999999995e+00
v -4.8053561587174283e+00 5.9609182911095688e+00 4.1274999999999995e+00
v -4.7105676599266539e+00 6.0494445691705092e+00 4.1274999999999995e+00
v -4.6431782797826617e+00 6.1602616836165192e+00 4.1274999999999995e+00
v -4.6081859803248308e+00 6.2851508360237052e+00 4.1274999999999995e+00
v -4.6081859803248308e+00 6.4148495692878793e+00 4.1274999999999995e+00
v -4.6431782797826617e+00 6.5397387216950644e+00 4.1274999999999995e+00
v -4.7105676599266539e+00 6.6505558361410753e+00 4.1274999999999995e+00
v -4.8053561587174283e+00 6.7390821142020156e+00 4.1274999999999995e+00
v -4.9205137468282016e+00 6.7987519668148808e+00 4.1274999999999995e+00
v -5.0474997127597092e+00 6.8251399539827871e+00 4.1274999999999995e+00
v -5.1768960883409507e+00 6.8162889994144988e+00 4.1274999999999995e+00
v -5.2991061363440952e+00 6.7728555379199236e+00 4.1274999999999995e+00
v -5.4050660965825177e+00 6.6980608306432492e+00 4.1274999999999995e+00
v -5.4869174035398993e+00 6.5974520588601679e+00 4.1274999999999995e+00
v -5.5385895202240238e+00 6.4784909149193250e+00 4.1274999999999995e+00
v -5.3975001621246337e+00 6.3500002026557922e+00 4.2862499999999999e+00
v -5.3802971363645851e+00 6.4530922841282790e+00 4.2862499999999999e+00
v -5.3305522738579887e+00 6.5450127389347621e+00 4.2862499999999999e+00
v -5.2536562023285045e+00 6.6158005595041454e+00 4.2862499999999999e+00
v -5.1579418042918377e+00 6.6577847870915292e+00 4.2862499999999999e+00
v -5.0537812199371679e+00 6.6664157791854102e+00 4.2862499999999999e+00
v -4.9524618647973160e+00 6.6407582338687732e+00 4.2862499999999999e+00
v -4.8649632631334612e+00 6.5835925442945111e+00 4.2862499999999999e+00
v -4.8007672461165738e+00 6.5011134999450633e+00 4.2862499999999999e+00
v -4.7668304482942698e+00 6.4022589850699250e+00 4.2862499999999999e+00
v -4.7668304482942698e+00 6.2977414202416595e+00 4.2862499999999999e+00
v -4.8007672461165738e+00 6.1988869053665212e+00 4.2862499999999999e+00
v -4.8649632631334612e+00 6.1164078610170733e+00 4.2862499999999999e+00
v -4.9524618647973160e+00 6.0592421714428113e+00 4.2862499999999999e+00
v -5.0537812199371679e+00 6.0335846261261743e+00 4.2862499999999999e+00
v -5.1579418042918377e+00 6.0422156182200553e+00 4.2862499999999999e+00
v -5.2536562023285045e+00 6.0841998458074391e+00 4.2862499999999999e+00
v -5.3305522738579887e+00 6.1549876663768224e+00 4.2862499999999999e+00
v -5.3802971363645851e+00 6.2469081211833055e+00 4.2862499999999999e+00
v -5.5562501621246341e+00 6.3500002026557922e+00 0.0000000000000000e+00
v -5.5385895202240238e+00 6.2215094903922594e+00 0.0000000000000000e+00
v -5.4869174035398993e+00 6.1025483464514165e+00 0.0000000000000000e+00
v -5.4050660965825177e+00 6.0019395746683353e+00 0.0000000000000000e+00
v -5.2991061363440952e+00 5.9271448673916609e+00 0.0000000000000000e+00
v -5.1768960883409507e+00 5.8837114058970856e+00 0.0000000000000000e+00
v -5.0474997127597092e+00 5.8748604513287974e+00 0.0000000000000000e+00
v -4.9205137468282016e+00 5.9012484384967037e+00 0.0000000000000000e+00
v -4.8053561587174283e+00 5.9609182911095688e+00 0.0000000000000000e+00
v -4.7105676599266539e+00 6.0494445691705092e+00 0.0000000000000000e+00
v -4.6431782797826617e+00 6.1602616836165192e+00 0.0000000000000000e+00
v -4.6081859803248308e+00 6.2851508360237052e+00 0.0000000000000000e+00
v -4.6081859803248308e+00 6.4148495692878793e+00 0.0000000000000000e+00
v -4.6431782797826617e+00 6.5397387216950644e+00 0.0000000000000000e+00
v -4.7105676599266539e+00 6.6505558361410753e+00 0.0000000000000000e+00
v -4.8053561587174283e+00 6.7390821142020156e+00 0.0000000000000000e+00
v -4.9205137468282016e+00 6.7987519668148808e+00 0.0000000000000000e+00
v -5.0474997127597092e+00 6.8251399539827871e+00 0.0000000000000000e+00
v -5.1768960883409507e+00 6.8162889994144988e+00 0.0000000000000000e+00
v -5.2991061363440952e+00 6.7728555379199236e+00 0.0000000000000000e+00
v -5.4050660965825177e+00 6.6980608306432492e+00 0.0000000000000000e+00
v -5.4869174035398993e+00 6.5974520588601679e+00 0.0000000000000000e+00
v -5.5385895202240238e+00 6.4784909149193250e+00 0.0000000000000000e+00
v -4.6038712502551045e+00 6.3392614046813138e+00 3.7302613653161592e+00
v -4.6060983442330201e+00 6.3972118644835358e+00 3.7150164116027891e+00
v -4.6132660164942658e+00 6.4447236427830292e+00 3.6802855710123121e+00
v -4.6208841455677430e+00 6.4765973865828501e+00 3.6301741652317032e+00
v -4.6241115361492202e+00 6.4877667559488543e+00 3.5718750000000021e+00
v -4.6208841455677439e+00 6.4765973865828510e+00 3.5135758347683010e+00
v -4.6132660164942667e+00 6.4447236427830301e+00 3.4634644289876912e+00
v -4.6060983442330201e+00 6.3972118644835350e+00 3.4287335883972143e+00
v -4.6038712502551045e+00 6.3392614046813138e+00 3.4134886346838447e+00
v -4.6096237687309838e+00 6.2754657663883169e+00 3.4223035865674847e+00
v -4.6217146887052083e+00 6.2204335330279408e+00 3.4559598448379747e+00
v -4.6337293382449873e+00 6.1836984939494446e+00 3.5082887649010219e+00
v -4.6388647249242938e+00 6.1705187591969599e+00 3.5718750000000008e+00
v -4.6337293382449865e+00 6.1836984939494446e+00 3.6354612350989828e+00
v -4.6217146887052092e+00 6.2204335330279399e+00 3.6877901551620300e+00
v -4.6096237687309838e+00 6.2754657663883178e+00 3.7214464134325187e+00
v -5.5287790889223922e+00 6.1905902363354510e+00 3.5718750000000021e+00
v -5.5329436463880155e+00 6.2028395332603292e+00 3.5109597298685840e+00
v -5.5427174066512341e+00 6.2372756979414898e+00 3.4597594654265129e+00
v -5.5522748477270394e+00 6.2885943308824057e+00 3.4254380064529264e+00
v -5.5562499565053907e+00 6.3495774914029477e+00 3.4131255957592925e+00
v -5.5523829018531341e+00 6.4105692077864864e+00 3.4251635423602411e+00
v -5.5429246838860839e+00 6.4618704380700018e+00 3.4595109707399581e+00
v -5.5332926495486365e+00 6.4960823142653643e+00 3.5108753465902778e+00
v -5.5292138803981601e+00 6.5081807887429370e+00 3.5718750000000021e+00
v -5.5332926495486365e+00 6.4960823142653643e+00 3.6328746534097265e+00
v -5.5429246838860848e+00 6.4618704380700027e+00 3.6842390292600462e+00
v -5.5523829018531341e+00 6.4105692077864846e+00 3.7185864576397640e+00
v -5.5562499565053916e+00 6.3495774914029495e+00 3.7306244042407113e+00
v -5.5522748477270385e+00 6.2885943308824048e+00 3.7183119935470774e+00
v -5.5427174066512341e+00 6.2372756979414881e+00 3.6839905345734913e+00
v -5.5329436463880155e+00 6.2028395332603283e+00 3.6327902701314199e+00

vn -6.8088534360538433e-01 1.9077512642736669e-01 7.0710678118654757e-01
vn -7.0710678118654746e-01 8.6595605623549316e-17 7.0710678118654746e-01
vn -7.0710678118654757e-01 8.6595605623549316e-17 7.0710678118654757e-01
vn -7.0710678118654757e-01 -8.6595605623549316e-17 7.0710678118654757e-01
vn -7.0710678118654746e-01 -8.6595605623549316e-17 7.0710678118654746e-01
vn -6.8088534360538433e-01 -1.9077512642736669e-01 7.0710678118654757e-01
vn -6.6879378536967482e-01 -2.2959719652230376e-01 7.0710678118654768e-01
vn -6.0416575493219404e-01 -3.6740133446574758e-01 7.0710678118654757e-01
vn -5.5800660550319592e-01 -4.3431397423384938e-01 7.0710678118654768e-01
vn -4.8263795609010263e-01 -5.1677906627607129e-01 7.0710678118654746e-01
vn -3.8675075156585997e-01 -5.9196609376149445e-01 7.0710678118654757e-01
vn -3.2531510796654284e-01 -6.2782965884761821e-01 7.0710678118654757e-01
vn -1.7358445264014274e-01 -6.8546950172974297e-01 7.0710678118654757e-01
vn -1.4386512650269609e-01 -6.9231699775201472e-01 7.0710678118654757e-01
vn 5.8392415169433637e-02 -7.0469165303037362e-01 7.0710678118654746e-01
vn 4.8254673254694347e-02 -7.0545835207266683e-01 7.0710678118654757e-01
vn 2.3679564464722519e-01 -6.6627908767730737e-01 7.0710678118654746e-01
vn 2.8404155874372428e-01 -6.4754952930755449e-01 7.0710678118654746e-01
vn 4.0777456634426473e-01 -5.7768495137293197e-01 7.0710678118654746e-01
vn 4.7891039206924413e-01 -5.2023536631805689e-01 7.0710678118654746e-01
vn 5.4851071390006423e-01 -4.4624656495803067e-01 7.0710678118654757e-01
vn 6.2188185335367863e-01 -3.3654562910457425e-01 7.0710678118654768e-01
vn 6.4856633107544448e-01 -2.8171211226238901e-01 7.0710678118654768e-01
vn 6.9746276633606674e-01 -1.1638595093412786e-01 7.0710678118654757e-01
vn 7.0052075046849949e-01 -9.6284360947404404e-02 7.0710678118654768e-01
vn 7.0052075046849949e-01 9.6284360947404404e-02 7.0710678118654768e-01
vn 6.9746276633606674e-01 1.1638595093412786e-01 7.0710678118654757e-01
vn 6.4856633107544504e-01 2.8171211226238790e-01 7.0710678118654757e-01
vn 6.2188185335367863e-01 3.3654562910457425e-01 7.0710678118654768e-01
vn 5.4851071390006423e-01 4.4624656495803067e-01 7.0710678118654757e-01
vn 4.7891039206924413e-01 5.2023536631805689e-01 7.0710678118654746e-01
vn 4.0777456634426473e-01 5.7768495137293197e-01 7.0710678118654746e-01
vn 2.8404155874372428e-01 6.4754952930755449e-01 7.0710678118654746e-01
vn 2.3679564464722519e-01 6.6627908767730737e-01 7.0710678118654746e-01
vn 5.8392415169433637e-02 7.0469165303037362e-01 7.0710678118654746e-01
vn 4.8254673254694347e-02 7.0545835207266683e-01 7.0710678118654757e-01
vn -1.4386512650269609e-01 6.9231699775201472e-01 7.0710678118654757e-01
vn -1.7358445264014274e-01 6.8546950172974297e-01 7.0710678118654757e-01
vn -3.2531510796654284e-01 6.2782965884761821e-01 7.0710678118654757e-01
vn -3.8675075156585997e-01 5.9196609376149445e-01 7.0710678118654757e-01
vn -4.8263795609010263e-01 5.1677906627607129e-01 7.0710678118654746e-01
vn -5.5800660550319592e-01 4.3431397423384938e-01 7.0710678118654768e-01
vn -6.0416575493219404e-01 3.6740133446574758e-01 7.0710678118654757e-01
vn -6.6879378536967482e-01 2.2959719652230376e-01 7.0710678118654768e-01
vn -9.6291728734779947e-01 -2.6979677115702383e-01 0.0000000000000000e+00
vn -9.9165288916825567e-01 -1.2893621447929690e-01 0.0000000000000000e+00
vn -1.0000000000000000e+00 -1.2246467991473532e-16 0.0000000000000000e+00
vn -9.9999960609838279e-01 -8.8758271672841147e-04 0.0000000000000000e+00
vn -1.0000000000000000e+00 1.2246467991473532e-16 -0.0000000000000000e+00
vn -9.9999960609838279e-01 -8.8758271672816655e-04 0.0000000000000000e+00
vn -9.9187978010013766e-01 1.2717901489043854e-01 -0.0000000000000000e+00
vn -8.5441940454648835e-01 -5.1958395003543389e-01 0.0000000000000000e+00
vn -9.4231795653072614e-01 -3.3471908938654293e-01 0.0000000000000000e+00
vn -9.5106243403651336e-01 -3.0899878084636950e-01 0.0000000000000000e+00
vn -9.7158476574136277e-01 -2.3669187349653795e-01 0.0000000000000000e+00
vn -6.8255314321865346e-01 -7.3083596427812458e-01 0.0000000000000000e+00
vn -9.5106243403651280e-01 -3.0899878084637117e-01 0.0000000000000000e+00
vn -9.7158476574136188e-01 -2.3669187349654142e-01 0.0000000000000000e+00
vn -9.9165288916825545e-01 -1.2893621447929865e-01 0.0000000000000000e+00
vn -9.9999960609838301e-01 -8.8758271672485887e-04 0.0000000000000000e+00
vn -9.9187978010013833e-01 1.2717901489043434e-01 -0.0000000000000000e+00
vn -9.9187978010013822e-01 1.2717901489043459e-01 -0.0000000000000000e+00
vn -9.6291728734779947e-01 2.6979677115702383e-01 -0.0000000000000000e+00
vn -9.7201999337196354e-01 2.3489813214491051e-01 -0.0000000000000000e+00
vn -9.5179524921079728e-01 3.0673409262707702e-01 -0.0000000000000000e+00
vn -9.4323090451134195e-01 3.3213771356880811e-01 -0.0000000000000000e+00
vn -8.5441940454648835e-01 5.1958395003543389e-01 -0.0000000000000000e+00
vn -6.8255314321865346e-01 7.3083596427812458e-01 -0.0000000000000000e+00
vn -4.6006503773115259e-01 8.8788521840237511e-01 -0.0000000000000000e+00
vn -2.0345601305263383e-01 9.7908408768232280e-01 -0.0000000000000000e+00
vn 6.8242413364671003e-02 9.9766876919053926e-01 -0.0000000000000000e+00
vn 3.3487961217098583e-01 9.4226092211882062e-01 -0.0000000000000000e+00
vn 5.7668032211486675e-01 8.1696989301044232e-01 -0.0000000000000000e+00
vn 7.7571129070441935e-01 6.3108794432605331e-01 -0.0000000000000000e+00
vn 9.1721130150545327e-01 3.9840108984624084e-01 -0.0000000000000000e+00
vn 9.5724645874102443e-01 2.8927360271509051e-01 -0.0000000000000000e+00
vn 9.6402249191973488e-01 2.6582068217665977e-01 -0.0000000000000000e+00
vn 9.9068594603633087e-01 1.3616664909624573e-01 -0.0000000000000000e+00
vn 9.8002086627436336e-01 1.9889469994659542e-01 -0.0000000000000000e+00
vn 9.9507423454736321e-01 9.9132576582973905e-02 -0.0000000000000000e+00
vn 9.9974574670767591e-01 -2.2548657164259193e-02 -0.0000000000000000e+00
vn 9.9068594603633087e-01 -1.3616664909624573e-01 -0.0000000000000000e+00
vn 9.8767726385509846e-01 -1.5650438480664450e-01 -0.0000000000000000e+00
vn 9.6228125734222392e-01 -2.7205657824774004e-01 -0.0000000000000000e+00
vn 9.1721130150545260e-01 -3.9840108984624245e-01 -0.0000000000000000e+00
vn 9.3705192081002953e-01 -3.4919005957534666e-01 -0.0000000000000000e+00
vn 9.2626863454139408e-01 -3.7686392327313778e-01 -0.0000000000000000e+00
vn 9.3705192081002930e-01 -3.4919005957534721e-01 -0.0000000000000000e+00
vn 9.6228125734222447e-01 -2.7205657824773788e-01 -0.0000000000000000e+00
vn 9.8767726385509813e-01 -1.5650438480664633e-01 -0.0000000000000000e+00
vn 9.9507423454736343e-01 9.9132576582972046e-02 -0.0000000000000000e+00
vn 9.8002086627436302e-01 1.9889469994659753e-01 -0.0000000000000000e+00
vn 9.6402249191973421e-01 2.6582068217666194e-01 -0.0000000000000000e+00
vn -4.6006503773115259e-01 -8.8788521840237511e-01 0.0000000000000000e+00
vn -2.0345601305263383e-01 -9.7908408768232280e-01 0.0000000000000000e+00
vn 6.8242413364671003e-02 -9.9766876919053926e-01 -0.0000000000000000e+00
vn 3.3487961217098583e-01 -9.4226092211882062e-01 -0.0000000000000000e+00
vn 5.7668032211486675e-01 -8.1696989301044232e-01 -0.0000000000000000e+00
vn 7.7571129070441935e-01 -6.3108794432605331e-01 -0.0000000000000000e+00
vn -9.7201999337196376e-01 2.3489813214490923e-01 -0.0000000000000000e+00
vn 0.0000000000000000e+00 0.0000000000000000e+00 1.0000000000000000e+00
vn -9.7478552196456538e-03 -4.3219322216711925e-01 9.0172833937468100e-01
vn -8.6133470902150164e-03 -3.8189223666979394e-01 9.2416672187611570e-01
vn -1.5253258197344931e-03 -6.7628772281835892e-02 9.9770938781831431e-01
vn 6.0025481184419433e-05 2.6613655558793050e-03 9.9999645675888249e-01
vn 7.5526794799172150e-03 3.3486513770150378e-01 9.4223579670103097e-01
vn 8.7070663271248717e-03 3.8604749114029013e-01 9.2243781447871198e-01
vn 1.5406127808416759e-02 6.8306554299441258e-01 7.3019457352112604e-01
vn 1.5963838399179323e-02 7.0779290422692409e-01 7.0623959149114612e-01
vn 2.0660806114993033e-02 9.1604359792016299e-01 4.0054619933306240e-01
vn 2.0822562484070238e-02 9.2321543262454353e-01 3.8371823758517654e-01
vn 2.2548657164259203e-02 9.9974574670767602e-01 1.2246467991473530e-16
vn 2.2548657164259203e-02 9.9974574670767602e-01 -1.2246467991473532e-16
vn 2.0822562484070339e-02 9.2321543262454497e-01 -3.8371823758517276e-01
vn -1.5928550951884127e-02 -7.0622835538977291e-01 7.0780491048595451e-01
vn -1.6471625386565377e-02 -7.3030678951838446e-01 6.8292069725589277e-01
vn -2.0817578063156442e-02 -9.2299443704276074e-01 3.8424978546734617e-01
vn -2.0973081409292917e-02 -9.2988902982344190e-01 3.6724177604163871e-01
vn -2.2548657164259203e-02 -9.9974574670767602e-01 -4.9442309227683075e-16
vn -2.2548657164259203e-02 -9.9974574670767602e-01 -6.1920997505692518e-18
vn -2.0973081409292837e-02 -9.2988902982344113e-01 -3.6724177604164066e-01
vn -2.0817578063156369e-02 -9.2299443704276041e-01 -3.8424978546734706e-01
vn -1.6471625386565266e-02 -7.3030678951838468e-01 -6.8292069725589266e-01
vn -1.5928550951884057e-02 -7.0622835538977513e-01 -7.0780491048595229e-01
vn -9.7478552196456486e-03 -4.3219322216712586e-01 -9.0172833937467778e-01
vn -8.6133470902145931e-03 -3.8189223666978217e-01 -9.2416672187612048e-01
vn -1.5253258197343270e-03 -6.7628772281836114e-02 -9.9770938781831431e-01
vn 6.0025481184340273e-05 2.6613655558682019e-03 -9.9999645675888249e-01
vn 7.5526794799173035e-03 3.3486513770150056e-01 -9.4223579670103197e-01
vn 8.7070663271251493e-03 3.8604749114029546e-01 -9.2243781447870976e-01
vn 1.5406127808416915e-02 6.8306554299441413e-01 -7.3019457352112449e-01
vn 1.5963838399179558e-02 7.0779290422692931e-01 -7.0623959149114124e-01
vn 2.0660806114993078e-02 9.1604359792016188e-01 -4.0054619933306490e-01
vn -0.0000000000000000e+00 -0.0000000000000000e+00 -1.0000000000000000e+00

g face 0
f 23//1 1//2 24//3
f 24//4 1//5 2//6
f 24//4 2//6 42//7
f 42//7 2//6 3//8
f 42//7 3//8 41//9
f 41//9 3//8 4//10
f 41//9 4//10 40//11
f 40//11 4//10 5//12
f 40//11 5//12 39//13
f 39//13 5//12 6//14
f 39//13 6//14 38//15
f 38//15 6//14 7//16
f 38//15 7//16 8//17
f 38//15 8//17 37//18
f 37//18 8//17 9//19
f 37//18 9//19 36//20
f 36//20 9//19 10//21
f 36//20 10//21 35//22
f 35//22 10//21 11//23
f 35//22 11//23 34//24
f 34//24 11//23 12//25
f 34//24 12//25 13//26
f 34//24 13//26 33//27
f 33//27 13//26 14//28
f 33//27 14//28 32//29
f 32//29 14//28 15//30
f 32//29 15//30 31//31
f 31//31 15//30 16//32
f 31//31 16//32 30//33
f 30//33 16//32 17//34
f 30//33 17//34 29//35
f 29//35 17//34 18//36
f 29//35 18//36 19//37
f 29//35 19//37 28//38
f 28//38 19//37 20//39
f 28//38 20//39 27//40
f 27//40 20//39 21//41
f 27//40 21//41 26//42
f 26//42 21//41 22//43
f 26//42 22//43 25//44
f 25//44 22//43 23//1
f 25//44 23//1 24//3

g face 1
f 44//45 85//46 43//47
f 43//47 85//46 86//48
f 43//49 86//50 87//51
f 45//52 82//53 44//45
f 44//45 82//53 83//54
f 44//45 83//54 84//55
f 46//56 4//56 45//52
f 45//52 4//56 3//52
f 45//52 3//52 82//53
f 82//53 3//52 2//45
f 82//53 2//45 97//57
f 97//57 2//45 96//58
f 96//58 2//45 95//59
f 95//59 2//45 1//47
f 95//59 1//47 94//60
f 94//60 1//47 93//61
f 93//62 1//49 23//63
f 93//62 23//63 92//64
f 92//64 23//63 91//65
f 91//65 23//63 90//66
f 90//66 23//63 22//67
f 90//66 22//67 64//67
f 64//67 22//67 63//68
f 63//68 22//67 21//68
f 63//68 21//68 62//69
f 62//69 21//68 20//69
f 62//69 20//69 61//70
f 61//70 20//69 19//70
f 61//70 19//70 60//71
f 60//71 19//70 18//71
f 60//71 18//71 59//72
f 59//72 18//71 17//72
f 59//72 17//72 58//73
f 58//73 17//72 16//73
f 58//73 16//73 57//74
f 57//74 16//73 15//74
f 57//74 15//74 56//75
f 56//75 15//74 14//75
f 56//75 14//75 70//76
f 70//76 14//75 69//77
f 69//77 14//75 13//78
f 69//77 13//78 68//79
f 68//79 13//78 67//80
f 67//80 13//78 66//81
f 66//81 13//78 12//82
f 66//81 12//82 81//83
f 81//83 12//82 80//84
f 80//84 12//82 11//85
f 80//84 11//85 79//86
f 79//86 11//85 78//87
f 78//87 11//85 53//85
f 78//87 53//85 77//88
f 77//88 53//85 76//89
f 76//89 53//85 54//82
f 76//89 54//82 75//90
f 75//90 54//82 74//81
f 74//81 54//82 55//78
f 74//81 55//78 73//91
f 73//91 55//78 72//92
f 72//92 55//78 71//93
f 71//93 55//78 56//75
f 71//93 56//75 70//76
f 4//56 46//56 5//94
f 5//94 46//56 47//94
f 5//94 47//94 6//95
f 6//95 47//94 48//95
f 6//95 48//95 7//96
f 7//96 48//95 49//96
f 7//96 49//96 8//97
f 8//97 49//96 50//97
f 8//97 50//97 9//98
f 9//98 50//97 51//98
f 9//98 51//98 10//99
f 10//99 51//98 52//99
f 10//99 52//99 11//85
f 11//85 52//99 53//85
f 64//67 65//63 90//66
f 90//66 65//63 89//65
f 89//65 65//63 88//100
f 88//100 65//63 87//51
f 87//51 65//63 43//49
f 84//55 85//46 44//45

g face 2
f 24//101 42//101 25//101
f 25//101 42//101 26//101
f 26//101 42//101 41//101
f 26//101 41//101 27//101
f 27//101 41//101 40//101
f 27//101 40//101 28//101
f 28//101 40//101 39//101
f 28//101 39//101 29//101
f 29//101 39//101 38//101
f 29//101 38//101 30//101
f 30//101 38//101 31//101
f 31//101 38//101 32//101
f 32//101 38//101 33//101
f 33//101 38//101 34//101
f 34//101 38//101 35//101
f 35//101 38//101 36//101
f 36//101 38//101 37//101

g face 3
f 73//102 87//103 74//104
f 74//104 87//103 86//105
f 74//104 86//105 75//106
f 75//106 86//105 85//107
f 75//106 85//107 76//108
f 76//108 85//107 84//109
f 76//108 84//109 77//110
f 77//110 84//109 83//111
f 77//110 83//111 78//112
f 78//112 83//111 82//112
f 78//113 82//113 97//114
f 87//103 73//102 88//115
f 88//115 73//102 72//116
f 88//115 72//116 89//117
f 89//117 72//116 71//118
f 89//117 71//118 90//119
f 90//119 71//118 70//120
f 90//119 70//120 69//121
f 90//119 69//121 91//122
f 91//122 69//121 68//123
f 91//122 68//123 92//124
f 92//124 68//123 67//125
f 92//124 67//125 93//126
f 93//126 67//125 66//127
f 93//126 66//127 94//128
f 94//128 66//127 81//129
f 94//128 81//129 95//130
f 95//130 81//129 80//131
f 95//130 80//131 96//132
f 96//132 80//131 79//133
f 96//132 79//133 97//114
f 97//114 79//133 78//113

g face 4
f 43//134 65//134 44//134
f 44//134 65//134 64//134
f 44//134 64//134 45//134
f 45//134 64//134 63//134
f 45//134 63//134 46//134
f 46//134 63//134 62//134
f 46//134 62//134 47//134
f 47//134 62//134 61//134
f 47//134 61//134 48//134
f 48//134 61//134 60//134
f 48//134 60//134 59//134
f 59//134 58//134 48//134
f 48//134 58//134 57//134
f 48//134 57//134 56//134
f 56//134 55//134 48//134
f 48//134 55//134 54//134
f 48//134 54//134 53//134
f 53//134 52//134 48//134
f 48//134 52//134 51//134
f 48//134 51//134 50//134
f 50//134 49//134 48//134

g halfedge 0 edge 0
l 1 23 22 21 20 19 18 17 16 15 14 13 12 11 10 9 8 7 6 5 4 3 2 1

g halfedge 1 edge 0
l 1 2 3 4 5 6 7 8 9 10 11 12 13 14 15 16 17 18 19 20 21 22 23 1

g halfedge 2 edge 1
l 24 42 41 40 39 38 37 36 35 34 33 32 31 30 29 28 27 26 25 24

g halfedge 3 edge 1
l 24 25 26 27 28 29 30 31 32 33 34 35 36 37 38 39 40 41 42 24

g halfedge 4 edge 2
l 43 44 45 46 47 48 49 50 51 52 53 54 55 56 57 58 59 60 61 62 63 64 65 43

g halfedge 5 edge 2
l 43 65 64 63 62 61 60 59 58 57 56 55 54 53 52 51 50 49 48 47 46 45 44 43

g halfedge 6 edge 3
l 66 67 68 69 70 71 72 73 74

g halfedge 7 edge 3
l 74 73 72 71 70 69 68 67 66

g halfedge 8 edge 4
l 74 75 76 77 78 79 80 81 66

g halfedge 9 edge 4
l 66 81 80 79 78 77 76 75 74

g halfedge 10 edge 5
l 82 83 84 85 86 87 88 89 90 91 92 93 94 95 96 97 82

g halfedge 11 edge 5
l 82 97 96 95 94 93 92 91 90 89 88 87 86 85 84 83 82

g vertex 0
p 1

g vertex 1
p 24

g vertex 2
p 43

g vertex 3
p 66

g vertex 4
p 74

g vertex 5
p 82

# End of file
