# WaveFront *.obj file
# Vertices: 74
# Triangles : 156

v 1.3890633106231665e-01 -9.5250000000000012e-01 1.2700000000000000e+00
v 1.8179588918493295e-01 -1.1542795065258855e+00 1.2700000000000000e+00
v 3.0304856931397722e-01 -1.3211695032641761e+00 1.2700000000000000e+00
v 4.8169868150912032e-01 -1.4243131936307989e+00 1.2700000000000000e+00
v 6.8685599838650468e-01 -1.4458760965303543e+00 1.2700000000000000e+00
v 8.8304695606231709e-01 -1.3821297901586864e+00 1.2700000000000000e+00
v 1.0363483556155135e+00 -1.2440965900044691e+00 1.2700000000000000e+00
v 1.1202529923638533e+00 -1.0556436903666226e+00 1.2700000000000000e+00
v 1.1202529923638531e+00 -8.4935630963337705e-01 1.2700000000000000e+00
v 1.0363483556155135e+00 -6.6090340999553088e-01 1.2700000000000000e+00
v 8.8304695606231687e-01 -5.2287020984131360e-01 1.2700000000000000e+00
v 6.8685599838650435e-01 -4.5912390346964571e-01 1.2700000000000000e+00
v 4.8169868150912032e-01 -4.8068680636920114e-01 1.2700000000000000e+00
v 3.0304856931397706e-01 -5.8383049673582399e-01 1.2700000000000000e+00
v 1.8179588918493289e-01 -7.5072049347411463e-01 1.2700000000000000e+00
v 1.3890633106231687e-01 -9.5250000000000012e-01 0.0000000000000000e+00
v 1.8179588918493289e-01 -7.5072049347411463e-01 0.0000000000000000e+00
v 3.0304856931397706e-01 -5.8383049673582399e-01 0.0000000000000000e+00
v 4.8169868150912032e-01 -4.8068680636920114e-01 0.0000000000000000e+00
v 6.8685599838650435e-01 -4.5912390346964571e-01 0.0000000000000000e+00
v 8.8304695606231687e-01 -5.2287020984131360e-01 0.0000000000000000e+00
v 1.0363483556155135e+00 -6.6090340999553088e-01 0.0000000000000000e+00
v 1.1202529923638531e+00 -8.4935630963337705e-01 0.0000000000000000e+00
v 1.1202529923638533e+00 -1.0556436903666226e+00 0.0000000000000000e+00
v 1.0363483556155135e+00 -1.2440965900044691e+00 0.0000000000000000e+00
v 8.8304695606231709e-01 -1.3821297901586864e+00 0.0000000000000000e+00
v 6.8685599838650468e-01 -1.4458760965303543e+00 0.0000000000000000e+00
v 4.8169868150912032e-01 -1.4243131936307989e+00 0.0000000000000000e+00
v 3.0304856931397722e-01 -1.3211695032641761e+00 0.0000000000000000e+00
v 1.8179588918493295e-01 -1.1542795065258855e+00 0.0000000000000000e+00
v 1.0398125081062316e+01 -9.5250000000000024e-01 1.2700000000000000e+00
v 1.0430027781786148e+01 -1.0715625000000004e+00 1.2700000000000000e+00
v 1.0517187581062316e+01 -1.1587222992761699e+00 1.2700000000000000e+00
v 1.0636250081062316e+01 -1.1906250000000003e+00 1.2700000000000000e+00
v 1.0755312581062316e+01 -1.1587222992761697e+00 1.2700000000000000e+00
v 1.0842472380338487e+01 -1.0715625000000002e+00 1.2700000000000000e+00
v 1.0874375081062317e+01 -9.5250000000000024e-01 1.2700000000000000e+00
v 1.0842472380338485e+01 -8.3343750000000005e-01 1.2700000000000000e+00
v 1.0755312581062316e+01 -7.4627770072383059e-01 1.2700000000000000e+00
v 1.0636250081062316e+01 -7.1437500000000009e-01 1.2700000000000000e+00
v 1.0517187581062316e+01 -7.4627770072383071e-01 1.2700000000000000e+00
v 1.0430027781786146e+01 -8.3343750000000016e-01 1.2700000000000000e+00
v 1.0398125081062316e+01 -9.5250000000000024e-01 0.0000000000000000e+00
v 1.0430027781786146e+01 -8.3343750000000016e-01 0.0000000000000000e+00
v 1.0517187581062316e+01 -7.4627770072383071e-01 0.0000000000000000e+00
v 1.0636250081062316e+01 -7.1437500000000009e-01 0.0000000000000000e+00
v 1.0755312581062316e+01 -7.4627770072383059e-01 0.0000000000000000e+00
v 1.0842472380338485e+01 -8.3343750000000005e-01 0.0000000000000000e+00
v 1.0874375081062317e+01 -9.5250000000000024e-01 0.0000000000000000e+00
v 1.0842472380338487e+01 -1.0715625000000002e+00 0.0000000000000000e+00
v 1.0755312581062316e+01 -1.1587222992761697e+00 0.0000000000000000e+00
v 1.0636250081062316e+01 -1.1906250000000003e+00 0.0000000000000000e+00
v 1.0517187581062316e+01 -1.1587222992761699e+00 0.0000000000000000e+00
v 1.0430027781786148e+01 -1.0715625000000004e+00 0.0000000000000000e+00
v 7.7787500810623165e+00 -6.1515625000000007e-01 0.0000000000000000e+00
v 7.7787500810623165e+00 -1.2898437500000004e+00 0.0000000000000000e+00
v 7.7787500810623165e+00 -1.2898437500000004e+00 1.2700000000000000e+00
v 7.7787500810623165e+00 -6.1515625000000007e-01 1.2700000000000000e+00
v 2.5400000810623169e+00 -6.1515625000000007e-01 0.0000000000000000e+00
v 2.5400000810623169e+00 -6.1515625000000007e-01 1.2700000000000000e+00
v 2.5400000810623169e+00 -1.2898437500000000e+00 0.0000000000000000e+00
v 2.5400000810623169e+00 -1.2898437500000000e+00 1.2700000000000000e+00
v 1.5875008106231703e-01 0.0000000000000000e+00 0.0000000000000000e+00
v -6.3499991893768293e-01 -9.5250000000000001e-01 0.0000000000000000e+00
v -6.3499991893768382e-01 -9.5250000000000001e-01 1.2700000000000000e+00
v 1.5875008106231725e-01 0.0000000000000000e+00 1.2700000000000000e+00
v 1.0795000081062318e+01 0.0000000000000000e+00 0.0000000000000000e+00
v 1.0795000081062318e+01 0.0000000000000000e+00 1.2700000000000000e+00
v 1.1588750081062317e+01 -9.5250000000000024e-01 0.0000000000000000e+00
v 1.1588750081062317e+01 -9.5250000000000024e-01 1.2700000000000000e+00
v 1.0795000081062318e+01 -1.9050000000000000e+00 0.0000000000000000e+00
v 1.0795000081062318e+01 -1.9050000000000000e+00 1.2700000000000000e+00
v 6.4473557658354608e-02 -1.9050000000000002e+00 0.0000000000000000e+00
v 6.4473557658354608e-02 -1.9050000000000002e+00 1.2700000000000000e+00

vn 9.1354545764260053e-01 4.0673664307580076e-01 -0.0000000000000000e+00
vn 1.0000000000000000e+00 1.2246467991473532e-16 -0.0000000000000000e+00
vn 1.0000000000000000e+00 -1.2246467991473532e-16 0.0000000000000000e+00
vn 9.1354545764260076e-01 -4.0673664307580043e-01 0.0000000000000000e+00
vn 6.6913060635885824e-01 -7.4314482547739424e-01 0.0000000000000000e+00
vn 6.6913060635885802e-01 7.4314482547739447e-01 -0.0000000000000000e+00
vn 3.0901699437494734e-01 9.5105651629515364e-01 -0.0000000000000000e+00
vn -1.0452846326765414e-01 9.9452189536827329e-01 0.0000000000000000e+00
vn -5.0000000000000033e-01 8.6602540378443849e-01 0.0000000000000000e+00
vn -8.0901699437494745e-01 5.8778525229247303e-01 0.0000000000000000e+00
vn -9.7814760073380569e-01 2.0791169081775898e-01 0.0000000000000000e+00
vn -9.7814760073380547e-01 -2.0791169081775970e-01 0.0000000000000000e+00
vn -8.0901699437494745e-01 -5.8778525229247303e-01 0.0000000000000000e+00
vn -4.9999999999999983e-01 -8.6602540378443871e-01 0.0000000000000000e+00
vn -1.0452846326765347e-01 -9.9452189536827329e-01 0.0000000000000000e+00
vn 3.0901699437494734e-01 -9.5105651629515364e-01 0.0000000000000000e+00
vn 8.6602540378443760e-01 5.0000000000000189e-01 -0.0000000000000000e+00
vn 8.6602540378443960e-01 -4.9999999999999839e-01 0.0000000000000000e+00
vn 5.0000000000000022e-01 -8.6602540378443849e-01 0.0000000000000000e+00
vn -6.1232339957367660e-17 -1.0000000000000000e+00 0.0000000000000000e+00
vn -4.9999999999999989e-01 -8.6602540378443860e-01 0.0000000000000000e+00
vn -8.6602540378443738e-01 -5.0000000000000200e-01 0.0000000000000000e+00
vn -1.0000000000000000e+00 0.0000000000000000e+00 0.0000000000000000e+00
vn -8.6602540378443971e-01 4.9999999999999811e-01 0.0000000000000000e+00
vn -5.0000000000000033e-01 8.6602540378443837e-01 0.0000000000000000e+00
vn -6.1232339957367660e-17 1.0000000000000000e+00 0.0000000000000000e+00
vn 4.9999999999999983e-01 8.6602540378443871e-01 -0.0000000000000000e+00
vn 0.0000000000000000e+00 -1.0000000000000000e+00 0.0000000000000000e+00
vn 1.0000000000000000e+00 0.0000000000000000e+00 0.0000000000000000e+00
vn 8.4770071076127446e-17 1.0000000000000000e+00 -0.0000000000000000e+00
vn -7.6822127959737585e-01 6.4018439966447982e-01 0.0000000000000000e+00
vn 0.0000000000000000e+00 1.0000000000000000e+00 0.0000000000000000e+00
vn 7.6822127959737629e-01 6.4018439966447949e-01 -0.0000000000000000e+00
vn 7.6822127959737607e-01 -6.4018439966447960e-01 0.0000000000000000e+00
vn -8.0601198320354717e-01 -5.9189921687081581e-01 0.0000000000000000e+00
vn 0.0000000000000000e+00 0.0000000000000000e+00 1.0000000000000000e+00
vn -0.0000000000000000e+00 0.0000000000000000e+00 -1.0000000000000000e+00

g face 0
f 2//1 30//1 1//2
f 1//2 30//1 16//2
f 1//3 16//3 15//4
f 15//4 16//3 17//4
f 15//4 17//4 18//5
f 2//1 3//6 30//1
f 30//1 3//6 29//6
f 29//6 3//6 4//7
f 29//6 4//7 28//7
f 28//7 4//7 5//8
f 28//7 5//8 27//8
f 27//8 5//8 6//9
f 27//8 6//9 26//9
f 26//9 6//9 7//10
f 26//9 7//10 25//10
f 25//10 7//10 8//11
f 25//10 8//11 24//11
f 24//11 8//11 9//12
f 24//11 9//12 23//12
f 23//12 9//12 10//13
f 23//12 10//13 22//13
f 22//13 10//13 11//14
f 22//13 11//14 21//14
f 21//14 11//14 12//15
f 21//14 12//15 20//15
f 20//15 12//15 13//16
f 20//15 13//16 19//16
f 19//16 13//16 14//5
f 19//16 14//5 18//5
f 18//5 14//5 15//4

g face 1
f 32//17 54//17 31//2
f 31//2 54//17 43//2
f 31//3 43//3 42//18
f 42//18 43//3 44//18
f 42//18 44//18 41//19
f 41//19 44//18 45//19
f 41//19 45//19 40//20
f 40//20 45//19 46//20
f 40//20 46//20 39//21
f 39//21 46//20 47//21
f 39//21 47//21 38//22
f 38//22 47//21 48//22
f 38//22 48//22 37//23
f 37//23 48//22 49//23
f 37//23 49//23 36//24
f 36//24 49//23 50//24
f 36//24 50//24 35//25
f 35//25 50//24 51//25
f 35//25 51//25 34//26
f 34//26 51//25 52//26
f 34//26 52//26 33//27
f 33//27 52//26 53//27
f 33//27 53//27 32//17
f 32//17 53//27 54//17

g face 2
f 55//23 56//23 58//23
f 58//23 56//23 57//23

g face 3
f 59//28 55//28 60//28
f 60//28 55//28 58//28

g face 4
f 61//29 59//29 62//29
f 62//29 59//29 60//29

g face 5
f 56//30 61//30 57//30
f 57//30 61//30 62//30

g face 6
f 63//31 64//31 66//31
f 66//31 64//31 65//31

g face 7
f 67//32 63//32 68//32
f 68//32 63//32 66//32

g face 8
f 69//33 67//33 70//33
f 70//33 67//33 68//33

g face 9
f 71//34 69//34 72//34
f 72//34 69//34 70//34

g face 10
f 73//28 71//28 74//28
f 74//28 71//28 72//28

g face 11
f 64//35 73//35 65//35
f 65//35 73//35 74//35

g face 12
f 62//36 74//36 57//36
f 57//36 74//36 72//36
f 57//36 72//36 34//36
f 34//36 72//36 35//36
f 35//36 72//36 70//36
f 35//36 70//36 36//36
f 36//36 70//36 37//36
f 37//36 70//36 38//36
f 38//36 70//36 39//36
f 39//36 70//36 68//36
f 39//36 68//36 40//36
f 40//36 68//36 58//36
f 40//36 58//36 41//36
f 41//36 58//36 42//36
f 42//36 58//36 31//36
f 31//36 58//36 57//36
f 31//36 57//36 32//36
f 32//36 57//36 33//36
f 33//36 57//36 34//36
f 60//36 9//36 62//36
f 62//36 9//36 8//36
f 62//36 8//36 7//36
f 58//36 66//36 60//36
f 60//36 66//36 12//36
f 60//36 12//36 11//36
f 2//36 1//36 65//36
f 65//36 1//36 15//36
f 65//36 15//36 14//36
f 65//36 14//36 66//36
f 66//36 14//36 13//36
f 66//36 13//36 12//36
f 11//36 10//36 60//36
f 60//36 10//36 9//36
f 7//36 6//36 62//36
f 62//36 6//36 5//36
f 62//36 5//36 74//36
f 74//36 5//36 4//36
f 74//36 4//36 3//36
f 74//36 3//36 65//36
f 65//36 3//36 2//36
f 68//36 66//36 58//36

g face 13
f 56//37 73//37 61//37
f 61//37 73//37 27//37
f 61//37 27//37 26//37
f 55//37 43//37 56//37
f 56//37 43//37 54//37
f 56//37 54//37 53//37
f 59//37 63//37 55//37
f 55//37 63//37 67//37
f 55//37 67//37 46//37
f 46//37 67//37 47//37
f 47//37 67//37 69//37
f 47//37 69//37 48//37
f 48//37 69//37 49//37
f 49//37 69//37 50//37
f 50//37 69//37 51//37
f 51//37 69//37 71//37
f 51//37 71//37 52//37
f 52//37 71//37 56//37
f 52//37 56//37 53//37
f 61//37 23//37 59//37
f 59//37 23//37 22//37
f 59//37 22//37 21//37
f 46//37 45//37 55//37
f 55//37 45//37 44//37
f 55//37 44//37 43//37
f 17//37 16//37 64//37
f 64//37 16//37 30//37
f 64//37 30//37 29//37
f 64//37 29//37 73//37
f 73//37 29//37 28//37
f 73//37 28//37 27//37
f 26//37 25//37 61//37
f 61//37 25//37 24//37
f 61//37 24//37 23//37
f 21//37 20//37 59//37
f 59//37 20//37 63//37
f 20//37 19//37 63//37
f 63//37 19//37 18//37
f 63//37 18//37 64//37
f 64//37 18//37 17//37
f 71//37 73//37 56//37

g halfedge 0 edge 0
l 1 2 3 4 5 6 7 8 9 10 11 12 13 14 15 1

g halfedge 1 edge 0
l 1 15 14 13 12 11 10 9 8 7 6 5 4 3 2 1

g halfedge 2 edge 1
l 16 17 18 19 20 21 22 23 24 25 26 27 28 29 30 16

g halfedge 3 edge 1
l 16 30 29 28 27 26 25 24 23 22 21 20 19 18 17 16

g halfedge 4 edge 2
l 31 32 33 34 35 36 37 38 39 40 41 42 31

g halfedge 5 edge 2
l 31 42 41 40 39 38 37 36 35 34 33 32 31

g halfedge 6 edge 3
l 43 44 45 46 47 48 49 50 51 52 53 54 43

g halfedge 7 edge 3
l 43 54 53 52 51 50 49 48 47 46 45 44 43

g halfedge 8 edge 4
l 55 56

g halfedge 9 edge 4
l 56 55

g halfedge 10 edge 5
l 57 56

g halfedge 11 edge 5
l 56 57

g halfedge 12 edge 6
l 57 58

g halfedge 13 edge 6
l 58 57

g halfedge 14 edge 7
l 55 58

g halfedge 15 edge 7
l 58 55

g halfedge 16 edge 8
l 59 55

g halfedge 17 edge 8
l 55 59

g halfedge 18 edge 9
l 58 60

g halfedge 19 edge 9
l 60 58

g halfedge 20 edge 10
l 59 60

g halfedge 21 edge 10
l 60 59

g halfedge 22 edge 11
l 61 59

g halfedge 23 edge 11
l 59 61

g halfedge 24 edge 12
l 60 62

g halfedge 25 edge 12
l 62 60

g halfedge 26 edge 13
l 61 62

g halfedge 27 edge 13
l 62 61

g halfedge 28 edge 14
l 56 61

g halfedge 29 edge 14
l 61 56

g halfedge 30 edge 15
l 62 57

g halfedge 31 edge 15
l 57 62

g halfedge 32 edge 16
l 63 64

g halfedge 33 edge 16
l 64 63

g halfedge 34 edge 17
l 65 64

g halfedge 35 edge 17
l 64 65

g halfedge 36 edge 18
l 65 66

g halfedge 37 edge 18
l 66 65

g halfedge 38 edge 19
l 63 66

g halfedge 39 edge 19
l 66 63

g halfedge 40 edge 20
l 67 63

g halfedge 41 edge 20
l 63 67

g halfedge 42 edge 21
l 66 68

g halfedge 43 edge 21
l 68 66

g halfedge 44 edge 22
l 67 68

g halfedge 45 edge 22
l 68 67

g halfedge 46 edge 23
l 69 67

g halfedge 47 edge 23
l 67 69

g halfedge 48 edge 24
l 68 70

g halfedge 49 edge 24
l 70 68

g halfedge 50 edge 25
l 69 70

g halfedge 51 edge 25
l 70 69

g halfedge 52 edge 26
l 71 69

g halfedge 53 edge 26
l 69 71

g halfedge 54 edge 27
l 70 72

g halfedge 55 edge 27
l 72 70

g halfedge 56 edge 28
l 71 72

g halfedge 57 edge 28
l 72 71

g halfedge 58 edge 29
l 73 71

g halfedge 59 edge 29
l 71 73

g halfedge 60 edge 30
l 72 74

g halfedge 61 edge 30
l 74 72

g halfedge 62 edge 31
l 73 74

g halfedge 63 edge 31
l 74 73

g halfedge 64 edge 32
l 64 73

g halfedge 65 edge 32
l 73 64

g halfedge 66 edge 33
l 74 65

g halfedge 67 edge 33
l 65 74

g vertex 0
p 1

g vertex 1
p 16

g vertex 2
p 31

g vertex 3
p 43

g vertex 4
p 55

g vertex 5
p 56

g vertex 6
p 57

g vertex 7
p 58

g vertex 8
p 59

g vertex 9
p 60

g vertex 10
p 61

g vertex 11
p 62

g vertex 12
p 63

g vertex 13
p 64

g vertex 14
p 65

g vertex 15
p 66

g vertex 16
p 67

g vertex 17
p 68

g vertex 18
p 69

g vertex 19
p 70

g vertex 20
p 71

g vertex 21
p 72

g vertex 22
p 73

g vertex 23
p 74

# End of file
