# WaveFront *.obj file
# Vertices: 111
# Triangles : 222

v 3.8011099999999960e+00 7.5406249999999702e+00 -1.8659288057146700e-13
v 3.8448379684587932e+00 7.7038199999999701e+00 -1.8873953160179710e-13
v 3.9643049999999960e+00 7.8232870315411729e+00 -1.9460429128277903e-13
v 4.1274999999999959e+00 7.8670149999999701e+00 -2.0261570199409107e-13
v 4.2906949999999959e+00 7.8232870315411729e+00 -2.1062711270540310e-13
v 4.4101620315411987e+00 7.7038199999999701e+00 -2.1649187238638504e-13
v 4.4538899999999959e+00 7.5406249999999702e+00 -2.1863852341671514e-13
v 4.4101620315411987e+00 7.3774299999999702e+00 -2.1649187238638504e-13
v 4.2906949999999959e+00 7.2579629684587674e+00 -2.1062711270540310e-13
v 4.1274999999999959e+00 7.2142349999999702e+00 -2.0261570199409107e-13
v 3.9643049999999960e+00 7.2579629684587674e+00 -1.9460429128277903e-13
v 3.8448379684587932e+00 7.3774299999999702e+00 -1.8873953160179710e-13
v 4.4538900000000892e+00 7.5406249999999702e+00 1.9049999999997809e+00
v 4.4101620315412919e+00 7.7038199999999701e+00 1.9049999999997835e+00
v 4.2906950000000892e+00 7.8232870315411729e+00 1.9049999999997893e+00
v 4.1275000000000892e+00 7.8670149999999701e+00 1.9049999999997973e+00
v 3.9643050000000892e+00 7.8232870315411729e+00 1.9049999999998053e+00
v 3.8448379684588860e+00 7.7038199999999701e+00 1.9049999999998111e+00
v 3.8011100000000893e+00 7.5406249999999702e+00 1.9049999999998133e+00
v 3.8448379684588865e+00 7.3774299999999702e+00 1.9049999999998111e+00
v 3.9643050000000892e+00 7.2579629684587674e+00 1.9049999999998053e+00
v 4.1275000000000892e+00 7.2142349999999702e+00 1.9049999999997973e+00
v 4.2906950000000892e+00 7.2579629684587674e+00 1.9049999999997893e+00
v 4.4101620315412919e+00 7.3774299999999702e+00 1.9049999999997835e+00
v 4.6037500000000318e+00 3.1749999999999865e+00 6.3499999999977663e-01
v 4.5399445985523705e+00 3.4131249999999866e+00 6.3499999999977974e-01
v 4.3656250000000316e+00 3.5874445985523256e+00 6.3499999999978829e-01
v 4.1275000000000315e+00 3.6512499999999863e+00 6.3499999999979995e-01
v 3.8893750000000313e+00 3.5874445985523256e+00 6.3499999999981160e-01
v 3.7150554014476924e+00 3.4131249999999862e+00 6.3499999999982015e-01
v 3.6512500000000316e+00 3.1749999999999865e+00 6.3499999999982337e-01
v 3.7150554014476924e+00 2.9368749999999864e+00 6.3499999999982015e-01
v 3.8893750000000318e+00 2.7625554014476474e+00 6.3499999999981160e-01
v 4.1275000000000315e+00 2.6987499999999867e+00 6.3499999999979995e-01
v 4.3656250000000316e+00 2.7625554014476474e+00 6.3499999999978829e-01
v 4.5399445985523705e+00 2.9368749999999864e+00 6.3499999999977974e-01
v 4.1275000000000173e+00 3.1749999999999865e+00 3.4884013018792437e-01
v 4.6037500000000939e+00 3.1749999999999865e+00 1.9049999999997766e+00
v 4.5399445985524327e+00 3.4131249999999866e+00 1.9049999999997771e+00
v 4.3656250000000938e+00 3.5874445985523256e+00 1.9049999999997855e+00
v 4.1275000000000936e+00 3.6512499999999863e+00 1.9049999999997973e+00
v 3.8893750000000935e+00 3.5874445985523256e+00 1.9049999999998091e+00
v 3.7150554014477546e+00 3.4131249999999862e+00 1.9049999999998175e+00
v 3.6512500000000938e+00 3.1749999999999865e+00 1.9049999999998206e+00
v 3.7150554014477546e+00 2.9368749999999864e+00 1.9049999999998175e+00
v 3.8893750000000940e+00 2.7625554014476474e+00 1.9049999999998091e+00
v 4.1275000000000936e+00 2.6987499999999867e+00 1.9049999999997973e+00
v 4.3656250000000938e+00 2.7625554014476474e+00 1.9049999999997855e+00
v 4.5399445985524327e+00 2.9368749999999864e+00 1.9049999999997771e+00
v 1.5875000000000441e+00 7.9374999999999996e-01 7.1437499999993270e-01
v 1.6668750000000441e+00 7.9374999999999996e-01 7.3564346714915307e-01
v 1.7249815328508238e+00 7.9374999999999996e-01 7.9374999999993279e-01
v 1.7462500000000440e+00 7.9374999999999996e-01 8.7312499999993265e-01
v 1.7249815328508238e+00 7.9374999999999996e-01 9.5249999999993273e-01
v 1.6668750000000441e+00 7.9374999999999996e-01 1.0106065328507123e+00
v 1.5875000000000441e+00 7.9374999999999996e-01 1.0318749999999326e+00
v 1.5081250000000441e+00 7.9374999999999996e-01 1.0106065328507123e+00
v 1.4500184671492644e+00 7.9374999999999996e-01 9.5249999999993262e-01
v 1.4287500000000442e+00 7.9374999999999996e-01 8.7312499999993265e-01
v 1.4500184671492644e+00 7.9374999999999996e-01 7.9374999999993268e-01
v 1.5081250000000441e+00 7.9374999999999996e-01 7.3564346714915296e-01
v 1.5875000000000441e+00 8.8913662327062526e-01 8.7312499999993265e-01
v 1.5875000000000441e+00 0.0000000000000000e+00 7.1437499999993270e-01
v 1.6668750000000441e+00 0.0000000000000000e+00 7.3564346714915307e-01
v 1.7249815328508238e+00 0.0000000000000000e+00 7.9374999999993279e-01
v 1.7462500000000440e+00 0.0000000000000000e+00 8.7312499999993265e-01
v 1.7249815328508238e+00 0.0000000000000000e+00 9.5249999999993273e-01
v 1.6668750000000441e+00 0.0000000000000000e+00 1.0106065328507123e+00
v 1.5875000000000441e+00 0.0000000000000000e+00 1.0318749999999326e+00
v 1.5081250000000441e+00 0.0000000000000000e+00 1.0106065328507123e+00
v 1.4500184671492644e+00 0.0000000000000000e+00 9.5249999999993262e-01
v 1.4287500000000442e+00 0.0000000000000000e+00 8.7312499999993265e-01
v 1.4500184671492644e+00 0.0000000000000000e+00 7.9374999999993268e-01
v 1.5081250000000441e+00 0.0000000000000000e+00 7.3564346714915296e-01
v 6.6675000000000439e+00 7.9374999999999996e-01 7.1437499999967535e-01
v 6.7468750000000437e+00 7.9374999999999996e-01 7.3564346714889572e-01
v 6.8049815328508236e+00 7.9374999999999996e-01 7.9374999999967544e-01
v 6.8262500000000443e+00 7.9374999999999996e-01 8.7312499999967530e-01
v 6.8049815328508236e+00 7.9374999999999996e-01 9.5249999999967538e-01
v 6.7468750000000437e+00 7.9374999999999996e-01 1.0106065328504550e+00
v 6.6675000000000439e+00 7.9374999999999996e-01 1.0318749999996752e+00
v 6.5881250000000442e+00 7.9374999999999996e-01 1.0106065328504550e+00
v 6.5300184671492643e+00 7.9374999999999996e-01 9.5249999999967527e-01
v 6.5087500000000436e+00 7.9374999999999996e-01 8.7312499999967530e-01
v 6.5300184671492643e+00 7.9374999999999996e-01 7.9374999999967533e-01
v 6.5881250000000442e+00 7.9374999999999996e-01 7.3564346714889561e-01
v 6.6675000000000439e+00 8.8913662327062526e-01 8.7312499999967530e-01
v 6.6675000000000439e+00 0.0000000000000000e+00 7.1437499999967535e-01
v 6.7468750000000437e+00 0.0000000000000000e+00 7.3564346714889572e-01
v 6.8049815328508236e+00 0.0000000000000000e+00 7.9374999999967544e-01
v 6.8262500000000443e+00 0.0000000000000000e+00 8.7312499999967530e-01
v 6.8049815328508236e+00 0.0000000000000000e+00 9.5249999999967538e-01
v 6.7468750000000437e+00 0.0000000000000000e+00 1.0106065328504550e+00
v 6.6675000000000439e+00 0.0000000000000000e+00 1.0318749999996752e+00
v 6.5881250000000442e+00 0.0000000000000000e+00 1.0106065328504550e+00
v 6.5300184671492643e+00 0.0000000000000000e+00 9.5249999999967527e-01
v 6.5087500000000436e+00 0.0000000000000000e+00 8.7312499999967530e-01
v 6.5300184671492643e+00 0.0000000000000000e+00 7.9374999999967533e-01
v 6.5881250000000442e+00 0.0000000000000000e+00 7.3564346714889561e-01
v 8.2550000000000878e+00 1.3970000000000001e+01 1.7462499999995948e+00
v 8.6039461649320847e-14 1.3970000000000001e+01 1.7462500000000003e+00
v 1.5875000000009409e-01 1.3811250000000001e+01 1.9049999999999920e+00
v 8.0962500000000954e+00 1.3811250000000001e+01 1.9049999999996026e+00
v 8.6039461649320847e-14 0.0000000000000000e+00 1.7462500000000003e+00
v 1.5875000000009409e-01 0.0000000000000000e+00 1.9049999999999920e+00
v 8.0962500000000954e+00 0.0000000000000000e+00 1.9049999999996026e+00
v 8.2550000000000878e+00 0.0000000000000000e+00 1.7462499999995948e+00
v 0.0000000000000000e+00 0.0000000000000000e+00 0.0000000000000000e+00
v 8.2550000000000008e+00 0.0000000000000000e+00 -4.0523140398818214e-13
v 0.0000000000000000e+00 1.3970000000000001e+01 0.0000000000000000e+00
v 8.2550000000000008e+00 1.3970000000000001e+01 -4.0523140398818214e-13

vn 8.6602540378443826e-01 -5.0000000000000067e-01 -4.2514079451864213e-14
vn 8.6602540378443871e-01 -4.9999999999999989e-01 -4.2514079451864232e-14
vn 1.0000000000000000e+00 -1.2246467991473532e-16 -4.9091030431765907e-14
vn 1.0000000000000000e+00 1.2246467991473532e-16 -4.9091030431765907e-14
vn 8.6602540378443826e-01 5.0000000000000067e-01 -4.2514079451864213e-14
vn 8.6602540378443837e-01 5.0000000000000033e-01 -4.2514079451864220e-14
vn 4.9999999999999900e-01 8.6602540378443915e-01 -2.4545515215882903e-14
vn 4.9999999999999972e-01 8.6602540378443871e-01 -2.4545515215882938e-14
vn -1.3934999695075554e-15 1.0000000000000000e+00 6.8408349409760257e-29
vn -5.0532154980743029e-16 1.0000000000000000e+00 2.4806755579423674e-29
vn -5.0000000000000122e-01 8.6602540378443793e-01 2.4545515215883007e-14
vn -5.0000000000000067e-01 8.6602540378443826e-01 2.4545515215882982e-14
vn -8.6602540378443882e-01 4.9999999999999961e-01 4.2514079451864245e-14
vn -8.6602540378443871e-01 4.9999999999999989e-01 4.2514079451864232e-14
vn -1.0000000000000000e+00 0.0000000000000000e+00 4.9091030431765907e-14
vn -8.6602540378443882e-01 -4.9999999999999961e-01 4.2514079451864245e-14
vn -8.6602540378443871e-01 -4.9999999999999989e-01 4.2514079451864232e-14
vn -5.0000000000000122e-01 -8.6602540378443793e-01 2.4545515215883007e-14
vn -5.0000000000000067e-01 -8.6602540378443826e-01 2.4545515215882982e-14
vn -1.3934999695075554e-15 -1.0000000000000000e+00 6.8408349409760257e-29
vn -5.0532154980743029e-16 -1.0000000000000000e+00 2.4806755579423674e-29
vn 4.9999999999999900e-01 -8.6602540378443915e-01 -2.4545515215882903e-14
vn 4.9999999999999972e-01 -8.6602540378443871e-01 -2.4545515215882938e-14
vn -4.4603605678829750e-01 -2.5751903745502713e-01 8.5716730070213421e-01
vn -4.4603605678829750e-01 -2.5751903745502719e-01 8.5716730070213432e-01
vn -5.1503807491001208e-01 0.0000000000000000e+00 8.5716730070213765e-01
vn 4.2047689057388161e-14 -5.1503807491005416e-01 8.5716730070211233e-01
vn 4.2047689057388155e-14 -5.1503807491005416e-01 8.5716730070211244e-01
vn -2.5751903745498517e-01 -4.4603605678833946e-01 8.5716730070212499e-01
vn 4.4603605678838171e-01 -2.5751903745502674e-01 8.5716730070209046e-01
vn 4.4603605678838176e-01 -2.5751903745502708e-01 8.5716730070209057e-01
vn 2.5751903745506904e-01 -4.4603605678833963e-01 8.5716730070209968e-01
vn 4.4603605678838160e-01 2.5751903745502697e-01 8.5716730070209046e-01
vn 4.4603605678838165e-01 2.5751903745502724e-01 8.5716730070209057e-01
vn 5.1503807491009623e-01 6.3073972987761246e-17 8.5716730070208702e-01
vn 4.2047689057388161e-14 5.1503807491005416e-01 8.5716730070211233e-01
vn 4.2047689057388155e-14 5.1503807491005416e-01 8.5716730070211244e-01
vn 2.5751903745506882e-01 4.4603605678833974e-01 8.5716730070209968e-01
vn -4.4603605678829750e-01 2.5751903745502713e-01 8.5716730070213421e-01
vn -4.4603605678829761e-01 2.5751903745502702e-01 8.5716730070213432e-01
vn -2.5751903745498517e-01 4.4603605678833946e-01 8.5716730070212499e-01
vn 5.1503807491009623e-01 -6.3073972987761246e-17 8.5716730070208702e-01
vn 5.1503807491009623e-01 -6.3073972987761259e-17 8.5716730070208713e-01
vn -2.5751903745498494e-01 -4.4603605678833969e-01 8.5716730070212510e-01
vn -2.5751903745498494e-01 4.4603605678833969e-01 8.5716730070212510e-01
vn 2.5751903745506927e-01 -4.4603605678833963e-01 8.5716730070209979e-01
vn -5.1503807491001208e-01 -0.0000000000000000e+00 8.5716730070213776e-01
vn 2.5751903745506888e-01 4.4603605678833985e-01 8.5716730070209979e-01
vn -8.6602540378443860e-01 -5.0000000000000011e-01 4.2514079451864232e-14
vn -8.6602540378443871e-01 -4.9999999999999994e-01 4.2514079451864245e-14
vn -1.0000000000000000e+00 0.0000000000000000e+00 4.9091030431765914e-14
vn -8.6602540378443860e-01 5.0000000000000011e-01 4.2514079451864232e-14
vn -8.6602540378443871e-01 4.9999999999999994e-01 4.2514079451864245e-14
vn -4.9999999999999989e-01 8.6602540378443871e-01 2.4545515215882951e-14
vn -5.0000000000000033e-01 8.6602540378443849e-01 2.4545515215882969e-14
vn 1.6081226496766368e-16 1.0000000000000000e+00 -7.8944397933287800e-30
vn -2.8327694488239898e-16 1.0000000000000000e+00 1.3906357121839523e-29
vn 4.9999999999999939e-01 8.6602540378443893e-01 -2.4545515215882922e-14
vn 8.6602540378443871e-01 4.9999999999999994e-01 -4.2514079451864245e-14
vn 8.6602540378443849e-01 5.0000000000000033e-01 -4.2514079451864220e-14
vn 1.0000000000000000e+00 1.2246467991473532e-16 -4.9091030431765914e-14
vn 1.0000000000000000e+00 -1.2246467991473532e-16 -4.9091030431765914e-14
vn 8.6602540378443915e-01 -4.9999999999999922e-01 -4.2514079451864264e-14
vn 8.6602540378443893e-01 -4.9999999999999956e-01 -4.2514079451864257e-14
vn 5.0000000000000022e-01 -8.6602540378443860e-01 -2.4545515215882963e-14
vn 4.9999999999999983e-01 -8.6602540378443871e-01 -2.4545515215882944e-14
vn 1.6081226496766368e-16 -1.0000000000000000e+00 -7.8944397933287800e-30
vn -2.8327694488239898e-16 -1.0000000000000000e+00 1.3906357121839523e-29
vn -4.9999999999999989e-01 -8.6602540378443871e-01 2.4545515215882951e-14
vn -5.0000000000000033e-01 -8.6602540378443849e-01 2.4545515215882969e-14
vn -2.5751903745502708e-01 -8.5716730070211233e-01 4.4603605678833957e-01
vn -2.5751903745502713e-01 -8.5716730070211222e-01 4.4603605678833941e-01
vn 0.0000000000000000e+00 -8.5716730070211233e-01 5.1503807491005416e-01
vn -5.1503807491005416e-01 -8.5716730070211233e-01 3.1536986493880629e-17
vn -5.1503807491005404e-01 -8.5716730070211222e-01 3.1536986493880617e-17
vn -4.4603605678833985e-01 -8.5716730070211222e-01 2.5751903745502663e-01
vn -2.5751903745502680e-01 -8.5716730070211244e-01 -4.4603605678833969e-01
vn -2.5751903745502697e-01 -8.5716730070211222e-01 -4.4603605678833957e-01
vn -4.4603605678833941e-01 -8.5716730070211233e-01 -2.5751903745502713e-01
vn 2.5751903745502680e-01 -8.5716730070211244e-01 -4.4603605678833969e-01
vn 2.5751903745502719e-01 -8.5716730070211222e-01 -4.4603605678833941e-01
vn 6.3073972987761259e-17 -8.5716730070211233e-01 -5.1503807491005416e-01
vn 5.1503807491005416e-01 -8.5716730070211233e-01 3.1536986493880629e-17
vn 5.1503807491005404e-01 -8.5716730070211222e-01 3.1536986493880617e-17
vn 4.4603605678833957e-01 -8.5716730070211233e-01 -2.5751903745502686e-01
vn 2.5751903745502686e-01 -8.5716730070211233e-01 4.4603605678833957e-01
vn 2.5751903745502691e-01 -8.5716730070211222e-01 4.4603605678833957e-01
vn 4.4603605678833957e-01 -8.5716730070211233e-01 2.5751903745502686e-01
vn -6.3073972987761259e-17 -8.5716730070211233e-01 -5.1503807491005416e-01
vn -6.3073972987761234e-17 -8.5716730070211222e-01 -5.1503807491005404e-01
vn -4.4603605678833957e-01 -8.5716730070211222e-01 2.5751903745502697e-01
vn 4.4603605678833957e-01 -8.5716730070211222e-01 2.5751903745502697e-01
vn -4.4603605678833946e-01 -8.5716730070211222e-01 -2.5751903745502713e-01
vn -0.0000000000000000e+00 -8.5716730070211222e-01 5.1503807491005404e-01
vn 4.4603605678833969e-01 -8.5716730070211222e-01 -2.5751903745502669e-01
vn -5.0000000000000000e-01 0.0000000000000000e+00 8.6602540378443860e-01
vn 0.0000000000000000e+00 -0.0000000000000000e+00 1.0000000000000000e+00
vn 4.9999999999999972e-01 -0.0000000000000000e+00 8.6602540378443882e-01
vn 8.6602540378443882e-01 -0.0000000000000000e+00 4.9999999999999972e-01
vn 1.0000000000000000e+00 -0.0000000000000000e+00 6.1232339957367660e-17
vn 8.6602540378443882e-01 0.0000000000000000e+00 -4.9999999999999972e-01
vn 4.9999999999999961e-01 0.0000000000000000e+00 -8.6602540378443893e-01
vn 1.2246467991473532e-16 0.0000000000000000e+00 -1.0000000000000000e+00
vn -1.2246467991473532e-16 0.0000000000000000e+00 -1.0000000000000000e+00
vn -4.9999999999999961e-01 0.0000000000000000e+00 -8.6602540378443893e-01
vn -8.6602540378443849e-01 0.0000000000000000e+00 -5.0000000000000022e-01
vn -1.0000000000000000e+00 0.0000000000000000e+00 6.1232339957367660e-17
vn -8.6602540378443915e-01 0.0000000000000000e+00 4.9999999999999917e-01
vn -2.5751903745502652e-01 -8.5716730070211233e-01 4.4603605678833991e-01
vn -5.1503807491005404e-01 -8.5716730070211222e-01 3.1536986493880623e-17
vn -2.5751903745502647e-01 -8.5716730070211233e-01 -4.4603605678833996e-01
vn 2.5751903745502647e-01 -8.5716730070211233e-01 -4.4603605678833996e-01
vn 5.1503807491005404e-01 -8.5716730070211222e-01 3.1536986493880623e-17
vn 2.5751903745502647e-01 -8.5716730070211233e-01 4.4603605678833996e-01
vn -4.9999999999999895e-01 0.0000000000000000e+00 8.6602540378443926e-01
vn 4.9999999999999867e-01 -0.0000000000000000e+00 8.6602540378443937e-01
vn 4.9999999999999878e-01 0.0000000000000000e+00 -8.6602540378443937e-01
vn -4.9999999999999878e-01 0.0000000000000000e+00 -8.6602540378443937e-01
vn 3.4712600513736788e-14 7.0710678118654857e-01 7.0710678118654657e-01
vn -7.0710678118651116e-01 0.0000000000000000e+00 7.0710678118658399e-01
vn 7.0710678118658166e-01 -0.0000000000000000e+00 7.0710678118651338e-01
vn -0.0000000000000000e+00 -1.0000000000000000e+00 -0.0000000000000000e+00
vn -0.0000000000000000e+00 1.0000000000000000e+00 -0.0000000000000000e+00
vn 4.9091030431765907e-14 0.0000000000000000e+00 1.0000000000000000e+00
vn -4.9091030431765907e-14 -0.0000000000000000e+00 -1.0000000000000000e+00
vn 1.0000000000000000e+00 -0.0000000000000000e+00 -4.9091030431765907e-14

g face 0
f 2//1 18//2 1//3
f 1//3 18//2 19//3
f 1//4 19//4 12//5
f 12//5 19//4 20//6
f 12//5 20//6 11//7
f 11//7 20//6 21//8
f 11//7 21//8 10//9
f 10//9 21//8 22//10
f 10//9 22//10 9//11
f 9//11 22//10 23//12
f 9//11 23//12 8//13
f 8//13 23//12 24//14
f 8//13 24//14 7//15
f 7//15 24//14 13//15
f 7//15 13//15 6//16
f 6//16 13//15 14//17
f 6//16 14//17 5//18
f 5//18 14//17 15//19
f 5//18 15//19 4//20
f 4//20 15//19 16//21
f 4//20 16//21 3//22
f 3//22 16//21 17//23
f 3//22 17//23 2//1
f 2//1 17//23 18//2

g face 1
f 26//24 37//25 25//26
f 28//27 37//28 27//29
f 30//30 37//31 29//32
f 32//33 37//34 31//35
f 34//36 37//37 33//38
f 36//39 37//40 35//41
f 31//42 37//43 30//30
f 27//29 37//44 26//24
f 35//41 37//45 34//36
f 29//32 37//46 28//27
f 25//26 37//47 36//39
f 33//38 37//48 32//33

g face 2
f 39//49 26//50 38//51
f 38//51 26//50 25//51
f 38//51 25//51 49//52
f 49//52 25//51 36//53
f 49//52 36//53 48//54
f 48//54 36//53 35//55
f 48//54 35//55 47//56
f 47//56 35//55 34//57
f 47//56 34//57 46//58
f 46//58 34//57 33//58
f 46//58 33//58 45//59
f 45//59 33//58 32//60
f 45//59 32//60 44//61
f 44//61 32//60 31//61
f 44//62 31//62 43//63
f 43//63 31//62 30//64
f 43//63 30//64 42//65
f 42//65 30//64 29//66
f 42//65 29//66 41//67
f 41//67 29//66 28//68
f 41//67 28//68 40//69
f 40//69 28//68 27//70
f 40//69 27//70 39//49
f 39//49 27//70 26//50

g face 3
f 51//71 62//72 50//73
f 53//74 62//75 52//76
f 55//77 62//78 54//79
f 57//80 62//81 56//82
f 59//83 62//84 58//85
f 61//86 62//87 60//88
f 56//89 62//90 55//77
f 52//76 62//91 51//71
f 60//88 62//92 59//83
f 54//79 62//93 53//74
f 50//73 62//94 61//86
f 58//85 62//95 57//80

g face 4
f 64//96 51//96 63//97
f 63//97 51//96 50//97
f 63//97 50//97 74//98
f 74//98 50//97 61//98
f 74//98 61//98 73//99
f 73//99 61//98 60//99
f 73//99 60//99 72//100
f 72//100 60//99 59//100
f 72//100 59//100 71//101
f 71//101 59//100 58//101
f 71//101 58//101 70//102
f 70//102 58//101 57//102
f 70//102 57//102 69//103
f 69//103 57//102 56//103
f 69//104 56//104 68//105
f 68//105 56//104 55//105
f 68//105 55//105 67//106
f 67//106 55//105 54//106
f 67//106 54//106 66//107
f 66//107 54//106 53//107
f 66//107 53//107 65//108
f 65//108 53//107 52//108
f 65//108 52//108 64//96
f 64//96 52//108 51//96

g face 5
f 76//109 87//72 75//73
f 78//110 87//75 77//76
f 80//111 87//78 79//79
f 82//112 87//81 81//82
f 84//113 87//84 83//85
f 86//114 87//87 85//88
f 81//89 87//90 80//111
f 77//76 87//91 76//109
f 85//88 87//92 84//113
f 79//79 87//93 78//110
f 75//73 87//94 86//114
f 83//85 87//95 82//112

g face 6
f 89//115 76//115 88//97
f 88//97 76//115 75//97
f 88//97 75//97 99//116
f 99//116 75//97 86//116
f 99//116 86//116 98//99
f 98//99 86//116 85//99
f 98//99 85//99 97//100
f 97//100 85//99 84//100
f 97//100 84//100 96//101
f 96//101 84//100 83//101
f 96//101 83//101 95//117
f 95//117 83//101 82//117
f 95//117 82//117 94//103
f 94//103 82//117 81//103
f 94//104 81//104 93//118
f 93//118 81//104 80//118
f 93//118 80//118 92//106
f 92//106 80//118 79//106
f 92//106 79//106 91//107
f 91//107 79//106 78//107
f 91//107 78//107 90//108
f 90//108 78//107 77//108
f 90//108 77//108 89//115
f 89//115 77//108 76//115

g face 7
f 100//119 101//119 103//119
f 103//119 101//119 102//119

g face 8
f 101//120 104//120 102//120
f 102//120 104//120 105//120

g face 9
f 106//121 107//121 103//121
f 103//121 107//121 100//121

g face 10
f 74//122 108//122 63//122
f 63//122 108//122 109//122
f 63//122 109//122 88//122
f 88//122 109//122 89//122
f 89//122 109//122 90//122
f 90//122 109//122 91//122
f 91//122 109//122 107//122
f 91//122 107//122 92//122
f 92//122 107//122 93//122
f 93//122 107//122 94//122
f 94//122 107//122 106//122
f 94//122 106//122 69//122
f 69//122 106//122 105//122
f 69//122 105//122 104//122
f 74//122 73//122 108//122
f 108//122 73//122 72//122
f 108//122 72//122 104//122
f 104//122 72//122 71//122
f 104//122 71//122 70//122
f 70//122 69//122 104//122
f 94//122 69//122 95//122
f 95//122 69//122 68//122
f 95//122 68//122 67//122
f 95//122 67//122 96//122
f 96//122 67//122 66//122
f 96//122 66//122 97//122
f 97//122 66//122 98//122
f 98//122 66//122 65//122
f 98//122 65//122 99//122
f 99//122 65//122 64//122
f 99//122 64//122 63//122
f 88//122 99//122 63//122

g face 11
f 101//15 110//15 104//15
f 104//15 110//15 108//15

g face 12
f 100//123 111//123 101//123
f 101//123 111//123 110//123

g face 13
f 24//124 39//124 13//124
f 13//124 39//124 38//124
f 13//124 38//124 106//124
f 106//124 38//124 49//124
f 106//124 49//124 48//124
f 39//124 24//124 40//124
f 40//124 24//124 23//124
f 40//124 23//124 41//124
f 41//124 23//124 22//124
f 41//124 22//124 21//124
f 41//124 21//124 42//124
f 42//124 21//124 20//124
f 42//124 20//124 43//124
f 43//124 20//124 19//124
f 43//124 19//124 44//124
f 44//124 19//124 105//124
f 44//124 105//124 45//124
f 45//124 105//124 46//124
f 46//124 105//124 47//124
f 47//124 105//124 106//124
f 47//124 106//124 48//124
f 105//124 19//124 102//124
f 102//124 19//124 18//124
f 102//124 18//124 17//124
f 17//124 16//124 102//124
f 102//124 16//124 103//124
f 103//124 16//124 15//124
f 103//124 15//124 14//124
f 14//124 13//124 103//124
f 103//124 13//124 106//124

g face 14
f 12//125 108//125 1//125
f 1//125 108//125 110//125
f 1//125 110//125 2//125
f 2//125 110//125 3//125
f 3//125 110//125 4//125
f 4//125 110//125 111//125
f 4//125 111//125 5//125
f 5//125 111//125 6//125
f 6//125 111//125 7//125
f 7//125 111//125 109//125
f 7//125 109//125 8//125
f 8//125 109//125 9//125
f 9//125 109//125 10//125
f 10//125 109//125 108//125
f 10//125 108//125 11//125
f 11//125 108//125 12//125

g face 15
f 107//126 109//126 100//126
f 100//126 109//126 111//126

g halfedge 0 edge 0
l 1 12 11 10 9 8 7 6 5 4 3 2 1

g halfedge 1 edge 0
l 1 2 3 4 5 6 7 8 9 10 11 12 1

g halfedge 2 edge 1
l 13 24 23 22 21 20 19 18 17 16 15 14 13

g halfedge 3 edge 1
l 13 14 15 16 17 18 19 20 21 22 23 24 13

g halfedge 4 edge 2
l 25 36 35 34 33 32 31 30 29 28 27 26 25

g halfedge 5 edge 2
l 25 26 27 28 29 30 31 32 33 34 35 36 25

g halfedge 6 edge 3
l

g halfedge 7 edge 4
l 38 49 48 47 46 45 44 43 42 41 40 39 38

g halfedge 8 edge 4
l 38 39 40 41 42 43 44 45 46 47 48 49 38

g halfedge 9 edge 5
l 50 61 60 59 58 57 56 55 54 53 52 51 50

g halfedge 10 edge 5
l 50 51 52 53 54 55 56 57 58 59 60 61 50

g halfedge 11 edge 6
l

g halfedge 12 edge 7
l 63 74 73 72 71 70 69 68 67 66 65 64 63

g halfedge 13 edge 7
l 63 64 65 66 67 68 69 70 71 72 73 74 63

g halfedge 14 edge 8
l 75 86 85 84 83 82 81 80 79 78 77 76 75

g halfedge 15 edge 8
l 75 76 77 78 79 80 81 82 83 84 85 86 75

g halfedge 16 edge 9
l

g halfedge 17 edge 10
l 88 99 98 97 96 95 94 93 92 91 90 89 88

g halfedge 18 edge 10
l 88 89 90 91 92 93 94 95 96 97 98 99 88

g halfedge 19 edge 11
l 101 100

g halfedge 20 edge 11
l 100 101

g halfedge 21 edge 12
l 101 102

g halfedge 22 edge 12
l 102 101

g halfedge 23 edge 13
l 103 102

g halfedge 24 edge 13
l 102 103

g halfedge 25 edge 14
l 103 100

g halfedge 26 edge 14
l 100 103

g halfedge 27 edge 15
l 104 101

g halfedge 28 edge 15
l 101 104

g halfedge 29 edge 16
l 105 104

g halfedge 30 edge 16
l 104 105

g halfedge 31 edge 17
l 102 105

g halfedge 32 edge 17
l 105 102

g halfedge 33 edge 18
l 106 103

g halfedge 34 edge 18
l 103 106

g halfedge 35 edge 19
l 107 106

g halfedge 36 edge 19
l 106 107

g halfedge 37 edge 20
l 100 107

g halfedge 38 edge 20
l 107 100

g halfedge 39 edge 21
l 108 104

g halfedge 40 edge 21
l 104 108

g halfedge 41 edge 22
l 108 109

g halfedge 42 edge 22
l 109 108

g halfedge 43 edge 23
l 109 107

g halfedge 44 edge 23
l 107 109

g halfedge 45 edge 24
l 106 105

g halfedge 46 edge 24
l 105 106

g halfedge 47 edge 25
l 110 101

g halfedge 48 edge 25
l 101 110

g halfedge 49 edge 26
l 110 108

g halfedge 50 edge 26
l 108 110

g halfedge 51 edge 27
l 100 111

g halfedge 52 edge 27
l 111 100

g halfedge 53 edge 28
l 111 110

g halfedge 54 edge 28
l 110 111

g halfedge 55 edge 29
l 109 111

g halfedge 56 edge 29
l 111 109

g vertex 0
p 1

g vertex 1
p 13

g vertex 2
p 25

g vertex 3
p 37

g vertex 4
p 38

g vertex 5
p 50

g vertex 6
p 62

g vertex 7
p 63

g vertex 8
p 75

g vertex 9
p 87

g vertex 10
p 88

g vertex 11
p 100

g vertex 12
p 101

g vertex 13
p 102

g vertex 14
p 103

g vertex 15
p 104

g vertex 16
p 105

g vertex 17
p 106

g vertex 18
p 107

g vertex 19
p 108

g vertex 20
p 109

g vertex 21
p 110

g vertex 22
p 111

# End of file
