# WaveFront *.obj file
# Vertices: 89
# Triangles : 178

v 1.1125200405311586e+00 -1.9285737792972499e-17 0.0000000000000000e+00
v 1.1261349018616018e+00 -6.4052886551576982e-02 0.0000000000000000e+00
v 1.1646253526417656e+00 -1.1703044711617992e-01 0.0000000000000000e+00
v 1.2213360442569918e+00 -1.4977238018616065e-01 0.0000000000000000e+00
v 1.2864611829265484e+00 -1.5661730808259552e-01 0.0000000000000000e+00
v 1.3487400405311583e+00 -1.3638168058797326e-01 0.0000000000000000e+00
v 1.3974040368053251e+00 -9.2564421531018570e-02 0.0000000000000000e+00
v 1.4240387246947179e+00 -3.2741933069980751e-02 0.0000000000000000e+00
v 1.4240387246947179e+00 3.2741933069980682e-02 0.0000000000000000e+00
v 1.3974040368053251e+00 9.2564421531018570e-02 0.0000000000000000e+00
v 1.3487400405311585e+00 1.3638168058797323e-01 0.0000000000000000e+00
v 1.2864611829265487e+00 1.5661730808259552e-01 0.0000000000000000e+00
v 1.2213360442569918e+00 1.4977238018616065e-01 0.0000000000000000e+00
v 1.1646253526417656e+00 1.1703044711617996e-01 0.0000000000000000e+00
v 1.1261349018616018e+00 6.4052886551577051e-02 0.0000000000000000e+00
v 9.5250004053115855e-01 3.8882535872928452e-17 1.6002000000000000e-01
v 9.6660567469405878e-01 9.3584767875462049e-02 1.6002000000000000e-01
v 1.0076692296858303e+00 1.7885411843519999e-01 1.6002000000000000e-01
v 1.0720420284410106e+00 2.4823149568359942e-01 1.6002000000000000e-01
v 1.1540042652948281e+00 2.9555241519453479e-01 1.6002000000000000e-01
v 1.2462732358174688e+00 3.1661220560502457e-01 1.6002000000000000e-01
v 1.3406504370622883e+00 3.0953961211772890e-01 1.6002000000000000e-01
v 1.4287500405311584e+00 2.7496306570155915e-01 1.6002000000000000e-01
v 1.5027440098371283e+00 2.1595484424226680e-01 1.6002000000000000e-01
v 1.5560576560901764e+00 1.3775808716982466e-01 1.6002000000000000e-01
v 1.5839538278576366e+00 4.7320919510935276e-02 1.6002000000000000e-01
v 1.5839538278576366e+00 -4.7320919510935415e-02 1.6002000000000000e-01
v 1.5560576560901764e+00 -1.3775808716982466e-01 1.6002000000000000e-01
v 1.5027440098371281e+00 -2.1595484424226688e-01 1.6002000000000000e-01
v 1.4287500405311582e+00 -2.7496306570155926e-01 1.6002000000000000e-01
v 1.3406504370622883e+00 -3.0953961211772890e-01 1.6002000000000000e-01
v 1.2462732358174686e+00 -3.1661220560502457e-01 1.6002000000000000e-01
v 1.1540042652948279e+00 -2.9555241519453468e-01 1.6002000000000000e-01
v 1.0720420284410106e+00 -2.4823149568359942e-01 1.6002000000000000e-01
v 1.0076692296858301e+00 -1.7885411843519988e-01 1.6002000000000000e-01
v 9.6660567469405878e-01 -9.3584767875461911e-02 1.6002000000000000e-01
v 9.5250004053115855e-01 -3.8882535872928452e-17 3.6512500000000001e+00
v 9.6660567469405878e-01 9.3584767875461911e-02 3.6512500000000001e+00
v 1.0076692296858301e+00 1.7885411843519988e-01 3.6512500000000001e+00
v 1.0720420284410106e+00 2.4823149568359942e-01 3.6512500000000001e+00
v 1.1540042652948279e+00 2.9555241519453468e-01 3.6512500000000001e+00
v 1.2462732358174686e+00 3.1661220560502457e-01 3.6512500000000001e+00
v 1.3406504370622883e+00 3.0953961211772890e-01 3.6512500000000001e+00
v 1.4287500405311582e+00 2.7496306570155926e-01 3.6512500000000001e+00
v 1.5027440098371281e+00 2.1595484424226688e-01 3.6512500000000001e+00
v 1.5560576560901764e+00 1.3775808716982466e-01 3.6512500000000001e+00
v 1.5839538278576366e+00 4.7320919510935415e-02 3.6512500000000001e+00
v 1.5839538278576366e+00 -4.7320919510935276e-02 3.6512500000000001e+00
v 1.5560576560901764e+00 -1.3775808716982466e-01 3.6512500000000001e+00
v 1.5027440098371283e+00 -2.1595484424226680e-01 3.6512500000000001e+00
v 1.4287500405311584e+00 -2.7496306570155915e-01 3.6512500000000001e+00
v 1.3406504370622883e+00 -3.0953961211772890e-01 3.6512500000000001e+00
v 1.2462732358174688e+00 -3.1661220560502457e-01 3.6512500000000001e+00
v 1.1540042652948281e+00 -2.9555241519453479e-01 3.6512500000000001e+00
v 1.0720420284410106e+00 -2.4823149568359942e-01 3.6512500000000001e+00
v 1.0076692296858303e+00 -1.7885411843519999e-01 3.6512500000000001e+00
v 9.6660567469405878e-01 -9.3584767875462049e-02 3.6512500000000001e+00
v 1.5382669201531289e+00 -1.6982088004097456e-01 6.4897011348724376e-01
v 1.5583584374467738e+00 -1.3287469632206025e-01 6.4058699633167926e-01
v 1.5715224926160312e+00 -9.9450796238889930e-02 6.1696499308718544e-01
v 1.5783143418775105e+00 -7.5819137369049855e-02 5.8169288222262183e-01
v 1.5803128808132045e+00 -6.7172845377351437e-02 5.3975011348724400e-01
v 1.5783143418775103e+00 -7.5819137369049772e-02 4.9780734475186594e-01
v 1.5715224926160316e+00 -9.9450796238889888e-02 4.6253523388730228e-01
v 1.5583584374467740e+00 -1.3287469632206034e-01 4.3891323064280807e-01
v 1.5382669201531289e+00 -1.6982088004097456e-01 4.3053011348724379e-01
v 1.5134685436083086e+00 -2.0378748245119296e-01 4.3891323064280807e-01
v 1.4888900352678891e+00 -2.2998569561600501e-01 4.6253523388730189e-01
v 1.4704361081859452e+00 -2.4623491383059740e-01 4.9780734475186561e-01
v 1.4634761153450138e+00 -2.5174045855726734e-01 5.3975011348724378e-01
v 1.4704361081859452e+00 -2.4623491383059740e-01 5.8169288222262205e-01
v 1.4888900352678891e+00 -2.2998569561600507e-01 6.1696499308718555e-01
v 1.5134685436083082e+00 -2.0378748245119291e-01 6.4058699633167959e-01
v 9.5968720024911303e-01 6.7172845377352575e-02 5.3975011348724378e-01
v 9.6168573918480693e-01 7.5819137369050799e-02 4.9780734475186567e-01
v 9.6847758844628562e-01 9.9450796238890846e-02 4.6253523388730183e-01
v 9.8164164361554329e-01 1.3287469632206131e-01 4.3891323064280796e-01
v 1.0017331609091880e+00 1.6982088004097518e-01 4.3053011348724390e-01
v 1.0265315374540087e+00 2.0378748245119352e-01 4.3891323064280796e-01
v 1.0511100457944282e+00 2.2998569561600571e-01 4.6253523388730233e-01
v 1.0695639728763724e+00 2.4623491383059792e-01 4.9780734475186589e-01
v 1.0765239657173040e+00 2.5174045855726845e-01 5.3975011348724378e-01
v 1.0695639728763726e+00 2.4623491383059795e-01 5.8169288222262205e-01
v 1.0511100457944278e+00 2.2998569561600565e-01 6.1696499308718544e-01
v 1.0265315374540085e+00 2.0378748245119349e-01 6.4058699633167959e-01
v 1.0017331609091880e+00 1.6982088004097501e-01 6.4897011348724376e-01
v 9.8164164361554318e-01 1.3287469632206123e-01 6.4058699633167948e-01
v 9.6847758844628551e-01 9.9450796238890776e-02 6.1696499308718566e-01
v 9.6168573918480693e-01 7.5819137369050812e-02 5.8169288222262194e-01

vn -6.4597418802125084e-01 -2.8760623847595085e-01 -7.0710678118654757e-01
vn -6.7569201088883590e-01 -2.0842338261577356e-01 -7.0710678118654768e-01
vn -7.0710678118654746e-01 -8.6595605623549316e-17 -7.0710678118654779e-01
vn -7.0710678118654735e-01 -8.6595605623549316e-17 -7.0710678118654757e-01
vn -7.0710678118654746e-01 8.6595605623549316e-17 -7.0710678118654779e-01
vn -7.0710678118654735e-01 8.6595605623549316e-17 -7.0710678118654757e-01
vn -6.7569201088883579e-01 2.0842338261577389e-01 -7.0710678118654779e-01
vn -5.8423904019810147e-01 -3.9832743303518658e-01 -7.0710678118654768e-01
vn -4.7314678925581494e-01 -5.2548274549875884e-01 -7.0710678118654757e-01
vn -4.4087386689496733e-01 -5.5283834299827517e-01 -7.0710678118654779e-01
vn -2.1850801222441027e-01 -6.7249851196395727e-01 -7.0710678118654768e-01
vn -2.5833511577511792e-01 -6.5822714009485839e-01 -7.0710678118654757e-01
vn -5.2842155933666229e-02 -7.0512956721178688e-01 -7.0710678118654757e-01
vn 7.3912785203566381e-02 -7.0323317625340409e-01 -7.0710678118654768e-01
vn 1.5734606135647383e-01 -6.8937813787181024e-01 -7.0710678118654757e-01
vn 3.5355339059327340e-01 -6.1237243569579469e-01 -7.0710678118654768e-01
vn 3.5355339059327323e-01 -6.1237243569579469e-01 -7.0710678118654757e-01
vn 5.1834594953236168e-01 -4.8095475525603665e-01 -7.0710678118654768e-01
vn 5.7206140281768436e-01 -4.1562693777745324e-01 -7.0710678118654768e-01
vn 6.3708119613176717e-01 -3.0680213417660018e-01 -7.0710678118654768e-01
vn 6.9165480148022540e-01 -1.4701576646519873e-01 -7.0710678118654768e-01
vn 6.9920898267008480e-01 -1.0538879709658346e-01 -7.0710678118654768e-01
vn 6.9165480148022540e-01 1.4701576646519837e-01 -7.0710678118654768e-01
vn 6.9920898267008480e-01 1.0538879709658314e-01 -7.0710678118654768e-01
vn 6.3708119613176717e-01 3.0680213417660018e-01 -7.0710678118654768e-01
vn 5.7206140281768436e-01 4.1562693777745324e-01 -7.0710678118654768e-01
vn 5.1834594953236213e-01 4.8095475525603631e-01 -7.0710678118654768e-01
vn 3.5355339059327417e-01 6.1237243569579425e-01 -7.0710678118654768e-01
vn 3.5355339059327379e-01 6.1237243569579436e-01 -7.0710678118654757e-01
vn 1.5734606135647383e-01 6.8937813787181024e-01 -7.0710678118654757e-01
vn 7.3912785203567297e-02 7.0323317625340398e-01 -7.0710678118654768e-01
vn -5.2842155933665765e-02 7.0512956721178699e-01 -7.0710678118654757e-01
vn -2.1850801222441027e-01 6.7249851196395727e-01 -7.0710678118654768e-01
vn -2.5833511577511742e-01 6.5822714009485850e-01 -7.0710678118654768e-01
vn -4.7314678925581471e-01 5.2548274549875895e-01 -7.0710678118654768e-01
vn -4.4087386689496733e-01 5.5283834299827517e-01 -7.0710678118654779e-01
vn -5.8423904019810124e-01 3.9832743303518686e-01 -7.0710678118654757e-01
vn -6.4597418802125073e-01 2.8760623847595113e-01 -7.0710678118654768e-01
vn -9.5557280578614079e-01 2.9475517441090376e-01 -0.0000000000000000e+00
vn -9.7736327647888366e-01 2.1156801693654342e-01 -0.0000000000000000e+00
vn -1.0000000000000000e+00 1.2246467991473532e-16 -0.0000000000000000e+00
vn -1.0000000000000000e+00 -1.2246467991473532e-16 0.0000000000000000e+00
vn -9.5557280578614068e-01 -2.9475517441090415e-01 0.0000000000000000e+00
vn -9.5557280578614079e-01 -2.9475517441090376e-01 0.0000000000000000e+00
vn -8.2623877431599468e-01 -5.6332005806362218e-01 0.0000000000000000e+00
vn -8.2623877431599502e-01 -5.6332005806362184e-01 0.0000000000000000e+00
vn -6.2348980185873348e-01 -7.8183148246803003e-01 0.0000000000000000e+00
vn -3.6534102436639493e-01 -9.3087374864420436e-01 0.0000000000000000e+00
vn -3.6534102436639554e-01 -9.3087374864420402e-01 0.0000000000000000e+00
vn -7.4730093586424046e-02 -9.9720379718118024e-01 0.0000000000000000e+00
vn -7.4730093586424726e-02 -9.9720379718118024e-01 0.0000000000000000e+00
vn 2.2252093395631445e-01 -9.7492791218182362e-01 -0.0000000000000000e+00
vn 5.0000000000000011e-01 -8.6602540378443860e-01 -0.0000000000000000e+00
vn 4.9999999999999933e-01 -8.6602540378443915e-01 -0.0000000000000000e+00
vn 6.0937346398064740e-01 -7.9288333403863831e-01 -0.0000000000000000e+00
vn 6.3129470125589360e-01 -7.7554303566354865e-01 -0.0000000000000000e+00
vn 7.3305187182982601e-01 -6.8017273777091969e-01 -0.0000000000000000e+00
vn 6.8941730631273457e-01 -7.2436439569907984e-01 -0.0000000000000000e+00
vn 7.6682993097286412e-01 -6.4185033844670736e-01 -0.0000000000000000e+00
vn 8.4493505392746659e-01 -5.3486891351488097e-01 -0.0000000000000000e+00
vn 9.0096886790241926e-01 -4.3388373911755812e-01 -0.0000000000000000e+00
vn 9.0821542338139061e-01 -4.1850298055349794e-01 -0.0000000000000000e+00
vn 9.4967701451674180e-01 -3.1323085432084791e-01 -0.0000000000000000e+00
vn 9.8883082622512852e-01 -1.4904226617617461e-01 -0.0000000000000000e+00
vn 9.7106866562853644e-01 -2.3880043265122786e-01 -0.0000000000000000e+00
vn 9.7736327647888432e-01 -2.1156801693653970e-01 -0.0000000000000000e+00
vn 9.8883082622512852e-01 -1.4904226617617419e-01 -0.0000000000000000e+00
vn 9.7106866562853644e-01 -2.3880043265122797e-01 -0.0000000000000000e+00
vn 9.4967701451674169e-01 -3.1323085432084846e-01 -0.0000000000000000e+00
vn 9.0821542338139061e-01 -4.1850298055349805e-01 -0.0000000000000000e+00
vn 7.3305187182982656e-01 -6.8017273777091913e-01 -0.0000000000000000e+00
vn 7.6682993097286356e-01 -6.4185033844670780e-01 -0.0000000000000000e+00
vn 6.8941730631273446e-01 -7.2436439569907995e-01 -0.0000000000000000e+00
vn -8.2623877431599502e-01 5.6332005806362184e-01 -0.0000000000000000e+00
vn -9.0821542338138928e-01 4.1850298055350088e-01 -0.0000000000000000e+00
vn -9.4967701451674080e-01 3.1323085432085090e-01 -0.0000000000000000e+00
vn -9.7106866562853567e-01 2.3880043265123133e-01 -0.0000000000000000e+00
vn -6.2348980185873348e-01 7.8183148246803003e-01 -0.0000000000000000e+00
vn -7.6682993097286301e-01 6.4185033844670847e-01 -0.0000000000000000e+00
vn -8.4493505392746582e-01 5.3486891351488197e-01 -0.0000000000000000e+00
vn -3.6534102436639554e-01 9.3087374864420402e-01 -0.0000000000000000e+00
vn -6.0937346398064374e-01 7.9288333403864086e-01 -0.0000000000000000e+00
vn -6.3129470125589104e-01 7.7554303566355065e-01 -0.0000000000000000e+00
vn -6.8941730631273346e-01 7.2436439569908084e-01 -0.0000000000000000e+00
vn -7.4730093586424726e-02 9.9720379718118024e-01 -0.0000000000000000e+00
vn -7.4730093586424046e-02 9.9720379718118024e-01 -0.0000000000000000e+00
vn -3.6534102436639493e-01 9.3087374864420436e-01 -0.0000000000000000e+00
vn -6.3129470125589171e-01 7.7554303566355010e-01 -0.0000000000000000e+00
vn -6.8941730631273290e-01 7.2436439569908140e-01 -0.0000000000000000e+00
vn -7.6682993097286245e-01 6.4185033844670913e-01 -0.0000000000000000e+00
vn -8.2623877431599468e-01 5.6332005806362218e-01 -0.0000000000000000e+00
vn -8.4493505392746571e-01 5.3486891351488230e-01 -0.0000000000000000e+00
vn -9.5557280578614068e-01 2.9475517441090415e-01 -0.0000000000000000e+00
vn 2.2252093395631445e-01 9.7492791218182362e-01 -0.0000000000000000e+00
vn 5.0000000000000011e-01 8.6602540378443860e-01 -0.0000000000000000e+00
vn 4.9999999999999933e-01 8.6602540378443915e-01 -0.0000000000000000e+00
vn 7.3305187182982656e-01 6.8017273777091913e-01 -0.0000000000000000e+00
vn 7.3305187182982601e-01 6.8017273777091969e-01 -0.0000000000000000e+00
vn 9.0096886790241926e-01 4.3388373911755812e-01 -0.0000000000000000e+00
vn 9.8883082622512852e-01 1.4904226617617419e-01 -0.0000000000000000e+00
vn 9.8883082622512852e-01 1.4904226617617461e-01 -0.0000000000000000e+00
vn -0.0000000000000000e+00 -0.0000000000000000e+00 -1.0000000000000000e+00
vn -2.0550216925185655e-01 -3.2463278771986054e-01 9.2324558573004456e-01
vn -2.0550216925185444e-01 -3.2463278771985721e-01 9.2324558573004634e-01
vn 2.2237791000287857e-15 3.5129147840320689e-15 1.0000000000000000e+00
vn -3.2751275144971071e-17 -5.1737350463983413e-17 1.0000000000000000e+00
vn 2.0550216925185835e-01 3.2463278771986337e-01 9.2324558573004312e-01
vn 2.0550216925185635e-01 3.2463278771986026e-01 9.2324558573004478e-01
vn 3.7828446000722199e-01 5.9757782241579493e-01 7.0696648681096697e-01
vn -3.7828446000722199e-01 -5.9757782241579493e-01 7.0696648681096697e-01
vn -3.7828446000722321e-01 -5.9757782241579693e-01 7.0696648681096463e-01
vn -4.9385750653523208e-01 -7.8014913256913587e-01 3.8402095540533715e-01
vn -4.9385750653523192e-01 -7.8014913256913576e-01 3.8402095540533759e-01
vn -5.3486891351488086e-01 -8.4493505392746648e-01 -0.0000000000000000e+00
vn -5.3486891351488086e-01 -8.4493505392746648e-01 -2.0330031580757122e-15
vn -4.9385750653523164e-01 -7.8014913256913521e-01 -3.8402095540533926e-01
vn -4.9385750653523136e-01 -7.8014913256913476e-01 -3.8402095540534031e-01
vn -3.7828446000722166e-01 -5.9757782241579427e-01 -7.0696648681096752e-01
vn -2.0550216925185688e-01 -3.2463278771986109e-01 -9.2324558573004434e-01
vn -2.0550216925185444e-01 -3.2463278771985721e-01 -9.2324558573004634e-01
vn 2.2237791000287857e-15 3.5129147840320689e-15 -1.0000000000000000e+00
vn 2.0550216925185835e-01 3.2463278771986337e-01 -9.2324558573004312e-01
vn 2.0550216925185824e-01 3.2463278771986320e-01 -9.2324558573004334e-01
vn 3.7828446000722132e-01 5.9757782241579394e-01 -7.0696648681096819e-01
vn 3.7828446000722216e-01 5.9757782241579527e-01 -7.0696648681096652e-01
vn 4.9385750653523125e-01 7.8014913256913465e-01 -3.8402095540534081e-01
vn 4.9385750653523114e-01 7.8014913256913454e-01 -3.8402095540534120e-01
vn 5.3486891351488086e-01 8.4493505392746648e-01 -1.2246467991473532e-16
vn 5.3486891351488086e-01 8.4493505392746648e-01 1.2246467991473532e-16
vn 4.9385750653523125e-01 7.8014913256913465e-01 3.8402095540534081e-01
vn 4.9385750653523158e-01 7.8014913256913498e-01 3.8402095540533954e-01
vn 3.7828446000722099e-01 5.9757782241579338e-01 7.0696648681096874e-01
vn 0.0000000000000000e+00 0.0000000000000000e+00 1.0000000000000000e+00

g face 0
f 2//1 36//2 1//3
f 1//3 36//2 16//4
f 1//5 16//6 17//7
f 36//2 2//1 35//8
f 35//8 2//1 3//9
f 35//8 3//9 34//10
f 34//10 3//9 4//11
f 34//10 4//11 33//12
f 33//12 4//11 32//13
f 32//13 4//11 5//14
f 32//13 5//14 31//15
f 31//15 5//14 6//16
f 31//15 6//16 30//17
f 30//17 6//16 29//18
f 29//18 6//16 7//19
f 29//18 7//19 28//20
f 28//20 7//19 8//21
f 28//20 8//21 27//22
f 27//22 8//21 9//23
f 27//22 9//23 26//24
f 26//24 9//23 25//25
f 25//25 9//23 10//26
f 25//25 10//26 24//27
f 24//27 10//26 11//28
f 24//27 11//28 23//29
f 23//29 11//28 22//30
f 22//30 11//28 12//31
f 22//30 12//31 21//32
f 21//32 12//31 13//33
f 21//32 13//33 20//34
f 20//34 13//33 14//35
f 20//34 14//35 19//36
f 19//36 14//35 18//37
f 18//37 14//35 15//38
f 18//37 15//38 17//7
f 17//7 15//38 1//5

g face 1
f 38//39 74//40 37//41
f 37//41 74//40 16//41
f 37//42 16//42 57//43
f 57//43 16//42 36//44
f 57//43 36//44 56//45
f 56//45 36//44 35//46
f 56//45 35//46 55//47
f 55//47 35//46 34//47
f 55//47 34//47 54//48
f 54//48 34//47 33//49
f 54//48 33//49 53//50
f 53//50 33//49 32//51
f 53//50 32//51 52//52
f 52//52 32//51 31//52
f 52//52 31//52 51//53
f 51//53 31//52 30//54
f 51//53 30//54 70//55
f 70//55 30//54 69//56
f 69//56 30//54 29//57
f 69//56 29//57 68//58
f 68//58 29//57 67//59
f 67//59 29//57 66//60
f 66//60 29//57 28//61
f 66//60 28//61 65//62
f 65//62 28//61 64//63
f 64//63 28//61 27//64
f 64//63 27//64 63//65
f 63//65 27//64 62//66
f 62//66 27//64 48//67
f 62//66 48//67 61//68
f 61//68 48//67 60//69
f 60//69 48//67 49//61
f 60//69 49//61 59//70
f 59//70 49//61 58//60
f 58//60 49//61 50//71
f 58//60 50//71 73//72
f 73//72 50//71 72//73
f 72//73 50//71 71//56
f 71//56 50//71 51//53
f 71//56 51//53 70//55
f 39//74 87//75 38//39
f 38//39 87//75 88//76
f 38//39 88//76 89//77
f 40//78 85//79 39//74
f 39//74 85//79 86//80
f 39//74 86//80 87//75
f 41//81 82//82 40//78
f 40//78 82//82 83//83
f 40//78 83//83 84//84
f 42//85 21//86 41//81
f 41//81 21//86 20//87
f 41//81 20//87 82//82
f 82//82 20//87 19//78
f 82//82 19//78 81//88
f 81//88 19//78 80//89
f 80//89 19//78 79//90
f 79//90 19//78 18//91
f 79//90 18//91 78//92
f 78//92 18//91 77//75
f 77//75 18//91 17//93
f 77//75 17//93 76//76
f 76//76 17//93 75//77
f 75//77 17//93 74//40
f 74//40 17//93 16//41
f 21//86 42//85 22//94
f 22//94 42//85 43//94
f 22//94 43//94 23//95
f 23//95 43//94 44//96
f 23//95 44//96 24//97
f 24//97 44//96 45//98
f 24//97 45//98 25//99
f 25//99 45//98 46//99
f 25//99 46//99 26//100
f 26//100 46//99 47//101
f 26//100 47//101 27//64
f 27//64 47//101 48//67
f 84//84 85//79 40//78
f 89//77 74//40 38//39

g face 2
f 1//102 15//102 2//102
f 2//102 15//102 14//102
f 2//102 14//102 3//102
f 3//102 14//102 13//102
f 3//102 13//102 4//102
f 4//102 13//102 12//102
f 4//102 12//102 5//102
f 5//102 12//102 11//102
f 5//102 11//102 6//102
f 6//102 11//102 10//102
f 6//102 10//102 7//102
f 7//102 10//102 9//102
f 7//102 9//102 8//102

g face 3
f 65//103 79//104 66//105
f 66//105 79//104 78//106
f 66//105 78//106 67//107
f 67//107 78//106 77//108
f 67//107 77//108 76//109
f 65//103 64//110 79//104
f 79//104 64//110 80//111
f 80//111 64//110 63//112
f 80//111 63//112 81//113
f 81//113 63//112 82//114
f 82//114 63//112 62//115
f 82//114 62//115 83//116
f 83//116 62//115 61//117
f 83//116 61//117 60//118
f 83//116 60//118 84//118
f 84//118 60//118 59//119
f 84//118 59//119 85//120
f 85//120 59//119 86//121
f 86//121 59//119 58//121
f 86//121 58//121 87//122
f 87//122 58//121 73//123
f 87//122 73//123 72//124
f 87//122 72//124 88//125
f 88//125 72//124 71//126
f 88//125 71//126 89//127
f 89//127 71//126 74//128
f 74//128 71//126 70//128
f 74//129 70//129 75//130
f 75//130 70//129 69//131
f 75//130 69//131 68//132
f 75//130 68//132 76//109
f 76//109 68//132 67//107

g face 4
f 38//133 37//133 52//133
f 52//133 37//133 57//133
f 52//133 57//133 56//133
f 56//133 55//133 52//133
f 52//133 55//133 54//133
f 52//133 54//133 53//133
f 51//133 43//133 52//133
f 52//133 43//133 42//133
f 52//133 42//133 41//133
f 43//133 51//133 44//133
f 44//133 51//133 50//133
f 44//133 50//133 45//133
f 45//133 50//133 49//133
f 45//133 49//133 46//133
f 46//133 49//133 48//133
f 46//133 48//133 47//133
f 41//133 40//133 52//133
f 52//133 40//133 39//133
f 52//133 39//133 38//133

g halfedge 0 edge 0
l 1 15 14 13 12 11 10 9 8 7 6 5 4 3 2 1

g halfedge 1 edge 0
l 1 2 3 4 5 6 7 8 9 10 11 12 13 14 15 1

g halfedge 2 edge 1
l 16 36 35 34 33 32 31 30 29 28 27 26 25 24 23 22 21 20 19 18 17 16

g halfedge 3 edge 1
l 16 17 18 19 20 21 22 23 24 25 26 27 28 29 30 31 32 33 34 35 36 16

g halfedge 4 edge 2
l 37 38 39 40 41 42 43 44 45 46 47 48 49 50 51 52 53 54 55 56 57 37

g halfedge 5 edge 2
l 37 57 56 55 54 53 52 51 50 49 48 47 46 45 44 43 42 41 40 39 38 37

g halfedge 6 edge 3
l 58 59 60 61 62 63 64 65 66

g halfedge 7 edge 3
l 66 65 64 63 62 61 60 59 58

g halfedge 8 edge 4
l 66 67 68 69 70 71 72 73 58

g halfedge 9 edge 4
l 58 73 72 71 70 69 68 67 66

g halfedge 10 edge 5
l 74 75 76 77 78 79 80 81 82 83 84 85 86 87 88 89 74

g halfedge 11 edge 5
l 74 89 88 87 86 85 84 83 82 81 80 79 78 77 76 75 74

g vertex 0
p 1

g vertex 1
p 16

g vertex 2
p 37

g vertex 3
p 58

g vertex 4
p 66

g vertex 5
p 74

# End of file
