# WaveFront *.obj file
# Vertices: 74
# Triangles : 148

v 0.20891091927465802 0.19033895455259725 0.004762500000000071
v 0.20888230484551198 0.19095452394525825 0.004885763658453194
v 0.20876269215798995 0.1914716010030164 0.005228606737145634
v 0.20862754947255682 0.19182012766355638 0.005738243231686944
v 0.2085666232884254 0.19194598772021235 0.006350000000000071
v 0.20862754947255677 0.19182012766355638 0.006961756768313199
v 0.2087626921579899 0.19147160100301644 0.007471393262854508
v 0.208882304845512 0.1909545239452583 0.00781423634154695
v 0.20891091927465802 0.19033895455259725 0.007937500000000071
v 0.208820083109547 0.1897294520884148 0.007814236341546906
v 0.20864869612843467 0.18922715498372356 0.007471393262854497
v 0.20847893645541657 0.18889411439768336 0.0069617567683132025
v 0.20840557176134883 0.18877507501160207 0.006350000000000068
v 0.20847893645541649 0.18889411439768336 0.005738243231686937
v 0.2086486961284347 0.18922715498372356 0.00522860673714564
v 0.20882008310954703 0.1897294520884148 0.00488576365845324
v 0.20291338984367 0.18905402443913516 0.006350000000000069
v 0.20285246365953855 0.1891798844957911 0.006961756768313201
v 0.20271732097410547 0.18952841115633104 0.0074713932628545
v 0.20259770828658336 0.1900454882140892 0.007814236341546916
v 0.20256909385743732 0.19066105760675026 0.007937500000000071
v 0.20265993002254828 0.19127056007093263 0.007814236341546932
v 0.20283131700366064 0.19177285717562392 0.007471393262854505
v 0.2030010766766788 0.1921058977616642 0.006961756768313204
v 0.20307444137074648 0.1922249371477454 0.006350000000000068
v 0.20300107667667877 0.19210589776166412 0.005738243231686937
v 0.20283131700366067 0.19177285717562395 0.0052286067371456356
v 0.2026599300225483 0.1912705600709327 0.004885763658453209
v 0.2025690938574373 0.1906610576067502 0.004762500000000071
v 0.20259770828658333 0.19004548821408915 0.004885763658453256
v 0.20271732097410547 0.18952841115633104 0.005228606737145639
v 0.20285246365953855 0.18917988449579112 0.005738243231686948
v 0.20891500656604767 0.19050000607967377 7.105427357601002e-17
v 0.20877395022441866 0.1914358537584284 7.105427357601002e-17
v 0.20836331467450095 0.19228854726402578 7.105427357601002e-17
v 0.20771958668694915 0.19298232103650975 7.105427357601002e-17
v 0.20689996431841098 0.19345553023161913 7.105427357601002e-17
v 0.20597727461318457 0.19366612813572404 7.105427357601002e-17
v 0.20503350260073638 0.19359540220085106 7.105427357601002e-17
v 0.20415250656604766 0.19324963673668938 7.105427357601002e-17
v 0.203412566872988 0.19265955452209643 7.105427357601002e-17
v 0.2028794304104575 0.19187758695137203 7.105427357601002e-17
v 0.2026004686927829 0.19097321527478311 7.105427357601002e-17
v 0.2026004686927829 0.19002679688456442 7.105427357601002e-17
v 0.2028794304104575 0.1891224252079755 7.105427357601002e-17
v 0.20341256687298795 0.18834045763725113 7.105427357601002e-17
v 0.20415250656604766 0.18775037542265818 7.105427357601002e-17
v 0.20503350260073638 0.1874046099584965 7.105427357601002e-17
v 0.20597727461318457 0.18733388402362353 7.105427357601002e-17
v 0.20689996431841098 0.1875444819277284 7.105427357601002e-17
v 0.20771958668694915 0.18801769112283778 7.105427357601002e-17
v 0.20836331467450095 0.18871146489532176 7.105427357601002e-17
v 0.20877395022441866 0.18956415840091914 7.105427357601002e-17
v 0.20891500656604767 0.19050000607967377 0.03651250000000007
v 0.20877395022441866 0.18956415840091914 0.03651250000000007
v 0.20836331467450095 0.18871146489532176 0.03651250000000007
v 0.20771958668694915 0.18801769112283778 0.03651250000000007
v 0.20689996431841098 0.1875444819277284 0.03651250000000007
v 0.20597727461318457 0.18733388402362353 0.03651250000000007
v 0.20503350260073638 0.1874046099584965 0.03651250000000007
v 0.20415250656604766 0.18775037542265818 0.03651250000000007
v 0.203412566872988 0.18834045763725113 0.03651250000000007
v 0.2028794304104575 0.1891224252079755 0.03651250000000007
v 0.2026004686927829 0.19002679688456442 0.03651250000000007
v 0.2026004686927829 0.19097321527478311 0.03651250000000007
v 0.2028794304104575 0.19187758695137203 0.03651250000000007
v 0.20341256687298795 0.19265955452209643 0.03651250000000007
v 0.20415250656604766 0.19324963673668938 0.03651250000000007
v 0.20503350260073638 0.19359540220085106 0.03651250000000007
v 0.20597727461318457 0.19366612813572404 0.03651250000000007
v 0.20689996431841098 0.19345553023161913 0.03651250000000007
v 0.20771958668694915 0.19298232103650975 0.03651250000000007
v 0.20836331467450095 0.19228854726402578 0.03651250000000007
v 0.20877395022441866 0.1914358537584284 0.03651250000000007

vn -1.9597397295766927e-02 -3.8584940651513172e-01 9.2235360763166785e-01
vn 3.1618498952705567e-15 6.2253057748826541e-14 1.0000000000000000e+00
vn -4.8742309859988467e-16 -9.5967801477982960e-15 1.0000000000000000e+00
vn 1.9597397295770865e-02 3.8584940651520933e-01 9.2235360763163521e-01
vn 1.9597397295769810e-02 3.8584940651518856e-01 9.2235360763164398e-01
vn 3.5904262295590364e-02 7.0691215211060576e-01 7.0638947695117971e-01
vn 3.5904262295589649e-02 7.0691215211059166e-01 7.0638947695119392e-01
vn 4.6807249875523017e-02 9.2157898890875378e-01 3.8535859736226147e-01
vn 4.6807249875523059e-02 9.2157898890875456e-01 3.8535859736225941e-01
vn 5.0724890417802877e-02 9.9871266412922888e-01 1.2246467991473535e-16
vn 5.0724890417802877e-02 9.9871266412922888e-01 -1.2246467991473535e-16
vn 4.6807249875523080e-02 9.2157898890875511e-01 -3.8535859736225825e-01
vn 4.6807249875523108e-02 9.2157898890875567e-01 -3.8535859736225697e-01
vn 3.5904262295590413e-02 7.0691215211060665e-01 -7.0638947695117882e-01
vn -1.9597397295769169e-02 -3.8584940651517591e-01 9.2235360763164920e-01
vn -3.5904262295589018e-02 -7.0691215211057934e-01 7.0638947695120635e-01
vn -3.5904262295589448e-02 -7.0691215211058767e-01 7.0638947695119791e-01
vn -4.6807249875522913e-02 -9.2157898890875167e-01 3.8535859736226619e-01
vn -4.6807249875522816e-02 -9.2157898890874990e-01 3.8535859736227046e-01
vn -5.0724890417802877e-02 -9.9871266412922888e-01 1.9718346850380632e-31
vn -5.0724890417802877e-02 -9.9871266412922888e-01 2.0980592591342241e-15
vn -4.6807249875522899e-02 -9.2157898890875156e-01 -3.8535859736226658e-01
vn -4.6807249875523177e-02 -9.2157898890875700e-01 -3.8535859736225364e-01
vn -3.5904262295589552e-02 -7.0691215211058978e-01 -7.0638947695119580e-01
vn -3.5904262295588865e-02 -7.0691215211057623e-01 -7.0638947695120935e-01
vn -1.9597397295767944e-02 -3.8584940651515176e-01 -9.2235360763165941e-01
vn -1.9597397295767208e-02 -3.8584940651513733e-01 -9.2235360763166541e-01
vn -4.8742309859988467e-16 -9.5967801477982960e-15 -1.0000000000000000e+00
vn 8.3036992696444128e-16 1.6348994648205118e-14 -1.0000000000000000e+00
vn 1.9597397295769821e-02 3.8584940651518873e-01 -9.2235360763164387e-01
vn 1.9597397295768551e-02 3.8584940651516375e-01 -9.2235360763165442e-01
vn 3.5904262295589774e-02 7.0691215211059411e-01 -7.0638947695119136e-01
vn -9.0946233126277265e-01 -4.1578632494838358e-01 0.0000000000000000e+00
vn -9.0096886790241804e-01 -4.3388373911756062e-01 0.0000000000000000e+00
vn -8.9027298342604799e-01 -4.5542728835861818e-01 0.0000000000000000e+00
vn -7.3305187182983123e-01 -6.8017273777091414e-01 0.0000000000000000e+00
vn -7.3305187182982612e-01 -6.8017273777091969e-01 0.0000000000000000e+00
vn -5.0000000000000300e-01 -8.6602540378443693e-01 0.0000000000000000e+00
vn -2.2252093395631112e-01 -9.7492791218182429e-01 0.0000000000000000e+00
vn 7.4730093586423060e-02 -9.9720379718118024e-01 -0.0000000000000000e+00
vn 3.6534102436639831e-01 -9.3087374864420303e-01 -0.0000000000000000e+00
vn 6.2348980185873515e-01 -7.8183148246802858e-01 -0.0000000000000000e+00
vn 8.2623877431599291e-01 -5.6332005806362495e-01 -0.0000000000000000e+00
vn 8.3954809300824373e-01 -5.4328537577061786e-01 -0.0000000000000000e+00
vn 8.6265508184676598e-01 -5.0579265491300851e-01 -0.0000000000000000e+00
vn -9.5202696362627304e-01 -3.0601415086322220e-01 0.0000000000000000e+00
vn -9.8883082622512919e-01 -1.4904226617616995e-01 0.0000000000000000e+00
vn -9.8970024710775328e-01 -1.4315523348747022e-01 0.0000000000000000e+00
vn -9.9871266412923065e-01 5.0724890417767551e-02 -0.0000000000000000e+00
vn -9.8883082622512941e-01 1.4904226617616964e-01 -0.0000000000000000e+00
vn -9.8883082622512919e-01 1.4904226617616995e-01 -0.0000000000000000e+00
vn -9.9871266412923065e-01 5.0724890417767787e-02 -0.0000000000000000e+00
vn -9.7010284992161067e-01 2.4269417086936565e-01 -0.0000000000000000e+00
vn -9.0096886790241804e-01 4.3388373911756062e-01 -0.0000000000000000e+00
vn -9.1612270214031555e-01 4.0089798530689419e-01 -0.0000000000000000e+00
vn -8.6265508184677575e-01 5.0579265491299186e-01 -0.0000000000000000e+00
vn -8.3954809300825717e-01 5.4328537577059699e-01 -0.0000000000000000e+00
vn -7.3305187182982612e-01 6.8017273777091969e-01 -0.0000000000000000e+00
vn -7.3305187182983123e-01 6.8017273777091414e-01 -0.0000000000000000e+00
vn -5.0000000000000300e-01 8.6602540378443693e-01 -0.0000000000000000e+00
vn -8.6265508184676298e-01 5.0579265491301340e-01 -0.0000000000000000e+00
vn -9.1612270214032154e-01 4.0089798530688070e-01 -0.0000000000000000e+00
vn -9.7010284992161666e-01 2.4269417086934195e-01 -0.0000000000000000e+00
vn -9.9871266412922954e-01 5.0724890417790866e-02 -0.0000000000000000e+00
vn -9.8883082622512941e-01 -1.4904226617616964e-01 0.0000000000000000e+00
vn -9.8970024710775628e-01 -1.4315523348744977e-01 0.0000000000000000e+00
vn -9.8970024710775628e-01 -1.4315523348745002e-01 0.0000000000000000e+00
vn -9.0946233126276843e-01 -4.1578632494839285e-01 0.0000000000000000e+00
vn 9.7010284992160745e-01 -2.4269417086937878e-01 -0.0000000000000000e+00
vn 9.9871266412922888e-01 -5.0724890417801947e-02 -0.0000000000000000e+00
vn 1.0000000000000000e+00 -0.0000000000000000e+00 -0.0000000000000000e+00
vn 9.8970024710775806e-01 1.4315523348743744e-01 -0.0000000000000000e+00
vn 9.5557280578614034e-01 2.9475517441090548e-01 -0.0000000000000000e+00
vn 9.5202696362627970e-01 3.0601415086320188e-01 -0.0000000000000000e+00
vn 9.0946233126277509e-01 4.1578632494837831e-01 -0.0000000000000000e+00
vn 8.2623877431599291e-01 5.6332005806362495e-01 -0.0000000000000000e+00
vn 8.9027298342605476e-01 4.5542728835860485e-01 -0.0000000000000000e+00
vn 9.0946233126277698e-01 4.1578632494837414e-01 -0.0000000000000000e+00
vn 9.5202696362628503e-01 3.0601415086318529e-01 -0.0000000000000000e+00
vn 9.8970024710775928e-01 1.4315523348742806e-01 -0.0000000000000000e+00
vn 9.7010284992160811e-01 -2.4269417086937620e-01 -0.0000000000000000e+00
vn 9.5557280578614034e-01 -2.9475517441090548e-01 -0.0000000000000000e+00
vn 9.1612270214031333e-01 -4.0089798530689941e-01 -0.0000000000000000e+00
vn 8.6265508184676021e-01 -5.0579265491301839e-01 -0.0000000000000000e+00
vn 9.1612270214031144e-01 -4.0089798530690346e-01 -0.0000000000000000e+00
vn 6.2348980185873515e-01 7.8183148246802858e-01 -0.0000000000000000e+00
vn 3.6534102436639831e-01 9.3087374864420303e-01 -0.0000000000000000e+00
vn 7.4730093586423060e-02 9.9720379718118024e-01 -0.0000000000000000e+00
vn -2.2252093395631112e-01 9.7492791218182429e-01 -0.0000000000000000e+00
vn 0.0000000000000000e+00 0.0000000000000000e+00 -1.0000000000000000e+00
vn 0.0000000000000000e+00 0.0000000000000000e+00 1.0000000000000000e+00

g face 0
f 2//1 29//2 1//3
f 1//3 29//2 30//4
f 1//3 30//4 16//5
f 16//5 30//4 31//6
f 16//5 31//6 15//7
f 15//7 31//6 32//8
f 15//7 32//8 14//9
f 14//9 32//8 13//10
f 13//10 32//8 17//10
f 13//11 17//11 12//12
f 12//12 17//11 18//13
f 12//12 18//13 19//14
f 29//2 2//1 28//15
f 28//15 2//1 3//16
f 28//15 3//16 27//17
f 27//17 3//16 4//18
f 27//17 4//18 26//19
f 26//19 4//18 5//20
f 26//19 5//20 25//21
f 25//21 5//20 6//22
f 25//21 6//22 24//23
f 24//23 6//22 7//24
f 24//23 7//24 23//25
f 23//25 7//24 8//26
f 23//25 8//26 22//27
f 22//27 8//26 9//28
f 22//27 9//28 21//29
f 21//29 9//28 10//30
f 21//29 10//30 20//31
f 20//31 10//30 11//32
f 20//31 11//32 19//14
f 19//14 11//32 12//12

g face 1
f 32//33 45//34 17//35
f 17//35 45//34 46//36
f 17//35 46//36 62//37
f 62//37 46//36 47//38
f 62//37 47//38 61//38
f 61//38 47//38 48//39
f 61//38 48//39 60//39
f 60//39 48//39 49//40
f 60//39 49//40 59//40
f 59//40 49//40 50//41
f 59//40 50//41 58//41
f 58//41 50//41 51//42
f 58//41 51//42 57//42
f 57//42 51//42 52//43
f 57//42 52//43 56//43
f 56//43 52//43 13//44
f 56//43 13//44 12//45
f 32//33 31//46 45//34
f 45//34 31//46 44//47
f 44//47 31//46 30//48
f 44//47 30//48 29//49
f 44//47 29//49 43//50
f 43//51 29//52 28//53
f 43//51 28//53 42//54
f 42//54 28//53 27//55
f 42//54 27//55 26//56
f 26//56 25//57 42//54
f 42//54 25//57 41//58
f 41//58 25//57 67//59
f 41//58 67//59 68//60
f 67//59 25//57 66//54
f 66//54 25//57 24//61
f 66//54 24//61 23//62
f 23//62 22//63 66//54
f 66//54 22//63 65//51
f 65//51 22//63 21//64
f 65//51 21//64 64//65
f 64//65 21//64 20//66
f 64//47 20//67 19//46
f 64//47 19//46 63//34
f 63//34 19//46 18//68
f 63//34 18//68 17//35
f 10//69 9//70 54//71
f 54//71 9//70 8//72
f 54//71 8//72 74//73
f 74//73 8//72 7//74
f 74//73 7//74 6//75
f 74//73 6//75 73//76
f 73//76 6//75 5//77
f 73//76 5//77 35//76
f 35//76 5//77 4//78
f 35//76 4//78 34//73
f 34//73 4//78 3//79
f 34//73 3//79 2//80
f 34//73 2//80 33//71
f 33//71 2//80 1//70
f 33//71 1//70 16//81
f 33//71 16//81 53//82
f 53//82 16//81 15//83
f 53//82 15//83 52//43
f 52//43 15//83 14//84
f 52//43 14//84 13//44
f 12//45 11//85 56//43
f 56//43 11//85 55//82
f 55//82 11//85 10//69
f 55//82 10//69 54//71
f 35//76 36//86 73//76
f 73//76 36//86 72//86
f 72//86 36//86 37//87
f 72//86 37//87 71//87
f 71//87 37//87 38//88
f 71//87 38//88 70//88
f 70//88 38//88 39//89
f 70//88 39//89 69//89
f 69//89 39//89 40//60
f 69//89 40//60 68//60
f 68//60 40//60 41//58
f 62//37 63//34 17//35

g face 2
f 34//90 33//90 48//90
f 48//90 33//90 53//90
f 48//90 53//90 52//90
f 52//90 51//90 48//90
f 48//90 51//90 50//90
f 48//90 50//90 49//90
f 47//90 39//90 48//90
f 48//90 39//90 38//90
f 48//90 38//90 37//90
f 39//90 47//90 40//90
f 40//90 47//90 46//90
f 40//90 46//90 41//90
f 41//90 46//90 45//90
f 41//90 45//90 42//90
f 42//90 45//90 44//90
f 42//90 44//90 43//90
f 37//90 36//90 48//90
f 48//90 36//90 35//90
f 48//90 35//90 34//90

g face 3
f 55//91 54//91 60//91
f 60//91 54//91 74//91
f 60//91 74//91 73//91
f 73//91 72//91 60//91
f 60//91 72//91 71//91
f 60//91 71//91 70//91
f 70//91 69//91 60//91
f 60//91 69//91 61//91
f 61//91 69//91 68//91
f 61//91 68//91 62//91
f 62//91 68//91 67//91
f 62//91 67//91 63//91
f 63//91 67//91 66//91
f 63//91 66//91 64//91
f 64//91 66//91 65//91
f 59//91 58//91 60//91
f 60//91 58//91 57//91
f 60//91 57//91 56//91
f 56//91 55//91 60//91

g halfedge 0 edge 0
l 9 8 7 6 5 4 3 2 1

g halfedge 1 edge 0
l 1 2 3 4 5 6 7 8 9

g halfedge 2 edge 1
l 1 16 15 14 13 12 11 10 9

g halfedge 3 edge 1
l 9 10 11 12 13 14 15 16 1

g halfedge 4 edge 2
l 17 32 31 30 29 28 27 26 25 24 23 22 21 20 19 18 17

g halfedge 5 edge 2
l 17 18 19 20 21 22 23 24 25 26 27 28 29 30 31 32 17

g halfedge 6 edge 3
l 33 53 52 51 50 49 48 47 46 45 44 43 42 41 40 39 38 37 36 35 34 33

g halfedge 7 edge 3
l 33 34 35 36 37 38 39 40 41 42 43 44 45 46 47 48 49 50 51 52 53 33

g halfedge 8 edge 4
l 54 74 73 72 71 70 69 68 67 66 65 64 63 62 61 60 59 58 57 56 55 54

g halfedge 9 edge 4
l 54 55 56 57 58 59 60 61 62 63 64 65 66 67 68 69 70 71 72 73 74 54

g vertex 0
p 9

g vertex 1
p 1

g vertex 2
p 17

g vertex 3
p 33

g vertex 4
p 54

# End of file
