# WaveFront *.obj file
# Vertices: 126
# Triangles : 252

v 0.03476625072956086 0.04444999999999998 0.07064375202655794
v 0.03497893540105307 0.045243749999999985 0.07064375202655794
v 0.035560000729560864 0.04582481532850778 0.07064375202655794
v 0.03635375072956087 0.04603749999999999 0.07064375202655794
v 0.03714750072956086 0.04582481532850778 0.07064375202655794
v 0.03772856605806866 0.045243749999999985 0.07064375202655794
v 0.037941250729560866 0.04444999999999998 0.07064375202655794
v 0.03772856605806866 0.04365624999999999 0.07064375202655794
v 0.03714750072956086 0.04307518467149219 0.07064375202655794
v 0.03635375072956087 0.042862499999999984 0.07064375202655794
v 0.035560000729560864 0.04307518467149219 0.07064375202655794
v 0.03497893540105307 0.04365624999999999 0.07064375202655794
v 0.03635375072956087 0.04444999999999998 0.07159761825926421
v 0.03476625072956086 0.04444999999999998 0.06350000202655795
v 0.03497893540105307 0.045243749999999985 0.06350000202655792
v 0.035560000729560864 0.04582481532850778 0.06350000202655792
v 0.03635375072956087 0.04603749999999999 0.06350000202655792
v 0.03714750072956086 0.04582481532850778 0.06350000202655792
v 0.03772856605806866 0.045243749999999985 0.06350000202655792
v 0.037941250729560866 0.04444999999999998 0.06350000202655792
v 0.03772856605806866 0.04365624999999999 0.06350000202655792
v 0.03714750072956086 0.04307518467149219 0.06350000202655792
v 0.03635375072956087 0.042862499999999984 0.06350000202655792
v 0.035560000729560864 0.04307518467149219 0.06350000202655792
v 0.03497893540105307 0.04365624999999999 0.06350000202655792
v 0.03476625072956085 0.015874999999999986 0.07064375202655791
v 0.03497893540105305 0.016668749999999986 0.07064375202655791
v 0.03556000072956085 0.01724981532850778 0.07064375202655791
v 0.036353750729560846 0.017462499999999985 0.07064375202655791
v 0.03714750072956085 0.01724981532850778 0.07064375202655791
v 0.037728566058068645 0.016668749999999986 0.07064375202655791
v 0.037941250729560845 0.015874999999999986 0.07064375202655791
v 0.037728566058068645 0.015081249999999987 0.07064375202655791
v 0.03714750072956084 0.01450018467149219 0.07064375202655791
v 0.036353750729560846 0.014287499999999986 0.07064375202655791
v 0.035560000729560844 0.01450018467149219 0.07064375202655791
v 0.03497893540105305 0.015081249999999987 0.07064375202655791
v 0.036353750729560846 0.015874999999999986 0.07159761825926415
v 0.03476625072956085 0.015874999999999986 0.06350000202655791
v 0.03497893540105305 0.016668749999999986 0.06350000202655792
v 0.03556000072956085 0.01724981532850778 0.06350000202655792
v 0.036353750729560846 0.017462499999999985 0.06350000202655792
v 0.03714750072956085 0.01724981532850778 0.06350000202655792
v 0.037728566058068645 0.016668749999999986 0.06350000202655792
v 0.037941250729560845 0.015874999999999986 0.06350000202655792
v 0.037728566058068645 0.015081249999999987 0.06350000202655792
v 0.03714750072956084 0.01450018467149219 0.06350000202655792
v 0.036353750729560846 0.014287499999999986 0.06350000202655792
v 0.035560000729560844 0.01450018467149219 0.06350000202655792
v 0.03497893540105305 0.015081249999999987 0.06350000202655792
v 0.03218656322956085 0.050800000000000005 0.07977187702655793
v 0.03243787538637958 0.050800000000000005 0.08119713909257285
v 0.03316149990175098 0.050800000000000005 0.08245049351879855
v 0.03427015697956085 0.050800000000000005 0.08338076726389089
v 0.03563012621418944 0.050800000000000005 0.08387575558481349
v 0.03707737524493226 0.050800000000000005 0.08387575558481349
v 0.038437344479560855 0.050800000000000005 0.08338076726389089
v 0.039546001557370716 0.050800000000000005 0.08245049351879855
v 0.04026962607274213 0.050800000000000005 0.08119713909257285
v 0.04052093822956085 0.050800000000000005 0.07977187702655793
v 0.04026962607274213 0.050800000000000005 0.07834661496054299
v 0.039546001557370716 0.050800000000000005 0.0770932605343173
v 0.03843734447956085 0.050800000000000005 0.07616298678922495
v 0.03707737524493226 0.050800000000000005 0.07566799846830236
v 0.03563012621418944 0.050800000000000005 0.07566799846830236
v 0.03427015697956085 0.050800000000000005 0.07616298678922495
v 0.03316149990175098 0.050800000000000005 0.0770932605343173
v 0.03243787538637958 0.050800000000000005 0.07834661496054299
v 0.03218656322956085 0.0 0.07977187702655793
v 0.03243787538637958 0.0 0.07834661496054299
v 0.03316149990175098 0.0 0.0770932605343173
v 0.03427015697956085 0.0 0.07616298678922495
v 0.03563012621418944 0.0 0.07566799846830236
v 0.03707737524493226 0.0 0.07566799846830236
v 0.03843734447956085 0.0 0.07616298678922495
v 0.039546001557370716 0.0 0.0770932605343173
v 0.04026962607274213 0.0 0.07834661496054299
v 0.04052093822956085 0.0 0.07977187702655793
v 0.04026962607274213 0.0 0.08119713909257285
v 0.039546001557370716 0.0 0.08245049351879855
v 0.038437344479560855 0.0 0.08338076726389089
v 0.03707737524493226 0.0 0.08387575558481349
v 0.03563012621418944 0.0 0.08387575558481349
v 0.03427015697956085 0.0 0.08338076726389089
v 0.03316149990175098 0.0 0.08245049351879855
v 0.03243787538637958 0.0 0.08119713909257285
v 0.049847500729560845 0.0 0.06350000202655792
v 0.02286000072956085 0.0 0.06350000202655792
v 0.02286000072956085 0.050800000000000005 0.06350000202655792
v 0.049847500729560845 0.050800000000000005 0.06350000202655792
v 0.049847500729560845 0.0 0.07977187702655793
v 0.049847500729560845 0.050800000000000005 0.07977187702655793
v 0.02286000072956085 0.0 0.07977187702655793
v 0.023089757465701202 0.0 0.08225134708259527
v 0.023771203584035824 0.0 0.08464638175967082
v 0.02488113325430937 0.0 0.08687542102438425
v 0.026381749152814583 0.0 0.08886255761801365
v 0.02822194960491826 0.0 0.09054012198717064
v 0.03033906879130119 0.0 0.0918509866892803
v 0.032661010757275684 0.0 0.09275051179912115
v 0.03510870455405292 0.0 0.09320806506793904
v 0.03759879690506878 0.0 0.09320806506793904
v 0.040046490701846016 0.0 0.09275051179912115
v 0.04236843266782051 0.0 0.0918509866892803
v 0.044485551854203435 0.0 0.09054012198717064
v 0.04632575230630712 0.0 0.08886255761801365
v 0.047826368204812335 0.0 0.08687542102438425
v 0.04893629787508587 0.0 0.08464638175967082
v 0.0496177439934205 0.0 0.08225134708259527
v 0.0496177439934205 0.050800000000000005 0.08225134708259527
v 0.04893629787508587 0.050800000000000005 0.08464638175967082
v 0.047826368204812335 0.050800000000000005 0.08687542102438425
v 0.04632575230630712 0.050800000000000005 0.08886255761801365
v 0.044485551854203435 0.050800000000000005 0.09054012198717064
v 0.04236843266782051 0.050800000000000005 0.0918509866892803
v 0.040046490701846016 0.050800000000000005 0.09275051179912115
v 0.03759879690506878 0.050800000000000005 0.09320806506793904
v 0.03510870455405292 0.050800000000000005 0.09320806506793904
v 0.032661010757275684 0.050800000000000005 0.09275051179912115
v 0.03033906879130119 0.050800000000000005 0.0918509866892803
v 0.02822194960491826 0.050800000000000005 0.09054012198717064
v 0.026381749152814583 0.050800000000000005 0.08886255761801365
v 0.02488113325430937 0.050800000000000005 0.08687542102438425
v 0.023771203584035824 0.050800000000000005 0.08464638175967082
v 0.023089757465701202 0.050800000000000005 0.08225134708259527
v 0.02286000072956085 0.050800000000000005 0.07977187702655793

vn 4.4603605678834002e-01 -2.5751903745502641e-01 -8.5716730070211222e-01
vn 4.4603605678833941e-01 -2.5751903745502713e-01 -8.5716730070211222e-01
vn 5.1503807491005416e-01 0.0000000000000000e+00 -8.5716730070211233e-01
vn 3.1536986493880962e-17 -5.1503807491005416e-01 -8.5716730070211233e-01
vn 3.1536986493880956e-17 -5.1503807491005404e-01 -8.5716730070211222e-01
vn 2.5751903745502641e-01 -4.4603605678834002e-01 -8.5716730070211222e-01
vn -4.4603605678833996e-01 -2.5751903745502641e-01 -8.5716730070211233e-01
vn -4.4603605678833957e-01 -2.5751903745502697e-01 -8.5716730070211222e-01
vn -2.5751903745502752e-01 -4.4603605678833924e-01 -8.5716730070211233e-01
vn -4.4603605678833996e-01 2.5751903745502641e-01 -8.5716730070211233e-01
vn -4.4603605678833941e-01 2.5751903745502719e-01 -8.5716730070211222e-01
vn -5.1503807491005416e-01 6.3073972987761246e-17 -8.5716730070211233e-01
vn 3.1536986493880962e-17 5.1503807491005416e-01 -8.5716730070211233e-01
vn 3.1536986493880956e-17 5.1503807491005404e-01 -8.5716730070211222e-01
vn -2.5751903745502641e-01 4.4603605678834002e-01 -8.5716730070211222e-01
vn 4.4603605678834002e-01 2.5751903745502641e-01 -8.5716730070211222e-01
vn 4.4603605678833957e-01 2.5751903745502691e-01 -8.5716730070211222e-01
vn 2.5751903745502752e-01 4.4603605678833930e-01 -8.5716730070211233e-01
vn -5.1503807491005416e-01 -6.3073972987761246e-17 -8.5716730070211233e-01
vn -5.1503807491005404e-01 -6.3073972987761234e-17 -8.5716730070211222e-01
vn 2.5751903745502697e-01 -4.4603605678833957e-01 -8.5716730070211222e-01
vn 2.5751903745502697e-01 4.4603605678833957e-01 -8.5716730070211222e-01
vn -2.5751903745502713e-01 -4.4603605678833946e-01 -8.5716730070211222e-01
vn 5.1503807491005404e-01 -0.0000000000000000e+00 -8.5716730070211222e-01
vn -2.5751903745502669e-01 4.4603605678833969e-01 -8.5716730070211222e-01
vn 8.6602540378443937e-01 -4.9999999999999867e-01 3.4158679198689382e-31
vn 1.0000000000000000e+00 0.0000000000000000e+00 3.9443045261050739e-31
vn 8.6602540378443937e-01 4.9999999999999867e-01 3.4158679198689382e-31
vn 5.0000000000000089e-01 8.6602540378443804e-01 1.9721522630525405e-31
vn 6.1232339957367660e-17 1.0000000000000000e+00 2.4151899563784984e-47
vn -4.9999999999999867e-01 8.6602540378443937e-01 -1.9721522630525321e-31
vn -8.6602540378443937e-01 4.9999999999999878e-01 -3.4158679198689382e-31
vn -1.0000000000000000e+00 1.2246467991473532e-16 -3.9443045261050739e-31
vn -1.0000000000000000e+00 -1.2246467991473532e-16 -3.9443045261050739e-31
vn -8.6602540378443937e-01 -4.9999999999999878e-01 -3.4158679198689382e-31
vn -5.0000000000000100e-01 -8.6602540378443804e-01 -1.9721522630525409e-31
vn 6.1232339957367660e-17 -1.0000000000000000e+00 2.4151899563784984e-47
vn 4.9999999999999867e-01 -8.6602540378443937e-01 1.9721522630525321e-31
vn 4.4603605678833963e-01 -2.5751903745502691e-01 -8.5716730070211233e-01
vn 2.5751903745502647e-01 -4.4603605678834002e-01 -8.5716730070211233e-01
vn -4.4603605678833963e-01 -2.5751903745502680e-01 -8.5716730070211233e-01
vn -2.5751903745502752e-01 -4.4603605678833924e-01 -8.5716730070211222e-01
vn -4.4603605678833963e-01 2.5751903745502680e-01 -8.5716730070211233e-01
vn -5.1503807491005416e-01 6.3073972987761259e-17 -8.5716730070211233e-01
vn -2.5751903745502647e-01 4.4603605678834002e-01 -8.5716730070211233e-01
vn 4.4603605678833963e-01 2.5751903745502691e-01 -8.5716730070211233e-01
vn 2.5751903745502752e-01 4.4603605678833935e-01 -8.5716730070211233e-01
vn -5.1503807491005416e-01 -6.3073972987761259e-17 -8.5716730070211233e-01
vn 8.6602540378443882e-01 -4.9999999999999972e-01 3.4158679198689360e-31
vn 8.6602540378443882e-01 4.9999999999999972e-01 3.4158679198689360e-31
vn -8.6602540378443893e-01 4.9999999999999961e-01 -3.4158679198689374e-31
vn -8.6602540378443893e-01 -4.9999999999999961e-01 -3.4158679198689374e-31
vn 9.3969262078590832e-01 0.0000000000000000e+00 -3.4202014332566888e-01
vn 1.0000000000000000e+00 0.0000000000000000e+00 -1.2246467991473532e-16
vn 1.0000000000000000e+00 -0.0000000000000000e+00 1.2246467991473532e-16
vn 9.3969262078590832e-01 -0.0000000000000000e+00 3.4202014332566888e-01
vn 7.6604444311897735e-01 -0.0000000000000000e+00 6.4278760968654003e-01
vn 5.0000000000000011e-01 -0.0000000000000000e+00 8.6602540378443849e-01
vn 1.7364817766693011e-01 -0.0000000000000000e+00 9.8480775301220813e-01
vn -1.7364817766693000e-01 0.0000000000000000e+00 9.8480775301220813e-01
vn -4.9999999999999944e-01 0.0000000000000000e+00 8.6602540378443893e-01
vn -7.6604444311897735e-01 0.0000000000000000e+00 6.4278760968654003e-01
vn -9.3969262078590843e-01 0.0000000000000000e+00 3.4202014332566877e-01
vn -1.0000000000000000e+00 0.0000000000000000e+00 0.0000000000000000e+00
vn -9.3969262078590843e-01 0.0000000000000000e+00 -3.4202014332566877e-01
vn -7.6604444311897735e-01 0.0000000000000000e+00 -6.4278760968654003e-01
vn -5.0000000000000033e-01 0.0000000000000000e+00 -8.6602540378443849e-01
vn -1.7364817766693000e-01 0.0000000000000000e+00 -9.8480775301220813e-01
vn 1.7364817766693011e-01 0.0000000000000000e+00 -9.8480775301220813e-01
vn 5.0000000000000011e-01 0.0000000000000000e+00 -8.6602540378443849e-01
vn 7.6604444311897735e-01 0.0000000000000000e+00 -6.4278760968654003e-01
vn 0.0000000000000000e+00 0.0000000000000000e+00 -1.0000000000000000e+00
vn 1.0000000000000000e+00 0.0000000000000000e+00 0.0000000000000000e+00
vn -9.8297309968390179e-01 -0.0000000000000000e+00 1.8374951781657015e-01
vn -9.3247222940435581e-01 -0.0000000000000000e+00 3.6124166618715314e-01
vn -8.5021713572961410e-01 -0.0000000000000000e+00 5.2643216287735595e-01
vn -7.3900891722065898e-01 -0.0000000000000000e+00 6.7369564364655732e-01
vn -6.0263463637925663e-01 -0.0000000000000000e+00 7.9801722728023938e-01
vn -4.4573835577653820e-01 -0.0000000000000000e+00 8.9516329135506234e-01
vn -2.7366299007208278e-01 -0.0000000000000000e+00 9.6182564317281916e-01
vn -9.2268359463302030e-02 -0.0000000000000000e+00 9.9573417629503458e-01
vn 9.2268359463302113e-02 -0.0000000000000000e+00 9.9573417629503458e-01
vn 2.7366299007208289e-01 -0.0000000000000000e+00 9.6182564317281916e-01
vn 4.4573835577653825e-01 -0.0000000000000000e+00 8.9516329135506234e-01
vn 6.0263463637925663e-01 -0.0000000000000000e+00 7.9801722728023938e-01
vn 7.3900891722065898e-01 -0.0000000000000000e+00 6.7369564364655732e-01
vn 8.5021713572961399e-01 -0.0000000000000000e+00 5.2643216287735606e-01
vn 9.3247222940435570e-01 -0.0000000000000000e+00 3.6124166618715337e-01
vn 9.8297309968390179e-01 -0.0000000000000000e+00 1.8374951781657037e-01
vn 1.0000000000000000e+00 -0.0000000000000000e+00 1.2246467991473530e-16
vn 0.0000000000000000e+00 1.0000000000000000e+00 0.0000000000000000e+00
vn -0.0000000000000000e+00 -1.0000000000000000e+00 -0.0000000000000000e+00

g face 0
f 2//1 13//2 1//3
f 4//4 13//5 3//6
f 6//7 13//8 5//9
f 8//10 13//11 7//12
f 10//13 13//14 9//15
f 12//16 13//17 11//18
f 7//19 13//20 6//7
f 3//6 13//21 2//1
f 11//18 13//22 10//13
f 5//9 13//23 4//4
f 1//3 13//24 12//16
f 9//15 13//25 8//10

g face 1
f 15//26 2//26 14//27
f 14//27 2//26 1//27
f 14//27 1//27 25//28
f 25//28 1//27 12//28
f 25//28 12//28 24//29
f 24//29 12//28 11//29
f 24//29 11//29 23//30
f 23//30 11//29 10//30
f 23//30 10//30 22//31
f 22//31 10//30 9//31
f 22//31 9//31 21//32
f 21//32 9//31 8//32
f 21//32 8//32 20//33
f 20//33 8//32 7//33
f 20//34 7//34 19//35
f 19//35 7//34 6//35
f 19//35 6//35 18//36
f 18//36 6//35 5//36
f 18//36 5//36 17//37
f 17//37 5//36 4//37
f 17//37 4//37 16//38
f 16//38 4//37 3//38
f 16//38 3//38 15//26
f 15//26 3//38 2//26

g face 2
f 27//39 38//2 26//3
f 29//4 38//5 28//40
f 31//41 38//8 30//42
f 33//43 38//11 32//44
f 35//13 38//14 34//45
f 37//46 38//17 36//47
f 32//48 38//20 31//41
f 28//40 38//21 27//39
f 36//47 38//22 35//13
f 30//42 38//23 29//4
f 26//3 38//24 37//46
f 34//45 38//25 33//43

g face 3
f 40//49 27//49 39//27
f 39//27 27//49 26//27
f 39//27 26//27 50//50
f 50//50 26//27 37//50
f 50//50 37//50 49//29
f 49//29 37//50 36//29
f 49//29 36//29 48//30
f 48//30 36//29 35//30
f 48//30 35//30 47//31
f 47//31 35//30 34//31
f 47//31 34//31 46//51
f 46//51 34//31 33//51
f 46//51 33//51 45//33
f 45//33 33//51 32//33
f 45//34 32//34 44//52
f 44//52 32//34 31//52
f 44//52 31//52 43//36
f 43//36 31//52 30//36
f 43//36 30//36 42//37
f 42//37 30//36 29//37
f 42//37 29//37 41//38
f 41//38 29//37 28//38
f 41//38 28//38 40//49
f 40//49 28//38 27//49

g face 4
f 52//53 86//53 51//54
f 51//54 86//53 69//54
f 51//55 69//55 68//56
f 68//56 69//55 70//56
f 68//56 70//56 67//57
f 67//57 70//56 71//57
f 67//57 71//57 66//58
f 66//58 71//57 72//58
f 66//58 72//58 65//59
f 65//59 72//58 73//59
f 65//59 73//59 64//60
f 64//60 73//59 74//60
f 64//60 74//60 63//61
f 63//61 74//60 75//61
f 63//61 75//61 62//62
f 62//62 75//61 76//62
f 62//62 76//62 61//63
f 61//63 76//62 77//63
f 61//63 77//63 60//64
f 60//64 77//63 78//64
f 60//64 78//64 59//65
f 59//65 78//64 79//65
f 59//65 79//65 58//66
f 58//66 79//65 80//66
f 58//66 80//66 57//67
f 57//67 80//66 81//67
f 57//67 81//67 56//68
f 56//68 81//67 82//68
f 56//68 82//68 55//69
f 55//69 82//68 83//69
f 55//69 83//69 54//70
f 54//70 83//69 84//70
f 54//70 84//70 53//71
f 53//71 84//70 85//71
f 53//71 85//71 52//53
f 52//53 85//71 86//53

g face 5
f 15//72 14//72 89//72
f 89//72 14//72 25//72
f 89//72 25//72 40//72
f 40//72 25//72 24//72
f 40//72 24//72 41//72
f 41//72 24//72 23//72
f 41//72 23//72 42//72
f 42//72 23//72 43//72
f 43//72 23//72 22//72
f 43//72 22//72 44//72
f 44//72 22//72 21//72
f 44//72 21//72 90//72
f 90//72 21//72 20//72
f 90//72 20//72 19//72
f 19//72 18//72 90//72
f 90//72 18//72 17//72
f 90//72 17//72 89//72
f 89//72 17//72 16//72
f 89//72 16//72 15//72
f 50//72 88//72 39//72
f 39//72 88//72 89//72
f 39//72 89//72 40//72
f 50//72 49//72 88//72
f 88//72 49//72 48//72
f 88//72 48//72 87//72
f 87//72 48//72 47//72
f 87//72 47//72 46//72
f 46//72 45//72 87//72
f 87//72 45//72 90//72
f 90//72 45//72 44//72

g face 6
f 91//73 87//73 92//73
f 92//73 87//73 90//73

g face 7
f 126//64 93//64 125//74
f 125//74 93//64 94//74
f 125//74 94//74 95//75
f 125//74 95//75 124//75
f 124//75 95//75 96//76
f 124//75 96//76 123//76
f 123//76 96//76 97//77
f 123//76 97//77 122//77
f 122//77 97//77 98//78
f 122//77 98//78 121//78
f 121//78 98//78 99//79
f 121//78 99//79 120//79
f 120//79 99//79 100//80
f 120//79 100//80 119//80
f 119//80 100//80 101//81
f 119//80 101//81 118//81
f 118//81 101//81 102//82
f 118//81 102//82 117//82
f 117//82 102//82 103//83
f 117//82 103//83 116//83
f 116//83 103//83 104//84
f 116//83 104//84 115//84
f 115//84 104//84 105//85
f 115//84 105//85 114//85
f 114//85 105//85 106//86
f 114//85 106//86 113//86
f 113//86 106//86 107//87
f 113//86 107//87 112//87
f 112//87 107//87 108//88
f 112//87 108//88 111//88
f 111//88 108//88 109//89
f 111//88 109//89 110//89
f 110//89 109//89 92//90
f 92//90 109//89 91//90

g face 8
f 88//64 93//64 89//64
f 89//64 93//64 126//64

g face 9
f 68//91 126//91 51//91
f 51//91 126//91 125//91
f 51//91 125//91 52//91
f 52//91 125//91 124//91
f 52//91 124//91 123//91
f 68//91 67//91 126//91
f 126//91 67//91 89//91
f 89//91 67//91 66//91
f 89//91 66//91 65//91
f 65//91 64//91 89//91
f 89//91 64//91 90//91
f 90//91 64//91 63//91
f 90//91 63//91 62//91
f 90//91 62//91 92//91
f 92//91 62//91 61//91
f 92//91 61//91 60//91
f 92//91 60//91 110//91
f 110//91 60//91 59//91
f 110//91 59//91 111//91
f 111//91 59//91 112//91
f 112//91 59//91 58//91
f 112//91 58//91 113//91
f 113//91 58//91 114//91
f 114//91 58//91 57//91
f 114//91 57//91 115//91
f 115//91 57//91 116//91
f 116//91 57//91 56//91
f 116//91 56//91 117//91
f 117//91 56//91 55//91
f 117//91 55//91 118//91
f 118//91 55//91 119//91
f 119//91 55//91 54//91
f 119//91 54//91 120//91
f 120//91 54//91 121//91
f 121//91 54//91 53//91
f 121//91 53//91 122//91
f 122//91 53//91 123//91
f 123//91 53//91 52//91

g face 10
f 86//92 94//92 69//92
f 69//92 94//92 93//92
f 69//92 93//92 70//92
f 70//92 93//92 71//92
f 71//92 93//92 88//92
f 71//92 88//92 72//92
f 72//92 88//92 73//92
f 73//92 88//92 87//92
f 73//92 87//92 74//92
f 74//92 87//92 75//92
f 75//92 87//92 76//92
f 76//92 87//92 91//92
f 76//92 91//92 77//92
f 77//92 91//92 78//92
f 78//92 91//92 109//92
f 78//92 109//92 79//92
f 79//92 109//92 108//92
f 79//92 108//92 107//92
f 85//92 96//92 86//92
f 86//92 96//92 95//92
f 86//92 95//92 94//92
f 84//92 98//92 85//92
f 85//92 98//92 97//92
f 85//92 97//92 96//92
f 83//92 100//92 84//92
f 84//92 100//92 99//92
f 84//92 99//92 98//92
f 100//92 83//92 101//92
f 101//92 83//92 82//92
f 101//92 82//92 102//92
f 102//92 82//92 103//92
f 103//92 82//92 81//92
f 103//92 81//92 104//92
f 104//92 81//92 105//92
f 105//92 81//92 80//92
f 105//92 80//92 106//92
f 106//92 80//92 107//92
f 107//92 80//92 79//92

g halfedge 0 edge 0
l 1 12 11 10 9 8 7 6 5 4 3 2 1

g halfedge 1 edge 0
l 1 2 3 4 5 6 7 8 9 10 11 12 1

g halfedge 2 edge 1
l

g halfedge 3 edge 2
l 14 25 24 23 22 21 20 19 18 17 16 15 14

g halfedge 4 edge 2
l 14 15 16 17 18 19 20 21 22 23 24 25 14

g halfedge 5 edge 3
l 26 37 36 35 34 33 32 31 30 29 28 27 26

g halfedge 6 edge 3
l 26 27 28 29 30 31 32 33 34 35 36 37 26

g halfedge 7 edge 4
l

g halfedge 8 edge 5
l 39 50 49 48 47 46 45 44 43 42 41 40 39

g halfedge 9 edge 5
l 39 40 41 42 43 44 45 46 47 48 49 50 39

g halfedge 10 edge 6
l 51 52 53 54 55 56 57 58 59 60 61 62 63 64 65 66 67 68 51

g halfedge 11 edge 6
l 51 68 67 66 65 64 63 62 61 60 59 58 57 56 55 54 53 52 51

g halfedge 12 edge 7
l 69 70 71 72 73 74 75 76 77 78 79 80 81 82 83 84 85 86 69

g halfedge 13 edge 7
l 69 86 85 84 83 82 81 80 79 78 77 76 75 74 73 72 71 70 69

g halfedge 14 edge 8
l 87 88

g halfedge 15 edge 8
l 88 87

g halfedge 16 edge 9
l 89 88

g halfedge 17 edge 9
l 88 89

g halfedge 18 edge 10
l 89 90

g halfedge 19 edge 10
l 90 89

g halfedge 20 edge 11
l 87 90

g halfedge 21 edge 11
l 90 87

g halfedge 22 edge 12
l 91 87

g halfedge 23 edge 12
l 87 91

g halfedge 24 edge 13
l 90 92

g halfedge 25 edge 13
l 92 90

g halfedge 26 edge 14
l 91 92

g halfedge 27 edge 14
l 92 91

g halfedge 28 edge 15
l 93 94 95 96 97 98 99 100 101 102 103 104 105 106 107 108 109 91

g halfedge 29 edge 15
l 91 109 108 107 106 105 104 103 102 101 100 99 98 97 96 95 94 93

g halfedge 30 edge 16
l 92 110 111 112 113 114 115 116 117 118 119 120 121 122 123 124 125 126

g halfedge 31 edge 16
l 126 125 124 123 122 121 120 119 118 117 116 115 114 113 112 111 110 92

g halfedge 32 edge 17
l 93 126

g halfedge 33 edge 17
l 126 93

g halfedge 34 edge 18
l 88 93

g halfedge 35 edge 18
l 93 88

g halfedge 36 edge 19
l 126 89

g halfedge 37 edge 19
l 89 126

g vertex 0
p 1

g vertex 1
p 13

g vertex 2
p 14

g vertex 3
p 26

g vertex 4
p 38

g vertex 5
p 39

g vertex 6
p 51

g vertex 7
p 69

g vertex 8
p 87

g vertex 9
p 88

g vertex 10
p 89

g vertex 11
p 90

g vertex 12
p 91

g vertex 13
p 92

g vertex 14
p 93

g vertex 15
p 126

# End of file
