# WaveFront *.obj file
# Vertices: 104
# Triangles : 208

v -0.13096874809265135 0.09355666666666668 4.860316984116054e-19
v -0.13062563162767044 0.09355666666666668 0.0016142360522070816
v -0.12965561018663807 0.09355666666666668 0.0029493560261134055
v -0.12822640928907694 0.09355666666666668 0.0037745055490463874
v -0.12658515075405785 0.09355666666666668 0.003947008772242831
v -0.12501562309265138 0.09355666666666668 0.0034370383212694883
v -0.1237892118962258 0.09355666666666668 0.0023327727200357505
v -0.12311797480223907 0.09355666666666668 0.0008251495229329828
v -0.12311797480223907 0.09355666666666668 -0.0008251495229329809
v -0.1237892118962258 0.09355666666666668 -0.0023327727200357505
v -0.12501562309265135 0.09355666666666668 -0.003437038321269487
v -0.12658515075405785 0.09355666666666668 -0.003947008772242831
v -0.12822640928907694 0.09355666666666668 -0.0037745055490463874
v -0.12965561018663807 0.09355666666666668 -0.0029493560261134068
v -0.13062563162767044 0.09355666666666668 -0.001614236052207083
v -0.12927541475931803 0.09525 -2.7865817375598687e-19
v -0.1289705667301792 0.09525 -0.0011377083333333315
v -0.1281377064259847 0.09525 -0.0019705686375278385
v -0.12699999809265136 0.09525 -0.002275416666666663
v -0.12586228975931804 0.09525 -0.0019705686375278385
v -0.12502942945512355 0.09525 -0.0011377083333333322
v -0.12472458142598469 0.09525 0.0
v -0.12502942945512355 0.09525 0.001137708333333331
v -0.12586228975931804 0.09525 0.001970568637527838
v -0.12699999809265136 0.09525 0.002275416666666663
v -0.1281377064259847 0.09525 0.0019705686375278393
v -0.1289705667301792 0.09525 0.0011377083333333324
v -0.12699999809265136 0.09440333333333335 -0.003741886350408311
v -0.12699999809265136 0.09502313635040834 -0.0031220833333333252
v -0.13072138599811212 0.09440333333333335 0.000391133629930389
v -0.13010497832681572 0.09502313635040834 0.0003263465730268855
v -0.12996927579123452 0.09502313635040834 -0.000964776807854781
v -0.13055874348944307 0.09440333333333335 -0.0011563064732958172
v -0.1302405667301792 0.09440333333333335 0.0018709431752041573
v -0.12970380157205003 0.09502313635040834 0.0015610416666666663
v -0.1291994237051759 0.09440333333333335 0.0030272496484999734
v -0.12883511263241285 0.09502313635040834 0.0025258184745214443
v -0.12777798001061266 0.09440333333333335 0.0036601171558704655
v -0.12764911571735865 0.09502313635040834 0.0030538583217909945
v -0.1262220161746901 0.09440333333333335 0.003660117155870466
v -0.1263508804679441 0.09502313635040834 0.0030538583217909945
v -0.12480057248012685 0.09440333333333335 0.0030272496484999734
v -0.1251648835528899 0.09502313635040834 0.0025258184745214443
v -0.12375942945512354 0.09440333333333335 0.0018709431752041582
v -0.12429619461325273 0.09502313635040834 0.001561041666666666
v -0.12327861018719062 0.09440333333333335 0.0003911336299303915
v -0.12389501785848701 0.09502313635040834 0.0003263465730268876
v -0.12344125269585966 0.09440333333333335 -0.0011563064732958172
v -0.1240307203940682 0.09502313635040834 -0.000964776807854781
v -0.12421923461382094 0.09440333333333335 -0.002503810682574647
v -0.1246798380187755 0.09502313635040834 -0.002089081513936212
v -0.12547803579971514 0.09440333333333335 -0.0034183832784303613
v -0.12573013239824848 0.09502313635040834 -0.0028521650475483284
v -0.12852196038558758 0.09440333333333335 -0.0034183832784303613
v -0.12826986378705427 0.09502313635040834 -0.0028521650475483292
v -0.1297807615714818 0.09440333333333335 -0.0025038106825746483
v -0.12932015816652725 0.09502313635040834 -0.002089081513936213
v -0.13096874809265135 0.0 4.860316984116054e-19
v -0.13062563162767044 0.0 0.0016142360522070816
v -0.12965561018663807 0.0 0.0029493560261134055
v -0.12822640928907694 0.0 0.0037745055490463874
v -0.12658515075405785 0.0 0.003947008772242831
v -0.12501562309265138 0.0 0.0034370383212694883
v -0.1237892118962258 0.0 0.0023327727200357505
v -0.12311797480223907 0.0 0.0008251495229329828
v -0.12311797480223907 0.0 -0.0008251495229329809
v -0.1237892118962258 0.0 -0.0023327727200357505
v -0.12501562309265135 0.0 -0.003437038321269487
v -0.12658515075405785 0.0 -0.003947008772242831
v -0.12822640928907694 0.0 -0.0037745055490463874
v -0.12965561018663807 0.0 -0.0029493560261134068
v -0.13062563162767044 0.0 -0.001614236052207083
v -0.12858749809265135 0.0033734375000000795 0.003637419457871194
v -0.1284654808489357 0.003983778826708329 0.0036882701715209693
v -0.12812295422116066 0.0044955452321723864 0.0038065661799524843
v -0.12761091565231575 0.004838680135235841 0.003921448239289825
v -0.12699999809265133 0.004960937500000079 0.003968749999999996
v -0.12638908053298697 0.004838680135235841 0.003921448239289824
v -0.1258770419641421 0.004495545232172385 0.0038065661799524804
v -0.12553451533636703 0.003983778826708327 0.0036882701715209697
v -0.12541249809265137 0.0033734375000000795 0.003637419457871194
v -0.1255345153363671 0.0027630961732918314 0.003688270171520971
v -0.12587704196414207 0.0022513297678277747 0.003806566179952481
v -0.12638908053298697 0.0019081948647643203 0.003921448239289825
v -0.12699999809265136 0.0017859375000000802 0.003968749999999997
v -0.12761091565231575 0.0019081948647643196 0.003921448239289825
v -0.12812295422116066 0.0022513297678277743 0.0038065661799524843
v -0.1284654808489357 0.002763096173291831 0.0036882701715209706
v -0.12858749809265138 0.0033734375000000804 -0.003637419457871192
v -0.12846548084893566 0.0027630961732918297 -0.0036882701715209697
v -0.12812295422116063 0.002251329767827774 -0.003806566179952481
v -0.12761091565231575 0.0019081948647643183 -0.003921448239289824
v -0.12699999809265136 0.0017859375000000783 -0.003968749999999997
v -0.12638908053298697 0.0019081948647643174 -0.003921448239289825
v -0.1258770419641421 0.002251329767827773 -0.0038065661799524843
v -0.1255345153363671 0.0027630961732918297 -0.0036882701715209706
v -0.12541249809265137 0.003373437500000078 -0.0036374194578711982
v -0.12553451533636703 0.003983778826708325 -0.0036882701715209693
v -0.1258770419641421 0.004495545232172383 -0.0038065661799524843
v -0.12638908053298697 0.004838680135235841 -0.003921448239289825
v -0.12699999809265136 0.004960937500000078 -0.003968749999999997
v -0.12761091565231575 0.004838680135235841 -0.003921448239289825
v -0.12812295422116063 0.004495545232172383 -0.003806566179952481
v -0.1284654808489357 0.003983778826708329 -0.003688270171520971

vn -9.1354545764260064e-01 -0.0000000000000000e+00 4.0673664307580060e-01
vn -8.6128122600877333e-01 5.0000000000000155e-01 9.0524304608336353e-02
vn -1.0000000000000000e+00 -0.0000000000000000e+00 6.1232339957367673e-17
vn -8.2363910354633096e-01 5.0000000000000144e-01 -2.6761656732981703e-01
vn -9.1354545764260042e-01 0.0000000000000000e+00 -4.0673664307580104e-01
vn -6.4358229755437590e-01 5.0000000000000155e-01 -5.7948410355645585e-01
vn -6.6913060635885691e-01 0.0000000000000000e+00 -7.4314482547739535e-01
vn -3.5224426555364680e-01 5.0000000000000144e-01 -7.9115357383037233e-01
vn -3.0901699437494712e-01 0.0000000000000000e+00 -9.5105651629515353e-01
vn -1.0605752387249058e-16 5.0000000000000144e-01 -8.6602540378443771e-01
vn 1.0452846326765525e-01 -0.0000000000000000e+00 -9.9452189536827318e-01
vn 1.0452846326765550e-01 -0.0000000000000000e+00 -9.9452189536827318e-01
vn 1.0605752387249058e-16 5.0000000000000144e-01 -8.6602540378443771e-01
vn 3.5224426555364713e-01 5.0000000000000144e-01 -7.9115357383037221e-01
vn 5.0000000000000189e-01 -0.0000000000000000e+00 -8.6602540378443760e-01
vn 6.4358229755437601e-01 5.0000000000000144e-01 -5.7948410355645552e-01
vn 8.0901699437494790e-01 -0.0000000000000000e+00 -5.8778525229247236e-01
vn 8.2363910354633096e-01 5.0000000000000144e-01 -2.6761656732981703e-01
vn 9.7814760073380569e-01 -0.0000000000000000e+00 -2.0791169081775868e-01
vn 8.6128122600877333e-01 5.0000000000000155e-01 9.0524304608336936e-02
vn 9.7814760073380569e-01 -0.0000000000000000e+00 2.0791169081775923e-01
vn 7.4999999999999900e-01 5.0000000000000155e-01 4.3301270189221946e-01
vn 8.0901699437494790e-01 -0.0000000000000000e+00 5.8778525229247225e-01
vn 5.0903696045512659e-01 5.0000000000000144e-01 7.0062926922203594e-01
vn 4.9999999999999833e-01 -0.0000000000000000e+00 8.6602540378443960e-01
vn 1.8005680599195509e-01 5.0000000000000144e-01 8.4710067088627317e-01
vn 1.0452846326765540e-01 -0.0000000000000000e+00 9.9452189536827318e-01
vn -1.8005680599195548e-01 5.0000000000000144e-01 8.4710067088627294e-01
vn -3.0901699437494695e-01 -0.0000000000000000e+00 9.5105651629515353e-01
vn -5.0903696045512659e-01 5.0000000000000144e-01 7.0062926922203594e-01
vn -6.6913060635885691e-01 -0.0000000000000000e+00 7.4314482547739535e-01
vn -7.4999999999999900e-01 5.0000000000000144e-01 4.3301270189221924e-01
vn 3.7928966108308784e-15 1.0000000000000000e+00 2.1898298792716368e-15
vn -4.7552825814757416e-01 8.6602540378444015e-01 -1.5450849718747281e-01
vn -5.1682582532330877e-15 1.0000000000000000e+00 -8.3111931564023391e-31
vn -4.9726094768413392e-01 8.6602540378444026e-01 5.2264231633826458e-02
vn 3.6006003421925215e-15 1.0000000000000000e+00 -2.0788075768091211e-15
vn -4.3301270189221647e-01 8.6602540378444015e-01 2.4999999999999917e-01
vn -2.9389262614623490e-01 8.6602540378444015e-01 4.0450849718747145e-01
vn -3.7157241273869507e-01 8.6602540378444026e-01 -3.3456530317942729e-01
vn -6.9674998475377968e-16 1.0000000000000000e+00 -1.2068063737663825e-15
vn -2.0336832153789908e-01 8.6602540378444015e-01 -4.5677272882129788e-01
vn -7.4987989133092880e-33 1.0000000000000000e+00 -6.1232339957367648e-17
vn -6.1232339957367328e-17 8.6602540378444026e-01 -4.9999999999999722e-01
vn 6.1232339957367328e-17 8.6602540378444026e-01 -4.9999999999999722e-01
vn 7.4987989133092880e-33 1.0000000000000000e+00 -6.1232339957367648e-17
vn 2.0336832153789927e-01 8.6602540378444026e-01 -4.5677272882129782e-01
vn 6.9674998475377968e-16 1.0000000000000000e+00 -1.2068063737663825e-15
vn 3.7157241273869518e-01 8.6602540378444026e-01 -3.3456530317942712e-01
vn -3.6006003421925222e-15 1.0000000000000000e+00 2.0788075768091207e-15
vn 4.7552825814757416e-01 8.6602540378444015e-01 -1.5450849718747281e-01
vn 5.1682582532330877e-15 1.0000000000000000e+00 3.1646454634943958e-31
vn 4.9726094768413387e-01 8.6602540378444026e-01 5.2264231633826777e-02
vn -3.9851928794692353e-15 1.0000000000000000e+00 -2.3008521817341517e-15
vn 4.3301270189221658e-01 8.6602540378444026e-01 2.4999999999999914e-01
vn 2.9389262614623490e-01 8.6602540378444015e-01 4.0450849718747145e-01
vn 5.8572768229126373e-16 1.0000000000000000e+00 1.0145101051280262e-15
vn 1.0395584540887901e-01 8.6602540378444026e-01 4.8907380036690007e-01
vn -0.0000000000000000e+00 1.0000000000000000e+00 6.1232339957367648e-17
vn -1.0395584540887924e-01 8.6602540378444015e-01 4.8907380036690001e-01
vn -9.1879458967881119e-16 1.0000000000000000e+00 1.5913989110430950e-15
vn -9.1354545764260064e-01 -0.0000000000000000e+00 4.0673664307580076e-01
vn -1.0000000000000000e+00 -0.0000000000000000e+00 1.2246467991473535e-16
vn -1.0000000000000000e+00 0.0000000000000000e+00 -1.2246467991473535e-16
vn -9.1354545764260064e-01 0.0000000000000000e+00 -4.0673664307580076e-01
vn -6.6913060635885702e-01 0.0000000000000000e+00 -7.4314482547739524e-01
vn -4.0000000000000324e-01 0.0000000000000000e+00 -9.1651513899116654e-01
vn -3.0901699437494695e-01 0.0000000000000000e+00 -9.5105651629515386e-01
vn -3.6925549759254889e-01 0.0000000000000000e+00 -9.2932791709798501e-01
vn -2.8294957580939911e-01 0.0000000000000000e+00 -9.5913478591347168e-01
vn -1.5393198355881066e-01 0.0000000000000000e+00 -9.8808144625716454e-01
vn 1.0452846326765546e-01 -0.0000000000000000e+00 -9.9452189536827318e-01
vn 6.1232339957367673e-17 -0.0000000000000000e+00 -1.0000000000000000e+00
vn 1.5393198355881499e-01 -0.0000000000000000e+00 -9.8808144625716399e-01
vn 2.8294957580940300e-01 -0.0000000000000000e+00 -9.5913478591347046e-01
vn 5.0000000000000178e-01 -0.0000000000000000e+00 -8.6602540378443760e-01
vn 3.6925549759254894e-01 -0.0000000000000000e+00 -9.2932791709798501e-01
vn 3.9999999999999875e-01 -0.0000000000000000e+00 -9.1651513899116843e-01
vn 3.6925549759254106e-01 -0.0000000000000000e+00 -9.2932791709798801e-01
vn -3.6925549759254117e-01 0.0000000000000000e+00 -9.2932791709798801e-01
vn -6.6913060635885702e-01 -0.0000000000000000e+00 7.4314482547739524e-01
vn -3.9999999999999941e-01 -0.0000000000000000e+00 9.1651513899116832e-01
vn -3.0901699437494695e-01 -0.0000000000000000e+00 9.5105651629515386e-01
vn -3.6925549759254889e-01 -0.0000000000000000e+00 9.2932791709798501e-01
vn -2.8294957580940289e-01 -0.0000000000000000e+00 9.5913478591347046e-01
vn -1.5393198355881066e-01 -0.0000000000000000e+00 9.8808144625716454e-01
vn 1.0452846326765546e-01 -0.0000000000000000e+00 9.9452189536827318e-01
vn 6.1232339957367673e-17 -0.0000000000000000e+00 1.0000000000000000e+00
vn 1.5393198355881060e-01 -0.0000000000000000e+00 9.8808144625716454e-01
vn 2.8294957580940727e-01 -0.0000000000000000e+00 9.5913478591346923e-01
vn 4.9999999999999817e-01 -0.0000000000000000e+00 8.6602540378443971e-01
vn 3.6925549759254106e-01 -0.0000000000000000e+00 9.2932791709798801e-01
vn 3.9999999999999936e-01 -0.0000000000000000e+00 9.1651513899116832e-01
vn 3.6925549759254894e-01 -0.0000000000000000e+00 9.2932791709798501e-01
vn 2.8294957580940322e-01 -0.0000000000000000e+00 9.5913478591347046e-01
vn 1.5393198355881499e-01 -0.0000000000000000e+00 9.8808144625716399e-01
vn 8.9430165369586199e-15 -0.0000000000000000e+00 1.0000000000000000e+00
vn -3.6925549759254511e-01 -0.0000000000000000e+00 9.2932791709798646e-01
vn 8.0901699437494801e-01 -0.0000000000000000e+00 5.8778525229247225e-01
vn 9.7814760073380569e-01 -0.0000000000000000e+00 2.0791169081775915e-01
vn 9.7814760073380580e-01 -0.0000000000000000e+00 -2.0791169081775879e-01
vn 8.0901699437494801e-01 -0.0000000000000000e+00 -5.8778525229247225e-01
vn 0.0000000000000000e+00 1.0000000000000000e+00 0.0000000000000000e+00
vn 9.2313874520500061e-01 -3.8446697790751394e-01 -1.1372466581063969e-15
vn 9.2313874520500006e-01 -3.8446697790751522e-01 -1.1372466581063959e-15
vn 1.0000000000000000e+00 -1.2246467991473532e-16 -1.3118340653558996e-15
vn 1.0000000000000000e+00 1.2246467991473535e-16 -1.3118340653558996e-15
vn 9.2313874520499761e-01 3.8446697790752138e-01 -1.2847630479132401e-15
vn 9.2313874520500172e-01 3.8446697790751150e-01 -1.2847630479132438e-15
vn 7.0737394214356319e-01 7.0683951925191268e-01 -1.0635610962768419e-15
vn 7.0737394214355509e-01 -7.0683951925192090e-01 -7.9235337222118464e-16
vn 7.0737394214356319e-01 -7.0683951925191268e-01 -7.9235337222119696e-16
vn 3.8482995923928459e-01 -9.2298748771144812e-01 -3.2776220916692144e-16
vn 3.8482995923929036e-01 -9.2298748771144579e-01 -3.2776220916692943e-16
vn -1.8490934548734966e-14 -1.0000000000000000e+00 1.9184533169757782e-16
vn -2.7257675990577429e-15 -1.0000000000000000e+00 1.9184533169755711e-16
vn -3.8482995923929347e-01 -9.2298748771144434e-01 6.8190389063232111e-16
vn -3.8482995923929864e-01 -9.2298748771144234e-01 6.8190389063232752e-16
vn -7.0737394214356308e-01 -7.0683951925191280e-01 1.0635610962768417e-15
vn -7.0737394214355998e-01 -7.0683951925191590e-01 1.0635610962768379e-15
vn -9.2313874520500205e-01 -3.8446697790751072e-01 1.2847630479132440e-15
vn -9.2313874520500105e-01 -3.8446697790751300e-01 1.2847630479132432e-15
vn -1.0000000000000000e+00 5.1631100979300154e-16 1.3118340653558996e-15
vn -1.0000000000000000e+00 3.3651834194310034e-16 1.3118340653558996e-15
vn -9.2313874520499750e-01 3.8446697790752177e-01 1.1372466581063910e-15
vn -9.2313874520499828e-01 3.8446697790751982e-01 1.1372466581063925e-15
vn -7.0737394214356275e-01 7.0683951925191324e-01 7.9235337222119608e-16
vn -7.0737394214356519e-01 7.0683951925191058e-01 7.9235337222119982e-16
vn -3.8482995923929880e-01 9.2298748771144223e-01 3.2776220916694126e-16
vn -3.8482995923928398e-01 9.2298748771144834e-01 3.2776220916692060e-16
vn 3.7135259437681639e-15 1.0000000000000000e+00 -1.9184533169755839e-16
vn -2.7257675990577441e-15 1.0000000000000000e+00 -1.9184533169754996e-16
vn 3.8482995923929036e-01 9.2298748771144579e-01 -6.8190389063231736e-16
vn 3.8482995923928476e-01 9.2298748771144812e-01 -6.8190389063231046e-16
vn 7.0737394214355476e-01 7.0683951925192112e-01 -1.0635610962768324e-15
vn -0.0000000000000000e+00 -1.0000000000000000e+00 -0.0000000000000000e+00

g face 0
f 2//1 30//2 1//3
f 1//3 30//2 33//4
f 1//3 33//4 15//5
f 15//5 33//4 56//6
f 15//5 56//6 14//7
f 14//7 56//6 54//8
f 14//7 54//8 13//9
f 13//9 54//8 28//10
f 13//9 28//10 12//11
f 12//12 28//13 52//14
f 12//12 52//14 11//15
f 11//15 52//14 50//16
f 11//15 50//16 10//17
f 10//17 50//16 48//18
f 10//17 48//18 9//19
f 9//19 48//18 46//20
f 9//19 46//20 8//21
f 8//21 46//20 44//22
f 8//21 44//22 7//23
f 7//23 44//22 42//24
f 7//23 42//24 6//25
f 6//25 42//24 40//26
f 6//25 40//26 5//27
f 5//27 40//26 38//28
f 5//27 38//28 4//29
f 4//29 38//28 36//30
f 4//29 36//30 3//31
f 3//31 36//30 34//32
f 3//31 34//32 2//1
f 2//1 34//32 30//2
f 17//33 32//34 16//35
f 16//35 32//34 31//36
f 16//35 31//36 27//37
f 27//37 31//36 35//38
f 27//37 35//38 37//39
f 37//39 35//38 34//32
f 37//39 34//32 36//30
f 32//34 17//33 57//40
f 57//40 17//33 18//41
f 57//40 18//41 55//42
f 55//42 18//41 19//43
f 55//42 19//43 29//44
f 29//45 19//46 53//47
f 29//45 53//47 52//14
f 52//14 53//47 50//16
f 19//46 20//48 53//47
f 53//47 20//48 51//49
f 53//47 51//49 50//16
f 50//16 51//49 48//18
f 20//48 21//50 51//49
f 51//49 21//50 49//51
f 51//49 49//51 48//18
f 48//18 49//51 46//20
f 21//50 22//52 49//51
f 49//51 22//52 47//53
f 49//51 47//53 46//20
f 46//20 47//53 44//22
f 22//52 23//54 47//53
f 47//53 23//54 45//55
f 47//53 45//55 44//22
f 44//22 45//55 42//24
f 45//55 23//54 43//56
f 43//56 23//54 24//57
f 43//56 24//57 41//58
f 41//58 24//57 25//59
f 41//58 25//59 39//60
f 39//60 25//59 26//61
f 39//60 26//61 37//39
f 37//39 26//61 27//37
f 55//42 29//44 28//10
f 28//13 29//45 52//14
f 30//2 31//36 33//4
f 33//4 31//36 32//34
f 33//4 32//34 56//6
f 56//6 32//34 57//40
f 56//6 57//40 54//8
f 54//8 57//40 55//42
f 54//8 55//42 28//10
f 34//32 35//38 30//2
f 30//2 35//38 31//36
f 39//60 37//39 36//30
f 41//58 39//60 38//28
f 38//28 39//60 36//30
f 43//56 41//58 40//26
f 40//26 41//58 38//28
f 45//55 43//56 42//24
f 42//24 43//56 40//26

g face 1
f 59//62 2//62 58//63
f 58//63 2//62 1//63
f 58//64 1//64 72//65
f 72//65 1//64 15//65
f 72//65 15//65 71//66
f 71//66 15//65 14//66
f 71//66 14//66 89//67
f 89//67 14//66 13//68
f 89//67 13//68 104//69
f 104//69 13//68 103//70
f 103//70 13//68 102//71
f 102//71 13//68 12//72
f 102//71 12//72 101//73
f 101//73 12//72 100//74
f 100//74 12//72 99//75
f 99//75 12//72 11//76
f 99//75 11//76 98//77
f 98//77 11//76 97//78
f 97//78 11//76 68//76
f 97//78 68//76 96//79
f 96//79 68//76 95//75
f 95//75 68//76 69//72
f 95//75 69//72 94//74
f 94//74 69//72 93//73
f 93//73 69//72 92//71
f 92//71 69//72 70//68
f 92//71 70//68 91//70
f 91//70 70//68 90//80
f 90//80 70//68 89//67
f 89//67 70//68 71//66
f 2//62 59//62 3//81
f 3//81 59//62 60//81
f 3//81 60//81 73//82
f 73//82 60//81 61//83
f 73//82 61//83 88//84
f 88//84 61//83 87//85
f 87//85 61//83 86//86
f 86//86 61//83 62//87
f 86//86 62//87 85//88
f 85//88 62//87 84//89
f 84//89 62//87 83//90
f 83//90 62//87 63//91
f 83//90 63//91 82//92
f 82//92 63//91 81//93
f 81//93 63//91 6//91
f 81//93 6//91 80//94
f 80//94 6//91 79//95
f 79//95 6//91 5//87
f 79//95 5//87 78//96
f 78//96 5//87 77//97
f 77//97 5//87 76//86
f 76//86 5//87 4//83
f 76//86 4//83 75//85
f 75//85 4//83 74//98
f 74//98 4//83 73//82
f 73//82 4//83 3//81
f 6//91 63//91 7//99
f 7//99 63//91 64//99
f 7//99 64//99 8//100
f 8//100 64//99 65//100
f 8//100 65//100 9//101
f 9//101 65//100 66//101
f 9//101 66//101 10//102
f 10//102 66//101 67//102
f 10//102 67//102 11//76
f 11//76 67//102 68//76

g face 2
f 27//103 23//103 16//103
f 16//103 23//103 22//103
f 16//103 22//103 17//103
f 17//103 22//103 21//103
f 17//103 21//103 18//103
f 18//103 21//103 20//103
f 18//103 20//103 19//103
f 23//103 27//103 24//103
f 24//103 27//103 26//103
f 24//103 26//103 25//103

g face 3
f 104//104 74//105 89//106
f 89//106 74//105 73//106
f 89//107 73//107 90//108
f 90//108 73//107 88//109
f 90//108 88//109 87//110
f 104//104 103//111 74//105
f 74//105 103//111 75//112
f 75//112 103//111 102//113
f 75//112 102//113 76//114
f 76//114 102//113 77//115
f 77//115 102//113 101//116
f 77//115 101//116 78//117
f 78//117 101//116 100//118
f 78//117 100//118 99//119
f 78//117 99//119 79//120
f 79//120 99//119 98//121
f 79//120 98//121 80//122
f 80//122 98//121 81//123
f 81//123 98//121 97//124
f 81//123 97//124 82//125
f 82//125 97//124 96//126
f 82//125 96//126 95//127
f 82//125 95//127 83//128
f 83//128 95//127 94//129
f 83//128 94//129 84//130
f 84//130 94//129 85//131
f 85//131 94//129 93//132
f 85//131 93//132 86//133
f 86//133 93//132 92//134
f 86//133 92//134 91//135
f 86//133 91//135 87//110
f 87//110 91//135 90//108

g face 4
f 58//136 72//136 59//136
f 59//136 72//136 71//136
f 59//136 71//136 60//136
f 60//136 71//136 70//136
f 60//136 70//136 61//136
f 61//136 70//136 69//136
f 61//136 69//136 62//136
f 62//136 69//136 68//136
f 62//136 68//136 63//136
f 63//136 68//136 67//136
f 63//136 67//136 64//136
f 64//136 67//136 66//136
f 64//136 66//136 65//136

g halfedge 0 edge 0
l 1 15 14 13 12 11 10 9 8 7 6 5 4 3 2 1

g halfedge 1 edge 0
l 1 2 3 4 5 6 7 8 9 10 11 12 13 14 15 1

g halfedge 2 edge 1
l 16 27 26 25 24 23 22 21 20 19 18 17 16

g halfedge 3 edge 1
l 16 17 18 19 20 21 22 23 24 25 26 27 16

g halfedge 4 edge 2
l 58 59 60 61 62 63 64 65 66 67 68 69 70 71 72 58

g halfedge 5 edge 2
l 58 72 71 70 69 68 67 66 65 64 63 62 61 60 59 58

g halfedge 6 edge 3
l 73 74 75 76 77 78 79 80 81 82 83 84 85 86 87 88 73

g halfedge 7 edge 3
l 73 88 87 86 85 84 83 82 81 80 79 78 77 76 75 74 73

g halfedge 8 edge 4
l 89 90 91 92 93 94 95 96 97 98 99 100 101 102 103 104 89

g halfedge 9 edge 4
l 89 104 103 102 101 100 99 98 97 96 95 94 93 92 91 90 89

g vertex 0
p 1

g vertex 1
p 16

g vertex 2
p 58

g vertex 3
p 73

g vertex 4
p 89

# End of file
