# Created by FreeCAD <https://www.freecad.org>
v -34.933449 8.511637 88.000000
v -34.996178 8.053230 88.111542
v -34.987377 8.026534 88.222771
v -34.998398 8.080000 88.000000
v -33.550331 8.281290 89.902107
v -33.901817 8.000000 89.785141
v -33.463528 8.000000 89.945541
v -33.000000 8.000000 90.000000
v -33.000000 8.445042 89.949852
v -34.159962 8.271332 89.606506
v -34.290993 8.000000 89.527527
v -33.280949 8.655903 89.868385
v -33.000000 8.867767 89.801933
v -34.646889 8.138924 89.126259
v -34.841076 8.000000 88.781303
v -34.609871 8.000000 89.186722
v -33.892574 8.786572 89.607674
v -34.437244 8.743210 89.175568
v -33.492908 9.198963 89.522995
v -33.000000 9.246980 89.563660
v -33.000000 9.563663 89.246979
v -34.815651 8.580497 88.605339
v -34.972027 8.000000 88.333328
v -34.776405 8.918903 88.000000
v -34.063713 9.262660 89.128807
v -34.520969 9.148330 88.606621
v -34.219986 9.584814 88.000000
v -34.534748 9.282401 88.000000
v -33.565575 9.642636 88.990891
v -33.000000 9.801937 88.867767
v -33.000000 9.949856 88.445038
v -34.080505 9.602818 88.513306
v -33.847111 9.811740 88.000000
v -33.540592 9.896153 88.335197
v -33.000000 10.000000 88.000000
v -33.433891 9.952368 88.000000
v -34.829418 8.808222 84.965744
v -34.404842 9.423522 82.401985
v -33.886520 9.792786 80.863388
v -33.615704 9.902868 80.404716
v -33.403633 9.958847 80.171471
v -33.241249 9.985396 80.060844
v -33.120846 9.996346 80.015221
v -33.060452 9.999086 80.003807
v -33.000000 10.000000 80.000000
v -12.000000 9.949856 88.445038
v -12.000000 10.000000 88.000000
v -12.000000 9.801937 88.867767
v -12.000000 9.563663 89.246979
v -12.000000 9.246980 89.563660
v -12.000000 8.867767 89.801933
v -12.000000 8.445042 89.949852
v -12.000000 8.000000 90.000000
v -34.998249 8.059912 88.083694
v -35.000000 8.080000 88.000000
v -35.000000 -8.000000 88.000000
v -34.992996 8.039859 88.167252
v -34.984249 8.019876 88.250511
v -34.949856 -8.000000 88.445038
v -34.801937 -8.000000 88.867767
v -34.563663 -8.000000 89.246979
v -34.246979 -8.000000 89.563660
v -33.867767 -8.000000 89.801933
v -33.445042 -8.000000 89.949852
v -33.000000 -8.000000 90.000000
v -34.949856 -8.445042 88.000000
v -35.000000 -8.000000 71.932564
v -34.860180 -8.734663 75.014633
v -34.801937 -8.867767 88.000000
v -34.460270 -9.366605 77.665764
v -34.563663 -9.246980 88.000000
v -34.246979 -9.563663 88.000000
v -33.947243 -9.761456 79.322250
v -33.867767 -9.801937 88.000000
v -33.752758 -9.852931 79.706009
v -33.549580 -9.923009 80.000000
v -33.445042 -9.949856 88.000000
v -33.369034 -9.965658 80.000000
v -33.185314 -9.991396 80.000000
v -33.000000 -10.000000 88.000000
v -33.000000 -10.000000 80.000000
v -33.337276 -9.965949 88.145905
v -33.000000 -9.949856 88.445038
v -33.518208 -9.816435 88.657280
v -33.000000 -9.801937 88.867767
v -33.984226 -9.733816 88.158691
v -33.612770 -9.530355 89.132484
v -33.000000 -9.563663 89.246979
v -33.000000 -9.246980 89.563660
v -34.129879 -9.503513 88.680305
v -33.612770 -9.132486 89.530350
v -33.000000 -8.867767 89.801933
v -34.514606 -9.297492 88.149925
v -34.179874 -9.141905 89.141899
v -33.518208 -8.657285 89.816437
v -33.000000 -8.445042 89.949852
v -34.608223 -9.014272 88.620377
v -34.129879 -8.680305 89.503510
v -33.337276 -8.145905 89.965950
v -34.608223 -8.620378 89.014267
v -33.984226 -8.158691 89.733810
v -34.902660 -8.435822 88.435822
v -34.514606 -8.149926 89.297493
v -12.000000 -10.000000 80.000000
v -12.000000 -10.000000 88.000000
v -11.630965 -9.965658 80.000000
v -11.814686 -9.991396 80.000000
v -11.450420 -9.923009 80.000000
v -10.709644 -9.528065 78.343124
v -11.112807 -9.792453 79.452293
v -10.346720 -9.125462 76.654121
v -10.088644 -8.588829 74.402832
v -10.000000 -8.000000 71.932564
v -10.000000 -3.961635 54.990761
v -35.000000 -3.961635 54.990761
v -10.000000 -8.000000 88.000000
v -10.050144 -8.445042 88.000000
v -10.198062 -8.867767 88.000000
v -10.436337 -9.246980 88.000000
v -10.753020 -9.563663 88.000000
v -11.132233 -9.801937 88.000000
v -11.554958 -9.949856 88.000000
v -10.050144 -8.000000 88.445038
v -10.107405 -8.592411 88.259102
v -10.427204 -9.171503 88.392288
v -10.107405 -8.259100 88.592407
v -10.198062 -8.000000 88.867767
v -10.931593 -9.636617 88.424255
v -10.379881 -8.829221 88.829216
v -11.562278 -9.909368 88.403374
v -12.000000 -9.801937 88.867767
v -12.000000 -9.949856 88.445038
v -10.832691 -9.337404 88.921265
v -10.427204 -8.392292 89.171501
v -10.436337 -8.000000 89.246979
v -10.753020 -8.000000 89.563660
v -11.423016 -9.689174 88.902092
v -12.000000 -9.563663 89.246979
v -10.832691 -8.921270 89.337402
v -11.375215 -9.343436 89.343437
v -12.000000 -9.246980 89.563660
v -10.931593 -8.424253 89.636612
v -11.132233 -8.000000 89.801933
v -11.423016 -8.902097 89.689171
v -12.000000 -8.867767 89.801933
v -11.562278 -8.403378 89.909363
v -11.554958 -8.000000 89.949852
v -12.000000 -8.000000 90.000000
v -12.000000 -8.445042 89.949852
v -10.066550 8.511637 88.000000
v -10.001600 8.080000 88.000000
v -10.067581 8.515517 86.185341
v -10.223595 8.918903 88.000000
v -10.227298 8.926028 84.474884
v -10.465253 9.282401 88.000000
v -10.557666 9.385522 82.560326
v -10.780015 9.584814 88.000000
v -11.003520 9.734078 81.108002
v -11.152888 9.811740 88.000000
v -11.276499 9.864550 80.564377
v -11.566111 9.952368 88.000000
v -11.598944 9.959375 80.169266
v -11.698310 9.977115 80.095352
v -11.468086 9.927970 80.300125
v -11.899095 9.997453 80.010612
v -12.000000 10.000000 80.000000
v -11.798446 9.989818 80.042419
v -10.003822 8.053230 88.111542
v -10.012623 8.026534 88.222771
v -11.719053 8.655903 89.868385
v -11.507092 9.198963 89.522995
v -11.449671 8.281290 89.902107
v -11.536470 8.000000 89.945541
v -11.098184 8.000000 89.785141
v -11.434425 9.642636 88.990891
v -11.107426 8.786572 89.607674
v -11.459408 9.896153 88.335197
v -10.936288 9.262660 89.128807
v -10.840037 8.271332 89.606506
v -10.709005 8.000000 89.527527
v -10.919495 9.602818 88.513306
v -10.562754 8.743210 89.175568
v -10.479032 9.148330 88.606621
v -10.353113 8.138924 89.126259
v -10.390131 8.000000 89.186722
v -10.158923 8.000000 88.781303
v -10.184349 8.580497 88.605339
v -10.027973 8.000000 88.333328
v -10.000000 8.080000 88.000000
v -10.000000 16.000000 55.000000
v -10.000000 -8.000000 38.277325
v -10.000000 8.000000 21.666664
v -10.000000 -8.000000 12.000000
v -10.000000 8.000000 12.000000
v -10.007006 8.039859 88.167252
v -10.015751 8.019876 88.250511
v -10.001752 8.059912 88.083694
v -10.050144 -8.445042 12.000000
v -10.050144 -8.000000 11.554958
v -10.107405 -8.259101 11.407589
v -10.198062 -8.000000 11.132233
v -10.427204 -8.392293 10.828497
v -10.753020 -8.000000 10.436337
v -10.436337 -8.000000 10.753020
v -10.107405 -8.592411 11.740899
v -10.198062 -8.867767 12.000000
v -10.931593 -8.424254 10.363382
v -11.132233 -8.000000 10.198062
v -10.379881 -8.829221 11.170779
v -11.562278 -8.403378 10.090631
v -12.000000 -8.867767 10.198062
v -12.000000 -8.445042 10.050144
v -12.000000 -8.000000 10.000000
v -11.554958 -8.000000 10.050144
v -10.832691 -8.921270 10.662595
v -10.427204 -9.171503 11.607707
v -10.436337 -9.246980 12.000000
v -10.753020 -9.563663 12.000000
v -11.423016 -8.902098 10.310825
v -12.000000 -9.246980 10.436337
v -10.832691 -9.337405 11.078730
v -11.375215 -9.343437 10.656563
v -12.000000 -9.563663 10.753020
v -10.931593 -9.636618 11.575746
v -11.132233 -9.801938 12.000000
v -11.423016 -9.689175 11.097902
v -12.000000 -9.801938 11.132233
v -11.562278 -9.909369 11.596622
v -11.554958 -9.949856 12.000000
v -12.000000 -10.000000 12.000000
v -12.000000 -9.949856 11.554958
v -33.337276 -8.145905 10.034051
v -33.445042 -8.000000 10.050144
v -33.000000 -8.000000 10.000000
v -33.000000 -8.445042 10.050144
v -33.518208 -8.657285 10.183564
v -33.867767 -8.000000 10.198062
v -33.000000 -8.867767 10.198062
v -33.984226 -8.158691 10.266184
v -34.246979 -8.000000 10.436337
v -33.612770 -9.132486 10.469645
v -33.000000 -9.246980 10.436337
v -33.000000 -9.563663 10.753020
v -34.129879 -8.680305 10.496486
v -33.612770 -9.530355 10.867514
v -33.000000 -9.801938 11.132233
v -34.514606 -8.149927 10.702507
v -34.801937 -8.000000 11.132233
v -34.563663 -8.000000 10.753020
v -34.179874 -9.141905 10.858095
v -33.518208 -9.816436 11.342715
v -33.445042 -9.949856 12.000000
v -33.867767 -9.801938 12.000000
v -33.000000 -9.949856 11.554958
v -34.608223 -8.620379 10.985728
v -34.129879 -9.503514 11.319695
v -33.337276 -9.965949 11.854095
v -33.000000 -10.000000 12.000000
v -34.608223 -9.014272 11.379621
v -33.984226 -9.733816 11.841309
v -34.246979 -9.563663 12.000000
v -34.902660 -8.435822 11.564178
v -34.801937 -8.867767 12.000000
v -34.949856 -8.445042 12.000000
v -35.000000 -8.000000 12.000000
v -34.949856 -8.000000 11.554958
v -34.514606 -9.297493 11.850073
v -34.563663 -9.246980 12.000000
v -10.050144 8.000000 11.554958
v -10.050144 8.445042 12.000000
v -10.107405 8.592411 11.740899
v -10.198062 8.867767 12.000000
v -10.427204 9.171503 11.607707
v -10.753020 9.563663 12.000000
v -10.436337 9.246980 12.000000
v -10.107405 8.259100 11.407589
v -10.198062 8.000000 11.132233
v -10.931593 9.636617 11.575746
v -11.132233 9.801937 12.000000
v -10.379881 8.829221 11.170779
v -11.562278 9.909368 11.596622
v -12.000000 9.801937 11.132233
v -12.000000 9.949856 11.554958
v -12.000000 10.000000 12.000000
v -11.554958 9.949856 12.000000
v -10.832691 9.337404 11.078730
v -10.427204 8.392292 10.828497
v -10.436337 8.000000 10.753020
v -10.753020 8.000000 10.436337
v -11.423016 9.689174 11.097902
v -12.000000 9.563663 10.753020
v -10.832691 8.921270 10.662595
v -11.375215 9.343436 10.656563
v -12.000000 9.246980 10.436337
v -10.931593 8.424253 10.363382
v -11.132233 8.000000 10.198062
v -11.423016 8.902097 10.310825
v -12.000000 8.867767 10.198062
v -11.562278 8.403378 10.090631
v -11.554958 8.000000 10.050144
v -12.000000 8.000000 10.000000
v -12.000000 8.445042 10.050144
v -33.000000 9.949856 11.554958
v -33.445042 9.949856 12.000000
v -33.000000 10.000000 12.000000
v -33.592411 9.892595 11.740899
v -33.867767 9.801937 12.000000
v -34.171505 9.572796 11.607707
v -34.563663 9.246980 12.000000
v -34.246979 9.563663 12.000000
v -33.259102 9.892595 11.407589
v -33.000000 9.801937 11.132233
v -34.636616 9.068407 11.575746
v -34.801937 8.867767 12.000000
v -33.829220 9.620119 11.170779
v -34.909367 8.437721 11.596622
v -34.801937 8.000000 11.132233
v -34.949856 8.000000 11.554958
v -35.000000 8.000000 12.000000
v -34.949856 8.445042 12.000000
v -34.337406 9.167309 11.078730
v -33.392292 9.572796 10.828497
v -33.000000 9.563663 10.753020
v -33.000000 9.246980 10.436337
v -34.689175 8.576984 11.097902
v -34.563663 8.000000 10.753020
v -33.921272 9.167309 10.662595
v -34.343437 8.624785 10.656563
v -34.246979 8.000000 10.436337
v -33.424255 9.068407 10.363382
v -33.000000 8.867767 10.198062
v -33.902096 8.576984 10.310825
v -33.867767 8.000000 10.198062
v -33.403378 8.437721 10.090631
v -33.000000 8.000000 10.000000
v -33.445042 8.000000 10.050144
v -33.000000 8.445042 10.050144
v -35.000000 8.000000 21.666664
v -34.942345 8.476758 23.653156
v -34.772701 8.926028 25.525116
v -34.442333 9.385522 27.439674
v -33.996479 9.734078 28.891991
v -33.723499 9.864550 29.435623
v -33.301689 9.977115 29.904644
v -33.201553 9.989818 29.957573
v -33.401058 9.959375 29.830730
v -33.531914 9.927970 29.699873
v -33.100906 9.997453 29.989386
v -33.000000 10.000000 29.999998
v -10.139820 8.734663 24.727760
v -10.539730 9.366605 27.360855
v -11.052839 9.761501 29.006254
v -11.326983 9.883361 29.514002
v -11.542880 9.947060 29.779413
v -11.708755 9.978681 29.911167
v -11.834590 9.993148 29.971449
v -11.917224 9.998286 29.992857
v -12.000000 10.000000 29.999998
v -34.943169 -8.473380 36.318165
v -35.000000 -8.000000 38.277325
v -34.775909 -8.919858 34.470341
v -34.364876 -9.461888 32.227062
v -33.999367 -9.732417 31.107435
v -33.725704 -9.863694 30.564123
v -33.533569 -9.927512 30.300001
v -33.402321 -9.959117 30.169199
v -33.302647 -9.976969 30.095316
v -33.202194 -9.989753 30.042408
v -33.101227 -9.997437 30.010607
v -33.000000 -10.000000 29.999998
v -10.139820 -8.734663 35.236801
v -10.539730 -9.366606 32.621407
v -11.052923 -9.761546 30.986877
v -11.327207 -9.883441 30.482399
v -11.543215 -9.947139 30.218775
v -11.709175 -9.978743 30.087976
v -11.835073 -9.993188 30.028191
v -11.917466 -9.998297 30.007050
v -12.000000 -10.000000 29.999998
v -35.000000 16.000000 55.000000
vn -0.979818 0.162429 0.116509
vn -0.987354 0.148569 0.055308
vn -0.343417 0.038920 0.938376
vn -0.115890 0.116548 0.986401
vn -0.118684 0.111182 0.986688
vn -0.551817 0.023830 0.833625
vn -0.432085 0.171778 0.885322
vn -0.025803 0.330170 0.943569
vn -0.140403 0.188460 0.971993
vn -0.868561 -0.015859 0.495329
vn -0.726380 0.102246 0.679646
vn -0.714520 0.145887 0.684236
vn -0.428486 0.220381 0.876260
vn -0.316509 0.308353 0.897073
vn -0.605512 0.312577 0.731882
vn -0.715106 0.193276 0.671764
vn -0.120791 0.528134 0.840526
vn -0.126201 0.701451 0.701455
vn -0.271367 0.438881 0.856589
vn -0.161527 0.483956 0.860055
vn -0.968006 0.177791 0.177073
vn -0.952173 0.126075 0.278337
vn -0.923943 0.356276 0.139270
vn -0.886419 0.169403 0.430772
vn -0.837996 0.251197 0.484420
vn -0.968448 0.184565 0.167463
vn -0.427544 0.560058 0.709606
vn -0.570936 0.471083 0.672393
vn -0.682435 0.710303 0.172487
vn -0.824575 0.548186 0.139886
vn -0.807341 0.418036 0.416470
vn -0.870581 0.451353 0.195881
vn -0.688692 0.538897 0.485070
vn -0.121756 0.840424 0.528074
vn -0.190408 0.926616 0.324235
vn -0.188050 0.741556 0.643997
vn -0.355433 0.693445 0.626739
vn -0.516687 0.848998 0.110622
vn -0.691510 0.703685 0.163223
vn -0.618742 0.680311 0.392855
vn -0.465516 0.769179 0.437788
vn -0.120579 0.986462 0.111149
vn -0.108186 0.985484 0.130833
vn -0.321669 0.945188 0.056118
vn -0.427516 0.888410 0.167208
vn -0.162822 0.922336 0.350408
vn -0.367224 0.872166 0.323223
vn -0.933032 0.359780 0.003178
vn -0.988683 0.148769 -0.019356
vn -0.832750 0.553621 -0.005645
vn -0.692818 0.721109 0.002101
vn -0.833454 0.552562 -0.005411
vn -0.519877 0.854241 0.000602
vn -0.587872 0.808945 -0.003895
vn -0.322176 0.946679 0.001542
vn -0.377111 0.926168 -0.000377
vn -0.255414 0.966832 -0.000187
vn -0.109123 0.994027 0.001488
vn -0.161226 0.986917 0.000194
vn -0.090222 0.995921 0.000910
vn -0.045293 0.998974 0.000228
vn -0.015112 0.999886 0.000000
vn 0.000000 0.993712 0.111966
vn 0.000000 0.993712 0.111966
vn 0.000000 0.846724 0.532032
vn 0.000000 0.943884 0.330278
vn 0.000000 0.943884 0.330278
vn 0.000000 0.846724 0.532032
vn 0.000000 0.707105 0.707109
vn 0.000000 0.707105 0.707109
vn 0.000000 0.330280 0.943883
vn 0.000000 0.532030 0.846726
vn 0.000000 0.532030 0.846726
vn 0.000000 0.330280 0.943883
vn 0.000000 0.111973 0.993711
vn 0.000000 0.111973 0.993711
vn -0.999781 0.000000 0.020916
vn -0.998033 -0.000218 0.062689
vn -0.993712 -0.000774 0.111965
vn -0.994543 -0.000654 0.104328
vn -0.989297 -0.000352 0.145918
vn -0.943884 -0.000524 0.330278
vn -0.959832 0.000629 0.280576
vn -0.846725 -0.000442 0.532031
vn -0.868670 0.000552 0.495391
vn -0.707102 -0.000348 0.707111
vn -0.730207 0.000464 0.683226
vn -0.532031 -0.000244 0.846725
vn -0.551974 0.000365 0.833862
vn -0.330280 -0.000127 0.943883
vn -0.343677 0.000254 0.939088
vn -0.111973 0.000000 0.993711
vn -0.116685 0.000133 0.993169
vn -0.993712 -0.111965 0.000000
vn -0.980478 -0.196613 -0.002386
vn -0.841658 -0.540008 -0.001760
vn -0.943883 -0.330280 0.000848
vn -0.846723 -0.532029 -0.002313
vn -0.604393 -0.796682 -0.002717
vn -0.707104 -0.707108 0.001111
vn -0.425083 -0.905154 -0.000329
vn -0.327694 -0.944783 0.001265
vn -0.532032 -0.846724 0.000923
vn -0.229897 -0.973215 -0.000262
vn -0.138738 -0.990329 0.000638
vn -0.330280 -0.943882 0.001148
vn -0.046380 -0.998924 -0.000000
vn -0.111964 -0.993711 0.001525
vn -0.111924 -0.993353 -0.026899
vn -0.051818 -0.992377 0.111815
vn -0.326391 -0.932768 0.153010
vn -0.107126 -0.938452 0.328377
vn -0.341937 -0.927635 0.150237
vn -0.154880 -0.961650 0.226365
vn -0.531839 -0.846416 -0.026962
vn -0.331759 -0.930390 0.155917
vn -0.143918 -0.837909 0.526494
vn -0.168128 -0.697039 0.697043
vn -0.172048 -0.858710 0.482718
vn -0.402664 -0.817405 0.411961
vn -0.606866 -0.775738 0.173046
vn -0.431912 -0.863440 0.260621
vn -0.143921 -0.526491 0.837910
vn -0.168129 -0.697038 0.697044
vn -0.707088 -0.707092 -0.006865
vn -0.842704 -0.529503 0.097343
vn -0.642619 -0.745572 0.176533
vn -0.427291 -0.639302 0.639308
vn -0.481093 -0.714660 0.507751
vn -0.107114 -0.328380 0.938452
vn -0.326392 -0.153001 0.932770
vn -0.172040 -0.482733 0.858703
vn -0.677646 -0.612743 0.406622
vn -0.845053 -0.515442 0.142146
vn -0.706635 -0.659487 0.256408
vn -0.402671 -0.411970 0.817396
vn -0.481091 -0.507749 0.714662
vn -0.051812 -0.111823 0.992377
vn -0.111932 0.026925 0.993351
vn -0.154869 -0.226366 0.961652
vn -0.341961 -0.150224 0.927629
vn -0.731113 -0.482426 0.482430
vn -0.677646 -0.406620 0.612745
vn -0.531838 0.026951 0.846417
vn -0.606860 -0.173046 0.775742
vn -0.331774 -0.155916 0.930385
vn -0.431921 -0.260614 0.863437
vn -0.938305 -0.328328 0.108556
vn -0.987757 -0.111294 0.109319
vn -0.938306 -0.108553 0.328326
vn -0.987757 -0.109318 0.111294
vn -0.898330 -0.397731 0.186580
vn -0.898329 -0.186582 0.397733
vn -0.877792 -0.338732 0.338735
vn -0.707086 0.006875 0.707094
vn -0.842704 -0.097335 0.529505
vn -0.642612 -0.176533 0.745577
vn -0.845053 -0.142150 0.515440
vn -0.706634 -0.256414 0.659485
vn 0.000000 -1.000000 0.000000
vn 0.000000 -1.000000 0.000000
vn 0.000000 0.000000 -1.000000
vn 0.000000 0.000000 -1.000000
vn 0.000000 0.000000 -1.000000
vn 0.000000 0.000000 -1.000000
vn 0.000000 0.000000 -1.000000
vn 0.000000 0.000000 -1.000000
vn -0.000014 -0.972749 -0.231862
vn 0.000004 -0.972746 -0.231872
vn 0.000001 -0.972747 -0.231871
vn 0.000011 -0.972748 -0.231866
vn 0.000000 -0.972747 -0.231871
vn 0.000000 -0.972747 -0.231871
vn -0.000002 -0.972746 -0.231871
vn 0.000000 -0.972747 -0.231871
vn 0.000000 -0.972747 -0.231870
vn -0.000000 -0.972747 -0.231870
vn -0.000000 -0.972747 -0.231871
vn 0.000000 -0.972747 -0.231871
vn 0.988857 -0.148865 0.000000
vn 0.993711 -0.111964 -0.001630
vn 0.943883 -0.330278 0.000820
vn 0.846723 -0.532033 0.000990
vn 0.898250 -0.439482 -0.001787
vn 0.707107 -0.707107 0.000570
vn 0.739914 -0.672700 -0.001360
vn 0.532031 -0.846725 0.000270
vn 0.547176 -0.837017 -0.000628
vn 0.330280 -0.943882 0.001148
vn 0.360370 -0.932809 -0.000216
vn 0.229898 -0.973215 -0.000262
vn 0.111964 -0.993711 0.001525
vn 0.138737 -0.990329 0.000638
vn 0.046380 -0.998924 0.000000
vn 0.987541 -0.111269 0.111270
vn 0.943681 -0.330207 0.020738
vn 0.980727 -0.138156 0.138158
vn 0.843846 -0.530225 0.082369
vn 0.702104 -0.702104 0.118739
vn 0.878823 -0.446830 0.167370
vn 0.943681 -0.020740 0.330205
vn 0.980727 -0.138157 0.138159
vn 0.530407 -0.844139 0.078096
vn 0.674630 -0.720597 0.160045
vn 0.902387 -0.304708 0.304713
vn 0.872149 -0.426517 0.239665
vn 0.328617 -0.939130 0.100227
vn 0.111389 -0.988605 0.101252
vn 0.117916 -0.937299 0.327973
vn 0.102038 -0.988525 0.111381
vn 0.386365 -0.906450 0.170498
vn 0.724961 -0.578152 0.374395
vn 0.659109 -0.695022 0.287263
vn 0.843846 -0.082370 0.530226
vn 0.702102 -0.118740 0.702106
vn 0.878824 -0.167374 0.446827
vn 0.872150 -0.239665 0.426514
vn 0.132647 -0.839242 0.527331
vn 0.158068 -0.918855 0.361553
vn 0.462479 -0.797256 0.387938
vn 0.372386 -0.882957 0.285858
vn 0.683872 -0.515909 0.515904
vn 0.724963 -0.374396 0.578149
vn 0.138720 -0.700268 0.700272
vn 0.421101 -0.735595 0.530636
vn 0.184452 -0.783305 0.593642
vn 0.487343 -0.617456 0.617450
vn 0.530405 -0.078099 0.844139
vn 0.674626 -0.160047 0.720600
vn 0.659106 -0.287258 0.695027
vn 0.132642 -0.527329 0.839244
vn 0.184448 -0.593643 0.783305
vn 0.421099 -0.530637 0.735595
vn 0.462479 -0.387930 0.797260
vn 0.328617 -0.100228 0.939130
vn 0.111398 -0.101253 0.988604
vn 0.102041 -0.111389 0.988524
vn 0.117918 -0.327976 0.937298
vn 0.386367 -0.170499 0.906450
vn 0.158064 -0.361551 0.918856
vn 0.372389 -0.285853 0.882958
vn 0.988867 0.148799 -0.000244
vn 0.932297 0.361692 -0.000248
vn 0.933036 0.359784 0.000239
vn 0.817771 0.575537 -0.002982
vn 0.832762 0.553631 0.000244
vn 0.622413 0.782683 -0.003234
vn 0.692818 0.721110 0.001900
vn 0.432504 0.901632 -0.000786
vn 0.519879 0.854239 0.001641
vn 0.175642 0.984454 0.000145
vn 0.233473 0.972363 -0.000109
vn 0.313042 0.949739 0.000976
vn 0.322174 0.946679 0.001368
vn 0.025236 0.999681 0.000000
vn 0.075442 0.997150 0.000635
vn 0.124863 0.992172 0.001893
vn 0.109124 0.994027 0.001287
vn 0.979818 0.162427 0.116508
vn 0.987353 0.148571 0.055326
vn 0.025803 0.330170 0.943569
vn 0.126202 0.701451 0.701455
vn 0.120791 0.528134 0.840526
vn 0.161528 0.483956 0.860055
vn 0.118684 0.111182 0.986688
vn 0.115889 0.116550 0.986400
vn 0.343419 0.038924 0.938376
vn 0.140404 0.188461 0.971992
vn 0.190408 0.926616 0.324235
vn 0.121756 0.840424 0.528074
vn 0.188050 0.741556 0.643997
vn 0.316509 0.308353 0.897073
vn 0.271366 0.438881 0.856589
vn 0.108186 0.985484 0.130832
vn 0.321667 0.945189 0.056117
vn 0.120579 0.986462 0.111149
vn 0.162822 0.922336 0.350408
vn 0.355433 0.693444 0.626740
vn 0.427544 0.560059 0.709606
vn 0.551814 0.023830 0.833627
vn 0.428484 0.220380 0.876261
vn 0.432084 0.171777 0.885323
vn 0.516689 0.848997 0.110621
vn 0.465517 0.769179 0.437788
vn 0.427515 0.888410 0.167209
vn 0.367224 0.872166 0.323223
vn 0.570935 0.471085 0.672393
vn 0.605511 0.312577 0.731883
vn 0.682435 0.710303 0.172487
vn 0.824574 0.548188 0.139886
vn 0.691511 0.703684 0.163222
vn 0.618743 0.680310 0.392856
vn 0.688691 0.538900 0.485068
vn 0.726384 0.102243 0.679641
vn 0.868558 -0.015856 0.495334
vn 0.715108 0.193272 0.671763
vn 0.714522 0.145891 0.684232
vn 0.968006 0.177791 0.177073
vn 0.923943 0.356278 0.139271
vn 0.952174 0.126076 0.278335
vn 0.870580 0.451354 0.195882
vn 0.968448 0.184563 0.167465
vn 0.807341 0.418038 0.416467
vn 0.886416 0.169405 0.430777
vn 0.837998 0.251192 0.484420
vn 1.000000 0.000000 0.000000
vn 1.000000 0.000000 0.000000
vn 1.000000 0.000000 0.000000
vn 1.000000 0.000000 0.000000
vn 1.000000 0.000000 0.000000
vn 1.000000 0.000000 -0.000000
vn 1.000000 0.000000 -0.000000
vn 0.000000 -0.111973 0.993711
vn 0.000000 -0.111973 0.993711
vn 0.000000 -0.532030 0.846726
vn 0.000000 -0.330280 0.943883
vn 0.000000 -0.330280 0.943883
vn 0.000000 -0.532030 0.846726
vn 0.000000 -0.707105 0.707109
vn 0.000000 -0.707105 0.707109
vn 0.000000 -0.943884 0.330278
vn 0.000000 -0.846724 0.532032
vn 0.000000 -0.846724 0.532032
vn 0.000000 -0.943884 0.330278
vn 0.000000 -0.993712 0.111966
vn 0.000000 -0.993712 0.111966
vn 0.994545 -0.000653 0.104306
vn 0.998032 -0.000218 0.062701
vn 0.999781 -0.000000 0.020928
vn 0.989297 -0.000352 0.145918
vn 0.959832 0.000629 0.280574
vn 0.993712 -0.000774 0.111965
vn 0.868667 0.000552 0.495396
vn 0.943884 -0.000524 0.330276
vn 0.730211 0.000464 0.683222
vn 0.846723 -0.000442 0.532034
vn 0.551971 0.000365 0.833863
vn 0.707105 -0.000348 0.707109
vn 0.343679 0.000254 0.939087
vn 0.532030 -0.000244 0.846725
vn 0.116684 0.000133 0.993169
vn 0.330280 -0.000127 0.943883
vn 0.111973 -0.000000 0.993711
vn 0.000000 -0.000000 1.000000
vn 0.000000 0.000000 1.000000
vn 0.987542 -0.111269 -0.111269
vn 0.943681 -0.020738 -0.330207
vn 0.702106 -0.118737 -0.702103
vn 0.843846 -0.082368 -0.530225
vn 0.878824 -0.167369 -0.446829
vn 0.943681 -0.330207 -0.020738
vn 0.980727 -0.138158 -0.138158
vn 0.980727 -0.138158 -0.138158
vn 0.530407 -0.078096 -0.844139
vn 0.674630 -0.160045 -0.720597
vn 0.902388 -0.304710 -0.304710
vn 0.872150 -0.239664 -0.426516
vn 0.117913 -0.327974 -0.937299
vn 0.102035 -0.111380 -0.988526
vn 0.111389 -0.101248 -0.988606
vn 0.328615 -0.100224 -0.939131
vn 0.386367 -0.170497 -0.906450
vn 0.724962 -0.374395 -0.578151
vn 0.659108 -0.287260 -0.695024
vn 0.843846 -0.530225 -0.082368
vn 0.702106 -0.702103 -0.118737
vn 0.878824 -0.446829 -0.167369
vn 0.872150 -0.426516 -0.239664
vn 0.132642 -0.527330 -0.839243
vn 0.462480 -0.387934 -0.797258
vn 0.158065 -0.361554 -0.918855
vn 0.372388 -0.285856 -0.882957
vn 0.683872 -0.515906 -0.515906
vn 0.724962 -0.578151 -0.374395
vn 0.138722 -0.700270 -0.700270
vn 0.421099 -0.530641 -0.735592
vn 0.184450 -0.593647 -0.783302
vn 0.487340 -0.617454 -0.617454
vn 0.530407 -0.844139 -0.078096
vn 0.674630 -0.720597 -0.160045
vn 0.659108 -0.695024 -0.287260
vn 0.132642 -0.839243 -0.527330
vn 0.184450 -0.783302 -0.593647
vn 0.421099 -0.735592 -0.530641
vn 0.462480 -0.797258 -0.387934
vn 0.328615 -0.939131 -0.100224
vn 0.111389 -0.988606 -0.101248
vn 0.102035 -0.988526 -0.111380
vn 0.117913 -0.937299 -0.327974
vn 0.386367 -0.906450 -0.170497
vn 0.158065 -0.918855 -0.361554
vn 0.372388 -0.882957 -0.285856
vn -0.111924 0.026899 -0.993353
vn -0.051818 -0.111814 -0.992377
vn -0.326389 -0.153008 -0.932769
vn -0.107124 -0.328378 -0.938452
vn -0.341936 -0.150235 -0.927636
vn -0.154879 -0.226362 -0.961651
vn -0.531839 0.026957 -0.846416
vn -0.331764 -0.155919 -0.930388
vn -0.143919 -0.526493 -0.837910
vn -0.168128 -0.697041 -0.697041
vn -0.172046 -0.482722 -0.858708
vn -0.402666 -0.411963 -0.817402
vn -0.606864 -0.173045 -0.775739
vn -0.431914 -0.260619 -0.863440
vn -0.143919 -0.837910 -0.526493
vn -0.168128 -0.697041 -0.697041
vn -0.842705 -0.097338 -0.529504
vn -0.707089 0.006869 -0.707091
vn -0.642618 -0.176532 -0.745573
vn -0.427289 -0.639306 -0.639306
vn -0.481091 -0.507749 -0.714663
vn -0.326389 -0.932769 -0.153008
vn -0.107124 -0.938452 -0.328378
vn -0.172046 -0.858708 -0.482722
vn -0.706635 -0.256408 -0.659486
vn -0.677646 -0.406619 -0.612745
vn -0.845053 -0.142146 -0.515441
vn -0.481091 -0.714663 -0.507749
vn -0.402666 -0.817402 -0.411963
vn -0.111924 -0.993353 0.026899
vn -0.051818 -0.992377 -0.111814
vn -0.154879 -0.961651 -0.226362
vn -0.341936 -0.927636 -0.150235
vn -0.677646 -0.612745 -0.406619
vn -0.731114 -0.482427 -0.482427
vn -0.531839 -0.846416 0.026957
vn -0.331764 -0.930388 -0.155919
vn -0.606864 -0.775739 -0.173045
vn -0.431914 -0.863440 -0.260619
vn -0.938305 -0.328328 -0.108556
vn -0.987757 -0.111294 -0.109319
vn -0.987757 -0.109319 -0.111294
vn -0.938305 -0.108556 -0.328328
vn -0.898331 -0.397731 -0.186579
vn -0.898331 -0.186579 -0.397731
vn -0.877793 -0.338732 -0.338732
vn -0.707089 -0.707091 0.006869
vn -0.842705 -0.529503 -0.097338
vn -0.845053 -0.515441 -0.142146
vn -0.642618 -0.745573 -0.176532
vn -0.706635 -0.659486 -0.256408
vn 0.987542 0.111269 -0.111269
vn 0.943681 0.330207 -0.020738
vn 0.702104 0.702104 -0.118738
vn 0.843846 0.530225 -0.082368
vn 0.878824 0.446829 -0.167369
vn 0.943681 0.020738 -0.330207
vn 0.980727 0.138158 -0.138158
vn 0.980727 0.138157 -0.138158
vn 0.530407 0.844139 -0.078096
vn 0.674629 0.720598 -0.160045
vn 0.902388 0.304709 -0.304710
vn 0.872150 0.426516 -0.239664
vn 0.117915 0.937298 -0.327976
vn 0.102038 0.988526 -0.111380
vn 0.111389 0.988605 -0.101250
vn 0.328617 0.939130 -0.100226
vn 0.386367 0.906450 -0.170497
vn 0.659108 0.695024 -0.287260
vn 0.724961 0.578152 -0.374395
vn 0.843846 0.082368 -0.530225
vn 0.702106 0.118738 -0.702103
vn 0.878824 0.167369 -0.446829
vn 0.872150 0.239663 -0.426516
vn 0.132642 0.839243 -0.527330
vn 0.462480 0.797258 -0.387934
vn 0.158065 0.918855 -0.361554
vn 0.372388 0.882957 -0.285856
vn 0.683872 0.515907 -0.515906
vn 0.724962 0.374394 -0.578151
vn 0.138723 0.700271 -0.700269
vn 0.421099 0.735592 -0.530641
vn 0.184450 0.783302 -0.593647
vn 0.487339 0.617455 -0.617454
vn 0.530407 0.078096 -0.844139
vn 0.674630 0.160045 -0.720597
vn 0.659108 0.287259 -0.695024
vn 0.132643 0.527330 -0.839243
vn 0.184451 0.593647 -0.783302
vn 0.421098 0.530641 -0.735592
vn 0.462479 0.387933 -0.797258
vn 0.328615 0.100224 -0.939131
vn 0.111389 0.101248 -0.988606
vn 0.102036 0.111380 -0.988526
vn 0.117914 0.327974 -0.937299
vn 0.386367 0.170497 -0.906450
vn 0.158065 0.361553 -0.918855
vn 0.372388 0.285856 -0.882957
vn -0.111269 0.987542 -0.111269
vn -0.330209 0.943680 -0.020737
vn -0.138158 0.980727 -0.138158
vn -0.702103 0.702107 -0.118732
vn -0.530225 0.843847 -0.082364
vn -0.446829 0.878825 -0.167365
vn -0.020737 0.943680 -0.330209
vn -0.138157 0.980727 -0.138157
vn -0.844139 0.530405 -0.078099
vn -0.720600 0.674627 -0.160047
vn -0.304711 0.902388 -0.304710
vn -0.426514 0.872150 -0.239665
vn -0.937298 0.117917 -0.327976
vn -0.988525 0.102040 -0.111380
vn -0.988605 0.111389 -0.101253
vn -0.939130 0.328617 -0.100229
vn -0.906450 0.386366 -0.170499
vn -0.695027 0.659106 -0.287258
vn -0.578149 0.724963 -0.374397
vn -0.082368 0.843847 -0.530224
vn -0.118738 0.702106 -0.702103
vn -0.167366 0.878824 -0.446830
vn -0.239664 0.872150 -0.426516
vn -0.839244 0.132641 -0.527329
vn -0.918856 0.158064 -0.361551
vn -0.882958 0.372389 -0.285853
vn -0.797259 0.462480 -0.387930
vn -0.515906 0.683874 -0.515905
vn -0.374394 0.724963 -0.578150
vn -0.700269 0.138722 -0.700271
vn -0.735592 0.421098 -0.530641
vn -0.617456 0.487339 -0.617454
vn -0.783302 0.184450 -0.593647
vn -0.078096 0.530407 -0.844139
vn -0.160045 0.674630 -0.720597
vn -0.287259 0.659109 -0.695023
vn -0.527331 0.132644 -0.839242
vn -0.593645 0.184450 -0.783303
vn -0.530640 0.421097 -0.735594
vn -0.387934 0.462478 -0.797259
vn -0.111380 0.102036 -0.988526
vn -0.327974 0.117914 -0.937299
vn -0.100225 0.328615 -0.939131
vn -0.101249 0.111389 -0.988606
vn -0.170497 0.386366 -0.906450
vn -0.285857 0.372387 -0.882957
vn -0.361554 0.158066 -0.918855
vn -0.992923 0.118756 0.000317
vn -0.993712 0.111965 0.000000
vn -0.936228 0.351392 0.000510
vn -0.943883 0.330280 -0.000291
vn -0.814269 0.580487 0.001190
vn -0.846725 0.532030 -0.000461
vn -0.618408 0.785856 0.001243
vn -0.707104 0.707109 -0.000788
vn -0.431769 0.901984 0.000334
vn -0.532032 0.846724 -0.000652
vn -0.125586 0.992083 -0.000505
vn -0.175674 0.984448 -0.000092
vn -0.233427 0.972374 0.000057
vn -0.313803 0.949488 -0.000366
vn -0.330280 0.943883 -0.000657
vn -0.025236 0.999682 0.000000
vn -0.075554 0.997142 -0.000283
vn -0.111965 0.993712 -0.000693
vn 0.000000 0.111965 -0.993712
vn 0.000000 0.330278 -0.943884
vn 0.000000 0.111965 -0.993712
vn 0.000000 0.532032 -0.846725
vn 0.000000 0.330278 -0.943884
vn 0.000000 0.707108 -0.707106
vn 0.000000 0.532032 -0.846725
vn 0.000000 0.846725 -0.532032
vn 0.000000 0.707108 -0.707106
vn 0.000000 0.943883 -0.330280
vn 0.000000 0.846725 -0.532032
vn 0.000000 0.943883 -0.330280
vn 0.000000 0.993712 -0.111965
vn 0.000000 0.993712 -0.111965
vn -0.993712 0.000000 -0.111965
vn -0.943883 0.000000 -0.330280
vn -0.993712 0.000000 -0.111965
vn -0.846726 0.000000 -0.532030
vn -0.943883 0.000000 -0.330280
vn -0.707106 0.000000 -0.707108
vn -0.846726 0.000000 -0.532030
vn -0.532032 0.000000 -0.846724
vn -0.707106 0.000000 -0.707108
vn -0.330278 0.000000 -0.943884
vn -0.532032 0.000000 -0.846724
vn -0.330278 0.000000 -0.943884
vn -0.111965 0.000000 -0.993712
vn -0.111965 0.000000 -0.993712
vn 0.993712 0.111965 0.000000
vn 0.846722 0.532032 0.001689
vn 0.943883 0.330278 -0.000865
vn 0.984551 0.175074 0.002953
vn 0.707107 0.707107 -0.000747
vn 0.847973 0.530037 0.001580
vn 0.532031 0.846724 -0.000471
vn 0.613159 0.789958 0.001620
vn 0.330280 0.943883 -0.000716
vn 0.406611 0.913601 0.000274
vn 0.282936 0.959139 -0.000041
vn 0.111965 0.993712 -0.000638
vn 0.187280 0.982307 0.000027
vn 0.113901 0.993492 -0.000670
vn 0.062014 0.998075 -0.000190
vn 0.020699 0.999786 0.000000
vn 0.993712 0.000000 -0.111965
vn 0.943884 0.000000 -0.330278
vn 0.993712 0.000000 -0.111965
vn 0.846724 0.000000 -0.532033
vn 0.943884 0.000000 -0.330278
vn 0.707108 0.000000 -0.707106
vn 0.846724 0.000000 -0.532033
vn 0.532031 0.000000 -0.846725
vn 0.707108 0.000000 -0.707106
vn 0.330278 0.000000 -0.943884
vn 0.532031 0.000000 -0.846725
vn 0.111965 0.000000 -0.993712
vn 0.330278 0.000000 -0.943884
vn 0.111965 0.000000 -0.993712
vn 0.000000 -0.993712 -0.111965
vn -0.000000 -0.993712 -0.111965
vn -0.000000 -0.943884 -0.330278
vn 0.000000 -0.943884 -0.330278
vn -0.000000 -0.846725 -0.532032
vn 0.000000 -0.846725 -0.532032
vn -0.000000 -0.707107 -0.707107
vn 0.000000 -0.707107 -0.707107
vn -0.000000 -0.532032 -0.846725
vn 0.000000 -0.532032 -0.846725
vn -0.000000 -0.330278 -0.943884
vn 0.000000 -0.330278 -0.943884
vn -0.000000 -0.111965 -0.993712
vn 0.000000 -0.111965 -0.993712
vn -0.992870 -0.119198 0.000000
vn -0.993712 -0.111965 0.000143
vn -0.846726 -0.532030 -0.000253
vn -0.943883 -0.330280 0.000328
vn -0.936651 -0.350264 -0.000151
vn -0.707106 -0.707108 -0.000564
vn -0.794113 -0.607768 0.001347
vn -0.532032 -0.846724 -0.000584
vn -0.593753 -0.804647 0.000588
vn -0.330278 -0.943883 -0.000612
vn -0.432020 -0.901864 0.000306
vn -0.315675 -0.948867 -0.000369
vn -0.234058 -0.972223 0.000055
vn -0.176359 -0.984326 -0.000087
vn -0.111965 -0.993712 -0.000690
vn -0.126500 -0.991966 -0.000491
vn -0.075971 -0.997110 -0.000285
vn -0.025316 -0.999680 -0.000000
vn 0.981296 -0.192502 0.001388
vn 0.993712 -0.111965 0.000000
vn 0.843201 -0.537598 0.000966
vn 0.943884 -0.330278 -0.000474
vn 0.846723 -0.532033 0.001159
vn 0.607255 -0.794506 0.001311
vn 0.707108 -0.707106 -0.000557
vn 0.405730 -0.913993 0.000250
vn 0.532031 -0.846724 -0.000421
vn 0.282889 -0.959153 -0.000039
vn 0.187049 -0.982351 0.000026
vn 0.114278 -0.993449 -0.000612
vn 0.330278 -0.943883 -0.000678
vn 0.061935 -0.998080 -0.000189
vn 0.020633 -0.999787 0.000000
vn 0.111965 -0.993712 -0.000649
vn -1.000000 0.000000 0.000000
vn -1.000000 0.000000 0.000000
vn -1.000000 0.000000 0.000000
vn -1.000000 0.000000 -0.000000
vn -1.000000 0.000000 0.000000
vn -1.000000 0.000000 0.000000
vn -1.000000 0.000000 0.000000
vn -0.000003 -0.972032 0.234850
vn 0.000001 -0.972027 0.234871
vn -0.000002 -0.972029 0.234862
vn -0.000001 -0.972028 0.234863
vn -0.000001 -0.972028 0.234864
vn 0.000000 -0.972028 0.234865
vn 0.000001 -0.972028 0.234866
vn 0.000001 -0.972028 0.234866
vn -0.000001 -0.972028 0.234865
vn 0.000000 -0.972028 0.234865
vn 0.000000 -0.972028 0.234865
vn 0.000000 -0.972028 0.234865
vn 0.000000 -0.972028 0.234865
vn 0.000000 -0.972028 0.234865
vn -0.000002 -0.972028 0.234866
vn 0.000001 -0.972028 0.234864
vn 0.000000 -0.972028 0.234865
vn -0.000013 -0.972009 0.234943
vn -0.000003 -0.972027 0.234868
vn 0.000003 -0.972031 0.234854
vn -0.000001 -0.972028 0.234866
vn -0.000001 -0.972028 0.234865
vn 0.000000 -1.000000 0.000000
vn 0.000000 -1.000000 0.000000
vn 0.000000 -0.000000 -1.000000
vn -0.000000 0.000000 -1.000000
vn 0.000000 1.000000 0.000000
vn 0.000000 1.000000 0.000000
vn 0.000001 0.972387 0.233373
vn 0.000005 0.972387 0.233373
vn 0.000005 0.972387 0.233373
vn -0.000025 0.972387 0.233375
vn 0.000001 0.972387 0.233373
vn -0.000005 0.972387 0.233373
vn -0.000000 0.972387 0.233373
vn 0.000004 0.972387 0.233373
vn 0.000000 0.972387 0.233373
vn 0.000000 0.972383 0.233390
vn -0.001162 0.972382 0.233392
vn -0.004971 0.972306 0.233657
vn 0.000000 0.972387 0.233373
vn 0.000000 0.972387 0.233373
vn 0.000003 0.972387 0.233373
vn 0.000014 0.972387 0.233374
vn -0.000009 0.972387 0.233372
vn 0.000000 0.972387 0.233373
vn -0.000006 0.972387 0.233373
vn -0.000003 0.972387 0.233373
vn -0.000377 0.972378 0.233412
vn -0.000244 0.972394 0.233343
vn -0.000847 0.972387 0.233373
vn 0.000008 0.972387 0.233373
vn 0.000008 0.972387 0.233373
vn -0.000001 0.972387 0.233373
vn -0.000003 0.972387 0.233373
vn 0.000004 0.972387 0.233373
vn -0.000001 0.972387 0.233373
vn 0.000000 0.972387 -0.233373
vn 0.000000 0.972387 -0.233373
vn 0.000000 0.972387 -0.233373
vn 0.000000 0.972387 -0.233373
vn 0.000000 0.972387 -0.233373
vn 0.000000 0.972387 -0.233373
vn -0.000003 0.972387 -0.233373
vn 0.000002 0.972387 -0.233373
vn -0.000001 0.972387 -0.233373
vn 0.000000 0.972387 -0.233373
vn 0.000000 0.972387 -0.233373
vn 0.000000 0.972387 -0.233373
vn -0.000005 0.972387 -0.233373
vn 0.000007 0.972387 -0.233373
vn 0.000000 0.972387 -0.233373
vn 0.000000 0.972387 -0.233373
vn 0.000001 0.972387 -0.233373
vn 0.000000 0.972387 -0.233373
vn 0.000000 0.972387 -0.233373
vn -0.000001 0.972387 -0.233373
vn 0.000001 0.972387 -0.233373
vn 0.000000 0.972387 -0.233373
vn 0.000000 1.000000 0.000000
vn 0.000000 1.000000 0.000000
f 1//1 2//1 3//1
f 1//2 4//2 2//2
f 5//3 6//3 7//3
f 5//4 7//4 8//4
f 5//5 8//5 9//5
f 10//6 11//6 6//6
f 10//7 6//7 5//7
f 12//8 9//8 13//8
f 12//9 5//9 9//9
f 14//10 15//10 16//10
f 14//11 16//11 11//11
f 14//12 11//12 10//12
f 17//13 10//13 5//13
f 17//14 5//14 12//14
f 18//15 10//15 17//15
f 18//16 14//16 10//16
f 19//17 13//17 20//17
f 19//18 20//18 21//18
f 19//19 17//19 12//19
f 19//20 12//20 13//20
f 22//21 3//21 23//21
f 22//22 23//22 15//22
f 22//23 24//23 1//23
f 22//24 15//24 14//24
f 22//25 14//25 18//25
f 22//26 1//26 3//26
f 25//27 17//27 19//27
f 25//28 18//28 17//28
f 26//29 27//29 28//29
f 26//30 28//30 24//30
f 26//31 22//31 18//31
f 26//32 24//32 22//32
f 26//33 18//33 25//33
f 29//34 21//34 30//34
f 29//35 30//35 31//35
f 29//36 19//36 21//36
f 29//37 25//37 19//37
f 32//38 33//38 27//38
f 32//39 27//39 26//39
f 32//40 26//40 25//40
f 32//41 25//41 29//41
f 34//42 31//42 35//42
f 34//43 35//43 36//43
f 34//44 36//44 33//44
f 34//45 33//45 32//45
f 34//46 29//46 31//46
f 34//47 32//47 29//47
f 37//48 1//48 24//48
f 37//49 4//49 1//49
f 28//50 37//50 24//50
f 38//51 28//51 27//51
f 38//52 37//52 28//52
f 39//53 27//53 33//53
f 39//54 38//54 27//54
f 40//55 33//55 36//55
f 40//56 39//56 33//56
f 41//57 40//57 36//57
f 42//58 36//58 35//58
f 42//59 41//59 36//59
f 43//60 42//60 35//60
f 44//61 43//61 35//61
f 45//62 44//62 35//62
f 46//63 35//63 31//63
f 46//64 47//64 35//64
f 48//65 30//65 21//65
f 48//66 31//66 30//66
f 48//67 46//67 31//67
f 49//68 48//68 21//68
f 50//69 21//69 20//69
f 50//70 49//70 21//70
f 51//71 13//71 9//71
f 51//72 20//72 13//72
f 51//73 50//73 20//73
f 52//74 51//74 9//74
f 53//75 9//75 8//75
f 53//76 52//76 9//76
f 54//77 55//77 56//77
f 57//78 54//78 56//78
f 58//79 56//79 59//79
f 58//80 57//80 56//80
f 23//81 58//81 59//81
f 15//82 59//82 60//82
f 15//83 23//83 59//83
f 16//84 60//84 61//84
f 16//85 15//85 60//85
f 11//86 61//86 62//86
f 11//87 16//87 61//87
f 6//88 62//88 63//88
f 6//89 11//89 62//89
f 7//90 63//90 64//90
f 7//91 6//91 63//91
f 8//92 64//92 65//92
f 8//93 7//93 64//93
f 66//94 56//94 67//94
f 66//95 67//95 68//95
f 69//96 68//96 70//96
f 69//97 66//97 68//97
f 71//98 69//98 70//98
f 72//99 70//99 73//99
f 72//100 71//100 70//100
f 74//101 73//101 75//101
f 74//102 75//102 76//102
f 74//103 72//103 73//103
f 77//104 76//104 78//104
f 77//105 78//105 79//105
f 77//106 74//106 76//106
f 80//107 79//107 81//107
f 80//108 77//108 79//108
f 82//109 77//109 80//109
f 82//110 80//110 83//110
f 84//111 74//111 77//111
f 84//112 83//112 85//112
f 84//113 77//113 82//113
f 84//114 82//114 83//114
f 86//115 72//115 74//115
f 86//116 74//116 84//116
f 87//117 85//117 88//117
f 87//118 88//118 89//118
f 87//119 84//119 85//119
f 90//120 84//120 87//120
f 90//121 72//121 86//121
f 90//122 86//122 84//122
f 91//123 89//123 92//123
f 91//124 87//124 89//124
f 93//125 71//125 72//125
f 93//126 69//126 71//126
f 93//127 72//127 90//127
f 94//128 87//128 91//128
f 94//129 90//129 87//129
f 95//130 92//130 96//130
f 95//131 64//131 63//131
f 95//132 91//132 92//132
f 97//133 90//133 94//133
f 97//134 69//134 93//134
f 97//135 93//135 90//135
f 98//136 91//136 95//136
f 98//137 94//137 91//137
f 99//138 96//138 65//138
f 99//139 65//139 64//139
f 99//140 95//140 96//140
f 99//141 64//141 95//141
f 100//142 97//142 94//142
f 100//143 94//143 98//143
f 101//144 63//144 62//144
f 101//145 62//145 98//145
f 101//146 95//146 63//146
f 101//147 98//147 95//147
f 102//148 66//148 69//148
f 102//149 56//149 66//149
f 102//150 60//150 59//150
f 102//151 59//151 56//151
f 102//152 69//152 97//152
f 102//153 100//153 60//153
f 102//154 97//154 100//154
f 103//155 62//155 61//155
f 103//156 61//156 60//156
f 103//157 98//157 62//157
f 103//158 60//158 100//158
f 103//159 100//159 98//159
f 104//160 80//160 81//160
f 104//161 105//161 80//161
f 81//162 78//162 76//162
f 81//163 79//163 78//163
f 106//164 107//164 104//164
f 108//165 106//165 104//165
f 76//166 108//166 81//166
f 81//167 108//167 104//167
f 73//168 76//168 75//168
f 70//169 76//169 73//169
f 68//170 76//170 70//170
f 109//171 110//171 108//171
f 111//172 108//172 76//172
f 111//173 76//173 68//173
f 111//174 109//174 108//174
f 112//175 68//175 67//175
f 112//176 111//176 68//176
f 113//177 112//177 67//177
f 114//178 67//178 115//178
f 114//179 113//179 67//179
f 112//180 113//180 116//180
f 112//181 116//181 117//181
f 112//182 117//182 118//182
f 111//183 118//183 119//183
f 111//184 112//184 118//184
f 109//185 119//185 120//185
f 109//186 111//186 119//186
f 110//187 120//187 121//187
f 110//188 109//188 120//188
f 108//189 121//189 122//189
f 108//190 110//190 121//190
f 106//191 108//191 122//191
f 107//192 122//192 105//192
f 107//193 106//193 122//193
f 104//194 107//194 105//194
f 123//195 117//195 116//195
f 124//196 118//196 117//196
f 124//197 117//197 123//197
f 125//198 119//198 118//198
f 125//199 120//199 119//199
f 125//200 118//200 124//200
f 126//201 123//201 127//201
f 126//202 124//202 123//202
f 128//203 121//203 120//203
f 128//204 120//204 125//204
f 129//205 124//205 126//205
f 129//206 125//206 124//206
f 130//207 122//207 121//207
f 130//208 105//208 122//208
f 130//209 131//209 132//209
f 130//210 132//210 105//210
f 130//211 121//211 128//211
f 133//212 125//212 129//212
f 133//213 128//213 125//213
f 134//214 127//214 135//214
f 134//215 135//215 136//215
f 134//216 126//216 127//216
f 134//217 129//217 126//217
f 137//218 138//218 131//218
f 137//219 131//219 130//219
f 137//220 128//220 133//220
f 137//221 130//221 128//221
f 139//222 133//222 129//222
f 139//223 129//223 134//223
f 140//224 141//224 138//224
f 140//225 137//225 133//225
f 140//226 138//226 137//226
f 140//227 133//227 139//227
f 142//228 136//228 143//228
f 142//229 134//229 136//229
f 142//230 139//230 134//230
f 144//231 145//231 141//231
f 144//232 141//232 140//232
f 144//233 140//233 139//233
f 144//234 139//234 142//234
f 146//235 143//235 147//235
f 146//236 147//236 148//236
f 146//237 148//237 149//237
f 146//238 149//238 145//238
f 146//239 142//239 143//239
f 146//240 145//240 144//240
f 146//241 144//241 142//241
f 150//242 151//242 152//242
f 153//243 152//243 154//243
f 153//244 150//244 152//244
f 155//245 154//245 156//245
f 155//246 153//246 154//246
f 157//247 156//247 158//247
f 157//248 155//248 156//248
f 159//249 158//249 160//249
f 159//250 157//250 158//250
f 161//251 162//251 163//251
f 161//252 164//252 162//252
f 161//253 160//253 164//253
f 161//254 159//254 160//254
f 47//255 165//255 166//255
f 47//256 167//256 165//256
f 47//257 163//257 167//257
f 47//258 161//258 163//258
f 168//259 150//259 169//259
f 151//260 150//260 168//260
f 170//261 51//261 52//261
f 171//262 49//262 50//262
f 171//263 50//263 51//263
f 171//264 51//264 170//264
f 172//265 52//265 53//265
f 172//266 53//266 173//266
f 172//267 173//267 174//267
f 172//268 170//268 52//268
f 175//269 46//269 48//269
f 175//270 48//270 49//270
f 175//271 49//271 171//271
f 176//272 170//272 172//272
f 176//273 171//273 170//273
f 177//274 161//274 47//274
f 177//275 159//275 161//275
f 177//276 47//276 46//276
f 177//277 46//277 175//277
f 178//278 175//278 171//278
f 178//279 171//279 176//279
f 179//280 174//280 180//280
f 179//281 176//281 172//281
f 179//282 172//282 174//282
f 181//283 157//283 159//283
f 181//284 175//284 178//284
f 181//285 159//285 177//285
f 181//286 177//286 175//286
f 182//287 178//287 176//287
f 182//288 176//288 179//288
f 183//289 155//289 157//289
f 183//290 153//290 155//290
f 183//291 157//291 181//291
f 183//292 181//292 178//292
f 183//293 178//293 182//293
f 184//294 180//294 185//294
f 184//295 185//295 186//295
f 184//296 182//296 179//296
f 184//297 179//297 180//297
f 187//298 188//298 169//298
f 187//299 150//299 153//299
f 187//300 186//300 188//300
f 187//301 153//301 183//301
f 187//302 169//302 150//302
f 187//303 183//303 182//303
f 187//304 184//304 186//304
f 187//305 182//305 184//305
f 189//306 116//306 113//306
f 190//307 113//307 114//307
f 190//308 114//308 191//308
f 190//309 189//309 113//309
f 192//310 191//310 193//310
f 192//311 190//311 191//311
f 194//312 192//312 193//312
f 149//313 65//313 96//313
f 149//314 148//314 65//314
f 145//315 92//315 89//315
f 145//316 96//316 92//316
f 145//317 149//317 96//317
f 141//318 145//318 89//318
f 138//319 89//319 88//319
f 138//320 141//320 89//320
f 131//321 85//321 83//321
f 131//322 88//322 85//322
f 131//323 138//323 88//323
f 132//324 131//324 83//324
f 105//325 83//325 80//325
f 105//326 132//326 83//326
f 116//327 195//327 196//327
f 116//328 197//328 195//328
f 116//329 189//329 197//329
f 123//330 196//330 188//330
f 123//331 188//331 186//331
f 123//332 116//332 196//332
f 127//333 186//333 185//333
f 127//334 123//334 186//334
f 135//335 185//335 180//335
f 135//336 127//336 185//336
f 136//337 180//337 174//337
f 136//338 135//338 180//338
f 143//339 174//339 173//339
f 143//340 136//340 174//340
f 147//341 173//341 53//341
f 147//342 143//342 173//342
f 148//343 147//343 53//343
f 148//344 53//344 8//344
f 148//345 8//345 65//345
f 198//346 199//346 193//346
f 200//347 201//347 199//347
f 202//348 203//348 204//348
f 202//349 204//349 201//349
f 202//350 201//350 200//350
f 205//351 198//351 206//351
f 205//352 199//352 198//352
f 205//353 200//353 199//353
f 207//354 208//354 203//354
f 207//355 203//355 202//355
f 209//356 200//356 205//356
f 209//357 202//357 200//357
f 210//358 211//358 212//358
f 210//359 212//359 213//359
f 210//360 213//360 214//360
f 210//361 214//361 208//361
f 210//362 208//362 207//362
f 215//363 202//363 209//363
f 215//364 207//364 202//364
f 216//365 206//365 217//365
f 216//366 217//366 218//366
f 216//367 205//367 206//367
f 216//368 209//368 205//368
f 219//369 220//369 211//369
f 219//370 207//370 215//370
f 219//371 211//371 210//371
f 219//372 210//372 207//372
f 221//373 215//373 209//373
f 221//374 209//374 216//374
f 222//375 223//375 220//375
f 222//376 219//376 215//376
f 222//377 220//377 219//377
f 222//378 215//378 221//378
f 224//379 218//379 225//379
f 224//380 216//380 218//380
f 224//381 221//381 216//381
f 226//382 227//382 223//382
f 226//383 223//383 222//383
f 226//384 222//384 221//384
f 226//385 221//385 224//385
f 228//386 225//386 229//386
f 228//387 229//387 230//387
f 228//388 230//388 231//388
f 228//389 231//389 227//389
f 228//390 224//390 225//390
f 228//391 227//391 226//391
f 228//392 226//392 224//392
f 232//393 233//393 234//393
f 232//394 234//394 235//394
f 236//395 237//395 233//395
f 236//396 235//396 238//396
f 236//397 233//397 232//397
f 236//398 232//398 235//398
f 239//399 240//399 237//399
f 239//400 237//400 236//400
f 241//401 238//401 242//401
f 241//402 242//402 243//402
f 241//403 236//403 238//403
f 244//404 236//404 241//404
f 244//405 240//405 239//405
f 244//406 239//406 236//406
f 245//407 243//407 246//407
f 245//408 241//408 243//408
f 247//409 248//409 249//409
f 247//410 249//410 240//410
f 247//411 240//411 244//411
f 250//412 241//412 245//412
f 250//413 244//413 241//413
f 251//414 252//414 253//414
f 251//415 246//415 254//415
f 251//416 245//416 246//416
f 255//417 247//417 244//417
f 255//418 244//418 250//418
f 255//419 248//419 247//419
f 256//420 250//420 245//420
f 256//421 245//421 251//421
f 257//422 258//422 252//422
f 257//423 254//423 258//423
f 257//424 251//424 254//424
f 257//425 252//425 251//425
f 259//426 250//426 256//426
f 259//427 255//427 250//427
f 260//428 253//428 261//428
f 260//429 251//429 253//429
f 260//430 261//430 256//430
f 260//431 256//431 251//431
f 262//432 263//432 264//432
f 262//433 264//433 265//433
f 262//434 265//434 266//434
f 262//435 266//435 248//435
f 262//436 259//436 263//436
f 262//437 248//437 255//437
f 262//438 255//438 259//438
f 267//439 261//439 268//439
f 267//440 268//440 263//440
f 267//441 263//441 259//441
f 267//442 256//442 261//442
f 267//443 259//443 256//443
f 269//444 270//444 194//444
f 271//445 272//445 270//445
f 273//446 274//446 275//446
f 273//447 275//447 272//447
f 273//448 272//448 271//448
f 276//449 269//449 277//449
f 276//450 270//450 269//450
f 276//451 271//451 270//451
f 278//452 279//452 274//452
f 278//453 274//453 273//453
f 280//454 271//454 276//454
f 280//455 273//455 271//455
f 281//456 282//456 283//456
f 281//457 283//457 284//457
f 281//458 284//458 285//458
f 281//459 285//459 279//459
f 281//460 279//460 278//460
f 286//461 278//461 273//461
f 286//462 273//462 280//462
f 287//463 277//463 288//463
f 287//464 288//464 289//464
f 287//465 276//465 277//465
f 287//466 280//466 276//466
f 290//467 291//467 282//467
f 290//468 278//468 286//468
f 290//469 282//469 281//469
f 290//470 281//470 278//470
f 292//471 286//471 280//471
f 292//472 280//472 287//472
f 293//473 294//473 291//473
f 293//474 290//474 286//474
f 293//475 291//475 290//475
f 293//476 286//476 292//476
f 295//477 289//477 296//477
f 295//478 287//478 289//478
f 295//479 292//479 287//479
f 297//480 298//480 294//480
f 297//481 294//481 293//481
f 297//482 293//482 292//482
f 297//483 292//483 295//483
f 299//484 296//484 300//484
f 299//485 300//485 301//485
f 299//486 301//486 302//486
f 299//487 302//487 298//487
f 299//488 295//488 296//488
f 299//489 298//489 297//489
f 299//490 297//490 295//490
f 303//491 304//491 305//491
f 306//492 307//492 304//492
f 306//493 304//493 303//493
f 308//494 309//494 310//494
f 308//495 310//495 307//495
f 308//496 307//496 306//496
f 311//497 303//497 312//497
f 311//498 306//498 303//498
f 313//499 314//499 309//499
f 313//500 309//500 308//500
f 315//501 306//501 311//501
f 315//502 308//502 306//502
f 316//503 317//503 318//503
f 316//504 318//504 319//504
f 316//505 319//505 320//505
f 316//506 320//506 314//506
f 316//507 314//507 313//507
f 321//508 313//508 308//508
f 321//509 308//509 315//509
f 322//510 312//510 323//510
f 322//511 323//511 324//511
f 322//512 311//512 312//512
f 322//513 315//513 311//513
f 325//514 326//514 317//514
f 325//515 317//515 316//515
f 325//516 316//516 313//516
f 325//517 313//517 321//517
f 327//518 321//518 315//518
f 327//519 315//519 322//519
f 328//520 329//520 326//520
f 328//521 325//521 321//521
f 328//522 321//522 327//522
f 328//523 326//523 325//523
f 330//524 324//524 331//524
f 330//525 322//525 324//525
f 330//526 327//526 322//526
f 332//527 333//527 329//527
f 332//528 329//528 328//528
f 332//529 328//529 327//529
f 332//530 327//530 330//530
f 334//531 335//531 336//531
f 334//532 336//532 333//532
f 334//533 331//533 337//533
f 334//534 337//534 335//534
f 334//535 330//535 331//535
f 334//536 332//536 330//536
f 334//537 333//537 332//537
f 320//538 338//538 339//538
f 320//539 319//539 338//539
f 314//540 339//540 340//540
f 314//541 320//541 339//541
f 309//542 340//542 341//542
f 309//543 314//543 340//543
f 310//544 341//544 342//544
f 310//545 309//545 341//545
f 307//546 342//546 343//546
f 307//547 310//547 342//547
f 304//548 344//548 345//548
f 304//549 346//549 344//549
f 304//550 347//550 346//550
f 304//551 343//551 347//551
f 304//552 307//552 343//552
f 305//553 348//553 349//553
f 305//554 345//554 348//554
f 305//555 304//555 345//555
f 301//556 335//556 337//556
f 302//557 337//557 331//557
f 302//558 301//558 337//558
f 298//559 331//559 324//559
f 298//560 302//560 331//560
f 294//561 324//561 323//561
f 294//562 298//562 324//562
f 291//563 323//563 312//563
f 291//564 294//564 323//564
f 282//565 312//565 303//565
f 282//566 291//566 312//566
f 283//567 282//567 303//567
f 284//568 303//568 305//568
f 284//569 283//569 303//569
f 265//570 319//570 318//570
f 266//571 318//571 317//571
f 266//572 265//572 318//572
f 248//573 317//573 326//573
f 248//574 266//574 317//574
f 249//575 326//575 329//575
f 249//576 248//576 326//576
f 240//577 329//577 333//577
f 240//578 249//578 329//578
f 237//579 333//579 336//579
f 237//580 240//580 333//580
f 233//581 237//581 336//581
f 234//582 336//582 335//582
f 234//583 233//583 336//583
f 192//584 194//584 270//584
f 350//585 272//585 275//585
f 350//586 270//586 272//586
f 350//587 192//587 270//587
f 351//588 275//588 274//588
f 351//589 350//589 275//589
f 352//590 274//590 279//590
f 352//591 351//591 274//591
f 353//592 279//592 285//592
f 353//593 352//593 279//593
f 354//594 353//594 285//594
f 355//595 285//595 284//595
f 355//596 354//596 285//596
f 356//597 355//597 284//597
f 357//598 356//598 284//598
f 358//599 357//599 284//599
f 194//600 193//600 199//600
f 269//601 199//601 201//601
f 269//602 194//602 199//602
f 277//603 201//603 204//603
f 277//604 269//604 201//604
f 288//605 204//605 203//605
f 288//606 277//606 204//606
f 289//607 203//607 208//607
f 289//608 288//608 203//608
f 296//609 208//609 214//609
f 296//610 289//610 208//610
f 300//611 214//611 213//611
f 300//612 296//612 214//612
f 301//613 300//613 213//613
f 231//614 230//614 258//614
f 231//615 258//615 254//615
f 227//616 254//616 246//616
f 227//617 231//617 254//617
f 223//618 246//618 243//618
f 223//619 227//619 246//619
f 220//620 243//620 242//620
f 220//621 223//621 243//621
f 211//622 242//622 238//622
f 211//623 220//623 242//623
f 212//624 238//624 235//624
f 212//625 211//625 238//625
f 213//626 235//626 234//626
f 213//627 212//627 235//627
f 359//628 360//628 265//628
f 359//629 265//629 264//629
f 361//630 263//630 268//630
f 361//631 264//631 263//631
f 361//632 359//632 264//632
f 362//633 268//633 261//633
f 362//634 361//634 268//634
f 363//635 261//635 253//635
f 363//636 362//636 261//636
f 364//637 253//637 252//637
f 364//638 363//638 253//638
f 365//639 364//639 252//639
f 366//640 365//640 252//640
f 367//641 366//641 252//641
f 368//642 252//642 258//642
f 368//643 367//643 252//643
f 369//644 368//644 258//644
f 370//645 369//645 258//645
f 198//646 191//646 371//646
f 198//647 193//647 191//647
f 206//648 371//648 372//648
f 206//649 198//649 371//649
f 217//650 206//650 372//650
f 218//651 372//651 373//651
f 218//652 217//652 372//652
f 225//653 373//653 374//653
f 225//654 218//654 373//654
f 229//655 374//655 375//655
f 229//656 375//656 376//656
f 229//657 376//657 377//657
f 229//658 225//658 374//658
f 230//659 377//659 378//659
f 230//660 378//660 379//660
f 230//661 229//661 377//661
f 265//662 338//662 319//662
f 360//663 380//663 338//663
f 360//664 338//664 265//664
f 115//665 380//665 360//665
f 67//666 55//666 380//666
f 67//667 380//667 115//667
f 56//668 55//668 67//668
f 370//669 368//669 369//669
f 370//670 367//670 368//670
f 370//671 366//671 367//671
f 370//672 365//672 366//672
f 370//673 364//673 365//673
f 370//674 363//674 364//674
f 370//675 362//675 363//675
f 370//676 361//676 362//676
f 370//677 359//677 361//677
f 191//678 360//678 359//678
f 191//679 114//679 115//679
f 191//680 115//680 360//680
f 371//681 359//681 370//681
f 371//682 191//682 359//682
f 379//683 372//683 371//683
f 379//684 373//684 372//684
f 379//685 371//685 370//685
f 377//686 379//686 378//686
f 374//687 373//687 379//687
f 376//688 379//688 377//688
f 375//689 374//689 379//689
f 375//690 379//690 376//690
f 230//691 370//691 258//691
f 230//692 379//692 370//692
f 301//693 213//693 234//693
f 301//694 234//694 335//694
f 47//695 45//695 35//695
f 47//696 166//696 45//696
f 40//697 41//697 380//697
f 42//698 380//698 41//698
f 43//699 380//699 42//699
f 44//700 380//700 43//700
f 45//701 380//701 44//701
f 39//702 40//702 380//702
f 38//703 39//703 380//703
f 37//704 38//704 380//704
f 4//705 37//705 55//705
f 54//706 4//706 55//706
f 2//707 4//707 54//707
f 57//708 2//708 54//708
f 166//709 190//709 380//709
f 166//710 380//710 45//710
f 165//711 190//711 166//711
f 167//712 190//712 165//712
f 163//713 190//713 167//713
f 162//714 190//714 163//714
f 164//715 190//715 162//715
f 380//716 55//716 37//716
f 57//717 3//717 2//717
f 196//718 169//718 188//718
f 189//719 190//719 197//719
f 197//720 190//720 152//720
f 152//721 190//721 154//721
f 154//722 190//722 156//722
f 156//723 190//723 158//723
f 158//724 190//724 160//724
f 160//725 190//725 164//725
f 380//726 358//726 349//726
f 380//727 349//727 348//727
f 380//728 348//728 345//728
f 380//729 345//729 344//729
f 380//730 344//730 346//730
f 380//731 346//731 347//731
f 380//732 347//732 343//732
f 380//733 343//733 342//733
f 380//734 342//734 341//734
f 380//735 341//735 340//735
f 190//736 353//736 354//736
f 190//737 354//737 355//737
f 190//738 355//738 356//738
f 190//739 356//739 357//739
f 190//740 357//740 358//740
f 190//741 358//741 380//741
f 338//742 380//742 339//742
f 339//743 380//743 340//743
f 190//744 192//744 350//744
f 190//745 350//745 351//745
f 190//746 351//746 352//746
f 190//747 352//747 353//747
f 284//748 305//748 349//748
f 358//749 284//749 349//749
