# Created by FreeCAD <https://www.freecad.org>
v 12.000000 10.000000 88.000000
v 11.879154 9.996346 80.015221
v 11.758750 9.985396 80.060844
v 11.939549 9.999086 80.003807
v 12.000000 10.000000 80.000000
v 11.566111 9.952368 88.000000
v 11.596368 9.958847 80.171471
v 11.384295 9.902868 80.404716
v 11.152888 9.811740 88.000000
v 11.113480 9.792786 80.863388
v 10.780015 9.584814 88.000000
v 10.595158 9.423522 82.401985
v 10.465253 9.282401 88.000000
v 10.170580 8.808222 84.965744
v 10.223595 8.918903 88.000000
v 10.066550 8.511637 88.000000
v 10.001600 8.080000 88.000000
v 10.003822 8.053230 88.111542
v 10.012623 8.026534 88.222771
v 11.449671 8.281290 89.902107
v 11.098184 8.000000 89.785141
v 11.536470 8.000000 89.945541
v 12.000000 8.000000 90.000000
v 12.000000 8.445042 89.949852
v 10.840037 8.271332 89.606506
v 10.709005 8.000000 89.527527
v 11.719053 8.655903 89.868385
v 12.000000 8.867767 89.801933
v 10.353113 8.138924 89.126259
v 10.158923 8.000000 88.781303
v 10.390131 8.000000 89.186722
v 11.107426 8.786572 89.607674
v 10.562754 8.743210 89.175568
v 11.507092 9.198963 89.522995
v 12.000000 9.246980 89.563660
v 12.000000 9.563663 89.246979
v 10.184349 8.580497 88.605339
v 10.027973 8.000000 88.333328
v 10.936288 9.262660 89.128807
v 10.479032 9.148330 88.606621
v 11.434425 9.642636 88.990891
v 12.000000 9.801937 88.867767
v 12.000000 9.949856 88.445038
v 10.919495 9.602818 88.513306
v 11.459408 9.896153 88.335197
v 33.000000 8.000000 90.000000
v 33.000000 8.445042 89.949852
v 33.000000 8.867767 89.801933
v 33.000000 9.246980 89.563660
v 33.000000 9.563663 89.246979
v 33.000000 9.801937 88.867767
v 33.000000 9.949856 88.445038
v 33.000000 10.000000 88.000000
v 11.554958 -8.000000 89.949852
v 12.000000 -8.000000 90.000000
v 11.132233 -8.000000 89.801933
v 10.753020 -8.000000 89.563660
v 10.436337 -8.000000 89.246979
v 10.198062 -8.000000 88.867767
v 10.050144 -8.000000 88.445038
v 10.015751 8.019876 88.250511
v 10.000000 -8.000000 88.000000
v 10.001752 8.059912 88.083694
v 10.000000 8.080000 88.000000
v 10.007006 8.039859 88.167252
v 33.100906 9.997453 80.010612
v 33.000000 10.000000 80.000000
v 33.201553 9.989818 80.042419
v 33.301689 9.977115 80.095352
v 33.433891 9.952368 88.000000
v 33.401058 9.959375 80.169266
v 33.531914 9.927970 80.300125
v 33.723499 9.864550 80.564377
v 33.847111 9.811740 88.000000
v 33.996479 9.734078 81.108002
v 34.219986 9.584814 88.000000
v 34.442333 9.385522 82.560326
v 34.534748 9.282401 88.000000
v 34.772701 8.926028 84.474884
v 34.776405 8.918903 88.000000
v 34.932419 8.515517 86.185341
v 34.933449 8.511637 88.000000
v 34.998398 8.080000 88.000000
v 34.996178 8.053230 88.111542
v 34.987377 8.026534 88.222771
v 33.280949 8.655903 89.868385
v 33.492908 9.198963 89.522995
v 33.550331 8.281290 89.902107
v 33.463528 8.000000 89.945541
v 33.901817 8.000000 89.785141
v 33.565575 9.642636 88.990891
v 33.892574 8.786572 89.607674
v 33.540592 9.896153 88.335197
v 34.063713 9.262660 89.128807
v 34.159962 8.271332 89.606506
v 34.290993 8.000000 89.527527
v 34.080505 9.602818 88.513306
v 34.437244 8.743210 89.175568
v 34.520969 9.148330 88.606621
v 34.646889 8.138924 89.126259
v 34.609871 8.000000 89.186722
v 34.841076 8.000000 88.781303
v 34.815651 8.580497 88.605339
v 34.972027 8.000000 88.333328
v 12.000000 -8.445042 89.949852
v 11.740899 -8.592411 89.892593
v 12.000000 -8.867767 89.801933
v 11.607708 -9.171503 89.572792
v 12.000000 -9.563663 89.246979
v 12.000000 -9.246980 89.563660
v 11.407589 -8.259100 89.892593
v 11.575747 -9.636617 89.068405
v 12.000000 -9.801937 88.867767
v 11.170779 -8.829221 89.620117
v 11.596622 -9.909368 88.437721
v 11.132233 -9.801937 88.000000
v 11.554958 -9.949856 88.000000
v 12.000000 -10.000000 88.000000
v 12.000000 -9.949856 88.445038
v 11.078730 -9.337404 89.167305
v 10.828497 -8.392292 89.572792
v 11.097903 -9.689174 88.576981
v 10.753020 -9.563663 88.000000
v 10.662596 -8.921270 89.167305
v 10.656564 -9.343436 88.624786
v 10.436337 -9.246980 88.000000
v 10.363383 -8.424253 89.068405
v 10.310825 -8.902097 88.576981
v 10.198062 -8.867767 88.000000
v 10.090632 -8.403378 88.437721
v 10.050144 -8.445042 88.000000
v 11.814686 -9.991396 80.000000
v 12.000000 -10.000000 80.000000
v 11.630965 -9.965658 80.000000
v 11.450420 -9.923009 80.000000
v 11.247242 -9.852931 79.706009
v 11.052756 -9.761456 79.322250
v 10.539730 -9.366605 77.665764
v 10.139820 -8.734663 75.014633
v 10.000000 -8.000000 71.932564
v 33.000000 -10.000000 88.000000
v 33.000000 -10.000000 80.000000
v 33.185314 -9.991396 80.000000
v 33.369034 -9.965658 80.000000
v 33.549580 -9.923009 80.000000
v 34.290356 -9.528065 78.343124
v 33.887192 -9.792453 79.452293
v 34.653278 -9.125462 76.654121
v 34.911354 -8.588829 74.402832
v 35.000000 -8.000000 71.932564
v 10.000000 -3.961635 54.990761
v 35.000000 -3.961635 54.990761
v 33.445042 -9.949856 88.000000
v 33.867767 -9.801937 88.000000
v 34.246979 -9.563663 88.000000
v 34.563663 -9.246980 88.000000
v 34.801937 -8.867767 88.000000
v 34.949856 -8.445042 88.000000
v 35.000000 -8.000000 88.000000
v 34.949856 -8.000000 88.445038
v 34.892593 -8.592411 88.259102
v 34.572796 -9.171503 88.392288
v 34.892593 -8.259100 88.592407
v 34.801937 -8.000000 88.867767
v 34.068405 -9.636617 88.424255
v 34.620117 -8.829221 88.829216
v 33.437721 -9.909368 88.403374
v 33.000000 -9.801937 88.867767
v 33.000000 -9.949856 88.445038
v 34.167309 -9.337404 88.921265
v 34.572796 -8.392292 89.171501
v 34.563663 -8.000000 89.246979
v 34.246979 -8.000000 89.563660
v 33.576984 -9.689174 88.902092
v 33.000000 -9.563663 89.246979
v 34.167309 -8.921270 89.337402
v 33.624786 -9.343436 89.343437
v 33.000000 -9.246980 89.563660
v 34.068405 -8.424253 89.636612
v 33.867767 -8.000000 89.801933
v 33.576984 -8.902097 89.689171
v 33.000000 -8.867767 89.801933
v 33.437721 -8.403378 89.909363
v 33.445042 -8.000000 89.949852
v 33.000000 -8.000000 90.000000
v 33.000000 -8.445042 89.949852
v 34.984249 8.019876 88.250511
v 34.992996 8.039859 88.167252
v 34.998249 8.059912 88.083694
v 35.000000 8.080000 88.000000
v 35.000000 8.000000 21.666664
v 35.000000 -8.000000 12.000000
v 35.000000 8.000000 12.000000
v 35.000000 16.000000 55.000000
v 35.000000 -8.000000 38.277325
v 33.445042 9.949856 12.000000
v 33.000000 9.949856 11.554958
v 33.000000 10.000000 12.000000
v 33.259102 9.892595 11.407589
v 33.000000 9.801937 11.132233
v 33.392292 9.572796 10.828497
v 33.000000 9.246980 10.436337
v 33.000000 9.563663 10.753020
v 33.592411 9.892595 11.740899
v 33.867767 9.801937 12.000000
v 33.424255 9.068407 10.363382
v 33.000000 8.867767 10.198062
v 33.829220 9.620119 11.170779
v 33.403378 8.437721 10.090631
v 33.000000 8.000000 10.000000
v 33.000000 8.445042 10.050144
v 33.867767 8.000000 10.198062
v 33.445042 8.000000 10.050144
v 33.921272 9.167309 10.662595
v 34.171505 9.572796 11.607707
v 34.246979 9.563663 12.000000
v 34.563663 9.246980 12.000000
v 33.902096 8.576984 10.310825
v 34.246979 8.000000 10.436337
v 34.337406 9.167309 11.078730
v 34.343437 8.624785 10.656563
v 34.563663 8.000000 10.753020
v 34.636616 9.068407 11.575746
v 34.801937 8.867767 12.000000
v 34.689175 8.576984 11.097902
v 34.801937 8.000000 11.132233
v 34.909367 8.437721 11.596622
v 34.949856 8.445042 12.000000
v 34.949856 8.000000 11.554958
v 33.165409 9.993148 29.971449
v 33.291245 9.978681 29.911167
v 33.082775 9.998286 29.992857
v 33.000000 10.000000 29.999998
v 33.457119 9.947060 29.779413
v 33.673016 9.883361 29.514002
v 33.947159 9.761501 29.006254
v 34.460270 9.366605 27.360855
v 34.860180 8.734663 24.727760
v 33.145905 -8.337276 10.034051
v 33.000000 -8.445042 10.050144
v 33.000000 -8.000000 10.000000
v 33.445042 -8.000000 10.050144
v 33.657284 -8.518209 10.183564
v 33.000000 -8.867767 10.198062
v 33.867767 -8.000000 10.198062
v 33.158691 -8.984225 10.266184
v 33.000000 -9.246980 10.436337
v 34.132484 -8.612770 10.469645
v 34.246979 -8.000000 10.436337
v 33.680305 -9.129881 10.496486
v 34.530357 -8.612770 10.867514
v 34.563663 -8.000000 10.753020
v 34.801937 -8.000000 11.132233
v 33.149925 -9.514607 10.702507
v 33.000000 -9.801938 11.132233
v 33.000000 -9.563663 10.753020
v 34.141903 -9.179876 10.858095
v 34.816437 -8.518209 11.342715
v 34.949856 -8.000000 11.554958
v 34.949856 -8.445042 12.000000
v 34.801937 -8.867767 12.000000
v 33.620380 -9.608224 10.985728
v 34.503513 -9.129881 11.319695
v 34.965950 -8.337276 11.854095
v 34.014271 -9.608224 11.379621
v 34.733814 -8.984225 11.841309
v 34.563663 -9.246980 12.000000
v 33.435822 -9.902661 11.564178
v 33.000000 -10.000000 12.000000
v 33.000000 -9.949856 11.554958
v 33.867767 -9.801938 12.000000
v 33.445042 -9.949856 12.000000
v 34.297493 -9.514607 11.850073
v 34.246979 -9.563663 12.000000
v 33.082535 -9.998297 30.007050
v 33.000000 -10.000000 29.999998
v 33.164928 -9.993188 30.028191
v 33.290825 -9.978743 30.087976
v 33.456783 -9.947139 30.218775
v 33.672794 -9.883441 30.482399
v 33.947075 -9.761546 30.986877
v 34.460270 -9.366606 32.621407
v 34.860180 -8.734663 35.236801
v 12.000000 9.949856 11.554958
v 11.554958 9.949856 12.000000
v 12.000000 10.000000 12.000000
v 11.407589 9.892595 11.740899
v 11.132233 9.801937 12.000000
v 10.828497 9.572796 11.607707
v 10.436337 9.246980 12.000000
v 10.753020 9.563663 12.000000
v 11.740899 9.892595 11.407589
v 12.000000 9.801937 11.132233
v 10.363383 9.068407 11.575746
v 10.198062 8.867767 12.000000
v 11.170779 9.620119 11.170779
v 10.090632 8.437721 11.596622
v 10.198062 8.000000 11.132233
v 10.050144 8.000000 11.554958
v 10.000000 8.000000 12.000000
v 10.050144 8.445042 12.000000
v 10.662596 9.167309 11.078730
v 11.607708 9.572796 10.828497
v 12.000000 9.563663 10.753020
v 12.000000 9.246980 10.436337
v 10.310825 8.576984 11.097902
v 10.436337 8.000000 10.753020
v 11.078730 9.167309 10.662595
v 10.656564 8.624785 10.656563
v 10.753020 8.000000 10.436337
v 11.575747 9.068407 10.363382
v 12.000000 8.867767 10.198062
v 11.097903 8.576984 10.310825
v 11.132233 8.000000 10.198062
v 11.596622 8.437721 10.090631
v 12.000000 8.445042 10.050144
v 12.000000 8.000000 10.000000
v 11.554958 8.000000 10.050144
v 10.034051 -8.337276 11.854095
v 10.050144 -8.445042 12.000000
v 10.000000 -8.000000 12.000000
v 10.050144 -8.000000 11.554958
v 10.183565 -8.518209 11.342715
v 10.198062 -8.867767 12.000000
v 10.198062 -8.000000 11.132233
v 10.266184 -8.984225 11.841309
v 10.436337 -9.246980 12.000000
v 10.469645 -8.612770 10.867514
v 10.436337 -8.000000 10.753020
v 10.496486 -9.129881 11.319695
v 10.867514 -8.612770 10.469645
v 10.753020 -8.000000 10.436337
v 11.132233 -8.000000 10.198062
v 10.702508 -9.514607 11.850073
v 11.132233 -9.801938 12.000000
v 10.753020 -9.563663 12.000000
v 10.858095 -9.179876 10.858095
v 11.342715 -8.518209 10.183564
v 12.000000 -8.445042 10.050144
v 12.000000 -8.867767 10.198062
v 11.554958 -8.000000 10.050144
v 10.985728 -9.608224 11.379621
v 11.319695 -9.129881 10.496486
v 11.854095 -8.337276 10.034051
v 12.000000 -8.000000 10.000000
v 11.379621 -9.608224 10.985728
v 11.841309 -8.984225 10.266184
v 12.000000 -9.246980 10.436337
v 11.564178 -9.902661 11.564178
v 12.000000 -9.801938 11.132233
v 12.000000 -9.949856 11.554958
v 12.000000 -10.000000 12.000000
v 11.554958 -9.949856 12.000000
v 11.850074 -9.514607 10.702507
v 12.000000 -9.563663 10.753020
v 12.000000 -10.000000 29.999998
v 11.898772 -9.997437 30.010607
v 11.797805 -9.989753 30.042408
v 11.697354 -9.976969 30.095316
v 11.597681 -9.959117 30.169199
v 11.466430 -9.927512 30.300001
v 11.274297 -9.863694 30.564123
v 11.000634 -9.732417 31.107435
v 10.635125 -9.461888 32.227062
v 10.224089 -8.919858 34.470341
v 10.056829 -8.473380 36.318165
v 10.000000 -8.000000 38.277325
v 11.899095 9.997453 29.989386
v 12.000000 10.000000 29.999998
v 11.798446 9.989818 29.957573
v 11.698310 9.977115 29.904644
v 11.598944 9.959375 29.830730
v 11.468086 9.927970 29.699873
v 11.276499 9.864550 29.435623
v 11.003520 9.734078 28.891991
v 10.557666 9.385522 27.439674
v 10.227298 8.926028 25.525116
v 10.057655 8.476758 23.653156
v 10.000000 8.000000 21.666664
v 10.000000 16.000000 55.000000
vn -0.090221 0.995921 0.000910
vn -0.045292 0.998974 0.000228
vn -0.015112 0.999886 0.000000
vn -0.255411 0.966832 -0.000187
vn -0.161228 0.986917 0.000194
vn -0.109124 0.994027 0.001488
vn -0.377113 0.926167 -0.000377
vn -0.322174 0.946679 0.001543
vn -0.587871 0.808945 -0.003895
vn -0.519879 0.854240 0.000602
vn -0.692818 0.721109 0.002101
vn -0.833453 0.552564 -0.005411
vn -0.832749 0.553623 -0.005645
vn -0.933031 0.359782 0.003178
vn -0.988682 0.148771 -0.019355
vn -0.979818 0.162427 0.116508
vn -0.987353 0.148571 0.055326
vn -0.343419 0.038924 0.938376
vn -0.115889 0.116550 0.986400
vn -0.118684 0.111182 0.986688
vn -0.551814 0.023830 0.833627
vn -0.432084 0.171777 0.885323
vn -0.025803 0.330170 0.943569
vn -0.140404 0.188461 0.971992
vn -0.868558 -0.015856 0.495334
vn -0.726384 0.102243 0.679641
vn -0.714522 0.145891 0.684232
vn -0.428484 0.220380 0.876261
vn -0.316509 0.308353 0.897073
vn -0.605511 0.312577 0.731883
vn -0.715108 0.193272 0.671763
vn -0.120791 0.528134 0.840526
vn -0.126202 0.701451 0.701455
vn -0.271366 0.438881 0.856589
vn -0.161528 0.483956 0.860055
vn -0.968006 0.177791 0.177073
vn -0.952174 0.126076 0.278335
vn -0.923943 0.356278 0.139271
vn -0.886416 0.169405 0.430777
vn -0.837998 0.251192 0.484420
vn -0.968448 0.184563 0.167465
vn -0.427544 0.560059 0.709606
vn -0.570935 0.471085 0.672393
vn -0.824574 0.548188 0.139886
vn -0.682435 0.710303 0.172487
vn -0.807341 0.418038 0.416467
vn -0.870580 0.451354 0.195882
vn -0.688691 0.538900 0.485068
vn -0.121756 0.840424 0.528074
vn -0.190408 0.926616 0.324235
vn -0.188050 0.741556 0.643997
vn -0.355433 0.693444 0.626739
vn -0.516689 0.848997 0.110621
vn -0.691511 0.703684 0.163222
vn -0.618743 0.680310 0.392856
vn -0.465517 0.769179 0.437788
vn -0.120579 0.986462 0.111149
vn -0.321667 0.945189 0.056117
vn -0.108186 0.985484 0.130832
vn -0.162822 0.922336 0.350408
vn -0.427515 0.888410 0.167209
vn -0.367224 0.872166 0.323223
vn 0.000000 0.111973 0.993711
vn -0.000000 0.111973 0.993711
vn -0.000000 0.330280 0.943883
vn 0.000000 0.330280 0.943883
vn -0.000000 0.532030 0.846726
vn 0.000000 0.532030 0.846726
vn -0.000000 0.707105 0.707109
vn 0.000000 0.707105 0.707109
vn -0.000000 0.846724 0.532032
vn 0.000000 0.846724 0.532032
vn -0.000000 0.943884 0.330278
vn 0.000000 0.943884 0.330278
vn -0.000000 0.993712 0.111966
vn 0.000000 0.993712 0.111966
vn -0.116684 0.000133 0.993169
vn -0.111973 0.000000 0.993711
vn -0.343679 0.000254 0.939087
vn -0.330280 -0.000127 0.943883
vn -0.551971 0.000365 0.833863
vn -0.532030 -0.000244 0.846725
vn -0.730211 0.000464 0.683222
vn -0.707105 -0.000348 0.707109
vn -0.868667 0.000552 0.495396
vn -0.846723 -0.000442 0.532034
vn -0.959832 0.000629 0.280574
vn -0.989297 -0.000352 0.145918
vn -0.943884 -0.000524 0.330276
vn -0.999781 0.000000 0.020928
vn -0.998032 -0.000218 0.062701
vn -0.994545 -0.000653 0.104306
vn -0.993712 -0.000774 0.111965
vn 0.025236 0.999682 0.000000
vn 0.075443 0.997150 0.000635
vn 0.109123 0.994027 0.001287
vn 0.124863 0.992172 0.001893
vn 0.175637 0.984455 0.000145
vn 0.233477 0.972362 -0.000109
vn 0.322176 0.946679 0.001368
vn 0.313044 0.949738 0.000976
vn 0.519877 0.854240 0.001641
vn 0.432503 0.901632 -0.000786
vn 0.692818 0.721110 0.001900
vn 0.622413 0.782682 -0.003234
vn 0.832763 0.553630 0.000244
vn 0.817771 0.575536 -0.002983
vn 0.933036 0.359782 0.000240
vn 0.932297 0.361693 -0.000249
vn 0.988868 0.148796 -0.000243
vn 0.979818 0.162429 0.116509
vn 0.987354 0.148569 0.055309
vn 0.025803 0.330170 0.943569
vn 0.126201 0.701451 0.701455
vn 0.120791 0.528134 0.840526
vn 0.161527 0.483956 0.860055
vn 0.118684 0.111182 0.986688
vn 0.115890 0.116548 0.986401
vn 0.343417 0.038920 0.938376
vn 0.140403 0.188460 0.971993
vn 0.190408 0.926616 0.324235
vn 0.121756 0.840424 0.528074
vn 0.188050 0.741556 0.643997
vn 0.316509 0.308353 0.897073
vn 0.271367 0.438881 0.856589
vn 0.108186 0.985484 0.130833
vn 0.321669 0.945188 0.056118
vn 0.120579 0.986462 0.111149
vn 0.162822 0.922336 0.350408
vn 0.355433 0.693445 0.626739
vn 0.427544 0.560058 0.709606
vn 0.551817 0.023830 0.833625
vn 0.428486 0.220381 0.876260
vn 0.432085 0.171778 0.885322
vn 0.516687 0.848998 0.110622
vn 0.465516 0.769179 0.437788
vn 0.427516 0.888410 0.167208
vn 0.367224 0.872166 0.323223
vn 0.570936 0.471083 0.672393
vn 0.605512 0.312577 0.731882
vn 0.682435 0.710303 0.172487
vn 0.824575 0.548186 0.139886
vn 0.691510 0.703685 0.163223
vn 0.618742 0.680311 0.392855
vn 0.688692 0.538897 0.485070
vn 0.726380 0.102246 0.679646
vn 0.868561 -0.015859 0.495329
vn 0.715106 0.193276 0.671764
vn 0.714520 0.145887 0.684236
vn 0.968006 0.177791 0.177073
vn 0.923943 0.356276 0.139270
vn 0.952173 0.126075 0.278337
vn 0.870581 0.451353 0.195881
vn 0.968448 0.184565 0.167463
vn 0.807341 0.418036 0.416470
vn 0.886419 0.169403 0.430772
vn 0.837996 0.251197 0.484420
vn 0.000000 1.000000 0.000000
vn 0.000000 1.000000 -0.000000
vn -0.111278 -0.111278 0.987540
vn -0.020730 -0.330209 0.943680
vn -0.138153 -0.138153 0.980728
vn -0.118739 -0.702102 0.702106
vn -0.082370 -0.530222 0.843848
vn -0.167364 -0.446833 0.878823
vn -0.330209 -0.020730 0.943680
vn -0.138154 -0.138153 0.980728
vn -0.078098 -0.844138 0.530407
vn -0.160047 -0.720596 0.674630
vn -0.304710 -0.304709 0.902388
vn -0.239662 -0.426519 0.872149
vn -0.327976 -0.937298 0.117915
vn -0.111380 -0.988526 0.102038
vn -0.101250 -0.988605 0.111390
vn -0.100224 -0.939131 0.328615
vn -0.170499 -0.906449 0.386367
vn -0.287261 -0.695023 0.659109
vn -0.374393 -0.578154 0.724961
vn -0.530222 -0.082370 0.843848
vn -0.702102 -0.118739 0.702106
vn -0.446833 -0.167364 0.878823
vn -0.426518 -0.239662 0.872149
vn -0.527330 -0.839243 0.132644
vn -0.361555 -0.918854 0.158066
vn -0.285859 -0.882956 0.372389
vn -0.387935 -0.797257 0.462479
vn -0.515908 -0.515908 0.683870
vn -0.578154 -0.374393 0.724961
vn -0.700270 -0.700270 0.138723
vn -0.593645 -0.783302 0.184452
vn -0.530638 -0.735594 0.421099
vn -0.617453 -0.617453 0.487342
vn -0.844137 -0.078099 0.530409
vn -0.720596 -0.160047 0.674630
vn -0.695023 -0.287261 0.659109
vn -0.839242 -0.527332 0.132644
vn -0.783302 -0.593647 0.184451
vn -0.735593 -0.530639 0.421100
vn -0.797257 -0.387935 0.462480
vn -0.988526 -0.111380 0.102038
vn -0.937299 -0.327974 0.117916
vn -0.939132 -0.100224 0.328613
vn -0.988605 -0.101250 0.111390
vn -0.906449 -0.170501 0.386367
vn -0.882957 -0.285857 0.372389
vn -0.918855 -0.361552 0.158067
vn -0.046380 -0.998924 0.000000
vn -0.111964 -0.993711 0.001525
vn -0.138737 -0.990329 0.000638
vn -0.330280 -0.943882 0.001148
vn -0.229898 -0.973215 -0.000262
vn -0.327694 -0.944783 0.001265
vn -0.532031 -0.846724 0.000923
vn -0.425082 -0.905155 -0.000329
vn -0.846721 -0.532032 -0.002313
vn -0.707106 -0.707106 0.001111
vn -0.604394 -0.796681 -0.002717
vn -0.943883 -0.330278 0.000848
vn -0.841658 -0.540009 -0.001760
vn -0.993712 -0.111965 0.000000
vn -0.980478 -0.196613 -0.002386
vn 0.000000 -1.000000 0.000000
vn 0.000000 -1.000000 -0.000000
vn -0.000000 0.000000 -1.000000
vn -0.000000 0.000000 -1.000000
vn 0.000000 0.000000 -1.000000
vn 0.000000 0.000000 -1.000000
vn 0.000000 0.000000 -1.000000
vn 0.000000 0.000000 -1.000000
vn 0.000011 -0.972748 -0.231866
vn -0.000002 -0.972746 -0.231871
vn -0.000000 -0.972747 -0.231871
vn -0.000014 -0.972749 -0.231862
vn 0.000004 -0.972746 -0.231872
vn 0.000000 -0.972747 -0.231870
vn 0.000000 -0.972747 -0.231871
vn 0.000001 -0.972747 -0.231871
vn 0.000000 -0.972747 -0.231870
vn 0.000000 -0.972747 -0.231871
vn 0.000000 -0.972747 -0.231871
vn 0.000000 -0.972747 -0.231871
vn 0.046380 -0.998924 0.000000
vn 0.138738 -0.990329 0.000638
vn 0.229897 -0.973215 -0.000262
vn 0.111964 -0.993711 0.001525
vn 0.360371 -0.932809 -0.000216
vn 0.330280 -0.943882 0.001148
vn 0.547175 -0.837018 -0.000628
vn 0.532032 -0.846724 0.000270
vn 0.739916 -0.672698 -0.001361
vn 0.707105 -0.707109 0.000570
vn 0.898249 -0.439482 -0.001787
vn 0.846725 -0.532030 0.000990
vn 0.943883 -0.330280 0.000820
vn 0.988857 -0.148869 0.000000
vn 0.993711 -0.111964 -0.001630
vn 0.987541 -0.111269 0.111270
vn 0.943680 -0.330209 0.020743
vn 0.980726 -0.138161 0.138162
vn 0.843848 -0.530222 0.082371
vn 0.702102 -0.702106 0.118741
vn 0.878824 -0.446828 0.167370
vn 0.943681 -0.020745 0.330207
vn 0.980725 -0.138161 0.138164
vn 0.530408 -0.844138 0.078098
vn 0.674628 -0.720598 0.160046
vn 0.902387 -0.304708 0.304713
vn 0.872150 -0.426514 0.239667
vn 0.328617 -0.939130 0.100228
vn 0.111389 -0.988605 0.101252
vn 0.117916 -0.937299 0.327973
vn 0.102038 -0.988525 0.111381
vn 0.386366 -0.906450 0.170499
vn 0.724962 -0.578150 0.374397
vn 0.659108 -0.695024 0.287261
vn 0.843848 -0.082371 0.530223
vn 0.702100 -0.118742 0.702108
vn 0.878825 -0.167374 0.446824
vn 0.872151 -0.239666 0.426511
vn 0.132647 -0.839242 0.527331
vn 0.158068 -0.918855 0.361553
vn 0.462479 -0.797257 0.387937
vn 0.372387 -0.882958 0.285857
vn 0.683874 -0.515908 0.515903
vn 0.724964 -0.374397 0.578147
vn 0.138720 -0.700268 0.700272
vn 0.421101 -0.735595 0.530635
vn 0.184451 -0.783305 0.593642
vn 0.487344 -0.617456 0.617450
vn 0.530406 -0.078101 0.844139
vn 0.674625 -0.160048 0.720601
vn 0.659105 -0.287256 0.695028
vn 0.132642 -0.527329 0.839244
vn 0.184448 -0.593643 0.783305
vn 0.421099 -0.530636 0.735595
vn 0.462480 -0.387928 0.797260
vn 0.328617 -0.100229 0.939130
vn 0.111398 -0.101253 0.988604
vn 0.102041 -0.111389 0.988524
vn 0.117918 -0.327976 0.937298
vn 0.386367 -0.170501 0.906449
vn 0.158064 -0.361551 0.918856
vn 0.372390 -0.285852 0.882958
vn 0.111973 0.000000 0.993711
vn 0.330280 -0.000127 0.943883
vn 0.116685 0.000133 0.993169
vn 0.532031 -0.000244 0.846725
vn 0.343677 0.000254 0.939088
vn 0.707102 -0.000348 0.707111
vn 0.551974 0.000365 0.833862
vn 0.846725 -0.000442 0.532031
vn 0.730207 0.000464 0.683226
vn 0.943884 -0.000524 0.330278
vn 0.868670 0.000552 0.495391
vn 0.959832 0.000629 0.280576
vn 0.993712 -0.000774 0.111965
vn 0.989297 -0.000352 0.145918
vn 0.994543 -0.000654 0.104328
vn 0.998033 -0.000218 0.062689
vn 0.999781 0.000000 0.020916
vn 0.000000 -0.993712 0.111966
vn 0.000000 -0.993712 0.111966
vn 0.000000 -0.846724 0.532032
vn 0.000000 -0.943884 0.330278
vn 0.000000 -0.943884 0.330278
vn 0.000000 -0.846724 0.532032
vn 0.000000 -0.707105 0.707109
vn 0.000000 -0.707105 0.707109
vn 0.000000 -0.330280 0.943883
vn 0.000000 -0.532030 0.846726
vn 0.000000 -0.532030 0.846726
vn 0.000000 -0.330280 0.943883
vn 0.000000 -0.111973 0.993711
vn 0.000000 -0.111973 0.993711
vn 1.000000 0.000000 0.000000
vn 1.000000 0.000000 0.000000
vn 1.000000 0.000000 0.000000
vn 1.000000 0.000000 0.000000
vn 1.000000 0.000000 0.000000
vn 1.000000 0.000000 0.000000
vn 1.000000 0.000000 0.000000
vn -0.000000 0.000000 1.000000
vn 0.000000 0.000000 1.000000
vn 0.111269 0.987542 -0.111269
vn 0.020737 0.943680 -0.330209
vn 0.138157 0.980727 -0.138157
vn 0.118738 0.702106 -0.702103
vn 0.082368 0.843847 -0.530224
vn 0.167366 0.878824 -0.446830
vn 0.330209 0.943680 -0.020737
vn 0.138158 0.980727 -0.138157
vn 0.078096 0.530407 -0.844139
vn 0.160045 0.674630 -0.720597
vn 0.304711 0.902388 -0.304710
vn 0.239664 0.872150 -0.426516
vn 0.101249 0.111389 -0.988606
vn 0.100225 0.328615 -0.939131
vn 0.327974 0.117914 -0.937299
vn 0.111380 0.102036 -0.988526
vn 0.170497 0.386366 -0.906450
vn 0.374394 0.724963 -0.578150
vn 0.287259 0.659109 -0.695023
vn 0.530225 0.843847 -0.082364
vn 0.702103 0.702107 -0.118732
vn 0.446829 0.878825 -0.167365
vn 0.426514 0.872150 -0.239665
vn 0.527331 0.132644 -0.839242
vn 0.387934 0.462478 -0.797259
vn 0.361554 0.158066 -0.918855
vn 0.285857 0.372387 -0.882957
vn 0.515906 0.683874 -0.515905
vn 0.578149 0.724963 -0.374397
vn 0.700269 0.138722 -0.700271
vn 0.530640 0.421097 -0.735594
vn 0.593645 0.184450 -0.783303
vn 0.617456 0.487339 -0.617454
vn 0.844139 0.530405 -0.078099
vn 0.720600 0.674627 -0.160047
vn 0.695027 0.659106 -0.287258
vn 0.839244 0.132641 -0.527329
vn 0.783302 0.184450 -0.593647
vn 0.735592 0.421098 -0.530641
vn 0.797259 0.462480 -0.387930
vn 0.939130 0.328617 -0.100229
vn 0.988605 0.111389 -0.101253
vn 0.988525 0.102040 -0.111380
vn 0.937298 0.117917 -0.327976
vn 0.906450 0.386366 -0.170499
vn 0.918856 0.158064 -0.361551
vn 0.882958 0.372389 -0.285853
vn 0.113901 0.993492 -0.000670
vn 0.062014 0.998075 -0.000190
vn 0.020699 0.999786 -0.000000
vn 0.282936 0.959139 -0.000041
vn 0.187281 0.982306 0.000027
vn 0.111965 0.993712 -0.000638
vn 0.406613 0.913601 0.000274
vn 0.330280 0.943883 -0.000716
vn 0.613157 0.789959 0.001620
vn 0.532032 0.846724 -0.000470
vn 0.847973 0.530037 0.001580
vn 0.707104 0.707109 -0.000747
vn 0.846724 0.532029 0.001689
vn 0.984551 0.175074 0.002953
vn 0.943883 0.330280 -0.000865
vn 0.993712 0.111965 -0.000000
vn -0.026899 -0.111924 -0.993353
vn 0.111814 -0.051819 -0.992377
vn 0.153007 -0.326389 -0.932769
vn 0.328378 -0.107124 -0.938452
vn 0.226362 -0.154880 -0.961651
vn 0.150235 -0.341935 -0.927637
vn -0.026953 -0.531838 -0.846417
vn 0.155919 -0.331766 -0.930387
vn 0.526494 -0.143920 -0.837909
vn 0.482723 -0.172046 -0.858707
vn 0.411965 -0.402664 -0.817402
vn 0.173044 -0.606860 -0.775742
vn 0.260617 -0.431913 -0.863441
vn 0.697040 -0.168126 -0.697043
vn 0.837911 -0.143916 -0.526492
vn 0.697038 -0.168128 -0.697045
vn 0.097333 -0.842704 -0.529505
vn -0.006873 -0.707090 -0.707090
vn 0.176532 -0.642619 -0.745572
vn 0.639303 -0.427290 -0.639309
vn 0.507751 -0.481089 -0.714662
vn 0.938452 -0.107121 -0.328380
vn 0.932769 -0.326391 -0.153005
vn 0.858709 -0.172042 -0.482722
vn 0.406620 -0.677646 -0.612744
vn 0.142145 -0.845053 -0.515441
vn 0.256407 -0.706635 -0.659486
vn 0.817402 -0.402667 -0.411962
vn 0.714661 -0.481093 -0.507749
vn 0.992377 -0.051815 -0.111814
vn 0.993352 -0.111924 0.026906
vn 0.961651 -0.154877 -0.226363
vn 0.927635 -0.341941 -0.150232
vn 0.482429 -0.731114 -0.482426
vn 0.612744 -0.677647 -0.406620
vn 0.846418 -0.531837 0.026947
vn 0.775745 -0.606857 -0.173045
vn 0.930385 -0.331772 -0.155919
vn 0.863440 -0.431916 -0.260614
vn 0.109317 -0.987757 -0.111294
vn 0.108554 -0.938306 -0.328327
vn 0.328327 -0.938306 -0.108554
vn 0.111294 -0.987757 -0.109317
vn 0.186579 -0.898331 -0.397731
vn 0.397731 -0.898331 -0.186580
vn 0.338733 -0.877793 -0.338731
vn 0.707089 -0.707091 0.006876
vn 0.529507 -0.842704 -0.097328
vn 0.745573 -0.642618 -0.176533
vn 0.515441 -0.845053 -0.142147
vn 0.659486 -0.706635 -0.256409
vn 0.111965 0.000000 -0.993712
vn 0.111965 0.000000 -0.993712
vn 0.330278 0.000000 -0.943884
vn 0.330278 0.000000 -0.943884
vn 0.532032 0.000000 -0.846724
vn 0.532032 0.000000 -0.846724
vn 0.707106 0.000000 -0.707108
vn 0.707106 0.000000 -0.707108
vn 0.846726 0.000000 -0.532030
vn 0.846726 0.000000 -0.532030
vn 0.943883 0.000000 -0.330280
vn 0.943883 0.000000 -0.330280
vn 0.993712 0.000000 -0.111965
vn 0.993712 0.000000 -0.111965
vn 0.020633 -0.999787 0.000000
vn 0.111965 -0.993712 -0.000649
vn 0.061935 -0.998080 -0.000189
vn 0.114279 -0.993448 -0.000612
vn 0.187051 -0.982350 0.000026
vn 0.330278 -0.943883 -0.000678
vn 0.282885 -0.959154 -0.000039
vn 0.532032 -0.846724 -0.000421
vn 0.405734 -0.913991 0.000250
vn 0.846725 -0.532030 0.001159
vn 0.707106 -0.707108 -0.000557
vn 0.607253 -0.794507 0.001311
vn 0.943883 -0.330280 -0.000474
vn 0.843201 -0.537598 0.000966
vn 0.993712 -0.111965 0.000000
vn 0.981296 -0.192502 0.001388
vn -0.111269 0.987542 -0.111269
vn -0.330209 0.943680 -0.020737
vn -0.702104 0.702104 -0.118738
vn -0.530224 0.843847 -0.082368
vn -0.446830 0.878824 -0.167366
vn -0.020737 0.943680 -0.330209
vn -0.138158 0.980727 -0.138158
vn -0.138158 0.980727 -0.138158
vn -0.844138 0.530408 -0.078097
vn -0.720598 0.674629 -0.160045
vn -0.304710 0.902388 -0.304710
vn -0.426516 0.872150 -0.239664
vn -0.937299 0.117915 -0.327974
vn -0.988526 0.102038 -0.111380
vn -0.988605 0.111389 -0.101251
vn -0.939131 0.328615 -0.100227
vn -0.906450 0.386366 -0.170499
vn -0.695024 0.659108 -0.287260
vn -0.578152 0.724961 -0.374395
vn -0.082368 0.843847 -0.530224
vn -0.118738 0.702106 -0.702103
vn -0.167367 0.878824 -0.446830
vn -0.239664 0.872150 -0.426516
vn -0.839242 0.132642 -0.527332
vn -0.797257 0.462481 -0.387933
vn -0.918856 0.158065 -0.361552
vn -0.882958 0.372388 -0.285854
vn -0.515907 0.683872 -0.515906
vn -0.374394 0.724962 -0.578151
vn -0.700271 0.138723 -0.700269
vn -0.735591 0.421100 -0.530642
vn -0.783301 0.184450 -0.593648
vn -0.617455 0.487339 -0.617454
vn -0.078096 0.530407 -0.844139
vn -0.160045 0.674630 -0.720597
vn -0.287259 0.659108 -0.695024
vn -0.527330 0.132643 -0.839243
vn -0.593647 0.184451 -0.783302
vn -0.530641 0.421098 -0.735592
vn -0.387933 0.462479 -0.797258
vn -0.100225 0.328615 -0.939131
vn -0.101248 0.111389 -0.988606
vn -0.111380 0.102036 -0.988526
vn -0.327974 0.117913 -0.937299
vn -0.170498 0.386367 -0.906450
vn -0.361554 0.158065 -0.918855
vn -0.285856 0.372388 -0.882957
vn -0.993353 -0.111924 0.026899
vn -0.992377 -0.051818 -0.111814
vn -0.932769 -0.326389 -0.153008
vn -0.938452 -0.107125 -0.328378
vn -0.927636 -0.341937 -0.150236
vn -0.961650 -0.154880 -0.226364
vn -0.846416 -0.531840 0.026955
vn -0.930388 -0.331765 -0.155920
vn -0.837909 -0.143918 -0.526494
vn -0.858709 -0.172046 -0.482721
vn -0.817403 -0.402664 -0.411963
vn -0.775741 -0.606862 -0.173043
vn -0.863441 -0.431912 -0.260617
vn -0.697042 -0.168128 -0.697040
vn -0.526493 -0.143919 -0.837910
vn -0.697041 -0.168127 -0.697041
vn -0.529505 -0.842704 -0.097335
vn -0.707091 -0.707089 0.006869
vn -0.745572 -0.642619 -0.176531
vn -0.639306 -0.427288 -0.639306
vn -0.714663 -0.481090 -0.507749
vn -0.153007 -0.326389 -0.932769
vn -0.328378 -0.107124 -0.938452
vn -0.482723 -0.172045 -0.858708
vn -0.659486 -0.706635 -0.256407
vn -0.612745 -0.677647 -0.406619
vn -0.515442 -0.845053 -0.142146
vn -0.507748 -0.481090 -0.714664
vn -0.411964 -0.402665 -0.817402
vn 0.026899 -0.111924 -0.993353
vn -0.111814 -0.051818 -0.992377
vn -0.226362 -0.154879 -0.961651
vn -0.150235 -0.341936 -0.927637
vn -0.406618 -0.677647 -0.612745
vn -0.482427 -0.731115 -0.482427
vn 0.026953 -0.531838 -0.846417
vn -0.155919 -0.331766 -0.930387
vn -0.173044 -0.606860 -0.775742
vn -0.260617 -0.431914 -0.863440
vn -0.108554 -0.938306 -0.328327
vn -0.109317 -0.987757 -0.111294
vn -0.111294 -0.987757 -0.109317
vn -0.328327 -0.938306 -0.108554
vn -0.186579 -0.898331 -0.397731
vn -0.397731 -0.898331 -0.186579
vn -0.338732 -0.877793 -0.338732
vn 0.006873 -0.707090 -0.707090
vn -0.097333 -0.842704 -0.529505
vn -0.142146 -0.845053 -0.515441
vn -0.176532 -0.642619 -0.745572
vn -0.256408 -0.706635 -0.659486
vn -0.025316 -0.999680 0.000000
vn -0.075971 -0.997110 -0.000285
vn -0.126503 -0.991966 -0.000491
vn -0.176361 -0.984326 -0.000087
vn -0.234053 -0.972224 0.000055
vn -0.315678 -0.948866 -0.000369
vn -0.111965 -0.993712 -0.000690
vn -0.432020 -0.901864 0.000306
vn -0.330278 -0.943883 -0.000612
vn -0.593753 -0.804647 0.000588
vn -0.532031 -0.846724 -0.000584
vn -0.794111 -0.607771 0.001347
vn -0.707108 -0.707106 -0.000564
vn -0.846724 -0.532033 -0.000253
vn -0.936651 -0.350264 -0.000151
vn -0.943884 -0.330278 0.000328
vn -0.992871 -0.119195 0.000000
vn -0.993712 -0.111965 0.000143
vn -0.111965 0.000000 -0.993712
vn -0.111965 -0.000000 -0.993712
vn -0.330278 -0.000000 -0.943884
vn -0.330278 0.000000 -0.943884
vn -0.532031 -0.000000 -0.846725
vn -0.532031 0.000000 -0.846725
vn -0.707108 -0.000000 -0.707106
vn -0.707108 0.000000 -0.707106
vn -0.846724 -0.000000 -0.532033
vn -0.846724 0.000000 -0.532033
vn -0.943884 -0.000000 -0.330278
vn -0.943884 0.000000 -0.330278
vn -0.993712 -0.000000 -0.111965
vn -0.993712 0.000000 -0.111965
vn 0.000000 -0.111965 -0.993712
vn 0.000000 -0.111965 -0.993712
vn 0.000000 -0.532032 -0.846725
vn 0.000000 -0.330278 -0.943884
vn 0.000000 -0.330278 -0.943884
vn 0.000000 -0.532032 -0.846725
vn 0.000000 -0.707107 -0.707107
vn 0.000000 -0.707107 -0.707107
vn 0.000000 -0.943884 -0.330278
vn 0.000000 -0.846725 -0.532032
vn 0.000000 -0.846725 -0.532032
vn 0.000000 -0.943884 -0.330278
vn 0.000000 -0.993712 -0.111965
vn 0.000000 -0.993712 -0.111965
vn -0.025236 0.999682 0.000000
vn -0.111965 0.993712 -0.000693
vn -0.075553 0.997142 -0.000283
vn -0.125586 0.992083 -0.000505
vn -0.175679 0.984447 -0.000092
vn -0.233424 0.972375 0.000057
vn -0.330280 0.943883 -0.000657
vn -0.313800 0.949489 -0.000366
vn -0.532031 0.846724 -0.000652
vn -0.431770 0.901983 0.000333
vn -0.707107 0.707107 -0.000788
vn -0.618408 0.785856 0.001243
vn -0.846723 0.532033 -0.000462
vn -0.814269 0.580487 0.001190
vn -0.943884 0.330278 -0.000291
vn -0.936229 0.351390 0.000510
vn -0.993712 0.111965 0.000000
vn -0.992923 0.118756 0.000317
vn 0.000000 0.993712 -0.111965
vn 0.000000 0.993712 -0.111965
vn 0.000000 0.846725 -0.532032
vn 0.000000 0.943883 -0.330280
vn 0.000000 0.943883 -0.330280
vn 0.000000 0.846725 -0.532032
vn 0.000000 0.707108 -0.707106
vn 0.000000 0.707108 -0.707106
vn 0.000000 0.330278 -0.943884
vn 0.000000 0.532032 -0.846725
vn 0.000000 0.532032 -0.846725
vn 0.000000 0.330278 -0.943884
vn 0.000000 0.111965 -0.993712
vn 0.000000 0.111965 -0.993712
vn -0.000002 -0.972028 0.234866
vn 0.000001 -0.972028 0.234864
vn -0.000003 -0.972027 0.234868
vn -0.000001 -0.972028 0.234866
vn -0.000001 -0.972028 0.234865
vn 0.000003 -0.972031 0.234854
vn -0.000013 -0.972009 0.234943
vn 0.000000 -0.972028 0.234865
vn 0.000000 -0.972028 0.234865
vn 0.000000 -0.972028 0.234865
vn 0.000000 -0.972028 0.234865
vn 0.000001 -0.972028 0.234866
vn 0.000001 -0.972028 0.234866
vn -0.000001 -0.972028 0.234865
vn 0.000000 -0.972028 0.234865
vn 0.000000 -0.972028 0.234865
vn 0.000000 -0.972028 0.234865
vn -0.000003 -0.972032 0.234850
vn 0.000001 -0.972027 0.234871
vn -0.000001 -0.972028 0.234864
vn -0.000002 -0.972029 0.234862
vn -0.000001 -0.972028 0.234863
vn 0.000000 1.000000 0.000000
vn 0.000000 1.000000 -0.000000
vn 0.000000 0.000000 -1.000000
vn 0.000000 0.000000 -1.000000
vn -0.000006 0.972387 0.233373
vn 0.000000 0.972387 0.233373
vn -0.000006 0.972387 0.233372
vn -0.000001 0.972387 0.233373
vn 0.000012 0.972387 0.233374
vn 0.000000 0.972387 0.233373
vn 0.000004 0.972387 0.233373
vn -0.000003 0.972387 0.233373
vn -0.000001 0.972387 0.233373
vn 0.000000 0.972387 0.233372
vn -0.000000 0.972383 0.233390
vn 0.001161 0.972382 0.233392
vn 0.004972 0.972306 0.233657
vn -0.000000 0.972387 0.233373
vn 0.000000 0.972387 0.233373
vn 0.000000 0.972387 0.233373
vn -0.000019 0.972387 0.233375
vn 0.000005 0.972387 0.233372
vn 0.000007 0.972387 0.233373
vn 0.000003 0.972387 0.233373
vn 0.000377 0.972378 0.233412
vn 0.000244 0.972394 0.233343
vn 0.001027 0.972387 0.233373
vn -0.000011 0.972387 0.233373
vn 0.000005 0.972387 0.233373
vn 0.000000 0.972387 0.233373
vn -0.000004 0.972387 0.233373
vn -0.000013 0.972387 0.233373
vn 0.000008 0.972387 0.233373
vn 0.000000 0.972387 -0.233373
vn -0.000002 0.972387 -0.233373
vn 0.000001 0.972387 -0.233373
vn 0.000000 0.972387 -0.233373
vn 0.000000 0.972387 -0.233373
vn 0.000000 0.972387 -0.233373
vn -0.000003 0.972387 -0.233373
vn 0.000005 0.972387 -0.233373
vn -0.000001 0.972387 -0.233373
vn -0.000003 0.972387 -0.233373
vn -0.000001 0.972387 -0.233373
vn -0.000000 0.972387 -0.233373
vn -0.000000 0.972387 -0.233373
vn 0.000002 0.972387 -0.233373
vn 0.000000 0.972387 -0.233373
vn 0.000001 0.972387 -0.233373
vn 0.000000 0.972387 -0.233373
vn 0.000001 0.972387 -0.233373
vn -0.000001 0.972387 -0.233373
vn 0.000002 0.972387 -0.233373
vn -0.000002 0.972387 -0.233373
vn 0.000000 0.972387 -0.233373
vn 0.000000 -1.000000 0.000000
vn 0.000000 -1.000000 -0.000000
vn -1.000000 0.000000 0.000000
vn -1.000000 0.000000 0.000000
vn -1.000000 0.000000 -0.000000
vn -1.000000 0.000000 -0.000000
vn -1.000000 0.000000 0.000000
vn -1.000000 0.000000 0.000000
vn -1.000000 0.000000 -0.000000
f 1//1 2//1 3//1
f 1//2 4//2 2//2
f 1//3 5//3 4//3
f 6//4 7//4 8//4
f 6//5 3//5 7//5
f 6//6 1//6 3//6
f 9//7 8//7 10//7
f 9//8 6//8 8//8
f 11//9 10//9 12//9
f 11//10 9//10 10//10
f 13//11 11//11 12//11
f 14//12 13//12 12//12
f 15//13 13//13 14//13
f 16//14 15//14 14//14
f 17//15 16//15 14//15
f 16//16 18//16 19//16
f 16//17 17//17 18//17
f 20//18 21//18 22//18
f 20//19 22//19 23//19
f 20//20 23//20 24//20
f 25//21 26//21 21//21
f 25//22 21//22 20//22
f 27//23 24//23 28//23
f 27//24 20//24 24//24
f 29//25 30//25 31//25
f 29//26 31//26 26//26
f 29//27 26//27 25//27
f 32//28 25//28 20//28
f 32//29 20//29 27//29
f 33//30 25//30 32//30
f 33//31 29//31 25//31
f 34//32 28//32 35//32
f 34//33 35//33 36//33
f 34//34 32//34 27//34
f 34//35 27//35 28//35
f 37//36 19//36 38//36
f 37//37 38//37 30//37
f 37//38 15//38 16//38
f 37//39 30//39 29//39
f 37//40 29//40 33//40
f 37//41 16//41 19//41
f 39//42 32//42 34//42
f 39//43 33//43 32//43
f 40//44 13//44 15//44
f 40//45 11//45 13//45
f 40//46 37//46 33//46
f 40//47 15//47 37//47
f 40//48 33//48 39//48
f 41//49 36//49 42//49
f 41//50 42//50 43//50
f 41//51 34//51 36//51
f 41//52 39//52 34//52
f 44//53 9//53 11//53
f 44//54 11//54 40//54
f 44//55 40//55 39//55
f 44//56 39//56 41//56
f 45//57 43//57 1//57
f 45//58 6//58 9//58
f 45//59 1//59 6//59
f 45//60 41//60 43//60
f 45//61 9//61 44//61
f 45//62 44//62 41//62
f 24//63 23//63 46//63
f 24//64 46//64 47//64
f 28//65 47//65 48//65
f 28//66 24//66 47//66
f 35//67 48//67 49//67
f 35//68 28//68 48//68
f 36//69 49//69 50//69
f 36//70 35//70 49//70
f 42//71 50//71 51//71
f 42//72 36//72 50//72
f 43//73 51//73 52//73
f 43//74 42//74 51//74
f 1//75 52//75 53//75
f 1//76 43//76 52//76
f 54//77 23//77 22//77
f 54//78 55//78 23//78
f 56//79 22//79 21//79
f 56//80 54//80 22//80
f 57//81 21//81 26//81
f 57//82 56//82 21//82
f 58//83 26//83 31//83
f 58//84 57//84 26//84
f 59//85 31//85 30//85
f 59//86 58//86 31//86
f 60//87 30//87 38//87
f 60//88 38//88 61//88
f 60//89 59//89 30//89
f 62//90 63//90 64//90
f 62//91 65//91 63//91
f 62//92 61//92 65//92
f 62//93 60//93 61//93
f 66//94 67//94 53//94
f 68//95 66//95 53//95
f 69//96 53//96 70//96
f 69//97 68//97 53//97
f 71//98 69//98 70//98
f 72//99 71//99 70//99
f 73//100 70//100 74//100
f 73//101 72//101 70//101
f 75//102 74//102 76//102
f 75//103 73//103 74//103
f 77//104 76//104 78//104
f 77//105 75//105 76//105
f 79//106 78//106 80//106
f 79//107 77//107 78//107
f 81//108 80//108 82//108
f 81//109 79//109 80//109
f 83//110 81//110 82//110
f 84//111 82//111 85//111
f 83//112 82//112 84//112
f 86//113 48//113 47//113
f 87//114 50//114 49//114
f 87//115 49//115 48//115
f 87//116 48//116 86//116
f 88//117 47//117 46//117
f 88//118 46//118 89//118
f 88//119 89//119 90//119
f 88//120 86//120 47//120
f 91//121 52//121 51//121
f 91//122 51//122 50//122
f 91//123 50//123 87//123
f 92//124 86//124 88//124
f 92//125 87//125 86//125
f 93//126 70//126 53//126
f 93//127 74//127 70//127
f 93//128 53//128 52//128
f 93//129 52//129 91//129
f 94//130 91//130 87//130
f 94//131 87//131 92//131
f 95//132 90//132 96//132
f 95//133 92//133 88//133
f 95//134 88//134 90//134
f 97//135 76//135 74//135
f 97//136 91//136 94//136
f 97//137 74//137 93//137
f 97//138 93//138 91//138
f 98//139 94//139 92//139
f 98//140 92//140 95//140
f 99//141 78//141 76//141
f 99//142 80//142 78//142
f 99//143 76//143 97//143
f 99//144 97//144 94//144
f 99//145 94//145 98//145
f 100//146 96//146 101//146
f 100//147 101//147 102//147
f 100//148 98//148 95//148
f 100//149 95//149 96//149
f 103//150 104//150 85//150
f 103//151 82//151 80//151
f 103//152 102//152 104//152
f 103//153 80//153 99//153
f 103//154 85//154 82//154
f 103//155 99//155 98//155
f 103//156 100//156 102//156
f 103//157 98//157 100//157
f 5//158 1//158 67//158
f 67//159 1//159 53//159
f 54//160 105//160 55//160
f 106//161 107//161 105//161
f 106//162 105//162 54//162
f 108//163 109//163 110//163
f 108//164 110//164 107//164
f 108//165 107//165 106//165
f 111//166 54//166 56//166
f 111//167 106//167 54//167
f 112//168 113//168 109//168
f 112//169 109//169 108//169
f 114//170 106//170 111//170
f 114//171 108//171 106//171
f 115//172 116//172 117//172
f 115//173 117//173 118//173
f 115//174 118//174 119//174
f 115//175 119//175 113//175
f 115//176 113//176 112//176
f 120//177 112//177 108//177
f 120//178 108//178 114//178
f 121//179 56//179 57//179
f 121//180 57//180 58//180
f 121//181 111//181 56//181
f 121//182 114//182 111//182
f 122//183 123//183 116//183
f 122//184 116//184 115//184
f 122//185 115//185 112//185
f 122//186 112//186 120//186
f 124//187 120//187 114//187
f 124//188 114//188 121//188
f 125//189 126//189 123//189
f 125//190 123//190 122//190
f 125//191 122//191 120//191
f 125//192 120//192 124//192
f 127//193 58//193 59//193
f 127//194 121//194 58//194
f 127//195 124//195 121//195
f 128//196 129//196 126//196
f 128//197 126//197 125//197
f 128//198 125//198 124//198
f 128//199 124//199 127//199
f 130//200 62//200 131//200
f 130//201 131//201 129//201
f 130//202 59//202 60//202
f 130//203 60//203 62//203
f 130//204 127//204 59//204
f 130//205 128//205 127//205
f 130//206 129//206 128//206
f 132//207 133//207 118//207
f 132//208 118//208 117//208
f 134//209 132//209 117//209
f 135//210 117//210 116//210
f 135//211 134//211 117//211
f 136//212 135//212 116//212
f 137//213 116//213 123//213
f 137//214 136//214 116//214
f 138//215 126//215 129//215
f 138//216 123//216 126//216
f 138//217 137//217 123//217
f 139//218 129//218 131//218
f 139//219 138//219 129//219
f 140//220 131//220 62//220
f 140//221 139//221 131//221
f 118//222 133//222 141//222
f 141//223 133//223 142//223
f 143//224 142//224 144//224
f 144//225 142//225 145//225
f 132//226 134//226 133//226
f 134//227 135//227 133//227
f 135//228 145//228 142//228
f 135//229 142//229 133//229
f 145//230 146//230 147//230
f 145//231 148//231 146//231
f 145//232 135//232 148//232
f 136//233 137//233 135//233
f 137//234 138//234 135//234
f 148//235 139//235 149//235
f 135//236 139//236 148//236
f 138//237 139//237 135//237
f 149//238 140//238 150//238
f 139//239 140//239 149//239
f 150//240 151//240 152//240
f 140//241 151//241 150//241
f 141//242 142//242 143//242
f 153//243 143//243 144//243
f 153//244 144//244 145//244
f 153//245 141//245 143//245
f 154//246 145//246 147//246
f 154//247 153//247 145//247
f 155//248 147//248 146//248
f 155//249 154//249 147//249
f 156//250 146//250 148//250
f 156//251 155//251 146//251
f 157//252 148//252 149//252
f 157//253 156//253 148//253
f 158//254 157//254 149//254
f 159//255 149//255 150//255
f 159//256 158//256 149//256
f 160//257 158//257 159//257
f 161//258 157//258 158//258
f 161//259 158//259 160//259
f 162//260 156//260 157//260
f 162//261 155//261 156//261
f 162//262 157//262 161//262
f 163//263 160//263 164//263
f 163//264 161//264 160//264
f 165//265 154//265 155//265
f 165//266 155//266 162//266
f 166//267 161//267 163//267
f 166//268 162//268 161//268
f 167//269 153//269 154//269
f 167//270 141//270 153//270
f 167//271 168//271 169//271
f 167//272 169//272 141//272
f 167//273 154//273 165//273
f 170//274 162//274 166//274
f 170//275 165//275 162//275
f 171//276 164//276 172//276
f 171//277 172//277 173//277
f 171//278 163//278 164//278
f 171//279 166//279 163//279
f 174//280 175//280 168//280
f 174//281 168//281 167//281
f 174//282 165//282 170//282
f 174//283 167//283 165//283
f 176//284 170//284 166//284
f 176//285 166//285 171//285
f 177//286 178//286 175//286
f 177//287 174//287 170//287
f 177//288 175//288 174//288
f 177//289 170//289 176//289
f 179//290 173//290 180//290
f 179//291 171//291 173//291
f 179//292 176//292 171//292
f 181//293 182//293 178//293
f 181//294 178//294 177//294
f 181//295 177//295 176//295
f 181//296 176//296 179//296
f 183//297 180//297 184//297
f 183//298 184//298 185//298
f 183//299 185//299 186//299
f 183//300 186//300 182//300
f 183//301 179//301 180//301
f 183//302 182//302 181//302
f 183//303 181//303 179//303
f 46//304 185//304 184//304
f 89//305 184//305 180//305
f 89//306 46//306 184//306
f 90//307 180//307 173//307
f 90//308 89//308 180//308
f 96//309 173//309 172//309
f 96//310 90//310 173//310
f 101//311 172//311 164//311
f 101//312 96//312 172//312
f 102//313 164//313 160//313
f 102//314 101//314 164//314
f 104//315 102//315 160//315
f 187//316 160//316 159//316
f 187//317 104//317 160//317
f 188//318 187//318 159//318
f 189//319 188//319 159//319
f 190//320 189//320 159//320
f 119//321 118//321 141//321
f 119//322 141//322 169//322
f 113//323 168//323 175//323
f 113//324 169//324 168//324
f 113//325 119//325 169//325
f 109//326 113//326 175//326
f 110//327 175//327 178//327
f 110//328 109//328 175//328
f 107//329 182//329 186//329
f 107//330 178//330 182//330
f 107//331 110//331 178//331
f 105//332 107//332 186//332
f 55//333 186//333 185//333
f 55//334 105//334 186//334
f 191//335 192//335 193//335
f 194//336 195//336 191//336
f 191//337 195//337 192//337
f 194//338 152//338 195//338
f 190//339 150//339 194//339
f 194//340 150//340 152//340
f 190//341 159//341 150//341
f 23//342 55//342 46//342
f 46//343 55//343 185//343
f 196//344 197//344 198//344
f 199//345 200//345 197//345
f 199//346 197//346 196//346
f 201//347 202//347 203//347
f 201//348 203//348 200//348
f 201//349 200//349 199//349
f 204//350 196//350 205//350
f 204//351 199//351 196//351
f 206//352 207//352 202//352
f 206//353 202//353 201//353
f 208//354 199//354 204//354
f 208//355 201//355 199//355
f 209//356 210//356 211//356
f 209//357 211//357 207//357
f 209//358 212//358 213//358
f 209//359 213//359 210//359
f 209//360 207//360 206//360
f 214//361 201//361 208//361
f 214//362 206//362 201//362
f 215//363 205//363 216//363
f 215//364 216//364 217//364
f 215//365 204//365 205//365
f 215//366 208//366 204//366
f 218//367 219//367 212//367
f 218//368 206//368 214//368
f 218//369 212//369 209//369
f 218//370 209//370 206//370
f 220//371 214//371 208//371
f 220//372 208//372 215//372
f 221//373 222//373 219//373
f 221//374 218//374 214//374
f 221//375 219//375 218//375
f 221//376 214//376 220//376
f 223//377 217//377 224//377
f 223//378 215//378 217//378
f 223//379 220//379 215//379
f 225//380 226//380 222//380
f 225//381 222//381 221//381
f 225//382 221//382 220//382
f 225//383 220//383 223//383
f 227//384 224//384 228//384
f 227//385 228//385 193//385
f 227//386 193//386 229//386
f 227//387 229//387 226//387
f 227//388 223//388 224//388
f 227//389 226//389 225//389
f 227//390 225//390 223//390
f 198//391 230//391 231//391
f 198//392 232//392 230//392
f 198//393 233//393 232//393
f 196//394 234//394 235//394
f 196//395 231//395 234//395
f 196//396 198//396 231//396
f 205//397 235//397 236//397
f 205//398 196//398 235//398
f 216//399 236//399 237//399
f 216//400 205//400 236//400
f 217//401 237//401 238//401
f 217//402 216//402 237//402
f 224//403 217//403 238//403
f 228//404 238//404 191//404
f 228//405 224//405 238//405
f 193//406 228//406 191//406
f 239//407 240//407 241//407
f 239//408 241//408 242//408
f 243//409 244//409 240//409
f 243//410 242//410 245//410
f 243//411 239//411 242//411
f 243//412 240//412 239//412
f 246//413 247//413 244//413
f 246//414 244//414 243//414
f 248//415 245//415 249//415
f 248//416 243//416 245//416
f 250//417 243//417 248//417
f 250//418 247//418 246//418
f 250//419 246//419 243//419
f 251//420 249//420 252//420
f 251//421 252//421 253//421
f 251//422 248//422 249//422
f 254//423 255//423 256//423
f 254//424 256//424 247//424
f 254//425 247//425 250//425
f 257//426 248//426 251//426
f 257//427 250//427 248//427
f 258//428 253//428 259//428
f 258//429 260//429 261//429
f 258//430 251//430 253//430
f 262//431 250//431 257//431
f 262//432 255//432 254//432
f 262//433 254//433 250//433
f 263//434 251//434 258//434
f 263//435 257//435 251//435
f 264//436 259//436 192//436
f 264//437 192//437 260//437
f 264//438 258//438 259//438
f 264//439 260//439 258//439
f 265//440 262//440 257//440
f 265//441 257//441 263//441
f 266//442 261//442 267//442
f 266//443 267//443 263//443
f 266//444 258//444 261//444
f 266//445 263//445 258//445
f 268//446 269//446 270//446
f 268//447 270//447 255//447
f 268//448 271//448 272//448
f 268//449 272//449 269//449
f 268//450 255//450 262//450
f 268//451 265//451 271//451
f 268//452 262//452 265//452
f 273//453 267//453 274//453
f 273//454 274//454 271//454
f 273//455 263//455 267//455
f 273//456 271//456 265//456
f 273//457 265//457 263//457
f 242//458 241//458 210//458
f 242//459 210//459 213//459
f 245//460 213//460 212//460
f 245//461 242//461 213//461
f 249//462 212//462 219//462
f 249//463 245//463 212//463
f 252//464 219//464 222//464
f 252//465 249//465 219//465
f 253//466 222//466 226//466
f 253//467 252//467 222//467
f 259//468 226//468 229//468
f 259//469 253//469 226//469
f 192//470 229//470 193//470
f 192//471 259//471 229//471
f 275//472 276//472 269//472
f 277//473 269//473 272//473
f 277//474 275//474 269//474
f 278//475 277//475 272//475
f 279//476 278//476 272//476
f 280//477 272//477 271//477
f 280//478 279//478 272//478
f 281//479 271//479 274//479
f 281//480 280//480 271//480
f 282//481 267//481 261//481
f 282//482 274//482 267//482
f 282//483 281//483 274//483
f 283//484 261//484 260//484
f 283//485 282//485 261//485
f 195//486 260//486 192//486
f 195//487 283//487 260//487
f 284//488 285//488 286//488
f 287//489 288//489 285//489
f 289//490 290//490 291//490
f 289//491 291//491 288//491
f 289//492 288//492 287//492
f 292//493 284//493 293//493
f 292//494 285//494 284//494
f 292//495 287//495 285//495
f 294//496 295//496 290//496
f 294//497 290//497 289//497
f 296//498 287//498 292//498
f 296//499 289//499 287//499
f 297//500 298//500 299//500
f 297//501 299//501 300//501
f 297//502 300//502 301//502
f 297//503 301//503 295//503
f 297//504 295//504 294//504
f 302//505 294//505 289//505
f 302//506 289//506 296//506
f 303//507 293//507 304//507
f 303//508 304//508 305//508
f 303//509 292//509 293//509
f 303//510 296//510 292//510
f 306//511 307//511 298//511
f 306//512 294//512 302//512
f 306//513 298//513 297//513
f 306//514 297//514 294//514
f 308//515 302//515 296//515
f 308//516 296//516 303//516
f 309//517 310//517 307//517
f 309//518 306//518 302//518
f 309//519 307//519 306//519
f 309//520 302//520 308//520
f 311//521 305//521 312//521
f 311//522 303//522 305//522
f 311//523 308//523 303//523
f 313//524 314//524 310//524
f 313//525 310//525 309//525
f 313//526 309//526 308//526
f 313//527 308//527 311//527
f 315//528 312//528 316//528
f 315//529 316//529 317//529
f 315//530 317//530 318//530
f 315//531 318//531 314//531
f 315//532 311//532 312//532
f 315//533 314//533 313//533
f 315//534 313//534 311//534
f 319//535 320//535 321//535
f 319//536 321//536 322//536
f 323//537 324//537 320//537
f 323//538 322//538 325//538
f 323//539 320//539 319//539
f 323//540 319//540 322//540
f 326//541 327//541 324//541
f 326//542 324//542 323//542
f 328//543 325//543 329//543
f 328//544 323//544 325//544
f 330//545 323//545 328//545
f 330//546 327//546 326//546
f 330//547 326//547 323//547
f 331//548 329//548 332//548
f 331//549 332//549 333//549
f 331//550 328//550 329//550
f 334//551 335//551 336//551
f 334//552 336//552 327//552
f 334//553 327//553 330//553
f 337//554 328//554 331//554
f 337//555 330//555 328//555
f 338//556 339//556 340//556
f 338//557 333//557 341//557
f 338//558 331//558 333//558
f 342//559 334//559 330//559
f 342//560 330//560 337//560
f 342//561 335//561 334//561
f 343//562 337//562 331//562
f 343//563 331//563 338//563
f 344//564 345//564 339//564
f 344//565 341//565 345//565
f 344//566 338//566 341//566
f 344//567 339//567 338//567
f 346//568 337//568 343//568
f 346//569 342//569 337//569
f 347//570 340//570 348//570
f 347//571 338//571 340//571
f 347//572 348//572 343//572
f 347//573 343//573 338//573
f 349//574 350//574 351//574
f 349//575 351//575 352//575
f 349//576 352//576 353//576
f 349//577 353//577 335//577
f 349//578 346//578 350//578
f 349//579 335//579 342//579
f 349//580 342//580 346//580
f 354//581 348//581 355//581
f 354//582 355//582 350//582
f 354//583 350//583 346//583
f 354//584 343//584 348//584
f 354//585 346//585 343//585
f 352//586 356//586 357//586
f 352//587 357//587 358//587
f 353//588 358//588 359//588
f 353//589 359//589 360//589
f 353//590 360//590 361//590
f 353//591 361//591 362//591
f 353//592 352//592 358//592
f 335//593 362//593 363//593
f 335//594 353//594 362//594
f 336//595 363//595 364//595
f 336//596 335//596 363//596
f 327//597 364//597 365//597
f 327//598 336//598 364//598
f 324//599 327//599 365//599
f 320//600 365//600 366//600
f 320//601 324//601 365//601
f 321//602 366//602 367//602
f 321//603 320//603 366//603
f 318//604 317//604 345//604
f 318//605 345//605 341//605
f 314//606 341//606 333//606
f 314//607 318//607 341//607
f 310//608 333//608 332//608
f 310//609 314//609 333//609
f 307//610 332//610 329//610
f 307//611 310//611 332//611
f 298//612 329//612 325//612
f 298//613 307//613 329//613
f 299//614 325//614 322//614
f 299//615 298//615 325//615
f 300//616 322//616 321//616
f 300//617 299//617 322//617
f 339//618 345//618 241//618
f 339//619 241//619 240//619
f 340//620 244//620 247//620
f 340//621 240//621 244//621
f 340//622 339//622 240//622
f 348//623 340//623 247//623
f 355//624 247//624 256//624
f 355//625 348//625 247//625
f 350//626 255//626 270//626
f 350//627 256//627 255//627
f 350//628 355//628 256//628
f 351//629 350//629 270//629
f 352//630 270//630 269//630
f 352//631 351//631 270//631
f 368//632 369//632 286//632
f 370//633 286//633 285//633
f 370//634 368//634 286//634
f 371//635 370//635 285//635
f 372//636 371//636 285//636
f 373//637 372//637 285//637
f 374//638 285//638 288//638
f 374//639 373//639 285//639
f 375//640 288//640 291//640
f 375//641 374//641 288//641
f 376//642 291//642 290//642
f 376//643 375//643 291//643
f 377//644 290//644 295//644
f 377//645 376//645 290//645
f 378//646 295//646 301//646
f 378//647 377//647 295//647
f 379//648 301//648 300//648
f 379//649 378//649 301//649
f 284//650 286//650 198//650
f 284//651 198//651 197//651
f 293//652 200//652 203//652
f 293//653 197//653 200//653
f 293//654 284//654 197//654
f 304//655 293//655 203//655
f 305//656 203//656 202//656
f 305//657 304//657 203//657
f 312//658 207//658 211//658
f 312//659 202//659 207//659
f 312//660 305//660 202//660
f 316//661 312//661 211//661
f 317//662 211//662 210//662
f 317//663 316//663 211//663
f 283//664 276//664 282//664
f 282//665 276//665 281//665
f 281//666 276//666 280//666
f 280//667 276//667 279//667
f 279//668 276//668 278//668
f 278//669 276//669 277//669
f 277//670 276//670 275//670
f 151//671 367//671 152//671
f 152//672 367//672 195//672
f 195//673 366//673 283//673
f 367//674 366//674 195//674
f 363//675 356//675 364//675
f 364//676 356//676 365//676
f 365//677 356//677 366//677
f 283//678 356//678 276//678
f 366//679 356//679 283//679
f 363//680 362//680 356//680
f 356//681 358//681 357//681
f 356//682 359//682 358//682
f 362//683 361//683 356//683
f 356//684 360//684 359//684
f 361//685 360//685 356//685
f 286//686 369//686 198//686
f 198//687 369//687 233//687
f 345//688 317//688 241//688
f 241//689 317//689 210//689
f 71//690 72//690 194//690
f 194//691 69//691 71//691
f 194//692 68//692 69//692
f 72//693 73//693 194//693
f 194//694 66//694 68//694
f 194//695 67//695 66//695
f 73//696 75//696 194//696
f 75//697 77//697 194//697
f 77//698 79//698 194//698
f 81//699 83//699 190//699
f 83//700 189//700 190//700
f 83//701 84//701 189//701
f 84//702 188//702 189//702
f 380//703 5//703 194//703
f 194//704 5//704 67//704
f 380//705 4//705 5//705
f 380//706 2//706 4//706
f 380//707 3//707 2//707
f 380//708 7//708 3//708
f 380//709 8//709 7//709
f 85//710 188//710 84//710
f 19//711 61//711 38//711
f 380//712 64//712 63//712
f 380//713 63//713 14//713
f 380//714 14//714 12//714
f 380//715 12//715 10//715
f 380//716 10//716 8//716
f 190//717 194//717 81//717
f 81//718 194//718 79//718
f 369//719 194//719 233//719
f 237//720 194//720 238//720
f 236//721 194//721 237//721
f 235//722 194//722 236//722
f 234//723 194//723 235//723
f 231//724 194//724 234//724
f 230//725 194//725 231//725
f 232//726 194//726 230//726
f 233//727 194//727 232//727
f 368//728 380//728 369//728
f 370//729 380//729 368//729
f 371//730 380//730 370//730
f 372//731 380//731 371//731
f 373//732 380//732 372//732
f 369//733 380//733 194//733
f 379//734 380//734 378//734
f 378//735 380//735 377//735
f 377//736 380//736 376//736
f 376//737 380//737 375//737
f 375//738 380//738 374//738
f 374//739 380//739 373//739
f 194//740 191//740 238//740
f 356//741 352//741 276//741
f 276//742 352//742 269//742
f 62//743 64//743 140//743
f 140//744 380//744 151//744
f 151//745 380//745 367//745
f 64//746 380//746 140//746
f 367//747 379//747 321//747
f 380//748 379//748 367//748
f 379//749 300//749 321//749
