# https://github.com/mikedh/trimesh
v -0.0357957888 0.0189529598 0.1429370308
v -0.03459584 0.0179734528 0.1422442532
v -0.0463340545 0.023188076 0.1288140583
v -0.0395438338 0.0177744853 0.1474103737
v -0.026351513899999998 0.023412759300000002 0.13748438840000002
v -0.0435168004 0.0293691921 0.12718750950000002
v -0.029137690100000002 0.029339971500000003 0.1390929794
v -0.028829901300000002 0.0189646816 0.16200929639999997
v -0.0276457477 0.0278811669 0.1382316208
v -0.0317222405 0.029319651100000003 0.1613697815
v -0.038829901300000004 0.0189646816 0.1446887875
v -0.040698855 0.030225408100000004 0.1255605698
v -0.0397715974 0.017319213200000003 0.1250252151
v -0.0365568519 0.0280952215 0.1231691837
v -0.031543834300000004 0.0177744853 0.16126678470000003
v -0.0374180103 0.022071390200000002 0.1438736343
v -0.040749466500000005 0.0172255397 0.1255897903
v -0.045934465 0.0212650514 0.1285833454
v -0.037931521 0.0180817544 0.12396285060000001
v -0.0447224331 0.0191499865 0.1278835869
v -0.0341517067 0.0177314985 0.1419878292
v -0.0443230987 0.0287234926 0.1276530361
v -0.0279758859 0.0283009601 0.1384222221
v -0.0351142669 0.0242628717 0.1223363018
v -0.028011674900000002 0.0191086638 0.13844287870000002
v -0.041726567799999996 0.0173293614 0.1261539173
v -0.0231525648 0.0352706432 0.156422081
v -0.044130868999999996 0.028900005800000003 0.1275420475
v -0.0371844626 0.0212650514 0.1437387943
v -0.035573096299999996 0.0287234926 0.142808466
v -0.0269693971 0.0267008901 0.1378411198
v -0.0458151699 0.0264989471 0.1285144711
v -0.037317454900000005 0.0185509396 0.12360831259999999
v -0.0455864597 0.027000746699999998 0.12838242530000002
v -0.032976565400000005 0.0173293614 0.1413093662
v -0.0311525655 0.0352706432 0.1425656796
v -0.039721756 0.030121586300000003 0.12499644280000001
v -0.0364246297 0.0277055645 0.1433001041
v -0.0389726234 0.0282008171 0.14477118490000002
v -0.0289726234 0.0282008171 0.1620916939
v -0.045728924299999994 0.0207500553 0.1284646797
v -0.0371252251 0.0187274516 0.1234973335
v -0.026883151600000002 0.0209519982 0.13779131890000001
v -0.035513858800000006 0.026185893999999998 0.12256701469999999
v -0.0285674525 0.0185509396 0.138763752
v -0.034330191700000005 0.029628763199999998 0.1420908737
v -0.0289709855 0.0182277834 0.1389967346
v -0.0448914719 0.0193557239 0.1279811668
v -0.0416767264 0.0301317334 0.126125145
v -0.037584054500000005 0.023188076 0.1439694881
v -0.0303055907 0.0175175893 0.13976727490000002
v -0.0394810915 0.0300650096 0.1248574924
v -0.042392733099999996 0.029933357200000003 0.1265385342
v -0.0385466147 0.0297194481 0.12431797030000001
v -0.034766800400000006 0.0293691921 0.1423429585
v -0.031948855 0.030225408100000004 0.1407160187
v -0.0310215974 0.017319213200000003 0.1401806641
v -0.0278068519 0.0280952215 0.13832463260000002
v -0.032926724 0.0301317334 0.1412805939
v -0.0437273384 0.029223163099999998 0.12730906490000002
v -0.035280311200000004 0.0253795552 0.1224321747
v -0.0450525737 0.0195697784 0.1280741882
v -0.0319994665 0.0172255397 0.1407452393
v -0.0435606313 0.0181109762 0.1272128105
v -0.0383681322 0.0178221834 0.12421492580000001
v -0.029181521 0.0180817544 0.1391182995
v -0.0227957547 0.012180305700000001 0.1562160873
v -0.036273694100000003 0.0197453821 0.1230057049
v -0.0369025326 0.028497986800000003 0.12336875920000001
v -0.0381024814 0.0294774938 0.1240615559
v -0.034977336000000005 0.029223163099999998 0.1424645042
v -0.0375161648 0.018384280200000002 0.1237230492
v -0.027111864099999997 0.020450200999999998 0.1379233742
v -0.0307957554 0.012180305700000001 0.1423596764
v -0.0296181298 0.0178221834 0.1393703651
v -0.035380869 0.028900005800000003 0.1426974869
v -0.0370651699 0.0264989471 0.14366992
v -0.024975698 0.019250130700000003 0.13669006350000001
v -0.036836459700000004 0.027000746699999998 0.1435378838
v -0.0426732088 0.0176275265 0.1267004585
v -0.030971756 0.030121586300000003 0.1401518917
v -0.045705554499999995 0.026752727 0.1284511852
v -0.04468664890000001 0.0283422828 0.12786291119999998
v -0.0149756986 0.019250130700000003 0.1540105629
v -0.0283752251 0.0187274516 0.1386527729
v -0.04615491160000001 0.0254360056 0.12871063230000002
v -0.026763858800000002 0.026185893999999998 0.1377224445
v -0.0462253118 0.022347157000000003 0.12875127790000002
v -0.0353479743 0.0256521749 0.1224712372
v -0.0361414719 0.0193557239 0.1431366158
v -0.0460851264 0.0257079077 0.12867033
v -0.035425875200000005 0.025921123 0.1225162125
v -0.0439736128 0.0184177983 0.1274512577
v -0.046263353900000005 0.024882950799999998 0.1287732315
v -0.0336427331 0.029933357200000003 0.1416939831
v -0.0297966147 0.0297194481 0.1394734192
v -0.035972435500000004 0.0191499865 0.1430390358
v -0.0463468099 0.024038188500000002 0.1288214207
v -0.0263642693 0.0242628717 0.1374917507
v -0.0265303112 0.0253795552 0.13758762360000001
v -0.0363025737 0.0195697784 0.1432296371
v -0.0348106313 0.0181109762 0.1423682594
v -0.0433009482 0.029504478 0.1270628834
v -0.037596807499999996 0.024038188500000002 0.1439768696
v -0.046301806 0.0246028543 0.12879543300000001
v -0.042205524499999994 0.0174545813 0.12643043520000002
v -0.0275236941 0.0197453821 0.1381611347
v -0.0144044877 0.0296764612 0.15137137409999998
v -0.0293524814 0.0294774938 0.13921698570000002
v -0.0395305038 0.0173732877 0.12488601680000001
v -0.046349012800000006 0.023471143200000003 0.1288226891
v -0.041189563299999996 0.030203218500000004 0.1258438873
v -0.0369789267 0.0207500553 0.1436201191
v -0.022404488400000002 0.0296764612 0.1375149632
v -0.022226082100000003 0.0181312954 0.1374119663
v -0.0367081047 0.0272425294 0.1434637642
v -0.039291682300000005 0.0174394572 0.12474814410000001
v -0.0339232088 0.0176275265 0.1418559074
v -0.0359366489 0.0283422828 0.14301836010000002
v -0.035118677699999996 0.023129859000000003 0.12233885770000001
v -0.032439560900000004 0.030203218500000004 0.1409993172
v -0.0142260826 0.0181312954 0.1512683773
v -0.0307310939 0.0300650096 0.1400129318
v -0.0445084763 0.0285374689 0.1277600479
v -0.040208342 0.0301981258 0.1252773666
v -0.040944418999999996 0.0302204967 0.1257023525
v -0.0443618656 0.018765018 0.1276754189
v -0.0266758752 0.025921123 0.1376716518
v -0.0373351264 0.0257079077 0.1438257885
v -0.0251184226 0.028486263799999998 0.1367724514
v -0.015118422600000002 0.028486263799999998 0.1540929699
v -0.0357584739 0.0285374689 0.1429155064
v -0.0354431844 0.0214749074 0.122526207
v -0.0383222628 0.0296040654 0.12418844220000001
v -0.0462143589 0.0251608443 0.12874494549999999
v -0.0454581094 0.0272425294 0.1283083248
v -0.028152535 0.028497986800000003 0.1385242081
v -0.0356117607 0.026445980100000002 0.1226235294
v -0.028766167199999998 0.018384280200000002 0.138878479
v -0.0345509482 0.029504478 0.1422183323
v -0.044857277800000005 0.0281383085 0.1279614449
v -0.040994980300000004 0.0172329998 0.12573154450000001
v -0.035176177100000004 0.0248253989 0.1223720455
v -0.045915095700000005 0.0262398863 0.1285721684
v -0.0452054381 0.0197917461 0.12816244129999999
v -0.0334555245 0.0174545813 0.1415858841
v -0.0369555569 0.026752727 0.14360663410000002
v -0.037404913899999996 0.0254360056 0.1438660622
v -0.039007320399999997 0.0299157834 0.12458395960000002
v -0.046308415 0.022906031599999998 0.1287992477
v -0.0374753142 0.022347157000000003 0.1439067078
v -0.0399643255 0.0301659846 0.1251364899
v -0.0450200439 0.0279259348 0.12805541039999999
v -0.0265979767 0.0256521749 0.1376266766
v -0.0453497719 0.020021200200000002 0.1282457733
v -0.0371650935 0.0262398863 0.1437276173
v -0.0352236152 0.0184177983 0.14260668750000002
v -0.0375133563 0.024882950799999998 0.1439286804
v -0.0454852987 0.020257704300000002 0.1283240128
v -0.0314583421 0.0301981258 0.1404328156
v -0.045320742100000005 0.027477617300000003 0.1282290268
v -0.032194419 0.0302204967 0.1408577824
v -0.0362700415 0.0279259348 0.14321085930000002
v -0.0350950528 0.023696253299999998 0.1223252106
v -0.0365997696 0.020021200200000002 0.1434012222
v -0.043770022400000004 0.0182591844 0.1273336983
v -0.0414839936 0.0172849619 0.12601387020000002
v -0.042854950499999996 0.0297418118 0.1268053913
v -0.04244099849999999 0.0175351632 0.126566391
v -0.042625651400000006 0.0298434067 0.1266730022
v -0.044171021000000005 0.0185865164 0.1275652218
v -0.0266931844 0.0214749074 0.1376816463
v -0.0295722628 0.0296040654 0.1393438911
v -0.0375518084 0.0246028543 0.143950882
v -0.021831437400000004 0.014489338400000001 0.1579687309
v -0.030780506200000002 0.0173732877 0.14004146580000001
v -0.040724160700000005 0.0237254715 0.12557518010000002
v -0.0414338184 0.0301736116 0.1259848881
v -0.0341049481 0.0297418118 0.1419608307
v -0.037599015300000004 0.023471143200000003 0.143978138
v -0.033875649 0.0298434067 0.1418284512
v -0.026426177100000003 0.0248253989 0.1375274944
v -0.0365910411 0.0193126392 0.1231889248
v -0.0372773004 0.0288644314 0.1235851383
v -0.0322449804 0.0172329998 0.1408869743
v -0.046272142 0.0226255465 0.12877830510000002
v -0.0364554382 0.0197917461 0.14331789020000002
v -0.030541684700000002 0.0174394572 0.139903574
v -0.0358365584 0.0269501352 0.12275332450000001
v -0.026368680000000002 0.023129859000000003 0.13749429700000002
v -0.0361275793 0.0199733281 0.12292134280000001
v -0.0318314386 0.014489338400000001 0.1406482124
v -0.0359630228 0.0271932411 0.12282633779999999
v -0.0456117654 0.0205008101 0.12839703560000001
v -0.037558415 0.022906031599999998 0.14395469670000002
v -0.031214325500000004 0.0301659846 0.1402919292
v -0.0356118679 0.018765018 0.1428308487
v -0.035139906500000005 0.024544916200000003 0.1223511124
v -0.0367352987 0.020257704300000002 0.1434794617
v -0.0374643612 0.0251608443 0.14390039440000002
v -0.0365707422 0.027477617300000003 0.1433844566
v -0.0400145054 0.0172773325 0.1251654625
v -0.026861763 0.026445980100000002 0.13777897830000002
v -0.0362428832 0.0276591992 0.12298790929999999
v -0.0350200224 0.0182591844 0.1424891472
v -0.0263450528 0.023696253299999998 0.13748065950000002
v -0.035533225599999996 0.0212110591 0.1225781918
v -0.035421021000000004 0.0185865164 0.1427206707
v -0.0361072803 0.0281383085 0.1431168747
v -0.0404533411 0.0302179456 0.12541882510000002
v -0.0388226724 0.0176075399 0.1244773579
v -0.0385933733 0.0177091336 0.1243449688
v -0.0376783014 0.029191761 0.1238166523
v -0.031264503 0.0172773325 0.1403208923
v -0.0350993062 0.0239798045 0.1223276711
v -0.0463532711 0.023754694500000003 0.12882514
v -0.0458365608 0.021004962900000004 0.1285268211
v -0.0326838184 0.0301736116 0.1411403465
v -0.0352339626 0.0222901034 0.1224054146
v -0.043126058599999996 0.017846880000000002 0.1269619179
v -0.046005136999999995 0.025976040399999997 0.1286241531
v -0.035146513000000004 0.0228480911 0.12235492710000001
v -0.030257322800000003 0.0299157834 0.1397394085
v -0.0285273004 0.0288644314 0.13874058720000002
v -0.036098551799999996 0.027429747600000002 0.1229045868
v -0.0364282799 0.019525011800000002 0.1230949497
v -0.0370864559 0.0286859298 0.1234749508
v -0.027086558400000002 0.0269501352 0.1379087734
v -0.0273775793 0.0199733281 0.1380767822
v -0.0412399793 0.017252819500000002 0.1258729839
v -0.027213022800000004 0.0271932411 0.13798177720000002
v -0.0351849652 0.0225679946 0.1223771191
v -0.0374747062 0.0290331483 0.1236991024
v -0.0463296438 0.0243210888 0.128811512
v -0.0368617654 0.0205008101 0.1435524845
v -0.0421566391 0.030011489400000004 0.126402216
v -0.032733996 0.0172849619 0.1411693096
v -0.033691001 0.0175351632 0.1417218399
v -0.0357427645 0.0206982183 0.1226991749
v -0.0274928832 0.0276591992 0.1381433582
v -0.0392427969 0.0299963665 0.12471990590000001
v -0.0278410435 0.0193126392 0.1383443642
v -0.031703341100000004 0.0302179456 0.1405742645
v -0.0375221444 0.0226255465 0.143933754
v -0.0300726724 0.0176075399 0.1396327877
v -0.0298433733 0.0177091336 0.1395004082
v -0.028928301400000002 0.029191761 0.1389720917
v -0.0439321542 0.0290666676 0.1274273109
v -0.026349306200000002 0.0239798045 0.13748310090000002
v -0.0376032711 0.023754694500000003 0.1439805889
v -0.0433458376 0.0179734528 0.1270888042
v -0.022116884 0.032961607000000004 0.1581335354
v -0.0370865608 0.021004962900000004 0.1436822701
v -0.0405039049 0.0172304511 0.1254480171
v -0.0264839626 0.0222901034 0.13756086350000002
v -0.0343760586 0.017846880000000002 0.1421173668
v -0.037255137 0.025976040399999997 0.1437795925
v -0.026396513000000003 0.0228480911 0.13751037600000002
v -0.0369398475 0.0189134777 0.12339030270000001
v -0.0273485518 0.027429747600000002 0.1380600357
v -0.0460224462 0.0215298223 0.12863413810000002
v -0.035363195 0.0217430377 0.12248002050000001
v -0.0461003471 0.0217987728 0.1286791229
v -0.027678279899999998 0.019525011800000002 0.13825039860000002
v -0.0283364559 0.0286859298 0.1386303902
v -0.0352230096 0.0251037884 0.12239908220000001
v -0.0263899088 0.024544916200000003 0.1375065613
v -0.0317539025 0.0172304511 0.1406034565
v -0.0324899793 0.017252819500000002 0.1410284328
v -0.0352934099 0.0220149422 0.1224397373
v -0.0419672275 0.017385937 0.1262928677
v -0.0321168852 0.032961607000000004 0.1408130264
v -0.026434965199999997 0.0225679946 0.1375325584
v -0.0402587605 0.0172477269 0.1253064919
v -0.028724706200000002 0.0290331483 0.13885455130000002
v -0.0375796438 0.0243210888 0.1439669418
v -0.0373503447 0.0217987728 0.1438345623
v -0.0334066391 0.030011489400000004 0.1415576649
v -0.038775112699999996 0.02982342 0.124449892
v -0.04191782 0.0300776577 0.1262643337
v -0.026473007200000002 0.0251037884 0.1375545311
v -0.0359902168 0.020208416 0.1228420353
v -0.026783228000000003 0.0212110591 0.1377336407
v -0.038147375600000005 0.0179464686 0.1240874672
v -0.0331678176 0.0300776577 0.14141978260000002
v -0.0445457888 0.0189529598 0.127781601
v -0.0304927969 0.0299963665 0.1398753548
v -0.0351015139 0.023412759300000002 0.122328949
v -0.0356331492 0.0209519982 0.12263588909999999
v -0.0293973732 0.0179464686 0.1392429161
v -0.0363957477 0.0278811669 0.1230761719
v -0.0351821542 0.0290666676 0.1425827599
v -0.046168010300000006 0.022071390200000002 0.1287181854
v -0.0397222376 0.029319651100000003 0.1475133705
v -0.0429017067 0.0177314985 0.1268323803
v -0.0390555883 0.0175175893 0.1246118355
v -0.0281898475 0.0189134777 0.1385457516
v -0.036725885900000005 0.0283009601 0.1232667732
v -0.0367616749 0.0191086638 0.1232874393
v -0.0372724462 0.0215298223 0.143789587
v -0.026613195 0.0217430377 0.1376354694
v -0.026543409900000002 0.0220149422 0.1375951767
v -0.0357193971 0.0267008901 0.1226856804
v -0.0332172275 0.017385937 0.141448307
v -0.0269927669 0.0206982183 0.1378546238
v -0.031508760499999997 0.0172477269 0.1404619217
v -0.0300251127 0.02982342 0.139605341
v -0.045174629599999995 0.0277055645 0.1281446552
v -0.027240216799999998 0.020208416 0.1379974747
v -0.0358618617 0.020450200999999998 0.1227679348
v -0.0378876925 0.029339971500000003 0.12393754010000001
v -0.0430801917 0.029628763199999998 0.1269354343
v -0.0377209855 0.0182277834 0.1238412952
f 193 228 189
f 228 31 189
f 189 31 303
f 31 203 303
f 303 203 138
f 203 87 138
f 138 87 44
f 87 128 44
f 44 128 92
f 128 154 92
f 92 154 89
f 154 100 89
f 89 100 61
f 100 281 61
f 61 281 266
f 281 182 266
f 266 182 143
f 182 267 143
f 143 267 198
f 267 99 198
f 198 99 24
f 99 249 24
f 24 249 215
f 249 206 215
f 215 206 164
f 206 5 164
f 164 5 288
f 5 190 288
f 288 190 120
f 190 258 120
f 120 258 222
f 258 273 222
f 222 273 232
f 273 255 232
f 232 255 219
f 255 302 219
f 219 302 270
f 302 301 270
f 270 301 262
f 301 172 262
f 262 172 133
f 172 283 133
f 133 283 207
f 283 43 207
f 207 43 289
f 43 305 289
f 289 305 239
f 305 73 239
f 239 73 310
f 73 309 310
f 310 309 282
f 309 229 282
f 282 229 191
f 229 107 191
f 191 107 68
f 107 264 68
f 68 264 226
f 264 242 226
f 226 242 183
f 242 25 183
f 183 25 299
f 25 297 299
f 299 297 259
f 297 85 259
f 259 85 42
f 85 45 42
f 42 45 33
f 45 139 33
f 33 139 72
f 139 47 72
f 72 47 313
f 47 66 313
f 313 66 19
f 66 290 19
f 19 290 284
f 290 75 284
f 284 75 65
f 75 246 65
f 65 246 212
f 246 245 212
f 212 245 211
f 245 51 211
f 211 51 296
f 51 188 296
f 296 188 117
f 188 176 117
f 117 176 110
f 176 57 110
f 110 57 13
f 57 214 13
f 13 214 202
f 214 306 202
f 202 306 274
f 306 268 274
f 274 268 254
f 268 63 254
f 254 63 17
f 63 185 17
f 17 185 142
f 185 269 142
f 142 269 230
f 269 237 230
f 230 237 167
f 237 35 167
f 167 35 26
f 35 304 26
f 26 304 271
f 304 146 271
f 271 146 106
f 146 238 106
f 106 238 169
f 238 118 169
f 169 118 80
f 118 21 80
f 80 21 295
f 21 256 295
f 295 256 220
f 256 2 220
f 220 2 251
f 2 102 251
f 251 102 64
f 102 205 64
f 64 205 166
f 205 157 166
f 166 157 93
f 157 208 93
f 93 208 171
f 208 197 171
f 171 197 127
f 197 1 127
f 127 1 286
f 1 97 286
f 286 97 20
f 97 90 20
f 20 90 48
f 90 101 48
f 48 101 62
f 101 187 62
f 62 187 145
f 187 165 145
f 145 165 155
f 165 199 155
f 155 199 159
f 199 235 159
f 159 235 194
f 235 113 194
f 194 113 41
f 113 253 41
f 41 253 217
f 253 29 217
f 217 29 18
f 29 300 18
f 18 300 261
f 300 277 261
f 261 277 263
f 277 16 263
f 263 16 293
f 16 151 293
f 293 151 88
f 151 244 88
f 88 244 186
f 244 195 186
f 186 195 150
f 195 50 150
f 150 50 3
f 50 180 3
f 3 180 111
f 180 250 111
f 111 250 216
f 250 104 216
f 216 104 98
f 104 276 98
f 98 276 234
f 276 174 234
f 234 174 105
f 174 158 105
f 105 158 94
f 158 200 94
f 94 200 135
f 200 148 135
f 135 148 86
f 148 129 86
f 86 129 91
f 129 257 91
f 91 257 221
f 257 156 221
f 221 156 144
f 156 77 144
f 144 77 32
f 77 147 32
f 32 147 82
f 147 79 82
f 82 79 34
f 79 116 34
f 34 116 136
f 116 201 136
f 136 201 161
f 201 38 161
f 161 38 308
f 38 163 308
f 308 163 153
f 163 209 153
f 153 209 141
f 209 119 141
f 141 119 83
f 119 132 83
f 83 132 124
f 132 30 124
f 124 30 22
f 30 76 22
f 22 76 28
f 76 292 28
f 28 292 248
f 292 71 248
f 248 71 60
f 71 55 60
f 60 55 6
f 55 140 6
f 6 140 103
f 140 46 103
f 103 46 312
f 46 179 312
f 312 179 168
f 179 181 168
f 168 181 170
f 181 95 170
f 170 95 53
f 95 278 53
f 53 278 236
f 278 285 236
f 236 285 280
f 285 59 280
f 280 59 49
f 59 218 49
f 49 218 178
f 218 121 178
f 178 121 112
f 121 162 112
f 112 162 126
f 162 56 126
f 126 56 12
f 56 243 12
f 12 243 210
f 243 160 210
f 210 160 125
f 160 196 125
f 125 196 152
f 196 81 152
f 152 81 37
f 81 123 37
f 37 123 52
f 123 287 52
f 52 287 241
f 287 223 241
f 241 223 149
f 223 307 149
f 149 307 279
f 307 96 279
f 279 96 54
f 96 173 54
f 54 173 134
f 173 109 134
f 134 109 70
f 109 7 70
f 70 7 311
f 7 247 311
f 311 247 213
f 247 275 213
f 213 275 233
f 275 224 233
f 233 224 184
f 224 265 184
f 184 265 227
f 265 137 227
f 227 137 69
f 137 23 69
f 69 23 298
f 23 58 298
f 298 58 14
f 58 9 14
f 14 9 291
f 9 240 291
f 291 240 204
f 240 260 204
f 204 260 225
f 260 231 225
f 225 231 193
f 231 228 193
f 145 155 177
f 155 159 177
f 177 159 194
f 20 48 177
f 48 62 177
f 177 62 145
f 171 127 177
f 127 286 177
f 177 286 20
f 64 166 177
f 166 93 177
f 177 93 171
f 295 220 177
f 220 251 177
f 177 251 64
f 106 169 177
f 169 80 177
f 177 80 295
f 167 26 177
f 26 271 177
f 177 271 106
f 17 142 177
f 142 230 177
f 177 230 167
f 202 274 177
f 274 254 177
f 177 254 17
f 117 110 177
f 110 13 177
f 177 13 202
f 212 211 177
f 211 296 177
f 177 296 117
f 19 284 177
f 284 65 177
f 177 65 212
f 33 72 177
f 72 313 177
f 177 313 19
f 299 259 177
f 259 42 177
f 177 42 33
f 68 226 177
f 226 183 177
f 177 183 299
f 310 282 177
f 282 191 177
f 177 191 68
f 207 289 177
f 289 239 177
f 177 239 310
f 270 262 177
f 262 133 177
f 177 133 207
f 222 232 177
f 232 219 177
f 177 219 270
f 164 288 177
f 288 120 177
f 177 120 222
f 198 24 177
f 24 215 177
f 177 215 164
f 61 266 177
f 266 143 177
f 177 143 198
f 44 92 177
f 92 89 177
f 177 89 61
f 189 303 177
f 303 138 177
f 177 138 44
f 204 225 177
f 225 193 177
f 177 193 189
f 298 14 177
f 14 291 177
f 177 291 204
f 184 227 177
f 227 69 177
f 177 69 298
f 311 213 177
f 213 233 177
f 177 233 184
f 54 134 177
f 134 70 177
f 177 70 311
f 241 149 177
f 149 279 177
f 177 279 54
f 152 37 177
f 37 52 177
f 177 52 241
f 12 210 177
f 210 125 177
f 177 125 152
f 178 112 177
f 112 126 177
f 177 126 12
f 236 280 177
f 280 49 177
f 177 49 178
f 168 170 177
f 170 53 177
f 177 53 236
f 6 103 177
f 103 312 177
f 177 312 168
f 28 248 177
f 248 60 177
f 177 60 6
f 83 124 177
f 124 22 177
f 177 22 28
f 308 153 177
f 153 141 177
f 177 141 83
f 34 136 177
f 136 161 177
f 177 161 308
f 144 32 177
f 32 82 177
f 177 82 34
f 86 91 177
f 91 221 177
f 177 221 144
f 105 94 177
f 94 135 177
f 177 135 86
f 216 98 177
f 98 234 177
f 177 234 105
f 150 3 177
f 3 111 177
f 177 111 216
f 293 88 177
f 88 186 177
f 177 186 150
f 18 261 177
f 261 263 177
f 177 263 293
f 194 41 177
f 41 217 177
f 177 217 18
f 10 294 15
f 294 4 15
f 15 4 67
f 4 74 67
f 67 74 122
f 74 115 122
f 122 115 108
f 115 114 108
f 130 114 78
f 114 115 78
f 272 36 130
f 36 114 130
f 74 192 115
f 192 78 115
f 39 294 272
f 294 36 272
f 11 4 39
f 4 294 39
f 4 11 74
f 11 192 74
f 15 8 10
f 8 40 10
f 8 15 175
f 15 67 175
f 10 40 27
f 40 252 27
f 175 67 84
f 67 122 84
f 27 252 108
f 252 131 108
f 108 131 122
f 131 84 122
f 190 5 78
f 5 206 78
f 78 206 130
f 50 195 11
f 195 244 11
f 11 244 151
f 228 231 130
f 292 76 39
f 76 30 39
f 39 30 132
f 158 174 39
f 174 276 39
f 276 104 39
f 104 250 39
f 39 250 11
f 250 180 11
f 11 180 50
f 305 43 78
f 43 283 78
f 78 283 172
f 206 249 130
f 249 99 130
f 130 99 267
f 231 260 130
f 260 240 130
f 130 240 9
f 9 58 130
f 58 23 130
f 130 23 137
f 151 16 11
f 16 277 11
f 11 277 300
f 290 66 192
f 85 78 45
f 78 139 45
f 229 309 78
f 309 73 78
f 78 73 305
f 267 182 130
f 182 281 130
f 130 281 100
f 137 265 130
f 265 224 130
f 130 224 275
f 132 119 39
f 119 209 39
f 39 209 163
f 77 156 39
f 156 257 39
f 39 257 129
f 129 148 39
f 148 200 39
f 39 200 158
f 113 235 11
f 11 97 1
f 1 197 11
f 197 208 11
f 11 208 157
f 172 301 78
f 301 302 78
f 78 302 255
f 100 154 130
f 154 128 130
f 130 128 87
f 87 203 130
f 203 31 130
f 130 31 228
f 173 96 272
f 96 307 272
f 187 101 11
f 101 90 11
f 11 90 97
f 192 66 78
f 66 47 78
f 78 47 139
f 85 297 78
f 297 25 78
f 78 25 242
f 242 264 78
f 264 107 78
f 78 107 229
f 255 273 78
f 273 258 78
f 78 258 190
f 163 38 39
f 38 201 39
f 39 201 116
f 116 79 39
f 79 147 39
f 39 147 77
f 235 199 11
f 199 165 11
f 11 165 187
f 256 21 192
f 21 118 192
f 188 51 192
f 51 245 192
f 275 247 130
f 247 7 130
f 130 7 272
f 7 109 272
f 272 109 173
f 307 223 272
f 223 287 272
f 272 287 123
f 160 243 272
f 243 56 272
f 272 56 162
f 300 29 11
f 29 253 11
f 11 253 113
f 269 185 192
f 245 246 192
f 246 75 192
f 192 75 290
f 123 81 272
f 81 196 272
f 272 196 160
f 162 121 272
f 121 218 272
f 272 218 59
f 46 140 272
f 140 55 272
f 272 55 39
f 55 71 39
f 39 71 292
f 157 205 11
f 205 102 11
f 11 102 192
f 102 2 192
f 192 2 256
f 192 306 214
f 59 285 272
f 285 278 272
f 272 278 95
f 95 181 272
f 181 179 272
f 272 179 46
f 118 238 192
f 238 146 192
f 192 146 304
f 185 63 192
f 63 268 192
f 192 268 306
f 214 57 192
f 57 176 192
f 192 176 188
f 304 35 192
f 35 237 192
f 192 237 269
f 252 40 131
f 40 8 131
f 131 8 84
f 8 175 84
f 27 36 10
f 36 294 10
f 108 114 27
f 114 36 27