# https://github.com/mikedh/trimesh
v 0.0312600064 -0.0301736116 0.0840151024
v 0.034703769599999996 -0.0199733281 0.1022341061
v 0.0305503487 -0.0237254715 0.08442481989999999
v 0.0362544894 -0.029191761 0.1013387966
v 0.037398860400000004 -0.0176075399 0.100678091
v 0.0324518394 -0.0298434067 0.08332699780000001
v 0.0322671866 -0.0175351632 0.083433609
v 0.033997209 -0.0185865164 0.08243476870000001
v 0.032681138500000005 -0.0297418118 0.08319461820000001
v 0.034819071199999996 -0.0276591992 0.1021675301
v 0.0341094136 -0.0212110591 0.1025772572
v 0.0249212408 -0.023696253299999998 0.08767478940000001
v 0.0313101816 -0.0172849619 0.08398612979999999
v 0.0335962104 -0.0182591844 0.0826662922
v 0.0351469302 -0.027477617300000003 0.08177098270000001
v 0.0394430708 -0.032961607000000004 0.0994978619
v 0.0353114867 -0.020257704300000002 0.0816759777
v 0.0337160945 -0.024544916200000003 0.10280433650000001
v 0.040060184000000006 -0.0172849619 0.09914157870000001
v 0.03517596 -0.020021200200000002 0.0817542267
v 0.029790513500000004 -0.0301659846 0.0848635101
v 0.0350044655 -0.019525011800000002 0.1020604992
v 0.0348462319 -0.0279259348 0.0819445896
v 0.0346747374 -0.027429747600000002 0.1022508621
v 0.036134603 -0.022906031599999998 0.0812007523
v 0.0441879534 -0.0205008101 0.09675841330000001
v 0.0288335084 -0.0299157834 0.08541604039999999
v 0.034539210800000004 -0.0271932411 0.1023291111
v 0.0344127464 -0.0269501352 0.1024021244
v 0.0357412838 -0.0262398863 0.0814278316
v 0.037169559 -0.0177091336 0.1008104801
v 0.0350316262 -0.0197917461 0.08183755870000001
v 0.030821168399999998 -0.0172329998 0.084268465
v 0.0358534884 -0.0288644314 0.10157031059999999
v 0.0346834659 -0.0281383085 0.0820385647
v 0.025002365100000003 -0.0248253989 0.08762795450000001
v 0.0400100064 -0.0301736116 0.0991705418
v 0.0254379487 -0.026445980100000002 0.0873764706
v 0.0352842974 -0.0272425294 0.08169167520000001
v 0.038590691 -0.0172773325 0.09998998640000001
v 0.0360405469 -0.0251608443 0.0812550545
v 0.0252693724 -0.0214749074 0.08747379300000001
v 0.028148450800000002 -0.0296040654 0.0858115578
v 0.0337523675 -0.0248253989 0.10278339389999999
v 0.042747209 -0.0185865164 0.0975902271
v 0.0414311385 -0.0297418118 0.0983500576
v 0.0336712408 -0.023696253299999998 0.1028302288
v 0.0341880536 -0.018765018 0.0823245907
v 0.034187951 -0.026445980100000002 0.10253190990000001
v 0.030770607000000002 -0.0302204967 0.08429765700000001
v 0.0438969302 -0.027477617300000003 0.09692643170000001
v 0.030034530099999998 -0.0301981258 0.0847226334
v 0.044061486700000006 -0.020257704300000002 0.0968314171
v 0.034334664300000005 -0.0285374689 0.0822399521
v 0.0249448657 -0.023129859000000003 0.08766115190000001
v 0.04392596 -0.020021200200000002 0.09690967560000001
v 0.044884603099999996 -0.022906031599999998 0.0963562012
v 0.038540513500000005 -0.0301659846 0.10001895899999999
v 0.0449294543 -0.023754694500000003 0.0963302994
v 0.0435962319 -0.0279259348 0.0971000385
v 0.0291178703 -0.0174394572 0.08525185589999999
v 0.0391576266 -0.014489338400000001 0.0996626663
v 0.0361752009 -0.023471143200000003 0.0811773109
v 0.0310157513 -0.030203218500000004 0.0841561222
v 0.044661319199999994 -0.0257079077 0.09648510930000001
v 0.033694867999999996 -0.023129859000000003 0.1028165913
v 0.0378678727 -0.0174394572 0.1004073143
v 0.0444912838 -0.0262398863 0.0965832806
v 0.04378162620000001 -0.0197917461 0.09699299809999999
v 0.0293566918 -0.0173732877 0.08511398319999999
v 0.0448015046 -0.022347157000000003 0.09640417100000001
v 0.032031712500000004 -0.0174545813 0.0835695553
v 0.036127994000000004 -0.0246028543 0.081204567
v 0.0395711684 -0.0172329998 0.09942390440000001
v 0.041201837000000005 -0.0298434067 0.0984824371
v 0.0331271362 -0.029504478 0.0829371166
v 0.0423462081 -0.0182591844 0.09782173159999999
v 0.044790547 -0.0251608443 0.09641049389999999
v 0.034019372400000004 -0.0214749074 0.10262923239999999
v 0.0360895419 -0.024882950799999998 0.08122676849999999
v 0.036172997900000003 -0.024038188500000002 0.0811785793
v 0.042938053600000005 -0.018765018 0.0974800396
v 0.0359113144 -0.0257079077 0.08132967
v 0.0337998008 -0.0184177983 0.08254875180000001
v 0.0252520632 -0.025921123 0.08748378750000001
v 0.025174162299999997 -0.0256521749 0.0875287628
v 0.036051499800000004 -0.022347157000000003 0.0812487316
v 0.0375835061 -0.0299157834 0.1005714798
v 0.0387845301 -0.0301981258 0.0998780727
v 0.035981099600000004 -0.0254360056 0.0812893772
v 0.035531742500000005 -0.026752727 0.0815488052
v 0.0345128369 -0.0283422828 0.08213707919999999
v 0.032499396800000004 -0.0176275265 0.0832995415
v 0.0434334635 -0.0281383085 0.09719400410000001
v 0.0397657513 -0.030203218500000004 0.0993115711
v 0.044925200900000004 -0.023471143200000003 0.0963327503
v 0.0273423528 -0.018384280200000002 0.0862769604
v 0.0381066918 -0.0173732877 0.1002694225
v 0.0279286694 -0.0294774938 0.08593844410000001
v 0.026728720600000002 -0.028497986800000003 0.0866312408
v 0.0260998821 -0.0197453821 0.0869942951
v 0.044877994000000004 -0.0246028543 0.0963600159
v 0.0368984484 -0.0296040654 0.10096700670000001
v 0.028194320199999998 -0.0178221834 0.08578507419999999
v 0.0333868193 -0.0181109762 0.0827871895
v 0.0348787617 -0.0195697784 0.0819258118
v 0.0251064992 -0.0253795552 0.08756782530000001
v 0.0335535264 -0.029223163099999998 0.0826909351
v 0.035478723 -0.028497986800000003 0.10178668020000001
v 0.0395206046 -0.0302204967 0.0994530964
v 0.0448395419 -0.024882950799999998 0.0963822079
v 0.029307279500000002 -0.0300650096 0.0851425076
v 0.0491576219 -0.014489338400000001 0.1169831753
v 0.0449229979 -0.024038188500000002 0.0963340282
v 0.0443913627 -0.0264989471 0.0966409683
v 0.0283728027 -0.0297194481 0.0856820297
v 0.032218921100000006 -0.029933357200000003 0.08346147540000001
v 0.0430846619 -0.0285374689 0.09739539150000001
v 0.0324446106 -0.028486263799999998 0.1035384274
v 0.0395522713 -0.0181312954 0.12021943090000001
v 0.031502914400000005 -0.0301317334 0.08387485500000001
v 0.0340020632 -0.025921123 0.10263923650000001
v 0.0347176599 -0.0193557239 0.08201882360000001
v 0.0339241623 -0.0256521749 0.1026842117
v 0.0253400468 -0.026185893999999998 0.0874329853
v 0.044731099600000004 -0.0254360056 0.0964448261
v 0.037122805099999996 -0.0297194481 0.10083746910000001
v 0.0269514131 -0.0187274516 0.0865026665
v 0.035555112300000004 -0.0207500553 0.08153532029999999
v 0.0380572819 -0.0300650096 0.10029794689999999
v 0.0442817426 -0.026752727 0.0967042637
v 0.043262836900000004 -0.0283422828 0.0972925186
v 0.029547944 -0.030121586300000003 0.0850035667
v 0.0412493968 -0.0176275265 0.0984549809
v 0.044034292700000005 -0.0272425294 0.0968471241
v 0.0407817101 -0.0174545813 0.0987249947
v 0.027143642899999997 -0.0185509396 0.08639168740000001
v 0.0354126477 -0.027000746699999998 0.0816175747
v 0.0418771339 -0.029504478 0.098092556
v 0.0356413579 -0.0264989471 0.08148552889999999
v 0.033957057000000006 -0.028900005800000003 0.082457962
v 0.0366786694 -0.0294774938 0.1010938931
v 0.0315527558 -0.0173293614 0.08384608269999999
v 0.0315522694 -0.0181312954 0.1063630199
v 0.0348498821 -0.0197453821 0.10214974399999999
v 0.0249404549 -0.0242628717 0.0876636982
v 0.0323018884 -0.019250130700000003 0.1036208248
v 0.0481219459 -0.012180305700000001 0.11527172090000001
v 0.0341492867 -0.0287234926 0.08234697340000001
v 0.0345486211 -0.0191499865 0.0821164131
v 0.035760652999999996 -0.0212650514 0.08141665460000001
v 0.0421368194 -0.0181109762 0.09794262890000001
v 0.0424446082 -0.028486263799999998 0.1208589363
v 0.027757709 -0.0180817544 0.0860371494
v 0.0369443202 -0.0178221834 0.1009405136
v 0.0436287618 -0.0195697784 0.0970812607
v 0.030575654499999997 -0.0172255397 0.0844102097
v 0.0425497984 -0.0184177983 0.0977041912
v 0.0397306752 -0.0296764612 0.1201164246
v 0.0338564992 -0.0253795552 0.1027232742
v 0.042303526400000006 -0.029223163099999998 0.09784638400000001
v 0.0263830399 -0.0280952215 0.0868308163
v 0.030525042999999998 -0.030225408100000004 0.08443943020000001
v 0.0295977854 -0.017319213200000003 0.0849747849
v 0.0336904573 -0.0242628717 0.1028191376
v 0.0333429884 -0.0293691921 0.0828124905
v 0.0432986235 -0.0191499865 0.097271862
v 0.0409689211 -0.029933357200000003 0.0986169147
v 0.0361602425 -0.023188076 0.0811859417
v 0.0275471735 -0.0182277834 0.0861587048
v 0.027713880500000003 -0.029339971500000003 0.0860624599
v 0.0329063797 -0.029628763199999998 0.0830645657
v 0.034090046799999996 -0.026185893999999998 0.1025884342
v 0.0443051123 -0.0207500553 0.0966907692
v 0.0350008177 -0.0277055645 0.0818553448
v 0.0256880497 -0.020450200999999998 0.0872320652
v 0.0360923504 -0.018384280200000002 0.1014324093
v 0.040121943900000005 -0.012180305700000001 0.10141531940000001
v 0.044162647799999996 -0.027000746699999998 0.0967730141
v 0.044744203 -0.022071390200000002 0.0964372635
v 0.0358936429 -0.0185509396 0.1015471268
v 0.0423018861 -0.019250130700000003 0.12094134329999999
v 0.0317306733 -0.0296764612 0.10626001360000001
v 0.0404787564 -0.0352706432 0.10120931629999999
v 0.0255455851 -0.0267008901 0.08731431960000001
v 0.0344380521 -0.020450200999999998 0.10238751410000001
v 0.040302755899999994 -0.0173293614 0.0990015221
v 0.026587862900000002 -0.0191086638 0.0867125607
v 0.042899286700000004 -0.0287234926 0.0975024223
v 0.0327278947 -0.0177314985 0.08316761019999999
v 0.0445106531 -0.0212650514 0.096572094
v 0.0265520739 -0.0283009601 0.08673322680000001
v 0.0288817763 -0.0175175893 0.0853881645
v 0.036507709 -0.0180817544 0.10119258880000001
v 0.0393256545 -0.0172255397 0.0995656586
v 0.040252912099999996 -0.0301317334 0.09903030400000001
v 0.035133039899999996 -0.0280952215 0.1019862652
v 0.043467657500000006 -0.0193557239 0.0971742725
v 0.0359941983 -0.022071390200000002 0.0812818146
v 0.039275043 -0.030225408100000004 0.09959487920000001
v 0.0383477854 -0.017319213200000003 0.1001302338
v 0.0373513054 -0.02982342 0.1007055473
v 0.0262219357 -0.0278811669 0.0869238281
v 0.042092988399999996 -0.0293691921 0.09796793940000001
v 0.025459337199999998 -0.0209519982 0.08736411090000001
v 0.024927701899999998 -0.023412759300000002 0.0876710606
v 0.0357014107 -0.0187274516 0.1016581154
v 0.044910242499999996 -0.023188076 0.09634139060000001
v 0.0382979416 -0.030121586300000003 0.10015900609999999
v 0.0343719768 -0.0189529598 0.08221839900000001
v 0.0279735636 -0.0179464686 0.0859125328
v 0.0462988114 -0.0282008171 0.0955397034
v 0.0427070546 -0.028900005800000003 0.0976134014
v 0.0562988114 -0.0282008171 0.1128602123
v 0.031744008 -0.0300776577 0.0837356567
v 0.025816404799999998 -0.020208416 0.0871579647
v 0.0484787535 -0.0352706432 0.1150657272
v 0.0286013007 -0.02982342 0.085550108
v 0.042508347 -0.0290666676 0.0977281284
v 0.0300849485 -0.0172477269 0.0846935177
v 0.025119597900000002 -0.0220149422 0.0875602627
v 0.031793415500000005 -0.017385937 0.08370714189999999
v 0.034295585100000005 -0.0267008901 0.1024697685
v 0.0250491976 -0.0251037884 0.0876009178
v 0.0359265351 -0.0217987728 0.08132087710000001
v 0.025189383 -0.0217430377 0.08751996990000001
v 0.0358486342 -0.0215298223 0.08136585240000001
v 0.0353020739 -0.0283009601 0.1018886757
v 0.0267660355 -0.0189134777 0.0866096973
v 0.0376317763 -0.0175175893 0.1005436134
v 0.030330092899999998 -0.0172304511 0.08455199240000001
v 0.0331720256 -0.0179734528 0.0829111958
v 0.0488700223 -0.0177744853 0.09636461260000001
v 0.036297171100000004 -0.0182277834 0.10131415369999999
v 0.036050899 -0.0290331483 0.101456337
v 0.033758342200000006 -0.0290666676 0.0825726795
v 0.0364638781 -0.029339971500000003 0.10121789930000001
v 0.056156089299999996 -0.0189646816 0.11294260980000001
v 0.0349719357 -0.0278811669 0.10207927700000001
v 0.041656377300000005 -0.029628763199999998 0.09822001459999999
v 0.0342093372 -0.0209519982 0.10251955990000002
v 0.0336777019 -0.023412759300000002 0.10282650950000001
v 0.0570484281 -0.029319651100000003 0.1101180172
v 0.0290689849 -0.0299963665 0.08528008460000001
v 0.04192202799999999 -0.0179734528 0.09806663510000001
v 0.025568952500000002 -0.0206982183 0.0873008251
v 0.0367235636 -0.0179464686 0.10106797220000001
v 0.0378189873 -0.0299963665 0.10043553350000001
v 0.0319828271 -0.030011489400000004 0.0835977745
v 0.036155831799999996 -0.0243210888 0.081188488
v 0.027300894200000002 -0.0290331483 0.08630089760000001
v 0.034318954900000004 -0.0206982183 0.1024562836
v 0.0353378605 -0.0191086638 0.10186800959999999
v 0.041477892499999995 -0.0177314985 0.09832305910000001
v 0.025011153199999997 -0.0225679946 0.0876228714
v 0.040543415500000006 -0.017385937 0.0988625813
v 0.0338695979 -0.0220149422 0.10271571160000001
v 0.0390295338 -0.0302179456 0.09973662380000001
v 0.0310661673 -0.017252819500000002 0.0841270161
v 0.0337991976 -0.0251037884 0.10275635720000001
v 0.0446765352 -0.0217987728 0.096476326
v 0.0269126439 -0.0286859298 0.08652504920000001
v 0.040732829500000005 -0.030011489400000004 0.0987532234
v 0.026254467899999998 -0.019525011800000002 0.08690505030000001
v 0.0259247398 -0.027429747600000002 0.0870954132
v 0.033939383 -0.0217430377 0.10267541890000001
v 0.044598634199999994 -0.0215298223 0.09652129170000001
v 0.0490484261 -0.029319651100000003 0.0962616158
v 0.0337611556 -0.0225679946 0.1027783203
v 0.049443075600000004 -0.032961607000000004 0.1168183708
v 0.0437508131 -0.0277055645 0.0970107841
v 0.0355160355 -0.0189134777 0.10176513670000001
v 0.0250601506 -0.0222901034 0.087594595
v 0.0568700194 -0.0177744853 0.1102210236
v 0.024972701000000003 -0.0228480911 0.0876450729
v 0.035831325000000004 -0.025976040399999997 0.0813758469
v 0.0329522466 -0.017846880000000002 0.0830380821
v 0.0390800929 -0.0172304511 0.0997074318
v 0.043121974400000006 -0.0189529598 0.097373848
v 0.0356627488 -0.021004962900000004 0.0814731789
v 0.0361794591 -0.023754694500000003 0.0811748505
v 0.027504489400000002 -0.029191761 0.08618334770000001
v 0.024925494200000002 -0.0239798045 0.08767232890000001
v 0.0284195613 -0.0177091336 0.08565503120000001
v 0.0286488604 -0.0176075399 0.0855226421
v 0.030279529100000004 -0.0302179456 0.0845811844
v 0.0337227034 -0.0228480911 0.1028005219
v 0.041702249000000004 -0.017846880000000002 0.09819353100000001
v 0.040494005599999994 -0.0300776577 0.0988911057
v 0.0260690712 -0.0276591992 0.08701209070000002
v 0.0253594136 -0.0212110591 0.08742180819999999
v 0.0345664024 -0.020208416 0.1023134041
v 0.0298406934 -0.0172773325 0.08483453750000002
v 0.0388349461 -0.0172477269 0.0998489666
v 0.0336754965 -0.0239798045 0.10282777790000001
v 0.0448483348 -0.0226255465 0.0963771343
v 0.035167233900000004 -0.0193126392 0.10196652410000001
v 0.024966094499999997 -0.024544916200000003 0.0876488876
v 0.0449058319 -0.0243210888 0.09634394650000001
v 0.0461560846 -0.0189646816 0.0956221008
v 0.0354379534 -0.0205008101 0.0816029644
v 0.025789210800000004 -0.0271932411 0.0871736622
v 0.0410171914 -0.0175351632 0.09858904839999999
v 0.0398161673 -0.017252819500000002 0.09928245540000001
v 0.0259537673 -0.0199733281 0.08707865719999999
v 0.025662746400000002 -0.0269501352 0.0872466755
v 0.035662643900000006 -0.0286859298 0.1016804981
v 0.0271034884 -0.0288644314 0.0864148617
v 0.036098330000000005 -0.0226255465 0.08122169489999999
v 0.0264172291 -0.0193126392 0.0868110847
v 0.044581325100000006 -0.025976040399999997 0.0965312958
v 0.033810150600000005 -0.0222901034 0.1027500343
v 0.0444127489 -0.021004962900000004 0.0966286182
f 302 29 306
f 29 223 306
f 306 223 185
f 223 49 185
f 185 49 38
f 49 173 38
f 38 173 125
f 173 122 125
f 125 122 85
f 122 124 85
f 85 124 86
f 124 160 86
f 86 160 107
f 160 260 107
f 107 260 224
f 260 44 224
f 224 44 36
f 44 18 36
f 36 18 298
f 18 165 298
f 298 165 146
f 165 295 146
f 146 295 283
f 295 47 283
f 283 47 12
f 47 242 12
f 12 242 206
f 242 66 206
f 206 66 55
f 66 287 55
f 55 287 275
f 287 269 275
f 275 269 255
f 269 312 255
f 255 312 273
f 312 257 273
f 273 257 221
f 257 266 221
f 221 266 226
f 266 79 226
f 226 79 42
f 79 11 42
f 42 11 291
f 11 241 291
f 291 241 205
f 241 252 205
f 205 252 246
f 252 186 246
f 246 186 176
f 186 292 176
f 176 292 216
f 292 2 216
f 216 2 305
f 2 145 305
f 305 145 101
f 145 22 101
f 101 22 264
f 22 297 264
f 264 297 310
f 297 253 310
f 310 253 188
f 253 272 188
f 188 272 229
f 272 207 229
f 229 207 128
f 207 181 128
f 128 181 137
f 181 177 137
f 137 177 97
f 177 234 97
f 97 234 170
f 234 194 170
f 170 194 154
f 194 247 154
f 154 247 211
f 247 155 211
f 211 155 104
f 155 31 104
f 104 31 284
f 31 5 284
f 284 5 285
f 5 230 285
f 285 230 193
f 230 67 193
f 193 67 61
f 67 98 61
f 61 98 70
f 98 201 70
f 70 201 164
f 201 40 164
f 164 40 293
f 40 294 293
f 293 294 220
f 294 278 220
f 220 278 231
f 278 195 231
f 231 195 157
f 195 74 157
f 157 74 33
f 74 304 33
f 33 304 259
f 304 19 259
f 259 19 13
f 19 187 13
f 13 187 143
f 187 256 143
f 143 256 222
f 256 136 222
f 222 136 72
f 136 303 72
f 72 303 7
f 303 134 7
f 7 134 93
f 134 254 93
f 93 254 190
f 254 288 190
f 190 288 277
f 288 245 277
f 277 245 232
f 245 152 232
f 232 152 105
f 152 77 105
f 105 77 14
f 77 158 14
f 14 158 84
f 158 45 84
f 84 45 8
f 45 82 8
f 8 82 48
f 82 279 48
f 48 279 210
f 279 167 210
f 210 167 150
f 167 198 150
f 150 198 123
f 198 156 123
f 123 156 106
f 156 69 106
f 106 69 32
f 69 56 32
f 32 56 20
f 56 53 20
f 20 53 17
f 53 26 17
f 17 26 301
f 26 174 301
f 301 174 129
f 174 313 129
f 129 313 280
f 313 191 280
f 280 191 151
f 191 267 151
f 151 267 227
f 267 261 227
f 227 261 225
f 261 180 225
f 225 180 199
f 180 71 199
f 199 71 87
f 71 296 87
f 87 296 309
f 296 57 309
f 309 57 25
f 57 208 25
f 25 208 169
f 208 96 169
f 169 96 63
f 96 59 63
f 63 59 281
f 59 114 281
f 281 114 81
f 114 299 81
f 81 299 250
f 299 102 250
f 250 102 73
f 102 111 73
f 73 111 80
f 111 78 80
f 80 78 41
f 78 126 41
f 41 126 90
f 126 65 90
f 90 65 83
f 65 311 83
f 83 311 276
f 311 68 276
f 276 68 30
f 68 115 30
f 30 115 140
f 115 131 140
f 140 131 91
f 131 179 91
f 91 179 138
f 179 135 138
f 138 135 39
f 135 51 39
f 39 51 15
f 51 271 15
f 15 271 175
f 271 60 175
f 175 60 23
f 60 94 23
f 23 94 35
f 94 132 35
f 35 132 92
f 132 118 92
f 92 118 54
f 118 189 54
f 54 189 149
f 189 213 149
f 149 213 141
f 213 219 141
f 141 219 236
f 219 161 236
f 236 161 108
f 161 204 108
f 108 204 166
f 204 139 166
f 166 139 76
f 139 240 76
f 76 240 172
f 240 46 172
f 172 46 9
f 46 75 9
f 9 75 6
f 75 168 6
f 6 168 117
f 168 263 117
f 117 263 249
f 263 289 249
f 249 289 215
f 289 196 215
f 215 196 121
f 196 37 121
f 121 37 1
f 37 95 1
f 1 95 64
f 95 110 64
f 64 110 50
f 110 200 50
f 50 200 163
f 200 258 163
f 163 258 286
f 258 89 286
f 286 89 52
f 89 58 52
f 52 58 21
f 58 209 21
f 21 209 133
f 209 130 133
f 133 130 112
f 130 248 112
f 112 248 244
f 248 88 244
f 244 88 27
f 88 202 27
f 27 202 218
f 202 127 218
f 218 127 116
f 127 103 116
f 116 103 43
f 103 142 43
f 43 142 99
f 142 237 99
f 99 237 171
f 237 4 171
f 171 4 282
f 4 235 282
f 282 235 251
f 235 34 251
f 251 34 308
f 34 307 308
f 308 307 262
f 307 109 262
f 262 109 100
f 109 228 100
f 100 228 192
f 228 197 192
f 192 197 162
f 197 239 162
f 162 239 203
f 239 10 203
f 203 10 290
f 10 24 290
f 290 24 265
f 24 28 265
f 265 28 302
f 28 29 302
f 32 20 3
f 20 17 3
f 3 17 301
f 150 123 3
f 123 106 3
f 3 106 32
f 8 48 3
f 48 210 3
f 3 210 150
f 105 14 3
f 14 84 3
f 3 84 8
f 190 277 3
f 277 232 3
f 3 232 105
f 72 7 3
f 7 93 3
f 3 93 190
f 13 143 3
f 143 222 3
f 3 222 72
f 157 33 3
f 33 259 3
f 3 259 13
f 293 220 3
f 220 231 3
f 3 231 157
f 61 70 3
f 70 164 3
f 3 164 293
f 284 285 3
f 285 193 3
f 3 193 61
f 154 211 3
f 211 104 3
f 3 104 284
f 137 97 3
f 97 170 3
f 3 170 154
f 188 229 3
f 229 128 3
f 3 128 137
f 101 264 3
f 264 310 3
f 3 310 188
f 176 216 3
f 216 305 3
f 3 305 101
f 291 205 3
f 205 246 3
f 3 246 176
f 221 226 3
f 226 42 3
f 3 42 291
f 275 255 3
f 255 273 3
f 3 273 221
f 12 206 3
f 206 55 3
f 3 55 275
f 298 146 3
f 146 283 3
f 3 283 12
f 107 224 3
f 224 36 3
f 3 36 298
f 125 85 3
f 85 86 3
f 3 86 107
f 306 185 3
f 185 38 3
f 3 38 125
f 290 265 3
f 265 302 3
f 3 302 306
f 192 162 3
f 162 203 3
f 3 203 290
f 308 262 3
f 262 100 3
f 3 100 192
f 171 282 3
f 282 251 3
f 3 251 308
f 116 43 3
f 43 99 3
f 3 99 171
f 244 27 3
f 27 218 3
f 3 218 116
f 21 133 3
f 133 112 3
f 3 112 244
f 163 286 3
f 286 52 3
f 3 52 21
f 1 64 3
f 64 50 3
f 3 50 163
f 249 215 3
f 215 121 3
f 3 121 1
f 9 6 3
f 6 117 3
f 3 117 249
f 166 76 3
f 76 172 3
f 3 172 9
f 141 236 3
f 236 108 3
f 3 108 166
f 92 54 3
f 54 149 3
f 3 149 141
f 175 23 3
f 23 35 3
f 3 35 92
f 138 39 3
f 39 15 3
f 3 15 175
f 30 140 3
f 140 91 3
f 3 91 138
f 90 83 3
f 83 276 3
f 3 276 30
f 73 80 3
f 80 41 3
f 3 41 90
f 281 81 3
f 81 250 3
f 3 250 73
f 25 169 3
f 169 63 3
f 3 63 281
f 199 87 3
f 87 309 3
f 3 309 25
f 151 227 3
f 227 225 3
f 3 225 199
f 301 129 3
f 129 280 3
f 3 280 151
f 243 268 274
f 268 233 274
f 274 233 148
f 233 178 148
f 148 178 120
f 178 144 120
f 120 144 159
f 144 183 159
f 119 183 147
f 183 144 147
f 16 184 119
f 184 183 119
f 178 62 144
f 62 147 144
f 212 268 16
f 268 184 16
f 300 233 212
f 233 268 212
f 233 300 178
f 300 62 178
f 274 238 243
f 238 214 243
f 238 274 113
f 274 148 113
f 243 214 217
f 214 270 217
f 113 148 182
f 148 120 182
f 217 270 159
f 270 153 159
f 159 153 120
f 153 182 120
f 114 59 212
f 71 180 300
f 180 261 300
f 300 261 267
f 212 59 300
f 59 96 300
f 300 96 208
f 51 135 212
f 208 57 300
f 57 296 300
f 300 296 71
f 51 212 271
f 65 126 212
f 126 78 212
f 212 78 111
f 256 187 62
f 272 253 147
f 253 297 147
f 44 119 18
f 119 165 18
f 135 179 212
f 179 131 212
f 212 131 115
f 111 102 212
f 102 299 212
f 212 299 114
f 267 191 300
f 191 313 300
f 300 313 174
f 279 300 167
f 300 198 167
f 79 266 147
f 266 257 147
f 147 257 312
f 119 34 235
f 115 68 212
f 68 311 212
f 212 311 65
f 174 26 300
f 26 53 300
f 300 53 56
f 279 82 300
f 82 45 300
f 300 45 158
f 187 19 62
f 19 304 62
f 62 304 74
f 74 195 62
f 195 278 62
f 62 278 294
f 98 67 62
f 67 230 62
f 297 22 147
f 22 145 147
f 147 145 2
f 2 292 147
f 292 186 147
f 147 186 252
f 252 241 147
f 241 11 147
f 147 11 79
f 44 260 119
f 260 160 119
f 119 160 124
f 235 4 119
f 4 237 119
f 119 237 16
f 237 142 16
f 142 103 16
f 103 127 16
f 16 127 202
f 196 289 16
f 289 263 16
f 16 263 168
f 56 69 300
f 69 156 300
f 300 156 198
f 158 77 300
f 77 152 300
f 300 152 62
f 152 245 62
f 245 288 62
f 288 254 62
f 62 254 134
f 134 303 62
f 303 136 62
f 62 136 256
f 230 5 62
f 5 31 62
f 62 31 155
f 312 269 147
f 269 287 147
f 147 287 66
f 239 197 119
f 197 228 119
f 202 88 16
f 88 248 16
f 16 248 130
f 130 209 16
f 209 58 16
f 16 58 89
f 212 219 213
f 294 40 62
f 40 201 62
f 62 201 98
f 155 247 62
f 247 194 62
f 62 194 147
f 194 234 147
f 147 234 177
f 177 181 147
f 181 207 147
f 147 207 272
f 66 242 147
f 242 47 147
f 147 47 119
f 47 295 119
f 119 295 165
f 124 122 119
f 122 173 119
f 119 173 49
f 228 109 119
f 109 307 119
f 119 307 34
f 89 258 16
f 258 200 16
f 16 200 110
f 110 95 16
f 95 37 16
f 16 37 196
f 213 189 212
f 189 118 212
f 212 118 132
f 168 75 16
f 75 46 16
f 16 46 240
f 240 139 16
f 139 204 16
f 16 204 212
f 204 161 212
f 212 161 219
f 132 94 212
f 94 60 212
f 212 60 271
f 49 223 119
f 223 29 119
f 119 29 28
f 28 24 119
f 24 10 119
f 119 10 239
f 214 238 270
f 238 113 270
f 270 113 153
f 113 182 153
f 217 184 243
f 184 268 243
f 159 183 217
f 183 184 217