# https://github.com/mikedh/trimesh
v -0.0097178624 0.0512359905 0.1076736832
v -0.0085317377 0.052662549 0.1069888783
v -0.000832333 0.0435505581 0.1227508736
v 0.008509465400000001 0.0442417955 0.1173573875
v -0.0001583875 0.0522986889 0.12236177440000001
v 0.0062305533 0.0417300558 0.1186731243
v 0.0031397885 0.0410255575 0.12045757289999999
v -0.0019855875 0.0472259283 0.1234167099
v 0.0082544124 0.051220474200000005 0.1175046444
v -0.0072731908 0.041498403499999996 0.1062622547
v -0.009418343300000001 0.051685357099999996 0.10750075340000001
v -0.0060808458 0.0539028788 0.1055738449
v -0.0030173451000000003 0.0423750496 0.124012394
v 0.00038607240000000003 0.0488976002 0.1018401718
v 0.0090096628 0.0494455481 0.1170686054
v -0.0101083404 0.0445070267 0.10789913179999999
v -0.0058543117 0.0410568428 0.105443058
v 0.0004165363 0.0528299046 0.1220298481
v -0.0020937998 0.0420128679 0.1032719326
v -0.0014597136 0.050255589499999996 0.1231130981
v -0.0065762833 0.0412239313 0.10585989
v 0.0069826543 0.0423750496 0.1413329124
v -0.0016781074000000002 0.0526510191 0.1030319214
v -0.0005061394 0.051898303 0.12256255149999999
v -0.0019848723 0.047792978300000004 0.1234162998
v 0.0092470252 0.048057069800000005 0.1169315529
v -0.0023039508 0.0418660975 0.103393259
v -0.0019036439 0.04863802910000001 0.1233694077
v 0.0012670182999999998 0.05339499 0.1215388203
v 0.0026530021 0.041100392300000003 0.1207386208
v -0.00793311 0.0418755674 0.1066432571
v -0.0072580383 0.0535088253 0.1062535095
v -0.0009678624 0.0512359905 0.1228291321
v -0.0013023776000000002 0.0522858906 0.1028149986
v 0.0004336351 0.048619380000000004 0.1018127155
v -0.0036624161 0.0412190294 0.10417757030000001
v -0.0063217954 0.0538479567 0.10571296690000001
v 0.0014768092999999998 0.041498403499999996 0.1214176941
v 0.00046850200000000004 0.0466421843 0.10179258349999999
v -0.00012209 0.0444902277 0.10213356020000001
v 0.00021826200000000002 0.052662549 0.12214431760000001
v 0.0005177307 0.04749052050000001 0.101764164
v -0.0013583401 0.0445070267 0.1230545712
v -0.0006683433 0.051685357099999996 0.1226562023
v 0.0108102357 0.0434065437 0.1160290432
v 0.0026691538 0.0539028788 0.1207292938
v -0.0051114286 0.0474999905 0.1050141621
v 0.0028956878000000004 0.0410568428 0.1205985069
v 0.0021737164 0.0412239313 0.1210153389
v 0.0066561996 0.0420128679 0.118427372
v 0.006446049200000001 0.0418660975 0.118548708
v -0.010740587800000001 0.047509460399999995 0.1082641602
v -0.010100767100000001 0.0505097532 0.1078947544
v -0.0106913591 0.0483578014 0.1082357311
v 0.0208102345 0.0434065437 0.1333495522
v 0.007071892 0.0526510191 0.1181873798
v 0.0091360712 0.0488976002 0.11699562070000001
v -0.006560441 0.0537809563 0.1058507442
v -0.010656492200000001 0.04638060570000001 0.1082155991
v -0.0039010618 0.0411520243 0.1043153572
v -0.0089204795 0.0427140951 0.10721331599999999
v 0.0091836357 0.048619380000000004 0.11696816439999999
v 0.001491962 0.0535088253 0.12140894890000001
v 0.00081689 0.0418755674 0.1217987061
v -0.002289747 0.053124418300000004 0.10338505740000001
v -0.0029648191 0.0414911604 0.1037748146
v 0.009218502 0.0466421843 0.11694803240000001
v 0.0024282044 0.0538479567 0.1208684063
v 0.0092677307 0.04749052050000001 0.11691960330000001
v 0.007447621800000001 0.0522858906 0.11797044749999999
v -0.0079189063 0.0531338882 0.1066350555
v -0.010608928799999999 0.0461023808 0.1081881428
v -0.0085447497 0.0423489666 0.1069963837
v 0.0086279094 0.0444902277 0.11728900910000001
v 0.005087583 0.0412190294 0.11933300969999999
v -0.0036465739000000005 0.0537760496 0.1041684246
v -0.0081290573 0.0529871178 0.1067563915
v -0.0043685454 0.0539431381 0.1045852566
v -0.0041420114 0.0410971069 0.10445446970000001
v -0.000114517 0.050492954300000004 0.1021291924
v -0.0008045140000000001 0.0433146191 0.1025275612
v -0.0019905878 0.047509460399999995 0.1234195995
v -0.0029496663 0.0535015821 0.1037660599
v 0.0048489385 0.0411520243 0.1194707966
v -0.0013507671 0.0505097532 0.1230501938
v -0.0019413591 0.0483578014 0.12339117050000001
v 0.0021895593 0.0537809563 0.1210061932
v -0.0001704792 0.0427140951 0.12236876490000001
v 0.005785181499999999 0.0414911604 0.11893025400000001
v -0.0016911194 0.0423374367 0.10303944590000001
v -0.0019064922000000002 0.04638060570000001 0.12337104800000001
v -0.000504995 0.0437639904 0.1023546314
v 0.006460253 0.053124418300000004 0.11854050640000001
v -0.0041258593 0.0538995886 0.10444513320000001
v -0.010719881700000001 0.0469429111 0.1082522011
v -0.0027398754 0.0416049957 0.1036449432
v -0.0009667173 0.0431016779 0.10262120250000001
v 0.0004307866 0.046361951799999995 0.1018143559
v 0.0008310937 0.0531338882 0.1217904949
v 0.0005120152000000001 0.0472070074 0.1017674541
v -0.0104825193 0.045554437600000004 0.1081151581
v 0.0002052503 0.0423489666 0.1221518326
v -1.31435e-05 0.0447443962 0.1020706558
v -0.0018893931 0.042170076400000006 0.1031539154
v -0.0018589291 0.0461023808 0.12334358220000001
v 0.0006209427 0.0529871178 0.12191183090000002
v 0.005103425900000001 0.0537760496 0.11932387350000001
v 0.0043814545 0.0539431381 0.1197407055
v 0.006466907200000001 0.0515934372 0.1416306782
v 0.0079454863 0.0433146191 0.1176830006
v 0.0046079886 0.0410971069 0.1196099091
v 0.0058003342 0.0535015821 0.1189215088
v 0.0086354827 0.050492954300000004 0.1172846317
v -0.0035330935000000003 0.0515934372 0.1243101692
v 0.0005127304 0.0477740574 0.1017670441
v -0.0046126456 0.0539744234 0.10472619059999999
v 0.0091807878 0.046361951799999995 0.11696980480000001
v -0.0097272698 0.0437795067 0.1076791096
v -0.0013144699 0.0427012968 0.10282197950000001
v -0.0006505084 0.043535533 0.1024386406
v -0.0006405244 0.0514494276 0.1024328804
v 0.0070588803000000006 0.0423374367 0.1181948853
v -0.007703411 0.053269925100000004 0.1065106392
v -0.0043848063 0.0410543728 0.10459464069999999
v -0.009982323100000001 0.0507581902 0.1078263664
v 0.0046241408 0.0538995886 0.1196005821
v -0.0019698817 0.0469429111 0.12340765
v 0.000470643 0.048339023599999996 0.1017913437
v 0.007783283 0.0431016779 0.1177766514
v 0.0092620158 0.0472070074 0.1169229031
v 0.0060101246 0.0416049957 0.11880038259999999
v -0.0007939715 0.0516708517 0.10252146720000001
v -0.0051196292 0.040999999 0.1050188923
v 0.0001810556 0.049714222 0.1019585419
v 0.0082450044 0.0437639904 0.1175100803
v -0.0087360645 0.0425267982 0.1071068382
v -0.0017325189999999999 0.045554437600000004 0.12327059750000001
v -0.00035943749999999995 0.050984449400000006 0.1022705936
v -0.00023233360000000003 0.050741787000000003 0.10219720840000002
v -0.0107184524 0.0480759382 0.1082513809
v 0.0068606066 0.042170076400000006 0.11830935480000002
v -0.010550900700000001 0.04582681660000001 0.1081546402
v -0.0009556368 0.0518843412 0.1026148129
v 0.0087368559 0.0447443962 0.1172261047
v -0.0103089554 0.049996180499999994 0.108014946
v 0.009262731 0.0477740574 0.116922493
v -0.0067963283 0.053701992000000004 0.1059869385
v -0.0053487763 0.0539942122 0.1051511955
v 0.010294487400000002 0.052624931300000004 0.1163268089
v 0.0202944874 0.052624931300000004 0.13364732740000002
v -0.009854607 0.0510004187 0.1077526379
v -0.0009772695000000002 0.0437795067 0.122834568
v -0.0025048984000000003 0.0532611847 0.1035092735
v 0.0003237992 0.0458085251 0.10187612530000001
v 0.0041373544 0.0539744234 0.1198816299
v -0.0068119705 0.0413036871 0.10599596979999999
v -0.0018759579000000002 0.052819042200000006 0.103146162
v 0.0080994916 0.043535533 0.1175940895
v 0.007956029100000001 0.0516708517 0.11767692569999999
v 0.0002547299 0.045536375 0.101916008
v -0.0063378078 0.0411561251 0.105722208
v 0.0089310562 0.049714222 0.11711398120000001
v 0.0010465890000000001 0.053269925100000004 0.12166607859999999
v 9.23746e-05 0.0499786854 0.1020097446
v 0.0043651938 0.0410543728 0.1197500896
v -0.0012323231 0.0507581902 0.1229818153
v 0.0081094753 0.0514494276 0.1175883293
v -0.0074978464 0.0416129971 0.1063919544
v 0.0036303711 0.040999999 0.1201743412
v 0.00017544620000000001 0.0452679634 0.1019617748
v -0.0106053794 0.0489160919 0.1081860924
v 0.008517667 0.050741787000000003 0.1173526573
v -0.0081428898 0.0420230389 0.10676437379999999
v -0.0053651618000000005 0.041006598500000005 0.10516065599999999
v -0.001499357 0.0425146198 0.1029287243
v -0.0070290083 0.0536112261 0.10612127299999999
v 0.0074355292 0.0427012968 0.1179774284
v 1.3935499999999999e-05 0.0425267982 0.1222622871
v -0.0055938727 0.053976073299999996 0.1052927017
v -0.0011252135 0.052089486100000006 0.1027127171
v 0.0083905625 0.050984449400000006 0.11742603300000001
v -6.212000000000001e-06 0.050238428099999996 0.1020666599
v -0.0019684524 0.0480759382 0.1234068203
v -0.0011368108 0.0428971052 0.10271941180000001
v 0.0092206418 0.048339023599999996 0.11694679259999999
v -0.0070444206 0.041395235100000004 0.1061301708
v 0.003401224 0.0539942122 0.1203066349
v -0.0031784368 0.0536047459 0.10389814380000001
v -0.0090860466 0.0521028757 0.1073089027
v -0.0015589554 0.049996180499999994 0.12317039490000001
v -0.010216645 0.0447615576 0.1079616547
v -0.010398302699999999 0.0497320175 0.1080665398
v -0.004628984500000001 0.04102390770000001 0.1047356224
v -0.0018009012999999998 0.04582681660000001 0.12331007960000001
v 0.0019536715 0.053701992000000004 0.12114237790000001
v -0.009097643800000001 0.0429104996 0.10731559750000001
v -0.001104607 0.0510004187 0.12290807720000001
v 0.0062451016000000005 0.0532611847 0.1186647224
v 0.0131228232 0.05671837810000001 0.1377878761
v -0.0048576953 0.053993387200000006 0.1048676682
v 0.0019380295000000001 0.0413036871 0.1211514091
v -0.0031938489 0.0413887596 0.10390704149999999
v -0.0020799673 0.05297694210000001 0.10326394080000001
v 0.0072506439 0.0425146198 0.1180841732
v 0.0077943623 0.0518843412 0.11777025220000001
v -0.0036813243000000002 0.0410938168 0.1267051506
v -0.0087235004 0.0524853611 0.1070995808
v -0.0038850493000000003 0.0538438606 0.10430610659999999
v -0.0103152317 0.045021300300000004 0.1080185795
v 0.009004729900000001 0.045536375 0.1170714474
v 0.0043186754 0.0410938168 0.140561552
v 0.0090737986 0.0458085251 0.1170315742
v 0.0031228225999999997 0.05671837810000001 0.1204673767
v -0.010477587 0.049463605900000006 0.10811231610000001
v -0.002725011 0.053386983900000004 0.1036363602
v 0.0024121922 0.0411561251 0.12087765689999999
v -0.0018553791000000001 0.0489160919 0.1233415413
v 0.00038252170000000005 0.046083888999999996 0.10184222220000001
v -0.0083468992 0.0421809387 0.1068821526
v -0.0043260097 0.0526167965 0.12707736020000002
v 0.0068740415 0.052819042200000006 0.11830160140000001
v 0.0036739903000000003 0.0526167965 0.14093377110000002
v 0.0031561278999999998 0.053976073299999996 0.12044814110000002
v 0.0012521535000000002 0.0416129971 0.1215474033
v 0.007624787 0.052089486100000006 0.117868166
v -0.010546656299999999 0.0491914606 0.1081521893
v 0.0017209917 0.0536112261 0.12127672199999999
v -0.0034108867 0.0536962986 0.1040323544
v 0.0033848381 0.041006598500000005 0.1203160954
v 0.008842374 0.0499786854 0.117165184
v 0.00032804430000000004 0.0491731644 0.10187367439999999
v -0.007717959 0.041738801 0.10651903150000001
v -0.00036825040000000006 0.0439995623 0.1022756863
v 0.0006071096 0.0420230389 0.12191982270000001
v 0.008743788 0.050238428099999996 0.1172221088
v -0.0048740809 0.0410057735 0.1048771191
v 0.0052832567 0.035977006 0.12152944560000001
v -0.0034265288999999997 0.0412979889 0.1040413857
v 8.609830000000001e-05 0.045003800399999995 0.1020133686
v 0.0017055797 0.041395235100000004 0.1212856197
v 0.0076131892 0.0428971052 0.11787485119999999
v -0.0092672205 0.0431156397 0.1074135113
v 0.008925445 0.0452679634 0.11711722370000001
v 0.0132832562 0.035977006 0.13538585660000002
v 0.0004955953 0.046924047499999996 0.10177694320000001
v 0.005571563200000001 0.0536047459 0.11905358310000001
v -0.0098634193 0.044015536300000005 0.1077577209
v 0.0055561518 0.0413887596 0.11906249049999999
v -0.00033604660000000004 0.0521028757 0.1224643517
v -0.0014666450000000001 0.0447615576 0.1231171036
v 0.0039938861 0.059022979700000006 0.12227386470000001
v 0.0136031532 0.042383184399999996 0.1167259502
v 0.00602499 0.053386983900000004 0.11879179949999999
v -0.00034764379999999997 0.0429104996 0.1224710464
v -0.0099905238 0.044258194 0.10783110620000001
v -0.0016483030000000003 0.0497320175 0.1232219791
v -0.0014867926 0.0524731874 0.1029214668
v 0.0038923049 0.053993387200000006 0.1200231075
v -0.0104039127 0.045285759 0.1080697823
v -0.005103228 0.053999986599999994 0.1050094223
v 0.006670032700000001 0.05297694210000001 0.11841938969999999
v 0.0091325223 0.046083888999999996 0.1169976711
v 0.0216031527 0.042383184399999996 0.1305823612
v -0.0106935001 0.04666095730000001 0.10823697089999999
v -0.00024053370000000002 0.0442417955 0.1022019482
v 0.0041210150000000004 0.04102390770000001 0.1198910618
v -0.009428885900000001 0.043329129200000004 0.10750683779999999
v -0.0058380508 0.0539456129 0.10543367390000001
v 2.64996e-05 0.0524853611 0.1222550392
v 0.0041543203 0.0382816052 0.1198718357
v -0.0025194461000000003 0.0417300558 0.10351767540000001
v 0.0048649507 0.0538438606 0.11946155550000001
v -0.0015652316999999998 0.045021300300000004 0.1231740189
v -0.0017275869999999998 0.049463605900000006 0.1232677555
v -0.0095723486 0.051464448 0.107589674
v 0.011993885 0.059022979700000006 0.1361302757
v -0.0089083872 0.0522986889 0.10720632549999999
v 0.0004031008 0.0421809387 0.12203760150000001
v -0.009582333 0.0435505581 0.1075954342
v 0.0053391134 0.0536962986 0.11918779369999999
v 0.012958467000000001 0.0539061689 0.1170981598
v -0.0017966562999999999 0.0491914606 0.12330762860000001
v 0.0010320413000000001 0.041738801 0.12167449
v -0.005610211600000001 0.0410255575 0.1053021336
v -0.0004955876 0.051220474200000005 0.1023491955
v 0.020958466499999998 0.0539061689 0.13095456119999999
v -0.0107355881 0.0472259283 0.108261261
v 0.0083817493 0.0439995623 0.1174311256
v 0.0038759189 0.0410057735 0.120032568
v 0.0090780437 0.0491731644 0.11702912330000001
v 0.0053234708 0.0412979889 0.119196825
v -0.0005172205 0.0431156397 0.12256895070000001
v 0.0141543185 0.0382816052 0.1371923351
v 0.0088360977 0.045003800399999995 0.117168808
v -0.008333464 0.0528299046 0.1068743992
v -0.010209713600000002 0.050255589499999996 0.1079576492
v -0.0107348723 0.047792978300000004 0.1082608509
v -0.0011134196 0.044015536300000005 0.12291316990000001
v 0.0092455947 0.046924047499999996 0.1169323826
v -0.0092561397 0.051898303 0.10740711210000001
v -0.0012405238000000002 0.044258194 0.1229865456
v 0.0072632074 0.0524731874 0.11807691569999999
v -0.0016539127 0.045285759 0.1232252216
v 0.0002596616 0.0494455481 0.1019131565
v 0.0036467719 0.053999986599999994 0.12016487120000001
v -0.0019435001 0.04666095730000001 0.1233924103
v -0.0074829817 0.05339499 0.10638337140000001
v 0.0004970246 0.048057069800000005 0.1017761135
v -0.0060969978 0.041100392300000003 0.1055831718
v -0.010653644200000001 0.04863802910000001 0.1082139587
v -0.0006788859 0.043329129200000004 0.12266228679999999
v 0.0029119490999999996 0.0539456129 0.1205891132
v -0.0008223486000000001 0.051464448 0.1227451229
f 285 181 138
f 181 172 138
f 138 172 139
f 172 113 139
f 139 113 80
f 113 235 80
f 80 235 182
f 235 230 182
f 182 230 164
f 230 162 164
f 164 162 134
f 162 15 134
f 134 15 304
f 15 290 304
f 304 290 231
f 290 57 231
f 231 57 14
f 57 62 14
f 14 62 35
f 62 185 35
f 35 185 128
f 185 26 128
f 128 26 308
f 26 146 308
f 308 146 115
f 146 69 115
f 115 69 42
f 69 130 42
f 42 130 100
f 130 299 100
f 100 299 245
f 299 67 245
f 245 67 39
f 67 117 39
f 39 117 98
f 117 262 98
f 98 262 218
f 262 212 218
f 218 212 154
f 212 210 154
f 154 210 160
f 210 243 160
f 160 243 170
f 243 294 170
f 170 294 239
f 294 144 239
f 239 144 103
f 144 74 103
f 103 74 40
f 74 4 40
f 40 4 265
f 4 288 265
f 265 288 233
f 288 135 233
f 233 135 92
f 135 158 92
f 92 158 120
f 158 110 120
f 120 110 81
f 110 129 81
f 81 129 97
f 129 241 97
f 97 241 184
f 241 177 184
f 184 177 119
f 177 204 119
f 119 204 175
f 204 122 175
f 175 122 90
f 122 141 90
f 90 141 104
f 141 50 104
f 104 50 19
f 50 51 19
f 19 51 27
f 51 6 27
f 27 6 271
f 6 131 271
f 271 131 96
f 131 89 96
f 96 89 66
f 89 248 66
f 66 248 202
f 248 291 202
f 202 291 238
f 291 75 238
f 238 75 36
f 75 84 36
f 36 84 60
f 84 111 60
f 60 111 79
f 111 165 79
f 79 165 124
f 165 266 124
f 124 266 193
f 266 289 193
f 193 289 236
f 289 169 236
f 236 169 133
f 169 229 133
f 133 229 174
f 229 7 174
f 174 7 284
f 7 48 284
f 284 48 17
f 48 30 17
f 17 30 309
f 30 216 309
f 309 216 161
f 216 49 161
f 161 49 21
f 49 201 21
f 21 201 156
f 201 240 156
f 156 240 186
f 240 38 186
f 186 38 10
f 38 224 10
f 10 224 168
f 224 283 168
f 168 283 232
f 283 64 232
f 232 64 31
f 64 234 31
f 31 234 173
f 234 278 173
f 173 278 219
f 278 102 219
f 219 102 73
f 102 178 73
f 73 178 136
f 178 88 136
f 136 88 61
f 88 254 61
f 61 254 196
f 254 292 196
f 196 292 242
f 292 311 242
f 242 311 267
f 311 3 267
f 267 3 279
f 3 152 279
f 279 152 118
f 152 298 118
f 118 298 247
f 298 301 247
f 247 301 255
f 301 43 255
f 255 43 16
f 43 250 16
f 16 250 191
f 250 273 191
f 191 273 209
f 273 303 209
f 209 303 259
f 303 137 259
f 259 137 101
f 137 194 101
f 101 194 142
f 194 105 142
f 142 105 72
f 105 91 72
f 72 91 59
f 91 306 59
f 59 306 264
f 306 127 264
f 264 127 95
f 127 8 95
f 95 8 287
f 8 82 287
f 287 82 52
f 82 25 52
f 52 25 297
f 25 183 297
f 297 183 140
f 183 86 140
f 140 86 54
f 86 28 54
f 54 28 310
f 28 217 310
f 310 217 171
f 217 282 171
f 171 282 226
f 282 274 226
f 226 274 214
f 274 256 214
f 214 256 192
f 256 190 192
f 192 190 145
f 190 20 145
f 145 20 296
f 20 85 296
f 296 85 53
f 85 166 53
f 53 166 125
f 166 197 125
f 125 197 151
f 197 33 151
f 151 33 1
f 33 313 1
f 1 313 275
f 313 44 275
f 275 44 11
f 44 24 11
f 11 24 300
f 24 249 300
f 300 249 189
f 249 5 189
f 189 5 277
f 5 269 277
f 277 269 207
f 269 41 207
f 207 41 2
f 41 18 2
f 2 18 295
f 18 106 295
f 295 106 77
f 106 99 77
f 77 99 71
f 99 163 71
f 71 163 123
f 163 29 123
f 123 29 307
f 29 63 307
f 307 63 32
f 63 227 32
f 32 227 176
f 227 195 176
f 176 195 147
f 195 87 147
f 147 87 58
f 87 68 58
f 58 68 37
f 68 46 37
f 37 46 12
f 46 312 12
f 12 312 268
f 312 223 268
f 268 223 179
f 223 187 179
f 179 187 148
f 187 305 148
f 148 305 260
f 305 258 260
f 260 258 200
f 258 155 200
f 200 155 116
f 155 108 116
f 116 108 78
f 108 126 78
f 78 126 94
f 126 272 94
f 94 272 208
f 272 107 208
f 208 107 76
f 107 280 76
f 76 280 228
f 280 246 228
f 228 246 188
f 246 112 188
f 188 112 83
f 112 253 83
f 83 253 215
f 253 198 215
f 215 198 153
f 198 93 153
f 153 93 65
f 93 261 65
f 65 261 203
f 261 221 203
f 203 221 157
f 221 56 157
f 157 56 23
f 56 302 23
f 23 302 257
f 302 70 257
f 257 70 34
f 70 225 34
f 34 225 180
f 225 205 180
f 180 205 143
f 205 159 143
f 143 159 132
f 159 167 132
f 132 167 121
f 167 9 121
f 121 9 285
f 9 181 285
f 267 279 47
f 279 118 47
f 47 118 247
f 61 196 47
f 196 242 47
f 47 242 267
f 219 73 47
f 73 136 47
f 47 136 61
f 232 31 47
f 31 173 47
f 47 173 219
f 186 10 47
f 10 168 47
f 47 168 232
f 161 21 47
f 21 156 47
f 47 156 186
f 284 17 47
f 17 309 47
f 47 309 161
f 236 133 47
f 133 174 47
f 47 174 284
f 79 124 47
f 124 193 47
f 47 193 236
f 238 36 47
f 36 60 47
f 47 60 79
f 96 66 47
f 66 202 47
f 47 202 238
f 19 27 47
f 27 271 47
f 47 271 96
f 175 90 47
f 90 104 47
f 47 104 19
f 97 184 47
f 184 119 47
f 47 119 175
f 92 120 47
f 120 81 47
f 47 81 97
f 40 265 47
f 265 233 47
f 47 233 92
f 170 239 47
f 239 103 47
f 47 103 40
f 218 154 47
f 154 160 47
f 47 160 170
f 245 39 47
f 39 98 47
f 47 98 218
f 115 42 47
f 42 100 47
f 47 100 245
f 35 128 47
f 128 308 47
f 47 308 115
f 304 231 47
f 231 14 47
f 47 14 35
f 182 164 47
f 164 134 47
f 47 134 304
f 138 139 47
f 139 80 47
f 47 80 182
f 132 121 47
f 121 285 47
f 47 285 138
f 34 180 47
f 180 143 47
f 47 143 132
f 157 23 47
f 23 257 47
f 47 257 34
f 153 65 47
f 65 203 47
f 47 203 157
f 188 83 47
f 83 215 47
f 47 215 153
f 208 76 47
f 76 228 47
f 47 228 188
f 116 78 47
f 78 94 47
f 47 94 208
f 148 260 47
f 260 200 47
f 47 200 116
f 12 268 47
f 268 179 47
f 47 179 148
f 147 58 47
f 58 37 47
f 47 37 12
f 307 32 47
f 32 176 47
f 47 176 147
f 77 71 47
f 71 123 47
f 47 123 307
f 207 2 47
f 2 295 47
f 47 295 77
f 300 189 47
f 189 277 47
f 47 277 207
f 1 275 47
f 275 11 47
f 47 11 300
f 53 125 47
f 125 151 47
f 47 151 1
f 192 145 47
f 145 296 47
f 47 296 53
f 171 226 47
f 226 214 47
f 47 214 192
f 140 54 47
f 54 310 47
f 47 310 171
f 287 52 47
f 52 297 47
f 47 297 140
f 59 264 47
f 264 95 47
f 47 95 287
f 101 142 47
f 142 72 47
f 47 72 59
f 191 209 47
f 209 259 47
f 47 259 101
f 247 255 47
f 255 16 47
f 47 16 191
f 222 220 211
f 220 206 211
f 211 206 244
f 206 237 244
f 244 237 263
f 237 252 263
f 263 252 286
f 252 281 286
f 149 281 45
f 281 252 45
f 213 251 149
f 251 281 149
f 237 270 252
f 270 45 252
f 114 220 213
f 220 251 213
f 13 206 114
f 206 220 114
f 206 13 237
f 13 270 237
f 211 22 222
f 22 109 222
f 22 211 293
f 211 244 293
f 222 109 276
f 109 199 276
f 293 244 55
f 244 263 55
f 276 199 286
f 199 150 286
f 286 150 263
f 150 55 263
f 185 62 149
f 190 256 114
f 256 274 114
f 45 69 146
f 111 270 165
f 270 266 165
f 122 204 45
f 41 269 114
f 269 5 114
f 229 270 7
f 270 48 7
f 229 169 270
f 169 289 270
f 270 289 266
f 45 146 149
f 146 26 149
f 149 26 185
f 149 159 205
f 253 213 198
f 213 149 198
f 198 149 93
f 149 261 93
f 253 112 213
f 112 246 213
f 213 246 280
f 274 282 114
f 282 217 114
f 114 217 28
f 292 254 13
f 254 88 13
f 13 278 234
f 38 240 270
f 240 201 270
f 270 201 49
f 49 216 270
f 216 30 270
f 270 30 48
f 204 177 45
f 177 241 45
f 45 241 129
f 129 110 45
f 110 158 45
f 45 158 135
f 62 57 149
f 57 290 149
f 149 290 15
f 205 225 149
f 225 70 149
f 149 70 302
f 302 56 149
f 56 221 149
f 149 221 261
f 126 108 213
f 108 155 213
f 213 155 258
f 195 213 87
f 213 68 87
f 213 29 163
f 114 197 166
f 28 86 114
f 86 183 114
f 114 183 25
f 25 82 114
f 82 8 114
f 114 8 13
f 8 127 13
f 13 127 306
f 306 91 13
f 91 105 13
f 13 105 194
f 234 64 13
f 64 283 13
f 13 283 270
f 283 224 270
f 270 224 38
f 270 131 6
f 243 210 45
f 210 212 45
f 15 162 149
f 162 230 149
f 149 230 235
f 235 113 149
f 113 172 149
f 149 172 181
f 181 9 149
f 9 167 149
f 149 167 159
f 280 107 213
f 107 272 213
f 213 272 126
f 258 305 213
f 305 187 213
f 213 187 223
f 223 312 213
f 312 46 213
f 213 46 68
f 195 227 213
f 227 63 213
f 213 63 29
f 163 99 213
f 99 106 213
f 213 106 114
f 106 18 114
f 114 18 41
f 5 249 114
f 249 24 114
f 114 24 44
f 166 85 114
f 85 20 114
f 114 20 190
f 88 178 13
f 178 102 13
f 13 102 278
f 111 84 270
f 84 75 270
f 270 75 291
f 291 248 270
f 248 89 270
f 270 89 131
f 67 299 45
f 299 130 45
f 45 130 69
f 44 313 114
f 313 33 114
f 114 33 197
f 152 13 298
f 13 301 298
f 152 3 13
f 3 311 13
f 13 311 292
f 135 288 45
f 288 4 45
f 45 4 74
f 212 262 45
f 262 117 45
f 45 117 67
f 273 250 13
f 250 43 13
f 13 43 301
f 6 51 270
f 51 50 270
f 270 50 45
f 50 141 45
f 45 141 122
f 74 144 45
f 144 294 45
f 45 294 243
f 194 137 13
f 137 303 13
f 13 303 273
f 109 22 199
f 22 293 199
f 199 293 150
f 293 55 150
f 276 251 222
f 251 220 222
f 286 281 276
f 281 251 276