# https://github.com/mikedh/trimesh
v 0.0079577088 -0.0517353678 0.11767594340000001
v 0.0092893183 -0.0481412888 0.1169071388
v -0.0010946051 -0.0509288597 0.12290230749999999
v 0.0010308349 -0.0532305002 0.1216751766
v 0.0005506557000000001 -0.047008338 0.1017451477
v -0.0034318084 -0.053721322999999994 0.1040444279
v -0.0016239619999999998 -0.0496523952 0.1232079315
v 0.0001130485 -0.0500566578 0.10199780459999999
v 0.0005123573000000001 -0.0421327782 0.1219745159
v -0.0043921676 -0.053953757299999995 0.1045988941
v 0.006766821100000001 -0.0420586681 0.1183635044
v -0.0011545358 -0.0441851664 0.1229369068
v 0.0085948145 -0.0443152523 0.1173081207
v 0.0075383281 -0.0427587509 0.1179180717
v 0.0077137648999999996 -0.0429572105 0.1178167915
v -0.0019411728000000002 -0.047424883800000005 0.1233910656
v 0.007062603200000001 -0.052702164600000004 0.11819273949999999
v -0.0079331089 -0.0530912304 0.1066432571
v 0.0037682414 -0.04227891450000001 0.1408793449
v 0.0027742445 -0.0410861254 0.12066862110000001
v -0.0014940948000000001 -0.0525272274 0.1029256916
v -0.0018218261 -0.0488334274 0.1233221626
v -0.0042317591 -0.04227891450000001 0.127022934
v 0.009242186500000001 -0.046445322000000004 0.11693434720000001
v -0.0105436695 -0.046019902200000004 0.1081504631
v 1.1543000000000001e-05 -0.0503148937 0.1020564079
v 0.0007181286 -0.041977958700000005 0.1218557167
v 0.0082611429 -0.0512895155 0.11750076290000001
v -0.0027425051 -0.053422341299999995 0.1036464596
v 0.0038681571999999997 -0.0539966488 0.12003705020000001
v 0.0093006563 -0.047008338 0.11690059659999999
v -0.007276521700000001 -0.053476066600000004 0.10626417160000001
v -0.0068170275 -0.0536761522 0.10599888800000001
v -0.0075001635 -0.0533588552 0.10639328960000001
v 0.008710447500000001 -0.044565448800000004 0.117241354
v -0.0047518759 -0.0410098886 0.10480657580000001
v -0.0017805607 -0.0422189379 0.10309108730000001
v 0.0043578326 -0.053953757299999995 0.11975433349999999
v 0.005318191 -0.053721322999999994 0.1191998672
v 0.0088630485 -0.0500566578 0.11715325359999999
v 0.013063112500000001 -0.04119115350000001 0.1170377445
v -0.0011282221000000002 -0.0521489859 0.1027144527
v -0.0051274285 -0.0539995575 0.1050234032
v -0.0046365997 -0.0539813709 0.1047400188
v 0.0005267411000000001 -0.0467260933 0.10175895690000002
v -0.0088171822 -0.0426572657 0.10715367320000001
v 0.0072559058 -0.0525272274 0.1180811405
v -0.010191288000000001 -0.05017875669999999 0.1079470158
v -0.0037805872000000003 -0.0411707449 0.10424579619999999
v 0.00032544789999999996 -0.0456171656 0.1018751812
v 0.0008168911 -0.0530912304 0.1217987061
v -0.0003500593 -0.051055550600000006 0.10226517680000001
v 0.00039144449999999997 -0.0458903265 0.1018370724
v 0.014122720900000002 -0.0567239237 0.1372105885
v -0.0017936695 -0.046019902200000004 0.123305912
v -0.0030761016 -0.041418085099999995 0.10383906359999999
v 0.0005638855 -0.047291521999999996 0.10173751830000001
v 0.008761543 -0.0503148937 0.1172118568
v -0.0078204474 -0.0418336487 0.10657820700000001
v 0.0060074949 -0.053422341299999995 0.1188019085
v 0.0210631108 -0.04119115350000001 0.1308941555
v 0.0103880131 -0.042452921899999996 0.1162728119
v 0.0041227203 -0.0567239237 0.1198900795
v -0.0106345278 -0.0465771627 0.1082029152
v -0.0008684609 -0.043164324799999994 0.10256447789999999
v 0.0019329726 -0.0536761522 0.1211543274
v 0.0012498366 -0.0533588552 0.1215487385
v 0.0039981246 -0.0410098886 0.1199620152
v 0.001473478 -0.053476066600000004 0.1214196205
v -0.0100251461 -0.0444322062 0.10785109520000001
v 0.012143737 -0.0359700775 0.1360437584
v -0.010482541400000002 -0.0457452297 0.1081151772
v -0.0094160966 -0.05162029740000001 0.1074994564
v 0.0203880119 -0.042452921899999996 0.1335933208
v 0.0002863287 -0.0495260811 0.10189776419999999
v -0.008540577 -0.05261072160000001 0.10699398040000001
v -0.000414241 -0.043833518 0.1023022366
v 0.0090754485 -0.0456171656 0.11703062060000001
v 0.0041134005 -0.0539813709 0.1198954582
v 0.004969413200000001 -0.0411707449 0.1194012356
v -0.0069264204 -0.041366705899999995 0.10606204990000001
v 0.0069694387 -0.0422189379 0.11824652670000001
v 0.0041437363 -0.0359700775 0.12218734740000001
v -0.007156334100000001 -0.0414664316 0.10619478230000001
v -6.71822e-05 -0.0426572657 0.1223091221
v -0.0025209934 -0.053299861000000004 0.10351857190000001
v 0.0036225712 -0.0539995575 0.12017884250000001
v -0.0040208976 -0.041112208399999996 0.1043845367
v -0.0102875984 -0.04991787910000001 0.108002615
v -0.00139444 -0.042569313 0.10286815640000001
v 0.0083999407 -0.051055550600000006 0.1174206257
v -0.0065820499 -0.0537586498 0.10586321829999999
v 0.0092767405 -0.0467260933 0.11691440580000001
v -0.0014412883 -0.05017875669999999 0.1231024647
v -0.0062171732 -0.041138234100000004 0.10565256120000001
v 0.007621777 -0.0521489859 0.1178699017
v -0.009567599 -0.05139709 0.1075869274
v -0.010594363899999999 -0.0462973881 0.10817973139999999
v 0.0056738984 -0.041418085099999995 0.118994503
v -0.009168418400000001 -0.0430535746 0.1073564625
v 0.0091414439 -0.0458903265 0.1169925213
v -0.0050623834 -0.0474999905 0.1049858379
v -0.0009563481999999999 -0.0519464111 0.10261522290000001
v -0.0018845275000000002 -0.0465771627 0.1233583641
v -0.0005571676 -0.0436028957 0.102384758
v 0.0009295523 -0.0418336487 0.1217336559
v 0.0004695969 -0.0487025976 0.10179194450000001
v 0.0093138849 -0.047291521999999996 0.1168929577
v -0.0035427168 -0.0412413311 0.10410845760000001
v -0.0039075937 -0.0538617468 0.1043191242
v -0.008730326600000001 -0.052430672600000006 0.107103529
v 0.008335759600000001 -0.043833518 0.1174576759
v -0.0076037732 -0.0417001247 0.1064531136
v 0.0078815388 -0.043164324799999994 0.1177199268
v 0.0001628315 -0.0450821066 0.1019690609
v -0.0061038693 -0.0538877726 0.1055871487
v -0.0012751461 -0.0444322062 0.1230065346
v -0.0017325414000000001 -0.0457452297 0.1232706165
v -0.0006660966 -0.05162029740000001 0.12265490529999999
v 0.0002094233 -0.05261072160000001 0.1221494198
v -0.0031983464 -0.0536332703 0.1039096451
v 0.0062290072 -0.053299861000000004 0.1186740208
v -0.0029684328 -0.053533549300000004 0.10377690319999999
v 0.0090363287 -0.0495260811 0.1170532036
v 0.00035777499999999996 -0.0492547512 0.1018565178
v -0.009710525900000001 -0.0511664629 0.10766944889999999
v -0.0015841899 -0.042389264100000004 0.102977705
v 0.0047291028 -0.041112208399999996 0.1195399857
v 0.0018235796 -0.041366705899999995 0.1212174892
v 0.001593666 -0.0414664316 0.1213502312
v -0.0104110957 -0.0454739046 0.10807392119999999
v 0.0025328272 -0.041138234100000004 0.1208080101
v -0.0015375984000000002 -0.04991787910000001 0.1231580639
v 0.00735556 -0.042569313 0.11802359579999999
v -9.962090000000001e-05 -0.0505677795 0.1021205902
v -0.0092563057 -0.051835660900000004 0.10740720749999999
v 0.0021679502 -0.0537586498 0.1210186672
v -0.0007086707 -0.043379688300000004 0.1024722195
v -0.000817599 -0.05139709 0.1227423763
v -0.0018443639 -0.0462973881 0.1233351707
v -0.00041841839999999996 -0.0430535746 0.12251191139999999
v 0.0092195975 -0.0487025976 0.1169473934
v -0.007048665 -0.0535818958 0.1061326218
v 0.0077936518 -0.0519464111 0.11777066230000001
v -0.0023043195 -0.0531663322 0.10339346890000001
v -0.010516210800000002 -0.0491096544 0.108134613
v 0.008192832399999999 -0.0436028957 0.1175401974
v -0.0106886524 -0.0477084637 0.1082341671
v 0.0005097603 -0.048422823000000004 0.1017687607
v 0.0048424065 -0.0538617468 0.1194745636
v -0.0106515074 -0.0482738924 0.1082127285
v 0.0026461309 -0.0538877726 0.12074258800000001
v -0.0063441795999999995 -0.053829236 0.10572587970000001
v -0.0097747076 -0.043944435100000005 0.10770649909999999
v -0.0104502148 -0.0493828154 0.1080965137
v 0.008912831500000001 -0.0450821066 0.1171245098
v -0.0089965445 -0.042850995100000004 0.1072572327
v 6.65211e-05 -0.044821224199999996 0.1020246696
v 1.96731e-05 -0.052430672600000006 0.1222589779
v 0.0011462265000000001 -0.0417001247 0.12160855290000001
v -0.0013075847 -0.0523427153 0.1028180027
v -0.0054881672000000005 -0.041018614800000006 0.1052316666
v -0.0049973384 -0.0410004234 0.1049482918
v 0.0052072823 -0.0412413311 0.1192639065
v 0.0057815671 -0.053533549300000004 0.11893234250000001
v -0.0009605258999999999 -0.0511664629 0.1228248882
v -0.0016610957000000003 -0.0454739046 0.12322937010000001
v -0.005372890900000001 -0.053990097 0.10516511919999999
v 0.007165809800000001 -0.042389264100000004 0.1181331539
v -0.0083442063 -0.052781047799999994 0.10688060760000001
v 0.0091077745 -0.0492547512 0.1170119572
v 0.0055516529000000005 -0.0536332703 0.1190650845
v -0.0033077392 -0.0413238287 0.1039727974
v 0.0086503791 -0.0505677795 0.11727603909999999
v -0.0005063057 -0.051835660900000004 0.1225626469
v -0.0026246034000000002 -0.0416411257 0.1035783863
v 0.0080413293 -0.043379688300000004 0.1176276684
v -0.0028482452 -0.04152391910000001 0.10370750429999999
v 0.0064456808 -0.0531663322 0.11854891780000001
v -0.0073822618 -0.041577639599999994 0.1063252258
v -0.0101363099 -0.044685082400000006 0.1079152775
v 0.0092597603 -0.048422823000000004 0.1169242001
v 0.0017013347000000001 -0.0535818958 0.12128807070000001
v 0.0004189026 -0.04898008349999999 0.1018212223
v -0.008630671800000001 -0.0424727583 0.1070459938
v -0.0019386527000000001 -0.0477084637 0.123389616
v -0.0010247073 -0.043944435100000005 0.12286194800000001
v -0.0017002145 -0.0493828154 0.1232519531
v -0.0017662114 -0.0491096544 0.12329005240000002
v -0.0102378148 -0.0449433231 0.10797388079999999
v 0.0024058204 -0.053829236 0.12088133810000001
v -0.0019015077 -0.0482738924 0.1233681679
v -0.0021916581 -0.041908755299999996 0.10332842830000001
v -0.0002465445 -0.042850995100000004 0.122412672
v 0.0088165211 -0.044821224199999996 0.11718010899999999
v -0.005732599200000001 -0.0410462284 0.1053727913
v 0.0032618326 -0.041018614800000006 0.1203871155
v 0.0037526612999999997 -0.0410004234 0.12010373120000001
v 0.007442414699999999 -0.0523427153 0.11797345160000001
v 0.0033771090999999997 -0.053990097 0.12032055850000001
v 0.00040579369999999996 -0.052781047799999994 0.122036047
v 0.005231496100000001 -0.0590299082 0.1215593338
v -0.0066929584 -0.04127865790000001 0.10592724799999999
v 0.0059017551 -0.04152391910000001 0.11886295320000001
v -0.0106754226 -0.047991643 0.1082265282
v 0.005442260500000001 -0.0413238287 0.11912824629999999
v 0.0132314956 -0.0590299082 0.1354157352
v -0.0096359092 -0.0437104702 0.1076263714
v 0.006125396400000001 -0.0416411257 0.11873383520000001
v -0.010085215000000002 -0.0504345369 0.1078857803
v -0.0013863096 -0.044685082400000006 0.12307071690000002
v 0.0032525127999999998 -0.038276062 0.1203924942
v 0.00698722 -0.0525470591 0.1413302708
v -0.0030127801 -0.0525470591 0.1240097618
v 0.0013677382 -0.041577639599999994 0.1214806652
v -0.0020928956 -0.053022027 0.1032714081
v -0.0052429246 -0.041003336900000006 0.1050900745
v -0.0106169534 -0.0485546637 0.1081927681
v 0.0132525122 -0.038276062 0.1377130032
v 0.009168902599999999 -0.04898008349999999 0.1169766617
v -0.0084373695 -0.0422978163 0.1069343948
v -0.0099695808 -0.0506847286 0.10781901360000001
v 0.00044705920000000004 -0.046166553500000006 0.1018049622
v -0.0041490113 -0.0539138556 0.10445850370000001
v 0.00011932790000000001 -0.0424727583 0.1222014332
v 0.0005664062 -0.0475750971 0.1017360592
v -0.0089130947 -0.05224123 0.107209053
v 0.0065583419 -0.041908755299999996 0.1184838676
v -0.0014878151 -0.0449433231 0.12312932010000001
v -0.008141588 -0.0529413128 0.10676362040000001
v -0.0036878793 -0.053808827399999995 0.1267089272
v 0.0043121206 -0.053808827399999995 0.1405653381
v -0.0018871241999999999 -0.0528672028 0.1031525993
v 0.0030174004999999997 -0.0410462284 0.1205282402
v -0.0002202315 -0.0508148193 0.10219022750000001
v -0.0090885324 -0.0520427704 0.1073103428
v -0.010664084599999998 -0.046858692199999996 0.108219986
v 0.0020570415 -0.04127865790000001 0.12108269690000001
v 0.0002491951 -0.045347585700000005 0.1019192028
v -0.0019254226 -0.047991643 0.1233819771
v -0.0008859092 -0.0437104702 0.1227818108
v 0.00020470200000000002 -0.049793553399999996 0.1019448853
v -0.0024056021 -0.041769485499999995 0.1034519482
v -0.0106829781 -0.047141447100000004 0.108230896
v -0.0058615765 -0.0539341497 0.1054472542
v -0.0002801621 -0.0440711212 0.1022248268
v -0.0094884053 -0.043483719799999994 0.1075411987
v -0.0064563926 -0.0412024498 0.1057906723
v -0.0013352149999999998 -0.0504345369 0.12304121970000001
v -0.0056177623 -0.0539682817 0.10530649190000001
v -0.009332476 -0.043264617899999996 0.10745118140000001
v 0.0091970598 -0.046166553500000006 0.1169604111
v -0.0007922906000000001 -0.0517353678 0.102520504
v -0.0103294683 -0.0452064323 0.1080267906
v 0.006657104400000001 -0.053022027 0.1184268475
v 0.004600989200000001 -0.0539138556 0.1196139526
v -0.0012195805 -0.0506847286 0.122974453
v -0.0045070046 -0.0410317039 0.1046651936
v 0.0003126305 -0.0422978163 0.1220898342
v -0.0036683743000000004 -0.053797526400000004 0.10418101310000001
v 0.0035070753 -0.041003336900000006 0.1202455235
v -0.0042631904 -0.041065835999999994 0.1045244217
v 0.0005582112 -0.0478585339 0.10174078939999999
v -0.0077191648 -0.0532305002 0.1065197372
v -0.0018669537 -0.0485546637 0.12334821700000001
v -0.0006363619 -0.051516265900000004 0.10243047710000001
v -0.0098446051 -0.0509288597 0.1077468586
v 0.0136069917 -0.0527210665 0.1167237282
v -0.0001630947 -0.05224123 0.122364502
v -0.010373962 -0.0496523952 0.10805248260000001
v 0.0085297691 -0.0508148193 0.11734566689999999
v 0.0005393177 -0.0481412888 0.1017516994
v 0.021606991199999998 -0.0527210665 0.1305801392
v 0.000608412 -0.0529413128 0.1219190693
v -0.0099045352 -0.0441851664 0.1077814579
v -0.0082376424 -0.0421327782 0.1068190765
v -0.0010362345 -0.0429572105 0.1026613426
v -0.0019140843 -0.046858692199999996 0.1233754349
v -0.0003385324 -0.0520427704 0.1224657822
v -0.010691172499999999 -0.047424883800000005 0.1082356262
v -0.0019831789 -0.0420586681 0.103208065
v 0.009316405 -0.0475750971 0.1168914986
v 0.0208231186 -0.0516768551 0.1333421135
v 0.0065521168 -0.043323130599999995 0.14158147810000002
v 0.0068628752 -0.0528672028 0.11830804820000002
v 0.008999195100000001 -0.045347585700000005 0.11707464220000001
v 0.0004921871 -0.046445322000000004 0.1017789078
v 0.0028884238 -0.0539341497 0.12060269359999999
v -0.0012116722 -0.0427587509 0.10276263240000001
v 0.0063443982 -0.041769485499999995 0.11860739710000001
v -0.0016873970999999998 -0.052702164600000004 0.1030372906
v -0.0059757556 -0.0410861254 0.1055131817
v 0.0022936075 -0.0412024498 0.1209461212
v 0.0084698379 -0.0440711212 0.1173802662
v -0.0007384053 -0.043483719799999994 0.12269665720000002
v -0.0019329781 -0.047141447100000004 0.1233863354
v -0.0048818422 -0.0539966488 0.1048816109
v -0.0034478839 -0.043323130599999995 0.12426096920000002
v 0.0081136393 -0.051516265900000004 0.1175859165
v -0.0001551864 -0.0443152523 0.1021526718
v -0.000582476 -0.043264617899999996 0.1226066303
v 0.0108231175 -0.0516768551 0.1160216045
v -0.0080318714 -0.041977958700000005 0.1067002773
v 0.0089547014 -0.049793553399999996 0.1171003342
v 0.0093082118 -0.0478585339 0.11689623830000001
v -0.0105718267 -0.0488334274 0.1081667137
v 0.005081626099999999 -0.053797526400000004 0.1193364525
v 0.0031322372 -0.0539682817 0.1204619312
v 0.0044868099 -0.041065835999999994 0.1196798801
v -0.0015794685999999999 -0.0452064323 0.1231822395
v -0.0004888574 -0.0512895155 0.102345314
v -3.95519e-05 -0.044565448800000004 0.1020859146
v 0.0042429953 -0.0410317039 0.1198206425
f 77 294 246
f 294 13 246
f 246 13 300
f 13 35 300
f 300 35 312
f 35 195 312
f 312 195 158
f 195 156 158
f 158 156 115
f 156 286 115
f 115 286 239
f 286 78 239
f 239 78 50
f 78 101 50
f 50 101 53
f 101 252 53
f 53 252 223
f 252 24 223
f 223 24 287
f 24 93 287
f 287 93 45
f 93 31 45
f 45 31 5
f 31 108 5
f 5 108 57
f 108 282 57
f 57 282 226
f 282 305 226
f 226 305 263
f 305 2 263
f 263 2 272
f 2 182 272
f 272 182 149
f 182 142 149
f 149 142 107
f 142 220 107
f 107 220 184
f 220 171 184
f 184 171 125
f 171 124 125
f 125 124 75
f 124 304 75
f 75 304 242
f 304 40 242
f 242 40 8
f 40 58 8
f 8 58 26
f 58 174 26
f 26 174 135
f 174 271 135
f 135 271 235
f 271 91 235
f 235 91 52
f 91 28 52
f 52 28 311
f 28 299 311
f 311 299 266
f 299 1 266
f 266 1 253
f 1 144 253
f 253 144 103
f 144 96 103
f 103 96 42
f 96 199 42
f 42 199 161
f 199 47 161
f 161 47 21
f 47 17 21
f 21 17 291
f 17 285 291
f 291 285 233
f 285 255 233
f 233 255 216
f 255 179 216
f 216 179 145
f 179 122 145
f 145 122 86
f 122 60 86
f 86 60 29
f 60 165 29
f 29 165 123
f 165 172 123
f 123 172 121
f 172 39 121
f 121 39 6
f 39 307 6
f 6 307 260
f 307 150 260
f 260 150 110
f 150 256 110
f 110 256 224
f 256 38 224
f 224 38 10
f 38 79 10
f 10 79 44
f 79 30 44
f 44 30 297
f 30 87 297
f 297 87 43
f 87 200 43
f 43 200 168
f 200 308 168
f 168 308 250
f 308 288 250
f 250 288 245
f 288 152 245
f 245 152 116
f 152 191 116
f 116 191 153
f 191 137 153
f 153 137 92
f 137 66 92
f 92 66 33
f 66 183 33
f 33 183 143
f 183 69 143
f 143 69 32
f 69 67 32
f 32 67 34
f 67 4 34
f 34 4 264
f 4 51 264
f 264 51 18
f 51 274 18
f 18 274 230
f 274 201 230
f 230 201 170
f 201 120 170
f 170 120 76
f 120 159 76
f 76 159 111
f 159 269 111
f 111 269 227
f 269 279 227
f 227 279 236
f 279 175 236
f 236 175 136
f 175 119 136
f 136 119 73
f 119 139 73
f 73 139 97
f 139 166 97
f 97 166 126
f 166 3 126
f 126 3 267
f 3 257 267
f 267 257 222
f 257 249 222
f 222 249 210
f 249 94 210
f 210 94 48
f 94 133 48
f 48 133 89
f 133 7 89
f 89 7 270
f 7 188 270
f 270 188 155
f 188 189 155
f 155 189 146
f 189 22 146
f 146 22 306
f 22 265 306
f 306 265 218
f 265 192 218
f 218 192 151
f 192 240 151
f 151 240 205
f 240 186 205
f 205 186 148
f 186 16 148
f 148 16 280
f 16 296 280
f 280 296 244
f 296 278 244
f 244 278 237
f 278 104 237
f 237 104 64
f 104 140 64
f 64 140 98
f 140 55 98
f 98 55 25
f 55 118 25
f 25 118 72
f 118 167 72
f 72 167 131
f 167 310 131
f 131 310 254
f 310 229 254
f 254 229 190
f 229 211 190
f 190 211 181
f 211 117 181
f 181 117 70
f 117 12 70
f 70 12 275
f 12 187 275
f 275 187 154
f 187 241 154
f 154 241 208
f 241 295 208
f 208 295 247
f 295 301 247
f 247 301 251
f 301 141 251
f 251 141 100
f 141 194 100
f 100 194 157
f 194 85 157
f 157 85 46
f 85 225 46
f 46 225 185
f 225 259 185
f 185 259 221
f 259 9 221
f 221 9 276
f 9 27 276
f 276 27 303
f 27 106 303
f 303 106 59
f 106 160 59
f 59 160 113
f 160 215 113
f 113 215 180
f 215 130 180
f 180 130 84
f 130 129 84
f 84 129 81
f 129 238 81
f 81 238 203
f 238 293 203
f 203 293 248
f 293 132 248
f 248 132 95
f 132 20 95
f 95 20 292
f 20 234 292
f 292 234 196
f 234 197 196
f 196 197 162
f 197 261 162
f 162 261 217
f 261 198 217
f 217 198 163
f 198 68 163
f 163 68 36
f 68 313 36
f 36 313 258
f 313 309 258
f 258 309 262
f 309 128 262
f 262 128 88
f 128 80 88
f 88 80 49
f 80 164 49
f 49 164 109
f 164 206 109
f 109 206 173
f 206 99 173
f 173 99 56
f 99 204 56
f 56 204 178
f 204 209 178
f 178 209 176
f 209 290 176
f 176 290 243
f 290 228 243
f 243 228 193
f 228 11 193
f 193 11 281
f 11 82 281
f 281 82 37
f 82 169 37
f 37 169 127
f 169 134 127
f 127 134 90
f 134 14 90
f 90 14 289
f 14 15 289
f 289 15 277
f 15 114 277
f 277 114 65
f 114 177 65
f 65 177 138
f 177 147 138
f 138 147 105
f 147 112 105
f 105 112 77
f 112 294 77
f 73 97 102
f 97 126 102
f 102 126 267
f 227 236 102
f 236 136 102
f 102 136 73
f 170 76 102
f 76 111 102
f 102 111 227
f 264 18 102
f 18 230 102
f 102 230 170
f 143 32 102
f 32 34 102
f 102 34 264
f 153 92 102
f 92 33 102
f 102 33 143
f 250 245 102
f 245 116 102
f 102 116 153
f 297 43 102
f 43 168 102
f 102 168 250
f 224 10 102
f 10 44 102
f 102 44 297
f 6 260 102
f 260 110 102
f 102 110 224
f 29 123 102
f 123 121 102
f 102 121 6
f 216 145 102
f 145 86 102
f 102 86 29
f 21 291 102
f 291 233 102
f 102 233 216
f 103 42 102
f 42 161 102
f 102 161 21
f 311 266 102
f 266 253 102
f 102 253 103
f 135 235 102
f 235 52 102
f 102 52 311
f 242 8 102
f 8 26 102
f 102 26 135
f 184 125 102
f 125 75 102
f 102 75 242
f 272 149 102
f 149 107 102
f 102 107 184
f 57 226 102
f 226 263 102
f 102 263 272
f 287 45 102
f 45 5 102
f 102 5 57
f 50 53 102
f 53 223 102
f 102 223 287
f 158 115 102
f 115 239 102
f 102 239 50
f 246 300 102
f 300 312 102
f 102 312 158
f 138 105 102
f 105 77 102
f 102 77 246
f 289 277 102
f 277 65 102
f 102 65 138
f 37 127 102
f 127 90 102
f 102 90 289
f 243 193 102
f 193 281 102
f 102 281 37
f 56 178 102
f 178 176 102
f 102 176 243
f 49 109 102
f 109 173 102
f 102 173 56
f 258 262 102
f 262 88 102
f 102 88 49
f 217 163 102
f 163 36 102
f 102 36 258
f 292 196 102
f 196 162 102
f 102 162 217
f 203 248 102
f 248 95 102
f 102 95 292
f 180 84 102
f 84 81 102
f 102 81 203
f 303 59 102
f 59 113 102
f 102 113 180
f 185 221 102
f 221 276 102
f 102 276 303
f 100 157 102
f 157 46 102
f 102 46 185
f 208 247 102
f 247 251 102
f 102 251 100
f 70 275 102
f 275 154 102
f 102 154 208
f 254 190 102
f 190 181 102
f 102 181 70
f 25 72 102
f 72 131 102
f 102 131 254
f 237 64 102
f 64 98 102
f 102 98 25
f 148 280 102
f 280 244 102
f 102 244 237
f 218 151 102
f 151 205 102
f 102 205 148
f 155 146 102
f 146 306 102
f 102 306 218
f 48 89 102
f 89 270 102
f 102 270 155
f 267 222 102
f 222 210 102
f 102 210 48
f 19 23 232
f 23 231 232
f 232 231 207
f 231 202 207
f 207 202 273
f 202 268 273
f 273 268 61
f 268 41 61
f 62 41 302
f 41 268 302
f 212 83 62
f 83 41 62
f 202 63 268
f 63 302 268
f 298 23 212
f 23 83 212
f 214 231 298
f 231 23 298
f 231 214 202
f 214 63 202
f 232 213 19
f 213 284 19
f 213 232 54
f 232 207 54
f 19 284 71
f 284 219 71
f 54 207 283
f 207 273 283
f 71 219 61
f 219 74 61
f 61 74 273
f 74 283 273
f 278 296 298
f 133 94 214
f 94 249 214
f 182 2 302
f 2 305 302
f 78 286 62
f 305 282 302
f 282 108 302
f 302 108 62
f 189 188 214
f 188 7 214
f 214 7 133
f 249 257 214
f 257 3 214
f 214 3 166
f 108 31 62
f 31 93 62
f 62 93 24
f 286 156 62
f 156 195 62
f 62 195 35
f 259 225 298
f 225 85 298
f 298 85 194
f 194 141 298
f 141 301 298
f 298 301 295
f 118 55 298
f 192 265 214
f 265 22 214
f 214 22 189
f 302 17 47
f 209 204 212
f 204 99 212
f 99 206 212
f 206 164 212
f 212 164 80
f 129 130 212
f 130 215 212
f 212 215 160
f 55 140 298
f 140 104 298
f 298 104 278
f 296 16 298
f 16 186 298
f 298 186 214
f 186 240 214
f 214 240 192
f 166 139 214
f 139 119 214
f 214 119 175
f 304 124 302
f 124 171 302
f 24 252 62
f 252 101 62
f 62 101 78
f 209 212 290
f 212 62 290
f 290 62 228
f 160 106 212
f 106 27 212
f 212 27 298
f 27 9 298
f 298 9 259
f 295 241 298
f 241 187 298
f 298 187 12
f 12 117 298
f 117 211 298
f 298 211 229
f 229 310 298
f 310 167 298
f 298 167 118
f 69 183 63
f 183 66 63
f 66 137 63
f 137 191 63
f 63 191 152
f 174 58 302
f 58 40 302
f 302 40 304
f 171 220 302
f 220 142 302
f 302 142 182
f 35 13 62
f 13 294 62
f 62 294 112
f 62 134 169
f 152 288 63
f 288 308 63
f 63 308 200
f 47 199 302
f 199 96 302
f 302 96 144
f 28 91 302
f 91 271 302
f 302 271 174
f 112 147 62
f 147 177 62
f 62 177 114
f 114 15 62
f 15 14 62
f 62 14 134
f 212 20 132
f 175 279 214
f 279 269 214
f 214 269 159
f 122 179 63
f 179 255 63
f 63 255 302
f 255 285 302
f 302 285 17
f 144 1 302
f 1 299 302
f 302 299 28
f 169 82 62
f 82 11 62
f 62 11 228
f 80 128 212
f 128 309 212
f 212 309 313
f 313 68 212
f 68 198 212
f 212 198 261
f 261 197 212
f 197 234 212
f 212 234 20
f 132 293 212
f 293 238 212
f 212 238 129
f 200 87 63
f 87 30 63
f 63 30 79
f 159 120 214
f 120 201 214
f 214 201 274
f 79 38 63
f 38 256 63
f 63 256 150
f 150 307 63
f 307 39 63
f 63 39 172
f 172 165 63
f 165 60 63
f 63 60 122
f 274 51 214
f 51 4 214
f 214 4 63
f 4 67 63
f 63 67 69
f 54 283 213
f 283 74 213
f 213 74 284
f 74 219 284
f 71 83 19
f 83 23 19
f 61 41 71
f 41 83 71