# https://github.com/mikedh/trimesh
v 0.0351224064 0.0200223732 0.0817851448
v 0.0352869629 0.0272422862 0.0816901302
v 0.0351514363 0.0274787927 0.0817683792
v 0.0400356602 0.0302150297 0.0991557312
v 0.0341635322 0.0287349749 0.0823387527
v 0.034979941800000004 0.027974979900000002 0.1020746517
v 0.0348217082 0.0195740569 0.08195875170000001
v 0.0297659897 0.017334007000000002 0.0848776722
v 0.0441634297 0.0269991803 0.0967725658
v 0.0361100792 0.0245939612 0.08121491430000001
v 0.0288089847 0.0175842071 0.08543019290000001
v 0.034514687 0.0203067493 0.1023432732
v 0.035886795500000006 0.0217920828 0.0813438225
v 0.0249203443 0.024370133900000004 0.0876753044
v 0.034388222700000005 0.020549855199999998 0.1024162865
v 0.0429135347 0.0287349749 0.09749419209999999
v 0.0357167601 0.0212601042 0.0814419937
v 0.0290933489 0.0300605345 0.08526602750000001
v 0.0371450352 0.029790856799999998 0.1008246326
v 0.035007102400000004 0.027708244299999997 0.0818517113
v 0.036026980800000004 0.0251528335 0.08126288410000002
v 0.0358289647 0.0186355615 0.1015844727
v 0.037558987099999996 0.0175842071 0.10058564190000001
v 0.0346589422 0.0193616843 0.0820527267
v 0.039985482600000004 0.0173263776 0.09918470380000001
v 0.0385661673 0.030222659100000004 0.1000041485
v 0.035259773700000004 0.020257461100000002 0.0817058372
v 0.0320071911 0.030045411600000002 0.0835837173
v 0.0360160231 0.022339148500000003 0.0812692165
v 0.0281239271 0.017895926200000002 0.0858257198
v 0.025244848700000003 0.026025085400000002 0.08748795510000001
v 0.0427226854 0.028913476500000004 0.09760437970000001
v 0.043408944600000006 0.0193616843 0.0972081661
v 0.0337278437 0.0226745915 0.1027975559
v 0.044900681899999996 0.024028849600000003 0.09634691240000001
v 0.041406614700000004 0.0177581799 0.0983642101
v 0.033646717 0.0238037395 0.1028443909
v 0.0341634273 0.021054008 0.10254606250000001
v 0.0438724065 0.0200223732 0.0969405842
v 0.0380821728 0.030126702800000002 0.1002835846
v 0.0307460832 0.0172794962 0.0843118095
v 0.0300100064 0.0173018646 0.0847367859
v 0.0368739295 0.017895926200000002 0.1009811592
v 0.0339948511 0.026025085400000002 0.10264340400000001
v 0.044853475100000005 0.0228971362 0.0963741684
v 0.0343101406 0.0189625227 0.08225410460000002
v 0.0439014363 0.0274787927 0.0969238281
v 0.025149641 0.021847817900000004 0.0875429249
v 0.0435717082 0.0195740569 0.0971142006
v 0.0448600792 0.0245939612 0.0963703537
v 0.044815023 0.0226170397 0.0963963699
v 0.0292827606 0.0174349821 0.0851566601
v 0.0391331029 0.0330106544 0.0996768284
v 0.0491331029 0.0330106544 0.1169973278
v 0.030991227600000004 0.017296772000000002 0.08417028430000001
v 0.0361506772 0.024028849600000003 0.08119146349999999
v 0.0336703443 0.024370133900000004 0.10283075330000001
v 0.0446367955 0.0217920828 0.09649927140000002
v 0.033899643400000005 0.021847817900000004 0.1026983643
v 0.0324748754 0.0298724651 0.083313694
v 0.0293321681 0.030126702800000002 0.08512813570000001
v 0.0378433489 0.0300605345 0.1004214668
v 0.0447769809 0.0251528335 0.09641833310000002
v 0.0444667601 0.0212601042 0.0965974331
v 0.043757102400000004 0.027708244299999997 0.0970071602
v 0.036103470299999996 0.0228971362 0.0812187195
v 0.0447065807 0.0220639873 0.0964589787
v 0.0395466446 0.0302669907 0.0994380665
v 0.0411773134 0.0176565838 0.0984965992
v 0.0331026125 0.0179955137 0.0829512691
v 0.0423216844 0.029240808500000003 0.0978359032
v 0.0440097738 0.020257461100000002 0.0968612766
v 0.026704199300000002 0.0190020061 0.08664539339999999
v 0.040757191199999994 0.030045411600000002 0.0987391663
v 0.0260753607 0.027754609600000004 0.0870084572
v 0.044766023099999996 0.022339148500000003 0.0964246559
v 0.036148474199999996 0.0234618044 0.0811927414
v 0.035616838899999996 0.021001045700000002 0.08149968149999999
v 0.036065018100000006 0.0226170397 0.08124092100000001
v 0.0348542404 0.027930212000000003 0.0819399643
v 0.0337752771 0.029082191000000004 0.08256290440000001
v 0.0252275395 0.0215788674 0.0874979496
v 0.0366541504 0.0180224979 0.10110805510000001
v 0.0387600064 0.0173018646 0.0998922253
v 0.034524102200000004 0.0283500051 0.0821305752
v 0.0359565758 0.0220639873 0.0813035393
v 0.0424200893 0.0190137267 0.1208730888
v 0.0283482813 0.0177805448 0.08569618229999999
v 0.035507218800000004 0.0207472658 0.0815629673
v 0.0344883132 0.0191577101 0.08215123180000002
v 0.042525279500000006 0.029082191000000004 0.0977183533
v 0.025315525499999998 0.0213140965 0.0874471474
v 0.039741227600000005 0.017296772000000002 0.0993257236
v 0.027317829100000003 0.029115712600000003 0.0862911224
v 0.027904145699999997 0.0180224979 0.08595260619999999
v 0.0442805934 0.0267499352 0.0967049217
v 0.0333622956 0.0293890166 0.08280134200000001
v 0.028169796400000002 0.0296778083 0.0857992363
v 0.0360678315 0.029115712600000003 0.1014465618
v 0.025081975399999998 0.022120437599999997 0.08758198739999999
v 0.0335290026 0.0182768297 0.0827050972
v 0.0354541993 0.0190020061 0.1018008423
v 0.0249159336 0.023237121100000004 0.0876778507
v 0.0394960808 0.0172794962 0.0994672585
v 0.0317061543 0.0178235281 0.10627417559999999
v 0.0441381287 0.020499246100000004 0.0967871761
v 0.0448984742 0.0234618044 0.0963481903
v 0.0321943974 0.0175666344 0.0834756279
v 0.04306013820000001 0.0189625227 0.097409544
v 0.044366838900000004 0.021001045700000002 0.09665513040000001
v 0.032420086800000004 0.0190137267 0.1035525894
v 0.0277331876 0.0294182348 0.0860513115
v 0.0395277476 0.0293686962 0.1202335835
v 0.0305511331 0.0302744532 0.0844243717
v 0.0339775395 0.0215788674 0.102653389
v 0.0346931362 0.028144266600000002 0.08203297620000001
v 0.0314783906 0.0173682594 0.0838890171
v 0.0269268894 0.0287725377 0.0865168285
v 0.0355305886 0.0267499352 0.0815494823
v 0.0380327582 0.0174349821 0.100312109
v 0.0265275549 0.0191990328 0.08674738879999999
v 0.0370982813 0.0177805448 0.10085163120000001
v 0.0432383132 0.0191577101 0.09730668070000001
v 0.044257218800000005 0.0207472658 0.0967184162
v 0.029523420300000002 0.017378406500000002 0.0850177193
v 0.043443138699999995 0.028144266600000002 0.0971884251
v 0.041224873 0.0298724651 0.09846914290000001
v 0.0359696793 0.0254286003 0.08129596709999999
v 0.0340655255 0.0213140965 0.1026025963
v 0.0353881239 0.020499246100000004 0.0816317272
v 0.027119119100000002 0.0289490509 0.0864058399
v 0.0356768918 0.0287725377 0.10167226790000002
v 0.04185261020000001 0.0179955137 0.0981067085
v 0.0256635284 0.0270497918 0.0872462273
v 0.0339325332 0.0185999846 0.08247211460000001
v 0.0382734227 0.017378406500000002 0.1001731586
v 0.0448857235 0.0243119168 0.0963555527
v 0.031528232100000005 0.030170631399999998 0.0838602448
v 0.0315277457 0.0293686962 0.1063771725
v 0.034825358300000005 0.027754609600000004 0.1021639061
v 0.0322773647 0.0282498622 0.1036349869
v 0.034124762999999995 0.0187764966 0.0823611355
v 0.042682535699999996 0.0185999846 0.09762755390000001
v 0.0421122957 0.0293890166 0.0979567814
v 0.048097422099999995 0.0353196859 0.1152858829
v 0.0357361292 0.0262349391 0.0814308071
v 0.0369197964 0.0296778083 0.1009546852
v 0.043604238000000003 0.027930212000000003 0.0970954132
v 0.0263585162 0.0194047689 0.08684496879999999
v 0.0397061514 0.0178235281 0.1201305866
v 0.0484542346 0.0122293508 0.11507987979999999
v 0.0338319754 0.022120437599999997 0.1027374363
v 0.042279002600000004 0.0182768297 0.0978605366
v 0.0295732617 0.0301807785 0.0849889469
v 0.0336659336 0.023237121100000004 0.1028332996
v 0.0305005192 0.0172745848 0.08445359229999999
v 0.0333184647 0.018130799500000003 0.08282665250000001
v 0.040944397400000006 0.0175666344 0.09863107680000001
v 0.0432740998 0.0283500051 0.0972860146
v 0.0361357188 0.0243119168 0.0812001038
v 0.027522649700000002 0.0292722082 0.0861728668
v 0.0261974144 0.0196188235 0.08693799020000001
v 0.0276893568 0.0181600213 0.086076622
v 0.0328818559 0.0178712285 0.0830787277
v 0.024903180599999998 0.0240872335 0.0876852131
v 0.0254348158 0.026547989799999998 0.0873782825
v 0.0352775549 0.0191990328 0.1019028282
v 0.0376072573 0.0299824023 0.1005577755
v 0.034976294000000005 0.0197944272 0.08186949730000001
v 0.0331475067 0.029526538800000002 0.08292534829999999
v 0.0447196794 0.0254286003 0.09645141600000001
v 0.040097420200000004 0.0353196859 0.1014294815
v 0.036272652100000004 0.0292722082 0.1013283062
v 0.0337338233 0.0184333229 0.0825868416
v 0.0422773624 0.0282498622 0.1209554958
v 0.040454232699999995 0.0122293508 0.10122346880000001
v 0.0358691191 0.0289490509 0.10156128880000001
v 0.0255210614 0.020799100400000003 0.0873284817
v 0.0341848182 0.026547989799999998 0.1025337219
v 0.0344135284 0.0270497918 0.1024016762
v 0.040278232100000005 0.030170631399999998 0.0990156841
v 0.0285767793 0.0176765716 0.0855642605
v 0.026563339199999998 0.0283913279 0.0867267227
v 0.0428747631 0.0187764966 0.0975165749
v 0.0288572526 0.0299824023 0.0854023361
v 0.032703371 0.0297684932 0.0831817722
v 0.025095076500000004 0.0254850507 0.08757442470000001
v 0.036483185200000004 0.0294182348 0.1012067604
v 0.0444861292 0.0262349391 0.09658625600000001
v 0.0393011307 0.0302744532 0.09957981110000001
v 0.04022838830000001 0.0173682594 0.099044466
v 0.0351085162 0.0194047689 0.10200042720000001
v 0.0383232617 0.0301807785 0.10014438630000001
v 0.0373267817 0.0176765716 0.1007197094
v 0.0392505192 0.0172745848 0.0996090317
v 0.0272763752 0.0184668434 0.0863150501
v 0.0420684647 0.018130799500000003 0.0979820919
v 0.0405188966 0.030114054700000004 0.0988767338
v 0.0414533734 0.0297684932 0.0983372211
v 0.0343474531 0.0285470319 0.08223256109999999
v 0.0279490399 0.0295535231 0.0859266853
v 0.0462742878 0.0192991757 0.0955538559
v 0.056274287799999996 0.0192991757 0.1128743649
v 0.0336531806 0.0240872335 0.102840662
v 0.056845500400000006 0.029725506300000003 0.11023517610000001
v 0.0290444636 0.0175036263 0.08529424669999999
v 0.043726294 0.0197944272 0.0970249462
v 0.0430974555 0.0285470319 0.09738801000000001
v 0.0317194843 0.0174223328 0.0837498188
v 0.025791881000000003 0.027291574500000002 0.0871721172
v 0.0424838233 0.0184333229 0.09774229050000001
v 0.030060424800000003 0.0302522659 0.08470767970000001
v 0.025544431200000002 0.026801772100000003 0.0873149872
v 0.0317688918 0.030114054700000004 0.08372129440000001
v 0.0342710614 0.020799100400000003 0.1024839306
v 0.025024673900000002 0.022396202100000002 0.08761507030000001
v 0.0345418834 0.027291574500000002 0.10232756609999999
v 0.0319583058 0.0174885023 0.08361193659999999
v 0.0359020114 0.02570122 0.0813350391
v 0.025164859300000002 0.025756952800000003 0.0875341415
v 0.0358241105 0.0259701681 0.0813800049
v 0.0388104271 0.0302522659 0.0998631191
v 0.0267415118 0.0285865116 0.0866238594
v 0.030305569100000002 0.030269541700000003 0.0845661449
v 0.0488454985 0.029725506300000003 0.09637877460000001
v 0.0339148616 0.025756952800000003 0.10268958090000001
v 0.034947412000000004 0.0196188235 0.1020934391
v 0.0364393544 0.0181600213 0.1012320614
v 0.0360263752 0.0184668434 0.10147048950000001
v 0.0561315655 0.0285353112 0.11295677189999999
v 0.0416318535 0.0178712285 0.0982341671
v 0.046131565500000006 0.0285353112 0.0956362629
v 0.0329277253 0.0296531105 0.0830522442
v 0.057023904300000004 0.0181803405 0.1101321697
v 0.0418975043 0.029526538800000002 0.0980807972
v 0.0366990399 0.0295535231 0.1010821342
v 0.036073811000000004 0.024874444000000002 0.0812358475
v 0.0263927102 0.0281873536 0.0868252373
v 0.0302550077 0.0172820449 0.08459533690000001
v 0.0377944636 0.0175036263 0.1004496861
v 0.044556806 0.021523952500000002 0.0965454483
v 0.0260445499 0.01984079 0.0870262432
v 0.0253348922 0.026288931400000003 0.0874359703
v 0.0342944312 0.026801772100000003 0.1024704361
v 0.0353133368 0.0283913279 0.10188217160000002
v 0.0362299704 0.0183082294 0.1013529491
v 0.036131308 0.0231789041 0.08120265959999999
v 0.0249866294 0.0249319983 0.0876370335
v 0.0390050101 0.0172820449 0.0997507763
v 0.0338450741 0.0254850507 0.10272987369999999
v 0.0322426676 0.029964828500000002 0.0834477615
v 0.031041643600000002 0.030247173300000003 0.0841411686
v 0.0249415731 0.0229550767 0.08766304970000001
v 0.0337746739 0.022396202100000002 0.10277051930000002
v 0.034084894600000006 0.026288931400000003 0.10259140970000001
v 0.0312856626 0.0302150297 0.0840002918
v 0.040708305800000004 0.0174885023 0.09876738550000001
v 0.0262299442 0.027974979900000002 0.0869192123
v 0.0446520114 0.02570122 0.0964904785
v 0.0268881201 0.0188140631 0.0865392113
v 0.0445741105 0.0259701681 0.0965354633
v 0.0259002161 0.020070245299999998 0.0871095753
v 0.0490239024 0.0181803405 0.09627576830000001
v 0.0394185519 0.014538383500000002 0.09951202390000001
v 0.0494185519 0.014538383500000002 0.1168325329
v 0.0337366318 0.0249319983 0.1027924824
v 0.0354915118 0.0285865116 0.10177929880000001
v 0.0249481773 0.024651899300000002 0.087659235
v 0.0358068013 0.021523952500000002 0.0813900089
v 0.0250356268 0.0252098894 0.0876087475
v 0.0390555691 0.030269541700000003 0.0997215843
v 0.035638225 0.0264950275 0.08148733139999999
v 0.0361549353 0.023745298400000003 0.0811890125
v 0.0283950376 0.029790856799999998 0.08566919329999999
v 0.024900970400000003 0.0235201859 0.08768649099999999
v 0.0346502184 0.020070245299999998 0.1022650242
v 0.0274799656 0.0183082294 0.08619750979999999
v 0.0270789671 0.0186355615 0.0864290237
v 0.028624336700000003 0.0298924518 0.0855368042
v 0.033698179700000004 0.024651899300000002 0.10281468390000001
v 0.041677725299999996 0.0296531105 0.0982076931
v 0.0404694819 0.0174223328 0.0989052677
v 0.029816169700000002 0.030222659100000004 0.0848486996
v 0.033650972800000005 0.0235201859 0.10284193990000001
v 0.044823811 0.024874444000000002 0.0963912868
v 0.035142710199999996 0.0281873536 0.10198067670000001
v 0.0347945499 0.01984079 0.1021816921
v 0.0248967194 0.0238037395 0.087688942
v 0.0354134297 0.0269991803 0.08161711690000001
v 0.044881308 0.0231789041 0.096358099
v 0.025764687 0.0203067493 0.0871878242
v 0.0409926676 0.029964828500000002 0.09860320090000001
v 0.0397916436 0.030247173300000003 0.09929661749999999
v 0.0336915731 0.0229550767 0.1028184986
v 0.0259292435 0.027526664699999998 0.0870928192
v 0.0256382227 0.020549855199999998 0.0872608376
v 0.0356381201 0.0188140631 0.1016946507
v 0.0440369678 0.0272422862 0.09684557910000001
v 0.0337856268 0.0252098894 0.1027641869
v 0.0346792459 0.027526664699999998 0.10224825859999999
v 0.030525825000000003 0.023774516600000004 0.084438982
v 0.031235482600000003 0.0173263776 0.0840292549
v 0.044388224999999996 0.0264950275 0.09664278030000001
v 0.044904935300000004 0.023745298400000003 0.09634445189999999
v 0.038515994500000005 0.017334007000000002 0.10003311160000002
v 0.0373743367 0.0298924518 0.1006922531
v 0.030796647 0.0302669907 0.0842826176
v 0.0339726853 0.028913476500000004 0.0824489403
v 0.024977843700000002 0.0226745915 0.087642107
v 0.0324273157 0.0176565838 0.0833411503
v 0.0335716867 0.029240808500000003 0.0826804447
v 0.0326566147 0.0177581799 0.08320877080000001
v 0.025413427300000003 0.021054008 0.0873906231
f 2 9 289
f 9 96 289
f 289 96 119
f 96 303 119
f 119 303 272
f 303 189 272
f 272 189 146
f 189 261 146
f 146 261 221
f 261 259 221
f 221 259 219
f 259 171 219
f 219 171 128
f 171 63 128
f 128 63 21
f 63 285 21
f 21 285 237
f 285 50 237
f 237 50 10
f 50 137 10
f 10 137 160
f 137 35 160
f 160 35 56
f 35 304 56
f 56 304 273
f 304 107 273
f 273 107 77
f 107 290 77
f 77 290 247
f 290 45 247
f 247 45 66
f 45 51 66
f 66 51 79
f 51 76 79
f 79 76 29
f 76 67 29
f 29 67 86
f 67 58 86
f 86 58 13
f 58 241 13
f 13 241 269
f 241 64 269
f 269 64 17
f 64 110 17
f 17 110 78
f 110 124 78
f 78 124 89
f 124 106 89
f 89 106 130
f 106 72 130
f 130 72 27
f 72 39 27
f 27 39 1
f 39 207 1
f 1 207 169
f 207 49 169
f 169 49 7
f 49 33 7
f 7 33 24
f 33 123 24
f 24 123 90
f 123 109 90
f 90 109 46
f 109 184 46
f 46 184 142
f 184 143 142
f 142 143 135
f 143 211 135
f 135 211 174
f 211 153 174
f 174 153 101
f 153 197 101
f 101 197 157
f 197 133 157
f 157 133 70
f 133 231 70
f 70 231 164
f 231 36 164
f 164 36 312
f 36 69 312
f 312 69 310
f 69 158 310
f 310 158 108
f 158 257 108
f 108 257 218
f 257 282 218
f 218 282 209
f 282 191 209
f 209 191 117
f 191 25 117
f 117 25 302
f 25 93 302
f 302 93 55
f 93 104 55
f 55 104 41
f 104 195 41
f 41 195 156
f 195 249 156
f 156 249 239
f 249 84 239
f 239 84 42
f 84 305 42
f 42 305 8
f 305 136 8
f 8 136 125
f 136 120 125
f 125 120 52
f 120 240 52
f 52 240 206
f 240 23 206
f 206 23 11
f 23 194 11
f 11 194 182
f 194 122 182
f 182 122 88
f 122 43 88
f 88 43 30
f 43 83 30
f 30 83 95
f 83 228 95
f 95 228 163
f 228 246 163
f 163 246 277
f 246 229 277
f 277 229 196
f 229 22 196
f 196 22 278
f 22 297 278
f 278 297 260
f 297 102 260
f 260 102 73
f 102 167 73
f 73 167 121
f 167 192 121
f 121 192 149
f 192 227 149
f 149 227 162
f 227 287 162
f 162 287 242
f 287 276 242
f 242 276 262
f 276 12 262
f 262 12 291
f 12 15 291
f 291 15 296
f 15 215 296
f 296 215 178
f 215 38 178
f 178 38 313
f 38 129 313
f 313 129 92
f 129 115 92
f 92 115 82
f 115 59 82
f 82 59 48
f 59 152 48
f 48 152 100
f 152 254 100
f 100 254 216
f 254 34 216
f 216 34 309
f 34 294 309
f 309 294 253
f 294 155 253
f 253 155 103
f 155 284 103
f 103 284 275
f 284 37 275
f 275 37 288
f 37 204 288
f 288 204 165
f 204 57 165
f 165 57 14
f 57 280 14
f 14 280 268
f 280 266 268
f 268 266 248
f 266 299 248
f 248 299 270
f 299 250 270
f 270 250 187
f 250 226 187
f 187 226 220
f 226 44 220
f 220 44 31
f 44 255 31
f 31 255 243
f 255 179 243
f 243 179 166
f 179 244 166
f 166 244 213
f 244 180 213
f 213 180 134
f 180 217 134
f 134 217 210
f 217 300 210
f 210 300 295
f 300 140 295
f 295 140 75
f 140 6 75
f 75 6 258
f 6 286 258
f 258 286 238
f 286 245 238
f 238 245 183
f 245 267 183
f 183 267 223
f 267 132 223
f 223 132 118
f 132 177 118
f 118 177 131
f 177 99 131
f 131 99 94
f 99 173 94
f 94 173 161
f 173 188 161
f 161 188 112
f 188 236 112
f 112 236 201
f 236 147 201
f 201 147 98
f 147 19 98
f 98 19 274
f 19 306 274
f 274 306 279
f 306 168 279
f 279 168 185
f 168 62 185
f 185 62 18
f 62 40 18
f 18 40 61
f 40 193 61
f 61 193 154
f 193 26 154
f 154 26 283
f 26 222 283
f 283 222 212
f 222 271 212
f 212 271 224
f 271 190 224
f 224 190 114
f 190 68 114
f 114 68 307
f 68 293 307
f 307 293 252
f 293 4 252
f 252 4 256
f 4 181 256
f 256 181 138
f 181 198 138
f 138 198 214
f 198 74 214
f 214 74 28
f 74 292 28
f 28 292 251
f 292 127 251
f 251 127 60
f 127 199 60
f 60 199 186
f 199 281 186
f 186 281 233
f 281 235 233
f 233 235 170
f 235 144 170
f 170 144 97
f 144 71 97
f 97 71 311
f 71 91 311
f 311 91 81
f 91 32 81
f 81 32 308
f 32 16 308
f 308 16 5
f 16 208 5
f 5 208 200
f 208 159 200
f 200 159 85
f 159 126 85
f 85 126 116
f 126 148 116
f 116 148 80
f 148 65 80
f 80 65 20
f 65 47 20
f 20 47 3
f 47 298 3
f 3 298 2
f 298 9 2
f 242 262 301
f 262 291 301
f 301 291 296
f 121 149 301
f 149 162 301
f 301 162 242
f 278 260 301
f 260 73 301
f 301 73 121
f 163 277 301
f 277 196 301
f 301 196 278
f 88 30 301
f 30 95 301
f 301 95 163
f 206 11 301
f 11 182 301
f 301 182 88
f 8 125 301
f 125 52 301
f 301 52 206
f 156 239 301
f 239 42 301
f 301 42 8
f 302 55 301
f 55 41 301
f 301 41 156
f 218 209 301
f 209 117 301
f 301 117 302
f 312 310 301
f 310 108 301
f 301 108 218
f 157 70 301
f 70 164 301
f 301 164 312
f 135 174 301
f 174 101 301
f 301 101 157
f 90 46 301
f 46 142 301
f 301 142 135
f 169 7 301
f 7 24 301
f 301 24 90
f 130 27 301
f 27 1 301
f 301 1 169
f 17 78 301
f 78 89 301
f 301 89 130
f 86 13 301
f 13 269 301
f 301 269 17
f 66 79 301
f 79 29 301
f 301 29 86
f 273 77 301
f 77 247 301
f 301 247 66
f 10 160 301
f 160 56 301
f 301 56 273
f 128 21 301
f 21 237 301
f 301 237 10
f 146 221 301
f 221 219 301
f 301 219 128
f 289 119 301
f 119 272 301
f 301 272 146
f 20 3 301
f 3 2 301
f 301 2 289
f 85 116 301
f 116 80 301
f 301 80 20
f 308 5 301
f 5 200 301
f 301 200 85
f 97 311 301
f 311 81 301
f 301 81 308
f 186 233 301
f 233 170 301
f 301 170 97
f 28 251 301
f 251 60 301
f 301 60 186
f 256 138 301
f 138 214 301
f 301 214 28
f 114 307 301
f 307 252 301
f 301 252 256
f 283 212 301
f 212 224 301
f 301 224 114
f 18 61 301
f 61 154 301
f 301 154 283
f 274 279 301
f 279 185 301
f 301 185 18
f 112 201 301
f 201 98 301
f 301 98 274
f 131 94 301
f 94 161 301
f 301 161 112
f 183 223 301
f 223 118 301
f 301 118 131
f 75 258 301
f 258 238 301
f 301 238 183
f 134 210 301
f 210 295 301
f 301 295 75
f 243 166 301
f 166 213 301
f 301 213 134
f 187 220 301
f 220 31 301
f 301 31 243
f 268 248 301
f 248 270 301
f 301 270 187
f 288 165 301
f 165 14 301
f 301 14 268
f 253 103 301
f 103 275 301
f 301 275 288
f 100 216 301
f 216 309 301
f 301 309 253
f 92 82 301
f 82 48 301
f 301 48 100
f 296 178 301
f 178 313 301
f 301 313 92
f 113 139 150
f 139 105 150
f 150 105 151
f 105 176 151
f 151 176 234
f 176 263 234
f 234 263 205
f 263 225 205
f 232 225 202
f 225 263 202
f 53 172 232
f 172 225 232
f 176 264 263
f 264 202 263
f 141 139 53
f 139 172 53
f 111 105 141
f 105 139 141
f 105 111 176
f 111 264 176
f 150 87 113
f 87 175 113
f 87 150 265
f 150 151 265
f 113 175 145
f 175 54 145
f 265 151 203
f 151 234 203
f 145 54 205
f 54 230 205
f 205 230 234
f 230 203 234
f 280 57 141
f 45 290 202
f 226 250 141
f 241 58 202
f 58 67 202
f 298 232 9
f 232 96 9
f 226 141 44
f 250 299 141
f 299 266 141
f 141 266 280
f 67 76 202
f 76 51 202
f 202 51 45
f 290 107 202
f 107 304 202
f 202 304 232
f 304 35 232
f 232 35 137
f 123 33 202
f 33 49 202
f 202 49 207
f 202 106 124
f 298 47 232
f 47 65 232
f 232 65 148
f 148 126 232
f 126 159 232
f 232 159 208
f 57 204 141
f 204 37 141
f 141 37 111
f 37 284 111
f 59 115 111
f 115 129 111
f 111 129 38
f 207 39 202
f 39 72 202
f 202 72 106
f 124 110 202
f 110 64 202
f 202 64 241
f 137 50 232
f 50 285 232
f 232 285 63
f 68 190 53
f 190 271 53
f 271 222 53
f 222 26 53
f 53 26 193
f 284 155 111
f 155 294 111
f 111 294 34
f 34 254 111
f 254 152 111
f 111 152 59
f 63 171 232
f 171 259 232
f 232 259 261
f 261 189 232
f 189 303 232
f 232 303 96
f 208 16 232
f 16 32 232
f 232 32 91
f 281 199 53
f 199 127 53
f 53 127 292
f 99 177 141
f 177 132 141
f 244 179 141
f 179 255 141
f 141 255 44
f 211 143 202
f 181 4 53
f 4 293 53
f 53 293 68
f 132 267 141
f 267 245 141
f 141 245 286
f 143 184 202
f 184 109 202
f 202 109 123
f 91 71 232
f 71 144 232
f 232 144 53
f 144 235 53
f 53 235 281
f 292 74 53
f 74 198 53
f 53 198 181
f 286 6 141
f 6 140 141
f 141 140 300
f 300 217 141
f 217 180 141
f 141 180 244
f 104 93 264
f 93 25 264
f 264 25 191
f 191 282 264
f 282 257 264
f 264 257 158
f 231 133 264
f 133 197 264
f 264 197 202
f 197 153 202
f 202 153 211
f 193 40 53
f 40 62 53
f 53 62 168
f 38 215 111
f 215 15 111
f 111 15 12
f 12 276 111
f 276 287 111
f 111 287 227
f 227 192 111
f 192 167 111
f 111 167 102
f 158 69 264
f 69 36 264
f 264 36 231
f 168 306 53
f 306 19 53
f 53 19 147
f 147 236 53
f 236 188 53
f 53 188 141
f 188 173 141
f 141 173 99
f 194 264 122
f 264 43 122
f 194 23 264
f 23 240 264
f 264 240 120
f 102 297 111
f 297 22 111
f 111 22 229
f 229 246 111
f 246 228 111
f 111 228 264
f 228 83 264
f 264 83 43
f 84 249 264
f 249 195 264
f 264 195 104
f 120 136 264
f 136 305 264
f 264 305 84
f 175 87 54
f 87 265 54
f 54 265 230
f 265 203 230
f 145 172 113
f 172 139 113
f 205 225 145
f 225 172 145