# https://github.com/mikedh/trimesh
v -0.0329920769 -0.030162091300000003 0.1413183212
v -0.029856588899999998 -0.0298084927 0.1395080376
v -0.0458289409 -0.0264522624 0.1285224247
v -0.0344901634 -0.0179741454 0.1421832466
v -0.0325059844 -0.0302426934 0.141037674
v -0.0435712004 -0.029365181900000002 0.12721891400000002
v -0.0265297413 -0.0255303574 0.1375872898
v -0.042220237300000005 -0.0300328755 0.126438942
v -0.0274438405 -0.0198783171 0.13811504360000001
v -0.0462092805 -0.0251068568 0.1287420082
v -0.026360397400000003 -0.0230017328 0.1374895096
v -0.025248487000000003 -0.0187287831 0.1368475533
v -0.015248487 -0.0187287831 0.1541680717
v -0.045874688600000005 -0.021216821700000003 0.12854883190000002
v -0.0369455624 -0.02861799 0.1233936024
v -0.045348327199999997 -0.0274400663 0.1282449341
v -0.026348033000000003 -0.0244169307 0.1374823761
v -0.038712449100000004 -0.017693007 0.1244137096
v -0.0318836236 -0.017274965 0.14067834850000002
v -0.029630644400000003 -0.0296973276 0.139377594
v -0.034821198 -0.029365181900000002 0.1423743629
v -0.0454114318 -0.0202180195 0.128281374
v -0.041124456000000004 -0.017293055100000003 0.125806284
v -0.0305565715 -0.030072333800000003 0.1399121761
v -0.0297346068 -0.0177988863 0.1394376183
v -0.03729805 -0.0217473626 0.143804369
v -0.0351449109 -0.022720954400000003 0.12235399250000001
v -0.032374453600000005 -0.017293055100000003 0.1409617329
v -0.0312803865 -0.0302284169 0.1403300762
v -0.0375701786 -0.023414855000000002 0.1439614868
v -0.0375759387 -0.023981869200000002 0.1439648151
v -0.0408792091 -0.0172778261 0.1256646919
v -0.0461537052 -0.0253830934 0.1287099266
v -0.0454823709 -0.0272024345 0.1283223343
v -0.035916905400000004 -0.0203466034 0.12279971120000001
v -0.0352455712 -0.022165942200000004 0.1224121189
v -0.0323833633 -0.0145505011 0.14096687319999998
v -0.0223833633 -0.0145505011 0.1582873917
v -0.0405200673 -0.030271210700000002 0.1254573441
v -0.0349183011 -0.0182518935 0.1424304199
v -0.0374592805 -0.0251068568 0.1438974571
v -0.0351276327 -0.024698457700000002 0.1223440266
v -0.0371246887 -0.021216821700000003 0.1437042809
v -0.0462543655 -0.0248280835 0.1287680435
v -0.0281955624 -0.02861799 0.1385490417
v -0.036598327199999996 -0.0274400663 0.143400383
v -0.046320183300000005 -0.023414855000000002 0.1288060379
v -0.036144209 -0.0281093502 0.14313819889999999
v -0.029962449100000003 -0.017693007 0.1395691681
v -0.0402748204 -0.030255982900000002 0.125315752
v -0.0462716461 -0.0228505802 0.1287780285
v -0.036661431800000005 -0.0202180195 0.1434368229
v -0.0426868272 -0.0298560286 0.1267083263
v -0.0356763697 -0.0208409739 0.1226608372
v -0.044453713900000004 -0.0189310455 0.1277284336
v -0.0360509491 -0.0201089692 0.12287710190000001
v -0.0263949109 -0.022720954400000003 0.1375094318
v -0.039179039000000006 -0.0175161624 0.12468310360000001
v -0.0378280759 -0.018183854800000003 0.1239031219
v -0.0269263673 -0.0208409739 0.1378162766
v -0.0370789433 -0.0264522624 0.1436778736
v -0.0314917946 -0.0122444952 0.1427615261
v -0.0355703354 -0.021096775499999998 0.12259962079999999
v -0.0457229114 -0.0267080617 0.12846120830000002
v -0.0321292091 -0.0172778261 0.14082014080000002
v -0.0374037052 -0.0253830934 0.1438653755
v -0.0304074812 -0.0353045416 0.1421355057
v -0.0334702397 -0.0300328755 0.1415943813
v -0.036732370900000005 -0.0272024345 0.14347778320000001
v -0.0271669054 -0.0203466034 0.1379551601
v -0.0304290367 -0.0175161624 0.1398385429
v -0.0350733376 -0.023567168700000002 0.1223126698
v -0.026495571199999998 -0.022165942200000004 0.1375675678
v -0.0224074817 -0.0353045416 0.1559919167
v -0.0317700673 -0.030271210700000002 0.140612793
v -0.039657197000000005 -0.0173869455 0.12495917320000001
v -0.026820333000000002 -0.021096775499999998 0.1377550697
v -0.036972909 -0.0267080617 0.14361664770000002
v -0.0350790978 -0.0241341805 0.1223159981
v -0.041368889900000004 -0.0173206198 0.1259474182
v -0.0359878469 -0.027331016099999998 0.122840662
v -0.026377632700000004 -0.024698457700000002 0.1374994659
v -0.042914669600000004 -0.0297501516 0.1268398762
v -0.0365050698 -0.0194396865 0.12313928600000001
v -0.023491796300000003 -0.0122444952 0.1566179371
v -0.0441785932 -0.028884556300000003 0.1275695992
v -0.0272378445 -0.027331016099999998 0.13799611090000002
v -0.0375216461 -0.0228505802 0.1439334583
v -0.0355245901 -0.0263322163 0.12257320399999999
v -0.0351899982 -0.0224421787 0.12238002780000001
v -0.043018631999999994 -0.0178517067 0.1268999004
v -0.0377309776 -0.029297141999999998 0.1238470554
v -0.033936827200000005 -0.0298560286 0.1418637657
v -0.0463012433 -0.023132107300000003 0.1287950993
v -0.0449690961 -0.0195382905 0.1280259895
v -0.0277550674 -0.0194396865 0.13829472539999998
v -0.037525179400000004 -0.029142363100000002 0.1237282467
v -0.0273009491 -0.0201089692 0.1380325413
v -0.0357037139 -0.0189310455 0.1428838825
v -0.0461195349 -0.0220186782 0.1286901951
v -0.026774587699999998 -0.0263322163 0.1377286434
v -0.046288879 -0.024547302700000002 0.1287879658
v -0.0264399958 -0.0224421787 0.1375354671
v -0.0289809752 -0.029297141999999998 0.1390025043
v -0.040143292 -0.0173063421 0.12523982050000002
v -0.038159113 -0.0295748925 0.1240942478
v -0.021515913100000002 -0.0329985356 0.1577865601
v -0.0358579803 -0.027090311100000004 0.12276569370000001
v -0.0315159131 -0.0329985356 0.1404660511
v -0.036126678 -0.027564952400000002 0.12292081830000001
v -0.0386507869 -0.0288202548 0.144585371
v -0.0350865245 -0.023283984700000003 0.12232028959999999
v -0.038836515 -0.0299081731 0.1244853401
v -0.0375043679 -0.0248280835 0.1439234924
v -0.0353512288 -0.0258016706 0.12247311590000001
v -0.0263233376 -0.023567168700000002 0.1374681187
v -0.0420927072 -0.0174767017 0.1263652992
v -0.0376196194 -0.0183338094 0.1237827682
v -0.0263290978 -0.0241341805 0.1374714375
v -0.0326188899 -0.0173206198 0.1411028481
v -0.04185347550000001 -0.0174125326 0.1262271881
v -0.042455203600000005 -0.0299503303 0.1265745926
v -0.031524822800000005 -0.030255982900000002 0.1404712009
v -0.0434568549 -0.0181076264 0.12715290070000002
v -0.0407656551 -0.030274071700000002 0.12559912680000002
v -0.0341646696 -0.0297501516 0.1419953156
v -0.0452054381 -0.0276707196 0.12816244129999999
v -0.035432894300000004 -0.026069126100000003 0.1225202656
v -0.0290780783 -0.018183854800000003 0.1390585709
v -0.034268632 -0.0178517067 0.1420553303
v -0.0353115249 -0.0218927646 0.1224501991
v -0.0375512433 -0.023132107300000003 0.1439505482
v -0.042792689800000006 -0.0177405417 0.1267694378
v -0.028650789300000003 -0.0288202548 0.16190588000000003
v -0.037369535 -0.0220186782 0.143845644
v -0.037538879000000004 -0.024547302700000002 0.14394341470000002
v -0.031393292 -0.0173063421 0.1403952503
v -0.0309071994 -0.0173869455 0.140114603
v -0.029409112999999997 -0.0295748925 0.1392496967
v -0.0340426875 -0.0177405417 0.1419248867
v -0.044368319600000004 -0.0287044668 0.12767913820000001
v -0.0350708604 -0.0238507462 0.1223112392
v -0.026601228799999998 -0.0258016706 0.1376285553
v -0.0333427072 -0.0174767017 0.1415207577
v -0.0397872258 -0.0301885653 0.1250342464
v -0.033705203600000004 -0.0299503303 0.14173004150000001
v -0.0356183172 -0.0287044668 0.14283457759999998
v -0.0354285956 -0.028884556300000003 0.1427250385
v -0.0457731462 -0.020958602399999998 0.12849020960000002
v -0.0320156551 -0.030274071700000002 0.1407545853
v -0.0390699912 -0.029996175799999997 0.1246201515
v -0.0447264648 -0.028316493 0.1278859043
v -0.0362190986 -0.0195382905 0.1431814384
v -0.0287751818 -0.029142363100000002 0.1388836956
v -0.0433572746 -0.029504492299999997 0.1270954037
v -0.0310372234 -0.0301885653 0.1401896763
v -0.039899482800000004 -0.0173405206 0.1250990486
v -0.035474062 -0.021357674599999998 0.1225440311
v -0.039416897299999996 -0.0174455285 0.12482042310000001
v -0.0450539661 -0.0278939557 0.1280749893
v -0.0365942669 -0.028221755 0.1231907845
v -0.0364554382 -0.0276707196 0.14331789020000002
v -0.0451250577 -0.0197573662 0.128116045
v -0.0362742162 -0.0277916718 0.1230060005
v -0.040699637 -0.023774516600000004 0.125561018
v -0.0367661715 -0.0284242988 0.1232900333
v -0.0271079827 -0.027090311100000004 0.1379211426
v -0.0439822484 -0.0290549183 0.1274562359
v -0.0273766804 -0.027564952400000002 0.1380762577
v -0.0357373333 -0.0268432951 0.1226960373
v -0.0263365269 -0.023283984700000003 0.137475729
v -0.0403881622 -0.0172844768 0.1253811836
v -0.0300865174 -0.0299081731 0.13964078900000002
v -0.035218575 -0.0252557015 0.1223965263
v -0.046231439099999994 -0.0225708127 0.1287548065
v -0.0288696218 -0.0183338094 0.1389382172
v -0.0220310426 -0.0289973736 0.1372993565
v -0.035387740200000004 -0.0216231728 0.1224941921
v -0.0371320987 -0.028802464 0.1235013008
v -0.033103478000000006 -0.0174125326 0.141382637
v -0.0263208604 -0.0238507462 0.1374666882
v -0.03732543 -0.028977365499999998 0.12361291890000001
v -0.0347068572 -0.0181076264 0.1423083401
v -0.0456073118 -0.0269582796 0.1283944702
v -0.0357919646 -0.020590758299999998 0.1227275753
v -0.043138294300000005 -0.0296328974 0.1269689751
v -0.026468572699999998 -0.0252557015 0.13755197530000002
v -0.014031043100000001 -0.0289973736 0.1511557674
v -0.0440738464 -0.0185716712 0.1275091171
v -0.0442671776 -0.0187465739 0.1276207447
v -0.0368482209 -0.0190340447 0.12333740230000001
v -0.026637737800000002 -0.0216231728 0.13764964100000002
v -0.0460115362 -0.0259258652 0.1286278534
v -0.0248147619 -0.0279528022 0.1365971375
v -0.0148147619 -0.0279528022 0.1539176559
v -0.035167837199999996 -0.024978225200000002 0.12236722950000001
v -0.0145732004 -0.0174673498 0.1514687824
v -0.0225732005 -0.0174673498 0.13761237140000002
v -0.0370231462 -0.020958602399999998 0.1436456585
v -0.045661943 -0.020705742800000003 0.12842601780000001
v -0.0368573094 -0.0269582796 0.1435499001
v -0.0266828967 -0.026069126100000003 0.13767571450000002
v -0.037417028000000005 -0.0184941196 0.1236658001
v -0.0303199912 -0.029996175799999997 0.1397755909
v -0.0446331048 -0.0191247392 0.1278320122
v -0.0355171752 -0.0187465739 0.1427761936
v -0.035976464799999996 -0.028316493 0.1430413532
v -0.026561527300000002 -0.0218927646 0.13760563850000002
v -0.026724062000000003 -0.021357674599999998 0.1376994896
v -0.0306668973 -0.0174455285 0.139975872
v -0.0363039661 -0.0278939557 0.1432304382
v -0.041982379 -0.030103507 0.1263016129
v -0.0448050094 -0.0193272829 0.1279312515
v -0.045925214299999996 -0.0261913633 0.1285780048
v -0.0363453103 -0.019655081 0.1230470467
v -0.041499793599999994 -0.0302085161 0.12602299690000002
v -0.0460877489 -0.025656271 0.1286718559
v -0.0380420018 -0.0180445421 0.12402663230000001
v -0.0275242162 -0.0277916718 0.1381614494
v -0.0280161715 -0.0284242988 0.1384454823
v -0.0352322484 -0.0290549183 0.1426116848
v -0.0366728116 -0.0192325413 0.1232361317
v -0.0423292852 -0.017552862199999998 0.1265019035
v -0.0382609845 -0.0179161394 0.1241530609
v -0.0459663797 -0.0214799094 0.1286017704
v -0.0269873333 -0.0268432951 0.1378514767
v -0.0316381622 -0.0172844768 0.1405366325
v -0.0374814392 -0.0225708127 0.1439102554
v -0.032749791199999996 -0.0302085161 0.1411784267
v -0.041612050500000004 -0.017360471500000002 0.1260877991
v -0.0292919994 -0.0180445421 0.13918207170000002
v -0.0283820987 -0.028802464 0.1386567497
v -0.028575430000000002 -0.028977365499999998 0.1387683582
v -0.0461807037 -0.022293336400000002 0.1287255096
v -0.0410111165 -0.0302645612 0.12574085240000002
v -0.034388294300000004 -0.0296328974 0.1421244335
v -0.0370309568 -0.018844571100000002 0.12344290730000002
v -0.035323846400000004 -0.0185716712 0.142664566
v -0.0280982209 -0.0190340447 0.1384928513
v -0.034607277 -0.029504492299999997 0.1422508526
v -0.0311494852 -0.0173405206 0.1402544975
v -0.0264178372 -0.024978225200000002 0.13752267840000001
v -0.042562758900000004 -0.0176408648 0.12663669589999998
v -0.027844269300000002 -0.028221755 0.1383462238
v -0.036911942999999996 -0.020705742800000003 0.1435814476
v -0.0393260742 -0.030081687000000003 0.1472846603
v -0.0463127494 -0.0242650533 0.1288017464
v -0.045541293600000005 -0.020458726899999998 0.1283563519
v -0.028667028 -0.0184941196 0.1388212395
v -0.0358831048 -0.0191247392 0.1429874611
v -0.0363750601 -0.0197573662 0.14327149390000002
v -0.0386065865 -0.0298084927 0.12435259820000001
v -0.0445510602 -0.028514993199999998 0.1277846432
v -0.0313260746 -0.030081687000000003 0.16114107130000002
v -0.035626132500000005 -0.0265904355 0.12263183590000001
v -0.036055009400000004 -0.0193272829 0.14308670040000002
v -0.033232379 -0.030103507 0.14145705220000002
v -0.0371752143 -0.0261913633 0.1437334538
v -0.027595310300000002 -0.019655081 0.13820248599999999
v -0.037337748999999996 -0.025656271 0.1438272858
v -0.0358010579 -0.028514993199999998 0.1429400921
v -0.0279228116 -0.0192325413 0.138391571
v -0.0335792852 -0.017552862199999998 0.1416573334
v -0.0295109845 -0.0179161394 0.1393085098
v -0.0406336213 -0.017274965 0.1255229092
v -0.0372163797 -0.0214799094 0.1437572289
v -0.046328418200000006 -0.023698289400000003 0.1288107967
v -0.027041967 -0.020590758299999998 0.1378830242
v -0.0395458007 -0.0301365042 0.12489484790000001
v -0.037942421500000004 -0.0294414115 0.1239691353
v -0.0389440728 -0.0175987077 0.1245474434
v -0.0437796569 -0.0292152286 0.1273392773
v -0.037261538500000004 -0.0259258652 0.1437832832
v -0.046048047499999994 -0.0217473626 0.1286489201
v -0.0393065691 -0.030072333800000003 0.1247567272
v -0.0374307037 -0.022293336400000002 0.1438809586
v -0.0322611165 -0.0302645612 0.1408962917
v -0.0375784159 -0.023698289400000003 0.1439662457
v -0.030795798300000003 -0.0301365042 0.1400502968
v -0.0350296545 -0.0292152286 0.1424947071
v -0.0318682337 -0.0185516644 0.1614540863
v -0.0432401634 -0.0179741454 0.1270277977
v -0.0412559844 -0.0302426934 0.12588222500000001
v -0.0390845156 -0.0195962358 0.1448357868
v -0.0290845156 -0.0195962358 0.16215629580000002
v -0.0361938405 -0.0198783171 0.1229595947
v -0.033812759 -0.0176408648 0.1417921352
v -0.0375627494 -0.0242650533 0.1439571953
v -0.0365225959 -0.0199840856 0.1433566666
v -0.0438740969 -0.018406672500000002 0.12739379879999999
v -0.0364301801 -0.028010745 0.1230960464
v -0.0367912937 -0.020458726899999998 0.1435118008
v -0.035098033 -0.0244169307 0.1223269367
v -0.0436682988 -0.0182518935 0.12727497100000001
v -0.038380644400000004 -0.0296973276 0.12422215460000001
v -0.0268761325 -0.0265904355 0.1377872849
v -0.0372206831 -0.0186644816 0.1235524368
v -0.0448942065 -0.0281093502 0.1279827499
v -0.0351240945 -0.018406672500000002 0.1425492287
v -0.027680177700000003 -0.028010745 0.1382514954
v -0.032862053 -0.017360471500000002 0.14124324800000002
v -0.0384846068 -0.0177988863 0.1242821693
v -0.0398682356 -0.0185516644 0.1475976753
v -0.0452726007 -0.0199840856 0.1282012177
v -0.029192421500000003 -0.0294414115 0.1391245842
v -0.0301940728 -0.0175987077 0.1397028828
v -0.028470680800000002 -0.0186644816 0.1387078953
v -0.0282809592 -0.018844571100000002 0.1385983562
v -0.0400303865 -0.0302284169 0.1251746273
v -0.0417420793 -0.030162091300000003 0.1261628723
v -0.0463259387 -0.023981869200000002 0.1288093662
v -0.0352797437 -0.0255303574 0.1224318409
v -0.035110399800000004 -0.0230017328 0.12233407019999999
f 56 70 35
f 70 268 35
f 35 268 185
f 268 60 185
f 185 60 54
f 60 77 54
f 54 77 63
f 77 209 63
f 63 209 158
f 209 192 158
f 158 192 178
f 192 208 178
f 178 208 131
f 208 73 131
f 131 73 36
f 73 103 36
f 36 103 90
f 103 57 90
f 90 57 27
f 57 11 27
f 27 11 313
f 11 171 313
f 313 171 112
f 171 116 112
f 112 116 72
f 116 181 72
f 72 181 142
f 181 119 142
f 142 119 79
f 119 17 79
f 79 17 293
f 17 82 293
f 293 82 42
f 82 242 42
f 42 242 196
f 242 187 196
f 196 187 174
f 187 7 174
f 174 7 312
f 7 143 312
f 312 143 115
f 143 202 115
f 115 202 128
f 202 101 128
f 128 101 89
f 101 296 89
f 89 296 255
f 296 226 255
f 255 226 170
f 226 167 170
f 170 167 108
f 167 87 108
f 108 87 81
f 87 169 81
f 81 169 110
f 169 219 110
f 110 219 164
f 219 300 164
f 164 300 291
f 300 244 291
f 291 244 161
f 244 220 161
f 161 220 166
f 220 45 166
f 166 45 15
f 45 232 15
f 15 232 179
f 232 233 179
f 179 233 182
f 233 154 182
f 182 154 97
f 154 104 97
f 97 104 92
f 104 305 92
f 92 305 270
f 305 139 270
f 270 139 106
f 139 20 106
f 106 20 295
f 20 2 295
f 295 2 252
f 2 173 252
f 252 173 113
f 173 204 113
f 113 204 151
f 204 24 151
f 151 24 275
f 24 279 275
f 275 279 269
f 279 156 269
f 269 156 145
f 156 29 145
f 145 29 309
f 29 123 309
f 309 123 50
f 123 75 50
f 50 75 39
f 75 150 39
f 39 150 125
f 150 277 125
f 125 277 235
f 277 5 235
f 235 5 283
f 5 229 283
f 283 229 216
f 229 1 216
f 216 1 310
f 1 257 310
f 310 257 212
f 257 68 212
f 212 68 8
f 68 146 8
f 8 146 122
f 146 93 122
f 122 93 53
f 93 126 53
f 53 126 83
f 126 236 83
f 83 236 186
f 236 240 186
f 186 240 155
f 240 21 155
f 155 21 6
f 21 280 6
f 6 280 272
f 280 221 272
f 272 221 168
f 221 148 168
f 168 148 86
f 148 147 86
f 86 147 141
f 147 261 141
f 141 261 253
f 261 207 253
f 253 207 152
f 207 48 152
f 152 48 298
f 48 211 298
f 298 211 160
f 211 162 160
f 160 162 127
f 162 46 127
f 127 46 16
f 46 69 16
f 16 69 34
f 69 201 34
f 34 201 184
f 201 78 184
f 184 78 64
f 78 61 64
f 64 61 3
f 61 258 3
f 3 258 214
f 258 273 214
f 214 273 193
f 273 260 193
f 193 260 217
f 260 66 217
f 217 66 33
f 66 41 33
f 33 41 10
f 41 114 10
f 10 114 44
f 114 136 44
f 44 136 102
f 136 288 102
f 102 288 247
f 288 31 247
f 247 31 311
f 31 278 311
f 311 278 267
f 278 30 267
f 267 30 47
f 30 132 47
f 47 132 94
f 132 88 94
f 94 88 51
f 88 228 51
f 51 228 175
f 228 276 175
f 175 276 234
f 276 135 234
f 234 135 100
f 135 26 100
f 100 26 274
f 26 266 274
f 274 266 225
f 266 43 225
f 225 43 14
f 43 199 14
f 14 199 149
f 199 245 149
f 149 245 200
f 245 292 200
f 200 292 248
f 292 52 248
f 248 52 22
f 52 289 22
f 22 289 304
f 289 251 304
f 304 251 163
f 251 153 163
f 163 153 95
f 153 256 95
f 95 256 213
f 256 250 213
f 213 250 205
f 250 99 205
f 205 99 55
f 99 206 55
f 55 206 190
f 206 238 190
f 190 238 189
f 238 299 189
f 189 299 290
f 299 40 290
f 290 40 294
f 40 183 294
f 294 183 124
f 183 4 124
f 124 4 282
f 4 130 282
f 282 130 91
f 130 140 91
f 91 140 133
f 140 287 133
f 133 287 243
f 287 263 243
f 243 263 223
f 263 144 223
f 223 144 117
f 144 180 117
f 117 180 121
f 180 301 121
f 121 301 230
f 301 120 230
f 230 120 80
f 120 28 80
f 80 28 23
f 28 65 23
f 23 65 32
f 65 19 32
f 32 19 265
f 19 227 265
f 265 227 172
f 227 137 172
f 172 137 105
f 137 241 105
f 105 241 157
f 241 138 157
f 157 138 76
f 138 210 76
f 76 210 159
f 210 71 159
f 159 71 58
f 71 306 58
f 58 306 271
f 306 49 271
f 271 49 18
f 49 25 18
f 18 25 302
f 25 264 302
f 302 264 224
f 264 231 224
f 224 231 218
f 231 129 218
f 218 129 59
f 129 176 59
f 59 176 118
f 176 249 118
f 118 249 203
f 249 307 203
f 203 307 297
f 307 308 297
f 297 308 237
f 308 239 237
f 237 239 191
f 239 262 191
f 191 262 222
f 262 96 222
f 222 96 84
f 96 259 84
f 84 259 215
f 259 9 215
f 215 9 286
f 9 98 286
f 286 98 56
f 98 70 56
f 160 127 165
f 127 16 165
f 165 16 34
f 253 152 165
f 152 298 165
f 165 298 160
f 168 86 165
f 86 141 165
f 165 141 253
f 155 6 165
f 6 272 165
f 165 272 168
f 53 83 165
f 83 186 165
f 165 186 155
f 212 8 165
f 8 122 165
f 165 122 53
f 283 216 165
f 216 310 165
f 165 310 212
f 39 125 165
f 125 235 165
f 165 235 283
f 145 309 165
f 309 50 165
f 165 50 39
f 151 275 165
f 275 269 165
f 165 269 145
f 295 252 165
f 252 113 165
f 165 113 151
f 92 270 165
f 270 106 165
f 165 106 295
f 179 182 165
f 182 97 165
f 165 97 92
f 161 166 165
f 166 15 165
f 165 15 179
f 110 164 165
f 164 291 165
f 165 291 161
f 170 108 165
f 108 81 165
f 165 81 110
f 128 89 165
f 89 255 165
f 165 255 170
f 174 312 165
f 312 115 165
f 165 115 128
f 293 42 165
f 42 196 165
f 165 196 174
f 72 142 165
f 142 79 165
f 165 79 293
f 27 313 165
f 313 112 165
f 165 112 72
f 131 36 165
f 36 90 165
f 165 90 27
f 63 158 165
f 158 178 165
f 165 178 131
f 35 185 165
f 185 54 165
f 165 54 63
f 215 286 165
f 286 56 165
f 165 56 35
f 191 222 165
f 222 84 165
f 165 84 215
f 203 297 165
f 297 237 165
f 165 237 191
f 218 59 165
f 59 118 165
f 165 118 203
f 18 302 165
f 302 224 165
f 165 224 218
f 159 58 165
f 58 271 165
f 165 271 18
f 105 157 165
f 157 76 165
f 165 76 159
f 32 265 165
f 265 172 165
f 165 172 105
f 230 80 165
f 80 23 165
f 165 23 32
f 223 117 165
f 117 121 165
f 165 121 230
f 91 133 165
f 133 243 165
f 165 243 223
f 294 124 165
f 124 282 165
f 165 282 91
f 190 189 165
f 189 290 165
f 165 290 294
f 213 205 165
f 205 55 165
f 165 55 190
f 304 163 165
f 163 95 165
f 165 95 213
f 200 248 165
f 248 22 165
f 165 22 304
f 225 14 165
f 14 149 165
f 165 149 200
f 234 100 165
f 100 274 165
f 165 274 225
f 94 51 165
f 51 175 165
f 165 175 234
f 311 267 165
f 267 47 165
f 165 47 94
f 44 102 165
f 102 247 165
f 165 247 311
f 217 33 165
f 33 10 165
f 165 10 44
f 3 214 165
f 214 193 165
f 165 193 217
f 34 184 165
f 184 64 165
f 165 64 3
f 281 303 254
f 303 246 254
f 254 246 74
f 246 67 74
f 74 67 188
f 67 177 188
f 188 177 197
f 177 198 197
f 12 198 194
f 198 177 194
f 37 62 12
f 62 198 12
f 67 109 177
f 109 194 177
f 284 303 37
f 303 62 37
f 111 246 284
f 246 303 284
f 246 111 67
f 111 109 67
f 254 134 281
f 134 285 281
f 134 254 107
f 254 74 107
f 281 285 85
f 285 38 85
f 107 74 195
f 74 188 195
f 85 38 197
f 38 13 197
f 197 13 188
f 13 195 188
f 11 57 12
f 276 228 284
f 119 181 194
f 181 116 194
f 194 116 12
f 116 171 12
f 12 171 11
f 208 192 12
f 192 209 12
f 12 209 77
f 260 273 111
f 273 258 111
f 187 242 194
f 219 169 194
f 242 82 194
f 82 17 194
f 194 17 119
f 57 103 12
f 103 73 12
f 12 73 208
f 228 88 284
f 88 132 284
f 284 132 30
f 305 104 109
f 28 120 37
f 266 26 284
f 26 135 284
f 284 135 276
f 136 114 111
f 169 87 194
f 87 167 194
f 194 167 226
f 226 296 194
f 296 101 194
f 194 101 202
f 202 143 194
f 143 7 194
f 194 7 187
f 176 129 12
f 129 231 12
f 12 231 37
f 114 41 111
f 41 66 111
f 111 66 260
f 258 61 111
f 61 78 111
f 111 78 201
f 109 104 194
f 104 154 194
f 194 154 233
f 233 232 194
f 232 45 194
f 194 45 220
f 12 70 98
f 231 264 37
f 264 25 37
f 37 25 49
f 238 206 284
f 206 99 284
f 99 250 284
f 284 250 256
f 256 153 284
f 153 251 284
f 284 251 289
f 30 278 284
f 278 31 284
f 284 31 111
f 31 288 111
f 111 288 136
f 201 69 111
f 69 46 111
f 111 46 162
f 2 109 173
f 109 204 173
f 2 20 109
f 20 139 109
f 109 139 305
f 220 244 194
f 244 300 194
f 194 300 219
f 77 60 12
f 60 268 12
f 12 268 70
f 98 9 12
f 9 259 12
f 12 259 96
f 308 307 12
f 307 249 12
f 12 249 176
f 49 306 37
f 306 71 37
f 37 71 210
f 37 137 227
f 120 301 37
f 301 180 37
f 37 180 144
f 289 52 284
f 52 292 284
f 284 292 245
f 245 199 284
f 199 43 284
f 284 43 266
f 147 111 261
f 111 207 261
f 147 148 111
f 148 221 111
f 111 221 280
f 210 138 37
f 138 241 37
f 37 241 137
f 227 19 37
f 19 65 37
f 37 65 28
f 37 183 40
f 162 211 111
f 211 48 111
f 111 48 207
f 280 21 111
f 21 240 111
f 111 240 109
f 240 236 109
f 109 236 126
f 126 93 109
f 93 146 109
f 109 146 68
f 96 262 12
f 262 239 12
f 12 239 308
f 109 229 5
f 37 40 284
f 40 299 284
f 284 299 238
f 68 257 109
f 257 1 109
f 109 1 229
f 5 277 109
f 277 150 109
f 109 150 75
f 75 123 109
f 123 29 109
f 109 29 156
f 144 263 37
f 263 287 37
f 37 287 140
f 156 279 109
f 279 24 109
f 109 24 204
f 140 130 37
f 130 4 37
f 37 4 183
f 107 195 134
f 195 13 134
f 134 13 285
f 13 38 285
f 85 62 281
f 62 303 281
f 197 198 85
f 198 62 85