# Created by FreeCAD <https://www.freecad.org>
v 1.000000 3.000000 4.000000
v -1.000000 3.000000 2.000000
v 1.000000 3.000000 2.000000
v -1.000000 3.000000 4.000000
v -1.000000 4.000000 2.000000
v -1.000000 4.000000 4.000000
v 1.000000 4.000000 4.000000
v 1.000000 4.000000 2.000000
v 3.574118 -1.074118 1.996593
v 3.600000 -1.100000 2.000000
v 3.600000 1.100000 2.000000
v 3.574118 1.074118 1.996593
v 3.550000 -1.050000 1.986603
v 3.550000 1.050000 1.986603
v 3.529289 -1.029289 1.970711
v 3.529289 1.029289 1.970711
v 3.514736 -1.014736 1.952250
v 3.514736 1.014736 1.952250
v 3.506373 -1.006373 1.935127
v 3.506373 1.006373 1.935127
v 3.501746 -1.001746 1.918607
v 3.501746 1.001746 1.918607
v 3.500437 -1.000438 1.909344
v 3.500437 1.000438 1.909344
v 3.500000 -1.000000 1.900000
v 3.500000 1.000000 1.900000
v 0.915496 1.084504 1.998792
v 0.900000 1.100000 2.000000
v 0.900000 -1.100000 2.000000
v 0.925882 -1.074118 1.996593
v 0.930618 1.069382 1.995197
v 0.950000 -1.050000 1.986603
v 0.951430 1.048570 1.985761
v 0.965332 1.034668 1.975708
v 0.970711 -1.029289 1.970711
v 0.977311 1.022689 1.963427
v 0.985264 -1.014736 1.952250
v 0.987015 1.012985 1.949280
v 0.993627 -1.006373 1.935127
v 0.994157 1.005843 1.933682
v 0.998254 -1.001746 1.918607
v 0.998528 1.001472 1.917092
v 0.999562 -1.000438 1.909344
v 1.000000 1.000000 1.900000
v 1.000000 -1.000000 1.900000
v 1.000000 1.000000 1.000000
v 3.500000 1.000000 1.000000
v 1.000000 -1.000000 1.000000
v -4.000000 -2.500000 2.000000
v -5.500000 -2.500000 2.000000
v -5.500000 -4.000000 2.000000
v -0.900000 -1.100000 2.000000
v -3.600000 -1.100000 2.000000
v -4.000000 2.500000 2.000000
v -5.500000 4.000000 2.000000
v -5.500000 2.500000 2.000000
v -0.900000 1.100000 2.000000
v 4.000000 -2.500000 2.000000
v 5.500000 -4.000000 2.000000
v -3.600000 1.100000 2.000000
v 5.500000 -2.500000 2.000000
v 4.000000 2.500000 2.000000
v 5.500000 4.000000 2.000000
v 5.500000 2.500000 2.000000
v -3.584504 -1.084504 1.998792
v -0.925882 -1.074118 1.996593
v -3.569382 -1.069382 1.995197
v -0.950000 -1.050000 1.986603
v -3.548569 -1.048570 1.985761
v -3.534668 -1.034668 1.975708
v -0.970711 -1.029289 1.970711
v -3.522689 -1.022689 1.963427
v -0.985264 -1.014736 1.952250
v -3.512985 -1.012985 1.949280
v -0.993627 -1.006373 1.935127
v -3.505843 -1.005843 1.933682
v -0.998254 -1.001746 1.918607
v -3.501472 -1.001472 1.917092
v -0.999562 -1.000437 1.909344
v -3.500000 -1.000000 1.900000
v -1.000000 -1.000000 1.900000
v -0.925882 1.074118 1.996593
v -0.950000 1.050000 1.986603
v -0.970711 1.029289 1.970711
v -0.985264 1.014736 1.952250
v -0.993627 1.006373 1.935127
v -0.998254 1.001746 1.918607
v -0.999562 1.000437 1.909344
v -1.000000 1.000000 1.900000
v -3.574118 1.074118 1.996593
v -3.550000 1.050000 1.986603
v -3.529289 1.029289 1.970711
v -3.514736 1.014736 1.952250
v -3.506373 1.006373 1.935127
v -3.501746 1.001746 1.918607
v -3.500437 1.000437 1.909344
v -3.500000 1.000000 1.900000
v -3.500000 -1.000000 1.000000
v -3.500000 1.000000 1.000000
v -1.000000 -1.000000 1.000000
v 3.500000 -1.000000 1.000000
v -1.000000 1.000000 1.000000
v 5.500000 2.500000 0.000000
v 5.500000 4.000000 0.000000
v 4.000000 2.500000 0.000000
v 4.000000 -2.500000 0.000000
v 5.500000 -2.500000 0.000000
v 5.500000 -4.000000 0.000000
v -5.500000 -4.000000 0.000000
v -5.500000 -2.500000 0.000000
v -4.000000 -2.500000 0.000000
v -4.000000 2.500000 0.000000
v -5.500000 2.500000 0.000000
v -5.500000 4.000000 0.000000
vn 0.000000 -1.000000 -0.000000
vn -0.000000 -1.000000 0.000000
vn -1.000000 0.000000 0.000000
vn -1.000000 0.000000 0.000000
vn 1.000000 0.000000 0.000000
vn 1.000000 0.000000 0.000000
vn 0.000000 0.000000 1.000000
vn 0.000000 0.000000 1.000000
vn -0.130525 0.000000 0.991445
vn -0.130525 0.000000 0.991445
vn -0.382684 0.000000 0.923879
vn -0.382684 0.000000 0.923879
vn -0.608762 0.000000 0.793353
vn -0.608762 0.000000 0.793353
vn -0.785316 0.000000 0.619095
vn -0.785316 0.000000 0.619095
vn -0.898549 0.000000 0.438874
vn -0.898549 0.000000 0.438874
vn -0.962954 0.000000 0.269666
vn -0.962954 0.000000 0.269666
vn -0.990163 0.000000 0.139921
vn -0.990163 0.000000 0.139921
vn -0.998906 0.000000 0.046768
vn -0.998906 0.000000 0.046768
vn 0.077716 0.000000 0.996976
vn 0.130898 -0.000380 0.991396
vn 0.382894 -0.000245 0.923792
vn 0.231386 0.000122 0.972862
vn 0.413015 0.000084 0.910724
vn 0.608972 -0.000334 0.793192
vn 0.585924 -0.000074 0.810366
vn 0.785443 -0.000330 0.618934
vn 0.715938 0.000175 0.698164
vn 0.898570 -0.000133 0.438829
vn 0.824704 0.000117 0.565564
vn 0.962959 -0.000060 0.269647
vn 0.909219 0.000060 0.416318
vn 0.990165 -0.000030 0.139904
vn 0.966996 0.000060 0.254792
vn 0.998905 0.000000 0.046775
vn 0.996316 0.000183 0.085763
vn 0.000000 0.130524 0.991445
vn -0.000000 0.130524 0.991445
vn -0.000000 0.382686 0.923879
vn 0.000000 0.382686 0.923879
vn -0.000000 0.608762 0.793353
vn 0.000000 0.608762 0.793353
vn -0.000000 0.785316 0.619095
vn 0.000000 0.785316 0.619095
vn -0.000000 0.898544 0.438884
vn 0.000000 0.898544 0.438884
vn -0.000000 0.962956 0.269660
vn 0.000000 0.962956 0.269660
vn -0.000000 0.990164 0.139908
vn 0.000000 0.990164 0.139908
vn -0.000000 0.998905 0.046781
vn 0.000000 0.998905 0.046781
vn 0.000000 -0.077716 0.996976
vn -0.000099 -0.231363 0.972867
vn 0.000309 -0.130828 0.991405
vn 0.000060 -0.585932 0.810360
vn -0.000068 -0.413002 0.910730
vn 0.000198 -0.382855 0.923808
vn -0.000141 -0.715921 0.698181
vn 0.000269 -0.608931 0.793223
vn -0.000093 -0.824697 0.565575
vn 0.000265 -0.785418 0.618966
vn -0.000048 -0.909217 0.416323
vn 0.000107 -0.898564 0.438842
vn -0.000048 -0.966996 0.254791
vn 0.000048 -0.962959 0.269647
vn -0.000146 -0.996315 0.085769
vn 0.000024 -0.990165 0.139905
vn 0.000000 -0.998905 0.046781
vn 0.000000 -1.000000 0.000000
vn 0.000000 -1.000000 0.000000
vn 1.000000 0.000000 0.000000
vn 1.000000 -0.000000 0.000000
vn 0.000000 0.000000 1.000000
vn 0.000000 0.000000 1.000000
vn 0.000000 0.000000 1.000000
vn 0.000000 0.000000 1.000000
vn 0.000000 0.000000 1.000000
vn 0.000000 0.000000 1.000000
vn 0.000000 0.000000 1.000000
vn 0.000000 0.000000 1.000000
vn 0.000000 0.000000 1.000000
vn 0.000000 0.000000 1.000000
vn 0.000000 0.000000 1.000000
vn 0.000000 0.000000 1.000000
vn 0.000000 0.000000 1.000000
vn 0.000000 0.000000 1.000000
vn 0.000000 0.000000 1.000000
vn 0.000000 0.000000 1.000000
vn 0.000000 0.000000 1.000000
vn 0.000000 0.000000 1.000000
vn 0.000000 0.000000 1.000000
vn 0.000000 0.000000 1.000000
vn 0.000000 0.000000 1.000000
vn 0.000000 0.000000 1.000000
vn 0.000000 0.000000 1.000000
vn 0.000000 0.000000 1.000000
vn 0.000000 -0.000000 1.000000
vn 0.000000 0.000000 1.000000
vn 0.000000 0.077716 0.996975
vn 0.000309 0.130828 0.991405
vn 0.000198 0.382853 0.923809
vn -0.000099 0.231363 0.972867
vn -0.000068 0.413003 0.910730
vn 0.000269 0.608933 0.793221
vn 0.000060 0.585932 0.810360
vn 0.000265 0.785415 0.618969
vn -0.000141 0.715921 0.698181
vn 0.000107 0.898567 0.438837
vn -0.000094 0.824697 0.565575
vn 0.000048 0.962957 0.269654
vn -0.000048 0.909217 0.416323
vn 0.000024 0.990165 0.139905
vn -0.000048 0.966994 0.254798
vn -0.000000 0.998906 0.046768
vn -0.000146 0.996316 0.085763
vn -0.130524 0.000000 0.991445
vn -0.130524 0.000000 0.991445
vn -0.382686 0.000000 0.923879
vn -0.608762 0.000000 0.793353
vn -0.382686 0.000000 0.923879
vn -0.785316 0.000000 0.619095
vn -0.608762 0.000000 0.793353
vn -0.785316 0.000000 0.619095
vn -0.898545 0.000000 0.438882
vn -0.962955 0.000000 0.269663
vn -0.898545 0.000000 0.438882
vn -0.962955 0.000000 0.269663
vn -0.990164 0.000000 0.139908
vn -0.998905 0.000000 0.046775
vn -0.990164 0.000000 0.139908
vn -0.998905 0.000000 0.046775
vn 0.000000 -0.130524 0.991445
vn 0.000000 -0.130524 0.991445
vn 0.000000 -0.382684 0.923879
vn 0.000000 -0.382684 0.923879
vn 0.000000 -0.608764 0.793351
vn 0.000000 -0.785314 0.619098
vn 0.000000 -0.608764 0.793351
vn 0.000000 -0.785314 0.619098
vn 0.000000 -0.898546 0.438879
vn 0.000000 -0.898546 0.438879
vn 0.000000 -0.962954 0.269666
vn 0.000000 -0.962954 0.269666
vn 0.000000 -0.990164 0.139908
vn 0.000000 -0.990164 0.139908
vn 0.000000 -0.998906 0.046768
vn 0.000000 -0.998906 0.046768
vn 0.077716 0.000000 0.996975
vn 0.231385 -0.000122 0.972862
vn 0.130899 0.000380 0.991396
vn 0.585923 0.000074 0.810367
vn 0.413016 -0.000084 0.910724
vn 0.382893 0.000245 0.923793
vn 0.715945 -0.000175 0.698157
vn 0.608972 0.000334 0.793192
vn 0.824701 -0.000117 0.565569
vn 0.785443 0.000329 0.618934
vn 0.909219 -0.000060 0.416318
vn 0.898574 0.000133 0.438822
vn 0.966995 -0.000060 0.254795
vn 0.962958 0.000060 0.269650
vn 0.996316 -0.000183 0.085759
vn 0.990163 0.000030 0.139917
vn 0.998906 0.000000 0.046768
vn 1.000000 0.000000 0.000000
vn 1.000000 -0.000000 0.000000
vn 0.000000 1.000000 -0.000000
vn 0.000000 1.000000 0.000000
vn 0.000000 1.000000 -0.000000
vn 0.000000 1.000000 0.000000
vn -1.000000 0.000000 0.000000
vn -1.000000 -0.000000 0.000000
vn 0.000000 0.000000 1.000000
vn 0.000000 0.000000 1.000000
vn -1.000000 0.000000 0.000000
vn -1.000000 -0.000000 0.000000
vn 0.000000 -1.000000 0.000000
vn 0.000000 -1.000000 0.000000
vn 0.000000 0.000000 1.000000
vn 0.000000 0.000000 1.000000
vn 1.000000 0.000000 0.000000
vn 1.000000 0.000000 0.000000
vn 0.000000 -1.000000 -0.000000
vn -0.000000 -1.000000 0.000000
vn 1.000000 0.000000 0.000000
vn 1.000000 0.000000 0.000000
vn 0.000000 1.000000 0.000000
vn -0.000000 1.000000 0.000000
vn 1.000000 0.000000 0.000000
vn 1.000000 0.000000 0.000000
vn 0.000000 -1.000000 -0.000000
vn -0.000000 -1.000000 0.000000
vn -1.000000 0.000000 0.000000
vn -1.000000 0.000000 0.000000
vn 0.000000 1.000000 0.000000
vn -0.000000 1.000000 0.000000
vn -1.000000 0.000000 0.000000
vn -1.000000 0.000000 0.000000
vn 0.000000 -1.000000 -0.000000
vn -0.000000 -1.000000 0.000000
vn -1.000000 0.000000 0.000000
vn -1.000000 0.000000 0.000000
vn -0.000000 1.000000 0.000000
vn -0.000000 1.000000 0.000000
vn 0.000000 1.000000 0.000000
vn 0.000000 1.000000 0.000000
vn 0.000000 1.000000 0.000000
vn -0.000000 1.000000 0.000000
vn 0.000000 0.000000 -1.000000
vn 0.000000 0.000000 -1.000000
vn 0.000000 0.000000 -1.000000
vn 0.000000 -0.000000 -1.000000
vn -0.000000 -0.000000 -1.000000
vn 0.000000 0.000000 -1.000000
vn 0.000000 0.000000 -1.000000
vn 0.000000 0.000000 -1.000000
vn 0.000000 0.000000 -1.000000
vn 0.000000 0.000000 -1.000000
f 1//1 2//1 3//1
f 1//2 4//2 2//2
f 4//3 5//3 2//3
f 4//4 6//4 5//4
f 7//5 3//5 8//5
f 7//6 1//6 3//6
f 7//7 6//7 4//7
f 7//8 4//8 1//8
f 9//9 10//9 11//9
f 9//10 11//10 12//10
f 13//11 12//11 14//11
f 13//12 9//12 12//12
f 15//13 14//13 16//13
f 15//14 13//14 14//14
f 17//15 16//15 18//15
f 17//16 15//16 16//16
f 19//17 18//17 20//17
f 19//18 17//18 18//18
f 21//19 20//19 22//19
f 21//20 19//20 20//20
f 23//21 22//21 24//21
f 23//22 21//22 22//22
f 25//23 24//23 26//23
f 25//24 23//24 24//24
f 27//25 28//25 29//25
f 27//26 29//26 30//26
f 31//27 30//27 32//27
f 31//28 27//28 30//28
f 33//29 31//29 32//29
f 34//30 32//30 35//30
f 34//31 33//31 32//31
f 36//32 35//32 37//32
f 36//33 34//33 35//33
f 38//34 37//34 39//34
f 38//35 36//35 37//35
f 40//36 39//36 41//36
f 40//37 38//37 39//37
f 42//38 41//38 43//38
f 42//39 40//39 41//39
f 44//40 43//40 45//40
f 44//41 42//41 43//41
f 30//42 29//42 10//42
f 30//43 10//43 9//43
f 32//44 9//44 13//44
f 32//45 30//45 9//45
f 35//46 13//46 15//46
f 35//47 32//47 13//47
f 37//48 15//48 17//48
f 37//49 35//49 15//49
f 39//50 17//50 19//50
f 39//51 37//51 17//51
f 41//52 19//52 21//52
f 41//53 39//53 19//53
f 43//54 21//54 23//54
f 43//55 41//55 21//55
f 45//56 23//56 25//56
f 45//57 43//57 23//57
f 11//58 28//58 27//58
f 12//59 27//59 31//59
f 12//60 11//60 27//60
f 14//61 33//61 34//61
f 14//62 31//62 33//62
f 14//63 12//63 31//63
f 16//64 34//64 36//64
f 16//65 14//65 34//65
f 18//66 36//66 38//66
f 18//67 16//67 36//67
f 20//68 38//68 40//68
f 20//69 18//69 38//69
f 22//70 40//70 42//70
f 22//71 20//71 40//71
f 24//72 42//72 44//72
f 24//73 22//73 42//73
f 26//74 24//74 44//74
f 46//75 47//75 44//75
f 44//76 47//76 26//76
f 48//77 46//77 45//77
f 45//78 46//78 44//78
f 49//79 50//79 51//79
f 52//80 53//80 49//80
f 54//81 55//81 56//81
f 29//82 52//82 49//82
f 57//83 52//83 29//83
f 58//84 29//84 49//84
f 59//85 49//85 51//85
f 59//86 58//86 49//86
f 28//87 57//87 29//87
f 2//88 60//88 57//88
f 2//89 54//89 60//89
f 2//90 57//90 28//90
f 10//91 29//91 58//91
f 5//92 55//92 54//92
f 5//93 54//93 2//93
f 61//94 58//94 59//94
f 3//95 2//95 28//95
f 11//96 3//96 28//96
f 62//97 8//97 3//97
f 62//98 3//98 11//98
f 63//99 62//99 64//99
f 63//100 8//100 62//100
f 54//101 49//101 53//101
f 54//102 53//102 60//102
f 58//103 62//103 10//103
f 10//104 62//104 11//104
f 65//105 53//105 52//105
f 65//106 52//106 66//106
f 67//107 66//107 68//107
f 67//108 65//108 66//108
f 69//109 67//109 68//109
f 70//110 68//110 71//110
f 70//111 69//111 68//111
f 72//112 71//112 73//112
f 72//113 70//113 71//113
f 74//114 73//114 75//114
f 74//115 72//115 73//115
f 76//116 75//116 77//116
f 76//117 74//117 75//117
f 78//118 77//118 79//118
f 78//119 76//119 77//119
f 80//120 79//120 81//120
f 80//121 78//121 79//121
f 52//122 57//122 82//122
f 66//123 52//123 82//123
f 68//124 82//124 83//124
f 68//125 83//125 84//125
f 68//126 66//126 82//126
f 71//127 84//127 85//127
f 71//128 68//128 84//128
f 73//129 71//129 85//129
f 75//130 85//130 86//130
f 75//131 86//131 87//131
f 75//132 73//132 85//132
f 77//133 75//133 87//133
f 79//134 87//134 88//134
f 79//135 88//135 89//135
f 79//136 77//136 87//136
f 81//137 79//137 89//137
f 82//138 57//138 60//138
f 82//139 60//139 90//139
f 83//140 90//140 91//140
f 83//141 82//141 90//141
f 84//142 91//142 92//142
f 84//143 92//143 93//143
f 84//144 83//144 91//144
f 85//145 84//145 93//145
f 86//146 93//146 94//146
f 86//147 85//147 93//147
f 87//148 94//148 95//148
f 87//149 86//149 94//149
f 88//150 95//150 96//150
f 88//151 87//151 95//151
f 89//152 96//152 97//152
f 89//153 88//153 96//153
f 60//154 53//154 65//154
f 90//155 65//155 67//155
f 90//156 60//156 65//156
f 91//157 69//157 70//157
f 91//158 67//158 69//158
f 91//159 90//159 67//159
f 92//160 70//160 72//160
f 92//161 91//161 70//161
f 93//162 72//162 74//162
f 93//163 92//163 72//163
f 94//164 74//164 76//164
f 94//165 93//165 74//165
f 95//166 76//166 78//166
f 95//167 94//167 76//167
f 96//168 78//168 80//168
f 96//169 95//169 78//169
f 97//170 96//170 80//170
f 98//171 99//171 80//171
f 80//172 99//172 97//172
f 100//173 98//173 81//173
f 81//174 98//174 80//174
f 101//175 48//175 25//175
f 25//176 48//176 45//176
f 47//177 101//177 26//177
f 26//178 101//178 25//178
f 47//179 46//179 101//179
f 101//180 46//180 48//180
f 102//181 100//181 89//181
f 89//182 100//182 81//182
f 99//183 102//183 97//183
f 97//184 102//184 89//184
f 102//185 99//185 100//185
f 100//186 99//186 98//186
f 63//187 103//187 104//187
f 63//188 64//188 103//188
f 64//189 105//189 103//189
f 64//190 62//190 105//190
f 62//191 106//191 105//191
f 62//192 58//192 106//192
f 58//193 107//193 106//193
f 58//194 61//194 107//194
f 61//195 108//195 107//195
f 61//196 59//196 108//196
f 59//197 109//197 108//197
f 59//198 51//198 109//198
f 51//199 110//199 109//199
f 51//200 50//200 110//200
f 50//201 111//201 110//201
f 50//202 49//202 111//202
f 49//203 112//203 111//203
f 49//204 54//204 112//204
f 54//205 113//205 112//205
f 54//206 56//206 113//206
f 56//207 114//207 113//207
f 56//208 55//208 114//208
f 8//209 63//209 104//209
f 6//210 7//210 8//210
f 6//211 8//211 5//211
f 114//212 8//212 104//212
f 114//213 5//213 8//213
f 55//214 5//214 114//214
f 110//215 111//215 109//215
f 114//216 112//216 113//216
f 112//217 106//217 111//217
f 111//218 108//218 109//218
f 106//219 108//219 111//219
f 106//220 107//220 108//220
f 112//221 105//221 106//221
f 105//222 104//222 103//222
f 114//223 104//223 112//223
f 112//224 104//224 105//224
