# Created by FreeCAD <https://www.freecad.org>
v -3.444986 -0.790626 8.800000
v -3.450000 -0.746122 7.093599
v -3.436229 -0.819052 7.433573
v -3.450000 -0.746122 8.800000
v -3.430194 -0.832899 8.800000
v -3.396812 -0.881938 7.726729
v -3.406366 -0.870820 8.800000
v -3.374698 -0.902488 8.800000
v -3.346152 -0.921493 7.911117
v -3.336777 -0.926316 8.800000
v -3.319095 -0.933807 7.968525
v -3.294504 -0.941108 8.800000
v -3.297767 -0.940334 7.998950
v -3.281366 -0.943647 8.014394
v -3.268915 -0.945225 8.021752
v -3.250000 -0.946122 8.800000
v -3.259468 -0.945898 8.024885
v -3.250000 -0.946122 8.025930
v -1.250000 -0.790626 8.994986
v -3.250000 -0.746122 9.000000
v -3.250000 -0.790626 8.994986
v -1.250000 -0.746122 9.000000
v -1.250000 -0.832899 8.980194
v -3.250000 -0.832899 8.980194
v -1.250000 -0.870820 8.956367
v -3.250000 -0.870820 8.956367
v -1.250000 -0.902488 8.924698
v -3.250000 -0.902488 8.924698
v -1.250000 -0.926316 8.886777
v -3.250000 -0.926316 8.886777
v -1.250000 -0.941108 8.844504
v -3.250000 -0.941108 8.844504
v -1.250000 -0.946122 8.800000
v -3.264591 -0.779850 8.996595
v -3.294504 -0.746122 8.994986
v -3.315728 -0.797943 8.981644
v -3.336777 -0.746122 8.980194
v -3.265869 -0.844544 8.973382
v -3.363249 -0.807399 8.953035
v -3.374698 -0.746122 8.956367
v -3.318031 -0.859110 8.950352
v -3.403036 -0.807399 8.913249
v -3.406366 -0.746122 8.924698
v -3.430194 -0.746122 8.886777
v -3.264993 -0.897583 8.929749
v -3.364191 -0.864110 8.914190
v -3.431643 -0.797943 8.865728
v -3.444986 -0.746122 8.844504
v -3.312038 -0.906944 8.901427
v -3.400351 -0.859110 8.868031
v -3.446595 -0.779850 8.814590
v -3.351427 -0.906944 8.862038
v -3.423382 -0.844544 8.815869
v -3.293582 -0.936388 8.843582
v -3.379749 -0.897583 8.814993
v -1.057405 -0.800039 7.344944
v -1.050000 -0.746122 7.093599
v -1.050000 -0.746122 8.800000
v -1.055014 -0.790626 8.800000
v -1.069806 -0.832899 8.800000
v -1.079071 -0.849964 7.577677
v -1.093634 -0.870820 8.800000
v -1.112540 -0.891396 7.770818
v -1.125302 -0.902488 8.800000
v -1.155757 -0.922525 7.915932
v -1.163223 -0.926316 8.800000
v -1.181755 -0.934118 7.969975
v -1.205496 -0.941108 8.800000
v -1.199890 -0.939743 7.996193
v -1.212241 -0.942525 8.009164
v -1.221606 -0.944096 8.016487
v -1.231035 -0.945221 8.021729
v -1.240507 -0.945897 8.024880
v -1.250000 -0.946122 8.025930
v -1.053405 -0.779850 8.814590
v -1.055014 -0.746122 8.844504
v -1.068357 -0.797943 8.865728
v -1.069806 -0.746122 8.886777
v -1.076618 -0.844544 8.815869
v -1.096964 -0.807399 8.913249
v -1.093634 -0.746122 8.924698
v -1.125302 -0.746122 8.956367
v -1.099649 -0.859110 8.868031
v -1.136751 -0.807399 8.953035
v -1.163223 -0.746122 8.980194
v -1.120251 -0.897583 8.814993
v -1.135810 -0.864110 8.914190
v -1.184272 -0.797943 8.981644
v -1.205496 -0.746122 8.994986
v -1.148573 -0.906944 8.862038
v -1.181970 -0.859110 8.950352
v -1.235409 -0.779850 8.996595
v -1.187962 -0.906944 8.901427
v -1.234131 -0.844544 8.973382
v -1.206418 -0.936388 8.843582
v -1.235007 -0.897583 8.929749
v -3.450000 -0.750000 1.200000
v -3.450000 0.750000 2.166667
v -3.450000 0.750000 1.200000
v -3.450000 -0.750000 3.925705
v -3.450000 1.550000 5.500000
v -3.450000 -0.407060 5.513010
v -3.450000 0.763119 8.800000
v -3.449762 0.760795 8.809747
v -3.449050 0.758477 8.819469
v -3.447865 0.756169 8.829146
v -3.446209 0.753878 8.838755
v -3.432265 0.753878 8.882338
v -3.408780 0.753878 8.921610
v -3.376982 0.753878 8.954516
v -3.338538 0.753878 8.979335
v -3.295459 0.753878 8.994765
v -3.250000 0.753878 9.000000
v -1.250000 0.753878 9.000000
v -1.050238 0.760795 8.809747
v -1.050950 0.758477 8.819469
v -1.050000 0.763119 8.800000
v -1.052135 0.756169 8.829146
v -1.053791 0.753878 8.838755
v -1.067735 0.753878 8.882338
v -1.091220 0.753878 8.921610
v -1.123018 0.753878 8.954516
v -1.161462 0.753878 8.979335
v -1.204541 0.753878 8.994765
v -1.050000 1.550000 5.500000
v -1.050000 -0.407060 5.513010
v -1.050000 -0.750000 3.925705
v -1.050000 0.750000 2.166667
v -1.050000 -0.750000 1.200000
v -1.050000 0.750000 1.200000
v -3.443070 0.806070 8.800000
v -3.449483 0.760023 8.812986
v -3.448289 0.756938 8.825924
v -3.449786 0.763119 8.800000
v -3.304883 0.782297 8.990211
v -3.250000 0.798382 8.994986
v -3.365903 0.781479 8.960639
v -3.277617 0.819955 8.986738
v -3.250000 0.840655 8.980194
v -3.414660 0.768557 8.912568
v -3.338864 0.833043 8.960736
v -3.393389 0.828845 8.917557
v -3.298699 0.874295 8.952079
v -3.250000 0.878576 8.956367
v -3.250000 0.910244 8.924698
v -3.431276 0.812829 8.860529
v -3.427231 0.846556 8.800000
v -3.355886 0.880640 8.912781
v -3.401671 0.869287 8.860636
v -3.403018 0.882662 8.800000
v -3.306083 0.918515 8.898739
v -3.250000 0.934072 8.886777
v -3.250000 0.948864 8.844504
v -3.357693 0.914456 8.851156
v -3.334390 0.935202 8.800000
v -3.371576 0.912684 8.800000
v -3.303953 0.943600 8.833085
v -3.250000 0.953878 8.800000
v -3.293216 0.949153 8.800000
v -3.432676 0.835300 8.497289
v -3.390434 0.896280 8.241553
v -3.339046 0.932961 8.087720
v -3.312169 0.943970 8.041552
v -3.291120 0.949605 8.017919
v -3.274998 0.952310 8.006577
v -3.262791 0.953469 8.001718
v -3.256399 0.953776 8.000429
v -3.250000 0.953878 8.000000
v -1.250000 0.953878 8.800000
v -1.250000 0.953878 8.000000
v -1.250000 0.948864 8.844504
v -1.250000 0.934072 8.886777
v -1.250000 0.910244 8.924698
v -1.250000 0.878576 8.956367
v -1.250000 0.840655 8.980194
v -1.250000 0.798382 8.994986
v -1.056930 0.806070 8.800000
v -1.050214 0.763119 8.800000
v -1.057226 0.807154 8.615327
v -1.072769 0.846556 8.800000
v -1.073821 0.848541 8.441759
v -1.096981 0.882662 8.800000
v -1.106966 0.893668 8.252505
v -1.128424 0.912684 8.800000
v -1.151321 0.927839 8.109200
v -1.165610 0.935202 8.800000
v -1.178389 0.940618 8.055609
v -1.206784 0.949153 8.800000
v -1.210318 0.949902 8.016675
v -1.220151 0.951638 8.009394
v -1.197364 0.946828 8.029569
v -1.240017 0.953629 8.001045
v -1.230060 0.952882 8.004179
v -1.050517 0.760023 8.812986
v -1.051711 0.756938 8.825924
v -1.222383 0.819955 8.986738
v -1.201301 0.874295 8.952079
v -1.195117 0.782297 8.990211
v -1.193917 0.918515 8.898739
v -1.161136 0.833043 8.960736
v -1.196047 0.943600 8.833085
v -1.144114 0.880640 8.912781
v -1.134097 0.781479 8.960639
v -1.142307 0.914456 8.851156
v -1.106611 0.828845 8.917557
v -1.098329 0.869287 8.860636
v -1.085340 0.768557 8.912568
v -1.068724 0.812829 8.860529
v -1.055014 -0.794504 1.200000
v -1.055014 -0.750000 1.155496
v -1.060740 -0.775910 1.140759
v -1.069806 -0.750000 1.113223
v -1.092720 -0.789229 1.082850
v -1.125302 -0.750000 1.043634
v -1.093634 -0.750000 1.075302
v -1.060740 -0.809241 1.174090
v -1.069806 -0.836777 1.200000
v -1.143159 -0.792425 1.036338
v -1.163223 -0.750000 1.019806
v -1.087988 -0.832922 1.117078
v -1.206228 -0.790338 1.009063
v -1.250000 -0.836777 1.019806
v -1.250000 -0.794504 1.005014
v -1.250000 -0.750000 1.000000
v -1.205496 -0.750000 1.005014
v -1.133269 -0.842127 1.066260
v -1.092720 -0.867150 1.160771
v -1.093634 -0.874698 1.200000
v -1.125302 -0.906366 1.200000
v -1.192302 -0.840210 1.031083
v -1.250000 -0.874698 1.043634
v -1.133269 -0.883740 1.107873
v -1.187521 -0.884344 1.065656
v -1.250000 -0.906366 1.075302
v -1.143159 -0.913662 1.157575
v -1.163223 -0.930194 1.200000
v -1.192302 -0.918917 1.109790
v -1.250000 -0.930194 1.113223
v -1.206228 -0.940937 1.159662
v -1.205496 -0.944986 1.200000
v -1.250000 -0.950000 1.200000
v -1.250000 -0.944986 1.155496
v -3.283728 -0.764591 1.003405
v -3.294504 -0.750000 1.005014
v -3.250000 -0.750000 1.000000
v -3.250000 -0.794504 1.005014
v -3.301821 -0.815728 1.018356
v -3.336777 -0.750000 1.019806
v -3.250000 -0.836777 1.019806
v -3.348423 -0.765869 1.026618
v -3.374698 -0.750000 1.043634
v -3.311277 -0.863249 1.046964
v -3.250000 -0.874698 1.043634
v -3.362988 -0.818030 1.049649
v -3.311277 -0.903036 1.086751
v -3.250000 -0.906366 1.075302
v -3.250000 -0.930194 1.113223
v -3.401461 -0.764993 1.070251
v -3.430194 -0.750000 1.113223
v -3.406366 -0.750000 1.075302
v -3.367988 -0.864190 1.085810
v -3.301821 -0.931643 1.134272
v -3.294504 -0.944986 1.200000
v -3.336777 -0.930194 1.200000
v -3.250000 -0.944986 1.155496
v -3.410822 -0.812038 1.098573
v -3.362988 -0.900351 1.131970
v -3.283728 -0.946595 1.185409
v -3.250000 -0.950000 1.200000
v -3.410822 -0.851427 1.137962
v -3.348423 -0.923382 1.184131
v -3.374698 -0.906366 1.200000
v -3.440266 -0.793582 1.156418
v -3.430194 -0.836777 1.200000
v -3.444986 -0.794504 1.200000
v -3.444986 -0.750000 1.155496
v -3.401461 -0.879749 1.185007
v -3.406366 -0.874698 1.200000
v -1.205496 0.944986 1.200000
v -1.250000 0.944986 1.155496
v -1.250000 0.950000 1.200000
v -1.224090 0.939260 1.140759
v -1.250000 0.930194 1.113223
v -1.210771 0.907280 1.082850
v -1.250000 0.874698 1.043634
v -1.250000 0.906366 1.075302
v -1.190759 0.939260 1.174090
v -1.163223 0.930194 1.200000
v -1.207575 0.856841 1.036338
v -1.250000 0.836777 1.019806
v -1.167078 0.912012 1.117078
v -1.209662 0.793772 1.009063
v -1.163223 0.750000 1.019806
v -1.205496 0.750000 1.005014
v -1.250000 0.750000 1.000000
v -1.250000 0.794504 1.005014
v -1.157873 0.866731 1.066260
v -1.132850 0.907280 1.160771
v -1.125302 0.906366 1.200000
v -1.093634 0.874698 1.200000
v -1.159790 0.807698 1.031083
v -1.125302 0.750000 1.043634
v -1.116260 0.866731 1.107873
v -1.115656 0.812479 1.065656
v -1.093634 0.750000 1.075302
v -1.086338 0.856841 1.157575
v -1.069806 0.836777 1.200000
v -1.081083 0.807698 1.109790
v -1.069806 0.750000 1.113223
v -1.059063 0.793772 1.159662
v -1.055014 0.750000 1.155496
v -1.055014 0.794504 1.200000
v -3.250000 0.944986 1.155496
v -3.294504 0.944986 1.200000
v -3.250000 0.950000 1.200000
v -3.309241 0.939260 1.174090
v -3.336777 0.930194 1.200000
v -3.367150 0.907280 1.160771
v -3.406366 0.874698 1.200000
v -3.374698 0.906366 1.200000
v -3.275910 0.939260 1.140759
v -3.250000 0.930194 1.113223
v -3.413662 0.856841 1.157575
v -3.430194 0.836777 1.200000
v -3.332922 0.912012 1.117078
v -3.440937 0.793772 1.159662
v -3.430194 0.750000 1.113223
v -3.444986 0.750000 1.155496
v -3.444986 0.794504 1.200000
v -3.383740 0.866731 1.107873
v -3.289229 0.907280 1.082850
v -3.250000 0.906366 1.075302
v -3.250000 0.874698 1.043634
v -3.418917 0.807698 1.109790
v -3.406366 0.750000 1.075302
v -3.342127 0.866731 1.066260
v -3.384344 0.812479 1.065656
v -3.374698 0.750000 1.043634
v -3.292425 0.856841 1.036338
v -3.250000 0.836777 1.019806
v -3.340210 0.807698 1.031083
v -3.336777 0.750000 1.019806
v -3.290338 0.793772 1.009063
v -3.250000 0.750000 1.000000
v -3.294504 0.750000 1.005014
v -3.250000 0.794504 1.005014
v -3.444034 0.798486 2.368692
v -3.426491 0.844079 2.558664
v -3.385295 0.897293 2.780389
v -3.348954 0.923805 2.890853
v -3.321821 0.936659 2.944414
v -3.279940 0.947746 2.990610
v -3.270001 0.948997 2.995822
v -3.289803 0.945999 2.983331
v -3.302794 0.942906 2.970443
v -3.260013 0.949749 2.998955
v -3.250000 0.950000 3.000000
v -1.063771 0.822930 2.470541
v -1.103188 0.885816 2.732569
v -1.153970 0.925437 2.897655
v -1.181231 0.937805 2.949188
v -1.202722 0.944332 2.976382
v -1.219247 0.947621 2.990090
v -1.231790 0.949169 2.996539
v -1.240886 0.949792 2.999134
v -1.250000 0.950000 3.000000
v -3.442689 -0.803580 3.677707
v -3.421291 -0.853244 3.447839
v -3.387836 -0.894918 3.254948
v -3.344539 -0.926245 3.109949
v -3.318468 -0.937915 3.055935
v -3.300277 -0.943577 3.029728
v -3.287887 -0.946379 3.016761
v -3.278491 -0.947960 3.009441
v -3.269030 -0.949093 3.004200
v -3.259526 -0.949773 3.001050
v -3.250000 -0.950000 3.000000
v -1.063771 -0.822930 3.588147
v -1.103188 -0.885816 3.297075
v -1.153855 -0.925374 3.113980
v -1.180924 -0.937692 3.056966
v -1.202261 -0.944219 3.026757
v -1.218670 -0.947531 3.011429
v -1.231126 -0.949107 3.004131
v -1.240552 -0.949777 3.001033
v -1.250000 -0.950000 3.000000
vn -0.980698 -0.195518 -0.002217
vn -0.993712 -0.111965 0.000000
vn -0.843702 -0.536809 -0.001713
vn -0.943882 -0.330282 0.000822
vn -0.846724 -0.532029 -0.002026
vn -0.609459 -0.792814 -0.002622
vn -0.707106 -0.707107 0.001031
vn -0.413236 -0.910624 -0.000583
vn -0.532031 -0.846724 0.001017
vn -0.292963 -0.956124 0.000270
vn -0.197879 -0.980226 -0.000141
vn -0.126400 -0.991979 0.001093
vn -0.330279 -0.943882 0.001481
vn -0.071170 -0.997464 0.000581
vn -0.023676 -0.999720 -0.000000
vn -0.111964 -0.993711 0.001577
vn 0.000000 -0.111965 0.993712
vn 0.000000 -0.111965 0.993712
vn 0.000000 -0.330273 0.943886
vn 0.000000 -0.330273 0.943886
vn 0.000000 -0.532034 0.846723
vn 0.000000 -0.532034 0.846723
vn 0.000000 -0.707110 0.707103
vn 0.000000 -0.707110 0.707103
vn 0.000000 -0.846723 0.532034
vn 0.000000 -0.846723 0.532034
vn 0.000000 -0.943883 0.330280
vn 0.000000 -0.943883 0.330280
vn 0.000000 -0.993712 0.111965
vn 0.000000 -0.993712 0.111965
vn 0.026931 -0.111924 0.993352
vn -0.111814 -0.051805 0.992378
vn -0.153007 -0.326384 0.932771
vn -0.328372 -0.107125 0.938454
vn -0.150228 -0.341964 0.927627
vn -0.226371 -0.154874 0.961650
vn 0.026958 -0.531840 0.846416
vn -0.155919 -0.331761 0.930389
vn -0.526494 -0.143924 0.837908
vn -0.482725 -0.172050 0.858705
vn -0.411969 -0.402661 0.817401
vn -0.260619 -0.431911 0.863441
vn -0.173043 -0.606864 0.775740
vn -0.697045 -0.168121 0.697039
vn -0.837910 -0.143914 0.526494
vn -0.697035 -0.168131 0.697047
vn 0.006885 -0.707093 0.707087
vn -0.097319 -0.842704 0.529509
vn -0.176530 -0.642619 0.745572
vn -0.639300 -0.427290 0.639311
vn -0.507755 -0.481087 0.714661
vn -0.938451 -0.107126 0.328382
vn -0.932768 -0.326393 0.153009
vn -0.858711 -0.172045 0.482717
vn -0.256408 -0.706637 0.659484
vn -0.406623 -0.677647 0.612741
vn -0.142147 -0.845054 0.515440
vn -0.817405 -0.402666 0.411958
vn -0.714662 -0.481094 0.507746
vn -0.992377 -0.051819 0.111814
vn -0.993353 -0.111924 -0.026899
vn -0.927637 -0.341934 0.150238
vn -0.961650 -0.154882 0.226364
vn -0.482429 -0.731115 0.482423
vn -0.612744 -0.677648 0.406617
vn -0.846418 -0.531836 -0.026954
vn -0.775742 -0.606860 0.173046
vn -0.930389 -0.331763 0.155917
vn -0.863440 -0.431913 0.260619
vn -0.108556 -0.938305 0.328328
vn -0.109319 -0.987757 0.111294
vn -0.111294 -0.987757 0.109319
vn -0.328328 -0.938305 0.108555
vn -0.397732 -0.898330 0.186581
vn -0.186580 -0.898331 0.397730
vn -0.338735 -0.877793 0.338731
vn -0.529506 -0.842704 0.097329
vn -0.707089 -0.707091 -0.006875
vn -0.745573 -0.642617 0.176533
vn -0.515440 -0.845054 0.142148
vn -0.659484 -0.706635 0.256411
vn 0.990701 -0.136059 0.000000
vn 0.993712 -0.111965 -0.000908
vn 0.943883 -0.330280 0.000586
vn 0.846724 -0.532031 0.001010
vn 0.915102 -0.403221 -0.001306
vn 0.707106 -0.707107 0.001148
vn 0.774305 -0.632811 -0.001572
vn 0.532031 -0.846724 0.000863
vn 0.580993 -0.813907 -0.001567
vn 0.330279 -0.943882 0.001499
vn 0.406412 -0.913690 -0.000485
vn 0.296813 -0.954936 0.000449
vn 0.219660 -0.975577 -0.000125
vn 0.165701 -0.986176 0.000355
vn 0.111964 -0.993711 0.001578
vn 0.119165 -0.992874 0.001337
vn 0.071360 -0.997450 0.000584
vn 0.023739 -0.999718 0.000000
vn 0.993353 -0.111924 -0.026899
vn 0.992377 -0.051819 0.111814
vn 0.932769 -0.326391 0.153010
vn 0.938451 -0.107127 0.328379
vn 0.927637 -0.341934 0.150238
vn 0.961650 -0.154882 0.226363
vn 0.846417 -0.531838 -0.026950
vn 0.930387 -0.331766 0.155921
vn 0.837909 -0.143915 0.526496
vn 0.697045 -0.168123 0.697039
vn 0.858710 -0.172047 0.482718
vn 0.817404 -0.402665 0.411960
vn 0.863441 -0.431912 0.260618
vn 0.775743 -0.606859 0.173045
vn 0.526494 -0.143924 0.837908
vn 0.697036 -0.168131 0.697046
vn 0.707089 -0.707091 -0.006870
vn 0.529505 -0.842704 0.097333
vn 0.745571 -0.642620 0.176532
vn 0.639301 -0.427291 0.639310
vn 0.714661 -0.481094 0.507749
vn 0.328372 -0.107125 0.938454
vn 0.153007 -0.326384 0.932771
vn 0.482725 -0.172050 0.858705
vn 0.612743 -0.677648 0.406620
vn 0.515441 -0.845053 0.142146
vn 0.659485 -0.706636 0.256408
vn 0.411969 -0.402662 0.817401
vn 0.507754 -0.481088 0.714661
vn 0.111814 -0.051805 0.992378
vn -0.026931 -0.111924 0.993352
vn 0.226371 -0.154874 0.961650
vn 0.150228 -0.341964 0.927627
vn 0.482429 -0.731114 0.482425
vn 0.406623 -0.677647 0.612742
vn -0.026958 -0.531840 0.846416
vn 0.173044 -0.606864 0.775740
vn 0.155919 -0.331761 0.930389
vn 0.260619 -0.431911 0.863441
vn 0.328328 -0.938305 0.108555
vn 0.111294 -0.987757 0.109319
vn 0.109319 -0.987757 0.111294
vn 0.108556 -0.938305 0.328328
vn 0.397732 -0.898330 0.186580
vn 0.186580 -0.898331 0.397730
vn 0.338734 -0.877793 0.338731
vn 0.097319 -0.842704 0.529509
vn -0.006885 -0.707093 0.707087
vn 0.176531 -0.642619 0.745572
vn 0.142147 -0.845054 0.515440
vn 0.256408 -0.706636 0.659484
vn -1.000000 0.000000 0.000000
vn -1.000000 0.000000 0.000000
vn -1.000000 0.000000 0.000000
vn -1.000000 0.000000 -0.000000
vn -1.000000 0.000000 0.000000
vn -1.000000 0.000000 -0.000000
vn -1.000000 0.000000 0.000000
vn -0.999703 0.000000 0.024381
vn -0.993712 -0.000821 0.111965
vn -0.997332 -0.000315 0.073001
vn -0.992602 -0.000661 0.121411
vn -0.985484 -0.000153 0.169770
vn -0.943882 -0.000326 0.330282
vn -0.952439 0.000391 0.304728
vn -0.846724 -0.000267 0.532032
vn -0.858244 0.000334 0.513242
vn -0.707109 -0.000205 0.707104
vn -0.719125 0.000274 0.694881
vn -0.532034 -0.000140 0.846723
vn -0.542366 0.000210 0.840142
vn -0.330273 -0.000072 0.943886
vn -0.337209 0.000143 0.941430
vn -0.111965 0.000000 0.993712
vn -0.114397 0.000073 0.993435
vn 0.000000 -0.000000 1.000000
vn 0.000000 0.000000 1.000000
vn 0.997333 -0.000315 0.072988
vn 0.999703 -0.000000 0.024381
vn 0.985486 -0.000153 0.169758
vn 0.992601 -0.000661 0.121423
vn 0.952438 0.000391 0.304731
vn 0.993712 -0.000821 0.111965
vn 0.858244 0.000334 0.513242
vn 0.943883 -0.000326 0.330280
vn 0.719125 0.000274 0.694881
vn 0.846723 -0.000267 0.532034
vn 0.542367 0.000210 0.840141
vn 0.707109 -0.000205 0.707104
vn 0.337208 0.000143 0.941430
vn 0.532034 -0.000140 0.846723
vn 0.114397 0.000073 0.993435
vn 0.330273 -0.000072 0.943886
vn 0.111965 -0.000000 0.993712
vn 1.000000 0.000000 0.000000
vn 1.000000 0.000000 0.000000
vn 1.000000 0.000000 0.000000
vn 1.000000 0.000000 0.000000
vn 1.000000 0.000000 0.000000
vn 1.000000 0.000000 -0.000000
vn 1.000000 0.000000 -0.000000
vn -0.976124 0.172997 0.131354
vn -0.986226 0.154221 0.059788
vn -0.336952 0.039030 0.940712
vn -0.113565 0.120400 0.986208
vn -0.118432 0.111176 0.986719
vn -0.712704 0.133333 0.688677
vn -0.542100 0.031341 0.839730
vn -0.431472 0.172068 0.885565
vn -0.023881 0.330178 0.943616
vn -0.140603 0.191373 0.971394
vn -0.857915 -0.027659 0.513046
vn -0.713640 0.137251 0.686935
vn -0.427586 0.222563 0.876149
vn -0.314505 0.310432 0.897061
vn -0.603957 0.315319 0.731990
vn -0.714305 0.196445 0.671697
vn -0.120433 0.528161 0.840560
vn -0.123460 0.701700 0.701694
vn -0.269027 0.441567 0.855946
vn -0.160496 0.485766 0.859228
vn -0.965193 0.171589 0.197382
vn -0.944647 0.127655 0.302235
vn -0.922175 0.360778 0.139397
vn -0.885371 0.174289 0.430978
vn -0.967266 0.190940 0.167146
vn -0.836853 0.255188 0.484310
vn -0.424930 0.562563 0.709195
vn -0.568836 0.473852 0.672228
vn -0.822374 0.551475 0.139919
vn -0.686557 0.541810 0.484852
vn -0.868679 0.455143 0.195553
vn -0.805400 0.421542 0.416693
vn -0.120511 0.840552 0.528157
vn -0.187968 0.927058 0.324393
vn -0.187622 0.743265 0.642149
vn -0.352740 0.695796 0.625654
vn -0.514824 0.850175 0.110268
vn -0.681654 0.713907 0.160263
vn -0.687779 0.705515 0.170906
vn -0.616412 0.682560 0.392618
vn -0.463293 0.771123 0.436725
vn -0.119774 0.986559 0.111159
vn -0.107754 0.985581 0.130456
vn -0.320433 0.945688 0.054740
vn -0.163619 0.923305 0.347471
vn -0.426246 0.889165 0.166432
vn -0.365440 0.873418 0.321862
vn -0.931263 0.364334 0.003204
vn -0.987815 0.154469 -0.019003
vn -0.830530 0.556944 -0.005770
vn -0.690579 0.723254 0.002075
vn -0.832157 0.554516 -0.005230
vn -0.517983 0.855391 0.000695
vn -0.588624 0.808397 -0.003869
vn -0.320913 0.947107 0.001547
vn -0.379667 0.925123 -0.000428
vn -0.258749 0.965945 -0.000135
vn -0.108683 0.994075 0.001459
vn -0.165343 0.986236 0.000127
vn -0.094126 0.995560 0.000998
vn -0.047931 0.998851 0.000256
vn -0.016001 0.999872 0.000000
vn 0.000000 1.000000 0.000000
vn 0.000000 1.000000 0.000000
vn 0.000000 0.993712 0.111965
vn 0.000000 0.943883 0.330280
vn 0.000000 0.993712 0.111965
vn 0.000000 0.846723 0.532034
vn 0.000000 0.943883 0.330280
vn 0.000000 0.707110 0.707103
vn 0.000000 0.846723 0.532034
vn 0.000000 0.532034 0.846723
vn 0.000000 0.707110 0.707103
vn 0.000000 0.330273 0.943886
vn 0.000000 0.532034 0.846723
vn 0.000000 0.111964 0.993712
vn 0.000000 0.330273 0.943886
vn 0.000000 0.111964 0.993712
vn 0.987993 0.154500 -0.000678
vn 0.929148 0.369707 -0.000681
vn 0.931269 0.364331 0.000645
vn 0.812079 0.583539 -0.003079
vn 0.830544 0.556953 0.000647
vn 0.616696 0.787195 -0.003171
vn 0.690576 0.723257 0.001945
vn 0.428175 0.903695 -0.000775
vn 0.517982 0.855390 0.001597
vn 0.173768 0.984787 0.000157
vn 0.231030 0.972947 -0.000112
vn 0.309865 0.950780 0.000918
vn 0.320914 0.947107 0.001382
vn 0.024968 0.999688 0.000000
vn 0.074632 0.997211 0.000621
vn 0.123552 0.992336 0.001853
vn 0.108683 0.994076 0.001287
vn 0.976123 0.172999 0.131355
vn 0.986225 0.154224 0.059788
vn 0.023881 0.330178 0.943616
vn 0.123460 0.701700 0.701694
vn 0.120433 0.528161 0.840560
vn 0.160496 0.485766 0.859228
vn 0.118432 0.111176 0.986719
vn 0.113565 0.120400 0.986208
vn 0.336951 0.039029 0.940713
vn 0.140603 0.191373 0.971394
vn 0.187968 0.927058 0.324393
vn 0.120511 0.840552 0.528157
vn 0.187622 0.743265 0.642149
vn 0.314504 0.310433 0.897061
vn 0.269027 0.441567 0.855946
vn 0.107754 0.985581 0.130456
vn 0.320433 0.945688 0.054740
vn 0.119774 0.986559 0.111159
vn 0.163619 0.923305 0.347471
vn 0.352739 0.695796 0.625654
vn 0.424930 0.562562 0.709196
vn 0.542101 0.031341 0.839729
vn 0.712704 0.133333 0.688677
vn 0.431473 0.172069 0.885564
vn 0.427586 0.222563 0.876148
vn 0.514824 0.850175 0.110267
vn 0.681652 0.713910 0.160261
vn 0.426246 0.889165 0.166431
vn 0.463293 0.771124 0.436724
vn 0.365440 0.873418 0.321862
vn 0.568836 0.473850 0.672229
vn 0.603957 0.315319 0.731990
vn 0.822373 0.551475 0.139921
vn 0.686558 0.541809 0.484851
vn 0.616412 0.682560 0.392617
vn 0.687779 0.705515 0.170907
vn 0.857915 -0.027666 0.513046
vn 0.714305 0.196446 0.671698
vn 0.713639 0.137246 0.686937
vn 0.965194 0.171594 0.197374
vn 0.922177 0.360774 0.139396
vn 0.944646 0.127656 0.302238
vn 0.868679 0.455143 0.195554
vn 0.967266 0.190942 0.167144
vn 0.805400 0.421542 0.416693
vn 0.885372 0.174288 0.430975
vn 0.836853 0.255190 0.484310
vn 0.987542 -0.111269 -0.111269
vn 0.943680 -0.020739 -0.330209
vn 0.702103 -0.118739 -0.702106
vn 0.843847 -0.082369 -0.530224
vn 0.878824 -0.167369 -0.446829
vn 0.943680 -0.330209 -0.020738
vn 0.980726 -0.138159 -0.138158
vn 0.980726 -0.138159 -0.138159
vn 0.530407 -0.078096 -0.844138
vn 0.674628 -0.160044 -0.720599
vn 0.902388 -0.304710 -0.304710
vn 0.872150 -0.239665 -0.426515
vn 0.117915 -0.327976 -0.937298
vn 0.102038 -0.111380 -0.988526
vn 0.111389 -0.101250 -0.988605
vn 0.328617 -0.100226 -0.939130
vn 0.386367 -0.170498 -0.906450
vn 0.724962 -0.374395 -0.578150
vn 0.659107 -0.287259 -0.695025
vn 0.843848 -0.530223 -0.082370
vn 0.702103 -0.702106 -0.118739
vn 0.878824 -0.446829 -0.167368
vn 0.872150 -0.426515 -0.239665
vn 0.132643 -0.527330 -0.839243
vn 0.462479 -0.387933 -0.797258
vn 0.158065 -0.361553 -0.918855
vn 0.372388 -0.285856 -0.882957
vn 0.683873 -0.515906 -0.515906
vn 0.724962 -0.578151 -0.374395
vn 0.138723 -0.700270 -0.700270
vn 0.421098 -0.530641 -0.735593
vn 0.184451 -0.593646 -0.783302
vn 0.487339 -0.617455 -0.617454
vn 0.530408 -0.844138 -0.078096
vn 0.674629 -0.720598 -0.160044
vn 0.659108 -0.695024 -0.287260
vn 0.132644 -0.839242 -0.527331
vn 0.184451 -0.783301 -0.593647
vn 0.421099 -0.735592 -0.530641
vn 0.462480 -0.797258 -0.387934
vn 0.328616 -0.939131 -0.100225
vn 0.111389 -0.988606 -0.101249
vn 0.102036 -0.988526 -0.111380
vn 0.117914 -0.937299 -0.327974
vn 0.386367 -0.906450 -0.170497
vn 0.158066 -0.918855 -0.361554
vn 0.372389 -0.882957 -0.285857
vn -0.111924 0.026899 -0.993353
vn -0.051818 -0.111814 -0.992377
vn -0.326391 -0.153008 -0.932769
vn -0.107123 -0.328379 -0.938452
vn -0.341936 -0.150235 -0.927636
vn -0.154880 -0.226363 -0.961651
vn -0.531838 0.026958 -0.846417
vn -0.331762 -0.155917 -0.930389
vn -0.143918 -0.526492 -0.837910
vn -0.172044 -0.482722 -0.858708
vn -0.402666 -0.411963 -0.817402
vn -0.606863 -0.173045 -0.775740
vn -0.431914 -0.260619 -0.863440
vn -0.168127 -0.697041 -0.697041
vn -0.143918 -0.837909 -0.526494
vn -0.168127 -0.697041 -0.697041
vn -0.842705 -0.097341 -0.529503
vn -0.707089 0.006866 -0.707091
vn -0.642619 -0.176533 -0.745572
vn -0.427289 -0.639306 -0.639306
vn -0.481091 -0.507748 -0.714663
vn -0.326389 -0.932769 -0.153008
vn -0.107125 -0.938452 -0.328378
vn -0.172046 -0.858709 -0.482721
vn -0.706634 -0.256407 -0.659487
vn -0.677646 -0.406618 -0.612746
vn -0.845053 -0.142145 -0.515442
vn -0.481091 -0.714663 -0.507748
vn -0.402665 -0.817403 -0.411962
vn -0.111924 -0.993353 0.026903
vn -0.051816 -0.992377 -0.111814
vn -0.154880 -0.961650 -0.226365
vn -0.341942 -0.927634 -0.150235
vn -0.677646 -0.612746 -0.406618
vn -0.731115 -0.482426 -0.482427
vn -0.531839 -0.846416 0.026956
vn -0.331763 -0.930388 -0.155919
vn -0.606863 -0.775741 -0.173045
vn -0.431913 -0.863440 -0.260619
vn -0.938304 -0.328330 -0.108555
vn -0.987757 -0.111294 -0.109318
vn -0.987757 -0.109319 -0.111293
vn -0.938304 -0.108555 -0.328330
vn -0.898331 -0.397732 -0.186577
vn -0.898331 -0.186578 -0.397732
vn -0.877793 -0.338732 -0.338732
vn -0.707089 -0.707091 0.006866
vn -0.842705 -0.529503 -0.097341
vn -0.845053 -0.515441 -0.142144
vn -0.642619 -0.745572 -0.176532
vn -0.706634 -0.659487 -0.256406
vn 0.111269 0.987542 -0.111269
vn 0.020738 0.943681 -0.330208
vn 0.118737 0.702105 -0.702105
vn 0.082368 0.843847 -0.530225
vn 0.167369 0.878824 -0.446829
vn 0.330208 0.943680 -0.020738
vn 0.138157 0.980727 -0.138157
vn 0.138158 0.980727 -0.138158
vn 0.078098 0.530406 -0.844139
vn 0.160046 0.674628 -0.720599
vn 0.304709 0.902388 -0.304709
vn 0.239664 0.872150 -0.426515
vn 0.327976 0.117916 -0.937298
vn 0.111380 0.102038 -0.988526
vn 0.101251 0.111389 -0.988605
vn 0.100227 0.328617 -0.939130
vn 0.170498 0.386367 -0.906450
vn 0.374395 0.724962 -0.578151
vn 0.287259 0.659107 -0.695025
vn 0.530225 0.843847 -0.082368
vn 0.702103 0.702106 -0.118737
vn 0.446829 0.878824 -0.167368
vn 0.426515 0.872150 -0.239663
vn 0.527331 0.132643 -0.839243
vn 0.387933 0.462479 -0.797259
vn 0.361553 0.158066 -0.918855
vn 0.285856 0.372388 -0.882957
vn 0.578152 0.724961 -0.374395
vn 0.515907 0.683872 -0.515906
vn 0.700269 0.138723 -0.700271
vn 0.530641 0.421098 -0.735593
vn 0.593646 0.184451 -0.783302
vn 0.617456 0.487339 -0.617454
vn 0.844139 0.530406 -0.078098
vn 0.720598 0.674629 -0.160046
vn 0.695024 0.659108 -0.287260
vn 0.839243 0.132644 -0.527330
vn 0.735592 0.421099 -0.530641
vn 0.783302 0.184452 -0.593646
vn 0.797258 0.462480 -0.387934
vn 0.988526 0.102038 -0.111380
vn 0.937298 0.117916 -0.327976
vn 0.939130 0.328617 -0.100226
vn 0.988605 0.111389 -0.101250
vn 0.906450 0.386367 -0.170498
vn 0.882957 0.372389 -0.285857
vn 0.918855 0.158066 -0.361554
vn -0.111269 0.987542 -0.111269
vn -0.330208 0.943680 -0.020738
vn -0.138157 0.980727 -0.138157
vn -0.702103 0.702106 -0.118737
vn -0.530225 0.843847 -0.082368
vn -0.446829 0.878824 -0.167368
vn -0.020738 0.943680 -0.330208
vn -0.138157 0.980727 -0.138157
vn -0.844140 0.530404 -0.078097
vn -0.720598 0.674629 -0.160046
vn -0.304710 0.902388 -0.304709
vn -0.426515 0.872150 -0.239664
vn -0.937297 0.117916 -0.327978
vn -0.988526 0.102038 -0.111380
vn -0.988605 0.111389 -0.101250
vn -0.939130 0.328619 -0.100226
vn -0.906450 0.386367 -0.170495
vn -0.695024 0.659107 -0.287260
vn -0.578151 0.724962 -0.374395
vn -0.082368 0.843847 -0.530225
vn -0.118737 0.702104 -0.702104
vn -0.167369 0.878824 -0.446829
vn -0.239665 0.872150 -0.426515
vn -0.839244 0.132643 -0.527329
vn -0.918855 0.158064 -0.361554
vn -0.882957 0.372389 -0.285857
vn -0.797258 0.462480 -0.387934
vn -0.515907 0.683873 -0.515905
vn -0.374395 0.724962 -0.578151
vn -0.700269 0.138723 -0.700271
vn -0.735592 0.421099 -0.530641
vn -0.783302 0.184452 -0.593646
vn -0.617456 0.487339 -0.617454
vn -0.078098 0.530406 -0.844139
vn -0.160046 0.674628 -0.720599
vn -0.287259 0.659107 -0.695025
vn -0.527331 0.132643 -0.839243
vn -0.593646 0.184451 -0.783302
vn -0.530641 0.421098 -0.735593
vn -0.387933 0.462479 -0.797259
vn -0.111380 0.102038 -0.988526
vn -0.327976 0.117916 -0.937298
vn -0.100227 0.328617 -0.939130
vn -0.101251 0.111389 -0.988605
vn -0.170498 0.386367 -0.906450
vn -0.285856 0.372388 -0.882957
vn -0.361553 0.158066 -0.918855
vn -0.992714 0.120495 0.000398
vn -0.993712 0.111965 0.000000
vn -0.934172 0.356823 0.000628
vn -0.943882 0.330282 -0.000357
vn -0.794578 0.607159 0.001913
vn -0.846726 0.532029 -0.000552
vn -0.590693 0.806896 0.000672
vn -0.707105 0.707108 -0.000682
vn -0.428672 0.903460 0.000327
vn -0.532032 0.846724 -0.000632
vn -0.124624 0.992204 -0.000516
vn -0.174337 0.984686 -0.000100
vn -0.231673 0.972794 0.000058
vn -0.311504 0.950245 -0.000342
vn -0.330279 0.943883 -0.000667
vn -0.025040 0.999686 0.000000
vn -0.074976 0.997185 -0.000278
vn -0.111965 0.993712 -0.000692
vn 0.000000 0.111965 -0.993712
vn 0.000000 0.111965 -0.993712
vn 0.000000 0.330280 -0.943883
vn 0.000000 0.330280 -0.943883
vn 0.000000 0.532031 -0.846725
vn 0.000000 0.532031 -0.846725
vn 0.000000 0.707107 -0.707107
vn 0.000000 0.707107 -0.707107
vn 0.000000 0.846724 -0.532033
vn 0.000000 0.846724 -0.532033
vn 0.000000 0.943883 -0.330279
vn 0.000000 0.943883 -0.330279
vn 0.000000 0.993712 -0.111964
vn 0.000000 0.993712 -0.111964
vn -0.993712 0.000000 -0.111964
vn -0.993712 0.000000 -0.111964
vn -0.943882 0.000000 -0.330282
vn -0.943882 0.000000 -0.330282
vn -0.846726 0.000000 -0.532030
vn -0.846726 0.000000 -0.532030
vn -0.707105 0.000000 -0.707108
vn -0.707105 0.000000 -0.707108
vn -0.532032 0.000000 -0.846725
vn -0.532032 0.000000 -0.846725
vn -0.330280 0.000000 -0.943883
vn -0.330280 0.000000 -0.943883
vn -0.111965 0.000000 -0.993712
vn -0.111965 0.000000 -0.993712
vn 0.993712 0.111965 0.000000
vn 0.846724 0.532030 0.001776
vn 0.943883 0.330280 -0.000884
vn 0.984763 0.173879 0.002897
vn 0.707105 0.707108 -0.000722
vn 0.850077 0.526657 0.001479
vn 0.532032 0.846724 -0.000528
vn 0.618390 0.785870 0.001614
vn 0.330278 0.943883 -0.000707
vn 0.413621 0.910449 0.000296
vn 0.290458 0.956888 -0.000101
vn 0.195295 0.980744 0.000056
vn 0.111965 0.993712 -0.000675
vn 0.122203 0.992505 -0.000523
vn 0.068263 0.997667 -0.000231
vn 0.022792 0.999740 0.000000
vn 0.993712 0.000000 -0.111964
vn 0.993712 0.000000 -0.111964
vn 0.943883 0.000000 -0.330280
vn 0.943883 0.000000 -0.330280
vn 0.846725 0.000000 -0.532032
vn 0.846725 0.000000 -0.532032
vn 0.707105 0.000000 -0.707108
vn 0.707105 0.000000 -0.707108
vn 0.532032 0.000000 -0.846725
vn 0.532032 0.000000 -0.846725
vn 0.330280 0.000000 -0.943883
vn 0.330280 0.000000 -0.943883
vn 0.111965 0.000000 -0.993712
vn 0.111965 0.000000 -0.993712
vn 0.000000 -0.993712 -0.111964
vn -0.000000 -0.993712 -0.111964
vn -0.000000 -0.943883 -0.330279
vn 0.000000 -0.943883 -0.330279
vn -0.000000 -0.846724 -0.532033
vn 0.000000 -0.846724 -0.532033
vn -0.000000 -0.707107 -0.707107
vn 0.000000 -0.707107 -0.707107
vn -0.000000 -0.532031 -0.846725
vn 0.000000 -0.532031 -0.846725
vn -0.000000 -0.330280 -0.943883
vn 0.000000 -0.330280 -0.943883
vn -0.000000 -0.111965 -0.993712
vn 0.000000 -0.111965 -0.993712
vn -0.990819 -0.135194 0.000000
vn -0.943882 -0.330282 -0.000335
vn -0.993712 -0.111965 0.000511
vn -0.846726 -0.532029 -0.000544
vn -0.917179 -0.398476 0.000713
vn -0.707105 -0.707108 -0.000581
vn -0.777927 -0.628355 0.000832
vn -0.532033 -0.846724 -0.000412
vn -0.584469 -0.811416 0.000784
vn -0.330278 -0.943883 -0.000669
vn -0.408164 -0.912908 0.000228
vn -0.297467 -0.954732 -0.000204
vn -0.220471 -0.975394 0.000055
vn -0.166102 -0.986109 -0.000151
vn -0.111965 -0.993712 -0.000681
vn -0.119150 -0.992876 -0.000578
vn -0.071491 -0.997441 -0.000252
vn -0.023821 -0.999716 -0.000000
vn 0.981503 -0.191444 0.001320
vn 0.993712 -0.111965 0.000000
vn 0.845308 -0.534279 0.000962
vn 0.943883 -0.330280 -0.000470
vn 0.846724 -0.532031 0.001037
vn 0.612497 -0.790472 0.001287
vn 0.707105 -0.707108 -0.000528
vn 0.413732 -0.910399 0.000267
vn 0.532033 -0.846724 -0.000472
vn 0.292645 -0.956221 -0.000117
vn 0.197789 -0.980245 0.000061
vn 0.125852 -0.992049 -0.000479
vn 0.330279 -0.943883 -0.000663
vn 0.070900 -0.997483 -0.000248
vn 0.023627 -0.999721 0.000000
vn 0.111965 -0.993712 -0.000680
vn -0.000004 -0.977451 0.211163
vn 0.000000 -0.977447 0.211179
vn -0.000002 -0.977449 0.211173
vn 0.000002 -0.977447 0.211181
vn 0.000002 -0.977447 0.211181
vn -0.000001 -0.977448 0.211178
vn 0.000001 -0.977447 0.211179
vn -0.000001 -0.977447 0.211179
vn 0.000000 -0.977447 0.211179
vn 0.000000 -0.977447 0.211179
vn 0.000000 -0.977447 0.211179
vn 0.000000 -0.977447 0.211179
vn 0.000000 -0.977447 0.211179
vn 0.000000 -0.977447 0.211179
vn -0.000001 -0.977447 0.211179
vn 0.000000 -0.977447 0.211179
vn 0.000000 -0.977447 0.211179
vn 0.000002 -0.977448 0.211177
vn 0.000010 -0.977459 0.211125
vn -0.000009 -0.977442 0.211204
vn -0.000001 -0.977447 0.211181
vn 0.000002 -0.977448 0.211174
vn 0.000000 -1.000000 0.000000
vn 0.000000 -1.000000 0.000000
vn 0.000000 -0.000000 -1.000000
vn -0.000000 0.000000 -1.000000
vn 0.000000 -1.000000 0.000000
vn 0.000000 -1.000000 0.000000
vn -0.000003 0.972729 0.231946
vn 0.000000 0.972729 0.231946
vn -0.000009 0.972729 0.231947
vn 0.000021 0.972729 0.231944
vn -0.000011 0.972729 0.231947
vn 0.000005 0.972729 0.231946
vn -0.000002 0.972729 0.231946
vn 0.000001 0.972729 0.231946
vn 0.000000 0.972729 0.231946
vn 0.000000 0.972729 0.231945
vn 0.000188 0.972729 0.231945
vn 0.000123 0.972728 0.231950
vn 0.000000 0.972729 0.231946
vn 0.000000 0.972729 0.231946
vn 0.000009 0.972728 0.231947
vn -0.000004 0.972729 0.231946
vn -0.000008 0.972729 0.231945
vn 0.000012 0.972729 0.231947
vn -0.000009 0.972729 0.231945
vn 0.000000 0.972729 0.231946
vn -0.000623 0.972716 0.231997
vn 0.001250 0.972681 0.232144
vn 0.000033 0.972729 0.231946
vn 0.000002 0.972729 0.231946
vn -0.000003 0.972729 0.231946
vn -0.000003 0.972729 0.231946
vn 0.000003 0.972729 0.231946
vn -0.000002 0.972729 0.231946
vn 0.000004 0.972729 0.231946
vn 0.000000 0.972387 -0.233373
vn 0.000005 0.972387 -0.233373
vn 0.000000 0.972387 -0.233373
vn 0.000004 0.972387 -0.233372
vn 0.000000 0.972387 -0.233373
vn 0.000002 0.972387 -0.233373
vn 0.000000 0.972387 -0.233373
vn -0.000002 0.972387 -0.233373
vn 0.000001 0.972387 -0.233373
vn -0.000002 0.972387 -0.233373
vn 0.000000 0.972387 -0.233373
vn 0.000000 0.972387 -0.233373
vn 0.000005 0.972387 -0.233373
vn 0.000005 0.972387 -0.233373
vn 0.000000 0.972387 -0.233373
vn 0.000000 0.972387 -0.233373
vn 0.000006 0.972387 -0.233373
vn -0.000000 0.972387 -0.233373
vn -0.000005 0.972387 -0.233373
vn 0.000000 0.972387 -0.233373
vn 0.000002 0.972387 -0.233373
vn 0.000000 0.972387 -0.233373
vn 0.000000 1.000000 0.000000
vn 0.000000 1.000000 0.000000
vn -0.000006 -0.977757 -0.209740
vn -0.000005 -0.977757 -0.209740
vn -0.000020 -0.977765 -0.209703
vn 0.000007 -0.977740 -0.209819
vn -0.000002 -0.977756 -0.209744
vn -0.000003 -0.977757 -0.209743
vn -0.000000 -0.977756 -0.209744
vn 0.000035 -0.977786 -0.209605
vn 0.000001 -0.977755 -0.209752
vn 0.000008 -0.977759 -0.209733
vn 0.000001 -0.977756 -0.209747
vn 0.000006 -0.977757 -0.209739
vn 0.000003 -0.977757 -0.209743
vn 0.000001 -0.977756 -0.209744
vn 0.000000 -0.977756 -0.209744
vn 0.000000 -0.977756 -0.209744
vn 0.000003 -0.977756 -0.209743
vn 0.000000 -0.977756 -0.209744
vn 0.000000 -0.977756 -0.209744
vn -0.000000 -0.977756 -0.209744
vn -0.000000 -0.977756 -0.209744
vn 0.000000 -0.977756 -0.209744
f 1//1 2//1 3//1
f 1//2 4//2 2//2
f 5//3 3//3 6//3
f 5//4 1//4 3//4
f 7//5 5//5 6//5
f 8//6 6//6 9//6
f 8//7 7//7 6//7
f 10//8 9//8 11//8
f 10//9 8//9 9//9
f 12//10 11//10 13//10
f 12//11 13//11 14//11
f 12//12 14//12 15//12
f 12//13 10//13 11//13
f 16//14 15//14 17//14
f 16//15 17//15 18//15
f 16//16 12//16 15//16
f 19//17 20//17 21//17
f 19//18 22//18 20//18
f 23//19 21//19 24//19
f 23//20 19//20 21//20
f 25//21 24//21 26//21
f 25//22 23//22 24//22
f 27//23 26//23 28//23
f 27//24 25//24 26//24
f 29//25 28//25 30//25
f 29//26 27//26 28//26
f 31//27 30//27 32//27
f 31//28 29//28 30//28
f 33//29 32//29 16//29
f 33//30 31//30 32//30
f 34//31 21//31 20//31
f 34//32 20//32 35//32
f 36//33 24//33 21//33
f 36//34 35//34 37//34
f 36//35 21//35 34//35
f 36//36 34//36 35//36
f 38//37 26//37 24//37
f 38//38 24//38 36//38
f 39//39 37//39 40//39
f 39//40 36//40 37//40
f 41//41 36//41 39//41
f 41//42 38//42 36//42
f 41//43 26//43 38//43
f 42//44 40//44 43//44
f 42//45 43//45 44//45
f 42//46 39//46 40//46
f 45//47 28//47 26//47
f 45//48 30//48 28//48
f 45//49 26//49 41//49
f 46//50 39//50 42//50
f 46//51 41//51 39//51
f 47//52 44//52 48//52
f 47//53 1//53 5//53
f 47//54 42//54 44//54
f 49//55 45//55 41//55
f 49//56 41//56 46//56
f 49//57 30//57 45//57
f 50//58 42//58 47//58
f 50//59 46//59 42//59
f 51//60 48//60 4//60
f 51//61 4//61 1//61
f 51//62 1//62 47//62
f 51//63 47//63 48//63
f 52//64 49//64 46//64
f 52//65 46//65 50//65
f 53//66 5//66 7//66
f 53//67 7//67 50//67
f 53//68 47//68 5//68
f 53//69 50//69 47//69
f 54//70 32//70 30//70
f 54//71 16//71 32//71
f 54//72 12//72 16//72
f 54//73 10//73 12//73
f 54//74 52//74 10//74
f 54//75 30//75 49//75
f 54//76 49//76 52//76
f 55//77 8//77 10//77
f 55//78 7//78 8//78
f 55//79 50//79 7//79
f 55//80 10//80 52//80
f 55//81 52//81 50//81
f 56//82 57//82 58//82
f 56//83 58//83 59//83
f 56//84 59//84 60//84
f 61//85 60//85 62//85
f 61//86 56//86 60//86
f 63//87 62//87 64//87
f 63//88 61//88 62//88
f 65//89 64//89 66//89
f 65//90 63//90 64//90
f 67//91 66//91 68//91
f 67//92 65//92 66//92
f 69//93 67//93 68//93
f 70//94 69//94 68//94
f 71//95 70//95 68//95
f 72//96 68//96 33//96
f 72//97 71//97 68//97
f 73//98 72//98 33//98
f 74//99 73//99 33//99
f 75//100 59//100 58//100
f 75//101 58//101 76//101
f 77//102 60//102 59//102
f 77//103 76//103 78//103
f 77//104 59//104 75//104
f 77//105 75//105 76//105
f 79//106 62//106 60//106
f 79//107 60//107 77//107
f 80//108 78//108 81//108
f 80//109 81//109 82//109
f 80//110 77//110 78//110
f 83//111 77//111 80//111
f 83//112 79//112 77//112
f 83//113 62//113 79//113
f 84//114 82//114 85//114
f 84//115 80//115 82//115
f 86//116 64//116 62//116
f 86//117 66//117 64//117
f 86//118 62//118 83//118
f 87//119 80//119 84//119
f 87//120 83//120 80//120
f 88//121 85//121 89//121
f 88//122 19//122 23//122
f 88//123 84//123 85//123
f 90//124 83//124 87//124
f 90//125 66//125 86//125
f 90//126 86//126 83//126
f 91//127 84//127 88//127
f 91//128 87//128 84//128
f 92//129 89//129 22//129
f 92//130 22//130 19//130
f 92//131 88//131 89//131
f 92//132 19//132 88//132
f 93//133 90//133 87//133
f 93//134 87//134 91//134
f 94//135 23//135 25//135
f 94//136 25//136 91//136
f 94//137 88//137 23//137
f 94//138 91//138 88//138
f 95//139 68//139 66//139
f 95//140 33//140 68//140
f 95//141 31//141 33//141
f 95//142 29//142 31//142
f 95//143 66//143 90//143
f 95//144 93//144 29//144
f 95//145 90//145 93//145
f 96//146 27//146 29//146
f 96//147 25//147 27//147
f 96//148 91//148 25//148
f 96//149 29//149 93//149
f 96//150 93//150 91//150
f 97//151 98//151 99//151
f 100//152 101//152 98//152
f 100//153 98//153 97//153
f 102//154 101//154 100//154
f 2//155 101//155 102//155
f 103//156 101//156 2//156
f 4//157 103//157 2//157
f 104//158 103//158 4//158
f 105//159 4//159 48//159
f 105//160 104//160 4//160
f 106//161 105//161 48//161
f 107//162 106//162 48//162
f 108//163 48//163 44//163
f 108//164 107//164 48//164
f 109//165 44//165 43//165
f 109//166 108//166 44//166
f 110//167 43//167 40//167
f 110//168 109//168 43//168
f 111//169 40//169 37//169
f 111//170 110//170 40//170
f 112//171 37//171 35//171
f 112//172 111//172 37//172
f 113//173 35//173 20//173
f 113//174 112//174 35//174
f 22//175 114//175 113//175
f 22//176 113//176 20//176
f 58//177 115//177 116//177
f 58//178 117//178 115//178
f 76//179 118//179 119//179
f 76//180 116//180 118//180
f 76//181 119//181 120//181
f 76//182 58//182 116//182
f 78//183 120//183 121//183
f 78//184 76//184 120//184
f 81//185 121//185 122//185
f 81//186 78//186 121//186
f 82//187 122//187 123//187
f 82//188 81//188 122//188
f 85//189 123//189 124//189
f 85//190 82//190 123//190
f 89//191 124//191 114//191
f 89//192 85//192 124//192
f 22//193 89//193 114//193
f 57//194 117//194 58//194
f 125//195 57//195 126//195
f 125//196 126//196 127//196
f 125//197 117//197 57//197
f 128//198 127//198 129//198
f 128//199 125//199 127//199
f 130//200 128//200 129//200
f 131//201 132//201 133//201
f 131//202 134//202 132//202
f 135//203 111//203 112//203
f 135//204 112//204 113//204
f 135//205 113//205 136//205
f 137//206 109//206 110//206
f 137//207 110//207 111//207
f 137//208 111//208 135//208
f 138//209 136//209 139//209
f 138//210 135//210 136//210
f 140//211 108//211 109//211
f 140//212 109//212 137//212
f 141//213 137//213 135//213
f 141//214 135//214 138//214
f 142//215 137//215 141//215
f 142//216 140//216 137//216
f 143//217 139//217 144//217
f 143//218 144//218 145//218
f 143//219 141//219 138//219
f 143//220 138//220 139//220
f 146//221 133//221 107//221
f 146//222 107//222 108//222
f 146//223 147//223 131//223
f 146//224 108//224 140//224
f 146//225 131//225 133//225
f 146//226 140//226 142//226
f 148//227 141//227 143//227
f 148//228 142//228 141//228
f 149//229 150//229 147//229
f 149//230 142//230 148//230
f 149//231 147//231 146//231
f 149//232 146//232 142//232
f 151//233 145//233 152//233
f 151//234 152//234 153//234
f 151//235 143//235 145//235
f 151//236 148//236 143//236
f 154//237 155//237 156//237
f 154//238 156//238 150//238
f 154//239 150//239 149//239
f 154//240 149//240 148//240
f 154//241 148//241 151//241
f 157//242 153//242 158//242
f 157//243 158//243 159//243
f 157//244 159//244 155//244
f 157//245 151//245 153//245
f 157//246 155//246 154//246
f 157//247 154//247 151//247
f 160//248 131//248 147//248
f 160//249 134//249 131//249
f 150//250 160//250 147//250
f 161//251 150//251 156//251
f 161//252 160//252 150//252
f 162//253 156//253 155//253
f 162//254 161//254 156//254
f 163//255 155//255 159//255
f 163//256 162//256 155//256
f 164//257 163//257 159//257
f 165//258 159//258 158//258
f 165//259 164//259 159//259
f 166//260 165//260 158//260
f 167//261 166//261 158//261
f 168//262 167//262 158//262
f 169//263 168//263 158//263
f 169//264 170//264 168//264
f 169//265 158//265 153//265
f 171//266 153//266 152//266
f 171//267 169//267 153//267
f 172//268 152//268 145//268
f 172//269 171//269 152//269
f 173//270 145//270 144//270
f 173//271 172//271 145//271
f 174//272 144//272 139//272
f 174//273 173//273 144//273
f 175//274 139//274 136//274
f 175//275 174//275 139//275
f 176//276 136//276 113//276
f 176//277 175//277 136//277
f 114//278 176//278 113//278
f 177//279 178//279 179//279
f 180//280 179//280 181//280
f 180//281 177//281 179//281
f 182//282 181//282 183//282
f 182//283 180//283 181//283
f 184//284 183//284 185//284
f 184//285 182//285 183//285
f 186//286 185//286 187//286
f 186//287 184//287 185//287
f 188//288 189//288 190//288
f 188//289 191//289 189//289
f 188//290 187//290 191//290
f 188//291 186//291 187//291
f 169//292 192//292 170//292
f 169//293 193//293 192//293
f 169//294 190//294 193//294
f 169//295 188//295 190//295
f 194//296 177//296 195//296
f 178//297 177//297 194//297
f 196//298 175//298 176//298
f 197//299 173//299 174//299
f 197//300 174//300 175//300
f 197//301 175//301 196//301
f 198//302 176//302 114//302
f 198//303 114//303 124//303
f 198//304 124//304 123//304
f 198//305 196//305 176//305
f 199//306 171//306 172//306
f 199//307 172//307 173//307
f 199//308 173//308 197//308
f 200//309 196//309 198//309
f 200//310 197//310 196//310
f 201//311 188//311 169//311
f 201//312 186//312 188//312
f 201//313 169//313 171//313
f 201//314 171//314 199//314
f 202//315 199//315 197//315
f 202//316 197//316 200//316
f 203//317 123//317 122//317
f 203//318 122//318 121//318
f 203//319 198//319 123//319
f 203//320 200//320 198//320
f 204//321 184//321 186//321
f 204//322 182//322 184//322
f 204//323 186//323 201//323
f 204//324 199//324 202//324
f 204//325 201//325 199//325
f 205//326 202//326 200//326
f 205//327 200//327 203//327
f 206//328 180//328 182//328
f 206//329 202//329 205//329
f 206//330 204//330 202//330
f 206//331 182//331 204//331
f 207//332 121//332 120//332
f 207//333 205//333 203//333
f 207//334 203//334 121//334
f 208//335 119//335 195//335
f 208//336 177//336 180//336
f 208//337 120//337 119//337
f 208//338 180//338 206//338
f 208//339 195//339 177//339
f 208//340 206//340 205//340
f 208//341 207//341 120//341
f 208//342 205//342 207//342
f 209//343 210//343 129//343
f 211//344 212//344 210//344
f 213//345 214//345 215//345
f 213//346 215//346 212//346
f 213//347 212//347 211//347
f 216//348 209//348 217//348
f 216//349 210//349 209//349
f 216//350 211//350 210//350
f 218//351 219//351 214//351
f 218//352 214//352 213//352
f 220//353 211//353 216//353
f 220//354 213//354 211//354
f 221//355 222//355 223//355
f 221//356 223//356 224//356
f 221//357 224//357 225//357
f 221//358 225//358 219//358
f 221//359 219//359 218//359
f 226//360 213//360 220//360
f 226//361 218//361 213//361
f 227//362 217//362 228//362
f 227//363 228//363 229//363
f 227//364 216//364 217//364
f 227//365 220//365 216//365
f 230//366 231//366 222//366
f 230//367 218//367 226//367
f 230//368 222//368 221//368
f 230//369 221//369 218//369
f 232//370 226//370 220//370
f 232//371 220//371 227//371
f 233//372 234//372 231//372
f 233//373 230//373 226//373
f 233//374 231//374 230//374
f 233//375 226//375 232//375
f 235//376 229//376 236//376
f 235//377 227//377 229//377
f 235//378 232//378 227//378
f 237//379 238//379 234//379
f 237//380 234//380 233//380
f 237//381 233//381 232//381
f 237//382 232//382 235//382
f 239//383 236//383 240//383
f 239//384 240//384 241//384
f 239//385 241//385 242//385
f 239//386 242//386 238//386
f 239//387 235//387 236//387
f 239//388 238//388 237//388
f 239//389 237//389 235//389
f 243//390 244//390 245//390
f 243//391 245//391 246//391
f 247//392 248//392 244//392
f 247//393 246//393 249//393
f 247//394 244//394 243//394
f 247//395 243//395 246//395
f 250//396 251//396 248//396
f 250//397 248//397 247//397
f 252//398 249//398 253//398
f 252//399 247//399 249//399
f 254//400 247//400 252//400
f 254//401 251//401 250//401
f 254//402 250//402 247//402
f 255//403 253//403 256//403
f 255//404 256//404 257//404
f 255//405 252//405 253//405
f 258//406 259//406 260//406
f 258//407 260//407 251//407
f 258//408 251//408 254//408
f 261//409 252//409 255//409
f 261//410 254//410 252//410
f 262//411 263//411 264//411
f 262//412 257//412 265//412
f 262//413 255//413 257//413
f 266//414 258//414 254//414
f 266//415 254//415 261//415
f 266//416 259//416 258//416
f 267//417 261//417 255//417
f 267//418 255//418 262//418
f 268//419 269//419 263//419
f 268//420 265//420 269//420
f 268//421 262//421 265//421
f 268//422 263//422 262//422
f 270//423 261//423 267//423
f 270//424 266//424 261//424
f 271//425 264//425 272//425
f 271//426 262//426 264//426
f 271//427 272//427 267//427
f 271//428 267//428 262//428
f 273//429 274//429 275//429
f 273//430 275//430 97//430
f 273//431 97//431 276//431
f 273//432 276//432 259//432
f 273//433 270//433 274//433
f 273//434 259//434 266//434
f 273//435 266//435 270//435
f 277//436 272//436 278//436
f 277//437 278//437 274//437
f 277//438 274//438 270//438
f 277//439 267//439 272//439
f 277//440 270//440 267//440
f 279//441 280//441 281//441
f 282//442 283//442 280//442
f 284//443 285//443 286//443
f 284//444 286//444 283//444
f 284//445 283//445 282//445
f 287//446 279//446 288//446
f 287//447 280//447 279//447
f 287//448 282//448 280//448
f 289//449 290//449 285//449
f 289//450 285//450 284//450
f 291//451 282//451 287//451
f 291//452 284//452 282//452
f 292//453 293//453 294//453
f 292//454 294//454 295//454
f 292//455 295//455 296//455
f 292//456 296//456 290//456
f 292//457 290//457 289//457
f 297//458 284//458 291//458
f 297//459 289//459 284//459
f 298//460 288//460 299//460
f 298//461 299//461 300//461
f 298//462 287//462 288//462
f 298//463 291//463 287//463
f 301//464 302//464 293//464
f 301//465 289//465 297//465
f 301//466 293//466 292//466
f 301//467 292//467 289//467
f 303//468 291//468 298//468
f 303//469 297//469 291//469
f 304//470 305//470 302//470
f 304//471 301//471 297//471
f 304//472 302//472 301//472
f 304//473 297//473 303//473
f 306//474 300//474 307//474
f 306//475 298//475 300//475
f 306//476 303//476 298//476
f 308//477 309//477 305//477
f 308//478 304//478 303//478
f 308//479 305//479 304//479
f 308//480 303//480 306//480
f 310//481 130//481 311//481
f 310//482 311//482 309//482
f 310//483 307//483 312//483
f 310//484 312//484 130//484
f 310//485 306//485 307//485
f 310//486 308//486 306//486
f 310//487 309//487 308//487
f 313//488 314//488 315//488
f 316//489 317//489 314//489
f 316//490 314//490 313//490
f 318//491 319//491 320//491
f 318//492 320//492 317//492
f 318//493 317//493 316//493
f 321//494 313//494 322//494
f 321//495 316//495 313//495
f 323//496 324//496 319//496
f 323//497 319//497 318//497
f 325//498 316//498 321//498
f 325//499 318//499 316//499
f 326//500 327//500 328//500
f 326//501 328//501 99//501
f 326//502 99//502 329//502
f 326//503 329//503 324//503
f 326//504 324//504 323//504
f 330//505 323//505 318//505
f 330//506 318//506 325//506
f 331//507 322//507 332//507
f 331//508 332//508 333//508
f 331//509 321//509 322//509
f 331//510 325//510 321//510
f 334//511 335//511 327//511
f 334//512 327//512 326//512
f 334//513 326//513 323//513
f 334//514 323//514 330//514
f 336//515 330//515 325//515
f 336//516 325//516 331//516
f 337//517 338//517 335//517
f 337//518 334//518 330//518
f 337//519 335//519 334//519
f 337//520 330//520 336//520
f 339//521 333//521 340//521
f 339//522 331//522 333//522
f 339//523 336//523 331//523
f 341//524 342//524 338//524
f 341//525 338//525 337//525
f 341//526 337//526 336//526
f 341//527 336//527 339//527
f 343//528 344//528 345//528
f 343//529 345//529 342//529
f 343//530 340//530 346//530
f 343//531 346//531 344//531
f 343//532 339//532 340//532
f 343//533 341//533 339//533
f 343//534 342//534 341//534
f 329//535 98//535 347//535
f 329//536 99//536 98//536
f 324//537 347//537 348//537
f 324//538 329//538 347//538
f 319//539 348//539 349//539
f 319//540 324//540 348//540
f 320//541 349//541 350//541
f 320//542 319//542 349//542
f 317//543 350//543 351//543
f 317//544 320//544 350//544
f 314//545 352//545 353//545
f 314//546 354//546 352//546
f 314//547 355//547 354//547
f 314//548 351//548 355//548
f 314//549 317//549 351//549
f 315//550 356//550 357//550
f 315//551 353//551 356//551
f 315//552 314//552 353//552
f 296//553 295//553 344//553
f 296//554 344//554 346//554
f 290//555 346//555 340//555
f 290//556 296//556 346//556
f 285//557 340//557 333//557
f 285//558 290//558 340//558
f 286//559 333//559 332//559
f 286//560 285//560 333//560
f 283//561 332//561 322//561
f 283//562 286//562 332//562
f 280//563 322//563 313//563
f 280//564 283//564 322//564
f 281//565 313//565 315//565
f 281//566 280//566 313//566
f 276//567 97//567 99//567
f 276//568 99//568 328//568
f 259//569 328//569 327//569
f 259//570 276//570 328//570
f 260//571 327//571 335//571
f 260//572 259//572 327//572
f 251//573 335//573 338//573
f 251//574 260//574 335//574
f 248//575 338//575 342//575
f 248//576 251//576 338//576
f 244//577 342//577 345//577
f 244//578 248//578 342//578
f 245//579 345//579 344//579
f 245//580 244//580 345//580
f 128//581 130//581 312//581
f 358//582 307//582 300//582
f 358//583 312//583 307//583
f 358//584 128//584 312//584
f 359//585 300//585 299//585
f 359//586 358//586 300//586
f 360//587 299//587 288//587
f 360//588 359//588 299//588
f 361//589 288//589 279//589
f 361//590 360//590 288//590
f 362//591 361//591 279//591
f 363//592 362//592 279//592
f 364//593 279//593 281//593
f 364//594 363//594 279//594
f 365//595 364//595 281//595
f 366//596 365//596 281//596
f 311//597 130//597 129//597
f 311//598 129//598 210//598
f 309//599 210//599 212//599
f 309//600 311//600 210//600
f 305//601 212//601 215//601
f 305//602 309//602 212//602
f 302//603 215//603 214//603
f 302//604 305//604 215//604
f 293//605 214//605 219//605
f 293//606 302//606 214//606
f 294//607 219//607 225//607
f 294//608 293//608 219//608
f 295//609 225//609 224//609
f 295//610 294//610 225//610
f 242//611 241//611 269//611
f 242//612 269//612 265//612
f 238//613 265//613 257//613
f 238//614 242//614 265//614
f 234//615 257//615 256//615
f 234//616 238//616 257//616
f 231//617 256//617 253//617
f 231//618 234//618 256//618
f 222//619 253//619 249//619
f 222//620 231//620 253//620
f 223//621 249//621 246//621
f 223//622 222//622 249//622
f 224//623 246//623 245//623
f 224//624 223//624 246//624
f 367//625 100//625 97//625
f 367//626 275//626 274//626
f 367//627 97//627 275//627
f 368//628 274//628 278//628
f 368//629 367//629 274//629
f 369//630 278//630 272//630
f 369//631 368//631 278//631
f 370//632 272//632 264//632
f 370//633 369//633 272//633
f 371//634 264//634 263//634
f 371//635 370//635 264//635
f 372//636 371//636 263//636
f 373//637 372//637 263//637
f 374//638 373//638 263//638
f 375//639 263//639 269//639
f 375//640 374//640 263//640
f 376//641 375//641 269//641
f 377//642 376//642 269//642
f 209//643 127//643 378//643
f 209//644 129//644 127//644
f 217//645 378//645 379//645
f 217//646 209//646 378//646
f 228//647 217//647 379//647
f 229//648 379//648 380//648
f 229//649 228//649 379//649
f 236//650 380//650 381//650
f 236//651 229//651 380//651
f 240//652 381//652 382//652
f 240//653 382//653 383//653
f 240//654 383//654 384//654
f 240//655 236//655 381//655
f 241//656 384//656 385//656
f 241//657 385//657 386//657
f 241//658 240//658 384//658
f 377//659 375//659 376//659
f 377//660 374//660 375//660
f 377//661 373//661 374//661
f 377//662 372//662 373//662
f 377//663 371//663 372//663
f 377//664 370//664 371//664
f 377//665 369//665 370//665
f 377//666 368//666 369//666
f 127//667 100//667 367//667
f 127//668 126//668 102//668
f 127//669 102//669 100//669
f 378//670 367//670 368//670
f 378//671 127//671 367//671
f 386//672 379//672 378//672
f 386//673 380//673 379//673
f 386//674 368//674 377//674
f 386//675 378//675 368//675
f 381//676 380//676 386//676
f 384//677 386//677 385//677
f 383//678 386//678 384//678
f 382//679 381//679 386//679
f 382//680 386//680 383//680
f 241//681 377//681 269//681
f 241//682 386//682 377//682
f 295//683 224//683 245//683
f 295//684 245//684 344//684
f 74//685 16//685 18//685
f 74//686 33//686 16//686
f 163//687 164//687 101//687
f 165//688 101//688 164//688
f 166//689 101//689 165//689
f 167//690 101//690 166//690
f 168//691 101//691 167//691
f 162//692 163//692 101//692
f 161//693 162//693 101//693
f 160//694 161//694 101//694
f 134//695 160//695 103//695
f 104//696 134//696 103//696
f 132//697 134//697 104//697
f 105//698 132//698 104//698
f 170//699 125//699 101//699
f 170//700 101//700 168//700
f 192//701 125//701 170//701
f 193//702 125//702 192//702
f 190//703 125//703 193//703
f 189//704 125//704 190//704
f 191//705 125//705 189//705
f 101//706 103//706 160//706
f 105//707 133//707 132//707
f 118//708 195//708 119//708
f 117//709 125//709 115//709
f 115//710 125//710 179//710
f 179//711 125//711 181//711
f 181//712 125//712 183//712
f 183//713 125//713 185//713
f 185//714 125//714 187//714
f 187//715 125//715 191//715
f 101//716 357//716 356//716
f 101//717 356//717 353//717
f 101//718 353//718 352//718
f 101//719 352//719 354//719
f 101//720 354//720 355//720
f 101//721 355//721 351//721
f 101//722 351//722 350//722
f 101//723 350//723 349//723
f 101//724 349//724 348//724
f 125//725 361//725 362//725
f 125//726 362//726 363//726
f 125//727 363//727 364//727
f 125//728 364//728 365//728
f 125//729 365//729 366//729
f 125//730 366//730 357//730
f 125//731 357//731 101//731
f 98//732 101//732 347//732
f 347//733 101//733 348//733
f 125//734 128//734 358//734
f 125//735 358//735 359//735
f 125//736 359//736 360//736
f 125//737 360//737 361//737
f 366//738 315//738 357//738
f 366//739 281//739 315//739
f 18//740 13//740 11//740
f 18//741 14//741 13//741
f 18//742 15//742 14//742
f 18//743 17//743 15//743
f 9//744 18//744 11//744
f 6//745 18//745 9//745
f 3//746 18//746 6//746
f 72//747 73//747 74//747
f 71//748 72//748 74//748
f 70//749 71//749 74//749
f 69//750 70//750 74//750
f 67//751 69//751 74//751
f 65//752 67//752 74//752
f 63//753 65//753 74//753
f 61//754 74//754 18//754
f 61//755 18//755 3//755
f 61//756 63//756 74//756
f 56//757 3//757 2//757
f 56//758 61//758 3//758
f 57//759 56//759 2//759
f 126//760 2//760 102//760
f 126//761 57//761 2//761
