# Created by FreeCAD <https://www.freecad.org>
v -1.613761 1.863761 12.996690
v -1.650000 1.900000 13.000000
v -1.650000 -1.400000 13.000000
v -1.587670 -1.337670 12.990040
v -1.578721 1.828721 12.986867
v -1.539768 1.789768 12.966880
v -1.531549 -1.281549 12.961150
v -1.513927 1.763927 12.946575
v -1.494515 -1.244515 12.925795
v -1.491760 1.741760 12.922312
v -1.473866 1.723866 12.894746
v -1.471353 -1.221353 12.889918
v -1.460728 1.710728 12.864622
v -1.457449 -1.207449 12.854074
v -1.452700 1.702700 12.832753
v -1.451871 -1.201871 12.827292
v -1.450000 1.700000 12.800000
v -1.450000 -1.200000 12.800000
v 1.650000 -1.400000 13.000000
v 1.587670 -1.337670 12.990040
v 1.531549 -1.281549 12.961150
v 1.494515 -1.244515 12.925795
v 1.471353 -1.221353 12.889918
v 1.457449 -1.207449 12.854074
v 1.451871 -1.201871 12.827292
v 1.450000 -1.200000 12.800000
v 1.650000 1.900000 13.000000
v 1.587670 1.837670 12.990040
v 1.531549 1.781549 12.961150
v 1.494515 1.744515 12.925795
v 1.471353 1.721353 12.889918
v 1.457449 1.707449 12.854074
v 1.451871 1.701871 12.827292
v 1.450000 1.700000 12.800000
v -1.450000 1.700000 11.500000
v 1.450000 1.700000 11.500000
v -1.450000 -1.200000 11.500000
v -4.000000 2.500000 13.000000
v -4.000000 -2.000000 13.000000
v 4.000000 -2.000000 13.000000
v 4.000000 2.500000 13.000000
v 1.450000 -1.200000 11.500000
v 0.952526 1.053878 8.000000
v 3.547474 1.053878 8.000000
v 3.522246 1.027996 8.003407
v 0.977754 1.027996 8.003407
v 3.498737 1.003878 8.013397
v 1.001263 1.003878 8.013397
v 3.478549 0.983167 8.029289
v 1.021451 0.983167 8.029289
v 3.464364 0.968614 8.047750
v 1.035636 0.968614 8.047750
v 3.456212 0.960251 8.064873
v 1.043788 0.960251 8.064873
v 3.451702 0.955624 8.081393
v 1.048298 0.955624 8.081393
v 3.450427 0.954316 8.090655
v 1.049574 0.954316 8.090655
v 3.450000 0.953878 8.100000
v 1.050000 0.953878 8.100000
v 3.586694 -1.084504 8.001208
v 3.602592 -1.100000 8.000000
v 0.897408 -1.100000 8.000000
v 0.923961 -1.074118 8.003407
v 3.571181 -1.069382 8.004803
v 0.948704 -1.050000 8.013397
v 3.549828 -1.048570 8.014239
v 3.535566 -1.034668 8.024292
v 0.969952 -1.029289 8.029289
v 3.523277 -1.022689 8.036572
v 0.984882 -1.014736 8.047750
v 3.513322 -1.012985 8.050720
v 0.993462 -1.006373 8.064873
v 3.505994 -1.005843 8.066319
v 0.998208 -1.001746 8.081393
v 3.501510 -1.001472 8.082908
v 0.999551 -1.000437 8.090655
v 3.500000 -1.000000 8.100000
v 1.000000 -1.000000 8.100000
v 3.500000 -1.000000 9.000000
v 3.450000 0.953878 9.000000
v 1.000000 -1.000000 9.000000
v 4.000000 2.500000 8.000000
v 4.000000 -2.000000 8.000000
v -4.000000 2.500000 8.000000
v -0.952526 1.053878 8.000000
v -0.897408 -1.100000 8.000000
v -3.547474 1.053878 8.000000
v -3.602592 -1.100000 8.000000
v -4.000000 -2.000000 8.000000
v -0.913306 -1.084504 8.001208
v -3.576039 -1.074118 8.003407
v -0.928819 -1.069382 8.004803
v -3.551296 -1.050000 8.013397
v -0.950172 -1.048570 8.014239
v -0.964434 -1.034668 8.024292
v -3.530048 -1.029289 8.029289
v -0.976723 -1.022689 8.036572
v -3.515118 -1.014736 8.047750
v -0.986678 -1.012985 8.050720
v -3.506538 -1.006373 8.064873
v -0.994006 -1.005843 8.066319
v -3.501792 -1.001746 8.081393
v -0.998490 -1.001472 8.082908
v -3.500449 -1.000437 8.090655
v -1.000000 -1.000000 8.100000
v -3.500000 -1.000000 8.100000
v -3.532369 1.038382 8.001208
v -3.517629 1.023260 8.004803
v -3.497343 1.002448 8.014239
v -3.483792 0.988546 8.024292
v -3.472116 0.976567 8.036572
v -3.462657 0.966864 8.050720
v -3.455695 0.959721 8.066319
v -3.451434 0.955350 8.082908
v -3.450000 0.953878 8.100000
v -0.967631 1.038382 8.001208
v -0.982370 1.023260 8.004803
v -1.002658 1.002448 8.014239
v -1.016208 0.988546 8.024292
v -1.027884 0.976567 8.036572
v -1.037343 0.966864 8.050720
v -1.044305 0.959721 8.066319
v -1.048566 0.955350 8.082908
v -1.050000 0.953878 8.100000
v -1.050000 0.953878 9.000000
v -1.000000 -1.000000 9.000000
v -3.500000 -1.000000 9.000000
v -3.450000 0.953878 9.000000
v 1.050000 0.953878 9.000000
v 3.998792 -0.534504 11.984504
v 4.000000 -0.550000 12.000000
v 4.000000 -0.550000 10.400000
v 3.996593 -0.524118 10.425882
v 3.995198 -0.519382 11.969382
v 3.986603 -0.500000 10.450000
v 3.985761 -0.498570 11.948569
v 3.975708 -0.484668 11.934668
v 3.970711 -0.479289 10.470711
v 3.963427 -0.472689 11.922689
v 3.952250 -0.464736 10.485264
v 3.949280 -0.462985 11.912986
v 3.935127 -0.456373 10.493628
v 3.933681 -0.455843 11.905843
v 3.918607 -0.451746 10.498254
v 3.917092 -0.451472 11.901471
v 3.909344 -0.450438 10.499562
v 3.900000 -0.450000 11.900000
v 3.900000 -0.450000 10.500000
v 3.998792 1.034504 11.984504
v 4.000000 1.050000 12.000000
v 3.995198 1.019382 11.969382
v 3.985761 0.998570 11.948569
v 3.975708 0.984668 11.934668
v 3.963427 0.972689 11.922689
v 3.949280 0.962986 11.912986
v 3.933681 0.955843 11.905843
v 3.917092 0.951472 11.901471
v 3.900000 0.950000 11.900000
v 3.998792 1.034504 10.415496
v 4.000000 1.050000 10.400000
v 3.995198 1.019382 10.430617
v 3.985761 0.998570 10.451430
v 3.975708 0.984668 10.465332
v 3.963427 0.972689 10.477311
v 3.949280 0.962986 10.487015
v 3.933681 0.955843 10.494157
v 3.917092 0.951472 10.498528
v 3.900000 0.950000 10.500000
v 2.000000 -0.450000 11.900000
v 2.000000 0.950000 11.900000
v 2.000000 -0.450000 10.500000
v -3.998792 -0.534504 10.415496
v -4.000000 -0.550000 10.400000
v -4.000000 -0.550000 12.000000
v -3.996593 -0.524118 11.974118
v -3.995198 -0.519382 10.430617
v -3.986603 -0.500000 11.950000
v -3.985761 -0.498570 10.451430
v -3.975708 -0.484668 10.465332
v -3.970711 -0.479289 11.929289
v -3.963427 -0.472689 10.477311
v -3.952250 -0.464736 11.914736
v -3.949280 -0.462985 10.487015
v -3.935127 -0.456373 11.906373
v -3.933681 -0.455843 10.494157
v -3.918607 -0.451746 11.901747
v -3.917092 -0.451472 10.498528
v -3.909344 -0.450438 11.900437
v -3.900000 -0.450000 10.500000
v -3.900000 -0.450000 11.900000
v -4.000000 1.050000 12.000000
v -3.996593 1.024118 11.974118
v -3.986603 1.000000 11.950000
v -3.970711 0.979289 11.929289
v -3.952250 0.964736 11.914736
v -3.935127 0.956373 11.906373
v -3.918607 0.951746 11.901747
v -3.909344 0.950438 11.900437
v -3.900000 0.950000 11.900000
v -4.000000 1.050000 10.400000
v -3.996593 1.024118 10.425882
v -3.986603 1.000000 10.450000
v -3.970711 0.979289 10.470711
v -3.952250 0.964736 10.485264
v -3.935127 0.956373 10.493628
v -3.918607 0.951746 10.498254
v -3.909344 0.950438 10.499562
v -3.900000 0.950000 10.500000
v -2.000000 -0.450000 10.500000
v -2.000000 0.950000 10.500000
v -2.000000 -0.450000 11.900000
v 2.000000 0.950000 10.500000
v -2.000000 0.950000 11.900000
vn 0.090964 0.000000 0.995854
vn 0.158537 -0.000759 0.987353
vn 0.270116 0.000201 0.962828
vn 0.458033 -0.000433 0.888935
vn 0.456209 -0.000398 0.889872
vn 0.690802 -0.000537 0.723044
vn 0.617955 0.000187 0.786213
vn 0.738330 0.000106 0.674440
vn 0.840180 -0.000172 0.542307
vn 0.838731 -0.000139 0.544547
vn 0.932346 -0.000259 0.361566
vn 0.916633 0.000127 0.399729
vn 0.978997 -0.000104 0.203874
vn 0.969721 0.000207 0.244217
vn 0.997659 0.000000 0.068389
vn 0.996620 0.000130 0.082149
vn 0.000000 0.157797 0.987472
vn -0.000000 0.157797 0.987472
vn -0.000000 0.457691 0.889111
vn 0.000000 0.457691 0.889111
vn -0.000000 0.690521 0.723312
vn 0.000000 0.690521 0.723312
vn -0.000000 0.840129 0.542386
vn 0.000000 0.840129 0.542386
vn -0.000000 0.932312 0.361654
vn 0.000000 0.932312 0.361654
vn -0.000000 0.978993 0.203894
vn 0.000000 0.978993 0.203894
vn -0.000000 0.997659 0.068389
vn 0.000000 0.997659 0.068389
vn -0.157797 0.000000 0.987472
vn -0.157797 0.000000 0.987472
vn -0.457691 0.000000 0.889111
vn -0.690521 0.000000 0.723312
vn -0.457691 0.000000 0.889111
vn -0.690521 0.000000 0.723312
vn -0.840129 0.000000 0.542386
vn -0.840129 0.000000 0.542386
vn -0.932312 0.000000 0.361654
vn -0.932312 0.000000 0.361654
vn -0.978993 0.000000 0.203894
vn -0.978993 0.000000 0.203894
vn -0.997659 0.000000 0.068389
vn -0.997659 0.000000 0.068389
vn 0.000000 -0.090964 0.995854
vn 0.000398 -0.456209 0.889872
vn -0.000201 -0.270116 0.962828
vn 0.000759 -0.158537 0.987353
vn -0.000187 -0.617955 0.786213
vn 0.000433 -0.458033 0.888935
vn 0.000139 -0.838731 0.544547
vn -0.000106 -0.738330 0.674440
vn 0.000537 -0.690802 0.723044
vn -0.000127 -0.916633 0.399729
vn 0.000172 -0.840180 0.542307
vn -0.000207 -0.969721 0.244217
vn 0.000259 -0.932346 0.361566
vn -0.000130 -0.996620 0.082149
vn 0.000104 -0.978997 0.203874
vn 0.000000 -0.997659 0.068389
vn 0.000000 -1.000000 0.000000
vn 0.000000 -1.000000 0.000000
vn 1.000000 0.000000 0.000000
vn 1.000000 -0.000000 0.000000
vn 0.000000 0.000000 1.000000
vn 0.000000 0.000000 1.000000
vn 0.000000 0.000000 1.000000
vn 0.000000 0.000000 1.000000
vn 0.000000 0.000000 1.000000
vn 0.000000 0.000000 1.000000
vn 0.000000 0.000000 1.000000
vn 0.000000 0.000000 1.000000
vn 0.000000 1.000000 -0.000000
vn 0.000000 1.000000 0.000000
vn -1.000000 0.000000 0.000000
vn -1.000000 -0.000000 0.000000
vn 0.000000 0.000000 1.000000
vn 0.000000 0.000000 1.000000
vn 0.000000 -0.130529 -0.991444
vn 0.000000 -0.382674 -0.923883
vn 0.000000 -0.130529 -0.991445
vn 0.000000 -0.608765 -0.793351
vn 0.000000 -0.382674 -0.923883
vn 0.000000 -0.785323 -0.619086
vn 0.000000 -0.608765 -0.793351
vn 0.000000 -0.898540 -0.438892
vn 0.000000 -0.785323 -0.619086
vn 0.000000 -0.962956 -0.269659
vn 0.000000 -0.898540 -0.438892
vn 0.000000 -0.990163 -0.139917
vn 0.000000 -0.962956 -0.269659
vn 0.000000 -0.998906 -0.046765
vn 0.000000 -0.990163 -0.139917
vn 0.000000 -0.998906 -0.046765
vn 0.000000 0.077739 -0.996974
vn -0.000308 0.130840 -0.991404
vn -0.000198 0.382846 -0.923812
vn 0.000099 0.231353 -0.972870
vn 0.000068 0.413000 -0.910731
vn -0.000268 0.608940 -0.793216
vn -0.000060 0.585931 -0.810361
vn -0.000265 0.785426 -0.618956
vn 0.000141 0.715913 -0.698190
vn -0.000107 0.898561 -0.438848
vn 0.000093 0.824700 -0.565571
vn -0.000048 0.962959 -0.269646
vn 0.000048 0.909221 -0.416315
vn -0.000024 0.990164 -0.139914
vn 0.000048 0.966994 -0.254799
vn 0.000000 0.998906 -0.046765
vn 0.000146 0.996316 -0.085760
vn 0.130486 -0.003339 -0.991445
vn 0.130486 -0.003339 -0.991445
vn 0.382548 -0.009789 -0.923884
vn 0.382548 -0.009789 -0.923884
vn 0.608566 -0.015573 -0.793351
vn 0.608566 -0.015573 -0.793350
vn 0.785067 -0.020090 -0.619085
vn 0.785066 -0.020090 -0.619086
vn 0.898245 -0.022986 -0.438893
vn 0.898246 -0.022986 -0.438893
vn 0.962642 -0.024634 -0.269655
vn 0.962641 -0.024634 -0.269657
vn 0.989839 -0.025330 -0.139921
vn 0.989839 -0.025330 -0.139917
vn 0.998579 -0.025554 -0.046761
vn 0.998579 -0.025554 -0.046770
vn -0.077713 -0.001989 -0.996974
vn -0.231300 -0.006044 -0.972864
vn -0.130868 -0.002960 -0.991395
vn -0.585732 -0.014913 -0.810368
vn -0.412875 -0.010651 -0.910725
vn -0.382763 -0.009545 -0.923797
vn -0.715694 -0.018494 -0.698169
vn -0.608786 -0.015238 -0.793188
vn -0.824437 -0.021216 -0.565556
vn -0.785201 -0.019756 -0.618925
vn -0.908921 -0.023321 -0.416316
vn -0.898272 -0.022851 -0.438846
vn -0.966677 -0.024799 -0.254793
vn -0.962646 -0.024573 -0.269646
vn -0.995985 -0.025674 -0.085757
vn -0.989843 -0.025299 -0.139893
vn -0.998579 -0.025554 -0.046774
vn -0.999673 -0.025582 -0.000000
vn -0.999673 -0.025582 -0.000000
vn -0.000000 1.000000 0.000000
vn -0.000000 1.000000 0.000000
vn 0.000000 0.000000 -1.000000
vn 0.000000 0.000000 -1.000000
vn 0.000000 -0.000000 -1.000000
vn 0.000000 0.000000 -1.000000
vn 0.000000 0.000000 -1.000000
vn 0.000000 0.000000 -1.000000
vn 0.000000 0.000000 -1.000000
vn -0.000000 0.000000 -1.000000
vn 0.000000 0.000000 -1.000000
vn -0.000000 0.000000 -1.000000
vn -0.000000 0.000000 -1.000000
vn -0.000000 0.000000 -1.000000
vn 0.000000 0.000000 -1.000000
vn -0.000000 0.000000 -1.000000
vn 0.000000 0.077739 -0.996974
vn -0.000308 0.130840 -0.991404
vn -0.000198 0.382846 -0.923812
vn 0.000099 0.231353 -0.972870
vn 0.000068 0.413000 -0.910731
vn -0.000268 0.608940 -0.793216
vn -0.000060 0.585931 -0.810361
vn -0.000265 0.785426 -0.618956
vn 0.000141 0.715913 -0.698190
vn -0.000107 0.898561 -0.438848
vn 0.000093 0.824700 -0.565571
vn -0.000048 0.962959 -0.269646
vn 0.000048 0.909221 -0.416315
vn -0.000024 0.990164 -0.139914
vn 0.000048 0.966994 -0.254799
vn 0.000000 0.998906 -0.046765
vn 0.000146 0.996316 -0.085760
vn 0.077714 -0.001989 -0.996974
vn 0.231296 -0.005794 -0.972866
vn 0.130867 -0.003737 -0.991393
vn 0.585729 -0.015065 -0.810367
vn 0.412881 -0.010480 -0.910725
vn 0.382759 -0.010045 -0.923794
vn 0.715696 -0.018135 -0.698176
vn 0.608779 -0.015920 -0.793180
vn 0.824442 -0.020979 -0.565558
vn 0.785191 -0.020430 -0.618916
vn 0.908928 -0.023198 -0.416308
vn 0.898268 -0.023123 -0.438840
vn 0.966679 -0.024676 -0.254799
vn 0.962647 -0.024695 -0.269631
vn 0.995995 -0.025301 -0.085757
vn 0.989838 -0.025361 -0.139918
vn 0.998578 -0.025554 -0.046776
vn -0.077714 -0.001989 -0.996974
vn -0.231180 -0.005916 -0.972893
vn -0.077714 -0.001989 -0.996974
vn -0.412806 -0.010564 -0.910758
vn -0.231180 -0.005916 -0.972893
vn -0.585781 -0.014990 -0.810331
vn -0.412806 -0.010564 -0.910758
vn -0.715609 -0.018313 -0.698261
vn -0.585783 -0.014990 -0.810329
vn -0.824400 -0.021097 -0.565615
vn -0.715606 -0.018312 -0.698264
vn -0.908914 -0.023259 -0.416334
vn -0.824401 -0.021097 -0.565612
vn -0.966675 -0.024737 -0.254809
vn -0.908916 -0.023259 -0.416331
vn -0.995988 -0.025487 -0.085777
vn -0.966674 -0.024737 -0.254814
vn -0.995989 -0.025487 -0.085772
vn 0.000000 -0.077739 -0.996974
vn 0.000000 -0.231255 -0.972893
vn 0.000000 -0.077739 -0.996974
vn 0.000000 -0.412942 -0.910757
vn 0.000000 -0.231255 -0.972893
vn 0.000000 -0.585973 -0.810331
vn 0.000000 -0.412942 -0.910757
vn 0.000000 -0.715842 -0.698262
vn 0.000000 -0.585973 -0.810331
vn 0.000000 -0.824669 -0.565615
vn 0.000000 -0.715842 -0.698262
vn 0.000000 -0.909212 -0.416333
vn 0.000000 -0.824669 -0.565615
vn 0.000000 -0.966991 -0.254811
vn 0.000000 -0.909212 -0.416333
vn 0.000000 -0.996315 -0.085773
vn 0.000000 -0.966991 -0.254811
vn 0.000000 -0.996315 -0.085773
vn -0.999673 -0.025582 -0.000000
vn -0.999673 -0.025582 -0.000000
vn -0.000000 1.000000 0.000000
vn -0.000000 1.000000 0.000000
vn 0.000000 -1.000000 -0.000000
vn -0.000000 -1.000000 -0.000000
vn 0.999673 -0.025582 -0.000000
vn 0.999673 -0.025582 -0.000000
vn 0.000000 0.000000 -1.000000
vn 0.000000 -0.000000 -1.000000
vn 0.999673 -0.025582 -0.000000
vn 0.999673 -0.025582 -0.000000
vn -0.000000 -1.000000 -0.000000
vn -0.000000 -1.000000 -0.000000
vn 0.000000 -0.000000 -1.000000
vn 0.000000 0.000000 -1.000000
vn 0.996976 0.077708 0.000000
vn 0.991376 0.131045 -0.000526
vn 0.923760 0.382972 -0.000340
vn 0.972852 0.231430 0.000169
vn 0.910709 0.413048 0.000117
vn 0.793128 0.609055 -0.000470
vn 0.810381 0.585904 -0.000104
vn 0.618864 0.785498 -0.000466
vn 0.698131 0.715970 0.000247
vn 0.438810 0.898580 -0.000189
vn 0.565537 0.824723 0.000165
vn 0.269641 0.962961 -0.000085
vn 0.416306 0.909225 0.000085
vn 0.139904 0.990165 -0.000043
vn 0.254789 0.966997 0.000086
vn 0.046775 0.998905 0.000000
vn 0.085757 0.996316 0.000261
vn 0.996976 0.000000 -0.077708
vn 0.996976 0.000000 -0.077708
vn 0.972889 0.000000 -0.231273
vn 0.972889 0.000000 -0.231273
vn 0.910755 0.000000 -0.412947
vn 0.910755 0.000000 -0.412947
vn 0.810332 0.000000 -0.585971
vn 0.810332 0.000000 -0.585971
vn 0.698234 0.000000 -0.715870
vn 0.698234 0.000000 -0.715870
vn 0.565620 0.000000 -0.824666
vn 0.565620 0.000000 -0.824666
vn 0.416361 0.000000 -0.909199
vn 0.416361 0.000000 -0.909199
vn 0.254824 0.000000 -0.966987
vn 0.254824 0.000000 -0.966987
vn 0.085776 0.000000 -0.996314
vn 0.085776 0.000000 -0.996315
vn 0.996976 -0.077709 0.000000
vn 0.972890 -0.231269 0.000000
vn 0.996976 -0.077709 0.000000
vn 0.972890 -0.231269 0.000000
vn 0.910753 -0.412952 0.000000
vn 0.910753 -0.412952 0.000000
vn 0.810332 -0.585971 0.000000
vn 0.810332 -0.585971 0.000000
vn 0.698255 -0.715849 0.000000
vn 0.698255 -0.715849 0.000000
vn 0.565613 -0.824671 0.000000
vn 0.565613 -0.824671 0.000000
vn 0.416338 -0.909210 0.000000
vn 0.416338 -0.909210 0.000000
vn 0.254811 -0.966991 0.000000
vn 0.254811 -0.966991 0.000000
vn 0.085779 -0.996314 0.000000
vn 0.085779 -0.996314 0.000000
vn 0.996976 -0.000000 0.077708
vn 0.972851 0.000169 0.231433
vn 0.991377 -0.000526 0.131041
vn 0.810381 -0.000104 0.585903
vn 0.910711 0.000117 0.413044
vn 0.923757 -0.000340 0.382980
vn 0.698138 0.000247 0.715963
vn 0.793131 -0.000470 0.609050
vn 0.565543 0.000165 0.824719
vn 0.618857 -0.000466 0.785504
vn 0.416283 0.000085 0.909235
vn 0.438822 -0.000189 0.898574
vn 0.254803 0.000086 0.966993
vn 0.269644 -0.000085 0.962960
vn 0.085753 0.000261 0.996316
vn 0.139867 -0.000043 0.990170
vn 0.046794 -0.000000 0.998905
vn 0.000000 0.000000 -1.000000
vn 0.000000 0.000000 -1.000000
vn 0.000000 1.000000 0.000000
vn 0.000000 1.000000 0.000000
vn 1.000000 0.000000 0.000000
vn 1.000000 0.000000 0.000000
vn 1.000000 0.000000 0.000000
vn 1.000000 0.000000 0.000000
vn 1.000000 0.000000 0.000000
vn 1.000000 0.000000 0.000000
vn 1.000000 0.000000 0.000000
vn 1.000000 0.000000 0.000000
vn -0.996976 0.077708 0.000000
vn -0.991376 0.131045 0.000526
vn -0.923760 0.382972 0.000340
vn -0.972851 0.231430 -0.000169
vn -0.910709 0.413048 -0.000117
vn -0.793128 0.609055 0.000470
vn -0.810381 0.585904 0.000104
vn -0.618864 0.785498 0.000466
vn -0.698124 0.715977 -0.000247
vn -0.438810 0.898580 0.000189
vn -0.565544 0.824718 -0.000165
vn -0.269641 0.962961 0.000085
vn -0.416306 0.909225 -0.000085
vn -0.139904 0.990165 0.000043
vn -0.254789 0.966997 -0.000086
vn -0.046775 0.998905 0.000000
vn -0.085757 0.996316 -0.000261
vn -0.991444 0.000000 -0.130529
vn -0.991444 0.000000 -0.130529
vn -0.923882 0.000000 -0.382677
vn -0.793358 0.000000 -0.608755
vn -0.923882 0.000000 -0.382677
vn -0.793359 0.000000 -0.608755
vn -0.619083 0.000000 -0.785325
vn -0.619083 0.000000 -0.785325
vn -0.438856 0.000000 -0.898557
vn -0.438856 0.000000 -0.898557
vn -0.269666 0.000000 -0.962954
vn -0.269666 0.000000 -0.962954
vn -0.139973 0.000000 -0.990155
vn -0.046794 0.000000 -0.998905
vn -0.139973 0.000000 -0.990155
vn -0.046794 0.000000 -0.998905
vn -0.991445 -0.130529 0.000000
vn -0.991445 -0.130529 -0.000000
vn -0.923880 -0.382682 -0.000000
vn -0.923880 -0.382682 0.000000
vn -0.793354 -0.608760 -0.000000
vn -0.793354 -0.608760 0.000000
vn -0.619091 -0.785319 -0.000000
vn -0.619091 -0.785319 0.000000
vn -0.438884 -0.898544 -0.000000
vn -0.438884 -0.898544 0.000000
vn -0.269663 -0.962955 -0.000000
vn -0.269663 -0.962955 0.000000
vn -0.139910 -0.990164 -0.000000
vn -0.046775 -0.998905 -0.000000
vn -0.139910 -0.990164 0.000000
vn -0.046775 -0.998905 -0.000000
vn -0.996976 0.000000 0.077708
vn -0.972851 -0.000169 0.231433
vn -0.991377 0.000526 0.131041
vn -0.810381 0.000104 0.585903
vn -0.910711 -0.000117 0.413044
vn -0.923757 0.000340 0.382980
vn -0.698131 -0.000247 0.715970
vn -0.793131 0.000470 0.609050
vn -0.565550 -0.000165 0.824714
vn -0.618857 0.000466 0.785504
vn -0.416283 -0.000085 0.909235
vn -0.438822 0.000189 0.898574
vn -0.254803 -0.000086 0.966993
vn -0.269644 0.000085 0.962960
vn -0.085753 -0.000261 0.996316
vn -0.139867 0.000043 0.990170
vn -0.046794 0.000000 0.998905
vn 0.000000 -0.000000 1.000000
vn 0.000000 0.000000 1.000000
vn 0.000000 1.000000 0.000000
vn 0.000000 1.000000 0.000000
vn -1.000000 0.000000 -0.000000
vn -1.000000 0.000000 0.000000
vn -1.000000 0.000000 -0.000000
vn -1.000000 0.000000 0.000000
vn -1.000000 0.000000 0.000000
vn -1.000000 0.000000 0.000000
vn -1.000000 0.000000 0.000000
vn -1.000000 0.000000 0.000000
vn 0.000000 -1.000000 0.000000
vn 0.000000 -1.000000 0.000000
vn -0.000000 0.000000 1.000000
vn 0.000000 0.000000 1.000000
vn 1.000000 0.000000 -0.000000
vn 1.000000 0.000000 0.000000
vn -0.000000 -0.000000 -1.000000
vn 0.000000 0.000000 -1.000000
vn 0.000000 -1.000000 0.000000
vn 0.000000 -1.000000 0.000000
vn -1.000000 -0.000000 -0.000000
vn -1.000000 0.000000 0.000000
vn 0.000000 -1.000000 -0.000000
vn -0.000000 -1.000000 0.000000
vn 0.000000 1.000000 0.000000
vn -0.000000 1.000000 0.000000
f 1//1 2//1 3//1
f 1//2 3//2 4//2
f 5//3 1//3 4//3
f 6//4 4//4 7//4
f 6//5 5//5 4//5
f 8//6 7//6 9//6
f 8//7 6//7 7//7
f 10//8 8//8 9//8
f 11//9 9//9 12//9
f 11//10 10//10 9//10
f 13//11 12//11 14//11
f 13//12 11//12 12//12
f 15//13 14//13 16//13
f 15//14 13//14 14//14
f 17//15 16//15 18//15
f 17//16 15//16 16//16
f 4//17 3//17 19//17
f 4//18 19//18 20//18
f 7//19 20//19 21//19
f 7//20 4//20 20//20
f 9//21 21//21 22//21
f 9//22 7//22 21//22
f 12//23 22//23 23//23
f 12//24 9//24 22//24
f 14//25 23//25 24//25
f 14//26 12//26 23//26
f 16//27 24//27 25//27
f 16//28 14//28 24//28
f 18//29 25//29 26//29
f 18//30 16//30 25//30
f 20//31 19//31 27//31
f 20//32 27//32 28//32
f 21//33 28//33 29//33
f 21//34 29//34 30//34
f 21//35 20//35 28//35
f 22//36 21//36 30//36
f 23//37 30//37 31//37
f 23//38 22//38 30//38
f 24//39 31//39 32//39
f 24//40 23//40 31//40
f 25//41 32//41 33//41
f 25//42 24//42 32//42
f 26//43 33//43 34//43
f 26//44 25//44 33//44
f 27//45 2//45 1//45
f 28//46 5//46 6//46
f 28//47 1//47 5//47
f 28//48 27//48 1//48
f 29//49 6//49 8//49
f 29//50 28//50 6//50
f 30//51 10//51 11//51
f 30//52 8//52 10//52
f 30//53 29//53 8//53
f 31//54 11//54 13//54
f 31//55 30//55 11//55
f 32//56 13//56 15//56
f 32//57 31//57 13//57
f 33//58 15//58 17//58
f 33//59 32//59 15//59
f 34//60 33//60 17//60
f 35//61 36//61 17//61
f 17//62 36//62 34//62
f 37//63 35//63 18//63
f 18//64 35//64 17//64
f 38//65 39//65 3//65
f 19//66 3//66 39//66
f 2//67 38//67 3//67
f 40//68 19//68 39//68
f 41//69 27//69 19//69
f 41//70 19//70 40//70
f 41//71 38//71 2//71
f 41//72 2//72 27//72
f 42//73 37//73 26//73
f 26//74 37//74 18//74
f 36//75 42//75 34//75
f 34//76 42//76 26//76
f 36//77 35//77 42//77
f 42//78 35//78 37//78
f 43//79 44//79 45//79
f 46//80 45//80 47//80
f 46//81 43//81 45//81
f 48//82 47//82 49//82
f 48//83 46//83 47//83
f 50//84 49//84 51//84
f 50//85 48//85 49//85
f 52//86 51//86 53//86
f 52//87 50//87 51//87
f 54//88 53//88 55//88
f 54//89 52//89 53//89
f 56//90 55//90 57//90
f 56//91 54//91 55//91
f 58//92 57//92 59//92
f 58//93 56//93 57//93
f 60//94 58//94 59//94
f 61//95 62//95 63//95
f 61//96 63//96 64//96
f 65//97 64//97 66//97
f 65//98 61//98 64//98
f 67//99 65//99 66//99
f 68//100 66//100 69//100
f 68//101 67//101 66//101
f 70//102 69//102 71//102
f 70//103 68//103 69//103
f 72//104 71//104 73//104
f 72//105 70//105 71//105
f 74//106 73//106 75//106
f 74//107 72//107 73//107
f 76//108 75//108 77//108
f 76//109 74//109 75//109
f 78//110 77//110 79//110
f 78//111 76//111 77//111
f 64//112 63//112 43//112
f 64//113 43//113 46//113
f 66//114 46//114 48//114
f 66//115 64//115 46//115
f 69//116 48//116 50//116
f 69//117 66//117 48//117
f 71//118 50//118 52//118
f 71//119 69//119 50//119
f 73//120 52//120 54//120
f 73//121 71//121 52//121
f 75//122 54//122 56//122
f 75//123 73//123 54//123
f 77//124 56//124 58//124
f 77//125 75//125 56//125
f 79//126 58//126 60//126
f 79//127 77//127 58//127
f 44//128 62//128 61//128
f 45//129 61//129 65//129
f 45//130 44//130 61//130
f 47//131 67//131 68//131
f 47//132 65//132 67//132
f 47//133 45//133 65//133
f 49//134 68//134 70//134
f 49//135 47//135 68//135
f 51//136 70//136 72//136
f 51//137 49//137 70//137
f 53//138 72//138 74//138
f 53//139 51//139 72//139
f 55//140 74//140 76//140
f 55//141 53//141 74//141
f 57//142 76//142 78//142
f 57//143 55//143 76//143
f 59//144 57//144 78//144
f 80//145 81//145 78//145
f 78//146 81//146 59//146
f 82//147 80//147 79//147
f 79//148 80//148 78//148
f 44//149 43//149 83//149
f 44//150 84//150 62//150
f 83//151 84//151 44//151
f 84//152 63//152 62//152
f 43//153 85//153 83//153
f 86//154 85//154 43//154
f 63//155 87//155 43//155
f 43//156 87//156 86//156
f 86//157 88//157 85//157
f 89//158 90//158 88//158
f 87//159 90//159 89//159
f 88//160 90//160 85//160
f 84//161 90//161 63//161
f 63//162 90//162 87//162
f 91//163 87//163 89//163
f 91//164 89//164 92//164
f 93//165 92//165 94//165
f 93//166 91//166 92//166
f 95//167 93//167 94//167
f 96//168 94//168 97//168
f 96//169 95//169 94//169
f 98//170 97//170 99//170
f 98//171 96//171 97//171
f 100//172 99//172 101//172
f 100//173 98//173 99//173
f 102//174 101//174 103//174
f 102//175 100//175 101//175
f 104//176 103//176 105//176
f 104//177 102//177 103//177
f 106//178 105//178 107//178
f 106//179 104//179 105//179
f 89//180 88//180 108//180
f 92//181 108//181 109//181
f 92//182 89//182 108//182
f 94//183 110//183 111//183
f 94//184 109//184 110//184
f 94//185 92//185 109//185
f 97//186 111//186 112//186
f 97//187 94//187 111//187
f 99//188 112//188 113//188
f 99//189 97//189 112//189
f 101//190 113//190 114//190
f 101//191 99//191 113//191
f 103//192 114//192 115//192
f 103//193 101//193 114//193
f 105//194 115//194 116//194
f 105//195 103//195 115//195
f 107//196 105//196 116//196
f 86//197 87//197 91//197
f 117//198 91//198 93//198
f 117//199 86//199 91//199
f 118//200 93//200 95//200
f 118//201 117//201 93//201
f 119//202 95//202 96//202
f 119//203 118//203 95//203
f 120//204 96//204 98//204
f 120//205 119//205 96//205
f 121//206 98//206 100//206
f 121//207 120//207 98//207
f 122//208 100//208 102//208
f 122//209 121//209 100//209
f 123//210 102//210 104//210
f 123//211 122//211 102//211
f 124//212 104//212 106//212
f 124//213 123//213 104//213
f 125//214 124//214 106//214
f 88//215 86//215 117//215
f 108//216 117//216 118//216
f 108//217 88//217 117//217
f 109//218 118//218 119//218
f 109//219 108//219 118//219
f 110//220 119//220 120//220
f 110//221 109//221 119//221
f 111//222 120//222 121//222
f 111//223 110//223 120//223
f 112//224 121//224 122//224
f 112//225 111//225 121//225
f 113//226 122//226 123//226
f 113//227 112//227 122//227
f 114//228 123//228 124//228
f 114//229 113//229 123//229
f 115//230 124//230 125//230
f 115//231 114//231 124//231
f 116//232 115//232 125//232
f 106//233 126//233 125//233
f 127//234 126//234 106//234
f 107//235 127//235 106//235
f 128//236 127//236 107//236
f 126//237 116//237 125//237
f 126//238 129//238 116//238
f 129//239 107//239 116//239
f 129//240 128//240 107//240
f 129//241 126//241 127//241
f 129//242 127//242 128//242
f 130//243 79//243 60//243
f 130//244 82//244 79//244
f 81//245 130//245 59//245
f 59//246 130//246 60//246
f 130//247 81//247 82//247
f 82//248 81//248 80//248
f 131//249 132//249 133//249
f 131//250 133//250 134//250
f 135//251 134//251 136//251
f 135//252 131//252 134//252
f 137//253 135//253 136//253
f 138//254 136//254 139//254
f 138//255 137//255 136//255
f 140//256 139//256 141//256
f 140//257 138//257 139//257
f 142//258 141//258 143//258
f 142//259 140//259 141//259
f 144//260 143//260 145//260
f 144//261 142//261 143//261
f 146//262 145//262 147//262
f 146//263 144//263 145//263
f 148//264 147//264 149//264
f 148//265 146//265 147//265
f 150//266 151//266 132//266
f 150//267 132//267 131//267
f 152//268 131//268 135//268
f 152//269 150//269 131//269
f 153//270 135//270 137//270
f 153//271 152//271 135//271
f 154//272 137//272 138//272
f 154//273 153//273 137//273
f 155//274 138//274 140//274
f 155//275 154//275 138//275
f 156//276 140//276 142//276
f 156//277 155//277 140//277
f 157//278 142//278 144//278
f 157//279 156//279 142//279
f 158//280 144//280 146//280
f 158//281 157//281 144//281
f 159//282 146//282 148//282
f 159//283 158//283 146//283
f 160//284 161//284 151//284
f 160//285 150//285 152//285
f 160//286 151//286 150//286
f 162//287 160//287 152//287
f 163//288 152//288 153//288
f 163//289 162//289 152//289
f 164//290 153//290 154//290
f 164//291 163//291 153//291
f 165//292 154//292 155//292
f 165//293 164//293 154//293
f 166//294 155//294 156//294
f 166//295 165//295 155//295
f 167//296 156//296 157//296
f 167//297 166//297 156//297
f 168//298 157//298 158//298
f 168//299 167//299 157//299
f 169//300 158//300 159//300
f 169//301 168//301 158//301
f 133//302 161//302 160//302
f 134//303 160//303 162//303
f 134//304 133//304 160//304
f 136//305 163//305 164//305
f 136//306 162//306 163//306
f 136//307 134//307 162//307
f 139//308 164//308 165//308
f 139//309 136//309 164//309
f 141//310 165//310 166//310
f 141//311 139//311 165//311
f 143//312 166//312 167//312
f 143//313 141//313 166//313
f 145//314 167//314 168//314
f 145//315 143//315 167//315
f 147//316 168//316 169//316
f 147//317 145//317 168//317
f 149//318 147//318 169//318
f 170//319 159//319 148//319
f 170//320 171//320 159//320
f 172//321 148//321 149//321
f 172//322 170//322 148//322
f 83//323 133//323 84//323
f 40//324 84//324 133//324
f 132//325 40//325 133//325
f 161//326 133//326 83//326
f 41//327 132//327 151//327
f 41//328 151//328 161//328
f 41//329 40//329 132//329
f 41//330 161//330 83//330
f 173//331 174//331 175//331
f 173//332 175//332 176//332
f 177//333 176//333 178//333
f 177//334 173//334 176//334
f 179//335 177//335 178//335
f 180//336 178//336 181//336
f 180//337 179//337 178//337
f 182//338 181//338 183//338
f 182//339 180//339 181//339
f 184//340 183//340 185//340
f 184//341 182//341 183//341
f 186//342 185//342 187//342
f 186//343 184//343 185//343
f 188//344 187//344 189//344
f 188//345 186//345 187//345
f 190//346 189//346 191//346
f 190//347 188//347 189//347
f 176//348 175//348 192//348
f 176//349 192//349 193//349
f 176//350 193//350 194//350
f 178//351 194//351 195//351
f 178//352 176//352 194//352
f 181//353 178//353 195//353
f 183//354 195//354 196//354
f 183//355 181//355 195//355
f 185//356 196//356 197//356
f 185//357 183//357 196//357
f 187//358 197//358 198//358
f 187//359 185//359 197//359
f 189//360 198//360 199//360
f 189//361 199//361 200//361
f 189//362 187//362 198//362
f 191//363 189//363 200//363
f 193//364 192//364 201//364
f 193//365 201//365 202//365
f 194//366 202//366 203//366
f 194//367 193//367 202//367
f 195//368 203//368 204//368
f 195//369 194//369 203//369
f 196//370 204//370 205//370
f 196//371 195//371 204//371
f 197//372 205//372 206//372
f 197//373 196//373 205//373
f 198//374 206//374 207//374
f 198//375 197//375 206//375
f 199//376 207//376 208//376
f 199//377 208//377 209//377
f 199//378 198//378 207//378
f 200//379 199//379 209//379
f 201//380 174//380 173//380
f 202//381 173//381 177//381
f 202//382 201//382 173//382
f 203//383 179//383 180//383
f 203//384 177//384 179//384
f 203//385 202//385 177//385
f 204//386 180//386 182//386
f 204//387 203//387 180//387
f 205//388 182//388 184//388
f 205//389 204//389 182//389
f 206//390 184//390 186//390
f 206//391 205//391 184//391
f 207//392 186//392 188//392
f 207//393 206//393 186//393
f 208//394 188//394 190//394
f 208//395 207//395 188//395
f 209//396 208//396 190//396
f 210//397 211//397 190//397
f 190//398 211//398 209//398
f 212//399 210//399 191//399
f 191//400 210//400 190//400
f 38//401 85//401 201//401
f 192//402 38//402 201//402
f 174//403 85//403 90//403
f 174//404 201//404 85//404
f 175//405 38//405 192//405
f 39//406 175//406 174//406
f 39//407 174//407 90//407
f 39//408 38//408 175//408
f 171//409 169//409 159//409
f 171//410 213//410 169//410
f 213//411 149//411 169//411
f 213//412 172//412 149//412
f 213//413 171//413 170//413
f 213//414 170//414 172//414
f 214//415 212//415 200//415
f 200//416 212//416 191//416
f 211//417 214//417 209//417
f 209//418 214//418 200//418
f 214//419 211//419 212//419
f 212//420 211//420 210//420
f 40//421 90//421 84//421
f 40//422 39//422 90//422
f 38//423 83//423 85//423
f 38//424 41//424 83//424
