# Created by FreeCAD <https://www.freecad.org>
v -2.003687 0.738227 10.711774
v -2.000000 0.700000 10.750000
v -2.000000 -0.200000 10.750000
v -2.011869 -0.267872 10.682128
v -2.014613 0.775044 10.674956
v -2.034966 0.812978 10.637022
v -2.041738 -0.322283 10.627717
v -2.055315 0.838081 10.611919
v -2.077291 -0.357932 10.592068
v -2.079441 0.859579 10.590421
v -2.106714 0.876912 10.573089
v -2.111912 -0.379556 10.570444
v -2.136423 0.889626 10.560374
v -2.146252 -0.392642 10.557358
v -2.167791 0.897389 10.552610
v -2.172875 -0.398152 10.551847
v -2.200000 0.900000 10.550000
v -2.200000 -0.400000 10.550000
v -2.200000 -0.400000 11.850000
v -2.172875 -0.398152 11.848152
v -2.146252 -0.392642 11.842643
v -2.111912 -0.379556 11.829556
v -2.077291 -0.357932 11.807932
v -2.041738 -0.322283 11.772284
v -2.011869 -0.267872 11.717872
v -2.000000 -0.200000 11.650000
v -2.172875 0.898152 11.848152
v -2.200000 0.900000 11.850000
v -2.146252 0.892642 11.842643
v -2.111912 0.879556 11.829556
v -2.077291 0.857932 11.807932
v -2.041738 0.822283 11.772284
v -2.011869 0.767872 11.717872
v -2.000000 0.700000 11.650000
v -5.000000 0.900000 10.550000
v -6.300000 0.900000 10.550000
v -6.300000 0.900000 11.850000
v -5.000000 -0.400000 10.550000
v -5.000000 3.400000 10.550000
v -5.000000 3.400000 8.850000
v -5.000000 -0.400000 8.850000
v -6.300000 -0.400000 8.850000
v -6.300000 3.400000 8.850000
v -6.300000 3.400000 10.550000
v -6.300000 -0.400000 11.850000
vn 0.995380 0.000000 -0.096011
vn 0.985557 -0.003025 -0.169318
vn 0.958835 0.000570 -0.283962
vn 0.877145 -0.001296 -0.480224
vn 0.880780 -0.000939 -0.473525
vn 0.708716 -0.001312 -0.705493
vn 0.777083 0.000523 -0.629398
vn 0.665370 0.000165 -0.746513
vn 0.529934 -0.000407 -0.848039
vn 0.536268 -0.000195 -0.844048
vn 0.356276 -0.000533 -0.934381
vn 0.393565 0.000307 -0.919297
vn 0.202720 -0.000219 -0.979237
vn 0.240360 0.000441 -0.970684
vn 0.067946 0.000000 -0.997689
vn 0.080796 0.000270 -0.996731
vn 0.067970 -0.997687 0.000000
vn 0.202651 -0.979251 0.000000
vn 0.067970 -0.997687 0.000000
vn 0.356096 -0.934449 0.000000
vn 0.202651 -0.979251 0.000000
vn 0.356096 -0.934449 0.000000
vn 0.708056 -0.706156 0.000000
vn 0.529759 -0.848149 0.000000
vn 0.529758 -0.848149 0.000000
vn 0.708056 -0.706156 0.000000
vn 0.985052 -0.172255 0.000000
vn 0.876601 -0.481218 0.000000
vn 0.876601 -0.481218 0.000000
vn 0.985052 -0.172255 0.000000
vn 0.067980 0.000000 0.997687
vn 0.067980 0.000000 0.997687
vn 0.202643 0.000000 0.979253
vn 0.202643 0.000000 0.979253
vn 0.356099 0.000000 0.934448
vn 0.356099 0.000000 0.934448
vn 0.529768 0.000000 0.848143
vn 0.529768 0.000000 0.848143
vn 0.708051 0.000000 0.706161
vn 0.708051 0.000000 0.706161
vn 0.876603 0.000000 0.481214
vn 0.876603 0.000000 0.481214
vn 0.985052 0.000000 0.172255
vn 0.985052 0.000000 0.172255
vn 0.067967 0.997688 -0.000000
vn 0.202695 0.979242 0.000219
vn 0.080807 0.996730 -0.000270
vn 0.356273 0.934382 0.000533
vn 0.240353 0.970685 -0.000441
vn 0.529941 0.848034 0.000407
vn 0.393556 0.919300 -0.000307
vn 0.536276 0.844043 0.000195
vn 0.708712 0.705497 0.001312
vn 0.665366 0.746517 -0.000165
vn 0.877146 0.480221 0.001296
vn 0.777089 0.629390 -0.000524
vn 0.880779 0.473526 0.000939
vn 0.985557 0.169318 0.003025
vn 0.958834 0.283966 -0.000570
vn 0.995380 0.096009 -0.000000
vn 0.000000 1.000000 0.000000
vn 0.000000 1.000000 0.000000
vn 0.000000 1.000000 0.000000
vn 0.000000 0.000000 -1.000000
vn 0.000000 0.000000 -1.000000
vn 1.000000 0.000000 -0.000000
vn 1.000000 0.000000 0.000000
vn 1.000000 0.000000 0.000000
vn 1.000000 0.000000 0.000000
vn 1.000000 0.000000 0.000000
vn 0.000000 0.000000 -1.000000
vn 0.000000 0.000000 -1.000000
vn 0.000000 1.000000 0.000000
vn 0.000000 1.000000 0.000000
vn -0.000000 0.000000 1.000000
vn 0.000000 0.000000 1.000000
vn -1.000000 -0.000000 0.000000
vn -1.000000 0.000000 0.000000
vn -1.000000 -0.000000 -0.000000
vn -1.000000 -0.000000 -0.000000
vn 0.000000 0.000000 1.000000
vn 0.000000 0.000000 1.000000
vn 0.000000 -1.000000 0.000000
vn 0.000000 -1.000000 -0.000000
vn -0.000000 -1.000000 0.000000
vn -0.000000 -1.000000 0.000000
f 1//1 2//1 3//1
f 1//2 3//2 4//2
f 5//3 1//3 4//3
f 6//4 4//4 7//4
f 6//5 5//5 4//5
f 8//6 7//6 9//6
f 8//7 6//7 7//7
f 10//8 8//8 9//8
f 11//9 9//9 12//9
f 11//10 10//10 9//10
f 13//11 12//11 14//11
f 13//12 11//12 12//12
f 15//13 14//13 16//13
f 15//14 13//14 14//14
f 17//15 16//15 18//15
f 17//16 15//16 16//16
f 19//17 18//17 16//17
f 20//18 16//18 14//18
f 20//19 19//19 16//19
f 21//20 14//20 12//20
f 21//21 20//21 14//21
f 22//22 21//22 12//22
f 23//23 9//23 7//23
f 23//24 12//24 9//24
f 23//25 22//25 12//25
f 24//26 23//26 7//26
f 25//27 4//27 3//27
f 25//28 7//28 4//28
f 25//29 24//29 7//29
f 26//30 25//30 3//30
f 27//31 28//31 19//31
f 27//32 19//32 20//32
f 29//33 20//33 21//33
f 29//34 27//34 20//34
f 30//35 21//35 22//35
f 30//36 29//36 21//36
f 31//37 22//37 23//37
f 31//38 30//38 22//38
f 32//39 23//39 24//39
f 32//40 31//40 23//40
f 33//41 24//41 25//41
f 33//42 32//42 24//42
f 34//43 25//43 26//43
f 34//44 33//44 25//44
f 17//45 28//45 27//45
f 15//46 27//46 29//46
f 15//47 17//47 27//47
f 13//48 29//48 30//48
f 13//49 15//49 29//49
f 11//50 30//50 31//50
f 11//51 13//51 30//51
f 10//52 11//52 31//52
f 8//53 31//53 32//53
f 8//54 10//54 31//54
f 6//55 32//55 33//55
f 6//56 8//56 32//56
f 5//57 6//57 33//57
f 1//58 33//58 34//58
f 1//59 5//59 33//59
f 2//60 1//60 34//60
f 35//61 36//61 37//61
f 28//62 17//62 35//62
f 28//63 35//63 37//63
f 35//64 17//64 18//64
f 35//65 18//65 38//65
f 2//66 34//66 26//66
f 2//67 26//67 3//67
f 39//68 35//68 40//68
f 40//69 35//69 41//69
f 35//70 38//70 41//70
f 42//71 40//71 41//71
f 42//72 43//72 40//72
f 43//73 39//73 40//73
f 43//74 44//74 39//74
f 44//75 35//75 39//75
f 44//76 36//76 35//76
f 36//77 42//77 45//77
f 43//78 42//78 36//78
f 37//79 36//79 45//79
f 44//80 43//80 36//80
f 28//81 37//81 45//81
f 28//82 45//82 19//82
f 41//83 38//83 42//83
f 19//84 38//84 18//84
f 19//85 45//85 38//85
f 38//86 45//86 42//86
