# Created by FreeCAD <https://www.freecad.org>
v 2.000000 0.700000 10.750000
v 2.000000 0.700000 11.650000
v 2.011869 0.767872 11.717872
v 2.011869 0.767872 10.682128
v 2.041738 0.822283 10.627717
v 2.041738 0.822283 11.772284
v 2.077291 0.857932 10.592068
v 2.077291 0.857932 11.807932
v 2.111912 0.879556 10.570444
v 2.111912 0.879556 11.829556
v 2.146252 0.892642 10.557358
v 2.146252 0.892642 11.842643
v 2.172875 0.898152 10.551847
v 2.172875 0.898152 11.848152
v 2.200000 0.900000 10.550000
v 2.200000 0.900000 11.850000
v 2.000000 -0.200000 11.650000
v 2.011869 -0.267872 11.717872
v 2.041738 -0.322283 11.772284
v 2.077291 -0.357932 11.807932
v 2.111912 -0.379556 11.829556
v 2.146252 -0.392642 11.842643
v 2.172875 -0.398152 11.848152
v 2.200000 -0.400000 11.850000
v 2.000000 -0.200000 10.750000
v 2.011869 -0.267872 10.682128
v 2.041738 -0.322283 10.627717
v 2.077291 -0.357932 10.592068
v 2.111912 -0.379556 10.570444
v 2.146252 -0.392642 10.557358
v 2.172875 -0.398152 10.551847
v 2.200000 -0.400000 10.550000
v 5.000000 0.900000 10.550000
v 5.000000 -0.400000 10.550000
v 6.300000 0.900000 10.550000
v 6.300000 0.900000 11.850000
v 5.000000 3.400000 10.550000
v 5.000000 3.400000 8.850000
v 5.000000 -0.400000 8.850000
v 6.300000 3.400000 8.850000
v 6.300000 -0.400000 8.850000
v 6.300000 3.400000 10.550000
v 6.300000 -0.400000 11.850000
vn -0.985052 0.172255 0.000000
vn -0.985052 0.172255 0.000000
vn -0.876601 0.481218 0.000000
vn -0.876601 0.481218 0.000000
vn -0.708056 0.706156 0.000000
vn -0.708056 0.706156 0.000000
vn -0.529758 0.848149 0.000000
vn -0.529759 0.848149 0.000000
vn -0.356096 0.934449 0.000000
vn -0.356096 0.934449 0.000000
vn -0.202652 0.979251 0.000000
vn -0.202652 0.979251 0.000000
vn -0.067967 0.997688 0.000000
vn -0.067967 0.997688 0.000000
vn -0.985052 0.000000 0.172255
vn -0.985052 0.000000 0.172255
vn -0.876603 0.000000 0.481214
vn -0.876603 0.000000 0.481214
vn -0.708051 0.000000 0.706161
vn -0.708051 0.000000 0.706161
vn -0.529768 0.000000 0.848143
vn -0.529768 0.000000 0.848143
vn -0.356099 0.000000 0.934448
vn -0.202643 0.000000 0.979253
vn -0.356099 0.000000 0.934448
vn -0.202643 0.000000 0.979253
vn -0.067980 0.000000 0.997687
vn -0.067980 0.000000 0.997687
vn -0.985052 -0.172255 0.000000
vn -0.985052 -0.172255 -0.000000
vn -0.876601 -0.481218 -0.000000
vn -0.876601 -0.481218 0.000000
vn -0.708056 -0.706156 -0.000000
vn -0.708056 -0.706156 0.000000
vn -0.529758 -0.848149 -0.000000
vn -0.356096 -0.934449 -0.000000
vn -0.529759 -0.848149 0.000000
vn -0.202651 -0.979251 -0.000000
vn -0.356096 -0.934449 -0.000000
vn -0.067970 -0.997687 -0.000000
vn -0.202651 -0.979251 -0.000000
vn -0.067970 -0.997687 -0.000000
vn -0.067946 -0.000000 -0.997689
vn -0.202677 -0.000000 -0.979246
vn -0.067946 -0.000000 -0.997689
vn -0.356099 -0.000000 -0.934448
vn -0.202677 -0.000000 -0.979246
vn -0.356099 -0.000000 -0.934448
vn -0.529751 -0.000000 -0.848153
vn -0.529751 0.000000 -0.848153
vn -0.876600 -0.000000 -0.481220
vn -0.708060 -0.000000 -0.706152
vn -0.708060 0.000000 -0.706152
vn -0.876600 -0.000000 -0.481220
vn -0.985052 -0.000000 -0.172255
vn -0.985052 0.000000 -0.172255
vn 0.000000 0.000000 -1.000000
vn 0.000000 0.000000 -1.000000
vn 0.000000 1.000000 -0.000000
vn 0.000000 1.000000 0.000000
vn 0.000000 1.000000 -0.000000
vn -1.000000 -0.000000 -0.000000
vn -1.000000 0.000000 0.000000
vn -1.000000 0.000000 0.000000
vn -1.000000 0.000000 -0.000000
vn -1.000000 0.000000 0.000000
vn -0.000000 -0.000000 -1.000000
vn 0.000000 0.000000 -1.000000
vn 0.000000 1.000000 0.000000
vn 0.000000 1.000000 0.000000
vn 0.000000 -0.000000 1.000000
vn 0.000000 0.000000 1.000000
vn 1.000000 0.000000 0.000000
vn 1.000000 0.000000 0.000000
vn 1.000000 0.000000 -0.000000
vn 1.000000 0.000000 -0.000000
vn 0.000000 0.000000 1.000000
vn 0.000000 0.000000 1.000000
vn 0.000000 -1.000000 0.000000
vn 0.000000 -1.000000 0.000000
vn 0.000000 -1.000000 -0.000000
vn -0.000000 -1.000000 0.000000
f 1//1 2//1 3//1
f 4//2 1//2 3//2
f 5//3 3//3 6//3
f 5//4 4//4 3//4
f 7//5 6//5 8//5
f 7//6 5//6 6//6
f 9//7 8//7 10//7
f 9//8 7//8 8//8
f 11//9 10//9 12//9
f 11//10 9//10 10//10
f 13//11 12//11 14//11
f 13//12 11//12 12//12
f 15//13 14//13 16//13
f 15//14 13//14 14//14
f 3//15 2//15 17//15
f 3//16 17//16 18//16
f 6//17 18//17 19//17
f 6//18 3//18 18//18
f 8//19 19//19 20//19
f 8//20 6//20 19//20
f 10//21 20//21 21//21
f 10//22 8//22 20//22
f 12//23 21//23 22//23
f 12//24 22//24 23//24
f 12//25 10//25 21//25
f 14//26 12//26 23//26
f 16//27 23//27 24//27
f 16//28 14//28 23//28
f 18//29 17//29 25//29
f 18//30 25//30 26//30
f 19//31 26//31 27//31
f 19//32 18//32 26//32
f 20//33 27//33 28//33
f 20//34 19//34 27//34
f 21//35 28//35 29//35
f 21//36 29//36 30//36
f 21//37 20//37 28//37
f 22//38 30//38 31//38
f 22//39 21//39 30//39
f 23//40 31//40 32//40
f 23//41 22//41 31//41
f 24//42 23//42 32//42
f 15//43 32//43 31//43
f 13//44 31//44 30//44
f 13//45 15//45 31//45
f 11//46 30//46 29//46
f 11//47 13//47 30//47
f 9//48 11//48 29//48
f 7//49 29//49 28//49
f 7//50 9//50 29//50
f 5//51 27//51 26//51
f 5//52 28//52 27//52
f 5//53 7//53 28//53
f 4//54 5//54 26//54
f 1//55 26//55 25//55
f 1//56 4//56 26//56
f 32//57 33//57 34//57
f 15//58 33//58 32//58
f 35//59 33//59 36//59
f 15//60 16//60 33//60
f 33//61 16//61 36//61
f 2//62 1//62 17//62
f 17//63 1//63 25//63
f 33//64 37//64 38//64
f 33//65 38//65 39//65
f 34//66 33//66 39//66
f 40//67 41//67 38//67
f 38//68 41//68 39//68
f 42//69 40//69 37//69
f 37//70 40//70 38//70
f 35//71 42//71 33//71
f 33//72 42//72 37//72
f 41//73 35//73 43//73
f 41//74 40//74 35//74
f 35//75 36//75 43//75
f 40//76 42//76 35//76
f 36//77 16//77 43//77
f 43//78 16//78 24//78
f 34//79 24//79 32//79
f 34//80 39//80 41//80
f 43//81 34//81 41//81
f 43//82 24//82 34//82
