# Created by FreeCAD <https://www.freecad.org>
v 1.444986 -1.044504 11.700000
v 1.444986 -1.000000 11.655496
v 1.450000 -1.000000 11.700000
v 1.439260 -1.025910 11.640759
v 1.430194 -1.000000 11.613223
v 1.407280 -1.039229 11.582850
v 1.374698 -1.000000 11.543633
v 1.406366 -1.000000 11.575302
v 1.439260 -1.059241 11.674090
v 1.430194 -1.086777 11.700000
v 1.356841 -1.042425 11.536338
v 1.336777 -1.000000 11.519806
v 1.412012 -1.082922 11.617078
v 1.293772 -1.040338 11.509063
v 1.250000 -1.000000 11.500000
v 1.294504 -1.000000 11.505014
v 1.250000 -1.086777 11.519806
v 1.250000 -1.044504 11.505014
v 1.366731 -1.092127 11.566259
v 1.407280 -1.117150 11.660770
v 1.406366 -1.124698 11.700000
v 1.374698 -1.156366 11.700000
v 1.307698 -1.090210 11.531082
v 1.250000 -1.124698 11.543633
v 1.366731 -1.133740 11.607873
v 1.312479 -1.134344 11.565657
v 1.250000 -1.156366 11.575302
v 1.356841 -1.163662 11.657575
v 1.336777 -1.180194 11.700000
v 1.307698 -1.168917 11.609790
v 1.250000 -1.180194 11.613223
v 1.293772 -1.190937 11.659662
v 1.294504 -1.194986 11.700000
v 1.250000 -1.200000 11.700000
v 1.250000 -1.194986 11.655496
v 1.250000 -1.200000 14.500000
v 1.294504 -1.194986 14.500000
v 1.336777 -1.180194 14.500000
v 1.374698 -1.156366 14.500000
v 1.406366 -1.124698 14.500000
v 1.430194 -1.086777 14.500000
v 1.444986 -1.044504 14.500000
v 1.450000 -1.000000 14.500000
v -1.283728 -1.014591 11.503405
v -1.250000 -1.000000 11.500000
v -1.250000 -1.044504 11.505014
v -1.294504 -1.000000 11.505014
v -1.301821 -1.065728 11.518356
v -1.250000 -1.086777 11.519806
v -1.336777 -1.000000 11.519806
v -1.348423 -1.015869 11.526618
v -1.374698 -1.000000 11.543633
v -1.311277 -1.113249 11.546965
v -1.250000 -1.124698 11.543633
v -1.362988 -1.068030 11.549648
v -1.311277 -1.153036 11.586751
v -1.250000 -1.156366 11.575302
v -1.250000 -1.180194 11.613223
v -1.401461 -1.014993 11.570251
v -1.430194 -1.000000 11.613223
v -1.406366 -1.000000 11.575302
v -1.367988 -1.114190 11.585810
v -1.301821 -1.181643 11.634272
v -1.250000 -1.194986 11.655496
v -1.294504 -1.194986 11.700000
v -1.336777 -1.180194 11.700000
v -1.410822 -1.062038 11.598573
v -1.362988 -1.150351 11.631969
v -1.283728 -1.196595 11.685410
v -1.250000 -1.200000 11.700000
v -1.410822 -1.101427 11.637962
v -1.348423 -1.173382 11.684131
v -1.374698 -1.156366 11.700000
v -1.440266 -1.043582 11.656418
v -1.430194 -1.086777 11.700000
v -1.444986 -1.044504 11.700000
v -1.450000 -1.000000 11.700000
v -1.444986 -1.000000 11.655496
v -1.401461 -1.129749 11.685007
v -1.406366 -1.124698 11.700000
v -1.444986 -1.044504 14.500000
v -1.450000 -1.000000 14.500000
v -1.430194 -1.086777 14.500000
v -1.406366 -1.124698 14.500000
v -1.374698 -1.156366 14.500000
v -1.336777 -1.180194 14.500000
v -1.294504 -1.194986 14.500000
v -1.250000 -1.200000 14.500000
v 1.294504 1.694986 11.700000
v 1.250000 1.694986 11.655496
v 1.250000 1.700000 11.700000
v 1.275910 1.689260 11.640759
v 1.250000 1.680194 11.613223
v 1.289229 1.657280 11.582850
v 1.250000 1.624698 11.543633
v 1.250000 1.656366 11.575302
v 1.309241 1.689260 11.674090
v 1.336777 1.680194 11.700000
v 1.292425 1.606841 11.536338
v 1.250000 1.586777 11.519806
v 1.332922 1.662012 11.617078
v 1.290338 1.543772 11.509063
v 1.250000 1.500000 11.500000
v 1.250000 1.544504 11.505014
v 1.336777 1.500000 11.519806
v 1.294504 1.500000 11.505014
v 1.342127 1.616731 11.566259
v 1.367150 1.657280 11.660770
v 1.374698 1.656366 11.700000
v 1.406366 1.624698 11.700000
v 1.340210 1.557698 11.531082
v 1.374698 1.500000 11.543633
v 1.383740 1.616731 11.607873
v 1.384344 1.562479 11.565657
v 1.406366 1.500000 11.575302
v 1.413662 1.606841 11.657575
v 1.430194 1.586777 11.700000
v 1.418917 1.557698 11.609790
v 1.430194 1.500000 11.613223
v 1.440937 1.543772 11.659662
v 1.444986 1.544504 11.700000
v 1.450000 1.500000 11.700000
v 1.444986 1.500000 11.655496
v 1.250000 1.700000 14.500000
v 1.294504 1.694986 14.500000
v 1.336777 1.680194 14.500000
v 1.374698 1.656366 14.500000
v 1.406366 1.624698 14.500000
v 1.430194 1.586777 14.500000
v 1.444986 1.544504 14.500000
v 1.450000 1.500000 14.500000
v -1.250000 1.694986 11.655496
v -1.294504 1.694986 11.700000
v -1.250000 1.700000 11.700000
v -1.309241 1.689260 11.674090
v -1.336777 1.680194 11.700000
v -1.367150 1.657280 11.660770
v -1.406366 1.624698 11.700000
v -1.374698 1.656366 11.700000
v -1.275910 1.689260 11.640759
v -1.250000 1.680194 11.613223
v -1.413662 1.606841 11.657575
v -1.430194 1.586777 11.700000
v -1.332922 1.662012 11.617078
v -1.440937 1.543772 11.659662
v -1.430194 1.500000 11.613223
v -1.444986 1.500000 11.655496
v -1.450000 1.500000 11.700000
v -1.444986 1.544504 11.700000
v -1.383740 1.616731 11.607873
v -1.289229 1.657280 11.582850
v -1.250000 1.656366 11.575302
v -1.250000 1.624698 11.543633
v -1.418917 1.557698 11.609790
v -1.406366 1.500000 11.575302
v -1.342127 1.616731 11.566259
v -1.384344 1.562479 11.565657
v -1.374698 1.500000 11.543633
v -1.292425 1.606841 11.536338
v -1.250000 1.586777 11.519806
v -1.340210 1.557698 11.531082
v -1.336777 1.500000 11.519806
v -1.290338 1.543772 11.509063
v -1.250000 1.500000 11.500000
v -1.294504 1.500000 11.505014
v -1.250000 1.544504 11.505014
v -1.294504 1.694986 14.500000
v -1.250000 1.700000 14.500000
v -1.336777 1.680194 14.500000
v -1.374698 1.656366 14.500000
v -1.406366 1.624698 14.500000
v -1.430194 1.586777 14.500000
v -1.444986 1.544504 14.500000
v -1.450000 1.500000 14.500000
v 3.000000 3.250000 14.500000
v -3.000000 3.250000 14.500000
v 3.000000 -2.750000 14.500000
v -3.000000 -2.750000 14.500000
v 3.000000 3.250000 18.000000
v 3.000000 -2.750000 18.000000
v -3.000000 -2.750000 18.000000
v -3.000000 3.250000 18.000000
vn 0.987542 -0.111269 -0.111269
vn 0.943680 -0.020736 -0.330209
vn 0.702107 -0.118733 -0.702102
vn 0.843846 -0.082366 -0.530226
vn 0.878824 -0.167367 -0.446830
vn 0.943680 -0.330209 -0.020740
vn 0.980726 -0.138161 -0.138161
vn 0.980727 -0.138159 -0.138156
vn 0.530409 -0.078093 -0.844137
vn 0.674631 -0.160042 -0.720596
vn 0.902388 -0.304713 -0.304706
vn 0.872149 -0.239666 -0.426516
vn 0.111389 -0.101239 -0.988607
vn 0.328610 -0.100215 -0.939134
vn 0.117905 -0.327969 -0.937302
vn 0.102027 -0.111380 -0.988527
vn 0.386367 -0.170495 -0.906450
vn 0.659109 -0.287262 -0.695022
vn 0.724963 -0.374395 -0.578150
vn 0.843847 -0.530224 -0.082369
vn 0.702104 -0.702104 -0.118738
vn 0.878825 -0.446826 -0.167370
vn 0.872152 -0.426513 -0.239664
vn 0.132641 -0.527333 -0.839242
vn 0.158063 -0.361554 -0.918855
vn 0.462482 -0.387936 -0.797256
vn 0.372388 -0.285856 -0.882957
vn 0.683873 -0.515908 -0.515905
vn 0.724961 -0.578151 -0.374397
vn 0.138728 -0.700272 -0.700267
vn 0.421098 -0.530650 -0.735586
vn 0.184454 -0.593655 -0.783294
vn 0.487335 -0.617458 -0.617454
vn 0.530407 -0.844138 -0.078097
vn 0.674629 -0.720598 -0.160045
vn 0.659107 -0.695025 -0.287261
vn 0.132640 -0.839242 -0.527333
vn 0.184451 -0.783296 -0.593654
vn 0.421100 -0.735587 -0.530647
vn 0.462483 -0.797257 -0.387933
vn 0.328617 -0.939130 -0.100227
vn 0.111389 -0.988605 -0.101251
vn 0.102038 -0.988526 -0.111380
vn 0.117917 -0.937298 -0.327976
vn 0.386367 -0.906450 -0.170499
vn 0.158064 -0.918856 -0.361551
vn 0.372389 -0.882958 -0.285854
vn 0.111965 -0.993712 0.000000
vn 0.111965 -0.993712 0.000000
vn 0.330280 -0.943883 0.000000
vn 0.330280 -0.943883 0.000000
vn 0.532032 -0.846724 0.000000
vn 0.532032 -0.846724 0.000000
vn 0.707107 -0.707107 0.000000
vn 0.707107 -0.707107 0.000000
vn 0.943883 -0.330280 0.000000
vn 0.846724 -0.532032 0.000000
vn 0.846724 -0.532032 0.000000
vn 0.943883 -0.330280 0.000000
vn 0.993712 -0.111965 0.000000
vn 0.993712 -0.111965 0.000000
vn -0.051804 -0.111814 -0.992378
vn -0.111924 0.026932 -0.993352
vn -0.107125 -0.328372 -0.938454
vn -0.326384 -0.153007 -0.932772
vn -0.154874 -0.226371 -0.961650
vn -0.341965 -0.150228 -0.927627
vn -0.531840 0.026960 -0.846416
vn -0.331760 -0.155919 -0.930390
vn -0.143924 -0.526494 -0.837908
vn -0.172050 -0.482726 -0.858705
vn -0.431911 -0.260619 -0.863441
vn -0.402662 -0.411970 -0.817401
vn -0.606865 -0.173043 -0.775739
vn -0.168123 -0.697044 -0.697039
vn -0.143916 -0.837909 -0.526496
vn -0.168132 -0.697036 -0.697046
vn -0.842704 -0.097319 -0.529509
vn -0.707093 0.006885 -0.707087
vn -0.642618 -0.176530 -0.745573
vn -0.427290 -0.639301 -0.639310
vn -0.481087 -0.507755 -0.714661
vn -0.107127 -0.938451 -0.328379
vn -0.326391 -0.932769 -0.153009
vn -0.172047 -0.858710 -0.482718
vn -0.706636 -0.256408 -0.659484
vn -0.677647 -0.406623 -0.612742
vn -0.845054 -0.142147 -0.515440
vn -0.481093 -0.714661 -0.507749
vn -0.402664 -0.817404 -0.411961
vn -0.051819 -0.992377 -0.111814
vn -0.111924 -0.993353 0.026900
vn -0.154882 -0.961650 -0.226364
vn -0.341935 -0.927636 -0.150237
vn -0.731114 -0.482429 -0.482425
vn -0.677648 -0.612743 -0.406620
vn -0.531838 -0.846417 0.026952
vn -0.331766 -0.930387 -0.155920
vn -0.606860 -0.775742 -0.173044
vn -0.431912 -0.863441 -0.260618
vn -0.938305 -0.328328 -0.108555
vn -0.987757 -0.111294 -0.109319
vn -0.987757 -0.109319 -0.111294
vn -0.938305 -0.108556 -0.328328
vn -0.898330 -0.397732 -0.186580
vn -0.898331 -0.186580 -0.397730
vn -0.877793 -0.338734 -0.338731
vn -0.707090 -0.707090 0.006870
vn -0.842704 -0.529505 -0.097333
vn -0.845053 -0.515441 -0.142146
vn -0.642619 -0.745572 -0.176532
vn -0.706636 -0.659485 -0.256408
vn -0.993712 -0.111965 0.000000
vn -0.993712 -0.111965 -0.000000
vn -0.943883 -0.330280 -0.000000
vn -0.943883 -0.330280 0.000000
vn -0.846724 -0.532032 -0.000000
vn -0.846724 -0.532032 0.000000
vn -0.707107 -0.707107 -0.000000
vn -0.707107 -0.707107 0.000000
vn -0.532032 -0.846724 -0.000000
vn -0.532032 -0.846724 0.000000
vn -0.330280 -0.943883 -0.000000
vn -0.330280 -0.943883 0.000000
vn -0.111965 -0.993712 -0.000000
vn -0.111965 -0.993712 0.000000
vn 0.111269 0.987542 -0.111269
vn 0.020736 0.943680 -0.330209
vn 0.118733 0.702107 -0.702102
vn 0.082366 0.843846 -0.530226
vn 0.167367 0.878824 -0.446830
vn 0.330209 0.943680 -0.020740
vn 0.138161 0.980726 -0.138161
vn 0.138159 0.980727 -0.138156
vn 0.078093 0.530409 -0.844137
vn 0.160042 0.674631 -0.720596
vn 0.304713 0.902388 -0.304706
vn 0.239666 0.872149 -0.426516
vn 0.101239 0.111389 -0.988607
vn 0.100215 0.328610 -0.939134
vn 0.327969 0.117905 -0.937302
vn 0.111380 0.102027 -0.988527
vn 0.170495 0.386367 -0.906450
vn 0.374395 0.724963 -0.578150
vn 0.287262 0.659109 -0.695022
vn 0.530224 0.843847 -0.082369
vn 0.702104 0.702104 -0.118738
vn 0.446826 0.878825 -0.167370
vn 0.426513 0.872152 -0.239664
vn 0.527333 0.132641 -0.839242
vn 0.361554 0.158063 -0.918855
vn 0.285856 0.372388 -0.882957
vn 0.387936 0.462482 -0.797256
vn 0.578151 0.724961 -0.374397
vn 0.515908 0.683873 -0.515905
vn 0.700272 0.138728 -0.700267
vn 0.530650 0.421098 -0.735586
vn 0.593655 0.184454 -0.783294
vn 0.617458 0.487335 -0.617454
vn 0.844138 0.530407 -0.078097
vn 0.720598 0.674629 -0.160045
vn 0.695025 0.659107 -0.287261
vn 0.839242 0.132640 -0.527333
vn 0.783296 0.184451 -0.593654
vn 0.735587 0.421100 -0.530647
vn 0.797257 0.462483 -0.387933
vn 0.939130 0.328617 -0.100227
vn 0.988605 0.111389 -0.101251
vn 0.988526 0.102038 -0.111380
vn 0.937298 0.117917 -0.327976
vn 0.906450 0.386367 -0.170499
vn 0.918856 0.158064 -0.361551
vn 0.882958 0.372389 -0.285854
vn 0.111965 0.993712 -0.000000
vn 0.111965 0.993712 0.000000
vn 0.330280 0.943883 -0.000000
vn 0.330280 0.943883 0.000000
vn 0.532032 0.846724 -0.000000
vn 0.532032 0.846724 0.000000
vn 0.707107 0.707107 -0.000000
vn 0.707107 0.707107 0.000000
vn 0.943883 0.330280 -0.000000
vn 0.846724 0.532032 -0.000000
vn 0.846724 0.532032 0.000000
vn 0.943883 0.330280 -0.000000
vn 0.993712 0.111965 -0.000000
vn 0.993712 0.111965 0.000000
vn 0.111965 0.000000 -0.993712
vn 0.330273 0.000000 -0.943886
vn 0.111965 0.000000 -0.993712
vn 0.532034 0.000000 -0.846723
vn 0.330273 0.000000 -0.943886
vn 0.707109 0.000000 -0.707104
vn 0.532034 0.000000 -0.846723
vn 0.846723 0.000000 -0.532034
vn 0.707109 0.000000 -0.707104
vn 0.943883 0.000000 -0.330280
vn 0.846723 0.000000 -0.532034
vn 0.943883 0.000000 -0.330280
vn 0.993712 0.000000 -0.111965
vn 0.993712 0.000000 -0.111965
vn -0.111269 0.987542 -0.111269
vn -0.330209 0.943680 -0.020740
vn -0.702104 0.702104 -0.118738
vn -0.530224 0.843847 -0.082369
vn -0.446826 0.878825 -0.167370
vn -0.020736 0.943680 -0.330209
vn -0.138158 0.980727 -0.138158
vn -0.138163 0.980726 -0.138160
vn -0.844138 0.530407 -0.078097
vn -0.720598 0.674629 -0.160045
vn -0.304713 0.902388 -0.304706
vn -0.426513 0.872152 -0.239664
vn -0.937298 0.117917 -0.327976
vn -0.988526 0.102038 -0.111380
vn -0.988605 0.111389 -0.101251
vn -0.939130 0.328617 -0.100227
vn -0.906450 0.386367 -0.170499
vn -0.578151 0.724961 -0.374397
vn -0.695025 0.659107 -0.287261
vn -0.082366 0.843846 -0.530226
vn -0.118733 0.702107 -0.702102
vn -0.167367 0.878824 -0.446830
vn -0.239666 0.872149 -0.426516
vn -0.839242 0.132640 -0.527333
vn -0.797257 0.462483 -0.387933
vn -0.918856 0.158064 -0.361551
vn -0.882958 0.372389 -0.285854
vn -0.374395 0.724963 -0.578150
vn -0.515908 0.683873 -0.515905
vn -0.700272 0.138728 -0.700267
vn -0.735587 0.421100 -0.530647
vn -0.783296 0.184451 -0.593654
vn -0.617458 0.487335 -0.617454
vn -0.078093 0.530409 -0.844137
vn -0.160042 0.674631 -0.720596
vn -0.287262 0.659109 -0.695022
vn -0.527333 0.132641 -0.839242
vn -0.530650 0.421098 -0.735586
vn -0.593655 0.184454 -0.783294
vn -0.387936 0.462482 -0.797256
vn -0.111380 0.102027 -0.988527
vn -0.327969 0.117905 -0.937302
vn -0.100215 0.328610 -0.939134
vn -0.101239 0.111389 -0.988607
vn -0.170495 0.386367 -0.906450
vn -0.285856 0.372388 -0.882957
vn -0.361554 0.158063 -0.918855
vn -0.111965 0.993712 0.000000
vn -0.111965 0.993712 0.000000
vn -0.330280 0.943883 0.000000
vn -0.330280 0.943883 0.000000
vn -0.532032 0.846724 0.000000
vn -0.532032 0.846724 0.000000
vn -0.707107 0.707107 0.000000
vn -0.707107 0.707107 0.000000
vn -0.943883 0.330280 0.000000
vn -0.846724 0.532032 0.000000
vn -0.846724 0.532032 0.000000
vn -0.943883 0.330280 0.000000
vn -0.993712 0.111965 0.000000
vn -0.993712 0.111965 0.000000
vn 0.000000 0.111965 -0.993712
vn 0.000000 0.330273 -0.943886
vn 0.000000 0.111965 -0.993712
vn 0.000000 0.532034 -0.846723
vn 0.000000 0.330273 -0.943886
vn 0.000000 0.707109 -0.707104
vn 0.000000 0.532034 -0.846723
vn 0.000000 0.846723 -0.532034
vn 0.000000 0.707109 -0.707104
vn 0.000000 0.943883 -0.330280
vn 0.000000 0.846723 -0.532034
vn 0.000000 0.993712 -0.111965
vn 0.000000 0.943883 -0.330280
vn 0.000000 0.993712 -0.111965
vn -0.111965 -0.000000 -0.993712
vn -0.330273 -0.000000 -0.943886
vn -0.111965 -0.000000 -0.993712
vn -0.532034 -0.000000 -0.846723
vn -0.330273 -0.000000 -0.943886
vn -0.707109 -0.000000 -0.707104
vn -0.532034 -0.000000 -0.846723
vn -0.846723 -0.000000 -0.532034
vn -0.707109 -0.000000 -0.707104
vn -0.943883 -0.000000 -0.330280
vn -0.846723 -0.000000 -0.532034
vn -0.993712 -0.000000 -0.111965
vn -0.943883 -0.000000 -0.330280
vn -0.993712 -0.000000 -0.111965
vn 0.000000 -0.111965 -0.993712
vn 0.000000 -0.330273 -0.943886
vn 0.000000 -0.111965 -0.993712
vn 0.000000 -0.532034 -0.846723
vn 0.000000 -0.330273 -0.943886
vn 0.000000 -0.707109 -0.707104
vn 0.000000 -0.532034 -0.846723
vn 0.000000 -0.846723 -0.532034
vn 0.000000 -0.707109 -0.707104
vn 0.000000 -0.943883 -0.330280
vn 0.000000 -0.846723 -0.532034
vn 0.000000 -0.993712 -0.111965
vn 0.000000 -0.943883 -0.330280
vn 0.000000 -0.993712 -0.111965
vn 1.000000 0.000000 0.000000
vn 1.000000 0.000000 0.000000
vn -0.000000 1.000000 0.000000
vn 0.000000 1.000000 0.000000
vn 0.000000 0.000000 -1.000000
vn 0.000000 0.000000 -1.000000
vn 0.000000 0.000000 -1.000000
vn 0.000000 0.000000 -1.000000
vn 0.000000 0.000000 -1.000000
vn 0.000000 0.000000 -1.000000
vn 0.000000 0.000000 -1.000000
vn 0.000000 0.000000 -1.000000
vn 0.000000 0.000000 -1.000000
vn 0.000000 0.000000 -1.000000
vn 0.000000 0.000000 -1.000000
vn 0.000000 0.000000 -1.000000
vn 0.000000 0.000000 -1.000000
vn 0.000000 0.000000 -1.000000
vn 0.000000 0.000000 -1.000000
vn 0.000000 -0.000000 -1.000000
vn 0.000000 -0.000000 -1.000000
vn 0.000000 -0.000000 -1.000000
vn 0.000000 -0.000000 -1.000000
vn 0.000000 0.000000 -1.000000
vn -0.000000 0.000000 -1.000000
vn 0.000000 0.000000 -1.000000
vn -0.000000 0.000000 -1.000000
vn 0.000000 0.000000 -1.000000
vn -0.000000 0.000000 -1.000000
vn 0.000000 0.000000 -1.000000
vn -0.000000 0.000000 -1.000000
vn -0.000000 -0.000000 -1.000000
vn -0.000000 0.000000 -1.000000
vn -0.000000 0.000000 -1.000000
vn -0.000000 0.000000 -1.000000
vn -0.000000 0.000000 -1.000000
vn -0.000000 0.000000 -1.000000
vn -0.000000 0.000000 -1.000000
vn -0.000000 0.000000 -1.000000
vn -0.000000 0.000000 -1.000000
vn 0.000000 0.000000 -1.000000
vn -0.000000 0.000000 -1.000000
vn 1.000000 0.000000 0.000000
vn 1.000000 0.000000 0.000000
vn 0.000000 -1.000000 -0.000000
vn -0.000000 -1.000000 0.000000
vn -1.000000 0.000000 0.000000
vn -1.000000 0.000000 0.000000
vn 0.000000 1.000000 0.000000
vn -0.000000 1.000000 0.000000
vn 0.000000 0.000000 1.000000
vn 0.000000 0.000000 1.000000
vn -0.000000 -1.000000 0.000000
vn 0.000000 -1.000000 -0.000000
vn -1.000000 0.000000 0.000000
vn -1.000000 0.000000 0.000000
f 1//1 2//1 3//1
f 4//2 5//2 2//2
f 6//3 7//3 8//3
f 6//4 8//4 5//4
f 6//5 5//5 4//5
f 9//6 1//6 10//6
f 9//7 2//7 1//7
f 9//8 4//8 2//8
f 11//9 12//9 7//9
f 11//10 7//10 6//10
f 13//11 4//11 9//11
f 13//12 6//12 4//12
f 14//13 15//13 16//13
f 14//14 16//14 12//14
f 14//15 17//15 18//15
f 14//16 18//16 15//16
f 14//17 12//17 11//17
f 19//18 11//18 6//18
f 19//19 6//19 13//19
f 20//20 10//20 21//20
f 20//21 21//21 22//21
f 20//22 9//22 10//22
f 20//23 13//23 9//23
f 23//24 24//24 17//24
f 23//25 17//25 14//25
f 23//26 11//26 19//26
f 23//27 14//27 11//27
f 25//28 19//28 13//28
f 25//29 13//29 20//29
f 26//30 27//30 24//30
f 26//31 23//31 19//31
f 26//32 24//32 23//32
f 26//33 19//33 25//33
f 28//34 22//34 29//34
f 28//35 20//35 22//35
f 28//36 25//36 20//36
f 30//37 31//37 27//37
f 30//38 27//38 26//38
f 30//39 26//39 25//39
f 30//40 25//40 28//40
f 32//41 29//41 33//41
f 32//42 33//42 34//42
f 32//43 34//43 35//43
f 32//44 35//44 31//44
f 32//45 28//45 29//45
f 32//46 31//46 30//46
f 32//47 30//47 28//47
f 36//48 34//48 33//48
f 37//49 36//49 33//49
f 38//50 33//50 29//50
f 38//51 37//51 33//51
f 39//52 29//52 22//52
f 39//53 38//53 29//53
f 40//54 22//54 21//54
f 40//55 39//55 22//55
f 41//56 10//56 1//56
f 41//57 21//57 10//57
f 41//58 40//58 21//58
f 42//59 41//59 1//59
f 43//60 1//60 3//60
f 43//61 42//61 1//61
f 44//62 45//62 46//62
f 44//63 47//63 45//63
f 48//64 46//64 49//64
f 48//65 50//65 47//65
f 48//66 44//66 46//66
f 48//67 47//67 44//67
f 51//68 52//68 50//68
f 51//69 50//69 48//69
f 53//70 49//70 54//70
f 53//71 48//71 49//71
f 55//72 51//72 48//72
f 55//73 48//73 53//73
f 55//74 52//74 51//74
f 56//75 54//75 57//75
f 56//76 57//76 58//76
f 56//77 53//77 54//77
f 59//78 60//78 61//78
f 59//79 61//79 52//79
f 59//80 52//80 55//80
f 62//81 53//81 56//81
f 62//82 55//82 53//82
f 63//83 58//83 64//83
f 63//84 65//84 66//84
f 63//85 56//85 58//85
f 67//86 59//86 55//86
f 67//87 55//87 62//87
f 67//88 60//88 59//88
f 68//89 62//89 56//89
f 68//90 56//90 63//90
f 69//91 64//91 70//91
f 69//92 70//92 65//92
f 69//93 63//93 64//93
f 69//94 65//94 63//94
f 71//95 67//95 62//95
f 71//96 62//96 68//96
f 72//97 66//97 73//97
f 72//98 63//98 66//98
f 72//99 73//99 68//99
f 72//100 68//100 63//100
f 74//101 75//101 76//101
f 74//102 76//102 77//102
f 74//103 77//103 78//103
f 74//104 78//104 60//104
f 74//105 71//105 75//105
f 74//106 60//106 67//106
f 74//107 67//107 71//107
f 79//108 73//108 80//108
f 79//109 80//109 75//109
f 79//110 75//110 71//110
f 79//111 68//111 73//111
f 79//112 71//112 68//112
f 81//113 82//113 77//113
f 81//114 77//114 76//114
f 83//115 76//115 75//115
f 83//116 81//116 76//116
f 84//117 75//117 80//117
f 84//118 83//118 75//118
f 85//119 80//119 73//119
f 85//120 84//120 80//120
f 86//121 73//121 66//121
f 86//122 85//122 73//122
f 87//123 66//123 65//123
f 87//124 86//124 66//124
f 88//125 65//125 70//125
f 88//126 87//126 65//126
f 89//127 90//127 91//127
f 92//128 93//128 90//128
f 94//129 95//129 96//129
f 94//130 96//130 93//130
f 94//131 93//131 92//131
f 97//132 89//132 98//132
f 97//133 90//133 89//133
f 97//134 92//134 90//134
f 99//135 100//135 95//135
f 99//136 95//136 94//136
f 101//137 92//137 97//137
f 101//138 94//138 92//138
f 102//139 103//139 104//139
f 102//140 104//140 100//140
f 102//141 105//141 106//141
f 102//142 106//142 103//142
f 102//143 100//143 99//143
f 107//144 94//144 101//144
f 107//145 99//145 94//145
f 108//146 98//146 109//146
f 108//147 109//147 110//147
f 108//148 97//148 98//148
f 108//149 101//149 97//149
f 111//150 112//150 105//150
f 111//151 105//151 102//151
f 111//152 102//152 99//152
f 111//153 99//153 107//153
f 113//154 101//154 108//154
f 113//155 107//155 101//155
f 114//156 115//156 112//156
f 114//157 111//157 107//157
f 114//158 112//158 111//158
f 114//159 107//159 113//159
f 116//160 110//160 117//160
f 116//161 108//161 110//161
f 116//162 113//162 108//162
f 118//163 119//163 115//163
f 118//164 115//164 114//164
f 118//165 114//165 113//165
f 118//166 113//166 116//166
f 120//167 117//167 121//167
f 120//168 121//168 122//168
f 120//169 122//169 123//169
f 120//170 123//170 119//170
f 120//171 116//171 117//171
f 120//172 119//172 118//172
f 120//173 118//173 116//173
f 89//174 124//174 125//174
f 89//175 91//175 124//175
f 98//176 125//176 126//176
f 98//177 89//177 125//177
f 109//178 126//178 127//178
f 109//179 98//179 126//179
f 110//180 127//180 128//180
f 110//181 109//181 127//181
f 117//182 129//182 130//182
f 117//183 128//183 129//183
f 117//184 110//184 128//184
f 121//185 117//185 130//185
f 122//186 130//186 131//186
f 122//187 121//187 130//187
f 15//188 103//188 106//188
f 16//189 106//189 105//189
f 16//190 15//190 106//190
f 12//191 105//191 112//191
f 12//192 16//192 105//192
f 7//193 112//193 115//193
f 7//194 12//194 112//194
f 8//195 115//195 119//195
f 8//196 7//196 115//196
f 5//197 119//197 123//197
f 5//198 8//198 119//198
f 2//199 5//199 123//199
f 3//200 123//200 122//200
f 3//201 2//201 123//201
f 132//202 133//202 134//202
f 135//203 136//203 133//203
f 137//204 138//204 139//204
f 137//205 139//205 136//205
f 137//206 136//206 135//206
f 140//207 132//207 141//207
f 140//208 133//208 132//208
f 140//209 135//209 133//209
f 142//210 143//210 138//210
f 142//211 138//211 137//211
f 144//212 135//212 140//212
f 144//213 137//213 135//213
f 145//214 146//214 147//214
f 145//215 147//215 148//215
f 145//216 148//216 149//216
f 145//217 149//217 143//217
f 145//218 143//218 142//218
f 150//219 137//219 144//219
f 150//220 142//220 137//220
f 151//221 141//221 152//221
f 151//222 152//222 153//222
f 151//223 140//223 141//223
f 151//224 144//224 140//224
f 154//225 155//225 146//225
f 154//226 142//226 150//226
f 154//227 146//227 145//227
f 154//228 145//228 142//228
f 156//229 144//229 151//229
f 156//230 150//230 144//230
f 157//231 158//231 155//231
f 157//232 154//232 150//232
f 157//233 155//233 154//233
f 157//234 150//234 156//234
f 159//235 153//235 160//235
f 159//236 151//236 153//236
f 159//237 156//237 151//237
f 161//238 162//238 158//238
f 161//239 157//239 156//239
f 161//240 158//240 157//240
f 161//241 156//241 159//241
f 163//242 164//242 165//242
f 163//243 165//243 162//243
f 163//244 160//244 166//244
f 163//245 166//245 164//245
f 163//246 159//246 160//246
f 163//247 161//247 159//247
f 163//248 162//248 161//248
f 167//249 168//249 134//249
f 167//250 134//250 133//250
f 169//251 133//251 136//251
f 169//252 167//252 133//252
f 170//253 136//253 139//253
f 170//254 169//254 136//254
f 171//255 139//255 138//255
f 171//256 170//256 139//256
f 172//257 143//257 149//257
f 172//258 138//258 143//258
f 172//259 171//259 138//259
f 173//260 172//260 149//260
f 174//261 149//261 148//261
f 174//262 173//262 149//262
f 103//263 164//263 166//263
f 104//264 166//264 160//264
f 104//265 103//265 166//265
f 100//266 160//266 153//266
f 100//267 104//267 160//267
f 95//268 153//268 152//268
f 95//269 100//269 153//269
f 96//270 152//270 141//270
f 96//271 95//271 152//271
f 93//272 141//272 132//272
f 93//273 96//273 141//273
f 90//274 132//274 134//274
f 90//275 93//275 132//275
f 91//276 90//276 134//276
f 164//277 45//277 47//277
f 165//278 47//278 50//278
f 165//279 164//279 47//279
f 162//280 50//280 52//280
f 162//281 165//281 50//281
f 158//282 52//282 61//282
f 158//283 162//283 52//283
f 155//284 61//284 60//284
f 155//285 158//285 61//285
f 146//286 60//286 78//286
f 146//287 155//287 60//287
f 147//288 78//288 77//288
f 147//289 146//289 78//289
f 148//290 147//290 77//290
f 45//291 15//291 18//291
f 46//292 18//292 17//292
f 46//293 45//293 18//293
f 49//294 17//294 24//294
f 49//295 46//295 17//295
f 54//296 24//296 27//296
f 54//297 49//297 24//297
f 57//298 27//298 31//298
f 57//299 54//299 27//299
f 58//300 31//300 35//300
f 58//301 57//301 31//301
f 64//302 35//302 34//302
f 64//303 58//303 35//303
f 70//304 64//304 34//304
f 131//305 43//305 3//305
f 131//306 3//306 122//306
f 168//307 124//307 91//307
f 168//308 91//308 134//308
f 164//309 103//309 15//309
f 164//310 15//310 45//310
f 128//311 127//311 175//311
f 127//312 126//312 175//312
f 175//313 129//313 128//313
f 126//314 125//314 175//314
f 175//315 130//315 129//315
f 175//316 131//316 130//316
f 125//317 124//317 175//317
f 175//318 43//318 131//318
f 167//319 176//319 168//319
f 169//320 176//320 167//320
f 170//321 176//321 169//321
f 168//322 176//322 124//322
f 124//323 176//323 175//323
f 41//324 177//324 40//324
f 42//325 177//325 41//325
f 43//326 177//326 42//326
f 175//327 177//327 43//327
f 177//328 39//328 40//328
f 170//329 171//329 176//329
f 177//330 38//330 39//330
f 171//331 172//331 176//331
f 177//332 37//332 38//332
f 172//333 173//333 176//333
f 177//334 36//334 37//334
f 173//335 174//335 176//335
f 174//336 82//336 176//336
f 36//337 178//337 88//337
f 81//338 178//338 82//338
f 83//339 178//339 81//339
f 84//340 178//340 83//340
f 85//341 178//341 84//341
f 86//342 178//342 85//342
f 87//343 178//343 86//343
f 88//344 178//344 87//344
f 177//345 178//345 36//345
f 82//346 178//346 176//346
f 179//347 177//347 175//347
f 179//348 180//348 177//348
f 180//349 178//349 177//349
f 180//350 181//350 178//350
f 181//351 176//351 178//351
f 181//352 182//352 176//352
f 182//353 175//353 176//353
f 182//354 179//354 175//354
f 179//355 182//355 181//355
f 179//356 181//356 180//356
f 36//357 88//357 70//357
f 36//358 70//358 34//358
f 82//359 174//359 148//359
f 82//360 148//360 77//360
