# WaveFront *.obj file
# Vertices: 379
# Triangles : 754

v -0.0422154996337358 0.08757920000000001 0.018204425241298124
v -0.04182192316306859 0.08753590959828954 0.018204425241298124
v -0.04163313223453893 0.08745064311471851 0.018204425241298124
v -0.041462631283608595 0.08731606835012723 0.018204425241298124
v -0.041328056519017296 0.08714556739919686 0.018204425241298124
v -0.04124279003544629 0.08695677647066724 0.018204425241298124
v -0.0411994996337358 0.0865632 0.018204425241298124
v -0.04126141743121473 0.0865632 0.017417685029717793
v -0.04144564620198422 0.0865632 0.016650316973187636
v -0.04174764962228766 0.0865632 0.015921216220007993
v -0.04215999136562531 0.0865632 0.015248335650468816
v -0.04267251820979241 0.0865632 0.014648243817354738
v -0.04327261004290649 0.0865632 0.014135716973187638
v -0.043945490612445674 0.0865632 0.013723375229849984
v -0.04467459136562531 0.0865632 0.013421371809546537
v -0.04544195942215547 0.0865632 0.013237143038777056
v -0.0462286996337358 0.0865632 0.013175225241298123
v -0.04701543984531613 0.0865632 0.013237143038777056
v -0.04778280790184629 0.0865632 0.013421371809546537
v -0.04851190865502593 0.0865632 0.013723375229849984
v -0.04918478922456511 0.0865632 0.014135716973187638
v -0.049784881057679184 0.0865632 0.014648243817354738
v -0.05029740790184628 0.0865632 0.01524833565046882
v -0.05070974964518394 0.0865632 0.015921216220007993
v -0.05101175306548738 0.0865632 0.016650316973187636
v -0.051195981836256864 0.0865632 0.017417685029717793
v -0.051257899633735796 0.0865632 0.018204425241298124
v -0.051195981836256864 0.0865632 0.018991165452878454
v -0.05101175306548738 0.0865632 0.01975853350940861
v -0.05070974964518394 0.0865632 0.020487634262588254
v -0.05029740790184628 0.0865632 0.021160514832127428
v -0.049784881057679184 0.0865632 0.021760606665241513
v -0.04918478922456511 0.0865632 0.02227313350940861
v -0.04851190865502593 0.0865632 0.022685475252746265
v -0.04778280790184629 0.0865632 0.022987478673049712
v -0.04701543984531613 0.0865632 0.023171707443819193
v -0.0462286996337358 0.0865632 0.023233625241298125
v -0.04544195942215547 0.0865632 0.023171707443819193
v -0.04467459136562531 0.0865632 0.022987478673049712
v -0.043945490612445674 0.0865632 0.022685475252746265
v -0.04327261004290649 0.0865632 0.02227313350940861
v -0.04267251820979241 0.0865632 0.021760606665241513
v -0.04215999136562531 0.0865632 0.021160514832127428
v -0.04174764962228766 0.0865632 0.020487634262588254
v -0.04144564620198422 0.0865632 0.01975853350940861
v -0.04126141743121473 0.0865632 0.018991165452878454
v -0.0422764691593472 0.08757920000000001 0.018901310107911046
v -0.04245752520799779 0.08757920000000001 0.019577020480492698
v -0.04275316648326809 0.08757920000000001 0.020211025241298124
v -0.04315441007461072 0.08757920000000001 0.020784060476492144
v -0.04364906439854178 0.08757920000000001 0.021278714800423204
v -0.044222099633735794 0.08757920000000001 0.021679958391765834
v -0.04485610439454123 0.08757920000000001 0.021975599667036133
v -0.04553181476712287 0.08757920000000001 0.022156655715686716
v -0.0462286996337358 0.08757920000000001 0.022217625241298125
v -0.04692558450034873 0.08757920000000001 0.022156655715686716
v -0.04760129487293037 0.08757920000000001 0.021975599667036133
v -0.048235299633735795 0.08757920000000001 0.021679958391765834
v -0.04880833486892982 0.08757920000000001 0.021278714800423204
v -0.04930298919286088 0.08757920000000001 0.020784060476492144
v -0.04970423278420351 0.08757920000000001 0.020211025241298124
v -0.04999987405947381 0.08757920000000001 0.019577020480492698
v -0.0501809301081244 0.08757920000000001 0.01890131010791105
v -0.0502418996337358 0.08757920000000001 0.018204425241298124
v -0.0501809301081244 0.08757920000000001 0.0175075403746852
v -0.04999987405947381 0.08757920000000001 0.01683183000210355
v -0.04970423278420351 0.08757920000000001 0.016197825241298123
v -0.04930298919286088 0.08757920000000001 0.015624790006104105
v -0.04880833486892982 0.08757920000000001 0.015130135682173041
v -0.048235299633735795 0.08757920000000001 0.014728892090830415
v -0.04760129487293037 0.08757920000000001 0.014433250815560118
v -0.04692558450034873 0.08757920000000001 0.01425219476690953
v -0.0462286996337358 0.08757920000000001 0.014191225241298122
v -0.04553181476712287 0.08757920000000001 0.01425219476690953
v -0.04485610439454123 0.08757920000000001 0.014433250815560114
v -0.044222099633735794 0.08757920000000001 0.014728892090830415
v -0.04364906439854178 0.08757920000000001 0.015130135682173041
v -0.04315441007461072 0.08757920000000001 0.015624790006104105
v -0.042753166483268094 0.08757920000000001 0.016197825241298123
v -0.04245752520799779 0.08757920000000001 0.01683183000210355
v -0.0422764691593472 0.08757920000000001 0.0175075403746852
v -0.050524758583011815 0.08755983979548378 0.018542519707408014
v -0.04927577039516933 0.08755983979548375 0.021251410206333646
v -0.04656683334457566 0.08755983979548375 0.02250040369215977
v -0.04369578220225839 0.08755983979548378 0.021690732770223847
v -0.041267508136717534 0.08676118663555035 0.017418649098790297
v -0.04130427789338113 0.08695677544357126 0.017424472860596195
v -0.04138849215744112 0.08714556574894275 0.017437811099927807
v -0.041521406316260306 0.0873160663546283 0.0174588626507628
v -0.04168980357424151 0.08745064127595287 0.017485534176718793
v -0.04197245282401397 0.08755983979548375 0.01753030145435813
v -0.04145141873003537 0.08676118663555035 0.016652194293548306
v -0.04148682543756687 0.08695677544357126 0.016663698617513375
v -0.041567917892021564 0.08714556574894275 0.016690047124115967
v -0.04169590494374893 0.0873160663546283 0.016731632592211138
v -0.04185805974169871 0.08745064127595287 0.01678431982178325
v -0.042130231227962604 0.08755983979548375 0.016872753600870143
v -0.04175355414602932 0.08676118663555035 0.015924260678016555
v -0.04178672158387485 0.08695677544357126 0.015941160065229325
v -0.04186268540910415 0.08714556574894275 0.01597986495713842
v -0.04198257801926634 0.0873160663546283 0.016040952330016497
v -0.04213447746310954 0.08745064127595287 0.01611834774207291
v -0.0423894356753622 0.08755983979548375 0.01624825339146311
v -0.04216533366710931 0.08676118663555035 0.015252171955894568
v -0.042195449210506046 0.08695677544357126 0.015274052513212065
v -0.04226442324117822 0.08714556574894275 0.01532416584544251
v -0.042373283959365224 0.0873160663546283 0.01540325899520027
v -0.04251120640951965 0.08745064127595287 0.015503467051758204
v -0.042742704698329546 0.08755983979548375 0.015671662973394996
v -0.04267680507361023 0.08676118663555035 0.014652531198460533
v -0.04270312985844247 0.08695677544357126 0.014678855979458907
v -0.042763421864219595 0.08714556574894275 0.014739147976455274
v -0.042858579867686555 0.0873160663546283 0.014834305966063693
v -0.04297914149182926 0.08745064127595287 0.014954867572648136
v -0.04318150020612073 0.08755983979548375 0.015157226257468648
v -0.04327657876159708 0.08676118663555035 0.014141294919247958
v -0.043298458337536705 0.08695677544357126 0.014171408716170338
v -0.043348569422104334 0.08714556574894275 0.014240378746868995
v -0.04342765902440828 0.0873160663546283 0.014349233151955477
v -0.04352786258647517 0.08745064127595287 0.01448714760364813
v -0.04369605096425683 0.08755983979548375 0.014718632467303452
v -0.04394875134655449 0.08676118663555035 0.013729684664681002
v -0.04396564913084191 0.08695677544357126 0.013762849101537309
v -0.044004350351549724 0.08714556574894275 0.013838806053560963
v -0.044065431930223734 0.0873160663546283 0.01395868781584178
v -0.04414282000124075 0.08745064127595288 0.014110573515825831
v -0.04427271332893816 0.08755983979548375 0.014365508659463677
v -0.044676554317491686 0.08676118663555035 0.013427309503420484
v -0.04468805800680082 0.08695677544357126 0.013462714986829287
v -0.04471440505984246 0.08714556574894275 0.013543804637659446
v -0.044755988233803334 0.0873160663546283 0.013671787264466637
v -0.044808672556793265 0.08745064127595288 0.013833936456208364
v -0.044897101457277745 0.08755983979548375 0.014106098532636748
v -0.04544290851558284 0.08676118663555035 0.013243543151148967
v -0.04544873238838038 0.08695677544357126 0.013280310614650665
v -0.04546207088191766 0.08714556574894275 0.013364519626651385
v -0.04548312283396177 0.0873160663546283 0.013497425496221155
v -0.045509794868234685 0.08745064127595287 0.013665812252033996
v -0.045554562999067225 0.08755983979548375 0.013948443874262858
v -0.04622865993308715 0.08676118663555035 0.01318264312304418
v -0.04622866022732759 0.08695677544357126 0.013219861945703364
v -0.04622866090123041 0.08714556574894275 0.013305104711601947
v -0.0462286619648415 0.0873160663546283 0.013439642140044714
v -0.0462286633123969 0.08745064127595287 0.013610096019803486
v -0.04622866557422423 0.08755983979548375 0.0138961972414754
v -0.04701443400721674 0.08676118663555035 0.013244078022220017
v -0.047008610554981026 0.08695677544357126 0.013280841521537076
v -0.04699527302466213 0.08714556574894275 0.013365041454312847
v -0.04697422259285169 0.0873160663546283 0.013497932994272778
v -0.046947552484657866 0.08745064127595287 0.013666301595006987
v -0.04690278758668561 0.08755983979548375 0.013948902744534473
v -0.04778093439981704 0.08676118663555035 0.013427141618520417
v -0.04776943004755249 0.08695677544357126 0.013462548346204296
v -0.047743081476135235 0.08714556574894275 0.013543640846814253
v -0.04770149590574402 0.0873160663546283 0.013671627971387814
v -0.04764880854656663 0.08745064127595287 0.013833782861630967
v -0.04756037454994158 0.08755983979548375 0.014105954502806264
v -0.04850862722713619 0.08676118663555035 0.01372956000494988
v -0.04849172959622024 0.08695677544357126 0.01376272536571892
v -0.048453028726781186 0.08714556574894275 0.013838684433792221
v -0.04839194770250958 0.0873160663546283 0.013958569535803687
v -0.04831456033389963 0.08745064127595287 0.014110459467101308
v -0.04818466818516933 0.08755983979548375 0.014365401712859582
v -0.04918021701257172 0.08676118663555035 0.014142018248269758
v -0.04915834190940883 0.08695677544357126 0.014172126684255732
v -0.049108241068901395 0.08714556574894275 0.014241084436730245
v -0.04902916763464998 0.0873160663546283 0.014349919463272572
v -0.048928984556899695 0.08745064127595287 0.014487809363076032
v -0.04876083056136863 0.08755983979548375 0.014719253017194194
v -0.04978005405559895 0.08676118663555035 0.014653231245309428
v -0.04975373327398902 0.08695677544357126 0.014679550837926686
v -0.04969345043684534 0.08714556574894275 0.014739830951904582
v -0.049598306904100345 0.0873160663546283 0.014834970186716274
v -0.04947776361382006 0.08745064127595287 0.014955508031676142
v -0.04927543567231265 0.08755983979548375 0.015157826833392611
v -0.05029248158386498 0.08676118663555035 0.015251906947137744
v -0.05026236295741608 0.08695677544357126 0.015273789468561545
v -0.05019338186558842 0.08714556574894275 0.015323907299210857
v -0.05008451000288153 0.0873160663546283 0.015403007548758259
v -0.04994657343303806 0.08745064127595287 0.01550322460048359
v -0.049715051444795266 0.08755983979548375 0.01567143562021251
v -0.050702738667134525 0.08676118663555035 0.01592452141273105
v -0.050669579429749645 0.08695677544357126 0.015941418867514483
v -0.05059363438614474 0.08714556574894275 0.015980119333554893
v -0.05047377141874954 0.0873160663546283 0.01604119972114823
v -0.050321909531181194 0.08745064127595288 0.01611858628311067
v -0.05006701435589864 0.08755983979548375 0.01624847707790969
v -0.05100308428398942 0.08676118663555035 0.016653086935840593
v -0.05096769904197372 0.08695677544357126 0.016664584644007847
v -0.050886655750276136 0.08714556574894275 0.016690917998360467
v -0.05075874629141952 0.0873160663546283 0.01673247955187796
v -0.05059668980072903 0.08745064127595288 0.01678513648257642
v -0.05032468331996118 0.08755983979548375 0.016873519406002048
v -0.05118791023405463 0.08676118663555035 0.017419205908351287
v -0.05115115515876137 0.08695677544357126 0.017425025543375928
v -0.05106697451963962 0.08714556574894275 0.0174383543310854
v -0.05093411343057569 0.0873160663546283 0.017459390964561436
v -0.05076578340998549 0.08745064127595288 0.017486043590782686
v -0.05048324701595873 0.08755983979548375 0.017530779145839902
v -0.0512516083169551 0.08676118663555035 0.01820448072214805
v -0.05121438114478559 0.08695677544357126 0.018204480310953005
v -0.051129119255892155 0.08714556574894275 0.018204479369187516
v -0.05099455164590231 0.0873160663546283 0.018204477882812622
v -0.05082405952725451 0.08745064127595288 0.01820447599963133
v -0.05053789412286712 0.08755983979548378 0.018204472838773574
v -0.05123629719155468 0.08676118663555035 0.018598516905959588
v -0.051199183497438884 0.08695677544357126 0.018595596104651786
v -0.051114181508845266 0.08714556574894275 0.018588906554463776
v -0.050980024095751544 0.0873160663546283 0.018578348533847638
v -0.050810051681198135 0.08745064127595288 0.018564971917411417
v -0.05100371086944719 0.08676118663555035 0.019755762961840805
v -0.05096832098350779 0.08695677544357126 0.019744265258008632
v -0.050887267055769805 0.08714556574894275 0.019717931913584712
v -0.05075934081020395 0.0873160663546283 0.019676370375737537
v -0.05059726305138201 0.08745064127595288 0.019623713464892795
v -0.050325220872756156 0.08755983979548375 0.019535330574790958
v -0.050484435439738025 0.08755983979548375 0.018878347660438558
v -0.050767050754726054 0.08745064127595288 0.018923101565625586
v -0.05093542779498281 0.0873160663546283 0.018949765124518857
v -0.051068325996167827 0.08714556574894275 0.01897081038703626
v -0.05115253014948845 0.08695677544357126 0.018984144642096797
v -0.051189295491586045 0.08676118663555035 0.018989966664284354
v -0.050702126477627306 0.08676118663555035 0.020483924809967316
v -0.05066897177747087 0.08695677544357126 0.020467030351346824
v -0.0505930371255408 0.08714556574894275 0.020428336747458337
v -0.05047319055917617 0.0873160663546283 0.020367267190300457
v -0.05032134945109888 0.08745064127595288 0.02028989435009384
v -0.050066489153507504 0.08755983979548375 0.02016002658680991
v -0.050291872548031635 0.08676118663555035 0.021156656019896917
v -0.05026175843543781 0.08695677544357126 0.021134775629388088
v -0.05019278768175262 0.08714556574894275 0.021084662679201754
v -0.05008393213558693 0.0873160663546283 0.021005570132418706
v -0.049946016238189665 0.08745064127595287 0.020905362839807137
v -0.049714528947966796 0.08755983979548375 0.02073716820042915
v -0.050048285204038305 0.08676118663555035 0.021466673826548193
v -0.050019976433441526 0.08695677544357126 0.02144249574619635
v -0.0499551404786088 0.08714556574894275 0.021387120366319824
v -0.049852810825859094 0.0873160663546283 0.02129972220262705
v -0.04972316299084808 0.08745064127595287 0.02118899200466164
v -0.049505553370954025 0.08755983979548375 0.021003135015318176
v -0.04918002893749957 0.08676118663555035 0.022266088920740727
v -0.04915815522825074 0.08695677544357126 0.022235985993806297
v -0.049108057580243294 0.08714556574894275 0.022167040858786003
v -0.04902898918466858 0.0873160663546283 0.022058225746189764
v -0.04892881249073283 0.08745064127595287 0.021920361076609676
v -0.04876066921022417 0.08755983979548375 0.02168895977059025
v -0.049478120564984567 0.08745064127595287 0.021453754678573387
v -0.04959867709848447 0.0873160663546283 0.021574307817561932
v -0.0496938310839614 0.08714556574894275 0.02166945912378726
v -0.04975412054394448 0.08695677544357126 0.021729746886199486
v -0.04978044421722836 0.08676118663555035 0.021756069818287465
v -0.048507528261657974 0.08676118663555035 0.022676934960890485
v -0.04849063877569939 0.08695677544357126 0.022643787057979706
v -0.04845195656076481 0.08714556574894275 0.022567867973871985
v -0.048390904978628656 0.0873160663546283 0.022448045977976942
v -0.048313554912100945 0.08745064127595287 0.022296235999763787
v -0.048183725373686766 0.08755983979548375 0.022041427952623784
v -0.047779983127549636 0.08676118663555035 0.022979728787792777
v -0.047768485825617615 0.08695677544357126 0.02294433673539872
v -0.047742153401670984 0.08714556574894275 0.02286327784580077
v -0.04770059331659982 0.0873160663546283 0.022735343769002866
v -0.04764793824636785 0.08745064127595287 0.022573256088303403
v -0.04755955844567392 0.08755983979548375 0.02230119725613301
v -0.04701443447302056 0.08676118663555035 0.02316559125050363
v -0.04700861101733256 0.08695677544357126 0.023128821682742377
v -0.046995273479106814 0.08714556574894275 0.023044607851327933
v -0.046974223034817124 0.0873160663546283 0.022911694375346965
v -0.04694755291081257 0.08745064127595287 0.02274329798249621
v -0.04690278798630252 0.08755983979548375 0.02246065018481669
v -0.04662283704307077 0.08676118663555035 0.023211928968080688
v -0.04661991590272737 0.08695677544357126 0.023174815969391464
v -0.04661322557604161 0.08714556574894275 0.023089815573542585
v -0.04660266632989027 0.0873160663546283 0.02295566067425493
v -0.04658928816074688 0.08745064127595287 0.022785691444599587
v -0.045443570996102085 0.08676118663555035 0.023162774979553817
v -0.0454493899589405 0.08695677544357126 0.023126026284519926
v -0.045462717207132894 0.08714556574894275 0.02304186025819133
v -0.04548375141081131 0.0873160663546283 0.02290902223228814
v -0.045510400958570056 0.08745064127595288 0.022740721431858266
v -0.045555131346529366 0.08755983979548375 0.02245823408290797
v -0.04622886732825601 0.08755983979548375 0.022512945261813414
v -0.04622887846452993 0.08745064127595287 0.022799065876023723
v -0.04622888509931841 0.0873160663546283 0.02296953130950249
v -0.04622889033608619 0.08714556574894275 0.02310407785717317
v -0.04622889365409646 0.08695677544357126 0.02318932640100448
v -0.046228895102811016 0.08676118663555035 0.023226547746433204
v -0.04467722822686716 0.08676118663555035 0.0229787595413167
v -0.04468872692151247 0.08695677544357126 0.022943374672470606
v -0.04471506253520891 0.08714556574894275 0.022862332235448358
v -0.044756627654616195 0.0873160663546283 0.022734424125513485
v -0.04480928910316337 0.08745064127595288 0.022572369343856313
v -0.044897679609649244 0.08755983979548375 0.022300365731644563
v -0.04394854876197811 0.08676118663555034 0.022679026743827633
v -0.04396544804771646 0.08695677544357125 0.022645863337715726
v -0.04400415270721735 0.08714556574894275 0.022569908746419717
v -0.04406523971328891 0.0873160663546283 0.022450030710041317
v -0.04414263466061522 0.08745064127595287 0.022298149730635982
v -0.04427253952997123 0.08755983979548375 0.022043222510334002
v -0.04360417088331074 0.08676118663555034 0.02248718049539668
v -0.04362362251777551 0.08695677544357125 0.0224554389533422
v -0.04366817285560346 0.08714556574894275 0.02238274087625936
v -0.04373848601149942 0.0873160663546283 0.022268002549313284
v -0.04382757014488352 0.08745064127595287 0.0221226333891371
v -0.04397709492794415 0.08755983979548375 0.02187863604288317
v -0.04267860404063361 0.08676118663555035 0.021754969413232482
v -0.04270491549246314 0.08695677544357126 0.021728654636771254
v -0.042765176961486344 0.08714556574894275 0.021668385553299748
v -0.04286028676923483 0.0873160663546283 0.021573263727777254
v -0.04298078733120848 0.08745064127595288 0.021452747939734364
v -0.04318304355466084 0.08755983979548375 0.021250466159826377
v -0.043527575976503946 0.08745064127595288 0.02192225181777441
v -0.04342736178094101 0.0873160663546283 0.022060186635607187
v -0.04334826378573211 0.08714556574894275 0.022169057115470747
v -0.04329814738342917 0.08695677544357126 0.02223803733113039
v -0.04327626548565209 0.08676118663555035 0.022268155575025515
v -0.042167991551913635 0.08676118663555035 0.021154776327747562
v -0.042198087396458285 0.08695677544357126 0.021132909868533858
v -0.042267016310586804 0.08714556574894275 0.021082828825378548
v -0.04237580582198342 0.0873160663546283 0.021003786637002555
v -0.04251363805580305 0.08745064127595288 0.020903643146605425
v -0.04274498491946711 0.08755983979548375 0.020735555597142463
v -0.04175540757897287 0.08676118663555035 0.020483334645092794
v -0.04178856128014277 0.08695677544357126 0.02046644456046569
v -0.04186449364408068 0.08714556574894275 0.02042776097439261
v -0.04198433659934026 0.0873160663546283 0.02036670722820834
v -0.04213617313228279 0.08745064127595288 0.020289354419912746
v -0.04239102575066121 0.08755983979548375 0.020159520279531527
v -0.04145183168129202 0.08676118663555035 0.019756402691790246
v -0.041487235328244776 0.08695677544357126 0.019744900246614266
v -0.04156832077301517 0.08714556574894275 0.0197185560430274
v -0.04169629676145886 0.0873160663546283 0.019676977366319903
v -0.04185843754264284 0.08745064127595287 0.019624298741181444
v -0.04213058550222711 0.08755983979548375 0.01953587940435298
v -0.041267439604095915 0.08676118663555035 0.018990212704894847
v -0.04130420986868746 0.08695677544357126 0.018984388859182962
v -0.041388425296061605 0.08714556574894275 0.018971050427680342
v -0.04152134129092275 0.0873160663546283 0.018949998573544617
v -0.04168974087510031 0.08745064127595287 0.018923326663317967
v -0.04197239402931671 0.08755983979548375 0.018878558740692986
v -0.0411994996337358 0.0810768 0.018204425241298124
v -0.04126141743121473 0.0810768 0.017417685029717793
v -0.04144564620198422 0.0810768 0.016650316973187636
v -0.04174764962228766 0.0810768 0.015921216220007993
v -0.04215999136562531 0.0810768 0.015248335650468816
v -0.04267251820979241 0.0810768 0.014648243817354738
v -0.043272610042906494 0.0810768 0.014135716973187638
v -0.043945490612445674 0.0810768 0.013723375229849984
v -0.04467459136562531 0.0810768 0.013421371809546537
v -0.04544195942215547 0.0810768 0.013237143038777056
v -0.0462286996337358 0.0810768 0.013175225241298123
v -0.04701543984531613 0.0810768 0.013237143038777058
v -0.04778280790184629 0.0810768 0.013421371809546537
v -0.04851190865502593 0.0810768 0.013723375229849984
v -0.04918478922456511 0.0810768 0.014135716973187638
v -0.049784881057679184 0.0810768 0.014648243817354738
v -0.05029740790184628 0.0810768 0.01524833565046882
v -0.05070974964518394 0.0810768 0.015921216220007993
v -0.05101175306548738 0.0810768 0.016650316973187636
v -0.051195981836256864 0.0810768 0.017417685029717796
v -0.051257899633735796 0.0810768 0.018204425241298124
v -0.051195981836256864 0.0810768 0.018991165452878454
v -0.05101175306548738 0.0810768 0.01975853350940861
v -0.05070974964518394 0.0810768 0.020487634262588254
v -0.05029740790184628 0.0810768 0.021160514832127428
v -0.049784881057679184 0.0810768 0.021760606665241513
v -0.04918478922456511 0.0810768 0.02227313350940861
v -0.04851190865502592 0.0810768 0.022685475252746265
v -0.04778280790184629 0.0810768 0.022987478673049712
v -0.04701543984531613 0.0810768 0.023171707443819193
v -0.0462286996337358 0.0810768 0.023233625241298125
v -0.04544195942215547 0.0810768 0.023171707443819193
v -0.04467459136562531 0.0810768 0.022987478673049712
v -0.04394549061244567 0.0810768 0.022685475252746265
v -0.04327261004290649 0.0810768 0.02227313350940861
v -0.04267251820979241 0.0810768 0.021760606665241513
v -0.04215999136562531 0.0810768 0.021160514832127428
v -0.04174764962228766 0.0810768 0.020487634262588254
v -0.04144564620198422 0.0810768 0.01975853350940861
v -0.04126141743121473 0.0810768 0.018991165452878454

vn 0.0000000000000000e+00 1.0000000000000000e+00 -0.0000000000000000e+00
vn 1.8115784470861690e-01 9.8303552965121199e-01 -2.8687675818887971e-02
vn 2.9495705841437347e-01 9.5551050946158622e-01 0.0000000000000000e+00
vn 5.1401001254528378e-01 8.5391345737701529e-01 -8.1397262322694841e-02
vn 5.2040360048057999e-01 8.5392042521938127e-01 0.0000000000000000e+00
vn 7.0710678118656767e-01 7.0710678118652737e-01 0.0000000000000000e+00
vn 6.9841345315069459e-01 7.0709725732210638e-01 -1.1059890209978271e-01
vn 8.5392042521937506e-01 5.2040360048058998e-01 0.0000000000000000e+00
vn 8.4341671191645484e-01 5.2039374222318113e-01 -1.3356123357841934e-01
vn 9.5551050946158089e-01 2.9495705841439041e-01 0.0000000000000000e+00
vn 9.4375263525254460e-01 2.9495018536840384e-01 -1.4945016428569635e-01
vn 9.8380093786887646e-01 8.8682207687095033e-02 -1.5579210727139595e-01
vn 9.0867319582605621e-01 2.9495534602719697e-01 -2.9549004558062214e-01
vn 9.4723433295595849e-01 8.8683893821018059e-02 -3.0802968273564590e-01
vn 8.5111389484538458e-01 2.9492458473113592e-01 -4.3430936821842392e-01
vn 8.8722438280445137e-01 8.8673843344588790e-02 -4.5273595402150235e-01
vn 7.7343967526353008e-01 2.9492811036447403e-01 -5.6107796111154251e-01
vn 8.0625548887653198e-01 8.8674995242394056e-02 -5.8488360540814088e-01
vn 6.7556440011557040e-01 2.9495573887041443e-01 -6.7573208700186593e-01
vn 7.0423323888436962e-01 8.8684022174378943e-02 -7.0440804187729478e-01
vn 5.6079649968170753e-01 2.9491362428084866e-01 -7.7364930049621261e-01
vn 5.8458771386852226e-01 8.8670262360177610e-02 -8.0647057563618030e-01
vn 4.3428965987607354e-01 2.9489998221384345e-01 -8.5113247606644593e-01
vn 4.5271213713000535e-01 8.8665805289681210e-02 -8.8723733908549829e-01
vn 2.9620719519734906e-01 2.9494536902129415e-01 -9.0844291334470328e-01
vn 3.0877636059665980e-01 8.8680634056504851e-02 -9.4699150169366242e-01
vn 1.4814362509623510e-01 2.9493365439794689e-01 -9.4396377358817030e-01
vn 1.5442937473357218e-01 8.8676806600780672e-02 -9.8401625606007437e-01
vn -4.6644422544117858e-04 2.9488306383621882e-01 -9.5553323390259370e-01
vn -4.8622827598580800e-04 8.8660277873183951e-02 -9.9606180466350247e-01
vn -1.4821230979909528e-01 2.9490488030230277e-01 -9.4396198164857326e-01
vn -1.5449966755512651e-01 8.8667405563410365e-02 -9.8400606904429655e-01
vn -2.9506382052666974e-01 2.9495554901338672e-01 -9.0881162290235751e-01
vn -3.0758538842276290e-01 8.8683960142534213e-02 -9.4737869093739668e-01
vn -4.3524629172515084e-01 2.9490507979036407e-01 -8.5064191023799429e-01
vn -4.5371002859665638e-01 8.8667470739085208e-02 -8.8672729155223062e-01
vn -5.6161151333675641e-01 2.9486339643926002e-01 -7.7307702431769509e-01
vn -5.8542866509216518e-01 8.8653852426001517e-02 -8.0586212998157081e-01
vn -6.7449693031455271e-01 2.9490831841584203e-01 -6.7681827304335240e-01
vn -7.0311067215270429e-01 8.8668528847122008e-02 -7.0553049168484538e-01
vn -7.7334649255465504e-01 2.9495453193031507e-01 -5.6119250400123988e-01
vn -8.0616461137013273e-01 8.8683627831916245e-02 -5.8500754997607762e-01
vn -8.5251329308228641e-01 2.9486449453016739e-01 -4.3159705163898504e-01
vn -8.8866746545835351e-01 8.8654211175428349e-02 -4.4990061866671011e-01
vn -9.0890013605289777e-01 2.9479286305563468e-01 -2.9495374310980665e-01
vn -9.4742568098695057e-01 8.8630809695887242e-02 -3.0745594575331348e-01
vn -9.4343297651146252e-01 2.9483986483370939e-01 -1.5166961770757545e-01
vn -9.8343584012761731e-01 8.8646164666868491e-02 -1.5810061936103231e-01
vn -9.5551357592346675e-01 2.9494314461989979e-01 -1.5322100620416923e-03
vn -9.9605889530267788e-01 8.8679907286792301e-02 -1.5972263505463480e-03
vn -9.5250244731396816e-01 2.9495262990936466e-01 7.5776209792060331e-02
vn -9.9292276293180770e-01 8.8683006387160104e-02 7.8991842806709900e-02
vn -9.4341781041984318e-01 2.9491596786392832e-01 1.5161598491422704e-01
vn -9.8344201698828360e-01 8.8671028049761152e-02 1.5804824581948063e-01
vn -9.0837875545343205e-01 2.9482456166381843e-01 2.9652405379768310e-01
vn -9.4689101556877964e-01 8.8641165217473186e-02 3.0909569467078241e-01
vn -8.5202141997819925e-01 2.9482605903394815e-01 4.3259345211508221e-01
vn -8.8814470573086068e-01 8.8641654395905350e-02 4.5093418454160211e-01
vn -7.7428578959736172e-01 2.9491841362954668e-01 5.5991485542877117e-01
vn -8.0713520289844864e-01 8.8671827125852101e-02 5.8366948808057717e-01
vn -7.2703098644592479e-01 2.9495349906505297e-01 6.2002288517178727e-01
vn -7.5788340723668546e-01 8.8683290365103931e-02 6.4633429047616775e-01
vn -6.7441087556124490e-01 2.9494013832222571e-01 6.7689015780345152e-01
vn -7.0302753954711705e-01 8.8678925053517668e-02 7.0561202292030112e-01
vn -5.5962330626446755e-01 2.9482425455637923e-01 7.7453238409436509e-01
vn -5.8334943417287011e-01 8.8641064888092772e-02 8.0736992714969091e-01
vn -4.3398594785767297e-01 2.9476619253515268e-01 8.5133371177253780e-01
vn -4.5237776482814590e-01 8.8622097008952905e-02 8.8741223893454746e-01
vn -2.9781882803021159e-01 2.9483773681908593e-01 9.0795079966819281e-01
vn -3.1044656438398238e-01 8.8645469453834072e-02 9.4644857832187113e-01
vn -1.5074685291789930e-01 2.9494824232656136e-01 9.4354698912339352e-01
vn -1.5714373138202836e-01 8.8681572842080919e-02 9.8358600352261405e-01
vn -7.3662929973770233e-02 2.9494764910838656e-01 9.5266975234501672e-01
vn -7.6788771630920488e-02 8.8681379021664009e-02 9.9309571420192433e-01
vn 2.5966468097078687e-03 2.9490032384799547e-01 9.5552449284133634e-01
vn 2.7067963002331543e-03 8.8665916906093767e-02 9.9605774352343179e-01
vn 1.5098936357586926e-01 2.9479390916263459e-01 9.4355644410261241e-01
vn 1.5738939722815073e-01 8.8631151440776920e-02 9.8355126792376280e-01
vn 2.9389899101898087e-01 2.9479219154122149e-01 9.0924196278237668e-01
vn 3.0635642547786129e-01 8.8630590324021680e-02 9.4778180982082738e-01
vn 4.3146236811350847e-01 2.9489727095701823e-01 8.5257012877767790e-01
vn 4.4976455398233989e-01 8.8664919487280835e-02 8.8873526881371201e-01
vn 4.9804703259131022e-01 2.9494603602638247e-01 8.1544833629072677e-01
vn 5.1918110958888142e-01 8.8680851984672751e-02 8.5005098784562960e-01
vn 5.6261918183225557e-01 2.9494946601437322e-01 7.7231112171989302e-01
vn 5.8649389794874029e-01 8.8681972654294616e-02 8.0508410454749113e-01
vn 6.7770052394214830e-01 2.9483510103715327e-01 6.7364253357767534e-01
vn 7.0643497542581313e-01 8.8644608357255919e-02 7.0220492657366007e-01
vn 7.7332187855664047e-01 2.9475291639290813e-01 5.6133233509526581e-01
vn 8.0609121311424436e-01 8.8617760054375730e-02 5.8511866210449226e-01
vn 8.5026902813490757e-01 2.9480457430259072e-01 4.3604224883007375e-01
vn 8.8631242489601925e-01 8.8634635573734175e-02 4.5452633240731999e-01
vn 9.0807030518514975e-01 2.9492937083804421e-01 2.9736339226277453e-01
vn 9.4659863258876098e-01 8.8675407066218043e-02 3.0998016220837132e-01
vn 9.4375954794238037e-01 2.9495390841105651e-01 1.4939915522062344e-01
vn 9.8380922020998951e-01 8.8683424110190145e-02 1.5573910401021548e-01
vn 1.0000000000000000e+00 -0.0000000000000000e+00 -0.0000000000000000e+00
vn 9.8770089725429489e-01 -0.0000000000000000e+00 1.5635516481095463e-01
vn 9.5034243384648776e-01 -0.0000000000000000e+00 3.1120613495034793e-01
vn 8.8981455216183458e-01 -0.0000000000000000e+00 4.5632232332095468e-01
vn 8.0927513865106393e-01 -0.0000000000000000e+00 5.8742978300500015e-01
vn 7.0922697651811639e-01 -0.0000000000000000e+00 7.0498020949454410e-01
vn 5.8881382912736135e-01 -0.0000000000000000e+00 8.0826868962516074e-01
vn 9.8769247475777988e-01 -0.0000000000000000e+00 -1.5640836073193867e-01
vn 9.5098136979475489e-01 -0.0000000000000000e+00 -3.0924817590940074e-01
vn 8.9073323418421346e-01 -0.0000000000000000e+00 -4.5452646294768256e-01
vn 8.0944420266336126e-01 -0.0000000000000000e+00 -5.8719680071903946e-01
vn 7.0701902850483533e-01 -0.0000000000000000e+00 -7.0719452297941243e-01
vn 5.8689949067780678e-01 -0.0000000000000000e+00 -8.0965979759534257e-01
vn 4.5450222535771656e-01 -0.0000000000000000e+00 -8.9074560181057494e-01
vn 3.0999771712734786e-01 -0.0000000000000000e+00 -9.5073730092798647e-01
vn 1.5504016290249650e-01 -0.0000000000000000e+00 -9.8790816773988022e-01
vn -4.8815065066981460e-04 0.0000000000000000e+00 -9.9999988085446412e-01
vn -1.5511060341476551e-01 0.0000000000000000e+00 -9.8789711038564498e-01
vn -3.0880212590309403e-01 0.0000000000000000e+00 -9.5112630446104773e-01
vn -4.5550413042646820e-01 0.0000000000000000e+00 -8.9023366997908315e-01
vn -5.8774290557275666e-01 0.0000000000000000e+00 -8.0904775937449691e-01
vn -7.0589104364525990e-01 0.0000000000000000e+00 -7.0832043207958206e-01
vn -8.0935359023639830e-01 0.0000000000000000e+00 -5.8732168866086676e-01
vn -8.9218045873723262e-01 0.0000000000000000e+00 -4.5167912177498432e-01
vn -9.5116896279393826e-01 0.0000000000000000e+00 -3.0867070514952255e-01
vn -9.8732275261282865e-01 0.0000000000000000e+00 -1.5872549314154699e-01
vn -9.9999871432244225e-01 0.0000000000000000e+00 -1.6035440319451257e-03
vn -9.8733114755336981e-01 -0.0000000000000000e+00 1.5867326514238600e-01
vn -9.5063306437939710e-01 -0.0000000000000000e+00 3.1031721980682442e-01
vn -8.9165463209524676e-01 -0.0000000000000000e+00 4.5271626551637190e-01
vn -8.1032716647761316e-01 -0.0000000000000000e+00 5.8597771567557322e-01
vn -7.0580823812133309e-01 -0.0000000000000000e+00 7.0840294395214065e-01
vn -5.8565478616119504e-01 -0.0000000000000000e+00 8.1056059085455479e-01
vn -4.5416475731045836e-01 -0.0000000000000000e+00 8.9091771405508180e-01
vn -3.1167354792340074e-01 -0.0000000000000000e+00 9.5018924405869787e-01
vn -1.5776532239352151e-01 -0.0000000000000000e+00 9.8747663417929443e-01
vn 2.7174993851874548e-03 -0.0000000000000000e+00 9.9999630759172886e-01
vn 1.5801124804916111e-01 -0.0000000000000000e+00 9.8743731218237163e-01
vn 3.0756683463865325e-01 -0.0000000000000000e+00 9.5152648004685580e-01
vn 4.5154295130154298e-01 -0.0000000000000000e+00 8.9224938393360198e-01
vn 8.4342074628533337e-01 5.2039898845886889e-01 1.3351530828514555e-01
vn 8.1153951114261269e-01 5.2036441119322685e-01 2.6575270726360517e-01
vn 7.5994741768272001e-01 5.2018852653151559e-01 3.8972274660627149e-01
vn 6.9119850383756065e-01 5.2011570820222974e-01 5.0172131544714227e-01
vn 6.0569774691958245e-01 5.2023155418859968e-01 6.0207090064464619e-01
vn 5.0280405656862748e-01 5.2039272855819818e-01 6.9020249837412651e-01
vn 4.4509796809583624e-01 5.2038789523088758e-01 7.2875526570593285e-01
vn 3.8560497891786422e-01 5.2031917483362422e-01 7.6195587571342338e-01
vn 2.6268117398442581e-01 5.2017107217160441e-01 8.1266269540936065e-01
vn 1.3495118394196448e-01 5.2017349330439844e-01 8.4333131971732256e-01
vn 2.3206609104404917e-03 5.2032347721035299e-01 8.5396609628056430e-01
vn -6.5831502266108205e-02 5.2039016829068674e-01 8.5138727149034710e-01
vn -1.3472024225240398e-01 5.2039100421677942e-01 8.4323404761531384e-01
vn -2.6617637479320061e-01 5.2023526921652286e-01 8.1148345772736585e-01
vn -3.8789503939123088e-01 5.2013442333185411e-01 7.6091893134611599e-01
vn -5.0016942987416035e-01 5.2021626630208218e-01 6.9224676069598079e-01
vn -6.0271440073425153e-01 5.2037958447095045e-01 6.0493011101563876e-01
vn -6.4973455350301978e-01 5.2039841164078704e-01 5.5410333255267241e-01
vn -6.9198189504801433e-01 5.2034897021716153e-01 5.0039784783679719e-01
vn -7.6150249343495158e-01 5.2021880969880008e-01 3.8663463699973272e-01
vn -8.1187324387778970e-01 5.2021669916822688e-01 2.6502154965562619e-01
vn -8.4313717600843929e-01 5.2034552357958419e-01 1.3549995765018708e-01
vn -8.5123485933503917e-01 5.2039718689358816e-01 6.7719879844074446e-02
vn -8.5393138132015767e-01 5.2038382081301948e-01 -1.3693183307066767e-03
vn -8.4319452375590720e-01 5.2023826855235711e-01 -1.3555492997930546e-01
vn -8.1235680512152608e-01 5.2017201872903707e-01 -2.6362376999069159e-01
vn -7.6192212440720153e-01 5.2027298199225802e-01 -3.8573397639785423e-01
vn -6.9112540339714335e-01 5.2039986707207841e-01 -5.0152732241673448e-01
vn -6.0280439899199056e-01 5.2033474366364341e-01 -6.0487900533279848e-01
vn -5.0193300383841455e-01 5.2027143436479684e-01 -6.9092756077735318e-01
vn -3.8898466020576627e-01 5.2033017960893913e-01 -7.6022854347408819e-01
vn -2.6369287554337256e-01 5.2040130026134990e-01 -8.1218751164614933e-01
vn -1.3245907871303103e-01 5.2032989847805922e-01 -8.4362988876420653e-01
vn -4.1687287940738967e-04 5.2029915267548488e-01 -8.5398396819974021e-01
vn 1.3239509418280893e-01 5.2037044752209127e-01 -8.4361492185829889e-01
vn 2.6471652698530951e-01 5.2038695532455748e-01 -8.1186364438178471e-01
vn 3.8813105760624556e-01 5.2032299575367480e-01 -7.6066961436051772e-01
vn 5.0118741469882677e-01 5.2034222092414051e-01 -6.9141532270498540e-01
vn 6.0373886529690024e-01 5.2040156779183044e-01 -6.0388872383065428e-01
vn 6.9122114487796216e-01 5.2036263494255841e-01 -5.0143400067131161e-01
vn 7.6064023524509383e-01 5.2035766661998462e-01 -3.8814215349030728e-01
vn 8.1206391454088211e-01 5.2040101423025875e-01 -2.6407382128612672e-01
vn 6.9841458102319387e-01 7.0710214534924520e-01 1.1056052214371798e-01
vn 6.7202860061654801e-01 7.0706992813404768e-01 2.2006743666857401e-01
vn 6.2937249590778443e-01 7.0690601712656087e-01 3.2276019634562819e-01
vn 5.7246125985465612e-01 7.0683814074264117e-01 4.1553333050082286e-01
vn 5.0161312355781040e-01 7.0694612042689531e-01 4.9860952366349615e-01
vn 4.1636041523423323e-01 7.0709631286395247e-01 5.7154073254684168e-01
vn 3.6857641333561303e-01 7.0709180950272754e-01 6.0346714945124713e-01
vn 3.1932475297322771e-01 7.0702777630732361e-01 6.3098607406860285e-01
vn 2.1754932612198274e-01 7.0688974815367234e-01 6.7303727583181361e-01
vn 1.1176475176515188e-01 7.0689200488955128e-01 6.9843563317323987e-01
vn 1.9217660223461246e-03 7.0703178546645562e-01 7.0717915774962659e-01
vn -5.4513629401702700e-02 7.0709392738809285e-01 7.0501520697098186e-01
vn -1.1155883427489506e-01 7.0709470624601256e-01 6.9826334780947197e-01
vn -2.2043546293672714e-01 7.0694958281789377e-01 6.7203459288453060e-01
vn -3.2125702288937724e-01 7.0685558659161352e-01 6.3019767132898874e-01
vn -4.1422288183797601e-01 7.0693187193322726e-01 5.7329462984300261e-01
vn -4.9909782343145864e-01 7.0708406601735652e-01 5.0093261645688736e-01
vn -5.3802831628647119e-01 7.0710160791809040e-01 4.5883858485702339e-01
vn -5.7302935317200854e-01 7.0705554042059771e-01 4.1437884014969462e-01
vn -6.3064884427629175e-01 7.0693424243684866e-01 3.2019683334351751e-01
vn -6.7236493630721994e-01 7.0693227537510095e-01 2.1948154924177685e-01
vn -6.9820230807883565e-01 7.0705232883075009e-01 1.1220758124297762e-01
vn -7.0488600987812133e-01 7.0710046679859773e-01 5.6077115932493413e-02
vn -7.0712463952909654e-01 7.0708801321042514e-01 -1.1339069533961347e-03
vn -6.9829502592326309e-01 7.0695237816976197e-01 -1.1226037489224412e-01
vn -6.7278355669889123e-01 7.0689063044026290e-01 -2.1832984777935727e-01
vn -6.3097572561576587e-01 7.0698472965342241e-01 -3.1944048854291279e-01
vn -5.7230250149754203e-01 7.0710296396695294e-01 -4.1530139071378752e-01
vn -4.9918586762026040e-01 7.0704228393499435e-01 -5.0090386133088916e-01
vn -4.1566956406391936e-01 7.0698328737225291e-01 -5.7218305190492480e-01
vn -3.2212137242442396e-01 7.0703803101773277e-01 -6.2955146264779116e-01
vn -2.1835684368342986e-01 7.0710429928905916e-01 -6.7255022023900835e-01
vn -1.0969046297790802e-01 7.0703776905075388e-01 -6.9861691610454502e-01
vn -3.4522230294901658e-04 7.0700911829770197e-01 -7.0720434632817941e-01
vn 1.0963479201558554e-01 7.0707555260234689e-01 -6.9858741420940662e-01
vn 2.1920640048959283e-01 7.0709093375825061e-01 -6.7228785901671739e-01
vn 3.2141589158745587e-01 7.0703133682379282e-01 -6.2991944991736937e-01
vn 4.1503437119753900e-01 7.0704925138513708e-01 -5.7256250911178297e-01
vn 4.9993952799487790e-01 7.0710454855049998e-01 -5.0006362171972907e-01
vn 5.7239465317308691e-01 7.0706827306581499e-01 -4.1523345029343167e-01
vn 6.2988193179347229e-01 7.0706364367235652e-01 -3.2141835012471581e-01
vn 6.7244798902745773e-01 7.0710403279025313e-01 -2.1867233218834198e-01
vn 5.1400921398630417e-01 8.5391665468310796e-01 8.1368758083134138e-02
vn 4.9460036496516890e-01 8.5389558052934789e-01 1.6196547943549452e-01
vn 4.6325549451025744e-01 8.5378834144743831e-01 2.3757065225841636e-01
vn 4.2138398787184833e-01 8.5374392318768189e-01 3.0587063995310743e-01
vn 3.6920741945287128e-01 8.5381458226490903e-01 3.6699664921188402e-01
vn 3.0642816560024883e-01 8.5391283959423558e-01 4.2063599667999874e-01
vn 2.7126143548853782e-01 8.5390989386956229e-01 4.4413413150575448e-01
vn 2.3502341219705447e-01 8.5386800588300060e-01 4.6440652907624119e-01
vn 1.6013089879742989e-01 8.5377769557677752e-01 4.9540058718771685e-01
vn 8.2266234941302349e-02 8.5377917232923173e-01 5.1409473006965800e-01
vn 1.4144184879145687e-03 8.5387062866958086e-01 5.2048338005718831e-01
vn -4.0120378107014541e-02 8.5391127921739007e-01 5.1886981265619103e-01
vn -8.2103877539142431e-02 8.5391178868126416e-01 5.1390038961281370e-01
vn -1.6224899618145205e-01 8.5381684771741262e-01 4.9464336020208716e-01
vn -2.3647195732168549e-01 8.5375534029925826e-01 4.6387803602989064e-01
vn -3.0488750511587198e-01 8.5380525927355544e-01 4.2197178633296767e-01
vn -3.6732321086730352e-01 8.5390482866460538e-01 3.6867357152555064e-01
vn -3.9597055361328709e-01 8.5391630314565159e-01 3.3768960287999800e-01
vn -4.2174272081516379e-01 8.5388616870948186e-01 3.0497784891048246e-01
vn -4.6418646994208324e-01 8.5380681034558681e-01 2.3567955305923888e-01
vn -4.9489205772433559e-01 8.5380552325483461e-01 1.6154869130052082e-01
vn -5.1386958184026876e-01 8.5388406779032389e-01 8.2583603900271488e-02
vn -5.1877252846184785e-01 8.5391555673018671e-01 4.1270881835459350e-02
vn -5.2042428617362979e-01 8.5390741063057218e-01 -8.3452433110342799e-04
vn -5.1397111968642506e-01 8.5381867671313039e-01 -8.2627812654828409e-02
vn -4.9521354967318826e-01 8.5377827292419572e-01 -1.6070532319328620e-01
vn -4.6441187099077669e-01 8.5383984353077635e-01 -2.3511515408876887e-01
vn -4.2119481873983489e-01 8.5391719014594225e-01 -3.0564743911895692e-01
vn -3.6739795948096066e-01 8.5387749665687596e-01 -3.6866239308100457e-01
vn -3.0594213469393394e-01 8.5383889990837125e-01 -4.2113957688892301e-01
vn -2.3708015163806417e-01 8.5387471446018681e-01 -4.6334757332353321e-01
vn -1.6070293480719902e-01 8.5391806358644162e-01 -4.9497323909998908e-01
vn -8.0731793163237864e-02 8.5387454308444388e-01 -5.1417958170757849e-01
vn -2.5408711391750521e-04 8.5385579956890711e-01 -5.2050956665779047e-01
vn 8.0688843296999727e-02 8.5389925974164704e-01 -5.1414527594840309e-01
vn 1.6132957636085468e-01 8.5390932102730255e-01 -4.9478443715816134e-01
vn 2.3656194682086551e-01 8.5387033516916444e-01 -4.6362042236556039e-01
vn 3.0546155713723894e-01 8.5388205461178146e-01 -4.2140084708416975e-01
vn 3.6793779868953369e-01 8.5391822662928063e-01 -3.6802912727908482e-01
vn 4.2127211227469974e-01 8.5389449786868377e-01 -3.0560430940875383e-01
vn 4.6358310074354281e-01 8.5389146953870410e-01 -2.3655880231780499e-01
vn 4.9489808602727581e-01 8.5391788926849133e-01 -1.6093515101985575e-01
vn 1.8115696921367708e-01 9.8303598685368210e-01 2.8677535736576193e-02
vn 1.7432029874396718e-01 9.8303297324789152e-01 5.7084209315924027e-02
vn 1.6329086038382951e-01 9.8301763502234762e-01 8.3740218235798539e-02
vn 1.4853852754965280e-01 9.8301128047081365e-01 1.0781988824197765e-01
vn 1.3013677166315540e-01 9.8302138867006850e-01 1.2935752810819198e-01
vn 1.0799770404470126e-01 9.8303544131013065e-01 1.4824917217060540e-01
vn 9.5603812002003311e-02 9.8303502007805477e-01 1.5653134009144715e-01
vn 8.2835584097873269e-02 9.8302902977597029e-01 1.6368320813351253e-01
vn 5.6444441739683160e-02 9.8301611208518391e-01 1.7462344738787039e-01
vn 2.8997930483288647e-02 9.8301632334389621e-01 1.8121265978715365e-01
vn 4.9851997862461331e-04 9.8302940487714729e-01 1.8344737835333708e-01
vn -1.4140069815832129e-02 9.8303521818018957e-01 1.8287104265856516e-01
vn -2.8936765023550647e-02 9.8303529103235276e-01 1.8111951914387658e-01
vn -5.7188751885045706e-02 9.8302171272009975e-01 1.7434953105377862e-01
vn -8.3355765764855733e-02 9.8301291390508660e-01 1.6351583229028807e-01
vn -1.0746657018806000e-01 9.8302005508683121e-01 1.4873636942287499e-01
vn -1.2946064952972661e-01 9.8303429575608547e-01 1.2993657526146440e-01
vn -1.3955557468854160e-01 9.8303593658539834e-01 1.1901507868761547e-01
vn -1.4864329259649797e-01 9.8303162729372062e-01 1.0748949393467096e-01
vn -1.6361591620356056e-01 9.8302027695857952e-01 8.3072059401144385e-02
vn -1.7443921696980647e-01 9.8302009284787684e-01 5.6942573179584226e-02
vn -1.8111381045793404e-01 9.8303132684268746e-01 2.9106667746638237e-02
vn -1.8283595359360882e-01 9.8303582985114379e-01 1.4545490792292070e-02
vn -1.8341963075158951e-01 9.8303466497743519e-01 -2.9412183238143363e-04
vn -1.8116174762023332e-01 9.8302197433775795e-01 -2.9124202448809495e-02
vn -1.7455741527570315e-01 9.8301619467847179e-01 -5.6646886693998352e-02
vn -1.6368981907605581e-01 9.8302500191039288e-01 -8.2870312838313184e-02
vn -1.4844546134920858e-01 9.8303606342236705e-01 -1.0772206373754910e-01
vn -1.2949062410106679e-01 9.8303038709678969e-01 -1.2993627789902329e-01
vn -1.0783458450107021e-01 9.8302486694459357e-01 -1.4843791077095442e-01
vn -8.3559920812371041e-02 9.8302998920568407e-01 -1.6330884837051229e-01
vn -5.6637923512236496e-02 9.8303618832001094e-01 -1.7444769437709912e-01
vn -2.8454273303331747e-02 9.8302996469656356e-01 -1.8122484056953256e-01
vn -8.9555835320402101e-05 9.8302728403452733e-01 -1.8345939829688002e-01
vn 2.8438414502411757e-02 9.8303349938964490e-01 -1.8120815560657905e-01
vn 5.6859286034142066e-02 9.8303493816244158e-01 -1.7438271687197721e-01
vn 8.3377651792394175e-02 9.8302936290195997e-01 -1.6340574914657294e-01
vn 1.0766043126173956e-01 9.8303103893756139e-01 -1.4852342584883779e-01
vn 1.2967547506047786e-01 9.8303621163428756e-01 -1.2970766277883372e-01
vn 1.4847615814808868e-01 9.8303281842204626e-01 -1.0770936991177750e-01
vn 1.6338905320724073e-01 9.8303238535310000e-01 -8.3374736215690748e-02
vn 1.7442123871390919e-01 9.8303616339343902e-01 -5.6719775618502916e-02
vn 1.5117250933296254e-15 1.0000000000000000e+00 -4.2811015124637221e-15
vn 4.1950057510362401e-15 1.0000000000000000e+00 -7.4407836796216768e-15
vn 5.4892091332351100e-15 1.0000000000000000e+00 -6.4734644564515365e-15
vn 3.3534934389858709e-15 1.0000000000000000e+00 -2.8137017205486670e-15
vn -2.9217224215145443e-15 1.0000000000000000e+00 1.5865129938723441e-15
vn -7.8971973114866568e-15 1.0000000000000000e+00 2.8747774403454534e-15
vn -8.8761727118523294e-15 1.0000000000000000e+00 1.6089961919238330e-15
vn -5.1773687143239764e-15 1.0000000000000000e+00 -8.7176530797004898e-17
vn 1.0656224784369907e-15 1.0000000000000000e+00 1.3375907425556064e-15
vn 4.0381093015803264e-15 1.0000000000000000e+00 7.2545012663393016e-15
vn 3.2240912657830443e-15 1.0000000000000000e+00 9.1129924513352316e-15
vn 1.0083667604959642e-15 1.0000000000000000e+00 5.7198217054079772e-15
vn -2.9323894786180793e-20 1.0000000000000000e+00 -2.6548123508896144e-15
vn 1.4969577142622516e-15 1.0000000000000000e+00 -8.2413636208492376e-15
vn 3.3888091037132461e-15 1.0000000000000000e+00 -8.6740194976152228e-15
vn 2.8057240234191770e-15 1.0000000000000000e+00 -4.6853132556047493e-15
vn 1.5435792486783906e-14 1.0000000000000000e+00 5.4791616211759567e-15
vn 5.1022176512130345e-15 1.0000000000000000e+00 3.1466348054663891e-15
vn 5.2422466297797350e-16 1.0000000000000000e+00 4.9664769770180138e-16
vn 9.8768834059513766e-01 3.4735428986516728e-17 -1.5643446504023106e-01
vn 9.8768834059513766e-01 3.4735428986516784e-17 -1.5643446504023131e-01
vn 1.0000000000000000e+00 -3.1873167887717690e-32 1.4354398702224265e-16
vn 1.0000000000000000e+00 2.1912802922805962e-32 -9.8686491077792044e-17
vn 9.8768834059513766e-01 -3.4735428986516790e-17 1.5643446504023134e-01
vn 9.8768834059513766e-01 -3.4735428986516734e-17 1.5643446504023109e-01
vn 9.5105651629515353e-01 -6.8615556431105903e-17 3.0901699437494778e-01
vn 9.5105651629515364e-01 -6.8615556431105854e-17 3.0901699437494756e-01
vn 8.9100652418836790e-01 -1.0080614115438522e-16 4.5399049973954692e-01
vn 8.9100652418836801e-01 -1.0080614115438519e-16 4.5399049973954675e-01
vn 8.0901699437494745e-01 -1.3051454412604205e-16 5.8778525229247314e-01
vn 8.0901699437494756e-01 -1.3051454412604200e-16 5.8778525229247292e-01
vn 7.0710678118654746e-01 -1.5700924586837752e-16 7.0710678118654757e-01
vn 7.0710678118654757e-01 -1.5700924586837752e-16 7.0710678118654757e-01
vn 5.8778525229247347e-01 -1.7963785889362141e-16 8.0901699437494712e-01
vn 5.8778525229247358e-01 -1.7963785889362141e-16 8.0901699437494712e-01
vn 4.5399049973954742e-01 -1.9784319164903145e-16 8.9100652418836768e-01
vn 4.5399049973954630e-01 -1.9784319164903158e-16 8.9100652418836823e-01
vn 3.0901699437494762e-01 -2.1117696842213394e-16 9.5105651629515342e-01
vn 3.0901699437494790e-01 -2.1117696842213397e-16 9.5105651629515353e-01
vn 1.5643446504023095e-01 -2.1931086737650713e-16 9.8768834059513777e-01
vn 1.5643446504023117e-01 -2.1931086737650710e-16 9.8768834059513766e-01
vn 6.1232339957367660e-17 -2.2204460492503131e-16 1.0000000000000000e+00
vn -1.5643446504023106e-01 -2.1931086737650710e-16 9.8768834059513766e-01
vn -3.0901699437494778e-01 -2.1117696842213397e-16 9.5105651629515353e-01
vn -4.5399049973954597e-01 -1.9784319164903163e-16 8.9100652418836845e-01
vn -4.5399049973954753e-01 -1.9784319164903143e-16 8.9100652418836757e-01
vn -5.8778525229247336e-01 -1.7963785889362143e-16 8.0901699437494723e-01
vn -5.8778525229247380e-01 -1.7963785889362136e-16 8.0901699437494690e-01
vn -7.0710678118654746e-01 -1.5700924586837752e-16 7.0710678118654757e-01
vn -8.0901699437494734e-01 -1.3051454412604208e-16 5.8778525229247325e-01
vn -8.0901699437494767e-01 -1.3051454412604198e-16 5.8778525229247280e-01
vn -8.9100652418836790e-01 -1.0080614115438521e-16 4.5399049973954686e-01
vn -9.5105651629515353e-01 -6.8615556431105940e-17 3.0901699437494795e-01
vn -9.5105651629515364e-01 -6.8615556431105841e-17 3.0901699437494751e-01
vn -9.8768834059513766e-01 -3.4735428986516808e-17 1.5643446504023142e-01
vn -9.8768834059513766e-01 -3.4735428986516716e-17 1.5643446504023101e-01
vn -1.0000000000000000e+00 -2.7192621468937821e-32 1.2246467991473532e-16
vn -1.0000000000000000e+00 2.7192621468937821e-32 -1.2246467991473532e-16
vn -9.8768834059513777e-01 3.4735428986516617e-17 -1.5643446504023056e-01
vn -9.8768834059513766e-01 3.4735428986516808e-17 -1.5643446504023142e-01
vn -9.5105651629515364e-01 6.8615556431105841e-17 -3.0901699437494751e-01
vn -9.5105651629515353e-01 6.8615556431105940e-17 -3.0901699437494795e-01
vn -8.9100652418836812e-01 1.0080614115438514e-16 -4.5399049973954653e-01
vn -8.9100652418836790e-01 1.0080614115438521e-16 -4.5399049973954686e-01
vn -8.0901699437494767e-01 1.3051454412604198e-16 -5.8778525229247280e-01
vn -8.0901699437494734e-01 1.3051454412604208e-16 -5.8778525229247325e-01
vn -7.0710678118654779e-01 1.5700924586837744e-16 -7.0710678118654724e-01
vn -5.8778525229247380e-01 1.7963785889362136e-16 -8.0901699437494690e-01
vn -5.8778525229247336e-01 1.7963785889362143e-16 -8.0901699437494723e-01
vn -4.5399049973954753e-01 1.9784319164903143e-16 -8.9100652418836757e-01
vn -3.0901699437494778e-01 2.1117696842213397e-16 -9.5105651629515353e-01
vn -1.5643446504023106e-01 2.1931086737650710e-16 -9.8768834059513766e-01
vn 6.1232339957367660e-17 2.2204460492503131e-16 -1.0000000000000000e+00
vn 1.5643446504023117e-01 2.1931086737650710e-16 -9.8768834059513766e-01
vn 1.5643446504023095e-01 2.1931086737650713e-16 -9.8768834059513777e-01
vn 3.0901699437494790e-01 2.1117696842213397e-16 -9.5105651629515353e-01
vn 3.0901699437494762e-01 2.1117696842213394e-16 -9.5105651629515342e-01
vn 4.5399049973954630e-01 1.9784319164903158e-16 -8.9100652418836823e-01
vn 4.5399049973954608e-01 1.9784319164903160e-16 -8.9100652418836834e-01
vn 5.8778525229247258e-01 1.7963785889362158e-16 -8.0901699437494790e-01
vn 5.8778525229247347e-01 1.7963785889362141e-16 -8.0901699437494712e-01
vn 7.0710678118654779e-01 1.5700924586837744e-16 -7.0710678118654724e-01
vn 7.0710678118654768e-01 1.5700924586837747e-16 -7.0710678118654735e-01
vn 8.0901699437494734e-01 1.3051454412604208e-16 -5.8778525229247325e-01
vn 8.0901699437494723e-01 1.3051454412604210e-16 -5.8778525229247336e-01
vn 8.9100652418836801e-01 1.0080614115438517e-16 -4.5399049973954669e-01
vn 8.9100652418836790e-01 1.0080614115438522e-16 -4.5399049973954692e-01
vn 9.5105651629515353e-01 6.8615556431105927e-17 -3.0901699437494790e-01
vn 9.5105651629515342e-01 6.8615556431105878e-17 -3.0901699437494767e-01
vn 0.0000000000000000e+00 1.0000000000000000e+00 2.2204460492503131e-16
vn 0.0000000000000000e+00 -1.0000000000000000e+00 -2.2204460492503131e-16

g face 0
f 81//1 1//1 91//2
f 91//2 1//1 2//3
f 91//2 2//3 90//4
f 90//4 2//3 3//5
f 90//4 3//5 4//6
f 90//4 4//6 89//7
f 89//7 4//6 5//8
f 89//7 5//8 88//9
f 88//9 5//8 6//10
f 88//9 6//10 87//11
f 87//11 6//10 86//12
f 87//11 86//12 93//13
f 93//13 86//12 92//14
f 93//13 92//14 99//15
f 99//15 92//14 98//16
f 99//15 98//16 105//17
f 105//17 98//16 104//18
f 105//17 104//18 111//19
f 111//19 104//18 110//20
f 111//19 110//20 117//21
f 117//21 110//20 116//22
f 117//21 116//22 123//23
f 123//23 116//22 122//24
f 123//23 122//24 129//25
f 129//25 122//24 128//26
f 129//25 128//26 135//27
f 135//27 128//26 134//28
f 135//27 134//28 141//29
f 141//29 134//28 140//30
f 141//29 140//30 147//31
f 147//31 140//30 146//32
f 147//31 146//32 153//33
f 153//33 146//32 152//34
f 153//33 152//34 159//35
f 159//35 152//34 158//36
f 159//35 158//36 165//37
f 165//37 158//36 164//38
f 165//37 164//38 171//39
f 171//39 164//38 170//40
f 171//39 170//40 177//41
f 177//41 170//40 176//42
f 177//41 176//42 183//43
f 183//43 176//42 182//44
f 183//43 182//44 189//45
f 189//45 182//44 188//46
f 189//45 188//46 195//47
f 195//47 188//46 194//48
f 195//47 194//48 201//49
f 201//49 194//48 200//50
f 201//49 200//50 207//51
f 207//51 200//50 206//52
f 207//51 206//52 221//53
f 221//53 206//52 222//54
f 221//53 222//54 212//55
f 212//55 222//54 211//56
f 212//55 211//56 224//57
f 224//57 211//56 223//58
f 224//57 223//58 230//59
f 230//59 223//58 229//60
f 230//59 229//60 236//61
f 236//61 229//60 235//62
f 236//61 235//62 250//63
f 250//63 235//62 251//64
f 250//63 251//64 242//65
f 242//65 251//64 241//66
f 242//65 241//66 253//67
f 253//67 241//66 252//68
f 253//67 252//68 259//69
f 259//69 252//68 258//70
f 259//69 258//70 265//71
f 265//71 258//70 264//72
f 265//71 264//72 271//73
f 271//73 264//72 270//74
f 271//73 270//74 285//75
f 285//75 270//74 286//76
f 285//75 286//76 276//77
f 276//77 286//76 275//78
f 276//77 275//78 288//79
f 288//79 275//78 287//80
f 288//79 287//80 294//81
f 294//81 287//80 293//82
f 294//81 293//82 300//83
f 300//83 293//82 299//84
f 300//83 299//84 314//85
f 314//85 299//84 315//86
f 314//85 315//86 306//87
f 306//87 315//86 305//88
f 306//87 305//88 317//89
f 317//89 305//88 316//90
f 317//89 316//90 323//91
f 323//91 316//90 322//92
f 323//91 322//92 329//93
f 329//93 322//92 328//94
f 329//93 328//94 335//95
f 335//95 328//94 334//96
f 335//95 334//96 6//10
f 6//10 334//96 7//97
f 7//97 334//96 46//98
f 46//98 334//96 45//99
f 45//99 334//96 328//94
f 45//99 328//94 44//100
f 44//100 328//94 322//92
f 44//100 322//92 43//101
f 43//101 322//92 316//90
f 43//101 316//90 42//102
f 42//102 316//90 305//88
f 42//102 305//88 41//103
f 41//103 305//88 315//86
f 41//103 315//86 299//84
f 6//10 7//97 86//12
f 86//12 7//97 8//104
f 86//12 8//104 92//14
f 92//14 8//104 9//105
f 92//14 9//105 98//16
f 98//16 9//105 10//106
f 98//16 10//106 104//18
f 104//18 10//106 11//107
f 104//18 11//107 110//20
f 110//20 11//107 12//108
f 110//20 12//108 116//22
f 116//22 12//108 13//109
f 116//22 13//109 122//24
f 122//24 13//109 14//110
f 122//24 14//110 128//26
f 128//26 14//110 15//111
f 128//26 15//111 134//28
f 134//28 15//111 16//112
f 134//28 16//112 140//30
f 140//30 16//112 17//113
f 140//30 17//113 146//32
f 146//32 17//113 18//114
f 146//32 18//114 152//34
f 152//34 18//114 19//115
f 152//34 19//115 158//36
f 158//36 19//115 20//116
f 158//36 20//116 164//38
f 164//38 20//116 21//117
f 164//38 21//117 170//40
f 170//40 21//117 22//118
f 170//40 22//118 176//42
f 176//42 22//118 23//119
f 176//42 23//119 182//44
f 182//44 23//119 24//120
f 182//44 24//120 188//46
f 188//46 24//120 25//121
f 188//46 25//121 194//48
f 194//48 25//121 26//122
f 194//48 26//122 200//50
f 200//50 26//122 27//123
f 200//50 27//123 206//52
f 206//52 27//123 28//124
f 206//52 28//124 222//54
f 222//54 28//124 211//56
f 28//124 29//125 211//56
f 211//56 29//125 223//58
f 29//125 30//126 223//58
f 223//58 30//126 229//60
f 30//126 31//127 229//60
f 229//60 31//127 235//62
f 31//127 32//128 235//62
f 235//62 32//128 251//64
f 251//64 32//128 241//66
f 241//66 32//128 33//129
f 241//66 33//129 252//68
f 252//68 33//129 34//130
f 252//68 34//130 258//70
f 258//70 34//130 35//131
f 258//70 35//131 264//72
f 264//72 35//131 36//132
f 264//72 36//132 270//74
f 270//74 36//132 37//133
f 270//74 37//133 286//76
f 286//76 37//133 275//78
f 37//133 38//134 275//78
f 275//78 38//134 287//80
f 38//134 39//135 287//80
f 287//80 39//135 293//82
f 39//135 40//136 293//82
f 293//82 40//136 299//84
f 40//136 41//103 299//84
f 6//10 5//8 335//95
f 335//95 5//8 336//137
f 335//95 336//137 329//93
f 329//93 336//137 330//138
f 329//93 330//138 323//91
f 323//91 330//138 324//139
f 323//91 324//139 317//89
f 317//89 324//139 318//140
f 317//89 318//140 306//87
f 306//87 318//140 307//141
f 306//87 307//141 314//85
f 314//85 307//141 313//142
f 314//85 313//142 300//83
f 300//83 313//142 301//143
f 300//83 301//143 294//81
f 294//81 301//143 295//144
f 294//81 295//144 288//79
f 288//79 295//144 289//145
f 288//79 289//145 276//77
f 276//77 289//145 277//146
f 276//77 277//146 285//75
f 285//75 277//146 284//147
f 285//75 284//147 271//73
f 271//73 284//147 272//148
f 271//73 272//148 265//71
f 265//71 272//148 266//149
f 265//71 266//149 259//69
f 259//69 266//149 260//150
f 259//69 260//150 253//67
f 253//67 260//150 254//151
f 253//67 254//151 242//65
f 242//65 254//151 243//152
f 242//65 243//152 250//63
f 250//63 243//152 249//153
f 250//63 249//153 236//61
f 236//61 249//153 237//154
f 236//61 237//154 230//59
f 230//59 237//154 231//155
f 230//59 231//155 224//57
f 224//57 231//155 225//156
f 224//57 225//156 212//55
f 212//55 225//156 213//157
f 212//55 213//157 221//53
f 221//53 213//157 220//158
f 221//53 220//158 207//51
f 207//51 220//158 208//159
f 207//51 208//159 201//49
f 201//49 208//159 202//160
f 201//49 202//160 195//47
f 195//47 202//160 196//161
f 195//47 196//161 189//45
f 189//45 196//161 190//162
f 189//45 190//162 183//43
f 183//43 190//162 184//163
f 183//43 184//163 177//41
f 177//41 184//163 178//164
f 177//41 178//164 171//39
f 171//39 178//164 172//165
f 171//39 172//165 165//37
f 165//37 172//165 166//166
f 165//37 166//166 159//35
f 159//35 166//166 160//167
f 159//35 160//167 153//33
f 153//33 160//167 154//168
f 153//33 154//168 147//31
f 147//31 154//168 148//169
f 147//31 148//169 141//29
f 141//29 148//169 142//170
f 141//29 142//170 135//27
f 135//27 142//170 136//171
f 135//27 136//171 129//25
f 129//25 136//171 130//172
f 129//25 130//172 123//23
f 123//23 130//172 124//173
f 123//23 124//173 117//21
f 117//21 124//173 118//174
f 117//21 118//174 111//19
f 111//19 118//174 112//175
f 111//19 112//175 105//17
f 105//17 112//175 106//176
f 105//17 106//176 99//15
f 99//15 106//176 100//177
f 99//15 100//177 93//13
f 93//13 100//177 94//178
f 93//13 94//178 87//11
f 87//11 94//178 88//9
f 5//8 4//6 336//137
f 336//137 4//6 337//179
f 336//137 337//179 330//138
f 330//138 337//179 331//180
f 330//138 331//180 324//139
f 324//139 331//180 325//181
f 324//139 325//181 318//140
f 318//140 325//181 319//182
f 318//140 319//182 307//141
f 307//141 319//182 308//183
f 307//141 308//183 313//142
f 313//142 308//183 312//184
f 313//142 312//184 301//143
f 301//143 312//184 302//185
f 301//143 302//185 295//144
f 295//144 302//185 296//186
f 295//144 296//186 289//145
f 289//145 296//186 290//187
f 289//145 290//187 277//146
f 277//146 290//187 278//188
f 277//146 278//188 284//147
f 284//147 278//188 283//189
f 284//147 283//189 272//148
f 272//148 283//189 273//190
f 272//148 273//190 266//149
f 266//149 273//190 267//191
f 266//149 267//191 260//150
f 260//150 267//191 261//192
f 260//150 261//192 254//151
f 254//151 261//192 255//193
f 254//151 255//193 243//152
f 243//152 255//193 244//194
f 243//152 244//194 249//153
f 249//153 244//194 248//195
f 249//153 248//195 237//154
f 237//154 248//195 238//196
f 237//154 238//196 231//155
f 231//155 238//196 232//197
f 231//155 232//197 225//156
f 225//156 232//197 226//198
f 225//156 226//198 213//157
f 213//157 226//198 214//199
f 213//157 214//199 220//158
f 220//158 214//199 219//200
f 220//158 219//200 208//159
f 208//159 219//200 209//201
f 208//159 209//201 202//160
f 202//160 209//201 203//202
f 202//160 203//202 196//161
f 196//161 203//202 197//203
f 196//161 197//203 190//162
f 190//162 197//203 191//204
f 190//162 191//204 184//163
f 184//163 191//204 185//205
f 184//163 185//205 178//164
f 178//164 185//205 179//206
f 178//164 179//206 172//165
f 172//165 179//206 173//207
f 172//165 173//207 166//166
f 166//166 173//207 167//208
f 166//166 167//208 160//167
f 160//167 167//208 161//209
f 160//167 161//209 154//168
f 154//168 161//209 155//210
f 154//168 155//210 148//169
f 148//169 155//210 149//211
f 148//169 149//211 142//170
f 142//170 149//211 143//212
f 142//170 143//212 136//171
f 136//171 143//212 137//213
f 136//171 137//213 130//172
f 130//172 137//213 131//214
f 130//172 131//214 124//173
f 124//173 131//214 125//215
f 124//173 125//215 118//174
f 118//174 125//215 119//216
f 118//174 119//216 112//175
f 112//175 119//216 113//217
f 112//175 113//217 106//176
f 106//176 113//217 107//218
f 106//176 107//218 100//177
f 100//177 107//218 101//219
f 100//177 101//219 94//178
f 94//178 101//219 95//220
f 94//178 95//220 88//9
f 88//9 95//220 89//7
f 4//6 3//5 337//179
f 337//179 3//5 338//221
f 337//179 338//221 331//180
f 331//180 338//221 332//222
f 331//180 332//222 325//181
f 325//181 332//222 326//223
f 325//181 326//223 319//182
f 319//182 326//223 320//224
f 319//182 320//224 308//183
f 308//183 320//224 309//225
f 308//183 309//225 312//184
f 312//184 309//225 311//226
f 312//184 311//226 302//185
f 302//185 311//226 303//227
f 302//185 303//227 296//186
f 296//186 303//227 297//228
f 296//186 297//228 290//187
f 290//187 297//228 291//229
f 290//187 291//229 278//188
f 278//188 291//229 279//230
f 278//188 279//230 283//189
f 283//189 279//230 282//231
f 283//189 282//231 273//190
f 273//190 282//231 274//232
f 273//190 274//232 267//191
f 267//191 274//232 268//233
f 267//191 268//233 261//192
f 261//192 268//233 262//234
f 261//192 262//234 255//193
f 255//193 262//234 256//235
f 255//193 256//235 244//194
f 244//194 256//235 245//236
f 244//194 245//236 248//195
f 248//195 245//236 247//237
f 248//195 247//237 238//196
f 238//196 247//237 239//238
f 238//196 239//238 232//197
f 232//197 239//238 233//239
f 232//197 233//239 226//198
f 226//198 233//239 227//240
f 226//198 227//240 214//199
f 214//199 227//240 215//241
f 214//199 215//241 219//200
f 219//200 215//241 218//242
f 219//200 218//242 209//201
f 209//201 218//242 210//243
f 209//201 210//243 203//202
f 203//202 210//243 204//244
f 203//202 204//244 197//203
f 197//203 204//244 198//245
f 197//203 198//245 191//204
f 191//204 198//245 192//246
f 191//204 192//246 185//205
f 185//205 192//246 186//247
f 185//205 186//247 179//206
f 179//206 186//247 180//248
f 179//206 180//248 173//207
f 173//207 180//248 174//249
f 173//207 174//249 167//208
f 167//208 174//249 168//250
f 167//208 168//250 161//209
f 161//209 168//250 162//251
f 161//209 162//251 155//210
f 155//210 162//251 156//252
f 155//210 156//252 149//211
f 149//211 156//252 150//253
f 149//211 150//253 143//212
f 143//212 150//253 144//254
f 143//212 144//254 137//213
f 137//213 144//254 138//255
f 137//213 138//255 131//214
f 131//214 138//255 132//256
f 131//214 132//256 125//215
f 125//215 132//256 126//257
f 125//215 126//257 119//216
f 119//216 126//257 120//258
f 119//216 120//258 113//217
f 113//217 120//258 114//259
f 113//217 114//259 107//218
f 107//218 114//259 108//260
f 107//218 108//260 101//219
f 101//219 108//260 102//261
f 101//219 102//261 95//220
f 95//220 102//261 96//262
f 95//220 96//262 89//7
f 89//7 96//262 90//4
f 3//5 2//3 338//221
f 338//221 2//3 339//263
f 338//221 339//263 332//222
f 332//222 339//263 333//264
f 332//222 333//264 326//223
f 326//223 333//264 327//265
f 326//223 327//265 320//224
f 320//224 327//265 321//266
f 320//224 321//266 309//225
f 309//225 321//266 310//267
f 309//225 310//267 311//226
f 311//226 310//267 85//268
f 311//226 85//268 303//227
f 303//227 85//268 304//269
f 303//227 304//269 297//228
f 297//228 304//269 298//270
f 297//228 298//270 291//229
f 291//229 298//270 292//271
f 291//229 292//271 279//230
f 279//230 292//271 280//272
f 279//230 280//272 282//231
f 282//231 280//272 281//273
f 282//231 281//273 274//232
f 274//232 281//273 84//274
f 274//232 84//274 268//233
f 268//233 84//274 269//275
f 268//233 269//275 262//234
f 262//234 269//275 263//276
f 262//234 263//276 256//235
f 256//235 263//276 257//277
f 256//235 257//277 245//236
f 245//236 257//277 246//278
f 245//236 246//278 247//237
f 247//237 246//278 83//279
f 247//237 83//279 239//238
f 239//238 83//279 240//280
f 239//238 240//280 233//239
f 233//239 240//280 234//281
f 233//239 234//281 227//240
f 227//240 234//281 228//282
f 227//240 228//282 215//241
f 215//241 228//282 216//283
f 215//241 216//283 218//242
f 218//242 216//283 217//284
f 218//242 217//284 210//243
f 210//243 217//284 82//285
f 210//243 82//285 204//244
f 204//244 82//285 205//286
f 204//244 205//286 198//245
f 198//245 205//286 199//287
f 198//245 199//287 192//246
f 192//246 199//287 193//288
f 192//246 193//288 186//247
f 186//247 193//288 187//289
f 186//247 187//289 180//248
f 180//248 187//289 181//290
f 180//248 181//290 174//249
f 174//249 181//290 175//291
f 174//249 175//291 168//250
f 168//250 175//291 169//292
f 168//250 169//292 162//251
f 162//251 169//292 163//293
f 162//251 163//293 156//252
f 156//252 163//293 157//294
f 156//252 157//294 150//253
f 150//253 157//294 151//295
f 150//253 151//295 144//254
f 144//254 151//295 145//296
f 144//254 145//296 138//255
f 138//255 145//296 139//297
f 138//255 139//297 132//256
f 132//256 139//297 133//298
f 132//256 133//298 126//257
f 126//257 133//298 127//299
f 126//257 127//299 120//258
f 120//258 127//299 121//300
f 120//258 121//300 114//259
f 114//259 121//300 115//301
f 114//259 115//301 108//260
f 108//260 115//301 109//302
f 108//260 109//302 102//261
f 102//261 109//302 103//303
f 102//261 103//303 96//262
f 96//262 103//303 97//304
f 96//262 97//304 90//4
f 90//4 97//304 91//2
f 2//3 1//1 339//263
f 339//263 1//1 47//1
f 339//263 47//1 333//264
f 333//264 47//1 48//305
f 333//264 48//305 327//265
f 327//265 48//305 49//306
f 327//265 49//306 321//266
f 321//266 49//306 50//307
f 321//266 50//307 310//267
f 310//267 50//307 51//308
f 310//267 51//308 85//268
f 85//268 51//308 52//309
f 85//268 52//309 304//269
f 304//269 52//309 298//270
f 52//309 53//310 298//270
f 298//270 53//310 292//271
f 53//310 54//311 292//271
f 292//271 54//311 280//272
f 54//311 55//312 280//272
f 280//272 55//312 281//273
f 281//273 55//312 84//274
f 84//274 55//312 56//1
f 84//274 56//1 269//275
f 269//275 56//1 263//276
f 56//1 57//1 263//276
f 263//276 57//1 257//277
f 57//1 58//1 257//277
f 257//277 58//1 246//278
f 58//1 59//1 246//278
f 246//278 59//1 83//279
f 59//1 60//313 83//279
f 83//279 60//313 240//280
f 240//280 60//313 234//281
f 234//281 60//313 61//314
f 234//281 61//314 228//282
f 228//282 61//314 62//315
f 228//282 62//315 216//283
f 216//283 62//315 63//316
f 216//283 63//316 217//284
f 217//284 63//316 82//285
f 63//316 64//317 82//285
f 82//285 64//317 205//286
f 205//286 64//317 199//287
f 199//287 64//317 65//318
f 199//287 65//318 193//288
f 193//288 65//318 66//319
f 193//288 66//319 187//289
f 187//289 66//319 67//320
f 187//289 67//320 181//290
f 181//290 67//320 68//1
f 181//290 68//1 175//291
f 175//291 68//1 69//1
f 175//291 69//1 169//292
f 169//292 69//1 70//1
f 169//292 70//1 163//293
f 163//293 70//1 71//1
f 163//293 71//1 157//294
f 157//294 71//1 72//1
f 157//294 72//1 151//295
f 151//295 72//1 73//1
f 151//295 73//1 145//296
f 145//296 73//1 139//297
f 73//1 74//1 139//297
f 139//297 74//1 133//298
f 74//1 75//321 133//298
f 133//298 75//321 127//299
f 75//321 76//322 127//299
f 127//299 76//322 121//300
f 76//322 77//323 121//300
f 121//300 77//323 115//301
f 77//323 78//1 115//301
f 115//301 78//1 109//302
f 78//1 79//1 109//302
f 109//302 79//1 103//303
f 79//1 80//1 103//303
f 103//303 80//1 97//304
f 80//1 81//1 97//304
f 97//304 81//1 91//2

g face 1
f 341//324 8//325 340//326
f 340//326 8//325 7//327
f 340//326 7//327 379//328
f 379//328 7//327 46//329
f 379//328 46//329 378//330
f 378//330 46//329 45//331
f 378//330 45//331 377//332
f 377//332 45//331 44//333
f 377//332 44//333 376//334
f 376//334 44//333 43//335
f 376//334 43//335 375//336
f 375//336 43//335 42//337
f 375//336 42//337 374//338
f 374//338 42//337 41//339
f 374//338 41//339 373//340
f 373//340 41//339 40//341
f 373//340 40//341 372//342
f 372//342 40//341 39//343
f 372//342 39//343 371//344
f 371//344 39//343 38//345
f 371//344 38//345 370//346
f 370//346 38//345 37//346
f 370//346 37//346 369//347
f 369//347 37//346 36//347
f 369//347 36//347 368//348
f 368//348 36//347 35//348
f 368//348 35//348 367//349
f 367//349 35//348 34//350
f 367//349 34//350 366//351
f 366//351 34//350 33//352
f 366//351 33//352 365//353
f 365//353 33//352 32//353
f 365//353 32//353 364//354
f 364//354 32//353 31//355
f 364//354 31//355 363//356
f 363//356 31//355 30//356
f 363//356 30//356 362//357
f 362//357 30//356 29//358
f 362//357 29//358 361//359
f 361//359 29//358 28//360
f 361//359 28//360 360//361
f 360//361 28//360 27//361
f 360//362 27//362 359//363
f 359//363 27//362 26//364
f 359//363 26//364 358//365
f 358//365 26//364 25//366
f 358//365 25//366 357//367
f 357//367 25//366 24//368
f 357//367 24//368 356//369
f 356//369 24//368 23//370
f 356//369 23//370 355//371
f 355//371 23//370 22//371
f 355//371 22//371 354//372
f 354//372 22//371 21//373
f 354//372 21//373 353//374
f 353//374 21//373 20//374
f 353//374 20//374 352//375
f 352//375 20//374 19//375
f 352//375 19//375 351//376
f 351//376 19//375 18//376
f 351//376 18//376 350//377
f 350//377 18//376 17//377
f 350//377 17//377 349//378
f 349//378 17//377 16//379
f 349//378 16//379 348//380
f 348//380 16//379 15//381
f 348//380 15//381 347//382
f 347//382 15//381 14//383
f 347//382 14//383 346//384
f 346//384 14//383 13//385
f 346//384 13//385 345//386
f 345//386 13//385 12//387
f 345//386 12//387 344//388
f 344//388 12//387 11//389
f 344//388 11//389 343//390
f 343//390 11//389 10//391
f 343//390 10//391 342//392
f 342//392 10//391 9//393
f 342//392 9//393 341//324
f 341//324 9//393 8//325

g face 2
f 81//394 65//394 1//394
f 1//394 65//394 64//394
f 1//394 64//394 47//394
f 47//394 64//394 63//394
f 47//394 63//394 48//394
f 48//394 63//394 62//394
f 48//394 62//394 49//394
f 49//394 62//394 61//394
f 49//394 61//394 50//394
f 50//394 61//394 60//394
f 50//394 60//394 51//394
f 51//394 60//394 59//394
f 51//394 59//394 52//394
f 52//394 59//394 58//394
f 52//394 58//394 53//394
f 53//394 58//394 57//394
f 53//394 57//394 54//394
f 54//394 57//394 56//394
f 54//394 56//394 55//394
f 65//394 81//394 66//394
f 66//394 81//394 80//394
f 66//394 80//394 67//394
f 67//394 80//394 79//394
f 67//394 79//394 68//394
f 68//394 79//394 78//394
f 68//394 78//394 69//394
f 69//394 78//394 77//394
f 69//394 77//394 70//394
f 70//394 77//394 76//394
f 70//394 76//394 71//394
f 71//394 76//394 75//394
f 71//394 75//394 72//394
f 72//394 75//394 74//394
f 72//394 74//394 73//394

g face 3
f 379//395 361//395 340//395
f 340//395 361//395 360//395
f 340//395 360//395 341//395
f 341//395 360//395 359//395
f 341//395 359//395 342//395
f 342//395 359//395 358//395
f 342//395 358//395 343//395
f 343//395 358//395 357//395
f 343//395 357//395 344//395
f 344//395 357//395 356//395
f 344//395 356//395 345//395
f 345//395 356//395 355//395
f 345//395 355//395 346//395
f 346//395 355//395 354//395
f 346//395 354//395 347//395
f 347//395 354//395 353//395
f 347//395 353//395 348//395
f 348//395 353//395 352//395
f 348//395 352//395 349//395
f 349//395 352//395 351//395
f 349//395 351//395 350//395
f 361//395 379//395 362//395
f 362//395 379//395 378//395
f 362//395 378//395 363//395
f 363//395 378//395 377//395
f 363//395 377//395 364//395
f 364//395 377//395 376//395
f 364//395 376//395 365//395
f 365//395 376//395 375//395
f 365//395 375//395 366//395
f 366//395 375//395 374//395
f 366//395 374//395 367//395
f 367//395 374//395 373//395
f 367//395 373//395 368//395
f 368//395 373//395 372//395
f 368//395 372//395 369//395
f 369//395 372//395 371//395
f 369//395 371//395 370//395

g halfedge 0 edge 0
l 1 2 3 4 5 6 7

g halfedge 1 edge 0
l 7 6 5 4 3 2 1

g halfedge 2 edge 1
l 7 46 45 44 43 42 41 40 39 38 37 36 35 34 33 32 31 30 29 28 27 26 25 24 23 22 21 20 19 18 17 16 15 14 13 12 11 10 9 8 7

g halfedge 3 edge 1
l 7 8 9 10 11 12 13 14 15 16 17 18 19 20 21 22 23 24 25 26 27 28 29 30 31 32 33 34 35 36 37 38 39 40 41 42 43 44 45 46 7

g halfedge 4 edge 2
l 1 81 80 79 78 77 76 75 74 73 72 71 70 69 68 67 66 65 64 63 62 61 60 59 58 57 56 55 54 53 52 51 50 49 48 47 1

g halfedge 5 edge 2
l 1 47 48 49 50 51 52 53 54 55 56 57 58 59 60 61 62 63 64 65 66 67 68 69 70 71 72 73 74 75 76 77 78 79 80 81 1

g halfedge 6 edge 3
l 340 379 378 377 376 375 374 373 372 371 370 369 368 367 366 365 364 363 362 361 360 359 358 357 356 355 354 353 352 351 350 349 348 347 346 345 344 343 342 341 340

g halfedge 7 edge 3
l 340 341 342 343 344 345 346 347 348 349 350 351 352 353 354 355 356 357 358 359 360 361 362 363 364 365 366 367 368 369 370 371 372 373 374 375 376 377 378 379 340

g vertex 0
p 1

g vertex 1
p 7

g vertex 2
p 340

# End of file
