# WaveFront *.obj file
# Vertices: 313
# Triangles : 622

v -0.04633030703415475 0.033869246048380756 -0.025908000000000004
v -0.04633030703415475 0.03436121663671477 -0.02585388699786189
v -0.04633030703415475 0.034597205297376844 -0.025747303893398132
v -0.04633030703415475 0.03481033148603977 -0.02557908543765902
v -0.04633030703415475 0.03497854994177889 -0.02536595924899608
v -0.04633030703415475 0.03508513304624264 -0.02512997058833402
v -0.04633030703415475 0.03513924604838076 -0.024638
v -0.04542459297109206 0.03502927245061139 -0.024638
v -0.04457151571723791 0.03470574292306789 -0.024638
v -0.04382065302177663 0.0341874598259091 -0.024638
v -0.04321564229529362 0.033504543888859484 -0.024638
v -0.04279164456208753 0.032696683703881936 -0.024638
v -0.042573301029243255 0.03181082916847505 -0.024638
v -0.042573301029243255 0.03089846292828646 -0.024638
v -0.04279164456208753 0.030012608392879576 -0.024638
v -0.04321564229529362 0.02920474820790202 -0.024638
v -0.04382065302177663 0.028521832270852407 -0.024638
v -0.04457151571723791 0.028003549173693618 -0.024638
v -0.04542459297109206 0.02768001964615012 -0.024638
v -0.04633030703415475 0.027570046048380755 -0.024638
v -0.047236021097217445 0.02768001964615012 -0.024638
v -0.04808909835107159 0.028003549173693618 -0.024638
v -0.04883996104653287 0.028521832270852407 -0.024638
v -0.04944497177301588 0.02920474820790202 -0.024638
v -0.049868969506221966 0.030012608392879572 -0.024638
v -0.050087313039066245 0.03089846292828646 -0.024638
v -0.050087313039066245 0.031810829168475045 -0.024638
v -0.049868969506221966 0.032696683703881936 -0.024638
v -0.04944497177301588 0.033504543888859484 -0.024638
v -0.04883996104653287 0.0341874598259091 -0.024638
v -0.048089098351071606 0.03470574292306789 -0.024638
v -0.047236021097217445 0.03502927245061139 -0.024638
v -0.04703875172158821 0.03376738707983177 -0.025908000000000004
v -0.0476898024337286 0.033470062182038046 -0.025908000000000004
v -0.04823071491382597 0.03300135884995957 -0.025908000000000004
v -0.04861766764967322 0.0323992486400753 -0.025908000000000004
v -0.04881931203190854 0.03171251094070276 -0.025908000000000004
v -0.04881931203190854 0.03099678115605875 -0.025908000000000004
v -0.04861766764967322 0.03031004345668621 -0.025908000000000004
v -0.04823071491382597 0.02970793324680194 -0.025908000000000004
v -0.0476898024337286 0.029239229914723466 -0.025908000000000004
v -0.04703875172158821 0.02894190501692974 -0.025908000000000004
v -0.04633030703415475 0.028840046048380755 -0.025908000000000004
v -0.0456218623467213 0.02894190501692974 -0.025908000000000004
v -0.0449708116345809 0.029239229914723466 -0.025908000000000004
v -0.04442989915448353 0.02970793324680194 -0.025908000000000004
v -0.044042946418636285 0.03031004345668621 -0.025908000000000004
v -0.04384130203640096 0.03099678115605875 -0.025908000000000004
v -0.04384130203640096 0.03171251094070276 -0.025908000000000004
v -0.044042946418636285 0.0323992486400753 -0.025908000000000004
v -0.04442989915448353 0.03300135884995957 -0.025908000000000004
v -0.0449708116345809 0.033470062182038046 -0.025908000000000004
v -0.0456218623467213 0.03376738707983177 -0.025908000000000004
v -0.045020785252544895 0.03392476777836266 -0.025883799744228303
v -0.04516314582378247 0.03494680285335515 -0.02488548329418009
v -0.04429041817073014 0.0333945352797483 -0.0258837997442283
v -0.04399689976363035 0.03305003529756116 -0.0258837997442283
v -0.043659549390245724 0.03402540417402505 -0.024885483294180086
v -0.04358692429784401 0.032245979253204854 -0.025883799744228306
v -0.04273848860495395 0.03252163853151898 -0.02488548329418009
v -0.04358683667483014 0.03046320512917695 -0.02588379974422831
v -0.04273837388309909 0.030187512538440472 -0.02488548329418009
v -0.04399730362296712 0.02965971418359125 -0.02588379974422831
v -0.044291300913889387 0.029315541318154354 -0.025883799744228306
v -0.04366070513607209 0.02868491504360412 -0.02488548329418009
v -0.0450206670252929 0.02878445061743162 -0.025883799744228303
v -0.04516353902923589 0.02776448211608996 -0.02488548329418009
v -0.047639060282529025 0.028785772208736033 -0.025883799744228303
v -0.04749711187757715 0.027763117572537514 -0.02488548329418009
v -0.04836971616757711 0.029315443709680818 -0.02588379974422831
v -0.0486641806710482 0.029658983432788468 -0.025883799744228306
v -0.04900043658376243 0.028684787248123948 -0.02488548329418009
v -0.04907152821752146 0.030463845523184263 -0.025883799744228306
v -0.04991929541503701 0.03018835098470134 -0.02488548329418009
v -0.04907273909866553 0.03224548924237809 -0.025883799744228306
v -0.049920880780852446 0.032520996976881066 -0.02488548329418009
v -0.048662372933099426 0.03304923173156768 -0.025883799744228306
v -0.04836967080045528 0.033394200431425755 -0.025883799744228306
v -0.04900037718612093 0.03402496576841728 -0.02488548329418009
v -0.047639605776651335 0.03392403123854801 -0.025883799744228306
v -0.04749681639099107 0.03494491341621896 -0.02488548329418009
v -0.04573946233098696 0.03508508982090228 -0.02488548329418009
v -0.045746742033222584 0.03503912762521011 -0.02512996930393928
v -0.04576341483234099 0.03493385979542623 -0.02536595718542897
v -0.045789729270821755 0.034767717097299825 -0.02557908294242608
v -0.04582306867820401 0.0345572205252195 -0.025747301594172947
v -0.04587902777534438 0.03420390896242804 -0.025883799744228306
v -0.04517752622869584 0.03490254446907301 -0.025129969303939285
v -0.045210461861857995 0.03480117890128495 -0.02536595718542897
v -0.04526244369685256 0.034641195087008574 -0.02557908294242608
v -0.045328302733693766 0.03443850158995285 -0.025747301594172947
v -0.04543884495773256 0.03409828723156845 -0.025883799744228306
v -0.04411043406814266 0.034409992384999255 -0.024885483294180086
v -0.04413778476470781 0.03437234795586581 -0.025129969303939275
v -0.04420042642982264 0.034286130417764016 -0.025365957185428965
v -0.04429929286678325 0.034150054520355896 -0.02557908294242607
v -0.04442455293724492 0.033977651457987354 -0.025747301594172937
v -0.044634797839633596 0.03368827859650332 -0.0258837997442283
v -0.044858403190542476 0.034243465544197944 -0.025747301594172944
v -0.04476165892565403 0.03443333984864459 -0.025579082942426074
v -0.04468529970973917 0.034583205610988696 -0.02536595718542897
v -0.044636918594986585 0.034678160392262736 -0.02512996930393928
v -0.044615794361033745 0.03471961968944578 -0.02488548329418009
v -0.04369245536416227 0.03399249819417314 -0.025129969303939275
v -0.04376782035508477 0.033917133189656744 -0.025365957185428962
v -0.043886767833738446 0.033798185689548024 -0.02557908294242607
v -0.04403746983145819 0.03364748366464556 -0.025747301594172937
v -0.0429659137553736 0.03306886148468892 -0.024885483294180086
v -0.04300736590200661 0.03304774091294287 -0.02512996930393928
v -0.04310230430628052 0.03299936818579137 -0.025365957185428965
v -0.043252144221041434 0.03292302220790637 -0.025579082942426074
v -0.04344198577756885 0.03282629471510566 -0.025747301594172944
v -0.04376062857710039 0.03266394080450004 -0.025883799744228303
v -0.04370755483680264 0.03326026532660292 -0.025747301594172937
v -0.04353516841739181 0.033385516535796314 -0.02557908294242607
v -0.043399105656092604 0.03348437597865244 -0.025365957185428962
v -0.0433128964410149 0.0335470132123104 -0.025129969303939275
v -0.04327525564589255 0.033574361974006296 -0.024885483294180086
v -0.0427827428201628 0.032507260205466626 -0.02512996930393928
v -0.04288409883946668 0.03247432933354759 -0.025365957185428965
v -0.043044067583508136 0.0324223550131544 -0.025579082942426074
v -0.043246741987140985 0.032356505497031535 -0.025747301594172947
v -0.04255431810603472 0.03135471960151247 -0.02488548329418009
v -0.04260084145623882 0.0313547186952762 -0.02512996930393928
v -0.0427073945056854 0.0313547166197112 -0.02536595718542897
v -0.04287556564747672 0.03135471334387687 -0.02557908294242608
v -0.04308863218166155 0.03135470919351756 -0.025747301594172947
v -0.04344625734119467 0.031354702227276134 -0.02588379974422831
v -0.04348108375277171 0.031805938362815346 -0.025883799744228306
v -0.043127777104471805 0.031861899078866704 -0.025747301594172947
v -0.04291728346035573 0.03189523945076651 -0.02557908294242608
v -0.04275114307324029 0.03192155465053071 -0.02536595718542897
v -0.042645876707710376 0.03193822793199745 -0.02512996930393928
v -0.04259991515134295 0.03194550784483672 -0.02488548329418009
v -0.042600899703475976 0.030763903999314383 -0.02488548329418009
v -0.042646849129335467 0.030771182436765385 -0.025129969303939285
v -0.04275208771220125 0.03078785233913072 -0.02536595718542897
v -0.04291818425033846 0.03081416220570787 -0.02557908294242608
v -0.0431286223394424 0.030847495820659567 -0.025747301594172947
v -0.043481835740484344 0.03090344519539607 -0.02588379974422831
v -0.042965228574612865 0.029640127517471457 -0.02488548329418009
v -0.043006689163247444 0.02966125182359717 -0.025129969303939285
v -0.04310164690235016 0.029709633103648225 -0.02536595718542897
v -0.043251517332992644 0.02978599258045129 -0.02557908294242608
v -0.04344139755199834 0.029882737175875293 -0.025747301594172947
v -0.04376010524522623 0.030045119792670782 -0.02588379974422831
v -0.04324664349878231 0.030352665528655228 -0.025747301594172947
v -0.043043962621775594 0.03028680805485756 -0.02557908294242608
v -0.042883988768369234 0.030234827453556563 -0.02536595718542897
v -0.042782629511777394 0.030201892602061294 -0.025129969303939285
v -0.043275784405292166 0.029135528960701786 -0.02488548329418009
v -0.04331341868565529 0.029162870344211986 -0.025129969303939285
v -0.04339961297989304 0.029225490679512838 -0.02536595718542897
v -0.043535652191845665 0.029324323451935565 -0.025579082942426074
v -0.04370800877511692 0.029449540870689354 -0.025747301594172947
v -0.044110530996767726 0.02829925628979666 -0.02488548329418009
v -0.04413788049909093 0.02833690125392514 -0.02512996930393928
v -0.0442005194290175 0.028423120017333187 -0.025365957185428965
v -0.04429938154906992 0.028559197848624502 -0.025579082942426074
v -0.044424636150170685 0.02873160336115058 -0.025747301594172944
v -0.04463487187241724 0.02902098033514333 -0.025883799744228303
v -0.044038462035686676 0.029062690212213974 -0.025747301594172944
v -0.04388782525287151 0.028912046144336175 -0.025579082942426074
v -0.043768929247646096 0.028793144389088574 -0.02536595718542897
v -0.04369359687023081 0.028717808368465585 -0.02512996930393928
v -0.044615639570082806 0.027989575913126702 -0.02488548329418009
v -0.04463676571118998 0.028031036399199075 -0.02512996930393928
v -0.04468515119392355 0.028125993903402202 -0.025365957185428965
v -0.04476151730375984 0.028275863963306037 -0.025579082942426074
v -0.04485827030298834 0.028465743712599797 -0.025747301594172944
v -0.0457399233139526 0.027626976540638785 -0.02488548329418009
v -0.0457471973364915 0.02767290455506232 -0.02512996930393928
v -0.04576385712732475 0.027778094099030787 -0.025365957185428965
v -0.04579015103501659 0.027944113239783346 -0.025579082942426074
v -0.04582346443065869 0.02815445326930151 -0.025747301594172944
v -0.045879379867950015 0.028507502080558668 -0.025883799744228303
v -0.04543914528278349 0.028612526994616805 -0.025883799744228303
v -0.04532864029936317 0.02827250138186301 -0.025747301594172944
v -0.04526280344980187 0.028069920336004542 -0.025579082942426074
v -0.04521083912699054 0.02791002527825818 -0.025365957185428965
v -0.04517791458952833 0.027808715946509382 -0.02512996930393928
v -0.04692117961075455 0.027624280632592844 -0.02488548329418009
v -0.046913899565094876 0.02767024186286434 -0.02512996930393928
v -0.04689722597942777 0.027775507481532388 -0.025365957185428965
v -0.04687091029954853 0.027941646689886548 -0.025579082942426074
v -0.04683756931936094 0.028152138840556215 -0.025747301594172944
v -0.0467816075823186 0.02850544298215554 -0.025883799744228303
v -0.046330493171044394 0.02847119952611799 -0.025883799744228303
v -0.04633051625221217 0.028113649160378257 -0.025747301594172944
v -0.04633053000355013 0.027900627186968622 -0.025579082942426074
v -0.046330540857334415 0.027732491216521646 -0.025365957185428965
v -0.046330547734280136 0.027625960451599953 -0.02512996930393928
v -0.04633055073690236 0.027579446831298097 -0.02488548329418009
v -0.047482735863403444 0.027807368215277833 -0.02512996930393928
v -0.04744981028641093 0.027908716052509403 -0.025365957185428965
v -0.04739784432292394 0.028068671882904097 -0.025579082942426074
v -0.04733200539468803 0.028271329925430463 -0.025747301594172944
v -0.04722149692228086 0.028611484774555152 -0.025883799744228303
v -0.048548985625811614 0.028301112923457893 -0.02488548329418009
v -0.048521649644940136 0.028338735012302663 -0.02512996930393928
v -0.0484590416833748 0.02842490138414334 -0.025365957185428965
v -0.04836022844024046 0.028560896526579196 -0.025579082942426074
v -0.048235035764363166 0.028733197275424293 -0.025747301594172947
v -0.04802490398156447 0.02902239840702928 -0.025883799744228306
v -0.04780134704561145 0.028467229182599585 -0.025747301594172944
v -0.047898034533145006 0.028277447069237526 -0.025579082942426074
v -0.04797434893529954 0.028127654072332704 -0.025365957185428965
v -0.04802270165610313 0.028032745395160524 -0.02512996930393928
v -0.048043813492647934 0.027991306228018688 -0.02488548329418009
v -0.04896753834849442 0.0287176821475329 -0.02512996930393928
v -0.04889219108150183 0.028793021774363 -0.02536595718542897
v -0.04877327157627121 0.028911929221235293 -0.02557908294242608
v -0.04862260501983017 0.029062580500188277 -0.025747301594172947
v -0.04969410344267898 0.02964039262318635 -0.02488548329418009
v -0.04965265864998808 0.029661513662987332 -0.02512996930393928
v -0.04955773708854586 0.029709887462131292 -0.02536595718542897
v -0.049407923756583386 0.029786235131926544 -0.02557908294242608
v -0.04921811587946536 0.02988296476831414 -0.025747301594172947
v -0.048899529609713145 0.030045322276859746 -0.025883799744228306
v -0.04895358342779041 0.029448719506027503 -0.025747301594172947
v -0.0491260043012074 0.029323448101192515 -0.02557908294242608
v -0.04926209425668602 0.02922457271813199 -0.02536595718542897
v -0.04934832070196573 0.029161925384778145 -0.02512996930393928
v -0.04938596902016439 0.029134572213338084 -0.02488548329418009
v -0.04987507606839677 0.030202720717961096 -0.02512996930393928
v -0.04977379990904063 0.030235631909692633 -0.02536595718542897
v -0.049613957206803345 0.030287575169129628 -0.02557908294242608
v -0.04941144249341278 0.030353385332185054 -0.025747301594172947
v -0.050106268671019215 0.03135486607559973 -0.02488548329418009
v -0.050059745657066265 0.03135486336467987 -0.025129969303939285
v -0.0499531933777402 0.03135485715582397 -0.02536595718542897
v -0.04978502345141897 0.031354847356476215 -0.02557908294242608
v -0.049571958457189196 0.03135483494106985 -0.025747301594172947
v -0.049214335882419906 0.03135481410221921 -0.025883799744228306
v -0.049177391854936074 0.030903895391668566 -0.025883799744228306
v -0.04953043333189871 0.030848001841737773 -0.025747301594172947
v -0.049740768991778234 0.03081470148618508 -0.02557908294242608
v -0.04990678468362164 0.030788417870896652 -0.02536595718542897
v -0.05001197204236508 0.030771764601318818 -0.025129969303939285
v -0.05005789910267243 0.03076449342610012 -0.02488548329418009
v -0.05006077339641901 0.03194547635931028 -0.02488548329418009
v -0.05001481092240227 0.03193819683439911 -0.025129969303939285
v -0.049909542455167905 0.03192152444140924 -0.02536595718542897
v -0.0497433987509626 0.03189521064391529 -0.02557908294242608
v -0.04953290090421799 0.03186187204863933 -0.025747301594172947
v -0.04917958720194452 0.03180591431459259 -0.025883799744228306
v -0.049692796896730354 0.033067797558080037 -0.02488548329418009
v -0.04965136820178123 0.03304669009480204 -0.02512996930393928
v -0.0495564835092117 0.032998347390149736 -0.02536595718542897
v -0.04940672836685946 0.0329220487963424 -0.02557908294242608
v -0.04921699421379687 0.03282538133739228 -0.025747301594172947
v -0.04889853168744334 0.03266312819162746 -0.025883799744228306
v -0.049412803525077265 0.03235595472435295 -0.025747301594172947
v -0.04961540769540379 0.032421768039674975 -0.02557908294242608
v -0.049775321005046023 0.03247371378716235 -0.02536595718542897
v -0.049876641901175855 0.03250662655531987 -0.025129969303939285
v -0.04938360220987807 0.03357330989217088 -0.02488548329418009
v -0.04934598305276699 0.03354597409300549 -0.02512996930393928
v -0.049259823395515066 0.033483366547604025 -0.02536595718542897
v -0.04912383885061785 0.03338455396129513 -0.02557908294242608
v -0.04895155152845706 0.03325936211759105 -0.025747301594172947
v -0.048550334332219426 0.034410199182026806 -0.02488548329418009
v -0.04852298173415396 0.034372552204980554 -0.02512996930393928
v -0.048460335714007596 0.03428632883136009 -0.02536595718542897
v -0.04836146240356351 0.03415024372383697 -0.02557908294242608
v -0.04823619362465588 0.033977828992597894 -0.025747301594172947
v -0.04802593410542749 0.03368843654529902 -0.025883799744228306
v -0.048622554027138075 0.033647107294783 -0.025747301594172947
v -0.04877321723196718 0.03379778458191075 -0.02557908294242608
v -0.04889213409180623 0.033916712556757864 -0.02536595718542897
v -0.04896747968268167 0.0339920651900901 -0.02512996930393928
v -0.048044527689692175 0.03471865536272422 -0.02488548329418009
v -0.048023407053640846 0.03467720794685508 -0.02512996930393928
v -0.047975034179210105 0.03458228037751275 -0.02536595718542897
v -0.0478986879688764 0.03443245756336816 -0.02557908294242608
v -0.0478019601815719 0.03424263767268074 -0.025747301594172947
v -0.04692085723838797 0.0350841819420138 -0.02488548329418009
v -0.04691358116462619 0.03503823093215091 -0.02512996930393928
v -0.04689691667584983 0.034932988721420984 -0.02536595718542897
v -0.04687061535346209 0.0347668864574781 -0.02557908294242608
v -0.04683729256367819 0.03455644111399296 -0.025747301594172947
v -0.04678136135862925 0.03420321553671112 -0.025883799744228306
v -0.04722127123359002 0.034096844104828355 -0.025883799744228306
v -0.04733175172036495 0.034436879513997036 -0.025747301594172947
v -0.04739757397527262 0.034639466396380464 -0.02557908294242608
v -0.047449526778679564 0.03479936606083369 -0.02536595718542897
v -0.04748244401745991 0.03490067831138686 -0.02512996930393928
v -0.04633030703415475 0.03513924604838075 0.0
v -0.04542459297109206 0.03502927245061139 0.0
v -0.0445715157172379 0.03470574292306789 0.0
v -0.04382065302177663 0.0341874598259091 0.0
v -0.043215642295293615 0.033504543888859484 0.0
v -0.04279164456208753 0.032696683703881936 0.0
v -0.042573301029243255 0.031810829168475045 0.0
v -0.042573301029243255 0.03089846292828646 0.0
v -0.04279164456208753 0.030012608392879572 0.0
v -0.04321564229529362 0.02920474820790202 0.0
v -0.043820653021776644 0.028521832270852407 0.0
v -0.04457151571723791 0.028003549173693618 0.0
v -0.04542459297109206 0.02768001964615012 0.0
v -0.04633030703415475 0.027570046048380755 0.0
v -0.047236021097217445 0.02768001964615012 0.0
v -0.04808909835107159 0.028003549173693618 0.0
v -0.04883996104653287 0.028521832270852407 0.0
v -0.04944497177301588 0.029204748207902025 0.0
v -0.049868969506221966 0.030012608392879576 0.0
v -0.050087313039066245 0.03089846292828646 0.0
v -0.050087313039066245 0.03181082916847505 0.0
v -0.049868969506221966 0.032696683703881936 0.0
v -0.04944497177301588 0.03350454388885949 0.0
v -0.04883996104653287 0.0341874598259091 0.0
v -0.04808909835107159 0.03470574292306789 0.0
v -0.047236021097217445 0.03502927245061139 0.0

vn -0.0000000000000000e+00 -0.0000000000000000e+00 -1.0000000000000000e+00
vn 2.8687675910133732e-02 1.8115784528480880e-01 -9.8303552954236628e-01
vn -0.0000000000000000e+00 2.9495705841438641e-01 -9.5551050946158211e-01
vn 8.1397262504411941e-02 5.1401001369275634e-01 -8.5391345666897656e-01
vn -0.0000000000000000e+00 5.2040360048059608e-01 -8.5392042521937128e-01
vn -0.0000000000000000e+00 7.0710678118654757e-01 -7.0710678118654757e-01
vn 1.1059890221349075e-01 6.9841345386867815e-01 -7.0709725659515488e-01
vn -0.0000000000000000e+00 8.5392042521937261e-01 -5.2040360048059409e-01
vn 1.3356123364427139e-01 8.4341671233224180e-01 -5.2039374153240248e-01
vn -0.0000000000000000e+00 9.5551050946158178e-01 -2.9495705841438763e-01
vn 1.4945016430990601e-01 9.4375263540536991e-01 -2.9495018486714147e-01
vn 1.5579210727379211e-01 9.8380093788395639e-01 -8.8682207515595302e-02
vn 2.9549004562847331e-01 9.0867319597320506e-01 -2.9495534552593528e-01
vn 3.0802968274036979e-01 9.4723433297047877e-01 -8.8683893649518647e-02
vn 4.3430936828874528e-01 8.5111389498318335e-01 -2.9492458422991086e-01
vn 4.5273595402844463e-01 8.8722438281804761e-01 -8.8673843173105490e-02
vn 5.6107796120239062e-01 7.7343967538875491e-01 -2.9492810986324447e-01
vn 5.8488360541710704e-01 8.0625548888888832e-01 -8.8674995070908813e-02
vn 6.7574466828064494e-01 6.7555182192800201e-01 -2.9495572410115750e-01
vn 7.0442115400943905e-01 7.0422012386202948e-01 -8.8684017341108173e-02
vn 7.7383941383603649e-01 5.6053903758979640e-01 -2.9490430470205781e-01
vn 8.0666654559597284e-01 5.8431772928544312e-01 -8.8667217498712772e-02
vn 8.5121305977249273e-01 4.3414654413323539e-01 -2.9487811904229033e-01
vn 8.8731564195314494e-01 4.5256004367729230e-01 -8.8658662363503074e-02
vn 9.0830552552276900e-01 2.9664511575770847e-01 -2.9492837707128500e-01
vn 9.4684355656994235e-01 3.0923131980450819e-01 -8.8675082373484787e-02
vn 9.4392127902082701e-01 1.4838853400546928e-01 -2.9494654089748829e-01
vn 9.8397568430520321e-01 1.5468526087529305e-01 -8.8681016931750484e-02
vn 9.5553303852161586e-01 -1.1382102401053164e-03 -2.9488186918001180e-01
vn 9.9606125142342694e-01 -1.1864865686888261e-03 -8.8659887561507070e-02
vn 9.4391349008801084e-01 -1.4857830561658353e-01 -2.9487592361869003e-01
vn 9.8394715003906275e-01 -1.5487987183596794e-01 -8.8657945104093305e-02
vn 9.0916573092235342e-01 -2.9398721097224551e-01 -2.9493930477503927e-01
vn 9.4774330228505155e-01 -3.0646162814973577e-01 -8.8678652705364638e-02
vn 8.5057392239042873e-01 -4.3536157035431139e-01 -2.9493101838902741e-01
vn 8.8666317687415286e-01 -4.5383365619112392e-01 -8.8675945349521848e-02
vn 7.7229589162450185e-01 -5.6269288199225354e-01 -2.9484873466774070e-01
vn 8.0504440342364147e-01 -5.8655336692433524e-01 -8.8649062409023635e-02
vn 6.7648917708043665e-01 -6.7485446173035901e-01 -2.9484546592352606e-01
vn 7.0517441437052286e-01 -7.0347038202424284e-01 -8.8647994516830170e-02
vn 5.6313644833869680e-01 -7.7194295801961665e-01 -2.9492610958747412e-01
vn 5.8702908587100044e-01 -8.0469479524483667e-01 -8.8674341538734283e-02
vn 4.3200255266463000e-01 -8.5228342790175138e-01 -2.9493516747801318e-01
vn 4.5033266675080696e-01 -8.8844629863210900e-01 -8.8677300951325866e-02
vn 2.9276839153106782e-01 -9.0960071248356089e-01 -2.9481046923355636e-01
vn 3.0517954162177247e-01 -9.4816085521688886e-01 -8.8636561361003396e-02
vn 1.4967554538277097e-01 -9.4377956836307686e-01 -2.9474965217074395e-01
vn 1.5601786223807171e-01 -9.8377106496200317e-01 -8.8616693721827483e-02
vn 2.8132883995983155e-03 -9.5554726580487703e-01 -2.9482453802423619e-01
vn 2.9325625189904501e-03 -9.9605930811194898e-01 -8.8641157486901295e-02
vn -1.4792975681190776e-01 -9.4399388918252336e-01 -2.9494461214882944e-01
vn -1.5420692850898851e-01 -9.8405081789719895e-01 -8.8680386758728746e-02
vn -2.9780280285845057e-01 -9.0793459361709283e-01 -2.9490382215735267e-01
vn -3.1043588617798068e-01 -9.4645005841377605e-01 -8.8667059844408203e-02
vn -4.3544743367321609e-01 -8.5057963810124648e-01 -2.9478774017072457e-01
vn -4.5390405873090867e-01 -8.8663181856701478e-01 -8.8629136135674982e-02
vn -5.6065803492474342e-01 -7.7380312720004951e-01 -2.9477328272716496e-01
vn -5.8441928355064054e-01 -8.0659767815188754e-01 -8.8624413194897195e-02
vn -6.7364649393188714e-01 -6.7767814877931676e-01 -2.9487747943902765e-01
vn -7.0221779616689195e-01 -7.0642044519330116e-01 -8.8658453400742882e-02
vn -7.7334854516954099e-01 -5.6118955393392034e-01 -2.9495476303935475e-01
vn -8.0616680584022993e-01 -5.8500451444778678e-01 -8.8683703334211092e-02
vn -8.5294308439972111e-01 -4.3076405305216026e-01 -2.9483966044744686e-01
vn -8.8910899800619725e-01 -4.4902901798639377e-01 -8.8646097886996664e-02
vn -9.0922543917601495e-01 -2.9402136437350762e-01 -2.9472111910605220e-01
vn -9.4774480756461832e-01 -3.0647759003596337e-01 -8.8607372944086493e-02
vn -9.4347476788608020e-01 -1.5160197253049396e-01 -2.9474091044028899e-01
vn -9.8345082475009860e-01 -1.5802551376430471e-01 -8.8613838072155615e-02
vn -9.5552912143076296e-01 -3.2835920268352186e-03 -2.9487847686997393e-01
vn -9.9605617556951476e-01 -3.4228596942010693e-03 -8.8658779268304788e-02
vn -9.4358032242052958e-01 1.5053179144938611e-01 -2.9495144499359216e-01
vn -9.8362167699267777e-01 1.5691969154923277e-01 -8.8682619234018711e-02
vn -9.0775582497143037e-01 2.9842174147579315e-01 -2.9482846952930586e-01
vn -9.4624276095157278e-01 3.1107419507984563e-01 -8.8642441878429692e-02
vn -8.5099876602531210e-01 4.3467191877967642e-01 -2.9472262086204137e-01
vn -8.8705175040673756e-01 4.5308700999302853e-01 -8.8607863510639040e-02
vn -7.7448400620950364e-01 5.5972500365609978e-01 -2.9475828132192777e-01
vn -8.0730385737185151e-01 5.8344413944786910e-01 -8.8619512616943091e-02
vn -6.7779972208885786e-01 6.7351537491114533e-01 -2.9489756949586121e-01
vn -7.0655134482603543e-01 7.0208525969577662e-01 -8.8665017015926578e-02
vn -5.6058011097233551e-01 7.7379364486691682e-01 -2.9494632451653929e-01
vn -5.8436775977984223e-01 8.0662879387291364e-01 -8.8680946234336630e-02
vn -4.3201417152345956e-01 8.5230586584869616e-01 -2.9485329681521855e-01
vn -4.5033394689291928e-01 8.8844831912368816e-01 -8.8650552858618267e-02
vn -2.9567749749039263e-01 9.0865846706387510e-01 -2.9481283505123596e-01
vn -3.0821218566767272e-01 9.4717932387903081e-01 -8.8637334244764249e-02
vn -1.5173763675075824e-01 9.4340881749145777e-01 -2.9488216743754520e-01
vn -1.5817348799011335e-01 9.8342287687241547e-01 -8.8659985004643407e-02
vn -0.0000000000000000e+00 1.0000000000000000e+00 -0.0000000000000000e+00
vn -2.4091518795864822e-01 9.7054617211694227e-01 -0.0000000000000000e+00
vn -4.6276346281448966e-01 8.8648179760440782e-01 -0.0000000000000000e+00
vn 2.3910753276139021e-01 9.7099309357830177e-01 0.0000000000000000e+00
vn 4.6517499730165107e-01 8.8521874239388365e-01 0.0000000000000000e+00
vn 6.6259146489144061e-01 7.4898100820582536e-01 0.0000000000000000e+00
vn 8.2369715234724283e-01 5.6702998264204962e-01 0.0000000000000000e+00
vn 9.3449040454064514e-01 3.5598831978235090e-01 0.0000000000000000e+00
vn 9.9289460681055963e-01 1.1899705780608238e-01 0.0000000000000000e+00
vn 9.9276512529999106e-01 -1.2007250304750361e-01 -0.0000000000000000e+00
vn 9.3524141880264033e-01 -3.5401057689852200e-01 -0.0000000000000000e+00
vn 8.2204545879355706e-01 -5.6942186792999994e-01 -0.0000000000000000e+00
vn 6.6455481189546906e-01 -7.4723952116210901e-01 -0.0000000000000000e+00
vn 4.6312615408226304e-01 -8.8629237016064399e-01 -0.0000000000000000e+00
vn 2.3774330015718334e-01 -9.7132802040833333e-01 -0.0000000000000000e+00
vn 2.9441518043256550e-03 -9.9999566597568468e-01 -0.0000000000000000e+00
vn -2.4065080717595877e-01 -9.7061176018300921e-01 -0.0000000000000000e+00
vn -4.6623061855062992e-01 -8.8466321858993169e-01 -0.0000000000000000e+00
vn -6.6104877500698100e-01 -7.5034293297249754e-01 -0.0000000000000000e+00
vn -8.2383748195366036e-01 -5.6682607855342382e-01 -0.0000000000000000e+00
vn -9.3586597648513425e-01 -3.5235617499559491e-01 -0.0000000000000000e+00
vn -9.9235819544404880e-01 -1.2339048559362685e-01 -0.0000000000000000e+00
vn -9.9275944543768146e-01 1.2011945510310580e-01 -0.0000000000000000e+00
vn -9.3393200820003197e-01 3.5745070157919057e-01 -0.0000000000000000e+00
vn -8.2415519003095272e-01 5.6636403729848894e-01 -0.0000000000000000e+00
vn -6.6454134100917472e-01 7.4725150122949080e-01 -0.0000000000000000e+00
vn -1.3561180693113767e-01 8.4314858959436856e-01 -5.2029788937290433e-01
vn -2.6426704561585357e-01 8.1212973798455268e-01 -5.2020017039848232e-01
vn -3.8610972223302231e-01 7.6174256034225007e-01 -5.2025720000819964e-01
vn -5.0098284476113142e-01 6.9152888922711664e-01 -5.2038830177027839e-01
vn -6.0576057984399156e-01 6.0193158944159630e-01 -5.2031959557505114e-01
vn -6.9223468466389193e-01 5.0028284418770319e-01 -5.2012327111920709e-01
vn -7.6064217085627361e-01 3.8851970779591360e-01 -5.2007299926955763e-01
vn -8.1131432947388893e-01 2.6671691706686262e-01 -5.2022220727366364e-01
vn -8.4326199363156562e-01 1.3452775089344338e-01 -5.2039551721365640e-01
vn -8.5398296620935565e-01 -2.9346375699137099e-03 -5.2029268813486484e-01
vn -8.4328881429399960e-01 -1.3550362130649887e-01 -5.2009878321280967e-01
vn -8.1268733642647517e-01 -2.6280329296739868e-01 -5.2007088210890340e-01
vn -7.6231916421476431e-01 -3.8499602013608636e-01 -5.2023798049573167e-01
vn -6.9112712874580440e-01 -5.0152460687368960e-01 -5.2040019274763116e-01
vn -6.0205702764638114e-01 -6.0566023222890997e-01 -5.2029128241594402e-01
vn -5.0111165923180678e-01 -6.9161903484006337e-01 -5.2014441805026101e-01
vn -3.8919558765497253e-01 -7.6023376531505871e-01 -5.2016479756399214e-01
vn -2.6615004817428456e-01 -8.1143237575620453e-01 -5.2032840728857743e-01
vn -1.3220297253499966e-01 -8.4363552603879222e-01 -5.2038588879615122e-01
vn 2.5144066855966609e-03 -8.5403061907428901e-01 -5.2021666586395143e-01
vn 1.3378096018609942e-01 -8.4355621712782991e-01 -5.2011110662691173e-01
vn 2.6166740263468380e-01 -8.1297319914050448e-01 -5.2019683570517028e-01
vn 3.8607776433159119e-01 -7.6167994469379774e-01 -5.2037257973491824e-01
vn 5.0327435295271206e-01 -6.8988447446410583e-01 -5.2035981546754106e-01
vn 6.0461082382774201e-01 -6.0314980031395904e-01 -5.2024616297630721e-01
vn 6.9023634003390788e-01 -5.0290449507959367e-01 -5.2025077003819453e-01
vn 7.6015432392322724e-01 -3.8908079763927561e-01 -5.2036673291939617e-01
vn 8.1251298029235808e-01 -2.6273364341676675e-01 -5.2037840988398187e-01
vn 8.4360322326317438e-01 -1.3278879774611779e-01 -5.2028908973101029e-01
vn 8.5398448986362530e-01 -1.0172478104538156e-03 -5.2029746903022311e-01
vn 8.4356952466582069e-01 1.3261280138392623e-01 -5.2038860668176479e-01
vn 8.1175027740413308e-01 2.6511096568338732e-01 -5.2036301079989800e-01
vn 7.6075298479181819e-01 3.8800894264320446e-01 -5.2029218383447029e-01
vn 6.9158962730788598e-01 5.0096050571596862e-01 -5.2032908732161054e-01
vn 6.0389997355811531e-01 6.0372763049315681e-01 -5.2040154699580410e-01
vn 5.0143400091848600e-01 6.9122114521867484e-01 -5.2036263425179152e-01
vn 3.8814215368163096e-01 7.6064023562001803e-01 -5.2035766592922272e-01
vn 2.6407382141631147e-01 8.1206391494122188e-01 -5.2040101353948354e-01
vn -1.1230343428589587e-01 6.9823184549734041e-01 -7.0700794096033437e-01
vn -2.1885887994725475e-01 6.7258406894035516e-01 -7.0691686984812352e-01
vn -3.1975470495684899e-01 6.3083303426458004e-01 -7.0697002166888345e-01
vn -4.1485342101160949e-01 5.7264061718723003e-01 -7.0709218820631337e-01
vn -5.0163848748847528e-01 4.9846764901205770e-01 -7.0702816829223081e-01
vn -5.7331682269201500e-01 4.1434007430049635e-01 -7.0684519072212093e-01
vn -6.2999182208894178e-01 3.2178631163228028e-01 -7.0679832607834348e-01
vn -6.7189982822146499e-01 2.2088485837196470e-01 -7.0693740895355284e-01
vn -6.9828458611618238e-01 1.1139913284745490e-01 -7.0709891103959899e-01
vn -7.0720627753795429e-01 -2.4302523514653823e-03 -7.0700309397089500e-01
vn -6.9843193815785076e-01 -1.1222733570317643e-01 -7.0682236303192525e-01
vn -6.7309840287819989e-01 -2.1766363131153979e-01 -7.0679635231592042e-01
vn -6.3131787292336461e-01 -3.1883609900669302e-01 -7.0695210962109212e-01
vn -5.7230381771303118e-01 -4.1529906040833742e-01 -7.0710326732029849e-01
vn -4.9858005099057923e-01 -5.0156396421140648e-01 -7.0700178398556435e-01
vn -4.1502120903332229e-01 -5.7279962008827079e-01 -7.0686490313160422e-01
vn -3.2232823294660845e-01 -6.2961866468431105e-01 -7.0688389946770047e-01
vn -2.2040126342314517e-01 -6.7195449343672997e-01 -7.0703637942588859e-01
vn -1.0947467747237243e-01 -6.9859796150106390e-01 -7.0708993995027103e-01
vn 2.0823434421064833e-03 -7.0727820967673649e-01 -7.0693224425135637e-01
vn 1.1079976213785393e-01 -6.9864820881576739e-01 -7.0683385107726338e-01
vn 2.1670636172819335e-01 -6.7328395663494367e-01 -7.0691376173089504e-01
vn 3.1970596157337738e-01 -6.3073722868002424e-01 -7.0707753923560968e-01
vn 4.1675814086113655e-01 -5.7128874002772634e-01 -7.0706564585157283e-01
vn 5.0070856288210253e-01 -4.9949861599545720e-01 -7.0695973554026559e-01
vn 5.7161775926825442e-01 -4.1647928967229936e-01 -7.0696402918620760e-01
vn 6.2947610475425342e-01 -3.2219387198721200e-01 -7.0707209137208937e-01
vn 6.7282903344847544e-01 -2.1756553758796127e-01 -7.0708297151243271e-01
vn 6.9861205119315462e-01 -1.0996621612000515e-01 -7.0699974062225901e-01
vn 7.0720549747225481e-01 -8.4240785680185916e-04 -7.0700754924825482e-01
vn 6.9854216044299000e-01 1.0981386841566683e-01 -7.0709247230275807e-01
vn 6.7220370286072173e-01 2.1953620191081580e-01 -7.0706862319785346e-01
vn 6.3000021269544326e-01 3.2132074573436908e-01 -7.0700262401521896e-01
vn 5.7271139372400093e-01 4.1484975786305106e-01 -7.0703701310446276e-01
vn 5.0007294364895771e-01 4.9993023110121076e-01 -7.0710452909124855e-01
vn 4.1523345072027551e-01 5.7239465376147847e-01 -7.0706827233882430e-01
vn 3.2141835045511230e-01 6.2988193244093560e-01 -7.0706364294537682e-01
vn 2.1867233241314932e-01 6.7244798971876296e-01 -7.0710403206330807e-01
vn -8.2656529009200064e-02 5.1390610767587364e-01 -8.5385502909193245e-01
vn -1.6109198631741706e-01 4.9505829353217934e-01 -8.5379544268478957e-01
vn -2.3534866813913530e-01 4.6431127401979388e-01 -8.5383022037361200e-01
vn -3.0531988181257103e-01 4.2144660428336983e-01 -8.5391014135444843e-01
vn -3.6920645221329329e-01 3.6687271177347947e-01 -8.5386826208733557e-01
vn -4.2201183239456996e-01 3.0499090043968113e-01 -8.5374853672962159e-01
vn -4.6374372612561765e-01 2.3687034964638726e-01 -8.5371786553727835e-01
vn -4.9454807111002452e-01 1.6258105160470313e-01 -8.5380888202247174e-01
vn -5.1391461999879307e-01 8.1986118788491200e-02 -8.5391453886059077e-01
vn -5.2051302103723651e-01 -1.7886973483147899e-03 -8.5385185804827135e-01
vn -5.1411521813605465e-01 -8.2610456400444038e-02 -8.5373359719190356e-01
vn -4.9547557572489204e-01 -1.6022473471530571e-01 -8.5371657372074994e-01
vn -4.6467352436997156e-01 -2.3467527243569186e-01 -8.5381850076982013e-01
vn -4.2119570491445313e-01 -3.0564566421730227e-01 -8.5391738833846287e-01
vn -3.6696171566922325e-01 -3.6915791648541624e-01 -8.5385100101203060e-01
vn -3.0548837237303789e-01 -4.2162573822248151e-01 -8.5376143694431383e-01
vn -2.3725610317859844e-01 -4.6344333385235004e-01 -8.5377386807768096e-01
vn -1.6221469733394370e-01 -4.9455657867873964e-01 -8.5387363377401271e-01
vn -8.0570251096294510e-02 -5.1414824389600089e-01 -8.5390867072359578e-01
vn 1.5327022526780102e-03 -5.2058987164184600e-01 -8.5380550265720989e-01
vn 8.1559013255204579e-02 -5.1427058528009262e-01 -8.5374111560385124e-01
vn 1.5950793771242955e-01 -4.9557444719783850e-01 -8.5379340890597444e-01
vn 2.3529639231457841e-01 -4.6420840473705860e-01 -8.5390055904374440e-01
vn 3.0672697666910148e-01 -4.2045889654785223e-01 -8.5389277904031669e-01
vn 3.6853837420863711e-01 -3.6764781252957834e-01 -8.5382349035258498e-01
vn 4.2072876115501562e-01 -3.0654193777125005e-01 -8.5382629962095502e-01
vn 4.6328188193102476e-01 -2.3712827577331941e-01 -8.5389699537076513e-01
vn 4.9518528202821288e-01 -1.6012277522854676e-01 -8.5390411248321541e-01
vn 5.1418867630961940e-01 -8.0936741656475172e-02 -8.5384966417103791e-01
vn 5.2051094368914275e-01 -6.2002135175692058e-04 -8.5385477282343580e-01
vn 5.1410633199315814e-01 8.0819753323634946e-02 -8.5391032718737359e-01
vn 4.9472965575428779e-01 1.6157463747183262e-01 -8.5389472667483413e-01
vn 4.6368849411342200e-01 2.3649632129409975e-01 -8.5385155058779671e-01
vn 4.2151376897534559e-01 3.0532810576427211e-01 -8.5387404832012570e-01
vn 3.6803599280123772e-01 3.6793096141559517e-01 -8.5391821366838350e-01
vn 3.0560431009096178e-01 4.2127211321510766e-01 -8.5389449716057131e-01
vn 2.3655880284587760e-01 4.6358310177839124e-01 -8.5389146883058320e-01
vn 1.6093515137913100e-01 4.9489808713209571e-01 -8.5391788856046857e-01
vn -2.9133237956719089e-02 1.8113207875770068e-01 -9.8302717383146188e-01
vn -5.6782181243011001e-02 1.7449961597599847e-01 -9.8301865084926798e-01
vn -8.2953437607127367e-02 1.6365597733876538e-01 -9.8302362548946609e-01
vn -1.0760739773463662e-01 1.4853527422387955e-01 -9.8303505546039238e-01
vn -1.3012926587207088e-01 1.2930672355638667e-01 -9.8302906640989418e-01
vn -1.4875913978686758e-01 1.0750926990551499e-01 -9.8301194052476004e-01
vn -1.6347477237881022e-01 8.3499407776878268e-02 -9.8300755220730973e-01
vn -1.7431736829424091e-01 5.7306261424961730e-02 -9.8302057329054104e-01
vn -1.8112402367075423e-01 2.8895180526591450e-02 -9.8303568429210730e-01
vn -1.8346135754841394e-01 -6.3044886583529444e-04 -9.8302672029844673e-01
vn -1.8122835368393583e-01 -2.9120626043341823e-02 -9.8300980308430996e-01
vn -1.7466083039132574e-01 -5.6481058977856539e-02 -9.8300736737002758e-01
vn -1.6378562867404839e-01 -8.2717079872900154e-02 -9.8302194916346963e-01
vn -1.4844574353029155e-01 -1.0772141632061935e-01 -9.8303609175534279e-01
vn -1.2934038339805418e-01 -1.3011446266425114e-01 -9.8302659772156598e-01
vn -1.0768320379898472e-01 -1.4862107497980162e-01 -9.8301378611463763e-01
vn -8.3630585809725003e-02 -1.6335949625923701e-01 -9.8301556452532868e-01
vn -5.7173332298114013e-02 -1.7430879000322128e-01 -9.8302983464467764e-01
vn -2.8396343142733167e-02 -1.8120745264222962e-01 -9.8303484516218154e-01
vn 5.4024586238550097e-04 -1.8349716891385484e-01 -9.8302008989389855e-01
vn 2.8749765007993741e-02 -1.8128172334628526e-01 -9.8301087877631654e-01
vn 5.6223948379544371e-02 -1.7468191575334505e-01 -9.8301835991875330e-01
vn 8.2929028929070059e-02 -1.6360791530577029e-01 -9.8303368518590517e-01
vn 1.0810524139656812e-01 -1.4818980385177244e-01 -9.8303257261240484e-01
vn 1.2989976236685216e-01 -1.2958586357482338e-01 -9.8302266286113804e-01
vn 1.4829502825550581e-01 -1.0804739185999801e-01 -9.8302306468716738e-01
vn 1.6328196380180035e-01 -8.3574972497992561e-02 -9.8303317556885494e-01
vn 1.7452492370533212e-01 -5.6434260355613261e-02 -9.8303419333396680e-01
vn 1.8123267055543538e-01 -2.8527236231131400e-02 -9.8302640652037321e-01
vn 1.8346007688913571e-01 -2.1853366628332932e-04 -9.8302713717926893e-01
vn 1.8119237329818885e-01 2.8484229823256237e-02 -9.8303508203417944e-01
vn 1.7436601960223105e-01 5.6946508213024355e-02 -9.8303285113490402e-01
vn 1.6343289024134622e-01 8.3356127683187509e-02 -9.8302667632421059e-01
vn 1.4856444533941224e-01 1.0761427981266640e-01 -9.8302989393069529e-01
vn 1.2971008420671964e-01 1.2967306709387449e-01 -9.8303620977334971e-01
vn 1.0770937025436285e-01 1.4847615862032731e-01 -9.8303281831318323e-01
vn 8.3374736480879022e-02 1.6338905372691195e-01 -9.8303238524423409e-01
vn 5.6719775798907884e-02 1.7442123926867778e-01 -9.8303616328459675e-01
vn 4.7302038447870805e-15 -5.4591830896297339e-15 -1.0000000000000000e+00
vn 4.6431977552991721e-15 -2.9840206218798550e-15 -1.0000000000000000e+00
vn 1.4815575625460667e-15 -5.0749326587466392e-16 -1.0000000000000000e+00
vn -1.4054389224187057e-15 -9.8590622807696199e-16 -1.0000000000000000e+00
vn -5.4072315520900481e-15 -6.1339883108684826e-15 -1.0000000000000000e+00
vn -8.0182537423315236e-16 -1.7557791250263581e-15 -1.0000000000000000e+00
vn 8.8580666397333264e-16 4.2046455718892329e-15 -1.0000000000000000e+00
vn -1.1439332769766279e-16 1.7731872744073986e-15 -1.0000000000000000e+00
vn -3.5569838829649926e-15 7.7890161313926136e-15 -1.0000000000000000e+00
vn -2.7432500436484621e-15 3.1658118911955078e-15 -1.0000000000000000e+00
vn 9.1289407019411842e-15 -5.8668567914576870e-15 -1.0000000000000000e+00
vn 2.3931566428755813e-01 9.7094181742605201e-01 0.0000000000000000e+00
vn -2.3931566428755813e-01 9.7094181742605201e-01 -0.0000000000000000e+00
vn -4.6472317204376812e-01 8.8545602565321013e-01 -0.0000000000000000e+00
vn -4.6472317204376995e-01 8.8545602565320913e-01 -0.0000000000000000e+00
vn -6.6312265824079575e-01 7.4851074817110053e-01 -0.0000000000000000e+00
vn -8.2298386589365580e-01 5.6806474673115670e-01 -0.0000000000000000e+00
vn -8.2298386589365646e-01 5.6806474673115570e-01 -0.0000000000000000e+00
vn -9.3501624268541439e-01 3.5460488704253634e-01 -0.0000000000000000e+00
vn -9.3501624268541506e-01 3.5460488704253540e-01 -0.0000000000000000e+00
vn -9.9270887409805408e-01 1.2053668025532302e-01 -0.0000000000000000e+00
vn -9.9270887409805408e-01 1.2053668025532191e-01 -0.0000000000000000e+00
vn -9.9270887409805386e-01 -1.2053668025532310e-01 -0.0000000000000000e+00
vn -9.3501624268541483e-01 -3.5460488704253545e-01 -0.0000000000000000e+00
vn -9.3501624268541439e-01 -3.5460488704253645e-01 -0.0000000000000000e+00
vn -8.2298386589365646e-01 -5.6806474673115570e-01 -0.0000000000000000e+00
vn -8.2298386589365602e-01 -5.6806474673115626e-01 -0.0000000000000000e+00
vn -6.6312265824079575e-01 -7.4851074817110053e-01 -0.0000000000000000e+00
vn -4.6472317204376828e-01 -8.8545602565320991e-01 -0.0000000000000000e+00
vn -2.3931566428755813e-01 -9.7094181742605201e-01 -0.0000000000000000e+00
vn -1.2246467991473530e-16 -1.0000000000000000e+00 -0.0000000000000000e+00
vn 1.2246467991473530e-16 -1.0000000000000000e+00 -0.0000000000000000e+00
vn 2.3931566428755813e-01 -9.7094181742605201e-01 -0.0000000000000000e+00
vn 4.6472317204376828e-01 -8.8545602565320991e-01 -0.0000000000000000e+00
vn 6.6312265824079442e-01 -7.4851074817110164e-01 -0.0000000000000000e+00
vn 6.6312265824079575e-01 -7.4851074817110053e-01 -0.0000000000000000e+00
vn 8.2298386589365602e-01 -5.6806474673115626e-01 -0.0000000000000000e+00
vn 9.3501624268541439e-01 -3.5460488704253645e-01 -0.0000000000000000e+00
vn 9.3501624268541483e-01 -3.5460488704253545e-01 -0.0000000000000000e+00
vn 9.9270887409805386e-01 -1.2053668025532310e-01 -0.0000000000000000e+00
vn 9.9270887409805408e-01 1.2053668025532191e-01 0.0000000000000000e+00
vn 9.9270887409805408e-01 1.2053668025532302e-01 0.0000000000000000e+00
vn 9.3501624268541506e-01 3.5460488704253540e-01 0.0000000000000000e+00
vn 8.2298386589365724e-01 5.6806474673115481e-01 0.0000000000000000e+00
vn 8.2298386589365646e-01 5.6806474673115570e-01 0.0000000000000000e+00
vn 6.6312265824079575e-01 7.4851074817110053e-01 0.0000000000000000e+00
vn 4.6472317204376995e-01 8.8545602565320913e-01 0.0000000000000000e+00
vn 4.6472317204376812e-01 8.8545602565321013e-01 0.0000000000000000e+00
vn 0.0000000000000000e+00 0.0000000000000000e+00 1.0000000000000000e+00

g face 0
f 53//1 1//1 87//2
f 87//2 1//1 2//3
f 87//2 2//3 86//4
f 86//4 2//3 3//5
f 86//4 3//5 4//6
f 86//4 4//6 85//7
f 85//7 4//6 5//8
f 85//7 5//8 84//9
f 84//9 5//8 6//10
f 84//9 6//10 83//11
f 83//11 6//10 82//12
f 83//11 82//12 88//13
f 88//13 82//12 55//14
f 88//13 55//14 102//15
f 102//15 55//14 103//16
f 102//15 103//16 94//17
f 94//17 103//16 93//18
f 94//17 93//18 104//19
f 104//19 93//18 58//20
f 104//19 58//20 117//21
f 117//21 58//20 118//22
f 117//21 118//22 109//23
f 109//23 118//22 108//24
f 109//23 108//24 119//25
f 119//25 108//24 60//26
f 119//25 60//26 133//27
f 133//27 60//26 134//28
f 133//27 134//28 124//29
f 124//29 134//28 123//30
f 124//29 123//30 136//31
f 136//31 123//30 135//32
f 136//31 135//32 150//33
f 150//33 135//32 62//34
f 150//33 62//34 142//35
f 142//35 62//34 141//36
f 142//35 141//36 152//37
f 152//37 141//36 151//38
f 152//37 151//38 165//39
f 165//39 151//38 65//40
f 165//39 65//40 157//41
f 157//41 65//40 156//42
f 157//41 156//42 167//43
f 167//43 156//42 166//44
f 167//43 166//44 181//45
f 181//45 166//44 67//46
f 181//45 67//46 172//47
f 172//47 67//46 171//48
f 172//47 171//48 192//49
f 192//49 171//48 193//50
f 192//49 193//50 183//51
f 183//51 193//50 182//52
f 183//51 182//52 194//53
f 194//53 182//52 69//54
f 194//53 69//54 208//55
f 208//55 69//54 209//56
f 208//55 209//56 200//57
f 200//57 209//56 199//58
f 200//57 199//58 210//59
f 210//59 199//58 72//60
f 210//59 72//60 223//61
f 223//61 72//60 224//62
f 223//61 224//62 215//63
f 215//63 224//62 214//64
f 215//63 214//64 225//65
f 225//65 214//64 74//66
f 225//65 74//66 239//67
f 239//67 74//66 240//68
f 239//67 240//68 230//69
f 230//69 240//68 229//70
f 230//69 229//70 242//71
f 242//71 229//70 241//72
f 242//71 241//72 256//73
f 256//73 241//72 76//74
f 256//73 76//74 248//75
f 248//75 76//74 247//76
f 248//75 247//76 258//77
f 258//77 247//76 257//78
f 258//77 257//78 271//79
f 271//79 257//78 79//80
f 271//79 79//80 263//81
f 263//81 79//80 262//82
f 263//81 262//82 273//83
f 273//83 262//82 272//84
f 273//83 272//84 287//85
f 287//85 272//84 81//86
f 287//85 81//86 278//87
f 278//87 81//86 277//88
f 278//87 277//88 6//10
f 6//10 277//88 7//89
f 7//89 277//88 32//90
f 32//90 277//88 81//86
f 32//90 81//86 31//91
f 31//91 81//86 272//84
f 31//91 272//84 262//82
f 6//10 7//89 82//12
f 82//12 7//89 8//92
f 82//12 8//92 55//14
f 55//14 8//92 9//93
f 55//14 9//93 103//16
f 103//16 9//93 93//18
f 9//93 10//94 93//18
f 93//18 10//94 58//20
f 10//94 11//95 58//20
f 58//20 11//95 118//22
f 118//22 11//95 108//24
f 108//24 11//95 12//96
f 108//24 12//96 60//26
f 60//26 12//96 13//97
f 60//26 13//97 134//28
f 134//28 13//97 123//30
f 13//97 14//98 123//30
f 123//30 14//98 135//32
f 135//32 14//98 62//34
f 62//34 14//98 15//99
f 62//34 15//99 141//36
f 141//36 15//99 16//100
f 141//36 16//100 151//38
f 151//38 16//100 65//40
f 16//100 17//101 65//40
f 65//40 17//101 156//42
f 17//101 18//102 156//42
f 156//42 18//102 166//44
f 166//44 18//102 67//46
f 67//46 18//102 19//103
f 67//46 19//103 171//48
f 171//48 19//103 20//104
f 171//48 20//104 193//50
f 193//50 20//104 182//52
f 20//104 21//105 182//52
f 182//52 21//105 69//54
f 21//105 22//106 69//54
f 69//54 22//106 209//56
f 209//56 22//106 199//58
f 199//58 22//106 23//107
f 199//58 23//107 72//60
f 72//60 23//107 24//108
f 72//60 24//108 224//62
f 224//62 24//108 214//64
f 24//108 25//109 214//64
f 214//64 25//109 74//66
f 25//109 26//110 74//66
f 74//66 26//110 240//68
f 240//68 26//110 229//70
f 229//70 26//110 27//111
f 229//70 27//111 241//72
f 241//72 27//111 76//74
f 27//111 28//112 76//74
f 76//74 28//112 247//76
f 28//112 29//113 247//76
f 247//76 29//113 257//78
f 257//78 29//113 79//80
f 79//80 29//113 30//114
f 79//80 30//114 262//82
f 262//82 30//114 31//91
f 6//10 5//8 278//87
f 278//87 5//8 279//115
f 278//87 279//115 287//85
f 287//85 279//115 286//116
f 287//85 286//116 273//83
f 273//83 286//116 274//117
f 273//83 274//117 263//81
f 263//81 274//117 264//118
f 263//81 264//118 271//79
f 271//79 264//118 270//119
f 271//79 270//119 258//77
f 258//77 270//119 259//120
f 258//77 259//120 248//75
f 248//75 259//120 249//121
f 248//75 249//121 256//73
f 256//73 249//121 255//122
f 256//73 255//122 242//71
f 242//71 255//122 243//123
f 242//71 243//123 230//69
f 230//69 243//123 231//124
f 230//69 231//124 239//67
f 239//67 231//124 238//125
f 239//67 238//125 225//65
f 225//65 238//125 226//126
f 225//65 226//126 215//63
f 215//63 226//126 216//127
f 215//63 216//127 223//61
f 223//61 216//127 222//128
f 223//61 222//128 210//59
f 210//59 222//128 211//129
f 210//59 211//129 200//57
f 200//57 211//129 201//130
f 200//57 201//130 208//55
f 208//55 201//130 207//131
f 208//55 207//131 194//53
f 194//53 207//131 195//132
f 194//53 195//132 183//51
f 183//51 195//132 184//133
f 183//51 184//133 192//49
f 192//49 184//133 191//134
f 192//49 191//134 172//47
f 172//47 191//134 173//135
f 172//47 173//135 181//45
f 181//45 173//135 180//136
f 181//45 180//136 167//43
f 167//43 180//136 168//137
f 167//43 168//137 157//41
f 157//41 168//137 158//138
f 157//41 158//138 165//39
f 165//39 158//138 164//139
f 165//39 164//139 152//37
f 152//37 164//139 153//140
f 152//37 153//140 142//35
f 142//35 153//140 143//141
f 142//35 143//141 150//33
f 150//33 143//141 149//142
f 150//33 149//142 136//31
f 136//31 149//142 137//143
f 136//31 137//143 124//29
f 124//29 137//143 125//144
f 124//29 125//144 133//27
f 133//27 125//144 132//145
f 133//27 132//145 119//25
f 119//25 132//145 120//146
f 119//25 120//146 109//23
f 109//23 120//146 110//147
f 109//23 110//147 117//21
f 117//21 110//147 116//148
f 117//21 116//148 104//19
f 104//19 116//148 105//149
f 104//19 105//149 94//17
f 94//17 105//149 95//150
f 94//17 95//150 102//15
f 102//15 95//150 101//151
f 102//15 101//151 88//13
f 88//13 101//151 89//152
f 88//13 89//152 83//11
f 83//11 89//152 84//9
f 5//8 4//6 279//115
f 279//115 4//6 280//153
f 279//115 280//153 286//116
f 286//116 280//153 285//154
f 286//116 285//154 274//117
f 274//117 285//154 275//155
f 274//117 275//155 264//118
f 264//118 275//155 265//156
f 264//118 265//156 270//119
f 270//119 265//156 269//157
f 270//119 269//157 259//120
f 259//120 269//157 260//158
f 259//120 260//158 249//121
f 249//121 260//158 250//159
f 249//121 250//159 255//122
f 255//122 250//159 254//160
f 255//122 254//160 243//123
f 243//123 254//160 244//161
f 243//123 244//161 231//124
f 231//124 244//161 232//162
f 231//124 232//162 238//125
f 238//125 232//162 237//163
f 238//125 237//163 226//126
f 226//126 237//163 227//164
f 226//126 227//164 216//127
f 216//127 227//164 217//165
f 216//127 217//165 222//128
f 222//128 217//165 221//166
f 222//128 221//166 211//129
f 211//129 221//166 212//167
f 211//129 212//167 201//130
f 201//130 212//167 202//168
f 201//130 202//168 207//131
f 207//131 202//168 206//169
f 207//131 206//169 195//132
f 195//132 206//169 196//170
f 195//132 196//170 184//133
f 184//133 196//170 185//171
f 184//133 185//171 191//134
f 191//134 185//171 190//172
f 191//134 190//172 173//135
f 173//135 190//172 174//173
f 173//135 174//173 180//136
f 180//136 174//173 179//174
f 180//136 179//174 168//137
f 168//137 179//174 169//175
f 168//137 169//175 158//138
f 158//138 169//175 159//176
f 158//138 159//176 164//139
f 164//139 159//176 163//177
f 164//139 163//177 153//140
f 153//140 163//177 154//178
f 153//140 154//178 143//141
f 143//141 154//178 144//179
f 143//141 144//179 149//142
f 149//142 144//179 148//180
f 149//142 148//180 137//143
f 137//143 148//180 138//181
f 137//143 138//181 125//144
f 125//144 138//181 126//182
f 125//144 126//182 132//145
f 132//145 126//182 131//183
f 132//145 131//183 120//146
f 120//146 131//183 121//184
f 120//146 121//184 110//147
f 110//147 121//184 111//185
f 110//147 111//185 116//148
f 116//148 111//185 115//186
f 116//148 115//186 105//149
f 105//149 115//186 106//187
f 105//149 106//187 95//150
f 95//150 106//187 96//188
f 95//150 96//188 101//151
f 101//151 96//188 100//189
f 101//151 100//189 89//152
f 89//152 100//189 90//190
f 89//152 90//190 84//9
f 84//9 90//190 85//7
f 4//6 3//5 280//153
f 280//153 3//5 281//191
f 280//153 281//191 285//154
f 285//154 281//191 284//192
f 285//154 284//192 275//155
f 275//155 284//192 276//193
f 275//155 276//193 265//156
f 265//156 276//193 266//194
f 265//156 266//194 269//157
f 269//157 266//194 268//195
f 269//157 268//195 260//158
f 260//158 268//195 261//196
f 260//158 261//196 250//159
f 250//159 261//196 251//197
f 250//159 251//197 254//160
f 254//160 251//197 253//198
f 254//160 253//198 244//161
f 244//161 253//198 245//199
f 244//161 245//199 232//162
f 232//162 245//199 233//200
f 232//162 233//200 237//163
f 237//163 233//200 236//201
f 237//163 236//201 227//164
f 227//164 236//201 228//202
f 227//164 228//202 217//165
f 217//165 228//202 218//203
f 217//165 218//203 221//166
f 221//166 218//203 220//204
f 221//166 220//204 212//167
f 212//167 220//204 213//205
f 212//167 213//205 202//168
f 202//168 213//205 203//206
f 202//168 203//206 206//169
f 206//169 203//206 205//207
f 206//169 205//207 196//170
f 196//170 205//207 197//208
f 196//170 197//208 185//171
f 185//171 197//208 186//209
f 185//171 186//209 190//172
f 190//172 186//209 189//210
f 190//172 189//210 174//173
f 174//173 189//210 175//211
f 174//173 175//211 179//174
f 179//174 175//211 178//212
f 179//174 178//212 169//175
f 169//175 178//212 170//213
f 169//175 170//213 159//176
f 159//176 170//213 160//214
f 159//176 160//214 163//177
f 163//177 160//214 162//215
f 163//177 162//215 154//178
f 154//178 162//215 155//216
f 154//178 155//216 144//179
f 144//179 155//216 145//217
f 144//179 145//217 148//180
f 148//180 145//217 147//218
f 148//180 147//218 138//181
f 138//181 147//218 139//219
f 138//181 139//219 126//182
f 126//182 139//219 127//220
f 126//182 127//220 131//183
f 131//183 127//220 130//221
f 131//183 130//221 121//184
f 121//184 130//221 122//222
f 121//184 122//222 111//185
f 111//185 122//222 112//223
f 111//185 112//223 115//186
f 115//186 112//223 114//224
f 115//186 114//224 106//187
f 106//187 114//224 107//225
f 106//187 107//225 96//188
f 96//188 107//225 97//226
f 96//188 97//226 100//189
f 100//189 97//226 99//227
f 100//189 99//227 90//190
f 90//190 99//227 91//228
f 90//190 91//228 85//7
f 85//7 91//228 86//4
f 3//5 2//3 281//191
f 281//191 2//3 282//229
f 281//191 282//229 284//192
f 284//192 282//229 283//230
f 284//192 283//230 276//193
f 276//193 283//230 80//231
f 276//193 80//231 266//194
f 266//194 80//231 267//232
f 266//194 267//232 268//195
f 268//195 267//232 78//233
f 268//195 78//233 261//196
f 261//196 78//233 77//234
f 261//196 77//234 251//197
f 251//197 77//234 252//235
f 251//197 252//235 253//198
f 253//198 252//235 75//236
f 253//198 75//236 245//199
f 245//199 75//236 246//237
f 245//199 246//237 233//200
f 233//200 246//237 234//238
f 233//200 234//238 236//201
f 236//201 234//238 235//239
f 236//201 235//239 228//202
f 228//202 235//239 73//240
f 228//202 73//240 218//203
f 218//203 73//240 219//241
f 218//203 219//241 220//204
f 220//204 219//241 71//242
f 220//204 71//242 213//205
f 213//205 71//242 70//243
f 213//205 70//243 203//206
f 203//206 70//243 204//244
f 203//206 204//244 205//207
f 205//207 204//244 68//245
f 205//207 68//245 197//208
f 197//208 68//245 198//246
f 197//208 198//246 186//209
f 186//209 198//246 187//247
f 186//209 187//247 189//210
f 189//210 187//247 188//248
f 189//210 188//248 175//211
f 175//211 188//248 176//249
f 175//211 176//249 178//212
f 178//212 176//249 177//250
f 178//212 177//250 170//213
f 170//213 177//250 66//251
f 170//213 66//251 160//214
f 160//214 66//251 161//252
f 160//214 161//252 162//215
f 162//215 161//252 64//253
f 162//215 64//253 155//216
f 155//216 64//253 63//254
f 155//216 63//254 145//217
f 145//217 63//254 146//255
f 145//217 146//255 147//218
f 147//218 146//255 61//256
f 147//218 61//256 139//219
f 139//219 61//256 140//257
f 139//219 140//257 127//220
f 127//220 140//257 128//258
f 127//220 128//258 130//221
f 130//221 128//258 129//259
f 130//221 129//259 122//222
f 122//222 129//259 59//260
f 122//222 59//260 112//223
f 112//223 59//260 113//261
f 112//223 113//261 114//224
f 114//224 113//261 57//262
f 114//224 57//262 107//225
f 107//225 57//262 56//263
f 107//225 56//263 97//226
f 97//226 56//263 98//264
f 97//226 98//264 99//227
f 99//227 98//264 54//265
f 99//227 54//265 91//228
f 91//228 54//265 92//266
f 91//228 92//266 86//4
f 86//4 92//266 87//2
f 2//3 1//1 282//229
f 282//229 1//1 33//1
f 282//229 33//1 283//230
f 283//230 33//1 80//231
f 33//1 34//1 80//231
f 80//231 34//1 267//232
f 267//232 34//1 78//233
f 78//233 34//1 35//1
f 78//233 35//1 77//234
f 77//234 35//1 36//1
f 77//234 36//1 252//235
f 252//235 36//1 75//236
f 36//1 37//1 75//236
f 75//236 37//1 246//237
f 246//237 37//1 234//238
f 234//238 37//1 38//1
f 234//238 38//1 235//239
f 235//239 38//1 73//240
f 38//1 39//1 73//240
f 73//240 39//1 219//241
f 219//241 39//1 71//242
f 71//242 39//1 40//267
f 71//242 40//267 70//243
f 70//243 40//267 41//268
f 70//243 41//268 204//244
f 204//244 41//268 68//245
f 41//268 42//269 68//245
f 68//245 42//269 198//246
f 198//246 42//269 187//247
f 187//247 42//269 43//1
f 187//247 43//1 188//248
f 188//248 43//1 176//249
f 43//1 44//1 176//249
f 176//249 44//1 177//250
f 177//250 44//1 66//251
f 66//251 44//1 45//270
f 66//251 45//270 161//252
f 161//252 45//270 64//253
f 45//270 46//271 64//253
f 64//253 46//271 63//254
f 46//271 47//272 63//254
f 63//254 47//272 146//255
f 146//255 47//272 61//256
f 61//256 47//272 48//273
f 61//256 48//273 140//257
f 140//257 48//273 128//258
f 48//273 49//274 128//258
f 128//258 49//274 129//259
f 129//259 49//274 59//260
f 59//260 49//274 50//275
f 59//260 50//275 113//261
f 113//261 50//275 57//262
f 50//275 51//276 57//262
f 57//262 51//276 56//263
f 51//276 52//277 56//263
f 56//263 52//277 98//264
f 98//264 52//277 54//265
f 54//265 52//277 53//1
f 54//265 53//1 92//266
f 92//266 53//1 87//2

g face 1
f 289//278 8//278 288//89
f 288//89 8//278 7//89
f 288//89 7//89 313//279
f 313//279 7//89 32//279
f 313//279 32//279 312//280
f 312//280 32//279 31//281
f 312//280 31//281 311//282
f 311//282 31//281 30//282
f 311//282 30//282 310//283
f 310//283 30//282 29//284
f 310//283 29//284 309//285
f 309//285 29//284 28//286
f 309//285 28//286 308//287
f 308//287 28//286 27//288
f 308//287 27//288 307//289
f 307//289 27//288 26//289
f 307//289 26//289 306//290
f 306//290 26//289 25//291
f 306//290 25//291 305//292
f 305//292 25//291 24//293
f 305//292 24//293 304//294
f 304//294 24//293 23//294
f 304//294 23//294 303//295
f 303//295 23//294 22//295
f 303//295 22//295 302//296
f 302//296 22//295 21//296
f 302//296 21//296 301//297
f 301//297 21//296 20//297
f 301//298 20//298 300//299
f 300//299 20//298 19//299
f 300//299 19//299 299//300
f 299//300 19//299 18//300
f 299//300 18//300 298//301
f 298//301 18//300 17//302
f 298//301 17//302 297//303
f 297//303 17//302 16//303
f 297//303 16//303 296//304
f 296//304 16//303 15//305
f 296//304 15//305 295//306
f 295//306 15//305 14//306
f 295//306 14//306 294//307
f 294//307 14//306 13//308
f 294//307 13//308 293//309
f 293//309 13//308 12//309
f 293//309 12//309 292//310
f 292//310 12//309 11//311
f 292//310 11//311 291//312
f 291//312 11//311 10//312
f 291//312 10//312 290//313
f 290//313 10//312 9//314
f 290//313 9//314 289//278
f 289//278 9//314 8//278

g face 2
f 53//1 44//1 1//1
f 1//1 44//1 43//1
f 1//1 43//1 33//1
f 33//1 43//1 42//1
f 33//1 42//1 34//1
f 34//1 42//1 41//1
f 34//1 41//1 35//1
f 35//1 41//1 40//1
f 35//1 40//1 36//1
f 36//1 40//1 39//1
f 36//1 39//1 37//1
f 37//1 39//1 38//1
f 44//1 53//1 45//1
f 45//1 53//1 52//1
f 45//1 52//1 46//1
f 46//1 52//1 51//1
f 46//1 51//1 47//1
f 47//1 51//1 50//1
f 47//1 50//1 48//1
f 48//1 50//1 49//1

g face 3
f 313//315 302//315 288//315
f 288//315 302//315 301//315
f 288//315 301//315 289//315
f 289//315 301//315 300//315
f 289//315 300//315 290//315
f 290//315 300//315 299//315
f 290//315 299//315 291//315
f 291//315 299//315 298//315
f 291//315 298//315 292//315
f 292//315 298//315 297//315
f 292//315 297//315 293//315
f 293//315 297//315 296//315
f 293//315 296//315 294//315
f 294//315 296//315 295//315
f 302//315 313//315 303//315
f 303//315 313//315 312//315
f 303//315 312//315 304//315
f 304//315 312//315 311//315
f 304//315 311//315 305//315
f 305//315 311//315 310//315
f 305//315 310//315 306//315
f 306//315 310//315 309//315
f 306//315 309//315 307//315
f 307//315 309//315 308//315

g halfedge 0 edge 0
l 1 2 3 4 5 6 7

g halfedge 1 edge 0
l 7 6 5 4 3 2 1

g halfedge 2 edge 1
l 7 32 31 30 29 28 27 26 25 24 23 22 21 20 19 18 17 16 15 14 13 12 11 10 9 8 7

g halfedge 3 edge 1
l 7 8 9 10 11 12 13 14 15 16 17 18 19 20 21 22 23 24 25 26 27 28 29 30 31 32 7

g halfedge 4 edge 2
l 1 53 52 51 50 49 48 47 46 45 44 43 42 41 40 39 38 37 36 35 34 33 1

g halfedge 5 edge 2
l 1 33 34 35 36 37 38 39 40 41 42 43 44 45 46 47 48 49 50 51 52 53 1

g halfedge 6 edge 3
l 288 289 290 291 292 293 294 295 296 297 298 299 300 301 302 303 304 305 306 307 308 309 310 311 312 313 288

g halfedge 7 edge 3
l 288 313 312 311 310 309 308 307 306 305 304 303 302 301 300 299 298 297 296 295 294 293 292 291 290 289 288

g vertex 0
p 1

g vertex 1
p 7

g vertex 2
p 288

# End of file
