# WaveFront *.obj file
# Vertices: 342
# Triangles : 680

v 0.0 0.06000000000000001 0.2
v 0.029808453235234827 0.06000000000000001 0.19776616524502572
v 0.05895103488218073 0.06000000000000001 0.19111456115722816
v 0.08677674782351164 0.06000000000000001 0.18019377358048386
v 0.11266401161272434 0.06000000000000001 0.165247754863199
v 0.1360345475541838 0.06000000000000001 0.14661037436596536
v 0.15636629649360598 0.06000000000000001 0.12469796037174671
v 0.1732050807568877 0.06000000000000001 0.10000000000000007
v 0.18617474972884082 0.06000000000000001 0.07306820487327911
v 0.19498558243636474 0.06000000000000001 0.04450418679126288
v 0.19944075943623601 0.06000000000000001 0.014946018717284919
v 0.19944075943623607 0.06000000000000001 -0.01494601871728472
v 0.19498558243636474 0.06000000000000001 -0.04450418679126287
v 0.18617474972884085 0.06000000000000001 -0.07306820487327893
v 0.1732050807568878 0.06000000000000001 -0.09999999999999988
v 0.15636629649360598 0.06000000000000001 -0.1246979603717467
v 0.13603454755418395 0.06000000000000001 -0.1466103743659652
v 0.11266401161272445 0.06000000000000001 -0.16524775486319893
v 0.08677674782351165 0.06000000000000001 -0.1801937735804838
v 0.058951034882180925 0.06000000000000001 -0.1911145611572281
v 0.029808453235234948 0.06000000000000001 -0.19776616524502572
v 2.4492935982947065e-17 0.06000000000000001 -0.2
v -0.029808453235234806 0.06000000000000001 -0.19776616524502572
v -0.058951034882180786 0.06000000000000001 -0.19111456115722816
v -0.0867767478235116 0.06000000000000001 -0.18019377358048386
v -0.11266401161272432 0.06000000000000001 -0.16524775486319904
v -0.13603454755418384 0.06000000000000001 -0.14661037436596533
v -0.15636629649360592 0.06000000000000001 -0.12469796037174675
v -0.1732050807568877 0.06000000000000001 -0.10000000000000009
v -0.18617474972884082 0.06000000000000001 -0.07306820487327914
v -0.19498558243636474 0.06000000000000001 -0.044504186791262924
v -0.19944075943623601 0.06000000000000001 -0.014946018717284945
v -0.19944075943623607 0.06000000000000001 0.014946018717284695
v -0.19498558243636474 0.06000000000000001 0.04450418679126285
v -0.1861747497288409 0.06000000000000001 0.0730682048732789
v -0.1732050807568878 0.06000000000000001 0.09999999999999987
v -0.15636629649360598 0.06000000000000001 0.12469796037174667
v -0.13603454755418395 0.06000000000000001 0.1466103743659652
v -0.1126640116127244 0.06000000000000001 0.16524775486319895
v -0.08677674782351166 0.06000000000000001 0.1801937735804838
v -0.058951034882180946 0.06000000000000001 0.1911145611572281
v -0.029808453235234875 0.06000000000000001 0.19776616524502572
v 0.0 0.065 0.1986602540378444
v -0.02960877446093483 0.065 0.19644138313833562
v -0.05855613782743947 0.065 0.18983433634913044
v -0.08619545383598394 0.065 0.17898670417768364
v -0.1119093058395324 0.065 0.16414080480153273
v -0.13512328887518707 0.065 0.1456282710806306
v -0.1553188409218833 0.065 0.12386264242726125
v -0.17204482671904345 0.065 0.09933012701892208
v -0.18492761538281818 0.065 0.07257874071107424
v -0.19367942670262636 0.065 0.04420606526849978
v -0.19810475967551636 0.065 0.014845899376150775
v -0.19810475967551633 0.065 -0.014845899376151024
v -0.19367942670262636 0.065 -0.04420606526849985
v -0.18492761538281807 0.065 -0.07257874071107448
v -0.17204482671904334 0.065 -0.0993301270189223
v -0.15531884092188328 0.065 -0.12386264242726132
v -0.13512328887518693 0.065 -0.1456282710806307
v -0.11190930583953235 0.065 -0.16414080480153279
v -0.0861954538359839 0.065 -0.1789867041776837
v -0.05855613782743931 0.065 -0.1898343363491305
v -0.02960877446093476 0.065 -0.19644138313833565
v 2.432886442252462e-17 0.065 -0.1986602540378444
v 0.0296087744609349 0.065 -0.19644138313833562
v 0.058556137827439445 0.065 -0.18983433634913044
v 0.08619545383598393 0.065 -0.17898670417768364
v 0.11190930583953244 0.065 -0.1641408048015327
v 0.13512328887518704 0.065 -0.1456282710806306
v 0.1553188409218833 0.065 -0.12386264242726128
v 0.17204482671904345 0.065 -0.09933012701892208
v 0.18492761538281816 0.065 -0.07257874071107427
v 0.19367942670262636 0.065 -0.04420606526849981
v 0.19810475967551636 0.065 -0.0148458993761508
v 0.19810475967551633 0.065 0.014845899376151
v 0.19367942670262636 0.065 0.04420606526849983
v 0.18492761538281807 0.065 0.07257874071107445
v 0.17204482671904334 0.065 0.09933012701892228
v 0.1553188409218833 0.065 0.1238626424272613
v 0.13512328887518688 0.065 0.14562827108063076
v 0.11190930583953236 0.065 0.16414080480153279
v 0.08619545383598391 0.065 0.1789867041776837
v 0.05855613782743926 0.065 0.18983433634913052
v 0.02960877446093478 0.065 0.19644138313833565
v 0.0 0.0 0.2
v -0.029808453235234875 0.0 0.19776616524502572
v -0.05895103488218077 0.0 0.19111456115722816
v -0.08677674782351166 0.0 0.1801937735804838
v -0.1126640116127244 0.0 0.16524775486319895
v -0.13603454755418384 0.0 0.14661037436596533
v -0.15636629649360598 0.0 0.12469796037174667
v -0.1732050807568877 0.0 0.10000000000000002
v -0.18617474972884082 0.0 0.07306820487327909
v -0.19498558243636474 0.0 0.04450418679126285
v -0.19944075943623601 0.0 0.014946018717284872
v -0.19944075943623601 0.0 -0.014946018717284768
v -0.19498558243636474 0.0 -0.044504186791262924
v -0.18617474972884085 0.0 -0.07306820487327897
v -0.17320508075688779 0.0 -0.09999999999999994
v -0.15636629649360592 0.0 -0.12469796037174675
v -0.1360345475541839 0.0 -0.14661037436596525
v -0.11266401161272441 0.0 -0.16524775486319895
v -0.0867767478235116 0.0 -0.18019377358048386
v -0.05895103488218087 0.0 -0.19111456115722814
v -0.029808453235234893 0.0 -0.19776616524502572
v 2.4492935982947065e-17 0.0 -0.2
v 0.029808453235234858 0.0 -0.19776616524502572
v 0.05895103488218084 0.0 -0.19111456115722816
v 0.08677674782351165 0.0 -0.1801937735804838
v 0.11266401161272438 0.0 -0.165247754863199
v 0.13603454755418387 0.0 -0.14661037436596527
v 0.15636629649360598 0.0 -0.1246979603717467
v 0.1732050807568877 0.0 -0.10000000000000003
v 0.18617474972884085 0.0 -0.07306820487327902
v 0.19498558243636474 0.0 -0.04450418679126287
v 0.19944075943623601 0.0 -0.014946018717284853
v 0.19944075943623601 0.0 0.014946018717284834
v 0.19498558243636474 0.0 0.04450418679126288
v 0.18617474972884085 0.0 0.073068204873279
v 0.17320508075688776 0.0 0.09999999999999998
v 0.15636629649360598 0.0 0.12469796037174671
v 0.13603454755418387 0.0 0.14661037436596527
v 0.11266401161272441 0.0 0.16524775486319895
v 0.08677674782351164 0.0 0.18019377358048386
v 0.05895103488218084 0.0 0.19111456115722814
v 0.02980845323523489 0.0 0.19776616524502572
v 0.1660913350577754 0.0 0.01999999999999942
v 0.17476900984012655 0.0 0.018019377358047803
v 0.181727964707136 0.0 0.012469796037174092
v 0.18558989330141187 0.0 0.004450418679125709
v 0.18558989330141187 0.0 -0.004450418679126867
v 0.181727964707136 0.0 -0.012469796037175249
v 0.17476900984012655 0.0 -0.01801937735804896
v 0.1660913350577754 0.0 -0.020000000000000583
v 0.15741366027542422 0.0 -0.01801937735804896
v 0.1504547054084148 0.0 -0.012469796037175254
v 0.14659277681413893 0.0 -0.004450418679126872
v 0.14659277681413893 0.0 0.004450418679125705
v 0.1504547054084148 0.0 0.012469796037174088
v 0.15741366027542422 0.0 0.018019377358047803
v -0.1660913350577754 0.0 0.020000000000001742
v -0.15741366027542422 0.0 0.01801937735805012
v -0.1504547054084148 0.0 0.012469796037176411
v -0.14659277681413893 0.0 0.004450418679128028
v -0.14659277681413893 0.0 -0.004450418679124547
v -0.1504547054084148 0.0 -0.012469796037172931
v -0.15741366027542422 0.0 -0.018019377358046644
v -0.1660913350577754 0.0 -0.019999999999998262
v -0.17476900984012655 0.0 -0.018019377358046644
v -0.181727964707136 0.0 -0.012469796037172937
v -0.18558989330141187 0.0 -0.004450418679124552
v -0.18558989330141187 0.0 0.004450418679128024
v -0.181727964707136 0.0 0.012469796037176406
v -0.17476900984012655 0.0 0.01801937735805012
v 0.0 0.0 -0.14609133505777538
v 0.008677674782351163 0.0 -0.148071957699727
v 0.015636629649360596 0.0 -0.15362153902060072
v 0.01949855824363647 0.0 -0.1616409163786491
v 0.01949855824363647 0.0 -0.17054175373690167
v 0.0156366296493606 0.0 -0.17856113109495006
v 0.008677674782351165 0.0 -0.18411071241582377
v 2.4492935982947064e-18 0.0 -0.1860913350577754
v -0.008677674782351161 0.0 -0.18411071241582377
v -0.015636629649360596 0.0 -0.17856113109495006
v -0.01949855824363647 0.0 -0.17054175373690167
v -0.01949855824363647 0.0 -0.1616409163786491
v -0.0156366296493606 0.0 -0.15362153902060072
v -0.008677674782351166 0.0 -0.148071957699727
v 0.0 0.0 0.18609133505777536
v 0.008677674782351163 0.0 0.18411071241582377
v 0.015636629649360596 0.0 0.17856113109495006
v 0.01949855824363647 0.0 0.17054175373690167
v 0.01949855824363647 0.0 0.1616409163786491
v 0.0156366296493606 0.0 0.15362153902060072
v 0.008677674782351165 0.0 0.148071957699727
v 2.4492935982947064e-18 0.0 0.14609133505777538
v -0.008677674782351161 0.0 0.148071957699727
v -0.015636629649360596 0.0 0.15362153902060072
v -0.01949855824363647 0.0 0.1616409163786491
v -0.01949855824363647 0.0 0.17054175373690167
v -0.0156366296493606 0.0 0.17856113109495006
v -0.008677674782351166 0.0 0.18411071241582377
v 0.0 -0.005 0.14609133505777538
v -0.008677674782351166 -0.005 0.148071957699727
v -0.0156366296493606 -0.005 0.15362153902060072
v -0.01949855824363647 -0.005 0.1616409163786491
v -0.01949855824363647 -0.005 0.17054175373690167
v -0.015636629649360596 -0.005 0.17856113109495006
v -0.008677674782351161 -0.005 0.18411071241582377
v 2.4492935982947064e-18 -0.005 0.1860913350577754
v 0.008677674782351165 -0.005 0.18411071241582377
v 0.0156366296493606 -0.005 0.17856113109495006
v 0.01949855824363647 -0.005 0.17054175373690167
v 0.01949855824363647 -0.005 0.1616409163786491
v 0.015636629649360596 -0.005 0.15362153902060072
v 0.008677674782351163 -0.005 0.148071957699727
v 0.14609133505777538 -0.005 -5.100751701209023e-16
v 0.14807195769972706 -0.005 0.00867767478235065
v 0.15362153902060077 -0.005 0.01563662964936006
v 0.16164091637864916 -0.005 0.01949855824363591
v 0.17054175373690175 -0.005 0.019498558243635878
v 0.17856113109495014 -0.005 0.01563662964935997
v 0.1841107124158238 -0.005 0.008677674782350518
v 0.1860913350577754 -0.005 -6.521837172729223e-16
v 0.18411071241582375 -0.005 -0.008677674782351808
v 0.17856113109494998 -0.005 -0.015636629649361224
v 0.1705417537369016 -0.005 -0.019498558243637068
v 0.16164091637864902 -0.005 -0.019498558243637037
v 0.15362153902060066 -0.005 -0.015636629649361133
v 0.14807195769972697 -0.005 -0.00867767478235168
v 0.0 -0.005 -0.14609133505777538
v 0.008677674782351166 -0.005 -0.148071957699727
v 0.0156366296493606 -0.005 -0.15362153902060072
v 0.01949855824363647 -0.005 -0.1616409163786491
v 0.01949855824363647 -0.005 -0.17054175373690167
v 0.015636629649360596 -0.005 -0.17856113109495006
v 0.008677674782351161 -0.005 -0.18411071241582377
v -2.4492935982947064e-18 -0.005 -0.1860913350577754
v -0.008677674782351165 -0.005 -0.18411071241582377
v -0.0156366296493606 -0.005 -0.17856113109495006
v -0.01949855824363647 -0.005 -0.17054175373690167
v -0.01949855824363647 -0.005 -0.1616409163786491
v -0.015636629649360596 -0.005 -0.15362153902060072
v -0.008677674782351163 -0.005 -0.148071957699727
v -0.14609133505777538 -0.005 1.530225510362707e-15
v -0.1480719576997271 -0.005 -0.008677674782349615
v -0.15362153902060088 -0.005 -0.01563662964935899
v -0.16164091637864933 -0.005 -0.019498558243634778
v -0.1705417537369019 -0.005 -0.019498558243634688
v -0.17856113109495023 -0.005 -0.015636629649358726
v -0.18411071241582389 -0.005 -0.008677674782349232
v -0.1860913350577754 -0.005 1.951652564622178e-15
v -0.18411071241582366 -0.005 0.008677674782353094
v -0.1785611310949499 -0.005 0.01563662964936247
v -0.17054175373690147 -0.005 0.019498558243638258
v -0.16164091637864889 -0.005 0.019498558243638168
v -0.15362153902060058 -0.005 0.015636629649362205
v -0.14807195769972692 -0.005 0.008677674782352714
v -0.1218436790421315 0.065 0.08748781559439035
v -0.1218436790421315 0.065 -0.0874878155943905
v -0.10488825248557712 0.065 -0.10723084673041543
v -0.08477557872920649 0.065 -0.12374611610522625
v -0.06211107049935759 0.065 -0.13653649666453235
v -0.03757695343568221 0.065 -0.14521698444222217
v -0.011911730378713887 0.065 -0.14952628758644695
v 0.014112048345756885 0.065 -0.14933469152037998
v 0.039711039507584166 0.065 -0.1446479634880046
v 0.06411468643098633 0.065 -0.1356071789539784
v 0.08658841356447532 0.065 -0.12248447508311987
v 0.10645573798093379 0.065 -0.10567485912427228
v 0.12311863222833334 0.065 -0.08568431827484198
v 0.13607552558777303 0.065 -0.06311458893165153
v 0.14493640188195936 0.065 -0.03864504378974345
v 0.14943453937414145 0.065 -0.01301224200659478
v 0.14943453937414145 0.065 0.013012242006594872
v 0.14493640188195933 0.065 0.03864504378974354
v 0.13607552558777294 0.065 0.06311458893165173
v 0.1231186322283333 0.065 0.08568431827484205
v 0.10645573798093372 0.065 0.10567485912427235
v 0.08658841356447512 0.065 0.12248447508311999
v 0.06411468643098625 0.065 0.13560717895397842
v 0.03971103950758407 0.065 0.14464796348800463
v 0.014112048345756797 0.065 0.14933469152037998
v -0.011911730378714111 0.065 0.14952628758644695
v -0.03757695343568229 0.065 0.14521698444222214
v -0.06211107049935792 0.065 0.13653649666453221
v -0.08477557872920667 0.065 0.12374611610522611
v -0.1048882524855773 0.065 0.10723084673041527
v -0.13348031474294675 0.065 0.07404443875390312
v -0.14531649551443765 0.065 0.05473549018977814
v -0.15343473567863833 0.065 0.033592528085479925
v -0.15756301862745967 0.065 0.011323986377458102
v -0.15756301862745967 0.065 -0.011323986377458316
v -0.15343473567863833 0.065 -0.03359252808548013
v -0.14531649551443765 0.065 -0.05473549018977835
v -0.13348031474294675 0.065 -0.07404443875390326
v -0.1218436790421315 0.07 -0.0874878155943905
v -0.10488825248557712 0.07 -0.10723084673041543
v -0.08477557872920649 0.07 -0.12374611610522625
v -0.06211107049935759 0.07 -0.13653649666453235
v -0.03757695343568221 0.07 -0.14521698444222217
v -0.011911730378713887 0.07 -0.14952628758644695
v 0.014112048345756885 0.07 -0.14933469152037998
v 0.039711039507584166 0.07 -0.1446479634880046
v 0.06411468643098633 0.07 -0.1356071789539784
v 0.08658841356447532 0.07 -0.12248447508311987
v 0.10645573798093379 0.07 -0.10567485912427228
v 0.12311863222833334 0.07 -0.08568431827484198
v 0.13607552558777303 0.07 -0.06311458893165153
v 0.14493640188195936 0.07 -0.03864504378974345
v 0.14943453937414145 0.07 -0.01301224200659478
v 0.14943453937414145 0.07 0.013012242006594872
v 0.14493640188195933 0.07 0.03864504378974354
v 0.13607552558777294 0.07 0.06311458893165173
v 0.1231186322283333 0.07 0.08568431827484205
v 0.10645573798093372 0.07 0.10567485912427235
v 0.08658841356447512 0.07 0.12248447508311999
v 0.06411468643098625 0.07 0.13560717895397842
v 0.03971103950758407 0.07 0.14464796348800463
v 0.014112048345756797 0.07 0.14933469152037998
v -0.011911730378714111 0.07 0.14952628758644695
v -0.03757695343568229 0.07 0.14521698444222214
v -0.06211107049935792 0.07 0.13653649666453221
v -0.08477557872920667 0.07 0.12374611610522611
v -0.1048882524855773 0.07 0.10723084673041527
v -0.1218436790421315 0.07 0.08748781559439035
v 0.0 0.1 0.02
v 0.008677674782351163 0.1 0.018019377358048382
v 0.015636629649360596 0.1 0.012469796037174671
v 0.01949855824363647 0.1 0.004450418679126289
v 0.01949855824363647 0.1 -0.004450418679126287
v 0.0156366296493606 0.1 -0.01246979603717467
v 0.008677674782351165 0.1 -0.018019377358048382
v 2.4492935982947064e-18 0.1 -0.02
v -0.008677674782351161 0.1 -0.018019377358048382
v -0.015636629649360596 0.1 -0.012469796037174675
v -0.01949855824363647 0.1 -0.004450418679126292
v -0.01949855824363647 0.1 0.004450418679126285
v -0.0156366296493606 0.1 0.012469796037174668
v -0.008677674782351166 0.1 0.018019377358048382
v 0.0 0.07 0.02
v 0.008677674782351163 0.07 0.018019377358048382
v 0.015636629649360596 0.07 0.012469796037174671
v 0.01949855824363647 0.07 0.004450418679126289
v 0.01949855824363647 0.07 -0.004450418679126287
v 0.0156366296493606 0.07 -0.01246979603717467
v 0.008677674782351165 0.07 -0.018019377358048382
v 2.4492935982947064e-18 0.07 -0.02
v -0.008677674782351161 0.07 -0.018019377358048382
v -0.015636629649360596 0.07 -0.012469796037174675
v -0.01949855824363647 0.07 -0.004450418679126292
v -0.01949855824363647 0.07 0.004450418679126285
v -0.0156366296493606 0.07 0.012469796037174668
v -0.008677674782351166 0.07 0.018019377358048382
v -0.13348031474294675 0.06000000000000001 0.07404443875390312
v -0.14531649551443765 0.06000000000000001 0.05473549018977814
v -0.15343473567863833 0.06000000000000001 0.033592528085479925
v -0.15756301862745967 0.06000000000000001 0.011323986377458102
v -0.15756301862745967 0.06000000000000001 -0.011323986377458316
v -0.15343473567863833 0.06000000000000001 -0.03359252808548013
v -0.14531649551443765 0.06000000000000001 -0.05473549018977835
v -0.13348031474294675 0.06000000000000001 -0.07404443875390326

vn 1.4904226617617411e-01 -0.0000000000000000e+00 9.8883082622512863e-01
vn 1.2907438874616922e-01 4.9999999999999678e-01 8.5635261555611897e-01
vn -0.0000000000000000e+00 -0.0000000000000000e+00 1.0000000000000000e+00
vn -0.0000000000000000e+00 4.9999999999999828e-01 8.6602540378443960e-01
vn -1.4904226617617436e-01 -0.0000000000000000e+00 9.8883082622512863e-01
vn -1.2907438874616933e-01 4.9999999999999828e-01 8.5635261555611797e-01
vn -2.9475517441090476e-01 -0.0000000000000000e+00 9.5557280578614046e-01
vn -2.5526546893675672e-01 4.9999999999999828e-01 8.2755032497637226e-01
vn -4.3388373911755823e-01 -0.0000000000000000e+00 9.0096886790241903e-01
vn -3.7575434036478589e-01 4.9999999999999828e-01 7.8026192762240187e-01
vn -5.6332005806362206e-01 -0.0000000000000000e+00 8.2623877431599480e-01
vn -4.8784948074442225e-01 4.9999999999999839e-01 7.1554376814937004e-01
vn -6.8017273777091969e-01 -0.0000000000000000e+00 7.3305187182982601e-01
vn -5.8904686987122856e-01 4.9999999999999828e-01 6.3484154329636433e-01
vn -7.8183148246802991e-01 -0.0000000000000000e+00 6.2348980185873337e-01
vn -6.7708592529576261e-01 4.9999999999999828e-01 5.3995800741018984e-01
vn -8.6602540378443904e-01 -0.0000000000000000e+00 4.9999999999999928e-01
vn -7.5000000000000111e-01 4.9999999999999839e-01 4.3301270189221924e-01
vn -9.3087374864420447e-01 -0.0000000000000000e+00 3.6534102436639460e-01
vn -8.0616031404193200e-01 4.9999999999999828e-01 3.1639460814592762e-01
vn -9.7492791218182373e-01 -0.0000000000000000e+00 2.2252093395631425e-01
vn -8.4431233880798451e-01 4.9999999999999828e-01 1.9270878168000766e-01
vn -9.9720379718118024e-01 -0.0000000000000000e+00 7.4730093586423504e-02
vn -8.6360382110920875e-01 4.9999999999999678e-01 6.4718159473031417e-02
vn -9.9720379718118013e-01 0.0000000000000000e+00 -7.4730093586424712e-02
vn -8.6360382110920786e-01 4.9999999999999839e-01 -6.4718159473032430e-02
vn -9.7492791218182373e-01 0.0000000000000000e+00 -2.2252093395631456e-01
vn -8.4431233880798540e-01 4.9999999999999678e-01 -1.9270878168000813e-01
vn -9.3087374864420391e-01 0.0000000000000000e+00 -3.6534102436639565e-01
vn -8.0616031404193167e-01 4.9999999999999839e-01 -3.1639460814592862e-01
vn -8.6602540378443860e-01 0.0000000000000000e+00 -5.0000000000000022e-01
vn -7.5000000000000133e-01 4.9999999999999678e-01 -4.3301270189222069e-01
vn -7.8183148246802958e-01 0.0000000000000000e+00 -6.2348980185873382e-01
vn -6.7708592529576228e-01 4.9999999999999839e-01 -5.3995800741019018e-01
vn -6.8017273777091902e-01 0.0000000000000000e+00 -7.3305187182982667e-01
vn -5.8904686987122790e-01 4.9999999999999839e-01 -6.3484154329636500e-01
vn -5.6332005806362151e-01 0.0000000000000000e+00 -8.2623877431599513e-01
vn -4.8784948074442203e-01 4.9999999999999828e-01 -7.1554376814937004e-01
vn -4.3388373911755779e-01 0.0000000000000000e+00 -9.0096886790241926e-01
vn -3.7575434036478589e-01 4.9999999999999839e-01 -7.8026192762240199e-01
vn -2.9475517441090376e-01 0.0000000000000000e+00 -9.5557280578614079e-01
vn -2.5526546893675578e-01 4.9999999999999828e-01 -8.2755032497637249e-01
vn -1.4904226617617383e-01 0.0000000000000000e+00 -9.8883082622512863e-01
vn -1.2907438874616897e-01 4.9999999999999667e-01 -8.5635261555611897e-01
vn -1.2246467991473532e-16 0.0000000000000000e+00 -1.0000000000000000e+00
vn -1.0605752387249080e-16 4.9999999999999828e-01 -8.6602540378443960e-01
vn 1.2246467991473532e-16 -0.0000000000000000e+00 -1.0000000000000000e+00
vn 1.0605752387249080e-16 4.9999999999999828e-01 -8.6602540378443960e-01
vn 1.4904226617617472e-01 -0.0000000000000000e+00 -9.8883082622512863e-01
vn 1.2907438874616964e-01 4.9999999999999828e-01 -8.5635261555611797e-01
vn 2.9475517441090465e-01 -0.0000000000000000e+00 -9.5557280578614068e-01
vn 2.5526546893675656e-01 4.9999999999999828e-01 -8.2755032497637226e-01
vn 4.3388373911755823e-01 -0.0000000000000000e+00 -9.0096886790241903e-01
vn 3.7575434036478589e-01 4.9999999999999839e-01 -7.8026192762240199e-01
vn 5.6332005806362229e-01 -0.0000000000000000e+00 -8.2623877431599480e-01
vn 4.8784948074442241e-01 4.9999999999999822e-01 -7.1554376814936982e-01
vn 6.8017273777091969e-01 -0.0000000000000000e+00 -7.3305187182982601e-01
vn 5.8904686987122856e-01 4.9999999999999828e-01 -6.3484154329636433e-01
vn 7.8183148246802991e-01 -0.0000000000000000e+00 -6.2348980185873348e-01
vn 6.7708592529576261e-01 4.9999999999999839e-01 -5.3995800741018996e-01
vn 8.6602540378443904e-01 -0.0000000000000000e+00 -4.9999999999999939e-01
vn 7.5000000000000111e-01 4.9999999999999839e-01 -4.3301270189221924e-01
vn 9.3087374864420425e-01 -0.0000000000000000e+00 -3.6534102436639465e-01
vn 8.0616031404193123e-01 4.9999999999999983e-01 -3.1639460814592746e-01
vn 9.7492791218182373e-01 -0.0000000000000000e+00 -2.2252093395631434e-01
vn 8.4431233880798451e-01 4.9999999999999839e-01 -1.9270878168000777e-01
vn 9.9720379718118024e-01 -0.0000000000000000e+00 -7.4730093586423602e-02
vn 8.6360382110920875e-01 4.9999999999999678e-01 -6.4718159473031514e-02
vn 9.9720379718118013e-01 -0.0000000000000000e+00 7.4730093586424601e-02
vn 8.6360382110920786e-01 4.9999999999999839e-01 6.4718159473032333e-02
vn 9.7492791218182373e-01 -0.0000000000000000e+00 2.2252093395631442e-01
vn 8.4431233880798540e-01 4.9999999999999678e-01 1.9270878168000802e-01
vn 9.3087374864420391e-01 -0.0000000000000000e+00 3.6534102436639548e-01
vn 8.0616031404193167e-01 4.9999999999999828e-01 3.1639460814592851e-01
vn 8.6602540378443837e-01 -0.0000000000000000e+00 5.0000000000000022e-01
vn 7.5000000000000056e-01 4.9999999999999828e-01 4.3301270189222008e-01
vn 7.8183148246802980e-01 -0.0000000000000000e+00 6.2348980185873359e-01
vn 6.7708592529576250e-01 4.9999999999999839e-01 5.3995800741018996e-01
vn 6.8017273777091891e-01 -0.0000000000000000e+00 7.3305187182982678e-01
vn 5.8904686987122767e-01 4.9999999999999828e-01 6.3484154329636500e-01
vn 5.6332005806362184e-01 -0.0000000000000000e+00 8.2623877431599513e-01
vn 4.8784948074442197e-01 4.9999999999999828e-01 7.1554376814937004e-01
vn 4.3388373911755806e-01 -0.0000000000000000e+00 9.0096886790241903e-01
vn 3.7575434036478567e-01 4.9999999999999828e-01 7.8026192762240187e-01
vn 2.9475517441090365e-01 -0.0000000000000000e+00 9.5557280578614079e-01
vn 2.5526546893675572e-01 4.9999999999999828e-01 8.2755032497637249e-01
vn -0.0000000000000000e+00 -1.0000000000000000e+00 -0.0000000000000000e+00
vn -1.4904226617617428e-01 0.0000000000000000e+00 9.8883082622512863e-01
vn -1.2246467991473532e-16 0.0000000000000000e+00 1.0000000000000000e+00
vn 1.2246467991473532e-16 0.0000000000000000e+00 1.0000000000000000e+00
vn 1.4904226617617428e-01 0.0000000000000000e+00 9.8883082622512863e-01
vn 2.9475517441090376e-01 0.0000000000000000e+00 9.5557280578614079e-01
vn 2.9475517441090415e-01 0.0000000000000000e+00 9.5557280578614068e-01
vn 4.3388373911755823e-01 0.0000000000000000e+00 9.0096886790241915e-01
vn 5.6332005806362195e-01 0.0000000000000000e+00 8.2623877431599491e-01
vn 5.6332005806362229e-01 0.0000000000000000e+00 8.2623877431599480e-01
vn 6.8017273777091902e-01 0.0000000000000000e+00 7.3305187182982667e-01
vn 6.8017273777091924e-01 0.0000000000000000e+00 7.3305187182982634e-01
vn 7.8183148246802991e-01 0.0000000000000000e+00 6.2348980185873348e-01
vn 8.6602540378443860e-01 0.0000000000000000e+00 5.0000000000000022e-01
vn 8.6602540378443882e-01 0.0000000000000000e+00 4.9999999999999983e-01
vn 9.3087374864420402e-01 0.0000000000000000e+00 3.6534102436639543e-01
vn 9.3087374864420425e-01 0.0000000000000000e+00 3.6534102436639510e-01
vn 9.7492791218182362e-01 0.0000000000000000e+00 2.2252093395631434e-01
vn 9.9720379718118013e-01 0.0000000000000000e+00 7.4730093586424490e-02
vn 9.9720379718118013e-01 0.0000000000000000e+00 7.4730093586424268e-02
vn 9.9720379718118024e-01 0.0000000000000000e+00 -7.4730093586423504e-02
vn 9.9720379718118013e-01 0.0000000000000000e+00 -7.4730093586424171e-02
vn 9.7492791218182362e-01 0.0000000000000000e+00 -2.2252093395631425e-01
vn 9.3087374864420436e-01 0.0000000000000000e+00 -3.6534102436639460e-01
vn 9.3087374864420425e-01 0.0000000000000000e+00 -3.6534102436639498e-01
vn 8.6602540378443904e-01 0.0000000000000000e+00 -4.9999999999999928e-01
vn 8.6602540378443860e-01 0.0000000000000000e+00 -5.0000000000000011e-01
vn 6.8017273777091980e-01 0.0000000000000000e+00 -7.3305187182982601e-01
vn 6.8017273777091924e-01 0.0000000000000000e+00 -7.3305187182982634e-01
vn 5.6332005806362218e-01 0.0000000000000000e+00 -8.2623877431599480e-01
vn 5.6332005806362195e-01 0.0000000000000000e+00 -8.2623877431599491e-01
vn 4.3388373911755823e-01 0.0000000000000000e+00 -9.0096886790241915e-01
vn 2.9475517441090471e-01 0.0000000000000000e+00 -9.5557280578614057e-01
vn 2.9475517441090415e-01 0.0000000000000000e+00 -9.5557280578614068e-01
vn 1.4904226617617472e-01 0.0000000000000000e+00 -9.8883082622512841e-01
vn 1.4904226617617428e-01 0.0000000000000000e+00 -9.8883082622512863e-01
vn -1.4904226617617400e-01 0.0000000000000000e+00 -9.8883082622512863e-01
vn -1.4904226617617444e-01 0.0000000000000000e+00 -9.8883082622512863e-01
vn -2.9475517441090388e-01 0.0000000000000000e+00 -9.5557280578614079e-01
vn -2.9475517441090437e-01 0.0000000000000000e+00 -9.5557280578614068e-01
vn -4.3388373911755801e-01 0.0000000000000000e+00 -9.0096886790241926e-01
vn -5.6332005806362173e-01 0.0000000000000000e+00 -8.2623877431599524e-01
vn -5.6332005806362206e-01 0.0000000000000000e+00 -8.2623877431599480e-01
vn -6.8017273777091902e-01 0.0000000000000000e+00 -7.3305187182982656e-01
vn -6.8017273777091958e-01 0.0000000000000000e+00 -7.3305187182982623e-01
vn -7.8183148246802958e-01 0.0000000000000000e+00 -6.2348980185873359e-01
vn -8.6602540378443849e-01 0.0000000000000000e+00 -5.0000000000000033e-01
vn -8.6602540378443882e-01 0.0000000000000000e+00 -4.9999999999999967e-01
vn -9.3087374864420402e-01 0.0000000000000000e+00 -3.6534102436639554e-01
vn -9.3087374864420436e-01 0.0000000000000000e+00 -3.6534102436639482e-01
vn -9.7492791218182362e-01 0.0000000000000000e+00 -2.2252093395631473e-01
vn -9.9720379718118013e-01 0.0000000000000000e+00 -7.4730093586424823e-02
vn -9.9720379718118013e-01 0.0000000000000000e+00 -7.4730093586423949e-02
vn -9.9720379718118024e-01 0.0000000000000000e+00 7.4730093586423380e-02
vn -9.9720379718118013e-01 0.0000000000000000e+00 7.4730093586424268e-02
vn -9.7492791218182362e-01 0.0000000000000000e+00 2.2252093395631434e-01
vn -9.3087374864420436e-01 0.0000000000000000e+00 3.6534102436639448e-01
vn -9.3087374864420402e-01 0.0000000000000000e+00 3.6534102436639543e-01
vn -8.6602540378443904e-01 0.0000000000000000e+00 4.9999999999999933e-01
vn -8.6602540378443860e-01 0.0000000000000000e+00 5.0000000000000022e-01
vn -7.8183148246802991e-01 0.0000000000000000e+00 6.2348980185873348e-01
vn -6.8017273777091980e-01 0.0000000000000000e+00 7.3305187182982601e-01
vn -6.8017273777091902e-01 0.0000000000000000e+00 7.3305187182982667e-01
vn -5.6332005806362195e-01 0.0000000000000000e+00 8.2623877431599491e-01
vn -4.3388373911755823e-01 0.0000000000000000e+00 9.0096886790241915e-01
vn -2.9475517441090465e-01 0.0000000000000000e+00 9.5557280578614057e-01
vn -2.9475517441090376e-01 0.0000000000000000e+00 9.5557280578614079e-01
vn -4.3388373911755829e-01 -0.0000000000000000e+00 -9.0096886790241915e-01
vn 4.3388373911755829e-01 -0.0000000000000000e+00 -9.0096886790241915e-01
vn -7.8183148246802991e-01 -0.0000000000000000e+00 -6.2348980185873348e-01
vn -9.7492791218182362e-01 -0.0000000000000000e+00 -2.2252093395631434e-01
vn -9.7492791218182362e-01 -0.0000000000000000e+00 2.2252093395631423e-01
vn -7.8183148246802991e-01 -0.0000000000000000e+00 6.2348980185873359e-01
vn -4.3388373911755806e-01 -0.0000000000000000e+00 9.0096886790241915e-01
vn -4.3388373911755834e-01 -0.0000000000000000e+00 9.0096886790241903e-01
vn 4.3388373911755829e-01 -0.0000000000000000e+00 9.0096886790241915e-01
vn 4.3388373911755818e-01 -0.0000000000000000e+00 9.0096886790241915e-01
vn 7.8183148246802991e-01 -0.0000000000000000e+00 6.2348980185873337e-01
vn 7.8183148246802991e-01 -0.0000000000000000e+00 6.2348980185873359e-01
vn 9.7492791218182362e-01 -0.0000000000000000e+00 2.2252093395631423e-01
vn 9.7492791218182362e-01 -0.0000000000000000e+00 -2.2252093395631434e-01
vn -9.0096886790241759e-01 -0.0000000000000000e+00 4.3388373911756145e-01
vn -9.7492791218182362e-01 -0.0000000000000000e+00 2.2252093395631448e-01
vn -1.0000000000000000e+00 -0.0000000000000000e+00 3.6139460187578685e-15
vn -1.0000000000000000e+00 -0.0000000000000000e+00 3.3690166589283982e-15
vn -9.7492791218182362e-01 0.0000000000000000e+00 -2.2252093395631456e-01
vn -9.0096886790242059e-01 0.0000000000000000e+00 -4.3388373911755507e-01
vn -7.8183148246802947e-01 0.0000000000000000e+00 -6.2348980185873393e-01
vn -6.2348980185873626e-01 0.0000000000000000e+00 -7.8183148246802769e-01
vn -4.3388373911755801e-01 0.0000000000000000e+00 -9.0096886790241915e-01
vn -2.2252093395631797e-01 0.0000000000000000e+00 -9.7492791218182284e-01
vn -9.9579925010296160e-17 0.0000000000000000e+00 -1.0000000000000000e+00
vn 2.2252093395631084e-01 -0.0000000000000000e+00 -9.7492791218182451e-01
vn 4.3388373911755818e-01 -0.0000000000000000e+00 -9.0096886790241915e-01
vn 6.2348980185873015e-01 -0.0000000000000000e+00 -7.8183148246803247e-01
vn 7.8183148246803003e-01 -0.0000000000000000e+00 -6.2348980185873326e-01
vn 9.0096886790241748e-01 -0.0000000000000000e+00 -4.3388373911756151e-01
vn 9.7492791218182362e-01 -0.0000000000000000e+00 -2.2252093395631414e-01
vn 1.0000000000000000e+00 -0.0000000000000000e+00 -3.6139460187578685e-15
vn 9.7492791218182362e-01 -0.0000000000000000e+00 2.2252093395631428e-01
vn 9.0096886790242081e-01 -0.0000000000000000e+00 4.3388373911755479e-01
vn 6.2348980185873681e-01 -0.0000000000000000e+00 7.8183148246802725e-01
vn 4.3388373911755812e-01 -0.0000000000000000e+00 9.0096886790241915e-01
vn 2.2252093395631786e-01 -0.0000000000000000e+00 9.7492791218182284e-01
vn -2.2252093395631073e-01 -0.0000000000000000e+00 9.7492791218182451e-01
vn -6.2348980185873071e-01 -0.0000000000000000e+00 7.8183148246803214e-01
vn -7.8183148246803003e-01 -0.0000000000000000e+00 6.2348980185873326e-01
vn -4.3388373911755829e-01 -0.0000000000000000e+00 9.0096886790241915e-01
vn 9.7492791218182362e-01 -0.0000000000000000e+00 -2.2252093395631423e-01
vn 7.8183148246802991e-01 -0.0000000000000000e+00 -6.2348980185873359e-01
vn 7.8183148246802991e-01 -0.0000000000000000e+00 -6.2348980185873337e-01
vn 4.3388373911755806e-01 -0.0000000000000000e+00 -9.0096886790241915e-01
vn -4.3388373911755806e-01 0.0000000000000000e+00 -9.0096886790241915e-01
vn -7.8183148246802991e-01 0.0000000000000000e+00 -6.2348980185873337e-01
vn -7.8183148246802991e-01 0.0000000000000000e+00 -6.2348980185873359e-01
vn -9.7492791218182362e-01 0.0000000000000000e+00 -2.2252093395631423e-01
vn 9.0096886790241459e-01 -0.0000000000000000e+00 -4.3388373911756772e-01
vn 1.0000000000000000e+00 -0.0000000000000000e+00 -1.0596908696444135e-14
vn 1.0000000000000000e+00 -0.0000000000000000e+00 -1.0351979336614665e-14
vn 9.7492791218182373e-01 -0.0000000000000000e+00 -2.2252093395631409e-01
vn 9.7492791218182362e-01 -0.0000000000000000e+00 2.2252093395631425e-01
vn 9.0096886790242359e-01 -0.0000000000000000e+00 4.3388373911754879e-01
vn 7.8183148246802969e-01 -0.0000000000000000e+00 6.2348980185873371e-01
vn 6.2348980185874137e-01 -0.0000000000000000e+00 7.8183148246802359e-01
vn 4.3388373911755790e-01 -0.0000000000000000e+00 9.0096886790241926e-01
vn 2.2252093395632500e-01 -0.0000000000000000e+00 9.7492791218182118e-01
vn -2.2884754904438988e-17 -0.0000000000000000e+00 1.0000000000000000e+00
vn -2.2252093395630382e-01 -0.0000000000000000e+00 9.7492791218182606e-01
vn -4.3388373911755812e-01 -0.0000000000000000e+00 9.0096886790241915e-01
vn -6.2348980185872471e-01 -0.0000000000000000e+00 7.8183148246803680e-01
vn -7.8183148246803014e-01 -0.0000000000000000e+00 6.2348980185873315e-01
vn -9.0096886790241437e-01 -0.0000000000000000e+00 4.3388373911756800e-01
vn -9.7492791218182373e-01 -0.0000000000000000e+00 2.2252093395631406e-01
vn -1.0000000000000000e+00 -0.0000000000000000e+00 1.0596908696444135e-14
vn -9.7492791218182362e-01 0.0000000000000000e+00 -2.2252093395631442e-01
vn -9.0096886790242381e-01 0.0000000000000000e+00 -4.3388373911754829e-01
vn -6.2348980185874214e-01 0.0000000000000000e+00 -7.8183148246802292e-01
vn -2.2252093395632488e-01 0.0000000000000000e+00 -9.7492791218182118e-01
vn 2.2252093395630368e-01 -0.0000000000000000e+00 -9.7492791218182606e-01
vn 6.2348980185872527e-01 -0.0000000000000000e+00 -7.8183148246803646e-01
vn 7.8183148246803014e-01 -0.0000000000000000e+00 -6.2348980185873315e-01
vn -0.0000000000000000e+00 1.0000000000000000e+00 0.0000000000000000e+00
vn -8.1229119361420932e-01 -0.0000000000000000e+00 -5.8325210396260307e-01
vn -6.9925501657051381e-01 -0.0000000000000000e+00 -7.1487231153610264e-01
vn -5.6517052486137631e-01 -0.0000000000000000e+00 -8.2497410736817456e-01
vn -4.1407380332905047e-01 -0.0000000000000000e+00 -9.1024331109688184e-01
vn -2.5051302290454802e-01 -0.0000000000000000e+00 -9.6811322961481394e-01
vn -7.9411535858092602e-02 -0.0000000000000000e+00 -9.9684191724297944e-01
vn 9.4080322305045816e-02 -0.0000000000000000e+00 -9.9556461013586584e-01
vn 2.6474026338389423e-01 -0.0000000000000000e+00 -9.6431975658669689e-01
vn 4.2743124287324197e-01 -0.0000000000000000e+00 -9.0404785969318879e-01
vn 5.7725609042983506e-01 -0.0000000000000000e+00 -8.1656316722079880e-01
vn 7.0970491987289153e-01 -0.0000000000000000e+00 -7.0449906082848157e-01
vn 8.2079088152222168e-01 -0.0000000000000000e+00 -5.7122878849894665e-01
vn 9.0717017058515281e-01 -0.0000000000000000e+00 -4.2076392621101039e-01
vn 9.6624267921306184e-01 -0.0000000000000000e+00 -2.5763362526495670e-01
vn 9.9623026249427582e-01 -0.0000000000000000e+00 -8.6748280043965662e-02
vn 9.9623026249427593e-01 -0.0000000000000000e+00 8.6748280043965301e-02
vn 9.6624267921306184e-01 -0.0000000000000000e+00 2.5763362526495631e-01
vn 9.0717017058515259e-01 -0.0000000000000000e+00 4.2076392621101083e-01
vn 8.2079088152222190e-01 -0.0000000000000000e+00 5.7122878849894621e-01
vn 7.0970491987289153e-01 -0.0000000000000000e+00 7.0449906082848157e-01
vn 5.7725609042983428e-01 -0.0000000000000000e+00 8.1656316722079925e-01
vn 4.2743124287324191e-01 -0.0000000000000000e+00 9.0404785969318890e-01
vn 2.6474026338389417e-01 -0.0000000000000000e+00 9.6431975658669689e-01
vn 9.4080322305045747e-02 -0.0000000000000000e+00 9.9556461013586584e-01
vn -7.9411535858093574e-02 -0.0000000000000000e+00 9.9684191724297921e-01
vn -2.5051302290454808e-01 -0.0000000000000000e+00 9.6811322961481394e-01
vn -4.1407380332905214e-01 -0.0000000000000000e+00 9.1024331109688117e-01
vn -5.6517052486137720e-01 -0.0000000000000000e+00 8.2497410736817389e-01
vn -6.9925501657051459e-01 -0.0000000000000000e+00 7.1487231153610187e-01
vn -8.1229119361420987e-01 -0.0000000000000000e+00 5.8325210396260230e-01
vn -1.0000000000000000e+00 0.0000000000000000e+00 0.0000000000000000e+00
vn -9.7492791218182351e-01 0.0000000000000000e+00 -2.2252093395631467e-01
vn -7.8183148246802969e-01 0.0000000000000000e+00 -6.2348980185873371e-01
vn 8.0115809517056680e-01 0.0000000000000000e+00 5.9845276049381613e-01
vn 8.9682220142363955e-01 0.0000000000000000e+00 4.4239116066401762e-01
vn 9.6243662592843171e-01 0.0000000000000000e+00 2.7150642915315293e-01
vn 9.9580283638797740e-01 0.0000000000000000e+00 9.1524374030413039e-02
vn 9.9580283638797762e-01 0.0000000000000000e+00 -9.1524374030412733e-02
vn 9.6243662592843171e-01 0.0000000000000000e+00 -2.7150642915315254e-01
vn 8.9682220142363989e-01 0.0000000000000000e+00 -4.4239116066401724e-01
vn 8.0115809517056680e-01 0.0000000000000000e+00 -5.9845276049381635e-01

g face 0
f 2//1 84//2 1//3
f 1//3 84//2 43//4
f 1//3 43//4 42//5
f 42//5 43//4 44//6
f 42//5 44//6 41//7
f 41//7 44//6 45//8
f 41//7 45//8 40//9
f 40//9 45//8 46//10
f 40//9 46//10 39//11
f 39//11 46//10 47//12
f 39//11 47//12 38//13
f 38//13 47//12 48//14
f 38//13 48//14 37//15
f 37//15 48//14 49//16
f 37//15 49//16 36//17
f 36//17 49//16 50//18
f 36//17 50//18 35//19
f 35//19 50//18 51//20
f 35//19 51//20 34//21
f 34//21 51//20 52//22
f 34//21 52//22 33//23
f 33//23 52//22 53//24
f 33//23 53//24 32//25
f 32//25 53//24 54//26
f 32//25 54//26 31//27
f 31//27 54//26 55//28
f 31//27 55//28 30//29
f 30//29 55//28 56//30
f 30//29 56//30 29//31
f 29//31 56//30 57//32
f 29//31 57//32 28//33
f 28//33 57//32 58//34
f 28//33 58//34 27//35
f 27//35 58//34 59//36
f 27//35 59//36 26//37
f 26//37 59//36 60//38
f 26//37 60//38 25//39
f 25//39 60//38 61//40
f 25//39 61//40 24//41
f 24//41 61//40 62//42
f 24//41 62//42 23//43
f 23//43 62//42 63//44
f 23//43 63//44 22//45
f 22//45 63//44 64//46
f 22//47 64//48 21//49
f 21//49 64//48 65//50
f 21//49 65//50 20//51
f 20//51 65//50 66//52
f 20//51 66//52 19//53
f 19//53 66//52 67//54
f 19//53 67//54 18//55
f 18//55 67//54 68//56
f 18//55 68//56 17//57
f 17//57 68//56 69//58
f 17//57 69//58 16//59
f 16//59 69//58 70//60
f 16//59 70//60 15//61
f 15//61 70//60 71//62
f 15//61 71//62 14//63
f 14//63 71//62 72//64
f 14//63 72//64 13//65
f 13//65 72//64 73//66
f 13//65 73//66 12//67
f 12//67 73//66 74//68
f 12//67 74//68 11//69
f 11//69 74//68 75//70
f 11//69 75//70 10//71
f 10//71 75//70 76//72
f 10//71 76//72 9//73
f 9//73 76//72 77//74
f 9//73 77//74 8//75
f 8//75 77//74 78//76
f 8//75 78//76 7//77
f 7//77 78//76 79//78
f 7//77 79//78 6//79
f 6//79 79//78 80//80
f 6//79 80//80 5//81
f 5//81 80//80 81//82
f 5//81 81//82 4//83
f 4//83 81//82 82//84
f 4//83 82//84 3//85
f 3//85 82//84 83//86
f 3//85 83//86 2//1
f 2//1 83//86 84//2

g face 1
f 86//87 182//87 85//87
f 85//87 182//87 169//87
f 85//87 169//87 170//87
f 87//87 180//87 86//87
f 86//87 180//87 181//87
f 86//87 181//87 182//87
f 180//87 87//87 179//87
f 179//87 87//87 88//87
f 179//87 88//87 178//87
f 178//87 88//87 89//87
f 178//87 89//87 90//87
f 91//87 143//87 90//87
f 90//87 143//87 177//87
f 90//87 177//87 178//87
f 91//87 92//87 143//87
f 143//87 92//87 142//87
f 142//87 92//87 93//87
f 142//87 93//87 141//87
f 141//87 93//87 94//87
f 141//87 94//87 154//87
f 154//87 94//87 153//87
f 153//87 94//87 95//87
f 153//87 95//87 152//87
f 152//87 95//87 96//87
f 152//87 96//87 151//87
f 151//87 96//87 150//87
f 150//87 96//87 97//87
f 150//87 97//87 149//87
f 149//87 97//87 148//87
f 148//87 97//87 98//87
f 148//87 98//87 147//87
f 147//87 98//87 99//87
f 147//87 99//87 146//87
f 146//87 99//87 100//87
f 146//87 100//87 101//87
f 102//87 167//87 101//87
f 101//87 167//87 168//87
f 101//87 168//87 146//87
f 146//87 168//87 145//87
f 145//87 168//87 155//87
f 145//87 155//87 176//87
f 176//87 155//87 138//87
f 176//87 138//87 175//87
f 175//87 138//87 139//87
f 175//87 139//87 122//87
f 122//87 139//87 121//87
f 121//87 139//87 120//87
f 120//87 139//87 140//87
f 120//87 140//87 119//87
f 119//87 140//87 127//87
f 119//87 127//87 118//87
f 118//87 127//87 128//87
f 118//87 128//87 129//87
f 102//87 103//87 167//87
f 167//87 103//87 166//87
f 166//87 103//87 104//87
f 166//87 104//87 165//87
f 165//87 104//87 105//87
f 165//87 105//87 164//87
f 164//87 105//87 163//87
f 163//87 105//87 106//87
f 163//87 106//87 162//87
f 162//87 106//87 161//87
f 161//87 106//87 107//87
f 161//87 107//87 160//87
f 160//87 107//87 159//87
f 159//87 107//87 108//87
f 159//87 108//87 158//87
f 158//87 108//87 109//87
f 158//87 109//87 157//87
f 157//87 109//87 110//87
f 157//87 110//87 111//87
f 112//87 136//87 111//87
f 111//87 136//87 156//87
f 111//87 156//87 157//87
f 112//87 113//87 136//87
f 136//87 113//87 135//87
f 135//87 113//87 114//87
f 135//87 114//87 134//87
f 134//87 114//87 115//87
f 134//87 115//87 133//87
f 133//87 115//87 132//87
f 132//87 115//87 116//87
f 132//87 116//87 131//87
f 131//87 116//87 117//87
f 131//87 117//87 130//87
f 130//87 117//87 129//87
f 129//87 117//87 118//87
f 175//87 122//87 174//87
f 174//87 122//87 123//87
f 174//87 123//87 124//87
f 174//87 124//87 173//87
f 173//87 124//87 125//87
f 173//87 125//87 172//87
f 172//87 125//87 126//87
f 172//87 126//87 171//87
f 171//87 126//87 170//87
f 170//87 126//87 85//87
f 136//87 137//87 156//87
f 156//87 137//87 155//87
f 155//87 137//87 138//87
f 143//87 144//87 177//87
f 177//87 144//87 176//87
f 176//87 144//87 145//87

g face 2
f 42//88 86//88 1//89
f 1//89 86//88 85//89
f 1//90 85//90 2//91
f 2//91 85//90 126//91
f 2//91 126//91 3//92
f 3//92 126//91 125//93
f 3//92 125//93 4//94
f 4//94 125//93 124//94
f 4//94 124//94 5//95
f 5//95 124//94 123//96
f 5//95 123//96 6//97
f 6//97 123//96 122//98
f 6//97 122//98 7//99
f 7//99 122//98 121//99
f 7//99 121//99 8//100
f 8//100 121//99 120//101
f 8//100 120//101 9//102
f 9//102 120//101 119//103
f 9//102 119//103 10//104
f 10//104 119//103 118//104
f 10//104 118//104 11//105
f 11//105 118//104 117//106
f 11//105 117//106 12//107
f 12//107 117//106 116//108
f 12//107 116//108 13//109
f 13//109 116//108 115//109
f 13//109 115//109 14//110
f 14//110 115//109 114//111
f 14//110 114//111 15//112
f 15//112 114//111 113//113
f 15//112 113//113 16//59
f 16//59 113//113 112//59
f 16//59 112//59 17//114
f 17//114 112//59 111//115
f 17//114 111//115 18//116
f 18//116 111//115 110//117
f 18//116 110//117 19//118
f 19//118 110//117 109//118
f 19//118 109//118 20//119
f 20//119 109//118 108//120
f 20//119 108//120 21//121
f 21//121 108//120 107//122
f 21//121 107//122 22//47
f 22//47 107//122 106//47
f 22//47 106//47 23//123
f 23//123 106//47 105//124
f 23//123 105//124 24//125
f 24//125 105//124 104//126
f 24//125 104//126 25//127
f 25//127 104//126 103//127
f 25//127 103//127 26//128
f 26//128 103//127 102//129
f 26//128 102//129 27//130
f 27//130 102//129 101//131
f 27//130 101//131 28//132
f 28//132 101//131 100//132
f 28//132 100//132 29//133
f 29//133 100//132 99//134
f 29//133 99//134 30//135
f 30//135 99//134 98//136
f 30//135 98//136 31//137
f 31//137 98//136 97//137
f 31//137 97//137 32//138
f 32//138 97//137 96//139
f 32//138 96//139 33//140
f 33//140 96//139 95//141
f 33//140 95//141 34//142
f 34//142 95//141 94//142
f 34//142 94//142 35//143
f 35//143 94//142 93//144
f 35//143 93//144 36//145
f 36//145 93//144 92//146
f 36//145 92//146 37//147
f 37//147 92//146 91//147
f 37//147 91//147 38//148
f 38//148 91//147 90//149
f 38//148 90//149 39//150
f 39//150 90//149 89//150
f 39//150 89//150 40//151
f 40//151 89//150 88//151
f 40//151 88//151 41//152
f 41//152 88//151 87//153
f 41//152 87//153 42//88
f 42//88 87//153 86//88

g face 3
f 184//154 177//154 183//45
f 183//45 177//154 176//45
f 183//47 176//47 196//155
f 196//155 176//47 175//155
f 196//155 175//155 174//59
f 184//154 185//156 177//154
f 177//154 185//156 178//156
f 178//156 185//156 186//157
f 178//156 186//157 179//157
f 179//157 186//157 187//158
f 179//157 187//158 180//158
f 180//158 187//158 188//159
f 180//158 188//159 181//15
f 181//15 188//159 189//160
f 181//15 189//160 182//161
f 182//161 189//160 190//90
f 182//161 190//90 169//3
f 169//3 190//90 191//162
f 169//3 191//162 170//163
f 170//163 191//162 192//164
f 170//163 192//164 171//165
f 171//165 192//164 193//166
f 171//165 193//166 172//166
f 172//166 193//166 194//167
f 172//166 194//167 173//167
f 173//167 194//167 195//59
f 173//167 195//59 174//59
f 174//59 195//59 196//155

g face 4
f 196//87 191//87 183//87
f 183//87 191//87 190//87
f 183//87 190//87 184//87
f 184//87 190//87 189//87
f 184//87 189//87 185//87
f 185//87 189//87 188//87
f 185//87 188//87 186//87
f 186//87 188//87 187//87
f 191//87 196//87 192//87
f 192//87 196//87 195//87
f 192//87 195//87 193//87
f 193//87 195//87 194//87

g face 5
f 198//168 138//169 197//170
f 197//171 138//158 137//172
f 197//171 137//172 210//173
f 210//173 137//172 136//174
f 210//173 136//174 209//175
f 209//175 136//174 135//176
f 209//175 135//176 208//177
f 208//177 135//176 134//178
f 208//177 134//178 207//179
f 207//179 134//178 133//180
f 207//179 133//180 206//181
f 206//181 133//180 132//182
f 206//181 132//182 205//183
f 205//183 132//182 131//184
f 205//183 131//184 204//185
f 204//185 131//184 130//186
f 204//185 130//186 203//187
f 203//187 130//186 129//164
f 203//187 129//164 202//188
f 202//188 129//164 128//189
f 202//188 128//189 201//190
f 201//190 128//189 127//3
f 201//190 127//3 200//191
f 200//191 127//3 140//160
f 200//191 140//160 199//192
f 199//192 140//160 139//193
f 199//192 139//193 198//168
f 198//168 139//193 138//169

g face 6
f 210//87 204//87 197//87
f 197//87 204//87 203//87
f 197//87 203//87 198//87
f 198//87 203//87 202//87
f 198//87 202//87 199//87
f 199//87 202//87 201//87
f 199//87 201//87 200//87
f 204//87 210//87 205//87
f 205//87 210//87 209//87
f 205//87 209//87 206//87
f 206//87 209//87 208//87
f 206//87 208//87 207//87

g face 7
f 212//162 156//162 211//90
f 211//90 156//162 155//90
f 211//89 155//89 224//194
f 224//194 155//89 168//194
f 224//194 168//194 167//147
f 212//162 213//99 156//162
f 156//162 213//99 157//99
f 157//99 213//99 214//104
f 157//99 214//104 158//104
f 158//104 214//104 215//195
f 158//104 215//195 159//195
f 159//195 215//195 216//196
f 159//195 216//196 160//197
f 160//197 216//196 217//198
f 160//197 217//198 161//155
f 161//155 217//198 218//45
f 161//155 218//45 162//47
f 162//47 218//45 219//154
f 162//47 219//154 163//199
f 163//199 219//154 220//200
f 163//199 220//200 164//201
f 164//201 220//200 221//202
f 164//201 221//202 165//202
f 165//202 221//202 222//142
f 165//202 222//142 166//142
f 166//142 222//142 223//147
f 166//142 223//147 167//147
f 167//147 223//147 224//194

g face 8
f 224//87 219//87 211//87
f 211//87 219//87 218//87
f 211//87 218//87 212//87
f 212//87 218//87 217//87
f 212//87 217//87 213//87
f 213//87 217//87 216//87
f 213//87 216//87 214//87
f 214//87 216//87 215//87
f 219//87 224//87 220//87
f 220//87 224//87 223//87
f 220//87 223//87 221//87
f 221//87 223//87 222//87

g face 9
f 226//203 145//167 225//204
f 225//205 145//206 144//207
f 225//205 144//207 238//208
f 238//208 144//207 143//209
f 238//208 143//209 237//210
f 237//210 143//209 142//211
f 237//210 142//211 236//212
f 236//212 142//211 141//213
f 236//212 141//213 235//214
f 235//214 141//213 154//215
f 235//214 154//215 234//216
f 234//216 154//215 153//217
f 234//216 153//217 233//218
f 233//218 153//217 152//219
f 233//218 152//219 232//220
f 232//220 152//219 151//221
f 232//220 151//221 231//222
f 231//222 151//221 150//200
f 231//222 150//200 230//223
f 230//223 150//200 149//176
f 230//223 149//176 229//224
f 229//224 149//176 148//178
f 229//224 148//178 228//225
f 228//225 148//178 147//118
f 228//225 147//118 227//226
f 227//226 147//118 146//227
f 227//226 146//227 226//203
f 226//203 146//227 145//167

g face 10
f 238//87 232//87 225//87
f 225//87 232//87 231//87
f 225//87 231//87 226//87
f 226//87 231//87 230//87
f 226//87 230//87 227//87
f 227//87 230//87 229//87
f 227//87 229//87 228//87
f 232//87 238//87 233//87
f 233//87 238//87 237//87
f 233//87 237//87 234//87
f 234//87 237//87 236//87
f 234//87 236//87 235//87

g face 11
f 84//228 263//228 43//228
f 43//228 263//228 264//228
f 43//228 264//228 44//228
f 44//228 264//228 265//228
f 44//228 265//228 45//228
f 45//228 265//228 266//228
f 45//228 266//228 46//228
f 46//228 266//228 267//228
f 46//228 267//228 47//228
f 47//228 267//228 48//228
f 48//228 267//228 268//228
f 48//228 268//228 49//228
f 49//228 268//228 239//228
f 49//228 239//228 50//228
f 50//228 239//228 269//228
f 50//228 269//228 270//228
f 263//228 84//228 262//228
f 262//228 84//228 83//228
f 262//228 83//228 261//228
f 261//228 83//228 82//228
f 261//228 82//228 81//228
f 261//228 81//228 260//228
f 260//228 81//228 80//228
f 260//228 80//228 259//228
f 259//228 80//228 79//228
f 259//228 79//228 258//228
f 258//228 79//228 78//228
f 258//228 78//228 257//228
f 257//228 78//228 77//228
f 257//228 77//228 256//228
f 256//228 77//228 76//228
f 256//228 76//228 255//228
f 255//228 76//228 75//228
f 255//228 75//228 74//228
f 255//228 74//228 254//228
f 254//228 74//228 73//228
f 254//228 73//228 253//228
f 253//228 73//228 72//228
f 253//228 72//228 252//228
f 252//228 72//228 71//228
f 252//228 71//228 251//228
f 251//228 71//228 70//228
f 251//228 70//228 250//228
f 250//228 70//228 69//228
f 250//228 69//228 249//228
f 249//228 69//228 68//228
f 249//228 68//228 248//228
f 248//228 68//228 67//228
f 248//228 67//228 66//228
f 248//228 66//228 247//228
f 247//228 66//228 65//228
f 247//228 65//228 246//228
f 246//228 65//228 64//228
f 246//228 64//228 245//228
f 245//228 64//228 63//228
f 245//228 63//228 244//228
f 244//228 63//228 62//228
f 244//228 62//228 243//228
f 243//228 62//228 61//228
f 243//228 61//228 242//228
f 242//228 61//228 60//228
f 242//228 60//228 59//228
f 242//228 59//228 241//228
f 241//228 59//228 58//228
f 241//228 58//228 240//228
f 240//228 58//228 57//228
f 240//228 57//228 276//228
f 276//228 57//228 275//228
f 275//228 57//228 56//228
f 275//228 56//228 274//228
f 274//228 56//228 55//228
f 274//228 55//228 273//228
f 273//228 55//228 54//228
f 273//228 54//228 53//228
f 273//228 53//228 272//228
f 272//228 53//228 52//228
f 272//228 52//228 271//228
f 271//228 52//228 51//228
f 271//228 51//228 270//228
f 270//228 51//228 50//228
f 239//228 240//228 269//228
f 269//228 240//228 276//228

g face 12
f 240//229 277//229 241//230
f 241//230 277//229 278//230
f 241//230 278//230 242//231
f 242//231 278//230 279//231
f 242//231 279//231 243//232
f 243//232 279//231 280//232
f 243//232 280//232 244//233
f 244//233 280//232 281//233
f 244//233 281//233 245//234
f 245//234 281//233 282//234
f 245//234 282//234 246//235
f 246//235 282//234 283//235
f 246//235 283//235 247//236
f 247//236 283//235 284//236
f 247//236 284//236 248//237
f 248//237 284//236 285//237
f 248//237 285//237 249//238
f 249//238 285//237 286//238
f 249//238 286//238 250//239
f 250//239 286//238 287//239
f 250//239 287//239 251//240
f 251//240 287//239 288//240
f 251//240 288//240 252//241
f 252//241 288//240 289//241
f 252//241 289//241 253//242
f 253//242 289//241 290//242
f 253//242 290//242 254//243
f 254//243 290//242 291//243
f 254//243 291//243 255//244
f 255//244 291//243 292//244
f 255//244 292//244 256//245
f 256//245 292//244 293//245
f 256//245 293//245 257//246
f 257//246 293//245 294//246
f 257//246 294//246 258//247
f 258//247 294//246 295//247
f 258//247 295//247 259//248
f 259//248 295//247 296//248
f 259//248 296//248 260//249
f 260//249 296//248 297//249
f 260//249 297//249 261//250
f 261//250 297//249 298//250
f 261//250 298//250 262//251
f 262//251 298//250 299//251
f 262//251 299//251 263//252
f 263//252 299//251 300//252
f 263//252 300//252 264//253
f 264//253 300//252 301//253
f 264//253 301//253 265//254
f 265//254 301//253 302//254
f 265//254 302//254 266//255
f 266//255 302//254 303//255
f 266//255 303//255 267//256
f 267//256 303//255 304//256
f 267//256 304//256 268//257
f 268//257 304//256 305//257
f 268//257 305//257 239//258
f 239//258 305//257 306//258

g face 13
f 306//259 277//259 239//259
f 239//259 277//259 240//259

g face 14
f 308//228 313//228 307//228
f 307//228 313//228 314//228
f 307//228 314//228 320//228
f 320//228 314//228 315//228
f 320//228 315//228 319//228
f 319//228 315//228 316//228
f 319//228 316//228 318//228
f 318//228 316//228 317//228
f 313//228 308//228 312//228
f 312//228 308//228 309//228
f 312//228 309//228 311//228
f 311//228 309//228 310//228

g face 15
f 320//194 334//194 307//89
f 307//89 334//194 321//89
f 307//90 321//90 308//162
f 308//162 321//90 322//162
f 308//162 322//162 323//99
f 320//194 319//147 334//194
f 334//194 319//147 333//147
f 333//147 319//147 318//142
f 333//147 318//142 332//142
f 332//142 318//142 317//260
f 332//142 317//260 331//260
f 331//260 317//260 316//261
f 331//260 316//261 330//261
f 330//261 316//261 315//176
f 330//261 315//176 329//176
f 329//176 315//176 314//47
f 329//176 314//47 328//47
f 328//47 314//47 313//155
f 328//47 313//155 327//155
f 327//155 313//155 312//196
f 327//155 312//196 326//196
f 326//196 312//196 311//195
f 326//196 311//195 325//195
f 325//195 311//195 310//104
f 325//195 310//104 324//104
f 324//104 310//104 309//99
f 324//104 309//99 323//99
f 323//99 309//99 308//162

g face 16
f 306//228 331//228 277//228
f 277//228 331//228 330//228
f 277//228 330//228 278//228
f 278//228 330//228 279//228
f 279//228 330//228 329//228
f 279//228 329//228 280//228
f 280//228 329//228 281//228
f 281//228 329//228 328//228
f 281//228 328//228 282//228
f 282//228 328//228 283//228
f 283//228 328//228 327//228
f 283//228 327//228 284//228
f 284//228 327//228 285//228
f 285//228 327//228 286//228
f 286//228 327//228 326//228
f 286//228 326//228 287//228
f 287//228 326//228 288//228
f 288//228 326//228 325//228
f 288//228 325//228 289//228
f 289//228 325//228 290//228
f 290//228 325//228 291//228
f 291//228 325//228 324//228
f 291//228 324//228 292//228
f 292//228 324//228 293//228
f 293//228 324//228 294//228
f 294//228 324//228 295//228
f 295//228 324//228 323//228
f 295//228 323//228 296//228
f 296//228 323//228 297//228
f 297//228 323//228 322//228
f 297//228 322//228 298//228
f 298//228 322//228 299//228
f 299//228 322//228 300//228
f 300//228 322//228 321//228
f 300//228 321//228 301//228
f 301//228 321//228 302//228
f 302//228 321//228 334//228
f 302//228 334//228 303//228
f 303//228 334//228 304//228
f 304//228 334//228 333//228
f 304//228 333//228 305//228
f 305//228 333//228 306//228
f 306//228 333//228 332//228
f 306//228 332//228 331//228

g face 17
f 342//262 276//262 341//263
f 341//263 276//262 275//263
f 341//263 275//263 340//264
f 340//264 275//263 274//264
f 340//264 274//264 339//265
f 339//265 274//264 273//265
f 339//265 273//265 338//266
f 338//266 273//265 272//266
f 338//266 272//266 337//267
f 337//267 272//266 271//267
f 337//267 271//267 336//268
f 336//268 271//267 270//268
f 336//268 270//268 335//269
f 335//269 270//268 269//269

g face 18
f 269//259 276//259 335//259
f 335//259 276//259 342//259

g face 19
f 335//228 342//228 336//228
f 336//228 342//228 341//228
f 336//228 341//228 337//228
f 337//228 341//228 340//228
f 337//228 340//228 338//228
f 338//228 340//228 339//228

g halfedge 0 edge 0
l 1 2 3 4 5 6 7 8 9 10 11 12 13 14 15 16 17 18 19 20 21 22 23 24 25 26 27 28 29 30 31 32 33 34 35 36 37 38 39 40 41 42 1

g halfedge 1 edge 0
l 1 42 41 40 39 38 37 36 35 34 33 32 31 30 29 28 27 26 25 24 23 22 21 20 19 18 17 16 15 14 13 12 11 10 9 8 7 6 5 4 3 2 1

g halfedge 2 edge 1
l 43 44 45 46 47 48 49 50 51 52 53 54 55 56 57 58 59 60 61 62 63 64 65 66 67 68 69 70 71 72 73 74 75 76 77 78 79 80 81 82 83 84 43

g halfedge 3 edge 1
l 43 84 83 82 81 80 79 78 77 76 75 74 73 72 71 70 69 68 67 66 65 64 63 62 61 60 59 58 57 56 55 54 53 52 51 50 49 48 47 46 45 44 43

g halfedge 4 edge 2
l 85 86 87 88 89 90 91 92 93 94 95 96 97 98 99 100 101 102 103 104 105 106 107 108 109 110 111 112 113 114 115 116 117 118 119 120 121 122 123 124 125 126 85

g halfedge 5 edge 2
l 85 126 125 124 123 122 121 120 119 118 117 116 115 114 113 112 111 110 109 108 107 106 105 104 103 102 101 100 99 98 97 96 95 94 93 92 91 90 89 88 87 86 85

g halfedge 6 edge 3
l 127 128 129 130 131 132 133 134 135 136 137 138 139 140 127

g halfedge 7 edge 3
l 127 140 139 138 137 136 135 134 133 132 131 130 129 128 127

g halfedge 8 edge 4
l 141 142 143 144 145 146 147 148 149 150 151 152 153 154 141

g halfedge 9 edge 4
l 141 154 153 152 151 150 149 148 147 146 145 144 143 142 141

g halfedge 10 edge 5
l 155 156 157 158 159 160 161 162 163 164 165 166 167 168 155

g halfedge 11 edge 5
l 155 168 167 166 165 164 163 162 161 160 159 158 157 156 155

g halfedge 12 edge 6
l 169 170 171 172 173 174 175 176 177 178 179 180 181 182 169

g halfedge 13 edge 6
l 169 182 181 180 179 178 177 176 175 174 173 172 171 170 169

g halfedge 14 edge 7
l 183 184 185 186 187 188 189 190 191 192 193 194 195 196 183

g halfedge 15 edge 7
l 183 196 195 194 193 192 191 190 189 188 187 186 185 184 183

g halfedge 16 edge 8
l 197 198 199 200 201 202 203 204 205 206 207 208 209 210 197

g halfedge 17 edge 8
l 197 210 209 208 207 206 205 204 203 202 201 200 199 198 197

g halfedge 18 edge 9
l 211 212 213 214 215 216 217 218 219 220 221 222 223 224 211

g halfedge 19 edge 9
l 211 224 223 222 221 220 219 218 217 216 215 214 213 212 211

g halfedge 20 edge 10
l 225 226 227 228 229 230 231 232 233 234 235 236 237 238 225

g halfedge 21 edge 10
l 225 238 237 236 235 234 233 232 231 230 229 228 227 226 225

g halfedge 22 edge 11
l 239 240

g halfedge 23 edge 11
l 240 239

g halfedge 24 edge 12
l 240 241 242 243 244 245 246 247 248 249 250 251 252 253 254 255 256 257 258 259 260 261 262 263 264 265 266 267 268 239

g halfedge 25 edge 12
l 239 268 267 266 265 264 263 262 261 260 259 258 257 256 255 254 253 252 251 250 249 248 247 246 245 244 243 242 241 240

g halfedge 26 edge 13
l 269 270 271 272 273 274 275 276

g halfedge 27 edge 13
l 276 275 274 273 272 271 270 269

g halfedge 28 edge 14
l 276 269

g halfedge 29 edge 14
l 269 276

g halfedge 30 edge 15
l 277 278 279 280 281 282 283 284 285 286 287 288 289 290 291 292 293 294 295 296 297 298 299 300 301 302 303 304 305 306

g halfedge 31 edge 15
l 306 305 304 303 302 301 300 299 298 297 296 295 294 293 292 291 290 289 288 287 286 285 284 283 282 281 280 279 278 277

g halfedge 32 edge 16
l 306 239

g halfedge 33 edge 16
l 239 306

g halfedge 34 edge 17
l 240 277

g halfedge 35 edge 17
l 277 240

g halfedge 36 edge 18
l 306 277

g halfedge 37 edge 18
l 277 306

g halfedge 38 edge 19
l 307 308 309 310 311 312 313 314 315 316 317 318 319 320 307

g halfedge 39 edge 19
l 307 320 319 318 317 316 315 314 313 312 311 310 309 308 307

g halfedge 40 edge 20
l 321 322 323 324 325 326 327 328 329 330 331 332 333 334 321

g halfedge 41 edge 20
l 321 334 333 332 331 330 329 328 327 326 325 324 323 322 321

g halfedge 42 edge 21
l 269 335

g halfedge 43 edge 21
l 335 269

g halfedge 44 edge 22
l 335 336 337 338 339 340 341 342

g halfedge 45 edge 22
l 342 341 340 339 338 337 336 335

g halfedge 46 edge 23
l 342 276

g halfedge 47 edge 23
l 276 342

g halfedge 48 edge 24
l 342 335

g halfedge 49 edge 24
l 335 342

g vertex 0
p 1

g vertex 1
p 43

g vertex 2
p 85

g vertex 3
p 127

g vertex 4
p 141

g vertex 5
p 155

g vertex 6
p 169

g vertex 7
p 183

g vertex 8
p 197

g vertex 9
p 211

g vertex 10
p 225

g vertex 11
p 240

g vertex 12
p 239

g vertex 13
p 276

g vertex 14
p 269

g vertex 15
p 277

g vertex 16
p 306

g vertex 17
p 307

g vertex 18
p 321

g vertex 19
p 335

g vertex 20
p 342

# End of file
