# WaveFront *.obj file
# Vertices: 214
# Triangles : 424

v 0.0 2.9410866219827806e-24 -0.05
v 0.0 -0.225 -0.05
v 0.0 -0.23612604669781573 -0.048746395609091206
v 0.0 -0.24669418695587791 -0.04504844339512098
v 0.0 -0.2561744900929367 -0.03909157412340151
v 0.0 -0.2640915741234015 -0.031174490092936696
v 0.0 -0.27004844339512096 -0.021694186955877926
v 0.0 -0.2737463956090912 -0.01112604669781574
v 0.0 -0.275 -1.83697019872103e-17
v 0.0 -0.2737463956090912 0.011126046697815703
v 0.0 -0.27004844339512096 0.021694186955877885
v 0.0 -0.2640915741234015 0.03117449009293666
v 0.0 -0.25617449009293664 0.03909157412340147
v 0.0 -0.24669418695587791 0.045048443395120936
v 0.0 -0.23612604669781573 0.04874639560909116
v 0.0 -0.225 0.049999999999999975
v 0.0 2.9410866219827806e-24 0.05
v 0.0 0.011126046697815726 0.048746395609091185
v 0.0 0.021694186955877912 0.04504844339512095
v 0.0 0.03117449009293668 0.03909157412340148
v 0.0 0.039091574123401494 0.031174490092936675
v 0.0 0.045048443395120964 0.021694186955877905
v 0.0 0.048746395609091185 0.011126046697815717
v 0.0 0.05 -3.061616997868383e-18
v 0.0 0.048746395609091185 -0.01112604669781572
v 0.0 0.045048443395120964 -0.02169418695587791
v 0.0 0.039091574123401494 -0.03117449009293668
v 0.0 0.031174490092936675 -0.039091574123401494
v 0.0 0.02169418695587791 -0.045048443395120964
v 0.0 0.011126046697815719 -0.048746395609091185
v 0.0 -0.225 0.034999999999999976
v 0.0 -0.23405866657858823 0.03380740392011737
v 0.0 -0.2425 0.03031088913245532
v 0.0 -0.2497487373415292 0.02474873734152913
v 0.0 -0.25531088913245537 0.017499999999999953
v 0.0 -0.25880740392011736 0.009058666578588184
v 0.0 -0.26 -3.398394867633905e-17
v 0.0 -0.25880740392011736 -0.009058666578588252
v 0.0 -0.25531088913245537 -0.017500000000000043
v 0.0 -0.24974873734152916 -0.0247487373415292
v 0.0 -0.2425 -0.030310889132455388
v 0.0 -0.23405866657858823 -0.03380740392011742
v 0.0 -0.225 -0.03500000000000003
v 0.0 3.0881409547382194e-24 -0.03500000000000001
v 0.0 -0.009058666578588231 -0.0338074039201174
v 0.0 -0.017499999999999995 -0.030310889132455367
v 0.0 -0.02474873734152917 -0.024748737341529176
v 0.0 -0.030310889132455356 -0.01750000000000002
v 0.0 -0.0338074039201174 -0.009058666578588224
v 0.0 -0.03500000000000001 -6.4293956955236055e-18
v 0.0 -0.033807403920117406 0.009058666578588212
v 0.0 -0.030310889132455374 0.01749999999999998
v 0.0 -0.024748737341529176 0.024748737341529162
v 0.0 -0.01750000000000002 0.030310889132455353
v 0.0 -0.009058666578588226 0.0338074039201174
v -0.0 -7.352716572290321e-25 0.03500000000000001
v 0.0 0.0 -0.02
v 0.0 0.007224833323743057 -0.01864944458808712
v 0.0 0.01347391287293114 -0.014780178344413187
v 0.0 0.017903265827101243 -0.008914767115530775
v 0.0 0.019914683525900694 -0.0018453671892660359
v 0.0 0.01923651286345638 0.005473259801441658
v 0.0 0.015960344545604792 0.012052692727585126
v 0.0 0.010528643257547122 0.01700434271459228
v 0.0 0.0036749903563314075 0.019659461993678035
v 0.0 -0.0036749903563314023 0.019659461993678035
v 0.0 -0.010528643257547111 0.017004342714592287
v 0.0 -0.01596034454560479 0.012052692727585131
v 0.0 -0.01923651286345638 0.0054732598014416625
v 0.0 -0.019914683525900694 -0.001845367189266031
v 0.0 -0.01790326582710125 -0.008914767115530754
v 0.0 -0.013473912872931142 -0.014780178344413183
v 0.0 -0.007224833323743061 -0.01864944458808712
v 0.04 -0.225 -0.05
v 0.04 2.9410866219827806e-24 -0.05
v 0.04 0.011126046697815719 -0.048746395609091185
v 0.04 0.02169418695587791 -0.045048443395120964
v 0.04 0.031174490092936675 -0.039091574123401494
v 0.04 0.039091574123401494 -0.03117449009293668
v 0.04 0.045048443395120964 -0.02169418695587791
v 0.04 0.048746395609091185 -0.01112604669781572
v 0.04 0.05 -3.061616997868383e-18
v 0.04 0.048746395609091185 0.011126046697815717
v 0.04 0.045048443395120964 0.021694186955877905
v 0.04 0.039091574123401494 0.031174490092936675
v 0.04 0.03117449009293668 0.03909157412340148
v 0.04 0.021694186955877912 0.04504844339512095
v 0.04 0.011126046697815726 0.048746395609091185
v 0.04 2.9410866219827806e-24 0.05
v 0.04 -0.225 0.049999999999999975
v 0.04 -0.23612604669781573 0.04874639560909116
v 0.04 -0.24669418695587791 0.045048443395120936
v 0.04 -0.25617449009293664 0.03909157412340147
v 0.04 -0.2640915741234015 0.03117449009293666
v 0.04 -0.27004844339512096 0.021694186955877885
v 0.04 -0.2737463956090912 0.011126046697815703
v 0.04 -0.275 -1.83697019872103e-17
v 0.04 -0.2737463956090912 -0.01112604669781574
v 0.04 -0.27004844339512096 -0.021694186955877926
v 0.04 -0.2640915741234015 -0.031174490092936696
v 0.04 -0.2561744900929367 -0.03909157412340151
v 0.04 -0.24669418695587791 -0.04504844339512098
v 0.04 -0.23612604669781573 -0.048746395609091206
v 0.04 -0.225 -0.020000000000000028
v 0.04 -0.23222483332374308 -0.018649444588087143
v 0.04 -0.23847391287293115 -0.014780178344413211
v 0.04 -0.24290326582710126 -0.008914767115530799
v 0.04 -0.24491468352590068 -0.0018453671892660584
v 0.04 -0.24423651286345638 0.005473259801441635
v 0.04 -0.24096034454560478 0.012052692727585104
v 0.04 -0.23552864325754713 0.017004342714592256
v 0.04 -0.22867499035633143 0.01965946199367801
v 0.04 -0.22132500964366858 0.01965946199367801
v 0.04 -0.21447135674245288 0.01700434271459226
v 0.04 -0.20903965545439523 0.0120526927275851
v 0.04 -0.20576348713654363 0.00547325980144163
v 0.04 -0.20508531647409933 -0.0018453671892660678
v 0.04 -0.20709673417289876 -0.008914767115530794
v 0.04 -0.21152608712706886 -0.01478017834441321
v 0.04 -0.21777516667625693 -0.018649444588087143
v 0.04 0.0 -0.02
v 0.04 -0.007224833323743061 -0.01864944458808712
v 0.04 -0.013473912872931142 -0.014780178344413183
v 0.04 -0.017903265827101247 -0.008914767115530771
v 0.04 -0.019914683525900694 -0.001845367189266031
v 0.04 -0.01923651286345638 0.0054732598014416625
v 0.04 -0.01596034454560479 0.012052692727585131
v 0.04 -0.010528643257547116 0.017004342714592283
v 0.04 -0.0036749903563314023 0.019659461993678035
v 0.04 0.0036749903563314075 0.019659461993678035
v 0.04 0.010528643257547115 0.017004342714592283
v 0.04 0.015960344545604792 0.012052692727585126
v 0.04 0.01923651286345638 0.005473259801441658
v 0.04 0.01991468352590069 -0.0018453671892660404
v 0.04 0.017903265827101247 -0.008914767115530766
v 0.04 0.013473912872931145 -0.014780178344413182
v 0.04 0.007224833323743058 -0.01864944458808712
v 0.06 0.0 -0.02
v 0.06 -0.007224833323743061 -0.01864944458808712
v 0.06 -0.013473912872931142 -0.014780178344413183
v 0.06 -0.017903265827101247 -0.008914767115530771
v 0.06 -0.019914683525900694 -0.001845367189266031
v 0.06 -0.01923651286345638 0.0054732598014416625
v 0.06 -0.01596034454560479 0.012052692727585131
v 0.06 -0.010528643257547116 0.017004342714592283
v 0.06 -0.0036749903563314023 0.019659461993678035
v 0.06 0.0036749903563314075 0.019659461993678035
v 0.06 0.010528643257547115 0.017004342714592283
v 0.06 0.015960344545604792 0.012052692727585126
v 0.06 0.01923651286345638 0.005473259801441658
v 0.06 0.01991468352590069 -0.0018453671892660404
v 0.06 0.017903265827101247 -0.008914767115530766
v 0.06 0.013473912872931145 -0.014780178344413182
v 0.06 0.007224833323743058 -0.01864944458808712
v 0.06 -0.225 -0.020000000000000028
v 0.06 -0.23222483332374308 -0.018649444588087143
v 0.06 -0.23847391287293115 -0.014780178344413211
v 0.06 -0.24290326582710126 -0.008914767115530799
v 0.06 -0.24491468352590068 -0.0018453671892660584
v 0.06 -0.24423651286345638 0.005473259801441635
v 0.06 -0.24096034454560478 0.012052692727585104
v 0.06 -0.23552864325754713 0.017004342714592256
v 0.06 -0.22867499035633143 0.01965946199367801
v 0.06 -0.22132500964366858 0.01965946199367801
v 0.06 -0.21447135674245288 0.01700434271459226
v 0.06 -0.20903965545439523 0.0120526927275851
v 0.06 -0.20576348713654363 0.00547325980144163
v 0.06 -0.20508531647409933 -0.0018453671892660678
v 0.06 -0.20709673417289876 -0.008914767115530794
v 0.06 -0.21152608712706886 -0.01478017834441321
v 0.06 -0.21777516667625693 -0.018649444588087143
v 0.005 -0.225 -0.03500000000000003
v 0.005 3.0881409547382194e-24 -0.03500000000000001
v 0.005 -0.009058666578588231 -0.0338074039201174
v 0.005 -0.017499999999999995 -0.030310889132455367
v 0.005 -0.02474873734152917 -0.024748737341529176
v 0.005 -0.030310889132455356 -0.01750000000000002
v 0.005 -0.0338074039201174 -0.009058666578588224
v 0.005 -0.03500000000000001 -6.4293956955236055e-18
v 0.005 -0.033807403920117406 0.009058666578588212
v 0.005 -0.030310889132455374 0.01749999999999998
v 0.005 -0.024748737341529176 0.024748737341529162
v 0.005 -0.01750000000000002 0.030310889132455353
v 0.005 -0.009058666578588226 0.0338074039201174
v 0.005 -7.352716572290321e-25 0.03500000000000001
v 0.005 -0.225 0.034999999999999976
v 0.005 -0.23405866657858823 0.03380740392011737
v 0.005 -0.2425 0.03031088913245532
v 0.005 -0.2497487373415292 0.02474873734152913
v 0.005 -0.25531088913245537 0.017499999999999953
v 0.005 -0.25880740392011736 0.009058666578588184
v 0.005 -0.26 -3.398394867633905e-17
v 0.005 -0.25880740392011736 -0.009058666578588252
v 0.005 -0.25531088913245537 -0.017500000000000043
v 0.005 -0.24974873734152916 -0.0247487373415292
v 0.005 -0.2425 -0.030310889132455388
v 0.005 -0.23405866657858823 -0.03380740392011742
v -0.015 0.0 0.02
v -0.015 -0.007224833323743061 0.01864944458808712
v -0.015 -0.013473912872931142 0.014780178344413183
v -0.015 -0.017903265827101247 0.008914767115530771
v -0.015 -0.019914683525900694 0.001845367189266031
v -0.015 -0.01923651286345638 -0.0054732598014416625
v -0.015 -0.01596034454560479 -0.012052692727585131
v -0.015 -0.010528643257547116 -0.017004342714592283
v -0.015 -0.0036749903563314023 -0.019659461993678035
v -0.015 0.0036749903563314075 -0.019659461993678035
v -0.015 0.010528643257547115 -0.017004342714592283
v -0.015 0.015960344545604792 -0.012052692727585126
v -0.015 0.01923651286345638 -0.005473259801441658
v -0.015 0.01991468352590069 0.0018453671892660404
v -0.015 0.017903265827101247 0.008914767115530766
v -0.015 0.013473912872931145 0.014780178344413182
v -0.015 0.007224833323743058 0.01864944458808712

vn -1.0000000000000000e+00 0.0000000000000000e+00 -0.0000000000000000e+00
vn 1.0000000000000000e+00 -0.0000000000000000e+00 0.0000000000000000e+00
vn 0.0000000000000000e+00 -1.2335811384723962e-16 -1.0000000000000000e+00
vn 0.0000000000000000e+00 -1.2246467991473532e-16 -1.0000000000000000e+00
vn 0.0000000000000000e+00 2.2252093395631431e-01 -9.7492791218182362e-01
vn 0.0000000000000000e+00 4.3388373911755801e-01 -9.0096886790241926e-01
vn 0.0000000000000000e+00 6.2348980185873348e-01 -7.8183148246803003e-01
vn 0.0000000000000000e+00 7.8183148246802958e-01 -6.2348980185873359e-01
vn 0.0000000000000000e+00 9.0096886790241915e-01 -4.3388373911755823e-01
vn 0.0000000000000000e+00 9.7492791218182351e-01 -2.2252093395631459e-01
vn 0.0000000000000000e+00 1.0000000000000000e+00 -1.8369701987210297e-16
vn 0.0000000000000000e+00 9.7492791218182362e-01 2.2252093395631425e-01
vn 0.0000000000000000e+00 9.0096886790241926e-01 4.3388373911755801e-01
vn 0.0000000000000000e+00 7.8183148246803003e-01 6.2348980185873348e-01
vn 0.0000000000000000e+00 6.2348980185873359e-01 7.8183148246802958e-01
vn 0.0000000000000000e+00 4.3388373911755829e-01 9.0096886790241892e-01
vn 0.0000000000000000e+00 2.2252093395631470e-01 9.7492791218182362e-01
vn 0.0000000000000000e+00 2.4492935982947064e-16 1.0000000000000000e+00
vn -0.0000000000000000e+00 -1.2335811384723962e-16 1.0000000000000000e+00
vn 0.0000000000000000e+00 -0.0000000000000000e+00 1.0000000000000000e+00
vn 0.0000000000000000e+00 -2.2252093395631431e-01 9.7492791218182362e-01
vn 0.0000000000000000e+00 -4.3388373911755801e-01 9.0096886790241915e-01
vn 0.0000000000000000e+00 -6.2348980185873315e-01 7.8183148246803014e-01
vn 0.0000000000000000e+00 -7.8183148246802980e-01 6.2348980185873348e-01
vn 0.0000000000000000e+00 -9.0096886790241915e-01 4.3388373911755806e-01
vn 0.0000000000000000e+00 -9.7492791218182362e-01 2.2252093395631473e-01
vn 0.0000000000000000e+00 -1.0000000000000000e+00 2.8327694488239893e-16
vn 0.0000000000000000e+00 -9.7492791218182362e-01 -2.2252093395631434e-01
vn 0.0000000000000000e+00 -9.0096886790241915e-01 -4.3388373911755801e-01
vn 0.0000000000000000e+00 -7.8183148246802991e-01 -6.2348980185873348e-01
vn 0.0000000000000000e+00 -6.2348980185873359e-01 -7.8183148246802969e-01
vn 0.0000000000000000e+00 -4.3388373911755823e-01 -9.0096886790241915e-01
vn 0.0000000000000000e+00 -2.2252093395631450e-01 -9.7492791218182362e-01
vn 0.0000000000000000e+00 -3.6124166618715292e-01 -9.3247222940435581e-01
vn 0.0000000000000000e+00 1.2246467991473532e-16 -1.0000000000000000e+00
vn 0.0000000000000000e+00 3.6124166618715292e-01 -9.3247222940435581e-01
vn 0.0000000000000000e+00 6.7369564364655732e-01 -7.3900891722065898e-01
vn 0.0000000000000000e+00 8.9516329135506234e-01 -4.4573835577653820e-01
vn 0.0000000000000000e+00 9.9573417629503458e-01 -9.2268359463302127e-02
vn 0.0000000000000000e+00 9.6182564317281916e-01 2.7366299007208283e-01
vn 0.0000000000000000e+00 7.9801722728023960e-01 6.0263463637925629e-01
vn 0.0000000000000000e+00 5.2643216287735572e-01 8.5021713572961433e-01
vn 0.0000000000000000e+00 1.8374951781657037e-01 9.8297309968390179e-01
vn 0.0000000000000000e+00 -1.8374951781657012e-01 9.8297309968390179e-01
vn 0.0000000000000000e+00 -5.2643216287735584e-01 8.5021713572961410e-01
vn 0.0000000000000000e+00 -7.9801722728023938e-01 6.0263463637925652e-01
vn 0.0000000000000000e+00 -9.6182564317281904e-01 2.7366299007208300e-01
vn 0.0000000000000000e+00 -9.9573417629503458e-01 -9.2268359463301447e-02
vn 0.0000000000000000e+00 -8.9516329135506212e-01 -4.4573835577653864e-01
vn 0.0000000000000000e+00 -6.7369564364655710e-01 -7.3900891722065931e-01
vn 0.0000000000000000e+00 -3.6124166618715331e-01 -9.3247222940435570e-01
vn 0.0000000000000000e+00 3.6124166618715331e-01 -9.3247222940435570e-01
vn 0.0000000000000000e+00 6.7369564364655710e-01 -7.3900891722065931e-01
vn 0.0000000000000000e+00 7.9801722728023927e-01 6.0263463637925663e-01
vn 0.0000000000000000e+00 5.2643216287735572e-01 8.5021713572961422e-01
vn 0.0000000000000000e+00 1.8374951781657065e-01 9.8297309968390167e-01
vn 0.0000000000000000e+00 -1.8374951781657065e-01 9.8297309968390167e-01
vn 0.0000000000000000e+00 -7.9801722728023916e-01 6.0263463637925685e-01
vn 0.0000000000000000e+00 -9.9573417629503458e-01 -9.2268359463301669e-02
vn 0.0000000000000000e+00 -8.9516329135506234e-01 -4.4573835577653820e-01
vn -0.0000000000000000e+00 -9.2518585385429716e-17 1.0000000000000000e+00
vn 0.0000000000000000e+00 -2.1007761635115195e-23 1.0000000000000000e+00
vn 0.0000000000000000e+00 -2.5881904510252068e-01 9.6592582628906831e-01
vn 0.0000000000000000e+00 -5.0000000000000044e-01 8.6602540378443837e-01
vn 0.0000000000000000e+00 -7.0710678118654768e-01 7.0710678118654746e-01
vn 0.0000000000000000e+00 -8.6602540378443904e-01 4.9999999999999933e-01
vn 0.0000000000000000e+00 -9.6592582628906842e-01 2.5881904510252030e-01
vn 0.0000000000000000e+00 -1.0000000000000000e+00 -1.6081226496766364e-16
vn 0.0000000000000000e+00 -9.6592582628906831e-01 -2.5881904510252063e-01
vn 0.0000000000000000e+00 -8.6602540378443837e-01 -5.0000000000000056e-01
vn 0.0000000000000000e+00 -7.0710678118654724e-01 -7.0710678118654791e-01
vn 0.0000000000000000e+00 -4.9999999999999956e-01 -8.6602540378443893e-01
vn 0.0000000000000000e+00 -2.5881904510252102e-01 -9.6592582628906820e-01
vn 0.0000000000000000e+00 -1.2246467991473530e-16 -1.0000000000000000e+00
vn 0.0000000000000000e+00 1.5419764230904951e-16 -1.0000000000000000e+00
vn -0.0000000000000000e+00 1.2246467991473530e-16 1.0000000000000000e+00
vn -0.0000000000000000e+00 2.5881904510252102e-01 9.6592582628906820e-01
vn -0.0000000000000000e+00 5.0000000000000000e-01 8.6602540378443871e-01
vn -0.0000000000000000e+00 7.0710678118654724e-01 7.0710678118654791e-01
vn -0.0000000000000000e+00 8.6602540378443849e-01 5.0000000000000011e-01
vn -0.0000000000000000e+00 9.6592582628906831e-01 2.5881904510252091e-01
vn -0.0000000000000000e+00 1.0000000000000000e+00 1.6081226496766366e-16
vn -0.0000000000000000e+00 9.6592582628906831e-01 -2.5881904510252052e-01
vn -0.0000000000000000e+00 8.6602540378443904e-01 -4.9999999999999928e-01
vn -0.0000000000000000e+00 7.0710678118654802e-01 -7.0710678118654724e-01
vn -0.0000000000000000e+00 5.0000000000000000e-01 -8.6602540378443860e-01
vn -0.0000000000000000e+00 2.5881904510252091e-01 -9.6592582628906831e-01
vn -0.0000000000000000e+00 0.0000000000000000e+00 -1.0000000000000000e+00
vn -0.0000000000000000e+00 -3.6124166618715292e-01 9.3247222940435581e-01
vn -0.0000000000000000e+00 -1.8374951781656992e-01 9.8297309968390190e-01
vn -0.0000000000000000e+00 -1.2246467991473532e-16 1.0000000000000000e+00
vn -0.0000000000000000e+00 1.2246467991473532e-16 1.0000000000000000e+00
vn -0.0000000000000000e+00 -1.8374951781656970e-01 9.8297309968390190e-01
vn -0.0000000000000000e+00 3.6124166618715292e-01 9.3247222940435581e-01
vn -0.0000000000000000e+00 5.2643216287735606e-01 8.5021713572961399e-01
vn -0.0000000000000000e+00 6.7369564364655732e-01 7.3900891722065898e-01
vn -0.0000000000000000e+00 8.9516329135506234e-01 4.4573835577653820e-01
vn -0.0000000000000000e+00 9.6182564317281916e-01 2.7366299007208295e-01
vn -0.0000000000000000e+00 9.9573417629503458e-01 9.2268359463302127e-02
vn -0.0000000000000000e+00 9.9573417629503458e-01 -9.2268359463301794e-02
vn -0.0000000000000000e+00 9.6182564317281916e-01 -2.7366299007208283e-01
vn -0.0000000000000000e+00 8.9516329135506212e-01 -4.4573835577653875e-01
vn -0.0000000000000000e+00 7.9801722728023960e-01 -6.0263463637925629e-01
vn -0.0000000000000000e+00 6.7369564364655699e-01 -7.3900891722065931e-01
vn -0.0000000000000000e+00 5.2643216287735572e-01 -8.5021713572961433e-01
vn -0.0000000000000000e+00 3.6124166618715292e-01 -9.3247222940435592e-01
vn -0.0000000000000000e+00 1.8374951781657037e-01 -9.8297309968390179e-01
vn -0.0000000000000000e+00 -1.8374951781657012e-01 -9.8297309968390179e-01
vn -0.0000000000000000e+00 -3.6124166618715298e-01 -9.3247222940435581e-01
vn -0.0000000000000000e+00 -5.2643216287735584e-01 -8.5021713572961410e-01
vn -0.0000000000000000e+00 -6.7369564364655710e-01 -7.3900891722065920e-01
vn -0.0000000000000000e+00 -7.9801722728023938e-01 -6.0263463637925652e-01
vn -0.0000000000000000e+00 -8.9516329135506256e-01 -4.4573835577653775e-01
vn -0.0000000000000000e+00 -9.6182564317281904e-01 -2.7366299007208300e-01
vn -0.0000000000000000e+00 -9.9573417629503458e-01 -9.2268359463301572e-02
vn -0.0000000000000000e+00 -9.9573417629503458e-01 9.2268359463301447e-02
vn -0.0000000000000000e+00 -9.6182564317281904e-01 2.7366299007208311e-01
vn -0.0000000000000000e+00 -8.9516329135506212e-01 4.4573835577653864e-01
vn -0.0000000000000000e+00 -7.9801722728023938e-01 6.0263463637925663e-01
vn -0.0000000000000000e+00 -6.7369564364655710e-01 7.3900891722065931e-01
vn -0.0000000000000000e+00 -5.2643216287735572e-01 8.5021713572961422e-01

g face 0
f 2//1 43//1 1//1
f 1//1 43//1 44//1
f 1//1 44//1 30//1
f 30//1 44//1 29//1
f 29//1 44//1 28//1
f 28//1 44//1 27//1
f 27//1 44//1 57//1
f 27//1 57//1 58//1
f 2//1 3//1 43//1
f 43//1 3//1 4//1
f 43//1 4//1 42//1
f 42//1 4//1 5//1
f 42//1 5//1 41//1
f 41//1 5//1 6//1
f 41//1 6//1 40//1
f 40//1 6//1 7//1
f 40//1 7//1 39//1
f 39//1 7//1 8//1
f 39//1 8//1 38//1
f 38//1 8//1 9//1
f 38//1 9//1 37//1
f 37//1 9//1 36//1
f 36//1 9//1 10//1
f 36//1 10//1 35//1
f 35//1 10//1 11//1
f 35//1 11//1 34//1
f 34//1 11//1 12//1
f 34//1 12//1 33//1
f 33//1 12//1 13//1
f 33//1 13//1 32//1
f 32//1 13//1 14//1
f 32//1 14//1 31//1
f 31//1 14//1 15//1
f 31//1 15//1 16//1
f 31//1 16//1 56//1
f 56//1 16//1 17//1
f 56//1 17//1 18//1
f 18//1 19//1 56//1
f 56//1 19//1 20//1
f 56//1 20//1 21//1
f 56//1 21//1 65//1
f 65//1 21//1 22//1
f 65//1 22//1 64//1
f 64//1 22//1 63//1
f 63//1 22//1 23//1
f 63//1 23//1 62//1
f 62//1 23//1 24//1
f 62//1 24//1 61//1
f 61//1 24//1 25//1
f 61//1 25//1 60//1
f 60//1 25//1 59//1
f 59//1 25//1 26//1
f 59//1 26//1 58//1
f 58//1 26//1 27//1
f 44//1 45//1 57//1
f 57//1 45//1 46//1
f 57//1 46//1 47//1
f 57//1 47//1 73//1
f 73//1 47//1 48//1
f 73//1 48//1 72//1
f 72//1 48//1 49//1
f 72//1 49//1 71//1
f 71//1 49//1 70//1
f 70//1 49//1 50//1
f 70//1 50//1 69//1
f 69//1 50//1 51//1
f 69//1 51//1 68//1
f 68//1 51//1 52//1
f 68//1 52//1 67//1
f 67//1 52//1 53//1
f 67//1 53//1 66//1
f 66//1 53//1 54//1
f 66//1 54//1 65//1
f 65//1 54//1 55//1
f 65//1 55//1 56//1

g face 1
f 75//2 122//2 74//2
f 74//2 122//2 120//2
f 74//2 120//2 104//2
f 76//2 77//2 75//2
f 75//2 77//2 121//2
f 75//2 121//2 122//2
f 77//2 78//2 121//2
f 121//2 78//2 79//2
f 121//2 79//2 137//2
f 137//2 79//2 80//2
f 137//2 80//2 136//2
f 136//2 80//2 81//2
f 136//2 81//2 135//2
f 135//2 81//2 134//2
f 134//2 81//2 82//2
f 134//2 82//2 133//2
f 133//2 82//2 83//2
f 133//2 83//2 132//2
f 132//2 83//2 84//2
f 132//2 84//2 131//2
f 131//2 84//2 130//2
f 130//2 84//2 85//2
f 130//2 85//2 86//2
f 130//2 86//2 129//2
f 129//2 86//2 87//2
f 129//2 87//2 89//2
f 89//2 87//2 88//2
f 129//2 89//2 128//2
f 128//2 89//2 90//2
f 128//2 90//2 114//2
f 114//2 90//2 113//2
f 113//2 90//2 92//2
f 113//2 92//2 93//2
f 90//2 91//2 92//2
f 113//2 93//2 112//2
f 112//2 93//2 94//2
f 112//2 94//2 95//2
f 96//2 110//2 95//2
f 95//2 110//2 111//2
f 95//2 111//2 112//2
f 110//2 96//2 109//2
f 109//2 96//2 97//2
f 109//2 97//2 108//2
f 108//2 97//2 98//2
f 108//2 98//2 107//2
f 107//2 98//2 106//2
f 106//2 98//2 99//2
f 106//2 99//2 105//2
f 105//2 99//2 100//2
f 105//2 100//2 104//2
f 104//2 100//2 101//2
f 104//2 101//2 102//2
f 103//2 74//2 102//2
f 102//2 74//2 104//2
f 114//2 115//2 128//2
f 128//2 115//2 127//2
f 127//2 115//2 116//2
f 127//2 116//2 126//2
f 126//2 116//2 125//2
f 125//2 116//2 117//2
f 125//2 117//2 118//2
f 119//2 123//2 118//2
f 118//2 123//2 124//2
f 118//2 124//2 125//2
f 123//2 119//2 122//2
f 122//2 119//2 120//2

g face 2
f 1//3 75//3 2//3
f 2//3 75//3 74//3

g face 3
f 75//4 1//4 76//5
f 76//5 1//4 30//5
f 76//5 30//5 77//6
f 77//6 30//5 29//6
f 77//6 29//6 78//7
f 78//7 29//6 28//7
f 78//7 28//7 79//8
f 79//8 28//7 27//8
f 79//8 27//8 80//9
f 80//9 27//8 26//9
f 80//9 26//9 81//10
f 81//10 26//9 25//10
f 81//10 25//10 82//11
f 82//11 25//10 24//11
f 82//11 24//11 83//12
f 83//12 24//11 23//12
f 83//12 23//12 84//13
f 84//13 23//12 22//13
f 84//13 22//13 85//14
f 85//14 22//13 21//14
f 85//14 21//14 86//15
f 86//15 21//14 20//15
f 86//15 20//15 87//16
f 87//16 20//15 19//16
f 87//16 19//16 88//17
f 88//17 19//16 18//17
f 88//17 18//17 89//18
f 89//18 18//17 17//18

g face 4
f 16//19 90//19 17//19
f 17//19 90//19 89//19

g face 5
f 90//20 16//20 91//21
f 91//21 16//20 15//21
f 91//21 15//21 92//22
f 92//22 15//21 14//22
f 92//22 14//22 93//23
f 93//23 14//22 13//23
f 93//23 13//23 94//24
f 94//24 13//23 12//24
f 94//24 12//24 95//25
f 95//25 12//24 11//25
f 95//25 11//25 96//26
f 96//26 11//25 10//26
f 96//26 10//26 97//27
f 97//27 10//26 9//27
f 97//27 9//27 98//28
f 98//28 9//27 8//28
f 98//28 8//28 99//29
f 99//29 8//28 7//29
f 99//29 7//29 100//30
f 100//30 7//29 6//30
f 100//30 6//30 101//31
f 101//31 6//30 5//31
f 101//31 5//31 102//32
f 102//32 5//31 4//32
f 102//32 4//32 103//33
f 103//33 4//32 3//33
f 103//33 3//33 74//4
f 74//4 3//33 2//4

g face 6
f 139//34 122//34 138//4
f 138//4 122//34 121//4
f 138//35 121//35 154//36
f 154//36 121//35 137//36
f 154//36 137//36 153//37
f 153//37 137//36 136//37
f 153//37 136//37 152//38
f 152//38 136//37 135//38
f 152//38 135//38 151//39
f 151//39 135//38 134//39
f 151//39 134//39 150//40
f 150//40 134//39 133//40
f 150//40 133//40 149//41
f 149//41 133//40 132//41
f 149//41 132//41 148//42
f 148//42 132//41 131//42
f 148//42 131//42 147//43
f 147//43 131//42 130//43
f 147//43 130//43 146//44
f 146//44 130//43 129//44
f 146//44 129//44 145//45
f 145//45 129//44 128//45
f 145//45 128//45 144//46
f 144//46 128//45 127//46
f 144//46 127//46 143//47
f 143//47 127//46 126//47
f 143//47 126//47 142//48
f 142//48 126//47 125//48
f 142//48 125//48 141//49
f 141//49 125//48 124//49
f 141//49 124//49 140//50
f 140//50 124//49 123//50
f 140//50 123//50 139//34
f 139//34 123//50 122//34

g face 7
f 139//2 138//2 140//2
f 140//2 138//2 154//2
f 140//2 154//2 153//2
f 140//2 153//2 141//2
f 141//2 153//2 152//2
f 141//2 152//2 142//2
f 142//2 152//2 151//2
f 142//2 151//2 143//2
f 143//2 151//2 150//2
f 143//2 150//2 144//2
f 144//2 150//2 149//2
f 144//2 149//2 145//2
f 145//2 149//2 148//2
f 145//2 148//2 146//2
f 146//2 148//2 147//2

g face 8
f 156//51 105//51 155//4
f 155//4 105//51 104//4
f 155//35 104//35 171//52
f 171//52 104//35 120//52
f 171//52 120//52 170//53
f 170//53 120//52 119//53
f 170//53 119//53 169//38
f 169//38 119//53 118//38
f 169//38 118//38 168//39
f 168//39 118//38 117//39
f 168//39 117//39 167//40
f 167//40 117//39 116//40
f 167//40 116//40 166//54
f 166//54 116//40 115//54
f 166//54 115//54 165//55
f 165//55 115//54 114//55
f 165//55 114//55 164//56
f 164//56 114//55 113//56
f 164//56 113//56 163//57
f 163//57 113//56 112//57
f 163//57 112//57 162//45
f 162//45 112//57 111//45
f 162//45 111//45 161//58
f 161//58 111//45 110//58
f 161//58 110//58 160//47
f 160//47 110//58 109//47
f 160//47 109//47 159//59
f 159//59 109//47 108//59
f 159//59 108//59 158//60
f 158//60 108//59 107//60
f 158//60 107//60 157//50
f 157//50 107//60 106//50
f 157//50 106//50 156//51
f 156//51 106//50 105//51

g face 9
f 156//2 155//2 157//2
f 157//2 155//2 171//2
f 157//2 171//2 170//2
f 157//2 170//2 158//2
f 158//2 170//2 169//2
f 158//2 169//2 159//2
f 159//2 169//2 168//2
f 159//2 168//2 160//2
f 160//2 168//2 167//2
f 160//2 167//2 161//2
f 161//2 167//2 166//2
f 161//2 166//2 162//2
f 162//2 166//2 165//2
f 162//2 165//2 163//2
f 163//2 165//2 164//2

g face 10
f 43//61 172//61 44//61
f 44//61 172//61 173//61

g face 11
f 185//62 56//62 184//63
f 184//63 56//62 55//63
f 184//63 55//63 183//64
f 183//64 55//63 54//64
f 183//64 54//64 182//65
f 182//65 54//64 53//65
f 182//65 53//65 181//66
f 181//66 53//65 52//66
f 181//66 52//66 180//67
f 180//67 52//66 51//67
f 180//67 51//67 179//68
f 179//68 51//67 50//68
f 179//68 50//68 178//69
f 178//69 50//68 49//69
f 178//69 49//69 177//70
f 177//70 49//69 48//70
f 177//70 48//70 176//71
f 176//71 48//70 47//71
f 176//71 47//71 175//72
f 175//72 47//71 46//72
f 175//72 46//72 174//73
f 174//73 46//72 45//73
f 174//73 45//73 173//74
f 173//74 45//73 44//74

g face 12
f 56//75 185//75 31//75
f 31//75 185//75 186//75

g face 13
f 172//76 43//76 197//77
f 197//77 43//76 42//77
f 197//77 42//77 196//78
f 196//78 42//77 41//78
f 196//78 41//78 195//79
f 195//79 41//78 40//79
f 195//79 40//79 194//80
f 194//80 40//79 39//80
f 194//80 39//80 193//81
f 193//81 39//80 38//81
f 193//81 38//81 192//82
f 192//82 38//81 37//82
f 192//82 37//82 191//83
f 191//83 37//82 36//83
f 191//83 36//83 190//84
f 190//84 36//83 35//84
f 190//84 35//84 189//85
f 189//85 35//84 34//85
f 189//85 34//85 188//86
f 188//86 34//85 33//86
f 188//86 33//86 187//87
f 187//87 33//86 32//87
f 187//87 32//87 186//88
f 186//88 32//87 31//88

g face 14
f 173//1 172//1 174//1
f 174//1 172//1 175//1
f 175//1 172//1 176//1
f 176//1 172//1 177//1
f 177//1 172//1 178//1
f 178//1 172//1 195//1
f 178//1 195//1 194//1
f 197//1 196//1 172//1
f 172//1 196//1 195//1
f 194//1 193//1 178//1
f 178//1 193//1 179//1
f 179//1 193//1 192//1
f 179//1 192//1 191//1
f 179//1 191//1 180//1
f 180//1 191//1 190//1
f 180//1 190//1 189//1
f 180//1 189//1 186//1
f 186//1 189//1 188//1
f 186//1 188//1 187//1
f 185//1 184//1 186//1
f 186//1 184//1 183//1
f 186//1 183//1 182//1
f 182//1 181//1 186//1
f 186//1 181//1 180//1

g face 15
f 199//89 66//90 198//91
f 198//92 66//93 65//43
f 198//92 65//43 214//94
f 214//94 65//43 64//95
f 214//94 64//95 213//96
f 213//96 64//95 63//41
f 213//96 63//41 212//97
f 212//97 63//41 62//98
f 212//97 62//98 211//99
f 211//99 62//98 61//100
f 211//99 61//100 210//101
f 210//101 61//100 60//102
f 210//101 60//102 209//103
f 209//103 60//102 59//104
f 209//103 59//104 208//105
f 208//105 59//104 58//106
f 208//105 58//106 207//107
f 207//107 58//106 57//88
f 207//107 57//88 206//108
f 206//108 57//88 73//109
f 206//108 73//109 205//110
f 205//110 73//109 72//111
f 205//110 72//111 204//112
f 204//112 72//111 71//113
f 204//112 71//113 203//114
f 203//114 71//113 70//115
f 203//114 70//115 202//116
f 202//116 70//115 69//117
f 202//116 69//117 201//118
f 201//118 69//117 68//119
f 201//118 68//119 200//120
f 200//120 68//119 67//121
f 200//120 67//121 199//89
f 199//89 67//121 66//90

g face 16
f 199//1 198//1 200//1
f 200//1 198//1 214//1
f 200//1 214//1 213//1
f 200//1 213//1 201//1
f 201//1 213//1 212//1
f 201//1 212//1 202//1
f 202//1 212//1 211//1
f 202//1 211//1 203//1
f 203//1 211//1 210//1
f 203//1 210//1 204//1
f 204//1 210//1 209//1
f 204//1 209//1 205//1
f 205//1 209//1 208//1
f 205//1 208//1 206//1
f 206//1 208//1 207//1

g halfedge 0 edge 0
l 1 2

g halfedge 1 edge 0
l 2 1

g halfedge 2 edge 1
l 2 3 4 5 6 7 8 9 10 11 12 13 14 15 16

g halfedge 3 edge 1
l 16 15 14 13 12 11 10 9 8 7 6 5 4 3 2

g halfedge 4 edge 2
l 16 17

g halfedge 5 edge 2
l 17 16

g halfedge 6 edge 3
l 17 18 19 20 21 22 23 24 25 26 27 28 29 30 1

g halfedge 7 edge 3
l 1 30 29 28 27 26 25 24 23 22 21 20 19 18 17

g halfedge 8 edge 4
l 31 32 33 34 35 36 37 38 39 40 41 42 43

g halfedge 9 edge 4
l 43 42 41 40 39 38 37 36 35 34 33 32 31

g halfedge 10 edge 5
l 43 44

g halfedge 11 edge 5
l 44 43

g halfedge 12 edge 6
l 44 45 46 47 48 49 50 51 52 53 54 55 56

g halfedge 13 edge 6
l 56 55 54 53 52 51 50 49 48 47 46 45 44

g halfedge 14 edge 7
l 56 31

g halfedge 15 edge 7
l 31 56

g halfedge 16 edge 8
l 57 58 59 60 61 62 63 64 65 66 67 68 69 70 71 72 73 57

g halfedge 17 edge 8
l 57 73 72 71 70 69 68 67 66 65 64 63 62 61 60 59 58 57

g halfedge 18 edge 9
l 74 75

g halfedge 19 edge 9
l 75 74

g halfedge 20 edge 10
l 75 76 77 78 79 80 81 82 83 84 85 86 87 88 89

g halfedge 21 edge 10
l 89 88 87 86 85 84 83 82 81 80 79 78 77 76 75

g halfedge 22 edge 11
l 89 90

g halfedge 23 edge 11
l 90 89

g halfedge 24 edge 12
l 90 91 92 93 94 95 96 97 98 99 100 101 102 103 74

g halfedge 25 edge 12
l 74 103 102 101 100 99 98 97 96 95 94 93 92 91 90

g halfedge 26 edge 13
l 104 105 106 107 108 109 110 111 112 113 114 115 116 117 118 119 120 104

g halfedge 27 edge 13
l 104 120 119 118 117 116 115 114 113 112 111 110 109 108 107 106 105 104

g halfedge 28 edge 14
l 121 122 123 124 125 126 127 128 129 130 131 132 133 134 135 136 137 121

g halfedge 29 edge 14
l 121 137 136 135 134 133 132 131 130 129 128 127 126 125 124 123 122 121

g halfedge 30 edge 15
l 1 75

g halfedge 31 edge 15
l 75 1

g halfedge 32 edge 16
l 74 2

g halfedge 33 edge 16
l 2 74

g halfedge 34 edge 17
l 17 89

g halfedge 35 edge 17
l 89 17

g halfedge 36 edge 18
l 16 90

g halfedge 37 edge 18
l 90 16

g halfedge 38 edge 19
l 138 139 140 141 142 143 144 145 146 147 148 149 150 151 152 153 154 138

g halfedge 39 edge 19
l 138 154 153 152 151 150 149 148 147 146 145 144 143 142 141 140 139 138

g halfedge 40 edge 20
l 155 156 157 158 159 160 161 162 163 164 165 166 167 168 169 170 171 155

g halfedge 41 edge 20
l 155 171 170 169 168 167 166 165 164 163 162 161 160 159 158 157 156 155

g halfedge 42 edge 21
l 43 172

g halfedge 43 edge 21
l 172 43

g halfedge 44 edge 22
l 172 173

g halfedge 45 edge 22
l 173 172

g halfedge 46 edge 23
l 173 44

g halfedge 47 edge 23
l 44 173

g halfedge 48 edge 24
l 173 174 175 176 177 178 179 180 181 182 183 184 185

g halfedge 49 edge 24
l 185 184 183 182 181 180 179 178 177 176 175 174 173

g halfedge 50 edge 25
l 185 56

g halfedge 51 edge 25
l 56 185

g halfedge 52 edge 26
l 185 186

g halfedge 53 edge 26
l 186 185

g halfedge 54 edge 27
l 186 31

g halfedge 55 edge 27
l 31 186

g halfedge 56 edge 28
l 186 187 188 189 190 191 192 193 194 195 196 197 172

g halfedge 57 edge 28
l 172 197 196 195 194 193 192 191 190 189 188 187 186

g halfedge 58 edge 29
l 198 199 200 201 202 203 204 205 206 207 208 209 210 211 212 213 214 198

g halfedge 59 edge 29
l 198 214 213 212 211 210 209 208 207 206 205 204 203 202 201 200 199 198

g vertex 0
p 1

g vertex 1
p 2

g vertex 2
p 16

g vertex 3
p 17

g vertex 4
p 31

g vertex 5
p 43

g vertex 6
p 44

g vertex 7
p 56

g vertex 8
p 57

g vertex 9
p 74

g vertex 10
p 75

g vertex 11
p 89

g vertex 12
p 90

g vertex 13
p 104

g vertex 14
p 121

g vertex 15
p 138

g vertex 16
p 155

g vertex 17
p 172

g vertex 18
p 173

g vertex 19
p 185

g vertex 20
p 186

g vertex 21
p 198

# End of file
