# WaveFront *.obj file
# Vertices: 160
# Triangles : 316

v 0.11993196961916072 -0.030696334177245547 0.11582199493652677
v 6.803038083927965e-05 -0.030696334177245547 0.11582199493652677
v 3.0273939808896924e-05 -0.030741769317072492 0.11554938409756511
v 7.5742218358654245e-06 -0.03078748186736797 0.11527510879579221
v 0.0 -0.03083333333333334 0.115
v 0.0 -0.05 1.734723475976807e-18
v 0.12 -0.05 1.734723475976807e-18
v 0.12 -0.03083333333333334 0.11500000000000002
v 0.11999242577816414 -0.03078748186736797 0.11527510879579224
v 0.1199697260601911 -0.030741769317072492 0.11554938409756511
v 0.0 -0.04914865498419509 -0.009187475890828524
v 0.0 -0.0466236114702178 -0.018062083309357633
v 0.0 -0.04251085678648071 -0.026321608143867792
v 0.0 -0.03695044586103297 -0.03368478218232784
v 0.0 -0.030131731818962827 -0.03990086136401197
v 0.0 -0.022286917788826903 -0.044758164567753125
v 0.0 -0.01368314950360416 -0.04809128215864095
v 0.0 -0.004613417973165099 -0.04978670881475173
v 0.0 0.004613417973165074 -0.04978670881475173
v 0.0 0.013683149503604138 -0.04809128215864096
v 0.0 0.022286917788826882 -0.04475816456775314
v 0.0 0.03013173181896281 -0.03990086136401199
v 0.0 0.03695044586103296 -0.033684782182327865
v 0.0 0.04251085678648069 -0.02632160814386781
v 0.0 0.046623611470217784 -0.018062083309357654
v 0.0 0.04914865498419509 -0.009187475890828507
v 0.0 0.05 1.734723475976807e-18
v 0.12 0.05 1.734723475976807e-18
v 0.12 0.04914865498419509 -0.009187475890828507
v 0.12 0.046623611470217784 -0.018062083309357654
v 0.12 0.04251085678648069 -0.02632160814386781
v 0.12 0.03695044586103296 -0.033684782182327865
v 0.12 0.03013173181896281 -0.03990086136401199
v 0.12 0.022286917788826882 -0.04475816456775314
v 0.12 0.013683149503604138 -0.04809128215864096
v 0.12 0.004613417973165074 -0.04978670881475173
v 0.12 -0.004613417973165099 -0.04978670881475173
v 0.12 -0.01368314950360416 -0.04809128215864095
v 0.12 -0.022286917788826903 -0.044758164567753125
v 0.12 -0.030131731818962827 -0.03990086136401197
v 0.12 -0.03695044586103297 -0.03368478218232784
v 0.12 -0.04251085678648071 -0.026321608143867792
v 0.12 -0.0466236114702178 -0.018062083309357633
v 0.12 -0.04914865498419509 -0.009187475890828524
v 0.0 0.030833333333333324 0.11500000000000002
v 7.574221835866535e-06 0.030787481867367954 0.11527510879579225
v 3.0273939808898587e-05 0.030741769317072475 0.11554938409756513
v 6.803038083927349e-05 0.03069633417724553 0.11582199493652678
v 0.11993196961916072 0.03069633417724553 0.11582199493652678
v 0.1199697260601911 0.03074176931707247 0.11554938409756513
v 0.11999242577816414 0.030787481867367954 0.11527510879579225
v 0.12 0.030833333333333324 0.11500000000000002
v 0.10939817324377937 0.03204768552859688 0.10771388682841869
v 0.010533796375381335 0.03204768552859689 0.10771388682841869
v 0.010533796375381335 0.048648648648648665 0.008108108108108115
v 0.10939817324377937 0.048648648648648665 0.008108108108108119
v 0.115 0.025764364558084812 0.12
v 0.005 0.025764364558084812 0.12
v 0.005 -0.025764364558084833 0.12
v 0.115 -0.025764364558084833 0.12
v 0.07999999999999999 -1.0408340855860843e-17 0.12
v 0.0791114561157228 -0.005895103488218085 0.12
v 0.07652477548631989 -0.011266401161272446 0.12
v 0.07246979603717466 -0.015636629649360606 0.12
v 0.0673068204873279 -0.018617474972884088 0.12
v 0.06149460187172848 -0.01994407594362361 0.12
v 0.0555495813208737 -0.019498558243636478 0.12
v 0.05 -0.01732050807568878 0.12
v 0.045338962563403466 -0.013603454755418395 0.12
v 0.04198062264195162 -0.008677674782351166 0.12
v 0.040223383475497435 -0.002980845323523499 0.12
v 0.040223383475497435 0.002980845323523474 0.12
v 0.04198062264195162 0.00867767478235115 0.12
v 0.045338962563403466 0.013603454755418371 0.12
v 0.04999999999999999 0.017320508075688756 0.12
v 0.0555495813208737 0.019498558243636454 0.12
v 0.06149460187172848 0.019944075943623584 0.12
v 0.06730682048732789 0.018617474972884067 0.12
v 0.07246979603717466 0.015636629649360582 0.12
v 0.07652477548631989 0.011266401161272427 0.12
v 0.0791114561157228 0.005895103488218072 0.12
v 0.0 0.0 0.02
v 0.0 -0.005895103488218078 0.019111456115722816
v 0.0 -0.011266401161272439 0.0165247754863199
v 0.0 -0.0156366296493606 0.012469796037174668
v 0.0 -0.018617474972884084 0.0073068204873279075
v 0.0 -0.0199440759436236 0.0014946018717284873
v 0.0 -0.01949855824363647 -0.004450418679126292
v 0.0 -0.017320508075688777 -0.009999999999999993
v 0.0 -0.01360345475541839 -0.014661037436596525
v 0.0 -0.008677674782351161 -0.018019377358048382
v 0.0 -0.0029808453235234894 -0.01977661652450257
v 0.0 0.0029808453235234855 -0.01977661652450257
v 0.0 0.008677674782351165 -0.018019377358048382
v 0.0 0.013603454755418387 -0.014661037436596526
v 0.0 0.017320508075688773 -0.010000000000000005
v 0.0 0.01949855824363647 -0.004450418679126287
v 0.0 0.0199440759436236 0.0014946018717284834
v 0.0 0.018617474972884084 0.0073068204873279
v 0.0 0.015636629649360596 0.012469796037174671
v 0.0 0.011266401161272442 0.0165247754863199
v 0.0 0.0058951034882180845 0.019111456115722816
v 0.02 0.0 0.02
v 0.02 -0.005895103488218078 0.019111456115722816
v 0.02 -0.011266401161272439 0.0165247754863199
v 0.02 -0.0156366296493606 0.012469796037174668
v 0.02 -0.018617474972884084 0.0073068204873279075
v 0.02 -0.0199440759436236 0.0014946018717284873
v 0.02 -0.01949855824363647 -0.004450418679126292
v 0.02 -0.017320508075688777 -0.009999999999999993
v 0.02 -0.01360345475541839 -0.014661037436596525
v 0.02 -0.008677674782351161 -0.018019377358048382
v 0.02 -0.0029808453235234894 -0.01977661652450257
v 0.02 0.0029808453235234855 -0.01977661652450257
v 0.02 0.008677674782351165 -0.018019377358048382
v 0.02 0.013603454755418387 -0.014661037436596526
v 0.02 0.017320508075688773 -0.010000000000000005
v 0.02 0.01949855824363647 -0.004450418679126287
v 0.02 0.0199440759436236 0.0014946018717284834
v 0.02 0.018617474972884084 0.0073068204873279
v 0.02 0.015636629649360596 0.012469796037174671
v 0.02 0.011266401161272442 0.0165247754863199
v 0.02 0.0058951034882180845 0.019111456115722816
v 0.07999999999999999 -1.0408340855860843e-17 0.1
v 0.0791114561157228 -0.005895103488218085 0.1
v 0.07652477548631989 -0.011266401161272446 0.1
v 0.07246979603717466 -0.015636629649360606 0.1
v 0.0673068204873279 -0.018617474972884088 0.1
v 0.06149460187172848 -0.01994407594362361 0.1
v 0.0555495813208737 -0.019498558243636478 0.1
v 0.05 -0.01732050807568878 0.1
v 0.045338962563403466 -0.013603454755418395 0.1
v 0.04198062264195162 -0.008677674782351166 0.1
v 0.040223383475497435 -0.002980845323523499 0.1
v 0.040223383475497435 0.002980845323523474 0.1
v 0.04198062264195162 0.00867767478235115 0.1
v 0.045338962563403466 0.013603454755418371 0.1
v 0.04999999999999999 0.017320508075688756 0.1
v 0.0555495813208737 0.019498558243636454 0.1
v 0.06149460187172848 0.019944075943623584 0.1
v 0.06730682048732789 0.018617474972884067 0.1
v 0.07246979603717466 0.015636629649360582 0.1
v 0.07652477548631989 0.011266401161272427 0.1
v 0.0791114561157228 0.005895103488218072 0.1
v 0.11934761508997775 0.030111979648062576 0.11746946209312832
v 0.11823187448065098 0.02899623903873579 0.11881509991236364
v 0.11672111888580973 0.027485483443894544 0.11969443817521427
v 0.11672111888580973 -0.027485483443894565 0.11969443817521427
v 0.11823187448065099 -0.028996239038735813 0.11881509991236362
v 0.11934761508997778 -0.0301119796480626 0.1174694620931283
v 0.003278881114190269 -0.027485483443894565 0.11969443817521427
v 0.001768125519349021 -0.028996239038735813 0.11881509991236362
v 0.0006523849100222329 -0.0301119796480626 0.1174694620931283
v 0.0006523849100222401 0.030111979648062576 0.11746946209312832
v 0.0017681255193490264 0.02899623903873579 0.11881509991236364
v 0.003278881114190272 0.027485483443894544 0.11969443817521427
v 0.10939817324377937 0.02711571590943617 0.1068918918918919
v 0.010533796375381335 0.02711571590943617 0.1068918918918919
v 0.010533796375381335 0.043716679029487955 0.007286113171581329
v 0.10939817324377937 0.043716679029487955 0.007286113171581332

vn -0.0000000000000000e+00 -9.8639392383214386e-01 1.6439898730535718e-01
vn 0.0000000000000000e+00 -1.0000000000000000e+00 6.1232339957367660e-17
vn 0.0000000000000000e+00 -9.8297309968390167e-01 -1.8374951781657037e-01
vn 0.0000000000000000e+00 -9.3247222940435592e-01 -3.6124166618715270e-01
vn 0.0000000000000000e+00 -8.5021713572961422e-01 -5.2643216287735595e-01
vn 0.0000000000000000e+00 -7.3900891722065942e-01 -6.7369564364655676e-01
vn 0.0000000000000000e+00 -6.0263463637925641e-01 -7.9801722728023949e-01
vn 0.0000000000000000e+00 -4.4573835577653792e-01 -8.9516329135506245e-01
vn 0.0000000000000000e+00 -2.7366299007208306e-01 -9.6182564317281904e-01
vn 0.0000000000000000e+00 -9.2268359463301836e-02 -9.9573417629503458e-01
vn 0.0000000000000000e+00 9.2268359463301142e-02 -9.9573417629503458e-01
vn 0.0000000000000000e+00 2.7366299007208239e-01 -9.6182564317281916e-01
vn 0.0000000000000000e+00 4.4573835577653748e-01 -8.9516329135506278e-01
vn 0.0000000000000000e+00 6.0263463637925585e-01 -7.9801722728023994e-01
vn 0.0000000000000000e+00 7.3900891722065887e-01 -6.7369564364655754e-01
vn 0.0000000000000000e+00 8.5021713572961399e-01 -5.2643216287735595e-01
vn 0.0000000000000000e+00 9.3247222940435548e-01 -3.6124166618715381e-01
vn 0.0000000000000000e+00 9.8297309968390179e-01 -1.8374951781657001e-01
vn 0.0000000000000000e+00 1.0000000000000000e+00 -1.8369701987210297e-16
vn -0.0000000000000000e+00 9.8639392383214375e-01 1.6439898730535743e-01
vn 0.0000000000000000e+00 0.0000000000000000e+00 1.0000000000000000e+00
vn 1.0000000000000000e+00 -0.0000000000000000e+00 0.0000000000000000e+00
vn -1.0000000000000000e+00 0.0000000000000000e+00 -0.0000000000000000e+00
vn -0.0000000000000000e+00 2.9475517441090393e-01 -9.5557280578614079e-01
vn -0.0000000000000000e+00 0.0000000000000000e+00 -1.0000000000000000e+00
vn -0.0000000000000000e+00 -2.9475517441090426e-01 -9.5557280578614079e-01
vn -0.0000000000000000e+00 -5.6332005806362206e-01 -8.2623877431599491e-01
vn -0.0000000000000000e+00 -7.8183148246802980e-01 -6.2348980185873359e-01
vn -0.0000000000000000e+00 -9.3087374864420436e-01 -3.6534102436639504e-01
vn -0.0000000000000000e+00 -9.9720379718118024e-01 -7.4730093586424184e-02
vn -0.0000000000000000e+00 -9.7492791218182362e-01 2.2252093395631434e-01
vn -0.0000000000000000e+00 -8.6602540378443860e-01 5.0000000000000022e-01
vn -0.0000000000000000e+00 -6.8017273777091936e-01 7.3305187182982634e-01
vn -0.0000000000000000e+00 -4.3388373911755829e-01 9.0096886790241915e-01
vn -0.0000000000000000e+00 -1.4904226617617430e-01 9.8883082622512863e-01
vn -0.0000000000000000e+00 -1.4904226617617403e-01 9.8883082622512863e-01
vn -0.0000000000000000e+00 1.4904226617617430e-01 9.8883082622512863e-01
vn -0.0000000000000000e+00 4.3388373911755829e-01 9.0096886790241915e-01
vn -0.0000000000000000e+00 6.8017273777091936e-01 7.3305187182982634e-01
vn -0.0000000000000000e+00 8.6602540378443882e-01 4.9999999999999983e-01
vn -0.0000000000000000e+00 9.7492791218182362e-01 2.2252093395631456e-01
vn -0.0000000000000000e+00 9.9720379718118013e-01 -7.4730093586424393e-02
vn -0.0000000000000000e+00 9.3087374864420414e-01 -3.6534102436639543e-01
vn -0.0000000000000000e+00 7.8183148246802991e-01 -6.2348980185873337e-01
vn -0.0000000000000000e+00 5.6332005806362195e-01 -8.2623877431599491e-01
vn -9.5557280578614090e-01 2.9475517441090388e-01 0.0000000000000000e+00
vn -9.5557280578614079e-01 -2.9475517441090415e-01 0.0000000000000000e+00
vn -8.2623877431599513e-01 -5.6332005806362173e-01 0.0000000000000000e+00
vn -6.2348980185873348e-01 -7.8183148246802980e-01 0.0000000000000000e+00
vn -3.6534102436639526e-01 -9.3087374864420425e-01 0.0000000000000000e+00
vn -7.4730093586424171e-02 -9.9720379718118024e-01 0.0000000000000000e+00
vn 2.2252093395631431e-01 -9.7492791218182362e-01 0.0000000000000000e+00
vn 5.0000000000000022e-01 -8.6602540378443849e-01 0.0000000000000000e+00
vn 7.3305187182982634e-01 -6.8017273777091936e-01 0.0000000000000000e+00
vn 9.0096886790241903e-01 -4.3388373911755823e-01 0.0000000000000000e+00
vn 9.8883082622512863e-01 -1.4904226617617428e-01 0.0000000000000000e+00
vn 9.8883082622512863e-01 -1.4904226617617403e-01 0.0000000000000000e+00
vn 9.8883082622512852e-01 1.4904226617617472e-01 0.0000000000000000e+00
vn 9.0096886790241903e-01 4.3388373911755823e-01 0.0000000000000000e+00
vn 7.3305187182982634e-01 6.8017273777091936e-01 0.0000000000000000e+00
vn 4.9999999999999983e-01 8.6602540378443871e-01 0.0000000000000000e+00
vn 2.2252093395631431e-01 9.7492791218182362e-01 0.0000000000000000e+00
vn -7.4730093586424171e-02 9.9720379718118024e-01 0.0000000000000000e+00
vn -3.6534102436639565e-01 9.3087374864420414e-01 0.0000000000000000e+00
vn -6.2348980185873326e-01 7.8183148246803014e-01 0.0000000000000000e+00
vn -8.2623877431599513e-01 5.6332005806362162e-01 0.0000000000000000e+00
vn 8.6952301799555176e-01 -0.0000000000000000e+00 4.9389241862566341e-01
vn 8.6952301799555409e-01 -0.0000000000000000e+00 4.9389241862565908e-01
vn 9.8639392383214364e-01 -0.0000000000000000e+00 1.6439898730535785e-01
vn 9.8639392383214419e-01 -0.0000000000000000e+00 1.6439898730535435e-01
vn 9.9394521203821984e-01 -0.0000000000000000e+00 1.0987681951302623e-01
vn 9.9394521203822028e-01 -0.0000000000000000e+00 1.0987681951302269e-01
vn 9.9848515563282636e-01 -0.0000000000000000e+00 5.5021759158449722e-02
vn 9.9848515563282658e-01 -0.0000000000000000e+00 5.5021759158446176e-02
vn 1.0000000000000000e+00 -0.0000000000000000e+00 3.6139460187578685e-15
vn 6.4637489613019394e-01 -0.0000000000000000e+00 7.6301998247272729e-01
vn 6.4637489613019783e-01 -0.0000000000000000e+00 7.6301998247272396e-01
vn 3.4422377716194685e-01 -0.0000000000000000e+00 9.3888763504285344e-01
vn -0.0000000000000000e+00 -9.8639392383214419e-01 1.6439898730535446e-01
vn -0.0000000000000000e+00 -8.6952301799555387e-01 4.9389241862565958e-01
vn -0.0000000000000000e+00 -6.4637489613019716e-01 7.6301998247272451e-01
vn -0.0000000000000000e+00 -3.4422377716194685e-01 9.3888763504285344e-01
vn -0.0000000000000000e+00 -1.2246467991473532e-16 1.0000000000000000e+00
vn 0.0000000000000000e+00 3.4422377716194602e-01 9.3888763504285377e-01
vn 0.0000000000000000e+00 6.4637489613019450e-01 7.6301998247272673e-01
vn 0.0000000000000000e+00 8.6952301799555221e-01 4.9389241862566263e-01
vn 0.0000000000000000e+00 9.8639392383214364e-01 1.6439898730535785e-01
vn -8.6952301799555387e-01 0.0000000000000000e+00 4.9389241862565958e-01
vn -8.6952301799555209e-01 0.0000000000000000e+00 4.9389241862566263e-01
vn -9.8639392383214430e-01 0.0000000000000000e+00 1.6439898730535427e-01
vn -9.8639392383214375e-01 0.0000000000000000e+00 1.6439898730535751e-01
vn -9.9394521203822028e-01 0.0000000000000000e+00 1.0987681951302257e-01
vn -9.9394521203821995e-01 0.0000000000000000e+00 1.0987681951302612e-01
vn -9.9848515563282680e-01 0.0000000000000000e+00 5.5021759158442728e-02
vn -9.9848515563282636e-01 0.0000000000000000e+00 5.5021759158449826e-02
vn -1.0000000000000000e+00 -0.0000000000000000e+00 -6.1232339957367660e-17
vn -1.0000000000000000e+00 0.0000000000000000e+00 3.4914813388431334e-15
vn -6.4637489613019683e-01 0.0000000000000000e+00 7.6301998247272484e-01
vn -6.4637489613019450e-01 0.0000000000000000e+00 7.6301998247272684e-01
vn -3.4422377716194646e-01 0.0000000000000000e+00 9.3888763504285366e-01
vn -3.4422377716194602e-01 0.0000000000000000e+00 9.3888763504285377e-01
vn -1.2246467991473532e-16 0.0000000000000000e+00 1.0000000000000000e+00
vn -3.0092655381050560e-34 1.6439898730535746e-01 -9.8639392383214375e-01
vn 0.0000000000000000e+00 -1.6439898730535746e-01 9.8639392383214375e-01
vn -1.3877787807814457e-17 9.8639392383214375e-01 1.6439898730535746e-01

g face 0
f 2//1 8//1 1//1
f 1//1 8//1 9//1
f 1//1 9//1 10//1
f 3//1 4//1 2//1
f 2//1 4//1 5//1
f 2//1 5//1 8//1
f 8//1 5//1 6//1
f 8//1 6//1 7//1

g face 1
f 7//2 6//2 44//3
f 44//3 6//2 11//3
f 44//3 11//3 43//4
f 43//4 11//3 12//4
f 43//4 12//4 42//5
f 42//5 12//4 13//5
f 42//5 13//5 41//6
f 41//6 13//5 14//6
f 41//6 14//6 40//7
f 40//7 14//6 15//7
f 40//7 15//7 39//8
f 39//8 15//7 16//8
f 39//8 16//8 38//9
f 38//9 16//8 17//9
f 38//9 17//9 37//10
f 37//10 17//9 18//10
f 37//10 18//10 36//11
f 36//11 18//10 19//11
f 36//11 19//11 35//12
f 35//12 19//11 20//12
f 35//12 20//12 34//13
f 34//13 20//12 21//13
f 34//13 21//13 33//14
f 33//14 21//13 22//14
f 33//14 22//14 32//15
f 32//15 22//14 23//15
f 32//15 23//15 31//16
f 31//16 23//15 24//16
f 31//16 24//16 30//17
f 30//17 24//16 25//17
f 30//17 25//17 29//18
f 29//18 25//17 26//18
f 29//18 26//18 28//19
f 28//19 26//18 27//19

g face 2
f 45//20 55//20 27//20
f 27//20 55//20 56//20
f 27//20 56//20 28//20
f 28//20 56//20 52//20
f 52//20 56//20 53//20
f 52//20 53//20 49//20
f 49//20 53//20 48//20
f 48//20 53//20 54//20
f 48//20 54//20 45//20
f 45//20 54//20 55//20
f 45//20 46//20 48//20
f 48//20 46//20 47//20
f 50//20 51//20 49//20
f 49//20 51//20 52//20

g face 3
f 58//21 77//21 57//21
f 57//21 77//21 78//21
f 57//21 78//21 79//21
f 59//21 72//21 58//21
f 58//21 72//21 73//21
f 58//21 73//21 74//21
f 60//21 66//21 59//21
f 59//21 66//21 67//21
f 59//21 67//21 68//21
f 57//21 61//21 60//21
f 60//21 61//21 62//21
f 60//21 62//21 63//21
f 63//21 64//21 60//21
f 60//21 64//21 65//21
f 60//21 65//21 66//21
f 68//21 69//21 59//21
f 59//21 69//21 70//21
f 59//21 70//21 71//21
f 71//21 72//21 59//21
f 74//21 75//21 58//21
f 58//21 75//21 76//21
f 58//21 76//21 77//21
f 79//21 80//21 57//21
f 57//21 80//21 81//21
f 57//21 81//21 61//21

g face 4
f 52//22 8//22 28//22
f 28//22 8//22 36//22
f 28//22 36//22 35//22
f 36//22 8//22 37//22
f 37//22 8//22 7//22
f 37//22 7//22 38//22
f 38//22 7//22 39//22
f 39//22 7//22 40//22
f 40//22 7//22 41//22
f 41//22 7//22 42//22
f 42//22 7//22 43//22
f 43//22 7//22 44//22
f 35//22 34//22 28//22
f 28//22 34//22 33//22
f 28//22 33//22 32//22
f 32//22 31//22 28//22
f 28//22 31//22 30//22
f 28//22 30//22 29//22

g face 5
f 5//23 85//23 6//23
f 6//23 85//23 86//23
f 6//23 86//23 87//23
f 45//23 82//23 5//23
f 5//23 82//23 83//23
f 5//23 83//23 84//23
f 27//23 100//23 45//23
f 45//23 100//23 101//23
f 45//23 101//23 102//23
f 26//23 98//23 27//23
f 27//23 98//23 99//23
f 27//23 99//23 100//23
f 26//23 25//23 98//23
f 98//23 25//23 97//23
f 97//23 25//23 24//23
f 97//23 24//23 23//23
f 97//23 23//23 96//23
f 96//23 23//23 22//23
f 96//23 22//23 21//23
f 96//23 21//23 95//23
f 95//23 21//23 20//23
f 95//23 20//23 94//23
f 94//23 20//23 19//23
f 94//23 19//23 93//23
f 93//23 19//23 18//23
f 93//23 18//23 92//23
f 92//23 18//23 91//23
f 91//23 18//23 17//23
f 91//23 17//23 90//23
f 90//23 17//23 16//23
f 90//23 16//23 89//23
f 89//23 16//23 15//23
f 89//23 15//23 14//23
f 89//23 14//23 88//23
f 88//23 14//23 13//23
f 88//23 13//23 12//23
f 88//23 12//23 87//23
f 87//23 12//23 11//23
f 87//23 11//23 6//23
f 84//23 85//23 5//23
f 102//23 82//23 45//23

g face 6
f 104//24 82//25 103//25
f 103//25 82//25 102//26
f 103//25 102//26 123//26
f 123//26 102//26 101//27
f 123//26 101//27 122//27
f 122//27 101//27 100//28
f 122//27 100//28 121//28
f 121//28 100//28 99//29
f 121//28 99//29 120//29
f 120//29 99//29 98//30
f 120//29 98//30 119//30
f 119//30 98//30 97//31
f 119//30 97//31 118//31
f 118//31 97//31 96//32
f 118//31 96//32 117//32
f 117//32 96//32 95//33
f 117//32 95//33 116//33
f 116//33 95//33 94//34
f 116//33 94//34 115//34
f 115//34 94//34 93//35
f 115//34 93//35 114//35
f 114//36 93//36 92//37
f 114//36 92//37 113//37
f 113//37 92//37 91//38
f 113//37 91//38 112//38
f 112//38 91//38 90//39
f 112//38 90//39 111//39
f 111//39 90//39 89//40
f 111//39 89//40 110//40
f 110//40 89//40 88//41
f 110//40 88//41 109//41
f 109//41 88//41 87//42
f 109//41 87//42 108//42
f 108//42 87//42 86//43
f 108//42 86//43 107//43
f 107//43 86//43 85//44
f 107//43 85//44 106//44
f 106//44 85//44 84//45
f 106//44 84//45 105//45
f 105//45 84//45 83//24
f 105//45 83//24 104//24
f 104//24 83//24 82//25

g face 7
f 104//23 103//23 109//23
f 109//23 103//23 123//23
f 109//23 123//23 122//23
f 122//23 121//23 109//23
f 109//23 121//23 120//23
f 109//23 120//23 119//23
f 119//23 118//23 109//23
f 109//23 118//23 110//23
f 110//23 118//23 117//23
f 110//23 117//23 111//23
f 111//23 117//23 116//23
f 111//23 116//23 112//23
f 112//23 116//23 115//23
f 112//23 115//23 113//23
f 113//23 115//23 114//23
f 108//23 107//23 109//23
f 109//23 107//23 106//23
f 109//23 106//23 105//23
f 105//23 104//23 109//23

g face 8
f 125//46 61//23 124//23
f 124//23 61//23 81//47
f 124//23 81//47 144//47
f 144//47 81//47 80//48
f 144//47 80//48 143//48
f 143//48 80//48 79//49
f 143//48 79//49 142//49
f 142//49 79//49 78//50
f 142//49 78//50 141//50
f 141//50 78//50 77//51
f 141//50 77//51 140//51
f 140//51 77//51 76//52
f 140//51 76//52 139//52
f 139//52 76//52 75//53
f 139//52 75//53 138//53
f 138//53 75//53 74//54
f 138//53 74//54 137//54
f 137//54 74//54 73//55
f 137//54 73//55 136//55
f 136//55 73//55 72//56
f 136//55 72//56 135//56
f 135//57 72//57 71//58
f 135//57 71//58 134//58
f 134//58 71//58 70//59
f 134//58 70//59 133//59
f 133//59 70//59 69//60
f 133//59 69//60 132//60
f 132//60 69//60 68//61
f 132//60 68//61 131//61
f 131//61 68//61 67//62
f 131//61 67//62 130//62
f 130//62 67//62 66//63
f 130//62 66//63 129//63
f 129//63 66//63 65//64
f 129//63 65//64 128//64
f 128//64 65//64 64//65
f 128//64 64//65 127//65
f 127//65 64//65 63//66
f 127//65 63//66 126//66
f 126//66 63//66 62//46
f 126//66 62//46 125//46
f 125//46 62//46 61//23

g face 9
f 125//21 124//21 130//21
f 130//21 124//21 144//21
f 130//21 144//21 143//21
f 143//21 142//21 130//21
f 130//21 142//21 141//21
f 130//21 141//21 140//21
f 140//21 139//21 130//21
f 130//21 139//21 131//21
f 131//21 139//21 138//21
f 131//21 138//21 132//21
f 132//21 138//21 137//21
f 132//21 137//21 133//21
f 133//21 137//21 136//21
f 133//21 136//21 134//21
f 134//21 136//21 135//21
f 129//21 128//21 130//21
f 130//21 128//21 127//21
f 130//21 127//21 126//21
f 126//21 125//21 130//21

g face 10
f 145//67 150//68 49//69
f 49//69 150//68 1//70
f 49//69 1//70 50//71
f 50//71 1//70 10//72
f 50//71 10//72 51//73
f 51//73 10//72 9//74
f 51//73 9//74 52//75
f 52//75 9//74 8//75
f 145//67 146//76 150//68
f 150//68 146//76 149//77
f 149//77 146//76 147//78
f 149//77 147//78 148//78
f 148//78 147//78 60//21
f 60//21 147//78 57//21

g face 11
f 2//79 1//79 153//80
f 153//80 1//79 150//80
f 153//80 150//80 149//81
f 153//80 149//81 152//81
f 152//81 149//81 148//82
f 152//81 148//82 151//82
f 151//82 148//82 59//83
f 59//83 148//82 60//83

g face 12
f 58//21 57//21 156//84
f 156//84 57//21 147//84
f 156//84 147//84 146//85
f 156//84 146//85 155//85
f 155//85 146//85 145//86
f 155//85 145//86 154//86
f 154//86 145//86 48//87
f 48//87 145//86 49//87

g face 13
f 153//88 154//89 2//90
f 2//90 154//89 48//91
f 2//90 48//91 3//92
f 3//92 48//91 47//93
f 3//92 47//93 4//94
f 4//94 47//93 46//95
f 4//94 46//95 5//96
f 5//96 46//95 45//97
f 153//88 152//98 154//89
f 154//89 152//98 155//99
f 155//99 152//98 151//100
f 155//99 151//100 156//101
f 156//101 151//100 58//102
f 58//102 151//100 59//102

g face 14
f 54//103 53//103 158//103
f 158//103 53//103 157//103

g face 15
f 55//22 54//22 159//22
f 159//22 54//22 158//22

g face 16
f 56//104 55//104 160//104
f 160//104 55//104 159//104

g face 17
f 56//23 160//23 53//23
f 53//23 160//23 157//23

g face 18
f 157//105 160//105 158//105
f 158//105 160//105 159//105

g halfedge 0 edge 0
l 1 2

g halfedge 1 edge 0
l 2 1

g halfedge 2 edge 1
l 2 3 4 5

g halfedge 3 edge 1
l 5 4 3 2

g halfedge 4 edge 2
l 5 6

g halfedge 5 edge 2
l 6 5

g halfedge 6 edge 3
l 6 7

g halfedge 7 edge 3
l 7 6

g halfedge 8 edge 4
l 7 8

g halfedge 9 edge 4
l 8 7

g halfedge 10 edge 5
l 8 9 10 1

g halfedge 11 edge 5
l 1 10 9 8

g halfedge 12 edge 6
l 6 11 12 13 14 15 16 17 18 19 20 21 22 23 24 25 26 27

g halfedge 13 edge 6
l 27 26 25 24 23 22 21 20 19 18 17 16 15 14 13 12 11 6

g halfedge 14 edge 7
l 27 28

g halfedge 15 edge 7
l 28 27

g halfedge 16 edge 8
l 28 29 30 31 32 33 34 35 36 37 38 39 40 41 42 43 44 7

g halfedge 17 edge 8
l 7 44 43 42 41 40 39 38 37 36 35 34 33 32 31 30 29 28

g halfedge 18 edge 9
l 27 45

g halfedge 19 edge 9
l 45 27

g halfedge 20 edge 10
l 45 46 47 48

g halfedge 21 edge 10
l 48 47 46 45

g halfedge 22 edge 11
l 48 49

g halfedge 23 edge 11
l 49 48

g halfedge 24 edge 12
l 49 50 51 52

g halfedge 25 edge 12
l 52 51 50 49

g halfedge 26 edge 13
l 52 28

g halfedge 27 edge 13
l 28 52

g halfedge 28 edge 14
l 53 54

g halfedge 29 edge 14
l 54 53

g halfedge 30 edge 15
l 54 55

g halfedge 31 edge 15
l 55 54

g halfedge 32 edge 16
l 55 56

g halfedge 33 edge 16
l 56 55

g halfedge 34 edge 17
l 56 53

g halfedge 35 edge 17
l 53 56

g halfedge 36 edge 18
l 57 58

g halfedge 37 edge 18
l 58 57

g halfedge 38 edge 19
l 58 59

g halfedge 39 edge 19
l 59 58

g halfedge 40 edge 20
l 59 60

g halfedge 41 edge 20
l 60 59

g halfedge 42 edge 21
l 60 57

g halfedge 43 edge 21
l 57 60

g halfedge 44 edge 22
l 61 62 63 64 65 66 67 68 69 70 71 72 73 74 75 76 77 78 79 80 81 61

g halfedge 45 edge 22
l 61 81 80 79 78 77 76 75 74 73 72 71 70 69 68 67 66 65 64 63 62 61

g halfedge 46 edge 23
l 52 8

g halfedge 47 edge 23
l 8 52

g halfedge 48 edge 24
l 5 45

g halfedge 49 edge 24
l 45 5

g halfedge 50 edge 25
l 82 83 84 85 86 87 88 89 90 91 92 93 94 95 96 97 98 99 100 101 102 82

g halfedge 51 edge 25
l 82 102 101 100 99 98 97 96 95 94 93 92 91 90 89 88 87 86 85 84 83 82

g halfedge 52 edge 26
l 103 104 105 106 107 108 109 110 111 112 113 114 115 116 117 118 119 120 121 122 123 103

g halfedge 53 edge 26
l 103 123 122 121 120 119 118 117 116 115 114 113 112 111 110 109 108 107 106 105 104 103

g halfedge 54 edge 27
l 124 125 126 127 128 129 130 131 132 133 134 135 136 137 138 139 140 141 142 143 144 124

g halfedge 55 edge 27
l 124 144 143 142 141 140 139 138 137 136 135 134 133 132 131 130 129 128 127 126 125 124

g halfedge 56 edge 28
l 49 145 146 147 57

g halfedge 57 edge 28
l 57 147 146 145 49

g halfedge 58 edge 29
l 60 148 149 150 1

g halfedge 59 edge 29
l 1 150 149 148 60

g halfedge 60 edge 30
l 59 151 152 153 2

g halfedge 61 edge 30
l 2 153 152 151 59

g halfedge 62 edge 31
l 48 154 155 156 58

g halfedge 63 edge 31
l 58 156 155 154 48

g halfedge 64 edge 32
l 53 157

g halfedge 65 edge 32
l 157 53

g halfedge 66 edge 33
l 157 158

g halfedge 67 edge 33
l 158 157

g halfedge 68 edge 34
l 158 54

g halfedge 69 edge 34
l 54 158

g halfedge 70 edge 35
l 158 159

g halfedge 71 edge 35
l 159 158

g halfedge 72 edge 36
l 159 55

g halfedge 73 edge 36
l 55 159

g halfedge 74 edge 37
l 159 160

g halfedge 75 edge 37
l 160 159

g halfedge 76 edge 38
l 160 56

g halfedge 77 edge 38
l 56 160

g halfedge 78 edge 39
l 160 157

g halfedge 79 edge 39
l 157 160

g vertex 0
p 1

g vertex 1
p 2

g vertex 2
p 5

g vertex 3
p 6

g vertex 4
p 7

g vertex 5
p 8

g vertex 6
p 27

g vertex 7
p 28

g vertex 8
p 45

g vertex 9
p 48

g vertex 10
p 49

g vertex 11
p 52

g vertex 12
p 53

g vertex 13
p 54

g vertex 14
p 55

g vertex 15
p 56

g vertex 16
p 57

g vertex 17
p 58

g vertex 18
p 59

g vertex 19
p 60

g vertex 20
p 61

g vertex 21
p 82

g vertex 22
p 103

g vertex 23
p 124

g vertex 24
p 157

g vertex 25
p 158

g vertex 26
p 159

g vertex 27
p 160

# End of file
