# WaveFront *.obj file
# Vertices: 90
# Triangles : 176

v -0.003535533905932753 0.0625317227453318 0.0
v -0.0276096743229044 0.03845758232835996 0.0
v -0.0276096743229044 0.03845758232835996 0.008
v -0.003535533905932753 0.0625317227453318 0.008
v -0.005050130559703197 -6.938893903907227e-18 0.0
v -0.005050130559703199 -6.722053469410128e-18 0.008
v 0.007721943978241786 0.023679899132509563 0.0
v -0.007721943978241786 0.023679899132509563 0.0
v -0.007721943978241786 0.023679899132509563 0.008
v 0.007721943978241786 0.023679899132509563 0.008
v -0.01544388795648357 0.036843609329638 0.0
v -0.01544388795648357 0.036843609329638 0.008
v -0.003535533905932739 0.04875196338018903 0.0
v -0.003535533905932739 0.04875196338018903 0.008
v 0.005050130559703206 6.938893903907228e-18 0.008
v 0.0276096743229044 0.03845758232835996 0.008
v 0.003535533905932753 0.0625317227453318 0.008
v 0.003535533905932739 0.04875196338018903 0.008
v 0.01544388795648357 0.036843609329638 0.008
v 0.01544388795648357 0.036843609329638 0.0
v 0.003535533905932739 0.04875196338018903 0.0
v 0.003535533905932753 0.0625317227453318 0.0
v 0.0276096743229044 0.03845758232835996 0.0
v 0.005050130559703197 -6.938893903907228e-18 0.0
v 0.007499999999999986 1.0305021556187781e-17 -0.0010000000000000217
v -0.0075 -1.0305021556187801e-17 -0.0010000000000000234
v -0.0075 -1.0305021556187801e-17 0.008999999999999977
v 0.0075 1.0305021556187801e-17 0.008999999999999977
v 0.007500000000000007 -0.014999999999999989 -0.0010000000000000217
v -0.007499999999999979 -0.01500000000000001 -0.0010000000000000234
v 0.0075000000000000205 -0.014999999999999989 0.008999999999999977
v -0.007499999999999979 -0.01500000000000001 0.008999999999999977
v 0.020000000000000014 -0.014999999999999972 0.003999999999999978
v 0.01953241111420175 -0.014999999999999973 -0.0002994088042205101
v 0.018151508393419155 -0.014999999999999975 -0.0043977820312053224
v 0.015921861314112894 -0.014999999999999979 -0.008103484303875322
v 0.012947725695636571 -0.014999999999999982 -0.01124324110255275
v 0.009368168813995822 -0.014999999999999987 -0.013670240888920483
v 0.005350566770584433 -0.014999999999999994 -0.015270999850384484
v 0.0010827781717083638 -0.014999999999999998 -0.015970668277022503
v -0.0032356399310552834 -0.015000000000000005 -0.01573653045083055
v -0.007402763106798278 -0.015000000000000012 -0.014579534396335855
v -0.011223741307247641 -0.015000000000000015 -0.012553779963137834
v -0.014519909838462606 -0.01500000000000002 -0.009753989177068491
v -0.017137143523351776 -0.015000000000000025 -0.00631107714354046
v -0.018953063423656043 -0.015000000000000027 -0.0023860306027196215
v -0.019882759143087184 -0.015000000000000027 0.0018376196315211444
v -0.019882759143087184 -0.015000000000000027 0.006162380368478817
v -0.018953063423656043 -0.015000000000000027 0.010386030602719577
v -0.01713714352335178 -0.015000000000000025 0.014311077143540414
v -0.014519909838462608 -0.01500000000000002 0.017753989177068445
v -0.011223741307247638 -0.015000000000000015 0.020553779963137796
v -0.007402763106798278 -0.015000000000000012 0.022579534396335813
v -0.003235639931055283 -0.015000000000000005 0.023736530450830507
v 0.0010827781717083645 -0.014999999999999998 0.02397066827702246
v 0.005350566770584429 -0.014999999999999994 0.02327099985038444
v 0.009368168813995818 -0.014999999999999987 0.02167024088892044
v 0.012947725695636568 -0.014999999999999982 0.019243241102552714
v 0.01592186131411289 -0.014999999999999979 0.016103484303875284
v 0.018151508393419155 -0.014999999999999975 0.012397782031205274
v 0.01953241111420175 -0.014999999999999973 0.00829940880422046
v 0.020000000000000042 -0.034999999999999976 0.003999999999999978
v 0.01953241111420178 -0.034999999999999976 -0.0002994088042205101
v 0.018151508393419183 -0.034999999999999976 -0.0043977820312053224
v 0.015921861314112926 -0.03499999999999998 -0.008103484303875322
v 0.0129477256956366 -0.03499999999999999 -0.01124324110255275
v 0.00936816881399585 -0.03499999999999999 -0.013670240888920483
v 0.005350566770584461 -0.034999999999999996 -0.015270999850384484
v 0.0010827781717083914 -0.035 -0.015970668277022503
v -0.0032356399310552566 -0.03500000000000001 -0.01573653045083055
v -0.0074027631067982505 -0.03500000000000002 -0.014579534396335855
v -0.011223741307247612 -0.03500000000000002 -0.012553779963137834
v -0.014519909838462576 -0.035000000000000024 -0.009753989177068491
v -0.017137143523351748 -0.035000000000000024 -0.00631107714354046
v -0.018953063423656016 -0.03500000000000003 -0.0023860306027196215
v -0.019882759143087157 -0.03500000000000003 0.0018376196315211444
v -0.019882759143087157 -0.03500000000000003 0.006162380368478817
v -0.018953063423656016 -0.03500000000000003 0.010386030602719577
v -0.01713714352335175 -0.035000000000000024 0.014311077143540414
v -0.01451990983846258 -0.035000000000000024 0.017753989177068445
v -0.011223741307247608 -0.03500000000000002 0.020553779963137796
v -0.0074027631067982505 -0.03500000000000002 0.022579534396335813
v -0.0032356399310552557 -0.03500000000000001 0.023736530450830507
v 0.0010827781717083918 -0.035 0.02397066827702246
v 0.005350566770584457 -0.034999999999999996 0.02327099985038444
v 0.009368168813995846 -0.03499999999999999 0.02167024088892044
v 0.012947725695636597 -0.03499999999999999 0.019243241102552714
v 0.01592186131411292 -0.03499999999999998 0.016103484303875284
v 0.018151508393419186 -0.034999999999999976 0.012397782031205274
v 0.01953241111420178 -0.034999999999999976 0.00829940880422046

vn -7.0710678118654857e-01 7.0710678118654657e-01 -0.0000000000000000e+00
vn -8.6254681131403255e-01 -5.0597727052901786e-01 0.0000000000000000e+00
vn 0.0000000000000000e+00 1.0000000000000000e+00 0.0000000000000000e+00
vn 8.6254681131403255e-01 5.0597727052901764e-01 -0.0000000000000000e+00
vn 7.0710678118655368e-01 -7.0710678118654136e-01 0.0000000000000000e+00
vn 1.0000000000000000e+00 -6.2944621528187126e-17 0.0000000000000000e+00
vn -0.0000000000000000e+00 0.0000000000000000e+00 1.0000000000000000e+00
vn 0.0000000000000000e+00 -0.0000000000000000e+00 -1.0000000000000000e+00
vn 7.0710678118654857e-01 7.0710678118654657e-01 -0.0000000000000000e+00
vn -1.0000000000000000e+00 -6.2944621528187126e-17 0.0000000000000000e+00
vn -7.0710678118655368e-01 -7.0710678118654136e-01 0.0000000000000000e+00
vn -8.6254681131403255e-01 5.0597727052901764e-01 -0.0000000000000000e+00
vn 8.6254681131403255e-01 -5.0597727052901786e-01 0.0000000000000000e+00
vn -1.3740028741583735e-15 1.0000000000000000e+00 -0.0000000000000000e+00
vn 1.1564823173178725e-16 1.5890100279080931e-31 -1.0000000000000000e+00
vn 1.0000000000000000e+00 1.3740028741583737e-15 -1.3877787807814463e-15
vn -1.0000000000000000e+00 -1.3740028741583737e-15 0.0000000000000000e+00
vn -1.3754727372549590e-15 1.0000000000000000e+00 -9.8607613152626476e-32
vn 9.7662055571008666e-01 1.3418794505078070e-15 -2.1497044021102429e-01
vn 1.0000000000000000e+00 1.3740028741583737e-15 -1.2246467991473532e-16
vn 1.0000000000000000e+00 1.3740028741583737e-15 1.2246467991473532e-16
vn 9.7662055571008666e-01 1.3418794505078070e-15 2.1497044021102429e-01
vn 9.0757541967095712e-01 1.2470112351433872e-15 4.1988910156026449e-01
vn 9.0757541967095690e-01 1.2470112351433868e-15 4.1988910156026488e-01
vn 7.9609306570564387e-01 1.0938341603771056e-15 6.0517421519376513e-01
vn 6.4738628478182747e-01 8.8951061598094244e-16 7.6216205512763657e-01
vn 4.6840844069979004e-01 6.4359454380155358e-16 8.8351204444602294e-01
vn 2.6752833852922087e-01 3.6758470605796383e-16 9.6354999251922291e-01
vn 5.4138908585417714e-02 7.4387016000161373e-17 9.9853341385112382e-01
vn -1.6178199655276460e-01 -2.2228892825057867e-16 9.8682652254152614e-01
vn -3.7013815533991429e-01 -5.0857088927272087e-16 9.2897671981679142e-01
vn -5.6118706536238228e-01 -7.7107264074841634e-16 8.2768899815689079e-01
vn -5.6118706536238228e-01 -7.7107264074841634e-16 8.2768899815689068e-01
vn -7.2599549192313095e-01 -9.9751989252840422e-16 6.8769945885342332e-01
vn -7.2599549192313106e-01 -9.9751989252840442e-16 6.8769945885342332e-01
vn -8.5685717616758938e-01 -1.1773242227974954e-15 5.1555385717702162e-01
vn -8.5685717616758950e-01 -1.1773242227974956e-15 5.1555385717702151e-01
vn -9.4765317118280257e-01 -1.3020781809104679e-15 3.1930153013597973e-01
vn -9.4765317118280257e-01 -1.3020781809104679e-15 3.1930153013597967e-01
vn -9.9413795715435960e-01 -1.3659484104400242e-15 1.0811901842394192e-01
vn -9.9413795715435960e-01 -1.3659484104400242e-15 1.0811901842394191e-01
vn -9.9413795715435960e-01 -1.3659484104400242e-15 -1.0811901842394171e-01
vn -9.9413795715435960e-01 -1.3659484104400242e-15 -1.0811901842394170e-01
vn -9.4765317118280246e-01 -1.3020781809104677e-15 -3.1930153013597989e-01
vn -9.4765317118280246e-01 -1.3020781809104677e-15 -3.1930153013597984e-01
vn -8.5685717616758927e-01 -1.1773242227974954e-15 -5.1555385717702185e-01
vn -7.2599549192313084e-01 -9.9751989252840403e-16 -6.8769945885342354e-01
vn -7.2599549192313095e-01 -9.9751989252840422e-16 -6.8769945885342343e-01
vn -5.6118706536238250e-01 -7.7107264074841664e-16 -8.2768899815689057e-01
vn -3.7013815533991429e-01 -5.0857088927272087e-16 -9.2897671981679142e-01
vn -1.6178199655276482e-01 -2.2228892825057897e-16 -9.8682652254152614e-01
vn -1.6178199655276460e-01 -2.2228892825057867e-16 -9.8682652254152614e-01
vn 5.4138908585417499e-02 7.4387016000161090e-17 -9.9853341385112404e-01
vn 2.6752833852922109e-01 3.6758470605796413e-16 -9.6354999251922291e-01
vn 4.6840844069979043e-01 6.4359454380155417e-16 -8.8351204444602272e-01
vn 6.4738628478182780e-01 8.8951061598094284e-16 -7.6216205512763635e-01
vn 7.9609306570564420e-01 1.0938341603771060e-15 -6.0517421519376480e-01
vn 9.0757541967095690e-01 1.2470112351433868e-15 -4.1988910156026488e-01
vn 1.3754727372549590e-15 -1.0000000000000000e+00 9.8607613152626476e-32

g face 0
f 2//1 3//1 1//1
f 1//1 3//1 4//1

g face 1
f 5//2 6//2 2//2
f 2//2 6//2 3//2

g face 2
f 8//3 9//3 7//3
f 7//3 9//3 10//3

g face 3
f 11//4 12//4 8//4
f 8//4 12//4 9//4

g face 4
f 13//5 14//5 11//5
f 11//5 14//5 12//5

g face 5
f 1//6 4//6 13//6
f 13//6 4//6 14//6

g face 6
f 14//7 4//7 12//7
f 12//7 4//7 3//7
f 12//7 3//7 9//7
f 9//7 3//7 6//7
f 9//7 6//7 15//7
f 9//7 15//7 10//7
f 10//7 15//7 16//7
f 10//7 16//7 19//7
f 19//7 16//7 17//7
f 19//7 17//7 18//7

g face 7
f 1//8 11//8 2//8
f 2//8 11//8 8//8
f 2//8 8//8 5//8
f 5//8 8//8 7//8
f 5//8 7//8 24//8
f 24//8 7//8 23//8
f 23//8 7//8 20//8
f 23//8 20//8 22//8
f 22//8 20//8 21//8
f 1//8 13//8 11//8

g face 8
f 22//9 17//9 23//9
f 23//9 17//9 16//9

g face 9
f 21//10 18//10 22//10
f 22//10 18//10 17//10

g face 10
f 20//11 19//11 21//11
f 21//11 19//11 18//11

g face 11
f 7//12 10//12 20//12
f 20//12 10//12 19//12

g face 12
f 23//13 16//13 24//13
f 24//13 16//13 15//13

g face 13
f 26//14 24//14 25//14
f 25//14 24//14 15//14
f 25//14 15//14 28//14
f 28//14 15//14 27//14
f 27//14 15//14 6//14
f 27//14 6//14 5//14
f 24//14 26//14 5//14
f 5//14 26//14 27//14

g face 14
f 26//15 25//15 30//15
f 30//15 25//15 29//15

g face 15
f 25//16 28//16 29//16
f 29//16 28//16 31//16

g face 16
f 28//7 27//7 31//7
f 31//7 27//7 32//7

g face 17
f 27//17 26//17 32//17
f 32//17 26//17 30//17

g face 18
f 34//18 29//18 33//18
f 33//18 29//18 31//18
f 33//18 31//18 61//18
f 61//18 31//18 60//18
f 60//18 31//18 59//18
f 59//18 31//18 58//18
f 58//18 31//18 57//18
f 57//18 31//18 56//18
f 56//18 31//18 55//18
f 55//18 31//18 32//18
f 55//18 32//18 54//18
f 54//18 32//18 53//18
f 53//18 32//18 52//18
f 52//18 32//18 51//18
f 51//18 32//18 50//18
f 50//18 32//18 49//18
f 49//18 32//18 48//18
f 48//18 32//18 30//18
f 48//18 30//18 47//18
f 47//18 30//18 46//18
f 46//18 30//18 45//18
f 45//18 30//18 44//18
f 44//18 30//18 43//18
f 43//18 30//18 42//18
f 42//18 30//18 41//18
f 41//18 30//18 40//18
f 40//18 30//18 29//18
f 40//18 29//18 39//18
f 39//18 29//18 38//18
f 38//18 29//18 37//18
f 37//18 29//18 36//18
f 36//18 29//18 35//18
f 35//18 29//18 34//18

g face 19
f 63//19 34//19 62//20
f 62//20 34//19 33//20
f 62//21 33//21 90//22
f 90//22 33//21 61//22
f 90//22 61//22 89//23
f 89//23 61//22 60//24
f 89//23 60//24 88//25
f 88//25 60//24 59//25
f 88//25 59//25 87//26
f 87//26 59//25 58//26
f 87//26 58//26 86//27
f 86//27 58//26 57//27
f 86//27 57//27 85//28
f 85//28 57//27 56//28
f 85//28 56//28 84//29
f 84//29 56//28 55//29
f 84//29 55//29 83//30
f 83//30 55//29 54//30
f 83//30 54//30 82//31
f 82//31 54//30 53//31
f 82//31 53//31 81//32
f 81//32 53//31 52//33
f 81//32 52//33 80//34
f 80//34 52//33 51//35
f 80//34 51//35 79//36
f 79//36 51//35 50//37
f 79//36 50//37 78//38
f 78//38 50//37 49//39
f 78//38 49//39 77//40
f 77//40 49//39 48//41
f 77//40 48//41 76//42
f 76//42 48//41 47//43
f 76//42 47//43 75//44
f 75//44 47//43 46//45
f 75//44 46//45 74//46
f 74//46 46//45 45//46
f 74//46 45//46 73//47
f 73//47 45//46 44//48
f 73//47 44//48 72//49
f 72//49 44//48 43//49
f 72//49 43//49 71//50
f 71//50 43//49 42//50
f 71//50 42//50 70//51
f 70//51 42//50 41//52
f 70//51 41//52 69//53
f 69//53 41//52 40//53
f 69//53 40//53 68//54
f 68//54 40//53 39//54
f 68//54 39//54 67//55
f 67//55 39//54 38//55
f 67//55 38//55 66//56
f 66//56 38//55 37//56
f 66//56 37//56 65//57
f 65//57 37//56 36//57
f 65//57 36//57 64//58
f 64//58 36//57 35//58
f 64//58 35//58 63//19
f 63//19 35//58 34//19

g face 20
f 62//59 90//59 63//59
f 63//59 90//59 64//59
f 64//59 90//59 89//59
f 64//59 89//59 65//59
f 65//59 89//59 88//59
f 65//59 88//59 66//59
f 66//59 88//59 87//59
f 66//59 87//59 67//59
f 67//59 87//59 86//59
f 67//59 86//59 68//59
f 68//59 86//59 85//59
f 68//59 85//59 69//59
f 69//59 85//59 84//59
f 69//59 84//59 70//59
f 70//59 84//59 83//59
f 70//59 83//59 71//59
f 71//59 83//59 82//59
f 71//59 82//59 72//59
f 72//59 82//59 81//59
f 72//59 81//59 73//59
f 73//59 81//59 80//59
f 73//59 80//59 74//59
f 74//59 80//59 79//59
f 74//59 79//59 75//59
f 75//59 79//59 78//59
f 75//59 78//59 76//59
f 76//59 78//59 77//59

g halfedge 0 edge 0
l 1 2

g halfedge 1 edge 0
l 2 1

g halfedge 2 edge 1
l 2 3

g halfedge 3 edge 1
l 3 2

g halfedge 4 edge 2
l 3 4

g halfedge 5 edge 2
l 4 3

g halfedge 6 edge 3
l 4 1

g halfedge 7 edge 3
l 1 4

g halfedge 8 edge 4
l 2 5

g halfedge 9 edge 4
l 5 2

g halfedge 10 edge 5
l 5 6

g halfedge 11 edge 5
l 6 5

g halfedge 12 edge 6
l 6 3

g halfedge 13 edge 6
l 3 6

g halfedge 14 edge 7
l 7 8

g halfedge 15 edge 7
l 8 7

g halfedge 16 edge 8
l 8 9

g halfedge 17 edge 8
l 9 8

g halfedge 18 edge 9
l 9 10

g halfedge 19 edge 9
l 10 9

g halfedge 20 edge 10
l 10 7

g halfedge 21 edge 10
l 7 10

g halfedge 22 edge 11
l 8 11

g halfedge 23 edge 11
l 11 8

g halfedge 24 edge 12
l 11 12

g halfedge 25 edge 12
l 12 11

g halfedge 26 edge 13
l 12 9

g halfedge 27 edge 13
l 9 12

g halfedge 28 edge 14
l 11 13

g halfedge 29 edge 14
l 13 11

g halfedge 30 edge 15
l 13 14

g halfedge 31 edge 15
l 14 13

g halfedge 32 edge 16
l 14 12

g halfedge 33 edge 16
l 12 14

g halfedge 34 edge 17
l 13 1

g halfedge 35 edge 17
l 1 13

g halfedge 36 edge 18
l 4 14

g halfedge 37 edge 18
l 14 4

g halfedge 38 edge 19
l 6 15

g halfedge 39 edge 19
l 15 6

g halfedge 40 edge 20
l 15 16

g halfedge 41 edge 20
l 16 15

g halfedge 42 edge 21
l 16 17

g halfedge 43 edge 21
l 17 16

g halfedge 44 edge 22
l 17 18

g halfedge 45 edge 22
l 18 17

g halfedge 46 edge 23
l 18 19

g halfedge 47 edge 23
l 19 18

g halfedge 48 edge 24
l 19 10

g halfedge 49 edge 24
l 10 19

g halfedge 50 edge 25
l 7 20

g halfedge 51 edge 25
l 20 7

g halfedge 52 edge 26
l 20 21

g halfedge 53 edge 26
l 21 20

g halfedge 54 edge 27
l 21 22

g halfedge 55 edge 27
l 22 21

g halfedge 56 edge 28
l 22 23

g halfedge 57 edge 28
l 23 22

g halfedge 58 edge 29
l 23 24

g halfedge 59 edge 29
l 24 23

g halfedge 60 edge 30
l 24 5

g halfedge 61 edge 30
l 5 24

g halfedge 62 edge 31
l 22 17

g halfedge 63 edge 31
l 17 22

g halfedge 64 edge 32
l 16 23

g halfedge 65 edge 32
l 23 16

g halfedge 66 edge 33
l 21 18

g halfedge 67 edge 33
l 18 21

g halfedge 68 edge 34
l 20 19

g halfedge 69 edge 34
l 19 20

g halfedge 70 edge 35
l 15 24

g halfedge 71 edge 35
l 24 15

g halfedge 72 edge 36
l 25 26

g halfedge 73 edge 36
l 26 25

g halfedge 74 edge 37
l 26 27

g halfedge 75 edge 37
l 27 26

g halfedge 76 edge 38
l 27 28

g halfedge 77 edge 38
l 28 27

g halfedge 78 edge 39
l 28 25

g halfedge 79 edge 39
l 25 28

g halfedge 80 edge 40
l 25 29

g halfedge 81 edge 40
l 29 25

g halfedge 82 edge 41
l 29 30

g halfedge 83 edge 41
l 30 29

g halfedge 84 edge 42
l 30 26

g halfedge 85 edge 42
l 26 30

g halfedge 86 edge 43
l 28 31

g halfedge 87 edge 43
l 31 28

g halfedge 88 edge 44
l 31 29

g halfedge 89 edge 44
l 29 31

g halfedge 90 edge 45
l 27 32

g halfedge 91 edge 45
l 32 27

g halfedge 92 edge 46
l 32 31

g halfedge 93 edge 46
l 31 32

g halfedge 94 edge 47
l 30 32

g halfedge 95 edge 47
l 32 30

g halfedge 96 edge 48
l 33 34 35 36 37 38 39 40 41 42 43 44 45 46 47 48 49 50 51 52 53 54 55 56 57 58 59 60 61 33

g halfedge 97 edge 48
l 33 61 60 59 58 57 56 55 54 53 52 51 50 49 48 47 46 45 44 43 42 41 40 39 38 37 36 35 34 33

g halfedge 98 edge 49
l 62 63 64 65 66 67 68 69 70 71 72 73 74 75 76 77 78 79 80 81 82 83 84 85 86 87 88 89 90 62

g halfedge 99 edge 49
l 62 90 89 88 87 86 85 84 83 82 81 80 79 78 77 76 75 74 73 72 71 70 69 68 67 66 65 64 63 62

g vertex 0
p 1

g vertex 1
p 2

g vertex 2
p 3

g vertex 3
p 4

g vertex 4
p 5

g vertex 5
p 6

g vertex 6
p 7

g vertex 7
p 8

g vertex 8
p 9

g vertex 9
p 10

g vertex 10
p 11

g vertex 11
p 12

g vertex 12
p 13

g vertex 13
p 14

g vertex 14
p 15

g vertex 15
p 16

g vertex 16
p 17

g vertex 17
p 18

g vertex 18
p 19

g vertex 19
p 20

g vertex 20
p 21

g vertex 21
p 22

g vertex 22
p 23

g vertex 23
p 24

g vertex 24
p 25

g vertex 25
p 26

g vertex 26
p 27

g vertex 27
p 28

g vertex 28
p 29

g vertex 29
p 30

g vertex 30
p 31

g vertex 31
p 32

g vertex 32
p 33

g vertex 33
p 62

# End of file
