# Created by FreeCAD <https://www.freecad.org>
v 1.000000 3.500000 3.200000
v 0.566987 3.250000 3.200000
v 0.566987 3.250000 1.800000
v 1.000000 3.500000 1.800000
v 0.566987 2.750000 3.200000
v 0.566987 2.750000 1.800000
v 1.000000 2.500000 3.200000
v 1.000000 2.500000 1.800000
v 1.433013 2.750000 3.200000
v 1.433013 2.750000 1.800000
v 1.433013 3.250000 3.200000
v 1.433013 3.250000 1.800000
v 0.505025 2.505025 0.801725
v 0.495000 2.515258 0.800000
v 0.495000 3.484742 0.800000
v 0.505025 3.494975 0.801725
v 0.513114 3.486886 0.806086
v 0.516563 3.483437 0.809142
v 0.519503 3.480497 0.812690
v 0.521865 3.478135 0.816647
v 0.523593 3.476407 0.820919
v 0.524646 3.475354 0.825405
v 0.525000 3.475000 0.830000
v 0.525000 2.525000 0.830000
v 0.524646 2.524646 0.825405
v 0.523593 2.523593 0.820919
v 0.521865 2.521865 0.816647
v 0.519503 2.519503 0.812690
v 0.516563 2.516563 0.809142
v 0.513114 2.513114 0.806086
v 0.510000 3.329983 0.804019
v 0.510000 3.164992 0.804019
v 0.510000 3.000000 0.804019
v 0.510000 2.835008 0.804019
v 0.510000 2.670017 0.804019
v 0.502765 2.670017 0.801022
v 0.502765 2.835008 0.801022
v 0.502765 3.000000 0.801022
v 0.502765 3.164992 0.801022
v 0.502765 3.329983 0.801022
v 0.516213 3.329983 0.808787
v 0.516213 3.164992 0.808787
v 0.516213 3.000000 0.808787
v 0.516213 2.835008 0.808787
v 0.516213 2.670017 0.808787
v 0.520981 3.329983 0.815000
v 0.520981 3.164992 0.815000
v 0.520981 3.000000 0.815000
v 0.520981 2.835008 0.815000
v 0.520981 2.670017 0.815000
v 0.523978 3.329983 0.822235
v 0.523978 3.164992 0.822235
v 0.523978 3.000000 0.822235
v 0.523978 2.835008 0.822235
v 0.523978 2.670017 0.822235
v 1.494975 3.494975 0.801725
v 1.505000 3.484742 0.800000
v 1.505000 2.515258 0.800000
v 1.494975 2.505025 0.801725
v 1.486886 2.513114 0.806086
v 1.483437 2.516563 0.809142
v 1.480497 2.519503 0.812690
v 1.478135 2.521865 0.816647
v 1.476407 2.523593 0.820919
v 1.475354 2.524646 0.825405
v 1.475000 2.525000 0.830000
v 1.475000 3.475000 0.830000
v 1.475354 3.475354 0.825405
v 1.476407 3.476407 0.820919
v 1.478135 3.478135 0.816647
v 1.480497 3.480497 0.812690
v 1.483437 3.483437 0.809142
v 1.486886 3.486886 0.806086
v 1.490000 2.670017 0.804019
v 1.490000 2.835008 0.804019
v 1.490000 3.000000 0.804019
v 1.490000 3.164992 0.804019
v 1.490000 3.329983 0.804019
v 1.497235 3.329983 0.801022
v 1.497235 3.164992 0.801022
v 1.497235 3.000000 0.801022
v 1.497235 2.835008 0.801022
v 1.497235 2.670017 0.801022
v 1.483787 2.670017 0.808787
v 1.483787 2.835008 0.808787
v 1.483787 3.000000 0.808787
v 1.483787 3.164992 0.808787
v 1.483787 3.329983 0.808787
v 1.479019 2.670017 0.815000
v 1.479019 2.835008 0.815000
v 1.479019 3.000000 0.815000
v 1.479019 3.164992 0.815000
v 1.479019 3.329983 0.815000
v 1.476022 2.670017 0.822235
v 1.476022 2.835008 0.822235
v 1.476022 3.000000 0.822235
v 1.476022 3.164992 0.822235
v 1.476022 3.329983 0.822235
v 0.515258 2.495000 0.800000
v 1.484742 2.495000 0.800000
v 0.670017 2.502765 0.801022
v 0.835008 2.502765 0.801022
v 1.000000 2.502765 0.801022
v 1.164992 2.502765 0.801022
v 1.329983 2.502765 0.801022
v 0.670017 2.510000 0.804019
v 0.835008 2.510000 0.804019
v 1.000000 2.510000 0.804019
v 1.164992 2.510000 0.804019
v 1.329983 2.510000 0.804019
v 0.670017 2.516213 0.808787
v 0.835008 2.516213 0.808787
v 1.000000 2.516213 0.808787
v 1.164992 2.516213 0.808787
v 1.329983 2.516213 0.808787
v 0.670017 2.520981 0.815000
v 0.835008 2.520981 0.815000
v 1.000000 2.520981 0.815000
v 1.164992 2.520981 0.815000
v 1.329983 2.520981 0.815000
v 0.670017 2.523978 0.822235
v 0.835008 2.523978 0.822235
v 1.000000 2.523978 0.822235
v 1.164992 2.523978 0.822235
v 1.329983 2.523978 0.822235
v 0.515258 3.505000 0.800000
v 1.484742 3.505000 0.800000
v 1.329983 3.490000 0.804019
v 1.164992 3.490000 0.804019
v 1.000000 3.490000 0.804019
v 0.835008 3.490000 0.804019
v 0.670017 3.490000 0.804019
v 0.670017 3.497235 0.801022
v 0.835008 3.497235 0.801022
v 1.000000 3.497235 0.801022
v 1.164992 3.497235 0.801022
v 1.329983 3.497235 0.801022
v 1.329983 3.483787 0.808787
v 1.164992 3.483787 0.808787
v 1.000000 3.483787 0.808787
v 0.835008 3.483787 0.808787
v 0.670017 3.483787 0.808787
v 1.329983 3.479019 0.815000
v 1.164992 3.479019 0.815000
v 1.000000 3.479019 0.815000
v 0.835008 3.479019 0.815000
v 0.670017 3.479019 0.815000
v 1.329983 3.476022 0.822235
v 1.164992 3.476022 0.822235
v 1.000000 3.476022 0.822235
v 0.835008 3.476022 0.822235
v 0.670017 3.476022 0.822235
v 1.475000 3.475000 1.500000
v 0.525000 3.475000 1.500000
v 1.475000 2.525000 1.500000
v 1.700000 3.000000 3.200000
v 1.688081 2.871375 3.200000
v 1.652731 2.747131 3.200000
v 1.595152 2.631498 3.200000
v 1.517306 2.528413 3.200000
v 1.421844 2.441388 3.200000
v 1.312017 2.373386 3.200000
v 1.191564 2.326722 3.200000
v 1.064588 2.302986 3.200000
v 0.935412 2.302986 3.200000
v 0.808436 2.326722 3.200000
v 0.687983 2.373386 3.200000
v 0.578156 2.441388 3.200000
v 0.482694 2.528413 3.200000
v 0.404848 2.631498 3.200000
v 0.347269 2.747131 3.200000
v 0.311919 2.871375 3.200000
v 0.300000 3.000000 3.200000
v 0.311919 3.128625 3.200000
v 0.347269 3.252869 3.200000
v 0.404848 3.368503 3.200000
v 0.482694 3.471587 3.200000
v 0.578156 3.558612 3.200000
v 0.687983 3.626614 3.200000
v 0.808436 3.673278 3.200000
v 0.935412 3.697014 3.200000
v 1.064588 3.697014 3.200000
v 1.191564 3.673278 3.200000
v 1.312017 3.626614 3.200000
v 1.421844 3.558612 3.200000
v 1.517306 3.471587 3.200000
v 1.595152 3.368503 3.200000
v 1.652731 3.252869 3.200000
v 1.688081 3.128625 3.200000
v 1.579724 2.607674 0.800000
v 1.637738 2.711399 0.800000
v 1.677368 2.823443 0.800000
v 1.697473 2.940577 0.800000
v 1.697473 3.059423 0.800000
v 1.677368 3.176557 0.800000
v 1.637738 3.288601 0.800000
v 1.579724 3.392326 0.800000
v 1.392326 3.579724 0.800000
v 1.288601 3.637738 0.800000
v 1.176557 3.677368 0.800000
v 1.059423 3.697473 0.800000
v 0.940577 3.697473 0.800000
v 0.823443 3.677368 0.800000
v 0.711399 3.637738 0.800000
v 0.607674 3.579724 0.800000
v 0.420276 3.392326 0.800000
v 0.362262 3.288601 0.800000
v 0.322632 3.176557 0.800000
v 0.302527 3.059423 0.800000
v 0.302527 2.940577 0.800000
v 0.322632 2.823443 0.800000
v 0.362262 2.711399 0.800000
v 0.420276 2.607674 0.800000
v 0.607674 2.420276 0.800000
v 0.711399 2.362262 0.800000
v 0.823443 2.322632 0.800000
v 0.940577 2.302527 0.800000
v 1.059423 2.302527 0.800000
v 1.176557 2.322632 0.800000
v 1.288601 2.362262 0.800000
v 1.392326 2.420276 0.800000
v 0.525000 2.525000 1.500000
vn 0.500000 -0.866026 0.000000
vn 0.500000 -0.866026 0.000000
vn 1.000000 0.000000 0.000000
vn 1.000000 0.000000 0.000000
vn 0.500000 0.866026 0.000000
vn 0.500000 0.866026 0.000000
vn -0.500000 0.866026 0.000000
vn -0.500000 0.866026 0.000000
vn -1.000000 0.000000 0.000000
vn -1.000000 0.000000 0.000000
vn -0.500000 -0.866026 -0.000000
vn -0.500000 -0.866026 0.000000
vn 0.000000 0.000000 1.000000
vn 0.000000 0.000000 1.000000
vn 0.000000 -0.000000 1.000000
vn 0.000000 0.000000 1.000000
vn 0.167686 -0.001903 -0.985839
vn 0.382699 0.001306 -0.923872
vn 0.476210 -0.002133 -0.879329
vn 0.608809 0.001632 -0.793315
vn 0.663296 -0.000218 -0.748357
vn 0.769886 0.000280 -0.638182
vn 0.793315 0.001553 -0.608809
vn 0.858806 -0.000571 -0.512301
vn 0.923872 0.001258 -0.382699
vn 0.926901 0.000936 -0.375306
vn 0.973567 -0.000507 -0.228400
vn 0.997024 0.002902 -0.077033
vn 0.991450 0.000000 -0.130489
vn 0.991450 0.000000 -0.130489
vn 0.923873 0.000000 -0.382700
vn 0.923873 0.000000 -0.382700
vn 0.793316 0.000000 -0.608810
vn 0.793316 0.000000 -0.608810
vn 0.608810 0.000000 -0.793316
vn 0.608809 -0.001632 -0.793315
vn 0.476210 0.002133 -0.879329
vn 0.382699 -0.001306 -0.923872
vn 0.167686 0.001903 -0.985839
vn 0.130489 0.000000 -0.991450
vn 0.130489 0.000000 -0.991450
vn 0.382700 0.000000 -0.923873
vn 0.382700 0.000000 -0.923873
vn 0.608810 0.000000 -0.793316
vn 0.608810 0.000000 -0.793316
vn 0.793316 0.000000 -0.608810
vn 0.130489 0.000000 -0.991450
vn 0.130489 0.000000 -0.991450
vn 0.130489 0.000000 -0.991450
vn 0.382700 0.000000 -0.923873
vn 0.663296 0.000218 -0.748357
vn 0.769886 -0.000280 -0.638182
vn 0.793315 -0.001553 -0.608809
vn 0.858806 0.000571 -0.512301
vn 0.923872 -0.001258 -0.382699
vn 0.926901 -0.000936 -0.375306
vn 0.973567 0.000507 -0.228400
vn 0.997046 0.000000 -0.076811
vn 0.986217 -0.000433 -0.165458
vn 0.978511 0.000000 -0.206193
vn 0.923873 0.000000 -0.382700
vn 0.382700 0.000000 -0.923873
vn 0.382700 0.000000 -0.923873
vn 0.608810 0.000000 -0.793316
vn 0.382700 0.000000 -0.923873
vn 0.608810 0.000000 -0.793316
vn 0.608810 0.000000 -0.793316
vn 0.793316 0.000000 -0.608810
vn 0.793316 0.000000 -0.608810
vn 0.923873 0.000000 -0.382700
vn 0.608810 0.000000 -0.793316
vn 0.382700 0.000000 -0.923873
vn 0.608810 0.000000 -0.793316
vn 0.382700 0.000000 -0.923873
vn 0.793316 0.000000 -0.608810
vn 0.793316 0.000000 -0.608810
vn 0.793316 0.000000 -0.608810
vn 0.923873 0.000000 -0.382700
vn 0.923873 0.000000 -0.382700
vn 0.991450 0.000000 -0.130489
vn 0.923873 0.000000 -0.382700
vn 0.923873 0.000000 -0.382700
vn -0.167686 0.001903 -0.985839
vn -0.382702 -0.001306 -0.923871
vn -0.476210 0.002133 -0.879329
vn -0.608805 -0.001632 -0.793318
vn -0.663290 0.000218 -0.748362
vn -0.769892 -0.000280 -0.638174
vn -0.793322 -0.001553 -0.608800
vn -0.858806 0.000571 -0.512301
vn -0.923869 -0.001258 -0.382706
vn -0.926905 -0.000936 -0.375294
vn -0.973561 0.000507 -0.228425
vn -0.997025 -0.002902 -0.077020
vn -0.991450 0.000000 -0.130489
vn -0.991450 0.000000 -0.130489
vn -0.923870 0.000000 -0.382706
vn -0.923870 0.000000 -0.382706
vn -0.793323 0.000000 -0.608800
vn -0.793323 0.000000 -0.608800
vn -0.608806 0.000000 -0.793319
vn -0.608805 0.001632 -0.793318
vn -0.476210 -0.002133 -0.879329
vn -0.382702 0.001306 -0.923871
vn -0.167686 -0.001903 -0.985839
vn -0.130488 0.000000 -0.991450
vn -0.130488 0.000000 -0.991450
vn -0.382702 -0.000000 -0.923872
vn -0.382702 0.000000 -0.923872
vn -0.608806 -0.000000 -0.793319
vn -0.608806 0.000000 -0.793319
vn -0.793323 -0.000000 -0.608800
vn -0.130488 0.000000 -0.991450
vn -0.130488 0.000000 -0.991450
vn -0.130488 0.000000 -0.991450
vn -0.382702 -0.000000 -0.923872
vn -0.663290 -0.000218 -0.748362
vn -0.769892 0.000280 -0.638174
vn -0.793323 0.001553 -0.608800
vn -0.858806 -0.000571 -0.512301
vn -0.923869 0.001258 -0.382706
vn -0.926905 0.000936 -0.375295
vn -0.973561 -0.000507 -0.228425
vn -0.997047 0.000000 -0.076798
vn -0.986215 0.000433 -0.165467
vn -0.978508 0.000000 -0.206211
vn -0.923870 0.000000 -0.382706
vn -0.382702 -0.000000 -0.923872
vn -0.382702 -0.000000 -0.923872
vn -0.608806 -0.000000 -0.793319
vn -0.382702 0.000000 -0.923872
vn -0.608806 -0.000000 -0.793319
vn -0.608806 0.000000 -0.793319
vn -0.793323 -0.000000 -0.608800
vn -0.793323 0.000000 -0.608800
vn -0.923870 -0.000000 -0.382706
vn -0.608806 -0.000000 -0.793319
vn -0.382702 -0.000000 -0.923872
vn -0.608806 0.000000 -0.793319
vn -0.382702 0.000000 -0.923872
vn -0.793323 -0.000000 -0.608800
vn -0.793323 0.000000 -0.608800
vn -0.793323 0.000000 -0.608800
vn -0.923870 -0.000000 -0.382706
vn -0.923870 0.000000 -0.382706
vn -0.991450 -0.000000 -0.130489
vn -0.923870 -0.000000 -0.382706
vn -0.923870 0.000000 -0.382706
vn -0.001903 0.167686 -0.985839
vn 0.000000 0.130488 -0.991450
vn 0.000000 0.130488 -0.991450
vn 0.000000 0.382697 -0.923874
vn 0.000000 0.382697 -0.923874
vn 0.000000 0.608814 -0.793313
vn 0.000000 0.608814 -0.793313
vn 0.000000 0.793309 -0.608820
vn -0.001554 0.793308 -0.608819
vn 0.000571 0.858829 -0.512263
vn -0.001257 0.923875 -0.382693
vn -0.000936 0.926896 -0.375317
vn 0.000507 0.973561 -0.228425
vn -0.002902 0.997023 -0.077046
vn 0.000000 0.991448 -0.130504
vn 0.000000 0.991448 -0.130504
vn 0.000000 0.923875 -0.382693
vn 0.000000 0.923875 -0.382693
vn 0.000000 0.793309 -0.608820
vn 0.000000 0.793309 -0.608820
vn 0.000000 0.608814 -0.793313
vn 0.001632 0.608813 -0.793312
vn -0.002133 0.476205 -0.879332
vn 0.001306 0.382697 -0.923873
vn -0.000218 0.663303 -0.748351
vn 0.000279 0.769867 -0.638205
vn 0.001554 0.793308 -0.608819
vn -0.000571 0.858829 -0.512263
vn 0.001257 0.923875 -0.382693
vn 0.000936 0.926896 -0.375317
vn -0.000507 0.973561 -0.228425
vn 0.000000 0.997045 -0.076824
vn 0.000433 0.986214 -0.165475
vn 0.000000 0.978508 -0.206211
vn 0.000000 0.923875 -0.382693
vn -0.000279 0.769867 -0.638205
vn 0.000218 0.663303 -0.748351
vn -0.001632 0.608813 -0.793312
vn 0.002133 0.476205 -0.879332
vn -0.001306 0.382697 -0.923873
vn 0.001903 0.167686 -0.985839
vn 0.000000 0.130488 -0.991450
vn 0.000000 0.130488 -0.991450
vn 0.000000 0.382697 -0.923874
vn 0.000000 0.130488 -0.991450
vn 0.000000 0.382697 -0.923874
vn 0.000000 0.382697 -0.923874
vn 0.000000 0.608814 -0.793313
vn 0.000000 0.382697 -0.923874
vn 0.000000 0.382697 -0.923874
vn 0.000000 0.382697 -0.923874
vn 0.000000 0.608814 -0.793313
vn 0.000000 0.608814 -0.793313
vn 0.000000 0.793309 -0.608820
vn 0.000000 0.793309 -0.608820
vn 0.000000 0.923875 -0.382693
vn 0.000000 0.608814 -0.793313
vn 0.000000 0.608814 -0.793313
vn 0.000000 0.793309 -0.608820
vn 0.000000 0.793309 -0.608820
vn 0.000000 0.793309 -0.608820
vn 0.000000 0.923875 -0.382693
vn 0.000000 0.923875 -0.382693
vn 0.000000 0.991448 -0.130504
vn 0.000000 0.923875 -0.382693
vn 0.000000 0.923875 -0.382693
vn -0.001903 -0.167686 -0.985839
vn 0.001306 -0.382697 -0.923873
vn -0.002133 -0.476205 -0.879332
vn 0.001632 -0.608813 -0.793312
vn -0.000218 -0.663303 -0.748351
vn 0.000279 -0.769867 -0.638205
vn 0.001554 -0.793308 -0.608819
vn -0.000571 -0.858829 -0.512263
vn 0.001257 -0.923875 -0.382693
vn 0.000936 -0.926896 -0.375317
vn -0.000507 -0.973561 -0.228425
vn 0.002902 -0.997023 -0.077046
vn 0.000000 -0.991448 -0.130504
vn 0.000000 -0.991448 -0.130504
vn -0.000000 -0.923875 -0.382693
vn 0.000000 -0.923875 -0.382693
vn -0.000000 -0.793309 -0.608820
vn 0.000000 -0.793309 -0.608820
vn -0.000000 -0.608814 -0.793313
vn -0.001632 -0.608813 -0.793312
vn 0.002133 -0.476205 -0.879332
vn -0.001306 -0.382697 -0.923873
vn 0.001903 -0.167686 -0.985839
vn 0.000000 -0.130488 -0.991450
vn 0.000000 -0.130488 -0.991450
vn 0.000000 -0.382697 -0.923874
vn 0.000000 -0.382697 -0.923874
vn 0.000000 -0.608814 -0.793313
vn 0.000000 -0.608814 -0.793313
vn 0.000000 -0.793309 -0.608820
vn -0.000000 -0.130488 -0.991450
vn 0.000000 -0.130488 -0.991450
vn 0.000000 -0.130488 -0.991450
vn 0.000000 -0.382697 -0.923874
vn 0.000218 -0.663303 -0.748351
vn -0.000279 -0.769867 -0.638205
vn -0.001554 -0.793308 -0.608819
vn 0.000571 -0.858829 -0.512263
vn -0.001257 -0.923875 -0.382693
vn -0.000936 -0.926896 -0.375317
vn 0.000507 -0.973561 -0.228425
vn -0.000000 -0.997045 -0.076824
vn -0.000433 -0.986214 -0.165475
vn 0.000000 -0.978508 -0.206211
vn -0.000000 -0.923875 -0.382693
vn 0.000000 -0.382697 -0.923874
vn 0.000000 -0.382697 -0.923874
vn 0.000000 -0.608814 -0.793313
vn 0.000000 -0.382697 -0.923874
vn 0.000000 -0.608814 -0.793313
vn 0.000000 -0.608814 -0.793313
vn 0.000000 -0.793309 -0.608820
vn 0.000000 -0.793309 -0.608820
vn 0.000000 -0.923875 -0.382693
vn 0.000000 -0.608814 -0.793313
vn 0.000000 -0.382697 -0.923874
vn 0.000000 -0.608814 -0.793313
vn -0.000000 -0.382697 -0.923874
vn 0.000000 -0.793309 -0.608820
vn 0.000000 -0.793309 -0.608820
vn 0.000000 -0.793309 -0.608820
vn 0.000000 -0.923875 -0.382693
vn 0.000000 -0.923875 -0.382693
vn 0.000000 -0.991448 -0.130504
vn 0.000000 -0.923875 -0.382693
vn 0.000000 -0.923875 -0.382693
vn 0.000000 -1.000000 0.000000
vn 0.000000 -1.000000 0.000000
vn -1.000000 0.000000 0.000000
vn -1.000000 -0.000000 0.000000
vn 0.995733 -0.092270 0.001236
vn 0.999999 0.000000 -0.001053
vn 0.995733 0.092270 0.001236
vn 0.985587 0.169167 -0.001021
vn 0.961826 0.273660 0.001172
vn 0.942765 0.333457 -0.000925
vn 0.895163 0.445738 0.001044
vn 0.872764 0.488141 -0.000765
vn 0.798014 0.602638 0.000852
vn 0.777610 0.628746 -0.000541
vn 0.714349 0.699790 0.000173
vn 0.985587 -0.169167 -0.001021
vn 0.961826 -0.273660 0.001172
vn 0.942765 -0.333457 -0.000925
vn 0.895161 -0.445741 0.001044
vn 0.872764 -0.488141 -0.000765
vn 0.798018 -0.602634 0.000852
vn 0.777610 -0.628746 -0.000541
vn 0.714349 -0.699790 0.000173
vn 0.699774 -0.714364 0.000451
vn 0.673696 -0.739008 0.001148
vn 0.628745 -0.777611 -0.000893
vn 0.526432 -0.850217 0.001004
vn 0.488142 -0.872764 -0.000717
vn 0.361243 -0.932471 0.000797
vn 0.333456 -0.942766 -0.000479
vn 0.183750 -0.982973 0.000526
vn 0.169168 -0.985587 -0.000176
vn 0.000000 -1.000000 0.000191
vn 0.000000 -1.000000 0.000191
vn -0.169168 -0.985587 -0.000176
vn -0.183750 -0.982973 0.000526
vn -0.333456 -0.942766 -0.000479
vn -0.361243 -0.932471 0.000797
vn -0.488141 -0.872764 -0.000717
vn -0.526432 -0.850217 0.001004
vn -0.628745 -0.777611 -0.000893
vn -0.673695 -0.739008 0.001148
vn -0.699772 -0.714366 0.000451
vn -0.714349 -0.699790 0.000173
vn -0.777610 -0.628747 -0.000541
vn -0.798018 -0.602633 0.000852
vn -0.872764 -0.488141 -0.000765
vn -0.895161 -0.445742 0.001044
vn -0.942765 -0.333457 -0.000925
vn -0.961826 -0.273659 0.001172
vn -0.985587 -0.169167 -0.001021
vn -0.995733 -0.092269 0.001236
vn -0.999999 0.000000 -0.001053
vn -0.995733 0.092269 0.001236
vn -0.985587 0.169167 -0.001021
vn -0.961826 0.273659 0.001172
vn -0.942765 0.333457 -0.000925
vn -0.895163 0.445738 0.001044
vn -0.872764 0.488141 -0.000765
vn -0.798014 0.602638 0.000852
vn -0.777610 0.628747 -0.000541
vn -0.714349 0.699790 0.000173
vn -0.699772 0.714366 0.000451
vn -0.673695 0.739008 0.001148
vn -0.628745 0.777611 -0.000893
vn -0.526432 0.850217 0.001004
vn -0.488141 0.872764 -0.000717
vn -0.361243 0.932471 0.000797
vn -0.333456 0.942766 -0.000479
vn -0.183750 0.982973 0.000526
vn -0.169168 0.985587 -0.000176
vn 0.000000 1.000000 0.000191
vn -0.000000 1.000000 0.000191
vn 0.169168 0.985587 -0.000176
vn 0.183750 0.982973 0.000526
vn 0.333456 0.942766 -0.000479
vn 0.361243 0.932471 0.000797
vn 0.488142 0.872764 -0.000717
vn 0.526432 0.850217 0.001004
vn 0.628745 0.777611 -0.000893
vn 0.673696 0.739008 0.001148
vn 0.699774 0.714364 0.000451
vn 0.000000 0.000000 -1.000000
vn -0.000000 0.000000 -1.000000
vn 0.000000 0.000000 -1.000000
vn -0.000000 0.000000 -1.000000
vn 0.000000 0.000000 -1.000000
vn -0.000000 0.000000 -1.000000
vn 0.000000 0.000000 -1.000000
vn -0.000000 0.000000 -1.000000
vn 0.000000 0.000000 -1.000000
vn 0.000000 0.000000 -1.000000
vn 0.000000 0.000000 -1.000000
vn 0.000000 0.000000 -1.000000
vn 0.000000 0.000000 -1.000000
vn 0.000000 0.000000 -1.000000
vn 0.000000 0.000000 -1.000000
vn 0.000000 0.000000 -1.000000
vn 0.000000 0.000000 -1.000000
vn 0.000000 0.000000 -1.000000
vn 0.000000 -0.000000 -1.000000
vn 0.000000 0.000000 -1.000000
vn 0.000000 -0.000000 -1.000000
vn 0.000000 0.000000 -1.000000
vn 0.000000 -0.000000 -1.000000
vn 0.000000 0.000000 -1.000000
vn 0.000000 1.000000 -0.000000
vn 0.000000 1.000000 0.000000
vn 1.000000 0.000000 0.000000
vn 1.000000 -0.000000 0.000000
vn 0.000000 0.000000 -1.000000
vn 0.000000 0.000000 -1.000000
vn 0.000000 0.000000 -1.000000
vn 0.000000 0.000000 -1.000000
vn 0.000000 0.000000 -1.000000
vn 0.000000 0.000000 -1.000000
vn 0.000000 0.000000 -1.000000
vn 0.000000 0.000000 -1.000000
vn 0.000000 0.000000 -1.000000
vn 0.000000 0.000000 -1.000000
vn 0.000000 0.000000 1.000000
vn 0.000000 0.000000 1.000000
vn 0.000000 -0.000000 1.000000
vn 0.000000 0.000000 1.000000
vn 0.000000 0.000000 1.000000
vn 0.000000 0.000000 1.000000
vn 0.000000 0.000000 1.000000
vn 0.000000 0.000000 1.000000
vn -0.000000 0.000000 1.000000
vn -0.000000 0.000000 1.000000
vn 0.000000 0.000000 1.000000
vn 0.000000 0.000000 1.000000
vn 0.000000 0.000000 1.000000
vn 0.000000 0.000000 1.000000
vn 0.000000 0.000000 1.000000
vn 0.000000 0.000000 1.000000
vn 0.000000 0.000000 1.000000
vn 0.000000 0.000000 1.000000
vn 0.000000 0.000000 1.000000
vn 0.000000 0.000000 1.000000
vn 0.000000 -0.000000 1.000000
vn 0.000000 0.000000 1.000000
vn 0.000000 0.000000 1.000000
vn 0.000000 0.000000 1.000000
vn 0.000000 0.000000 1.000000
vn 0.000000 0.000000 1.000000
vn 0.000000 0.000000 1.000000
vn 0.000000 0.000000 1.000000
vn -0.000000 0.000000 1.000000
vn -0.000000 0.000000 1.000000
vn 0.000000 0.000000 1.000000
vn 0.000000 0.000000 1.000000
vn -0.000000 -0.000000 1.000000
vn 0.000000 0.000000 1.000000
vn 0.000000 0.000000 1.000000
vn 0.000000 0.000000 1.000000
vn 0.000000 -0.000000 1.000000
vn 0.000000 0.000000 1.000000
vn -0.000000 0.000000 1.000000
vn 0.000000 -0.000000 1.000000
f 1//1 2//1 4//1
f 4//2 2//2 3//2
f 2//3 5//3 3//3
f 3//4 5//4 6//4
f 5//5 7//5 6//5
f 6//6 7//6 8//6
f 7//7 9//7 8//7
f 8//8 9//8 10//8
f 9//9 11//9 10//9
f 10//10 11//10 12//10
f 11//11 1//11 12//11
f 12//12 1//12 4//12
f 12//13 4//13 10//13
f 10//14 4//14 8//14
f 8//15 4//15 3//15
f 8//16 3//16 6//16
f 14//17 36//17 13//17
f 13//18 36//18 35//18
f 13//19 35//19 30//19
f 30//20 35//20 45//20
f 30//21 45//21 29//21
f 29//22 45//22 28//22
f 28//23 45//23 50//23
f 28//24 50//24 27//24
f 27//25 50//25 55//25
f 27//26 55//26 26//26
f 26//27 55//27 25//27
f 25//28 55//28 24//28
f 24//29 55//29 54//29
f 24//30 54//30 53//30
f 53//31 54//31 48//31
f 53//32 48//32 47//32
f 47//33 48//33 42//33
f 47//34 42//34 41//34
f 41//35 42//35 31//35
f 41//36 31//36 17//36
f 17//37 31//37 16//37
f 16//38 31//38 40//38
f 16//39 40//39 15//39
f 15//40 40//40 39//40
f 15//41 39//41 38//41
f 38//42 39//42 33//42
f 38//43 33//43 34//43
f 34//44 33//44 44//44
f 34//45 44//45 45//45
f 45//46 44//46 50//46
f 15//47 38//47 14//47
f 14//48 38//48 37//48
f 14//49 37//49 36//49
f 36//50 37//50 35//50
f 17//51 18//51 41//51
f 41//52 18//52 19//52
f 41//53 19//53 46//53
f 46//54 19//54 20//54
f 46//55 20//55 51//55
f 51//56 20//56 21//56
f 51//57 21//57 22//57
f 23//58 24//58 22//58
f 22//59 24//59 52//59
f 22//60 52//60 51//60
f 51//61 52//61 46//61
f 39//62 40//62 32//62
f 32//63 40//63 31//63
f 32//64 31//64 42//64
f 39//65 32//65 33//65
f 33//66 32//66 43//66
f 33//67 43//67 44//67
f 44//68 43//68 49//68
f 44//69 49//69 50//69
f 50//70 49//70 55//70
f 43//71 32//71 42//71
f 37//72 38//72 34//72
f 45//73 35//73 34//73
f 34//74 35//74 37//74
f 49//75 43//75 48//75
f 48//76 43//76 42//76
f 41//77 46//77 47//77
f 47//78 46//78 52//78
f 47//79 52//79 53//79
f 53//80 52//80 24//80
f 55//81 49//81 54//81
f 54//82 49//82 48//82
f 57//83 79//83 56//83
f 56//84 79//84 78//84
f 56//85 78//85 73//85
f 73//86 78//86 88//86
f 73//87 88//87 72//87
f 72//88 88//88 71//88
f 71//89 88//89 93//89
f 71//90 93//90 70//90
f 70//91 93//91 98//91
f 70//92 98//92 69//92
f 69//93 98//93 68//93
f 68//94 98//94 67//94
f 67//95 98//95 97//95
f 67//96 97//96 96//96
f 96//97 97//97 91//97
f 96//98 91//98 90//98
f 90//99 91//99 85//99
f 90//100 85//100 84//100
f 84//101 85//101 74//101
f 84//102 74//102 60//102
f 60//103 74//103 59//103
f 59//104 74//104 83//104
f 59//105 83//105 58//105
f 58//106 83//106 82//106
f 58//107 82//107 81//107
f 81//108 82//108 76//108
f 81//109 76//109 77//109
f 77//110 76//110 87//110
f 77//111 87//111 88//111
f 88//112 87//112 93//112
f 58//113 81//113 57//113
f 57//114 81//114 80//114
f 57//115 80//115 79//115
f 79//116 80//116 78//116
f 60//117 61//117 84//117
f 84//118 61//118 62//118
f 84//119 62//119 89//119
f 89//120 62//120 63//120
f 89//121 63//121 94//121
f 94//122 63//122 64//122
f 94//123 64//123 65//123
f 66//124 67//124 65//124
f 65//125 67//125 95//125
f 65//126 95//126 94//126
f 94//127 95//127 89//127
f 82//128 83//128 75//128
f 75//129 83//129 74//129
f 75//130 74//130 85//130
f 82//131 75//131 76//131
f 76//132 75//132 86//132
f 76//133 86//133 87//133
f 87//134 86//134 92//134
f 87//135 92//135 93//135
f 93//136 92//136 98//136
f 86//137 75//137 85//137
f 80//138 81//138 77//138
f 88//139 78//139 77//139
f 77//140 78//140 80//140
f 92//141 86//141 91//141
f 91//142 86//142 85//142
f 84//143 89//143 90//143
f 90//144 89//144 95//144
f 90//145 95//145 96//145
f 96//146 95//146 67//146
f 98//147 92//147 97//147
f 97//148 92//148 91//148
f 13//149 101//149 99//149
f 99//150 101//150 102//150
f 99//151 102//151 103//151
f 103//152 102//152 108//152
f 103//153 108//153 109//153
f 109//154 108//154 114//154
f 109//155 114//155 115//155
f 115//156 114//156 120//156
f 115//157 120//157 62//157
f 62//158 120//158 63//158
f 63//159 120//159 125//159
f 63//160 125//160 64//160
f 64//161 125//161 65//161
f 65//162 125//162 66//162
f 66//163 125//163 124//163
f 66//164 124//164 123//164
f 123//165 124//165 118//165
f 123//166 118//166 117//166
f 117//167 118//167 112//167
f 117//168 112//168 111//168
f 111//169 112//169 106//169
f 111//170 106//170 30//170
f 30//171 106//171 13//171
f 13//172 106//172 101//172
f 30//173 29//173 111//173
f 111//174 29//174 28//174
f 111//175 28//175 116//175
f 116//176 28//176 27//176
f 116//177 27//177 121//177
f 121//178 27//178 26//178
f 121//179 26//179 25//179
f 24//180 66//180 25//180
f 25//181 66//181 122//181
f 25//182 122//182 121//182
f 121//183 122//183 116//183
f 62//184 61//184 115//184
f 115//185 61//185 60//185
f 115//186 60//186 110//186
f 110//187 60//187 59//187
f 110//188 59//188 105//188
f 105//189 59//189 100//189
f 105//190 100//190 104//190
f 104//191 100//191 103//191
f 104//192 103//192 109//192
f 100//193 99//193 103//193
f 102//194 101//194 107//194
f 107//195 101//195 106//195
f 107//196 106//196 112//196
f 110//197 105//197 104//197
f 110//198 104//198 109//198
f 102//199 107//199 108//199
f 108//200 107//200 113//200
f 108//201 113//201 114//201
f 114//202 113//202 119//202
f 114//203 119//203 120//203
f 120//204 119//204 125//204
f 113//205 107//205 112//205
f 115//206 110//206 109//206
f 119//207 113//207 118//207
f 118//208 113//208 112//208
f 111//209 116//209 117//209
f 117//210 116//210 122//210
f 117//211 122//211 123//211
f 123//212 122//212 66//212
f 125//213 119//213 124//213
f 124//214 119//214 118//214
f 126//215 133//215 16//215
f 16//216 133//216 132//216
f 16//217 132//217 17//217
f 17//218 132//218 142//218
f 17//219 142//219 18//219
f 18//220 142//220 19//220
f 19//221 142//221 147//221
f 19//222 147//222 20//222
f 20//223 147//223 152//223
f 20//224 152//224 21//224
f 21//225 152//225 22//225
f 22//226 152//226 23//226
f 23//227 152//227 151//227
f 23//228 151//228 150//228
f 150//229 151//229 145//229
f 150//230 145//230 144//230
f 144//231 145//231 139//231
f 144//232 139//232 138//232
f 138//233 139//233 128//233
f 138//234 128//234 73//234
f 73//235 128//235 56//235
f 56//236 128//236 137//236
f 56//237 137//237 127//237
f 127//238 137//238 136//238
f 127//239 136//239 135//239
f 135//240 136//240 130//240
f 135//241 130//241 131//241
f 131//242 130//242 141//242
f 131//243 141//243 142//243
f 142//244 141//244 147//244
f 127//245 135//245 126//245
f 126//246 135//246 134//246
f 126//247 134//247 133//247
f 133//248 134//248 132//248
f 73//249 72//249 138//249
f 138//250 72//250 71//250
f 138//251 71//251 143//251
f 143//252 71//252 70//252
f 143//253 70//253 148//253
f 148//254 70//254 69//254
f 148//255 69//255 68//255
f 67//256 23//256 68//256
f 68//257 23//257 149//257
f 68//258 149//258 148//258
f 148//259 149//259 143//259
f 136//260 137//260 129//260
f 129//261 137//261 128//261
f 129//262 128//262 139//262
f 136//263 129//263 130//263
f 130//264 129//264 140//264
f 130//265 140//265 141//265
f 141//266 140//266 146//266
f 141//267 146//267 147//267
f 147//268 146//268 152//268
f 140//269 129//269 139//269
f 134//270 135//270 131//270
f 142//271 132//271 131//271
f 131//272 132//272 134//272
f 146//273 140//273 145//273
f 145//274 140//274 139//274
f 138//275 143//275 144//275
f 144//276 143//276 149//276
f 144//277 149//277 150//277
f 150//278 149//278 23//278
f 152//279 146//279 151//279
f 151//280 146//280 145//280
f 23//281 67//281 154//281
f 154//282 67//282 153//282
f 67//283 66//283 153//283
f 153//284 66//284 155//284
f 157//285 193//285 156//285
f 156//286 193//286 194//286
f 156//287 194//287 189//287
f 189//288 194//288 195//288
f 189//289 195//289 188//289
f 188//290 195//290 196//290
f 188//291 196//291 187//291
f 187//292 196//292 197//292
f 187//293 197//293 186//293
f 186//294 197//294 57//294
f 186//295 57//295 56//295
f 193//296 157//296 192//296
f 192//297 157//297 158//297
f 192//298 158//298 191//298
f 191//299 158//299 159//299
f 191//300 159//300 190//300
f 190//301 159//301 160//301
f 190//302 160//302 58//302
f 58//303 160//303 59//303
f 59//304 160//304 100//304
f 100//305 160//305 161//305
f 100//306 161//306 221//306
f 221//307 161//307 162//307
f 221//308 162//308 220//308
f 220//309 162//309 163//309
f 220//310 163//310 219//310
f 219//311 163//311 164//311
f 219//312 164//312 218//312
f 218//313 164//313 165//313
f 218//314 165//314 217//314
f 217//315 165//315 216//315
f 216//316 165//316 166//316
f 216//317 166//317 215//317
f 215//318 166//318 167//318
f 215//319 167//319 214//319
f 214//320 167//320 168//320
f 214//321 168//321 99//321
f 99//322 168//322 169//322
f 99//323 169//323 13//323
f 13//324 169//324 14//324
f 14//325 169//325 213//325
f 213//326 169//326 170//326
f 213//327 170//327 212//327
f 212//328 170//328 171//328
f 212//329 171//329 211//329
f 211//330 171//330 172//330
f 211//331 172//331 210//331
f 210//332 172//332 173//332
f 210//333 173//333 209//333
f 209//334 173//334 174//334
f 209//335 174//335 208//335
f 208//336 174//336 175//336
f 208//337 175//337 207//337
f 207//338 175//338 176//338
f 207//339 176//339 206//339
f 206//340 176//340 177//340
f 206//341 177//341 15//341
f 15//342 177//342 16//342
f 16//343 177//343 126//343
f 126//344 177//344 178//344
f 126//345 178//345 205//345
f 205//346 178//346 179//346
f 205//347 179//347 204//347
f 204//348 179//348 180//348
f 204//349 180//349 203//349
f 203//350 180//350 181//350
f 203//351 181//351 202//351
f 202//352 181//352 182//352
f 202//353 182//353 201//353
f 201//354 182//354 200//354
f 200//355 182//355 183//355
f 200//356 183//356 199//356
f 199//357 183//357 184//357
f 199//358 184//358 198//358
f 198//359 184//359 185//359
f 198//360 185//360 127//360
f 127//361 185//361 186//361
f 127//362 186//362 56//362
f 127//363 126//363 198//363
f 198//364 126//364 205//364
f 198//365 205//365 199//365
f 199//366 205//366 204//366
f 199//367 204//367 200//367
f 200//368 204//368 203//368
f 200//369 203//369 201//369
f 201//370 203//370 202//370
f 58//371 57//371 190//371
f 190//372 57//372 197//372
f 190//373 197//373 196//373
f 190//374 196//374 191//374
f 191//375 196//375 195//375
f 191//376 195//376 192//376
f 192//377 195//377 194//377
f 192//378 194//378 193//378
f 14//379 213//379 15//379
f 15//380 213//380 206//380
f 206//381 213//381 207//381
f 207//382 213//382 212//382
f 207//383 212//383 208//383
f 208//384 212//384 211//384
f 208//385 211//385 209//385
f 209//386 211//386 210//386
f 66//387 24//387 155//387
f 155//388 24//388 222//388
f 24//389 23//389 222//389
f 222//390 23//390 154//390
f 154//391 153//391 222//391
f 222//392 153//392 155//392
f 99//393 100//393 214//393
f 214//394 100//394 221//394
f 214//395 221//395 215//395
f 215//396 221//396 220//396
f 215//397 220//397 216//397
f 216//398 220//398 219//398
f 216//399 219//399 217//399
f 217//400 219//400 218//400
f 1//401 179//401 2//401
f 2//402 179//402 178//402
f 2//403 178//403 177//403
f 11//404 184//404 1//404
f 1//405 184//405 183//405
f 1//406 183//406 182//406
f 9//407 156//407 11//407
f 11//408 156//408 189//408
f 11//409 189//409 188//409
f 7//410 162//410 9//410
f 9//411 162//411 161//411
f 9//412 161//412 160//412
f 5//413 167//413 7//413
f 7//414 167//414 166//414
f 7//415 166//415 165//415
f 2//416 173//416 5//416
f 5//417 173//417 172//417
f 5//418 172//418 171//418
f 188//419 187//419 11//419
f 11//420 187//420 186//420
f 11//421 186//421 185//421
f 185//422 184//422 11//422
f 182//423 181//423 1//423
f 1//424 181//424 180//424
f 1//425 180//425 179//425
f 177//426 176//426 2//426
f 2//427 176//427 175//427
f 2//428 175//428 174//428
f 174//429 173//429 2//429
f 171//430 170//430 5//430
f 5//431 170//431 169//431
f 5//432 169//432 168//432
f 168//433 167//433 5//433
f 165//434 164//434 7//434
f 7//435 164//435 163//435
f 7//436 163//436 162//436
f 160//437 159//437 9//437
f 9//438 159//438 158//438
f 9//439 158//439 157//439
f 157//440 156//440 9//440
