# Created by FreeCAD <https://www.freecad.org>
v 8.500000 3.950000 3.200000
v 7.677276 3.475000 3.200000
v 7.677276 3.475000 1.800000
v 8.500000 3.950000 1.800000
v 7.677276 2.525000 3.200000
v 7.677276 2.525000 1.800000
v 8.500000 2.050000 3.200000
v 8.500000 2.050000 1.800000
v 9.322724 2.525000 3.200000
v 9.322724 2.525000 1.800000
v 9.322724 3.475000 3.200000
v 9.322724 3.475000 1.800000
v 9.175000 3.675000 0.800000
v 9.175000 2.325000 0.800000
v 9.135982 2.364018 0.803843
v 9.098463 2.401537 0.815224
v 9.063886 2.436114 0.833706
v 9.033579 2.466421 0.858579
v 9.008706 2.491294 0.888886
v 8.990224 2.509776 0.923463
v 8.978843 2.521157 0.960982
v 8.975963 2.524037 0.980397
v 8.975000 2.525000 1.000000
v 8.975000 3.475000 1.000000
v 8.975963 3.475963 0.980397
v 8.978843 3.478843 0.960982
v 8.990224 3.490224 0.923463
v 9.008706 3.508706 0.888886
v 9.033579 3.533579 0.858579
v 9.063886 3.563886 0.833706
v 9.098463 3.598463 0.815224
v 9.135982 3.635982 0.803843
v 9.075000 3.000000 0.826795
v 9.123236 3.000000 0.806815
v 9.033579 3.000000 0.858579
v 9.001795 3.000000 0.900000
v 8.981815 3.000000 0.948236
v 7.825000 2.325000 0.800000
v 7.864018 2.364018 0.803843
v 7.901537 2.401537 0.815224
v 7.936114 2.436114 0.833706
v 7.966421 2.466421 0.858579
v 7.991294 2.491294 0.888886
v 8.009776 2.509776 0.923463
v 8.021157 2.521157 0.960982
v 8.024037 2.524037 0.980397
v 8.025000 2.525000 1.000000
v 8.500000 2.425000 0.826795
v 8.500000 2.376764 0.806815
v 8.500000 2.466421 0.858579
v 8.500000 2.498205 0.900000
v 8.500000 2.518185 0.948236
v 7.825000 3.675000 0.800000
v 7.864018 3.635982 0.803843
v 7.901537 3.598463 0.815224
v 7.936114 3.563886 0.833706
v 7.966421 3.533579 0.858579
v 7.991294 3.508706 0.888886
v 8.009776 3.490224 0.923463
v 8.021157 3.478843 0.960982
v 8.024037 3.475963 0.980397
v 8.025000 3.475000 1.000000
v 7.925000 3.000000 0.826795
v 7.876764 3.000000 0.806815
v 7.966421 3.000000 0.858579
v 7.998205 3.000000 0.900000
v 8.018185 3.000000 0.948236
v 8.500000 3.481815 0.948236
v 8.500000 3.501795 0.900000
v 8.500000 3.533579 0.858579
v 8.500000 3.575000 0.826795
v 8.500000 3.623236 0.806815
v 8.975000 3.475000 1.500000
v 8.025000 3.475000 1.500000
v 8.975000 2.525000 1.500000
v 9.700000 3.000000 0.800000
v 9.683634 2.802486 0.800000
v 9.634981 2.610361 0.800000
v 9.555369 2.428863 0.800000
v 9.446969 2.262945 0.800000
v 9.312738 2.117131 0.800000
v 9.156338 1.995400 0.800000
v 8.982035 1.901072 0.800000
v 8.794583 1.836720 0.800000
v 8.599095 1.804099 0.800000
v 8.400905 1.804099 0.800000
v 8.205418 1.836720 0.800000
v 8.017966 1.901072 0.800000
v 7.843662 1.995400 0.800000
v 7.687262 2.117131 0.800000
v 7.553032 2.262945 0.800000
v 7.444632 2.428863 0.800000
v 7.365019 2.610361 0.800000
v 7.316367 2.802486 0.800000
v 7.300000 3.000000 0.800000
v 7.316367 3.197513 0.800000
v 7.365019 3.389639 0.800000
v 7.444632 3.571137 0.800000
v 7.553032 3.737055 0.800000
v 7.687262 3.882869 0.800000
v 7.843662 4.004600 0.800000
v 8.017966 4.098928 0.800000
v 8.205418 4.163280 0.800000
v 8.400905 4.195901 0.800000
v 8.599095 4.195901 0.800000
v 8.794583 4.163280 0.800000
v 8.982035 4.098928 0.800000
v 9.156338 4.004600 0.800000
v 9.312738 3.882869 0.800000
v 9.446969 3.737055 0.800000
v 9.555369 3.571137 0.800000
v 9.634981 3.389639 0.800000
v 9.683634 3.197513 0.800000
v 8.025000 2.525000 1.500000
v 9.700000 3.000000 3.200000
v 9.683634 2.802486 3.200000
v 9.634981 2.610361 3.200000
v 9.555369 2.428863 3.200000
v 9.446969 2.262945 3.200000
v 9.312738 2.117131 3.200000
v 9.156338 1.995400 3.200000
v 8.982035 1.901072 3.200000
v 8.794583 1.836720 3.200000
v 8.599095 1.804099 3.200000
v 8.400905 1.804099 3.200000
v 8.205418 1.836720 3.200000
v 8.017966 1.901072 3.200000
v 7.843662 1.995400 3.200000
v 7.687262 2.117131 3.200000
v 7.553032 2.262945 3.200000
v 7.444632 2.428863 3.200000
v 7.365019 2.610361 3.200000
v 7.316367 2.802486 3.200000
v 7.300000 3.000000 3.200000
v 7.316367 3.197513 3.200000
v 7.365019 3.389639 3.200000
v 7.444632 3.571137 3.200000
v 7.553032 3.737055 3.200000
v 7.687262 3.882869 3.200000
v 7.843662 4.004600 3.200000
v 8.017966 4.098928 3.200000
v 8.205418 4.163280 3.200000
v 8.400905 4.195901 3.200000
v 8.599095 4.195901 3.200000
v 8.794583 4.163280 3.200000
v 8.982035 4.098928 3.200000
v 9.156338 4.004600 3.200000
v 9.312738 3.882869 3.200000
v 9.446969 3.737055 3.200000
v 9.555369 3.571137 3.200000
v 9.634981 3.389639 3.200000
v 9.683634 3.197513 3.200000
vn 0.500000 -0.866025 0.000000
vn 0.500000 -0.866025 0.000000
vn 1.000000 0.000000 0.000000
vn 1.000000 0.000000 0.000000
vn 0.500000 0.866025 0.000000
vn 0.500000 0.866025 0.000000
vn -0.500000 0.866025 0.000000
vn -0.500000 0.866025 0.000000
vn -1.000000 0.000000 0.000000
vn -1.000000 0.000000 0.000000
vn -0.500000 -0.866025 -0.000000
vn -0.500000 -0.866025 0.000000
vn 0.000000 0.000000 1.000000
vn 0.000000 0.000000 1.000000
vn 0.000000 -0.000000 1.000000
vn 0.000000 0.000000 1.000000
vn -0.098017 -0.000000 -0.995185
vn -0.150939 -0.001595 -0.988542
vn -0.291538 0.001373 -0.956558
vn -0.382682 -0.002859 -0.923876
vn -0.472553 0.001487 -0.881301
vn -0.608767 -0.002275 -0.793346
vn -0.634405 0.000000 -0.773000
vn -0.773005 -0.000000 -0.634400
vn -0.793345 -0.002522 -0.608767
vn -0.882294 0.001703 -0.470696
vn -0.923878 -0.003491 -0.382672
vn -0.957089 0.001772 -0.289789
vn -0.989125 -0.002226 -0.147061
vn -0.983842 -0.000000 -0.179041
vn -0.998797 -0.000000 -0.049028
vn -0.998797 -0.000000 -0.049028
vn -0.095301 0.002742 -0.995445
vn -0.291538 -0.001373 -0.956558
vn -0.382682 0.002859 -0.923876
vn -0.472553 -0.001487 -0.881301
vn -0.608767 0.002275 -0.793346
vn -0.634405 -0.000000 -0.773000
vn -0.773005 -0.000000 -0.634400
vn -0.793345 0.002522 -0.608767
vn -0.882294 -0.001703 -0.470696
vn -0.923878 0.003491 -0.382672
vn -0.957089 -0.001772 -0.289789
vn -0.989125 0.002226 -0.147061
vn 0.000000 0.098019 -0.995185
vn -0.001594 0.150939 -0.988542
vn 0.001373 0.291534 -0.956559
vn -0.002859 0.382682 -0.923876
vn 0.001487 0.472556 -0.881299
vn -0.002275 0.608767 -0.793346
vn 0.000000 0.634405 -0.773000
vn 0.000000 0.773002 -0.634404
vn -0.002522 0.793345 -0.608767
vn 0.001703 0.882294 -0.470696
vn -0.003491 0.923874 -0.382680
vn 0.001773 0.957091 -0.289783
vn -0.002225 0.989127 -0.147049
vn 0.000000 0.983846 -0.179020
vn 0.000000 0.998795 -0.049077
vn 0.000000 0.998795 -0.049077
vn 0.002742 0.095303 -0.995445
vn -0.001373 0.291535 -0.956559
vn 0.002859 0.382682 -0.923876
vn -0.001487 0.472556 -0.881299
vn 0.002275 0.608767 -0.793346
vn 0.000000 0.634405 -0.773000
vn 0.000000 0.773002 -0.634404
vn 0.002522 0.793345 -0.608767
vn -0.001703 0.882294 -0.470696
vn 0.003491 0.923874 -0.382680
vn -0.001773 0.957091 -0.289783
vn 0.002225 0.989127 -0.147049
vn 0.098019 0.000000 -0.995185
vn 0.150940 0.001595 -0.988542
vn 0.291534 -0.001373 -0.956559
vn 0.382679 0.002859 -0.923877
vn 0.472559 -0.001488 -0.881298
vn 0.608767 0.002275 -0.793346
vn 0.634399 0.000000 -0.773005
vn 0.773005 0.000000 -0.634400
vn 0.793345 0.002522 -0.608767
vn 0.882294 -0.001703 -0.470696
vn 0.923878 0.003491 -0.382672
vn 0.957089 -0.001772 -0.289789
vn 0.989125 0.002226 -0.147061
vn 0.983842 0.000000 -0.179041
vn 0.998797 0.000000 -0.049028
vn 0.998797 0.000000 -0.049028
vn 0.095302 -0.002742 -0.995445
vn 0.291534 0.001373 -0.956559
vn 0.382679 -0.002859 -0.923877
vn 0.472559 0.001488 -0.881298
vn 0.608767 -0.002275 -0.793346
vn 0.634399 0.000000 -0.773005
vn 0.773005 0.000000 -0.634400
vn 0.793345 -0.002522 -0.608767
vn 0.882294 0.001703 -0.470696
vn 0.923878 -0.003491 -0.382672
vn 0.957089 0.001772 -0.289789
vn 0.989125 -0.002226 -0.147061
vn -0.000000 -0.998795 -0.049077
vn -0.000000 -0.998795 -0.049077
vn -0.000000 -0.983846 -0.179020
vn 0.002225 -0.989127 -0.147049
vn -0.001773 -0.957091 -0.289783
vn 0.003491 -0.923874 -0.382680
vn -0.001703 -0.882294 -0.470696
vn 0.002522 -0.793345 -0.608767
vn -0.000000 -0.773002 -0.634404
vn -0.000000 -0.634405 -0.773000
vn 0.002275 -0.608767 -0.793346
vn -0.001487 -0.472556 -0.881299
vn 0.002859 -0.382682 -0.923876
vn -0.001373 -0.291535 -0.956559
vn 0.001594 -0.150939 -0.988542
vn -0.000000 -0.098019 -0.995185
vn -0.002742 -0.095303 -0.995445
vn 0.001373 -0.291534 -0.956559
vn -0.002859 -0.382682 -0.923876
vn 0.001487 -0.472556 -0.881299
vn -0.002275 -0.608767 -0.793346
vn 0.000000 -0.634405 -0.773000
vn 0.000000 -0.773002 -0.634404
vn -0.002522 -0.793345 -0.608767
vn 0.001703 -0.882294 -0.470696
vn -0.003491 -0.923874 -0.382680
vn 0.001773 -0.957091 -0.289783
vn -0.002225 -0.989127 -0.147049
vn 0.000000 -1.000000 0.000000
vn 0.000000 -1.000000 0.000000
vn -1.000000 0.000000 0.000000
vn -1.000000 -0.000000 0.000000
vn -0.000000 0.000000 -1.000000
vn -0.000000 0.000000 -1.000000
vn 0.000000 0.000000 -1.000000
vn 0.000000 0.000000 -1.000000
vn 0.000000 0.000000 -1.000000
vn 0.000000 0.000000 -1.000000
vn -0.000000 0.000000 -1.000000
vn -0.000000 0.000000 -1.000000
vn -0.000000 -0.000000 -1.000000
vn -0.000000 -0.000000 -1.000000
vn -0.000000 -0.000000 -1.000000
vn -0.000000 -0.000000 -1.000000
vn 0.000000 -0.000000 -1.000000
vn 0.000000 0.000000 -1.000000
vn 0.000000 0.000000 -1.000000
vn 0.000000 0.000000 -1.000000
vn 0.000000 0.000000 -1.000000
vn 0.000000 -0.000000 -1.000000
vn 0.000000 -0.000000 -1.000000
vn 0.000000 -0.000000 -1.000000
vn 0.000000 -0.000000 -1.000000
vn 0.000000 -0.000000 -1.000000
vn 0.000000 0.000000 -1.000000
vn 0.000000 0.000000 -1.000000
vn 0.000000 0.000000 -1.000000
vn 0.000000 0.000000 -1.000000
vn 0.000000 0.000000 -1.000000
vn 0.000000 0.000000 -1.000000
vn 0.000000 0.000000 -1.000000
vn 0.000000 0.000000 -1.000000
vn 0.000000 0.000000 -1.000000
vn 0.000000 0.000000 -1.000000
vn 0.000000 0.000000 -1.000000
vn 0.000000 0.000000 -1.000000
vn 0.000000 0.000000 -1.000000
vn 0.000000 0.000000 -1.000000
vn 0.000000 0.000000 -1.000000
vn 0.000000 0.000000 -1.000000
vn 0.000000 0.000000 -1.000000
vn 0.000000 0.000000 -1.000000
vn -0.000000 0.000000 -1.000000
vn -0.000000 0.000000 -1.000000
vn 0.000000 1.000000 -0.000000
vn 0.000000 1.000000 0.000000
vn 1.000000 0.000000 0.000000
vn 1.000000 -0.000000 0.000000
vn 0.000000 0.000000 -1.000000
vn 0.000000 0.000000 -1.000000
vn 0.996585 0.082577 -0.000000
vn 0.996585 0.082577 -0.000000
vn 0.996585 -0.082577 0.000000
vn 0.996585 -0.082577 0.000000
vn 0.969400 -0.245486 0.000000
vn 0.969400 -0.245486 0.000000
vn 0.915775 -0.401693 0.000000
vn 0.915775 -0.401693 0.000000
vn 0.837165 -0.546950 0.000000
vn 0.837165 -0.546950 0.000000
vn 0.735725 -0.677280 0.000000
vn 0.735725 -0.677280 0.000000
vn 0.614211 -0.789142 0.000000
vn 0.614211 -0.789142 0.000000
vn 0.475947 -0.879474 0.000000
vn 0.475947 -0.879474 0.000000
vn 0.324699 -0.945817 0.000000
vn 0.324699 -0.945817 0.000000
vn 0.164594 -0.986361 0.000000
vn 0.164594 -0.986361 0.000000
vn 0.000000 -1.000000 0.000000
vn 0.000000 -1.000000 0.000000
vn -0.164595 -0.986361 0.000000
vn -0.164595 -0.986361 0.000000
vn -0.324699 -0.945817 0.000000
vn -0.324699 -0.945817 0.000000
vn -0.475944 -0.879476 0.000000
vn -0.475944 -0.879476 0.000000
vn -0.614214 -0.789140 0.000000
vn -0.614214 -0.789140 0.000000
vn -0.735727 -0.677279 0.000000
vn -0.735727 -0.677279 0.000000
vn -0.837166 -0.546949 0.000000
vn -0.837166 -0.546949 0.000000
vn -0.915772 -0.401699 0.000000
vn -0.915772 -0.401699 0.000000
vn -0.969401 -0.245481 0.000000
vn -0.969401 -0.245481 0.000000
vn -0.996584 -0.082582 0.000000
vn -0.996584 -0.082582 0.000000
vn -0.996584 0.082582 0.000000
vn -0.996584 0.082582 0.000000
vn -0.969402 0.245480 0.000000
vn -0.969402 0.245480 0.000000
vn -0.915772 0.401699 0.000000
vn -0.915772 0.401699 0.000000
vn -0.837166 0.546949 0.000000
vn -0.837166 0.546949 0.000000
vn -0.735727 0.677279 0.000000
vn -0.735727 0.677279 0.000000
vn -0.614214 0.789140 0.000000
vn -0.614214 0.789140 0.000000
vn -0.475944 0.879476 0.000000
vn -0.475944 0.879476 0.000000
vn -0.324699 0.945817 0.000000
vn -0.324699 0.945817 0.000000
vn -0.164594 0.986361 0.000000
vn -0.164594 0.986361 0.000000
vn 0.000000 1.000000 0.000000
vn 0.000000 1.000000 -0.000000
vn 0.164593 0.986362 -0.000000
vn 0.164593 0.986362 -0.000000
vn 0.324699 0.945817 -0.000000
vn 0.324699 0.945817 -0.000000
vn 0.475947 0.879474 -0.000000
vn 0.475947 0.879474 -0.000000
vn 0.614211 0.789142 -0.000000
vn 0.614211 0.789142 -0.000000
vn 0.735725 0.677280 -0.000000
vn 0.735725 0.677280 -0.000000
vn 0.837165 0.546950 -0.000000
vn 0.837165 0.546950 -0.000000
vn 0.915775 0.401693 -0.000000
vn 0.915775 0.401693 -0.000000
vn 0.969401 0.245485 -0.000000
vn 0.969401 0.245485 -0.000000
vn 0.000000 0.000000 1.000000
vn 0.000000 0.000000 1.000000
vn 0.000000 -0.000000 1.000000
vn 0.000000 0.000000 1.000000
vn 0.000000 0.000000 1.000000
vn 0.000000 0.000000 1.000000
vn 0.000000 0.000000 1.000000
vn 0.000000 0.000000 1.000000
vn 0.000000 0.000000 1.000000
vn -0.000000 0.000000 1.000000
vn 0.000000 0.000000 1.000000
vn 0.000000 0.000000 1.000000
vn 0.000000 0.000000 1.000000
vn 0.000000 0.000000 1.000000
vn 0.000000 0.000000 1.000000
vn 0.000000 0.000000 1.000000
vn 0.000000 0.000000 1.000000
vn 0.000000 0.000000 1.000000
vn 0.000000 0.000000 1.000000
vn 0.000000 0.000000 1.000000
vn 0.000000 -0.000000 1.000000
vn 0.000000 0.000000 1.000000
vn 0.000000 0.000000 1.000000
vn 0.000000 -0.000000 1.000000
vn 0.000000 0.000000 1.000000
vn 0.000000 0.000000 1.000000
vn 0.000000 0.000000 1.000000
vn 0.000000 0.000000 1.000000
vn 0.000000 0.000000 1.000000
vn 0.000000 0.000000 1.000000
vn -0.000000 0.000000 1.000000
vn 0.000000 0.000000 1.000000
vn 0.000000 0.000000 1.000000
vn 0.000000 0.000000 1.000000
vn -0.000000 -0.000000 1.000000
vn -0.000000 0.000000 1.000000
vn 0.000000 0.000000 1.000000
vn 0.000000 0.000000 1.000000
vn 0.000000 -0.000000 1.000000
vn 0.000000 0.000000 1.000000
vn 0.000000 -0.000000 1.000000
vn -0.000000 0.000000 1.000000
vn 0.000000 0.000000 1.000000
vn 0.000000 -0.000000 1.000000
f 1//1 2//1 4//1
f 4//2 2//2 3//2
f 2//3 5//3 3//3
f 3//4 5//4 6//4
f 5//5 7//5 6//5
f 6//6 7//6 8//6
f 7//7 9//7 8//7
f 8//8 9//8 10//8
f 9//9 11//9 10//9
f 10//10 11//10 12//10
f 11//11 1//11 12//11
f 12//12 1//12 4//12
f 12//13 4//13 10//13
f 10//14 4//14 8//14
f 8//15 4//15 3//15
f 8//16 3//16 6//16
f 13//17 14//17 32//17
f 32//18 14//18 34//18
f 32//19 34//19 31//19
f 31//20 34//20 33//20
f 31//21 33//21 30//21
f 30//22 33//22 35//22
f 30//23 35//23 29//23
f 29//24 35//24 28//24
f 28//25 35//25 36//25
f 28//26 36//26 27//26
f 27//27 36//27 37//27
f 27//28 37//28 26//28
f 26//29 37//29 25//29
f 25//30 37//30 22//30
f 25//31 22//31 24//31
f 24//32 22//32 23//32
f 14//33 15//33 34//33
f 34//34 15//34 16//34
f 34//35 16//35 33//35
f 33//36 16//36 17//36
f 33//37 17//37 35//37
f 35//38 17//38 18//38
f 35//39 18//39 19//39
f 35//40 19//40 36//40
f 36//41 19//41 20//41
f 36//42 20//42 37//42
f 37//43 20//43 21//43
f 37//44 21//44 22//44
f 14//45 38//45 15//45
f 15//46 38//46 49//46
f 15//47 49//47 16//47
f 16//48 49//48 48//48
f 16//49 48//49 17//49
f 17//50 48//50 50//50
f 17//51 50//51 18//51
f 18//52 50//52 19//52
f 19//53 50//53 51//53
f 19//54 51//54 20//54
f 20//55 51//55 52//55
f 20//56 52//56 21//56
f 21//57 52//57 22//57
f 22//58 52//58 46//58
f 22//59 46//59 23//59
f 23//60 46//60 47//60
f 38//61 39//61 49//61
f 49//62 39//62 40//62
f 49//63 40//63 48//63
f 48//64 40//64 41//64
f 48//65 41//65 50//65
f 50//66 41//66 42//66
f 50//67 42//67 43//67
f 50//68 43//68 51//68
f 51//69 43//69 44//69
f 51//70 44//70 52//70
f 52//71 44//71 45//71
f 52//72 45//72 46//72
f 38//73 53//73 39//73
f 39//74 53//74 64//74
f 39//75 64//75 40//75
f 40//76 64//76 63//76
f 40//77 63//77 41//77
f 41//78 63//78 65//78
f 41//79 65//79 42//79
f 42//80 65//80 43//80
f 43//81 65//81 66//81
f 43//82 66//82 44//82
f 44//83 66//83 67//83
f 44//84 67//84 45//84
f 45//85 67//85 46//85
f 46//86 67//86 61//86
f 46//87 61//87 47//87
f 47//88 61//88 62//88
f 53//89 54//89 64//89
f 64//90 54//90 55//90
f 64//91 55//91 63//91
f 63//92 55//92 56//92
f 63//93 56//93 65//93
f 65//94 56//94 57//94
f 65//95 57//95 58//95
f 65//96 58//96 66//96
f 66//97 58//97 59//97
f 66//98 59//98 67//98
f 67//99 59//99 60//99
f 67//100 60//100 61//100
f 24//101 62//101 25//101
f 25//102 62//102 61//102
f 25//103 61//103 68//103
f 68//104 61//104 60//104
f 68//105 60//105 59//105
f 68//106 59//106 69//106
f 69//107 59//107 58//107
f 69//108 58//108 70//108
f 70//109 58//109 57//109
f 70//110 57//110 56//110
f 70//111 56//111 71//111
f 71//112 56//112 55//112
f 71//113 55//113 72//113
f 72//114 55//114 54//114
f 72//115 54//115 13//115
f 13//116 54//116 53//116
f 13//117 32//117 72//117
f 72//118 32//118 31//118
f 72//119 31//119 71//119
f 71//120 31//120 30//120
f 71//121 30//121 70//121
f 70//122 30//122 29//122
f 70//123 29//123 28//123
f 70//124 28//124 69//124
f 69//125 28//125 27//125
f 69//126 27//126 68//126
f 68//127 27//127 26//127
f 68//128 26//128 25//128
f 62//129 24//129 74//129
f 74//130 24//130 73//130
f 24//131 23//131 73//131
f 73//132 23//132 75//132
f 77//133 14//133 76//133
f 76//134 14//134 13//134
f 76//135 13//135 113//135
f 113//136 13//136 112//136
f 112//137 13//137 111//137
f 111//138 13//138 110//138
f 110//139 13//139 109//139
f 109//140 13//140 108//140
f 108//141 13//141 107//141
f 107//142 13//142 106//142
f 106//143 13//143 105//143
f 105//144 13//144 104//144
f 104//145 13//145 53//145
f 104//146 53//146 103//146
f 103//147 53//147 102//147
f 102//148 53//148 101//148
f 101//149 53//149 100//149
f 100//150 53//150 99//150
f 99//151 53//151 98//151
f 98//152 53//152 97//152
f 97//153 53//153 96//153
f 96//154 53//154 95//154
f 95//155 53//155 38//155
f 95//156 38//156 94//156
f 94//157 38//157 93//157
f 93//158 38//158 92//158
f 92//159 38//159 91//159
f 91//160 38//160 90//160
f 90//161 38//161 89//161
f 89//162 38//162 88//162
f 88//163 38//163 87//163
f 87//164 38//164 86//164
f 86//165 38//165 14//165
f 86//166 14//166 85//166
f 85//167 14//167 84//167
f 84//168 14//168 83//168
f 83//169 14//169 82//169
f 82//170 14//170 81//170
f 81//171 14//171 80//171
f 80//172 14//172 79//172
f 79//173 14//173 78//173
f 78//174 14//174 77//174
f 23//175 47//175 75//175
f 75//176 47//176 114//176
f 47//177 62//177 114//177
f 114//178 62//178 74//178
f 74//179 73//179 114//179
f 114//180 73//180 75//180
f 113//181 152//181 76//181
f 76//182 152//182 115//182
f 76//183 115//183 77//183
f 77//184 115//184 116//184
f 77//185 116//185 78//185
f 78//186 116//186 117//186
f 78//187 117//187 79//187
f 79//188 117//188 118//188
f 79//189 118//189 80//189
f 80//190 118//190 119//190
f 80//191 119//191 81//191
f 81//192 119//192 120//192
f 81//193 120//193 82//193
f 82//194 120//194 121//194
f 82//195 121//195 83//195
f 83//196 121//196 122//196
f 83//197 122//197 84//197
f 84//198 122//198 123//198
f 84//199 123//199 85//199
f 85//200 123//200 124//200
f 85//201 124//201 86//201
f 86//202 124//202 125//202
f 86//203 125//203 87//203
f 87//204 125//204 126//204
f 87//205 126//205 88//205
f 88//206 126//206 127//206
f 88//207 127//207 89//207
f 89//208 127//208 128//208
f 89//209 128//209 90//209
f 90//210 128//210 129//210
f 90//211 129//211 91//211
f 91//212 129//212 130//212
f 91//213 130//213 92//213
f 92//214 130//214 131//214
f 92//215 131//215 93//215
f 93//216 131//216 132//216
f 93//217 132//217 94//217
f 94//218 132//218 133//218
f 94//219 133//219 95//219
f 95//220 133//220 134//220
f 95//221 134//221 96//221
f 96//222 134//222 135//222
f 96//223 135//223 97//223
f 97//224 135//224 136//224
f 97//225 136//225 98//225
f 98//226 136//226 137//226
f 98//227 137//227 99//227
f 99//228 137//228 138//228
f 99//229 138//229 100//229
f 100//230 138//230 139//230
f 100//231 139//231 101//231
f 101//232 139//232 140//232
f 101//233 140//233 102//233
f 102//234 140//234 141//234
f 102//235 141//235 103//235
f 103//236 141//236 142//236
f 103//237 142//237 104//237
f 104//238 142//238 143//238
f 104//239 143//239 105//239
f 105//240 143//240 144//240
f 105//241 144//241 106//241
f 106//242 144//242 145//242
f 106//243 145//243 107//243
f 107//244 145//244 146//244
f 107//245 146//245 108//245
f 108//246 146//246 147//246
f 108//247 147//247 109//247
f 109//248 147//248 148//248
f 109//249 148//249 110//249
f 110//250 148//250 149//250
f 110//251 149//251 111//251
f 111//252 149//252 150//252
f 111//253 150//253 112//253
f 112//254 150//254 151//254
f 112//255 151//255 113//255
f 113//256 151//256 152//256
f 1//257 140//257 2//257
f 2//258 140//258 139//258
f 2//259 139//259 138//259
f 11//260 147//260 1//260
f 1//261 147//261 146//261
f 1//262 146//262 145//262
f 9//263 115//263 11//263
f 11//264 115//264 152//264
f 11//265 152//265 151//265
f 7//266 121//266 9//266
f 9//267 121//267 120//267
f 9//268 120//268 119//268
f 5//269 128//269 7//269
f 7//270 128//270 127//270
f 7//271 127//271 126//271
f 2//272 134//272 5//272
f 5//273 134//273 133//273
f 5//274 133//274 132//274
f 151//275 150//275 11//275
f 11//276 150//276 149//276
f 11//277 149//277 148//277
f 148//278 147//278 11//278
f 145//279 144//279 1//279
f 1//280 144//280 143//280
f 1//281 143//281 142//281
f 142//282 141//282 1//282
f 1//283 141//283 140//283
f 138//284 137//284 2//284
f 2//285 137//285 136//285
f 2//286 136//286 135//286
f 135//287 134//287 2//287
f 132//288 131//288 5//288
f 5//289 131//289 130//289
f 5//290 130//290 129//290
f 129//291 128//291 5//291
f 126//292 125//292 7//292
f 7//293 125//293 124//293
f 7//294 124//294 123//294
f 123//295 122//295 7//295
f 7//296 122//296 121//296
f 119//297 118//297 9//297
f 9//298 118//298 117//298
f 9//299 117//299 116//299
f 116//300 115//300 9//300
