# https://github.com/mikedh/trimesh
v -10.00000000 10.00000000 0.00000000
v -8.99944115 11.08332920 0.00000000
v -8.91667080 11.00055885 0.00000000
v -8.96213245 11.03786755 0.00000000
v -9.02716351 11.13519478 0.00000000
v -9.04423523 11.19147301 0.00000000
v -8.86480522 10.97283649 0.00000000
v -8.80852699 10.95576477 0.00000000
v -8.99944115 11.08332920 0.27499998
v -8.91667080 11.00055885 0.27500001
v -8.96213245 11.03786755 0.27500001
v -9.02716351 11.13519478 0.27500001
v -9.04423523 11.19147301 0.27500001
v -8.86480522 10.97283649 0.27500001
v -8.80852699 10.95576477 0.27500001
v -10.00000000 10.00000000 0.50000000
v -9.12123108 10.87876892 0.50000000
v -9.23503685 11.04909134 0.50000000
v -9.26491261 11.14757729 0.50000000
v -9.18652153 10.95832539 0.50000000
v -8.95090866 10.76496315 0.50000000
v -9.04167461 10.81347847 0.50000000
v -8.85242271 10.73508739 0.50000000
v -9.05000019 11.25000000 0.00000000
v -9.04423523 11.30852699 0.00000000
v -9.02716351 11.36480522 0.00000000
v -8.99944115 11.41667080 0.00000000
v -8.96213245 11.46213245 0.00000000
v -8.91667080 11.49944115 0.00000000
v -8.86480522 11.52716351 0.00000000
v -8.80852699 11.54423523 0.00000000
v -9.05000019 11.25000000 0.27500001
v -9.04423523 11.30852699 0.27500001
v -9.02716351 11.36480522 0.27500001
v -8.99944115 11.41667080 0.27499998
v -8.96213245 11.46213245 0.27500001
v -8.91667080 11.49944115 0.27500001
v -8.86480522 11.52716351 0.27500001
v -8.80852699 11.54423523 0.27500001
v -9.27499962 11.25000000 0.50000000
v -9.26491261 11.35242271 0.50000000
v -9.23503685 11.45090866 0.50000000
v -9.18652153 11.54167461 0.50000000
v -9.12123108 11.62123108 0.50000000
v -9.04167461 11.68652153 0.50000000
v -8.95090866 11.73503685 0.50000000
v -8.85242271 11.76491261 0.50000000
v -8.75000000 10.94999981 0.00000000
v -8.69147301 10.95576477 0.00000000
v -8.63519478 10.97283649 0.00000000
v -8.58332920 11.00055885 0.00000000
v -8.53786755 11.03786755 0.00000000
v -8.50055885 11.08332920 0.00000000
v -8.47283649 11.13519478 0.00000000
v -8.45576477 11.19147301 0.00000000
v -8.75000000 10.94999981 0.27500001
v -8.69147301 10.95576477 0.27500001
v -8.63519478 10.97283649 0.27500001
v -8.58332920 11.00055885 0.27500001
v -8.53786755 11.03786755 0.27500001
v -8.50055885 11.08332920 0.27499998
v -8.47283649 11.13519478 0.27500001
v -8.45576477 11.19147301 0.27500001
v -8.75000000 10.72500038 0.50000000
v -8.64757729 10.73508739 0.50000000
v -8.54909134 10.76496315 0.50000000
v -8.45832539 10.81347847 0.50000000
v -8.37876892 10.87876892 0.50000000
v -8.31347847 10.95832539 0.50000000
v -8.26496315 11.04909134 0.50000000
v -8.23508739 11.14757729 0.50000000
v -8.75000000 11.55000019 0.00000000
v -8.69147301 11.54423523 0.00000000
v -8.63519478 11.52716351 0.00000000
v -8.44999981 11.25000000 0.00000000
v -8.45576477 11.30852699 0.00000000
v -8.47283649 11.36480522 0.00000000
v -8.53786755 11.46213245 0.00000000
v -8.58332920 11.49944115 0.00000000
v -8.50055885 11.41667080 0.00000000
v -8.75000000 11.55000019 0.27500001
v -8.69147301 11.54423523 0.27500001
v -8.63519478 11.52716351 0.27500001
v -8.44999981 11.25000000 0.27500001
v -8.45576477 11.30852699 0.27500001
v -8.47283649 11.36480522 0.27500001
v -8.53786755 11.46213150 0.27500001
v -8.58332920 11.49944115 0.27500001
v -8.50055885 11.41667080 0.27499998
v -8.75000000 11.77499962 0.50000000
v -8.64757729 11.76491261 0.50000000
v -8.45832539 11.68652153 0.50000000
v -8.54909134 11.73503685 0.50000000
v -8.31347847 11.54167461 0.50000000
v -8.22500038 11.25000000 0.50000000
v -8.23508739 11.35242271 0.50000000
v -8.26496315 11.45090866 0.50000000
v -8.37876892 11.62123108 0.50000000
v -10.00000000 12.50000000 0.00000000
v -10.00000000 12.50000000 0.50000000
v -7.50000000 10.00000000 0.00000000
v -7.50000000 10.00000000 0.50000000
v -5.31283140 10.74700069 0.50000000
v -5.11130238 10.94858742 1.30666804
v -7.50000000 12.50000000 0.00000000
v -7.50000000 12.50000000 0.50000000
v -5.11067677 12.80279541 0.50000000
v -5.31283140 15.22200298 0.50000000
v -5.31283140 10.74700069 5.50000000
v -5.11258173 10.94725990 5.50000000
v -5.11101770 12.80078983 5.50000000
v -5.11067677 13.90825367 5.50000000
v -5.31283140 15.22200298 5.50000000
v -5.11282682 15.01757240 5.50000000
v -0.13212480 10.80920792 5.50000000
v -0.20722437 10.94725990 5.50000000
v -10.00000000 27.50000000 0.00000000
v -8.99944115 28.58332825 0.00000000
v -8.91667080 28.50055885 0.00000000
v -8.96213245 28.53786850 0.00000000
v -9.02716351 28.63519478 0.00000000
v -9.04423523 28.69147301 0.00000000
v -8.86480522 28.47283554 0.00000000
v -8.80852699 28.45576477 0.00000000
v -8.99944115 28.58332825 0.27499998
v -8.91667080 28.50055885 0.27500001
v -8.96213245 28.53786850 0.27500001
v -9.02716351 28.63519478 0.27500001
v -9.04423523 28.69147301 0.27500001
v -8.86480522 28.47283554 0.27500001
v -8.80852699 28.45576477 0.27500001
v -10.00000000 27.50000000 0.50000000
v -9.12123108 28.37876892 0.50000000
v -9.23503685 28.54909134 0.50000000
v -9.26491261 28.64757729 0.50000000
v -9.18652153 28.45832634 0.50000000
v -8.95090866 28.26496315 0.50000000
v -9.04167461 28.31347847 0.50000000
v -8.85242271 28.23508835 0.50000000
v -10.00000000 30.00000000 0.00000000
v -9.05000019 28.75000000 0.00000000
v -9.04423523 28.80852699 0.00000000
v -9.02716351 28.86480522 0.00000000
v -8.99944115 28.91667175 0.00000000
v -8.96213245 28.96213150 0.00000000
v -8.91667080 28.99944115 0.00000000
v -8.86480522 29.02716446 0.00000000
v -8.80852699 29.04423523 0.00000000
v -9.05000019 28.75000000 0.27500001
v -9.04423523 28.80852699 0.27500001
v -9.02716351 28.86480522 0.27500001
v -8.99944115 28.91667175 0.27499998
v -8.96213245 28.96213150 0.27500001
v -8.91667080 28.99944115 0.27500001
v -8.86480522 29.02716446 0.27500001
v -8.80852699 29.04423523 0.27500001
v -10.00000000 30.00000000 0.50000000
v -9.27499962 28.75000000 0.50000000
v -9.26491261 28.85242271 0.50000000
v -9.23503685 28.95090866 0.50000000
v -9.18652153 29.04167366 0.50000000
v -9.12123108 29.12123108 0.50000000
v -9.04167461 29.18652153 0.50000000
v -8.95090866 29.23503685 0.50000000
v -8.85242271 29.26491165 0.50000000
v -8.75000000 28.45000076 0.00000000
v -8.69147301 28.45576477 0.00000000
v -8.63519478 28.47283554 0.00000000
v -8.58332920 28.50055885 0.00000000
v -8.53786755 28.53786850 0.00000000
v -8.50055885 28.58332825 0.00000000
v -8.47283649 28.63519478 0.00000000
v -8.45576477 28.69147301 0.00000000
v -8.75000000 28.45000076 0.27500001
v -8.69147301 28.45576477 0.27500001
v -8.63519478 28.47283554 0.27500001
v -8.58332920 28.50055885 0.27500001
v -8.53786755 28.53786850 0.27500001
v -8.50055885 28.58332825 0.27499998
v -8.47283649 28.63519478 0.27500001
v -8.45576477 28.69147301 0.27500001
v -8.75000000 28.22500038 0.50000000
v -8.64757729 28.23508835 0.50000000
v -8.54909134 28.26496315 0.50000000
v -8.45832539 28.31347847 0.50000000
v -8.37876892 28.37876892 0.50000000
v -8.31347847 28.45832634 0.50000000
v -8.26496315 28.54909134 0.50000000
v -8.23508739 28.64757729 0.50000000
v -8.75000000 29.04999924 0.00000000
v -8.69147301 29.04423523 0.00000000
v -8.63519478 29.02716446 0.00000000
v -8.44999981 28.75000000 0.00000000
v -8.45576477 28.80852699 0.00000000
v -8.47283649 28.86480522 0.00000000
v -8.53786755 28.96213150 0.00000000
v -8.58332920 28.99944115 0.00000000
v -8.50055885 28.91667175 0.00000000
v -8.75000000 29.04999924 0.27500001
v -8.69147301 29.04423523 0.27500001
v -8.63519478 29.02716446 0.27500001
v -8.44999981 28.75000000 0.27500001
v -8.45576477 28.80852699 0.27500001
v -8.47283649 28.86480522 0.27500001
v -8.53786755 28.96213150 0.27500001
v -8.58332920 28.99944115 0.27500001
v -8.50055885 28.91667175 0.27499998
v -8.75000000 29.27499962 0.50000000
v -8.64757729 29.26491165 0.50000000
v -8.45832539 29.18652153 0.50000000
v -8.54909134 29.23503685 0.50000000
v -8.31347847 29.04167366 0.50000000
v -8.22500038 28.75000000 0.50000000
v -8.23508739 28.85242271 0.50000000
v -8.26496315 28.95090866 0.50000000
v -8.37876892 29.12123108 0.50000000
v -7.50000000 27.50000000 0.00000000
v -7.50000000 27.50000000 0.50000000
v -7.50000000 30.00000000 0.00000000
v -7.50000000 30.00000000 0.50000000
v -4.32122040 20.21719551 0.50000000
v -4.03622484 22.39014626 0.67322600
v -3.93991303 21.22132874 0.87154597
v -3.80923462 21.01797485 0.90606898
v -4.09449339 21.67647552 0.79431099
v -4.03583097 21.44273758 0.83396900
v -4.11429834 21.91640854 0.75359797
v -4.09469223 22.15635109 0.71288502
v -3.24650979 20.56560898 0.98289698
v -3.64719272 20.83792686 0.93664199
v -3.45798421 20.68583107 0.96247399
v -3.01823735 20.48035812 0.99738097
v -2.77906394 20.43227196 1.00555098
v -2.53517056 20.42259216 1.00719595
v -3.94046164 22.61166954 0.63564998
v -3.80988383 22.81518364 0.60112703
v -4.32122040 24.02740479 0.50000000
v -3.64787436 22.99541855 0.57055402
v -3.45862699 23.14770508 0.54472202
v -3.24704504 23.26810074 0.52429903
v -3.01860809 23.35348701 0.50981498
v -2.77923083 23.40165329 0.50164503
v -2.53511572 23.41134644 0.50000000
v -0.87619770 20.21719551 0.50000000
v -2.29285336 20.45156860 1.00227296
v -2.05837178 20.51845169 0.99090803
v -1.83778453 20.62152290 0.97339797
v -1.63679111 20.75812149 0.95019603
v -1.46059477 20.92473221 0.92190099
v -1.31375790 21.11705589 0.88924700
v -1.20008993 21.33012581 0.85307997
v -1.12254667 21.55843735 0.81433702
v -1.08315098 21.79609108 0.77402002
v -1.08305693 22.03673744 0.73317498
v -1.12224722 22.27441216 0.69285899
v -2.29258180 23.38232422 0.50492299
v -2.05791450 23.31533051 0.51628703
v -1.63612318 23.07532120 0.55699998
v -1.31315267 22.71602058 0.61794800
v -1.45992339 22.90851974 0.58529502
v -1.83718860 23.21210670 0.53379703
v -1.19961441 22.50281143 0.65411502
v -0.87619770 24.02740479 0.50000000
v -4.32122040 20.21719551 2.30113316
v -3.94179273 21.22109985 2.30113316
v -3.81092739 21.01744461 2.30113316
v -4.09659290 21.67693329 2.30113316
v -4.03784800 21.44284248 2.30113316
v -4.11643648 21.91695976 2.30113316
v -4.11882687 22.18464470 2.30113316
v -4.09924603 22.43181801 2.30113316
v -3.24740863 20.56441689 2.30113316
v -3.64865470 20.83713150 2.30113316
v -3.45917892 20.68481255 2.30113316
v -3.01881909 20.47904587 2.30113316
v -2.77931571 20.43089104 2.30113316
v -2.53508639 20.42119789 2.30113316
v -4.04069424 22.67325211 2.30113316
v -3.94471383 22.90204430 2.30113316
v -3.81378698 23.11225700 2.30113316
v -4.32122040 24.02740479 2.30113316
v -3.65130377 23.29844284 2.30113316
v -3.46147084 23.45576668 2.30113316
v -3.24920964 23.58015251 2.30113316
v -3.02002120 23.66837311 2.30113316
v -2.77984500 23.71813774 2.30113316
v -2.53491044 23.72815514 2.30113316
v -2.29243541 20.45021439 2.30113316
v -2.05762935 20.51719284 2.30113316
v -1.83673465 20.62041283 2.30113316
v -1.63545871 20.75720978 2.30113316
v -1.45901239 20.92406464 2.30113316
v -1.31196570 21.11667252 2.30113316
v -0.87619770 20.21719551 2.30113316
v -1.19813490 21.33006096 2.30113316
v -1.12048137 21.55871391 2.30113316
v -1.08103156 21.79672813 2.30113316
v -1.08315098 21.93193054 2.30113316
v -1.08307695 22.12427711 2.30113316
v -1.07851017 22.30830956 2.30113316
v -2.29156375 23.69816780 2.30113316
v -2.05611825 23.62895012 2.30113316
v -1.30905879 23.00982666 2.30113316
v -1.63297355 23.38098526 2.30113316
v -1.83467388 23.52230072 2.30113316
v -1.45624220 23.20867157 2.30113316
v -1.11771894 22.55373383 2.30113316
v -1.19523644 22.78961182 2.30113316
v -0.87619770 24.02740479 2.30113316
v -4.32112074 25.57823563 0.50000000
v -3.92011094 27.45405769 0.74876201
v -4.01586342 27.29673004 0.82851702
v -4.08118677 27.12753677 0.91428798
v -4.11430073 26.95108986 1.00373697
v -4.11407709 26.77249527 1.09442198
v -4.08030796 26.59587669 1.18386996
v -4.01440716 26.42673111 1.26964200
v -3.91823387 26.26964188 1.34939694
v -3.79654098 27.59522438 0.67719799
v -4.32112074 29.25897598 0.50000000
v -3.64852619 27.71638298 0.61577898
v -3.48010182 27.81422424 0.56617898
v -3.29586434 27.88608170 0.52975100
v -3.10083723 27.92999458 0.50748903
v -2.90034103 27.94476891 0.50000000
v -2.69984651 27.92999458 0.50748903
v -2.50481868 27.88608170 0.52975100
v -1.47956324 25.57823563 0.50000000
v -1.88057292 27.45405769 0.74876100
v -1.78482068 27.29673004 0.82851702
v -1.71949697 27.12753677 0.91428900
v -1.68638337 26.95108986 1.00373697
v -1.88245010 26.26964188 1.34939694
v -1.68660700 26.77249527 1.09442198
v -1.72037578 26.59587669 1.18386996
v -1.78627682 26.42672920 1.26964200
v -2.32058096 27.81422424 0.56617898
v -2.15215683 27.71638107 0.61577898
v -2.00414205 27.59522438 0.67719799
v -1.47956324 29.25897598 0.50000000
v -3.79445791 26.12885094 1.42096102
v -3.47832060 25.91073418 1.53198004
v -3.45503402 26.16729164 1.40455997
v -3.64647532 26.00813675 1.48238003
v -3.29455280 25.83924294 1.56840801
v -3.10014319 25.79556847 1.59066999
v -2.90034199 25.78088188 1.59815896
v -2.70053983 25.79557037 1.59066999
v -2.50613022 25.83924294 1.56840801
v -4.32112074 25.57823563 2.47837400
v -3.79588079 26.12908363 2.47837400
v -4.32112074 26.81740952 2.43716979
v -4.32112074 26.77323341 2.47837400
v -4.08222485 26.59722900 2.47837400
v -4.11558104 26.81740952 2.43716979
v -4.11602116 26.77428818 2.47738910
v -4.11582088 26.77323151 2.47837400
v -3.91987824 26.27019882 2.47837400
v -4.01622057 26.42766380 2.47837400
v -4.32112074 26.98292351 2.40992069
v -4.11411858 26.97769356 2.41078186
v -4.11412477 26.98292351 2.40992069
v -4.11430073 27.13270760 2.40898323
v -3.47920442 25.91051102 2.47837400
v -3.64763975 26.00811005 2.47837400
v -3.29514503 25.83888245 2.47837400
v -3.10043979 25.79512978 2.47837400
v -2.90034199 25.78041649 2.47837400
v -2.70024323 25.79513168 2.47837400
v -2.50553799 25.83888245 2.47837400
v -4.11878061 27.67836189 2.40556788
v -4.08575249 27.90149117 2.40417123
v -4.02033424 28.11551666 2.40283179
v -4.32112074 28.30031967 2.40167499
v -3.93118191 28.30031967 2.40167499
v -4.32112074 28.46713066 2.47837400
v -3.92433167 28.31912231 2.41032076
v -3.84660840 28.46713066 2.47837400
v -3.80047226 28.53380966 2.47837400
v -4.32112074 29.25897598 2.47837400
v -3.65184879 28.68766785 2.47837400
v -3.48269749 28.81192398 2.47837400
v -3.29764390 28.90318108 2.47837400
v -3.10174179 28.95895004 2.47837400
v -2.90034103 28.97771072 2.47837400
v -2.69894218 28.95895195 2.47837400
v -2.50303912 28.90318108 2.47837400
v -2.32236314 25.91073418 1.53198099
v -2.00622702 26.12885094 1.42096102
v -2.15420866 26.00813866 1.48238003
v -2.32147932 25.91051102 2.47837400
v -2.15304399 26.00811195 2.47837400
v -2.00480413 26.12908363 2.47837400
v -1.47956324 25.57823563 2.47837400
v -1.88080561 26.27019882 2.47837400
v -1.78446341 26.42766190 2.47837400
v -1.71845913 26.59722900 2.47837400
v -1.68510306 26.81740952 2.43716979
v -1.68466258 26.77428818 2.47738910
v -1.68486285 26.77323151 2.47837400
v -1.47956324 26.81740952 2.43716979
v -1.47956324 26.77323341 2.47837400
v -1.68656576 26.97769356 2.41078186
v -1.68655944 26.98292351 2.40992069
v -1.68638337 27.13270760 2.40898323
v -1.47956324 26.98292351 2.40992069
v -1.68190324 27.67835999 2.40556788
v -1.78034973 28.11551666 2.40283179
v -1.71493173 27.90149117 2.40417147
v -1.86949611 28.30031967 2.40167499
v -1.47956324 28.30031967 2.40167499
v -1.87635243 28.31912422 2.41032076
v -2.14883375 28.68766975 2.47837400
v -1.95407522 28.46713257 2.47837400
v -2.00021076 28.53381157 2.47837400
v -1.47956324 28.46713257 2.47837400
v -2.31798553 28.81192207 2.47837400
v -1.47956324 29.25897598 2.47837400
v 1.12034523 10.74700069 0.50000000
v 0.91881651 10.94858742 1.30666804
v 0.91819078 12.80279541 0.50000000
v 2.67886043 10.74054527 0.50000000
v 3.06394982 12.09465504 0.63595498
v 2.97605777 12.25090504 0.67954302
v 3.31323981 11.83412838 0.56327599
v 3.46783710 11.73695755 0.53616798
v 3.63695073 11.66559124 0.51625901
v 3.17737508 11.95445538 0.59684300
v 3.81596780 11.62197876 0.50409299
v 4.00000286 11.60730839 0.50000000
v 4.18404055 11.62197971 0.50409299
v 4.36305666 11.66559410 0.51626003
v 4.41925716 11.86006927 0.56612903
v 4.53216887 11.73696041 0.53616899
v 4.68676615 11.83413315 0.56327701
v 4.82263041 11.95446014 0.59684497
v 4.93605423 12.09466267 0.63595599
v 2.91609597 12.41894054 0.72641999
v 2.67886043 13.96135044 0.50000000
v 2.88569951 12.59418106 0.77530599
v 2.88584590 12.77162743 0.82486802
v 2.91659117 12.94687462 0.87375498
v 2.97685647 13.11480427 0.92063099
v 3.06496763 13.27085018 0.96421999
v 3.17849946 13.41078091 1.00333202
v 3.31434488 13.53080940 1.03689897
v 3.46879816 13.62769508 1.06400704
v 3.63765645 13.69882584 1.08391702
v 4.82149506 13.41078663 1.00333297
v 4.93502855 13.27085781 0.96422201
v 3.81633759 13.74228382 1.09608305
v 4.18365431 13.74228382 1.09608400
v 4.36233616 13.69882774 1.08391702
v 4.53119564 13.62769794 1.06400800
v 4.68564939 13.53081512 1.03690100
v 3.99999714 13.75690079 1.10017598
v 0.91881651 11.23176670 2.71046591
v 0.91877586 11.34703732 2.63258100
v 0.91876763 11.37272167 2.62835264
v 1.12034523 11.32671642 2.63592672
v 1.12034523 11.37272167 2.62835264
v 0.91835845 12.69012070 2.62010694
v 0.91832644 12.80373573 2.67234683
v 1.12034523 12.69012070 2.62010694
v 2.67886043 10.74054527 2.33240366
v 3.46541405 11.21887493 2.33240366
v 3.63528872 11.14141941 2.33240366
v 3.05982423 11.60704422 2.33240366
v 2.97162223 11.77657127 2.33240366
v 2.91149807 11.95886135 2.33240366
v 2.88108730 12.14892769 2.33240366
v 2.88573074 12.45293331 2.33240366
v 3.17369866 11.45491123 2.33240366
v 3.31013751 11.32433128 2.33240366
v 3.81512260 11.09408474 2.33240366
v 4.00000286 11.07816219 2.33240366
v 4.18488550 11.09408569 2.33240366
v 4.36471844 11.14142227 2.33240366
v 4.53459167 11.21887779 2.33240366
v 4.68986893 11.32433701 2.33240366
v 4.82630634 11.45491600 2.33240366
v 4.94017982 11.60705090 2.33240366
v 2.88584590 12.59714413 2.33240366
v 2.88374376 12.77052212 2.33240366
v 2.91452193 12.94615936 2.33240366
v 2.97488451 13.11446571 2.33240366
v 3.06315517 13.27086353 2.33240366
v 3.17690229 13.41110992 2.33240366
v 3.31301069 13.53140736 2.33240366
v 3.46776485 13.62850761 2.33240366
v 3.63695216 13.69979382 2.33240366
v 2.67886043 13.96135044 2.33240366
v 3.81598091 13.74334621 2.33240366
v 4.18401098 13.74334621 2.33240366
v 4.36304045 13.69979572 2.33240366
v 4.68698359 13.53141212 2.33240366
v 4.53222895 13.62851048 2.33240366
v 4.82309246 13.41111565 2.33240366
v 4.93684101 13.27087116 2.33240366
v 3.99999714 13.75799561 2.33240366
v 1.12034523 15.22200298 0.50000000
v 5.32113981 10.74054527 0.50000000
v 5.02394533 12.25091171 0.67954499
v 5.08390617 12.41894817 0.72642201
v 5.32113981 13.96135044 0.50000000
v 5.11430073 12.59418774 0.77530801
v 5.11415434 12.77163506 0.82486999
v 5.08340645 12.94688129 0.87375599
v 5.02314091 13.11481094 0.92063302
v 7.50000000 10.00000000 0.00000000
v 8.50055885 11.08332920 0.00000000
v 8.58332920 11.00055885 0.00000000
v 8.53786755 11.03786755 0.00000000
v 8.47283649 11.13519478 0.00000000
v 8.45576477 11.19147301 0.00000000
v 8.63519478 10.97283649 0.00000000
v 8.69147301 10.95576477 0.00000000
v 8.50055885 11.08332920 0.27499998
v 8.58332920 11.00055885 0.27500001
v 8.53786755 11.03786755 0.27500001
v 8.47283649 11.13519478 0.27500001
v 8.45576477 11.19147301 0.27500001
v 8.63519478 10.97283649 0.27500001
v 8.69147301 10.95576477 0.27500001
v 7.50000000 10.00000000 0.50000000
v 8.37876892 10.87876892 0.50000000
v 8.26496315 11.04909134 0.50000000
v 8.23508739 11.14757729 0.50000000
v 8.31347847 10.95832539 0.50000000
v 8.54909134 10.76496315 0.50000000
v 8.45832539 10.81347847 0.50000000
v 8.64757729 10.73508739 0.50000000
v 8.44999981 11.25000000 0.00000000
v 8.45576477 11.30852699 0.00000000
v 8.47283649 11.36480522 0.00000000
v 8.50055885 11.41667080 0.00000000
v 8.53786755 11.46213245 0.00000000
v 8.58332920 11.49944115 0.00000000
v 8.63519478 11.52716351 0.00000000
v 8.69147301 11.54423523 0.00000000
v 8.44999981 11.25000000 0.27500001
v 8.45576477 11.30852699 0.27500001
v 8.47283649 11.36480522 0.27500001
v 8.50055885 11.41667080 0.27499998
v 8.53786755 11.46213245 0.27500001
v 8.58332920 11.49944115 0.27500001
v 8.63519478 11.52716351 0.27500001
v 8.69147301 11.54423523 0.27500001
v 8.22500038 11.25000000 0.50000000
v 8.23508739 11.35242271 0.50000000
v 8.26496315 11.45090866 0.50000000
v 8.31347847 11.54167461 0.50000000
v 8.37876892 11.62123108 0.50000000
v 8.45832539 11.68652153 0.50000000
v 8.54909134 11.73503685 0.50000000
v 8.64757729 11.76491261 0.50000000
v 8.75000000 10.94999981 0.00000000
v 8.80852699 10.95576477 0.00000000
v 8.86480522 10.97283649 0.00000000
v 8.91667080 11.00055885 0.00000000
v 8.96213245 11.03786755 0.00000000
v 8.99944115 11.08332920 0.00000000
v 9.02716351 11.13519478 0.00000000
v 9.04423523 11.19147301 0.00000000
v 8.75000000 10.94999981 0.27500001
v 8.80852699 10.95576477 0.27500001
v 8.86480522 10.97283649 0.27500001
v 8.91667080 11.00055885 0.27500001
v 8.96213245 11.03786755 0.27500001
v 8.99944115 11.08332920 0.27499998
v 9.02716351 11.13519478 0.27500001
v 9.04423523 11.19147301 0.27500001
v 10.00000000 10.00000000 0.00000000
v 8.75000000 10.72500038 0.50000000
v 8.85242271 10.73508739 0.50000000
v 8.95090866 10.76496315 0.50000000
v 9.04167461 10.81347847 0.50000000
v 9.12123108 10.87876892 0.50000000
v 9.18652153 10.95832539 0.50000000
v 9.23503685 11.04909134 0.50000000
v 9.26491261 11.14757729 0.50000000
v 10.00000000 10.00000000 0.50000000
v 8.75000000 11.55000019 0.00000000
v 8.80852699 11.54423523 0.00000000
v 8.86480522 11.52716351 0.00000000
v 9.05000019 11.25000000 0.00000000
v 9.04423523 11.30852699 0.00000000
v 9.02716351 11.36480522 0.00000000
v 8.96213245 11.46213245 0.00000000
v 8.91667080 11.49944115 0.00000000
v 8.99944115 11.41667080 0.00000000
v 8.75000000 11.55000019 0.27500001
v 8.80852699 11.54423523 0.27500001
v 8.86480522 11.52716351 0.27500001
v 9.05000019 11.25000000 0.27500001
v 9.04423523 11.30852699 0.27500001
v 9.02716351 11.36480522 0.27500001
v 8.96213245 11.46213150 0.27500001
v 8.91667080 11.49944115 0.27500001
v 8.99944115 11.41667080 0.27499998
v 8.75000000 11.77499962 0.50000000
v 8.85242271 11.76491261 0.50000000
v 9.04167461 11.68652153 0.50000000
v 8.95090866 11.73503685 0.50000000
v 9.18652153 11.54167461 0.50000000
v 9.27499962 11.25000000 0.50000000
v 9.26491261 11.35242271 0.50000000
v 9.23503685 11.45090866 0.50000000
v 9.12123108 11.62123108 0.50000000
v 7.50000000 12.50000000 0.00000000
v 7.50000000 12.50000000 0.50000000
v 10.00000000 12.50000000 0.00000000
v 10.00000000 12.50000000 0.50000000
v 5.32113981 10.74054527 2.33240366
v 5.02838135 11.77657986 2.33240366
v 5.08850384 11.95886707 2.33240366
v 5.11891270 12.14893532 2.33240366
v 5.11426973 12.45293999 2.33240366
v 5.11430073 12.49138737 2.33240366
v 5.11640549 12.64766788 2.33240366
v 5.11625624 12.77053070 2.33240366
v 5.08547592 12.94616604 2.33240366
v 5.02511311 13.11447239 2.33240366
v 5.32113981 13.96135044 2.33240366
v 0.73194814 10.94807911 2.91177678
v 0.91930336 10.94808197 2.90212226
v 1.12034523 10.96957684 2.87724066
v 0.74068415 10.89347076 2.94822478
v 1.12034523 10.89347076 2.94822478
v 1.12034523 10.87286472 2.99403143
v 0.40432569 10.94779778 3.80045223
v 0.91857886 13.09754086 2.80743718
v 1.12034523 13.09754086 2.80743718
v 0.91878027 13.32193279 3.04820108
v 1.12034523 13.32193279 3.04820108
v 1.12034523 10.78752422 5.14393950
v 0.81573921 10.78846359 5.50000000
v 0.90789849 10.78390312 5.50000000
v 1.12034523 10.74700069 5.50000000
v 1.12034523 10.78390312 5.50000000
v 0.91897452 13.37252331 5.50000000
v 1.12034523 13.37252331 5.50000000
v 0.92034096 15.01757240 5.50000000
v 1.12034523 15.22200298 5.50000000
v 2.67397261 20.21718597 0.50000000
v 2.94441295 21.24950409 0.56900901
v 3.08059144 21.05118370 0.53583598
v 3.00393128 21.14462662 0.55146098
v 3.27557683 20.90946198 0.51209301
v 3.28630519 20.89344406 0.51273102
v 3.30327964 20.89642334 0.51001400
v 3.41753912 20.85639954 0.50335199
v 3.53770685 20.83606339 0.50000000
v 3.65963030 20.83605385 0.50005603
v 3.17218637 20.97186661 0.52258700
v 2.90375733 21.36278725 0.58797598
v 2.88313532 21.48122025 0.60781401
v 2.88323164 21.60123634 0.62795198
v 2.90406799 21.71963310 0.64780903
v 2.94482541 21.83231735 0.66681302
v 2.94447351 21.84623146 0.67071700
v 2.95809484 21.85940933 0.67119902
v 2.67397261 22.45054054 0.50000000
v 3.77979708 20.85637283 0.50351799
v 3.89474225 20.89643097 0.51028597
v 4.00115299 20.95507812 0.52016503
v 4.09596395 21.03061867 0.53286999
v 4.17643929 21.12088013 0.54803503
v 4.23978138 21.22279930 0.56522298
v 4.25290442 21.23030853 0.56910598
v 4.52113295 20.21718597 0.50000000
v 4.25300932 21.25010109 0.56961000
v 4.29357719 21.36267662 0.58861399
v 4.31420517 21.48110390 0.60847098
v 4.31410742 21.60111237 0.62860900
v 4.29326820 21.71951675 0.64844698
v 4.25243044 21.83270645 0.66741300
v 4.19278955 21.93743134 0.68496197
v 4.52113295 22.45054054 0.50000000
v 3.02153754 21.96113968 0.68838698
v 3.10204887 22.05120850 0.70355302
v 3.19681644 22.12655067 0.71625799
v 3.30311179 22.18501854 0.72613698
v 3.41787887 22.22494316 0.73290497
v 3.53782797 22.24518967 0.73636597
v 3.65951920 22.24517822 0.73642200
v 3.89363623 22.18503761 0.72640800
v 3.92110467 22.17217445 0.72432899
v 4.02450752 22.10980415 0.71383601
v 3.77946758 22.22491264 0.73307103
v 4.11607599 22.03068542 0.70058602
v 2.67397261 20.39740562 2.22924805
v 2.67397261 20.56291962 2.20199871
v 2.67397261 20.21718597 2.33891344
v 2.67397261 20.27982903 2.33891344
v 2.95920515 20.92835045 2.19971132
v 3.11660290 20.72174454 2.20100451
v 3.08970428 20.74575996 2.20085430
v 3.00561523 20.84691238 2.20022130
v 3.02863646 20.81797791 2.20040226
v 2.94088268 20.96164894 2.19950294
v 2.89756083 21.08615112 2.19872379
v 2.87698245 21.21612930 2.19791031
v 2.89094496 21.12543297 2.19847798
v 3.30433226 20.59728432 2.20178366
v 3.30738401 20.59275246 2.20181203
v 3.31222057 20.59346199 2.20180750
v 3.34462881 20.58176231 2.20188069
v 3.40319824 20.56291962 2.20199871
v 3.43605423 20.55204582 2.20378876
v 3.46971464 20.54600716 2.20478296
v 3.56537223 20.53375435 2.20680046
v 3.59930277 20.53375435 2.20680046
v 3.69559646 20.54007530 2.20575976
v 3.72920203 20.54610443 2.20476699
v 3.19042587 20.66156197 2.20138121
v 3.22022152 20.64301872 2.20149732
v 2.87704134 21.25705910 2.19765401
v 2.88272405 21.49110985 2.19618917
v 2.88106155 21.60061073 2.19550371
v 2.90192842 21.71937561 2.19476032
v 2.94269705 21.83233643 2.19405341
v 2.94245982 21.84186172 2.19399381
v 2.94657588 21.85052109 2.19393945
v 2.95590138 21.85954094 2.19388318
v 2.67397261 21.88031769 2.19375300
v 2.96892476 21.88031769 2.19375300
v 3.01966166 21.96170807 2.23117590
v 2.67397261 22.19602776 2.33891344
v 2.67397261 22.45054054 2.33891344
v 3.10037351 22.05212212 2.27274704
v 3.19541836 22.12776947 2.30752993
v 3.30205870 22.18648720 2.33452773
v 3.32945204 22.19602585 2.33891344
v 3.41722941 22.22657585 2.33891344
v 3.53760743 22.24690056 2.33891344
v 3.65973568 22.24688911 2.33891344
v 3.79290843 20.56291962 2.20199871
v 3.82240129 20.57048798 2.20195127
v 3.85495925 20.58218765 2.20187807
v 3.94176960 20.62286186 2.20162344
v 3.97231483 20.64022064 2.20151496
v 4.04974127 20.69600487 2.20116568
v 4.07744837 20.71876717 2.20102310
v 4.14285612 20.78741646 2.20059347
v 4.16688824 20.81520844 2.20041966
v 4.21818304 20.89401436 2.19992638
v 4.23756409 20.92617607 2.19972515
v 4.24161673 20.92871475 2.19970942
v 4.24165058 20.93486214 2.19967079
v 4.27739954 21.02090073 2.19913220
v 4.29018593 21.05752182 2.19890285
v 4.30948591 21.14751625 2.19833970
v 4.31615829 21.18710518 2.19809175
v 4.52113295 20.39740562 2.22924805
v 4.52113295 20.56291962 2.20199871
v 4.52113295 20.21718597 2.33891344
v 4.52113295 20.27982903 2.33891344
v 4.31882524 21.27662659 2.19753146
v 4.31421280 21.41493607 2.19666576
v 4.31636047 21.51833534 2.19601870
v 4.31627417 21.60047340 2.19550467
v 4.29540396 21.71925926 2.19476104
v 4.25446892 21.83282471 2.19405031
v 4.19469786 21.93791389 2.22023487
v 4.22741032 21.88031769 2.19375300
v 4.02597475 22.11095428 2.29979801
v 3.89462781 22.18659210 2.33457541
v 3.89506412 22.18638611 2.33448148
v 3.91329169 22.17784882 2.33055544
v 3.92236757 22.17357445 2.32859015
v 3.78011298 22.22654343 2.33891344
v 3.81891918 22.21303368 2.33891344
v 3.86762452 22.19602585 2.33891344
v 4.11780310 22.03151894 2.26327419
v 4.13933516 22.19602585 2.33891344
v 4.14452600 22.19602585 2.33891344
v 4.52113295 21.88031769 2.19375300
v 4.52113295 22.19602585 2.33891344
v 4.52113295 22.45054054 2.33891344
v 2.07068181 25.57801056 0.50000000
v 2.43118334 26.97541809 0.62574899
v 2.35552025 27.09818077 0.67066598
v 2.30376220 27.23138428 0.71940398
v 2.27748537 27.37098312 0.77048099
v 2.07068181 28.45353127 0.50000000
v 2.27767396 27.51246452 0.82234699
v 2.30444026 27.65211868 0.87342501
v 2.35661507 27.78520775 0.92216301
v 2.43256807 27.90771103 0.96708000
v 2.91763234 26.65635300 0.50900698
v 3.06665969 26.63173676 0.50000000
v 2.64437771 26.77571106 0.55267900
v 2.52845430 26.86682892 0.58601701
v 2.77543068 26.70483589 0.52674598
v 3.21798730 26.63173676 0.50000000
v 3.36701560 26.65635300 0.50900602
v 3.50921631 26.70483398 0.52674502
v 3.64027023 26.77571106 0.55267799
v 4.21396828 25.57801056 0.50000000
v 3.75619388 26.86682892 0.58601701
v 3.85346556 26.97541618 0.62574798
v 3.92912984 27.09817886 0.67066503
v 3.98088646 27.23138237 0.71940303
v 4.00716496 27.37098122 0.77048099
v 4.21396828 28.45353127 0.50000000
v 2.52995539 28.01594734 1.00681102
v 2.64580655 28.10667992 1.04015005
v 2.77660465 28.17719841 1.06608200
v 2.91840267 28.22540855 1.08382201
v 3.06693029 28.24987602 1.09282804
v 3.63884544 28.10667801 1.04014897
v 3.21772194 28.24987602 1.09282804
v 3.36624932 28.22540855 1.08382106
v 3.50804758 28.17719841 1.06608200
v 4.00697613 27.51246262 0.82234597
v 3.98021078 27.65211678 0.87342399
v 3.92803478 27.78520584 0.92216200
v 3.85208201 27.90771103 0.96707898
v 3.75469613 28.01594734 1.00681102
v 2.07068181 25.57801056 2.35662293
v 2.07068181 25.98917770 2.17810416
v 2.07068181 26.15468979 2.15085673
v 2.07068181 25.79777718 2.35662293
v 2.42753196 26.39879799 2.14932871
v 2.35154462 26.53962898 2.14844728
v 2.29961467 26.69241333 2.14749098
v 2.27332115 26.85249710 2.14648890
v 2.07068181 27.47208405 2.14261079
v 2.27752113 27.20974159 2.14425278
v 2.27767396 27.33034515 2.14349794
v 2.27623010 27.47208405 2.14261079
v 2.27580619 27.51118660 2.16058969
v 2.30249619 27.65117836 2.22495770
v 2.07068181 27.87950325 2.32994103
v 2.07068181 27.90437126 2.35662293
v 2.35467005 27.78463173 2.28631902
v 2.41345811 27.87950325 2.32994103
v 2.42875719 27.90437126 2.35662293
v 2.43069005 27.90750504 2.35662293
v 2.07068181 28.45353127 2.35662293
v 2.64177036 26.16967010 2.15076303
v 2.77348638 26.08409500 2.16247845
v 2.66602850 26.15468979 2.15085673
v 2.91643119 26.02489471 2.17222428
v 3.06625342 25.99483871 2.17717242
v 3.21839356 25.99483871 2.17717242
v 3.36821675 26.02489662 2.17222428
v 3.51116085 26.08409309 2.16247869
v 3.61861014 26.15468979 2.15085673
v 3.64287758 26.16967010 2.15076303
v 2.52526569 26.27421570 2.15010858
v 4.21396828 25.57801056 2.35662293
v 4.21396828 25.98917770 2.17810416
v 4.21396828 26.15468979 2.15085673
v 4.21396828 25.79777718 2.35662293
v 3.75938249 26.27421379 2.15010858
v 3.85711694 26.39879608 2.14932895
v 3.93310547 26.53962708 2.14844728
v 3.98503423 26.69241142 2.14749098
v 4.01132917 26.85249519 2.14648890
v 4.00716496 27.23748779 2.14407921
v 4.00701046 27.35741615 2.14332843
v 4.00835848 27.47208405 2.14261079
v 4.21396828 27.47208405 2.14261079
v 2.52831650 28.01609993 2.35662293
v 2.64446783 28.10713196 2.35662293
v 2.77561426 28.17788315 2.35662293
v 2.91779494 28.22625160 2.35662293
v 3.06672549 28.25079727 2.35662293
v 3.64018416 28.10713005 2.35662293
v 3.21792674 28.25079727 2.35662293
v 3.36685705 28.22625160 2.35662293
v 3.50903773 28.17788315 2.35662293
v 4.00884390 27.51118469 2.16058874
v 3.98215485 27.65117645 2.22495699
v 3.92997980 27.78462982 2.28631854
v 3.87130094 27.87950325 2.32994103
v 3.85396004 27.90750504 2.35662293
v 3.85590482 27.90437126 2.35662293
v 3.75633502 28.01609993 2.35662293
v 4.21396828 27.87950325 2.32994103
v 4.21396828 27.90437126 2.35662293
v 4.21396828 28.45353127 2.35662293
v 7.50000000 27.50000000 0.00000000
v 8.50055885 28.58332825 0.00000000
v 8.58332920 28.50055885 0.00000000
v 8.53786755 28.53786850 0.00000000
v 8.47283649 28.63519478 0.00000000
v 8.45576477 28.69147301 0.00000000
v 8.63519478 28.47283554 0.00000000
v 8.69147301 28.45576477 0.00000000
v 8.50055885 28.58332825 0.27499998
v 8.58332920 28.50055885 0.27500001
v 8.53786755 28.53786850 0.27500001
v 8.47283649 28.63519478 0.27500001
v 8.45576477 28.69147301 0.27500001
v 8.63519478 28.47283554 0.27500001
v 8.69147301 28.45576477 0.27500001
v 7.50000000 27.50000000 0.50000000
v 8.37876892 28.37876892 0.50000000
v 8.26496315 28.54909134 0.50000000
v 8.23508739 28.64757729 0.50000000
v 8.31347847 28.45832634 0.50000000
v 8.54909134 28.26496315 0.50000000
v 8.45832539 28.31347847 0.50000000
v 8.64757729 28.23508835 0.50000000
v 7.50000000 30.00000000 0.00000000
v 8.44999981 28.75000000 0.00000000
v 8.45576477 28.80852699 0.00000000
v 8.47283649 28.86480522 0.00000000
v 8.50055885 28.91667175 0.00000000
v 8.53786755 28.96213150 0.00000000
v 8.58332920 28.99944115 0.00000000
v 8.63519478 29.02716446 0.00000000
v 8.69147301 29.04423523 0.00000000
v 8.44999981 28.75000000 0.27500001
v 8.45576477 28.80852699 0.27500001
v 8.47283649 28.86480522 0.27500001
v 8.50055885 28.91667175 0.27499998
v 8.53786755 28.96213150 0.27500001
v 8.58332920 28.99944115 0.27500001
v 8.63519478 29.02716446 0.27500001
v 8.69147301 29.04423523 0.27500001
v 7.50000000 30.00000000 0.50000000
v 8.22500038 28.75000000 0.50000000
v 8.23508739 28.85242271 0.50000000
v 8.26496315 28.95090866 0.50000000
v 8.31347847 29.04167366 0.50000000
v 8.37876892 29.12123108 0.50000000
v 8.45832539 29.18652153 0.50000000
v 8.54909134 29.23503685 0.50000000
v 8.64757729 29.26491165 0.50000000
v 8.75000000 28.45000076 0.00000000
v 8.80852699 28.45576477 0.00000000
v 8.86480522 28.47283554 0.00000000
v 8.91667080 28.50055885 0.00000000
v 8.96213245 28.53786850 0.00000000
v 8.99944115 28.58332825 0.00000000
v 9.02716351 28.63519478 0.00000000
v 9.04423523 28.69147301 0.00000000
v 8.75000000 28.45000076 0.27500001
v 8.80852699 28.45576477 0.27500001
v 8.86480522 28.47283554 0.27500001
v 8.91667080 28.50055885 0.27500001
v 8.96213245 28.53786850 0.27500001
v 8.99944115 28.58332825 0.27499998
v 9.02716351 28.63519478 0.27500001
v 9.04423523 28.69147301 0.27500001
v 10.00000000 27.50000000 0.00000000
v 8.75000000 28.22500038 0.50000000
v 8.85242271 28.23508835 0.50000000
v 8.95090866 28.26496315 0.50000000
v 9.04167461 28.31347847 0.50000000
v 9.12123108 28.37876892 0.50000000
v 9.18652153 28.45832634 0.50000000
v 9.23503685 28.54909134 0.50000000
v 9.26491261 28.64757729 0.50000000
v 10.00000000 27.50000000 0.50000000
v 8.75000000 29.04999924 0.00000000
v 8.80852699 29.04423523 0.00000000
v 8.86480522 29.02716446 0.00000000
v 9.05000019 28.75000000 0.00000000
v 9.04423523 28.80852699 0.00000000
v 9.02716351 28.86480522 0.00000000
v 8.96213245 28.96213150 0.00000000
v 8.91667080 28.99944115 0.00000000
v 8.99944115 28.91667175 0.00000000
v 8.75000000 29.04999924 0.27500001
v 8.80852699 29.04423523 0.27500001
v 8.86480522 29.02716446 0.27500001
v 9.05000019 28.75000000 0.27500001
v 9.04423523 28.80852699 0.27500001
v 9.02716351 28.86480522 0.27500001
v 8.96213245 28.96213150 0.27500001
v 8.91667080 28.99944115 0.27500001
v 8.99944115 28.91667175 0.27499998
v 10.00000000 30.00000000 0.00000000
v 8.75000000 29.27499962 0.50000000
v 8.85242271 29.26491165 0.50000000
v 9.04167461 29.18652153 0.50000000
v 8.95090866 29.23503685 0.50000000
v 9.18652153 29.04167366 0.50000000
v 9.27499962 28.75000000 0.50000000
v 9.26491261 28.85242271 0.50000000
v 9.23503685 28.95090866 0.50000000
v 9.12123108 29.12123108 0.50000000
v 10.00000000 30.00000000 0.50000000
f 418 380 384
f 394 328 402
f 333 389 395
f 389 390 393
f 390 388 392
f 388 349 391
f 349 390 333
f 333 390 389
f 333 346 349
f 388 390 349
f 336 333 396
f 380 383 384
f 380 382 383
f 380 381 382
f 380 379 381
f 380 378 379
f 378 377 379
f 376 377 378
f 380 376 378
f 334 398 403
f 393 390 392
f 392 388 391
f 391 349 370
f 332 405 407
f 405 334 404
f 403 404 334
f 411 328 416
f 406 328 411
f 376 374 377
f 334 399 398
f 399 335 397
f 402 328 401
f 328 406 401
f 331 332 409
f 332 334 405
f 334 335 399
f 335 336 397
f 368 346 367
f 380 310 376
f 369 350 394
f 369 368 350
f 368 367 350
f 367 366 350
f 364 350 366
f 370 348 369
f 369 347 368
f 372 312 373
f 346 366 367
f 366 345 364
f 364 342 365
f 365 341 351
f 363 371 360
f 360 362 363
f 362 352 361
f 360 352 362
f 384 325 385
f 372 360 371
f 374 375 377
f 374 373 375
f 374 372 373
f 374 360 372
f 418 320 380
f 386 327 387
f 385 326 386
f 395 389 393
f 383 324 384
f 382 323 383
f 382 381 322
f 381 379 321
f 377 319 379
f 371 313 372
f 375 311 377
f 373 311 375
f 417 413 418
f 428 424 423
f 510 101 610
f 525 102 510
f 419 501 464
f 501 422 439
f 422 501 419
f 502 102 525
f 422 102 502
f 418 415 414
f 424 428 440
f 413 415 418
f 418 387 417
f 418 385 386
f 418 384 385
f 418 386 387
f 414 416 418
f 416 410 411
f 414 412 416
f 437 431 434
f 438 440 470
f 423 424 468
f 438 469 424
f 428 427 451
f 440 428 441
f 424 440 438
f 437 435 436
f 437 434 435
f 416 412 410
f 433 431 437
f 427 433 437
f 431 432 434
f 433 430 431
f 427 430 433
f 427 429 430
f 425 426 428
f 428 426 427
f 397 336 396
f 403 398 406
f 402 401 399
f 398 401 406
f 397 394 402
f 401 398 399
f 400 402 399
f 400 397 402
f 399 397 400
f 404 403 406
f 396 333 395
f 396 394 397
f 395 394 396
f 395 393 394
f 393 392 394
f 392 391 394
f 391 370 394
f 370 369 394
f 410 329 408
f 415 412 414
f 410 408 411
f 408 409 411
f 409 407 411
f 407 405 411
f 409 332 407
f 408 331 409
f 416 328 418
f 357 356 353
f 413 339 415
f 387 337 417
f 417 338 413
f 415 329 412
f 329 410 412
f 408 330 331
f 411 404 406
f 405 404 411
f 308 307 309
f 316 318 344
f 316 317 318
f 313 315 316
f 313 314 315
f 319 312 313
f 312 319 311
f 310 237 328
f 306 303 309
f 303 308 309
f 313 316 325
f 300 299 309
f 307 300 309
f 299 298 309
f 298 297 309
f 309 301 302
f 309 281 301
f 309 304 306
f 309 305 304
f 320 310 380
f 325 384 324
f 323 324 383
f 322 323 382
f 321 322 381
f 379 319 321
f 319 313 325
f 312 311 373
f 311 319 377
f 302 305 309
f 324 319 325
f 323 319 324
f 319 322 321
f 319 323 322
f 329 316 335
f 316 343 335
f 316 344 343
f 325 316 329
f 294 244 309
f 288 277 294
f 277 276 294
f 307 254 300
f 254 299 300
f 299 253 298
f 297 252 296
f 253 297 298
f 296 251 295
f 289 288 294
f 295 250 293
f 293 249 292
f 292 248 291
f 291 247 290
f 290 246 289
f 289 245 288
f 288 234 277
f 249 248 292
f 287 256 301
f 303 262 308
f 308 255 307
f 263 281 309
f 305 258 304
f 304 258 306
f 306 259 303
f 302 261 305
f 301 257 302
f 325 326 385
f 297 294 309
f 297 296 294
f 296 295 294
f 295 293 294
f 293 292 294
f 292 291 294
f 291 290 294
f 290 289 294
f 344 342 346
f 345 342 364
f 342 344 365
f 344 341 365
f 350 310 394
f 349 346 348
f 346 347 348
f 343 346 333
f 346 342 345
f 343 344 346
f 346 345 366
f 363 314 371
f 362 315 363
f 361 315 362
f 374 376 310
f 360 374 310
f 355 315 361
f 356 315 355
f 354 315 356
f 358 350 351
f 356 355 353
f 352 355 361
f 354 356 357
f 353 354 357
f 353 355 352
f 353 350 354
f 354 359 317
f 358 317 359
f 352 310 353
f 365 350 364
f 351 350 365
f 359 354 350
f 359 350 358
f 351 318 358
f 349 348 370
f 348 347 369
f 347 346 368
f 335 333 336
f 925 220 320
f 220 925 219
f 217 219 908
f 338 329 339
f 327 329 338
f 327 338 337
f 326 329 327
f 325 329 326
f 328 786 340
f 332 335 334
f 335 343 333
f 332 330 335
f 330 332 331
f 329 335 330
f 310 328 394
f 328 263 786
f 326 327 386
f 350 353 310
f 352 360 310
f 313 312 372
f 314 313 371
f 315 314 363
f 317 316 354
f 318 317 358
f 316 315 354
f 341 318 351
f 425 428 474
f 344 318 341
f 320 418 340
f 329 330 408
f 328 340 418
f 337 387 327
f 339 329 415
f 339 413 338
f 337 338 417
f 680 682 681
f 647 648 699
f 701 646 656
f 655 716 649
f 652 651 708
f 650 649 705
f 651 650 707
f 653 652 710
f 654 653 713
f 654 715 664
f 646 701 648
f 682 680 685
f 682 685 683
f 683 685 684
f 685 687 686
f 663 645 730
f 657 704 656
f 658 718 657
f 658 659 720
f 649 669 677
f 680 647 685
f 685 649 687
f 664 665 666
f 668 654 664
f 649 668 669
f 668 664 666
f 668 666 667
f 669 670 672
f 659 660 721
f 687 649 677
f 672 673 669
f 669 673 674
f 677 669 674
f 677 674 675
f 677 675 676
f 678 691 677
f 655 647 698
f 505 525 611
f 507 506 620
f 502 505 624
f 508 437 507
f 506 504 617
f 504 503 616
f 437 506 507
f 506 503 504
f 437 503 506
f 508 507 621
f 505 502 525
f 671 505 679
f 645 501 671
f 671 439 505
f 501 439 671
f 610 101 885
f 645 663 108
f 624 495 497
f 686 736 685
f 660 661 722
f 661 662 724
f 662 680 725
f 680 681 728
f 681 682 731
f 682 683 732
f 683 684 733
f 685 735 684
f 647 649 685
f 686 690 737
f 757 645 671
f 665 664 740
f 666 665 742
f 667 666 744
f 668 667 746
f 669 668 748
f 670 669 748
f 627 460 626
f 623 508 622
f 623 622 624
f 622 621 624
f 498 499 624
f 499 623 624
f 900 505 611
f 900 611 610
f 626 625 628
f 628 627 626
f 508 621 622
f 629 627 628
f 630 629 628
f 639 419 630
f 628 625 631
f 630 628 636
f 115 628 631
f 632 463 633
f 632 633 635
f 618 617 614
f 614 502 624
f 616 503 615
f 617 504 616
f 506 617 618
f 482 481 614
f 615 482 614
f 616 615 614
f 617 616 614
f 643 421 634
f 618 614 619
f 619 614 620
f 620 614 621
f 621 614 624
f 509 508 623
f 506 618 619
f 620 506 619
f 621 507 620
f 649 654 668
f 800 108 663
f 263 244 800
f 648 647 646
f 649 650 651
f 649 651 652
f 649 652 653
f 649 653 654
f 649 647 655
f 644 643 641
f 646 657 656
f 646 647 662
f 657 646 662
f 657 662 658
f 658 662 659
f 659 662 660
f 660 662 661
f 662 647 680
f 116 115 631
f 634 632 635
f 635 501 642
f 634 635 642
f 642 501 644
f 628 115 637
f 636 628 638
f 639 630 636
f 638 628 637
f 624 494 495
f 637 115 638
f 638 115 639
f 636 638 640
f 639 636 640
f 640 638 639
f 641 634 642
f 643 634 641
f 641 642 644
f 626 420 625
f 421 463 632
f 462 463 421
f 462 459 464
f 459 461 464
f 461 458 460
f 459 458 461
f 458 457 460
f 462 420 459
f 457 626 460
f 464 501 633
f 457 420 626
f 629 419 627
f 419 629 630
f 458 420 457
f 420 458 459
f 461 419 464
f 421 420 462
f 460 627 419
f 468 424 469
f 477 430 476
f 476 429 475
f 427 467 475
f 467 426 466
f 474 428 473
f 466 425 474
f 471 440 472
f 470 440 471
f 419 461 460
f 469 438 470
f 473 423 468
f 492 422 465
f 465 422 614
f 633 501 635
f 633 462 464
f 463 462 633
f 421 632 634
f 434 432 479
f 443 441 451
f 441 428 451
f 443 446 444
f 441 443 442
f 503 437 615
f 437 436 482
f 436 435 481
f 435 434 480
f 444 446 445
f 432 431 478
f 431 430 477
f 429 427 475
f 430 429 476
f 614 422 502
f 427 426 467
f 426 425 466
f 428 423 473
f 451 508 456
f 454 449 455
f 456 454 453
f 452 456 453
f 449 509 450
f 449 454 508
f 449 508 509
f 456 508 454
f 451 437 508
f 478 431 477
f 451 427 437
f 492 505 439
f 447 451 448
f 441 442 484
f 440 441 472
f 439 422 492
f 447 443 451
f 446 443 447
f 450 509 623
f 495 453 497
f 498 449 499
f 499 450 623
f 494 452 495
f 494 500 452
f 493 491 451
f 455 449 498
f 450 499 449
f 497 454 496
f 455 496 454
f 453 454 497
f 453 495 452
f 456 493 451
f 490 448 491
f 489 447 490
f 488 446 489
f 487 445 488
f 488 489 492
f 624 492 494
f 624 496 498
f 497 496 624
f 492 500 494
f 493 500 492
f 491 493 492
f 490 491 492
f 489 490 492
f 486 444 487
f 487 488 492
f 492 486 487
f 492 485 486
f 492 484 485
f 505 492 624
f 500 493 456
f 456 452 500
f 496 455 498
f 475 467 465
f 484 465 483
f 472 483 465
f 492 465 484
f 471 472 465
f 465 470 471
f 468 465 473
f 465 469 470
f 468 469 465
f 475 465 614
f 474 465 466
f 467 466 465
f 474 473 465
f 615 437 482
f 482 436 481
f 481 435 480
f 480 434 479
f 479 432 478
f 444 445 487
f 485 443 486
f 484 442 485
f 484 483 441
f 472 441 483
f 448 451 491
f 447 448 490
f 446 447 489
f 445 446 488
f 248 247 291
f 443 444 486
f 442 443 485
f 481 480 614
f 480 479 614
f 479 478 614
f 478 477 614
f 477 476 614
f 476 475 614
f 792 796 797
f 788 790 789
f 790 788 807
f 787 788 833
f 788 789 834
f 792 795 791
f 794 793 795
f 794 795 792
f 794 792 797
f 785 794 798
f 788 785 807
f 798 794 797
f 798 799 802
f 802 799 801
f 800 679 806
f 798 802 803
f 816 798 803
f 781 800 853
f 785 798 816
f 108 103 113
f 420 104 110
f 421 104 420
f 103 422 419
f 102 101 510
f 107 104 421
f 103 102 422
f 106 108 218
f 217 105 106
f 795 793 843
f 104 107 111
f 106 102 108
f 102 103 108
f 783 784 827
f 827 784 785
f 785 787 830
f 925 320 340
f 787 785 788
f 811 809 814
f 925 786 806
f 807 785 809
f 809 785 816
f 809 819 812
f 819 809 816
f 812 819 820
f 807 809 808
f 809 811 810
f 925 340 786
f 814 809 812
f 811 814 813
f 814 812 815
f 786 884 806
f 817 818 816
f 819 816 818
f 817 816 875
f 818 817 877
f 816 803 804
f 793 794 842
f 791 795 843
f 792 791 846
f 796 792 847
f 797 796 848
f 798 797 849
f 799 798 850
f 801 799 857
f 103 419 639
f 816 804 805
f 802 801 858
f 803 802 859
f 853 800 806
f 804 803 860
f 805 804 861
f 816 805 862
f 908 219 925
f 780 776 777
f 776 769 777
f 780 737 772
f 780 772 773
f 765 766 779
f 775 765 779
f 767 775 779
f 777 767 779
f 780 773 774
f 780 774 776
f 774 768 776
f 754 753 778
f 759 754 778
f 760 759 778
f 761 760 778
f 762 761 778
f 763 762 778
f 779 766 778
f 780 777 779
f 753 752 756
f 745 744 756
f 746 745 756
f 747 746 756
f 748 747 756
f 750 749 756
f 749 748 756
f 751 750 756
f 752 751 756
f 786 263 781
f 753 756 778
f 766 764 778
f 778 764 763
f 769 770 777
f 777 770 771
f 777 771 767
f 773 768 774
f 776 768 769
f 112 107 114
f 625 110 631
f 420 110 625
f 114 107 643
f 109 103 639
f 113 109 114
f 112 114 109
f 109 111 112
f 109 110 111
f 110 109 116
f 111 107 112
f 113 103 109
f 110 104 111
f 501 108 644
f 908 101 105
f 108 501 645
f 108 244 221
f 421 643 107
f 108 220 218
f 781 263 800
f 794 783 782
f 783 794 785
f 783 785 784
f 783 825 782
f 794 782 825
f 786 781 841
f 220 221 237
f 822 823 781
f 106 218 217
f 220 108 221
f 644 113 643
f 113 114 643
f 644 108 113
f 115 109 639
f 116 109 115
f 631 110 116
f 815 874 814
f 863 862 865
f 864 863 865
f 807 808 866
f 808 809 867
f 868 809 810
f 810 811 869
f 811 813 870
f 812 820 881
f 814 873 813
f 862 861 865
f 815 812 871
f 866 808 867
f 884 786 841
f 867 809 868
f 868 810 869
f 869 811 870
f 871 812 881
f 870 813 872
f 851 850 855
f 822 824 854
f 824 821 856
f 847 822 854
f 848 847 854
f 849 848 855
f 854 824 856
f 856 821 853
f 850 849 855
f 872 813 873
f 857 851 855
f 855 848 854
f 856 853 854
f 858 857 855
f 859 858 855
f 860 859 855
f 860 855 865
f 861 860 865
f 882 883 880
f 875 864 882
f 882 864 865
f 877 876 882
f 878 877 882
f 879 878 880
f 880 878 882
f 879 880 884
f 876 875 882
f 884 873 874
f 884 880 883
f 874 871 884
f 884 871 881
f 881 879 884
f 679 505 925
f 900 925 505
f 610 885 900
f 806 679 925
f 878 818 877
f 873 814 874
f 874 815 871
f 819 818 878
f 820 819 879
f 865 806 882
f 876 817 875
f 877 817 876
f 879 819 878
f 847 846 822
f 882 806 883
f 881 820 879
f 883 806 884
f 841 868 869
f 884 841 869
f 884 869 870
f 884 870 872
f 884 872 873
f 790 807 840
f 826 827 823
f 823 827 828
f 823 828 830
f 829 823 832
f 823 830 831
f 823 831 832
f 829 832 833
f 789 790 837
f 825 826 823
f 833 788 834
f 834 789 837
f 837 790 838
f 838 790 840
f 840 807 866
f 829 833 834
f 829 834 837
f 835 829 837
f 828 785 830
f 822 781 824
f 824 781 821
f 823 829 781
f 794 825 852
f 783 827 826
f 825 783 826
f 829 835 781
f 827 785 828
f 841 835 836
f 830 787 831
f 831 787 832
f 832 787 833
f 841 781 835
f 823 822 844
f 842 852 823
f 844 842 823
f 852 825 823
f 861 804 860
f 850 798 849
f 850 851 799
f 857 799 851
f 858 801 857
f 859 802 858
f 860 803 859
f 806 855 854
f 853 806 854
f 849 797 848
f 862 805 861
f 816 862 863
f 863 864 816
f 875 816 864
f 855 806 865
f 843 844 822
f 845 843 822
f 846 845 822
f 841 867 868
f 835 837 838
f 836 835 839
f 839 835 838
f 841 836 839
f 841 839 840
f 839 838 840
f 841 840 866
f 841 866 867
f 744 743 756
f 846 791 845
f 847 792 846
f 848 796 847
f 821 781 853
f 793 842 844
f 842 794 852
f 843 793 844
f 845 791 843
f 237 221 281
f 263 237 281
f 242 243 286
f 242 285 241
f 240 283 239
f 240 241 284
f 238 239 282
f 235 278 222
f 236 238 280
f 236 279 235
f 244 108 800
f 256 236 257
f 241 236 256
f 243 241 256
f 241 243 242
f 240 236 241
f 238 240 239
f 236 226 257
f 238 236 240
f 221 244 294
f 252 251 296
f 251 250 295
f 262 254 255
f 262 253 254
f 253 251 252
f 251 253 257
f 257 223 251
f 250 249 293
f 222 236 235
f 251 247 250
f 247 249 250
f 247 248 249
f 251 246 247
f 223 246 251
f 246 234 245
f 246 233 234
f 253 262 259
f 675 674 761
f 220 237 310
f 672 670 750
f 673 672 752
f 687 689 688
f 689 687 691
f 690 686 687
f 687 677 691
f 674 673 754
f 220 310 320
f 676 675 762
f 677 676 763
f 678 677 764
f 663 780 679
f 691 678 765
f 688 770 687
f 688 689 771
f 690 687 768
f 226 268 223
f 226 223 257
f 246 231 233
f 233 229 232
f 223 231 246
f 223 230 231
f 231 229 233
f 228 222 271
f 228 270 227
f 253 252 297
f 225 267 226
f 227 269 225
f 222 226 236
f 228 226 222
f 226 227 225
f 226 228 227
f 224 223 265
f 224 230 223
f 274 264 272
f 285 242 286
f 284 241 285
f 283 240 284
f 283 282 239
f 279 236 280
f 278 235 279
f 276 264 294
f 276 275 264
f 275 272 264
f 286 243 287
f 281 264 267
f 266 265 264
f 266 264 273
f 264 268 267
f 268 264 265
f 264 274 273
f 277 233 276
f 276 232 275
f 282 283 281
f 247 246 290
f 246 245 289
f 245 234 288
f 287 301 281
f 286 287 281
f 285 286 281
f 284 285 281
f 283 284 281
f 232 272 275
f 281 280 282
f 281 279 280
f 281 278 279
f 281 271 278
f 281 270 271
f 281 269 270
f 281 267 269
f 282 280 238
f 243 256 287
f 262 255 308
f 244 263 309
f 261 258 305
f 258 260 306
f 260 259 306
f 259 262 303
f 261 302 257
f 256 257 301
f 230 224 266
f 237 263 328
f 258 259 260
f 259 257 253
f 261 259 258
f 261 257 259
f 217 908 105
f 255 254 307
f 254 253 299
f 232 229 272
f 274 231 273
f 230 266 273
f 272 229 274
f 234 233 277
f 233 232 276
f 229 231 274
f 231 230 273
f 264 221 294
f 691 775 689
f 271 222 278
f 270 228 271
f 269 227 270
f 268 226 267
f 265 223 268
f 267 225 269
f 281 221 264
f 266 224 265
f 696 701 693
f 705 717 693
f 706 705 693
f 706 693 708
f 693 703 718
f 693 718 719
f 699 696 693
f 697 698 693
f 700 699 693
f 698 700 693
f 717 716 693
f 701 702 693
f 702 704 693
f 716 697 693
f 703 693 704
f 693 719 720
f 710 709 692
f 711 710 692
f 709 708 693
f 769 687 770
f 761 674 760
f 762 675 761
f 763 676 762
f 764 677 763
f 765 678 766
f 766 678 764
f 778 671 779
f 768 687 769
f 712 711 692
f 689 775 767
f 770 688 771
f 771 689 767
f 772 690 773
f 773 690 768
f 775 691 765
f 779 671 780
f 693 692 709
f 738 715 755
f 730 734 735
f 730 735 736
f 734 733 735
f 730 736 737
f 780 730 737
f 713 712 755
f 714 713 755
f 715 714 755
f 734 729 733
f 739 738 756
f 740 739 756
f 741 740 756
f 742 741 756
f 756 738 755
f 758 694 757
f 755 695 758
f 743 742 756
f 726 723 724
f 707 706 708
f 712 692 755
f 695 694 758
f 755 692 695
f 726 693 721
f 721 693 720
f 726 721 722
f 726 722 723
f 674 759 760
f 726 724 727
f 727 724 725
f 726 727 728
f 726 728 731
f 729 726 733
f 726 731 732
f 733 726 732
f 730 729 734
f 695 645 694
f 707 650 706
f 652 708 709
f 710 652 709
f 653 710 711
f 653 711 712
f 713 653 712
f 654 713 714
f 715 654 714
f 708 651 707
f 694 645 757
f 726 729 645
f 704 657 703
f 703 657 718
f 718 658 719
f 719 658 720
f 720 659 721
f 721 660 722
f 648 701 696
f 671 679 780
f 101 908 885
f 800 663 679
f 645 695 692
f 692 693 645
f 693 726 645
f 647 699 700
f 698 647 700
f 722 661 723
f 701 656 702
f 702 656 704
f 699 648 696
f 649 716 717
f 705 649 717
f 655 698 697
f 716 655 697
f 650 705 706
f 672 750 751
f 666 742 743
f 744 666 743
f 667 744 745
f 746 667 745
f 668 746 747
f 748 668 747
f 670 748 749
f 750 670 749
f 742 665 741
f 752 672 751
f 673 752 753
f 754 673 753
f 755 758 671
f 755 671 756
f 756 671 778
f 757 671 758
f 674 754 759
f 733 684 735
f 723 661 724
f 724 662 725
f 725 680 727
f 727 680 728
f 730 645 729
f 728 681 731
f 731 682 732
f 732 683 733
f 730 780 663
f 737 690 772
f 735 685 736
f 736 686 737
f 664 715 738
f 664 738 739
f 740 664 739
f 665 740 741
f 100 1 16
f 28 29 37
f 99 105 30
f 39 31 81
f 38 30 39
f 37 29 38
f 36 28 37
f 35 27 36
f 34 26 35
f 33 25 34
f 32 24 33
f 31 72 81
f 30 31 39
f 29 30 38
f 100 19 40
f 27 28 36
f 26 27 35
f 25 26 34
f 24 25 33
f 29 99 30
f 28 99 29
f 27 99 28
f 26 99 27
f 25 99 26
f 24 99 25
f 6 99 24
f 5 99 6
f 43 35 36
f 100 90 91
f 100 47 90
f 100 46 47
f 100 45 46
f 47 39 90
f 46 38 47
f 39 81 90
f 38 39 47
f 45 38 46
f 44 37 45
f 38 45 37
f 37 44 36
f 99 1 100
f 43 36 44
f 42 34 43
f 34 35 43
f 41 34 42
f 40 33 41
f 34 41 33
f 40 32 33
f 100 44 45
f 100 43 44
f 100 42 43
f 100 41 42
f 100 40 41
f 5 12 2
f 15 8 14
f 14 7 10
f 13 6 32
f 9 2 12
f 12 5 13
f 11 4 9
f 10 3 11
f 48 8 15
f 8 7 14
f 7 3 10
f 6 24 32
f 5 6 13
f 56 48 15
f 3 4 11
f 4 2 9
f 49 50 1
f 48 49 1
f 8 48 1
f 7 8 1
f 3 1 4
f 3 7 1
f 2 4 1
f 1 5 2
f 101 16 1
f 1 99 5
f 12 13 19
f 10 11 17
f 11 9 17
f 64 15 23
f 23 14 21
f 56 15 64
f 15 14 23
f 21 10 22
f 10 17 22
f 14 10 21
f 19 13 40
f 18 12 19
f 13 32 40
f 101 1 50
f 17 9 20
f 20 12 18
f 12 20 9
f 16 102 23
f 23 21 16
f 22 16 21
f 19 16 18
f 20 18 16
f 100 16 19
f 22 17 16
f 16 17 20
f 79 105 78
f 105 101 77
f 88 79 87
f 87 78 89
f 86 77 85
f 89 80 86
f 85 76 84
f 83 74 88
f 82 73 83
f 81 72 82
f 105 77 80
f 105 80 78
f 74 105 79
f 88 87 98
f 73 105 74
f 72 105 73
f 31 105 72
f 30 105 31
f 78 80 89
f 79 78 87
f 80 77 86
f 77 76 85
f 76 75 84
f 79 88 74
f 73 74 83
f 72 73 82
f 89 86 94
f 105 99 106
f 106 99 100
f 94 106 98
f 106 92 98
f 106 96 102
f 97 106 94
f 96 106 97
f 106 93 92
f 106 91 93
f 106 100 91
f 94 86 97
f 98 89 94
f 102 96 95
f 86 96 97
f 96 85 95
f 86 85 96
f 85 84 95
f 92 88 98
f 93 83 92
f 83 88 92
f 91 83 93
f 90 82 91
f 83 91 82
f 90 81 82
f 98 87 89
f 54 101 53
f 84 75 63
f 63 55 62
f 62 54 61
f 61 53 60
f 60 52 59
f 59 51 58
f 58 50 57
f 57 49 56
f 77 101 76
f 76 101 75
f 75 101 55
f 55 101 54
f 23 102 64
f 53 101 52
f 101 51 52
f 101 50 51
f 75 55 63
f 55 54 62
f 54 53 61
f 53 52 60
f 52 51 59
f 51 50 58
f 50 49 57
f 49 48 56
f 16 101 102
f 61 60 69
f 102 95 71
f 102 71 70
f 102 70 69
f 102 69 68
f 67 102 68
f 95 63 71
f 71 62 70
f 84 63 95
f 63 62 71
f 62 69 70
f 69 60 68
f 62 61 69
f 60 59 68
f 68 59 67
f 67 58 66
f 59 58 67
f 58 65 66
f 65 57 64
f 58 57 65
f 57 56 64
f 66 102 67
f 65 102 66
f 64 102 65
f 573 612 582
f 607 596 606
f 609 605 613
f 613 603 609
f 607 582 613
f 605 608 613
f 608 607 613
f 604 603 613
f 613 602 604
f 613 611 602
f 605 597 608
f 609 600 605
f 600 597 605
f 597 607 608
f 613 610 611
f 597 596 607
f 596 595 606
f 603 599 609
f 604 594 603
f 594 599 603
f 602 594 604
f 601 593 602
f 594 602 593
f 601 592 593
f 609 598 600
f 599 598 609
f 582 612 613
f 573 563 564
f 558 557 565
f 559 558 566
f 560 559 567
f 561 560 568
f 562 561 569
f 563 562 570
f 564 563 571
f 586 564 572
f 573 559 560
f 573 560 561
f 573 561 562
f 573 562 563
f 588 612 573
f 573 564 586
f 586 587 573
f 587 588 573
f 566 558 565
f 567 559 566
f 568 560 567
f 569 561 568
f 570 562 569
f 571 563 570
f 572 564 571
f 595 586 572
f 610 613 612
f 570 569 579
f 606 581 582
f 581 580 582
f 580 579 582
f 579 578 582
f 578 577 582
f 606 572 581
f 581 571 580
f 595 572 606
f 572 571 581
f 571 579 580
f 579 569 578
f 571 570 579
f 607 606 582
f 569 568 578
f 578 568 577
f 577 567 576
f 568 567 577
f 567 575 576
f 575 566 574
f 567 566 575
f 566 565 574
f 577 576 582
f 576 575 582
f 575 574 582
f 574 532 582
f 584 612 585
f 599 590 598
f 598 589 600
f 597 588 596
f 600 591 597
f 596 587 595
f 594 585 599
f 593 584 594
f 592 583 593
f 588 591 612
f 589 612 591
f 612 590 585
f 589 590 612
f 510 573 525
f 583 612 584
f 540 612 583
f 539 612 540
f 589 591 600
f 590 589 598
f 591 588 597
f 588 587 596
f 587 586 595
f 590 599 585
f 584 585 594
f 583 584 593
f 522 541 549
f 529 525 526
f 525 531 526
f 611 525 528
f 527 525 529
f 528 525 527
f 525 530 531
f 525 532 530
f 525 582 532
f 521 529 518
f 529 521 527
f 526 518 529
f 521 522 528
f 565 557 524
f 527 521 528
f 528 522 549
f 523 519 530
f 519 526 531
f 530 519 531
f 524 523 532
f 565 524 574
f 532 523 530
f 574 524 532
f 520 518 526
f 519 520 526
f 514 610 515
f 514 515 522
f 514 510 610
f 510 514 511
f 510 511 513
f 516 510 512
f 512 510 513
f 517 510 516
f 557 510 517
f 558 510 557
f 559 510 558
f 513 511 518
f 512 513 520
f 514 521 511
f 573 510 559
f 515 533 541
f 516 512 519
f 517 516 523
f 557 517 524
f 519 512 520
f 520 513 518
f 521 514 522
f 518 511 521
f 522 515 541
f 523 516 519
f 524 517 523
f 546 553 545
f 611 550 551
f 611 551 552
f 611 552 553
f 554 611 553
f 549 541 542
f 543 550 542
f 549 542 550
f 550 543 551
f 543 544 552
f 551 543 552
f 552 545 553
f 552 544 545
f 533 610 534
f 547 554 546
f 553 546 554
f 554 547 555
f 547 548 556
f 548 592 601
f 555 547 556
f 556 548 601
f 555 611 554
f 556 611 555
f 601 611 556
f 602 611 601
f 525 573 582
f 611 528 549
f 515 610 533
f 534 610 535
f 535 610 536
f 536 610 537
f 610 538 537
f 610 539 538
f 533 534 542
f 534 535 543
f 535 536 544
f 536 537 545
f 537 538 546
f 538 539 547
f 539 540 548
f 540 583 592
f 541 533 542
f 542 534 543
f 543 535 544
f 544 536 545
f 545 537 546
f 546 538 547
f 547 539 548
f 548 540 592
f 610 612 539
f 611 549 550
f 117 140 121
f 180 179 187
f 182 218 183
f 183 218 184
f 184 218 185
f 175 174 182
f 176 175 183
f 183 175 182
f 176 183 184
f 177 176 185
f 185 176 184
f 186 177 185
f 178 177 186
f 179 178 187
f 139 218 182
f 187 178 186
f 180 187 188
f 181 180 189
f 202 181 213
f 189 180 188
f 213 181 189
f 185 218 186
f 218 187 186
f 218 188 187
f 218 189 188
f 218 213 189
f 218 214 213
f 172 217 171
f 132 217 218
f 167 166 174
f 168 167 175
f 169 168 176
f 170 169 177
f 171 170 178
f 172 171 179
f 173 172 180
f 193 173 181
f 217 168 169
f 217 169 170
f 171 217 170
f 190 191 200
f 173 217 172
f 193 217 173
f 194 217 193
f 195 217 194
f 175 167 174
f 176 168 175
f 177 169 176
f 178 170 177
f 179 171 178
f 180 172 179
f 181 173 180
f 202 193 181
f 204 214 215
f 206 205 216
f 216 205 207
f 208 199 200
f 201 209 200
f 208 200 209
f 209 201 211
f 201 206 210
f 211 201 210
f 210 206 216
f 203 202 213
f 204 203 214
f 214 203 213
f 217 195 219
f 207 204 212
f 216 207 212
f 212 204 215
f 220 157 209
f 220 209 211
f 220 211 210
f 214 220 215
f 215 220 212
f 218 220 214
f 220 210 216
f 212 220 216
f 157 117 132
f 192 219 197
f 191 192 201
f 197 206 192
f 194 193 202
f 195 194 203
f 198 195 204
f 197 196 205
f 196 198 207
f 147 219 148
f 148 219 190
f 190 219 191
f 191 219 192
f 197 219 196
f 217 132 117
f 219 198 196
f 219 195 198
f 199 190 200
f 200 191 201
f 201 192 206
f 203 194 202
f 207 198 204
f 204 195 203
f 205 196 207
f 206 197 205
f 219 140 220
f 134 128 135
f 138 133 132
f 157 132 135
f 136 134 132
f 135 132 134
f 138 132 137
f 139 137 132
f 132 218 139
f 128 136 125
f 136 128 134
f 133 125 136
f 128 129 135
f 129 149 158
f 132 133 136
f 135 129 158
f 130 126 137
f 126 133 138
f 137 126 138
f 131 130 139
f 174 131 182
f 139 130 137
f 182 131 139
f 127 125 133
f 126 127 133
f 140 117 157
f 121 140 122
f 121 122 129
f 217 117 168
f 117 121 118
f 118 120 117
f 119 123 117
f 119 117 120
f 123 124 117
f 124 166 117
f 166 167 117
f 167 168 117
f 120 118 125
f 119 120 127
f 121 128 118
f 208 209 157
f 122 141 149
f 123 119 126
f 124 123 130
f 166 124 131
f 126 119 127
f 127 120 125
f 128 121 129
f 125 118 128
f 129 122 149
f 130 123 126
f 131 124 130
f 174 166 131
f 161 152 153
f 157 158 159
f 157 159 160
f 160 161 157
f 161 162 157
f 162 163 157
f 158 149 150
f 151 159 150
f 158 150 159
f 159 151 160
f 151 152 161
f 160 151 161
f 161 153 162
f 141 140 142
f 154 162 153
f 155 163 154
f 162 154 163
f 163 155 164
f 155 156 165
f 156 199 208
f 164 155 165
f 165 156 208
f 163 164 157
f 164 165 157
f 165 208 157
f 122 140 141
f 220 140 157
f 157 135 158
f 142 140 143
f 143 140 144
f 144 140 145
f 145 140 146
f 146 140 147
f 141 142 150
f 142 143 151
f 143 144 152
f 144 145 153
f 145 146 154
f 146 147 155
f 148 190 199
f 147 148 156
f 140 219 147
f 156 148 199
f 155 147 156
f 154 146 155
f 153 145 154
f 152 144 153
f 151 143 152
f 150 142 151
f 149 141 150
f 946 945 955
f 955 945 954
f 954 944 953
f 945 944 954
f 944 952 953
f 952 943 951
f 944 943 952
f 943 942 951
f 954 953 959
f 953 952 959
f 952 951 959
f 951 907 959
f 947 946 956
f 948 947 956
f 956 946 955
f 948 956 957
f 949 948 958
f 972 949 984
f 958 948 957
f 984 949 958
f 955 954 959
f 956 955 959
f 957 956 959
f 958 957 959
f 984 958 959
f 950 939 940
f 900 950 959
f 935 934 942
f 936 935 943
f 937 936 944
f 938 937 945
f 939 938 946
f 940 939 947
f 941 940 948
f 963 941 949
f 950 936 937
f 950 937 938
f 950 938 939
f 950 978 959
f 950 940 941
f 950 941 963
f 963 964 950
f 964 965 950
f 943 935 942
f 944 936 943
f 945 937 944
f 946 938 945
f 947 939 946
f 948 940 947
f 949 941 948
f 972 963 949
f 985 973 984
f 959 978 988
f 976 975 987
f 987 975 977
f 979 969 970
f 971 980 970
f 979 970 980
f 980 971 982
f 971 976 981
f 982 971 981
f 981 976 987
f 973 972 984
f 974 973 985
f 965 978 950
f 974 985 986
f 977 974 983
f 987 977 983
f 983 974 986
f 988 925 980
f 988 980 982
f 982 981 988
f 986 985 988
f 983 986 988
f 985 959 988
f 988 981 987
f 987 983 988
f 966 967 978
f 960 961 970
f 961 962 971
f 967 976 962
f 964 963 972
f 965 964 973
f 968 965 974
f 967 966 975
f 966 968 977
f 915 978 916
f 916 978 960
f 960 978 961
f 961 978 962
f 985 984 959
f 978 967 962
f 966 978 968
f 965 968 978
f 969 960 970
f 970 961 971
f 971 962 976
f 973 964 972
f 977 968 974
f 974 965 973
f 975 966 977
f 976 967 975
f 908 988 978
f 897 917 926
f 904 900 901
f 900 906 901
f 900 903 925
f 902 900 904
f 903 900 902
f 900 905 906
f 900 907 905
f 900 959 907
f 896 904 893
f 904 896 902
f 901 893 904
f 896 897 903
f 942 934 899
f 902 896 903
f 903 897 926
f 898 894 905
f 894 901 906
f 905 894 906
f 899 898 907
f 942 899 951
f 907 898 905
f 951 899 907
f 895 893 901
f 894 895 901
f 889 908 890
f 889 896 886
f 889 885 908
f 885 950 900
f 885 889 886
f 885 886 888
f 891 885 887
f 887 885 888
f 892 885 891
f 934 885 892
f 935 885 934
f 936 885 935
f 888 886 893
f 887 888 895
f 890 908 909
f 889 890 897
f 890 909 917
f 891 887 894
f 892 891 898
f 934 892 899
f 894 887 895
f 895 888 893
f 896 889 897
f 893 886 896
f 897 890 917
f 898 891 894
f 899 892 898
f 929 920 921
f 925 926 927
f 925 927 928
f 925 928 929
f 925 929 930
f 931 925 930
f 926 917 918
f 919 927 918
f 926 918 927
f 927 919 928
f 919 920 929
f 928 919 929
f 929 921 930
f 925 903 926
f 922 930 921
f 923 931 922
f 930 922 931
f 931 923 932
f 923 924 933
f 924 969 979
f 932 923 933
f 933 924 979
f 932 925 931
f 933 925 932
f 979 925 933
f 980 925 979
f 915 916 924
f 909 908 910
f 910 908 911
f 911 908 912
f 912 908 913
f 908 914 913
f 908 915 914
f 909 910 918
f 910 911 919
f 911 912 920
f 912 913 921
f 913 914 922
f 914 915 923
f 950 885 936
f 916 960 969
f 917 909 918
f 918 910 919
f 919 911 920
f 920 912 921
f 921 913 922
f 922 914 923
f 923 915 924
f 924 916 969
f 908 978 915
f 988 908 925

