ISO-10303-21;
HEADER;
FILE_DESCRIPTION (( 'STEP AP214' ),
    '1' );
FILE_NAME ('base.STEP',
    '2026-10-05T18:52:43',
    ( '' ),
    ( '' ),
    'SwSTEP 2.0',
    'SolidWorks 2025',
    '' );
FILE_SCHEMA (( 'AUTOMOTIVE_DESIGN' ));
ENDSEC;

DATA;
#1 = CARTESIAN_POINT ( 'NONE',  ( 77.37500000000000000, 34.75000000000000000, 13.00000000000000000 ) ) ;
#2 = ORIENTED_EDGE ( 'NONE', *, *, #428, .F. ) ;
#3 = CARTESIAN_POINT ( 'NONE',  ( 117.2500000000000000, 27.25000000000000000, 15.00000000000000000 ) ) ;
#4 = ADVANCED_FACE ( 'NONE', ( #858 ), #389, .T. ) ;
#5 = CYLINDRICAL_SURFACE ( 'NONE', #85, 2.000000000000000000 ) ;
#6 = VECTOR ( 'NONE', #223, 1000.000000000000000 ) ;
#7 = CARTESIAN_POINT ( 'NONE',  ( 89.16421356237310647, 25.83578643762690419, 14.41421356237309936 ) ) ;
#8 = VERTEX_POINT ( 'NONE', #476 ) ;
#9 = CARTESIAN_POINT ( 'NONE',  ( 115.8357864376270072, 25.83578643762690419, 14.41421356237309936 ) ) ;
#10 = EDGE_CURVE ( 'NONE', #436, #638, #951, .T. ) ;
#11 = DIRECTION ( 'NONE',  ( 1.000000000000000000, 0.000000000000000000, 0.000000000000000000 ) ) ;
#12 = DIRECTION ( 'NONE',  ( 0.000000000000000000, -0.7071067811865484609, 0.7071067811865467956 ) ) ;
#13 = AXIS2_PLACEMENT_3D ( 'NONE', #590, #35, #343 ) ;
#14 = ORIENTED_EDGE ( 'NONE', *, *, #71, .F. ) ;
#15 = CARTESIAN_POINT ( 'NONE',  ( 68.25000000000000000, 60.00000000000000000, 20.00000000000000000 ) ) ;
#16 = CARTESIAN_POINT ( 'NONE',  ( 140.0000000000000000, 60.00000000000000000, 0.000000000000000000 ) ) ;
#17 = EDGE_CURVE ( 'NONE', #8, #909, #854, .T. ) ;
#18 = CARTESIAN_POINT ( 'NONE',  ( 115.2500000000000000, 32.37500000000000000, 8.000000000000000000 ) ) ;
#19 = CIRCLE ( 'NONE', #839, 13.24999999999999822 ) ;
#20 = ORIENTED_EDGE ( 'NONE', *, *, #17, .F. ) ;
#21 = CARTESIAN_POINT ( 'NONE',  ( 117.2500000000000000, 32.37500000000000000, 13.00000000000000000 ) ) ;
#22 = DIRECTION ( 'NONE',  ( 0.000000000000000000, 0.000000000000000000, 1.000000000000000000 ) ) ;
#23 = ORIENTED_EDGE ( 'NONE', *, *, #463, .T. ) ;
#24 = DIRECTION ( 'NONE',  ( 0.000000000000000000, -1.000000000000000000, 0.000000000000000000 ) ) ;
#25 = CARTESIAN_POINT ( 'NONE',  ( 90.12500000000000000, 27.25000000000000000, 13.00000000000000000 ) ) ;
#26 = EDGE_CURVE ( 'NONE', #122, #873, #378, .T. ) ;
#27 = ORIENTED_EDGE ( 'NONE', *, *, #727, .T. ) ;
#28 = CARTESIAN_POINT ( 'NONE',  ( 122.7500000000000000, 27.25000000000000000, 15.00000000000000000 ) ) ;
#29 = CARTESIAN_POINT ( 'NONE',  ( 124.1642135623729928, 34.16421356237309936, 14.41421356237309936 ) ) ;
#30 = ORIENTED_EDGE ( 'NONE', *, *, #693, .F. ) ;
#31 = CARTESIAN_POINT ( 'NONE',  ( 94.87500000000000000, 32.75000000000000000, 13.00000000000000000 ) ) ;
#32 = ORIENTED_EDGE ( 'NONE', *, *, #463, .F. ) ;
#33 = DIRECTION ( 'NONE',  ( 0.000000000000000000, -1.000000000000000000, 0.000000000000000000 ) ) ;
#34 = CARTESIAN_POINT ( 'NONE',  ( 68.25000000000000000, 0.000000000000000000, -90.87388238652511063 ) ) ;
#35 = DIRECTION ( 'NONE',  ( 0.000000000000000000, 0.000000000000000000, -1.000000000000000000 ) ) ;
#36 = CARTESIAN_POINT ( 'NONE',  ( 90.12500000000000000, 27.25000000000000000, 13.00000000000000000 ) ) ;
#37 = VERTEX_POINT ( 'NONE', #550 ) ;
#38 = VECTOR ( 'NONE', #495, 1000.000000000000000 ) ;
#39 = DIRECTION ( 'NONE',  ( 0.000000000000000000, 1.000000000000000000, 0.000000000000000000 ) ) ;
#40 = EDGE_CURVE ( 'NONE', #46, #182, #797, .T. ) ;
#41 = CARTESIAN_POINT ( 'NONE',  ( 117.2500000000000000, 32.75000000000000000, 15.00000000000000000 ) ) ;
#42 = VECTOR ( 'NONE', #568, 1000.000000000000000 ) ;
#43 = ORIENTED_EDGE ( 'NONE', *, *, #88, .T. ) ;
#44 = DIRECTION ( 'NONE',  ( 0.000000000000000000, -1.000000000000000000, 0.000000000000000000 ) ) ;
#45 = CARTESIAN_POINT ( 'NONE',  ( 80.25000000000000000, 34.75000000000000000, 8.000000000000000000 ) ) ;
#46 = VERTEX_POINT ( 'NONE', #719 ) ;
#47 = CARTESIAN_POINT ( 'NONE',  ( 77.37500000000000000, 32.75000000000000000, 13.00000000000000000 ) ) ;
#48 = VERTEX_POINT ( 'NONE', #302 ) ;
#49 = VECTOR ( 'NONE', #330, 1000.000000000000000 ) ;
#50 = ORIENTED_EDGE ( 'NONE', *, *, #583, .F. ) ;
#51 = CARTESIAN_POINT ( 'NONE',  ( 65.00000000000000000, 30.00000000000000000, 15.00000000000000000 ) ) ;
#52 = SURFACE_STYLE_FILL_AREA ( #776 ) ;
#53 = EDGE_CURVE ( 'NONE', #909, #182, #153, .T. ) ;
#54 = AXIS2_PLACEMENT_3D ( 'NONE', #582, #746, #910 ) ;
#55 = ORIENTED_EDGE ( 'NONE', *, *, #117, .T. ) ;
#56 = ADVANCED_FACE ( 'NONE', ( #622 ), #1013, .F. ) ;
#57 = FACE_OUTER_BOUND ( 'NONE', #611, .T. ) ;
#58 = ORIENTED_EDGE ( 'NONE', *, *, #313, .F. ) ;
#59 = DIRECTION ( 'NONE',  ( 1.000000000000000000, 0.000000000000000000, 0.000000000000000000 ) ) ;
#60 = DIRECTION ( 'NONE',  ( -1.000000000000000000, 0.000000000000000000, 0.000000000000000000 ) ) ;
#61 = EDGE_CURVE ( 'NONE', #499, #144, #933, .T. ) ;
#62 =( GEOMETRIC_REPRESENTATION_CONTEXT ( 3 ) GLOBAL_UNCERTAINTY_ASSIGNED_CONTEXT ( ( #324 ) ) GLOBAL_UNIT_ASSIGNED_CONTEXT ( ( #337, #162, #879 ) ) REPRESENTATION_CONTEXT ( 'NONE', 'WORKASPACE' ) );
#63 = CARTESIAN_POINT ( 'NONE',  ( 68.25000000000000000, 0.000000000000000000, 20.00000000000000000 ) ) ;
#64 = ORIENTED_EDGE ( 'NONE', *, *, #17, .T. ) ;
#65 = PRODUCT ( 'base', 'base', '', ( #511 ) ) ;
#66 = AXIS2_PLACEMENT_3D ( 'NONE', #426, #368, #120 ) ;
#67 = DIRECTION ( 'NONE',  ( 0.000000000000000000, 1.000000000000000000, 0.000000000000000000 ) ) ;
#68 =( BOUNDED_CURVE ( )  B_SPLINE_CURVE ( 3, ( #28, #675, #523, #838 ),
 .UNSPECIFIED., .F., .T. ) 
 B_SPLINE_CURVE_WITH_KNOTS ( ( 4, 4 ),
 ( 4.712388980384689674, 5.497787143782129959 ),
 .UNSPECIFIED. ) 
 CURVE ( )  GEOMETRIC_REPRESENTATION_ITEM ( )  RATIONAL_B_SPLINE_CURVE ( ( 1.000000000000000000, 0.9492530216741920102, 0.9492530216741920102, 1.000000000000000000 ) ) 
 REPRESENTATION_ITEM ( '' )  );
#69 = VERTEX_POINT ( 'NONE', #556 ) ;
#70 = VECTOR ( 'NONE', #386, 1000.000000000000000 ) ;
#71 = EDGE_CURVE ( 'NONE', #505, #48, #19, .T. ) ;
#72 = DIRECTION ( 'NONE',  ( 0.000000000000000000, 0.000000000000000000, 1.000000000000000000 ) ) ;
#73 = CARTESIAN_POINT ( 'NONE',  ( 120.0000000000000000, 30.00000000000000000, 20.00000000000000000 ) ) ;
#74 = VERTEX_POINT ( 'NONE', #876 ) ;
#75 = AXIS2_PLACEMENT_3D ( 'NONE', #872, #327, #739 ) ;
#76 = DIRECTION ( 'NONE',  ( 1.000000000000000000, 0.000000000000000000, 0.000000000000000000 ) ) ;
#77 = ORIENTED_EDGE ( 'NONE', *, *, #116, .T. ) ;
#78 = ORIENTED_EDGE ( 'NONE', *, *, #902, .T. ) ;
#79 = VECTOR ( 'NONE', #84, 1000.000000000000000 ) ;
#80 = CARTESIAN_POINT ( 'NONE',  ( 117.6250000000000000, 25.25000000000000000, 8.000000000000000000 ) ) ;
#81 = LINE ( 'NONE', #1, #661 ) ;
#82 = EDGE_CURVE ( 'NONE', #477, #434, #966, .T. ) ;
#83 = ORIENTED_EDGE ( 'NONE', *, *, #983, .T. ) ;
#84 = DIRECTION ( 'NONE',  ( 0.000000000000000000, 0.000000000000000000, -1.000000000000000000 ) ) ;
#85 = AXIS2_PLACEMENT_3D ( 'NONE', #562, #11, #884 ) ;
#86 = FACE_OUTER_BOUND ( 'NONE', #558, .T. ) ;
#87 = ORIENTED_EDGE ( 'NONE', *, *, #392, .F. ) ;
#88 = EDGE_CURVE ( 'NONE', #930, #499, #181, .T. ) ;
#89 = LINE ( 'NONE', #800, #850 ) ;
#90 = CYLINDRICAL_SURFACE ( 'NONE', #762, 2.000000000000000000 ) ;
#91 = ORIENTED_EDGE ( 'NONE', *, *, #442, .T. ) ;
#92 = DIRECTION ( 'NONE',  ( 0.000000000000000000, 1.000000000000000000, 0.000000000000000000 ) ) ;
#93 = EDGE_CURVE ( 'NONE', #355, #172, #641, .T. ) ;
#94 = CYLINDRICAL_SURFACE ( 'NONE', #401, 2.000000000000000000 ) ;
#95 = DIRECTION ( 'NONE',  ( -1.000000000000000000, 0.000000000000000000, 0.000000000000000000 ) ) ;
#96 = VECTOR ( 'NONE', #276, 1000.000000000000000 ) ;
#97 = ORIENTED_EDGE ( 'NONE', *, *, #616, .T. ) ;
#98 = CARTESIAN_POINT ( 'NONE',  ( 120.0000000000000000, 30.00000000000000000, 8.000000000000000000 ) ) ;
#99 = DIRECTION ( 'NONE',  ( 0.000000000000000000, 0.000000000000000000, 1.000000000000000000 ) ) ;
#100 = EDGE_CURVE ( 'NONE', #973, #355, #485, .T. ) ;
#101 = FACE_OUTER_BOUND ( 'NONE', #792, .T. ) ;
#102 = CARTESIAN_POINT ( 'NONE',  ( 115.4557008420486142, 25.45570084204869943, 14.03412796679485375 ) ) ;
#103 = VECTOR ( 'NONE', #654, 1000.000000000000000 ) ;
#104 = ORIENTED_EDGE ( 'NONE', *, *, #928, .F. ) ;
#105 = DIRECTION ( 'NONE',  ( 0.000000000000000000, 0.000000000000000000, 1.000000000000000000 ) ) ;
#106 = LINE ( 'NONE', #34, #254 ) ;
#107 = ORIENTED_EDGE ( 'NONE', *, *, #616, .F. ) ;
#108 = LINE ( 'NONE', #829, #683 ) ;
#109 = ORIENTED_EDGE ( 'NONE', *, *, #813, .T. ) ;
#110 = LINE ( 'NONE', #268, #184 ) ;
#111 = CARTESIAN_POINT ( 'NONE',  ( 124.5442991579512011, 34.54429915795132189, 14.03412796679486618 ) ) ;
#112 = DIRECTION ( 'NONE',  ( -1.000000000000000000, 0.000000000000000000, 0.000000000000000000 ) ) ;
#113 = DIRECTION ( 'NONE',  ( -1.000000000000000000, 0.000000000000000000, 0.000000000000000000 ) ) ;
#114 = APPLICATION_CONTEXT ( 'automotive_design' ) ;
#115 = ORIENTED_EDGE ( 'NONE', *, *, #467, .T. ) ;
#116 = EDGE_CURVE ( 'NONE', #242, #261, #251, .T. ) ;
#117 = EDGE_CURVE ( 'NONE', #398, #575, #421, .T. ) ;
#118 = CARTESIAN_POINT ( 'NONE',  ( 103.5000000000000000, 30.00000000000000000, 8.000000000000000000 ) ) ;
#119 = ORIENTED_EDGE ( 'NONE', *, *, #226, .T. ) ;
#120 = DIRECTION ( 'NONE',  ( 1.000000000000000000, 0.000000000000000000, 0.000000000000000000 ) ) ;
#121 = DIRECTION ( 'NONE',  ( 0.000000000000000000, 1.000000000000000000, 0.000000000000000000 ) ) ;
#122 = VERTEX_POINT ( 'NONE', #491 ) ;
#123 = AXIS2_PLACEMENT_3D ( 'NONE', #573, #411, #642 ) ;
#124 = DIRECTION ( 'NONE',  ( -1.000000000000000000, 0.000000000000000000, 0.000000000000000000 ) ) ;
#125 = ORIENTED_EDGE ( 'NONE', *, *, #1018, .T. ) ;
#126 = CARTESIAN_POINT ( 'NONE',  ( 89.75000000000000000, 34.75000000000000000, 13.00000000000000000 ) ) ;
#127 = DIRECTION ( 'NONE',  ( 0.000000000000000000, -1.000000000000000000, 0.000000000000000000 ) ) ;
#128 = VECTOR ( 'NONE', #480, 1000.000000000000000 ) ;
#129 = VERTEX_POINT ( 'NONE', #810 ) ;
#130 = CYLINDRICAL_SURFACE ( 'NONE', #410, 2.000000000000000000 ) ;
#131 = ORIENTED_EDGE ( 'NONE', *, *, #640, .F. ) ;
#132 = CARTESIAN_POINT ( 'NONE',  ( 115.2500000000000000, 34.75000000000000000, 8.000000000000000000 ) ) ;
#133 = CARTESIAN_POINT ( 'NONE',  ( 68.25000000000000000, 1.578598363138895087E-14, 20.00000000000000000 ) ) ;
#134 = ORIENTED_EDGE ( 'NONE', *, *, #487, .F. ) ;
#135 = VECTOR ( 'NONE', #937, 1000.000000000000000 ) ;
#136 = CARTESIAN_POINT ( 'NONE',  ( 77.37500000000000000, 32.75000000000000000, 13.00000000000000000 ) ) ;
#137 = ORIENTED_EDGE ( 'NONE', *, *, #608, .F. ) ;
#138 = CARTESIAN_POINT ( 'NONE',  ( 124.1642135623729928, 27.62500000000000000, 14.41421356237309936 ) ) ;
#139 = EDGE_CURVE ( 'NONE', #656, #973, #249, .T. ) ;
#140 = ORIENTED_EDGE ( 'NONE', *, *, #346, .F. ) ;
#141 = CARTESIAN_POINT ( 'NONE',  ( 0.000000000000000000, 0.000000000000000000, 0.000000000000000000 ) ) ;
#142 = DIRECTION ( 'NONE',  ( -1.000000000000000000, 0.000000000000000000, 0.000000000000000000 ) ) ;
#143 =( BOUNDED_CURVE ( )  B_SPLINE_CURVE ( 3, ( #706, #446, #771, #615 ),
 .UNSPECIFIED., .F., .F. ) 
 B_SPLINE_CURVE_WITH_KNOTS ( ( 4, 4 ),
 ( 5.497787143782129959, 6.283185307179590673 ),
 .UNSPECIFIED. ) 
 CURVE ( )  GEOMETRIC_REPRESENTATION_ITEM ( )  RATIONAL_B_SPLINE_CURVE ( ( 1.000000000000000000, 0.9492530216741900118, 0.9492530216741900118, 1.000000000000000000 ) ) 
 REPRESENTATION_ITEM ( '' )  );
#144 = VERTEX_POINT ( 'NONE', #733 ) ;
#145 = CARTESIAN_POINT ( 'NONE',  ( 124.7500000000000000, 25.25000000000000000, 8.000000000000000000 ) ) ;
#146 = LINE ( 'NONE', #932, #482 ) ;
#147 = ORIENTED_EDGE ( 'NONE', *, *, #801, .F. ) ;
#148 = EDGE_CURVE ( 'NONE', #434, #477, #657, .T. ) ;
#149 = CARTESIAN_POINT ( 'NONE',  ( 115.2500000000000000, 34.75000000000000000, 13.00000000000000000 ) ) ;
#150 = VECTOR ( 'NONE', #44, 1000.000000000000000 ) ;
#151 = DIRECTION ( 'NONE',  ( 0.000000000000000000, 1.000000000000000000, 0.000000000000000000 ) ) ;
#152 = PRODUCT_DEFINITION ( 'UNKNOWN', '', #571, #612 ) ;
#153 = LINE ( 'NONE', #382, #790 ) ;
#154 = VERTEX_POINT ( 'NONE', #7 ) ;
#155 = CARTESIAN_POINT ( 'NONE',  ( 85.00000000000000000, 30.00000000000000000, 20.00000000000000000 ) ) ;
#156 = AXIS2_PLACEMENT_3D ( 'NONE', #807, #725, #338 ) ;
#157 = DIRECTION ( 'NONE',  ( 1.000000000000000000, 0.000000000000000000, 0.000000000000000000 ) ) ;
#158 = EDGE_LOOP ( 'NONE', ( #379, #705, #50, #761 ) ) ;
#159 = ORIENTED_EDGE ( 'NONE', *, *, #226, .F. ) ;
#160 = CARTESIAN_POINT ( 'NONE',  ( 89.16421356237310647, 25.83578643762690419, 14.41421356237309936 ) ) ;
#161 = CARTESIAN_POINT ( 'NONE',  ( 124.1642135623729928, 34.16421356237309936, 14.41421356237309936 ) ) ;
#162 =( NAMED_UNIT ( * ) PLANE_ANGLE_UNIT ( ) SI_UNIT ( $, .RADIAN. ) );
#163 = ADVANCED_FACE ( 'NONE', ( #416 ), #90, .T. ) ;
#164 = CARTESIAN_POINT ( 'NONE',  ( 68.25000000000000000, 60.00000000000000000, 0.000000000000000000 ) ) ;
#165 = ORIENTED_EDGE ( 'NONE', *, *, #727, .F. ) ;
#166 = CARTESIAN_POINT ( 'NONE',  ( 90.12500000000000000, 25.25000000000000000, 13.00000000000000000 ) ) ;
#167 = CARTESIAN_POINT ( 'NONE',  ( 85.00000000000000000, 30.00000000000000000, 20.00000000000000000 ) ) ;
#168 = ORIENTED_EDGE ( 'NONE', *, *, #256, .F. ) ;
#169 = DIRECTION ( 'NONE',  ( 0.7071067811865449082, 0.000000000000000000, 0.7071067811865501263 ) ) ;
#170 = CARTESIAN_POINT ( 'NONE',  ( 123.7841279667946992, 33.78412796679490526, 14.79429915795130945 ) ) ;
#171 = CARTESIAN_POINT ( 'NONE',  ( 124.7500000000000000, 25.25000000000000000, 8.000000000000000000 ) ) ;
#172 = VERTEX_POINT ( 'NONE', #667 ) ;
#173 = AXIS2_PLACEMENT_3D ( 'NONE', #600, #529, #1005 ) ;
#174 = CARTESIAN_POINT ( 'NONE',  ( 115.2500000000000000, 25.25000000000000000, 8.000000000000000000 ) ) ;
#175 = DIRECTION ( 'NONE',  ( 0.000000000000000000, 1.000000000000000000, 0.000000000000000000 ) ) ;
#176 = ORIENTED_EDGE ( 'NONE', *, *, #785, .F. ) ;
#177 = DIRECTION ( 'NONE',  ( -0.7071067811865449082, 0.000000000000000000, 0.7071067811865501263 ) ) ;
#178 = ADVANCED_FACE ( 'NONE', ( #86 ), #979, .F. ) ;
#179 = EDGE_LOOP ( 'NONE', ( #308, #137, #58, #703 ) ) ;
#180 = VECTOR ( 'NONE', #459, 1000.000000000000000 ) ;
#181 = LINE ( 'NONE', #660, #103 ) ;
#182 = VERTEX_POINT ( 'NONE', #164 ) ;
#183 = CARTESIAN_POINT ( 'NONE',  ( 140.0000000000000000, 0.000000000000000000, 0.000000000000000000 ) ) ;
#184 = VECTOR ( 'NONE', #834, 1000.000000000000000 ) ;
#185 = FACE_OUTER_BOUND ( 'NONE', #883, .T. ) ;
#186 = PLANE ( 'NONE',  #315 ) ;
#187 = DIRECTION ( 'NONE',  ( 1.000000000000000000, 0.000000000000000000, 0.000000000000000000 ) ) ;
#188 = EDGE_LOOP ( 'NONE', ( #241, #364 ) ) ;
#189 = DIRECTION ( 'NONE',  ( 0.000000000000000000, 1.000000000000000000, 0.000000000000000000 ) ) ;
#190 = CARTESIAN_POINT ( 'NONE',  ( 0.000000000000000000, 0.000000000000000000, 0.000000000000000000 ) ) ;
#191 = ORIENTED_EDGE ( 'NONE', *, *, #983, .F. ) ;
#192 = EDGE_CURVE ( 'NONE', #536, #770, #412, .T. ) ;
#193 = FACE_OUTER_BOUND ( 'NONE', #798, .T. ) ;
#194 = EDGE_CURVE ( 'NONE', #770, #1029, #81, .T. ) ;
#195 = VECTOR ( 'NONE', #646, 1000.000000000000000 ) ;
#196 = EDGE_LOOP ( 'NONE', ( #263, #779, #272, #43 ) ) ;
#197 = CARTESIAN_POINT ( 'NONE',  ( 124.7500000000000000, 25.25000000000000000, 8.000000000000000000 ) ) ;
#198 = DIRECTION ( 'NONE',  ( 1.000000000000000000, 0.000000000000000000, 0.000000000000000000 ) ) ;
#199 = CYLINDRICAL_SURFACE ( 'NONE', #885, 2.000000000000000444 ) ;
#200 = ADVANCED_FACE ( 'NONE', ( #333 ), #403, .F. ) ;
#201 = ORIENTED_EDGE ( 'NONE', *, *, #467, .F. ) ;
#202 = CARTESIAN_POINT ( 'NONE',  ( 89.75000000000000000, 34.75000000000000000, 8.000000000000000000 ) ) ;
#203 = DIRECTION ( 'NONE',  ( 0.000000000000000000, -1.000000000000000000, 0.000000000000000000 ) ) ;
#204 = CARTESIAN_POINT ( 'NONE',  ( 140.0000000000000000, 0.000000000000000000, 0.000000000000000000 ) ) ;
#205 = DIRECTION ( 'NONE',  ( 0.000000000000000000, 0.000000000000000000, -1.000000000000000000 ) ) ;
#206 = CARTESIAN_POINT ( 'NONE',  ( 124.7500000000000000, 34.75000000000000000, 8.000000000000000000 ) ) ;
#207 = AXIS2_PLACEMENT_3D ( 'NONE', #938, #229, #60 ) ;
#208 = ORIENTED_EDGE ( 'NONE', *, *, #53, .F. ) ;
#209 = EDGE_CURVE ( 'NONE', #69, #460, #781, .T. ) ;
#210 = ORIENTED_EDGE ( 'NONE', *, *, #721, .T. ) ;
#211 = CARTESIAN_POINT ( 'NONE',  ( 120.0000000000000000, 30.00000000000000000, 20.00000000000000000 ) ) ;
#212 = DIRECTION ( 'NONE',  ( -0.000000000000000000, 1.000000000000000000, 0.000000000000000000 ) ) ;
#213 = AXIS2_PLACEMENT_3D ( 'NONE', #206, #212, #847 ) ;
#214 = EDGE_LOOP ( 'NONE', ( #248, #317, #842, #694 ) ) ;
#215 = EDGE_CURVE ( 'NONE', #674, #294, #961, .T. ) ;
#216 = EDGE_LOOP ( 'NONE', ( #852, #83, #715, #726 ) ) ;
#217 = CARTESIAN_POINT ( 'NONE',  ( 87.75000000000000000, 27.25000000000000000, 15.00000000000000000 ) ) ;
#218 = DIRECTION ( 'NONE',  ( -1.000000000000000000, 0.000000000000000000, 0.000000000000000000 ) ) ;
#219 = ORIENTED_EDGE ( 'NONE', *, *, #801, .T. ) ;
#220 = VECTOR ( 'NONE', #538, 1000.000000000000000 ) ;
#221 = CARTESIAN_POINT ( 'NONE',  ( 88.78412796679488395, 33.78412796679490526, 14.79429915795130945 ) ) ;
#222 = EDGE_LOOP ( 'NONE', ( #889, #14, #957, #665 ) ) ;
#223 = DIRECTION ( 'NONE',  ( 1.000000000000000000, 0.000000000000000000, 0.000000000000000000 ) ) ;
#224 = DIRECTION ( 'NONE',  ( 1.000000000000000000, 0.000000000000000000, 0.000000000000000000 ) ) ;
#225 = DIRECTION ( 'NONE',  ( 1.000000000000000000, 0.000000000000000000, 0.000000000000000000 ) ) ;
#226 = EDGE_CURVE ( 'NONE', #144, #904, #987, .T. ) ;
#227 = AXIS2_PLACEMENT_3D ( 'NONE', #723, #92, #169 ) ;
#228 = FACE_OUTER_BOUND ( 'NONE', #952, .T. ) ;
#229 = DIRECTION ( 'NONE',  ( 0.000000000000000000, 0.000000000000000000, -1.000000000000000000 ) ) ;
#230 = EDGE_LOOP ( 'NONE', ( #915, #78, #97, #345 ) ) ;
#231 = CARTESIAN_POINT ( 'NONE',  ( 103.5000000000000000, 30.00000000000000000, 20.00000000000000000 ) ) ;
#232 = AXIS2_PLACEMENT_3D ( 'NONE', #757, #335, #658 ) ;
#233 = CARTESIAN_POINT ( 'NONE',  ( 81.21587203320505921, 33.78412796679486263, 14.79429915795131301 ) ) ;
#234 = ORIENTED_EDGE ( 'NONE', *, *, #139, .T. ) ;
#235 = AXIS2_PLACEMENT_3D ( 'NONE', #197, #435, #189 ) ;
#236 = EDGE_LOOP ( 'NONE', ( #64, #603, #892, #722 ) ) ;
#237 = CYLINDRICAL_SURFACE ( 'NONE', #503, 2.000000000000000000 ) ;
#238 = VECTOR ( 'NONE', #862, 1000.000000000000000 ) ;
#239 = ADVANCED_FACE ( 'NONE', ( #586 ), #691, .T. ) ;
#240 = LINE ( 'NONE', #166, #539 ) ;
#241 = ORIENTED_EDGE ( 'NONE', *, *, #595, .F. ) ;
#242 = VERTEX_POINT ( 'NONE', #533 ) ;
#243 = CYLINDRICAL_SURFACE ( 'NONE', #955, 2.000000000000000444 ) ;
#244 = AXIS2_PLACEMENT_3D ( 'NONE', #204, #525, #448 ) ;
#245 = ADVANCED_FACE ( 'NONE', ( #760 ), #594, .T. ) ;
#246 = CARTESIAN_POINT ( 'NONE',  ( 82.25000000000000000, 27.25000000000000000, 15.00000000000000000 ) ) ;
#247 = CARTESIAN_POINT ( 'NONE',  ( 82.62500000000000000, 25.25000000000000000, 8.000000000000000000 ) ) ;
#248 = ORIENTED_EDGE ( 'NONE', *, *, #870, .F. ) ;
#249 =( BOUNDED_CURVE ( )  B_SPLINE_CURVE ( 3, ( #565, #972, #729, #890 ),
 .UNSPECIFIED., .F., .F. ) 
 B_SPLINE_CURVE_WITH_KNOTS ( ( 4, 4 ),
 ( 4.712388980384689674, 5.497787143782129959 ),
 .UNSPECIFIED. ) 
 CURVE ( )  GEOMETRIC_REPRESENTATION_ITEM ( )  RATIONAL_B_SPLINE_CURVE ( ( 1.000000000000000000, 0.9492530216741920102, 0.9492530216741920102, 1.000000000000000000 ) ) 
 REPRESENTATION_ITEM ( '' )  );
#250 = CARTESIAN_POINT ( 'NONE',  ( 80.45570084204861416, 34.54429915795132189, 14.03412796679486618 ) ) ;
#251 = LINE ( 'NONE', #820, #526 ) ;
#252 = EDGE_LOOP ( 'NONE', ( #899, #208, #20, #87 ) ) ;
#253 = CARTESIAN_POINT ( 'NONE',  ( 123.2875222041292318, 33.28752220412938101, 14.99999999999999467 ) ) ;
#254 = VECTOR ( 'NONE', #682, 1000.000000000000000 ) ;
#255 = CARTESIAN_POINT ( 'NONE',  ( 115.2500000000000000, 25.25000000000000000, 13.00000000000000000 ) ) ;
#256 = EDGE_CURVE ( 'NONE', #261, #560, #831, .T. ) ;
#257 = ORIENTED_EDGE ( 'NONE', *, *, #608, .T. ) ;
#258 = FACE_OUTER_BOUND ( 'NONE', #587, .T. ) ;
#259 = STYLED_ITEM ( 'NONE', ( #1010 ), #295 ) ;
#260 = DIRECTION ( 'NONE',  ( 0.000000000000000000, 0.000000000000000000, -1.000000000000000000 ) ) ;
#261 = VERTEX_POINT ( 'NONE', #433 ) ;
#262 = CARTESIAN_POINT ( 'NONE',  ( 124.7500000000000000, 25.25000000000000000, 13.00000000000000000 ) ) ;
#263 = ORIENTED_EDGE ( 'NONE', *, *, #826, .T. ) ;
#264 = AXIS2_PLACEMENT_3D ( 'NONE', #51, #376, #59 ) ;
#265 = FACE_BOUND ( 'NONE', #342, .T. ) ;
#266 = DIRECTION ( 'NONE',  ( 1.000000000000000000, 0.000000000000000000, 0.000000000000000000 ) ) ;
#267 = ORIENTED_EDGE ( 'NONE', *, *, #796, .T. ) ;
#268 = CARTESIAN_POINT ( 'NONE',  ( 68.25000000000000000, 60.00000000000000000, -90.87388238652511063 ) ) ;
#269 = EDGE_CURVE ( 'NONE', #560, #765, #363, .T. ) ;
#270 = DIRECTION ( 'NONE',  ( 0.000000000000000000, -1.000000000000000000, 0.000000000000000000 ) ) ;
#271 = CARTESIAN_POINT ( 'NONE',  ( 80.83578643762689353, 25.83578643762690419, 14.41421356237309936 ) ) ;
#272 = ORIENTED_EDGE ( 'NONE', *, *, #684, .F. ) ;
#273 = DIRECTION ( 'NONE',  ( 1.000000000000000000, 0.000000000000000000, 0.000000000000000000 ) ) ;
#274 = APPLICATION_PROTOCOL_DEFINITION ( 'draft international standard', 'automotive_design', 1998, #535 ) ;
#275 = ADVANCED_FACE ( 'NONE', ( #755 ), #836, .T. ) ;
#276 = DIRECTION ( 'NONE',  ( 0.000000000000000000, 0.000000000000000000, 1.000000000000000000 ) ) ;
#277 = SURFACE_STYLE_USAGE ( .BOTH. , #377 ) ;
#278 = ORIENTED_EDGE ( 'NONE', *, *, #844, .T. ) ;
#279 = PLANE ( 'NONE',  #235 ) ;
#280 = SHAPE_DEFINITION_REPRESENTATION ( #934, #281 ) ;
#281 = ADVANCED_BREP_SHAPE_REPRESENTATION ( 'base', ( #295, #931 ), #840 ) ;
#282 = CARTESIAN_POINT ( 'NONE',  ( 72.62500000000000000, 25.25000000000000000, 13.00000000000000000 ) ) ;
#283 = ADVANCED_FACE ( 'NONE', ( #288 ), #606, .T. ) ;
#284 = ORIENTED_EDGE ( 'NONE', *, *, #895, .F. ) ;
#285 = ORIENTED_EDGE ( 'NONE', *, *, #569, .F. ) ;
#286 = CARTESIAN_POINT ( 'NONE',  ( 72.62500000000000000, 25.83578643762690419, 14.41421356237309936 ) ) ;
#287 = CARTESIAN_POINT ( 'NONE',  ( 80.83578643762689353, 25.83578643762690419, 14.41421356237309936 ) ) ;
#288 = FACE_OUTER_BOUND ( 'NONE', #701, .T. ) ;
#289 = AXIS2_PLACEMENT_3D ( 'NONE', #344, #260, #744 ) ;
#290 = ORIENTED_EDGE ( 'NONE', *, *, #148, .T. ) ;
#291 = ADVANCED_FACE ( 'NONE', ( #992 ), #199, .T. ) ;
#292 = EDGE_LOOP ( 'NONE', ( #784, #497, #370, #481 ) ) ;
#293 = CARTESIAN_POINT ( 'NONE',  ( 117.2500000000000000, 32.37500000000000000, 15.00000000000000000 ) ) ;
#294 = VERTEX_POINT ( 'NONE', #438 ) ;
#295 = MANIFOLD_SOLID_BREP ( 'NONE', #419 ) ;
#296 = LINE ( 'NONE', #479, #891 ) ;
#297 = CARTESIAN_POINT ( 'NONE',  ( 77.37500000000000000, 32.75000000000000000, 15.00000000000000000 ) ) ;
#298 =( BOUNDED_CURVE ( )  B_SPLINE_CURVE ( 3, ( #617, #929, #221, #718 ),
 .UNSPECIFIED., .F., .T. ) 
 B_SPLINE_CURVE_WITH_KNOTS ( ( 4, 4 ),
 ( 4.712388980384689674, 5.497787143782139729 ),
 .UNSPECIFIED. ) 
 CURVE ( )  GEOMETRIC_REPRESENTATION_ITEM ( )  RATIONAL_B_SPLINE_CURVE ( ( 1.000000000000000000, 0.9492530216741910110, 0.9492530216741910110, 1.000000000000000000 ) ) 
 REPRESENTATION_ITEM ( '' )  );
#299 = CARTESIAN_POINT ( 'NONE',  ( 115.2499999999999858, 34.75000000000004974, 13.53752220412938456 ) ) ;
#300 = EDGE_CURVE ( 'NONE', #638, #154, #326, .T. ) ;
#301 = PLANE ( 'NONE',  #632 ) ;
#302 = CARTESIAN_POINT ( 'NONE',  ( 98.25000000000000000, 30.00000000000000000, 20.00000000000000000 ) ) ;
#303 = PRODUCT_RELATED_PRODUCT_CATEGORY ( 'part', '', ( #65 ) ) ;
#304 = AXIS2_PLACEMENT_3D ( 'NONE', #524, #597, #341 ) ;
#305 = CARTESIAN_POINT ( 'NONE',  ( 117.2500000000000000, 27.25000000000000000, 15.00000000000000000 ) ) ;
#306 = CARTESIAN_POINT ( 'NONE',  ( 98.25000000000000000, 30.00000000000000000, 20.00000000000000000 ) ) ;
#307 = VECTOR ( 'NONE', #519, 1000.000000000000000 ) ;
#308 = ORIENTED_EDGE ( 'NONE', *, *, #855, .F. ) ;
#309 = ORIENTED_EDGE ( 'NONE', *, *, #117, .F. ) ;
#310 = DIRECTION ( 'NONE',  ( 0.000000000000000000, 0.7071067811865484609, 0.7071067811865467956 ) ) ;
#311 = CARTESIAN_POINT ( 'NONE',  ( 115.2500000000000000, 32.37500000000000000, 13.00000000000000000 ) ) ;
#312 = ORIENTED_EDGE ( 'NONE', *, *, #409, .T. ) ;
#313 = EDGE_CURVE ( 'NONE', #294, #502, #680, .T. ) ;
#314 = ORIENTED_EDGE ( 'NONE', *, *, #486, .T. ) ;
#315 = AXIS2_PLACEMENT_3D ( 'NONE', #825, #381, #714 ) ;
#316 = FACE_OUTER_BOUND ( 'NONE', #963, .T. ) ;
#317 = ORIENTED_EDGE ( 'NONE', *, *, #1015, .F. ) ;
#318 = VERTEX_POINT ( 'NONE', #998 ) ;
#319 = EDGE_CURVE ( 'NONE', #904, #930, #108, .T. ) ;
#320 = CARTESIAN_POINT ( 'NONE',  ( 124.1642135623729928, 25.83578643762690419, 14.41421356237309936 ) ) ;
#321 = DIRECTION ( 'NONE',  ( -1.000000000000000000, 0.000000000000000000, 0.000000000000000000 ) ) ;
#322 = ORIENTED_EDGE ( 'NONE', *, *, #300, .T. ) ;
#323 = CARTESIAN_POINT ( 'NONE',  ( 116.7124777958704840, 26.71247779587059412, 14.99999999999999467 ) ) ;
#324 = UNCERTAINTY_MEASURE_WITH_UNIT (LENGTH_MEASURE( 1.000000000000000082E-05 ), #337, 'distance_accuracy_value', 'NONE');
#325 = CARTESIAN_POINT ( 'NONE',  ( 0.000000000000000000, 0.000000000000000000, 20.00000000000000000 ) ) ;
#326 = LINE ( 'NONE', #286, #547 ) ;
#327 = DIRECTION ( 'NONE',  ( 0.000000000000000000, 0.000000000000000000, -1.000000000000000000 ) ) ;
#328 = EDGE_LOOP ( 'NONE', ( #745, #849, #314, #808 ) ) ;
#329 = DIRECTION ( 'NONE',  ( -1.000000000000000000, 0.000000000000000000, 0.000000000000000000 ) ) ;
#330 = DIRECTION ( 'NONE',  ( -1.000000000000000000, 0.000000000000000000, 0.000000000000000000 ) ) ;
#331 = AXIS2_PLACEMENT_3D ( 'NONE', #365, #688, #124 ) ;
#332 = ADVANCED_FACE ( 'NONE', ( #598 ), #912, .T. ) ;
#333 = FACE_OUTER_BOUND ( 'NONE', #252, .T. ) ;
#334 = ORIENTED_EDGE ( 'NONE', *, *, #93, .T. ) ;
#335 = DIRECTION ( 'NONE',  ( 1.000000000000000000, 0.000000000000000000, 0.000000000000000000 ) ) ;
#336 = CARTESIAN_POINT ( 'NONE',  ( 80.45570084204871364, 25.45570084204866745, 14.03412796679486618 ) ) ;
#337 =( LENGTH_UNIT ( ) NAMED_UNIT ( * ) SI_UNIT ( .MILLI., .METRE. ) );
#338 = DIRECTION ( 'NONE',  ( -1.000000000000000000, 0.000000000000000000, 0.000000000000000000 ) ) ;
#339 = ORIENTED_EDGE ( 'NONE', *, *, #865, .T. ) ;
#340 = CARTESIAN_POINT ( 'NONE',  ( 89.16421356237310647, 27.62500000000000000, 14.41421356237309936 ) ) ;
#341 = DIRECTION ( 'NONE',  ( -1.000000000000000000, 0.000000000000000000, 0.000000000000000000 ) ) ;
#342 = EDGE_LOOP ( 'NONE', ( #756, #543 ) ) ;
#343 = DIRECTION ( 'NONE',  ( -1.000000000000000000, 0.000000000000000000, 0.000000000000000000 ) ) ;
#344 = CARTESIAN_POINT ( 'NONE',  ( 120.0000000000000000, 30.00000000000000000, 8.000000000000000000 ) ) ;
#345 = ORIENTED_EDGE ( 'NONE', *, *, #409, .F. ) ;
#346 = EDGE_CURVE ( 'NONE', #904, #154, #996, .T. ) ;
#347 = EDGE_CURVE ( 'NONE', #940, #575, #143, .T. ) ;
#348 = CARTESIAN_POINT ( 'NONE',  ( 87.37500000000000000, 34.75000000000000000, 8.000000000000000000 ) ) ;
#349 = EDGE_LOOP ( 'NONE', ( #827, #618, #946, #219 ) ) ;
#350 = VECTOR ( 'NONE', #67, 1000.000000000000000 ) ;
#351 = DIRECTION ( 'NONE',  ( -1.000000000000000000, 0.000000000000000000, 0.000000000000000000 ) ) ;
#352 = VERTEX_POINT ( 'NONE', #305 ) ;
#353 = ADVANCED_FACE ( 'NONE', ( #57 ), #130, .T. ) ;
#354 = CARTESIAN_POINT ( 'NONE',  ( 80.25000000000000000, 34.75000000000000000, 8.000000000000000000 ) ) ;
#355 = VERTEX_POINT ( 'NONE', #453 ) ;
#356 =( BOUNDED_CURVE ( )  B_SPLINE_CURVE ( 3, ( #390, #1014, #299, #149 ),
 .UNSPECIFIED., .F., .T. ) 
 B_SPLINE_CURVE_WITH_KNOTS ( ( 4, 4 ),
 ( 5.497787143782129959, 6.283185307179590673 ),
 .UNSPECIFIED. ) 
 CURVE ( )  GEOMETRIC_REPRESENTATION_ITEM ( )  RATIONAL_B_SPLINE_CURVE ( ( 1.000000000000000000, 0.9492530216741900118, 0.9492530216741900118, 1.000000000000000000 ) ) 
 REPRESENTATION_ITEM ( '' )  );
#357 = CYLINDRICAL_SURFACE ( 'NONE', #552, 2.000000000000000000 ) ;
#358 = CARTESIAN_POINT ( 'NONE',  ( 87.75000000000000000, 27.62500000000000000, 13.00000000000000000 ) ) ;
#359 = ORIENTED_EDGE ( 'NONE', *, *, #777, .F. ) ;
#360 = FACE_OUTER_BOUND ( 'NONE', #214, .T. ) ;
#361 = DIRECTION ( 'NONE',  ( 1.000000000000000000, 0.000000000000000000, 0.000000000000000000 ) ) ;
#362 = DIRECTION ( 'NONE',  ( 0.000000000000000000, 0.000000000000000000, -1.000000000000000000 ) ) ;
#363 = LINE ( 'NONE', #133, #794 ) ;
#364 = ORIENTED_EDGE ( 'NONE', *, *, #26, .F. ) ;
#365 = CARTESIAN_POINT ( 'NONE',  ( 85.00000000000000000, 30.00000000000000000, 8.000000000000000000 ) ) ;
#366 = CARTESIAN_POINT ( 'NONE',  ( 115.2500000000000000, 25.25000000000000000, 8.000000000000000000 ) ) ;
#367 = ORIENTED_EDGE ( 'NONE', *, *, #269, .T. ) ;
#368 = DIRECTION ( 'NONE',  ( -0.000000000000000000, 1.000000000000000000, 0.000000000000000000 ) ) ;
#369 = EDGE_CURVE ( 'NONE', #973, #129, #356, .T. ) ;
#370 = ORIENTED_EDGE ( 'NONE', *, *, #139, .F. ) ;
#371 = AXIS2_PLACEMENT_3D ( 'NONE', #752, #33, #177 ) ;
#372 = FACE_OUTER_BOUND ( 'NONE', #772, .T. ) ;
#373 = ORIENTED_EDGE ( 'NONE', *, *, #709, .T. ) ;
#374 = CARTESIAN_POINT ( 'NONE',  ( 88.28752220412934548, 26.71247779587062610, 14.99999999999997868 ) ) ;
#375 = VECTOR ( 'NONE', #799, 1000.000000000000000 ) ;
#376 = DIRECTION ( 'NONE',  ( 0.000000000000000000, 0.000000000000000000, 1.000000000000000000 ) ) ;
#377 = SURFACE_SIDE_STYLE ('',( #52 ) ) ;
#378 = CIRCLE ( 'NONE', #207, 13.24999999999999822 ) ;
#379 = ORIENTED_EDGE ( 'NONE', *, *, #824, .F. ) ;
#380 = ORIENTED_EDGE ( 'NONE', *, *, #640, .T. ) ;
#381 = DIRECTION ( 'NONE',  ( 0.000000000000000000, 0.000000000000000000, 1.000000000000000000 ) ) ;
#382 = CARTESIAN_POINT ( 'NONE',  ( 140.0000000000000000, 60.00000000000000000, 0.000000000000000000 ) ) ;
#383 = EDGE_CURVE ( 'NONE', #460, #993, #936, .T. ) ;
#384 = ADVANCED_FACE ( 'NONE', ( #856, #619 ), #548, .T. ) ;
#385 = LINE ( 'NONE', #293, #1027 ) ;
#386 = DIRECTION ( 'NONE',  ( 0.000000000000000000, 1.000000000000000000, 0.000000000000000000 ) ) ;
#387 = DIRECTION ( 'NONE',  ( -1.000000000000000000, 0.000000000000000000, 0.000000000000000000 ) ) ;
#388 = DIRECTION ( 'NONE',  ( 0.000000000000000000, 1.000000000000000000, 0.000000000000000000 ) ) ;
#389 = PLANE ( 'NONE',  #917 ) ;
#390 = CARTESIAN_POINT ( 'NONE',  ( 115.8357864376270072, 34.16421356237309936, 14.41421356237309936 ) ) ;
#391 = CARTESIAN_POINT ( 'NONE',  ( 89.75000000000000000, 27.62500000000000000, 13.00000000000000000 ) ) ;
#392 = EDGE_CURVE ( 'NONE', #46, #8, #925, .T. ) ;
#393 = MECHANICAL_DESIGN_GEOMETRIC_PRESENTATION_REPRESENTATION (  '', ( #259 ), #62 ) ;
#394 = ORIENTED_EDGE ( 'NONE', *, *, #319, .T. ) ;
#395 = ORIENTED_EDGE ( 'NONE', *, *, #927, .T. ) ;
#396 = FACE_OUTER_BOUND ( 'NONE', #517, .T. ) ;
#397 = FACE_OUTER_BOUND ( 'NONE', #452, .T. ) ;
#398 = VERTEX_POINT ( 'NONE', #145 ) ;
#399 = ADVANCED_FACE ( 'NONE', ( #372 ), #953, .T. ) ;
#400 = ORIENTED_EDGE ( 'NONE', *, *, #347, .T. ) ;
#401 = AXIS2_PLACEMENT_3D ( 'NONE', #732, #415, #728 ) ;
#402 = DIRECTION ( 'NONE',  ( 0.000000000000000000, 0.000000000000000000, -1.000000000000000000 ) ) ;
#403 = PLANE ( 'NONE',  #971 ) ;
#404 = VERTEX_POINT ( 'NONE', #874 ) ;
#405 = CARTESIAN_POINT ( 'NONE',  ( 80.25000000000000000, 34.75000000000000000, 13.00000000000000000 ) ) ;
#406 = CARTESIAN_POINT ( 'NONE',  ( 89.75000000000000000, 34.75000000000000000, 8.000000000000000000 ) ) ;
#407 = ORIENTED_EDGE ( 'NONE', *, *, #319, .F. ) ;
#408 = UNCERTAINTY_MEASURE_WITH_UNIT (LENGTH_MEASURE( 1.000000000000000082E-05 ), #677, 'distance_accuracy_value', 'NONE');
#409 = EDGE_CURVE ( 'NONE', #154, #716, #462, .T. ) ;
#410 = AXIS2_PLACEMENT_3D ( 'NONE', #136, #387, #623 ) ;
#411 = DIRECTION ( 'NONE',  ( -1.000000000000000000, -2.312964634635739999E-16, 0.000000000000000000 ) ) ;
#412 = LINE ( 'NONE', #406, #128 ) ;
#413 = EDGE_LOOP ( 'NONE', ( #380, #845 ) ) ;
#414 = PLANE ( 'NONE',  #54 ) ;
#415 = DIRECTION ( 'NONE',  ( 1.000000000000000000, 0.000000000000000000, 0.000000000000000000 ) ) ;
#416 = FACE_OUTER_BOUND ( 'NONE', #534, .T. ) ;
#417 = EDGE_LOOP ( 'NONE', ( #30, #91, #290, #32 ) ) ;
#418 = FACE_OUTER_BOUND ( 'NONE', #158, .T. ) ;
#419 = CLOSED_SHELL ( 'NONE', ( #947, #283, #163, #974, #647, #239, #498, #832, #291, #959, #522, #353, #4, #563, #245, #1024, #758, #939, #627, #1012, #384, #653, #564, #332, #678, #474, #702, #200, #56, #178, #662, #676, #859, #422, #458, #507, #275, #399 ) ) ;
#420 = DIRECTION ( 'NONE',  ( -1.000000000000000000, 0.000000000000000000, 0.000000000000000000 ) ) ;
#421 = LINE ( 'NONE', #171, #741 ) ;
#422 = ADVANCED_FACE ( 'NONE', ( #396 ), #243, .T. ) ;
#423 = ORIENTED_EDGE ( 'NONE', *, *, #256, .T. ) ;
#424 = DIRECTION ( 'NONE',  ( 1.000000000000000000, 0.000000000000000000, 0.000000000000000000 ) ) ;
#425 = FACE_OUTER_BOUND ( 'NONE', #222, .T. ) ;
#426 = CARTESIAN_POINT ( 'NONE',  ( 140.0000000000000000, 60.00000000000000000, 0.000000000000000000 ) ) ;
#427 = DIRECTION ( 'NONE',  ( 2.312964634635739999E-16, -1.000000000000000000, 0.000000000000000000 ) ) ;
#428 = EDGE_CURVE ( 'NONE', #352, #355, #494, .T. ) ;
#429 = ORIENTED_EDGE ( 'NONE', *, *, #609, .T. ) ;
#430 = CYLINDRICAL_SURFACE ( 'NONE', #898, 2.000000000000000444 ) ;
#431 = DIRECTION ( 'NONE',  ( 0.000000000000000000, 0.000000000000000000, -1.000000000000000000 ) ) ;
#432 = LINE ( 'NONE', #444, #787 ) ;
#433 = CARTESIAN_POINT ( 'NONE',  ( 140.0000000000000000, 60.00000000000000000, 20.00000000000000000 ) ) ;
#434 = VERTEX_POINT ( 'NONE', #629 ) ;
#435 = DIRECTION ( 'NONE',  ( 1.000000000000000000, 0.000000000000000000, 0.000000000000000000 ) ) ;
#436 = VERTEX_POINT ( 'NONE', #572 ) ;
#437 = PLANE ( 'NONE',  #861 ) ;
#438 = CARTESIAN_POINT ( 'NONE',  ( 115.2500000000000000, 34.75000000000000000, 8.000000000000000000 ) ) ;
#439 = ORIENTED_EDGE ( 'NONE', *, *, #738, .F. ) ;
#440 = LINE ( 'NONE', #763, #150 ) ;
#441 = CARTESIAN_POINT ( 'NONE',  ( 117.2500000000000000, 32.37500000000000000, 13.00000000000000000 ) ) ;
#442 = EDGE_CURVE ( 'NONE', #318, #434, #554, .T. ) ;
#443 = ORIENTED_EDGE ( 'NONE', *, *, #82, .F. ) ;
#444 = CARTESIAN_POINT ( 'NONE',  ( 80.25000000000000000, 32.37500000000000000, 13.00000000000000000 ) ) ;
#445 = ORIENTED_EDGE ( 'NONE', *, *, #313, .T. ) ;
#446 = CARTESIAN_POINT ( 'NONE',  ( 124.5442991579513432, 25.45570084204864258, 14.03412796679488217 ) ) ;
#447 = ORIENTED_EDGE ( 'NONE', *, *, #383, .F. ) ;
#448 = DIRECTION ( 'NONE',  ( 0.000000000000000000, 1.000000000000000000, 0.000000000000000000 ) ) ;
#449 = CARTESIAN_POINT ( 'NONE',  ( 94.87500000000000000, 32.75000000000000000, 15.00000000000000000 ) ) ;
#450 = DIRECTION ( 'NONE',  ( 0.000000000000000000, 1.000000000000000000, 0.000000000000000000 ) ) ;
#451 = VECTOR ( 'NONE', #157, 1000.000000000000000 ) ;
#452 = EDGE_LOOP ( 'NONE', ( #672, #322, #140, #394 ) ) ;
#453 = CARTESIAN_POINT ( 'NONE',  ( 115.8357864376270072, 25.83578643762690419, 14.41421356237309936 ) ) ;
#454 = ORIENTED_EDGE ( 'NONE', *, *, #100, .F. ) ;
#455 = DIRECTION ( 'NONE',  ( 0.000000000000000000, -1.000000000000000000, 0.000000000000000000 ) ) ;
#456 = EDGE_CURVE ( 'NONE', #48, #505, #995, .T. ) ;
#457 = CARTESIAN_POINT ( 'NONE',  ( 80.83578643762689353, 32.37500000000000000, 14.41421356237309936 ) ) ;
#458 = ADVANCED_FACE ( 'NONE', ( #473 ), #237, .T. ) ;
#459 = DIRECTION ( 'NONE',  ( 0.000000000000000000, -1.000000000000000000, 0.000000000000000000 ) ) ;
#460 = VERTEX_POINT ( 'NONE', #1026 ) ;
#461 = AXIS2_PLACEMENT_3D ( 'NONE', #610, #468, #1002 ) ;
#462 =( BOUNDED_CURVE ( )  B_SPLINE_CURVE ( 3, ( #160, #489, #731, #866 ),
 .UNSPECIFIED., .F., .F. ) 
 B_SPLINE_CURVE_WITH_KNOTS ( ( 4, 4 ),
 ( 5.497787143782139729, 6.283185307179590673 ),
 .UNSPECIFIED. ) 
 CURVE ( )  GEOMETRIC_REPRESENTATION_ITEM ( )  RATIONAL_B_SPLINE_CURVE ( ( 1.000000000000000000, 0.9492530216741910110, 0.9492530216741910110, 1.000000000000000000 ) ) 
 REPRESENTATION_ITEM ( '' )  );
#463 = EDGE_CURVE ( 'NONE', #74, #477, #941, .T. ) ;
#464 = LINE ( 'NONE', #786, #773 ) ;
#465 = ORIENTED_EDGE ( 'NONE', *, *, #960, .F. ) ;
#466 = VECTOR ( 'NONE', #198, 1000.000000000000000 ) ;
#467 = EDGE_CURVE ( 'NONE', #460, #811, #634, .T. ) ;
#468 = DIRECTION ( 'NONE',  ( 0.000000000000000000, 0.000000000000000000, 1.000000000000000000 ) ) ;
#469 = LINE ( 'NONE', #707, #220 ) ;
#470 = DIRECTION ( 'NONE',  ( -1.000000000000000000, 0.000000000000000000, 0.000000000000000000 ) ) ;
#471 = VECTOR ( 'NONE', #225, 1000.000000000000000 ) ;
#472 = ORIENTED_EDGE ( 'NONE', *, *, #442, .F. ) ;
#473 = FACE_OUTER_BOUND ( 'NONE', #292, .T. ) ;
#474 = ADVANCED_FACE ( 'NONE', ( #360 ), #414, .T. ) ;
#475 = CARTESIAN_POINT ( 'NONE',  ( 87.75000000000000000, 27.25000000000000000, 15.00000000000000000 ) ) ;
#476 = CARTESIAN_POINT ( 'NONE',  ( 140.0000000000000000, 0.000000000000000000, 0.000000000000000000 ) ) ;
#477 = VERTEX_POINT ( 'NONE', #118 ) ;
#478 = DIRECTION ( 'NONE',  ( 0.000000000000000000, 1.000000000000000000, 0.000000000000000000 ) ) ;
#479 = CARTESIAN_POINT ( 'NONE',  ( 94.87500000000000000, 34.75000000000000000, 13.00000000000000000 ) ) ;
#480 = DIRECTION ( 'NONE',  ( 0.000000000000000000, 0.000000000000000000, 1.000000000000000000 ) ) ;
#481 = ORIENTED_EDGE ( 'NONE', *, *, #738, .T. ) ;
#482 = VECTOR ( 'NONE', #782, 1000.000000000000000 ) ;
#483 = CARTESIAN_POINT ( 'NONE',  ( 87.75000000000000000, 27.62500000000000000, 13.00000000000000000 ) ) ;
#484 = CARTESIAN_POINT ( 'NONE',  ( 77.37500000000000000, 34.16421356237309936, 14.41421356237309936 ) ) ;
#485 = LINE ( 'NONE', #574, #557 ) ;
#486 = EDGE_CURVE ( 'NONE', #993, #536, #588, .T. ) ;
#487 = EDGE_CURVE ( 'NONE', #182, #560, #110, .T. ) ;
#488 = ORIENTED_EDGE ( 'NONE', *, *, #767, .T. ) ;
#489 = CARTESIAN_POINT ( 'NONE',  ( 89.54429915795130057, 25.45570084204866745, 14.03412796679486618 ) ) ;
#490 = FACE_OUTER_BOUND ( 'NONE', #509, .T. ) ;
#491 = CARTESIAN_POINT ( 'NONE',  ( 98.25000000000000000, 30.00000000000000000, 8.000000000000000000 ) ) ;
#492 = COLOUR_RGB ( '',0.7921568627450980005, 0.8196078431372548767, 0.9333333333333333481 ) ;
#493 = EDGE_LOOP ( 'NONE', ( #159, #591, #804, #407 ) ) ;
#494 =( BOUNDED_CURVE ( )  B_SPLINE_CURVE ( 3, ( #3, #323, #712, #9 ),
 .UNSPECIFIED., .F., .T. ) 
 B_SPLINE_CURVE_WITH_KNOTS ( ( 4, 4 ),
 ( 4.712388980384689674, 5.497787143782139729 ),
 .UNSPECIFIED. ) 
 CURVE ( )  GEOMETRIC_REPRESENTATION_ITEM ( )  RATIONAL_B_SPLINE_CURVE ( ( 1.000000000000000000, 0.9492530216741910110, 0.9492530216741910110, 1.000000000000000000 ) ) 
 REPRESENTATION_ITEM ( '' )  );
#495 = DIRECTION ( 'NONE',  ( 0.000000000000000000, 0.000000000000000000, 1.000000000000000000 ) ) ;
#496 = DIRECTION ( 'NONE',  ( 0.000000000000000000, -1.000000000000000000, 0.000000000000000000 ) ) ;
#497 = ORIENTED_EDGE ( 'NONE', *, *, #882, .T. ) ;
#498 = ADVANCED_FACE ( 'NONE', ( #994 ), #279, .T. ) ;
#499 = VERTEX_POINT ( 'NONE', #577 ) ;
#500 = AXIS2_PLACEMENT_3D ( 'NONE', #98, #105, #424 ) ;
#501 = CARTESIAN_POINT ( 'NONE',  ( 115.8357864376270072, 25.83578643762690419, 14.41421356237309936 ) ) ;
#502 = VERTEX_POINT ( 'NONE', #510 ) ;
#503 = AXIS2_PLACEMENT_3D ( 'NONE', #812, #329, #310 ) ;
#504 = DIRECTION ( 'NONE',  ( 0.000000000000000000, 0.000000000000000000, 1.000000000000000000 ) ) ;
#505 = VERTEX_POINT ( 'NONE', #975 ) ;
#506 = CARTESIAN_POINT ( 'NONE',  ( 122.3750000000000000, 34.75000000000000000, 8.000000000000000000 ) ) ;
#507 = ADVANCED_FACE ( 'NONE', ( #828 ), #430, .T. ) ;
#508 = CARTESIAN_POINT ( 'NONE',  ( 89.54429915795130057, 34.54429915795132189, 14.03412796679486618 ) ) ;
#509 = EDGE_LOOP ( 'NONE', ( #788, #988, #134, #1025 ) ) ;
#510 = CARTESIAN_POINT ( 'NONE',  ( 124.7500000000000000, 34.75000000000000000, 8.000000000000000000 ) ) ;
#511 = PRODUCT_CONTEXT ( 'NONE', #114, 'mechanical' ) ;
#512 = CARTESIAN_POINT ( 'NONE',  ( 82.25000000000000000, 27.25000000000000000, 15.00000000000000000 ) ) ;
#513 = CARTESIAN_POINT ( 'NONE',  ( 87.75000000000000000, 27.62500000000000000, 15.00000000000000000 ) ) ;
#514 = ORIENTED_EDGE ( 'NONE', *, *, #26, .T. ) ;
#515 =( BOUNDED_CURVE ( )  B_SPLINE_CURVE ( 3, ( #958, #250, #659, #405 ),
 .UNSPECIFIED., .F., .T. ) 
 B_SPLINE_CURVE_WITH_KNOTS ( ( 4, 4 ),
 ( 5.497787143782139729, 6.283185307179590673 ),
 .UNSPECIFIED. ) 
 CURVE ( )  GEOMETRIC_REPRESENTATION_ITEM ( )  RATIONAL_B_SPLINE_CURVE ( ( 1.000000000000000000, 0.9492530216741910110, 0.9492530216741910110, 1.000000000000000000 ) ) 
 REPRESENTATION_ITEM ( '' )  );
#516 = PLANE ( 'NONE',  #232 ) ;
#517 = EDGE_LOOP ( 'NONE', ( #521, #602, #922, #119 ) ) ;
#518 = DIRECTION ( 'NONE',  ( 0.000000000000000000, 0.7071067811865484609, 0.7071067811865467956 ) ) ;
#519 = DIRECTION ( 'NONE',  ( -1.000000000000000000, 0.000000000000000000, 0.000000000000000000 ) ) ;
#520 = AXIS2_PLACEMENT_3D ( 'NONE', #31, #768, #518 ) ;
#521 = ORIENTED_EDGE ( 'NONE', *, *, #346, .T. ) ;
#522 = ADVANCED_FACE ( 'NONE', ( #887 ), #822, .T. ) ;
#523 = CARTESIAN_POINT ( 'NONE',  ( 123.7841279667947703, 26.21587203320511250, 14.79429915795131301 ) ) ;
#524 = CARTESIAN_POINT ( 'NONE',  ( 85.00000000000000000, 30.00000000000000000, 20.00000000000000000 ) ) ;
#525 = DIRECTION ( 'NONE',  ( 1.000000000000000000, 0.000000000000000000, 0.000000000000000000 ) ) ;
#526 = VECTOR ( 'NONE', #175, 1000.000000000000000 ) ;
#527 = AXIS2_PLACEMENT_3D ( 'NONE', #366, #270, #431 ) ;
#528 = FACE_OUTER_BOUND ( 'NONE', #596, .T. ) ;
#529 = DIRECTION ( 'NONE',  ( 0.000000000000000000, 0.000000000000000000, 1.000000000000000000 ) ) ;
#530 = EDGE_LOOP ( 'NONE', ( #581, #309, #868, #257 ) ) ;
#531 = ORIENTED_EDGE ( 'NONE', *, *, #93, .F. ) ;
#532 = CYLINDRICAL_SURFACE ( 'NONE', #652, 16.50000000000000000 ) ;
#533 = CARTESIAN_POINT ( 'NONE',  ( 140.0000000000000000, 0.000000000000000000, 20.00000000000000000 ) ) ;
#534 = EDGE_LOOP ( 'NONE', ( #985, #334, #1011, #977 ) ) ;
#535 = APPLICATION_CONTEXT ( 'automotive_design' ) ;
#536 = VERTEX_POINT ( 'NONE', #202 ) ;
#537 = EDGE_CURVE ( 'NONE', #815, #940, #68, .T. ) ;
#538 = DIRECTION ( 'NONE',  ( 0.000000000000000000, -1.000000000000000000, 0.000000000000000000 ) ) ;
#539 = VECTOR ( 'NONE', #76, 1000.000000000000000 ) ;
#540 = EDGE_LOOP ( 'NONE', ( #551, #644, #445, #267 ) ) ;
#541 = CARTESIAN_POINT ( 'NONE',  ( 89.75000000000000000, 25.25000000000000000, 13.00000000000000000 ) ) ;
#542 = EDGE_CURVE ( 'NONE', #355, #940, #592, .T. ) ;
#543 = ORIENTED_EDGE ( 'NONE', *, *, #456, .T. ) ;
#544 = CARTESIAN_POINT ( 'NONE',  ( 80.25000000000000000, 32.37500000000000000, 8.000000000000000000 ) ) ;
#545 = CARTESIAN_POINT ( 'NONE',  ( 124.7500000000000000, 27.62500000000000000, 8.000000000000000000 ) ) ;
#546 = ORIENTED_EDGE ( 'NONE', *, *, #369, .T. ) ;
#547 = VECTOR ( 'NONE', #361, 1000.000000000000000 ) ;
#548 = PLANE ( 'NONE',  #461 ) ;
#549 = DIRECTION ( 'NONE',  ( 0.000000000000000000, 0.000000000000000000, 1.000000000000000000 ) ) ;
#550 = CARTESIAN_POINT ( 'NONE',  ( 122.7500000000000000, 32.75000000000000000, 15.00000000000000000 ) ) ;
#551 = ORIENTED_EDGE ( 'NONE', *, *, #894, .T. ) ;
#552 = AXIS2_PLACEMENT_3D ( 'NONE', #47, #420, #903 ) ;
#553 = EDGE_CURVE ( 'NONE', #575, #696, #735, .T. ) ;
#554 = LINE ( 'NONE', #717, #195 ) ;
#555 = LINE ( 'NONE', #80, #980 ) ;
#556 = CARTESIAN_POINT ( 'NONE',  ( 89.75000000000000000, 25.25000000000000000, 8.000000000000000000 ) ) ;
#557 = VECTOR ( 'NONE', #496, 1000.000000000000000 ) ;
#558 = EDGE_LOOP ( 'NONE', ( #896, #373, #514, #778 ) ) ;
#559 = DIRECTION ( 'NONE',  ( -1.000000000000000000, 0.000000000000000000, 0.000000000000000000 ) ) ;
#560 = VERTEX_POINT ( 'NONE', #15 ) ;
#561 = ORIENTED_EDGE ( 'NONE', *, *, #53, .T. ) ;
#562 = CARTESIAN_POINT ( 'NONE',  ( 72.62500000000000000, 27.25000000000000000, 13.00000000000000000 ) ) ;
#563 = ADVANCED_FACE ( 'NONE', ( #418 ), #516, .T. ) ;
#564 = ADVANCED_FACE ( 'NONE', ( #969, #258 ), #816, .T. ) ;
#565 = CARTESIAN_POINT ( 'NONE',  ( 117.2500000000000000, 32.75000000000000000, 15.00000000000000000 ) ) ;
#566 = ORIENTED_EDGE ( 'NONE', *, *, #870, .T. ) ;
#567 = CARTESIAN_POINT ( 'NONE',  ( 71.75000000000000000, 30.00000000000000000, 20.00000000000000000 ) ) ;
#568 = DIRECTION ( 'NONE',  ( 0.000000000000000000, 1.000000000000000000, 0.000000000000000000 ) ) ;
#569 = EDGE_CURVE ( 'NONE', #154, #730, #742, .T. ) ;
#570 = ORIENTED_EDGE ( 'NONE', *, *, #751, .F. ) ;
#571 = PRODUCT_DEFINITION_FORMATION_WITH_SPECIFIED_SOURCE ( 'ANY', '', #65, .NOT_KNOWN. ) ;
#572 = CARTESIAN_POINT ( 'NONE',  ( 80.83578643762689353, 34.16421356237309936, 14.41421356237309936 ) ) ;
#573 = CARTESIAN_POINT ( 'NONE',  ( 68.25000000000000000, 1.578598363138895087E-14, -90.87388238652511063 ) ) ;
#574 = CARTESIAN_POINT ( 'NONE',  ( 115.8357864376270072, 32.37500000000000000, 14.41421356237309936 ) ) ;
#575 = VERTEX_POINT ( 'NONE', #262 ) ;
#576 = EDGE_CURVE ( 'NONE', #8, #242, #893, .T. ) ;
#577 = CARTESIAN_POINT ( 'NONE',  ( 82.25000000000000000, 32.75000000000000000, 15.00000000000000000 ) ) ;
#578 = CARTESIAN_POINT ( 'NONE',  ( 124.7499999999998579, 34.75000000000000711, 13.53752220412937035 ) ) ;
#579 = ORIENTED_EDGE ( 'NONE', *, *, #486, .F. ) ;
#580 = DIRECTION ( 'NONE',  ( 0.000000000000000000, 0.000000000000000000, -1.000000000000000000 ) ) ;
#581 = ORIENTED_EDGE ( 'NONE', *, *, #553, .F. ) ;
#582 = CARTESIAN_POINT ( 'NONE',  ( 0.000000000000000000, 0.000000000000000000, 0.000000000000000000 ) ) ;
#583 = EDGE_CURVE ( 'NONE', #536, #69, #440, .T. ) ;
#584 = VECTOR ( 'NONE', #224, 1000.000000000000000 ) ;
#585 = FACE_BOUND ( 'NONE', #413, .T. ) ;
#586 = FACE_OUTER_BOUND ( 'NONE', #179, .T. ) ;
#587 = EDGE_LOOP ( 'NONE', ( #443, #921 ) ) ;
#588 = LINE ( 'NONE', #348, #636 ) ;
#589 =( NAMED_UNIT ( * ) SI_UNIT ( $, .STERADIAN. ) SOLID_ANGLE_UNIT ( ) );
#590 = CARTESIAN_POINT ( 'NONE',  ( 120.0000000000000000, 30.00000000000000000, 20.00000000000000000 ) ) ;
#591 = ORIENTED_EDGE ( 'NONE', *, *, #61, .F. ) ;
#592 = LINE ( 'NONE', #989, #736 ) ;
#593 = FACE_OUTER_BOUND ( 'NONE', #216, .T. ) ;
#594 = PLANE ( 'NONE',  #173 ) ;
#595 = EDGE_CURVE ( 'NONE', #873, #122, #601, .T. ) ;
#596 = EDGE_LOOP ( 'NONE', ( #278, #339, #1020, #818 ) ) ;
#597 = DIRECTION ( 'NONE',  ( 0.000000000000000000, 0.000000000000000000, -1.000000000000000000 ) ) ;
#598 = FACE_OUTER_BOUND ( 'NONE', #236, .T. ) ;
#599 = FACE_OUTER_BOUND ( 'NONE', #918, .T. ) ;
#600 = CARTESIAN_POINT ( 'NONE',  ( 65.00000000000000000, 30.00000000000000000, 15.00000000000000000 ) ) ;
#601 = CIRCLE ( 'NONE', #331, 13.24999999999999822 ) ;
#602 = ORIENTED_EDGE ( 'NONE', *, *, #569, .T. ) ;
#603 = ORIENTED_EDGE ( 'NONE', *, *, #751, .T. ) ;
#604 = AXIS2_PLACEMENT_3D ( 'NONE', #73, #631, #945 ) ;
#605 = CARTESIAN_POINT ( 'NONE',  ( 124.7500000000000000, 34.75000000000000000, 13.00000000000000000 ) ) ;
#606 = CYLINDRICAL_SURFACE ( 'NONE', #1021, 2.000000000000000444 ) ;
#607 = ORIENTED_EDGE ( 'NONE', *, *, #209, .F. ) ;
#608 = EDGE_CURVE ( 'NONE', #502, #696, #907, .T. ) ;
#609 = EDGE_CURVE ( 'NONE', #730, #770, #766, .T. ) ;
#610 = CARTESIAN_POINT ( 'NONE',  ( 85.00000000000000000, 30.00000000000000000, 8.000000000000000000 ) ) ;
#611 = EDGE_LOOP ( 'NONE', ( #924, #429, #650, #791 ) ) ;
#612 = PRODUCT_DEFINITION_CONTEXT ( 'detailed design', #535, 'design' ) ;
#613 = CARTESIAN_POINT ( 'NONE',  ( 89.16421356237310647, 34.16421356237309936, 14.41421356237309936 ) ) ;
#614 = ORIENTED_EDGE ( 'NONE', *, *, #10, .F. ) ;
#615 = CARTESIAN_POINT ( 'NONE',  ( 124.7500000000000000, 25.25000000000000000, 13.00000000000000000 ) ) ;
#616 = EDGE_CURVE ( 'NONE', #811, #716, #749, .T. ) ;
#617 = CARTESIAN_POINT ( 'NONE',  ( 87.75000000000000000, 32.75000000000000000, 15.00000000000000000 ) ) ;
#618 = ORIENTED_EDGE ( 'NONE', *, *, #542, .T. ) ;
#619 = FACE_OUTER_BOUND ( 'NONE', #188, .T. ) ;
#620 = LINE ( 'NONE', #306, #670 ) ;
#621 = AXIS2_PLACEMENT_3D ( 'NONE', #1031, #635, #950 ) ;
#622 = FACE_OUTER_BOUND ( 'NONE', #417, .T. ) ;
#623 = DIRECTION ( 'NONE',  ( 0.000000000000000000, 0.7071067811865484609, 0.7071067811865467956 ) ) ;
#624 = VECTOR ( 'NONE', #95, 1000.000000000000000 ) ;
#625 = LINE ( 'NONE', #449, #584 ) ;
#626 = CARTESIAN_POINT ( 'NONE',  ( 140.0000000000000000, 0.000000000000000000, 0.000000000000000000 ) ) ;
#627 = ADVANCED_FACE ( 'NONE', ( #599 ), #437, .T. ) ;
#628 = ORIENTED_EDGE ( 'NONE', *, *, #487, .T. ) ;
#629 = CARTESIAN_POINT ( 'NONE',  ( 136.5000000000000000, 30.00000000000000000, 8.000000000000000000 ) ) ;
#630 = LINE ( 'NONE', #699, #135 ) ;
#631 = DIRECTION ( 'NONE',  ( 0.000000000000000000, 0.000000000000000000, -1.000000000000000000 ) ) ;
#632 = AXIS2_PLACEMENT_3D ( 'NONE', #853, #218, #549 ) ;
#633 = ORIENTED_EDGE ( 'NONE', *, *, #639, .F. ) ;
#634 = LINE ( 'NONE', #949, #375 ) ;
#635 = DIRECTION ( 'NONE',  ( 0.000000000000000000, -1.000000000000000000, 0.000000000000000000 ) ) ;
#636 = VECTOR ( 'NONE', #900, 1000.000000000000000 ) ;
#637 = CARTESIAN_POINT ( 'NONE',  ( 89.75000000000000000, 34.75000000000000000, 8.000000000000000000 ) ) ;
#638 = VERTEX_POINT ( 'NONE', #271 ) ;
#639 = EDGE_CURVE ( 'NONE', #1029, #811, #432, .T. ) ;
#640 = EDGE_CURVE ( 'NONE', #74, #318, #911, .T. ) ;
#641 =( BOUNDED_CURVE ( )  B_SPLINE_CURVE ( 3, ( #501, #102, #965, #255 ),
 .UNSPECIFIED., .F., .T. ) 
 B_SPLINE_CURVE_WITH_KNOTS ( ( 4, 4 ),
 ( 5.497787143782139729, 6.283185307179590673 ),
 .UNSPECIFIED. ) 
 CURVE ( )  GEOMETRIC_REPRESENTATION_ITEM ( )  RATIONAL_B_SPLINE_CURVE ( ( 1.000000000000000000, 0.9492530216741920102, 0.9492530216741920102, 1.000000000000000000 ) ) 
 REPRESENTATION_ITEM ( '' )  );
#642 = DIRECTION ( 'NONE',  ( -2.312964634635739999E-16, 1.000000000000000000, 0.000000000000000000 ) ) ;
#643 = CARTESIAN_POINT ( 'NONE',  ( 70.00000000000000000, 30.00000000000000000, 0.000000000000000000 ) ) ;
#644 = ORIENTED_EDGE ( 'NONE', *, *, #215, .T. ) ;
#645 = VECTOR ( 'NONE', #1007, 1000.000000000000000 ) ;
#646 = DIRECTION ( 'NONE',  ( 0.000000000000000000, 0.000000000000000000, -1.000000000000000000 ) ) ;
#647 = ADVANCED_FACE ( 'NONE', ( #593 ), #1004, .T. ) ;
#648 = CARTESIAN_POINT ( 'NONE',  ( 122.7500000000000000, 32.75000000000000000, 15.00000000000000000 ) ) ;
#649 = DIRECTION ( 'NONE',  ( 0.000000000000000000, 0.000000000000000000, 1.000000000000000000 ) ) ;
#650 = ORIENTED_EDGE ( 'NONE', *, *, #194, .T. ) ;
#651 = DIRECTION ( 'NONE',  ( -1.000000000000000000, 0.000000000000000000, 0.000000000000000000 ) ) ;
#652 = AXIS2_PLACEMENT_3D ( 'NONE', #978, #205, #351 ) ;
#653 = ADVANCED_FACE ( 'NONE', ( #101 ), #532, .F. ) ;
#654 = DIRECTION ( 'NONE',  ( 0.000000000000000000, 1.000000000000000000, 0.000000000000000000 ) ) ;
#655 =( BOUNDED_CURVE ( )  B_SPLINE_CURVE ( 3, ( #512, #690, #685, #287 ),
 .UNSPECIFIED., .F., .T. ) 
 B_SPLINE_CURVE_WITH_KNOTS ( ( 4, 4 ),
 ( 4.712388980384689674, 5.497787143782139729 ),
 .UNSPECIFIED. ) 
 CURVE ( )  GEOMETRIC_REPRESENTATION_ITEM ( )  RATIONAL_B_SPLINE_CURVE ( ( 1.000000000000000000, 0.9492530216741910110, 0.9492530216741910110, 1.000000000000000000 ) ) 
 REPRESENTATION_ITEM ( '' )  );
#656 = VERTEX_POINT ( 'NONE', #41 ) ;
#657 = CIRCLE ( 'NONE', #289, 16.50000000000000000 ) ;
#658 = DIRECTION ( 'NONE',  ( 0.000000000000000000, 1.000000000000000000, 0.000000000000000000 ) ) ;
#659 = CARTESIAN_POINT ( 'NONE',  ( 80.24999999999995737, 34.75000000000000711, 13.53752220412937035 ) ) ;
#660 = CARTESIAN_POINT ( 'NONE',  ( 82.25000000000000000, 32.37500000000000000, 15.00000000000000000 ) ) ;
#661 = VECTOR ( 'NONE', #321, 1000.000000000000000 ) ;
#662 = ADVANCED_FACE ( 'NONE', ( #528 ), #357, .T. ) ;
#663 = ORIENTED_EDGE ( 'NONE', *, *, #537, .T. ) ;
#664 = DIRECTION ( 'NONE',  ( 0.000000000000000000, 1.000000000000000000, 0.000000000000000000 ) ) ;
#665 = ORIENTED_EDGE ( 'NONE', *, *, #595, .T. ) ;
#666 = DIRECTION ( 'NONE',  ( -0.7071067811865449082, 0.000000000000000000, 0.7071067811865501263 ) ) ;
#667 = CARTESIAN_POINT ( 'NONE',  ( 115.2500000000000000, 25.25000000000000000, 13.00000000000000000 ) ) ;
#668 = ORIENTED_EDGE ( 'NONE', *, *, #609, .F. ) ;
#669 = DIRECTION ( 'NONE',  ( 0.000000000000000000, -1.000000000000000000, 0.000000000000000000 ) ) ;
#670 = VECTOR ( 'NONE', #857, 1000.000000000000000 ) ;
#671 =( NAMED_UNIT ( * ) PLANE_ANGLE_UNIT ( ) SI_UNIT ( $, .RADIAN. ) );
#672 = ORIENTED_EDGE ( 'NONE', *, *, #684, .T. ) ;
#673 = PLANE ( 'NONE',  #66 ) ;
#674 = VERTEX_POINT ( 'NONE', #679 ) ;
#675 = CARTESIAN_POINT ( 'NONE',  ( 123.2875222041295160, 26.71247779587062610, 15.00000000000000000 ) ) ;
#676 = ADVANCED_FACE ( 'NONE', ( #991 ), #835, .T. ) ;
#677 =( LENGTH_UNIT ( ) NAMED_UNIT ( * ) SI_UNIT ( .MILLI., .METRE. ) );
#678 = ADVANCED_FACE ( 'NONE', ( #193 ), #673, .T. ) ;
#679 = CARTESIAN_POINT ( 'NONE',  ( 115.2500000000000000, 25.25000000000000000, 8.000000000000000000 ) ) ;
#680 = LINE ( 'NONE', #506, #906 ) ;
#681 = ORIENTED_EDGE ( 'NONE', *, *, #192, .F. ) ;
#682 = DIRECTION ( 'NONE',  ( 0.000000000000000000, 0.000000000000000000, 1.000000000000000000 ) ) ;
#683 = VECTOR ( 'NONE', #112, 1000.000000000000000 ) ;
#684 = EDGE_CURVE ( 'NONE', #930, #638, #655, .T. ) ;
#685 = CARTESIAN_POINT ( 'NONE',  ( 81.21587203320514448, 26.21587203320514092, 14.79429915795130945 ) ) ;
#686 = CARTESIAN_POINT ( 'NONE',  ( 122.7500000000000000, 27.62500000000000000, 13.00000000000000000 ) ) ;
#687 = ORIENTED_EDGE ( 'NONE', *, *, #785, .T. ) ;
#688 = DIRECTION ( 'NONE',  ( 0.000000000000000000, 0.000000000000000000, -1.000000000000000000 ) ) ;
#689 = CARTESIAN_POINT ( 'NONE',  ( 80.25000000000000000, 34.75000000000000000, 13.00000000000000000 ) ) ;
#690 = CARTESIAN_POINT ( 'NONE',  ( 81.71247779587058346, 26.71247779587059412, 14.99999999999999467 ) ) ;
#691 = PLANE ( 'NONE',  #213 ) ;
#692 = AXIS2_PLACEMENT_3D ( 'NONE', #743, #24, #666 ) ;
#693 = EDGE_CURVE ( 'NONE', #318, #74, #948, .T. ) ;
#694 = ORIENTED_EDGE ( 'NONE', *, *, #576, .T. ) ;
#695 = VECTOR ( 'NONE', #793, 1000.000000000000000 ) ;
#696 = VERTEX_POINT ( 'NONE', #605 ) ;
#697 = CARTESIAN_POINT ( 'NONE',  ( 88.78412796679478447, 26.21587203320511250, 14.79429915795131301 ) ) ;
#698 = VECTOR ( 'NONE', #1023, 1000.000000000000000 ) ;
#699 = CARTESIAN_POINT ( 'NONE',  ( 140.0000000000000000, 60.00000000000000000, 0.000000000000000000 ) ) ;
#700 = CARTESIAN_POINT ( 'NONE',  ( 140.0000000000000000, 60.00000000000000000, 20.00000000000000000 ) ) ;
#701 = EDGE_LOOP ( 'NONE', ( #750, #400, #981, #191 ) ) ;
#702 = ADVANCED_FACE ( 'NONE', ( #265, #585, #897 ), #186, .T. ) ;
#703 = ORIENTED_EDGE ( 'NONE', *, *, #777, .T. ) ;
#704 = CARTESIAN_POINT ( 'NONE',  ( 82.25000000000000000, 32.75000000000000000, 15.00000000000000000 ) ) ;
#705 = ORIENTED_EDGE ( 'NONE', *, *, #767, .F. ) ;
#706 = CARTESIAN_POINT ( 'NONE',  ( 124.1642135623729928, 25.83578643762690419, 14.41421356237309936 ) ) ;
#707 = CARTESIAN_POINT ( 'NONE',  ( 122.7500000000000000, 27.62500000000000000, 15.00000000000000000 ) ) ;
#708 = DIRECTION ( 'NONE',  ( 1.000000000000000000, 0.000000000000000000, 0.000000000000000000 ) ) ;
#709 = EDGE_CURVE ( 'NONE', #48, #122, #620, .T. ) ;
#710 = LINE ( 'NONE', #138, #350 ) ;
#711 = DIRECTION ( 'NONE',  ( -0.000000000000000000, 1.000000000000000000, 0.000000000000000000 ) ) ;
#712 = CARTESIAN_POINT ( 'NONE',  ( 116.2158720332050450, 26.21587203320508763, 14.79429915795130945 ) ) ;
#713 = AXIS2_PLACEMENT_3D ( 'NONE', #36, #187, #769 ) ;
#714 = DIRECTION ( 'NONE',  ( 1.000000000000000000, 0.000000000000000000, 0.000000000000000000 ) ) ;
#715 = ORIENTED_EDGE ( 'NONE', *, *, #855, .T. ) ;
#716 = VERTEX_POINT ( 'NONE', #541 ) ;
#717 = CARTESIAN_POINT ( 'NONE',  ( 136.5000000000000000, 30.00000000000000000, 20.00000000000000000 ) ) ;
#718 = CARTESIAN_POINT ( 'NONE',  ( 89.16421356237310647, 34.16421356237309936, 14.41421356237309936 ) ) ;
#719 = CARTESIAN_POINT ( 'NONE',  ( 68.25000000000000000, 0.000000000000000000, 0.000000000000000000 ) ) ;
#720 = VECTOR ( 'NONE', #72, 1000.000000000000000 ) ;
#721 = EDGE_CURVE ( 'NONE', #129, #172, #1009, .T. ) ;
#722 = ORIENTED_EDGE ( 'NONE', *, *, #576, .F. ) ;
#723 = CARTESIAN_POINT ( 'NONE',  ( 122.7500000000000000, 27.62500000000000000, 13.00000000000000000 ) ) ;
#724 = LINE ( 'NONE', #484, #49 ) ;
#725 = DIRECTION ( 'NONE',  ( 0.000000000000000000, 0.000000000000000000, -1.000000000000000000 ) ) ;
#726 = ORIENTED_EDGE ( 'NONE', *, *, #369, .F. ) ;
#727 = EDGE_CURVE ( 'NONE', #352, #656, #385, .T. ) ;
#728 = DIRECTION ( 'NONE',  ( 0.000000000000000000, -0.7071067811865484609, 0.7071067811865467956 ) ) ;
#729 = CARTESIAN_POINT ( 'NONE',  ( 116.2158720332051161, 33.78412796679486263, 14.79429915795131301 ) ) ;
#730 = VERTEX_POINT ( 'NONE', #613 ) ;
#731 = CARTESIAN_POINT ( 'NONE',  ( 89.74999999999995737, 25.24999999999997868, 13.53752220412937035 ) ) ;
#732 = CARTESIAN_POINT ( 'NONE',  ( 72.62500000000000000, 27.25000000000000000, 13.00000000000000000 ) ) ;
#733 = CARTESIAN_POINT ( 'NONE',  ( 87.75000000000000000, 32.75000000000000000, 15.00000000000000000 ) ) ;
#734 = EDGE_LOOP ( 'NONE', ( #234, #864, #2, #27 ) ) ;
#735 = LINE ( 'NONE', #905, #944 ) ;
#736 = VECTOR ( 'NONE', #273, 1000.000000000000000 ) ;
#737 = CARTESIAN_POINT ( 'NONE',  ( 71.75000000000000000, 30.00000000000000000, 8.000000000000000000 ) ) ;
#738 = EDGE_CURVE ( 'NONE', #656, #37, #625, .T. ) ;
#739 = DIRECTION ( 'NONE',  ( -1.000000000000000000, 0.000000000000000000, 0.000000000000000000 ) ) ;
#740 = EDGE_LOOP ( 'NONE', ( #1008, #681, #579, #125 ) ) ;
#741 = VECTOR ( 'NONE', #956, 1000.000000000000000 ) ;
#742 = LINE ( 'NONE', #340, #817 ) ;
#743 = CARTESIAN_POINT ( 'NONE',  ( 82.25000000000000000, 32.37500000000000000, 13.00000000000000000 ) ) ;
#744 = DIRECTION ( 'NONE',  ( -1.000000000000000000, 0.000000000000000000, 0.000000000000000000 ) ) ;
#745 = ORIENTED_EDGE ( 'NONE', *, *, #209, .T. ) ;
#746 = DIRECTION ( 'NONE',  ( 0.000000000000000000, -1.000000000000000000, 0.000000000000000000 ) ) ;
#747 = PLANE ( 'NONE',  #527 ) ;
#748 = EDGE_LOOP ( 'NONE', ( #285, #312, #877, #668 ) ) ;
#749 = LINE ( 'NONE', #282, #466 ) ;
#750 = ORIENTED_EDGE ( 'NONE', *, *, #813, .F. ) ;
#751 = EDGE_CURVE ( 'NONE', #909, #261, #630, .T. ) ;
#752 = CARTESIAN_POINT ( 'NONE',  ( 82.25000000000000000, 32.37500000000000000, 13.00000000000000000 ) ) ;
#753 = CYLINDRICAL_SURFACE ( 'NONE', #881, 2.000000000000000444 ) ;
#754 = DIRECTION ( 'NONE',  ( 0.000000000000000000, -1.000000000000000000, 0.000000000000000000 ) ) ;
#755 = FACE_OUTER_BOUND ( 'NONE', #349, .T. ) ;
#756 = ORIENTED_EDGE ( 'NONE', *, *, #71, .T. ) ;
#757 = CARTESIAN_POINT ( 'NONE',  ( 89.75000000000000000, 25.25000000000000000, 8.000000000000000000 ) ) ;
#758 = ADVANCED_FACE ( 'NONE', ( #228 ), #301, .T. ) ;
#759 = DIRECTION ( 'NONE',  ( 1.000000000000000000, 0.000000000000000000, 0.000000000000000000 ) ) ;
#760 = FACE_OUTER_BOUND ( 'NONE', #493, .T. ) ;
#761 = ORIENTED_EDGE ( 'NONE', *, *, #192, .T. ) ;
#762 = AXIS2_PLACEMENT_3D ( 'NONE', #25, #266, #12 ) ;
#763 = CARTESIAN_POINT ( 'NONE',  ( 89.75000000000000000, 27.62500000000000000, 8.000000000000000000 ) ) ;
#764 = CARTESIAN_POINT ( 'NONE',  ( 115.8357864376270072, 34.16421356237309936, 14.41421356237309936 ) ) ;
#765 = VERTEX_POINT ( 'NONE', #63 ) ;
#766 =( BOUNDED_CURVE ( )  B_SPLINE_CURVE ( 3, ( #830, #508, #841, #126 ),
 .UNSPECIFIED., .F., .T. ) 
 B_SPLINE_CURVE_WITH_KNOTS ( ( 4, 4 ),
 ( 5.497787143782139729, 6.283185307179590673 ),
 .UNSPECIFIED. ) 
 CURVE ( )  GEOMETRIC_REPRESENTATION_ITEM ( )  RATIONAL_B_SPLINE_CURVE ( ( 1.000000000000000000, 0.9492530216741910110, 0.9492530216741910110, 1.000000000000000000 ) ) 
 REPRESENTATION_ITEM ( '' )  );
#767 = EDGE_CURVE ( 'NONE', #69, #716, #146, .T. ) ;
#768 = DIRECTION ( 'NONE',  ( -1.000000000000000000, 0.000000000000000000, 0.000000000000000000 ) ) ;
#769 = DIRECTION ( 'NONE',  ( 0.000000000000000000, -0.7071067811865484609, 0.7071067811865467956 ) ) ;
#770 = VERTEX_POINT ( 'NONE', #860 ) ;
#771 = CARTESIAN_POINT ( 'NONE',  ( 124.7499999999999858, 25.25000000000000000, 13.53752220412938456 ) ) ;
#772 = EDGE_LOOP ( 'NONE', ( #663, #109, #104, #687 ) ) ;
#773 = VECTOR ( 'NONE', #142, 1000.000000000000000 ) ;
#774 =( BOUNDED_CURVE ( )  B_SPLINE_CURVE ( 3, ( #704, #943, #233, #846 ),
 .UNSPECIFIED., .F., .F. ) 
 B_SPLINE_CURVE_WITH_KNOTS ( ( 4, 4 ),
 ( 4.712388980384689674, 5.497787143782139729 ),
 .UNSPECIFIED. ) 
 CURVE ( )  GEOMETRIC_REPRESENTATION_ITEM ( )  RATIONAL_B_SPLINE_CURVE ( ( 1.000000000000000000, 0.9492530216741920102, 0.9492530216741920102, 1.000000000000000000 ) ) 
 REPRESENTATION_ITEM ( '' )  );
#775 = PLANE ( 'NONE',  #264 ) ;
#776 = FILL_AREA_STYLE ('',( #914 ) ) ;
#777 = EDGE_CURVE ( 'NONE', #294, #129, #923, .T. ) ;
#778 = ORIENTED_EDGE ( 'NONE', *, *, #916, .F. ) ;
#779 = ORIENTED_EDGE ( 'NONE', *, *, #10, .T. ) ;
#780 = LINE ( 'NONE', #391, #942 ) ;
#781 = LINE ( 'NONE', #247, #624 ) ;
#782 = DIRECTION ( 'NONE',  ( 0.000000000000000000, 0.000000000000000000, 1.000000000000000000 ) ) ;
#783 = AXIS2_PLACEMENT_3D ( 'NONE', #155, #402, #651 ) ;
#784 = ORIENTED_EDGE ( 'NONE', *, *, #928, .T. ) ;
#785 = EDGE_CURVE ( 'NONE', #37, #815, #469, .T. ) ;
#786 = CARTESIAN_POINT ( 'NONE',  ( 90.12500000000000000, 27.25000000000000000, 15.00000000000000000 ) ) ;
#787 = VECTOR ( 'NONE', #754, 1000.000000000000000 ) ;
#788 = ORIENTED_EDGE ( 'NONE', *, *, #1015, .T. ) ;
#789 = CARTESIAN_POINT ( 'NONE',  ( 122.7500000000000000, 27.25000000000000000, 15.00000000000000000 ) ) ;
#790 = VECTOR ( 'NONE', #470, 1000.000000000000000 ) ;
#791 = ORIENTED_EDGE ( 'NONE', *, *, #927, .F. ) ;
#792 = EDGE_LOOP ( 'NONE', ( #472, #131, #23, #1006 ) ) ;
#793 = DIRECTION ( 'NONE',  ( 0.000000000000000000, 0.000000000000000000, -1.000000000000000000 ) ) ;
#794 = VECTOR ( 'NONE', #427, 1000.000000000000000 ) ;
#795 = DIRECTION ( 'NONE',  ( -1.000000000000000000, 0.000000000000000000, 0.000000000000000000 ) ) ;
#796 = EDGE_CURVE ( 'NONE', #502, #398, #1016, .T. ) ;
#797 = LINE ( 'NONE', #1017, #238 ) ;
#798 = EDGE_LOOP ( 'NONE', ( #561, #628, #168, #570 ) ) ;
#799 = DIRECTION ( 'NONE',  ( 0.000000000000000000, 0.000000000000000000, 1.000000000000000000 ) ) ;
#800 = CARTESIAN_POINT ( 'NONE',  ( 94.87500000000000000, 34.16421356237309936, 14.41421356237309936 ) ) ;
#801 = EDGE_CURVE ( 'NONE', #815, #352, #464, .T. ) ;
#802 = VECTOR ( 'NONE', #455, 1000.000000000000000 ) ;
#803 =( BOUNDED_CURVE ( )  B_SPLINE_CURVE ( 3, ( #648, #253, #170, #161 ),
 .UNSPECIFIED., .F., .T. ) 
 B_SPLINE_CURVE_WITH_KNOTS ( ( 4, 4 ),
 ( 4.712388980384689674, 5.497787143782139729 ),
 .UNSPECIFIED. ) 
 CURVE ( )  GEOMETRIC_REPRESENTATION_ITEM ( )  RATIONAL_B_SPLINE_CURVE ( ( 1.000000000000000000, 0.9492530216741910110, 0.9492530216741910110, 1.000000000000000000 ) ) 
 REPRESENTATION_ITEM ( '' )  );
#804 = ORIENTED_EDGE ( 'NONE', *, *, #88, .F. ) ;
#805 = DIRECTION ( 'NONE',  ( 0.7071067811865449082, 0.000000000000000000, 0.7071067811865501263 ) ) ;
#806 = CARTESIAN_POINT ( 'NONE',  ( 80.24999999999995737, 25.25000000000002487, 13.53752220412937035 ) ) ;
#807 = CARTESIAN_POINT ( 'NONE',  ( 120.0000000000000000, 30.00000000000000000, 8.000000000000000000 ) ) ;
#808 = ORIENTED_EDGE ( 'NONE', *, *, #583, .T. ) ;
#809 = PLANE ( 'NONE',  #123 ) ;
#810 = CARTESIAN_POINT ( 'NONE',  ( 115.2500000000000000, 34.75000000000000000, 13.00000000000000000 ) ) ;
#811 = VERTEX_POINT ( 'NONE', #851 ) ;
#812 = CARTESIAN_POINT ( 'NONE',  ( 94.87500000000000000, 32.75000000000000000, 13.00000000000000000 ) ) ;
#813 = EDGE_CURVE ( 'NONE', #940, #404, #710, .T. ) ;
#814 = DIRECTION ( 'NONE',  ( 1.000000000000000000, 0.000000000000000000, 0.000000000000000000 ) ) ;
#815 = VERTEX_POINT ( 'NONE', #789 ) ;
#816 = PLANE ( 'NONE',  #500 ) ;
#817 = VECTOR ( 'NONE', #664, 1000.000000000000000 ) ;
#818 = ORIENTED_EDGE ( 'NONE', *, *, #61, .T. ) ;
#819 = CARTESIAN_POINT ( 'NONE',  ( 89.16421356237310647, 25.83578643762690419, 14.41421356237309936 ) ) ;
#820 = CARTESIAN_POINT ( 'NONE',  ( 140.0000000000000000, 0.000000000000000000, 20.00000000000000000 ) ) ;
#821 = ORIENTED_EDGE ( 'NONE', *, *, #1018, .F. ) ;
#822 = CYLINDRICAL_SURFACE ( 'NONE', #371, 2.000000000000000444 ) ;
#823 = CYLINDRICAL_SURFACE ( 'NONE', #304, 13.24999999999999822 ) ;
#824 = EDGE_CURVE ( 'NONE', #716, #770, #780, .T. ) ;
#825 = CARTESIAN_POINT ( 'NONE',  ( 70.00000000000000000, 30.00000000000000000, 20.00000000000000000 ) ) ;
#826 = EDGE_CURVE ( 'NONE', #499, #436, #774, .T. ) ;
#827 = ORIENTED_EDGE ( 'NONE', *, *, #428, .T. ) ;
#828 = FACE_OUTER_BOUND ( 'NONE', #734, .T. ) ;
#829 = CARTESIAN_POINT ( 'NONE',  ( 72.62500000000000000, 27.25000000000000000, 15.00000000000000000 ) ) ;
#830 = CARTESIAN_POINT ( 'NONE',  ( 89.16421356237310647, 34.16421356237309936, 14.41421356237309936 ) ) ;
#831 = LINE ( 'NONE', #700, #307 ) ;
#832 = ADVANCED_FACE ( 'NONE', ( #1022 ), #775, .T. ) ;
#833 = ORIENTED_EDGE ( 'NONE', *, *, #639, .T. ) ;
#834 = DIRECTION ( 'NONE',  ( 0.000000000000000000, 0.000000000000000000, 1.000000000000000000 ) ) ;
#835 = CYLINDRICAL_SURFACE ( 'NONE', #692, 2.000000000000000444 ) ;
#836 = CYLINDRICAL_SURFACE ( 'NONE', #713, 2.000000000000000000 ) ;
#837 = EDGE_LOOP ( 'NONE', ( #284, #465, #968, #55 ) ) ;
#838 = CARTESIAN_POINT ( 'NONE',  ( 124.1642135623729928, 25.83578643762690419, 14.41421356237309936 ) ) ;
#839 = AXIS2_PLACEMENT_3D ( 'NONE', #167, #580, #880 ) ;
#840 =( GEOMETRIC_REPRESENTATION_CONTEXT ( 3 ) GLOBAL_UNCERTAINTY_ASSIGNED_CONTEXT ( ( #408 ) ) GLOBAL_UNIT_ASSIGNED_CONTEXT ( ( #677, #671, #589 ) ) REPRESENTATION_CONTEXT ( 'NONE', 'WORKASPACE' ) );
#841 = CARTESIAN_POINT ( 'NONE',  ( 89.74999999999995737, 34.75000000000000711, 13.53752220412937035 ) ) ;
#842 = ORIENTED_EDGE ( 'NONE', *, *, #392, .T. ) ;
#843 = PRESENTATION_LAYER_ASSIGNMENT (  '', '', ( #259 ) ) ;
#844 = EDGE_CURVE ( 'NONE', #144, #730, #298, .T. ) ;
#845 = ORIENTED_EDGE ( 'NONE', *, *, #693, .T. ) ;
#846 = CARTESIAN_POINT ( 'NONE',  ( 80.83578643762689353, 34.16421356237309936, 14.41421356237309936 ) ) ;
#847 = DIRECTION ( 'NONE',  ( 1.000000000000000000, 0.000000000000000000, 0.000000000000000000 ) ) ;
#848 = EDGE_LOOP ( 'NONE', ( #614, #395, #833, #886 ) ) ;
#849 = ORIENTED_EDGE ( 'NONE', *, *, #383, .T. ) ;
#850 = VECTOR ( 'NONE', #559, 1000.000000000000000 ) ;
#851 = CARTESIAN_POINT ( 'NONE',  ( 80.25000000000000000, 25.25000000000000000, 13.00000000000000000 ) ) ;
#852 = ORIENTED_EDGE ( 'NONE', *, *, #882, .F. ) ;
#853 = CARTESIAN_POINT ( 'NONE',  ( 115.2500000000000000, 34.75000000000000000, 8.000000000000000000 ) ) ;
#854 = LINE ( 'NONE', #626, #70 ) ;
#855 = EDGE_CURVE ( 'NONE', #696, #129, #296, .T. ) ;
#856 = FACE_BOUND ( 'NONE', #328, .T. ) ;
#857 = DIRECTION ( 'NONE',  ( 0.000000000000000000, 0.000000000000000000, -1.000000000000000000 ) ) ;
#858 = FACE_OUTER_BOUND ( 'NONE', #740, .T. ) ;
#859 = ADVANCED_FACE ( 'NONE', ( #397 ), #94, .T. ) ;
#860 = CARTESIAN_POINT ( 'NONE',  ( 89.75000000000000000, 34.75000000000000000, 13.00000000000000000 ) ) ;
#861 = AXIS2_PLACEMENT_3D ( 'NONE', #920, #113, #913 ) ;
#862 = DIRECTION ( 'NONE',  ( -2.312964634635739999E-16, 1.000000000000000000, 0.000000000000000000 ) ) ;
#863 =( BOUNDED_CURVE ( )  B_SPLINE_CURVE ( 3, ( #878, #336, #806, #1028 ),
 .UNSPECIFIED., .F., .F. ) 
 B_SPLINE_CURVE_WITH_KNOTS ( ( 4, 4 ),
 ( 5.497787143782139729, 6.283185307179590673 ),
 .UNSPECIFIED. ) 
 CURVE ( )  GEOMETRIC_REPRESENTATION_ITEM ( )  RATIONAL_B_SPLINE_CURVE ( ( 1.000000000000000000, 0.9492530216741910110, 0.9492530216741910110, 1.000000000000000000 ) ) 
 REPRESENTATION_ITEM ( '' )  );
#864 = ORIENTED_EDGE ( 'NONE', *, *, #100, .T. ) ;
#865 = EDGE_CURVE ( 'NONE', #730, #436, #724, .T. ) ;
#866 = CARTESIAN_POINT ( 'NONE',  ( 89.75000000000000000, 25.25000000000000000, 13.00000000000000000 ) ) ;
#867 = LINE ( 'NONE', #325, #451 ) ;
#868 = ORIENTED_EDGE ( 'NONE', *, *, #796, .F. ) ;
#869 = ORIENTED_EDGE ( 'NONE', *, *, #215, .F. ) ;
#870 = EDGE_CURVE ( 'NONE', #765, #242, #867, .T. ) ;
#871 = DIRECTION ( 'NONE',  ( -1.000000000000000000, 0.000000000000000000, 0.000000000000000000 ) ) ;
#872 = CARTESIAN_POINT ( 'NONE',  ( 85.00000000000000000, 30.00000000000000000, 20.00000000000000000 ) ) ;
#873 = VERTEX_POINT ( 'NONE', #737 ) ;
#874 = CARTESIAN_POINT ( 'NONE',  ( 124.1642135623729928, 34.16421356237309936, 14.41421356237309936 ) ) ;
#875 = LINE ( 'NONE', #174, #38 ) ;
#876 = CARTESIAN_POINT ( 'NONE',  ( 103.5000000000000000, 30.00000000000000000, 20.00000000000000000 ) ) ;
#877 = ORIENTED_EDGE ( 'NONE', *, *, #824, .T. ) ;
#878 = CARTESIAN_POINT ( 'NONE',  ( 80.83578643762689353, 25.83578643762690419, 14.41421356237309936 ) ) ;
#879 =( NAMED_UNIT ( * ) SI_UNIT ( $, .STERADIAN. ) SOLID_ANGLE_UNIT ( ) );
#880 = DIRECTION ( 'NONE',  ( -1.000000000000000000, 0.000000000000000000, 0.000000000000000000 ) ) ;
#881 = AXIS2_PLACEMENT_3D ( 'NONE', #441, #203, #997 ) ;
#882 = EDGE_CURVE ( 'NONE', #404, #973, #89, .T. ) ;
#883 = EDGE_LOOP ( 'NONE', ( #454, #546, #210, #531 ) ) ;
#884 = DIRECTION ( 'NONE',  ( 0.000000000000000000, -0.7071067811865484609, 0.7071067811865467956 ) ) ;
#885 = AXIS2_PLACEMENT_3D ( 'NONE', #358, #121, #1000 ) ;
#886 = ORIENTED_EDGE ( 'NONE', *, *, #902, .F. ) ;
#887 = FACE_OUTER_BOUND ( 'NONE', #848, .T. ) ;
#888 = CARTESIAN_POINT ( 'NONE',  ( 124.7500000000000000, 34.75000000000000000, 13.00000000000000000 ) ) ;
#889 = ORIENTED_EDGE ( 'NONE', *, *, #709, .F. ) ;
#890 = CARTESIAN_POINT ( 'NONE',  ( 115.8357864376270072, 34.16421356237309936, 14.41421356237309936 ) ) ;
#891 = VECTOR ( 'NONE', #795, 1000.000000000000000 ) ;
#892 = ORIENTED_EDGE ( 'NONE', *, *, #116, .F. ) ;
#893 = LINE ( 'NONE', #183, #962 ) ;
#894 = EDGE_CURVE ( 'NONE', #398, #674, #555, .T. ) ;
#895 = EDGE_CURVE ( 'NONE', #172, #575, #240, .T. ) ;
#896 = ORIENTED_EDGE ( 'NONE', *, *, #456, .F. ) ;
#897 = FACE_OUTER_BOUND ( 'NONE', #1001, .T. ) ;
#898 = AXIS2_PLACEMENT_3D ( 'NONE', #21, #669, #982 ) ;
#899 = ORIENTED_EDGE ( 'NONE', *, *, #40, .T. ) ;
#900 = DIRECTION ( 'NONE',  ( 1.000000000000000000, 0.000000000000000000, 0.000000000000000000 ) ) ;
#901 =( BOUNDED_CURVE ( )  B_SPLINE_CURVE ( 3, ( #29, #111, #578, #888 ),
 .UNSPECIFIED., .F., .F. ) 
 B_SPLINE_CURVE_WITH_KNOTS ( ( 4, 4 ),
 ( 5.497787143782139729, 6.283185307179590673 ),
 .UNSPECIFIED. ) 
 CURVE ( )  GEOMETRIC_REPRESENTATION_ITEM ( )  RATIONAL_B_SPLINE_CURVE ( ( 1.000000000000000000, 0.9492530216741910110, 0.9492530216741910110, 1.000000000000000000 ) ) 
 REPRESENTATION_ITEM ( '' )  );
#902 = EDGE_CURVE ( 'NONE', #638, #811, #863, .T. ) ;
#903 = DIRECTION ( 'NONE',  ( 0.000000000000000000, 0.7071067811865484609, 0.7071067811865467956 ) ) ;
#904 = VERTEX_POINT ( 'NONE', #475 ) ;
#905 = CARTESIAN_POINT ( 'NONE',  ( 124.7500000000000000, 27.62500000000000000, 13.00000000000000000 ) ) ;
#906 = VECTOR ( 'NONE', #919, 1000.000000000000000 ) ;
#907 = LINE ( 'NONE', #986, #96 ) ;
#908 = DIRECTION ( 'NONE',  ( 0.7071067811865449082, 0.000000000000000000, 0.7071067811865501263 ) ) ;
#909 = VERTEX_POINT ( 'NONE', #16 ) ;
#910 = DIRECTION ( 'NONE',  ( 0.000000000000000000, 0.000000000000000000, -1.000000000000000000 ) ) ;
#911 = CIRCLE ( 'NONE', #13, 16.50000000000000000 ) ;
#912 = PLANE ( 'NONE',  #244 ) ;
#913 = DIRECTION ( 'NONE',  ( 0.000000000000000000, 0.000000000000000000, 1.000000000000000000 ) ) ;
#914 = FILL_AREA_STYLE_COLOUR ( '', #492 ) ;
#915 = ORIENTED_EDGE ( 'NONE', *, *, #300, .F. ) ;
#916 = EDGE_CURVE ( 'NONE', #505, #873, #970, .T. ) ;
#917 = AXIS2_PLACEMENT_3D ( 'NONE', #637, #711, #708 ) ;
#918 = EDGE_LOOP ( 'NONE', ( #633, #821, #447, #115 ) ) ;
#919 = DIRECTION ( 'NONE',  ( 1.000000000000000000, 0.000000000000000000, 0.000000000000000000 ) ) ;
#920 = CARTESIAN_POINT ( 'NONE',  ( 80.25000000000000000, 34.75000000000000000, 8.000000000000000000 ) ) ;
#921 = ORIENTED_EDGE ( 'NONE', *, *, #148, .F. ) ;
#922 = ORIENTED_EDGE ( 'NONE', *, *, #844, .F. ) ;
#923 = LINE ( 'NONE', #132, #720 ) ;
#924 = ORIENTED_EDGE ( 'NONE', *, *, #865, .F. ) ;
#925 = LINE ( 'NONE', #141, #6 ) ;
#926 = AXIS2_PLACEMENT_3D ( 'NONE', #211, #362, #999 ) ;
#927 = EDGE_CURVE ( 'NONE', #436, #1029, #515, .T. ) ;
#928 = EDGE_CURVE ( 'NONE', #37, #404, #803, .T. ) ;
#929 = CARTESIAN_POINT ( 'NONE',  ( 88.28752220412931706, 33.28752220412938101, 14.99999999999999467 ) ) ;
#930 = VERTEX_POINT ( 'NONE', #246 ) ;
#931 = AXIS2_PLACEMENT_3D ( 'NONE', #190, #22, #759 ) ;
#932 = CARTESIAN_POINT ( 'NONE',  ( 89.75000000000000000, 25.25000000000000000, 8.000000000000000000 ) ) ;
#933 = LINE ( 'NONE', #297, #471 ) ;
#934 = PRODUCT_DEFINITION_SHAPE ( 'NONE', 'NONE',  #152 ) ;
#935 = VECTOR ( 'NONE', #127, 1000.000000000000000 ) ;
#936 = LINE ( 'NONE', #544, #645 ) ;
#937 = DIRECTION ( 'NONE',  ( 0.000000000000000000, 0.000000000000000000, 1.000000000000000000 ) ) ;
#938 = CARTESIAN_POINT ( 'NONE',  ( 85.00000000000000000, 30.00000000000000000, 8.000000000000000000 ) ) ;
#939 = ADVANCED_FACE ( 'NONE', ( #316 ), #964, .T. ) ;
#940 = VERTEX_POINT ( 'NONE', #320 ) ;
#941 = LINE ( 'NONE', #231, #695 ) ;
#942 = VECTOR ( 'NONE', #388, 1000.000000000000000 ) ;
#943 = CARTESIAN_POINT ( 'NONE',  ( 81.71247779587059767, 33.28752220412940943, 14.99999999999997868 ) ) ;
#944 = VECTOR ( 'NONE', #39, 1000.000000000000000 ) ;
#945 = DIRECTION ( 'NONE',  ( -1.000000000000000000, 0.000000000000000000, 0.000000000000000000 ) ) ;
#946 = ORIENTED_EDGE ( 'NONE', *, *, #537, .F. ) ;
#947 = ADVANCED_FACE ( 'NONE', ( #490 ), #809, .T. ) ;
#948 = CIRCLE ( 'NONE', #926, 16.50000000000000000 ) ;
#949 = CARTESIAN_POINT ( 'NONE',  ( 80.25000000000000000, 25.25000000000000000, 8.000000000000000000 ) ) ;
#950 = DIRECTION ( 'NONE',  ( 0.000000000000000000, 0.000000000000000000, -1.000000000000000000 ) ) ;
#951 = LINE ( 'NONE', #457, #698 ) ;
#952 = EDGE_LOOP ( 'NONE', ( #1003, #359, #869, #1019 ) ) ;
#953 = CYLINDRICAL_SURFACE ( 'NONE', #227, 2.000000000000000444 ) ;
#954 = FACE_OUTER_BOUND ( 'NONE', #230, .T. ) ;
#955 = AXIS2_PLACEMENT_3D ( 'NONE', #483, #478, #805 ) ;
#956 = DIRECTION ( 'NONE',  ( 0.000000000000000000, 0.000000000000000000, 1.000000000000000000 ) ) ;
#957 = ORIENTED_EDGE ( 'NONE', *, *, #916, .T. ) ;
#958 = CARTESIAN_POINT ( 'NONE',  ( 80.83578643762689353, 34.16421356237309936, 14.41421356237309936 ) ) ;
#959 = ADVANCED_FACE ( 'NONE', ( #954 ), #5, .T. ) ;
#960 = EDGE_CURVE ( 'NONE', #674, #172, #875, .T. ) ;
#961 = LINE ( 'NONE', #18, #42 ) ;
#962 = VECTOR ( 'NONE', #504, 1000.000000000000000 ) ;
#963 = EDGE_LOOP ( 'NONE', ( #107, #201, #607, #488 ) ) ;
#964 = PLANE ( 'NONE',  #621 ) ;
#965 = CARTESIAN_POINT ( 'NONE',  ( 115.2499999999999574, 25.24999999999999645, 13.53752220412935792 ) ) ;
#966 = CIRCLE ( 'NONE', #156, 16.50000000000000000 ) ;
#967 = VECTOR ( 'NONE', #99, 1000.000000000000000 ) ;
#968 = ORIENTED_EDGE ( 'NONE', *, *, #894, .F. ) ;
#969 = FACE_BOUND ( 'NONE', #540, .T. ) ;
#970 = LINE ( 'NONE', #567, #79 ) ;
#971 = AXIS2_PLACEMENT_3D ( 'NONE', #643, #649, #814 ) ;
#972 = CARTESIAN_POINT ( 'NONE',  ( 116.7124777958705693, 33.28752220412934548, 15.00000000000000000 ) ) ;
#973 = VERTEX_POINT ( 'NONE', #764 ) ;
#974 = ADVANCED_FACE ( 'NONE', ( #185 ), #753, .T. ) ;
#975 = CARTESIAN_POINT ( 'NONE',  ( 71.75000000000000000, 30.00000000000000000, 20.00000000000000000 ) ) ;
#976 = APPLICATION_PROTOCOL_DEFINITION ( 'draft international standard', 'automotive_design', 1998, #114 ) ;
#977 = ORIENTED_EDGE ( 'NONE', *, *, #347, .F. ) ;
#978 = CARTESIAN_POINT ( 'NONE',  ( 120.0000000000000000, 30.00000000000000000, 20.00000000000000000 ) ) ;
#979 = CYLINDRICAL_SURFACE ( 'NONE', #75, 13.24999999999999822 ) ;
#980 = VECTOR ( 'NONE', #871, 1000.000000000000000 ) ;
#981 = ORIENTED_EDGE ( 'NONE', *, *, #553, .T. ) ;
#982 = DIRECTION ( 'NONE',  ( -0.7071067811865449082, 0.000000000000000000, 0.7071067811865501263 ) ) ;
#983 = EDGE_CURVE ( 'NONE', #404, #696, #901, .T. ) ;
#984 = FACE_OUTER_BOUND ( 'NONE', #837, .T. ) ;
#985 = ORIENTED_EDGE ( 'NONE', *, *, #542, .F. ) ;
#986 = CARTESIAN_POINT ( 'NONE',  ( 124.7500000000000000, 34.75000000000000000, 8.000000000000000000 ) ) ;
#987 = LINE ( 'NONE', #513, #935 ) ;
#988 = ORIENTED_EDGE ( 'NONE', *, *, #269, .F. ) ;
#989 = CARTESIAN_POINT ( 'NONE',  ( 90.12500000000000000, 25.83578643762690419, 14.41421356237309936 ) ) ;
#990 = LINE ( 'NONE', #354, #967 ) ;
#991 = FACE_OUTER_BOUND ( 'NONE', #196, .T. ) ;
#992 = FACE_OUTER_BOUND ( 'NONE', #748, .T. ) ;
#993 = VERTEX_POINT ( 'NONE', #45 ) ;
#994 = FACE_OUTER_BOUND ( 'NONE', #530, .T. ) ;
#995 = CIRCLE ( 'NONE', #783, 13.24999999999999822 ) ;
#996 =( BOUNDED_CURVE ( )  B_SPLINE_CURVE ( 3, ( #217, #374, #697, #819 ),
 .UNSPECIFIED., .F., .T. ) 
 B_SPLINE_CURVE_WITH_KNOTS ( ( 4, 4 ),
 ( 4.712388980384689674, 5.497787143782139729 ),
 .UNSPECIFIED. ) 
 CURVE ( )  GEOMETRIC_REPRESENTATION_ITEM ( )  RATIONAL_B_SPLINE_CURVE ( ( 1.000000000000000000, 0.9492530216741920102, 0.9492530216741920102, 1.000000000000000000 ) ) 
 REPRESENTATION_ITEM ( '' )  );
#997 = DIRECTION ( 'NONE',  ( -0.7071067811865449082, 0.000000000000000000, 0.7071067811865501263 ) ) ;
#998 = CARTESIAN_POINT ( 'NONE',  ( 136.5000000000000000, 30.00000000000000000, 20.00000000000000000 ) ) ;
#999 = DIRECTION ( 'NONE',  ( -1.000000000000000000, 0.000000000000000000, 0.000000000000000000 ) ) ;
#1000 = DIRECTION ( 'NONE',  ( 0.7071067811865449082, 0.000000000000000000, 0.7071067811865501263 ) ) ;
#1001 = EDGE_LOOP ( 'NONE', ( #423, #367, #566, #77 ) ) ;
#1002 = DIRECTION ( 'NONE',  ( 1.000000000000000000, 0.000000000000000000, 0.000000000000000000 ) ) ;
#1003 = ORIENTED_EDGE ( 'NONE', *, *, #721, .F. ) ;
#1004 = CYLINDRICAL_SURFACE ( 'NONE', #520, 2.000000000000000000 ) ;
#1005 = DIRECTION ( 'NONE',  ( 1.000000000000000000, 0.000000000000000000, 0.000000000000000000 ) ) ;
#1006 = ORIENTED_EDGE ( 'NONE', *, *, #82, .T. ) ;
#1007 = DIRECTION ( 'NONE',  ( 0.000000000000000000, 1.000000000000000000, 0.000000000000000000 ) ) ;
#1008 = ORIENTED_EDGE ( 'NONE', *, *, #194, .F. ) ;
#1009 = LINE ( 'NONE', #311, #180 ) ;
#1010 = PRESENTATION_STYLE_ASSIGNMENT (( #277 ) ) ;
#1011 = ORIENTED_EDGE ( 'NONE', *, *, #895, .T. ) ;
#1012 = ADVANCED_FACE ( 'NONE', ( #425 ), #823, .F. ) ;
#1013 = CYLINDRICAL_SURFACE ( 'NONE', #604, 16.50000000000000000 ) ;
#1014 = CARTESIAN_POINT ( 'NONE',  ( 115.4557008420486426, 34.54429915795135742, 14.03412796679488217 ) ) ;
#1015 = EDGE_CURVE ( 'NONE', #46, #765, #106, .T. ) ;
#1016 = LINE ( 'NONE', #545, #802 ) ;
#1017 = CARTESIAN_POINT ( 'NONE',  ( 68.25000000000000000, 1.578598363138895087E-14, 0.000000000000000000 ) ) ;
#1018 = EDGE_CURVE ( 'NONE', #993, #1029, #990, .T. ) ;
#1019 = ORIENTED_EDGE ( 'NONE', *, *, #960, .T. ) ;
#1020 = ORIENTED_EDGE ( 'NONE', *, *, #826, .F. ) ;
#1021 = AXIS2_PLACEMENT_3D ( 'NONE', #686, #450, #908 ) ;
#1022 = FACE_OUTER_BOUND ( 'NONE', #1030, .T. ) ;
#1023 = DIRECTION ( 'NONE',  ( 0.000000000000000000, -1.000000000000000000, 0.000000000000000000 ) ) ;
#1024 = ADVANCED_FACE ( 'NONE', ( #984 ), #747, .T. ) ;
#1025 = ORIENTED_EDGE ( 'NONE', *, *, #40, .F. ) ;
#1026 = CARTESIAN_POINT ( 'NONE',  ( 80.25000000000000000, 25.25000000000000000, 8.000000000000000000 ) ) ;
#1027 = VECTOR ( 'NONE', #151, 1000.000000000000000 ) ;
#1028 = CARTESIAN_POINT ( 'NONE',  ( 80.25000000000000000, 25.25000000000000000, 13.00000000000000000 ) ) ;
#1029 = VERTEX_POINT ( 'NONE', #689 ) ;
#1030 = EDGE_LOOP ( 'NONE', ( #176, #439, #165, #147 ) ) ;
#1031 = CARTESIAN_POINT ( 'NONE',  ( 80.25000000000000000, 25.25000000000000000, 8.000000000000000000 ) ) ;
ENDSEC;
END-ISO-10303-21;
