# Created by FreeCAD <https://www.freecad.org>
v 126.235291 36.235291 8.067367
v 126.750000 23.250000 8.000000
v 126.235291 23.764711 8.067367
v 126.750000 36.750000 8.000000
v 125.747375 35.747379 8.269465
v 125.747375 24.252623 8.269465
v 125.335785 35.335785 8.585787
v 125.335785 24.664213 8.585787
v 113.250000 23.250000 8.000000
v 113.764709 23.764711 8.067367
v 114.252625 24.252623 8.269465
v 114.664215 24.664213 8.585787
v 113.250000 36.750000 8.000000
v 113.764709 36.235291 8.067367
v 114.252625 35.747379 8.269465
v 114.664215 35.335785 8.585787
v 105.000000 30.000002 32.000000
v 105.000000 30.000002 8.000000
v 105.109367 28.191952 8.000000
v 105.109367 28.191952 32.000000
v 105.435875 26.410267 8.000000
v 105.435875 26.410267 32.000000
v 105.974754 24.680927 8.000000
v 105.974754 24.680927 32.000000
v 106.718163 23.029154 8.000000
v 106.718163 23.029154 32.000000
v 107.655243 21.479031 8.000000
v 107.655243 21.479031 32.000000
v 108.772339 20.053162 8.000000
v 108.772339 20.053162 32.000000
v 110.053162 18.772341 8.000000
v 110.053162 18.772341 32.000000
v 111.479027 17.655243 8.000000
v 111.479027 17.655243 32.000000
v 113.029152 16.718161 8.000000
v 113.029152 16.718161 32.000000
v 114.680931 15.974758 8.000000
v 114.680931 15.974758 32.000000
v 116.410263 15.435874 8.000000
v 116.410263 15.435874 32.000000
v 118.191948 15.109368 8.000000
v 118.191948 15.109368 32.000000
v 120.000000 15.000001 8.000000
v 120.000000 15.000001 32.000000
v 121.808052 15.109368 32.000000
v 121.808052 15.109368 8.000000
v 123.589737 15.435874 32.000000
v 123.589737 15.435874 8.000000
v 125.319077 15.974758 32.000000
v 125.319077 15.974758 8.000000
v 126.970848 16.718161 32.000000
v 126.970848 16.718161 8.000000
v 128.520966 17.655243 32.000000
v 128.520966 17.655243 8.000000
v 129.946838 18.772341 32.000000
v 129.946838 18.772341 8.000000
v 131.227661 20.053162 32.000000
v 131.227661 20.053162 8.000000
v 132.344757 21.479031 32.000000
v 132.344757 21.479031 8.000000
v 133.281845 23.029154 32.000000
v 133.281845 23.029154 8.000000
v 134.025238 24.680927 32.000000
v 134.025238 24.680927 8.000000
v 134.564133 26.410267 32.000000
v 134.564133 26.410267 8.000000
v 134.890640 28.191952 32.000000
v 134.890640 28.191952 8.000000
v 135.000000 30.000002 8.000000
v 135.000000 30.000002 32.000000
v 110.473724 24.500002 32.000000
v 120.000000 19.000002 32.000000
v 110.473724 35.500000 32.000000
v 106.718163 36.970848 32.000000
v 105.974754 35.319077 32.000000
v 105.435875 33.589737 32.000000
v 105.109367 31.808052 32.000000
v 107.655243 38.520973 32.000000
v 108.772339 39.946842 32.000000
v 110.053162 41.227661 32.000000
v 111.479027 42.344761 32.000000
v 129.526276 24.500002 32.000000
v 113.029152 43.281841 32.000000
v 120.000000 41.000000 32.000000
v 116.410263 44.564129 32.000000
v 114.680931 44.025246 32.000000
v 118.191948 44.890633 32.000000
v 120.000000 45.000000 32.000000
v 129.526276 35.500000 32.000000
v 121.808052 44.890633 32.000000
v 134.890640 31.808052 32.000000
v 123.589737 44.564129 32.000000
v 134.564133 33.589737 32.000000
v 125.319077 44.025246 32.000000
v 134.025238 35.319077 32.000000
v 126.970848 43.281841 32.000000
v 133.281845 36.970848 32.000000
v 132.344757 38.520973 32.000000
v 128.520966 42.344761 32.000000
v 131.227661 39.946842 32.000000
v 129.946838 41.227661 32.000000
v 134.890640 31.808052 8.000000
v 134.564133 33.589737 8.000000
v 134.025238 35.319077 8.000000
v 133.281845 36.970848 8.000000
v 132.344757 38.520973 8.000000
v 131.227661 39.946842 8.000000
v 129.946838 41.227661 8.000000
v 128.520966 42.344761 8.000000
v 126.970848 43.281841 8.000000
v 125.319077 44.025246 8.000000
v 123.589737 44.564129 8.000000
v 121.808052 44.890633 8.000000
v 120.000000 45.000000 8.000000
v 118.191948 44.890633 8.000000
v 116.410263 44.564129 8.000000
v 114.680931 44.025246 8.000000
v 113.029152 43.281841 8.000000
v 111.479027 42.344761 8.000000
v 110.053162 41.227661 8.000000
v 108.772339 39.946842 8.000000
v 107.655243 38.520973 8.000000
v 106.718163 36.970848 8.000000
v 105.974754 35.319077 8.000000
v 105.435875 33.589737 8.000000
v 105.109367 31.808052 8.000000
v 115.250000 34.750000 15.000000
v 124.750000 34.750000 15.000000
v 115.250000 25.250000 15.000000
v 124.750000 25.250000 15.000000
v 115.250000 25.250000 10.000000
v 115.250000 34.750000 10.000000
v 124.750000 25.250000 10.000000
v 124.750000 34.750000 10.000000
v 125.160553 35.160553 8.786056
v 114.953484 35.046516 8.952079
v 125.011131 35.011131 9.011902
v 115.122856 34.877144 9.298280
v 124.866432 34.866432 9.327558
v 115.217590 34.782410 9.641415
v 124.778763 34.778767 9.662009
v 115.241989 34.758007 9.821212
v 114.953484 24.953485 8.952079
v 115.122856 25.122856 9.298280
v 115.217590 25.217592 9.641415
v 115.241989 25.241993 9.821212
v 125.046516 24.953485 8.952079
v 124.877144 25.122856 9.298280
v 124.782410 25.217592 9.641415
v 124.758011 25.241993 9.821212
v 120.000000 41.000000 18.000000
v 129.526276 24.500002 18.000000
v 129.526276 35.500000 18.000000
v 110.473724 35.500000 18.000000
v 120.000000 19.000002 18.000000
v 110.473724 24.500002 18.000000
vn -0.129776 -0.000000 -0.991543
vn -0.129776 0.000000 -0.991543
vn -0.382680 -0.000000 -0.923881
vn -0.382680 0.000000 -0.923881
vn -0.609364 -0.000000 -0.792891
vn -0.609364 0.000000 -0.792891
vn 0.000000 0.129775 -0.991543
vn 0.000000 0.382682 -0.923880
vn 0.000000 0.129775 -0.991543
vn 0.000000 0.382683 -0.923880
vn 0.000000 0.609364 -0.792891
vn 0.000000 0.609364 -0.792891
vn 0.129776 0.000000 -0.991543
vn 0.382680 0.000000 -0.923881
vn 0.129776 0.000000 -0.991543
vn 0.609364 0.000000 -0.792891
vn 0.382680 0.000000 -0.923881
vn 0.609364 0.000000 -0.792891
vn 0.000000 -0.129776 -0.991543
vn 0.000000 -0.382682 -0.923880
vn 0.000000 -0.129776 -0.991543
vn 0.000000 -0.382683 -0.923880
vn 0.000000 -0.609360 -0.792894
vn 0.000000 -0.609360 -0.792894
vn -0.998176 -0.060379 -0.000000
vn -0.983620 -0.180256 -0.000000
vn -0.998176 -0.060379 -0.000000
vn -0.954722 -0.297501 -0.000000
vn -0.983620 -0.180256 -0.000000
vn -0.911899 -0.410415 -0.000000
vn -0.954722 -0.297501 -0.000000
vn -0.855782 -0.517337 -0.000000
vn -0.911899 -0.410415 -0.000000
vn -0.787184 -0.616719 -0.000000
vn -0.855782 -0.517337 -0.000000
vn -0.707106 -0.707107 -0.000000
vn -0.787184 -0.616719 -0.000000
vn -0.616720 -0.787182 -0.000000
vn -0.707106 -0.707107 -0.000000
vn -0.517337 -0.855781 -0.000000
vn -0.616720 -0.787182 -0.000000
vn -0.410411 -0.911900 -0.000000
vn -0.517337 -0.855781 -0.000000
vn -0.297504 -0.954720 -0.000000
vn -0.410411 -0.911900 -0.000000
vn -0.297504 -0.954720 -0.000000
vn -0.180255 -0.983620 -0.000000
vn -0.180255 -0.983620 -0.000000
vn -0.060379 -0.998176 -0.000000
vn -0.060379 -0.998176 -0.000000
vn 0.060379 -0.998176 0.000000
vn 0.060379 -0.998176 0.000000
vn 0.180255 -0.983620 0.000000
vn 0.180255 -0.983620 0.000000
vn 0.297503 -0.954721 0.000000
vn 0.297503 -0.954721 0.000000
vn 0.410413 -0.911900 0.000000
vn 0.410413 -0.911900 0.000000
vn 0.517339 -0.855780 0.000000
vn 0.517339 -0.855780 0.000000
vn 0.616718 -0.787184 0.000000
vn 0.616718 -0.787184 0.000000
vn 0.707106 -0.707107 0.000000
vn 0.707106 -0.707107 0.000000
vn 0.787184 -0.616719 0.000000
vn 0.787184 -0.616719 0.000000
vn 0.855780 -0.517340 0.000000
vn 0.855780 -0.517340 0.000000
vn 0.911902 -0.410408 0.000000
vn 0.911902 -0.410408 0.000000
vn 0.954719 -0.297508 0.000000
vn 0.954719 -0.297508 0.000000
vn 0.998176 -0.060375 0.000000
vn 0.983620 -0.180256 0.000000
vn 0.983620 -0.180256 0.000000
vn 0.998176 -0.060375 0.000000
vn 0.000000 0.000000 1.000000
vn 0.000000 0.000000 1.000000
vn 0.000000 0.000000 1.000000
vn 0.000000 0.000000 1.000000
vn 0.000000 0.000000 1.000000
vn 0.000000 0.000000 1.000000
vn 0.000000 0.000000 1.000000
vn 0.000000 0.000000 1.000000
vn 0.000000 0.000000 1.000000
vn 0.000000 0.000000 1.000000
vn 0.000000 0.000000 1.000000
vn 0.000000 0.000000 1.000000
vn 0.000000 0.000000 1.000000
vn 0.000000 0.000000 1.000000
vn 0.000000 0.000000 1.000000
vn 0.000000 0.000000 1.000000
vn 0.000000 0.000000 1.000000
vn 0.000000 0.000000 1.000000
vn 0.000000 0.000000 1.000000
vn 0.000000 0.000000 1.000000
vn 0.000000 0.000000 1.000000
vn 0.000000 0.000000 1.000000
vn 0.000000 0.000000 1.000000
vn 0.000000 0.000000 1.000000
vn 0.000000 0.000000 1.000000
vn 0.000000 0.000000 1.000000
vn 0.000000 0.000000 1.000000
vn 0.000000 0.000000 1.000000
vn 0.000000 0.000000 1.000000
vn 0.000000 0.000000 1.000000
vn 0.000000 0.000000 1.000000
vn 0.000000 0.000000 1.000000
vn 0.000000 0.000000 1.000000
vn 0.000000 0.000000 1.000000
vn 0.000000 0.000000 1.000000
vn 0.000000 0.000000 1.000000
vn 0.000000 0.000000 1.000000
vn 0.000000 0.000000 1.000000
vn 0.000000 0.000000 1.000000
vn 0.000000 0.000000 1.000000
vn 0.000000 0.000000 1.000000
vn 0.000000 0.000000 1.000000
vn 0.000000 0.000000 1.000000
vn 0.000000 0.000000 1.000000
vn 0.000000 0.000000 1.000000
vn 0.000000 0.000000 1.000000
vn 0.000000 0.000000 1.000000
vn 0.000000 0.000000 1.000000
vn 0.000000 0.000000 1.000000
vn 0.000000 0.000000 1.000000
vn 0.000000 0.000000 1.000000
vn 0.000000 0.000000 1.000000
vn 0.000000 0.000000 1.000000
vn 0.000000 0.000000 1.000000
vn 0.000000 0.000000 1.000000
vn 0.000000 0.000000 1.000000
vn 0.000000 0.000000 1.000000
vn 0.000000 0.000000 1.000000
vn 0.998176 0.060375 0.000000
vn 0.998176 0.060375 0.000000
vn 0.983620 0.180256 0.000000
vn 0.983620 0.180256 0.000000
vn 0.954719 0.297508 0.000000
vn 0.954719 0.297508 0.000000
vn 0.911902 0.410409 0.000000
vn 0.911902 0.410409 0.000000
vn 0.855780 0.517340 0.000000
vn 0.855780 0.517340 0.000000
vn 0.787184 0.616719 0.000000
vn 0.787184 0.616719 0.000000
vn 0.707106 0.707108 0.000000
vn 0.707106 0.707108 0.000000
vn 0.616719 0.787184 0.000000
vn 0.616719 0.787184 0.000000
vn 0.517339 0.855781 0.000000
vn 0.517339 0.855781 0.000000
vn 0.410414 0.911899 0.000000
vn 0.410414 0.911899 0.000000
vn 0.297503 0.954721 0.000000
vn 0.297503 0.954721 0.000000
vn 0.180254 0.983620 0.000000
vn 0.180254 0.983620 0.000000
vn 0.060379 0.998176 0.000000
vn 0.060379 0.998176 0.000000
vn -0.180254 0.983620 0.000000
vn -0.060379 0.998176 0.000000
vn -0.060379 0.998176 0.000000
vn -0.180254 0.983620 0.000000
vn -0.297504 0.954721 0.000000
vn -0.410412 0.911900 0.000000
vn -0.297504 0.954721 0.000000
vn -0.410412 0.911900 0.000000
vn -0.616721 0.787182 0.000000
vn -0.517337 0.855782 0.000000
vn -0.517337 0.855782 0.000000
vn -0.616721 0.787182 0.000000
vn -0.787184 0.616719 0.000000
vn -0.707106 0.707108 0.000000
vn -0.707106 0.707108 0.000000
vn -0.855782 0.517337 0.000000
vn -0.787184 0.616719 0.000000
vn -0.855782 0.517337 0.000000
vn -0.954722 0.297501 0.000000
vn -0.911899 0.410416 0.000000
vn -0.911899 0.410416 0.000000
vn -0.954722 0.297501 0.000000
vn -0.998176 0.060379 0.000000
vn -0.983620 0.180256 0.000000
vn -0.983620 0.180256 0.000000
vn -0.998176 0.060379 0.000000
vn 0.000000 0.000000 -1.000000
vn 0.000000 0.000000 -1.000000
vn 1.000000 0.000000 0.000000
vn 1.000000 0.000000 -0.000000
vn 0.000000 1.000000 0.000000
vn 0.000000 1.000000 0.000000
vn 0.000000 0.000000 -1.000000
vn 0.000000 0.000000 -1.000000
vn 0.000000 0.000000 -1.000000
vn 0.000000 0.000000 -1.000000
vn 0.000000 0.000000 -1.000000
vn 0.000000 0.000000 -1.000000
vn 0.000000 0.000000 -1.000000
vn 0.000000 0.000000 -1.000000
vn 0.000000 0.000000 -1.000000
vn 0.000000 0.000000 -1.000000
vn 0.000000 0.000000 -1.000000
vn 0.000000 0.000000 -1.000000
vn 0.000000 0.000000 -1.000000
vn 0.000000 -0.000000 -1.000000
vn 0.000000 -0.000000 -1.000000
vn 0.000000 -0.000000 -1.000000
vn 0.000000 -0.000000 -1.000000
vn 0.000000 -0.000000 -1.000000
vn 0.000000 -0.000000 -1.000000
vn 0.000000 0.000000 -1.000000
vn 0.000000 0.000000 -1.000000
vn 0.000000 0.000000 -1.000000
vn 0.000000 0.000000 -1.000000
vn 0.000000 0.000000 -1.000000
vn 0.000000 0.000000 -1.000000
vn 0.000000 0.000000 -1.000000
vn 0.000000 0.000000 -1.000000
vn 0.000000 0.000000 -1.000000
vn 0.000000 0.000000 -1.000000
vn 0.000000 0.000000 -1.000000
vn 0.000000 0.000000 -1.000000
vn 0.000000 0.000000 -1.000000
vn 0.000000 0.000000 -1.000000
vn 0.000000 0.000000 -1.000000
vn 0.000000 0.000000 -1.000000
vn 0.000000 -0.000000 -1.000000
vn 0.000000 0.000000 -1.000000
vn 0.000000 -0.000000 -1.000000
vn 0.000000 0.000000 -1.000000
vn 0.000000 -0.000000 -1.000000
vn 0.000000 0.000000 -1.000000
vn 0.000000 0.000000 -1.000000
vn 0.000000 0.000000 -1.000000
vn 0.000000 0.000000 -1.000000
vn 0.000000 0.000000 -1.000000
vn 0.000000 0.000000 -1.000000
vn 0.000000 0.000000 -1.000000
vn 0.000000 0.000000 -1.000000
vn 0.000000 0.000000 -1.000000
vn 0.000000 0.000000 -1.000000
vn 0.000000 0.000000 -1.000000
vn 0.000000 -0.000000 -1.000000
vn 0.000000 0.000000 -1.000000
vn 0.000000 -0.000000 -1.000000
vn 0.000000 -0.000000 -1.000000
vn 0.000000 0.000000 -1.000000
vn -1.000000 0.000000 0.000000
vn -1.000000 0.000000 0.000000
vn 0.000000 -1.000000 0.000000
vn 0.000000 -1.000000 0.000000
vn 0.000000 -0.752583 -0.658498
vn 0.000346 -0.834098 -0.551616
vn -0.001297 -0.785286 -0.619132
vn 0.000252 -0.909083 -0.416615
vn -0.000548 -0.898368 -0.439242
vn 0.000177 -0.967333 -0.253508
vn -0.000260 -0.963956 -0.266061
vn 0.000754 -0.996403 -0.084740
vn -0.000088 -0.990916 -0.134478
vn 0.000000 -0.998999 -0.044740
vn 0.784788 0.000000 -0.619764
vn 0.898263 0.000000 -0.439459
vn 0.784788 0.000000 -0.619764
vn 0.963938 0.000000 -0.266128
vn 0.898263 0.000000 -0.439459
vn 0.963938 0.000000 -0.266128
vn 0.990918 0.000000 -0.134469
vn 0.998998 0.000000 -0.044762
vn 0.990918 0.000000 -0.134469
vn 0.998998 0.000000 -0.044762
vn 0.000000 0.784784 -0.619769
vn 0.000000 0.784784 -0.619769
vn 0.000000 0.898265 -0.439455
vn 0.000000 0.963936 -0.266133
vn 0.000000 0.898265 -0.439455
vn 0.000000 0.963936 -0.266133
vn 0.000000 0.990916 -0.134480
vn 0.000000 0.998999 -0.044740
vn 0.000000 0.990916 -0.134480
vn 0.000000 0.998999 -0.044740
vn -0.752583 0.000000 -0.658498
vn -0.785286 -0.001297 -0.619132
vn -0.898368 -0.000548 -0.439242
vn -0.834098 0.000346 -0.551616
vn -0.963956 -0.000260 -0.266061
vn -0.909083 0.000252 -0.416615
vn -0.990919 -0.000088 -0.134458
vn -0.967330 0.000177 -0.253519
vn -0.998998 -0.000000 -0.044762
vn -0.996404 0.000754 -0.084729
vn 0.000000 0.000000 1.000000
vn 0.000000 0.000000 1.000000
vn 0.000000 0.000000 1.000000
vn 0.000000 0.000000 1.000000
vn -0.500000 -0.866025 0.000000
vn -0.500000 -0.866025 -0.000000
vn -1.000000 0.000000 0.000000
vn -1.000000 0.000000 0.000000
vn -0.500000 0.866025 0.000000
vn -0.500000 0.866025 0.000000
vn 0.500000 0.866025 0.000000
vn 0.500000 0.866025 0.000000
vn 1.000000 0.000000 0.000000
vn 1.000000 0.000000 -0.000000
vn 0.500000 -0.866025 0.000000
vn 0.500000 -0.866025 0.000000
f 1//1 2//1 3//1
f 1//2 4//2 2//2
f 5//3 3//3 6//3
f 5//4 1//4 3//4
f 7//5 6//5 8//5
f 7//6 5//6 6//6
f 2//7 9//7 10//7
f 3//8 10//8 11//8
f 3//9 2//9 10//9
f 6//10 3//10 11//10
f 8//11 11//11 12//11
f 8//12 6//12 11//12
f 9//13 13//13 14//13
f 10//14 14//14 15//14
f 10//15 9//15 14//15
f 11//16 15//16 16//16
f 11//17 10//17 15//17
f 12//18 11//18 16//18
f 13//19 4//19 1//19
f 14//20 1//20 5//20
f 14//21 13//21 1//21
f 15//22 14//22 5//22
f 16//23 5//23 7//23
f 16//24 15//24 5//24
f 17//25 18//25 19//25
f 20//26 19//26 21//26
f 20//27 17//27 19//27
f 22//28 21//28 23//28
f 22//29 20//29 21//29
f 24//30 23//30 25//30
f 24//31 22//31 23//31
f 26//32 25//32 27//32
f 26//33 24//33 25//33
f 28//34 27//34 29//34
f 28//35 26//35 27//35
f 30//36 29//36 31//36
f 30//37 28//37 29//37
f 32//38 31//38 33//38
f 32//39 30//39 31//39
f 34//40 33//40 35//40
f 34//41 32//41 33//41
f 36//42 35//42 37//42
f 36//43 34//43 35//43
f 38//44 37//44 39//44
f 38//45 36//45 37//45
f 40//46 38//46 39//46
f 40//47 39//47 41//47
f 42//48 40//48 41//48
f 42//49 41//49 43//49
f 44//50 42//50 43//50
f 45//51 44//51 43//51
f 45//52 43//52 46//52
f 47//53 46//53 48//53
f 47//54 45//54 46//54
f 49//55 48//55 50//55
f 49//56 47//56 48//56
f 51//57 50//57 52//57
f 51//58 49//58 50//58
f 53//59 52//59 54//59
f 53//60 51//60 52//60
f 55//61 54//61 56//61
f 55//62 53//62 54//62
f 57//63 56//63 58//63
f 57//64 55//64 56//64
f 59//65 58//65 60//65
f 59//66 57//66 58//66
f 61//67 60//67 62//67
f 61//68 59//68 60//68
f 63//69 62//69 64//69
f 63//70 61//70 62//70
f 65//71 64//71 66//71
f 65//72 63//72 64//72
f 67//73 68//73 69//73
f 67//74 66//74 68//74
f 67//75 65//75 66//75
f 70//76 67//76 69//76
f 71//77 20//77 22//77
f 71//78 22//78 24//78
f 71//79 24//79 26//79
f 71//80 26//80 28//80
f 71//81 28//81 30//81
f 71//82 30//82 32//82
f 71//83 32//83 34//83
f 71//84 34//84 36//84
f 17//85 20//85 71//85
f 72//86 36//86 38//86
f 72//87 38//87 40//87
f 72//88 40//88 42//88
f 72//89 42//89 44//89
f 72//90 44//90 45//90
f 72//91 71//91 36//91
f 47//92 72//92 45//92
f 49//93 72//93 47//93
f 51//94 72//94 49//94
f 73//95 74//95 75//95
f 73//96 75//96 76//96
f 73//97 76//97 77//97
f 73//98 77//98 17//98
f 73//99 17//99 71//99
f 78//100 74//100 73//100
f 79//101 78//101 73//101
f 80//102 79//102 73//102
f 81//103 80//103 73//103
f 82//104 72//104 51//104
f 82//105 51//105 53//105
f 82//106 53//106 55//106
f 82//107 55//107 57//107
f 82//108 57//108 59//108
f 83//109 81//109 73//109
f 61//110 82//110 59//110
f 63//111 82//111 61//111
f 65//112 82//112 63//112
f 84//113 83//113 73//113
f 84//114 85//114 86//114
f 84//115 86//115 83//115
f 67//116 82//116 65//116
f 87//117 85//117 84//117
f 88//118 87//118 84//118
f 70//119 82//119 67//119
f 89//120 82//120 70//120
f 90//121 88//121 84//121
f 91//122 89//122 70//122
f 92//123 90//123 84//123
f 93//124 89//124 91//124
f 94//125 92//125 84//125
f 95//126 89//126 93//126
f 96//127 84//127 89//127
f 96//128 94//128 84//128
f 97//129 89//129 95//129
f 98//130 89//130 97//130
f 99//131 96//131 89//131
f 100//132 89//132 98//132
f 101//133 99//133 89//133
f 101//134 89//134 100//134
f 91//135 70//135 69//135
f 91//136 69//136 102//136
f 93//137 102//137 103//137
f 93//138 91//138 102//138
f 95//139 103//139 104//139
f 95//140 93//140 103//140
f 97//141 104//141 105//141
f 97//142 95//142 104//142
f 98//143 105//143 106//143
f 98//144 97//144 105//144
f 100//145 106//145 107//145
f 100//146 98//146 106//146
f 101//147 107//147 108//147
f 101//148 100//148 107//148
f 99//149 108//149 109//149
f 99//150 101//150 108//150
f 96//151 109//151 110//151
f 96//152 99//152 109//152
f 94//153 110//153 111//153
f 94//154 96//154 110//154
f 92//155 94//155 111//155
f 92//156 111//156 112//156
f 90//157 92//157 112//157
f 90//158 112//158 113//158
f 88//159 90//159 113//159
f 88//160 113//160 114//160
f 87//161 115//161 116//161
f 87//162 114//162 115//162
f 87//163 88//163 114//163
f 85//164 87//164 116//164
f 85//165 116//165 117//165
f 86//166 117//166 118//166
f 86//167 85//167 117//167
f 83//168 86//168 118//168
f 81//169 119//169 120//169
f 81//170 118//170 119//170
f 81//171 83//171 118//171
f 80//172 81//172 120//172
f 79//173 121//173 122//173
f 79//174 120//174 121//174
f 79//175 80//175 120//175
f 78//176 122//176 123//176
f 78//177 79//177 122//177
f 74//178 78//178 123//178
f 75//179 124//179 125//179
f 75//180 123//180 124//180
f 75//181 74//181 123//181
f 76//182 75//182 125//182
f 77//183 126//183 18//183
f 77//184 125//184 126//184
f 77//185 76//185 125//185
f 17//186 77//186 18//186
f 127//187 128//187 129//187
f 129//188 128//188 130//188
f 131//189 127//189 129//189
f 132//190 127//190 131//190
f 130//191 133//191 129//191
f 129//192 133//192 131//192
f 41//193 9//193 43//193
f 39//194 9//194 41//194
f 37//195 9//195 39//195
f 35//196 9//196 37//196
f 33//197 9//197 35//197
f 31//198 9//198 33//198
f 29//199 9//199 31//199
f 27//200 9//200 29//200
f 25//201 9//201 27//201
f 23//202 9//202 25//202
f 21//203 9//203 23//203
f 19//204 9//204 21//204
f 18//205 9//205 19//205
f 126//206 13//206 18//206
f 125//207 13//207 126//207
f 124//208 13//208 125//208
f 123//209 13//209 124//209
f 122//210 13//210 123//210
f 121//211 13//211 122//211
f 18//212 13//212 9//212
f 54//213 2//213 56//213
f 52//214 2//214 54//214
f 50//215 2//215 52//215
f 48//216 2//216 50//216
f 46//217 2//217 48//217
f 43//218 2//218 46//218
f 9//219 2//219 43//219
f 121//220 120//220 13//220
f 2//221 58//221 56//221
f 120//222 119//222 13//222
f 2//223 60//223 58//223
f 119//224 118//224 13//224
f 2//225 62//225 60//225
f 118//226 117//226 13//226
f 2//227 64//227 62//227
f 117//228 116//228 13//228
f 2//229 66//229 64//229
f 116//230 115//230 13//230
f 2//231 68//231 66//231
f 115//232 114//232 13//232
f 13//233 114//233 4//233
f 2//234 69//234 68//234
f 4//235 69//235 2//235
f 114//236 113//236 4//236
f 4//237 102//237 69//237
f 113//238 112//238 4//238
f 4//239 103//239 102//239
f 112//240 111//240 4//240
f 4//241 104//241 103//241
f 111//242 110//242 4//242
f 4//243 105//243 104//243
f 110//244 109//244 4//244
f 4//245 106//245 105//245
f 109//246 108//246 4//246
f 108//247 107//247 4//247
f 4//248 107//248 106//248
f 130//249 128//249 133//249
f 133//250 128//250 134//250
f 132//251 134//251 127//251
f 127//252 134//252 128//252
f 16//253 7//253 135//253
f 136//254 135//254 137//254
f 136//255 16//255 135//255
f 138//256 137//256 139//256
f 138//257 136//257 137//257
f 140//258 139//258 141//258
f 140//259 138//259 139//259
f 142//260 141//260 134//260
f 142//261 140//261 141//261
f 132//262 142//262 134//262
f 12//263 16//263 136//263
f 143//264 136//264 138//264
f 143//265 12//265 136//265
f 144//266 138//266 140//266
f 144//267 143//267 138//267
f 145//268 144//268 140//268
f 146//269 140//269 142//269
f 146//270 142//270 132//270
f 146//271 145//271 140//271
f 131//272 146//272 132//272
f 8//273 12//273 143//273
f 147//274 8//274 143//274
f 148//275 143//275 144//275
f 148//276 144//276 145//276
f 148//277 147//277 143//277
f 149//278 148//278 145//278
f 150//279 145//279 146//279
f 150//280 146//280 131//280
f 150//281 149//281 145//281
f 133//282 150//282 131//282
f 135//283 7//283 8//283
f 135//284 8//284 147//284
f 137//285 147//285 148//285
f 137//286 135//286 147//286
f 139//287 148//287 149//287
f 139//288 137//288 148//288
f 141//289 149//289 150//289
f 141//290 139//290 149//290
f 134//291 150//291 133//291
f 134//292 141//292 150//292
f 151//293 152//293 153//293
f 151//294 154//294 152//294
f 154//295 155//295 152//295
f 154//296 156//296 155//296
f 84//297 153//297 89//297
f 84//298 151//298 153//298
f 152//299 82//299 153//299
f 82//300 89//300 153//300
f 72//301 152//301 155//301
f 82//302 152//302 72//302
f 72//303 155//303 71//303
f 155//304 156//304 71//304
f 154//305 71//305 156//305
f 154//306 73//306 71//306
f 151//307 84//307 154//307
f 154//308 84//308 73//308
