# Created by FreeCAD <https://www.freecad.org>
v 12.275000 3.275000 1.500000
v 12.275000 2.725000 1.500000
v 12.326471 2.673529 1.493263
v 12.326471 3.326471 1.493263
v 12.375262 3.375262 1.473054
v 12.375262 2.624738 1.473054
v 12.416422 3.416422 1.441421
v 12.416422 2.583579 1.441421
v 11.725000 2.725000 1.500000
v 11.673529 2.673529 1.493263
v 11.624738 2.624738 1.473054
v 11.583579 2.583579 1.441421
v 11.725000 3.275000 1.500000
v 11.673529 3.326471 1.493263
v 11.624738 3.375262 1.473054
v 11.583579 3.416422 1.441421
v 8.775000 3.275000 1.500000
v 8.775000 2.725000 1.500000
v 8.826471 2.673529 1.493263
v 8.826471 3.326471 1.493263
v 8.875262 2.624738 1.473054
v 8.875262 3.375262 1.473054
v 8.916422 2.583579 1.441421
v 8.916422 3.416422 1.441421
v 8.225000 2.725000 1.500000
v 8.173529 2.673529 1.493263
v 8.124738 2.624738 1.473054
v 8.083578 2.583579 1.441421
v 8.225000 3.275000 1.500000
v 8.173529 3.326471 1.493263
v 8.124738 3.375262 1.473054
v 8.083578 3.416422 1.441421
v 9.825000 3.000000 0.800000
v 9.804871 2.769916 0.800000
v 9.825000 3.000000 2.000000
v 9.804871 2.769916 2.000000
v 9.745093 2.546823 0.800000
v 9.745093 2.546823 2.000000
v 9.647484 2.337500 0.800000
v 9.647484 2.337500 2.000000
v 9.515009 2.148306 0.800000
v 9.515009 2.148306 2.000000
v 9.351694 1.984991 0.800000
v 9.351694 1.984991 2.000000
v 9.162500 1.852516 0.800000
v 9.162500 1.852516 2.000000
v 8.953177 1.754907 2.000000
v 8.953177 1.754907 0.800000
v 8.730084 1.695130 0.800000
v 8.730084 1.695130 2.000000
v 8.500000 1.675000 0.800000
v 8.500000 1.675000 2.000000
v 8.269916 1.695130 0.800000
v 8.269916 1.695130 2.000000
v 8.046823 1.754907 2.000000
v 8.046823 1.754907 0.800000
v 7.837500 1.852516 0.800000
v 7.837500 1.852516 2.000000
v 7.648306 1.984991 0.800000
v 7.648306 1.984991 2.000000
v 7.484991 2.148306 2.000000
v 7.484991 2.148306 0.800000
v 7.352516 2.337500 0.800000
v 7.352516 2.337500 2.000000
v 7.254907 2.546823 2.000000
v 7.254907 2.546823 0.800000
v 7.195129 2.769916 0.800000
v 7.195129 2.769916 2.000000
v 7.175000 3.000000 0.800000
v 7.175000 3.000000 2.000000
v 13.650000 3.000000 0.800000
v 13.631570 2.754080 0.800000
v 13.650000 3.000000 2.000000
v 13.631570 2.754080 2.000000
v 13.576695 2.513654 0.800000
v 13.576695 2.513654 2.000000
v 13.486598 2.284092 0.800000
v 13.486598 2.284092 2.000000
v 13.363294 2.070522 0.800000
v 13.363294 2.070522 2.000000
v 13.209535 1.877715 2.000000
v 13.209535 1.877715 0.800000
v 13.028758 1.709978 0.800000
v 13.028758 1.709978 2.000000
v 12.825000 1.571058 0.800000
v 12.825000 1.571058 2.000000
v 12.602813 1.464058 0.800000
v 12.602813 1.464058 2.000000
v 12.367159 1.391369 2.000000
v 12.367159 1.391369 0.800000
v 12.123305 1.354614 0.800000
v 12.123305 1.354614 2.000000
v 11.876695 1.354614 0.800000
v 11.876695 1.354614 2.000000
v 11.632841 1.391369 2.000000
v 11.632841 1.391369 0.800000
v 11.397187 1.464058 0.800000
v 11.397187 1.464058 2.000000
v 11.175000 1.571058 0.800000
v 11.175000 1.571058 2.000000
v 10.971242 1.709978 0.800000
v 10.971242 1.709978 2.000000
v 10.790465 1.877715 2.000000
v 10.790465 1.877715 0.800000
v 10.636706 2.070522 0.800000
v 10.636706 2.070522 2.000000
v 10.513401 2.284092 0.800000
v 10.513401 2.284092 2.000000
v 10.423305 2.513654 2.000000
v 10.423305 2.513654 0.800000
v 10.368429 2.754080 0.800000
v 10.368429 2.754080 2.000000
v 10.350000 3.000000 2.000000
v 10.350000 3.000000 0.800000
v 6.825000 0.000000 0.000000
v 14.000000 6.000000 0.000000
v 14.000000 0.000000 0.000000
v 6.825000 6.000000 0.000000
v 6.825000 0.000000 2.000000
v 6.825000 6.000000 2.000000
v 7.195129 3.230084 2.000000
v 7.254907 3.453177 2.000000
v 7.352516 3.662500 2.000000
v 7.484991 3.851694 2.000000
v 7.648306 4.015009 2.000000
v 7.837500 4.147484 2.000000
v 8.046823 4.245093 2.000000
v 8.269916 4.304870 2.000000
v 8.500000 4.325000 2.000000
v 8.730084 4.304870 2.000000
v 8.953177 4.245093 2.000000
v 9.804871 3.230084 2.000000
v 10.368429 3.245920 2.000000
v 9.745093 3.453177 2.000000
v 10.423305 3.486346 2.000000
v 9.647484 3.662500 2.000000
v 14.000000 0.000000 2.000000
v 10.513401 3.715908 2.000000
v 9.515009 3.851694 2.000000
v 10.636706 3.929478 2.000000
v 9.351694 4.015009 2.000000
v 10.790465 4.122285 2.000000
v 9.162500 4.147484 2.000000
v 10.971242 4.290022 2.000000
v 11.175000 4.428942 2.000000
v 11.397187 4.535942 2.000000
v 11.632841 4.608631 2.000000
v 14.000000 6.000000 2.000000
v 11.876695 4.645386 2.000000
v 12.123305 4.645386 2.000000
v 12.367159 4.608631 2.000000
v 12.602813 4.535942 2.000000
v 12.825000 4.428942 2.000000
v 13.028758 4.290022 2.000000
v 13.209535 4.122285 2.000000
v 13.363294 3.929478 2.000000
v 13.486598 3.715908 2.000000
v 13.576695 3.486346 2.000000
v 13.631570 3.245920 2.000000
v 11.525000 2.525000 0.800000
v 11.525000 3.475000 0.800000
v 10.368429 3.245920 0.800000
v 10.423305 3.486346 0.800000
v 10.513401 3.715908 0.800000
v 10.636706 3.929478 0.800000
v 10.790465 4.122285 0.800000
v 12.475000 2.525000 0.800000
v 10.971242 4.290022 0.800000
v 11.175000 4.428942 0.800000
v 11.397187 4.535942 0.800000
v 11.632841 4.608631 0.800000
v 11.876695 4.645386 0.800000
v 12.475000 3.475000 0.800000
v 12.123305 4.645386 0.800000
v 13.631570 3.245920 0.800000
v 12.367159 4.608631 0.800000
v 13.576695 3.486346 0.800000
v 12.602813 4.535942 0.800000
v 13.486598 3.715908 0.800000
v 12.825000 4.428942 0.800000
v 13.363294 3.929478 0.800000
v 13.028758 4.290022 0.800000
v 13.209535 4.122285 0.800000
v 8.025000 2.525000 0.800000
v 8.025000 3.475000 0.800000
v 7.195129 3.230084 0.800000
v 7.254907 3.453177 0.800000
v 7.352516 3.662500 0.800000
v 7.484991 3.851694 0.800000
v 8.975000 2.525000 0.800000
v 7.648306 4.015009 0.800000
v 7.837500 4.147484 0.800000
v 8.046823 4.245093 0.800000
v 8.269916 4.304870 0.800000
v 8.500000 4.325000 0.800000
v 8.975000 3.475000 0.800000
v 8.730084 4.304870 0.800000
v 9.804871 3.230084 0.800000
v 8.953177 4.245093 0.800000
v 9.745093 3.453177 0.800000
v 9.162500 4.147484 0.800000
v 9.647484 3.662500 0.800000
v 9.351694 4.015009 0.800000
v 9.515009 3.851694 0.800000
v 8.025000 3.475000 1.300000
v 8.025000 2.525000 1.300000
v 8.975000 2.525000 1.300000
v 11.525000 3.475000 1.300000
v 11.525000 2.525000 1.300000
v 12.475000 2.525000 1.300000
v 8.975000 3.475000 1.300000
v 8.054652 3.445348 1.404792
v 8.945348 3.445348 1.404792
v 8.962286 3.462286 1.370172
v 8.037714 3.462286 1.370172
v 8.971759 3.471759 1.335859
v 8.028241 3.471759 1.335859
v 8.974199 3.474199 1.317879
v 8.025801 3.474199 1.317879
v 8.054652 2.554652 1.404792
v 8.037714 2.537714 1.370172
v 8.028241 2.528241 1.335859
v 8.025801 2.525801 1.317879
v 8.945348 2.554652 1.404792
v 8.962286 2.537714 1.370172
v 8.971759 2.528241 1.335859
v 8.974199 2.525801 1.317879
v 12.475000 3.475000 1.300000
v 12.445348 3.445348 1.404792
v 11.554652 3.445348 1.404792
v 12.462286 3.462286 1.370172
v 11.537714 3.462286 1.370172
v 12.471759 3.471759 1.335859
v 11.528241 3.471759 1.335859
v 12.474199 3.474199 1.317879
v 11.525801 3.474199 1.317879
v 11.554652 2.554652 1.404792
v 11.537714 2.537714 1.370172
v 11.528241 2.528241 1.335859
v 11.525801 2.525801 1.317879
v 12.445348 2.554652 1.404792
v 12.462286 2.537714 1.370172
v 12.471759 2.528241 1.335859
v 12.474199 2.525801 1.317879
vn 0.129776 0.000000 0.991543
vn 0.129776 0.000000 0.991543
vn 0.382680 0.000000 0.923881
vn 0.382680 0.000000 0.923881
vn 0.609364 0.000000 0.792891
vn 0.609364 0.000000 0.792891
vn 0.000000 -0.129775 0.991543
vn 0.000000 -0.382682 0.923880
vn 0.000000 -0.129775 0.991543
vn 0.000000 -0.382682 0.923880
vn 0.000000 -0.609364 0.792891
vn 0.000000 -0.609364 0.792891
vn -0.129776 0.000000 0.991543
vn -0.382680 0.000000 0.923881
vn -0.129776 0.000000 0.991543
vn -0.609364 0.000000 0.792891
vn -0.382680 0.000000 0.923881
vn -0.609364 0.000000 0.792891
vn -0.000000 0.129776 0.991543
vn -0.000000 0.382682 0.923880
vn 0.000000 0.129776 0.991543
vn -0.000000 0.609360 0.792894
vn -0.000000 0.382682 0.923880
vn -0.000000 0.609360 0.792894
vn 0.129776 0.000000 0.991543
vn 0.382680 0.000000 0.923881
vn 0.129776 0.000000 0.991543
vn 0.609364 0.000000 0.792891
vn 0.382680 0.000000 0.923881
vn 0.609364 0.000000 0.792891
vn 0.000000 -0.129775 0.991543
vn 0.000000 -0.129775 0.991543
vn 0.000000 -0.382682 0.923880
vn 0.000000 -0.382682 0.923880
vn 0.000000 -0.609364 0.792891
vn 0.000000 -0.609364 0.792891
vn -0.129776 0.000000 0.991543
vn -0.129776 0.000000 0.991543
vn -0.382680 0.000000 0.923881
vn -0.382680 0.000000 0.923881
vn -0.609364 0.000000 0.792891
vn -0.609364 0.000000 0.792891
vn -0.000000 0.129776 0.991543
vn -0.000000 0.382682 0.923880
vn -0.000000 0.129776 0.991543
vn -0.000000 0.609360 0.792894
vn -0.000000 0.382682 0.923880
vn -0.000000 0.609360 0.792894
vn -0.996195 0.087154 0.000000
vn -0.996195 0.087154 0.000000
vn -0.965926 0.258820 0.000000
vn -0.965926 0.258820 0.000000
vn -0.906308 0.422618 0.000000
vn -0.906308 0.422618 0.000000
vn -0.819151 0.573578 0.000000
vn -0.819151 0.573578 0.000000
vn -0.707108 0.707106 0.000000
vn -0.707108 0.707106 0.000000
vn -0.573576 0.819152 0.000000
vn -0.422619 0.906308 0.000000
vn -0.573576 0.819152 0.000000
vn -0.422619 0.906308 0.000000
vn -0.258818 0.965926 0.000000
vn -0.258818 0.965926 0.000000
vn -0.087156 0.996195 0.000000
vn -0.087156 0.996195 0.000000
vn 0.087156 0.996195 0.000000
vn 0.258818 0.965926 0.000000
vn 0.087156 0.996195 -0.000000
vn 0.258818 0.965926 0.000000
vn 0.422619 0.906308 0.000000
vn 0.422619 0.906308 -0.000000
vn 0.573576 0.819152 0.000000
vn 0.707108 0.707106 0.000000
vn 0.573576 0.819152 -0.000000
vn 0.707108 0.707106 0.000000
vn 0.819151 0.573578 -0.000000
vn 0.819151 0.573578 0.000000
vn 0.906308 0.422618 0.000000
vn 0.906308 0.422618 0.000000
vn 0.965926 0.258820 -0.000000
vn 0.965926 0.258820 0.000000
vn 0.996195 0.087154 -0.000000
vn 0.996195 0.087154 0.000000
vn -0.997204 0.074732 0.000000
vn -0.997204 0.074732 0.000000
vn -0.974928 0.222519 0.000000
vn -0.974928 0.222519 0.000000
vn -0.930873 0.365343 0.000000
vn -0.930873 0.365343 0.000000
vn -0.866025 0.500000 0.000000
vn -0.781832 0.623489 0.000000
vn -0.866025 0.500000 0.000000
vn -0.781832 0.623489 0.000000
vn -0.680173 0.733051 0.000000
vn -0.680173 0.733051 0.000000
vn -0.563320 0.826239 0.000000
vn -0.563320 0.826239 0.000000
vn -0.433884 0.900969 0.000000
vn -0.294754 0.955573 0.000000
vn -0.433884 0.900969 0.000000
vn -0.294754 0.955573 0.000000
vn -0.149042 0.988831 0.000000
vn -0.149042 0.988831 0.000000
vn 0.000000 1.000000 0.000000
vn 0.149042 0.988831 0.000000
vn 0.000000 1.000000 -0.000000
vn 0.149042 0.988831 0.000000
vn 0.294754 0.955573 0.000000
vn 0.294754 0.955573 -0.000000
vn 0.433884 0.900969 -0.000000
vn 0.433884 0.900969 0.000000
vn 0.563320 0.826239 -0.000000
vn 0.563320 0.826239 0.000000
vn 0.680173 0.733051 0.000000
vn 0.680173 0.733051 0.000000
vn 0.781830 0.623491 -0.000000
vn 0.781830 0.623491 0.000000
vn 0.866025 0.500000 -0.000000
vn 0.866025 0.500000 0.000000
vn 0.930874 0.365340 0.000000
vn 0.930874 0.365340 0.000000
vn 0.974928 0.222522 -0.000000
vn 0.974928 0.222522 0.000000
vn 0.997204 0.074729 0.000000
vn 0.997204 0.074729 0.000000
vn 0.000000 0.000000 -1.000000
vn 0.000000 0.000000 -1.000000
vn 0.000000 0.000000 1.000000
vn 0.000000 0.000000 1.000000
vn 0.000000 0.000000 1.000000
vn 0.000000 0.000000 1.000000
vn 0.000000 0.000000 1.000000
vn 0.000000 0.000000 1.000000
vn 0.000000 0.000000 1.000000
vn 0.000000 0.000000 1.000000
vn 0.000000 0.000000 1.000000
vn 0.000000 0.000000 1.000000
vn 0.000000 0.000000 1.000000
vn 0.000000 0.000000 1.000000
vn 0.000000 0.000000 1.000000
vn 0.000000 0.000000 1.000000
vn 0.000000 0.000000 1.000000
vn 0.000000 0.000000 1.000000
vn 0.000000 0.000000 1.000000
vn 0.000000 0.000000 1.000000
vn 0.000000 0.000000 1.000000
vn 0.000000 0.000000 1.000000
vn 0.000000 0.000000 1.000000
vn 0.000000 0.000000 1.000000
vn 0.000000 0.000000 1.000000
vn 0.000000 0.000000 1.000000
vn 0.000000 0.000000 1.000000
vn 0.000000 0.000000 1.000000
vn 0.000000 0.000000 1.000000
vn 0.000000 0.000000 1.000000
vn 0.000000 0.000000 1.000000
vn 0.000000 0.000000 1.000000
vn 0.000000 0.000000 1.000000
vn 0.000000 0.000000 1.000000
vn 0.000000 0.000000 1.000000
vn 0.000000 0.000000 1.000000
vn 0.000000 0.000000 1.000000
vn 0.000000 0.000000 1.000000
vn 0.000000 0.000000 1.000000
vn 0.000000 0.000000 1.000000
vn 0.000000 0.000000 1.000000
vn 0.000000 0.000000 1.000000
vn 0.000000 0.000000 1.000000
vn 0.000000 0.000000 1.000000
vn 0.000000 0.000000 1.000000
vn 0.000000 0.000000 1.000000
vn 0.000000 0.000000 1.000000
vn 0.000000 0.000000 1.000000
vn 0.000000 0.000000 1.000000
vn 0.000000 0.000000 1.000000
vn 0.000000 0.000000 1.000000
vn 0.000000 0.000000 1.000000
vn 0.000000 0.000000 1.000000
vn 0.000000 0.000000 1.000000
vn 0.000000 0.000000 1.000000
vn 0.000000 0.000000 1.000000
vn 0.000000 0.000000 1.000000
vn 0.000000 0.000000 1.000000
vn 0.000000 0.000000 1.000000
vn 0.000000 0.000000 1.000000
vn 0.000000 0.000000 1.000000
vn 0.000000 0.000000 1.000000
vn 0.000000 0.000000 1.000000
vn 0.000000 0.000000 1.000000
vn 0.000000 0.000000 1.000000
vn 0.000000 0.000000 1.000000
vn 0.000000 0.000000 1.000000
vn 0.000000 0.000000 1.000000
vn 0.000000 0.000000 1.000000
vn 0.000000 0.000000 1.000000
vn 0.000000 0.000000 1.000000
vn 0.000000 0.000000 1.000000
vn 0.000000 0.000000 1.000000
vn 0.000000 0.000000 1.000000
vn 0.000000 0.000000 1.000000
vn 0.000000 0.000000 1.000000
vn 0.000000 0.000000 1.000000
vn 0.000000 0.000000 1.000000
vn 0.000000 0.000000 1.000000
vn 0.000000 0.000000 1.000000
vn 0.000000 0.000000 1.000000
vn 0.000000 0.000000 1.000000
vn 0.000000 0.000000 1.000000
vn 0.000000 0.000000 1.000000
vn 0.000000 0.000000 1.000000
vn 0.000000 -0.000000 1.000000
vn -0.000000 -1.000000 0.000000
vn 0.000000 -1.000000 0.000000
vn 0.000000 1.000000 0.000000
vn 0.000000 1.000000 -0.000000
vn 1.000000 0.000000 0.000000
vn 1.000000 0.000000 0.000000
vn 0.000000 0.000000 1.000000
vn 0.000000 0.000000 1.000000
vn 0.000000 0.000000 1.000000
vn 0.000000 0.000000 1.000000
vn 0.000000 0.000000 1.000000
vn 0.000000 0.000000 1.000000
vn 0.000000 0.000000 1.000000
vn 0.000000 0.000000 1.000000
vn 0.000000 0.000000 1.000000
vn 0.000000 0.000000 1.000000
vn 0.000000 0.000000 1.000000
vn 0.000000 0.000000 1.000000
vn 0.000000 0.000000 1.000000
vn 0.000000 0.000000 1.000000
vn 0.000000 0.000000 1.000000
vn 0.000000 0.000000 1.000000
vn 0.000000 0.000000 1.000000
vn 0.000000 0.000000 1.000000
vn 0.000000 0.000000 1.000000
vn 0.000000 0.000000 1.000000
vn 0.000000 0.000000 1.000000
vn 0.000000 0.000000 1.000000
vn 0.000000 0.000000 1.000000
vn 0.000000 0.000000 1.000000
vn 0.000000 0.000000 1.000000
vn 0.000000 0.000000 1.000000
vn 0.000000 0.000000 1.000000
vn 0.000000 0.000000 1.000000
vn 0.000000 0.000000 1.000000
vn 0.000000 0.000000 1.000000
vn 0.000000 0.000000 1.000000
vn 0.000000 0.000000 1.000000
vn 0.000000 0.000000 1.000000
vn 0.000000 0.000000 1.000000
vn 0.000000 0.000000 1.000000
vn 0.000000 0.000000 1.000000
vn 0.000000 0.000000 1.000000
vn 0.000000 0.000000 1.000000
vn 0.000000 0.000000 1.000000
vn 0.000000 0.000000 1.000000
vn 0.000000 0.000000 1.000000
vn 0.000000 0.000000 1.000000
vn 0.000000 0.000000 1.000000
vn 0.000000 0.000000 1.000000
vn 0.000000 0.000000 1.000000
vn 0.000000 0.000000 1.000000
vn 0.997204 -0.074729 0.000000
vn 0.997204 -0.074729 0.000000
vn 0.974928 -0.222522 0.000000
vn 0.974928 -0.222522 0.000000
vn 0.930874 -0.365340 0.000000
vn 0.930874 -0.365340 0.000000
vn 0.866025 -0.500000 0.000000
vn 0.866025 -0.500000 0.000000
vn 0.781830 -0.623491 0.000000
vn 0.781830 -0.623491 0.000000
vn 0.680173 -0.733051 0.000000
vn 0.680173 -0.733051 0.000000
vn 0.563320 -0.826239 0.000000
vn 0.433885 -0.900968 0.000000
vn 0.563320 -0.826239 0.000000
vn 0.433885 -0.900968 0.000000
vn 0.294755 -0.955573 0.000000
vn 0.294755 -0.955573 0.000000
vn 0.149042 -0.988831 0.000000
vn 0.149042 -0.988831 0.000000
vn 0.000000 -1.000000 0.000000
vn 0.000000 -1.000000 0.000000
vn -0.149042 -0.988831 0.000000
vn -0.149042 -0.988831 0.000000
vn -0.294755 -0.955573 0.000000
vn -0.294755 -0.955573 0.000000
vn -0.433885 -0.900968 0.000000
vn -0.433885 -0.900968 0.000000
vn -0.563320 -0.826239 0.000000
vn -0.563320 -0.826239 0.000000
vn -0.680173 -0.733051 0.000000
vn -0.680173 -0.733051 0.000000
vn -0.781832 -0.623489 -0.000000
vn -0.781832 -0.623489 0.000000
vn -0.866025 -0.500000 0.000000
vn -0.866025 -0.500000 0.000000
vn -0.930873 -0.365343 0.000000
vn -0.930873 -0.365343 0.000000
vn -0.974928 -0.222519 0.000000
vn -0.974928 -0.222519 0.000000
vn -0.997204 -0.074732 0.000000
vn -0.997204 -0.074732 0.000000
vn 0.000000 0.000000 1.000000
vn 0.000000 0.000000 1.000000
vn 0.000000 0.000000 1.000000
vn 0.000000 0.000000 1.000000
vn 0.000000 0.000000 1.000000
vn 0.000000 0.000000 1.000000
vn 0.000000 0.000000 1.000000
vn 0.000000 0.000000 1.000000
vn 0.000000 0.000000 1.000000
vn 0.000000 0.000000 1.000000
vn 0.000000 0.000000 1.000000
vn 0.000000 0.000000 1.000000
vn 0.000000 0.000000 1.000000
vn 0.000000 0.000000 1.000000
vn 0.000000 0.000000 1.000000
vn 0.000000 0.000000 1.000000
vn 0.000000 0.000000 1.000000
vn 0.000000 0.000000 1.000000
vn 0.000000 0.000000 1.000000
vn 0.000000 0.000000 1.000000
vn 0.000000 0.000000 1.000000
vn 0.000000 0.000000 1.000000
vn 0.000000 0.000000 1.000000
vn 0.000000 0.000000 1.000000
vn 0.000000 0.000000 1.000000
vn 0.000000 0.000000 1.000000
vn 0.000000 0.000000 1.000000
vn 0.000000 0.000000 1.000000
vn 0.000000 0.000000 1.000000
vn 0.000000 0.000000 1.000000
vn 0.000000 0.000000 1.000000
vn 0.000000 0.000000 1.000000
vn 0.000000 0.000000 1.000000
vn 0.000000 0.000000 1.000000
vn 0.000000 0.000000 1.000000
vn 0.000000 0.000000 1.000000
vn 0.000000 0.000000 1.000000
vn 0.000000 0.000000 1.000000
vn 0.000000 0.000000 1.000000
vn 0.000000 0.000000 1.000000
vn 0.996195 -0.087154 0.000000
vn 0.996195 -0.087154 0.000000
vn 0.965926 -0.258820 0.000000
vn 0.965926 -0.258820 0.000000
vn 0.906308 -0.422618 0.000000
vn 0.819151 -0.573578 0.000000
vn 0.906308 -0.422618 0.000000
vn 0.819151 -0.573578 0.000000
vn 0.707108 -0.707106 0.000000
vn 0.707108 -0.707106 0.000000
vn 0.573577 -0.819152 0.000000
vn 0.573577 -0.819152 0.000000
vn 0.422618 -0.906308 0.000000
vn 0.258818 -0.965926 0.000000
vn 0.422618 -0.906308 0.000000
vn 0.258818 -0.965926 0.000000
vn 0.087156 -0.996195 0.000000
vn 0.087156 -0.996195 0.000000
vn -0.087156 -0.996195 0.000000
vn -0.087156 -0.996195 0.000000
vn -0.258818 -0.965926 0.000000
vn -0.258818 -0.965926 0.000000
vn -0.422618 -0.906308 0.000000
vn -0.422618 -0.906308 0.000000
vn -0.573577 -0.819152 0.000000
vn -0.707108 -0.707106 -0.000000
vn -0.573577 -0.819152 0.000000
vn -0.707108 -0.707106 0.000000
vn -0.819151 -0.573578 0.000000
vn -0.819151 -0.573578 0.000000
vn -0.906308 -0.422618 0.000000
vn -0.906308 -0.422618 0.000000
vn -0.965926 -0.258820 -0.000000
vn -0.965926 -0.258820 0.000000
vn -0.996195 -0.087154 -0.000000
vn -0.996195 -0.087154 0.000000
vn -1.000000 0.000000 -0.000000
vn -1.000000 -0.000000 0.000000
vn 0.000000 -1.000000 0.000000
vn 0.000000 -1.000000 0.000000
vn -1.000000 0.000000 -0.000000
vn -1.000000 -0.000000 0.000000
vn 0.000000 -1.000000 0.000000
vn 0.000000 -1.000000 0.000000
vn 0.000000 0.000000 1.000000
vn 0.000000 0.000000 1.000000
vn 1.000000 0.000000 0.000000
vn 1.000000 0.000000 0.000000
vn 0.000000 1.000000 -0.000000
vn 0.000000 1.000000 0.000000
vn 0.000000 0.784788 0.619764
vn -0.000000 0.784788 0.619764
vn -0.000000 0.898263 0.439459
vn -0.000000 0.963938 0.266128
vn -0.000000 0.898263 0.439459
vn -0.000000 0.990915 0.134490
vn -0.000000 0.963938 0.266128
vn -0.000000 0.990915 0.134490
vn -0.000000 0.998999 0.044740
vn 0.000000 0.998999 0.044740
vn -0.784788 0.000000 0.619764
vn -0.784788 0.000000 0.619764
vn -0.898263 0.000000 0.439459
vn -0.963938 0.000000 0.266128
vn -0.898263 0.000000 0.439459
vn -0.990918 0.000000 0.134469
vn -0.963938 0.000000 0.266128
vn -0.990918 0.000000 0.134469
vn -0.998998 0.000000 0.044762
vn -0.998998 0.000000 0.044762
vn 0.000000 -0.784784 0.619769
vn 0.000000 -0.898265 0.439455
vn 0.000000 -0.784784 0.619769
vn 0.000000 -0.963936 0.266133
vn 0.000000 -0.898265 0.439455
vn 0.000000 -0.963936 0.266133
vn 0.000000 -0.990916 0.134480
vn 0.000000 -0.990916 0.134480
vn 0.000000 -0.998999 0.044740
vn 0.000000 -0.998999 0.044740
vn 0.784788 0.000000 0.619764
vn 0.898263 0.000000 0.439459
vn 0.784788 0.000000 0.619764
vn 0.963938 0.000000 0.266128
vn 0.898263 0.000000 0.439459
vn 0.963938 0.000000 0.266128
vn 0.990918 0.000000 0.134469
vn 0.998998 0.000000 0.044762
vn 0.990918 0.000000 0.134469
vn 0.998998 0.000000 0.044762
vn 0.000000 0.000000 1.000000
vn 0.000000 0.000000 1.000000
vn 1.000000 0.000000 0.000000
vn 1.000000 0.000000 0.000000
vn 0.000000 1.000000 -0.000000
vn 0.000000 1.000000 0.000000
vn -0.000000 0.784788 0.619764
vn -0.000000 0.898263 0.439459
vn -0.000000 0.784788 0.619764
vn -0.000000 0.963938 0.266128
vn -0.000000 0.898263 0.439459
vn -0.000000 0.990915 0.134490
vn -0.000000 0.963938 0.266128
vn -0.000000 0.990915 0.134490
vn -0.000000 0.998999 0.044740
vn 0.000000 0.998999 0.044740
vn -0.784788 0.000000 0.619764
vn -0.898263 0.000000 0.439459
vn -0.784788 0.000000 0.619764
vn -0.898263 0.000000 0.439459
vn -0.963938 0.000000 0.266128
vn -0.990918 0.000000 0.134469
vn -0.963938 0.000000 0.266128
vn -0.990918 0.000000 0.134469
vn -0.998998 0.000000 0.044762
vn -0.998998 0.000000 0.044762
vn 0.000000 -0.784784 0.619769
vn 0.000000 -0.784784 0.619769
vn 0.000000 -0.898265 0.439455
vn 0.000000 -0.963936 0.266133
vn 0.000000 -0.898265 0.439455
vn 0.000000 -0.963936 0.266133
vn 0.000000 -0.990916 0.134480
vn 0.000000 -0.998999 0.044740
vn 0.000000 -0.990916 0.134480
vn 0.000000 -0.998999 0.044740
vn 0.784788 0.000000 0.619764
vn 0.784788 0.000000 0.619764
vn 0.898263 0.000000 0.439459
vn 0.898263 0.000000 0.439459
vn 0.963938 0.000000 0.266128
vn 0.963938 0.000000 0.266128
vn 0.990918 0.000000 0.134469
vn 0.998998 0.000000 0.044762
vn 0.990918 0.000000 0.134469
vn 0.998998 0.000000 0.044762
vn -1.000000 0.000000 0.000000
vn -1.000000 0.000000 0.000000
f 1//1 2//1 3//1
f 4//2 1//2 3//2
f 5//3 3//3 6//3
f 5//4 4//4 3//4
f 7//5 6//5 8//5
f 7//6 5//6 6//6
f 2//7 9//7 10//7
f 3//8 10//8 11//8
f 3//9 2//9 10//9
f 6//10 3//10 11//10
f 8//11 11//11 12//11
f 8//12 6//12 11//12
f 9//13 13//13 14//13
f 10//14 14//14 15//14
f 10//15 9//15 14//15
f 11//16 15//16 16//16
f 11//17 10//17 15//17
f 12//18 11//18 16//18
f 14//19 1//19 4//19
f 14//20 4//20 5//20
f 14//21 13//21 1//21
f 15//22 5//22 7//22
f 15//23 14//23 5//23
f 16//24 15//24 7//24
f 17//25 18//25 19//25
f 20//26 19//26 21//26
f 20//27 17//27 19//27
f 22//28 21//28 23//28
f 22//29 20//29 21//29
f 24//30 22//30 23//30
f 18//31 25//31 26//31
f 19//32 18//32 26//32
f 21//33 26//33 27//33
f 21//34 19//34 26//34
f 23//35 27//35 28//35
f 23//36 21//36 27//36
f 26//37 29//37 30//37
f 26//38 25//38 29//38
f 27//39 30//39 31//39
f 27//40 26//40 30//40
f 28//41 31//41 32//41
f 28//42 27//42 31//42
f 29//43 17//43 20//43
f 30//44 20//44 22//44
f 30//45 29//45 20//45
f 31//46 22//46 24//46
f 31//47 30//47 22//47
f 32//48 31//48 24//48
f 33//49 34//49 35//49
f 35//50 34//50 36//50
f 36//51 37//51 38//51
f 34//52 37//52 36//52
f 38//53 39//53 40//53
f 37//54 39//54 38//54
f 40//55 41//55 42//55
f 39//56 41//56 40//56
f 42//57 43//57 44//57
f 41//58 43//58 42//58
f 44//59 45//59 46//59
f 46//60 45//60 47//60
f 43//61 45//61 44//61
f 45//62 48//62 47//62
f 47//63 49//63 50//63
f 48//64 49//64 47//64
f 50//65 51//65 52//65
f 49//66 51//66 50//66
f 52//67 53//67 54//67
f 54//68 53//68 55//68
f 51//69 53//69 52//69
f 53//70 56//70 55//70
f 55//71 57//71 58//71
f 56//72 57//72 55//72
f 58//73 59//73 60//73
f 60//74 59//74 61//74
f 57//75 59//75 58//75
f 59//76 62//76 61//76
f 62//77 63//77 61//77
f 61//78 63//78 64//78
f 64//79 63//79 65//79
f 63//80 66//80 65//80
f 66//81 67//81 65//81
f 65//82 67//82 68//82
f 67//83 69//83 68//83
f 68//84 69//84 70//84
f 71//85 72//85 73//85
f 73//86 72//86 74//86
f 74//87 75//87 76//87
f 72//88 75//88 74//88
f 76//89 77//89 78//89
f 75//90 77//90 76//90
f 78//91 79//91 80//91
f 80//92 79//92 81//92
f 77//93 79//93 78//93
f 79//94 82//94 81//94
f 81//95 83//95 84//95
f 82//96 83//96 81//96
f 84//97 85//97 86//97
f 83//98 85//98 84//98
f 86//99 87//99 88//99
f 88//100 87//100 89//100
f 85//101 87//101 86//101
f 87//102 90//102 89//102
f 89//103 91//103 92//103
f 90//104 91//104 89//104
f 92//105 93//105 94//105
f 94//106 93//106 95//106
f 91//107 93//107 92//107
f 93//108 96//108 95//108
f 95//109 97//109 98//109
f 96//110 97//110 95//110
f 97//111 99//111 98//111
f 98//112 99//112 100//112
f 99//113 101//113 100//113
f 100//114 101//114 102//114
f 102//115 101//115 103//115
f 101//116 104//116 103//116
f 104//117 105//117 103//117
f 103//118 105//118 106//118
f 105//119 107//119 106//119
f 106//120 107//120 108//120
f 108//121 107//121 109//121
f 107//122 110//122 109//122
f 110//123 111//123 109//123
f 109//124 111//124 112//124
f 112//125 111//125 113//125
f 111//126 114//126 113//126
f 115//127 116//127 117//127
f 118//128 116//128 115//128
f 60//129 61//129 119//129
f 64//130 119//130 61//130
f 58//131 60//131 119//131
f 65//132 119//132 64//132
f 55//133 58//133 119//133
f 68//134 119//134 65//134
f 54//135 55//135 119//135
f 70//136 119//136 68//136
f 52//137 54//137 119//137
f 50//138 52//138 119//138
f 47//139 50//139 119//139
f 103//140 44//140 46//140
f 102//141 103//141 46//141
f 106//142 44//142 103//142
f 106//143 42//143 44//143
f 100//144 47//144 119//144
f 100//145 102//145 46//145
f 100//146 46//146 47//146
f 108//147 42//147 106//147
f 108//148 40//148 42//148
f 120//149 70//149 121//149
f 120//150 121//150 122//150
f 120//151 122//151 123//151
f 120//152 123//152 124//152
f 120//153 124//153 125//153
f 120//154 125//154 126//154
f 120//155 126//155 127//155
f 120//156 127//156 128//156
f 120//157 128//157 129//157
f 98//158 100//158 119//158
f 109//159 40//159 108//159
f 109//160 38//160 40//160
f 95//161 98//161 119//161
f 130//162 120//162 129//162
f 112//163 38//163 109//163
f 112//164 36//164 38//164
f 131//165 120//165 130//165
f 113//166 132//166 35//166
f 113//167 35//167 36//167
f 113//168 36//168 112//168
f 133//169 134//169 132//169
f 133//170 132//170 113//170
f 135//171 136//171 134//171
f 135//172 134//172 133//172
f 137//173 89//173 92//173
f 137//174 92//174 94//174
f 137//175 94//175 95//175
f 137//176 95//176 119//176
f 88//177 89//177 137//177
f 138//178 136//178 135//178
f 138//179 139//179 136//179
f 86//180 88//180 137//180
f 140//181 141//181 139//181
f 140//182 139//182 138//182
f 84//183 86//183 137//183
f 142//184 141//184 140//184
f 142//185 143//185 141//185
f 81//186 84//186 137//186
f 144//187 143//187 142//187
f 80//188 81//188 137//188
f 145//189 143//189 144//189
f 145//190 120//190 131//190
f 145//191 131//191 143//191
f 78//192 80//192 137//192
f 146//193 120//193 145//193
f 76//194 78//194 137//194
f 147//195 120//195 146//195
f 74//196 76//196 137//196
f 73//197 74//197 137//197
f 148//198 147//198 149//198
f 148//199 149//199 150//199
f 148//200 150//200 151//200
f 148//201 151//201 152//201
f 148//202 152//202 153//202
f 148//203 153//203 154//203
f 148//204 154//204 155//204
f 148//205 155//205 156//205
f 148//206 156//206 157//206
f 148//207 157//207 158//207
f 148//208 158//208 159//208
f 148//209 159//209 73//209
f 148//210 120//210 147//210
f 120//211 119//211 70//211
f 137//212 148//212 73//212
f 137//213 119//213 115//213
f 117//214 137//214 115//214
f 116//215 118//215 120//215
f 116//216 120//216 148//216
f 148//217 117//217 116//217
f 148//218 137//218 117//218
f 160//219 93//219 91//219
f 160//220 96//220 93//220
f 160//221 97//221 96//221
f 160//222 99//222 97//222
f 160//223 101//223 99//223
f 160//224 104//224 101//224
f 160//225 105//225 104//225
f 160//226 107//226 105//226
f 160//227 110//227 107//227
f 160//228 111//228 110//228
f 160//229 114//229 111//229
f 161//230 162//230 114//230
f 161//231 163//231 162//231
f 161//232 164//232 163//232
f 161//233 165//233 164//233
f 161//234 166//234 165//234
f 161//235 114//235 160//235
f 167//236 85//236 83//236
f 167//237 87//237 85//237
f 167//238 90//238 87//238
f 167//239 91//239 90//239
f 167//240 160//240 91//240
f 82//241 167//241 83//241
f 168//242 166//242 161//242
f 79//243 167//243 82//243
f 169//244 168//244 161//244
f 77//245 167//245 79//245
f 170//246 169//246 161//246
f 75//247 167//247 77//247
f 171//248 170//248 161//248
f 72//249 167//249 75//249
f 172//250 171//250 161//250
f 71//251 167//251 72//251
f 71//252 173//252 167//252
f 174//253 172//253 161//253
f 174//254 161//254 173//254
f 175//255 173//255 71//255
f 176//256 174//256 173//256
f 177//257 173//257 175//257
f 178//258 176//258 173//258
f 179//259 173//259 177//259
f 180//260 178//260 173//260
f 181//261 173//261 179//261
f 182//262 180//262 173//262
f 183//263 173//263 181//263
f 183//264 182//264 173//264
f 114//265 162//265 113//265
f 113//266 162//266 133//266
f 133//267 163//267 135//267
f 162//268 163//268 133//268
f 135//269 164//269 138//269
f 163//270 164//270 135//270
f 138//271 165//271 140//271
f 164//272 165//272 138//272
f 140//273 166//273 142//273
f 165//274 166//274 140//274
f 142//275 168//275 144//275
f 166//276 168//276 142//276
f 144//277 169//277 145//277
f 145//278 169//278 146//278
f 168//279 169//279 144//279
f 169//280 170//280 146//280
f 146//281 171//281 147//281
f 170//282 171//282 146//282
f 147//283 172//283 149//283
f 171//284 172//284 147//284
f 149//285 174//285 150//285
f 172//286 174//286 149//286
f 150//287 176//287 151//287
f 174//288 176//288 150//288
f 151//289 178//289 152//289
f 176//290 178//290 151//290
f 178//291 180//291 152//291
f 152//292 180//292 153//292
f 180//293 182//293 153//293
f 153//294 182//294 154//294
f 182//295 183//295 154//295
f 154//296 183//296 155//296
f 155//297 183//297 156//297
f 183//298 181//298 156//298
f 181//299 179//299 156//299
f 156//300 179//300 157//300
f 179//301 177//301 157//301
f 157//302 177//302 158//302
f 177//303 175//303 158//303
f 158//304 175//304 159//304
f 175//305 71//305 159//305
f 159//306 71//306 73//306
f 184//307 53//307 51//307
f 184//308 56//308 53//308
f 184//309 57//309 56//309
f 184//310 59//310 57//310
f 184//311 62//311 59//311
f 184//312 63//312 62//312
f 184//313 66//313 63//313
f 184//314 67//314 66//314
f 184//315 69//315 67//315
f 185//316 186//316 69//316
f 185//317 187//317 186//317
f 185//318 188//318 187//318
f 185//319 189//319 188//319
f 185//320 69//320 184//320
f 190//321 45//321 43//321
f 190//322 48//322 45//322
f 190//323 49//323 48//323
f 190//324 51//324 49//324
f 190//325 184//325 51//325
f 191//326 189//326 185//326
f 41//327 190//327 43//327
f 192//328 191//328 185//328
f 39//329 190//329 41//329
f 193//330 192//330 185//330
f 37//331 190//331 39//331
f 194//332 193//332 185//332
f 34//333 190//333 37//333
f 195//334 185//334 196//334
f 195//335 194//335 185//335
f 33//336 196//336 190//336
f 33//337 190//337 34//337
f 197//338 195//338 196//338
f 198//339 196//339 33//339
f 199//340 197//340 196//340
f 200//341 196//341 198//341
f 201//342 199//342 196//342
f 202//343 196//343 200//343
f 203//344 201//344 196//344
f 204//345 196//345 202//345
f 204//346 203//346 196//346
f 69//347 186//347 70//347
f 70//348 186//348 121//348
f 121//349 186//349 122//349
f 186//350 187//350 122//350
f 122//351 188//351 123//351
f 123//352 188//352 124//352
f 187//353 188//353 122//353
f 188//354 189//354 124//354
f 124//355 191//355 125//355
f 189//356 191//356 124//356
f 125//357 192//357 126//357
f 191//358 192//358 125//358
f 126//359 193//359 127//359
f 127//360 193//360 128//360
f 192//361 193//361 126//361
f 193//362 194//362 128//362
f 128//363 195//363 129//363
f 194//364 195//364 128//364
f 129//365 197//365 130//365
f 195//366 197//366 129//366
f 130//367 199//367 131//367
f 197//368 199//368 130//368
f 131//369 201//369 143//369
f 199//370 201//370 131//370
f 143//371 203//371 141//371
f 141//372 203//372 139//372
f 201//373 203//373 143//373
f 203//374 204//374 139//374
f 204//375 202//375 139//375
f 139//376 202//376 136//376
f 202//377 200//377 136//377
f 136//378 200//378 134//378
f 134//379 200//379 132//379
f 200//380 198//380 132//380
f 132//381 198//381 35//381
f 198//382 33//382 35//382
f 205//383 185//383 184//383
f 205//384 184//384 206//384
f 190//385 207//385 206//385
f 190//386 206//386 184//386
f 208//387 161//387 160//387
f 208//388 160//388 209//388
f 167//389 210//389 209//389
f 167//390 209//390 160//390
f 17//391 29//391 25//391
f 17//392 25//392 18//392
f 211//393 207//393 190//393
f 211//394 190//394 196//394
f 196//395 205//395 211//395
f 196//396 185//396 205//396
f 212//397 32//397 24//397
f 212//398 24//398 213//398
f 212//399 213//399 214//399
f 215//400 214//400 216//400
f 215//401 212//401 214//401
f 217//402 216//402 218//402
f 217//403 215//403 216//403
f 219//404 217//404 218//404
f 205//405 218//405 211//405
f 205//406 219//406 218//406
f 220//407 28//407 32//407
f 220//408 32//408 212//408
f 220//409 212//409 215//409
f 221//410 215//410 217//410
f 221//411 220//411 215//411
f 222//412 217//412 219//412
f 222//413 221//413 217//413
f 223//414 222//414 219//414
f 206//415 219//415 205//415
f 206//416 223//416 219//416
f 23//417 28//417 220//417
f 224//418 220//418 221//418
f 224//419 23//419 220//419
f 225//420 221//420 222//420
f 225//421 224//421 221//421
f 226//422 225//422 222//422
f 227//423 222//423 223//423
f 227//424 226//424 222//424
f 207//425 223//425 206//425
f 207//426 227//426 223//426
f 24//427 23//427 224//427
f 213//428 224//428 225//428
f 213//429 24//429 224//429
f 214//430 225//430 226//430
f 214//431 213//431 225//431
f 216//432 214//432 226//432
f 218//433 226//433 227//433
f 218//434 227//434 207//434
f 218//435 216//435 226//435
f 211//436 218//436 207//436
f 1//437 13//437 9//437
f 1//438 9//438 2//438
f 228//439 210//439 167//439
f 228//440 167//440 173//440
f 173//441 208//441 228//441
f 173//442 161//442 208//442
f 16//443 7//443 229//443
f 230//444 229//444 231//444
f 230//445 16//445 229//445
f 232//446 231//446 233//446
f 232//447 230//447 231//447
f 234//448 233//448 235//448
f 234//449 232//449 233//449
f 236//450 234//450 235//450
f 208//451 235//451 228//451
f 208//452 236//452 235//452
f 12//453 16//453 230//453
f 237//454 230//454 232//454
f 237//455 12//455 230//455
f 238//456 237//456 232//456
f 239//457 232//457 234//457
f 239//458 234//458 236//458
f 239//459 238//459 232//459
f 240//460 239//460 236//460
f 209//461 236//461 208//461
f 209//462 240//462 236//462
f 241//463 8//463 12//463
f 241//464 12//464 237//464
f 241//465 237//465 238//465
f 242//466 238//466 239//466
f 242//467 241//467 238//467
f 243//468 242//468 239//468
f 244//469 239//469 240//469
f 244//470 240//470 209//470
f 244//471 243//471 239//471
f 210//472 244//472 209//472
f 229//473 7//473 8//473
f 229//474 8//474 241//474
f 231//475 241//475 242//475
f 231//476 229//476 241//476
f 233//477 242//477 243//477
f 233//478 231//478 242//478
f 235//479 243//479 244//479
f 235//480 244//480 210//480
f 235//481 233//481 243//481
f 228//482 235//482 210//482
f 119//483 120//483 118//483
f 119//484 118//484 115//484
