# WaveFront *.obj file
# Vertices: 272
# Triangles : 544

v -2.2590319469051967e-01 7.9786058479300842e-02 -2.7879379209548976e+00
v -2.3287331753705870e-01 7.9786058479300842e-02 -2.8229790948062718e+00
v -2.5272254805761113e-01 7.9786058479300856e-02 -2.8526855675878062e+00
v -2.8242902083914556e-01 7.9786058479300856e-02 -2.8725347981083589e+00
v -3.1747019469051985e-01 7.9786058479300856e-02 -2.8795049209548980e+00
v -3.5251136854189413e-01 7.9786058479300856e-02 -2.8725347981083589e+00
v -3.8221784132342856e-01 7.9786058479300856e-02 -2.8526855675878062e+00
v -4.0206707184398099e-01 7.9786058479300842e-02 -2.8229790948062718e+00
v -4.0903719469052002e-01 7.9786058479300842e-02 -2.7879379209548976e+00
v -4.0206707184398099e-01 7.9786058479300842e-02 -2.7528967471035233e+00
v -3.8221784132342856e-01 7.9786058479300828e-02 -2.7231902743219889e+00
v -3.5251136854189413e-01 7.9786058479300828e-02 -2.7033410438014362e+00
v -3.1747019469051985e-01 7.9786058479300828e-02 -2.6963709209548972e+00
v -2.8242902083914556e-01 7.9786058479300828e-02 -2.7033410438014362e+00
v -2.5272254805761113e-01 7.9786058479300828e-02 -2.7231902743219889e+00
v -2.3287331753705870e-01 7.9786058479300842e-02 -2.7528967471035233e+00
v -2.2590319469051967e-01 4.1686058479300847e-02 -2.7879379209548976e+00
v -2.3287331753705870e-01 4.1686058479300840e-02 -2.7528967471035233e+00
v -2.5272254805761113e-01 4.1686058479300840e-02 -2.7231902743219889e+00
v -2.8242902083914556e-01 4.1686058479300840e-02 -2.7033410438014362e+00
v -3.1747019469051985e-01 4.1686058479300840e-02 -2.6963709209548972e+00
v -3.5251136854189413e-01 4.1686058479300840e-02 -2.7033410438014362e+00
v -3.8221784132342856e-01 4.1686058479300840e-02 -2.7231902743219889e+00
v -4.0206707184398099e-01 4.1686058479300840e-02 -2.7528967471035233e+00
v -4.0903719469052002e-01 4.1686058479300847e-02 -2.7879379209548976e+00
v -4.0206707184398099e-01 4.1686058479300854e-02 -2.8229790948062718e+00
v -3.8221784132342856e-01 4.1686058479300854e-02 -2.8526855675878062e+00
v -3.5251136854189413e-01 4.1686058479300854e-02 -2.8725347981083589e+00
v -3.1747019469051985e-01 4.1686058479300854e-02 -2.8795049209548980e+00
v -2.8242902083914556e-01 4.1686058479300854e-02 -2.8725347981083589e+00
v -2.5272254805761113e-01 4.1686058479300854e-02 -2.8526855675878062e+00
v -2.3287331753705870e-01 4.1686058479300854e-02 -2.8229790948062718e+00
v -2.3182117851784104e-01 6.7537643080664012e-02 -2.7879379209548976e+00
v -2.3182117851784104e-01 5.3934473877937698e-02 -2.7879379209548976e+00
v -2.3601313974522467e-01 6.7537643080664012e-02 -2.8144049225037500e+00
v -2.3601313974522467e-01 5.3934473877937705e-02 -2.8144049225037500e+00
v -2.4817868505532797e-01 6.7537643080664012e-02 -2.8382811495345575e+00
v -2.4817868505532797e-01 5.3934473877937705e-02 -2.8382811495345575e+00
v -2.6712696611085973e-01 6.7537643080664012e-02 -2.8572294305900896e+00
v -2.6712696611085973e-01 5.3934473877937705e-02 -2.8572294305900896e+00
v -2.9100319314166734e-01 6.7537643080664025e-02 -2.8693949759001929e+00
v -2.9100319314166734e-01 5.3934473877937705e-02 -2.8693949759001929e+00
v -3.4393719623937236e-01 6.7537643080664025e-02 -2.8693949759001929e+00
v -3.4393719623937236e-01 5.3934473877937705e-02 -2.8693949759001929e+00
v -3.1747019469051985e-01 5.3934473877937705e-02 -2.8735869371275764e+00
v -3.1747019469051985e-01 6.7537643080664025e-02 -2.8735869371275764e+00
v -3.6781342327017996e-01 6.7537643080664012e-02 -2.8572294305900896e+00
v -3.6781342327017996e-01 5.3934473877937705e-02 -2.8572294305900896e+00
v -3.8676170432571172e-01 6.7537643080664012e-02 -2.8382811495345575e+00
v -3.8676170432571172e-01 5.3934473877937705e-02 -2.8382811495345575e+00
v -3.9892724963581505e-01 6.7537643080664012e-02 -2.8144049225037500e+00
v -3.9892724963581505e-01 5.3934473877937705e-02 -2.8144049225037500e+00
v -3.9892724963581505e-01 6.7537643080664012e-02 -2.7614709194060452e+00
v -3.9892724963581505e-01 5.3934473877937691e-02 -2.7614709194060452e+00
v -4.0311921086319863e-01 5.3934473877937698e-02 -2.7879379209548976e+00
v -4.0311921086319863e-01 6.7537643080664012e-02 -2.7879379209548976e+00
v -3.8676170432571172e-01 6.7537643080664012e-02 -2.7375946923752377e+00
v -3.8676170432571172e-01 5.3934473877937691e-02 -2.7375946923752377e+00
v -3.6781342327017996e-01 6.7537643080664012e-02 -2.7186464113197055e+00
v -3.6781342327017996e-01 5.3934473877937691e-02 -2.7186464113197055e+00
v -3.4393719623937236e-01 6.7537643080663998e-02 -2.7064808660096022e+00
v -3.4393719623937236e-01 5.3934473877937691e-02 -2.7064808660096022e+00
v -2.9100319314166734e-01 6.7537643080663998e-02 -2.7064808660096022e+00
v -2.9100319314166734e-01 5.3934473877937691e-02 -2.7064808660096022e+00
v -3.1747019469051985e-01 5.3934473877937691e-02 -2.7022889047822187e+00
v -3.1747019469051985e-01 6.7537643080663998e-02 -2.7022889047822187e+00
v -2.6712696611085973e-01 6.7537643080664012e-02 -2.7186464113197055e+00
v -2.6712696611085973e-01 5.3934473877937691e-02 -2.7186464113197055e+00
v -2.4817868505532797e-01 6.7537643080664012e-02 -2.7375946923752377e+00
v -2.4817868505532797e-01 5.3934473877937691e-02 -2.7375946923752377e+00
v -2.3601313974522467e-01 6.7537643080664012e-02 -2.7614709194060452e+00
v -2.3601313974522467e-01 5.3934473877937691e-02 -2.7614709194060452e+00
v -1.9047022775442091e-01 6.0990058479300668e-02 -1.3401379241341196e+00
v -1.9673600804528438e-01 6.0990058479300668e-02 -1.3327571480485139e+00
v -2.0300178833614785e-01 6.0990058479300668e-02 -1.3253763719629077e+00
v -2.0300178833614785e-01 6.0482058479300688e-02 -1.3253763719629077e+00
v -1.9673600804528438e-01 6.0482058479300688e-02 -1.3327571480485134e+00
v -1.9047022775442091e-01 6.0482058479300688e-02 -1.3401379241341194e+00
v -2.0926622783140086e-01 7.9786058479300676e-02 -1.3370622110342272e+00
v -2.0834447898553465e-01 6.7021954016057178e-02 -1.3242701960065546e+00
v -2.0616971279129948e-01 6.6305568494103628e-02 -1.3247370790096891e+00
v -2.0448518213018169e-01 6.4953437956364934e-02 -1.3250830294088010e+00
v -2.0338281674693154e-01 6.3093399604195022e-02 -1.3253020865893150e+00
v -1.9190890818653761e-01 6.8173083161548492e-02 -1.3399565125745987e+00
v -1.9603262219322948e-01 7.4336648564687677e-02 -1.3393891353927434e+00
v -2.0209805054599611e-01 7.8363639923355544e-02 -1.3384263318513105e+00
v -2.0006276868340295e-01 6.9439096472121251e-02 -1.3322668666266499e+00
v -2.0430875841851923e-01 7.2410190189436202e-02 -1.3315500116879324e+00
v -1.9694023566275617e-01 6.3185717746280179e-02 -1.3327291589023091e+00
v -2.0834447898553468e-01 5.4450162942544178e-02 -1.3242701960065544e+00
v -2.0926622783140089e-01 4.1686058479300681e-02 -1.3370622110342270e+00
v -2.0209805054599722e-01 4.3108477035245348e-02 -1.3384263318513099e+00
v -1.9603262219323064e-01 4.7135468393912493e-02 -1.3393891353927432e+00
v -1.9190890818653839e-01 5.3299033797050754e-02 -1.3399565125745985e+00
v -2.0338281674693162e-01 5.8378717354406265e-02 -1.3253020865893150e+00
v -2.0448518213018177e-01 5.6518679002236394e-02 -1.3250830294088010e+00
v -2.0616971279129959e-01 5.5166548464497658e-02 -1.3247370790096886e+00
v -2.0564146657281310e-01 4.8583290688471233e-02 -1.3313021939437955e+00
v -2.0159585300557281e-01 5.0640618260641326e-02 -1.3320203796876773e+00
v -2.0006276868340295e-01 5.2033020486480119e-02 -1.3322668666266499e+00
v -1.9694023566275609e-01 5.8286399212321420e-02 -1.3327291589023091e+00
v -3.9388162108814717e-01 7.9786058479300648e-02 -1.1247217700215839e+00
v -3.8121195677626879e-01 6.7086058479300659e-02 -1.1238444979860602e+00
v -3.7015719687698451e-01 6.7086058479300645e-02 -1.1791690466688673e+00
v -3.4544493134089294e-01 6.7086058479300645e-02 -1.2298870645270292e+00
v -3.0868806997087622e-01 6.7086058479300659e-02 -1.2726883092006658e+00
v -2.6228564420904510e-01 6.7086058479300659e-02 -1.3047792469682797e+00
v -2.0926622815676874e-01 6.7086058479300686e-02 -1.3240653799363671e+00
v -2.1204752405115748e-01 7.9786058479300703e-02 -1.3364570865641021e+00
v -2.5916280886223575e-01 7.9786058479300676e-02 -1.3204489128315327e+00
v -3.0181704793392478e-01 7.9786058479300676e-02 -1.2948222162380123e+00
v -3.3807371399907060e-01 7.9786058479300662e-02 -1.2607404637167341e+00
v -3.6628673332668404e-01 7.9786058479300662e-02 -1.2197509866585809e+00
v -3.8517521842689950e-01 7.9786058479300662e-02 -1.1737147311668483e+00
v -2.0969032863682283e-01 7.3427241480979677e-02 -1.3304754237760008e+00
v -3.8171896699162555e-01 6.7086058479300631e-02 -1.1115979394879629e+00
v -3.9423035372379661e-01 7.7612086593003560e-02 -1.1117683750348475e+00
v -3.9335323195287869e-01 7.3742700991133336e-02 -1.1036430506378383e+00
v -3.9195071316465446e-01 6.8902892348139275e-02 -1.0978215430019336e+00
v -3.9079767281776712e-01 6.4298942790506131e-02 -1.0948096500819520e+00
v -3.9043755852545048e-01 6.0990058623077853e-02 -1.0941000353981665e+00
v -3.8151999107058321e-01 6.0990058512522038e-02 -1.0987469828906922e+00
v -3.8152288783527588e-01 6.1415505707549632e-02 -1.0988078598144286e+00
v -3.8153788813388578e-01 6.2118842637526768e-02 -1.0991552173355044e+00
v -3.8162573240956149e-01 6.4363420792993425e-02 -1.1015036356317609e+00
v -3.8172424645043573e-01 6.6346475816814271e-02 -1.1059992864460915e+00
v -3.8678822278710789e-01 6.6633156570566371e-02 -1.0996625893168472e+00
v -3.8787893954584457e-01 7.1706758345857324e-02 -1.1091401807303749e+00
v -3.8639817351664157e-01 6.4633237109450098e-02 -1.0978503522927761e+00
v -3.8600450428188854e-01 6.1724493788134570e-02 -1.0964816742016625e+00
v -3.9043755852545037e-01 6.0482058479300660e-02 -1.0941000353981665e+00
v -3.8151999107058321e-01 6.0482058479300660e-02 -1.0987469828906919e+00
v -3.9080754302224752e-01 5.7121918830763681e-02 -1.0948315081186937e+00
v -3.9191425366591154e-01 5.2697006575726124e-02 -1.0977078920844556e+00
v -3.9331817699772170e-01 4.7855073760446142e-02 -1.1034474357809454e+00
v -3.9423035372379661e-01 4.3860030365597713e-02 -1.1117683750348475e+00
v -3.8171896699162555e-01 5.4386058479300670e-02 -1.1115979394879629e+00
v -3.8172241102922327e-01 5.5166725438964795e-02 -1.1058544423892478e+00
v -3.8162279709111957e-01 5.7169676045306983e-02 -1.1014127893030075e+00
v -3.8153853167319107e-01 5.9330685351348653e-02 -1.0991706700725574e+00
v -3.8152325419535871e-01 6.0037181939870295e-02 -1.0988166803568600e+00
v -3.8612018869751191e-01 5.8611247182573191e-02 -1.0968244633684747e+00
v -3.8656775443541103e-01 5.5929807652174937e-02 -1.0985840335788153e+00
v -3.8676852537851558e-01 5.4933341310516574e-02 -1.0995603406937315e+00
v -3.8698438856000161e-01 5.3922322468708421e-02 -1.1007528011079339e+00
v -3.8786127295623046e-01 4.9863727269022523e-02 -1.1088172823590738e+00
v -3.8789505203153768e-01 7.3157710601082185e-02 -1.1178376990555972e+00
v -3.8121195677626879e-01 5.4386058479300670e-02 -1.1238444979860605e+00
v -3.9388162108814717e-01 4.1686058479300681e-02 -1.1247217700215837e+00
v -3.8517521842689950e-01 4.1686058479300694e-02 -1.1737147311668483e+00
v -3.6628673332668404e-01 4.1686058479300694e-02 -1.2197509866585809e+00
v -3.3807371399907066e-01 4.1686058479300701e-02 -1.2607404637167341e+00
v -3.0181704793392483e-01 4.1686058479300701e-02 -1.2948222162380121e+00
v -2.5916280886223581e-01 4.1686058479300708e-02 -1.3204489128315327e+00
v -2.1204752405115748e-01 4.1686058479300681e-02 -1.3364570865641023e+00
v -2.0926622815676874e-01 5.4386058479300670e-02 -1.3240653799363671e+00
v -2.6228564420904510e-01 5.4386058479300697e-02 -1.3047792469682797e+00
v -3.0868806997087622e-01 5.4386058479300690e-02 -1.2726883092006658e+00
v -3.4544493134089294e-01 5.4386058479300690e-02 -1.2298870645270292e+00
v -3.7015719687698451e-01 5.4386058479300683e-02 -1.1791690466688673e+00
v -3.8790663883678683e-01 4.8343271133817145e-02 -1.1175157430132108e+00
v -2.0975668300166167e-01 4.8043710467436718e-02 -1.3304609010390087e+00
v -2.0926619151129863e-01 7.9786058479300787e-02 -2.7879379246046438e+00
v -2.1579353286369585e-01 7.9786058479300842e-02 -2.8249509287192311e+00
v -2.3458803869942016e-01 7.9786058479300856e-02 -2.8574983588652207e+00
v -2.6338217495187966e-01 7.9786058479300856e-02 -2.8816534075340181e+00
v -2.9870196441511648e-01 7.9786058479300856e-02 -2.8945017977440717e+00
v -3.3628611783083501e-01 7.9786058479300856e-02 -2.8944933869826275e+00
v -3.7160015320844353e-01 7.9786058479300856e-02 -2.8816291899977315e+00
v -4.0038347551301656e-01 7.9786058479300856e-02 -2.8574612563701285e+00
v -4.1916341222813924e-01 7.9786058479300842e-02 -2.8249054176358372e+00
v -4.2567418703374260e-01 7.9786058479300870e-02 -2.7878894957893143e+00
v -4.2532177620982137e-01 7.9786058479300648e-02 -1.2130853295143578e+00
v -4.2170017927668541e-01 7.9786058479300676e-02 -1.1814811553646565e+00
v -4.1103656211993256e-01 7.9786058479300676e-02 -1.1515107189786951e+00
v -1.9047019151129860e-01 6.0990058479300835e-02 -2.7879379241341193e+00
v -1.9298837802176630e-01 7.0388058479300825e-02 -2.7879379241971578e+00
v -1.9986819151129862e-01 7.7267871968833141e-02 -2.7879379243693814e+00
v -1.9047019151129860e-01 6.0482058479300882e-02 -2.7879379241341189e+00
v -2.0926619151129863e-01 4.1686058479300819e-02 -2.7879379236635939e+00
v -1.9986819151129862e-01 4.4204244989768514e-02 -2.7879379238988564e+00
v -1.9298837802176630e-01 5.1084058479300837e-02 -2.7879379240710804e+00
v -4.1103656211993256e-01 4.1686058479300674e-02 -1.1515107189786953e+00
v -4.2170017927668541e-01 4.1686058479300674e-02 -1.1814811553646567e+00
v -4.2532177620982148e-01 4.1686058479300681e-02 -1.2130853295143580e+00
v -4.2567418562206333e-01 4.1686058479300792e-02 -2.7878852900831941e+00
v -4.1916468934414719e-01 4.1686058479300854e-02 -2.8249019042515098e+00
v -4.0038557709409572e-01 4.1686058479300854e-02 -2.8574587499551161e+00
v -3.7160258066594326e-01 4.1686058479300861e-02 -2.8816277874966780e+00
v -3.3628841832039119e-01 4.1686058479300861e-02 -2.8944929807288240e+00
v -2.9870380477297959e-01 4.1686058479300861e-02 -2.8945021218549734e+00
v -2.6338338860045768e-01 4.1686058479300861e-02 -2.8816541079824591e+00
v -2.3458863905339727e-01 4.1686058479300854e-02 -2.8574990741884334e+00
v -2.1579369242660712e-01 4.1686058479300854e-02 -2.8249513670439268e+00
v -4.1943985586287169e-01 6.0482058479300681e-02 -1.1281011045431357e+00
v -4.3781858829366171e-01 6.0482058479300681e-02 -1.1688371837369731e+00
v -4.4411777573919142e-01 6.0482058479300660e-02 -1.2130811233375021e+00
v -4.4159958929177623e-01 5.1084058479300705e-02 -1.2130816868583481e+00
v -4.3471977597450645e-01 4.4204244989768403e-02 -1.2130832264259299e+00
v -4.1731305511723116e-01 5.1084058479300656e-02 -1.1294494301306124e+00
v -4.1150252742256577e-01 4.4204244989768340e-02 -1.1331331241407436e+00
v -4.3540030540016583e-01 5.1084058479300656e-02 -1.1695394451900845e+00
v -4.2879343366806011e-01 4.4204244989768340e-02 -1.1714580591601822e+00
v -4.4447018515143333e-01 6.0482058479300854e-02 -2.7878810839063379e+00
v -4.4195199870401808e-01 5.1084058479300816e-02 -2.7878816474271839e+00
v -4.3507218538674836e-01 4.4204244989768493e-02 -2.7878831869947658e+00
v -4.3827017283674674e-01 6.0482058479300889e-02 -2.8271344270159386e+00
v -4.2024207572003125e-01 6.0482058479300889e-02 -2.8625498588547944e+00
v -3.9215110820602450e-01 6.0482058479300889e-02 -2.8906596906242901e+00
v -3.5674778690098385e-01 6.0482058479300896e-02 -2.9087115586316297e+00
v -3.1749861480512165e-01 6.0482058479300896e-02 -2.9149379209541855e+00
v -2.7824665996433889e-01 6.0482058479300896e-02 -2.9087291256475662e+00
v -2.4283526289596738e-01 6.0482058479300889e-02 -2.8906931045883506e+00
v -2.1473171733557381e-01 6.0482058479300889e-02 -2.8625958480511504e+00
v -1.9668777146413596e-01 6.0482058479300889e-02 -2.8271884884295835e+00
v -2.0562576474008235e-01 4.4204244989768576e-02 -2.8242842363228577e+00
v -1.9908272415387512e-01 5.1084058479300892e-02 -2.8264103721516722e+00
v -2.2233472274972582e-01 4.4204244989768576e-02 -2.8570716546192085e+00
v -2.1676903011506085e-01 5.1084058479300892e-02 -2.8611157737130881e+00
v -2.4835898738656584e-01 4.4204244989768576e-02 -2.8830897584398110e+00
v -2.4431553369013728e-01 5.1084058479300892e-02 -2.8886559345129110e+00
v -2.8115036080290218e-01 4.4204244989768590e-02 -2.8997909531808559e+00
v -2.7902500719591850e-01 5.1084058479300899e-02 -2.9063342479235073e+00
v -3.1749803538020344e-01 4.4204244989768590e-02 -2.9055399208386641e+00
v -3.1749885768381275e-01 5.1084058479300899e-02 -2.9124197343237017e+00
v -3.5384298390216679e-01 4.4204244989768590e-02 -2.8997737441813149e+00
v -3.5596990162245545e-01 5.1084058479300899e-02 -2.9063165307089749e+00
v -3.8662644607754709e-01 4.4204244989768576e-02 -2.8830570254810635e+00
v -3.9067123028495260e-01 5.1084058479300892e-02 -2.8886222348724866e+00
v -4.1263838892669152e-01 4.4204244989768576e-02 -2.8570266027891296e+00
v -4.1820504822852733e-01 5.1084058479300892e-02 -2.8610693913614829e+00
v -4.2933182110488366e-01 4.4204244989768576e-02 -2.8242312769267390e+00
v -4.3587536988903075e-01 5.1084058479300892e-02 -2.8263558486366844e+00
v -4.4447018515143333e-01 6.0990058479300835e-02 -2.7878810839063384e+00
v -4.4195199889314729e-01 7.0388058479300922e-02 -2.7878822108849635e+00
v -4.3507218609258796e-01 7.7267871968833307e-02 -2.7878852898478264e+00
v -1.9668777146413596e-01 6.0990058479300842e-02 -2.8271884884295839e+00
v -2.1473171733557381e-01 6.0990058479300842e-02 -2.8625958480511509e+00
v -2.4283526289596735e-01 6.0990058479300842e-02 -2.8906931045883510e+00
v -2.7824665996433889e-01 6.0990058479300849e-02 -2.9087291256475667e+00
v -3.1749861480512165e-01 6.0990058479300849e-02 -2.9149379209541859e+00
v -3.5674778690098385e-01 6.0990058479300849e-02 -2.9087115586316301e+00
v -3.9215110820602450e-01 6.0990058479300842e-02 -2.8906596906242905e+00
v -4.2024207572003125e-01 6.0990058479300842e-02 -2.8625498588547948e+00
v -4.3827017283674674e-01 6.0990058479300842e-02 -2.8271344270159391e+00
v -4.2933097467770281e-01 7.7267871968833238e-02 -2.8242338856400320e+00
v -4.3587492190904908e-01 7.0388058479300908e-02 -2.8263572292966517e+00
v -4.1263695671422795e-01 7.7267871968833238e-02 -2.8570285755884179e+00
v -4.1820429022408362e-01 7.0388058479300908e-02 -2.8610704354623855e+00
v -3.8662472074422050e-01 7.7267871968833238e-02 -2.8830582798590432e+00
v -3.9067031714857270e-01 7.0388058479300908e-02 -2.8886228987484053e+00
v -3.5384124515016968e-01 7.7267871968833238e-02 -2.8997743096672801e+00
v -3.5596898138608585e-01 7.0388058479300922e-02 -2.9063168299890765e+00
v -3.1749651171669380e-01 7.7267871968833238e-02 -2.9055399211895008e+00
v -3.1749805128427577e-01 7.0388058479300922e-02 -2.9124197345067708e+00
v -2.8114920146141648e-01 7.7267871968833238e-02 -2.8997905767240697e+00
v -2.7902439361447873e-01 7.0388058479300922e-02 -2.9063340486820093e+00
v -2.4835824771050632e-01 7.7267871968833238e-02 -2.8830892211898251e+00
v -2.4431514221683251e-01 7.0388058479300908e-02 -2.8886556501723755e+00
v -2.2233436446952123e-01 7.7267871968833238e-02 -2.8570711615843289e+00
v -2.1676884049545389e-01 7.0388058479300908e-02 -2.8611155127739307e+00
v -2.0562567055914405e-01 7.7267871968833238e-02 -2.8242839465091669e+00
v -1.9908267430867427e-01 7.0388058479300908e-02 -2.8264102187676259e+00
v -4.4411777573919142e-01 6.0990058479300668e-02 -1.2130811233375023e+00
v -4.4159958929177617e-01 7.0388058479300714e-02 -1.2130816868583478e+00
v -4.3471977597450639e-01 7.7267871968833043e-02 -1.2130832264259299e+00
v -4.3781858829366177e-01 6.0990058479300661e-02 -1.1688371837369731e+00
v -4.1943985586287169e-01 6.0990058479300661e-02 -1.1281011045431357e+00
v -4.1150252742256577e-01 7.7267871968833002e-02 -1.1331331241407436e+00
v -4.1731305511723116e-01 7.0388058479300686e-02 -1.1294494301306124e+00
v -4.2879343366806011e-01 7.7267871968833002e-02 -1.1714580591601824e+00
v -4.3540030540016583e-01 7.0388058479300700e-02 -1.1695394451900845e+00

vn -7.2120322891177924e-01 6.2499999999999967e-01 2.9873215864252739e-01
vn -9.2707498350039896e-01 2.2314910109459163e-01 3.0122492202407630e-01
vn -7.8062474979980012e-01 6.2499999999999967e-01 1.6498789915682511e-16
vn -9.7478432418698424e-01 2.2314910109459166e-01 1.4415117724342284e-16
vn -7.8062474979980012e-01 6.2499999999999967e-01 -2.6210021078680604e-17
vn -9.7478432418698424e-01 2.2314910109459166e-01 -9.4602123251498381e-17
vn -9.2707498350039896e-01 2.2314910109459166e-01 -3.0122492202407625e-01
vn -9.7478432418698424e-01 -2.2314910109459188e-01 -1.4415117724342286e-16
vn -9.2707498350039874e-01 -2.2314910109459180e-01 -3.0122492202407630e-01
vn -7.8062474979979979e-01 -6.2499999999999989e-01 -1.6498789915682511e-16
vn -7.2120322891177913e-01 -6.2499999999999989e-01 -2.9873215864252733e-01
vn -7.8861708411756837e-01 2.2314910109459157e-01 5.7296384992299465e-01
vn -5.5198505414549093e-01 6.2499999999999967e-01 5.5198505414549037e-01
vn -5.7296384992299443e-01 2.2314910109459157e-01 7.8861708411756848e-01
vn -2.9873215864252672e-01 6.2499999999999967e-01 7.2120322891177968e-01
vn -3.0122492202407614e-01 2.2314910109459155e-01 9.2707498350039896e-01
vn 4.7799480058876427e-17 6.2499999999999956e-01 7.8062474979980012e-01
vn 5.9688325123730302e-17 2.2314910109459155e-01 9.7478432418698424e-01
vn 3.0122492202407625e-01 2.2314910109459155e-01 9.2707498350039896e-01
vn 3.0122492202407625e-01 -2.2314910109459196e-01 9.2707498350039874e-01
vn 5.7296384992299443e-01 -2.2314910109459191e-01 7.8861708411756837e-01
vn 2.9873215864252678e-01 -6.2500000000000011e-01 7.2120322891177924e-01
vn 5.5198505414549071e-01 -6.2500000000000000e-01 5.5198505414549026e-01
vn 7.8861708411756837e-01 -2.2314910109459191e-01 5.7296384992299443e-01
vn 7.2120322891177913e-01 -6.2500000000000000e-01 2.9873215864252711e-01
vn 9.2707498350039896e-01 -2.2314910109459191e-01 3.0122492202407619e-01
vn 7.8062474979979979e-01 -6.2499999999999989e-01 -8.7419471025618495e-17
vn 9.7478432418698424e-01 -2.2314910109459188e-01 -3.2279575544894744e-17
vn 9.2707498350039874e-01 -2.2314910109459180e-01 -3.0122492202407625e-01
vn 9.7478432418698424e-01 2.2314910109459166e-01 3.2279575544894688e-17
vn 9.2707498350039896e-01 2.2314910109459166e-01 -3.0122492202407619e-01
vn 7.8062474979980012e-01 6.2499999999999967e-01 8.7419471025618458e-17
vn 7.2120322891177924e-01 6.2499999999999978e-01 -2.9873215864252717e-01
vn 2.9873215864252683e-01 6.2499999999999967e-01 7.2120322891177957e-01
vn 5.7296384992299454e-01 2.2314910109459155e-01 7.8861708411756837e-01
vn 5.5198505414549093e-01 6.2499999999999967e-01 5.5198505414549037e-01
vn 7.8861708411756837e-01 2.2314910109459157e-01 5.7296384992299454e-01
vn 7.2120322891177924e-01 6.2499999999999967e-01 2.9873215864252733e-01
vn 9.2707498350039896e-01 2.2314910109459157e-01 3.0122492202407630e-01
vn 7.8861708411756837e-01 2.2314910109459171e-01 -5.7296384992299454e-01
vn 5.5198505414549082e-01 6.2499999999999967e-01 -5.5198505414549037e-01
vn 5.7296384992299454e-01 2.2314910109459174e-01 -7.8861708411756837e-01
vn 2.9873215864252678e-01 6.2499999999999989e-01 -7.2120322891177935e-01
vn 3.0122492202407625e-01 2.2314910109459174e-01 -9.2707498350039896e-01
vn 4.7799480058876421e-17 6.2499999999999989e-01 -7.8062474979979990e-01
vn 5.9688325123730302e-17 2.2314910109459174e-01 -9.7478432418698424e-01
vn -3.0122492202407614e-01 2.2314910109459174e-01 -9.2707498350039896e-01
vn -3.0122492202407619e-01 -2.2314910109459174e-01 -9.2707498350039896e-01
vn -5.7296384992299432e-01 -2.2314910109459174e-01 -7.8861708411756848e-01
vn -2.9873215864252667e-01 -6.2499999999999978e-01 -7.2120322891177946e-01
vn -5.5198505414549082e-01 -6.2499999999999989e-01 -5.5198505414549037e-01
vn -7.8861708411756837e-01 -2.2314910109459180e-01 -5.7296384992299454e-01
vn -2.9873215864252667e-01 6.2499999999999989e-01 -7.2120322891177935e-01
vn -5.7296384992299443e-01 2.2314910109459174e-01 -7.8861708411756848e-01
vn -5.5198505414549082e-01 6.2499999999999967e-01 -5.5198505414549037e-01
vn -7.8861708411756826e-01 2.2314910109459166e-01 -5.7296384992299454e-01
vn -7.2120322891177924e-01 6.2499999999999978e-01 -2.9873215864252728e-01
vn 4.7799480058876421e-17 -6.2499999999999978e-01 -7.8062474979980001e-01
vn 5.9688325123730302e-17 -2.2314910109459180e-01 -9.7478432418698424e-01
vn 3.0122492202407625e-01 -2.2314910109459174e-01 -9.2707498350039874e-01
vn 2.9873215864252678e-01 -6.2499999999999989e-01 -7.2120322891177946e-01
vn 5.7296384992299443e-01 -2.2314910109459174e-01 -7.8861708411756837e-01
vn 5.5198505414549082e-01 -6.2499999999999989e-01 -5.5198505414549037e-01
vn 7.8861708411756837e-01 -2.2314910109459180e-01 -5.7296384992299443e-01
vn 7.2120322891177902e-01 -6.2499999999999989e-01 -2.9873215864252722e-01
vn 4.7799480058876414e-17 -6.2500000000000011e-01 7.8062474979979979e-01
vn 5.9688325123730302e-17 -2.2314910109459196e-01 9.7478432418698413e-01
vn -3.0122492202407619e-01 -2.2314910109459196e-01 9.2707498350039896e-01
vn -2.9873215864252667e-01 -6.2500000000000000e-01 7.2120322891177924e-01
vn -5.7296384992299432e-01 -2.2314910109459188e-01 7.8861708411756837e-01
vn -5.5198505414549071e-01 -6.2500000000000000e-01 5.5198505414549026e-01
vn -7.8861708411756837e-01 -2.2314910109459191e-01 5.7296384992299454e-01
vn -7.2120322891177913e-01 -6.2500000000000011e-01 2.9873215864252717e-01
vn -9.2707498350039874e-01 -2.2314910109459188e-01 3.0122492202407625e-01
vn -7.8062474979979979e-01 -6.2499999999999989e-01 2.6210021078680551e-17
vn -9.7478432418698424e-01 -2.2314910109459188e-01 9.4602123251498356e-17
vn 7.6234077613422624e-01 -7.6327832942979512e-17 6.4717581926634549e-01
vn 3.7767580692642089e-01 6.3622057430220236e-01 6.7274390795982142e-01
vn 1.4544061991714716e-01 7.0559541775998591e-01 6.9352875392028768e-01
vn 3.8916532871584314e-01 6.3124178779075613e-01 6.7088311371819442e-01
vn 2.4604883640189848e-01 6.9494239506492317e-01 6.7565896548976534e-01
vn 4.6159124085842868e-01 5.9307201897403194e-01 6.5969622302453856e-01
vn 6.2534018487338916e-01 4.2976101298840524e-01 6.5134869685729413e-01
vn 5.9751315505767932e-01 4.6064446836207246e-01 6.5634191036413425e-01
vn 5.7656792763080800e-01 4.8411387883705098e-01 6.5818172045785384e-01
vn 7.1529569413003002e-01 2.5795894158846361e-01 6.4946843989034475e-01
vn 7.5233792734132088e-01 1.2177191521828806e-01 6.4742508736365434e-01
vn 7.6234077613423723e-01 -5.7689792685357190e-15 6.4717581926633261e-01
vn 7.6234077613423723e-01 8.7872151994100828e-15 6.4717581926633250e-01
vn 7.6234077613423734e-01 6.0611290741365257e-14 6.4717581926633261e-01
vn 7.2912393271764731e-01 2.2133807893630369e-01 6.4760153300554990e-01
vn 4.6159124085836623e-01 -5.9307201897406525e-01 6.5969622302455211e-01
vn 2.4604883640188144e-01 -6.9494239506493005e-01 6.7565896548976467e-01
vn 3.2533160599837496e-01 -6.6125951843452524e-01 6.7594023065523912e-01
vn 1.4544061991720486e-01 -7.0559541775998535e-01 6.9352875392027635e-01
vn 3.7767580692630587e-01 -6.3622057430225343e-01 6.7274390795983774e-01
vn 5.2183945537954657e-01 -5.3889147371684232e-01 6.6127117158127191e-01
vn 5.7656792763078302e-01 -4.8411387883707557e-01 6.5818172045785772e-01
vn 5.9751315505765279e-01 -4.6064446836210016e-01 6.5634191036413914e-01
vn 7.1529569413001026e-01 -2.5795894158849886e-01 6.4946843989035230e-01
vn 7.5233792734131921e-01 -1.2177191521825199e-01 6.4742508736366311e-01
vn 7.6234077613422280e-01 4.4173137427649567e-13 6.4717581926634959e-01
vn 7.6234077613422280e-01 4.1903785793841697e-13 6.4717581926634959e-01
vn 7.6234077613422280e-01 3.7991547116544400e-13 6.4717581926634959e-01
vn 7.2912393271763709e-01 -2.2133807893631710e-01 6.4760153300555690e-01
vn 6.2534018487334719e-01 -4.2976101298845387e-01 6.5134869685730235e-01
vn 7.0541775986508082e-01 7.0710678118654424e-01 4.8844488603482901e-02
vn 7.0541775986508060e-01 7.0710678118654435e-01 4.8844488603483380e-02
vn 6.7905630683220775e-01 7.0710678118654435e-01 1.9718654150678516e-01
vn 6.7002097284423234e-01 7.0710678118654435e-01 2.2599092005846819e-01
vn 6.2186530244095295e-01 7.0710678118654435e-01 3.3657621071612687e-01
vn 5.9089353742699491e-01 7.0710678118654435e-01 3.8838747073897339e-01
vn 5.3644125156046729e-01 7.0710678118654446e-01 4.6068512416209384e-01
vn 4.7319990994680283e-01 7.0710678118654435e-01 5.2543491055157543e-01
vn 4.2666245579455570e-01 7.0710678118654446e-01 5.6387866497621919e-01
vn 3.2462166881751353e-01 7.0710678118654435e-01 6.2818848456027687e-01
vn 2.9751293633273440e-01 7.0710678118654424e-01 6.4147178637464564e-01
vn 1.5485615648886705e-01 7.0710678118654424e-01 6.8994171550754935e-01
vn 1.5485615648886705e-01 7.0710678118654424e-01 6.8994171550754924e-01
vn 1.4546829222072566e-01 7.0557011005395331e-01 6.9354869746603798e-01
vn 1.5485615648903725e-01 7.0710678118655090e-01 6.8994171550750427e-01
vn 1.6347629230037419e-01 7.0613629518239396e-01 6.8894632191616034e-01
vn 1.5485615648974377e-01 7.0710678118655090e-01 6.8994171550734573e-01
vn 2.4610116850018471e-01 6.9491623760326160e-01 6.7566680958751490e-01
vn 5.5476197939614369e-01 8.0374158780861138e-01 2.1503164009829989e-01
vn 6.4368755422125490e-01 7.6523816184401072e-01 8.7685915778118653e-03
vn 6.0574794776261209e-01 7.7073086167252602e-01 1.9759393373003434e-01
vn 6.2520387429004332e-01 7.4679763562679402e-01 2.2674524690707329e-01
vn 5.5023796809373215e-01 7.4498456462002816e-01 3.7714211770364281e-01
vn 4.9256678398790799e-01 6.8691678040602089e-01 5.3434380328439868e-01
vn 4.9237825558813758e-01 6.5478869296101649e-01 5.7342429403922757e-01
vn 4.7246971360355300e-01 5.7394549565335840e-01 6.6884896482434453e-01
vn 4.6475084162127062e-01 4.1651380029635465e-01 7.8135965430460330e-01
vn 4.6193894354627907e-01 1.7555675307227450e-01 8.6936312257080939e-01
vn 4.6212067317712241e-01 1.9914598495019800e-08 8.8681705183330961e-01
vn 4.6212067317712241e-01 1.1135907806037558e-08 8.8681705183330972e-01
vn 4.6132302455737989e-01 2.6054074067156463e-01 8.4811531613545543e-01
vn 4.6214935352179526e-01 4.9113225989750237e-01 7.3838139083224408e-01
vn 4.9038404832123944e-01 7.3302511745227861e-01 4.7137847037825698e-01
vn 4.6212067317712463e-01 -8.3266726846886741e-17 8.8681705183330861e-01
vn 4.6212067317712241e-01 -0.0000000000000000e+00 8.8681705183330972e-01
vn 4.6212067317712235e-01 -1.7028529302827695e-13 8.8681705183330983e-01
vn 4.6136004283589299e-01 -2.7207407636989833e-01 8.4446587133046991e-01
vn 4.6318661568990560e-01 -3.9549157756303194e-01 7.9312330133620201e-01
vn 4.6244943949996503e-01 -4.9329778016000797e-01 7.3674813606508471e-01
vn 4.8037719851157834e-01 -6.3285642086536664e-01 6.0723183193871300e-01
vn 4.8917428869495383e-01 -7.2920059185450081e-01 4.7851333536154622e-01
vn 4.9138364917219718e-01 -6.8289475768146657e-01 5.4055236495402192e-01
vn 5.0535948637252415e-01 -7.2098143920918734e-01 4.7412820402202127e-01
vn 4.9124360518215093e-01 -6.5076608492520949e-01 5.7895010413571768e-01
vn 5.4835902782525869e-01 -7.4392156231256978e-01 3.8194644353490487e-01
vn 4.6493528508964421e-01 -4.2040533251814555e-01 7.7916271539962612e-01
vn 6.0191754084095928e-01 -7.7175741403504372e-01 2.0514816087382862e-01
vn 6.2520387429003699e-01 -7.4679763562678891e-01 2.2674524690710854e-01
vn 6.4368755422125046e-01 -7.6523816184401350e-01 8.7685915778981469e-03
vn 5.5259113242932556e-01 -8.0362266979942742e-01 2.2098335897735807e-01
vn 7.0541775986507860e-01 7.0710678118654680e-01 4.8844488603478016e-02
vn 6.2520387429004076e-01 7.4679763562679102e-01 2.2674524690709125e-01
vn 6.8714588900398710e-01 7.2112163986038036e-01 8.8397441987852821e-02
vn 6.4368755422125246e-01 7.6523816184401261e-01 8.7685915778407467e-03
vn 7.0541775986507804e-01 7.0710678118654680e-01 4.8844488603486932e-02
vn 7.0541775986508082e-01 -7.0710678118654446e-01 4.8844488603482124e-02
vn 6.7905630683220763e-01 -7.0710678118654446e-01 1.9718654150678500e-01
vn 7.0541775986508071e-01 -7.0710678118654435e-01 4.8844488603484011e-02
vn 6.7002097284423234e-01 -7.0710678118654446e-01 2.2599092005846802e-01
vn 6.2186530244095284e-01 -7.0710678118654435e-01 3.3657621071612676e-01
vn 5.9089353742699502e-01 -7.0710678118654435e-01 3.8838747073897328e-01
vn 5.3644125156046740e-01 -7.0710678118654446e-01 4.6068512416209362e-01
vn 4.7319990994680289e-01 -7.0710678118654446e-01 5.2543491055157543e-01
vn 4.2666245579455619e-01 -7.0710678118654446e-01 5.6387866497621875e-01
vn 3.2462166881751342e-01 -7.0710678118654458e-01 6.2818848456027665e-01
vn 2.9751293633273440e-01 -7.0710678118654446e-01 6.4147178637464530e-01
vn 1.5485615648886703e-01 -7.0710678118654446e-01 6.8994171550754912e-01
vn 1.5485615648886697e-01 -7.0710678118654458e-01 6.8994171550754912e-01
vn 6.2520387429004687e-01 -7.4679763562679269e-01 2.2674524690706829e-01
vn 7.0541775986507660e-01 -7.0710678118654891e-01 4.8844488603473832e-02
vn 6.8537537881316679e-01 -7.2255381025738952e-01 9.0424451335003986e-02
vn 7.0541775986507615e-01 -7.0710678118654902e-01 4.8844488603481478e-02
vn 6.4368755422125490e-01 -7.6523816184401039e-01 8.7685915778502217e-03
vn 1.5485615648841036e-01 -7.0710678118655823e-01 6.8994171550763761e-01
vn 1.4546829222105276e-01 -7.0557011005392867e-01 6.9354869746599423e-01
vn 1.6289614118068768e-01 -7.0626418121169543e-01 6.8895264969794179e-01
vn 2.4610116849934810e-01 -6.9491623760339005e-01 6.7566680958768754e-01
vn 1.5485615648994588e-01 -7.0710678118655812e-01 6.8994171550729289e-01
vn 0.0000000000000000e+00 1.0000000000000000e+00 1.1102230246251565e-16
vn 6.9431393433290471e-13 1.0000000000000000e+00 1.1103968338863040e-16
vn 3.8140253376010003e-01 9.2440905839426712e-01 9.5477405863587053e-09
vn 3.7655202074553794e-13 1.0000000000000000e+00 1.1103172877895165e-16
vn 5.0000000000012002e-01 8.6602540378436921e-01 1.2516619204054280e-08
vn 7.0409471966059722e-01 7.1010606654644537e-01 1.7625770922592688e-08
vn 8.6602540378437021e-01 5.0000000000011824e-01 2.1679420289385120e-08
vn 9.2400393834470040e-01 3.8238295192579203e-01 2.3130810743379106e-08
vn 9.9999999999999967e-01 3.7645972874154085e-13 2.5033238215806280e-08
vn 9.9999999999999967e-01 -1.0982767256308780e-13 2.5033238215806280e-08
vn 9.9999999999999967e-01 -2.8951321439355969e-24 2.5033238215806276e-08
vn 9.9999999999999967e-01 1.0779724499459104e-13 2.5033238215806273e-08
vn 9.2400393834465389e-01 -3.8238295192590444e-01 2.3130810658471872e-08
vn 9.9999999999999967e-01 -3.7664431307107518e-13 2.5033238215806273e-08
vn 8.6602540378436887e-01 -5.0000000000012046e-01 2.1679420178362782e-08
vn 7.0409471966053350e-01 -7.1010606654650854e-01 1.7625770764915870e-08
vn 5.0000000000011913e-01 -8.6602540378436976e-01 1.2516619011757990e-08
vn 3.8140253376004019e-01 -9.2440905839429188e-01 9.5477403810971599e-09
vn 3.7793640318031831e-13 -1.0000000000000000e+00 -1.1101284149050447e-16
vn 6.9283725974729341e-13 -1.0000000000000000e+00 -1.1100495850234767e-16
vn -0.0000000000000000e+00 -1.0000000000000000e+00 -1.1102230246251565e-16
vn 9.9990722755015782e-01 -1.5122537403510360e-18 1.3621170763069129e-02
vn 9.9761136314003984e-01 -7.6690363204595656e-18 6.9076538230224999e-02
vn 9.9761136314003984e-01 -7.6690363204594392e-18 6.9076538230223861e-02
vn 9.4755274687072444e-01 -3.5482663931480706e-17 3.1959942411985809e-01
vn 8.3564965454786666e-01 -6.0980423885452476e-17 5.4926282857483733e-01
vn 6.6920573036049302e-01 -8.2498139058620874e-17 7.4307717664632866e-01
vn 4.5908436668191277e-01 -9.8631400224007525e-17 8.8839267459174109e-01
vn 2.1899967672352519e-01 -1.0832722844497447e-16 9.7572493131773119e-01
vn 2.1482577439731043e-01 -1.0843019680243195e-16 9.7665238783028419e-01
vn 2.1482577439731074e-01 -1.0843019680243194e-16 9.7665238783028407e-01
vn 2.0497791977073340e-01 -1.0866492122925523e-16 9.7876659751263628e-01
vn 2.0497791977073429e-01 -1.0866492122925520e-16 9.7876659751263606e-01
vn 1.9734995077817752e-01 -1.0883883850689160e-16 9.8033310508614924e-01
vn 1.9734995077817785e-01 -1.0883883850689159e-16 9.8033310508614913e-01
vn 1.9235812477558689e-01 -1.0894893812249133e-16 9.8132479426172636e-01
vn 1.9235812477558731e-01 -1.0894893812249133e-16 9.8132479426172636e-01
vn 1.9063278391177058e-01 -1.0898631098419722e-16 9.8166141907383120e-01
vn 9.9990722755015782e-01 -1.5122537403510604e-18 1.3621170763069349e-02
vn 9.9993119086256477e-01 1.3023892819521380e-18 -1.1730879769781953e-02
vn 9.9992328097741245e-01 1.3752081213397779e-18 -1.2386773565645407e-02
vn 9.9948503889937734e-01 3.5625135218019334e-18 -3.2088269138579081e-02
vn 9.9947174707026121e-01 3.6081852176030908e-18 -3.2499643202962024e-02
vn 9.9908996844640063e-01 4.7353777061692656e-18 -4.2652490545924918e-02
vn 9.9908697885839148e-01 4.7431459893137101e-18 -4.2722461020074175e-02
vn 9.9900621664001277e-01 4.9483813620002289e-18 -4.4571056915982676e-02
vn 9.9901847913138409e-01 4.9177721494086538e-18 -4.4295353639139633e-02
vn 9.9900621664001277e-01 4.9483813620003521e-18 -4.4571056915983787e-02
vn 9.9902024907500553e-01 4.9133382971346695e-18 -4.4255417048241770e-02
vn -4.5239831841681020e-15 -1.0000000000000000e+00 3.5732289040380726e-15
vn -3.4173346813651162e-01 -8.8433858872648186e-01 3.1806209652306278e-01
vn -4.2228816983964179e-01 -8.6602540378444015e-01 2.6771757808086377e-01
vn -5.1969333763498748e-01 -6.7180003855408521e-01 5.2782908504224790e-01
vn -7.3142456559753766e-01 -5.0000000000000122e-01 4.6370044731534604e-01
vn -6.1750190844210384e-01 -4.1418663032424974e-01 6.6868589661439903e-01
vn -8.4457633967928758e-01 7.3547320265556622e-17 5.3543515616173032e-01
vn -6.5479231603697352e-01 -1.7875748305053432e-01 7.3436556639889772e-01
vn -6.6191740787712861e-01 -8.5689905943378656e-16 7.4957677735454353e-01
vn -8.3166771428534436e-01 -5.0000000000000122e-01 2.4151358764133674e-01
vn -9.6032715743792918e-01 -1.3858460938828029e-16 2.7887586967535682e-01
vn -8.6602538210016833e-01 -4.9999999999999872e-01 1.9379953234176079e-04
vn -9.9999997496116055e-01 -1.4764895619164691e-15 2.2378042433340842e-04
vn -4.9999998748058144e-01 -8.6602540378443793e-01 1.1189021216671933e-04
vn -4.8016357871896237e-01 -8.6602540378444004e-01 1.3943793483767727e-01
vn -6.1232338424180931e-17 -1.0000000000000000e+00 -1.1100859986349713e-16
vn 4.2663499783791965e-15 -1.0000000000000000e+00 -1.1008088767233608e-15
vn 3.9327151292493087e-15 -1.0000000000000000e+00 -2.0385002693344529e-15
vn -9.9999997496116044e-01 1.4812837512563504e-13 2.2378042433449371e-04
vn -9.9999997496116044e-01 -4.6884967954725020e-14 2.2378042433449371e-04
vn -8.6602538210019742e-01 -4.9999999999994854e-01 1.9379953234328407e-04
vn -8.6602538210015856e-01 -5.0000000000001588e-01 1.9379953234327537e-04
vn -4.9999998748053859e-01 -8.6602540378446280e-01 1.1189021216714136e-04
vn -4.9999998748059649e-01 -8.6602540378442938e-01 1.1189021216715434e-04
vn 1.4194531667743929e-13 -1.0000000000000000e+00 -1.4278688923610510e-16
vn -4.8176532175251170e-14 -1.0000000000000000e+00 -1.0024134015930037e-16
vn 9.9999999999999978e-01 -1.5999455932714367e-23 -2.5033241640545003e-08
vn 8.6602540378443793e-01 -5.0000000000000089e-01 -2.1679422678408739e-08
vn 9.5104267876227344e-01 1.7163989109993219e-16 -3.0905957867809125e-01
vn 8.2362677311610522e-01 -4.9999999999999989e-01 -2.6765451351761665e-01
vn 8.0896436837062369e-01 -6.5478950594430880e-18 -5.8785767895530450e-01
vn 7.0058237457355310e-01 -4.9999999999999989e-01 -5.0910149915010228e-01
vn 5.8767661359211298e-01 -1.4794753606701878e-16 -8.0909591386738955e-01
vn 5.0894015308400098e-01 -4.9999999999999989e-01 -7.0069959367680079e-01
vn 3.0884672239597444e-01 1.3045470897713280e-16 -9.5111182416436391e-01
vn 2.6746483875775467e-01 -4.9999999999999989e-01 -8.2368838769785291e-01
vn -2.2378042433411277e-04 9.9208902957490516e-17 -9.9999997496116055e-01
vn -1.9940968893726588e-04 -4.9999999999999989e-01 -8.6602538082655300e-01
vn -3.0927237186786455e-01 1.3054311510830528e-16 -9.5097350120769686e-01
vn -2.6784413285062053e-01 -4.9999999999999983e-01 -8.2356512826703587e-01
vn -5.8803867437795188e-01 -1.4777938005803597e-16 -8.0883281179476219e-01
vn -5.0926278314847673e-01 -4.9999999999999983e-01 -7.0046514381507075e-01
vn -8.0922738942361105e-01 -6.3164541055422771e-18 -5.8749555930802344e-01
vn -7.0081675014883882e-01 -4.9999999999999989e-01 -5.0877881511597967e-01
vn -9.5118090647411446e-01 1.7191195554407582e-16 -3.0863389826634718e-01
vn -8.2374994521747713e-01 -4.9999999999999989e-01 -2.6727519105634107e-01
vn -9.9999989985584692e-01 -1.4763885583234970e-15 4.4753580422313198e-04
vn -8.6602531614926226e-01 -4.9999999851837468e-01 3.9149737598110918e-04
vn -4.7559405193077753e-01 -8.6602540378443860e-01 -1.5430585785401987e-01
vn -4.9999995598443014e-01 -8.6602539793145938e-01 2.3270845582162213e-04
vn -2.9381740734327194e-08 -9.9999999999999956e-01 1.4291290003552400e-11
vn -5.4833974301716265e-15 -1.0000000000000000e+00 -2.1041312874465238e-15
vn -4.0461978394678777e-01 -8.6602540378443849e-01 -2.9373939204481059e-01
vn -4.4708221063690452e-15 -1.0000000000000000e+00 -3.8596061012375464e-15
vn -2.9402667266490251e-01 -8.6602540378443860e-01 -4.0441107274851723e-01
vn -6.2513739899609338e-15 -1.0000000000000000e+00 -1.0930615495493176e-14
vn -1.5464357846105833e-01 -8.6602540378443860e-01 -4.7548434636774178e-01
vn -3.6020052893118076e-15 -1.0000000000000000e+00 -2.0506777845476135e-14
vn -1.1836826300179011e-04 -8.6602540378443849e-01 -4.9999998598895423e-01
vn 2.8218764773835707e-15 -1.0000000000000000e+00 -1.6134935967926756e-14
vn 1.5441843210896464e-01 -8.6602540378443860e-01 -4.7555751263649415e-01
vn 7.3560214839222003e-15 -1.0000000000000000e+00 -1.2856797751249537e-14
vn 2.9383516196841880e-01 -8.6602540378443849e-01 -4.0455024112091842e-01
vn 8.5509326665973824e-15 -1.0000000000000000e+00 -7.2876822111529381e-15
vn 4.0448066091106860e-01 -8.6602540378443849e-01 -2.9393093567868162e-01
vn 8.4035212603011677e-15 -1.0000000000000000e+00 -3.1701684591509568e-15
vn 4.7552093895879732e-01 -8.6602540378443860e-01 -1.5453102151912357e-01
vn 6.1232339957367636e-17 -1.0000000000000000e+00 -1.1102230399535954e-16
vn 4.9999999999999978e-01 -8.6602540378443871e-01 -1.2516620583353727e-08
vn -9.9999989985584692e-01 2.8603284635847062e-19 4.4753580422337701e-04
vn -8.6602531705705899e-01 4.9999999999999845e-01 3.8757737556098406e-04
vn -8.2374682860129123e-01 5.0000000000000377e-01 -2.6728479636767855e-01
vn -8.0922738942361128e-01 -6.3164541055422971e-18 -5.8749555930802333e-01
vn -7.0081147667900823e-01 5.0000000000000366e-01 -5.0878607897129424e-01
vn -5.8803867437795199e-01 -1.4777938005803600e-16 -8.0883281179476207e-01
vn -5.0925643041903057e-01 5.0000000000000377e-01 -7.0046976242865988e-01
vn -3.0927237186786471e-01 1.3054311510830523e-16 -9.5097350120769664e-01
vn -2.6783773072623801e-01 5.0000000000000377e-01 -8.2356721037169478e-01
vn -2.2378042433435775e-04 9.9208902957490516e-17 -9.9999997496116055e-01
vn -1.9379953234321476e-04 5.0000000000000389e-01 -8.6602538210016544e-01
vn 3.0884672239597416e-01 1.3045470897713285e-16 -9.5111182416436391e-01
vn 2.6746910747047337e-01 5.0000000000000389e-01 -8.2368700156609531e-01
vn 5.8767661359211276e-01 -1.4794753606701838e-16 -8.0909591386738977e-01
vn 5.0894287658077975e-01 5.0000000000000366e-01 -7.0069761550734377e-01
vn 8.0896436837062369e-01 -6.5478950594430625e-18 -5.8785767895530461e-01
vn 7.0058369376539087e-01 5.0000000000000377e-01 -5.0909968378504944e-01
vn 9.5104267876227344e-01 1.7163989109993221e-16 -3.0905957867809103e-01
vn 8.2362711989133008e-01 5.0000000000000377e-01 -2.6765344641814159e-01
vn 8.6602540378443904e-01 4.9999999999999872e-01 -2.2556545480308073e-08
vn 5.0000000000000155e-01 8.6602540378443760e-01 -1.4517115949494217e-08
vn 4.7552133938112934e-01 8.6602540378444293e-01 -1.5452978933904349e-01
vn 2.2816783892076795e-15 1.0000000000000000e+00 1.1102222550096991e-16
vn 6.3170354700607232e-15 1.0000000000000000e+00 -2.1885465336894700e-15
vn 4.0448218418530535e-01 8.6602540378444315e-01 -2.9392883947764814e-01
vn -1.1436700777108332e-15 1.0000000000000000e+00 1.0708693344224709e-15
vn 2.9383830679605172e-01 8.6602540378444304e-01 -4.0454795693368867e-01
vn -6.6290083671146982e-15 1.0000000000000000e+00 1.1596758841961036e-14
vn 1.5442336119798455e-01 8.6602540378444304e-01 -4.7555591208217468e-01
vn -2.1846851702939368e-15 1.0000000000000000e+00 1.2515416211431494e-14
vn -1.1189021216739921e-04 8.6602540378444293e-01 -4.9999998748057256e-01
vn -2.5590406397729526e-15 1.0000000000000000e+00 -1.4380946330777671e-14
vn -1.5463618593393022e-01 8.6602540378444304e-01 -4.7548675060384094e-01
vn 5.5233516423074329e-15 1.0000000000000000e+00 9.6711594041056006e-15
vn -2.9401933718897133e-01 8.6602540378444304e-01 -4.0441640589737488e-01
vn -4.4707087884915337e-15 1.0000000000000000e+00 -3.6376966429562189e-15
vn -4.0461369471179948e-01 8.6602540378444315e-01 -2.9374777965400711e-01
vn 2.0292908117793583e-15 1.0000000000000000e+00 8.4870966417238966e-16
vn -4.7559045323704974e-01 8.6602540378444293e-01 -1.5431694913317190e-01
vn 8.2694599692894289e-16 1.0000000000000000e+00 1.1065221448366676e-16
vn -4.9999994992792379e-01 8.6602540378443837e-01 2.2376790211222887e-04
vn 9.9999999999999978e-01 -1.5999455954825551e-23 -2.5033241441385154e-08
vn -9.9999997496116044e-01 -1.4572882924659939e-13 2.2378042433449371e-04
vn -8.6602538210019353e-01 4.9999999999995504e-01 1.9379953234339425e-04
vn -9.9999997496116044e-01 4.9561390327799191e-14 2.2378042433449371e-04
vn -8.6602538293861087e-01 4.9999999854777344e-01 1.9379953253101566e-04
vn -4.9999998748053293e-01 8.6602540378446602e-01 1.1189021216733240e-04
vn -4.9999999686805158e-01 8.6602539836457937e-01 1.1189021426807536e-04
vn 1.4757518810454613e-13 1.0000000000000000e+00 7.7997866200213632e-17
vn -2.5033274711581342e-08 9.9999999999999967e-01 5.6020680000113675e-12
vn -5.1595743448235110e-01 6.7847764310848369e-01 5.2293021867582601e-01
vn -3.4173346813651267e-01 8.8433858872648108e-01 3.1806209652306394e-01
vn -4.2228816983964090e-01 8.6602540378444059e-01 2.6771757808086338e-01
vn 1.1577330177134021e-15 1.0000000000000000e+00 -8.3181481555398361e-16
vn -1.2512931859605510e-15 1.0000000000000000e+00 7.2429836410706719e-16
vn -4.8016357871896143e-01 8.6602540378444059e-01 1.3943793483767708e-01
vn 1.4544511964128936e-15 1.0000000000000000e+00 -2.2640811801930892e-16
vn -4.9999998748057733e-01 8.6602540378444037e-01 1.1189021216691068e-04
vn 5.9339718444387051e-15 1.0000000000000000e+00 1.0969439569193279e-16
vn -8.6602538210016611e-01 5.0000000000000255e-01 1.9379953234302505e-04
vn -8.3166771428534392e-01 5.0000000000000178e-01 2.4151358764133671e-01
vn -7.3142456559753732e-01 5.0000000000000167e-01 4.6370044731534599e-01
vn -6.1582297784086770e-01 4.2098498982968469e-01 6.6598325677250048e-01
vn -6.5501837967552790e-01 1.7602604213134421e-01 7.3482362154385061e-01
vn -6.6191740787712905e-01 7.6493507263117886e-09 7.4957677735454309e-01
vn -9.9999997496116055e-01 1.8502925340350450e-19 2.2378042433207607e-04
vn -9.6032715743792918e-01 -1.3858460938827996e-16 2.7887586967535682e-01
vn -6.6191740787712916e-01 -8.3219739694333837e-17 7.4957677735454309e-01
vn -8.4457633967928758e-01 -5.9445243856451950e-17 5.3543515616173054e-01
vn -6.6191740787712872e-01 -8.3219739694333874e-17 7.4957677735454342e-01
vn -9.6032715743792929e-01 -3.0961441152594563e-17 2.7887586967535682e-01
vn -9.6032715743792929e-01 -3.0961441152594544e-17 2.7887586967535666e-01
vn -9.9999997496116044e-01 -2.4844617955535931e-20 2.2378042433342791e-04
vn -9.9999997496116044e-01 -2.4844617955380635e-20 2.2378042433202912e-04
vn -9.9999997496116055e-01 -2.7105054312137611e-20 2.2378042433449373e-04
vn 9.9999999999999956e-01 2.7792481328467036e-24 -2.5033241710917122e-08
vn 9.9999999999999956e-01 2.7792477445784602e-24 -2.5033238213707689e-08
vn 9.5104267876227344e-01 3.4312506022936713e-17 -3.0905957867809136e-01
vn 9.5104267876227433e-01 3.4312506022936350e-17 -3.0905957867808809e-01
vn 8.0896436837062358e-01 6.5265313037888239e-17 -5.8785767895530450e-01
vn 8.0896436837062535e-01 6.5265313037887980e-17 -5.8785767895530217e-01
vn 5.8767661359211298e-01 8.9827691270570836e-17 -8.0909591386738955e-01
vn 5.8767661359211443e-01 8.9827691270570725e-17 -8.0909591386738855e-01
vn 3.0884672239597455e-01 1.0559462461805100e-16 -9.5111182416436379e-01
vn 3.0884672239597571e-01 1.0559462461805098e-16 -9.5111182416436357e-01
vn -2.2378042433444429e-04 1.1102229968264604e-16 -9.9999997496116044e-01
vn -3.0927237186786510e-01 1.0557926768491838e-16 -9.5097350120769653e-01
vn -3.0927237186786610e-01 1.0557926768491834e-16 -9.5097350120769619e-01
vn -5.8803867437795221e-01 8.9798481072685049e-17 -8.0883281179476185e-01
vn -5.8803867437795365e-01 8.9798481072684938e-17 -8.0883281179476085e-01
vn -8.0922738942361128e-01 6.5225109680880145e-17 -5.8749555930802311e-01
vn -8.0922738942361294e-01 6.5225109680879911e-17 -5.8749555930802100e-01
vn -9.5118090647411457e-01 3.4265246003511677e-17 -3.0863389826634713e-01
vn -9.5118090647411535e-01 3.4265246003511344e-17 -3.0863389826634413e-01
vn -9.9999989985584681e-01 -4.9686455419277895e-20 4.4753580422324138e-04
vn -9.9999989985584681e-01 -4.9686455419672331e-20 4.4753580422679415e-04

g face 0
f 2//1 35//2 1//3
f 1//3 35//2 33//4
f 1//5 33//6 71//7
f 71//7 33//6 34//8
f 71//7 34//8 72//9
f 72//9 34//8 17//10
f 72//9 17//10 18//11
f 35//2 2//1 37//12
f 37//12 2//1 3//13
f 37//12 3//13 39//14
f 39//14 3//13 4//15
f 39//14 4//15 41//16
f 41//16 4//15 5//17
f 41//16 5//17 46//18
f 46//18 5//17 43//19
f 46//18 43//19 44//20
f 44//20 43//19 48//21
f 44//20 48//21 28//22
f 28//22 48//21 27//23
f 27//23 48//21 50//24
f 27//23 50//24 26//25
f 26//25 50//24 52//26
f 26//25 52//26 25//27
f 25//27 52//26 55//28
f 25//27 55//28 54//29
f 54//29 55//28 56//30
f 54//29 56//30 53//31
f 53//31 56//30 9//32
f 53//31 9//32 10//33
f 5//17 6//34 43//19
f 43//19 6//34 47//35
f 43//19 47//35 48//21
f 48//21 47//35 50//24
f 6//34 7//36 47//35
f 47//35 7//36 49//37
f 47//35 49//37 50//24
f 50//24 49//37 52//26
f 7//36 8//38 49//37
f 49//37 8//38 51//39
f 49//37 51//39 52//26
f 52//26 51//39 55//28
f 8//38 9//32 51//39
f 51//39 9//32 56//30
f 51//39 56//30 55//28
f 53//31 10//33 57//40
f 57//40 10//33 11//41
f 57//40 11//41 59//42
f 59//42 11//41 12//43
f 59//42 12//43 61//44
f 61//44 12//43 13//45
f 61//44 13//45 66//46
f 66//46 13//45 63//47
f 66//46 63//47 64//48
f 64//48 63//47 68//49
f 64//48 68//49 20//50
f 20//50 68//49 19//51
f 19//51 68//49 70//52
f 19//51 70//52 18//11
f 18//11 70//52 72//9
f 13//45 14//53 63//47
f 63//47 14//53 67//54
f 63//47 67//54 68//49
f 68//49 67//54 70//52
f 14//53 15//55 67//54
f 67//54 15//55 69//56
f 67//54 69//56 70//52
f 70//52 69//56 72//9
f 15//55 16//57 69//56
f 69//56 16//57 71//7
f 69//56 71//7 72//9
f 16//57 1//5 71//7
f 20//50 21//58 64//48
f 64//48 21//58 65//59
f 64//48 65//59 66//46
f 66//46 65//59 61//44
f 65//59 21//58 62//60
f 62//60 21//58 22//61
f 62//60 22//61 60//62
f 60//62 22//61 23//63
f 60//62 23//63 58//64
f 58//64 23//63 24//65
f 58//64 24//65 54//29
f 54//29 24//65 25//27
f 28//22 29//66 44//20
f 44//20 29//66 45//67
f 44//20 45//67 46//18
f 46//18 45//67 41//16
f 45//67 29//66 42//68
f 42//68 29//66 30//69
f 42//68 30//69 40//70
f 40//70 30//69 31//71
f 40//70 31//71 38//72
f 38//72 31//71 32//73
f 38//72 32//73 36//74
f 36//74 32//73 17//75
f 36//74 17//75 34//76
f 36//74 34//76 33//4
f 36//74 33//4 35//2
f 38//72 36//74 35//2
f 40//70 38//72 37//12
f 37//12 38//72 35//2
f 42//68 40//70 39//14
f 39//14 40//70 37//12
f 45//67 42//68 41//16
f 41//16 42//68 39//14
f 58//64 54//29 53//31
f 60//62 58//64 57//40
f 57//40 58//64 53//31
f 62//60 60//62 59//42
f 59//42 60//62 57//40
f 65//59 62//60 61//44
f 61//44 62//60 59//42

g face 1
f 73//77 74//77 78//77
f 78//77 74//77 77//77
f 77//77 74//77 75//77
f 77//77 75//77 76//77

g face 2
f 86//78 79//79 88//80
f 88//80 79//79 80//81
f 88//80 80//81 81//82
f 81//82 82//83 88//80
f 88//80 82//83 87//84
f 88//80 87//84 85//85
f 85//85 87//84 84//86
f 84//86 87//84 89//87
f 84//86 89//87 73//88
f 73//88 89//87 74//89
f 74//89 89//87 75//90
f 75//90 89//87 83//91
f 83//91 89//87 87//84
f 83//91 87//84 82//83
f 85//85 86//78 88//80

g face 3
f 97//92 90//93 98//94
f 98//94 90//93 91//95
f 98//94 91//95 92//96
f 98//94 92//96 99//97
f 99//97 92//96 93//98
f 99//97 93//98 100//99
f 100//99 93//98 94//100
f 100//99 94//100 101//101
f 101//101 94//100 78//102
f 101//101 78//102 77//103
f 77//103 76//104 101//101
f 101//101 76//104 95//105
f 101//101 95//105 100//99
f 100//99 95//105 96//106
f 100//99 96//106 99//97
f 99//97 96//106 97//92
f 99//97 97//92 98//94

g face 4
f 102//107 103//108 114//109
f 114//109 103//108 104//110
f 114//109 104//110 113//111
f 113//111 104//110 105//112
f 113//111 105//112 112//113
f 112//113 105//112 106//114
f 112//113 106//114 111//115
f 111//115 106//114 107//116
f 111//115 107//116 110//117
f 110//117 107//116 108//118
f 110//117 108//118 109//119

g face 5
f 79//120 109//121 115//122
f 115//122 109//121 108//123
f 115//122 108//123 80//124
f 80//124 79//120 115//122

g face 6
f 126//125 116//126 128//127
f 128//127 116//126 117//128
f 128//127 117//128 118//129
f 128//127 118//129 127//130
f 127//130 118//129 119//131
f 127//130 119//131 129//132
f 129//132 119//131 120//133
f 129//132 120//133 130//134
f 130//134 120//133 121//135
f 130//134 121//135 122//136
f 122//136 123//137 130//134
f 130//134 123//137 124//138
f 130//134 124//138 129//132
f 129//132 124//138 125//139
f 129//132 125//139 127//130
f 127//130 125//139 126//125
f 127//130 126//125 128//127

g face 7
f 121//140 131//140 122//140
f 122//140 131//140 132//140

g face 8
f 132//141 131//142 141//143
f 141//143 131//142 142//144
f 141//143 142//144 140//145
f 140//145 142//144 143//146
f 140//145 143//146 139//147
f 139//147 143//146 144//148
f 139//147 144//148 145//149
f 145//149 144//148 134//150
f 145//149 134//150 135//151
f 131//142 133//152 142//144
f 142//144 133//152 143//146
f 133//152 134//150 143//146
f 143//146 134//150 144//148
f 145//149 135//151 146//153
f 146//153 135//151 136//154
f 146//153 136//154 137//155
f 137//155 138//156 146//153
f 146//153 138//156 145//149
f 138//156 139//147 145//149

g face 9
f 102//157 117//158 147//159
f 147//159 117//158 116//160
f 147//159 116//160 103//161
f 103//161 102//157 147//159

g face 10
f 149//162 150//163 148//164
f 148//164 150//163 160//165
f 160//165 150//163 151//166
f 160//165 151//166 159//167
f 159//167 151//166 152//168
f 159//167 152//168 158//169
f 158//169 152//168 153//170
f 158//169 153//170 157//171
f 157//171 153//170 154//172
f 157//171 154//172 156//173
f 156//173 154//172 155//174

g face 11
f 136//175 149//176 161//177
f 161//177 149//176 148//178
f 161//177 148//178 137//179
f 137//179 136//175 161//177

g face 12
f 155//180 91//181 162//182
f 162//182 91//181 90//183
f 162//182 90//183 156//184
f 156//184 155//180 162//182

g face 13
f 16//185 163//185 1//185
f 1//185 163//185 164//185
f 1//185 164//185 2//185
f 2//185 164//185 165//185
f 2//185 165//185 3//185
f 3//185 165//185 166//185
f 3//185 166//185 4//185
f 4//185 166//185 167//185
f 4//185 167//185 5//185
f 5//185 167//185 168//185
f 5//185 168//185 6//185
f 6//185 168//185 169//185
f 6//185 169//185 7//185
f 7//185 169//185 170//185
f 7//185 170//185 8//185
f 8//185 170//185 171//185
f 8//185 171//185 9//185
f 9//185 171//185 172//185
f 9//185 172//185 10//185
f 10//185 172//185 173//185
f 10//185 173//185 11//185
f 11//185 173//185 113//185
f 11//185 113//185 12//185
f 12//185 113//185 112//185
f 12//185 112//185 13//185
f 13//185 112//185 111//185
f 13//185 111//185 14//185
f 14//185 111//185 110//185
f 14//185 110//185 15//185
f 15//185 110//185 109//185
f 15//185 109//185 16//185
f 16//185 109//185 79//185
f 16//185 79//185 163//185
f 102//185 114//185 175//185
f 175//185 114//185 173//185
f 175//185 173//185 174//185
f 114//185 113//185 173//185

g face 14
f 79//186 86//187 163//188
f 163//188 86//187 178//189
f 178//189 86//187 85//190
f 178//189 85//190 177//191
f 177//191 85//190 84//192
f 177//191 84//192 176//193
f 176//193 84//192 73//194

g face 15
f 78//195 179//195 73//195
f 73//195 179//195 176//195

g face 16
f 78//196 94//197 179//198
f 179//198 94//197 182//199
f 182//199 94//197 93//200
f 182//199 93//200 181//201
f 181//201 93//200 92//202
f 181//201 92//202 180//203
f 180//203 92//202 91//204

g face 17
f 180//205 91//205 18//205
f 18//205 91//205 155//205
f 18//205 155//205 19//205
f 19//205 155//205 154//205
f 19//205 154//205 20//205
f 20//205 154//205 153//205
f 20//205 153//205 21//205
f 21//205 153//205 152//205
f 21//205 152//205 22//205
f 22//205 152//205 151//205
f 22//205 151//205 23//205
f 23//205 151//205 185//205
f 23//205 185//205 24//205
f 24//205 185//205 186//205
f 24//205 186//205 25//205
f 25//205 186//205 187//205
f 25//205 187//205 26//205
f 26//205 187//205 188//205
f 26//205 188//205 27//205
f 27//205 188//205 189//205
f 27//205 189//205 28//205
f 28//205 189//205 190//205
f 28//205 190//205 29//205
f 29//205 190//205 191//205
f 29//205 191//205 30//205
f 30//205 191//205 192//205
f 30//205 192//205 31//205
f 31//205 192//205 193//205
f 31//205 193//205 32//205
f 32//205 193//205 194//205
f 32//205 194//205 17//205
f 17//205 194//205 180//205
f 17//205 180//205 18//205
f 151//205 150//205 185//205
f 185//205 150//205 183//205
f 185//205 183//205 184//205
f 150//205 149//205 183//205

g face 18
f 137//206 148//207 103//208
f 103//208 148//207 160//209
f 103//208 160//209 104//209
f 104//209 160//209 159//210
f 104//209 159//210 105//210
f 105//210 159//210 158//211
f 105//210 158//211 106//211
f 106//211 158//211 157//212
f 106//211 157//212 107//212
f 107//212 157//212 156//213
f 107//212 156//213 108//213
f 108//213 156//213 80//214
f 80//214 156//213 90//215
f 80//214 90//215 81//216
f 81//216 90//215 97//217
f 81//216 97//217 82//218
f 82//218 97//217 96//219
f 82//218 96//219 83//220
f 83//220 96//219 95//221
f 83//220 95//221 75//222
f 75//222 95//221 76//222
f 103//208 116//223 137//206
f 137//206 116//223 126//224
f 137//206 126//224 138//225
f 138//225 126//224 125//226
f 138//225 125//226 139//227
f 139//227 125//226 140//228
f 140//228 125//226 124//229
f 140//228 124//229 122//230
f 122//230 124//229 123//231
f 122//230 132//232 140//228
f 140//228 132//232 141//233

g face 19
f 149//234 136//235 201//236
f 201//236 136//235 135//237
f 201//236 135//237 200//238
f 200//238 135//237 134//239
f 200//238 134//239 195//240
f 195//240 134//239 133//241
f 195//240 133//241 131//242
f 200//238 195//240 202//243
f 202//243 195//240 196//244
f 202//243 196//244 198//245
f 198//245 196//244 197//246
f 198//245 199//247 202//243
f 202//243 199//247 203//248
f 202//243 203//248 200//238
f 200//238 203//248 201//236
f 185//249 184//250 199//247
f 199//247 184//250 203//248
f 184//250 183//251 203//248
f 203//248 183//251 201//236
f 183//251 149//234 201//236

g face 20
f 197//252 204//253 198//254
f 198//254 204//253 205//255
f 198//254 205//255 199//256
f 199//256 205//255 206//257
f 199//256 206//257 185//258
f 185//258 206//257 186//259

g face 21
f 179//260 182//261 215//262
f 215//262 182//261 217//263
f 215//262 217//263 214//264
f 214//264 217//263 219//265
f 214//264 219//265 213//266
f 213//266 219//265 221//267
f 213//266 221//267 212//268
f 212//268 221//267 223//269
f 212//268 223//269 211//270
f 211//270 223//269 225//271
f 211//270 225//271 210//272
f 210//272 225//271 227//273
f 210//272 227//273 209//274
f 209//274 227//273 229//275
f 209//274 229//275 208//276
f 208//276 229//275 231//277
f 208//276 231//277 207//278
f 207//278 231//277 233//279
f 207//278 233//279 204//280
f 204//280 233//279 205//281
f 205//281 233//279 232//282
f 205//281 232//282 206//283
f 206//283 232//282 186//284
f 186//284 232//282 187//285
f 187//285 232//282 230//286
f 187//285 230//286 188//287
f 188//287 230//286 228//288
f 188//287 228//288 189//289
f 189//289 228//288 226//290
f 189//289 226//290 190//291
f 190//291 226//290 224//292
f 190//291 224//292 191//293
f 191//293 224//292 222//294
f 191//293 222//294 192//295
f 192//295 222//294 220//296
f 192//295 220//296 193//297
f 193//297 220//296 218//298
f 193//297 218//298 194//299
f 194//299 218//298 216//300
f 194//299 216//300 180//301
f 180//301 216//300 181//302
f 181//302 216//300 217//263
f 181//302 217//263 182//261
f 219//265 217//263 216//300
f 221//267 219//265 218//298
f 218//298 219//265 216//300
f 223//269 221//267 220//296
f 220//296 221//267 218//298
f 225//271 223//269 222//294
f 222//294 223//269 220//296
f 227//273 225//271 224//292
f 224//292 225//271 222//294
f 229//275 227//273 226//290
f 226//290 227//273 224//292
f 231//277 229//275 228//288
f 228//288 229//275 226//290
f 233//279 231//277 230//286
f 230//286 231//277 228//288
f 232//282 233//279 230//286

g face 22
f 234//303 235//304 245//278
f 245//278 235//304 247//305
f 245//278 247//305 244//306
f 244//306 247//305 249//307
f 244//306 249//307 243//308
f 243//308 249//307 251//309
f 243//308 251//309 242//310
f 242//310 251//309 253//311
f 242//310 253//311 241//312
f 241//312 253//311 255//313
f 241//312 255//313 240//314
f 240//314 255//313 257//315
f 240//314 257//315 239//316
f 239//316 257//315 259//317
f 239//316 259//317 238//318
f 238//318 259//317 261//319
f 238//318 261//319 237//320
f 237//320 261//319 263//321
f 237//320 263//321 177//322
f 177//322 263//321 178//323
f 178//323 263//321 262//324
f 178//323 262//324 163//325
f 163//325 262//324 164//326
f 164//326 262//324 260//327
f 164//326 260//327 165//328
f 165//328 260//327 258//329
f 165//328 258//329 166//330
f 166//330 258//329 256//331
f 166//330 256//331 167//332
f 167//332 256//331 254//333
f 167//332 254//333 168//334
f 168//334 254//333 252//335
f 168//334 252//335 169//336
f 169//336 252//335 250//337
f 169//336 250//337 170//338
f 170//338 250//337 248//339
f 170//338 248//339 171//340
f 171//340 248//339 246//341
f 171//340 246//341 172//342
f 172//342 246//341 236//343
f 236//343 246//341 247//305
f 236//343 247//305 235//304
f 177//322 176//344 237//320
f 249//307 247//305 246//341
f 251//309 249//307 248//339
f 248//339 249//307 246//341
f 253//311 251//309 250//337
f 250//337 251//309 248//339
f 255//313 253//311 252//335
f 252//335 253//311 250//337
f 257//315 255//313 254//333
f 254//333 255//313 252//335
f 259//317 257//315 256//331
f 256//331 257//315 254//333
f 261//319 259//317 258//329
f 258//329 259//317 256//331
f 263//321 261//319 260//327
f 260//327 261//319 258//329
f 262//324 263//321 260//327

g face 23
f 264//345 265//346 234//347
f 234//347 265//346 235//348
f 235//348 265//346 266//349
f 235//348 266//349 236//350
f 236//350 266//349 173//351
f 236//350 173//351 172//352

g face 24
f 118//353 117//354 269//355
f 269//355 117//354 102//356
f 269//355 102//356 175//357
f 269//355 175//357 271//358
f 271//358 175//357 174//359
f 271//358 174//359 266//360
f 266//360 174//359 173//361
f 266//360 265//362 271//358
f 271//358 265//362 272//363
f 271//358 272//363 269//355
f 269//355 272//363 270//364
f 269//355 270//364 118//353
f 118//353 270//364 119//365
f 119//365 270//364 268//240
f 119//365 268//240 120//366
f 120//366 268//240 121//367
f 265//362 264//368 272//363
f 272//363 264//368 267//369
f 272//363 267//369 270//364
f 270//364 267//369 268//240

g face 25
f 121//370 268//371 131//372
f 131//372 268//371 195//371
f 195//371 268//371 196//373
f 196//373 268//371 267//374
f 196//373 267//374 197//375
f 197//375 267//374 264//376

g face 26
f 204//377 197//377 234//377
f 234//377 197//377 264//377

g face 27
f 176//378 179//379 237//380
f 237//380 179//379 215//381
f 237//380 215//381 238//382
f 238//382 215//381 214//383
f 238//382 214//383 239//384
f 239//384 214//383 213//385
f 239//384 213//385 240//386
f 240//386 213//385 212//387
f 240//386 212//387 241//388
f 241//388 212//387 211//388
f 241//388 211//388 242//389
f 242//389 211//388 210//390
f 242//389 210//390 243//391
f 243//391 210//390 209//392
f 243//391 209//392 244//393
f 244//393 209//392 208//394
f 244//393 208//394 245//395
f 245//395 208//394 207//396
f 245//395 207//396 234//397
f 234//397 207//396 204//398

g halfedge 0 edge 0
l 1 16 15 14 13 12 11 10 9 8 7 6 5 4 3 2 1

g halfedge 1 edge 0
l 1 2 3 4 5 6 7 8 9 10 11 12 13 14 15 16 1

g halfedge 2 edge 1
l 17 32 31 30 29 28 27 26 25 24 23 22 21 20 19 18 17

g halfedge 3 edge 1
l 17 18 19 20 21 22 23 24 25 26 27 28 29 30 31 32 17

g halfedge 4 edge 2
l 73 74 75

g halfedge 5 edge 2
l 75 74 73

g halfedge 6 edge 3
l 76 75

g halfedge 7 edge 3
l 75 76

g halfedge 8 edge 4
l 76 77 78

g halfedge 9 edge 4
l 78 77 76

g halfedge 10 edge 5
l 73 78

g halfedge 11 edge 5
l 78 73

g halfedge 12 edge 6
l 79 80

g halfedge 13 edge 6
l 80 79

g halfedge 14 edge 7
l 75 83 82 81 80

g halfedge 15 edge 7
l 80 81 82 83 75

g halfedge 16 edge 8
l 79 86 85 84 73

g halfedge 17 edge 8
l 73 84 85 86 79

g halfedge 18 edge 9
l 90 91

g halfedge 19 edge 9
l 91 90

g halfedge 20 edge 10
l 78 94 93 92 91

g halfedge 21 edge 10
l 91 92 93 94 78

g halfedge 22 edge 11
l 90 97 96 95 76

g halfedge 23 edge 11
l 76 95 96 97 90

g halfedge 24 edge 12
l 102 103

g halfedge 25 edge 12
l 103 102

g halfedge 26 edge 13
l 108 107 106 105 104 103

g halfedge 27 edge 13
l 103 104 105 106 107 108

g halfedge 28 edge 14
l 108 109

g halfedge 29 edge 14
l 109 108

g halfedge 30 edge 15
l 102 114 113 112 111 110 109

g halfedge 31 edge 15
l 109 110 111 112 113 114 102

g halfedge 32 edge 16
l 80 108

g halfedge 33 edge 16
l 108 80

g halfedge 34 edge 17
l 109 79

g halfedge 35 edge 17
l 79 109

g halfedge 36 edge 18
l 116 117

g halfedge 37 edge 18
l 117 116

g halfedge 38 edge 19
l 121 120 119 118 117

g halfedge 39 edge 19
l 117 118 119 120 121

g halfedge 40 edge 20
l 121 122

g halfedge 41 edge 20
l 122 121

g halfedge 42 edge 21
l 116 126 125 124 123 122

g halfedge 43 edge 21
l 122 123 124 125 126 116

g halfedge 44 edge 22
l 131 121

g halfedge 45 edge 22
l 121 131

g halfedge 46 edge 23
l 131 132

g halfedge 47 edge 23
l 132 131

g halfedge 48 edge 24
l 122 132

g halfedge 49 edge 24
l 132 122

g halfedge 50 edge 25
l 136 135 134 133 131

g halfedge 51 edge 25
l 131 133 134 135 136

g halfedge 52 edge 26
l 136 137

g halfedge 53 edge 26
l 137 136

g halfedge 54 edge 27
l 132 141 140 139 138 137

g halfedge 55 edge 27
l 137 138 139 140 141 132

g halfedge 56 edge 28
l 103 116

g halfedge 57 edge 28
l 116 103

g halfedge 58 edge 29
l 117 102

g halfedge 59 edge 29
l 102 117

g halfedge 60 edge 30
l 148 149

g halfedge 61 edge 30
l 149 148

g halfedge 62 edge 31
l 155 154 153 152 151 150 149

g halfedge 63 edge 31
l 149 150 151 152 153 154 155

g halfedge 64 edge 32
l 155 156

g halfedge 65 edge 32
l 156 155

g halfedge 66 edge 33
l 148 160 159 158 157 156

g halfedge 67 edge 33
l 156 157 158 159 160 148

g halfedge 68 edge 34
l 137 148

g halfedge 69 edge 34
l 148 137

g halfedge 70 edge 35
l 149 136

g halfedge 71 edge 35
l 136 149

g halfedge 72 edge 36
l 156 90

g halfedge 73 edge 36
l 90 156

g halfedge 74 edge 37
l 91 155

g halfedge 75 edge 37
l 155 91

g halfedge 76 edge 38
l 79 163

g halfedge 77 edge 38
l 163 79

g halfedge 78 edge 39
l 163 164 165 166 167 168 169 170 171 172

g halfedge 79 edge 39
l 172 171 170 169 168 167 166 165 164 163

g halfedge 80 edge 40
l 172 173

g halfedge 81 edge 40
l 173 172

g halfedge 82 edge 41
l 173 174 175 102

g halfedge 83 edge 41
l 102 175 174 173

g halfedge 84 edge 42
l 176 73

g halfedge 85 edge 42
l 73 176

g halfedge 86 edge 43
l 176 177 178 163

g halfedge 87 edge 43
l 163 178 177 176

g halfedge 88 edge 44
l 78 179

g halfedge 89 edge 44
l 179 78

g halfedge 90 edge 45
l 176 179

g halfedge 91 edge 45
l 179 176

g halfedge 92 edge 46
l 180 91

g halfedge 93 edge 46
l 91 180

g halfedge 94 edge 47
l 179 182 181 180

g halfedge 95 edge 47
l 180 181 182 179

g halfedge 96 edge 48
l 149 183 184 185

g halfedge 97 edge 48
l 185 184 183 149

g halfedge 98 edge 49
l 185 186

g halfedge 99 edge 49
l 186 185

g halfedge 100 edge 50
l 186 187 188 189 190 191 192 193 194 180

g halfedge 101 edge 50
l 180 194 193 192 191 190 189 188 187 186

g halfedge 102 edge 51
l 197 196 195 131

g halfedge 103 edge 51
l 131 195 196 197

g halfedge 104 edge 52
l 197 198 199 185

g halfedge 105 edge 52
l 185 199 198 197

g halfedge 106 edge 53
l 204 205 206 186

g halfedge 107 edge 53
l 186 206 205 204

g halfedge 108 edge 54
l 204 197

g halfedge 109 edge 54
l 197 204

g halfedge 110 edge 55
l 179 215 214 213 212 211 210 209 208 207 204

g halfedge 111 edge 55
l 204 207 208 209 210 211 212 213 214 215 179

g halfedge 112 edge 56
l 234 235 236 172

g halfedge 113 edge 56
l 172 236 235 234

g halfedge 114 edge 57
l 234 245 244 243 242 241 240 239 238 237 176

g halfedge 115 edge 57
l 176 237 238 239 240 241 242 243 244 245 234

g halfedge 116 edge 58
l 264 265 266 173

g halfedge 117 edge 58
l 173 266 265 264

g halfedge 118 edge 59
l 264 234

g halfedge 119 edge 59
l 234 264

g halfedge 120 edge 60
l 121 268 267 264

g halfedge 121 edge 60
l 264 267 268 121

g halfedge 122 edge 61
l 197 264

g halfedge 123 edge 61
l 264 197

g halfedge 124 edge 62
l 204 234

g halfedge 125 edge 62
l 234 204

g vertex 0
p 1

g vertex 1
p 17

g vertex 2
p 73

g vertex 3
p 75

g vertex 4
p 76

g vertex 5
p 78

g vertex 6
p 79

g vertex 7
p 80

g vertex 8
p 90

g vertex 9
p 91

g vertex 10
p 102

g vertex 11
p 103

g vertex 12
p 108

g vertex 13
p 109

g vertex 14
p 116

g vertex 15
p 117

g vertex 16
p 121

g vertex 17
p 122

g vertex 18
p 131

g vertex 19
p 132

g vertex 20
p 136

g vertex 21
p 137

g vertex 22
p 148

g vertex 23
p 149

g vertex 24
p 155

g vertex 25
p 156

g vertex 26
p 163

g vertex 27
p 172

g vertex 28
p 173

g vertex 29
p 176

g vertex 30
p 179

g vertex 31
p 180

g vertex 32
p 185

g vertex 33
p 186

g vertex 34
p 197

g vertex 35
p 204

g vertex 36
p 234

g vertex 37
p 264

# End of file
