# WaveFront *.obj file
# Vertices: 355
# Triangles : 706

v -2.0272177052935100e-01 1.4223999846518032e-01 -9.6519998833537091e-01
v -2.1009937113674085e-01 1.3003178910276730e-01 -9.7847987428844374e-01
v -2.2003532377068530e-01 1.2044046959624574e-01 -9.9224520799213778e-01
v -2.3201415880257628e-01 1.1398545505027509e-01 -1.0047195007009933e+00
v -2.4636132252869969e-01 1.0962377860667483e-01 -1.0159908881494857e+00
v -2.6266255123467652e-01 1.0691979118749907e-01 -1.0253897278601847e+00
v -2.8042329163011992e-01 1.0542714046164434e-01 -1.0322733795651085e+00
v -2.9895145500409775e-01 1.0473637216315793e-01 -1.0364403504382467e+00
v -3.1750000000000006e-01 1.0456795289316723e-01 -1.0378404625870432e+00
v -3.3604854499590242e-01 1.0473637216315790e-01 -1.0364403504382462e+00
v -3.5457670836988037e-01 1.0542714046164434e-01 -1.0322733795651085e+00
v -3.7233744876532382e-01 1.0691979118749909e-01 -1.0253897278601847e+00
v -3.8863867747130054e-01 1.0962377860667484e-01 -1.0159908881494855e+00
v -4.0298584119742387e-01 1.1398545505027510e-01 -1.0047195007009933e+00
v -4.1496467622931488e-01 1.2044046959624577e-01 -9.9224520799213745e-01
v -4.2490062886325930e-01 1.3003178910276733e-01 -9.7847987428844374e-01
v -4.3227822947064909e-01 1.4223999846518032e-01 -9.6519998833537091e-01
v -4.3854152810095115e-01 1.6556099273980959e-01 -9.4928316244590527e-01
v -4.4203068578540350e-01 1.9086304626774567e-01 -9.3575108382704508e-01
v -4.4374980235077566e-01 2.1840021497634685e-01 -9.2462266558361350e-01
v -4.4438794412475996e-01 2.4731715988370440e-01 -9.1660312405725963e-01
v -4.4452367350145200e-01 2.7661795319583499e-01 -9.1191340473953253e-01
v -4.4449945987668926e-01 3.0521916711148178e-01 -9.1045049780053400e-01
v -4.4450574133573784e-01 3.3391119638738576e-01 -9.1212359705382706e-01
v -4.4434776185162705e-01 3.6322000217415384e-01 -9.1705699805568952e-01
v -1.9065223814837309e-01 3.6322000217415384e-01 -9.1705699805568952e-01
v -1.9049425866426234e-01 3.3391119638738587e-01 -9.1212359705382684e-01
v -1.9050054012331080e-01 3.0521916711148189e-01 -9.1045049780053400e-01
v -1.9047632649854809e-01 2.7661795319583504e-01 -9.1191340473953231e-01
v -1.9061205587524008e-01 2.4731715988370465e-01 -9.1660312405725974e-01
v -1.9125019764922438e-01 2.1840021497634704e-01 -9.2462266558361339e-01
v -1.9296931421459670e-01 1.9086304626774581e-01 -9.3575108382704508e-01
v -1.9645847189904900e-01 1.6556099273980968e-01 -9.4928316244590560e-01
v -4.2535184294667538e-01 4.0893999524205915e-01 -9.7789998818188895e-01
v -4.1536165111626822e-01 4.0563455604912352e-01 -9.9178467226771705e-01
v -4.0434568353583245e-01 4.0078711097572756e-01 -1.0034995919052223e+00
v -3.9205332477282118e-01 3.9477356572038447e-01 -1.0136450052799382e+00
v -3.7868384478008343e-01 3.8814462458377474e-01 -1.0221278887498157e+00
v -3.6444639974822080e-01 3.8146600966757527e-01 -1.0288456486537325e+00
v -3.4948565149591160e-01 3.7549293203017309e-01 -1.0337469582365153e+00
v -3.3384091686499562e-01 3.7116355932944067e-01 -1.0367870028973636e+00
v -3.1750000000000006e-01 3.6950573564521511e-01 -1.0378404625870439e+00
v -3.0115908313500434e-01 3.7116355932944067e-01 -1.0367870028973636e+00
v -2.8551434850408841e-01 3.7549293203017309e-01 -1.0337469582365153e+00
v -2.7055360025177916e-01 3.8146600966757510e-01 -1.0288456486537321e+00
v -2.5631615521991657e-01 3.8814462458377469e-01 -1.0221278887498155e+00
v -2.4294667522717878e-01 3.9477356572038447e-01 -1.0136450052799377e+00
v -2.3065431646416754e-01 4.0078711097572767e-01 -1.0034995919052223e+00
v -2.1963834888373190e-01 4.0563455604912357e-01 -9.9178467226771705e-01
v -2.0964815705332474e-01 4.0893999524205915e-01 -9.7789998818188895e-01
v -4.4417209106520106e-01 3.7389529428480484e-01 -9.1996181507914909e-01
v -4.4371045735907133e-01 3.8378803718500393e-01 -9.2496262275285268e-01
v -4.4279099096522717e-01 3.9227676203004552e-01 -9.3160440386160215e-01
v -4.4119099579545396e-01 3.9916673860650692e-01 -9.3961913697226285e-01
v -4.3865924130585981e-01 4.0448716135213031e-01 -9.4890954050640564e-01
v -4.3507009873160013e-01 4.0783371214993908e-01 -9.5883383585084281e-01
v -4.3057234393988336e-01 4.0923974724670420e-01 -9.6865791255325173e-01
v -2.0442765606011681e-01 4.0923974724670409e-01 -9.6865791255325140e-01
v -1.9992990126839988e-01 4.0783371214993919e-01 -9.5883383585084303e-01
v -1.9634075869414011e-01 4.0448716135213025e-01 -9.4890954050640552e-01
v -1.9380900420454605e-01 3.9916673860650687e-01 -9.3961913697226285e-01
v -1.9220900903477298e-01 3.9227676203004541e-01 -9.3160440386160204e-01
v -1.9128954264092879e-01 3.8378803718500387e-01 -9.2496262275285246e-01
v -1.9082790893479906e-01 3.7389529428480461e-01 -9.1996181507914909e-01
v -4.4450000000000006e-01 4.5973999999999993e-01 -9.1084046258704388e-01
v -4.4080961081310865e-01 4.5973999999999993e-01 -8.8044737322252409e-01
v -4.2995291525795770e-01 4.5973999999999993e-01 -8.5182061973748524e-01
v -4.1256086501772993e-01 4.5973999999999993e-01 -8.2662388499046291e-01
v -3.8964422283485683e-01 4.5973999999999993e-01 -8.0632151161854948e-01
v -3.6253482065440207e-01 4.5973999999999993e-01 -7.9209339976599624e-01
v -3.3280815839242611e-01 4.5973999999999993e-01 -7.8476643557659098e-01
v -3.0219184160757406e-01 4.5973999999999993e-01 -7.8476643557659098e-01
v -2.7246517934559805e-01 4.5973999999999993e-01 -7.9209339976599624e-01
v -2.4535577716514329e-01 4.5973999999999993e-01 -8.0632151161854948e-01
v -2.2243913498227025e-01 4.5973999999999993e-01 -8.2662388499046280e-01
v -2.0504708474204242e-01 4.5973999999999993e-01 -8.5182061973748524e-01
v -1.9419038918689147e-01 4.5973999999999993e-01 -8.8044737322252398e-01
v -1.9050000000000006e-01 4.5973999999999993e-01 -9.1084046258704388e-01
v -1.9419038918689144e-01 4.5973999999999993e-01 -9.4123355195156366e-01
v -2.0504708474204242e-01 4.5973999999999993e-01 -9.6986030543660251e-01
v -2.2243913498227019e-01 4.5973999999999993e-01 -9.9505704018362484e-01
v -2.4535577716514329e-01 4.5973999999999993e-01 -1.0153594135555382e+00
v -2.7246517934559800e-01 4.5973999999999993e-01 -1.0295875254080915e+00
v -3.0219184160757401e-01 4.5973999999999993e-01 -1.0369144895974967e+00
v -3.3280815839242600e-01 4.5973999999999993e-01 -1.0369144895974967e+00
v -3.6253482065440207e-01 4.5973999999999993e-01 -1.0295875254080915e+00
v -3.8964422283485683e-01 4.5973999999999993e-01 -1.0153594135555382e+00
v -4.1256086501772987e-01 4.5973999999999993e-01 -9.9505704018362495e-01
v -4.2995291525795765e-01 4.5973999999999993e-01 -9.6986030543660251e-01
v -4.4080961081310865e-01 4.5973999999999993e-01 -9.4123355195156377e-01
v -4.0640000000000004e-01 4.9783999999999995e-01 -9.1084046258704388e-01
v -4.0279892535432887e-01 4.9783999999999995e-01 -9.3588648689024700e-01
v -3.9228743906869207e-01 4.9783999999999995e-01 -9.5890343125884647e-01
v -3.7571711924773588e-01 4.9783999999999995e-01 -9.7802659974713746e-01
v -3.5443039465586779e-01 4.9783999999999995e-01 -9.9170674697406058e-01
v -3.3015178912249510e-01 4.9783999999999995e-01 -9.9883558877025880e-01
v -3.0484821087750502e-01 4.9783999999999995e-01 -9.9883558877025880e-01
v -2.8056960534413233e-01 4.9783999999999995e-01 -9.9170674697406058e-01
v -2.5928288075226419e-01 4.9783999999999995e-01 -9.7802659974713746e-01
v -2.4271256093130805e-01 4.9783999999999995e-01 -9.5890343125884647e-01
v -2.3220107464567125e-01 4.9783999999999995e-01 -9.3588648689024700e-01
v -2.2860000000000005e-01 4.9783999999999995e-01 -9.1084046258704388e-01
v -2.3220107464567125e-01 4.9783999999999995e-01 -8.8579443828384075e-01
v -2.4271256093130805e-01 4.9783999999999995e-01 -8.6277749391524128e-01
v -2.5928288075226419e-01 4.9783999999999995e-01 -8.4365432542695029e-01
v -2.8056960534413239e-01 4.9783999999999995e-01 -8.2997417820002717e-01
v -3.0484821087750502e-01 4.9783999999999995e-01 -8.2284533640382895e-01
v -3.3015178912249510e-01 4.9783999999999995e-01 -8.2284533640382895e-01
v -3.5443039465586773e-01 4.9783999999999995e-01 -8.2997417820002717e-01
v -3.7571711924773593e-01 4.9783999999999995e-01 -8.4365432542695029e-01
v -3.9228743906869207e-01 4.9783999999999995e-01 -8.6277749391524128e-01
v -4.0279892535432887e-01 4.9783999999999995e-01 -8.8579443828384075e-01
v -3.1750000000000006e-01 4.7432023877310986e-01 -1.0349402727757240e+00
v -3.1750000000000006e-01 4.8668076836320739e-01 -1.0266812309502513e+00
v -3.1750000000000006e-01 4.9493981018867994e-01 -1.0143207013601538e+00
v -4.0266256694909269e-01 4.9493981018867994e-01 -9.6962393821737003e-01
v -4.0266256694909269e-01 4.9493981018867994e-01 -8.5205698695671772e-01
v -2.3233743305090743e-01 4.9493981018867994e-01 -8.5205698695671772e-01
v -2.3233743305090743e-01 4.9493981018867994e-01 -9.6962393821737003e-01
v -4.4069498284818681e-01 4.7432023877310986e-01 -8.9588188344658459e-01
v -4.3249615873649316e-01 4.8668076836320739e-01 -8.9687740093031698e-01
v -4.2022575132385176e-01 4.9493981018867994e-01 -8.9836729813330507e-01
v -4.2022575132385176e-01 4.9493981018867994e-01 -9.2331362704078268e-01
v -4.3249615873649316e-01 4.8668076836320739e-01 -9.2480352424377077e-01
v -4.4069498284818681e-01 4.7432023877310986e-01 -9.2579904172750316e-01
v -4.3353533824059276e-01 4.7432023877310986e-01 -8.6683406341308689e-01
v -4.2581299998475775e-01 4.8668076836320739e-01 -8.6976276000668817e-01
v -4.1425570404982281e-01 4.9493981018867994e-01 -8.7414586420577056e-01
v -4.1963214154574890e-01 4.7432023877310986e-01 -8.4034373534282691e-01
v -4.1283508337564412e-01 4.8668076836320739e-01 -8.4503540584565595e-01
v -3.9979339601949571e-01 4.7432023877310986e-01 -8.1795042081482339e-01
v -3.9431663824966640e-01 4.8668076836320739e-01 -8.2413240239078422e-01
v -3.8612009101061689e-01 4.9493981018867994e-01 -8.3338439164205924e-01
v -3.7517205744091303e-01 4.7432023877310986e-01 -8.0095553787305751e-01
v -3.7133388932573730e-01 4.8668076836320739e-01 -8.0826855622354410e-01
v -3.6558966480648630e-01 4.9493981018867994e-01 -8.1921326162936081e-01
v -3.4719902851326384e-01 4.7432023877310986e-01 -7.9034676734021880e-01
v -3.4522251043242214e-01 4.8668076836320739e-01 -7.9836581642044091e-01
v -3.4226444208262191e-01 4.9493981018867994e-01 -8.1036717148499871e-01
v -3.1750000000000006e-01 4.7432023877310986e-01 -7.8674065239836388e-01
v -3.1750000000000006e-01 4.8668076836320739e-01 -7.9499969422383643e-01
v -3.1750000000000006e-01 4.9493981018867994e-01 -8.0736022381393402e-01
v -2.8780097148673628e-01 4.7432023877310986e-01 -7.9034676734021880e-01
v -2.8977748956757798e-01 4.8668076836320739e-01 -7.9836581642044091e-01
v -2.9273555791737821e-01 4.9493981018867994e-01 -8.1036717148499871e-01
v -2.5982794255908709e-01 4.7432023877310986e-01 -8.0095553787305751e-01
v -2.6366611067426282e-01 4.8668076836320739e-01 -8.0826855622354410e-01
v -2.6941033519351382e-01 4.9493981018867994e-01 -8.1921326162936081e-01
v -2.3520660398050441e-01 4.7432023877310986e-01 -8.1795042081482339e-01
v -2.4068336175033372e-01 4.8668076836320739e-01 -8.2413240239078422e-01
v -2.4887990898938320e-01 4.9493981018867994e-01 -8.3338439164205924e-01
v -2.1536785845425119e-01 4.7432023877310986e-01 -8.4034373534282691e-01
v -2.2216491662435600e-01 4.8668076836320739e-01 -8.4503540584565595e-01
v -2.0146466175940730e-01 4.7432023877310986e-01 -8.6683406341308689e-01
v -2.0918700001524235e-01 4.8668076836320739e-01 -8.6976276000668817e-01
v -2.2074429595017725e-01 4.9493981018867994e-01 -8.7414586420577056e-01
v -1.9430501715181331e-01 4.7432023877310986e-01 -8.9588188344658459e-01
v -2.0250384126350690e-01 4.8668076836320739e-01 -8.9687740093031698e-01
v -2.1477424867614833e-01 4.9493981018867994e-01 -8.9836729813330496e-01
v -1.9430501715181331e-01 4.7432023877310986e-01 -9.2579904172750294e-01
v -2.0250384126350690e-01 4.8668076836320739e-01 -9.2480352424377066e-01
v -2.1477424867614833e-01 4.9493981018867994e-01 -9.2331362704078257e-01
v -2.0146466175940730e-01 4.7432023877310986e-01 -9.5484686176100086e-01
v -2.0918700001524235e-01 4.8668076836320739e-01 -9.5191816516739958e-01
v -2.2074429595017725e-01 4.9493981018867994e-01 -9.4753506096831719e-01
v -2.1536785845425119e-01 4.7432023877310986e-01 -9.8133718983126084e-01
v -2.2216491662435600e-01 4.8668076836320739e-01 -9.7664551932843180e-01
v -2.3520660398050441e-01 4.7432023877310986e-01 -1.0037305043592644e+00
v -2.4068336175033370e-01 4.8668076836320739e-01 -9.9754852278330353e-01
v -2.4887990898938320e-01 4.9493981018867994e-01 -9.8829653353202851e-01
v -2.5982794255908703e-01 4.7432023877310986e-01 -1.0207253873010302e+00
v -2.6366611067426282e-01 4.8668076836320739e-01 -1.0134123689505437e+00
v -2.6941033519351382e-01 4.9493981018867994e-01 -1.0024676635447269e+00
v -2.8780097148673622e-01 4.7432023877310986e-01 -1.0313341578338688e+00
v -2.8977748956757787e-01 4.8668076836320739e-01 -1.0233151087536467e+00
v -2.9273555791737810e-01 4.9493981018867994e-01 -1.0113137536890890e+00
v -3.4719902851326384e-01 4.7432023877310986e-01 -1.0313341578338691e+00
v -3.4522251043242214e-01 4.8668076836320739e-01 -1.0233151087536470e+00
v -3.4226444208262191e-01 4.9493981018867994e-01 -1.0113137536890890e+00
v -3.7517205744091303e-01 4.7432023877310986e-01 -1.0207253873010302e+00
v -3.7133388932573730e-01 4.8668076836320739e-01 -1.0134123689505437e+00
v -3.6558966480648630e-01 4.9493981018867994e-01 -1.0024676635447269e+00
v -3.9979339601949571e-01 4.7432023877310986e-01 -1.0037305043592644e+00
v -3.9431663824966640e-01 4.8668076836320739e-01 -9.9754852278330353e-01
v -3.8612009101061689e-01 4.9493981018867994e-01 -9.8829653353202851e-01
v -4.1963214154574890e-01 4.7432023877310986e-01 -9.8133718983126084e-01
v -4.1283508337564412e-01 4.8668076836320739e-01 -9.7664551932843180e-01
v -4.3353533824059276e-01 4.7432023877310986e-01 -9.5484686176100086e-01
v -4.2581299998475775e-01 4.8668076836320739e-01 -9.5191816516739958e-01
v -4.1425570404982281e-01 4.9493981018867994e-01 -9.4753506096831719e-01
v -4.4450000000000006e-01 -2.8956000000000004e-01 -9.1084046258704388e-01
v -4.4080961081310865e-01 -2.8956000000000004e-01 -8.8044737322252398e-01
v -4.2995291525795765e-01 -2.8956000000000004e-01 -8.5182061973748524e-01
v -4.1256086501772987e-01 -2.8956000000000004e-01 -8.2662388499046280e-01
v -3.8964422283485683e-01 -2.8956000000000004e-01 -8.0632151161854948e-01
v -3.6253482065440207e-01 -2.8956000000000004e-01 -7.9209339976599624e-01
v -3.3280815839242600e-01 -2.8956000000000004e-01 -7.8476643557659098e-01
v -3.0219184160757401e-01 -2.8956000000000004e-01 -7.8476643557659098e-01
v -2.7246517934559800e-01 -2.8956000000000004e-01 -7.9209339976599624e-01
v -2.4535577716514329e-01 -2.8956000000000004e-01 -8.0632151161854948e-01
v -2.2243913498227019e-01 -2.8956000000000004e-01 -8.2662388499046291e-01
v -2.0504708474204242e-01 -2.8956000000000004e-01 -8.5182061973748524e-01
v -1.9419038918689144e-01 -2.8956000000000004e-01 -8.8044737322252409e-01
v -1.9050000000000006e-01 -2.8956000000000004e-01 -9.1084046258704388e-01
v -1.9419038918689147e-01 -2.8956000000000004e-01 -9.4123355195156377e-01
v -2.0504708474204242e-01 -2.8956000000000004e-01 -9.6986030543660251e-01
v -2.2243913498227025e-01 -2.8956000000000004e-01 -9.9505704018362495e-01
v -2.4535577716514329e-01 -2.8956000000000004e-01 -1.0153594135555382e+00
v -2.7246517934559805e-01 -2.8956000000000004e-01 -1.0295875254080915e+00
v -3.0219184160757406e-01 -2.8956000000000004e-01 -1.0369144895974967e+00
v -3.3280815839242611e-01 -2.8956000000000004e-01 -1.0369144895974967e+00
v -3.6253482065440207e-01 -2.8956000000000004e-01 -1.0295875254080915e+00
v -3.8964422283485683e-01 -2.8956000000000004e-01 -1.0153594135555382e+00
v -4.1256086501772993e-01 -2.8956000000000004e-01 -9.9505704018362484e-01
v -4.2995291525795770e-01 -2.8956000000000004e-01 -9.6986030543660251e-01
v -4.4080961081310865e-01 -2.8956000000000004e-01 -9.4123355195156366e-01
v -1.6510000000000008e-01 -2.8956000000000004e-01 -9.1084046258704388e-01
v -1.6866302730978286e-01 -2.8956000000000004e-01 -8.7807896749888381e-01
v -1.7918550604214625e-01 -2.8956000000000004e-01 -8.4684936350925955e-01
v -1.9617541678646000e-01 -2.8956000000000004e-01 -8.1861191219151397e-01
v -2.1883833019924959e-01 -2.8956000000000004e-01 -7.9468696538559203e-01
v -2.4611455363735202e-01 -2.8956000000000004e-01 -7.7619322701347004e-01
v -2.7672868120814692e-01 -2.8956000000000004e-01 -7.6399544372711425e-01
v -3.0924923033158241e-01 -2.8956000000000004e-01 -7.5866397031613264e-01
v -3.4215557627464138e-01 -2.8956000000000004e-01 -7.6044810055171530e-01
v -3.7390905487380299e-01 -2.8956000000000004e-01 -7.6926441048696492e-01
v -4.0302490876122715e-01 -2.8956000000000004e-01 -7.8470065926793375e-01
v -4.2814171296908521e-01 -2.8956000000000004e-01 -8.0603506505778222e-01
v -4.4808503364794067e-01 -2.8956000000000004e-01 -8.3227005475326576e-01
v -4.6192234328825915e-01 -2.8956000000000004e-01 -8.6217890939432063e-01
v -4.6900662467032445e-01 -2.8956000000000004e-01 -8.9436312417923514e-01
v -4.6900662467032445e-01 -2.8956000000000004e-01 -9.2731780099485261e-01
v -4.6192234328825910e-01 -2.8956000000000004e-01 -9.5950201577976724e-01
v -4.4808503364794061e-01 -2.8956000000000004e-01 -9.8941087042082199e-01
v -4.2814171296908515e-01 -2.8956000000000004e-01 -1.0156458601163056e+00
v -4.0302490876122710e-01 -2.8956000000000004e-01 -1.0369802659061540e+00
v -3.7390905487380299e-01 -2.8956000000000004e-01 -1.0524165146871229e+00
v -3.4215557627464138e-01 -2.8956000000000004e-01 -1.0612328246223726e+00
v -3.0924923033158236e-01 -2.8956000000000004e-01 -1.0630169548579551e+00
v -2.7672868120814675e-01 -2.8956000000000004e-01 -1.0576854814469734e+00
v -2.4611455363735199e-01 -2.8956000000000004e-01 -1.0454876981606178e+00
v -2.1883833019924948e-01 -2.8956000000000004e-01 -1.0269939597884956e+00
v -1.9617541678645992e-01 -2.8956000000000004e-01 -1.0030690129825737e+00
v -1.7918550604214623e-01 -2.8956000000000004e-01 -9.7483156166482821e-01
v -1.6866302730978286e-01 -2.8956000000000004e-01 -9.4360195767520394e-01
v -2.6670000000000010e-01 -3.4036000000000005e-01 -9.1084046258704388e-01
v -2.7013041074625882e-01 -3.4036000000000005e-01 -9.2919153922935127e-01
v -2.7995834700519062e-01 -3.4036000000000005e-01 -9.4506420128428892e-01
v -2.9485649152655191e-01 -3.4036000000000005e-01 -9.5631475778788100e-01
v -3.1281276733926433e-01 -3.4036000000000005e-01 -9.6142375874283159e-01
v -3.3140207989566184e-01 -3.4036000000000005e-01 -9.5970120526022307e-01
v -3.4811383952806624e-01 -3.4036000000000005e-01 -9.5137973773287998e-01
v -3.6069103049506446e-01 -3.4036000000000005e-01 -9.3758321646121356e-01
v -3.6743503346394224e-01 -3.4036000000000005e-01 -9.2017493809212558e-01
v -3.6743503346394224e-01 -3.4036000000000005e-01 -9.0150598708196217e-01
v -3.6069103049506440e-01 -3.4036000000000005e-01 -8.8409770871287419e-01
v -3.4811383952806624e-01 -3.4036000000000005e-01 -8.7030118744120777e-01
v -3.3140207989566184e-01 -3.4036000000000005e-01 -8.6197971991386468e-01
v -3.1281276733926433e-01 -3.4036000000000005e-01 -8.6025716643125616e-01
v -2.9485649152655191e-01 -3.4036000000000005e-01 -8.6536616738620675e-01
v -2.7995834700519062e-01 -3.4036000000000005e-01 -8.7661672388979883e-01
v -2.7013041074625882e-01 -3.4036000000000005e-01 -8.9248938594473648e-01
v -1.8532507521578762e-01 -3.1086446972505294e-01 -9.1084046258704388e-01
v -2.0990387337150543e-01 -3.2695225325698934e-01 -9.1084046258704388e-01
v -2.3752137909048526e-01 -3.3696262166240176e-01 -9.1084046258704388e-01
v -2.5185647187929444e-01 -3.3696262166240176e-01 -9.5652970659976544e-01
v -2.7519418794328326e-01 -3.3696262166240176e-01 -9.7871385994425319e-01
v -2.8972300484284097e-01 -3.3696262166240176e-01 -9.8584058487112447e-01
v -3.2155085067393346e-01 -3.3696262166240176e-01 -9.9071643151015221e-01
v -3.7818442825686194e-01 -3.3696262166240176e-01 -9.6293633545357404e-01
v -3.9381074188250592e-01 -3.3696262166240176e-01 -9.3478311231361855e-01
v -4.4899677798944415e-01 -3.1086446972505294e-01 -8.9746854723781000e-01
v -3.9706827647006593e-01 -3.3696262166240176e-01 -9.1893176545932853e-01
v -3.9381074188250592e-01 -3.3696262166240176e-01 -8.8689781286046920e-01
v -3.7818442825686194e-01 -3.3696262166240176e-01 -8.5874458972051371e-01
v -3.2155085067393346e-01 -3.3696262166240176e-01 -8.3096449366393554e-01
v -2.8972300484284097e-01 -3.3696262166240176e-01 -8.3584034030296328e-01
v -2.7519418794328326e-01 -3.3696262166240176e-01 -8.4296706522983456e-01
v -2.5185647187929444e-01 -3.3696262166240176e-01 -8.6515121857432231e-01
v -1.8803070369106750e-01 -3.1086446972505294e-01 -8.8423384583515185e-01
v -2.1210637240459473e-01 -3.2695225325698934e-01 -8.8918152152945573e-01
v -2.3915854615904747e-01 -3.3696262166240176e-01 -8.9474088455922651e-01
v -1.9603682036923162e-01 -3.1086446972505294e-01 -8.5871650709922720e-01
v -2.1862369893466543e-01 -3.2695225325698934e-01 -8.6840930006358297e-01
v -2.4400302155258832e-01 -3.3696262166240176e-01 -8.7930042514748818e-01
v -2.0901565389279692e-01 -3.1086446972505294e-01 -8.3533312922527836e-01
v -2.2918903284782294e-01 -3.2695225325698934e-01 -8.4937421537687041e-01
v -2.2643584929236060e-01 -3.1086446972505294e-01 -8.1504103045089527e-01
v -2.4336982813228869e-01 -3.2695225325698934e-01 -8.3285556607291988e-01
v -2.6239737596004936e-01 -3.3696262166240176e-01 -8.5287253501929550e-01
v -2.4758422172147840e-01 -3.1086446972505294e-01 -7.9867097168412138e-01
v -2.6058552136294383e-01 -3.2695225325698934e-01 -8.1952962759509385e-01
v -2.7159495432807401e-01 -3.1086446972505294e-01 -7.8689314505426866e-01
v -2.8013130003616743e-01 -3.2695225325698934e-01 -8.0994196543040575e-01
v -2.9748504489809213e-01 -3.1086446972505294e-01 -7.8018973616739928e-01
v -3.0120695767654609e-01 -3.2695225325698934e-01 -8.0448509959438053e-01
v -3.0538901518779116e-01 -3.3696262166240176e-01 -8.3178412919454259e-01
v -3.2419455008163978e-01 -3.1086446972505294e-01 -7.7883518337095858e-01
v -3.2294965438399820e-01 -3.2695225325698934e-01 -8.0338243481549942e-01
v -3.5062997959826880e-01 -3.1086446972505294e-01 -7.8288494221558613e-01
v -3.4446924160066217e-01 -3.2695225325698934e-01 -8.0667911431936745e-01
v -3.3754684385753020e-01 -3.3696262166240176e-01 -8.3341498968606831e-01
v -3.7570906385753744e-01 -3.1086446972505294e-01 -7.9217321509835659e-01
v -3.6488470489744373e-01 -3.2695225325698934e-01 -8.1424017165975293e-01
v -3.5272211689819549e-01 -3.3696262166240176e-01 -8.3903529366587404e-01
v -3.9840506220320382e-01 -3.1086446972505294e-01 -8.0631973903612331e-01
v -3.8336023280825748e-01 -3.2695225325698934e-01 -8.2575605626075399e-01
v -3.6645539233462565e-01 -3.3696262166240176e-01 -8.4759530969806141e-01
v -4.1778879779632994e-01 -3.1086446972505294e-01 -8.2474535367672841e-01
v -3.9913943504965244e-01 -3.2695225325698934e-01 -8.4075530645374674e-01
v -4.3306669822424093e-01 -3.1086446972505294e-01 -8.4669571219186757e-01
v -4.1157630922788835e-01 -3.2695225325698934e-01 -8.5862385117349271e-01
v -3.8742903655614469e-01 -3.3696262166240176e-01 -8.7202668089912694e-01
v -4.4361328444834092e-01 -3.1086446972505294e-01 -8.7127216432487342e-01
v -4.2016168825283745e-01 -3.2695225325698934e-01 -8.7863015009970091e-01
v -4.2454408569847918e-01 -3.2695225325698934e-01 -8.9995514300369173e-01
v -3.9706827647006593e-01 -3.3696262166240176e-01 -9.0274915971475922e-01
v -4.4361328444834092e-01 -3.1086446972505294e-01 -9.5040876084921433e-01
v -4.2016168825283745e-01 -3.2695225325698934e-01 -9.4305077507438684e-01
v -4.2454408569847918e-01 -3.2695225325698934e-01 -9.2172578217039602e-01
v -4.4899677798944415e-01 -3.1086446972505294e-01 -9.2421237793627775e-01
v -4.3306669822424093e-01 -3.1086446972505294e-01 -9.7498521298222018e-01
v -4.1157630922788835e-01 -3.2695225325698934e-01 -9.6305707400059504e-01
v -3.8742903655614469e-01 -3.3696262166240176e-01 -9.4965424427496081e-01
v -4.1778879779632994e-01 -3.1086446972505294e-01 -9.9693557149735934e-01
v -3.9913943504965244e-01 -3.2695225325698934e-01 -9.8092561872034101e-01
v -3.9840506220320387e-01 -3.1086446972505294e-01 -1.0153611861379643e+00
v -3.8336023280825754e-01 -3.2695225325698934e-01 -9.9592486891333365e-01
v -3.6645539233462571e-01 -3.3696262166240176e-01 -9.7408561547602635e-01
v -3.7570906385753750e-01 -3.1086446972505294e-01 -1.0295077100757313e+00
v -3.6488470489744379e-01 -3.2695225325698934e-01 -1.0074407535143348e+00
v -3.5272211689819555e-01 -3.3696262166240176e-01 -9.8264563150821371e-01
v -3.5062997959826880e-01 -3.1086446972505294e-01 -1.0387959829585016e+00
v -3.4446924160066217e-01 -3.2695225325698934e-01 -1.0150018108547203e+00
v -3.3754684385753020e-01 -3.3696262166240176e-01 -9.8826593548801944e-01
v -3.2419455008163978e-01 -3.1086446972505294e-01 -1.0428457418031292e+00
v -3.2294965438399820e-01 -3.2695225325698934e-01 -1.0182984903585883e+00
v -2.9748504489809219e-01 -3.1086446972505294e-01 -1.0414911890066885e+00
v -3.0120695767654609e-01 -3.2695225325698934e-01 -1.0171958255797071e+00
v -3.0538901518779116e-01 -3.3696262166240176e-01 -9.8989679597954516e-01
v -2.7159495432807407e-01 -3.1086446972505294e-01 -1.0347877801198191e+00
v -2.8013130003616743e-01 -3.2695225325698934e-01 -1.0117389597436819e+00
v -2.4758422172147840e-01 -3.1086446972505294e-01 -1.0230099534899664e+00
v -2.6058552136294383e-01 -3.2695225325698934e-01 -1.0021512975789939e+00
v -2.2643584929236060e-01 -3.1086446972505294e-01 -1.0066398947231925e+00
v -2.4336982813228869e-01 -3.2695225325698934e-01 -9.8882535910116787e-01
v -2.6239737596004936e-01 -3.3696262166240176e-01 -9.6880839015479225e-01
v -2.0901565389279692e-01 -3.1086446972505294e-01 -9.8634779594880939e-01
v -2.2918903284782294e-01 -3.2695225325698934e-01 -9.7230670979721734e-01
v -1.9603682036923162e-01 -3.1086446972505294e-01 -9.6296441807486055e-01
v -2.1862369893466543e-01 -3.2695225325698934e-01 -9.5327162511050478e-01
v -2.4400302155258832e-01 -3.3696262166240176e-01 -9.4238050002659957e-01
v -1.8803070369106750e-01 -3.1086446972505294e-01 -9.3744707933893590e-01
v -2.1210637240459473e-01 -3.2695225325698934e-01 -9.3249940364463202e-01
v -2.3915854615904747e-01 -3.3696262166240176e-01 -9.2694004061486124e-01

vn 0.0000000000000000e+00 6.8045109936727854e-01 -7.3279349162629848e-01
vn 0.0000000000000000e+00 7.8161847759953895e-01 -6.2375680795882216e-01
vn 0.0000000000000000e+00 7.8161847759953906e-01 -6.2375680795882205e-01
vn 0.0000000000000000e+00 8.6022636781181294e-01 -5.0991234160519738e-01
vn 0.0000000000000000e+00 9.1340105361137125e-01 -4.0706082501468627e-01
vn 0.0000000000000000e+00 9.1340105361137114e-01 -4.0706082501468627e-01
vn 0.0000000000000000e+00 8.6022636781181183e-01 -5.0991234160519938e-01
vn 0.0000000000000000e+00 9.4937259431703314e-01 -3.1415231522264159e-01
vn 0.0000000000000000e+00 9.4937259431703247e-01 -3.1415231522264336e-01
vn 0.0000000000000000e+00 9.7159348481852514e-01 -2.3665608012090963e-01
vn 0.0000000000000000e+00 9.7159348481852503e-01 -2.3665608012090972e-01
vn 0.0000000000000000e+00 9.8368916372817750e-01 -1.7987670545059101e-01
vn 0.0000000000000000e+00 9.8935356885710635e-01 -1.4553183771844216e-01
vn 0.0000000000000000e+00 9.8935356885710690e-01 -1.4553183771843858e-01
vn 0.0000000000000000e+00 9.9097787265234261e-01 -1.3402557932513284e-01
vn 0.0000000000000000e+00 6.0678616714194611e-01 -7.9486511268591120e-01
vn 0.0000000000000000e+00 5.1942160900249446e-01 -8.5451810519219529e-01
vn 0.0000000000000000e+00 5.1942160900249412e-01 -8.5451810519219562e-01
vn 0.0000000000000000e+00 4.2467997273565411e-01 -9.0534353742501739e-01
vn 0.0000000000000000e+00 4.2467997273565389e-01 -9.0534353742501761e-01
vn 0.0000000000000000e+00 3.2145127245536004e-01 -9.4692612142491328e-01
vn 0.0000000000000000e+00 3.2145127245535926e-01 -9.4692612142491372e-01
vn 0.0000000000000000e+00 2.1311748645746711e-01 -9.7702657945730997e-01
vn 0.0000000000000000e+00 2.1311748645746795e-01 -9.7702657945730997e-01
vn 0.0000000000000000e+00 1.0333296408623606e-01 -9.9464682100389412e-01
vn 0.0000000000000000e+00 1.0333296408623632e-01 -9.9464682100389412e-01
vn -0.0000000000000000e+00 -3.8398748460136676e-03 -9.9999262765340768e-01
vn -0.0000000000000000e+00 -3.8398748460140835e-03 -9.9999262765340768e-01
vn -0.0000000000000000e+00 -1.1134538252281390e-01 -9.9378176970140086e-01
vn -0.0000000000000000e+00 -1.1134538252281419e-01 -9.9378176970140086e-01
vn -0.0000000000000000e+00 -2.2114875176989973e-01 -9.7524008817860608e-01
vn 0.0000000000000000e+00 -9.8871243296088274e-01 1.4982564836693321e-01
vn 0.0000000000000000e+00 -9.5018004645560328e-01 3.1170158696680988e-01
vn 0.0000000000000000e+00 -9.5018004645560317e-01 3.1170158696680994e-01
vn 0.0000000000000000e+00 -8.9384726640525303e-01 4.4837156950441953e-01
vn 0.0000000000000000e+00 -8.2387086239658258e-01 5.6677755962450682e-01
vn 0.0000000000000000e+00 -8.2387086239658502e-01 5.6677755962450327e-01
vn 0.0000000000000000e+00 -8.9384726640525347e-01 4.4837156950441903e-01
vn 0.0000000000000000e+00 -7.4636256511076327e-01 6.6553957162687294e-01
vn 0.0000000000000000e+00 -7.4636256511076238e-01 6.6553957162687416e-01
vn 0.0000000000000000e+00 -6.6841694279219765e-01 7.4378679108218360e-01
vn 0.0000000000000000e+00 -6.6841694279219610e-01 7.4378679108218515e-01
vn 0.0000000000000000e+00 -5.9877152971484393e-01 8.0091988063909725e-01
vn 0.0000000000000000e+00 -5.4826120630255082e-01 8.3630715031241476e-01
vn 0.0000000000000000e+00 -5.2896808592266309e-01 8.4864171714293779e-01
vn -0.0000000000000000e+00 -1.6446180567151056e-01 -9.8638345204857636e-01
vn -0.0000000000000000e+00 -3.5796654396432209e-01 -9.3373441266895540e-01
vn -0.0000000000000000e+00 -3.5796654396432548e-01 -9.3373441266895407e-01
vn -0.0000000000000000e+00 -5.3742725279164338e-01 -8.4331011375224652e-01
vn -0.0000000000000000e+00 -6.9115995497907368e-01 -7.2270181723399929e-01
vn -0.0000000000000000e+00 -6.9115995497907157e-01 -7.2270181723400118e-01
vn -0.0000000000000000e+00 -5.3742725279164094e-01 -8.4331011375224818e-01
vn -0.0000000000000000e+00 -8.1631359061567910e-01 -5.7760896961191432e-01
vn -0.0000000000000000e+00 -8.1631359061567887e-01 -5.7760896961191477e-01
vn -0.0000000000000000e+00 -9.1251936806772294e-01 -4.0903349850749821e-01
vn -0.0000000000000000e+00 -9.1251936806772216e-01 -4.0903349850750009e-01
vn -0.0000000000000000e+00 -9.7338337005736797e-01 -2.2918292889253619e-01
vn -0.0000000000000000e+00 -9.7338337005736697e-01 -2.2918292889254044e-01
vn -0.0000000000000000e+00 -9.9869580679691783e-01 -5.1055709634215532e-02
vn 0.0000000000000000e+00 -9.9319397648689534e-01 1.1647199264264574e-01
vn -0.0000000000000000e+00 -9.9869580679691761e-01 -5.1055709634221666e-02
vn -9.7094181742605212e-01 -0.0000000000000000e+00 2.3931566428755746e-01
vn -9.1714341052151593e-01 3.8268343236508995e-01 1.1136137180475029e-01
vn -1.0000000000000000e+00 0.0000000000000000e+00 -1.0530111373640582e-16
vn -9.1714341052151593e-01 3.8268343236508995e-01 -1.1136137180475029e-01
vn -9.7094181742605201e-01 0.0000000000000000e+00 -2.3931566428755835e-01
vn -8.6384236918266089e-01 3.8268343236509000e-01 -3.2761219726707541e-01
vn -8.8545602565320969e-01 0.0000000000000000e+00 -4.6472317204376878e-01
vn -7.6033794928616272e-01 3.8268343236508995e-01 -5.2482339264612254e-01
vn -7.4851074817110064e-01 0.0000000000000000e+00 -6.6312265824079564e-01
vn -6.1264545149314764e-01 3.8268343236509000e-01 -6.9153376009999035e-01
vn -5.6806474673115626e-01 0.0000000000000000e+00 -8.2298386589365624e-01
vn -4.2934822693495922e-01 3.8268343236508995e-01 -8.1805469903978933e-01
vn -3.5460488704253545e-01 0.0000000000000000e+00 -9.3501624268541483e-01
vn -2.2109884404461685e-01 3.8268343236508995e-01 -8.9703327237924002e-01
vn -1.2053668025532226e-01 0.0000000000000000e+00 -9.9270887409805419e-01
vn -1.6442822767746786e-16 3.8268343236509000e-01 -9.2387953251128663e-01
vn 1.2053668025532323e-01 -0.0000000000000000e+00 -9.9270887409805397e-01
vn 1.2053668025532345e-01 -0.0000000000000000e+00 -9.9270887409805397e-01
vn 6.1856994780072206e-17 3.8268343236509000e-01 -9.2387953251128663e-01
vn 2.2109884404461755e-01 3.8268343236508989e-01 -8.9703327237923980e-01
vn 3.5460488704253623e-01 -0.0000000000000000e+00 -9.3501624268541461e-01
vn 4.2934822693495961e-01 3.8268343236508984e-01 -8.1805469903978922e-01
vn 5.6806474673115626e-01 -0.0000000000000000e+00 -8.2298386589365624e-01
vn 6.1264545149314786e-01 3.8268343236508989e-01 -6.9153376009999012e-01
vn 7.4851074817110130e-01 -0.0000000000000000e+00 -6.6312265824079497e-01
vn 7.6033794928616272e-01 3.8268343236509000e-01 -5.2482339264612254e-01
vn 8.8545602565320969e-01 -0.0000000000000000e+00 -4.6472317204376890e-01
vn 8.6384236918266089e-01 3.8268343236509000e-01 -3.2761219726707552e-01
vn 9.7094181742605212e-01 -0.0000000000000000e+00 -2.3931566428755732e-01
vn 9.1714341052151593e-01 3.8268343236509000e-01 -1.1136137180474981e-01
vn 1.0000000000000000e+00 -0.0000000000000000e+00 5.7211887261098218e-18
vn 9.1714341052151593e-01 3.8268343236509000e-01 1.1136137180475061e-01
vn 9.7094181742605201e-01 -0.0000000000000000e+00 2.3931566428755821e-01
vn 8.6384236918266077e-01 3.8268343236509000e-01 3.2761219726707558e-01
vn 8.8545602565320991e-01 -0.0000000000000000e+00 4.6472317204376878e-01
vn 7.6033794928616261e-01 3.8268343236509000e-01 5.2482339264612266e-01
vn 7.4851074817110064e-01 -0.0000000000000000e+00 6.6312265824079564e-01
vn 6.1264545149314753e-01 3.8268343236508989e-01 6.9153376009999057e-01
vn 5.6806474673115570e-01 -0.0000000000000000e+00 8.2298386589365657e-01
vn 4.2934822693495917e-01 3.8268343236509000e-01 8.1805469903978945e-01
vn 3.5460488704253557e-01 -0.0000000000000000e+00 9.3501624268541483e-01
vn 2.2109884404461672e-01 3.8268343236509000e-01 8.9703327237924002e-01
vn 1.2053668025532277e-01 -0.0000000000000000e+00 9.9270887409805397e-01
vn 5.1285616448697827e-17 3.8268343236509000e-01 9.2387953251128663e-01
vn -1.2053668025532323e-01 -0.0000000000000000e+00 9.9270887409805397e-01
vn -2.2109884404461702e-01 3.8268343236509000e-01 8.9703327237924002e-01
vn -3.5460488704253557e-01 -0.0000000000000000e+00 9.3501624268541483e-01
vn -4.2934822693495905e-01 3.8268343236508995e-01 8.1805469903978945e-01
vn -5.6806474673115570e-01 -0.0000000000000000e+00 8.2298386589365657e-01
vn -6.1264545149314775e-01 3.8268343236508989e-01 6.9153376009999012e-01
vn -7.4851074817110130e-01 -0.0000000000000000e+00 6.6312265824079497e-01
vn -7.6033794928616261e-01 3.8268343236509000e-01 5.2482339264612266e-01
vn -8.8545602565320969e-01 -0.0000000000000000e+00 4.6472317204376878e-01
vn -8.6384236918266089e-01 3.8268343236509000e-01 3.2761219726707541e-01
vn -5.8751999947068509e-17 1.0000000000000000e+00 -1.7251143697572856e-17
vn -3.7989323927912649e-01 9.2387953251128696e-01 -4.6127390526000296e-02
vn 8.2694607974275766e-16 1.0000000000000000e+00 8.7078343196867041e-32
vn -3.7989323927912649e-01 9.2387953251128696e-01 4.6127390526000303e-02
vn -5.8751999947068509e-17 1.0000000000000000e+00 1.7251143697572856e-17
vn -3.5781522506796382e-01 9.2387953251128707e-01 1.3570141530687230e-01
vn 6.9567131104449067e-16 1.0000000000000000e+00 -4.4708080454382601e-16
vn -3.1494229058127471e-01 9.2387953251128707e-01 2.1738896708468378e-01
vn -4.7632353393505974e-16 1.0000000000000000e+00 5.4970666183875137e-16
vn -2.5376605493464954e-01 9.2387953251128707e-01 2.8644266227227783e-01
vn -1.7784185857730120e-01 9.2387953251128707e-01 3.3884935110532083e-01
vn -4.6889852840051571e-01 7.0710678118654779e-01 5.2927702582280145e-01
vn -3.2860890632667117e-01 7.0710678118654779e-01 6.2611196018187409e-01
vn -3.5781522506796382e-01 9.2387953251128707e-01 -1.3570141530687230e-01
vn 6.9567131104449057e-16 1.0000000000000000e+00 4.4708080454382591e-16
vn -3.1494229058127471e-01 9.2387953251128707e-01 -2.1738896708468375e-01
vn 2.5071793081392468e-16 1.0000000000000000e+00 2.8934391646000791e-16
vn -2.5376605493464943e-01 9.2387953251128707e-01 -2.8644266227227788e-01
vn -1.7784185857730128e-01 9.2387953251128707e-01 -3.3884935110532083e-01
vn -3.2860890632667134e-01 7.0710678118654768e-01 -6.2611196018187398e-01
vn -1.6922172906189528e-01 7.0710678118654779e-01 -6.8655954323955182e-01
vn -3.0215882062531764e-16 1.0000000000000000e+00 -6.6163552668263238e-16
vn -9.1582139828293996e-02 9.2387953251128707e-01 -3.7156334731939938e-01
vn -1.2584791709064368e-16 7.0710678118654779e-01 -7.0710678118654724e-01
vn 4.7343294156454931e-17 7.0710678118654779e-01 -7.0710678118654724e-01
vn -8.7142705581276007e-18 1.0000000000000000e+00 -6.0609083026345122e-17
vn -6.8108401940978209e-17 9.2387953251128707e-01 -3.8268343236508923e-01
vn 2.5622006165547615e-17 9.2387953251128707e-01 -3.8268343236508923e-01
vn 1.6922172906189586e-01 7.0710678118654779e-01 -6.8655954323955193e-01
vn -8.7142705581275853e-18 1.0000000000000000e+00 -6.0609083026345122e-17
vn 8.7142705581275930e-18 1.0000000000000000e+00 -6.0609083026345122e-17
vn 9.1582139828294287e-02 9.2387953251128707e-01 -3.7156334731939927e-01
vn 3.2860890632667156e-01 7.0710678118654779e-01 -6.2611196018187398e-01
vn 3.0215882062531784e-16 1.0000000000000000e+00 -6.6163552668263228e-16
vn 1.7784185857730142e-01 9.2387953251128707e-01 -3.3884935110532072e-01
vn 4.6889852840051571e-01 7.0710678118654768e-01 -5.2927702582280134e-01
vn 4.7632353393505964e-16 1.0000000000000000e+00 -5.4970666183875127e-16
vn 2.5376605493464960e-01 9.2387953251128707e-01 -2.8644266227227783e-01
vn 5.8193747238052451e-01 7.0710678118654779e-01 -4.0168243456661873e-01
vn 3.1494229058127471e-01 9.2387953251128707e-01 -2.1738896708468375e-01
vn -6.9567131104449057e-16 1.0000000000000000e+00 4.4708080454382591e-16
vn 3.5781522506796382e-01 9.2387953251128707e-01 -1.3570141530687233e-01
vn 5.8751999947068496e-17 1.0000000000000000e+00 -1.7251143697572847e-17
vn 3.7989323927912644e-01 9.2387953251128696e-01 -4.6127390526000088e-02
vn 6.1232339957367660e-17 1.0000000000000000e+00 3.5032177303741578e-34
vn 3.7989323927912649e-01 9.2387953251128696e-01 4.6127390526000435e-02
vn 5.8751999947068509e-17 1.0000000000000000e+00 1.7251143697572853e-17
vn 3.5781522506796376e-01 9.2387953251128707e-01 1.3570141530687233e-01
vn -6.9567131104449057e-16 1.0000000000000000e+00 -4.4708080454382611e-16
vn 3.1494229058127471e-01 9.2387953251128707e-01 2.1738896708468378e-01
vn 4.7632353393505964e-16 1.0000000000000000e+00 5.4970666183875137e-16
vn 2.5376605493464943e-01 9.2387953251128707e-01 2.8644266227227794e-01
vn 1.7784185857730125e-01 9.2387953251128707e-01 3.3884935110532083e-01
vn 3.2860890632667122e-01 7.0710678118654779e-01 6.2611196018187409e-01
vn 1.6922172906189517e-01 7.0710678118654791e-01 6.8655954323955182e-01
vn 2.5436833299525790e-17 1.0000000000000000e+00 5.5698895575646569e-17
vn 9.1582139828293926e-02 9.2387953251128696e-01 3.7156334731939933e-01
vn 3.9252311467094373e-17 7.0710678118654779e-01 7.0710678118654724e-01
vn 8.7142705581275868e-18 1.0000000000000000e+00 6.0609083026345110e-17
vn 2.1243197887715300e-17 9.2387953251128707e-01 3.8268343236508923e-01
vn -1.6922172906189542e-01 7.0710678118654791e-01 6.8655954323955182e-01
vn -8.7142705581275868e-18 1.0000000000000000e+00 6.0609083026345110e-17
vn -9.1582139828294037e-02 9.2387953251128696e-01 3.7156334731939933e-01
vn -2.5436833299525790e-17 1.0000000000000000e+00 5.5698895575646569e-17
vn -7.0195117661879625e-01 7.0710678118654768e-01 8.5232303990253541e-02
vn -7.0195117661879625e-01 7.0710678118654768e-01 -8.5232303990253527e-02
vn -6.6115632572242311e-01 7.0710678118654779e-01 -2.5074352026966651e-01
vn -5.8193747238052451e-01 7.0710678118654779e-01 -4.0168243456661873e-01
vn -4.6889852840051549e-01 7.0710678118654779e-01 -5.2927702582280167e-01
vn -6.6115632572242311e-01 7.0710678118654779e-01 2.5074352026966651e-01
vn -5.8193747238052451e-01 7.0710678118654779e-01 4.0168243456661884e-01
vn 4.6889852840051538e-01 7.0710678118654779e-01 5.2927702582280167e-01
vn 5.8193747238052451e-01 7.0710678118654779e-01 4.0168243456661884e-01
vn 6.6115632572242322e-01 7.0710678118654791e-01 2.5074352026966668e-01
vn 7.0195117661879625e-01 7.0710678118654779e-01 8.5232303990253777e-02
vn 7.0195117661879636e-01 7.0710678118654779e-01 -8.5232303990253139e-02
vn 6.6115632572242311e-01 7.0710678118654791e-01 -2.5074352026966662e-01
vn 7.7056733901346586e-01 -0.0000000000000000e+00 -6.3735859298020481e-01
vn 8.4922710981634109e-01 -0.0000000000000000e+00 -5.2802776058933121e-01
vn 8.8545602565320980e-01 -0.0000000000000000e+00 -4.6472317204376884e-01
vn 8.9035515337701976e-01 -0.0000000000000000e+00 -4.5526662611593177e-01
vn 9.2583227496842557e-01 -0.0000000000000000e+00 -3.7793464861903003e-01
vn 9.7094181742605212e-01 -0.0000000000000000e+00 -2.3931566428755738e-01
vn 9.5401520255804484e-01 -0.0000000000000000e+00 -2.9975822472141234e-01
vn 9.7398486999565081e-01 -0.0000000000000000e+00 -2.2661304688732117e-01
vn 9.8654404106388649e-01 -0.0000000000000000e+00 -1.6349573401571271e-01
vn 1.0000000000000000e+00 -0.0000000000000000e+00 -0.0000000000000000e+00
vn 9.9379807210851645e-01 -0.0000000000000000e+00 -1.1119978360318918e-01
vn 9.9741749179204975e-01 -0.0000000000000000e+00 -7.1821633699438225e-02
vn 9.9880127442225963e-01 -0.0000000000000000e+00 -4.8949098178312174e-02
vn 9.9994896896299690e-01 -0.0000000000000000e+00 -1.0102448705123789e-02
vn 9.9999528573523278e-01 -0.0000000000000000e+00 3.0705874536101217e-03
vn 9.7094181742605190e-01 -0.0000000000000000e+00 2.3931566428755829e-01
vn 9.7094181742605212e-01 -0.0000000000000000e+00 2.3931566428755738e-01
vn 8.8545602565320980e-01 -0.0000000000000000e+00 4.6472317204376873e-01
vn 7.4851074817110130e-01 -0.0000000000000000e+00 6.6312265824079497e-01
vn 7.4851074817110064e-01 -0.0000000000000000e+00 6.6312265824079575e-01
vn 5.6806474673115559e-01 -0.0000000000000000e+00 8.2298386589365646e-01
vn 3.5460488704253607e-01 -0.0000000000000000e+00 9.3501624268541472e-01
vn 1.2053668025532327e-01 -0.0000000000000000e+00 9.9270887409805408e-01
vn 1.2053668025532284e-01 -0.0000000000000000e+00 9.9270887409805408e-01
vn -1.2053668025532240e-01 -0.0000000000000000e+00 9.9270887409805408e-01
vn -1.2053668025532327e-01 -0.0000000000000000e+00 9.9270887409805408e-01
vn -5.6806474673115570e-01 -0.0000000000000000e+00 8.2298386589365646e-01
vn -7.4851074817110064e-01 -0.0000000000000000e+00 6.6312265824079597e-01
vn -7.4851074817110119e-01 -0.0000000000000000e+00 6.6312265824079519e-01
vn -8.8545602565320958e-01 -0.0000000000000000e+00 4.6472317204376912e-01
vn -8.8545602565320980e-01 -0.0000000000000000e+00 4.6472317204376873e-01
vn -9.7094181742605190e-01 -0.0000000000000000e+00 2.3931566428755816e-01
vn -9.7094181742605212e-01 -0.0000000000000000e+00 2.3931566428755729e-01
vn -9.9999528573523278e-01 -0.0000000000000000e+00 3.0705874536102349e-03
vn -1.0000000000000000e+00 -0.0000000000000000e+00 1.7797583114599315e-16
vn -9.9994896896299690e-01 0.0000000000000000e+00 -1.0102448705125449e-02
vn -9.9994896896299690e-01 0.0000000000000000e+00 -1.0102448705125696e-02
vn -1.0000000000000000e+00 0.0000000000000000e+00 -6.6953528683477481e-17
vn -9.9880127442225963e-01 0.0000000000000000e+00 -4.8949098178312056e-02
vn -9.9741749179204975e-01 0.0000000000000000e+00 -7.1821633699438114e-02
vn -9.9379807210851623e-01 0.0000000000000000e+00 -1.1119978360319091e-01
vn -9.7094181742605190e-01 0.0000000000000000e+00 -2.3931566428755804e-01
vn -9.8654404106388627e-01 0.0000000000000000e+00 -1.6349573401571374e-01
vn -9.7398486999565081e-01 0.0000000000000000e+00 -2.2661304688732148e-01
vn -9.5401520255804451e-01 0.0000000000000000e+00 -2.9975822472141350e-01
vn -9.2583227496842613e-01 0.0000000000000000e+00 -3.7793464861902881e-01
vn -8.8545602565320969e-01 0.0000000000000000e+00 -4.6472317204376906e-01
vn -8.9035515337701887e-01 0.0000000000000000e+00 -4.5526662611593355e-01
vn -8.4922710981634120e-01 0.0000000000000000e+00 -5.2802776058933121e-01
vn -7.4851074817110064e-01 0.0000000000000000e+00 -6.6312265824079597e-01
vn -7.7056733901346608e-01 0.0000000000000000e+00 -6.3735859298020459e-01
vn -6.8384787517724455e-01 0.0000000000000000e+00 -7.2962461829050662e-01
vn -5.6806474673115603e-01 0.0000000000000000e+00 -8.2298386589365624e-01
vn -5.8707095830009792e-01 0.0000000000000000e+00 -8.0953547786406777e-01
vn -4.8177220415487704e-01 0.0000000000000000e+00 -8.7629649280580335e-01
vn -3.5460488704253573e-01 0.0000000000000000e+00 -9.3501624268541483e-01
vn -3.6965453214057220e-01 0.0000000000000000e+00 -9.2916926707028724e-01
vn -2.5185483204440962e-01 0.0000000000000000e+00 -9.6776502498069339e-01
vn -1.2053668025532249e-01 0.0000000000000000e+00 -9.9270887409805408e-01
vn -1.2866641673866991e-01 0.0000000000000000e+00 -9.9168793135927136e-01
vn 5.7211887261098179e-18 -0.0000000000000000e+00 -1.0000000000000000e+00
vn 1.2053668025532337e-01 -0.0000000000000000e+00 -9.9270887409805386e-01
vn 1.2866641673867102e-01 -0.0000000000000000e+00 -9.9168793135927114e-01
vn 2.5185483204441056e-01 -0.0000000000000000e+00 -9.6776502498069328e-01
vn 3.5460488704253595e-01 -0.0000000000000000e+00 -9.3501624268541472e-01
vn 3.6965453214057475e-01 -0.0000000000000000e+00 -9.2916926707028613e-01
vn 4.8177220415487831e-01 -0.0000000000000000e+00 -8.7629649280580268e-01
vn 5.6806474673115603e-01 -0.0000000000000000e+00 -8.2298386589365624e-01
vn 5.8707095830010048e-01 -0.0000000000000000e+00 -8.0953547786406599e-01
vn 6.8384787517724532e-01 -0.0000000000000000e+00 -7.2962461829050629e-01
vn -9.9999528573523278e-01 -0.0000000000000000e+00 3.0705874536099903e-03
vn -9.9996432778768196e-01 0.0000000000000000e+00 -8.4464875616759201e-03
vn -9.9897031516924706e-01 0.0000000000000000e+00 -4.5368594982159310e-02
vn -9.9409411178475360e-01 0.0000000000000000e+00 -1.0852141224146565e-01
vn -9.7094181742605212e-01 0.0000000000000000e+00 -2.3931566428755760e-01
vn -9.8057388503346044e-01 0.0000000000000000e+00 -1.9615008536930545e-01
vn -9.5308606876977731e-01 0.0000000000000000e+00 -3.0269943098223967e-01
vn -8.8545602565320991e-01 0.0000000000000000e+00 -4.6472317204376873e-01
vn -9.0376558638306337e-01 0.0000000000000000e+00 -4.2802776179785096e-01
vn -8.4617317807706505e-01 0.0000000000000000e+00 -5.3290801523617548e-01
vn -7.4851074817110119e-01 0.0000000000000000e+00 -6.6312265824079519e-01
vn -7.6750750029908987e-01 0.0000000000000000e+00 -6.4103996520079987e-01
vn -6.7328170769650353e-01 0.0000000000000000e+00 -7.3938605753779263e-01
vn -5.6034993578395631e-01 0.0000000000000000e+00 -8.2825596856703421e-01
vn -4.3179521911101354e-01 0.0000000000000000e+00 -9.0197166737812329e-01
vn -2.9201831459247946e-01 0.0000000000000000e+00 -9.5641272677781097e-01
vn -1.2053668025532334e-01 0.0000000000000000e+00 -9.9270887409805386e-01
vn -1.4609510888552840e-01 0.0000000000000000e+00 -9.8927054902070422e-01
vn 1.2053668025532295e-01 -0.0000000000000000e+00 -9.9270887409805408e-01
vn 1.4609510888552757e-01 -0.0000000000000000e+00 -9.8927054902070444e-01
vn 2.9201831459247823e-01 -0.0000000000000000e+00 -9.5641272677781131e-01
vn 3.5460488704253551e-01 -0.0000000000000000e+00 -9.3501624268541506e-01
vn 4.3179521911101243e-01 -0.0000000000000000e+00 -9.0197166737812373e-01
vn 5.6034993578395498e-01 -0.0000000000000000e+00 -8.2825596856703509e-01
vn 6.7328170769650353e-01 -0.0000000000000000e+00 -7.3938605753779263e-01
vn 7.4851074817110064e-01 -0.0000000000000000e+00 -6.6312265824079575e-01
vn 7.6750750029908843e-01 -0.0000000000000000e+00 -6.4103996520080164e-01
vn 8.4617317807706505e-01 -0.0000000000000000e+00 -5.3290801523617526e-01
vn 9.0376558638306337e-01 -0.0000000000000000e+00 -4.2802776179785063e-01
vn 9.5308606876977631e-01 -0.0000000000000000e+00 -3.0269943098224211e-01
vn 9.7094181742605190e-01 -0.0000000000000000e+00 -2.3931566428755827e-01
vn 9.8057388503346044e-01 -0.0000000000000000e+00 -1.9615008536930548e-01
vn 9.9409411178475360e-01 -0.0000000000000000e+00 -1.0852141224146448e-01
vn 9.9897031516924684e-01 -0.0000000000000000e+00 -4.5368594982160289e-02
vn 9.9996432778768196e-01 -0.0000000000000000e+00 -8.4464875616740796e-03
vn 0.0000000000000000e+00 1.0000000000000000e+00 0.0000000000000000e+00
vn 7.8129644456806946e-01 -5.9999999999999998e-01 1.7197635216881937e-01
vn 6.2763130152209312e-01 -7.6775173011852682e-01 1.2898151127077168e-01
vn 8.0000000000000004e-01 -5.9999999999999987e-01 5.3562822946781991e-17
vn 6.4074743924576771e-01 -7.6775173011852671e-01 4.2900302052406244e-17
vn 8.0000000000000004e-01 -5.9999999999999987e-01 -1.4238066491679456e-16
vn 6.4074743924576771e-01 -7.6775173011852671e-01 -1.1403755805443227e-16
vn 6.2763130152209312e-01 -7.6775173011852682e-01 -1.2898151127077176e-01
vn 4.4721359549995809e-01 -8.9442719099991586e-01 -7.9593211358893032e-17
vn 4.3805910692739070e-01 -8.9442719099991586e-01 -9.0023434937670288e-02
vn 2.2975292054736110e-01 -9.7324898946773020e-01 -4.0890466992635924e-17
vn 2.2504986476634561e-01 -9.7324898946773020e-01 -4.6248922892231321e-02
vn -1.6081226496766366e-16 -1.0000000000000000e+00 2.8620696516089620e-32
vn 5.7097456551692022e-17 -1.0000000000000000e+00 -2.2119672510737728e-17
vn 5.8881986457055735e-01 -7.6775173011852671e-01 2.5268250431543388e-01
vn 7.2606033573676565e-01 -5.9999999999999998e-01 3.3591128124821190e-01
vn 5.2590207318010662e-01 -7.6775173011852682e-01 3.6603864594448865e-01
vn 6.3687445256451469e-01 -5.9999999999999976e-01 4.8413937215501268e-01
vn 4.4145378912279232e-01 -7.6775173011852671e-01 4.6440912240086119e-01
vn 5.1790902782546189e-01 -5.9999999999999987e-01 6.0972964410210961e-01
vn 3.3893233507017312e-01 -7.6775173011852682e-01 5.4376663482038756e-01
vn 3.7472675255983240e-01 -5.9999999999999987e-01 7.0680963555681808e-01
vn 2.2253495139692253e-01 -7.6775173011852682e-01 6.0086227732050046e-01
vn 2.1402267082337614e-01 -5.9999999999999987e-01 7.7083999401537873e-01
vn 9.7026960666735496e-02 -7.6775173011852671e-01 6.3335854758879240e-01
vn 4.3311126868334035e-02 -6.0000000000000009e-01 7.9882673108089908e-01
vn -3.2453325233331561e-02 -7.6775173011852693e-01 6.3992504450232957e-01
vn -1.2942559724221164e-01 -5.9999999999999987e-01 7.8946121803322100e-01
vn -1.6060496818524220e-01 -7.6775173011852682e-01 6.2029293490594117e-01
vn -2.9611052427193157e-01 -6.0000000000000020e-01 7.4318137585343291e-01
vn -2.8218142486936654e-01 -7.6775173011852682e-01 5.7526595967317828e-01
vn -4.4894965228990608e-01 -5.9999999999999987e-01 6.6215119852551252e-01
vn -3.9220534086442943e-01 -7.6775173011852682e-01 5.0668752846051535e-01
vn -5.8079639353850487e-01 -5.9999999999999998e-01 5.5015956708273850e-01
vn -4.8617232412233186e-01 -7.6775173011852682e-01 4.1736525029942201e-01
vn -6.8548574093407155e-01 -5.9999999999999987e-01 4.1244308574161737e-01
vn -5.6023535530784319e-01 -7.6775173011852682e-01 3.1095598975273558e-01
vn -7.5812253694624221e-01 -5.9999999999999998e-01 2.5544122410878350e-01
vn -6.1136228522219227e-01 -7.6775173011852671e-01 1.9181615444979494e-01
vn -7.9531036572348779e-01 -5.9999999999999987e-01 8.6495214739153517e-02
vn -6.3745997134752652e-01 -7.6775173011852671e-01 6.4823343246238493e-02
vn -7.9531036572348779e-01 -5.9999999999999987e-01 -8.6495214739153503e-02
vn -6.3745997134752652e-01 -7.6775173011852671e-01 -6.4823343246238424e-02
vn -6.1136228522219227e-01 -7.6775173011852671e-01 -1.9181615444979486e-01
vn -4.2670404746232227e-01 -8.9442719099991586e-01 -1.3387925858501146e-01
vn -3.9101969391924024e-01 -8.9442719099991574e-01 -2.1703363556671057e-01
vn -2.0088368862992018e-01 -9.7324898946773020e-01 -1.1149954323888181e-01
vn -1.7432689467770160e-01 -9.7324898946773020e-01 -1.4965473026961601e-01
vn -2.4084691269614900e-16 -1.0000000000000000e+00 -1.4912609478773087e-16
vn 2.3072281057308444e-16 -1.0000000000000000e+00 3.0552637775695982e-16
vn -1.4063313717483758e-01 -9.7324898946773020e-01 -1.8168303505942793e-01
vn -1.0118184251234372e-01 -9.7324898946773020e-01 -2.0627321504705667e-01
vn -2.7374211728217490e-01 -8.9442719099991597e-01 -3.5364566055003704e-01
vn -1.9695025195524321e-01 -8.9442719099991586e-01 -4.0151039619761575e-01
vn -3.9220534086442971e-01 -7.6775173011852682e-01 -5.0668752846051512e-01
vn -2.8218142486936681e-01 -7.6775173011852671e-01 -5.7526595967317817e-01
vn -4.4894965228990574e-01 -5.9999999999999987e-01 -6.6215119852551252e-01
vn -2.9611052427193135e-01 -5.9999999999999987e-01 -7.4318137585343336e-01
vn -7.5812253694624188e-01 -5.9999999999999998e-01 -2.5544122410878406e-01
vn -5.6023535530784330e-01 -7.6775173011852682e-01 -3.1095598975273558e-01
vn -3.3932694816424136e-01 -8.9442719099991586e-01 -2.9130263000793921e-01
vn -6.8548574093407133e-01 -5.9999999999999998e-01 -4.1244308574161748e-01
vn -4.8617232412233186e-01 -7.6775173011852682e-01 -4.1736525029942201e-01
vn -5.8079639353850443e-01 -5.9999999999999998e-01 -5.5015956708273894e-01
vn -1.6060496818524245e-01 -7.6775173011852682e-01 -6.2029293490594106e-01
vn -1.2942559724221162e-01 -5.9999999999999953e-01 -7.8946121803322133e-01
vn -3.2453325233331783e-02 -7.6775173011852671e-01 -6.3992504450232957e-01
vn 4.3311126868334472e-02 -5.9999999999999998e-01 -7.9882673108089897e-01
vn 9.7026960666735287e-02 -7.6775173011852671e-01 -6.3335854758879240e-01
vn 2.1402267082337700e-01 -5.9999999999999998e-01 -7.7083999401537828e-01
vn 2.2253495139692236e-01 -7.6775173011852682e-01 -6.0086227732050057e-01
vn 3.7472675255983251e-01 -5.9999999999999976e-01 -7.0680963555681853e-01
vn 3.3893233507017312e-01 -7.6775173011852682e-01 -5.4376663482038756e-01
vn 5.1790902782546233e-01 -5.9999999999999987e-01 -6.0972964410210906e-01
vn 4.4145378912279232e-01 -7.6775173011852671e-01 -4.6440912240086119e-01
vn 6.3687445256451514e-01 -5.9999999999999987e-01 -4.8413937215501224e-01
vn 5.2590207318010662e-01 -7.6775173011852682e-01 -3.6603864594448865e-01
vn 7.2606033573676565e-01 -5.9999999999999987e-01 -3.3591128124821162e-01
vn 5.8881986457055735e-01 -7.6775173011852682e-01 -2.5268250431543393e-01
vn 7.8129644456806946e-01 -5.9999999999999987e-01 -1.7197635216881912e-01
vn -2.8293464086989131e-16 -1.0000000000000000e+00 2.5792900538686524e-16
vn 1.8857279769587398e-01 -9.7324898946773020e-01 -1.3125054083390658e-01
vn 2.1113324107955961e-01 -9.7324898946773020e-01 -9.0604409447236939e-02
vn 4.1097042704745640e-01 -8.9442719099991586e-01 -1.7636129987168775e-01
vn -7.1680194575387461e-17 -1.0000000000000000e+00 1.4395323639871617e-16
vn 1.2153102623706408e-01 -9.7324898946773020e-01 -1.9497849666516573e-01
vn 1.5829216181815636e-01 -9.7324898946773020e-01 -1.6652325965755238e-01
vn 3.0811537306036646e-01 -8.9442719099991586e-01 -3.2413718836917083e-01
vn 3.6705656959722444e-01 -8.9442719099991574e-01 -2.5547891246738547e-01
vn 7.9794396162537085e-02 -9.7324898946773020e-01 -2.1545129111030661e-01
vn -1.4837883870144129e-17 -1.0000000000000000e+00 1.6012626819571542e-16
vn 3.4790974133672443e-02 -9.7324898946773020e-01 -2.2710348438293973e-01
vn -1.1636794463990663e-02 -9.7324898946773020e-01 -2.2945803432140885e-01
vn -2.2650996905445194e-02 -8.9442719099991586e-01 -4.4663960005712622e-01
vn -1.1209522017259166e-01 -8.9442719099991586e-01 -4.3293724904939546e-01
vn -1.6757025241843485e-17 -1.0000000000000000e+00 -5.8894834762471860e-17
vn -5.7588151329032694e-02 -9.7324898946773020e-01 -2.2241854537458525e-01
vn -2.1921628076679864e-01 -9.7324898946773020e-01 -6.8779551807307771e-02
vn 1.5807413056245331e-16 -1.0000000000000000e+00 2.9549176146798561e-17
vn -2.2857413261226495e-01 -9.7324898946773020e-01 -2.3243717443488326e-02
vn 1.5807413056245331e-16 -1.0000000000000000e+00 -2.9549176146798549e-17
vn -2.2857413261226495e-01 -9.7324898946773020e-01 2.3243717443488351e-02
vn -2.1921628076679858e-01 -9.7324898946773020e-01 6.8779551807307784e-02
vn -4.2670404746232221e-01 -8.9442719099991586e-01 1.3387925858501151e-01
vn -3.9101969391924019e-01 -8.9442719099991574e-01 2.1703363556671060e-01
vn 1.3672534331099874e-16 -1.0000000000000000e+00 -8.4656748464133717e-17
vn -2.0088368862992018e-01 -9.7324898946773020e-01 1.1149954323888182e-01
vn -3.3932694816424136e-01 -8.9442719099991586e-01 2.9130263000793921e-01
vn -1.7432689467770160e-01 -9.7324898946773020e-01 1.4965473026961601e-01
vn 2.3072281057308449e-16 -1.0000000000000000e+00 -3.0552637775695982e-16
vn -1.4063313717483750e-01 -9.7324898946773020e-01 1.8168303505942801e-01
vn -1.0118184251234356e-01 -9.7324898946773020e-01 2.0627321504705676e-01
vn -1.9695025195524296e-01 -8.9442719099991574e-01 4.0151039619761580e-01
vn -1.1209522017259149e-01 -8.9442719099991574e-01 4.3293724904939546e-01
vn -1.6757025241843479e-17 -1.0000000000000000e+00 5.8894834762471860e-17
vn -5.7588151329032625e-02 -9.7324898946773020e-01 2.2241854537458530e-01
vn -2.2650996905445045e-02 -8.9442719099991586e-01 4.4663960005712616e-01
vn -1.1636794463990584e-02 -9.7324898946773020e-01 2.2945803432140882e-01
vn -1.4837883870144148e-17 -1.0000000000000000e+00 -1.6012626819571542e-16
vn 3.4790974133672513e-02 -9.7324898946773020e-01 2.2710348438293973e-01
vn 7.9794396162537182e-02 -9.7324898946773020e-01 2.1545129111030661e-01
vn 1.5531963086075420e-01 -8.9442719099991586e-01 4.1937550270524759e-01
vn 2.3655989694839780e-01 -8.9442719099991574e-01 3.7952524969461970e-01
vn -7.1680194575387498e-17 -1.0000000000000000e+00 -1.4395323639871617e-16
vn 1.2153102623706408e-01 -9.7324898946773020e-01 1.9497849666516573e-01
vn 3.0811537306036646e-01 -8.9442719099991586e-01 3.2413718836917083e-01
vn -2.8293464086989131e-16 -1.0000000000000000e+00 -2.5792900538686524e-16
vn 1.5829216181815636e-01 -9.7324898946773020e-01 1.6652325965755238e-01
vn 3.6705656959722444e-01 -8.9442719099991574e-01 2.5547891246738547e-01
vn 1.8857279769587398e-01 -9.7324898946773020e-01 1.3125054083390658e-01
vn 5.7097456551692022e-17 -1.0000000000000000e+00 2.2119672510737722e-17
vn 2.1113324107955964e-01 -9.7324898946773020e-01 9.0604409447236911e-02
vn 2.2504986476634561e-01 -9.7324898946773020e-01 4.6248922892231287e-02
vn 4.3805910692739075e-01 -8.9442719099991586e-01 9.0023434937670233e-02
vn 4.4721359549995809e-01 -8.9442719099991586e-01 2.9942528293947536e-17
vn -1.6081226496766366e-16 -1.0000000000000000e+00 -1.0766948595167449e-32
vn 2.2975292054736110e-01 -9.7324898946773020e-01 1.5382768755980463e-17
vn 4.1097042704745640e-01 -8.9442719099991586e-01 1.7636129987168769e-01
vn 6.7720560836389457e-02 -8.9442719099991586e-01 4.4205647336059334e-01
vn -2.7374211728217474e-01 -8.9442719099991586e-01 3.5364566055003727e-01
vn -4.4491908716669998e-01 -8.9442719099991586e-01 4.5243849026697029e-02
vn -4.4491908716669998e-01 -8.9442719099991586e-01 -4.5243849026696974e-02
vn 6.7720560836389332e-02 -8.9442719099991586e-01 -4.4205647336059334e-01
vn 1.5531963086075401e-01 -8.9442719099991574e-01 -4.1937550270524759e-01
vn 2.3655989694839780e-01 -8.9442719099991574e-01 -3.7952524969461970e-01
vn 0.0000000000000000e+00 -1.0000000000000000e+00 0.0000000000000000e+00

g face 0
f 17//1 1//1 16//2
f 16//2 1//1 2//3
f 16//2 2//3 3//4
f 4//5 14//6 3//4
f 3//4 14//6 15//7
f 3//4 15//7 16//2
f 4//5 5//8 14//6
f 14//6 5//8 13//9
f 13//9 5//8 12//10
f 12//10 5//8 6//11
f 12//10 6//11 11//12
f 11//12 6//11 7//12
f 11//12 7//12 10//13
f 10//13 7//12 8//14
f 10//13 8//14 9//15

g face 1
f 1//16 17//16 33//17
f 33//17 17//16 18//18
f 33//17 18//18 19//19
f 33//17 19//19 32//20
f 32//20 19//19 20//21
f 32//20 20//21 31//22
f 31//22 20//21 30//23
f 30//23 20//21 21//24
f 30//23 21//24 29//25
f 29//25 21//24 22//26
f 29//25 22//26 23//27
f 29//25 23//27 28//28
f 28//28 23//27 24//29
f 28//28 24//29 27//30
f 27//30 24//29 26//31
f 26//31 24//29 25//31

g face 2
f 50//32 34//32 49//33
f 49//33 34//32 35//34
f 49//33 35//34 36//35
f 37//36 47//37 36//35
f 36//35 47//37 48//38
f 36//35 48//38 49//33
f 47//37 37//36 46//39
f 46//39 37//36 38//40
f 46//39 38//40 45//41
f 45//41 38//40 39//42
f 45//41 39//42 44//43
f 44//43 39//42 40//43
f 44//43 40//43 43//44
f 43//44 40//43 41//44
f 43//44 41//44 42//45

g face 3
f 26//46 25//46 64//47
f 64//47 25//46 51//48
f 64//47 51//48 52//49
f 53//50 62//51 52//49
f 52//49 62//51 63//52
f 52//49 63//52 64//47
f 53//50 54//53 62//51
f 62//51 54//53 61//54
f 61//54 54//53 55//55
f 61//54 55//55 60//56
f 60//56 55//55 59//57
f 59//57 55//55 56//58
f 59//57 56//58 57//59
f 34//60 50//60 57//59
f 57//59 50//60 58//61
f 57//59 58//61 59//57

g face 4
f 66//62 120//63 65//64
f 65//64 120//63 125//65
f 65//64 125//65 90//66
f 90//66 125//65 188//67
f 90//66 188//67 89//68
f 89//68 188//67 186//69
f 89//68 186//69 88//70
f 88//70 186//69 183//71
f 88//70 183//71 87//72
f 87//72 183//71 180//73
f 87//72 180//73 86//74
f 86//74 180//73 177//75
f 86//74 177//75 85//76
f 85//76 177//75 113//77
f 85//76 113//77 84//78
f 84//79 113//80 174//81
f 84//79 174//81 83//82
f 83//82 174//81 171//83
f 83//82 171//83 82//84
f 82//84 171//83 168//85
f 82//84 168//85 81//86
f 81//86 168//85 166//87
f 81//86 166//87 80//88
f 80//88 166//87 163//89
f 80//88 163//89 79//90
f 79//90 163//89 160//91
f 79//90 160//91 78//92
f 78//92 160//91 157//93
f 78//92 157//93 77//94
f 77//94 157//93 154//95
f 77//94 154//95 76//96
f 76//96 154//95 152//97
f 76//96 152//97 75//98
f 75//98 152//97 149//99
f 75//98 149//99 74//100
f 74//100 149//99 146//101
f 74//100 146//101 73//102
f 73//102 146//101 143//103
f 73//102 143//103 72//104
f 72//104 143//103 140//105
f 72//104 140//105 71//106
f 71//106 140//105 137//107
f 71//106 137//107 70//108
f 70//108 137//107 134//109
f 70//108 134//109 69//110
f 69//110 134//109 131//111
f 69//110 131//111 68//112
f 68//112 131//111 129//113
f 68//112 129//113 67//114
f 67//114 129//113 126//115
f 67//114 126//115 66//62
f 66//62 126//115 120//63
f 92//116 123//117 91//118
f 91//118 123//117 122//119
f 91//118 122//119 112//120
f 112//120 122//119 128//121
f 112//120 128//121 111//122
f 111//122 128//121 117//123
f 111//122 117//123 110//124
f 110//124 117//123 133//125
f 110//124 133//125 136//126
f 136//126 133//125 132//127
f 136//126 132//127 135//128
f 135//128 132//127 131//111
f 135//128 131//111 134//109
f 123//117 92//116 190//129
f 190//129 92//116 93//130
f 190//129 93//130 116//131
f 116//131 93//130 94//132
f 116//131 94//132 185//133
f 185//133 94//132 182//134
f 185//133 182//134 181//135
f 181//135 182//134 178//136
f 181//135 178//136 177//75
f 177//75 178//136 113//77
f 94//132 95//137 182//134
f 182//134 95//137 179//138
f 182//134 179//138 178//136
f 178//136 179//138 114//139
f 178//136 114//139 113//77
f 113//80 114//140 174//81
f 95//137 96//141 179//138
f 179//138 96//141 115//142
f 179//138 115//142 114//139
f 114//140 115//143 175//144
f 114//140 175//144 174//81
f 174//81 175//144 171//83
f 96//145 97//146 115//143
f 115//143 97//146 176//147
f 115//143 176//147 175//144
f 175//144 176//147 172//148
f 175//144 172//148 171//83
f 171//83 172//148 168//85
f 97//146 98//149 176//147
f 176//147 98//149 173//150
f 176//147 173//150 172//148
f 172//148 173//150 169//151
f 172//148 169//151 168//85
f 168//85 169//151 166//87
f 98//149 99//152 173//150
f 173//150 99//152 170//153
f 173//150 170//153 169//151
f 169//151 170//153 167//154
f 169//151 167//154 166//87
f 166//87 167//154 163//89
f 170//153 99//152 119//155
f 119//155 99//152 100//156
f 119//155 100//156 165//157
f 165//157 100//156 101//158
f 165//157 101//158 162//159
f 162//159 101//158 102//160
f 162//159 102//160 159//161
f 159//161 102//160 103//162
f 159//161 103//162 156//163
f 156//163 103//162 104//164
f 156//163 104//164 118//165
f 118//165 104//164 105//166
f 118//165 105//166 151//167
f 151//167 105//166 148//168
f 151//167 148//168 147//169
f 147//169 148//168 144//170
f 147//169 144//170 143//103
f 143//103 144//170 140//105
f 105//166 106//171 148//168
f 148//168 106//171 145//172
f 148//168 145//172 144//170
f 144//170 145//172 141//173
f 144//170 141//173 140//105
f 140//105 141//173 137//107
f 106//171 107//174 145//172
f 145//172 107//174 142//175
f 145//172 142//175 141//173
f 141//173 142//175 138//176
f 141//173 138//176 137//107
f 137//107 138//176 134//109
f 107//174 108//177 142//175
f 142//175 108//177 139//178
f 142//175 139//178 138//176
f 138//176 139//178 135//128
f 138//176 135//128 134//109
f 108//177 109//179 139//178
f 139//178 109//179 136//126
f 139//178 136//126 135//128
f 109//179 110//124 136//126
f 120//63 121//180 125//65
f 125//65 121//180 124//181
f 125//65 124//181 188//67
f 188//67 124//181 189//182
f 188//67 189//182 186//69
f 186//69 189//182 187//183
f 186//69 187//183 183//71
f 183//71 187//183 184//184
f 183//71 184//184 180//73
f 180//73 184//184 181//135
f 180//73 181//135 177//75
f 121//180 122//119 124//181
f 124//181 122//119 123//117
f 124//181 123//117 189//182
f 189//182 123//117 190//129
f 189//182 190//129 187//183
f 187//183 190//129 116//131
f 187//183 116//131 184//184
f 184//184 116//131 185//133
f 184//184 185//133 181//135
f 121//180 120//63 127//185
f 127//185 120//63 126//115
f 127//185 126//115 130//186
f 130//186 126//115 129//113
f 130//186 129//113 132//127
f 132//127 129//113 131//111
f 122//119 121//180 128//121
f 128//121 121//180 127//185
f 128//121 127//185 117//123
f 117//123 127//185 130//186
f 117//123 130//186 133//125
f 133//125 130//186 132//127
f 143//103 146//101 147//169
f 147//169 146//101 150//187
f 147//169 150//187 151//167
f 151//167 150//187 118//165
f 146//101 149//99 150//187
f 150//187 149//99 153//188
f 150//187 153//188 118//165
f 118//165 153//188 156//163
f 149//99 152//97 153//188
f 153//188 152//97 155//189
f 153//188 155//189 156//163
f 156//163 155//189 159//161
f 152//97 154//95 155//189
f 155//189 154//95 158//190
f 155//189 158//190 159//161
f 159//161 158//190 162//159
f 154//95 157//93 158//190
f 158//190 157//93 161//191
f 158//190 161//191 162//159
f 162//159 161//191 165//157
f 157//93 160//91 161//191
f 161//191 160//91 164//192
f 161//191 164//192 165//157
f 165//157 164//192 119//155
f 160//91 163//89 164//192
f 164//192 163//89 167//154
f 164//192 167//154 119//155
f 119//155 167//154 170//153

g face 5
f 49//193 81//86 50//194
f 50//194 81//86 80//195
f 50//194 80//195 58//196
f 58//196 80//195 59//197
f 59//197 80//195 79//198
f 59//197 79//198 60//199
f 60//199 79//198 61//200
f 61//200 79//198 62//201
f 62//201 79//198 78//202
f 62//201 78//202 63//203
f 63//203 78//202 64//204
f 64//204 78//202 26//205
f 26//205 78//202 27//206
f 27//206 78//202 28//207
f 28//207 78//202 77//208
f 28//207 77//208 203//209
f 203//209 77//208 202//210
f 202//210 77//208 76//210
f 202//210 76//210 201//211
f 201//211 76//210 75//212
f 201//211 75//212 200//213
f 200//213 75//212 74//213
f 200//213 74//213 199//214
f 199//214 74//213 73//102
f 199//214 73//102 198//215
f 198//215 73//102 72//216
f 198//215 72//216 197//217
f 197//217 72//216 71//218
f 197//217 71//218 196//108
f 196//108 71//218 70//108
f 196//108 70//108 195//219
f 195//219 70//108 69//219
f 195//219 69//219 194//220
f 194//220 69//219 68//221
f 194//220 68//221 193//222
f 193//222 68//221 67//223
f 193//222 67//223 192//224
f 192//224 67//223 66//225
f 192//224 66//225 23//226
f 23//226 66//225 65//227
f 23//226 65//227 24//228
f 24//229 65//230 25//231
f 25//231 65//230 51//232
f 51//232 65//230 52//233
f 52//233 65//230 90//234
f 52//233 90//234 53//235
f 53//235 90//234 54//236
f 54//236 90//234 55//237
f 55//237 90//234 56//238
f 56//238 90//234 89//239
f 56//238 89//239 57//240
f 57//240 89//239 34//241
f 34//241 89//239 88//242
f 34//241 88//242 35//243
f 35//243 88//242 36//244
f 36//244 88//242 87//245
f 36//244 87//245 37//246
f 37//246 87//245 38//247
f 38//247 87//245 86//248
f 38//247 86//248 39//249
f 39//249 86//248 40//250
f 40//250 86//248 85//251
f 40//250 85//251 41//252
f 41//252 85//251 42//253
f 42//253 85//251 84//254
f 42//253 84//254 43//255
f 43//255 84//254 44//256
f 44//256 84//254 83//257
f 44//256 83//257 45//258
f 45//258 83//257 46//259
f 46//259 83//257 82//260
f 46//259 82//260 47//261
f 47//261 82//260 48//262
f 48//262 82//260 81//86
f 48//262 81//86 49//193
f 192//224 23//226 191//227
f 191//230 23//263 22//264
f 191//230 22//264 21//265
f 21//265 20//266 191//230
f 191//230 20//266 216//267
f 216//267 20//266 19//268
f 216//267 19//268 18//269
f 216//267 18//269 215//270
f 215//270 18//269 17//271
f 215//270 17//271 16//272
f 215//270 16//272 214//273
f 214//273 16//272 15//274
f 214//273 15//274 14//275
f 214//273 14//275 213//245
f 213//245 14//275 13//276
f 213//245 13//276 12//277
f 213//245 12//277 212//248
f 212//248 12//277 11//278
f 212//248 11//278 211//279
f 211//279 11//278 10//280
f 211//279 10//280 9//253
f 211//279 9//253 210//281
f 210//281 9//253 8//282
f 210//281 8//282 7//283
f 210//281 7//283 209//284
f 209//284 7//283 6//285
f 209//284 6//285 208//260
f 208//260 6//285 5//286
f 208//260 5//286 4//287
f 208//260 4//287 207//288
f 207//288 4//287 3//289
f 207//288 3//289 2//290
f 207//288 2//290 206//195
f 206//195 2//290 1//291
f 206//195 1//291 33//292
f 206//195 33//292 205//293
f 205//293 33//292 32//294
f 205//293 32//294 31//295
f 205//293 31//295 204//202
f 204//202 31//295 30//296
f 204//202 30//296 29//297
f 29//297 28//207 204//202
f 204//202 28//207 203//209

g face 6
f 112//298 103//298 91//298
f 91//298 103//298 102//298
f 91//298 102//298 92//298
f 92//298 102//298 101//298
f 92//298 101//298 93//298
f 93//298 101//298 100//298
f 93//298 100//298 94//298
f 94//298 100//298 99//298
f 94//298 99//298 95//298
f 95//298 99//298 98//298
f 95//298 98//298 96//298
f 96//298 98//298 97//298
f 103//298 112//298 104//298
f 104//298 112//298 111//298
f 104//298 111//298 105//298
f 105//298 111//298 110//298
f 105//298 110//298 106//298
f 106//298 110//298 109//298
f 106//298 109//298 107//298
f 107//298 109//298 108//298

g face 7
f 218//299 280//300 217//301
f 217//301 280//300 263//302
f 217//303 263//304 353//305
f 353//305 263//304 264//306
f 353//305 264//306 354//307
f 354//307 264//306 265//308
f 354//307 265//308 355//309
f 355//309 265//308 246//310
f 355//309 246//310 247//311
f 280//300 218//299 283//312
f 283//312 218//299 219//313
f 283//312 219//313 286//314
f 286//314 219//313 220//315
f 286//314 220//315 288//316
f 288//316 220//315 221//317
f 288//316 221//317 291//318
f 291//318 221//317 222//319
f 291//318 222//319 293//320
f 293//320 222//319 223//321
f 293//320 223//321 295//322
f 295//322 223//321 224//323
f 295//322 224//323 298//324
f 298//324 224//323 225//325
f 298//324 225//325 300//326
f 300//326 225//325 226//327
f 300//326 226//327 303//328
f 303//328 226//327 227//329
f 303//328 227//329 306//330
f 306//330 227//329 228//331
f 306//330 228//331 309//332
f 309//332 228//331 229//333
f 309//332 229//333 311//334
f 311//334 229//333 230//335
f 311//334 230//335 314//336
f 314//336 230//335 231//337
f 314//336 231//337 272//338
f 272//338 231//337 232//339
f 272//338 232//339 321//340
f 321//340 232//339 318//341
f 321//340 318//341 319//342
f 319//342 318//341 323//343
f 319//342 323//343 324//344
f 324//344 323//343 270//345
f 324//344 270//345 253//346
f 253//346 270//345 252//347
f 252//347 270//345 329//348
f 252//347 329//348 332//349
f 332//349 329//348 328//350
f 332//349 328//350 331//351
f 331//351 328//350 327//352
f 331//351 327//352 330//353
f 330//353 327//352 236//354
f 330//353 236//354 237//355
f 232//339 233//356 318//341
f 318//341 233//356 322//357
f 318//341 322//357 323//343
f 323//343 322//357 326//358
f 323//343 326//358 270//345
f 270//345 326//358 329//348
f 233//356 234//359 322//357
f 322//357 234//359 325//360
f 322//357 325//360 326//358
f 326//358 325//360 328//350
f 326//358 328//350 329//348
f 234//359 235//361 325//360
f 325//360 235//361 327//352
f 325//360 327//352 328//350
f 235//361 236//354 327//352
f 330//353 237//355 333//362
f 333//362 237//355 238//363
f 333//362 238//363 336//364
f 336//364 238//363 239//365
f 336//364 239//365 338//366
f 338//366 239//365 240//367
f 338//366 240//367 341//368
f 341//368 240//367 241//369
f 341//368 241//369 343//370
f 343//370 241//369 242//371
f 343//370 242//371 345//372
f 345//372 242//371 243//373
f 345//372 243//373 348//374
f 348//374 243//373 244//375
f 348//374 244//375 350//376
f 350//376 244//375 245//377
f 350//376 245//377 353//305
f 353//305 245//377 217//303
f 248//378 266//379 247//311
f 247//311 266//379 352//380
f 247//311 352//380 355//309
f 355//309 352//380 351//381
f 355//309 351//381 354//307
f 354//307 351//381 350//376
f 354//307 350//376 353//305
f 249//382 267//383 248//378
f 248//378 267//383 347//384
f 248//378 347//384 266//379
f 266//379 347//384 346//385
f 266//379 346//385 349//386
f 349//386 346//385 345//372
f 349//386 345//372 348//374
f 267//383 249//382 268//387
f 268//387 249//382 250//388
f 268//387 250//388 340//389
f 340//389 250//388 269//390
f 340//389 269//390 337//391
f 337//391 269//390 334//392
f 337//391 334//392 333//362
f 333//362 334//392 330//353
f 250//388 251//393 269//390
f 269//390 251//393 335//394
f 269//390 335//394 334//392
f 334//392 335//394 331//351
f 334//392 331//351 330//353
f 335//394 251//393 332//349
f 332//349 251//393 252//347
f 324//344 253//346 271//395
f 271//395 253//346 254//396
f 271//395 254//396 273//397
f 273//397 254//396 255//398
f 273//397 255//398 317//399
f 317//399 255//398 274//400
f 317//399 274//400 315//401
f 315//401 274//400 312//402
f 315//401 312//402 311//334
f 311//334 312//402 309//332
f 255//398 256//403 274//400
f 274//400 256//403 313//404
f 274//400 313//404 312//402
f 312//402 313//404 310//405
f 312//402 310//405 309//332
f 309//332 310//405 306//330
f 313//404 256//403 275//406
f 275//406 256//403 257//407
f 275//406 257//407 308//408
f 308//408 257//407 305//409
f 308//408 305//409 304//410
f 304//410 305//409 301//411
f 304//410 301//411 300//326
f 300//326 301//411 298//324
f 257//407 258//412 305//409
f 305//409 258//412 302//413
f 305//409 302//413 301//411
f 301//411 302//413 299//414
f 301//411 299//414 298//324
f 298//324 299//414 295//322
f 302//413 258//412 276//415
f 276//415 258//412 259//416
f 276//415 259//416 297//417
f 297//417 259//416 277//418
f 297//417 277//418 294//419
f 294//419 277//418 292//420
f 294//419 292//420 291//318
f 291//318 292//420 288//316
f 259//416 260//421 277//418
f 277//418 260//421 278//422
f 277//418 278//422 292//420
f 292//420 278//422 289//423
f 292//420 289//423 288//316
f 288//316 289//423 286//314
f 260//421 261//424 278//422
f 278//422 261//424 290//425
f 278//422 290//425 289//423
f 289//423 290//425 287//426
f 289//423 287//426 286//314
f 286//314 287//426 283//312
f 290//425 261//424 279//427
f 279//427 261//424 262//428
f 279//427 262//428 285//429
f 285//429 262//428 282//430
f 285//429 282//430 281//431
f 281//431 282//430 264//432
f 281//431 264//432 263//302
f 262//428 246//433 282//430
f 282//430 246//433 265//434
f 282//430 265//434 264//432
f 281//431 263//302 280//300
f 281//431 280//300 284//435
f 284//435 280//300 283//312
f 284//435 283//312 287//426
f 279//427 285//429 284//435
f 284//435 285//429 281//431
f 279//427 284//435 287//426
f 290//425 279//427 287//426
f 291//318 293//320 294//419
f 294//419 293//320 296//436
f 294//419 296//436 297//417
f 297//417 296//436 276//415
f 293//320 295//322 296//436
f 296//436 295//322 299//414
f 296//436 299//414 276//415
f 276//415 299//414 302//413
f 300//326 303//328 304//410
f 304//410 303//328 307//437
f 304//410 307//437 308//408
f 308//408 307//437 275//406
f 303//328 306//330 307//437
f 307//437 306//330 310//405
f 307//437 310//405 275//406
f 275//406 310//405 313//404
f 311//334 314//336 315//401
f 315//401 314//336 316//438
f 315//401 316//438 317//399
f 317//399 316//438 273//397
f 314//336 272//338 316//438
f 316//438 272//338 320//439
f 316//438 320//439 273//397
f 273//397 320//439 271//395
f 321//340 319//342 320//439
f 320//439 319//342 271//395
f 319//342 324//344 271//395
f 272//338 321//340 320//439
f 335//394 332//349 331//351
f 333//362 336//364 337//391
f 337//391 336//364 339//440
f 337//391 339//440 340//389
f 340//389 339//440 268//387
f 336//364 338//366 339//440
f 339//440 338//366 342//441
f 339//440 342//441 268//387
f 268//387 342//441 267//383
f 338//366 341//368 342//441
f 342//441 341//368 344//442
f 342//441 344//442 267//383
f 267//383 344//442 347//384
f 341//368 343//370 344//442
f 344//442 343//370 346//385
f 344//442 346//385 347//384
f 345//372 346//385 343//370
f 352//380 266//379 349//386
f 350//376 351//381 348//374
f 348//374 351//381 349//386
f 351//381 352//380 349//386

g face 8
f 247//443 246//443 248//443
f 248//443 246//443 262//443
f 248//443 262//443 261//443
f 248//443 261//443 249//443
f 249//443 261//443 260//443
f 249//443 260//443 250//443
f 250//443 260//443 259//443
f 250//443 259//443 251//443
f 251//443 259//443 258//443
f 251//443 258//443 252//443
f 252//443 258//443 257//443
f 252//443 257//443 253//443
f 253//443 257//443 256//443
f 253//443 256//443 254//443
f 254//443 256//443 255//443

g face 9
f 218//298 217//298 204//298
f 204//298 217//298 245//298
f 204//298 245//298 205//298
f 205//298 245//298 244//298
f 205//298 244//298 206//298
f 206//298 244//298 243//298
f 206//298 243//298 207//298
f 207//298 243//298 242//298
f 207//298 242//298 208//298
f 208//298 242//298 241//298
f 208//298 241//298 209//298
f 209//298 241//298 240//298
f 209//298 240//298 210//298
f 210//298 240//298 239//298
f 210//298 239//298 211//298
f 211//298 239//298 238//298
f 211//298 238//298 212//298
f 212//298 238//298 237//298
f 212//298 237//298 213//298
f 213//298 237//298 236//298
f 213//298 236//298 235//298
f 213//298 235//298 214//298
f 214//298 235//298 234//298
f 214//298 234//298 215//298
f 215//298 234//298 233//298
f 215//298 233//298 216//298
f 216//298 233//298 232//298
f 216//298 232//298 191//298
f 191//298 232//298 231//298
f 191//298 231//298 192//298
f 192//298 231//298 230//298
f 192//298 230//298 193//298
f 193//298 230//298 229//298
f 193//298 229//298 194//298
f 194//298 229//298 228//298
f 194//298 228//298 195//298
f 195//298 228//298 227//298
f 195//298 227//298 226//298
f 195//298 226//298 196//298
f 196//298 226//298 225//298
f 196//298 225//298 197//298
f 197//298 225//298 224//298
f 197//298 224//298 198//298
f 198//298 224//298 223//298
f 198//298 223//298 199//298
f 199//298 223//298 222//298
f 199//298 222//298 200//298
f 200//298 222//298 221//298
f 200//298 221//298 201//298
f 201//298 221//298 220//298
f 201//298 220//298 202//298
f 202//298 220//298 219//298
f 202//298 219//298 203//298
f 203//298 219//298 218//298
f 203//298 218//298 204//298

g halfedge 0 edge 0
l 17 16 15 14 13 12 11 10 9 8 7 6 5 4 3 2 1

g halfedge 1 edge 0
l 1 2 3 4 5 6 7 8 9 10 11 12 13 14 15 16 17

g halfedge 2 edge 1
l 17 1

g halfedge 3 edge 1
l 1 17

g halfedge 4 edge 2
l 25 24 23 22 21 20 19 18 17

g halfedge 5 edge 2
l 17 18 19 20 21 22 23 24 25

g halfedge 6 edge 3
l 26 25

g halfedge 7 edge 3
l 25 26

g halfedge 8 edge 4
l 1 33 32 31 30 29 28 27 26

g halfedge 9 edge 4
l 26 27 28 29 30 31 32 33 1

g halfedge 10 edge 5
l 50 49 48 47 46 45 44 43 42 41 40 39 38 37 36 35 34

g halfedge 11 edge 5
l 34 35 36 37 38 39 40 41 42 43 44 45 46 47 48 49 50

g halfedge 12 edge 6
l 34 50

g halfedge 13 edge 6
l 50 34

g halfedge 14 edge 7
l 34 57 56 55 54 53 52 51 25

g halfedge 15 edge 7
l 25 51 52 53 54 55 56 57 34

g halfedge 16 edge 8
l 26 64 63 62 61 60 59 58 50

g halfedge 17 edge 8
l 50 58 59 60 61 62 63 64 26

g halfedge 18 edge 9
l 65 90 89 88 87 86 85 84 83 82 81 80 79 78 77 76 75 74 73 72 71 70 69 68 67 66 65

g halfedge 19 edge 9
l 65 66 67 68 69 70 71 72 73 74 75 76 77 78 79 80 81 82 83 84 85 86 87 88 89 90 65

g halfedge 20 edge 10
l 91 112 111 110 109 108 107 106 105 104 103 102 101 100 99 98 97 96 95 94 93 92 91

g halfedge 21 edge 10
l 91 92 93 94 95 96 97 98 99 100 101 102 103 104 105 106 107 108 109 110 111 112 91

g halfedge 22 edge 11
l 191 192 193 194 195 196 197 198 199 200 201 202 203 204 205 206 207 208 209 210 211 212 213 214 215 216 191

g halfedge 23 edge 11
l 191 216 215 214 213 212 211 210 209 208 207 206 205 204 203 202 201 200 199 198 197 196 195 194 193 192 191

g halfedge 24 edge 12
l 217 245 244 243 242 241 240 239 238 237 236 235 234 233 232 231 230 229 228 227 226 225 224 223 222 221 220 219 218 217

g halfedge 25 edge 12
l 217 218 219 220 221 222 223 224 225 226 227 228 229 230 231 232 233 234 235 236 237 238 239 240 241 242 243 244 245 217

g halfedge 26 edge 13
l 246 262 261 260 259 258 257 256 255 254 253 252 251 250 249 248 247 246

g halfedge 27 edge 13
l 246 247 248 249 250 251 252 253 254 255 256 257 258 259 260 261 262 246

g vertex 0
p 17

g vertex 1
p 1

g vertex 2
p 25

g vertex 3
p 26

g vertex 4
p 34

g vertex 5
p 50

g vertex 6
p 65

g vertex 7
p 91

g vertex 8
p 191

g vertex 9
p 217

g vertex 10
p 246

# End of file
