# WaveFront *.obj file
# Vertices: 24
# Triangles : 44

v 4.8535329395512145e-17 3.6570063311431666e-01 -5.4233513141861145e-01
v 4.8535329395512145e-17 4.0590307932415143e-01 -5.4942390737588620e-01
v 5.5511151231257852e-17 3.7899400999521288e-01 -5.3008140616080091e-01
v -7.7195194680967916e-17 3.7885421171613209e-01 -5.2998094085639780e-01
v 1.6245749543344229e-15 3.7226743051548816e-01 -5.3613812655650073e-01
v -7.0670148422705137e-03 4.0590307932415132e-01 -5.4942390737588620e-01
v -1.0141656995153410e-02 4.0557896648618019e-01 -5.4936675753775821e-01
v -1.3070717700594394e-02 4.0460474918831990e-01 -5.4919497776978499e-01
v -6.5071355406867010e-03 3.7896249220612133e-01 -5.3080306700073554e-01
v -3.2819381136813923e-03 3.7899519809279203e-01 -5.3027243365457266e-01
v -5.6603566615288899e-03 3.9219495322370285e-01 -5.3965840523164810e-01
v -8.6935662954649908e-03 3.9146406539483719e-01 -5.3956684190094406e-01
v -6.5859566531295839e-03 3.9199027054598379e-01 -5.3960493354500094e-01
v -3.0354606846674390e-02 3.9693298923354220e-01 -5.4784223934435416e-01
v -4.7606866457996125e-02 3.8970732134113745e-01 -5.4656815891827348e-01
v -6.4830705544779987e-02 3.8292676315831736e-01 -5.4537256327614392e-01
v -8.2029326430958810e-02 3.7659049813111672e-01 -5.4425530843734671e-01
v -5.6780562439949778e-02 3.7730829032687824e-01 -5.4018450660726114e-01
v -3.1604169362958956e-02 3.7809902791877242e-01 -5.3570001087826324e-01
v -4.2947629236402142e-02 3.7178680490504157e-01 -5.4340828771454319e-01
v -2.3340282064030805e-02 3.6910823951560895e-01 -5.4293598436679424e-01
v -3.6822617717051434e-03 3.6624426921377412e-01 -5.4243098913063292e-01
v -5.0946986561959205e-03 3.7260338070994770e-01 -5.3661702806568423e-01
v -1.8676505475075855e-03 3.7025616479665946e-01 -5.3831990310072031e-01

vn 1.0000000000000000e+00 0.0000000000000000e+00 0.0000000000000000e+00
vn 0.0000000000000000e+00 5.8366803438271397e-01 8.1199238028433440e-01
vn -9.0748750232595682e-02 5.6508031381824353e-01 8.2002981852265444e-01
vn -6.4309381750562056e-02 5.7126787219829800e-01 8.1824038131400578e-01
vn -9.0876640232622395e-14 5.8366803438269943e-01 8.1199238028434473e-01
vn -1.0307614175002026e-03 5.8349308075621265e-01 8.1211745593880957e-01
vn -5.8470409762767341e-14 5.8366803438270576e-01 8.1199238028434040e-01
vn -1.8104965818432739e-01 5.4152027464055585e-01 8.2096090858490633e-01
vn -1.5616861793048981e-01 5.4913389415017821e-01 8.2101359858965894e-01
vn -9.2346394997376680e-02 5.6506797467102809e-01 8.1985994372951942e-01
vn -9.4544590000550682e-02 5.6490240106993594e-01 8.1972348860274169e-01
vn -1.8640469468586884e-01 5.4133072126468196e-01 8.1988678487589206e-01
vn -1.8641816556360907e-01 5.4132685707786610e-01 8.1988627342705178e-01
vn -1.8106007875729291e-01 5.4151639075113756e-01 8.2096117230248122e-01
vn -1.7137427384425638e-01 5.4184444220290018e-01 8.2282164453676210e-01
vn -1.7114609832193051e-01 5.4185194493218813e-01 8.2286419462897109e-01
vn -1.6118835509000246e-01 5.4216930419103126e-01 8.2466402842393483e-01
vn -1.5628281178280201e-01 5.4231843330766805e-01 8.2550978167189359e-01
vn -1.5118843848902888e-01 5.4246828242129774e-01 8.2635961822570692e-01
vn -1.4114796849116445e-01 5.4274869882096932e-01 8.2794993865508681e-01
vn -9.2250937390597504e-02 -6.8341242880678854e-01 7.2418037580630568e-01
vn -1.0711034798298562e-01 -6.8384597955747006e-01 7.2172158731608416e-01
vn -1.0214270909541472e-01 -6.8369364005873334e-01 7.2258554754567916e-01
vn -1.1200612786541926e-01 -6.8400342931179225e-01 7.2082864538689329e-01
vn -1.1449159642068112e-01 -6.8408615210464252e-01 7.2035950111573299e-01
vn -1.2183845579722205e-01 -6.8434171057417403e-01 7.1891015701362992e-01
vn -1.2183845579722206e-01 -6.8434171057417392e-01 7.1891015701362981e-01
vn -1.2183845579722216e-01 -6.8434171057417392e-01 7.1891015701362992e-01
vn -1.2183845836287047e-01 -6.8434171066631000e-01 7.1891015649110690e-01
vn -1.2183845689984189e-01 -6.8434171061377125e-01 7.1891015678906811e-01
vn -1.1416348868119422e-01 -6.8326676183896551e-01 7.2118876171099133e-01
vn -1.1802180844917787e-01 -6.8287501211189072e-01 7.2093867323342453e-01
vn -1.0502401419504452e-01 -6.8099845888604527e-01 7.2471446476332335e-01
vn -8.6578808386852973e-02 -6.7825897439388716e-01 7.2970464819162606e-01
vn -1.0200776222185932e-01 -6.8235815487538654e-01 7.2386584732362302e-01
vn -1.2183845983918819e-01 -6.8434171071932570e-01 7.1891015619043874e-01
vn 8.7419135797256573e-17 -1.7364817766693263e-01 -9.8480775301220769e-01

g face 0
f 1//1 2//1 5//1
f 5//1 2//1 3//1
f 5//1 3//1 4//1

g face 1
f 2//2 6//2 3//2

g face 2
f 7//3 11//4 6//5
f 6//5 11//4 4//6
f 6//5 4//6 3//7
f 8//8 12//9 7//3
f 7//3 12//9 13//10
f 7//3 13//10 11//4
f 11//4 13//10 10//11
f 11//4 10//11 4//6
f 8//8 9//12 12//9
f 12//9 9//12 10//11
f 12//9 10//11 13//10

g face 3
f 9//13 8//14 19//15
f 19//15 8//14 14//16
f 19//15 14//16 15//17
f 19//15 15//17 18//18
f 18//18 15//17 16//19
f 18//18 16//19 17//20

g face 4
f 17//21 20//22 18//23
f 18//23 20//22 19//24
f 19//24 20//22 21//25
f 19//24 21//25 9//26
f 9//26 21//25 23//27
f 23//27 21//25 22//28

g face 5
f 23//29 22//30 24//31
f 24//31 22//30 1//32
f 24//31 1//32 5//33
f 4//34 10//35 5//33
f 5//33 10//35 24//31
f 9//36 23//29 10//35
f 10//35 23//29 24//31

g face 6
f 7//37 6//37 8//37
f 8//37 6//37 2//37
f 8//37 2//37 22//37
f 22//37 2//37 1//37
f 8//37 22//37 14//37
f 14//37 22//37 21//37
f 14//37 21//37 15//37
f 15//37 21//37 20//37
f 15//37 20//37 16//37
f 16//37 20//37 17//37

g halfedge 0 edge 0
l 1 2

g halfedge 1 edge 0
l 2 1

g halfedge 2 edge 1
l 2 3

g halfedge 3 edge 1
l 3 2

g halfedge 4 edge 2
l 3 4

g halfedge 5 edge 2
l 4 3

g halfedge 6 edge 3
l 4 5 1

g halfedge 7 edge 3
l 1 5 4

g halfedge 8 edge 4
l 2 6

g halfedge 9 edge 4
l 6 2

g halfedge 10 edge 5
l 6 3

g halfedge 11 edge 5
l 3 6

g halfedge 12 edge 6
l 6 7 8

g halfedge 13 edge 6
l 8 7 6

g halfedge 14 edge 7
l 9 8

g halfedge 15 edge 7
l 8 9

g halfedge 16 edge 8
l 9 10 4

g halfedge 17 edge 8
l 4 10 9

g halfedge 18 edge 9
l 8 14 15 16 17

g halfedge 19 edge 9
l 17 16 15 14 8

g halfedge 20 edge 10
l 17 18 19 9

g halfedge 21 edge 10
l 9 19 18 17

g halfedge 22 edge 11
l 17 20 21 22

g halfedge 23 edge 11
l 22 21 20 17

g halfedge 24 edge 12
l 22 23 9

g halfedge 25 edge 12
l 9 23 22

g halfedge 26 edge 13
l 22 1

g halfedge 27 edge 13
l 1 22

g vertex 0
p 1

g vertex 1
p 2

g vertex 2
p 3

g vertex 3
p 4

g vertex 4
p 6

g vertex 5
p 8

g vertex 6
p 9

g vertex 7
p 17

g vertex 8
p 22

# End of file
