# WaveFront *.obj file
# Vertices: 24
# Triangles : 44

v -6.3131773882816900e-01 3.6624426871752647e-01 -5.4243098904313114e-01
v -6.3499999999999890e-01 3.6570063311431672e-01 -5.4233513141861145e-01
v -6.3500000000000001e-01 4.0590307932415143e-01 -5.4942390737588620e-01
v -6.2793298515772911e-01 4.0590307932415143e-01 -5.4942390737588620e-01
v -6.2485834239824933e-01 4.0557896635524865e-01 -5.4936675751467112e-01
v -6.2192928284790938e-01 4.0460474699287813e-01 -5.4919497681512408e-01
v -6.0464539359077984e-01 3.9693298754380757e-01 -5.4784223860607906e-01
v -5.8739313385102376e-01 3.8970732018578380e-01 -5.4656815841119732e-01
v -5.7016929461842258e-01 3.8292676256615887e-01 -5.4537256301513803e-01
v -5.5297067356903939e-01 3.7659049813111672e-01 -5.4425530843734671e-01
v -5.9205237104574515e-01 3.7178680455929231e-01 -5.4340828765357829e-01
v -6.1165971837247246e-01 3.6910823907021612e-01 -5.4293598428825940e-01
v -6.3499999999999901e-01 3.7226587085923601e-01 -5.3613959233805442e-01
v -6.3500000000000001e-01 3.7885421171613187e-01 -5.2998094085639735e-01
v -6.3499999999999990e-01 3.7899400999521238e-01 -5.3008140616080057e-01
v -6.2990530185022819e-01 3.7260338008803107e-01 -5.3661702751042806e-01
v -6.2849286487228728e-01 3.7896249145853572e-01 -5.3080306597772497e-01
v -6.3171806217634763e-01 3.7899519808824794e-01 -5.3027243361798526e-01
v -6.3313234978948441e-01 3.7025616480158241e-01 -5.3831990304271637e-01
v -5.7821943775128370e-01 3.7730829033259927e-01 -5.4018450657481554e-01
v -6.0339583101835914e-01 3.7809902793131944e-01 -5.3570001080710561e-01
v -6.2934007010935744e-01 3.9219509999868973e-01 -5.3965850694183681e-01
v -6.2841441234605333e-01 3.9199040520379408e-01 -5.3960503218464784e-01
v -6.2630685647879181e-01 3.9146421433059064e-01 -5.3956694272484473e-01

vn 8.7419135797256573e-17 -1.7364817766693263e-01 -9.8480775301220769e-01
vn -1.0000000000000000e+00 -0.0000000000000000e+00 -0.0000000000000000e+00
vn 1.2183845605590589e-01 -6.8434171058346904e-01 7.1891015696094085e-01
vn 1.1416348778268701e-01 -6.8326676160907274e-01 7.2118876207102878e-01
vn 1.1802180862000825e-01 -6.8287501214168711e-01 7.2093867317723548e-01
vn 1.0200776058801429e-01 -6.8235815459394356e-01 7.2386584781917029e-01
vn 1.0502778236981097e-01 -6.8099900235475341e-01 7.2471340799126260e-01
vn 8.6578808389004558e-02 -6.7825897439401095e-01 7.2970464819125591e-01
vn 1.2183845610284667e-01 -6.8434171058515469e-01 7.1891015695138083e-01
vn 1.2183845615021385e-01 -6.8434171058685567e-01 7.1891015694173399e-01
vn 1.2183845602056362e-01 -6.8434171058219539e-01 7.1891015696814287e-01
vn 1.1449159658441692e-01 -6.8408615211015511e-01 7.2035950108447433e-01
vn 1.2183845602056366e-01 -6.8434171058219539e-01 7.1891015696814287e-01
vn 1.2183845602056367e-01 -6.8434171058219539e-01 7.1891015696814276e-01
vn 1.1200612801480404e-01 -6.8400342931670854e-01 7.2082864535901581e-01
vn 1.0711034808956481e-01 -6.8384597956081938e-01 7.2172158729709324e-01
vn 1.0214270917032954e-01 -6.8369364006097544e-01 7.2258554753296778e-01
vn 9.2250937390591634e-02 -6.8341242880678932e-01 7.2418037580630579e-01
vn 0.0000000000000000e+00 5.8366803438271397e-01 8.1199238028433440e-01
vn 1.4114796849116418e-01 5.4274869882096932e-01 8.2794993865508693e-01
vn 1.5118843859899997e-01 5.4246828241811806e-01 8.2635961820767434e-01
vn 1.5628281189743376e-01 5.4231843330423890e-01 8.2550978165244482e-01
vn 1.6118835529966064e-01 5.4216930418455600e-01 8.2466402838721231e-01
vn 1.7137427407283040e-01 5.4184444219537919e-01 8.2282164449410833e-01
vn 1.7114609862086888e-01 5.4185194492236555e-01 8.2286419457326343e-01
vn 1.8106007913500496e-01 5.4151639073797919e-01 8.2096117222785747e-01
vn 1.8641816590534038e-01 5.4132685706559425e-01 8.1988627335745456e-01
vn 1.8641769941016698e-01 5.4132722655351317e-01 8.1988613547156786e-01
vn 1.8105974351821399e-01 5.4151628586423195e-01 8.2096131542291706e-01
vn 1.5616818168490862e-01 5.4913368622857073e-01 8.2101382063778372e-01
vn 9.0758670540429479e-02 5.6507748764043253e-01 8.2003066813608283e-01
vn 9.2347167091106047e-02 5.6506760984782234e-01 8.1986010820817268e-01
vn 6.4308210576028757e-02 5.7126799210363333e-01 8.1824038964743873e-01
vn 9.4557222104858618e-02 5.6489964742360399e-01 8.1972392919110293e-01
vn 1.0427347747537950e-03 5.8349104609603475e-01 8.1211890251978780e-01
vn -1.1350588987671145e-14 5.8366803438271664e-01 8.1199238028433240e-01
vn -1.4641244640182383e-14 5.8366803438271631e-01 8.1199238028433263e-01

g face 0
f 2//1 3//1 1//1
f 1//1 3//1 6//1
f 1//1 6//1 7//1
f 3//1 4//1 6//1
f 6//1 4//1 5//1
f 1//1 7//1 12//1
f 12//1 7//1 8//1
f 12//1 8//1 11//1
f 11//1 8//1 9//1
f 11//1 9//1 10//1

g face 1
f 2//2 13//2 3//2
f 3//2 13//2 15//2
f 15//2 13//2 14//2

g face 2
f 1//3 19//4 2//5
f 2//5 19//4 18//6
f 2//5 18//6 13//7
f 13//7 18//6 14//8
f 1//3 16//9 19//4
f 19//4 16//9 17//10
f 19//4 17//10 18//6

g face 3
f 1//11 12//12 16//13
f 16//13 12//12 17//14
f 17//14 12//12 21//15
f 21//15 12//12 11//16
f 21//15 11//16 20//17
f 20//17 11//16 10//18

g face 4
f 4//19 3//19 15//19

g face 5
f 10//20 9//21 20//22
f 20//22 9//21 8//23
f 20//22 8//23 21//24
f 21//24 8//23 7//25
f 21//24 7//25 6//26
f 6//26 17//27 21//24

g face 6
f 17//28 6//29 24//30
f 24//30 6//29 5//31
f 24//30 5//31 23//32
f 23//32 5//31 22//33
f 23//32 22//33 18//34
f 18//34 22//33 14//35
f 14//35 22//33 15//36
f 15//36 22//33 4//37
f 4//37 22//33 5//31
f 23//32 18//34 24//30
f 24//30 18//34 17//28

g halfedge 0 edge 0
l 2 1

g halfedge 1 edge 0
l 1 2

g halfedge 2 edge 1
l 3 2

g halfedge 3 edge 1
l 2 3

g halfedge 4 edge 2
l 4 3

g halfedge 5 edge 2
l 3 4

g halfedge 6 edge 3
l 6 5 4

g halfedge 7 edge 3
l 4 5 6

g halfedge 8 edge 4
l 10 9 8 7 6

g halfedge 9 edge 4
l 6 7 8 9 10

g halfedge 10 edge 5
l 1 12 11 10

g halfedge 11 edge 5
l 10 11 12 1

g halfedge 12 edge 6
l 2 13 14

g halfedge 13 edge 6
l 14 13 2

g halfedge 14 edge 7
l 14 15

g halfedge 15 edge 7
l 15 14

g halfedge 16 edge 8
l 3 15

g halfedge 17 edge 8
l 15 3

g halfedge 18 edge 9
l 17 16 1

g halfedge 19 edge 9
l 1 16 17

g halfedge 20 edge 10
l 14 18 17

g halfedge 21 edge 10
l 17 18 14

g halfedge 22 edge 11
l 17 21 20 10

g halfedge 23 edge 11
l 10 20 21 17

g halfedge 24 edge 12
l 15 4

g halfedge 25 edge 12
l 4 15

g halfedge 26 edge 13
l 6 17

g halfedge 27 edge 13
l 17 6

g vertex 0
p 1

g vertex 1
p 2

g vertex 2
p 3

g vertex 3
p 4

g vertex 4
p 6

g vertex 5
p 10

g vertex 6
p 14

g vertex 7
p 15

g vertex 8
p 17

# End of file
