# Created by FreeCAD <https://www.freecad.org>
v 0.36 -0.11 0.2
v 0.36 0.11 0.2
v 0.35934596999999996 0.10934597 0.19997858000000002
v 0.35934596999999996 -0.10934597 0.19997858000000002
v 0.35869473 0.10869474000000001 0.19991446000000002
v 0.35869473 -0.10869474000000001 0.19991446000000002
v 0.35804909 -0.1080491 0.19980785
v 0.35804909 0.1080491 0.19980785
v 0.3574118 0.10741181 0.19965924999999998
v 0.3574118 -0.10741181 0.19965924999999998
v 0.35678562 -0.1067856 0.1994693
v 0.35678562 0.1067856 0.1994693
v 0.35617317 -0.10617316 0.19923880000000002
v 0.35617317 0.10617316 0.19923880000000002
v 0.35563591000000006 0.10563591000000001 0.19899748
v 0.35563591000000006 -0.10563591000000001 0.19899748
v 0.35516525000000004 0.10516527 0.19875359
v 0.35516525000000004 -0.10516527 0.19875359
v 0.35470821 -0.10470821000000001 0.19848511
v 0.35470821 0.10470821000000001 0.19848511
v 0.35426600999999996 -0.10426602000000001 0.19819277
v 0.35426600999999996 0.10426602000000001 0.19819277
v 0.35383995 -0.10383995000000001 0.19787743
v 0.35383995 0.10383995000000001 0.19787743
v 0.35343117 0.10343119 0.19753994
v 0.35343117 -0.10343119 0.19753994
v 0.35304089 -0.10304088 0.19718126000000002
v 0.35304089 0.10304088 0.19718126000000002
v 0.3527063 -0.10270628000000001 0.19684118000000003
v 0.3527063 0.10270628000000001 0.19684118000000003
v 0.35241932 0.10241933 0.19652176000000002
v 0.35241932 -0.10241933 0.19652176000000002
v 0.35214633999999995 -0.10214635 0.19619032
v 0.35214633999999995 0.10214635 0.19619032
v 0.35188786 0.10188785 0.19584747
v 0.35188786 -0.10188785 0.19584747
v 0.35164428999999997 -0.10164429999999999 0.19549382999999998
v 0.35164428999999997 0.10164429999999999 0.19549382999999998
v 0.35141616999999997 0.10141616 0.19513007999999998
v 0.35141616999999997 -0.10141616 0.19513007999999998
v 0.35120384000000004 -0.10120385000000001 0.19475684999999998
v 0.35120384000000004 0.10120385000000001 0.19475684999999998
v 0.35102660999999996 -0.10102662000000001 0.19441343
v 0.35102660999999996 0.10102662000000001 0.19441343
v 0.35087856 -0.10087857 0.19409872
v 0.35087856 0.10087857 0.19409872
v 0.35074154 -0.10074155 0.19377903
v 0.35074154 0.10074155 0.19377903
v 0.35061573 -0.10061573 0.19345478
v 0.35061573 0.10061573 0.19345478
v 0.35050125000000004 -0.10050126000000001 0.19312634
v 0.35050125000000004 0.10050126000000001 0.19312634
v 0.35039829 -0.10039829 0.19279413
v 0.35039829 0.10039829 0.19279413
v 0.35030693 -0.10030693 0.19245853000000002
v 0.35030693 0.10030693 0.19245853000000002
v 0.35022728000000003 -0.10022729999999999 0.19211996
v 0.35022728000000003 0.10022729999999999 0.19211996
v 0.35015949 -0.10015948 0.19177883
v 0.35015949 0.10015948 0.19177883
v 0.35010357 -0.10010358 0.19143553000000002
v 0.35010357 0.10010358 0.19143553000000002
v 0.35005961999999996 0.10005964 0.19109051000000002
v 0.35005961999999996 -0.10005964 0.19109051000000002
v 0.35002773 -0.10002773 0.19074417000000002
v 0.35002773 0.10002773 0.19074417000000002
v 0.35000790000000004 -0.10000788000000001 0.19039692
v 0.35000790000000004 0.10000788000000001 0.19039692
v 0.35000198 0.10000197 0.19019850000000002
v 0.35000198 -0.10000197 0.19019850000000002
v 0.35000000000000003 -0.1 0.19
v 0.35000000000000003 0.1 0.19
v 0.09027267 0.10972733 0.19999628000000003
v 0.09 0.11 0.2
v 0.09 -0.11 0.2
v 0.09065403 -0.10934597 0.19997858000000002
v 0.09054515 0.10945486000000001 0.19998512000000002
v 0.09103443 0.10896557 0.19994635
v 0.09130527000000001 -0.10869474000000001 0.19991446000000002
v 0.09152123 0.10847877 0.19988361000000002
v 0.0919509 -0.1080491 0.19980785
v 0.09200437000000002 0.10799563 0.19979706
v 0.09248267 0.10751733 0.19968691
v 0.09258819000000001 -0.10741181 0.19965924999999998
v 0.09295500000000001 0.107045 0.19955343
v 0.09321440000000002 -0.1067856 0.1994693
v 0.0934202 0.1065798 0.19939693
v 0.09382684 -0.10617316 0.19923880000000002
v 0.09387716 0.10612284000000001 0.19921778
v 0.09436409 -0.10563591000000001 0.19899748
v 0.09432479 0.10567520999999999 0.19901644000000002
v 0.09476200000000001 0.105238 0.19879337
v 0.09483474 -0.10516527 0.19875359
v 0.09518773 0.10481227000000001 0.19854912
v 0.09529178999999999 -0.10470821000000001 0.19848511
v 0.09555571 0.1044443 0.1983147
v 0.09573398 -0.10426602000000001 0.19819277
v 0.09582478 0.10417522 0.19812847000000003
v 0.09616005 -0.10383995000000001 0.19787743
v 0.09608762000000001 0.10391239000000001 0.19793354000000002
v 0.09634394 0.10365607 0.1977301
v 0.09656882 -0.10343119 0.19753994
v 0.09659345999999999 0.10340654 0.19751841
v 0.09683592 0.10316407999999999 0.19729864
v 0.09695912 -0.10304088 0.19718126000000002
v 0.09707107000000001 0.10292893 0.19707108
v 0.09729372 -0.10270628000000001 0.19684118000000003
v 0.09729863999999999 0.10270136 0.19683592000000003
v 0.0975184 0.1024816 0.19659346
v 0.09758067000000001 -0.10241933 0.19652176000000002
v 0.0977301 0.10226990000000001 0.19634394
v 0.09785365000000001 -0.10214635 0.19619032
v 0.09793353 0.10206647 0.19608761000000002
v 0.09811215000000001 -0.10188785 0.19584747
v 0.09812847 0.10187154 0.19582477999999998
v 0.09831469999999999 0.1016853 0.19555571000000002
v 0.0983557 -0.10164429999999999 0.19549382999999998
v 0.09849202 0.10150798 0.19528068999999998
v 0.09858383999999999 -0.10141616 0.19513007999999998
v 0.09866025 0.10133974999999999 0.195
v 0.09879616000000001 -0.10120385000000001 0.19475684999999998
v 0.09881921 0.10118079 0.19471397000000001
v 0.09897338 -0.10102662000000001 0.19441343
v 0.09896872999999999 0.10103127 0.19442289
v 0.09910864 0.10089136 0.19412706000000002
v 0.09912144 -0.10087857 0.19409872
v 0.0992388 0.1007612 0.19382683
v 0.09925845000000001 -0.10074155 0.19377903
v 0.09935905 0.10064095 0.19352249000000002
v 0.09938427000000001 -0.10061573 0.19345478
v 0.0994693 0.1005307 0.1932144
v 0.09949874 -0.10050126000000001 0.19312634
v 0.09956941000000001 0.10043059 0.19290285000000001
v 0.09960171000000001 -0.10039829 0.19279413
v 0.09965926 0.10034074999999999 0.19258820000000001
v 0.09969307000000001 -0.10030693 0.19245853000000002
v 0.09973877 0.10026123 0.19227076
v 0.0997727 -0.10022729999999999 0.19211996
v 0.09980784999999999 0.10019215000000001 0.19195091000000003
v 0.09984052 -0.10015948 0.19177883
v 0.09986644 0.10013356999999999 0.19162895
v 0.09989642 -0.10010358 0.19143553000000002
v 0.09991445 0.10008555 0.19130526
v 0.09994035999999999 -0.10005964 0.19109051000000002
v 0.09995185 0.10004815 0.19098017
v 0.09997228 -0.10002773 0.19074417000000002
v 0.09997859 0.10002141 0.19065403
v 0.09999212 -0.10000788000000001 0.19039692
v 0.09999465 0.10000536 0.19032719
v 0.09999803 -0.10000197 0.19019850000000002
v 0.1 0.1 0.19
v 0.1 -0.1 0.19
v 0.1 0.1 0.1
v 0.35000000000000003 0.1 0.1
v 0.1 -0.1 0.1
v -0.09 -0.11 0.2
v -0.36 -0.11 0.2
v -0.4 -0.4 0.2
v 0.4 -0.4 0.2
v -0.09 0.11 0.2
v -0.4 0.4 0.2
v -0.36 0.11 0.2
v 0.4 0.4 0.2
v -0.35972733 -0.10972733 0.19999628000000003
v -0.09065403 -0.10934597 0.19997858000000002
v -0.35945484 -0.10945486000000001 0.19998512000000002
v -0.35896557 -0.10896557 0.19994635
v -0.09130527000000001 -0.10869474000000001 0.19991446000000002
v -0.35847878 -0.10847877 0.19988361000000002
v -0.0919509 -0.1080491 0.19980785
v -0.35799563999999995 -0.10799563 0.19979706
v -0.35751731999999997 -0.10751733 0.19968691
v -0.09258819000000001 -0.10741181 0.19965924999999998
v -0.35704502 -0.107045 0.19955343
v -0.09321440000000002 -0.1067856 0.1994693
v -0.35657978 -0.1065798 0.19939693
v -0.09382684 -0.10617316 0.19923880000000002
v -0.35612282 -0.10612284000000001 0.19921778
v -0.09436409 -0.10563591000000001 0.19899748
v -0.3556752 -0.10567520999999999 0.19901644000000002
v -0.355238 -0.105238 0.19879337
v -0.09483474 -0.10516527 0.19875359
v -0.35481228000000004 -0.10481227000000001 0.19854912
v -0.09529178999999999 -0.10470821000000001 0.19848511
v -0.35444431000000004 -0.1044443 0.1983147
v -0.09573398 -0.10426602000000001 0.19819277
v -0.35417522 -0.10417522 0.19812847000000003
v -0.09616005 -0.10383995000000001 0.19787743
v -0.35391239 -0.10391239000000001 0.19793354000000002
v -0.35365608000000004 -0.10365607 0.1977301
v -0.09656882 -0.10343119 0.19753994
v -0.35340652 -0.10340654 0.19751841
v -0.35316406 -0.10316407999999999 0.19729864
v -0.09695912 -0.10304088 0.19718126000000002
v -0.35292892000000003 -0.10292893 0.19707108
v -0.09729372 -0.10270628000000001 0.19684118000000003
v -0.35270138 -0.10270136 0.19683592000000003
v -0.35248161000000006 -0.1024816 0.19659346
v -0.09758067000000001 -0.10241933 0.19652176000000002
v -0.3522699 -0.10226990000000001 0.19634394
v -0.09785365000000001 -0.10214635 0.19619032
v -0.35206646 -0.10206647 0.19608761000000002
v -0.09811215000000001 -0.10188785 0.19584747
v -0.35187153000000004 -0.10187154 0.19582477999999998
v -0.3516853 -0.1016853 0.19555571000000002
v -0.0983557 -0.10164429999999999 0.19549382999999998
v -0.35150799 -0.10150798 0.19528068999999998
v -0.09858383999999999 -0.10141616 0.19513007999999998
v -0.35133976 -0.10133974999999999 0.195
v -0.09879616000000001 -0.10120385000000001 0.19475684999999998
v -0.3511808 -0.10118079 0.19471397000000001
v -0.09897338 -0.10102662000000001 0.19441343
v -0.35103127 -0.10103127 0.19442289
v -0.35089138 -0.10089136 0.19412706000000002
v -0.09912144 -0.10087857 0.19409872
v -0.35076122 -0.1007612 0.19382683
v -0.09925845000000001 -0.10074155 0.19377903
v -0.35064095 -0.10064095 0.19352249000000002
v -0.09938427000000001 -0.10061573 0.19345478
v -0.3505307 -0.1005307 0.1932144
v -0.09949874 -0.10050126000000001 0.19312634
v -0.3504306 -0.10043059 0.19290285000000001
v -0.09960171000000001 -0.10039829 0.19279413
v -0.35034073 -0.10034074999999999 0.19258820000000001
v -0.09969307000000001 -0.10030693 0.19245853000000002
v -0.35026123 -0.10026123 0.19227076
v -0.0997727 -0.10022729999999999 0.19211996
v -0.35019215000000004 -0.10019215000000001 0.19195091000000003
v -0.09984052 -0.10015948 0.19177883
v -0.35013354999999996 -0.10013356999999999 0.19162895
v -0.09989642 -0.10010358 0.19143553000000002
v -0.35008556 -0.10008555 0.19130526
v -0.09994035999999999 -0.10005964 0.19109051000000002
v -0.35004814000000006 -0.10004815 0.19098017
v -0.09997228 -0.10002773 0.19074417000000002
v -0.3500214 -0.10002141 0.19065403
v -0.09999212 -0.10000788000000001 0.19039692
v -0.35000534 -0.10000536 0.19032719
v -0.09999803 -0.10000197 0.19019850000000002
v -0.35000000000000003 -0.1 0.19
v -0.1 -0.1 0.19
v -0.09065403 0.10934597 0.19997858000000002
v -0.09130527000000001 0.10869474000000001 0.19991446000000002
v -0.0919509 0.1080491 0.19980785
v -0.09258819000000001 0.10741181 0.19965924999999998
v -0.09321440000000002 0.1067856 0.1994693
v -0.09382684 0.10617316 0.19923880000000002
v -0.09436409 0.10563591000000001 0.19899748
v -0.09483474 0.10516527 0.19875359
v -0.09529178999999999 0.10470821000000001 0.19848511
v -0.09573398 0.10426602000000001 0.19819277
v -0.09616005 0.10383995000000001 0.19787743
v -0.09656882 0.10343119 0.19753994
v -0.09695912 0.10304088 0.19718126000000002
v -0.09729372 0.10270628000000001 0.19684118000000003
v -0.09758067000000001 0.10241933 0.19652176000000002
v -0.09785365000000001 0.10214635 0.19619032
v -0.09811215000000001 0.10188785 0.19584747
v -0.0983557 0.10164429999999999 0.19549382999999998
v -0.09858383999999999 0.10141616 0.19513007999999998
v -0.09879616000000001 0.10120385000000001 0.19475684999999998
v -0.09897338 0.10102662000000001 0.19441343
v -0.09912144 0.10087857 0.19409872
v -0.09925845000000001 0.10074155 0.19377903
v -0.09938427000000001 0.10061573 0.19345478
v -0.09949874 0.10050126000000001 0.19312634
v -0.09960171000000001 0.10039829 0.19279413
v -0.09969307000000001 0.10030693 0.19245853000000002
v -0.0997727 0.10022729999999999 0.19211996
v -0.09984052 0.10015948 0.19177883
v -0.09989642 0.10010358 0.19143553000000002
v -0.09994035999999999 0.10005964 0.19109051000000002
v -0.09997228 0.10002773 0.19074417000000002
v -0.09999212 0.10000788000000001 0.19039692
v -0.09999803 0.10000197 0.19019850000000002
v -0.1 0.1 0.19
v -0.35934596999999996 0.10934597 0.19997858000000002
v -0.35869473 0.10869474000000001 0.19991446000000002
v -0.35804909 0.1080491 0.19980785
v -0.3574118 0.10741181 0.19965924999999998
v -0.35678562 0.1067856 0.1994693
v -0.35617317 0.10617316 0.19923880000000002
v -0.35563591000000006 0.10563591000000001 0.19899748
v -0.35516525000000004 0.10516527 0.19875359
v -0.35470821 0.10470821000000001 0.19848511
v -0.35426600999999996 0.10426602000000001 0.19819277
v -0.35383995 0.10383995000000001 0.19787743
v -0.35343117 0.10343119 0.19753994
v -0.35304089 0.10304088 0.19718126000000002
v -0.3527063 0.10270628000000001 0.19684118000000003
v -0.35241932 0.10241933 0.19652176000000002
v -0.35214633999999995 0.10214635 0.19619032
v -0.35188786 0.10188785 0.19584747
v -0.35164428999999997 0.10164429999999999 0.19549382999999998
v -0.35141616999999997 0.10141616 0.19513007999999998
v -0.35120384000000004 0.10120385000000001 0.19475684999999998
v -0.35102660999999996 0.10102662000000001 0.19441343
v -0.35087856 0.10087857 0.19409872
v -0.35074154 0.10074155 0.19377903
v -0.35061573 0.10061573 0.19345478
v -0.35050125000000004 0.10050126000000001 0.19312634
v -0.35039829 0.10039829 0.19279413
v -0.35030693 0.10030693 0.19245853000000002
v -0.35022728000000003 0.10022729999999999 0.19211996
v -0.35015949 0.10015948 0.19177883
v -0.35010357 0.10010358 0.19143553000000002
v -0.35005961999999996 0.10005964 0.19109051000000002
v -0.35002773 0.10002773 0.19074417000000002
v -0.35000790000000004 0.10000788000000001 0.19039692
v -0.35000198 0.10000197 0.19019850000000002
v -0.35000000000000003 0.1 0.19
v -0.35000000000000003 -0.1 0.1
v -0.35000000000000003 0.1 0.1
v -0.1 -0.1 0.1
v 0.35000000000000003 -0.1 0.1
v -0.1 0.1 0.1
v -0.4 0.4 0.0
v -0.4 -0.4 0.0
v 0.4 0.4 0.0
v 0.4 -0.4 0.0
vn -0.032733 0.000000 0.999464
vn -0.097991 0.000000 0.995187
vn -0.032733 0.000000 0.999464
vn -0.097991 0.000000 0.995187
vn -0.162905 0.000000 0.986642
vn -0.227088 0.000000 0.973874
vn -0.162905 0.000000 0.986642
vn -0.227088 0.000000 0.973874
vn -0.290288 0.000000 0.956939
vn -0.290288 0.000000 0.956939
vn -0.352241 0.000000 0.935909
vn -0.409729 0.000000 0.912207
vn -0.352241 0.000000 0.935909
vn -0.409729 0.000000 0.912207
vn -0.460091 0.000000 0.887872
vn -0.460091 0.000000 0.887872
vn -0.506504 0.000000 0.862237
vn -0.506504 0.000000 0.862238
vn -0.551483 0.000000 0.834186
vn -0.551483 0.000000 0.834186
vn -0.594910 0.000000 0.803792
vn -0.636653 0.000000 0.771151
vn -0.594910 0.000000 0.803792
vn -0.636653 0.000000 0.771151
vn -0.676666 0.000000 0.736290
vn -0.676666 0.000000 0.736290
vn -0.712840 0.000000 0.701326
vn -0.743875 0.000000 0.668319
vn -0.712840 0.000000 0.701326
vn -0.743875 0.000000 0.668319
vn -0.771897 0.000000 0.635748
vn -0.798489 0.000000 0.602010
vn -0.771897 0.000000 0.635748
vn -0.798489 0.000000 0.602010
vn -0.823563 0.000000 0.567224
vn -0.847186 0.000000 0.531296
vn -0.823563 0.000000 0.567224
vn -0.847186 0.000000 0.531296
vn -0.869193 0.000000 0.494473
vn -0.869193 0.000000 0.494473
vn -0.888639 0.000000 0.458608
vn -0.888639 0.000000 0.458608
vn -0.904876 0.000000 0.425676
vn -0.904876 0.000000 0.425676
vn -0.919131 0.000000 0.393952
vn -0.919131 0.000000 0.393952
vn -0.932284 0.000000 0.361726
vn -0.932284 0.000000 0.361726
vn -0.944285 0.000000 0.329129
vn -0.944285 0.000000 0.329129
vn -0.955177 0.000000 0.296035
vn -0.955177 0.000000 0.296035
vn -0.964884 0.000000 0.262677
vn -0.964884 0.000000 0.262677
vn -0.973426 0.000000 0.229003
vn -0.973426 0.000000 0.229003
vn -0.980822 0.000000 0.194903
vn -0.980823 0.000000 0.194903
vn -0.986990 0.000000 0.160779
vn -0.991986 0.000000 0.126349
vn -0.986990 0.000000 0.160779
vn -0.991986 0.000000 0.126349
vn -0.995787 0.000000 0.091693
vn -0.995787 0.000000 0.091693
vn -0.998372 0.000000 0.057031
vn -0.998372 0.000000 0.057031
vn -0.999556 0.000000 0.029786
vn -0.999556 0.000000 0.029786
vn -0.999950 0.000000 0.009993
vn -0.999950 0.000000 0.009993
vn 0.013639 0.000000 0.999907
vn 0.032756 -0.000024 0.999463
vn 0.040907 -0.000010 0.999163
vn 0.098016 -0.000024 0.995185
vn 0.079013 0.000010 0.996874
vn 0.162927 -0.000022 0.986638
vn 0.127823 0.000014 0.991797
vn 0.176353 0.000006 0.984327
vn 0.227101 -0.000014 0.973871
vn 0.224410 -0.000007 0.974495
vn 0.290298 -0.000024 0.956936
vn 0.271952 0.000010 0.962311
vn 0.352266 -0.000022 0.935900
vn 0.318862 0.000014 0.947801
vn 0.365015 0.000006 0.931002
vn 0.409741 -0.000007 0.912202
vn 0.410204 -0.000006 0.911994
vn 0.460106 -0.000009 0.887864
vn 0.454469 0.000005 0.890762
vn 0.506505 -0.000012 0.862237
vn 0.497651 0.000008 0.867378
vn 0.551502 -0.000016 0.834173
vn 0.537285 0.000009 0.843401
vn 0.594909 -0.000011 0.803793
vn 0.569120 0.000006 0.822255
vn 0.595681 -0.000009 0.803221
vn 0.636671 -0.000017 0.771135
vn 0.621680 0.000005 0.783271
vn 0.646949 0.000002 0.762533
vn 0.676656 -0.000015 0.736299
vn 0.671574 -0.000003 0.740938
vn 0.712836 -0.000012 0.701330
vn 0.695431 0.000006 0.718593
vn 0.718596 0.000001 0.695427
vn 0.743911 -0.000008 0.668278
vn 0.740950 -0.000001 0.671560
vn 0.771901 -0.000011 0.635742
vn 0.762522 0.000005 0.646962
vn 0.798471 -0.000010 0.602033
vn 0.783302 0.000006 0.621642
vn 0.803193 0.000002 0.595719
vn 0.823586 -0.000006 0.567191
vn 0.822270 -0.000002 0.569097
vn 0.847169 -0.000011 0.531323
vn 0.840446 0.000005 0.541895
vn 0.869205 -0.000010 0.494452
vn 0.857741 0.000007 0.514081
vn 0.888650 -0.000004 0.458587
vn 0.874087 0.000003 0.485770
vn 0.889513 -0.000001 0.456910
vn 0.904866 -0.000002 0.425697
vn 0.903994 0.000001 0.427546
vn 0.919141 -0.000004 0.393928
vn 0.917494 0.000002 0.397749
vn 0.932276 -0.000005 0.361749
vn 0.930025 0.000004 0.367497
vn 0.944294 -0.000006 0.329103
vn 0.941538 0.000005 0.336907
vn 0.952058 0.000005 0.305917
vn 0.955170 -0.000007 0.296058
vn 0.961562 0.000006 0.274589
vn 0.964884 -0.000007 0.262675
vn 0.970037 0.000006 0.242959
vn 0.973438 -0.000007 0.228949
vn 0.977459 0.000007 0.211124
vn 0.980807 -0.000008 0.194981
vn 0.983845 0.000007 0.179020
vn 0.986999 -0.000007 0.160724
vn 0.989180 0.000006 0.146706
vn 0.991989 -0.000007 0.126322
vn 0.993446 0.000006 0.114300
vn 0.995780 -0.000007 0.091774
vn 0.996655 0.000005 0.081718
vn 0.998371 -0.000006 0.057058
vn 0.998795 0.000004 0.049077
vn 0.999558 -0.000002 0.029738
vn 0.999866 0.000006 0.016350
vn 0.999951 0.000000 0.009945
vn -0.000000 0.032733 0.999464
vn -0.000000 0.032733 0.999464
vn -0.000000 0.097994 0.995187
vn -0.000000 0.162903 0.986642
vn 0.000000 0.097994 0.995187
vn -0.000000 0.227088 0.973874
vn -0.000000 0.162903 0.986642
vn -0.000000 0.227088 0.973874
vn -0.000000 0.290276 0.956943
vn 0.000000 0.290276 0.956943
vn -0.000000 0.352246 0.935907
vn 0.000000 0.352246 0.935907
vn 0.000000 0.409735 0.912205
vn -0.000000 0.409735 0.912205
vn -0.000000 0.460106 0.887864
vn -0.000000 0.460106 0.887864
vn 0.000000 0.506489 0.862247
vn -0.000000 0.506489 0.862247
vn -0.000000 0.551491 0.834181
vn -0.000000 0.551491 0.834181
vn 0.000000 0.594901 0.803799
vn -0.000000 0.594901 0.803799
vn 0.000000 0.636670 0.771136
vn -0.000000 0.636670 0.771136
vn 0.000000 0.676639 0.736315
vn -0.000000 0.676639 0.736315
vn 0.000000 0.712830 0.701336
vn -0.000000 0.712830 0.701336
vn 0.000000 0.743908 0.668282
vn -0.000000 0.743908 0.668282
vn -0.000000 0.771897 0.635748
vn -0.000000 0.771897 0.635748
vn 0.000000 0.798468 0.602038
vn -0.000000 0.798468 0.602038
vn 0.000000 0.823584 0.567194
vn -0.000000 0.823584 0.567194
vn 0.000000 0.847166 0.531328
vn -0.000000 0.847166 0.531328
vn 0.000000 0.869212 0.494440
vn -0.000000 0.869212 0.494440
vn -0.000000 0.888639 0.458608
vn 0.000000 0.888639 0.458608
vn -0.000000 0.904876 0.425676
vn 0.000000 0.904876 0.425676
vn -0.000000 0.919131 0.393952
vn -0.000000 0.932275 0.361750
vn 0.000000 0.919131 0.393952
vn -0.000000 0.944294 0.329104
vn -0.000000 0.932275 0.361750
vn -0.000000 0.944293 0.329104
vn -0.000000 0.955169 0.296060
vn -0.000000 0.964884 0.262677
vn 0.000000 0.955169 0.296060
vn -0.000000 0.964884 0.262677
vn -0.000000 0.973438 0.228951
vn -0.000000 0.973438 0.228951
vn -0.000000 0.980807 0.194982
vn -0.000000 0.986999 0.160725
vn 0.000000 0.980807 0.194982
vn -0.000000 0.986999 0.160725
vn -0.000000 0.991989 0.126322
vn 0.000000 0.991989 0.126322
vn 0.000000 0.995782 0.091747
vn -0.000000 0.995782 0.091747
vn 0.000000 0.998369 0.057086
vn -0.000000 0.998369 0.057086
vn 0.000000 0.999558 0.029738
vn -0.000000 0.999558 0.029738
vn 0.000000 0.999951 0.009945
vn -0.000000 0.999951 0.009945
vn 0.000000 -0.013639 0.999907
vn -0.000008 -0.079010 0.996874
vn 0.000008 -0.040910 0.999163
vn 0.000019 -0.032752 0.999464
vn -0.000011 -0.127821 0.991797
vn 0.000019 -0.098013 0.995185
vn 0.000006 -0.224411 0.974495
vn -0.000005 -0.176352 0.984327
vn 0.000018 -0.162920 0.986639
vn 0.000011 -0.227098 0.973872
vn -0.000008 -0.271951 0.962311
vn 0.000020 -0.290294 0.956937
vn -0.000011 -0.318860 0.947802
vn 0.000018 -0.352262 0.935901
vn -0.000005 -0.365014 0.931002
vn 0.000006 -0.409740 0.912203
vn -0.000004 -0.454469 0.890763
vn 0.000004 -0.410205 0.911993
vn 0.000007 -0.460112 0.887861
vn -0.000006 -0.497650 0.867378
vn 0.000010 -0.506496 0.862243
vn -0.000007 -0.537294 0.843395
vn -0.000005 -0.569106 0.822264
vn 0.000013 -0.551500 0.834175
vn -0.000004 -0.621679 0.783272
vn 0.000007 -0.595697 0.803210
vn 0.000009 -0.594907 0.803794
vn 0.000002 -0.671574 0.740937
vn -0.000002 -0.646934 0.762546
vn 0.000013 -0.636678 0.771129
vn -0.000005 -0.695430 0.718594
vn 0.000012 -0.676646 0.736309
vn 0.000000 -0.740951 0.671560
vn -0.000000 -0.718596 0.695427
vn 0.000010 -0.712835 0.701331
vn -0.000004 -0.762522 0.646962
vn 0.000006 -0.743911 0.668279
vn -0.000005 -0.783301 0.621642
vn 0.000009 -0.771901 0.635743
vn 0.000002 -0.822257 0.569117
vn -0.000002 -0.803207 0.595701
vn 0.000008 -0.798470 0.602034
vn -0.000004 -0.840446 0.541895
vn 0.000005 -0.823586 0.567192
vn -0.000005 -0.857741 0.514082
vn 0.000009 -0.847169 0.531324
vn -0.000003 -0.874086 0.485770
vn 0.000008 -0.869214 0.494436
vn -0.000001 -0.903993 0.427546
vn 0.000001 -0.889513 0.456910
vn 0.000003 -0.888640 0.458606
vn -0.000002 -0.917494 0.397749
vn 0.000002 -0.904876 0.425675
vn -0.000003 -0.930025 0.367497
vn 0.000003 -0.919131 0.393951
vn -0.000004 -0.941538 0.336907
vn 0.000004 -0.932276 0.361749
vn 0.000005 -0.944294 0.329103
vn -0.000004 -0.952058 0.305917
vn 0.000005 -0.955170 0.296059
vn -0.000005 -0.961569 0.274562
vn -0.000005 -0.970030 0.242987
vn 0.000006 -0.964884 0.262675
vn 0.000006 -0.973438 0.228949
vn -0.000005 -0.977459 0.211124
vn -0.000005 -0.983851 0.178992
vn 0.000006 -0.980807 0.194981
vn -0.000005 -0.989176 0.146735
vn 0.000006 -0.986999 0.160724
vn -0.000005 -0.993446 0.114301
vn 0.000006 -0.991989 0.126322
vn -0.000004 -0.996656 0.081719
vn 0.000005 -0.995782 0.091747
vn -0.000004 -0.998796 0.049048
vn 0.000005 -0.998369 0.057085
vn -0.000005 -0.999866 0.016379
vn 0.000002 -0.999558 0.029738
vn 0.000000 -0.999951 0.009945
vn 0.000000 -1.000000 0.000000
vn 0.000000 -1.000000 0.000000
vn 1.000000 0.000000 0.000000
vn 1.000000 -0.000000 0.000000
vn 0.000000 0.000000 1.000000
vn 0.000000 0.000000 1.000000
vn 0.000000 0.000000 1.000000
vn 0.000000 0.000000 1.000000
vn 0.000000 0.000000 1.000000
vn 0.000000 0.000000 1.000000
vn 0.000000 0.000000 1.000000
vn 0.000000 0.000000 1.000000
vn 0.000000 0.000000 1.000000
vn 0.000000 0.000000 1.000000
vn 0.000000 -0.000000 1.000000
vn 0.000000 0.000000 1.000000
vn 0.000000 0.000000 1.000000
vn 0.000000 0.000000 1.000000
vn 0.000000 0.013639 0.999907
vn 0.000019 0.032752 0.999464
vn 0.000008 0.040910 0.999163
vn 0.000019 0.098013 0.995185
vn -0.000008 0.079010 0.996874
vn 0.000018 0.162920 0.986639
vn -0.000011 0.127821 0.991797
vn -0.000005 0.176352 0.984327
vn 0.000011 0.227098 0.973872
vn 0.000006 0.224411 0.974495
vn 0.000020 0.290294 0.956937
vn -0.000008 0.271951 0.962311
vn 0.000018 0.352262 0.935902
vn -0.000011 0.318860 0.947802
vn -0.000005 0.365014 0.931002
vn 0.000006 0.409740 0.912203
vn 0.000004 0.410205 0.911993
vn 0.000007 0.460112 0.887861
vn -0.000004 0.454469 0.890763
vn 0.000010 0.506496 0.862243
vn -0.000006 0.497650 0.867378
vn 0.000013 0.551500 0.834175
vn -0.000007 0.537294 0.843395
vn 0.000009 0.594907 0.803794
vn -0.000005 0.569106 0.822264
vn 0.000007 0.595697 0.803209
vn 0.000013 0.636678 0.771129
vn -0.000004 0.621679 0.783272
vn -0.000002 0.646934 0.762546
vn 0.000012 0.676645 0.736309
vn 0.000002 0.671574 0.740937
vn 0.000010 0.712835 0.701331
vn -0.000005 0.695430 0.718594
vn -0.000000 0.718596 0.695428
vn 0.000006 0.743911 0.668279
vn 0.000000 0.740951 0.671560
vn 0.000009 0.771901 0.635743
vn -0.000004 0.762522 0.646962
vn 0.000008 0.798470 0.602034
vn -0.000005 0.783301 0.621642
vn -0.000002 0.803207 0.595701
vn 0.000005 0.823586 0.567192
vn 0.000002 0.822257 0.569117
vn 0.000009 0.847169 0.531324
vn -0.000004 0.840446 0.541895
vn 0.000008 0.869214 0.494436
vn -0.000005 0.857741 0.514082
vn 0.000003 0.888640 0.458606
vn -0.000003 0.874086 0.485770
vn 0.000001 0.889513 0.456910
vn 0.000002 0.904876 0.425675
vn -0.000001 0.903994 0.427546
vn 0.000003 0.919131 0.393951
vn -0.000002 0.917494 0.397749
vn 0.000004 0.932276 0.361749
vn -0.000003 0.930025 0.367497
vn 0.000005 0.944294 0.329103
vn -0.000004 0.941538 0.336907
vn -0.000004 0.952058 0.305917
vn 0.000005 0.955170 0.296059
vn -0.000005 0.961569 0.274562
vn 0.000006 0.964884 0.262675
vn -0.000005 0.970030 0.242987
vn 0.000006 0.973438 0.228949
vn -0.000005 0.977459 0.211124
vn 0.000006 0.980807 0.194981
vn -0.000005 0.983851 0.178992
vn 0.000006 0.986999 0.160724
vn -0.000005 0.989176 0.146735
vn 0.000006 0.991989 0.126322
vn -0.000005 0.993446 0.114301
vn 0.000005 0.995782 0.091747
vn -0.000004 0.996656 0.081719
vn 0.000005 0.998369 0.057085
vn -0.000004 0.998796 0.049048
vn 0.000002 0.999558 0.029738
vn -0.000005 0.999866 0.016379
vn -0.000000 0.999951 0.009945
vn -0.032733 0.000000 0.999464
vn -0.032733 0.000000 0.999464
vn -0.097993 0.000000 0.995187
vn -0.097993 0.000000 0.995187
vn -0.162905 0.000000 0.986642
vn -0.162905 0.000000 0.986642
vn -0.227088 0.000000 0.973874
vn -0.290276 0.000000 0.956943
vn -0.227088 0.000000 0.973874
vn -0.290276 0.000000 0.956943
vn -0.352246 0.000000 0.935907
vn -0.409735 0.000000 0.912205
vn -0.352246 0.000000 0.935907
vn -0.409735 0.000000 0.912205
vn -0.460099 0.000000 0.887868
vn -0.460099 0.000000 0.887868
vn -0.506496 0.000000 0.862242
vn -0.506496 0.000000 0.862242
vn -0.551491 0.000000 0.834181
vn -0.551491 0.000000 0.834181
vn -0.594901 0.000000 0.803799
vn -0.636662 0.000000 0.771143
vn -0.594901 0.000000 0.803799
vn -0.676648 0.000000 0.736307
vn -0.636662 0.000000 0.771143
vn -0.712830 0.000000 0.701336
vn -0.676648 0.000000 0.736307
vn -0.743908 0.000000 0.668282
vn -0.712830 0.000000 0.701336
vn -0.743908 0.000000 0.668282
vn -0.771897 0.000000 0.635748
vn -0.798468 0.000000 0.602038
vn -0.771897 0.000000 0.635748
vn -0.798468 0.000000 0.602038
vn -0.823584 0.000000 0.567194
vn -0.823584 0.000000 0.567194
vn -0.847166 0.000000 0.531328
vn -0.847166 0.000000 0.531328
vn -0.869202 0.000000 0.494457
vn -0.869202 0.000000 0.494457
vn -0.888649 0.000000 0.458588
vn -0.888649 0.000000 0.458588
vn -0.904865 0.000000 0.425698
vn -0.919141 0.000000 0.393929
vn -0.904865 0.000000 0.425698
vn -0.932275 0.000000 0.361750
vn -0.919141 0.000000 0.393929
vn -0.932275 0.000000 0.361750
vn -0.944294 0.000000 0.329104
vn -0.944294 0.000000 0.329104
vn -0.955169 0.000000 0.296060
vn -0.955169 0.000000 0.296060
vn -0.964884 0.000000 0.262677
vn -0.973438 0.000000 0.228951
vn -0.964884 0.000000 0.262677
vn -0.973438 0.000000 0.228951
vn -0.980807 0.000000 0.194982
vn -0.986999 0.000000 0.160725
vn -0.980807 0.000000 0.194982
vn -0.991989 0.000000 0.126322
vn -0.986999 0.000000 0.160725
vn -0.991989 0.000000 0.126322
vn -0.995780 0.000000 0.091774
vn -0.998371 0.000000 0.057058
vn -0.995780 0.000000 0.091774
vn -0.998371 0.000000 0.057058
vn -0.999558 0.000000 0.029738
vn -0.999558 0.000000 0.029738
vn -0.999951 0.000000 0.009945
vn -0.999951 0.000000 0.009945
vn 0.000000 -0.032733 0.999464
vn 0.000000 -0.032733 0.999464
vn 0.000000 -0.097994 0.995187
vn 0.000000 -0.097994 0.995187
vn 0.000000 -0.162903 0.986642
vn 0.000000 -0.162903 0.986642
vn 0.000000 -0.227088 0.973874
vn 0.000000 -0.227088 0.973874
vn 0.000000 -0.290276 0.956943
vn 0.000000 -0.290276 0.956943
vn 0.000000 -0.352246 0.935907
vn 0.000000 -0.409735 0.912205
vn 0.000000 -0.352246 0.935907
vn 0.000000 -0.409735 0.912205
vn 0.000000 -0.460106 0.887864
vn 0.000000 -0.460106 0.887864
vn 0.000000 -0.506489 0.862247
vn 0.000000 -0.506489 0.862247
vn 0.000000 -0.551491 0.834181
vn 0.000000 -0.551491 0.834181
vn 0.000000 -0.594901 0.803799
vn 0.000000 -0.594901 0.803799
vn 0.000000 -0.636670 0.771136
vn 0.000000 -0.676639 0.736315
vn 0.000000 -0.636670 0.771136
vn 0.000000 -0.712830 0.701336
vn 0.000000 -0.676639 0.736315
vn 0.000000 -0.743908 0.668282
vn 0.000000 -0.712830 0.701336
vn 0.000000 -0.771897 0.635748
vn 0.000000 -0.743908 0.668282
vn 0.000000 -0.798467 0.602038
vn 0.000000 -0.771897 0.635748
vn 0.000000 -0.798468 0.602038
vn 0.000000 -0.823584 0.567194
vn 0.000000 -0.823584 0.567194
vn 0.000000 -0.847166 0.531328
vn 0.000000 -0.847166 0.531328
vn 0.000000 -0.869212 0.494440
vn 0.000000 -0.869212 0.494440
vn 0.000000 -0.888639 0.458608
vn 0.000000 -0.904876 0.425676
vn 0.000000 -0.888639 0.458608
vn 0.000000 -0.904876 0.425676
vn 0.000000 -0.919131 0.393952
vn 0.000000 -0.919131 0.393952
vn 0.000000 -0.932275 0.361750
vn 0.000000 -0.932275 0.361750
vn 0.000000 -0.944293 0.329104
vn 0.000000 -0.944294 0.329104
vn 0.000000 -0.955169 0.296060
vn 0.000000 -0.955169 0.296060
vn 0.000000 -0.964884 0.262677
vn 0.000000 -0.964884 0.262677
vn 0.000000 -0.973438 0.228951
vn 0.000000 -0.973438 0.228951
vn 0.000000 -0.980807 0.194982
vn 0.000000 -0.986999 0.160725
vn 0.000000 -0.980807 0.194982
vn 0.000000 -0.986999 0.160725
vn 0.000000 -0.991989 0.126322
vn 0.000000 -0.995782 0.091747
vn 0.000000 -0.991989 0.126322
vn 0.000000 -0.995782 0.091747
vn 0.000000 -0.998369 0.057086
vn 0.000000 -0.998369 0.057086
vn 0.000000 -0.999558 0.029738
vn 0.000000 -0.999558 0.029738
vn 0.000000 -0.999951 0.009945
vn 0.000000 -0.999951 0.009945
vn 0.013639 0.000000 0.999907
vn 0.079015 -0.000010 0.996873
vn 0.040905 0.000010 0.999163
vn 0.032756 0.000024 0.999463
vn 0.127826 -0.000014 0.991797
vn 0.098015 0.000024 0.995185
vn 0.224402 0.000007 0.974497
vn 0.176353 -0.000006 0.984327
vn 0.162927 0.000022 0.986638
vn 0.227101 0.000014 0.973871
vn 0.271968 -0.000010 0.962306
vn 0.290310 0.000024 0.956933
vn 0.318839 -0.000014 0.947809
vn 0.352261 0.000022 0.935902
vn 0.365015 -0.000006 0.931002
vn 0.409735 0.000007 0.912205
vn 0.454477 -0.000005 0.890758
vn 0.410211 0.000006 0.911990
vn 0.460098 0.000009 0.887868
vn 0.497659 -0.000008 0.867373
vn 0.506513 0.000012 0.862232
vn 0.537295 -0.000009 0.843394
vn 0.551494 0.000016 0.834179
vn 0.569093 -0.000006 0.822273
vn 0.594917 0.000011 0.803787
vn 0.621694 -0.000005 0.783260
vn 0.595695 0.000009 0.803210
vn 0.636663 0.000017 0.771143
vn 0.671574 0.000003 0.740938
vn 0.646892 -0.000002 0.762582
vn 0.676674 0.000015 0.736283
vn 0.695445 -0.000006 0.718579
vn 0.712847 0.000012 0.701320
vn 0.740936 0.000001 0.671576
vn 0.718640 -0.000001 0.695382
vn 0.743878 0.000008 0.668315
vn 0.762508 -0.000005 0.646979
vn 0.783288 -0.000006 0.621659
vn 0.771901 0.000011 0.635742
vn 0.798492 0.000010 0.602005
vn 0.822256 0.000002 0.569117
vn 0.803207 -0.000002 0.595700
vn 0.840473 -0.000005 0.541854
vn 0.823565 0.000007 0.567221
vn 0.857741 -0.000007 0.514081
vn 0.847189 0.000011 0.531291
vn 0.874087 -0.000003 0.485770
vn 0.869195 0.000010 0.494469
vn 0.904027 -0.000001 0.427475
vn 0.889489 0.000001 0.456956
vn 0.888640 0.000004 0.458606
vn 0.917494 -0.000002 0.397749
vn 0.904876 0.000002 0.425675
vn 0.930005 -0.000004 0.367547
vn 0.919131 0.000004 0.393951
vn 0.941538 -0.000005 0.336907
vn 0.932285 0.000005 0.361725
vn 0.952067 -0.000005 0.305891
vn 0.944286 0.000006 0.329127
vn 0.955178 0.000007 0.296033
vn 0.961546 -0.000006 0.274643
vn 0.964884 0.000007 0.262675
vn 0.970043 -0.000006 0.242932
vn 0.973426 0.000007 0.229001
vn 0.977459 -0.000007 0.211124
vn 0.980823 0.000008 0.194902
vn 0.983840 -0.000007 0.179048
vn 0.986991 0.000008 0.160778
vn 0.989189 -0.000006 0.146649
vn 0.991986 0.000007 0.126349
vn 0.993440 -0.000006 0.114358
vn 0.995787 0.000007 0.091692
vn 0.996655 -0.000005 0.081718
vn 0.998372 0.000006 0.057031
vn 0.998795 -0.000004 0.049077
vn 0.999867 -0.000006 0.016320
vn 0.999556 0.000002 0.029786
vn 0.999950 0.000000 0.009993
vn 1.000000 0.000000 0.000000
vn 1.000000 -0.000000 0.000000
vn 0.000000 1.000000 -0.000000
vn 0.000000 1.000000 0.000000
vn 0.000000 1.000000 -0.000000
vn 0.000000 1.000000 0.000000
vn -1.000000 0.000000 0.000000
vn -1.000000 -0.000000 0.000000
vn 0.000000 0.000000 1.000000
vn 0.000000 0.000000 1.000000
vn -1.000000 0.000000 0.000000
vn -1.000000 -0.000000 0.000000
vn 0.000000 -1.000000 0.000000
vn 0.000000 -1.000000 0.000000
vn 0.000000 0.000000 1.000000
vn 0.000000 0.000000 1.000000
vn -1.000000 0.000000 0.000000
vn -1.000000 0.000000 0.000000
vn 0.000000 1.000000 0.000000
vn -0.000000 1.000000 0.000000
vn 1.000000 0.000000 0.000000
vn 1.000000 0.000000 0.000000
vn 0.000000 -1.000000 -0.000000
vn -0.000000 -1.000000 0.000000
vn 0.000000 0.000000 -1.000000
vn 0.000000 0.000000 -1.000000
f 1//1 2//1 3//1
f 4//2 3//2 5//2
f 4//3 1//3 3//3
f 6//4 4//4 5//4
f 7//5 5//5 8//5
f 7//6 8//6 9//6
f 7//7 6//7 5//7
f 10//8 7//8 9//8
f 11//9 9//9 12//9
f 11//10 10//10 9//10
f 13//11 12//11 14//11
f 13//12 14//12 15//12
f 13//13 11//13 12//13
f 16//14 13//14 15//14
f 16//15 15//15 17//15
f 18//16 16//16 17//16
f 19//17 17//17 20//17
f 19//18 18//18 17//18
f 21//19 19//19 20//19
f 21//20 20//20 22//20
f 23//21 22//21 24//21
f 23//22 24//22 25//22
f 23//23 21//23 22//23
f 26//24 23//24 25//24
f 27//25 25//25 28//25
f 27//26 26//26 25//26
f 29//27 28//27 30//27
f 29//28 30//28 31//28
f 29//29 27//29 28//29
f 32//30 29//30 31//30
f 33//31 31//31 34//31
f 33//32 34//32 35//32
f 33//33 32//33 31//33
f 36//34 33//34 35//34
f 37//35 35//35 38//35
f 37//36 38//36 39//36
f 37//37 36//37 35//37
f 40//38 37//38 39//38
f 41//39 39//39 42//39
f 41//40 40//40 39//40
f 43//41 42//41 44//41
f 43//42 41//42 42//42
f 45//43 44//43 46//43
f 45//44 43//44 44//44
f 47//45 46//45 48//45
f 47//46 45//46 46//46
f 49//47 48//47 50//47
f 49//48 47//48 48//48
f 51//49 50//49 52//49
f 51//50 49//50 50//50
f 53//51 52//51 54//51
f 53//52 51//52 52//52
f 55//53 54//53 56//53
f 55//54 53//54 54//54
f 57//55 56//55 58//55
f 57//56 55//56 56//56
f 59//57 58//57 60//57
f 59//58 57//58 58//58
f 61//59 60//59 62//59
f 61//60 62//60 63//60
f 61//61 59//61 60//61
f 64//62 61//62 63//62
f 65//63 63//63 66//63
f 65//64 64//64 63//64
f 67//65 65//65 66//65
f 67//66 66//66 68//66
f 67//67 68//67 69//67
f 70//68 67//68 69//68
f 71//69 70//69 69//69
f 71//70 69//70 72//70
f 73//71 74//71 75//71
f 73//72 75//72 76//72
f 77//73 73//73 76//73
f 78//74 76//74 79//74
f 78//75 77//75 76//75
f 80//76 79//76 81//76
f 80//77 78//77 79//77
f 82//78 80//78 81//78
f 83//79 81//79 84//79
f 83//80 82//80 81//80
f 85//81 84//81 86//81
f 85//82 83//82 84//82
f 87//83 86//83 88//83
f 87//84 85//84 86//84
f 89//85 87//85 88//85
f 89//86 88//86 90//86
f 91//87 89//87 90//87
f 92//88 90//88 93//88
f 92//89 91//89 90//89
f 94//90 93//90 95//90
f 94//91 92//91 93//91
f 96//92 95//92 97//92
f 96//93 94//93 95//93
f 98//94 97//94 99//94
f 98//95 96//95 97//95
f 100//96 98//96 99//96
f 101//97 99//97 102//97
f 101//98 100//98 99//98
f 103//99 101//99 102//99
f 104//100 102//100 105//100
f 104//101 103//101 102//101
f 106//102 105//102 107//102
f 106//103 104//103 105//103
f 108//104 106//104 107//104
f 109//105 107//105 110//105
f 109//106 108//106 107//106
f 111//107 110//107 112//107
f 111//108 109//108 110//108
f 113//109 112//109 114//109
f 113//110 111//110 112//110
f 115//111 113//111 114//111
f 116//112 114//112 117//112
f 116//113 115//113 114//113
f 118//114 117//114 119//114
f 118//115 116//115 117//115
f 120//116 119//116 121//116
f 120//117 118//117 119//117
f 122//118 121//118 123//118
f 122//119 120//119 121//119
f 124//120 122//120 123//120
f 125//121 123//121 126//121
f 125//122 124//122 123//122
f 127//123 126//123 128//123
f 127//124 125//124 126//124
f 129//125 128//125 130//125
f 129//126 127//126 128//126
f 131//127 130//127 132//127
f 131//128 129//128 130//128
f 133//129 131//129 132//129
f 133//130 132//130 134//130
f 135//131 133//131 134//131
f 135//132 134//132 136//132
f 137//133 135//133 136//133
f 137//134 136//134 138//134
f 139//135 137//135 138//135
f 139//136 138//136 140//136
f 141//137 139//137 140//137
f 141//138 140//138 142//138
f 143//139 141//139 142//139
f 143//140 142//140 144//140
f 145//141 143//141 144//141
f 145//142 144//142 146//142
f 147//143 145//143 146//143
f 147//144 146//144 148//144
f 149//145 147//145 148//145
f 149//146 148//146 150//146
f 151//147 149//147 150//147
f 151//148 150//148 152//148
f 75//149 1//149 4//149
f 76//150 75//150 4//150
f 79//151 4//151 6//151
f 79//152 6//152 7//152
f 79//153 76//153 4//153
f 81//154 7//154 10//154
f 81//155 79//155 7//155
f 84//156 81//156 10//156
f 86//157 10//157 11//157
f 86//158 84//158 10//158
f 88//159 11//159 13//159
f 88//160 86//160 11//160
f 90//161 88//161 13//161
f 90//162 13//162 16//162
f 90//163 16//163 18//163
f 93//164 90//164 18//164
f 95//165 93//165 18//165
f 95//166 18//166 19//166
f 95//167 19//167 21//167
f 97//168 95//168 21//168
f 99//169 97//169 21//169
f 99//170 21//170 23//170
f 102//171 99//171 23//171
f 102//172 23//172 26//172
f 105//173 102//173 26//173
f 105//174 26//174 27//174
f 107//175 105//175 27//175
f 107//176 27//176 29//176
f 110//177 107//177 29//177
f 110//178 29//178 32//178
f 110//179 32//179 33//179
f 112//180 110//180 33//180
f 114//181 112//181 33//181
f 114//182 33//182 36//182
f 117//183 114//183 36//183
f 117//184 36//184 37//184
f 119//185 117//185 37//185
f 119//186 37//186 40//186
f 121//187 119//187 40//187
f 121//188 40//188 41//188
f 123//189 41//189 43//189
f 123//190 121//190 41//190
f 126//191 43//191 45//191
f 126//192 123//192 43//192
f 128//193 45//193 47//193
f 128//194 47//194 49//194
f 128//195 126//195 45//195
f 130//196 49//196 51//196
f 130//197 128//197 49//197
f 132//198 130//198 51//198
f 134//199 51//199 53//199
f 134//200 53//200 55//200
f 134//201 132//201 51//201
f 136//202 134//202 55//202
f 136//203 55//203 57//203
f 138//204 136//204 57//204
f 140//205 57//205 59//205
f 140//206 59//206 61//206
f 140//207 138//207 57//207
f 142//208 140//208 61//208
f 144//209 61//209 64//209
f 144//210 142//210 61//210
f 146//211 144//211 64//211
f 146//212 64//212 65//212
f 148//213 146//213 65//213
f 148//214 65//214 67//214
f 150//215 148//215 67//215
f 150//216 67//216 70//216
f 152//217 150//217 70//217
f 152//218 70//218 71//218
f 2//219 74//219 73//219
f 3//220 77//220 78//220
f 3//221 73//221 77//221
f 3//222 2//222 73//222
f 5//223 78//223 80//223
f 5//224 3//224 78//224
f 8//225 82//225 83//225
f 8//226 80//226 82//226
f 8//227 5//227 80//227
f 9//228 8//228 83//228
f 9//229 83//229 85//229
f 12//230 9//230 85//230
f 12//231 85//231 87//231
f 14//232 12//232 87//232
f 14//233 87//233 89//233
f 15//234 14//234 89//234
f 15//235 91//235 92//235
f 15//236 89//236 91//236
f 17//237 15//237 92//237
f 17//238 92//238 94//238
f 20//239 17//239 94//239
f 20//240 94//240 96//240
f 22//241 96//241 98//241
f 22//242 20//242 96//242
f 24//243 100//243 101//243
f 24//244 98//244 100//244
f 24//245 22//245 98//245
f 25//246 103//246 104//246
f 25//247 101//247 103//247
f 25//248 24//248 101//248
f 28//249 104//249 106//249
f 28//250 25//250 104//250
f 30//251 108//251 109//251
f 30//252 106//252 108//252
f 30//253 28//253 106//253
f 31//254 109//254 111//254
f 31//255 30//255 109//255
f 34//256 111//256 113//256
f 34//257 31//257 111//257
f 35//258 115//258 116//258
f 35//259 113//259 115//259
f 35//260 34//260 113//260
f 38//261 116//261 118//261
f 38//262 35//262 116//262
f 39//263 118//263 120//263
f 39//264 38//264 118//264
f 42//265 120//265 122//265
f 42//266 39//266 120//266
f 44//267 124//267 125//267
f 44//268 122//268 124//268
f 44//269 42//269 122//269
f 46//270 125//270 127//270
f 46//271 44//271 125//271
f 48//272 127//272 129//272
f 48//273 46//273 127//273
f 50//274 129//274 131//274
f 50//275 48//275 129//275
f 52//276 50//276 131//276
f 52//277 131//277 133//277
f 54//278 52//278 133//278
f 54//279 133//279 135//279
f 56//280 135//280 137//280
f 56//281 54//281 135//281
f 58//282 56//282 137//282
f 58//283 137//283 139//283
f 60//284 139//284 141//284
f 60//285 58//285 139//285
f 62//286 141//286 143//286
f 62//287 60//287 141//287
f 63//288 143//288 145//288
f 63//289 62//289 143//289
f 66//290 145//290 147//290
f 66//291 63//291 145//291
f 68//292 147//292 149//292
f 68//293 66//293 147//293
f 69//294 149//294 151//294
f 69//295 68//295 149//295
f 72//296 69//296 151//296
f 153//297 154//297 151//297
f 151//298 154//298 72//298
f 155//299 153//299 152//299
f 152//300 153//300 151//300
f 156//301 157//301 158//301
f 159//302 156//302 158//302
f 159//303 75//303 156//303
f 160//304 156//304 75//304
f 160//305 161//305 162//305
f 74//306 161//306 160//306
f 74//307 160//307 75//307
f 1//308 75//308 159//308
f 163//309 74//309 2//309
f 163//310 161//310 74//310
f 159//311 163//311 2//311
f 159//312 2//312 1//312
f 161//313 158//313 157//313
f 161//314 157//314 162//314
f 164//315 157//315 156//315
f 164//316 156//316 165//316
f 166//317 164//317 165//317
f 167//318 165//318 168//318
f 167//319 166//319 165//319
f 169//320 168//320 170//320
f 169//321 167//321 168//321
f 171//322 169//322 170//322
f 172//323 170//323 173//323
f 172//324 171//324 170//324
f 174//325 173//325 175//325
f 174//326 172//326 173//326
f 176//327 175//327 177//327
f 176//328 174//328 175//328
f 178//329 176//329 177//329
f 178//330 177//330 179//330
f 180//331 178//331 179//331
f 181//332 179//332 182//332
f 181//333 180//333 179//333
f 183//334 182//334 184//334
f 183//335 181//335 182//335
f 185//336 184//336 186//336
f 185//337 183//337 184//337
f 187//338 186//338 188//338
f 187//339 185//339 186//339
f 189//340 187//340 188//340
f 190//341 188//341 191//341
f 190//342 189//342 188//342
f 192//343 190//343 191//343
f 193//344 191//344 194//344
f 193//345 192//345 191//345
f 195//346 194//346 196//346
f 195//347 193//347 194//347
f 197//348 195//348 196//348
f 198//349 196//349 199//349
f 198//350 197//350 196//350
f 200//351 199//351 201//351
f 200//352 198//352 199//352
f 202//353 201//353 203//353
f 202//354 200//354 201//354
f 204//355 202//355 203//355
f 205//356 203//356 206//356
f 205//357 204//357 203//357
f 207//358 206//358 208//358
f 207//359 205//359 206//359
f 209//360 208//360 210//360
f 209//361 207//361 208//361
f 211//362 210//362 212//362
f 211//363 209//363 210//363
f 213//364 211//364 212//364
f 214//365 212//365 215//365
f 214//366 213//366 212//366
f 216//367 215//367 217//367
f 216//368 214//368 215//368
f 218//369 217//369 219//369
f 218//370 216//370 217//370
f 220//371 219//371 221//371
f 220//372 218//372 219//372
f 222//373 220//373 221//373
f 222//374 221//374 223//374
f 224//375 222//375 223//375
f 224//376 223//376 225//376
f 226//377 224//377 225//377
f 226//378 225//378 227//378
f 228//379 226//379 227//379
f 228//380 227//380 229//380
f 230//381 228//381 229//381
f 230//382 229//382 231//382
f 232//383 230//383 231//383
f 232//384 231//384 233//384
f 234//385 232//385 233//385
f 234//386 233//386 235//386
f 236//387 234//387 235//387
f 236//388 235//388 237//388
f 238//389 236//389 237//389
f 238//390 237//390 239//390
f 240//391 238//391 239//391
f 240//392 239//392 241//392
f 165//393 156//393 160//393
f 165//394 160//394 242//394
f 165//395 242//395 243//395
f 168//396 165//396 243//396
f 170//397 243//397 244//397
f 170//398 168//398 243//398
f 173//399 244//399 245//399
f 173//400 245//400 246//400
f 173//401 170//401 244//401
f 175//402 173//402 246//402
f 177//403 246//403 247//403
f 177//404 247//404 248//404
f 177//405 175//405 246//405
f 179//406 177//406 248//406
f 182//407 179//407 248//407
f 182//408 248//408 249//408
f 182//409 249//409 250//409
f 184//410 182//410 250//410
f 186//411 184//411 250//411
f 186//412 250//412 251//412
f 188//413 251//413 252//413
f 188//414 252//414 253//414
f 188//415 186//415 251//415
f 191//416 253//416 254//416
f 191//417 188//417 253//417
f 194//418 254//418 255//418
f 194//419 191//419 254//419
f 196//420 255//420 256//420
f 196//421 194//421 255//421
f 199//422 196//422 256//422
f 201//423 256//423 257//423
f 201//424 257//424 258//424
f 201//425 199//425 256//425
f 203//426 201//426 258//426
f 206//427 258//427 259//427
f 206//428 203//428 258//428
f 208//429 259//429 260//429
f 208//430 206//430 259//430
f 210//431 260//431 261//431
f 210//432 208//432 260//432
f 212//433 261//433 262//433
f 212//434 210//434 261//434
f 215//435 262//435 263//435
f 215//436 263//436 264//436
f 215//437 212//437 262//437
f 217//438 264//438 265//438
f 217//439 215//439 264//439
f 219//440 217//440 265//440
f 221//441 265//441 266//441
f 221//442 219//442 265//442
f 223//443 266//443 267//443
f 223//444 221//444 266//444
f 225//445 267//445 268//445
f 225//446 268//446 269//446
f 225//447 223//447 267//447
f 227//448 225//448 269//448
f 229//449 269//449 270//449
f 229//450 270//450 271//450
f 229//451 227//451 269//451
f 231//452 271//452 272//452
f 231//453 229//453 271//453
f 233//454 231//454 272//454
f 235//455 272//455 273//455
f 235//456 273//456 274//456
f 235//457 233//457 272//457
f 237//458 235//458 274//458
f 237//459 274//459 275//459
f 239//460 237//460 275//460
f 241//461 239//461 275//461
f 241//462 275//462 276//462
f 160//463 162//463 277//463
f 242//464 160//464 277//464
f 243//465 277//465 278//465
f 243//466 242//466 277//466
f 244//467 278//467 279//467
f 244//468 243//468 278//468
f 245//469 279//469 280//469
f 245//470 244//470 279//470
f 246//471 280//471 281//471
f 246//472 245//472 280//472
f 247//473 281//473 282//473
f 247//474 282//474 283//474
f 247//475 246//475 281//475
f 248//476 247//476 283//476
f 248//477 283//477 284//477
f 249//478 248//478 284//478
f 250//479 284//479 285//479
f 250//480 249//480 284//480
f 251//481 250//481 285//481
f 251//482 285//482 286//482
f 252//483 286//483 287//483
f 252//484 251//484 286//484
f 253//485 287//485 288//485
f 253//486 288//486 289//486
f 253//487 252//487 287//487
f 254//488 289//488 290//488
f 254//489 253//489 289//489
f 255//490 290//490 291//490
f 255//491 254//491 290//491
f 256//492 291//492 292//492
f 256//493 255//493 291//493
f 257//494 292//494 293//494
f 257//495 256//495 292//495
f 258//496 257//496 293//496
f 259//497 293//497 294//497
f 259//498 258//498 293//498
f 260//499 294//499 295//499
f 260//500 259//500 294//500
f 261//501 295//501 296//501
f 261//502 260//502 295//502
f 262//503 296//503 297//503
f 262//504 297//504 298//504
f 262//505 261//505 296//505
f 263//506 262//506 298//506
f 264//507 298//507 299//507
f 264//508 263//508 298//508
f 265//509 299//509 300//509
f 265//510 264//510 299//510
f 266//511 300//511 301//511
f 266//512 265//512 300//512
f 267//513 301//513 302//513
f 267//514 266//514 301//514
f 268//515 302//515 303//515
f 268//516 267//516 302//516
f 269//517 303//517 304//517
f 269//518 268//518 303//518
f 270//519 304//519 305//519
f 270//520 305//520 306//520
f 270//521 269//521 304//521
f 271//522 270//522 306//522
f 272//523 306//523 307//523
f 272//524 307//524 308//524
f 272//525 271//525 306//525
f 273//526 272//526 308//526
f 273//527 308//527 309//527
f 274//528 273//528 309//528
f 275//529 274//529 309//529
f 275//530 309//530 310//530
f 276//531 275//531 310//531
f 276//532 310//532 311//532
f 162//533 157//533 164//533
f 277//534 166//534 167//534
f 277//535 164//535 166//535
f 277//536 162//536 164//536
f 278//537 167//537 169//537
f 278//538 277//538 167//538
f 279//539 171//539 172//539
f 279//540 169//540 171//540
f 279//541 278//541 169//541
f 280//542 279//542 172//542
f 280//543 172//543 174//543
f 281//544 280//544 174//544
f 281//545 174//545 176//545
f 282//546 281//546 176//546
f 282//547 176//547 178//547
f 283//548 282//548 178//548
f 283//549 180//549 181//549
f 283//550 178//550 180//550
f 284//551 283//551 181//551
f 284//552 181//552 183//552
f 285//553 284//553 183//553
f 285//554 183//554 185//554
f 286//555 285//555 185//555
f 286//556 185//556 187//556
f 287//557 286//557 187//557
f 287//558 189//558 190//558
f 287//559 187//559 189//559
f 288//560 287//560 190//560
f 288//561 192//561 193//561
f 288//562 190//562 192//562
f 289//563 288//563 193//563
f 289//564 193//564 195//564
f 290//565 289//565 195//565
f 290//566 197//566 198//566
f 290//567 195//567 197//567
f 291//568 290//568 198//568
f 291//569 198//569 200//569
f 292//570 200//570 202//570
f 292//571 291//571 200//571
f 293//572 292//572 202//572
f 293//573 204//573 205//573
f 293//574 202//574 204//574
f 294//575 205//575 207//575
f 294//576 293//576 205//576
f 295//577 207//577 209//577
f 295//578 294//578 207//578
f 296//579 209//579 211//579
f 296//580 295//580 209//580
f 297//581 213//581 214//581
f 297//582 211//582 213//582
f 297//583 296//583 211//583
f 298//584 214//584 216//584
f 298//585 297//585 214//585
f 299//586 216//586 218//586
f 299//587 298//587 216//587
f 300//588 218//588 220//588
f 300//589 299//589 218//589
f 301//590 220//590 222//590
f 301//591 300//591 220//591
f 302//592 301//592 222//592
f 302//593 222//593 224//593
f 303//594 302//594 224//594
f 303//595 224//595 226//595
f 304//596 303//596 226//596
f 304//597 226//597 228//597
f 305//598 304//598 228//598
f 305//599 228//599 230//599
f 306//600 305//600 230//600
f 306//601 230//601 232//601
f 307//602 306//602 232//602
f 307//603 232//603 234//603
f 308//604 307//604 234//604
f 308//605 234//605 236//605
f 309//606 308//606 236//606
f 309//607 236//607 238//607
f 310//608 238//608 240//608
f 310//609 309//609 238//609
f 311//610 310//610 240//610
f 312//611 313//611 240//611
f 240//612 313//612 311//612
f 314//613 312//613 241//613
f 241//614 312//614 240//614
f 315//615 155//615 71//615
f 71//616 155//616 152//616
f 154//617 315//617 72//617
f 72//618 315//618 71//618
f 154//619 153//619 315//619
f 315//620 153//620 155//620
f 316//621 314//621 276//621
f 276//622 314//622 241//622
f 313//623 316//623 311//623
f 311//624 316//624 276//624
f 316//625 313//625 314//625
f 314//626 313//626 312//626
f 158//627 317//627 318//627
f 158//628 161//628 317//628
f 161//629 319//629 317//629
f 161//630 163//630 319//630
f 163//631 320//631 319//631
f 163//632 159//632 320//632
f 159//633 318//633 320//633
f 159//634 158//634 318//634
f 317//635 319//635 318//635
f 318//636 319//636 320//636
