# Created by FreeCAD <https://www.freecad.org>
v -0.22 0.09949856000000001 1.18445045
v -0.21554958 0.09949856000000001 1.18
v -0.22 0.1 1.18
v -0.21407589000000002 0.09892595 1.18259102
v -0.21132233 0.09801938 1.18
v -0.20828496999999999 0.09572796 1.18392296
v -0.20436337000000002 0.0924698 1.18
v -0.20753021000000002 0.09563663 1.18
v -0.217409 0.09892595 1.18592407
v -0.22 0.09801938 1.1886776700000001
v -0.20363382000000002 0.09068407 1.18424255
v -0.20198063000000002 0.08867768 1.18
v -0.21170777999999998 0.09620119 1.18829224
v -0.20090630999999998 0.08437722000000002 1.18403381
v -0.20198063000000002 0.08 1.1886776700000001
v -0.20050144 0.08 1.18445045
v -0.2 0.08 1.18
v -0.20050144 0.08445043 1.18
v -0.20662596 0.09167309 1.18921272
v -0.21607708 0.09572796 1.19171501
v -0.22 0.09563663 1.19246979
v -0.22 0.0924698 1.1956366
v -0.20310825000000002 0.08576984 1.189021
v -0.20436337000000002 0.08 1.19246979
v -0.2107873 0.09167309 1.19337402
v -0.20656563 0.08624785 1.19343437
v -0.20753021000000002 0.08 1.1956366
v -0.21575747 0.09068407 1.1963662
v -0.22 0.08867768 1.1980194100000001
v -0.21097902000000002 0.08576984 1.19689171
v -0.21132233 0.08 1.1980194100000001
v -0.21596622000000001 0.08437722000000002 1.1990937
v -0.22 0.08445043 1.1994986
v -0.22 0.08 1.2
v -0.21554958 0.08 1.1994986
v -0.21554958 0.09949856000000001 1.07
v -0.22 0.09949856000000001 1.06554955
v -0.22 0.1 1.07
v -0.217409 0.09892595 1.06407593
v -0.22 0.09801938 1.06132233
v -0.21607708 0.09572796 1.05828499
v -0.22 0.0924698 1.0543634
v -0.22 0.09563663 1.0575302100000001
v -0.21407589000000002 0.09892595 1.06740898
v -0.21132233 0.09801938 1.07
v -0.21575747 0.09068407 1.0536338
v -0.22 0.08867768 1.05198059
v -0.21170777999999998 0.09620119 1.06170776
v -0.21596622000000001 0.08437722000000002 1.0509063
v -0.21132233 0.08 1.05198059
v -0.21554958 0.08 1.0505014
v -0.22 0.08 1.05
v -0.22 0.08445043 1.0505014
v -0.2107873 0.09167309 1.05662598
v -0.20828496999999999 0.09572796 1.06607704
v -0.20753021000000002 0.09563663 1.07
v -0.20436337000000002 0.0924698 1.07
v -0.21097902000000002 0.08576984 1.05310829
v -0.20753021000000002 0.08 1.0543634
v -0.20662596 0.09167309 1.06078728
v -0.20656563 0.08624785 1.0565656300000001
v -0.20436337000000002 0.08 1.0575302100000001
v -0.20363382000000002 0.09068407 1.06575745
v -0.20198063000000002 0.08867768 1.07
v -0.20310825000000002 0.08576984 1.060979
v -0.20198063000000002 0.08 1.06132233
v -0.20090630999999998 0.08437722000000002 1.0659661900000001
v -0.20050144 0.08445043 1.07
v -0.2 0.08 1.07
v -0.20050144 0.08 1.06554955
v -0.2003405 -0.03337276 1.18145905
v -0.2 -0.03 1.18
v -0.20050144 -0.03 1.18445045
v -0.20050144 -0.03445041 1.18
v -0.20183565000000003 -0.03518208 1.18657288
v -0.20198063000000002 -0.03 1.1886776700000001
v -0.20198063000000002 -0.038677670000000004 1.18
v -0.20266183999999998 -0.03984225 1.18158691
v -0.20436337000000002 -0.04246979 1.18
v -0.20469645 -0.036127690000000004 1.19132484
v -0.20436337000000002 -0.03 1.19246979
v -0.20496487 -0.041298800000000004 1.18680305
v -0.20867514 -0.036127690000000004 1.1953035699999999
v -0.20753021000000002 -0.03 1.1956366
v -0.21132233 -0.03 1.1980194100000001
v -0.20702507 -0.045146069999999996 1.18149925
v -0.21132233 -0.04801938 1.18
v -0.20753021000000002 -0.045636630000000004 1.18
v -0.20858095 -0.041798760000000004 1.19141907
v -0.21342716 -0.03518208 1.19816437
v -0.21554958 -0.03 1.1994986
v -0.22 -0.03445041 1.1994986
v -0.22 -0.038677670000000004 1.1980194100000001
v -0.20985727 -0.046082229999999995 1.18620377
v -0.21319695 -0.041298800000000004 1.1950351700000001
v -0.21854095 -0.03337276 1.1996595
v -0.22 -0.03 1.2
v -0.21379622 -0.046082229999999995 1.19014275
v -0.21841309 -0.03984225 1.19733818
v -0.22 -0.04246979 1.1956366
v -0.21564177999999998 -0.049026610000000005 1.18435822
v -0.22 -0.04801938 1.1886776700000001
v -0.22 -0.04949855 1.18445045
v -0.22 -0.05 1.18
v -0.21554958 -0.04949855 1.18
v -0.21850072999999998 -0.045146069999999996 1.19297493
v -0.22 -0.045636630000000004 1.19246979
v -0.7000000000000001 -0.04949855 1.18445045
v -0.7000000000000001 -0.05 1.18
v -0.7000000000000001 -0.04801938 1.1886776700000001
v -0.7000000000000001 -0.045636630000000004 1.19246979
v -0.7000000000000001 -0.04246979 1.1956366
v -0.7000000000000001 -0.038677670000000004 1.1980194100000001
v -0.7000000000000001 -0.03445041 1.1994986
v -0.7000000000000001 -0.03 1.2
v -0.21854095 -0.03337276 1.0503405
v -0.22 -0.03445041 1.0505014
v -0.22 -0.03 1.05
v -0.21554958 -0.03 1.0505014
v -0.21342716 -0.03518208 1.05183563
v -0.22 -0.038677670000000004 1.05198059
v -0.21132233 -0.03 1.05198059
v -0.21841309 -0.03984225 1.05266182
v -0.22 -0.04246979 1.0543634
v -0.20867514 -0.036127690000000004 1.0546964300000001
v -0.20753021000000002 -0.03 1.0543634
v -0.20436337000000002 -0.03 1.0575302100000001
v -0.21319695 -0.041298800000000004 1.05496483
v -0.20469645 -0.036127690000000004 1.05867516
v -0.20198063000000002 -0.03 1.06132233
v -0.21850072999999998 -0.045146069999999996 1.05702507
v -0.22 -0.04801938 1.06132233
v -0.22 -0.045636630000000004 1.0575302100000001
v -0.20858095 -0.041798760000000004 1.05858093
v -0.20183565000000003 -0.03518208 1.06342712
v -0.20050144 -0.03445041 1.07
v -0.20198063000000002 -0.038677670000000004 1.07
v -0.20050144 -0.03 1.06554955
v -0.21379622 -0.046082229999999995 1.05985725
v -0.20496487 -0.041298800000000004 1.06319695
v -0.2003405 -0.03337276 1.06854095
v -0.2 -0.03 1.07
v -0.20985727 -0.046082229999999995 1.06379623
v -0.20266183999999998 -0.03984225 1.06841309
v -0.20436337000000002 -0.04246979 1.07
v -0.21564177999999998 -0.049026610000000005 1.06564178
v -0.21132233 -0.04801938 1.07
v -0.21554958 -0.04949855 1.07
v -0.22 -0.05 1.07
v -0.22 -0.04949855 1.06554955
v -0.20702507 -0.045146069999999996 1.06850075
v -0.20753021000000002 -0.045636630000000004 1.07
v -0.5 -0.05 1.07
v -0.5 -0.04949855 1.06554955
v -0.5 -0.04801938 1.06132233
v -0.5 -0.045636630000000004 1.0575302100000001
v -0.5 -0.04246979 1.0543634
v -0.5 -0.038677670000000004 1.05198059
v -0.5 -0.03445041 1.0505014
v -0.5 -0.03 1.05
v -0.5 0.1 1.07
v -0.5 0.09949856000000001 1.06554955
v -0.5 0.09801938 1.06132233
v -0.5 0.09563663 1.0575302100000001
v -0.5 0.0924698 1.0543634
v -0.5 0.08867768 1.05198059
v -0.5 0.08445043 1.0505014
v -0.5 0.08 1.05
v -0.5 0.09949856000000001 1.18445045
v -0.5 0.09801938 1.1886776700000001
v -0.5 0.1 1.18
v -0.5 0.09563663 1.19246979
v -0.5 0.0924698 1.1956366
v -0.5 0.08867768 1.1980194100000001
v -0.5 0.08445043 1.1994986
v -0.5 0.08 1.2
v -0.7000000000000001 -0.05 1.05
v -0.5 -0.05 1.05
v -0.7000000000000001 0.17438356 1.06254532
v -0.7000000000000001 0.17438356 0.91254532
v -0.7000000000000001 0.1 1.2
v -0.7000000000000001 0.38919968 0.91254532
v -0.7000000000000001 0.38919968 1.06254532
v -0.5 0.1 1.2
v -0.5 0.17438356 0.91254532
v -0.5 0.38919968 0.91254532
v -0.5 0.38919968 1.06254532
v -0.5 0.17438356 1.06254532
vn 0.111269 0.987542 0.111268
vn 0.330207 0.943681 0.020738
vn 0.702103 0.702106 0.118737
vn 0.530225 0.843847 0.082368
vn 0.446829 0.878824 0.167368
vn 0.020746 0.943680 0.330210
vn 0.138161 0.980726 0.138160
vn 0.138156 0.980727 0.138158
vn 0.844139 0.530406 0.078096
vn 0.720598 0.674629 0.160044
vn 0.304705 0.902389 0.304711
vn 0.426515 0.872151 0.239663
vn 0.937297 0.117914 0.327979
vn 0.988526 0.102036 0.111379
vn 0.988606 0.111389 0.101248
vn 0.939130 0.328617 0.100224
vn 0.906450 0.386367 0.170495
vn 0.695024 0.659108 0.287261
vn 0.578153 0.724961 0.374395
vn 0.082372 0.843847 0.530224
vn 0.118742 0.702101 0.702107
vn 0.167374 0.878824 0.446827
vn 0.239658 0.872151 0.426516
vn 0.839244 0.132639 0.527330
vn 0.797257 0.462481 0.387934
vn 0.918855 0.158062 0.361555
vn 0.882957 0.372389 0.285857
vn 0.515906 0.683870 0.515911
vn 0.374391 0.724959 0.578157
vn 0.700266 0.138719 0.700275
vn 0.735591 0.421100 0.530642
vn 0.783301 0.184449 0.593649
vn 0.617451 0.487341 0.617457
vn 0.078091 0.530418 0.844132
vn 0.160037 0.674633 0.720596
vn 0.287263 0.659111 0.695020
vn 0.527341 0.132650 0.839235
vn 0.593643 0.184447 0.783305
vn 0.530637 0.421100 0.735595
vn 0.387940 0.462477 0.797256
vn 0.100229 0.328617 0.939130
vn 0.101253 0.111381 0.988606
vn 0.111372 0.102039 0.988526
vn 0.327976 0.117918 0.937298
vn 0.170500 0.386367 0.906449
vn 0.361559 0.158074 0.918851
vn 0.285865 0.372387 0.882955
vn 0.111269 0.987542 -0.111268
vn 0.020746 0.943680 -0.330210
vn 0.118742 0.702101 -0.702107
vn 0.082372 0.843847 -0.530224
vn 0.167374 0.878824 -0.446827
vn 0.330207 0.943681 -0.020738
vn 0.138158 0.980727 -0.138157
vn 0.138159 0.980726 -0.138162
vn 0.078091 0.530418 -0.844132
vn 0.160037 0.674633 -0.720596
vn 0.304705 0.902389 -0.304711
vn 0.239658 0.872151 -0.426516
vn 0.327976 0.117918 -0.937298
vn 0.111372 0.102039 -0.988526
vn 0.101253 0.111381 -0.988606
vn 0.100229 0.328617 -0.939130
vn 0.170500 0.386367 -0.906449
vn 0.374391 0.724959 -0.578157
vn 0.287263 0.659111 -0.695020
vn 0.530225 0.843847 -0.082368
vn 0.702103 0.702106 -0.118737
vn 0.446829 0.878824 -0.167368
vn 0.426515 0.872150 -0.239663
vn 0.527341 0.132650 -0.839235
vn 0.387940 0.462477 -0.797256
vn 0.361559 0.158074 -0.918851
vn 0.285865 0.372387 -0.882955
vn 0.515906 0.683870 -0.515911
vn 0.578153 0.724961 -0.374395
vn 0.700266 0.138719 -0.700275
vn 0.530637 0.421100 -0.735595
vn 0.593643 0.184447 -0.783305
vn 0.617451 0.487341 -0.617457
vn 0.844139 0.530406 -0.078096
vn 0.720598 0.674629 -0.160044
vn 0.695024 0.659108 -0.287261
vn 0.839244 0.132639 -0.527330
vn 0.783301 0.184449 -0.593649
vn 0.735591 0.421100 -0.530642
vn 0.797257 0.462481 -0.387934
vn 0.939130 0.328617 -0.100224
vn 0.988606 0.111389 -0.101248
vn 0.988526 0.102036 -0.111379
vn 0.937297 0.117914 -0.327979
vn 0.906450 0.386367 -0.170495
vn 0.918855 0.158062 -0.361555
vn 0.882957 0.372389 -0.285857
vn 0.992377 -0.051816 0.111813
vn 0.993352 -0.111924 -0.026906
vn 0.938451 -0.107124 0.328382
vn 0.932769 -0.326391 0.153007
vn 0.961650 -0.154881 0.226363
vn 0.927635 -0.341940 0.150234
vn 0.846418 -0.531837 -0.026956
vn 0.930389 -0.331763 0.155917
vn 0.837910 -0.143919 0.526492
vn 0.858707 -0.172044 0.482726
vn 0.863440 -0.431914 0.260618
vn 0.817401 -0.402666 0.411966
vn 0.775742 -0.606861 0.173045
vn 0.697038 -0.168120 0.697046
vn 0.526505 -0.143912 0.837903
vn 0.697045 -0.168128 0.697038
vn 0.529507 -0.842704 0.097326
vn 0.707088 -0.707092 -0.006878
vn 0.745572 -0.642619 0.176533
vn 0.639310 -0.427286 0.639304
vn 0.714665 -0.481088 0.507748
vn 0.328380 -0.107128 0.938451
vn 0.153011 -0.326391 0.932768
vn 0.482720 -0.172048 0.858709
vn 0.659486 -0.706635 0.256408
vn 0.612745 -0.677648 0.406616
vn 0.515441 -0.845053 0.142146
vn 0.507750 -0.481089 0.714663
vn 0.411964 -0.402663 0.817404
vn 0.111806 -0.051820 0.992378
vn -0.026886 -0.111916 0.993354
vn 0.226360 -0.154886 0.961651
vn 0.150242 -0.341919 0.927642
vn 0.482428 -0.731116 0.482423
vn 0.406619 -0.677648 0.612743
vn -0.026958 -0.531849 0.846410
vn 0.155923 -0.331768 0.930386
vn 0.173038 -0.606870 0.775737
vn 0.260616 -0.431911 0.863442
vn 0.108557 -0.938305 0.328329
vn 0.109318 -0.987757 0.111293
vn 0.111294 -0.987757 0.109317
vn 0.328327 -0.938306 0.108554
vn 0.186579 -0.898331 0.397730
vn 0.397731 -0.898330 0.186580
vn 0.338734 -0.877793 0.338731
vn -0.006881 -0.707087 0.707093
vn 0.097325 -0.842704 0.529507
vn 0.142144 -0.845053 0.515441
vn 0.176524 -0.642616 0.745576
vn 0.256405 -0.706636 0.659486
vn 0.000000 -0.993712 0.111964
vn 0.000000 -0.943883 0.330281
vn 0.000000 -0.993712 0.111964
vn 0.000000 -0.943883 0.330281
vn 0.000000 -0.707104 0.707109
vn 0.000000 -0.846723 0.532033
vn 0.000000 -0.846723 0.532033
vn 0.000000 -0.707104 0.707109
vn 0.000000 -0.532042 0.846718
vn 0.000000 -0.532042 0.846718
vn 0.000000 -0.330280 0.943883
vn 0.000000 -0.330280 0.943883
vn 0.000000 -0.111956 0.993713
vn 0.000000 -0.111956 0.993713
vn -0.026886 -0.111916 -0.993354
vn 0.111806 -0.051820 -0.992378
vn 0.153011 -0.326391 -0.932768
vn 0.328380 -0.107128 -0.938451
vn 0.150242 -0.341919 -0.927642
vn 0.226360 -0.154886 -0.961651
vn -0.026958 -0.531849 -0.846410
vn 0.155923 -0.331768 -0.930386
vn 0.526505 -0.143912 -0.837903
vn 0.697038 -0.168120 -0.697046
vn 0.482720 -0.172048 -0.858709
vn 0.411964 -0.402663 -0.817404
vn 0.173038 -0.606870 -0.775737
vn 0.260616 -0.431911 -0.863442
vn 0.837910 -0.143919 -0.526492
vn 0.697045 -0.168128 -0.697038
vn 0.097325 -0.842704 -0.529507
vn -0.006881 -0.707087 -0.707093
vn 0.176524 -0.642616 -0.745576
vn 0.639310 -0.427286 -0.639304
vn 0.507750 -0.481089 -0.714663
vn 0.932769 -0.326391 -0.153007
vn 0.938451 -0.107124 -0.328382
vn 0.858707 -0.172044 -0.482726
vn 0.256405 -0.706636 -0.659486
vn 0.406619 -0.677648 -0.612743
vn 0.142144 -0.845053 -0.515441
vn 0.714665 -0.481088 -0.507748
vn 0.817401 -0.402666 -0.411966
vn 0.993352 -0.111924 0.026906
vn 0.992377 -0.051816 -0.111813
vn 0.961650 -0.154881 -0.226363
vn 0.927635 -0.341940 -0.150234
vn 0.612745 -0.677648 -0.406616
vn 0.482428 -0.731116 -0.482423
vn 0.846418 -0.531837 0.026956
vn 0.930389 -0.331763 -0.155917
vn 0.775742 -0.606861 -0.173045
vn 0.863440 -0.431914 -0.260618
vn 0.328327 -0.938306 -0.108554
vn 0.111294 -0.987757 -0.109317
vn 0.109318 -0.987757 -0.111293
vn 0.108557 -0.938305 -0.328329
vn 0.397731 -0.898330 -0.186580
vn 0.186579 -0.898331 -0.397730
vn 0.338734 -0.877793 -0.338731
vn 0.707088 -0.707092 0.006878
vn 0.529507 -0.842704 -0.097326
vn 0.515441 -0.845053 -0.142146
vn 0.745572 -0.642619 -0.176533
vn 0.659486 -0.706635 -0.256408
vn -0.000000 -0.993712 -0.111964
vn -0.000000 -0.943883 -0.330281
vn -0.000000 -0.993712 -0.111964
vn -0.000000 -0.846723 -0.532033
vn -0.000000 -0.943883 -0.330281
vn -0.000000 -0.707104 -0.707109
vn -0.000000 -0.846723 -0.532033
vn -0.000000 -0.532042 -0.846718
vn -0.000000 -0.707104 -0.707109
vn -0.000000 -0.330280 -0.943883
vn -0.000000 -0.532042 -0.846718
vn -0.000000 -0.111956 -0.993713
vn -0.000000 -0.330280 -0.943883
vn -0.000000 -0.111956 -0.993713
vn 0.993712 0.000000 -0.111964
vn 0.943882 0.000000 -0.330283
vn 0.993712 0.000000 -0.111964
vn 0.846725 0.000000 -0.532031
vn 0.943882 0.000000 -0.330283
vn 0.707103 0.000000 -0.707111
vn 0.846725 0.000000 -0.532031
vn 0.532043 0.000000 -0.846717
vn 0.707103 0.000000 -0.707111
vn 0.330280 0.000000 -0.943883
vn 0.532043 0.000000 -0.846717
vn 0.330280 0.000000 -0.943883
vn 0.111956 0.000000 -0.993713
vn 0.111956 0.000000 -0.993713
vn 0.111965 -0.993712 0.000000
vn 0.330278 -0.943884 0.000000
vn 0.111965 -0.993712 0.000000
vn 0.532033 -0.846723 0.000000
vn 0.330278 -0.943884 0.000000
vn 0.707105 -0.707108 0.000000
vn 0.532033 -0.846723 0.000000
vn 0.707105 -0.707108 0.000000
vn 0.943883 -0.330280 0.000000
vn 0.846725 -0.532030 0.000000
vn 0.846725 -0.532030 0.000000
vn 0.993712 -0.111965 0.000000
vn 0.943883 -0.330280 0.000000
vn 0.993712 -0.111965 0.000000
vn 0.111956 0.000000 0.993713
vn 0.330280 0.000000 0.943883
vn 0.111956 0.000000 0.993713
vn 0.532043 0.000000 0.846717
vn 0.330280 0.000000 0.943883
vn 0.707103 0.000000 0.707111
vn 0.532043 0.000000 0.846717
vn 0.846725 0.000000 0.532031
vn 0.707103 0.000000 0.707111
vn 0.943882 0.000000 0.330283
vn 0.846725 0.000000 0.532031
vn 0.943882 0.000000 0.330283
vn 0.993712 0.000000 0.111964
vn 0.993712 0.000000 0.111964
vn 0.000000 0.993712 -0.111964
vn 0.000000 0.943883 -0.330281
vn 0.000000 0.993712 -0.111964
vn 0.000000 0.846724 -0.532032
vn 0.000000 0.943883 -0.330281
vn 0.000000 0.707104 -0.707110
vn 0.000000 0.846724 -0.532032
vn 0.000000 0.707104 -0.707110
vn 0.000000 0.330280 -0.943883
vn 0.000000 0.532043 -0.846717
vn 0.000000 0.532043 -0.846717
vn 0.000000 0.111956 -0.993713
vn 0.000000 0.330280 -0.943883
vn 0.000000 0.111956 -0.993713
vn 0.111965 0.993712 -0.000000
vn 0.330278 0.943884 -0.000000
vn 0.111965 0.993712 -0.000000
vn 0.532032 0.846724 -0.000000
vn 0.330278 0.943884 -0.000000
vn 0.707106 0.707108 -0.000000
vn 0.532032 0.846724 -0.000000
vn 0.707106 0.707108 -0.000000
vn 0.943883 0.330280 -0.000000
vn 0.846725 0.532031 -0.000000
vn 0.846725 0.532031 0.000000
vn 0.993712 0.111964 -0.000000
vn 0.943883 0.330280 -0.000000
vn 0.993712 0.111964 -0.000000
vn 0.000000 0.943883 0.330281
vn 0.000000 0.993712 0.111964
vn 0.000000 0.993712 0.111964
vn 0.000000 0.943883 0.330281
vn 0.000000 0.846724 0.532032
vn 0.000000 0.846724 0.532032
vn 0.000000 0.707104 0.707110
vn 0.000000 0.707104 0.707110
vn 0.000000 0.532043 0.846717
vn 0.000000 0.532043 0.846717
vn 0.000000 0.330280 0.943883
vn 0.000000 0.330280 0.943883
vn 0.000000 0.111956 0.993713
vn 0.000000 0.111956 0.993713
vn 0.000000 -1.000000 -0.000000
vn 0.000000 -1.000000 -0.000000
vn -0.000000 -1.000000 0.000000
vn -0.000000 -1.000000 0.000000
vn -1.000000 0.000000 0.000000
vn -1.000000 0.000000 0.000000
vn -1.000000 0.000000 0.000000
vn -1.000000 0.000000 0.000000
vn -1.000000 0.000000 0.000000
vn -1.000000 0.000000 0.000000
vn -1.000000 0.000000 -0.000000
vn -1.000000 0.000000 0.000000
vn -1.000000 -0.000000 0.000000
vn -1.000000 0.000000 -0.000000
vn -1.000000 0.000000 0.000000
vn -1.000000 -0.000000 -0.000000
vn 0.000000 0.000000 1.000000
vn 0.000000 0.000000 1.000000
vn 0.000000 0.000000 1.000000
vn 0.000000 0.000000 1.000000
vn 1.000000 0.000000 -0.000000
vn 1.000000 0.000000 0.000000
vn 0.000000 -0.522367 -0.852721
vn 0.000000 -0.522367 -0.852721
vn 0.000000 0.000000 -1.000000
vn 0.000000 0.000000 -1.000000
vn 0.000000 1.000000 0.000000
vn 0.000000 1.000000 0.000000
vn -0.000000 0.000000 1.000000
vn 0.000000 0.000000 1.000000
vn -0.000000 0.879482 0.475932
vn -0.000000 0.879482 0.475932
vn 1.000000 0.000000 0.000000
vn 1.000000 0.000000 0.000000
vn 1.000000 0.000000 0.000000
vn 1.000000 -0.000000 0.000000
vn 1.000000 0.000000 0.000000
vn 1.000000 0.000000 0.000000
vn 1.000000 0.000000 0.000000
vn 1.000000 0.000000 0.000000
vn 1.000000 0.000000 0.000000
vn 1.000000 0.000000 0.000000
vn 1.000000 0.000000 0.000000
vn 1.000000 0.000000 0.000000
vn 1.000000 0.000000 0.000000
vn 1.000000 0.000000 0.000000
vn 1.000000 0.000000 0.000000
vn 1.000000 0.000000 0.000000
vn 1.000000 0.000000 -0.000000
vn 1.000000 0.000000 -0.000000
vn 1.000000 0.000000 -0.000000
vn 1.000000 0.000000 0.000000
vn 1.000000 0.000000 0.000000
vn 1.000000 0.000000 0.000000
vn 1.000000 0.000000 0.000000
vn 1.000000 0.000000 0.000000
vn 1.000000 0.000000 0.000000
vn 1.000000 0.000000 0.000000
vn 1.000000 0.000000 0.000000
vn 1.000000 0.000000 0.000000
vn 0.000000 0.000000 -1.000000
vn 0.000000 0.000000 -1.000000
vn 0.000000 1.000000 0.000000
vn 0.000000 1.000000 0.000000
f 1//1 2//1 3//1
f 4//2 5//2 2//2
f 6//3 7//3 8//3
f 6//4 8//4 5//4
f 6//5 5//5 4//5
f 9//6 1//6 10//6
f 9//7 2//7 1//7
f 9//8 4//8 2//8
f 11//9 12//9 7//9
f 11//10 7//10 6//10
f 13//11 4//11 9//11
f 13//12 6//12 4//12
f 14//13 15//13 16//13
f 14//14 16//14 17//14
f 14//15 17//15 18//15
f 14//16 18//16 12//16
f 14//17 12//17 11//17
f 19//18 11//18 6//18
f 19//19 6//19 13//19
f 20//20 10//20 21//20
f 20//21 21//21 22//21
f 20//22 9//22 10//22
f 20//23 13//23 9//23
f 23//24 24//24 15//24
f 23//25 11//25 19//25
f 23//26 15//26 14//26
f 23//27 14//27 11//27
f 25//28 19//28 13//28
f 25//29 13//29 20//29
f 26//30 27//30 24//30
f 26//31 23//31 19//31
f 26//32 24//32 23//32
f 26//33 19//33 25//33
f 28//34 22//34 29//34
f 28//35 20//35 22//35
f 28//36 25//36 20//36
f 30//37 31//37 27//37
f 30//38 27//38 26//38
f 30//39 26//39 25//39
f 30//40 25//40 28//40
f 32//41 29//41 33//41
f 32//42 33//42 34//42
f 32//43 34//43 35//43
f 32//44 35//44 31//44
f 32//45 28//45 29//45
f 32//46 31//46 30//46
f 32//47 30//47 28//47
f 36//48 37//48 38//48
f 39//49 40//49 37//49
f 41//50 42//50 43//50
f 41//51 43//51 40//51
f 41//52 40//52 39//52
f 44//53 36//53 45//53
f 44//54 37//54 36//54
f 44//55 39//55 37//55
f 46//56 47//56 42//56
f 46//57 42//57 41//57
f 48//58 39//58 44//58
f 48//59 41//59 39//59
f 49//60 50//60 51//60
f 49//61 51//61 52//61
f 49//62 52//62 53//62
f 49//63 53//63 47//63
f 49//64 47//64 46//64
f 54//65 41//65 48//65
f 54//66 46//66 41//66
f 55//67 45//67 56//67
f 55//68 56//68 57//68
f 55//69 44//69 45//69
f 55//70 48//70 44//70
f 58//71 59//71 50//71
f 58//72 46//72 54//72
f 58//73 50//73 49//73
f 58//74 49//74 46//74
f 60//75 54//75 48//75
f 60//76 48//76 55//76
f 61//77 62//77 59//77
f 61//78 58//78 54//78
f 61//79 59//79 58//79
f 61//80 54//80 60//80
f 63//81 57//81 64//81
f 63//82 55//82 57//82
f 63//83 60//83 55//83
f 65//84 66//84 62//84
f 65//85 62//85 61//85
f 65//86 61//86 60//86
f 65//87 60//87 63//87
f 67//88 64//88 68//88
f 67//89 68//89 69//89
f 67//90 69//90 70//90
f 67//91 70//91 66//91
f 67//92 63//92 64//92
f 67//93 66//93 65//93
f 67//94 65//94 63//94
f 71//95 72//95 73//95
f 71//96 74//96 72//96
f 75//97 73//97 76//97
f 75//98 77//98 74//98
f 75//99 71//99 73//99
f 75//100 74//100 71//100
f 78//101 79//101 77//101
f 78//102 77//102 75//102
f 80//103 76//103 81//103
f 80//104 75//104 76//104
f 82//105 78//105 75//105
f 82//106 75//106 80//106
f 82//107 79//107 78//107
f 83//108 81//108 84//108
f 83//109 84//109 85//109
f 83//110 80//110 81//110
f 86//111 87//111 88//111
f 86//112 88//112 79//112
f 86//113 79//113 82//113
f 89//114 80//114 83//114
f 89//115 82//115 80//115
f 90//116 85//116 91//116
f 90//117 92//117 93//117
f 90//118 83//118 85//118
f 94//119 86//119 82//119
f 94//120 82//120 89//120
f 94//121 87//121 86//121
f 95//122 89//122 83//122
f 95//123 83//123 90//123
f 96//124 91//124 97//124
f 96//125 97//125 92//125
f 96//126 90//126 91//126
f 96//127 92//127 90//127
f 98//128 94//128 89//128
f 98//129 89//129 95//129
f 99//130 93//130 100//130
f 99//131 90//131 93//131
f 99//132 100//132 95//132
f 99//133 95//133 90//133
f 101//134 102//134 103//134
f 101//135 103//135 104//135
f 101//136 104//136 105//136
f 101//137 105//137 87//137
f 101//138 98//138 102//138
f 101//139 87//139 94//139
f 101//140 94//140 98//140
f 106//141 100//141 107//141
f 106//142 107//142 102//142
f 106//143 102//143 98//143
f 106//144 95//144 100//144
f 106//145 98//145 95//145
f 108//146 109//146 104//146
f 108//147 103//147 102//147
f 108//148 104//148 103//148
f 110//149 108//149 102//149
f 111//150 107//150 100//150
f 111//151 102//151 107//151
f 111//152 110//152 102//152
f 112//153 111//153 100//153
f 113//154 100//154 93//154
f 113//155 112//155 100//155
f 114//156 93//156 92//156
f 114//157 113//157 93//157
f 115//158 92//158 97//158
f 115//159 114//159 92//159
f 116//160 117//160 118//160
f 116//161 118//161 119//161
f 120//162 121//162 117//162
f 120//163 119//163 122//163
f 120//164 117//164 116//164
f 120//165 116//165 119//165
f 123//166 124//166 121//166
f 123//167 121//167 120//167
f 125//168 122//168 126//168
f 125//169 126//169 127//169
f 125//170 120//170 122//170
f 128//171 120//171 125//171
f 128//172 124//172 123//172
f 128//173 123//173 120//173
f 129//174 127//174 130//174
f 129//175 125//175 127//175
f 131//176 132//176 133//176
f 131//177 133//177 124//177
f 131//178 124//178 128//178
f 134//179 125//179 129//179
f 134//180 128//180 125//180
f 135//181 136//181 137//181
f 135//182 130//182 138//182
f 135//183 129//183 130//183
f 139//184 131//184 128//184
f 139//185 128//185 134//185
f 139//186 132//186 131//186
f 140//187 134//187 129//187
f 140//188 129//188 135//188
f 141//189 142//189 136//189
f 141//190 138//190 142//190
f 141//191 135//191 138//191
f 141//192 136//192 135//192
f 143//193 134//193 140//193
f 143//194 139//194 134//194
f 144//195 137//195 145//195
f 144//196 135//196 137//196
f 144//197 145//197 140//197
f 144//198 140//198 135//198
f 146//199 147//199 148//199
f 146//200 148//200 149//200
f 146//201 149//201 150//201
f 146//202 150//202 132//202
f 146//203 143//203 147//203
f 146//204 132//204 139//204
f 146//205 139//205 143//205
f 151//206 145//206 152//206
f 151//207 152//207 147//207
f 151//208 147//208 143//208
f 151//209 140//209 145//209
f 151//210 143//210 140//210
f 149//211 153//211 154//211
f 150//212 154//212 155//212
f 150//213 149//213 154//213
f 132//214 155//214 156//214
f 132//215 150//215 155//215
f 133//216 156//216 157//216
f 133//217 132//217 156//217
f 124//218 157//218 158//218
f 124//219 133//219 157//219
f 121//220 158//220 159//220
f 121//221 124//221 158//221
f 117//222 159//222 160//222
f 117//223 121//223 159//223
f 118//224 117//224 160//224
f 69//225 142//225 138//225
f 70//226 138//226 130//226
f 70//227 69//227 138//227
f 66//228 130//228 127//228
f 66//229 70//229 130//229
f 62//230 127//230 126//230
f 62//231 66//231 127//231
f 59//232 126//232 122//232
f 59//233 62//233 126//233
f 50//234 122//234 119//234
f 50//235 59//235 122//235
f 51//236 50//236 119//236
f 52//237 119//237 118//237
f 52//238 51//238 119//238
f 104//239 149//239 148//239
f 105//240 148//240 147//240
f 105//241 104//241 148//241
f 87//242 147//242 152//242
f 87//243 105//243 147//243
f 88//244 152//244 145//244
f 88//245 87//245 152//245
f 79//246 88//246 145//246
f 77//247 137//247 136//247
f 77//248 145//248 137//248
f 77//249 79//249 145//249
f 74//250 136//250 142//250
f 74//251 77//251 136//251
f 72//252 74//252 142//252
f 34//253 97//253 91//253
f 35//254 91//254 85//254
f 35//255 34//255 91//255
f 31//256 85//256 84//256
f 31//257 35//257 85//257
f 27//258 84//258 81//258
f 27//259 31//259 84//259
f 24//260 81//260 76//260
f 24//261 27//261 81//261
f 15//262 76//262 73//262
f 15//263 24//263 76//263
f 16//264 15//264 73//264
f 17//265 73//265 72//265
f 17//266 16//266 73//266
f 161//267 38//267 37//267
f 162//268 37//268 40//268
f 162//269 161//269 37//269
f 163//270 40//270 43//270
f 163//271 162//271 40//271
f 164//272 43//272 42//272
f 164//273 163//273 43//273
f 165//274 164//274 42//274
f 166//275 47//275 53//275
f 166//276 42//276 47//276
f 166//277 165//277 42//277
f 167//278 53//278 52//278
f 167//279 166//279 53//279
f 168//280 167//280 52//280
f 38//281 3//281 2//281
f 36//282 2//282 5//282
f 36//283 38//283 2//283
f 45//284 5//284 8//284
f 45//285 36//285 5//285
f 56//286 8//286 7//286
f 56//287 45//287 8//287
f 57//288 56//288 7//288
f 64//289 12//289 18//289
f 64//290 7//290 12//290
f 64//291 57//291 7//291
f 68//292 18//292 17//292
f 68//293 64//293 18//293
f 69//294 68//294 17//294
f 1//295 169//295 170//295
f 1//296 171//296 169//296
f 1//297 3//297 171//297
f 10//298 1//298 170//298
f 21//299 170//299 172//299
f 21//300 10//300 170//300
f 22//301 172//301 173//301
f 22//302 21//302 172//302
f 29//303 173//303 174//303
f 29//304 22//304 173//304
f 33//305 174//305 175//305
f 33//306 29//306 174//306
f 34//307 175//307 176//307
f 34//308 33//308 175//308
f 104//309 153//309 149//309
f 153//310 177//310 178//310
f 153//311 109//311 177//311
f 104//312 109//312 153//312
f 110//313 109//313 108//313
f 111//314 109//314 110//314
f 113//315 111//315 112//315
f 113//316 109//316 111//316
f 115//317 113//317 114//317
f 115//318 109//318 113//318
f 179//319 180//319 177//319
f 181//320 177//320 109//320
f 181//321 109//321 115//321
f 181//322 179//322 177//322
f 182//323 180//323 179//323
f 183//324 182//324 179//324
f 176//325 181//325 115//325
f 184//326 181//326 176//326
f 97//327 176//327 115//327
f 34//328 176//328 97//328
f 69//329 17//329 72//329
f 69//330 72//330 142//330
f 178//331 180//331 185//331
f 177//332 180//332 178//332
f 185//333 182//333 186//333
f 180//334 182//334 185//334
f 182//335 187//335 186//335
f 182//336 183//336 187//336
f 183//337 188//337 187//337
f 183//338 179//338 188//338
f 181//339 184//339 188//339
f 179//340 181//340 188//340
f 187//341 188//341 186//341
f 186//342 188//342 185//342
f 188//343 165//343 185//343
f 164//344 165//344 188//344
f 165//345 166//345 185//345
f 188//346 163//346 164//346
f 166//347 167//347 185//347
f 188//348 162//348 163//348
f 167//349 168//349 185//349
f 188//350 161//350 162//350
f 188//351 171//351 161//351
f 168//352 160//352 185//352
f 159//353 178//353 160//353
f 158//354 178//354 159//354
f 157//355 178//355 158//355
f 160//356 178//356 185//356
f 170//357 184//357 172//357
f 169//358 184//358 170//358
f 171//359 184//359 169//359
f 188//360 184//360 171//360
f 184//361 173//361 172//361
f 157//362 156//362 178//362
f 156//363 155//363 178//363
f 184//364 174//364 173//364
f 155//365 154//365 178//365
f 184//366 175//366 174//366
f 154//367 153//367 178//367
f 184//368 176//368 175//368
f 160//369 52//369 118//369
f 168//370 52//370 160//370
f 3//371 38//371 161//371
f 3//372 161//372 171//372
