# Created by FreeCAD <https://www.freecad.org>
v 0.21554958 0.09949856000000001 1.18
v 0.22 0.09949856000000001 1.18445045
v 0.22 0.1 1.18
v 0.217409 0.09892595 1.18592407
v 0.22 0.09801938 1.1886776700000001
v 0.21607708 0.09572796 1.19171501
v 0.22 0.09563663 1.19246979
v 0.22 0.0924698 1.1956366
v 0.21407589000000002 0.09892595 1.18259102
v 0.21132233 0.09801938 1.18
v 0.21575747 0.09068407 1.1963662
v 0.22 0.08867768 1.1980194100000001
v 0.21170777999999998 0.09620119 1.18829224
v 0.21596622000000001 0.08437722000000002 1.1990937
v 0.22 0.08445043 1.1994986
v 0.22 0.08 1.2
v 0.21554958 0.08 1.1994986
v 0.21132233 0.08 1.1980194100000001
v 0.2107873 0.09167309 1.19337402
v 0.20828496999999999 0.09572796 1.18392296
v 0.20753021000000002 0.09563663 1.18
v 0.20436337000000002 0.0924698 1.18
v 0.21097902000000002 0.08576984 1.19689171
v 0.20753021000000002 0.08 1.1956366
v 0.20662596 0.09167309 1.18921272
v 0.20656563 0.08624785 1.19343437
v 0.20436337000000002 0.08 1.19246979
v 0.20363382000000002 0.09068407 1.18424255
v 0.20198063000000002 0.08867768 1.18
v 0.20310825000000002 0.08576984 1.189021
v 0.20198063000000002 0.08 1.1886776700000001
v 0.20090630999999998 0.08437722000000002 1.18403381
v 0.20050144 0.08445043 1.18
v 0.2 0.08 1.18
v 0.20050144 0.08 1.18445045
v 0.22 0.09949856000000001 1.06554955
v 0.21554958 0.09949856000000001 1.07
v 0.22 0.1 1.07
v 0.21407589000000002 0.09892595 1.06740898
v 0.21132233 0.09801938 1.07
v 0.20828496999999999 0.09572796 1.06607704
v 0.20753021000000002 0.09563663 1.07
v 0.20436337000000002 0.0924698 1.07
v 0.217409 0.09892595 1.06407593
v 0.22 0.09801938 1.06132233
v 0.20363382000000002 0.09068407 1.06575745
v 0.20198063000000002 0.08867768 1.07
v 0.21170777999999998 0.09620119 1.06170776
v 0.20090630999999998 0.08437722000000002 1.0659661900000001
v 0.20050144 0.08445043 1.07
v 0.2 0.08 1.07
v 0.20050144 0.08 1.06554955
v 0.20198063000000002 0.08 1.06132233
v 0.20662596 0.09167309 1.06078728
v 0.21607708 0.09572796 1.05828499
v 0.22 0.09563663 1.0575302100000001
v 0.22 0.0924698 1.0543634
v 0.20310825000000002 0.08576984 1.060979
v 0.20436337000000002 0.08 1.0575302100000001
v 0.2107873 0.09167309 1.05662598
v 0.20656563 0.08624785 1.0565656300000001
v 0.20753021000000002 0.08 1.0543634
v 0.21575747 0.09068407 1.0536338
v 0.22 0.08867768 1.05198059
v 0.21097902000000002 0.08576984 1.05310829
v 0.21132233 0.08 1.05198059
v 0.21596622000000001 0.08437722000000002 1.0509063
v 0.22 0.08445043 1.0505014
v 0.22 0.08 1.05
v 0.21554958 0.08 1.0505014
v 0.21854095 -0.03337276 1.1996595
v 0.22 -0.03 1.2
v 0.21554958 -0.03 1.1994986
v 0.22 -0.03445041 1.1994986
v 0.21342716 -0.03518208 1.19816437
v 0.21132233 -0.03 1.1980194100000001
v 0.22 -0.038677670000000004 1.1980194100000001
v 0.21841309 -0.03984225 1.19733818
v 0.22 -0.04246979 1.1956366
v 0.20867514 -0.036127690000000004 1.1953035699999999
v 0.20753021000000002 -0.03 1.1956366
v 0.20436337000000002 -0.03 1.19246979
v 0.21319695 -0.041298800000000004 1.1950351700000001
v 0.20469645 -0.036127690000000004 1.19132484
v 0.20198063000000002 -0.03 1.1886776700000001
v 0.21850072999999998 -0.045146069999999996 1.19297493
v 0.22 -0.045636630000000004 1.19246979
v 0.22 -0.04801938 1.1886776700000001
v 0.20858095 -0.041798760000000004 1.19141907
v 0.20183565000000003 -0.03518208 1.18657288
v 0.20050144 -0.03 1.18445045
v 0.20050144 -0.03445041 1.18
v 0.20198063000000002 -0.038677670000000004 1.18
v 0.21379622 -0.046082229999999995 1.19014275
v 0.20496487 -0.041298800000000004 1.18680305
v 0.2003405 -0.03337276 1.18145905
v 0.2 -0.03 1.18
v 0.20985727 -0.046082229999999995 1.18620377
v 0.20266183999999998 -0.03984225 1.18158691
v 0.20436337000000002 -0.04246979 1.18
v 0.21564177999999998 -0.049026610000000005 1.18435822
v 0.21554958 -0.04949855 1.18
v 0.22 -0.05 1.18
v 0.21132233 -0.04801938 1.18
v 0.22 -0.04949855 1.18445045
v 0.20702507 -0.045146069999999996 1.18149925
v 0.20753021000000002 -0.045636630000000004 1.18
v 0.7000000000000001 -0.04949855 1.18445045
v 0.7000000000000001 -0.04801938 1.1886776700000001
v 0.7000000000000001 -0.05 1.18
v 0.7000000000000001 -0.045636630000000004 1.19246979
v 0.7000000000000001 -0.04246979 1.1956366
v 0.7000000000000001 -0.038677670000000004 1.1980194100000001
v 0.7000000000000001 -0.03445041 1.1994986
v 0.7000000000000001 -0.03 1.2
v 0.2003405 -0.03337276 1.06854095
v 0.20050144 -0.03445041 1.07
v 0.2 -0.03 1.07
v 0.20050144 -0.03 1.06554955
v 0.20183565000000003 -0.03518208 1.06342712
v 0.20198063000000002 -0.038677670000000004 1.07
v 0.20198063000000002 -0.03 1.06132233
v 0.20266183999999998 -0.03984225 1.06841309
v 0.20436337000000002 -0.04246979 1.07
v 0.20469645 -0.036127690000000004 1.05867516
v 0.20436337000000002 -0.03 1.0575302100000001
v 0.20496487 -0.041298800000000004 1.06319695
v 0.20867514 -0.036127690000000004 1.0546964300000001
v 0.20753021000000002 -0.03 1.0543634
v 0.21132233 -0.03 1.05198059
v 0.20702507 -0.045146069999999996 1.06850075
v 0.20753021000000002 -0.045636630000000004 1.07
v 0.21132233 -0.04801938 1.07
v 0.20858095 -0.041798760000000004 1.05858093
v 0.21342716 -0.03518208 1.05183563
v 0.21554958 -0.03 1.0505014
v 0.22 -0.03445041 1.0505014
v 0.22 -0.038677670000000004 1.05198059
v 0.20985727 -0.046082229999999995 1.06379623
v 0.21319695 -0.041298800000000004 1.05496483
v 0.21854095 -0.03337276 1.0503405
v 0.22 -0.03 1.05
v 0.21379622 -0.046082229999999995 1.05985725
v 0.21841309 -0.03984225 1.05266182
v 0.22 -0.04246979 1.0543634
v 0.21564177999999998 -0.049026610000000005 1.06564178
v 0.21554958 -0.04949855 1.07
v 0.22 -0.05 1.07
v 0.22 -0.04949855 1.06554955
v 0.22 -0.04801938 1.06132233
v 0.21850072999999998 -0.045146069999999996 1.05702507
v 0.22 -0.045636630000000004 1.0575302100000001
v 0.5 -0.04949855 1.06554955
v 0.5 -0.05 1.07
v 0.5 -0.04801938 1.06132233
v 0.5 -0.045636630000000004 1.0575302100000001
v 0.5 -0.04246979 1.0543634
v 0.5 -0.038677670000000004 1.05198059
v 0.5 -0.03445041 1.0505014
v 0.5 -0.03 1.05
v 0.5 0.1 1.07
v 0.5 0.09949856000000001 1.06554955
v 0.5 0.09801938 1.06132233
v 0.5 0.09563663 1.0575302100000001
v 0.5 0.0924698 1.0543634
v 0.5 0.08867768 1.05198059
v 0.5 0.08445043 1.0505014
v 0.5 0.08 1.05
v 0.5 0.09949856000000001 1.18445045
v 0.5 0.1 1.18
v 0.5 0.09801938 1.1886776700000001
v 0.5 0.09563663 1.19246979
v 0.5 0.0924698 1.1956366
v 0.5 0.08867768 1.1980194100000001
v 0.5 0.08445043 1.1994986
v 0.5 0.08 1.2
v 0.7000000000000001 -0.05 1.05
v 0.5 -0.05 1.05
v 0.7000000000000001 0.17438356 0.91254532
v 0.7000000000000001 0.17438356 1.06254532
v 0.7000000000000001 0.1 1.2
v 0.7000000000000001 0.38919968 0.91254532
v 0.7000000000000001 0.38919968 1.06254532
v 0.5 0.1 1.2
v 0.5 0.17438356 0.91254532
v 0.5 0.38919968 0.91254532
v 0.5 0.38919968 1.06254532
v 0.5 0.17438356 1.06254532
vn -0.111269 0.987542 0.111268
vn -0.020746 0.943680 0.330210
vn -0.138161 0.980726 0.138160
vn -0.082372 0.843847 0.530224
vn -0.118742 0.702101 0.702107
vn -0.167374 0.878824 0.446827
vn -0.330207 0.943681 0.020738
vn -0.138156 0.980727 0.138158
vn -0.078091 0.530418 0.844132
vn -0.160037 0.674633 0.720596
vn -0.304705 0.902389 0.304711
vn -0.239658 0.872151 0.426516
vn -0.100229 0.328617 0.939130
vn -0.101253 0.111381 0.988606
vn -0.111372 0.102039 0.988526
vn -0.327976 0.117918 0.937298
vn -0.170500 0.386367 0.906449
vn -0.374391 0.724959 0.578157
vn -0.287263 0.659111 0.695020
vn -0.702103 0.702106 0.118737
vn -0.530225 0.843847 0.082368
vn -0.426515 0.872150 0.239663
vn -0.446829 0.878824 0.167368
vn -0.527341 0.132650 0.839235
vn -0.361559 0.158074 0.918851
vn -0.387940 0.462477 0.797256
vn -0.285865 0.372387 0.882955
vn -0.578153 0.724961 0.374395
vn -0.515906 0.683870 0.515911
vn -0.700266 0.138719 0.700275
vn -0.593643 0.184447 0.783305
vn -0.530637 0.421100 0.735595
vn -0.617451 0.487341 0.617457
vn -0.844139 0.530406 0.078096
vn -0.720598 0.674629 0.160044
vn -0.695024 0.659108 0.287261
vn -0.839244 0.132639 0.527330
vn -0.783301 0.184449 0.593649
vn -0.735591 0.421100 0.530642
vn -0.797257 0.462481 0.387934
vn -0.988606 0.111389 0.101248
vn -0.939130 0.328617 0.100224
vn -0.937297 0.117914 0.327979
vn -0.988526 0.102036 0.111379
vn -0.906450 0.386367 0.170495
vn -0.882957 0.372389 0.285857
vn -0.918855 0.158062 0.361555
vn -0.111269 0.987542 -0.111268
vn -0.330207 0.943681 -0.020738
vn -0.138158 0.980727 -0.138157
vn -0.530225 0.843847 -0.082368
vn -0.702103 0.702106 -0.118737
vn -0.446829 0.878824 -0.167368
vn -0.020746 0.943680 -0.330210
vn -0.138159 0.980726 -0.138162
vn -0.844139 0.530406 -0.078096
vn -0.720598 0.674629 -0.160044
vn -0.304705 0.902389 -0.304711
vn -0.426515 0.872151 -0.239663
vn -0.939130 0.328617 -0.100224
vn -0.988606 0.111389 -0.101248
vn -0.988526 0.102036 -0.111379
vn -0.937297 0.117914 -0.327979
vn -0.906450 0.386367 -0.170495
vn -0.578153 0.724961 -0.374395
vn -0.695024 0.659108 -0.287261
vn -0.118742 0.702101 -0.702107
vn -0.082372 0.843847 -0.530224
vn -0.239658 0.872151 -0.426516
vn -0.167374 0.878824 -0.446827
vn -0.839244 0.132639 -0.527330
vn -0.797257 0.462481 -0.387934
vn -0.918855 0.158062 -0.361555
vn -0.882957 0.372389 -0.285857
vn -0.374391 0.724959 -0.578157
vn -0.515906 0.683870 -0.515911
vn -0.700266 0.138719 -0.700275
vn -0.735591 0.421100 -0.530642
vn -0.783301 0.184449 -0.593649
vn -0.617451 0.487341 -0.617457
vn -0.078091 0.530418 -0.844132
vn -0.160037 0.674633 -0.720596
vn -0.287263 0.659111 -0.695020
vn -0.527341 0.132650 -0.839235
vn -0.593643 0.184447 -0.783305
vn -0.530637 0.421100 -0.735595
vn -0.387940 0.462477 -0.797256
vn -0.101253 0.111381 -0.988606
vn -0.100229 0.328617 -0.939130
vn -0.327976 0.117918 -0.937298
vn -0.111372 0.102039 -0.988526
vn -0.170500 0.386367 -0.906449
vn -0.285865 0.372387 -0.882955
vn -0.361559 0.158074 -0.918851
vn -0.111806 -0.051820 0.992378
vn 0.026886 -0.111916 0.993354
vn -0.328380 -0.107128 0.938451
vn -0.153011 -0.326391 0.932768
vn -0.150242 -0.341919 0.927642
vn -0.226360 -0.154886 0.961651
vn 0.026958 -0.531849 0.846410
vn -0.155923 -0.331768 0.930386
vn -0.697038 -0.168120 0.697046
vn -0.526505 -0.143912 0.837903
vn -0.482720 -0.172048 0.858709
vn -0.411964 -0.402663 0.817404
vn -0.173038 -0.606870 0.775737
vn -0.260616 -0.431911 0.863442
vn -0.837910 -0.143919 0.526492
vn -0.697045 -0.168128 0.697038
vn 0.006881 -0.707087 0.707093
vn -0.097325 -0.842704 0.529507
vn -0.176524 -0.642616 0.745576
vn -0.507750 -0.481089 0.714663
vn -0.639310 -0.427286 0.639304
vn -0.938451 -0.107124 0.328382
vn -0.932769 -0.326391 0.153007
vn -0.858707 -0.172044 0.482726
vn -0.406619 -0.677648 0.612743
vn -0.256405 -0.706636 0.659486
vn -0.142144 -0.845053 0.515441
vn -0.714665 -0.481088 0.507748
vn -0.817401 -0.402666 0.411966
vn -0.992377 -0.051816 0.111813
vn -0.993352 -0.111924 -0.026906
vn -0.961650 -0.154881 0.226363
vn -0.927635 -0.341940 0.150234
vn -0.612745 -0.677648 0.406616
vn -0.482428 -0.731116 0.482423
vn -0.846418 -0.531837 -0.026956
vn -0.930389 -0.331763 0.155917
vn -0.775742 -0.606861 0.173045
vn -0.863440 -0.431914 0.260618
vn -0.111294 -0.987757 0.109317
vn -0.328327 -0.938306 0.108554
vn -0.108557 -0.938305 0.328329
vn -0.109318 -0.987757 0.111293
vn -0.186579 -0.898331 0.397730
vn -0.397731 -0.898330 0.186580
vn -0.338734 -0.877793 0.338731
vn -0.529507 -0.842704 0.097326
vn -0.707088 -0.707092 -0.006878
vn -0.745572 -0.642619 0.176533
vn -0.515441 -0.845053 0.142146
vn -0.659486 -0.706635 0.256408
vn 0.000000 -0.943883 0.330281
vn 0.000000 -0.993712 0.111964
vn 0.000000 -0.993712 0.111964
vn 0.000000 -0.943883 0.330281
vn 0.000000 -0.707104 0.707109
vn 0.000000 -0.846723 0.532033
vn 0.000000 -0.846723 0.532033
vn 0.000000 -0.707104 0.707109
vn 0.000000 -0.532042 0.846718
vn 0.000000 -0.532042 0.846718
vn 0.000000 -0.111956 0.993713
vn 0.000000 -0.330280 0.943883
vn 0.000000 -0.330280 0.943883
vn 0.000000 -0.111956 0.993713
vn -0.993352 -0.111924 0.026906
vn -0.992377 -0.051816 -0.111813
vn -0.932769 -0.326391 -0.153007
vn -0.938451 -0.107124 -0.328382
vn -0.927635 -0.341940 -0.150234
vn -0.961650 -0.154881 -0.226363
vn -0.846418 -0.531837 0.026956
vn -0.930389 -0.331763 -0.155917
vn -0.837910 -0.143919 -0.526492
vn -0.858707 -0.172044 -0.482726
vn -0.817401 -0.402666 -0.411966
vn -0.863440 -0.431914 -0.260618
vn -0.775742 -0.606861 -0.173045
vn -0.526505 -0.143912 -0.837903
vn -0.697038 -0.168120 -0.697046
vn -0.697045 -0.168128 -0.697038
vn -0.707088 -0.707092 0.006878
vn -0.529507 -0.842704 -0.097326
vn -0.745572 -0.642619 -0.176533
vn -0.639310 -0.427286 -0.639304
vn -0.714665 -0.481088 -0.507748
vn -0.328380 -0.107128 -0.938451
vn -0.153011 -0.326391 -0.932768
vn -0.482720 -0.172048 -0.858709
vn -0.659486 -0.706635 -0.256408
vn -0.612745 -0.677648 -0.406616
vn -0.515441 -0.845053 -0.142146
vn -0.507750 -0.481089 -0.714663
vn -0.411964 -0.402663 -0.817404
vn -0.111806 -0.051820 -0.992378
vn 0.026886 -0.111916 -0.993354
vn -0.150242 -0.341919 -0.927642
vn -0.226360 -0.154886 -0.961651
vn -0.482428 -0.731116 -0.482423
vn -0.406619 -0.677648 -0.612743
vn 0.026958 -0.531849 -0.846410
vn -0.173038 -0.606870 -0.775737
vn -0.155923 -0.331768 -0.930386
vn -0.260616 -0.431911 -0.863442
vn -0.328327 -0.938306 -0.108554
vn -0.111294 -0.987757 -0.109317
vn -0.109318 -0.987757 -0.111293
vn -0.108557 -0.938305 -0.328329
vn -0.186579 -0.898331 -0.397730
vn -0.397731 -0.898330 -0.186580
vn -0.338734 -0.877793 -0.338731
vn -0.097325 -0.842704 -0.529507
vn 0.006881 -0.707087 -0.707093
vn -0.142144 -0.845053 -0.515441
vn -0.176524 -0.642616 -0.745576
vn -0.256405 -0.706636 -0.659486
vn 0.000000 -0.993712 -0.111964
vn -0.000000 -0.993712 -0.111964
vn -0.000000 -0.943883 -0.330281
vn 0.000000 -0.943883 -0.330281
vn -0.000000 -0.846723 -0.532033
vn 0.000000 -0.846723 -0.532033
vn -0.000000 -0.707104 -0.707109
vn 0.000000 -0.707104 -0.707109
vn -0.000000 -0.532042 -0.846718
vn 0.000000 -0.532042 -0.846718
vn -0.000000 -0.330280 -0.943883
vn 0.000000 -0.330280 -0.943883
vn -0.000000 -0.111956 -0.993713
vn 0.000000 -0.111956 -0.993713
vn -0.993712 0.000000 -0.111964
vn -0.993712 0.000000 -0.111964
vn -0.943882 0.000000 -0.330283
vn -0.943882 0.000000 -0.330283
vn -0.846725 0.000000 -0.532031
vn -0.846725 0.000000 -0.532031
vn -0.707103 0.000000 -0.707111
vn -0.707103 0.000000 -0.707111
vn -0.532043 0.000000 -0.846717
vn -0.532043 0.000000 -0.846717
vn -0.330280 0.000000 -0.943883
vn -0.330280 0.000000 -0.943883
vn -0.111956 0.000000 -0.993713
vn -0.111956 0.000000 -0.993713
vn -0.111965 -0.993712 0.000000
vn -0.111965 -0.993712 0.000000
vn -0.330278 -0.943884 0.000000
vn -0.330278 -0.943884 0.000000
vn -0.532033 -0.846723 0.000000
vn -0.532033 -0.846723 0.000000
vn -0.707105 -0.707108 0.000000
vn -0.707105 -0.707108 0.000000
vn -0.846725 -0.532030 0.000000
vn -0.846725 -0.532030 0.000000
vn -0.943883 -0.330280 0.000000
vn -0.943883 -0.330280 0.000000
vn -0.993712 -0.111965 0.000000
vn -0.993712 -0.111965 0.000000
vn -0.111956 0.000000 0.993713
vn -0.111956 0.000000 0.993713
vn -0.330280 0.000000 0.943883
vn -0.330280 0.000000 0.943883
vn -0.532043 0.000000 0.846717
vn -0.532043 0.000000 0.846717
vn -0.707103 0.000000 0.707111
vn -0.707103 0.000000 0.707111
vn -0.846725 0.000000 0.532031
vn -0.846725 0.000000 0.532031
vn -0.943882 0.000000 0.330283
vn -0.943882 0.000000 0.330283
vn -0.993712 0.000000 0.111964
vn -0.993712 0.000000 0.111964
vn 0.000000 0.993712 -0.111964
vn 0.000000 0.993712 -0.111964
vn 0.000000 0.943883 -0.330281
vn 0.000000 0.943883 -0.330281
vn 0.000000 0.846724 -0.532032
vn 0.000000 0.846724 -0.532032
vn 0.000000 0.707104 -0.707110
vn 0.000000 0.707104 -0.707110
vn 0.000000 0.532043 -0.846717
vn 0.000000 0.532043 -0.846717
vn 0.000000 0.330280 -0.943883
vn 0.000000 0.330280 -0.943883
vn 0.000000 0.111956 -0.993713
vn 0.000000 0.111956 -0.993713
vn -0.111965 0.993712 0.000000
vn -0.111965 0.993712 0.000000
vn -0.330278 0.943884 0.000000
vn -0.330278 0.943884 0.000000
vn -0.532032 0.846724 0.000000
vn -0.532032 0.846724 0.000000
vn -0.707106 0.707108 0.000000
vn -0.707106 0.707108 0.000000
vn -0.846725 0.532031 0.000000
vn -0.846725 0.532031 0.000000
vn -0.943883 0.330280 0.000000
vn -0.943883 0.330280 0.000000
vn -0.993712 0.111964 0.000000
vn -0.993712 0.111964 0.000000
vn 0.000000 0.993712 0.111964
vn 0.000000 0.993712 0.111964
vn 0.000000 0.943883 0.330281
vn 0.000000 0.943883 0.330281
vn 0.000000 0.846724 0.532032
vn 0.000000 0.846724 0.532032
vn 0.000000 0.707104 0.707110
vn 0.000000 0.707104 0.707110
vn 0.000000 0.532043 0.846717
vn 0.000000 0.330280 0.943883
vn 0.000000 0.532043 0.846717
vn 0.000000 0.330280 0.943883
vn 0.000000 0.111956 0.993713
vn 0.000000 0.111956 0.993713
vn 0.000000 -1.000000 0.000000
vn 0.000000 -1.000000 0.000000
vn 0.000000 -1.000000 -0.000000
vn -0.000000 -1.000000 0.000000
vn 1.000000 0.000000 0.000000
vn 1.000000 0.000000 0.000000
vn 1.000000 0.000000 0.000000
vn 1.000000 0.000000 0.000000
vn 1.000000 0.000000 0.000000
vn 1.000000 0.000000 0.000000
vn 1.000000 0.000000 -0.000000
vn 1.000000 0.000000 0.000000
vn 1.000000 0.000000 0.000000
vn 1.000000 0.000000 0.000000
vn 1.000000 0.000000 0.000000
vn 1.000000 0.000000 -0.000000
vn 0.000000 0.000000 1.000000
vn 0.000000 0.000000 1.000000
vn 0.000000 0.000000 1.000000
vn 0.000000 0.000000 1.000000
vn -1.000000 -0.000000 -0.000000
vn -1.000000 0.000000 0.000000
vn -0.000000 -0.522367 -0.852721
vn 0.000000 -0.522367 -0.852721
vn -0.000000 0.000000 -1.000000
vn 0.000000 -0.000000 -1.000000
vn 0.000000 1.000000 0.000000
vn 0.000000 1.000000 0.000000
vn 0.000000 -0.000000 1.000000
vn 0.000000 0.000000 1.000000
vn 0.000000 0.879482 0.475932
vn 0.000000 0.879482 0.475932
vn -1.000000 0.000000 0.000000
vn -1.000000 0.000000 0.000000
vn -1.000000 0.000000 0.000000
vn -1.000000 0.000000 -0.000000
vn -1.000000 0.000000 0.000000
vn -1.000000 0.000000 -0.000000
vn -1.000000 0.000000 -0.000000
vn -1.000000 0.000000 0.000000
vn -1.000000 0.000000 0.000000
vn -1.000000 0.000000 -0.000000
vn -1.000000 0.000000 0.000000
vn -1.000000 0.000000 0.000000
vn -1.000000 0.000000 0.000000
vn -1.000000 0.000000 0.000000
vn -1.000000 0.000000 0.000000
vn -1.000000 0.000000 0.000000
vn -1.000000 0.000000 0.000000
vn -1.000000 0.000000 0.000000
vn -1.000000 0.000000 -0.000000
vn -1.000000 0.000000 0.000000
vn -1.000000 0.000000 0.000000
vn -1.000000 0.000000 -0.000000
vn -1.000000 0.000000 0.000000
vn -1.000000 0.000000 -0.000000
vn -1.000000 0.000000 0.000000
vn -1.000000 0.000000 -0.000000
vn -1.000000 0.000000 0.000000
vn -1.000000 0.000000 0.000000
vn 0.000000 0.000000 -1.000000
vn 0.000000 0.000000 -1.000000
vn 0.000000 1.000000 -0.000000
vn 0.000000 1.000000 0.000000
f 1//1 2//1 3//1
f 4//2 5//2 2//2
f 4//3 2//3 1//3
f 6//4 7//4 5//4
f 6//5 8//5 7//5
f 6//6 5//6 4//6
f 9//7 1//7 10//7
f 9//8 4//8 1//8
f 11//9 12//9 8//9
f 11//10 8//10 6//10
f 13//11 4//11 9//11
f 13//12 6//12 4//12
f 14//13 15//13 12//13
f 14//14 16//14 15//14
f 14//15 17//15 16//15
f 14//16 18//16 17//16
f 14//17 12//17 11//17
f 19//18 6//18 13//18
f 19//19 11//19 6//19
f 20//20 21//20 22//20
f 20//21 10//21 21//21
f 20//22 13//22 9//22
f 20//23 9//23 10//23
f 23//24 24//24 18//24
f 23//25 18//25 14//25
f 23//26 11//26 19//26
f 23//27 14//27 11//27
f 25//28 13//28 20//28
f 25//29 19//29 13//29
f 26//30 27//30 24//30
f 26//31 24//31 23//31
f 26//32 23//32 19//32
f 26//33 19//33 25//33
f 28//34 22//34 29//34
f 28//35 20//35 22//35
f 28//36 25//36 20//36
f 30//37 31//37 27//37
f 30//38 27//38 26//38
f 30//39 26//39 25//39
f 30//40 25//40 28//40
f 32//41 33//41 34//41
f 32//42 29//42 33//42
f 32//43 35//43 31//43
f 32//44 34//44 35//44
f 32//45 28//45 29//45
f 32//46 30//46 28//46
f 32//47 31//47 30//47
f 36//48 37//48 38//48
f 39//49 40//49 37//49
f 39//50 37//50 36//50
f 41//51 42//51 40//51
f 41//52 43//52 42//52
f 41//53 40//53 39//53
f 44//54 36//54 45//54
f 44//55 39//55 36//55
f 46//56 47//56 43//56
f 46//57 43//57 41//57
f 48//58 39//58 44//58
f 48//59 41//59 39//59
f 49//60 50//60 47//60
f 49//61 51//61 50//61
f 49//62 52//62 51//62
f 49//63 53//63 52//63
f 49//64 47//64 46//64
f 54//65 41//65 48//65
f 54//66 46//66 41//66
f 55//67 56//67 57//67
f 55//68 45//68 56//68
f 55//69 48//69 44//69
f 55//70 44//70 45//70
f 58//71 59//71 53//71
f 58//72 46//72 54//72
f 58//73 53//73 49//73
f 58//74 49//74 46//74
f 60//75 48//75 55//75
f 60//76 54//76 48//76
f 61//77 62//77 59//77
f 61//78 58//78 54//78
f 61//79 59//79 58//79
f 61//80 54//80 60//80
f 63//81 57//81 64//81
f 63//82 55//82 57//82
f 63//83 60//83 55//83
f 65//84 66//84 62//84
f 65//85 62//85 61//85
f 65//86 61//86 60//86
f 65//87 60//87 63//87
f 67//88 68//88 69//88
f 67//89 64//89 68//89
f 67//90 70//90 66//90
f 67//91 69//91 70//91
f 67//92 63//92 64//92
f 67//93 65//93 63//93
f 67//94 66//94 65//94
f 71//95 72//95 73//95
f 71//96 74//96 72//96
f 75//97 73//97 76//97
f 75//98 77//98 74//98
f 75//99 74//99 71//99
f 75//100 71//100 73//100
f 78//101 79//101 77//101
f 78//102 77//102 75//102
f 80//103 81//103 82//103
f 80//104 76//104 81//104
f 80//105 75//105 76//105
f 83//106 75//106 80//106
f 83//107 79//107 78//107
f 83//108 78//108 75//108
f 84//109 82//109 85//109
f 84//110 80//110 82//110
f 86//111 87//111 79//111
f 86//112 88//112 87//112
f 86//113 79//113 83//113
f 89//114 83//114 80//114
f 89//115 80//115 84//115
f 90//116 85//116 91//116
f 90//117 92//117 93//117
f 90//118 84//118 85//118
f 94//119 83//119 89//119
f 94//120 86//120 83//120
f 94//121 88//121 86//121
f 95//122 89//122 84//122
f 95//123 84//123 90//123
f 96//124 91//124 97//124
f 96//125 97//125 92//125
f 96//126 90//126 91//126
f 96//127 92//127 90//127
f 98//128 89//128 95//128
f 98//129 94//129 89//129
f 99//130 93//130 100//130
f 99//131 90//131 93//131
f 99//132 100//132 95//132
f 99//133 95//133 90//133
f 101//134 102//134 103//134
f 101//135 104//135 102//135
f 101//136 105//136 88//136
f 101//137 103//137 105//137
f 101//138 88//138 94//138
f 101//139 98//139 104//139
f 101//140 94//140 98//140
f 106//141 107//141 104//141
f 106//142 100//142 107//142
f 106//143 95//143 100//143
f 106//144 104//144 98//144
f 106//145 98//145 95//145
f 105//146 108//146 109//146
f 105//147 110//147 108//147
f 105//148 103//148 110//148
f 88//149 105//149 109//149
f 87//150 111//150 112//150
f 87//151 109//151 111//151
f 87//152 88//152 109//152
f 79//153 87//153 112//153
f 77//154 112//154 113//154
f 77//155 79//155 112//155
f 74//156 114//156 115//156
f 74//157 113//157 114//157
f 74//158 77//158 113//158
f 72//159 74//159 115//159
f 116//160 117//160 118//160
f 116//161 118//161 119//161
f 120//162 121//162 117//162
f 120//163 119//163 122//163
f 120//164 117//164 116//164
f 120//165 116//165 119//165
f 123//166 124//166 121//166
f 123//167 121//167 120//167
f 125//168 122//168 126//168
f 125//169 120//169 122//169
f 127//170 120//170 125//170
f 127//171 123//171 120//171
f 127//172 124//172 123//172
f 128//173 129//173 130//173
f 128//174 126//174 129//174
f 128//175 125//175 126//175
f 131//176 132//176 124//176
f 131//177 133//177 132//177
f 131//178 124//178 127//178
f 134//179 125//179 128//179
f 134//180 127//180 125//180
f 135//181 130//181 136//181
f 135//182 137//182 138//182
f 135//183 128//183 130//183
f 139//184 131//184 127//184
f 139//185 127//185 134//185
f 139//186 133//186 131//186
f 140//187 134//187 128//187
f 140//188 128//188 135//188
f 141//189 136//189 142//189
f 141//190 142//190 137//190
f 141//191 137//191 135//191
f 141//192 135//192 136//192
f 143//193 139//193 134//193
f 143//194 134//194 140//194
f 144//195 138//195 145//195
f 144//196 145//196 140//196
f 144//197 135//197 138//197
f 144//198 140//198 135//198
f 146//199 147//199 133//199
f 146//200 148//200 147//200
f 146//201 149//201 148//201
f 146//202 150//202 149//202
f 146//203 143//203 150//203
f 146//204 133//204 139//204
f 146//205 139//205 143//205
f 151//206 152//206 150//206
f 151//207 145//207 152//207
f 151//208 150//208 143//208
f 151//209 140//209 145//209
f 151//210 143//210 140//210
f 153//211 154//211 148//211
f 153//212 148//212 149//212
f 155//213 149//213 150//213
f 155//214 153//214 149//214
f 156//215 150//215 152//215
f 156//216 155//216 150//216
f 157//217 152//217 145//217
f 157//218 156//218 152//218
f 158//219 145//219 138//219
f 158//220 157//220 145//220
f 159//221 138//221 137//221
f 159//222 158//222 138//222
f 160//223 137//223 142//223
f 160//224 159//224 137//224
f 119//225 51//225 52//225
f 119//226 118//226 51//226
f 122//227 52//227 53//227
f 122//228 119//228 52//228
f 126//229 53//229 59//229
f 126//230 122//230 53//230
f 129//231 59//231 62//231
f 129//232 126//232 59//232
f 130//233 62//233 66//233
f 130//234 129//234 62//234
f 136//235 66//235 70//235
f 136//236 130//236 66//236
f 142//237 70//237 69//237
f 142//238 136//238 70//238
f 147//239 103//239 102//239
f 147//240 148//240 103//240
f 133//241 102//241 104//241
f 133//242 147//242 102//242
f 132//243 104//243 107//243
f 132//244 133//244 104//244
f 124//245 107//245 100//245
f 124//246 132//246 107//246
f 121//247 100//247 93//247
f 121//248 124//248 100//248
f 117//249 93//249 92//249
f 117//250 121//250 93//250
f 118//251 92//251 97//251
f 118//252 117//252 92//252
f 73//253 16//253 17//253
f 73//254 72//254 16//254
f 76//255 17//255 18//255
f 76//256 73//256 17//256
f 81//257 18//257 24//257
f 81//258 76//258 18//258
f 82//259 24//259 27//259
f 82//260 81//260 24//260
f 85//261 27//261 31//261
f 85//262 82//262 27//262
f 91//263 31//263 35//263
f 91//264 85//264 31//264
f 97//265 35//265 34//265
f 97//266 91//266 35//266
f 36//267 161//267 162//267
f 36//268 38//268 161//268
f 45//269 162//269 163//269
f 45//270 36//270 162//270
f 56//271 163//271 164//271
f 56//272 45//272 163//272
f 57//273 164//273 165//273
f 57//274 56//274 164//274
f 64//275 165//275 166//275
f 64//276 57//276 165//276
f 68//277 166//277 167//277
f 68//278 64//278 166//278
f 69//279 167//279 168//279
f 69//280 68//280 167//280
f 1//281 38//281 37//281
f 1//282 3//282 38//282
f 10//283 37//283 40//283
f 10//284 1//284 37//284
f 21//285 40//285 42//285
f 21//286 10//286 40//286
f 22//287 42//287 43//287
f 22//288 21//288 42//288
f 29//289 43//289 47//289
f 29//290 22//290 43//290
f 33//291 47//291 50//291
f 33//292 29//292 47//292
f 34//293 50//293 51//293
f 34//294 33//294 50//294
f 169//295 170//295 3//295
f 169//296 3//296 2//296
f 171//297 2//297 5//297
f 171//298 169//298 2//298
f 172//299 5//299 7//299
f 172//300 171//300 5//300
f 173//301 7//301 8//301
f 173//302 172//302 7//302
f 174//303 8//303 12//303
f 174//304 12//304 15//304
f 174//305 173//305 8//305
f 175//306 174//306 15//306
f 176//307 15//307 16//307
f 176//308 175//308 15//308
f 154//309 103//309 148//309
f 177//310 154//310 178//310
f 110//311 154//311 177//311
f 110//312 103//312 154//312
f 110//313 109//313 108//313
f 110//314 111//314 109//314
f 111//315 113//315 112//315
f 110//316 113//316 111//316
f 113//317 115//317 114//317
f 110//318 115//318 113//318
f 179//319 180//319 177//319
f 177//320 181//320 110//320
f 110//321 181//321 115//321
f 180//322 181//322 177//322
f 179//323 182//323 180//323
f 182//324 183//324 180//324
f 181//325 176//325 115//325
f 181//326 184//326 176//326
f 176//327 72//327 115//327
f 176//328 16//328 72//328
f 34//329 51//329 97//329
f 97//330 51//330 118//330
f 179//331 178//331 185//331
f 179//332 177//332 178//332
f 182//333 185//333 186//333
f 182//334 179//334 185//334
f 183//335 182//335 187//335
f 187//336 182//336 186//336
f 180//337 183//337 188//337
f 188//338 183//338 187//338
f 181//339 180//339 184//339
f 184//340 180//340 188//340
f 188//341 187//341 186//341
f 188//342 186//342 185//342
f 165//343 188//343 185//343
f 164//344 188//344 165//344
f 166//345 165//345 185//345
f 163//346 188//346 164//346
f 162//347 188//347 163//347
f 167//348 166//348 185//348
f 168//349 167//349 185//349
f 161//350 188//350 162//350
f 170//351 188//351 161//351
f 160//352 168//352 185//352
f 178//353 159//353 160//353
f 178//354 158//354 159//354
f 178//355 157//355 158//355
f 178//356 160//356 185//356
f 184//357 171//357 172//357
f 184//358 169//358 171//358
f 184//359 170//359 169//359
f 184//360 188//360 170//360
f 173//361 184//361 172//361
f 156//362 157//362 178//362
f 174//363 184//363 173//363
f 155//364 156//364 178//364
f 175//365 184//365 174//365
f 153//366 155//366 178//366
f 176//367 184//367 175//367
f 154//368 153//368 178//368
f 69//369 160//369 142//369
f 69//370 168//370 160//370
f 161//371 3//371 170//371
f 38//372 3//372 161//372
