# WaveFront *.obj file
# Vertices: 401
# Triangles : 798

v -0.05512587896266619 0.02853380611301329 0.017042013217618043
v -0.056625878985017926 0.028033882257985657 0.017050739420966715
v -0.0581258790073697 0.02753395840295803 0.0170594656243154
v -0.05962587902972142 0.027034034547930373 0.017068191827664062
v -0.06112587905207316 0.026534110692902728 0.01707691803101273
v -0.06112587905207315 0.0265387075329661 0.017340270821865855
v -0.06112587905207315 0.026543304373029465 0.017603623612718985
v -0.061125879052073166 0.02654790121309284 0.017866976403572103
v -0.06112587905207316 0.026552498053156206 0.018130329194425227
v -0.05962587902972142 0.027052421908183844 0.018121602991076555
v -0.0581258790073697 0.027552345763211476 0.018112876787727893
v -0.056625878985017926 0.028052269618239128 0.018104150584379208
v -0.05512587896266619 0.028552193473266766 0.018095424381030536
v -0.0551258789626662 0.028547596633203404 0.017832071590177415
v -0.055125878962666235 0.02854299979314004 0.0175687187993243
v -0.055125878962666186 0.028538402953076653 0.017305366008471164
v -0.05550959435205042 0.028408272010571528 0.017178965494853694
v -0.06074216366268889 0.026664347888908875 0.0172094058036272
v -0.05550959435205043 0.0284219562772606 0.017962936608416063
v -0.060742163662688906 0.02667803215559796 0.017993376917189576
v -0.06073507505676581 0.026665556493181912 0.017143257421829677
v -0.060358543191518246 0.02679102627559732 0.017139822423363184
v -0.059375879025996114 0.02711850440045081 0.017132575658152568
v -0.058125879007369666 0.027535107612973824 0.017125303822028686
v -0.05687587898874322 0.027951710825496873 0.017118031985904773
v -0.056130771925549945 0.028200049951733253 0.017114151828743224
v -0.05589321482322107 0.028279242367983445 0.01711384551484336
v -0.05551668295797355 0.02840475559731516 0.01711289958854393
v -0.06075087904648523 0.026664454636733566 0.017381981402837542
v -0.0603758790408973 0.026789435600490474 0.017379799852000367
v -0.059375879025996135 0.027122718170508896 0.017373982383101245
v -0.058125879007369693 0.027539321383031928 0.017366710546977332
v -0.05687587898874323 0.027955924595554977 0.017359438710853464
v -0.056125878977567344 0.028205886523068793 0.017355075609179132
v -0.05587587897384205 0.028289207165573396 0.017353621241954355
v -0.05550087896825412 0.02841418812933031 0.017351439691117184
v -0.055503467586809116 0.028411041962599314 0.017220637402556686
v -0.055878819005887835 0.028285937290150623 0.017222443531235858
v -0.05612669216378254 0.02820331957430737 0.01722354671434206
v -0.0568758789887432 0.02795362617552329 0.017227762315426907
v -0.05812587900736953 0.02753702296300023 0.01723503415155077
v -0.05937587902599607 0.027120419750477215 0.017242305987674688
v -0.060372939008851496 0.02678812544791082 0.017248587934192403
v -0.06074829042793021 0.026663033952866483 0.017251148995861616
v -0.06075087904648523 0.026672116036839198 0.017820902720926086
v -0.06037587904089731 0.026797097000596088 0.01781872117008891
v -0.05937587902599613 0.027130379570614517 0.017812903701189802
v -0.05812587900736969 0.027546982783137573 0.017805631865065924
v -0.05687587898874323 0.027963585995660588 0.017798360028941997
v -0.056125878977567344 0.028213547923174414 0.017793996927267665
v -0.05587587897384205 0.028296868565679003 0.017792542560042895
v -0.05550087896825411 0.028421849529435925 0.01779036100920573
v -0.06036597497298902 0.026803432062184933 0.017992493238127773
v -0.059375879025996114 0.027133444130656756 0.017988472228425204
v -0.05812587900736971 0.027550047343179784 0.017981200392301312
v -0.056875878988743224 0.027966650555702834 0.017973928556177427
v -0.056128621958772974 0.028215689285499945 0.017969065234622085
v -0.0558857830417503 0.028296601920954036 0.0179664298612941
v -0.05551668295797356 0.02842074767298759 0.018029084990213592
v -0.055893214823221085 0.02829527789057216 0.01803251998868008
v -0.05613077192554996 0.028216123026001304 0.018034977636848148
v -0.0568758789887432 0.027967799765718664 0.018039766753890702
v -0.0581258790073697 0.027551196553195614 0.01804703859001459
v -0.05937587902599613 0.027134593340672596 0.018054310426138486
v -0.06035854319151825 0.02680706179818604 0.018058496897199898
v -0.0607350750567658 0.02668154856885434 0.018059442823499337
v -0.06036597497298904 0.026789702245215454 0.017205912550749162
v -0.0593758790259961 0.027119653610466653 0.017198413855865843
v -0.0581258790073696 0.027536256822989654 0.01719114201974194
v -0.0568758789887432 0.02795286003551272 0.017183870183618055
v -0.05612862195877297 0.028201916785119036 0.017180039216239947
v -0.05588578304175031 0.02828287210398455 0.01717984917391549
v -0.057125878992468515 -0.006460863738921609 0.017652847452025104
v -0.05712587899246851 -0.006456266898858241 0.017916200242878228
v -0.05712587899246851 -0.006451670058794881 0.018179553033731345
v -0.05712587899246851 -0.006447073218731505 0.018442905824584476
v -0.057125878992468515 -0.006442476378668135 0.0187062586154376
v -0.05812587900736969 0.0018062672292879511 0.01856227626018451
v -0.05912587902227088 0.010055010837244032 0.01841829390493141
v -0.06012587903717199 0.018303754445200115 0.018274311549678318
v -0.06012587903717199 0.01828536708494664 0.017220900386265822
v -0.05912587902227088 0.01003662347699057 0.017364882741518914
v -0.05812587900736969 0.0017878798690344777 0.01750886509677201
v -0.05763743623283844 -0.002239983366362556 0.017646560581595302
v -0.05763743623283843 -0.002223947843773841 0.01856523505543201
v -0.0606143218117032 0.022315582158008426 0.0172179415910183
v -0.06061432181170322 0.02233161768059715 0.018136616064855022
v -0.057386414989340086 -0.004294579414145792 0.01860013314866738
v -0.057381689252058 -0.004334714713255027 0.01853470642738778
v -0.05737760474189713 -0.004369134797826773 0.018493586974803328
v -0.05737587899619378 -0.004393314856858656 0.017924096785873804
v -0.05762587899991908 -0.002331128954869637 0.017888101197060535
v -0.05737760474189711 -0.004381363048530449 0.017793030961178357
v -0.057381689252057985 -0.004348398979944103 0.0177507353138254
v -0.05738641498934009 -0.00431057148981822 0.017683947746997723
v -0.05829254567651987 0.0031799086205981267 0.018472441003262383
v -0.058292545676519855 0.003178759410582281 0.018406602805549094
v -0.05829254567651987 0.003177993270571722 0.018362710673740238
v -0.05829254567651987 0.003168033450434424 0.01779211296022514
v -0.05829254567651987 0.003165735030402733 0.017660436564798578
v -0.058292545676519855 0.0031649688903921743 0.017616544432989722
v -0.05829254567651987 0.003163819680376333 0.01755070623527644
v -0.05779580763439102 -0.0009336370754286257 0.017622682227400707
v -0.05779437432320635 -0.000944309804781589 0.017688788493779202
v -0.05779308779321274 -0.0009541624385207559 0.017732492456019315
v -0.057792545669069294 -0.0009563383535436226 0.017864104137851687
v -0.05779308779321275 -0.0009419091824676633 0.018434481025152886
v -0.05779437432320637 -0.0009305373044006768 0.01847781451216135
v -0.05779580763439101 -0.0009175640011605764 0.018543508035505626
v -0.059959212368021805 0.01692781463385826 0.018232470411173884
v -0.0599592123680218 0.016926665423842416 0.01816663221346061
v -0.05995921236802182 0.016925899283831855 0.018122740081651764
v -0.059959212368021826 0.016915939463694556 0.017552142368136656
v -0.0599592123680218 0.016913641043662875 0.017420465972710086
v -0.05995921236802179 0.016912874903652314 0.01737657384090123
v -0.05995921236802179 0.01691172569363647 0.01731073564318795
v -0.059125879022270816 0.010037772687006398 0.01743072093923219
v -0.059125879022270816 0.010038921897022239 0.017496559136945464
v -0.05912587902227085 0.010039688037032804 0.01754045126875433
v -0.05912587902227084 0.01004198645706449 0.017672127664180907
v -0.0591258790222708 0.010051946277201787 0.018242725377696025
v -0.059125879022270816 0.010052712417212352 0.018286617509504853
v -0.05912587902227084 0.010053861627228194 0.018352455707218135
v -0.060619276332683734 0.02237133340044712 0.01806985580803667
v -0.060623919023258706 0.022408885569649754 0.018026552472141133
v -0.06062587904462256 0.022415101868998612 0.017456154131301253
v -0.0606239190232587 0.022396644141541716 0.01732524152552613
v -0.06061927633268373 0.02235760358347765 0.017283275120658068
v -0.06086534305520158 0.024386213728380377 0.017183043497782952
v -0.06087006879248366 0.024426349027489618 0.017248470219062544
v -0.06087415330264451 0.024460769112061357 0.01728958967164699
v -0.06087587904834787 0.02447728777098763 0.017420158542487976
v -0.060874153302644535 0.02447299736276504 0.017990145685271963
v -0.060870068792483675 0.0244400332941787 0.018032441332624927
v -0.06086534305520158 0.02440220580405282 0.018099228899452608
v -0.05763248171185792 -0.002265969269243051 0.018499901525792263
v -0.05762783902128295 -0.002305009827307127 0.018457935120924193
v -0.05762783902128295 -0.002317251255415161 0.01775662417430919
v -0.057632481711857926 -0.0022796990862125254 0.017713320838413652
v -0.032125878619939485 -0.0014616251886451943 0.017565585418538383
v -0.03212587861993948 -0.0014570283485818253 0.017828938209391507
v -0.0321258786199395 -0.0014524315085184581 0.018092291000244624
v -0.032125878619939485 -0.0014478346684550882 0.018355643791097755
v -0.032125878619939485 -0.00144323782839172 0.018618996581950875
v -0.03837587871307174 -0.002693047465960823 0.018640812090322558
v -0.04462587880620398 -0.003942857103529928 0.018662627598694234
v -0.050875878899336265 -0.005192666741099031 0.018684443107065917
v -0.050875878899336265 -0.005211054101352505 0.017631031943653425
v -0.04462587880620399 -0.0039612444637834015 0.017609216435281745
v -0.038375878713071736 -0.0027114348262142975 0.01758740092691006
v -0.035323111372251574 -0.0020997984294683705 0.017644113644419854
v -0.035323111372251574 -0.002083762906879655 0.018562788118256564
v -0.053928646240156405 -0.005820338660433671 0.017709055915719397
v -0.053928646240156405 -0.005804303137844956 0.018627730389556115
v -0.03375422860038683 -0.001770055865653889 0.018556067426215638
v -0.03372469274237382 -0.0017653034982338127 0.01848985718780229
v -0.03369916455386839 -0.0017609266461387789 0.0184480605321693
v -0.033688378643222536 -0.0017687146179635397 0.017878284218293274
v -0.03525087866650561 -0.002081167027355816 0.0178837380953862
v -0.0336991645538684 -0.001773154896842456 0.01774750451854434
v -0.03372469274237382 -0.0017789877649228912 0.01770588607423992
v -0.03375422860038683 -0.001786047941326318 0.017639882024545982
v -0.03941754539526044 -0.0029024982822381824 0.01857860981067122
v -0.03941754539526044 -0.0029036474922540245 0.01851277161295794
v -0.039417545395260455 -0.002904413632264588 0.018468879481149083
v -0.039417545395260455 -0.0029143734524018855 0.01789828176763398
v -0.03941754539526044 -0.002916671872433569 0.017766605372207426
v -0.03941754539526045 -0.0029174380124441304 0.017722713240398563
v -0.03941754539526044 -0.002918587222459973 0.01765687504268529
v -0.036312932631955244 -0.00229775130633434 0.01764649292987067
v -0.0363039744370511 -0.002294809653285237 0.01771236155632038
v -0.036295933624591055 -0.0022924421135602554 0.01775585221463924
v -0.03629254534869431 -0.002289468633617333 0.01788737401344814
v -0.036295933624591055 -0.002280188857507162 0.018457840783772807
v -0.0363039744370511 -0.0022810371529043243 0.018501387574702523
v -0.036312932631955244 -0.0022816782320662903 0.018567318737975593
v -0.04983421221714755 -0.004985514344853356 0.018614968991290694
v -0.04983421221714756 -0.004986663554869195 0.018549130793577413
v -0.04983421221714754 -0.004987429694879758 0.01850523866176856
v -0.04983421221714755 -0.0049973895150170556 0.017934640948253443
v -0.04983421221714755 -0.0049996879350487425 0.017802964552826882
v -0.04983421221714754 -0.005000454075059302 0.017759072421018034
v -0.04983421221714753 -0.005001603285075146 0.017693234223304755
v -0.04462587880620397 -0.003960095253767558 0.01767505463299501
v -0.044625878806204 -0.0039589460437517154 0.017740892830708316
v -0.04462587880620399 -0.003958179903741153 0.017784784962517147
v -0.04462587880620401 -0.003955881483709469 0.017916461357943683
v -0.044625878806203945 -0.003945921663572173 0.018487059071458836
v -0.04462587880620398 -0.003945155523561609 0.018530951203267674
v -0.044625878806204 -0.003944006313545768 0.01859678940098096
v -0.053959611996284684 -0.005811648198633303 0.018561791581719386
v -0.05398862881237825 -0.00581819487240241 0.01851925799399118
v -0.054000878945902386 -0.005830595940063128 0.01794918462050124
v -0.053988628812378245 -0.005830436300510444 0.01781794704737617
v -0.05395961199628468 -0.005825378015602777 0.01777521089434077
v -0.05549752901202118 -0.00613404570165944 0.017715776607760338
v -0.055527064870034164 -0.0061387980690795155 0.017781986846173683
v -0.05555259305853959 -0.006143174921174549 0.01782378350180667
v -0.05556337896918543 -0.006143048349455404 0.01795463849759416
v -0.05555259305853958 -0.0061309466704708715 0.018524339515431636
v -0.05552706487003415 -0.006125113802390436 0.01856595795973606
v -0.055497529012021166 -0.0061180536259870105 0.018631962009429997
v -0.03529214561612332 -0.0020787235517105503 0.0184966331396352
v -0.035263128800029735 -0.002073665266802883 0.0184538969865998
v -0.035263128800029735 -0.0020859066949109172 0.0177525860399848
v -0.03529214561612331 -0.0020924533686800246 0.01771005245225659
v -0.04937587887698452 0.021053335647852146 0.01822631743126062
v -0.04362587879130286 0.013554477822437528 0.018357210481490704
v -0.03787587870562117 0.006055619997022903 0.01848810353172079
v -0.03787587870562117 0.00603723263676943 0.0174346923683083
v -0.04362587879130286 0.01353609046218406 0.017303799318078218
v -0.04937587887698452 0.021034948287598665 0.01717290626784813
v -0.05218442483053903 0.024698887073912327 0.017176340848967464
v -0.05218442483053904 0.024714922596501036 0.018095015322804178
v -0.0350673327520666 0.0023756456881205232 0.017565994476764733
v -0.03506733275206661 0.002391681210709238 0.018484668950601454
v -0.05362779698065463 0.026597273461146362 0.018060913850976204
v -0.05365496997002657 0.026631557188125186 0.01799418814076434
v -0.05367845590345156 0.0266614583406589 0.017951945956809955
v -0.05368837894124577 0.026664454636733566 0.017381981402837535
v -0.052250878919825355 0.024789740180379903 0.01741470466539506
v -0.053678455903451584 0.026649230089955227 0.01725138994318499
v -0.053654969970026584 0.02661787292143612 0.017210217027201973
v -0.053627796980654646 0.026581281385473946 0.01714472844930656
v -0.0484175455293709 0.019802376800267196 0.018182294741919017
v -0.0484175455293709 0.01980122759025135 0.018116456544205736
v -0.04841754552937091 0.019800461450240784 0.018072564412396883
v -0.04841754552937093 0.019790501630103492 0.017501966698881787
v -0.04841754552937093 0.019788203210071815 0.017370290303455223
v -0.04841754552937089 0.019787437070061246 0.017326398171646364
v -0.0484175455293709 0.01978628786004541 0.01726055997393308
v -0.05127378927161166 0.023511263691914842 0.017195994897342894
v -0.05128203081092348 0.023523162175491615 0.017261707181734188
v -0.05128942835838673 0.02353356930302197 0.017305057508525915
v -0.05129254557221173 0.0235399305428108 0.017436520173766738
v -0.05128942835838673 0.02354582255907506 0.018007046077659482
v -0.0512820308109235 0.023536934675872537 0.018050733200116333
v -0.05127378927161166 0.023527336766182898 0.018116820705447817
v -0.038834212053234764 0.007304280424576169 0.018400449825635826
v -0.03883421205323479 0.007303131214560319 0.018334611627922544
v -0.038834212053234764 0.007302365074549752 0.018290719496113692
v -0.03883421205323477 0.0072924052544124695 0.017720121782598592
v -0.03883421205323478 0.007290106834380772 0.017588445387172028
v -0.03883421205323477 0.007289340694370206 0.01754455325536318
v -0.03883421205323477 0.007288191484354373 0.017478715057649894
v -0.04362587879130285 0.01353723967219989 0.017369637515791476
v -0.04362587879130287 0.013538388882215719 0.017435475713504782
v -0.04362587879130291 0.013539155022226306 0.017479367845313617
v -0.043625878791302884 0.013541453442258017 0.017611044240740167
v -0.04362587879130283 0.013551413262395236 0.01818164195425529
v -0.043625878791302884 0.013552179402405815 0.01822553408606413
v -0.04362587879130285 0.013553328612421705 0.018291372283777422
v -0.036919769175831875 0.0048075603470907275 0.01844397335841232
v -0.03691876612491033 0.004805102874546844 0.018378150288451602
v -0.03691790709181677 0.0048032172426867945 0.018334324428457952
v -0.03691754535800754 0.004792785979274251 0.017763752799341958
v -0.03691790709181677 0.0047909596256597055 0.01763208601929156
v -0.036918766124910324 0.004791314608387441 0.017588221049224802
v -0.03691976917583189 0.0047914733918924075 0.017522352312344874
v -0.033623960601951046 0.0004932948234752076 0.01760009594859271
v -0.03359678761257908 0.00045901109649637285 0.01766682165880457
v -0.03357330167915408 0.0004291099439626671 0.017709063842758953
v -0.0335633786413599 0.0004184522477823913 0.017840107078642836
v -0.03357330167915409 0.0004413381946663445 0.01840961985638392
v -0.03501214878562251 0.002317816039566221 0.018377243395266075
v -0.03359678761257909 0.00047269536318545174 0.01845079277236694
v -0.03362396060195104 0.0005092868991476348 0.018516281350262367
v -0.052212913326177064 0.024750922991563784 0.018028319917221227
v -0.052239608796983125 0.024784993673163377 0.01798507735091784
v -0.05223960879698315 0.024772752245055343 0.017283766404302837
v -0.05221291332617706 0.024737193174594302 0.01724173922984261
v -0.03503884425642861 0.002353375110027264 0.018419270569726302
v -0.03500087866278032 0.0022931667041360465 0.017807383816085317
v -0.03501214878562251 0.0023055746114581856 0.01767593244865107
v -0.035038844256428614 0.002339645293057789 0.017632689882347695
v -0.05272243279536298 0.024563854590962133 0.018165041095176897
v -0.06007631384687928 0.022485037523800818 0.018201326982058078
v -0.04277692044531905 0.010820519240255098 0.018404931906053756
v -0.057724837334727004 0.007539768941636204 0.018462197615529422
v -0.03651185429906128 0.002097501281629058 0.018557192750891585
v -0.05619291468584379 -0.0019274160770289038 0.01862744794471767
v -0.060393603565538585 0.02454642894656692 0.01816534526093123
v -0.05994844035648904 0.02472248277997044 0.018162272229838308
v -0.058779524850443084 0.02512823582034307 0.018155189784173784
v -0.05578473313915055 0.02603955534773722 0.018139282642652767
v -0.05469358728955787 0.02411016171973991 0.018172960333701554
v -0.05518531832511159 0.02621997446895319 0.01813613341517765
v -0.054576598406021186 0.02635381079589784 0.018133797293401074
v -0.054099536470317615 0.026455445603213314 0.018132023251240418
v -0.05923785819060611 0.017108623979274654 0.018295172629558737
v -0.05851650401319044 0.01728828411467522 0.018292036650230308
v -0.05659289287341533 0.0177673778090767 0.01828367403868783
v -0.051783865023977436 0.018965112045080428 0.018262767509831638
v -0.050822059454089845 0.01920465889228118 0.0182585862040604
v -0.04986025388420227 0.019444205739481923 0.018254404898289157
v -0.04913889970678658 0.019623865874882487 0.018251268918960735
v -0.05095491301134871 0.02213606729408393 0.018207418280075806
v -0.05157833795319407 0.021973326096080065 0.018210258938253458
v -0.05240883733527344 0.02175628976309529 0.018214047321537502
v -0.05323872615676767 0.02153763688241017 0.018217863921766605
v -0.057388031774152665 0.0204440534495372 0.018236952491591806
v -0.05904698690353602 0.02000502090537312 0.018244615833155797
v -0.059669234350821276 0.019839532638517978 0.01824750444159861
v -0.05665712898548358 0.007774108248680435 0.01845810720770972
v -0.05380990672083453 0.008399013067464994 0.018447199453523883
v -0.04669185105921161 0.00996127511442635 0.01841993006805927
v -0.04526823992688698 0.01027372752381863 0.018414476190966353
v -0.043844628794562475 0.010586179933210909 0.018409022313873438
v -0.05658860531408158 0.0003699071283742536 0.018587348019006255
v -0.055260397889490616 0.0006425026456346283 0.018582589846553338
v -0.05172266710639883 0.001372739511256174 0.01856984351465094
v -0.04287284058563725 0.0032083974164357886 0.018537801986730024
v -0.0411030498281938 0.0035756290183258377 0.018531391935275334
v -0.03933796266646626 0.003945289950694227 0.01852493947969942
v -0.038012070915867134 0.00422328788432938 0.018520087007717914
v -0.039595930814585276 0.006418845922941422 0.018481763399600275
v -0.04083681624974256 0.006157167030075394 0.018486331021665584
v -0.042491330163285615 0.005808261839587349 0.018492421184419346
v -0.0441458440768287 0.005459356649099311 0.018498511347173112
v -0.05241841364454403 0.003714830696659119 0.01852896216094192
v -0.05572744147163016 0.0030170203156830258 0.018541142486449436
v -0.05696832690678748 0.0027553414228169894 0.018545710108514763
v -0.03517137508804276 0.00019764148870142855 0.018590354926931646
v -0.036639727789451494 -0.00013994397454057287 0.018596247503111358
v -0.03852777000674036 -0.0005698067789471506 0.018603750786272494
v -0.040508691244853096 -0.0009719554442250377 0.018610770317335715
v -0.05043056639270059 -0.0029768584044921422 0.018645766028681957
v -0.051026920568253614 -0.0009693516741467673 0.018610724868359952
v -0.054338749075185586 -0.0037173722819646066 0.018658691746493483
v -0.055839000503248366 -0.00398053871911854 0.01866328533374094
v -0.05955693422963863 0.022674671051894336 0.018198016916512648
v -0.05818317067489007 0.023120729089997703 0.018190230944495803
v -0.05399476638844556 0.02430607406993883 0.018169540670908584
v -0.05327525542922217 0.024452242883400564 0.01816698928477913
v -0.0547686527396351 -0.0016782296450587038 0.0186230983793684
v -0.0415998370944458 0.0009574381837722654 0.01857709262628694
v -0.03971697000520774 0.0013443988499395698 0.018570338202734314
v -0.03790267322865142 0.0017702930291269151 0.01856290419218405
v -0.054576598406021186 0.026335423435644354 0.017080386129988585
v -0.03663972778945147 -0.00015833133479404527 0.017542836339698855
v -0.05994844035648906 0.024704095419716982 0.01710886106642582
v -0.0543387490751856 -0.003735759642218081 0.01760528058308099
v -0.03517137508804277 0.00017925412844795366 0.017536943763519157
v -0.036511854299061265 0.002079113921375584 0.017503781587479086
v -0.03801207091586712 0.004204900524075905 0.017466675844305415
v -0.039595930814585276 0.006400458562687946 0.017428352236187775
v -0.04277692044531905 0.01080213188000162 0.017351520742641263
v -0.04913889970678658 0.01960547851462901 0.017197857755548236
v -0.049860253884202274 0.01942581837922845 0.017200993734876664
v -0.05095491301134871 0.022117679933830448 0.017154007116663313
v -0.05272243279536298 0.024545467230708665 0.0171116299317644
v -0.054099536470317615 0.026437058242959836 0.017078612087827925
v -0.04050869124485312 -0.0009903428044785115 0.017557359153923223
v -0.041599837094445806 0.0009390508235187909 0.017523681462874443
v -0.04287284058563725 0.003190010056182313 0.017484390823317528
v -0.04414584407682869 0.005440969288845833 0.017445100183760612
v -0.04669185105921162 0.009942887754172876 0.017366518904646785
v -0.051783865023977436 0.018946724684826957 0.017209356346419142
v -0.053238726156767655 0.021519249522156697 0.0171644527583541
v -0.05469358728955788 0.024091774359486437 0.01711954917028906
v -0.055784733139150555 0.026021167987483742 0.01708587147924027
v -0.0551853183251116 0.026201587108699714 0.017082722251765155
v -0.05399476638844556 0.02428768670968535 0.017116129507496095
v -0.052408837335273434 0.02173790240284182 0.017160636158125
v -0.05082205945408986 0.019186271532027708 0.017205175040647905
v -0.04526823992688702 0.010255340163565137 0.017361065027553874
v -0.04249133016328564 0.005789874479333869 0.017439010021006857
v -0.04110304982819381 0.003557241658072363 0.01747798077186284
v -0.03971697000520774 0.0013260114896860963 0.017516927039321825
v -0.03852777000674036 -0.0005881941392006246 0.017550339622859998
v -0.05043056639270058 -0.0029952457647456146 0.017592354865269458
v -0.05102692056825363 -0.0009877390344002416 0.01755731370494745
v -0.05172266710639882 0.0013543521510026967 0.017516432351238436
v -0.05241841364454401 0.0036964433364056353 0.017475550997529427
v -0.0538099067208345 0.008380625707211502 0.017393788290111397
v -0.056592892873415325 0.01774899044882323 0.017230262875275338
v -0.05738803177415264 0.02042566608928373 0.017183541328179324
v -0.05818317067489006 0.023102341729744222 0.017136819781083307
v -0.058779524850443104 0.025109848460089602 0.01710177862076129
v -0.05476865273963507 -0.0016966170053121783 0.017569687215955896
v -0.055260397889490616 0.0006241152853811533 0.017529178683140835
v -0.05572744147163017 0.0029986329554295464 0.01748773132303694
v -0.05665712898548359 0.007755720888426945 0.017404696044297233
v -0.058516504013190425 0.01726989675442174 0.017238625486817812
v -0.059046986903536 0.01998663354511964 0.0171912046697433
v -0.059556934229638626 0.022656283691640855 0.01714460575310015
v -0.060393603565538606 0.02452804158631345 0.017111934097518742
v -0.06007631384687927 0.02246665016354735 0.017147915818645592
v -0.05966923435082125 0.0198211452782645 0.01719409327818612
v -0.05923785819060612 0.017090236619021183 0.01724176146614624
v -0.05772483733472698 0.007521381581382732 0.01740878645211692
v -0.05696832690678747 0.002736954062563513 0.017492298945102267
v -0.05658860531408158 0.00035151976812077885 0.017533936855593756
v -0.056192914685843774 -0.0019458034372823757 0.01757403678130517
v -0.055839000503248366 -0.003998926079372014 0.01760987417032844
v -0.03790267322865144 0.0017519056688734423 0.017509493028771562
v -0.03933796266646627 0.003926902590440752 0.01747152831628693
v -0.04083681624974258 0.006138779669821919 0.017432919858253095
v -0.04384462879456248 0.010567792572957436 0.01735561115046095
v -0.05157833795319407 0.021954938735826598 0.01715684777484096
v -0.05327525542922217 0.02443385552314709 0.017113578121366636

vn -3.1622776601681946e-01 9.4853880898917586e-01 -1.6556806497852062e-02
vn -3.1622776601687619e-01 9.4853880898916632e-01 -1.6556806497322749e-02
vn -3.1622776601685471e-01 9.4853880898916410e-01 -1.6556806497850182e-02
vn -3.1622776601685071e-01 9.4853880898916010e-01 -1.6556806498165613e-02
vn -3.1622776601695574e-01 9.4853880898913912e-01 -1.6556806497348461e-02
vn -3.1622776601680730e-01 9.4853880898917253e-01 -1.6556806498278284e-02
vn -3.1622776601682695e-01 9.4853880898918075e-01 -1.6556806497439517e-02
vn -3.1622776601682673e-01 9.4853880898917342e-01 -1.6556806497862800e-02
vn -3.1622776601686037e-01 9.4853880898917176e-01 -1.6556806497307903e-02
vn -3.1622776601684760e-01 9.4853880898917076e-01 -1.6556806497611501e-02
vn -3.1622776601681557e-01 9.4853880898919918e-01 -1.6556806496597336e-02
vn -3.1622776601685715e-01 9.4853880898918408e-01 -1.6556806496656040e-02
vn -3.1622776601681607e-01 9.4853880898918175e-01 -1.6556806497584561e-02
vn -3.1622776601680608e-01 9.4853880898918841e-01 -1.6556806497392790e-02
vn -3.1622776601681019e-01 9.4853880898918219e-01 -1.6556806497669597e-02
vn -3.1622776601683428e-01 9.4853880898917664e-01 -1.6556806497527971e-02
vn -3.1622776601682517e-01 9.4853880898917209e-01 -1.6556806497962762e-02
vn -3.1622776601694030e-01 9.4853880898914111e-01 -1.6556806497539621e-02
vn -3.1622776601682434e-01 9.4853880898917653e-01 -1.6556806497722412e-02
vn -3.1622776601681402e-01 9.4853880898917509e-01 -1.6556806498006355e-02
vn -3.1622776601683450e-01 9.4853880898920129e-01 -1.6556806496109678e-02
vn -3.1622776601684049e-01 9.4853880898917675e-01 -1.6556806497403039e-02
vn -3.1622776601680214e-01 9.4853880898918175e-01 -1.6556806497849651e-02
vn -3.1622776601684632e-01 9.4853880898916421e-01 -1.6556806498010466e-02
vn -3.1622776601685332e-01 9.4853880898916554e-01 -1.6556806497808097e-02
vn -3.1622776601683511e-01 9.4853880898916987e-01 -1.6556806497901443e-02
vn -3.1622776601678698e-01 9.4853880898918552e-01 -1.6556806497925399e-02
vn -3.1622776601685165e-01 9.4853880898916232e-01 -1.6556806498012423e-02
vn -3.1622776601686814e-01 9.4853880898916088e-01 -1.6556806497779471e-02
vn -3.1622776601682595e-01 9.4853880898917498e-01 -1.6556806497785685e-02
vn -3.1622776601687536e-01 9.4853880898915910e-01 -1.6556806497742368e-02
vn -3.1622776601690222e-01 9.4853880898914933e-01 -1.6556806497782527e-02
vn -3.1622776601681024e-01 9.4853880898917498e-01 -1.6556806498072646e-02
vn -3.1622776601679364e-01 9.4853880898918463e-01 -1.6556806497842049e-02
vn -3.1622776601674729e-01 9.4853880898920218e-01 -1.6556806497722617e-02
vn -3.1622776601689501e-01 9.4853880898915000e-01 -1.6556806497889456e-02
vn -3.1622776601690267e-01 9.4853880898914888e-01 -1.6556806497818023e-02
vn -3.1622776601684283e-01 9.4853880898916121e-01 -1.6556806498246250e-02
vn -3.1622776601683222e-01 9.4853880898917520e-01 -1.6556806497647777e-02
vn -3.1622776601683772e-01 9.4853880898916454e-01 -1.6556806498150813e-02
vn -3.1622776601683522e-01 9.4853880898916576e-01 -1.6556806498140956e-02
vn -3.1622776601682140e-01 9.4853880898917753e-01 -1.6556806497727956e-02
vn -3.1622776601684710e-01 9.4853880898916587e-01 -1.6556806497895718e-02
vn -3.1622776601682639e-01 9.4853880898917653e-01 -1.6556806497677025e-02
vn -3.1622776601682978e-01 9.4853880898917131e-01 -1.6556806497927446e-02
vn -3.1622776601680180e-01 9.4853880898918053e-01 -1.6556806497929191e-02
vn -3.1622776601690034e-01 9.4853880898914933e-01 -1.6556806497828768e-02
vn -3.1622776601684627e-01 9.4853880898916643e-01 -1.6556806497884727e-02
vn -3.1622776601684494e-01 9.4853880898916076e-01 -1.6556806498238489e-02
vn -3.1622776601682440e-01 9.4853880898917209e-01 -1.6556806497976626e-02
vn -3.1622776601683728e-01 9.4853880898917775e-01 -1.6556806497403515e-02
vn -3.1622776601678282e-01 9.4853880898919463e-01 -1.6556806497481223e-02
vn -3.1622776601682889e-01 9.4853880898917331e-01 -1.6556806497822842e-02
vn -3.1622776601684049e-01 9.4853880898916620e-01 -1.6556806498011608e-02
vn -3.1622776601683050e-01 9.4853880898917664e-01 -1.6556806497598612e-02
vn -3.1622776601685426e-01 9.4853880898917653e-01 -1.6556806497153822e-02
vn -3.1622776601683444e-01 9.4853880898916654e-01 -1.6556806498100676e-02
vn -3.1622776601684444e-01 9.4853880898919107e-01 -1.6556806496502638e-02
vn -3.1622776601684693e-01 9.4853880898918541e-01 -1.6556806496772998e-02
vn -3.1622776601683411e-01 9.4853880898918252e-01 -1.6556806497196416e-02
vn -3.1622776601683966e-01 9.4853880898916865e-01 -1.6556806497886475e-02
vn -3.1622776601684444e-01 9.4853880898916809e-01 -1.6556806497823647e-02
vn -3.1622776601684843e-01 9.4853880898916998e-01 -1.6556806497635284e-02
vn -3.1622776601683977e-01 9.4853880898916398e-01 -1.6556806498137729e-02
vn -3.1622776601683439e-01 9.4853880898916554e-01 -1.6556806498155777e-02
vn -3.1622776601682079e-01 9.4853880898917464e-01 -1.6556806497899403e-02
vn -3.1622776601686398e-01 9.4853880898916043e-01 -1.6556806497880508e-02
vn -3.1622776601686403e-01 9.4853880898916232e-01 -1.6556806497778104e-02
vn -3.1622776601685926e-01 9.4853880898915699e-01 -1.6556806498179245e-02
vn -3.1622776601685443e-01 9.4853880898916432e-01 -1.6556806497848509e-02
vn -3.1622776601686542e-01 9.4853880898915099e-01 -1.6556806498398979e-02
vn -3.1622776601684377e-01 9.4853880898916754e-01 -1.6556806497859893e-02
vn -9.9273378203371121e-01 -1.2031304046910483e-01 2.1000719328966412e-03
vn -9.9273378203371043e-01 -1.2031304046909831e-01 2.1000719336672674e-03
vn -9.9273378203370766e-01 -1.2031304046913022e-01 2.1000719331012246e-03
vn -9.9273378203370777e-01 -1.2031304046913407e-01 2.1000719329295980e-03
vn -9.9273378203371121e-01 -1.2031304046909043e-01 2.1000719337880449e-03
vn -9.9273378203370954e-01 -1.2031304046911651e-01 2.1000719331231285e-03
vn -9.9273378203370910e-01 -1.2031304046912052e-01 2.1000719330324484e-03
vn -9.9273378203371021e-01 -1.2031304046910797e-01 2.1000719332140640e-03
vn -9.9273378203370788e-01 -1.2031304046913011e-01 2.1000719330620849e-03
vn -9.9273378203370655e-01 -1.2031304046913946e-01 2.1000719331342940e-03
vn -9.9273378203369722e-01 -1.2031304046921765e-01 2.1000719330996013e-03
vn -9.9273378203370810e-01 -1.2031304046913247e-01 2.1000719328449040e-03
vn -9.9273378203370855e-01 -1.2031304046912496e-01 2.1000719330207872e-03
vn -9.9273378203370866e-01 -1.2031304046911941e-01 2.1000719332832040e-03
vn -9.9273378203370866e-01 -1.2031304046912658e-01 2.1000719329359548e-03
vn -9.9273378203370755e-01 -1.2031304046912356e-01 2.1000719335696346e-03
vn -9.9273378203370810e-01 -1.2031304046914107e-01 2.1000719323223407e-03
vn -9.9273378203370888e-01 -1.2031304046912521e-01 2.1000719328886442e-03
vn -9.9273378203370821e-01 -1.2031304046912966e-01 2.1000719329558200e-03
vn -9.9273378203372042e-01 -1.2031304046902576e-01 2.1000719330992951e-03
vn -9.9273378203370743e-01 -1.2031304046913745e-01 2.1000719328896898e-03
vn -9.9273378203371243e-01 -1.2031304046908768e-01 2.1000719333012603e-03
vn -9.9273378203370921e-01 -1.2031304046912041e-01 2.1000719329771853e-03
vn -9.9273378203370899e-01 -1.2031304046912931e-01 2.1000719326025345e-03
vn -9.9273378203370599e-01 -1.2031304046914663e-01 2.1000719330166416e-03
vn -9.9273378203370666e-01 -1.2031304046913728e-01 2.1000719332039909e-03
vn -9.9273378203370877e-01 -1.2031304046912643e-01 2.1000719328485786e-03
vn -9.9273378203370866e-01 -1.2031304046913725e-01 2.1000719323147204e-03
vn -9.9273378203370810e-01 -1.2031304046905648e-01 2.1000719371458607e-03
vn -9.9273378203370832e-01 -1.2031304046914380e-01 2.1000719320626851e-03
vn -9.9273378203370799e-01 -1.2031304046912769e-01 2.1000719331508862e-03
vn -9.9273378203370755e-01 -1.2031304046913102e-01 2.1000719331447587e-03
vn -9.9273378203370888e-01 -1.2031304046911881e-01 2.1000719332460970e-03
vn -9.9273378203370999e-01 -1.2031304046911223e-01 2.1000719330841774e-03
vn -9.9273378203370777e-01 -1.2031304046913287e-01 2.1000719329294904e-03
vn -9.9273378203370921e-01 -1.2031304046911930e-01 2.1000719330354981e-03
vn -9.9273378203370910e-01 -1.2031304046911938e-01 2.1000719330880719e-03
vn -9.9273378203371176e-01 -1.2031304046909864e-01 2.1000719330446010e-03
vn -9.9273378203370899e-01 -1.2031304046912510e-01 2.1000719328188788e-03
vn -9.9273378203370777e-01 -1.2031304046913027e-01 2.1000719331010129e-03
vn -9.9273378203370777e-01 -1.2031304046912870e-01 2.1000719332277150e-03
vn -9.9273378203371032e-01 -1.2031304046910669e-01 2.1000719332420720e-03
vn -9.9273378203370843e-01 -1.2031304046911748e-01 2.1000719335546934e-03
vn -9.9273378203370777e-01 -1.2031304046913931e-01 2.1000719325903788e-03
vn -9.9273378203370777e-01 -1.2031304046913689e-01 2.1000719326993594e-03
vn -9.9273378203370755e-01 -1.2031304046912540e-01 2.1000719334746177e-03
vn -9.9273378203371043e-01 -1.2031304046911137e-01 2.1000719329117585e-03
vn -9.9273378203370555e-01 -1.2031304046914604e-01 2.1000719332606942e-03
vn -9.9273378203370777e-01 -1.2031304046912858e-01 2.1000719331667962e-03
vn -9.9273378203370832e-01 -1.2031304046912683e-01 2.1000719330611082e-03
vn -9.9273378203370855e-01 -1.2031304046912625e-01 2.1000719329700378e-03
vn -9.9273378203370888e-01 -1.2031304046910229e-01 2.1000719342190075e-03
vn -9.9273378203370855e-01 -1.2031304046913435e-01 2.1000719324849558e-03
vn -9.9273378203370855e-01 -1.2031304046912256e-01 2.1000719332046397e-03
vn -9.9273378203370866e-01 -1.2031304046911442e-01 2.1000719336243556e-03
vn -9.9273378203370866e-01 -1.2031304046911004e-01 2.1000719338627283e-03
vn -9.9273378203370821e-01 -1.2031304046918057e-01 2.1000719300379965e-03
vn -9.9273378203370788e-01 -1.2031304046912286e-01 2.1000719335028651e-03
vn -9.9273378203370910e-01 -1.2031304046912758e-01 2.1000719326547887e-03
vn -9.9273378203371354e-01 -1.2031304046908382e-01 2.1000719330011713e-03
vn -9.9273378203370966e-01 -1.2031304046911172e-01 2.1000719332886215e-03
vn -9.9273378203370777e-01 -1.2031304046913745e-01 2.1000719326976351e-03
vn -9.9273378203370777e-01 -1.2031304046912272e-01 2.1000719334637414e-03
vn -9.9273378203370843e-01 -1.2031304046913580e-01 2.1000719324780399e-03
vn -9.9273378203370855e-01 -1.2031304046912056e-01 2.1000719333029608e-03
vn -9.9273378203370855e-01 -1.2031304046913041e-01 2.1000719327505775e-03
vn -9.9273378203370866e-01 -1.2031304046911581e-01 2.1000719334801606e-03
vn -9.9273378203370921e-01 -1.2031304046911361e-01 2.1000719333641770e-03
vn -9.9273378203370799e-01 -1.2031304046913348e-01 2.1000719328147584e-03
vn -9.9273378203370888e-01 -1.2031304046912079e-01 2.1000719331842137e-03
vn -9.9273378203370721e-01 -1.2031304046913688e-01 2.1000719330060732e-03
vn -9.9273378203370832e-01 -1.2031304046912097e-01 2.1000719334050345e-03
vn 1.9611613513818363e-01 -9.8043132850446313e-01 1.7113492496720225e-02
vn 1.9611613513818535e-01 -9.8043132850446435e-01 1.7113492496631223e-02
vn 1.9611613513818460e-01 -9.8043132850446302e-01 1.7113492496712780e-02
vn 1.9611613513818635e-01 -9.8043132850446268e-01 1.7113492496713366e-02
vn 1.9611613513818668e-01 -9.8043132850446324e-01 1.7113492496678075e-02
vn 1.9611613513818657e-01 -9.8043132850446257e-01 1.7113492496714604e-02
vn 1.9611613513818557e-01 -9.8043132850446302e-01 1.7113492496708949e-02
vn 1.9611613513818377e-01 -9.8043132850446346e-01 1.7113492496702038e-02
vn 1.9611613513818851e-01 -9.8043132850446235e-01 1.7113492496710053e-02
vn 1.9611613513818968e-01 -9.8043132850446202e-01 1.7113492496719118e-02
vn 1.9611613513819270e-01 -9.8043132850446169e-01 1.7113492496704321e-02
vn 1.9611613513818479e-01 -9.8043132850446257e-01 1.7113492496730432e-02
vn 1.9611613513818330e-01 -9.8043132850446368e-01 1.7113492496688931e-02
vn 1.9611613513818327e-01 -9.8043132850446235e-01 1.7113492496763964e-02
vn 1.9611613513818546e-01 -9.8043132850446313e-01 1.7113492496691779e-02
vn 1.9611613513818360e-01 -9.8043132850446468e-01 1.7113492496617085e-02
vn 1.9611613513818416e-01 -9.8043132850446202e-01 1.7113492496779712e-02
vn 1.9611613513818521e-01 -9.8043132850446291e-01 1.7113492496708845e-02
vn 1.9611613513818157e-01 -9.8043132850446291e-01 1.7113492496758399e-02
vn 1.9611613513820075e-01 -9.8043132850446024e-01 1.7113492496688799e-02
vn 1.9611613513818743e-01 -9.8043132850446280e-01 1.7113492496690311e-02
vn 1.9611613513819254e-01 -9.8043132850446058e-01 1.7113492496764020e-02
vn 1.9611613513818676e-01 -9.8043132850446280e-01 1.7113492496706101e-02
vn 1.9611613513818565e-01 -9.8043132850446324e-01 1.7113492496690867e-02
vn 1.9611613513818643e-01 -9.8043132850446302e-01 1.7113492496694142e-02
vn 1.9611613513818446e-01 -9.8043132850446346e-01 1.7113492496684861e-02
vn 1.9611613513818388e-01 -9.8043132850446191e-01 1.7113492496780298e-02
vn 1.9611613513818416e-01 -9.8043132850446246e-01 1.7113492496752564e-02
vn 1.9611613513818374e-01 -9.8043132850446291e-01 1.7113492496725259e-02
vn 1.9611613513818324e-01 -9.8043132850446013e-01 1.7113492496891154e-02
vn 1.9611613513818404e-01 -9.8043132850446368e-01 1.7113492496686474e-02
vn 1.9611613513818352e-01 -9.8043132850445724e-01 1.7113492497049809e-02
vn 1.9611613513818396e-01 -9.8043132850446346e-01 1.7113492496693243e-02
vn 1.9611613513818393e-01 -9.8043132850446291e-01 1.7113492496724194e-02
vn 1.9611613513818446e-01 -9.8043132850446368e-01 1.7113492496673981e-02
vn 1.9611613513818479e-01 -9.8043132850446324e-01 1.7113492496700571e-02
vn 1.9611613513818374e-01 -9.8043132850446335e-01 1.7113492496699138e-02
vn 1.9611613513818382e-01 -9.8043132850446235e-01 1.7113492496758219e-02
vn 1.9611613513818418e-01 -9.8043132850446379e-01 1.7113492496676236e-02
vn 1.9611613513818460e-01 -9.8043132850446324e-01 1.7113492496702111e-02
vn 1.9611613513818299e-01 -9.8043132850446357e-01 1.7113492496695418e-02
vn 1.9611613513818685e-01 -9.8043132850446446e-01 1.7113492496605449e-02
vn 1.9611613513818338e-01 -9.8043132850446402e-01 1.7113492496674938e-02
vn 1.9611613513818463e-01 -9.8043132850446335e-01 1.7113492496696105e-02
vn 1.9611613513818402e-01 -9.8043132850446313e-01 1.7113492496712783e-02
vn 1.9611613513818382e-01 -9.8043132850446379e-01 1.7113492496674786e-02
vn 1.9611613513818091e-01 -9.8043132850446346e-01 1.7113492496727670e-02
vn 1.9611613513818205e-01 -9.8043132850446402e-01 1.7113492496684913e-02
vn 1.9611613513818302e-01 -9.8043132850446379e-01 1.7113492496688712e-02
vn 1.9611613513818396e-01 -9.8043132850446391e-01 1.7113492496678574e-02
vn 1.9611613513818466e-01 -9.8043132850446268e-01 1.7113492496730508e-02
vn 1.9611613513818252e-01 -9.8043132850446346e-01 1.7113492496707947e-02
vn 1.9611613513818446e-01 -9.8043132850446402e-01 1.7113492496654756e-02
vn 1.9611613513818155e-01 -9.8043132850446513e-01 1.7113492496631466e-02
vn 1.9611613513818363e-01 -9.8043132850446324e-01 1.7113492496711871e-02
vn 1.9611613513818435e-01 -9.8043132850446457e-01 1.7113492496617002e-02
vn 1.9611613513818399e-01 -9.8043132850446146e-01 1.7113492496803658e-02
vn 1.9611613513818199e-01 -9.8043132850446346e-01 1.7113492496714518e-02
vn 1.9611613513818327e-01 -9.8043132850446335e-01 1.7113492496706424e-02
vn 1.9611613513818626e-01 -9.8043132850446268e-01 1.7113492496709955e-02
vn 1.9611613513818540e-01 -9.8043132850446146e-01 1.7113492496795953e-02
vn 1.9611613513818460e-01 -9.8043132850446180e-01 1.7113492496775545e-02
vn 1.9611613513818410e-01 -9.8043132850446513e-01 1.7113492496594551e-02
vn 1.9611613513818402e-01 -9.8043132850446368e-01 1.7113492496670851e-02
vn 1.9611613513818413e-01 -9.8043132850446602e-01 1.7113492496549698e-02
vn 1.9611613513818371e-01 -9.8043132850446313e-01 1.7113492496718546e-02
vn 1.9611613513818393e-01 -9.8043132850446391e-01 1.7113492496673918e-02
vn 1.9611613513818468e-01 -9.8043132850446257e-01 1.7113492496734918e-02
vn 1.9611613513818404e-01 -9.8043132850446402e-01 1.7113492496667569e-02
vn 1.9611613513818474e-01 -9.8043132850446302e-01 1.7113492496706982e-02
vn 1.9611613513818368e-01 -9.8043132850446391e-01 1.7113492496677134e-02
vn 1.9611613513818379e-01 -9.8043132850446102e-01 1.7113492496843921e-02
vn 7.9360636129191431e-01 6.0833887658603913e-01 -1.0618594588914055e-02
vn 7.9360636129191486e-01 6.0833887658603902e-01 -1.0618594588848864e-02
vn 7.9360636129191275e-01 6.0833887658603614e-01 -1.0618594589174711e-02
vn 7.9360636129191253e-01 6.0833887658603436e-01 -1.0618594589315291e-02
vn 7.9360636129190509e-01 6.0833887658603725e-01 -1.0618594589687416e-02
vn 7.9360636129192086e-01 6.0833887658601726e-01 -1.0618594589675174e-02
vn 7.9360636129191020e-01 6.0833887658604058e-01 -1.0618594589136983e-02
vn 7.9360636129192019e-01 6.0833887658602559e-01 -1.0618594589235402e-02
vn 7.9360636129191686e-01 6.0833887658603070e-01 -1.0618594589189106e-02
vn 7.9360636129191720e-01 6.0833887658602948e-01 -1.0618594589241873e-02
vn 7.9360636129190842e-01 6.0833887658604291e-01 -1.0618594589124505e-02
vn 7.9360636129191753e-01 6.0833887658603114e-01 -1.0618594589127329e-02
vn 7.9360636129191775e-01 6.0833887658603014e-01 -1.0618594589157423e-02
vn 7.9360636129191742e-01 6.0833887658603247e-01 -1.0618594589047084e-02
vn 7.9360636129191864e-01 6.0833887658602659e-01 -1.0618594589299358e-02
vn 7.9360636129191331e-01 6.0833887658600361e-01 -1.0618594591006402e-02
vn 7.9360636129191409e-01 6.0833887658604813e-01 -1.0618594588404664e-02
vn 7.9360636129191575e-01 6.0833887658602248e-01 -1.0618594589743761e-02
vn 7.9360636129191398e-01 6.0833887658604024e-01 -1.0618594588856790e-02
vn 7.9360636129191653e-01 6.0833887658603059e-01 -1.0618594589229912e-02
vn 7.9360636129191542e-01 6.0833887658603447e-01 -1.0618594589070883e-02
vn 7.9360636129194873e-01 6.0833887658598962e-01 -1.0618594589167592e-02
vn 7.9360636129191631e-01 6.0833887658603203e-01 -1.0618594589151832e-02
vn 7.9360636129192197e-01 6.0833887658602293e-01 -1.0618594589257470e-02
vn 7.9360636129191597e-01 6.0833887658603336e-01 -1.0618594589117937e-02
vn 7.9360636129191475e-01 6.0833887658603547e-01 -1.0618594589068395e-02
vn 7.9360636129191708e-01 6.0833887658603625e-01 -1.0618594588866425e-02
vn 7.9360636129191964e-01 6.0833887658602492e-01 -1.0618594589313289e-02
vn 7.9360636129191653e-01 6.0833887658602648e-01 -1.0618594589459891e-02
vn 7.9360636129191431e-01 6.0833887658604779e-01 -1.0618594588400282e-02
vn 7.9360636129191608e-01 6.0833887658603603e-01 -1.0618594588951504e-02
vn 7.9360636129191631e-01 6.0833887658603580e-01 -1.0618594588930653e-02
vn 7.9360636129191464e-01 6.0833887658604424e-01 -1.0618594588592925e-02
vn 7.9360636129191753e-01 6.0833887658603292e-01 -1.0618594589006665e-02
vn 7.9360636129191509e-01 6.0833887658604324e-01 -1.0618594588599784e-02
vn 7.9360636129191975e-01 6.0833887658602159e-01 -1.0618594589496851e-02
vn 7.9360636129191475e-01 6.0833887658603647e-01 -1.0618594589027065e-02
vn 7.9360636129191175e-01 6.0833887658603814e-01 -1.0618594589159884e-02
vn 7.9360636129191120e-01 6.0833887658603969e-01 -1.0618594589110835e-02
vn 7.9360636129190665e-01 6.0833887658604635e-01 -1.0618594589053381e-02
vn 7.9360636129192008e-01 6.0833887658603247e-01 -1.0618594588849509e-02
vn 7.9360636129191520e-01 6.0833887658603580e-01 -1.0618594589014608e-02
vn 7.9360636129191287e-01 6.0833887658603625e-01 -1.0618594589173637e-02
vn 7.9360636129191575e-01 6.0833887658603270e-01 -1.0618594589159780e-02
vn 7.9360636129191298e-01 6.0833887658603125e-01 -1.0618594589453446e-02
vn 7.9360636129191398e-01 6.0833887658602837e-01 -1.0618594589550744e-02
vn 7.9360636129191731e-01 6.0833887658602592e-01 -1.0618594589433126e-02
vn 7.9360636129191797e-01 6.0833887658602981e-01 -1.0618594589159213e-02
vn 7.9360636129191386e-01 6.0833887658603414e-01 -1.0618594589219980e-02
vn 7.9360636129191231e-01 6.0833887658603847e-01 -1.0618594589081843e-02
vn 7.9360636129191831e-01 6.0833887658602992e-01 -1.0618594589137114e-02
vn 7.9360636129191520e-01 6.0833887658603381e-01 -1.0618594589144235e-02
vn 7.9360636129191653e-01 6.0833887658602992e-01 -1.0618594589250650e-02
vn 7.9360636129191486e-01 6.0833887658603292e-01 -1.0618594589206169e-02
vn 7.9360636129191764e-01 6.0833887658602881e-01 -1.0618594589239491e-02
vn 7.9360636129191564e-01 6.0833887658603403e-01 -1.0618594589100526e-02
vn 7.9360636129191675e-01 6.0833887658602792e-01 -1.0618594589362058e-02
vn 7.9360636129191453e-01 6.0833887658603025e-01 -1.0618594589394939e-02
vn 7.9360636129191464e-01 6.0833887658602659e-01 -1.0618594589594764e-02
vn 7.9360636129191542e-01 6.0833887658602481e-01 -1.0618594589641789e-02
vn 7.9360636129191597e-01 6.0833887658603214e-01 -1.0618594589178939e-02
vn 7.9360636129191642e-01 6.0833887658601404e-01 -1.0618594590176162e-02
vn 7.9360636129191797e-01 6.0833887658602748e-01 -1.0618594589296352e-02
vn 7.9360636129191731e-01 6.0833887658603680e-01 -1.0618594588815316e-02
vn 7.9360636129191542e-01 6.0833887658603281e-01 -1.0618594589180236e-02
vn 7.9360636129191675e-01 6.0833887658603070e-01 -1.0618594589193498e-02
vn 7.9360636129191786e-01 6.0833887658602970e-01 -1.0618594589173525e-02
vn 7.9360636129191597e-01 6.0833887658603270e-01 -1.0618594589134670e-02
vn 7.9360636129191697e-01 6.0833887658603181e-01 -1.0618594589119521e-02
vn 7.9360636129191853e-01 6.0833887658603314e-01 -1.0618594588928668e-02
vn 7.9360636129191720e-01 6.0833887658604047e-01 -1.0618594588597161e-02
vn 7.9360636129191531e-01 6.0833887658603147e-01 -1.0618594589268754e-02
vn 7.9360636129191853e-01 6.0833887658603225e-01 -1.0618594588981463e-02
vn 7.9360636129191597e-01 6.0833887658604235e-01 -1.0618594588588043e-02
vn 7.9360636129191275e-01 6.0833887658603925e-01 -1.0618594589020241e-02
vn 7.9360636129191675e-01 6.0833887658602159e-01 -1.0618594589728178e-02
vn 7.9360636129191164e-01 6.0833887658604446e-01 -1.0618594588788097e-02
vn 7.9360636129191475e-01 6.0833887658603714e-01 -1.0618594588971610e-02
vn 7.9360636129191398e-01 6.0833887658603225e-01 -1.0618594589308391e-02
vn 4.4506252559528221e-15 1.7452406437288837e-02 9.9984769515639116e-01
vn -3.4902281712248484e-15 1.7452406437271552e-02 9.9984769515639149e-01
vn -8.7511423717669885e-15 1.7452406437273301e-02 9.9984769515639138e-01
vn -2.3915288618527443e-14 1.7452406437264169e-02 9.9984769515639160e-01
vn -5.1592767447051012e-15 1.7452406437274529e-02 9.9984769515639149e-01
vn -1.9032287429329467e-14 1.7452406437266327e-02 9.9984769515639160e-01
vn 2.9248999808871536e-15 1.7452406437286846e-02 9.9984769515639116e-01
vn -2.2110708126385310e-16 1.7452406437295613e-02 9.9984769515639105e-01
vn -3.6314562608674219e-15 1.7452406437283446e-02 9.9984769515639116e-01
vn 2.8104398496038826e-15 1.7452406437295415e-02 9.9984769515639105e-01
vn -3.0277348655223248e-15 1.7452406437297018e-02 9.9984769515639116e-01
vn -4.0794867100860657e-15 1.7452406437277575e-02 9.9984769515639127e-01
vn 5.7366880187495357e-15 1.7452406437283265e-02 9.9984769515639127e-01
vn 3.5170400413019838e-15 1.7452406437285222e-02 9.9984769515639138e-01
vn -8.2271930363746293e-15 1.7452406437285038e-02 9.9984769515639105e-01
vn 5.9797432212612535e-15 1.7452406437284251e-02 9.9984769515639127e-01
vn -2.5497944303262984e-14 1.7452406437282134e-02 9.9984769515639116e-01
vn -2.1351177696644187e-14 1.7452406437276104e-02 9.9984769515639138e-01
vn -3.5586634504436680e-14 1.7452406437277284e-02 9.9984769515639138e-01
vn 6.0936116926942153e-15 1.7452406437279838e-02 9.9984769515639138e-01
vn -6.0446069988610696e-16 1.7452406437284095e-02 9.9984769515639127e-01
vn -2.7752301339364300e-15 1.7452406437283064e-02 9.9984769515639127e-01
vn 9.8354924496317195e-16 1.7452406437280320e-02 9.9984769515639127e-01
vn 6.9068800199547777e-15 1.7452406437283536e-02 9.9984769515639127e-01
vn -4.9884178458258682e-15 1.7452406437282846e-02 9.9984769515639127e-01
vn -6.3546883074349756e-15 1.7452406437280361e-02 9.9984769515639127e-01
vn 1.6646802900949546e-15 1.7452406437284480e-02 9.9984769515639116e-01
vn 2.5668443972305258e-16 1.7452406437284365e-02 9.9984769515639116e-01
vn 1.2636970493452586e-15 1.7452406437285798e-02 9.9984769515639116e-01
vn 2.3933156920560898e-15 1.7452406437284469e-02 9.9984769515639127e-01
vn 3.9819377230162923e-15 1.7452406437288598e-02 9.9984769515639105e-01
vn 1.2502041418438398e-15 1.7452406437284542e-02 9.9984769515639127e-01
vn 4.4171534278693638e-15 1.7452406437276587e-02 9.9984769515639149e-01
vn -2.8097180846621023e-15 1.7452406437285264e-02 9.9984769515639127e-01
vn -1.0451901325817967e-14 1.7452406437278023e-02 9.9984769515639127e-01
vn -1.2801008143023216e-15 1.7452406437287262e-02 9.9984769515639116e-01
vn -6.9583723827128635e-16 1.7452406437281770e-02 9.9984769515639127e-01
vn 4.2777496860434853e-15 1.7452406437285791e-02 9.9984769515639127e-01
vn 2.4661695850957102e-15 1.7452406437286763e-02 9.9984769515639116e-01
vn -3.8975368967985125e-15 1.7452406437285482e-02 9.9984769515639127e-01
vn -5.9349055142803413e-17 1.7452406437282651e-02 9.9984769515639116e-01
vn 1.1370832252042822e-15 1.7452406437283841e-02 9.9984769515639116e-01
vn 2.7439271941856618e-15 1.7452406437283758e-02 9.9984769515639127e-01
vn -4.8057285652973496e-15 1.7452406437283824e-02 9.9984769515639138e-01
vn 1.1891091123243155e-14 1.7452406437286773e-02 9.9984769515639127e-01
vn -2.5760540221168287e-14 1.7452406437281295e-02 9.9984769515639138e-01
vn 1.0655545020712510e-14 1.7452406437286822e-02 9.9984769515639116e-01
vn 2.4094112002237086e-14 1.7452406437287335e-02 9.9984769515639116e-01
vn -3.6580450172661762e-15 1.7452406437282283e-02 9.9984769515639116e-01
vn 4.2312370070218665e-15 1.7452406437283661e-02 9.9984769515639116e-01
vn -3.8028778338174016e-15 1.7452406437282797e-02 9.9984769515639127e-01
vn 4.7276445369842609e-15 1.7452406437285045e-02 9.9984769515639127e-01
vn 3.4195575683312629e-15 1.7452406437286010e-02 9.9984769515639116e-01
vn -1.4742570881525660e-15 1.7452406437275837e-02 9.9984769515639138e-01
vn -4.1501797206990427e-16 1.7452406437286787e-02 9.9984769515639116e-01
vn 3.6690922110694321e-15 1.7452406437261696e-02 9.9984769515639160e-01
vn 3.5796528072748924e-16 1.7452406437283227e-02 9.9984769515639138e-01
vn 4.7298881909625795e-15 1.7452406437279716e-02 9.9984769515639127e-01
vn 1.3454884405583461e-15 1.7452406437283692e-02 9.9984769515639127e-01
vn 3.3731243638610299e-15 1.7452406437282481e-02 9.9984769515639127e-01
vn 2.8196092451266859e-16 1.7452406437289389e-02 9.9984769515639116e-01
vn 2.5508502817930126e-15 1.7452406437288598e-02 9.9984769515639116e-01
vn -8.0677013409954453e-16 1.7452406437287904e-02 9.9984769515639127e-01
vn -5.3202018722444032e-16 1.7452406437285926e-02 9.9984769515639116e-01
vn 3.3150483220651736e-15 1.7452406437279518e-02 9.9984769515639127e-01
vn -1.9903882690344233e-14 1.7452406437269339e-02 9.9984769515639138e-01
vn 6.5455201176741931e-14 1.7452406437333770e-02 9.9984769515639038e-01
vn 6.1986603896251455e-15 1.7452406437286259e-02 9.9984769515639127e-01
vn 7.3103332491021193e-15 1.7452406437286370e-02 9.9984769515639116e-01
vn 1.3651624607866344e-14 1.7452406437293001e-02 9.9984769515639116e-01
vn 2.3564357078981697e-15 1.7452406437285430e-02 9.9984769515639127e-01
vn -3.8525878920573226e-15 1.7452406437281208e-02 9.9984769515639127e-01
vn -1.6954802303543848e-15 1.7452406437283498e-02 9.9984769515639127e-01
vn -8.0106918943179618e-16 1.7452406437285992e-02 9.9984769515639127e-01
vn -3.3475175408986329e-15 1.7452406437281496e-02 9.9984769515639127e-01
vn -3.1192545847884598e-15 1.7452406437280816e-02 9.9984769515639127e-01
vn 2.3971229967302022e-14 1.7452406437301244e-02 9.9984769515639083e-01
vn 2.2793986078698978e-15 1.7452406437284795e-02 9.9984769515639127e-01
vn -4.1794413886422651e-15 1.7452406437283557e-02 9.9984769515639127e-01
vn -7.8454918625933140e-15 -1.7452406437293188e-02 -9.9984769515639105e-01
vn 1.5600020508823852e-15 -1.7452406437282946e-02 -9.9984769515639127e-01
vn -4.4519450711559102e-15 -1.7452406437286974e-02 -9.9984769515639116e-01
vn 3.2635072136275025e-15 -1.7452406437277537e-02 -9.9984769515639127e-01
vn 6.1209021104771111e-15 -1.7452406437285017e-02 -9.9984769515639127e-01
vn 1.2613023627543882e-14 -1.7452406437261560e-02 -9.9984769515639160e-01
vn 1.0094755615896886e-15 -1.7452406437285416e-02 -9.9984769515639116e-01
vn -1.9263817832907203e-15 -1.7452406437286180e-02 -9.9984769515639116e-01
vn -1.1789157184390768e-15 -1.7452406437284927e-02 -9.9984769515639116e-01
vn -6.6836846151139964e-15 -1.7452406437287803e-02 -9.9984769515639105e-01
vn 3.8121302513063563e-14 -1.7452406437253518e-02 -9.9984769515639182e-01
vn 3.8851985925044310e-15 -1.7452406437280826e-02 -9.9984769515639127e-01
vn -7.1769645268874560e-15 -1.7452406437289427e-02 -9.9984769515639116e-01
vn 2.3824937330849687e-15 -1.7452406437280667e-02 -9.9984769515639127e-01
vn 2.3667506257927164e-15 -1.7452406437280757e-02 -9.9984769515639127e-01
vn 1.0235376439118607e-14 -1.7452406437276049e-02 -9.9984769515639138e-01
vn 1.6915038709740041e-15 -1.7452406437285406e-02 -9.9984769515639127e-01
vn -2.2619712783327513e-15 -1.7452406437285323e-02 -9.9984769515639127e-01
vn -3.5465707800099975e-15 -1.7452406437287068e-02 -9.9984769515639116e-01
vn 1.7901736557971220e-15 -1.7452406437283151e-02 -9.9984769515639127e-01
vn -3.7991818860229489e-17 -1.7452406437281957e-02 -9.9984769515639127e-01
vn 8.8358212465763897e-16 -1.7452406437283238e-02 -9.9984769515639116e-01
vn 1.9499986778602853e-16 -1.7452406437282377e-02 -9.9984769515639127e-01
vn -7.6794481413944553e-15 -1.7452406437252280e-02 -9.9984769515639182e-01
vn 1.8252909595638029e-15 -1.7452406437277475e-02 -9.9984769515639127e-01
vn -1.8117774182401417e-15 -1.7452406437281642e-02 -9.9984769515639138e-01
vn 1.1214602213323820e-15 -1.7452406437283012e-02 -9.9984769515639127e-01
vn 4.7850190293094272e-15 -1.7452406437269533e-02 -9.9984769515639149e-01
vn -1.2321549963889235e-15 -1.7452406437284535e-02 -9.9984769515639127e-01
vn -6.1720623246291335e-15 -1.7452406437290180e-02 -9.9984769515639105e-01
vn 7.1633873167245390e-16 -1.7452406437283033e-02 -9.9984769515639116e-01
vn -4.8539988589000492e-15 -1.7452406437276698e-02 -9.9984769515639138e-01
vn -7.7312993817036731e-16 -1.7452406437282124e-02 -9.9984769515639127e-01
vn 1.4823941207710240e-15 -1.7452406437282988e-02 -9.9984769515639127e-01
vn -2.1845313297308424e-15 -1.7452406437283623e-02 -9.9984769515639127e-01
vn -4.2398563137132733e-15 -1.7452406437282721e-02 -9.9984769515639138e-01
vn 1.0177645361104426e-14 -1.7452406437281805e-02 -9.9984769515639138e-01
vn 4.8088327862458881e-14 -1.7452406437276947e-02 -9.9984769515639127e-01
vn 8.0957978998044358e-15 -1.7452406437280885e-02 -9.9984769515639138e-01
vn 7.1907669554796916e-14 -1.7452406437274894e-02 -9.9984769515639138e-01
vn -3.0094395753232132e-15 -1.7452406437283748e-02 -9.9984769515639127e-01
vn -7.7641704030999132e-16 -1.7452406437286908e-02 -9.9984769515639127e-01
vn 2.1965245174504930e-16 -1.7452406437278786e-02 -9.9984769515639127e-01
vn 5.0479034525821847e-15 -1.7452406437285458e-02 -9.9984769515639127e-01
vn 4.5683151889426307e-15 -1.7452406437281385e-02 -9.9984769515639127e-01
vn 8.3448394558208124e-15 -1.7452406437280566e-02 -9.9984769515639127e-01
vn -2.6712132127227148e-15 -1.7452406437285552e-02 -9.9984769515639116e-01
vn 2.6496041083376555e-14 -1.7452406437278599e-02 -9.9984769515639138e-01
vn 1.4708082366528845e-15 -1.7452406437282943e-02 -9.9984769515639127e-01
vn -1.4909220367009538e-14 -1.7452406437287026e-02 -9.9984769515639116e-01
vn -1.6349477710739035e-14 -1.7452406437287717e-02 -9.9984769515639116e-01
vn 1.0493762330492417e-16 -1.7452406437282204e-02 -9.9984769515639127e-01
vn 8.6419598542722809e-16 -1.7452406437283813e-02 -9.9984769515639127e-01
vn -5.9797432212612535e-15 -1.7452406437284251e-02 -9.9984769515639127e-01
vn -2.4033837380720432e-14 -1.7452406437289139e-02 -9.9984769515639105e-01
vn 1.3264552993687974e-14 -1.7452406437282096e-02 -9.9984769515639116e-01
vn 1.0635252235289468e-14 -1.7452406437278245e-02 -9.9984769515639127e-01
vn -2.3442580836350210e-14 -1.7452406437288206e-02 -9.9984769515639116e-01
vn 9.1839696326181880e-16 -1.7452406437287071e-02 -9.9984769515639116e-01
vn 2.6007409493219594e-15 -1.7452406437276358e-02 -9.9984769515639138e-01
vn 9.6180085952561421e-15 -1.7452406437281655e-02 -9.9984769515639138e-01
vn 5.1012057734148241e-15 -1.7452406437281333e-02 -9.9984769515639127e-01
vn 2.0169767385767364e-15 -1.7452406437283359e-02 -9.9984769515639116e-01
vn -1.0983322154165750e-15 -1.7452406437282270e-02 -9.9984769515639127e-01
vn 1.6858147076355424e-14 -1.7452406437275053e-02 -9.9984769515639138e-01
vn -6.5749786275314559e-15 -1.7452406437286922e-02 -9.9984769515639105e-01
vn 3.7127379597670394e-16 -1.7452406437284775e-02 -9.9984769515639116e-01
vn -2.5025559500127331e-15 -1.7452406437286162e-02 -9.9984769515639116e-01
vn -1.0259342373189998e-14 -1.7452406437276406e-02 -9.9984769515639149e-01
vn -6.8208361307374521e-15 -1.7452406437267476e-02 -9.9984769515639149e-01
vn 1.7667864454323312e-15 -1.7452406437282630e-02 -9.9984769515639116e-01
vn -2.9335881088026570e-15 -1.7452406437281406e-02 -9.9984769515639138e-01
vn -1.4347527337866946e-15 -1.7452406437286679e-02 -9.9984769515639127e-01
vn 4.3368289258465094e-15 -1.7452406437281728e-02 -9.9984769515639127e-01
vn -1.1189205126770988e-15 -1.7452406437284285e-02 -9.9984769515639105e-01
vn 4.7045532532890330e-15 -1.7452406437281555e-02 -9.9984769515639138e-01
vn -1.4260054501745118e-14 -1.7452406437285121e-02 -9.9984769515639116e-01
vn -3.1033368565707714e-15 -1.7452406437286981e-02 -9.9984769515639116e-01
vn -5.8163285737162589e-15 -1.7452406437285357e-02 -9.9984769515639127e-01

g face 0
f 2//1 27//2 1//3
f 1//3 27//2 28//4
f 1//3 28//4 17//5
f 17//5 28//4 27//2
f 17//5 27//2 72//6
f 72//6 27//2 26//7
f 72//6 26//7 71//8
f 71//8 26//7 25//9
f 71//8 25//9 70//10
f 70//10 25//9 24//11
f 70//10 24//11 69//12
f 69//12 24//11 23//13
f 69//12 23//13 68//14
f 68//14 23//13 22//15
f 68//14 22//15 67//16
f 67//16 22//15 21//17
f 67//16 21//17 18//18
f 18//18 21//17 5//19
f 18//18 5//19 6//20
f 3//21 25//9 2//1
f 2//1 25//9 26//7
f 2//1 26//7 27//2
f 4//22 23//13 3//21
f 3//21 23//13 24//11
f 3//21 24//11 25//9
f 23//13 4//22 22//15
f 22//15 4//22 5//19
f 22//15 5//19 21//17
f 7//23 29//24 6//20
f 6//20 29//24 44//25
f 6//20 44//25 18//18
f 18//18 44//25 43//26
f 18//18 43//26 67//16
f 67//16 43//26 42//27
f 67//16 42//27 68//14
f 68//14 42//27 41//28
f 68//14 41//28 69//12
f 69//12 41//28 40//29
f 69//12 40//29 70//10
f 70//10 40//29 39//30
f 70//10 39//30 71//8
f 71//8 39//30 38//31
f 71//8 38//31 72//6
f 72//6 38//31 37//32
f 72//6 37//32 17//5
f 17//5 37//32 16//33
f 17//5 16//33 1//3
f 8//34 45//35 7//23
f 7//23 45//35 46//36
f 7//23 46//36 30//37
f 30//37 46//36 47//38
f 30//37 47//38 31//39
f 31//39 47//38 48//40
f 31//39 48//40 32//41
f 32//41 48//40 49//42
f 32//41 49//42 33//43
f 33//43 49//42 50//44
f 33//43 50//44 34//45
f 34//45 50//44 15//46
f 34//45 15//46 35//47
f 35//47 15//46 36//48
f 35//47 36//48 38//31
f 38//31 36//48 37//32
f 45//35 8//34 20//49
f 20//49 8//34 9//50
f 20//49 9//50 66//51
f 66//51 9//50 65//52
f 66//51 65//52 20//49
f 20//49 65//52 53//53
f 20//49 53//53 45//35
f 45//35 53//53 46//36
f 9//50 10//54 65//52
f 65//52 10//54 64//55
f 65//52 64//55 53//53
f 53//53 64//55 54//56
f 53//53 54//56 46//36
f 46//36 54//56 47//38
f 10//54 11//57 64//55
f 64//55 11//57 63//58
f 64//55 63//58 54//56
f 54//56 63//58 55//59
f 54//56 55//59 47//38
f 47//38 55//59 48//40
f 63//58 11//57 62//60
f 62//60 11//57 12//61
f 62//60 12//61 61//62
f 61//62 12//61 60//63
f 61//62 60//63 57//64
f 57//64 60//63 58//65
f 57//64 58//65 50//44
f 50//44 58//65 51//66
f 50//44 51//66 15//46
f 15//46 51//66 52//67
f 15//46 52//67 14//68
f 14//68 52//67 19//69
f 14//68 19//69 13//70
f 13//70 19//69 59//71
f 13//70 59//71 60//63
f 60//63 59//71 58//65
f 12//61 13//70 60//63
f 15//46 16//33 36//48
f 36//48 16//33 37//32
f 43//26 44//25 30//37
f 30//37 44//25 29//24
f 30//37 29//24 7//23
f 42//27 43//26 31//39
f 31//39 43//26 30//37
f 41//28 42//27 32//41
f 32//41 42//27 31//39
f 40//29 41//28 33//43
f 33//43 41//28 32//41
f 39//30 40//29 34//45
f 34//45 40//29 33//43
f 38//31 39//30 35//47
f 35//47 39//30 34//45
f 57//64 50//44 49//42
f 49//42 48//40 56//72
f 56//72 48//40 55//59
f 56//72 55//59 62//60
f 62//60 55//59 63//58
f 19//69 52//67 51//66
f 19//69 51//66 58//65
f 61//62 57//64 56//72
f 56//72 57//64 49//42
f 61//62 56//72 62//60
f 59//71 19//69 58//65

g face 1
f 74//73 94//74 73//75
f 73//75 94//74 95//76
f 73//75 95//76 84//77
f 84//77 95//76 94//74
f 84//77 94//74 139//78
f 139//78 94//74 93//79
f 139//78 93//79 138//80
f 138//80 93//79 91//81
f 138//80 91//81 92//82
f 92//82 91//81 75//83
f 92//82 75//83 106//84
f 106//84 75//83 107//85
f 106//84 107//85 99//86
f 99//86 107//85 98//87
f 99//86 98//87 120//88
f 120//88 98//87 121//89
f 120//88 121//89 113//90
f 113//90 121//89 112//91
f 113//90 112//91 7//92
f 7//92 112//91 125//93
f 7//92 125//93 8//94
f 8//94 125//93 133//95
f 8//94 133//95 134//96
f 134//96 133//95 124//97
f 134//96 124//97 87//98
f 87//98 124//97 110//99
f 87//98 110//99 80//100
f 80//100 110//99 79//101
f 79//101 110//99 123//102
f 79//101 123//102 96//103
f 96//103 123//102 122//104
f 96//103 122//104 97//105
f 97//105 122//104 121//89
f 97//105 121//89 98//87
f 75//83 91//81 74//73
f 74//73 91//81 93//79
f 74//73 93//79 94//74
f 107//85 75//83 137//106
f 137//106 75//83 76//107
f 137//106 76//107 90//108
f 90//108 76//107 89//109
f 90//108 89//109 137//106
f 137//106 89//109 136//110
f 137//106 136//110 107//85
f 107//85 136//110 108//111
f 107//85 108//111 98//87
f 98//87 108//111 97//105
f 76//107 77//112 89//109
f 89//109 77//112 88//113
f 89//109 88//113 136//110
f 136//110 88//113 85//114
f 136//110 85//114 108//111
f 108//111 85//114 109//115
f 108//111 109//115 97//105
f 97//105 109//115 96//103
f 88//113 77//112 85//114
f 85//114 77//112 78//116
f 85//114 78//116 109//115
f 109//115 78//116 96//103
f 78//116 79//101 96//103
f 80//100 9//117 87//98
f 87//98 9//117 135//118
f 87//98 135//118 134//96
f 134//96 135//118 9//117
f 134//96 9//117 8//94
f 6//119 132//120 7//92
f 7//92 132//120 126//121
f 7//92 126//121 113//90
f 113//90 126//121 127//122
f 113//90 127//122 114//123
f 114//123 127//122 128//124
f 114//123 128//124 115//125
f 115//125 128//124 86//126
f 115//125 86//126 116//127
f 116//127 86//126 81//128
f 116//127 81//128 82//129
f 5//130 130//131 6//119
f 6//119 130//131 131//132
f 6//119 131//132 132//120
f 132//120 131//132 126//121
f 81//128 86//126 5//130
f 5//130 86//126 129//133
f 5//130 129//133 130//131
f 130//131 129//133 128//124
f 130//131 128//124 127//122
f 83//134 102//135 82//129
f 82//129 102//135 117//136
f 82//129 117//136 116//127
f 116//127 117//136 118//137
f 116//127 118//137 115//125
f 115//125 118//137 119//138
f 115//125 119//138 114//123
f 114//123 119//138 120//88
f 114//123 120//88 113//90
f 73//75 84//77 83//134
f 83//134 84//77 103//139
f 83//134 103//139 102//135
f 102//135 103//139 104//140
f 102//135 104//140 101//141
f 101//141 104//140 105//142
f 101//141 105//142 100//143
f 100//143 105//142 106//84
f 100//143 106//84 99//86
f 120//88 119//138 99//86
f 99//86 119//138 100//143
f 117//136 102//135 101//141
f 119//138 118//137 100//143
f 100//143 118//137 101//141
f 118//137 117//136 101//141
f 84//77 139//78 103//139
f 103//139 139//78 104//140
f 92//82 106//84 105//142
f 139//78 138//80 104//140
f 104//140 138//80 105//142
f 138//80 92//82 105//142
f 122//104 123//102 111//144
f 111//144 123//102 110//99
f 111//144 110//99 124//97
f 121//89 122//104 112//91
f 112//91 122//104 111//144
f 112//91 111//144 125//93
f 125//93 111//144 124//97
f 125//93 124//97 133//95
f 130//131 127//122 131//132
f 131//132 127//122 126//121
f 129//133 86//126 128//124

g face 2
f 141//145 161//146 140//147
f 140//147 161//146 162//148
f 140//147 162//148 151//149
f 151//149 162//148 161//146
f 151//149 161//146 206//150
f 206//150 161//146 160//151
f 206//150 160//151 205//152
f 205//152 160//151 158//153
f 205//152 158//153 159//154
f 159//154 158//153 142//155
f 159//154 142//155 173//156
f 173//156 142//155 174//157
f 173//156 174//157 166//158
f 166//158 174//157 165//159
f 166//158 165//159 187//160
f 187//160 165//159 188//161
f 187//160 188//161 180//162
f 180//162 188//161 179//163
f 180//162 179//163 75//164
f 75//164 179//163 192//165
f 75//164 192//165 76//166
f 76//166 192//165 200//167
f 76//166 200//167 201//168
f 201//168 200//167 191//169
f 201//168 191//169 154//170
f 154//170 191//169 177//171
f 154//170 177//171 147//172
f 147//172 177//171 146//173
f 146//173 177//171 190//174
f 146//173 190//174 163//175
f 163//175 190//174 189//176
f 163//175 189//176 164//177
f 164//177 189//176 188//161
f 164//177 188//161 165//159
f 142//155 158//153 141//145
f 141//145 158//153 160//151
f 141//145 160//151 161//146
f 174//157 142//155 204//178
f 204//178 142//155 143//179
f 204//178 143//179 157//180
f 157//180 143//179 156//181
f 157//180 156//181 204//178
f 204//178 156//181 203//182
f 204//178 203//182 174//157
f 174//157 203//182 175//183
f 174//157 175//183 165//159
f 165//159 175//183 164//177
f 143//179 144//184 156//181
f 156//181 144//184 155//185
f 156//181 155//185 203//182
f 203//182 155//185 152//186
f 203//182 152//186 175//183
f 175//183 152//186 176//187
f 175//183 176//187 164//177
f 164//177 176//187 163//175
f 155//185 144//184 152//186
f 152//186 144//184 145//188
f 152//186 145//188 176//187
f 176//187 145//188 163//175
f 145//188 146//173 163//175
f 147//172 77//189 154//170
f 154//170 77//189 202//190
f 154//170 202//190 201//168
f 201//168 202//190 77//189
f 201//168 77//189 76//166
f 74//191 199//192 75//164
f 75//164 199//192 193//193
f 75//164 193//193 180//162
f 180//162 193//193 194//194
f 180//162 194//194 181//195
f 181//195 194//194 195//196
f 181//195 195//196 182//197
f 182//197 195//196 153//198
f 182//197 153//198 183//199
f 183//199 153//198 148//200
f 183//199 148//200 149//201
f 73//202 197//203 74//191
f 74//191 197//203 198//204
f 74//191 198//204 199//192
f 199//192 198//204 193//193
f 148//200 153//198 73//202
f 73//202 153//198 196//205
f 73//202 196//205 197//203
f 197//203 196//205 195//196
f 197//203 195//196 194//194
f 150//206 169//207 149//201
f 149//201 169//207 184//208
f 149//201 184//208 183//199
f 183//199 184//208 185//209
f 183//199 185//209 182//197
f 182//197 185//209 186//210
f 182//197 186//210 181//195
f 181//195 186//210 187//160
f 181//195 187//160 180//162
f 140//147 151//149 150//206
f 150//206 151//149 170//211
f 150//206 170//211 169//207
f 169//207 170//211 171//212
f 169//207 171//212 168//213
f 168//213 171//212 172//214
f 168//213 172//214 167//215
f 167//215 172//214 173//156
f 167//215 173//156 166//158
f 187//160 186//210 166//158
f 166//158 186//210 167//215
f 184//208 169//207 168//213
f 186//210 185//209 167//215
f 167//215 185//209 168//213
f 185//209 184//208 168//213
f 151//149 206//150 170//211
f 170//211 206//150 171//212
f 159//154 173//156 172//214
f 206//150 205//152 171//212
f 171//212 205//152 172//214
f 205//152 159//154 172//214
f 189//176 190//174 178//216
f 178//216 190//174 177//171
f 178//216 177//171 191//169
f 188//161 189//176 179//163
f 179//163 189//176 178//216
f 179//163 178//216 192//165
f 192//165 178//216 191//169
f 192//165 191//169 200//167
f 197//203 194//194 198//204
f 198//204 194//194 193//193
f 196//205 153//198 195//196

g face 3
f 16//217 223//218 1//219
f 1//219 223//218 224//220
f 1//219 224//220 213//221
f 213//221 224//220 223//218
f 213//221 223//218 271//222
f 271//222 223//218 222//223
f 271//222 222//223 270//224
f 270//224 222//223 220//225
f 270//224 220//225 221//226
f 221//226 220//225 15//227
f 221//226 15//227 235//228
f 235//228 15//227 236//229
f 235//228 236//229 228//230
f 228//230 236//229 227//231
f 228//230 227//231 249//232
f 249//232 227//231 250//233
f 249//232 250//233 242//234
f 242//234 250//233 241//235
f 242//234 241//235 256//236
f 256//236 241//235 255//237
f 256//236 255//237 142//238
f 142//238 255//237 265//239
f 142//238 265//239 143//240
f 143//240 265//239 264//241
f 143//240 264//241 266//242
f 266//242 264//241 272//243
f 266//242 272//243 216//244
f 216//244 272//243 253//245
f 216//244 253//245 209//246
f 209//246 253//245 239//247
f 209//246 239//247 208//248
f 208//248 239//247 252//249
f 208//248 252//249 225//250
f 225//250 252//249 251//251
f 225//250 251//251 226//252
f 226//252 251//251 250//233
f 226//252 250//233 227//231
f 15//227 220//225 16//217
f 16//217 220//225 222//223
f 16//217 222//223 223//218
f 236//229 15//227 269//253
f 269//253 15//227 14//254
f 269//253 14//254 219//255
f 219//255 14//254 218//256
f 219//255 218//256 269//253
f 269//253 218//256 268//257
f 269//253 268//257 236//229
f 236//229 268//257 237//258
f 236//229 237//258 227//231
f 227//231 237//258 226//252
f 14//254 13//259 218//256
f 218//256 13//259 217//260
f 218//256 217//260 268//257
f 268//257 217//260 214//261
f 268//257 214//261 237//258
f 237//258 214//261 238//262
f 237//258 238//262 226//252
f 226//252 238//262 225//250
f 217//260 13//259 214//261
f 214//261 13//259 207//263
f 214//261 207//263 238//262
f 238//262 207//263 225//250
f 207//263 208//248 225//250
f 209//246 144//264 216//244
f 216//244 144//264 267//265
f 216//244 267//265 266//242
f 266//242 267//265 144//264
f 266//242 144//264 143//240
f 141//266 263//267 142//238
f 142//238 263//267 273//268
f 142//238 273//268 256//236
f 256//236 273//268 274//269
f 256//236 274//269 257//270
f 257//270 274//269 275//271
f 257//270 275//271 258//272
f 258//272 275//271 215//273
f 258//272 215//273 259//274
f 259//274 215//273 210//275
f 259//274 210//275 245//276
f 245//276 210//275 211//277
f 245//276 211//277 246//278
f 246//278 211//277 231//279
f 246//278 231//279 230//280
f 230//280 231//279 233//281
f 230//280 233//281 234//282
f 234//282 233//281 270//224
f 234//282 270//224 221//226
f 140//283 261//284 141//266
f 141//266 261//284 262//285
f 141//266 262//285 263//267
f 263//267 262//285 273//268
f 210//275 215//273 140//283
f 140//283 215//273 260//286
f 140//283 260//286 261//284
f 261//284 260//286 275//271
f 261//284 275//271 274//269
f 211//277 212//287 231//279
f 231//279 212//287 232//288
f 231//279 232//288 233//281
f 233//281 232//288 271//222
f 233//281 271//222 270//224
f 232//288 212//287 213//221
f 213//221 212//287 1//219
f 234//282 221//226 235//228
f 234//282 235//228 229//289
f 229//289 235//228 228//230
f 229//289 228//230 248//290
f 248//290 228//230 249//232
f 248//290 249//232 243//291
f 243//291 249//232 242//234
f 243//291 242//234 257//270
f 257//270 242//234 256//236
f 234//282 229//289 230//280
f 230//280 229//289 247//292
f 230//280 247//292 246//278
f 246//278 247//292 245//276
f 247//292 229//289 248//290
f 213//221 271//222 232//288
f 251//251 252//249 240//293
f 240//293 252//249 239//247
f 240//293 239//247 254//294
f 254//294 239//247 253//245
f 254//294 253//245 272//243
f 250//233 251//251 241//235
f 241//235 251//251 240//293
f 241//235 240//293 255//237
f 255//237 240//293 254//294
f 255//237 254//294 265//239
f 265//239 254//294 272//243
f 265//239 272//243 264//241
f 247//292 248//290 244//295
f 244//295 248//290 243//291
f 244//295 243//291 258//272
f 258//272 243//291 257//270
f 259//274 245//276 244//295
f 244//295 245//276 247//292
f 259//274 244//295 258//272
f 215//273 275//271 260//286
f 273//268 262//285 274//269
f 274//269 262//285 261//284

g face 4
f 12//296 288//297 13//298
f 13//298 288//297 289//299
f 13//298 289//299 276//300
f 276//300 289//299 288//297
f 276//300 288//297 334//301
f 334//301 288//297 287//302
f 334//301 287//302 333//303
f 333//303 287//302 285//304
f 333//303 285//304 286//305
f 286//305 285//304 11//306
f 286//305 11//306 332//307
f 332//307 11//306 284//308
f 332//307 284//308 283//309
f 283//309 284//308 10//310
f 283//309 10//310 9//311
f 11//306 285//304 12//296
f 12//296 285//304 287//302
f 12//296 287//302 288//297
f 11//306 10//310 284//308
f 80//312 277//313 9//311
f 9//311 277//313 282//314
f 9//311 282//314 283//309
f 283//309 282//314 331//315
f 283//309 331//315 332//307
f 332//307 331//315 301//316
f 332//307 301//316 300//317
f 300//317 301//316 293//318
f 300//317 293//318 294//319
f 294//319 293//318 307//320
f 294//319 307//320 308//321
f 308//321 307//320 317//322
f 308//321 317//322 316//323
f 316//323 317//322 315//324
f 316//323 315//324 209//325
f 209//325 315//324 280//326
f 209//325 280//326 144//327
f 144//327 280//326 323//328
f 144//327 323//328 324//329
f 324//329 323//328 338//330
f 324//329 338//330 337//331
f 337//331 338//330 313//332
f 337//331 313//332 312//333
f 312//333 313//332 319//334
f 312//333 319//334 320//335
f 320//335 319//334 305//336
f 320//335 305//336 304//337
f 304//337 305//336 291//338
f 304//337 291//338 79//339
f 79//339 291//338 290//340
f 79//339 290//340 80//312
f 80//312 290//340 303//341
f 80//312 303//341 277//313
f 277//313 303//341 302//342
f 277//313 302//342 331//315
f 331//315 302//342 301//316
f 304//337 79//339 279//343
f 279//343 79//339 78//344
f 279//343 78//344 322//345
f 322//345 78//344 309//346
f 322//345 309//346 310//347
f 310//347 309//346 335//348
f 310//347 335//348 328//349
f 328//349 335//348 327//350
f 328//349 327//350 146//351
f 146//351 327//350 147//352
f 147//352 327//350 329//353
f 147//352 329//353 77//354
f 77//354 329//353 330//355
f 77//354 330//355 281//356
f 281//356 330//355 329//353
f 281//356 329//353 335//348
f 335//348 329//353 327//350
f 309//346 78//344 281//356
f 281//356 78//344 77//354
f 145//357 326//358 146//351
f 146//351 326//358 336//359
f 146//351 336//359 312//333
f 312//333 336//359 337//331
f 144//327 324//329 145//357
f 145//357 324//329 325//360
f 145//357 325//360 326//358
f 326//358 325//360 336//359
f 316//323 209//325 278//361
f 278//361 209//325 208//362
f 278//361 208//362 308//321
f 308//321 208//362 295//363
f 308//321 295//363 294//319
f 294//319 295//363 299//364
f 294//319 299//364 300//317
f 300//317 299//364 286//305
f 300//317 286//305 332//307
f 295//363 208//362 296//365
f 296//365 208//362 207//366
f 296//365 207//366 297//367
f 297//367 207//366 276//300
f 297//367 276//300 334//301
f 207//366 13//298 276//300
f 277//313 331//315 282//314
f 302//342 303//341 291//338
f 291//338 303//341 290//340
f 301//316 302//342 292//368
f 292//368 302//342 291//338
f 292//368 291//338 305//336
f 301//316 292//368 293//318
f 293//318 292//368 306//369
f 293//318 306//369 307//320
f 307//320 306//369 318//370
f 307//320 318//370 317//322
f 317//322 318//370 314//371
f 317//322 314//371 315//324
f 315//324 314//371 280//326
f 306//369 292//368 305//336
f 295//363 296//365 298//372
f 298//372 296//365 297//367
f 298//372 297//367 334//301
f 295//363 298//372 299//364
f 299//364 298//372 333//303
f 299//364 333//303 286//305
f 333//303 298//372 334//301
f 304//337 279//343 321//373
f 321//373 279//343 322//345
f 321//373 322//345 310//347
f 318//370 306//369 319//334
f 319//334 306//369 305//336
f 316//323 278//361 308//321
f 310//347 311//374 321//373
f 321//373 311//374 320//335
f 321//373 320//335 304//337
f 281//356 335//348 309//346
f 146//351 312//333 311//374
f 311//374 312//333 320//335
f 146//351 311//374 328//349
f 328//349 311//374 310//347
f 318//370 319//334 313//332
f 318//370 313//332 314//371
f 314//371 313//332 338//330
f 314//371 338//330 280//326
f 280//326 338//330 323//328
f 336//359 325//360 337//331
f 337//331 325//360 324//329

g face 5
f 212//375 351//376 1//377
f 1//377 351//376 352//378
f 1//377 352//378 339//379
f 339//379 352//378 351//376
f 339//379 351//376 401//380
f 401//380 351//376 350//381
f 401//380 350//381 400//382
f 400//382 350//381 348//383
f 400//382 348//383 349//384
f 349//384 348//383 211//385
f 349//384 211//385 399//386
f 399//386 211//385 347//387
f 399//386 347//387 346//388
f 346//388 347//387 210//389
f 346//388 210//389 345//390
f 345//390 210//389 344//391
f 345//390 344//391 397//392
f 397//392 344//391 396//393
f 397//392 396//393 368//394
f 368//394 396//393 369//395
f 368//394 369//395 355//396
f 355//396 369//395 354//397
f 355//396 354//397 149//398
f 149//398 354//397 353//399
f 149//398 353//399 150//400
f 150//400 353//399 370//401
f 150//400 370//401 340//402
f 340//402 370//401 369//395
f 340//402 369//395 396//393
f 211//385 348//383 212//375
f 212//375 348//383 350//381
f 212//375 350//381 351//376
f 211//385 210//389 347//387
f 210//389 140//403 344//391
f 344//391 140//403 343//404
f 344//391 343//404 396//393
f 396//393 343//404 340//402
f 343//404 140//403 340//402
f 340//402 140//403 150//400
f 148//405 371//406 149//398
f 149//398 371//406 372//407
f 149//398 372//407 373//408
f 373//408 372//407 381//409
f 373//408 381//409 382//410
f 382//410 381//409 392//411
f 382//410 392//411 391//412
f 391//412 392//411 83//413
f 391//412 83//413 82//414
f 371//406 148//405 342//415
f 342//415 148//405 73//416
f 342//415 73//416 395//417
f 395//417 73//416 394//418
f 395//417 394//418 342//415
f 342//415 394//418 380//419
f 342//415 380//419 371//406
f 371//406 380//419 372//407
f 73//416 83//413 394//418
f 394//418 83//413 393//420
f 394//418 393//420 380//419
f 380//419 393//420 381//409
f 380//419 381//409 372//407
f 81//421 390//422 82//414
f 82//414 390//422 384//423
f 82//414 384//423 383//424
f 383//424 384//423 375//425
f 383//424 375//425 374//426
f 374//426 375//425 356//427
f 374//426 356//427 355//396
f 355//396 356//427 368//394
f 5//428 388//429 81//421
f 81//421 388//429 389//430
f 81//421 389//430 390//422
f 390//422 389//430 384//423
f 4//431 341//432 5//428
f 5//428 341//432 387//433
f 5//428 387//433 388//429
f 388//429 387//433 386//434
f 388//429 386//434 385//435
f 385//435 386//434 377//436
f 385//435 377//436 376//437
f 376//437 377//436 358//438
f 376//437 358//438 357//439
f 357//439 358//438 366//440
f 357//439 366//440 367//441
f 367//441 366//440 398//442
f 367//441 398//442 397//392
f 397//392 398//442 345//390
f 341//432 4//431 379//443
f 379//443 4//431 3//444
f 379//443 3//444 378//445
f 378//445 3//444 360//446
f 378//445 360//446 359//447
f 359//447 360//446 364//448
f 359//447 364//448 365//449
f 365//449 364//448 349//384
f 365//449 349//384 399//386
f 360//446 3//444 361//450
f 361//450 3//444 2//451
f 361//450 2//451 362//452
f 362//452 2//451 339//379
f 362//452 339//379 401//380
f 2//451 1//377 339//379
f 399//386 346//388 398//442
f 398//442 346//388 345//390
f 369//395 370//401 354//397
f 354//397 370//401 353//399
f 368//394 356//427 367//441
f 367//441 356//427 357//439
f 376//437 357//439 375//425
f 375//425 357//439 356//427
f 366//440 358//438 365//449
f 365//449 358//438 359//447
f 378//445 359//447 377//436
f 377//436 359//447 358//438
f 360//446 361//450 363//453
f 363//453 361//450 362//452
f 363//453 362//452 401//380
f 360//446 363//453 364//448
f 364//448 363//453 400//382
f 364//448 400//382 349//384
f 400//382 363//453 401//380
f 398//442 366//440 399//386
f 399//386 366//440 365//449
f 397//392 368//394 367//441
f 355//396 149//398 373//408
f 355//396 373//408 374//426
f 374//426 373//408 382//410
f 374//426 382//410 383//424
f 383//424 382//410 391//412
f 383//424 391//412 82//414
f 385//435 376//437 384//423
f 384//423 376//437 375//425
f 341//432 379//443 378//445
f 341//432 378//445 386//434
f 386//434 378//445 377//436
f 392//411 381//409 393//420
f 388//429 385//435 389//430
f 389//430 385//435 384//423
f 387//433 341//432 386//434
f 393//420 83//413 392//411

g halfedge 0 edge 0
l 5 4 3 2 1

g halfedge 1 edge 0
l 1 2 3 4 5

g halfedge 2 edge 1
l 9 8 7 6 5

g halfedge 3 edge 1
l 5 6 7 8 9

g halfedge 4 edge 2
l 13 12 11 10 9

g halfedge 5 edge 2
l 9 10 11 12 13

g halfedge 6 edge 3
l 1 16 15 14 13

g halfedge 7 edge 3
l 13 14 15 16 1

g halfedge 8 edge 4
l 77 76 75 74 73

g halfedge 9 edge 4
l 73 74 75 76 77

g halfedge 10 edge 5
l 9 80 79 78 77

g halfedge 11 edge 5
l 77 78 79 80 9

g halfedge 12 edge 6
l 73 83 82 81 5

g halfedge 13 edge 6
l 5 81 82 83 73

g halfedge 14 edge 7
l 144 143 142 141 140

g halfedge 15 edge 7
l 140 141 142 143 144

g halfedge 16 edge 8
l 77 147 146 145 144

g halfedge 17 edge 8
l 144 145 146 147 77

g halfedge 18 edge 9
l 140 150 149 148 73

g halfedge 19 edge 9
l 73 148 149 150 140

g halfedge 20 edge 10
l 144 209 208 207 13

g halfedge 21 edge 10
l 13 207 208 209 144

g halfedge 22 edge 11
l 1 212 211 210 140

g halfedge 23 edge 11
l 140 210 211 212 1

g vertex 0
p 1

g vertex 1
p 5

g vertex 2
p 9

g vertex 3
p 13

g vertex 4
p 73

g vertex 5
p 77

g vertex 6
p 140

g vertex 7
p 144

# End of file
