# https://github.com/mikedh/trimesh
v -10.00000000 10.00000000 0.00000000
v -10.00000000 10.00000000 0.50000000
v -9.12123108 10.87876892 0.50000000
v -9.04167461 10.81347847 0.50000000
v -8.95090866 10.76496315 0.50000000
v -8.85242271 10.73508739 0.50000000
v -8.96213245 11.03786755 0.00000000
v -8.91667080 11.00055885 0.00000000
v -8.99944115 11.08332920 0.00000000
v -9.02716351 11.13519478 0.00000000
v -8.86480522 10.97283649 0.00000000
v -8.80852699 10.95576477 0.00000000
v -9.04423523 11.19147301 0.00000000
v -9.05000019 11.25000000 0.00000000
v -9.04423523 11.30852699 0.00000000
v -9.02716351 11.36480522 0.00000000
v -8.96213245 11.03786755 0.27500001
v -8.91667080 11.00055885 0.27500001
v -8.99944115 11.08332920 0.27499998
v -9.02716351 11.13519478 0.27500001
v -8.86480522 10.97283649 0.27500001
v -8.80852699 10.95576477 0.27500001
v -9.04423523 11.19147301 0.27500001
v -9.05000019 11.25000000 0.27500001
v -9.04423523 11.30852699 0.27500001
v -9.02716351 11.36480522 0.27500001
v -8.99944115 11.41667080 0.00000000
v -8.96213245 11.46213245 0.00000000
v -8.91667080 11.49944115 0.00000000
v -8.86480522 11.52716351 0.00000000
v -8.80852699 11.54423523 0.00000000
v -8.99944115 11.41667080 0.27499998
v -8.96213245 11.46213245 0.27500001
v -8.91667080 11.49944115 0.27500001
v -8.86480522 11.52716351 0.27500001
v -8.80852699 11.54423523 0.27500001
v -9.23503685 11.04909134 0.50000000
v -9.26491261 11.14757729 0.50000000
v -9.18652153 10.95832539 0.50000000
v -9.27499962 11.25000000 0.50000000
v -9.26491261 11.35242271 0.50000000
v -9.23503685 11.45090866 0.50000000
v -9.18652153 11.54167461 0.50000000
v -9.12123108 11.62123108 0.50000000
v -9.04167461 11.68652153 0.50000000
v -8.95090866 11.73503685 0.50000000
v -8.85242271 11.76491261 0.50000000
v -8.75000000 10.72500038 0.50000000
v -8.64757729 10.73508739 0.50000000
v -8.54909134 10.76496315 0.50000000
v -8.45832539 10.81347847 0.50000000
v -8.37876892 10.87876892 0.50000000
v -8.75000000 10.94999981 0.00000000
v -8.69147301 10.95576477 0.00000000
v -8.63519478 10.97283649 0.00000000
v -8.58332920 11.00055885 0.00000000
v -8.53786755 11.03786755 0.00000000
v -8.50055885 11.08332920 0.00000000
v -8.47283649 11.13519478 0.00000000
v -8.45576477 11.19147301 0.00000000
v -8.44999981 11.25000000 0.00000000
v -8.45576477 11.30852699 0.00000000
v -8.47283649 11.36480522 0.00000000
v -8.75000000 10.94999981 0.27500001
v -8.69147301 10.95576477 0.27500001
v -8.63519478 10.97283649 0.27500001
v -8.58332920 11.00055885 0.27500001
v -8.53786755 11.03786755 0.27500001
v -8.50055885 11.08332920 0.27499998
v -8.47283649 11.13519478 0.27500001
v -8.45576477 11.19147301 0.27500001
v -8.44999981 11.25000000 0.27500001
v -8.45576477 11.30852699 0.27500001
v -8.47283649 11.36480522 0.27500001
v -8.75000000 11.55000019 0.00000000
v -8.69147301 11.54423523 0.00000000
v -8.63519478 11.52716351 0.00000000
v -8.53786755 11.46213245 0.00000000
v -8.58332920 11.49944115 0.00000000
v -8.50055885 11.41667080 0.00000000
v -8.75000000 11.55000019 0.27500001
v -8.69147301 11.54423523 0.27500001
v -8.63519478 11.52716351 0.27500001
v -8.53786755 11.46213150 0.27500001
v -8.58332920 11.49944115 0.27500001
v -8.50055885 11.41667080 0.27499998
v -8.31347847 10.95832539 0.50000000
v -8.26496315 11.04909134 0.50000000
v -8.23508739 11.14757729 0.50000000
v -8.22500038 11.25000000 0.50000000
v -8.23508739 11.35242271 0.50000000
v -8.75000000 11.77499962 0.50000000
v -8.64757729 11.76491261 0.50000000
v -8.54909134 11.73503685 0.50000000
v -8.45832539 11.68652153 0.50000000
v -8.37876892 11.62123108 0.50000000
v -8.31347847 11.54167461 0.50000000
v -8.26496315 11.45090866 0.50000000
v -10.00000000 12.50000000 0.00000000
v -10.00000000 12.50000000 0.50000000
v -7.50000000 10.00000000 0.00000000
v -7.50000000 10.00000000 0.50000000
v -5.35349989 10.00000000 0.00000000
v -5.35349989 10.00000000 0.50000000
v -5.15057993 11.17828083 0.50000000
v -7.50000000 12.50000000 0.00000000
v -7.50000000 12.50000000 0.50000000
v -5.35349989 13.41565800 0.50000000
v -5.15190268 12.59655285 1.04718304
v -5.15303326 12.88403988 1.69512200
v -0.91879207 10.00000000 0.50000000
v -1.12171221 11.17828083 0.50000000
v -0.91879207 13.41565800 0.50000000
v -1.12038946 12.59655285 1.04718304
v -3.15795207 10.79821777 1.43152797
v -3.11433196 10.79821777 1.43152797
v -3.58929610 10.69307899 1.69988704
v -2.68298793 10.69307899 1.69988704
v -1.11925852 12.88403988 1.69512200
v -5.15226126 10.00000000 3.48822880
v -5.15286064 10.00000000 4.16496944
v -5.35349989 10.00000000 4.50000000
v -5.15267229 10.00000000 4.50000000
v -5.15202522 11.53476620 4.50000000
v -5.15202522 13.01887703 4.50000000
v -5.15349865 13.21448040 4.50000000
v -5.35349989 13.41565800 4.50000000
v -3.32748389 10.44748592 2.32674408
v -2.94479990 10.44748592 2.32674408
v -4.57806015 10.00000000 3.47696900
v -4.28802109 10.00000000 3.47561717
v -1.98426723 10.00000000 3.47561717
v -1.69422877 10.00000000 3.47696900
v -1.12003052 10.00000000 3.48822880
v -1.11943138 10.00000000 4.16496944
v -1.11961973 10.00000000 4.50000000
v -0.91879207 10.00000000 4.50000000
v -1.12026691 11.53476620 4.50000000
v -1.12026691 13.01887703 4.50000000
v -1.11879373 13.21448040 4.50000000
v -0.91879207 13.41565800 4.50000000
v -10.00000000 22.50000000 0.00000000
v -10.00000000 22.50000000 0.50000000
v -8.99944115 23.58332825 0.00000000
v -8.91667080 23.50055885 0.00000000
v -8.96213245 23.53786850 0.00000000
v -8.86480522 23.47283554 0.00000000
v -8.80852699 23.45576477 0.00000000
v -8.99944115 23.58332825 0.27499998
v -8.91667080 23.50055885 0.27500001
v -8.96213245 23.53786850 0.27500001
v -8.86480522 23.47283554 0.27500001
v -8.80852699 23.45576477 0.27500001
v -9.02716351 23.63519478 0.00000000
v -9.04423523 23.69147301 0.00000000
v -9.05000019 23.75000000 0.00000000
v -9.04423523 23.80852699 0.00000000
v -9.02716351 23.86480522 0.00000000
v -8.99944115 23.91667175 0.00000000
v -8.96213245 23.96213150 0.00000000
v -8.91667080 23.99944115 0.00000000
v -8.86480522 24.02716446 0.00000000
v -8.80852699 24.04423523 0.00000000
v -9.02716351 23.63519478 0.27500001
v -9.04423523 23.69147301 0.27500001
v -9.05000019 23.75000000 0.27500001
v -9.04423523 23.80852699 0.27500001
v -9.02716351 23.86480522 0.27500001
v -8.99944115 23.91667175 0.27499998
v -8.96213245 23.96213150 0.27500001
v -8.91667080 23.99944115 0.27500001
v -8.86480522 24.02716446 0.27500001
v -8.80852699 24.04423523 0.27500001
v -9.23503685 23.54909134 0.50000000
v -9.18652153 23.45832634 0.50000000
v -9.12123108 23.37876892 0.50000000
v -9.04167461 23.31347847 0.50000000
v -8.95090866 23.26496315 0.50000000
v -8.85242271 23.23508835 0.50000000
v -9.26491261 23.64757729 0.50000000
v -9.27499962 23.75000000 0.50000000
v -9.26491261 23.85242271 0.50000000
v -9.23503685 23.95090866 0.50000000
v -9.18652153 24.04167366 0.50000000
v -10.00000000 25.00000000 0.00000000
v -10.00000000 25.00000000 0.50000000
v -9.12123108 24.12123108 0.50000000
v -9.04167461 24.18652153 0.50000000
v -8.95090866 24.23503685 0.50000000
v -8.85242271 24.26491165 0.50000000
v -8.75000000 23.45000076 0.00000000
v -8.69147301 23.45576477 0.00000000
v -8.63519478 23.47283554 0.00000000
v -8.58332920 23.50055885 0.00000000
v -8.53786755 23.53786850 0.00000000
v -8.50055885 23.58332825 0.00000000
v -8.75000000 23.45000076 0.27500001
v -8.69147301 23.45576477 0.27500001
v -8.63519478 23.47283554 0.27500001
v -8.58332920 23.50055885 0.27500001
v -8.53786755 23.53786850 0.27500001
v -8.50055885 23.58332825 0.27499998
v -8.47283649 23.63519478 0.00000000
v -8.45576477 23.69147301 0.00000000
v -8.44999981 23.75000000 0.00000000
v -8.45576477 23.80852699 0.00000000
v -8.75000000 24.04999924 0.00000000
v -8.69147301 24.04423523 0.00000000
v -8.63519478 24.02716446 0.00000000
v -8.47283649 23.86480522 0.00000000
v -8.50055885 23.91667175 0.00000000
v -8.58332920 23.99944115 0.00000000
v -8.53786755 23.96213150 0.00000000
v -8.47283649 23.63519478 0.27500001
v -8.45576477 23.69147301 0.27500001
v -8.44999981 23.75000000 0.27500001
v -8.45576477 23.80852699 0.27500001
v -8.75000000 24.04999924 0.27500001
v -8.69147301 24.04423523 0.27500001
v -8.63519478 24.02716446 0.27500001
v -8.47283649 23.86480522 0.27500001
v -8.50055885 23.91667175 0.27499998
v -8.58332920 23.99944115 0.27500001
v -8.53786755 23.96213150 0.27500001
v -8.75000000 23.22500038 0.50000000
v -8.64757729 23.23508835 0.50000000
v -8.54909134 23.26496315 0.50000000
v -8.45832539 23.31347847 0.50000000
v -8.37876892 23.37876892 0.50000000
v -8.31347847 23.45832634 0.50000000
v -8.26496315 23.54909134 0.50000000
v -8.23508739 23.64757729 0.50000000
v -8.22500038 23.75000000 0.50000000
v -8.31347847 24.04167366 0.50000000
v -8.23508739 23.85242271 0.50000000
v -8.26496315 23.95090866 0.50000000
v -8.75000000 24.27499962 0.50000000
v -8.64757729 24.26491165 0.50000000
v -8.54909134 24.23503685 0.50000000
v -8.45832539 24.18652153 0.50000000
v -8.37876892 24.12123108 0.50000000
v -7.50000000 22.50000000 0.00000000
v -7.50000000 22.50000000 0.50000000
v -7.50000000 25.00000000 0.00000000
v -7.50000000 25.00000000 0.50000000
v -4.58763933 17.91954041 0.50000000
v -4.27795458 18.87044716 0.56126398
v -4.26446247 18.88624573 0.55592299
v -4.25025225 18.90146637 0.55077398
v -4.21978331 18.93008232 0.54109299
v -4.23534584 18.91608620 0.54582697
v -4.15152121 18.97929001 0.52444798
v -4.13312292 18.98979759 0.52090198
v -4.11424017 18.99950027 0.51761299
v -4.09493828 19.00843048 0.51459402
v -4.07524157 19.01656342 0.51184303
v -4.18678999 18.95609665 0.53229499
v -4.20358944 18.94343376 0.53657800
v -4.16943121 18.96806335 0.52825099
v -4.05518293 19.02387428 0.50937003
v -4.03481102 19.03035927 0.50717902
v -4.01415634 19.03598404 0.50527197
v -3.99325943 19.04076958 0.50365400
v -3.97215915 19.04467964 0.50233102
v -3.95090485 19.04772568 0.50130302
v -3.92952728 19.04990578 0.50057000
v -3.90806985 19.05116272 0.50013697
v -3.88657212 19.05158615 0.50000000
v -3.86507583 19.05107498 0.50016701
v -3.84362698 19.04971504 0.50062901
v -3.82225776 19.04745674 0.50139201
v -3.80101752 19.04433060 0.50244999
v -3.77993608 19.04033470 0.50380200
v -3.75906110 19.03545952 0.50544900
v -3.18764448 17.91954041 0.50000000
v -3.18764448 18.20979118 0.50000000
v -3.52359033 18.89997292 0.55127698
v -3.49602532 18.86884499 0.56180602
v -3.50944614 18.88469696 0.55644602
v -3.71809006 19.02318001 0.50960302
v -3.69806528 19.01579285 0.51210397
v -3.67840815 19.00757217 0.51488203
v -3.64031577 18.98877144 0.52124298
v -3.65914345 18.99857140 0.51792902
v -3.62195802 18.97820663 0.52481502
v -3.60410833 18.96689034 0.52864200
v -3.73843288 19.02975273 0.50738400
v -3.58679342 18.95487404 0.53271103
v -3.57005334 18.94214058 0.53701699
v -3.55392313 18.92871666 0.54155397
v -3.53842139 18.91466331 0.54631001
v -4.15190363 18.19631195 0.78975099
v -4.13360834 18.18584061 0.79332399
v -4.11485243 18.17614555 0.79663497
v -4.09567404 18.16722298 0.79968399
v -4.07610703 18.15908241 0.80246300
v -4.21980429 18.24538803 0.77301198
v -4.23531294 18.25933838 0.76825702
v -4.27777100 18.30485725 0.75276101
v -4.26430893 18.28910637 0.75812101
v -4.25014305 18.27392769 0.76328897
v -4.32400751 18.37298203 0.72960699
v -4.31362152 18.35525513 0.73562700
v -4.35011435 18.42855453 0.71075398
v -4.34226847 18.40967178 0.71715701
v -4.33355045 18.39113808 0.72344398
v -4.30244493 18.33796692 0.74150199
v -4.29047871 18.32116318 0.74721497
v -4.20369339 18.23207283 0.77754998
v -4.18697500 18.21944809 0.78185600
v -4.16970110 18.20752525 0.78592402
v -4.05617857 18.15177155 0.80496299
v -4.03594494 18.14527512 0.80718303
v -4.01543474 18.13961411 0.80911797
v -3.99467897 18.13480186 0.81076401
v -3.97372556 18.13083839 0.81211698
v -3.95261264 18.12775612 0.81317401
v -3.93137956 18.12551117 0.81393802
v -3.91005945 18.12417412 0.81439900
v -3.88870478 18.12369347 0.81456298
v -3.86734772 18.12408638 0.81442899
v -3.84602308 18.12534714 0.81399697
v -3.82477832 18.12748718 0.81326401
v -3.80365491 18.13050079 0.81223500
v -3.78268099 18.13436699 0.81091201
v -3.76190734 18.13910294 0.80929399
v -4.37841845 18.54706573 0.67065001
v -4.37600613 18.52688026 0.67747301
v -4.37992573 18.60785675 0.65008301
v -4.37990808 18.56734467 0.66380101
v -4.38041782 18.58761215 0.65693998
v -4.37847042 18.62809753 0.64323598
v -4.37609148 18.64827347 0.63641399
v -4.37277460 18.66831589 0.62963498
v -4.36836815 18.48690605 0.69099098
v -4.36318398 18.46720695 0.69766003
v -4.37263918 18.50680351 0.68425900
v -4.34253120 18.76545906 0.59677899
v -4.33381844 18.78400421 0.59050298
v -4.35731554 18.72736359 0.60966200
v -4.36852741 18.68819618 0.62290901
v -4.36337137 18.70788956 0.61624700
v -4.35035372 18.74655151 0.60316998
v -4.31388330 18.81995010 0.57834500
v -4.30269241 18.83726883 0.57248902
v -4.32426548 18.80218124 0.58435398
v -4.29070759 18.85410500 0.56679201
v -4.35709286 18.44773865 0.70425302
v -3.74137044 18.14467812 0.80738801
v -3.72110462 18.15108681 0.80519700
v -3.70114803 18.15832520 0.80272400
v -3.68154025 18.16637802 0.79997301
v -3.62517953 18.19523621 0.79011798
v -3.66232324 18.17522621 0.79694998
v -3.64352536 18.18484497 0.79366499
v -3.54149294 18.25792503 0.76874000
v -3.52658892 18.27244949 0.76379299
v -3.49883080 18.30326843 0.75330198
v -3.48603654 18.31951714 0.74777502
v -3.51235652 18.28757095 0.75864398
v -3.46274304 18.35351562 0.73621798
v -3.45228243 18.37120056 0.73021197
v -3.44264579 18.38931465 0.72406298
v -3.47399473 18.33627319 0.74207801
v -3.60732961 18.20637703 0.78631598
v -3.57323408 18.23079109 0.77798897
v -3.59000278 18.21822929 0.78227198
v -3.55705500 18.24403381 0.77347398
v -3.43384814 18.40781021 0.71778798
v -3.42591047 18.42665863 0.71139598
v -3.44056344 18.78217125 0.59112197
v -3.46032715 18.81820488 0.57893699
v -3.47144437 18.83556175 0.57306498
v -3.45003080 18.80039024 0.58495998
v -3.48335147 18.85244942 0.56735098
v -3.40214467 18.66632271 0.63030702
v -3.41266656 18.46525764 0.69831902
v -3.40739441 18.48493576 0.69165701
v -3.40302372 18.50481796 0.68493199
v -3.39958119 18.52487373 0.67815000
v -3.39706564 18.54505348 0.67132998
v -3.39547443 18.56532478 0.66448402
v -3.39487290 18.58559799 0.65762299
v -3.39526653 18.60583878 0.65076500
v -3.39891744 18.64626884 0.63709098
v -3.39662123 18.62608910 0.64391702
v -3.43193650 18.76358986 0.59741002
v -3.41732192 18.72543907 0.61031401
v -3.40629292 18.68622589 0.62357599
v -3.41135716 18.70594215 0.61690700
v -3.42419744 18.74465561 0.60381198
v -3.41884685 18.44581604 0.70490402
v -4.58763933 20.67240906 0.50000000
v -3.18764448 20.67240906 0.50000000
v -0.09063376 23.14550209 0.50000000
v -0.09063376 24.76811028 0.50000000
v -4.58763933 17.91954041 4.50000000
v -4.15666008 18.19419861 4.50000000
v -4.11898041 18.17357063 4.50000000
v -4.13805389 18.18349075 4.50000000
v -4.09947443 18.16443634 4.50000000
v -4.07955837 18.15611267 4.50000000
v -4.24135303 18.25864220 4.50000000
v -4.22563219 18.24438095 4.50000000
v -4.27075243 18.28905106 4.50000000
v -4.28437853 18.30513954 4.50000000
v -4.25640249 18.27354431 4.50000000
v -4.29724932 18.32178307 4.50000000
v -4.30934048 18.33893394 4.50000000
v -4.32063198 18.35657501 4.50000000
v -4.33110046 18.37465477 4.50000000
v -4.34072638 18.39316750 4.50000000
v -4.35737514 18.43129730 4.50000000
v -4.34949112 18.41205788 4.50000000
v -4.20927048 18.23077583 4.50000000
v -4.19229698 18.21785927 4.50000000
v -4.17475033 18.20566750 4.50000000
v -4.03868008 18.14197731 4.50000000
v -4.01779795 18.13618279 4.50000000
v -3.99666429 18.13125229 4.50000000
v -4.05927944 18.14862251 4.50000000
v -3.97532201 18.12720108 4.50000000
v -3.95382237 18.12403488 4.50000000
v -3.93219233 18.12174797 4.50000000
v -3.91047573 18.12036705 4.50000000
v -3.88872480 18.11987686 4.50000000
v -3.86697102 18.12027740 4.50000000
v -3.84524870 18.12157249 4.50000000
v -3.82360935 18.12376785 4.50000000
v -3.80209494 18.12684441 4.50000000
v -3.78073478 18.13080788 4.50000000
v -3.75957870 18.13565254 4.50000000
v -4.37561083 18.49070358 4.50000000
v -4.37984514 18.51094246 4.50000000
v -4.38314104 18.53135681 4.50000000
v -4.38549042 18.55187416 4.50000000
v -4.38689280 18.57247543 4.50000000
v -4.38733864 18.59285927 4.50000000
v -4.36436462 18.45083618 4.50000000
v -4.37044907 18.47065544 4.50000000
v -3.59204149 17.91954041 4.50000000
v -3.18764448 17.91954041 4.50000000
v -3.73867011 18.14136124 4.50000000
v -3.71804023 18.14792252 4.50000000
v -3.69772744 18.15533066 4.50000000
v -3.67777395 18.16357231 4.50000000
v -3.65822458 18.17262650 4.50000000
v -3.63910842 18.18246651 4.50000000
v -3.62045264 18.19309998 4.50000000
v -3.60230875 18.20449448 4.50000000
v -3.58470845 18.21661568 4.50000000
v -3.56767607 18.22945786 4.50000000
v -3.55125189 18.24299812 4.50000000
v -3.53546667 18.25719643 4.50000000
v -3.52034903 18.27203369 4.50000000
v -3.50592780 18.28748131 4.50000000
v -3.49222875 18.30351448 4.50000000
v -3.47928214 18.32010460 4.50000000
v -3.46711087 18.33720589 4.50000000
v -3.45574021 18.35479927 4.50000000
v -3.44518852 18.37283516 4.50000000
v -3.43547726 18.39130783 4.50000000
v -3.42662668 18.41016197 4.50000000
v -3.41865444 18.42936707 4.50000000
v -3.41157341 18.44887733 4.50000000
v -3.40539956 18.46867371 4.50000000
v -3.40014458 18.48870087 4.50000000
v -3.39581776 18.50892448 4.50000000
v -3.39243007 18.52931786 4.50000000
v -3.38998413 18.54982758 4.50000000
v -3.38848782 18.57042313 4.50000000
v -3.38794732 18.59085083 4.50000000
v -3.39487553 19.24910355 4.50000000
v -4.38762045 19.94224739 4.50000000
v -4.38709497 19.96507454 4.50000000
v -4.38562775 19.98795509 4.50000000
v -4.38348341 20.00834084 4.50000000
v -4.38321257 20.01082039 4.50000000
v -4.38022757 20.03110504 4.50000000
v -4.37985992 20.03353500 4.50000000
v -4.37557125 20.05607033 4.50000000
v -4.37035894 20.07839584 4.50000000
v -4.36486769 20.09820938 4.50000000
v -4.36422825 20.10046959 4.50000000
v -4.35791636 20.12003517 4.50000000
v -4.35717440 20.12228584 4.50000000
v -4.35007191 20.14152527 4.50000000
v -4.34924793 20.14371300 4.50000000
v -4.34046745 20.16470146 4.50000000
v -4.33175373 20.18333054 4.50000000
v -4.33080387 20.18532753 4.50000000
v -4.32131529 20.20356178 4.50000000
v -4.32029533 20.20549011 4.50000000
v -4.30896759 20.22513771 4.50000000
v -4.29798079 20.24247932 4.50000000
v -4.29683828 20.24425507 4.50000000
v -4.28389311 20.26285362 4.50000000
v -4.27025890 20.28074646 4.50000000
v -4.25586414 20.29804039 4.50000000
v -4.58763933 20.67240906 4.50000000
v -4.24076319 20.31465912 4.50000000
v -4.22638226 20.32917976 4.50000000
v -4.22498655 20.33056641 4.50000000
v -4.21000910 20.34443092 4.50000000
v -4.20856905 20.34574318 4.50000000
v -4.19149017 20.36017799 4.50000000
v -4.17542315 20.37260056 4.50000000
v -4.17391825 20.37374496 4.50000000
v -4.15729856 20.38546371 4.50000000
v -4.15575409 20.38653374 4.50000000
v -4.13863897 20.39748383 4.50000000
v -4.13707018 20.39847183 4.50000000
v -4.11786652 20.40956306 4.50000000
v -4.09831619 20.41970062 4.50000000
v -4.07826281 20.42898560 4.50000000
v -4.05958796 20.43663025 4.50000000
v -4.05793047 20.43729591 4.50000000
v -4.03890848 20.44408989 4.50000000
v -4.03718472 20.44469070 4.50000000
v -4.01625299 20.45109558 4.50000000
v -3.99501371 20.45655060 4.50000000
v -3.97526097 20.46066475 4.50000000
v -3.97355533 20.46100807 4.50000000
v -3.95366764 20.46420860 4.50000000
v -3.95190525 20.46448135 4.50000000
v -3.93022537 20.46694565 4.50000000
v -3.90835834 20.46840477 4.50000000
v -3.88827658 20.46883392 4.50000000
v -3.88654995 20.46886444 4.50000000
v -3.86640310 20.46835136 4.50000000
v -3.86469626 20.46830177 4.50000000
v -3.84283900 20.46673965 4.50000000
v -3.82286358 20.46437645 4.50000000
v -3.82116342 20.46417236 4.50000000
v -3.79952455 20.46059799 4.50000000
v -3.77814841 20.45605087 4.50000000
v -3.75687957 20.45048523 4.50000000
v -3.83945084 20.67240906 4.50000000
v -3.83918142 20.67240906 4.50000000
v -3.83732986 20.67240906 4.50000000
v -3.44345570 20.18324280 4.50000000
v -3.51795602 20.29634857 4.50000000
v -3.47720242 20.24237633 4.50000000
v -3.46515250 20.22320366 4.50000000
v -3.45387769 20.20345306 4.50000000
v -3.50487876 20.28050041 4.50000000
v -3.50362968 20.27898598 4.50000000
v -3.49123788 20.26257896 4.50000000
v -3.49003673 20.26099014 4.50000000
v -3.38766313 19.94000626 4.50000000
v -3.38809061 19.96272850 4.50000000
v -3.38823318 19.96517372 4.50000000
v -3.38946652 19.98567581 4.50000000
v -3.39178801 20.00854301 4.50000000
v -3.39212203 20.01089859 4.50000000
v -3.39924359 20.05383682 4.50000000
v -3.40436482 20.07618523 4.50000000
v -3.39504862 20.03128052 4.50000000
v -3.41108084 20.10042000 4.50000000
v -3.41038704 20.09822464 4.50000000
v -3.41734791 20.12007904 4.50000000
v -3.42516518 20.14148903 4.50000000
v -3.43390131 20.16262627 4.50000000
v -3.69490981 20.42805862 4.50000000
v -3.69658089 20.42875481 4.50000000
v -3.67499924 20.41872978 4.50000000
v -3.63787127 20.39822006 4.50000000
v -3.63632345 20.39731598 4.50000000
v -3.65701962 20.40930367 4.50000000
v -3.65539384 20.40844727 4.50000000
v -3.61769509 20.38529778 4.50000000
v -3.61921859 20.38628006 4.50000000
v -3.59958553 20.37242508 4.50000000
v -3.73597360 20.44398308 4.50000000
v -3.71530390 20.43650818 4.50000000
v -3.58348250 20.35987854 4.50000000
v -3.58198237 20.35870743 4.50000000
v -3.56647396 20.34547615 4.50000000
v -3.56505108 20.34426498 4.50000000
v -3.55007315 20.33029938 4.50000000
v -3.54869318 20.32901192 4.50000000
v -3.53432274 20.31439400 4.50000000
v -3.53294444 20.31298828 4.50000000
v -3.18764448 20.53179359 4.50000000
v -3.18764448 20.53153229 4.50000000
v -3.18764448 20.67240906 4.50000000
v -0.09063376 23.14550209 4.50000000
v -0.09063376 24.76811028 4.50000000
v 0.63978469 10.00000000 0.00000000
v 0.63978469 10.00000000 0.50000000
v 2.46342254 12.25954247 0.54984999
v 1.24506354 12.59923649 1.11628902
v 1.85487759 12.37217236 0.73765898
v 1.66727805 12.42720985 0.82943499
v 1.75990987 12.39865112 0.78181100
v 2.15197921 12.30571365 0.62683600
v 2.05108881 12.32566071 0.66009903
v 2.25445080 12.28802490 0.59733802
v 2.35833263 12.27262592 0.57165998
v 1.95200133 12.34782887 0.69706303
v 1.48971069 12.49036026 0.93473601
v 1.57715511 12.45780087 0.88044202
v 1.40510666 12.52482986 0.99221599
v 1.32350326 12.56114292 1.05277097
v 2.56952024 12.24880886 0.53194898
v 2.67642379 12.24044132 0.51799101
v 2.78394127 12.23444939 0.50800198
v 2.89187193 12.23085117 0.50200099
v 2.99999404 12.22964859 0.50000000
v 3.10812593 12.23085117 0.50200099
v 3.21604657 12.23444939 0.50800198
v 3.32357430 12.24044132 0.51799101
v 3.43047786 12.24880886 0.53194898
v 3.53657556 12.25954247 0.54984999
v 3.64166546 12.27262592 0.57165998
v 3.74554610 12.28802490 0.59733802
v 3.84802294 12.30571365 0.62683600
v 3.94890428 12.32566071 0.66009903
v 4.04799843 12.34782887 0.69706303
v 4.14512157 12.37217236 0.73765898
v 4.24008703 12.39865112 0.78181100
v 4.33271980 12.42720985 0.82943499
v 4.42284203 12.45780087 0.88044202
v 4.51028728 12.49036026 0.93473601
v 4.59488964 12.52482986 0.99221599
v 4.67649078 12.56114292 1.05277097
v 4.75493431 12.59923649 1.11628902
v 2.46179247 10.00000000 1.88988423
v 2.25230026 10.00000000 1.95441771
v 2.35643101 10.00000000 1.91952729
v 1.85193968 10.00000000 2.14496756
v 1.75681758 10.00000000 2.20489621
v 2.14960194 10.00000000 1.99448895
v 1.94923210 10.00000000 2.08985662
v 2.04850602 10.00000000 2.03966475
v 1.16992521 12.63902950 1.18265104
v 1.09822619 12.68046188 1.25173199
v 1.03010905 12.72343445 1.32339203
v 0.96569932 12.76788807 1.39751697
v 0.90512472 12.81371880 1.47394598
v 0.84558648 12.86171246 1.55255604
v 2.89152312 10.00000000 1.82482910
v 2.99999380 10.00000000 1.82210660
v 3.10847473 10.00000000 1.82482910
v 2.56818414 10.00000000 1.86555052
v 2.67540145 10.00000000 1.84657431
v 2.78324962 10.00000000 1.83299017
v 3.21673822 10.00000000 1.83299017
v 3.32459641 10.00000000 1.84657431
v 3.43181372 10.00000000 1.86555052
v 3.53820515 10.00000000 1.88988411
v 3.64356709 10.00000000 1.91952729
v 3.74769664 10.00000000 1.95441771
v 3.85040021 10.00000000 1.99448895
v 3.95148706 10.00000000 2.03966475
v 4.05076742 10.00000000 2.08985662
v 4.14805937 10.00000000 2.14496756
v 4.24317932 10.00000000 2.20489597
v 4.83007717 12.63902855 1.18265104
v 4.90177011 12.68046188 1.25173199
v 4.96988630 12.72343445 1.32339203
v 0.63978469 14.83551884 0.50000000
v 5.36021519 10.00000000 0.00000000
v 5.36021519 10.00000000 0.50000000
v 7.50000000 10.00000000 0.00000000
v 7.50000000 10.00000000 0.50000000
v 8.37876892 10.87876892 0.50000000
v 8.45832539 10.81347847 0.50000000
v 8.54909134 10.76496315 0.50000000
v 8.64757729 10.73508739 0.50000000
v 8.53786755 11.03786755 0.00000000
v 8.58332920 11.00055885 0.00000000
v 8.50055885 11.08332920 0.00000000
v 8.47283649 11.13519478 0.00000000
v 8.63519478 10.97283649 0.00000000
v 8.69147301 10.95576477 0.00000000
v 8.45576477 11.19147301 0.00000000
v 8.44999981 11.25000000 0.00000000
v 8.45576477 11.30852699 0.00000000
v 8.47283649 11.36480522 0.00000000
v 8.53786755 11.03786755 0.27500001
v 8.58332920 11.00055885 0.27500001
v 8.50055885 11.08332920 0.27499998
v 8.47283649 11.13519478 0.27500001
v 8.63519478 10.97283649 0.27500001
v 8.69147301 10.95576477 0.27500001
v 8.45576477 11.19147301 0.27500001
v 8.44999981 11.25000000 0.27500001
v 8.45576477 11.30852699 0.27500001
v 8.47283649 11.36480522 0.27500001
v 8.50055885 11.41667080 0.00000000
v 8.53786755 11.46213245 0.00000000
v 8.58332920 11.49944115 0.00000000
v 8.63519478 11.52716351 0.00000000
v 8.69147301 11.54423523 0.00000000
v 8.50055885 11.41667080 0.27499998
v 8.53786755 11.46213245 0.27500001
v 8.58332920 11.49944115 0.27500001
v 8.63519478 11.52716351 0.27500001
v 8.69147301 11.54423523 0.27500001
v 8.26496315 11.04909134 0.50000000
v 8.23508739 11.14757729 0.50000000
v 8.31347847 10.95832539 0.50000000
v 8.22500038 11.25000000 0.50000000
v 8.23508739 11.35242271 0.50000000
v 8.26496315 11.45090866 0.50000000
v 8.31347847 11.54167461 0.50000000
v 8.37876892 11.62123108 0.50000000
v 8.45832539 11.68652153 0.50000000
v 8.54909134 11.73503685 0.50000000
v 8.64757729 11.76491261 0.50000000
v 10.00000000 10.00000000 0.00000000
v 8.75000000 10.72500038 0.50000000
v 8.85242271 10.73508739 0.50000000
v 8.95090866 10.76496315 0.50000000
v 9.04167461 10.81347847 0.50000000
v 9.12123108 10.87876892 0.50000000
v 10.00000000 10.00000000 0.50000000
v 8.75000000 10.94999981 0.00000000
v 8.80852699 10.95576477 0.00000000
v 8.86480522 10.97283649 0.00000000
v 8.91667080 11.00055885 0.00000000
v 8.96213245 11.03786755 0.00000000
v 8.99944115 11.08332920 0.00000000
v 9.02716351 11.13519478 0.00000000
v 9.04423523 11.19147301 0.00000000
v 9.05000019 11.25000000 0.00000000
v 9.04423523 11.30852699 0.00000000
v 9.02716351 11.36480522 0.00000000
v 8.75000000 10.94999981 0.27500001
v 8.80852699 10.95576477 0.27500001
v 8.86480522 10.97283649 0.27500001
v 8.91667080 11.00055885 0.27500001
v 8.96213245 11.03786755 0.27500001
v 8.99944115 11.08332920 0.27499998
v 9.02716351 11.13519478 0.27500001
v 9.04423523 11.19147301 0.27500001
v 9.05000019 11.25000000 0.27500001
v 9.04423523 11.30852699 0.27500001
v 9.02716351 11.36480522 0.27500001
v 8.75000000 11.55000019 0.00000000
v 8.80852699 11.54423523 0.00000000
v 8.86480522 11.52716351 0.00000000
v 8.96213245 11.46213245 0.00000000
v 8.91667080 11.49944115 0.00000000
v 8.99944115 11.41667080 0.00000000
v 8.75000000 11.55000019 0.27500001
v 8.80852699 11.54423523 0.27500001
v 8.86480522 11.52716351 0.27500001
v 8.96213245 11.46213150 0.27500001
v 8.91667080 11.49944115 0.27500001
v 8.99944115 11.41667080 0.27499998
v 9.18652153 10.95832539 0.50000000
v 9.23503685 11.04909134 0.50000000
v 9.26491261 11.14757729 0.50000000
v 9.27499962 11.25000000 0.50000000
v 9.26491261 11.35242271 0.50000000
v 8.75000000 11.77499962 0.50000000
v 8.85242271 11.76491261 0.50000000
v 8.95090866 11.73503685 0.50000000
v 9.04167461 11.68652153 0.50000000
v 9.12123108 11.62123108 0.50000000
v 9.18652153 11.54167461 0.50000000
v 9.23503685 11.45090866 0.50000000
v 7.50000000 12.50000000 0.00000000
v 7.50000000 12.50000000 0.50000000
v 10.00000000 12.50000000 0.00000000
v 10.00000000 12.50000000 0.50000000
v 5.03429317 12.76788807 1.39751697
v 5.09487391 12.81371880 1.47394598
v 5.15441370 12.86171246 1.55255604
v 5.36021519 14.83551884 0.50000000
v 1.24123383 10.00000000 2.65861773
v 1.16598558 10.00000000 2.74859500
v 1.66404450 10.00000000 2.26952457
v 1.57379007 10.00000000 2.33873367
v 1.48622251 10.00000000 2.41238976
v 1.40150130 10.00000000 2.49035668
v 1.31978500 10.00000000 2.57248259
v 1.09417307 10.00000000 2.84225082
v 1.02594090 10.00000000 2.93938804
v 0.96141028 10.00000000 3.03985572
v 0.90070951 10.00000000 3.14343095
v 0.87412596 10.00000000 3.19118404
v 0.84225464 10.00000000 3.25094032
v 4.33595324 10.00000000 2.26952457
v 4.42620707 10.00000000 2.33873367
v 4.51377535 10.00000000 2.41238976
v 4.59849501 10.00000000 2.49035668
v 4.68020916 10.00000000 2.57248259
v 4.75876379 10.00000000 2.65861750
v 4.83401632 10.00000000 2.74859476
v 4.90582323 10.00000000 2.84225082
v 4.97405434 10.00000000 2.93938804
v 0.63978469 10.00000000 4.50000000
v 0.84237593 10.00000000 4.50000000
v 0.84582579 12.82331181 4.50000000
v 0.84622055 14.14538479 3.70062304
v 0.91134548 14.19854164 3.77922511
v 0.97204721 14.24427509 3.85565305
v 1.03653347 14.28861046 3.92977905
v 1.10467315 14.33145905 4.00144720
v 1.17634916 14.37274075 4.07051992
v 0.84620923 13.91740894 4.50000000
v 0.84523535 14.14423466 4.50000000
v 0.85684609 14.15419960 4.50000000
v 0.90940821 14.19709110 4.50000000
v 0.97033465 14.24305248 4.50000000
v 1.03504193 14.28759193 4.50000000
v 1.10339594 14.33062172 4.50000000
v 1.17527652 14.37206364 4.50000000
v 0.63978469 14.83551884 4.50000000
v 1.25140810 14.41239166 4.13688707
v 1.32973337 14.45033073 4.20040083
v 1.41117680 14.48649406 4.26095915
v 1.49558222 14.52080822 4.31843281
v 1.25052869 14.41185474 4.50000000
v 1.32903290 14.44991493 4.50000000
v 1.40567994 14.48396873 4.50000000
v 1.41064024 14.48618317 4.50000000
v 1.49129140 14.51899242 4.50000000
v 1.49519312 14.52058697 4.50000000
v 1.58279276 14.55321789 4.37272787
v 1.67264831 14.58366489 4.42373991
v 1.58253396 14.55307293 4.50000000
v 1.67250216 14.58358383 4.50000000
v 1.76498318 14.61208153 4.47135782
v 1.76493180 14.61205292 4.50000000
v 1.82727706 14.62945366 4.50000000
v 1.83144474 14.62953472 4.50000000
v 2.95092392 14.08634949 3.59229994
v 3.04907393 14.08634949 3.59229994
v 4.96346188 14.28861046 3.92977905
v 4.89532280 14.33145905 4.00144720
v 4.82365322 14.37274075 4.07051992
v 4.67026043 14.45033073 4.20040083
v 4.74858952 14.41239166 4.13688707
v 4.32734966 14.58366489 4.42373991
v 4.17272139 14.62945366 4.50000000
v 4.16855431 14.62953472 4.50000000
v 4.23501396 14.61208153 4.47135782
v 4.23506546 14.61205292 4.50000000
v 4.32749605 14.58358383 4.50000000
v 4.58881950 14.48649406 4.26095915
v 4.50441599 14.52080822 4.31843281
v 4.67096090 14.44991493 4.50000000
v 4.41720438 14.55321789 4.37272787
v 4.41746330 14.55307293 4.50000000
v 4.50870657 14.51899242 4.50000000
v 4.50480509 14.52058697 4.50000000
v 4.58935595 14.48618317 4.50000000
v 4.59431601 14.48396873 4.50000000
v 4.74946880 14.41185474 4.50000000
v 4.82472563 14.37206364 4.50000000
v 4.89660025 14.33062172 4.50000000
v 4.96495342 14.28759193 4.50000000
v 5.03858232 10.00000000 3.03985572
v 5.09928942 10.00000000 3.14343071
v 5.10766554 10.00000000 3.15906429
v 5.13400650 10.00000000 3.20638466
v 5.15774536 10.00000000 3.25094032
v 5.15803671 10.00000000 4.23600817
v 5.15765333 10.00000000 4.50000000
v 5.36021519 10.00000000 4.50000000
v 5.15388060 13.10625076 4.50000000
v 5.15377951 14.14538479 3.70062304
v 5.08865356 14.19854164 3.77922511
v 5.02794552 14.24427509 3.85565305
v 5.15379095 13.91740894 4.50000000
v 5.15476465 14.14423466 4.50000000
v 5.10149956 14.18773842 4.50000000
v 5.09059095 14.19709110 4.50000000
v 5.02965784 14.24305248 4.50000000
v 5.36021519 14.83551884 4.50000000
v 0.64633000 17.77448463 0.50000000
v 0.84942025 18.47887230 0.50000000
v 0.64633000 20.39244080 0.50000000
v 0.84909439 19.98294067 0.76017702
v 4.87828779 18.47887230 0.50000000
v 2.55946898 18.36131477 1.09418499
v 3.16823101 18.36131477 1.09418499
v 4.87861347 19.98294067 0.76017702
v 2.37144589 18.30756950 1.39933801
v 2.49521089 18.23391914 1.81752205
v 3.35625410 18.30756950 1.39933801
v 3.23248911 18.23391914 1.81752205
v 0.50165695 23.58969498 0.50063998
v 0.52273864 23.58546448 0.50041199
v 0.54397953 23.58215141 0.50023401
v 0.56534874 23.57976723 0.50010502
v 0.58680189 23.57831192 0.50002801
v 0.60829431 23.57781029 0.50000000
v 0.30851749 23.68012619 0.50551200
v 0.29177150 23.69359398 0.50623798
v 0.27564520 23.70779800 0.50700200
v 0.23117016 23.75437927 0.50951201
v 0.19316758 23.80637169 0.51231200
v 0.18204266 23.82474327 0.51330298
v 0.20506261 23.78849030 0.51134998
v 0.21774819 23.77115059 0.51041502
v 0.24531102 23.73821259 0.50864100
v 0.26014161 23.72266960 0.50780398
v 0.15366757 23.88253212 0.51641500
v 0.14591940 23.90256119 0.51749402
v 0.13307941 23.94352531 0.51970100
v 0.13904896 23.92289734 0.51858997
v 0.12801254 23.96438599 0.52082503
v 0.12386648 23.98544502 0.52195901
v 0.11698687 24.04944420 0.52540702
v 0.12064108 24.00667763 0.52310300
v 0.11834527 24.02802086 0.52425301
v 0.17175260 23.84358215 0.51431698
v 0.16227557 23.86285782 0.51535600
v 0.36204034 23.64425278 0.50357902
v 0.38086951 23.63389969 0.50302100
v 0.32583019 23.66740417 0.50482601
v 0.34368017 23.65543175 0.50418103
v 0.41978747 23.61566353 0.50203902
v 0.40012571 23.62435913 0.50250697
v 0.43981239 23.60783958 0.50161803
v 0.46015683 23.60089874 0.50124401
v 0.48078158 23.59484291 0.50091797
v 0.62978768 23.57821846 0.50002301
v 0.65124726 23.57958031 0.50009501
v 0.67262739 23.58187103 0.50021899
v 0.69388109 23.58509445 0.50039202
v 0.71498126 23.58923149 0.50061500
v 0.73587996 23.59428978 0.50088799
v 0.75653046 23.60025597 0.50120902
v 0.77690387 23.60711288 0.50157797
v 0.79696351 23.61484528 0.50199503
v 0.81666625 23.62344742 0.50245899
v 0.83596271 23.63291359 0.50296801
v 0.85483587 23.64318275 0.50352198
v 0.87324727 23.65427589 0.50411999
v 0.89114398 23.66617966 0.50476003
v 0.90851223 23.67882538 0.50544202
v 0.92531180 23.69222641 0.50616401
v 0.94151103 23.70634651 0.50692499
v 0.95706803 23.72116280 0.50772202
v 0.97197133 23.73663521 0.50855601
v 0.98618358 23.75274086 0.50942397
v 0.99967915 23.76945496 0.51032400
v 1.01242590 23.78674889 0.51125503
v 1.02441120 23.80456924 0.51221502
v 1.03560746 23.82289696 0.51320302
v 1.04598904 23.84168625 0.51421499
v 1.05553806 23.86092567 0.51525098
v 1.06424677 23.88055420 0.51630902
v 1.07207656 23.90055275 0.51738602
v 1.07903445 23.92085838 0.51848000
v 1.08510184 23.94145966 0.51959002
v 1.09024799 23.96230125 0.52071202
v 1.09449661 23.98333931 0.52184600
v 1.09780812 24.00455856 0.52298898
v 1.10019433 24.02589226 0.52413797
v 1.10164940 24.04730988 0.52529198
v 0.11657119 24.07090187 0.52656299
v 0.11709156 24.09234810 0.52771902
v 0.11857755 24.11376381 0.52887201
v 0.12097888 24.13510513 0.53002203
v 0.12432052 24.15630722 0.53116399
v 0.12857623 24.17734146 0.53229803
v 0.13374454 24.19817162 0.53342098
v 0.13983387 24.21876144 0.53452998
v 0.14680552 24.23905754 0.53562403
v 0.15465608 24.25904083 0.53670102
v 0.16336866 24.27865982 0.53775901
v 0.17293714 24.29787827 0.53879499
v 0.18332970 24.31666374 0.53980798
v 0.19453515 24.33496666 0.54079503
v 0.20652337 24.35276794 0.54175502
v 0.21928287 24.37003899 0.54268599
v 0.23277357 24.38673973 0.54358703
v 0.24699721 24.40281868 0.54445398
v 0.26189914 24.41827583 0.54528803
v 0.27746096 24.43306351 0.54608601
v 0.29365012 24.44717216 0.54684699
v 0.31045040 24.46054649 0.54756802
v 0.32780647 24.47318077 0.54825002
v 0.34569716 24.48506165 0.54889101
v 0.36409909 24.49613190 0.54948801
v 0.38296306 24.50640297 0.55004197
v 0.40225357 24.51583099 0.55055100
v 0.42193493 24.52442551 0.55101502
v 0.44197679 24.53215027 0.55143201
v 0.46233505 24.53898811 0.55180103
v 0.48296952 24.54493713 0.55212200
v 0.50384760 24.54999542 0.55239499
v 0.52492785 24.55412483 0.55261803
v 0.54616308 24.55733299 0.55279100
v 0.56752068 24.55962753 0.55291498
v 0.58895636 24.56097412 0.55298799
v 0.61043268 24.56140327 0.55301100
v 0.79876912 24.52360916 0.55097097
v 0.81841540 24.51493645 0.55050302
v 0.85648245 24.49506760 0.54943103
v 0.83766282 24.50541687 0.54998899
v 0.89267194 24.47195625 0.54818398
v 0.90997452 24.45924950 0.54749799
v 0.92671824 24.44580269 0.54677302
v 0.87483007 24.48390961 0.54882902
v 1.09062636 24.17525673 0.53218597
v 1.08552885 24.19610786 0.53330898
v 1.07265449 24.23705292 0.53551602
v 1.07955325 24.21673012 0.53442103
v 1.04677975 24.29598427 0.53869301
v 1.06489110 24.25706863 0.53659499
v 1.05626822 24.27672577 0.53765500
v 1.10215747 24.06876755 0.52644801
v 1.10172367 24.09021378 0.52760398
v 1.10034335 24.11163521 0.52875799
v 1.09802461 24.13298607 0.52990800
v 1.09478104 24.15420341 0.53105098
v 1.01343334 24.35102081 0.54166102
v 0.97317594 24.40124512 0.54436898
v 1.00074923 24.36834717 0.54259503
v 0.98731905 24.38509560 0.54349798
v 1.03646600 24.31481361 0.53970802
v 1.02534509 24.33316803 0.54069799
v 0.94284469 24.43162346 0.54600799
v 0.95833963 24.41676331 0.54520601
v 0.65333629 24.55944061 0.55290502
v 0.63190657 24.56088066 0.55298299
v 0.67468441 24.55705452 0.55277598
v 0.69590533 24.55375481 0.55259800
v 0.71696728 24.54953384 0.55237001
v 0.73782301 24.54438591 0.55209202
v 0.75843114 24.53834534 0.55176598
v 0.77875966 24.53141594 0.55139202
v 1.30936170 23.14550209 0.50000000
v 1.30936170 24.76811028 0.50000000
v 5.08137798 17.77448463 0.50000000
v 5.08137798 20.39244080 0.50000000
v 7.50000000 22.50000000 0.00000000
v 7.50000000 22.50000000 0.50000000
v 10.00000000 22.50000000 0.00000000
v 10.00000000 22.50000000 0.50000000
v 8.50055885 23.58332825 0.00000000
v 8.58332920 23.50055885 0.00000000
v 8.53786755 23.53786850 0.00000000
v 8.63519478 23.47283554 0.00000000
v 8.69147301 23.45576477 0.00000000
v 8.50055885 23.58332825 0.27499998
v 8.58332920 23.50055885 0.27500001
v 8.53786755 23.53786850 0.27500001
v 8.63519478 23.47283554 0.27500001
v 8.69147301 23.45576477 0.27500001
v 8.47283649 23.63519478 0.00000000
v 8.45576477 23.69147301 0.00000000
v 8.44999981 23.75000000 0.00000000
v 8.45576477 23.80852699 0.00000000
v 8.47283649 23.86480522 0.00000000
v 8.50055885 23.91667175 0.00000000
v 8.53786755 23.96213150 0.00000000
v 8.58332920 23.99944115 0.00000000
v 8.63519478 24.02716446 0.00000000
v 8.69147301 24.04423523 0.00000000
v 8.47283649 23.63519478 0.27500001
v 8.45576477 23.69147301 0.27500001
v 8.44999981 23.75000000 0.27500001
v 8.45576477 23.80852699 0.27500001
v 8.47283649 23.86480522 0.27500001
v 8.50055885 23.91667175 0.27499998
v 8.53786755 23.96213150 0.27500001
v 8.58332920 23.99944115 0.27500001
v 8.63519478 24.02716446 0.27500001
v 8.69147301 24.04423523 0.27500001
v 8.26496315 23.54909134 0.50000000
v 8.31347847 23.45832634 0.50000000
v 8.37876892 23.37876892 0.50000000
v 8.45832539 23.31347847 0.50000000
v 8.54909134 23.26496315 0.50000000
v 8.64757729 23.23508835 0.50000000
v 8.23508739 23.64757729 0.50000000
v 8.22500038 23.75000000 0.50000000
v 8.23508739 23.85242271 0.50000000
v 8.26496315 23.95090866 0.50000000
v 8.31347847 24.04167366 0.50000000
v 7.50000000 25.00000000 0.00000000
v 7.50000000 25.00000000 0.50000000
v 8.37876892 24.12123108 0.50000000
v 8.45832539 24.18652153 0.50000000
v 8.54909134 24.23503685 0.50000000
v 8.64757729 24.26491165 0.50000000
v 8.75000000 23.45000076 0.00000000
v 8.80852699 23.45576477 0.00000000
v 8.86480522 23.47283554 0.00000000
v 8.91667080 23.50055885 0.00000000
v 8.96213245 23.53786850 0.00000000
v 8.99944115 23.58332825 0.00000000
v 8.75000000 23.45000076 0.27500001
v 8.80852699 23.45576477 0.27500001
v 8.86480522 23.47283554 0.27500001
v 8.91667080 23.50055885 0.27500001
v 8.96213245 23.53786850 0.27500001
v 8.99944115 23.58332825 0.27499998
v 9.02716351 23.63519478 0.00000000
v 9.04423523 23.69147301 0.00000000
v 9.05000019 23.75000000 0.00000000
v 9.04423523 23.80852699 0.00000000
v 8.75000000 24.04999924 0.00000000
v 8.80852699 24.04423523 0.00000000
v 8.86480522 24.02716446 0.00000000
v 9.02716351 23.86480522 0.00000000
v 8.99944115 23.91667175 0.00000000
v 8.91667080 23.99944115 0.00000000
v 8.96213245 23.96213150 0.00000000
v 9.02716351 23.63519478 0.27500001
v 9.04423523 23.69147301 0.27500001
v 9.05000019 23.75000000 0.27500001
v 9.04423523 23.80852699 0.27500001
v 8.75000000 24.04999924 0.27500001
v 8.80852699 24.04423523 0.27500001
v 8.86480522 24.02716446 0.27500001
v 9.02716351 23.86480522 0.27500001
v 8.99944115 23.91667175 0.27499998
v 8.91667080 23.99944115 0.27500001
v 8.96213245 23.96213150 0.27500001
v 8.75000000 23.22500038 0.50000000
v 8.85242271 23.23508835 0.50000000
v 8.95090866 23.26496315 0.50000000
v 9.04167461 23.31347847 0.50000000
v 9.12123108 23.37876892 0.50000000
v 9.18652153 23.45832634 0.50000000
v 9.23503685 23.54909134 0.50000000
v 9.26491261 23.64757729 0.50000000
v 9.27499962 23.75000000 0.50000000
v 9.18652153 24.04167366 0.50000000
v 9.26491261 23.85242271 0.50000000
v 9.23503685 23.95090866 0.50000000
v 10.00000000 25.00000000 0.00000000
v 8.75000000 24.27499962 0.50000000
v 8.85242271 24.26491165 0.50000000
v 8.95090866 24.23503685 0.50000000
v 9.04167461 24.18652153 0.50000000
v 9.12123108 24.12123108 0.50000000
v 10.00000000 25.00000000 0.50000000
v 0.84665334 17.97467041 3.32669497
v 4.88105488 17.97467041 3.32669497
v 0.64633000 17.77448463 4.50000000
v 0.84693366 17.97461510 4.50000000
v 0.84836185 18.18376541 4.50000000
v 0.84897846 18.60313606 4.50000000
v 0.84942025 19.33182907 4.50000000
v 0.84633768 20.18816948 4.50000000
v 0.84633738 20.19188309 4.50000000
v 0.64633000 20.39244080 4.50000000
v 4.88077450 17.97461510 4.50000000
v 4.87934637 18.18376541 4.50000000
v 4.87872982 18.60313606 4.50000000
v 4.87828779 19.33182907 4.50000000
v 4.88137102 20.19188309 4.50000000
v 4.88137054 20.18816948 4.50000000
v 0.28714278 23.46392250 4.50000000
v 0.30408612 23.45024300 4.50000000
v 0.30636835 23.44855118 4.50000000
v 0.22565469 23.52577209 4.50000000
v 0.22749259 23.52365685 4.50000000
v 0.18709856 23.57867813 4.50000000
v 0.18865237 23.57632828 4.50000000
v 0.21200418 23.54288292 4.50000000
v 0.21378480 23.54063988 4.50000000
v 0.19914646 23.56053734 4.50000000
v 0.27073538 23.47840500 4.50000000
v 0.25505078 23.49350548 4.50000000
v 0.23999962 23.50932121 4.50000000
v 0.24192537 23.50728798 4.50000000
v 0.48329619 23.14550209 4.50000000
v 0.48363423 23.14550209 4.50000000
v 0.50008380 23.35817719 4.50000000
v 0.52146959 23.35387230 4.50000000
v 0.52420235 23.35343742 4.50000000
v 0.54297161 23.35051155 4.50000000
v 0.56470609 23.34807396 4.50000000
v 0.58646995 23.34660339 4.50000000
v 0.58923459 23.34653091 4.50000000
v 0.60827929 23.34608078 4.50000000
v 0.35842821 23.41370201 4.50000000
v 0.36086151 23.41235161 4.50000000
v 0.37748381 23.40318680 4.50000000
v 0.38000822 23.40192413 4.50000000
v 0.32169041 23.43725967 4.50000000
v 0.33979800 23.42507935 4.50000000
v 0.34217131 23.42362213 4.50000000
v 0.41960019 23.38358879 4.50000000
v 0.41701743 23.38460732 4.50000000
v 0.39706779 23.39345551 4.50000000
v 0.39960173 23.39232445 4.50000000
v 0.43728679 23.37666321 4.50000000
v 0.46062756 23.36879158 4.50000000
v 0.45792371 23.36959648 4.50000000
v 0.47885188 23.36343384 4.50000000
v 0.15576760 23.63616371 4.50000000
v 0.14700559 23.65622902 4.50000000
v 0.13916385 23.67656326 4.50000000
v 0.13309871 23.69456291 4.50000000
v 0.13219732 23.69725990 4.50000000
v 0.11679067 23.76090622 4.50000000
v 0.12692392 23.71550560 4.50000000
v 0.12613867 23.71824646 4.50000000
v 0.12166660 23.73670197 4.50000000
v 0.12100134 23.73947525 4.50000000
v 0.11733624 23.75809860 4.50000000
v 0.11394272 23.77967644 4.50000000
v 0.11351938 23.78251076 4.50000000
v 0.11119209 23.80422783 4.50000000
v 0.10981183 23.82603073 4.50000000
v 0.10998747 23.82315826 4.50000000
v 0.16671962 23.61406517 4.50000000
v 0.16537164 23.61655235 4.50000000
v 0.17582308 23.59738159 4.50000000
v 0.17727295 23.59496498 4.50000000
v 0.10943376 23.84498978 4.50000000
v 0.10938433 23.84757805 4.50000000
v 0.63008231 23.34650803 4.50000000
v 0.63284212 23.34667397 4.50000000
v 0.65185583 23.34788513 4.50000000
v 0.65461451 23.34817314 4.50000000
v 0.67349815 23.35021400 4.50000000
v 0.69511253 23.35349274 4.50000000
v 0.69783187 23.35402107 4.50000000
v 0.71652496 23.35770607 4.50000000
v 0.73767596 23.36284447 4.50000000
v 0.75867826 23.36892509 4.50000000
v 0.76130891 23.36980629 4.50000000
v 0.77930057 23.37588310 4.50000000
v 0.79970306 23.38377380 4.50000000
v 0.80225402 23.38488579 4.50000000
v 0.81969196 23.39253616 4.50000000
v 0.83922225 23.40213203 4.50000000
v 0.84171182 23.40348244 4.50000000
v 0.85841423 23.41261101 4.50000000
v 0.86080664 23.41405106 4.50000000
v 0.87709409 23.42390823 4.50000000
v 0.87942475 23.42545319 4.50000000
v 0.89525902 23.43601227 4.50000000
v 0.91283292 23.44885254 4.50000000
v 0.92987847 23.46249008 4.50000000
v 0.93203712 23.46436501 4.50000000
v 0.94635147 23.47689629 4.50000000
v 0.94838315 23.47882843 4.50000000
v 0.96210295 23.49193192 4.50000000
v 0.97725916 23.50771523 4.50000000
v 0.97912234 23.50982475 4.50000000
v 0.99164063 23.52406502 4.50000000
v 0.99344891 23.52629852 4.50000000
v 1.00536847 23.54111290 4.50000000
v 1.00704908 23.54338837 4.50000000
v 1.01830542 23.55871010 4.50000000
v 1.03046346 23.57684517 4.50000000
v 1.04178810 23.59544945 4.50000000
v 1.04318905 23.59797287 4.50000000
v 1.05235195 23.61461830 4.50000000
v 1.06204295 23.63419342 4.50000000
v 1.07087076 23.65416908 4.50000000
v 1.07191586 23.65682602 4.50000000
v 1.07882082 23.67451859 4.50000000
v 1.08587801 23.69518280 4.50000000
v 1.09201205 23.71609497 4.50000000
v 1.09271991 23.71892929 4.50000000
v 1.09782922 23.74016571 4.50000000
v 1.09725654 23.73734856 4.50000000
v 1.10156024 23.75876236 4.50000000
v 1.10491610 23.78030014 4.50000000
v 1.10734737 23.80206108 4.50000000
v 1.10881770 23.82380295 4.50000000
v 1.10934186 23.84540176 4.50000000
v 0.10943256 24.07020187 4.50000000
v 0.10995646 24.09172821 4.50000000
v 0.11143378 24.11345863 4.50000000
v 0.11385813 24.13511086 4.50000000
v 0.11726874 24.15684319 4.50000000
v 0.12153025 24.17797279 4.50000000
v 0.12676229 24.19911575 4.50000000
v 0.13291492 24.22001457 4.50000000
v 0.13997285 24.24061775 4.50000000
v 0.14792345 24.26090050 4.50000000
v 0.15675503 24.28081512 4.50000000
v 0.16644599 24.30032921 4.50000000
v 0.17698181 24.31940269 4.50000000
v 0.18834032 24.33798981 4.50000000
v 0.20049608 24.35606194 4.50000000
v 0.21343289 24.37360382 4.50000000
v 0.22712605 24.39055824 4.50000000
v 0.24154213 24.40689659 4.50000000
v 0.25666094 24.42259216 4.50000000
v 0.27244845 24.43761253 4.50000000
v 0.28887877 24.45194054 4.50000000
v 0.30592161 24.46553421 4.50000000
v 0.32353520 24.47836494 4.50000000
v 0.34169570 24.49042892 4.50000000
v 0.36036769 24.50168419 4.50000000
v 0.37951568 24.51211929 4.50000000
v 0.39909539 24.52169991 4.50000000
v 0.41907498 24.53042793 4.50000000
v 0.43942222 24.53827477 4.50000000
v 0.46008798 24.54522705 4.50000000
v 0.48103493 24.55127525 4.50000000
v 0.50223321 24.55640984 4.50000000
v 0.52363658 24.56060791 4.50000000
v 0.54519451 24.56386948 4.50000000
v 0.56687987 24.56619835 4.50000000
v 0.58864331 24.56756973 4.50000000
v 0.61044908 24.56800461 4.50000000
v 0.80165809 24.52960014 4.50000000
v 0.82159948 24.52078438 4.50000000
v 0.84113872 24.51111984 4.50000000
v 0.91452825 24.46421432 4.50000000
v 0.93151242 24.45054817 4.50000000
v 0.86023939 24.50059891 4.50000000
v 0.87886208 24.48926353 4.50000000
v 0.89696985 24.47712135 4.50000000
v 1.09258294 24.19679642 4.50000000
v 1.08653319 24.21772003 4.50000000
v 1.07163429 24.25889969 4.50000000
v 1.07949710 24.23858070 4.50000000
v 1.06289113 24.27885246 4.50000000
v 1.10929632 24.06808662 4.50000000
v 1.10886657 24.08956146 4.50000000
v 1.10749829 24.11109161 4.50000000
v 1.10517621 24.13275146 4.50000000
v 1.10188019 24.15449142 4.50000000
v 1.09766865 24.17585754 4.50000000
v 1.00661635 24.37188339 4.50000000
v 0.99299747 24.38889694 4.50000000
v 0.97865176 24.40529823 4.50000000
v 1.05328381 24.29840660 4.50000000
v 1.04283059 24.31752586 4.50000000
v 1.03155422 24.33616066 4.50000000
v 1.01947618 24.35428810 4.50000000
v 0.94787961 24.43614960 4.50000000
v 0.96360159 24.42106056 4.50000000
v 0.63225222 24.56747437 4.50000000
v 0.65400964 24.56600952 4.50000000
v 0.69722885 24.56023216 4.50000000
v 0.67568547 24.56358719 4.50000000
v 0.71861362 24.55594063 4.50000000
v 0.73978895 24.55071449 4.50000000
v 0.76070964 24.54457664 4.50000000
v 0.78134644 24.53753471 4.50000000
v 1.30936170 23.14550209 4.50000000
v 1.30936170 24.32627487 4.50000000
v 1.30936170 24.76811028 4.50000000
v 5.08137798 17.77448463 4.50000000
v 5.08137798 20.39244080 4.50000000
f 863 865 862
f 771 859 860
f 771 860 861
f 664 864 862
f 771 861 862
f 862 866 771
f 867 771 866
f 864 772 874
f 862 864 863
f 859 770 858
f 863 864 874
f 866 862 865
f 865 863 874
f 866 865 869
f 833 867 868
f 867 866 870
f 868 867 872
f 833 868 873
f 874 846 853
f 851 849 845
f 842 843 874
f 837 854 853
f 846 836 853
f 843 848 874
f 874 848 850
f 849 874 850
f 874 849 851
f 870 866 869
f 874 853 854
f 874 852 846
f 874 851 852
f 874 840 839
f 874 839 842
f 861 663 862
f 857 769 794
f 770 857 858
f 879 885 1140
f 1139 884 883
f 1148 877 875
f 1146 876 878
f 881 880 883
f 885 881 883
f 883 884 885
f 886 885 884
f 1345 875 1033
f 883 876 1139
f 1140 885 886
f 1153 878 882
f 1346 1034 877
f 879 1154 882
f 877 1081 394
f 394 1081 1031
f 888 889 890
f 890 891 892
f 874 855 856
f 871 867 870
f 871 872 867
f 869 865 874
f 868 872 873
f 869 874 870
f 870 874 871
f 872 871 874
f 873 872 874
f 850 845 849
f 854 855 874
f 874 856 873
f 876 880 881
f 880 876 883
f 876 879 878
f 879 876 881
f 881 885 879
f 878 879 882
f 825 822 816
f 819 818 815
f 815 816 820
f 820 819 815
f 816 823 825
f 825 826 812
f 826 828 812
f 821 820 816
f 822 821 816
f 818 817 813
f 823 815 827
f 827 815 830
f 824 823 827
f 825 823 824
f 826 825 824
f 828 826 824
f 828 824 827
f 828 827 829
f 819 820 812
f 812 807 808
f 808 809 812
f 809 810 812
f 811 813 817
f 810 811 812
f 811 817 812
f 817 818 812
f 818 819 812
f 829 827 830
f 820 821 812
f 812 821 822
f 822 825 812
f 803 814 813
f 815 814 831
f 813 814 818
f 818 814 815
f 815 823 816
f 834 856 855
f 841 838 843
f 842 841 843
f 848 843 838
f 845 847 844
f 844 836 846
f 854 837 835
f 836 837 853
f 833 873 856
f 839 841 842
f 835 855 854
f 841 844 847
f 847 845 850
f 845 844 851
f 851 844 852
f 852 844 846
f 847 848 838
f 850 848 847
f 832 836 844
f 830 815 840
f 828 829 812
f 829 830 812
f 840 812 830
f 831 832 844
f 815 831 844
f 840 815 844
f 812 840 874
f 890 892 924
f 833 834 835
f 836 833 835
f 837 836 835
f 856 834 833
f 855 835 834
f 841 840 844
f 838 841 847
f 840 841 839
f 988 991 989
f 977 979 978
f 979 982 980
f 980 982 981
f 982 979 983
f 983 988 984
f 984 987 985
f 987 984 988
f 985 987 986
f 979 973 983
f 989 991 990
f 988 983 1028
f 991 994 992
f 991 988 1028
f 994 991 1025
f 992 994 993
f 1032 1081 245
f 983 890 1022
f 969 971 970
f 960 962 961
f 962 965 963
f 963 965 964
f 965 962 967
f 965 967 966
f 962 919 983
f 967 969 968
f 969 967 973
f 983 1022 1028
f 967 962 983
f 971 969 973
f 971 973 972
f 973 975 974
f 973 967 983
f 975 973 979
f 975 979 976
f 976 979 977
f 1019 1020 1017
f 1010 1011 1012
f 1013 1010 1012
f 1014 1010 1013
f 1018 1016 1004
f 1022 1004 1016
f 1017 1020 1015
f 1017 1018 1019
f 1018 1004 1019
f 1009 1007 1008
f 1025 991 1028
f 1023 994 1025
f 994 1023 1024
f 1025 1028 1026
f 1026 1028 1027
f 1028 1030 1029
f 877 1034 1081
f 1081 1080 244
f 1021 1001 1000
f 998 1030 1028
f 995 998 996
f 1030 998 995
f 1028 1022 998
f 998 1002 997
f 1002 1000 999
f 1022 1021 1000
f 1000 998 1022
f 958 960 959
f 1002 998 1000
f 1022 930 1004
f 1004 953 1014
f 1004 1014 1003
f 1004 1006 1005
f 1004 1005 1008
f 1007 1019 1008
f 1004 1008 1019
f 895 916 917
f 910 958 909
f 960 958 908
f 912 897 903
f 912 903 913
f 903 897 904
f 897 919 962
f 917 914 915
f 919 917 915
f 962 960 897
f 920 921 918
f 919 918 887
f 887 918 921
f 887 921 922
f 919 887 888
f 890 919 888
f 919 890 983
f 924 892 923
f 895 901 902
f 893 895 894
f 916 895 893
f 897 917 919
f 901 900 896
f 895 897 900
f 897 912 898
f 900 897 899
f 900 901 895
f 890 924 930
f 917 897 895
f 904 897 908
f 905 904 908
f 904 905 906
f 905 908 907
f 908 897 960
f 908 958 910
f 909 911 910
f 953 945 948
f 941 942 943
f 944 941 943
f 930 945 953
f 945 940 944
f 945 946 947
f 930 953 1004
f 947 948 945
f 948 949 950
f 940 941 944
f 953 948 950
f 953 950 951
f 953 951 952
f 953 954 955
f 955 956 953
f 953 956 1010
f 1010 956 957
f 953 1010 1014
f 936 933 934
f 924 925 926
f 930 924 926
f 930 926 927
f 927 928 929
f 930 927 929
f 930 931 933
f 933 931 932
f 930 933 936
f 812 806 807
f 930 936 940
f 936 934 935
f 940 936 937
f 940 937 938
f 930 940 945
f 890 930 1022
f 940 938 939
f 633 589 629
f 627 624 625
f 627 625 626
f 660 623 627
f 796 590 589
f 589 776 777
f 589 777 778
f 592 636 774
f 589 635 634
f 623 624 627
f 589 630 629
f 630 589 628
f 589 633 635
f 628 589 645
f 589 634 631
f 632 589 631
f 589 632 775
f 589 775 776
f 612 615 616
f 599 605 606
f 606 607 608
f 606 608 610
f 610 608 609
f 606 610 612
f 612 610 611
f 612 613 615
f 615 613 614
f 629 596 633
f 616 617 619
f 612 616 623
f 619 617 618
f 623 616 619
f 619 620 621
f 623 619 621
f 623 621 622
f 660 612 623
f 781 637 638
f 780 781 589
f 780 589 774
f 781 782 589
f 782 783 589
f 783 784 589
f 785 589 784
f 774 773 592
f 774 636 637
f 589 773 774
f 782 638 639
f 783 639 640
f 632 631 593
f 775 632 595
f 775 594 776
f 777 776 602
f 777 601 778
f 778 603 779
f 594 602 776
f 645 591 628
f 630 628 591
f 630 599 629
f 635 597 634
f 633 596 635
f 600 631 634
f 595 632 593
f 595 594 775
f 617 654 618
f 634 597 600
f 600 593 631
f 601 777 602
f 601 603 778
f 604 779 603
f 779 604 592
f 779 773 589
f 778 779 589
f 585 546 547
f 539 580 581
f 582 540 581
f 538 579 580
f 577 538 576
f 540 539 581
f 539 538 580
f 586 540 542
f 546 585 542
f 540 582 583
f 585 544 545
f 544 585 543
f 543 585 549
f 549 585 548
f 585 547 548
f 542 585 584
f 542 584 586
f 587 588 395
f 538 571 573
f 585 561 559
f 561 585 562
f 563 562 585
f 563 585 541
f 540 583 542
f 538 568 572
f 538 572 571
f 576 538 573
f 588 587 1273
f 538 564 566
f 564 538 565
f 538 566 569
f 538 569 570
f 538 570 567
f 568 538 567
f 538 577 578
f 579 538 578
f 608 642 609
f 603 601 592
f 603 592 604
f 592 602 637
f 589 663 645
f 591 645 605
f 605 645 606
f 606 647 607
f 607 647 608
f 637 602 606
f 609 643 610
f 610 644 611
f 611 648 612
f 612 649 613
f 613 650 614
f 614 651 615
f 615 652 616
f 616 653 617
f 593 600 595
f 590 111 589
f 597 635 596
f 598 629 599
f 591 599 630
f 629 598 596
f 662 113 590
f 598 599 606
f 599 591 605
f 779 592 773
f 594 595 602
f 602 595 600
f 597 596 600
f 600 596 598
f 606 602 598
f 600 598 602
f 602 592 601
f 637 780 774
f 660 769 771
f 771 769 770
f 771 770 859
f 660 771 867
f 1034 772 666
f 1034 666 766
f 765 663 1035
f 1036 766 765
f 769 857 770
f 780 637 781
f 638 782 781
f 639 783 782
f 785 796 589
f 641 784 783
f 784 641 785
f 590 796 795
f 795 812 590
f 862 663 664
f 875 662 1033
f 589 1080 663
f 1033 662 772
f 662 874 772
f 663 665 664
f 772 664 666
f 663 765 665
f 666 664 665
f 785 641 797
f 792 663 793
f 793 663 794
f 794 663 857
f 857 663 858
f 858 663 859
f 859 663 860
f 860 663 861
f 772 864 664
f 805 804 798
f 799 801 800
f 798 799 806
f 801 803 802
f 808 799 800
f 803 801 814
f 808 800 801
f 801 802 809
f 802 803 811
f 836 660 833
f 805 798 806
f 806 799 807
f 807 799 808
f 811 803 813
f 809 808 801
f 810 809 802
f 810 802 811
f 812 805 806
f 660 867 833
f 641 799 798
f 637 801 799
f 797 641 798
f 637 831 814
f 793 660 792
f 794 661 793
f 612 832 831
f 832 660 836
f 589 103 1080
f 796 785 797
f 796 797 795
f 797 804 795
f 804 805 795
f 812 795 805
f 804 797 798
f 801 637 814
f 874 662 812
f 650 649 663
f 650 613 649
f 651 614 650
f 652 615 651
f 616 652 653
f 643 642 663
f 644 643 663
f 648 644 663
f 649 648 663
f 646 606 645
f 651 650 663
f 652 651 663
f 653 652 663
f 653 663 654
f 654 663 655
f 655 663 656
f 617 653 654
f 618 654 655
f 647 606 646
f 636 592 637
f 638 637 639
f 639 637 641
f 640 639 641
f 783 640 641
f 812 662 590
f 799 641 637
f 831 637 606
f 619 655 656
f 642 608 647
f 643 609 642
f 644 610 643
f 646 645 663
f 647 646 663
f 642 647 663
f 648 611 644
f 649 612 648
f 626 789 790
f 658 621 657
f 786 622 658
f 790 789 663
f 790 663 791
f 791 663 792
f 623 786 787
f 624 787 788
f 625 788 789
f 791 659 627
f 627 790 791
f 659 792 660
f 660 793 661
f 661 794 769
f 606 612 831
f 627 659 660
f 660 661 769
f 660 832 612
f 620 619 656
f 620 656 657
f 656 663 657
f 657 663 658
f 658 663 786
f 787 786 663
f 788 787 663
f 789 788 663
f 619 618 655
f 1032 1031 1081
f 621 620 657
f 622 621 658
f 786 623 622
f 787 624 623
f 788 625 624
f 789 626 625
f 790 627 626
f 1162 1164 587
f 1029 1341 1340
f 1342 1031 1343
f 1343 1032 1344
f 1156 587 1169
f 1156 1155 587
f 1211 1194 587
f 1163 1162 587
f 1163 587 1158
f 1028 1340 1339
f 1168 1167 587
f 1168 587 1166
f 1165 1166 587
f 1165 587 1155
f 1159 1158 587
f 1167 1159 587
f 1213 1212 587
f 1213 587 1160
f 1330 1020 1329
f 1321 1011 1320
f 1322 1012 1321
f 1323 1013 1322
f 1003 1323 1324
f 1017 1331 1325
f 1326 1017 1325
f 1327 1018 1326
f 1329 1019 1328
f 1161 1160 587
f 1331 1015 1330
f 1332 1021 1333
f 1333 1022 1327
f 1024 1335 1334
f 1023 1337 1335
f 1025 1336 1337
f 1026 1338 1336
f 1027 1339 1338
f 1188 1182 1169
f 1157 1156 1169
f 1184 1183 1169
f 1185 1184 1169
f 1192 1169 1191
f 1192 1190 1169
f 1179 1185 1169
f 1181 1180 1169
f 1180 1179 1169
f 1183 1157 1169
f 1189 1188 1169
f 1182 1181 1169
f 1187 1189 1169
f 1190 1186 1169
f 1169 1186 1187
f 1169 1170 1233
f 1193 1191 1169
f 1193 1169 1171
f 587 1201 1202
f 587 1164 1161
f 587 1210 1211
f 1212 1210 587
f 1194 1195 587
f 1197 587 1196
f 1195 1196 587
f 1198 1200 587
f 1198 587 1197
f 1011 1319 1320
f 1201 587 1200
f 1203 1204 587
f 1203 587 1202
f 587 1199 1205
f 1204 1199 587
f 587 1205 1206
f 1207 587 1206
f 587 1207 1209
f 967 1279 1278
f 1269 958 1270
f 960 1271 1270
f 1271 960 1272
f 962 1273 1272
f 963 1274 1273
f 1274 963 1275
f 964 1276 1275
f 965 1277 1276
f 1319 1010 1268
f 967 1278 1277
f 969 1280 1279
f 970 1281 1280
f 1281 970 1282
f 971 1283 1282
f 973 1284 1283
f 1284 973 1285
f 974 1286 1285
f 1260 951 1259
f 1252 945 1251
f 1253 946 1252
f 1254 947 1253
f 1255 948 1254
f 949 1255 1256
f 1257 949 1256
f 1258 950 1257
f 951 1258 1259
f 975 1287 1286
f 1261 952 1260
f 1263 953 1261
f 1262 953 1263
f 954 1262 1264
f 1265 954 1264
f 956 1265 1266
f 1267 956 1266
f 1268 957 1267
f 1001 1332 1310
f 994 1334 1305
f 588 1344 396
f 995 1306 1341
f 1306 995 1307
f 996 1308 1307
f 998 1311 1308
f 999 1309 1313
f 1000 1310 1309
f 1304 993 1305
f 997 1312 1311
f 1002 1313 1312
f 1314 1003 1324
f 1315 1004 1314
f 1317 1006 1315
f 1328 1007 1318
f 1316 1008 1317
f 1318 1009 1316
f 1295 984 1296
f 977 1288 1287
f 978 1289 1288
f 1289 978 1290
f 979 1291 1290
f 981 1292 1291
f 982 1293 1292
f 1293 982 1294
f 984 1295 1294
f 1172 1171 1169
f 986 1297 1296
f 987 1298 1297
f 1298 987 1299
f 989 1300 1299
f 990 1301 1300
f 1301 990 1302
f 992 1303 1302
f 993 1304 1303
f 588 1301 1302
f 588 1293 1294
f 588 1294 1295
f 588 1295 1296
f 588 1296 1297
f 588 1297 1298
f 588 1298 1299
f 588 1299 1300
f 588 1300 1301
f 588 1292 1293
f 588 1302 1303
f 1304 588 1303
f 588 1304 1305
f 588 1305 1334
f 1344 588 1334
f 1319 1268 1343
f 1320 1319 1343
f 1321 1320 1343
f 588 1283 1284
f 588 1275 1276
f 588 1276 1277
f 588 1277 1278
f 588 1278 1279
f 588 1279 1280
f 588 1280 1281
f 1281 1282 588
f 588 1282 1283
f 1324 1323 1343
f 588 1284 1285
f 588 1285 1286
f 1287 588 1286
f 588 1287 1288
f 588 1288 1289
f 588 1289 1290
f 588 1290 1291
f 1292 588 1291
f 1311 1312 1344
f 1344 1336 1338
f 1338 1339 1344
f 1344 1339 1340
f 1344 1340 1341
f 1341 1306 1344
f 1344 1307 1308
f 1344 1306 1307
f 1344 1308 1311
f 1337 1336 1344
f 1344 1312 1313
f 1309 1310 1344
f 1313 1309 1344
f 1344 1332 1333
f 1344 1310 1332
f 1333 1327 1344
f 1345 1033 1346
f 1149 1345 1346
f 1328 1318 1343
f 1314 1324 1343
f 1315 1314 1343
f 1317 1315 1343
f 1318 1316 1343
f 1316 1317 1343
f 1322 1321 1343
f 1323 1322 1343
f 1327 1326 1344
f 588 1274 1275
f 1329 1328 1344
f 1325 1331 1344
f 1344 1331 1330
f 1330 1329 1344
f 1344 1326 1325
f 1344 1328 1343
f 1344 1334 1335
f 1344 1335 1337
f 1228 1227 1169
f 587 1271 1272
f 1273 587 1272
f 1222 1221 1169
f 1223 1222 1169
f 1224 1223 1169
f 1225 1224 1169
f 1226 1225 1169
f 1227 1226 1169
f 587 1270 1271
f 1229 1228 1169
f 1230 1229 1169
f 1231 1230 1169
f 1232 1231 1169
f 1233 1232 1169
f 1234 1233 1170
f 1234 1170 1342
f 1235 1234 1342
f 1218 1217 1169
f 1173 1172 1169
f 1174 1173 1169
f 1175 1174 1169
f 1176 1175 1169
f 1177 1176 1169
f 1178 1177 1169
f 1217 1216 1169
f 1216 1178 1169
f 1236 1235 1342
f 1219 1218 1169
f 1220 1219 1169
f 1221 1220 1169
f 587 1208 1214
f 1209 1208 587
f 587 1214 1215
f 587 1215 1269
f 587 1269 1270
f 1263 1261 1343
f 1254 1253 1342
f 1255 1254 1342
f 1257 1256 1342
f 1256 1255 1342
f 1258 1257 1342
f 1259 1258 1342
f 1260 1259 1342
f 1260 1342 1343
f 1253 1252 1342
f 1261 1260 1343
f 1262 1263 1343
f 1264 1262 1343
f 1265 1264 1343
f 1266 1265 1343
f 1267 1266 1343
f 1268 1267 1343
f 1273 1274 588
f 1245 1244 1342
f 1237 1236 1342
f 1238 1237 1342
f 1239 1238 1342
f 1240 1239 1342
f 1241 1240 1342
f 1242 1241 1342
f 1243 1242 1342
f 1244 1243 1342
f 945 1250 1251
f 1246 1245 1342
f 1247 1246 1342
f 1250 1249 1342
f 1248 1247 1342
f 1249 1248 1342
f 1251 1250 1342
f 1252 1251 1342
f 1294 982 983
f 1286 974 975
f 1287 975 976
f 1287 976 977
f 1288 977 978
f 1290 978 979
f 1291 979 980
f 1291 980 981
f 1292 981 982
f 1285 973 974
f 1294 983 984
f 1296 984 985
f 1296 985 986
f 1297 986 987
f 1299 987 988
f 1299 988 989
f 1300 989 990
f 1302 990 991
f 1276 964 965
f 956 1267 957
f 957 1268 1010
f 1270 958 959
f 1270 959 960
f 1272 960 961
f 1272 961 962
f 1273 962 963
f 1275 963 964
f 1302 991 992
f 1277 965 966
f 1277 966 967
f 1279 967 968
f 1279 968 969
f 1280 969 970
f 1282 970 971
f 1283 971 972
f 1283 972 973
f 1019 1329 1020
f 1011 1321 1012
f 1012 1322 1013
f 1013 1323 1014
f 1014 1323 1003
f 1016 1327 1022
f 1018 1017 1326
f 1015 1331 1017
f 1016 1018 1327
f 1010 1319 1011
f 1007 1328 1019
f 1020 1330 1015
f 1022 1333 1021
f 1001 1021 1332
f 1335 1024 1023
f 1337 1023 1025
f 1336 1025 1026
f 1338 1026 1027
f 1310 1000 1001
f 1303 992 993
f 1305 993 994
f 1334 994 1024
f 1030 995 1341
f 1307 995 996
f 1311 998 997
f 1308 996 998
f 1309 999 1000
f 955 1265 956
f 1312 997 1002
f 1313 1002 999
f 1003 1314 1004
f 1004 1315 1006
f 1006 1317 1005
f 1005 1317 1008
f 1008 1316 1009
f 1007 1009 1318
f 1213 897 898
f 1162 900 899
f 1163 896 900
f 895 902 1165
f 1156 893 894
f 1165 894 895
f 902 901 1168
f 1159 901 896
f 1210 898 912
f 1195 903 904
f 1164 899 897
f 1194 912 913
f 1197 904 906
f 1200 906 905
f 1202 905 907
f 1204 907 908
f 1205 908 910
f 1207 910 911
f 922 921 1193
f 1169 395 1031
f 917 916 1183
f 914 917 1185
f 915 914 1181
f 919 915 1182
f 920 918 1190
f 921 920 1192
f 918 919 1189
f 1209 911 909
f 1193 887 922
f 888 887 1171
f 889 888 1174
f 890 889 1174
f 891 890 1175
f 892 891 1177
f 923 892 1178
f 1195 913 903
f 946 1253 947
f 939 938 1240
f 1243 940 939
f 940 1243 941
f 941 1246 942
f 942 1247 943
f 943 1249 944
f 944 1250 945
f 945 1252 946
f 938 937 1239
f 947 1254 948
f 948 1255 949
f 949 1257 950
f 950 1258 951
f 951 1260 952
f 952 1261 953
f 953 1262 954
f 954 1265 955
f 930 929 1227
f 1214 909 958
f 916 893 1157
f 924 923 1217
f 925 924 1220
f 926 925 1220
f 927 926 1222
f 928 927 1224
f 929 928 1224
f 1339 1027 1028
f 931 930 1227
f 932 931 1229
f 933 932 1231
f 934 933 1232
f 935 934 1234
f 936 935 1236
f 937 936 1238
f 910 1206 1205
f 896 1158 1159
f 899 1164 1162
f 898 1210 1212
f 897 1213 1160
f 1161 897 1160
f 898 1212 1213
f 912 1211 1210
f 1211 912 1194
f 896 1163 1158
f 1206 910 1207
f 911 1209 1207
f 908 1199 1204
f 1199 908 1205
f 909 1208 1209
f 1208 909 1214
f 958 1215 1214
f 1215 958 1269
f 1196 904 1197
f 888 1173 1174
f 890 1174 1175
f 891 1175 1176
f 891 1176 1177
f 892 1177 1178
f 923 1178 1216
f 913 1195 1194
f 1196 1195 904
f 1031 1170 1169
f 906 1200 1198
f 906 1198 1197
f 905 1201 1200
f 1201 905 1202
f 907 1204 1203
f 907 1203 1202
f 897 1161 1164
f 900 1162 1163
f 1243 939 1242
f 935 1235 1236
f 1235 935 1234
f 936 1236 1237
f 936 1237 1238
f 937 1238 1239
f 938 1239 1240
f 1170 1031 1342
f 939 1240 1241
f 1233 934 1232
f 1242 939 1241
f 941 1243 1244
f 941 1244 1245
f 1246 941 1245
f 1247 942 1246
f 1249 943 1248
f 1248 943 1247
f 1250 944 1249
f 929 1225 1226
f 923 1216 1217
f 924 1218 1219
f 1218 924 1217
f 924 1219 1220
f 926 1220 1221
f 926 1221 1222
f 927 1222 1223
f 927 1223 1224
f 1172 888 1171
f 1225 929 1224
f 929 1226 1227
f 931 1228 1229
f 1228 931 1227
f 932 1229 1230
f 932 1230 1231
f 933 1231 1232
f 934 1233 1234
f 1140 1139 1142
f 1147 878 1153
f 1148 1346 877
f 879 1140 1150
f 1140 886 1139
f 879 1150 1151
f 879 1151 1152
f 1154 879 1152
f 1153 882 1154
f 878 1147 1146
f 1139 1143 1142
f 1142 1143 1141
f 1143 1144 1141
f 1144 1145 1141
f 1145 1146 1141
f 1142 1141 1345
f 1148 1141 1146
f 1148 1146 1147
f 1033 1034 1346
f 1340 1028 1029
f 1341 1029 1030
f 1032 396 1344
f 1031 1032 1343
f 772 1034 1033
f 663 1080 1035
f 1036 1034 766
f 765 1035 1036
f 1148 1147 1153
f 1034 1036 1081
f 876 1143 1139
f 884 1139 886
f 1143 876 1144
f 1141 1148 875
f 1144 876 1145
f 1145 876 1146
f 1141 875 1345
f 917 1184 1185
f 919 1182 1188
f 919 1188 1189
f 918 1187 1186
f 918 1186 1190
f 1187 918 1189
f 921 1191 1193
f 1191 921 1192
f 920 1190 1192
f 894 1155 1156
f 916 1157 1183
f 1184 917 1183
f 914 1179 1180
f 914 1180 1181
f 1179 914 1185
f 915 1181 1182
f 887 1193 1171
f 888 1172 1173
f 1346 1153 1154
f 1140 1142 1149
f 1149 1142 1345
f 1150 1140 1149
f 1150 1149 1346
f 1151 1150 1346
f 1346 1148 1153
f 1152 1151 1346
f 1154 1152 1346
f 659 791 792
f 395 1169 587
f 893 1156 1157
f 1166 902 1168
f 901 1159 1167
f 901 1167 1168
f 902 1166 1165
f 894 1165 1155
f 358 360 457
f 275 276 585
f 382 381 471
f 383 382 472
f 380 379 469
f 379 378 468
f 381 380 469
f 378 377 466
f 377 392 466
f 370 369 463
f 369 363 463
f 362 361 461
f 361 364 459
f 364 359 458
f 363 362 461
f 374 371 541
f 360 357 455
f 357 356 454
f 356 368 453
f 368 366 453
f 366 367 452
f 359 358 458
f 367 365 450
f 365 353 450
f 353 355 448
f 355 354 448
f 354 352 446
f 352 351 445
f 351 350 445
f 350 349 443
f 391 388 559
f 515 256 260
f 515 255 256
f 513 254 255
f 252 253 511
f 259 252 509
f 258 257 506
f 250 258 504
f 506 257 259
f 249 251 501
f 251 250 502
f 500 393 246
f 392 370 465
f 562 387 391
f 388 390 560
f 349 326 443
f 390 389 556
f 371 387 562
f 384 383 550
f 386 553 385
f 385 555 376
f 389 376 558
f 386 384 552
f 279 546 277
f 375 543 278
f 279 278 548
f 545 372 374
f 373 372 545
f 375 373 544
f 302 306 412
f 322 321 428
f 321 320 426
f 320 319 425
f 319 318 424
f 318 317 423
f 317 316 422
f 316 315 420
f 315 314 419
f 313 312 421
f 314 313 418
f 292 311 417
f 311 310 416
f 309 297 404
f 310 309 415
f 323 322 429
f 304 413 305
f 305 414 306
f 303 410 307
f 302 411 303
f 307 409 308
f 298 301 407
f 300 405 301
f 298 403 297
f 299 406 300
f 308 408 299
f 312 296 402
f 296 295 401
f 294 293 400
f 295 294 399
f 335 337 434
f 348 439 304
f 343 338 486
f 342 340 483
f 340 343 485
f 341 342 482
f 248 249 499
f 497 247 248
f 347 247 497
f 344 345 494
f 346 344 492
f 345 347 495
f 339 346 490
f 338 339 488
f 334 341 481
f 513 253 254
f 336 335 433
f 348 336 440
f 331 329 475
f 333 334 479
f 332 333 477
f 329 332 475
f 327 330 437
f 330 331 438
f 328 435 337
f 328 327 436
f 326 325 431
f 325 324 431
f 324 323 429
f 435 328 436
f 353 448 449
f 448 354 447
f 354 446 447
f 446 352 445
f 445 350 444
f 350 443 444
f 441 275 442
f 439 348 440
f 433 335 434
f 440 336 433
f 438 331 474
f 500 246 397
f 438 437 330
f 437 436 327
f 450 353 449
f 434 337 435
f 443 326 432
f 326 431 432
f 431 324 430
f 324 429 430
f 429 322 428
f 428 321 427
f 321 426 427
f 426 320 425
f 425 319 424
f 424 318 423
f 423 317 422
f 422 316 420
f 420 315 419
f 370 463 464
f 475 474 331
f 477 476 332
f 475 332 476
f 550 383 473
f 466 392 465
f 585 442 275
f 383 472 473
f 472 382 471
f 471 381 470
f 381 469 470
f 469 379 468
f 468 378 467
f 378 466 467
f 465 370 464
f 419 314 418
f 463 363 462
f 363 461 462
f 461 361 460
f 361 459 460
f 459 364 458
f 457 360 456
f 360 455 456
f 458 358 457
f 455 357 454
f 454 356 453
f 453 366 452
f 452 367 451
f 367 450 451
f 537 274 287
f 394 393 586
f 276 394 586
f 291 277 583
f 291 582 290
f 289 577 288
f 286 288 576
f 289 290 580
f 287 280 575
f 286 573 285
f 285 572 283
f 284 283 570
f 282 284 569
f 282 564 281
f 281 565 280
f 394 395 245
f 537 273 274
f 535 272 273
f 535 271 272
f 532 269 270
f 532 270 271
f 530 268 269
f 527 267 268
f 527 266 267
f 525 265 266
f 524 264 265
f 522 263 264
f 521 262 263
f 518 260 261
f 519 261 262
f 408 406 299
f 418 313 421
f 417 311 416
f 415 309 404
f 416 310 415
f 411 302 412
f 414 305 413
f 413 304 439
f 412 306 414
f 410 303 411
f 409 307 410
f 408 308 409
f 407 403 298
f 405 300 406
f 407 301 405
f 293 292 398
f 404 297 403
f 421 312 402
f 402 296 401
f 399 294 400
f 401 295 399
f 400 293 398
f 417 398 292
f 246 441 397
f 588 396 395
f 1032 245 396
f 245 1081 244
f 394 1031 395
f 396 245 395
f 138 135 136
f 247 249 248
f 393 394 245
f 246 393 245
f 108 245 243
f 245 108 246
f 107 243 242
f 103 242 244
f 141 140 139
f 139 138 141
f 141 127 140
f 140 119 139
f 138 139 119
f 138 136 141
f 136 137 141
f 247 251 249
f 135 137 136
f 135 134 137
f 119 135 138
f 127 126 140
f 126 110 140
f 137 113 141
f 140 110 119
f 134 135 119
f 134 111 137
f 133 129 132
f 134 112 133
f 133 118 129
f 141 108 127
f 129 131 132
f 263 262 264
f 280 282 281
f 278 279 277
f 277 375 278
f 277 290 375
f 273 272 274
f 272 269 274
f 280 274 267
f 271 270 272
f 270 269 272
f 269 267 274
f 268 267 269
f 265 264 267
f 267 266 265
f 264 262 267
f 128 130 131
f 262 261 260
f 262 252 267
f 260 254 262
f 257 252 259
f 250 257 258
f 250 251 252
f 257 250 252
f 260 256 254
f 254 252 262
f 256 255 254
f 254 253 252
f 251 247 252
f 346 252 247
f 112 105 116
f 112 118 133
f 112 116 118
f 103 111 134
f 110 109 119
f 129 117 128
f 118 117 129
f 117 105 120
f 117 118 116
f 116 115 117
f 115 105 117
f 114 112 119
f 109 112 114
f 111 590 113
f 103 589 111
f 119 112 134
f 105 112 109
f 105 115 116
f 107 108 243
f 242 106 107
f 242 103 106
f 108 104 127
f 105 110 120
f 104 103 123
f 105 109 110
f 107 102 108
f 102 104 108
f 102 103 104
f 103 101 106
f 101 103 102
f 121 110 124
f 130 117 120
f 129 128 131
f 133 103 134
f 132 103 133
f 128 117 130
f 131 103 132
f 130 103 131
f 127 125 126
f 127 122 125
f 125 110 126
f 124 110 125
f 122 124 125
f 123 124 122
f 123 121 124
f 282 286 285
f 120 110 121
f 127 104 122
f 104 123 122
f 123 103 121
f 103 120 121
f 103 130 120
f 875 108 662
f 108 113 662
f 275 108 875
f 108 275 246
f 108 141 113
f 119 109 114
f 113 137 111
f 357 368 356
f 392 363 369
f 392 369 370
f 353 365 358
f 366 365 367
f 392 319 326
f 362 358 361
f 361 359 364
f 358 359 361
f 392 362 363
f 392 358 362
f 358 357 360
f 392 353 358
f 358 366 357
f 357 366 368
f 392 378 290
f 365 366 358
f 326 353 392
f 353 352 355
f 352 354 355
f 353 351 352
f 326 351 353
f 349 350 351
f 349 351 326
f 337 304 306
f 252 392 267
f 343 392 252
f 343 308 392
f 344 247 347
f 346 343 252
f 378 384 376
f 246 275 441
f 875 877 394
f 244 1080 103
f 276 875 394
f 275 875 276
f 371 376 391
f 376 389 391
f 391 390 388
f 389 390 391
f 387 371 391
f 386 376 384
f 378 376 371
f 376 386 385
f 383 381 382
f 344 347 345
f 378 383 384
f 378 381 383
f 378 380 381
f 379 380 378
f 378 392 377
f 375 290 371
f 374 375 371
f 374 373 375
f 373 374 372
f 286 280 392
f 378 371 290
f 290 286 392
f 267 392 280
f 301 298 297
f 319 311 317
f 311 312 317
f 312 313 315
f 297 319 308
f 311 297 310
f 297 309 310
f 308 303 307
f 337 306 308
f 306 304 305
f 306 303 308
f 306 302 303
f 301 297 308
f 308 300 301
f 308 299 300
f 315 313 314
f 297 311 319
f 312 295 296
f 295 293 294
f 295 312 311
f 311 292 295
f 292 293 295
f 290 277 291
f 286 289 288
f 286 290 289
f 287 274 280
f 282 283 284
f 282 280 286
f 282 285 283
f 329 331 330
f 247 344 346
f 341 332 342
f 343 342 332
f 342 343 340
f 339 343 346
f 343 339 338
f 332 337 343
f 308 343 337
f 348 335 336
f 335 348 337
f 337 348 304
f 334 332 341
f 332 334 333
f 329 330 332
f 557 585 560
f 330 337 332
f 337 327 328
f 337 330 327
f 308 319 392
f 326 324 325
f 319 324 326
f 324 322 323
f 324 321 322
f 319 321 324
f 319 320 321
f 319 317 318
f 317 315 316
f 317 312 315
f 397 405 406
f 397 437 438
f 397 436 437
f 433 434 397
f 397 440 433
f 439 440 397
f 439 397 413
f 410 397 409
f 410 411 397
f 414 413 397
f 412 414 397
f 411 412 397
f 408 397 406
f 397 408 409
f 436 397 435
f 583 582 291
f 581 580 290
f 582 581 290
f 579 578 289
f 578 577 289
f 577 576 288
f 580 579 289
f 575 280 565
f 575 574 287
f 537 287 574
f 573 571 285
f 572 568 283
f 571 572 285
f 421 397 441
f 397 474 475
f 397 438 474
f 428 441 429
f 427 441 428
f 426 441 427
f 425 441 426
f 424 441 425
f 423 441 424
f 422 441 423
f 420 441 422
f 419 441 420
f 418 441 419
f 441 418 421
f 570 283 567
f 400 397 399
f 397 400 398
f 405 397 407
f 407 397 403
f 415 397 416
f 417 397 398
f 397 417 416
f 404 397 415
f 397 404 403
f 402 397 421
f 401 397 402
f 397 401 399
f 435 397 434
f 271 533 532
f 545 374 541
f 545 544 373
f 583 277 542
f 541 371 563
f 540 586 393
f 393 539 540
f 393 538 539
f 500 538 393
f 536 273 537
f 556 585 557
f 273 536 535
f 534 271 535
f 533 271 534
f 543 375 544
f 531 269 532
f 269 531 530
f 529 268 530
f 528 268 529
f 268 528 527
f 526 266 527
f 266 526 525
f 265 525 524
f 523 264 524
f 264 523 522
f 263 522 521
f 520 262 521
f 559 560 585
f 562 563 371
f 570 569 284
f 569 566 282
f 568 567 283
f 573 286 576
f 566 564 282
f 565 281 564
f 586 584 276
f 585 276 584
f 562 391 561
f 391 559 561
f 560 559 388
f 560 390 557
f 390 556 557
f 397 475 476
f 558 376 555
f 555 385 554
f 558 556 389
f 552 384 551
f 384 550 551
f 554 385 553
f 553 386 552
f 547 546 279
f 546 542 277
f 549 548 278
f 278 543 549
f 548 547 279
f 500 507 508
f 500 493 494
f 500 494 495
f 496 497 500
f 500 495 496
f 500 497 498
f 500 498 499
f 500 499 501
f 500 501 502
f 500 502 503
f 500 503 504
f 500 504 505
f 500 505 506
f 507 500 506
f 500 492 493
f 510 500 509
f 509 500 508
f 500 510 511
f 500 512 513
f 512 500 511
f 500 513 514
f 500 514 515
f 516 500 515
f 500 516 517
f 500 518 519
f 518 500 517
f 500 519 520
f 521 500 520
f 500 478 479
f 464 442 465
f 465 442 466
f 466 442 467
f 442 469 468
f 467 442 468
f 469 442 470
f 470 442 471
f 471 442 472
f 472 442 473
f 473 442 585
f 397 476 500
f 500 476 477
f 500 477 478
f 500 521 522
f 500 479 480
f 500 480 481
f 482 483 500
f 500 481 482
f 500 483 484
f 500 484 485
f 500 485 486
f 486 487 500
f 488 489 500
f 500 487 488
f 500 489 490
f 500 490 491
f 500 491 492
f 453 452 441
f 556 558 585
f 463 442 464
f 462 442 463
f 462 441 442
f 461 441 462
f 460 441 461
f 459 441 460
f 441 459 458
f 458 457 441
f 457 456 441
f 456 455 441
f 455 454 441
f 454 453 441
f 541 585 545
f 452 451 441
f 451 450 441
f 450 449 441
f 449 448 441
f 448 447 441
f 447 446 441
f 446 445 441
f 445 444 441
f 444 443 441
f 443 432 441
f 432 431 441
f 431 430 441
f 430 429 441
f 538 500 536
f 523 500 522
f 500 524 525
f 524 500 523
f 500 525 526
f 500 526 527
f 500 527 528
f 500 528 529
f 500 530 531
f 530 500 529
f 500 531 532
f 500 532 533
f 500 533 534
f 500 534 535
f 479 478 333
f 500 535 536
f 538 536 537
f 565 538 575
f 538 537 574
f 575 538 574
f 473 585 550
f 550 585 551
f 551 585 552
f 552 585 553
f 553 585 554
f 554 585 555
f 555 585 558
f 509 252 510
f 499 249 501
f 502 250 503
f 501 251 502
f 503 250 504
f 504 258 505
f 505 258 506
f 506 259 507
f 259 509 508
f 507 259 508
f 511 510 252
f 498 248 499
f 511 253 512
f 513 255 514
f 253 513 512
f 255 515 514
f 260 516 515
f 260 518 517
f 516 260 517
f 261 519 518
f 262 520 519
f 477 333 478
f 497 248 498
f 479 334 480
f 481 480 334
f 481 341 482
f 486 338 487
f 488 487 338
f 488 339 489
f 490 489 339
f 490 346 491
f 482 342 483
f 485 484 340
f 483 340 484
f 485 343 486
f 492 491 346
f 492 344 493
f 344 494 493
f 494 345 495
f 495 347 496
f 496 347 497
f 29 99 30
f 27 28 33
f 16 99 27
f 28 99 29
f 27 99 28
f 32 27 33
f 28 29 34
f 29 30 35
f 30 31 36
f 31 75 81
f 22 12 21
f 15 99 16
f 14 99 15
f 13 99 14
f 10 99 13
f 26 16 32
f 25 15 26
f 24 14 25
f 23 13 24
f 64 53 22
f 18 3 4
f 20 23 38
f 38 23 40
f 37 20 38
f 3 19 39
f 39 20 37
f 3 17 19
f 18 17 3
f 26 41 25
f 40 24 25
f 23 24 40
f 33 28 34
f 20 39 19
f 100 42 43
f 100 41 42
f 100 40 41
f 100 38 40
f 100 2 38
f 36 31 81
f 35 30 36
f 34 29 35
f 4 3 2
f 40 25 41
f 6 5 2
f 5 4 2
f 64 22 48
f 22 21 6
f 21 18 5
f 2 102 6
f 2 37 38
f 39 2 3
f 39 37 2
f 5 18 4
f 100 1 2
f 7 1 9
f 1 10 9
f 54 55 1
f 53 54 1
f 12 53 1
f 8 1 7
f 11 1 8
f 11 12 1
f 53 12 22
f 20 10 23
f 19 9 20
f 18 8 17
f 17 7 19
f 16 27 32
f 15 16 26
f 14 15 25
f 13 14 24
f 10 13 23
f 21 11 18
f 12 11 21
f 11 8 18
f 10 20 9
f 7 9 19
f 8 7 17
f 99 1 100
f 10 1 99
f 6 21 5
f 48 22 6
f 83 77 85
f 89 70 88
f 70 87 88
f 87 68 52
f 74 73 91
f 73 72 90
f 72 71 90
f 71 70 89
f 70 69 87
f 69 68 87
f 68 67 52
f 106 101 63
f 85 79 84
f 84 78 86
f 82 76 83
f 81 75 82
f 90 71 89
f 106 63 80
f 106 80 78
f 79 106 78
f 77 106 79
f 76 106 77
f 75 106 76
f 31 106 75
f 30 106 31
f 78 80 86
f 79 78 84
f 76 77 83
f 75 76 82
f 79 85 77
f 86 80 74
f 100 47 92
f 86 74 97
f 95 85 96
f 92 82 93
f 93 83 94
f 94 83 95
f 97 74 98
f 96 86 97
f 91 102 107
f 91 107 98
f 98 107 97
f 99 106 30
f 100 43 44
f 100 44 45
f 100 45 46
f 100 46 47
f 74 63 73
f 100 92 93
f 107 99 100
f 106 99 107
f 107 100 93
f 107 94 95
f 107 93 94
f 97 107 96
f 107 95 96
f 83 85 95
f 86 96 84
f 83 93 82
f 92 81 82
f 74 91 98
f 91 73 90
f 101 55 56
f 52 67 51
f 51 66 50
f 66 49 50
f 49 65 48
f 67 66 51
f 66 65 49
f 65 64 48
f 2 101 102
f 63 101 62
f 62 101 61
f 61 101 60
f 60 101 59
f 59 101 58
f 58 101 57
f 101 56 57
f 6 102 48
f 101 1 55
f 47 36 92
f 46 35 47
f 45 35 46
f 44 34 45
f 43 33 44
f 42 26 43
f 36 81 92
f 35 36 47
f 35 45 34
f 34 44 33
f 43 32 33
f 26 32 43
f 41 26 42
f 59 58 69
f 73 62 72
f 72 61 71
f 71 60 70
f 70 59 69
f 69 58 68
f 68 57 67
f 67 56 66
f 66 55 65
f 65 54 64
f 80 63 74
f 63 62 73
f 62 61 72
f 61 60 71
f 60 59 70
f 85 84 96
f 58 57 68
f 57 56 67
f 56 55 66
f 55 54 65
f 54 53 64
f 102 91 90
f 102 90 89
f 102 89 88
f 102 88 87
f 102 87 52
f 51 102 52
f 50 102 51
f 49 102 50
f 48 102 49
f 101 2 1
f 667 681 683
f 691 765 692
f 682 681 667
f 690 705 689
f 704 688 689
f 687 688 704
f 684 687 702
f 684 703 683
f 766 706 707
f 766 705 706
f 766 704 705
f 766 702 704
f 766 666 702
f 700 695 747
f 699 694 700
f 698 693 699
f 697 692 698
f 696 691 697
f 695 741 747
f 694 695 700
f 693 694 699
f 692 693 698
f 691 692 697
f 765 694 693
f 765 693 692
f 727 728 712
f 707 697 708
f 768 761 762
f 726 727 712
f 712 725 726
f 712 724 725
f 712 723 724
f 722 723 712
f 721 722 712
f 712 665 721
f 711 700 758
f 710 699 711
f 709 699 710
f 708 698 709
f 703 684 701
f 706 690 707
f 700 747 758
f 699 700 711
f 699 709 698
f 698 708 697
f 707 696 697
f 690 696 707
f 705 690 706
f 704 689 705
f 702 687 704
f 701 684 702
f 667 683 703
f 702 666 701
f 672 671 681
f 674 665 765
f 670 685 669
f 713 686 670
f 669 682 668
f 682 667 668
f 666 670 669
f 666 669 668
f 730 686 713
f 686 685 670
f 685 682 669
f 666 718 670
f 671 673 683
f 703 666 667
f 701 666 703
f 666 668 667
f 665 673 671
f 665 674 673
f 721 665 720
f 720 665 719
f 719 665 676
f 672 665 671
f 675 665 672
f 676 665 675
f 665 712 666
f 683 673 684
f 679 765 680
f 678 765 679
f 677 765 678
f 674 765 677
f 690 680 696
f 689 679 690
f 688 678 689
f 687 677 688
f 730 719 686
f 686 676 685
f 685 675 682
f 684 674 687
f 680 765 691
f 682 672 681
f 681 671 683
f 680 691 696
f 679 680 690
f 678 679 689
f 677 678 688
f 674 677 687
f 719 676 686
f 676 675 685
f 675 672 682
f 674 684 673
f 737 736 755
f 752 762 750
f 749 759 748
f 758 747 748
f 740 757 764
f 757 739 756
f 756 737 755
f 755 736 754
f 736 753 754
f 753 734 717
f 740 739 757
f 739 738 756
f 738 737 756
f 749 751 761
f 736 735 753
f 735 734 753
f 734 733 717
f 729 767 712
f 751 745 750
f 750 744 752
f 748 742 749
f 747 741 748
f 749 743 751
f 729 746 767
f 744 767 746
f 744 745 767
f 765 767 694
f 762 763 768
f 768 759 760
f 760 761 768
f 768 766 759
f 765 768 767
f 768 765 766
f 759 766 758
f 758 766 711
f 711 766 710
f 710 766 709
f 709 766 708
f 766 707 708
f 712 767 718
f 763 764 768
f 764 757 768
f 718 767 768
f 757 718 768
f 762 752 763
f 763 740 764
f 760 749 761
f 759 749 760
f 758 748 759
f 761 751 762
f 752 740 763
f 751 750 762
f 715 714 718
f 724 723 734
f 723 722 733
f 722 721 732
f 721 720 731
f 720 719 730
f 757 756 718
f 756 755 718
f 755 754 718
f 754 753 718
f 753 717 718
f 717 716 718
f 716 715 718
f 742 767 743
f 714 713 718
f 713 670 718
f 717 733 716
f 716 732 715
f 732 714 715
f 714 731 713
f 733 732 716
f 732 731 714
f 731 730 713
f 666 712 718
f 728 729 712
f 743 767 745
f 726 725 736
f 725 724 735
f 741 767 742
f 695 767 741
f 694 767 695
f 744 746 752
f 745 744 750
f 742 743 749
f 741 742 748
f 745 751 743
f 752 746 740
f 740 729 739
f 739 728 738
f 737 726 736
f 738 727 737
f 727 726 737
f 728 727 738
f 729 728 739
f 746 729 740
f 731 720 730
f 733 722 732
f 734 723 733
f 735 724 734
f 736 725 735
f 732 721 731
f 217 206 216
f 216 205 215
f 215 204 214
f 214 203 202
f 212 213 224
f 213 211 222
f 211 210 221
f 212 223 209
f 208 209 220
f 207 208 219
f 210 206 217
f 206 205 216
f 218 207 219
f 219 208 220
f 220 209 223
f 221 210 217
f 222 211 221
f 223 212 224
f 224 213 222
f 242 210 244
f 198 197 225
f 199 198 226
f 200 199 228
f 201 200 229
f 143 242 243
f 148 191 142
f 147 148 142
f 142 146 145
f 144 146 142
f 142 154 144
f 142 185 154
f 243 230 229
f 228 243 229
f 227 243 228
f 226 243 227
f 225 243 226
f 179 243 225
f 205 204 215
f 242 142 193
f 143 243 179
f 177 143 178
f 143 179 178
f 143 176 175
f 143 177 176
f 242 143 142
f 201 195 200
f 202 196 201
f 203 196 202
f 204 203 214
f 238 220 239
f 244 211 213
f 244 210 211
f 162 244 163
f 163 244 207
f 207 244 208
f 212 244 213
f 209 244 212
f 208 244 209
f 244 185 245
f 237 218 219
f 220 238 219
f 220 223 240
f 235 243 245
f 237 219 238
f 239 220 240
f 240 223 241
f 245 238 239
f 245 239 240
f 245 186 238
f 235 245 236
f 234 245 241
f 236 245 234
f 245 240 241
f 145 147 142
f 221 217 235
f 214 202 230
f 226 198 225
f 199 226 227
f 228 199 227
f 229 200 228
f 230 201 229
f 214 230 231
f 224 222 241
f 223 224 241
f 215 214 232
f 216 215 233
f 217 216 233
f 202 201 230
f 222 221 234
f 232 214 231
f 233 215 232
f 235 217 233
f 221 235 236
f 241 222 234
f 234 221 236
f 243 231 230
f 243 232 231
f 243 233 232
f 243 235 233
f 154 185 155
f 187 188 186
f 186 184 187
f 186 183 184
f 186 182 183
f 186 181 182
f 186 180 181
f 185 244 162
f 161 185 162
f 160 185 161
f 159 185 160
f 158 185 159
f 157 185 158
f 156 185 157
f 155 185 156
f 172 188 171
f 185 142 186
f 184 170 187
f 183 168 184
f 182 168 183
f 181 167 182
f 180 165 181
f 174 164 180
f 171 187 170
f 184 169 170
f 168 169 184
f 168 182 167
f 181 166 167
f 165 166 181
f 194 193 199
f 200 194 199
f 199 193 198
f 198 192 197
f 210 242 206
f 206 242 205
f 205 242 204
f 204 242 203
f 203 242 196
f 196 242 195
f 242 194 195
f 242 193 194
f 196 195 201
f 195 194 200
f 193 142 192
f 193 192 198
f 192 191 197
f 245 185 186
f 190 173 237
f 189 172 190
f 188 172 189
f 187 171 188
f 237 238 186
f 190 237 186
f 189 190 186
f 188 189 186
f 173 218 237
f 172 173 190
f 154 155 165
f 164 154 165
f 149 144 164
f 163 207 218
f 162 163 173
f 164 165 180
f 161 162 172
f 160 161 171
f 159 160 170
f 158 159 169
f 157 158 168
f 156 157 167
f 155 156 166
f 178 150 177
f 154 164 144
f 152 147 150
f 197 191 153
f 153 148 152
f 151 146 149
f 150 145 151
f 147 145 150
f 191 148 153
f 148 147 152
f 145 146 151
f 191 192 142
f 146 144 149
f 166 156 167
f 150 176 177
f 225 153 179
f 179 152 178
f 175 164 174
f 176 149 175
f 197 153 225
f 153 152 179
f 151 149 176
f 152 150 178
f 150 151 176
f 164 175 149
f 186 143 180
f 143 174 180
f 175 174 143
f 173 163 218
f 167 157 168
f 168 158 169
f 169 159 170
f 165 155 166
f 186 142 143
f 170 160 171
f 171 161 172
f 172 162 173
f 1079 1065 1082
f 1078 1063 1079
f 1077 1063 1078
f 1049 1080 1050
f 1076 1062 1077
f 1075 1060 1076
f 1069 1059 1075
f 1066 1082 1065
f 1079 1064 1065
f 1063 1064 1079
f 1063 1077 1062
f 1076 1061 1062
f 1060 1061 1076
f 1059 1060 1075
f 1073 1045 1072
f 1045 1071 1072
f 1120 1048 1074
f 1074 1047 1073
f 1070 1059 1069
f 1071 1044 1070
f 1045 1046 1071
f 1047 1045 1073
f 1046 1044 1071
f 1048 1047 1074
f 1092 1048 1120
f 1083 1081 1082
f 1085 1068 1133
f 1084 1067 1085
f 1083 1067 1084
f 1082 1066 1083
f 1134 1081 1133
f 1138 1080 1081
f 1133 1081 1085
f 1085 1081 1084
f 1084 1081 1083
f 1068 1113 1133
f 1067 1068 1085
f 1067 1083 1066
f 1050 1080 1051
f 1081 1079 1082
f 1081 1078 1079
f 1081 1077 1078
f 1081 1076 1077
f 1081 1075 1076
f 1080 1132 1057
f 1080 1057 1056
f 1080 1056 1055
f 1054 1080 1055
f 1053 1080 1054
f 1052 1080 1053
f 1051 1080 1052
f 1043 1035 1042
f 1092 1086 1048
f 1048 1043 1047
f 1046 1041 1044
f 1045 1040 1046
f 1042 1040 1045
f 1086 1043 1048
f 1043 1042 1047
f 1040 1041 1046
f 1041 1039 1044
f 1088 1035 1087
f 1087 1035 1086
f 1086 1035 1043
f 1047 1042 1045
f 1042 1035 1040
f 1040 1035 1041
f 1035 1039 1041
f 1035 1049 1039
f 1049 1035 1080
f 1036 1037 1038
f 1074 1038 1120
f 1120 1038 1121
f 1121 1038 1122
f 1122 1038 1123
f 1123 1038 1124
f 1124 1038 1125
f 1059 1049 1060
f 1036 1075 1081
f 1075 1036 1069
f 1069 1036 1070
f 1068 1058 1113
f 1067 1057 1068
f 1066 1056 1067
f 1065 1055 1066
f 1064 1054 1065
f 1063 1053 1064
f 1062 1052 1063
f 1061 1051 1062
f 1060 1050 1061
f 1059 1070 1044
f 1044 1039 1059
f 1058 1102 1113
f 1057 1058 1068
f 1056 1057 1067
f 1055 1056 1066
f 1054 1055 1065
f 1053 1054 1064
f 1052 1053 1063
f 1051 1052 1062
f 1050 1051 1061
f 1049 1050 1060
f 1049 1059 1039
f 1116 1130 1131
f 1102 1132 1103
f 1058 1132 1102
f 1057 1132 1058
f 1132 1105 1106
f 1106 1108 1132
f 1130 1038 1138
f 1130 1128 1038
f 1128 1127 1038
f 1127 1126 1038
f 1125 1038 1126
f 1129 1116 1131
f 1137 1117 1129
f 1132 1108 1107
f 1130 1112 1128
f 1128 1110 1127
f 1127 1109 1126
f 1117 1116 1129
f 1116 1112 1130
f 1112 1111 1128
f 1111 1110 1128
f 1110 1109 1127
f 1118 1119 1137
f 1119 1117 1137
f 1109 1125 1126
f 1125 1096 1124
f 1138 1081 1134
f 1037 1035 1088
f 1036 1038 1074
f 1036 1073 1072
f 1036 1074 1073
f 1070 1036 1071
f 1036 1072 1071
f 1035 1037 1036
f 1138 1136 1137
f 1138 1129 1131
f 1137 1129 1138
f 1131 1130 1138
f 1038 1132 1138
f 1124 1095 1123
f 1138 1135 1136
f 1134 1135 1138
f 1136 1118 1137
f 1135 1115 1136
f 1133 1114 1134
f 1134 1115 1135
f 1115 1118 1136
f 1115 1134 1114
f 1133 1113 1114
f 1080 1138 1132
f 1132 1104 1103
f 1132 1107 1104
f 1093 1087 1092
f 1107 1118 1104
f 1103 1104 1115
f 1102 1103 1114
f 1105 1101 1112
f 1101 1100 1111
f 1100 1099 1110
f 1099 1098 1109
f 1098 1091 1097
f 1097 1091 1096
f 1096 1090 1095
f 1095 1089 1094
f 1094 1088 1093
f 1106 1105 1116
f 1101 1105 1037
f 1100 1101 1037
f 1099 1100 1037
f 1037 1098 1099
f 1037 1091 1098
f 1037 1090 1091
f 1089 1090 1037
f 1088 1089 1037
f 1091 1090 1096
f 1090 1089 1095
f 1089 1088 1094
f 1088 1087 1093
f 1118 1107 1119
f 1123 1094 1122
f 1094 1121 1122
f 1121 1093 1120
f 1109 1097 1125
f 1097 1096 1125
f 1096 1095 1124
f 1095 1094 1123
f 1094 1093 1121
f 1093 1092 1120
f 1105 1132 1037
f 1037 1132 1038
f 1119 1108 1117
f 1087 1086 1092
f 1117 1106 1116
f 1116 1105 1112
f 1115 1104 1118
f 1114 1103 1115
f 1113 1102 1114
f 1112 1101 1111
f 1111 1100 1110
f 1110 1099 1109
f 1109 1098 1097
f 1107 1108 1119
f 1108 1106 1117

