# Created by FreeCAD <https://www.freecad.org>
v 0.03 0.0365 0.032
v 0.02437084 0.03325 0.032
v 0.02437084 0.03325 0.018000000000000002
v 0.03 0.0365 0.018000000000000002
v 0.02437084 0.02675 0.032
v 0.02437084 0.02675 0.018000000000000002
v 0.03 0.0235 0.032
v 0.03 0.0235 0.018000000000000002
v 0.03562917 0.02675 0.032
v 0.03562917 0.02675 0.018000000000000002
v 0.03562917 0.03325 0.032
v 0.03562917 0.03325 0.018000000000000002
v 0.035750000000000004 0.035750000000000004 0.008
v 0.035750000000000004 0.024249999999999997 0.008
v 0.03555491 0.024445090000000003 0.00801921
v 0.03536732 0.024632679999999997 0.008076120000000001
v 0.03519443 0.024805570000000002 0.00816853
v 0.03504289 0.02495711 0.00829289
v 0.034918529999999996 0.02508147 0.008444430000000001
v 0.03482612 0.02517388 0.008617320000000001
v 0.03476921 0.025230790000000003 0.00880491
v 0.03475482 0.025245180000000002 0.00890198
v 0.03475 0.025249999999999998 0.009000000000000001
v 0.03475 0.03475 0.009000000000000001
v 0.03475482 0.03475482 0.00890198
v 0.03476921 0.03476921 0.00880491
v 0.03482612 0.03482612 0.008617320000000001
v 0.034918529999999996 0.034918529999999996 0.008444430000000001
v 0.03504289 0.03504289 0.00829289
v 0.03519443 0.03519443 0.00816853
v 0.03536732 0.03536732 0.008076120000000001
v 0.03555491 0.03555491 0.00801921
v 0.03525 0.03 0.00813397
v 0.035491180000000004 0.03 0.00803407
v 0.03504289 0.03 0.00829289
v 0.03488397 0.03 0.0085
v 0.03478407 0.03 0.00874118
v 0.024249999999999997 0.024249999999999997 0.008
v 0.024445090000000003 0.024445090000000003 0.00801921
v 0.024632679999999997 0.024632679999999997 0.008076120000000001
v 0.024805570000000002 0.024805570000000002 0.00816853
v 0.02495711 0.02495711 0.00829289
v 0.02508147 0.02508147 0.008444430000000001
v 0.02517388 0.02517388 0.008617320000000001
v 0.025230790000000003 0.025230790000000003 0.00880491
v 0.025245180000000002 0.025245180000000002 0.00890198
v 0.025249999999999998 0.025249999999999998 0.009000000000000001
v 0.03 0.02475 0.00813397
v 0.03 0.02450882 0.00803407
v 0.03 0.02495711 0.00829289
v 0.03 0.02511603 0.0085
v 0.03 0.02521593 0.00874118
v 0.024249999999999997 0.035750000000000004 0.008
v 0.024445090000000003 0.03555491 0.00801921
v 0.024632679999999997 0.03536732 0.008076120000000001
v 0.024805570000000002 0.03519443 0.00816853
v 0.02495711 0.03504289 0.00829289
v 0.02508147 0.034918529999999996 0.008444430000000001
v 0.02517388 0.03482612 0.008617320000000001
v 0.025230790000000003 0.03476921 0.00880491
v 0.025245180000000002 0.03475482 0.00890198
v 0.025249999999999998 0.03475 0.009000000000000001
v 0.02475 0.03 0.00813397
v 0.02450882 0.03 0.00803407
v 0.02495711 0.03 0.00829289
v 0.02511603 0.03 0.0085
v 0.02521593 0.03 0.00874118
v 0.03 0.03478407 0.00874118
v 0.03 0.03488397 0.0085
v 0.03 0.03504289 0.00829289
v 0.03 0.03525 0.00813397
v 0.03 0.035491180000000004 0.00803407
v 0.03475 0.03475 0.015
v 0.025249999999999998 0.03475 0.015
v 0.03475 0.025249999999999998 0.015
v 0.0385 0.03 0.008
v 0.03837087 0.028523990000000003 0.008
v 0.03798739 0.027092830000000002 0.008
v 0.03736122 0.025750000000000002 0.008
v 0.03651138 0.024536310000000002 0.008
v 0.0354637 0.02348862 0.008
v 0.034249999999999996 0.02263878 0.008
v 0.03290717 0.022012610000000002 0.008
v 0.03147601 0.02162913 0.008
v 0.03 0.0215 0.008
v 0.028523990000000003 0.02162913 0.008
v 0.027092830000000002 0.022012610000000002 0.008
v 0.025750000000000002 0.02263878 0.008
v 0.024536310000000002 0.02348862 0.008
v 0.02348862 0.024536310000000002 0.008
v 0.02263878 0.025750000000000002 0.008
v 0.022012610000000002 0.027092830000000002 0.008
v 0.02162913 0.028523990000000003 0.008
v 0.0215 0.03 0.008
v 0.02162913 0.03147601 0.008
v 0.022012610000000002 0.03290717 0.008
v 0.02263878 0.034249999999999996 0.008
v 0.02348862 0.0354637 0.008
v 0.024536310000000002 0.03651138 0.008
v 0.025750000000000002 0.03736122 0.008
v 0.027092830000000002 0.03798739 0.008
v 0.028523990000000003 0.03837087 0.008
v 0.03 0.0385 0.008
v 0.03147601 0.03837087 0.008
v 0.03290717 0.03798739 0.008
v 0.034249999999999996 0.03736122 0.008
v 0.0354637 0.03651138 0.008
v 0.03651138 0.0354637 0.008
v 0.03736122 0.034249999999999996 0.008
v 0.03798739 0.03290717 0.008
v 0.03837087 0.03147601 0.008
v 0.025249999999999998 0.025249999999999998 0.015
v 0.0385 0.03 0.032
v 0.03837087 0.028523990000000003 0.032
v 0.03798739 0.027092830000000002 0.032
v 0.03736122 0.025750000000000002 0.032
v 0.03651138 0.024536310000000002 0.032
v 0.0354637 0.02348862 0.032
v 0.034249999999999996 0.02263878 0.032
v 0.03290717 0.022012610000000002 0.032
v 0.03147601 0.02162913 0.032
v 0.03 0.0215 0.032
v 0.028523990000000003 0.02162913 0.032
v 0.027092830000000002 0.022012610000000002 0.032
v 0.025750000000000002 0.02263878 0.032
v 0.024536310000000002 0.02348862 0.032
v 0.02348862 0.024536310000000002 0.032
v 0.02263878 0.025750000000000002 0.032
v 0.022012610000000002 0.027092830000000002 0.032
v 0.02162913 0.028523990000000003 0.032
v 0.0215 0.03 0.032
v 0.02162913 0.03147601 0.032
v 0.022012610000000002 0.03290717 0.032
v 0.02263878 0.034249999999999996 0.032
v 0.02348862 0.0354637 0.032
v 0.024536310000000002 0.03651138 0.032
v 0.025750000000000002 0.03736122 0.032
v 0.027092830000000002 0.03798739 0.032
v 0.028523990000000003 0.03837087 0.032
v 0.03 0.0385 0.032
v 0.03147601 0.03837087 0.032
v 0.03290717 0.03798739 0.032
v 0.034249999999999996 0.03736122 0.032
v 0.0354637 0.03651138 0.032
v 0.03651138 0.0354637 0.032
v 0.03736122 0.034249999999999996 0.032
v 0.03798739 0.03290717 0.032
v 0.03837087 0.03147601 0.032
vn 0.500000 -0.866025 0.000000
vn 0.500000 -0.866025 0.000000
vn 1.000000 0.000000 0.000000
vn 1.000000 0.000000 0.000000
vn 0.500000 0.866025 0.000000
vn 0.500000 0.866025 0.000000
vn -0.500000 0.866026 0.000000
vn -0.500000 0.866026 0.000000
vn -1.000000 0.000000 0.000000
vn -1.000000 0.000000 0.000000
vn -0.500000 -0.866026 -0.000000
vn -0.500000 -0.866026 0.000000
vn 0.000000 0.000000 1.000000
vn 0.000000 0.000000 1.000000
vn 0.000000 -0.000000 1.000000
vn 0.000000 0.000000 1.000000
vn -0.097993 -0.000000 -0.995187
vn -0.150524 -0.000918 -0.988606
vn -0.291022 0.000779 -0.956716
vn -0.382683 -0.001593 -0.923878
vn -0.472025 0.000816 -0.881585
vn -0.608756 -0.001234 -0.793357
vn -0.634374 0.000000 -0.773026
vn -0.773027 -0.000000 -0.634373
vn -0.793354 -0.001303 -0.608759
vn -0.882117 0.000877 -0.471030
vn -0.923878 -0.001772 -0.382683
vn -0.957011 0.000894 -0.290051
vn -0.989164 -0.001120 -0.146813
vn -0.983856 -0.000000 -0.178961
vn -0.998793 -0.000000 -0.049123
vn -0.998793 -0.000000 -0.049123
vn -0.096452 0.001556 -0.995336
vn -0.291022 -0.000779 -0.956716
vn -0.382683 0.001593 -0.923878
vn -0.472025 -0.000816 -0.881585
vn -0.608756 0.001234 -0.793357
vn -0.634374 -0.000000 -0.773026
vn -0.773027 -0.000000 -0.634373
vn -0.793354 0.001303 -0.608759
vn -0.882117 -0.000877 -0.471030
vn -0.923878 0.001772 -0.382683
vn -0.957011 -0.000894 -0.290051
vn -0.989164 0.001120 -0.146813
vn 0.000000 0.097993 -0.995187
vn -0.000918 0.150524 -0.988606
vn 0.000779 0.291022 -0.956716
vn -0.001593 0.382683 -0.923878
vn 0.000816 0.472025 -0.881585
vn -0.001234 0.608756 -0.793357
vn 0.000000 0.634374 -0.773026
vn 0.000000 0.773027 -0.634373
vn -0.001303 0.793354 -0.608759
vn 0.000877 0.882117 -0.471030
vn -0.001772 0.923878 -0.382683
vn 0.000894 0.957011 -0.290051
vn -0.001120 0.989164 -0.146813
vn 0.000000 0.983856 -0.178961
vn 0.000000 0.998793 -0.049123
vn 0.000000 0.998793 -0.049123
vn 0.001556 0.096452 -0.995336
vn -0.000779 0.291022 -0.956716
vn 0.001593 0.382683 -0.923878
vn -0.000816 0.472025 -0.881585
vn 0.001234 0.608756 -0.793357
vn 0.000000 0.634374 -0.773026
vn 0.000000 0.773027 -0.634373
vn 0.001303 0.793354 -0.608759
vn -0.000877 0.882117 -0.471030
vn 0.001772 0.923878 -0.382683
vn -0.000894 0.957011 -0.290051
vn 0.001120 0.989164 -0.146813
vn 0.097993 0.000000 -0.995187
vn 0.150524 0.000918 -0.988606
vn 0.291022 -0.000779 -0.956716
vn 0.382683 0.001593 -0.923878
vn 0.472025 -0.000816 -0.881585
vn 0.608756 0.001234 -0.793357
vn 0.634374 0.000000 -0.773026
vn 0.773027 0.000000 -0.634373
vn 0.793354 0.001303 -0.608759
vn 0.882117 -0.000877 -0.471030
vn 0.923878 0.001772 -0.382683
vn 0.957011 -0.000894 -0.290051
vn 0.989164 0.001120 -0.146813
vn 0.983856 0.000000 -0.178961
vn 0.998793 0.000000 -0.049123
vn 0.998793 0.000000 -0.049123
vn 0.096452 -0.001556 -0.995336
vn 0.291022 0.000779 -0.956716
vn 0.382683 -0.001593 -0.923878
vn 0.472025 0.000816 -0.881585
vn 0.608756 -0.001234 -0.793357
vn 0.634374 0.000000 -0.773026
vn 0.773027 0.000000 -0.634373
vn 0.793354 -0.001303 -0.608759
vn 0.882117 0.000877 -0.471030
vn 0.923878 -0.001772 -0.382683
vn 0.957011 0.000894 -0.290051
vn 0.989164 -0.001120 -0.146813
vn -0.000000 -0.998793 -0.049123
vn -0.000000 -0.998793 -0.049123
vn -0.000000 -0.983856 -0.178961
vn 0.001120 -0.989164 -0.146813
vn -0.000894 -0.957011 -0.290051
vn 0.001772 -0.923878 -0.382683
vn -0.000877 -0.882117 -0.471030
vn 0.001303 -0.793354 -0.608759
vn -0.000000 -0.773027 -0.634373
vn -0.000000 -0.634374 -0.773026
vn 0.001234 -0.608756 -0.793357
vn -0.000816 -0.472025 -0.881585
vn 0.001593 -0.382683 -0.923878
vn -0.000779 -0.291022 -0.956716
vn 0.000918 -0.150524 -0.988606
vn -0.000000 -0.097993 -0.995187
vn -0.001556 -0.096452 -0.995336
vn 0.000779 -0.291022 -0.956716
vn -0.001593 -0.382683 -0.923878
vn 0.000816 -0.472025 -0.881585
vn -0.001234 -0.608756 -0.793357
vn 0.000000 -0.634374 -0.773026
vn 0.000000 -0.773027 -0.634373
vn -0.001303 -0.793354 -0.608759
vn 0.000877 -0.882117 -0.471030
vn -0.001772 -0.923878 -0.382683
vn 0.000894 -0.957011 -0.290051
vn -0.001120 -0.989164 -0.146813
vn 0.000000 -1.000000 0.000000
vn 0.000000 -1.000000 0.000000
vn -1.000000 0.000000 0.000000
vn -1.000000 -0.000000 0.000000
vn -0.000000 0.000000 -1.000000
vn -0.000000 0.000000 -1.000000
vn 0.000000 0.000000 -1.000000
vn 0.000000 0.000000 -1.000000
vn 0.000000 0.000000 -1.000000
vn 0.000000 0.000000 -1.000000
vn 0.000000 0.000000 -1.000000
vn -0.000000 -0.000000 -1.000000
vn -0.000000 -0.000000 -1.000000
vn -0.000000 -0.000000 -1.000000
vn -0.000000 -0.000000 -1.000000
vn 0.000000 -0.000000 -1.000000
vn 0.000000 0.000000 -1.000000
vn 0.000000 0.000000 -1.000000
vn 0.000000 0.000000 -1.000000
vn 0.000000 0.000000 -1.000000
vn 0.000000 0.000000 -1.000000
vn 0.000000 -0.000000 -1.000000
vn 0.000000 -0.000000 -1.000000
vn 0.000000 -0.000000 -1.000000
vn 0.000000 -0.000000 -1.000000
vn 0.000000 0.000000 -1.000000
vn 0.000000 0.000000 -1.000000
vn 0.000000 0.000000 -1.000000
vn 0.000000 0.000000 -1.000000
vn 0.000000 0.000000 -1.000000
vn 0.000000 0.000000 -1.000000
vn 0.000000 0.000000 -1.000000
vn 0.000000 0.000000 -1.000000
vn 0.000000 0.000000 -1.000000
vn 0.000000 0.000000 -1.000000
vn 0.000000 0.000000 -1.000000
vn 0.000000 0.000000 -1.000000
vn 0.000000 0.000000 -1.000000
vn 0.000000 0.000000 -1.000000
vn 0.000000 0.000000 -1.000000
vn 0.000000 0.000000 -1.000000
vn -0.000000 0.000000 -1.000000
vn -0.000000 0.000000 -1.000000
vn -0.000000 0.000000 -1.000000
vn 0.000000 1.000000 -0.000000
vn 0.000000 1.000000 0.000000
vn 1.000000 0.000000 0.000000
vn 1.000000 -0.000000 0.000000
vn 0.000000 0.000000 -1.000000
vn 0.000000 0.000000 -1.000000
vn 0.996195 0.087153 -0.000000
vn 0.996195 0.087153 -0.000000
vn 0.996195 -0.087153 0.000000
vn 0.996195 -0.087153 0.000000
vn 0.965926 -0.258820 0.000000
vn 0.965926 -0.258820 0.000000
vn 0.906308 -0.422617 0.000000
vn 0.906308 -0.422617 0.000000
vn 0.819151 -0.573578 0.000000
vn 0.819151 -0.573578 0.000000
vn 0.707110 -0.707104 0.000000
vn 0.707110 -0.707104 0.000000
vn 0.573575 -0.819153 0.000000
vn 0.573575 -0.819153 0.000000
vn 0.422617 -0.906308 0.000000
vn 0.422617 -0.906308 0.000000
vn 0.258820 -0.965926 0.000000
vn 0.258820 -0.965926 0.000000
vn 0.087153 -0.996195 0.000000
vn 0.087153 -0.996195 0.000000
vn -0.087153 -0.996195 0.000000
vn -0.087153 -0.996195 0.000000
vn -0.258820 -0.965926 0.000000
vn -0.258820 -0.965926 0.000000
vn -0.422617 -0.906308 0.000000
vn -0.422617 -0.906308 0.000000
vn -0.573578 -0.819151 0.000000
vn -0.573578 -0.819151 0.000000
vn -0.707107 -0.707107 0.000000
vn -0.707107 -0.707107 0.000000
vn -0.819151 -0.573578 0.000000
vn -0.819151 -0.573578 0.000000
vn -0.906308 -0.422617 0.000000
vn -0.906308 -0.422617 0.000000
vn -0.965926 -0.258820 0.000000
vn -0.965926 -0.258820 0.000000
vn -0.996195 -0.087153 0.000000
vn -0.996195 -0.087153 0.000000
vn -0.996195 0.087153 0.000000
vn -0.996195 0.087153 0.000000
vn -0.965926 0.258820 0.000000
vn -0.965926 0.258820 0.000000
vn -0.906308 0.422617 0.000000
vn -0.906308 0.422617 0.000000
vn -0.819153 0.573575 0.000000
vn -0.819153 0.573575 0.000000
vn -0.707104 0.707110 0.000000
vn -0.707104 0.707110 0.000000
vn -0.573578 0.819151 0.000000
vn -0.573578 0.819151 0.000000
vn -0.422617 0.906308 0.000000
vn -0.422617 0.906308 0.000000
vn -0.258820 0.965926 0.000000
vn -0.258820 0.965926 0.000000
vn -0.087153 0.996195 0.000000
vn -0.087153 0.996195 0.000000
vn 0.087153 0.996195 -0.000000
vn 0.087153 0.996195 -0.000000
vn 0.258820 0.965926 -0.000000
vn 0.258820 0.965926 -0.000000
vn 0.422617 0.906308 -0.000000
vn 0.422617 0.906308 -0.000000
vn 0.573575 0.819153 -0.000000
vn 0.573575 0.819153 -0.000000
vn 0.707107 0.707107 -0.000000
vn 0.707107 0.707107 -0.000000
vn 0.819153 0.573575 -0.000000
vn 0.819153 0.573575 -0.000000
vn 0.906308 0.422617 -0.000000
vn 0.906308 0.422617 -0.000000
vn 0.965926 0.258820 -0.000000
vn 0.965926 0.258820 -0.000000
vn 0.000000 0.000000 1.000000
vn 0.000000 0.000000 1.000000
vn 0.000000 -0.000000 1.000000
vn 0.000000 0.000000 1.000000
vn 0.000000 0.000000 1.000000
vn 0.000000 0.000000 1.000000
vn 0.000000 0.000000 1.000000
vn 0.000000 0.000000 1.000000
vn 0.000000 0.000000 1.000000
vn -0.000000 0.000000 1.000000
vn 0.000000 0.000000 1.000000
vn 0.000000 0.000000 1.000000
vn 0.000000 0.000000 1.000000
vn 0.000000 0.000000 1.000000
vn 0.000000 0.000000 1.000000
vn 0.000000 0.000000 1.000000
vn 0.000000 0.000000 1.000000
vn 0.000000 0.000000 1.000000
vn 0.000000 0.000000 1.000000
vn 0.000000 0.000000 1.000000
vn 0.000000 -0.000000 1.000000
vn 0.000000 0.000000 1.000000
vn 0.000000 0.000000 1.000000
vn 0.000000 -0.000000 1.000000
vn 0.000000 0.000000 1.000000
vn 0.000000 0.000000 1.000000
vn 0.000000 0.000000 1.000000
vn 0.000000 0.000000 1.000000
vn 0.000000 0.000000 1.000000
vn -0.000000 0.000000 1.000000
vn 0.000000 0.000000 1.000000
vn 0.000000 0.000000 1.000000
vn 0.000000 0.000000 1.000000
vn -0.000000 -0.000000 1.000000
vn -0.000000 0.000000 1.000000
vn 0.000000 0.000000 1.000000
vn 0.000000 0.000000 1.000000
vn 0.000000 -0.000000 1.000000
vn 0.000000 -0.000000 1.000000
vn -0.000000 0.000000 1.000000
vn 0.000000 0.000000 1.000000
vn 0.000000 -0.000000 1.000000
f 1//1 2//1 4//1
f 4//2 2//2 3//2
f 2//3 5//3 3//3
f 3//4 5//4 6//4
f 5//5 7//5 6//5
f 6//6 7//6 8//6
f 7//7 9//7 8//7
f 8//8 9//8 10//8
f 9//9 11//9 10//9
f 10//10 11//10 12//10
f 11//11 1//11 12//11
f 12//12 1//12 4//12
f 12//13 4//13 10//13
f 10//14 4//14 8//14
f 8//15 4//15 3//15
f 8//16 3//16 6//16
f 13//17 14//17 32//17
f 32//18 14//18 34//18
f 32//19 34//19 31//19
f 31//20 34//20 33//20
f 31//21 33//21 30//21
f 30//22 33//22 35//22
f 30//23 35//23 29//23
f 29//24 35//24 28//24
f 28//25 35//25 36//25
f 28//26 36//26 27//26
f 27//27 36//27 37//27
f 27//28 37//28 26//28
f 26//29 37//29 25//29
f 25//30 37//30 22//30
f 25//31 22//31 24//31
f 24//32 22//32 23//32
f 14//33 15//33 34//33
f 34//34 15//34 16//34
f 34//35 16//35 33//35
f 33//36 16//36 17//36
f 33//37 17//37 35//37
f 35//38 17//38 18//38
f 35//39 18//39 19//39
f 35//40 19//40 36//40
f 36//41 19//41 20//41
f 36//42 20//42 37//42
f 37//43 20//43 21//43
f 37//44 21//44 22//44
f 14//45 38//45 15//45
f 15//46 38//46 49//46
f 15//47 49//47 16//47
f 16//48 49//48 48//48
f 16//49 48//49 17//49
f 17//50 48//50 50//50
f 17//51 50//51 18//51
f 18//52 50//52 19//52
f 19//53 50//53 51//53
f 19//54 51//54 20//54
f 20//55 51//55 52//55
f 20//56 52//56 21//56
f 21//57 52//57 22//57
f 22//58 52//58 46//58
f 22//59 46//59 23//59
f 23//60 46//60 47//60
f 38//61 39//61 49//61
f 49//62 39//62 40//62
f 49//63 40//63 48//63
f 48//64 40//64 41//64
f 48//65 41//65 50//65
f 50//66 41//66 42//66
f 50//67 42//67 43//67
f 50//68 43//68 51//68
f 51//69 43//69 44//69
f 51//70 44//70 52//70
f 52//71 44//71 45//71
f 52//72 45//72 46//72
f 38//73 53//73 39//73
f 39//74 53//74 64//74
f 39//75 64//75 40//75
f 40//76 64//76 63//76
f 40//77 63//77 41//77
f 41//78 63//78 65//78
f 41//79 65//79 42//79
f 42//80 65//80 43//80
f 43//81 65//81 66//81
f 43//82 66//82 44//82
f 44//83 66//83 67//83
f 44//84 67//84 45//84
f 45//85 67//85 46//85
f 46//86 67//86 61//86
f 46//87 61//87 47//87
f 47//88 61//88 62//88
f 53//89 54//89 64//89
f 64//90 54//90 55//90
f 64//91 55//91 63//91
f 63//92 55//92 56//92
f 63//93 56//93 65//93
f 65//94 56//94 57//94
f 65//95 57//95 58//95
f 65//96 58//96 66//96
f 66//97 58//97 59//97
f 66//98 59//98 67//98
f 67//99 59//99 60//99
f 67//100 60//100 61//100
f 24//101 62//101 25//101
f 25//102 62//102 61//102
f 25//103 61//103 68//103
f 68//104 61//104 60//104
f 68//105 60//105 59//105
f 68//106 59//106 69//106
f 69//107 59//107 58//107
f 69//108 58//108 70//108
f 70//109 58//109 57//109
f 70//110 57//110 56//110
f 70//111 56//111 71//111
f 71//112 56//112 55//112
f 71//113 55//113 72//113
f 72//114 55//114 54//114
f 72//115 54//115 13//115
f 13//116 54//116 53//116
f 13//117 32//117 72//117
f 72//118 32//118 31//118
f 72//119 31//119 71//119
f 71//120 31//120 30//120
f 71//121 30//121 70//121
f 70//122 30//122 29//122
f 70//123 29//123 28//123
f 70//124 28//124 69//124
f 69//125 28//125 27//125
f 69//126 27//126 68//126
f 68//127 27//127 26//127
f 68//128 26//128 25//128
f 62//129 24//129 74//129
f 74//130 24//130 73//130
f 24//131 23//131 73//131
f 73//132 23//132 75//132
f 77//133 14//133 76//133
f 76//134 14//134 13//134
f 76//135 13//135 111//135
f 111//136 13//136 110//136
f 110//137 13//137 109//137
f 109//138 13//138 108//138
f 108//139 13//139 107//139
f 107//140 13//140 106//140
f 106//141 13//141 105//141
f 105//142 13//142 104//142
f 104//143 13//143 103//143
f 103//144 13//144 53//144
f 103//145 53//145 102//145
f 102//146 53//146 101//146
f 101//147 53//147 100//147
f 100//148 53//148 99//148
f 99//149 53//149 98//149
f 98//150 53//150 97//150
f 97//151 53//151 96//151
f 96//152 53//152 95//152
f 95//153 53//153 94//153
f 94//154 53//154 38//154
f 94//155 38//155 93//155
f 93//156 38//156 92//156
f 92//157 38//157 91//157
f 91//158 38//158 90//158
f 90//159 38//159 89//159
f 89//160 38//160 88//160
f 88//161 38//161 87//161
f 87//162 38//162 86//162
f 86//163 38//163 85//163
f 85//164 38//164 14//164
f 85//165 14//165 84//165
f 84//166 14//166 83//166
f 83//167 14//167 82//167
f 82//168 14//168 81//168
f 81//169 14//169 80//169
f 80//170 14//170 79//170
f 79//171 14//171 78//171
f 78//172 14//172 77//172
f 23//173 47//173 75//173
f 75//174 47//174 112//174
f 47//175 62//175 112//175
f 112//176 62//176 74//176
f 74//177 73//177 112//177
f 112//178 73//178 75//178
f 111//179 148//179 76//179
f 76//180 148//180 113//180
f 76//181 113//181 77//181
f 77//182 113//182 114//182
f 77//183 114//183 78//183
f 78//184 114//184 115//184
f 78//185 115//185 79//185
f 79//186 115//186 116//186
f 79//187 116//187 80//187
f 80//188 116//188 117//188
f 80//189 117//189 81//189
f 81//190 117//190 118//190
f 81//191 118//191 82//191
f 82//192 118//192 119//192
f 82//193 119//193 83//193
f 83//194 119//194 120//194
f 83//195 120//195 84//195
f 84//196 120//196 121//196
f 84//197 121//197 85//197
f 85//198 121//198 122//198
f 85//199 122//199 86//199
f 86//200 122//200 123//200
f 86//201 123//201 87//201
f 87//202 123//202 124//202
f 87//203 124//203 88//203
f 88//204 124//204 125//204
f 88//205 125//205 89//205
f 89//206 125//206 126//206
f 89//207 126//207 90//207
f 90//208 126//208 127//208
f 90//209 127//209 91//209
f 91//210 127//210 128//210
f 91//211 128//211 92//211
f 92//212 128//212 129//212
f 92//213 129//213 93//213
f 93//214 129//214 130//214
f 93//215 130//215 94//215
f 94//216 130//216 131//216
f 94//217 131//217 95//217
f 95//218 131//218 132//218
f 95//219 132//219 96//219
f 96//220 132//220 133//220
f 96//221 133//221 97//221
f 97//222 133//222 134//222
f 97//223 134//223 98//223
f 98//224 134//224 135//224
f 98//225 135//225 99//225
f 99//226 135//226 136//226
f 99//227 136//227 100//227
f 100//228 136//228 137//228
f 100//229 137//229 101//229
f 101//230 137//230 138//230
f 101//231 138//231 102//231
f 102//232 138//232 139//232
f 102//233 139//233 103//233
f 103//234 139//234 140//234
f 103//235 140//235 104//235
f 104//236 140//236 141//236
f 104//237 141//237 105//237
f 105//238 141//238 142//238
f 105//239 142//239 106//239
f 106//240 142//240 143//240
f 106//241 143//241 107//241
f 107//242 143//242 144//242
f 107//243 144//243 108//243
f 108//244 144//244 145//244
f 108//245 145//245 109//245
f 109//246 145//246 146//246
f 109//247 146//247 110//247
f 110//248 146//248 147//248
f 110//249 147//249 111//249
f 111//250 147//250 148//250
f 1//251 137//251 2//251
f 2//252 137//252 136//252
f 2//253 136//253 135//253
f 11//254 143//254 1//254
f 1//255 143//255 142//255
f 1//256 142//256 141//256
f 9//257 113//257 11//257
f 11//258 113//258 148//258
f 11//259 148//259 147//259
f 7//260 119//260 9//260
f 9//261 119//261 118//261
f 9//262 118//262 117//262
f 5//263 125//263 7//263
f 7//264 125//264 124//264
f 7//265 124//265 123//265
f 2//266 131//266 5//266
f 5//267 131//267 130//267
f 5//268 130//268 129//268
f 147//269 146//269 11//269
f 11//270 146//270 145//270
f 11//271 145//271 144//271
f 144//272 143//272 11//272
f 141//273 140//273 1//273
f 1//274 140//274 139//274
f 1//275 139//275 138//275
f 138//276 137//276 1//276
f 135//277 134//277 2//277
f 2//278 134//278 133//278
f 2//279 133//279 132//279
f 132//280 131//280 2//280
f 129//281 128//281 5//281
f 5//282 128//282 127//282
f 5//283 127//283 126//283
f 126//284 125//284 5//284
f 123//285 122//285 7//285
f 7//286 122//286 121//286
f 7//287 121//287 120//287
f 120//288 119//288 7//288
f 117//289 116//289 9//289
f 9//290 116//290 115//290
f 9//291 115//291 114//291
f 114//292 113//292 9//292
