# Created by FreeCAD <https://www.freecad.org>
v 0.12 0.040999999999999995 0.032
v 0.11047372 0.0355 0.032
v 0.11047372 0.0355 0.018000000000000002
v 0.12 0.040999999999999995 0.018000000000000002
v 0.11047372 0.0245 0.032
v 0.11047372 0.0245 0.018000000000000002
v 0.12 0.019 0.032
v 0.12 0.019 0.018000000000000002
v 0.12952628000000002 0.0245 0.032
v 0.12952628000000002 0.0245 0.018000000000000002
v 0.12952628000000002 0.0355 0.032
v 0.12952628000000002 0.0355 0.018000000000000002
v 0.12675 0.03675 0.008
v 0.12675 0.023250000000000003 0.008
v 0.12635982 0.023640180000000004 0.00803843
v 0.12598463000000001 0.024015369999999998 0.00815224
v 0.12563886 0.02436114 0.00833706
v 0.12533579 0.02466421 0.00858579
v 0.12508706 0.024912939999999998 0.00888886
v 0.12490224 0.02509776 0.00923463
v 0.12478842999999999 0.025211570000000003 0.00960982
v 0.12475963000000001 0.025240369999999998 0.00980397
v 0.12475 0.025249999999999998 0.01
v 0.12475 0.03475 0.01
v 0.12475963000000001 0.03475963 0.00980397
v 0.12478842999999999 0.03478843 0.00960982
v 0.12490224 0.03490224 0.00923463
v 0.12508706 0.03508706 0.00888886
v 0.12533579 0.03533579 0.00858579
v 0.12563886 0.03563886 0.00833706
v 0.12598463000000001 0.035984630000000004 0.00815224
v 0.12635982 0.03635982 0.00803843
v 0.12575 0.03 0.00826795
v 0.12623236000000002 0.03 0.00806815
v 0.12533579 0.03 0.00858579
v 0.12501795 0.03 0.009000000000000001
v 0.12481814999999999 0.03 0.00948236
v 0.11324999999999999 0.023250000000000003 0.008
v 0.11364018 0.023640180000000004 0.00803843
v 0.11401536999999999 0.024015369999999998 0.00815224
v 0.11436114 0.02436114 0.00833706
v 0.11466421 0.02466421 0.00858579
v 0.11491294 0.024912939999999998 0.00888886
v 0.11509776000000001 0.02509776 0.00923463
v 0.11521157000000001 0.025211570000000003 0.00960982
v 0.11524037 0.025240369999999998 0.00980397
v 0.11525 0.025249999999999998 0.01
v 0.12 0.024249999999999997 0.00826795
v 0.12 0.023767640000000003 0.00806815
v 0.12 0.02466421 0.00858579
v 0.12 0.024982050000000002 0.009000000000000001
v 0.12 0.02518185 0.00948236
v 0.11324999999999999 0.03675 0.008
v 0.11364018 0.03635982 0.00803843
v 0.11401536999999999 0.035984630000000004 0.00815224
v 0.11436114 0.03563886 0.00833706
v 0.11466421 0.03533579 0.00858579
v 0.11491294 0.03508706 0.00888886
v 0.11509776000000001 0.03490224 0.00923463
v 0.11521157000000001 0.03478843 0.00960982
v 0.11524037 0.03475963 0.00980397
v 0.11525 0.03475 0.01
v 0.11425 0.03 0.00826795
v 0.11376764 0.03 0.00806815
v 0.11466421 0.03 0.00858579
v 0.11498205 0.03 0.009000000000000001
v 0.11518185000000002 0.03 0.00948236
v 0.12 0.03481815 0.00948236
v 0.12 0.03501795 0.009000000000000001
v 0.12 0.03533579 0.00858579
v 0.12 0.035750000000000004 0.00826795
v 0.12 0.03623236 0.00806815
v 0.12475 0.03475 0.015
v 0.11525 0.03475 0.015
v 0.12475 0.025249999999999998 0.015
v 0.135 0.03 0.008
v 0.13480576 0.027593830000000003 0.008
v 0.13422805000000002 0.02524998 0.008
v 0.13328184 0.02302915 0.008
v 0.13199164 0.02098887 0.008
v 0.13039087 0.01918196 0.008
v 0.12852097 0.017655240000000003 0.008
v 0.12643039 0.01644824 0.008
v 0.12417326 0.01559223 0.008
v 0.12180805 0.01510937 0.008
v 0.11939601 0.01501217 0.008
v 0.11699962 0.01530314 0.008
v 0.11468093 0.015974759999999998 0.008
v 0.1125 0.01700962 0.008
v 0.11051332000000001 0.01838093 0.008
v 0.10877234 0.02005316 0.008
v 0.10732215 0.021983009999999997 0.008
v 0.10620031 0.0241205 0.008
v 0.10543587 0.02641027 0.008
v 0.10504864 0.028793000000000003 0.008
v 0.10504864 0.031207 0.008
v 0.10543587 0.03358974 0.008
v 0.10620031 0.0358795 0.008
v 0.10732215 0.03801699 0.008
v 0.10877234 0.03994684 0.008
v 0.11051332000000001 0.04161908 0.008
v 0.1125 0.04299038 0.008
v 0.11468093 0.04402525 0.008
v 0.11699962 0.044696860000000005 0.008
v 0.11939601 0.044987839999999994 0.008
v 0.12180805 0.04489063 0.008
v 0.12417326 0.04440777 0.008
v 0.12643039 0.04355176 0.008
v 0.12852097 0.04234476 0.008
v 0.13039087 0.04081804 0.008
v 0.13199164 0.03901114 0.008
v 0.13328184 0.03697085 0.008
v 0.13422805000000002 0.03475002 0.008
v 0.13480576 0.03240617 0.008
v 0.11525 0.025249999999999998 0.015
v 0.135 0.03 0.032
v 0.13480576 0.027593830000000003 0.032
v 0.13422805000000002 0.02524998 0.032
v 0.13328184 0.02302915 0.032
v 0.13199164 0.02098887 0.032
v 0.13039087 0.01918196 0.032
v 0.12852097 0.017655240000000003 0.032
v 0.12643039 0.01644824 0.032
v 0.12417326 0.01559223 0.032
v 0.12180805 0.01510937 0.032
v 0.11939601 0.01501217 0.032
v 0.11699962 0.01530314 0.032
v 0.11468093 0.015974759999999998 0.032
v 0.1125 0.01700962 0.032
v 0.11051332000000001 0.01838093 0.032
v 0.10877234 0.02005316 0.032
v 0.10732215 0.021983009999999997 0.032
v 0.10620031 0.0241205 0.032
v 0.10543587 0.02641027 0.032
v 0.10504864 0.028793000000000003 0.032
v 0.10504864 0.031207 0.032
v 0.10543587 0.03358974 0.032
v 0.10620031 0.0358795 0.032
v 0.10732215 0.03801699 0.032
v 0.10877234 0.03994684 0.032
v 0.11051332000000001 0.04161908 0.032
v 0.1125 0.04299038 0.032
v 0.11468093 0.04402525 0.032
v 0.11699962 0.044696860000000005 0.032
v 0.11939601 0.044987839999999994 0.032
v 0.12180805 0.04489063 0.032
v 0.12417326 0.04440777 0.032
v 0.12643039 0.04355176 0.032
v 0.12852097 0.04234476 0.032
v 0.13039087 0.04081804 0.032
v 0.13199164 0.03901114 0.032
v 0.13328184 0.03697085 0.032
v 0.13422805000000002 0.03475002 0.032
v 0.13480576 0.03240617 0.032
vn 0.500000 -0.866025 0.000000
vn 0.500000 -0.866025 0.000000
vn 1.000000 0.000000 0.000000
vn 1.000000 0.000000 0.000000
vn 0.500000 0.866025 0.000000
vn 0.500000 0.866025 0.000000
vn -0.500000 0.866025 0.000000
vn -0.500000 0.866025 0.000000
vn -1.000000 0.000000 0.000000
vn -1.000000 0.000000 0.000000
vn -0.500000 -0.866025 -0.000000
vn -0.500000 -0.866025 0.000000
vn 0.000000 0.000000 1.000000
vn 0.000000 0.000000 1.000000
vn 0.000000 -0.000000 1.000000
vn 0.000000 0.000000 1.000000
vn -0.098017 -0.000000 -0.995185
vn -0.150939 -0.001595 -0.988542
vn -0.291538 0.001373 -0.956558
vn -0.382682 -0.002859 -0.923876
vn -0.472553 0.001487 -0.881301
vn -0.608767 -0.002275 -0.793346
vn -0.634405 0.000000 -0.773000
vn -0.773005 -0.000000 -0.634400
vn -0.793345 -0.002522 -0.608767
vn -0.882294 0.001703 -0.470696
vn -0.923878 -0.003491 -0.382672
vn -0.957089 0.001772 -0.289789
vn -0.989125 -0.002226 -0.147061
vn -0.983842 -0.000000 -0.179041
vn -0.998797 -0.000000 -0.049028
vn -0.998797 -0.000000 -0.049028
vn -0.095301 0.002742 -0.995445
vn -0.291538 -0.001373 -0.956558
vn -0.382682 0.002859 -0.923876
vn -0.472553 -0.001487 -0.881301
vn -0.608767 0.002275 -0.793346
vn -0.634405 -0.000000 -0.773000
vn -0.773005 -0.000000 -0.634400
vn -0.793345 0.002522 -0.608767
vn -0.882294 -0.001703 -0.470696
vn -0.923878 0.003491 -0.382672
vn -0.957089 -0.001772 -0.289789
vn -0.989125 0.002226 -0.147061
vn 0.000000 0.098019 -0.995185
vn -0.001594 0.150939 -0.988542
vn 0.001373 0.291534 -0.956559
vn -0.002859 0.382682 -0.923876
vn 0.001487 0.472556 -0.881299
vn -0.002275 0.608767 -0.793346
vn 0.000000 0.634405 -0.773000
vn 0.000000 0.773002 -0.634404
vn -0.002522 0.793345 -0.608767
vn 0.001703 0.882294 -0.470696
vn -0.003491 0.923874 -0.382680
vn 0.001773 0.957091 -0.289783
vn -0.002225 0.989127 -0.147049
vn 0.000000 0.983846 -0.179020
vn 0.000000 0.998795 -0.049077
vn 0.000000 0.998795 -0.049077
vn 0.002742 0.095303 -0.995445
vn -0.001373 0.291534 -0.956559
vn 0.002859 0.382682 -0.923876
vn -0.001487 0.472556 -0.881299
vn 0.002275 0.608767 -0.793346
vn 0.000000 0.634405 -0.773000
vn 0.000000 0.773002 -0.634404
vn 0.002522 0.793345 -0.608767
vn -0.001703 0.882294 -0.470696
vn 0.003491 0.923874 -0.382680
vn -0.001773 0.957091 -0.289783
vn 0.002225 0.989127 -0.147049
vn 0.098017 0.000000 -0.995185
vn 0.150939 0.001595 -0.988542
vn 0.291538 -0.001373 -0.956558
vn 0.382682 0.002859 -0.923876
vn 0.472553 -0.001487 -0.881301
vn 0.608767 0.002275 -0.793346
vn 0.634405 0.000000 -0.773000
vn 0.773005 0.000000 -0.634400
vn 0.793345 0.002522 -0.608767
vn 0.882294 -0.001703 -0.470696
vn 0.923878 0.003491 -0.382672
vn 0.957089 -0.001772 -0.289789
vn 0.989125 0.002226 -0.147061
vn 0.983842 0.000000 -0.179041
vn 0.998797 0.000000 -0.049028
vn 0.998797 0.000000 -0.049028
vn 0.095301 -0.002742 -0.995445
vn 0.291538 0.001373 -0.956558
vn 0.382682 -0.002859 -0.923876
vn 0.472553 0.001487 -0.881301
vn 0.608767 -0.002275 -0.793346
vn 0.634405 0.000000 -0.773000
vn 0.773005 0.000000 -0.634400
vn 0.793345 -0.002522 -0.608767
vn 0.882294 0.001703 -0.470696
vn 0.923878 -0.003491 -0.382672
vn 0.957089 0.001772 -0.289789
vn 0.989125 -0.002226 -0.147061
vn -0.000000 -0.998795 -0.049077
vn -0.000000 -0.998795 -0.049077
vn -0.000000 -0.983846 -0.179020
vn 0.002225 -0.989127 -0.147049
vn -0.001773 -0.957091 -0.289783
vn 0.003491 -0.923874 -0.382680
vn -0.001703 -0.882294 -0.470696
vn 0.002522 -0.793345 -0.608767
vn -0.000000 -0.773002 -0.634404
vn -0.000000 -0.634405 -0.773000
vn 0.002275 -0.608767 -0.793346
vn -0.001487 -0.472556 -0.881299
vn 0.002859 -0.382682 -0.923876
vn -0.001373 -0.291534 -0.956559
vn 0.001594 -0.150939 -0.988542
vn -0.000000 -0.098019 -0.995185
vn -0.002742 -0.095303 -0.995445
vn 0.001373 -0.291534 -0.956559
vn -0.002859 -0.382682 -0.923876
vn 0.001487 -0.472556 -0.881299
vn -0.002275 -0.608767 -0.793346
vn 0.000000 -0.634405 -0.773000
vn 0.000000 -0.773002 -0.634404
vn -0.002522 -0.793345 -0.608767
vn 0.001703 -0.882294 -0.470696
vn -0.003491 -0.923874 -0.382680
vn 0.001773 -0.957091 -0.289783
vn -0.002225 -0.989127 -0.147049
vn 0.000000 -1.000000 0.000000
vn 0.000000 -1.000000 0.000000
vn -1.000000 0.000000 0.000000
vn -1.000000 -0.000000 0.000000
vn -0.000000 0.000000 -1.000000
vn -0.000000 0.000000 -1.000000
vn 0.000000 0.000000 -1.000000
vn 0.000000 0.000000 -1.000000
vn 0.000000 0.000000 -1.000000
vn -0.000000 0.000000 -1.000000
vn -0.000000 0.000000 -1.000000
vn -0.000000 0.000000 -1.000000
vn -0.000000 0.000000 -1.000000
vn -0.000000 -0.000000 -1.000000
vn -0.000000 -0.000000 -1.000000
vn -0.000000 -0.000000 -1.000000
vn 0.000000 -0.000000 -1.000000
vn 0.000000 0.000000 -1.000000
vn 0.000000 0.000000 -1.000000
vn 0.000000 0.000000 -1.000000
vn 0.000000 -0.000000 -1.000000
vn 0.000000 -0.000000 -1.000000
vn 0.000000 -0.000000 -1.000000
vn 0.000000 -0.000000 -1.000000
vn 0.000000 -0.000000 -1.000000
vn 0.000000 -0.000000 -1.000000
vn 0.000000 0.000000 -1.000000
vn 0.000000 0.000000 -1.000000
vn 0.000000 0.000000 -1.000000
vn 0.000000 0.000000 -1.000000
vn 0.000000 0.000000 -1.000000
vn 0.000000 0.000000 -1.000000
vn 0.000000 0.000000 -1.000000
vn 0.000000 0.000000 -1.000000
vn 0.000000 0.000000 -1.000000
vn 0.000000 0.000000 -1.000000
vn 0.000000 0.000000 -1.000000
vn 0.000000 0.000000 -1.000000
vn 0.000000 0.000000 -1.000000
vn 0.000000 0.000000 -1.000000
vn 0.000000 0.000000 -1.000000
vn 0.000000 0.000000 -1.000000
vn 0.000000 0.000000 -1.000000
vn 0.000000 0.000000 -1.000000
vn 0.000000 0.000000 -1.000000
vn 0.000000 0.000000 -1.000000
vn -0.000000 0.000000 -1.000000
vn 0.000000 1.000000 -0.000000
vn 0.000000 1.000000 0.000000
vn 1.000000 0.000000 0.000000
vn 1.000000 -0.000000 0.000000
vn 0.000000 0.000000 -1.000000
vn 0.000000 0.000000 -1.000000
vn 0.996757 0.080466 -0.000000
vn 0.996757 0.080466 -0.000000
vn 0.996757 -0.080466 0.000000
vn 0.996757 -0.080466 0.000000
vn 0.970942 -0.239316 0.000000
vn 0.970942 -0.239316 0.000000
vn 0.919979 -0.391967 0.000000
vn 0.919979 -0.391967 0.000000
vn 0.845190 -0.534466 0.000000
vn 0.845190 -0.534466 0.000000
vn 0.748513 -0.663120 0.000000
vn 0.748513 -0.663120 0.000000
vn 0.632442 -0.774608 0.000000
vn 0.632442 -0.774608 0.000000
vn 0.500001 -0.866025 0.000000
vn 0.500001 -0.866025 0.000000
vn 0.354603 -0.935017 0.000000
vn 0.354603 -0.935017 0.000000
vn 0.200026 -0.979791 0.000000
vn 0.200026 -0.979791 0.000000
vn 0.040265 -0.999189 0.000000
vn 0.040265 -0.999189 0.000000
vn -0.120535 -0.992709 0.000000
vn -0.120535 -0.992709 0.000000
vn -0.278219 -0.960518 0.000000
vn -0.278219 -0.960518 0.000000
vn -0.428691 -0.903451 0.000000
vn -0.428691 -0.903451 0.000000
vn -0.568067 -0.822982 0.000000
vn -0.568067 -0.822982 0.000000
vn -0.692723 -0.721203 0.000000
vn -0.692723 -0.721203 0.000000
vn -0.799441 -0.600744 0.000000
vn -0.799441 -0.600744 0.000000
vn -0.885457 -0.464722 0.000000
vn -0.885457 -0.464722 0.000000
vn -0.948535 -0.316671 0.000000
vn -0.948535 -0.316671 0.000000
vn -0.987050 -0.160411 0.000000
vn -0.987050 -0.160411 0.000000
vn -1.000000 0.000000 0.000000
vn -1.000000 0.000000 0.000000
vn -0.987050 0.160410 0.000000
vn -0.987050 0.160410 0.000000
vn -0.948535 0.316672 0.000000
vn -0.948535 0.316672 0.000000
vn -0.885457 0.464722 0.000000
vn -0.885457 0.464722 0.000000
vn -0.799441 0.600744 0.000000
vn -0.799441 0.600744 0.000000
vn -0.692726 0.721201 0.000000
vn -0.692726 0.721201 0.000000
vn -0.568063 0.822985 0.000000
vn -0.568063 0.822985 0.000000
vn -0.428695 0.903449 0.000000
vn -0.428695 0.903449 0.000000
vn -0.278215 0.960519 0.000000
vn -0.278215 0.960519 0.000000
vn -0.120539 0.992709 0.000000
vn -0.120539 0.992709 0.000000
vn 0.040270 0.999189 -0.000000
vn 0.040270 0.999189 -0.000000
vn 0.200025 0.979791 -0.000000
vn 0.200025 0.979791 -0.000000
vn 0.354602 0.935017 -0.000000
vn 0.354602 0.935017 -0.000000
vn 0.500001 0.866025 -0.000000
vn 0.500001 0.866025 -0.000000
vn 0.632443 0.774607 -0.000000
vn 0.632443 0.774607 -0.000000
vn 0.748511 0.663122 -0.000000
vn 0.748511 0.663122 -0.000000
vn 0.845191 0.534465 -0.000000
vn 0.845191 0.534465 -0.000000
vn 0.919979 0.391967 -0.000000
vn 0.919979 0.391967 -0.000000
vn 0.970942 0.239316 -0.000000
vn 0.970942 0.239316 -0.000000
vn 0.000000 0.000000 1.000000
vn 0.000000 0.000000 1.000000
vn 0.000000 -0.000000 1.000000
vn 0.000000 0.000000 1.000000
vn 0.000000 0.000000 1.000000
vn 0.000000 0.000000 1.000000
vn 0.000000 0.000000 1.000000
vn 0.000000 0.000000 1.000000
vn 0.000000 0.000000 1.000000
vn -0.000000 0.000000 1.000000
vn 0.000000 0.000000 1.000000
vn 0.000000 0.000000 1.000000
vn 0.000000 0.000000 1.000000
vn 0.000000 0.000000 1.000000
vn 0.000000 0.000000 1.000000
vn 0.000000 0.000000 1.000000
vn 0.000000 0.000000 1.000000
vn 0.000000 0.000000 1.000000
vn 0.000000 0.000000 1.000000
vn 0.000000 0.000000 1.000000
vn 0.000000 0.000000 1.000000
vn 0.000000 0.000000 1.000000
vn 0.000000 0.000000 1.000000
vn 0.000000 0.000000 1.000000
vn 0.000000 0.000000 1.000000
vn 0.000000 0.000000 1.000000
vn 0.000000 0.000000 1.000000
vn 0.000000 0.000000 1.000000
vn 0.000000 0.000000 1.000000
vn 0.000000 0.000000 1.000000
vn -0.000000 0.000000 1.000000
vn 0.000000 0.000000 1.000000
vn -0.000000 0.000000 1.000000
vn 0.000000 0.000000 1.000000
vn 0.000000 0.000000 1.000000
vn -0.000000 -0.000000 1.000000
vn -0.000000 0.000000 1.000000
vn 0.000000 0.000000 1.000000
vn 0.000000 0.000000 1.000000
vn 0.000000 -0.000000 1.000000
vn 0.000000 -0.000000 1.000000
vn 0.000000 0.000000 1.000000
vn -0.000000 0.000000 1.000000
vn 0.000000 -0.000000 1.000000
vn 0.000000 0.000000 1.000000
f 1//1 2//1 4//1
f 4//2 2//2 3//2
f 2//3 5//3 3//3
f 3//4 5//4 6//4
f 5//5 7//5 6//5
f 6//6 7//6 8//6
f 7//7 9//7 8//7
f 8//8 9//8 10//8
f 9//9 11//9 10//9
f 10//10 11//10 12//10
f 11//11 1//11 12//11
f 12//12 1//12 4//12
f 12//13 4//13 10//13
f 10//14 4//14 8//14
f 8//15 4//15 3//15
f 8//16 3//16 6//16
f 13//17 14//17 32//17
f 32//18 14//18 34//18
f 32//19 34//19 31//19
f 31//20 34//20 33//20
f 31//21 33//21 30//21
f 30//22 33//22 35//22
f 30//23 35//23 29//23
f 29//24 35//24 28//24
f 28//25 35//25 36//25
f 28//26 36//26 27//26
f 27//27 36//27 37//27
f 27//28 37//28 26//28
f 26//29 37//29 25//29
f 25//30 37//30 22//30
f 25//31 22//31 24//31
f 24//32 22//32 23//32
f 14//33 15//33 34//33
f 34//34 15//34 16//34
f 34//35 16//35 33//35
f 33//36 16//36 17//36
f 33//37 17//37 35//37
f 35//38 17//38 18//38
f 35//39 18//39 19//39
f 35//40 19//40 36//40
f 36//41 19//41 20//41
f 36//42 20//42 37//42
f 37//43 20//43 21//43
f 37//44 21//44 22//44
f 14//45 38//45 15//45
f 15//46 38//46 49//46
f 15//47 49//47 16//47
f 16//48 49//48 48//48
f 16//49 48//49 17//49
f 17//50 48//50 50//50
f 17//51 50//51 18//51
f 18//52 50//52 19//52
f 19//53 50//53 51//53
f 19//54 51//54 20//54
f 20//55 51//55 52//55
f 20//56 52//56 21//56
f 21//57 52//57 22//57
f 22//58 52//58 46//58
f 22//59 46//59 23//59
f 23//60 46//60 47//60
f 38//61 39//61 49//61
f 49//62 39//62 40//62
f 49//63 40//63 48//63
f 48//64 40//64 41//64
f 48//65 41//65 50//65
f 50//66 41//66 42//66
f 50//67 42//67 43//67
f 50//68 43//68 51//68
f 51//69 43//69 44//69
f 51//70 44//70 52//70
f 52//71 44//71 45//71
f 52//72 45//72 46//72
f 38//73 53//73 39//73
f 39//74 53//74 64//74
f 39//75 64//75 40//75
f 40//76 64//76 63//76
f 40//77 63//77 41//77
f 41//78 63//78 65//78
f 41//79 65//79 42//79
f 42//80 65//80 43//80
f 43//81 65//81 66//81
f 43//82 66//82 44//82
f 44//83 66//83 67//83
f 44//84 67//84 45//84
f 45//85 67//85 46//85
f 46//86 67//86 61//86
f 46//87 61//87 47//87
f 47//88 61//88 62//88
f 53//89 54//89 64//89
f 64//90 54//90 55//90
f 64//91 55//91 63//91
f 63//92 55//92 56//92
f 63//93 56//93 65//93
f 65//94 56//94 57//94
f 65//95 57//95 58//95
f 65//96 58//96 66//96
f 66//97 58//97 59//97
f 66//98 59//98 67//98
f 67//99 59//99 60//99
f 67//100 60//100 61//100
f 24//101 62//101 25//101
f 25//102 62//102 61//102
f 25//103 61//103 68//103
f 68//104 61//104 60//104
f 68//105 60//105 59//105
f 68//106 59//106 69//106
f 69//107 59//107 58//107
f 69//108 58//108 70//108
f 70//109 58//109 57//109
f 70//110 57//110 56//110
f 70//111 56//111 71//111
f 71//112 56//112 55//112
f 71//113 55//113 72//113
f 72//114 55//114 54//114
f 72//115 54//115 13//115
f 13//116 54//116 53//116
f 13//117 32//117 72//117
f 72//118 32//118 31//118
f 72//119 31//119 71//119
f 71//120 31//120 30//120
f 71//121 30//121 70//121
f 70//122 30//122 29//122
f 70//123 29//123 28//123
f 70//124 28//124 69//124
f 69//125 28//125 27//125
f 69//126 27//126 68//126
f 68//127 27//127 26//127
f 68//128 26//128 25//128
f 62//129 24//129 74//129
f 74//130 24//130 73//130
f 24//131 23//131 73//131
f 73//132 23//132 75//132
f 77//133 14//133 76//133
f 76//134 14//134 13//134
f 76//135 13//135 114//135
f 114//136 13//136 113//136
f 113//137 13//137 112//137
f 112//138 13//138 111//138
f 111//139 13//139 110//139
f 110//140 13//140 109//140
f 109//141 13//141 108//141
f 108//142 13//142 107//142
f 107//143 13//143 106//143
f 106//144 13//144 105//144
f 105//145 13//145 53//145
f 105//146 53//146 104//146
f 104//147 53//147 103//147
f 103//148 53//148 102//148
f 102//149 53//149 101//149
f 101//150 53//150 100//150
f 100//151 53//151 99//151
f 99//152 53//152 98//152
f 98//153 53//153 97//153
f 97//154 53//154 96//154
f 96//155 53//155 95//155
f 95//156 53//156 38//156
f 95//157 38//157 94//157
f 94//158 38//158 93//158
f 93//159 38//159 92//159
f 92//160 38//160 91//160
f 91//161 38//161 90//161
f 90//162 38//162 89//162
f 89//163 38//163 88//163
f 88//164 38//164 87//164
f 87//165 38//165 86//165
f 86//166 38//166 14//166
f 86//167 14//167 85//167
f 85//168 14//168 84//168
f 84//169 14//169 83//169
f 83//170 14//170 82//170
f 82//171 14//171 81//171
f 81//172 14//172 80//172
f 80//173 14//173 79//173
f 79//174 14//174 78//174
f 78//175 14//175 77//175
f 23//176 47//176 75//176
f 75//177 47//177 115//177
f 47//178 62//178 115//178
f 115//179 62//179 74//179
f 74//180 73//180 115//180
f 115//181 73//181 75//181
f 114//182 154//182 76//182
f 76//183 154//183 116//183
f 76//184 116//184 77//184
f 77//185 116//185 117//185
f 77//186 117//186 78//186
f 78//187 117//187 118//187
f 78//188 118//188 79//188
f 79//189 118//189 119//189
f 79//190 119//190 80//190
f 80//191 119//191 120//191
f 80//192 120//192 81//192
f 81//193 120//193 121//193
f 81//194 121//194 82//194
f 82//195 121//195 122//195
f 82//196 122//196 83//196
f 83//197 122//197 123//197
f 83//198 123//198 84//198
f 84//199 123//199 124//199
f 84//200 124//200 85//200
f 85//201 124//201 125//201
f 85//202 125//202 86//202
f 86//203 125//203 126//203
f 86//204 126//204 87//204
f 87//205 126//205 127//205
f 87//206 127//206 88//206
f 88//207 127//207 128//207
f 88//208 128//208 89//208
f 89//209 128//209 129//209
f 89//210 129//210 90//210
f 90//211 129//211 130//211
f 90//212 130//212 91//212
f 91//213 130//213 131//213
f 91//214 131//214 92//214
f 92//215 131//215 132//215
f 92//216 132//216 93//216
f 93//217 132//217 133//217
f 93//218 133//218 94//218
f 94//219 133//219 134//219
f 94//220 134//220 95//220
f 95//221 134//221 135//221
f 95//222 135//222 96//222
f 96//223 135//223 136//223
f 96//224 136//224 97//224
f 97//225 136//225 137//225
f 97//226 137//226 98//226
f 98//227 137//227 138//227
f 98//228 138//228 99//228
f 99//229 138//229 139//229
f 99//230 139//230 100//230
f 100//231 139//231 140//231
f 100//232 140//232 101//232
f 101//233 140//233 141//233
f 101//234 141//234 102//234
f 102//235 141//235 142//235
f 102//236 142//236 103//236
f 103//237 142//237 143//237
f 103//238 143//238 104//238
f 104//239 143//239 144//239
f 104//240 144//240 105//240
f 105//241 144//241 145//241
f 105//242 145//242 106//242
f 106//243 145//243 146//243
f 106//244 146//244 107//244
f 107//245 146//245 147//245
f 107//246 147//246 108//246
f 108//247 147//247 148//247
f 108//248 148//248 109//248
f 109//249 148//249 149//249
f 109//250 149//250 110//250
f 110//251 149//251 150//251
f 110//252 150//252 111//252
f 111//253 150//253 151//253
f 111//254 151//254 112//254
f 112//255 151//255 152//255
f 112//256 152//256 113//256
f 113//257 152//257 153//257
f 113//258 153//258 114//258
f 114//259 153//259 154//259
f 1//260 142//260 2//260
f 2//261 142//261 141//261
f 2//262 141//262 140//262
f 11//263 148//263 1//263
f 1//264 148//264 147//264
f 1//265 147//265 146//265
f 9//266 116//266 11//266
f 11//267 116//267 154//267
f 11//268 154//268 153//268
f 7//269 123//269 9//269
f 9//270 123//270 122//270
f 9//271 122//271 121//271
f 5//272 129//272 7//272
f 7//273 129//273 128//273
f 7//274 128//274 127//274
f 2//275 135//275 5//275
f 5//276 135//276 134//276
f 5//277 134//277 133//277
f 153//278 152//278 11//278
f 11//279 152//279 151//279
f 11//280 151//280 150//280
f 150//281 149//281 11//281
f 11//282 149//282 148//282
f 146//283 145//283 1//283
f 1//284 145//284 144//284
f 1//285 144//285 143//285
f 143//286 142//286 1//286
f 140//287 139//287 2//287
f 2//288 139//288 138//288
f 2//289 138//289 137//289
f 137//290 136//290 2//290
f 2//291 136//291 135//291
f 133//292 132//292 5//292
f 5//293 132//293 131//293
f 5//294 131//294 130//294
f 130//295 129//295 5//295
f 127//296 126//296 7//296
f 7//297 126//297 125//297
f 7//298 125//298 124//298
f 124//299 123//299 7//299
f 121//300 120//300 9//300
f 9//301 120//301 119//301
f 9//302 119//302 118//302
f 118//303 117//303 9//303
f 9//304 117//304 116//304
