# WaveFront *.obj file
# Vertices: 361
# Triangles : 746

v 1.874730628601666e-17 0.09999999999999998 0.00349999999999985
v -0.0014235782507652848 0.09999999999999998 0.003197409101748952
v -0.0026010068891708627 0.09999999999999998 0.0023419571222558526
v -0.0033286978070330197 0.09999999999999998 0.0010815594803121654
v -0.0034808266337889387 0.09999999999999998 -0.00036584962143693995
v -0.0030310889132455165 0.09999999999999998 -0.0017500000000001518
v -0.0020572483830236378 0.09999999999999998 -0.002831559480312467
v -0.0007276909178621389 0.09999999999999998 -0.0034235166025684705
v 0.0007276909178621771 0.09999999999999998 -0.0034235166025684705
v 0.0020572483830236746 0.09999999999999998 -0.002831559480312467
v 0.003031088913245554 0.09999999999999998 -0.0017500000000001503
v 0.0034808266337889755 0.09999999999999998 -0.00036584962143693757
v 0.0033286978070330565 0.09999999999999998 0.0010815594803121654
v 0.0026010068891708983 0.09999999999999998 0.0023419571222558534
v 0.00142357825076532 0.09999999999999998 0.0031974091017489526
v 1.7890053526613508e-17 0.10999999999999999 0.00349999999999985
v 0.0014235782507653215 0.10999999999999999 0.003197409101748952
v 0.002601006889170899 0.10999999999999999 0.0023419571222558526
v 0.0033286978070330565 0.10999999999999999 0.0010815594803121654
v 0.0034808266337889755 0.10999999999999999 -0.00036584962143693995
v 0.0030310889132455533 0.10999999999999999 -0.0017500000000001518
v 0.0020572483830236746 0.10999999999999999 -0.002831559480312467
v 0.0007276909178621755 0.10999999999999999 -0.0034235166025684705
v -0.0007276909178621405 0.10999999999999999 -0.0034235166025684705
v -0.0020572483830236378 0.10999999999999999 -0.002831559480312467
v -0.0030310889132455178 0.10999999999999999 -0.0017500000000001503
v -0.0034808266337889387 0.10999999999999999 -0.00036584962143693757
v -0.0033286978070330197 0.10999999999999999 0.0010815594803121654
v -0.0026010068891708614 0.10999999999999999 0.0023419571222558534
v -0.0014235782507652833 0.10999999999999999 0.0031974091017489526
v -0.02691924723193863 0.096 3.296656995804989e-18
v -0.026603765062228283 0.096 0.004109203821666339
v -0.025664713187764962 0.096 0.008122091388552495
v -0.024124102188582644 0.096 0.011944604017256395
v -0.0220180426807408 0.096 0.015487145251572736
v -0.019395898914089993 0.096 0.018666680927487835
v -0.01631913171609454 0.096 0.021408685423607705
v -0.012859857902128463 0.096 0.02364888847855856
v -0.00909915991844664 0.096 0.025334781631440394
v -0.005125185338366734 0.096 0.026426848975646455
v -0.0010310807578611672 0.096 0.0268994933782219
v 0.0030871914817051154 0.096 0.026741636454965186
v 0.0071331025695224185 0.096 0.025956978238364115
v 0.011011819778847479 0.096 0.024563910451970365
v 0.014632429265742024 0.096 0.02259508542398749
v 0.017910067012519522 0.096 0.020096650744372693
v 0.020767907968392434 0.096 0.017127167604441124
v 0.023138966763548787 0.096 0.013756238172175566
v 0.02496766778944635 0.096 0.010062874176401029
v 0.026211147843973208 0.096 0.006133644938828303
v 0.026840260808576075 0.096 0.00206064826252581
v 0.026840260808576075 0.096 -0.0020606482625257984
v 0.026211147843973215 0.096 -0.00613364493882828
v 0.024967667789446354 0.096 -0.010062874176401018
v 0.02313896676354879 0.096 -0.013756238172175556
v 0.020767907968392445 0.096 -0.017127167604441114
v 0.017910067012519532 0.096 -0.020096650744372686
v 0.014632429265742042 0.096 -0.022595085423987474
v 0.011011819778847503 0.096 -0.024563910451970355
v 0.007133102569522431 0.096 -0.025956978238364112
v 0.0030871914817051393 0.096 -0.026741636454965183
v -0.0010310807578611612 0.096 -0.0268994933782219
v -0.005125185338366723 0.096 -0.02642684897564646
v -0.009099159918446618 0.096 -0.0253347816314404
v -0.012859857902128449 0.096 -0.023648888478558564
v -0.01631913171609452 0.096 -0.021408685423607715
v -0.019395898914089993 0.096 -0.018666680927487835
v -0.022018042680740795 0.096 -0.015487145251572748
v -0.02412410218858263 0.096 -0.011944604017256418
v -0.025664713187764962 0.096 -0.008122091388552495
v -0.02660376506222828 0.096 -0.004109203821666351
v -0.02691924723193863 0.09999999999999998 3.296656995804989e-18
v -0.026603765062228283 0.09999999999999998 -0.004109203821666339
v -0.025664713187764962 0.09999999999999998 -0.008122091388552495
v -0.024124102188582644 0.09999999999999998 -0.011944604017256395
v -0.0220180426807408 0.09999999999999998 -0.015487145251572736
v -0.019395898914089993 0.09999999999999998 -0.018666680927487835
v -0.01631913171609454 0.09999999999999998 -0.021408685423607705
v -0.012859857902128463 0.09999999999999998 -0.02364888847855856
v -0.00909915991844664 0.09999999999999998 -0.025334781631440394
v -0.005125185338366734 0.09999999999999998 -0.026426848975646455
v -0.0010310807578611672 0.09999999999999998 -0.0268994933782219
v 0.0030871914817051154 0.09999999999999998 -0.026741636454965186
v 0.0071331025695224185 0.09999999999999998 -0.025956978238364115
v 0.011011819778847479 0.09999999999999998 -0.024563910451970365
v 0.014632429265742024 0.09999999999999998 -0.02259508542398749
v 0.017910067012519522 0.09999999999999998 -0.020096650744372693
v 0.020767907968392434 0.09999999999999998 -0.017127167604441124
v 0.023138966763548787 0.09999999999999998 -0.013756238172175566
v 0.02496766778944635 0.09999999999999998 -0.010062874176401029
v 0.026211147843973208 0.09999999999999998 -0.006133644938828303
v 0.026840260808576075 0.09999999999999998 -0.00206064826252581
v 0.026840260808576075 0.09999999999999998 0.0020606482625257984
v 0.026211147843973215 0.09999999999999998 0.00613364493882828
v 0.024967667789446354 0.09999999999999998 0.010062874176401018
v 0.02313896676354879 0.09999999999999998 0.013756238172175556
v 0.020767907968392445 0.09999999999999998 0.017127167604441114
v 0.017910067012519532 0.09999999999999998 0.020096650744372686
v 0.014632429265742042 0.09999999999999998 0.022595085423987474
v 0.011011819778847503 0.09999999999999998 0.024563910451970355
v 0.007133102569522431 0.09999999999999998 0.025956978238364112
v 0.0030871914817051393 0.09999999999999998 0.026741636454965183
v -0.0010310807578611612 0.09999999999999998 0.0268994933782219
v -0.005125185338366723 0.09999999999999998 0.02642684897564646
v -0.009099159918446618 0.09999999999999998 0.0253347816314404
v -0.012859857902128449 0.09999999999999998 0.023648888478558564
v -0.01631913171609452 0.09999999999999998 0.021408685423607715
v -0.019395898914089993 0.09999999999999998 0.018666680927487835
v -0.022018042680740795 0.09999999999999998 0.015487145251572748
v -0.02412410218858263 0.09999999999999998 0.011944604017256418
v -0.025664713187764962 0.09999999999999998 0.008122091388552495
v -0.02660376506222828 0.09999999999999998 0.004109203821666351
v -0.025 0.096 3.061616997868383e-18
v -0.02467625656594782 0.096 0.004010282021444013
v -0.023713411048678638 0.096 0.007916699845036812
v -0.022136400641330246 0.096 0.011618079301094217
v -0.019986069085087533 0.096 0.015018556605949472
v -0.017318108837739984 0.096 0.018030061183595365
v -0.014201618668278893 0.096 0.020574596647341414
v -0.010717314035076347 0.096 0.022586260865259562
v -0.006955436597911316 0.096 0.024012952790784307
v -0.003013417006383078 0.096 0.02481772185245135
v 0.0010066485027353756 0.096 0.024979724954289243
v 0.005000642344401111 0.096 0.02449476630105669
v 0.00886512217606339 0.096 0.023375406067135368
v 0.012499999999999997 0.096 0.02165063509461097
v 0.01581113438988443 0.096 0.019365124045691365
v 0.018712768704277526 0.096 0.016578066456019887
v 0.021129752138594866 0.096 0.01336164565319503
v 0.022999486091470605 0.096 0.009799165246501875
v 0.0242735454356513 0.096 0.005982891607188949
v 0.024918932703355247 0.096 0.002011664217918149
v 0.024918932703355254 0.096 -0.0020116642179181378
v 0.024273545435651304 0.096 -0.0059828916071889395
v 0.022999486091470605 0.096 -0.009799165246501875
v 0.021129752138594877 0.096 -0.01336164565319502
v 0.01871276870427753 0.096 -0.016578066456019877
v 0.01581113438988444 0.096 -0.019365124045691354
v 0.01250000000000001 0.096 -0.021650635094610963
v 0.008865122176063394 0.096 -0.023375406067135368
v 0.005000642344401111 0.096 -0.02449476630105669
v 0.0010066485027353756 0.096 -0.024979724954289243
v -0.003013417006383061 0.096 -0.02481772185245135
v -0.006955436597911304 0.096 -0.024012952790784314
v -0.010717314035076347 0.096 -0.022586260865259562
v -0.014201618668278893 0.096 -0.020574596647341414
v -0.017318108837739984 0.096 -0.018030061183595365
v -0.01998606908508752 0.096 -0.015018556605949487
v -0.02213640064133024 0.096 -0.011618079301094226
v -0.023713411048678634 0.096 -0.007916699845036823
v -0.02467625656594782 0.096 -0.004010282021444013
v 0.017677669529663688 0.09999999999999998 0.017677669529663688
v 0.017440339195468103 0.09999999999999998 0.0179118555361252
v 0.01719990674749378 0.09999999999999998 0.018142855560178996
v 0.01695641495146915 0.09999999999999998 0.018370628513842243
v 0.003585786437626905 0.09999999999999998 0.005
v -0.0035857864376269057 0.09999999999999998 0.005
v -0.01695641495146915 0.09999999999999998 0.018370628513842243
v -0.017199906747493776 0.09999999999999998 0.018142855560179
v -0.017440339195468106 0.09999999999999998 0.0179118555361252
v -0.017677669529663688 0.09999999999999998 0.017677669529663688
v -0.005 0.09999999999999998 0.005
v -0.02449489742783178 0.09999999999999998 0.005000000000000005
v -0.02494370862045473 0.09999999999999998 0.0016767230713067062
v -0.024943708620454738 0.09999999999999998 -0.0016767230713066999
v -0.02449489742783178 0.09999999999999998 -0.005000000000000005
v -0.005 0.09999999999999998 -0.005
v -0.017677669529663688 0.09999999999999998 -0.017677669529663688
v -0.017440339195468106 0.09999999999999998 -0.0179118555361252
v -0.017199906747493776 0.09999999999999998 -0.018142855560179
v -0.01695641495146915 0.09999999999999998 -0.018370628513842243
v -0.0035857864376269036 0.09999999999999998 -0.005
v 0.0035857864376269027 0.09999999999999998 -0.005
v 0.016956414951469143 0.09999999999999998 -0.018370628513842246
v 0.017199906747493776 0.09999999999999998 -0.018142855560179
v 0.0174403391954681 0.09999999999999998 -0.017911855536125204
v 0.017677669529663688 0.09999999999999998 -0.017677669529663695
v 0.004999999999999998 0.09999999999999998 -0.005
v 0.02449489742783178 0.09999999999999998 -0.004999999999999999
v 0.02494370862045473 0.09999999999999998 -0.0016767230713067057
v 0.02494370862045473 0.09999999999999998 0.0016767230713067057
v 0.02449489742783178 0.09999999999999998 0.004999999999999999
v 0.005 0.09999999999999998 0.005
v 0.004999999999999998 0.11 -0.005
v 0.02449489742783178 0.11 -0.004999999999999999
v 0.017677669529663688 0.11 -0.017677669529663695
v -0.005 0.11 0.005
v -0.02449489742783178 0.11 0.005000000000000005
v -0.017677669529663688 0.11 0.017677669529663688
v -0.01695641495146915 0.11 -0.018370628513842243
v -0.0035857864376269036 0.11 -0.005
v 0.0035857864376269027 0.11 -0.005
v 0.016956414951469143 0.11 -0.018370628513842246
v 0.017677669529663688 0.11 0.017677669529663688
v 0.02006152574881794 0.10999999999999999 0.014917613235015677
v 0.022018450833833664 0.10999999999999999 0.011840093871167134
v 0.02350679928593722 0.10999999999999999 0.00851060440454504
v 0.02449489742783178 0.11 0.004999999999999999
v 0.02350679928593722 0.10999999999999999 -0.008510604404545041
v 0.022018450833833664 0.10999999999999999 -0.011840093871167136
v 0.02006152574881794 0.10999999999999999 -0.014917613235015678
v 0.014039828513124797 0.10999999999999999 -0.020685338172774643
v 0.0108117969574367 0.10999999999999999 -0.02254118556223613
v 0.007343927616767261 0.10999999999999999 -0.0238970024722701
v 0.003713148138254625 0.10999999999999999 -0.02472271285485022
v -4.020306624191592e-18 0.10999999999999999 -0.025
v -0.0037131481382546338 0.10999999999999999 -0.02472271285485022
v -0.0073439276167672676 0.10999999999999999 -0.023897002472270095
v -0.010811796957436701 0.10999999999999999 -0.02254118556223613
v -0.014039828513124806 0.10999999999999999 -0.020685338172774643
v -0.017677669529663688 0.11 -0.017677669529663688
v -0.020061525748817935 0.10999999999999999 -0.014917613235015682
v -0.022018450833833664 0.10999999999999999 -0.01184009387116714
v -0.02350679928593722 0.10999999999999999 -0.00851060440454504
v -0.02449489742783178 0.11 -0.005000000000000005
v -0.02350679928593722 0.10999999999999999 0.00851060440454504
v -0.022018450833833664 0.10999999999999999 0.01184009387116714
v -0.020061525748817935 0.10999999999999999 0.014917613235015682
v -0.01695641495146915 0.11 0.018370628513842243
v -0.014039828513124806 0.10999999999999999 0.020685338172774643
v -0.010811796957436701 0.10999999999999999 0.02254118556223613
v -0.0073439276167672676 0.10999999999999999 0.023897002472270095
v -0.0037131481382546338 0.10999999999999999 0.02472271285485022
v -4.020306624191592e-18 0.10999999999999999 0.025
v 0.003713148138254625 0.10999999999999999 0.02472271285485022
v 0.007343927616767267 0.10999999999999999 0.023897002472270095
v 0.010811796957436703 0.10999999999999999 0.022541185562236127
v 0.014039828513124797 0.10999999999999999 0.020685338172774643
v 0.01695641495146915 0.11 0.018370628513842243
v 0.005 0.11 0.005
v 0.003585786437626905 0.11 0.005
v -0.0035857864376269057 0.11 0.005
v -0.005 0.11 -0.005
v -0.01105417134583319 0.09999999999999998 0.026687130383906542
v -0.008381374041172285 0.1 0.02764757234920834
v -0.005630794852113613 0.1 0.028346898770408618
v -0.0028283610734564334 0.09999999999999996 0.02877437021036588
v -3.944304526105059e-33 0.09999999999999998 0.02891924723193864
v -3.944304526105059e-33 0.10999999999999999 0.02891924723193864
v -0.0028283610734564334 0.10999999999999997 0.02877437021036588
v -0.005630794852113613 0.11 0.028346898770408618
v -0.008381374041172285 0.11 0.02764757234920834
v -0.01105417134583319 0.10999999999999999 0.026687130383906542
v -0.020448995824514104 0.09999999999999998 0.020448995824514104
v -0.01834659900543679 0.09999999999999996 0.022346505594807
v -0.016062711122764698 0.1 0.024025857569564373
v -0.01362325947129708 0.1 0.02547631231164472
v -0.01362325947129708 0.11 0.02547631231164472
v -0.016062711122764698 0.11 0.024025857569564373
v -0.01834659900543679 0.10999999999999997 0.022346505594807
v -0.020448995824514104 0.10999999999999999 0.020448995824514104
v -0.02668713038390654 0.09999999999999998 0.01105417134583319
v -0.02547631231164472 0.1 0.01362325947129708
v -0.024025857569564373 0.1 0.0160627111227647
v -0.022346505594807 0.09999999999999996 0.01834659900543679
v -0.022346505594807 0.10999999999999997 0.01834659900543679
v -0.024025857569564373 0.11 0.0160627111227647
v -0.02547631231164472 0.11 0.01362325947129708
v -0.02668713038390654 0.10999999999999999 0.01105417134583319
v -0.028919247231938634 0.1 1.067699297865989e-18
v -0.02877437021036588 0.1 0.0028283610734564347
v -0.028346898770408614 0.1 0.005630794852113615
v -0.027647572349208338 0.1 0.008381374041172287
v -0.027647572349208338 0.11 0.008381374041172287
v -0.028346898770408614 0.11 0.005630794852113615
v -0.02877437021036588 0.11 0.0028283610734564347
v -0.028919247231938634 0.11 0.0
v -0.02668713038390654 0.1 -0.011054171345833193
v -0.027647572349208338 0.1 -0.008381374041172285
v -0.028346898770408614 0.1 -0.005630794852113613
v -0.02877437021036588 0.1 -0.002828361073456433
v -0.02877437021036588 0.11 -0.002828361073456433
v -0.028346898770408614 0.11 -0.005630794852113613
v -0.027647572349208338 0.11 -0.008381374041172285
v -0.02668713038390654 0.11 -0.011054171345833193
v -0.020448995824514104 0.09999999999999998 -0.020448995824514104
v -0.022346505594807 0.09999999999999996 -0.01834659900543679
v -0.024025857569564373 0.1 -0.016062711122764698
v -0.02547631231164472 0.1 -0.01362325947129708
v -0.02547631231164472 0.11 -0.01362325947129708
v -0.024025857569564373 0.11 -0.016062711122764698
v -0.022346505594807 0.10999999999999997 -0.01834659900543679
v -0.020448995824514104 0.10999999999999999 -0.020448995824514104
v -0.01105417134583319 0.09999999999999998 -0.02668713038390654
v -0.01362325947129708 0.1 -0.02547631231164472
v -0.0160627111227647 0.1 -0.024025857569564373
v -0.01834659900543679 0.09999999999999996 -0.022346505594807
v -0.01834659900543679 0.10999999999999997 -0.022346505594807
v -0.0160627111227647 0.11 -0.024025857569564373
v -0.01362325947129708 0.11 -0.02547631231164472
v -0.01105417134583319 0.10999999999999999 -0.026687130383906542
v -3.944304526105059e-33 0.09999999999999998 -0.028919247231938634
v -0.0028283610734564334 0.09999999999999996 -0.02877437021036588
v -0.005630794852113615 0.1 -0.028346898770408614
v -0.008381374041172287 0.1 -0.027647572349208335
v -0.008381374041172287 0.11 -0.027647572349208335
v -0.005630794852113615 0.11 -0.028346898770408614
v -0.0028283610734564334 0.10999999999999997 -0.02877437021036588
v -3.944304526105059e-33 0.10999999999999999 -0.02891924723193863
v 0.011054171345833193 0.09999999999999998 -0.02668713038390654
v 0.008381374041172287 0.1 -0.027647572349208335
v 0.005630794852113615 0.1 -0.028346898770408614
v 0.0028283610734564334 0.09999999999999996 -0.02877437021036588
v 0.0028283610734564334 0.10999999999999997 -0.02877437021036588
v 0.005630794852113615 0.11 -0.028346898770408614
v 0.008381374041172287 0.11 -0.027647572349208335
v 0.011054171345833193 0.10999999999999999 -0.026687130383906542
v 0.020448995824514104 0.1 -0.020448995824514104
v 0.01834659900543679 0.1 -0.022346505594807012
v 0.0160627111227647 0.1 -0.024025857569564373
v 0.013623259471297083 0.1 -0.025476312311644725
v 0.013623259471297083 0.11 -0.025476312311644725
v 0.0160627111227647 0.11 -0.024025857569564373
v 0.01834659900543679 0.11 -0.022346505594807012
v 0.020448995824514104 0.11 -0.020448995824514104
v 0.02668713038390654 0.1 -0.01105417134583319
v 0.025476312311644725 0.1 -0.013623259471297083
v 0.024025857569564373 0.1 -0.016062711122764698
v 0.022346505594807012 0.1 -0.01834659900543679
v 0.022346505594807012 0.11 -0.01834659900543679
v 0.024025857569564373 0.11 -0.016062711122764698
v 0.025476312311644725 0.11 -0.013623259471297083
v 0.02668713038390654 0.11 -0.011054171345833193
v 0.02891924723193864 0.09999999999999998 1.1102230246251881e-18
v 0.02877437021036588 0.09999999999999996 -0.0028283610734564325
v 0.028346898770408618 0.1 -0.005630794852113613
v 0.02764757234920834 0.1 -0.008381374041172285
v 0.02764757234920834 0.11 -0.008381374041172285
v 0.028346898770408618 0.11 -0.005630794852113613
v 0.02877437021036588 0.10999999999999997 -0.0028283610734564325
v 0.02891924723193864 0.10999999999999999 0.0
v 0.026687130383906542 0.09999999999999998 0.011054171345833193
v 0.02764757234920834 0.1 0.008381374041172287
v 0.028346898770408618 0.1 0.005630794852113615
v 0.02877437021036588 0.09999999999999996 0.0028283610734564347
v 0.02877437021036588 0.10999999999999997 0.0028283610734564347
v 0.028346898770408618 0.11 0.005630794852113615
v 0.02764757234920834 0.11 0.008381374041172287
v 0.026687130383906542 0.10999999999999999 0.011054171345833193
v 0.020448995824514104 0.09999999999999998 0.020448995824514104
v 0.022346505594807 0.09999999999999996 0.01834659900543679
v 0.024025857569564373 0.1 0.0160627111227647
v 0.02547631231164472 0.1 0.01362325947129708
v 0.02547631231164472 0.11 0.01362325947129708
v 0.024025857569564373 0.11 0.0160627111227647
v 0.022346505594807 0.10999999999999997 0.01834659900543679
v 0.020448995824514104 0.10999999999999999 0.020448995824514104
v 0.01105417134583319 0.09999999999999998 0.026687130383906542
v 0.01362325947129708 0.1 0.02547631231164472
v 0.016062711122764698 0.1 0.024025857569564373
v 0.01834659900543679 0.09999999999999996 0.022346505594807
v 0.01834659900543679 0.10999999999999997 0.022346505594807
v 0.016062711122764698 0.11 0.024025857569564373
v 0.01362325947129708 0.11 0.02547631231164472
v 0.01105417134583319 0.10999999999999999 0.026687130383906542
v 0.0028283610734564334 0.09999999999999996 0.02877437021036588
v 0.005630794852113613 0.1 0.028346898770408618
v 0.008381374041172285 0.1 0.02764757234920834
v 0.008381374041172285 0.11 0.02764757234920834
v 0.005630794852113613 0.11 0.028346898770408618
v 0.0028283610734564334 0.10999999999999997 0.02877437021036588

vn 4.0673664307580087e-01 0.0000000000000000e+00 -9.1354545764260064e-01
vn 4.0673664307580043e-01 0.0000000000000000e+00 -9.1354545764260076e-01
vn 1.2246467991473532e-16 0.0000000000000000e+00 -1.0000000000000000e+00
vn -1.2246467991473532e-16 0.0000000000000000e+00 -1.0000000000000000e+00
vn -4.0673664307580043e-01 0.0000000000000000e+00 -9.1354545764260076e-01
vn -4.0673664307580087e-01 0.0000000000000000e+00 -9.1354545764260064e-01
vn -7.4314482547739424e-01 0.0000000000000000e+00 -6.6913060635885824e-01
vn -7.4314482547739458e-01 0.0000000000000000e+00 -6.6913060635885790e-01
vn -9.5105651629515364e-01 0.0000000000000000e+00 -3.0901699437494734e-01
vn -9.9452189536827329e-01 0.0000000000000000e+00 1.0452846326765346e-01
vn -9.9452189536827329e-01 0.0000000000000000e+00 1.0452846326765412e-01
vn -8.6602540378443882e-01 0.0000000000000000e+00 4.9999999999999989e-01
vn -8.6602540378443849e-01 0.0000000000000000e+00 5.0000000000000033e-01
vn -5.8778525229247325e-01 0.0000000000000000e+00 8.0901699437494734e-01
vn -2.0791169081775962e-01 0.0000000000000000e+00 9.7814760073380558e-01
vn -2.0791169081775915e-01 0.0000000000000000e+00 9.7814760073380569e-01
vn 2.0791169081775915e-01 -0.0000000000000000e+00 9.7814760073380569e-01
vn 2.0791169081775962e-01 -0.0000000000000000e+00 9.7814760073380558e-01
vn 5.8778525229247325e-01 -0.0000000000000000e+00 8.0901699437494734e-01
vn 8.6602540378443849e-01 -0.0000000000000000e+00 5.0000000000000033e-01
vn 8.6602540378443882e-01 -0.0000000000000000e+00 4.9999999999999989e-01
vn 9.9452189536827329e-01 -0.0000000000000000e+00 1.0452846326765412e-01
vn 9.9452189536827329e-01 -0.0000000000000000e+00 1.0452846326765346e-01
vn 9.5105651629515364e-01 0.0000000000000000e+00 -3.0901699437494734e-01
vn 7.4314482547739458e-01 0.0000000000000000e+00 -6.6913060635885790e-01
vn 7.4314482547739424e-01 0.0000000000000000e+00 -6.6913060635885824e-01
vn -9.8828042378034864e-01 -0.0000000000000000e+00 1.5264928421887408e-01
vn -9.8828042378034864e-01 -0.0000000000000000e+00 1.5264928421887453e-01
vn -1.0000000000000000e+00 -0.0000000000000000e+00 1.2246467991473532e-16
vn -1.0000000000000000e+00 -0.0000000000000000e+00 -1.2246467991473532e-16
vn -9.8828042378034864e-01 -0.0000000000000000e+00 -1.5264928421887453e-01
vn -9.8828042378034864e-01 -0.0000000000000000e+00 -1.5264928421887408e-01
vn -9.5339639205493054e-01 -0.0000000000000000e+00 -3.0172059859519224e-01
vn -9.5339639205493054e-01 -0.0000000000000000e+00 3.0172059859519224e-01
vn -8.9616555696105593e-01 -0.0000000000000000e+00 4.4371983786695907e-01
vn -8.9616555696105549e-01 -0.0000000000000000e+00 4.4371983786696001e-01
vn -8.1792936076671774e-01 -0.0000000000000000e+00 5.7531866021862044e-01
vn -8.1792936076671763e-01 -0.0000000000000000e+00 5.7531866021862077e-01
vn -7.2052159360078694e-01 -0.0000000000000000e+00 6.9343250079224172e-01
vn -6.0622541096663840e-01 -0.0000000000000000e+00 7.9529287127342629e-01
vn -6.0622541096663773e-01 -0.0000000000000000e+00 7.9529287127342663e-01
vn -4.7771981851226308e-01 -0.0000000000000000e+00 8.7851225091094243e-01
vn -4.7771981851226258e-01 -0.0000000000000000e+00 8.7851225091094254e-01
vn -3.3801687840850347e-01 -0.0000000000000000e+00 9.4114004797956141e-01
vn -3.3801687840850259e-01 -0.0000000000000000e+00 9.4114004797956174e-01
vn -1.9039110916466873e-01 -0.0000000000000000e+00 9.8170831999685493e-01
vn -1.9039110916466834e-01 -0.0000000000000000e+00 9.8170831999685504e-01
vn -3.8302733690035375e-02 -0.0000000000000000e+00 9.9926618105081011e-01
vn -3.8302733690035153e-02 -0.0000000000000000e+00 9.9926618105081011e-01
vn 1.1468342539839985e-01 0.0000000000000000e+00 9.9340208975967514e-01
vn 1.1468342539840076e-01 0.0000000000000000e+00 9.9340208975967514e-01
vn 2.6498150219666144e-01 0.0000000000000000e+00 9.6425349545314110e-01
vn 2.6498150219666194e-01 0.0000000000000000e+00 9.6425349545314087e-01
vn 4.0906863717133918e-01 0.0000000000000000e+00 9.1250361647655032e-01
vn 4.0906863717134001e-01 0.0000000000000000e+00 9.1250361647654998e-01
vn 5.4356755000122081e-01 0.0000000000000000e+00 8.3936542613195031e-01
vn 5.4356755000122148e-01 0.0000000000000000e+00 8.3936542613194975e-01
vn 6.6532570016556525e-01 0.0000000000000000e+00 7.4655322161196269e-01
vn 6.6532570016556558e-01 0.0000000000000000e+00 7.4655322161196247e-01
vn 7.7148917982194287e-01 0.0000000000000000e+00 6.3624244232656002e-01
vn 7.7148917982194298e-01 0.0000000000000000e+00 6.3624244232655969e-01
vn 8.5956960698720108e-01 0.0000000000000000e+00 5.1101867944711066e-01
vn 8.5956960698720131e-01 0.0000000000000000e+00 5.1101867944711021e-01
vn 9.2750245110209451e-01 0.0000000000000000e+00 3.7381707184076918e-01
vn 9.2750245110209473e-01 0.0000000000000000e+00 3.7381707184076873e-01
vn 9.7369542387777896e-01 0.0000000000000000e+00 2.2785350890313816e-01
vn 9.7369542387777908e-01 0.0000000000000000e+00 2.2785350890313724e-01
vn 9.9706580118374044e-01 0.0000000000000000e+00 7.6549252836495815e-02
vn 9.9706580118374044e-01 0.0000000000000000e+00 7.6549252836495371e-02
vn 9.9706580118374044e-01 -0.0000000000000000e+00 -7.6549252836495371e-02
vn 9.9706580118374044e-01 -0.0000000000000000e+00 -7.6549252836495815e-02
vn 9.7369542387777908e-01 -0.0000000000000000e+00 -2.2785350890313724e-01
vn 9.7369542387777896e-01 -0.0000000000000000e+00 -2.2785350890313816e-01
vn 9.2750245110209473e-01 -0.0000000000000000e+00 -3.7381707184076873e-01
vn 9.2750245110209451e-01 -0.0000000000000000e+00 -3.7381707184076918e-01
vn 8.5956960698720131e-01 -0.0000000000000000e+00 -5.1101867944711021e-01
vn 8.5956960698720108e-01 -0.0000000000000000e+00 -5.1101867944711066e-01
vn 7.7148917982194298e-01 -0.0000000000000000e+00 -6.3624244232655969e-01
vn 7.7148917982194287e-01 -0.0000000000000000e+00 -6.3624244232656002e-01
vn 6.6532570016556558e-01 -0.0000000000000000e+00 -7.4655322161196247e-01
vn 6.6532570016556525e-01 -0.0000000000000000e+00 -7.4655322161196269e-01
vn 5.4356755000122148e-01 -0.0000000000000000e+00 -8.3936542613194975e-01
vn 5.4356755000122081e-01 -0.0000000000000000e+00 -8.3936542613195031e-01
vn 4.0906863717134001e-01 -0.0000000000000000e+00 -9.1250361647654998e-01
vn 4.0906863717133918e-01 -0.0000000000000000e+00 -9.1250361647655032e-01
vn 2.6498150219666194e-01 -0.0000000000000000e+00 -9.6425349545314087e-01
vn 2.6498150219666144e-01 -0.0000000000000000e+00 -9.6425349545314110e-01
vn 1.1468342539840076e-01 -0.0000000000000000e+00 -9.9340208975967514e-01
vn 1.1468342539839985e-01 -0.0000000000000000e+00 -9.9340208975967514e-01
vn -3.8302733690035153e-02 -0.0000000000000000e+00 -9.9926618105081011e-01
vn -3.8302733690035375e-02 -0.0000000000000000e+00 -9.9926618105081011e-01
vn -1.9039110916466834e-01 -0.0000000000000000e+00 -9.8170831999685504e-01
vn -1.9039110916466873e-01 -0.0000000000000000e+00 -9.8170831999685493e-01
vn -3.3801687840850259e-01 -0.0000000000000000e+00 -9.4114004797956174e-01
vn -3.3801687840850347e-01 -0.0000000000000000e+00 -9.4114004797956141e-01
vn -4.7771981851226258e-01 -0.0000000000000000e+00 -8.7851225091094254e-01
vn -4.7771981851226308e-01 -0.0000000000000000e+00 -8.7851225091094243e-01
vn -6.0622541096663773e-01 -0.0000000000000000e+00 -7.9529287127342663e-01
vn -6.0622541096663840e-01 -0.0000000000000000e+00 -7.9529287127342629e-01
vn -7.2052159360078694e-01 -0.0000000000000000e+00 -6.9343250079224172e-01
vn -8.1792936076671763e-01 -0.0000000000000000e+00 -5.7531866021862077e-01
vn -8.1792936076671774e-01 -0.0000000000000000e+00 -5.7531866021862044e-01
vn -8.9616555696105549e-01 -0.0000000000000000e+00 -4.4371983786696001e-01
vn -8.9616555696105593e-01 -0.0000000000000000e+00 -4.4371983786695907e-01
vn -0.0000000000000000e+00 -1.0000000000000000e+00 -0.0000000000000000e+00
vn 0.0000000000000000e+00 -0.0000000000000000e+00 -1.0000000000000000e+00
vn 7.0710678118654768e-01 0.0000000000000000e+00 7.0710678118654746e-01
vn 0.0000000000000000e+00 0.0000000000000000e+00 1.0000000000000000e+00
vn -7.0710678118654757e-01 -0.0000000000000000e+00 -7.0710678118654757e-01
vn 7.0710678118654757e-01 -0.0000000000000000e+00 -7.0710678118654757e-01
vn -7.0710678118654768e-01 -0.0000000000000000e+00 -7.0710678118654746e-01
vn 9.8705026263791285e-01 0.0000000000000000e+00 1.6041128085776052e-01
vn 9.9774834481818941e-01 0.0000000000000000e+00 6.7068922852267801e-02
vn 1.0000000000000000e+00 0.0000000000000000e+00 1.2246467991473532e-16
vn 1.0000000000000000e+00 0.0000000000000000e+00 -1.2246467991473532e-16
vn 9.9774834481818941e-01 0.0000000000000000e+00 6.7068922852267565e-02
vn 9.9774834481818941e-01 0.0000000000000000e+00 -6.7068922852268245e-02
vn 9.8705026263791285e-01 0.0000000000000000e+00 -1.6041128085776052e-01
vn 9.7979589711327120e-01 0.0000000000000000e+00 -2.0000000000000021e-01
vn 9.4853644194714559e-01 0.0000000000000000e+00 -3.1666799380147248e-01
vn 9.4027197143748875e-01 0.0000000000000000e+00 -3.4042417618180160e-01
vn 9.7979589711327120e-01 0.0000000000000000e+00 2.0000000000000021e-01
vn 9.4853644194714537e-01 0.0000000000000000e+00 3.1666799380147292e-01
vn 9.4027197143748875e-01 0.0000000000000000e+00 3.4042417618180160e-01
vn 8.8545602565320958e-01 0.0000000000000000e+00 4.6472317204376906e-01
vn 8.8073803335334655e-01 0.0000000000000000e+00 4.7360375484668554e-01
vn 7.9944276340350073e-01 0.0000000000000000e+00 6.0074226423797950e-01
vn 8.0246102995271740e-01 0.0000000000000000e+00 5.9670452940062724e-01
vn 7.0710678118654746e-01 0.0000000000000000e+00 7.0710678118654768e-01
vn 6.9272435350959938e-01 0.0000000000000000e+00 7.2120244734381456e-01
vn 6.9761356781872419e-01 0.0000000000000000e+00 7.1647422144500794e-01
vn 6.8799626989975105e-01 0.0000000000000000e+00 7.2571422240715999e-01
vn 6.7825659805876592e-01 0.0000000000000000e+00 7.3482514055368953e-01
vn 5.6806474673115570e-01 0.0000000000000000e+00 8.2298386589365646e-01
vn 5.6159314052499221e-01 0.0000000000000000e+00 8.2741352691098558e-01
vn 4.2869256140305384e-01 0.0000000000000000e+00 9.0345043461038244e-01
vn 4.3247187829746803e-01 0.0000000000000000e+00 9.0164742248944507e-01
vn 2.9375710467069072e-01 0.0000000000000000e+00 9.5588009889080383e-01
vn 2.7821746391645219e-01 0.0000000000000000e+00 9.6051811163137246e-01
vn 1.4852592553018534e-01 0.0000000000000000e+00 9.8890851419400860e-01
vn 1.2053668025532246e-01 0.0000000000000000e+00 9.9270887409805408e-01
vn 1.6081226496766366e-16 0.0000000000000000e+00 1.0000000000000000e+00
vn -4.0265940109415019e-02 0.0000000000000000e+00 9.9918899817156970e-01
vn -1.4852592553018501e-01 0.0000000000000000e+00 9.8890851419400871e-01
vn -2.0002569377604446e-01 0.0000000000000000e+00 9.7979065204226767e-01
vn -2.9375710467069038e-01 0.0000000000000000e+00 9.5588009889080394e-01
vn -3.5460488704253579e-01 0.0000000000000000e+00 9.3501624268541472e-01
vn -4.3247187829746792e-01 0.0000000000000000e+00 9.0164742248944518e-01
vn -5.0000000000000033e-01 0.0000000000000000e+00 8.6602540378443849e-01
vn -5.6159314052499187e-01 0.0000000000000000e+00 8.2741352691098580e-01
vn -6.3244537559537761e-01 0.0000000000000000e+00 7.7460496182765426e-01
vn -6.7825659805876570e-01 0.0000000000000000e+00 7.3482514055368986e-01
vn -6.8799626989975105e-01 0.0000000000000000e+00 7.2571422240715999e-01
vn -7.4851074817110119e-01 0.0000000000000000e+00 6.6312265824079508e-01
vn -6.9761356781872408e-01 0.0000000000000000e+00 7.1647422144500805e-01
vn -7.0710678118654746e-01 0.0000000000000000e+00 7.0710678118654768e-01
vn -8.0246102995271740e-01 0.0000000000000000e+00 5.9670452940062713e-01
vn -8.4519008554379493e-01 0.0000000000000000e+00 5.3446582612780080e-01
vn -8.8073803335334655e-01 0.0000000000000000e+00 4.7360375484668543e-01
vn -9.1997944365882423e-01 0.0000000000000000e+00 3.9196660986007503e-01
vn -9.4027197143748875e-01 0.0000000000000000e+00 3.4042417618180165e-01
vn -9.7094181742605212e-01 0.0000000000000000e+00 2.3931566428755757e-01
vn -9.7979589711327120e-01 0.0000000000000000e+00 2.0000000000000001e-01
vn -9.9675730813420993e-01 0.0000000000000000e+00 8.0466568716725501e-02
vn -9.9774834481818941e-01 0.0000000000000000e+00 6.7068922852268245e-02
vn -9.9774834481818941e-01 -0.0000000000000000e+00 -6.7068922852268245e-02
vn -9.9675730813420993e-01 -0.0000000000000000e+00 -8.0466568716725986e-02
vn -9.7979589711327120e-01 -0.0000000000000000e+00 -2.0000000000000001e-01
vn -9.7094181742605201e-01 -0.0000000000000000e+00 -2.3931566428755796e-01
vn -9.4027197143748875e-01 -0.0000000000000000e+00 -3.4042417618180165e-01
vn -9.1997944365882423e-01 -0.0000000000000000e+00 -3.9196660986007503e-01
vn -8.8073803335334655e-01 -0.0000000000000000e+00 -4.7360375484668538e-01
vn -8.4519008554379471e-01 -0.0000000000000000e+00 -5.3446582612780125e-01
vn -8.0246102995271740e-01 -0.0000000000000000e+00 -5.9670452940062713e-01
vn -7.4851074817110097e-01 -0.0000000000000000e+00 -6.6312265824079542e-01
vn -6.9761356781872408e-01 -0.0000000000000000e+00 -7.1647422144500805e-01
vn -6.8799626989975105e-01 -0.0000000000000000e+00 -7.2571422240715988e-01
vn -6.3244537559537728e-01 -0.0000000000000000e+00 -7.7460496182765448e-01
vn -6.7825659805876581e-01 -0.0000000000000000e+00 -7.3482514055368964e-01
vn -5.6159314052499187e-01 -0.0000000000000000e+00 -8.2741352691098580e-01
vn -4.9999999999999994e-01 -0.0000000000000000e+00 -8.6602540378443882e-01
vn -4.3247187829746814e-01 -0.0000000000000000e+00 -9.0164742248944507e-01
vn -3.5460488704253562e-01 -0.0000000000000000e+00 -9.3501624268541494e-01
vn -2.9375710467069066e-01 -0.0000000000000000e+00 -9.5588009889080383e-01
vn -2.0002569377604446e-01 -0.0000000000000000e+00 -9.7979065204226767e-01
vn -1.4852592553018501e-01 -0.0000000000000000e+00 -9.8890851419400871e-01
vn -4.0265940109415019e-02 -0.0000000000000000e+00 -9.9918899817156970e-01
vn 1.6081226496766366e-16 0.0000000000000000e+00 -1.0000000000000000e+00
vn 1.2053668025532312e-01 0.0000000000000000e+00 -9.9270887409805408e-01
vn 1.4852592553018534e-01 0.0000000000000000e+00 -9.8890851419400860e-01
vn 2.7821746391645263e-01 0.0000000000000000e+00 -9.6051811163137235e-01
vn 2.9375710467069072e-01 0.0000000000000000e+00 -9.5588009889080383e-01
vn 4.2869256140305384e-01 0.0000000000000000e+00 -9.0345043461038244e-01
vn 4.3247187829746803e-01 0.0000000000000000e+00 -9.0164742248944507e-01
vn 5.6159314052499221e-01 0.0000000000000000e+00 -8.2741352691098558e-01
vn 5.6806474673115570e-01 0.0000000000000000e+00 -8.2298386589365646e-01
vn 6.7825659805876592e-01 0.0000000000000000e+00 -7.3482514055368953e-01
vn 6.9272435350959938e-01 0.0000000000000000e+00 -7.2120244734381456e-01
vn 6.8799626989975105e-01 0.0000000000000000e+00 -7.2571422240715999e-01
vn 6.9761356781872419e-01 0.0000000000000000e+00 -7.1647422144500794e-01
vn 7.0710678118654746e-01 0.0000000000000000e+00 -7.0710678118654768e-01
vn 7.9944276340350129e-01 0.0000000000000000e+00 -6.0074226423797883e-01
vn 8.0246102995271740e-01 0.0000000000000000e+00 -5.9670452940062724e-01
vn 8.8073803335334655e-01 0.0000000000000000e+00 -4.7360375484668554e-01
vn 8.8545602565320980e-01 0.0000000000000000e+00 -4.6472317204376873e-01
vn -7.0710678118654757e-01 -0.0000000000000000e+00 7.0710678118654757e-01
vn 7.0710678118654757e-01 0.0000000000000000e+00 7.0710678118654757e-01
vn -3.8268343236507840e-01 0.0000000000000000e+00 9.2387953251129151e-01
vn -2.9279237107712475e-01 0.0000000000000000e+00 9.5617604416709545e-01
vn -1.9917269347576252e-01 0.0000000000000000e+00 9.7996440658506057e-01
vn -1.0159670213632001e-01 0.0000000000000000e+00 9.9482566820273788e-01
vn -7.0710678118655224e-01 0.0000000000000000e+00 7.0710678118654280e-01
vn -6.3160825905781037e-01 0.0000000000000000e+00 7.7528769311137768e-01
vn -5.5210311503384546e-01 0.0000000000000000e+00 8.3377583940164890e-01
vn -4.6908309377037027e-01 0.0000000000000000e+00 8.8315403590699748e-01
vn -3.8268343236506241e-01 0.0000000000000000e+00 9.2387953251129817e-01
vn -9.2387953251129673e-01 0.0000000000000000e+00 3.8268343236506569e-01
vn -8.8315403590700203e-01 0.0000000000000000e+00 4.6908309377036167e-01
vn -8.3377583940164890e-01 0.0000000000000000e+00 5.5210311503384546e-01
vn -7.7528769311137380e-01 0.0000000000000000e+00 6.3160825905781526e-01
vn -7.0710678118654280e-01 0.0000000000000000e+00 7.0710678118655224e-01
vn -1.0000000000000000e+00 0.0000000000000000e+00 0.0000000000000000e+00
vn -9.9482566820273832e-01 0.0000000000000000e+00 1.0159670213631540e-01
vn -9.7996440658505979e-01 0.0000000000000000e+00 1.9917269347576697e-01
vn -9.5617604416709834e-01 0.0000000000000000e+00 2.9279237107711553e-01
vn -9.2387953251128474e-01 0.0000000000000000e+00 3.8268343236509433e-01
vn -9.2387953251128474e-01 0.0000000000000000e+00 -3.8268343236509433e-01
vn -9.5617604416709800e-01 0.0000000000000000e+00 -2.9279237107711614e-01
vn -9.7996440658506057e-01 0.0000000000000000e+00 -1.9917269347576252e-01
vn -9.9482566820273788e-01 0.0000000000000000e+00 -1.0159670213631999e-01
vn -7.0710678118654280e-01 0.0000000000000000e+00 -7.0710678118655224e-01
vn -7.7528769311137768e-01 0.0000000000000000e+00 -6.3160825905781037e-01
vn -8.3377583940164890e-01 0.0000000000000000e+00 -5.5210311503384546e-01
vn -8.8315403590699748e-01 0.0000000000000000e+00 -4.6908309377037027e-01
vn -9.2387953251129817e-01 0.0000000000000000e+00 -3.8268343236506241e-01
vn -3.8268343236506569e-01 0.0000000000000000e+00 -9.2387953251129673e-01
vn -4.6908309377036167e-01 0.0000000000000000e+00 -8.8315403590700203e-01
vn -5.5210311503384546e-01 0.0000000000000000e+00 -8.3377583940164890e-01
vn -6.3160825905781526e-01 0.0000000000000000e+00 -7.7528769311137380e-01
vn -7.0710678118655224e-01 0.0000000000000000e+00 -7.0710678118654280e-01
vn -1.0159670213631881e-01 0.0000000000000000e+00 -9.9482566820273788e-01
vn -1.9917269347576683e-01 0.0000000000000000e+00 -9.7996440658505979e-01
vn -2.9279237107711231e-01 0.0000000000000000e+00 -9.5617604416709934e-01
vn -3.8268343236509439e-01 0.0000000000000000e+00 -9.2387953251128474e-01
vn 3.8268343236509439e-01 0.0000000000000000e+00 -9.2387953251128474e-01
vn 2.9279237107711614e-01 0.0000000000000000e+00 -9.5617604416709800e-01
vn 1.9917269347576252e-01 0.0000000000000000e+00 -9.7996440658506057e-01
vn 1.0159670213631994e-01 0.0000000000000000e+00 -9.9482566820273788e-01
vn 7.0710678118654879e-01 0.0000000000000000e+00 -7.0710678118654646e-01
vn 6.3160825905781426e-01 0.0000000000000000e+00 -7.7528769311137469e-01
vn 5.5210311503384235e-01 0.0000000000000000e+00 -8.3377583940165112e-01
vn 4.6908309377036622e-01 0.0000000000000000e+00 -8.8315403590699948e-01
vn 3.8268343236506569e-01 0.0000000000000000e+00 -9.2387953251129673e-01
vn 9.2387953251129806e-01 0.0000000000000000e+00 -3.8268343236506236e-01
vn 8.8315403590700092e-01 0.0000000000000000e+00 -4.6908309377036356e-01
vn 8.3377583940164957e-01 0.0000000000000000e+00 -5.5210311503384446e-01
vn 7.7528769311137691e-01 0.0000000000000000e+00 -6.3160825905781137e-01
vn 7.0710678118654646e-01 0.0000000000000000e+00 -7.0710678118654879e-01
vn 1.0000000000000000e+00 -0.0000000000000000e+00 0.0000000000000000e+00
vn 9.9482566820273788e-01 0.0000000000000000e+00 -1.0159670213631881e-01
vn 9.7996440658506057e-01 0.0000000000000000e+00 -1.9917269347576252e-01
vn 9.5617604416709945e-01 0.0000000000000000e+00 -2.9279237107711192e-01
vn 9.2387953251129284e-01 0.0000000000000000e+00 -3.8268343236507513e-01
vn 9.2387953251129284e-01 -0.0000000000000000e+00 3.8268343236507513e-01
vn 9.5617604416709545e-01 -0.0000000000000000e+00 2.9279237107712475e-01
vn 9.7996440658506057e-01 -0.0000000000000000e+00 1.9917269347576252e-01
vn 9.9482566820273788e-01 -0.0000000000000000e+00 1.0159670213632001e-01
vn 7.0710678118654280e-01 -0.0000000000000000e+00 7.0710678118655224e-01
vn 7.7528769311137768e-01 -0.0000000000000000e+00 6.3160825905781037e-01
vn 8.3377583940164890e-01 -0.0000000000000000e+00 5.5210311503384546e-01
vn 8.8315403590699793e-01 -0.0000000000000000e+00 4.6908309377036927e-01
vn 9.2387953251129673e-01 -0.0000000000000000e+00 3.8268343236506569e-01
vn 3.8268343236506241e-01 -0.0000000000000000e+00 9.2387953251129817e-01
vn 4.6908309377036356e-01 -0.0000000000000000e+00 8.8315403590700092e-01
vn 5.5210311503384446e-01 -0.0000000000000000e+00 8.3377583940164957e-01
vn 6.3160825905781415e-01 -0.0000000000000000e+00 7.7528769311137480e-01
vn 7.0710678118655224e-01 -0.0000000000000000e+00 7.0710678118654280e-01
vn 1.0159670213631877e-01 -0.0000000000000000e+00 9.9482566820273788e-01
vn 1.9917269347576241e-01 -0.0000000000000000e+00 9.7996440658506057e-01
vn 2.9279237107711192e-01 -0.0000000000000000e+00 9.5617604416709945e-01
vn 3.8268343236507840e-01 -0.0000000000000000e+00 9.2387953251129151e-01
vn 0.0000000000000000e+00 1.0000000000000000e+00 0.0000000000000000e+00

g face 0
f 2//1 30//2 1//3
f 1//3 30//2 16//3
f 1//4 16//4 15//5
f 15//5 16//4 17//6
f 15//5 17//6 14//7
f 14//7 17//6 18//8
f 14//7 18//8 13//9
f 13//9 18//8 19//9
f 13//9 19//9 12//10
f 12//10 19//9 20//11
f 12//10 20//11 11//12
f 11//12 20//11 21//13
f 11//12 21//13 10//14
f 10//14 21//13 22//14
f 10//14 22//14 9//15
f 9//15 22//14 23//16
f 9//15 23//16 8//17
f 8//17 23//16 24//18
f 8//17 24//18 7//19
f 7//19 24//18 25//19
f 7//19 25//19 6//20
f 6//20 25//19 26//21
f 6//20 26//21 5//22
f 5//22 26//21 27//23
f 5//22 27//23 4//24
f 4//24 27//23 28//24
f 4//24 28//24 3//25
f 3//25 28//24 29//26
f 3//25 29//26 2//1
f 2//1 29//26 30//2

g face 1
f 32//27 112//28 31//29
f 31//29 112//28 72//29
f 31//30 72//30 71//31
f 71//31 72//30 73//32
f 71//31 73//32 74//33
f 32//27 33//34 112//28
f 112//28 33//34 111//34
f 111//34 33//34 34//35
f 111//34 34//35 110//36
f 110//36 34//35 35//37
f 110//36 35//37 109//38
f 109//38 35//37 36//39
f 109//38 36//39 108//39
f 108//39 36//39 37//40
f 108//39 37//40 107//41
f 107//41 37//40 38//42
f 107//41 38//42 106//43
f 106//43 38//42 39//44
f 106//43 39//44 105//45
f 105//45 39//44 40//46
f 105//45 40//46 104//47
f 104//47 40//46 41//48
f 104//47 41//48 103//49
f 103//49 41//48 42//50
f 103//49 42//50 102//51
f 102//51 42//50 43//52
f 102//51 43//52 101//53
f 101//53 43//52 44//54
f 101//53 44//54 100//55
f 100//55 44//54 45//56
f 100//55 45//56 99//57
f 99//57 45//56 46//58
f 99//57 46//58 98//59
f 98//59 46//58 47//60
f 98//59 47//60 97//61
f 97//61 47//60 48//62
f 97//61 48//62 96//63
f 96//63 48//62 49//64
f 96//63 49//64 95//65
f 95//65 49//64 50//66
f 95//65 50//66 94//67
f 94//67 50//66 51//68
f 94//67 51//68 93//69
f 93//69 51//68 52//70
f 93//69 52//70 92//71
f 92//71 52//70 53//72
f 92//71 53//72 91//73
f 91//73 53//72 54//74
f 91//73 54//74 90//75
f 90//75 54//74 55//76
f 90//75 55//76 89//77
f 89//77 55//76 56//78
f 89//77 56//78 88//79
f 88//79 56//78 57//80
f 88//79 57//80 87//81
f 87//81 57//80 58//82
f 87//81 58//82 86//83
f 86//83 58//82 59//84
f 86//83 59//84 85//85
f 85//85 59//84 60//86
f 85//85 60//86 84//87
f 84//87 60//86 61//88
f 84//87 61//88 83//89
f 83//89 61//88 62//90
f 83//89 62//90 82//91
f 82//91 62//90 63//92
f 82//91 63//92 81//93
f 81//93 63//92 64//94
f 81//93 64//94 80//95
f 80//95 64//94 65//96
f 80//95 65//96 79//97
f 79//97 65//96 66//98
f 79//97 66//98 78//99
f 78//99 66//98 67//100
f 78//99 67//100 77//100
f 77//100 67//100 68//101
f 77//100 68//101 76//102
f 76//102 68//101 69//103
f 76//102 69//103 75//104
f 75//104 69//103 70//33
f 75//104 70//33 74//33
f 74//33 70//33 71//31

g face 2
f 114//105 32//105 113//105
f 113//105 32//105 31//105
f 113//105 31//105 71//105
f 32//105 114//105 33//105
f 33//105 114//105 115//105
f 33//105 115//105 34//105
f 34//105 115//105 116//105
f 34//105 116//105 35//105
f 35//105 116//105 117//105
f 35//105 117//105 36//105
f 36//105 117//105 118//105
f 36//105 118//105 37//105
f 37//105 118//105 119//105
f 37//105 119//105 38//105
f 38//105 119//105 120//105
f 38//105 120//105 39//105
f 39//105 120//105 121//105
f 39//105 121//105 40//105
f 40//105 121//105 122//105
f 40//105 122//105 41//105
f 41//105 122//105 123//105
f 41//105 123//105 42//105
f 42//105 123//105 124//105
f 42//105 124//105 43//105
f 43//105 124//105 125//105
f 43//105 125//105 44//105
f 44//105 125//105 126//105
f 44//105 126//105 45//105
f 45//105 126//105 127//105
f 45//105 127//105 46//105
f 46//105 127//105 128//105
f 46//105 128//105 47//105
f 47//105 128//105 129//105
f 47//105 129//105 48//105
f 48//105 129//105 130//105
f 48//105 130//105 49//105
f 49//105 130//105 131//105
f 49//105 131//105 50//105
f 50//105 131//105 132//105
f 50//105 132//105 51//105
f 51//105 132//105 133//105
f 51//105 133//105 52//105
f 52//105 133//105 53//105
f 53//105 133//105 134//105
f 53//105 134//105 54//105
f 54//105 134//105 135//105
f 54//105 135//105 55//105
f 55//105 135//105 136//105
f 55//105 136//105 56//105
f 56//105 136//105 137//105
f 56//105 137//105 57//105
f 57//105 137//105 138//105
f 57//105 138//105 58//105
f 58//105 138//105 139//105
f 58//105 139//105 59//105
f 59//105 139//105 140//105
f 59//105 140//105 60//105
f 60//105 140//105 141//105
f 60//105 141//105 61//105
f 61//105 141//105 142//105
f 61//105 142//105 62//105
f 62//105 142//105 143//105
f 62//105 143//105 63//105
f 63//105 143//105 144//105
f 63//105 144//105 64//105
f 64//105 144//105 145//105
f 64//105 145//105 65//105
f 65//105 145//105 146//105
f 65//105 146//105 66//105
f 66//105 146//105 147//105
f 66//105 147//105 67//105
f 67//105 147//105 148//105
f 67//105 148//105 68//105
f 68//105 148//105 149//105
f 68//105 149//105 69//105
f 69//105 149//105 150//105
f 69//105 150//105 70//105
f 70//105 150//105 151//105
f 70//105 151//105 71//105
f 71//105 151//105 113//105

g face 3
f 15//105 156//105 1//105
f 1//105 156//105 157//105
f 1//105 157//105 2//105
f 2//105 157//105 3//105
f 3//105 157//105 162//105
f 3//105 162//105 4//105
f 4//105 162//105 164//105
f 4//105 164//105 5//105
f 5//105 164//105 165//105
f 5//105 165//105 167//105
f 167//105 165//105 166//105
f 15//105 14//105 156//105
f 156//105 14//105 183//105
f 156//105 183//105 155//105
f 155//105 183//105 154//105
f 154//105 183//105 153//105
f 153//105 183//105 152//105
f 14//105 13//105 183//105
f 183//105 13//105 181//105
f 183//105 181//105 182//105
f 13//105 12//105 181//105
f 181//105 12//105 180//105
f 180//105 12//105 178//105
f 180//105 178//105 179//105
f 12//105 11//105 178//105
f 178//105 11//105 173//105
f 178//105 173//105 174//105
f 11//105 10//105 173//105
f 173//105 10//105 9//105
f 173//105 9//105 8//105
f 173//105 8//105 172//105
f 172//105 8//105 7//105
f 172//105 7//105 6//105
f 172//105 6//105 167//105
f 167//105 6//105 5//105
f 157//105 158//105 162//105
f 162//105 158//105 159//105
f 162//105 159//105 160//105
f 160//105 161//105 162//105
f 162//105 163//105 164//105
f 168//105 169//105 167//105
f 167//105 169//105 170//105
f 167//105 170//105 171//105
f 171//105 172//105 167//105
f 174//105 175//105 178//105
f 178//105 175//105 176//105
f 178//105 176//105 177//105

g face 4
f 179//106 178//106 185//106
f 185//106 178//106 184//106

g face 5
f 178//107 177//107 184//107
f 184//107 177//107 186//107

g face 6
f 163//108 162//108 188//108
f 188//108 162//108 187//108

g face 7
f 162//109 161//109 187//109
f 187//109 161//109 189//109

g face 8
f 172//110 171//110 191//110
f 191//110 171//110 190//110

g face 9
f 173//106 172//106 192//106
f 192//106 172//106 191//106

g face 10
f 174//111 173//111 193//111
f 193//111 173//111 192//111

g face 11
f 151//112 165//113 113//114
f 113//115 165//116 164//117
f 113//115 164//117 114//118
f 114//118 164//117 163//119
f 114//118 163//119 115//120
f 115//120 163//119 188//119
f 115//120 188//119 216//121
f 165//113 151//112 166//122
f 166//122 151//112 150//123
f 166//122 150//123 215//122
f 215//122 150//123 214//124
f 214//124 150//123 149//125
f 214//124 149//125 213//126
f 213//126 149//125 148//127
f 213//126 148//127 212//128
f 212//128 148//127 211//129
f 211//129 148//127 168//129
f 168//129 148//127 147//130
f 168//129 147//130 169//131
f 169//131 147//130 170//132
f 170//132 147//130 171//133
f 171//133 147//130 146//134
f 171//133 146//134 190//133
f 190//133 146//134 210//135
f 210//135 146//134 145//136
f 210//135 145//136 209//137
f 209//137 145//136 208//138
f 208//138 145//136 144//139
f 208//138 144//139 207//140
f 207//140 144//139 143//141
f 207//140 143//141 206//142
f 206//142 143//141 142//143
f 206//142 142//143 205//144
f 205//144 142//143 141//145
f 205//144 141//145 204//146
f 204//146 141//145 140//147
f 204//146 140//147 203//148
f 203//148 140//147 139//149
f 203//148 139//149 202//150
f 202//150 139//149 138//151
f 202//150 138//151 193//152
f 193//152 138//151 174//152
f 174//152 138//151 175//153
f 175//153 138//151 137//154
f 175//153 137//154 176//155
f 176//155 137//154 177//156
f 177//156 137//154 186//156
f 186//156 137//154 201//157
f 201//157 137//154 136//158
f 201//157 136//158 200//159
f 200//159 136//158 135//160
f 200//159 135//160 199//161
f 199//161 135//160 134//162
f 199//161 134//162 185//163
f 185//163 134//162 179//163
f 179//163 134//162 133//164
f 179//163 133//164 180//165
f 180//165 133//164 181//166
f 181//166 133//164 132//167
f 181//166 132//167 182//168
f 182//168 132//167 131//169
f 182//168 131//169 198//168
f 198//168 131//169 197//170
f 197//170 131//169 130//171
f 197//170 130//171 196//172
f 196//172 130//171 129//173
f 196//172 129//173 195//174
f 195//174 129//173 128//175
f 195//174 128//175 194//109
f 194//109 128//175 152//109
f 152//109 128//175 153//176
f 153//176 128//175 154//177
f 154//177 128//175 127//178
f 154//177 127//178 155//179
f 155//179 127//178 229//179
f 229//179 127//178 228//180
f 228//180 127//178 126//181
f 228//180 126//181 227//182
f 227//182 126//181 125//183
f 227//182 125//183 226//184
f 226//184 125//183 124//185
f 226//184 124//185 225//186
f 225//186 124//185 123//187
f 225//186 123//187 224//188
f 224//188 123//187 122//189
f 224//188 122//189 223//190
f 223//190 122//189 121//191
f 223//190 121//191 222//192
f 222//192 121//191 120//193
f 222//192 120//193 221//194
f 221//194 120//193 220//195
f 220//195 120//193 119//196
f 220//195 119//196 219//197
f 219//197 119//196 158//197
f 158//197 119//196 118//198
f 158//197 118//198 159//199
f 159//199 118//198 160//200
f 160//200 118//198 161//201
f 161//201 118//198 117//202
f 161//201 117//202 189//201
f 189//201 117//202 218//203
f 218//203 117//202 217//204
f 217//204 117//202 116//205
f 217//204 116//205 216//121
f 216//121 116//205 115//120

g face 12
f 183//108 182//108 230//108
f 230//108 182//108 198//108

g face 13
f 152//110 183//110 194//110
f 194//110 183//110 230//110

g face 14
f 156//206 155//206 231//206
f 231//206 155//206 229//206

g face 15
f 157//108 156//108 232//108
f 232//108 156//108 231//108

g face 16
f 158//207 157//207 219//207
f 219//207 157//207 232//207

g face 17
f 167//106 166//106 233//106
f 233//106 166//106 215//106

g face 18
f 168//206 167//206 211//206
f 211//206 167//206 233//206

g face 19
f 234//208 235//209 243//208
f 243//208 235//209 242//209
f 242//209 235//209 236//210
f 242//209 236//210 241//210
f 241//210 236//210 237//211
f 241//210 237//211 240//211
f 240//211 237//211 238//108
f 240//211 238//108 239//108

g face 20
f 244//212 245//213 251//212
f 251//212 245//213 250//213
f 250//213 245//213 246//214
f 250//213 246//214 249//214
f 249//214 246//214 247//215
f 249//214 247//215 248//215
f 248//215 247//215 234//216
f 248//215 234//216 243//216

g face 21
f 252//217 253//218 259//217
f 259//217 253//218 258//218
f 258//218 253//218 254//219
f 258//218 254//219 257//219
f 257//219 254//219 255//220
f 257//219 255//220 256//220
f 256//220 255//220 244//221
f 256//220 244//221 251//221

g face 22
f 260//222 261//223 267//222
f 267//222 261//223 266//223
f 266//223 261//223 262//224
f 266//223 262//224 265//224
f 265//224 262//224 263//225
f 265//224 263//225 264//225
f 264//225 263//225 252//226
f 264//225 252//226 259//226

g face 23
f 268//227 269//228 275//227
f 275//227 269//228 274//228
f 274//228 269//228 270//229
f 274//228 270//229 273//229
f 273//229 270//229 271//230
f 273//229 271//230 272//230
f 272//230 271//230 260//222
f 272//230 260//222 267//222

g face 24
f 276//231 277//232 283//231
f 283//231 277//232 282//232
f 282//232 277//232 278//233
f 282//232 278//233 281//233
f 281//233 278//233 279//234
f 281//233 279//234 280//234
f 280//234 279//234 268//235
f 280//234 268//235 275//235

g face 25
f 284//236 285//237 291//236
f 291//236 285//237 290//237
f 290//237 285//237 286//238
f 290//237 286//238 289//238
f 289//238 286//238 287//239
f 289//238 287//239 288//239
f 288//239 287//239 276//240
f 288//239 276//240 283//240

g face 26
f 292//106 293//241 299//106
f 299//106 293//241 298//241
f 298//241 293//241 294//242
f 298//241 294//242 297//242
f 297//242 294//242 295//243
f 297//242 295//243 296//243
f 296//243 295//243 284//244
f 296//243 284//244 291//244

g face 27
f 300//245 301//246 307//245
f 307//245 301//246 306//246
f 306//246 301//246 302//247
f 306//246 302//247 305//247
f 305//247 302//247 303//248
f 305//247 303//248 304//248
f 304//248 303//248 292//106
f 304//248 292//106 299//106

g face 28
f 308//249 309//250 315//249
f 315//249 309//250 314//250
f 314//250 309//250 310//251
f 314//250 310//251 313//251
f 313//251 310//251 311//252
f 313//251 311//252 312//252
f 312//252 311//252 300//253
f 312//252 300//253 307//253

g face 29
f 316//254 317//255 323//254
f 323//254 317//255 322//255
f 322//255 317//255 318//256
f 322//255 318//256 321//256
f 321//256 318//256 319//257
f 321//256 319//257 320//257
f 320//257 319//257 308//258
f 320//257 308//258 315//258

g face 30
f 324//259 325//260 331//259
f 331//259 325//260 330//260
f 330//260 325//260 326//261
f 330//260 326//261 329//261
f 329//261 326//261 327//262
f 329//261 327//262 328//262
f 328//262 327//262 316//263
f 328//262 316//263 323//263

g face 31
f 332//264 333//265 339//264
f 339//264 333//265 338//265
f 338//265 333//265 334//266
f 338//265 334//266 337//266
f 337//266 334//266 335//267
f 337//266 335//267 336//267
f 336//267 335//267 324//259
f 336//267 324//259 331//259

g face 32
f 340//268 341//269 347//268
f 347//268 341//269 346//269
f 346//269 341//269 342//270
f 346//269 342//270 345//270
f 345//270 342//270 343//271
f 345//270 343//271 344//271
f 344//271 343//271 332//272
f 344//271 332//272 339//272

g face 33
f 348//273 349//274 355//273
f 355//273 349//274 354//274
f 354//274 349//274 350//275
f 354//274 350//275 353//275
f 353//275 350//275 351//276
f 353//275 351//276 352//276
f 352//276 351//276 340//277
f 352//276 340//277 347//277

g face 34
f 238//108 356//278 239//108
f 239//108 356//278 361//278
f 361//278 356//278 357//279
f 361//278 357//279 360//279
f 360//279 357//279 358//280
f 360//279 358//280 359//280
f 359//280 358//280 348//281
f 359//280 348//281 355//281

g face 35
f 30//282 232//282 16//282
f 16//282 232//282 231//282
f 16//282 231//282 17//282
f 17//282 231//282 18//282
f 18//282 231//282 230//282
f 18//282 230//282 19//282
f 19//282 230//282 20//282
f 20//282 230//282 198//282
f 20//282 198//282 184//282
f 184//282 198//282 185//282
f 185//282 198//282 331//282
f 185//282 331//282 330//282
f 30//282 29//282 232//282
f 232//282 29//282 187//282
f 232//282 187//282 219//282
f 219//282 187//282 189//282
f 219//282 189//282 251//282
f 251//282 189//282 256//282
f 256//282 189//282 218//282
f 256//282 218//282 257//282
f 257//282 218//282 217//282
f 257//282 217//282 258//282
f 258//282 217//282 259//282
f 259//282 217//282 216//282
f 259//282 216//282 264//282
f 264//282 216//282 188//282
f 264//282 188//282 265//282
f 265//282 188//282 266//282
f 266//282 188//282 267//282
f 267//282 188//282 215//282
f 267//282 215//282 272//282
f 272//282 215//282 273//282
f 273//282 215//282 274//282
f 274//282 215//282 214//282
f 274//282 214//282 275//282
f 275//282 214//282 213//282
f 275//282 213//282 280//282
f 280//282 213//282 281//282
f 281//282 213//282 212//282
f 281//282 212//282 282//282
f 282//282 212//282 211//282
f 282//282 211//282 283//282
f 283//282 211//282 190//282
f 283//282 190//282 288//282
f 288//282 190//282 210//282
f 288//282 210//282 289//282
f 289//282 210//282 290//282
f 290//282 210//282 209//282
f 290//282 209//282 291//282
f 291//282 209//282 208//282
f 291//282 208//282 296//282
f 296//282 208//282 297//282
f 297//282 208//282 207//282
f 297//282 207//282 298//282
f 298//282 207//282 206//282
f 298//282 206//282 299//282
f 299//282 206//282 304//282
f 304//282 206//282 205//282
f 304//282 205//282 305//282
f 305//282 205//282 204//282
f 305//282 204//282 306//282
f 306//282 204//282 307//282
f 307//282 204//282 203//282
f 307//282 203//282 312//282
f 312//282 203//282 202//282
f 312//282 202//282 313//282
f 313//282 202//282 314//282
f 314//282 202//282 193//282
f 314//282 193//282 315//282
f 315//282 193//282 186//282
f 315//282 186//282 320//282
f 320//282 186//282 201//282
f 320//282 201//282 321//282
f 321//282 201//282 200//282
f 321//282 200//282 322//282
f 322//282 200//282 323//282
f 323//282 200//282 199//282
f 323//282 199//282 328//282
f 328//282 199//282 185//282
f 328//282 185//282 329//282
f 329//282 185//282 330//282
f 29//282 28//282 187//282
f 187//282 28//282 27//282
f 187//282 27//282 215//282
f 215//282 27//282 233//282
f 233//282 27//282 26//282
f 233//282 26//282 191//282
f 191//282 26//282 25//282
f 191//282 25//282 24//282
f 24//282 23//282 191//282
f 191//282 23//282 192//282
f 192//282 23//282 22//282
f 192//282 22//282 21//282
f 192//282 21//282 184//282
f 184//282 21//282 20//282
f 230//282 229//282 194//282
f 194//282 229//282 347//282
f 194//282 347//282 346//282
f 197//282 338//282 198//282
f 198//282 338//282 337//282
f 198//282 337//282 336//282
f 338//282 197//282 339//282
f 339//282 197//282 196//282
f 339//282 196//282 344//282
f 344//282 196//282 345//282
f 345//282 196//282 195//282
f 345//282 195//282 346//282
f 346//282 195//282 194//282
f 192//282 184//282 193//282
f 193//282 184//282 186//282
f 347//282 229//282 352//282
f 352//282 229//282 228//282
f 352//282 228//282 353//282
f 353//282 228//282 354//282
f 354//282 228//282 227//282
f 354//282 227//282 355//282
f 355//282 227//282 226//282
f 355//282 226//282 359//282
f 359//282 226//282 360//282
f 360//282 226//282 225//282
f 360//282 225//282 361//282
f 361//282 225//282 224//282
f 361//282 224//282 239//282
f 239//282 224//282 240//282
f 240//282 224//282 223//282
f 240//282 223//282 241//282
f 241//282 223//282 222//282
f 241//282 222//282 242//282
f 242//282 222//282 243//282
f 243//282 222//282 221//282
f 243//282 221//282 248//282
f 248//282 221//282 220//282
f 248//282 220//282 249//282
f 249//282 220//282 250//282
f 250//282 220//282 219//282
f 250//282 219//282 251//282
f 231//282 229//282 230//282
f 191//282 190//282 233//282
f 233//282 190//282 211//282
f 188//282 187//282 215//282
f 336//282 331//282 198//282

g face 36
f 112//105 261//105 72//105
f 72//105 261//105 260//105
f 72//105 260//105 271//105
f 261//105 112//105 262//105
f 262//105 112//105 111//105
f 262//105 111//105 263//105
f 263//105 111//105 252//105
f 252//105 111//105 110//105
f 252//105 110//105 253//105
f 253//105 110//105 109//105
f 253//105 109//105 254//105
f 254//105 109//105 255//105
f 255//105 109//105 108//105
f 255//105 108//105 244//105
f 244//105 108//105 245//105
f 245//105 108//105 107//105
f 245//105 107//105 246//105
f 246//105 107//105 106//105
f 246//105 106//105 247//105
f 247//105 106//105 234//105
f 234//105 106//105 105//105
f 234//105 105//105 235//105
f 235//105 105//105 104//105
f 235//105 104//105 236//105
f 236//105 104//105 237//105
f 237//105 104//105 103//105
f 237//105 103//105 238//105
f 238//105 103//105 102//105
f 238//105 102//105 356//105
f 356//105 102//105 357//105
f 357//105 102//105 101//105
f 357//105 101//105 358//105
f 358//105 101//105 348//105
f 348//105 101//105 100//105
f 348//105 100//105 349//105
f 349//105 100//105 99//105
f 349//105 99//105 350//105
f 350//105 99//105 351//105
f 351//105 99//105 98//105
f 351//105 98//105 340//105
f 340//105 98//105 97//105
f 340//105 97//105 341//105
f 341//105 97//105 342//105
f 342//105 97//105 96//105
f 342//105 96//105 343//105
f 343//105 96//105 95//105
f 343//105 95//105 332//105
f 332//105 95//105 333//105
f 333//105 95//105 94//105
f 333//105 94//105 334//105
f 334//105 94//105 93//105
f 334//105 93//105 335//105
f 335//105 93//105 324//105
f 324//105 93//105 92//105
f 324//105 92//105 325//105
f 325//105 92//105 326//105
f 326//105 92//105 91//105
f 326//105 91//105 327//105
f 327//105 91//105 90//105
f 327//105 90//105 316//105
f 316//105 90//105 317//105
f 317//105 90//105 89//105
f 317//105 89//105 318//105
f 318//105 89//105 88//105
f 318//105 88//105 319//105
f 319//105 88//105 308//105
f 308//105 88//105 87//105
f 308//105 87//105 309//105
f 309//105 87//105 86//105
f 309//105 86//105 310//105
f 310//105 86//105 311//105
f 311//105 86//105 85//105
f 311//105 85//105 300//105
f 300//105 85//105 84//105
f 300//105 84//105 301//105
f 301//105 84//105 302//105
f 302//105 84//105 83//105
f 302//105 83//105 303//105
f 303//105 83//105 292//105
f 292//105 83//105 82//105
f 292//105 82//105 293//105
f 293//105 82//105 81//105
f 293//105 81//105 294//105
f 294//105 81//105 295//105
f 295//105 81//105 80//105
f 295//105 80//105 284//105
f 284//105 80//105 79//105
f 284//105 79//105 285//105
f 285//105 79//105 286//105
f 286//105 79//105 78//105
f 286//105 78//105 287//105
f 287//105 78//105 77//105
f 287//105 77//105 276//105
f 276//105 77//105 277//105
f 277//105 77//105 76//105
f 277//105 76//105 278//105
f 278//105 76//105 279//105
f 279//105 76//105 75//105
f 279//105 75//105 268//105
f 268//105 75//105 74//105
f 268//105 74//105 269//105
f 269//105 74//105 270//105
f 270//105 74//105 73//105
f 270//105 73//105 271//105
f 271//105 73//105 72//105

g halfedge 0 edge 0
l 1 15 14 13 12 11 10 9 8 7 6 5 4 3 2 1

g halfedge 1 edge 0
l 1 2 3 4 5 6 7 8 9 10 11 12 13 14 15 1

g halfedge 2 edge 1
l 16 30 29 28 27 26 25 24 23 22 21 20 19 18 17 16

g halfedge 3 edge 1
l 16 17 18 19 20 21 22 23 24 25 26 27 28 29 30 16

g halfedge 4 edge 2
l 31 32 33 34 35 36 37 38 39 40 41 42 43 44 45 46 47 48 49 50 51 52 53 54 55 56 57 58 59 60 61 62 63 64 65 66 67 68 69 70 71 31

g halfedge 5 edge 2
l 31 71 70 69 68 67 66 65 64 63 62 61 60 59 58 57 56 55 54 53 52 51 50 49 48 47 46 45 44 43 42 41 40 39 38 37 36 35 34 33 32 31

g halfedge 6 edge 3
l 72 112 111 110 109 108 107 106 105 104 103 102 101 100 99 98 97 96 95 94 93 92 91 90 89 88 87 86 85 84 83 82 81 80 79 78 77 76 75 74 73 72

g halfedge 7 edge 3
l 72 73 74 75 76 77 78 79 80 81 82 83 84 85 86 87 88 89 90 91 92 93 94 95 96 97 98 99 100 101 102 103 104 105 106 107 108 109 110 111 112 72

g halfedge 8 edge 4
l 113 151 150 149 148 147 146 145 144 143 142 141 140 139 138 137 136 135 134 133 132 131 130 129 128 127 126 125 124 123 122 121 120 119 118 117 116 115 114 113

g halfedge 9 edge 4
l 113 114 115 116 117 118 119 120 121 122 123 124 125 126 127 128 129 130 131 132 133 134 135 136 137 138 139 140 141 142 143 144 145 146 147 148 149 150 151 113

g halfedge 10 edge 5
l 152 153 154 155

g halfedge 11 edge 5
l 155 154 153 152

g halfedge 12 edge 6
l 155 156

g halfedge 13 edge 6
l 156 155

g halfedge 14 edge 7
l 156 157

g halfedge 15 edge 7
l 157 156

g halfedge 16 edge 8
l 157 158

g halfedge 17 edge 8
l 158 157

g halfedge 18 edge 9
l 158 159 160 161

g halfedge 19 edge 9
l 161 160 159 158

g halfedge 20 edge 10
l 161 162

g halfedge 21 edge 10
l 162 161

g halfedge 22 edge 11
l 162 163

g halfedge 23 edge 11
l 163 162

g halfedge 24 edge 12
l 163 164 165 166

g halfedge 25 edge 12
l 166 165 164 163

g halfedge 26 edge 13
l 166 167

g halfedge 27 edge 13
l 167 166

g halfedge 28 edge 14
l 167 168

g halfedge 29 edge 14
l 168 167

g halfedge 30 edge 15
l 168 169 170 171

g halfedge 31 edge 15
l 171 170 169 168

g halfedge 32 edge 16
l 171 172

g halfedge 33 edge 16
l 172 171

g halfedge 34 edge 17
l 172 173

g halfedge 35 edge 17
l 173 172

g halfedge 36 edge 18
l 173 174

g halfedge 37 edge 18
l 174 173

g halfedge 38 edge 19
l 174 175 176 177

g halfedge 39 edge 19
l 177 176 175 174

g halfedge 40 edge 20
l 177 178

g halfedge 41 edge 20
l 178 177

g halfedge 42 edge 21
l 178 179

g halfedge 43 edge 21
l 179 178

g halfedge 44 edge 22
l 179 180 181 182

g halfedge 45 edge 22
l 182 181 180 179

g halfedge 46 edge 23
l 182 183

g halfedge 47 edge 23
l 183 182

g halfedge 48 edge 24
l 183 152

g halfedge 49 edge 24
l 152 183

g halfedge 50 edge 25
l 178 184

g halfedge 51 edge 25
l 184 178

g halfedge 52 edge 26
l 185 184

g halfedge 53 edge 26
l 184 185

g halfedge 54 edge 27
l 185 179

g halfedge 55 edge 27
l 179 185

g halfedge 56 edge 28
l 177 186

g halfedge 57 edge 28
l 186 177

g halfedge 58 edge 29
l 184 186

g halfedge 59 edge 29
l 186 184

g halfedge 60 edge 30
l 162 187

g halfedge 61 edge 30
l 187 162

g halfedge 62 edge 31
l 188 187

g halfedge 63 edge 31
l 187 188

g halfedge 64 edge 32
l 188 163

g halfedge 65 edge 32
l 163 188

g halfedge 66 edge 33
l 161 189

g halfedge 67 edge 33
l 189 161

g halfedge 68 edge 34
l 187 189

g halfedge 69 edge 34
l 189 187

g halfedge 70 edge 35
l 171 190

g halfedge 71 edge 35
l 190 171

g halfedge 72 edge 36
l 191 190

g halfedge 73 edge 36
l 190 191

g halfedge 74 edge 37
l 172 191

g halfedge 75 edge 37
l 191 172

g halfedge 76 edge 38
l 192 191

g halfedge 77 edge 38
l 191 192

g halfedge 78 edge 39
l 192 173

g halfedge 79 edge 39
l 173 192

g halfedge 80 edge 40
l 193 192

g halfedge 81 edge 40
l 192 193

g halfedge 82 edge 41
l 174 193

g halfedge 83 edge 41
l 193 174

g halfedge 84 edge 42
l 152 194

g halfedge 85 edge 42
l 194 152

g halfedge 86 edge 43
l 198 197 196 195 194

g halfedge 87 edge 43
l 194 195 196 197 198

g halfedge 88 edge 44
l 198 182

g halfedge 89 edge 44
l 182 198

g halfedge 90 edge 45
l 186 201 200 199 185

g halfedge 91 edge 45
l 185 199 200 201 186

g halfedge 92 edge 46
l 190 210 209 208 207 206 205 204 203 202 193

g halfedge 93 edge 46
l 193 202 203 204 205 206 207 208 209 210 190

g halfedge 94 edge 47
l 168 211

g halfedge 95 edge 47
l 211 168

g halfedge 96 edge 48
l 215 214 213 212 211

g halfedge 97 edge 48
l 211 212 213 214 215

g halfedge 98 edge 49
l 215 166

g halfedge 99 edge 49
l 166 215

g halfedge 100 edge 50
l 189 218 217 216 188

g halfedge 101 edge 50
l 188 216 217 218 189

g halfedge 102 edge 51
l 158 219

g halfedge 103 edge 51
l 219 158

g halfedge 104 edge 52
l 229 228 227 226 225 224 223 222 221 220 219

g halfedge 105 edge 52
l 219 220 221 222 223 224 225 226 227 228 229

g halfedge 106 edge 53
l 155 229

g halfedge 107 edge 53
l 229 155

g halfedge 108 edge 54
l 230 198

g halfedge 109 edge 54
l 198 230

g halfedge 110 edge 55
l 183 230

g halfedge 111 edge 55
l 230 183

g halfedge 112 edge 56
l 194 230

g halfedge 113 edge 56
l 230 194

g halfedge 114 edge 57
l 231 229

g halfedge 115 edge 57
l 229 231

g halfedge 116 edge 58
l 156 231

g halfedge 117 edge 58
l 231 156

g halfedge 118 edge 59
l 232 231

g halfedge 119 edge 59
l 231 232

g halfedge 120 edge 60
l 232 157

g halfedge 121 edge 60
l 157 232

g halfedge 122 edge 61
l 219 232

g halfedge 123 edge 61
l 232 219

g halfedge 124 edge 62
l 233 215

g halfedge 125 edge 62
l 215 233

g halfedge 126 edge 63
l 167 233

g halfedge 127 edge 63
l 233 167

g halfedge 128 edge 64
l 211 233

g halfedge 129 edge 64
l 233 211

g halfedge 130 edge 65
l 234 235 236 237 238

g halfedge 131 edge 65
l 238 237 236 235 234

g halfedge 132 edge 66
l 239 238

g halfedge 133 edge 66
l 238 239

g halfedge 134 edge 67
l 239 240 241 242 243

g halfedge 135 edge 67
l 243 242 241 240 239

g halfedge 136 edge 68
l 234 243

g halfedge 137 edge 68
l 243 234

g halfedge 138 edge 69
l 244 245 246 247 234

g halfedge 139 edge 69
l 234 247 246 245 244

g halfedge 140 edge 70
l 243 248 249 250 251

g halfedge 141 edge 70
l 251 250 249 248 243

g halfedge 142 edge 71
l 244 251

g halfedge 143 edge 71
l 251 244

g halfedge 144 edge 72
l 252 253 254 255 244

g halfedge 145 edge 72
l 244 255 254 253 252

g halfedge 146 edge 73
l 251 256 257 258 259

g halfedge 147 edge 73
l 259 258 257 256 251

g halfedge 148 edge 74
l 252 259

g halfedge 149 edge 74
l 259 252

g halfedge 150 edge 75
l 260 261 262 263 252

g halfedge 151 edge 75
l 252 263 262 261 260

g halfedge 152 edge 76
l 259 264 265 266 267

g halfedge 153 edge 76
l 267 266 265 264 259

g halfedge 154 edge 77
l 260 267

g halfedge 155 edge 77
l 267 260

g halfedge 156 edge 78
l 268 269 270 271 260

g halfedge 157 edge 78
l 260 271 270 269 268

g halfedge 158 edge 79
l 267 272 273 274 275

g halfedge 159 edge 79
l 275 274 273 272 267

g halfedge 160 edge 80
l 268 275

g halfedge 161 edge 80
l 275 268

g halfedge 162 edge 81
l 276 277 278 279 268

g halfedge 163 edge 81
l 268 279 278 277 276

g halfedge 164 edge 82
l 275 280 281 282 283

g halfedge 165 edge 82
l 283 282 281 280 275

g halfedge 166 edge 83
l 276 283

g halfedge 167 edge 83
l 283 276

g halfedge 168 edge 84
l 284 285 286 287 276

g halfedge 169 edge 84
l 276 287 286 285 284

g halfedge 170 edge 85
l 283 288 289 290 291

g halfedge 171 edge 85
l 291 290 289 288 283

g halfedge 172 edge 86
l 284 291

g halfedge 173 edge 86
l 291 284

g halfedge 174 edge 87
l 292 293 294 295 284

g halfedge 175 edge 87
l 284 295 294 293 292

g halfedge 176 edge 88
l 291 296 297 298 299

g halfedge 177 edge 88
l 299 298 297 296 291

g halfedge 178 edge 89
l 292 299

g halfedge 179 edge 89
l 299 292

g halfedge 180 edge 90
l 300 301 302 303 292

g halfedge 181 edge 90
l 292 303 302 301 300

g halfedge 182 edge 91
l 299 304 305 306 307

g halfedge 183 edge 91
l 307 306 305 304 299

g halfedge 184 edge 92
l 300 307

g halfedge 185 edge 92
l 307 300

g halfedge 186 edge 93
l 308 309 310 311 300

g halfedge 187 edge 93
l 300 311 310 309 308

g halfedge 188 edge 94
l 307 312 313 314 315

g halfedge 189 edge 94
l 315 314 313 312 307

g halfedge 190 edge 95
l 308 315

g halfedge 191 edge 95
l 315 308

g halfedge 192 edge 96
l 316 317 318 319 308

g halfedge 193 edge 96
l 308 319 318 317 316

g halfedge 194 edge 97
l 315 320 321 322 323

g halfedge 195 edge 97
l 323 322 321 320 315

g halfedge 196 edge 98
l 316 323

g halfedge 197 edge 98
l 323 316

g halfedge 198 edge 99
l 324 325 326 327 316

g halfedge 199 edge 99
l 316 327 326 325 324

g halfedge 200 edge 100
l 323 328 329 330 331

g halfedge 201 edge 100
l 331 330 329 328 323

g halfedge 202 edge 101
l 324 331

g halfedge 203 edge 101
l 331 324

g halfedge 204 edge 102
l 332 333 334 335 324

g halfedge 205 edge 102
l 324 335 334 333 332

g halfedge 206 edge 103
l 331 336 337 338 339

g halfedge 207 edge 103
l 339 338 337 336 331

g halfedge 208 edge 104
l 332 339

g halfedge 209 edge 104
l 339 332

g halfedge 210 edge 105
l 340 341 342 343 332

g halfedge 211 edge 105
l 332 343 342 341 340

g halfedge 212 edge 106
l 339 344 345 346 347

g halfedge 213 edge 106
l 347 346 345 344 339

g halfedge 214 edge 107
l 340 347

g halfedge 215 edge 107
l 347 340

g halfedge 216 edge 108
l 348 349 350 351 340

g halfedge 217 edge 108
l 340 351 350 349 348

g halfedge 218 edge 109
l 347 352 353 354 355

g halfedge 219 edge 109
l 355 354 353 352 347

g halfedge 220 edge 110
l 348 355

g halfedge 221 edge 110
l 355 348

g halfedge 222 edge 111
l 238 356 357 358 348

g halfedge 223 edge 111
l 348 358 357 356 238

g halfedge 224 edge 112
l 355 359 360 361 239

g halfedge 225 edge 112
l 239 361 360 359 355

g vertex 0
p 1

g vertex 1
p 16

g vertex 2
p 31

g vertex 3
p 72

g vertex 4
p 113

g vertex 5
p 152

g vertex 6
p 155

g vertex 7
p 156

g vertex 8
p 157

g vertex 9
p 158

g vertex 10
p 161

g vertex 11
p 162

g vertex 12
p 163

g vertex 13
p 166

g vertex 14
p 167

g vertex 15
p 168

g vertex 16
p 171

g vertex 17
p 172

g vertex 18
p 173

g vertex 19
p 174

g vertex 20
p 177

g vertex 21
p 178

g vertex 22
p 179

g vertex 23
p 182

g vertex 24
p 183

g vertex 25
p 184

g vertex 26
p 185

g vertex 27
p 186

g vertex 28
p 187

g vertex 29
p 188

g vertex 30
p 189

g vertex 31
p 190

g vertex 32
p 191

g vertex 33
p 192

g vertex 34
p 193

g vertex 35
p 194

g vertex 36
p 198

g vertex 37
p 211

g vertex 38
p 215

g vertex 39
p 219

g vertex 40
p 229

g vertex 41
p 230

g vertex 42
p 231

g vertex 43
p 232

g vertex 44
p 233

g vertex 45
p 234

g vertex 46
p 238

g vertex 47
p 239

g vertex 48
p 243

g vertex 49
p 244

g vertex 50
p 251

g vertex 51
p 252

g vertex 52
p 259

g vertex 53
p 260

g vertex 54
p 267

g vertex 55
p 268

g vertex 56
p 275

g vertex 57
p 276

g vertex 58
p 283

g vertex 59
p 284

g vertex 60
p 291

g vertex 61
p 292

g vertex 62
p 299

g vertex 63
p 300

g vertex 64
p 307

g vertex 65
p 308

g vertex 66
p 315

g vertex 67
p 316

g vertex 68
p 323

g vertex 69
p 324

g vertex 70
p 331

g vertex 71
p 332

g vertex 72
p 339

g vertex 73
p 340

g vertex 74
p 347

g vertex 75
p 348

g vertex 76
p 355

# End of file
