# Created by FreeCAD <https://www.freecad.org>
v 0.09175000000000001 0.03675 0.008
v 0.09175000000000001 0.023250000000000003 0.008
v 0.09123529 0.02376471 0.00806737
v 0.09123529 0.03623529 0.00806737
v 0.09074738 0.024252620000000003 0.00826947
v 0.09074738 0.03574738 0.00826947
v 0.09033579 0.02466421 0.00858579
v 0.09033579 0.03533579 0.00858579
v 0.07825 0.023250000000000003 0.008
v 0.07876471 0.02376471 0.00806737
v 0.07925262 0.024252620000000003 0.00826947
v 0.07966422 0.02466421 0.00858579
v 0.07825 0.03675 0.008
v 0.07876471 0.03623529 0.00806737
v 0.07925262 0.03574738 0.00826947
v 0.07966422 0.03533579 0.00858579
v 0.073 0.03 0.032
v 0.073 0.03 0.008
v 0.07309463000000001 0.028496 0.008
v 0.07309463000000001 0.028496 0.032
v 0.07337701 0.02701572 0.008
v 0.07337701 0.02701572 0.032
v 0.07384268 0.0255825 0.008
v 0.07384268 0.0255825 0.032
v 0.07448432 0.024218959999999998 0.008
v 0.07448432 0.024218959999999998 0.032
v 0.07529179 0.02294658 0.008
v 0.07529179 0.02294658 0.032
v 0.07625238000000001 0.021785429999999998 0.008
v 0.07625238000000001 0.021785429999999998 0.032
v 0.07735091 0.020753840000000003 0.008
v 0.07735091 0.020753840000000003 0.032
v 0.07857008 0.01986807 0.008
v 0.07857008 0.01986807 0.032
v 0.07989065000000001 0.01914207 0.008
v 0.07989065000000001 0.01914207 0.032
v 0.08129179 0.01858732 0.008
v 0.08129179 0.01858732 0.032
v 0.08275143 0.01821255 0.032
v 0.08275143 0.01821255 0.008
v 0.08424651000000001 0.01802368 0.008
v 0.08424651000000001 0.01802368 0.032
v 0.08575348999999999 0.01802368 0.008
v 0.08575348999999999 0.01802368 0.032
v 0.08724857 0.01821255 0.008
v 0.08724857 0.01821255 0.032
v 0.08870821 0.01858732 0.008
v 0.08870821 0.01858732 0.032
v 0.09010935 0.01914207 0.032
v 0.09010935 0.01914207 0.008
v 0.09142992 0.01986807 0.032
v 0.09142992 0.01986807 0.008
v 0.09264908999999999 0.020753840000000003 0.032
v 0.09264908999999999 0.020753840000000003 0.008
v 0.09374763 0.021785429999999998 0.008
v 0.09374763 0.021785429999999998 0.032
v 0.09470821000000001 0.02294658 0.032
v 0.09470821000000001 0.02294658 0.008
v 0.09551567999999999 0.024218959999999998 0.008
v 0.09551567999999999 0.024218959999999998 0.032
v 0.09615731999999999 0.0255825 0.032
v 0.09615731999999999 0.0255825 0.008
v 0.096623 0.02701572 0.032
v 0.096623 0.02701572 0.008
v 0.09690538 0.028496 0.008
v 0.09690538 0.028496 0.032
v 0.09699999999999999 0.03 0.032
v 0.09699999999999999 0.03 0.008
v 0.07677276 0.025249999999999998 0.032
v 0.085 0.020499999999999997 0.032
v 0.07677276 0.03475 0.032
v 0.07448432 0.03578104 0.032
v 0.07384268 0.0344175 0.032
v 0.07337701 0.03298428 0.032
v 0.07309463000000001 0.031504 0.032
v 0.07529179 0.03705342 0.032
v 0.07625238000000001 0.03821457 0.032
v 0.07735091 0.03924616 0.032
v 0.09322723999999999 0.025249999999999998 0.032
v 0.07857008 0.04013193 0.032
v 0.085 0.0395 0.032
v 0.08129179 0.04141268 0.032
v 0.07989065000000001 0.04085793 0.032
v 0.08275143 0.04178744 0.032
v 0.08424651000000001 0.04197632 0.032
v 0.08575348999999999 0.04197632 0.032
v 0.09322723999999999 0.03475 0.032
v 0.09690538 0.031504 0.032
v 0.08724857 0.04178744 0.032
v 0.096623 0.03298428 0.032
v 0.08870821 0.04141268 0.032
v 0.09615731999999999 0.0344175 0.032
v 0.09010935 0.04085793 0.032
v 0.09551567999999999 0.03578104 0.032
v 0.09142992 0.04013193 0.032
v 0.09470821000000001 0.03705342 0.032
v 0.09264908999999999 0.03924616 0.032
v 0.09374763 0.03821457 0.032
v 0.09690538 0.031504 0.008
v 0.096623 0.03298428 0.008
v 0.09615731999999999 0.0344175 0.008
v 0.09551567999999999 0.03578104 0.008
v 0.09470821000000001 0.03705342 0.008
v 0.09374763 0.03821457 0.008
v 0.09264908999999999 0.03924616 0.008
v 0.09142992 0.04013193 0.008
v 0.09010935 0.04085793 0.008
v 0.08870821 0.04141268 0.008
v 0.08724857 0.04178744 0.008
v 0.08575348999999999 0.04197632 0.008
v 0.08424651000000001 0.04197632 0.008
v 0.08275143 0.04178744 0.008
v 0.08129179 0.04141268 0.008
v 0.07989065000000001 0.04085793 0.008
v 0.07857008 0.04013193 0.008
v 0.07735091 0.03924616 0.008
v 0.07625238000000001 0.03821457 0.008
v 0.07529179 0.03705342 0.008
v 0.07448432 0.03578104 0.008
v 0.07384268 0.0344175 0.008
v 0.07337701 0.03298428 0.008
v 0.07309463000000001 0.031504 0.008
v 0.08025 0.03475 0.015
v 0.08975 0.03475 0.015
v 0.08025 0.025249999999999998 0.015
v 0.08975 0.025249999999999998 0.015
v 0.08025 0.025249999999999998 0.01
v 0.08025 0.03475 0.01
v 0.08975 0.025249999999999998 0.01
v 0.08975 0.03475 0.01
v 0.09016054999999999 0.035160550000000006 0.00878606
v 0.07995348000000001 0.035046520000000005 0.00895208
v 0.09001113000000001 0.03501113 0.009011900000000002
v 0.08012286 0.03487714 0.00929828
v 0.08986643000000001 0.03486643 0.00932756
v 0.08021758999999999 0.03478241 0.009641420000000001
v 0.08977876 0.03477877 0.00966201
v 0.08024199 0.03475801 0.00982121
v 0.07995348000000001 0.024953490000000002 0.00895208
v 0.08012286 0.02512286 0.00929828
v 0.08021758999999999 0.025217589999999998 0.009641420000000001
v 0.08024199 0.02524199 0.00982121
v 0.09004652 0.024953490000000002 0.00895208
v 0.08987714000000001 0.02512286 0.00929828
v 0.08978241 0.025217589999999998 0.009641420000000001
v 0.08975801000000001 0.02524199 0.00982121
v 0.085 0.0395 0.018000000000000002
v 0.09322723999999999 0.025249999999999998 0.018000000000000002
v 0.09322723999999999 0.03475 0.018000000000000002
v 0.07677276 0.03475 0.018000000000000002
v 0.085 0.020499999999999997 0.018000000000000002
v 0.07677276 0.025249999999999998 0.018000000000000002
vn -0.129776 -0.000000 -0.991543
vn -0.382680 -0.000000 -0.923881
vn -0.129776 -0.000000 -0.991543
vn -0.609364 -0.000000 -0.792891
vn -0.382680 -0.000000 -0.923881
vn -0.609364 -0.000000 -0.792891
vn 0.000000 0.129775 -0.991543
vn 0.000000 0.129775 -0.991543
vn 0.000000 0.382683 -0.923880
vn 0.000000 0.382683 -0.923880
vn 0.000000 0.609364 -0.792891
vn 0.000000 0.609364 -0.792891
vn 0.129776 0.000000 -0.991543
vn 0.382680 0.000000 -0.923881
vn 0.129776 0.000000 -0.991543
vn 0.609364 0.000000 -0.792891
vn 0.382680 0.000000 -0.923881
vn 0.609364 0.000000 -0.792891
vn 0.000000 -0.129776 -0.991543
vn 0.000000 -0.382682 -0.923880
vn 0.000000 -0.129776 -0.991543
vn 0.000000 -0.382683 -0.923880
vn 0.000000 -0.609360 -0.792894
vn 0.000000 -0.609360 -0.792894
vn -0.998027 -0.062793 -0.000000
vn -0.982287 -0.187382 -0.000000
vn -0.998027 -0.062793 -0.000000
vn -0.951057 -0.309014 -0.000000
vn -0.982287 -0.187382 -0.000000
vn -0.904826 -0.425781 -0.000000
vn -0.951057 -0.309014 -0.000000
vn -0.844329 -0.535825 -0.000000
vn -0.904826 -0.425781 -0.000000
vn -0.770511 -0.637426 -0.000000
vn -0.844329 -0.535825 -0.000000
vn -0.684548 -0.728967 -0.000000
vn -0.770511 -0.637426 -0.000000
vn -0.587786 -0.809016 -0.000000
vn -0.684548 -0.728967 -0.000000
vn -0.481754 -0.876307 -0.000000
vn -0.587786 -0.809016 -0.000000
vn -0.368125 -0.929776 -0.000000
vn -0.481754 -0.876307 -0.000000
vn -0.368125 -0.929776 -0.000000
vn -0.125334 -0.992115 -0.000000
vn -0.248688 -0.968584 -0.000000
vn -0.248688 -0.968584 0.000000
vn -0.125334 -0.992115 -0.000000
vn 0.000000 -1.000000 0.000000
vn -0.000000 -1.000000 -0.000000
vn 0.125334 -0.992115 0.000000
vn 0.248688 -0.968584 0.000000
vn 0.125334 -0.992115 0.000000
vn 0.248688 -0.968584 0.000000
vn 0.368125 -0.929776 0.000000
vn 0.368125 -0.929776 0.000000
vn 0.481754 -0.876307 0.000000
vn 0.481754 -0.876307 0.000000
vn 0.684546 -0.728970 0.000000
vn 0.587786 -0.809016 0.000000
vn 0.587786 -0.809016 0.000000
vn 0.684546 -0.728970 0.000000
vn 0.844329 -0.535825 0.000000
vn 0.770514 -0.637423 0.000000
vn 0.770514 -0.637423 0.000000
vn 0.844329 -0.535825 0.000000
vn 0.904826 -0.425781 0.000000
vn 0.904826 -0.425781 0.000000
vn 0.982287 -0.187382 0.000000
vn 0.951056 -0.309019 0.000000
vn 0.951056 -0.309019 0.000000
vn 0.982287 -0.187382 0.000000
vn 0.998027 -0.062788 0.000000
vn 0.998027 -0.062788 0.000000
vn 0.000000 0.000000 1.000000
vn 0.000000 0.000000 1.000000
vn 0.000000 0.000000 1.000000
vn 0.000000 0.000000 1.000000
vn 0.000000 0.000000 1.000000
vn 0.000000 0.000000 1.000000
vn 0.000000 0.000000 1.000000
vn 0.000000 0.000000 1.000000
vn 0.000000 0.000000 1.000000
vn 0.000000 0.000000 1.000000
vn 0.000000 0.000000 1.000000
vn 0.000000 0.000000 1.000000
vn 0.000000 0.000000 1.000000
vn 0.000000 0.000000 1.000000
vn 0.000000 0.000000 1.000000
vn 0.000000 0.000000 1.000000
vn 0.000000 0.000000 1.000000
vn 0.000000 0.000000 1.000000
vn 0.000000 0.000000 1.000000
vn 0.000000 0.000000 1.000000
vn 0.000000 0.000000 1.000000
vn 0.000000 0.000000 1.000000
vn 0.000000 0.000000 1.000000
vn 0.000000 0.000000 1.000000
vn 0.000000 0.000000 1.000000
vn 0.000000 0.000000 1.000000
vn 0.000000 0.000000 1.000000
vn 0.000000 0.000000 1.000000
vn 0.000000 0.000000 1.000000
vn 0.000000 0.000000 1.000000
vn 0.000000 0.000000 1.000000
vn 0.000000 0.000000 1.000000
vn 0.000000 0.000000 1.000000
vn 0.000000 0.000000 1.000000
vn 0.000000 0.000000 1.000000
vn 0.000000 0.000000 1.000000
vn 0.000000 0.000000 1.000000
vn 0.000000 0.000000 1.000000
vn 0.000000 0.000000 1.000000
vn 0.000000 0.000000 1.000000
vn 0.000000 0.000000 1.000000
vn 0.000000 0.000000 1.000000
vn 0.000000 0.000000 1.000000
vn 0.000000 0.000000 1.000000
vn 0.000000 0.000000 1.000000
vn 0.000000 0.000000 1.000000
vn 0.000000 0.000000 1.000000
vn 0.000000 0.000000 1.000000
vn 0.000000 0.000000 1.000000
vn 0.000000 0.000000 1.000000
vn 0.000000 0.000000 1.000000
vn 0.000000 0.000000 1.000000
vn 0.000000 0.000000 1.000000
vn 0.000000 0.000000 1.000000
vn 0.000000 0.000000 1.000000
vn 0.000000 0.000000 1.000000
vn 0.998027 0.062788 0.000000
vn 0.982287 0.187382 0.000000
vn 0.998027 0.062788 0.000000
vn 0.951056 0.309019 0.000000
vn 0.982287 0.187382 0.000000
vn 0.904826 0.425781 0.000000
vn 0.951056 0.309019 0.000000
vn 0.844329 0.535825 0.000000
vn 0.904826 0.425781 0.000000
vn 0.770514 0.637423 0.000000
vn 0.844329 0.535825 0.000000
vn 0.684545 0.728970 0.000000
vn 0.770514 0.637423 0.000000
vn 0.587787 0.809016 0.000000
vn 0.684545 0.728970 0.000000
vn 0.481754 0.876307 0.000000
vn 0.587787 0.809016 0.000000
vn 0.368124 0.929777 0.000000
vn 0.481754 0.876307 0.000000
vn 0.248688 0.968584 0.000000
vn 0.368124 0.929777 0.000000
vn 0.248688 0.968584 0.000000
vn 0.125333 0.992115 0.000000
vn 0.125333 0.992115 0.000000
vn -0.000000 1.000000 0.000000
vn -0.125333 0.992115 0.000000
vn 0.000000 1.000000 0.000000
vn -0.125333 0.992115 0.000000
vn -0.248688 0.968584 0.000000
vn -0.248688 0.968584 0.000000
vn -0.368124 0.929777 0.000000
vn -0.368124 0.929777 0.000000
vn -0.587787 0.809016 0.000000
vn -0.481754 0.876307 0.000000
vn -0.481754 0.876307 0.000000
vn -0.587787 0.809016 0.000000
vn -0.770512 0.637426 0.000000
vn -0.684548 0.728968 0.000000
vn -0.684548 0.728968 0.000000
vn -0.844329 0.535825 0.000000
vn -0.770512 0.637426 0.000000
vn -0.904826 0.425781 0.000000
vn -0.844329 0.535825 0.000000
vn -0.951057 0.309014 0.000000
vn -0.904826 0.425781 0.000000
vn -0.982287 0.187382 0.000000
vn -0.951057 0.309014 0.000000
vn -0.982287 0.187382 0.000000
vn -0.998027 0.062793 0.000000
vn -0.998027 0.062793 0.000000
vn 0.000000 0.000000 -1.000000
vn 0.000000 0.000000 -1.000000
vn 1.000000 0.000000 0.000000
vn 1.000000 0.000000 -0.000000
vn 0.000000 1.000000 0.000000
vn 0.000000 1.000000 0.000000
vn 0.000000 0.000000 -1.000000
vn 0.000000 0.000000 -1.000000
vn 0.000000 0.000000 -1.000000
vn 0.000000 0.000000 -1.000000
vn 0.000000 0.000000 -1.000000
vn 0.000000 0.000000 -1.000000
vn 0.000000 0.000000 -1.000000
vn 0.000000 0.000000 -1.000000
vn 0.000000 0.000000 -1.000000
vn 0.000000 0.000000 -1.000000
vn 0.000000 0.000000 -1.000000
vn 0.000000 0.000000 -1.000000
vn 0.000000 0.000000 -1.000000
vn 0.000000 0.000000 -1.000000
vn 0.000000 0.000000 -1.000000
vn 0.000000 0.000000 -1.000000
vn 0.000000 0.000000 -1.000000
vn 0.000000 0.000000 -1.000000
vn 0.000000 0.000000 -1.000000
vn 0.000000 -0.000000 -1.000000
vn 0.000000 -0.000000 -1.000000
vn 0.000000 -0.000000 -1.000000
vn 0.000000 -0.000000 -1.000000
vn 0.000000 -0.000000 -1.000000
vn 0.000000 -0.000000 -1.000000
vn 0.000000 0.000000 -1.000000
vn 0.000000 0.000000 -1.000000
vn 0.000000 0.000000 -1.000000
vn 0.000000 0.000000 -1.000000
vn 0.000000 0.000000 -1.000000
vn 0.000000 0.000000 -1.000000
vn 0.000000 -0.000000 -1.000000
vn 0.000000 0.000000 -1.000000
vn 0.000000 -0.000000 -1.000000
vn 0.000000 0.000000 -1.000000
vn 0.000000 -0.000000 -1.000000
vn 0.000000 0.000000 -1.000000
vn 0.000000 -0.000000 -1.000000
vn 0.000000 0.000000 -1.000000
vn 0.000000 -0.000000 -1.000000
vn -0.000000 -0.000000 -1.000000
vn 0.000000 0.000000 -1.000000
vn 0.000000 0.000000 -1.000000
vn 0.000000 0.000000 -1.000000
vn 0.000000 0.000000 -1.000000
vn 0.000000 0.000000 -1.000000
vn 0.000000 0.000000 -1.000000
vn 0.000000 0.000000 -1.000000
vn 0.000000 0.000000 -1.000000
vn 0.000000 0.000000 -1.000000
vn 0.000000 0.000000 -1.000000
vn 0.000000 0.000000 -1.000000
vn 0.000000 0.000000 -1.000000
vn 0.000000 -0.000000 -1.000000
vn -1.000000 0.000000 0.000000
vn -1.000000 0.000000 0.000000
vn 0.000000 -1.000000 0.000000
vn 0.000000 -1.000000 0.000000
vn 0.000000 -0.752583 -0.658498
vn 0.000346 -0.834098 -0.551616
vn -0.001297 -0.785286 -0.619132
vn 0.000252 -0.909083 -0.416615
vn -0.000548 -0.898368 -0.439242
vn 0.000177 -0.967333 -0.253508
vn -0.000260 -0.963956 -0.266061
vn 0.000754 -0.996403 -0.084740
vn -0.000088 -0.990916 -0.134478
vn 0.000000 -0.998999 -0.044740
vn 0.784788 0.000000 -0.619764
vn 0.898263 0.000000 -0.439459
vn 0.784788 0.000000 -0.619764
vn 0.898263 0.000000 -0.439459
vn 0.963938 0.000000 -0.266128
vn 0.963938 0.000000 -0.266128
vn 0.990918 0.000000 -0.134469
vn 0.990918 0.000000 -0.134469
vn 0.998998 0.000000 -0.044762
vn 0.998998 0.000000 -0.044762
vn 0.000000 0.784784 -0.619769
vn 0.000000 0.784784 -0.619769
vn 0.000000 0.898265 -0.439455
vn 0.000000 0.963936 -0.266133
vn 0.000000 0.898265 -0.439455
vn 0.000000 0.963936 -0.266133
vn 0.000000 0.990916 -0.134480
vn 0.000000 0.998999 -0.044740
vn 0.000000 0.990916 -0.134480
vn 0.000000 0.998999 -0.044740
vn -0.752583 0.000000 -0.658498
vn -0.785286 -0.001297 -0.619132
vn -0.898368 -0.000548 -0.439242
vn -0.834098 0.000346 -0.551616
vn -0.963956 -0.000260 -0.266061
vn -0.909083 0.000252 -0.416615
vn -0.990919 -0.000088 -0.134458
vn -0.967330 0.000177 -0.253519
vn -0.998998 -0.000000 -0.044762
vn -0.996404 0.000754 -0.084729
vn 0.000000 0.000000 1.000000
vn -0.000000 0.000000 1.000000
vn 0.000000 0.000000 1.000000
vn 0.000000 0.000000 1.000000
vn -0.500000 -0.866025 0.000000
vn -0.500000 -0.866025 -0.000000
vn -1.000000 0.000000 0.000000
vn -1.000000 0.000000 0.000000
vn -0.500000 0.866025 0.000000
vn -0.500000 0.866025 0.000000
vn 0.500000 0.866025 -0.000000
vn 0.500000 0.866025 0.000000
vn 1.000000 0.000000 -0.000000
vn 1.000000 0.000000 0.000000
vn 0.500000 -0.866025 0.000000
vn 0.500000 -0.866025 0.000000
f 1//1 2//1 3//1
f 4//2 3//2 5//2
f 4//3 1//3 3//3
f 6//4 5//4 7//4
f 6//5 4//5 5//5
f 8//6 6//6 7//6
f 3//7 9//7 10//7
f 3//8 2//8 9//8
f 5//9 10//9 11//9
f 5//10 3//10 10//10
f 7//11 11//11 12//11
f 7//12 5//12 11//12
f 10//13 13//13 14//13
f 10//14 14//14 15//14
f 10//15 9//15 13//15
f 11//16 15//16 16//16
f 11//17 10//17 15//17
f 12//18 11//18 16//18
f 13//19 1//19 4//19
f 14//20 4//20 6//20
f 14//21 13//21 4//21
f 15//22 14//22 6//22
f 16//23 6//23 8//23
f 16//24 15//24 6//24
f 17//25 18//25 19//25
f 20//26 19//26 21//26
f 20//27 17//27 19//27
f 22//28 21//28 23//28
f 22//29 20//29 21//29
f 24//30 23//30 25//30
f 24//31 22//31 23//31
f 26//32 25//32 27//32
f 26//33 24//33 25//33
f 28//34 27//34 29//34
f 28//35 26//35 27//35
f 30//36 29//36 31//36
f 30//37 28//37 29//37
f 32//38 31//38 33//38
f 32//39 30//39 31//39
f 34//40 33//40 35//40
f 34//41 32//41 33//41
f 36//42 35//42 37//42
f 36//43 34//43 35//43
f 38//44 36//44 37//44
f 39//45 40//45 41//45
f 39//46 37//46 40//46
f 39//47 38//47 37//47
f 42//48 39//48 41//48
f 42//49 41//49 43//49
f 44//50 42//50 43//50
f 44//51 43//51 45//51
f 46//52 45//52 47//52
f 46//53 44//53 45//53
f 48//54 46//54 47//54
f 49//55 47//55 50//55
f 49//56 48//56 47//56
f 51//57 50//57 52//57
f 51//58 49//58 50//58
f 53//59 54//59 55//59
f 53//60 52//60 54//60
f 53//61 51//61 52//61
f 56//62 53//62 55//62
f 57//63 58//63 59//63
f 57//64 55//64 58//64
f 57//65 56//65 55//65
f 60//66 57//66 59//66
f 61//67 59//67 62//67
f 61//68 60//68 59//68
f 63//69 64//69 65//69
f 63//70 62//70 64//70
f 63//71 61//71 62//71
f 66//72 63//72 65//72
f 67//73 65//73 68//73
f 67//74 66//74 65//74
f 69//75 20//75 22//75
f 69//76 22//76 24//76
f 69//77 24//77 26//77
f 69//78 26//78 28//78
f 69//79 28//79 30//79
f 69//80 30//80 32//80
f 69//81 32//81 34//81
f 17//82 20//82 69//82
f 70//83 34//83 36//83
f 70//84 36//84 38//84
f 70//85 38//85 39//85
f 70//86 39//86 42//86
f 70//87 42//87 44//87
f 70//88 44//88 46//88
f 70//89 69//89 34//89
f 48//90 70//90 46//90
f 49//91 70//91 48//91
f 51//92 70//92 49//92
f 71//93 72//93 73//93
f 71//94 73//94 74//94
f 71//95 74//95 75//95
f 71//96 75//96 17//96
f 71//97 17//97 69//97
f 76//98 72//98 71//98
f 77//99 76//99 71//99
f 78//100 77//100 71//100
f 79//101 70//101 51//101
f 79//102 51//102 53//102
f 79//103 53//103 56//103
f 79//104 56//104 57//104
f 80//105 78//105 71//105
f 60//106 79//106 57//106
f 61//107 79//107 60//107
f 63//108 79//108 61//108
f 81//109 80//109 71//109
f 81//110 82//110 83//110
f 81//111 83//111 80//111
f 84//112 82//112 81//112
f 66//113 79//113 63//113
f 85//114 84//114 81//114
f 67//115 79//115 66//115
f 86//116 85//116 81//116
f 87//117 79//117 67//117
f 88//118 87//118 67//118
f 89//119 86//119 81//119
f 90//120 87//120 88//120
f 91//121 89//121 81//121
f 92//122 87//122 90//122
f 93//123 91//123 81//123
f 94//124 87//124 92//124
f 95//125 81//125 87//125
f 95//126 93//126 81//126
f 96//127 87//127 94//127
f 97//128 95//128 87//128
f 98//129 97//129 87//129
f 98//130 87//130 96//130
f 67//131 68//131 99//131
f 88//132 99//132 100//132
f 88//133 67//133 99//133
f 90//134 100//134 101//134
f 90//135 88//135 100//135
f 92//136 101//136 102//136
f 92//137 90//137 101//137
f 94//138 102//138 103//138
f 94//139 92//139 102//139
f 96//140 103//140 104//140
f 96//141 94//141 103//141
f 98//142 104//142 105//142
f 98//143 96//143 104//143
f 97//144 105//144 106//144
f 97//145 98//145 105//145
f 95//146 106//146 107//146
f 95//147 97//147 106//147
f 93//148 107//148 108//148
f 93//149 95//149 107//149
f 91//150 108//150 109//150
f 91//151 93//151 108//151
f 89//152 91//152 109//152
f 89//153 109//153 110//153
f 86//154 89//154 110//154
f 85//155 86//155 110//155
f 85//156 111//156 112//156
f 85//157 110//157 111//157
f 84//158 85//158 112//158
f 84//159 112//159 113//159
f 82//160 84//160 113//160
f 83//161 113//161 114//161
f 83//162 82//162 113//162
f 80//163 115//163 116//163
f 80//164 114//164 115//164
f 80//165 83//165 114//165
f 78//166 80//166 116//166
f 77//167 117//167 118//167
f 77//168 116//168 117//168
f 77//169 78//169 116//169
f 76//170 118//170 119//170
f 76//171 77//171 118//171
f 72//172 119//172 120//172
f 72//173 76//173 119//173
f 73//174 120//174 121//174
f 73//175 72//175 120//175
f 74//176 121//176 122//176
f 74//177 73//177 121//177
f 75//178 74//178 122//178
f 17//179 122//179 18//179
f 17//180 75//180 122//180
f 123//181 124//181 125//181
f 125//182 124//182 126//182
f 127//183 123//183 125//183
f 128//184 123//184 127//184
f 126//185 129//185 125//185
f 125//186 129//186 127//186
f 37//187 9//187 40//187
f 35//188 9//188 37//188
f 33//189 9//189 35//189
f 31//190 9//190 33//190
f 29//191 9//191 31//191
f 27//192 9//192 29//192
f 25//193 9//193 27//193
f 23//194 9//194 25//194
f 21//195 9//195 23//195
f 21//196 19//196 9//196
f 9//197 41//197 40//197
f 19//198 18//198 9//198
f 52//199 2//199 54//199
f 50//200 2//200 52//200
f 47//201 2//201 50//201
f 45//202 2//202 47//202
f 43//203 2//203 45//203
f 41//204 2//204 43//204
f 9//205 2//205 41//205
f 122//206 13//206 18//206
f 121//207 13//207 122//207
f 120//208 13//208 121//208
f 119//209 13//209 120//209
f 118//210 13//210 119//210
f 117//211 13//211 118//211
f 18//212 13//212 9//212
f 2//213 55//213 54//213
f 117//214 116//214 13//214
f 2//215 58//215 55//215
f 116//216 115//216 13//216
f 2//217 59//217 58//217
f 115//218 114//218 13//218
f 2//219 62//219 59//219
f 114//220 113//220 13//220
f 2//221 64//221 62//221
f 113//222 112//222 13//222
f 2//223 65//223 64//223
f 112//224 111//224 13//224
f 2//225 68//225 65//225
f 111//226 1//226 13//226
f 110//227 1//227 111//227
f 2//228 1//228 68//228
f 68//229 1//229 99//229
f 110//230 109//230 1//230
f 1//231 100//231 99//231
f 109//232 108//232 1//232
f 1//233 101//233 100//233
f 108//234 107//234 1//234
f 1//235 102//235 101//235
f 107//236 106//236 1//236
f 1//237 103//237 102//237
f 106//238 105//238 1//238
f 1//239 104//239 103//239
f 105//240 104//240 1//240
f 126//241 124//241 129//241
f 129//242 124//242 130//242
f 128//243 130//243 123//243
f 123//244 130//244 124//244
f 16//245 8//245 131//245
f 132//246 131//246 133//246
f 132//247 16//247 131//247
f 134//248 133//248 135//248
f 134//249 132//249 133//249
f 136//250 135//250 137//250
f 136//251 134//251 135//251
f 138//252 137//252 130//252
f 138//253 136//253 137//253
f 128//254 138//254 130//254
f 12//255 16//255 132//255
f 139//256 132//256 134//256
f 139//257 12//257 132//257
f 140//258 139//258 134//258
f 141//259 134//259 136//259
f 141//260 140//260 134//260
f 142//261 136//261 138//261
f 142//262 141//262 136//262
f 127//263 138//263 128//263
f 127//264 142//264 138//264
f 143//265 7//265 12//265
f 143//266 12//266 139//266
f 144//267 139//267 140//267
f 144//268 140//268 141//268
f 144//269 143//269 139//269
f 145//270 144//270 141//270
f 146//271 141//271 142//271
f 146//272 142//272 127//272
f 146//273 145//273 141//273
f 129//274 146//274 127//274
f 131//275 8//275 7//275
f 131//276 7//276 143//276
f 133//277 143//277 144//277
f 133//278 131//278 143//278
f 135//279 144//279 145//279
f 135//280 133//280 144//280
f 137//281 145//281 146//281
f 137//282 135//282 145//282
f 130//283 146//283 129//283
f 130//284 137//284 146//284
f 147//285 148//285 149//285
f 150//286 151//286 147//286
f 147//287 151//287 148//287
f 150//288 152//288 151//288
f 81//289 149//289 87//289
f 81//290 147//290 149//290
f 79//291 87//291 148//291
f 148//292 87//292 149//292
f 79//293 151//293 70//293
f 79//294 148//294 151//294
f 151//295 152//295 70//295
f 70//296 152//296 69//296
f 150//297 71//297 152//297
f 152//298 71//298 69//298
f 147//299 71//299 150//299
f 147//300 81//300 71//300
