# WaveFront *.obj file
# Vertices: 141
# Triangles : 282

v 0.1492250052690506 0.050800001621246337 0.0023812500000000006
v 0.14891058142464078 0.05217758249294459 0.0023812500000000006
v 0.1480295853899521 0.053282316578082335 0.0023812500000000006
v 0.1467565092343619 0.05389539774242363 0.0023812500000000006
v 0.1453435013037393 0.05389539774242363 0.0023812500000000006
v 0.14407042514814913 0.053282316578082335 0.0023812500000000006
v 0.14318942911346041 0.05217758249294459 0.0023812500000000006
v 0.1428750052690506 0.050800001621246337 0.0023812500000000006
v 0.14318942911346041 0.04942242074954809 0.0023812500000000006
v 0.14407042514814913 0.048317686664410345 0.0023812500000000006
v 0.1453435013037393 0.04770460550006905 0.0023812500000000006
v 0.1467565092343619 0.04770460550006905 0.0023812500000000006
v 0.1480295853899521 0.048317686664410345 0.0023812500000000006
v 0.14891058142464078 0.04942242074954809 0.0023812500000000006
v 0.1460500052690506 0.050800001621246337 0.00047351753458749635
v 0.1492250052690506 0.050800001621246337 0.009525
v 0.14891058142464078 0.05217758249294459 0.009525
v 0.1480295853899521 0.053282316578082335 0.009525
v 0.1467565092343619 0.05389539774242363 0.009525
v 0.1453435013037393 0.05389539774242363 0.009525
v 0.14407042514814913 0.053282316578082335 0.009525
v 0.14318942911346041 0.05217758249294459 0.009525
v 0.1428750052690506 0.050800001621246337 0.009525
v 0.14318942911346041 0.04942242074954809 0.009525
v 0.14407042514814913 0.048317686664410345 0.009525
v 0.1453435013037393 0.04770460550006905 0.009525
v 0.1467565092343619 0.04770460550006905 0.009525
v 0.1480295853899521 0.048317686664410345 0.009525
v 0.14891058142464078 0.04942242074954809 0.009525
v 0.1619250052690506 0.050800001621246337 0.009525
v 0.16223942911346043 0.0494224207495481 0.009525
v 0.16312042514814912 0.04831768666441035 0.009525
v 0.1643935013037393 0.04770460550006906 0.009525
v 0.16580650923436188 0.04770460550006906 0.009525
v 0.16707958538995207 0.04831768666441035 0.009525
v 0.16796058142464076 0.0494224207495481 0.009525
v 0.1682750052690506 0.050800001621246337 0.009525
v 0.16796058142464076 0.05217758249294458 0.009525
v 0.16707958538995207 0.05328231657808233 0.009525
v 0.16580650923436188 0.05389539774242362 0.009525
v 0.1643935013037393 0.05389539774242362 0.009525
v 0.16312042514814912 0.05328231657808233 0.009525
v 0.16223942911346043 0.05217758249294458 0.009525
v 0.1619250052690506 0.050800001621246337 0.0
v 0.16223942911346043 0.05217758249294458 0.0
v 0.16312042514814912 0.05328231657808233 0.0
v 0.1643935013037393 0.05389539774242362 0.0
v 0.16580650923436188 0.05389539774242362 0.0
v 0.16707958538995207 0.05328231657808233 0.0
v 0.16796058142464076 0.05217758249294458 0.0
v 0.1682750052690506 0.050800001621246337 0.0
v 0.16796058142464076 0.0494224207495481 0.0
v 0.16707958538995207 0.04831768666441035 0.0
v 0.16580650923436188 0.04770460550006906 0.0
v 0.1643935013037393 0.04770460550006906 0.0
v 0.16312042514814912 0.04831768666441035 0.0
v 0.16223942911346043 0.0494224207495481 0.0
v 0.13652500526905062 0.050800001621246337 0.009525
v 0.13684416440966757 0.05505888437723051 0.009525
v 0.13779451234371165 0.05922263073003791 0.009525
v 0.139354819868739 0.06319822946653056 0.009525
v 0.14149023229297106 0.06689687228041433 0.009525
v 0.14415304803151333 0.07023593760305033 0.009525
v 0.1472837841809373 0.07314083623277029 0.009525
v 0.1508125052690506 0.07554667753438665 0.009525
v 0.15466038549778086 0.07739971898875445 0.009525
v 0.15874146958124893 0.07865856671184193 0.009525
v 0.1629645928448185 0.07929510012569854 0.009525
v 0.16723541769328265 0.07929510012569856 0.009525
v 0.17145854095685228 0.07865856671184193 0.009525
v 0.17553962504032034 0.07739971898875446 0.009525
v 0.17938750526905056 0.07554667753438667 0.009525
v 0.1829162263571639 0.07314083623277028 0.009525
v 0.18604696250658787 0.07023593760305034 0.009525
v 0.18870977824513013 0.06689687228041433 0.009525
v 0.1908451906693622 0.06319822946653054 0.009525
v 0.19240549819438954 0.059222630730037924 0.009525
v 0.19335584612843362 0.05505888437723052 0.009525
v 0.19367500526905057 0.050800001621246337 0.009525
v 0.19335584612843362 0.04654111886526217 0.009525
v 0.19240549819438954 0.04237737251245476 0.009525
v 0.1908451906693622 0.03840177377596212 0.009525
v 0.18870977824513013 0.03470313096207835 0.009525
v 0.18604696250658787 0.031364065639442336 0.009525
v 0.1829162263571639 0.0284591670097224 0.009525
v 0.17938750526905062 0.026053325708106027 0.009525
v 0.17553962504032034 0.024200284253738224 0.009525
v 0.17145854095685228 0.022941436530650745 0.009525
v 0.16723541769328268 0.022304903116794134 0.009525
v 0.1629645928448185 0.022304903116794134 0.009525
v 0.15874146958124893 0.022941436530650745 0.009525
v 0.15466038549778088 0.024200284253738213 0.009525
v 0.1508125052690506 0.026053325708106017 0.009525
v 0.1472837841809373 0.028459167009722397 0.009525
v 0.14415304803151333 0.031364065639442315 0.009525
v 0.14149023229297109 0.034703130962078346 0.009525
v 0.139354819868739 0.03840177377596212 0.009525
v 0.13779451234371165 0.042377372512454756 0.009525
v 0.13684416440966757 0.046541118865262146 0.009525
v 0.13652500526905062 0.050800001621246337 0.0
v 0.13684416440966757 0.046541118865262146 0.0
v 0.13779451234371165 0.042377372512454756 0.0
v 0.139354819868739 0.03840177377596212 0.0
v 0.14149023229297109 0.034703130962078346 0.0
v 0.14415304803151333 0.031364065639442315 0.0
v 0.1472837841809373 0.028459167009722397 0.0
v 0.1508125052690506 0.026053325708106017 0.0
v 0.15466038549778088 0.024200284253738213 0.0
v 0.15874146958124893 0.022941436530650745 0.0
v 0.1629645928448185 0.022304903116794134 0.0
v 0.16723541769328268 0.022304903116794134 0.0
v 0.17145854095685228 0.022941436530650745 0.0
v 0.17553962504032034 0.024200284253738224 0.0
v 0.17938750526905062 0.026053325708106027 0.0
v 0.1829162263571639 0.0284591670097224 0.0
v 0.18604696250658787 0.031364065639442336 0.0
v 0.18870977824513013 0.03470313096207835 0.0
v 0.1908451906693622 0.03840177377596212 0.0
v 0.19240549819438954 0.04237737251245476 0.0
v 0.19335584612843362 0.04654111886526217 0.0
v 0.19367500526905057 0.050800001621246337 0.0
v 0.19335584612843362 0.05505888437723052 0.0
v 0.19240549819438954 0.059222630730037924 0.0
v 0.1908451906693622 0.06319822946653054 0.0
v 0.18870977824513013 0.06689687228041433 0.0
v 0.18604696250658787 0.07023593760305034 0.0
v 0.1829162263571639 0.07314083623277028 0.0
v 0.17938750526905056 0.07554667753438667 0.0
v 0.17553962504032034 0.07739971898875446 0.0
v 0.17145854095685228 0.07865856671184193 0.0
v 0.16723541769328265 0.07929510012569856 0.0
v 0.1629645928448185 0.07929510012569854 0.0
v 0.15874146958124893 0.07865856671184193 0.0
v 0.15466038549778086 0.07739971898875445 0.0
v 0.1508125052690506 0.07554667753438665 0.0
v 0.1472837841809373 0.07314083623277029 0.0
v 0.14415304803151333 0.07023593760305033 0.0
v 0.14149023229297106 0.06689687228041433 0.0
v 0.139354819868739 0.06319822946653056 0.0
v 0.13779451234371165 0.05922263073003791 0.0
v 0.13684416440966757 0.05505888437723051 0.0

vn -4.6403327127835281e-01 -2.2346664572988337e-01 8.5716730070211244e-01
vn -4.6403327127835275e-01 -2.2346664572988326e-01 8.5716730070211222e-01
vn -5.1503807491005404e-01 0.0000000000000000e+00 8.5716730070211222e-01
vn -1.1460675345204815e-01 -5.0212499506620456e-01 8.5716730070211222e-01
vn -2.5751903745502697e-01 -4.4603605678833957e-01 8.5716730070211222e-01
vn -3.2112098727537264e-01 -4.0267298163440823e-01 8.5716730070211233e-01
vn 1.1460675345204809e-01 -5.0212499506620456e-01 8.5716730070211222e-01
vn 1.1460675345204741e-01 -5.0212499506620467e-01 8.5716730070211222e-01
vn 4.6403327127835281e-01 -2.2346664572988334e-01 8.5716730070211244e-01
vn 4.6403327127835264e-01 -2.2346664572988328e-01 8.5716730070211222e-01
vn 3.2112098727537253e-01 -4.0267298163440823e-01 8.5716730070211233e-01
vn 4.6403327127835281e-01 2.2346664572988334e-01 8.5716730070211244e-01
vn 4.6403327127835264e-01 2.2346664572988328e-01 8.5716730070211222e-01
vn 5.1503807491005404e-01 6.3073972987761246e-17 8.5716730070211222e-01
vn 1.1460675345204809e-01 5.0212499506620456e-01 8.5716730070211222e-01
vn 1.1460675345204741e-01 5.0212499506620467e-01 8.5716730070211222e-01
vn 3.2112098727537253e-01 4.0267298163440823e-01 8.5716730070211233e-01
vn -3.2112098727537264e-01 4.0267298163440823e-01 8.5716730070211233e-01
vn -2.5751903745502697e-01 4.4603605678833957e-01 8.5716730070211222e-01
vn -1.1460675345204815e-01 5.0212499506620456e-01 8.5716730070211222e-01
vn -4.6403327127835281e-01 2.2346664572988337e-01 8.5716730070211244e-01
vn -4.6403327127835275e-01 2.2346664572988326e-01 8.5716730070211222e-01
vn 5.1503807491005404e-01 -6.3073972987761246e-17 8.5716730070211222e-01
vn 5.1503807491005404e-01 -6.3073972987761234e-17 8.5716730070211222e-01
vn 3.2112098727537314e-01 -4.0267298163440779e-01 8.5716730070211222e-01
vn -3.2112098727537314e-01 -4.0267298163440773e-01 8.5716730070211222e-01
vn -5.1503807491005404e-01 2.8590356466187908e-17 8.5716730070211222e-01
vn -1.1460675345204747e-01 5.0212499506620467e-01 8.5716730070211222e-01
vn 3.2112098727537314e-01 4.0267298163440779e-01 8.5716730070211222e-01
vn -9.0096886790241903e-01 -4.3388373911755834e-01 -0.0000000000000000e+00
vn -1.0000000000000000e+00 -0.0000000000000000e+00 -0.0000000000000000e+00
vn -9.0096886790241903e-01 4.3388373911755834e-01 0.0000000000000000e+00
vn -6.2348980185873248e-01 7.8183148246803069e-01 0.0000000000000000e+00
vn -2.2252093395631575e-01 9.7492791218182340e-01 0.0000000000000000e+00
vn 2.2252093395631564e-01 9.7492791218182340e-01 0.0000000000000000e+00
vn 6.2348980185873248e-01 7.8183148246803069e-01 0.0000000000000000e+00
vn 9.0096886790241903e-01 4.3388373911755823e-01 0.0000000000000000e+00
vn 1.0000000000000000e+00 1.2246467991473532e-16 0.0000000000000000e+00
vn 1.0000000000000000e+00 -1.2246467991473532e-16 0.0000000000000000e+00
vn 9.0096886790241903e-01 -4.3388373911755823e-01 0.0000000000000000e+00
vn 6.2348980185873248e-01 -7.8183148246803069e-01 0.0000000000000000e+00
vn 2.2252093395631564e-01 -9.7492791218182340e-01 0.0000000000000000e+00
vn -2.2252093395631575e-01 -9.7492791218182340e-01 -0.0000000000000000e+00
vn -6.2348980185873248e-01 -7.8183148246803069e-01 -0.0000000000000000e+00
vn 6.2348980185873393e-01 -7.8183148246802947e-01 0.0000000000000000e+00
vn 2.2252093395631106e-01 -9.7492791218182440e-01 0.0000000000000000e+00
vn -2.2252093395631098e-01 -9.7492791218182440e-01 0.0000000000000000e+00
vn -6.2348980185873359e-01 -7.8183148246802958e-01 0.0000000000000000e+00
vn -9.0096886790241903e-01 -4.3388373911755823e-01 0.0000000000000000e+00
vn -9.0096886790241903e-01 4.3388373911755823e-01 0.0000000000000000e+00
vn -6.2348980185873359e-01 7.8183148246802958e-01 0.0000000000000000e+00
vn -2.2252093395631098e-01 9.7492791218182440e-01 0.0000000000000000e+00
vn 2.2252093395631106e-01 9.7492791218182440e-01 -0.0000000000000000e+00
vn 6.2348980185873393e-01 7.8183148246802947e-01 -0.0000000000000000e+00
vn -9.8883082622512863e-01 1.4904226617617430e-01 -0.0000000000000000e+00
vn -1.0000000000000000e+00 1.2246467991473532e-16 -0.0000000000000000e+00
vn -1.0000000000000000e+00 -1.2246467991473532e-16 0.0000000000000000e+00
vn -9.8883082622512841e-01 -1.4904226617617469e-01 0.0000000000000000e+00
vn -9.5557280578614079e-01 -2.9475517441090421e-01 0.0000000000000000e+00
vn -9.0096886790241903e-01 -4.3388373911755818e-01 0.0000000000000000e+00
vn -8.2623877431599468e-01 -5.6332005806362218e-01 0.0000000000000000e+00
vn -7.3305187182982612e-01 -6.8017273777091980e-01 0.0000000000000000e+00
vn -6.2348980185873337e-01 -7.8183148246802991e-01 0.0000000000000000e+00
vn -4.9999999999999978e-01 -8.6602540378443871e-01 0.0000000000000000e+00
vn -3.6534102436639482e-01 -9.3087374864420436e-01 0.0000000000000000e+00
vn -2.2252093395631412e-01 -9.7492791218182351e-01 0.0000000000000000e+00
vn -7.4730093586424517e-02 -9.9720379718118024e-01 0.0000000000000000e+00
vn 7.4730093586424601e-02 -9.9720379718118024e-01 -0.0000000000000000e+00
vn 2.2252093395631398e-01 -9.7492791218182362e-01 -0.0000000000000000e+00
vn 3.6534102436639498e-01 -9.3087374864420425e-01 -0.0000000000000000e+00
vn 5.0000000000000044e-01 -8.6602540378443837e-01 -0.0000000000000000e+00
vn 6.2348980185873371e-01 -7.8183148246802980e-01 -0.0000000000000000e+00
vn 7.3305187182982623e-01 -6.8017273777091936e-01 -0.0000000000000000e+00
vn 8.2623877431599468e-01 -5.6332005806362218e-01 -0.0000000000000000e+00
vn 9.0096886790241903e-01 -4.3388373911755818e-01 -0.0000000000000000e+00
vn 9.5557280578614079e-01 -2.9475517441090415e-01 -0.0000000000000000e+00
vn 9.8883082622512863e-01 -1.4904226617617419e-01 -0.0000000000000000e+00
vn 1.0000000000000000e+00 -0.0000000000000000e+00 -0.0000000000000000e+00
vn 9.8883082622512841e-01 1.4904226617617450e-01 -0.0000000000000000e+00
vn 9.5557280578614057e-01 2.9475517441090449e-01 -0.0000000000000000e+00
vn 9.0096886790241915e-01 4.3388373911755801e-01 -0.0000000000000000e+00
vn 8.2623877431599468e-01 5.6332005806362229e-01 -0.0000000000000000e+00
vn 7.3305187182982634e-01 6.8017273777091958e-01 -0.0000000000000000e+00
vn 6.2348980185873371e-01 7.8183148246802980e-01 -0.0000000000000000e+00
vn 4.9999999999999922e-01 8.6602540378443904e-01 -0.0000000000000000e+00
vn 3.6534102436639476e-01 9.3087374864420436e-01 -0.0000000000000000e+00
vn 2.2252093395631398e-01 9.7492791218182362e-01 -0.0000000000000000e+00
vn 7.4730093586423268e-02 9.9720379718118024e-01 -0.0000000000000000e+00
vn -7.4730093586424517e-02 9.9720379718118024e-01 -0.0000000000000000e+00
vn -2.2252093395631412e-01 9.7492791218182351e-01 -0.0000000000000000e+00
vn -3.6534102436639548e-01 9.3087374864420391e-01 -0.0000000000000000e+00
vn -5.0000000000000022e-01 8.6602540378443849e-01 -0.0000000000000000e+00
vn -6.2348980185873337e-01 7.8183148246802991e-01 -0.0000000000000000e+00
vn -7.3305187182982656e-01 6.8017273777091902e-01 -0.0000000000000000e+00
vn -8.2623877431599502e-01 5.6332005806362184e-01 -0.0000000000000000e+00
vn -9.0096886790241903e-01 4.3388373911755818e-01 -0.0000000000000000e+00
vn -9.5557280578614079e-01 2.9475517441090376e-01 -0.0000000000000000e+00
vn 0.0000000000000000e+00 0.0000000000000000e+00 1.0000000000000000e+00
vn -0.0000000000000000e+00 -0.0000000000000000e+00 -1.0000000000000000e+00

g face 0
f 2//1 15//2 1//3
f 4//4 15//5 3//6
f 5//7 15//8 4//4
f 7//9 15//10 6//11
f 9//12 15//13 8//14
f 11//15 15//16 10//17
f 13//18 15//19 12//20
f 14//21 15//22 13//18
f 8//23 15//24 7//9
f 6//11 15//25 5//7
f 3//6 15//26 2//1
f 1//3 15//27 14//21
f 12//20 15//28 11//15
f 10//17 15//29 9//12

g face 1
f 17//30 2//30 16//31
f 16//31 2//30 1//31
f 16//31 1//31 29//32
f 29//32 1//31 14//32
f 29//32 14//32 28//33
f 28//33 14//32 13//33
f 28//33 13//33 27//34
f 27//34 13//33 12//34
f 27//34 12//34 26//35
f 26//35 12//34 11//35
f 26//35 11//35 25//36
f 25//36 11//35 10//36
f 25//36 10//36 24//37
f 24//37 10//36 9//37
f 24//37 9//37 23//38
f 23//38 9//37 8//38
f 23//39 8//39 22//40
f 22//40 8//39 7//40
f 22//40 7//40 21//41
f 21//41 7//40 6//41
f 21//41 6//41 20//42
f 20//42 6//41 5//42
f 20//42 5//42 19//43
f 19//43 5//42 4//43
f 19//43 4//43 18//44
f 18//44 4//43 3//44
f 18//44 3//44 17//30
f 17//30 3//44 2//30

g face 2
f 31//37 57//37 30//38
f 30//38 57//37 44//38
f 30//39 44//39 43//40
f 43//40 44//39 45//40
f 43//40 45//40 42//45
f 42//45 45//40 46//45
f 42//45 46//45 41//46
f 41//46 46//45 47//46
f 41//46 47//46 40//47
f 40//47 47//46 48//47
f 40//47 48//47 39//48
f 39//48 48//47 49//48
f 39//48 49//48 38//49
f 38//49 49//48 50//49
f 38//49 50//49 37//31
f 37//31 50//49 51//31
f 37//31 51//31 36//50
f 36//50 51//31 52//50
f 36//50 52//50 35//51
f 35//51 52//50 53//51
f 35//51 53//51 34//52
f 34//52 53//51 54//52
f 34//52 54//52 33//53
f 33//53 54//52 55//53
f 33//53 55//53 32//54
f 32//54 55//53 56//54
f 32//54 56//54 31//37
f 31//37 56//54 57//37

g face 3
f 59//55 141//55 58//56
f 58//56 141//55 100//56
f 58//57 100//57 99//58
f 99//58 100//57 101//58
f 99//58 101//58 98//59
f 98//59 101//58 102//59
f 98//59 102//59 97//60
f 97//60 102//59 103//60
f 97//60 103//60 96//61
f 96//61 103//60 104//61
f 96//61 104//61 95//62
f 95//62 104//61 105//62
f 95//62 105//62 94//63
f 94//63 105//62 106//63
f 94//63 106//63 93//64
f 93//64 106//63 107//64
f 93//64 107//64 92//65
f 92//65 107//64 108//65
f 92//65 108//65 91//66
f 91//66 108//65 109//66
f 91//66 109//66 90//67
f 90//67 109//66 110//67
f 90//67 110//67 89//68
f 89//68 110//67 111//68
f 89//68 111//68 88//69
f 88//69 111//68 112//69
f 88//69 112//69 87//70
f 87//70 112//69 113//70
f 87//70 113//70 86//71
f 86//71 113//70 114//71
f 86//71 114//71 85//72
f 85//72 114//71 115//72
f 85//72 115//72 84//73
f 84//73 115//72 116//73
f 84//73 116//73 83//74
f 83//74 116//73 117//74
f 83//74 117//74 82//75
f 82//75 117//74 118//75
f 82//75 118//75 81//76
f 81//76 118//75 119//76
f 81//76 119//76 80//77
f 80//77 119//76 120//77
f 80//77 120//77 79//78
f 79//78 120//77 121//78
f 79//78 121//78 78//79
f 78//79 121//78 122//79
f 78//79 122//79 77//80
f 77//80 122//79 123//80
f 77//80 123//80 76//81
f 76//81 123//80 124//81
f 76//81 124//81 75//82
f 75//82 124//81 125//82
f 75//82 125//82 74//83
f 74//83 125//82 126//83
f 74//83 126//83 73//84
f 73//84 126//83 127//84
f 73//84 127//84 72//85
f 72//85 127//84 128//85
f 72//85 128//85 71//86
f 71//86 128//85 129//86
f 71//86 129//86 70//87
f 70//87 129//86 130//87
f 70//87 130//87 69//88
f 69//88 130//87 131//88
f 69//88 131//88 68//89
f 68//89 131//88 132//89
f 68//89 132//89 67//90
f 67//90 132//89 133//90
f 67//90 133//90 66//91
f 66//91 133//90 134//91
f 66//91 134//91 65//92
f 65//92 134//91 135//92
f 65//92 135//92 64//93
f 64//93 135//92 136//93
f 64//93 136//93 63//94
f 63//94 136//93 137//94
f 63//94 137//94 62//95
f 62//95 137//94 138//95
f 62//95 138//95 61//96
f 61//96 138//95 139//96
f 61//96 139//96 60//97
f 60//97 139//96 140//97
f 60//97 140//97 59//55
f 59//55 140//97 141//55

g face 4
f 29//98 31//98 16//98
f 16//98 31//98 30//98
f 16//98 30//98 17//98
f 17//98 30//98 43//98
f 17//98 43//98 18//98
f 18//98 43//98 42//98
f 18//98 42//98 64//98
f 64//98 42//98 65//98
f 65//98 42//98 41//98
f 65//98 41//98 66//98
f 66//98 41//98 67//98
f 67//98 41//98 68//98
f 68//98 41//98 40//98
f 68//98 40//98 69//98
f 69//98 40//98 70//98
f 70//98 40//98 71//98
f 71//98 40//98 72//98
f 72//98 40//98 39//98
f 72//98 39//98 73//98
f 73//98 39//98 74//98
f 74//98 39//98 75//98
f 75//98 39//98 38//98
f 75//98 38//98 76//98
f 76//98 38//98 77//98
f 77//98 38//98 78//98
f 78//98 38//98 37//98
f 78//98 37//98 79//98
f 79//98 37//98 80//98
f 80//98 37//98 36//98
f 80//98 36//98 81//98
f 81//98 36//98 82//98
f 82//98 36//98 83//98
f 83//98 36//98 35//98
f 83//98 35//98 84//98
f 84//98 35//98 85//98
f 85//98 35//98 86//98
f 86//98 35//98 34//98
f 86//98 34//98 87//98
f 87//98 34//98 88//98
f 88//98 34//98 89//98
f 89//98 34//98 33//98
f 89//98 33//98 90//98
f 90//98 33//98 91//98
f 91//98 33//98 92//98
f 92//98 33//98 93//98
f 93//98 33//98 32//98
f 93//98 32//98 94//98
f 94//98 32//98 28//98
f 94//98 28//98 95//98
f 95//98 28//98 27//98
f 95//98 27//98 96//98
f 96//98 27//98 97//98
f 97//98 27//98 26//98
f 97//98 26//98 98//98
f 98//98 26//98 25//98
f 98//98 25//98 99//98
f 99//98 25//98 24//98
f 99//98 24//98 58//98
f 58//98 24//98 23//98
f 58//98 23//98 22//98
f 31//98 29//98 32//98
f 32//98 29//98 28//98
f 58//98 22//98 59//98
f 59//98 22//98 21//98
f 59//98 21//98 60//98
f 60//98 21//98 20//98
f 60//98 20//98 61//98
f 61//98 20//98 19//98
f 61//98 19//98 62//98
f 62//98 19//98 63//98
f 63//98 19//98 18//98
f 63//98 18//98 64//98

g face 5
f 57//99 101//99 44//99
f 44//99 101//99 100//99
f 44//99 100//99 141//99
f 56//99 104//99 57//99
f 57//99 104//99 103//99
f 57//99 103//99 102//99
f 55//99 107//99 56//99
f 56//99 107//99 106//99
f 56//99 106//99 105//99
f 54//99 110//99 55//99
f 55//99 110//99 109//99
f 55//99 109//99 108//99
f 53//99 114//99 54//99
f 54//99 114//99 113//99
f 54//99 113//99 112//99
f 52//99 117//99 53//99
f 53//99 117//99 116//99
f 53//99 116//99 115//99
f 51//99 120//99 52//99
f 52//99 120//99 119//99
f 52//99 119//99 118//99
f 50//99 122//99 51//99
f 51//99 122//99 121//99
f 51//99 121//99 120//99
f 49//99 125//99 50//99
f 50//99 125//99 124//99
f 50//99 124//99 123//99
f 48//99 128//99 49//99
f 49//99 128//99 127//99
f 49//99 127//99 126//99
f 47//99 131//99 48//99
f 48//99 131//99 130//99
f 48//99 130//99 129//99
f 46//99 135//99 47//99
f 47//99 135//99 134//99
f 47//99 134//99 133//99
f 45//99 138//99 46//99
f 46//99 138//99 137//99
f 46//99 137//99 136//99
f 44//99 141//99 45//99
f 45//99 141//99 140//99
f 45//99 140//99 139//99
f 139//99 138//99 45//99
f 136//99 135//99 46//99
f 133//99 132//99 47//99
f 47//99 132//99 131//99
f 129//99 128//99 48//99
f 126//99 125//99 49//99
f 123//99 122//99 50//99
f 118//99 117//99 52//99
f 115//99 114//99 53//99
f 112//99 111//99 54//99
f 54//99 111//99 110//99
f 108//99 107//99 55//99
f 105//99 104//99 56//99
f 102//99 101//99 57//99

g halfedge 0 edge 0
l 1 14 13 12 11 10 9 8 7 6 5 4 3 2 1

g halfedge 1 edge 0
l 1 2 3 4 5 6 7 8 9 10 11 12 13 14 1

g halfedge 2 edge 1
l

g halfedge 3 edge 2
l 16 29 28 27 26 25 24 23 22 21 20 19 18 17 16

g halfedge 4 edge 2
l 16 17 18 19 20 21 22 23 24 25 26 27 28 29 16

g halfedge 5 edge 3
l 30 31 32 33 34 35 36 37 38 39 40 41 42 43 30

g halfedge 6 edge 3
l 30 43 42 41 40 39 38 37 36 35 34 33 32 31 30

g halfedge 7 edge 4
l 44 45 46 47 48 49 50 51 52 53 54 55 56 57 44

g halfedge 8 edge 4
l 44 57 56 55 54 53 52 51 50 49 48 47 46 45 44

g halfedge 9 edge 5
l 58 59 60 61 62 63 64 65 66 67 68 69 70 71 72 73 74 75 76 77 78 79 80 81 82 83 84 85 86 87 88 89 90 91 92 93 94 95 96 97 98 99 58

g halfedge 10 edge 5
l 58 99 98 97 96 95 94 93 92 91 90 89 88 87 86 85 84 83 82 81 80 79 78 77 76 75 74 73 72 71 70 69 68 67 66 65 64 63 62 61 60 59 58

g halfedge 11 edge 6
l 100 101 102 103 104 105 106 107 108 109 110 111 112 113 114 115 116 117 118 119 120 121 122 123 124 125 126 127 128 129 130 131 132 133 134 135 136 137 138 139 140 141 100

g halfedge 12 edge 6
l 100 141 140 139 138 137 136 135 134 133 132 131 130 129 128 127 126 125 124 123 122 121 120 119 118 117 116 115 114 113 112 111 110 109 108 107 106 105 104 103 102 101 100

g vertex 0
p 1

g vertex 1
p 15

g vertex 2
p 16

g vertex 3
p 30

g vertex 4
p 44

g vertex 5
p 58

g vertex 6
p 100

# End of file
