# WaveFront *.obj file
# Vertices: 46
# Triangles : 88

v 0.020631149999999984 0.033337500000000006 0.0238252
v 0.020572281193664613 0.033337500000000006 0.02425350237421178
v 0.020400040804717533 0.033337500000000006 0.02465003952068125
v 0.020127203114859597 0.033337500000000006 0.02498540209329152
v 0.01977400324739819 0.033337500000000006 0.02523471778421377
v 0.01936663642072104 0.033337500000000006 0.02537949598919569
v 0.01893531516878357 0.033337500000000006 0.02540899917108998
v 0.018512028615678546 0.033337500000000006 0.025321039213863625
v 0.018128169988642636 0.033337500000000006 0.025122139705154076
v 0.01781220832600672 0.033337500000000006 0.024827052111617606
v 0.01758757705886008 0.033337500000000006 0.02445766173013091
v 0.01747093606066731 0.033337500000000006 0.02404136455544029
v 0.01747093606066731 0.033337500000000006 0.02360903544455971
v 0.01758757705886008 0.033337500000000006 0.02319273826986909
v 0.01781220832600672 0.033337500000000006 0.022823347888382393
v 0.018128169988642636 0.033337500000000006 0.022528260294845923
v 0.018512028615678546 0.033337500000000006 0.022329360786136374
v 0.01893531516878357 0.033337500000000006 0.02224140082891002
v 0.01936663642072104 0.033337500000000006 0.02227090401080431
v 0.01977400324739819 0.033337500000000006 0.022415682215786232
v 0.0201272031148596 0.033337500000000006 0.02266499790670848
v 0.020400040804717533 0.033337500000000006 0.02300036047931875
v 0.020572281193664613 0.033337500000000006 0.023396897625788223
v 0.020631149999999984 0.01905 0.0238252
v 0.020572281193664613 0.01905 0.023396897625788223
v 0.020400040804717533 0.01905 0.02300036047931875
v 0.0201272031148596 0.01905 0.02266499790670848
v 0.01977400324739819 0.01905 0.022415682215786232
v 0.01936663642072104 0.01905 0.02227090401080431
v 0.01893531516878357 0.01905 0.02224140082891002
v 0.018512028615678546 0.01905 0.022329360786136374
v 0.018128169988642636 0.01905 0.022528260294845923
v 0.01781220832600672 0.01905 0.022823347888382393
v 0.01758757705886008 0.01905 0.02319273826986909
v 0.01747093606066731 0.01905 0.02360903544455971
v 0.01747093606066731 0.01905 0.02404136455544029
v 0.01758757705886008 0.01905 0.02445766173013091
v 0.01781220832600672 0.01905 0.024827052111617606
v 0.018128169988642636 0.01905 0.025122139705154076
v 0.018512028615678546 0.01905 0.025321039213863625
v 0.01893531516878357 0.01905 0.02540899917108998
v 0.01936663642072104 0.01905 0.02537949598919569
v 0.01977400324739819 0.01905 0.02523471778421377
v 0.020127203114859597 0.01905 0.02498540209329152
v 0.020400040804717533 0.01905 0.02465003952068125
v 0.020572281193664613 0.01905 0.02425350237421178

vn 9.6291728734779891e-01 -0.0000000000000000e+00 2.6979677115702555e-01
vn 1.0000000000000000e+00 -0.0000000000000000e+00 1.2246467991473532e-16
vn 1.0000000000000000e+00 -0.0000000000000000e+00 -1.2246467991473532e-16
vn 9.6291728734779891e-01 -0.0000000000000000e+00 -2.6979677115702555e-01
vn 8.5441940454648824e-01 -0.0000000000000000e+00 -5.1958395003543434e-01
vn 6.8255314321865490e-01 -0.0000000000000000e+00 -7.3083596427812325e-01
vn 4.6006503773115209e-01 -0.0000000000000000e+00 -8.8788521840237522e-01
vn 2.0345601305263386e-01 -0.0000000000000000e+00 -9.7908408768232291e-01
vn -6.8242413364670573e-02 0.0000000000000000e+00 -9.9766876919053926e-01
vn -3.3487961217098694e-01 0.0000000000000000e+00 -9.4226092211882029e-01
vn -5.7668032211486664e-01 0.0000000000000000e+00 -8.1696989301044243e-01
vn -7.7571129070442013e-01 0.0000000000000000e+00 -6.3108794432605242e-01
vn -9.1721130150545283e-01 0.0000000000000000e+00 -3.9840108984624195e-01
vn -9.9068594603633098e-01 0.0000000000000000e+00 -1.3616664909624585e-01
vn -9.9068594603633098e-01 -0.0000000000000000e+00 1.3616664909624585e-01
vn -9.1721130150545283e-01 -0.0000000000000000e+00 3.9840108984624195e-01
vn -7.7571129070442013e-01 -0.0000000000000000e+00 6.3108794432605242e-01
vn -5.7668032211486664e-01 -0.0000000000000000e+00 8.1696989301044243e-01
vn -3.3487961217098694e-01 -0.0000000000000000e+00 9.4226092211882029e-01
vn -6.8242413364670573e-02 -0.0000000000000000e+00 9.9766876919053926e-01
vn 2.0345601305263386e-01 -0.0000000000000000e+00 9.7908408768232291e-01
vn 4.6006503773115209e-01 -0.0000000000000000e+00 8.8788521840237522e-01
vn 6.8255314321865368e-01 -0.0000000000000000e+00 7.3083596427812458e-01
vn 8.5441940454648824e-01 -0.0000000000000000e+00 5.1958395003543434e-01
vn 0.0000000000000000e+00 1.0000000000000000e+00 0.0000000000000000e+00
vn -0.0000000000000000e+00 -1.0000000000000000e+00 -0.0000000000000000e+00

g face 0
f 2//1 46//1 1//2
f 1//2 46//1 24//2
f 1//3 24//3 23//4
f 23//4 24//3 25//4
f 23//4 25//4 22//5
f 22//5 25//4 26//5
f 22//5 26//5 21//6
f 21//6 26//5 27//6
f 21//6 27//6 20//7
f 20//7 27//6 28//7
f 20//7 28//7 19//8
f 19//8 28//7 29//8
f 19//8 29//8 18//9
f 18//9 29//8 30//9
f 18//9 30//9 17//10
f 17//10 30//9 31//10
f 17//10 31//10 16//11
f 16//11 31//10 32//11
f 16//11 32//11 15//12
f 15//12 32//11 33//12
f 15//12 33//12 14//13
f 14//13 33//12 34//13
f 14//13 34//13 13//14
f 13//14 34//13 35//14
f 13//14 35//14 12//15
f 12//15 35//14 36//15
f 12//15 36//15 11//16
f 11//16 36//15 37//16
f 11//16 37//16 10//17
f 10//17 37//16 38//17
f 10//17 38//17 9//18
f 9//18 38//17 39//18
f 9//18 39//18 8//19
f 8//19 39//18 40//19
f 8//19 40//19 7//20
f 7//20 40//19 41//20
f 7//20 41//20 6//21
f 6//21 41//20 42//21
f 6//21 42//21 5//22
f 5//22 42//21 43//22
f 5//22 43//22 4//23
f 4//23 43//22 44//23
f 4//23 44//23 3//24
f 3//24 44//23 45//24
f 3//24 45//24 2//1
f 2//1 45//24 46//1

g face 1
f 1//25 23//25 2//25
f 2//25 23//25 3//25
f 3//25 23//25 22//25
f 3//25 22//25 4//25
f 4//25 22//25 21//25
f 4//25 21//25 5//25
f 5//25 21//25 20//25
f 5//25 20//25 6//25
f 6//25 20//25 19//25
f 6//25 19//25 7//25
f 7//25 19//25 8//25
f 8//25 19//25 9//25
f 9//25 19//25 10//25
f 10//25 19//25 11//25
f 11//25 19//25 12//25
f 12//25 19//25 13//25
f 13//25 19//25 14//25
f 14//25 19//25 15//25
f 15//25 19//25 16//25
f 16//25 19//25 17//25
f 17//25 19//25 18//25

g face 2
f 24//26 46//26 25//26
f 25//26 46//26 45//26
f 25//26 45//26 26//26
f 26//26 45//26 44//26
f 26//26 44//26 27//26
f 27//26 44//26 43//26
f 27//26 43//26 28//26
f 28//26 43//26 42//26
f 28//26 42//26 29//26
f 29//26 42//26 41//26
f 29//26 41//26 40//26
f 40//26 39//26 29//26
f 29//26 39//26 38//26
f 29//26 38//26 37//26
f 37//26 36//26 29//26
f 29//26 36//26 35//26
f 29//26 35//26 34//26
f 34//26 33//26 29//26
f 29//26 33//26 32//26
f 29//26 32//26 31//26
f 31//26 30//26 29//26

g halfedge 0 edge 0
l 1 2 3 4 5 6 7 8 9 10 11 12 13 14 15 16 17 18 19 20 21 22 23 1

g halfedge 1 edge 0
l 1 23 22 21 20 19 18 17 16 15 14 13 12 11 10 9 8 7 6 5 4 3 2 1

g halfedge 2 edge 1
l 24 25 26 27 28 29 30 31 32 33 34 35 36 37 38 39 40 41 42 43 44 45 46 24

g halfedge 3 edge 1
l 24 46 45 44 43 42 41 40 39 38 37 36 35 34 33 32 31 30 29 28 27 26 25 24

g vertex 0
p 1

g vertex 1
p 24

# End of file
