# WaveFront *.obj file
# Vertices: 97
# Triangles : 194

v -0.05556250162124634 0.06350000202655792 0.041275
v -0.05538589520224024 0.062215094903922595 0.041275
v -0.054869174035398996 0.06102548346451417 0.041275
v -0.05405066096582518 0.06001939574668336 0.041275
v -0.05299106136344095 0.05927144867391661 0.041275
v -0.05176896088340951 0.05883711405897086 0.041275
v -0.05047499712759709 0.05874860451328798 0.041275
v -0.04920513746828202 0.059012484384967034 0.041275
v -0.04805356158717428 0.05960918291109569 0.041275
v -0.04710567659926654 0.0604944456917051 0.041275
v -0.046431782797826615 0.06160261683616519 0.041275
v -0.04608185980324831 0.06285150836023705 0.041275
v -0.04608185980324831 0.0641484956928788 0.041275
v -0.046431782797826615 0.06539738721695064 0.041275
v -0.04710567659926654 0.06650555836141075 0.041275
v -0.04805356158717428 0.06739082114202016 0.041275
v -0.04920513746828202 0.06798751966814881 0.041275
v -0.05047499712759709 0.06825139953982787 0.041275
v -0.05176896088340951 0.06816288999414499 0.041275
v -0.05299106136344095 0.06772855537919924 0.041275
v -0.05405066096582518 0.06698060830643249 0.041275
v -0.054869174035398996 0.06597452058860168 0.041275
v -0.05538589520224024 0.06478490914919326 0.041275
v -0.05397500162124634 0.06350000202655792 0.0428625
v -0.053802971363645855 0.06453092284128278 0.0428625
v -0.053305522738579886 0.06545012738934762 0.0428625
v -0.05253656202328505 0.06615800559504145 0.0428625
v -0.05157941804291838 0.0665778478709153 0.0428625
v -0.05053781219937168 0.0666641577918541 0.0428625
v -0.04952461864797316 0.06640758233868774 0.0428625
v -0.048649632631334615 0.06583592544294511 0.0428625
v -0.04800767246116574 0.06501113499945063 0.0428625
v -0.0476683044829427 0.06402258985069925 0.0428625
v -0.0476683044829427 0.06297741420241659 0.0428625
v -0.04800767246116574 0.06198886905366521 0.0428625
v -0.048649632631334615 0.06116407861017074 0.0428625
v -0.04952461864797316 0.060592421714428114 0.0428625
v -0.05053781219937168 0.06033584626126175 0.0428625
v -0.05157941804291838 0.06042215618220055 0.0428625
v -0.05253656202328505 0.06084199845807439 0.0428625
v -0.053305522738579886 0.061549876663768224 0.0428625
v -0.053802971363645855 0.062469081211833054 0.0428625
v -0.05556250162124634 0.06350000202655792 0.0
v -0.05538589520224024 0.062215094903922595 0.0
v -0.054869174035398996 0.06102548346451417 0.0
v -0.05405066096582518 0.06001939574668336 0.0
v -0.05299106136344095 0.05927144867391661 0.0
v -0.05176896088340951 0.05883711405897086 0.0
v -0.05047499712759709 0.05874860451328798 0.0
v -0.04920513746828202 0.059012484384967034 0.0
v -0.04805356158717428 0.05960918291109569 0.0
v -0.04710567659926654 0.0604944456917051 0.0
v -0.046431782797826615 0.06160261683616519 0.0
v -0.04608185980324831 0.06285150836023705 0.0
v -0.04608185980324831 0.0641484956928788 0.0
v -0.046431782797826615 0.06539738721695064 0.0
v -0.04710567659926654 0.06650555836141075 0.0
v -0.04805356158717428 0.06739082114202016 0.0
v -0.04920513746828202 0.06798751966814881 0.0
v -0.05047499712759709 0.06825139953982787 0.0
v -0.05176896088340951 0.06816288999414499 0.0
v -0.05299106136344095 0.06772855537919924 0.0
v -0.05405066096582518 0.06698060830643249 0.0
v -0.054869174035398996 0.06597452058860168 0.0
v -0.05538589520224024 0.06478490914919326 0.0
v -0.046038712502551045 0.06339261404681314 0.03730261365316159
v -0.0460609834423302 0.06397211864483536 0.03715016411602789
v -0.046132660164942656 0.06444723642783029 0.03680285571012312
v -0.046208841455677434 0.0647659738658285 0.03630174165231703
v -0.046241115361492204 0.06487766755948854 0.03571875000000002
v -0.04620884145567744 0.06476597386582851 0.03513575834768301
v -0.04613266016494267 0.0644472364278303 0.03463464428987691
v -0.0460609834423302 0.06397211864483535 0.03428733588397214
v -0.046038712502551045 0.06339261404681314 0.03413488634683845
v -0.04609623768730984 0.06275465766388318 0.03422303586567485
v -0.046217146887052085 0.06220433533027941 0.03455959844837975
v -0.04633729338244987 0.061836984939494445 0.03508288764901022
v -0.04638864724924294 0.0617051875919696 0.03571875000000001
v -0.046337293382449865 0.061836984939494445 0.03635461235098983
v -0.04621714688705209 0.0622043353302794 0.0368779015516203
v -0.04609623768730984 0.06275465766388318 0.037214464134325186
v -0.05528779088922392 0.06190590236335451 0.03571875000000002
v -0.05532943646388016 0.06202839533260329 0.03510959729868584
v -0.05542717406651234 0.0623727569794149 0.03459759465426513
v -0.055522748477270394 0.06288594330882406 0.034254380064529265
v -0.05556249956505391 0.06349577491402948 0.03413125595759293
v -0.05552382901853134 0.06410569207786486 0.03425163542360241
v -0.05542924683886084 0.06461870438070003 0.03459510970739958
v -0.055332926495486365 0.06496082314265364 0.03510875346590278
v -0.0552921388039816 0.06508180788742937 0.03571875000000002
v -0.055332926495486365 0.06496082314265364 0.03632874653409727
v -0.05542924683886085 0.06461870438070003 0.03684239029260046
v -0.05552382901853134 0.06410569207786485 0.037185864576397644
v -0.055562499565053915 0.0634957749140295 0.037306244042407115
v -0.05552274847727039 0.06288594330882405 0.03718311993547078
v -0.05542717406651234 0.062372756979414884 0.03683990534573491
v -0.05532943646388016 0.062028395332603285 0.036327902701314196

vn -6.8088534360538433e-01 1.9077512642736669e-01 7.0710678118654757e-01
vn -7.0710678118654746e-01 8.6595605623549316e-17 7.0710678118654746e-01
vn -7.0710678118654757e-01 8.6595605623549316e-17 7.0710678118654757e-01
vn -7.0710678118654757e-01 -8.6595605623549316e-17 7.0710678118654757e-01
vn -7.0710678118654746e-01 -8.6595605623549316e-17 7.0710678118654746e-01
vn -6.8088534360538433e-01 -1.9077512642736669e-01 7.0710678118654757e-01
vn -6.6879378536967482e-01 -2.2959719652230376e-01 7.0710678118654768e-01
vn -6.0416575493219404e-01 -3.6740133446574758e-01 7.0710678118654757e-01
vn -5.5800660550319592e-01 -4.3431397423384938e-01 7.0710678118654768e-01
vn -4.8263795609010263e-01 -5.1677906627607129e-01 7.0710678118654746e-01
vn -3.8675075156585997e-01 -5.9196609376149445e-01 7.0710678118654757e-01
vn -3.2531510796654284e-01 -6.2782965884761821e-01 7.0710678118654757e-01
vn -1.7358445264014274e-01 -6.8546950172974297e-01 7.0710678118654757e-01
vn -1.4386512650269609e-01 -6.9231699775201472e-01 7.0710678118654757e-01
vn 5.8392415169433637e-02 -7.0469165303037362e-01 7.0710678118654746e-01
vn 4.8254673254694347e-02 -7.0545835207266683e-01 7.0710678118654757e-01
vn 2.3679564464722519e-01 -6.6627908767730737e-01 7.0710678118654746e-01
vn 2.8404155874372428e-01 -6.4754952930755449e-01 7.0710678118654746e-01
vn 4.0777456634426473e-01 -5.7768495137293197e-01 7.0710678118654746e-01
vn 4.7891039206924413e-01 -5.2023536631805689e-01 7.0710678118654746e-01
vn 5.4851071390006423e-01 -4.4624656495803067e-01 7.0710678118654757e-01
vn 6.2188185335367863e-01 -3.3654562910457425e-01 7.0710678118654768e-01
vn 6.4856633107544448e-01 -2.8171211226238901e-01 7.0710678118654768e-01
vn 6.9746276633606674e-01 -1.1638595093412786e-01 7.0710678118654757e-01
vn 7.0052075046849949e-01 -9.6284360947404404e-02 7.0710678118654768e-01
vn 7.0052075046849949e-01 9.6284360947404404e-02 7.0710678118654768e-01
vn 6.9746276633606674e-01 1.1638595093412786e-01 7.0710678118654757e-01
vn 6.4856633107544504e-01 2.8171211226238790e-01 7.0710678118654757e-01
vn 6.2188185335367863e-01 3.3654562910457425e-01 7.0710678118654768e-01
vn 5.4851071390006423e-01 4.4624656495803067e-01 7.0710678118654757e-01
vn 4.7891039206924413e-01 5.2023536631805689e-01 7.0710678118654746e-01
vn 4.0777456634426473e-01 5.7768495137293197e-01 7.0710678118654746e-01
vn 2.8404155874372428e-01 6.4754952930755449e-01 7.0710678118654746e-01
vn 2.3679564464722519e-01 6.6627908767730737e-01 7.0710678118654746e-01
vn 5.8392415169433637e-02 7.0469165303037362e-01 7.0710678118654746e-01
vn 4.8254673254694347e-02 7.0545835207266683e-01 7.0710678118654757e-01
vn -1.4386512650269609e-01 6.9231699775201472e-01 7.0710678118654757e-01
vn -1.7358445264014274e-01 6.8546950172974297e-01 7.0710678118654757e-01
vn -3.2531510796654284e-01 6.2782965884761821e-01 7.0710678118654757e-01
vn -3.8675075156585997e-01 5.9196609376149445e-01 7.0710678118654757e-01
vn -4.8263795609010263e-01 5.1677906627607129e-01 7.0710678118654746e-01
vn -5.5800660550319592e-01 4.3431397423384938e-01 7.0710678118654768e-01
vn -6.0416575493219404e-01 3.6740133446574758e-01 7.0710678118654757e-01
vn -6.6879378536967482e-01 2.2959719652230376e-01 7.0710678118654768e-01
vn -9.6291728734779947e-01 -2.6979677115702383e-01 0.0000000000000000e+00
vn -9.9165288916825567e-01 -1.2893621447929690e-01 0.0000000000000000e+00
vn -1.0000000000000000e+00 -1.2246467991473532e-16 0.0000000000000000e+00
vn -9.9999960609838279e-01 -8.8758271672841147e-04 0.0000000000000000e+00
vn -1.0000000000000000e+00 1.2246467991473532e-16 -0.0000000000000000e+00
vn -9.9999960609838279e-01 -8.8758271672816655e-04 0.0000000000000000e+00
vn -9.9187978010013766e-01 1.2717901489043854e-01 -0.0000000000000000e+00
vn -8.5441940454648835e-01 -5.1958395003543389e-01 0.0000000000000000e+00
vn -9.4231795653072614e-01 -3.3471908938654293e-01 0.0000000000000000e+00
vn -9.5106243403651336e-01 -3.0899878084636950e-01 0.0000000000000000e+00
vn -9.7158476574136277e-01 -2.3669187349653795e-01 0.0000000000000000e+00
vn -6.8255314321865346e-01 -7.3083596427812458e-01 0.0000000000000000e+00
vn -9.5106243403651280e-01 -3.0899878084637117e-01 0.0000000000000000e+00
vn -9.7158476574136188e-01 -2.3669187349654142e-01 0.0000000000000000e+00
vn -9.9165288916825545e-01 -1.2893621447929865e-01 0.0000000000000000e+00
vn -9.9999960609838301e-01 -8.8758271672485887e-04 0.0000000000000000e+00
vn -9.9187978010013833e-01 1.2717901489043434e-01 -0.0000000000000000e+00
vn -9.9187978010013822e-01 1.2717901489043459e-01 -0.0000000000000000e+00
vn -9.6291728734779947e-01 2.6979677115702383e-01 -0.0000000000000000e+00
vn -9.7201999337196354e-01 2.3489813214491051e-01 -0.0000000000000000e+00
vn -9.5179524921079728e-01 3.0673409262707702e-01 -0.0000000000000000e+00
vn -9.4323090451134195e-01 3.3213771356880811e-01 -0.0000000000000000e+00
vn -8.5441940454648835e-01 5.1958395003543389e-01 -0.0000000000000000e+00
vn -6.8255314321865346e-01 7.3083596427812458e-01 -0.0000000000000000e+00
vn -4.6006503773115259e-01 8.8788521840237511e-01 -0.0000000000000000e+00
vn -2.0345601305263383e-01 9.7908408768232280e-01 -0.0000000000000000e+00
vn 6.8242413364671003e-02 9.9766876919053926e-01 -0.0000000000000000e+00
vn 3.3487961217098583e-01 9.4226092211882062e-01 -0.0000000000000000e+00
vn 5.7668032211486675e-01 8.1696989301044232e-01 -0.0000000000000000e+00
vn 7.7571129070441935e-01 6.3108794432605331e-01 -0.0000000000000000e+00
vn 9.1721130150545327e-01 3.9840108984624084e-01 -0.0000000000000000e+00
vn 9.5724645874102443e-01 2.8927360271509051e-01 -0.0000000000000000e+00
vn 9.6402249191973488e-01 2.6582068217665977e-01 -0.0000000000000000e+00
vn 9.9068594603633087e-01 1.3616664909624573e-01 -0.0000000000000000e+00
vn 9.8002086627436336e-01 1.9889469994659542e-01 -0.0000000000000000e+00
vn 9.9507423454736321e-01 9.9132576582973905e-02 -0.0000000000000000e+00
vn 9.9974574670767591e-01 -2.2548657164259193e-02 -0.0000000000000000e+00
vn 9.9068594603633087e-01 -1.3616664909624573e-01 -0.0000000000000000e+00
vn 9.8767726385509846e-01 -1.5650438480664450e-01 -0.0000000000000000e+00
vn 9.6228125734222392e-01 -2.7205657824774004e-01 -0.0000000000000000e+00
vn 9.1721130150545260e-01 -3.9840108984624245e-01 -0.0000000000000000e+00
vn 9.3705192081002953e-01 -3.4919005957534666e-01 -0.0000000000000000e+00
vn 9.2626863454139408e-01 -3.7686392327313778e-01 -0.0000000000000000e+00
vn 9.3705192081002930e-01 -3.4919005957534721e-01 -0.0000000000000000e+00
vn 9.6228125734222447e-01 -2.7205657824773788e-01 -0.0000000000000000e+00
vn 9.8767726385509813e-01 -1.5650438480664633e-01 -0.0000000000000000e+00
vn 9.9507423454736343e-01 9.9132576582972046e-02 -0.0000000000000000e+00
vn 9.8002086627436302e-01 1.9889469994659753e-01 -0.0000000000000000e+00
vn 9.6402249191973421e-01 2.6582068217666194e-01 -0.0000000000000000e+00
vn -4.6006503773115259e-01 -8.8788521840237511e-01 0.0000000000000000e+00
vn -2.0345601305263383e-01 -9.7908408768232280e-01 0.0000000000000000e+00
vn 6.8242413364671003e-02 -9.9766876919053926e-01 -0.0000000000000000e+00
vn 3.3487961217098583e-01 -9.4226092211882062e-01 -0.0000000000000000e+00
vn 5.7668032211486675e-01 -8.1696989301044232e-01 -0.0000000000000000e+00
vn 7.7571129070441935e-01 -6.3108794432605331e-01 -0.0000000000000000e+00
vn -9.7201999337196376e-01 2.3489813214490923e-01 -0.0000000000000000e+00
vn 0.0000000000000000e+00 0.0000000000000000e+00 1.0000000000000000e+00
vn -9.7478552196456538e-03 -4.3219322216711925e-01 9.0172833937468100e-01
vn -8.6133470902150164e-03 -3.8189223666979394e-01 9.2416672187611570e-01
vn -1.5253258197344931e-03 -6.7628772281835892e-02 9.9770938781831431e-01
vn 6.0025481184419433e-05 2.6613655558793050e-03 9.9999645675888249e-01
vn 7.5526794799172150e-03 3.3486513770150378e-01 9.4223579670103097e-01
vn 8.7070663271248717e-03 3.8604749114029013e-01 9.2243781447871198e-01
vn 1.5406127808416759e-02 6.8306554299441258e-01 7.3019457352112604e-01
vn 1.5963838399179323e-02 7.0779290422692409e-01 7.0623959149114612e-01
vn 2.0660806114993033e-02 9.1604359792016299e-01 4.0054619933306240e-01
vn 2.0822562484070238e-02 9.2321543262454353e-01 3.8371823758517654e-01
vn 2.2548657164259203e-02 9.9974574670767602e-01 1.2246467991473530e-16
vn 2.2548657164259203e-02 9.9974574670767602e-01 -1.2246467991473532e-16
vn 2.0822562484070339e-02 9.2321543262454497e-01 -3.8371823758517276e-01
vn -1.5928550951884127e-02 -7.0622835538977291e-01 7.0780491048595451e-01
vn -1.6471625386565377e-02 -7.3030678951838446e-01 6.8292069725589277e-01
vn -2.0817578063156442e-02 -9.2299443704276074e-01 3.8424978546734617e-01
vn -2.0973081409292917e-02 -9.2988902982344190e-01 3.6724177604163871e-01
vn -2.2548657164259203e-02 -9.9974574670767602e-01 -4.9442309227683075e-16
vn -2.2548657164259203e-02 -9.9974574670767602e-01 -6.1920997505692518e-18
vn -2.0973081409292837e-02 -9.2988902982344113e-01 -3.6724177604164066e-01
vn -2.0817578063156369e-02 -9.2299443704276041e-01 -3.8424978546734706e-01
vn -1.6471625386565266e-02 -7.3030678951838468e-01 -6.8292069725589266e-01
vn -1.5928550951884057e-02 -7.0622835538977513e-01 -7.0780491048595229e-01
vn -9.7478552196456486e-03 -4.3219322216712586e-01 -9.0172833937467778e-01
vn -8.6133470902145931e-03 -3.8189223666978217e-01 -9.2416672187612048e-01
vn -1.5253258197343270e-03 -6.7628772281836114e-02 -9.9770938781831431e-01
vn 6.0025481184340273e-05 2.6613655558682019e-03 -9.9999645675888249e-01
vn 7.5526794799173035e-03 3.3486513770150056e-01 -9.4223579670103197e-01
vn 8.7070663271251493e-03 3.8604749114029546e-01 -9.2243781447870976e-01
vn 1.5406127808416915e-02 6.8306554299441413e-01 -7.3019457352112449e-01
vn 1.5963838399179558e-02 7.0779290422692931e-01 -7.0623959149114124e-01
vn 2.0660806114993078e-02 9.1604359792016188e-01 -4.0054619933306490e-01
vn -0.0000000000000000e+00 -0.0000000000000000e+00 -1.0000000000000000e+00

g face 0
f 23//1 1//2 24//3
f 24//4 1//5 2//6
f 24//4 2//6 42//7
f 42//7 2//6 3//8
f 42//7 3//8 41//9
f 41//9 3//8 4//10
f 41//9 4//10 40//11
f 40//11 4//10 5//12
f 40//11 5//12 39//13
f 39//13 5//12 6//14
f 39//13 6//14 38//15
f 38//15 6//14 7//16
f 38//15 7//16 8//17
f 38//15 8//17 37//18
f 37//18 8//17 9//19
f 37//18 9//19 36//20
f 36//20 9//19 10//21
f 36//20 10//21 35//22
f 35//22 10//21 11//23
f 35//22 11//23 34//24
f 34//24 11//23 12//25
f 34//24 12//25 13//26
f 34//24 13//26 33//27
f 33//27 13//26 14//28
f 33//27 14//28 32//29
f 32//29 14//28 15//30
f 32//29 15//30 31//31
f 31//31 15//30 16//32
f 31//31 16//32 30//33
f 30//33 16//32 17//34
f 30//33 17//34 29//35
f 29//35 17//34 18//36
f 29//35 18//36 19//37
f 29//35 19//37 28//38
f 28//38 19//37 20//39
f 28//38 20//39 27//40
f 27//40 20//39 21//41
f 27//40 21//41 26//42
f 26//42 21//41 22//43
f 26//42 22//43 25//44
f 25//44 22//43 23//1
f 25//44 23//1 24//3

g face 1
f 44//45 85//46 43//47
f 43//47 85//46 86//48
f 43//49 86//50 87//51
f 45//52 82//53 44//45
f 44//45 82//53 83//54
f 44//45 83//54 84//55
f 46//56 4//56 45//52
f 45//52 4//56 3//52
f 45//52 3//52 82//53
f 82//53 3//52 2//45
f 82//53 2//45 97//57
f 97//57 2//45 96//58
f 96//58 2//45 95//59
f 95//59 2//45 1//47
f 95//59 1//47 94//60
f 94//60 1//47 93//61
f 93//62 1//49 23//63
f 93//62 23//63 92//64
f 92//64 23//63 91//65
f 91//65 23//63 90//66
f 90//66 23//63 22//67
f 90//66 22//67 64//67
f 64//67 22//67 63//68
f 63//68 22//67 21//68
f 63//68 21//68 62//69
f 62//69 21//68 20//69
f 62//69 20//69 61//70
f 61//70 20//69 19//70
f 61//70 19//70 60//71
f 60//71 19//70 18//71
f 60//71 18//71 59//72
f 59//72 18//71 17//72
f 59//72 17//72 58//73
f 58//73 17//72 16//73
f 58//73 16//73 57//74
f 57//74 16//73 15//74
f 57//74 15//74 56//75
f 56//75 15//74 14//75
f 56//75 14//75 70//76
f 70//76 14//75 69//77
f 69//77 14//75 13//78
f 69//77 13//78 68//79
f 68//79 13//78 67//80
f 67//80 13//78 66//81
f 66//81 13//78 12//82
f 66//81 12//82 81//83
f 81//83 12//82 80//84
f 80//84 12//82 11//85
f 80//84 11//85 79//86
f 79//86 11//85 78//87
f 78//87 11//85 53//85
f 78//87 53//85 77//88
f 77//88 53//85 76//89
f 76//89 53//85 54//82
f 76//89 54//82 75//90
f 75//90 54//82 74//81
f 74//81 54//82 55//78
f 74//81 55//78 73//91
f 73//91 55//78 72//92
f 72//92 55//78 71//93
f 71//93 55//78 56//75
f 71//93 56//75 70//76
f 4//56 46//56 5//94
f 5//94 46//56 47//94
f 5//94 47//94 6//95
f 6//95 47//94 48//95
f 6//95 48//95 7//96
f 7//96 48//95 49//96
f 7//96 49//96 8//97
f 8//97 49//96 50//97
f 8//97 50//97 9//98
f 9//98 50//97 51//98
f 9//98 51//98 10//99
f 10//99 51//98 52//99
f 10//99 52//99 11//85
f 11//85 52//99 53//85
f 64//67 65//63 90//66
f 90//66 65//63 89//65
f 89//65 65//63 88//100
f 88//100 65//63 87//51
f 87//51 65//63 43//49
f 84//55 85//46 44//45

g face 2
f 24//101 42//101 25//101
f 25//101 42//101 26//101
f 26//101 42//101 41//101
f 26//101 41//101 27//101
f 27//101 41//101 40//101
f 27//101 40//101 28//101
f 28//101 40//101 39//101
f 28//101 39//101 29//101
f 29//101 39//101 38//101
f 29//101 38//101 30//101
f 30//101 38//101 31//101
f 31//101 38//101 32//101
f 32//101 38//101 33//101
f 33//101 38//101 34//101
f 34//101 38//101 35//101
f 35//101 38//101 36//101
f 36//101 38//101 37//101

g face 3
f 73//102 87//103 74//104
f 74//104 87//103 86//105
f 74//104 86//105 75//106
f 75//106 86//105 85//107
f 75//106 85//107 76//108
f 76//108 85//107 84//109
f 76//108 84//109 77//110
f 77//110 84//109 83//111
f 77//110 83//111 78//112
f 78//112 83//111 82//112
f 78//113 82//113 97//114
f 87//103 73//102 88//115
f 88//115 73//102 72//116
f 88//115 72//116 89//117
f 89//117 72//116 71//118
f 89//117 71//118 90//119
f 90//119 71//118 70//120
f 90//119 70//120 69//121
f 90//119 69//121 91//122
f 91//122 69//121 68//123
f 91//122 68//123 92//124
f 92//124 68//123 67//125
f 92//124 67//125 93//126
f 93//126 67//125 66//127
f 93//126 66//127 94//128
f 94//128 66//127 81//129
f 94//128 81//129 95//130
f 95//130 81//129 80//131
f 95//130 80//131 96//132
f 96//132 80//131 79//133
f 96//132 79//133 97//114
f 97//114 79//133 78//113

g face 4
f 43//134 65//134 44//134
f 44//134 65//134 64//134
f 44//134 64//134 45//134
f 45//134 64//134 63//134
f 45//134 63//134 46//134
f 46//134 63//134 62//134
f 46//134 62//134 47//134
f 47//134 62//134 61//134
f 47//134 61//134 48//134
f 48//134 61//134 60//134
f 48//134 60//134 59//134
f 59//134 58//134 48//134
f 48//134 58//134 57//134
f 48//134 57//134 56//134
f 56//134 55//134 48//134
f 48//134 55//134 54//134
f 48//134 54//134 53//134
f 53//134 52//134 48//134
f 48//134 52//134 51//134
f 48//134 51//134 50//134
f 50//134 49//134 48//134

g halfedge 0 edge 0
l 1 23 22 21 20 19 18 17 16 15 14 13 12 11 10 9 8 7 6 5 4 3 2 1

g halfedge 1 edge 0
l 1 2 3 4 5 6 7 8 9 10 11 12 13 14 15 16 17 18 19 20 21 22 23 1

g halfedge 2 edge 1
l 24 42 41 40 39 38 37 36 35 34 33 32 31 30 29 28 27 26 25 24

g halfedge 3 edge 1
l 24 25 26 27 28 29 30 31 32 33 34 35 36 37 38 39 40 41 42 24

g halfedge 4 edge 2
l 43 44 45 46 47 48 49 50 51 52 53 54 55 56 57 58 59 60 61 62 63 64 65 43

g halfedge 5 edge 2
l 43 65 64 63 62 61 60 59 58 57 56 55 54 53 52 51 50 49 48 47 46 45 44 43

g halfedge 6 edge 3
l 66 67 68 69 70 71 72 73 74

g halfedge 7 edge 3
l 74 73 72 71 70 69 68 67 66

g halfedge 8 edge 4
l 74 75 76 77 78 79 80 81 66

g halfedge 9 edge 4
l 66 81 80 79 78 77 76 75 74

g halfedge 10 edge 5
l 82 83 84 85 86 87 88 89 90 91 92 93 94 95 96 97 82

g halfedge 11 edge 5
l 82 97 96 95 94 93 92 91 90 89 88 87 86 85 84 83 82

g vertex 0
p 1

g vertex 1
p 24

g vertex 2
p 43

g vertex 3
p 66

g vertex 4
p 74

g vertex 5
p 82

# End of file
