# WaveFront *.obj file
# Vertices: 46
# Triangles : 88

v 0.01016 0.10160000324249267 -0.05986780194549561
v 0.01016 0.10189467527595039 -0.059908303684254344
v 0.01016 0.10216749283272139 -0.06002680507184994
v 0.01016 0.10239822228267725 -0.0602145174024722
v 0.01016 0.10256975147803175 -0.06045751891128564
v 0.01016 0.10266935888305931 -0.060737787288039524
v 0.01016 0.10268965707220257 -0.0610345363093725
v 0.01016 0.10262914062163087 -0.061325757457908754
v 0.01016 0.10249229775963867 -0.06158985219330946
v 0.01016 0.10228927749528559 -0.06180723381720297
v 0.01016 0.10203513691282273 -0.06196178012899986
v 0.01016 0.1017487244566356 -0.06204202913575649
v 0.01016 0.10145128202834976 -0.06204202913575649
v 0.01016 0.10116486957216263 -0.06196178012899986
v 0.01016 0.10091072898969977 -0.06180723381720297
v 0.01016 0.10070770872534668 -0.06158985219330946
v 0.01016 0.1005708658633545 -0.061325757457908754
v 0.01016 0.10051034941278278 -0.0610345363093725
v 0.01016 0.10053064760192605 -0.060737787288039524
v 0.01016 0.1006302550069536 -0.06045751891128564
v 0.01016 0.1008017842023081 -0.06021451740247219
v 0.01016 0.10103251365226397 -0.06002680507184994
v 0.01016 0.10130533120903497 -0.059908303684254344
v 0.0 0.10160000324249267 -0.05986780194549561
v 0.0 0.10130533120903497 -0.059908303684254344
v 0.0 0.10103251365226397 -0.06002680507184994
v 0.0 0.1008017842023081 -0.06021451740247219
v 0.0 0.1006302550069536 -0.06045751891128564
v 0.0 0.10053064760192605 -0.060737787288039524
v 0.0 0.10051034941278278 -0.0610345363093725
v 0.0 0.1005708658633545 -0.061325757457908754
v 0.0 0.10070770872534668 -0.06158985219330946
v 0.0 0.10091072898969977 -0.06180723381720297
v 0.0 0.10116486957216263 -0.06196178012899986
v 0.0 0.10145128202834976 -0.06204202913575649
v 0.0 0.1017487244566356 -0.06204202913575649
v 0.0 0.10203513691282273 -0.06196178012899986
v 0.0 0.10228927749528559 -0.06180723381720297
v 0.0 0.10249229775963867 -0.06158985219330946
v 0.0 0.10262914062163087 -0.061325757457908754
v 0.0 0.10268965707220257 -0.0610345363093725
v 0.0 0.10266935888305931 -0.060737787288039524
v 0.0 0.10256975147803175 -0.06045751891128564
v 0.0 0.10239822228267725 -0.0602145174024722
v 0.0 0.10216749283272139 -0.06002680507184994
v 0.0 0.10189467527595039 -0.059908303684254344

vn -0.0000000000000000e+00 2.6979677115702982e-01 9.6291728734779769e-01
vn -0.0000000000000000e+00 1.2246467991473532e-16 1.0000000000000000e+00
vn -0.0000000000000000e+00 -1.2246467991473532e-16 1.0000000000000000e+00
vn -0.0000000000000000e+00 -2.6979677115702982e-01 9.6291728734779769e-01
vn -0.0000000000000000e+00 -5.1958395003543911e-01 8.5441940454648524e-01
vn -0.0000000000000000e+00 -7.3083596427812603e-01 6.8255314321865190e-01
vn -0.0000000000000000e+00 -8.8788521840237400e-01 4.6006503773115442e-01
vn -0.0000000000000000e+00 -9.7908408768232325e-01 2.0345601305263211e-01
vn 0.0000000000000000e+00 -9.9766876919053915e-01 -6.8242413364672558e-02
vn 0.0000000000000000e+00 -9.4226092211882173e-01 -3.3487961217098250e-01
vn 0.0000000000000000e+00 -8.1696989301044143e-01 -5.7668032211486797e-01
vn 0.0000000000000000e+00 -6.3108794432605442e-01 -7.7571129070441847e-01
vn 0.0000000000000000e+00 -3.9840108984623657e-01 -9.1721130150545516e-01
vn 0.0000000000000000e+00 -1.3616664909624981e-01 -9.9068594603633031e-01
vn -0.0000000000000000e+00 1.3616664909624981e-01 -9.9068594603633031e-01
vn -0.0000000000000000e+00 3.9840108984623657e-01 -9.1721130150545516e-01
vn -0.0000000000000000e+00 6.3108794432605442e-01 -7.7571129070441847e-01
vn -0.0000000000000000e+00 8.1696989301044143e-01 -5.7668032211486797e-01
vn -0.0000000000000000e+00 9.4226092211882173e-01 -3.3487961217098250e-01
vn -0.0000000000000000e+00 9.9766876919053915e-01 -6.8242413364672558e-02
vn -0.0000000000000000e+00 9.7908408768232325e-01 2.0345601305263211e-01
vn -0.0000000000000000e+00 8.8788521840237400e-01 4.6006503773115442e-01
vn -0.0000000000000000e+00 7.3083596427813002e-01 6.8255314321864780e-01
vn -0.0000000000000000e+00 5.1958395003543911e-01 8.5441940454648524e-01
vn 1.0000000000000000e+00 0.0000000000000000e+00 0.0000000000000000e+00
vn -1.0000000000000000e+00 -0.0000000000000000e+00 -0.0000000000000000e+00

g face 0
f 2//1 46//1 1//2
f 1//2 46//1 24//2
f 1//3 24//3 23//4
f 23//4 24//3 25//4
f 23//4 25//4 22//5
f 22//5 25//4 26//5
f 22//5 26//5 21//6
f 21//6 26//5 27//6
f 21//6 27//6 20//7
f 20//7 27//6 28//7
f 20//7 28//7 19//8
f 19//8 28//7 29//8
f 19//8 29//8 18//9
f 18//9 29//8 30//9
f 18//9 30//9 17//10
f 17//10 30//9 31//10
f 17//10 31//10 16//11
f 16//11 31//10 32//11
f 16//11 32//11 15//12
f 15//12 32//11 33//12
f 15//12 33//12 14//13
f 14//13 33//12 34//13
f 14//13 34//13 13//14
f 13//14 34//13 35//14
f 13//14 35//14 12//15
f 12//15 35//14 36//15
f 12//15 36//15 11//16
f 11//16 36//15 37//16
f 11//16 37//16 10//17
f 10//17 37//16 38//17
f 10//17 38//17 9//18
f 9//18 38//17 39//18
f 9//18 39//18 8//19
f 8//19 39//18 40//19
f 8//19 40//19 7//20
f 7//20 40//19 41//20
f 7//20 41//20 6//21
f 6//21 41//20 42//21
f 6//21 42//21 5//22
f 5//22 42//21 43//22
f 5//22 43//22 4//23
f 4//23 43//22 44//23
f 4//23 44//23 3//24
f 3//24 44//23 45//24
f 3//24 45//24 2//1
f 2//1 45//24 46//1

g face 1
f 1//25 23//25 2//25
f 2//25 23//25 3//25
f 3//25 23//25 22//25
f 3//25 22//25 4//25
f 4//25 22//25 21//25
f 4//25 21//25 5//25
f 5//25 21//25 20//25
f 5//25 20//25 6//25
f 6//25 20//25 19//25
f 6//25 19//25 7//25
f 7//25 19//25 8//25
f 8//25 19//25 9//25
f 9//25 19//25 10//25
f 10//25 19//25 11//25
f 11//25 19//25 12//25
f 12//25 19//25 13//25
f 13//25 19//25 14//25
f 14//25 19//25 15//25
f 15//25 19//25 16//25
f 16//25 19//25 17//25
f 17//25 19//25 18//25

g face 2
f 24//26 46//26 25//26
f 25//26 46//26 45//26
f 25//26 45//26 26//26
f 26//26 45//26 44//26
f 26//26 44//26 27//26
f 27//26 44//26 43//26
f 27//26 43//26 28//26
f 28//26 43//26 42//26
f 28//26 42//26 29//26
f 29//26 42//26 41//26
f 29//26 41//26 40//26
f 40//26 39//26 29//26
f 29//26 39//26 38//26
f 29//26 38//26 37//26
f 37//26 36//26 29//26
f 29//26 36//26 35//26
f 29//26 35//26 34//26
f 34//26 33//26 29//26
f 29//26 33//26 32//26
f 29//26 32//26 31//26
f 31//26 30//26 29//26

g halfedge 0 edge 0
l 1 2 3 4 5 6 7 8 9 10 11 12 13 14 15 16 17 18 19 20 21 22 23 1

g halfedge 1 edge 0
l 1 23 22 21 20 19 18 17 16 15 14 13 12 11 10 9 8 7 6 5 4 3 2 1

g halfedge 2 edge 1
l 24 25 26 27 28 29 30 31 32 33 34 35 36 37 38 39 40 41 42 43 44 45 46 24

g halfedge 3 edge 1
l 24 46 45 44 43 42 41 40 39 38 37 36 35 34 33 32 31 30 29 28 27 26 25 24

g vertex 0
p 1

g vertex 1
p 24

# End of file
