# WaveFront *.obj file
# Vertices: 89
# Triangles : 178

v 0.011125200405311586 -1.9285737792972498e-19 0.0
v 0.011261349018616019 -0.0006405288655157699 0.0
v 0.011646253526417657 -0.0011703044711617993 0.0
v 0.012213360442569918 -0.0014977238018616065 0.0
v 0.012864611829265484 -0.0015661730808259552 0.0
v 0.013487400405311583 -0.0013638168058797326 0.0
v 0.013974040368053251 -0.0009256442153101857 0.0
v 0.01424038724694718 -0.0003274193306998075 0.0
v 0.01424038724694718 0.0003274193306998068 0.0
v 0.013974040368053251 0.0009256442153101857 0.0
v 0.013487400405311585 0.0013638168058797324 0.0
v 0.012864611829265488 0.0015661730808259552 0.0
v 0.012213360442569918 0.0014977238018616065 0.0
v 0.011646253526417657 0.0011703044711617997 0.0
v 0.011261349018616019 0.0006405288655157705 0.0
v 0.009525000405311585 3.8882535872928453e-19 0.0016002
v 0.009666056746940589 0.0009358476787546205 0.0016002
v 0.010076692296858304 0.001788541184352 0.0016002
v 0.010720420284410106 0.0024823149568359943 0.0016002
v 0.011540042652948281 0.002955524151945348 0.0016002
v 0.012462732358174688 0.0031661220560502456 0.0016002
v 0.013406504370622883 0.003095396121177289 0.0016002
v 0.014287500405311584 0.0027496306570155915 0.0016002
v 0.015027440098371283 0.0021595484424226682 0.0016002
v 0.015560576560901764 0.0013775808716982466 0.0016002
v 0.015839538278576367 0.00047320919510935276 0.0016002
v 0.015839538278576367 -0.00047320919510935417 0.0016002
v 0.015560576560901764 -0.0013775808716982466 0.0016002
v 0.015027440098371281 -0.0021595484424226687 0.0016002
v 0.014287500405311583 -0.002749630657015593 0.0016002
v 0.013406504370622883 -0.003095396121177289 0.0016002
v 0.012462732358174687 -0.0031661220560502456 0.0016002
v 0.01154004265294828 -0.0029555241519453467 0.0016002
v 0.010720420284410106 -0.0024823149568359943 0.0016002
v 0.0100766922968583 -0.0017885411843519988 0.0016002
v 0.009666056746940589 -0.0009358476787546191 0.0016002
v 0.009525000405311585 -3.8882535872928453e-19 0.0365125
v 0.009666056746940589 0.0009358476787546191 0.0365125
v 0.0100766922968583 0.0017885411843519988 0.0365125
v 0.010720420284410106 0.0024823149568359943 0.0365125
v 0.01154004265294828 0.0029555241519453467 0.0365125
v 0.012462732358174687 0.0031661220560502456 0.0365125
v 0.013406504370622883 0.003095396121177289 0.0365125
v 0.014287500405311583 0.002749630657015593 0.0365125
v 0.015027440098371281 0.0021595484424226687 0.0365125
v 0.015560576560901764 0.0013775808716982466 0.0365125
v 0.015839538278576367 0.00047320919510935417 0.0365125
v 0.015839538278576367 -0.00047320919510935276 0.0365125
v 0.015560576560901764 -0.0013775808716982466 0.0365125
v 0.015027440098371283 -0.0021595484424226682 0.0365125
v 0.014287500405311584 -0.0027496306570155915 0.0365125
v 0.013406504370622883 -0.003095396121177289 0.0365125
v 0.012462732358174688 -0.0031661220560502456 0.0365125
v 0.011540042652948281 -0.002955524151945348 0.0365125
v 0.010720420284410106 -0.0024823149568359943 0.0365125
v 0.010076692296858304 -0.001788541184352 0.0365125
v 0.009666056746940589 -0.0009358476787546205 0.0365125
v 0.01538266920153129 -0.0016982088004097457 0.0064897011348724375
v 0.015583584374467739 -0.0013287469632206025 0.0064058699633167925
v 0.01571522492616031 -0.0009945079623888994 0.0061696499308718546
v 0.015783143418775104 -0.0007581913736904985 0.005816928822226218
v 0.015803128808132047 -0.0006717284537735143 0.00539750113487244
v 0.015783143418775104 -0.0007581913736904978 0.00497807344751866
v 0.015715224926160315 -0.000994507962388899 0.004625352338873023
v 0.01558358437446774 -0.0013287469632206033 0.00438913230642808
v 0.01538266920153129 -0.0016982088004097457 0.004305301134872438
v 0.015134685436083086 -0.0020378748245119295 0.00438913230642808
v 0.014888900352678891 -0.0022998569561600503 0.004625352338873019
v 0.014704361081859452 -0.002462349138305974 0.004978073447518656
v 0.014634761153450138 -0.0025174045855726737 0.005397501134872438
v 0.014704361081859452 -0.002462349138305974 0.005816928822226221
v 0.014888900352678891 -0.0022998569561600507 0.006169649930871855
v 0.015134685436083083 -0.002037874824511929 0.006405869963316796
v 0.00959687200249113 0.0006717284537735257 0.005397501134872438
v 0.009616857391848069 0.000758191373690508 0.004978073447518657
v 0.009684775884462857 0.0009945079623889085 0.004625352338873018
v 0.009816416436155433 0.001328746963220613 0.0043891323064280795
v 0.01001733160909188 0.0016982088004097518 0.004305301134872439
v 0.010265315374540087 0.002037874824511935 0.0043891323064280795
v 0.010511100457944282 0.0022998569561600572 0.0046253523388730235
v 0.010695639728763725 0.0024623491383059795 0.004978073447518659
v 0.010765239657173041 0.0025174045855726845 0.005397501134872438
v 0.010695639728763726 0.0024623491383059795 0.005816928822226221
v 0.010511100457944279 0.0022998569561600564 0.0061696499308718546
v 0.010265315374540085 0.002037874824511935 0.006405869963316796
v 0.01001733160909188 0.00169820880040975 0.0064897011348724375
v 0.009816416436155433 0.0013287469632206122 0.006405869963316795
v 0.009684775884462855 0.0009945079623889079 0.006169649930871857
v 0.009616857391848069 0.0007581913736905082 0.005816928822226219

vn -6.4597418802125084e-01 -2.8760623847595085e-01 -7.0710678118654757e-01
vn -6.7569201088883590e-01 -2.0842338261577356e-01 -7.0710678118654768e-01
vn -7.0710678118654746e-01 -8.6595605623549316e-17 -7.0710678118654779e-01
vn -7.0710678118654735e-01 -8.6595605623549316e-17 -7.0710678118654757e-01
vn -7.0710678118654746e-01 8.6595605623549316e-17 -7.0710678118654779e-01
vn -7.0710678118654735e-01 8.6595605623549316e-17 -7.0710678118654757e-01
vn -6.7569201088883579e-01 2.0842338261577389e-01 -7.0710678118654779e-01
vn -5.8423904019810147e-01 -3.9832743303518658e-01 -7.0710678118654768e-01
vn -4.7314678925581494e-01 -5.2548274549875884e-01 -7.0710678118654757e-01
vn -4.4087386689496733e-01 -5.5283834299827517e-01 -7.0710678118654779e-01
vn -2.1850801222441027e-01 -6.7249851196395727e-01 -7.0710678118654768e-01
vn -2.5833511577511792e-01 -6.5822714009485839e-01 -7.0710678118654757e-01
vn -5.2842155933666229e-02 -7.0512956721178688e-01 -7.0710678118654757e-01
vn 7.3912785203566381e-02 -7.0323317625340409e-01 -7.0710678118654768e-01
vn 1.5734606135647383e-01 -6.8937813787181024e-01 -7.0710678118654757e-01
vn 3.5355339059327340e-01 -6.1237243569579469e-01 -7.0710678118654768e-01
vn 3.5355339059327323e-01 -6.1237243569579469e-01 -7.0710678118654757e-01
vn 5.1834594953236168e-01 -4.8095475525603665e-01 -7.0710678118654768e-01
vn 5.7206140281768436e-01 -4.1562693777745324e-01 -7.0710678118654768e-01
vn 6.3708119613176717e-01 -3.0680213417660018e-01 -7.0710678118654768e-01
vn 6.9165480148022540e-01 -1.4701576646519873e-01 -7.0710678118654768e-01
vn 6.9920898267008480e-01 -1.0538879709658346e-01 -7.0710678118654768e-01
vn 6.9165480148022540e-01 1.4701576646519837e-01 -7.0710678118654768e-01
vn 6.9920898267008480e-01 1.0538879709658314e-01 -7.0710678118654768e-01
vn 6.3708119613176717e-01 3.0680213417660018e-01 -7.0710678118654768e-01
vn 5.7206140281768436e-01 4.1562693777745324e-01 -7.0710678118654768e-01
vn 5.1834594953236213e-01 4.8095475525603631e-01 -7.0710678118654768e-01
vn 3.5355339059327417e-01 6.1237243569579425e-01 -7.0710678118654768e-01
vn 3.5355339059327379e-01 6.1237243569579436e-01 -7.0710678118654757e-01
vn 1.5734606135647383e-01 6.8937813787181024e-01 -7.0710678118654757e-01
vn 7.3912785203567297e-02 7.0323317625340398e-01 -7.0710678118654768e-01
vn -5.2842155933665765e-02 7.0512956721178699e-01 -7.0710678118654757e-01
vn -2.1850801222441027e-01 6.7249851196395727e-01 -7.0710678118654768e-01
vn -2.5833511577511742e-01 6.5822714009485850e-01 -7.0710678118654768e-01
vn -4.7314678925581471e-01 5.2548274549875895e-01 -7.0710678118654768e-01
vn -4.4087386689496733e-01 5.5283834299827517e-01 -7.0710678118654779e-01
vn -5.8423904019810124e-01 3.9832743303518686e-01 -7.0710678118654757e-01
vn -6.4597418802125073e-01 2.8760623847595113e-01 -7.0710678118654768e-01
vn -9.5557280578614079e-01 2.9475517441090376e-01 -0.0000000000000000e+00
vn -9.7736327647888366e-01 2.1156801693654342e-01 -0.0000000000000000e+00
vn -1.0000000000000000e+00 1.2246467991473532e-16 -0.0000000000000000e+00
vn -1.0000000000000000e+00 -1.2246467991473532e-16 0.0000000000000000e+00
vn -9.5557280578614068e-01 -2.9475517441090415e-01 0.0000000000000000e+00
vn -9.5557280578614079e-01 -2.9475517441090376e-01 0.0000000000000000e+00
vn -8.2623877431599468e-01 -5.6332005806362218e-01 0.0000000000000000e+00
vn -8.2623877431599502e-01 -5.6332005806362184e-01 0.0000000000000000e+00
vn -6.2348980185873348e-01 -7.8183148246803003e-01 0.0000000000000000e+00
vn -3.6534102436639493e-01 -9.3087374864420436e-01 0.0000000000000000e+00
vn -3.6534102436639554e-01 -9.3087374864420402e-01 0.0000000000000000e+00
vn -7.4730093586424046e-02 -9.9720379718118024e-01 0.0000000000000000e+00
vn -7.4730093586424726e-02 -9.9720379718118024e-01 0.0000000000000000e+00
vn 2.2252093395631445e-01 -9.7492791218182362e-01 -0.0000000000000000e+00
vn 5.0000000000000011e-01 -8.6602540378443860e-01 -0.0000000000000000e+00
vn 4.9999999999999933e-01 -8.6602540378443915e-01 -0.0000000000000000e+00
vn 6.0937346398064740e-01 -7.9288333403863831e-01 -0.0000000000000000e+00
vn 6.3129470125589360e-01 -7.7554303566354865e-01 -0.0000000000000000e+00
vn 7.3305187182982601e-01 -6.8017273777091969e-01 -0.0000000000000000e+00
vn 6.8941730631273457e-01 -7.2436439569907984e-01 -0.0000000000000000e+00
vn 7.6682993097286412e-01 -6.4185033844670736e-01 -0.0000000000000000e+00
vn 8.4493505392746659e-01 -5.3486891351488097e-01 -0.0000000000000000e+00
vn 9.0096886790241926e-01 -4.3388373911755812e-01 -0.0000000000000000e+00
vn 9.0821542338139061e-01 -4.1850298055349794e-01 -0.0000000000000000e+00
vn 9.4967701451674180e-01 -3.1323085432084791e-01 -0.0000000000000000e+00
vn 9.8883082622512852e-01 -1.4904226617617461e-01 -0.0000000000000000e+00
vn 9.7106866562853644e-01 -2.3880043265122786e-01 -0.0000000000000000e+00
vn 9.7736327647888432e-01 -2.1156801693653970e-01 -0.0000000000000000e+00
vn 9.8883082622512852e-01 -1.4904226617617419e-01 -0.0000000000000000e+00
vn 9.7106866562853644e-01 -2.3880043265122797e-01 -0.0000000000000000e+00
vn 9.4967701451674169e-01 -3.1323085432084846e-01 -0.0000000000000000e+00
vn 9.0821542338139061e-01 -4.1850298055349805e-01 -0.0000000000000000e+00
vn 7.3305187182982656e-01 -6.8017273777091913e-01 -0.0000000000000000e+00
vn 7.6682993097286356e-01 -6.4185033844670780e-01 -0.0000000000000000e+00
vn 6.8941730631273446e-01 -7.2436439569907995e-01 -0.0000000000000000e+00
vn -8.2623877431599502e-01 5.6332005806362184e-01 -0.0000000000000000e+00
vn -9.0821542338138928e-01 4.1850298055350088e-01 -0.0000000000000000e+00
vn -9.4967701451674080e-01 3.1323085432085090e-01 -0.0000000000000000e+00
vn -9.7106866562853567e-01 2.3880043265123133e-01 -0.0000000000000000e+00
vn -6.2348980185873348e-01 7.8183148246803003e-01 -0.0000000000000000e+00
vn -7.6682993097286301e-01 6.4185033844670847e-01 -0.0000000000000000e+00
vn -8.4493505392746582e-01 5.3486891351488197e-01 -0.0000000000000000e+00
vn -3.6534102436639554e-01 9.3087374864420402e-01 -0.0000000000000000e+00
vn -6.0937346398064374e-01 7.9288333403864086e-01 -0.0000000000000000e+00
vn -6.3129470125589104e-01 7.7554303566355065e-01 -0.0000000000000000e+00
vn -6.8941730631273346e-01 7.2436439569908084e-01 -0.0000000000000000e+00
vn -7.4730093586424726e-02 9.9720379718118024e-01 -0.0000000000000000e+00
vn -7.4730093586424046e-02 9.9720379718118024e-01 -0.0000000000000000e+00
vn -3.6534102436639493e-01 9.3087374864420436e-01 -0.0000000000000000e+00
vn -6.3129470125589171e-01 7.7554303566355010e-01 -0.0000000000000000e+00
vn -6.8941730631273290e-01 7.2436439569908140e-01 -0.0000000000000000e+00
vn -7.6682993097286245e-01 6.4185033844670913e-01 -0.0000000000000000e+00
vn -8.2623877431599468e-01 5.6332005806362218e-01 -0.0000000000000000e+00
vn -8.4493505392746571e-01 5.3486891351488230e-01 -0.0000000000000000e+00
vn -9.5557280578614068e-01 2.9475517441090415e-01 -0.0000000000000000e+00
vn 2.2252093395631445e-01 9.7492791218182362e-01 -0.0000000000000000e+00
vn 5.0000000000000011e-01 8.6602540378443860e-01 -0.0000000000000000e+00
vn 4.9999999999999933e-01 8.6602540378443915e-01 -0.0000000000000000e+00
vn 7.3305187182982656e-01 6.8017273777091913e-01 -0.0000000000000000e+00
vn 7.3305187182982601e-01 6.8017273777091969e-01 -0.0000000000000000e+00
vn 9.0096886790241926e-01 4.3388373911755812e-01 -0.0000000000000000e+00
vn 9.8883082622512852e-01 1.4904226617617419e-01 -0.0000000000000000e+00
vn 9.8883082622512852e-01 1.4904226617617461e-01 -0.0000000000000000e+00
vn -0.0000000000000000e+00 -0.0000000000000000e+00 -1.0000000000000000e+00
vn -2.0550216925185655e-01 -3.2463278771986054e-01 9.2324558573004456e-01
vn -2.0550216925185444e-01 -3.2463278771985721e-01 9.2324558573004634e-01
vn 2.2237791000287857e-15 3.5129147840320689e-15 1.0000000000000000e+00
vn -3.2751275144971071e-17 -5.1737350463983413e-17 1.0000000000000000e+00
vn 2.0550216925185835e-01 3.2463278771986337e-01 9.2324558573004312e-01
vn 2.0550216925185635e-01 3.2463278771986026e-01 9.2324558573004478e-01
vn 3.7828446000722199e-01 5.9757782241579493e-01 7.0696648681096697e-01
vn -3.7828446000722199e-01 -5.9757782241579493e-01 7.0696648681096697e-01
vn -3.7828446000722321e-01 -5.9757782241579693e-01 7.0696648681096463e-01
vn -4.9385750653523208e-01 -7.8014913256913587e-01 3.8402095540533715e-01
vn -4.9385750653523192e-01 -7.8014913256913576e-01 3.8402095540533759e-01
vn -5.3486891351488086e-01 -8.4493505392746648e-01 -0.0000000000000000e+00
vn -5.3486891351488086e-01 -8.4493505392746648e-01 -2.0330031580757122e-15
vn -4.9385750653523164e-01 -7.8014913256913521e-01 -3.8402095540533926e-01
vn -4.9385750653523136e-01 -7.8014913256913476e-01 -3.8402095540534031e-01
vn -3.7828446000722166e-01 -5.9757782241579427e-01 -7.0696648681096752e-01
vn -2.0550216925185688e-01 -3.2463278771986109e-01 -9.2324558573004434e-01
vn -2.0550216925185444e-01 -3.2463278771985721e-01 -9.2324558573004634e-01
vn 2.2237791000287857e-15 3.5129147840320689e-15 -1.0000000000000000e+00
vn 2.0550216925185835e-01 3.2463278771986337e-01 -9.2324558573004312e-01
vn 2.0550216925185824e-01 3.2463278771986320e-01 -9.2324558573004334e-01
vn 3.7828446000722132e-01 5.9757782241579394e-01 -7.0696648681096819e-01
vn 3.7828446000722216e-01 5.9757782241579527e-01 -7.0696648681096652e-01
vn 4.9385750653523125e-01 7.8014913256913465e-01 -3.8402095540534081e-01
vn 4.9385750653523114e-01 7.8014913256913454e-01 -3.8402095540534120e-01
vn 5.3486891351488086e-01 8.4493505392746648e-01 -1.2246467991473532e-16
vn 5.3486891351488086e-01 8.4493505392746648e-01 1.2246467991473532e-16
vn 4.9385750653523125e-01 7.8014913256913465e-01 3.8402095540534081e-01
vn 4.9385750653523158e-01 7.8014913256913498e-01 3.8402095540533954e-01
vn 3.7828446000722099e-01 5.9757782241579338e-01 7.0696648681096874e-01
vn 0.0000000000000000e+00 0.0000000000000000e+00 1.0000000000000000e+00

g face 0
f 2//1 36//2 1//3
f 1//3 36//2 16//4
f 1//5 16//6 17//7
f 36//2 2//1 35//8
f 35//8 2//1 3//9
f 35//8 3//9 34//10
f 34//10 3//9 4//11
f 34//10 4//11 33//12
f 33//12 4//11 32//13
f 32//13 4//11 5//14
f 32//13 5//14 31//15
f 31//15 5//14 6//16
f 31//15 6//16 30//17
f 30//17 6//16 29//18
f 29//18 6//16 7//19
f 29//18 7//19 28//20
f 28//20 7//19 8//21
f 28//20 8//21 27//22
f 27//22 8//21 9//23
f 27//22 9//23 26//24
f 26//24 9//23 25//25
f 25//25 9//23 10//26
f 25//25 10//26 24//27
f 24//27 10//26 11//28
f 24//27 11//28 23//29
f 23//29 11//28 22//30
f 22//30 11//28 12//31
f 22//30 12//31 21//32
f 21//32 12//31 13//33
f 21//32 13//33 20//34
f 20//34 13//33 14//35
f 20//34 14//35 19//36
f 19//36 14//35 18//37
f 18//37 14//35 15//38
f 18//37 15//38 17//7
f 17//7 15//38 1//5

g face 1
f 38//39 74//40 37//41
f 37//41 74//40 16//41
f 37//42 16//42 57//43
f 57//43 16//42 36//44
f 57//43 36//44 56//45
f 56//45 36//44 35//46
f 56//45 35//46 55//47
f 55//47 35//46 34//47
f 55//47 34//47 54//48
f 54//48 34//47 33//49
f 54//48 33//49 53//50
f 53//50 33//49 32//51
f 53//50 32//51 52//52
f 52//52 32//51 31//52
f 52//52 31//52 51//53
f 51//53 31//52 30//54
f 51//53 30//54 70//55
f 70//55 30//54 69//56
f 69//56 30//54 29//57
f 69//56 29//57 68//58
f 68//58 29//57 67//59
f 67//59 29//57 66//60
f 66//60 29//57 28//61
f 66//60 28//61 65//62
f 65//62 28//61 64//63
f 64//63 28//61 27//64
f 64//63 27//64 63//65
f 63//65 27//64 62//66
f 62//66 27//64 48//67
f 62//66 48//67 61//68
f 61//68 48//67 60//69
f 60//69 48//67 49//61
f 60//69 49//61 59//70
f 59//70 49//61 58//60
f 58//60 49//61 50//71
f 58//60 50//71 73//72
f 73//72 50//71 72//73
f 72//73 50//71 71//56
f 71//56 50//71 51//53
f 71//56 51//53 70//55
f 39//74 87//75 38//39
f 38//39 87//75 88//76
f 38//39 88//76 89//77
f 40//78 85//79 39//74
f 39//74 85//79 86//80
f 39//74 86//80 87//75
f 41//81 82//82 40//78
f 40//78 82//82 83//83
f 40//78 83//83 84//84
f 42//85 21//86 41//81
f 41//81 21//86 20//87
f 41//81 20//87 82//82
f 82//82 20//87 19//78
f 82//82 19//78 81//88
f 81//88 19//78 80//89
f 80//89 19//78 79//90
f 79//90 19//78 18//91
f 79//90 18//91 78//92
f 78//92 18//91 77//75
f 77//75 18//91 17//93
f 77//75 17//93 76//76
f 76//76 17//93 75//77
f 75//77 17//93 74//40
f 74//40 17//93 16//41
f 21//86 42//85 22//94
f 22//94 42//85 43//94
f 22//94 43//94 23//95
f 23//95 43//94 44//96
f 23//95 44//96 24//97
f 24//97 44//96 45//98
f 24//97 45//98 25//99
f 25//99 45//98 46//99
f 25//99 46//99 26//100
f 26//100 46//99 47//101
f 26//100 47//101 27//64
f 27//64 47//101 48//67
f 84//84 85//79 40//78
f 89//77 74//40 38//39

g face 2
f 1//102 15//102 2//102
f 2//102 15//102 14//102
f 2//102 14//102 3//102
f 3//102 14//102 13//102
f 3//102 13//102 4//102
f 4//102 13//102 12//102
f 4//102 12//102 5//102
f 5//102 12//102 11//102
f 5//102 11//102 6//102
f 6//102 11//102 10//102
f 6//102 10//102 7//102
f 7//102 10//102 9//102
f 7//102 9//102 8//102

g face 3
f 65//103 79//104 66//105
f 66//105 79//104 78//106
f 66//105 78//106 67//107
f 67//107 78//106 77//108
f 67//107 77//108 76//109
f 65//103 64//110 79//104
f 79//104 64//110 80//111
f 80//111 64//110 63//112
f 80//111 63//112 81//113
f 81//113 63//112 82//114
f 82//114 63//112 62//115
f 82//114 62//115 83//116
f 83//116 62//115 61//117
f 83//116 61//117 60//118
f 83//116 60//118 84//118
f 84//118 60//118 59//119
f 84//118 59//119 85//120
f 85//120 59//119 86//121
f 86//121 59//119 58//121
f 86//121 58//121 87//122
f 87//122 58//121 73//123
f 87//122 73//123 72//124
f 87//122 72//124 88//125
f 88//125 72//124 71//126
f 88//125 71//126 89//127
f 89//127 71//126 74//128
f 74//128 71//126 70//128
f 74//129 70//129 75//130
f 75//130 70//129 69//131
f 75//130 69//131 68//132
f 75//130 68//132 76//109
f 76//109 68//132 67//107

g face 4
f 38//133 37//133 52//133
f 52//133 37//133 57//133
f 52//133 57//133 56//133
f 56//133 55//133 52//133
f 52//133 55//133 54//133
f 52//133 54//133 53//133
f 51//133 43//133 52//133
f 52//133 43//133 42//133
f 52//133 42//133 41//133
f 43//133 51//133 44//133
f 44//133 51//133 50//133
f 44//133 50//133 45//133
f 45//133 50//133 49//133
f 45//133 49//133 46//133
f 46//133 49//133 48//133
f 46//133 48//133 47//133
f 41//133 40//133 52//133
f 52//133 40//133 39//133
f 52//133 39//133 38//133

g halfedge 0 edge 0
l 1 15 14 13 12 11 10 9 8 7 6 5 4 3 2 1

g halfedge 1 edge 0
l 1 2 3 4 5 6 7 8 9 10 11 12 13 14 15 1

g halfedge 2 edge 1
l 16 36 35 34 33 32 31 30 29 28 27 26 25 24 23 22 21 20 19 18 17 16

g halfedge 3 edge 1
l 16 17 18 19 20 21 22 23 24 25 26 27 28 29 30 31 32 33 34 35 36 16

g halfedge 4 edge 2
l 37 38 39 40 41 42 43 44 45 46 47 48 49 50 51 52 53 54 55 56 57 37

g halfedge 5 edge 2
l 37 57 56 55 54 53 52 51 50 49 48 47 46 45 44 43 42 41 40 39 38 37

g halfedge 6 edge 3
l 58 59 60 61 62 63 64 65 66

g halfedge 7 edge 3
l 66 65 64 63 62 61 60 59 58

g halfedge 8 edge 4
l 66 67 68 69 70 71 72 73 58

g halfedge 9 edge 4
l 58 73 72 71 70 69 68 67 66

g halfedge 10 edge 5
l 74 75 76 77 78 79 80 81 82 83 84 85 86 87 88 89 74

g halfedge 11 edge 5
l 74 89 88 87 86 85 84 83 82 81 80 79 78 77 76 75 74

g vertex 0
p 1

g vertex 1
p 16

g vertex 2
p 37

g vertex 3
p 58

g vertex 4
p 66

g vertex 5
p 74

# End of file
