# Created by FreeCAD <https://www.freecad.org>
v -0.06986690000000001 0.01702327 0.17600000000000002
v -0.06999236 0.01610646 0.17622309000000003
v -0.06997476 0.01605307 0.17644553999999998
v -0.0699968 0.01616 0.17600000000000002
v -0.06710066 0.01656258 0.17980421
v -0.06780364 0.016 0.17957027
v -0.06692706000000001 0.016 0.17989109
v -0.066 0.016 0.18
v -0.066 0.016890080000000002 0.17989971000000002
v -0.06831993 0.01654266 0.17921301
v -0.06858199 0.016 0.17905504
v -0.06656189 0.01731181 0.17973677
v -0.066 0.01773553 0.17960386
v -0.06929378 0.01627785 0.17825253
v -0.06968215 0.016 0.17756260000000001
v -0.06921974 0.016 0.17837345
v -0.06778515 0.01757314 0.17921534000000003
v -0.06887449 0.01748642 0.17835114000000002
v -0.06698582 0.01839793 0.17904599999999998
v -0.066 0.01849396 0.17912733
v -0.066 0.01912733 0.17849395999999998
v -0.0696313 0.01716099 0.17721067000000001
v -0.06994405000000001 0.016 0.17666666
v -0.06955281 0.017837810000000003 0.17600000000000002
v -0.06812742000000001 0.01852532 0.17825762
v -0.06904194000000001 0.01829666 0.17721325000000002
v -0.06843997 0.01916963 0.17600000000000002
v -0.0690695 0.0185648 0.17600000000000002
v -0.06713115 0.01928527 0.17798178
v -0.066 0.019603870000000002 0.17773554
v -0.066 0.01989971 0.17689009
v -0.06816101 0.01920563 0.17702662
v -0.06769423 0.01962348 0.17600000000000002
v -0.06708118 0.01979231 0.1766704
v -0.066 0.02 0.17600000000000002
v -0.06686778 0.01990474 0.17600000000000002
v -0.06965884 0.01761644 0.16993149
v -0.06880969 0.01884704 0.16480398000000002
v -0.06777304 0.01958557 0.16172678000000001
v -0.06723141 0.019805740000000002 0.16080942
v -0.06680727 0.01991769 0.16034294
v -0.0664825 0.019970790000000002 0.16012169
v -0.06624169 0.01999269 0.16003044
v -0.06612090000000001 0.01999817 0.16000761000000002
v -0.066 0.02 0.16
v -0.024 0.01989971 0.17689009
v -0.024 0.02 0.17600000000000002
v -0.024 0.019603870000000002 0.17773554
v -0.024 0.01912733 0.17849395999999998
v -0.024 0.01849396 0.17912733
v -0.024 0.01773553 0.17960386
v -0.024 0.016890080000000002 0.17989971000000002
v -0.024 0.016 0.18
v -0.0699965 0.01611982 0.17616739
v -0.07 0.01616 0.17600000000000002
v -0.07 -0.016 0.17600000000000002
v -0.06998599 0.01607972 0.1763345
v -0.0699685 0.01603975 0.17650103000000003
v -0.06989971 -0.016 0.17689009
v -0.06960388 -0.016 0.17773554
v -0.06912733 -0.016 0.17849395999999998
v -0.06849395999999999 -0.016 0.17912733
v -0.06773553 -0.016 0.17960386
v -0.06689008 -0.016 0.17989971000000002
v -0.066 -0.016 0.18
v -0.06989971 -0.016890080000000002 0.17600000000000002
v -0.07 -0.016 0.14386513
v -0.06972036000000001 -0.01746933 0.15002927
v -0.06960388 -0.01773553 0.17600000000000002
v -0.06892054 -0.01873321 0.15533154
v -0.06912733 -0.01849396 0.17600000000000002
v -0.06849395999999999 -0.01912733 0.17600000000000002
v -0.06789449 -0.01952291 0.1586445
v -0.06773553 -0.019603870000000002 0.17600000000000002
v -0.06750552 -0.01970586 0.15941202000000002
v -0.06709916 -0.01984602 0.16
v -0.06689008 -0.01989971 0.17600000000000002
v -0.06673807 -0.01993132 0.16
v -0.06637063 -0.01998279 0.16
v -0.066 -0.02 0.17600000000000002
v -0.066 -0.02 0.16
v -0.06667455 -0.0199319 0.17629181
v -0.066 -0.01989971 0.17689009
v -0.06703642 -0.01963287 0.17731457
v -0.066 -0.019603870000000002 0.17773554
v -0.06796845 -0.01946763 0.17631739
v -0.06722554 -0.01906071 0.17826496
v -0.066 -0.01912733 0.17849395999999998
v -0.066 -0.01849396 0.17912733
v -0.06825976 -0.01900703 0.17736061
v -0.06722554 -0.018264970000000002 0.17906071
v -0.066 -0.01773553 0.17960386
v -0.06902922 -0.01859498 0.17629986
v -0.06835975000000001 -0.01828381 0.17828381000000001
v -0.06703642 -0.01731457 0.17963287000000003
v -0.066 -0.016890080000000002 0.17989971000000002
v -0.06921645 -0.01802854 0.17724075
v -0.06825976 -0.017360610000000002 0.17900702
v -0.06667455 -0.01629181 0.17993189
v -0.06921645 -0.01724076 0.17802855
v -0.06796845 -0.01631738 0.17946762
v -0.06980532 -0.01687164 0.17687164
v -0.06902922 -0.01629985 0.17859499
v -0.024 -0.02 0.16
v -0.024 -0.02 0.17600000000000002
v -0.02290084 -0.01984602 0.16
v -0.02362937 -0.01998279 0.16
v -0.02326193 -0.01993132 0.16
v -0.021419290000000004 -0.01905613 0.15668625
v -0.022225619999999998 -0.01958491 0.15890458000000002
v -0.02069344 -0.01825092 0.15330824
v -0.02017729 -0.01717766 0.14880566
v -0.02 -0.016 0.14386513
v -0.02 -0.00792327 0.10998152
v -0.07 -0.00792327 0.10998152
v -0.02 -0.016 0.17600000000000002
v -0.02010029 -0.016890080000000002 0.17600000000000002
v -0.020396130000000002 -0.01773553 0.17600000000000002
v -0.020872670000000003 -0.01849396 0.17600000000000002
v -0.02150604 -0.01912733 0.17600000000000002
v -0.022264460000000003 -0.019603870000000002 0.17600000000000002
v -0.023109920000000003 -0.01989971 0.17600000000000002
v -0.02010029 -0.016 0.17689009
v -0.02021481 -0.01718482 0.17651819
v -0.02085441 -0.01834301 0.17678457000000003
v -0.02021481 -0.0165182 0.17718481
v -0.020396130000000002 -0.016 0.17773554
v -0.02186319 -0.01927323 0.17684851
v -0.02075976 -0.01765844 0.17765844000000003
v -0.023124560000000002 -0.019818739999999998 0.17680675999999998
v -0.024 -0.019603870000000002 0.17773554
v -0.024 -0.01989971 0.17689009
v -0.02166538 -0.01867481 0.17784254000000002
v -0.02085441 -0.01678458 0.17834301
v -0.020872670000000003 -0.016 0.17849395999999998
v -0.02150604 -0.016 0.17912733
v -0.022846030000000003 -0.01937835 0.17780418
v -0.024 -0.01912733 0.17849395999999998
v -0.02166538 -0.01784254 0.17867481000000002
v -0.022750430000000002 -0.01868687 0.17868687000000003
v -0.024 -0.01849396 0.17912733
v -0.02186319 -0.01684851 0.17927322
v -0.022264460000000003 -0.016 0.17960386
v -0.022846030000000003 -0.01780419 0.17937834
v -0.024 -0.01773553 0.17960386
v -0.023124560000000002 -0.01680676 0.17981873
v -0.023109920000000003 -0.016 0.17989971000000002
v -0.024 -0.016 0.18
v -0.024 -0.016890080000000002 0.17989971000000002
v -0.0201331 0.01702327 0.17600000000000002
v -0.0200032 0.01616 0.17600000000000002
v -0.020135160000000003 0.01703103 0.17237068
v -0.02044719 0.017837810000000003 0.17600000000000002
v -0.0204546 0.01785206 0.16894976
v -0.02093051 0.0185648 0.17600000000000002
v -0.02111533 0.018771040000000003 0.16512063999999999
v -0.02156003 0.01916963 0.17600000000000002
v -0.022007040000000002 0.01946816 0.16221601
v -0.02230577 0.01962348 0.17600000000000002
v -0.022553 0.0197291 0.16112875
v -0.023132220000000002 0.01990474 0.17600000000000002
v -0.023197890000000002 0.019918750000000002 0.16033854000000003
v -0.023396620000000003 0.01995423 0.1601907
v -0.02293617 0.019855940000000002 0.16060023999999998
v -0.02379819 0.0199949 0.16002123000000001
v -0.024 0.02 0.16
v -0.02359689 0.01997964 0.16008484
v -0.020007640000000004 0.01610646 0.17622309000000003
v -0.020025249999999998 0.01605307 0.17644553999999998
v -0.02343811 0.01731181 0.17973677
v -0.02301418 0.01839793 0.17904599999999998
v -0.02289934 0.01656258 0.17980421
v -0.023072940000000004 0.016 0.17989109
v -0.02219637 0.016 0.17957027
v -0.02286885 0.01928527 0.17798178
v -0.02221485 0.01757314 0.17921534000000003
v -0.022918820000000003 0.01979231 0.1766704
v -0.02187258 0.01852532 0.17825762
v -0.02168007 0.01654266 0.17921301
v -0.02141801 0.016 0.17905504
v -0.02183899 0.01920563 0.17702662
v -0.02112551 0.01748642 0.17835114000000002
v -0.02095806 0.01829666 0.17721325000000002
v -0.02070623 0.01627785 0.17825253
v -0.02078026 0.016 0.17837345
v -0.020317850000000002 0.016 0.17756260000000001
v -0.0203687 0.01716099 0.17721067000000001
v -0.02005595 0.016 0.17666666
v -0.02 0.01616 0.17600000000000002
v -0.02 0.032 0.11
v -0.02 -0.016 0.07655465
v -0.02 0.016 0.043333329999999996
v -0.02 -0.016 0.024
v -0.02 0.016 0.024
v -0.02001401 0.01607972 0.1763345
v -0.020031500000000004 0.01603975 0.17650103000000003
v -0.0200035 0.01611982 0.17616739
v -0.02010029 -0.016890080000000002 0.024
v -0.02010029 -0.016 0.023109920000000003
v -0.02021481 -0.0165182 0.02281518
v -0.020396130000000002 -0.016 0.022264460000000003
v -0.02085441 -0.01678459 0.02165699
v -0.02150604 -0.016 0.020872670000000003
v -0.020872670000000003 -0.016 0.02150604
v -0.02021481 -0.01718482 0.0234818
v -0.020396130000000002 -0.01773553 0.024
v -0.02186319 -0.01684851 0.020726770000000002
v -0.022264460000000003 -0.016 0.02039612
v -0.02075976 -0.01765844 0.02234156
v -0.023124560000000002 -0.01680676 0.020181260000000003
v -0.024 -0.01773553 0.02039612
v -0.024 -0.016890080000000002 0.02010029
v -0.024 -0.016 0.02
v -0.023109920000000003 -0.016 0.02010029
v -0.02166538 -0.01784254 0.021325189999999997
v -0.02085441 -0.01834301 0.02321542
v -0.020872670000000003 -0.01849396 0.024
v -0.02150604 -0.01912733 0.024
v -0.022846030000000003 -0.01780419 0.02062165
v -0.024 -0.01849396 0.020872670000000003
v -0.02166538 -0.01867481 0.022157460000000004
v -0.022750430000000002 -0.01868687 0.02131313
v -0.024 -0.01912733 0.02150604
v -0.02186319 -0.01927323 0.02315149
v -0.022264460000000003 -0.01960388 0.024
v -0.022846030000000003 -0.01937835 0.0221958
v -0.024 -0.01960388 0.022264460000000003
v -0.023124560000000002 -0.019818739999999998 0.02319324
v -0.023109920000000003 -0.01989971 0.024
v -0.024 -0.02 0.024
v -0.024 -0.01989971 0.023109920000000003
v -0.06667455 -0.01629181 0.020068100000000002
v -0.06689008 -0.016 0.02010029
v -0.066 -0.016 0.02
v -0.066 -0.016890080000000002 0.02010029
v -0.06703642 -0.01731457 0.020367130000000004
v -0.06773553 -0.016 0.02039612
v -0.066 -0.01773553 0.02039612
v -0.06796845 -0.01631738 0.02053237
v -0.06849395999999999 -0.016 0.020872670000000003
v -0.06722554 -0.018264970000000002 0.020939290000000003
v -0.066 -0.01849396 0.020872670000000003
v -0.06825976 -0.017360610000000002 0.02099297
v -0.06722554 -0.01906071 0.021735030000000002
v -0.066 -0.01912733 0.02150604
v -0.066 -0.01960388 0.022264460000000003
v -0.06902922 -0.01629985 0.02140501
v -0.06960388 -0.016 0.022264460000000003
v -0.06912733 -0.016 0.02150604
v -0.06835975000000001 -0.01828381 0.021716190000000003
v -0.06703642 -0.01963287 0.022685430000000003
v -0.06689008 -0.01989971 0.024
v -0.06773553 -0.01960388 0.024
v -0.066 -0.01989971 0.023109920000000003
v -0.06921645 -0.01724076 0.02197146
v -0.06825976 -0.01900703 0.022639390000000002
v -0.06667455 -0.0199319 0.02370819
v -0.066 -0.02 0.024
v -0.06921645 -0.01802854 0.02275924
v -0.06796845 -0.01946763 0.02368262
v -0.06849395999999999 -0.01912733 0.024
v -0.06980532 -0.01687164 0.02312836
v -0.06960388 -0.01773553 0.024
v -0.06989971 -0.016890080000000002 0.024
v -0.07 -0.016 0.024
v -0.06989971 -0.016 0.023109920000000003
v -0.06902922 -0.018594990000000002 0.02370015
v -0.06912733 -0.01849396 0.024
v -0.02010029 0.016 0.023109920000000003
v -0.02010029 0.016890080000000002 0.024
v -0.02021481 0.01718482 0.0234818
v -0.020396130000000002 0.01773553 0.024
v -0.02085441 0.01834301 0.02321542
v -0.02150604 0.01912733 0.024
v -0.020872670000000003 0.01849396 0.024
v -0.02021481 0.0165182 0.02281518
v -0.020396130000000002 0.016 0.022264460000000003
v -0.02186319 0.01927323 0.02315149
v -0.022264460000000003 0.019603870000000002 0.024
v -0.02075976 0.01765844 0.02234156
v -0.023124560000000002 0.019818739999999998 0.02319324
v -0.024 0.019603870000000002 0.022264460000000003
v -0.024 0.01989971 0.023109920000000003
v -0.024 0.02 0.024
v -0.023109920000000003 0.01989971 0.024
v -0.02166538 0.01867481 0.022157460000000004
v -0.02085441 0.01678458 0.02165699
v -0.020872670000000003 0.016 0.02150604
v -0.02150604 0.016 0.020872670000000003
v -0.022846030000000003 0.01937835 0.0221958
v -0.024 0.01912733 0.02150604
v -0.02166538 0.01784254 0.021325189999999997
v -0.022750430000000002 0.01868687 0.02131313
v -0.024 0.01849396 0.020872670000000003
v -0.02186319 0.01684851 0.020726770000000002
v -0.022264460000000003 0.016 0.02039612
v -0.022846030000000003 0.01780419 0.02062165
v -0.024 0.01773553 0.02039612
v -0.023124560000000002 0.01680676 0.020181260000000003
v -0.023109920000000003 0.016 0.02010029
v -0.024 0.016 0.02
v -0.024 0.016890080000000002 0.02010029
v -0.066 0.01989971 0.023109920000000003
v -0.06689008 0.01989971 0.024
v -0.066 0.02 0.024
v -0.06718482 0.01978519 0.0234818
v -0.06773553 0.019603870000000002 0.024
v -0.06834301 0.01914559 0.02321542
v -0.06912733 0.01849396 0.024
v -0.06849395999999999 0.01912733 0.024
v -0.0665182 0.01978519 0.02281518
v -0.066 0.019603870000000002 0.022264460000000003
v -0.06927323 0.01813681 0.02315149
v -0.06960388 0.01773553 0.024
v -0.06765844 0.01924024 0.02234156
v -0.06981874 0.01687544 0.02319324
v -0.06960388 0.016 0.022264460000000003
v -0.06989971 0.016 0.023109920000000003
v -0.07 0.016 0.024
v -0.06989971 0.016890080000000002 0.024
v -0.06867481 0.01833462 0.022157460000000004
v -0.06678459 0.01914559 0.02165699
v -0.066 0.01912733 0.02150604
v -0.066 0.01849396 0.020872670000000003
v -0.06937835 0.01715397 0.0221958
v -0.06912733 0.016 0.02150604
v -0.06784253999999999 0.01833462 0.021325189999999997
v -0.06868687000000001 0.017249570000000002 0.02131313
v -0.06849395999999999 0.016 0.020872670000000003
v -0.06684851 0.01813681 0.020726770000000002
v -0.066 0.01773553 0.02039612
v -0.06780419 0.01715397 0.02062165
v -0.06773553 0.016 0.02039612
v -0.06680676 0.01687544 0.020181260000000003
v -0.066 0.016 0.02
v -0.06689008 0.016 0.02010029
v -0.066 0.016890080000000002 0.02010029
v -0.07 0.016 0.043333329999999996
v -0.06988469 0.01695352 0.04730631
v -0.0695454 0.01785206 0.05105023
v -0.06888467000000001 0.018771040000000003 0.05487935
v -0.06799296 0.01946816 0.057783980000000006
v -0.06744700000000001 0.0197291 0.05887125
v -0.06660338 0.01995423 0.05980929
v -0.06640311 0.01997964 0.05991515
v -0.06680212 0.019918750000000002 0.05966146
v -0.06706383 0.019855940000000002 0.059399749999999994
v -0.06620181 0.0199949 0.05997877
v -0.066 0.02 0.06
v -0.020279639999999998 0.01746933 0.04945552
v -0.02107946 0.01873321 0.05472171000000001
v -0.02210568 0.019523 0.058012509999999996
v -0.022653970000000002 0.01976672 0.059028010000000006
v -0.02308576 0.01989412 0.05955883
v -0.02341751 0.01995736 0.05982234
v -0.02366918 0.0199863 0.05994290000000001
v -0.02383445 0.01999657 0.059985710000000005
v -0.024 0.02 0.06
v -0.06988634 -0.01694676 0.07263633
v -0.07 -0.016 0.07655465
v -0.06955182 -0.01783972 0.06894068
v -0.06872975 -0.018923779999999998 0.06445412
v -0.06799873 -0.01946483 0.06221487
v -0.06745141 -0.01972739 0.06112825
v -0.06706714 -0.01985502 0.060599999999999994
v -0.06680464 -0.01991823 0.0603384
v -0.06660529000000001 -0.01995394 0.06019063
v -0.06640439 -0.019979510000000002 0.06008482
v -0.06620245 -0.01999487 0.06002121
v -0.066 -0.02 0.06
v -0.020279639999999998 -0.01746933 0.07047360000000001
v -0.02107946 -0.01873321 0.06524281
v -0.02210585 -0.01952309 0.06197375
v -0.02265441 -0.01976688 0.060964790000000005
v -0.02308643 -0.01989428 0.06043755
v -0.02341835 -0.01995749 0.06017595
v -0.023670140000000003 -0.019986379999999998 0.060056380000000006
v -0.02383493 -0.01999659 0.0600141
v -0.024 -0.02 0.06
v -0.07 0.032 0.11
vn -0.979818 0.162426 0.116506
vn -0.987353 0.148571 0.055326
vn -0.343431 0.038937 0.938371
vn -0.115881 0.116571 0.986399
vn -0.118692 0.111173 0.986688
vn -0.551820 0.023818 0.833623
vn -0.432084 0.171772 0.885324
vn -0.025813 0.330182 0.943564
vn -0.140416 0.188469 0.971989
vn -0.868561 -0.015868 0.495328
vn -0.726374 0.102243 0.679653
vn -0.714517 0.145871 0.684242
vn -0.428483 0.220387 0.876260
vn -0.316513 0.308355 0.897071
vn -0.605505 0.312581 0.731886
vn -0.715104 0.193276 0.671767
vn -0.120790 0.528123 0.840533
vn -0.126201 0.701457 0.701450
vn -0.271376 0.438867 0.856593
vn -0.161521 0.483949 0.860060
vn -0.968006 0.177785 0.177081
vn -0.952173 0.126074 0.278336
vn -0.923943 0.356277 0.139270
vn -0.886420 0.169400 0.430770
vn -0.837997 0.251196 0.484418
vn -0.968448 0.184563 0.167464
vn -0.427553 0.560047 0.709609
vn -0.570931 0.471082 0.672399
vn -0.682436 0.710303 0.172485
vn -0.824573 0.548189 0.139885
vn -0.807342 0.418034 0.416469
vn -0.870581 0.451353 0.195881
vn -0.688690 0.538899 0.485071
vn -0.121760 0.840423 0.528075
vn -0.190410 0.926615 0.324237
vn -0.188050 0.741561 0.643991
vn -0.355434 0.693449 0.626733
vn -0.516688 0.848997 0.110622
vn -0.691509 0.703686 0.163222
vn -0.618740 0.680312 0.392857
vn -0.465514 0.769180 0.437789
vn -0.120579 0.986462 0.111148
vn -0.108186 0.985484 0.130831
vn -0.321667 0.945188 0.056116
vn -0.427516 0.888409 0.167209
vn -0.162825 0.922334 0.350411
vn -0.367223 0.872165 0.323225
vn -0.933031 0.359781 0.003178
vn -0.988682 0.148771 -0.019355
vn -0.832748 0.553624 -0.005645
vn -0.692818 0.721109 0.002101
vn -0.833452 0.552565 -0.005411
vn -0.519879 0.854240 0.000602
vn -0.587871 0.808945 -0.003895
vn -0.322175 0.946679 0.001542
vn -0.377111 0.926168 -0.000377
vn -0.255411 0.966833 -0.000187
vn -0.109124 0.994027 0.001488
vn -0.161230 0.986917 0.000194
vn -0.090223 0.995921 0.000910
vn -0.045288 0.998974 0.000228
vn -0.015114 0.999886 0.000000
vn 0.000000 0.993712 0.111965
vn 0.000000 0.993712 0.111965
vn 0.000000 0.846723 0.532034
vn 0.000000 0.943883 0.330280
vn 0.000000 0.943883 0.330280
vn 0.000000 0.846723 0.532034
vn 0.000000 0.532018 0.846733
vn 0.000000 0.707110 0.707103
vn 0.000000 0.707110 0.707103
vn 0.000000 0.330292 0.943879
vn 0.000000 0.532018 0.846733
vn 0.000000 0.111964 0.993712
vn 0.000000 0.330292 0.943879
vn 0.000000 0.111964 0.993712
vn -0.999781 0.000000 0.020933
vn -0.998033 -0.000218 0.062688
vn -0.993712 -0.000774 0.111965
vn -0.994543 -0.000653 0.104327
vn -0.989298 -0.000352 0.145906
vn -0.943884 -0.000524 0.330277
vn -0.959832 0.000629 0.280575
vn -0.846722 -0.000442 0.532036
vn -0.868670 0.000552 0.495391
vn -0.707109 -0.000348 0.707104
vn -0.730200 0.000464 0.683233
vn -0.532018 -0.000243 0.846733
vn -0.551976 0.000365 0.833860
vn -0.330292 -0.000127 0.943879
vn -0.343691 0.000254 0.939083
vn -0.111965 0.000000 0.993712
vn -0.116676 0.000133 0.993170
vn -0.993712 -0.111964 0.000000
vn -0.980478 -0.196614 -0.002386
vn -0.841658 -0.540007 -0.001760
vn -0.943884 -0.330277 0.000848
vn -0.846721 -0.532032 -0.002313
vn -0.604393 -0.796682 -0.002717
vn -0.707106 -0.707107 0.001111
vn -0.425085 -0.905153 -0.000329
vn -0.327688 -0.944785 0.001265
vn -0.532031 -0.846724 0.000923
vn -0.229899 -0.973214 -0.000262
vn -0.138739 -0.990329 0.000638
vn -0.330280 -0.943882 0.001148
vn -0.046379 -0.998924 -0.000000
vn -0.111964 -0.993711 0.001525
vn -0.111924 -0.993353 -0.026900
vn -0.051819 -0.992377 0.111814
vn -0.326391 -0.932769 0.153008
vn -0.107126 -0.938451 0.328379
vn -0.341933 -0.927637 0.150236
vn -0.154881 -0.961651 0.226363
vn -0.531838 -0.846417 -0.026955
vn -0.331764 -0.930388 0.155918
vn -0.143923 -0.837908 0.526495
vn -0.168132 -0.697044 0.697037
vn -0.172049 -0.858706 0.482725
vn -0.402663 -0.817401 0.411969
vn -0.606861 -0.775742 0.173043
vn -0.431913 -0.863441 0.260617
vn -0.143922 -0.526479 0.837918
vn -0.168133 -0.697044 0.697038
vn -0.707089 -0.707091 -0.006876
vn -0.842704 -0.529508 0.097325
vn -0.642617 -0.745574 0.176530
vn -0.427285 -0.639310 0.639304
vn -0.481086 -0.714663 0.507752
vn -0.107115 -0.328391 0.938448
vn -0.326403 -0.153003 0.932765
vn -0.172036 -0.482729 0.858706
vn -0.677649 -0.612742 0.406620
vn -0.845053 -0.515440 0.142149
vn -0.706636 -0.659484 0.256410
vn -0.402673 -0.411967 0.817397
vn -0.481091 -0.507745 0.714666
vn -0.051832 -0.111814 0.992377
vn -0.111924 0.026867 0.993353
vn -0.154882 -0.226351 0.961653
vn -0.341902 -0.150239 0.927648
vn -0.731115 -0.482429 0.482425
vn -0.677643 -0.406618 0.612749
vn -0.531825 0.026945 0.846425
vn -0.331771 -0.155910 0.930387
vn -0.606848 -0.173051 0.775750
vn -0.431923 -0.260613 0.863437
vn -0.938306 -0.328326 0.108555
vn -0.987757 -0.111293 0.109319
vn -0.938306 -0.108556 0.328326
vn -0.987757 -0.109319 0.111294
vn -0.898330 -0.397731 0.186582
vn -0.898331 -0.186582 0.397730
vn -0.877793 -0.338734 0.338731
vn -0.707093 0.006891 0.707087
vn -0.842703 -0.097312 0.529511
vn -0.642613 -0.176539 0.745575
vn -0.845054 -0.142149 0.515439
vn -0.706630 -0.256414 0.659489
vn 0.000000 -1.000000 0.000000
vn 0.000000 -1.000000 0.000000
vn 0.000000 0.000000 -1.000000
vn 0.000000 0.000000 -1.000000
vn 0.000000 0.000000 -1.000000
vn 0.000000 0.000000 -1.000000
vn 0.000000 0.000000 -1.000000
vn 0.000000 0.000000 -1.000000
vn 0.000001 -0.972747 -0.231871
vn 0.000001 -0.972747 -0.231871
vn 0.000001 -0.972747 -0.231871
vn -0.000001 -0.972747 -0.231871
vn 0.000000 -0.972747 -0.231871
vn -0.000000 -0.972747 -0.231871
vn -0.000002 -0.972746 -0.231871
vn -0.000000 -0.972747 -0.231870
vn -0.000000 -0.972747 -0.231870
vn -0.000000 -0.972747 -0.231871
vn -0.000000 -0.972747 -0.231871
vn 0.000000 -0.972747 -0.231871
vn 0.988858 -0.148865 0.000000
vn 0.993711 -0.111964 -0.001630
vn 0.943883 -0.330280 0.000820
vn 0.846724 -0.532031 0.000990
vn 0.898249 -0.439483 -0.001787
vn 0.707107 -0.707106 0.000569
vn 0.739915 -0.672699 -0.001361
vn 0.532032 -0.846725 0.000269
vn 0.547176 -0.837017 -0.000628
vn 0.330280 -0.943882 0.001148
vn 0.360369 -0.932810 -0.000216
vn 0.229899 -0.973214 -0.000262
vn 0.111964 -0.993711 0.001525
vn 0.138738 -0.990329 0.000638
vn 0.046379 -0.998924 0.000000
vn 0.987541 -0.111269 0.111269
vn 0.943680 -0.330209 0.020740
vn 0.980726 -0.138161 0.138161
vn 0.843847 -0.530224 0.082371
vn 0.702105 -0.702104 0.118740
vn 0.878824 -0.446828 0.167372
vn 0.943680 -0.020748 0.330209
vn 0.980726 -0.138161 0.138161
vn 0.530407 -0.844138 0.078098
vn 0.674630 -0.720597 0.160048
vn 0.902390 -0.304706 0.304708
vn 0.872151 -0.426517 0.239660
vn 0.328617 -0.939130 0.100228
vn 0.111389 -0.988605 0.101251
vn 0.117917 -0.937298 0.327976
vn 0.102038 -0.988526 0.111380
vn 0.386366 -0.906450 0.170500
vn 0.724962 -0.578154 0.374390
vn 0.659110 -0.695023 0.287258
vn 0.843846 -0.082366 0.530226
vn 0.702109 -0.118733 0.702101
vn 0.878826 -0.167374 0.446823
vn 0.872153 -0.239660 0.426512
vn 0.132648 -0.839241 0.527333
vn 0.158069 -0.918854 0.361554
vn 0.462478 -0.797259 0.387934
vn 0.372388 -0.882957 0.285858
vn 0.683872 -0.515908 0.515905
vn 0.724962 -0.374395 0.578151
vn 0.138727 -0.700273 0.700266
vn 0.421095 -0.735594 0.530642
vn 0.184454 -0.783302 0.593645
vn 0.487335 -0.617457 0.617455
vn 0.530393 -0.078105 0.844146
vn 0.674623 -0.160055 0.720601
vn 0.659104 -0.287255 0.695030
vn 0.132644 -0.527317 0.839251
vn 0.184459 -0.593643 0.783302
vn 0.421092 -0.530642 0.735596
vn 0.462474 -0.387927 0.797264
vn 0.328628 -0.100238 0.939125
vn 0.111389 -0.101262 0.988604
vn 0.102048 -0.111380 0.988525
vn 0.117926 -0.327987 0.937293
vn 0.386367 -0.170496 0.906450
vn 0.158064 -0.361554 0.918855
vn 0.372389 -0.285856 0.882957
vn 0.988868 0.148798 -0.000243
vn 0.932297 0.361694 -0.000249
vn 0.933036 0.359783 0.000240
vn 0.817771 0.575536 -0.002982
vn 0.832761 0.553633 0.000244
vn 0.622412 0.782683 -0.003234
vn 0.692820 0.721108 0.001900
vn 0.432506 0.901631 -0.000786
vn 0.519878 0.854239 0.001641
vn 0.175637 0.984455 0.000145
vn 0.233480 0.972362 -0.000109
vn 0.313040 0.949739 0.000976
vn 0.322174 0.946679 0.001368
vn 0.025238 0.999681 0.000000
vn 0.075438 0.997150 0.000635
vn 0.124865 0.992172 0.001893
vn 0.109124 0.994027 0.001287
vn 0.979816 0.162431 0.116518
vn 0.987354 0.148571 0.055315
vn 0.025813 0.330182 0.943564
vn 0.126201 0.701457 0.701450
vn 0.120790 0.528123 0.840533
vn 0.161521 0.483949 0.860060
vn 0.118692 0.111173 0.986688
vn 0.115881 0.116572 0.986399
vn 0.343432 0.038938 0.938370
vn 0.140416 0.188469 0.971989
vn 0.190409 0.926614 0.324237
vn 0.121759 0.840423 0.528076
vn 0.188050 0.741561 0.643991
vn 0.316513 0.308355 0.897071
vn 0.271376 0.438867 0.856593
vn 0.108187 0.985484 0.130830
vn 0.321667 0.945189 0.056116
vn 0.120579 0.986462 0.111148
vn 0.162825 0.922334 0.350410
vn 0.355433 0.693449 0.626734
vn 0.427553 0.560047 0.709610
vn 0.551817 0.023819 0.833625
vn 0.428483 0.220387 0.876260
vn 0.432084 0.171770 0.885324
vn 0.516688 0.848997 0.110622
vn 0.465514 0.769180 0.437789
vn 0.427516 0.888409 0.167209
vn 0.367224 0.872165 0.323225
vn 0.570931 0.471081 0.672399
vn 0.605505 0.312581 0.731886
vn 0.682437 0.710302 0.172485
vn 0.824573 0.548189 0.139885
vn 0.691510 0.703685 0.163223
vn 0.618742 0.680311 0.392856
vn 0.688691 0.538899 0.485070
vn 0.726373 0.102255 0.679652
vn 0.868562 -0.015854 0.495326
vn 0.715105 0.193275 0.671766
vn 0.714518 0.145875 0.684240
vn 0.968006 0.177791 0.177072
vn 0.923943 0.356277 0.139270
vn 0.952173 0.126076 0.278336
vn 0.870581 0.451353 0.195881
vn 0.968448 0.184563 0.167464
vn 0.807342 0.418035 0.416467
vn 0.886419 0.169403 0.430771
vn 0.837998 0.251195 0.484418
vn 1.000000 0.000000 0.000000
vn 1.000000 0.000000 0.000000
vn 1.000000 0.000000 0.000000
vn 1.000000 0.000000 0.000000
vn 1.000000 0.000000 0.000000
vn 1.000000 0.000000 -0.000000
vn 1.000000 0.000000 -0.000000
vn 0.000000 -0.111964 0.993712
vn 0.000000 -0.111964 0.993712
vn 0.000000 -0.532018 0.846733
vn 0.000000 -0.330292 0.943879
vn 0.000000 -0.330292 0.943879
vn 0.000000 -0.532018 0.846733
vn 0.000000 -0.846723 0.532034
vn 0.000000 -0.707110 0.707103
vn 0.000000 -0.707110 0.707103
vn 0.000000 -0.943883 0.330280
vn 0.000000 -0.846723 0.532034
vn 0.000000 -0.993712 0.111965
vn 0.000000 -0.943883 0.330280
vn 0.000000 -0.993712 0.111965
vn 0.994546 -0.000653 0.104298
vn 0.998032 -0.000218 0.062702
vn 0.999781 -0.000000 0.020933
vn 0.989296 -0.000352 0.145920
vn 0.959832 0.000629 0.280575
vn 0.993712 -0.000774 0.111965
vn 0.868671 0.000552 0.495389
vn 0.943883 -0.000524 0.330280
vn 0.730200 0.000464 0.683233
vn 0.846723 -0.000442 0.532034
vn 0.551974 0.000365 0.833861
vn 0.707111 -0.000348 0.707103
vn 0.343693 0.000254 0.939082
vn 0.532018 -0.000243 0.846733
vn 0.116676 0.000133 0.993170
vn 0.330292 -0.000127 0.943879
vn 0.111964 -0.000000 0.993712
vn 0.000000 -0.000000 1.000000
vn 0.000000 0.000000 1.000000
vn 0.987541 -0.111269 -0.111269
vn 0.943680 -0.020739 -0.330209
vn 0.702104 -0.118738 -0.702104
vn 0.843847 -0.082369 -0.530224
vn 0.878824 -0.167368 -0.446829
vn 0.943680 -0.330209 -0.020739
vn 0.980726 -0.138159 -0.138159
vn 0.980726 -0.138159 -0.138159
vn 0.530409 -0.078099 -0.844137
vn 0.674628 -0.160046 -0.720598
vn 0.902389 -0.304709 -0.304709
vn 0.872150 -0.239662 -0.426516
vn 0.117916 -0.327974 -0.937299
vn 0.102038 -0.111380 -0.988526
vn 0.111389 -0.101251 -0.988605
vn 0.328614 -0.100227 -0.939131
vn 0.386366 -0.170501 -0.906449
vn 0.724961 -0.374394 -0.578152
vn 0.659107 -0.287259 -0.695025
vn 0.843848 -0.530223 -0.082369
vn 0.702104 -0.702104 -0.118738
vn 0.878824 -0.446829 -0.167368
vn 0.872150 -0.426516 -0.239662
vn 0.132643 -0.527332 -0.839242
vn 0.462481 -0.387932 -0.797258
vn 0.158066 -0.361551 -0.918856
vn 0.372389 -0.285854 -0.882958
vn 0.683871 -0.515907 -0.515907
vn 0.724961 -0.578152 -0.374394
vn 0.138722 -0.700270 -0.700270
vn 0.421099 -0.530642 -0.735592
vn 0.184450 -0.593647 -0.783301
vn 0.487339 -0.617455 -0.617455
vn 0.530408 -0.844138 -0.078097
vn 0.674629 -0.720598 -0.160046
vn 0.659108 -0.695025 -0.287260
vn 0.132643 -0.839242 -0.527331
vn 0.184450 -0.783301 -0.593647
vn 0.421099 -0.735592 -0.530641
vn 0.462480 -0.797258 -0.387933
vn 0.328616 -0.939131 -0.100226
vn 0.111389 -0.988606 -0.101249
vn 0.102036 -0.988526 -0.111380
vn 0.117914 -0.937299 -0.327974
vn 0.386367 -0.906450 -0.170499
vn 0.158065 -0.918855 -0.361553
vn 0.372389 -0.882957 -0.285856
vn -0.111924 0.026899 -0.993353
vn -0.051818 -0.111814 -0.992377
vn -0.326388 -0.153007 -0.932770
vn -0.107124 -0.328377 -0.938452
vn -0.341935 -0.150234 -0.927637
vn -0.154879 -0.226362 -0.961651
vn -0.531840 0.026954 -0.846416
vn -0.331767 -0.155920 -0.930387
vn -0.143918 -0.526494 -0.837909
vn -0.172046 -0.482722 -0.858708
vn -0.402664 -0.411965 -0.817402
vn -0.606862 -0.173042 -0.775742
vn -0.431913 -0.260616 -0.863441
vn -0.168127 -0.697041 -0.697041
vn -0.143918 -0.837909 -0.526494
vn -0.168127 -0.697041 -0.697041
vn -0.842704 -0.097326 -0.529508
vn -0.707089 0.006877 -0.707091
vn -0.642617 -0.176529 -0.745574
vn -0.427288 -0.639306 -0.639306
vn -0.481089 -0.507750 -0.714663
vn -0.326390 -0.932769 -0.153007
vn -0.107124 -0.938452 -0.328378
vn -0.172045 -0.858708 -0.482722
vn -0.706637 -0.256408 -0.659484
vn -0.677648 -0.406619 -0.612743
vn -0.845053 -0.142148 -0.515441
vn -0.481089 -0.714663 -0.507750
vn -0.402665 -0.817402 -0.411965
vn -0.111924 -0.993352 0.026903
vn -0.051817 -0.992377 -0.111814
vn -0.154879 -0.961651 -0.226363
vn -0.341939 -0.927636 -0.150234
vn -0.677648 -0.612743 -0.406619
vn -0.731115 -0.482426 -0.482427
vn -0.531839 -0.846416 0.026956
vn -0.331765 -0.930388 -0.155918
vn -0.606862 -0.775742 -0.173042
vn -0.431913 -0.863441 -0.260617
vn -0.938306 -0.328326 -0.108555
vn -0.987757 -0.111293 -0.109319
vn -0.987757 -0.109318 -0.111294
vn -0.938306 -0.108555 -0.328326
vn -0.898331 -0.397731 -0.186581
vn -0.898331 -0.186582 -0.397730
vn -0.877793 -0.338732 -0.338733
vn -0.707089 -0.707091 0.006877
vn -0.842704 -0.529507 -0.097326
vn -0.845053 -0.515441 -0.142147
vn -0.642617 -0.745574 -0.176530
vn -0.706636 -0.659485 -0.256408
vn 0.987541 0.111269 -0.111269
vn 0.943680 0.330209 -0.020739
vn 0.702105 0.702104 -0.118738
vn 0.843847 0.530224 -0.082369
vn 0.878824 0.446829 -0.167369
vn 0.943680 0.020739 -0.330209
vn 0.980726 0.138159 -0.138159
vn 0.980726 0.138159 -0.138159
vn 0.530407 0.844138 -0.078098
vn 0.674629 0.720598 -0.160047
vn 0.902389 0.304709 -0.304709
vn 0.872150 0.426516 -0.239662
vn 0.117915 0.937298 -0.327976
vn 0.102038 0.988526 -0.111380
vn 0.111389 0.988605 -0.101251
vn 0.328617 0.939130 -0.100227
vn 0.386367 0.906450 -0.170499
vn 0.724961 0.578152 -0.374394
vn 0.659108 0.695025 -0.287260
vn 0.843847 0.082369 -0.530224
vn 0.702104 0.118738 -0.702104
vn 0.878824 0.167368 -0.446829
vn 0.872150 0.239662 -0.426515
vn 0.132642 0.839243 -0.527331
vn 0.462481 0.797258 -0.387933
vn 0.158065 0.918855 -0.361553
vn 0.372389 0.882957 -0.285855
vn 0.683872 0.515907 -0.515906
vn 0.724961 0.374394 -0.578152
vn 0.138723 0.700269 -0.700271
vn 0.421099 0.735591 -0.530642
vn 0.184451 0.783301 -0.593648
vn 0.487339 0.617455 -0.617454
vn 0.530409 0.078099 -0.844137
vn 0.674628 0.160046 -0.720598
vn 0.659107 0.287259 -0.695025
vn 0.132643 0.527332 -0.839242
vn 0.184450 0.593647 -0.783301
vn 0.421099 0.530642 -0.735592
vn 0.462480 0.387932 -0.797258
vn 0.328614 0.100227 -0.939131
vn 0.111389 0.101251 -0.988605
vn 0.102038 0.111380 -0.988526
vn 0.117915 0.327973 -0.937299
vn 0.386366 0.170501 -0.906449
vn 0.158066 0.361552 -0.918856
vn 0.372389 0.285854 -0.882957
vn -0.111269 0.987542 -0.111269
vn -0.330209 0.943680 -0.020739
vn -0.702104 0.702105 -0.118738
vn -0.530224 0.843847 -0.082369
vn -0.446829 0.878824 -0.167369
vn -0.020739 0.943680 -0.330209
vn -0.138159 0.980726 -0.138159
vn -0.138159 0.980726 -0.138159
vn -0.844137 0.530409 -0.078098
vn -0.720598 0.674629 -0.160046
vn -0.304709 0.902389 -0.304708
vn -0.426516 0.872150 -0.239662
vn -0.937299 0.117915 -0.327973
vn -0.988526 0.102038 -0.111380
vn -0.988605 0.111389 -0.101251
vn -0.939131 0.328614 -0.100227
vn -0.906449 0.386367 -0.170501
vn -0.578153 0.724961 -0.374393
vn -0.695024 0.659108 -0.287260
vn -0.082369 0.843847 -0.530224
vn -0.118738 0.702104 -0.702105
vn -0.167368 0.878824 -0.446829
vn -0.239663 0.872150 -0.426515
vn -0.839241 0.132644 -0.527332
vn -0.797257 0.462481 -0.387933
vn -0.918855 0.158067 -0.361553
vn -0.882957 0.372389 -0.285856
vn -0.374395 0.724961 -0.578152
vn -0.515908 0.683871 -0.515906
vn -0.700269 0.138723 -0.700271
vn -0.735591 0.421099 -0.530642
vn -0.783301 0.184452 -0.593648
vn -0.617456 0.487339 -0.617454
vn -0.078098 0.530409 -0.844137
vn -0.160045 0.674628 -0.720599
vn -0.287259 0.659107 -0.695025
vn -0.527332 0.132642 -0.839242
vn -0.530642 0.421098 -0.735591
vn -0.593648 0.184450 -0.783301
vn -0.387932 0.462480 -0.797258
vn -0.111380 0.102038 -0.988526
vn -0.327973 0.117915 -0.937299
vn -0.100227 0.328614 -0.939131
vn -0.101251 0.111389 -0.988605
vn -0.170501 0.386366 -0.906449
vn -0.285854 0.372389 -0.882958
vn -0.361551 0.158066 -0.918856
vn -0.992923 0.118759 0.000317
vn -0.993712 0.111964 0.000000
vn -0.936229 0.351389 0.000510
vn -0.943884 0.330277 -0.000290
vn -0.814270 0.580486 0.001190
vn -0.846723 0.532033 -0.000461
vn -0.618407 0.785857 0.001243
vn -0.707106 0.707107 -0.000788
vn -0.431770 0.901984 0.000334
vn -0.532031 0.846724 -0.000652
vn -0.125586 0.992083 -0.000505
vn -0.175673 0.984449 -0.000092
vn -0.233432 0.972373 0.000057
vn -0.313800 0.949489 -0.000366
vn -0.330280 0.943883 -0.000657
vn -0.025238 0.999681 0.000000
vn -0.075550 0.997142 -0.000283
vn -0.111965 0.993712 -0.000693
vn 0.000000 0.111964 -0.993712
vn 0.000000 0.330277 -0.943884
vn 0.000000 0.111964 -0.993712
vn 0.000000 0.532034 -0.846723
vn 0.000000 0.330277 -0.943884
vn 0.000000 0.707106 -0.707107
vn 0.000000 0.532034 -0.846723
vn 0.000000 0.846725 -0.532032
vn 0.000000 0.707106 -0.707107
vn 0.000000 0.943883 -0.330280
vn 0.000000 0.846725 -0.532032
vn 0.000000 0.993712 -0.111965
vn 0.000000 0.943883 -0.330280
vn 0.000000 0.993712 -0.111965
vn -0.993712 0.000000 -0.111965
vn -0.993712 0.000000 -0.111965
vn -0.943884 0.000000 -0.330277
vn -0.943884 0.000000 -0.330277
vn -0.846723 0.000000 -0.532034
vn -0.846723 0.000000 -0.532034
vn -0.707105 0.000000 -0.707108
vn -0.707105 0.000000 -0.707108
vn -0.532034 0.000000 -0.846723
vn -0.532034 0.000000 -0.846723
vn -0.330277 0.000000 -0.943884
vn -0.330277 0.000000 -0.943884
vn -0.111965 0.000000 -0.993712
vn -0.111965 0.000000 -0.993712
vn 0.993712 0.111964 0.000000
vn 0.846723 0.532031 0.001689
vn 0.943883 0.330280 -0.000865
vn 0.984551 0.175073 0.002953
vn 0.707107 0.707106 -0.000747
vn 0.847973 0.530037 0.001580
vn 0.532031 0.846724 -0.000470
vn 0.613157 0.789959 0.001620
vn 0.330280 0.943883 -0.000716
vn 0.406614 0.913600 0.000274
vn 0.282936 0.959139 -0.000041
vn 0.111964 0.993712 -0.000638
vn 0.187279 0.982307 0.000027
vn 0.113901 0.993492 -0.000670
vn 0.062015 0.998075 -0.000190
vn 0.020697 0.999786 0.000000
vn 0.993712 0.000000 -0.111965
vn 0.943883 0.000000 -0.330280
vn 0.993712 0.000000 -0.111965
vn 0.846725 0.000000 -0.532032
vn 0.943883 0.000000 -0.330280
vn 0.707107 0.000000 -0.707107
vn 0.846725 0.000000 -0.532032
vn 0.532034 0.000000 -0.846723
vn 0.707107 0.000000 -0.707107
vn 0.330277 0.000000 -0.943884
vn 0.532034 0.000000 -0.846723
vn 0.111964 0.000000 -0.993712
vn 0.330277 0.000000 -0.943884
vn 0.111964 0.000000 -0.993712
vn 0.000000 -0.993712 -0.111965
vn -0.000000 -0.993712 -0.111965
vn -0.000000 -0.846724 -0.532033
vn -0.000000 -0.943883 -0.330279
vn 0.000000 -0.943883 -0.330279
vn -0.000000 -0.846724 -0.532033
vn -0.000000 -0.532033 -0.846724
vn -0.000000 -0.707107 -0.707107
vn 0.000000 -0.707107 -0.707107
vn -0.000000 -0.330278 -0.943884
vn -0.000000 -0.532033 -0.846724
vn -0.000000 -0.111964 -0.993712
vn -0.000000 -0.330278 -0.943884
vn -0.000000 -0.111964 -0.993712
vn -0.992871 -0.119195 0.000000
vn -0.993712 -0.111964 0.000143
vn -0.846724 -0.532033 -0.000253
vn -0.943884 -0.330278 0.000328
vn -0.936650 -0.350266 -0.000151
vn -0.707105 -0.707108 -0.000564
vn -0.794112 -0.607771 0.001347
vn -0.532032 -0.846724 -0.000584
vn -0.593754 -0.804647 0.000588
vn -0.330279 -0.943883 -0.000612
vn -0.432020 -0.901864 0.000306
vn -0.315680 -0.948866 -0.000369
vn -0.234052 -0.972224 0.000055
vn -0.176358 -0.984326 -0.000087
vn -0.111965 -0.993712 -0.000690
vn -0.126509 -0.991965 -0.000491
vn -0.075970 -0.997110 -0.000285
vn -0.025311 -0.999680 -0.000000
vn 0.981296 -0.192501 0.001388
vn 0.993712 -0.111964 0.000000
vn 0.843201 -0.537598 0.000966
vn 0.943883 -0.330280 -0.000474
vn 0.846724 -0.532031 0.001159
vn 0.607255 -0.794506 0.001311
vn 0.707107 -0.707107 -0.000557
vn 0.405728 -0.913994 0.000250
vn 0.532032 -0.846724 -0.000421
vn 0.282888 -0.959153 -0.000039
vn 0.187050 -0.982350 0.000026
vn 0.114282 -0.993448 -0.000612
vn 0.330278 -0.943883 -0.000678
vn 0.061926 -0.998081 -0.000189
vn 0.020635 -0.999787 0.000000
vn 0.111964 -0.993712 -0.000649
vn -1.000000 0.000000 0.000000
vn -1.000000 0.000000 0.000000
vn -1.000000 0.000000 0.000000
vn -1.000000 0.000000 -0.000000
vn -1.000000 0.000000 0.000000
vn -1.000000 0.000000 0.000000
vn -1.000000 0.000000 0.000000
vn 0.000007 -0.972023 0.234885
vn 0.000007 -0.972024 0.234883
vn 0.000003 -0.972027 0.234870
vn -0.000002 -0.972029 0.234860
vn 0.000001 -0.972028 0.234865
vn 0.000003 -0.972027 0.234868
vn 0.000000 -0.972028 0.234865
vn 0.000001 -0.972028 0.234865
vn 0.000000 -0.972028 0.234865
vn 0.000000 -0.972028 0.234865
vn 0.000000 -0.972028 0.234865
vn 0.000000 -0.972028 0.234865
vn -0.000000 -0.972028 0.234865
vn -0.000000 -0.972028 0.234865
vn -0.000001 -0.972028 0.234865
vn -0.000000 -0.972028 0.234865
vn 0.000000 -0.972028 0.234865
vn -0.000010 -0.972019 0.234903
vn 0.000001 -0.972028 0.234864
vn -0.000005 -0.972025 0.234876
vn -0.000002 -0.972027 0.234868
vn -0.000002 -0.972027 0.234868
vn 0.000000 -1.000000 0.000000
vn 0.000000 -1.000000 0.000000
vn 0.000000 -0.000000 -1.000000
vn -0.000000 0.000000 -1.000000
vn 0.000000 1.000000 0.000000
vn 0.000000 1.000000 0.000000
vn -0.000003 0.972387 0.233373
vn 0.000003 0.972387 0.233373
vn 0.000003 0.972387 0.233373
vn -0.000014 0.972387 0.233374
vn 0.000000 0.972387 0.233373
vn -0.000008 0.972387 0.233374
vn 0.000001 0.972387 0.233373
vn 0.000002 0.972387 0.233373
vn 0.000000 0.972387 0.233373
vn 0.000000 0.972387 0.233373
vn 0.000000 0.972384 0.233387
vn -0.001010 0.972383 0.233389
vn -0.005549 0.972292 0.233704
vn 0.000000 0.972387 0.233373
vn 0.000000 0.972387 0.233373
vn 0.000015 0.972387 0.233374
vn -0.000000 0.972387 0.233373
vn -0.000016 0.972387 0.233372
vn 0.000010 0.972387 0.233374
vn -0.000004 0.972387 0.233373
vn -0.000955 0.972366 0.233459
vn -0.002026 0.972449 0.233106
vn -0.000715 0.972387 0.233373
vn 0.000000 0.972387 0.233373
vn -0.000001 0.972387 0.233373
vn -0.000000 0.972387 0.233373
vn 0.000002 0.972387 0.233373
vn -0.000001 0.972387 0.233373
vn -0.000004 0.972387 0.233373
vn 0.000000 0.972387 -0.233373
vn -0.000005 0.972387 -0.233373
vn 0.000000 0.972387 -0.233373
vn 0.000000 0.972387 -0.233373
vn 0.000009 0.972387 -0.233373
vn -0.000003 0.972387 -0.233373
vn 0.000002 0.972387 -0.233373
vn 0.000002 0.972387 -0.233373
vn 0.000000 0.972387 -0.233373
vn 0.000000 0.972387 -0.233373
vn 0.000002 0.972387 -0.233373
vn 0.000000 0.972387 -0.233373
vn 0.000000 0.972387 -0.233373
vn 0.000011 0.972387 -0.233373
vn -0.000006 0.972387 -0.233373
vn 0.000000 0.972387 -0.233373
vn -0.000008 0.972387 -0.233373
vn -0.000001 0.972387 -0.233373
vn 0.000000 0.972387 -0.233373
vn 0.000000 0.972387 -0.233373
vn -0.000001 0.972387 -0.233373
vn 0.000002 0.972387 -0.233373
vn 0.000000 1.000000 0.000000
vn 0.000000 1.000000 0.000000
f 1//1 2//1 3//1
f 1//2 4//2 2//2
f 5//3 6//3 7//3
f 5//4 7//4 8//4
f 5//5 8//5 9//5
f 10//6 11//6 6//6
f 10//7 6//7 5//7
f 12//8 9//8 13//8
f 12//9 5//9 9//9
f 14//10 15//10 16//10
f 14//11 16//11 11//11
f 14//12 11//12 10//12
f 17//13 10//13 5//13
f 17//14 5//14 12//14
f 18//15 10//15 17//15
f 18//16 14//16 10//16
f 19//17 13//17 20//17
f 19//18 20//18 21//18
f 19//19 17//19 12//19
f 19//20 12//20 13//20
f 22//21 3//21 23//21
f 22//22 23//22 15//22
f 22//23 24//23 1//23
f 22//24 15//24 14//24
f 22//25 14//25 18//25
f 22//26 1//26 3//26
f 25//27 17//27 19//27
f 25//28 18//28 17//28
f 26//29 27//29 28//29
f 26//30 28//30 24//30
f 26//31 22//31 18//31
f 26//32 24//32 22//32
f 26//33 18//33 25//33
f 29//34 21//34 30//34
f 29//35 30//35 31//35
f 29//36 19//36 21//36
f 29//37 25//37 19//37
f 32//38 33//38 27//38
f 32//39 27//39 26//39
f 32//40 26//40 25//40
f 32//41 25//41 29//41
f 34//42 31//42 35//42
f 34//43 35//43 36//43
f 34//44 36//44 33//44
f 34//45 33//45 32//45
f 34//46 29//46 31//46
f 34//47 32//47 29//47
f 37//48 1//48 24//48
f 37//49 4//49 1//49
f 28//50 37//50 24//50
f 38//51 28//51 27//51
f 38//52 37//52 28//52
f 39//53 27//53 33//53
f 39//54 38//54 27//54
f 40//55 33//55 36//55
f 40//56 39//56 33//56
f 41//57 40//57 36//57
f 42//58 36//58 35//58
f 42//59 41//59 36//59
f 43//60 42//60 35//60
f 44//61 43//61 35//61
f 45//62 44//62 35//62
f 46//63 35//63 31//63
f 46//64 47//64 35//64
f 48//65 30//65 21//65
f 48//66 31//66 30//66
f 48//67 46//67 31//67
f 49//68 48//68 21//68
f 50//69 20//69 13//69
f 50//70 21//70 20//70
f 50//71 49//71 21//71
f 51//72 13//72 9//72
f 51//73 50//73 13//73
f 52//74 9//74 8//74
f 52//75 51//75 9//75
f 53//76 52//76 8//76
f 54//77 55//77 56//77
f 57//78 54//78 56//78
f 58//79 56//79 59//79
f 58//80 57//80 56//80
f 23//81 58//81 59//81
f 15//82 59//82 60//82
f 15//83 23//83 59//83
f 16//84 60//84 61//84
f 16//85 15//85 60//85
f 11//86 61//86 62//86
f 11//87 16//87 61//87
f 6//88 62//88 63//88
f 6//89 11//89 62//89
f 7//90 63//90 64//90
f 7//91 6//91 63//91
f 8//92 64//92 65//92
f 8//93 7//93 64//93
f 66//94 56//94 67//94
f 66//95 67//95 68//95
f 69//96 68//96 70//96
f 69//97 66//97 68//97
f 71//98 69//98 70//98
f 72//99 70//99 73//99
f 72//100 71//100 70//100
f 74//101 73//101 75//101
f 74//102 75//102 76//102
f 74//103 72//103 73//103
f 77//104 76//104 78//104
f 77//105 78//105 79//105
f 77//106 74//106 76//106
f 80//107 79//107 81//107
f 80//108 77//108 79//108
f 82//109 77//109 80//109
f 82//110 80//110 83//110
f 84//111 74//111 77//111
f 84//112 83//112 85//112
f 84//113 77//113 82//113
f 84//114 82//114 83//114
f 86//115 72//115 74//115
f 86//116 74//116 84//116
f 87//117 85//117 88//117
f 87//118 88//118 89//118
f 87//119 84//119 85//119
f 90//120 84//120 87//120
f 90//121 72//121 86//121
f 90//122 86//122 84//122
f 91//123 89//123 92//123
f 91//124 87//124 89//124
f 93//125 71//125 72//125
f 93//126 69//126 71//126
f 93//127 72//127 90//127
f 94//128 87//128 91//128
f 94//129 90//129 87//129
f 95//130 92//130 96//130
f 95//131 64//131 63//131
f 95//132 91//132 92//132
f 97//133 90//133 94//133
f 97//134 69//134 93//134
f 97//135 93//135 90//135
f 98//136 91//136 95//136
f 98//137 94//137 91//137
f 99//138 96//138 65//138
f 99//139 65//139 64//139
f 99//140 95//140 96//140
f 99//141 64//141 95//141
f 100//142 97//142 94//142
f 100//143 94//143 98//143
f 101//144 63//144 62//144
f 101//145 95//145 63//145
f 101//146 62//146 98//146
f 101//147 98//147 95//147
f 102//148 66//148 69//148
f 102//149 56//149 66//149
f 102//150 60//150 59//150
f 102//151 59//151 56//151
f 102//152 69//152 97//152
f 102//153 100//153 60//153
f 102//154 97//154 100//154
f 103//155 62//155 61//155
f 103//156 61//156 60//156
f 103//157 98//157 62//157
f 103//158 60//158 100//158
f 103//159 100//159 98//159
f 104//160 80//160 81//160
f 104//161 105//161 80//161
f 79//162 78//162 76//162
f 81//163 79//163 76//163
f 106//164 107//164 104//164
f 106//165 108//165 107//165
f 76//166 106//166 104//166
f 76//167 104//167 81//167
f 73//168 76//168 75//168
f 70//169 76//169 73//169
f 68//170 76//170 70//170
f 109//171 110//171 106//171
f 111//172 106//172 76//172
f 111//173 76//173 68//173
f 111//174 109//174 106//174
f 112//175 68//175 67//175
f 112//176 111//176 68//176
f 113//177 112//177 67//177
f 114//178 67//178 115//178
f 114//179 113//179 67//179
f 112//180 113//180 116//180
f 112//181 116//181 117//181
f 112//182 117//182 118//182
f 111//183 118//183 119//183
f 111//184 112//184 118//184
f 109//185 119//185 120//185
f 109//186 111//186 119//186
f 110//187 120//187 121//187
f 110//188 109//188 120//188
f 106//189 121//189 122//189
f 106//190 110//190 121//190
f 108//191 106//191 122//191
f 107//192 122//192 105//192
f 107//193 108//193 122//193
f 104//194 107//194 105//194
f 123//195 117//195 116//195
f 124//196 118//196 117//196
f 124//197 117//197 123//197
f 125//198 119//198 118//198
f 125//199 120//199 119//199
f 125//200 118//200 124//200
f 126//201 123//201 127//201
f 126//202 124//202 123//202
f 128//203 121//203 120//203
f 128//204 120//204 125//204
f 129//205 124//205 126//205
f 129//206 125//206 124//206
f 130//207 122//207 121//207
f 130//208 105//208 122//208
f 130//209 131//209 132//209
f 130//210 132//210 105//210
f 130//211 121//211 128//211
f 133//212 125//212 129//212
f 133//213 128//213 125//213
f 134//214 127//214 135//214
f 134//215 135//215 136//215
f 134//216 126//216 127//216
f 134//217 129//217 126//217
f 137//218 138//218 131//218
f 137//219 131//219 130//219
f 137//220 128//220 133//220
f 137//221 130//221 128//221
f 139//222 133//222 129//222
f 139//223 129//223 134//223
f 140//224 141//224 138//224
f 140//225 137//225 133//225
f 140//226 138//226 137//226
f 140//227 133//227 139//227
f 142//228 136//228 143//228
f 142//229 134//229 136//229
f 142//230 139//230 134//230
f 144//231 145//231 141//231
f 144//232 141//232 140//232
f 144//233 140//233 139//233
f 144//234 139//234 142//234
f 146//235 143//235 147//235
f 146//236 147//236 148//236
f 146//237 148//237 149//237
f 146//238 149//238 145//238
f 146//239 142//239 143//239
f 146//240 145//240 144//240
f 146//241 144//241 142//241
f 150//242 151//242 152//242
f 153//243 152//243 154//243
f 153//244 150//244 152//244
f 155//245 154//245 156//245
f 155//246 153//246 154//246
f 157//247 156//247 158//247
f 157//248 155//248 156//248
f 159//249 158//249 160//249
f 159//250 157//250 158//250
f 161//251 162//251 163//251
f 161//252 164//252 162//252
f 161//253 160//253 164//253
f 161//254 159//254 160//254
f 47//255 165//255 166//255
f 47//256 167//256 165//256
f 47//257 163//257 167//257
f 47//258 161//258 163//258
f 168//259 150//259 169//259
f 151//260 150//260 168//260
f 170//261 51//261 52//261
f 171//262 49//262 50//262
f 171//263 50//263 51//263
f 171//264 51//264 170//264
f 172//265 52//265 53//265
f 172//266 53//266 173//266
f 172//267 173//267 174//267
f 172//268 170//268 52//268
f 175//269 46//269 48//269
f 175//270 48//270 49//270
f 175//271 49//271 171//271
f 176//272 170//272 172//272
f 176//273 171//273 170//273
f 177//274 161//274 47//274
f 177//275 159//275 161//275
f 177//276 47//276 46//276
f 177//277 46//277 175//277
f 178//278 175//278 171//278
f 178//279 171//279 176//279
f 179//280 174//280 180//280
f 179//281 176//281 172//281
f 179//282 172//282 174//282
f 181//283 157//283 159//283
f 181//284 175//284 178//284
f 181//285 159//285 177//285
f 181//286 177//286 175//286
f 182//287 178//287 176//287
f 182//288 176//288 179//288
f 183//289 155//289 157//289
f 183//290 153//290 155//290
f 183//291 157//291 181//291
f 183//292 181//292 178//292
f 183//293 178//293 182//293
f 184//294 180//294 185//294
f 184//295 185//295 186//295
f 184//296 182//296 179//296
f 184//297 179//297 180//297
f 187//298 188//298 169//298
f 187//299 150//299 153//299
f 187//300 186//300 188//300
f 187//301 153//301 183//301
f 187//302 169//302 150//302
f 187//303 183//303 182//303
f 187//304 184//304 186//304
f 187//305 182//305 184//305
f 189//306 116//306 113//306
f 190//307 113//307 114//307
f 190//308 114//308 191//308
f 190//309 189//309 113//309
f 192//310 191//310 193//310
f 192//311 190//311 191//311
f 194//312 192//312 193//312
f 149//313 65//313 96//313
f 149//314 148//314 65//314
f 145//315 92//315 89//315
f 145//316 96//316 92//316
f 145//317 149//317 96//317
f 141//318 145//318 89//318
f 138//319 88//319 85//319
f 138//320 89//320 88//320
f 138//321 141//321 89//321
f 131//322 85//322 83//322
f 131//323 138//323 85//323
f 132//324 83//324 80//324
f 132//325 131//325 83//325
f 105//326 132//326 80//326
f 116//327 195//327 196//327
f 116//328 197//328 195//328
f 116//329 189//329 197//329
f 123//330 196//330 188//330
f 123//331 188//331 186//331
f 123//332 116//332 196//332
f 127//333 186//333 185//333
f 127//334 123//334 186//334
f 135//335 185//335 180//335
f 135//336 127//336 185//336
f 136//337 180//337 174//337
f 136//338 135//338 180//338
f 143//339 174//339 173//339
f 143//340 136//340 174//340
f 147//341 173//341 53//341
f 147//342 143//342 173//342
f 148//343 147//343 53//343
f 148//344 53//344 8//344
f 148//345 8//345 65//345
f 198//346 199//346 193//346
f 200//347 201//347 199//347
f 202//348 203//348 204//348
f 202//349 204//349 201//349
f 202//350 201//350 200//350
f 205//351 198//351 206//351
f 205//352 199//352 198//352
f 205//353 200//353 199//353
f 207//354 208//354 203//354
f 207//355 203//355 202//355
f 209//356 200//356 205//356
f 209//357 202//357 200//357
f 210//358 211//358 212//358
f 210//359 212//359 213//359
f 210//360 213//360 214//360
f 210//361 214//361 208//361
f 210//362 208//362 207//362
f 215//363 202//363 209//363
f 215//364 207//364 202//364
f 216//365 206//365 217//365
f 216//366 217//366 218//366
f 216//367 205//367 206//367
f 216//368 209//368 205//368
f 219//369 220//369 211//369
f 219//370 207//370 215//370
f 219//371 211//371 210//371
f 219//372 210//372 207//372
f 221//373 215//373 209//373
f 221//374 209//374 216//374
f 222//375 223//375 220//375
f 222//376 219//376 215//376
f 222//377 220//377 219//377
f 222//378 215//378 221//378
f 224//379 218//379 225//379
f 224//380 216//380 218//380
f 224//381 221//381 216//381
f 226//382 227//382 223//382
f 226//383 223//383 222//383
f 226//384 222//384 221//384
f 226//385 221//385 224//385
f 228//386 225//386 229//386
f 228//387 229//387 230//387
f 228//388 230//388 231//388
f 228//389 231//389 227//389
f 228//390 224//390 225//390
f 228//391 227//391 226//391
f 228//392 226//392 224//392
f 232//393 233//393 234//393
f 232//394 234//394 235//394
f 236//395 237//395 233//395
f 236//396 235//396 238//396
f 236//397 233//397 232//397
f 236//398 232//398 235//398
f 239//399 240//399 237//399
f 239//400 237//400 236//400
f 241//401 238//401 242//401
f 241//402 236//402 238//402
f 243//403 236//403 241//403
f 243//404 240//404 239//404
f 243//405 239//405 236//405
f 244//406 242//406 245//406
f 244//407 245//407 246//407
f 244//408 241//408 242//408
f 247//409 248//409 249//409
f 247//410 249//410 240//410
f 247//411 240//411 243//411
f 250//412 241//412 244//412
f 250//413 243//413 241//413
f 251//414 252//414 253//414
f 251//415 246//415 254//415
f 251//416 244//416 246//416
f 255//417 247//417 243//417
f 255//418 243//418 250//418
f 255//419 248//419 247//419
f 256//420 250//420 244//420
f 256//421 244//421 251//421
f 257//422 258//422 252//422
f 257//423 254//423 258//423
f 257//424 251//424 254//424
f 257//425 252//425 251//425
f 259//426 250//426 256//426
f 259//427 255//427 250//427
f 260//428 253//428 261//428
f 260//429 251//429 253//429
f 260//430 261//430 256//430
f 260//431 256//431 251//431
f 262//432 263//432 264//432
f 262//433 264//433 265//433
f 262//434 265//434 266//434
f 262//435 266//435 248//435
f 262//436 259//436 263//436
f 262//437 248//437 255//437
f 262//438 255//438 259//438
f 267//439 261//439 268//439
f 267//440 268//440 263//440
f 267//441 263//441 259//441
f 267//442 256//442 261//442
f 267//443 259//443 256//443
f 269//444 270//444 194//444
f 271//445 272//445 270//445
f 273//446 274//446 275//446
f 273//447 275//447 272//447
f 273//448 272//448 271//448
f 276//449 269//449 277//449
f 276//450 270//450 269//450
f 276//451 271//451 270//451
f 278//452 279//452 274//452
f 278//453 274//453 273//453
f 280//454 271//454 276//454
f 280//455 273//455 271//455
f 281//456 282//456 283//456
f 281//457 283//457 284//457
f 281//458 284//458 285//458
f 281//459 285//459 279//459
f 281//460 279//460 278//460
f 286//461 273//461 280//461
f 286//462 278//462 273//462
f 287//463 277//463 288//463
f 287//464 288//464 289//464
f 287//465 276//465 277//465
f 287//466 280//466 276//466
f 290//467 291//467 282//467
f 290//468 278//468 286//468
f 290//469 282//469 281//469
f 290//470 281//470 278//470
f 292//471 286//471 280//471
f 292//472 280//472 287//472
f 293//473 294//473 291//473
f 293//474 290//474 286//474
f 293//475 291//475 290//475
f 293//476 286//476 292//476
f 295//477 289//477 296//477
f 295//478 287//478 289//478
f 295//479 292//479 287//479
f 297//480 298//480 294//480
f 297//481 294//481 293//481
f 297//482 293//482 292//482
f 297//483 292//483 295//483
f 299//484 296//484 300//484
f 299//485 300//485 301//485
f 299//486 301//486 302//486
f 299//487 302//487 298//487
f 299//488 295//488 296//488
f 299//489 298//489 297//489
f 299//490 297//490 295//490
f 303//491 304//491 305//491
f 306//492 307//492 304//492
f 308//493 309//493 310//493
f 308//494 310//494 307//494
f 308//495 307//495 306//495
f 311//496 303//496 312//496
f 311//497 304//497 303//497
f 311//498 306//498 304//498
f 313//499 314//499 309//499
f 313//500 309//500 308//500
f 315//501 306//501 311//501
f 315//502 308//502 306//502
f 316//503 317//503 318//503
f 316//504 318//504 319//504
f 316//505 319//505 320//505
f 316//506 320//506 314//506
f 316//507 314//507 313//507
f 321//508 308//508 315//508
f 321//509 313//509 308//509
f 322//510 312//510 323//510
f 322//511 323//511 324//511
f 322//512 311//512 312//512
f 322//513 315//513 311//513
f 325//514 326//514 317//514
f 325//515 313//515 321//515
f 325//516 317//516 316//516
f 325//517 316//517 313//517
f 327//518 315//518 322//518
f 327//519 321//519 315//519
f 328//520 329//520 326//520
f 328//521 325//521 321//521
f 328//522 326//522 325//522
f 328//523 321//523 327//523
f 330//524 324//524 331//524
f 330//525 322//525 324//525
f 330//526 327//526 322//526
f 332//527 333//527 329//527
f 332//528 328//528 327//528
f 332//529 329//529 328//529
f 332//530 327//530 330//530
f 334//531 335//531 336//531
f 334//532 336//532 333//532
f 334//533 331//533 337//533
f 334//534 337//534 335//534
f 334//535 330//535 331//535
f 334//536 332//536 330//536
f 334//537 333//537 332//537
f 320//538 338//538 339//538
f 320//539 319//539 338//539
f 314//540 339//540 340//540
f 314//541 320//541 339//541
f 309//542 340//542 341//542
f 309//543 314//543 340//543
f 310//544 341//544 342//544
f 310//545 309//545 341//545
f 307//546 342//546 343//546
f 307//547 310//547 342//547
f 304//548 344//548 345//548
f 304//549 346//549 344//549
f 304//550 347//550 346//550
f 304//551 343//551 347//551
f 304//552 307//552 343//552
f 305//553 348//553 349//553
f 305//554 345//554 348//554
f 305//555 304//555 345//555
f 301//556 335//556 337//556
f 302//557 337//557 331//557
f 302//558 301//558 337//558
f 298//559 331//559 324//559
f 298//560 302//560 331//560
f 294//561 324//561 323//561
f 294//562 298//562 324//562
f 291//563 323//563 312//563
f 291//564 294//564 323//564
f 282//565 312//565 303//565
f 282//566 291//566 312//566
f 283//567 303//567 305//567
f 283//568 282//568 303//568
f 284//569 283//569 305//569
f 266//570 265//570 319//570
f 266//571 319//571 318//571
f 248//572 318//572 317//572
f 248//573 266//573 318//573
f 249//574 317//574 326//574
f 249//575 248//575 317//575
f 240//576 326//576 329//576
f 240//577 249//577 326//577
f 237//578 329//578 333//578
f 237//579 240//579 329//579
f 233//580 333//580 336//580
f 233//581 237//581 333//581
f 234//582 336//582 335//582
f 234//583 233//583 336//583
f 192//584 194//584 270//584
f 350//585 272//585 275//585
f 350//586 270//586 272//586
f 350//587 192//587 270//587
f 351//588 275//588 274//588
f 351//589 350//589 275//589
f 352//590 274//590 279//590
f 352//591 351//591 274//591
f 353//592 279//592 285//592
f 353//593 352//593 279//593
f 354//594 353//594 285//594
f 355//595 285//595 284//595
f 355//596 354//596 285//596
f 356//597 355//597 284//597
f 357//598 356//598 284//598
f 358//599 357//599 284//599
f 194//600 193//600 199//600
f 269//601 199//601 201//601
f 269//602 194//602 199//602
f 277//603 201//603 204//603
f 277//604 269//604 201//604
f 288//605 204//605 203//605
f 288//606 277//606 204//606
f 289//607 203//607 208//607
f 289//608 288//608 203//608
f 296//609 208//609 214//609
f 296//610 289//610 208//610
f 300//611 214//611 213//611
f 300//612 296//612 214//612
f 301//613 300//613 213//613
f 231//614 230//614 258//614
f 231//615 258//615 254//615
f 227//616 246//616 245//616
f 227//617 254//617 246//617
f 227//618 231//618 254//618
f 223//619 227//619 245//619
f 220//620 242//620 238//620
f 220//621 245//621 242//621
f 220//622 223//622 245//622
f 211//623 238//623 235//623
f 211//624 220//624 238//624
f 212//625 235//625 234//625
f 212//626 211//626 235//626
f 213//627 212//627 234//627
f 359//628 360//628 265//628
f 359//629 265//629 264//629
f 361//630 263//630 268//630
f 361//631 264//631 263//631
f 361//632 359//632 264//632
f 362//633 268//633 261//633
f 362//634 361//634 268//634
f 363//635 261//635 253//635
f 363//636 362//636 261//636
f 364//637 253//637 252//637
f 364//638 363//638 253//638
f 365//639 364//639 252//639
f 366//640 365//640 252//640
f 367//641 366//641 252//641
f 368//642 252//642 258//642
f 368//643 367//643 252//643
f 369//644 368//644 258//644
f 370//645 369//645 258//645
f 198//646 191//646 371//646
f 198//647 193//647 191//647
f 206//648 371//648 372//648
f 206//649 198//649 371//649
f 217//650 206//650 372//650
f 218//651 372//651 373//651
f 218//652 217//652 372//652
f 225//653 373//653 374//653
f 225//654 218//654 373//654
f 229//655 374//655 375//655
f 229//656 375//656 376//656
f 229//657 376//657 377//657
f 229//658 225//658 374//658
f 230//659 377//659 378//659
f 230//660 378//660 379//660
f 230//661 229//661 377//661
f 265//662 338//662 319//662
f 360//663 380//663 338//663
f 360//664 338//664 265//664
f 115//665 380//665 360//665
f 67//666 55//666 380//666
f 67//667 380//667 115//667
f 56//668 55//668 67//668
f 370//669 368//669 369//669
f 370//670 367//670 368//670
f 370//671 366//671 367//671
f 370//672 365//672 366//672
f 370//673 364//673 365//673
f 370//674 363//674 364//674
f 370//675 362//675 363//675
f 370//676 361//676 362//676
f 370//677 359//677 361//677
f 191//678 360//678 359//678
f 191//679 114//679 115//679
f 191//680 115//680 360//680
f 371//681 359//681 370//681
f 371//682 191//682 359//682
f 379//683 372//683 371//683
f 379//684 373//684 372//684
f 379//685 371//685 370//685
f 377//686 379//686 378//686
f 374//687 373//687 379//687
f 376//688 379//688 377//688
f 375//689 374//689 379//689
f 375//690 379//690 376//690
f 230//691 370//691 258//691
f 230//692 379//692 370//692
f 301//693 213//693 234//693
f 301//694 234//694 335//694
f 47//695 45//695 35//695
f 47//696 166//696 45//696
f 40//697 41//697 380//697
f 42//698 380//698 41//698
f 43//699 380//699 42//699
f 44//700 380//700 43//700
f 45//701 190//701 380//701
f 45//702 380//702 44//702
f 39//703 40//703 380//703
f 38//704 39//704 380//704
f 37//705 38//705 380//705
f 4//706 37//706 55//706
f 54//707 4//707 55//707
f 2//708 4//708 54//708
f 57//709 2//709 54//709
f 166//710 190//710 45//710
f 165//711 190//711 166//711
f 167//712 190//712 165//712
f 163//713 190//713 167//713
f 162//714 190//714 163//714
f 164//715 190//715 162//715
f 380//716 55//716 37//716
f 57//717 3//717 2//717
f 196//718 169//718 188//718
f 189//719 190//719 197//719
f 197//720 190//720 152//720
f 152//721 190//721 154//721
f 154//722 190//722 156//722
f 156//723 190//723 158//723
f 158//724 190//724 160//724
f 160//725 190//725 164//725
f 380//726 358//726 349//726
f 380//727 349//727 348//727
f 380//728 348//728 345//728
f 380//729 345//729 344//729
f 380//730 344//730 346//730
f 380//731 346//731 347//731
f 380//732 347//732 343//732
f 380//733 343//733 342//733
f 380//734 342//734 341//734
f 380//735 341//735 340//735
f 190//736 353//736 354//736
f 190//737 354//737 355//737
f 190//738 355//738 356//738
f 190//739 356//739 357//739
f 190//740 357//740 358//740
f 190//741 358//741 380//741
f 338//742 380//742 339//742
f 339//743 380//743 340//743
f 190//744 192//744 350//744
f 190//745 350//745 351//745
f 190//746 351//746 352//746
f 190//747 352//747 353//747
f 358//748 305//748 349//748
f 358//749 284//749 305//749
