# Created by FreeCAD <https://www.freecad.org>
v 0.024 0.02 0.17600000000000002
v 0.023758309999999998 0.01999269 0.16003044
v 0.0235175 0.019970790000000002 0.16012169
v 0.023879100000000004 0.01999817 0.16000761000000002
v 0.024 0.02 0.16
v 0.023132220000000002 0.01990474 0.17600000000000002
v 0.02319274 0.01991769 0.16034294
v 0.022768590000000002 0.019805740000000002 0.16080942
v 0.02230577 0.01962348 0.17600000000000002
v 0.02222696 0.01958557 0.16172678000000001
v 0.02156003 0.01916963 0.17600000000000002
v 0.02119031 0.01884704 0.16480398000000002
v 0.02093051 0.0185648 0.17600000000000002
v 0.02034116 0.01761644 0.16993149
v 0.02044719 0.017837810000000003 0.17600000000000002
v 0.0201331 0.01702327 0.17600000000000002
v 0.0200032 0.01616 0.17600000000000002
v 0.020007640000000004 0.01610646 0.17622309000000003
v 0.020025249999999998 0.01605307 0.17644553999999998
v 0.02289934 0.01656258 0.17980421
v 0.02219637 0.016 0.17957027
v 0.023072940000000004 0.016 0.17989109
v 0.024 0.016 0.18
v 0.024 0.016890080000000002 0.17989971000000002
v 0.02168007 0.01654266 0.17921301
v 0.02141801 0.016 0.17905504
v 0.02343811 0.01731181 0.17973677
v 0.024 0.01773553 0.17960386
v 0.02070623 0.01627785 0.17825253
v 0.020317850000000002 0.016 0.17756260000000001
v 0.02078026 0.016 0.17837345
v 0.02221485 0.01757314 0.17921534000000003
v 0.02112551 0.01748642 0.17835114000000002
v 0.02301418 0.01839793 0.17904599999999998
v 0.024 0.01849396 0.17912733
v 0.024 0.01912733 0.17849395999999998
v 0.0203687 0.01716099 0.17721067000000001
v 0.02005595 0.016 0.17666666
v 0.02187258 0.01852532 0.17825762
v 0.02095806 0.01829666 0.17721325000000002
v 0.02286885 0.01928527 0.17798178
v 0.024 0.019603870000000002 0.17773554
v 0.024 0.01989971 0.17689009
v 0.02183899 0.01920563 0.17702662
v 0.022918820000000003 0.01979231 0.1766704
v 0.066 0.016 0.18
v 0.066 0.016890080000000002 0.17989971000000002
v 0.066 0.01773553 0.17960386
v 0.066 0.01849396 0.17912733
v 0.066 0.01912733 0.17849395999999998
v 0.066 0.019603870000000002 0.17773554
v 0.066 0.01989971 0.17689009
v 0.066 0.02 0.17600000000000002
v 0.023109920000000003 -0.016 0.17989971000000002
v 0.024 -0.016 0.18
v 0.022264460000000003 -0.016 0.17960386
v 0.02150604 -0.016 0.17912733
v 0.020872670000000003 -0.016 0.17849395999999998
v 0.020396130000000002 -0.016 0.17773554
v 0.02010029 -0.016 0.17689009
v 0.020031500000000004 0.01603975 0.17650103000000003
v 0.02 -0.016 0.17600000000000002
v 0.0200035 0.01611982 0.17616739
v 0.02 0.01616 0.17600000000000002
v 0.02001401 0.01607972 0.1763345
v 0.06620181 0.0199949 0.16002123000000001
v 0.066 0.02 0.16
v 0.06640311 0.01997964 0.16008484
v 0.06660338 0.01995423 0.1601907
v 0.06686778 0.01990474 0.17600000000000002
v 0.06680212 0.019918750000000002 0.16033854000000003
v 0.06706383 0.019855940000000002 0.16060023999999998
v 0.06744700000000001 0.0197291 0.16112875
v 0.06769423 0.01962348 0.17600000000000002
v 0.06799296 0.01946816 0.16221601
v 0.06843997 0.01916963 0.17600000000000002
v 0.06888467000000001 0.018771040000000003 0.16512063999999999
v 0.0690695 0.0185648 0.17600000000000002
v 0.0695454 0.01785206 0.16894976
v 0.06955281 0.017837810000000003 0.17600000000000002
v 0.06986484 0.01703103 0.17237068
v 0.06986690000000001 0.01702327 0.17600000000000002
v 0.0699968 0.01616 0.17600000000000002
v 0.06999236 0.01610646 0.17622309000000003
v 0.06997476 0.01605307 0.17644553999999998
v 0.06656189 0.01731181 0.17973677
v 0.06698582 0.01839793 0.17904599999999998
v 0.06710066 0.01656258 0.17980421
v 0.06692706000000001 0.016 0.17989109
v 0.06780364 0.016 0.17957027
v 0.06713115 0.01928527 0.17798178
v 0.06778515 0.01757314 0.17921534000000003
v 0.06708118 0.01979231 0.1766704
v 0.06812742000000001 0.01852532 0.17825762
v 0.06831993 0.01654266 0.17921301
v 0.06858199 0.016 0.17905504
v 0.06816101 0.01920563 0.17702662
v 0.06887449 0.01748642 0.17835114000000002
v 0.06904194000000001 0.01829666 0.17721325000000002
v 0.06929378 0.01627785 0.17825253
v 0.06921974 0.016 0.17837345
v 0.06968215 0.016 0.17756260000000001
v 0.0696313 0.01716099 0.17721067000000001
v 0.06994405000000001 0.016 0.17666666
v 0.024 -0.016890080000000002 0.17989971000000002
v 0.0234818 -0.01718482 0.17978518999999998
v 0.024 -0.01773553 0.17960386
v 0.02321542 -0.01834301 0.17914558
v 0.024 -0.01912733 0.17849395999999998
v 0.024 -0.01849396 0.17912733
v 0.02281518 -0.0165182 0.17978518999999998
v 0.02315149 -0.01927323 0.17813681
v 0.024 -0.019603870000000002 0.17773554
v 0.02234156 -0.01765844 0.17924022999999997
v 0.02319324 -0.019818739999999998 0.17687544
v 0.022264460000000003 -0.019603870000000002 0.17600000000000002
v 0.023109920000000003 -0.01989971 0.17600000000000002
v 0.024 -0.02 0.17600000000000002
v 0.024 -0.01989971 0.17689009
v 0.022157460000000004 -0.01867481 0.17833462
v 0.02165699 -0.01678458 0.17914558
v 0.02219581 -0.01937835 0.17715397
v 0.02150604 -0.01912733 0.17600000000000002
v 0.021325189999999997 -0.01784254 0.17833462
v 0.02131313 -0.01868687 0.17724957
v 0.020872670000000003 -0.01849396 0.17600000000000002
v 0.020726770000000002 -0.01684851 0.17813681
v 0.02062165 -0.01780419 0.17715397
v 0.020396130000000002 -0.01773553 0.17600000000000002
v 0.020181260000000003 -0.01680676 0.17687544
v 0.02010029 -0.016890080000000002 0.17600000000000002
v 0.02362937 -0.01998279 0.16
v 0.024 -0.02 0.16
v 0.02326193 -0.01993132 0.16
v 0.02290084 -0.01984602 0.16
v 0.02249448 -0.01970586 0.15941202000000002
v 0.022105510000000002 -0.01952291 0.1586445
v 0.02107946 -0.01873321 0.15533154
v 0.020279639999999998 -0.01746933 0.15002927
v 0.02 -0.016 0.14386513
v 0.066 -0.02 0.17600000000000002
v 0.066 -0.02 0.16
v 0.06673807 -0.01993132 0.16
v 0.06637063 -0.01998279 0.16
v 0.06709916 -0.01984602 0.16
v 0.06858071 -0.01905613 0.15668625
v 0.06777439 -0.01958491 0.15890458000000002
v 0.06930656 -0.01825092 0.15330824
v 0.06982271 -0.01717766 0.14880566
v 0.07 -0.016 0.14386513
v 0.02 -0.00792327 0.10998152
v 0.07 -0.00792327 0.10998152
v 0.06689008 -0.01989971 0.17600000000000002
v 0.06773553 -0.019603870000000002 0.17600000000000002
v 0.06849395999999999 -0.01912733 0.17600000000000002
v 0.06912733 -0.01849396 0.17600000000000002
v 0.06960388 -0.01773553 0.17600000000000002
v 0.06989971 -0.016890080000000002 0.17600000000000002
v 0.07 -0.016 0.17600000000000002
v 0.06989971 -0.016 0.17689009
v 0.06978519000000001 -0.01718482 0.17651819
v 0.06914558999999999 -0.01834301 0.17678457000000003
v 0.06978519000000001 -0.0165182 0.17718481
v 0.06960388 -0.016 0.17773554
v 0.06813682 -0.01927323 0.17684851
v 0.06924024000000001 -0.01765844 0.17765844000000003
v 0.06687544 -0.019818739999999998 0.17680675999999998
v 0.066 -0.019603870000000002 0.17773554
v 0.066 -0.01989971 0.17689009
v 0.06833462 -0.01867481 0.17784254000000002
v 0.06914558999999999 -0.01678458 0.17834301
v 0.06912733 -0.016 0.17849395999999998
v 0.06849395999999999 -0.016 0.17912733
v 0.06715397000000001 -0.01937835 0.17780418
v 0.066 -0.01912733 0.17849395999999998
v 0.06833462 -0.01784254 0.17867481000000002
v 0.06724957 -0.01868687 0.17868687000000003
v 0.066 -0.01849396 0.17912733
v 0.06813682 -0.01684851 0.17927322
v 0.06773553 -0.016 0.17960386
v 0.06715397000000001 -0.01780419 0.17937834
v 0.066 -0.01773553 0.17960386
v 0.06687544 -0.01680676 0.17981873
v 0.06689008 -0.016 0.17989971000000002
v 0.066 -0.016 0.18
v 0.066 -0.016890080000000002 0.17989971000000002
v 0.0699685 0.01603975 0.17650103000000003
v 0.06998599 0.01607972 0.1763345
v 0.0699965 0.01611982 0.17616739
v 0.07 0.01616 0.17600000000000002
v 0.07 0.016 0.043333329999999996
v 0.07 -0.016 0.024
v 0.07 0.016 0.024
v 0.07 0.032 0.11
v 0.07 -0.016 0.07655465
v 0.06689008 0.01989971 0.024
v 0.066 0.01989971 0.023109920000000003
v 0.066 0.02 0.024
v 0.0665182 0.01978519 0.02281518
v 0.066 0.019603870000000002 0.022264460000000003
v 0.06678459 0.01914559 0.02165699
v 0.066 0.01849396 0.020872670000000003
v 0.066 0.01912733 0.02150604
v 0.06718482 0.01978519 0.0234818
v 0.06773553 0.019603870000000002 0.024
v 0.06684851 0.01813681 0.020726770000000002
v 0.066 0.01773553 0.02039612
v 0.06765844 0.01924024 0.02234156
v 0.06680676 0.01687544 0.020181260000000003
v 0.066 0.016 0.02
v 0.066 0.016890080000000002 0.02010029
v 0.06773553 0.016 0.02039612
v 0.06689008 0.016 0.02010029
v 0.06784253999999999 0.01833462 0.021325189999999997
v 0.06834301 0.01914559 0.02321542
v 0.06849395999999999 0.01912733 0.024
v 0.06912733 0.01849396 0.024
v 0.06780419 0.01715397 0.02062165
v 0.06849395999999999 0.016 0.020872670000000003
v 0.06867481 0.01833462 0.022157460000000004
v 0.06868687000000001 0.017249570000000002 0.02131313
v 0.06912733 0.016 0.02150604
v 0.06927323 0.01813681 0.02315149
v 0.06960388 0.01773553 0.024
v 0.06937835 0.01715397 0.0221958
v 0.06960388 0.016 0.022264460000000003
v 0.06981874 0.01687544 0.02319324
v 0.06989971 0.016890080000000002 0.024
v 0.06989971 0.016 0.023109920000000003
v 0.06633082 0.0199863 0.05994290000000001
v 0.06658249 0.01995736 0.05982234
v 0.06616555 0.01999657 0.059985710000000005
v 0.066 0.02 0.06
v 0.06691424 0.01989412 0.05955883
v 0.06734603 0.01976672 0.059028010000000006
v 0.06789432 0.019523 0.058012509999999996
v 0.06892054 0.01873321 0.05472171000000001
v 0.06972036000000001 0.01746933 0.04945552
v 0.06629181 -0.01667455 0.020068100000000002
v 0.066 -0.016890080000000002 0.02010029
v 0.066 -0.016 0.02
v 0.06689008 -0.016 0.02010029
v 0.06731457 -0.01703642 0.020367130000000004
v 0.066 -0.01773553 0.02039612
v 0.06773553 -0.016 0.02039612
v 0.06631738000000001 -0.01796845 0.02053237
v 0.066 -0.01849396 0.020872670000000003
v 0.06826497 -0.01722554 0.020939290000000003
v 0.06849395999999999 -0.016 0.020872670000000003
v 0.06736061 -0.01825976 0.02099297
v 0.06906071 -0.01722554 0.021735030000000002
v 0.06912733 -0.016 0.02150604
v 0.06960388 -0.016 0.022264460000000003
v 0.06629985 -0.01902922 0.02140501
v 0.066 -0.01960388 0.022264460000000003
v 0.066 -0.01912733 0.02150604
v 0.06828381 -0.01835975 0.021716190000000003
v 0.06963287 -0.01703642 0.022685430000000003
v 0.06989971 -0.016 0.023109920000000003
v 0.06989971 -0.016890080000000002 0.024
v 0.06960388 -0.01773553 0.024
v 0.06724076 -0.01921645 0.02197146
v 0.06900703 -0.01825976 0.022639390000000002
v 0.0699319 -0.01667455 0.02370819
v 0.06802855000000001 -0.01921645 0.02275924
v 0.06946763 -0.01796845 0.02368262
v 0.06912733 -0.01849396 0.024
v 0.06687164 -0.01980532 0.02312836
v 0.066 -0.02 0.024
v 0.066 -0.01989971 0.023109920000000003
v 0.06773553 -0.01960388 0.024
v 0.06689008 -0.01989971 0.024
v 0.06859499 -0.01902922 0.02370015
v 0.06849395999999999 -0.01912733 0.024
v 0.06616507 -0.01999659 0.0600141
v 0.066 -0.02 0.06
v 0.06632986 -0.019986379999999998 0.060056380000000006
v 0.06658165 -0.01995749 0.06017595
v 0.06691357 -0.01989428 0.06043755
v 0.06734559 -0.01976688 0.060964790000000005
v 0.06789415 -0.01952309 0.06197375
v 0.06892054 -0.01873321 0.06524281
v 0.06972036000000001 -0.01746933 0.07047360000000001
v 0.024 0.01989971 0.023109920000000003
v 0.023109920000000003 0.01989971 0.024
v 0.024 0.02 0.024
v 0.02281518 0.01978519 0.0234818
v 0.022264460000000003 0.019603870000000002 0.024
v 0.02165699 0.01914559 0.02321542
v 0.020872670000000003 0.01849396 0.024
v 0.02150604 0.01912733 0.024
v 0.0234818 0.01978519 0.02281518
v 0.024 0.019603870000000002 0.022264460000000003
v 0.020726770000000002 0.01813681 0.02315149
v 0.020396130000000002 0.01773553 0.024
v 0.02234156 0.01924024 0.02234156
v 0.020181260000000003 0.01687544 0.02319324
v 0.020396130000000002 0.016 0.022264460000000003
v 0.02010029 0.016 0.023109920000000003
v 0.02 0.016 0.024
v 0.02010029 0.016890080000000002 0.024
v 0.021325189999999997 0.01833462 0.022157460000000004
v 0.02321542 0.01914559 0.02165699
v 0.024 0.01912733 0.02150604
v 0.024 0.01849396 0.020872670000000003
v 0.02062165 0.01715397 0.0221958
v 0.020872670000000003 0.016 0.02150604
v 0.022157460000000004 0.01833462 0.021325189999999997
v 0.02131313 0.017249570000000002 0.02131313
v 0.02150604 0.016 0.020872670000000003
v 0.02315149 0.01813681 0.020726770000000002
v 0.024 0.01773553 0.02039612
v 0.02219581 0.01715397 0.02062165
v 0.022264460000000003 0.016 0.02039612
v 0.02319324 0.01687544 0.020181260000000003
v 0.024 0.016890080000000002 0.02010029
v 0.024 0.016 0.02
v 0.023109920000000003 0.016 0.02010029
v 0.020068100000000002 -0.01667455 0.02370819
v 0.02010029 -0.016890080000000002 0.024
v 0.02 -0.016 0.024
v 0.02010029 -0.016 0.023109920000000003
v 0.020367130000000004 -0.01703642 0.022685430000000003
v 0.020396130000000002 -0.01773553 0.024
v 0.020396130000000002 -0.016 0.022264460000000003
v 0.02053237 -0.01796845 0.02368262
v 0.020872670000000003 -0.01849396 0.024
v 0.020939290000000003 -0.01722554 0.021735030000000002
v 0.020872670000000003 -0.016 0.02150604
v 0.02099297 -0.01825976 0.022639390000000002
v 0.021735030000000002 -0.01722554 0.020939290000000003
v 0.02150604 -0.016 0.020872670000000003
v 0.022264460000000003 -0.016 0.02039612
v 0.02140501 -0.01902922 0.02370015
v 0.022264460000000003 -0.01960388 0.024
v 0.02150604 -0.01912733 0.024
v 0.021716190000000003 -0.01835975 0.021716190000000003
v 0.022685430000000003 -0.01703642 0.020367130000000004
v 0.024 -0.016890080000000002 0.02010029
v 0.024 -0.01773553 0.02039612
v 0.023109920000000003 -0.016 0.02010029
v 0.02197146 -0.01921645 0.02275924
v 0.022639390000000002 -0.01825976 0.02099297
v 0.02370819 -0.01667455 0.020068100000000002
v 0.024 -0.016 0.02
v 0.02275924 -0.01921645 0.02197146
v 0.02368262 -0.01796845 0.02053237
v 0.024 -0.01849396 0.020872670000000003
v 0.02312836 -0.01980532 0.02312836
v 0.024 -0.01960388 0.022264460000000003
v 0.024 -0.01989971 0.023109920000000003
v 0.024 -0.02 0.024
v 0.023109920000000003 -0.01989971 0.024
v 0.02370015 -0.01902922 0.02140501
v 0.024 -0.01912733 0.02150604
v 0.024 -0.02 0.06
v 0.02379755 -0.01999487 0.06002121
v 0.02359561 -0.019979510000000002 0.06008482
v 0.023394710000000003 -0.01995394 0.06019063
v 0.023195359999999998 -0.01991823 0.0603384
v 0.022932860000000003 -0.01985502 0.060599999999999994
v 0.022548590000000004 -0.01972739 0.06112825
v 0.022001270000000003 -0.01946483 0.06221487
v 0.02127025 -0.018923779999999998 0.06445412
v 0.02044818 -0.01783972 0.06894068
v 0.020113660000000002 -0.01694676 0.07263633
v 0.02 -0.016 0.07655465
v 0.02379819 0.0199949 0.05997877
v 0.024 0.02 0.06
v 0.02359689 0.01997964 0.05991515
v 0.023396620000000003 0.01995423 0.05980929
v 0.023197890000000002 0.019918750000000002 0.05966146
v 0.02293617 0.019855940000000002 0.059399749999999994
v 0.022553 0.0197291 0.05887125
v 0.022007040000000002 0.01946816 0.057783980000000006
v 0.02111533 0.018771040000000003 0.05487935
v 0.0204546 0.01785206 0.05105023
v 0.02011531 0.01695352 0.04730631
v 0.02 0.016 0.043333329999999996
v 0.02 0.032 0.11
vn -0.090223 0.995921 0.000910
vn -0.045289 0.998974 0.000228
vn -0.015114 0.999886 0.000000
vn -0.255408 0.966833 -0.000187
vn -0.161230 0.986917 0.000194
vn -0.109124 0.994027 0.001488
vn -0.377112 0.926168 -0.000377
vn -0.322174 0.946679 0.001543
vn -0.587871 0.808945 -0.003895
vn -0.519879 0.854240 0.000602
vn -0.692820 0.721108 0.002102
vn -0.833453 0.552564 -0.005411
vn -0.832748 0.553624 -0.005645
vn -0.933031 0.359781 0.003178
vn -0.988682 0.148771 -0.019355
vn -0.979816 0.162431 0.116517
vn -0.987354 0.148571 0.055315
vn -0.343432 0.038938 0.938370
vn -0.115881 0.116572 0.986399
vn -0.118692 0.111173 0.986688
vn -0.551817 0.023819 0.833625
vn -0.432084 0.171770 0.885324
vn -0.025813 0.330182 0.943564
vn -0.140416 0.188469 0.971989
vn -0.868562 -0.015854 0.495326
vn -0.726373 0.102255 0.679652
vn -0.714518 0.145875 0.684240
vn -0.428483 0.220387 0.876260
vn -0.316513 0.308355 0.897071
vn -0.605505 0.312581 0.731886
vn -0.715105 0.193275 0.671766
vn -0.120790 0.528123 0.840533
vn -0.126201 0.701457 0.701450
vn -0.271376 0.438867 0.856593
vn -0.161521 0.483949 0.860060
vn -0.968006 0.177791 0.177072
vn -0.952173 0.126076 0.278336
vn -0.923943 0.356277 0.139270
vn -0.886419 0.169403 0.430771
vn -0.837998 0.251195 0.484418
vn -0.968448 0.184563 0.167464
vn -0.427553 0.560047 0.709610
vn -0.570931 0.471081 0.672399
vn -0.824573 0.548189 0.139885
vn -0.682437 0.710302 0.172485
vn -0.807343 0.418035 0.416467
vn -0.870581 0.451353 0.195881
vn -0.688691 0.538899 0.485070
vn -0.121759 0.840423 0.528076
vn -0.190409 0.926614 0.324237
vn -0.188050 0.741561 0.643991
vn -0.355433 0.693449 0.626734
vn -0.516688 0.848997 0.110622
vn -0.691510 0.703685 0.163223
vn -0.618742 0.680311 0.392856
vn -0.465514 0.769180 0.437789
vn -0.120579 0.986462 0.111148
vn -0.321667 0.945189 0.056116
vn -0.108187 0.985484 0.130830
vn -0.162825 0.922334 0.350410
vn -0.427516 0.888409 0.167209
vn -0.367224 0.872165 0.323225
vn 0.000000 0.111964 0.993712
vn -0.000000 0.111964 0.993712
vn -0.000000 0.330292 0.943879
vn 0.000000 0.330292 0.943879
vn -0.000000 0.532018 0.846733
vn 0.000000 0.532018 0.846733
vn -0.000000 0.707110 0.707103
vn 0.000000 0.707110 0.707103
vn -0.000000 0.846723 0.532034
vn 0.000000 0.846723 0.532034
vn -0.000000 0.943883 0.330280
vn 0.000000 0.943883 0.330280
vn -0.000000 0.993712 0.111965
vn 0.000000 0.993712 0.111965
vn -0.116676 0.000133 0.993170
vn -0.111964 0.000000 0.993712
vn -0.343693 0.000254 0.939082
vn -0.330292 -0.000127 0.943879
vn -0.551974 0.000365 0.833861
vn -0.532018 -0.000243 0.846733
vn -0.730200 0.000464 0.683233
vn -0.707111 -0.000348 0.707103
vn -0.868671 0.000552 0.495389
vn -0.846723 -0.000442 0.532034
vn -0.959832 0.000629 0.280575
vn -0.989296 -0.000352 0.145920
vn -0.943883 -0.000524 0.330280
vn -0.999781 0.000000 0.020933
vn -0.998032 -0.000218 0.062702
vn -0.994546 -0.000653 0.104298
vn -0.993712 -0.000774 0.111965
vn 0.025238 0.999681 0.000000
vn 0.075439 0.997150 0.000635
vn 0.109124 0.994027 0.001287
vn 0.124864 0.992172 0.001893
vn 0.175635 0.984455 0.000145
vn 0.233482 0.972361 -0.000109
vn 0.322175 0.946679 0.001368
vn 0.313042 0.949739 0.000976
vn 0.519878 0.854239 0.001641
vn 0.432504 0.901632 -0.000786
vn 0.692819 0.721109 0.001900
vn 0.622412 0.782683 -0.003234
vn 0.832761 0.553633 0.000244
vn 0.817772 0.575535 -0.002982
vn 0.933036 0.359783 0.000239
vn 0.932298 0.361690 -0.000249
vn 0.988868 0.148798 -0.000244
vn 0.979818 0.162426 0.116506
vn 0.987353 0.148571 0.055326
vn 0.025813 0.330182 0.943564
vn 0.126201 0.701457 0.701450
vn 0.120790 0.528123 0.840533
vn 0.161521 0.483949 0.860060
vn 0.118692 0.111173 0.986688
vn 0.115881 0.116571 0.986399
vn 0.343431 0.038937 0.938371
vn 0.140416 0.188469 0.971989
vn 0.190410 0.926615 0.324237
vn 0.121760 0.840423 0.528075
vn 0.188050 0.741561 0.643991
vn 0.316513 0.308355 0.897071
vn 0.271376 0.438867 0.856593
vn 0.108186 0.985484 0.130831
vn 0.321667 0.945188 0.056116
vn 0.120579 0.986462 0.111148
vn 0.162825 0.922334 0.350411
vn 0.355434 0.693449 0.626733
vn 0.427553 0.560047 0.709609
vn 0.551820 0.023818 0.833623
vn 0.428483 0.220387 0.876260
vn 0.432084 0.171772 0.885324
vn 0.516688 0.848997 0.110622
vn 0.465514 0.769180 0.437789
vn 0.427516 0.888409 0.167209
vn 0.367223 0.872165 0.323225
vn 0.570931 0.471082 0.672399
vn 0.605505 0.312581 0.731886
vn 0.682436 0.710303 0.172485
vn 0.824573 0.548189 0.139885
vn 0.691509 0.703686 0.163222
vn 0.618740 0.680312 0.392857
vn 0.688690 0.538899 0.485071
vn 0.726374 0.102243 0.679653
vn 0.868561 -0.015868 0.495328
vn 0.715104 0.193276 0.671767
vn 0.714517 0.145871 0.684242
vn 0.968006 0.177785 0.177081
vn 0.923943 0.356277 0.139270
vn 0.952173 0.126074 0.278336
vn 0.870581 0.451353 0.195881
vn 0.968448 0.184563 0.167464
vn 0.807342 0.418034 0.416469
vn 0.886420 0.169400 0.430770
vn 0.837997 0.251196 0.484418
vn 0.000000 1.000000 0.000000
vn 0.000000 1.000000 -0.000000
vn -0.111269 -0.111269 0.987542
vn -0.020723 -0.330221 0.943676
vn -0.118749 -0.702107 0.702100
vn -0.082379 -0.530210 0.843855
vn -0.167353 -0.446840 0.878821
vn -0.330221 -0.020723 0.943676
vn -0.138153 -0.138153 0.980728
vn -0.138153 -0.138153 0.980728
vn -0.078102 -0.844137 0.530409
vn -0.160050 -0.720597 0.674628
vn -0.304717 -0.304717 0.902383
vn -0.239672 -0.426520 0.872146
vn -0.327976 -0.937298 0.117917
vn -0.111380 -0.988526 0.102039
vn -0.101251 -0.988605 0.111389
vn -0.100230 -0.939130 0.328617
vn -0.170502 -0.906449 0.386367
vn -0.374394 -0.578147 0.724966
vn -0.287255 -0.695026 0.659108
vn -0.530210 -0.082379 0.843855
vn -0.702107 -0.118749 0.702100
vn -0.446840 -0.167353 0.878821
vn -0.426520 -0.239672 0.872146
vn -0.527330 -0.839243 0.132644
vn -0.387930 -0.797259 0.462481
vn -0.361552 -0.918855 0.158066
vn -0.285854 -0.882957 0.372390
vn -0.578146 -0.374394 0.724966
vn -0.515903 -0.515904 0.683877
vn -0.700271 -0.700269 0.138724
vn -0.530643 -0.735591 0.421098
vn -0.593647 -0.783301 0.184452
vn -0.617455 -0.617456 0.487337
vn -0.844137 -0.078102 0.530409
vn -0.720598 -0.160050 0.674628
vn -0.695026 -0.287255 0.659108
vn -0.839243 -0.527330 0.132644
vn -0.735592 -0.530642 0.421097
vn -0.783302 -0.593646 0.184452
vn -0.797260 -0.387930 0.462480
vn -0.988525 -0.111380 0.102039
vn -0.937298 -0.327976 0.117917
vn -0.939130 -0.100230 0.328617
vn -0.988605 -0.101252 0.111389
vn -0.906449 -0.170503 0.386367
vn -0.882957 -0.285854 0.372389
vn -0.918855 -0.361553 0.158066
vn -0.046379 -0.998924 0.000000
vn -0.111964 -0.993711 0.001525
vn -0.138738 -0.990329 0.000638
vn -0.330280 -0.943882 0.001148
vn -0.229899 -0.973214 -0.000262
vn -0.327690 -0.944785 0.001265
vn -0.532031 -0.846724 0.000923
vn -0.425085 -0.905153 -0.000329
vn -0.846722 -0.532030 -0.002313
vn -0.707107 -0.707106 0.001111
vn -0.604393 -0.796682 -0.002717
vn -0.943883 -0.330280 0.000848
vn -0.841658 -0.540008 -0.001760
vn -0.993712 -0.111964 0.000000
vn -0.980479 -0.196612 -0.002386
vn 0.000000 -1.000000 0.000000
vn 0.000000 -1.000000 -0.000000
vn -0.000000 0.000000 -1.000000
vn -0.000000 0.000000 -1.000000
vn 0.000000 0.000000 -1.000000
vn 0.000000 0.000000 -1.000000
vn 0.000000 0.000000 -1.000000
vn 0.000000 0.000000 -1.000000
vn -0.000001 -0.972747 -0.231871
vn -0.000002 -0.972746 -0.231871
vn -0.000000 -0.972747 -0.231871
vn 0.000001 -0.972747 -0.231871
vn 0.000001 -0.972747 -0.231871
vn -0.000000 -0.972747 -0.231870
vn 0.000000 -0.972747 -0.231871
vn 0.000001 -0.972747 -0.231871
vn 0.000000 -0.972747 -0.231871
vn -0.000000 -0.972747 -0.231870
vn 0.000000 -0.972747 -0.231871
vn 0.000000 -0.972747 -0.231871
vn 0.046379 -0.998924 0.000000
vn 0.138739 -0.990329 0.000638
vn 0.229899 -0.973214 -0.000262
vn 0.111964 -0.993711 0.001525
vn 0.360367 -0.932811 -0.000216
vn 0.330280 -0.943882 0.001148
vn 0.547176 -0.837017 -0.000628
vn 0.532032 -0.846725 0.000270
vn 0.739916 -0.672698 -0.001360
vn 0.707106 -0.707107 0.000570
vn 0.898249 -0.439483 -0.001787
vn 0.846723 -0.532033 0.000990
vn 0.943884 -0.330277 0.000820
vn 0.988858 -0.148865 0.000000
vn 0.993711 -0.111964 -0.001630
vn 0.987541 -0.111269 0.111269
vn 0.943681 -0.330206 0.020741
vn 0.980726 -0.138161 0.138161
vn 0.843846 -0.530226 0.082368
vn 0.702104 -0.702105 0.118739
vn 0.878824 -0.446826 0.167374
vn 0.943681 -0.020750 0.330206
vn 0.980726 -0.138161 0.138161
vn 0.530407 -0.844139 0.078095
vn 0.674630 -0.720597 0.160044
vn 0.902389 -0.304708 0.304709
vn 0.872151 -0.426515 0.239663
vn 0.328617 -0.939130 0.100227
vn 0.111389 -0.988605 0.101251
vn 0.117917 -0.937298 0.327976
vn 0.102038 -0.988526 0.111380
vn 0.386366 -0.906450 0.170498
vn 0.724963 -0.578152 0.374392
vn 0.659109 -0.695023 0.287260
vn 0.843845 -0.082364 0.530228
vn 0.702108 -0.118731 0.702102
vn 0.878827 -0.167376 0.446821
vn 0.872153 -0.239663 0.426510
vn 0.132648 -0.839241 0.527333
vn 0.158069 -0.918854 0.361554
vn 0.462477 -0.797259 0.387935
vn 0.372387 -0.882957 0.285858
vn 0.683873 -0.515907 0.515905
vn 0.724962 -0.374397 0.578149
vn 0.138727 -0.700273 0.700266
vn 0.421095 -0.735594 0.530642
vn 0.184454 -0.783302 0.593645
vn 0.487335 -0.617457 0.617455
vn 0.530393 -0.078102 0.844146
vn 0.674623 -0.160052 0.720602
vn 0.659103 -0.287256 0.695030
vn 0.132644 -0.527317 0.839251
vn 0.184459 -0.593643 0.783302
vn 0.421092 -0.530642 0.735596
vn 0.462474 -0.387928 0.797264
vn 0.328628 -0.100237 0.939125
vn 0.111389 -0.101262 0.988604
vn 0.102048 -0.111380 0.988525
vn 0.117926 -0.327987 0.937293
vn 0.386366 -0.170494 0.906451
vn 0.158064 -0.361554 0.918855
vn 0.372388 -0.285857 0.882957
vn 0.111965 0.000000 0.993712
vn 0.330292 -0.000127 0.943879
vn 0.116676 0.000133 0.993170
vn 0.532018 -0.000243 0.846733
vn 0.343691 0.000254 0.939083
vn 0.707109 -0.000348 0.707104
vn 0.551976 0.000365 0.833860
vn 0.846722 -0.000442 0.532036
vn 0.730200 0.000464 0.683233
vn 0.943884 -0.000524 0.330277
vn 0.868670 0.000552 0.495391
vn 0.959832 0.000629 0.280575
vn 0.993712 -0.000774 0.111965
vn 0.989298 -0.000352 0.145906
vn 0.994543 -0.000653 0.104327
vn 0.998033 -0.000218 0.062688
vn 0.999781 0.000000 0.020933
vn 0.000000 -0.993712 0.111965
vn 0.000000 -0.993712 0.111965
vn 0.000000 -0.846723 0.532034
vn 0.000000 -0.943883 0.330280
vn 0.000000 -0.943883 0.330280
vn 0.000000 -0.846723 0.532034
vn 0.000000 -0.532018 0.846733
vn 0.000000 -0.707110 0.707103
vn 0.000000 -0.707110 0.707103
vn 0.000000 -0.330292 0.943879
vn 0.000000 -0.532018 0.846733
vn 0.000000 -0.111964 0.993712
vn 0.000000 -0.330292 0.943879
vn 0.000000 -0.111964 0.993712
vn 1.000000 0.000000 0.000000
vn 1.000000 0.000000 0.000000
vn 1.000000 0.000000 0.000000
vn 1.000000 0.000000 0.000000
vn 1.000000 0.000000 0.000000
vn 1.000000 0.000000 0.000000
vn 1.000000 0.000000 0.000000
vn -0.000000 0.000000 1.000000
vn 0.000000 0.000000 1.000000
vn 0.111269 0.987542 -0.111269
vn 0.020739 0.943680 -0.330209
vn 0.118738 0.702104 -0.702105
vn 0.082369 0.843847 -0.530224
vn 0.167368 0.878824 -0.446829
vn 0.330209 0.943680 -0.020739
vn 0.138159 0.980726 -0.138159
vn 0.138159 0.980726 -0.138158
vn 0.078098 0.530409 -0.844137
vn 0.160045 0.674628 -0.720599
vn 0.304709 0.902389 -0.304708
vn 0.239663 0.872150 -0.426515
vn 0.101251 0.111389 -0.988605
vn 0.100227 0.328614 -0.939131
vn 0.327973 0.117915 -0.937299
vn 0.111380 0.102038 -0.988526
vn 0.170501 0.386366 -0.906449
vn 0.374395 0.724961 -0.578152
vn 0.287259 0.659107 -0.695025
vn 0.530224 0.843847 -0.082369
vn 0.702104 0.702105 -0.118738
vn 0.446829 0.878824 -0.167369
vn 0.426516 0.872150 -0.239662
vn 0.527332 0.132642 -0.839242
vn 0.361551 0.158066 -0.918856
vn 0.285854 0.372389 -0.882958
vn 0.387932 0.462480 -0.797258
vn 0.578153 0.724961 -0.374393
vn 0.515908 0.683871 -0.515906
vn 0.700269 0.138723 -0.700271
vn 0.530642 0.421098 -0.735592
vn 0.593648 0.184450 -0.783301
vn 0.617456 0.487339 -0.617454
vn 0.844137 0.530409 -0.078098
vn 0.720598 0.674629 -0.160046
vn 0.695024 0.659108 -0.287260
vn 0.839241 0.132644 -0.527332
vn 0.783301 0.184452 -0.593648
vn 0.735591 0.421099 -0.530642
vn 0.797257 0.462481 -0.387933
vn 0.939131 0.328614 -0.100227
vn 0.988605 0.111389 -0.101251
vn 0.988526 0.102038 -0.111380
vn 0.937299 0.117915 -0.327973
vn 0.906449 0.386367 -0.170501
vn 0.918855 0.158067 -0.361553
vn 0.882957 0.372389 -0.285856
vn 0.113901 0.993492 -0.000670
vn 0.062015 0.998075 -0.000190
vn 0.020697 0.999786 -0.000000
vn 0.282936 0.959139 -0.000041
vn 0.187279 0.982307 0.000027
vn 0.111965 0.993712 -0.000638
vn 0.406614 0.913600 0.000274
vn 0.330280 0.943883 -0.000716
vn 0.613157 0.789959 0.001620
vn 0.532032 0.846724 -0.000470
vn 0.847974 0.530036 0.001580
vn 0.707106 0.707107 -0.000747
vn 0.846722 0.532033 0.001689
vn 0.984551 0.175075 0.002953
vn 0.943884 0.330277 -0.000865
vn 0.993712 0.111964 -0.000000
vn -0.026899 -0.111924 -0.993353
vn 0.111814 -0.051818 -0.992377
vn 0.153008 -0.326389 -0.932770
vn 0.328377 -0.107125 -0.938452
vn 0.226362 -0.154880 -0.961651
vn 0.150235 -0.341934 -0.927637
vn -0.026953 -0.531840 -0.846416
vn 0.155920 -0.331766 -0.930387
vn 0.526495 -0.143918 -0.837909
vn 0.482722 -0.172046 -0.858708
vn 0.411964 -0.402664 -0.817403
vn 0.173043 -0.606861 -0.775742
vn 0.260616 -0.431912 -0.863441
vn 0.697040 -0.168127 -0.697043
vn 0.837909 -0.143918 -0.526495
vn 0.697040 -0.168127 -0.697042
vn 0.097329 -0.842704 -0.529507
vn -0.006873 -0.707090 -0.707090
vn 0.176530 -0.642619 -0.745572
vn 0.639306 -0.427287 -0.639308
vn 0.507749 -0.481089 -0.714664
vn 0.938452 -0.107127 -0.328377
vn 0.932769 -0.326389 -0.153009
vn 0.858709 -0.172048 -0.482720
vn 0.406618 -0.677648 -0.612743
vn 0.142147 -0.845053 -0.515441
vn 0.256408 -0.706636 -0.659485
vn 0.817404 -0.402663 -0.411963
vn 0.714663 -0.481090 -0.507749
vn 0.992377 -0.051818 -0.111814
vn 0.993353 -0.111924 0.026899
vn 0.961650 -0.154881 -0.226364
vn 0.927636 -0.341936 -0.150237
vn 0.482425 -0.731116 -0.482427
vn 0.612744 -0.677648 -0.406618
vn 0.846416 -0.531840 0.026947
vn 0.775744 -0.606859 -0.173043
vn 0.930385 -0.331770 -0.155924
vn 0.863442 -0.431912 -0.260616
vn 0.109317 -0.987757 -0.111294
vn 0.108554 -0.938306 -0.328327
vn 0.328327 -0.938306 -0.108553
vn 0.111294 -0.987757 -0.109317
vn 0.186580 -0.898330 -0.397732
vn 0.397731 -0.898331 -0.186579
vn 0.338732 -0.877793 -0.338733
vn 0.707089 -0.707091 0.006878
vn 0.529507 -0.842704 -0.097326
vn 0.745572 -0.642619 -0.176531
vn 0.515441 -0.845054 -0.142146
vn 0.659486 -0.706636 -0.256407
vn 0.111965 0.000000 -0.993712
vn 0.111965 0.000000 -0.993712
vn 0.330277 0.000000 -0.943884
vn 0.330277 0.000000 -0.943884
vn 0.532034 0.000000 -0.846723
vn 0.532034 0.000000 -0.846723
vn 0.707105 0.000000 -0.707108
vn 0.707105 0.000000 -0.707108
vn 0.846723 0.000000 -0.532034
vn 0.846723 0.000000 -0.532034
vn 0.943884 0.000000 -0.330277
vn 0.943884 0.000000 -0.330277
vn 0.993712 0.000000 -0.111965
vn 0.993712 0.000000 -0.111965
vn 0.020635 -0.999787 0.000000
vn 0.111965 -0.993712 -0.000649
vn 0.061927 -0.998081 -0.000189
vn 0.114282 -0.993448 -0.000612
vn 0.187050 -0.982350 0.000026
vn 0.330278 -0.943883 -0.000678
vn 0.282889 -0.959152 -0.000039
vn 0.532032 -0.846724 -0.000421
vn 0.405727 -0.913994 0.000250
vn 0.846723 -0.532033 0.001159
vn 0.707105 -0.707108 -0.000557
vn 0.607255 -0.794506 0.001311
vn 0.943884 -0.330278 -0.000474
vn 0.843201 -0.537597 0.000966
vn 0.993712 -0.111964 0.000000
vn 0.981295 -0.192503 0.001388
vn -0.111269 0.987542 -0.111269
vn -0.330209 0.943680 -0.020739
vn -0.702105 0.702104 -0.118739
vn -0.530224 0.843847 -0.082369
vn -0.446829 0.878824 -0.167369
vn -0.020739 0.943680 -0.330209
vn -0.138158 0.980726 -0.138159
vn -0.138159 0.980726 -0.138159
vn -0.844138 0.530407 -0.078097
vn -0.720598 0.674628 -0.160046
vn -0.304709 0.902388 -0.304709
vn -0.426515 0.872150 -0.239664
vn -0.937298 0.117915 -0.327976
vn -0.988526 0.102038 -0.111380
vn -0.988605 0.111389 -0.101251
vn -0.939130 0.328617 -0.100227
vn -0.906450 0.386367 -0.170498
vn -0.578151 0.724962 -0.374395
vn -0.695025 0.659107 -0.287259
vn -0.082369 0.843847 -0.530224
vn -0.118738 0.702104 -0.702105
vn -0.167368 0.878824 -0.446829
vn -0.239663 0.872150 -0.426515
vn -0.839243 0.132643 -0.527331
vn -0.797258 0.462480 -0.387932
vn -0.918855 0.158065 -0.361553
vn -0.882957 0.372389 -0.285856
vn -0.515906 0.683872 -0.515906
vn -0.374394 0.724962 -0.578152
vn -0.700270 0.138722 -0.700270
vn -0.735592 0.421099 -0.530641
vn -0.783302 0.184451 -0.593647
vn -0.617455 0.487339 -0.617455
vn -0.078098 0.530409 -0.844137
vn -0.160045 0.674628 -0.720599
vn -0.287259 0.659107 -0.695025
vn -0.527332 0.132644 -0.839242
vn -0.593647 0.184451 -0.783302
vn -0.530641 0.421099 -0.735592
vn -0.387932 0.462480 -0.797258
vn -0.100226 0.328614 -0.939131
vn -0.101250 0.111389 -0.988606
vn -0.111380 0.102038 -0.988526
vn -0.327973 0.117915 -0.937299
vn -0.170501 0.386367 -0.906449
vn -0.361552 0.158066 -0.918855
vn -0.285855 0.372389 -0.882957
vn -0.993353 -0.111924 0.026899
vn -0.992377 -0.051818 -0.111814
vn -0.932769 -0.326391 -0.153007
vn -0.938452 -0.107124 -0.328379
vn -0.927637 -0.341934 -0.150235
vn -0.961651 -0.154880 -0.226362
vn -0.846417 -0.531838 0.026958
vn -0.930389 -0.331763 -0.155916
vn -0.837910 -0.143918 -0.526493
vn -0.858708 -0.172045 -0.482722
vn -0.817402 -0.402666 -0.411963
vn -0.775741 -0.606862 -0.173045
vn -0.863440 -0.431914 -0.260618
vn -0.697041 -0.168127 -0.697041
vn -0.526495 -0.143918 -0.837909
vn -0.697041 -0.168127 -0.697041
vn -0.529507 -0.842704 -0.097330
vn -0.707090 -0.707090 0.006873
vn -0.745572 -0.642619 -0.176532
vn -0.639306 -0.427289 -0.639306
vn -0.714663 -0.481091 -0.507749
vn -0.153008 -0.326389 -0.932770
vn -0.328377 -0.107125 -0.938452
vn -0.482722 -0.172046 -0.858708
vn -0.659485 -0.706636 -0.256408
vn -0.612744 -0.677648 -0.406618
vn -0.515441 -0.845053 -0.142147
vn -0.507749 -0.481090 -0.714663
vn -0.411964 -0.402665 -0.817402
vn 0.026899 -0.111924 -0.993353
vn -0.111814 -0.051818 -0.992377
vn -0.226362 -0.154880 -0.961651
vn -0.150235 -0.341935 -0.927637
vn -0.406618 -0.677648 -0.612744
vn -0.482426 -0.731116 -0.482426
vn 0.026953 -0.531840 -0.846416
vn -0.155920 -0.331766 -0.930387
vn -0.173043 -0.606861 -0.775742
vn -0.260617 -0.431913 -0.863441
vn -0.108554 -0.938306 -0.328327
vn -0.109317 -0.987757 -0.111294
vn -0.111293 -0.987757 -0.109317
vn -0.328327 -0.938306 -0.108554
vn -0.186580 -0.898330 -0.397732
vn -0.397731 -0.898330 -0.186581
vn -0.338733 -0.877793 -0.338733
vn 0.006873 -0.707090 -0.707090
vn -0.097329 -0.842704 -0.529507
vn -0.142147 -0.845053 -0.515441
vn -0.176531 -0.642619 -0.745572
vn -0.256408 -0.706636 -0.659485
vn -0.025311 -0.999680 0.000000
vn -0.075970 -0.997110 -0.000285
vn -0.126509 -0.991965 -0.000491
vn -0.176358 -0.984326 -0.000087
vn -0.234054 -0.972224 0.000055
vn -0.315676 -0.948867 -0.000369
vn -0.111964 -0.993712 -0.000690
vn -0.432023 -0.901863 0.000306
vn -0.330279 -0.943883 -0.000612
vn -0.593752 -0.804648 0.000588
vn -0.532032 -0.846724 -0.000583
vn -0.794111 -0.607772 0.001347
vn -0.707107 -0.707107 -0.000564
vn -0.846725 -0.532031 -0.000253
vn -0.936651 -0.350263 -0.000151
vn -0.943883 -0.330280 0.000328
vn -0.992871 -0.119195 0.000000
vn -0.993712 -0.111964 0.000143
vn -0.111964 0.000000 -0.993712
vn -0.111964 -0.000000 -0.993712
vn -0.330277 -0.000000 -0.943884
vn -0.330277 0.000000 -0.943884
vn -0.532034 -0.000000 -0.846723
vn -0.532034 0.000000 -0.846723
vn -0.707107 -0.000000 -0.707107
vn -0.707107 0.000000 -0.707107
vn -0.846725 -0.000000 -0.532032
vn -0.846725 0.000000 -0.532032
vn -0.943883 -0.000000 -0.330280
vn -0.943883 0.000000 -0.330280
vn -0.993712 -0.000000 -0.111965
vn -0.993712 0.000000 -0.111965
vn 0.000000 -0.111964 -0.993712
vn 0.000000 -0.111964 -0.993712
vn 0.000000 -0.330278 -0.943884
vn 0.000000 -0.330278 -0.943884
vn 0.000000 -0.532033 -0.846724
vn 0.000000 -0.532033 -0.846724
vn 0.000000 -0.707107 -0.707107
vn 0.000000 -0.707107 -0.707107
vn 0.000000 -0.846724 -0.532033
vn 0.000000 -0.846724 -0.532033
vn 0.000000 -0.943883 -0.330279
vn 0.000000 -0.943883 -0.330279
vn 0.000000 -0.993712 -0.111965
vn 0.000000 -0.993712 -0.111965
vn -0.025238 0.999681 0.000000
vn -0.111964 0.993712 -0.000693
vn -0.075549 0.997142 -0.000283
vn -0.125587 0.992082 -0.000505
vn -0.175675 0.984448 -0.000092
vn -0.233430 0.972373 0.000057
vn -0.330280 0.943883 -0.000657
vn -0.313799 0.949489 -0.000366
vn -0.532031 0.846724 -0.000652
vn -0.431772 0.901983 0.000334
vn -0.707107 0.707106 -0.000788
vn -0.618407 0.785857 0.001243
vn -0.846724 0.532032 -0.000461
vn -0.814270 0.580486 0.001190
vn -0.943883 0.330280 -0.000291
vn -0.936228 0.351392 0.000510
vn -0.993712 0.111964 0.000000
vn -0.992923 0.118757 0.000317
vn 0.000000 0.993712 -0.111965
vn 0.000000 0.993712 -0.111965
vn 0.000000 0.943883 -0.330280
vn 0.000000 0.943883 -0.330280
vn 0.000000 0.846725 -0.532032
vn 0.000000 0.846725 -0.532032
vn 0.000000 0.707106 -0.707107
vn 0.000000 0.707106 -0.707107
vn 0.000000 0.532034 -0.846723
vn 0.000000 0.532034 -0.846723
vn 0.000000 0.330277 -0.943884
vn 0.000000 0.330277 -0.943884
vn 0.000000 0.111964 -0.993712
vn 0.000000 0.111964 -0.993712
vn -0.000001 -0.972028 0.234865
vn -0.000000 -0.972028 0.234865
vn 0.000001 -0.972028 0.234864
vn -0.000002 -0.972027 0.234868
vn -0.000002 -0.972027 0.234868
vn -0.000005 -0.972025 0.234876
vn -0.000010 -0.972019 0.234903
vn 0.000000 -0.972028 0.234865
vn 0.000000 -0.972028 0.234865
vn -0.000000 -0.972028 0.234865
vn 0.000000 -0.972028 0.234865
vn 0.000000 -0.972028 0.234865
vn 0.000001 -0.972028 0.234865
vn 0.000000 -0.972028 0.234865
vn 0.000000 -0.972028 0.234865
vn -0.000000 -0.972028 0.234865
vn 0.000003 -0.972027 0.234868
vn 0.000007 -0.972023 0.234885
vn 0.000007 -0.972024 0.234883
vn 0.000001 -0.972028 0.234865
vn 0.000003 -0.972027 0.234870
vn -0.000002 -0.972029 0.234860
vn 0.000000 1.000000 0.000000
vn 0.000000 1.000000 -0.000000
vn 0.000000 0.000000 -1.000000
vn 0.000000 0.000000 -1.000000
vn 0.000010 0.972387 0.233374
vn -0.000013 0.972388 0.233372
vn 0.000000 0.972387 0.233373
vn -0.000004 0.972387 0.233373
vn 0.000018 0.972387 0.233374
vn -0.000000 0.972387 0.233373
vn 0.000000 0.972387 0.233373
vn -0.000001 0.972387 0.233373
vn 0.000002 0.972387 0.233373
vn -0.000000 0.972387 0.233373
vn 0.000000 0.972388 0.233372
vn -0.000000 0.972384 0.233387
vn 0.001010 0.972383 0.233389
vn 0.005549 0.972292 0.233704
vn 0.000000 0.972387 0.233373
vn -0.000008 0.972387 0.233373
vn -0.000015 0.972387 0.233374
vn 0.000004 0.972387 0.233373
vn 0.000003 0.972387 0.233373
vn -0.000004 0.972387 0.233373
vn 0.000955 0.972366 0.233459
vn 0.002026 0.972449 0.233106
vn 0.000401 0.972387 0.233373
vn -0.000008 0.972387 0.233373
vn 0.000000 0.972387 0.233373
vn 0.000002 0.972387 0.233373
vn 0.000002 0.972387 0.233373
vn -0.000018 0.972387 0.233373
vn -0.000001 0.972387 0.233373
vn 0.000000 0.972387 -0.233373
vn 0.000000 0.972387 -0.233373
vn -0.000001 0.972387 -0.233373
vn 0.000001 0.972387 -0.233373
vn 0.000002 0.972387 -0.233373
vn -0.000002 0.972387 -0.233373
vn -0.000003 0.972387 -0.233373
vn 0.000008 0.972387 -0.233374
vn -0.000001 0.972387 -0.233373
vn -0.000006 0.972387 -0.233373
vn 0.000002 0.972387 -0.233373
vn 0.000000 0.972387 -0.233373
vn 0.000005 0.972387 -0.233373
vn -0.000006 0.972387 -0.233373
vn 0.000000 0.972387 -0.233373
vn -0.000008 0.972387 -0.233373
vn -0.000001 0.972387 -0.233373
vn 0.000000 0.972387 -0.233373
vn 0.000000 0.972387 -0.233373
vn 0.000001 0.972387 -0.233373
vn 0.000002 0.972387 -0.233373
vn 0.000000 0.972387 -0.233373
vn 0.000000 -1.000000 0.000000
vn 0.000000 -1.000000 -0.000000
vn -1.000000 0.000000 0.000000
vn -1.000000 0.000000 0.000000
vn -1.000000 0.000000 -0.000000
vn -1.000000 0.000000 -0.000000
vn -1.000000 0.000000 0.000000
vn -1.000000 0.000000 0.000000
vn -1.000000 0.000000 -0.000000
f 1//1 2//1 3//1
f 1//2 4//2 2//2
f 1//3 5//3 4//3
f 6//4 7//4 8//4
f 6//5 3//5 7//5
f 6//6 1//6 3//6
f 9//7 8//7 10//7
f 9//8 6//8 8//8
f 11//9 10//9 12//9
f 11//10 9//10 10//10
f 13//11 11//11 12//11
f 14//12 13//12 12//12
f 15//13 13//13 14//13
f 16//14 15//14 14//14
f 17//15 16//15 14//15
f 16//16 18//16 19//16
f 16//17 17//17 18//17
f 20//18 21//18 22//18
f 20//19 22//19 23//19
f 20//20 23//20 24//20
f 25//21 26//21 21//21
f 25//22 21//22 20//22
f 27//23 24//23 28//23
f 27//24 20//24 24//24
f 29//25 30//25 31//25
f 29//26 31//26 26//26
f 29//27 26//27 25//27
f 32//28 25//28 20//28
f 32//29 20//29 27//29
f 33//30 25//30 32//30
f 33//31 29//31 25//31
f 34//32 28//32 35//32
f 34//33 35//33 36//33
f 34//34 32//34 27//34
f 34//35 27//35 28//35
f 37//36 19//36 38//36
f 37//37 38//37 30//37
f 37//38 15//38 16//38
f 37//39 30//39 29//39
f 37//40 29//40 33//40
f 37//41 16//41 19//41
f 39//42 32//42 34//42
f 39//43 33//43 32//43
f 40//44 13//44 15//44
f 40//45 11//45 13//45
f 40//46 37//46 33//46
f 40//47 15//47 37//47
f 40//48 33//48 39//48
f 41//49 36//49 42//49
f 41//50 42//50 43//50
f 41//51 34//51 36//51
f 41//52 39//52 34//52
f 44//53 9//53 11//53
f 44//54 11//54 40//54
f 44//55 40//55 39//55
f 44//56 39//56 41//56
f 45//57 43//57 1//57
f 45//58 6//58 9//58
f 45//59 1//59 6//59
f 45//60 41//60 43//60
f 45//61 9//61 44//61
f 45//62 44//62 41//62
f 24//63 23//63 46//63
f 24//64 46//64 47//64
f 28//65 47//65 48//65
f 28//66 24//66 47//66
f 35//67 48//67 49//67
f 35//68 28//68 48//68
f 36//69 49//69 50//69
f 36//70 35//70 49//70
f 42//71 50//71 51//71
f 42//72 36//72 50//72
f 43//73 51//73 52//73
f 43//74 42//74 51//74
f 1//75 52//75 53//75
f 1//76 43//76 52//76
f 54//77 23//77 22//77
f 54//78 55//78 23//78
f 56//79 22//79 21//79
f 56//80 54//80 22//80
f 57//81 21//81 26//81
f 57//82 56//82 21//82
f 58//83 26//83 31//83
f 58//84 57//84 26//84
f 59//85 31//85 30//85
f 59//86 58//86 31//86
f 60//87 30//87 38//87
f 60//88 38//88 61//88
f 60//89 59//89 30//89
f 62//90 63//90 64//90
f 62//91 65//91 63//91
f 62//92 61//92 65//92
f 62//93 60//93 61//93
f 66//94 67//94 53//94
f 68//95 66//95 53//95
f 69//96 53//96 70//96
f 69//97 68//97 53//97
f 71//98 69//98 70//98
f 72//99 71//99 70//99
f 73//100 70//100 74//100
f 73//101 72//101 70//101
f 75//102 74//102 76//102
f 75//103 73//103 74//103
f 77//104 76//104 78//104
f 77//105 75//105 76//105
f 79//106 78//106 80//106
f 79//107 77//107 78//107
f 81//108 80//108 82//108
f 81//109 79//109 80//109
f 83//110 81//110 82//110
f 84//111 82//111 85//111
f 83//112 82//112 84//112
f 86//113 48//113 47//113
f 87//114 50//114 49//114
f 87//115 49//115 48//115
f 87//116 48//116 86//116
f 88//117 47//117 46//117
f 88//118 46//118 89//118
f 88//119 89//119 90//119
f 88//120 86//120 47//120
f 91//121 52//121 51//121
f 91//122 51//122 50//122
f 91//123 50//123 87//123
f 92//124 86//124 88//124
f 92//125 87//125 86//125
f 93//126 70//126 53//126
f 93//127 74//127 70//127
f 93//128 53//128 52//128
f 93//129 52//129 91//129
f 94//130 91//130 87//130
f 94//131 87//131 92//131
f 95//132 90//132 96//132
f 95//133 92//133 88//133
f 95//134 88//134 90//134
f 97//135 76//135 74//135
f 97//136 91//136 94//136
f 97//137 74//137 93//137
f 97//138 93//138 91//138
f 98//139 94//139 92//139
f 98//140 92//140 95//140
f 99//141 78//141 76//141
f 99//142 80//142 78//142
f 99//143 76//143 97//143
f 99//144 97//144 94//144
f 99//145 94//145 98//145
f 100//146 96//146 101//146
f 100//147 101//147 102//147
f 100//148 98//148 95//148
f 100//149 95//149 96//149
f 103//150 104//150 85//150
f 103//151 82//151 80//151
f 103//152 102//152 104//152
f 103//153 80//153 99//153
f 103//154 85//154 82//154
f 103//155 99//155 98//155
f 103//156 100//156 102//156
f 103//157 98//157 100//157
f 5//158 1//158 67//158
f 67//159 1//159 53//159
f 54//160 105//160 55//160
f 106//161 107//161 105//161
f 108//162 109//162 110//162
f 108//163 110//163 107//163
f 108//164 107//164 106//164
f 111//165 54//165 56//165
f 111//166 105//166 54//166
f 111//167 106//167 105//167
f 112//168 113//168 109//168
f 112//169 109//169 108//169
f 114//170 106//170 111//170
f 114//171 108//171 106//171
f 115//172 116//172 117//172
f 115//173 117//173 118//173
f 115//174 118//174 119//174
f 115//175 119//175 113//175
f 115//176 113//176 112//176
f 120//177 108//177 114//177
f 120//178 112//178 108//178
f 121//179 56//179 57//179
f 121//180 57//180 58//180
f 121//181 111//181 56//181
f 121//182 114//182 111//182
f 122//183 123//183 116//183
f 122//184 112//184 120//184
f 122//185 116//185 115//185
f 122//186 115//186 112//186
f 124//187 114//187 121//187
f 124//188 120//188 114//188
f 125//189 126//189 123//189
f 125//190 122//190 120//190
f 125//191 123//191 122//191
f 125//192 120//192 124//192
f 127//193 58//193 59//193
f 127//194 121//194 58//194
f 127//195 124//195 121//195
f 128//196 129//196 126//196
f 128//197 125//197 124//197
f 128//198 126//198 125//198
f 128//199 124//199 127//199
f 130//200 62//200 131//200
f 130//201 131//201 129//201
f 130//202 59//202 60//202
f 130//203 60//203 62//203
f 130//204 127//204 59//204
f 130//205 128//205 127//205
f 130//206 129//206 128//206
f 132//207 133//207 118//207
f 132//208 118//208 117//208
f 134//209 132//209 117//209
f 135//210 117//210 116//210
f 135//211 134//211 117//211
f 136//212 135//212 116//212
f 137//213 116//213 123//213
f 137//214 136//214 116//214
f 138//215 126//215 129//215
f 138//216 123//216 126//216
f 138//217 137//217 123//217
f 139//218 129//218 131//218
f 139//219 138//219 129//219
f 140//220 131//220 62//220
f 140//221 139//221 131//221
f 118//222 133//222 141//222
f 141//223 133//223 142//223
f 143//224 144//224 145//224
f 144//225 142//225 145//225
f 134//226 135//226 132//226
f 132//227 135//227 133//227
f 135//228 145//228 133//228
f 133//229 145//229 142//229
f 145//230 146//230 147//230
f 145//231 148//231 146//231
f 145//232 135//232 148//232
f 136//233 137//233 135//233
f 137//234 138//234 135//234
f 148//235 139//235 149//235
f 135//236 139//236 148//236
f 138//237 139//237 135//237
f 149//238 140//238 150//238
f 139//239 140//239 149//239
f 150//240 151//240 152//240
f 140//241 151//241 150//241
f 141//242 142//242 144//242
f 153//243 144//243 143//243
f 153//244 143//244 145//244
f 153//245 141//245 144//245
f 154//246 145//246 147//246
f 154//247 153//247 145//247
f 155//248 147//248 146//248
f 155//249 154//249 147//249
f 156//250 146//250 148//250
f 156//251 155//251 146//251
f 157//252 148//252 149//252
f 157//253 156//253 148//253
f 158//254 157//254 149//254
f 159//255 149//255 150//255
f 159//256 158//256 149//256
f 160//257 158//257 159//257
f 161//258 157//258 158//258
f 161//259 158//259 160//259
f 162//260 156//260 157//260
f 162//261 155//261 156//261
f 162//262 157//262 161//262
f 163//263 160//263 164//263
f 163//264 161//264 160//264
f 165//265 154//265 155//265
f 165//266 155//266 162//266
f 166//267 161//267 163//267
f 166//268 162//268 161//268
f 167//269 153//269 154//269
f 167//270 141//270 153//270
f 167//271 168//271 169//271
f 167//272 169//272 141//272
f 167//273 154//273 165//273
f 170//274 162//274 166//274
f 170//275 165//275 162//275
f 171//276 164//276 172//276
f 171//277 172//277 173//277
f 171//278 163//278 164//278
f 171//279 166//279 163//279
f 174//280 175//280 168//280
f 174//281 168//281 167//281
f 174//282 165//282 170//282
f 174//283 167//283 165//283
f 176//284 170//284 166//284
f 176//285 166//285 171//285
f 177//286 178//286 175//286
f 177//287 174//287 170//287
f 177//288 175//288 174//288
f 177//289 170//289 176//289
f 179//290 173//290 180//290
f 179//291 171//291 173//291
f 179//292 176//292 171//292
f 181//293 182//293 178//293
f 181//294 178//294 177//294
f 181//295 177//295 176//295
f 181//296 176//296 179//296
f 183//297 180//297 184//297
f 183//298 184//298 185//298
f 183//299 185//299 186//299
f 183//300 186//300 182//300
f 183//301 179//301 180//301
f 183//302 182//302 181//302
f 183//303 181//303 179//303
f 46//304 185//304 184//304
f 89//305 184//305 180//305
f 89//306 46//306 184//306
f 90//307 180//307 173//307
f 90//308 89//308 180//308
f 96//309 173//309 172//309
f 96//310 90//310 173//310
f 101//311 172//311 164//311
f 101//312 96//312 172//312
f 102//313 164//313 160//313
f 102//314 101//314 164//314
f 104//315 102//315 160//315
f 187//316 160//316 159//316
f 187//317 104//317 160//317
f 188//318 187//318 159//318
f 189//319 188//319 159//319
f 190//320 189//320 159//320
f 119//321 118//321 141//321
f 119//322 141//322 169//322
f 113//323 168//323 175//323
f 113//324 169//324 168//324
f 113//325 119//325 169//325
f 109//326 113//326 175//326
f 110//327 178//327 182//327
f 110//328 175//328 178//328
f 110//329 109//329 175//329
f 107//330 182//330 186//330
f 107//331 110//331 182//331
f 105//332 186//332 185//332
f 105//333 107//333 186//333
f 55//334 105//334 185//334
f 191//335 192//335 193//335
f 194//336 195//336 191//336
f 191//337 195//337 192//337
f 194//338 152//338 195//338
f 190//339 150//339 194//339
f 194//340 150//340 152//340
f 190//341 159//341 150//341
f 23//342 55//342 46//342
f 46//343 55//343 185//343
f 196//344 197//344 198//344
f 199//345 200//345 197//345
f 201//346 202//346 203//346
f 201//347 203//347 200//347
f 201//348 200//348 199//348
f 204//349 196//349 205//349
f 204//350 197//350 196//350
f 204//351 199//351 197//351
f 206//352 207//352 202//352
f 206//353 202//353 201//353
f 208//354 199//354 204//354
f 208//355 201//355 199//355
f 209//356 210//356 211//356
f 209//357 211//357 207//357
f 209//358 212//358 213//358
f 209//359 213//359 210//359
f 209//360 207//360 206//360
f 214//361 201//361 208//361
f 214//362 206//362 201//362
f 215//363 205//363 216//363
f 215//364 216//364 217//364
f 215//365 204//365 205//365
f 215//366 208//366 204//366
f 218//367 219//367 212//367
f 218//368 212//368 209//368
f 218//369 209//369 206//369
f 218//370 206//370 214//370
f 220//371 208//371 215//371
f 220//372 214//372 208//372
f 221//373 222//373 219//373
f 221//374 218//374 214//374
f 221//375 219//375 218//375
f 221//376 214//376 220//376
f 223//377 217//377 224//377
f 223//378 215//378 217//378
f 223//379 220//379 215//379
f 225//380 226//380 222//380
f 225//381 222//381 221//381
f 225//382 221//382 220//382
f 225//383 220//383 223//383
f 227//384 224//384 228//384
f 227//385 228//385 193//385
f 227//386 193//386 229//386
f 227//387 229//387 226//387
f 227//388 223//388 224//388
f 227//389 226//389 225//389
f 227//390 225//390 223//390
f 198//391 230//391 231//391
f 198//392 232//392 230//392
f 198//393 233//393 232//393
f 196//394 234//394 235//394
f 196//395 231//395 234//395
f 196//396 198//396 231//396
f 205//397 235//397 236//397
f 205//398 196//398 235//398
f 216//399 236//399 237//399
f 216//400 205//400 236//400
f 217//401 237//401 238//401
f 217//402 216//402 237//402
f 224//403 217//403 238//403
f 228//404 238//404 191//404
f 228//405 224//405 238//405
f 193//406 228//406 191//406
f 239//407 240//407 241//407
f 239//408 241//408 242//408
f 243//409 244//409 240//409
f 243//410 242//410 245//410
f 243//411 239//411 242//411
f 243//412 240//412 239//412
f 246//413 247//413 244//413
f 246//414 244//414 243//414
f 248//415 245//415 249//415
f 248//416 243//416 245//416
f 250//417 243//417 248//417
f 250//418 247//418 246//418
f 250//419 246//419 243//419
f 251//420 249//420 252//420
f 251//421 252//421 253//421
f 251//422 248//422 249//422
f 254//423 255//423 256//423
f 254//424 256//424 247//424
f 254//425 247//425 250//425
f 257//426 248//426 251//426
f 257//427 250//427 248//427
f 258//428 253//428 259//428
f 258//429 260//429 261//429
f 258//430 251//430 253//430
f 262//431 250//431 257//431
f 262//432 255//432 254//432
f 262//433 254//433 250//433
f 263//434 251//434 258//434
f 263//435 257//435 251//435
f 264//436 259//436 192//436
f 264//437 192//437 260//437
f 264//438 258//438 259//438
f 264//439 260//439 258//439
f 265//440 262//440 257//440
f 265//441 257//441 263//441
f 266//442 261//442 267//442
f 266//443 267//443 263//443
f 266//444 258//444 261//444
f 266//445 263//445 258//445
f 268//446 269//446 270//446
f 268//447 270//447 255//447
f 268//448 271//448 272//448
f 268//449 272//449 269//449
f 268//450 255//450 262//450
f 268//451 265//451 271//451
f 268//452 262//452 265//452
f 273//453 267//453 274//453
f 273//454 274//454 271//454
f 273//455 263//455 267//455
f 273//456 271//456 265//456
f 273//457 265//457 263//457
f 242//458 241//458 210//458
f 242//459 210//459 213//459
f 245//460 213//460 212//460
f 245//461 242//461 213//461
f 249//462 212//462 219//462
f 249//463 245//463 212//463
f 252//464 219//464 222//464
f 252//465 249//465 219//465
f 253//466 222//466 226//466
f 253//467 252//467 222//467
f 259//468 226//468 229//468
f 259//469 253//469 226//469
f 192//470 229//470 193//470
f 192//471 259//471 229//471
f 275//472 276//472 269//472
f 277//473 269//473 272//473
f 277//474 275//474 269//474
f 278//475 277//475 272//475
f 279//476 278//476 272//476
f 280//477 272//477 271//477
f 280//478 279//478 272//478
f 281//479 271//479 274//479
f 281//480 280//480 271//480
f 282//481 267//481 261//481
f 282//482 274//482 267//482
f 282//483 281//483 274//483
f 283//484 261//484 260//484
f 283//485 282//485 261//485
f 195//486 260//486 192//486
f 195//487 283//487 260//487
f 284//488 285//488 286//488
f 287//489 288//489 285//489
f 289//490 290//490 291//490
f 289//491 291//491 288//491
f 289//492 288//492 287//492
f 292//493 284//493 293//493
f 292//494 285//494 284//494
f 292//495 287//495 285//495
f 294//496 295//496 290//496
f 294//497 290//497 289//497
f 296//498 287//498 292//498
f 296//499 289//499 287//499
f 297//500 298//500 299//500
f 297//501 299//501 300//501
f 297//502 300//502 301//502
f 297//503 301//503 295//503
f 297//504 295//504 294//504
f 302//505 289//505 296//505
f 302//506 294//506 289//506
f 303//507 293//507 304//507
f 303//508 304//508 305//508
f 303//509 292//509 293//509
f 303//510 296//510 292//510
f 306//511 307//511 298//511
f 306//512 294//512 302//512
f 306//513 298//513 297//513
f 306//514 297//514 294//514
f 308//515 302//515 296//515
f 308//516 296//516 303//516
f 309//517 310//517 307//517
f 309//518 306//518 302//518
f 309//519 307//519 306//519
f 309//520 302//520 308//520
f 311//521 305//521 312//521
f 311//522 303//522 305//522
f 311//523 308//523 303//523
f 313//524 314//524 310//524
f 313//525 310//525 309//525
f 313//526 309//526 308//526
f 313//527 308//527 311//527
f 315//528 312//528 316//528
f 315//529 316//529 317//529
f 315//530 317//530 318//530
f 315//531 318//531 314//531
f 315//532 311//532 312//532
f 315//533 314//533 313//533
f 315//534 313//534 311//534
f 319//535 320//535 321//535
f 319//536 321//536 322//536
f 323//537 324//537 320//537
f 323//538 322//538 325//538
f 323//539 320//539 319//539
f 323//540 319//540 322//540
f 326//541 327//541 324//541
f 326//542 324//542 323//542
f 328//543 325//543 329//543
f 328//544 323//544 325//544
f 330//545 323//545 328//545
f 330//546 327//546 326//546
f 330//547 326//547 323//547
f 331//548 329//548 332//548
f 331//549 332//549 333//549
f 331//550 328//550 329//550
f 334//551 335//551 336//551
f 334//552 336//552 327//552
f 334//553 327//553 330//553
f 337//554 328//554 331//554
f 337//555 330//555 328//555
f 338//556 339//556 340//556
f 338//557 333//557 341//557
f 338//558 331//558 333//558
f 342//559 334//559 330//559
f 342//560 330//560 337//560
f 342//561 335//561 334//561
f 343//562 337//562 331//562
f 343//563 331//563 338//563
f 344//564 345//564 339//564
f 344//565 341//565 345//565
f 344//566 338//566 341//566
f 344//567 339//567 338//567
f 346//568 337//568 343//568
f 346//569 342//569 337//569
f 347//570 340//570 348//570
f 347//571 338//571 340//571
f 347//572 348//572 343//572
f 347//573 343//573 338//573
f 349//574 350//574 351//574
f 349//575 351//575 352//575
f 349//576 352//576 353//576
f 349//577 353//577 335//577
f 349//578 346//578 350//578
f 349//579 335//579 342//579
f 349//580 342//580 346//580
f 354//581 348//581 355//581
f 354//582 355//582 350//582
f 354//583 350//583 346//583
f 354//584 343//584 348//584
f 354//585 346//585 343//585
f 352//586 356//586 357//586
f 352//587 357//587 358//587
f 353//588 358//588 359//588
f 353//589 359//589 360//589
f 353//590 360//590 361//590
f 353//591 361//591 362//591
f 353//592 352//592 358//592
f 335//593 362//593 363//593
f 335//594 353//594 362//594
f 336//595 363//595 364//595
f 336//596 335//596 363//596
f 327//597 364//597 365//597
f 327//598 336//598 364//598
f 324//599 327//599 365//599
f 320//600 365//600 366//600
f 320//601 324//601 365//601
f 321//602 366//602 367//602
f 321//603 320//603 366//603
f 318//604 317//604 345//604
f 318//605 345//605 341//605
f 314//606 341//606 333//606
f 314//607 318//607 341//607
f 310//608 333//608 332//608
f 310//609 314//609 333//609
f 307//610 332//610 329//610
f 307//611 310//611 332//611
f 298//612 329//612 325//612
f 298//613 307//613 329//613
f 299//614 325//614 322//614
f 299//615 298//615 325//615
f 300//616 322//616 321//616
f 300//617 299//617 322//617
f 339//618 345//618 241//618
f 339//619 241//619 240//619
f 340//620 240//620 244//620
f 340//621 339//621 240//621
f 348//622 244//622 247//622
f 348//623 340//623 244//623
f 355//624 247//624 256//624
f 355//625 348//625 247//625
f 350//626 256//626 255//626
f 350//627 355//627 256//627
f 351//628 255//628 270//628
f 351//629 350//629 255//629
f 352//630 270//630 269//630
f 352//631 351//631 270//631
f 368//632 369//632 286//632
f 370//633 286//633 285//633
f 370//634 368//634 286//634
f 371//635 370//635 285//635
f 372//636 371//636 285//636
f 373//637 372//637 285//637
f 374//638 285//638 288//638
f 374//639 373//639 285//639
f 375//640 288//640 291//640
f 375//641 374//641 288//641
f 376//642 291//642 290//642
f 376//643 375//643 291//643
f 377//644 290//644 295//644
f 377//645 376//645 290//645
f 378//646 295//646 301//646
f 378//647 377//647 295//647
f 379//648 301//648 300//648
f 379//649 378//649 301//649
f 284//650 286//650 198//650
f 284//651 198//651 197//651
f 293//652 197//652 200//652
f 293//653 284//653 197//653
f 304//654 200//654 203//654
f 304//655 293//655 200//655
f 305//656 203//656 202//656
f 305//657 304//657 203//657
f 312//658 202//658 207//658
f 312//659 305//659 202//659
f 316//660 207//660 211//660
f 316//661 312//661 207//661
f 317//662 211//662 210//662
f 317//663 316//663 211//663
f 283//664 276//664 282//664
f 282//665 276//665 281//665
f 281//666 276//666 280//666
f 280//667 276//667 279//667
f 279//668 276//668 278//668
f 278//669 276//669 277//669
f 277//670 276//670 275//670
f 151//671 367//671 152//671
f 152//672 367//672 195//672
f 195//673 366//673 283//673
f 367//674 366//674 195//674
f 363//675 356//675 364//675
f 364//676 356//676 365//676
f 365//677 356//677 366//677
f 283//678 356//678 276//678
f 366//679 356//679 283//679
f 363//680 362//680 356//680
f 356//681 358//681 357//681
f 356//682 359//682 358//682
f 362//683 361//683 356//683
f 356//684 360//684 359//684
f 361//685 360//685 356//685
f 286//686 369//686 198//686
f 198//687 369//687 233//687
f 345//688 317//688 241//688
f 241//689 317//689 210//689
f 71//690 72//690 194//690
f 194//691 69//691 71//691
f 194//692 68//692 69//692
f 72//693 73//693 194//693
f 194//694 66//694 68//694
f 380//695 67//695 194//695
f 194//696 67//696 66//696
f 73//697 75//697 194//697
f 75//698 77//698 194//698
f 77//699 79//699 194//699
f 81//700 83//700 190//700
f 83//701 189//701 190//701
f 83//702 84//702 189//702
f 84//703 188//703 189//703
f 380//704 5//704 67//704
f 380//705 4//705 5//705
f 380//706 2//706 4//706
f 380//707 3//707 2//707
f 380//708 7//708 3//708
f 380//709 8//709 7//709
f 85//710 188//710 84//710
f 19//711 61//711 38//711
f 380//712 64//712 63//712
f 380//713 63//713 14//713
f 380//714 14//714 12//714
f 380//715 12//715 10//715
f 380//716 10//716 8//716
f 190//717 194//717 81//717
f 81//718 194//718 79//718
f 369//719 194//719 233//719
f 237//720 194//720 238//720
f 236//721 194//721 237//721
f 235//722 194//722 236//722
f 234//723 194//723 235//723
f 231//724 194//724 234//724
f 230//725 194//725 231//725
f 232//726 194//726 230//726
f 233//727 194//727 232//727
f 368//728 380//728 369//728
f 370//729 380//729 368//729
f 371//730 380//730 370//730
f 372//731 380//731 371//731
f 373//732 380//732 372//732
f 369//733 380//733 194//733
f 379//734 380//734 378//734
f 378//735 380//735 377//735
f 377//736 380//736 376//736
f 376//737 380//737 375//737
f 375//738 380//738 374//738
f 374//739 380//739 373//739
f 194//740 191//740 238//740
f 356//741 352//741 276//741
f 276//742 352//742 269//742
f 62//743 64//743 140//743
f 140//744 380//744 151//744
f 151//745 380//745 367//745
f 64//746 380//746 140//746
f 367//747 379//747 321//747
f 380//748 379//748 367//748
f 379//749 300//749 321//749
