# WaveFront *.obj file
# Vertices: 116
# Triangles : 232

v 1.7890053526613508e-15 9.9999999999999964e+00 3.4999999999998499e-01
v 7.7882326884711917e-02 9.9999999999999964e+00 3.4122476926362327e-01
v 1.5185930869114722e-01 9.9999999999999964e+00 3.1533910376583163e-01
v 2.1822143065055860e-01 9.9999999999999964e+00 2.7364101886379538e-01
v 2.7364101886381231e-01 9.9999999999999964e+00 2.1822143065054170e-01
v 3.1533910376584856e-01 9.9999999999999964e+00 1.5185930869113029e-01
v 3.4122476926364015e-01 9.9999999999999964e+00 7.7882326884694986e-02
v 3.5000000000000187e-01 9.9999999999999964e+00 -1.5064953302655949e-14
v 3.4122476926364015e-01 9.9999999999999964e+00 -7.7882326884725114e-02
v 3.1533910376584856e-01 9.9999999999999964e+00 -1.5185930869116043e-01
v 2.7364101886381231e-01 9.9999999999999964e+00 -2.1822143065057181e-01
v 2.1822143065055857e-01 9.9999999999999964e+00 -2.7364101886382552e-01
v 1.5185930869114719e-01 9.9999999999999964e+00 -3.1533910376586177e-01
v 7.7882326884711875e-02 9.9999999999999964e+00 -3.4122476926365336e-01
v 1.8318679906315083e-15 9.9999999999999964e+00 -3.5000000000001508e-01
v -7.7882326884708211e-02 9.9999999999999964e+00 -3.4122476926365336e-01
v -1.5185930869114353e-01 9.9999999999999964e+00 -3.1533910376586177e-01
v -2.1822143065055491e-01 9.9999999999999964e+00 -2.7364101886382552e-01
v -2.7364101886380865e-01 9.9999999999999964e+00 -2.1822143065057181e-01
v -3.1533910376584490e-01 9.9999999999999964e+00 -1.5185930869116043e-01
v -3.4122476926363648e-01 9.9999999999999964e+00 -7.7882326884725114e-02
v -3.4999999999999820e-01 9.9999999999999964e+00 -1.5064953302655949e-14
v -3.4122476926363648e-01 9.9999999999999964e+00 7.7882326884694986e-02
v -3.1533910376584490e-01 9.9999999999999964e+00 1.5185930869113029e-01
v -2.7364101886380865e-01 9.9999999999999964e+00 2.1822143065054170e-01
v -2.1822143065055494e-01 9.9999999999999964e+00 2.7364101886379538e-01
v -1.5185930869114356e-01 9.9999999999999964e+00 3.1533910376583163e-01
v -7.7882326884708253e-02 9.9999999999999964e+00 3.4122476926362327e-01
v 1.8318679906315083e-15 7.9999999999999964e+00 -3.5000000000001508e-01
v 7.7882326884711958e-02 7.9999999999999964e+00 -3.4122476926365330e-01
v 1.5185930869114728e-01 7.9999999999999964e+00 -3.1533910376586172e-01
v 2.1822143065055866e-01 7.9999999999999964e+00 -2.7364101886382547e-01
v 2.7364101886381231e-01 7.9999999999999964e+00 -2.1822143065057176e-01
v 3.1533910376584862e-01 7.9999999999999964e+00 -1.5185930869116035e-01
v 3.4122476926364015e-01 7.9999999999999964e+00 -7.7882326884725031e-02
v 3.5000000000000187e-01 7.9999999999999964e+00 -1.4979228026715636e-14
v 3.4122476926364015e-01 7.9999999999999964e+00 7.7882326884695069e-02
v 3.1533910376584851e-01 7.9999999999999964e+00 1.5185930869113037e-01
v 2.7364101886381226e-01 7.9999999999999964e+00 2.1822143065054178e-01
v 2.1822143065055855e-01 7.9999999999999964e+00 2.7364101886379544e-01
v 1.5185930869114714e-01 7.9999999999999964e+00 3.1533910376583169e-01
v 7.7882326884711833e-02 7.9999999999999964e+00 3.4122476926362327e-01
v 1.7890053526613508e-15 7.9999999999999964e+00 3.4999999999998499e-01
v -7.7882326884708253e-02 7.9999999999999964e+00 3.4122476926362327e-01
v -1.5185930869114356e-01 7.9999999999999964e+00 3.1533910376583163e-01
v -2.1822143065055494e-01 7.9999999999999964e+00 2.7364101886379538e-01
v -2.7364101886380865e-01 7.9999999999999964e+00 2.1822143065054170e-01
v -3.1533910376584490e-01 7.9999999999999964e+00 1.5185930869113029e-01
v -3.4122476926363648e-01 7.9999999999999964e+00 7.7882326884694986e-02
v -3.4999999999999820e-01 7.9999999999999964e+00 -1.5064953302655949e-14
v -3.4122476926363648e-01 7.9999999999999964e+00 -7.7882326884725114e-02
v -3.1533910376584490e-01 7.9999999999999964e+00 -1.5185930869116043e-01
v -2.7364101886380865e-01 7.9999999999999964e+00 -2.1822143065057181e-01
v -2.1822143065055491e-01 7.9999999999999964e+00 -2.7364101886382552e-01
v -1.5185930869114353e-01 7.9999999999999964e+00 -3.1533910376586177e-01
v -7.7882326884708211e-02 7.9999999999999964e+00 -3.4122476926365336e-01
v -3.9999999999999819e-01 7.9999999999999964e+00 -1.4990450868124269e-14
v -3.9125904029352043e-01 7.9999999999999964e+00 8.3164676327088849e-02
v -3.6541818305703844e-01 7.9999999999999964e+00 1.6269465723030530e-01
v -3.2360679774997714e-01 7.9999999999999964e+00 2.3511410091697427e-01
v -2.6765224254354136e-01 7.9999999999999964e+00 2.9725793019094277e-01
v -1.9999999999999793e-01 7.9999999999999964e+00 3.4641016151376058e-01
v -1.2360679774997713e-01 7.9999999999999964e+00 3.8042260651804644e-01
v -4.1811385307059426e-02 7.9999999999999964e+00 3.9780875814729433e-01
v 4.1811385307063471e-02 7.9999999999999964e+00 3.9780875814729427e-01
v 1.2360679774998080e-01 7.9999999999999964e+00 3.8042260651804638e-01
v 2.0000000000000198e-01 7.9999999999999964e+00 3.4641016151376036e-01
v 2.6765224254354519e-01 7.9999999999999964e+00 2.9725793019094260e-01
v 3.2360679774998086e-01 7.9999999999999964e+00 2.3511410091697421e-01
v 3.6541818305704227e-01 7.9999999999999964e+00 1.6269465723030493e-01
v 3.9125904029352415e-01 7.9999999999999964e+00 8.3164676327088627e-02
v 4.0000000000000185e-01 7.9999999999999964e+00 -1.5039436740090162e-14
v 3.9125904029352410e-01 7.9999999999999964e+00 -8.3164676327118894e-02
v 3.6541818305704221e-01 7.9999999999999964e+00 -1.6269465723033519e-01
v 3.2360679774998086e-01 7.9999999999999964e+00 -2.3511410091700430e-01
v 2.6765224254354503e-01 7.9999999999999964e+00 -2.9725793019097280e-01
v 2.0000000000000179e-01 7.9999999999999964e+00 -3.4641016151379056e-01
v 1.2360679774998080e-01 7.9999999999999964e+00 -3.8042260651807647e-01
v 4.1811385307063201e-02 7.9999999999999964e+00 -3.9780875814732436e-01
v -4.1811385307059606e-02 7.9999999999999964e+00 -3.9780875814732436e-01
v -1.2360679774997713e-01 7.9999999999999964e+00 -3.8042260651807652e-01
v -1.9999999999999826e-01 7.9999999999999964e+00 -3.4641016151379050e-01
v -2.6765224254354147e-01 7.9999999999999964e+00 -2.9725793019097274e-01
v -3.2360679774997714e-01 7.9999999999999964e+00 -2.3511410091700435e-01
v -3.6541818305703849e-01 7.9999999999999964e+00 -1.6269465723033522e-01
v -3.9125904029352049e-01 7.9999999999999964e+00 -8.3164676327118769e-02
v -3.9999999999999819e-01 9.9999999999999964e+00 -1.4990450868124269e-14
v -3.9125904029352043e-01 9.9999999999999964e+00 -8.3164676327118936e-02
v -3.6541818305703844e-01 9.9999999999999964e+00 -1.6269465723033538e-01
v -3.2360679774997714e-01 9.9999999999999964e+00 -2.3511410091700435e-01
v -2.6765224254354136e-01 9.9999999999999964e+00 -2.9725793019097285e-01
v -1.9999999999999793e-01 9.9999999999999964e+00 -3.4641016151379067e-01
v -1.2360679774997713e-01 9.9999999999999964e+00 -3.8042260651807652e-01
v -4.1811385307059426e-02 9.9999999999999964e+00 -3.9780875814732441e-01
v 4.1811385307063471e-02 9.9999999999999964e+00 -3.9780875814732436e-01
v 1.2360679774998080e-01 9.9999999999999964e+00 -3.8042260651807647e-01
v 2.0000000000000198e-01 9.9999999999999964e+00 -3.4641016151379045e-01
v 2.6765224254354519e-01 9.9999999999999964e+00 -2.9725793019097269e-01
v 3.2360679774998086e-01 9.9999999999999964e+00 -2.3511410091700430e-01
v 3.6541818305704227e-01 9.9999999999999964e+00 -1.6269465723033502e-01
v 3.9125904029352415e-01 9.9999999999999964e+00 -8.3164676327118714e-02
v 4.0000000000000185e-01 9.9999999999999964e+00 -1.5039436740090162e-14
v 3.9125904029352410e-01 9.9999999999999964e+00 8.3164676327088807e-02
v 3.6541818305704221e-01 9.9999999999999964e+00 1.6269465723030510e-01
v 3.2360679774998086e-01 9.9999999999999964e+00 2.3511410091697421e-01
v 2.6765224254354503e-01 9.9999999999999964e+00 2.9725793019094271e-01
v 2.0000000000000179e-01 9.9999999999999964e+00 3.4641016151376047e-01
v 1.2360679774998080e-01 9.9999999999999964e+00 3.8042260651804638e-01
v 4.1811385307063201e-02 9.9999999999999964e+00 3.9780875814729427e-01
v -4.1811385307059606e-02 9.9999999999999964e+00 3.9780875814729427e-01
v -1.2360679774997713e-01 9.9999999999999964e+00 3.8042260651804644e-01
v -1.9999999999999826e-01 9.9999999999999964e+00 3.4641016151376042e-01
v -2.6765224254354147e-01 9.9999999999999964e+00 2.9725793019094265e-01
v -3.2360679774997714e-01 9.9999999999999964e+00 2.3511410091697427e-01
v -3.6541818305703849e-01 9.9999999999999964e+00 1.6269465723030513e-01
v -3.9125904029352049e-01 9.9999999999999964e+00 8.3164676327088682e-02

vn -2.2252093395631448e-01 0.0000000000000000e+00 -9.7492791218182351e-01
vn -2.2252093395631406e-01 0.0000000000000000e+00 -9.7492791218182362e-01
vn -1.2246467991473532e-16 0.0000000000000000e+00 -1.0000000000000000e+00
vn 1.2246467991473532e-16 0.0000000000000000e+00 -1.0000000000000000e+00
vn 2.2252093395631448e-01 0.0000000000000000e+00 -9.7492791218182351e-01
vn 4.3388373911755829e-01 0.0000000000000000e+00 -9.0096886790241903e-01
vn 6.2348980185873359e-01 0.0000000000000000e+00 -7.8183148246802969e-01
vn 7.8183148246802980e-01 0.0000000000000000e+00 -6.2348980185873348e-01
vn 9.0096886790241903e-01 0.0000000000000000e+00 -4.3388373911755806e-01
vn 9.7492791218182362e-01 0.0000000000000000e+00 -2.2252093395631434e-01
vn 1.0000000000000000e+00 -0.0000000000000000e+00 6.1232339957367660e-17
vn 9.7492791218182362e-01 -0.0000000000000000e+00 2.2252093395631445e-01
vn 9.0096886790241903e-01 -0.0000000000000000e+00 4.3388373911755823e-01
vn 7.8183148246802969e-01 -0.0000000000000000e+00 6.2348980185873348e-01
vn 6.2348980185873348e-01 -0.0000000000000000e+00 7.8183148246802980e-01
vn 4.3388373911755818e-01 -0.0000000000000000e+00 9.0096886790241903e-01
vn 2.2252093395631434e-01 -0.0000000000000000e+00 9.7492791218182362e-01
vn 0.0000000000000000e+00 -0.0000000000000000e+00 1.0000000000000000e+00
vn -2.2252093395631434e-01 0.0000000000000000e+00 9.7492791218182362e-01
vn -2.2252093395631464e-01 0.0000000000000000e+00 9.7492791218182351e-01
vn -4.3388373911755818e-01 0.0000000000000000e+00 9.0096886790241903e-01
vn -4.3388373911755840e-01 0.0000000000000000e+00 9.0096886790241892e-01
vn -6.2348980185873348e-01 0.0000000000000000e+00 7.8183148246802980e-01
vn -6.2348980185873371e-01 0.0000000000000000e+00 7.8183148246802969e-01
vn -7.8183148246802969e-01 0.0000000000000000e+00 6.2348980185873348e-01
vn -7.8183148246802980e-01 0.0000000000000000e+00 6.2348980185873348e-01
vn -9.0096886790241903e-01 0.0000000000000000e+00 4.3388373911755823e-01
vn -9.0096886790241926e-01 0.0000000000000000e+00 4.3388373911755795e-01
vn -9.7492791218182362e-01 0.0000000000000000e+00 2.2252093395631445e-01
vn -9.7492791218182362e-01 0.0000000000000000e+00 2.2252093395631423e-01
vn -1.0000000000000000e+00 0.0000000000000000e+00 6.1232339957367660e-17
vn -1.0000000000000000e+00 0.0000000000000000e+00 -1.6081226496766364e-16
vn -9.7492791218182362e-01 0.0000000000000000e+00 -2.2252093395631434e-01
vn -9.7492791218182351e-01 0.0000000000000000e+00 -2.2252093395631450e-01
vn -9.0096886790241903e-01 0.0000000000000000e+00 -4.3388373911755806e-01
vn -9.0096886790241892e-01 0.0000000000000000e+00 -4.3388373911755845e-01
vn -7.8183148246802980e-01 0.0000000000000000e+00 -6.2348980185873348e-01
vn -7.8183148246802958e-01 0.0000000000000000e+00 -6.2348980185873382e-01
vn -6.2348980185873359e-01 0.0000000000000000e+00 -7.8183148246802969e-01
vn -6.2348980185873326e-01 0.0000000000000000e+00 -7.8183148246803003e-01
vn -4.3388373911755829e-01 0.0000000000000000e+00 -9.0096886790241903e-01
vn -4.3388373911755779e-01 0.0000000000000000e+00 -9.0096886790241926e-01
vn -9.7814760073380558e-01 -0.0000000000000000e+00 2.0791169081775970e-01
vn -9.7814760073380558e-01 -0.0000000000000000e+00 2.0791169081775929e-01
vn -1.0000000000000000e+00 -0.0000000000000000e+00 1.2246467991473532e-16
vn -1.0000000000000000e+00 -0.0000000000000000e+00 -1.2246467991473532e-16
vn -9.7814760073380558e-01 -0.0000000000000000e+00 -2.0791169081775929e-01
vn -9.7814760073380558e-01 -0.0000000000000000e+00 -2.0791169081775970e-01
vn -9.1354545764260087e-01 -0.0000000000000000e+00 -4.0673664307580043e-01
vn -9.1354545764260064e-01 -0.0000000000000000e+00 -4.0673664307580082e-01
vn -8.0901699437494734e-01 -0.0000000000000000e+00 -5.8778525229247336e-01
vn -6.6913060635885835e-01 -0.0000000000000000e+00 -7.4314482547739424e-01
vn -6.6913060635885802e-01 -0.0000000000000000e+00 -7.4314482547739447e-01
vn -5.0000000000000022e-01 -0.0000000000000000e+00 -8.6602540378443849e-01
vn -4.9999999999999933e-01 -0.0000000000000000e+00 -8.6602540378443904e-01
vn -3.0901699437494734e-01 -0.0000000000000000e+00 -9.5105651629515364e-01
vn -1.0452846326765355e-01 -0.0000000000000000e+00 -9.9452189536827340e-01
vn -1.0452846326765310e-01 -0.0000000000000000e+00 -9.9452189536827340e-01
vn 1.0452846326765347e-01 -0.0000000000000000e+00 -9.9452189536827340e-01
vn 1.0452846326765414e-01 -0.0000000000000000e+00 -9.9452189536827340e-01
vn 3.0901699437494745e-01 -0.0000000000000000e+00 -9.5105651629515364e-01
vn 4.9999999999999989e-01 -0.0000000000000000e+00 -8.6602540378443882e-01
vn 5.0000000000000044e-01 -0.0000000000000000e+00 -8.6602540378443849e-01
vn 6.6913060635885802e-01 -0.0000000000000000e+00 -7.4314482547739447e-01
vn 6.6913060635885846e-01 -0.0000000000000000e+00 -7.4314482547739413e-01
vn 8.0901699437494756e-01 -0.0000000000000000e+00 -5.8778525229247314e-01
vn 9.1354545764260087e-01 -0.0000000000000000e+00 -4.0673664307580032e-01
vn 9.1354545764260109e-01 -0.0000000000000000e+00 -4.0673664307579999e-01
vn 9.7814760073380558e-01 -0.0000000000000000e+00 -2.0791169081775959e-01
vn 9.7814760073380580e-01 -0.0000000000000000e+00 -2.0791169081775918e-01
vn 1.0000000000000000e+00 0.0000000000000000e+00 -0.0000000000000000e+00
vn 9.7814760073380580e-01 0.0000000000000000e+00 2.0791169081775918e-01
vn 9.7814760073380558e-01 0.0000000000000000e+00 2.0791169081775959e-01
vn 9.1354545764260109e-01 0.0000000000000000e+00 4.0673664307579999e-01
vn 9.1354545764260087e-01 0.0000000000000000e+00 4.0673664307580032e-01
vn 8.0901699437494756e-01 0.0000000000000000e+00 5.8778525229247314e-01
vn 6.6913060635885846e-01 0.0000000000000000e+00 7.4314482547739413e-01
vn 6.6913060635885802e-01 0.0000000000000000e+00 7.4314482547739447e-01
vn 5.0000000000000044e-01 0.0000000000000000e+00 8.6602540378443849e-01
vn 4.9999999999999989e-01 0.0000000000000000e+00 8.6602540378443882e-01
vn 3.0901699437494745e-01 0.0000000000000000e+00 9.5105651629515364e-01
vn 1.0452846326765414e-01 0.0000000000000000e+00 9.9452189536827340e-01
vn 1.0452846326765347e-01 0.0000000000000000e+00 9.9452189536827340e-01
vn -1.0452846326765310e-01 -0.0000000000000000e+00 9.9452189536827340e-01
vn -1.0452846326765355e-01 -0.0000000000000000e+00 9.9452189536827340e-01
vn -3.0901699437494734e-01 -0.0000000000000000e+00 9.5105651629515364e-01
vn -4.9999999999999933e-01 -0.0000000000000000e+00 8.6602540378443904e-01
vn -5.0000000000000022e-01 -0.0000000000000000e+00 8.6602540378443849e-01
vn -6.6913060635885802e-01 -0.0000000000000000e+00 7.4314482547739447e-01
vn -6.6913060635885835e-01 -0.0000000000000000e+00 7.4314482547739424e-01
vn -8.0901699437494734e-01 -0.0000000000000000e+00 5.8778525229247336e-01
vn -9.1354545764260064e-01 -0.0000000000000000e+00 4.0673664307580082e-01
vn -9.1354545764260087e-01 -0.0000000000000000e+00 4.0673664307580043e-01
vn 0.0000000000000000e+00 1.0000000000000000e+00 0.0000000000000000e+00
vn -0.0000000000000000e+00 -1.0000000000000000e+00 -0.0000000000000000e+00

g face 0
f 2//1 42//2 1//3
f 1//3 42//2 43//3
f 1//4 43//4 28//5
f 28//5 43//4 44//5
f 28//5 44//5 27//6
f 27//6 44//5 45//6
f 27//6 45//6 26//7
f 26//7 45//6 46//7
f 26//7 46//7 25//8
f 25//8 46//7 47//8
f 25//8 47//8 24//9
f 24//9 47//8 48//9
f 24//9 48//9 23//10
f 23//10 48//9 49//10
f 23//10 49//10 22//11
f 22//11 49//10 50//11
f 22//11 50//11 21//12
f 21//12 50//11 51//12
f 21//12 51//12 20//13
f 20//13 51//12 52//13
f 20//13 52//13 19//14
f 19//14 52//13 53//14
f 19//14 53//14 18//15
f 18//15 53//14 54//15
f 18//15 54//15 17//16
f 17//16 54//15 55//16
f 17//16 55//16 16//17
f 16//17 55//16 56//17
f 16//17 56//17 15//18
f 15//18 56//17 29//18
f 15//18 29//18 14//19
f 14//19 29//18 30//20
f 14//19 30//20 13//21
f 13//21 30//20 31//22
f 13//21 31//22 12//23
f 12//23 31//22 32//24
f 12//23 32//24 11//25
f 11//25 32//24 33//26
f 11//25 33//26 10//27
f 10//27 33//26 34//28
f 10//27 34//28 9//29
f 9//29 34//28 35//30
f 9//29 35//30 8//31
f 8//31 35//30 36//32
f 8//31 36//32 7//33
f 7//33 36//32 37//34
f 7//33 37//34 6//35
f 6//35 37//34 38//36
f 6//35 38//36 5//37
f 5//37 38//36 39//38
f 5//37 39//38 4//39
f 4//39 39//38 40//40
f 4//39 40//40 3//41
f 3//41 40//40 41//42
f 3//41 41//42 2//1
f 2//1 41//42 42//2

g face 1
f 58//43 116//44 57//45
f 57//45 116//44 87//45
f 57//46 87//46 86//47
f 86//47 87//46 88//48
f 86//47 88//48 85//49
f 85//49 88//48 89//50
f 85//49 89//50 84//51
f 84//51 89//50 90//51
f 84//51 90//51 83//52
f 83//52 90//51 91//53
f 83//52 91//53 82//54
f 82//54 91//53 92//55
f 82//54 92//55 81//56
f 81//56 92//55 93//56
f 81//56 93//56 80//57
f 80//57 93//56 94//58
f 80//57 94//58 79//59
f 79//59 94//58 95//60
f 79//59 95//60 78//61
f 78//61 95//60 96//61
f 78//61 96//61 77//62
f 77//62 96//61 97//63
f 77//62 97//63 76//64
f 76//64 97//63 98//65
f 76//64 98//65 75//66
f 75//66 98//65 99//66
f 75//66 99//66 74//67
f 74//67 99//66 100//68
f 74//67 100//68 73//69
f 73//69 100//68 101//70
f 73//69 101//70 72//71
f 72//71 101//70 102//71
f 72//71 102//71 71//72
f 71//72 102//71 103//73
f 71//72 103//73 70//74
f 70//74 103//73 104//75
f 70//74 104//75 69//76
f 69//76 104//75 105//76
f 69//76 105//76 68//77
f 68//77 105//76 106//78
f 68//77 106//78 67//79
f 67//79 106//78 107//80
f 67//79 107//80 66//81
f 66//81 107//80 108//81
f 66//81 108//81 65//82
f 65//82 108//81 109//83
f 65//82 109//83 64//84
f 64//84 109//83 110//85
f 64//84 110//85 63//86
f 63//86 110//85 111//86
f 63//86 111//86 62//87
f 62//87 111//86 112//88
f 62//87 112//88 61//89
f 61//89 112//88 113//90
f 61//89 113//90 60//91
f 60//91 113//90 114//91
f 60//91 114//91 59//92
f 59//92 114//91 115//93
f 59//92 115//93 58//43
f 58//43 115//93 116//44

g face 2
f 28//94 110//94 1//94
f 1//94 110//94 109//94
f 1//94 109//94 2//94
f 2//94 109//94 108//94
f 2//94 108//94 3//94
f 3//94 108//94 107//94
f 3//94 107//94 4//94
f 4//94 107//94 106//94
f 4//94 106//94 5//94
f 5//94 106//94 105//94
f 5//94 105//94 6//94
f 6//94 105//94 104//94
f 6//94 104//94 7//94
f 7//94 104//94 103//94
f 7//94 103//94 8//94
f 8//94 103//94 102//94
f 8//94 102//94 101//94
f 110//94 28//94 111//94
f 111//94 28//94 27//94
f 111//94 27//94 112//94
f 112//94 27//94 26//94
f 112//94 26//94 113//94
f 113//94 26//94 25//94
f 113//94 25//94 114//94
f 114//94 25//94 24//94
f 114//94 24//94 115//94
f 115//94 24//94 23//94
f 115//94 23//94 116//94
f 116//94 23//94 22//94
f 116//94 22//94 87//94
f 87//94 22//94 88//94
f 88//94 22//94 21//94
f 88//94 21//94 89//94
f 89//94 21//94 20//94
f 89//94 20//94 90//94
f 90//94 20//94 19//94
f 90//94 19//94 91//94
f 91//94 19//94 18//94
f 91//94 18//94 92//94
f 92//94 18//94 17//94
f 92//94 17//94 93//94
f 93//94 17//94 16//94
f 93//94 16//94 94//94
f 94//94 16//94 15//94
f 94//94 15//94 95//94
f 95//94 15//94 14//94
f 95//94 14//94 96//94
f 96//94 14//94 13//94
f 96//94 13//94 97//94
f 97//94 13//94 12//94
f 97//94 12//94 98//94
f 98//94 12//94 11//94
f 98//94 11//94 99//94
f 99//94 11//94 10//94
f 99//94 10//94 100//94
f 100//94 10//94 9//94
f 100//94 9//94 101//94
f 101//94 9//94 8//94

g face 3
f 56//95 80//95 29//95
f 29//95 80//95 79//95
f 29//95 79//95 30//95
f 30//95 79//95 78//95
f 30//95 78//95 31//95
f 31//95 78//95 77//95
f 31//95 77//95 32//95
f 32//95 77//95 76//95
f 32//95 76//95 33//95
f 33//95 76//95 75//95
f 33//95 75//95 34//95
f 34//95 75//95 74//95
f 34//95 74//95 35//95
f 35//95 74//95 73//95
f 35//95 73//95 36//95
f 36//95 73//95 72//95
f 36//95 72//95 71//95
f 80//95 56//95 81//95
f 81//95 56//95 55//95
f 81//95 55//95 82//95
f 82//95 55//95 54//95
f 82//95 54//95 83//95
f 83//95 54//95 53//95
f 83//95 53//95 84//95
f 84//95 53//95 52//95
f 84//95 52//95 85//95
f 85//95 52//95 51//95
f 85//95 51//95 86//95
f 86//95 51//95 50//95
f 86//95 50//95 57//95
f 57//95 50//95 58//95
f 58//95 50//95 49//95
f 58//95 49//95 59//95
f 59//95 49//95 48//95
f 59//95 48//95 60//95
f 60//95 48//95 47//95
f 60//95 47//95 61//95
f 61//95 47//95 46//95
f 61//95 46//95 62//95
f 62//95 46//95 45//95
f 62//95 45//95 63//95
f 63//95 45//95 44//95
f 63//95 44//95 64//95
f 64//95 44//95 43//95
f 64//95 43//95 65//95
f 65//95 43//95 42//95
f 65//95 42//95 66//95
f 66//95 42//95 41//95
f 66//95 41//95 67//95
f 67//95 41//95 40//95
f 67//95 40//95 68//95
f 68//95 40//95 39//95
f 68//95 39//95 69//95
f 69//95 39//95 38//95
f 69//95 38//95 70//95
f 70//95 38//95 37//95
f 70//95 37//95 71//95
f 71//95 37//95 36//95

g halfedge 0 edge 0
l 1 28 27 26 25 24 23 22 21 20 19 18 17 16 15 14 13 12 11 10 9 8 7 6 5 4 3 2 1

g halfedge 1 edge 0
l 1 2 3 4 5 6 7 8 9 10 11 12 13 14 15 16 17 18 19 20 21 22 23 24 25 26 27 28 1

g halfedge 2 edge 1
l 29 56 55 54 53 52 51 50 49 48 47 46 45 44 43 42 41 40 39 38 37 36 35 34 33 32 31 30 29

g halfedge 3 edge 1
l 29 30 31 32 33 34 35 36 37 38 39 40 41 42 43 44 45 46 47 48 49 50 51 52 53 54 55 56 29

g halfedge 4 edge 2
l 57 58 59 60 61 62 63 64 65 66 67 68 69 70 71 72 73 74 75 76 77 78 79 80 81 82 83 84 85 86 57

g halfedge 5 edge 2
l 57 86 85 84 83 82 81 80 79 78 77 76 75 74 73 72 71 70 69 68 67 66 65 64 63 62 61 60 59 58 57

g halfedge 6 edge 3
l 87 116 115 114 113 112 111 110 109 108 107 106 105 104 103 102 101 100 99 98 97 96 95 94 93 92 91 90 89 88 87

g halfedge 7 edge 3
l 87 88 89 90 91 92 93 94 95 96 97 98 99 100 101 102 103 104 105 106 107 108 109 110 111 112 113 114 115 116 87

g vertex 0
p 1

g vertex 1
p 29

g vertex 2
p 57

g vertex 3
p 87

# End of file
