# WaveFront *.obj file
# Vertices: 276
# Triangles : 552

v 1.7890053526613508e-15 9.9999999999999964e+00 3.4999999999998499e-01
v 1.1364481422164111e-01 9.9999999999999964e+00 3.3103603459520708e-01
v 2.1497444944138563e-01 9.9999999999999964e+00 2.7619917828872270e-01
v 2.9300826739188690e-01 9.9999999999999964e+00 1.9143185534283433e-01
v 3.3929009307876751e-01 9.9999999999999964e+00 8.5919920499264585e-02
v 3.4880457255233632e-01 9.9999999999999964e+00 -2.8902770915331461e-02
v 3.2052066432927190e-01 9.9999999999999964e+00 -1.4059339862855447e-01
v 2.5750336873559782e-01 9.9999999999999964e+00 -2.3704855006902453e-01
v 1.6658158756297758e-01 9.9999999999999964e+00 -3.0781581292228627e-01
v 5.7608106598258713e-02 9.9999999999999964e+00 -3.4522645619096787e-01
v -5.7608106598255049e-02 9.9999999999999964e+00 -3.4522645619096787e-01
v -1.6658158756297392e-01 9.9999999999999964e+00 -3.0781581292228627e-01
v -2.5750336873559426e-01 9.9999999999999964e+00 -2.3704855006902442e-01
v -3.2052066432926835e-01 9.9999999999999964e+00 -1.4059339862855433e-01
v -3.4880457255233266e-01 9.9999999999999964e+00 -2.8902770915331385e-02
v -3.3929009307876384e-01 9.9999999999999964e+00 8.5919920499264654e-02
v -2.9300826739188324e-01 9.9999999999999964e+00 1.9143185534283433e-01
v -2.1497444944138197e-01 9.9999999999999964e+00 2.7619917828872270e-01
v -1.1364481422163744e-01 9.9999999999999964e+00 3.3103603459520708e-01
v 1.8747306286016658e-15 9.8999999999999968e+00 3.4999999999998499e-01
v -1.1364481422163744e-01 9.8999999999999968e+00 3.3103603459520708e-01
v -2.1497444944138197e-01 9.8999999999999968e+00 2.7619917828872270e-01
v -2.9300826739188324e-01 9.8999999999999968e+00 1.9143185534283433e-01
v -3.3929009307876384e-01 9.8999999999999968e+00 8.5919920499264585e-02
v -3.4880457255233266e-01 9.8999999999999968e+00 -2.8902770915331461e-02
v -3.2052066432926823e-01 9.8999999999999968e+00 -1.4059339862855447e-01
v -2.5750336873559415e-01 9.8999999999999968e+00 -2.3704855006902453e-01
v -1.6658158756297392e-01 9.8999999999999968e+00 -3.0781581292228627e-01
v -5.7608106598255049e-02 9.8999999999999968e+00 -3.4522645619096787e-01
v 5.7608106598258713e-02 9.8999999999999968e+00 -3.4522645619096787e-01
v 1.6658158756297758e-01 9.8999999999999968e+00 -3.0781581292228627e-01
v 2.5750336873559793e-01 9.8999999999999968e+00 -2.3704855006902442e-01
v 3.2052066432927201e-01 9.8999999999999968e+00 -1.4059339862855433e-01
v 3.4880457255233632e-01 9.8999999999999968e+00 -2.8902770915331385e-02
v 3.3929009307876751e-01 9.8999999999999968e+00 8.5919920499264654e-02
v 2.9300826739188690e-01 9.8999999999999968e+00 1.9143185534283433e-01
v 2.1497444944138563e-01 9.8999999999999968e+00 2.7619917828872270e-01
v 1.1364481422164111e-01 9.8999999999999968e+00 3.3103603459520708e-01
v -1.3999999999999984e+00 9.2999999999999972e+00 -1.4867986188209534e-14
v -1.3798622744867901e+00 9.2999999999999972e+00 -2.3660114845060445e-01
v -1.3200284236455162e+00 9.2999999999999972e+00 -4.6639571263889568e-01
v -1.2222197584256616e+00 9.2999999999999972e+00 -6.8277292133910383e-01
v -1.0892500560458138e+00 9.2999999999999972e+00 -8.7950799621391407e-01
v -9.2494461274611206e-01 9.2999999999999972e+00 -1.0509412273538294e+00
v -7.3403019698012184e-01 9.2999999999999972e+00 -1.1921407928266514e+00
v -5.2199906889243020e-01 9.2999999999999972e+00 -1.2990446382151284e+00
v -2.9495097799401443e-01 9.2999999999999972e+00 -1.3685773345267760e+00
v -5.9417684474605860e-02 9.2999999999999972e+00 -1.3987385526865692e+00
v 1.7782494764563259e-01 9.2999999999999972e+00 -1.3886606093624427e+00
v 4.0995187978717218e-01 9.2999999999999972e+00 -1.3386334286349666e+00
v 6.3028524274474473e-01 9.2999999999999972e+00 -1.2500962014094110e+00
v 8.3248644682600281e-01 9.2999999999999972e+00 -1.1255959825137323e+00
v 1.0107385315363362e+00 9.2999999999999972e+00 -9.6871441656857959e-01
v 1.1599135089413810e+00 9.2999999999999972e+00 -7.8396470059264856e-01
v 1.2757198865433919e+00 9.2999999999999972e+00 -5.7666174754160482e-01
v 1.3548261257069003e+00 9.2999999999999972e+00 -3.5276928593918994e-01
v 1.3949564839595390e+00 9.2999999999999972e+00 -1.1872829426572758e-01
v 1.3949564839595390e+00 9.2999999999999972e+00 1.1872829426569809e-01
v 1.3548261257069001e+00 9.2999999999999972e+00 3.5276928593916040e-01
v 1.2757198865433919e+00 9.2999999999999972e+00 5.7666174754157484e-01
v 1.1599135089413810e+00 9.2999999999999972e+00 7.8396470059261858e-01
v 1.0107385315363362e+00 9.2999999999999972e+00 9.6871441656854962e-01
v 8.3248644682600326e-01 9.2999999999999972e+00 1.1255959825137016e+00
v 6.3028524274474473e-01 9.2999999999999972e+00 1.2500962014093808e+00
v 4.0995187978717246e-01 9.2999999999999972e+00 1.3386334286349364e+00
v 1.7782494764563195e-01 9.2999999999999972e+00 1.3886606093624128e+00
v -5.9417684474605860e-02 9.2999999999999972e+00 1.3987385526865390e+00
v -2.9495097799401498e-01 9.2999999999999972e+00 1.3685773345267458e+00
v -5.2199906889243020e-01 9.2999999999999972e+00 1.2990446382150982e+00
v -7.3403019698012251e-01 9.2999999999999972e+00 1.1921407928266210e+00
v -9.2494461274611206e-01 9.2999999999999972e+00 1.0509412273537992e+00
v -1.0892500560458138e+00 9.2999999999999972e+00 8.7950799621388409e-01
v -1.2222197584256616e+00 9.2999999999999972e+00 6.8277292133907386e-01
v -1.3200284236455162e+00 9.2999999999999972e+00 4.6639571263886559e-01
v -1.3798622744867901e+00 9.2999999999999972e+00 2.3660114845057376e-01
v -1.3999999999999984e+00 9.8999999999999968e+00 -1.5210887291970791e-14
v -1.3798622744867901e+00 9.8999999999999968e+00 2.3660114845057437e-01
v -1.3200284236455162e+00 9.8999999999999968e+00 4.6639571263886559e-01
v -1.2222197584256616e+00 9.8999999999999968e+00 6.8277292133907386e-01
v -1.0892500560458138e+00 9.8999999999999968e+00 8.7950799621388409e-01
v -9.2494461274611206e-01 9.8999999999999968e+00 1.0509412273537992e+00
v -7.3403019698012184e-01 9.8999999999999968e+00 1.1921407928266212e+00
v -5.2199906889243020e-01 9.8999999999999968e+00 1.2990446382150982e+00
v -2.9495097799401443e-01 9.8999999999999968e+00 1.3685773345267458e+00
v -5.9417684474605860e-02 9.8999999999999968e+00 1.3987385526865390e+00
v 1.7782494764563259e-01 9.8999999999999968e+00 1.3886606093624125e+00
v 4.0995187978717218e-01 9.8999999999999968e+00 1.3386334286349364e+00
v 6.3028524274474473e-01 9.8999999999999968e+00 1.2500962014093808e+00
v 8.3248644682600281e-01 9.8999999999999968e+00 1.1255959825137021e+00
v 1.0107385315363362e+00 9.8999999999999968e+00 9.6871441656854962e-01
v 1.1599135089413810e+00 9.8999999999999968e+00 7.8396470059261858e-01
v 1.2757198865433919e+00 9.8999999999999968e+00 5.7666174754157484e-01
v 1.3548261257069003e+00 9.8999999999999968e+00 3.5276928593915985e-01
v 1.3949564839595390e+00 9.8999999999999968e+00 1.1872829426569749e-01
v 1.3949564839595390e+00 9.8999999999999968e+00 -1.1872829426572817e-01
v 1.3548261257069001e+00 9.8999999999999968e+00 -3.5276928593919049e-01
v 1.2757198865433919e+00 9.8999999999999968e+00 -5.7666174754160482e-01
v 1.1599135089413810e+00 9.8999999999999968e+00 -7.8396470059264856e-01
v 1.0107385315363362e+00 9.8999999999999968e+00 -9.6871441656857959e-01
v 8.3248644682600326e-01 9.8999999999999968e+00 -1.1255959825137318e+00
v 6.3028524274474473e-01 9.8999999999999968e+00 -1.2500962014094110e+00
v 4.0995187978717246e-01 9.8999999999999968e+00 -1.3386334286349666e+00
v 1.7782494764563195e-01 9.8999999999999968e+00 -1.3886606093624430e+00
v -5.9417684474605860e-02 9.8999999999999968e+00 -1.3987385526865692e+00
v -2.9495097799401498e-01 9.8999999999999968e+00 -1.3685773345267760e+00
v -5.2199906889243020e-01 9.8999999999999968e+00 -1.2990446382151284e+00
v -7.3403019698012251e-01 9.8999999999999968e+00 -1.1921407928266512e+00
v -9.2494461274611206e-01 9.8999999999999968e+00 -1.0509412273538294e+00
v -1.0892500560458138e+00 9.8999999999999968e+00 -8.7950799621391407e-01
v -1.2222197584256616e+00 9.8999999999999968e+00 -6.8277292133910383e-01
v -1.3200284236455162e+00 9.8999999999999968e+00 -4.6639571263889568e-01
v -1.3798622744867901e+00 9.8999999999999968e+00 -2.3660114845060384e-01
v -1.5999999999999983e+00 9.2999999999999972e+00 -1.4843493252226585e-14
v -1.5803013449522185e+00 9.2999999999999972e+00 2.5029514406435455e-01
v -1.5216904260722439e+00 9.2999999999999972e+00 4.9442719099990101e-01
v -1.4256104387013868e+00 9.2999999999999972e+00 7.2638479958326008e-01
v -1.2944271909999141e+00 9.2999999999999972e+00 9.4045640366794225e-01
v -1.1313708498984743e+00 9.2999999999999972e+00 1.1313708498984612e+00
v -9.4045640366795513e-01 9.2999999999999972e+00 1.2944271909999010e+00
v -7.2638479958327307e-01 9.2999999999999972e+00 1.4256104387013737e+00
v -4.9442719099991395e-01 9.2999999999999972e+00 1.5216904260722308e+00
v -2.5029514406436748e-01 9.2999999999999972e+00 1.5803013449522054e+00
v 1.9182754258118050e-15 9.2999999999999972e+00 1.5999999999999850e+00
v 2.5029514406437131e-01 9.2999999999999972e+00 1.5803013449522054e+00
v 4.9442719099991778e-01 9.2999999999999972e+00 1.5216904260722306e+00
v 7.2638479958327673e-01 9.2999999999999972e+00 1.4256104387013735e+00
v 9.4045640366795880e-01 9.2999999999999972e+00 1.2944271909999010e+00
v 1.1313708498984780e+00 9.2999999999999972e+00 1.1313708498984612e+00
v 1.2944271909999179e+00 9.2999999999999972e+00 9.4045640366794203e-01
v 1.4256104387013906e+00 9.2999999999999972e+00 7.2638479958325985e-01
v 1.5216904260722475e+00 9.2999999999999972e+00 4.9442719099990079e-01
v 1.5803013449522223e+00 9.2999999999999972e+00 2.5029514406435438e-01
v 1.6000000000000019e+00 9.2999999999999972e+00 -1.5039436740090162e-14
v 1.5803013449522223e+00 9.2999999999999972e+00 -2.5029514406438447e-01
v 1.5216904260722475e+00 9.2999999999999972e+00 -4.9442719099993088e-01
v 1.4256104387013906e+00 9.2999999999999972e+00 -7.2638479958328983e-01
v 1.2944271909999179e+00 9.2999999999999972e+00 -9.4045640366797201e-01
v 1.1313708498984780e+00 9.2999999999999972e+00 -1.1313708498984913e+00
v 9.4045640366795880e-01 9.2999999999999972e+00 -1.2944271909999312e+00
v 7.2638479958327673e-01 9.2999999999999972e+00 -1.4256104387014037e+00
v 4.9442719099991778e-01 9.2999999999999972e+00 -1.5216904260722608e+00
v 2.5029514406437131e-01 9.2999999999999972e+00 -1.5803013449522356e+00
v 1.9182754258118050e-15 9.2999999999999972e+00 -1.6000000000000152e+00
v -2.5029514406436748e-01 9.2999999999999972e+00 -1.5803013449522356e+00
v -4.9442719099991395e-01 9.2999999999999972e+00 -1.5216904260722610e+00
v -7.2638479958327307e-01 9.2999999999999972e+00 -1.4256104387014039e+00
v -9.4045640366795513e-01 9.2999999999999972e+00 -1.2944271909999312e+00
v -1.1313708498984743e+00 9.2999999999999972e+00 -1.1313708498984913e+00
v -1.2944271909999141e+00 9.2999999999999972e+00 -9.4045640366797223e-01
v -1.4256104387013868e+00 9.2999999999999972e+00 -7.2638479958329005e-01
v -1.5216904260722439e+00 9.2999999999999972e+00 -4.9442719099993110e-01
v -1.5803013449522185e+00 9.2999999999999972e+00 -2.5029514406438463e-01
v -1.5999999999999983e+00 9.8999999999999968e+00 -1.4843493252226585e-14
v -1.5803013449522185e+00 9.8999999999999968e+00 -2.5029514406438463e-01
v -1.5216904260722439e+00 9.8999999999999968e+00 -4.9442719099993110e-01
v -1.4256104387013868e+00 9.8999999999999968e+00 -7.2638479958329005e-01
v -1.2944271909999141e+00 9.8999999999999968e+00 -9.4045640366797223e-01
v -1.1313708498984743e+00 9.8999999999999968e+00 -1.1313708498984913e+00
v -9.4045640366795513e-01 9.8999999999999968e+00 -1.2944271909999312e+00
v -7.2638479958327307e-01 9.8999999999999968e+00 -1.4256104387014039e+00
v -4.9442719099991395e-01 9.8999999999999968e+00 -1.5216904260722610e+00
v -2.5029514406436748e-01 9.8999999999999968e+00 -1.5803013449522356e+00
v 1.9182754258118050e-15 9.8999999999999968e+00 -1.6000000000000152e+00
v 2.5029514406437131e-01 9.8999999999999968e+00 -1.5803013449522356e+00
v 4.9442719099991778e-01 9.8999999999999968e+00 -1.5216904260722608e+00
v 7.2638479958327673e-01 9.8999999999999968e+00 -1.4256104387014037e+00
v 9.4045640366795880e-01 9.8999999999999968e+00 -1.2944271909999312e+00
v 1.1313708498984780e+00 9.8999999999999968e+00 -1.1313708498984913e+00
v 1.2944271909999179e+00 9.8999999999999968e+00 -9.4045640366797201e-01
v 1.4256104387013906e+00 9.8999999999999968e+00 -7.2638479958328983e-01
v 1.5216904260722475e+00 9.8999999999999968e+00 -4.9442719099993088e-01
v 1.5803013449522223e+00 9.8999999999999968e+00 -2.5029514406438447e-01
v 1.6000000000000019e+00 9.8999999999999968e+00 -1.5039436740090162e-14
v 1.5803013449522223e+00 9.8999999999999968e+00 2.5029514406435438e-01
v 1.5216904260722475e+00 9.8999999999999968e+00 4.9442719099990079e-01
v 1.4256104387013906e+00 9.8999999999999968e+00 7.2638479958325985e-01
v 1.2944271909999179e+00 9.8999999999999968e+00 9.4045640366794203e-01
v 1.1313708498984780e+00 9.8999999999999968e+00 1.1313708498984612e+00
v 9.4045640366795880e-01 9.8999999999999968e+00 1.2944271909999010e+00
v 7.2638479958327673e-01 9.8999999999999968e+00 1.4256104387013735e+00
v 4.9442719099991778e-01 9.8999999999999968e+00 1.5216904260722306e+00
v 2.5029514406437131e-01 9.8999999999999968e+00 1.5803013449522054e+00
v 1.9182754258118050e-15 9.8999999999999968e+00 1.5999999999999850e+00
v -2.5029514406436748e-01 9.8999999999999968e+00 1.5803013449522054e+00
v -4.9442719099991395e-01 9.8999999999999968e+00 1.5216904260722308e+00
v -7.2638479958327307e-01 9.8999999999999968e+00 1.4256104387013737e+00
v -9.4045640366795513e-01 9.8999999999999968e+00 1.2944271909999010e+00
v -1.1313708498984743e+00 9.8999999999999968e+00 1.1313708498984612e+00
v -1.2944271909999141e+00 9.8999999999999968e+00 9.4045640366794225e-01
v -1.4256104387013868e+00 9.8999999999999968e+00 7.2638479958326008e-01
v -1.5216904260722439e+00 9.8999999999999968e+00 4.9442719099990101e-01
v -1.5803013449522185e+00 9.8999999999999968e+00 2.5029514406435455e-01
v -1.7999999999999983e+00 9.8999999999999968e+00 -1.4819000316243637e-14
v -1.7798954872052295e+00 9.8999999999999968e+00 -2.6827607911712953e-01
v -1.7200310504150518e+00 9.8999999999999968e+00 -5.3055931393964262e-01
v -1.6217439622243526e+00 9.8999999999999968e+00 -7.8099073041161982e-01
v -1.4872297937687886e+00 9.8999999999999968e+00 -1.0139761045145350e+00
v -1.3194933692936850e+00 9.8999999999999968e+00 -1.2243109279876705e+00
v -1.1222816433457186e+00 9.8999999999999968e+00 -1.4072966684424690e+00
v -8.9999999999999780e-01 9.8999999999999968e+00 -1.5588457268120048e+00
v -6.5761384385950905e-01 9.8999999999999968e+00 -1.6755727475595830e+00
v -4.0053768112136401e-01 9.8999999999999968e+00 -1.7548702419272977e+00
v -1.3451416845556147e-01 9.8999999999999968e+00 -1.7949668349261394e+00
v 1.3451416845556574e-01 9.8999999999999968e+00 -1.7949668349261394e+00
v 4.0053768112136784e-01 9.8999999999999968e+00 -1.7548702419272977e+00
v 6.5761384385951316e-01 9.8999999999999968e+00 -1.6755727475595825e+00
v 9.0000000000000235e-01 9.8999999999999968e+00 -1.5588457268120044e+00
v 1.1222816433457223e+00 9.8999999999999968e+00 -1.4072966684424688e+00
v 1.3194933692936894e+00 9.8999999999999968e+00 -1.2243109279876698e+00
v 1.4872297937687928e+00 9.8999999999999968e+00 -1.0139761045145343e+00
v 1.6217439622243564e+00 9.8999999999999968e+00 -7.8099073041161959e-01
v 1.7200310504150553e+00 9.8999999999999968e+00 -5.3055931393964229e-01
v 1.7798954872052333e+00 9.8999999999999968e+00 -2.6827607911712847e-01
v 1.8000000000000018e+00 9.8999999999999968e+00 -1.5039436740090162e-14
v 1.7798954872052331e+00 9.8999999999999968e+00 2.6827607911709922e-01
v 1.7200310504150551e+00 9.8999999999999968e+00 5.3055931393961309e-01
v 1.6217439622243564e+00 9.8999999999999968e+00 7.8099073041158962e-01
v 1.4872297937687924e+00 9.8999999999999968e+00 1.0139761045145048e+00
v 1.3194933692936888e+00 9.8999999999999968e+00 1.2243109279876401e+00
v 1.1222816433457223e+00 9.8999999999999968e+00 1.4072966684424386e+00
v 9.0000000000000091e-01 9.8999999999999968e+00 1.5588457268119751e+00
v 6.5761384385951238e-01 9.8999999999999968e+00 1.6755727475595528e+00
v 4.0053768112136784e-01 9.8999999999999968e+00 1.7548702419272675e+00
v 1.3451416845556455e-01 9.8999999999999968e+00 1.7949668349261094e+00
v -1.3451416845556224e-01 9.8999999999999968e+00 1.7949668349261092e+00
v -4.0053768112136401e-01 9.8999999999999968e+00 1.7548702419272675e+00
v -6.5761384385951016e-01 9.8999999999999968e+00 1.6755727475595521e+00
v -8.9999999999999869e-01 9.8999999999999968e+00 1.5588457268119744e+00
v -1.1222816433457186e+00 9.8999999999999968e+00 1.4072966684424388e+00
v -1.3194933692936863e+00 9.8999999999999968e+00 1.2243109279876392e+00
v -1.4872297937687893e+00 9.8999999999999968e+00 1.0139761045145042e+00
v -1.6217439622243526e+00 9.8999999999999968e+00 7.8099073041158984e-01
v -1.7200310504150518e+00 9.8999999999999968e+00 5.3055931393961175e-01
v -1.7798954872052295e+00 9.8999999999999968e+00 2.6827607911709866e-01
v -1.7999999999999983e+00 9.9999999999999964e+00 -1.4819000316243637e-14
v -1.7798954872052295e+00 9.9999999999999964e+00 -2.6827607911712875e-01
v -1.7200310504150518e+00 9.9999999999999964e+00 -5.3055931393964173e-01
v -1.6217439622243526e+00 9.9999999999999964e+00 -7.8099073041161982e-01
v -1.4872297937687893e+00 9.9999999999999964e+00 -1.0139761045145343e+00
v -1.3194933692936863e+00 9.9999999999999964e+00 -1.2243109279876694e+00
v -1.1222816433457186e+00 9.9999999999999964e+00 -1.4072966684424690e+00
v -8.9999999999999869e-01 9.9999999999999964e+00 -1.5588457268120046e+00
v -6.5761384385951016e-01 9.9999999999999964e+00 -1.6755727475595823e+00
v -4.0053768112136401e-01 9.9999999999999964e+00 -1.7548702419272977e+00
v -1.3451416845556224e-01 9.9999999999999964e+00 -1.7949668349261394e+00
v 1.3451416845556455e-01 9.9999999999999964e+00 -1.7949668349261396e+00
v 4.0053768112136784e-01 9.9999999999999964e+00 -1.7548702419272977e+00
v 6.5761384385951238e-01 9.9999999999999964e+00 -1.6755727475595830e+00
v 9.0000000000000091e-01 9.9999999999999964e+00 -1.5588457268120053e+00
v 1.1222816433457223e+00 9.9999999999999964e+00 -1.4072966684424688e+00
v 1.3194933692936888e+00 9.9999999999999964e+00 -1.2243109279876703e+00
v 1.4872297937687924e+00 9.9999999999999964e+00 -1.0139761045145350e+00
v 1.6217439622243564e+00 9.9999999999999964e+00 -7.8099073041161959e-01
v 1.7200310504150551e+00 9.9999999999999964e+00 -5.3055931393964306e-01
v 1.7798954872052331e+00 9.9999999999999964e+00 -2.6827607911712931e-01
v 1.8000000000000018e+00 9.9999999999999964e+00 -1.5039436740090162e-14
v 1.7798954872052333e+00 9.9999999999999964e+00 2.6827607911709839e-01
v 1.7200310504150553e+00 9.9999999999999964e+00 5.3055931393961231e-01
v 1.6217439622243564e+00 9.9999999999999964e+00 7.8099073041158962e-01
v 1.4872297937687928e+00 9.9999999999999964e+00 1.0139761045145042e+00
v 1.3194933692936894e+00 9.9999999999999964e+00 1.2243109279876396e+00
v 1.1222816433457223e+00 9.9999999999999964e+00 1.4072966684424386e+00
v 9.0000000000000235e-01 9.9999999999999964e+00 1.5588457268119742e+00
v 6.5761384385951316e-01 9.9999999999999964e+00 1.6755727475595523e+00
v 4.0053768112136784e-01 9.9999999999999964e+00 1.7548702419272675e+00
v 1.3451416845556574e-01 9.9999999999999964e+00 1.7949668349261092e+00
v -1.3451416845556147e-01 9.9999999999999964e+00 1.7949668349261092e+00
v -4.0053768112136401e-01 9.9999999999999964e+00 1.7548702419272675e+00
v -6.5761384385950905e-01 9.9999999999999964e+00 1.6755727475595528e+00
v -8.9999999999999780e-01 9.9999999999999964e+00 1.5588457268119746e+00
v -1.1222816433457186e+00 9.9999999999999964e+00 1.4072966684424388e+00
v -1.3194933692936850e+00 9.9999999999999964e+00 1.2243109279876403e+00
v -1.4872297937687886e+00 9.9999999999999964e+00 1.0139761045145048e+00
v -1.6217439622243526e+00 9.9999999999999964e+00 7.8099073041158984e-01
v -1.7200310504150518e+00 9.9999999999999964e+00 5.3055931393961264e-01
v -1.7798954872052295e+00 9.9999999999999964e+00 2.6827607911709944e-01

vn -3.2469946920468362e-01 0.0000000000000000e+00 -9.4581724170063464e-01
vn -1.2246467991473532e-16 0.0000000000000000e+00 -1.0000000000000000e+00
vn 1.2246467991473532e-16 0.0000000000000000e+00 -1.0000000000000000e+00
vn 3.2469946920468362e-01 0.0000000000000000e+00 -9.4581724170063464e-01
vn 6.1421271268966793e-01 0.0000000000000000e+00 -7.8914050939639346e-01
vn 8.3716647826252866e-01 0.0000000000000000e+00 -5.4694815812242681e-01
vn 9.6940026593933037e-01 0.0000000000000000e+00 -2.4548548714079910e-01
vn 9.6940026593933049e-01 0.0000000000000000e+00 -2.4548548714079893e-01
vn 9.9658449300666985e-01 -0.0000000000000000e+00 8.2579345472332394e-02
vn 9.9658449300666985e-01 -0.0000000000000000e+00 8.2579345472332616e-02
vn 9.1577332665505751e-01 -0.0000000000000000e+00 4.0169542465296926e-01
vn 9.1577332665505728e-01 -0.0000000000000000e+00 4.0169542465296976e-01
vn 7.3572391067313170e-01 -0.0000000000000000e+00 6.7728157162574110e-01
vn 7.3572391067313136e-01 -0.0000000000000000e+00 6.7728157162574132e-01
vn 4.7594739303707351e-01 -0.0000000000000000e+00 8.7947375120648907e-01
vn 1.6459459028073398e-01 -0.0000000000000000e+00 9.8636130340272232e-01
vn -1.6459459028073398e-01 0.0000000000000000e+00 9.8636130340272232e-01
vn -4.7594739303707351e-01 0.0000000000000000e+00 8.7947375120648907e-01
vn -7.3572391067313136e-01 0.0000000000000000e+00 6.7728157162574132e-01
vn -7.3572391067313170e-01 0.0000000000000000e+00 6.7728157162574110e-01
vn -9.1577332665505728e-01 0.0000000000000000e+00 4.0169542465296976e-01
vn -9.1577332665505751e-01 0.0000000000000000e+00 4.0169542465296926e-01
vn -9.9658449300666985e-01 0.0000000000000000e+00 8.2579345472332616e-02
vn -9.9658449300666985e-01 0.0000000000000000e+00 8.2579345472332394e-02
vn -9.6940026593933049e-01 0.0000000000000000e+00 -2.4548548714079893e-01
vn -9.6940026593933037e-01 0.0000000000000000e+00 -2.4548548714079910e-01
vn -8.3716647826252866e-01 0.0000000000000000e+00 -5.4694815812242681e-01
vn -6.1421271268966793e-01 0.0000000000000000e+00 -7.8914050939639346e-01
vn 9.8561591034770835e-01 0.0000000000000000e+00 1.6900082032184954e-01
vn 9.8561591034770846e-01 0.0000000000000000e+00 1.6900082032184915e-01
vn 1.0000000000000000e+00 0.0000000000000000e+00 1.2246467991473532e-16
vn 1.0000000000000000e+00 0.0000000000000000e+00 -1.2246467991473532e-16
vn 9.8561591034770846e-01 0.0000000000000000e+00 -1.6900082032184915e-01
vn 9.8561591034770835e-01 0.0000000000000000e+00 -1.6900082032184954e-01
vn 9.4287744546108421e-01 0.0000000000000000e+00 -3.3313979474205757e-01
vn 8.7301411316118804e-01 0.0000000000000000e+00 -4.8769494381363482e-01
vn 7.7803575431843963e-01 0.0000000000000000e+00 -6.2821999729564215e-01
vn 6.6067472339008126e-01 0.0000000000000000e+00 -7.5067230525272444e-01
vn 5.2430728355723155e-01 0.0000000000000000e+00 -8.5152913773331140e-01
vn 5.2430728355723111e-01 0.0000000000000000e+00 -8.5152913773331163e-01
vn 3.7285647778030850e-01 0.0000000000000000e+00 -9.2788902729650946e-01
vn 2.1067926999572625e-01 0.0000000000000000e+00 -9.7755523894768614e-01
vn 2.1067926999572589e-01 0.0000000000000000e+00 -9.7755523894768626e-01
vn 4.2441203196148330e-02 0.0000000000000000e+00 -9.9909896620468142e-01
vn -1.2701781974687865e-01 -0.0000000000000000e+00 -9.9190043525887694e-01
vn -1.2701781974687909e-01 -0.0000000000000000e+00 -9.9190043525887683e-01
vn -2.9282277127655038e-01 -0.0000000000000000e+00 -9.5616673473925096e-01
vn -2.9282277127655021e-01 -0.0000000000000000e+00 -9.5616673473925096e-01
vn -4.5020374481767345e-01 -0.0000000000000000e+00 -8.9292585814956837e-01
vn -5.9463317630428669e-01 -0.0000000000000000e+00 -8.0399713036694043e-01
vn -5.9463317630428647e-01 -0.0000000000000000e+00 -8.0399713036694076e-01
vn -7.2195609395452454e-01 -0.0000000000000000e+00 -6.9193886897754608e-01
vn -8.2850964924384218e-01 -0.0000000000000000e+00 -5.5997478613759522e-01
vn -9.1122849038813580e-01 -0.0000000000000000e+00 -4.1190124824399266e-01
vn -9.6773294693349876e-01 -0.0000000000000000e+00 -2.5197806138512530e-01
vn -9.6773294693349887e-01 -0.0000000000000000e+00 -2.5197806138512502e-01
vn -9.9639748854252652e-01 -0.0000000000000000e+00 -8.4805924475509373e-02
vn -9.9639748854252652e-01 -0.0000000000000000e+00 -8.4805924475508956e-02
vn -9.9639748854252652e-01 0.0000000000000000e+00 8.4805924475508956e-02
vn -9.9639748854252652e-01 0.0000000000000000e+00 8.4805924475509373e-02
vn -9.6773294693349887e-01 0.0000000000000000e+00 2.5197806138512502e-01
vn -9.6773294693349876e-01 0.0000000000000000e+00 2.5197806138512530e-01
vn -9.1122849038813580e-01 0.0000000000000000e+00 4.1190124824399266e-01
vn -8.2850964924384218e-01 0.0000000000000000e+00 5.5997478613759522e-01
vn -7.2195609395452454e-01 0.0000000000000000e+00 6.9193886897754608e-01
vn -5.9463317630428647e-01 0.0000000000000000e+00 8.0399713036694076e-01
vn -5.9463317630428669e-01 0.0000000000000000e+00 8.0399713036694043e-01
vn -4.5020374481767345e-01 0.0000000000000000e+00 8.9292585814956837e-01
vn -2.9282277127655021e-01 0.0000000000000000e+00 9.5616673473925096e-01
vn -2.9282277127655038e-01 0.0000000000000000e+00 9.5616673473925096e-01
vn -1.2701781974687909e-01 0.0000000000000000e+00 9.9190043525887683e-01
vn -1.2701781974687865e-01 0.0000000000000000e+00 9.9190043525887694e-01
vn 4.2441203196148330e-02 0.0000000000000000e+00 9.9909896620468142e-01
vn 2.1067926999572589e-01 0.0000000000000000e+00 9.7755523894768626e-01
vn 2.1067926999572625e-01 0.0000000000000000e+00 9.7755523894768614e-01
vn 3.7285647778030850e-01 0.0000000000000000e+00 9.2788902729650946e-01
vn 5.2430728355723111e-01 0.0000000000000000e+00 8.5152913773331163e-01
vn 5.2430728355723155e-01 0.0000000000000000e+00 8.5152913773331140e-01
vn 6.6067472339008126e-01 0.0000000000000000e+00 7.5067230525272444e-01
vn 7.7803575431843963e-01 0.0000000000000000e+00 6.2821999729564215e-01
vn 8.7301411316118804e-01 0.0000000000000000e+00 4.8769494381363482e-01
vn 9.4287744546108421e-01 0.0000000000000000e+00 3.3313979474205757e-01
vn -9.8768834059513777e-01 -0.0000000000000000e+00 1.5643446504023101e-01
vn -1.0000000000000000e+00 -0.0000000000000000e+00 1.2246467991473532e-16
vn -1.0000000000000000e+00 -0.0000000000000000e+00 -1.2246467991473532e-16
vn -9.8768834059513777e-01 -0.0000000000000000e+00 -1.5643446504023101e-01
vn -9.5105651629515364e-01 -0.0000000000000000e+00 -3.0901699437494756e-01
vn -8.9100652418836779e-01 -0.0000000000000000e+00 -4.5399049973954680e-01
vn -8.0901699437494734e-01 -0.0000000000000000e+00 -5.8778525229247336e-01
vn -7.0710678118654757e-01 -0.0000000000000000e+00 -7.0710678118654768e-01
vn -5.8778525229247303e-01 -0.0000000000000000e+00 -8.0901699437494756e-01
vn -4.5399049973954680e-01 -0.0000000000000000e+00 -8.9100652418836801e-01
vn -3.0901699437494734e-01 -0.0000000000000000e+00 -9.5105651629515364e-01
vn -1.5643446504023079e-01 -0.0000000000000000e+00 -9.8768834059513777e-01
vn 6.1232339957367660e-17 -0.0000000000000000e+00 -1.0000000000000000e+00
vn 1.5643446504023090e-01 -0.0000000000000000e+00 -9.8768834059513777e-01
vn 3.0901699437494745e-01 -0.0000000000000000e+00 -9.5105651629515364e-01
vn 4.5399049973954680e-01 -0.0000000000000000e+00 -8.9100652418836801e-01
vn 5.8778525229247303e-01 -0.0000000000000000e+00 -8.0901699437494756e-01
vn 7.0710678118654757e-01 -0.0000000000000000e+00 -7.0710678118654757e-01
vn 8.0901699437494756e-01 -0.0000000000000000e+00 -5.8778525229247314e-01
vn 8.9100652418836801e-01 -0.0000000000000000e+00 -4.5399049973954680e-01
vn 9.5105651629515364e-01 -0.0000000000000000e+00 -3.0901699437494740e-01
vn 9.8768834059513777e-01 -0.0000000000000000e+00 -1.5643446504023087e-01
vn 1.0000000000000000e+00 0.0000000000000000e+00 -0.0000000000000000e+00
vn 9.8768834059513777e-01 0.0000000000000000e+00 1.5643446504023087e-01
vn 9.5105651629515364e-01 0.0000000000000000e+00 3.0901699437494740e-01
vn 8.9100652418836801e-01 0.0000000000000000e+00 4.5399049973954680e-01
vn 8.0901699437494756e-01 0.0000000000000000e+00 5.8778525229247314e-01
vn 7.0710678118654757e-01 0.0000000000000000e+00 7.0710678118654757e-01
vn 5.8778525229247303e-01 0.0000000000000000e+00 8.0901699437494756e-01
vn 4.5399049973954680e-01 0.0000000000000000e+00 8.9100652418836801e-01
vn 3.0901699437494745e-01 0.0000000000000000e+00 9.5105651629515364e-01
vn 1.5643446504023090e-01 0.0000000000000000e+00 9.8768834059513777e-01
vn 6.1232339957367660e-17 0.0000000000000000e+00 1.0000000000000000e+00
vn -1.5643446504023079e-01 -0.0000000000000000e+00 9.8768834059513777e-01
vn -3.0901699437494734e-01 -0.0000000000000000e+00 9.5105651629515364e-01
vn -4.5399049973954680e-01 -0.0000000000000000e+00 8.9100652418836801e-01
vn -5.8778525229247303e-01 -0.0000000000000000e+00 8.0901699437494756e-01
vn -7.0710678118654757e-01 -0.0000000000000000e+00 7.0710678118654768e-01
vn -8.0901699437494734e-01 -0.0000000000000000e+00 5.8778525229247336e-01
vn -8.9100652418836779e-01 -0.0000000000000000e+00 4.5399049973954680e-01
vn -9.5105651629515364e-01 -0.0000000000000000e+00 3.0901699437494756e-01
vn -0.0000000000000000e+00 -1.0000000000000000e+00 -0.0000000000000000e+00
vn -9.8883082622512863e-01 -0.0000000000000000e+00 1.4904226617617430e-01
vn -9.8883082622512852e-01 -0.0000000000000000e+00 1.4904226617617475e-01
vn -9.8883082622512852e-01 -0.0000000000000000e+00 -1.4904226617617475e-01
vn -9.8883082622512863e-01 -0.0000000000000000e+00 -1.4904226617617430e-01
vn -9.5557280578614079e-01 -0.0000000000000000e+00 -2.9475517441090421e-01
vn -9.5557280578614090e-01 -0.0000000000000000e+00 -2.9475517441090376e-01
vn -9.0096886790241903e-01 -0.0000000000000000e+00 -4.3388373911755823e-01
vn -8.2623877431599480e-01 -0.0000000000000000e+00 -5.6332005806362218e-01
vn -8.2623877431599502e-01 -0.0000000000000000e+00 -5.6332005806362184e-01
vn -7.3305187182982601e-01 -0.0000000000000000e+00 -6.8017273777091969e-01
vn -7.3305187182982678e-01 -0.0000000000000000e+00 -6.8017273777091913e-01
vn -6.2348980185873348e-01 -0.0000000000000000e+00 -7.8183148246802991e-01
vn -4.9999999999999978e-01 -0.0000000000000000e+00 -8.6602540378443882e-01
vn -5.0000000000000022e-01 -0.0000000000000000e+00 -8.6602540378443860e-01
vn -3.6534102436639493e-01 -0.0000000000000000e+00 -9.3087374864420425e-01
vn -3.6534102436639554e-01 -0.0000000000000000e+00 -9.3087374864420402e-01
vn -2.2252093395631437e-01 -0.0000000000000000e+00 -9.7492791218182362e-01
vn -7.4730093586424046e-02 -0.0000000000000000e+00 -9.9720379718118013e-01
vn -7.4730093586424476e-02 -0.0000000000000000e+00 -9.9720379718118013e-01
vn 7.4730093586424393e-02 -0.0000000000000000e+00 -9.9720379718118013e-01
vn 7.4730093586423713e-02 -0.0000000000000000e+00 -9.9720379718118013e-01
vn 2.2252093395631445e-01 -0.0000000000000000e+00 -9.7492791218182362e-01
vn 3.6534102436639521e-01 -0.0000000000000000e+00 -9.3087374864420414e-01
vn 3.6534102436639476e-01 -0.0000000000000000e+00 -9.3087374864420425e-01
vn 5.0000000000000022e-01 -0.0000000000000000e+00 -8.6602540378443849e-01
vn 4.9999999999999950e-01 -0.0000000000000000e+00 -8.6602540378443893e-01
vn 6.2348980185873359e-01 -0.0000000000000000e+00 -7.8183148246802980e-01
vn 7.3305187182982645e-01 -0.0000000000000000e+00 -6.8017273777091924e-01
vn 7.3305187182982612e-01 -0.0000000000000000e+00 -6.8017273777091958e-01
vn 8.2623877431599502e-01 -0.0000000000000000e+00 -5.6332005806362184e-01
vn 8.2623877431599480e-01 -0.0000000000000000e+00 -5.6332005806362218e-01
vn 9.0096886790241915e-01 -0.0000000000000000e+00 -4.3388373911755801e-01
vn 9.5557280578614079e-01 -0.0000000000000000e+00 -2.9475517441090399e-01
vn 9.5557280578614068e-01 -0.0000000000000000e+00 -2.9475517441090437e-01
vn 9.8883082622512852e-01 -0.0000000000000000e+00 -1.4904226617617411e-01
vn 9.8883082622512863e-01 -0.0000000000000000e+00 -1.4904226617617461e-01
vn 9.8883082622512863e-01 0.0000000000000000e+00 1.4904226617617461e-01
vn 9.8883082622512852e-01 0.0000000000000000e+00 1.4904226617617411e-01
vn 9.5557280578614068e-01 0.0000000000000000e+00 2.9475517441090437e-01
vn 9.5557280578614079e-01 0.0000000000000000e+00 2.9475517441090399e-01
vn 9.0096886790241915e-01 0.0000000000000000e+00 4.3388373911755801e-01
vn 8.2623877431599480e-01 0.0000000000000000e+00 5.6332005806362218e-01
vn 8.2623877431599502e-01 0.0000000000000000e+00 5.6332005806362184e-01
vn 7.3305187182982612e-01 0.0000000000000000e+00 6.8017273777091958e-01
vn 7.3305187182982645e-01 0.0000000000000000e+00 6.8017273777091924e-01
vn 6.2348980185873359e-01 0.0000000000000000e+00 7.8183148246802980e-01
vn 4.9999999999999950e-01 0.0000000000000000e+00 8.6602540378443893e-01
vn 5.0000000000000022e-01 0.0000000000000000e+00 8.6602540378443849e-01
vn 3.6534102436639476e-01 0.0000000000000000e+00 9.3087374864420425e-01
vn 3.6534102436639521e-01 0.0000000000000000e+00 9.3087374864420414e-01
vn 2.2252093395631445e-01 0.0000000000000000e+00 9.7492791218182362e-01
vn 7.4730093586423713e-02 0.0000000000000000e+00 9.9720379718118013e-01
vn 7.4730093586424393e-02 0.0000000000000000e+00 9.9720379718118013e-01
vn -7.4730093586424476e-02 -0.0000000000000000e+00 9.9720379718118013e-01
vn -7.4730093586424046e-02 -0.0000000000000000e+00 9.9720379718118013e-01
vn -2.2252093395631437e-01 -0.0000000000000000e+00 9.7492791218182362e-01
vn -3.6534102436639554e-01 -0.0000000000000000e+00 9.3087374864420402e-01
vn -3.6534102436639493e-01 -0.0000000000000000e+00 9.3087374864420425e-01
vn -5.0000000000000022e-01 -0.0000000000000000e+00 8.6602540378443860e-01
vn -4.9999999999999978e-01 -0.0000000000000000e+00 8.6602540378443882e-01
vn -6.2348980185873348e-01 -0.0000000000000000e+00 7.8183148246802991e-01
vn -7.3305187182982678e-01 -0.0000000000000000e+00 6.8017273777091913e-01
vn -7.3305187182982601e-01 -0.0000000000000000e+00 6.8017273777091969e-01
vn -8.2623877431599502e-01 -0.0000000000000000e+00 5.6332005806362184e-01
vn -8.2623877431599480e-01 -0.0000000000000000e+00 5.6332005806362218e-01
vn -9.0096886790241903e-01 -0.0000000000000000e+00 4.3388373911755823e-01
vn -9.5557280578614090e-01 -0.0000000000000000e+00 2.9475517441090376e-01
vn -9.5557280578614079e-01 -0.0000000000000000e+00 2.9475517441090421e-01
vn 0.0000000000000000e+00 1.0000000000000000e+00 0.0000000000000000e+00

g face 0
f 2//1 38//1 1//2
f 1//2 38//1 20//2
f 1//3 20//3 19//4
f 19//4 20//3 21//4
f 19//4 21//4 18//5
f 18//5 21//4 22//5
f 18//5 22//5 17//6
f 17//6 22//5 23//6
f 17//6 23//6 16//7
f 16//7 23//6 24//8
f 16//7 24//8 15//9
f 15//9 24//8 25//10
f 15//9 25//10 14//11
f 14//11 25//10 26//12
f 14//11 26//12 13//13
f 13//13 26//12 27//14
f 13//13 27//14 12//15
f 12//15 27//14 28//15
f 12//15 28//15 11//16
f 11//16 28//15 29//16
f 11//16 29//16 10//17
f 10//17 29//16 30//17
f 10//17 30//17 9//18
f 9//18 30//17 31//18
f 9//18 31//18 8//19
f 8//19 31//18 32//20
f 8//19 32//20 7//21
f 7//21 32//20 33//22
f 7//21 33//22 6//23
f 6//23 33//22 34//24
f 6//23 34//24 5//25
f 5//25 34//24 35//26
f 5//25 35//26 4//27
f 4//27 35//26 36//27
f 4//27 36//27 3//28
f 3//28 36//27 37//28
f 3//28 37//28 2//1
f 2//1 37//28 38//1

g face 1
f 40//29 112//30 39//31
f 39//31 112//30 76//31
f 39//32 76//32 75//33
f 75//33 76//32 77//34
f 75//33 77//34 74//35
f 74//35 77//34 78//35
f 74//35 78//35 73//36
f 73//36 78//35 79//36
f 73//36 79//36 72//37
f 72//37 79//36 80//37
f 72//37 80//37 71//38
f 71//38 80//37 81//38
f 71//38 81//38 70//39
f 70//39 81//38 82//40
f 70//39 82//40 69//41
f 69//41 82//40 83//41
f 69//41 83//41 68//42
f 68//42 83//41 84//43
f 68//42 84//43 67//44
f 67//44 84//43 85//44
f 67//44 85//44 66//45
f 66//45 85//44 86//46
f 66//45 86//46 65//47
f 65//47 86//46 87//48
f 65//47 87//48 64//49
f 64//49 87//48 88//49
f 64//49 88//49 63//50
f 63//50 88//49 89//51
f 63//50 89//51 62//52
f 62//52 89//51 90//52
f 62//52 90//52 61//53
f 61//53 90//52 91//53
f 61//53 91//53 60//54
f 60//54 91//53 92//54
f 60//54 92//54 59//55
f 59//55 92//54 93//56
f 59//55 93//56 58//57
f 58//57 93//56 94//58
f 58//57 94//58 57//59
f 57//59 94//58 95//60
f 57//59 95//60 56//61
f 56//61 95//60 96//62
f 56//61 96//62 55//63
f 55//63 96//62 97//63
f 55//63 97//63 54//64
f 54//64 97//63 98//64
f 54//64 98//64 53//65
f 53//65 98//64 99//65
f 53//65 99//65 52//66
f 52//66 99//65 100//67
f 52//66 100//67 51//68
f 51//68 100//67 101//68
f 51//68 101//68 50//69
f 50//69 101//68 102//70
f 50//69 102//70 49//71
f 49//71 102//70 103//72
f 49//71 103//72 48//73
f 48//73 103//72 104//73
f 48//73 104//73 47//74
f 47//74 104//73 105//75
f 47//74 105//75 46//76
f 46//76 105//75 106//76
f 46//76 106//76 45//77
f 45//77 106//76 107//78
f 45//77 107//78 44//79
f 44//79 107//78 108//79
f 44//79 108//79 43//80
f 43//80 108//79 109//80
f 43//80 109//80 42//81
f 42//81 109//80 110//81
f 42//81 110//81 41//82
f 41//82 110//81 111//82
f 41//82 111//82 40//29
f 40//29 111//82 112//30

g face 2
f 114//83 192//83 113//84
f 113//84 192//83 153//84
f 113//85 153//85 152//86
f 152//86 153//85 154//86
f 152//86 154//86 151//87
f 151//87 154//86 155//87
f 151//87 155//87 150//88
f 150//88 155//87 156//88
f 150//88 156//88 149//89
f 149//89 156//88 157//89
f 149//89 157//89 148//90
f 148//90 157//89 158//90
f 148//90 158//90 147//91
f 147//91 158//90 159//91
f 147//91 159//91 146//92
f 146//92 159//91 160//92
f 146//92 160//92 145//93
f 145//93 160//92 161//93
f 145//93 161//93 144//94
f 144//94 161//93 162//94
f 144//94 162//94 143//95
f 143//95 162//94 163//95
f 143//95 163//95 142//96
f 142//96 163//95 164//96
f 142//96 164//96 141//97
f 141//97 164//96 165//97
f 141//97 165//97 140//98
f 140//98 165//97 166//98
f 140//98 166//98 139//99
f 139//99 166//98 167//99
f 139//99 167//99 138//100
f 138//100 167//99 168//100
f 138//100 168//100 137//101
f 137//101 168//100 169//101
f 137//101 169//101 136//102
f 136//102 169//101 170//102
f 136//102 170//102 135//103
f 135//103 170//102 171//103
f 135//103 171//103 134//104
f 134//104 171//103 172//104
f 134//104 172//104 133//105
f 133//105 172//104 173//105
f 133//105 173//105 132//106
f 132//106 173//105 174//106
f 132//106 174//106 131//107
f 131//107 174//106 175//107
f 131//107 175//107 130//108
f 130//108 175//107 176//108
f 130//108 176//108 129//109
f 129//109 176//108 177//109
f 129//109 177//109 128//110
f 128//110 177//109 178//110
f 128//110 178//110 127//111
f 127//111 178//110 179//111
f 127//111 179//111 126//112
f 126//112 179//111 180//112
f 126//112 180//112 125//113
f 125//113 180//112 181//113
f 125//113 181//113 124//114
f 124//114 181//113 182//114
f 124//114 182//114 123//115
f 123//115 182//114 183//115
f 123//115 183//115 122//116
f 122//116 183//115 184//116
f 122//116 184//116 121//117
f 121//117 184//116 185//117
f 121//117 185//117 120//118
f 120//118 185//117 186//118
f 120//118 186//118 119//119
f 119//119 186//118 187//119
f 119//119 187//119 118//120
f 118//120 187//119 188//120
f 118//120 188//120 117//121
f 117//121 188//120 189//121
f 117//121 189//121 116//122
f 116//122 189//121 190//122
f 116//122 190//122 115//123
f 115//123 190//122 191//123
f 115//123 191//123 114//83
f 114//83 191//123 192//83

g face 3
f 75//124 114//124 39//124
f 39//124 114//124 113//124
f 39//124 113//124 152//124
f 114//124 75//124 115//124
f 115//124 75//124 74//124
f 115//124 74//124 116//124
f 116//124 74//124 73//124
f 116//124 73//124 117//124
f 117//124 73//124 72//124
f 117//124 72//124 118//124
f 118//124 72//124 71//124
f 118//124 71//124 119//124
f 119//124 71//124 70//124
f 119//124 70//124 120//124
f 120//124 70//124 69//124
f 120//124 69//124 121//124
f 121//124 69//124 68//124
f 121//124 68//124 122//124
f 122//124 68//124 67//124
f 122//124 67//124 123//124
f 123//124 67//124 66//124
f 123//124 66//124 124//124
f 124//124 66//124 65//124
f 124//124 65//124 125//124
f 125//124 65//124 64//124
f 125//124 64//124 126//124
f 126//124 64//124 127//124
f 127//124 64//124 63//124
f 127//124 63//124 128//124
f 128//124 63//124 62//124
f 128//124 62//124 129//124
f 129//124 62//124 61//124
f 129//124 61//124 130//124
f 130//124 61//124 60//124
f 130//124 60//124 131//124
f 131//124 60//124 59//124
f 131//124 59//124 132//124
f 132//124 59//124 58//124
f 132//124 58//124 133//124
f 133//124 58//124 57//124
f 133//124 57//124 134//124
f 134//124 57//124 56//124
f 134//124 56//124 135//124
f 135//124 56//124 55//124
f 135//124 55//124 136//124
f 136//124 55//124 54//124
f 136//124 54//124 137//124
f 137//124 54//124 53//124
f 137//124 53//124 138//124
f 138//124 53//124 52//124
f 138//124 52//124 139//124
f 139//124 52//124 51//124
f 139//124 51//124 140//124
f 140//124 51//124 141//124
f 141//124 51//124 50//124
f 141//124 50//124 142//124
f 142//124 50//124 49//124
f 142//124 49//124 143//124
f 143//124 49//124 48//124
f 143//124 48//124 144//124
f 144//124 48//124 47//124
f 144//124 47//124 145//124
f 145//124 47//124 46//124
f 145//124 46//124 146//124
f 146//124 46//124 45//124
f 146//124 45//124 147//124
f 147//124 45//124 44//124
f 147//124 44//124 148//124
f 148//124 44//124 43//124
f 148//124 43//124 149//124
f 149//124 43//124 42//124
f 149//124 42//124 150//124
f 150//124 42//124 41//124
f 150//124 41//124 151//124
f 151//124 41//124 40//124
f 151//124 40//124 152//124
f 152//124 40//124 39//124

g face 4
f 234//124 193//124 153//124
f 153//124 193//124 194//124
f 153//124 194//124 154//124
f 154//124 194//124 195//124
f 154//124 195//124 155//124
f 155//124 195//124 196//124
f 155//124 196//124 156//124
f 156//124 196//124 197//124
f 156//124 197//124 157//124
f 157//124 197//124 198//124
f 157//124 198//124 158//124
f 158//124 198//124 199//124
f 158//124 199//124 159//124
f 159//124 199//124 200//124
f 159//124 200//124 160//124
f 160//124 200//124 201//124
f 160//124 201//124 161//124
f 161//124 201//124 202//124
f 161//124 202//124 162//124
f 162//124 202//124 203//124
f 162//124 203//124 163//124
f 163//124 203//124 204//124
f 163//124 204//124 164//124
f 164//124 204//124 205//124
f 164//124 205//124 165//124
f 165//124 205//124 206//124
f 165//124 206//124 166//124
f 166//124 206//124 207//124
f 166//124 207//124 167//124
f 167//124 207//124 208//124
f 167//124 208//124 168//124
f 168//124 208//124 209//124
f 168//124 209//124 169//124
f 169//124 209//124 210//124
f 169//124 210//124 170//124
f 170//124 210//124 211//124
f 170//124 211//124 171//124
f 171//124 211//124 212//124
f 171//124 212//124 172//124
f 172//124 212//124 213//124
f 172//124 213//124 173//124
f 173//124 213//124 214//124
f 173//124 214//124 215//124
f 173//124 215//124 174//124
f 174//124 215//124 216//124
f 174//124 216//124 175//124
f 175//124 216//124 217//124
f 175//124 217//124 176//124
f 176//124 217//124 218//124
f 176//124 218//124 177//124
f 177//124 218//124 219//124
f 177//124 219//124 178//124
f 178//124 219//124 220//124
f 178//124 220//124 179//124
f 179//124 220//124 221//124
f 179//124 221//124 180//124
f 180//124 221//124 222//124
f 180//124 222//124 181//124
f 181//124 222//124 223//124
f 181//124 223//124 182//124
f 182//124 223//124 224//124
f 182//124 224//124 183//124
f 183//124 224//124 225//124
f 183//124 225//124 184//124
f 184//124 225//124 226//124
f 184//124 226//124 185//124
f 185//124 226//124 227//124
f 185//124 227//124 186//124
f 186//124 227//124 228//124
f 186//124 228//124 187//124
f 187//124 228//124 229//124
f 187//124 229//124 188//124
f 188//124 229//124 230//124
f 188//124 230//124 189//124
f 189//124 230//124 231//124
f 189//124 231//124 190//124
f 190//124 231//124 232//124
f 190//124 232//124 191//124
f 191//124 232//124 233//124
f 191//124 233//124 192//124
f 192//124 233//124 234//124
f 192//124 234//124 153//124

g face 5
f 234//125 276//126 193//84
f 193//84 276//126 235//84
f 193//85 235//85 194//127
f 194//127 235//85 236//128
f 194//127 236//128 195//129
f 195//129 236//128 237//130
f 195//129 237//130 196//131
f 196//131 237//130 238//131
f 196//131 238//131 197//132
f 197//132 238//131 239//133
f 197//132 239//133 198//134
f 198//134 239//133 240//135
f 198//134 240//135 199//136
f 199//136 240//135 241//136
f 199//136 241//136 200//137
f 200//137 241//136 242//138
f 200//137 242//138 201//139
f 201//139 242//138 243//140
f 201//139 243//140 202//141
f 202//141 243//140 244//141
f 202//141 244//141 203//142
f 203//142 244//141 245//143
f 203//142 245//143 204//144
f 204//144 245//143 246//145
f 204//144 246//145 205//146
f 205//146 246//145 247//146
f 205//146 247//146 206//147
f 206//147 247//146 248//148
f 206//147 248//148 207//149
f 207//149 248//148 249//150
f 207//149 249//150 208//151
f 208//151 249//150 250//151
f 208//151 250//151 209//152
f 209//152 250//151 251//153
f 209//152 251//153 210//154
f 210//154 251//153 252//155
f 210//154 252//155 211//156
f 211//156 252//155 253//156
f 211//156 253//156 212//157
f 212//157 253//156 254//158
f 212//157 254//158 213//159
f 213//159 254//158 255//160
f 213//159 255//160 214//105
f 214//105 255//160 256//105
f 214//105 256//105 215//161
f 215//161 256//105 257//162
f 215//161 257//162 216//163
f 216//163 257//162 258//164
f 216//163 258//164 217//165
f 217//165 258//164 259//165
f 217//165 259//165 218//166
f 218//166 259//165 260//167
f 218//166 260//167 219//168
f 219//168 260//167 261//169
f 219//168 261//169 220//170
f 220//170 261//169 262//170
f 220//170 262//170 221//171
f 221//171 262//170 263//172
f 221//171 263//172 222//173
f 222//173 263//172 264//174
f 222//173 264//174 223//175
f 223//175 264//174 265//175
f 223//175 265//175 224//176
f 224//176 265//175 266//177
f 224//176 266//177 225//178
f 225//178 266//177 267//179
f 225//178 267//179 226//180
f 226//180 267//179 268//180
f 226//180 268//180 227//181
f 227//181 268//180 269//182
f 227//181 269//182 228//183
f 228//183 269//182 270//184
f 228//183 270//184 229//185
f 229//185 270//184 271//185
f 229//185 271//185 230//186
f 230//186 271//185 272//187
f 230//186 272//187 231//188
f 231//188 272//187 273//189
f 231//188 273//189 232//190
f 232//190 273//189 274//190
f 232//190 274//190 233//191
f 233//191 274//190 275//192
f 233//191 275//192 234//125
f 234//125 275//192 276//126

g face 6
f 19//193 268//193 1//193
f 1//193 268//193 267//193
f 1//193 267//193 266//193
f 18//193 270//193 19//193
f 19//193 270//193 269//193
f 19//193 269//193 268//193
f 17//193 272//193 18//193
f 18//193 272//193 271//193
f 18//193 271//193 270//193
f 16//193 274//193 17//193
f 17//193 274//193 273//193
f 17//193 273//193 272//193
f 15//193 276//193 16//193
f 16//193 276//193 275//193
f 16//193 275//193 274//193
f 14//193 237//193 15//193
f 15//193 237//193 236//193
f 15//193 236//193 235//193
f 13//193 239//193 14//193
f 14//193 239//193 238//193
f 14//193 238//193 237//193
f 12//193 241//193 13//193
f 13//193 241//193 240//193
f 13//193 240//193 239//193
f 11//193 243//193 12//193
f 12//193 243//193 242//193
f 12//193 242//193 241//193
f 10//193 245//193 11//193
f 11//193 245//193 244//193
f 11//193 244//193 243//193
f 9//193 248//193 10//193
f 10//193 248//193 247//193
f 10//193 247//193 246//193
f 8//193 250//193 9//193
f 9//193 250//193 249//193
f 9//193 249//193 248//193
f 7//193 252//193 8//193
f 8//193 252//193 251//193
f 8//193 251//193 250//193
f 6//193 254//193 7//193
f 7//193 254//193 253//193
f 7//193 253//193 252//193
f 5//193 257//193 6//193
f 6//193 257//193 256//193
f 6//193 256//193 255//193
f 4//193 259//193 5//193
f 5//193 259//193 258//193
f 5//193 258//193 257//193
f 3//193 261//193 4//193
f 4//193 261//193 260//193
f 4//193 260//193 259//193
f 2//193 263//193 3//193
f 3//193 263//193 262//193
f 3//193 262//193 261//193
f 1//193 265//193 2//193
f 2//193 265//193 264//193
f 2//193 264//193 263//193
f 235//193 276//193 15//193
f 266//193 265//193 1//193
f 255//193 254//193 6//193
f 246//193 245//193 10//193

g face 7
f 38//124 86//124 20//124
f 20//124 86//124 85//124
f 20//124 85//124 84//124
f 37//124 88//124 38//124
f 38//124 88//124 87//124
f 38//124 87//124 86//124
f 36//124 90//124 37//124
f 37//124 90//124 89//124
f 37//124 89//124 88//124
f 35//124 92//124 36//124
f 36//124 92//124 91//124
f 36//124 91//124 90//124
f 34//124 94//124 35//124
f 35//124 94//124 93//124
f 35//124 93//124 92//124
f 33//124 96//124 34//124
f 34//124 96//124 95//124
f 34//124 95//124 94//124
f 32//124 98//124 33//124
f 33//124 98//124 97//124
f 33//124 97//124 96//124
f 31//124 100//124 32//124
f 32//124 100//124 99//124
f 32//124 99//124 98//124
f 30//124 102//124 31//124
f 31//124 102//124 101//124
f 31//124 101//124 100//124
f 29//124 104//124 30//124
f 30//124 104//124 103//124
f 30//124 103//124 102//124
f 28//124 106//124 29//124
f 29//124 106//124 105//124
f 29//124 105//124 104//124
f 27//124 108//124 28//124
f 28//124 108//124 107//124
f 28//124 107//124 106//124
f 26//124 110//124 27//124
f 27//124 110//124 109//124
f 27//124 109//124 108//124
f 25//124 112//124 26//124
f 26//124 112//124 111//124
f 26//124 111//124 110//124
f 112//124 25//124 76//124
f 76//124 25//124 24//124
f 76//124 24//124 77//124
f 77//124 24//124 78//124
f 78//124 24//124 23//124
f 78//124 23//124 79//124
f 79//124 23//124 80//124
f 80//124 23//124 22//124
f 80//124 22//124 81//124
f 81//124 22//124 82//124
f 82//124 22//124 21//124
f 82//124 21//124 83//124
f 83//124 21//124 84//124
f 84//124 21//124 20//124

g halfedge 0 edge 0
l 1 19 18 17 16 15 14 13 12 11 10 9 8 7 6 5 4 3 2 1

g halfedge 1 edge 0
l 1 2 3 4 5 6 7 8 9 10 11 12 13 14 15 16 17 18 19 1

g halfedge 2 edge 1
l 20 38 37 36 35 34 33 32 31 30 29 28 27 26 25 24 23 22 21 20

g halfedge 3 edge 1
l 20 21 22 23 24 25 26 27 28 29 30 31 32 33 34 35 36 37 38 20

g halfedge 4 edge 2
l 39 40 41 42 43 44 45 46 47 48 49 50 51 52 53 54 55 56 57 58 59 60 61 62 63 64 65 66 67 68 69 70 71 72 73 74 75 39

g halfedge 5 edge 2
l 39 75 74 73 72 71 70 69 68 67 66 65 64 63 62 61 60 59 58 57 56 55 54 53 52 51 50 49 48 47 46 45 44 43 42 41 40 39

g halfedge 6 edge 3
l 76 112 111 110 109 108 107 106 105 104 103 102 101 100 99 98 97 96 95 94 93 92 91 90 89 88 87 86 85 84 83 82 81 80 79 78 77 76

g halfedge 7 edge 3
l 76 77 78 79 80 81 82 83 84 85 86 87 88 89 90 91 92 93 94 95 96 97 98 99 100 101 102 103 104 105 106 107 108 109 110 111 112 76

g halfedge 8 edge 4
l 113 114 115 116 117 118 119 120 121 122 123 124 125 126 127 128 129 130 131 132 133 134 135 136 137 138 139 140 141 142 143 144 145 146 147 148 149 150 151 152 113

g halfedge 9 edge 4
l 113 152 151 150 149 148 147 146 145 144 143 142 141 140 139 138 137 136 135 134 133 132 131 130 129 128 127 126 125 124 123 122 121 120 119 118 117 116 115 114 113

g halfedge 10 edge 5
l 153 192 191 190 189 188 187 186 185 184 183 182 181 180 179 178 177 176 175 174 173 172 171 170 169 168 167 166 165 164 163 162 161 160 159 158 157 156 155 154 153

g halfedge 11 edge 5
l 153 154 155 156 157 158 159 160 161 162 163 164 165 166 167 168 169 170 171 172 173 174 175 176 177 178 179 180 181 182 183 184 185 186 187 188 189 190 191 192 153

g halfedge 12 edge 6
l 193 234 233 232 231 230 229 228 227 226 225 224 223 222 221 220 219 218 217 216 215 214 213 212 211 210 209 208 207 206 205 204 203 202 201 200 199 198 197 196 195 194 193

g halfedge 13 edge 6
l 193 194 195 196 197 198 199 200 201 202 203 204 205 206 207 208 209 210 211 212 213 214 215 216 217 218 219 220 221 222 223 224 225 226 227 228 229 230 231 232 233 234 193

g halfedge 14 edge 7
l 235 276 275 274 273 272 271 270 269 268 267 266 265 264 263 262 261 260 259 258 257 256 255 254 253 252 251 250 249 248 247 246 245 244 243 242 241 240 239 238 237 236 235

g halfedge 15 edge 7
l 235 236 237 238 239 240 241 242 243 244 245 246 247 248 249 250 251 252 253 254 255 256 257 258 259 260 261 262 263 264 265 266 267 268 269 270 271 272 273 274 275 276 235

g vertex 0
p 1

g vertex 1
p 20

g vertex 2
p 39

g vertex 3
p 76

g vertex 4
p 113

g vertex 5
p 153

g vertex 6
p 193

g vertex 7
p 235

# End of file
