# WaveFront *.obj file
# Vertices: 313
# Triangles : 622

v -4.6330307034154750e+00 6.9149846048380752e+00 -2.5908000000000002e+00
v -4.6330307034154750e+00 6.9641816636714768e+00 -2.5853886997861881e+00
v -4.6330307034154750e+00 6.9877805297376820e+00 -2.5747303893398130e+00
v -4.6330307034154750e+00 7.0090931486039771e+00 -2.5579085437659015e+00
v -4.6330307034154750e+00 7.0259149941778878e+00 -2.5365959248996082e+00
v -4.6330307034154750e+00 7.0365733046242642e+00 -2.5129970588334016e+00
v -4.6330307034154750e+00 7.0419846048380750e+00 -2.4638000000000000e+00
v -4.5424592971092057e+00 7.0309872450611390e+00 -2.4638000000000000e+00
v -4.4571515717237906e+00 6.9986342923067895e+00 -2.4638000000000000e+00
v -4.3820653021776632e+00 6.9468059825909103e+00 -2.4638000000000000e+00
v -4.3215642295293621e+00 6.8785143888859483e+00 -2.4638000000000000e+00
v -4.2791644562087532e+00 6.7977283703881932e+00 -2.4638000000000000e+00
v -4.2573301029243256e+00 6.7091429168475054e+00 -2.4638000000000000e+00
v -4.2573301029243256e+00 6.6179062928286463e+00 -2.4638000000000000e+00
v -4.2791644562087532e+00 6.5293208392879576e+00 -2.4638000000000000e+00
v -4.3215642295293621e+00 6.4485348207902025e+00 -2.4638000000000000e+00
v -4.3820653021776632e+00 6.3802432270852405e+00 -2.4638000000000000e+00
v -4.4571515717237906e+00 6.3284149173693613e+00 -2.4638000000000000e+00
v -4.5424592971092057e+00 6.2960619646150118e+00 -2.4638000000000000e+00
v -4.6330307034154750e+00 6.2850646048380758e+00 -2.4638000000000000e+00
v -4.7236021097217442e+00 6.2960619646150118e+00 -2.4638000000000000e+00
v -4.8089098351071593e+00 6.3284149173693613e+00 -2.4638000000000000e+00
v -4.8839961046532867e+00 6.3802432270852405e+00 -2.4638000000000000e+00
v -4.9444971773015878e+00 6.4485348207902025e+00 -2.4638000000000000e+00
v -4.9868969506221967e+00 6.5293208392879576e+00 -2.4638000000000000e+00
v -5.0087313039066244e+00 6.6179062928286454e+00 -2.4638000000000000e+00
v -5.0087313039066244e+00 6.7091429168475045e+00 -2.4638000000000000e+00
v -4.9868969506221967e+00 6.7977283703881932e+00 -2.4638000000000000e+00
v -4.9444971773015878e+00 6.8785143888859483e+00 -2.4638000000000000e+00
v -4.8839961046532867e+00 6.9468059825909103e+00 -2.4638000000000000e+00
v -4.8089098351071602e+00 6.9986342923067895e+00 -2.4638000000000000e+00
v -4.7236021097217442e+00 7.0309872450611390e+00 -2.4638000000000000e+00
v -4.7038751721588206e+00 6.9047987079831765e+00 -2.5908000000000002e+00
v -4.7689802433728596e+00 6.8750662182038038e+00 -2.5908000000000002e+00
v -4.8230714913825965e+00 6.8281958849959565e+00 -2.5908000000000002e+00
v -4.8617667649673217e+00 6.7679848640075297e+00 -2.5908000000000002e+00
v -4.8819312031908542e+00 6.6993110940702758e+00 -2.5908000000000002e+00
v -4.8819312031908542e+00 6.6277381156058750e+00 -2.5908000000000002e+00
v -4.8617667649673217e+00 6.5590643456686211e+00 -2.5908000000000002e+00
v -4.8230714913825965e+00 6.4988533246801943e+00 -2.5908000000000002e+00
v -4.7689802433728596e+00 6.4519829914723470e+00 -2.5908000000000002e+00
v -4.7038751721588206e+00 6.4222505016929743e+00 -2.5908000000000002e+00
v -4.6330307034154750e+00 6.4120646048380756e+00 -2.5908000000000002e+00
v -4.5621862346721294e+00 6.4222505016929743e+00 -2.5908000000000002e+00
v -4.4970811634580903e+00 6.4519829914723470e+00 -2.5908000000000002e+00
v -4.4429899154483534e+00 6.4988533246801943e+00 -2.5908000000000002e+00
v -4.4042946418636282e+00 6.5590643456686211e+00 -2.5908000000000002e+00
v -4.3841302036400958e+00 6.6277381156058750e+00 -2.5908000000000002e+00
v -4.3841302036400958e+00 6.6993110940702758e+00 -2.5908000000000002e+00
v -4.4042946418636282e+00 6.7679848640075297e+00 -2.5908000000000002e+00
v -4.4429899154483534e+00 6.8281958849959565e+00 -2.5908000000000002e+00
v -4.4970811634580903e+00 6.8750662182038038e+00 -2.5908000000000002e+00
v -4.5621862346721294e+00 6.9047987079831765e+00 -2.5908000000000002e+00
v -4.5020785252544897e+00 6.9205367778362659e+00 -2.5883799744228302e+00
v -4.5163145823782465e+00 7.0227402853355141e+00 -2.4885483294180091e+00
v -4.4290418170730144e+00 6.8675135279748289e+00 -2.5883799744228297e+00
v -4.3996899763630353e+00 6.8330635297561164e+00 -2.5883799744228297e+00
v -4.3659549390245722e+00 6.9306004174025064e+00 -2.4885483294180086e+00
v -4.3586924297844014e+00 6.7526579253204844e+00 -2.5883799744228306e+00
v -4.2738488604953941e+00 6.7802238531518979e+00 -2.4885483294180091e+00
v -4.3586836674830129e+00 6.5743805129176947e+00 -2.5883799744228297e+00
v -4.2738373883099090e+00 6.5468112538440471e+00 -2.4885483294180086e+00
v -4.3997303622967117e+00 6.4940314183591248e+00 -2.5883799744228297e+00
v -4.4291300913889389e+00 6.4596141318154352e+00 -2.5883799744228302e+00
v -4.3660705136072089e+00 6.3965515043604118e+00 -2.4885483294180086e+00
v -4.5020667025292909e+00 6.4065050617431627e+00 -2.5883799744228302e+00
v -4.5163539029235880e+00 6.3045082116089954e+00 -2.4885483294180091e+00
v -4.7639060282529027e+00 6.4066372208736047e+00 -2.5883799744228302e+00
v -4.7497111877577156e+00 6.3043717572537528e+00 -2.4885483294180091e+00
v -4.8369716167577099e+00 6.4596043709680826e+00 -2.5883799744228302e+00
v -4.8664180671048198e+00 6.4939583432788464e+00 -2.5883799744228302e+00
v -4.9000436583762426e+00 6.3965387248123955e+00 -2.4885483294180091e+00
v -4.9071528217521472e+00 6.5744445523184272e+00 -2.5883799744228302e+00
v -4.9919295415037013e+00 6.5468950984701353e+00 -2.4885483294180091e+00
v -4.9072739098665519e+00 6.7526089242378093e+00 -2.5883799744228306e+00
v -4.9920880780852439e+00 6.7801596976881058e+00 -2.4885483294180091e+00
v -4.8662372933099416e+00 6.8329831731567685e+00 -2.5883799744228311e+00
v -4.8369670800455271e+00 6.8674800431425762e+00 -2.5883799744228311e+00
v -4.9000377186120927e+00 6.9305565768417292e+00 -2.4885483294180091e+00
v -4.7639605776651317e+00 6.9204631238548009e+00 -2.5883799744228311e+00
v -4.7496816390991068e+00 7.0225513416218961e+00 -2.4885483294180091e+00
v -4.5739462330986962e+00 7.0365689820902269e+00 -2.4885483294180091e+00
v -4.5746742033222585e+00 7.0319727625210104e+00 -2.5129969303939279e+00
v -4.5763414832340992e+00 7.0214459795426221e+00 -2.5365957185428969e+00
v -4.5789729270821757e+00 7.0048317097299826e+00 -2.5579082942426075e+00
v -4.5823068678204004e+00 6.9837820525219492e+00 -2.5747301594172947e+00
v -4.5879027775344383e+00 6.9484508962428029e+00 -2.5883799744228306e+00
v -4.5177526228695841e+00 7.0183144469072998e+00 -2.5129969303939284e+00
v -4.5210461861857993e+00 7.0081778901284943e+00 -2.5365957185428969e+00
v -4.5262443696852559e+00 6.9921795087008576e+00 -2.5579082942426079e+00
v -4.5328302733693757e+00 6.9719101589952848e+00 -2.5747301594172947e+00
v -4.5438844957732556e+00 6.9378887231568447e+00 -2.5883799744228306e+00
v -4.4110434068142661e+00 6.9690592384999261e+00 -2.4885483294180086e+00
v -4.4137784764707808e+00 6.9652947955865807e+00 -2.5129969303939275e+00
v -4.4200426429822635e+00 6.9566730417764013e+00 -2.5365957185428964e+00
v -4.4299292866783251e+00 6.9430654520355892e+00 -2.5579082942426070e+00
v -4.4424552937244917e+00 6.9258251457987345e+00 -2.5747301594172938e+00
v -4.4634797839633595e+00 6.8968878596503318e+00 -2.5883799744228297e+00
v -4.4858403190542475e+00 6.9524065544197944e+00 -2.5747301594172942e+00
v -4.4761658925654029e+00 6.9713939848644593e+00 -2.5579082942426075e+00
v -4.4685299709739166e+00 6.9863805610988701e+00 -2.5365957185428969e+00
v -4.4636918594986588e+00 6.9958760392262738e+00 -2.5129969303939279e+00
v -4.4615794361033743e+00 7.0000219689445782e+00 -2.4885483294180091e+00
v -4.3692455364162264e+00 6.9273098194173146e+00 -2.5129969303939275e+00
v -4.3767820355084774e+00 6.9197733189656745e+00 -2.5365957185428960e+00
v -4.3886767833738443e+00 6.9078785689548026e+00 -2.5579082942426070e+00
v -4.4037469831458189e+00 6.8928083664645561e+00 -2.5747301594172938e+00
v -4.2965913755373588e+00 6.8349461484688918e+00 -2.4885483294180086e+00
v -4.3007365902006596e+00 6.8328340912942869e+00 -2.5129969303939279e+00
v -4.3102304306280512e+00 6.8279968185791375e+00 -2.5365957185428964e+00
v -4.3252144221041426e+00 6.8203622207906376e+00 -2.5579082942426075e+00
v -4.3441985777568854e+00 6.8106894715105657e+00 -2.5747301594172942e+00
v -4.3760628577100391e+00 6.7944540804500031e+00 -2.5883799744228302e+00
v -4.3707554836802638e+00 6.8540865326602924e+00 -2.5747301594172938e+00
v -4.3535168417391805e+00 6.8666116535796320e+00 -2.5579082942426070e+00
v -4.3399105656092605e+00 6.8764975978652441e+00 -2.5365957185428960e+00
v -4.3312896441014903e+00 6.8827613212310403e+00 -2.5129969303939275e+00
v -4.3275255645892550e+00 6.8854961974006299e+00 -2.4885483294180086e+00
v -4.2782742820162785e+00 6.7787860205466623e+00 -2.5129969303939279e+00
v -4.2884098839466667e+00 6.7754929333547587e+00 -2.5365957185428964e+00
v -4.3044067583508117e+00 6.7702955013154407e+00 -2.5579082942426075e+00
v -4.3246741987140984e+00 6.7637105497031529e+00 -2.5747301594172947e+00
v -4.2554318106034730e+00 6.6635319601512455e+00 -2.4885483294180086e+00
v -4.2600841456238827e+00 6.6635318695276196e+00 -2.5129969303939279e+00
v -4.2707394505685405e+00 6.6635316619711187e+00 -2.5365957185428964e+00
v -4.2875565647476730e+00 6.6635313343876863e+00 -2.5579082942426075e+00
v -4.3088632181661550e+00 6.6635309193517545e+00 -2.5747301594172942e+00
v -4.3446257341194672e+00 6.6635302227276130e+00 -2.5883799744228302e+00
v -4.3481083752771710e+00 6.7086538362815338e+00 -2.5883799744228306e+00
v -4.3127777104471807e+00 6.7142499078866695e+00 -2.5747301594172947e+00
v -4.2917283460355735e+00 6.7175839450766510e+00 -2.5579082942426079e+00
v -4.2751143073240288e+00 6.7202154650530703e+00 -2.5365957185428964e+00
v -4.2645876707710375e+00 6.7218827931997449e+00 -2.5129969303939279e+00
v -4.2599915151342946e+00 6.7226107844836713e+00 -2.4885483294180091e+00
v -4.2600899703475985e+00 6.6044503999314372e+00 -2.4885483294180086e+00
v -4.2646849129335473e+00 6.6051782436765381e+00 -2.5129969303939275e+00
v -4.2752087712201252e+00 6.6068452339130710e+00 -2.5365957185428964e+00
v -4.2918184250338465e+00 6.6094762205707864e+00 -2.5579082942426070e+00
v -4.3128622339442408e+00 6.6128095820659558e+00 -2.5747301594172942e+00
v -4.3481835740484343e+00 6.6184045195396060e+00 -2.5883799744228302e+00
v -4.2965228574612864e+00 6.4920727517471457e+00 -2.4885483294180086e+00
v -4.3006689163247440e+00 6.4941851823597165e+00 -2.5129969303939275e+00
v -4.3101646902350161e+00 6.4990233103648221e+00 -2.5365957185428960e+00
v -4.3251517332992622e+00 6.5066592580451283e+00 -2.5579082942426070e+00
v -4.3441397551998353e+00 6.5163337175875293e+00 -2.5747301594172938e+00
v -4.3760105245226235e+00 6.5325719792670780e+00 -2.5883799744228297e+00
v -4.3246643498782298e+00 6.5633265528655222e+00 -2.5747301594172938e+00
v -4.3043962621775584e+00 6.5567408054857559e+00 -2.5579082942426070e+00
v -4.2883988768369221e+00 6.5515427453556567e+00 -2.5365957185428960e+00
v -4.2782629511777390e+00 6.5482492602061289e+00 -2.5129969303939275e+00
v -4.3275784405292166e+00 6.4416128960701791e+00 -2.4885483294180086e+00
v -4.3313418685655289e+00 6.4443470344211988e+00 -2.5129969303939275e+00
v -4.3399612979893041e+00 6.4506090679512846e+00 -2.5365957185428964e+00
v -4.3535652191845662e+00 6.4604923451935568e+00 -2.5579082942426070e+00
v -4.3708008775116918e+00 6.4730140870689352e+00 -2.5747301594172938e+00
v -4.4110530996767725e+00 6.3579856289796668e+00 -2.4885483294180091e+00
v -4.4137880499090931e+00 6.3617501253925148e+00 -2.5129969303939279e+00
v -4.4200519429017504e+00 6.3703720017333190e+00 -2.5365957185428964e+00
v -4.4299381549069929e+00 6.3839797848624507e+00 -2.5579082942426070e+00
v -4.4424636150170684e+00 6.4012203361150579e+00 -2.5747301594172942e+00
v -4.4634871872417241e+00 6.4301580335143331e+00 -2.5883799744228302e+00
v -4.4038462035686674e+00 6.4343290212213979e+00 -2.5747301594172942e+00
v -4.3887825252871506e+00 6.4192646144336178e+00 -2.5579082942426070e+00
v -4.3768929247646096e+00 6.4073744389088576e+00 -2.5365957185428964e+00
v -4.3693596870230813e+00 6.3998408368465585e+00 -2.5129969303939279e+00
v -4.4615639570082797e+00 6.3270175913126696e+00 -2.4885483294180091e+00
v -4.4636765711189970e+00 6.3311636399199074e+00 -2.5129969303939279e+00
v -4.4685151193923538e+00 6.3406593903402202e+00 -2.5365957185428964e+00
v -4.4761517303759826e+00 6.3556463963306031e+00 -2.5579082942426075e+00
v -4.4858270302988350e+00 6.3746343712599804e+00 -2.5747301594172942e+00
v -4.5739923313952602e+00 6.2907576540638770e+00 -2.4885483294180091e+00
v -4.5747197336491494e+00 6.2953504555062301e+00 -2.5129969303939279e+00
v -4.5763857127324750e+00 6.3058694099030772e+00 -2.5365957185428964e+00
v -4.5790151035016589e+00 6.3224713239783332e+00 -2.5579082942426075e+00
v -4.5823464430658678e+00 6.3435053269301509e+00 -2.5747301594172942e+00
v -4.5879379867950014e+00 6.3788102080558664e+00 -2.5883799744228302e+00
v -4.5439145282783491e+00 6.3893126994616800e+00 -2.5883799744228302e+00
v -4.5328640299363165e+00 6.3553101381863009e+00 -2.5747301594172942e+00
v -4.5262803449801856e+00 6.3350520336004541e+00 -2.5579082942426075e+00
v -4.5210839126990532e+00 6.3190625278258175e+00 -2.5365957185428964e+00
v -4.5177914589528321e+00 6.3089315946509377e+00 -2.5129969303939279e+00
v -4.6921179610754544e+00 6.2904880632592830e+00 -2.4885483294180091e+00
v -4.6913899565094868e+00 6.2950841862864326e+00 -2.5129969303939279e+00
v -4.6897225979427759e+00 6.3056107481532377e+00 -2.5365957185428964e+00
v -4.6870910299548516e+00 6.3222246689886532e+00 -2.5579082942426075e+00
v -4.6837569319360934e+00 6.3432738840556215e+00 -2.5747301594172942e+00
v -4.6781607582318587e+00 6.3786042982155537e+00 -2.5883799744228302e+00
v -4.6330493171044393e+00 6.3751799526117976e+00 -2.5883799744228302e+00
v -4.6330516252212171e+00 6.3394249160378244e+00 -2.5747301594172942e+00
v -4.6330530003550114e+00 6.3181227186968609e+00 -2.5579082942426075e+00
v -4.6330540857334404e+00 6.3013091216521637e+00 -2.5365957185428964e+00
v -4.6330547734280128e+00 6.2906560451599933e+00 -2.5129969303939279e+00
v -4.6330550736902349e+00 6.2860046831298089e+00 -2.4885483294180091e+00
v -4.7482735863403454e+00 6.3087968215277845e+00 -2.5129969303939279e+00
v -4.7449810286410941e+00 6.3189316052509410e+00 -2.5365957185428964e+00
v -4.7397844322923950e+00 6.3349271882904103e+00 -2.5579082942426075e+00
v -4.7332005394688030e+00 6.3551929925430466e+00 -2.5747301594172942e+00
v -4.7221496922280854e+00 6.3892084774555160e+00 -2.5883799744228302e+00
v -4.8548985625811616e+00 6.3581712923457907e+00 -2.4885483294180091e+00
v -4.8521649644940137e+00 6.3619335012302676e+00 -2.5129969303939279e+00
v -4.8459041683374799e+00 6.3705501384143348e+00 -2.5365957185428964e+00
v -4.8360228440240460e+00 6.3841496526579196e+00 -2.5579082942426075e+00
v -4.8235035764363161e+00 6.4013797275424302e+00 -2.5747301594172942e+00
v -4.8024903981564471e+00 6.4302998407029284e+00 -2.5883799744228302e+00
v -4.7801347045611449e+00 6.3747829182599594e+00 -2.5747301594172942e+00
v -4.7898034533144997e+00 6.3558047069237533e+00 -2.5579082942426075e+00
v -4.7974348935299531e+00 6.3408254072332717e+00 -2.5365957185428964e+00
v -4.8022701656103122e+00 6.3313345395160541e+00 -2.5129969303939279e+00
v -4.8043813492647924e+00 6.3271906228018704e+00 -2.4885483294180091e+00
v -4.8967538348494415e+00 6.3998282147532910e+00 -2.5129969303939279e+00
v -4.8892191081501828e+00 6.4073621774363003e+00 -2.5365957185428964e+00
v -4.8773271576271222e+00 6.4192529221235288e+00 -2.5579082942426075e+00
v -4.8622605019830161e+00 6.4343180500188284e+00 -2.5747301594172942e+00
v -4.9694103442678976e+00 6.4920992623186358e+00 -2.4885483294180091e+00
v -4.9652658649988082e+00 6.4942113662987335e+00 -2.5129969303939279e+00
v -4.9557737088545863e+00 6.4990487462131297e+00 -2.5365957185428964e+00
v -4.9407923756583383e+00 6.5066835131926544e+00 -2.5579082942426075e+00
v -4.9218115879465367e+00 6.5163564768314144e+00 -2.5747301594172942e+00
v -4.8899529609713150e+00 6.5325922276859751e+00 -2.5883799744228302e+00
v -4.8953583427790406e+00 6.4729319506027503e+00 -2.5747301594172942e+00
v -4.9126004301207402e+00 6.4604048101192522e+00 -2.5579082942426075e+00
v -4.9262094256686018e+00 6.4505172718132000e+00 -2.5365957185428964e+00
v -4.9348320701965722e+00 6.4442525384778158e+00 -2.5129969303939279e+00
v -4.9385969020164380e+00 6.4415172213338101e+00 -2.4885483294180091e+00
v -4.9875076068396780e+00 6.5483320717961107e+00 -2.5129969303939279e+00
v -4.9773799909040628e+00 6.5516231909692646e+00 -2.5365957185428969e+00
v -4.9613957206803345e+00 6.5568175169129637e+00 -2.5579082942426075e+00
v -4.9411442493412787e+00 6.5633985332185052e+00 -2.5747301594172942e+00
v -5.0106268671019221e+00 6.6635466075599741e+00 -2.4885483294180091e+00
v -5.0059745657066275e+00 6.6635463364679879e+00 -2.5129969303939284e+00
v -4.9953193377740206e+00 6.6635457155823978e+00 -2.5365957185428969e+00
v -4.9785023451418970e+00 6.6635447356476210e+00 -2.5579082942426079e+00
v -4.9571958457189202e+00 6.6635434941069853e+00 -2.5747301594172947e+00
v -4.9214335882419924e+00 6.6635414102219208e+00 -2.5883799744228306e+00
v -4.9177391854936081e+00 6.6184495391668570e+00 -2.5883799744228306e+00
v -4.9530433331898713e+00 6.6128601841737771e+00 -2.5747301594172947e+00
v -4.9740768991778230e+00 6.6095301486185081e+00 -2.5579082942426075e+00
v -4.9906784683621641e+00 6.6069017870896651e+00 -2.5365957185428969e+00
v -5.0011972042365089e+00 6.6052364601318825e+00 -2.5129969303939279e+00
v -5.0057899102672438e+00 6.6045093426100125e+00 -2.4885483294180091e+00
v -5.0060773396419007e+00 6.7226076359310287e+00 -2.4885483294180091e+00
v -5.0014810922402262e+00 6.7218796834399113e+00 -2.5129969303939279e+00
v -4.9909542455167895e+00 6.7202124441409241e+00 -2.5365957185428969e+00
v -4.9743398750962582e+00 6.7175810643915286e+00 -2.5579082942426079e+00
v -4.9532900904217989e+00 6.7142472048639332e+00 -2.5747301594172947e+00
v -4.9179587201944521e+00 6.7086514314592591e+00 -2.5883799744228306e+00
v -4.9692796896730353e+00 6.8348397558080043e+00 -2.4885483294180091e+00
v -4.9651368201781230e+00 6.8327290094802047e+00 -2.5129969303939284e+00
v -4.9556483509211704e+00 6.8278947390149742e+00 -2.5365957185428969e+00
v -4.9406728366859465e+00 6.8202648796342391e+00 -2.5579082942426079e+00
v -4.9216994213796861e+00 6.8105981337392283e+00 -2.5747301594172947e+00
v -4.8898531687443327e+00 6.7943728191627457e+00 -2.5883799744228311e+00
v -4.9412803525077251e+00 6.7636554724352953e+00 -2.5747301594172947e+00
v -4.9615407695403775e+00 6.7702368039674967e+00 -2.5579082942426079e+00
v -4.9775321005046012e+00 6.7754313787162355e+00 -2.5365957185428969e+00
v -4.9876641901175844e+00 6.7787226555319862e+00 -2.5129969303939284e+00
v -4.9383602209878070e+00 6.8853909892170888e+00 -2.4885483294180091e+00
v -4.9345983052766984e+00 6.8826574093005499e+00 -2.5129969303939284e+00
v -4.9259823395515072e+00 6.8763966547604038e+00 -2.5365957185428969e+00
v -4.9123838850617849e+00 6.8665153961295138e+00 -2.5579082942426079e+00
v -4.8951551528457058e+00 6.8539962117591058e+00 -2.5747301594172947e+00
v -4.8550334332219416e+00 6.9690799182026808e+00 -2.4885483294180091e+00
v -4.8522981734153952e+00 6.9653152204980557e+00 -2.5129969303939279e+00
v -4.8460335714007590e+00 6.9566928831360091e+00 -2.5365957185428969e+00
v -4.8361462403563493e+00 6.9430843723836979e+00 -2.5579082942426079e+00
v -4.8236193624655863e+00 6.9258428992597896e+00 -2.5747301594172947e+00
v -4.8025934105427472e+00 6.8969036545299023e+00 -2.5883799744228311e+00
v -4.8622554027138074e+00 6.8927707294783005e+00 -2.5747301594172947e+00
v -4.8773217231967179e+00 6.9078384581910770e+00 -2.5579082942426079e+00
v -4.8892134091806234e+00 6.9197312556757877e+00 -2.5365957185428969e+00
v -4.8967479682681665e+00 6.9272665190090112e+00 -2.5129969303939284e+00
v -4.8044527689692167e+00 6.9999255362724213e+00 -2.4885483294180091e+00
v -4.8023407053640845e+00 6.9957807946855084e+00 -2.5129969303939279e+00
v -4.7975034179210096e+00 6.9862880377512750e+00 -2.5365957185428969e+00
v -4.7898687968876388e+00 6.9713057563368155e+00 -2.5579082942426075e+00
v -4.7801960181571870e+00 6.9523237672680738e+00 -2.5747301594172947e+00
v -4.6920857238387974e+00 7.0364781942013801e+00 -2.4885483294180091e+00
v -4.6913581164626192e+00 7.0318830932150895e+00 -2.5129969303939279e+00
v -4.6896916675849827e+00 7.0213588721420974e+00 -2.5365957185428964e+00
v -4.6870615353462091e+00 7.0047486457478101e+00 -2.5579082942426075e+00
v -4.6837292563678181e+00 6.9837041113992955e+00 -2.5747301594172942e+00
v -4.6781361358629239e+00 6.9483815536711120e+00 -2.5883799744228302e+00
v -4.7221271233590008e+00 6.9377444104828356e+00 -2.5883799744228306e+00
v -4.7331751720364936e+00 6.9717479513997036e+00 -2.5747301594172942e+00
v -4.7397573975272618e+00 6.9920066396380456e+00 -2.5579082942426075e+00
v -4.7449526778679560e+00 7.0079966060833678e+00 -2.5365957185428969e+00
v -4.7482444017459908e+00 7.0181278311386857e+00 -2.5129969303939279e+00
v -4.6330307034154750e+00 7.0419846048380750e+00 0.0000000000000000e+00
v -4.5424592971092057e+00 7.0309872450611390e+00 0.0000000000000000e+00
v -4.4571515717237897e+00 6.9986342923067895e+00 0.0000000000000000e+00
v -4.3820653021776632e+00 6.9468059825909103e+00 0.0000000000000000e+00
v -4.3215642295293613e+00 6.8785143888859483e+00 0.0000000000000000e+00
v -4.2791644562087532e+00 6.7977283703881932e+00 0.0000000000000000e+00
v -4.2573301029243256e+00 6.7091429168475045e+00 0.0000000000000000e+00
v -4.2573301029243256e+00 6.6179062928286454e+00 0.0000000000000000e+00
v -4.2791644562087532e+00 6.5293208392879576e+00 0.0000000000000000e+00
v -4.3215642295293621e+00 6.4485348207902025e+00 0.0000000000000000e+00
v -4.3820653021776641e+00 6.3802432270852405e+00 0.0000000000000000e+00
v -4.4571515717237906e+00 6.3284149173693613e+00 0.0000000000000000e+00
v -4.5424592971092057e+00 6.2960619646150118e+00 0.0000000000000000e+00
v -4.6330307034154750e+00 6.2850646048380758e+00 0.0000000000000000e+00
v -4.7236021097217442e+00 6.2960619646150118e+00 0.0000000000000000e+00
v -4.8089098351071593e+00 6.3284149173693613e+00 0.0000000000000000e+00
v -4.8839961046532867e+00 6.3802432270852405e+00 0.0000000000000000e+00
v -4.9444971773015878e+00 6.4485348207902025e+00 0.0000000000000000e+00
v -4.9868969506221967e+00 6.5293208392879576e+00 0.0000000000000000e+00
v -5.0087313039066244e+00 6.6179062928286463e+00 0.0000000000000000e+00
v -5.0087313039066244e+00 6.7091429168475054e+00 0.0000000000000000e+00
v -4.9868969506221967e+00 6.7977283703881932e+00 0.0000000000000000e+00
v -4.9444971773015878e+00 6.8785143888859483e+00 0.0000000000000000e+00
v -4.8839961046532867e+00 6.9468059825909103e+00 0.0000000000000000e+00
v -4.8089098351071593e+00 6.9986342923067895e+00 0.0000000000000000e+00
v -4.7236021097217442e+00 7.0309872450611390e+00 0.0000000000000000e+00

vn -1.5487268573300823e-15 4.5474736376956456e-16 -1.0000000000000000e+00
vn 0.0000000000000000e+00 -0.0000000000000000e+00 -1.0000000000000000e+00
vn 2.8687675910125963e-02 1.8115784528481307e-01 -9.8303552954236573e-01
vn -0.0000000000000000e+00 2.9495705841439163e-01 -9.5551050946158056e-01
vn 8.1397262504401033e-02 5.1401001369275290e-01 -8.5391345666897978e-01
vn -0.0000000000000000e+00 5.2040360048059198e-01 -8.5392042521937395e-01
vn -0.0000000000000000e+00 7.0710678118655568e-01 -7.0710678118653947e-01
vn 1.1059890221348533e-01 6.9841345386868847e-01 -7.0709725659514555e-01
vn -0.0000000000000000e+00 8.5392042521937384e-01 -5.2040360048059209e-01
vn 1.3356123364426695e-01 8.4341671233224480e-01 -5.2039374153239870e-01
vn -0.0000000000000000e+00 9.5551050946158089e-01 -2.9495705841439024e-01
vn 1.4945016430990221e-01 9.4375263540537047e-01 -2.9495018486714208e-01
vn 1.5579210727378881e-01 9.8380093788395673e-01 -8.8682207515596370e-02
vn 2.9549004562847325e-01 9.0867319597320451e-01 -2.9495534552593727e-01
vn 3.0802968274036940e-01 9.4723433297047877e-01 -8.8683893649520548e-02
vn 4.3430936828874078e-01 8.5111389498318490e-01 -2.9492458422991280e-01
vn 4.5273595402844102e-01 8.8722438281804938e-01 -8.8673843173106476e-02
vn 5.6107796120238607e-01 7.7343967538875802e-01 -2.9492810986324508e-01
vn 5.8488360541710249e-01 8.0625548888889154e-01 -8.8674995070908619e-02
vn 6.7574466828064883e-01 6.7555182192799701e-01 -2.9495572410116000e-01
vn 7.0442115400944472e-01 7.0422012386202371e-01 -8.8684017341108506e-02
vn 7.7383941383603860e-01 5.6053903758979351e-01 -2.9490430470205775e-01
vn 8.0666654559597473e-01 5.8431772928544023e-01 -8.8667217498712661e-02
vn 8.5121305977249351e-01 4.3414654413323345e-01 -2.9487811904229150e-01
vn 8.8731564195314561e-01 4.5256004367729058e-01 -8.8658662363503879e-02
vn 9.0830552552277000e-01 2.9664511575770486e-01 -2.9492837707128522e-01
vn 9.4684355656994401e-01 3.0923131980450314e-01 -8.8675082373485759e-02
vn 9.4392127902082767e-01 1.4838853400546592e-01 -2.9494654089748762e-01
vn 9.8397568430520377e-01 1.5468526087528994e-01 -8.8681016931750387e-02
vn 9.5553303852161564e-01 -1.1382102401107017e-03 -2.9488186918001208e-01
vn 9.9606125142342683e-01 -1.1864865686933381e-03 -8.8659887561507403e-02
vn 9.4391349008800995e-01 -1.4857830561658855e-01 -2.9487592361869053e-01
vn 9.8394715003906197e-01 -1.5487987183597235e-01 -8.8657945104094263e-02
vn 9.0916573092235275e-01 -2.9398721097224872e-01 -2.9493930477503755e-01
vn 9.4774330228505022e-01 -3.0646162814973926e-01 -8.8678652705365554e-02
vn 8.5057392239043028e-01 -4.3536157035431017e-01 -2.9493101838902519e-01
vn 8.8666317687415397e-01 -4.5383365619112165e-01 -8.8675945349522556e-02
vn 7.7229589162450152e-01 -5.6269288199225331e-01 -2.9484873466774186e-01
vn 8.0504440342364147e-01 -5.8655336692433546e-01 -8.8649062409024787e-02
vn 6.7648917708043665e-01 -6.7485446173035768e-01 -2.9484546592352923e-01
vn 7.0517441437052331e-01 -7.0347038202424217e-01 -8.8647994516831724e-02
vn 5.6313644833869902e-01 -7.7194295801961310e-01 -2.9492610958747956e-01
vn 5.8702908587100389e-01 -8.0469479524483389e-01 -8.8674341538736351e-02
vn 4.3200255266463805e-01 -8.5228342790174405e-01 -2.9493516747802240e-01
vn 4.5033266675081385e-01 -8.8844629863210522e-01 -8.8677300951330057e-02
vn 2.9276839153107997e-01 -9.0960071248355612e-01 -2.9481046923355958e-01
vn 3.0517954162178412e-01 -9.4816085521688487e-01 -8.8636561361004576e-02
vn 1.4967554538277977e-01 -9.4377956836307508e-01 -2.9474965217074517e-01
vn 1.5601786223808059e-01 -9.8377106496200173e-01 -8.8616693721827677e-02
vn 2.8132883995957239e-03 -9.5554726580487681e-01 -2.9482453802423708e-01
vn 2.9325625189878697e-03 -9.9605930811194898e-01 -8.8641157486901587e-02
vn -1.4792975681192885e-01 -9.4399388918252014e-01 -2.9494461214882928e-01
vn -1.5420692850901063e-01 -9.8405081789719540e-01 -8.8680386758729204e-02
vn -2.9780280285846311e-01 -9.0793459361709095e-01 -2.9490382215734545e-01
vn -3.1043588617799228e-01 -9.4645005841377250e-01 -8.8667059844405344e-02
vn -4.3544743367321809e-01 -8.5057963810124770e-01 -2.9478774017071840e-01
vn -4.5390405873090967e-01 -8.8663181856701456e-01 -8.8629136135672887e-02
vn -5.6065803492474198e-01 -7.7380312720005295e-01 -2.9477328272715891e-01
vn -5.8441928355063799e-01 -8.0659767815188965e-01 -8.8624413194895488e-02
vn -6.7364649393188902e-01 -6.7767814877931731e-01 -2.9487747943902215e-01
vn -7.0221779616689228e-01 -7.0642044519330094e-01 -8.8658453400741799e-02
vn -7.7334854516954510e-01 -5.6118955393391812e-01 -2.9495476303934803e-01
vn -8.0616680584023159e-01 -5.8500451444778467e-01 -8.8683703334208802e-02
vn -8.5294308439971767e-01 -4.3076405305216831e-01 -2.9483966044744497e-01
vn -8.8910899800619247e-01 -4.4902901798640327e-01 -8.8646097886996067e-02
vn -9.0922543917601029e-01 -2.9402136437351956e-01 -2.9472111910605464e-01
vn -9.4774480756461399e-01 -3.0647759003597680e-01 -8.8607372944087284e-02
vn -9.4347476788607754e-01 -1.5160197253050020e-01 -2.9474091044029371e-01
vn -9.8345082475009749e-01 -1.5802551376431145e-01 -8.8613838072157072e-02
vn -9.5552912143076174e-01 -3.2835920268246771e-03 -2.9487847686997742e-01
vn -9.9605617556951476e-01 -3.4228596941891167e-03 -8.8658779268305662e-02
vn -9.4358032242052203e-01 1.5053179144940776e-01 -2.9495144499360498e-01
vn -9.8362167699267333e-01 1.5691969154925939e-01 -8.8682619234022333e-02
vn -9.0775582497142915e-01 2.9842174147579398e-01 -2.9482846952930841e-01
vn -9.4624276095157167e-01 3.1107419507984913e-01 -8.8642441878429665e-02
vn -8.5099876602531677e-01 4.3467191877966938e-01 -2.9472262086203799e-01
vn -8.8705175040674100e-01 4.5308700999302232e-01 -8.8607863510636820e-02
vn -7.7448400620950864e-01 5.5972500365609623e-01 -2.9475828132192100e-01
vn -8.0730385737185462e-01 5.8344413944786544e-01 -8.8619512616939622e-02
vn -6.7779972208885386e-01 6.7351537491115343e-01 -2.9489756949585244e-01
vn -7.0655134482602899e-01 7.0208525969578373e-01 -8.8665017015922429e-02
vn -5.6058011097232696e-01 7.7379364486692259e-01 -2.9494632451654046e-01
vn -5.8436775977983202e-01 8.0662879387292097e-01 -8.8680946234336033e-02
vn -4.3201417152345617e-01 8.5230586584869850e-01 -2.9485329681521683e-01
vn -4.5033394689291567e-01 8.8844831912369016e-01 -8.8650552858617102e-02
vn -2.9567749749039163e-01 9.0865846706387587e-01 -2.9481283505123501e-01
vn -3.0821218566767233e-01 9.4717932387903092e-01 -8.8637334244764041e-02
vn -1.5173763675075796e-01 9.4340881749145733e-01 -2.9488216743754642e-01
vn -1.5817348799011402e-01 9.8342287687241536e-01 -8.8659985004644642e-02
vn -0.0000000000000000e+00 1.0000000000000000e+00 -0.0000000000000000e+00
vn -2.4091518795864877e-01 9.7054617211694205e-01 -0.0000000000000000e+00
vn -4.6276346281448560e-01 8.8648179760441004e-01 -0.0000000000000000e+00
vn 2.3910753276138308e-01 9.7099309357830355e-01 0.0000000000000000e+00
vn 4.6517499730164752e-01 8.8521874239388543e-01 0.0000000000000000e+00
vn 6.6259146489143672e-01 7.4898100820582902e-01 0.0000000000000000e+00
vn 8.2369715234724439e-01 5.6702998264204729e-01 0.0000000000000000e+00
vn 9.3449040454064647e-01 3.5598831978234741e-01 0.0000000000000000e+00
vn 9.9289460681056008e-01 1.1899705780607890e-01 0.0000000000000000e+00
vn 9.9276512529999061e-01 -1.2007250304750805e-01 -0.0000000000000000e+00
vn 9.3524141880263911e-01 -3.5401057689852516e-01 -0.0000000000000000e+00
vn 8.2204545879355706e-01 -5.6942186792999994e-01 -0.0000000000000000e+00
vn 6.6455481189547061e-01 -7.4723952116210757e-01 -0.0000000000000000e+00
vn 4.6312615408226887e-01 -8.8629237016064100e-01 -0.0000000000000000e+00
vn 2.3774330015719464e-01 -9.7132802040833044e-01 -0.0000000000000000e+00
vn 2.9441518043231293e-03 -9.9999566597568468e-01 -0.0000000000000000e+00
vn -2.4065080717597681e-01 -9.7061176018300477e-01 -0.0000000000000000e+00
vn -4.6623061855063058e-01 -8.8466321858993124e-01 -0.0000000000000000e+00
vn -6.6104877500697934e-01 -7.5034293297249877e-01 -0.0000000000000000e+00
vn -8.2383748195366036e-01 -5.6682607855342393e-01 -0.0000000000000000e+00
vn -9.3586597648512904e-01 -3.5235617499560823e-01 -0.0000000000000000e+00
vn -9.9235819544404824e-01 -1.2339048559363031e-01 -0.0000000000000000e+00
vn -9.9275944543767747e-01 1.2011945510313916e-01 -0.0000000000000000e+00
vn -9.3393200820003219e-01 3.5745070157918973e-01 -0.0000000000000000e+00
vn -8.2415519003095594e-01 5.6636403729848428e-01 -0.0000000000000000e+00
vn -6.6454134100916129e-01 7.4725150122950279e-01 -0.0000000000000000e+00
vn -1.3561180693113689e-01 8.4314858959436989e-01 -5.2029788937290256e-01
vn -2.6426704561585218e-01 8.1212973798455357e-01 -5.2020017039848176e-01
vn -3.8610972223301926e-01 7.6174256034224996e-01 -5.2025720000820208e-01
vn -5.0098284476112387e-01 6.9152888922711619e-01 -5.2038830177028605e-01
vn -6.0576057984398768e-01 6.0193158944160219e-01 -5.2031959557504881e-01
vn -6.9223468466389615e-01 5.0028284418769742e-01 -5.2012327111920720e-01
vn -7.6064217085627683e-01 3.8851970779590334e-01 -5.2007299926956074e-01
vn -8.1131432947388504e-01 2.6671691706685763e-01 -5.2022220727367208e-01
vn -8.4326199363155185e-01 1.3452775089345481e-01 -5.2039551721367583e-01
vn -8.5398296620935110e-01 -2.9346375699062241e-03 -5.2029268813487228e-01
vn -8.4328881429399383e-01 -1.3550362130650415e-01 -5.2009878321281755e-01
vn -8.1268733642646929e-01 -2.6280329296740756e-01 -5.2007088210890806e-01
vn -7.6231916421476242e-01 -3.8499602013609141e-01 -5.2023798049573067e-01
vn -6.9112712874581228e-01 -5.0152460687368650e-01 -5.2040019274762339e-01
vn -6.0205702764638602e-01 -6.0566023222891407e-01 -5.2029128241593359e-01
vn -5.0111165923180723e-01 -6.9161903484006970e-01 -5.2014441805025224e-01
vn -3.8919558765497531e-01 -7.6023376531506237e-01 -5.2016479756398459e-01
vn -2.6615004817429694e-01 -8.1143237575620453e-01 -5.2032840728857099e-01
vn -1.3220297253501731e-01 -8.4363552603879155e-01 -5.2038588879614800e-01
vn 2.5144066855949314e-03 -8.5403061907428801e-01 -5.2021666586395299e-01
vn 1.3378096018610763e-01 -8.4355621712782658e-01 -5.2011110662691495e-01
vn 2.6166740263469579e-01 -8.1297319914049815e-01 -5.2019683570517405e-01
vn 3.8607776433160107e-01 -7.6167994469378852e-01 -5.2037257973492423e-01
vn 5.0327435295271095e-01 -6.8988447446410139e-01 -5.2035981546754806e-01
vn 6.0461082382774145e-01 -6.0314980031395782e-01 -5.2024616297630921e-01
vn 6.9023634003390866e-01 -5.0290449507959512e-01 -5.2025077003819198e-01
vn 7.6015432392323246e-01 -3.8908079763927972e-01 -5.2036673291938573e-01
vn 8.1251298029236485e-01 -2.6273364341676952e-01 -5.2037840988396977e-01
vn 8.4360322326317594e-01 -1.3278879774612290e-01 -5.2028908973100640e-01
vn 8.5398448986362563e-01 -1.0172478104599296e-03 -5.2029746903022234e-01
vn 8.4356952466582225e-01 1.3261280138392251e-01 -5.2038860668176334e-01
vn 8.1175027740413608e-01 2.6511096568338827e-01 -5.2036301079989311e-01
vn 7.6075298479181930e-01 3.8800894264320357e-01 -5.2029218383446929e-01
vn 6.9158962730788687e-01 5.0096050571596629e-01 -5.2032908732161154e-01
vn 6.0389997355811398e-01 6.0372763049315215e-01 -5.2040154699581087e-01
vn 5.0143400091848112e-01 6.9122114521867573e-01 -5.2036263425179474e-01
vn 3.8814215368162691e-01 7.6064023562001948e-01 -5.2035766592922383e-01
vn 2.6407382141631508e-01 8.1206391494122354e-01 -5.2040101353947954e-01
vn -1.1230343428589681e-01 6.9823184549734518e-01 -7.0700794096032926e-01
vn -2.1885887994725436e-01 6.7258406894035372e-01 -7.0691686984812496e-01
vn -3.1975470495684477e-01 6.3083303426457316e-01 -7.0697002166889156e-01
vn -4.1485342101159955e-01 5.7264061718722237e-01 -7.0709218820632547e-01
vn -5.0163848748846274e-01 4.9846764901205176e-01 -7.0702816829224369e-01
vn -5.7331682269200779e-01 4.1434007430048264e-01 -7.0684519072213503e-01
vn -6.2999182208893489e-01 3.2178631163226479e-01 -7.0679832607835646e-01
vn -6.7189982822145522e-01 2.2088485837195435e-01 -7.0693740895356538e-01
vn -6.9828458611616717e-01 1.1139913284745663e-01 -7.0709891103961398e-01
vn -7.0720627753794407e-01 -2.4302523514620564e-03 -7.0700309397090522e-01
vn -6.9843193815784010e-01 -1.1222733570318096e-01 -7.0682236303193502e-01
vn -6.7309840287819056e-01 -2.1766363131154520e-01 -7.0679635231592741e-01
vn -6.3131787292336106e-01 -3.1883609900669402e-01 -7.0695210962109511e-01
vn -5.7230381771303918e-01 -4.1529906040833148e-01 -7.0710326732029571e-01
vn -4.9858005099058456e-01 -5.0156396421141425e-01 -7.0700178398555491e-01
vn -4.1502120903332307e-01 -5.7279962008827856e-01 -7.0686490313159744e-01
vn -3.2232823294661062e-01 -6.2961866468431515e-01 -7.0688389946769581e-01
vn -2.2040126342315333e-01 -6.7195449343672820e-01 -7.0703637942588760e-01
vn -1.0947467747238324e-01 -6.9859796150106968e-01 -7.0708993995026381e-01
vn 2.0823434421075901e-03 -7.0727820967673505e-01 -7.0693224425135781e-01
vn 1.1079976213786086e-01 -6.9864820881576117e-01 -7.0683385107726826e-01
vn 2.1670636172820240e-01 -6.7328395663493801e-01 -7.0691376173089759e-01
vn 3.1970596157338788e-01 -6.3073722868002380e-01 -7.0707753923560512e-01
vn 4.1675814086113033e-01 -5.7128874002772279e-01 -7.0706564585157949e-01
vn 5.0070856288210208e-01 -4.9949861599545847e-01 -7.0695973554026514e-01
vn 5.7161775926825786e-01 -4.1647928967230563e-01 -7.0696402918620116e-01
vn 6.2947610475426585e-01 -3.2219387198722826e-01 -7.0707209137207083e-01
vn 6.7282903344850353e-01 -2.1756553758796185e-01 -7.0708297151240596e-01
vn 6.9861205119316439e-01 -1.0996621612000758e-01 -7.0699974062224902e-01
vn 7.0720549747225647e-01 -8.4240785680726304e-04 -7.0700754924825315e-01
vn 6.9854216044299244e-01 1.0981386841566217e-01 -7.0709247230275640e-01
vn 6.7220370286073161e-01 2.1953620191082504e-01 -7.0706862319784114e-01
vn 6.3000021269544648e-01 3.2132074573437275e-01 -7.0700262401521452e-01
vn 5.7271139372399871e-01 4.1484975786305039e-01 -7.0703701310446498e-01
vn 5.0007294364894772e-01 4.9993023110120527e-01 -7.0710452909125954e-01
vn 4.1523345072027090e-01 5.7239465376147369e-01 -7.0706827233883085e-01
vn 3.2141835045511308e-01 6.2988193244093693e-01 -7.0706364294537516e-01
vn 2.1867233241316278e-01 6.7244798971877340e-01 -7.0710403206329375e-01
vn -8.2656529009197066e-02 5.1390610767587108e-01 -8.5385502909193445e-01
vn -1.6109198631741317e-01 4.9505829353217939e-01 -8.5379544268479035e-01
vn -2.3534866813913158e-01 4.6431127401979699e-01 -8.5383022037361145e-01
vn -3.0531988181256781e-01 4.2144660428337616e-01 -8.5391014135444676e-01
vn -3.6920645221329040e-01 3.6687271177348268e-01 -8.5386826208733546e-01
vn -4.2201183239457163e-01 3.0499090043967714e-01 -8.5374853672962214e-01
vn -4.6374372612561976e-01 2.3687034964638121e-01 -8.5371786553727891e-01
vn -4.9454807111002552e-01 1.6258105160470082e-01 -8.5380888202247152e-01
vn -5.1391461999879362e-01 8.1986118788498624e-02 -8.5391453886058977e-01
vn -5.2051302103723929e-01 -1.7886973483098576e-03 -8.5385185804826980e-01
vn -5.1411521813605909e-01 -8.2610456400448479e-02 -8.5373359719190034e-01
vn -4.9547557572489542e-01 -1.6022473471531395e-01 -8.5371657372074650e-01
vn -4.6467352436997361e-01 -2.3467527243569750e-01 -8.5381850076981747e-01
vn -4.2119570491445607e-01 -3.0564566421729922e-01 -8.5391738833846231e-01
vn -3.6696171566922492e-01 -3.6915791648541474e-01 -8.5385100101203049e-01
vn -3.0548837237303650e-01 -4.2162573822247978e-01 -8.5376143694431528e-01
vn -2.3725610317859774e-01 -4.6344333385234571e-01 -8.5377386807768374e-01
vn -1.6221469733394717e-01 -4.9455657867873282e-01 -8.5387363377401593e-01
vn -8.0570251096301559e-02 -5.1414824389599934e-01 -8.5390867072359611e-01
vn 1.5327022526783619e-03 -5.2058987164184378e-01 -8.5380550265721133e-01
vn 8.1559013255208770e-02 -5.1427058528009018e-01 -8.5374111560385224e-01
vn 1.5950793771243485e-01 -4.9557444719783650e-01 -8.5379340890597477e-01
vn 2.3529639231458285e-01 -4.6420840473705693e-01 -8.5390055904374396e-01
vn 3.0672697666910859e-01 -4.2045889654785151e-01 -8.5389277904031446e-01
vn 3.6853837420864149e-01 -3.6764781252957401e-01 -8.5382349035258487e-01
vn 4.2072876115501473e-01 -3.0654193777124467e-01 -8.5382629962095746e-01
vn 4.6328188193101677e-01 -2.3712827577331616e-01 -8.5389699537077035e-01
vn 4.9518528202821321e-01 -1.6012277522854867e-01 -8.5390411248321485e-01
vn 5.1418867630961917e-01 -8.0936741656481126e-02 -8.5384966417103758e-01
vn 5.2051094368914330e-01 -6.2002135176431159e-04 -8.5385477282343547e-01
vn 5.1410633199315880e-01 8.0819753323629034e-02 -8.5391032718737370e-01
vn 4.9472965575428807e-01 1.6157463747183018e-01 -8.5389472667483446e-01
vn 4.6368849411342156e-01 2.3649632129409778e-01 -8.5385155058779771e-01
vn 4.2151376897534543e-01 3.0532810576427044e-01 -8.5387404832012637e-01
vn 3.6803599280123822e-01 3.6793096141559511e-01 -8.5391821366838327e-01
vn 3.0560431009096028e-01 4.2127211321510755e-01 -8.5389449716057186e-01
vn 2.3655880284587599e-01 4.6358310177839135e-01 -8.5389146883058364e-01
vn 1.6093515137913045e-01 4.9489808713209238e-01 -8.5391788856047057e-01
vn -2.9133237956715716e-02 1.8113207875770682e-01 -9.8302717383146088e-01
vn -5.6782181243006914e-02 1.7449961597600502e-01 -9.8301865084926698e-01
vn -8.2953437607124453e-02 1.6365597733877160e-01 -9.8302362548946520e-01
vn -1.0760739773463586e-01 1.4853527422388402e-01 -9.8303505546039172e-01
vn -1.3012926587207188e-01 1.2930672355638836e-01 -9.8302906640989374e-01
vn -1.4875913978687086e-01 1.0750926990551309e-01 -9.8301194052475971e-01
vn -1.6347477237881311e-01 8.3499407776873993e-02 -9.8300755220730962e-01
vn -1.7431736829424113e-01 5.7306261424957268e-02 -9.8302057329054127e-01
vn -1.8112402367075081e-01 2.8895180526589598e-02 -9.8303568429210808e-01
vn -1.8346135754841481e-01 -6.3044886583424439e-04 -9.8302672029844662e-01
vn -1.8122835368393669e-01 -2.9120626043345192e-02 -9.8300980308430974e-01
vn -1.7466083039132679e-01 -5.6481058977861778e-02 -9.8300736737002714e-01
vn -1.6378562867405003e-01 -8.2717079872904817e-02 -9.8302194916346897e-01
vn -1.4844574353029483e-01 -1.0772141632062106e-01 -9.8303609175534212e-01
vn -1.2934038339805864e-01 -1.3011446266424942e-01 -9.8302659772156564e-01
vn -1.0768320379898869e-01 -1.4862107497980162e-01 -9.8301378611463719e-01
vn -8.3630585809728708e-02 -1.6335949625923749e-01 -9.8301556452532823e-01
vn -5.7173332298117968e-02 -1.7430879000322197e-01 -9.8302983464467730e-01
vn -2.8396343142735835e-02 -1.8120745264222826e-01 -9.8303484516218176e-01
vn 5.4024586238531817e-04 -1.8349716891385467e-01 -9.8302008989389855e-01
vn 2.8749765007995261e-02 -1.8128172334628512e-01 -9.8301087877631643e-01
vn 5.6223948379546494e-02 -1.7468191575334430e-01 -9.8301835991875330e-01
vn 8.2929028929071794e-02 -1.6360791530576896e-01 -9.8303368518590517e-01
vn 1.0810524139657360e-01 -1.4818980385176911e-01 -9.8303257261240473e-01
vn 1.2989976236685868e-01 -1.2958586357481611e-01 -9.8302266286113815e-01
vn 1.4829502825550928e-01 -1.0804739185998968e-01 -9.8302306468716782e-01
vn 1.6328196380179913e-01 -8.3574972497988217e-02 -9.8303317556885550e-01
vn 1.7452492370532791e-01 -5.6434260355615391e-02 -9.8303419333396747e-01
vn 1.8123267055543180e-01 -2.8527236231140451e-02 -9.8302640652037376e-01
vn 1.8346007688913504e-01 -2.1853366629296533e-04 -9.8302713717926893e-01
vn 1.8119237329818899e-01 2.8484229823252473e-02 -9.8303508203417944e-01
vn 1.7436601960223094e-01 5.6946508213023807e-02 -9.8303285113490391e-01
vn 1.6343289024134630e-01 8.3356127683186773e-02 -9.8302667632421070e-01
vn 1.4856444533941277e-01 1.0761427981266579e-01 -9.8302989393069518e-01
vn 1.2971008420672009e-01 1.2967306709387449e-01 -9.8303620977334971e-01
vn 1.0770937025436289e-01 1.4847615862032820e-01 -9.8303281831318312e-01
vn 8.3374736480879036e-02 1.6338905372691281e-01 -9.8303238524423397e-01
vn 5.6719775798907732e-02 1.7442123926867864e-01 -9.8303616328459653e-01
vn 7.3561691394519167e-15 2.1597968977217388e-15 -1.0000000000000000e+00
vn 3.4359301214325807e-15 2.2082689204951917e-15 -1.0000000000000000e+00
vn -1.8985140857773512e-15 -2.1906723651374536e-15 -1.0000000000000000e+00
vn -2.4385005485275501e-15 -5.3403386430037021e-15 -1.0000000000000000e+00
vn -9.1563496889707990e-16 -6.8572530668919829e-15 -1.0000000000000000e+00
vn 5.1578129473251515e-16 -3.0996670750188678e-15 -1.0000000000000000e+00
vn 1.1409727090274905e-15 -2.4978506125225291e-15 -1.0000000000000000e+00
vn 7.2155477153039084e-16 4.6371043146376801e-16 -1.0000000000000000e+00
vn 2.6247153141597655e-15 3.1353560253221227e-15 -1.0000000000000000e+00
vn 4.6416101079319515e-16 8.4891863302871129e-16 -1.0000000000000000e+00
vn -1.2205192674641659e-15 -8.4880931359464789e-15 -1.0000000000000000e+00
vn 5.0428556256807354e-16 -3.5071414816128322e-15 -1.0000000000000000e+00
vn -3.5569838829648475e-15 7.7890161313925663e-15 -1.0000000000000000e+00
vn -2.7432500436483690e-15 3.1658118911955413e-15 -1.0000000000000000e+00
vn 9.1289407019411022e-15 -5.8668567914578739e-15 -1.0000000000000000e+00
vn 2.3931566428755813e-01 9.7094181742605201e-01 0.0000000000000000e+00
vn -2.3931566428755813e-01 9.7094181742605201e-01 -0.0000000000000000e+00
vn -4.6472317204376762e-01 8.8545602565321035e-01 -0.0000000000000000e+00
vn -4.6472317204376956e-01 8.8545602565320936e-01 -0.0000000000000000e+00
vn -6.6312265824079575e-01 7.4851074817110053e-01 -0.0000000000000000e+00
vn -8.2298386589365646e-01 5.6806474673115570e-01 -0.0000000000000000e+00
vn -9.3501624268541506e-01 3.5460488704253540e-01 -0.0000000000000000e+00
vn -9.9270887409805386e-01 1.2053668025532431e-01 -0.0000000000000000e+00
vn -9.9270887409805408e-01 1.2053668025532191e-01 -0.0000000000000000e+00
vn -9.9270887409805408e-01 -1.2053668025532198e-01 -0.0000000000000000e+00
vn -9.9270887409805386e-01 -1.2053668025532421e-01 -0.0000000000000000e+00
vn -9.3501624268541483e-01 -3.5460488704253545e-01 -0.0000000000000000e+00
vn -8.2298386589365646e-01 -5.6806474673115570e-01 -0.0000000000000000e+00
vn -6.6312265824079575e-01 -7.4851074817110053e-01 -0.0000000000000000e+00
vn -4.6472317204376751e-01 -8.8545602565321047e-01 -0.0000000000000000e+00
vn -2.3931566428755813e-01 -9.7094181742605201e-01 -0.0000000000000000e+00
vn -1.2246467991473530e-16 -1.0000000000000000e+00 -0.0000000000000000e+00
vn 1.2246467991473530e-16 -1.0000000000000000e+00 -0.0000000000000000e+00
vn 2.3931566428755813e-01 -9.7094181742605201e-01 -0.0000000000000000e+00
vn 4.6472317204376751e-01 -8.8545602565321047e-01 -0.0000000000000000e+00
vn 6.6312265824079442e-01 -7.4851074817110164e-01 -0.0000000000000000e+00
vn 6.6312265824079575e-01 -7.4851074817110053e-01 -0.0000000000000000e+00
vn 8.2298386589365646e-01 -5.6806474673115570e-01 -0.0000000000000000e+00
vn 9.3501624268541483e-01 -3.5460488704253545e-01 -0.0000000000000000e+00
vn 9.9270887409805386e-01 -1.2053668025532421e-01 -0.0000000000000000e+00
vn 9.9270887409805408e-01 -1.2053668025532198e-01 -0.0000000000000000e+00
vn 9.9270887409805408e-01 1.2053668025532191e-01 0.0000000000000000e+00
vn 9.9270887409805386e-01 1.2053668025532431e-01 0.0000000000000000e+00
vn 9.3501624268541506e-01 3.5460488704253540e-01 0.0000000000000000e+00
vn 8.2298386589365724e-01 5.6806474673115481e-01 0.0000000000000000e+00
vn 8.2298386589365646e-01 5.6806474673115570e-01 0.0000000000000000e+00
vn 6.6312265824079575e-01 7.4851074817110053e-01 0.0000000000000000e+00
vn 4.6472317204376956e-01 8.8545602565320936e-01 0.0000000000000000e+00
vn 4.6472317204376762e-01 8.8545602565321035e-01 0.0000000000000000e+00
vn 0.0000000000000000e+00 0.0000000000000000e+00 1.0000000000000000e+00

g face 0
f 53//1 1//2 87//3
f 87//3 1//2 2//4
f 87//3 2//4 86//5
f 86//5 2//4 3//6
f 86//5 3//6 4//7
f 86//5 4//7 85//8
f 85//8 4//7 5//9
f 85//8 5//9 84//10
f 84//10 5//9 6//11
f 84//10 6//11 83//12
f 83//12 6//11 82//13
f 83//12 82//13 88//14
f 88//14 82//13 55//15
f 88//14 55//15 102//16
f 102//16 55//15 103//17
f 102//16 103//17 94//18
f 94//18 103//17 93//19
f 94//18 93//19 104//20
f 104//20 93//19 58//21
f 104//20 58//21 117//22
f 117//22 58//21 118//23
f 117//22 118//23 109//24
f 109//24 118//23 108//25
f 109//24 108//25 119//26
f 119//26 108//25 60//27
f 119//26 60//27 133//28
f 133//28 60//27 134//29
f 133//28 134//29 124//30
f 124//30 134//29 123//31
f 124//30 123//31 136//32
f 136//32 123//31 135//33
f 136//32 135//33 150//34
f 150//34 135//33 62//35
f 150//34 62//35 142//36
f 142//36 62//35 141//37
f 142//36 141//37 152//38
f 152//38 141//37 151//39
f 152//38 151//39 165//40
f 165//40 151//39 65//41
f 165//40 65//41 157//42
f 157//42 65//41 156//43
f 157//42 156//43 167//44
f 167//44 156//43 166//45
f 167//44 166//45 181//46
f 181//46 166//45 67//47
f 181//46 67//47 172//48
f 172//48 67//47 171//49
f 172//48 171//49 192//50
f 192//50 171//49 193//51
f 192//50 193//51 183//52
f 183//52 193//51 182//53
f 183//52 182//53 194//54
f 194//54 182//53 69//55
f 194//54 69//55 208//56
f 208//56 69//55 209//57
f 208//56 209//57 200//58
f 200//58 209//57 199//59
f 200//58 199//59 210//60
f 210//60 199//59 72//61
f 210//60 72//61 223//62
f 223//62 72//61 224//63
f 223//62 224//63 215//64
f 215//64 224//63 214//65
f 215//64 214//65 225//66
f 225//66 214//65 74//67
f 225//66 74//67 239//68
f 239//68 74//67 240//69
f 239//68 240//69 230//70
f 230//70 240//69 229//71
f 230//70 229//71 242//72
f 242//72 229//71 241//73
f 242//72 241//73 256//74
f 256//74 241//73 76//75
f 256//74 76//75 248//76
f 248//76 76//75 247//77
f 248//76 247//77 258//78
f 258//78 247//77 257//79
f 258//78 257//79 271//80
f 271//80 257//79 79//81
f 271//80 79//81 263//82
f 263//82 79//81 262//83
f 263//82 262//83 273//84
f 273//84 262//83 272//85
f 273//84 272//85 287//86
f 287//86 272//85 81//87
f 287//86 81//87 278//88
f 278//88 81//87 277//89
f 278//88 277//89 6//11
f 6//11 277//89 7//90
f 7//90 277//89 32//91
f 32//91 277//89 81//87
f 32//91 81//87 31//92
f 31//92 81//87 272//85
f 31//92 272//85 262//83
f 6//11 7//90 82//13
f 82//13 7//90 8//93
f 82//13 8//93 55//15
f 55//15 8//93 9//94
f 55//15 9//94 103//17
f 103//17 9//94 93//19
f 9//94 10//95 93//19
f 93//19 10//95 58//21
f 10//95 11//96 58//21
f 58//21 11//96 118//23
f 118//23 11//96 108//25
f 108//25 11//96 12//97
f 108//25 12//97 60//27
f 60//27 12//97 13//98
f 60//27 13//98 134//29
f 134//29 13//98 123//31
f 13//98 14//99 123//31
f 123//31 14//99 135//33
f 135//33 14//99 62//35
f 62//35 14//99 15//100
f 62//35 15//100 141//37
f 141//37 15//100 16//101
f 141//37 16//101 151//39
f 151//39 16//101 65//41
f 16//101 17//102 65//41
f 65//41 17//102 156//43
f 17//102 18//103 156//43
f 156//43 18//103 166//45
f 166//45 18//103 67//47
f 67//47 18//103 19//104
f 67//47 19//104 171//49
f 171//49 19//104 20//105
f 171//49 20//105 193//51
f 193//51 20//105 182//53
f 20//105 21//106 182//53
f 182//53 21//106 69//55
f 21//106 22//107 69//55
f 69//55 22//107 209//57
f 209//57 22//107 199//59
f 199//59 22//107 23//108
f 199//59 23//108 72//61
f 72//61 23//108 24//109
f 72//61 24//109 224//63
f 224//63 24//109 214//65
f 24//109 25//110 214//65
f 214//65 25//110 74//67
f 25//110 26//111 74//67
f 74//67 26//111 240//69
f 240//69 26//111 229//71
f 229//71 26//111 27//112
f 229//71 27//112 241//73
f 241//73 27//112 76//75
f 27//112 28//113 76//75
f 76//75 28//113 247//77
f 28//113 29//114 247//77
f 247//77 29//114 257//79
f 257//79 29//114 79//81
f 79//81 29//114 30//115
f 79//81 30//115 262//83
f 262//83 30//115 31//92
f 6//11 5//9 278//88
f 278//88 5//9 279//116
f 278//88 279//116 287//86
f 287//86 279//116 286//117
f 287//86 286//117 273//84
f 273//84 286//117 274//118
f 273//84 274//118 263//82
f 263//82 274//118 264//119
f 263//82 264//119 271//80
f 271//80 264//119 270//120
f 271//80 270//120 258//78
f 258//78 270//120 259//121
f 258//78 259//121 248//76
f 248//76 259//121 249//122
f 248//76 249//122 256//74
f 256//74 249//122 255//123
f 256//74 255//123 242//72
f 242//72 255//123 243//124
f 242//72 243//124 230//70
f 230//70 243//124 231//125
f 230//70 231//125 239//68
f 239//68 231//125 238//126
f 239//68 238//126 225//66
f 225//66 238//126 226//127
f 225//66 226//127 215//64
f 215//64 226//127 216//128
f 215//64 216//128 223//62
f 223//62 216//128 222//129
f 223//62 222//129 210//60
f 210//60 222//129 211//130
f 210//60 211//130 200//58
f 200//58 211//130 201//131
f 200//58 201//131 208//56
f 208//56 201//131 207//132
f 208//56 207//132 194//54
f 194//54 207//132 195//133
f 194//54 195//133 183//52
f 183//52 195//133 184//134
f 183//52 184//134 192//50
f 192//50 184//134 191//135
f 192//50 191//135 172//48
f 172//48 191//135 173//136
f 172//48 173//136 181//46
f 181//46 173//136 180//137
f 181//46 180//137 167//44
f 167//44 180//137 168//138
f 167//44 168//138 157//42
f 157//42 168//138 158//139
f 157//42 158//139 165//40
f 165//40 158//139 164//140
f 165//40 164//140 152//38
f 152//38 164//140 153//141
f 152//38 153//141 142//36
f 142//36 153//141 143//142
f 142//36 143//142 150//34
f 150//34 143//142 149//143
f 150//34 149//143 136//32
f 136//32 149//143 137//144
f 136//32 137//144 124//30
f 124//30 137//144 125//145
f 124//30 125//145 133//28
f 133//28 125//145 132//146
f 133//28 132//146 119//26
f 119//26 132//146 120//147
f 119//26 120//147 109//24
f 109//24 120//147 110//148
f 109//24 110//148 117//22
f 117//22 110//148 116//149
f 117//22 116//149 104//20
f 104//20 116//149 105//150
f 104//20 105//150 94//18
f 94//18 105//150 95//151
f 94//18 95//151 102//16
f 102//16 95//151 101//152
f 102//16 101//152 88//14
f 88//14 101//152 89//153
f 88//14 89//153 83//12
f 83//12 89//153 84//10
f 5//9 4//7 279//116
f 279//116 4//7 280//154
f 279//116 280//154 286//117
f 286//117 280//154 285//155
f 286//117 285//155 274//118
f 274//118 285//155 275//156
f 274//118 275//156 264//119
f 264//119 275//156 265//157
f 264//119 265//157 270//120
f 270//120 265//157 269//158
f 270//120 269//158 259//121
f 259//121 269//158 260//159
f 259//121 260//159 249//122
f 249//122 260//159 250//160
f 249//122 250//160 255//123
f 255//123 250//160 254//161
f 255//123 254//161 243//124
f 243//124 254//161 244//162
f 243//124 244//162 231//125
f 231//125 244//162 232//163
f 231//125 232//163 238//126
f 238//126 232//163 237//164
f 238//126 237//164 226//127
f 226//127 237//164 227//165
f 226//127 227//165 216//128
f 216//128 227//165 217//166
f 216//128 217//166 222//129
f 222//129 217//166 221//167
f 222//129 221//167 211//130
f 211//130 221//167 212//168
f 211//130 212//168 201//131
f 201//131 212//168 202//169
f 201//131 202//169 207//132
f 207//132 202//169 206//170
f 207//132 206//170 195//133
f 195//133 206//170 196//171
f 195//133 196//171 184//134
f 184//134 196//171 185//172
f 184//134 185//172 191//135
f 191//135 185//172 190//173
f 191//135 190//173 173//136
f 173//136 190//173 174//174
f 173//136 174//174 180//137
f 180//137 174//174 179//175
f 180//137 179//175 168//138
f 168//138 179//175 169//176
f 168//138 169//176 158//139
f 158//139 169//176 159//177
f 158//139 159//177 164//140
f 164//140 159//177 163//178
f 164//140 163//178 153//141
f 153//141 163//178 154//179
f 153//141 154//179 143//142
f 143//142 154//179 144//180
f 143//142 144//180 149//143
f 149//143 144//180 148//181
f 149//143 148//181 137//144
f 137//144 148//181 138//182
f 137//144 138//182 125//145
f 125//145 138//182 126//183
f 125//145 126//183 132//146
f 132//146 126//183 131//184
f 132//146 131//184 120//147
f 120//147 131//184 121//185
f 120//147 121//185 110//148
f 110//148 121//185 111//186
f 110//148 111//186 116//149
f 116//149 111//186 115//187
f 116//149 115//187 105//150
f 105//150 115//187 106//188
f 105//150 106//188 95//151
f 95//151 106//188 96//189
f 95//151 96//189 101//152
f 101//152 96//189 100//190
f 101//152 100//190 89//153
f 89//153 100//190 90//191
f 89//153 90//191 84//10
f 84//10 90//191 85//8
f 4//7 3//6 280//154
f 280//154 3//6 281//192
f 280//154 281//192 285//155
f 285//155 281//192 284//193
f 285//155 284//193 275//156
f 275//156 284//193 276//194
f 275//156 276//194 265//157
f 265//157 276//194 266//195
f 265//157 266//195 269//158
f 269//158 266//195 268//196
f 269//158 268//196 260//159
f 260//159 268//196 261//197
f 260//159 261//197 250//160
f 250//160 261//197 251//198
f 250//160 251//198 254//161
f 254//161 251//198 253//199
f 254//161 253//199 244//162
f 244//162 253//199 245//200
f 244//162 245//200 232//163
f 232//163 245//200 233//201
f 232//163 233//201 237//164
f 237//164 233//201 236//202
f 237//164 236//202 227//165
f 227//165 236//202 228//203
f 227//165 228//203 217//166
f 217//166 228//203 218//204
f 217//166 218//204 221//167
f 221//167 218//204 220//205
f 221//167 220//205 212//168
f 212//168 220//205 213//206
f 212//168 213//206 202//169
f 202//169 213//206 203//207
f 202//169 203//207 206//170
f 206//170 203//207 205//208
f 206//170 205//208 196//171
f 196//171 205//208 197//209
f 196//171 197//209 185//172
f 185//172 197//209 186//210
f 185//172 186//210 190//173
f 190//173 186//210 189//211
f 190//173 189//211 174//174
f 174//174 189//211 175//212
f 174//174 175//212 179//175
f 179//175 175//212 178//213
f 179//175 178//213 169//176
f 169//176 178//213 170//214
f 169//176 170//214 159//177
f 159//177 170//214 160//215
f 159//177 160//215 163//178
f 163//178 160//215 162//216
f 163//178 162//216 154//179
f 154//179 162//216 155//217
f 154//179 155//217 144//180
f 144//180 155//217 145//218
f 144//180 145//218 148//181
f 148//181 145//218 147//219
f 148//181 147//219 138//182
f 138//182 147//219 139//220
f 138//182 139//220 126//183
f 126//183 139//220 127//221
f 126//183 127//221 131//184
f 131//184 127//221 130//222
f 131//184 130//222 121//185
f 121//185 130//222 122//223
f 121//185 122//223 111//186
f 111//186 122//223 112//224
f 111//186 112//224 115//187
f 115//187 112//224 114//225
f 115//187 114//225 106//188
f 106//188 114//225 107//226
f 106//188 107//226 96//189
f 96//189 107//226 97//227
f 96//189 97//227 100//190
f 100//190 97//227 99//228
f 100//190 99//228 90//191
f 90//191 99//228 91//229
f 90//191 91//229 85//8
f 85//8 91//229 86//5
f 3//6 2//4 281//192
f 281//192 2//4 282//230
f 281//192 282//230 284//193
f 284//193 282//230 283//231
f 284//193 283//231 276//194
f 276//194 283//231 80//232
f 276//194 80//232 266//195
f 266//195 80//232 267//233
f 266//195 267//233 268//196
f 268//196 267//233 78//234
f 268//196 78//234 261//197
f 261//197 78//234 77//235
f 261//197 77//235 251//198
f 251//198 77//235 252//236
f 251//198 252//236 253//199
f 253//199 252//236 75//237
f 253//199 75//237 245//200
f 245//200 75//237 246//238
f 245//200 246//238 233//201
f 233//201 246//238 234//239
f 233//201 234//239 236//202
f 236//202 234//239 235//240
f 236//202 235//240 228//203
f 228//203 235//240 73//241
f 228//203 73//241 218//204
f 218//204 73//241 219//242
f 218//204 219//242 220//205
f 220//205 219//242 71//243
f 220//205 71//243 213//206
f 213//206 71//243 70//244
f 213//206 70//244 203//207
f 203//207 70//244 204//245
f 203//207 204//245 205//208
f 205//208 204//245 68//246
f 205//208 68//246 197//209
f 197//209 68//246 198//247
f 197//209 198//247 186//210
f 186//210 198//247 187//248
f 186//210 187//248 189//211
f 189//211 187//248 188//249
f 189//211 188//249 175//212
f 175//212 188//249 176//250
f 175//212 176//250 178//213
f 178//213 176//250 177//251
f 178//213 177//251 170//214
f 170//214 177//251 66//252
f 170//214 66//252 160//215
f 160//215 66//252 161//253
f 160//215 161//253 162//216
f 162//216 161//253 64//254
f 162//216 64//254 155//217
f 155//217 64//254 63//255
f 155//217 63//255 145//218
f 145//218 63//255 146//256
f 145//218 146//256 147//219
f 147//219 146//256 61//257
f 147//219 61//257 139//220
f 139//220 61//257 140//258
f 139//220 140//258 127//221
f 127//221 140//258 128//259
f 127//221 128//259 130//222
f 130//222 128//259 129//260
f 130//222 129//260 122//223
f 122//223 129//260 59//261
f 122//223 59//261 112//224
f 112//224 59//261 113//262
f 112//224 113//262 114//225
f 114//225 113//262 57//263
f 114//225 57//263 107//226
f 107//226 57//263 56//264
f 107//226 56//264 97//227
f 97//227 56//264 98//265
f 97//227 98//265 99//228
f 99//228 98//265 54//266
f 99//228 54//266 91//229
f 91//229 54//266 92//267
f 91//229 92//267 86//5
f 86//5 92//267 87//3
f 2//4 1//2 282//230
f 282//230 1//2 33//268
f 282//230 33//268 283//231
f 283//231 33//268 80//232
f 33//268 34//269 80//232
f 80//232 34//269 267//233
f 267//233 34//269 78//234
f 78//234 34//269 35//270
f 78//234 35//270 77//235
f 77//235 35//270 36//271
f 77//235 36//271 252//236
f 252//236 36//271 75//237
f 36//271 37//272 75//237
f 75//237 37//272 246//238
f 246//238 37//272 234//239
f 234//239 37//272 38//273
f 234//239 38//273 235//240
f 235//240 38//273 73//241
f 38//273 39//274 73//241
f 73//241 39//274 219//242
f 219//242 39//274 71//243
f 71//243 39//274 40//2
f 71//243 40//2 70//244
f 70//244 40//2 41//2
f 70//244 41//2 204//245
f 204//245 41//2 68//246
f 41//2 42//2 68//246
f 68//246 42//2 198//247
f 198//247 42//2 187//248
f 187//248 42//2 43//2
f 187//248 43//2 188//249
f 188//249 43//2 176//250
f 43//2 44//2 176//250
f 176//250 44//2 177//251
f 177//251 44//2 66//252
f 66//252 44//2 45//275
f 66//252 45//275 161//253
f 161//253 45//275 64//254
f 45//275 46//276 64//254
f 64//254 46//276 63//255
f 46//276 47//277 63//255
f 63//255 47//277 146//256
f 146//256 47//277 61//257
f 61//257 47//277 48//278
f 61//257 48//278 140//258
f 140//258 48//278 128//259
f 48//278 49//279 128//259
f 128//259 49//279 129//260
f 129//260 49//279 59//261
f 59//261 49//279 50//280
f 59//261 50//280 113//262
f 113//262 50//280 57//263
f 50//280 51//281 57//263
f 57//263 51//281 56//264
f 51//281 52//282 56//264
f 56//264 52//282 98//265
f 98//265 52//282 54//266
f 54//266 52//282 53//1
f 54//266 53//1 92//267
f 92//267 53//1 87//3

g face 1
f 289//283 8//283 288//90
f 288//90 8//283 7//90
f 288//90 7//90 313//284
f 313//284 7//90 32//284
f 313//284 32//284 312//285
f 312//285 32//284 31//286
f 312//285 31//286 311//287
f 311//287 31//286 30//287
f 311//287 30//287 310//288
f 310//288 30//287 29//288
f 310//288 29//288 309//289
f 309//289 29//288 28//289
f 309//289 28//289 308//290
f 308//290 28//289 27//291
f 308//290 27//291 307//292
f 307//292 27//291 26//293
f 307//292 26//293 306//294
f 306//294 26//293 25//294
f 306//294 25//294 305//295
f 305//295 25//294 24//295
f 305//295 24//295 304//296
f 304//296 24//295 23//296
f 304//296 23//296 303//297
f 303//297 23//296 22//297
f 303//297 22//297 302//298
f 302//298 22//297 21//298
f 302//298 21//298 301//299
f 301//299 21//298 20//299
f 301//300 20//300 300//301
f 300//301 20//300 19//301
f 300//301 19//301 299//302
f 299//302 19//301 18//302
f 299//302 18//302 298//303
f 298//303 18//302 17//304
f 298//303 17//304 297//305
f 297//305 17//304 16//305
f 297//305 16//305 296//306
f 296//306 16//305 15//306
f 296//306 15//306 295//307
f 295//307 15//306 14//308
f 295//307 14//308 294//309
f 294//309 14//308 13//310
f 294//309 13//310 293//311
f 293//311 13//310 12//311
f 293//311 12//311 292//312
f 292//312 12//311 11//313
f 292//312 11//313 291//314
f 291//314 11//313 10//314
f 291//314 10//314 290//315
f 290//315 10//314 9//316
f 290//315 9//316 289//283
f 289//283 9//316 8//283

g face 2
f 53//2 44//2 1//2
f 1//2 44//2 43//2
f 1//2 43//2 33//2
f 33//2 43//2 42//2
f 33//2 42//2 34//2
f 34//2 42//2 41//2
f 34//2 41//2 35//2
f 35//2 41//2 40//2
f 35//2 40//2 36//2
f 36//2 40//2 39//2
f 36//2 39//2 37//2
f 37//2 39//2 38//2
f 44//2 53//2 45//2
f 45//2 53//2 52//2
f 45//2 52//2 46//2
f 46//2 52//2 51//2
f 46//2 51//2 47//2
f 47//2 51//2 50//2
f 47//2 50//2 48//2
f 48//2 50//2 49//2

g face 3
f 313//317 302//317 288//317
f 288//317 302//317 301//317
f 288//317 301//317 289//317
f 289//317 301//317 300//317
f 289//317 300//317 290//317
f 290//317 300//317 299//317
f 290//317 299//317 291//317
f 291//317 299//317 298//317
f 291//317 298//317 292//317
f 292//317 298//317 297//317
f 292//317 297//317 293//317
f 293//317 297//317 296//317
f 293//317 296//317 294//317
f 294//317 296//317 295//317
f 302//317 313//317 303//317
f 303//317 313//317 312//317
f 303//317 312//317 304//317
f 304//317 312//317 311//317
f 304//317 311//317 305//317
f 305//317 311//317 310//317
f 305//317 310//317 306//317
f 306//317 310//317 309//317
f 306//317 309//317 307//317
f 307//317 309//317 308//317

g halfedge 0 edge 0
l 1 2 3 4 5 6 7

g halfedge 1 edge 0
l 7 6 5 4 3 2 1

g halfedge 2 edge 1
l 7 32 31 30 29 28 27 26 25 24 23 22 21 20 19 18 17 16 15 14 13 12 11 10 9 8 7

g halfedge 3 edge 1
l 7 8 9 10 11 12 13 14 15 16 17 18 19 20 21 22 23 24 25 26 27 28 29 30 31 32 7

g halfedge 4 edge 2
l 1 53 52 51 50 49 48 47 46 45 44 43 42 41 40 39 38 37 36 35 34 33 1

g halfedge 5 edge 2
l 1 33 34 35 36 37 38 39 40 41 42 43 44 45 46 47 48 49 50 51 52 53 1

g halfedge 6 edge 3
l 288 313 312 311 310 309 308 307 306 305 304 303 302 301 300 299 298 297 296 295 294 293 292 291 290 289 288

g halfedge 7 edge 3
l 288 289 290 291 292 293 294 295 296 297 298 299 300 301 302 303 304 305 306 307 308 309 310 311 312 313 288

g vertex 0
p 1

g vertex 1
p 7

g vertex 2
p 288

# End of file
