# WaveFront *.obj file
# Vertices: 313
# Triangles : 622

v -4.6330307034154750e+00 4.5629446048380746e+00 -2.5908000000000002e+00
v -4.6330307034154750e+00 4.6121416636714763e+00 -2.5853886997861881e+00
v -4.6330307034154750e+00 4.6357405297376824e+00 -2.5747303893398130e+00
v -4.6330307034154750e+00 4.6570531486039766e+00 -2.5579085437659015e+00
v -4.6330307034154750e+00 4.6738749941778872e+00 -2.5365959248996082e+00
v -4.6330307034154750e+00 4.6845333046242628e+00 -2.5129970588334016e+00
v -4.6330307034154750e+00 4.6899446048380744e+00 -2.4638000000000000e+00
v -4.5424592971092057e+00 4.6789472450611385e+00 -2.4638000000000000e+00
v -4.4571515717237906e+00 4.6465942923067889e+00 -2.4638000000000000e+00
v -4.3820653021776632e+00 4.5947659825909097e+00 -2.4638000000000000e+00
v -4.3215642295293621e+00 4.5264743888859478e+00 -2.4638000000000000e+00
v -4.2791644562087532e+00 4.4456883703881926e+00 -2.4638000000000000e+00
v -4.2573301029243256e+00 4.3571029168475048e+00 -2.4638000000000000e+00
v -4.2573301029243256e+00 4.2658662928286457e+00 -2.4638000000000000e+00
v -4.2791644562087532e+00 4.1772808392879570e+00 -2.4638000000000000e+00
v -4.3215642295293621e+00 4.0964948207902019e+00 -2.4638000000000000e+00
v -4.3820653021776632e+00 4.0282032270852399e+00 -2.4638000000000000e+00
v -4.4571515717237906e+00 3.9763749173693612e+00 -2.4638000000000000e+00
v -4.5424592971092057e+00 3.9440219646150112e+00 -2.4638000000000000e+00
v -4.6330307034154750e+00 3.9330246048380748e+00 -2.4638000000000000e+00
v -4.7236021097217442e+00 3.9440219646150112e+00 -2.4638000000000000e+00
v -4.8089098351071593e+00 3.9763749173693612e+00 -2.4638000000000000e+00
v -4.8839961046532867e+00 4.0282032270852399e+00 -2.4638000000000000e+00
v -4.9444971773015878e+00 4.0964948207902019e+00 -2.4638000000000000e+00
v -4.9868969506221967e+00 4.1772808392879570e+00 -2.4638000000000000e+00
v -5.0087313039066244e+00 4.2658662928286448e+00 -2.4638000000000000e+00
v -5.0087313039066244e+00 4.3571029168475039e+00 -2.4638000000000000e+00
v -4.9868969506221967e+00 4.4456883703881926e+00 -2.4638000000000000e+00
v -4.9444971773015878e+00 4.5264743888859478e+00 -2.4638000000000000e+00
v -4.8839961046532867e+00 4.5947659825909097e+00 -2.4638000000000000e+00
v -4.8089098351071602e+00 4.6465942923067889e+00 -2.4638000000000000e+00
v -4.7236021097217442e+00 4.6789472450611385e+00 -2.4638000000000000e+00
v -4.7038751721588206e+00 4.5527587079831759e+00 -2.5908000000000002e+00
v -4.7689802433728596e+00 4.5230262182038032e+00 -2.5908000000000002e+00
v -4.8230714913825965e+00 4.4761558849959560e+00 -2.5908000000000002e+00
v -4.8617667649673217e+00 4.4159448640075292e+00 -2.5908000000000002e+00
v -4.8819312031908542e+00 4.3472710940702752e+00 -2.5908000000000002e+00
v -4.8819312031908542e+00 4.2756981156058744e+00 -2.5908000000000002e+00
v -4.8617667649673217e+00 4.2070243456686205e+00 -2.5908000000000002e+00
v -4.8230714913825965e+00 4.1468133246801937e+00 -2.5908000000000002e+00
v -4.7689802433728596e+00 4.0999429914723464e+00 -2.5908000000000002e+00
v -4.7038751721588206e+00 4.0702105016929737e+00 -2.5908000000000002e+00
v -4.6330307034154750e+00 4.0600246048380750e+00 -2.5908000000000002e+00
v -4.5621862346721294e+00 4.0702105016929737e+00 -2.5908000000000002e+00
v -4.4970811634580903e+00 4.0999429914723464e+00 -2.5908000000000002e+00
v -4.4429899154483534e+00 4.1468133246801937e+00 -2.5908000000000002e+00
v -4.4042946418636282e+00 4.2070243456686205e+00 -2.5908000000000002e+00
v -4.3841302036400958e+00 4.2756981156058744e+00 -2.5908000000000002e+00
v -4.3841302036400958e+00 4.3472710940702752e+00 -2.5908000000000002e+00
v -4.4042946418636282e+00 4.4159448640075292e+00 -2.5908000000000002e+00
v -4.4429899154483534e+00 4.4761558849959560e+00 -2.5908000000000002e+00
v -4.4970811634580903e+00 4.5230262182038032e+00 -2.5908000000000002e+00
v -4.5621862346721294e+00 4.5527587079831759e+00 -2.5908000000000002e+00
v -4.5020785252544897e+00 4.5684967778362653e+00 -2.5883799744228302e+00
v -4.5163145823782465e+00 4.6707002853355135e+00 -2.4885483294180091e+00
v -4.4290418170730144e+00 4.5154735279748284e+00 -2.5883799744228297e+00
v -4.3996899763630353e+00 4.4810235297561158e+00 -2.5883799744228297e+00
v -4.3659549390245722e+00 4.5785604174025050e+00 -2.4885483294180086e+00
v -4.3586924297844014e+00 4.4006179253204838e+00 -2.5883799744228306e+00
v -4.2738488604953941e+00 4.4281838531518973e+00 -2.4885483294180091e+00
v -4.3586836674830129e+00 4.2223405129176941e+00 -2.5883799744228297e+00
v -4.2738373883099090e+00 4.1947712538440465e+00 -2.4885483294180086e+00
v -4.3997303622967117e+00 4.1419914183591242e+00 -2.5883799744228297e+00
v -4.4291300913889389e+00 4.1075741318154346e+00 -2.5883799744228302e+00
v -4.3660705136072089e+00 4.0445115043604112e+00 -2.4885483294180086e+00
v -4.5020667025292909e+00 4.0544650617431621e+00 -2.5883799744228302e+00
v -4.5163539029235880e+00 3.9524682116089949e+00 -2.4885483294180091e+00
v -4.7639060282529027e+00 4.0545972208736032e+00 -2.5883799744228306e+00
v -4.7497111877577156e+00 3.9523317572537513e+00 -2.4885483294180091e+00
v -4.8369716167577108e+00 4.1075643709680811e+00 -2.5883799744228306e+00
v -4.8664180671048207e+00 4.1419183432788467e+00 -2.5883799744228306e+00
v -4.9000436583762434e+00 4.0444987248123940e+00 -2.4885483294180086e+00
v -4.9071528217521463e+00 4.2224045523184257e+00 -2.5883799744228306e+00
v -4.9919295415037013e+00 4.1948550984701338e+00 -2.4885483294180091e+00
v -4.9072739098665519e+00 4.4005689242378079e+00 -2.5883799744228302e+00
v -4.9920880780852439e+00 4.4281196976881043e+00 -2.4885483294180091e+00
v -4.8662372933099425e+00 4.4809431731567679e+00 -2.5883799744228306e+00
v -4.8369670800455280e+00 4.5154400431425756e+00 -2.5883799744228306e+00
v -4.9000377186120936e+00 4.5785165768417277e+00 -2.4885483294180091e+00
v -4.7639605776651326e+00 4.5684231238548003e+00 -2.5883799744228306e+00
v -4.7496816390991068e+00 4.6705113416218946e+00 -2.4885483294180091e+00
v -4.5739462330986962e+00 4.6845289820902263e+00 -2.4885483294180091e+00
v -4.5746742033222585e+00 4.6799327625210099e+00 -2.5129969303939279e+00
v -4.5763414832340992e+00 4.6694059795426215e+00 -2.5365957185428969e+00
v -4.5789729270821757e+00 4.6527917097299820e+00 -2.5579082942426075e+00
v -4.5823068678204004e+00 4.6317420525219486e+00 -2.5747301594172947e+00
v -4.5879027775344383e+00 4.5964108962428023e+00 -2.5883799744228306e+00
v -4.5177526228695841e+00 4.6662744469072992e+00 -2.5129969303939284e+00
v -4.5210461861857993e+00 4.6561378901284938e+00 -2.5365957185428969e+00
v -4.5262443696852559e+00 4.6401395087008561e+00 -2.5579082942426079e+00
v -4.5328302733693766e+00 4.6198701589952842e+00 -2.5747301594172947e+00
v -4.5438844957732556e+00 4.5858487231568441e+00 -2.5883799744228306e+00
v -4.4110434068142661e+00 4.6170192384999256e+00 -2.4885483294180086e+00
v -4.4137784764707808e+00 4.6132547955865801e+00 -2.5129969303939275e+00
v -4.4200426429822635e+00 4.6046330417764016e+00 -2.5365957185428964e+00
v -4.4299292866783251e+00 4.5910254520355886e+00 -2.5579082942426070e+00
v -4.4424552937244917e+00 4.5737851457987340e+00 -2.5747301594172938e+00
v -4.4634797839633595e+00 4.5448478596503312e+00 -2.5883799744228297e+00
v -4.4858403190542475e+00 4.6003665544197938e+00 -2.5747301594172942e+00
v -4.4761658925654029e+00 4.6193539848644587e+00 -2.5579082942426075e+00
v -4.4685299709739166e+00 4.6343405610988695e+00 -2.5365957185428969e+00
v -4.4636918594986588e+00 4.6438360392262732e+00 -2.5129969303939279e+00
v -4.4615794361033743e+00 4.6479819689445776e+00 -2.4885483294180091e+00
v -4.3692455364162264e+00 4.5752698194173131e+00 -2.5129969303939275e+00
v -4.3767820355084774e+00 4.5677333189656739e+00 -2.5365957185428960e+00
v -4.3886767833738443e+00 4.5558385689548020e+00 -2.5579082942426070e+00
v -4.4037469831458189e+00 4.5407683664645555e+00 -2.5747301594172938e+00
v -4.2965913755373588e+00 4.4829061484688912e+00 -2.4885483294180086e+00
v -4.3007365902006596e+00 4.4807940912942863e+00 -2.5129969303939279e+00
v -4.3102304306280512e+00 4.4759568185791370e+00 -2.5365957185428964e+00
v -4.3252144221041426e+00 4.4683222207906370e+00 -2.5579082942426075e+00
v -4.3441985777568854e+00 4.4586494715105651e+00 -2.5747301594172942e+00
v -4.3760628577100391e+00 4.4424140804500025e+00 -2.5883799744228302e+00
v -4.3707554836802638e+00 4.5020465326602919e+00 -2.5747301594172938e+00
v -4.3535168417391805e+00 4.5145716535796305e+00 -2.5579082942426070e+00
v -4.3399105656092605e+00 4.5244575978652435e+00 -2.5365957185428960e+00
v -4.3312896441014903e+00 4.5307213212310389e+00 -2.5129969303939275e+00
v -4.3275255645892550e+00 4.5334561974006284e+00 -2.4885483294180086e+00
v -4.2782742820162785e+00 4.4267460205466618e+00 -2.5129969303939279e+00
v -4.2884098839466667e+00 4.4234529333547581e+00 -2.5365957185428964e+00
v -4.3044067583508117e+00 4.4182555013154401e+00 -2.5579082942426075e+00
v -4.3246741987140984e+00 4.4116705497031523e+00 -2.5747301594172947e+00
v -4.2554318106034730e+00 4.3114919601512449e+00 -2.4885483294180086e+00
v -4.2600841456238827e+00 4.3114918695276190e+00 -2.5129969303939279e+00
v -4.2707394505685405e+00 4.3114916619711181e+00 -2.5365957185428964e+00
v -4.2875565647476730e+00 4.3114913343876857e+00 -2.5579082942426075e+00
v -4.3088632181661550e+00 4.3114909193517539e+00 -2.5747301594172942e+00
v -4.3446257341194672e+00 4.3114902227276124e+00 -2.5883799744228302e+00
v -4.3481083752771710e+00 4.3566138362815332e+00 -2.5883799744228306e+00
v -4.3127777104471807e+00 4.3622099078866690e+00 -2.5747301594172947e+00
v -4.2917283460355735e+00 4.3655439450766504e+00 -2.5579082942426079e+00
v -4.2751143073240288e+00 4.3681754650530698e+00 -2.5365957185428964e+00
v -4.2645876707710375e+00 4.3698427931997443e+00 -2.5129969303939279e+00
v -4.2599915151342946e+00 4.3705707844836708e+00 -2.4885483294180091e+00
v -4.2600899703475985e+00 4.2524103999314367e+00 -2.4885483294180086e+00
v -4.2646849129335473e+00 4.2531382436765375e+00 -2.5129969303939275e+00
v -4.2752087712201252e+00 4.2548052339130704e+00 -2.5365957185428964e+00
v -4.2918184250338465e+00 4.2574362205707859e+00 -2.5579082942426070e+00
v -4.3128622339442408e+00 4.2607695820659552e+00 -2.5747301594172942e+00
v -4.3481835740484343e+00 4.2663645195396054e+00 -2.5883799744228302e+00
v -4.2965228574612864e+00 4.1400327517471451e+00 -2.4885483294180086e+00
v -4.3006689163247440e+00 4.1421451823597160e+00 -2.5129969303939275e+00
v -4.3101646902350161e+00 4.1469833103648215e+00 -2.5365957185428960e+00
v -4.3251517332992622e+00 4.1546192580451278e+00 -2.5579082942426070e+00
v -4.3441397551998353e+00 4.1642937175875288e+00 -2.5747301594172938e+00
v -4.3760105245226235e+00 4.1805319792670774e+00 -2.5883799744228297e+00
v -4.3246643498782307e+00 4.2112865528655217e+00 -2.5747301594172938e+00
v -4.3043962621775584e+00 4.2047008054857553e+00 -2.5579082942426070e+00
v -4.2883988768369221e+00 4.1995027453556562e+00 -2.5365957185428960e+00
v -4.2782629511777390e+00 4.1962092602061283e+00 -2.5129969303939275e+00
v -4.3275784405292166e+00 4.0895728960701785e+00 -2.4885483294180086e+00
v -4.3313418685655289e+00 4.0923070344211983e+00 -2.5129969303939275e+00
v -4.3399612979893041e+00 4.0985690679512841e+00 -2.5365957185428964e+00
v -4.3535652191845662e+00 4.1084523451935562e+00 -2.5579082942426070e+00
v -4.3708008775116918e+00 4.1209740870689346e+00 -2.5747301594172938e+00
v -4.4110530996767725e+00 4.0059456289796662e+00 -2.4885483294180091e+00
v -4.4137880499090931e+00 4.0097101253925143e+00 -2.5129969303939279e+00
v -4.4200519429017504e+00 4.0183320017333184e+00 -2.5365957185428964e+00
v -4.4299381549069929e+00 4.0319397848624501e+00 -2.5579082942426070e+00
v -4.4424636150170684e+00 4.0491803361150582e+00 -2.5747301594172942e+00
v -4.4634871872417241e+00 4.0781180335143326e+00 -2.5883799744228302e+00
v -4.4038462035686674e+00 4.0822890212213974e+00 -2.5747301594172942e+00
v -4.3887825252871506e+00 4.0672246144336173e+00 -2.5579082942426070e+00
v -4.3768929247646096e+00 4.0553344389088570e+00 -2.5365957185428964e+00
v -4.3693596870230813e+00 4.0478008368465579e+00 -2.5129969303939279e+00
v -4.4615639570082797e+00 3.9749775913126695e+00 -2.4885483294180091e+00
v -4.4636765711189970e+00 3.9791236399199073e+00 -2.5129969303939279e+00
v -4.4685151193923538e+00 3.9886193903402201e+00 -2.5365957185428964e+00
v -4.4761517303759826e+00 4.0036063963306034e+00 -2.5579082942426075e+00
v -4.4858270302988350e+00 4.0225943712599799e+00 -2.5747301594172942e+00
v -4.5739923313952602e+00 3.9387176540638769e+00 -2.4885483294180091e+00
v -4.5747197336491494e+00 3.9433104555062304e+00 -2.5129969303939279e+00
v -4.5763857127324750e+00 3.9538294099030771e+00 -2.5365957185428964e+00
v -4.5790151035016589e+00 3.9704313239783335e+00 -2.5579082942426075e+00
v -4.5823464430658687e+00 3.9914653269301499e+00 -2.5747301594172942e+00
v -4.5879379867950014e+00 4.0267702080558658e+00 -2.5883799744228302e+00
v -4.5439145282783491e+00 4.0372726994616794e+00 -2.5883799744228302e+00
v -4.5328640299363165e+00 4.0032701381863003e+00 -2.5747301594172942e+00
v -4.5262803449801856e+00 3.9830120336004535e+00 -2.5579082942426075e+00
v -4.5210839126990532e+00 3.9670225278258173e+00 -2.5365957185428964e+00
v -4.5177914589528321e+00 3.9568915946509375e+00 -2.5129969303939279e+00
v -4.6921179610754544e+00 3.9384480632592829e+00 -2.4885483294180091e+00
v -4.6913899565094868e+00 3.9430441862864325e+00 -2.5129969303939279e+00
v -4.6897225979427759e+00 3.9535707481532376e+00 -2.5365957185428964e+00
v -4.6870910299548516e+00 3.9701846689886535e+00 -2.5579082942426075e+00
v -4.6837569319360934e+00 3.9912338840556201e+00 -2.5747301594172942e+00
v -4.6781607582318596e+00 4.0265642982155523e+00 -2.5883799744228302e+00
v -4.6330493171044393e+00 4.0231399526117979e+00 -2.5883799744228302e+00
v -4.6330516252212179e+00 3.9873849160378243e+00 -2.5747301594172942e+00
v -4.6330530003550114e+00 3.9660827186968608e+00 -2.5579082942426075e+00
v -4.6330540857334404e+00 3.9492691216521632e+00 -2.5365957185428964e+00
v -4.6330547734280128e+00 3.9386160451599932e+00 -2.5129969303939279e+00
v -4.6330550736902349e+00 3.9339646831298078e+00 -2.4885483294180091e+00
v -4.7482735863403454e+00 3.9567568215277831e+00 -2.5129969303939279e+00
v -4.7449810286410941e+00 3.9668916052509404e+00 -2.5365957185428969e+00
v -4.7397844322923950e+00 3.9828871882904098e+00 -2.5579082942426075e+00
v -4.7332005394688039e+00 4.0031529925430460e+00 -2.5747301594172942e+00
v -4.7221496922280863e+00 4.0371684774555154e+00 -2.5883799744228306e+00
v -4.8548985625811625e+00 4.0061312923457892e+00 -2.4885483294180091e+00
v -4.8521649644940146e+00 4.0098935012302661e+00 -2.5129969303939279e+00
v -4.8459041683374808e+00 4.0185101384143334e+00 -2.5365957185428964e+00
v -4.8360228440240469e+00 4.0321096526579190e+00 -2.5579082942426075e+00
v -4.8235035764363170e+00 4.0493397275424297e+00 -2.5747301594172947e+00
v -4.8024903981564471e+00 4.0782598407029278e+00 -2.5883799744228306e+00
v -4.7801347045611458e+00 4.0227429182599588e+00 -2.5747301594172947e+00
v -4.7898034533145006e+00 4.0037647069237527e+00 -2.5579082942426075e+00
v -4.7974348935299540e+00 3.9887854072332707e+00 -2.5365957185428964e+00
v -4.8022701656103131e+00 3.9792945395160526e+00 -2.5129969303939279e+00
v -4.8043813492647942e+00 3.9751506228018689e+00 -2.4885483294180091e+00
v -4.8967538348494424e+00 4.0477882147532895e+00 -2.5129969303939279e+00
v -4.8892191081501837e+00 4.0553221774362989e+00 -2.5365957185428964e+00
v -4.8773271576271231e+00 4.0672129221235283e+00 -2.5579082942426079e+00
v -4.8622605019830178e+00 4.0822780500188269e+00 -2.5747301594172947e+00
v -4.9694103442678976e+00 4.1400592623186352e+00 -2.4885483294180091e+00
v -4.9652658649988082e+00 4.1421713662987338e+00 -2.5129969303939279e+00
v -4.9557737088545855e+00 4.1470087462131300e+00 -2.5365957185428964e+00
v -4.9407923756583374e+00 4.1546435131926547e+00 -2.5579082942426075e+00
v -4.9218115879465358e+00 4.1643164768314147e+00 -2.5747301594172947e+00
v -4.8899529609713150e+00 4.1805522276859746e+00 -2.5883799744228306e+00
v -4.8953583427790406e+00 4.1208919506027497e+00 -2.5747301594172947e+00
v -4.9126004301207411e+00 4.1083648101192516e+00 -2.5579082942426079e+00
v -4.9262094256686026e+00 4.0984772718131985e+00 -2.5365957185428969e+00
v -4.9348320701965740e+00 4.0922125384778143e+00 -2.5129969303939279e+00
v -4.9385969020164397e+00 4.0894772213338086e+00 -2.4885483294180091e+00
v -4.9875076068396780e+00 4.1962920717961092e+00 -2.5129969303939279e+00
v -4.9773799909040628e+00 4.1995831909692631e+00 -2.5365957185428964e+00
v -4.9613957206803345e+00 4.2047775169129622e+00 -2.5579082942426075e+00
v -4.9411442493412769e+00 4.2113585332185046e+00 -2.5747301594172947e+00
v -5.0106268671019212e+00 4.3115066075599717e+00 -2.4885483294180091e+00
v -5.0059745657066266e+00 4.3115063364679855e+00 -2.5129969303939279e+00
v -4.9953193377740197e+00 4.3115057155823955e+00 -2.5365957185428964e+00
v -4.9785023451418962e+00 4.3115047356476195e+00 -2.5579082942426075e+00
v -4.9571958457189194e+00 4.3115034941069839e+00 -2.5747301594172942e+00
v -4.9214335882419915e+00 4.3115014102219202e+00 -2.5883799744228302e+00
v -4.9177391854936081e+00 4.2664095391668555e+00 -2.5883799744228302e+00
v -4.9530433331898704e+00 4.2608201841737765e+00 -2.5747301594172942e+00
v -4.9740768991778230e+00 4.2574901486185066e+00 -2.5579082942426075e+00
v -4.9906784683621641e+00 4.2548617870896637e+00 -2.5365957185428964e+00
v -5.0011972042365089e+00 4.2531964601318810e+00 -2.5129969303939279e+00
v -5.0057899102672438e+00 4.2524693426100111e+00 -2.4885483294180091e+00
v -5.0060773396418998e+00 4.3705676359310273e+00 -2.4885483294180091e+00
v -5.0014810922402262e+00 4.3698396834399098e+00 -2.5129969303939279e+00
v -4.9909542455167895e+00 4.3681724441409227e+00 -2.5365957185428964e+00
v -4.9743398750962582e+00 4.3655410643915271e+00 -2.5579082942426075e+00
v -4.9532900904217980e+00 4.3622072048639318e+00 -2.5747301594172942e+00
v -4.9179587201944521e+00 4.3566114314592577e+00 -2.5883799744228302e+00
v -4.9692796896730362e+00 4.4827997558080028e+00 -2.4885483294180091e+00
v -4.9651368201781239e+00 4.4806890094802032e+00 -2.5129969303939279e+00
v -4.9556483509211704e+00 4.4758547390149728e+00 -2.5365957185428969e+00
v -4.9406728366859465e+00 4.4682248796342385e+00 -2.5579082942426075e+00
v -4.9216994213796870e+00 4.4585581337392268e+00 -2.5747301594172942e+00
v -4.8898531687443336e+00 4.4423328191627443e+00 -2.5883799744228302e+00
v -4.9412803525077251e+00 4.4116154724352938e+00 -2.5747301594172942e+00
v -4.9615407695403775e+00 4.4181968039674953e+00 -2.5579082942426075e+00
v -4.9775321005046012e+00 4.4233913787162340e+00 -2.5365957185428964e+00
v -4.9876641901175844e+00 4.4266826555319847e+00 -2.5129969303939279e+00
v -4.9383602209878079e+00 4.5333509892170882e+00 -2.4885483294180091e+00
v -4.9345983052766993e+00 4.5306174093005493e+00 -2.5129969303939284e+00
v -4.9259823395515072e+00 4.5243566547604033e+00 -2.5365957185428969e+00
v -4.9123838850617858e+00 4.5144753961295132e+00 -2.5579082942426075e+00
v -4.8951551528457067e+00 4.5019562117591043e+00 -2.5747301594172947e+00
v -4.8550334332219425e+00 4.6170399182026793e+00 -2.4885483294180091e+00
v -4.8522981734153960e+00 4.6132752204980543e+00 -2.5129969303939284e+00
v -4.8460335714007599e+00 4.6046528831360085e+00 -2.5365957185428969e+00
v -4.8361462403563502e+00 4.5910443723836964e+00 -2.5579082942426079e+00
v -4.8236193624655881e+00 4.5738028992597899e+00 -2.5747301594172947e+00
v -4.8025934105427490e+00 4.5448636545299026e+00 -2.5883799744228306e+00
v -4.8622554027138083e+00 4.5407307294782999e+00 -2.5747301594172947e+00
v -4.8773217231967179e+00 4.5557984581910755e+00 -2.5579082942426079e+00
v -4.8892134091806243e+00 4.5676912556757863e+00 -2.5365957185428969e+00
v -4.8967479682681674e+00 4.5752265190090098e+00 -2.5129969303939284e+00
v -4.8044527689692176e+00 4.6478855362724198e+00 -2.4885483294180091e+00
v -4.8023407053640854e+00 4.6437407946855069e+00 -2.5129969303939284e+00
v -4.7975034179210105e+00 4.6342480377512736e+00 -2.5365957185428969e+00
v -4.7898687968876397e+00 4.6192657563368140e+00 -2.5579082942426075e+00
v -4.7801960181571888e+00 4.6002837672680723e+00 -2.5747301594172947e+00
v -4.6920857238387974e+00 4.6844381942013795e+00 -2.4885483294180091e+00
v -4.6913581164626192e+00 4.6798430932150890e+00 -2.5129969303939279e+00
v -4.6896916675849827e+00 4.6693188721420968e+00 -2.5365957185428964e+00
v -4.6870615353462091e+00 4.6527086457478095e+00 -2.5579082942426075e+00
v -4.6837292563678190e+00 4.6316641113992949e+00 -2.5747301594172942e+00
v -4.6781361358629239e+00 4.5963415536711114e+00 -2.5883799744228302e+00
v -4.7221271233590008e+00 4.5857044104828342e+00 -2.5883799744228302e+00
v -4.7331751720364945e+00 4.6197079513997021e+00 -2.5747301594172942e+00
v -4.7397573975272618e+00 4.6399666396380441e+00 -2.5579082942426075e+00
v -4.7449526778679560e+00 4.6559566060833664e+00 -2.5365957185428969e+00
v -4.7482444017459908e+00 4.6660878311386833e+00 -2.5129969303939279e+00
v -4.6330307034154750e+00 4.6899446048380753e+00 0.0000000000000000e+00
v -4.5424592971092057e+00 4.6789472450611385e+00 0.0000000000000000e+00
v -4.4571515717237897e+00 4.6465942923067889e+00 0.0000000000000000e+00
v -4.3820653021776632e+00 4.5947659825909097e+00 0.0000000000000000e+00
v -4.3215642295293613e+00 4.5264743888859478e+00 0.0000000000000000e+00
v -4.2791644562087532e+00 4.4456883703881926e+00 0.0000000000000000e+00
v -4.2573301029243256e+00 4.3571029168475039e+00 0.0000000000000000e+00
v -4.2573301029243256e+00 4.2658662928286448e+00 0.0000000000000000e+00
v -4.2791644562087532e+00 4.1772808392879570e+00 0.0000000000000000e+00
v -4.3215642295293621e+00 4.0964948207902019e+00 0.0000000000000000e+00
v -4.3820653021776641e+00 4.0282032270852399e+00 0.0000000000000000e+00
v -4.4571515717237906e+00 3.9763749173693612e+00 0.0000000000000000e+00
v -4.5424592971092057e+00 3.9440219646150112e+00 0.0000000000000000e+00
v -4.6330307034154750e+00 3.9330246048380748e+00 0.0000000000000000e+00
v -4.7236021097217442e+00 3.9440219646150112e+00 0.0000000000000000e+00
v -4.8089098351071593e+00 3.9763749173693612e+00 0.0000000000000000e+00
v -4.8839961046532867e+00 4.0282032270852399e+00 0.0000000000000000e+00
v -4.9444971773015878e+00 4.0964948207902019e+00 0.0000000000000000e+00
v -4.9868969506221967e+00 4.1772808392879570e+00 0.0000000000000000e+00
v -5.0087313039066244e+00 4.2658662928286457e+00 0.0000000000000000e+00
v -5.0087313039066244e+00 4.3571029168475048e+00 0.0000000000000000e+00
v -4.9868969506221967e+00 4.4456883703881926e+00 0.0000000000000000e+00
v -4.9444971773015878e+00 4.5264743888859478e+00 0.0000000000000000e+00
v -4.8839961046532867e+00 4.5947659825909097e+00 0.0000000000000000e+00
v -4.8089098351071593e+00 4.6465942923067889e+00 0.0000000000000000e+00
v -4.7236021097217442e+00 4.6789472450611385e+00 0.0000000000000000e+00

vn -1.5487268573300823e-15 4.5474736376956456e-16 -1.0000000000000000e+00
vn 0.0000000000000000e+00 -0.0000000000000000e+00 -1.0000000000000000e+00
vn 2.8687675910125939e-02 1.8115784528481294e-01 -9.8303552954236573e-01
vn -0.0000000000000000e+00 2.9495705841439163e-01 -9.5551050946158056e-01
vn 8.1397262504401033e-02 5.1401001369275279e-01 -8.5391345666897978e-01
vn -0.0000000000000000e+00 5.2040360048059198e-01 -8.5392042521937395e-01
vn -0.0000000000000000e+00 7.0710678118655568e-01 -7.0710678118653947e-01
vn 1.1059890221348978e-01 6.9841345386868536e-01 -7.0709725659514810e-01
vn -0.0000000000000000e+00 8.5392042521937384e-01 -5.2040360048059209e-01
vn 1.3356123364426861e-01 8.4341671233224369e-01 -5.2039374153240026e-01
vn -0.0000000000000000e+00 9.5551050946158089e-01 -2.9495705841439024e-01
vn 1.4945016430990257e-01 9.4375263540537013e-01 -2.9495018486714264e-01
vn 1.5579210727378887e-01 9.8380093788395673e-01 -8.8682207515596440e-02
vn 2.9549004562847220e-01 9.0867319597320373e-01 -2.9495534552594094e-01
vn 3.0802968274036935e-01 9.4723433297047877e-01 -8.8683893649521006e-02
vn 4.3430936828874134e-01 8.5111389498318446e-01 -2.9492458422991341e-01
vn 4.5273595402844236e-01 8.8722438281804861e-01 -8.8673843173106393e-02
vn 5.6107796120238962e-01 7.7343967538875669e-01 -2.9492810986324214e-01
vn 5.8488360541710682e-01 8.0625548888888854e-01 -8.8674995070907328e-02
vn 6.7574466828064672e-01 6.7555182192800278e-01 -2.9495572410115195e-01
vn 7.0442115400943950e-01 7.0422012386202948e-01 -8.8684017341105051e-02
vn 7.7383941383603772e-01 5.6053903758979606e-01 -2.9490430470205531e-01
vn 8.0666654559597273e-01 5.8431772928544312e-01 -8.8667217498711551e-02
vn 8.5121305977249329e-01 4.3414654413323417e-01 -2.9487811904229111e-01
vn 8.8731564195314516e-01 4.5256004367729158e-01 -8.8658662363503699e-02
vn 9.0830552552277022e-01 2.9664511575770491e-01 -2.9492837707128527e-01
vn 9.4684355656994401e-01 3.0923131980450314e-01 -8.8675082373485745e-02
vn 9.4392127902082767e-01 1.4838853400546592e-01 -2.9494654089748779e-01
vn 9.8397568430520377e-01 1.5468526087528994e-01 -8.8681016931750387e-02
vn 9.5553303852161564e-01 -1.1382102401107017e-03 -2.9488186918001219e-01
vn 9.9606125142342683e-01 -1.1864865686933381e-03 -8.8659887561507403e-02
vn 9.4391349008800995e-01 -1.4857830561658855e-01 -2.9487592361869064e-01
vn 9.8394715003906197e-01 -1.5487987183597235e-01 -8.8657945104094263e-02
vn 9.0916573092235264e-01 -2.9398721097224872e-01 -2.9493930477503777e-01
vn 9.4774330228505022e-01 -3.0646162814973926e-01 -8.8678652705365554e-02
vn 8.5057392239043017e-01 -4.3536157035431006e-01 -2.9493101838902519e-01
vn 8.8666317687415397e-01 -4.5383365619112165e-01 -8.8675945349522556e-02
vn 7.7229589162450152e-01 -5.6269288199225331e-01 -2.9484873466774192e-01
vn 8.0504440342364147e-01 -5.8655336692433546e-01 -8.8649062409024787e-02
vn 6.7648917708043654e-01 -6.7485446173035757e-01 -2.9484546592352928e-01
vn 7.0517441437052331e-01 -7.0347038202424217e-01 -8.8647994516831724e-02
vn 5.6313644833869891e-01 -7.7194295801961299e-01 -2.9492610958747961e-01
vn 5.8702908587100389e-01 -8.0469479524483389e-01 -8.8674341538736351e-02
vn 4.3200255266463627e-01 -8.5228342790174560e-01 -2.9493516747802057e-01
vn 4.5033266675081307e-01 -8.8844629863210567e-01 -8.8677300951329030e-02
vn 2.9276839153107759e-01 -9.0960071248355656e-01 -2.9481046923356052e-01
vn 3.0517954162178246e-01 -9.4816085521688542e-01 -8.8636561361005159e-02
vn 1.4967554538277822e-01 -9.4377956836307453e-01 -2.9474965217074772e-01
vn 1.5601786223807945e-01 -9.8377106496200173e-01 -8.8616693721829121e-02
vn 2.8132883995963410e-03 -9.5554726580487592e-01 -2.9482453802424025e-01
vn 2.9325625189884756e-03 -9.9605930811194887e-01 -8.8641157486902974e-02
vn -1.4792975681192475e-01 -9.4399388918251992e-01 -2.9494461214883205e-01
vn -1.5420692850900689e-01 -9.8405081789719595e-01 -8.8680386758729440e-02
vn -2.9780280285846117e-01 -9.0793459361708828e-01 -2.9490382215735605e-01
vn -3.1043588617799267e-01 -9.4645005841377206e-01 -8.8667059844409535e-02
vn -4.3544743367321248e-01 -8.5057963810124870e-01 -2.9478774017072379e-01
vn -4.5390405873090534e-01 -8.8663181856701656e-01 -8.8629136135674649e-02
vn -5.6065803492473809e-01 -7.7380312720005462e-01 -2.9477328272716152e-01
vn -5.8441928355063444e-01 -8.0659767815189221e-01 -8.8624413194896071e-02
vn -6.7364649393189091e-01 -6.7767814877931420e-01 -2.9487747943902504e-01
vn -7.0221779616689406e-01 -7.0642044519329905e-01 -8.8658453400742465e-02
vn -7.7334854516954810e-01 -5.6118955393390502e-01 -2.9495476303936546e-01
vn -8.0616680584023959e-01 -5.8500451444777257e-01 -8.8683703334216463e-02
vn -8.5294308439971911e-01 -4.3076405305215731e-01 -2.9483966044745707e-01
vn -8.8910899800619769e-01 -4.4902901798639189e-01 -8.8646097887001007e-02
vn -9.0922543917601106e-01 -2.9402136437351112e-01 -2.9472111910606036e-01
vn -9.4774480756461699e-01 -3.0647759003596725e-01 -8.8607372944089366e-02
vn -9.4347476788607854e-01 -1.5160197253049540e-01 -2.9474091044029382e-01
vn -9.8345082475009860e-01 -1.5802551376430529e-01 -8.8613838072156656e-02
vn -9.5552912143076285e-01 -3.2835920268253558e-03 -2.9487847686997348e-01
vn -9.9605617556951487e-01 -3.4228596941890512e-03 -8.8658779268303525e-02
vn -9.4358032242052547e-01 1.5053179144940149e-01 -2.9495144499359754e-01
vn -9.8362167699267489e-01 1.5691969154924970e-01 -8.8682619234020113e-02
vn -9.0775582497143226e-01 2.9842174147578504e-01 -2.9482846952930852e-01
vn -9.4624276095157522e-01 3.1107419507983869e-01 -8.8642441878430331e-02
vn -8.5099876602532021e-01 4.3467191877966038e-01 -2.9472262086204165e-01
vn -8.8705175040674566e-01 4.5308700999301316e-01 -8.8607863510638693e-02
vn -7.7448400620951074e-01 5.5972500365609068e-01 -2.9475828132192633e-01
vn -8.0730385737185806e-01 5.8344413944786044e-01 -8.8619512616941884e-02
vn -6.7779972208885098e-01 6.7351537491115332e-01 -2.9489756949585877e-01
vn -7.0655134482602733e-01 7.0208525969578495e-01 -8.8665017015924857e-02
vn -5.6058011097232396e-01 7.7379364486692626e-01 -2.9494632451653668e-01
vn -5.8436775977983024e-01 8.0662879387292230e-01 -8.8680946234334951e-02
vn -4.3201417152345650e-01 8.5230586584869805e-01 -2.9485329681521677e-01
vn -4.5033394689291661e-01 8.8844831912368949e-01 -8.8650552858617421e-02
vn -2.9567749749039546e-01 9.0865846706387454e-01 -2.9481283505123551e-01
vn -3.0821218566767616e-01 9.4717932387902970e-01 -8.8637334244764374e-02
vn -1.5173763675076207e-01 9.4340881749145677e-01 -2.9488216743754653e-01
vn -1.5817348799011796e-01 9.8342287687241448e-01 -8.8659985004644684e-02
vn -0.0000000000000000e+00 1.0000000000000000e+00 -0.0000000000000000e+00
vn -2.4091518795865308e-01 9.7054617211694116e-01 -0.0000000000000000e+00
vn -4.6276346281448627e-01 8.8648179760440982e-01 -0.0000000000000000e+00
vn 2.3910753276138308e-01 9.7099309357830355e-01 0.0000000000000000e+00
vn 4.6517499730164930e-01 8.8521874239388465e-01 0.0000000000000000e+00
vn 6.6259146489144294e-01 7.4898100820582325e-01 0.0000000000000000e+00
vn 8.2369715234724261e-01 5.6702998264205007e-01 0.0000000000000000e+00
vn 9.3449040454064647e-01 3.5598831978234774e-01 0.0000000000000000e+00
vn 9.9289460681056008e-01 1.1899705780607890e-01 0.0000000000000000e+00
vn 9.9276512529999061e-01 -1.2007250304750805e-01 -0.0000000000000000e+00
vn 9.3524141880263911e-01 -3.5401057689852516e-01 -0.0000000000000000e+00
vn 8.2204545879355706e-01 -5.6942186792999994e-01 -0.0000000000000000e+00
vn 6.6455481189547061e-01 -7.4723952116210757e-01 -0.0000000000000000e+00
vn 4.6312615408226832e-01 -8.8629237016064111e-01 -0.0000000000000000e+00
vn 2.3774330015719319e-01 -9.7132802040833088e-01 -0.0000000000000000e+00
vn 2.9441518043236757e-03 -9.9999566597568468e-01 -0.0000000000000000e+00
vn -2.4065080717598175e-01 -9.7061176018300344e-01 -0.0000000000000000e+00
vn -4.6623061855062609e-01 -8.8466321858993346e-01 -0.0000000000000000e+00
vn -6.6104877500697878e-01 -7.5034293297249943e-01 -0.0000000000000000e+00
vn -8.2383748195366857e-01 -5.6682607855341194e-01 -0.0000000000000000e+00
vn -9.3586597648513303e-01 -3.5235617499559768e-01 -0.0000000000000000e+00
vn -9.9235819544404891e-01 -1.2339048559362505e-01 -0.0000000000000000e+00
vn -9.9275944543767836e-01 1.2011945510313281e-01 -0.0000000000000000e+00
vn -9.3393200820003619e-01 3.5745070157917924e-01 -0.0000000000000000e+00
vn -8.2415519003095994e-01 5.6636403729847840e-01 -0.0000000000000000e+00
vn -6.6454134100915674e-01 7.4725150122950668e-01 -0.0000000000000000e+00
vn -1.3561180693114086e-01 8.4314858959436911e-01 -5.2029788937290244e-01
vn -2.6426704561585579e-01 8.1212973798455257e-01 -5.2020017039848154e-01
vn -3.8610972223301887e-01 7.6174256034225074e-01 -5.2025720000820097e-01
vn -5.0098284476111887e-01 6.9152888922712308e-01 -5.2038830177028172e-01
vn -6.0576057984398302e-01 6.0193158944160086e-01 -5.2031959557505558e-01
vn -6.9223468466389693e-01 5.0028284418769242e-01 -5.2012327111921097e-01
vn -7.6064217085627994e-01 3.8851970779589651e-01 -5.2007299926956119e-01
vn -8.1131432947388893e-01 2.6671691706685235e-01 -5.2022220727366841e-01
vn -8.4326199363155829e-01 1.3452775089345473e-01 -5.2039551721366517e-01
vn -8.5398296620935232e-01 -2.9346375699076826e-03 -5.2029268813487051e-01
vn -8.4328881429399372e-01 -1.3550362130650087e-01 -5.2009878321281877e-01
vn -8.1268733642646795e-01 -2.6280329296740101e-01 -5.2007088210891328e-01
vn -7.6231916421476098e-01 -3.8499602013608192e-01 -5.2023798049573999e-01
vn -6.9112712874581284e-01 -5.0152460687367428e-01 -5.2040019274763438e-01
vn -6.0205702764638735e-01 -6.0566023222890875e-01 -5.2029128241593792e-01
vn -5.0111165923180279e-01 -6.9161903484006970e-01 -5.2014441805025635e-01
vn -3.8919558765496826e-01 -7.6023376531506170e-01 -5.2016479756399070e-01
vn -2.6615004817429311e-01 -8.1143237575620031e-01 -5.2032840728857976e-01
vn -1.3220297253501470e-01 -8.4363552603878722e-01 -5.2038588879615566e-01
vn 2.5144066855944977e-03 -8.5403061907428690e-01 -5.2021666586395476e-01
vn 1.3378096018610583e-01 -8.4355621712782725e-01 -5.2011110662691451e-01
vn 2.6166740263469329e-01 -8.1297319914049948e-01 -5.2019683570517350e-01
vn 3.8607776433159829e-01 -7.6167994469378986e-01 -5.2037257973492423e-01
vn 5.0327435295271095e-01 -6.8988447446410139e-01 -5.2035981546754806e-01
vn 6.0461082382774134e-01 -6.0314980031395771e-01 -5.2024616297630932e-01
vn 6.9023634003390877e-01 -5.0290449507959523e-01 -5.2025077003819209e-01
vn 7.6015432392323246e-01 -3.8908079763927972e-01 -5.2036673291938584e-01
vn 8.1251298029236485e-01 -2.6273364341676952e-01 -5.2037840988396966e-01
vn 8.4360322326317583e-01 -1.3278879774612287e-01 -5.2028908973100652e-01
vn 8.5398448986362552e-01 -1.0172478104599294e-03 -5.2029746903022245e-01
vn 8.4356952466582213e-01 1.3261280138392248e-01 -5.2038860668176345e-01
vn 8.1175027740413586e-01 2.6511096568338821e-01 -5.2036301079989311e-01
vn 7.6075298479181930e-01 3.8800894264320396e-01 -5.2029218383446907e-01
vn 6.9158962730788753e-01 5.0096050571596784e-01 -5.2032908732160932e-01
vn 6.0389997355811575e-01 6.0372763049315659e-01 -5.2040154699580399e-01
vn 5.0143400091848289e-01 6.9122114521867628e-01 -5.2036263425179241e-01
vn 3.8814215368162530e-01 7.6064023562001870e-01 -5.2035766592922605e-01
vn 2.6407382141630986e-01 8.1206391494121943e-01 -5.2040101353948853e-01
vn -1.1230343428590023e-01 6.9823184549734529e-01 -7.0700794096032882e-01
vn -2.1885887994725778e-01 6.7258406894035372e-01 -7.0691686984812396e-01
vn -3.1975470495684422e-01 6.3083303426457404e-01 -7.0697002166889100e-01
vn -4.1485342101159195e-01 5.7264061718722536e-01 -7.0709218820632747e-01
vn -5.0163848748845774e-01 4.9846764901205243e-01 -7.0702816829224691e-01
vn -5.7331682269200990e-01 4.1434007430048148e-01 -7.0684519072213381e-01
vn -6.2999182208894111e-01 3.2178631163226235e-01 -7.0679832607835213e-01
vn -6.7189982822146133e-01 2.2088485837195251e-01 -7.0693740895356005e-01
vn -6.9828458611617084e-01 1.1139913284745939e-01 -7.0709891103960987e-01
vn -7.0720627753793908e-01 -2.4302523514627365e-03 -7.0700309397091021e-01
vn -6.9843193815783733e-01 -1.1222733570317669e-01 -7.0682236303193835e-01
vn -6.7309840287819211e-01 -2.1766363131153910e-01 -7.0679635231592808e-01
vn -6.3131787292336827e-01 -3.1883609900668802e-01 -7.0695210962109101e-01
vn -5.7230381771305483e-01 -4.1529906040832809e-01 -7.0710326732028495e-01
vn -4.9858005099058478e-01 -5.0156396421140603e-01 -7.0700178398556057e-01
vn -4.1502120903331835e-01 -5.7279962008827701e-01 -7.0686490313160133e-01
vn -3.2232823294660540e-01 -6.2961866468431560e-01 -7.0688389946769803e-01
vn -2.2040126342315611e-01 -6.7195449343673208e-01 -7.0703637942588315e-01
vn -1.0947467747238766e-01 -6.9859796150105624e-01 -7.0708993995027636e-01
vn 2.0823434421036696e-03 -7.0727820967673682e-01 -7.0693224425135615e-01
vn 1.1079976213785997e-01 -6.9864820881576772e-01 -7.0683385107726204e-01
vn 2.1670636172820282e-01 -6.7328395663494134e-01 -7.0691376173089426e-01
vn 3.1970596157338615e-01 -6.3073722868002058e-01 -7.0707753923560890e-01
vn 4.1675814086113033e-01 -5.7128874002772279e-01 -7.0706564585157961e-01
vn 5.0070856288210208e-01 -4.9949861599545836e-01 -7.0695973554026514e-01
vn 5.7161775926825764e-01 -4.1647928967230557e-01 -7.0696402918620127e-01
vn 6.2947610475426574e-01 -3.2219387198722821e-01 -7.0707209137207094e-01
vn 6.7282903344850320e-01 -2.1756553758796182e-01 -7.0708297151240596e-01
vn 6.9861205119316439e-01 -1.0996621612000756e-01 -7.0699974062224902e-01
vn 7.0720549747225636e-01 -8.4240785680726293e-04 -7.0700754924825326e-01
vn 6.9854216044299244e-01 1.0981386841566217e-01 -7.0709247230275651e-01
vn 6.7220370286073150e-01 2.1953620191082493e-01 -7.0706862319784136e-01
vn 6.3000021269544648e-01 3.2132074573437286e-01 -7.0700262401521463e-01
vn 5.7271139372399860e-01 4.1484975786305039e-01 -7.0703701310446521e-01
vn 5.0007294364894772e-01 4.9993023110120516e-01 -7.0710452909125965e-01
vn 4.1523345072026990e-01 5.7239465376147369e-01 -7.0706827233883118e-01
vn 3.2141835045510764e-01 6.2988193244093538e-01 -7.0706364294537916e-01
vn 2.1867233241314876e-01 6.7244798971876318e-01 -7.0710403206330807e-01
vn -8.2656529009199495e-02 5.1390610767586975e-01 -8.5385502909193456e-01
vn -1.6109198631741470e-01 4.9505829353217734e-01 -8.5379544268479102e-01
vn -2.3534866813913027e-01 4.6431127401979616e-01 -8.5383022037361234e-01
vn -3.0531988181256303e-01 4.2144660428337849e-01 -8.5391014135444709e-01
vn -3.6920645221329096e-01 3.6687271177347797e-01 -8.5386826208733735e-01
vn -4.2201183239457440e-01 3.0499090043967136e-01 -8.5374853672962292e-01
vn -4.6374372612562481e-01 2.3687034964637610e-01 -8.5371786553727769e-01
vn -4.9454807111003213e-01 1.6258105160469774e-01 -8.5380888202246830e-01
vn -5.1391461999880061e-01 8.1986118788498291e-02 -8.5391453886058566e-01
vn -5.2051302103724129e-01 -1.7886973483124374e-03 -8.5385185804826857e-01
vn -5.1411521813606098e-01 -8.2610456400444940e-02 -8.5373359719189945e-01
vn -4.9547557572489848e-01 -1.6022473471530749e-01 -8.5371657372074583e-01
vn -4.6467352436997839e-01 -2.3467527243569059e-01 -8.5381850076981669e-01
vn -4.2119570491446251e-01 -3.0564566421729339e-01 -8.5391738833846131e-01
vn -3.6696171566921953e-01 -3.6915791648541318e-01 -8.5385100101203326e-01
vn -3.0548837237303039e-01 -4.2162573822248245e-01 -8.5376143694431617e-01
vn -2.3725610317859266e-01 -4.6344333385234898e-01 -8.5377386807768330e-01
vn -1.6221469733394672e-01 -4.9455657867873215e-01 -8.5387363377401648e-01
vn -8.0570251096303211e-02 -5.1414824389599978e-01 -8.5390867072359578e-01
vn 1.5327022526770661e-03 -5.2058987164184356e-01 -8.5380550265721133e-01
vn 8.1559013255207993e-02 -5.1427058528009051e-01 -8.5374111560385213e-01
vn 1.5950793771243485e-01 -4.9557444719783761e-01 -8.5379340890597399e-01
vn 2.3529639231458402e-01 -4.6420840473705938e-01 -8.5390055904374251e-01
vn 3.0672697666910592e-01 -4.2045889654784963e-01 -8.5389277904031646e-01
vn 3.6853837420864044e-01 -3.6764781252957351e-01 -8.5382349035258542e-01
vn 4.2072876115501434e-01 -3.0654193777124444e-01 -8.5382629962095757e-01
vn 4.6328188193101666e-01 -2.3712827577331616e-01 -8.5389699537077046e-01
vn 4.9518528202821299e-01 -1.6012277522854859e-01 -8.5390411248321485e-01
vn 5.1418867630961906e-01 -8.0936741656481098e-02 -8.5384966417103780e-01
vn 5.2051094368914319e-01 -6.2002135176431137e-04 -8.5385477282343558e-01
vn 5.1410633199315858e-01 8.0819753323629021e-02 -8.5391032718737392e-01
vn 4.9472965575428773e-01 1.6157463747183018e-01 -8.5389472667483457e-01
vn 4.6368849411342122e-01 2.3649632129409787e-01 -8.5385155058779783e-01
vn 4.2151376897534476e-01 3.0532810576427111e-01 -8.5387404832012659e-01
vn 3.6803599280123661e-01 3.6793096141559650e-01 -8.5391821366838350e-01
vn 3.0560431009096034e-01 4.2127211321510749e-01 -8.5389449716057186e-01
vn 2.3655880284587691e-01 4.6358310177839235e-01 -8.5389146883058287e-01
vn 1.6093515137913295e-01 4.9489808713209721e-01 -8.5391788856046724e-01
vn -2.9133237956718253e-02 1.8113207875770562e-01 -9.8302717383146099e-01
vn -5.6782181243009086e-02 1.7449961597600228e-01 -9.8301865084926743e-01
vn -8.2953437607123995e-02 1.6365597733876802e-01 -9.8302362548946587e-01
vn -1.0760739773463171e-01 1.4853527422388149e-01 -9.8303505546039260e-01
vn -1.3012926587206936e-01 1.2930672355638495e-01 -9.8302906640989451e-01
vn -1.4875913978687028e-01 1.0750926990551141e-01 -9.8301194052475993e-01
vn -1.6347477237881572e-01 8.3499407776874923e-02 -9.8300755220730907e-01
vn -1.7431736829424740e-01 5.7306261424960474e-02 -9.8302057329053993e-01
vn -1.8112402367076039e-01 2.8895180526594517e-02 -9.8303568429210619e-01
vn -1.8346135754842072e-01 -6.3044886583269507e-04 -9.8302672029844551e-01
vn -1.8122835368394205e-01 -2.9120626043340883e-02 -9.8300980308430896e-01
vn -1.7466083039133024e-01 -5.6481058977856283e-02 -9.8300736737002681e-01
vn -1.6378562867405125e-01 -8.2717079872899266e-02 -9.8302194916346919e-01
vn -1.4844574353029383e-01 -1.0772141632061664e-01 -9.8303609175534268e-01
vn -1.2934038339805359e-01 -1.3011446266424703e-01 -9.8302659772156664e-01
vn -1.0768320379898319e-01 -1.4862107497980095e-01 -9.8301378611463786e-01
vn -8.3630585809723823e-02 -1.6335949625923760e-01 -9.8301556452532868e-01
vn -5.7173332298115123e-02 -1.7430879000322105e-01 -9.8302983464467764e-01
vn -2.8396343142735862e-02 -1.8120745264222837e-01 -9.8303484516218176e-01
vn 5.4024586238510578e-04 -1.8349716891385434e-01 -9.8302008989389866e-01
vn 2.8749765007994851e-02 -1.8128172334628448e-01 -9.8301087877631654e-01
vn 5.6223948379545884e-02 -1.7468191575334352e-01 -9.8301835991875353e-01
vn 8.2929028929070919e-02 -1.6360791530576824e-01 -9.8303368518590550e-01
vn 1.0810524139657256e-01 -1.4818980385176952e-01 -9.8303257261240473e-01
vn 1.2989976236685821e-01 -1.2958586357481630e-01 -9.8302266286113815e-01
vn 1.4829502825550897e-01 -1.0804739185998966e-01 -9.8302306468716771e-01
vn 1.6328196380179893e-01 -8.3574972497988148e-02 -9.8303317556885561e-01
vn 1.7452492370532735e-01 -5.6434260355615329e-02 -9.8303419333396747e-01
vn 1.8123267055543157e-01 -2.8527236231140441e-02 -9.8302640652037365e-01
vn 1.8346007688913493e-01 -2.1853366629296522e-04 -9.8302713717926904e-01
vn 1.8119237329818882e-01 2.8484229823252449e-02 -9.8303508203417944e-01
vn 1.7436601960223083e-01 5.6946508213023772e-02 -9.8303285113490402e-01
vn 1.6343289024134616e-01 8.3356127683186745e-02 -9.8302667632421070e-01
vn 1.4856444533941282e-01 1.0761427981266598e-01 -9.8302989393069529e-01
vn 1.2971008420672045e-01 1.2967306709387522e-01 -9.8303620977334960e-01
vn 1.0770937025436279e-01 1.4847615862032801e-01 -9.8303281831318312e-01
vn 8.3374736480878953e-02 1.6338905372691240e-01 -9.8303238524423397e-01
vn 5.6719775798907739e-02 1.7442123926867750e-01 -9.8303616328459675e-01
vn 3.6584122081769139e-15 1.1466619736981393e-15 -1.0000000000000000e+00
vn 1.7179650607175716e-15 1.1041344602485100e-15 -1.0000000000000000e+00
vn -1.6425763536821294e-15 -1.8953489218734635e-15 -1.0000000000000000e+00
vn -1.3670218675621977e-15 -2.9937904707799223e-15 -1.0000000000000000e+00
vn -3.2006667388750254e-17 -2.2261298597277030e-16 -1.0000000000000000e+00
vn -5.1578129473225414e-16 3.0996670750172148e-15 -1.0000000000000000e+00
vn -1.1409727090274702e-15 2.4978506125224266e-15 -1.0000000000000000e+00
vn 9.6577569028017290e-16 -9.0212811906015336e-16 -1.0000000000000000e+00
vn 3.1049439627459731e-15 -1.9126859398527381e-15 -1.0000000000000000e+00
vn 1.3910796144970063e-15 -4.8092909555923215e-16 -1.0000000000000000e+00
vn 7.2155477153038324e-16 4.6371043146377974e-16 -1.0000000000000000e+00
vn 2.6247153141597549e-15 3.1353560253221326e-15 -1.0000000000000000e+00
vn 4.6416101079319515e-16 8.4891863302871129e-16 -1.0000000000000000e+00
vn -1.2205192674642349e-15 -8.4880931359465215e-15 -1.0000000000000000e+00
vn 5.0428556256807354e-16 -3.5071414816128330e-15 -1.0000000000000000e+00
vn -3.5569838829648467e-15 7.7890161313925663e-15 -1.0000000000000000e+00
vn -2.7432500436483690e-15 3.1658118911955413e-15 -1.0000000000000000e+00
vn 9.1289407019411037e-15 -5.8668567914578732e-15 -1.0000000000000000e+00
vn 2.3931566428755813e-01 9.7094181742605201e-01 0.0000000000000000e+00
vn -2.3931566428755813e-01 9.7094181742605201e-01 -0.0000000000000000e+00
vn -4.6472317204376762e-01 8.8545602565321035e-01 -0.0000000000000000e+00
vn -4.6472317204376956e-01 8.8545602565320936e-01 -0.0000000000000000e+00
vn -6.6312265824079575e-01 7.4851074817110053e-01 -0.0000000000000000e+00
vn -8.2298386589365646e-01 5.6806474673115570e-01 -0.0000000000000000e+00
vn -9.3501624268541506e-01 3.5460488704253540e-01 -0.0000000000000000e+00
vn -9.9270887409805386e-01 1.2053668025532431e-01 -0.0000000000000000e+00
vn -9.9270887409805408e-01 1.2053668025532191e-01 -0.0000000000000000e+00
vn -9.9270887409805408e-01 -1.2053668025532198e-01 -0.0000000000000000e+00
vn -9.9270887409805386e-01 -1.2053668025532421e-01 -0.0000000000000000e+00
vn -9.3501624268541483e-01 -3.5460488704253545e-01 -0.0000000000000000e+00
vn -8.2298386589365646e-01 -5.6806474673115570e-01 -0.0000000000000000e+00
vn -6.6312265824079575e-01 -7.4851074817110053e-01 -0.0000000000000000e+00
vn -4.6472317204376828e-01 -8.8545602565320991e-01 -0.0000000000000000e+00
vn -2.3931566428755813e-01 -9.7094181742605201e-01 -0.0000000000000000e+00
vn -1.2246467991473530e-16 -1.0000000000000000e+00 -0.0000000000000000e+00
vn 1.2246467991473530e-16 -1.0000000000000000e+00 -0.0000000000000000e+00
vn 2.3931566428755813e-01 -9.7094181742605201e-01 -0.0000000000000000e+00
vn 4.6472317204376828e-01 -8.8545602565320991e-01 -0.0000000000000000e+00
vn 6.6312265824079442e-01 -7.4851074817110164e-01 -0.0000000000000000e+00
vn 6.6312265824079575e-01 -7.4851074817110053e-01 -0.0000000000000000e+00
vn 8.2298386589365646e-01 -5.6806474673115570e-01 -0.0000000000000000e+00
vn 9.3501624268541483e-01 -3.5460488704253545e-01 -0.0000000000000000e+00
vn 9.9270887409805386e-01 -1.2053668025532421e-01 -0.0000000000000000e+00
vn 9.9270887409805408e-01 -1.2053668025532198e-01 -0.0000000000000000e+00
vn 9.9270887409805408e-01 1.2053668025532191e-01 0.0000000000000000e+00
vn 9.9270887409805386e-01 1.2053668025532431e-01 0.0000000000000000e+00
vn 9.3501624268541506e-01 3.5460488704253540e-01 0.0000000000000000e+00
vn 8.2298386589365724e-01 5.6806474673115481e-01 0.0000000000000000e+00
vn 8.2298386589365646e-01 5.6806474673115570e-01 0.0000000000000000e+00
vn 6.6312265824079575e-01 7.4851074817110053e-01 0.0000000000000000e+00
vn 4.6472317204376956e-01 8.8545602565320936e-01 0.0000000000000000e+00
vn 4.6472317204376762e-01 8.8545602565321035e-01 0.0000000000000000e+00
vn 0.0000000000000000e+00 0.0000000000000000e+00 1.0000000000000000e+00

g face 0
f 53//1 1//2 87//3
f 87//3 1//2 2//4
f 87//3 2//4 86//5
f 86//5 2//4 3//6
f 86//5 3//6 4//7
f 86//5 4//7 85//8
f 85//8 4//7 5//9
f 85//8 5//9 84//10
f 84//10 5//9 6//11
f 84//10 6//11 83//12
f 83//12 6//11 82//13
f 83//12 82//13 88//14
f 88//14 82//13 55//15
f 88//14 55//15 102//16
f 102//16 55//15 103//17
f 102//16 103//17 94//18
f 94//18 103//17 93//19
f 94//18 93//19 104//20
f 104//20 93//19 58//21
f 104//20 58//21 117//22
f 117//22 58//21 118//23
f 117//22 118//23 109//24
f 109//24 118//23 108//25
f 109//24 108//25 119//26
f 119//26 108//25 60//27
f 119//26 60//27 133//28
f 133//28 60//27 134//29
f 133//28 134//29 124//30
f 124//30 134//29 123//31
f 124//30 123//31 136//32
f 136//32 123//31 135//33
f 136//32 135//33 150//34
f 150//34 135//33 62//35
f 150//34 62//35 142//36
f 142//36 62//35 141//37
f 142//36 141//37 152//38
f 152//38 141//37 151//39
f 152//38 151//39 165//40
f 165//40 151//39 65//41
f 165//40 65//41 157//42
f 157//42 65//41 156//43
f 157//42 156//43 167//44
f 167//44 156//43 166//45
f 167//44 166//45 181//46
f 181//46 166//45 67//47
f 181//46 67//47 172//48
f 172//48 67//47 171//49
f 172//48 171//49 192//50
f 192//50 171//49 193//51
f 192//50 193//51 183//52
f 183//52 193//51 182//53
f 183//52 182//53 194//54
f 194//54 182//53 69//55
f 194//54 69//55 208//56
f 208//56 69//55 209//57
f 208//56 209//57 200//58
f 200//58 209//57 199//59
f 200//58 199//59 210//60
f 210//60 199//59 72//61
f 210//60 72//61 223//62
f 223//62 72//61 224//63
f 223//62 224//63 215//64
f 215//64 224//63 214//65
f 215//64 214//65 225//66
f 225//66 214//65 74//67
f 225//66 74//67 239//68
f 239//68 74//67 240//69
f 239//68 240//69 230//70
f 230//70 240//69 229//71
f 230//70 229//71 242//72
f 242//72 229//71 241//73
f 242//72 241//73 256//74
f 256//74 241//73 76//75
f 256//74 76//75 248//76
f 248//76 76//75 247//77
f 248//76 247//77 258//78
f 258//78 247//77 257//79
f 258//78 257//79 271//80
f 271//80 257//79 79//81
f 271//80 79//81 263//82
f 263//82 79//81 262//83
f 263//82 262//83 273//84
f 273//84 262//83 272//85
f 273//84 272//85 287//86
f 287//86 272//85 81//87
f 287//86 81//87 278//88
f 278//88 81//87 277//89
f 278//88 277//89 6//11
f 6//11 277//89 7//90
f 7//90 277//89 32//91
f 32//91 277//89 81//87
f 32//91 81//87 31//92
f 31//92 81//87 272//85
f 31//92 272//85 262//83
f 6//11 7//90 82//13
f 82//13 7//90 8//93
f 82//13 8//93 55//15
f 55//15 8//93 9//94
f 55//15 9//94 103//17
f 103//17 9//94 93//19
f 9//94 10//95 93//19
f 93//19 10//95 58//21
f 10//95 11//96 58//21
f 58//21 11//96 118//23
f 118//23 11//96 108//25
f 108//25 11//96 12//97
f 108//25 12//97 60//27
f 60//27 12//97 13//98
f 60//27 13//98 134//29
f 134//29 13//98 123//31
f 13//98 14//99 123//31
f 123//31 14//99 135//33
f 135//33 14//99 62//35
f 62//35 14//99 15//100
f 62//35 15//100 141//37
f 141//37 15//100 16//101
f 141//37 16//101 151//39
f 151//39 16//101 65//41
f 16//101 17//102 65//41
f 65//41 17//102 156//43
f 17//102 18//103 156//43
f 156//43 18//103 166//45
f 166//45 18//103 67//47
f 67//47 18//103 19//104
f 67//47 19//104 171//49
f 171//49 19//104 20//105
f 171//49 20//105 193//51
f 193//51 20//105 182//53
f 20//105 21//106 182//53
f 182//53 21//106 69//55
f 21//106 22//107 69//55
f 69//55 22//107 209//57
f 209//57 22//107 199//59
f 199//59 22//107 23//108
f 199//59 23//108 72//61
f 72//61 23//108 24//109
f 72//61 24//109 224//63
f 224//63 24//109 214//65
f 24//109 25//110 214//65
f 214//65 25//110 74//67
f 25//110 26//111 74//67
f 74//67 26//111 240//69
f 240//69 26//111 229//71
f 229//71 26//111 27//112
f 229//71 27//112 241//73
f 241//73 27//112 76//75
f 27//112 28//113 76//75
f 76//75 28//113 247//77
f 28//113 29//114 247//77
f 247//77 29//114 257//79
f 257//79 29//114 79//81
f 79//81 29//114 30//115
f 79//81 30//115 262//83
f 262//83 30//115 31//92
f 6//11 5//9 278//88
f 278//88 5//9 279//116
f 278//88 279//116 287//86
f 287//86 279//116 286//117
f 287//86 286//117 273//84
f 273//84 286//117 274//118
f 273//84 274//118 263//82
f 263//82 274//118 264//119
f 263//82 264//119 271//80
f 271//80 264//119 270//120
f 271//80 270//120 258//78
f 258//78 270//120 259//121
f 258//78 259//121 248//76
f 248//76 259//121 249//122
f 248//76 249//122 256//74
f 256//74 249//122 255//123
f 256//74 255//123 242//72
f 242//72 255//123 243//124
f 242//72 243//124 230//70
f 230//70 243//124 231//125
f 230//70 231//125 239//68
f 239//68 231//125 238//126
f 239//68 238//126 225//66
f 225//66 238//126 226//127
f 225//66 226//127 215//64
f 215//64 226//127 216//128
f 215//64 216//128 223//62
f 223//62 216//128 222//129
f 223//62 222//129 210//60
f 210//60 222//129 211//130
f 210//60 211//130 200//58
f 200//58 211//130 201//131
f 200//58 201//131 208//56
f 208//56 201//131 207//132
f 208//56 207//132 194//54
f 194//54 207//132 195//133
f 194//54 195//133 183//52
f 183//52 195//133 184//134
f 183//52 184//134 192//50
f 192//50 184//134 191//135
f 192//50 191//135 172//48
f 172//48 191//135 173//136
f 172//48 173//136 181//46
f 181//46 173//136 180//137
f 181//46 180//137 167//44
f 167//44 180//137 168//138
f 167//44 168//138 157//42
f 157//42 168//138 158//139
f 157//42 158//139 165//40
f 165//40 158//139 164//140
f 165//40 164//140 152//38
f 152//38 164//140 153//141
f 152//38 153//141 142//36
f 142//36 153//141 143//142
f 142//36 143//142 150//34
f 150//34 143//142 149//143
f 150//34 149//143 136//32
f 136//32 149//143 137//144
f 136//32 137//144 124//30
f 124//30 137//144 125//145
f 124//30 125//145 133//28
f 133//28 125//145 132//146
f 133//28 132//146 119//26
f 119//26 132//146 120//147
f 119//26 120//147 109//24
f 109//24 120//147 110//148
f 109//24 110//148 117//22
f 117//22 110//148 116//149
f 117//22 116//149 104//20
f 104//20 116//149 105//150
f 104//20 105//150 94//18
f 94//18 105//150 95//151
f 94//18 95//151 102//16
f 102//16 95//151 101//152
f 102//16 101//152 88//14
f 88//14 101//152 89//153
f 88//14 89//153 83//12
f 83//12 89//153 84//10
f 5//9 4//7 279//116
f 279//116 4//7 280//154
f 279//116 280//154 286//117
f 286//117 280//154 285//155
f 286//117 285//155 274//118
f 274//118 285//155 275//156
f 274//118 275//156 264//119
f 264//119 275//156 265//157
f 264//119 265//157 270//120
f 270//120 265//157 269//158
f 270//120 269//158 259//121
f 259//121 269//158 260//159
f 259//121 260//159 249//122
f 249//122 260//159 250//160
f 249//122 250//160 255//123
f 255//123 250//160 254//161
f 255//123 254//161 243//124
f 243//124 254//161 244//162
f 243//124 244//162 231//125
f 231//125 244//162 232//163
f 231//125 232//163 238//126
f 238//126 232//163 237//164
f 238//126 237//164 226//127
f 226//127 237//164 227//165
f 226//127 227//165 216//128
f 216//128 227//165 217//166
f 216//128 217//166 222//129
f 222//129 217//166 221//167
f 222//129 221//167 211//130
f 211//130 221//167 212//168
f 211//130 212//168 201//131
f 201//131 212//168 202//169
f 201//131 202//169 207//132
f 207//132 202//169 206//170
f 207//132 206//170 195//133
f 195//133 206//170 196//171
f 195//133 196//171 184//134
f 184//134 196//171 185//172
f 184//134 185//172 191//135
f 191//135 185//172 190//173
f 191//135 190//173 173//136
f 173//136 190//173 174//174
f 173//136 174//174 180//137
f 180//137 174//174 179//175
f 180//137 179//175 168//138
f 168//138 179//175 169//176
f 168//138 169//176 158//139
f 158//139 169//176 159//177
f 158//139 159//177 164//140
f 164//140 159//177 163//178
f 164//140 163//178 153//141
f 153//141 163//178 154//179
f 153//141 154//179 143//142
f 143//142 154//179 144//180
f 143//142 144//180 149//143
f 149//143 144//180 148//181
f 149//143 148//181 137//144
f 137//144 148//181 138//182
f 137//144 138//182 125//145
f 125//145 138//182 126//183
f 125//145 126//183 132//146
f 132//146 126//183 131//184
f 132//146 131//184 120//147
f 120//147 131//184 121//185
f 120//147 121//185 110//148
f 110//148 121//185 111//186
f 110//148 111//186 116//149
f 116//149 111//186 115//187
f 116//149 115//187 105//150
f 105//150 115//187 106//188
f 105//150 106//188 95//151
f 95//151 106//188 96//189
f 95//151 96//189 101//152
f 101//152 96//189 100//190
f 101//152 100//190 89//153
f 89//153 100//190 90//191
f 89//153 90//191 84//10
f 84//10 90//191 85//8
f 4//7 3//6 280//154
f 280//154 3//6 281//192
f 280//154 281//192 285//155
f 285//155 281//192 284//193
f 285//155 284//193 275//156
f 275//156 284//193 276//194
f 275//156 276//194 265//157
f 265//157 276//194 266//195
f 265//157 266//195 269//158
f 269//158 266//195 268//196
f 269//158 268//196 260//159
f 260//159 268//196 261//197
f 260//159 261//197 250//160
f 250//160 261//197 251//198
f 250//160 251//198 254//161
f 254//161 251//198 253//199
f 254//161 253//199 244//162
f 244//162 253//199 245//200
f 244//162 245//200 232//163
f 232//163 245//200 233//201
f 232//163 233//201 237//164
f 237//164 233//201 236//202
f 237//164 236//202 227//165
f 227//165 236//202 228//203
f 227//165 228//203 217//166
f 217//166 228//203 218//204
f 217//166 218//204 221//167
f 221//167 218//204 220//205
f 221//167 220//205 212//168
f 212//168 220//205 213//206
f 212//168 213//206 202//169
f 202//169 213//206 203//207
f 202//169 203//207 206//170
f 206//170 203//207 205//208
f 206//170 205//208 196//171
f 196//171 205//208 197//209
f 196//171 197//209 185//172
f 185//172 197//209 186//210
f 185//172 186//210 190//173
f 190//173 186//210 189//211
f 190//173 189//211 174//174
f 174//174 189//211 175//212
f 174//174 175//212 179//175
f 179//175 175//212 178//213
f 179//175 178//213 169//176
f 169//176 178//213 170//214
f 169//176 170//214 159//177
f 159//177 170//214 160//215
f 159//177 160//215 163//178
f 163//178 160//215 162//216
f 163//178 162//216 154//179
f 154//179 162//216 155//217
f 154//179 155//217 144//180
f 144//180 155//217 145//218
f 144//180 145//218 148//181
f 148//181 145//218 147//219
f 148//181 147//219 138//182
f 138//182 147//219 139//220
f 138//182 139//220 126//183
f 126//183 139//220 127//221
f 126//183 127//221 131//184
f 131//184 127//221 130//222
f 131//184 130//222 121//185
f 121//185 130//222 122//223
f 121//185 122//223 111//186
f 111//186 122//223 112//224
f 111//186 112//224 115//187
f 115//187 112//224 114//225
f 115//187 114//225 106//188
f 106//188 114//225 107//226
f 106//188 107//226 96//189
f 96//189 107//226 97//227
f 96//189 97//227 100//190
f 100//190 97//227 99//228
f 100//190 99//228 90//191
f 90//191 99//228 91//229
f 90//191 91//229 85//8
f 85//8 91//229 86//5
f 3//6 2//4 281//192
f 281//192 2//4 282//230
f 281//192 282//230 284//193
f 284//193 282//230 283//231
f 284//193 283//231 276//194
f 276//194 283//231 80//232
f 276//194 80//232 266//195
f 266//195 80//232 267//233
f 266//195 267//233 268//196
f 268//196 267//233 78//234
f 268//196 78//234 261//197
f 261//197 78//234 77//235
f 261//197 77//235 251//198
f 251//198 77//235 252//236
f 251//198 252//236 253//199
f 253//199 252//236 75//237
f 253//199 75//237 245//200
f 245//200 75//237 246//238
f 245//200 246//238 233//201
f 233//201 246//238 234//239
f 233//201 234//239 236//202
f 236//202 234//239 235//240
f 236//202 235//240 228//203
f 228//203 235//240 73//241
f 228//203 73//241 218//204
f 218//204 73//241 219//242
f 218//204 219//242 220//205
f 220//205 219//242 71//243
f 220//205 71//243 213//206
f 213//206 71//243 70//244
f 213//206 70//244 203//207
f 203//207 70//244 204//245
f 203//207 204//245 205//208
f 205//208 204//245 68//246
f 205//208 68//246 197//209
f 197//209 68//246 198//247
f 197//209 198//247 186//210
f 186//210 198//247 187//248
f 186//210 187//248 189//211
f 189//211 187//248 188//249
f 189//211 188//249 175//212
f 175//212 188//249 176//250
f 175//212 176//250 178//213
f 178//213 176//250 177//251
f 178//213 177//251 170//214
f 170//214 177//251 66//252
f 170//214 66//252 160//215
f 160//215 66//252 161//253
f 160//215 161//253 162//216
f 162//216 161//253 64//254
f 162//216 64//254 155//217
f 155//217 64//254 63//255
f 155//217 63//255 145//218
f 145//218 63//255 146//256
f 145//218 146//256 147//219
f 147//219 146//256 61//257
f 147//219 61//257 139//220
f 139//220 61//257 140//258
f 139//220 140//258 127//221
f 127//221 140//258 128//259
f 127//221 128//259 130//222
f 130//222 128//259 129//260
f 130//222 129//260 122//223
f 122//223 129//260 59//261
f 122//223 59//261 112//224
f 112//224 59//261 113//262
f 112//224 113//262 114//225
f 114//225 113//262 57//263
f 114//225 57//263 107//226
f 107//226 57//263 56//264
f 107//226 56//264 97//227
f 97//227 56//264 98//265
f 97//227 98//265 99//228
f 99//228 98//265 54//266
f 99//228 54//266 91//229
f 91//229 54//266 92//267
f 91//229 92//267 86//5
f 86//5 92//267 87//3
f 2//4 1//2 282//230
f 282//230 1//2 33//268
f 282//230 33//268 283//231
f 283//231 33//268 80//232
f 33//268 34//269 80//232
f 80//232 34//269 267//233
f 267//233 34//269 78//234
f 78//234 34//269 35//270
f 78//234 35//270 77//235
f 77//235 35//270 36//271
f 77//235 36//271 252//236
f 252//236 36//271 75//237
f 36//271 37//272 75//237
f 75//237 37//272 246//238
f 246//238 37//272 234//239
f 234//239 37//272 38//273
f 234//239 38//273 235//240
f 235//240 38//273 73//241
f 38//273 39//274 73//241
f 73//241 39//274 219//242
f 219//242 39//274 71//243
f 71//243 39//274 40//275
f 71//243 40//275 70//244
f 70//244 40//275 41//276
f 70//244 41//276 204//245
f 204//245 41//276 68//246
f 41//276 42//277 68//246
f 68//246 42//277 198//247
f 198//247 42//277 187//248
f 187//248 42//277 43//2
f 187//248 43//2 188//249
f 188//249 43//2 176//250
f 43//2 44//2 176//250
f 176//250 44//2 177//251
f 177//251 44//2 66//252
f 66//252 44//2 45//278
f 66//252 45//278 161//253
f 161//253 45//278 64//254
f 45//278 46//279 64//254
f 64//254 46//279 63//255
f 46//279 47//280 63//255
f 63//255 47//280 146//256
f 146//256 47//280 61//257
f 61//257 47//280 48//281
f 61//257 48//281 140//258
f 140//258 48//281 128//259
f 48//281 49//282 128//259
f 128//259 49//282 129//260
f 129//260 49//282 59//261
f 59//261 49//282 50//283
f 59//261 50//283 113//262
f 113//262 50//283 57//263
f 50//283 51//284 57//263
f 57//263 51//284 56//264
f 51//284 52//285 56//264
f 56//264 52//285 98//265
f 98//265 52//285 54//266
f 54//266 52//285 53//1
f 54//266 53//1 92//267
f 92//267 53//1 87//3

g face 1
f 289//286 8//286 288//90
f 288//90 8//286 7//90
f 288//90 7//90 313//287
f 313//287 7//90 32//287
f 313//287 32//287 312//288
f 312//288 32//287 31//289
f 312//288 31//289 311//290
f 311//290 31//289 30//290
f 311//290 30//290 310//291
f 310//291 30//290 29//291
f 310//291 29//291 309//292
f 309//292 29//291 28//292
f 309//292 28//292 308//293
f 308//293 28//292 27//294
f 308//293 27//294 307//295
f 307//295 27//294 26//296
f 307//295 26//296 306//297
f 306//297 26//296 25//297
f 306//297 25//297 305//298
f 305//298 25//297 24//298
f 305//298 24//298 304//299
f 304//299 24//298 23//299
f 304//299 23//299 303//300
f 303//300 23//299 22//300
f 303//300 22//300 302//301
f 302//301 22//300 21//301
f 302//301 21//301 301//302
f 301//302 21//301 20//302
f 301//303 20//303 300//304
f 300//304 20//303 19//304
f 300//304 19//304 299//305
f 299//305 19//304 18//305
f 299//305 18//305 298//306
f 298//306 18//305 17//307
f 298//306 17//307 297//308
f 297//308 17//307 16//308
f 297//308 16//308 296//309
f 296//309 16//308 15//309
f 296//309 15//309 295//310
f 295//310 15//309 14//311
f 295//310 14//311 294//312
f 294//312 14//311 13//313
f 294//312 13//313 293//314
f 293//314 13//313 12//314
f 293//314 12//314 292//315
f 292//315 12//314 11//316
f 292//315 11//316 291//317
f 291//317 11//316 10//317
f 291//317 10//317 290//318
f 290//318 10//317 9//319
f 290//318 9//319 289//286
f 289//286 9//319 8//286

g face 2
f 53//2 44//2 1//2
f 1//2 44//2 43//2
f 1//2 43//2 33//2
f 33//2 43//2 42//2
f 33//2 42//2 34//2
f 34//2 42//2 41//2
f 34//2 41//2 35//2
f 35//2 41//2 40//2
f 35//2 40//2 36//2
f 36//2 40//2 39//2
f 36//2 39//2 37//2
f 37//2 39//2 38//2
f 44//2 53//2 45//2
f 45//2 53//2 52//2
f 45//2 52//2 46//2
f 46//2 52//2 51//2
f 46//2 51//2 47//2
f 47//2 51//2 50//2
f 47//2 50//2 48//2
f 48//2 50//2 49//2

g face 3
f 313//320 302//320 288//320
f 288//320 302//320 301//320
f 288//320 301//320 289//320
f 289//320 301//320 300//320
f 289//320 300//320 290//320
f 290//320 300//320 299//320
f 290//320 299//320 291//320
f 291//320 299//320 298//320
f 291//320 298//320 292//320
f 292//320 298//320 297//320
f 292//320 297//320 293//320
f 293//320 297//320 296//320
f 293//320 296//320 294//320
f 294//320 296//320 295//320
f 302//320 313//320 303//320
f 303//320 313//320 312//320
f 303//320 312//320 304//320
f 304//320 312//320 311//320
f 304//320 311//320 305//320
f 305//320 311//320 310//320
f 305//320 310//320 306//320
f 306//320 310//320 309//320
f 306//320 309//320 307//320
f 307//320 309//320 308//320

g halfedge 0 edge 0
l 1 2 3 4 5 6 7

g halfedge 1 edge 0
l 7 6 5 4 3 2 1

g halfedge 2 edge 1
l 7 32 31 30 29 28 27 26 25 24 23 22 21 20 19 18 17 16 15 14 13 12 11 10 9 8 7

g halfedge 3 edge 1
l 7 8 9 10 11 12 13 14 15 16 17 18 19 20 21 22 23 24 25 26 27 28 29 30 31 32 7

g halfedge 4 edge 2
l 1 53 52 51 50 49 48 47 46 45 44 43 42 41 40 39 38 37 36 35 34 33 1

g halfedge 5 edge 2
l 1 33 34 35 36 37 38 39 40 41 42 43 44 45 46 47 48 49 50 51 52 53 1

g halfedge 6 edge 3
l 288 289 290 291 292 293 294 295 296 297 298 299 300 301 302 303 304 305 306 307 308 309 310 311 312 313 288

g halfedge 7 edge 3
l 288 313 312 311 310 309 308 307 306 305 304 303 302 301 300 299 298 297 296 295 294 293 292 291 290 289 288

g vertex 0
p 1

g vertex 1
p 7

g vertex 2
p 288

# End of file
