# WaveFront *.obj file
# Vertices: 84
# Triangles : 164

v -2.6352429281120529e+00 4.3180001378059387e+00 4.7581791545777996e+00
v -2.6058094419089683e+00 3.9252375598753813e+00 4.7581791545777996e+00
v -2.5181664787441198e+00 3.5412486489151700e+00 4.7581791545777996e+00
v -2.3742718375889722e+00 3.1746110826735787e+00 4.7581791545777996e+00
v -2.1773398869481961e+00 2.8335149385301079e+00 4.7581791545777996e+00
v -1.9317697611788538e+00 2.5255797407005103e+00 4.7581791545777996e+00
v -1.6430470910982125e+00 2.2576842526567003e+00 4.7581791545777996e+00
v -1.3176214640560271e+00 2.0358128169176117e+00 4.7581791545777996e+00
v -9.6276235081075690e-01 1.8649216747261432e+00 4.7581791545777996e+00
v -5.8639671756526657e-01 1.7488282518097393e+00 4.7581791545777996e+00
v -1.9693195064077701e-01 1.6901258833977479e+00 4.7581791545777996e+00
v 1.9693195064077501e-01 1.6901258833977475e+00 4.7581791545777996e+00
v 5.8639671756526679e-01 1.7488282518097393e+00 4.7581791545777996e+00
v 9.6276235081075501e-01 1.8649216747261423e+00 4.7581791545777996e+00
v 1.3176214640560251e+00 2.0358128169176108e+00 4.7581791545777996e+00
v 1.6430470910982127e+00 2.2576842526567007e+00 4.7581791545777996e+00
v 1.9317697611788522e+00 2.5255797407005094e+00 4.7581791545777996e+00
v 2.1773398869481957e+00 2.8335149385301075e+00 4.7581791545777996e+00
v 2.3742718375889722e+00 3.1746110826735787e+00 4.7581791545777996e+00
v 2.5181664787441194e+00 3.5412486489151682e+00 4.7581791545777996e+00
v 2.6058094419089683e+00 3.9252375598753804e+00 4.7581791545777996e+00
v 2.6352429281120529e+00 4.3180001378059387e+00 4.7581791545777996e+00
v 2.6058094419089683e+00 4.7107627157364957e+00 4.7581791545777996e+00
v 2.5181664787441198e+00 5.0947516266967083e+00 4.7581791545777996e+00
v 2.3742718375889722e+00 5.4613891929382987e+00 4.7581791545777996e+00
v 2.1773398869481961e+00 5.8024853370817686e+00 4.7581791545777996e+00
v 1.9317697611788531e+00 6.1104205349113672e+00 4.7581791545777996e+00
v 1.6430470910982127e+00 6.3783160229551772e+00 4.7581791545777996e+00
v 1.3176214640560273e+00 6.6001874586942648e+00 4.7581791545777996e+00
v 9.6276235081075612e-01 6.7710786008857342e+00 4.7581791545777996e+00
v 5.8639671756526679e-01 6.8871720238021386e+00 4.7581791545777996e+00
v 1.9693195064077676e-01 6.9458743922141295e+00 4.7581791545777996e+00
v -1.9693195064077584e-01 6.9458743922141295e+00 4.7581791545777996e+00
v -5.8639671756526657e-01 6.8871720238021386e+00 4.7581791545777996e+00
v -9.6276235081075523e-01 6.7710786008857351e+00 4.7581791545777996e+00
v -1.3176214640560258e+00 6.6001874586942657e+00 4.7581791545777996e+00
v -1.6430470910982125e+00 6.3783160229551772e+00 4.7581791545777996e+00
v -1.9317697611788520e+00 6.1104205349113689e+00 4.7581791545777996e+00
v -2.1773398869481952e+00 5.8024853370817695e+00 4.7581791545777996e+00
v -2.3742718375889722e+00 5.4613891929382987e+00 4.7581791545777996e+00
v -2.5181664787441198e+00 5.0947516266967092e+00 4.7581791545777996e+00
v -2.6058094419089683e+00 4.7107627157364975e+00 4.7581791545777996e+00
v -2.6352429281120529e+00 4.3180001378059387e+00 4.9867791545777997e+00
v -2.6058094419089683e+00 4.7107627157364966e+00 4.9867791545777997e+00
v -2.5181664787441198e+00 5.0947516266967074e+00 4.9867791545777997e+00
v -2.3742718375889722e+00 5.4613891929382987e+00 4.9867791545777997e+00
v -2.1773398869481961e+00 5.8024853370817695e+00 4.9867791545777997e+00
v -1.9317697611788538e+00 6.1104205349113672e+00 4.9867791545777997e+00
v -1.6430470910982125e+00 6.3783160229551772e+00 4.9867791545777997e+00
v -1.3176214640560271e+00 6.6001874586942657e+00 4.9867791545777997e+00
v -9.6276235081075690e-01 6.7710786008857342e+00 4.9867791545777997e+00
v -5.8639671756526657e-01 6.8871720238021386e+00 4.9867791545777997e+00
v -1.9693195064077701e-01 6.9458743922141295e+00 4.9867791545777997e+00
v 1.9693195064077501e-01 6.9458743922141295e+00 4.9867791545777997e+00
v 5.8639671756526679e-01 6.8871720238021386e+00 4.9867791545777997e+00
v 9.6276235081075501e-01 6.7710786008857351e+00 4.9867791545777997e+00
v 1.3176214640560251e+00 6.6001874586942666e+00 4.9867791545777997e+00
v 1.6430470910982127e+00 6.3783160229551772e+00 4.9867791545777997e+00
v 1.9317697611788522e+00 6.1104205349113681e+00 4.9867791545777997e+00
v 2.1773398869481957e+00 5.8024853370817695e+00 4.9867791545777997e+00
v 2.3742718375889722e+00 5.4613891929382987e+00 4.9867791545777997e+00
v 2.5181664787441194e+00 5.0947516266967092e+00 4.9867791545777997e+00
v 2.6058094419089683e+00 4.7107627157364966e+00 4.9867791545777997e+00
v 2.6352429281120529e+00 4.3180001378059387e+00 4.9867791545777997e+00
v 2.6058094419089683e+00 3.9252375598753817e+00 4.9867791545777997e+00
v 2.5181664787441198e+00 3.5412486489151691e+00 4.9867791545777997e+00
v 2.3742718375889722e+00 3.1746110826735787e+00 4.9867791545777997e+00
v 2.1773398869481961e+00 2.8335149385301088e+00 4.9867791545777997e+00
v 1.9317697611788531e+00 2.5255797407005103e+00 4.9867791545777997e+00
v 1.6430470910982127e+00 2.2576842526567007e+00 4.9867791545777997e+00
v 1.3176214640560273e+00 2.0358128169176122e+00 4.9867791545777997e+00
v 9.6276235081075612e-01 1.8649216747261432e+00 4.9867791545777997e+00
v 5.8639671756526679e-01 1.7488282518097393e+00 4.9867791545777997e+00
v 1.9693195064077676e-01 1.6901258833977479e+00 4.9867791545777997e+00
v -1.9693195064077584e-01 1.6901258833977479e+00 4.9867791545777997e+00
v -5.8639671756526657e-01 1.7488282518097393e+00 4.9867791545777997e+00
v -9.6276235081075523e-01 1.8649216747261423e+00 4.9867791545777997e+00
v -1.3176214640560258e+00 2.0358128169176117e+00 4.9867791545777997e+00
v -1.6430470910982125e+00 2.2576842526567003e+00 4.9867791545777997e+00
v -1.9317697611788520e+00 2.5255797407005085e+00 4.9867791545777997e+00
v -2.1773398869481952e+00 2.8335149385301075e+00 4.9867791545777997e+00
v -2.3742718375889722e+00 3.1746110826735787e+00 4.9867791545777997e+00
v -2.5181664787441198e+00 3.5412486489151687e+00 4.9867791545777997e+00
v -2.6058094419089683e+00 3.9252375598753799e+00 4.9867791545777997e+00

vn -9.8883082622512852e-01 -1.4904226617617425e-01 -0.0000000000000000e+00
vn -9.8883082622512852e-01 -1.4904226617617469e-01 -0.0000000000000000e+00
vn -1.0000000000000000e+00 -1.2246467991473532e-16 -0.0000000000000000e+00
vn -1.0000000000000000e+00 1.2246467991473532e-16 -0.0000000000000000e+00
vn -9.8883082622512852e-01 1.4904226617617469e-01 -0.0000000000000000e+00
vn -9.8883082622512852e-01 1.4904226617617425e-01 -0.0000000000000000e+00
vn -9.5557280578614068e-01 2.9475517441090421e-01 -0.0000000000000000e+00
vn -9.5557280578614090e-01 2.9475517441090382e-01 -0.0000000000000000e+00
vn -9.0096886790241903e-01 4.3388373911755818e-01 -0.0000000000000000e+00
vn -8.2623877431599480e-01 5.6332005806362218e-01 -0.0000000000000000e+00
vn -8.2623877431599502e-01 5.6332005806362195e-01 -0.0000000000000000e+00
vn -7.3305187182982601e-01 6.8017273777091969e-01 -0.0000000000000000e+00
vn -7.3305187182982667e-01 6.8017273777091902e-01 -0.0000000000000000e+00
vn -6.2348980185873337e-01 7.8183148246802991e-01 -0.0000000000000000e+00
vn -4.9999999999999983e-01 8.6602540378443882e-01 -0.0000000000000000e+00
vn -5.0000000000000022e-01 8.6602540378443860e-01 -0.0000000000000000e+00
vn -3.6534102436639482e-01 9.3087374864420436e-01 -0.0000000000000000e+00
vn -3.6534102436639543e-01 9.3087374864420402e-01 -0.0000000000000000e+00
vn -2.2252093395631437e-01 9.7492791218182362e-01 -0.0000000000000000e+00
vn -7.4730093586424046e-02 9.9720379718118013e-01 -0.0000000000000000e+00
vn -7.4730093586424490e-02 9.9720379718118002e-01 -0.0000000000000000e+00
vn 7.4730093586424393e-02 9.9720379718118002e-01 0.0000000000000000e+00
vn 7.4730093586423726e-02 9.9720379718118013e-01 0.0000000000000000e+00
vn 2.2252093395631445e-01 9.7492791218182362e-01 0.0000000000000000e+00
vn 3.6534102436639526e-01 9.3087374864420425e-01 0.0000000000000000e+00
vn 3.6534102436639471e-01 9.3087374864420436e-01 0.0000000000000000e+00
vn 5.0000000000000056e-01 8.6602540378443837e-01 0.0000000000000000e+00
vn 4.9999999999999944e-01 8.6602540378443893e-01 0.0000000000000000e+00
vn 6.2348980185873348e-01 7.8183148246802991e-01 0.0000000000000000e+00
vn 7.3305187182982656e-01 6.8017273777091913e-01 0.0000000000000000e+00
vn 7.3305187182982623e-01 6.8017273777091947e-01 0.0000000000000000e+00
vn 8.2623877431599502e-01 5.6332005806362184e-01 0.0000000000000000e+00
vn 8.2623877431599480e-01 5.6332005806362195e-01 0.0000000000000000e+00
vn 9.0096886790241915e-01 4.3388373911755818e-01 0.0000000000000000e+00
vn 9.5557280578614079e-01 2.9475517441090404e-01 0.0000000000000000e+00
vn 9.5557280578614057e-01 2.9475517441090437e-01 0.0000000000000000e+00
vn 9.8883082622512852e-01 1.4904226617617408e-01 0.0000000000000000e+00
vn 9.8883082622512852e-01 1.4904226617617439e-01 0.0000000000000000e+00
vn 1.0000000000000000e+00 0.0000000000000000e+00 0.0000000000000000e+00
vn 9.8883082622512852e-01 -1.4904226617617455e-01 -0.0000000000000000e+00
vn 9.8883082622512852e-01 -1.4904226617617408e-01 -0.0000000000000000e+00
vn 9.5557280578614057e-01 -2.9475517441090437e-01 -0.0000000000000000e+00
vn 9.5557280578614079e-01 -2.9475517441090404e-01 -0.0000000000000000e+00
vn 9.0096886790241915e-01 -4.3388373911755818e-01 -0.0000000000000000e+00
vn 8.2623877431599491e-01 -5.6332005806362218e-01 -0.0000000000000000e+00
vn 8.2623877431599502e-01 -5.6332005806362184e-01 -0.0000000000000000e+00
vn 7.3305187182982623e-01 -6.8017273777091947e-01 -0.0000000000000000e+00
vn 7.3305187182982656e-01 -6.8017273777091913e-01 -0.0000000000000000e+00
vn 6.2348980185873348e-01 -7.8183148246802980e-01 -0.0000000000000000e+00
vn 4.9999999999999944e-01 -8.6602540378443893e-01 -0.0000000000000000e+00
vn 5.0000000000000022e-01 -8.6602540378443837e-01 -0.0000000000000000e+00
vn 3.6534102436639471e-01 -9.3087374864420436e-01 -0.0000000000000000e+00
vn 3.6534102436639526e-01 -9.3087374864420425e-01 -0.0000000000000000e+00
vn 2.2252093395631445e-01 -9.7492791218182362e-01 -0.0000000000000000e+00
vn 7.4730093586423726e-02 -9.9720379718118013e-01 -0.0000000000000000e+00
vn 7.4730093586424393e-02 -9.9720379718118002e-01 -0.0000000000000000e+00
vn -7.4730093586424490e-02 -9.9720379718118002e-01 -0.0000000000000000e+00
vn -7.4730093586424046e-02 -9.9720379718118013e-01 -0.0000000000000000e+00
vn -2.2252093395631437e-01 -9.7492791218182362e-01 -0.0000000000000000e+00
vn -3.6534102436639543e-01 -9.3087374864420402e-01 -0.0000000000000000e+00
vn -3.6534102436639482e-01 -9.3087374864420436e-01 -0.0000000000000000e+00
vn -5.0000000000000022e-01 -8.6602540378443860e-01 -0.0000000000000000e+00
vn -4.9999999999999983e-01 -8.6602540378443882e-01 -0.0000000000000000e+00
vn -6.2348980185873337e-01 -7.8183148246802991e-01 -0.0000000000000000e+00
vn -7.3305187182982667e-01 -6.8017273777091902e-01 -0.0000000000000000e+00
vn -7.3305187182982601e-01 -6.8017273777091969e-01 -0.0000000000000000e+00
vn -8.2623877431599502e-01 -5.6332005806362195e-01 -0.0000000000000000e+00
vn -8.2623877431599480e-01 -5.6332005806362218e-01 -0.0000000000000000e+00
vn -9.0096886790241903e-01 -4.3388373911755818e-01 -0.0000000000000000e+00
vn -9.5557280578614090e-01 -2.9475517441090382e-01 -0.0000000000000000e+00
vn -9.5557280578614068e-01 -2.9475517441090421e-01 -0.0000000000000000e+00
vn 0.0000000000000000e+00 0.0000000000000000e+00 1.0000000000000000e+00
vn -0.0000000000000000e+00 -0.0000000000000000e+00 -1.0000000000000000e+00

g face 0
f 2//1 84//2 1//3
f 1//3 84//2 43//3
f 1//4 43//4 42//5
f 42//5 43//4 44//6
f 42//5 44//6 41//7
f 41//7 44//6 45//8
f 41//7 45//8 40//9
f 40//9 45//8 46//9
f 40//9 46//9 39//10
f 39//10 46//9 47//11
f 39//10 47//11 38//12
f 38//12 47//11 48//13
f 38//12 48//13 37//14
f 37//14 48//13 49//14
f 37//14 49//14 36//15
f 36//15 49//14 50//16
f 36//15 50//16 35//17
f 35//17 50//16 51//18
f 35//17 51//18 34//19
f 34//19 51//18 52//19
f 34//19 52//19 33//20
f 33//20 52//19 53//21
f 33//20 53//21 32//22
f 32//22 53//21 54//23
f 32//22 54//23 31//24
f 31//24 54//23 55//24
f 31//24 55//24 30//25
f 30//25 55//24 56//26
f 30//25 56//26 29//27
f 29//27 56//26 57//28
f 29//27 57//28 28//29
f 28//29 57//28 58//29
f 28//29 58//29 27//30
f 27//30 58//29 59//31
f 27//30 59//31 26//32
f 26//32 59//31 60//33
f 26//32 60//33 25//34
f 25//34 60//33 61//34
f 25//34 61//34 24//35
f 24//35 61//34 62//36
f 24//35 62//36 23//37
f 23//37 62//36 63//38
f 23//37 63//38 22//39
f 22//39 63//38 64//39
f 22//39 64//39 21//40
f 21//40 64//39 65//41
f 21//40 65//41 20//42
f 20//42 65//41 66//43
f 20//42 66//43 19//44
f 19//44 66//43 67//44
f 19//44 67//44 18//45
f 18//45 67//44 68//46
f 18//45 68//46 17//47
f 17//47 68//46 69//48
f 17//47 69//48 16//49
f 16//49 69//48 70//49
f 16//49 70//49 15//50
f 15//50 70//49 71//51
f 15//50 71//51 14//52
f 14//52 71//51 72//53
f 14//52 72//53 13//54
f 13//54 72//53 73//54
f 13//54 73//54 12//55
f 12//55 73//54 74//56
f 12//55 74//56 11//57
f 11//57 74//56 75//58
f 11//57 75//58 10//59
f 10//59 75//58 76//59
f 10//59 76//59 9//60
f 9//60 76//59 77//61
f 9//60 77//61 8//62
f 8//62 77//61 78//63
f 8//62 78//63 7//64
f 7//64 78//63 79//64
f 7//64 79//64 6//65
f 6//65 79//64 80//66
f 6//65 80//66 5//67
f 5//67 80//66 81//68
f 5//67 81//68 4//69
f 4//69 81//68 82//69
f 4//69 82//69 3//70
f 3//70 82//69 83//71
f 3//70 83//71 2//1
f 2//1 83//71 84//2

g face 1
f 84//72 65//72 43//72
f 43//72 65//72 64//72
f 43//72 64//72 44//72
f 44//72 64//72 63//72
f 44//72 63//72 45//72
f 45//72 63//72 62//72
f 45//72 62//72 46//72
f 46//72 62//72 61//72
f 46//72 61//72 47//72
f 47//72 61//72 60//72
f 47//72 60//72 48//72
f 48//72 60//72 59//72
f 48//72 59//72 49//72
f 49//72 59//72 58//72
f 49//72 58//72 50//72
f 50//72 58//72 57//72
f 50//72 57//72 51//72
f 51//72 57//72 56//72
f 51//72 56//72 52//72
f 52//72 56//72 55//72
f 52//72 55//72 53//72
f 53//72 55//72 54//72
f 65//72 84//72 66//72
f 66//72 84//72 83//72
f 66//72 83//72 67//72
f 67//72 83//72 82//72
f 67//72 82//72 68//72
f 68//72 82//72 81//72
f 68//72 81//72 69//72
f 69//72 81//72 80//72
f 69//72 80//72 70//72
f 70//72 80//72 79//72
f 70//72 79//72 71//72
f 71//72 79//72 78//72
f 71//72 78//72 72//72
f 72//72 78//72 77//72
f 72//72 77//72 73//72
f 73//72 77//72 76//72
f 73//72 76//72 74//72
f 74//72 76//72 75//72

g face 2
f 42//73 23//73 1//73
f 1//73 23//73 22//73
f 1//73 22//73 2//73
f 2//73 22//73 21//73
f 2//73 21//73 3//73
f 3//73 21//73 20//73
f 3//73 20//73 4//73
f 4//73 20//73 19//73
f 4//73 19//73 5//73
f 5//73 19//73 18//73
f 5//73 18//73 6//73
f 6//73 18//73 17//73
f 6//73 17//73 7//73
f 7//73 17//73 16//73
f 7//73 16//73 8//73
f 8//73 16//73 15//73
f 8//73 15//73 9//73
f 9//73 15//73 14//73
f 9//73 14//73 10//73
f 10//73 14//73 13//73
f 10//73 13//73 11//73
f 11//73 13//73 12//73
f 23//73 42//73 24//73
f 24//73 42//73 41//73
f 24//73 41//73 25//73
f 25//73 41//73 40//73
f 25//73 40//73 26//73
f 26//73 40//73 39//73
f 26//73 39//73 27//73
f 27//73 39//73 38//73
f 27//73 38//73 28//73
f 28//73 38//73 37//73
f 28//73 37//73 29//73
f 29//73 37//73 36//73
f 29//73 36//73 30//73
f 30//73 36//73 35//73
f 30//73 35//73 31//73
f 31//73 35//73 34//73
f 31//73 34//73 32//73
f 32//73 34//73 33//73

g halfedge 0 edge 0
l 1 2 3 4 5 6 7 8 9 10 11 12 13 14 15 16 17 18 19 20 21 22 23 24 25 26 27 28 29 30 31 32 33 34 35 36 37 38 39 40 41 42 1

g halfedge 1 edge 0
l 1 42 41 40 39 38 37 36 35 34 33 32 31 30 29 28 27 26 25 24 23 22 21 20 19 18 17 16 15 14 13 12 11 10 9 8 7 6 5 4 3 2 1

g halfedge 2 edge 1
l 43 84 83 82 81 80 79 78 77 76 75 74 73 72 71 70 69 68 67 66 65 64 63 62 61 60 59 58 57 56 55 54 53 52 51 50 49 48 47 46 45 44 43

g halfedge 3 edge 1
l 43 44 45 46 47 48 49 50 51 52 53 54 55 56 57 58 59 60 61 62 63 64 65 66 67 68 69 70 71 72 73 74 75 76 77 78 79 80 81 82 83 84 43

g vertex 0
p 1

g vertex 1
p 43

# End of file
