# WaveFront *.obj file
# Vertices: 166
# Triangles : 328

v 4.5996736035854759e+00 7.7546200000000010e+00 -2.5821074135015616e+00
v 4.7895251326633490e+00 7.7546200000000010e+00 -2.5678800082553925e+00
v 4.9751356923018299e+00 7.7546200000000010e+00 -2.5255156092400055e+00
v 5.1523590493108129e+00 7.7546200000000010e+00 -2.4559605671243419e+00
v 5.3172363267474987e+00 7.7546200000000010e+00 -2.3607686266130186e+00
v 5.4660844386854510e+00 7.7546200000000010e+00 -2.2420662183571123e+00
v 5.5955783642680768e+00 7.7546200000000010e+00 -2.1025049580072346e+00
v 5.7028254231801316e+00 7.7546200000000010e+00 -1.9452024135015611e+00
v 5.7854298933459498e+00 7.7546200000000010e+00 -1.7736724637497190e+00
v 5.8415465274018050e+00 7.7546200000000010e+00 -1.5917468043844543e+00
v 5.8699217724728348e+00 7.7546200000000010e+00 -1.4034893540128843e+00
v 5.8699217724728348e+00 7.7546200000000010e+00 -1.2131054729902382e+00
v 5.8415465274018050e+00 7.7546200000000010e+00 -1.0248480226186687e+00
v 5.7854298933459498e+00 7.7546200000000010e+00 -8.4292236325340364e-01
v 5.7028254231801316e+00 7.7546200000000010e+00 -6.7139241350156109e-01
v 5.5955783642680768e+00 7.7546200000000010e+00 -5.1408986899588816e-01
v 5.4660844386854501e+00 7.7546200000000010e+00 -3.7452860864601034e-01
v 5.3172363267474978e+00 7.7546200000000010e+00 -2.5582620039010395e-01
v 5.1523590493108129e+00 7.7546200000000010e+00 -1.6063425987878110e-01
v 4.9751356923018299e+00 7.7546200000000010e+00 -9.1079217763117670e-02
v 4.7895251326633481e+00 7.7546200000000010e+00 -4.8714818747730426e-02
v 4.5996736035854759e+00 7.7546200000000010e+00 -3.4487413501561592e-02
v 4.4098220745076029e+00 7.7546200000000010e+00 -4.8714818747730648e-02
v 4.2242115148691219e+00 7.7546200000000010e+00 -9.1079217763117670e-02
v 4.0469881578601390e+00 7.7546200000000010e+00 -1.6063425987878110e-01
v 3.8821108804234532e+00 7.7546200000000010e+00 -2.5582620039010417e-01
v 3.7332627684855009e+00 7.7546200000000010e+00 -3.7452860864601079e-01
v 3.6037688429028751e+00 7.7546200000000010e+00 -5.1408986899588816e-01
v 3.4965217839908198e+00 7.7546200000000010e+00 -6.7139241350156220e-01
v 3.4139173138250021e+00 7.7546200000000010e+00 -8.4292236325340419e-01
v 3.3578006797691473e+00 7.7546200000000010e+00 -1.0248480226186687e+00
v 3.3294254346981171e+00 7.7546200000000010e+00 -1.2131054729902391e+00
v 3.3294254346981171e+00 7.7546200000000010e+00 -1.4034893540128848e+00
v 3.3578006797691473e+00 7.7546200000000010e+00 -1.5917468043844543e+00
v 3.4139173138250025e+00 7.7546200000000010e+00 -1.7736724637497197e+00
v 3.4965217839908203e+00 7.7546200000000010e+00 -1.9452024135015618e+00
v 3.6037688429028747e+00 7.7546200000000010e+00 -2.1025049580072346e+00
v 3.7332627684855018e+00 7.7546200000000010e+00 -2.2420662183571132e+00
v 3.8821108804234541e+00 7.7546200000000010e+00 -2.3607686266130190e+00
v 4.0469881578601390e+00 7.7546200000000010e+00 -2.4559605671243419e+00
v 4.2242115148691228e+00 7.7546200000000010e+00 -2.5255156092400055e+00
v 4.4098220745076038e+00 7.7546200000000010e+00 -2.5678800082553925e+00
v 4.5996736035854759e+00 7.6784200000000009e+00 -2.5059074135015615e+00
v 4.4168592943121094e+00 7.6784200000000009e+00 -2.4918719318251448e+00
v 4.2383299975018875e+00 7.6784200000000009e+00 -2.4500944665904667e+00
v 4.0682702885576258e+00 7.6784200000000009e+00 -2.3815542461736907e+00
v 3.9106662229210536e+00 7.6784200000000009e+00 -2.2878577952493901e+00
v 3.7692119063116793e+00 7.6784200000000009e+00 -2.1712012792137996e+00
v 3.6472229080197076e+00 7.6784200000000009e+00 -2.0343190279293166e+00
v 3.5475585467720219e+00 7.6784200000000009e+00 -1.8804194453500322e+00
v 3.4725548707246734e+00 7.6784200000000009e+00 -1.7131098072523683e+00
v 3.4239699024740426e+00 7.6784200000000009e+00 -1.5363117097482599e+00
v 3.4029424324972153e+00 7.6784200000000009e+00 -1.3541691503960844e+00
v 3.4099653268683916e+00 7.6784200000000009e+00 -1.1709513964101828e+00
v 3.4448739748958399e+00 7.6784200000000009e+00 -9.9095291665581731e-01
v 3.5068501474569951e+00 7.6784200000000009e+00 -8.1839272293879306e-01
v 3.5944411755955921e+00 7.6784200000000009e+00 -6.5731547994459871e-01
v 3.7055939998507736e+00 7.6784200000000009e+00 -5.1149670172627859e-01
v 3.8377032922307648e+00 7.6784200000000009e+00 -3.8435425685500435e-01
v 3.9876725228928223e+00 7.6784200000000009e+00 -2.7886825647761948e-01
v 4.1519865401782532e+00 7.6784200000000009e+00 -1.9751120303718195e-01
v 4.3267939627879901e+00 7.6784200000000009e+00 -1.4219003691129473e-01
v 4.5079974528959603e+00 7.6784200000000009e+00 -1.1420143934590232e-01
v 4.6913497542749916e+00 7.6784200000000009e+00 -1.1420143934590232e-01
v 4.8725532443829636e+00 7.6784200000000009e+00 -1.4219003691129473e-01
v 5.0473606669926996e+00 7.6784200000000009e+00 -1.9751120303718217e-01
v 5.2116746842781296e+00 7.6784200000000009e+00 -2.7886825647761992e-01
v 5.3616439149401875e+00 7.6784200000000009e+00 -3.8435425685500468e-01
v 5.4937532073201787e+00 7.6784200000000009e+00 -5.1149670172627903e-01
v 5.6049060315753607e+00 7.6784200000000009e+00 -6.5731547994459949e-01
v 5.6924970597139577e+00 7.6784200000000009e+00 -8.1839272293879395e-01
v 5.7544732322751120e+00 7.6784200000000009e+00 -9.9095291665581775e-01
v 5.7893818803025603e+00 7.6784200000000009e+00 -1.1709513964101839e+00
v 5.7964047746737366e+00 7.6784200000000009e+00 -1.3541691503960847e+00
v 5.7753773046969092e+00 7.6784200000000009e+00 -1.5363117097482604e+00
v 5.7267923364462785e+00 7.6784200000000009e+00 -1.7131098072523692e+00
v 5.6517886603989291e+00 7.6784200000000009e+00 -1.8804194453500327e+00
v 5.5521242991512434e+00 7.6784200000000009e+00 -2.0343190279293171e+00
v 5.4301353008592725e+00 7.6784200000000009e+00 -2.1712012792137996e+00
v 5.2886809842498979e+00 7.6784200000000009e+00 -2.2878577952493906e+00
v 5.1310769186133252e+00 7.6784200000000009e+00 -2.3815542461736916e+00
v 4.9610172096690643e+00 7.6784200000000009e+00 -2.4500944665904667e+00
v 4.7824879128588416e+00 7.6784200000000009e+00 -2.4918719318251448e+00
v 4.5996736035854759e+00 8.0314800000000002e+00 -2.5821074135015616e+00
v 4.7895251326633481e+00 8.0314800000000002e+00 -2.5678800082553925e+00
v 4.9751356923018291e+00 8.0314800000000002e+00 -2.5255156092400055e+00
v 5.1523590493108129e+00 8.0314800000000002e+00 -2.4559605671243419e+00
v 5.3172363267474978e+00 8.0314800000000002e+00 -2.3607686266130190e+00
v 5.4660844386854501e+00 8.0314800000000002e+00 -2.2420662183571132e+00
v 5.5955783642680768e+00 8.0314800000000002e+00 -2.1025049580072346e+00
v 5.7028254231801316e+00 8.0314800000000002e+00 -1.9452024135015618e+00
v 5.7854298933459489e+00 8.0314800000000002e+00 -1.7736724637497197e+00
v 5.8415465274018050e+00 8.0314800000000002e+00 -1.5917468043844543e+00
v 5.8699217724728348e+00 8.0314800000000002e+00 -1.4034893540128848e+00
v 5.8699217724728348e+00 8.0314800000000002e+00 -1.2131054729902391e+00
v 5.8415465274018050e+00 8.0314800000000002e+00 -1.0248480226186687e+00
v 5.7854298933459498e+00 8.0314800000000002e+00 -8.4292236325340419e-01
v 5.7028254231801316e+00 8.0314800000000002e+00 -6.7139241350156220e-01
v 5.5955783642680768e+00 8.0314800000000002e+00 -5.1408986899588816e-01
v 5.4660844386854510e+00 8.0314800000000002e+00 -3.7452860864601079e-01
v 5.3172363267474987e+00 8.0314800000000002e+00 -2.5582620039010417e-01
v 5.1523590493108129e+00 8.0314800000000002e+00 -1.6063425987878110e-01
v 4.9751356923018299e+00 8.0314800000000002e+00 -9.1079217763117670e-02
v 4.7895251326633490e+00 8.0314800000000002e+00 -4.8714818747730648e-02
v 4.5996736035854759e+00 8.0314800000000002e+00 -3.4487413501561592e-02
v 4.4098220745076038e+00 8.0314800000000002e+00 -4.8714818747730426e-02
v 4.2242115148691219e+00 8.0314800000000002e+00 -9.1079217763117670e-02
v 4.0469881578601390e+00 8.0314800000000002e+00 -1.6063425987878110e-01
v 3.8821108804234541e+00 8.0314800000000002e+00 -2.5582620039010395e-01
v 3.7332627684855013e+00 8.0314800000000002e+00 -3.7452860864601034e-01
v 3.6037688429028751e+00 8.0314800000000002e+00 -5.1408986899588816e-01
v 3.4965217839908203e+00 8.0314800000000002e+00 -6.7139241350156109e-01
v 3.4139173138250021e+00 8.0314800000000002e+00 -8.4292236325340364e-01
v 3.3578006797691473e+00 8.0314800000000002e+00 -1.0248480226186687e+00
v 3.3294254346981171e+00 8.0314800000000002e+00 -1.2131054729902382e+00
v 3.3294254346981171e+00 8.0314800000000002e+00 -1.4034893540128843e+00
v 3.3578006797691473e+00 8.0314800000000002e+00 -1.5917468043844543e+00
v 3.4139173138250021e+00 8.0314800000000002e+00 -1.7736724637497190e+00
v 3.4965217839908203e+00 8.0314800000000002e+00 -1.9452024135015611e+00
v 3.6037688429028747e+00 8.0314800000000002e+00 -2.1025049580072346e+00
v 3.7332627684855009e+00 8.0314800000000002e+00 -2.2420662183571123e+00
v 3.8821108804234532e+00 8.0314800000000002e+00 -2.3607686266130186e+00
v 4.0469881578601390e+00 8.0314800000000002e+00 -2.4559605671243419e+00
v 4.2242115148691219e+00 8.0314800000000002e+00 -2.5255156092400055e+00
v 4.4098220745076029e+00 8.0314800000000002e+00 -2.5678800082553925e+00
v 4.5996736035854759e+00 8.1076800000000002e+00 -2.5059074135015615e+00
v 4.7824879128588424e+00 8.1076800000000002e+00 -2.4918719318251448e+00
v 4.9610172096690643e+00 8.1076800000000002e+00 -2.4500944665904667e+00
v 5.1310769186133260e+00 8.1076800000000002e+00 -2.3815542461736907e+00
v 5.2886809842498987e+00 8.1076800000000002e+00 -2.2878577952493901e+00
v 5.4301353008592725e+00 8.1076800000000002e+00 -2.1712012792137996e+00
v 5.5521242991512443e+00 8.1076800000000002e+00 -2.0343190279293166e+00
v 5.6517886603989300e+00 8.1076800000000002e+00 -1.8804194453500322e+00
v 5.7267923364462785e+00 8.1076800000000002e+00 -1.7131098072523683e+00
v 5.7753773046969092e+00 8.1076800000000002e+00 -1.5363117097482599e+00
v 5.7964047746737366e+00 8.1076800000000002e+00 -1.3541691503960844e+00
v 5.7893818803025603e+00 8.1076800000000002e+00 -1.1709513964101828e+00
v 5.7544732322751120e+00 8.1076800000000002e+00 -9.9095291665581731e-01
v 5.6924970597139568e+00 8.1076800000000002e+00 -8.1839272293879306e-01
v 5.6049060315753598e+00 8.1076800000000002e+00 -6.5731547994459871e-01
v 5.4937532073201787e+00 8.1076800000000002e+00 -5.1149670172627859e-01
v 5.3616439149401867e+00 8.1076800000000002e+00 -3.8435425685500435e-01
v 5.2116746842781296e+00 8.1076800000000002e+00 -2.7886825647761948e-01
v 5.0473606669926987e+00 8.1076800000000002e+00 -1.9751120303718195e-01
v 4.8725532443829618e+00 8.1076800000000002e+00 -1.4219003691129473e-01
v 4.6913497542749916e+00 8.1076800000000002e+00 -1.1420143934590232e-01
v 4.5079974528959603e+00 8.1076800000000002e+00 -1.1420143934590232e-01
v 4.3267939627879883e+00 8.1076800000000002e+00 -1.4219003691129473e-01
v 4.1519865401782523e+00 8.1076800000000002e+00 -1.9751120303718217e-01
v 3.9876725228928218e+00 8.1076800000000002e+00 -2.7886825647761992e-01
v 3.8377032922307643e+00 8.1076800000000002e+00 -3.8435425685500468e-01
v 3.7055939998507732e+00 8.1076800000000002e+00 -5.1149670172627903e-01
v 3.5944411755955912e+00 8.1076800000000002e+00 -6.5731547994459949e-01
v 3.5068501474569946e+00 8.1076800000000002e+00 -8.1839272293879395e-01
v 3.4448739748958399e+00 8.1076800000000002e+00 -9.9095291665581775e-01
v 3.4099653268683916e+00 8.1076800000000002e+00 -1.1709513964101839e+00
v 3.4029424324972153e+00 8.1076800000000002e+00 -1.3541691503960847e+00
v 3.4239699024740426e+00 8.1076800000000002e+00 -1.5363117097482604e+00
v 3.4725548707246734e+00 8.1076800000000002e+00 -1.7131098072523692e+00
v 3.5475585467720228e+00 8.1076800000000002e+00 -1.8804194453500327e+00
v 3.6472229080197081e+00 8.1076800000000002e+00 -2.0343190279293171e+00
v 3.7692119063116793e+00 8.1076800000000002e+00 -2.1712012792137996e+00
v 3.9106662229210540e+00 8.1076800000000002e+00 -2.2878577952493906e+00
v 4.0682702885576267e+00 8.1076800000000002e+00 -2.3815542461736916e+00
v 4.2383299975018875e+00 8.1076800000000002e+00 -2.4500944665904667e+00
v 4.4168592943121103e+00 8.1076800000000002e+00 -2.4918719318251448e+00

vn -1.0538879709658287e-01 -7.0710678118654735e-01 -6.9920898267008502e-01
vn -8.6595605623549329e-17 -7.0710678118654746e-01 -7.0710678118654757e-01
vn -8.6595605623549329e-17 -7.0710678118654735e-01 -7.0710678118654757e-01
vn 8.6595605623549329e-17 -7.0710678118654735e-01 -7.0710678118654757e-01
vn 8.6595605623549329e-17 -7.0710678118654746e-01 -7.0710678118654757e-01
vn 1.0538879709658353e-01 -7.0710678118654735e-01 -6.9920898267008502e-01
vn 1.0793934401443847e-01 -7.0710678118654735e-01 -6.9881978936899947e-01
vn 2.0842338261577384e-01 -7.0710678118654746e-01 -6.7569201088883590e-01
vn 2.1334868129032505e-01 -7.0710678118654735e-01 -6.7415305398082959e-01
vn 3.0680213417660029e-01 -7.0710678118654757e-01 -6.3708119613176739e-01
vn 3.1375730630272242e-01 -7.0710678118654746e-01 -6.3368474239298178e-01
vn 3.9832743303518703e-01 -7.0710678118654746e-01 -5.8423904019810147e-01
vn 4.0681172598374560e-01 -7.0710678118654757e-01 -5.7836339752972443e-01
vn 4.8095475525603665e-01 -7.0710678118654757e-01 -5.1834594953236190e-01
vn 4.9033082360534014e-01 -7.0710678118654746e-01 -5.0948570482645428e-01
vn 5.5283834299827528e-01 -7.0710678118654735e-01 -4.4087386689496738e-01
vn 5.6235698230675968e-01 -7.0710678118654746e-01 -4.2866609902211172e-01
vn 6.1237243569579458e-01 -7.0710678118654746e-01 -3.5355339059327384e-01
vn 6.2120196997458499e-01 -7.0710678118654735e-01 -3.3779892317722815e-01
vn 6.5822714009485872e-01 -7.0710678118654746e-01 -2.5833511577511759e-01
vn 6.6548650997258041e-01 -7.0710678118654735e-01 -2.3901402687816162e-01
vn 6.8937813787181035e-01 -7.0710678118654757e-01 -1.5734606135647394e-01
vn 6.9417261021702925e-01 -7.0710678118654746e-01 -1.3462684436796565e-01
vn 7.0512956721178710e-01 -7.0710678118654746e-01 -5.2842155933665938e-02
vn 7.0658789283141221e-01 -7.0710678118654746e-01 -2.7084122730206609e-02
vn 7.0512956721178710e-01 -7.0710678118654746e-01 5.2842155933665869e-02
vn 7.0244135411395348e-01 -7.0710678118654757e-01 8.1093427788909905e-02
vn 6.8937813787181035e-01 -7.0710678118654757e-01 1.5734606135647355e-01
vn 6.8183018541774776e-01 -7.0710678118654757e-01 1.8737021709225715e-01
vn 6.5822714009485861e-01 -7.0710678118654757e-01 2.5833511577511759e-01
vn 6.4523749506781725e-01 -7.0710678118654757e-01 2.8925520731459314e-01
vn 6.1237243569579447e-01 -7.0710678118654768e-01 3.5355339059327384e-01
vn 5.9352098471143799e-01 -7.0710678118654757e-01 3.8436030063882076e-01
vn 5.5283834299827506e-01 -7.0710678118654757e-01 4.4087386689496733e-01
vn 5.2789284551848237e-01 -7.0710678118654746e-01 4.7045631428475859e-01
vn 4.8095475525603626e-01 -7.0710678118654757e-01 5.1834594953236213e-01
vn 4.4989134544780146e-01 -7.0710678118654757e-01 5.4552523066414349e-01
vn 3.9832743303518658e-01 -7.0710678118654746e-01 5.8423904019810147e-01
vn 3.6134477355004646e-01 -7.0710678118654757e-01 6.0780749800250522e-01
vn 3.0680213417660029e-01 -7.0710678118654768e-01 6.3708119613176717e-01
vn 2.6432858642190671e-01 -7.0710678118654768e-01 6.5584327274143506e-01
vn 2.0842338261577403e-01 -7.0710678118654757e-01 6.7569201088883579e-01
vn 1.6111676126255861e-01 -7.0710678118654757e-01 6.8850663703428705e-01
vn 1.0538879709658301e-01 -7.0710678118654768e-01 6.9920898267008491e-01
vn 5.4128495775449682e-02 -7.0710678118654746e-01 7.0503198930622080e-01
vn 0.0000000000000000e+00 -7.0710678118654757e-01 7.0710678118654735e-01
vn -5.4128495775449682e-02 -7.0710678118654746e-01 7.0503198930622080e-01
vn -1.0538879709658354e-01 -7.0710678118654768e-01 6.9920898267008491e-01
vn -1.6111676126255758e-01 -7.0710678118654757e-01 6.8850663703428738e-01
vn -2.0842338261577403e-01 -7.0710678118654757e-01 6.7569201088883579e-01
vn -2.6432858642190621e-01 -7.0710678118654757e-01 6.5584327274143528e-01
vn -3.0680213417660029e-01 -7.0710678118654768e-01 6.3708119613176717e-01
vn -3.6134477355004624e-01 -7.0710678118654757e-01 6.0780749800250544e-01
vn -3.9832743303518708e-01 -7.0710678118654757e-01 5.8423904019810113e-01
vn -4.4989134544780129e-01 -7.0710678118654746e-01 5.4552523066414349e-01
vn -4.8095475525603676e-01 -7.0710678118654768e-01 5.1834594953236179e-01
vn -5.2789284551848215e-01 -7.0710678118654746e-01 4.7045631428475898e-01
vn -5.5283834299827506e-01 -7.0710678118654757e-01 4.4087386689496733e-01
vn -5.9352098471143777e-01 -7.0710678118654757e-01 3.8436030063882137e-01
vn -6.1237243569579480e-01 -7.0710678118654757e-01 3.5355339059327312e-01
vn -6.4523749506781714e-01 -7.0710678118654768e-01 2.8925520731459375e-01
vn -6.5822714009485861e-01 -7.0710678118654757e-01 2.5833511577511725e-01
vn -6.8183018541774765e-01 -7.0710678118654746e-01 1.8737021709225757e-01
vn -6.8937813787181046e-01 -7.0710678118654757e-01 1.5734606135647372e-01
vn -7.0244135411395359e-01 -7.0710678118654757e-01 8.1093427788910558e-02
vn -7.0512956721178710e-01 -7.0710678118654746e-01 5.2842155933665383e-02
vn -7.0658789283141221e-01 -7.0710678118654746e-01 -2.7084122730206453e-02
vn -7.0512956721178710e-01 -7.0710678118654746e-01 -5.2842155933666243e-02
vn -6.9417261021702947e-01 -7.0710678118654746e-01 -1.3462684436796535e-01
vn -6.8937813787181046e-01 -7.0710678118654757e-01 -1.5734606135647394e-01
vn -6.6548650997258074e-01 -7.0710678118654757e-01 -2.3901402687816101e-01
vn -6.5822714009485839e-01 -7.0710678118654735e-01 -2.5833511577511808e-01
vn -6.2120196997458510e-01 -7.0710678118654757e-01 -3.3779892317722782e-01
vn -6.1237243569579447e-01 -7.0710678118654757e-01 -3.5355339059327406e-01
vn -5.6235698230675990e-01 -7.0710678118654735e-01 -4.2866609902211117e-01
vn -5.5283834299827528e-01 -7.0710678118654746e-01 -4.4087386689496744e-01
vn -4.9033082360534014e-01 -7.0710678118654746e-01 -5.0948570482645428e-01
vn -4.8095475525603615e-01 -7.0710678118654735e-01 -5.1834594953236246e-01
vn -4.0681172598374588e-01 -7.0710678118654735e-01 -5.7836339752972410e-01
vn -3.9832743303518664e-01 -7.0710678118654735e-01 -5.8423904019810158e-01
vn -3.1375730630272308e-01 -7.0710678118654746e-01 -6.3368474239298145e-01
vn -3.0680213417660029e-01 -7.0710678118654757e-01 -6.3708119613176739e-01
vn -2.1334868129032505e-01 -7.0710678118654735e-01 -6.7415305398082959e-01
vn -2.0842338261577359e-01 -7.0710678118654735e-01 -6.7569201088883601e-01
vn -1.0793934401443882e-01 -7.0710678118654735e-01 -6.9881978936899947e-01
vn 1.4904226617617397e-01 2.1956455014685098e-16 -9.8883082622512863e-01
vn 1.4904226617617466e-01 2.1956455014685095e-16 -9.8883082622512852e-01
vn -0.0000000000000000e+00 2.2204460492503131e-16 -1.0000000000000000e+00
vn -1.4904226617617466e-01 2.1956455014685095e-16 -9.8883082622512852e-01
vn -1.4904226617617397e-01 2.1956455014685098e-16 -9.8883082622512863e-01
vn -2.9475517441090426e-01 2.1217978613788728e-16 -9.5557280578614068e-01
vn -2.9475517441090365e-01 2.1217978613788733e-16 -9.5557280578614090e-01
vn -4.3388373911755829e-01 2.0005527632314536e-16 -9.0096886790241903e-01
vn -5.6332005806362229e-01 1.8346186221673714e-16 -8.2623877431599468e-01
vn -5.6332005806362151e-01 1.8346186221673724e-16 -8.2623877431599513e-01
vn -6.8017273777091969e-01 1.6277021327000845e-16 -7.3305187182982623e-01
vn -6.8017273777091880e-01 1.6277021327000860e-16 -7.3305187182982690e-01
vn -7.8183148246803003e-01 1.3844254672850848e-16 -6.2348980185873326e-01
vn -8.6602540378443882e-01 1.1102230246251559e-16 -4.9999999999999972e-01
vn -8.6602540378443849e-01 1.1102230246251573e-16 -5.0000000000000033e-01
vn -9.3087374864420425e-01 8.1122003418342411e-17 -3.6534102436639498e-01
vn -9.3087374864420414e-01 8.1122003418342497e-17 -3.6534102436639537e-01
vn -9.7492791218182362e-01 4.9409572867878826e-17 -2.2252093395631445e-01
vn -9.7492791218182362e-01 4.9409572867878782e-17 -2.2252093395631425e-01
vn -9.9720379718118013e-01 1.6593414106408168e-17 -7.4730093586424157e-02
vn -9.9720379718118013e-01 1.6593414106408220e-17 -7.4730093586424393e-02
vn -9.9720379718118013e-01 -1.6593414106408242e-17 7.4730093586424490e-02
vn -9.9720379718118013e-01 -1.6593414106408094e-17 7.4730093586423824e-02
vn -9.7492791218182362e-01 -4.9409572867878795e-17 2.2252093395631431e-01
vn -9.3087374864420425e-01 -8.1122003418342423e-17 3.6534102436639504e-01
vn -9.3087374864420436e-01 -8.1122003418342386e-17 3.6534102436639487e-01
vn -8.6602540378443849e-01 -1.1102230246251570e-16 5.0000000000000022e-01
vn -8.6602540378443893e-01 -1.1102230246251552e-16 4.9999999999999939e-01
vn -7.8183148246802991e-01 -1.3844254672850853e-16 6.2348980185873348e-01
vn -6.8017273777091936e-01 -1.6277021327000848e-16 7.3305187182982634e-01
vn -6.8017273777091980e-01 -1.6277021327000840e-16 7.3305187182982601e-01
vn -5.6332005806362184e-01 -1.8346186221673722e-16 8.2623877431599502e-01
vn -5.6332005806362229e-01 -1.8346186221673714e-16 8.2623877431599468e-01
vn -4.3388373911755829e-01 -2.0005527632314536e-16 9.0096886790241903e-01
vn -2.9475517441090415e-01 -2.1217978613788728e-16 9.5557280578614068e-01
vn -1.4904226617617383e-01 -2.1956455014685098e-16 9.8883082622512863e-01
vn -1.4904226617617472e-01 -2.1956455014685095e-16 9.8883082622512852e-01
vn -1.2246467991473532e-16 -2.2204460492503131e-16 1.0000000000000000e+00
vn 1.2246467991473532e-16 -2.2204460492503131e-16 1.0000000000000000e+00
vn 1.4904226617617472e-01 -2.1956455014685095e-16 9.8883082622512852e-01
vn 1.4904226617617383e-01 -2.1956455014685098e-16 9.8883082622512863e-01
vn 2.9475517441090415e-01 -2.1217978613788728e-16 9.5557280578614068e-01
vn 4.3388373911755829e-01 -2.0005527632314536e-16 9.0096886790241903e-01
vn 5.6332005806362229e-01 -1.8346186221673714e-16 8.2623877431599468e-01
vn 5.6332005806362184e-01 -1.8346186221673722e-16 8.2623877431599502e-01
vn 6.8017273777091980e-01 -1.6277021327000840e-16 7.3305187182982601e-01
vn 6.8017273777091902e-01 -1.6277021327000855e-16 7.3305187182982667e-01
vn 7.8183148246802991e-01 -1.3844254672850853e-16 6.2348980185873348e-01
vn 8.6602540378443893e-01 -1.1102230246251552e-16 4.9999999999999939e-01
vn 8.6602540378443849e-01 -1.1102230246251570e-16 5.0000000000000022e-01
vn 9.3087374864420436e-01 -8.1122003418342337e-17 3.6534102436639465e-01
vn 9.3087374864420425e-01 -8.1122003418342423e-17 3.6534102436639504e-01
vn 9.7492791218182362e-01 -4.9409572867878795e-17 2.2252093395631431e-01
vn 9.9720379718118013e-01 -1.6593414106408094e-17 7.4730093586423824e-02
vn 9.9720379718118013e-01 -1.6593414106408242e-17 7.4730093586424490e-02
vn 9.9720379718118013e-01 1.6593414106408220e-17 -7.4730093586424393e-02
vn 9.9720379718118013e-01 1.6593414106408168e-17 -7.4730093586424157e-02
vn 9.7492791218182362e-01 4.9409572867878782e-17 -2.2252093395631425e-01
vn 9.3087374864420391e-01 8.1122003418342546e-17 -3.6534102436639559e-01
vn 9.3087374864420436e-01 8.1122003418342362e-17 -3.6534102436639476e-01
vn 8.6602540378443849e-01 1.1102230246251573e-16 -5.0000000000000033e-01
vn 8.6602540378443882e-01 1.1102230246251559e-16 -4.9999999999999972e-01
vn 7.8183148246802980e-01 1.3844254672850853e-16 -6.2348980185873348e-01
vn 6.8017273777091880e-01 1.6277021327000860e-16 -7.3305187182982690e-01
vn 6.8017273777091969e-01 1.6277021327000845e-16 -7.3305187182982623e-01
vn 5.6332005806362151e-01 1.8346186221673724e-16 -8.2623877431599513e-01
vn 5.6332005806362229e-01 1.8346186221673714e-16 -8.2623877431599468e-01
vn 4.3388373911755829e-01 2.0005527632314536e-16 -9.0096886790241903e-01
vn 2.9475517441090365e-01 2.1217978613788733e-16 -9.5557280578614090e-01
vn 2.9475517441090426e-01 2.1217978613788728e-16 -9.5557280578614068e-01
vn 0.0000000000000000e+00 -1.0000000000000000e+00 -2.2204460492503131e-16
vn 1.0538879709658290e-01 7.0710678118654768e-01 -6.9920898267008491e-01
vn 8.6595605623549341e-17 7.0710678118654768e-01 -7.0710678118654746e-01
vn 8.6595605623549341e-17 7.0710678118654768e-01 -7.0710678118654735e-01
vn -8.6595605623549341e-17 7.0710678118654768e-01 -7.0710678118654735e-01
vn -8.6595605623549341e-17 7.0710678118654768e-01 -7.0710678118654746e-01
vn -1.0538879709658355e-01 7.0710678118654768e-01 -6.9920898267008491e-01
vn -1.0793934401443850e-01 7.0710678118654768e-01 -6.9881978936899924e-01
vn -2.0842338261577389e-01 7.0710678118654768e-01 -6.7569201088883579e-01
vn -2.1334868129032505e-01 7.0710678118654768e-01 -6.7415305398082936e-01
vn -3.0680213417660035e-01 7.0710678118654768e-01 -6.3708119613176717e-01
vn -3.1375730630272253e-01 7.0710678118654757e-01 -6.3368474239298156e-01
vn -3.9832743303518708e-01 7.0710678118654757e-01 -5.8423904019810124e-01
vn -4.0681172598374565e-01 7.0710678118654757e-01 -5.7836339752972421e-01
vn -4.8095475525603670e-01 7.0710678118654757e-01 -5.1834594953236179e-01
vn -4.9033082360534025e-01 7.0710678118654757e-01 -5.0948570482645406e-01
vn -5.5283834299827539e-01 7.0710678118654757e-01 -4.4087386689496721e-01
vn -5.6235698230675968e-01 7.0710678118654746e-01 -4.2866609902211156e-01
vn -6.1237243569579458e-01 7.0710678118654757e-01 -3.5355339059327351e-01
vn -6.2120196997458499e-01 7.0710678118654757e-01 -3.3779892317722787e-01
vn -6.5822714009485861e-01 7.0710678118654768e-01 -2.5833511577511731e-01
vn -6.6548650997258052e-01 7.0710678118654746e-01 -2.3901402687816131e-01
vn -6.8937813787181035e-01 7.0710678118654757e-01 -1.5734606135647364e-01
vn -6.9417261021702925e-01 7.0710678118654757e-01 -1.3462684436796538e-01
vn -7.0512956721178710e-01 7.0710678118654757e-01 -5.2842155933665612e-02
vn -7.0658789283141210e-01 7.0710678118654735e-01 -2.7084122730206293e-02
vn -7.0512956721178710e-01 7.0710678118654757e-01 5.2842155933666181e-02
vn -7.0244135411395370e-01 7.0710678118654757e-01 8.1093427788910238e-02
vn -6.8937813787181035e-01 7.0710678118654746e-01 1.5734606135647397e-01
vn -6.8183018541774765e-01 7.0710678118654746e-01 1.8737021709225746e-01
vn -6.5822714009485850e-01 7.0710678118654746e-01 2.5833511577511786e-01
vn -6.4523749506781736e-01 7.0710678118654757e-01 2.8925520731459348e-01
vn -6.1237243569579436e-01 7.0710678118654746e-01 3.5355339059327417e-01
vn -5.9352098471143810e-01 7.0710678118654757e-01 3.8436030063882110e-01
vn -5.5283834299827517e-01 7.0710678118654757e-01 4.4087386689496760e-01
vn -5.2789284551848237e-01 7.0710678118654757e-01 4.7045631428475893e-01
vn -4.8095475525603637e-01 7.0710678118654746e-01 5.1834594953236235e-01
vn -4.4989134544780141e-01 7.0710678118654757e-01 5.4552523066414371e-01
vn -3.9832743303518647e-01 7.0710678118654746e-01 5.8423904019810169e-01
vn -3.6134477355004657e-01 7.0710678118654746e-01 6.0780749800250544e-01
vn -3.0680213417660029e-01 7.0710678118654746e-01 6.3708119613176739e-01
vn -2.6432858642190676e-01 7.0710678118654746e-01 6.5584327274143528e-01
vn -2.0842338261577403e-01 7.0710678118654735e-01 6.7569201088883601e-01
vn -1.6111676126255858e-01 7.0710678118654735e-01 6.8850663703428727e-01
vn -1.0538879709658300e-01 7.0710678118654746e-01 6.9920898267008502e-01
vn -5.4128495775449682e-02 7.0710678118654735e-01 7.0503198930622102e-01
vn -0.0000000000000000e+00 7.0710678118654746e-01 7.0710678118654757e-01
vn 5.4128495775449682e-02 7.0710678118654735e-01 7.0503198930622102e-01
vn 1.0538879709658353e-01 7.0710678118654746e-01 6.9920898267008502e-01
vn 1.6111676126255753e-01 7.0710678118654735e-01 6.8850663703428749e-01
vn 2.0842338261577403e-01 7.0710678118654735e-01 6.7569201088883601e-01
vn 2.6432858642190626e-01 7.0710678118654757e-01 6.5584327274143550e-01
vn 3.0680213417660029e-01 7.0710678118654746e-01 6.3708119613176739e-01
vn 3.6134477355004618e-01 7.0710678118654746e-01 6.0780749800250566e-01
vn 3.9832743303518697e-01 7.0710678118654746e-01 5.8423904019810136e-01
vn 4.4989134544780102e-01 7.0710678118654746e-01 5.4552523066414393e-01
vn 4.8095475525603670e-01 7.0710678118654757e-01 5.1834594953236202e-01
vn 5.2789284551848215e-01 7.0710678118654757e-01 4.7045631428475915e-01
vn 5.5283834299827517e-01 7.0710678118654757e-01 4.4087386689496760e-01
vn 5.9352098471143777e-01 7.0710678118654757e-01 3.8436030063882154e-01
vn 6.1237243569579458e-01 7.0710678118654746e-01 3.5355339059327340e-01
vn 6.4523749506781702e-01 7.0710678118654757e-01 2.8925520731459403e-01
vn 6.5822714009485872e-01 7.0710678118654757e-01 2.5833511577511759e-01
vn 6.8183018541774776e-01 7.0710678118654746e-01 1.8737021709225782e-01
vn 6.8937813787181046e-01 7.0710678118654757e-01 1.5734606135647383e-01
vn 7.0244135411395359e-01 7.0710678118654746e-01 8.1093427788910863e-02
vn 7.0512956721178710e-01 7.0710678118654757e-01 5.2842155933665702e-02
vn 7.0658789283141210e-01 7.0710678118654735e-01 -2.7084122730206137e-02
vn 7.0512956721178710e-01 7.0710678118654757e-01 -5.2842155933665924e-02
vn 6.9417261021702936e-01 7.0710678118654746e-01 -1.3462684436796504e-01
vn 6.8937813787181046e-01 7.0710678118654757e-01 -1.5734606135647364e-01
vn 6.6548650997258074e-01 7.0710678118654757e-01 -2.3901402687816067e-01
vn 6.5822714009485839e-01 7.0710678118654757e-01 -2.5833511577511797e-01
vn 6.2120196997458521e-01 7.0710678118654757e-01 -3.3779892317722759e-01
vn 6.1237243569579447e-01 7.0710678118654768e-01 -3.5355339059327373e-01
vn 5.6235698230676001e-01 7.0710678118654757e-01 -4.2866609902211106e-01
vn 5.5283834299827528e-01 7.0710678118654757e-01 -4.4087386689496721e-01
vn 4.9033082360534025e-01 7.0710678118654757e-01 -5.0948570482645406e-01
vn 4.8095475525603620e-01 7.0710678118654757e-01 -5.1834594953236224e-01
vn 4.0681172598374621e-01 7.0710678118654768e-01 -5.7836339752972366e-01
vn 3.9832743303518675e-01 7.0710678118654757e-01 -5.8423904019810136e-01
vn 3.1375730630272308e-01 7.0710678118654746e-01 -6.3368474239298123e-01
vn 3.0680213417660035e-01 7.0710678118654768e-01 -6.3708119613176717e-01
vn 2.1334868129032505e-01 7.0710678118654768e-01 -6.7415305398082936e-01
vn 2.0842338261577356e-01 7.0710678118654757e-01 -6.7569201088883590e-01
vn 1.0793934401443883e-01 7.0710678118654768e-01 -6.9881978936899924e-01
vn 0.0000000000000000e+00 1.0000000000000000e+00 2.2204460492503131e-16

g face 0
f 42//1 1//2 43//3
f 43//4 1//5 2//6
f 43//4 2//6 83//7
f 83//7 2//6 3//8
f 83//7 3//8 82//9
f 82//9 3//8 4//10
f 82//9 4//10 81//11
f 81//11 4//10 5//12
f 81//11 5//12 80//13
f 80//13 5//12 6//14
f 80//13 6//14 79//15
f 79//15 6//14 7//16
f 79//15 7//16 78//17
f 78//17 7//16 8//18
f 78//17 8//18 77//19
f 77//19 8//18 9//20
f 77//19 9//20 76//21
f 76//21 9//20 10//22
f 76//21 10//22 75//23
f 75//23 10//22 11//24
f 75//23 11//24 74//25
f 74//25 11//24 12//26
f 74//25 12//26 73//27
f 73//27 12//26 13//28
f 73//27 13//28 72//29
f 72//29 13//28 14//30
f 72//29 14//30 71//31
f 71//31 14//30 15//32
f 71//31 15//32 70//33
f 70//33 15//32 16//34
f 70//33 16//34 69//35
f 69//35 16//34 17//36
f 69//35 17//36 68//37
f 68//37 17//36 18//38
f 68//37 18//38 67//39
f 67//39 18//38 19//40
f 67//39 19//40 66//41
f 66//41 19//40 20//42
f 66//41 20//42 65//43
f 65//43 20//42 21//44
f 65//43 21//44 64//45
f 64//45 21//44 22//46
f 64//45 22//46 63//47
f 63//47 22//46 23//48
f 63//47 23//48 62//49
f 62//49 23//48 24//50
f 62//49 24//50 61//51
f 61//51 24//50 25//52
f 61//51 25//52 60//53
f 60//53 25//52 26//54
f 60//53 26//54 59//55
f 59//55 26//54 27//56
f 59//55 27//56 58//57
f 58//57 27//56 28//58
f 58//57 28//58 57//59
f 57//59 28//58 29//60
f 57//59 29//60 56//61
f 56//61 29//60 30//62
f 56//61 30//62 55//63
f 55//63 30//62 31//64
f 55//63 31//64 54//65
f 54//65 31//64 32//66
f 54//65 32//66 53//67
f 53//67 32//66 33//68
f 53//67 33//68 52//69
f 52//69 33//68 34//70
f 52//69 34//70 51//71
f 51//71 34//70 35//72
f 51//71 35//72 50//73
f 50//73 35//72 36//74
f 50//73 36//74 49//75
f 49//75 36//74 37//76
f 49//75 37//76 48//77
f 48//77 37//76 38//78
f 48//77 38//78 47//79
f 47//79 38//78 39//80
f 47//79 39//80 46//81
f 46//81 39//80 40//82
f 46//81 40//82 45//83
f 45//83 40//82 41//84
f 45//83 41//84 44//85
f 44//85 41//84 42//1
f 44//85 42//1 43//3

g face 1
f 85//86 2//87 84//88
f 84//88 2//87 1//88
f 84//88 1//88 125//89
f 125//89 1//88 42//90
f 125//89 42//90 124//91
f 124//91 42//90 41//92
f 124//91 41//92 123//93
f 123//93 41//92 40//93
f 123//93 40//93 122//94
f 122//94 40//93 39//95
f 122//94 39//95 121//96
f 121//96 39//95 38//97
f 121//96 38//97 120//98
f 120//98 38//97 37//98
f 120//98 37//98 119//99
f 119//99 37//98 36//100
f 119//99 36//100 118//101
f 118//101 36//100 35//102
f 118//101 35//102 117//103
f 117//103 35//102 34//104
f 117//103 34//104 116//105
f 116//105 34//104 33//106
f 116//105 33//106 115//107
f 115//107 33//106 32//108
f 115//107 32//108 114//109
f 114//109 32//108 31//109
f 114//109 31//109 113//110
f 113//110 31//109 30//111
f 113//110 30//111 112//112
f 112//112 30//111 29//113
f 112//112 29//113 111//114
f 111//114 29//113 28//114
f 111//114 28//114 110//115
f 110//115 28//114 27//116
f 110//115 27//116 109//117
f 109//117 27//116 26//118
f 109//117 26//118 108//119
f 108//119 26//118 25//119
f 108//119 25//119 107//120
f 107//120 25//119 24//120
f 107//120 24//120 106//121
f 106//121 24//120 23//122
f 106//121 23//122 105//123
f 105//123 23//122 22//123
f 105//124 22//124 104//125
f 104//125 22//124 21//126
f 104//125 21//126 103//127
f 103//127 21//126 20//127
f 103//127 20//127 102//128
f 102//128 20//127 19//128
f 102//128 19//128 101//129
f 101//129 19//128 18//130
f 101//129 18//130 100//131
f 100//131 18//130 17//132
f 100//131 17//132 99//133
f 99//133 17//132 16//133
f 99//133 16//133 98//134
f 98//134 16//133 15//135
f 98//134 15//135 97//136
f 97//136 15//135 14//137
f 97//136 14//137 96//138
f 96//138 14//137 13//138
f 96//138 13//138 95//139
f 95//139 13//138 12//140
f 95//139 12//140 94//141
f 94//141 12//140 11//142
f 94//141 11//142 93//143
f 93//143 11//142 10//143
f 93//143 10//143 92//144
f 92//144 10//143 9//145
f 92//144 9//145 91//146
f 91//146 9//145 8//147
f 91//146 8//147 90//148
f 90//148 8//147 7//148
f 90//148 7//148 89//149
f 89//149 7//148 6//150
f 89//149 6//150 88//151
f 88//151 6//150 5//152
f 88//151 5//152 87//153
f 87//153 5//152 4//153
f 87//153 4//153 86//154
f 86//154 4//153 3//155
f 86//154 3//155 85//86
f 85//86 3//155 2//87

g face 2
f 44//156 43//156 60//156
f 60//156 43//156 83//156
f 60//156 83//156 82//156
f 82//156 81//156 60//156
f 60//156 81//156 80//156
f 60//156 80//156 79//156
f 79//156 78//156 60//156
f 60//156 78//156 77//156
f 60//156 77//156 76//156
f 76//156 75//156 60//156
f 60//156 75//156 74//156
f 60//156 74//156 73//156
f 60//156 73//156 61//156
f 61//156 73//156 72//156
f 61//156 72//156 71//156
f 71//156 70//156 61//156
f 61//156 70//156 69//156
f 61//156 69//156 68//156
f 68//156 67//156 61//156
f 61//156 67//156 66//156
f 61//156 66//156 62//156
f 62//156 66//156 65//156
f 62//156 65//156 63//156
f 63//156 65//156 64//156
f 59//156 47//156 60//156
f 60//156 47//156 46//156
f 60//156 46//156 45//156
f 47//156 59//156 48//156
f 48//156 59//156 58//156
f 48//156 58//156 49//156
f 49//156 58//156 57//156
f 49//156 57//156 50//156
f 50//156 57//156 56//156
f 50//156 56//156 51//156
f 51//156 56//156 55//156
f 51//156 55//156 52//156
f 52//156 55//156 54//156
f 52//156 54//156 53//156
f 45//156 44//156 60//156

g face 3
f 85//157 84//158 126//159
f 126//160 84//161 125//162
f 126//160 125//162 166//163
f 166//163 125//162 124//164
f 166//163 124//164 165//165
f 165//165 124//164 123//166
f 165//165 123//166 164//167
f 164//167 123//166 122//168
f 164//167 122//168 163//169
f 163//169 122//168 121//170
f 163//169 121//170 162//171
f 162//171 121//170 120//172
f 162//171 120//172 161//173
f 161//173 120//172 119//174
f 161//173 119//174 160//175
f 160//175 119//174 118//176
f 160//175 118//176 159//177
f 159//177 118//176 117//178
f 159//177 117//178 158//179
f 158//179 117//178 116//180
f 158//179 116//180 157//181
f 157//181 116//180 115//182
f 157//181 115//182 156//183
f 156//183 115//182 114//184
f 156//183 114//184 155//185
f 155//185 114//184 113//186
f 155//185 113//186 154//187
f 154//187 113//186 112//188
f 154//187 112//188 153//189
f 153//189 112//188 111//190
f 153//189 111//190 152//191
f 152//191 111//190 110//192
f 152//191 110//192 151//193
f 151//193 110//192 109//194
f 151//193 109//194 150//195
f 150//195 109//194 108//196
f 150//195 108//196 149//197
f 149//197 108//196 107//198
f 149//197 107//198 148//199
f 148//199 107//198 106//200
f 148//199 106//200 147//201
f 147//201 106//200 105//202
f 147//201 105//202 146//203
f 146//203 105//202 104//204
f 146//203 104//204 145//205
f 145//205 104//204 103//206
f 145//205 103//206 144//207
f 144//207 103//206 102//208
f 144//207 102//208 143//209
f 143//209 102//208 101//210
f 143//209 101//210 142//211
f 142//211 101//210 100//212
f 142//211 100//212 141//213
f 141//213 100//212 99//214
f 141//213 99//214 140//215
f 140//215 99//214 98//216
f 140//215 98//216 139//217
f 139//217 98//216 97//218
f 139//217 97//218 138//219
f 138//219 97//218 96//220
f 138//219 96//220 137//221
f 137//221 96//220 95//222
f 137//221 95//222 136//223
f 136//223 95//222 94//224
f 136//223 94//224 135//225
f 135//225 94//224 93//226
f 135//225 93//226 134//227
f 134//227 93//226 92//228
f 134//227 92//228 133//229
f 133//229 92//228 91//230
f 133//229 91//230 132//231
f 132//231 91//230 90//232
f 132//231 90//232 131//233
f 131//233 90//232 89//234
f 131//233 89//234 130//235
f 130//235 89//234 88//236
f 130//235 88//236 129//237
f 129//237 88//236 87//238
f 129//237 87//238 128//239
f 128//239 87//238 86//240
f 128//239 86//240 127//241
f 127//241 86//240 85//157
f 127//241 85//157 126//159

g face 4
f 127//242 126//242 150//242
f 150//242 126//242 166//242
f 150//242 166//242 165//242
f 165//242 164//242 150//242
f 150//242 164//242 163//242
f 150//242 163//242 151//242
f 151//242 163//242 162//242
f 151//242 162//242 152//242
f 152//242 162//242 161//242
f 152//242 161//242 153//242
f 153//242 161//242 160//242
f 153//242 160//242 154//242
f 154//242 160//242 159//242
f 154//242 159//242 155//242
f 155//242 159//242 158//242
f 155//242 158//242 156//242
f 156//242 158//242 157//242
f 149//242 137//242 150//242
f 150//242 137//242 136//242
f 150//242 136//242 135//242
f 148//242 144//242 149//242
f 149//242 144//242 143//242
f 149//242 143//242 142//242
f 144//242 148//242 145//242
f 145//242 148//242 147//242
f 145//242 147//242 146//242
f 142//242 141//242 149//242
f 149//242 141//242 140//242
f 149//242 140//242 139//242
f 139//242 138//242 149//242
f 149//242 138//242 137//242
f 135//242 134//242 150//242
f 150//242 134//242 133//242
f 150//242 133//242 132//242
f 132//242 131//242 150//242
f 150//242 131//242 130//242
f 150//242 130//242 129//242
f 129//242 128//242 150//242
f 150//242 128//242 127//242

g halfedge 0 edge 0
l 1 42 41 40 39 38 37 36 35 34 33 32 31 30 29 28 27 26 25 24 23 22 21 20 19 18 17 16 15 14 13 12 11 10 9 8 7 6 5 4 3 2 1

g halfedge 1 edge 0
l 1 2 3 4 5 6 7 8 9 10 11 12 13 14 15 16 17 18 19 20 21 22 23 24 25 26 27 28 29 30 31 32 33 34 35 36 37 38 39 40 41 42 1

g halfedge 2 edge 1
l 43 83 82 81 80 79 78 77 76 75 74 73 72 71 70 69 68 67 66 65 64 63 62 61 60 59 58 57 56 55 54 53 52 51 50 49 48 47 46 45 44 43

g halfedge 3 edge 1
l 43 44 45 46 47 48 49 50 51 52 53 54 55 56 57 58 59 60 61 62 63 64 65 66 67 68 69 70 71 72 73 74 75 76 77 78 79 80 81 82 83 43

g halfedge 4 edge 2
l 84 85 86 87 88 89 90 91 92 93 94 95 96 97 98 99 100 101 102 103 104 105 106 107 108 109 110 111 112 113 114 115 116 117 118 119 120 121 122 123 124 125 84

g halfedge 5 edge 2
l 84 125 124 123 122 121 120 119 118 117 116 115 114 113 112 111 110 109 108 107 106 105 104 103 102 101 100 99 98 97 96 95 94 93 92 91 90 89 88 87 86 85 84

g halfedge 6 edge 3
l 126 166 165 164 163 162 161 160 159 158 157 156 155 154 153 152 151 150 149 148 147 146 145 144 143 142 141 140 139 138 137 136 135 134 133 132 131 130 129 128 127 126

g halfedge 7 edge 3
l 126 127 128 129 130 131 132 133 134 135 136 137 138 139 140 141 142 143 144 145 146 147 148 149 150 151 152 153 154 155 156 157 158 159 160 161 162 163 164 165 166 126

g vertex 0
p 1

g vertex 1
p 43

g vertex 2
p 84

g vertex 3
p 126

# End of file
