# WaveFront *.obj file
# Vertices: 313
# Triangles : 622

v -4.6330307034154750e+00 3.3869246048380752e+00 -2.5908000000000002e+00
v -4.6330307034154750e+00 3.4361216636714769e+00 -2.5853886997861890e+00
v -4.6330307034154750e+00 3.4597205297376843e+00 -2.5747303893398130e+00
v -4.6330307034154750e+00 3.4810331486039772e+00 -2.5579085437659019e+00
v -4.6330307034154750e+00 3.4978549941778887e+00 -2.5365959248996082e+00
v -4.6330307034154750e+00 3.5085133046242638e+00 -2.5129970588334016e+00
v -4.6330307034154750e+00 3.5139246048380754e+00 -2.4638000000000000e+00
v -4.5424592971092057e+00 3.5029272450611391e+00 -2.4638000000000000e+00
v -4.4571515717237906e+00 3.4705742923067890e+00 -2.4638000000000000e+00
v -4.3820653021776632e+00 3.4187459825909103e+00 -2.4638000000000000e+00
v -4.3215642295293621e+00 3.3504543888859484e+00 -2.4638000000000000e+00
v -4.2791644562087532e+00 3.2696683703881932e+00 -2.4638000000000000e+00
v -4.2573301029243256e+00 3.1810829168475050e+00 -2.4638000000000000e+00
v -4.2573301029243256e+00 3.0898462928286459e+00 -2.4638000000000000e+00
v -4.2791644562087532e+00 3.0012608392879576e+00 -2.4638000000000000e+00
v -4.3215642295293621e+00 2.9204748207902020e+00 -2.4638000000000000e+00
v -4.3820653021776632e+00 2.8521832270852405e+00 -2.4638000000000000e+00
v -4.4571515717237906e+00 2.8003549173693618e+00 -2.4638000000000000e+00
v -4.5424592971092057e+00 2.7680019646150118e+00 -2.4638000000000000e+00
v -4.6330307034154750e+00 2.7570046048380754e+00 -2.4638000000000000e+00
v -4.7236021097217442e+00 2.7680019646150118e+00 -2.4638000000000000e+00
v -4.8089098351071593e+00 2.8003549173693618e+00 -2.4638000000000000e+00
v -4.8839961046532867e+00 2.8521832270852405e+00 -2.4638000000000000e+00
v -4.9444971773015878e+00 2.9204748207902020e+00 -2.4638000000000000e+00
v -4.9868969506221967e+00 3.0012608392879572e+00 -2.4638000000000000e+00
v -5.0087313039066244e+00 3.0898462928286459e+00 -2.4638000000000000e+00
v -5.0087313039066244e+00 3.1810829168475045e+00 -2.4638000000000000e+00
v -4.9868969506221967e+00 3.2696683703881932e+00 -2.4638000000000000e+00
v -4.9444971773015878e+00 3.3504543888859484e+00 -2.4638000000000000e+00
v -4.8839961046532867e+00 3.4187459825909103e+00 -2.4638000000000000e+00
v -4.8089098351071602e+00 3.4705742923067890e+00 -2.4638000000000000e+00
v -4.7236021097217442e+00 3.5029272450611391e+00 -2.4638000000000000e+00
v -4.7038751721588206e+00 3.3767387079831770e+00 -2.5908000000000002e+00
v -4.7689802433728596e+00 3.3470062182038043e+00 -2.5908000000000002e+00
v -4.8230714913825965e+00 3.3001358849959566e+00 -2.5908000000000002e+00
v -4.8617667649673217e+00 3.2399248640075298e+00 -2.5908000000000002e+00
v -4.8819312031908542e+00 3.1712510940702758e+00 -2.5908000000000002e+00
v -4.8819312031908542e+00 3.0996781156058750e+00 -2.5908000000000002e+00
v -4.8617667649673217e+00 3.0310043456686211e+00 -2.5908000000000002e+00
v -4.8230714913825965e+00 2.9707933246801939e+00 -2.5908000000000002e+00
v -4.7689802433728596e+00 2.9239229914723466e+00 -2.5908000000000002e+00
v -4.7038751721588206e+00 2.8941905016929739e+00 -2.5908000000000002e+00
v -4.6330307034154750e+00 2.8840046048380756e+00 -2.5908000000000002e+00
v -4.5621862346721294e+00 2.8941905016929739e+00 -2.5908000000000002e+00
v -4.4970811634580903e+00 2.9239229914723466e+00 -2.5908000000000002e+00
v -4.4429899154483534e+00 2.9707933246801939e+00 -2.5908000000000002e+00
v -4.4042946418636282e+00 3.0310043456686211e+00 -2.5908000000000002e+00
v -4.3841302036400958e+00 3.0996781156058750e+00 -2.5908000000000002e+00
v -4.3841302036400958e+00 3.1712510940702758e+00 -2.5908000000000002e+00
v -4.4042946418636282e+00 3.2399248640075298e+00 -2.5908000000000002e+00
v -4.4429899154483534e+00 3.3001358849959570e+00 -2.5908000000000002e+00
v -4.4970811634580903e+00 3.3470062182038043e+00 -2.5908000000000002e+00
v -4.5621862346721294e+00 3.3767387079831770e+00 -2.5908000000000002e+00
v -4.5020785252544897e+00 3.3924767778362659e+00 -2.5883799744228302e+00
v -4.5163145823782465e+00 3.4946802853355146e+00 -2.4885483294180091e+00
v -4.4290418170730144e+00 3.3394535279748294e+00 -2.5883799744228297e+00
v -4.3996899763630353e+00 3.3050035297561164e+00 -2.5883799744228297e+00
v -4.3659549390245722e+00 3.4025404174025056e+00 -2.4885483294180086e+00
v -4.3586924297844014e+00 3.2245979253204853e+00 -2.5883799744228306e+00
v -4.2738488604953950e+00 3.2521638531518979e+00 -2.4885483294180091e+00
v -4.3586836674830138e+00 3.0463205129176951e+00 -2.5883799744228311e+00
v -4.2738373883099090e+00 3.0187512538440471e+00 -2.4885483294180091e+00
v -4.3997303622967117e+00 2.9659714183591248e+00 -2.5883799744228311e+00
v -4.4291300913889389e+00 2.9315541318154352e+00 -2.5883799744228306e+00
v -4.3660705136072089e+00 2.8684915043604118e+00 -2.4885483294180091e+00
v -4.5020667025292900e+00 2.8784450617431618e+00 -2.5883799744228302e+00
v -4.5163539029235888e+00 2.7764482116089959e+00 -2.4885483294180091e+00
v -4.7639060282529027e+00 2.8785772208736033e+00 -2.5883799744228302e+00
v -4.7497111877577147e+00 2.7763117572537515e+00 -2.4885483294180091e+00
v -4.8369716167577108e+00 2.9315443709680817e+00 -2.5883799744228311e+00
v -4.8664180671048198e+00 2.9658983432788468e+00 -2.5883799744228306e+00
v -4.9000436583762426e+00 2.8684787248123946e+00 -2.4885483294180091e+00
v -4.9071528217521463e+00 3.0463845523184263e+00 -2.5883799744228306e+00
v -4.9919295415037004e+00 3.0188350984701340e+00 -2.4885483294180091e+00
v -4.9072739098665528e+00 3.2245489242378089e+00 -2.5883799744228306e+00
v -4.9920880780852448e+00 3.2520996976881063e+00 -2.4885483294180091e+00
v -4.8662372933099425e+00 3.3049231731567681e+00 -2.5883799744228306e+00
v -4.8369670800455280e+00 3.3394200431425753e+00 -2.5883799744228306e+00
v -4.9000377186120927e+00 3.4024965768417275e+00 -2.4885483294180091e+00
v -4.7639605776651335e+00 3.3924031238548009e+00 -2.5883799744228306e+00
v -4.7496816390991068e+00 3.4944913416218966e+00 -2.4885483294180091e+00
v -4.5739462330986962e+00 3.5085089820902273e+00 -2.4885483294180091e+00
v -4.5746742033222585e+00 3.5039127625210109e+00 -2.5129969303939279e+00
v -4.5763414832340992e+00 3.4933859795426225e+00 -2.5365957185428969e+00
v -4.5789729270821757e+00 3.4767717097299826e+00 -2.5579082942426079e+00
v -4.5823068678204004e+00 3.4557220525219501e+00 -2.5747301594172947e+00
v -4.5879027775344383e+00 3.4203908962428038e+00 -2.5883799744228306e+00
v -4.5177526228695841e+00 3.4902544469073007e+00 -2.5129969303939284e+00
v -4.5210461861857993e+00 3.4801178901284948e+00 -2.5365957185428969e+00
v -4.5262443696852559e+00 3.4641195087008572e+00 -2.5579082942426079e+00
v -4.5328302733693766e+00 3.4438501589952848e+00 -2.5747301594172947e+00
v -4.5438844957732556e+00 3.4098287231568447e+00 -2.5883799744228306e+00
v -4.4110434068142661e+00 3.4409992384999257e+00 -2.4885483294180086e+00
v -4.4137784764707808e+00 3.4372347955865807e+00 -2.5129969303939275e+00
v -4.4200426429822635e+00 3.4286130417764018e+00 -2.5365957185428964e+00
v -4.4299292866783251e+00 3.4150054520355897e+00 -2.5579082942426070e+00
v -4.4424552937244917e+00 3.3977651457987350e+00 -2.5747301594172938e+00
v -4.4634797839633595e+00 3.3688278596503318e+00 -2.5883799744228297e+00
v -4.4858403190542475e+00 3.4243465544197944e+00 -2.5747301594172942e+00
v -4.4761658925654029e+00 3.4433339848644589e+00 -2.5579082942426075e+00
v -4.4685299709739166e+00 3.4583205610988692e+00 -2.5365957185428969e+00
v -4.4636918594986588e+00 3.4678160392262734e+00 -2.5129969303939279e+00
v -4.4615794361033743e+00 3.4719619689445778e+00 -2.4885483294180091e+00
v -4.3692455364162264e+00 3.3992498194173137e+00 -2.5129969303939275e+00
v -4.3767820355084774e+00 3.3917133189656741e+00 -2.5365957185428960e+00
v -4.3886767833738443e+00 3.3798185689548026e+00 -2.5579082942426070e+00
v -4.4037469831458189e+00 3.3647483664645561e+00 -2.5747301594172938e+00
v -4.2965913755373597e+00 3.3068861484688918e+00 -2.4885483294180086e+00
v -4.3007365902006605e+00 3.3047740912942873e+00 -2.5129969303939279e+00
v -4.3102304306280521e+00 3.2999368185791371e+00 -2.5365957185428964e+00
v -4.3252144221041435e+00 3.2923022207906372e+00 -2.5579082942426075e+00
v -4.3441985777568854e+00 3.2826294715105662e+00 -2.5747301594172942e+00
v -4.3760628577100391e+00 3.2663940804500036e+00 -2.5883799744228302e+00
v -4.3707554836802638e+00 3.3260265326602925e+00 -2.5747301594172938e+00
v -4.3535168417391805e+00 3.3385516535796316e+00 -2.5579082942426070e+00
v -4.3399105656092605e+00 3.3484375978652436e+00 -2.5365957185428960e+00
v -4.3312896441014903e+00 3.3547013212310399e+00 -2.5129969303939275e+00
v -4.3275255645892550e+00 3.3574361974006295e+00 -2.4885483294180086e+00
v -4.2782742820162794e+00 3.2507260205466628e+00 -2.5129969303939279e+00
v -4.2884098839466676e+00 3.2474329333547591e+00 -2.5365957185428964e+00
v -4.3044067583508134e+00 3.2422355013154402e+00 -2.5579082942426075e+00
v -4.3246741987140984e+00 3.2356505497031534e+00 -2.5747301594172947e+00
v -4.2554318106034721e+00 3.1354719601512469e+00 -2.4885483294180091e+00
v -4.2600841456238818e+00 3.1354718695276200e+00 -2.5129969303939279e+00
v -4.2707394505685397e+00 3.1354716619711196e+00 -2.5365957185428969e+00
v -4.2875565647476721e+00 3.1354713343876872e+00 -2.5579082942426079e+00
v -4.3088632181661550e+00 3.1354709193517554e+00 -2.5747301594172947e+00
v -4.3446257341194672e+00 3.1354702227276134e+00 -2.5883799744228311e+00
v -4.3481083752771710e+00 3.1805938362815342e+00 -2.5883799744228306e+00
v -4.3127777104471807e+00 3.1861899078866700e+00 -2.5747301594172947e+00
v -4.2917283460355735e+00 3.1895239450766510e+00 -2.5579082942426079e+00
v -4.2751143073240288e+00 3.1921554650530708e+00 -2.5365957185428969e+00
v -4.2645876707710375e+00 3.1938227931997454e+00 -2.5129969303939279e+00
v -4.2599915151342946e+00 3.1945507844836718e+00 -2.4885483294180091e+00
v -4.2600899703475976e+00 3.0763903999314381e+00 -2.4885483294180091e+00
v -4.2646849129335465e+00 3.0771182436765385e+00 -2.5129969303939284e+00
v -4.2752087712201252e+00 3.0787852339130719e+00 -2.5365957185428969e+00
v -4.2918184250338465e+00 3.0814162205707869e+00 -2.5579082942426079e+00
v -4.3128622339442400e+00 3.0847495820659567e+00 -2.5747301594172947e+00
v -4.3481835740484343e+00 3.0903445195396069e+00 -2.5883799744228311e+00
v -4.2965228574612864e+00 2.9640127517471457e+00 -2.4885483294180091e+00
v -4.3006689163247440e+00 2.9661251823597170e+00 -2.5129969303939284e+00
v -4.3101646902350161e+00 2.9709633103648225e+00 -2.5365957185428969e+00
v -4.3251517332992639e+00 2.9785992580451288e+00 -2.5579082942426079e+00
v -4.3441397551998344e+00 2.9882737175875294e+00 -2.5747301594172947e+00
v -4.3760105245226226e+00 3.0045119792670780e+00 -2.5883799744228311e+00
v -4.3246643498782307e+00 3.0352665528655227e+00 -2.5747301594172947e+00
v -4.3043962621775593e+00 3.0286808054857559e+00 -2.5579082942426079e+00
v -4.2883988768369230e+00 3.0234827453556563e+00 -2.5365957185428969e+00
v -4.2782629511777390e+00 3.0201892602061293e+00 -2.5129969303939284e+00
v -4.3275784405292166e+00 2.9135528960701786e+00 -2.4885483294180091e+00
v -4.3313418685655289e+00 2.9162870344211984e+00 -2.5129969303939284e+00
v -4.3399612979893041e+00 2.9225490679512838e+00 -2.5365957185428969e+00
v -4.3535652191845662e+00 2.9324323451935563e+00 -2.5579082942426075e+00
v -4.3708008775116918e+00 2.9449540870689352e+00 -2.5747301594172947e+00
v -4.4110530996767725e+00 2.8299256289796659e+00 -2.4885483294180091e+00
v -4.4137880499090931e+00 2.8336901253925140e+00 -2.5129969303939279e+00
v -4.4200519429017504e+00 2.8423120017333185e+00 -2.5365957185428964e+00
v -4.4299381549069921e+00 2.8559197848624502e+00 -2.5579082942426075e+00
v -4.4424636150170684e+00 2.8731603361150579e+00 -2.5747301594172942e+00
v -4.4634871872417241e+00 2.9020980335143332e+00 -2.5883799744228302e+00
v -4.4038462035686674e+00 2.9062690212213975e+00 -2.5747301594172942e+00
v -4.3887825252871506e+00 2.8912046144336174e+00 -2.5579082942426075e+00
v -4.3768929247646096e+00 2.8793144389088572e+00 -2.5365957185428969e+00
v -4.3693596870230813e+00 2.8717808368465585e+00 -2.5129969303939279e+00
v -4.4615639570082806e+00 2.7989575913126701e+00 -2.4885483294180091e+00
v -4.4636765711189978e+00 2.8031036399199074e+00 -2.5129969303939279e+00
v -4.4685151193923547e+00 2.8125993903402202e+00 -2.5365957185428964e+00
v -4.4761517303759835e+00 2.8275863963306036e+00 -2.5579082942426075e+00
v -4.4858270302988341e+00 2.8465743712599796e+00 -2.5747301594172942e+00
v -4.5739923313952602e+00 2.7626976540638783e+00 -2.4885483294180091e+00
v -4.5747197336491494e+00 2.7672904555062319e+00 -2.5129969303939279e+00
v -4.5763857127324750e+00 2.7778094099030786e+00 -2.5365957185428964e+00
v -4.5790151035016589e+00 2.7944113239783346e+00 -2.5579082942426075e+00
v -4.5823464430658687e+00 2.8154453269301509e+00 -2.5747301594172942e+00
v -4.5879379867950014e+00 2.8507502080558669e+00 -2.5883799744228302e+00
v -4.5439145282783491e+00 2.8612526994616805e+00 -2.5883799744228302e+00
v -4.5328640299363165e+00 2.8272501381863009e+00 -2.5747301594172942e+00
v -4.5262803449801865e+00 2.8069920336004541e+00 -2.5579082942426075e+00
v -4.5210839126990541e+00 2.7910025278258179e+00 -2.5365957185428964e+00
v -4.5177914589528330e+00 2.7808715946509381e+00 -2.5129969303939279e+00
v -4.6921179610754553e+00 2.7624280632592844e+00 -2.4885483294180091e+00
v -4.6913899565094876e+00 2.7670241862864340e+00 -2.5129969303939279e+00
v -4.6897225979427768e+00 2.7775507481532387e+00 -2.5365957185428964e+00
v -4.6870910299548525e+00 2.7941646689886546e+00 -2.5579082942426075e+00
v -4.6837569319360943e+00 2.8152138840556216e+00 -2.5747301594172942e+00
v -4.6781607582318596e+00 2.8505442982155538e+00 -2.5883799744228302e+00
v -4.6330493171044393e+00 2.8471199526117990e+00 -2.5883799744228302e+00
v -4.6330516252212171e+00 2.8113649160378258e+00 -2.5747301594172942e+00
v -4.6330530003550123e+00 2.7900627186968623e+00 -2.5579082942426075e+00
v -4.6330540857334412e+00 2.7732491216521646e+00 -2.5365957185428964e+00
v -4.6330547734280136e+00 2.7625960451599951e+00 -2.5129969303939279e+00
v -4.6330550736902358e+00 2.7579446831298098e+00 -2.4885483294180091e+00
v -4.7482735863403445e+00 2.7807368215277832e+00 -2.5129969303939279e+00
v -4.7449810286410932e+00 2.7908716052509401e+00 -2.5365957185428964e+00
v -4.7397844322923941e+00 2.8068671882904095e+00 -2.5579082942426075e+00
v -4.7332005394688030e+00 2.8271329925430462e+00 -2.5747301594172942e+00
v -4.7221496922280854e+00 2.8611484774555151e+00 -2.5883799744228302e+00
v -4.8548985625811616e+00 2.8301112923457894e+00 -2.4885483294180091e+00
v -4.8521649644940137e+00 2.8338735012302663e+00 -2.5129969303939279e+00
v -4.8459041683374799e+00 2.8424901384143340e+00 -2.5365957185428964e+00
v -4.8360228440240460e+00 2.8560896526579196e+00 -2.5579082942426075e+00
v -4.8235035764363161e+00 2.8733197275424294e+00 -2.5747301594172947e+00
v -4.8024903981564471e+00 2.9022398407029280e+00 -2.5883799744228306e+00
v -4.7801347045611449e+00 2.8467229182599585e+00 -2.5747301594172942e+00
v -4.7898034533145006e+00 2.8277447069237525e+00 -2.5579082942426075e+00
v -4.7974348935299540e+00 2.8127654072332704e+00 -2.5365957185428964e+00
v -4.8022701656103131e+00 2.8032745395160523e+00 -2.5129969303939279e+00
v -4.8043813492647933e+00 2.7991306228018686e+00 -2.4885483294180091e+00
v -4.8967538348494415e+00 2.8717682147532901e+00 -2.5129969303939279e+00
v -4.8892191081501828e+00 2.8793021774362999e+00 -2.5365957185428969e+00
v -4.8773271576271213e+00 2.8911929221235293e+00 -2.5579082942426079e+00
v -4.8622605019830170e+00 2.9062580500188275e+00 -2.5747301594172947e+00
v -4.9694103442678976e+00 2.9640392623186349e+00 -2.4885483294180091e+00
v -4.9652658649988082e+00 2.9661513662987331e+00 -2.5129969303939279e+00
v -4.9557737088545863e+00 2.9709887462131293e+00 -2.5365957185428969e+00
v -4.9407923756583383e+00 2.9786235131926544e+00 -2.5579082942426079e+00
v -4.9218115879465358e+00 2.9882964768314140e+00 -2.5747301594172947e+00
v -4.8899529609713142e+00 3.0045322276859747e+00 -2.5883799744228306e+00
v -4.8953583427790406e+00 2.9448719506027503e+00 -2.5747301594172947e+00
v -4.9126004301207402e+00 2.9323448101192513e+00 -2.5579082942426079e+00
v -4.9262094256686018e+00 2.9224572718131987e+00 -2.5365957185428969e+00
v -4.9348320701965731e+00 2.9161925384778145e+00 -2.5129969303939279e+00
v -4.9385969020164389e+00 2.9134572213338084e+00 -2.4885483294180091e+00
v -4.9875076068396771e+00 3.0202720717961093e+00 -2.5129969303939279e+00
v -4.9773799909040628e+00 3.0235631909692633e+00 -2.5365957185428969e+00
v -4.9613957206803345e+00 3.0287575169129628e+00 -2.5579082942426079e+00
v -4.9411442493412778e+00 3.0353385332185052e+00 -2.5747301594172947e+00
v -5.0106268671019212e+00 3.1354866075599732e+00 -2.4885483294180091e+00
v -5.0059745657066266e+00 3.1354863364679875e+00 -2.5129969303939284e+00
v -4.9953193377740197e+00 3.1354857155823970e+00 -2.5365957185428969e+00
v -4.9785023451418970e+00 3.1354847356476214e+00 -2.5579082942426079e+00
v -4.9571958457189194e+00 3.1354834941069849e+00 -2.5747301594172947e+00
v -4.9214335882419906e+00 3.1354814102219208e+00 -2.5883799744228306e+00
v -4.9177391854936072e+00 3.0903895391668565e+00 -2.5883799744228306e+00
v -4.9530433331898704e+00 3.0848001841737771e+00 -2.5747301594172947e+00
v -4.9740768991778230e+00 3.0814701486185081e+00 -2.5579082942426079e+00
v -4.9906784683621641e+00 3.0788417870896652e+00 -2.5365957185428969e+00
v -5.0011972042365080e+00 3.0771764601318816e+00 -2.5129969303939284e+00
v -5.0057899102672430e+00 3.0764493426100121e+00 -2.4885483294180091e+00
v -5.0060773396419007e+00 3.1945476359310283e+00 -2.4885483294180091e+00
v -5.0014810922402271e+00 3.1938196834399109e+00 -2.5129969303939284e+00
v -4.9909542455167903e+00 3.1921524441409241e+00 -2.5365957185428969e+00
v -4.9743398750962600e+00 3.1895210643915290e+00 -2.5579082942426079e+00
v -4.9532900904217989e+00 3.1861872048639328e+00 -2.5747301594172947e+00
v -4.9179587201944521e+00 3.1805914314592592e+00 -2.5883799744228306e+00
v -4.9692796896730353e+00 3.3067797558080034e+00 -2.4885483294180091e+00
v -4.9651368201781230e+00 3.3046690094802038e+00 -2.5129969303939279e+00
v -4.9556483509211695e+00 3.2998347390149738e+00 -2.5365957185428969e+00
v -4.9406728366859465e+00 3.2922048796342396e+00 -2.5579082942426079e+00
v -4.9216994213796870e+00 3.2825381337392279e+00 -2.5747301594172947e+00
v -4.8898531687443336e+00 3.2663128191627457e+00 -2.5883799744228306e+00
v -4.9412803525077260e+00 3.2355954724352953e+00 -2.5747301594172947e+00
v -4.9615407695403793e+00 3.2421768039674972e+00 -2.5579082942426079e+00
v -4.9775321005046020e+00 3.2473713787162350e+00 -2.5365957185428969e+00
v -4.9876641901175853e+00 3.2506626555319866e+00 -2.5129969303939284e+00
v -4.9383602209878070e+00 3.3573309892170879e+00 -2.4885483294180091e+00
v -4.9345983052766984e+00 3.3545974093005491e+00 -2.5129969303939279e+00
v -4.9259823395515063e+00 3.3483366547604025e+00 -2.5365957185428969e+00
v -4.9123838850617849e+00 3.3384553961295129e+00 -2.5579082942426079e+00
v -4.8951551528457058e+00 3.3259362117591049e+00 -2.5747301594172947e+00
v -4.8550334332219425e+00 3.4410199182026804e+00 -2.4885483294180091e+00
v -4.8522981734153960e+00 3.4372552204980553e+00 -2.5129969303939279e+00
v -4.8460335714007599e+00 3.4286328831360091e+00 -2.5365957185428969e+00
v -4.8361462403563511e+00 3.4150243723836975e+00 -2.5579082942426079e+00
v -4.8236193624655881e+00 3.3977828992597896e+00 -2.5747301594172947e+00
v -4.8025934105427490e+00 3.3688436545299023e+00 -2.5883799744228306e+00
v -4.8622554027138074e+00 3.3647107294782996e+00 -2.5747301594172947e+00
v -4.8773217231967179e+00 3.3797784581910753e+00 -2.5579082942426079e+00
v -4.8892134091806234e+00 3.3916712556757864e+00 -2.5365957185428969e+00
v -4.8967479682681665e+00 3.3992065190090099e+00 -2.5129969303939279e+00
v -4.8044527689692176e+00 3.4718655362724218e+00 -2.4885483294180091e+00
v -4.8023407053640845e+00 3.4677207946855080e+00 -2.5129969303939279e+00
v -4.7975034179210105e+00 3.4582280377512751e+00 -2.5365957185428969e+00
v -4.7898687968876397e+00 3.4432457563368155e+00 -2.5579082942426079e+00
v -4.7801960181571896e+00 3.4242637672680738e+00 -2.5747301594172947e+00
v -4.6920857238387974e+00 3.5084181942013801e+00 -2.4885483294180091e+00
v -4.6913581164626192e+00 3.5038230932150904e+00 -2.5129969303939279e+00
v -4.6896916675849827e+00 3.4932988721420983e+00 -2.5365957185428969e+00
v -4.6870615353462091e+00 3.4766886457478097e+00 -2.5579082942426079e+00
v -4.6837292563678190e+00 3.4556441113992959e+00 -2.5747301594172947e+00
v -4.6781361358629248e+00 3.4203215536711125e+00 -2.5883799744228306e+00
v -4.7221271233590016e+00 3.4096844104828357e+00 -2.5883799744228306e+00
v -4.7331751720364945e+00 3.4436879513997036e+00 -2.5747301594172947e+00
v -4.7397573975272618e+00 3.4639466396380461e+00 -2.5579082942426079e+00
v -4.7449526778679560e+00 3.4799366060833687e+00 -2.5365957185428969e+00
v -4.7482444017459908e+00 3.4900678311386857e+00 -2.5129969303939279e+00
v -4.6330307034154750e+00 3.5139246048380750e+00 0.0000000000000000e+00
v -4.5424592971092057e+00 3.5029272450611391e+00 0.0000000000000000e+00
v -4.4571515717237897e+00 3.4705742923067890e+00 0.0000000000000000e+00
v -4.3820653021776632e+00 3.4187459825909103e+00 0.0000000000000000e+00
v -4.3215642295293613e+00 3.3504543888859484e+00 0.0000000000000000e+00
v -4.2791644562087532e+00 3.2696683703881932e+00 0.0000000000000000e+00
v -4.2573301029243256e+00 3.1810829168475045e+00 0.0000000000000000e+00
v -4.2573301029243256e+00 3.0898462928286459e+00 0.0000000000000000e+00
v -4.2791644562087532e+00 3.0012608392879572e+00 0.0000000000000000e+00
v -4.3215642295293621e+00 2.9204748207902020e+00 0.0000000000000000e+00
v -4.3820653021776641e+00 2.8521832270852405e+00 0.0000000000000000e+00
v -4.4571515717237906e+00 2.8003549173693618e+00 0.0000000000000000e+00
v -4.5424592971092057e+00 2.7680019646150118e+00 0.0000000000000000e+00
v -4.6330307034154750e+00 2.7570046048380754e+00 0.0000000000000000e+00
v -4.7236021097217442e+00 2.7680019646150118e+00 0.0000000000000000e+00
v -4.8089098351071593e+00 2.8003549173693618e+00 0.0000000000000000e+00
v -4.8839961046532867e+00 2.8521832270852405e+00 0.0000000000000000e+00
v -4.9444971773015878e+00 2.9204748207902025e+00 0.0000000000000000e+00
v -4.9868969506221967e+00 3.0012608392879576e+00 0.0000000000000000e+00
v -5.0087313039066244e+00 3.0898462928286459e+00 0.0000000000000000e+00
v -5.0087313039066244e+00 3.1810829168475050e+00 0.0000000000000000e+00
v -4.9868969506221967e+00 3.2696683703881937e+00 0.0000000000000000e+00
v -4.9444971773015878e+00 3.3504543888859488e+00 0.0000000000000000e+00
v -4.8839961046532867e+00 3.4187459825909103e+00 0.0000000000000000e+00
v -4.8089098351071593e+00 3.4705742923067890e+00 0.0000000000000000e+00
v -4.7236021097217442e+00 3.5029272450611391e+00 0.0000000000000000e+00

vn -0.0000000000000000e+00 -0.0000000000000000e+00 -1.0000000000000000e+00
vn 2.8687675910133732e-02 1.8115784528480880e-01 -9.8303552954236628e-01
vn -0.0000000000000000e+00 2.9495705841438641e-01 -9.5551050946158211e-01
vn 8.1397262504411941e-02 5.1401001369275634e-01 -8.5391345666897656e-01
vn -0.0000000000000000e+00 5.2040360048059608e-01 -8.5392042521937128e-01
vn -0.0000000000000000e+00 7.0710678118654757e-01 -7.0710678118654757e-01
vn 1.1059890221349075e-01 6.9841345386867815e-01 -7.0709725659515488e-01
vn -0.0000000000000000e+00 8.5392042521937261e-01 -5.2040360048059409e-01
vn 1.3356123364427139e-01 8.4341671233224180e-01 -5.2039374153240248e-01
vn -0.0000000000000000e+00 9.5551050946158178e-01 -2.9495705841438763e-01
vn 1.4945016430990601e-01 9.4375263540536991e-01 -2.9495018486714147e-01
vn 1.5579210727379211e-01 9.8380093788395639e-01 -8.8682207515595302e-02
vn 2.9549004562847331e-01 9.0867319597320506e-01 -2.9495534552593528e-01
vn 3.0802968274036979e-01 9.4723433297047877e-01 -8.8683893649518647e-02
vn 4.3430936828874528e-01 8.5111389498318335e-01 -2.9492458422991086e-01
vn 4.5273595402844463e-01 8.8722438281804761e-01 -8.8673843173105490e-02
vn 5.6107796120239062e-01 7.7343967538875491e-01 -2.9492810986324447e-01
vn 5.8488360541710704e-01 8.0625548888888832e-01 -8.8674995070908813e-02
vn 6.7574466828064494e-01 6.7555182192800201e-01 -2.9495572410115750e-01
vn 7.0442115400943905e-01 7.0422012386202948e-01 -8.8684017341108173e-02
vn 7.7383941383603649e-01 5.6053903758979640e-01 -2.9490430470205781e-01
vn 8.0666654559597284e-01 5.8431772928544312e-01 -8.8667217498712772e-02
vn 8.5121305977249273e-01 4.3414654413323539e-01 -2.9487811904229033e-01
vn 8.8731564195314494e-01 4.5256004367729230e-01 -8.8658662363503074e-02
vn 9.0830552552276900e-01 2.9664511575770847e-01 -2.9492837707128500e-01
vn 9.4684355656994235e-01 3.0923131980450819e-01 -8.8675082373484787e-02
vn 9.4392127902082701e-01 1.4838853400546928e-01 -2.9494654089748829e-01
vn 9.8397568430520321e-01 1.5468526087529305e-01 -8.8681016931750484e-02
vn 9.5553303852161586e-01 -1.1382102401053164e-03 -2.9488186918001180e-01
vn 9.9606125142342694e-01 -1.1864865686888261e-03 -8.8659887561507070e-02
vn 9.4391349008801084e-01 -1.4857830561658353e-01 -2.9487592361869003e-01
vn 9.8394715003906275e-01 -1.5487987183596794e-01 -8.8657945104093305e-02
vn 9.0916573092235342e-01 -2.9398721097224551e-01 -2.9493930477503927e-01
vn 9.4774330228505155e-01 -3.0646162814973577e-01 -8.8678652705364638e-02
vn 8.5057392239042873e-01 -4.3536157035431139e-01 -2.9493101838902741e-01
vn 8.8666317687415286e-01 -4.5383365619112392e-01 -8.8675945349521848e-02
vn 7.7229589162450185e-01 -5.6269288199225354e-01 -2.9484873466774070e-01
vn 8.0504440342364147e-01 -5.8655336692433524e-01 -8.8649062409023635e-02
vn 6.7648917708043665e-01 -6.7485446173035901e-01 -2.9484546592352606e-01
vn 7.0517441437052286e-01 -7.0347038202424284e-01 -8.8647994516830170e-02
vn 5.6313644833869680e-01 -7.7194295801961665e-01 -2.9492610958747412e-01
vn 5.8702908587100044e-01 -8.0469479524483667e-01 -8.8674341538734283e-02
vn 4.3200255266463000e-01 -8.5228342790175138e-01 -2.9493516747801318e-01
vn 4.5033266675080696e-01 -8.8844629863210900e-01 -8.8677300951325866e-02
vn 2.9276839153106782e-01 -9.0960071248356089e-01 -2.9481046923355636e-01
vn 3.0517954162177247e-01 -9.4816085521688886e-01 -8.8636561361003396e-02
vn 1.4967554538277097e-01 -9.4377956836307686e-01 -2.9474965217074395e-01
vn 1.5601786223807171e-01 -9.8377106496200317e-01 -8.8616693721827483e-02
vn 2.8132883995983155e-03 -9.5554726580487703e-01 -2.9482453802423619e-01
vn 2.9325625189904501e-03 -9.9605930811194898e-01 -8.8641157486901295e-02
vn -1.4792975681190776e-01 -9.4399388918252336e-01 -2.9494461214882944e-01
vn -1.5420692850898851e-01 -9.8405081789719895e-01 -8.8680386758728746e-02
vn -2.9780280285845057e-01 -9.0793459361709283e-01 -2.9490382215735267e-01
vn -3.1043588617798068e-01 -9.4645005841377605e-01 -8.8667059844408203e-02
vn -4.3544743367321609e-01 -8.5057963810124648e-01 -2.9478774017072457e-01
vn -4.5390405873090867e-01 -8.8663181856701478e-01 -8.8629136135674982e-02
vn -5.6065803492474342e-01 -7.7380312720004951e-01 -2.9477328272716496e-01
vn -5.8441928355064054e-01 -8.0659767815188754e-01 -8.8624413194897195e-02
vn -6.7364649393188714e-01 -6.7767814877931676e-01 -2.9487747943902765e-01
vn -7.0221779616689195e-01 -7.0642044519330116e-01 -8.8658453400742882e-02
vn -7.7334854516954099e-01 -5.6118955393392034e-01 -2.9495476303935475e-01
vn -8.0616680584022993e-01 -5.8500451444778678e-01 -8.8683703334211092e-02
vn -8.5294308439972111e-01 -4.3076405305216026e-01 -2.9483966044744686e-01
vn -8.8910899800619725e-01 -4.4902901798639377e-01 -8.8646097886996664e-02
vn -9.0922543917601495e-01 -2.9402136437350762e-01 -2.9472111910605220e-01
vn -9.4774480756461832e-01 -3.0647759003596337e-01 -8.8607372944086493e-02
vn -9.4347476788608020e-01 -1.5160197253049396e-01 -2.9474091044028899e-01
vn -9.8345082475009860e-01 -1.5802551376430471e-01 -8.8613838072155615e-02
vn -9.5552912143076296e-01 -3.2835920268352186e-03 -2.9487847686997393e-01
vn -9.9605617556951476e-01 -3.4228596942010693e-03 -8.8658779268304788e-02
vn -9.4358032242052958e-01 1.5053179144938611e-01 -2.9495144499359216e-01
vn -9.8362167699267777e-01 1.5691969154923277e-01 -8.8682619234018711e-02
vn -9.0775582497143037e-01 2.9842174147579315e-01 -2.9482846952930586e-01
vn -9.4624276095157278e-01 3.1107419507984563e-01 -8.8642441878429692e-02
vn -8.5099876602531210e-01 4.3467191877967642e-01 -2.9472262086204137e-01
vn -8.8705175040673756e-01 4.5308700999302853e-01 -8.8607863510639040e-02
vn -7.7448400620950364e-01 5.5972500365609978e-01 -2.9475828132192777e-01
vn -8.0730385737185151e-01 5.8344413944786910e-01 -8.8619512616943091e-02
vn -6.7779972208885786e-01 6.7351537491114533e-01 -2.9489756949586121e-01
vn -7.0655134482603543e-01 7.0208525969577662e-01 -8.8665017015926578e-02
vn -5.6058011097233551e-01 7.7379364486691682e-01 -2.9494632451653929e-01
vn -5.8436775977984223e-01 8.0662879387291364e-01 -8.8680946234336630e-02
vn -4.3201417152345956e-01 8.5230586584869616e-01 -2.9485329681521855e-01
vn -4.5033394689291928e-01 8.8844831912368816e-01 -8.8650552858618267e-02
vn -2.9567749749039263e-01 9.0865846706387510e-01 -2.9481283505123596e-01
vn -3.0821218566767272e-01 9.4717932387903081e-01 -8.8637334244764249e-02
vn -1.5173763675075824e-01 9.4340881749145777e-01 -2.9488216743754520e-01
vn -1.5817348799011335e-01 9.8342287687241547e-01 -8.8659985004643407e-02
vn -0.0000000000000000e+00 1.0000000000000000e+00 -0.0000000000000000e+00
vn -2.4091518795864822e-01 9.7054617211694227e-01 -0.0000000000000000e+00
vn -4.6276346281448966e-01 8.8648179760440782e-01 -0.0000000000000000e+00
vn 2.3910753276139021e-01 9.7099309357830177e-01 0.0000000000000000e+00
vn 4.6517499730165107e-01 8.8521874239388365e-01 0.0000000000000000e+00
vn 6.6259146489144061e-01 7.4898100820582536e-01 0.0000000000000000e+00
vn 8.2369715234724283e-01 5.6702998264204962e-01 0.0000000000000000e+00
vn 9.3449040454064514e-01 3.5598831978235090e-01 0.0000000000000000e+00
vn 9.9289460681055963e-01 1.1899705780608238e-01 0.0000000000000000e+00
vn 9.9276512529999106e-01 -1.2007250304750361e-01 -0.0000000000000000e+00
vn 9.3524141880264033e-01 -3.5401057689852200e-01 -0.0000000000000000e+00
vn 8.2204545879355706e-01 -5.6942186792999994e-01 -0.0000000000000000e+00
vn 6.6455481189546906e-01 -7.4723952116210901e-01 -0.0000000000000000e+00
vn 4.6312615408226304e-01 -8.8629237016064399e-01 -0.0000000000000000e+00
vn 2.3774330015718334e-01 -9.7132802040833333e-01 -0.0000000000000000e+00
vn 2.9441518043256550e-03 -9.9999566597568468e-01 -0.0000000000000000e+00
vn -2.4065080717595877e-01 -9.7061176018300921e-01 -0.0000000000000000e+00
vn -4.6623061855062992e-01 -8.8466321858993169e-01 -0.0000000000000000e+00
vn -6.6104877500698100e-01 -7.5034293297249754e-01 -0.0000000000000000e+00
vn -8.2383748195366036e-01 -5.6682607855342382e-01 -0.0000000000000000e+00
vn -9.3586597648513425e-01 -3.5235617499559491e-01 -0.0000000000000000e+00
vn -9.9235819544404880e-01 -1.2339048559362685e-01 -0.0000000000000000e+00
vn -9.9275944543768146e-01 1.2011945510310580e-01 -0.0000000000000000e+00
vn -9.3393200820003197e-01 3.5745070157919057e-01 -0.0000000000000000e+00
vn -8.2415519003095272e-01 5.6636403729848894e-01 -0.0000000000000000e+00
vn -6.6454134100917472e-01 7.4725150122949080e-01 -0.0000000000000000e+00
vn -1.3561180693113767e-01 8.4314858959436856e-01 -5.2029788937290433e-01
vn -2.6426704561585357e-01 8.1212973798455268e-01 -5.2020017039848232e-01
vn -3.8610972223302231e-01 7.6174256034225007e-01 -5.2025720000819964e-01
vn -5.0098284476113142e-01 6.9152888922711664e-01 -5.2038830177027839e-01
vn -6.0576057984399156e-01 6.0193158944159630e-01 -5.2031959557505114e-01
vn -6.9223468466389193e-01 5.0028284418770319e-01 -5.2012327111920709e-01
vn -7.6064217085627361e-01 3.8851970779591360e-01 -5.2007299926955763e-01
vn -8.1131432947388893e-01 2.6671691706686262e-01 -5.2022220727366364e-01
vn -8.4326199363156562e-01 1.3452775089344338e-01 -5.2039551721365640e-01
vn -8.5398296620935565e-01 -2.9346375699137099e-03 -5.2029268813486484e-01
vn -8.4328881429399960e-01 -1.3550362130649887e-01 -5.2009878321280967e-01
vn -8.1268733642647517e-01 -2.6280329296739868e-01 -5.2007088210890340e-01
vn -7.6231916421476431e-01 -3.8499602013608636e-01 -5.2023798049573167e-01
vn -6.9112712874580440e-01 -5.0152460687368960e-01 -5.2040019274763116e-01
vn -6.0205702764638114e-01 -6.0566023222890997e-01 -5.2029128241594402e-01
vn -5.0111165923180678e-01 -6.9161903484006337e-01 -5.2014441805026101e-01
vn -3.8919558765497253e-01 -7.6023376531505871e-01 -5.2016479756399214e-01
vn -2.6615004817428456e-01 -8.1143237575620453e-01 -5.2032840728857743e-01
vn -1.3220297253499966e-01 -8.4363552603879222e-01 -5.2038588879615122e-01
vn 2.5144066855966609e-03 -8.5403061907428901e-01 -5.2021666586395143e-01
vn 1.3378096018609942e-01 -8.4355621712782991e-01 -5.2011110662691173e-01
vn 2.6166740263468380e-01 -8.1297319914050448e-01 -5.2019683570517028e-01
vn 3.8607776433159119e-01 -7.6167994469379774e-01 -5.2037257973491824e-01
vn 5.0327435295271206e-01 -6.8988447446410583e-01 -5.2035981546754106e-01
vn 6.0461082382774201e-01 -6.0314980031395904e-01 -5.2024616297630721e-01
vn 6.9023634003390788e-01 -5.0290449507959367e-01 -5.2025077003819453e-01
vn 7.6015432392322724e-01 -3.8908079763927561e-01 -5.2036673291939617e-01
vn 8.1251298029235808e-01 -2.6273364341676675e-01 -5.2037840988398187e-01
vn 8.4360322326317438e-01 -1.3278879774611779e-01 -5.2028908973101029e-01
vn 8.5398448986362530e-01 -1.0172478104538156e-03 -5.2029746903022311e-01
vn 8.4356952466582069e-01 1.3261280138392623e-01 -5.2038860668176479e-01
vn 8.1175027740413308e-01 2.6511096568338732e-01 -5.2036301079989800e-01
vn 7.6075298479181819e-01 3.8800894264320446e-01 -5.2029218383447029e-01
vn 6.9158962730788598e-01 5.0096050571596862e-01 -5.2032908732161054e-01
vn 6.0389997355811531e-01 6.0372763049315681e-01 -5.2040154699580410e-01
vn 5.0143400091848600e-01 6.9122114521867484e-01 -5.2036263425179152e-01
vn 3.8814215368163096e-01 7.6064023562001803e-01 -5.2035766592922272e-01
vn 2.6407382141631147e-01 8.1206391494122188e-01 -5.2040101353948354e-01
vn -1.1230343428589587e-01 6.9823184549734041e-01 -7.0700794096033437e-01
vn -2.1885887994725475e-01 6.7258406894035516e-01 -7.0691686984812352e-01
vn -3.1975470495684899e-01 6.3083303426458004e-01 -7.0697002166888345e-01
vn -4.1485342101160949e-01 5.7264061718723003e-01 -7.0709218820631337e-01
vn -5.0163848748847528e-01 4.9846764901205770e-01 -7.0702816829223081e-01
vn -5.7331682269201500e-01 4.1434007430049635e-01 -7.0684519072212093e-01
vn -6.2999182208894178e-01 3.2178631163228028e-01 -7.0679832607834348e-01
vn -6.7189982822146499e-01 2.2088485837196470e-01 -7.0693740895355284e-01
vn -6.9828458611618238e-01 1.1139913284745490e-01 -7.0709891103959899e-01
vn -7.0720627753795429e-01 -2.4302523514653823e-03 -7.0700309397089500e-01
vn -6.9843193815785076e-01 -1.1222733570317643e-01 -7.0682236303192525e-01
vn -6.7309840287819989e-01 -2.1766363131153979e-01 -7.0679635231592042e-01
vn -6.3131787292336461e-01 -3.1883609900669302e-01 -7.0695210962109212e-01
vn -5.7230381771303118e-01 -4.1529906040833742e-01 -7.0710326732029849e-01
vn -4.9858005099057923e-01 -5.0156396421140648e-01 -7.0700178398556435e-01
vn -4.1502120903332229e-01 -5.7279962008827079e-01 -7.0686490313160422e-01
vn -3.2232823294660845e-01 -6.2961866468431105e-01 -7.0688389946770047e-01
vn -2.2040126342314517e-01 -6.7195449343672997e-01 -7.0703637942588859e-01
vn -1.0947467747237243e-01 -6.9859796150106390e-01 -7.0708993995027103e-01
vn 2.0823434421064833e-03 -7.0727820967673649e-01 -7.0693224425135637e-01
vn 1.1079976213785393e-01 -6.9864820881576739e-01 -7.0683385107726338e-01
vn 2.1670636172819335e-01 -6.7328395663494367e-01 -7.0691376173089504e-01
vn 3.1970596157337738e-01 -6.3073722868002424e-01 -7.0707753923560968e-01
vn 4.1675814086113655e-01 -5.7128874002772634e-01 -7.0706564585157283e-01
vn 5.0070856288210253e-01 -4.9949861599545720e-01 -7.0695973554026559e-01
vn 5.7161775926825442e-01 -4.1647928967229936e-01 -7.0696402918620760e-01
vn 6.2947610475425342e-01 -3.2219387198721200e-01 -7.0707209137208937e-01
vn 6.7282903344847544e-01 -2.1756553758796127e-01 -7.0708297151243271e-01
vn 6.9861205119315462e-01 -1.0996621612000515e-01 -7.0699974062225901e-01
vn 7.0720549747225481e-01 -8.4240785680185916e-04 -7.0700754924825482e-01
vn 6.9854216044299000e-01 1.0981386841566683e-01 -7.0709247230275807e-01
vn 6.7220370286072173e-01 2.1953620191081580e-01 -7.0706862319785346e-01
vn 6.3000021269544326e-01 3.2132074573436908e-01 -7.0700262401521896e-01
vn 5.7271139372400093e-01 4.1484975786305106e-01 -7.0703701310446276e-01
vn 5.0007294364895771e-01 4.9993023110121076e-01 -7.0710452909124855e-01
vn 4.1523345072027551e-01 5.7239465376147847e-01 -7.0706827233882430e-01
vn 3.2141835045511230e-01 6.2988193244093560e-01 -7.0706364294537682e-01
vn 2.1867233241314932e-01 6.7244798971876296e-01 -7.0710403206330807e-01
vn -8.2656529009200064e-02 5.1390610767587364e-01 -8.5385502909193245e-01
vn -1.6109198631741706e-01 4.9505829353217934e-01 -8.5379544268478957e-01
vn -2.3534866813913530e-01 4.6431127401979388e-01 -8.5383022037361200e-01
vn -3.0531988181257103e-01 4.2144660428336983e-01 -8.5391014135444843e-01
vn -3.6920645221329329e-01 3.6687271177347947e-01 -8.5386826208733557e-01
vn -4.2201183239456996e-01 3.0499090043968113e-01 -8.5374853672962159e-01
vn -4.6374372612561765e-01 2.3687034964638726e-01 -8.5371786553727835e-01
vn -4.9454807111002452e-01 1.6258105160470313e-01 -8.5380888202247174e-01
vn -5.1391461999879307e-01 8.1986118788491200e-02 -8.5391453886059077e-01
vn -5.2051302103723651e-01 -1.7886973483147899e-03 -8.5385185804827135e-01
vn -5.1411521813605465e-01 -8.2610456400444038e-02 -8.5373359719190356e-01
vn -4.9547557572489204e-01 -1.6022473471530571e-01 -8.5371657372074994e-01
vn -4.6467352436997156e-01 -2.3467527243569186e-01 -8.5381850076982013e-01
vn -4.2119570491445313e-01 -3.0564566421730227e-01 -8.5391738833846287e-01
vn -3.6696171566922325e-01 -3.6915791648541624e-01 -8.5385100101203060e-01
vn -3.0548837237303789e-01 -4.2162573822248151e-01 -8.5376143694431383e-01
vn -2.3725610317859844e-01 -4.6344333385235004e-01 -8.5377386807768096e-01
vn -1.6221469733394370e-01 -4.9455657867873964e-01 -8.5387363377401271e-01
vn -8.0570251096294510e-02 -5.1414824389600089e-01 -8.5390867072359578e-01
vn 1.5327022526780102e-03 -5.2058987164184600e-01 -8.5380550265720989e-01
vn 8.1559013255204579e-02 -5.1427058528009262e-01 -8.5374111560385124e-01
vn 1.5950793771242955e-01 -4.9557444719783850e-01 -8.5379340890597444e-01
vn 2.3529639231457841e-01 -4.6420840473705860e-01 -8.5390055904374440e-01
vn 3.0672697666910148e-01 -4.2045889654785223e-01 -8.5389277904031669e-01
vn 3.6853837420863711e-01 -3.6764781252957834e-01 -8.5382349035258498e-01
vn 4.2072876115501562e-01 -3.0654193777125005e-01 -8.5382629962095502e-01
vn 4.6328188193102476e-01 -2.3712827577331941e-01 -8.5389699537076513e-01
vn 4.9518528202821288e-01 -1.6012277522854676e-01 -8.5390411248321541e-01
vn 5.1418867630961940e-01 -8.0936741656475172e-02 -8.5384966417103791e-01
vn 5.2051094368914275e-01 -6.2002135175692058e-04 -8.5385477282343580e-01
vn 5.1410633199315814e-01 8.0819753323634946e-02 -8.5391032718737359e-01
vn 4.9472965575428779e-01 1.6157463747183262e-01 -8.5389472667483413e-01
vn 4.6368849411342200e-01 2.3649632129409975e-01 -8.5385155058779671e-01
vn 4.2151376897534559e-01 3.0532810576427211e-01 -8.5387404832012570e-01
vn 3.6803599280123772e-01 3.6793096141559517e-01 -8.5391821366838350e-01
vn 3.0560431009096178e-01 4.2127211321510766e-01 -8.5389449716057131e-01
vn 2.3655880284587760e-01 4.6358310177839124e-01 -8.5389146883058320e-01
vn 1.6093515137913100e-01 4.9489808713209571e-01 -8.5391788856046857e-01
vn -2.9133237956719089e-02 1.8113207875770068e-01 -9.8302717383146188e-01
vn -5.6782181243011001e-02 1.7449961597599847e-01 -9.8301865084926798e-01
vn -8.2953437607127367e-02 1.6365597733876538e-01 -9.8302362548946609e-01
vn -1.0760739773463662e-01 1.4853527422387955e-01 -9.8303505546039238e-01
vn -1.3012926587207088e-01 1.2930672355638667e-01 -9.8302906640989418e-01
vn -1.4875913978686758e-01 1.0750926990551499e-01 -9.8301194052476004e-01
vn -1.6347477237881022e-01 8.3499407776878268e-02 -9.8300755220730973e-01
vn -1.7431736829424091e-01 5.7306261424961730e-02 -9.8302057329054104e-01
vn -1.8112402367075423e-01 2.8895180526591450e-02 -9.8303568429210730e-01
vn -1.8346135754841394e-01 -6.3044886583529444e-04 -9.8302672029844673e-01
vn -1.8122835368393583e-01 -2.9120626043341823e-02 -9.8300980308430996e-01
vn -1.7466083039132574e-01 -5.6481058977856539e-02 -9.8300736737002758e-01
vn -1.6378562867404839e-01 -8.2717079872900154e-02 -9.8302194916346963e-01
vn -1.4844574353029155e-01 -1.0772141632061935e-01 -9.8303609175534279e-01
vn -1.2934038339805418e-01 -1.3011446266425114e-01 -9.8302659772156598e-01
vn -1.0768320379898472e-01 -1.4862107497980162e-01 -9.8301378611463763e-01
vn -8.3630585809725003e-02 -1.6335949625923701e-01 -9.8301556452532868e-01
vn -5.7173332298114013e-02 -1.7430879000322128e-01 -9.8302983464467764e-01
vn -2.8396343142733167e-02 -1.8120745264222962e-01 -9.8303484516218154e-01
vn 5.4024586238550097e-04 -1.8349716891385484e-01 -9.8302008989389855e-01
vn 2.8749765007993741e-02 -1.8128172334628526e-01 -9.8301087877631654e-01
vn 5.6223948379544371e-02 -1.7468191575334505e-01 -9.8301835991875330e-01
vn 8.2929028929070059e-02 -1.6360791530577029e-01 -9.8303368518590517e-01
vn 1.0810524139656812e-01 -1.4818980385177244e-01 -9.8303257261240484e-01
vn 1.2989976236685216e-01 -1.2958586357482338e-01 -9.8302266286113804e-01
vn 1.4829502825550581e-01 -1.0804739185999801e-01 -9.8302306468716738e-01
vn 1.6328196380180035e-01 -8.3574972497992561e-02 -9.8303317556885494e-01
vn 1.7452492370533212e-01 -5.6434260355613261e-02 -9.8303419333396680e-01
vn 1.8123267055543538e-01 -2.8527236231131400e-02 -9.8302640652037321e-01
vn 1.8346007688913571e-01 -2.1853366628332932e-04 -9.8302713717926893e-01
vn 1.8119237329818885e-01 2.8484229823256237e-02 -9.8303508203417944e-01
vn 1.7436601960223105e-01 5.6946508213024355e-02 -9.8303285113490402e-01
vn 1.6343289024134622e-01 8.3356127683187509e-02 -9.8302667632421059e-01
vn 1.4856444533941224e-01 1.0761427981266640e-01 -9.8302989393069529e-01
vn 1.2971008420671964e-01 1.2967306709387449e-01 -9.8303620977334971e-01
vn 1.0770937025436285e-01 1.4847615862032731e-01 -9.8303281831318323e-01
vn 8.3374736480879022e-02 1.6338905372691195e-01 -9.8303238524423409e-01
vn 5.6719775798907884e-02 1.7442123926867778e-01 -9.8303616328459675e-01
vn 4.7302038447870805e-15 -5.4591830896297339e-15 -1.0000000000000000e+00
vn 4.6431977552991721e-15 -2.9840206218798550e-15 -1.0000000000000000e+00
vn 1.4815575625460667e-15 -5.0749326587466392e-16 -1.0000000000000000e+00
vn -1.4054389224187057e-15 -9.8590622807696199e-16 -1.0000000000000000e+00
vn -5.4072315520900481e-15 -6.1339883108684826e-15 -1.0000000000000000e+00
vn -8.0182537423315236e-16 -1.7557791250263581e-15 -1.0000000000000000e+00
vn 8.8580666397333264e-16 4.2046455718892329e-15 -1.0000000000000000e+00
vn -1.1439332769766279e-16 1.7731872744073986e-15 -1.0000000000000000e+00
vn -3.5569838829649926e-15 7.7890161313926136e-15 -1.0000000000000000e+00
vn -2.7432500436484621e-15 3.1658118911955078e-15 -1.0000000000000000e+00
vn 9.1289407019411842e-15 -5.8668567914576870e-15 -1.0000000000000000e+00
vn 2.3931566428755813e-01 9.7094181742605201e-01 0.0000000000000000e+00
vn -2.3931566428755813e-01 9.7094181742605201e-01 -0.0000000000000000e+00
vn -4.6472317204376812e-01 8.8545602565321013e-01 -0.0000000000000000e+00
vn -4.6472317204376995e-01 8.8545602565320913e-01 -0.0000000000000000e+00
vn -6.6312265824079575e-01 7.4851074817110053e-01 -0.0000000000000000e+00
vn -8.2298386589365580e-01 5.6806474673115670e-01 -0.0000000000000000e+00
vn -8.2298386589365646e-01 5.6806474673115570e-01 -0.0000000000000000e+00
vn -9.3501624268541439e-01 3.5460488704253634e-01 -0.0000000000000000e+00
vn -9.3501624268541506e-01 3.5460488704253540e-01 -0.0000000000000000e+00
vn -9.9270887409805408e-01 1.2053668025532302e-01 -0.0000000000000000e+00
vn -9.9270887409805408e-01 1.2053668025532191e-01 -0.0000000000000000e+00
vn -9.9270887409805386e-01 -1.2053668025532310e-01 -0.0000000000000000e+00
vn -9.3501624268541483e-01 -3.5460488704253545e-01 -0.0000000000000000e+00
vn -9.3501624268541439e-01 -3.5460488704253645e-01 -0.0000000000000000e+00
vn -8.2298386589365646e-01 -5.6806474673115570e-01 -0.0000000000000000e+00
vn -8.2298386589365602e-01 -5.6806474673115626e-01 -0.0000000000000000e+00
vn -6.6312265824079575e-01 -7.4851074817110053e-01 -0.0000000000000000e+00
vn -4.6472317204376828e-01 -8.8545602565320991e-01 -0.0000000000000000e+00
vn -2.3931566428755813e-01 -9.7094181742605201e-01 -0.0000000000000000e+00
vn -1.2246467991473530e-16 -1.0000000000000000e+00 -0.0000000000000000e+00
vn 1.2246467991473530e-16 -1.0000000000000000e+00 -0.0000000000000000e+00
vn 2.3931566428755813e-01 -9.7094181742605201e-01 -0.0000000000000000e+00
vn 4.6472317204376828e-01 -8.8545602565320991e-01 -0.0000000000000000e+00
vn 6.6312265824079442e-01 -7.4851074817110164e-01 -0.0000000000000000e+00
vn 6.6312265824079575e-01 -7.4851074817110053e-01 -0.0000000000000000e+00
vn 8.2298386589365602e-01 -5.6806474673115626e-01 -0.0000000000000000e+00
vn 9.3501624268541439e-01 -3.5460488704253645e-01 -0.0000000000000000e+00
vn 9.3501624268541483e-01 -3.5460488704253545e-01 -0.0000000000000000e+00
vn 9.9270887409805386e-01 -1.2053668025532310e-01 -0.0000000000000000e+00
vn 9.9270887409805408e-01 1.2053668025532191e-01 0.0000000000000000e+00
vn 9.9270887409805408e-01 1.2053668025532302e-01 0.0000000000000000e+00
vn 9.3501624268541506e-01 3.5460488704253540e-01 0.0000000000000000e+00
vn 8.2298386589365724e-01 5.6806474673115481e-01 0.0000000000000000e+00
vn 8.2298386589365646e-01 5.6806474673115570e-01 0.0000000000000000e+00
vn 6.6312265824079575e-01 7.4851074817110053e-01 0.0000000000000000e+00
vn 4.6472317204376995e-01 8.8545602565320913e-01 0.0000000000000000e+00
vn 4.6472317204376812e-01 8.8545602565321013e-01 0.0000000000000000e+00
vn 0.0000000000000000e+00 0.0000000000000000e+00 1.0000000000000000e+00

g face 0
f 53//1 1//1 87//2
f 87//2 1//1 2//3
f 87//2 2//3 86//4
f 86//4 2//3 3//5
f 86//4 3//5 4//6
f 86//4 4//6 85//7
f 85//7 4//6 5//8
f 85//7 5//8 84//9
f 84//9 5//8 6//10
f 84//9 6//10 83//11
f 83//11 6//10 82//12
f 83//11 82//12 88//13
f 88//13 82//12 55//14
f 88//13 55//14 102//15
f 102//15 55//14 103//16
f 102//15 103//16 94//17
f 94//17 103//16 93//18
f 94//17 93//18 104//19
f 104//19 93//18 58//20
f 104//19 58//20 117//21
f 117//21 58//20 118//22
f 117//21 118//22 109//23
f 109//23 118//22 108//24
f 109//23 108//24 119//25
f 119//25 108//24 60//26
f 119//25 60//26 133//27
f 133//27 60//26 134//28
f 133//27 134//28 124//29
f 124//29 134//28 123//30
f 124//29 123//30 136//31
f 136//31 123//30 135//32
f 136//31 135//32 150//33
f 150//33 135//32 62//34
f 150//33 62//34 142//35
f 142//35 62//34 141//36
f 142//35 141//36 152//37
f 152//37 141//36 151//38
f 152//37 151//38 165//39
f 165//39 151//38 65//40
f 165//39 65//40 157//41
f 157//41 65//40 156//42
f 157//41 156//42 167//43
f 167//43 156//42 166//44
f 167//43 166//44 181//45
f 181//45 166//44 67//46
f 181//45 67//46 172//47
f 172//47 67//46 171//48
f 172//47 171//48 192//49
f 192//49 171//48 193//50
f 192//49 193//50 183//51
f 183//51 193//50 182//52
f 183//51 182//52 194//53
f 194//53 182//52 69//54
f 194//53 69//54 208//55
f 208//55 69//54 209//56
f 208//55 209//56 200//57
f 200//57 209//56 199//58
f 200//57 199//58 210//59
f 210//59 199//58 72//60
f 210//59 72//60 223//61
f 223//61 72//60 224//62
f 223//61 224//62 215//63
f 215//63 224//62 214//64
f 215//63 214//64 225//65
f 225//65 214//64 74//66
f 225//65 74//66 239//67
f 239//67 74//66 240//68
f 239//67 240//68 230//69
f 230//69 240//68 229//70
f 230//69 229//70 242//71
f 242//71 229//70 241//72
f 242//71 241//72 256//73
f 256//73 241//72 76//74
f 256//73 76//74 248//75
f 248//75 76//74 247//76
f 248//75 247//76 258//77
f 258//77 247//76 257//78
f 258//77 257//78 271//79
f 271//79 257//78 79//80
f 271//79 79//80 263//81
f 263//81 79//80 262//82
f 263//81 262//82 273//83
f 273//83 262//82 272//84
f 273//83 272//84 287//85
f 287//85 272//84 81//86
f 287//85 81//86 278//87
f 278//87 81//86 277//88
f 278//87 277//88 6//10
f 6//10 277//88 7//89
f 7//89 277//88 32//90
f 32//90 277//88 81//86
f 32//90 81//86 31//91
f 31//91 81//86 272//84
f 31//91 272//84 262//82
f 6//10 7//89 82//12
f 82//12 7//89 8//92
f 82//12 8//92 55//14
f 55//14 8//92 9//93
f 55//14 9//93 103//16
f 103//16 9//93 93//18
f 9//93 10//94 93//18
f 93//18 10//94 58//20
f 10//94 11//95 58//20
f 58//20 11//95 118//22
f 118//22 11//95 108//24
f 108//24 11//95 12//96
f 108//24 12//96 60//26
f 60//26 12//96 13//97
f 60//26 13//97 134//28
f 134//28 13//97 123//30
f 13//97 14//98 123//30
f 123//30 14//98 135//32
f 135//32 14//98 62//34
f 62//34 14//98 15//99
f 62//34 15//99 141//36
f 141//36 15//99 16//100
f 141//36 16//100 151//38
f 151//38 16//100 65//40
f 16//100 17//101 65//40
f 65//40 17//101 156//42
f 17//101 18//102 156//42
f 156//42 18//102 166//44
f 166//44 18//102 67//46
f 67//46 18//102 19//103
f 67//46 19//103 171//48
f 171//48 19//103 20//104
f 171//48 20//104 193//50
f 193//50 20//104 182//52
f 20//104 21//105 182//52
f 182//52 21//105 69//54
f 21//105 22//106 69//54
f 69//54 22//106 209//56
f 209//56 22//106 199//58
f 199//58 22//106 23//107
f 199//58 23//107 72//60
f 72//60 23//107 24//108
f 72//60 24//108 224//62
f 224//62 24//108 214//64
f 24//108 25//109 214//64
f 214//64 25//109 74//66
f 25//109 26//110 74//66
f 74//66 26//110 240//68
f 240//68 26//110 229//70
f 229//70 26//110 27//111
f 229//70 27//111 241//72
f 241//72 27//111 76//74
f 27//111 28//112 76//74
f 76//74 28//112 247//76
f 28//112 29//113 247//76
f 247//76 29//113 257//78
f 257//78 29//113 79//80
f 79//80 29//113 30//114
f 79//80 30//114 262//82
f 262//82 30//114 31//91
f 6//10 5//8 278//87
f 278//87 5//8 279//115
f 278//87 279//115 287//85
f 287//85 279//115 286//116
f 287//85 286//116 273//83
f 273//83 286//116 274//117
f 273//83 274//117 263//81
f 263//81 274//117 264//118
f 263//81 264//118 271//79
f 271//79 264//118 270//119
f 271//79 270//119 258//77
f 258//77 270//119 259//120
f 258//77 259//120 248//75
f 248//75 259//120 249//121
f 248//75 249//121 256//73
f 256//73 249//121 255//122
f 256//73 255//122 242//71
f 242//71 255//122 243//123
f 242//71 243//123 230//69
f 230//69 243//123 231//124
f 230//69 231//124 239//67
f 239//67 231//124 238//125
f 239//67 238//125 225//65
f 225//65 238//125 226//126
f 225//65 226//126 215//63
f 215//63 226//126 216//127
f 215//63 216//127 223//61
f 223//61 216//127 222//128
f 223//61 222//128 210//59
f 210//59 222//128 211//129
f 210//59 211//129 200//57
f 200//57 211//129 201//130
f 200//57 201//130 208//55
f 208//55 201//130 207//131
f 208//55 207//131 194//53
f 194//53 207//131 195//132
f 194//53 195//132 183//51
f 183//51 195//132 184//133
f 183//51 184//133 192//49
f 192//49 184//133 191//134
f 192//49 191//134 172//47
f 172//47 191//134 173//135
f 172//47 173//135 181//45
f 181//45 173//135 180//136
f 181//45 180//136 167//43
f 167//43 180//136 168//137
f 167//43 168//137 157//41
f 157//41 168//137 158//138
f 157//41 158//138 165//39
f 165//39 158//138 164//139
f 165//39 164//139 152//37
f 152//37 164//139 153//140
f 152//37 153//140 142//35
f 142//35 153//140 143//141
f 142//35 143//141 150//33
f 150//33 143//141 149//142
f 150//33 149//142 136//31
f 136//31 149//142 137//143
f 136//31 137//143 124//29
f 124//29 137//143 125//144
f 124//29 125//144 133//27
f 133//27 125//144 132//145
f 133//27 132//145 119//25
f 119//25 132//145 120//146
f 119//25 120//146 109//23
f 109//23 120//146 110//147
f 109//23 110//147 117//21
f 117//21 110//147 116//148
f 117//21 116//148 104//19
f 104//19 116//148 105//149
f 104//19 105//149 94//17
f 94//17 105//149 95//150
f 94//17 95//150 102//15
f 102//15 95//150 101//151
f 102//15 101//151 88//13
f 88//13 101//151 89//152
f 88//13 89//152 83//11
f 83//11 89//152 84//9
f 5//8 4//6 279//115
f 279//115 4//6 280//153
f 279//115 280//153 286//116
f 286//116 280//153 285//154
f 286//116 285//154 274//117
f 274//117 285//154 275//155
f 274//117 275//155 264//118
f 264//118 275//155 265//156
f 264//118 265//156 270//119
f 270//119 265//156 269//157
f 270//119 269//157 259//120
f 259//120 269//157 260//158
f 259//120 260//158 249//121
f 249//121 260//158 250//159
f 249//121 250//159 255//122
f 255//122 250//159 254//160
f 255//122 254//160 243//123
f 243//123 254//160 244//161
f 243//123 244//161 231//124
f 231//124 244//161 232//162
f 231//124 232//162 238//125
f 238//125 232//162 237//163
f 238//125 237//163 226//126
f 226//126 237//163 227//164
f 226//126 227//164 216//127
f 216//127 227//164 217//165
f 216//127 217//165 222//128
f 222//128 217//165 221//166
f 222//128 221//166 211//129
f 211//129 221//166 212//167
f 211//129 212//167 201//130
f 201//130 212//167 202//168
f 201//130 202//168 207//131
f 207//131 202//168 206//169
f 207//131 206//169 195//132
f 195//132 206//169 196//170
f 195//132 196//170 184//133
f 184//133 196//170 185//171
f 184//133 185//171 191//134
f 191//134 185//171 190//172
f 191//134 190//172 173//135
f 173//135 190//172 174//173
f 173//135 174//173 180//136
f 180//136 174//173 179//174
f 180//136 179//174 168//137
f 168//137 179//174 169//175
f 168//137 169//175 158//138
f 158//138 169//175 159//176
f 158//138 159//176 164//139
f 164//139 159//176 163//177
f 164//139 163//177 153//140
f 153//140 163//177 154//178
f 153//140 154//178 143//141
f 143//141 154//178 144//179
f 143//141 144//179 149//142
f 149//142 144//179 148//180
f 149//142 148//180 137//143
f 137//143 148//180 138//181
f 137//143 138//181 125//144
f 125//144 138//181 126//182
f 125//144 126//182 132//145
f 132//145 126//182 131//183
f 132//145 131//183 120//146
f 120//146 131//183 121//184
f 120//146 121//184 110//147
f 110//147 121//184 111//185
f 110//147 111//185 116//148
f 116//148 111//185 115//186
f 116//148 115//186 105//149
f 105//149 115//186 106//187
f 105//149 106//187 95//150
f 95//150 106//187 96//188
f 95//150 96//188 101//151
f 101//151 96//188 100//189
f 101//151 100//189 89//152
f 89//152 100//189 90//190
f 89//152 90//190 84//9
f 84//9 90//190 85//7
f 4//6 3//5 280//153
f 280//153 3//5 281//191
f 280//153 281//191 285//154
f 285//154 281//191 284//192
f 285//154 284//192 275//155
f 275//155 284//192 276//193
f 275//155 276//193 265//156
f 265//156 276//193 266//194
f 265//156 266//194 269//157
f 269//157 266//194 268//195
f 269//157 268//195 260//158
f 260//158 268//195 261//196
f 260//158 261//196 250//159
f 250//159 261//196 251//197
f 250//159 251//197 254//160
f 254//160 251//197 253//198
f 254//160 253//198 244//161
f 244//161 253//198 245//199
f 244//161 245//199 232//162
f 232//162 245//199 233//200
f 232//162 233//200 237//163
f 237//163 233//200 236//201
f 237//163 236//201 227//164
f 227//164 236//201 228//202
f 227//164 228//202 217//165
f 217//165 228//202 218//203
f 217//165 218//203 221//166
f 221//166 218//203 220//204
f 221//166 220//204 212//167
f 212//167 220//204 213//205
f 212//167 213//205 202//168
f 202//168 213//205 203//206
f 202//168 203//206 206//169
f 206//169 203//206 205//207
f 206//169 205//207 196//170
f 196//170 205//207 197//208
f 196//170 197//208 185//171
f 185//171 197//208 186//209
f 185//171 186//209 190//172
f 190//172 186//209 189//210
f 190//172 189//210 174//173
f 174//173 189//210 175//211
f 174//173 175//211 179//174
f 179//174 175//211 178//212
f 179//174 178//212 169//175
f 169//175 178//212 170//213
f 169//175 170//213 159//176
f 159//176 170//213 160//214
f 159//176 160//214 163//177
f 163//177 160//214 162//215
f 163//177 162//215 154//178
f 154//178 162//215 155//216
f 154//178 155//216 144//179
f 144//179 155//216 145//217
f 144//179 145//217 148//180
f 148//180 145//217 147//218
f 148//180 147//218 138//181
f 138//181 147//218 139//219
f 138//181 139//219 126//182
f 126//182 139//219 127//220
f 126//182 127//220 131//183
f 131//183 127//220 130//221
f 131//183 130//221 121//184
f 121//184 130//221 122//222
f 121//184 122//222 111//185
f 111//185 122//222 112//223
f 111//185 112//223 115//186
f 115//186 112//223 114//224
f 115//186 114//224 106//187
f 106//187 114//224 107//225
f 106//187 107//225 96//188
f 96//188 107//225 97//226
f 96//188 97//226 100//189
f 100//189 97//226 99//227
f 100//189 99//227 90//190
f 90//190 99//227 91//228
f 90//190 91//228 85//7
f 85//7 91//228 86//4
f 3//5 2//3 281//191
f 281//191 2//3 282//229
f 281//191 282//229 284//192
f 284//192 282//229 283//230
f 284//192 283//230 276//193
f 276//193 283//230 80//231
f 276//193 80//231 266//194
f 266//194 80//231 267//232
f 266//194 267//232 268//195
f 268//195 267//232 78//233
f 268//195 78//233 261//196
f 261//196 78//233 77//234
f 261//196 77//234 251//197
f 251//197 77//234 252//235
f 251//197 252//235 253//198
f 253//198 252//235 75//236
f 253//198 75//236 245//199
f 245//199 75//236 246//237
f 245//199 246//237 233//200
f 233//200 246//237 234//238
f 233//200 234//238 236//201
f 236//201 234//238 235//239
f 236//201 235//239 228//202
f 228//202 235//239 73//240
f 228//202 73//240 218//203
f 218//203 73//240 219//241
f 218//203 219//241 220//204
f 220//204 219//241 71//242
f 220//204 71//242 213//205
f 213//205 71//242 70//243
f 213//205 70//243 203//206
f 203//206 70//243 204//244
f 203//206 204//244 205//207
f 205//207 204//244 68//245
f 205//207 68//245 197//208
f 197//208 68//245 198//246
f 197//208 198//246 186//209
f 186//209 198//246 187//247
f 186//209 187//247 189//210
f 189//210 187//247 188//248
f 189//210 188//248 175//211
f 175//211 188//248 176//249
f 175//211 176//249 178//212
f 178//212 176//249 177//250
f 178//212 177//250 170//213
f 170//213 177//250 66//251
f 170//213 66//251 160//214
f 160//214 66//251 161//252
f 160//214 161//252 162//215
f 162//215 161//252 64//253
f 162//215 64//253 155//216
f 155//216 64//253 63//254
f 155//216 63//254 145//217
f 145//217 63//254 146//255
f 145//217 146//255 147//218
f 147//218 146//255 61//256
f 147//218 61//256 139//219
f 139//219 61//256 140//257
f 139//219 140//257 127//220
f 127//220 140//257 128//258
f 127//220 128//258 130//221
f 130//221 128//258 129//259
f 130//221 129//259 122//222
f 122//222 129//259 59//260
f 122//222 59//260 112//223
f 112//223 59//260 113//261
f 112//223 113//261 114//224
f 114//224 113//261 57//262
f 114//224 57//262 107//225
f 107//225 57//262 56//263
f 107//225 56//263 97//226
f 97//226 56//263 98//264
f 97//226 98//264 99//227
f 99//227 98//264 54//265
f 99//227 54//265 91//228
f 91//228 54//265 92//266
f 91//228 92//266 86//4
f 86//4 92//266 87//2
f 2//3 1//1 282//229
f 282//229 1//1 33//1
f 282//229 33//1 283//230
f 283//230 33//1 80//231
f 33//1 34//1 80//231
f 80//231 34//1 267//232
f 267//232 34//1 78//233
f 78//233 34//1 35//1
f 78//233 35//1 77//234
f 77//234 35//1 36//1
f 77//234 36//1 252//235
f 252//235 36//1 75//236
f 36//1 37//1 75//236
f 75//236 37//1 246//237
f 246//237 37//1 234//238
f 234//238 37//1 38//1
f 234//238 38//1 235//239
f 235//239 38//1 73//240
f 38//1 39//1 73//240
f 73//240 39//1 219//241
f 219//241 39//1 71//242
f 71//242 39//1 40//267
f 71//242 40//267 70//243
f 70//243 40//267 41//268
f 70//243 41//268 204//244
f 204//244 41//268 68//245
f 41//268 42//269 68//245
f 68//245 42//269 198//246
f 198//246 42//269 187//247
f 187//247 42//269 43//1
f 187//247 43//1 188//248
f 188//248 43//1 176//249
f 43//1 44//1 176//249
f 176//249 44//1 177//250
f 177//250 44//1 66//251
f 66//251 44//1 45//270
f 66//251 45//270 161//252
f 161//252 45//270 64//253
f 45//270 46//271 64//253
f 64//253 46//271 63//254
f 46//271 47//272 63//254
f 63//254 47//272 146//255
f 146//255 47//272 61//256
f 61//256 47//272 48//273
f 61//256 48//273 140//257
f 140//257 48//273 128//258
f 48//273 49//274 128//258
f 128//258 49//274 129//259
f 129//259 49//274 59//260
f 59//260 49//274 50//275
f 59//260 50//275 113//261
f 113//261 50//275 57//262
f 50//275 51//276 57//262
f 57//262 51//276 56//263
f 51//276 52//277 56//263
f 56//263 52//277 98//264
f 98//264 52//277 54//265
f 54//265 52//277 53//1
f 54//265 53//1 92//266
f 92//266 53//1 87//2

g face 1
f 289//278 8//278 288//89
f 288//89 8//278 7//89
f 288//89 7//89 313//279
f 313//279 7//89 32//279
f 313//279 32//279 312//280
f 312//280 32//279 31//281
f 312//280 31//281 311//282
f 311//282 31//281 30//282
f 311//282 30//282 310//283
f 310//283 30//282 29//284
f 310//283 29//284 309//285
f 309//285 29//284 28//286
f 309//285 28//286 308//287
f 308//287 28//286 27//288
f 308//287 27//288 307//289
f 307//289 27//288 26//289
f 307//289 26//289 306//290
f 306//290 26//289 25//291
f 306//290 25//291 305//292
f 305//292 25//291 24//293
f 305//292 24//293 304//294
f 304//294 24//293 23//294
f 304//294 23//294 303//295
f 303//295 23//294 22//295
f 303//295 22//295 302//296
f 302//296 22//295 21//296
f 302//296 21//296 301//297
f 301//297 21//296 20//297
f 301//298 20//298 300//299
f 300//299 20//298 19//299
f 300//299 19//299 299//300
f 299//300 19//299 18//300
f 299//300 18//300 298//301
f 298//301 18//300 17//302
f 298//301 17//302 297//303
f 297//303 17//302 16//303
f 297//303 16//303 296//304
f 296//304 16//303 15//305
f 296//304 15//305 295//306
f 295//306 15//305 14//306
f 295//306 14//306 294//307
f 294//307 14//306 13//308
f 294//307 13//308 293//309
f 293//309 13//308 12//309
f 293//309 12//309 292//310
f 292//310 12//309 11//311
f 292//310 11//311 291//312
f 291//312 11//311 10//312
f 291//312 10//312 290//313
f 290//313 10//312 9//314
f 290//313 9//314 289//278
f 289//278 9//314 8//278

g face 2
f 53//1 44//1 1//1
f 1//1 44//1 43//1
f 1//1 43//1 33//1
f 33//1 43//1 42//1
f 33//1 42//1 34//1
f 34//1 42//1 41//1
f 34//1 41//1 35//1
f 35//1 41//1 40//1
f 35//1 40//1 36//1
f 36//1 40//1 39//1
f 36//1 39//1 37//1
f 37//1 39//1 38//1
f 44//1 53//1 45//1
f 45//1 53//1 52//1
f 45//1 52//1 46//1
f 46//1 52//1 51//1
f 46//1 51//1 47//1
f 47//1 51//1 50//1
f 47//1 50//1 48//1
f 48//1 50//1 49//1

g face 3
f 313//315 302//315 288//315
f 288//315 302//315 301//315
f 288//315 301//315 289//315
f 289//315 301//315 300//315
f 289//315 300//315 290//315
f 290//315 300//315 299//315
f 290//315 299//315 291//315
f 291//315 299//315 298//315
f 291//315 298//315 292//315
f 292//315 298//315 297//315
f 292//315 297//315 293//315
f 293//315 297//315 296//315
f 293//315 296//315 294//315
f 294//315 296//315 295//315
f 302//315 313//315 303//315
f 303//315 313//315 312//315
f 303//315 312//315 304//315
f 304//315 312//315 311//315
f 304//315 311//315 305//315
f 305//315 311//315 310//315
f 305//315 310//315 306//315
f 306//315 310//315 309//315
f 306//315 309//315 307//315
f 307//315 309//315 308//315

g halfedge 0 edge 0
l 1 2 3 4 5 6 7

g halfedge 1 edge 0
l 7 6 5 4 3 2 1

g halfedge 2 edge 1
l 7 32 31 30 29 28 27 26 25 24 23 22 21 20 19 18 17 16 15 14 13 12 11 10 9 8 7

g halfedge 3 edge 1
l 7 8 9 10 11 12 13 14 15 16 17 18 19 20 21 22 23 24 25 26 27 28 29 30 31 32 7

g halfedge 4 edge 2
l 1 53 52 51 50 49 48 47 46 45 44 43 42 41 40 39 38 37 36 35 34 33 1

g halfedge 5 edge 2
l 1 33 34 35 36 37 38 39 40 41 42 43 44 45 46 47 48 49 50 51 52 53 1

g halfedge 6 edge 3
l 288 289 290 291 292 293 294 295 296 297 298 299 300 301 302 303 304 305 306 307 308 309 310 311 312 313 288

g halfedge 7 edge 3
l 288 313 312 311 310 309 308 307 306 305 304 303 302 301 300 299 298 297 296 295 294 293 292 291 290 289 288

g vertex 0
p 1

g vertex 1
p 7

g vertex 2
p 288

# End of file
