# WaveFront *.obj file
# Vertices: 64
# Triangles : 124

v 1.9043649999999985e+00 1.1430000000000000e+00 2.5412699999999986e+00
v 1.9837399999999985e+00 1.1430000000000000e+00 2.5200015328507783e+00
v 2.0418465328507782e+00 1.1430000000000000e+00 2.4618949999999984e+00
v 2.0631149999999985e+00 1.1430000000000000e+00 2.3825199999999986e+00
v 2.0418465328507782e+00 1.1430000000000000e+00 2.3031449999999984e+00
v 1.9837399999999985e+00 1.1430000000000000e+00 2.2450384671492190e+00
v 1.9043649999999985e+00 1.1430000000000000e+00 2.2237699999999987e+00
v 1.8249899999999986e+00 1.1430000000000000e+00 2.2450384671492190e+00
v 1.7668834671492188e+00 1.1430000000000000e+00 2.3031449999999989e+00
v 1.7456149999999986e+00 1.1430000000000000e+00 2.3825199999999986e+00
v 1.7668834671492188e+00 1.1430000000000000e+00 2.4618949999999988e+00
v 1.8249899999999986e+00 1.1430000000000000e+00 2.5200015328507783e+00
v 1.9043649999999985e+00 1.0476133767293747e+00 2.3825199999999986e+00
v 1.9043649999999985e+00 1.9050000000000000e+00 2.5412699999999986e+00
v 1.9837399999999985e+00 1.9050000000000000e+00 2.5200015328507783e+00
v 2.0418465328507782e+00 1.9050000000000000e+00 2.4618949999999984e+00
v 2.0631149999999985e+00 1.9050000000000000e+00 2.3825199999999986e+00
v 2.0418465328507782e+00 1.9050000000000000e+00 2.3031449999999984e+00
v 1.9837399999999985e+00 1.9050000000000000e+00 2.2450384671492190e+00
v 1.9043649999999985e+00 1.9050000000000000e+00 2.2237699999999987e+00
v 1.8249899999999986e+00 1.9050000000000000e+00 2.2450384671492190e+00
v 1.7668834671492188e+00 1.9050000000000000e+00 2.3031449999999989e+00
v 1.7456149999999986e+00 1.9050000000000000e+00 2.3825199999999986e+00
v 1.7668834671492188e+00 1.9050000000000000e+00 2.4618949999999988e+00
v 1.8249899999999986e+00 1.9050000000000000e+00 2.5200015328507783e+00
v 6.9843649999999986e+00 1.1430000000000000e+00 2.5412699999999990e+00
v 7.0637399999999984e+00 1.1430000000000000e+00 2.5200015328507788e+00
v 7.1218465328507783e+00 1.1430000000000000e+00 2.4618949999999988e+00
v 7.1431149999999990e+00 1.1430000000000000e+00 2.3825199999999991e+00
v 7.1218465328507783e+00 1.1430000000000000e+00 2.3031449999999989e+00
v 7.0637399999999984e+00 1.1430000000000000e+00 2.2450384671492194e+00
v 6.9843649999999986e+00 1.1430000000000000e+00 2.2237699999999991e+00
v 6.9049899999999989e+00 1.1430000000000000e+00 2.2450384671492194e+00
v 6.8468834671492189e+00 1.1430000000000000e+00 2.3031449999999993e+00
v 6.8256149999999982e+00 1.1430000000000000e+00 2.3825199999999991e+00
v 6.8468834671492189e+00 1.1430000000000000e+00 2.4618949999999993e+00
v 6.9049899999999989e+00 1.1430000000000000e+00 2.5200015328507788e+00
v 6.9843649999999986e+00 1.0476133767293747e+00 2.3825199999999991e+00
v 6.9843649999999986e+00 1.9050000000000000e+00 2.5412699999999990e+00
v 7.0637399999999984e+00 1.9050000000000000e+00 2.5200015328507788e+00
v 7.1218465328507783e+00 1.9050000000000000e+00 2.4618949999999988e+00
v 7.1431149999999990e+00 1.9050000000000000e+00 2.3825199999999991e+00
v 7.1218465328507783e+00 1.9050000000000000e+00 2.3031449999999989e+00
v 7.0637399999999984e+00 1.9050000000000000e+00 2.2450384671492194e+00
v 6.9843649999999986e+00 1.9050000000000000e+00 2.2237699999999991e+00
v 6.9049899999999989e+00 1.9050000000000000e+00 2.2450384671492194e+00
v 6.8468834671492189e+00 1.9050000000000000e+00 2.3031449999999993e+00
v 6.8256149999999982e+00 1.9050000000000000e+00 2.3825199999999991e+00
v 6.8468834671492189e+00 1.9050000000000000e+00 2.4618949999999993e+00
v 6.9049899999999989e+00 1.9050000000000000e+00 2.5200015328507788e+00
v 8.8900000000000006e+00 1.7449800000000000e+00 0.0000000000000000e+00
v 8.7299800000000012e+00 1.9050000000000000e+00 1.6002000000000005e-01
v 8.7299800000000012e+00 1.9050000000000000e+00 6.8249800000000000e+00
v 8.8900000000000006e+00 1.7449800000000000e+00 6.9850000000000003e+00
v 1.5874999999999995e-01 1.9050000000000000e+00 1.6001999999999983e-01
v 1.5874999999999995e-01 1.9050000000000000e+00 6.8249800000000000e+00
v 0.0000000000000000e+00 1.7449800000000000e+00 0.0000000000000000e+00
v 0.0000000000000000e+00 1.7462500000000001e+00 1.2699999999998823e-03
v 8.8900000000000006e+00 0.0000000000000000e+00 0.0000000000000000e+00
v 0.0000000000000000e+00 0.0000000000000000e+00 0.0000000000000000e+00
v 8.8900000000000006e+00 0.0000000000000000e+00 6.9850000000000003e+00
v 0.0000000000000000e+00 1.7462500000000001e+00 6.9837299999999995e+00
v 0.0000000000000000e+00 1.7449800000000000e+00 6.9850000000000003e+00
v 0.0000000000000000e+00 0.0000000000000000e+00 6.9850000000000003e+00

vn -2.5751903745502686e-01 8.5716730070211233e-01 -4.4603605678833957e-01
vn -2.5751903745502713e-01 8.5716730070211222e-01 -4.4603605678833941e-01
vn 0.0000000000000000e+00 8.5716730070211233e-01 -5.1503807491005416e-01
vn -5.1503807491005416e-01 8.5716730070211233e-01 -3.1536986493880629e-17
vn -5.1503807491005404e-01 8.5716730070211222e-01 -3.1536986493880617e-17
vn -4.4603605678833996e-01 8.5716730070211233e-01 -2.5751903745502647e-01
vn -2.5751903745502680e-01 8.5716730070211244e-01 4.4603605678833969e-01
vn -2.5751903745502697e-01 8.5716730070211222e-01 4.4603605678833957e-01
vn -4.4603605678833930e-01 8.5716730070211233e-01 2.5751903745502758e-01
vn 2.5751903745502680e-01 8.5716730070211244e-01 4.4603605678833969e-01
vn 2.5751903745502719e-01 8.5716730070211222e-01 4.4603605678833941e-01
vn 6.3073972987761259e-17 8.5716730070211233e-01 5.1503807491005416e-01
vn 5.1503807491005416e-01 8.5716730070211233e-01 -3.1536986493880629e-17
vn 5.1503807491005404e-01 8.5716730070211222e-01 -3.1536986493880617e-17
vn 4.4603605678833996e-01 8.5716730070211233e-01 2.5751903745502647e-01
vn 2.5751903745502686e-01 8.5716730070211233e-01 -4.4603605678833957e-01
vn 2.5751903745502691e-01 8.5716730070211222e-01 -4.4603605678833957e-01
vn 4.4603605678833935e-01 8.5716730070211233e-01 -2.5751903745502752e-01
vn -6.3073972987761259e-17 8.5716730070211233e-01 5.1503807491005416e-01
vn -6.3073972987761234e-17 8.5716730070211222e-01 5.1503807491005404e-01
vn -4.4603605678833957e-01 8.5716730070211222e-01 -2.5751903745502697e-01
vn 4.4603605678833957e-01 8.5716730070211222e-01 -2.5751903745502697e-01
vn -4.4603605678833946e-01 8.5716730070211222e-01 2.5751903745502713e-01
vn -0.0000000000000000e+00 8.5716730070211222e-01 -5.1503807491005404e-01
vn 4.4603605678833969e-01 8.5716730070211222e-01 2.5751903745502669e-01
vn -4.9999999999999972e-01 -0.0000000000000000e+00 -8.6602540378443882e-01
vn -0.0000000000000000e+00 -0.0000000000000000e+00 -1.0000000000000000e+00
vn 4.9999999999999972e-01 0.0000000000000000e+00 -8.6602540378443882e-01
vn 8.6602540378443804e-01 0.0000000000000000e+00 -5.0000000000000089e-01
vn 1.0000000000000000e+00 0.0000000000000000e+00 -6.1232339957367660e-17
vn 8.6602540378443937e-01 0.0000000000000000e+00 4.9999999999999867e-01
vn 4.9999999999999961e-01 0.0000000000000000e+00 8.6602540378443893e-01
vn 1.2246467991473532e-16 0.0000000000000000e+00 1.0000000000000000e+00
vn -1.2246467991473532e-16 0.0000000000000000e+00 1.0000000000000000e+00
vn -4.9999999999999961e-01 0.0000000000000000e+00 8.6602540378443893e-01
vn -8.6602540378443804e-01 0.0000000000000000e+00 5.0000000000000100e-01
vn -1.0000000000000000e+00 -0.0000000000000000e+00 -6.1232339957367660e-17
vn -8.6602540378443937e-01 -0.0000000000000000e+00 -4.9999999999999867e-01
vn -2.5751903745502647e-01 8.5716730070211233e-01 -4.4603605678833996e-01
vn -5.1503807491005404e-01 8.5716730070211222e-01 -3.1536986493880623e-17
vn -2.5751903745502647e-01 8.5716730070211233e-01 4.4603605678833996e-01
vn 2.5751903745502647e-01 8.5716730070211233e-01 4.4603605678833996e-01
vn 5.1503807491005404e-01 8.5716730070211222e-01 -3.1536986493880623e-17
vn 2.5751903745502647e-01 8.5716730070211233e-01 -4.4603605678833996e-01
vn -4.9999999999999867e-01 -0.0000000000000000e+00 -8.6602540378443937e-01
vn 4.9999999999999867e-01 0.0000000000000000e+00 -8.6602540378443937e-01
vn 4.9999999999999878e-01 0.0000000000000000e+00 8.6602540378443937e-01
vn -4.9999999999999878e-01 0.0000000000000000e+00 8.6602540378443937e-01
vn 7.0710678118654902e-01 7.0710678118654602e-01 0.0000000000000000e+00
vn 0.0000000000000000e+00 1.0000000000000000e+00 0.0000000000000000e+00
vn 0.0000000000000000e+00 7.0710678118654757e-01 -7.0710678118654757e-01
vn 1.0000000000000000e+00 -0.0000000000000000e+00 -0.0000000000000000e+00
vn -0.0000000000000000e+00 7.0710678118654802e-01 7.0710678118654702e-01
vn -0.0000000000000000e+00 -0.0000000000000000e+00 1.0000000000000000e+00
vn -7.0710678118654757e-01 7.0710678118654757e-01 0.0000000000000000e+00
vn -1.0000000000000000e+00 -0.0000000000000000e+00 -0.0000000000000000e+00
vn -0.0000000000000000e+00 -1.0000000000000000e+00 -0.0000000000000000e+00

g face 0
f 2//1 13//2 1//3
f 4//4 13//5 3//6
f 6//7 13//8 5//9
f 8//10 13//11 7//12
f 10//13 13//14 9//15
f 12//16 13//17 11//18
f 7//19 13//20 6//7
f 3//6 13//21 2//1
f 11//18 13//22 10//13
f 5//9 13//23 4//4
f 1//3 13//24 12//16
f 9//15 13//25 8//10

g face 1
f 15//26 2//26 14//27
f 14//27 2//26 1//27
f 14//27 1//27 25//28
f 25//28 1//27 12//28
f 25//28 12//28 24//29
f 24//29 12//28 11//29
f 24//29 11//29 23//30
f 23//30 11//29 10//30
f 23//30 10//30 22//31
f 22//31 10//30 9//31
f 22//31 9//31 21//32
f 21//32 9//31 8//32
f 21//32 8//32 20//33
f 20//33 8//32 7//33
f 20//34 7//34 19//35
f 19//35 7//34 6//35
f 19//35 6//35 18//36
f 18//36 6//35 5//36
f 18//36 5//36 17//37
f 17//37 5//36 4//37
f 17//37 4//37 16//38
f 16//38 4//37 3//38
f 16//38 3//38 15//26
f 15//26 3//38 2//26

g face 2
f 27//39 38//2 26//3
f 29//40 38//5 28//6
f 31//41 38//8 30//9
f 33//42 38//11 32//12
f 35//43 38//14 34//15
f 37//44 38//17 36//18
f 32//19 38//20 31//41
f 28//6 38//21 27//39
f 36//18 38//22 35//43
f 30//9 38//23 29//40
f 26//3 38//24 37//44
f 34//15 38//25 33//42

g face 3
f 40//45 27//45 39//27
f 39//27 27//45 26//27
f 39//27 26//27 50//46
f 50//46 26//27 37//46
f 50//46 37//46 49//29
f 49//29 37//46 36//29
f 49//29 36//29 48//30
f 48//30 36//29 35//30
f 48//30 35//30 47//31
f 47//31 35//30 34//31
f 47//31 34//31 46//47
f 46//47 34//31 33//47
f 46//47 33//47 45//33
f 45//33 33//47 32//33
f 45//34 32//34 44//48
f 44//48 32//34 31//48
f 44//48 31//48 43//36
f 43//36 31//48 30//36
f 43//36 30//36 42//37
f 42//37 30//36 29//37
f 42//37 29//37 41//38
f 41//38 29//37 28//38
f 41//38 28//38 40//45
f 40//45 28//38 27//45

g face 4
f 52//49 53//49 51//49
f 51//49 53//49 54//49

g face 5
f 15//50 14//50 56//50
f 56//50 14//50 25//50
f 56//50 25//50 24//50
f 56//50 24//50 55//50
f 55//50 24//50 23//50
f 55//50 23//50 22//50
f 22//50 21//50 55//50
f 55//50 21//50 20//50
f 55//50 20//50 19//50
f 55//50 19//50 46//50
f 46//50 19//50 18//50
f 46//50 18//50 47//50
f 47//50 18//50 48//50
f 48//50 18//50 17//50
f 48//50 17//50 16//50
f 15//50 50//50 16//50
f 16//50 50//50 49//50
f 16//50 49//50 48//50
f 50//50 15//50 56//50
f 40//50 39//50 53//50
f 53//50 39//50 50//50
f 53//50 50//50 56//50
f 55//50 46//50 52//50
f 52//50 46//50 45//50
f 52//50 45//50 44//50
f 44//50 43//50 52//50
f 52//50 43//50 42//50
f 52//50 42//50 41//50
f 52//50 41//50 53//50
f 53//50 41//50 40//50

g face 6
f 55//51 52//51 58//51
f 58//51 52//51 51//51
f 58//51 51//51 57//51

g face 7
f 51//27 59//27 57//27
f 57//27 59//27 60//27

g face 8
f 54//52 61//52 51//52
f 51//52 61//52 59//52

g face 9
f 63//53 54//53 62//53
f 62//53 54//53 53//53
f 62//53 53//53 56//53

g face 10
f 63//54 64//54 54//54
f 54//54 64//54 61//54

g face 11
f 58//55 62//55 55//55
f 55//55 62//55 56//55

g face 12
f 62//56 58//56 63//56
f 63//56 58//56 57//56
f 63//56 57//56 60//56
f 60//56 64//56 63//56

g face 13
f 64//57 60//57 61//57
f 61//57 60//57 59//57

g halfedge 0 edge 0
l 1 12 11 10 9 8 7 6 5 4 3 2 1

g halfedge 1 edge 0
l 1 2 3 4 5 6 7 8 9 10 11 12 1

g halfedge 2 edge 1
l

g halfedge 3 edge 2
l 14 25 24 23 22 21 20 19 18 17 16 15 14

g halfedge 4 edge 2
l 14 15 16 17 18 19 20 21 22 23 24 25 14

g halfedge 5 edge 3
l 26 37 36 35 34 33 32 31 30 29 28 27 26

g halfedge 6 edge 3
l 26 27 28 29 30 31 32 33 34 35 36 37 26

g halfedge 7 edge 4
l

g halfedge 8 edge 5
l 39 50 49 48 47 46 45 44 43 42 41 40 39

g halfedge 9 edge 5
l 39 40 41 42 43 44 45 46 47 48 49 50 39

g halfedge 10 edge 6
l 52 51

g halfedge 11 edge 6
l 51 52

g halfedge 12 edge 7
l 53 52

g halfedge 13 edge 7
l 52 53

g halfedge 14 edge 8
l 54 53

g halfedge 15 edge 8
l 53 54

g halfedge 16 edge 9
l 51 54

g halfedge 17 edge 9
l 54 51

g halfedge 18 edge 10
l 52 55

g halfedge 19 edge 10
l 55 52

g halfedge 20 edge 11
l 55 56

g halfedge 21 edge 11
l 56 55

g halfedge 22 edge 12
l 56 53

g halfedge 23 edge 12
l 53 56

g halfedge 24 edge 13
l 57 51

g halfedge 25 edge 13
l 51 57

g halfedge 26 edge 14
l 58 57

g halfedge 27 edge 14
l 57 58

g halfedge 28 edge 15
l 55 58

g halfedge 29 edge 15
l 58 55

g halfedge 30 edge 16
l 59 51

g halfedge 31 edge 16
l 51 59

g halfedge 32 edge 17
l 59 60

g halfedge 33 edge 17
l 60 59

g halfedge 34 edge 18
l 60 57

g halfedge 35 edge 18
l 57 60

g halfedge 36 edge 19
l 61 54

g halfedge 37 edge 19
l 54 61

g halfedge 38 edge 20
l 61 59

g halfedge 39 edge 20
l 59 61

g halfedge 40 edge 21
l 62 56

g halfedge 41 edge 21
l 56 62

g halfedge 42 edge 22
l 63 62

g halfedge 43 edge 22
l 62 63

g halfedge 44 edge 23
l 54 63

g halfedge 45 edge 23
l 63 54

g halfedge 46 edge 24
l 63 64

g halfedge 47 edge 24
l 64 63

g halfedge 48 edge 25
l 64 61

g halfedge 49 edge 25
l 61 64

g halfedge 50 edge 26
l 62 58

g halfedge 51 edge 26
l 58 62

g halfedge 52 edge 27
l 60 64

g halfedge 53 edge 27
l 64 60

g vertex 0
p 1

g vertex 1
p 13

g vertex 2
p 14

g vertex 3
p 26

g vertex 4
p 38

g vertex 5
p 39

g vertex 6
p 51

g vertex 7
p 52

g vertex 8
p 53

g vertex 9
p 54

g vertex 10
p 55

g vertex 11
p 56

g vertex 12
p 57

g vertex 13
p 58

g vertex 14
p 59

g vertex 15
p 60

g vertex 16
p 61

g vertex 17
p 62

g vertex 18
p 63

g vertex 19
p 64

# End of file
