# WaveFront *.obj file
# Vertices: 74
# Triangles : 148

v 2.0891091927465801e+01 1.9033895455259724e+01 4.7625000000000711e-01
v 2.0888230484551197e+01 1.9095452394525825e+01 4.8857636584531938e-01
v 2.0876269215798995e+01 1.9147160100301640e+01 5.2286067371456335e-01
v 2.0862754947255681e+01 1.9182012766355637e+01 5.7382432316869436e-01
v 2.0856662328842539e+01 1.9194598772021234e+01 6.3500000000000711e-01
v 2.0862754947255677e+01 1.9182012766355637e+01 6.9617567683131987e-01
v 2.0876269215798988e+01 1.9147160100301644e+01 7.4713932628545077e-01
v 2.0888230484551201e+01 1.9095452394525829e+01 7.8142363415469485e-01
v 2.0891091927465801e+01 1.9033895455259724e+01 7.9375000000000706e-01
v 2.0882008310954699e+01 1.8972945208841480e+01 7.8142363415469052e-01
v 2.0864869612843467e+01 1.8922715498372355e+01 7.4713932628544966e-01
v 2.0847893645541657e+01 1.8889411439768335e+01 6.9617567683132020e-01
v 2.0840557176134883e+01 1.8877507501160206e+01 6.3500000000000678e-01
v 2.0847893645541649e+01 1.8889411439768335e+01 5.7382432316869370e-01
v 2.0864869612843471e+01 1.8922715498372355e+01 5.2286067371456402e-01
v 2.0882008310954703e+01 1.8972945208841480e+01 4.8857636584532405e-01
v 2.0291338984366998e+01 1.8905402443913516e+01 6.3500000000000689e-01
v 2.0285246365953853e+01 1.8917988449579109e+01 6.9617567683132009e-01
v 2.0271732097410545e+01 1.8952841115633102e+01 7.4713932628544999e-01
v 2.0259770828658336e+01 1.9004548821408921e+01 7.8142363415469163e-01
v 2.0256909385743732e+01 1.9066105760675025e+01 7.9375000000000706e-01
v 2.0265993002254827e+01 1.9127056007093262e+01 7.8142363415469318e-01
v 2.0283131700366063e+01 1.9177285717562391e+01 7.4713932628545054e-01
v 2.0300107667667881e+01 1.9210589776166419e+01 6.9617567683132042e-01
v 2.0307444137074647e+01 1.9222493714774540e+01 6.3500000000000678e-01
v 2.0300107667667877e+01 1.9210589776166412e+01 5.7382432316869370e-01
v 2.0283131700366066e+01 1.9177285717562395e+01 5.2286067371456357e-01
v 2.0265993002254831e+01 1.9127056007093270e+01 4.8857636584532094e-01
v 2.0256909385743729e+01 1.9066105760675018e+01 4.7625000000000717e-01
v 2.0259770828658333e+01 1.9004548821408914e+01 4.8857636584532560e-01
v 2.0271732097410545e+01 1.8952841115633102e+01 5.2286067371456391e-01
v 2.0285246365953853e+01 1.8917988449579113e+01 5.7382432316869481e-01
v 2.0891500656604766e+01 1.9050000607967377e+01 7.1054273576010019e-15
v 2.0877395022441867e+01 1.9143585375842839e+01 7.1054273576010019e-15
v 2.0836331467450094e+01 1.9228854726402577e+01 7.1054273576010019e-15
v 2.0771958668694914e+01 1.9298232103650975e+01 7.1054273576010019e-15
v 2.0689996431841099e+01 1.9345553023161912e+01 7.1054273576010019e-15
v 2.0597727461318456e+01 1.9366612813572402e+01 7.1054273576010019e-15
v 2.0503350260073638e+01 1.9359540220085105e+01 7.1054273576010019e-15
v 2.0415250656604766e+01 1.9324963673668936e+01 7.1054273576010019e-15
v 2.0341256687298799e+01 1.9265955452209642e+01 7.1054273576010019e-15
v 2.0287943041045750e+01 1.9187758695137202e+01 7.1054273576010019e-15
v 2.0260046869278288e+01 1.9097321527478311e+01 7.1054273576010019e-15
v 2.0260046869278288e+01 1.9002679688456443e+01 7.1054273576010019e-15
v 2.0287943041045750e+01 1.8912242520797552e+01 7.1054273576010019e-15
v 2.0341256687298795e+01 1.8834045763725111e+01 7.1054273576010019e-15
v 2.0415250656604766e+01 1.8775037542265817e+01 7.1054273576010019e-15
v 2.0503350260073638e+01 1.8740460995849649e+01 7.1054273576010019e-15
v 2.0597727461318456e+01 1.8733388402362351e+01 7.1054273576010019e-15
v 2.0689996431841099e+01 1.8754448192772841e+01 7.1054273576010019e-15
v 2.0771958668694914e+01 1.8801769112283779e+01 7.1054273576010019e-15
v 2.0836331467450094e+01 1.8871146489532176e+01 7.1054273576010019e-15
v 2.0877395022441867e+01 1.8956415840091914e+01 7.1054273576010019e-15
v 2.0891500656604766e+01 1.9050000607967377e+01 3.6512500000000072e+00
v 2.0877395022441867e+01 1.8956415840091914e+01 3.6512500000000072e+00
v 2.0836331467450094e+01 1.8871146489532176e+01 3.6512500000000072e+00
v 2.0771958668694914e+01 1.8801769112283779e+01 3.6512500000000072e+00
v 2.0689996431841099e+01 1.8754448192772841e+01 3.6512500000000072e+00
v 2.0597727461318456e+01 1.8733388402362351e+01 3.6512500000000072e+00
v 2.0503350260073638e+01 1.8740460995849649e+01 3.6512500000000072e+00
v 2.0415250656604766e+01 1.8775037542265817e+01 3.6512500000000072e+00
v 2.0341256687298799e+01 1.8834045763725111e+01 3.6512500000000072e+00
v 2.0287943041045750e+01 1.8912242520797552e+01 3.6512500000000072e+00
v 2.0260046869278288e+01 1.9002679688456443e+01 3.6512500000000072e+00
v 2.0260046869278288e+01 1.9097321527478311e+01 3.6512500000000072e+00
v 2.0287943041045750e+01 1.9187758695137202e+01 3.6512500000000072e+00
v 2.0341256687298795e+01 1.9265955452209642e+01 3.6512500000000072e+00
v 2.0415250656604766e+01 1.9324963673668936e+01 3.6512500000000072e+00
v 2.0503350260073638e+01 1.9359540220085105e+01 3.6512500000000072e+00
v 2.0597727461318456e+01 1.9366612813572402e+01 3.6512500000000072e+00
v 2.0689996431841099e+01 1.9345553023161912e+01 3.6512500000000072e+00
v 2.0771958668694914e+01 1.9298232103650975e+01 3.6512500000000072e+00
v 2.0836331467450094e+01 1.9228854726402577e+01 3.6512500000000072e+00
v 2.0877395022441867e+01 1.9143585375842839e+01 3.6512500000000072e+00

vn -1.9597397295766927e-02 -3.8584940651513172e-01 9.2235360763166785e-01
vn 3.1618498952705567e-15 6.2253057748826541e-14 1.0000000000000000e+00
vn -4.8742309859988467e-16 -9.5967801477982960e-15 1.0000000000000000e+00
vn 1.9597397295770865e-02 3.8584940651520933e-01 9.2235360763163521e-01
vn 1.9597397295769810e-02 3.8584940651518856e-01 9.2235360763164398e-01
vn 3.5904262295590364e-02 7.0691215211060576e-01 7.0638947695117971e-01
vn 3.5904262295589649e-02 7.0691215211059166e-01 7.0638947695119392e-01
vn 4.6807249875523017e-02 9.2157898890875378e-01 3.8535859736226147e-01
vn 4.6807249875523059e-02 9.2157898890875456e-01 3.8535859736225941e-01
vn 5.0724890417802877e-02 9.9871266412922888e-01 1.2246467991473535e-16
vn 5.0724890417802877e-02 9.9871266412922888e-01 -1.2246467991473535e-16
vn 4.6807249875523080e-02 9.2157898890875511e-01 -3.8535859736225825e-01
vn 4.6807249875523108e-02 9.2157898890875567e-01 -3.8535859736225697e-01
vn 3.5904262295590413e-02 7.0691215211060665e-01 -7.0638947695117882e-01
vn -1.9597397295769169e-02 -3.8584940651517591e-01 9.2235360763164920e-01
vn -3.5904262295589018e-02 -7.0691215211057934e-01 7.0638947695120635e-01
vn -3.5904262295589448e-02 -7.0691215211058767e-01 7.0638947695119791e-01
vn -4.6807249875522913e-02 -9.2157898890875167e-01 3.8535859736226619e-01
vn -4.6807249875522816e-02 -9.2157898890874990e-01 3.8535859736227046e-01
vn -5.0724890417802877e-02 -9.9871266412922888e-01 1.9718346850380632e-31
vn -5.0724890417802877e-02 -9.9871266412922888e-01 2.0980592591342241e-15
vn -4.6807249875522899e-02 -9.2157898890875156e-01 -3.8535859736226658e-01
vn -4.6807249875523177e-02 -9.2157898890875700e-01 -3.8535859736225364e-01
vn -3.5904262295589552e-02 -7.0691215211058978e-01 -7.0638947695119580e-01
vn -3.5904262295588865e-02 -7.0691215211057623e-01 -7.0638947695120935e-01
vn -1.9597397295767944e-02 -3.8584940651515176e-01 -9.2235360763165941e-01
vn -1.9597397295767208e-02 -3.8584940651513733e-01 -9.2235360763166541e-01
vn -4.8742309859988467e-16 -9.5967801477982960e-15 -1.0000000000000000e+00
vn 8.3036992696444128e-16 1.6348994648205118e-14 -1.0000000000000000e+00
vn 1.9597397295769821e-02 3.8584940651518873e-01 -9.2235360763164387e-01
vn 1.9597397295768551e-02 3.8584940651516375e-01 -9.2235360763165442e-01
vn 3.5904262295589774e-02 7.0691215211059411e-01 -7.0638947695119136e-01
vn -9.0946233126277265e-01 -4.1578632494838358e-01 0.0000000000000000e+00
vn -9.0096886790241804e-01 -4.3388373911756062e-01 0.0000000000000000e+00
vn -8.9027298342604799e-01 -4.5542728835861818e-01 0.0000000000000000e+00
vn -7.3305187182983123e-01 -6.8017273777091414e-01 0.0000000000000000e+00
vn -7.3305187182982612e-01 -6.8017273777091969e-01 0.0000000000000000e+00
vn -5.0000000000000300e-01 -8.6602540378443693e-01 0.0000000000000000e+00
vn -2.2252093395631112e-01 -9.7492791218182429e-01 0.0000000000000000e+00
vn 7.4730093586423060e-02 -9.9720379718118024e-01 -0.0000000000000000e+00
vn 3.6534102436639831e-01 -9.3087374864420303e-01 -0.0000000000000000e+00
vn 6.2348980185873515e-01 -7.8183148246802858e-01 -0.0000000000000000e+00
vn 8.2623877431599291e-01 -5.6332005806362495e-01 -0.0000000000000000e+00
vn 8.3954809300824373e-01 -5.4328537577061786e-01 -0.0000000000000000e+00
vn 8.6265508184676598e-01 -5.0579265491300851e-01 -0.0000000000000000e+00
vn -9.5202696362627304e-01 -3.0601415086322220e-01 0.0000000000000000e+00
vn -9.8883082622512919e-01 -1.4904226617616995e-01 0.0000000000000000e+00
vn -9.8970024710775328e-01 -1.4315523348747022e-01 0.0000000000000000e+00
vn -9.9871266412923065e-01 5.0724890417767551e-02 -0.0000000000000000e+00
vn -9.8883082622512941e-01 1.4904226617616964e-01 -0.0000000000000000e+00
vn -9.8883082622512919e-01 1.4904226617616995e-01 -0.0000000000000000e+00
vn -9.9871266412923065e-01 5.0724890417767787e-02 -0.0000000000000000e+00
vn -9.7010284992161067e-01 2.4269417086936565e-01 -0.0000000000000000e+00
vn -9.0096886790241804e-01 4.3388373911756062e-01 -0.0000000000000000e+00
vn -9.1612270214031555e-01 4.0089798530689419e-01 -0.0000000000000000e+00
vn -8.6265508184677575e-01 5.0579265491299186e-01 -0.0000000000000000e+00
vn -8.3954809300825717e-01 5.4328537577059699e-01 -0.0000000000000000e+00
vn -7.3305187182982612e-01 6.8017273777091969e-01 -0.0000000000000000e+00
vn -7.3305187182983123e-01 6.8017273777091414e-01 -0.0000000000000000e+00
vn -5.0000000000000300e-01 8.6602540378443693e-01 -0.0000000000000000e+00
vn -8.6265508184676298e-01 5.0579265491301340e-01 -0.0000000000000000e+00
vn -9.1612270214032154e-01 4.0089798530688070e-01 -0.0000000000000000e+00
vn -9.7010284992161666e-01 2.4269417086934195e-01 -0.0000000000000000e+00
vn -9.9871266412922954e-01 5.0724890417790866e-02 -0.0000000000000000e+00
vn -9.8883082622512941e-01 -1.4904226617616964e-01 0.0000000000000000e+00
vn -9.8970024710775628e-01 -1.4315523348744977e-01 0.0000000000000000e+00
vn -9.8970024710775628e-01 -1.4315523348745002e-01 0.0000000000000000e+00
vn -9.0946233126276843e-01 -4.1578632494839285e-01 0.0000000000000000e+00
vn 9.7010284992160745e-01 -2.4269417086937878e-01 -0.0000000000000000e+00
vn 9.9871266412922888e-01 -5.0724890417801947e-02 -0.0000000000000000e+00
vn 1.0000000000000000e+00 -0.0000000000000000e+00 -0.0000000000000000e+00
vn 9.8970024710775806e-01 1.4315523348743744e-01 -0.0000000000000000e+00
vn 9.5557280578614034e-01 2.9475517441090548e-01 -0.0000000000000000e+00
vn 9.5202696362627970e-01 3.0601415086320188e-01 -0.0000000000000000e+00
vn 9.0946233126277509e-01 4.1578632494837831e-01 -0.0000000000000000e+00
vn 8.2623877431599291e-01 5.6332005806362495e-01 -0.0000000000000000e+00
vn 8.9027298342605476e-01 4.5542728835860485e-01 -0.0000000000000000e+00
vn 9.0946233126277698e-01 4.1578632494837414e-01 -0.0000000000000000e+00
vn 9.5202696362628503e-01 3.0601415086318529e-01 -0.0000000000000000e+00
vn 9.8970024710775928e-01 1.4315523348742806e-01 -0.0000000000000000e+00
vn 9.7010284992160811e-01 -2.4269417086937620e-01 -0.0000000000000000e+00
vn 9.5557280578614034e-01 -2.9475517441090548e-01 -0.0000000000000000e+00
vn 9.1612270214031333e-01 -4.0089798530689941e-01 -0.0000000000000000e+00
vn 8.6265508184676021e-01 -5.0579265491301839e-01 -0.0000000000000000e+00
vn 9.1612270214031144e-01 -4.0089798530690346e-01 -0.0000000000000000e+00
vn 6.2348980185873515e-01 7.8183148246802858e-01 -0.0000000000000000e+00
vn 3.6534102436639831e-01 9.3087374864420303e-01 -0.0000000000000000e+00
vn 7.4730093586423060e-02 9.9720379718118024e-01 -0.0000000000000000e+00
vn -2.2252093395631112e-01 9.7492791218182429e-01 -0.0000000000000000e+00
vn 0.0000000000000000e+00 0.0000000000000000e+00 -1.0000000000000000e+00
vn 0.0000000000000000e+00 0.0000000000000000e+00 1.0000000000000000e+00

g face 0
f 2//1 29//2 1//3
f 1//3 29//2 30//4
f 1//3 30//4 16//5
f 16//5 30//4 31//6
f 16//5 31//6 15//7
f 15//7 31//6 32//8
f 15//7 32//8 14//9
f 14//9 32//8 13//10
f 13//10 32//8 17//10
f 13//11 17//11 12//12
f 12//12 17//11 18//13
f 12//12 18//13 19//14
f 29//2 2//1 28//15
f 28//15 2//1 3//16
f 28//15 3//16 27//17
f 27//17 3//16 4//18
f 27//17 4//18 26//19
f 26//19 4//18 5//20
f 26//19 5//20 25//21
f 25//21 5//20 6//22
f 25//21 6//22 24//23
f 24//23 6//22 7//24
f 24//23 7//24 23//25
f 23//25 7//24 8//26
f 23//25 8//26 22//27
f 22//27 8//26 9//28
f 22//27 9//28 21//29
f 21//29 9//28 10//30
f 21//29 10//30 20//31
f 20//31 10//30 11//32
f 20//31 11//32 19//14
f 19//14 11//32 12//12

g face 1
f 32//33 45//34 17//35
f 17//35 45//34 46//36
f 17//35 46//36 62//37
f 62//37 46//36 47//38
f 62//37 47//38 61//38
f 61//38 47//38 48//39
f 61//38 48//39 60//39
f 60//39 48//39 49//40
f 60//39 49//40 59//40
f 59//40 49//40 50//41
f 59//40 50//41 58//41
f 58//41 50//41 51//42
f 58//41 51//42 57//42
f 57//42 51//42 52//43
f 57//42 52//43 56//43
f 56//43 52//43 13//44
f 56//43 13//44 12//45
f 32//33 31//46 45//34
f 45//34 31//46 44//47
f 44//47 31//46 30//48
f 44//47 30//48 29//49
f 44//47 29//49 43//50
f 43//51 29//52 28//53
f 43//51 28//53 42//54
f 42//54 28//53 27//55
f 42//54 27//55 26//56
f 26//56 25//57 42//54
f 42//54 25//57 41//58
f 41//58 25//57 67//59
f 41//58 67//59 68//60
f 67//59 25//57 66//54
f 66//54 25//57 24//61
f 66//54 24//61 23//62
f 23//62 22//63 66//54
f 66//54 22//63 65//51
f 65//51 22//63 21//64
f 65//51 21//64 64//65
f 64//65 21//64 20//66
f 64//47 20//67 19//46
f 64//47 19//46 63//34
f 63//34 19//46 18//68
f 63//34 18//68 17//35
f 10//69 9//70 54//71
f 54//71 9//70 8//72
f 54//71 8//72 74//73
f 74//73 8//72 7//74
f 74//73 7//74 6//75
f 74//73 6//75 73//76
f 73//76 6//75 5//77
f 73//76 5//77 35//76
f 35//76 5//77 4//78
f 35//76 4//78 34//73
f 34//73 4//78 3//79
f 34//73 3//79 2//80
f 34//73 2//80 33//71
f 33//71 2//80 1//70
f 33//71 1//70 16//81
f 33//71 16//81 53//82
f 53//82 16//81 15//83
f 53//82 15//83 52//43
f 52//43 15//83 14//84
f 52//43 14//84 13//44
f 12//45 11//85 56//43
f 56//43 11//85 55//82
f 55//82 11//85 10//69
f 55//82 10//69 54//71
f 35//76 36//86 73//76
f 73//76 36//86 72//86
f 72//86 36//86 37//87
f 72//86 37//87 71//87
f 71//87 37//87 38//88
f 71//87 38//88 70//88
f 70//88 38//88 39//89
f 70//88 39//89 69//89
f 69//89 39//89 40//60
f 69//89 40//60 68//60
f 68//60 40//60 41//58
f 62//37 63//34 17//35

g face 2
f 34//90 33//90 48//90
f 48//90 33//90 53//90
f 48//90 53//90 52//90
f 52//90 51//90 48//90
f 48//90 51//90 50//90
f 48//90 50//90 49//90
f 47//90 39//90 48//90
f 48//90 39//90 38//90
f 48//90 38//90 37//90
f 39//90 47//90 40//90
f 40//90 47//90 46//90
f 40//90 46//90 41//90
f 41//90 46//90 45//90
f 41//90 45//90 42//90
f 42//90 45//90 44//90
f 42//90 44//90 43//90
f 37//90 36//90 48//90
f 48//90 36//90 35//90
f 48//90 35//90 34//90

g face 3
f 55//91 54//91 60//91
f 60//91 54//91 74//91
f 60//91 74//91 73//91
f 73//91 72//91 60//91
f 60//91 72//91 71//91
f 60//91 71//91 70//91
f 70//91 69//91 60//91
f 60//91 69//91 61//91
f 61//91 69//91 68//91
f 61//91 68//91 62//91
f 62//91 68//91 67//91
f 62//91 67//91 63//91
f 63//91 67//91 66//91
f 63//91 66//91 64//91
f 64//91 66//91 65//91
f 59//91 58//91 60//91
f 60//91 58//91 57//91
f 60//91 57//91 56//91
f 56//91 55//91 60//91

g halfedge 0 edge 0
l 9 8 7 6 5 4 3 2 1

g halfedge 1 edge 0
l 1 2 3 4 5 6 7 8 9

g halfedge 2 edge 1
l 1 16 15 14 13 12 11 10 9

g halfedge 3 edge 1
l 9 10 11 12 13 14 15 16 1

g halfedge 4 edge 2
l 17 32 31 30 29 28 27 26 25 24 23 22 21 20 19 18 17

g halfedge 5 edge 2
l 17 18 19 20 21 22 23 24 25 26 27 28 29 30 31 32 17

g halfedge 6 edge 3
l 33 53 52 51 50 49 48 47 46 45 44 43 42 41 40 39 38 37 36 35 34 33

g halfedge 7 edge 3
l 33 34 35 36 37 38 39 40 41 42 43 44 45 46 47 48 49 50 51 52 53 33

g halfedge 8 edge 4
l 54 74 73 72 71 70 69 68 67 66 65 64 63 62 61 60 59 58 57 56 55 54

g halfedge 9 edge 4
l 54 55 56 57 58 59 60 61 62 63 64 65 66 67 68 69 70 71 72 73 74 54

g vertex 0
p 9

g vertex 1
p 1

g vertex 2
p 17

g vertex 3
p 33

g vertex 4
p 54

# End of file
