# WaveFront *.obj file
# Vertices: 149
# Triangles : 298

v -3.4925005674362086e-01 -3.0480000972747798e+00 2.3812499999999925e-01
v -3.7341830517128738e-01 -2.9264981074988636e+00 2.3812499999999925e-01
v -4.4224365371689212e-01 -2.8234936942480511e+00 2.3812499999999925e-01
v -5.4524806696770478e-01 -2.7546683457024463e+00 2.3812499999999925e-01
v -6.6675005674362098e-01 -2.7305000972747799e+00 2.3812499999999925e-01
v -7.8825204651953706e-01 -2.7546683457024463e+00 2.3812499999999925e-01
v -8.9125645977034973e-01 -2.8234936942480511e+00 2.3812499999999925e-01
v -9.6008180831595447e-01 -2.9264981074988636e+00 2.3812499999999925e-01
v -9.8425005674362087e-01 -3.0480000972747798e+00 2.3812499999999925e-01
v -9.6008180831595435e-01 -3.1695020870506960e+00 2.3812499999999925e-01
v -8.9125645977034973e-01 -3.2725065003015086e+00 2.3812499999999925e-01
v -7.8825204651953684e-01 -3.3413318488471133e+00 2.3812499999999925e-01
v -6.6675005674362087e-01 -3.3655000972747797e+00 2.3812499999999925e-01
v -5.4524806696770489e-01 -3.3413318488471133e+00 2.3812499999999925e-01
v -4.4224365371689200e-01 -3.2725065003015086e+00 2.3812499999999925e-01
v -3.7341830517128732e-01 -3.1695020870506960e+00 2.3812499999999925e-01
v -6.6675005674362087e-01 -3.0480000972747798e+00 4.7351753458748855e-02
v -3.4925005674362086e-01 -3.0480000972747798e+00 9.5249999999999924e-01
v -3.7341830517128738e-01 -2.9264981074988636e+00 9.5250000000000001e-01
v -4.4224365371689212e-01 -2.8234936942480511e+00 9.5250000000000001e-01
v -5.4524806696770478e-01 -2.7546683457024463e+00 9.5250000000000001e-01
v -6.6675005674362098e-01 -2.7305000972747799e+00 9.5250000000000001e-01
v -7.8825204651953706e-01 -2.7546683457024463e+00 9.5250000000000001e-01
v -8.9125645977034973e-01 -2.8234936942480511e+00 9.5250000000000001e-01
v -9.6008180831595447e-01 -2.9264981074988636e+00 9.5250000000000001e-01
v -9.8425005674362087e-01 -3.0480000972747798e+00 9.5250000000000001e-01
v -9.6008180831595435e-01 -3.1695020870506960e+00 9.5250000000000001e-01
v -8.9125645977034973e-01 -3.2725065003015086e+00 9.5250000000000001e-01
v -7.8825204651953684e-01 -3.3413318488471133e+00 9.5250000000000001e-01
v -6.6675005674362087e-01 -3.3655000972747797e+00 9.5250000000000001e-01
v -5.4524806696770489e-01 -3.3413318488471133e+00 9.5250000000000001e-01
v -4.4224365371689200e-01 -3.2725065003015086e+00 9.5250000000000001e-01
v -3.7341830517128732e-01 -3.1695020870506960e+00 9.5250000000000001e-01
v -2.0955000567436217e+00 -3.0480000972747803e+00 9.5250000000000001e-01
v -2.0713318083159553e+00 -3.1695020870506965e+00 9.5250000000000001e-01
v -2.0025064597703506e+00 -3.2725065003015090e+00 9.5250000000000001e-01
v -1.8995020465195378e+00 -3.3413318488471138e+00 9.5250000000000001e-01
v -1.7780000567436218e+00 -3.3655000972747802e+00 9.5250000000000001e-01
v -1.6564980669677056e+00 -3.3413318488471138e+00 9.5250000000000001e-01
v -1.5534936537168931e+00 -3.2725065003015090e+00 9.5250000000000001e-01
v -1.4846683051712883e+00 -3.1695020870506960e+00 9.5250000000000001e-01
v -1.4605000567436219e+00 -3.0480000972747803e+00 9.5250000000000001e-01
v -1.4846683051712883e+00 -2.9264981074988645e+00 9.5250000000000001e-01
v -1.5534936537168931e+00 -2.8234936942480515e+00 9.5250000000000001e-01
v -1.6564980669677059e+00 -2.7546683457024468e+00 9.5250000000000001e-01
v -1.7780000567436218e+00 -2.7305000972747804e+00 9.5250000000000001e-01
v -1.8995020465195378e+00 -2.7546683457024468e+00 9.5250000000000001e-01
v -2.0025064597703506e+00 -2.8234936942480515e+00 9.5250000000000001e-01
v -2.0713318083159553e+00 -2.9264981074988641e+00 9.5250000000000001e-01
v -2.0955000567436217e+00 -3.0480000972747803e+00 0.0000000000000000e+00
v -2.0713318083159553e+00 -2.9264981074988641e+00 0.0000000000000000e+00
v -2.0025064597703506e+00 -2.8234936942480515e+00 0.0000000000000000e+00
v -1.8995020465195378e+00 -2.7546683457024468e+00 0.0000000000000000e+00
v -1.7780000567436218e+00 -2.7305000972747804e+00 0.0000000000000000e+00
v -1.6564980669677059e+00 -2.7546683457024468e+00 0.0000000000000000e+00
v -1.5534936537168931e+00 -2.8234936942480515e+00 0.0000000000000000e+00
v -1.4846683051712883e+00 -2.9264981074988645e+00 0.0000000000000000e+00
v -1.4605000567436219e+00 -3.0480000972747803e+00 0.0000000000000000e+00
v -1.4846683051712883e+00 -3.1695020870506960e+00 0.0000000000000000e+00
v -1.5534936537168931e+00 -3.2725065003015090e+00 0.0000000000000000e+00
v -1.6564980669677056e+00 -3.3413318488471138e+00 0.0000000000000000e+00
v -1.7780000567436218e+00 -3.3655000972747802e+00 0.0000000000000000e+00
v -1.8995020465195378e+00 -3.3413318488471138e+00 0.0000000000000000e+00
v -2.0025064597703506e+00 -3.2725065003015090e+00 0.0000000000000000e+00
v -2.0713318083159553e+00 -3.1695020870506965e+00 0.0000000000000000e+00
v -4.0005000567436220e+00 -3.0480000972747807e+00 9.5250000000000001e-01
v -3.9756765680289701e+00 -2.7167536606982328e+00 9.5250000000000001e-01
v -3.9017606176033199e+00 -2.3929067221465465e+00 9.5250000000000001e-01
v -3.7804033656567482e+00 -2.0836934870860069e+00 9.5250000000000001e-01
v -3.6143157326609208e+00 -1.7960212682283807e+00 9.5250000000000001e-01
v -3.4072078418854117e+00 -1.5363161875789126e+00 9.5250000000000001e-01
v -3.1637061413746572e+00 -1.3103796274895836e+00 9.5250000000000001e-01
v -2.8892500567436223e+00 -1.1232586373638653e+00 9.5250000000000001e-01
v -2.5899704833979360e+00 -9.7913319091303652e-01 9.5250000000000001e-01
v -2.2725528324615305e+00 -8.8122281245067713e-01 9.5250000000000001e-01
v -1.9440876897394503e+00 -8.3171465803960709e-01 9.5250000000000001e-01
v -1.6119124237477951e+00 -8.3171465803960709e-01 9.5250000000000001e-01
v -1.2834472810257129e+00 -8.8122281245067713e-01 9.5250000000000001e-01
v -9.6602963008930942e-01 -9.7913319091303608e-01 9.5250000000000001e-01
v -6.6675005674362287e-01 -1.1232586373638647e+00 9.5250000000000001e-01
v -3.9229397211258643e-01 -1.3103796274895840e+00 9.5250000000000001e-01
v -1.4879227160183328e-01 -1.5363161875789113e+00 9.5250000000000001e-01
v 5.8315619173676669e-02 -1.7960212682283798e+00 9.5250000000000001e-01
v 2.2440325216950496e-01 -2.0836934870860073e+00 9.5250000000000001e-01
v 3.4576050411607584e-01 -2.3929067221465452e+00 9.5250000000000001e-01
v 4.1967645454172642e-01 -2.7167536606982323e+00 9.5250000000000001e-01
v 4.4449994325637832e-01 -3.0480000972747803e+00 9.5250000000000001e-01
v 4.1967645454172686e-01 -3.3792465338513273e+00 9.5250000000000001e-01
v 3.4576050411607628e-01 -3.7030934724030145e+00 9.5250000000000001e-01
v 2.2440325216950496e-01 -4.0123067074635532e+00 9.5250000000000001e-01
v 5.8315619173677113e-02 -4.2999789263211792e+00 9.5250000000000001e-01
v -1.4879227160183239e-01 -4.5596840069706488e+00 9.5250000000000001e-01
v -3.9229397211258643e-01 -4.7856205670599765e+00 9.5250000000000001e-01
v -6.6675005674362109e-01 -4.9727415571856950e+00 9.5250000000000001e-01
v -9.6602963008930842e-01 -5.1168670036365240e+00 9.5250000000000001e-01
v -1.2834472810257129e+00 -5.2147773820988839e+00 9.5250000000000001e-01
v -1.6119124237477935e+00 -5.2642855365099539e+00 9.5250000000000001e-01
v -1.9440876897394492e+00 -5.2642855365099539e+00 9.5250000000000001e-01
v -2.2725528324615305e+00 -5.2147773820988839e+00 9.5250000000000001e-01
v -2.5899704833979342e+00 -5.1168670036365249e+00 9.5250000000000001e-01
v -2.8892500567436215e+00 -4.9727415571856959e+00 9.5250000000000001e-01
v -3.1637061413746572e+00 -4.7856205670599774e+00 9.5250000000000001e-01
v -3.4072078418854099e+00 -4.5596840069706497e+00 9.5250000000000001e-01
v -3.6143157326609199e+00 -4.2999789263211809e+00 9.5250000000000001e-01
v -3.7804033656567482e+00 -4.0123067074635532e+00 9.5250000000000001e-01
v -3.9017606176033199e+00 -3.7030934724030149e+00 9.5250000000000001e-01
v -3.9756765680289701e+00 -3.3792465338513287e+00 9.5250000000000001e-01
v -4.0005000567436220e+00 -3.0480000972747807e+00 0.0000000000000000e+00
v -3.9756765680289701e+00 -3.3792465338513287e+00 0.0000000000000000e+00
v -3.9017606176033199e+00 -3.7030934724030149e+00 0.0000000000000000e+00
v -3.7804033656567482e+00 -4.0123067074635532e+00 0.0000000000000000e+00
v -3.6143157326609199e+00 -4.2999789263211809e+00 0.0000000000000000e+00
v -3.4072078418854099e+00 -4.5596840069706497e+00 0.0000000000000000e+00
v -3.1637061413746572e+00 -4.7856205670599774e+00 0.0000000000000000e+00
v -2.8892500567436215e+00 -4.9727415571856959e+00 0.0000000000000000e+00
v -2.5899704833979342e+00 -5.1168670036365249e+00 0.0000000000000000e+00
v -2.2725528324615305e+00 -5.2147773820988839e+00 0.0000000000000000e+00
v -1.9440876897394492e+00 -5.2642855365099539e+00 0.0000000000000000e+00
v -1.6119124237477935e+00 -5.2642855365099539e+00 0.0000000000000000e+00
v -1.2834472810257129e+00 -5.2147773820988839e+00 0.0000000000000000e+00
v -9.6602963008930842e-01 -5.1168670036365240e+00 0.0000000000000000e+00
v -6.6675005674362109e-01 -4.9727415571856950e+00 0.0000000000000000e+00
v -3.9229397211258643e-01 -4.7856205670599765e+00 0.0000000000000000e+00
v -1.4879227160183239e-01 -4.5596840069706488e+00 0.0000000000000000e+00
v 5.8315619173677113e-02 -4.2999789263211792e+00 0.0000000000000000e+00
v 2.2440325216950496e-01 -4.0123067074635532e+00 0.0000000000000000e+00
v 3.4576050411607628e-01 -3.7030934724030145e+00 0.0000000000000000e+00
v 4.1967645454172686e-01 -3.3792465338513273e+00 0.0000000000000000e+00
v 4.4449994325637832e-01 -3.0480000972747803e+00 0.0000000000000000e+00
v 4.1967645454172642e-01 -2.7167536606982323e+00 0.0000000000000000e+00
v 3.4576050411607584e-01 -2.3929067221465452e+00 0.0000000000000000e+00
v 2.2440325216950496e-01 -2.0836934870860073e+00 0.0000000000000000e+00
v 5.8315619173676669e-02 -1.7960212682283798e+00 0.0000000000000000e+00
v -1.4879227160183328e-01 -1.5363161875789113e+00 0.0000000000000000e+00
v -3.9229397211258643e-01 -1.3103796274895840e+00 0.0000000000000000e+00
v -6.6675005674362287e-01 -1.1232586373638647e+00 0.0000000000000000e+00
v -9.6602963008930942e-01 -9.7913319091303608e-01 0.0000000000000000e+00
v -1.2834472810257129e+00 -8.8122281245067713e-01 0.0000000000000000e+00
v -1.6119124237477951e+00 -8.3171465803960709e-01 0.0000000000000000e+00
v -1.9440876897394503e+00 -8.3171465803960709e-01 0.0000000000000000e+00
v -2.2725528324615305e+00 -8.8122281245067713e-01 0.0000000000000000e+00
v -2.5899704833979360e+00 -9.7913319091303652e-01 0.0000000000000000e+00
v -2.8892500567436223e+00 -1.1232586373638653e+00 0.0000000000000000e+00
v -3.1637061413746572e+00 -1.3103796274895836e+00 0.0000000000000000e+00
v -3.4072078418854117e+00 -1.5363161875789126e+00 0.0000000000000000e+00
v -3.6143157326609208e+00 -1.7960212682283807e+00 0.0000000000000000e+00
v -3.7804033656567482e+00 -2.0836934870860069e+00 0.0000000000000000e+00
v -3.9017606176033199e+00 -2.3929067221465465e+00 0.0000000000000000e+00
v -3.9756765680289701e+00 -2.7167536606982328e+00 0.0000000000000000e+00

vn -4.7583313587341369e-01 -1.9709653830528798e-01 8.5716730070211244e-01
vn -4.7583313587341380e-01 -1.9709653830528770e-01 8.5716730070211222e-01
vn -5.1503807491005416e-01 0.0000000000000000e+00 8.5716730070211233e-01
vn -1.9709653830528787e-01 -4.7583313587341386e-01 8.5716730070211233e-01
vn -2.5751903745502697e-01 -4.4603605678833957e-01 8.5716730070211222e-01
vn -3.6418691533816427e-01 -3.6418691533816427e-01 8.5716730070211244e-01
vn 1.9718586523562268e-16 -5.1503807491005416e-01 8.5716730070211233e-01
vn -3.1536986493880617e-17 -5.1503807491005404e-01 8.5716730070211222e-01
vn 3.6418691533816444e-01 -3.6418691533816416e-01 8.5716730070211233e-01
vn 3.6418691533816422e-01 -3.6418691533816427e-01 8.5716730070211222e-01
vn 1.9709653830528800e-01 -4.7583313587341380e-01 8.5716730070211244e-01
vn 5.1503807491005416e-01 -6.3073972987761259e-17 8.5716730070211233e-01
vn 5.1503807491005404e-01 -6.3073972987761234e-17 8.5716730070211222e-01
vn 4.7583313587341380e-01 -1.9709653830528798e-01 8.5716730070211244e-01
vn 3.6418691533816444e-01 3.6418691533816416e-01 8.5716730070211233e-01
vn 3.6418691533816422e-01 3.6418691533816427e-01 8.5716730070211222e-01
vn 4.7583313587341380e-01 1.9709653830528798e-01 8.5716730070211244e-01
vn -3.1536986493880629e-17 5.1503807491005416e-01 8.5716730070211233e-01
vn -3.1536986493880617e-17 5.1503807491005404e-01 8.5716730070211222e-01
vn 1.9709653830528773e-01 4.7583313587341391e-01 8.5716730070211233e-01
vn -3.6418691533816439e-01 3.6418691533816422e-01 8.5716730070211233e-01
vn -2.5751903745502697e-01 4.4603605678833957e-01 8.5716730070211222e-01
vn -1.9709653830528778e-01 4.7583313587341386e-01 8.5716730070211244e-01
vn -4.7583313587341369e-01 1.9709653830528800e-01 8.5716730070211233e-01
vn -4.7583313587341380e-01 1.9709653830528770e-01 8.5716730070211222e-01
vn 4.7583313587341369e-01 1.9709653830528798e-01 8.5716730070211222e-01
vn 5.1503807491005416e-01 6.3073972987761259e-17 8.5716730070211233e-01
vn 4.7583313587341380e-01 -1.9709653830528776e-01 8.5716730070211222e-01
vn 1.9709653830528767e-01 -4.7583313587341380e-01 8.5716730070211222e-01
vn -3.6418691533816427e-01 -3.6418691533816427e-01 8.5716730070211222e-01
vn -5.1503807491005404e-01 -0.0000000000000000e+00 8.5716730070211222e-01
vn -1.9709653830528792e-01 4.7583313587341369e-01 8.5716730070211222e-01
vn 1.9709653830528789e-01 4.7583313587341369e-01 8.5716730070211222e-01
vn -9.2387953251128663e-01 -3.8268343236509034e-01 -0.0000000000000000e+00
vn -1.0000000000000000e+00 -0.0000000000000000e+00 -0.0000000000000000e+00
vn -9.2387953251128663e-01 3.8268343236509034e-01 0.0000000000000000e+00
vn -7.0710678118654779e-01 7.0710678118654735e-01 0.0000000000000000e+00
vn -3.8268343236508989e-01 9.2387953251128674e-01 0.0000000000000000e+00
vn -6.1232339957367660e-17 1.0000000000000000e+00 0.0000000000000000e+00
vn 3.8268343236508973e-01 9.2387953251128674e-01 0.0000000000000000e+00
vn 7.0710678118654791e-01 7.0710678118654735e-01 0.0000000000000000e+00
vn 9.2387953251128663e-01 3.8268343236509028e-01 0.0000000000000000e+00
vn 1.0000000000000000e+00 1.2246467991473532e-16 0.0000000000000000e+00
vn 1.0000000000000000e+00 -1.2246467991473532e-16 0.0000000000000000e+00
vn 9.2387953251128663e-01 -3.8268343236509028e-01 0.0000000000000000e+00
vn 7.0710678118654791e-01 -7.0710678118654735e-01 0.0000000000000000e+00
vn 3.8268343236509034e-01 -9.2387953251128663e-01 0.0000000000000000e+00
vn 3.8285686989269494e-16 -1.0000000000000000e+00 0.0000000000000000e+00
vn -3.8268343236509006e-01 -9.2387953251128674e-01 -0.0000000000000000e+00
vn -7.0710678118654757e-01 -7.0710678118654757e-01 -0.0000000000000000e+00
vn 9.2387953251128652e-01 3.8268343236509028e-01 -0.0000000000000000e+00
vn 9.2387953251128652e-01 -3.8268343236509028e-01 0.0000000000000000e+00
vn 7.0710678118654757e-01 -7.0710678118654757e-01 0.0000000000000000e+00
vn 3.8268343236508973e-01 -9.2387953251128674e-01 0.0000000000000000e+00
vn -6.1232339957367660e-17 -1.0000000000000000e+00 0.0000000000000000e+00
vn -3.8268343236508984e-01 -9.2387953251128674e-01 0.0000000000000000e+00
vn -9.2387953251128707e-01 -3.8268343236508912e-01 0.0000000000000000e+00
vn -9.2387953251128707e-01 3.8268343236508912e-01 0.0000000000000000e+00
vn -7.0710678118654757e-01 7.0710678118654757e-01 0.0000000000000000e+00
vn -3.8268343236509050e-01 9.2387953251128652e-01 0.0000000000000000e+00
vn 7.0710678118654757e-01 7.0710678118654757e-01 -0.0000000000000000e+00
vn -9.8883082622512852e-01 1.4904226617617425e-01 -0.0000000000000000e+00
vn -1.0000000000000000e+00 1.2246467991473532e-16 -0.0000000000000000e+00
vn -1.0000000000000000e+00 -1.2246467991473532e-16 0.0000000000000000e+00
vn -9.8883082622512852e-01 -1.4904226617617472e-01 0.0000000000000000e+00
vn -9.5557280578614068e-01 -2.9475517441090421e-01 0.0000000000000000e+00
vn -9.0096886790241903e-01 -4.3388373911755829e-01 0.0000000000000000e+00
vn -8.2623877431599457e-01 -5.6332005806362218e-01 0.0000000000000000e+00
vn -7.3305187182982579e-01 -6.8017273777092002e-01 0.0000000000000000e+00
vn -6.2348980185873348e-01 -7.8183148246802991e-01 0.0000000000000000e+00
vn -4.9999999999999983e-01 -8.6602540378443871e-01 0.0000000000000000e+00
vn -3.6534102436639471e-01 -9.3087374864420436e-01 0.0000000000000000e+00
vn -2.2252093395631431e-01 -9.7492791218182362e-01 0.0000000000000000e+00
vn -7.4730093586424046e-02 -9.9720379718118013e-01 0.0000000000000000e+00
vn 7.4730093586424379e-02 -9.9720379718118013e-01 -0.0000000000000000e+00
vn 2.2252093395631445e-01 -9.7492791218182362e-01 -0.0000000000000000e+00
vn 3.6534102436639526e-01 -9.3087374864420425e-01 -0.0000000000000000e+00
vn 5.0000000000000022e-01 -8.6602540378443860e-01 -0.0000000000000000e+00
vn 6.2348980185873348e-01 -7.8183148246802969e-01 -0.0000000000000000e+00
vn 7.3305187182982634e-01 -6.8017273777091924e-01 -0.0000000000000000e+00
vn 8.2623877431599513e-01 -5.6332005806362162e-01 -0.0000000000000000e+00
vn 9.0096886790241915e-01 -4.3388373911755812e-01 -0.0000000000000000e+00
vn 9.5557280578614068e-01 -2.9475517441090399e-01 -0.0000000000000000e+00
vn 9.8883082622512875e-01 -1.4904226617617408e-01 -0.0000000000000000e+00
vn 1.0000000000000000e+00 -0.0000000000000000e+00 -0.0000000000000000e+00
vn 9.8883082622512852e-01 1.4904226617617453e-01 -0.0000000000000000e+00
vn 9.5557280578614068e-01 2.9475517441090449e-01 -0.0000000000000000e+00
vn 9.0096886790241915e-01 4.3388373911755812e-01 -0.0000000000000000e+00
vn 8.2623877431599480e-01 5.6332005806362218e-01 -0.0000000000000000e+00
vn 7.3305187182982590e-01 6.8017273777091969e-01 -0.0000000000000000e+00
vn 6.2348980185873348e-01 7.8183148246802969e-01 -0.0000000000000000e+00
vn 4.9999999999999944e-01 8.6602540378443893e-01 -0.0000000000000000e+00
vn 3.6534102436639482e-01 9.3087374864420436e-01 -0.0000000000000000e+00
vn 2.2252093395631445e-01 9.7492791218182362e-01 -0.0000000000000000e+00
vn 7.4730093586423726e-02 9.9720379718118013e-01 -0.0000000000000000e+00
vn -7.4730093586424476e-02 9.9720379718118013e-01 -0.0000000000000000e+00
vn -2.2252093395631431e-01 9.7492791218182362e-01 -0.0000000000000000e+00
vn -3.6534102436639543e-01 9.3087374864420402e-01 -0.0000000000000000e+00
vn -5.0000000000000022e-01 8.6602540378443860e-01 -0.0000000000000000e+00
vn -6.2348980185873348e-01 7.8183148246802991e-01 -0.0000000000000000e+00
vn -7.3305187182982667e-01 6.8017273777091902e-01 -0.0000000000000000e+00
vn -8.2623877431599502e-01 5.6332005806362173e-01 -0.0000000000000000e+00
vn -9.0096886790241903e-01 4.3388373911755829e-01 -0.0000000000000000e+00
vn -9.5557280578614090e-01 2.9475517441090376e-01 -0.0000000000000000e+00
vn 0.0000000000000000e+00 0.0000000000000000e+00 1.0000000000000000e+00
vn -0.0000000000000000e+00 -0.0000000000000000e+00 -1.0000000000000000e+00

g face 0
f 2//1 17//2 1//3
f 4//4 17//5 3//6
f 5//7 17//8 4//4
f 7//9 17//10 6//11
f 9//12 17//13 8//14
f 11//15 17//16 10//17
f 13//18 17//19 12//20
f 15//21 17//22 14//23
f 16//24 17//25 15//21
f 10//17 17//26 9//27
f 8//14 17//28 7//9
f 6//11 17//29 5//7
f 3//6 17//30 2//1
f 1//3 17//31 16//24
f 14//23 17//32 13//18
f 12//20 17//33 11//15

g face 1
f 19//34 2//34 18//35
f 18//35 2//34 1//35
f 18//35 1//35 33//36
f 33//36 1//35 16//36
f 33//36 16//36 32//37
f 32//37 16//36 15//37
f 32//37 15//37 31//38
f 31//38 15//37 14//38
f 31//38 14//38 30//39
f 30//39 14//38 13//39
f 30//39 13//39 29//40
f 29//40 13//39 12//40
f 29//40 12//40 28//41
f 28//41 12//40 11//41
f 28//41 11//41 27//42
f 27//42 11//41 10//42
f 27//42 10//42 26//43
f 26//43 10//42 9//43
f 26//44 9//44 25//45
f 25//45 9//44 8//45
f 25//45 8//45 24//46
f 24//46 8//45 7//46
f 24//46 7//46 23//47
f 23//47 7//46 6//47
f 23//47 6//47 22//48
f 22//48 6//47 5//48
f 22//48 5//48 21//49
f 21//49 5//48 4//49
f 21//49 4//49 20//50
f 20//50 4//49 3//50
f 20//50 3//50 19//34
f 19//34 3//50 2//34

g face 2
f 35//51 65//51 34//43
f 34//43 65//51 50//43
f 34//44 50//44 49//52
f 49//52 50//44 51//52
f 49//52 51//52 48//53
f 48//53 51//52 52//53
f 48//53 52//53 47//54
f 47//54 52//53 53//54
f 47//54 53//54 46//55
f 46//55 53//54 54//55
f 46//55 54//55 45//56
f 45//56 54//55 55//56
f 45//56 55//56 44//50
f 44//50 55//56 56//50
f 44//50 56//50 43//57
f 43//57 56//50 57//57
f 43//57 57//57 42//35
f 42//35 57//57 58//35
f 42//35 58//35 41//58
f 41//58 58//35 59//58
f 41//58 59//58 40//59
f 40//59 59//58 60//59
f 40//59 60//59 39//60
f 39//60 60//59 61//60
f 39//60 61//60 38//39
f 38//39 61//60 62//39
f 38//39 62//39 37//40
f 37//40 62//39 63//40
f 37//40 63//40 36//61
f 36//61 63//40 64//61
f 36//61 64//61 35//51
f 35//51 64//61 65//51

g face 3
f 67//62 149//62 66//63
f 66//63 149//62 108//63
f 66//64 108//64 107//65
f 107//65 108//64 109//65
f 107//65 109//65 106//66
f 106//66 109//65 110//66
f 106//66 110//66 105//67
f 105//67 110//66 111//67
f 105//67 111//67 104//68
f 104//68 111//67 112//68
f 104//68 112//68 103//69
f 103//69 112//68 113//69
f 103//69 113//69 102//70
f 102//70 113//69 114//70
f 102//70 114//70 101//71
f 101//71 114//70 115//71
f 101//71 115//71 100//72
f 100//72 115//71 116//72
f 100//72 116//72 99//73
f 99//73 116//72 117//73
f 99//73 117//73 98//74
f 98//74 117//73 118//74
f 98//74 118//74 97//75
f 97//75 118//74 119//75
f 97//75 119//75 96//76
f 96//76 119//75 120//76
f 96//76 120//76 95//77
f 95//77 120//76 121//77
f 95//77 121//77 94//78
f 94//78 121//77 122//78
f 94//78 122//78 93//79
f 93//79 122//78 123//79
f 93//79 123//79 92//80
f 92//80 123//79 124//80
f 92//80 124//80 91//81
f 91//81 124//80 125//81
f 91//81 125//81 90//82
f 90//82 125//81 126//82
f 90//82 126//82 89//83
f 89//83 126//82 127//83
f 89//83 127//83 88//84
f 88//84 127//83 128//84
f 88//84 128//84 87//85
f 87//85 128//84 129//85
f 87//85 129//85 86//86
f 86//86 129//85 130//86
f 86//86 130//86 85//87
f 85//87 130//86 131//87
f 85//87 131//87 84//88
f 84//88 131//87 132//88
f 84//88 132//88 83//89
f 83//89 132//88 133//89
f 83//89 133//89 82//90
f 82//90 133//89 134//90
f 82//90 134//90 81//91
f 81//91 134//90 135//91
f 81//91 135//91 80//92
f 80//92 135//91 136//92
f 80//92 136//92 79//93
f 79//93 136//92 137//93
f 79//93 137//93 78//94
f 78//94 137//93 138//94
f 78//94 138//94 77//95
f 77//95 138//94 139//95
f 77//95 139//95 76//96
f 76//96 139//95 140//96
f 76//96 140//96 75//97
f 75//97 140//96 141//97
f 75//97 141//97 74//98
f 74//98 141//97 142//98
f 74//98 142//98 73//99
f 73//99 142//98 143//99
f 73//99 143//99 72//100
f 72//100 143//99 144//100
f 72//100 144//100 71//101
f 71//101 144//100 145//101
f 71//101 145//101 70//102
f 70//102 145//101 146//102
f 70//102 146//102 69//103
f 69//103 146//102 147//103
f 69//103 147//103 68//104
f 68//104 147//103 148//104
f 68//104 148//104 67//62
f 67//62 148//104 149//62

g face 4
f 33//105 88//105 18//105
f 18//105 88//105 87//105
f 18//105 87//105 86//105
f 88//105 33//105 89//105
f 89//105 33//105 32//105
f 89//105 32//105 90//105
f 90//105 32//105 31//105
f 90//105 31//105 91//105
f 91//105 31//105 30//105
f 91//105 30//105 92//105
f 92//105 30//105 93//105
f 93//105 30//105 29//105
f 93//105 29//105 94//105
f 94//105 29//105 39//105
f 94//105 39//105 95//105
f 95//105 39//105 96//105
f 96//105 39//105 38//105
f 96//105 38//105 97//105
f 97//105 38//105 98//105
f 98//105 38//105 99//105
f 99//105 38//105 37//105
f 99//105 37//105 100//105
f 100//105 37//105 101//105
f 101//105 37//105 36//105
f 101//105 36//105 102//105
f 102//105 36//105 103//105
f 103//105 36//105 104//105
f 104//105 36//105 35//105
f 104//105 35//105 105//105
f 105//105 35//105 106//105
f 106//105 35//105 107//105
f 107//105 35//105 34//105
f 107//105 34//105 66//105
f 66//105 34//105 67//105
f 67//105 34//105 49//105
f 67//105 49//105 68//105
f 68//105 49//105 69//105
f 69//105 49//105 70//105
f 70//105 49//105 48//105
f 70//105 48//105 71//105
f 71//105 48//105 72//105
f 72//105 48//105 73//105
f 73//105 48//105 47//105
f 73//105 47//105 74//105
f 74//105 47//105 75//105
f 75//105 47//105 46//105
f 75//105 46//105 76//105
f 76//105 46//105 77//105
f 77//105 46//105 78//105
f 78//105 46//105 45//105
f 78//105 45//105 79//105
f 79//105 45//105 80//105
f 80//105 45//105 23//105
f 80//105 23//105 81//105
f 81//105 23//105 22//105
f 81//105 22//105 82//105
f 82//105 22//105 83//105
f 83//105 22//105 21//105
f 83//105 21//105 84//105
f 84//105 21//105 20//105
f 84//105 20//105 85//105
f 85//105 20//105 19//105
f 85//105 19//105 86//105
f 86//105 19//105 18//105
f 39//105 29//105 40//105
f 40//105 29//105 28//105
f 40//105 28//105 41//105
f 41//105 28//105 27//105
f 41//105 27//105 42//105
f 42//105 27//105 26//105
f 42//105 26//105 43//105
f 43//105 26//105 25//105
f 43//105 25//105 44//105
f 44//105 25//105 24//105
f 44//105 24//105 45//105
f 45//105 24//105 23//105

g face 5
f 65//106 109//106 50//106
f 50//106 109//106 108//106
f 50//106 108//106 149//106
f 64//106 112//106 65//106
f 65//106 112//106 111//106
f 65//106 111//106 110//106
f 63//106 115//106 64//106
f 64//106 115//106 114//106
f 64//106 114//106 113//106
f 62//106 117//106 63//106
f 63//106 117//106 116//106
f 63//106 116//106 115//106
f 61//106 120//106 62//106
f 62//106 120//106 119//106
f 62//106 119//106 118//106
f 60//106 122//106 61//106
f 61//106 122//106 121//106
f 61//106 121//106 120//106
f 59//106 125//106 60//106
f 60//106 125//106 124//106
f 60//106 124//106 123//106
f 58//106 128//106 59//106
f 59//106 128//106 127//106
f 59//106 127//106 126//106
f 57//106 130//106 58//106
f 58//106 130//106 129//106
f 58//106 129//106 128//106
f 56//106 133//106 57//106
f 57//106 133//106 132//106
f 57//106 132//106 131//106
f 55//106 136//106 56//106
f 56//106 136//106 135//106
f 56//106 135//106 134//106
f 54//106 138//106 55//106
f 55//106 138//106 137//106
f 55//106 137//106 136//106
f 53//106 141//106 54//106
f 54//106 141//106 140//106
f 54//106 140//106 139//106
f 52//106 143//106 53//106
f 53//106 143//106 142//106
f 53//106 142//106 141//106
f 51//106 146//106 52//106
f 52//106 146//106 145//106
f 52//106 145//106 144//106
f 50//106 149//106 51//106
f 51//106 149//106 148//106
f 51//106 148//106 147//106
f 147//106 146//106 51//106
f 144//106 143//106 52//106
f 139//106 138//106 54//106
f 134//106 133//106 56//106
f 131//106 130//106 57//106
f 126//106 125//106 59//106
f 123//106 122//106 60//106
f 118//106 117//106 62//106
f 113//106 112//106 64//106
f 110//106 109//106 65//106

g halfedge 0 edge 0
l 1 16 15 14 13 12 11 10 9 8 7 6 5 4 3 2 1

g halfedge 1 edge 0
l 1 2 3 4 5 6 7 8 9 10 11 12 13 14 15 16 1

g halfedge 2 edge 1
l

g halfedge 3 edge 2
l 18 33 32 31 30 29 28 27 26 25 24 23 22 21 20 19 18

g halfedge 4 edge 2
l 18 19 20 21 22 23 24 25 26 27 28 29 30 31 32 33 18

g halfedge 5 edge 3
l 34 35 36 37 38 39 40 41 42 43 44 45 46 47 48 49 34

g halfedge 6 edge 3
l 34 49 48 47 46 45 44 43 42 41 40 39 38 37 36 35 34

g halfedge 7 edge 4
l 50 51 52 53 54 55 56 57 58 59 60 61 62 63 64 65 50

g halfedge 8 edge 4
l 50 65 64 63 62 61 60 59 58 57 56 55 54 53 52 51 50

g halfedge 9 edge 5
l 66 67 68 69 70 71 72 73 74 75 76 77 78 79 80 81 82 83 84 85 86 87 88 89 90 91 92 93 94 95 96 97 98 99 100 101 102 103 104 105 106 107 66

g halfedge 10 edge 5
l 66 107 106 105 104 103 102 101 100 99 98 97 96 95 94 93 92 91 90 89 88 87 86 85 84 83 82 81 80 79 78 77 76 75 74 73 72 71 70 69 68 67 66

g halfedge 11 edge 6
l 108 109 110 111 112 113 114 115 116 117 118 119 120 121 122 123 124 125 126 127 128 129 130 131 132 133 134 135 136 137 138 139 140 141 142 143 144 145 146 147 148 149 108

g halfedge 12 edge 6
l 108 149 148 147 146 145 144 143 142 141 140 139 138 137 136 135 134 133 132 131 130 129 128 127 126 125 124 123 122 121 120 119 118 117 116 115 114 113 112 111 110 109 108

g vertex 0
p 1

g vertex 1
p 17

g vertex 2
p 18

g vertex 3
p 34

g vertex 4
p 50

g vertex 5
p 66

g vertex 6
p 108

# End of file
