# WaveFront *.obj file
# Vertices: 136
# Triangles : 272

v 4.2862500000000523e+00 1.0001249999999965e+01 1.1906249999997873e+00
v 4.2649815328508325e+00 1.0080624999999966e+01 1.1906249999997884e+00
v 4.2068750000000525e+00 1.0138731532850745e+01 1.1906249999997911e+00
v 4.1275000000000528e+00 1.0159999999999965e+01 1.1906249999997951e+00
v 4.0481250000000530e+00 1.0138731532850745e+01 1.1906249999997991e+00
v 3.9900184671492731e+00 1.0080624999999966e+01 1.1906249999998018e+00
v 3.9687500000000528e+00 1.0001249999999965e+01 1.1906249999998029e+00
v 3.9900184671492731e+00 9.9218749999999645e+00 1.1906249999998018e+00
v 4.0481250000000530e+00 9.8637684671491854e+00 1.1906249999997991e+00
v 4.1275000000000528e+00 9.8424999999999656e+00 1.1906249999997951e+00
v 4.2068750000000525e+00 9.8637684671491854e+00 1.1906249999997911e+00
v 4.2649815328508325e+00 9.9218749999999645e+00 1.1906249999997884e+00
v 4.1275000000000475e+00 1.0001249999999965e+01 1.0952383767291698e+00
v 4.2862500000000878e+00 1.0001249999999965e+01 1.9049999999997873e+00
v 4.2649815328508671e+00 1.0080624999999966e+01 1.9049999999997906e+00
v 4.2068750000000872e+00 1.0138731532850745e+01 1.9049999999997933e+00
v 4.1275000000000874e+00 1.0159999999999965e+01 1.9049999999997973e+00
v 4.0481250000000877e+00 1.0138731532850745e+01 1.9049999999998013e+00
v 3.9900184671493077e+00 1.0080624999999966e+01 1.9049999999998040e+00
v 3.9687500000000875e+00 1.0001249999999965e+01 1.9049999999998051e+00
v 3.9900184671493077e+00 9.9218749999999645e+00 1.9049999999998040e+00
v 4.0481250000000877e+00 9.8637684671491854e+00 1.9049999999998013e+00
v 4.1275000000000874e+00 9.8424999999999656e+00 1.9049999999997973e+00
v 4.2068750000000872e+00 9.8637684671491854e+00 1.9049999999997933e+00
v 4.2649815328508671e+00 9.9218749999999645e+00 1.9049999999997906e+00
v 4.2862500000000496e+00 1.2858749999999953e+01 1.1906249999997853e+00
v 4.2649815328508298e+00 1.2938124999999953e+01 1.1906249999997864e+00
v 4.2068750000000499e+00 1.2996231532850732e+01 1.1906249999997891e+00
v 4.1275000000000501e+00 1.3017499999999952e+01 1.1906249999997931e+00
v 4.0481250000000504e+00 1.2996231532850732e+01 1.1906249999997971e+00
v 3.9900184671492704e+00 1.2938124999999953e+01 1.1906249999997998e+00
v 3.9687500000000502e+00 1.2858749999999953e+01 1.1906249999998009e+00
v 3.9900184671492704e+00 1.2779374999999952e+01 1.1906249999997998e+00
v 4.0481250000000504e+00 1.2721268467149173e+01 1.1906249999997971e+00
v 4.1275000000000501e+00 1.2699999999999953e+01 1.1906249999997931e+00
v 4.2068750000000499e+00 1.2721268467149173e+01 1.1906249999997891e+00
v 4.2649815328508298e+00 1.2779374999999952e+01 1.1906249999997864e+00
v 4.1275000000000448e+00 1.2858749999999953e+01 1.0952383767291678e+00
v 4.2862500000000852e+00 1.2858749999999953e+01 1.9049999999997853e+00
v 4.2649815328508645e+00 1.2938124999999953e+01 1.9049999999997906e+00
v 4.2068750000000845e+00 1.2996231532850732e+01 1.9049999999997933e+00
v 4.1275000000000848e+00 1.3017499999999952e+01 1.9049999999997973e+00
v 4.0481250000000850e+00 1.2996231532850732e+01 1.9049999999998013e+00
v 3.9900184671493051e+00 1.2938124999999953e+01 1.9049999999998040e+00
v 3.9687500000000848e+00 1.2858749999999953e+01 1.9049999999998051e+00
v 3.9900184671493051e+00 1.2779374999999952e+01 1.9049999999998040e+00
v 4.0481250000000850e+00 1.2721268467149173e+01 1.9049999999998013e+00
v 4.1275000000000848e+00 1.2699999999999953e+01 1.9049999999997973e+00
v 4.2068750000000845e+00 1.2721268467149173e+01 1.9049999999997933e+00
v 4.2649815328508645e+00 1.2779374999999952e+01 1.9049999999997906e+00
v 3.8011099999999978e+00 5.5562499999999808e+00 -1.8659288057146700e-13
v 3.8448379684587950e+00 5.7194449999999808e+00 -1.8873953160179710e-13
v 3.9643049999999977e+00 5.8389120315411835e+00 -1.9460429128277903e-13
v 4.1274999999999977e+00 5.8826399999999808e+00 -2.0261570199409107e-13
v 4.2906949999999977e+00 5.8389120315411835e+00 -2.1062711270540310e-13
v 4.4101620315412005e+00 5.7194449999999808e+00 -2.1649187238638504e-13
v 4.4538899999999977e+00 5.5562499999999808e+00 -2.1863852341671514e-13
v 4.4101620315412005e+00 5.3930549999999808e+00 -2.1649187238638504e-13
v 4.2906949999999977e+00 5.2735879684587781e+00 -2.1062711270540310e-13
v 4.1274999999999977e+00 5.2298599999999809e+00 -2.0261570199409107e-13
v 3.9643049999999977e+00 5.2735879684587781e+00 -1.9460429128277903e-13
v 3.8448379684587950e+00 5.3930549999999808e+00 -1.8873953160179710e-13
v 4.4538900000000909e+00 5.5562499999999808e+00 1.9049999999997822e+00
v 4.4101620315412937e+00 5.7194449999999808e+00 1.9049999999997835e+00
v 4.2906950000000910e+00 5.8389120315411835e+00 1.9049999999997893e+00
v 4.1275000000000910e+00 5.8826399999999808e+00 1.9049999999997973e+00
v 3.9643050000000910e+00 5.8389120315411835e+00 1.9049999999998053e+00
v 3.8448379684588878e+00 5.7194449999999808e+00 1.9049999999998111e+00
v 3.8011100000000910e+00 5.5562499999999808e+00 1.9049999999998133e+00
v 3.8448379684588883e+00 5.3930549999999808e+00 1.9049999999998111e+00
v 3.9643050000000910e+00 5.2735879684587781e+00 1.9049999999998053e+00
v 4.1275000000000910e+00 5.2298599999999809e+00 1.9049999999997973e+00
v 4.2906950000000910e+00 5.2735879684587781e+00 1.9049999999997893e+00
v 4.4101620315412937e+00 5.3930549999999808e+00 1.9049999999997835e+00
v 1.5875000000000441e+00 7.9374999999999996e-01 7.1437499999993270e-01
v 1.6668750000000441e+00 7.9374999999999996e-01 7.3564346714915307e-01
v 1.7249815328508238e+00 7.9374999999999996e-01 7.9374999999993279e-01
v 1.7462500000000440e+00 7.9374999999999996e-01 8.7312499999993265e-01
v 1.7249815328508238e+00 7.9374999999999996e-01 9.5249999999993273e-01
v 1.6668750000000441e+00 7.9374999999999996e-01 1.0106065328507123e+00
v 1.5875000000000441e+00 7.9374999999999996e-01 1.0318749999999326e+00
v 1.5081250000000441e+00 7.9374999999999996e-01 1.0106065328507123e+00
v 1.4500184671492644e+00 7.9374999999999996e-01 9.5249999999993262e-01
v 1.4287500000000442e+00 7.9374999999999996e-01 8.7312499999993265e-01
v 1.4500184671492644e+00 7.9374999999999996e-01 7.9374999999993268e-01
v 1.5081250000000441e+00 7.9374999999999996e-01 7.3564346714915296e-01
v 1.5875000000000441e+00 8.8913662327062526e-01 8.7312499999993265e-01
v 1.5875000000000441e+00 0.0000000000000000e+00 7.1437499999993270e-01
v 1.6668750000000441e+00 0.0000000000000000e+00 7.3564346714915307e-01
v 1.7249815328508238e+00 0.0000000000000000e+00 7.9374999999993279e-01
v 1.7462500000000440e+00 0.0000000000000000e+00 8.7312499999993265e-01
v 1.7249815328508238e+00 0.0000000000000000e+00 9.5249999999993273e-01
v 1.6668750000000441e+00 0.0000000000000000e+00 1.0106065328507123e+00
v 1.5875000000000441e+00 0.0000000000000000e+00 1.0318749999999326e+00
v 1.5081250000000441e+00 0.0000000000000000e+00 1.0106065328507123e+00
v 1.4500184671492644e+00 0.0000000000000000e+00 9.5249999999993262e-01
v 1.4287500000000442e+00 0.0000000000000000e+00 8.7312499999993265e-01
v 1.4500184671492644e+00 0.0000000000000000e+00 7.9374999999993268e-01
v 1.5081250000000441e+00 0.0000000000000000e+00 7.3564346714915296e-01
v 6.6675000000000439e+00 7.9374999999999996e-01 7.1437499999967535e-01
v 6.7468750000000437e+00 7.9374999999999996e-01 7.3564346714889572e-01
v 6.8049815328508236e+00 7.9374999999999996e-01 7.9374999999967544e-01
v 6.8262500000000443e+00 7.9374999999999996e-01 8.7312499999967530e-01
v 6.8049815328508236e+00 7.9374999999999996e-01 9.5249999999967538e-01
v 6.7468750000000437e+00 7.9374999999999996e-01 1.0106065328504550e+00
v 6.6675000000000439e+00 7.9374999999999996e-01 1.0318749999996752e+00
v 6.5881250000000442e+00 7.9374999999999996e-01 1.0106065328504550e+00
v 6.5300184671492643e+00 7.9374999999999996e-01 9.5249999999967527e-01
v 6.5087500000000436e+00 7.9374999999999996e-01 8.7312499999967530e-01
v 6.5300184671492643e+00 7.9374999999999996e-01 7.9374999999967533e-01
v 6.5881250000000442e+00 7.9374999999999996e-01 7.3564346714889561e-01
v 6.6675000000000439e+00 8.8913662327062526e-01 8.7312499999967530e-01
v 6.6675000000000439e+00 0.0000000000000000e+00 7.1437499999967535e-01
v 6.7468750000000437e+00 0.0000000000000000e+00 7.3564346714889572e-01
v 6.8049815328508236e+00 0.0000000000000000e+00 7.9374999999967544e-01
v 6.8262500000000443e+00 0.0000000000000000e+00 8.7312499999967530e-01
v 6.8049815328508236e+00 0.0000000000000000e+00 9.5249999999967538e-01
v 6.7468750000000437e+00 0.0000000000000000e+00 1.0106065328504550e+00
v 6.6675000000000439e+00 0.0000000000000000e+00 1.0318749999996752e+00
v 6.5881250000000442e+00 0.0000000000000000e+00 1.0106065328504550e+00
v 6.5300184671492643e+00 0.0000000000000000e+00 9.5249999999967527e-01
v 6.5087500000000436e+00 0.0000000000000000e+00 8.7312499999967530e-01
v 6.5300184671492643e+00 0.0000000000000000e+00 7.9374999999967533e-01
v 6.5881250000000442e+00 0.0000000000000000e+00 7.3564346714889561e-01
v 8.2550000000000878e+00 1.3970000000000001e+01 1.7462499999995948e+00
v 8.6039461649320847e-14 1.3970000000000001e+01 1.7462500000000003e+00
v 1.5875000000009409e-01 1.3811250000000001e+01 1.9049999999999920e+00
v 8.0962500000000954e+00 1.3811250000000001e+01 1.9049999999996026e+00
v 8.6039461649320847e-14 0.0000000000000000e+00 1.7462500000000003e+00
v 1.5875000000009409e-01 0.0000000000000000e+00 1.9049999999999920e+00
v 8.0962500000000954e+00 0.0000000000000000e+00 1.9049999999996026e+00
v 8.2550000000000878e+00 0.0000000000000000e+00 1.7462499999995948e+00
v 0.0000000000000000e+00 0.0000000000000000e+00 0.0000000000000000e+00
v 8.2550000000000008e+00 0.0000000000000000e+00 -4.0523140398818214e-13
v 0.0000000000000000e+00 1.3970000000000001e+01 0.0000000000000000e+00
v 8.2550000000000008e+00 1.3970000000000001e+01 -4.0523140398818214e-13

vn -4.4603605678829683e-01 -2.5751903745502802e-01 8.5716730070213421e-01
vn -4.4603605678829733e-01 -2.5751903745502713e-01 8.5716730070213409e-01
vn -5.1503807491001208e-01 0.0000000000000000e+00 8.5716730070213765e-01
vn 4.1018436224605388e-14 -5.1503807491005416e-01 8.5716730070211233e-01
vn 4.2047689057388149e-14 -5.1503807491005404e-01 8.5716730070211222e-01
vn -2.5751903745498494e-01 -4.4603605678833952e-01 8.5716730070212499e-01
vn 4.4603605678838054e-01 -2.5751903745502897e-01 8.5716730070209046e-01
vn 4.4603605678838165e-01 -2.5751903745502697e-01 8.5716730070209035e-01
vn 2.5751903745506766e-01 -4.4603605678834046e-01 8.5716730070209968e-01
vn 4.4603605678838054e-01 2.5751903745502897e-01 8.5716730070209046e-01
vn 4.4603605678838149e-01 2.5751903745502719e-01 8.5716730070209035e-01
vn 5.1503807491009623e-01 6.3073972987761259e-17 8.5716730070208702e-01
vn 4.1018436224605388e-14 5.1503807491005416e-01 8.5716730070211233e-01
vn 4.2047689057388149e-14 5.1503807491005404e-01 8.5716730070211222e-01
vn 2.5751903745506766e-01 4.4603605678834046e-01 8.5716730070209968e-01
vn -4.4603605678829683e-01 2.5751903745502802e-01 8.5716730070213421e-01
vn -4.4603605678829750e-01 2.5751903745502691e-01 8.5716730070213409e-01
vn -2.5751903745498494e-01 4.4603605678833952e-01 8.5716730070212499e-01
vn 5.1503807491009623e-01 -6.3073972987761259e-17 8.5716730070208702e-01
vn 5.1503807491009612e-01 -6.3073972987761234e-17 8.5716730070208691e-01
vn -2.5751903745498489e-01 -4.4603605678833957e-01 8.5716730070212488e-01
vn -2.5751903745498489e-01 4.4603605678833957e-01 8.5716730070212488e-01
vn 2.5751903745506921e-01 -4.4603605678833946e-01 8.5716730070209957e-01
vn -5.1503807491001197e-01 -0.0000000000000000e+00 8.5716730070213754e-01
vn 2.5751903745506877e-01 4.4603605678833969e-01 8.5716730070209957e-01
vn -8.6602540378443738e-01 -5.0000000000000222e-01 4.2514079451864175e-14
vn -8.6602540378443793e-01 -5.0000000000000111e-01 4.2514079451864207e-14
vn -1.0000000000000000e+00 0.0000000000000000e+00 4.9091030431765907e-14
vn -8.6602540378443738e-01 5.0000000000000222e-01 4.2514079451864175e-14
vn -8.6602540378443793e-01 5.0000000000000111e-01 4.2514079451864207e-14
vn -4.9999999999999972e-01 8.6602540378443882e-01 2.4545515215882941e-14
vn -5.0000000000000178e-01 8.6602540378443760e-01 2.4545515215883039e-14
vn -1.3934999695075554e-15 1.0000000000000000e+00 6.8408349409760269e-29
vn -4.0580352286079311e-15 1.0000000000000000e+00 1.9921313090077006e-28
vn 4.9999999999999750e-01 8.6602540378444015e-01 -2.4545515215882834e-14
vn 4.9999999999999550e-01 8.6602540378444126e-01 -2.4545515215882739e-14
vn 8.6602540378443671e-01 5.0000000000000344e-01 -4.2514079451864144e-14
vn 8.6602540378443604e-01 5.0000000000000455e-01 -4.2514079451864112e-14
vn 1.0000000000000000e+00 1.2246467991473532e-16 -4.9091030431765907e-14
vn 1.0000000000000000e+00 -1.2246467991473532e-16 -4.9091030431765907e-14
vn 8.6602540378443671e-01 -5.0000000000000344e-01 -4.2514079451864144e-14
vn 8.6602540378443604e-01 -5.0000000000000455e-01 -4.2514079451864112e-14
vn 4.9999999999999750e-01 -8.6602540378444015e-01 -2.4545515215882834e-14
vn 4.9999999999999550e-01 -8.6602540378444126e-01 -2.4545515215882739e-14
vn -1.3934999695075554e-15 -1.0000000000000000e+00 6.8408349409760269e-29
vn -4.0580352286079311e-15 -1.0000000000000000e+00 1.9921313090077006e-28
vn -4.9999999999999972e-01 -8.6602540378443882e-01 2.4545515215882941e-14
vn -5.0000000000000178e-01 -8.6602540378443760e-01 2.4545515215883039e-14
vn 8.6602540378443826e-01 -5.0000000000000067e-01 -4.2514079451864213e-14
vn 8.6602540378443871e-01 -4.9999999999999989e-01 -4.2514079451864232e-14
vn 8.6602540378443826e-01 5.0000000000000067e-01 -4.2514079451864213e-14
vn 8.6602540378443837e-01 5.0000000000000033e-01 -4.2514079451864220e-14
vn 4.9999999999999900e-01 8.6602540378443915e-01 -2.4545515215882903e-14
vn 4.9999999999999972e-01 8.6602540378443871e-01 -2.4545515215882938e-14
vn -1.3934999695075554e-15 1.0000000000000000e+00 6.8408349409760257e-29
vn -5.0532154980743029e-16 1.0000000000000000e+00 2.4806755579423674e-29
vn -5.0000000000000122e-01 8.6602540378443793e-01 2.4545515215883007e-14
vn -5.0000000000000067e-01 8.6602540378443826e-01 2.4545515215882982e-14
vn -8.6602540378443882e-01 4.9999999999999961e-01 4.2514079451864245e-14
vn -8.6602540378443871e-01 4.9999999999999989e-01 4.2514079451864232e-14
vn -8.6602540378443882e-01 -4.9999999999999961e-01 4.2514079451864245e-14
vn -8.6602540378443871e-01 -4.9999999999999989e-01 4.2514079451864232e-14
vn -5.0000000000000122e-01 -8.6602540378443793e-01 2.4545515215883007e-14
vn -5.0000000000000067e-01 -8.6602540378443826e-01 2.4545515215882982e-14
vn -1.3934999695075554e-15 -1.0000000000000000e+00 6.8408349409760257e-29
vn -5.0532154980743029e-16 -1.0000000000000000e+00 2.4806755579423674e-29
vn 4.9999999999999900e-01 -8.6602540378443915e-01 -2.4545515215882903e-14
vn 4.9999999999999972e-01 -8.6602540378443871e-01 -2.4545515215882938e-14
vn -2.5751903745502708e-01 -8.5716730070211233e-01 4.4603605678833957e-01
vn -2.5751903745502713e-01 -8.5716730070211222e-01 4.4603605678833941e-01
vn 0.0000000000000000e+00 -8.5716730070211233e-01 5.1503807491005416e-01
vn -5.1503807491005416e-01 -8.5716730070211233e-01 3.1536986493880629e-17
vn -5.1503807491005404e-01 -8.5716730070211222e-01 3.1536986493880617e-17
vn -4.4603605678833985e-01 -8.5716730070211222e-01 2.5751903745502663e-01
vn -2.5751903745502680e-01 -8.5716730070211244e-01 -4.4603605678833969e-01
vn -2.5751903745502697e-01 -8.5716730070211222e-01 -4.4603605678833957e-01
vn -4.4603605678833941e-01 -8.5716730070211233e-01 -2.5751903745502713e-01
vn 2.5751903745502680e-01 -8.5716730070211244e-01 -4.4603605678833969e-01
vn 2.5751903745502719e-01 -8.5716730070211222e-01 -4.4603605678833941e-01
vn 6.3073972987761259e-17 -8.5716730070211233e-01 -5.1503807491005416e-01
vn 5.1503807491005416e-01 -8.5716730070211233e-01 3.1536986493880629e-17
vn 5.1503807491005404e-01 -8.5716730070211222e-01 3.1536986493880617e-17
vn 4.4603605678833957e-01 -8.5716730070211233e-01 -2.5751903745502686e-01
vn 2.5751903745502686e-01 -8.5716730070211233e-01 4.4603605678833957e-01
vn 2.5751903745502691e-01 -8.5716730070211222e-01 4.4603605678833957e-01
vn 4.4603605678833957e-01 -8.5716730070211233e-01 2.5751903745502686e-01
vn -6.3073972987761259e-17 -8.5716730070211233e-01 -5.1503807491005416e-01
vn -6.3073972987761234e-17 -8.5716730070211222e-01 -5.1503807491005404e-01
vn -4.4603605678833957e-01 -8.5716730070211222e-01 2.5751903745502697e-01
vn 4.4603605678833957e-01 -8.5716730070211222e-01 2.5751903745502697e-01
vn -4.4603605678833946e-01 -8.5716730070211222e-01 -2.5751903745502713e-01
vn -0.0000000000000000e+00 -8.5716730070211222e-01 5.1503807491005404e-01
vn 4.4603605678833969e-01 -8.5716730070211222e-01 -2.5751903745502669e-01
vn -5.0000000000000000e-01 0.0000000000000000e+00 8.6602540378443860e-01
vn 0.0000000000000000e+00 -0.0000000000000000e+00 1.0000000000000000e+00
vn 4.9999999999999972e-01 -0.0000000000000000e+00 8.6602540378443882e-01
vn 8.6602540378443882e-01 -0.0000000000000000e+00 4.9999999999999972e-01
vn 1.0000000000000000e+00 -0.0000000000000000e+00 6.1232339957367660e-17
vn 8.6602540378443882e-01 0.0000000000000000e+00 -4.9999999999999972e-01
vn 4.9999999999999961e-01 0.0000000000000000e+00 -8.6602540378443893e-01
vn 1.2246467991473532e-16 0.0000000000000000e+00 -1.0000000000000000e+00
vn -1.2246467991473532e-16 0.0000000000000000e+00 -1.0000000000000000e+00
vn -4.9999999999999961e-01 0.0000000000000000e+00 -8.6602540378443893e-01
vn -8.6602540378443849e-01 0.0000000000000000e+00 -5.0000000000000022e-01
vn -1.0000000000000000e+00 0.0000000000000000e+00 6.1232339957367660e-17
vn -8.6602540378443915e-01 0.0000000000000000e+00 4.9999999999999917e-01
vn -2.5751903745502652e-01 -8.5716730070211233e-01 4.4603605678833991e-01
vn -5.1503807491005404e-01 -8.5716730070211222e-01 3.1536986493880623e-17
vn -2.5751903745502647e-01 -8.5716730070211233e-01 -4.4603605678833996e-01
vn 2.5751903745502647e-01 -8.5716730070211233e-01 -4.4603605678833996e-01
vn 5.1503807491005404e-01 -8.5716730070211222e-01 3.1536986493880623e-17
vn 2.5751903745502647e-01 -8.5716730070211233e-01 4.4603605678833996e-01
vn -4.9999999999999895e-01 0.0000000000000000e+00 8.6602540378443926e-01
vn 4.9999999999999867e-01 -0.0000000000000000e+00 8.6602540378443937e-01
vn 4.9999999999999878e-01 0.0000000000000000e+00 -8.6602540378443937e-01
vn -4.9999999999999878e-01 0.0000000000000000e+00 -8.6602540378443937e-01
vn 3.4712600513736788e-14 7.0710678118654857e-01 7.0710678118654657e-01
vn -7.0710678118651116e-01 0.0000000000000000e+00 7.0710678118658399e-01
vn 7.0710678118658166e-01 -0.0000000000000000e+00 7.0710678118651338e-01
vn -0.0000000000000000e+00 -1.0000000000000000e+00 -0.0000000000000000e+00
vn -0.0000000000000000e+00 1.0000000000000000e+00 -0.0000000000000000e+00
vn 4.9091030431765907e-14 0.0000000000000000e+00 1.0000000000000000e+00
vn -4.9091030431765907e-14 -0.0000000000000000e+00 -1.0000000000000000e+00
vn 1.0000000000000000e+00 -0.0000000000000000e+00 -4.9091030431765907e-14

g face 0
f 2//1 13//2 1//3
f 4//4 13//5 3//6
f 6//7 13//8 5//9
f 8//10 13//11 7//12
f 10//13 13//14 9//15
f 12//16 13//17 11//18
f 7//19 13//20 6//7
f 3//6 13//21 2//1
f 11//18 13//22 10//13
f 5//9 13//23 4//4
f 1//3 13//24 12//16
f 9//15 13//25 8//10

g face 1
f 15//26 2//27 14//28
f 14//28 2//27 1//28
f 14//28 1//28 25//29
f 25//29 1//28 12//30
f 25//29 12//30 24//31
f 24//31 12//30 11//32
f 24//31 11//32 23//33
f 23//33 11//32 10//34
f 23//33 10//34 22//35
f 22//35 10//34 9//36
f 22//35 9//36 21//37
f 21//37 9//36 8//38
f 21//37 8//38 20//39
f 20//39 8//38 7//39
f 20//40 7//40 19//41
f 19//41 7//40 6//42
f 19//41 6//42 18//43
f 18//43 6//42 5//44
f 18//43 5//44 17//45
f 17//45 5//44 4//46
f 17//45 4//46 16//47
f 16//47 4//46 3//48
f 16//47 3//48 15//26
f 15//26 3//48 2//27

g face 2
f 27//1 38//2 26//3
f 29//4 38//5 28//6
f 31//7 38//8 30//9
f 33//10 38//11 32//12
f 35//13 38//14 34//15
f 37//16 38//17 36//18
f 32//19 38//20 31//7
f 28//6 38//21 27//1
f 36//18 38//22 35//13
f 30//9 38//23 29//4
f 26//3 38//24 37//16
f 34//15 38//25 33//10

g face 3
f 40//26 27//27 39//28
f 39//28 27//27 26//28
f 39//28 26//28 50//29
f 50//29 26//28 37//30
f 50//29 37//30 49//31
f 49//31 37//30 36//32
f 49//31 36//32 48//33
f 48//33 36//32 35//34
f 48//33 35//34 47//35
f 47//35 35//34 34//36
f 47//35 34//36 46//37
f 46//37 34//36 33//38
f 46//37 33//38 45//39
f 45//39 33//38 32//39
f 45//40 32//40 44//41
f 44//41 32//40 31//42
f 44//41 31//42 43//43
f 43//43 31//42 30//44
f 43//43 30//44 42//45
f 42//45 30//44 29//46
f 42//45 29//46 41//47
f 41//47 29//46 28//48
f 41//47 28//48 40//26
f 40//26 28//48 27//27

g face 4
f 52//49 68//50 51//40
f 51//40 68//50 69//40
f 51//39 69//39 62//51
f 62//51 69//39 70//52
f 62//51 70//52 61//53
f 61//53 70//52 71//54
f 61//53 71//54 60//55
f 60//55 71//54 72//56
f 60//55 72//56 59//57
f 59//57 72//56 73//58
f 59//57 73//58 58//59
f 58//59 73//58 74//60
f 58//59 74//60 57//28
f 57//28 74//60 63//28
f 57//28 63//28 56//61
f 56//61 63//28 64//62
f 56//61 64//62 55//63
f 55//63 64//62 65//64
f 55//63 65//64 54//65
f 54//65 65//64 66//66
f 54//65 66//66 53//67
f 53//67 66//66 67//68
f 53//67 67//68 52//49
f 52//49 67//68 68//50

g face 5
f 76//69 87//70 75//71
f 78//72 87//73 77//74
f 80//75 87//76 79//77
f 82//78 87//79 81//80
f 84//81 87//82 83//83
f 86//84 87//85 85//86
f 81//87 87//88 80//75
f 77//74 87//89 76//69
f 85//86 87//90 84//81
f 79//77 87//91 78//72
f 75//71 87//92 86//84
f 83//83 87//93 82//78

g face 6
f 89//94 76//94 88//95
f 88//95 76//94 75//95
f 88//95 75//95 99//96
f 99//96 75//95 86//96
f 99//96 86//96 98//97
f 98//97 86//96 85//97
f 98//97 85//97 97//98
f 97//98 85//97 84//98
f 97//98 84//98 96//99
f 96//99 84//98 83//99
f 96//99 83//99 95//100
f 95//100 83//99 82//100
f 95//100 82//100 94//101
f 94//101 82//100 81//101
f 94//102 81//102 93//103
f 93//103 81//102 80//103
f 93//103 80//103 92//104
f 92//104 80//103 79//104
f 92//104 79//104 91//105
f 91//105 79//104 78//105
f 91//105 78//105 90//106
f 90//106 78//105 77//106
f 90//106 77//106 89//94
f 89//94 77//106 76//94

g face 7
f 101//107 112//70 100//71
f 103//108 112//73 102//74
f 105//109 112//76 104//77
f 107//110 112//79 106//80
f 109//111 112//82 108//83
f 111//112 112//85 110//86
f 106//87 112//88 105//109
f 102//74 112//89 101//107
f 110//86 112//90 109//111
f 104//77 112//91 103//108
f 100//71 112//92 111//112
f 108//83 112//93 107//110

g face 8
f 114//113 101//113 113//95
f 113//95 101//113 100//95
f 113//95 100//95 124//114
f 124//114 100//95 111//114
f 124//114 111//114 123//97
f 123//97 111//114 110//97
f 123//97 110//97 122//98
f 122//98 110//97 109//98
f 122//98 109//98 121//99
f 121//99 109//98 108//99
f 121//99 108//99 120//115
f 120//115 108//99 107//115
f 120//115 107//115 119//101
f 119//101 107//115 106//101
f 119//102 106//102 118//116
f 118//116 106//102 105//116
f 118//116 105//116 117//104
f 117//104 105//116 104//104
f 117//104 104//104 116//105
f 116//105 104//104 103//105
f 116//105 103//105 115//106
f 115//106 103//105 102//106
f 115//106 102//106 114//113
f 114//113 102//106 101//113

g face 9
f 125//117 126//117 128//117
f 128//117 126//117 127//117

g face 10
f 126//118 129//118 127//118
f 127//118 129//118 130//118

g face 11
f 131//119 132//119 128//119
f 128//119 132//119 125//119

g face 12
f 99//120 133//120 88//120
f 88//120 133//120 134//120
f 88//120 134//120 113//120
f 113//120 134//120 114//120
f 114//120 134//120 115//120
f 115//120 134//120 116//120
f 116//120 134//120 132//120
f 116//120 132//120 117//120
f 117//120 132//120 118//120
f 118//120 132//120 119//120
f 119//120 132//120 131//120
f 119//120 131//120 94//120
f 94//120 131//120 130//120
f 94//120 130//120 129//120
f 99//120 98//120 133//120
f 133//120 98//120 97//120
f 133//120 97//120 129//120
f 129//120 97//120 96//120
f 129//120 96//120 95//120
f 95//120 94//120 129//120
f 119//120 94//120 120//120
f 120//120 94//120 93//120
f 120//120 93//120 92//120
f 120//120 92//120 121//120
f 121//120 92//120 91//120
f 121//120 91//120 122//120
f 122//120 91//120 123//120
f 123//120 91//120 90//120
f 123//120 90//120 124//120
f 124//120 90//120 89//120
f 124//120 89//120 88//120
f 113//120 124//120 88//120

g face 13
f 126//28 135//28 129//28
f 129//28 135//28 133//28

g face 14
f 125//121 136//121 126//121
f 126//121 136//121 135//121

g face 15
f 25//122 64//122 14//122
f 14//122 64//122 128//122
f 14//122 128//122 39//122
f 39//122 128//122 40//122
f 40//122 128//122 41//122
f 41//122 128//122 42//122
f 42//122 128//122 127//122
f 42//122 127//122 43//122
f 43//122 127//122 44//122
f 44//122 127//122 45//122
f 45//122 127//122 20//122
f 45//122 20//122 46//122
f 46//122 20//122 19//122
f 46//122 19//122 47//122
f 47//122 19//122 18//122
f 47//122 18//122 48//122
f 48//122 18//122 17//122
f 48//122 17//122 49//122
f 49//122 17//122 16//122
f 49//122 16//122 50//122
f 50//122 16//122 15//122
f 50//122 15//122 39//122
f 39//122 15//122 14//122
f 64//122 25//122 65//122
f 65//122 25//122 24//122
f 65//122 24//122 66//122
f 66//122 24//122 23//122
f 66//122 23//122 22//122
f 66//122 22//122 67//122
f 67//122 22//122 21//122
f 67//122 21//122 68//122
f 68//122 21//122 20//122
f 68//122 20//122 127//122
f 74//122 131//122 63//122
f 63//122 131//122 128//122
f 63//122 128//122 64//122
f 74//122 73//122 131//122
f 131//122 73//122 72//122
f 131//122 72//122 130//122
f 130//122 72//122 71//122
f 130//122 71//122 70//122
f 70//122 69//122 130//122
f 130//122 69//122 127//122
f 127//122 69//122 68//122

g face 16
f 62//123 133//123 51//123
f 51//123 133//123 135//123
f 51//123 135//123 52//123
f 52//123 135//123 53//123
f 53//123 135//123 54//123
f 54//123 135//123 136//123
f 54//123 136//123 55//123
f 55//123 136//123 56//123
f 56//123 136//123 57//123
f 57//123 136//123 134//123
f 57//123 134//123 58//123
f 58//123 134//123 59//123
f 59//123 134//123 60//123
f 60//123 134//123 133//123
f 60//123 133//123 61//123
f 61//123 133//123 62//123

g face 17
f 132//124 134//124 125//124
f 125//124 134//124 136//124

g halfedge 0 edge 0
l 1 12 11 10 9 8 7 6 5 4 3 2 1

g halfedge 1 edge 0
l 1 2 3 4 5 6 7 8 9 10 11 12 1

g halfedge 2 edge 1
l

g halfedge 3 edge 2
l 14 25 24 23 22 21 20 19 18 17 16 15 14

g halfedge 4 edge 2
l 14 15 16 17 18 19 20 21 22 23 24 25 14

g halfedge 5 edge 3
l 26 37 36 35 34 33 32 31 30 29 28 27 26

g halfedge 6 edge 3
l 26 27 28 29 30 31 32 33 34 35 36 37 26

g halfedge 7 edge 4
l

g halfedge 8 edge 5
l 39 50 49 48 47 46 45 44 43 42 41 40 39

g halfedge 9 edge 5
l 39 40 41 42 43 44 45 46 47 48 49 50 39

g halfedge 10 edge 6
l 51 62 61 60 59 58 57 56 55 54 53 52 51

g halfedge 11 edge 6
l 51 52 53 54 55 56 57 58 59 60 61 62 51

g halfedge 12 edge 7
l 63 74 73 72 71 70 69 68 67 66 65 64 63

g halfedge 13 edge 7
l 63 64 65 66 67 68 69 70 71 72 73 74 63

g halfedge 14 edge 8
l 75 86 85 84 83 82 81 80 79 78 77 76 75

g halfedge 15 edge 8
l 75 76 77 78 79 80 81 82 83 84 85 86 75

g halfedge 16 edge 9
l

g halfedge 17 edge 10
l 88 99 98 97 96 95 94 93 92 91 90 89 88

g halfedge 18 edge 10
l 88 89 90 91 92 93 94 95 96 97 98 99 88

g halfedge 19 edge 11
l 100 111 110 109 108 107 106 105 104 103 102 101 100

g halfedge 20 edge 11
l 100 101 102 103 104 105 106 107 108 109 110 111 100

g halfedge 21 edge 12
l

g halfedge 22 edge 13
l 113 124 123 122 121 120 119 118 117 116 115 114 113

g halfedge 23 edge 13
l 113 114 115 116 117 118 119 120 121 122 123 124 113

g halfedge 24 edge 14
l 126 125

g halfedge 25 edge 14
l 125 126

g halfedge 26 edge 15
l 126 127

g halfedge 27 edge 15
l 127 126

g halfedge 28 edge 16
l 128 127

g halfedge 29 edge 16
l 127 128

g halfedge 30 edge 17
l 128 125

g halfedge 31 edge 17
l 125 128

g halfedge 32 edge 18
l 129 126

g halfedge 33 edge 18
l 126 129

g halfedge 34 edge 19
l 130 129

g halfedge 35 edge 19
l 129 130

g halfedge 36 edge 20
l 127 130

g halfedge 37 edge 20
l 130 127

g halfedge 38 edge 21
l 131 128

g halfedge 39 edge 21
l 128 131

g halfedge 40 edge 22
l 132 131

g halfedge 41 edge 22
l 131 132

g halfedge 42 edge 23
l 125 132

g halfedge 43 edge 23
l 132 125

g halfedge 44 edge 24
l 133 129

g halfedge 45 edge 24
l 129 133

g halfedge 46 edge 25
l 133 134

g halfedge 47 edge 25
l 134 133

g halfedge 48 edge 26
l 134 132

g halfedge 49 edge 26
l 132 134

g halfedge 50 edge 27
l 131 130

g halfedge 51 edge 27
l 130 131

g halfedge 52 edge 28
l 135 126

g halfedge 53 edge 28
l 126 135

g halfedge 54 edge 29
l 135 133

g halfedge 55 edge 29
l 133 135

g halfedge 56 edge 30
l 125 136

g halfedge 57 edge 30
l 136 125

g halfedge 58 edge 31
l 136 135

g halfedge 59 edge 31
l 135 136

g halfedge 60 edge 32
l 134 136

g halfedge 61 edge 32
l 136 134

g vertex 0
p 1

g vertex 1
p 13

g vertex 2
p 14

g vertex 3
p 26

g vertex 4
p 38

g vertex 5
p 39

g vertex 6
p 51

g vertex 7
p 63

g vertex 8
p 75

g vertex 9
p 87

g vertex 10
p 88

g vertex 11
p 100

g vertex 12
p 112

g vertex 13
p 113

g vertex 14
p 125

g vertex 15
p 126

g vertex 16
p 127

g vertex 17
p 128

g vertex 18
p 129

g vertex 19
p 130

g vertex 20
p 131

g vertex 21
p 132

g vertex 22
p 133

g vertex 23
p 134

g vertex 24
p 135

g vertex 25
p 136

# End of file
