# WaveFront *.obj file
# Vertices: 114
# Triangles : 224

v 1.5049500470161439e+01 7.8740002512931824e+00 3.9687500000000004e+00
v 1.5033960914085149e+01 7.9721131470072280e+00 3.9687500000000004e+00
v 1.4988863365875483e+01 8.0606220688960430e+00 3.9687500000000004e+00
v 1.4918622287764299e+01 8.1308631470072275e+00 3.9687500000000004e+00
v 1.4830113365875484e+01 8.1759606952168937e+00 3.9687500000000004e+00
v 1.4732000470161438e+01 8.1915002512931832e+00 3.9687500000000004e+00
v 1.4633887574447392e+01 8.1759606952168937e+00 3.9687500000000004e+00
v 1.4545378652558577e+01 8.1308631470072275e+00 3.9687500000000004e+00
v 1.4475137574447393e+01 8.0606220688960430e+00 3.9687500000000004e+00
v 1.4430040026237727e+01 7.9721131470072280e+00 3.9687500000000004e+00
v 1.4414500470161437e+01 7.8740002512931824e+00 3.9687500000000004e+00
v 1.4430040026237727e+01 7.7758873555791368e+00 3.9687500000000004e+00
v 1.4475137574447393e+01 7.6873784336903217e+00 3.9687500000000004e+00
v 1.4545378652558577e+01 7.6171373555791364e+00 3.9687500000000004e+00
v 1.4633887574447392e+01 7.5720398073694710e+00 3.9687500000000004e+00
v 1.4732000470161438e+01 7.5565002512931825e+00 3.9687500000000004e+00
v 1.4830113365875484e+01 7.5720398073694710e+00 3.9687500000000004e+00
v 1.4918622287764299e+01 7.6171373555791364e+00 3.9687500000000004e+00
v 1.4988863365875483e+01 7.6873784336903217e+00 3.9687500000000004e+00
v 1.5033960914085149e+01 7.7758873555791368e+00 3.9687500000000004e+00
v 1.4890750470161437e+01 7.8740002512931824e+00 4.1275000000000004e+00
v 1.4875029277940946e+01 7.8051212077082699e+00 4.1275000000000004e+00
v 1.4830979476206512e+01 7.7498845034513826e+00 4.1275000000000004e+00
v 1.4767325668427002e+01 7.7192304452343175e+00 4.1275000000000004e+00
v 1.4696675271895874e+01 7.7192304452343175e+00 4.1275000000000004e+00
v 1.4633021464116364e+01 7.7498845034513826e+00 4.1275000000000004e+00
v 1.4588971662381930e+01 7.8051212077082699e+00 4.1275000000000004e+00
v 1.4573250470161438e+01 7.8740002512931824e+00 4.1275000000000004e+00
v 1.4588971662381930e+01 7.9428792948780949e+00 4.1275000000000004e+00
v 1.4633021464116364e+01 7.9981159991349822e+00 4.1275000000000004e+00
v 1.4696675271895874e+01 8.0287700573520464e+00 4.1275000000000004e+00
v 1.4767325668427002e+01 8.0287700573520464e+00 4.1275000000000004e+00
v 1.4830979476206512e+01 7.9981159991349822e+00 4.1275000000000004e+00
v 1.4875029277940946e+01 7.9428792948780949e+00 4.1275000000000004e+00
v 1.4426584594375273e+01 7.8740002512931824e+00 4.0295009948879583e+00
v 1.4460997268648073e+01 7.8740002512931824e+00 4.0810032015133650e+00
v 1.4512499475273481e+01 7.8740002512931824e+00 4.1154158757861676e+00
v 1.4664170932458850e+01 7.6652423997717207e+00 4.1154158757861676e+00
v 1.4799830007864026e+01 7.6652423997717207e+00 4.1154158757861676e+00
v 1.4799830007864026e+01 8.0827581028146440e+00 4.1154158757861676e+00
v 1.4664170932458850e+01 8.0827581028146440e+00 4.1154158757861676e+00
v 1.5022468229007863e+01 7.9683789472630160e+00 4.0295009948879583e+00
v 1.4989739830897571e+01 7.9577448460908302e+00 4.0810032015133650e+00
v 1.4940758321682900e+01 7.9418297889957694e+00 4.1154158757861676e+00
v 1.4951501465049395e+01 7.8740002512931824e+00 4.1154158757861676e+00
v 1.5003003671674803e+01 7.8740002512931824e+00 4.0810032015133650e+00
v 1.5037416345947603e+01 7.8740002512931824e+00 4.0295009948879583e+00
v 1.4979087104024355e+01 8.0535191988962822e+00 4.0295009948879583e+00
v 1.4951246665715768e+01 8.0332919364667834e+00 4.0810032015133650e+00
v 1.4909580505308005e+01 8.0030196989518494e+00 4.1154158757861676e+00
v 1.4911519417764538e+01 8.1210868851560996e+00 4.0295009948879583e+00
v 1.4891292155335039e+01 8.0932464468475125e+00 4.0810032015133650e+00
v 1.4861019917820105e+01 8.0515802864397497e+00 4.1154158757861676e+00
v 1.4826379166131272e+01 8.1644680101396077e+00 4.0295009948879583e+00
v 1.4815745064959087e+01 8.1317396120293157e+00 4.0810032015133650e+00
v 1.4732000470161438e+01 8.1794161270793477e+00 4.0295009948879583e+00
v 1.4732000470161438e+01 8.1450034528065469e+00 4.0810032015133650e+00
v 1.4732000470161438e+01 8.0935012461811393e+00 4.1154158757861676e+00
v 1.4637621774191604e+01 8.1644680101396077e+00 4.0295009948879583e+00
v 1.4648255875363789e+01 8.1317396120293157e+00 4.0810032015133650e+00
v 1.4552481522558340e+01 8.1210868851560996e+00 4.0295009948879583e+00
v 1.4572708784987837e+01 8.0932464468475125e+00 4.0810032015133650e+00
v 1.4602981022502771e+01 8.0515802864397497e+00 4.1154158757861676e+00
v 1.4484913836298521e+01 8.0535191988962822e+00 4.0295009948879583e+00
v 1.4512754274607108e+01 8.0332919364667834e+00 4.0810032015133650e+00
v 1.4554420435014871e+01 8.0030196989518494e+00 4.1154158757861676e+00
v 1.4441532711315013e+01 7.9683789472630160e+00 4.0295009948879583e+00
v 1.4474261109425305e+01 7.9577448460908302e+00 4.0810032015133650e+00
v 1.4523242618639976e+01 7.9418297889957694e+00 4.1154158757861676e+00
v 1.4441532711315013e+01 7.7796215553233488e+00 4.0295009948879583e+00
v 1.4474261109425305e+01 7.7902556564955345e+00 4.0810032015133650e+00
v 1.4523242618639976e+01 7.8061707135905953e+00 4.1154158757861676e+00
v 1.4484913836298521e+01 7.6944813036900834e+00 4.0295009948879583e+00
v 1.4512754274607108e+01 7.7147085661195813e+00 4.0810032015133650e+00
v 1.4554420435014871e+01 7.7449808036345154e+00 4.1154158757861676e+00
v 1.4552481522558340e+01 7.6269136174302661e+00 4.0295009948879583e+00
v 1.4572708784987839e+01 7.6547540557388523e+00 4.0810032015133650e+00
v 1.4602981022502771e+01 7.6964202161466169e+00 4.1154158757861676e+00
v 1.4637621774191604e+01 7.5835324924467571e+00 4.0295009948879583e+00
v 1.4648255875363789e+01 7.6162608905570490e+00 4.0810032015133650e+00
v 1.4732000470161438e+01 7.5685843755070152e+00 4.0295009948879583e+00
v 1.4732000470161438e+01 7.6029970497798178e+00 4.0810032015133650e+00
v 1.4732000470161438e+01 7.6544992564052245e+00 4.1154158757861676e+00
v 1.4826379166131272e+01 7.5835324924467571e+00 4.0295009948879583e+00
v 1.4815745064959087e+01 7.6162608905570490e+00 4.0810032015133650e+00
v 1.4911519417764536e+01 7.6269136174302661e+00 4.0295009948879583e+00
v 1.4891292155335037e+01 7.6547540557388523e+00 4.0810032015133650e+00
v 1.4861019917820105e+01 7.6964202161466169e+00 4.1154158757861676e+00
v 1.4979087104024355e+01 7.6944813036900834e+00 4.0295009948879583e+00
v 1.4951246665715768e+01 7.7147085661195813e+00 4.0810032015133650e+00
v 1.4909580505308005e+01 7.7449808036345154e+00 4.1154158757861676e+00
v 1.5022468229007863e+01 7.7796215553233488e+00 4.0295009948879583e+00
v 1.4989739830897571e+01 7.7902556564955345e+00 4.0810032015133650e+00
v 1.4940758321682900e+01 7.8061707135905953e+00 4.1154158757861676e+00
v 1.5049500470161439e+01 7.8740002512931824e+00 0.0000000000000000e+00
v 1.5033960914085149e+01 7.9721131470072280e+00 0.0000000000000000e+00
v 1.4988863365875483e+01 8.0606220688960430e+00 0.0000000000000000e+00
v 1.4918622287764299e+01 8.1308631470072275e+00 0.0000000000000000e+00
v 1.4830113365875484e+01 8.1759606952168937e+00 0.0000000000000000e+00
v 1.4732000470161438e+01 8.1915002512931832e+00 0.0000000000000000e+00
v 1.4633887574447392e+01 8.1759606952168937e+00 0.0000000000000000e+00
v 1.4545378652558577e+01 8.1308631470072275e+00 0.0000000000000000e+00
v 1.4475137574447393e+01 8.0606220688960430e+00 0.0000000000000000e+00
v 1.4430040026237727e+01 7.9721131470072280e+00 0.0000000000000000e+00
v 1.4414500470161437e+01 7.8740002512931824e+00 0.0000000000000000e+00
v 1.4430040026237727e+01 7.7758873555791368e+00 0.0000000000000000e+00
v 1.4475137574447393e+01 7.6873784336903217e+00 0.0000000000000000e+00
v 1.4545378652558577e+01 7.6171373555791364e+00 0.0000000000000000e+00
v 1.4633887574447392e+01 7.5720398073694710e+00 0.0000000000000000e+00
v 1.4732000470161438e+01 7.5565002512931825e+00 0.0000000000000000e+00
v 1.4830113365875484e+01 7.5720398073694710e+00 0.0000000000000000e+00
v 1.4918622287764299e+01 7.6171373555791364e+00 0.0000000000000000e+00
v 1.4988863365875483e+01 7.6873784336903217e+00 0.0000000000000000e+00
v 1.5033960914085149e+01 7.7758873555791368e+00 0.0000000000000000e+00

vn 9.5105651629515398e-01 3.0901699437494667e-01 -0.0000000000000000e+00
vn 8.7866164966657934e-01 2.8549447630116875e-01 3.8268343236509061e-01
vn 1.0000000000000000e+00 -0.0000000000000000e+00 -0.0000000000000000e+00
vn 9.2387953251128641e-01 -0.0000000000000000e+00 3.8268343236509056e-01
vn 9.5105651629515398e-01 -3.0901699437494667e-01 -0.0000000000000000e+00
vn 8.7866164966657934e-01 -2.8549447630116875e-01 3.8268343236509061e-01
vn 8.0901699437494590e-01 -5.8778525229247525e-01 -0.0000000000000000e+00
vn 7.4743424255681146e-01 -5.4304276410499996e-01 3.8268343236509056e-01
vn 5.8778525229247380e-01 -8.0901699437494701e-01 -0.0000000000000000e+00
vn 5.4304276410499897e-01 -7.4743424255681223e-01 3.8268343236509056e-01
vn 3.0901699437494662e-01 -9.5105651629515398e-01 -0.0000000000000000e+00
vn 2.8549447630116870e-01 -8.7866164966657934e-01 3.8268343236509050e-01
vn 6.1232339957367660e-17 -1.0000000000000000e+00 -0.0000000000000000e+00
vn 5.6571305614385001e-17 -9.2387953251128641e-01 3.8268343236509061e-01
vn -3.0901699437494679e-01 -9.5105651629515375e-01 0.0000000000000000e+00
vn -2.8549447630116881e-01 -8.7866164966657934e-01 3.8268343236509056e-01
vn -5.8778525229247380e-01 -8.0901699437494701e-01 0.0000000000000000e+00
vn -5.4304276410499885e-01 -7.4743424255681223e-01 3.8268343236509050e-01
vn -8.0901699437494601e-01 -5.8778525229247502e-01 0.0000000000000000e+00
vn -7.4743424255681135e-01 -5.4304276410500008e-01 3.8268343236509056e-01
vn -9.5105651629515398e-01 -3.0901699437494667e-01 0.0000000000000000e+00
vn -8.7866164966657934e-01 -2.8549447630116859e-01 3.8268343236509056e-01
vn -1.0000000000000000e+00 -1.2246467991473532e-16 0.0000000000000000e+00
vn -9.2387953251128641e-01 -1.1314261122877000e-16 3.8268343236509056e-01
vn -1.0000000000000000e+00 1.2246467991473532e-16 -0.0000000000000000e+00
vn -9.2387953251128641e-01 1.1314261122877000e-16 3.8268343236509056e-01
vn -9.5105651629515398e-01 3.0901699437494667e-01 -0.0000000000000000e+00
vn -8.7866164966657934e-01 2.8549447630116859e-01 3.8268343236509056e-01
vn -8.0901699437494601e-01 5.8778525229247502e-01 -0.0000000000000000e+00
vn -7.4743424255681135e-01 5.4304276410500008e-01 3.8268343236509056e-01
vn -5.8778525229247525e-01 8.0901699437494590e-01 -0.0000000000000000e+00
vn -5.4304276410499985e-01 7.4743424255681157e-01 3.8268343236509061e-01
vn -3.0901699437494679e-01 9.5105651629515375e-01 -0.0000000000000000e+00
vn -2.8549447630116881e-01 8.7866164966657934e-01 3.8268343236509061e-01
vn 6.1232339957367660e-17 1.0000000000000000e+00 -0.0000000000000000e+00
vn 5.6571305614385001e-17 9.2387953251128641e-01 3.8268343236509056e-01
vn 3.0901699437494662e-01 9.5105651629515398e-01 -0.0000000000000000e+00
vn 2.8549447630116870e-01 8.7866164966657934e-01 3.8268343236509061e-01
vn 5.8778525229247514e-01 8.0901699437494590e-01 -0.0000000000000000e+00
vn 5.4304276410499996e-01 7.4743424255681146e-01 3.8268343236509061e-01
vn 8.0901699437494590e-01 5.8778525229247525e-01 -0.0000000000000000e+00
vn 7.4743424255681146e-01 5.4304276410499996e-01 3.8268343236509056e-01
vn -3.3457712654830614e-15 1.6112385217921991e-15 1.0000000000000000e+00
vn 3.6395357202901163e-01 -1.1825568406654757e-01 9.2387953251128796e-01
vn -3.0473921289930707e-15 -0.0000000000000000e+00 1.0000000000000000e+00
vn 3.8268343236508695e-01 -0.0000000000000000e+00 9.2387953251128785e-01
vn 3.6395357202901163e-01 1.1825568406654757e-01 9.2387953251128796e-01
vn 7.0710678118654613e-01 -0.0000000000000000e+00 7.0710678118654879e-01
vn 6.7249851196395605e-01 2.1850801222440985e-01 7.0710678118654891e-01
vn 3.0959740024909094e-01 -2.2493567784086238e-01 9.2387953251128785e-01
vn -3.7714990067815921e-16 4.7293101680384099e-16 1.0000000000000000e+00
vn 2.2493567784086227e-01 -3.0959740024909105e-01 9.2387953251128796e-01
vn 1.1825568406654757e-01 -3.6395357202901163e-01 9.2387953251128796e-01
vn 2.1850801222440985e-01 -6.7249851196395605e-01 7.0710678118654891e-01
vn 4.3297802811774566e-17 -7.0710678118654613e-01 7.0710678118654879e-01
vn 3.5949248755078804e-16 -1.5750394989882363e-15 1.0000000000000000e+00
vn 2.3432602026631317e-17 -3.8268343236508695e-01 9.2387953251128785e-01
vn -2.1850801222440988e-01 -6.7249851196395605e-01 7.0710678118654891e-01
vn -3.5949248755078819e-16 -1.5750394989882361e-15 1.0000000000000000e+00
vn -1.1825568406654759e-01 -3.6395357202901163e-01 9.2387953251128796e-01
vn -4.1562693777745274e-01 -5.7206140281768303e-01 7.0710678118654879e-01
vn 3.7714990067815911e-16 4.7293101680384099e-16 1.0000000000000000e+00
vn -2.2493567784086219e-01 -3.0959740024909110e-01 9.2387953251128785e-01
vn -5.7206140281768258e-01 -4.1562693777745335e-01 7.0710678118654891e-01
vn -3.0959740024909094e-01 -2.2493567784086238e-01 9.2387953251128785e-01
vn 3.3457712654830607e-15 1.6112385217921993e-15 1.0000000000000000e+00
vn -3.6395357202901157e-01 -1.1825568406654767e-01 9.2387953251128785e-01
vn 3.0473921289930707e-15 3.7319790165182016e-31 1.0000000000000000e+00
vn -3.8268343236508695e-01 -4.6865204053262635e-17 9.2387953251128785e-01
vn -3.8268343236508695e-01 4.6865204053262635e-17 9.2387953251128785e-01
vn 3.0473921289930707e-15 -3.7319790165182016e-31 1.0000000000000000e+00
vn -3.6395357202901157e-01 1.1825568406654767e-01 9.2387953251128785e-01
vn -6.7249851196395605e-01 2.1850801222440988e-01 7.0710678118654891e-01
vn -5.7206140281768258e-01 4.1562693777745335e-01 7.0710678118654891e-01
vn 3.3457712654830607e-15 -1.6112385217921993e-15 1.0000000000000000e+00
vn -3.0959740024909094e-01 2.2493567784086238e-01 9.2387953251128785e-01
vn -4.1562693777745330e-01 5.7206140281768270e-01 7.0710678118654891e-01
vn 3.7714990067815911e-16 -4.7293101680384099e-16 1.0000000000000000e+00
vn -2.2493567784086227e-01 3.0959740024909099e-01 9.2387953251128785e-01
vn -2.1850801222440988e-01 6.7249851196395605e-01 7.0710678118654891e-01
vn -1.1825568406654759e-01 3.6395357202901163e-01 9.2387953251128796e-01
vn 8.7574683414616177e-16 -3.8368975782817349e-15 1.0000000000000000e+00
vn 2.3432602026631317e-17 3.8268343236508695e-01 9.2387953251128785e-01
vn -8.7574683414616127e-16 -3.8368975782817349e-15 1.0000000000000000e+00
vn 1.1825568406654757e-01 3.6395357202901163e-01 9.2387953251128796e-01
vn -3.7714990067815921e-16 -4.7293101680384099e-16 1.0000000000000000e+00
vn 2.2493567784086238e-01 3.0959740024909094e-01 9.2387953251128785e-01
vn 3.0959740024909094e-01 2.2493567784086238e-01 9.2387953251128785e-01
vn 5.7206140281768270e-01 4.1562693777745330e-01 7.0710678118654891e-01
vn -3.3457712654830614e-15 -1.6112385217921991e-15 1.0000000000000000e+00
vn -7.0710678118654613e-01 8.6595605623549131e-17 7.0710678118654879e-01
vn -7.0710678118654613e-01 -8.6595605623549131e-17 7.0710678118654879e-01
vn -6.7249851196395605e-01 -2.1850801222440988e-01 7.0710678118654891e-01
vn 6.7249851196395605e-01 -2.1850801222440985e-01 7.0710678118654891e-01
vn 5.7206140281768270e-01 -4.1562693777745330e-01 7.0710678118654891e-01
vn 4.1562693777745280e-01 -5.7206140281768303e-01 7.0710678118654891e-01
vn 4.1562693777745330e-01 5.7206140281768270e-01 7.0710678118654891e-01
vn 2.1850801222440985e-01 6.7249851196395605e-01 7.0710678118654891e-01
vn 4.3297802811774566e-17 7.0710678118654613e-01 7.0710678118654879e-01
vn 0.0000000000000000e+00 0.0000000000000000e+00 1.0000000000000000e+00
vn 0.0000000000000000e+00 0.0000000000000000e+00 -1.0000000000000000e+00

g face 0
f 2//1 42//2 1//3
f 1//3 42//2 47//4
f 1//3 47//4 20//5
f 20//5 47//4 92//6
f 20//5 92//6 19//7
f 19//7 92//6 89//8
f 19//7 89//8 18//9
f 18//9 89//8 86//10
f 18//9 86//10 17//11
f 17//11 86//10 84//12
f 17//11 84//12 16//13
f 16//13 84//12 81//14
f 16//13 81//14 15//15
f 15//15 81//14 79//16
f 15//15 79//16 14//17
f 14//17 79//16 76//18
f 14//17 76//18 13//19
f 13//19 76//18 73//20
f 13//19 73//20 12//21
f 12//21 73//20 70//22
f 12//21 70//22 11//23
f 11//23 70//22 35//24
f 11//25 35//26 10//27
f 10//27 35//26 67//28
f 10//27 67//28 9//29
f 9//29 67//28 64//30
f 9//29 64//30 8//31
f 8//31 64//30 61//32
f 8//31 61//32 7//33
f 7//33 61//32 59//34
f 7//33 59//34 6//35
f 6//35 59//34 56//36
f 6//35 56//36 5//37
f 5//37 56//36 54//38
f 5//37 54//38 4//39
f 4//39 54//38 51//40
f 4//39 51//40 3//41
f 3//41 51//40 48//42
f 3//41 48//42 2//1
f 2//1 48//42 42//2
f 22//43 94//44 21//45
f 21//45 94//44 45//46
f 21//45 45//46 44//47
f 44//47 45//46 46//48
f 44//47 46//48 43//49
f 43//49 46//48 47//4
f 43//49 47//4 42//2
f 94//44 22//43 91//50
f 91//50 22//43 23//51
f 91//50 23//51 88//52
f 88//52 23//51 39//53
f 88//52 39//53 85//54
f 85//54 39//53 82//55
f 85//54 82//55 81//14
f 81//14 82//55 79//16
f 23//51 24//56 39//53
f 39//53 24//56 83//57
f 39//53 83//57 82//55
f 82//55 83//57 80//58
f 82//55 80//58 79//16
f 79//16 80//58 76//18
f 24//56 25//59 83//57
f 83//57 25//59 38//60
f 83//57 38//60 80//58
f 80//58 38//60 77//61
f 80//58 77//61 76//18
f 76//18 77//61 73//20
f 25//59 26//62 38//60
f 38//60 26//62 78//63
f 38//60 78//63 77//61
f 77//61 78//63 74//64
f 77//61 74//64 73//20
f 73//20 74//64 70//22
f 78//63 26//62 75//65
f 75//65 26//62 27//66
f 75//65 27//66 72//67
f 72//67 27//66 28//68
f 72//67 28//68 37//69
f 37//70 28//71 69//72
f 37//70 69//72 68//73
f 68//73 69//72 65//74
f 68//73 65//74 64//30
f 64//30 65//74 61//32
f 28//71 29//75 69//72
f 69//72 29//75 66//76
f 69//72 66//76 65//74
f 65//74 66//76 62//77
f 65//74 62//77 61//32
f 61//32 62//77 59//34
f 29//75 30//78 66//76
f 66//76 30//78 63//79
f 66//76 63//79 62//77
f 62//77 63//79 60//80
f 62//77 60//80 59//34
f 59//34 60//80 56//36
f 63//79 30//78 41//81
f 41//81 30//78 31//82
f 41//81 31//82 58//83
f 58//83 31//82 32//84
f 58//83 32//84 40//85
f 40//85 32//84 33//86
f 40//85 33//86 53//87
f 53//87 33//86 50//88
f 53//87 50//88 49//89
f 49//89 50//88 43//49
f 49//89 43//49 42//2
f 33//86 34//90 50//88
f 50//88 34//90 44//47
f 50//88 44//47 43//49
f 34//90 21//45 44//47
f 35//26 36//91 67//28
f 67//28 36//91 68//73
f 67//28 68//73 64//30
f 72//67 37//69 36//92
f 36//91 37//70 68//73
f 36//92 35//24 71//93
f 71//93 35//24 70//22
f 71//93 70//22 74//64
f 49//89 42//2 48//42
f 92//6 47//4 46//48
f 46//48 45//46 93//94
f 93//94 45//46 94//44
f 93//94 94//44 90//95
f 90//95 94//44 91//50
f 90//95 91//50 87//96
f 87//96 91//50 88//52
f 87//96 88//52 85//54
f 49//89 48//42 52//97
f 52//97 48//42 51//40
f 52//97 51//40 55//98
f 55//98 51//40 54//38
f 55//98 54//38 57//99
f 57//99 54//38 56//36
f 57//99 56//36 60//80
f 40//85 53//87 52//97
f 52//97 53//87 49//89
f 40//85 52//97 55//98
f 58//83 40//85 55//98
f 58//83 55//98 57//99
f 41//81 58//83 57//99
f 41//81 57//99 60//80
f 63//79 41//81 60//80
f 75//65 72//67 71//93
f 71//93 72//67 36//92
f 75//65 71//93 74//64
f 78//63 75//65 74//64
f 85//54 81//14 84//12
f 87//96 85//54 84//12
f 87//96 84//12 86//10
f 90//95 87//96 86//10
f 90//95 86//10 89//8
f 93//94 90//95 89//8
f 93//94 89//8 92//6
f 46//48 93//94 92//6

g face 1
f 96//1 2//1 95//3
f 95//3 2//1 1//3
f 95//3 1//3 114//5
f 114//5 1//3 20//5
f 114//5 20//5 113//7
f 113//7 20//5 19//7
f 113//7 19//7 112//9
f 112//9 19//7 18//9
f 112//9 18//9 111//11
f 111//11 18//9 17//11
f 111//11 17//11 110//13
f 110//13 17//11 16//13
f 110//13 16//13 109//15
f 109//15 16//13 15//15
f 109//15 15//15 108//17
f 108//17 15//15 14//17
f 108//17 14//17 107//19
f 107//19 14//17 13//19
f 107//19 13//19 106//21
f 106//21 13//19 12//21
f 106//21 12//21 105//23
f 105//23 12//21 11//23
f 105//25 11//25 104//27
f 104//27 11//25 10//27
f 104//27 10//27 103//29
f 103//29 10//27 9//29
f 103//29 9//29 102//31
f 102//31 9//29 8//31
f 102//31 8//31 101//33
f 101//33 8//31 7//33
f 101//33 7//33 100//35
f 100//35 7//33 6//35
f 100//35 6//35 99//37
f 99//37 6//35 5//37
f 99//37 5//37 98//39
f 98//39 5//37 4//39
f 98//39 4//39 97//41
f 97//41 4//39 3//41
f 97//41 3//41 96//1
f 96//1 3//41 2//1

g face 2
f 34//100 29//100 21//100
f 21//100 29//100 28//100
f 21//100 28//100 22//100
f 22//100 28//100 27//100
f 22//100 27//100 23//100
f 23//100 27//100 26//100
f 23//100 26//100 24//100
f 24//100 26//100 25//100
f 29//100 34//100 30//100
f 30//100 34//100 33//100
f 30//100 33//100 31//100
f 31//100 33//100 32//100

g face 3
f 114//101 106//101 95//101
f 95//101 106//101 105//101
f 95//101 105//101 96//101
f 96//101 105//101 104//101
f 96//101 104//101 97//101
f 97//101 104//101 103//101
f 97//101 103//101 98//101
f 98//101 103//101 102//101
f 98//101 102//101 99//101
f 99//101 102//101 101//101
f 99//101 101//101 100//101
f 106//101 114//101 107//101
f 107//101 114//101 113//101
f 107//101 113//101 108//101
f 108//101 113//101 112//101
f 108//101 112//101 109//101
f 109//101 112//101 111//101
f 109//101 111//101 110//101

g halfedge 0 edge 0
l 1 20 19 18 17 16 15 14 13 12 11 10 9 8 7 6 5 4 3 2 1

g halfedge 1 edge 0
l 1 2 3 4 5 6 7 8 9 10 11 12 13 14 15 16 17 18 19 20 1

g halfedge 2 edge 1
l 21 34 33 32 31 30 29 28 27 26 25 24 23 22 21

g halfedge 3 edge 1
l 21 22 23 24 25 26 27 28 29 30 31 32 33 34 21

g halfedge 4 edge 2
l 95 114 113 112 111 110 109 108 107 106 105 104 103 102 101 100 99 98 97 96 95

g halfedge 5 edge 2
l 95 96 97 98 99 100 101 102 103 104 105 106 107 108 109 110 111 112 113 114 95

g vertex 0
p 1

g vertex 1
p 21

g vertex 2
p 95

# End of file
