# WaveFront *.obj file
# Vertices: 179
# Triangles : 366

v -1.9059375715835514e+00 -2.1608388542496435e+00 1.2699999999999996e+00
v -1.9272060387327716e+00 -2.0814638542496433e+00 1.2700000000000000e+00
v -1.9853125715835513e+00 -2.0233573213988638e+00 1.2700000000000000e+00
v -2.0646875715835513e+00 -2.0020888542496436e+00 1.2700000000000000e+00
v -2.1440625715835515e+00 -2.0233573213988638e+00 1.2700000000000000e+00
v -2.2021691044343310e+00 -2.0814638542496438e+00 1.2700000000000000e+00
v -2.2234375715835513e+00 -2.1608388542496435e+00 1.2700000000000000e+00
v -2.2021691044343310e+00 -2.2402138542496437e+00 1.2700000000000000e+00
v -2.1440625715835511e+00 -2.2983203871004232e+00 1.2700000000000000e+00
v -2.0646875715835513e+00 -2.3195888542496435e+00 1.2700000000000000e+00
v -1.9853125715835513e+00 -2.2983203871004232e+00 1.2700000000000000e+00
v -1.9272060387327716e+00 -2.2402138542496437e+00 1.2700000000000000e+00
v -1.9059375715835514e+00 -2.1608388542496435e+00 9.9874194578712361e-01
v -1.9181392959551213e+00 -2.2218729869204679e+00 1.0038270171521009e+00
v -1.9523919587326215e+00 -2.2730496274668739e+00 1.0156566179952513e+00
v -2.0035958156171074e+00 -2.3073631177732188e+00 1.0271448239289840e+00
v -2.0646875715835513e+00 -2.3195888542496435e+00 1.0318749999999999e+00
v -2.1257793275499952e+00 -2.3073631177732192e+00 1.0271448239289813e+00
v -2.1769831844344809e+00 -2.2730496274668730e+00 1.0156566179952455e+00
v -2.2112358472119817e+00 -2.2218729869204674e+00 1.0038270171520933e+00
v -2.2234375715835522e+00 -2.1608388542496435e+00 9.9874194578711584e-01
v -2.2112358472119813e+00 -2.0998047215788191e+00 1.0038270171520938e+00
v -2.1769831844344809e+00 -2.0486280810324136e+00 1.0156566179952460e+00
v -2.1257793275499948e+00 -2.0143145907260687e+00 1.0271448239289811e+00
v -2.0646875715835522e+00 -2.0020888542496436e+00 1.0318750000000003e+00
v -2.0035958156171083e+00 -2.0143145907260673e+00 1.0271448239289840e+00
v -1.9523919587326215e+00 -2.0486280810324127e+00 1.0156566179952511e+00
v -1.9181392959551216e+00 -2.0998047215788187e+00 1.0038270171521009e+00
v -1.9059375715835514e+00 -2.1608388542496435e+00 2.7125805421287624e-01
v -1.9181392959551218e+00 -2.0998047215788187e+00 2.6617298284789920e-01
v -1.9523919587326215e+00 -2.0486280810324127e+00 2.5434338200474860e-01
v -2.0035958156171074e+00 -2.0143145907260673e+00 2.4285517607101592e-01
v -2.0646875715835513e+00 -2.0020888542496436e+00 2.3812499999999992e-01
v -2.1257793275499948e+00 -2.0143145907260678e+00 2.4285517607101875e-01
v -2.1769831844344805e+00 -2.0486280810324131e+00 2.5434338200475393e-01
v -2.2112358472119813e+00 -2.0998047215788191e+00 2.6617298284790636e-01
v -2.2234375715835504e+00 -2.1608388542496426e+00 2.7125805421288396e-01
v -2.2112358472119817e+00 -2.2218729869204679e+00 2.6617298284790647e-01
v -2.1769831844344805e+00 -2.2730496274668730e+00 2.5434338200475404e-01
v -2.1257793275499948e+00 -2.3073631177732183e+00 2.4285517607101886e-01
v -2.0646875715835513e+00 -2.3195888542496435e+00 2.3812499999999992e-01
v -2.0035958156171083e+00 -2.3073631177732192e+00 2.4285517607101587e-01
v -1.9523919587326215e+00 -2.2730496274668739e+00 2.5434338200474854e-01
v -1.9181392959551216e+00 -2.2218729869204688e+00 2.6617298284789892e-01
v -2.2234375715835513e+00 -2.1608388542496435e+00 0.0000000000000000e+00
v -2.2021691044343310e+00 -2.0814638542496433e+00 0.0000000000000000e+00
v -2.1440625715835511e+00 -2.0233573213988638e+00 0.0000000000000000e+00
v -2.0646875715835513e+00 -2.0020888542496436e+00 0.0000000000000000e+00
v -1.9853125715835513e+00 -2.0233573213988638e+00 0.0000000000000000e+00
v -1.9272060387327716e+00 -2.0814638542496438e+00 0.0000000000000000e+00
v -1.9059375715835514e+00 -2.1608388542496435e+00 0.0000000000000000e+00
v -1.9272060387327716e+00 -2.2402138542496437e+00 0.0000000000000000e+00
v -1.9853125715835513e+00 -2.2983203871004232e+00 0.0000000000000000e+00
v -2.0646875715835513e+00 -2.3195888542496435e+00 0.0000000000000000e+00
v -2.1440625715835515e+00 -2.2983203871004232e+00 0.0000000000000000e+00
v -2.2021691044343310e+00 -2.2402138542496437e+00 0.0000000000000000e+00
v -2.0646875715835415e+00 -2.4981826042496502e+00 1.0318749999999999e+00
v -1.9213197853155153e+00 -2.4981826042496502e+00 1.0050749160448536e+00
v -1.7973146130113142e+00 -2.4981826042496498e+00 9.2829416402194898e-01
v -1.7094196403270012e+00 -2.4981826042496498e+00 8.1190240994881369e-01
v -1.6695055703664496e+00 -2.4981826042496498e+00 6.7161900516199768e-01
v -1.6829630194493290e+00 -2.4981826042496498e+00 5.2639000081514187e-01
v -1.7479744845066967e+00 -2.4981826042496498e+00 3.9582937868698248e-01
v -1.8557598069415910e+00 -2.4981826042496498e+00 2.9757007425730930e-01
v -1.9917619817000902e+00 -2.4981826042496502e+00 2.4488255106295143e-01
v -2.1376131614669931e+00 -2.4981826042496502e+00 2.4488255106295143e-01
v -2.2736153362254923e+00 -2.4981826042496507e+00 2.9757007425730930e-01
v -2.3814006586603869e+00 -2.4981826042496507e+00 3.9582937868698254e-01
v -2.4464121237177539e+00 -2.4981826042496507e+00 5.2639000081514198e-01
v -2.4598695728006335e+00 -2.4981826042496507e+00 6.7161900516199791e-01
v -2.4199555028400819e+00 -2.4981826042496507e+00 8.1190240994881346e-01
v -2.3320605301557689e+00 -2.4981826042496507e+00 9.2829416402194898e-01
v -2.2080553578515678e+00 -2.4981826042496502e+00 1.0050749160448536e+00
v -2.0646875715835415e+00 -2.7366491624262128e+00 6.3499999999999990e-01
v -2.0646875715835429e+00 -1.5456826042496501e+00 1.0318749999999999e+00
v -1.9213197853155166e+00 -1.5456826042496481e+00 1.0050749160448536e+00
v -1.7973146130113156e+00 -1.5456826042496479e+00 9.2829416402194898e-01
v -1.7094196403270026e+00 -1.5456826042496479e+00 8.1190240994881369e-01
v -1.6695055703664510e+00 -1.5456826042496479e+00 6.7161900516199768e-01
v -1.6829630194493304e+00 -1.5456826042496479e+00 5.2639000081514187e-01
v -1.7479744845066980e+00 -1.5456826042496479e+00 3.9582937868698248e-01
v -1.8557598069415924e+00 -1.5456826042496481e+00 2.9757007425730930e-01
v -1.9917619817000916e+00 -1.5456826042496483e+00 2.4488255106295143e-01
v -2.1376131614669944e+00 -1.5456826042496483e+00 2.4488255106295143e-01
v -2.2736153362254936e+00 -1.5456826042496485e+00 2.9757007425730930e-01
v -2.3814006586603877e+00 -1.5456826042496488e+00 3.9582937868698254e-01
v -2.4464121237177556e+00 -1.5456826042496488e+00 5.2639000081514198e-01
v -2.4598695728006348e+00 -1.5456826042496488e+00 6.7161900516199791e-01
v -2.4199555028400832e+00 -1.5456826042496488e+00 8.1190240994881346e-01
v -2.3320605301557702e+00 -1.5456826042496488e+00 9.2829416402194898e-01
v -2.2080553578515691e+00 -1.5456826042496485e+00 1.0050749160448536e+00
v -3.1843757158354880e-01 -3.4506826042496339e+00 0.0000000000000000e+00
v -3.8109375715835574e+00 -3.4506826042496339e+00 0.0000000000000000e+00
v -3.8109375715835574e+00 -3.4506826042496339e+00 1.2700000000000000e+00
v -3.1843757158354880e-01 -3.4506826042496339e+00 1.2700000000000000e+00
v -3.1843757158354968e-01 -2.7759951042496391e+00 0.0000000000000000e+00
v -3.1843757158354968e-01 -2.7759951042496391e+00 1.2700000000000000e+00
v -3.8109375715835574e+00 -2.7759951042496338e+00 0.0000000000000000e+00
v -3.8109375715835574e+00 -2.7759951042496338e+00 1.2700000000000000e+00
v -5.0809375715835223e+00 -2.9858626042496517e+00 0.0000000000000000e+00
v -5.0809375715835552e+00 -3.2408151042496338e+00 0.0000000000000000e+00
v -5.0809375715835552e+00 -3.2408151042496338e+00 1.2700000000000000e+00
v -5.0809375715835223e+00 -2.9858626042496517e+00 1.2700000000000000e+00
v -3.6407575715835261e+00 -1.5456826042496503e+00 0.0000000000000000e+00
v -3.8908422040958857e+00 -1.5675621745165287e+00 0.0000000000000000e+00
v -4.1333281415982874e+00 -1.6325360856462015e+00 0.0000000000000000e+00
v -4.3608475715835251e+00 -1.7386301382273783e+00 0.0000000000000000e+00
v -4.5664874313018853e+00 -1.8826207181585617e+00 0.0000000000000000e+00
v -4.7439994576746143e+00 -2.0601327445312916e+00 0.0000000000000000e+00
v -4.8879900376057970e+00 -2.2657726042496518e+00 0.0000000000000000e+00
v -4.9940840901869725e+00 -2.4932920342348899e+00 0.0000000000000000e+00
v -5.0590580013166448e+00 -2.7357779717372921e+00 0.0000000000000000e+00
v -5.0590580013166448e+00 -2.7357779717372921e+00 1.2700000000000000e+00
v -4.9940840901869725e+00 -2.4932920342348899e+00 1.2700000000000000e+00
v -4.8879900376057970e+00 -2.2657726042496518e+00 1.2700000000000000e+00
v -4.7439994576746143e+00 -2.0601327445312916e+00 1.2700000000000000e+00
v -4.5664874313018853e+00 -1.8826207181585617e+00 1.2700000000000000e+00
v -4.3608475715835251e+00 -1.7386301382273783e+00 1.2700000000000000e+00
v -4.1333281415982874e+00 -1.6325360856462015e+00 1.2700000000000000e+00
v -3.8908422040958857e+00 -1.5675621745165287e+00 1.2700000000000000e+00
v -3.6407575715835261e+00 -1.5456826042496503e+00 1.2700000000000000e+00
v -4.8861757158355940e-01 -1.5456826042496465e+00 0.0000000000000000e+00
v -4.8861757158355923e-01 -1.5456826042496465e+00 1.2700000000000000e+00
v 9.5156242841644223e-01 -2.9858626042496441e+00 0.0000000000000000e+00
v 9.2968285814956375e-01 -2.7357779717372845e+00 0.0000000000000000e+00
v 8.6470894701989098e-01 -2.4932920342348828e+00 0.0000000000000000e+00
v 7.5861489443871399e-01 -2.2657726042496451e+00 0.0000000000000000e+00
v 6.1462431450753074e-01 -2.0601327445312845e+00 0.0000000000000000e+00
v 4.3711228813480102e-01 -1.8826207181585555e+00 0.0000000000000000e+00
v 2.3147242841644086e-01 -1.7386301382273726e+00 0.0000000000000000e+00
v 3.9529984312023040e-03 -1.6325360856461961e+00 0.0000000000000000e+00
v -2.3853293907119963e-01 -1.5675621745165242e+00 0.0000000000000000e+00
v -2.3853293907119963e-01 -1.5675621745165242e+00 1.2700000000000000e+00
v 3.9529984312023040e-03 -1.6325360856461961e+00 1.2700000000000000e+00
v 2.3147242841644086e-01 -1.7386301382273726e+00 1.2700000000000000e+00
v 4.3711228813480102e-01 -1.8826207181585555e+00 1.2700000000000000e+00
v 6.1462431450753074e-01 -2.0601327445312845e+00 1.2700000000000000e+00
v 7.5861489443871399e-01 -2.2657726042496451e+00 1.2700000000000000e+00
v 8.6470894701989098e-01 -2.4932920342348828e+00 1.2700000000000000e+00
v 9.2968285814956375e-01 -2.7357779717372845e+00 1.2700000000000000e+00
v 9.5156242841644190e-01 -2.9858626042496441e+00 1.2700000000000000e+00
v 9.5156242841644179e-01 -3.2408151042496343e+00 0.0000000000000000e+00
v 9.5156242841644190e-01 -3.2408151042496343e+00 1.2700000000000000e+00
v -4.8861757158355701e-01 -4.6809951042496341e+00 0.0000000000000000e+00
v -2.3853293907119738e-01 -4.6591155339827557e+00 0.0000000000000000e+00
v 3.9529984312044464e-03 -4.5941416228530834e+00 0.0000000000000000e+00
v 2.3147242841644278e-01 -4.4880475702719069e+00 0.0000000000000000e+00
v 4.3711228813480285e-01 -4.3440569903407242e+00 0.0000000000000000e+00
v 6.1462431450753230e-01 -4.1665449639679943e+00 0.0000000000000000e+00
v 7.5861489443871521e-01 -3.9609051042496342e+00 0.0000000000000000e+00
v 8.6470894701989165e-01 -3.7333856742643956e+00 0.0000000000000000e+00
v 9.2968285814956364e-01 -3.4908997367619938e+00 0.0000000000000000e+00
v 9.2968285814956364e-01 -3.4908997367619938e+00 1.2700000000000000e+00
v 8.6470894701989165e-01 -3.7333856742643956e+00 1.2700000000000000e+00
v 7.5861489443871521e-01 -3.9609051042496342e+00 1.2700000000000000e+00
v 6.1462431450753230e-01 -4.1665449639679943e+00 1.2700000000000000e+00
v 4.3711228813480285e-01 -4.3440569903407242e+00 1.2700000000000000e+00
v 2.3147242841644278e-01 -4.4880475702719069e+00 1.2700000000000000e+00
v 3.9529984312044464e-03 -4.5941416228530834e+00 1.2700000000000000e+00
v -2.3853293907119738e-01 -4.6591155339827557e+00 1.2700000000000000e+00
v -4.8861757158355701e-01 -4.6809951042496341e+00 1.2700000000000000e+00
v -3.6407575715835545e+00 -4.6809951042496341e+00 0.0000000000000000e+00
v -3.6407575715835545e+00 -4.6809951042496341e+00 1.2700000000000000e+00
v -5.0590580013166768e+00 -3.4908997367619938e+00 0.0000000000000000e+00
v -4.9940840901870045e+00 -3.7333856742643956e+00 0.0000000000000000e+00
v -4.8879900376058281e+00 -3.9609051042496342e+00 0.0000000000000000e+00
v -4.7439994576746445e+00 -4.1665449639679943e+00 0.0000000000000000e+00
v -4.5664874313019155e+00 -4.3440569903407242e+00 0.0000000000000000e+00
v -4.3608475715835544e+00 -4.4880475702719069e+00 0.0000000000000000e+00
v -4.1333281415983159e+00 -4.5941416228530834e+00 0.0000000000000000e+00
v -3.8908422040959141e+00 -4.6591155339827557e+00 0.0000000000000000e+00
v -3.8908422040959141e+00 -4.6591155339827557e+00 1.2700000000000000e+00
v -4.1333281415983159e+00 -4.5941416228530834e+00 1.2700000000000000e+00
v -4.3608475715835544e+00 -4.4880475702719069e+00 1.2700000000000000e+00
v -4.5664874313019155e+00 -4.3440569903407242e+00 1.2700000000000000e+00
v -4.7439994576746445e+00 -4.1665449639679943e+00 1.2700000000000000e+00
v -4.8879900376058281e+00 -3.9609051042496342e+00 1.2700000000000000e+00
v -4.9940840901870045e+00 -3.7333856742643956e+00 1.2700000000000000e+00
v -5.0590580013166768e+00 -3.4908997367619938e+00 1.2700000000000000e+00

vn -8.6602540378443804e-01 -5.0000000000000078e-01 -0.0000000000000000e+00
vn -9.2313874520499828e-01 -3.8446697790751966e-01 -0.0000000000000000e+00
vn -1.0000000000000000e+00 -0.0000000000000000e+00 -0.0000000000000000e+00
vn -9.2313874520499950e-01 3.8446697790751677e-01 0.0000000000000000e+00
vn -7.0737394214356408e-01 -7.0683951925191169e-01 -0.0000000000000000e+00
vn -4.9999999999999972e-01 -8.6602540378443882e-01 -0.0000000000000000e+00
vn -3.8482995923930852e-01 -9.2298748771143824e-01 -0.0000000000000000e+00
vn -6.1232339957367660e-17 -1.0000000000000000e+00 -0.0000000000000000e+00
vn 5.4898827831684151e-15 -1.0000000000000000e+00 0.0000000000000000e+00
vn 3.8482995923931368e-01 -9.2298748771143602e-01 0.0000000000000000e+00
vn 5.0000000000000100e-01 -8.6602540378443804e-01 0.0000000000000000e+00
vn 7.0737394214356608e-01 -7.0683951925190980e-01 0.0000000000000000e+00
vn 8.6602540378443937e-01 -4.9999999999999878e-01 0.0000000000000000e+00
vn 9.2313874520499950e-01 -3.8446697790751688e-01 0.0000000000000000e+00
vn 1.0000000000000000e+00 -1.2246467991473532e-16 0.0000000000000000e+00
vn 1.0000000000000000e+00 1.2246467991473532e-16 0.0000000000000000e+00
vn 9.2313874520500105e-01 3.8446697790751322e-01 0.0000000000000000e+00
vn 8.6602540378443826e-01 5.0000000000000078e-01 0.0000000000000000e+00
vn 7.0737394214356752e-01 7.0683951925190824e-01 0.0000000000000000e+00
vn 4.9999999999999867e-01 8.6602540378443937e-01 0.0000000000000000e+00
vn 3.8482995923931407e-01 9.2298748771143579e-01 0.0000000000000000e+00
vn -6.1232339957367660e-17 1.0000000000000000e+00 0.0000000000000000e+00
vn -3.8482995923931523e-01 9.2298748771143535e-01 0.0000000000000000e+00
vn -4.9999999999999972e-01 8.6602540378443882e-01 0.0000000000000000e+00
vn -7.0737394214356553e-01 7.0683951925191035e-01 0.0000000000000000e+00
vn -8.6602540378443804e-01 5.0000000000000078e-01 0.0000000000000000e+00
vn -9.2313874520499739e-01 3.8446697790752199e-01 0.0000000000000000e+00
vn -9.2313874520499817e-01 -3.8446697790752016e-01 -0.0000000000000000e+00
vn -8.6602540378443937e-01 -4.9999999999999867e-01 -0.0000000000000000e+00
vn -3.8482995923931318e-01 -9.2298748771143624e-01 -0.0000000000000000e+00
vn 3.8482995923931190e-01 -9.2298748771143679e-01 0.0000000000000000e+00
vn 4.9999999999999867e-01 -8.6602540378443937e-01 0.0000000000000000e+00
vn 7.0737394214356353e-01 -7.0683951925191235e-01 0.0000000000000000e+00
vn 8.6602540378443826e-01 -5.0000000000000078e-01 0.0000000000000000e+00
vn 9.2313874520499994e-01 3.8446697790751572e-01 0.0000000000000000e+00
vn 7.0737394214356608e-01 7.0683951925190980e-01 0.0000000000000000e+00
vn 5.0000000000000100e-01 8.6602540378443804e-01 0.0000000000000000e+00
vn 3.8482995923931368e-01 9.2298748771143602e-01 0.0000000000000000e+00
vn -3.8482995923930929e-01 9.2298748771143779e-01 0.0000000000000000e+00
vn -1.8605321233033287e-01 8.5716730070211200e-01 -4.8025870193950582e-01
vn -9.4637997921898115e-02 8.5716730070211222e-01 -5.0626857294956551e-01
vn -1.2830541275910249e-15 8.5716730070211233e-01 -5.1503807491005416e-01
vn -4.6104317830966018e-01 8.5716730070211178e-01 -2.2957222467272120e-01
vn -4.1100925648347481e-01 8.5716730070211178e-01 -3.1037978299489266e-01
vn -3.4697890737901382e-01 8.5716730070211189e-01 -3.8061773006669181e-01
vn -5.1284101328114418e-01 8.5716730070211178e-01 -4.7521718233087602e-02
vn -4.9537682765885449e-01 8.5716730070211167e-01 -1.4094685958085487e-01
vn -4.1100925648347458e-01 8.5716730070211178e-01 3.1037978299489283e-01
vn -4.6104317830966030e-01 8.5716730070211178e-01 2.2957222467272106e-01
vn -4.9537682765885449e-01 8.5716730070211167e-01 1.4094685958085496e-01
vn -9.4637997921898392e-02 8.5716730070211222e-01 5.0626857294956551e-01
vn -1.8605321233033273e-01 8.5716730070211211e-01 4.8025870193950582e-01
vn -2.7113260773909059e-01 8.5716730070211211e-01 4.3789419684172054e-01
vn 2.7113260773908832e-01 8.5716730070211267e-01 4.3789419684172076e-01
vn 1.8605321233033056e-01 8.5716730070211256e-01 4.8025870193950582e-01
vn 9.4637997921896047e-02 8.5716730070211256e-01 5.0626857294956551e-01
vn 4.9537682765885227e-01 8.5716730070211300e-01 1.4094685958085509e-01
vn 4.6104317830965802e-01 8.5716730070211289e-01 2.2957222467272126e-01
vn 4.1100925648347264e-01 8.5716730070211278e-01 3.1037978299489261e-01
vn 4.6104317830965813e-01 8.5716730070211289e-01 -2.2957222467272112e-01
vn 4.9537682765885227e-01 8.5716730070211300e-01 -1.4094685958085487e-01
vn 5.1284101328114196e-01 8.5716730070211289e-01 -4.7521718233087949e-02
vn 1.8605321233033037e-01 8.5716730070211256e-01 -4.8025870193950582e-01
vn 2.7113260773908837e-01 8.5716730070211267e-01 -4.3789419684172071e-01
vn 3.4697890737901149e-01 8.5716730070211267e-01 -3.8061773006669192e-01
vn -1.0237840801136383e-15 8.5716730070211233e-01 5.1503807491005416e-01
vn -9.4637997921898281e-02 8.5716730070211222e-01 5.0626857294956551e-01
vn -3.4697890737901382e-01 8.5716730070211189e-01 3.8061773006669175e-01
vn -5.1284101328114418e-01 8.5716730070211167e-01 4.7521718233087887e-02
vn -2.7113260773909043e-01 8.5716730070211200e-01 -4.3789419684172076e-01
vn 9.4637997921895950e-02 8.5716730070211244e-01 -5.0626857294956551e-01
vn 5.1284101328114196e-01 8.5716730070211300e-01 4.7521718233087769e-02
vn 3.4697890737901149e-01 8.5716730070211278e-01 3.8061773006669192e-01
vn 4.4603605678833852e-01 8.5716730070211289e-01 -2.5751903745502702e-01
vn -3.6925549759251824e-01 -4.6820301110607208e-16 9.2932791709799711e-01
vn -5.2643216287735606e-01 -6.6749750622332867e-16 8.5021713572961399e-01
vn -3.9999999999997715e-01 -5.0718596111218137e-16 9.1651513899117798e-01
vn -1.8374951781657078e-01 -2.3298793949425668e-16 9.8297309968390167e-01
vn -2.8294957580938301e-01 -3.5877013138293537e-16 9.5913478591347634e-01
vn -1.5393198355880033e-01 -1.9518035256794778e-16 9.8808144625716610e-01
vn -1.5393198355880014e-01 -1.9518035256794751e-16 9.8808144625716632e-01
vn -1.8374951781657056e-01 -2.3298793949425643e-16 9.8297309968390179e-01
vn 1.2246467991473532e-16 1.5528091596213558e-31 1.0000000000000000e+00
vn 1.8374951781657040e-01 2.3298793949425619e-16 9.8297309968390179e-01
vn 1.5393198355884377e-01 1.9518035256800283e-16 9.8808144625715943e-01
vn 2.8294957580942642e-01 3.5877013138299045e-16 9.5913478591346357e-01
vn 5.2643216287735572e-01 6.6749750622332837e-16 8.5021713572961422e-01
vn 3.6925549759256449e-01 4.6820301110613075e-16 9.2932791709797857e-01
vn 4.0000000000002067e-01 5.0718596111223659e-16 9.1651513899115888e-01
vn 3.6925549759256610e-01 4.6820301110613272e-16 9.2932791709797813e-01
vn 2.8294957580942692e-01 3.5877013138299099e-16 9.5913478591346335e-01
vn 1.5393198355884466e-01 1.9518035256800396e-16 9.8808144625715921e-01
vn -1.2246467991473532e-16 -1.5528091596213558e-31 1.0000000000000000e+00
vn 1.8374951781657015e-01 2.3298793949425584e-16 9.8297309968390179e-01
vn -1.5393198355879728e-01 -1.9518035256794391e-16 9.8808144625716665e-01
vn -2.8294957580938218e-01 -3.5877013138293429e-16 9.5913478591347656e-01
vn -3.6925549759251852e-01 -4.6820301110607247e-16 -9.2932791709799689e-01
vn -3.6124166618715320e-01 -4.5804175414726890e-16 -9.3247222940435570e-01
vn -3.9999999999997715e-01 -5.0718596111218137e-16 -9.1651513899117798e-01
vn -6.7369564364655732e-01 -8.5422243129997085e-16 -7.3900891722065898e-01
vn -6.7369564364655754e-01 -8.5422243129997114e-16 -7.3900891722065887e-01
vn -8.9516329135506223e-01 -1.1350356356957171e-15 -4.4573835577653853e-01
vn -8.9516329135506223e-01 -1.1350356356957171e-15 -4.4573835577653825e-01
vn -9.9573417629503458e-01 -1.2625559880411804e-15 -9.2268359463301350e-02
vn -9.6182564317281904e-01 -1.2195611581374403e-15 2.7366299007208311e-01
vn -7.9801722728023927e-01 -1.0118578360055735e-15 6.0263463637925663e-01
vn -7.9801722728023972e-01 -1.0118578360055737e-15 6.0263463637925629e-01
vn -2.8294957580938290e-01 -3.5877013138293523e-16 -9.5913478591347634e-01
vn -1.5393198355879803e-01 -1.9518035256794487e-16 -9.8808144625716665e-01
vn -4.0259294513174812e-16 -5.1047372453410265e-31 -1.0000000000000000e+00
vn 2.4553830395368334e-14 3.1133395170152731e-29 -1.0000000000000000e+00
vn 1.5393198355884385e-01 1.9518035256800295e-16 -9.8808144625715943e-01
vn 3.6124166618715248e-01 4.5804175414726791e-16 -9.3247222940435603e-01
vn 2.8294957580942720e-01 3.5877013138299138e-16 -9.5913478591346335e-01
vn 3.6925549759256426e-01 4.6820301110613045e-16 -9.2932791709797880e-01
vn 4.0000000000002439e-01 5.0718596111224132e-16 -9.1651513899115733e-01
vn 6.7369564364655687e-01 8.5422243129997026e-16 -7.3900891722065942e-01
vn 6.7369564364655665e-01 8.5422243129996986e-16 -7.3900891722065953e-01
vn 8.9516329135506223e-01 1.1350356356957171e-15 -4.4573835577653853e-01
vn 3.6124166618715225e-01 4.5804175414726761e-16 -9.3247222940435603e-01
vn 3.6925549759256593e-01 4.6820301110613262e-16 -9.2932791709797813e-01
vn 2.8294957580942826e-01 3.5877013138299272e-16 -9.5913478591346302e-01
vn 1.5393198355884580e-01 1.9518035256800541e-16 -9.8808144625715910e-01
vn -7.1637199307313247e-16 -9.0833454455166602e-31 -1.0000000000000000e+00
vn 2.3330272441183015e-14 2.9581966627727800e-29 -1.0000000000000000e+00
vn -1.5393198355879928e-01 -1.9518035256794640e-16 -9.8808144625716632e-01
vn -3.6124166618715348e-01 -4.5804175414726919e-16 -9.3247222940435559e-01
vn -2.8294957580938213e-01 -3.5877013138293419e-16 -9.5913478591347656e-01
vn -3.6925549759251880e-01 -4.6820301110607277e-16 -9.2932791709799689e-01
vn 7.9801722728023927e-01 1.0118578360055735e-15 6.0263463637925663e-01
vn 7.9801722728023972e-01 1.0118578360055737e-15 6.0263463637925629e-01
vn 9.6182564317281904e-01 1.2195611581374403e-15 2.7366299007208289e-01
vn 9.6182564317281893e-01 1.2195611581374403e-15 2.7366299007208339e-01
vn 9.9573417629503447e-01 1.2625559880411804e-15 -9.2268359463302016e-02
vn 8.9516329135506223e-01 1.1350356356957171e-15 -4.4573835577653825e-01
vn 0.0000000000000000e+00 1.0000000000000000e+00 -0.0000000000000000e+00
vn -1.0000000000000000e+00 -1.3164293390645775e-15 0.0000000000000000e+00
vn -1.5258612793702905e-15 -1.0000000000000000e+00 0.0000000000000000e+00
vn 1.0000000000000000e+00 0.0000000000000000e+00 -0.0000000000000000e+00
vn -1.0000000000000000e+00 -1.9108007824536924e-15 0.0000000000000000e+00
vn -1.2334269601023854e-15 1.0000000000000000e+00 -0.0000000000000000e+00
vn -1.7364817766693166e-01 9.8480775301220791e-01 -0.0000000000000000e+00
vn -3.4202014332567032e-01 9.3969262078590776e-01 -0.0000000000000000e+00
vn -5.0000000000000144e-01 8.6602540378443782e-01 -0.0000000000000000e+00
vn -6.4278760968654081e-01 7.6604444311897679e-01 -0.0000000000000000e+00
vn -7.6604444311897923e-01 6.4278760968653770e-01 -0.0000000000000000e+00
vn -8.6602540378443982e-01 4.9999999999999806e-01 -0.0000000000000000e+00
vn -9.3969262078590898e-01 3.4202014332566699e-01 -0.0000000000000000e+00
vn -9.8480775301220846e-01 1.7364817766692789e-01 -0.0000000000000000e+00
vn -1.0000000000000000e+00 -2.5044622496952055e-15 0.0000000000000000e+00
vn -1.2679649027805257e-15 1.0000000000000000e+00 0.0000000000000000e+00
vn 1.0000000000000000e+00 1.5417837001279802e-15 -0.0000000000000000e+00
vn 1.0000000000000000e+00 1.5417837001279796e-15 -0.0000000000000000e+00
vn 9.8480775301220769e-01 1.7364817766693175e-01 -0.0000000000000000e+00
vn 9.3969262078590798e-01 3.4202014332567021e-01 -0.0000000000000000e+00
vn 8.6602540378443815e-01 5.0000000000000111e-01 -0.0000000000000000e+00
vn 7.6604444311897713e-01 6.4278760968654047e-01 -0.0000000000000000e+00
vn 6.4278760968653836e-01 7.6604444311897890e-01 -0.0000000000000000e+00
vn 4.9999999999999895e-01 8.6602540378443915e-01 -0.0000000000000000e+00
vn 3.4202014332566755e-01 9.3969262078590887e-01 -0.0000000000000000e+00
vn 1.7364817766692911e-01 9.8480775301220835e-01 -0.0000000000000000e+00
vn -1.2585067552455805e-15 1.0000000000000000e+00 -0.0000000000000000e+00
vn 1.0000000000000000e+00 1.1942504890335793e-15 -0.0000000000000000e+00
vn 7.7089185006399015e-17 -1.0000000000000000e+00 -0.0000000000000000e+00
vn 1.7364817766693050e-01 -9.8480775301220813e-01 -0.0000000000000000e+00
vn 3.4202014332566893e-01 -9.3969262078590832e-01 -0.0000000000000000e+00
vn 5.0000000000000022e-01 -8.6602540378443849e-01 -0.0000000000000000e+00
vn 6.4278760968653947e-01 -7.6604444311897790e-01 -0.0000000000000000e+00
vn 7.6604444311897835e-01 -6.4278760968653903e-01 -0.0000000000000000e+00
vn 8.6602540378443893e-01 -4.9999999999999967e-01 -0.0000000000000000e+00
vn 9.3969262078590865e-01 -3.4202014332566816e-01 -0.0000000000000000e+00
vn 9.8480775301220813e-01 -1.7364817766692972e-01 -0.0000000000000000e+00
vn 1.0000000000000000e+00 6.8199065982412518e-16 -0.0000000000000000e+00
vn 0.0000000000000000e+00 -1.0000000000000000e+00 0.0000000000000000e+00
vn -9.8480775301220791e-01 -1.7364817766693055e-01 0.0000000000000000e+00
vn -9.3969262078590843e-01 -3.4202014332566888e-01 0.0000000000000000e+00
vn -8.6602540378443849e-01 -5.0000000000000011e-01 0.0000000000000000e+00
vn -7.6604444311897790e-01 -6.4278760968653970e-01 0.0000000000000000e+00
vn -6.4278760968653936e-01 -7.6604444311897824e-01 0.0000000000000000e+00
vn -4.9999999999999967e-01 -8.6602540378443882e-01 0.0000000000000000e+00
vn -3.4202014332566844e-01 -9.3969262078590865e-01 0.0000000000000000e+00
vn -1.7364817766693000e-01 -9.8480775301220813e-01 0.0000000000000000e+00
vn 3.8285686989269494e-16 -1.0000000000000000e+00 -0.0000000000000000e+00
vn 0.0000000000000000e+00 0.0000000000000000e+00 1.0000000000000000e+00
vn 0.0000000000000000e+00 -0.0000000000000000e+00 -1.0000000000000000e+00

g face 0
f 2//1 28//2 1//3
f 1//3 28//2 13//3
f 1//3 13//3 14//4
f 28//2 2//1 27//5
f 27//5 2//1 3//6
f 27//5 3//6 26//7
f 26//7 3//6 4//8
f 26//7 4//8 25//9
f 25//9 4//8 24//10
f 24//10 4//8 5//11
f 24//10 5//11 23//12
f 23//12 5//11 6//13
f 23//12 6//13 22//14
f 22//14 6//13 7//15
f 22//14 7//15 21//15
f 21//16 7//16 20//17
f 20//17 7//16 8//18
f 20//17 8//18 19//19
f 19//19 8//18 9//20
f 19//19 9//20 18//21
f 18//21 9//20 10//22
f 18//21 10//22 17//22
f 17//22 10//22 16//23
f 16//23 10//22 11//24
f 16//23 11//24 15//25
f 15//25 11//24 12//26
f 15//25 12//26 14//4
f 14//4 12//26 1//3

g face 1
f 44//27 29//3 51//3
f 51//3 29//3 30//28
f 51//3 30//28 50//29
f 50//29 30//28 31//5
f 50//29 31//5 49//6
f 49//6 31//5 32//30
f 49//6 32//30 48//8
f 48//8 32//30 33//8
f 48//8 33//8 34//31
f 48//8 34//31 47//32
f 47//32 34//31 35//33
f 47//32 35//33 46//34
f 46//34 35//33 36//14
f 46//34 36//14 45//15
f 45//15 36//14 37//15
f 45//16 37//16 38//35
f 45//16 38//35 56//18
f 56//18 38//35 39//36
f 56//18 39//36 55//37
f 55//37 39//36 40//38
f 55//37 40//38 54//22
f 54//22 40//38 41//22
f 54//22 41//22 42//39
f 54//22 42//39 53//24
f 53//24 42//39 43//25
f 53//24 43//25 52//26
f 52//26 43//25 44//27
f 52//26 44//27 51//3

g face 2
f 58//40 74//41 57//42
f 60//43 74//44 59//45
f 61//46 74//47 60//43
f 63//48 74//49 62//50
f 65//51 74//52 64//53
f 67//54 74//55 66//56
f 69//57 74//58 68//59
f 71//60 74//61 70//62
f 73//63 74//64 72//65
f 66//56 74//66 65//67
f 64//53 74//68 63//48
f 62//50 74//69 61//46
f 59//45 74//70 58//40
f 57//42 74//71 73//63
f 70//62 74//72 69//57
f 68//59 74//73 67//54
f 72//65 74//74 71//60

g face 3
f 44//75 64//76 29//77
f 29//77 64//76 82//76
f 29//77 82//76 30//75
f 30//75 82//76 83//78
f 30//75 83//78 31//79
f 31//79 83//78 32//80
f 32//81 83//82 33//83
f 33//83 83//82 84//84
f 33//83 84//84 34//85
f 34//85 84//84 35//86
f 35//86 84//84 85//87
f 35//86 85//87 36//88
f 36//88 85//87 37//89
f 37//89 85//87 67//87
f 37//89 67//87 38//90
f 38//90 67//87 66//84
f 38//90 66//84 39//91
f 39//91 66//84 40//92
f 40//92 66//84 41//83
f 41//93 66//94 65//78
f 41//93 65//78 42//95
f 42//95 65//78 43//96
f 43//96 65//78 64//76
f 43//96 64//76 44//75
f 28//97 76//98 13//99
f 13//99 76//98 77//100
f 13//99 77//100 59//101
f 59//101 77//100 78//102
f 59//101 78//102 60//103
f 60//103 78//102 79//104
f 60//103 79//104 61//104
f 61//104 79//104 80//105
f 61//104 80//105 62//105
f 62//105 80//105 81//106
f 62//105 81//106 63//107
f 63//107 81//106 82//76
f 63//107 82//76 64//76
f 28//97 27//108 76//98
f 76//98 27//108 26//109
f 76//98 26//109 75//110
f 75//110 26//109 25//111
f 75//110 25//111 24//112
f 75//110 24//112 91//113
f 91//113 24//112 23//114
f 91//113 23//114 22//115
f 22//115 21//116 91//113
f 91//113 21//116 90//117
f 90//117 21//116 72//118
f 90//117 72//118 71//119
f 72//118 21//116 73//120
f 73//120 21//116 20//121
f 73//120 20//121 19//122
f 19//122 18//123 73//120
f 73//120 18//123 57//124
f 57//124 18//123 17//125
f 57//124 17//125 16//126
f 57//124 16//126 58//127
f 58//127 16//126 15//128
f 58//127 15//128 14//129
f 14//129 13//99 58//127
f 58//127 13//99 59//101
f 85//87 86//130 67//87
f 67//87 86//130 68//131
f 68//131 86//130 87//132
f 68//131 87//132 69//133
f 69//133 87//132 88//134
f 69//133 88//134 70//134
f 70//134 88//134 89//135
f 70//134 89//135 71//119
f 71//119 89//135 90//117

g face 4
f 92//136 93//136 95//136
f 95//136 93//136 94//136

g face 5
f 96//137 92//137 97//137
f 97//137 92//137 95//137

g face 6
f 98//138 96//138 99//138
f 99//138 96//138 97//138

g face 7
f 93//139 98//139 94//139
f 94//139 98//139 99//139

g face 8
f 100//140 101//140 103//140
f 103//140 101//140 102//140

g face 9
f 121//141 104//141 120//142
f 120//142 104//141 105//142
f 120//142 105//142 106//143
f 120//142 106//143 119//143
f 119//143 106//143 107//144
f 119//143 107//144 118//144
f 118//144 107//144 108//145
f 118//144 108//145 117//145
f 117//145 108//145 109//146
f 117//145 109//146 116//146
f 116//146 109//146 110//147
f 116//146 110//147 115//147
f 115//147 110//147 111//148
f 115//147 111//148 114//148
f 114//148 111//148 112//149
f 114//148 112//149 113//149
f 113//149 112//149 103//150
f 103//150 112//149 100//150

g face 10
f 91//151 121//151 75//151
f 75//151 121//151 123//151
f 75//151 123//151 76//151
f 76//151 123//151 77//151
f 77//151 123//151 78//151
f 78//151 123//151 79//151
f 79//151 123//151 122//151
f 79//151 122//151 80//151
f 80//151 122//151 81//151
f 81//151 122//151 82//151
f 82//151 122//151 83//151
f 83//151 122//151 104//151
f 83//151 104//151 84//151
f 84//151 104//151 85//151
f 85//151 104//151 86//151
f 86//151 104//151 87//151
f 87//151 104//151 88//151
f 88//151 104//151 121//151
f 88//151 121//151 89//151
f 89//151 121//151 90//151
f 90//151 121//151 91//151

g face 11
f 141//152 124//153 140//154
f 140//154 124//153 125//154
f 140//154 125//154 126//155
f 140//154 126//155 139//155
f 139//155 126//155 127//156
f 139//155 127//156 138//156
f 138//156 127//156 128//157
f 138//156 128//157 137//157
f 137//157 128//157 129//158
f 137//157 129//158 136//158
f 136//158 129//158 130//159
f 136//158 130//159 135//159
f 135//159 130//159 131//160
f 135//159 131//160 134//160
f 134//160 131//160 132//161
f 134//160 132//161 133//161
f 133//161 132//161 123//162
f 123//162 132//161 122//162

g face 12
f 142//163 124//163 143//163
f 143//163 124//163 141//163

g face 13
f 161//164 144//164 160//165
f 160//165 144//164 145//165
f 160//165 145//165 146//166
f 160//165 146//166 159//166
f 159//166 146//166 147//167
f 159//166 147//167 158//167
f 158//167 147//167 148//168
f 158//167 148//168 157//168
f 157//168 148//168 149//169
f 157//168 149//169 156//169
f 156//169 149//169 150//170
f 156//169 150//170 155//170
f 155//170 150//170 151//171
f 155//170 151//171 154//171
f 154//171 151//171 152//172
f 154//171 152//172 153//172
f 153//172 152//172 143//173
f 143//173 152//172 142//173

g face 14
f 162//174 144//174 163//174
f 163//174 144//174 161//174

g face 15
f 102//3 101//3 179//175
f 179//175 101//3 164//175
f 179//175 164//175 165//176
f 179//175 165//176 178//176
f 178//176 165//176 166//177
f 178//176 166//177 177//177
f 177//177 166//177 167//178
f 177//177 167//178 176//178
f 176//178 167//178 168//179
f 176//178 168//179 175//179
f 175//179 168//179 169//180
f 175//179 169//180 174//180
f 174//180 169//180 170//181
f 174//180 170//181 173//181
f 173//181 170//181 171//182
f 173//181 171//182 172//182
f 172//182 171//182 163//183
f 163//183 171//182 162//183

g face 16
f 12//184 97//184 1//184
f 1//184 97//184 135//184
f 1//184 135//184 134//184
f 12//184 11//184 97//184
f 97//184 11//184 10//184
f 97//184 10//184 99//184
f 99//184 10//184 9//184
f 99//184 9//184 8//184
f 8//184 7//184 99//184
f 99//184 7//184 118//184
f 99//184 118//184 117//184
f 6//184 121//184 7//184
f 7//184 121//184 119//184
f 7//184 119//184 118//184
f 6//184 5//184 121//184
f 121//184 5//184 4//184
f 121//184 4//184 123//184
f 123//184 4//184 3//184
f 123//184 3//184 2//184
f 2//184 1//184 123//184
f 123//184 1//184 134//184
f 123//184 134//184 133//184
f 99//184 103//184 94//184
f 94//184 103//184 102//184
f 94//184 102//184 179//184
f 95//184 141//184 97//184
f 97//184 141//184 140//184
f 97//184 140//184 139//184
f 94//184 161//184 95//184
f 95//184 161//184 160//184
f 95//184 160//184 159//184
f 179//184 178//184 94//184
f 94//184 178//184 177//184
f 94//184 177//184 176//184
f 176//184 175//184 94//184
f 94//184 175//184 174//184
f 94//184 174//184 173//184
f 173//184 172//184 94//184
f 94//184 172//184 163//184
f 94//184 163//184 161//184
f 159//184 158//184 95//184
f 95//184 158//184 157//184
f 95//184 157//184 156//184
f 156//184 155//184 95//184
f 95//184 155//184 154//184
f 95//184 154//184 153//184
f 153//184 143//184 95//184
f 95//184 143//184 141//184
f 139//184 138//184 97//184
f 97//184 138//184 137//184
f 97//184 137//184 136//184
f 136//184 135//184 97//184
f 121//184 120//184 119//184
f 117//184 116//184 99//184
f 99//184 116//184 115//184
f 99//184 115//184 114//184
f 114//184 113//184 99//184
f 99//184 113//184 103//184

g face 17
f 56//185 98//185 45//185
f 45//185 98//185 107//185
f 45//185 107//185 106//185
f 56//185 55//185 98//185
f 98//185 55//185 54//185
f 98//185 54//185 96//185
f 96//185 54//185 53//185
f 96//185 53//185 52//185
f 52//185 51//185 96//185
f 96//185 51//185 130//185
f 96//185 130//185 129//185
f 50//185 122//185 51//185
f 51//185 122//185 131//185
f 51//185 131//185 130//185
f 50//185 49//185 122//185
f 122//185 49//185 48//185
f 122//185 48//185 104//185
f 104//185 48//185 47//185
f 104//185 47//185 46//185
f 46//185 45//185 104//185
f 104//185 45//185 106//185
f 104//185 106//185 105//185
f 93//185 100//185 98//185
f 98//185 100//185 112//185
f 98//185 112//185 111//185
f 92//185 162//185 93//185
f 93//185 162//185 171//185
f 93//185 171//185 170//185
f 96//185 124//185 92//185
f 92//185 124//185 142//185
f 92//185 142//185 152//185
f 170//185 169//185 93//185
f 93//185 169//185 168//185
f 93//185 168//185 167//185
f 167//185 166//185 93//185
f 93//185 166//185 165//185
f 93//185 165//185 164//185
f 164//185 101//185 93//185
f 93//185 101//185 100//185
f 111//185 110//185 98//185
f 98//185 110//185 109//185
f 98//185 109//185 108//185
f 108//185 107//185 98//185
f 122//185 132//185 131//185
f 129//185 128//185 96//185
f 96//185 128//185 127//185
f 96//185 127//185 126//185
f 126//185 125//185 96//185
f 96//185 125//185 124//185
f 152//185 151//185 92//185
f 92//185 151//185 150//185
f 92//185 150//185 149//185
f 149//185 148//185 92//185
f 92//185 148//185 147//185
f 92//185 147//185 146//185
f 146//185 145//185 92//185
f 92//185 145//185 144//185
f 92//185 144//185 162//185

g halfedge 0 edge 0
l 1 12 11 10 9 8 7 6 5 4 3 2 1

g halfedge 1 edge 0
l 1 2 3 4 5 6 7 8 9 10 11 12 1

g halfedge 2 edge 1
l 13 28 27 26 25 24 23 22 21 20 19 18 17 16 15 14 13

g halfedge 3 edge 1
l 13 14 15 16 17 18 19 20 21 22 23 24 25 26 27 28 13

g halfedge 4 edge 2
l 29 44 43 42 41 40 39 38 37 36 35 34 33 32 31 30 29

g halfedge 5 edge 2
l 29 30 31 32 33 34 35 36 37 38 39 40 41 42 43 44 29

g halfedge 6 edge 3
l 45 56 55 54 53 52 51 50 49 48 47 46 45

g halfedge 7 edge 3
l 45 46 47 48 49 50 51 52 53 54 55 56 45

g halfedge 8 edge 4
l 57 73 72 71 70 69 68 67 66 65 64 63 62 61 60 59 58 57

g halfedge 9 edge 4
l 57 58 59 60 61 62 63 64 65 66 67 68 69 70 71 72 73 57

g halfedge 10 edge 5
l

g halfedge 11 edge 6
l 75 91 90 89 88 87 86 85 84 83 82 81 80 79 78 77 76 75

g halfedge 12 edge 6
l 75 76 77 78 79 80 81 82 83 84 85 86 87 88 89 90 91 75

g halfedge 13 edge 7
l 92 93

g halfedge 14 edge 7
l 93 92

g halfedge 15 edge 8
l 94 93

g halfedge 16 edge 8
l 93 94

g halfedge 17 edge 9
l 94 95

g halfedge 18 edge 9
l 95 94

g halfedge 19 edge 10
l 92 95

g halfedge 20 edge 10
l 95 92

g halfedge 21 edge 11
l 96 92

g halfedge 22 edge 11
l 92 96

g halfedge 23 edge 12
l 95 97

g halfedge 24 edge 12
l 97 95

g halfedge 25 edge 13
l 96 97

g halfedge 26 edge 13
l 97 96

g halfedge 27 edge 14
l 98 96

g halfedge 28 edge 14
l 96 98

g halfedge 29 edge 15
l 97 99

g halfedge 30 edge 15
l 99 97

g halfedge 31 edge 16
l 98 99

g halfedge 32 edge 16
l 99 98

g halfedge 33 edge 17
l 93 98

g halfedge 34 edge 17
l 98 93

g halfedge 35 edge 18
l 99 94

g halfedge 36 edge 18
l 94 99

g halfedge 37 edge 19
l 100 101

g halfedge 38 edge 19
l 101 100

g halfedge 39 edge 20
l 102 101

g halfedge 40 edge 20
l 101 102

g halfedge 41 edge 21
l 102 103

g halfedge 42 edge 21
l 103 102

g halfedge 43 edge 22
l 100 103

g halfedge 44 edge 22
l 103 100

g halfedge 45 edge 23
l 104 105 106 107 108 109 110 111 112 100

g halfedge 46 edge 23
l 100 112 111 110 109 108 107 106 105 104

g halfedge 47 edge 24
l 103 113 114 115 116 117 118 119 120 121

g halfedge 48 edge 24
l 121 120 119 118 117 116 115 114 113 103

g halfedge 49 edge 25
l 104 121

g halfedge 50 edge 25
l 121 104

g halfedge 51 edge 26
l 122 104

g halfedge 52 edge 26
l 104 122

g halfedge 53 edge 27
l 121 123

g halfedge 54 edge 27
l 123 121

g halfedge 55 edge 28
l 122 123

g halfedge 56 edge 28
l 123 122

g halfedge 57 edge 29
l 124 125 126 127 128 129 130 131 132 122

g halfedge 58 edge 29
l 122 132 131 130 129 128 127 126 125 124

g halfedge 59 edge 30
l 123 133 134 135 136 137 138 139 140 141

g halfedge 60 edge 30
l 141 140 139 138 137 136 135 134 133 123

g halfedge 61 edge 31
l 124 141

g halfedge 62 edge 31
l 141 124

g halfedge 63 edge 32
l 142 124

g halfedge 64 edge 32
l 124 142

g halfedge 65 edge 33
l 141 143

g halfedge 66 edge 33
l 143 141

g halfedge 67 edge 34
l 142 143

g halfedge 68 edge 34
l 143 142

g halfedge 69 edge 35
l 144 145 146 147 148 149 150 151 152 142

g halfedge 70 edge 35
l 142 152 151 150 149 148 147 146 145 144

g halfedge 71 edge 36
l 143 153 154 155 156 157 158 159 160 161

g halfedge 72 edge 36
l 161 160 159 158 157 156 155 154 153 143

g halfedge 73 edge 37
l 144 161

g halfedge 74 edge 37
l 161 144

g halfedge 75 edge 38
l 162 144

g halfedge 76 edge 38
l 144 162

g halfedge 77 edge 39
l 161 163

g halfedge 78 edge 39
l 163 161

g halfedge 79 edge 40
l 162 163

g halfedge 80 edge 40
l 163 162

g halfedge 81 edge 41
l 101 164 165 166 167 168 169 170 171 162

g halfedge 82 edge 41
l 162 171 170 169 168 167 166 165 164 101

g halfedge 83 edge 42
l 163 172 173 174 175 176 177 178 179 102

g halfedge 84 edge 42
l 102 179 178 177 176 175 174 173 172 163

g vertex 0
p 1

g vertex 1
p 13

g vertex 2
p 29

g vertex 3
p 45

g vertex 4
p 57

g vertex 5
p 74

g vertex 6
p 75

g vertex 7
p 92

g vertex 8
p 93

g vertex 9
p 94

g vertex 10
p 95

g vertex 11
p 96

g vertex 12
p 97

g vertex 13
p 98

g vertex 14
p 99

g vertex 15
p 100

g vertex 16
p 101

g vertex 17
p 102

g vertex 18
p 103

g vertex 19
p 104

g vertex 20
p 121

g vertex 21
p 122

g vertex 22
p 123

g vertex 23
p 124

g vertex 24
p 141

g vertex 25
p 142

g vertex 26
p 143

g vertex 27
p 144

g vertex 28
p 161

g vertex 29
p 162

g vertex 30
p 163

# End of file
