ISO-10303-21;
HEADER;
/* Generated by software containing ST-Developer
 * from STEP Tools, Inc. (www.steptools.com) 
 */

FILE_DESCRIPTION(
/* description */ (''),
/* implementation_level */ '2;1');

FILE_NAME(
/* name */ 
'C:\\Users\\designnet\\AppData\\Local\\Temp\\derivatives\\23218_02d26a
b4\\AssemblyExtractor\\23218_02d26ab4\\9c25ea7a-055e-11ec-b836-0acddec
473cb.step',
/* time_stamp */ '2021-08-25T04:40:50+00:00',
/* author */ (''),
/* organization */ (''),
/* preprocessor_version */ 'ST-DEVELOPER v18.1',
/* originating_system */ 'Autodesk Translation Framework v10.6.0.1341',

/* authorisation */ '');

FILE_SCHEMA (('AUTOMOTIVE_DESIGN { 1 0 10303 214 3 1 1 }'));
ENDSEC;

DATA;
#10=MECHANICAL_DESIGN_GEOMETRIC_PRESENTATION_REPRESENTATION('',(#13),#405);
#11=SHAPE_REPRESENTATION_RELATIONSHIP('SRR','None',#412,#12);
#12=ADVANCED_BREP_SHAPE_REPRESENTATION('',(#14),#404);
#13=STYLED_ITEM('',(#421),#14);
#14=MANIFOLD_SOLID_BREP('Body1',#241);
#15=FACE_BOUND('',#49,.T.);
#16=FACE_BOUND('',#50,.T.);
#17=PLANE('',#263);
#18=PLANE('',#264);
#19=PLANE('',#265);
#20=PLANE('',#266);
#21=PLANE('',#267);
#22=PLANE('',#268);
#23=PLANE('',#269);
#24=PLANE('',#270);
#25=PLANE('',#271);
#26=PLANE('',#272);
#27=CYLINDRICAL_SURFACE('',#257,0.15875);
#28=CYLINDRICAL_SURFACE('',#261,0.15875);
#29=FACE_OUTER_BOUND('',#43,.T.);
#30=FACE_OUTER_BOUND('',#44,.T.);
#31=FACE_OUTER_BOUND('',#45,.T.);
#32=FACE_OUTER_BOUND('',#46,.T.);
#33=FACE_OUTER_BOUND('',#47,.T.);
#34=FACE_OUTER_BOUND('',#48,.T.);
#35=FACE_OUTER_BOUND('',#51,.T.);
#36=FACE_OUTER_BOUND('',#52,.T.);
#37=FACE_OUTER_BOUND('',#53,.T.);
#38=FACE_OUTER_BOUND('',#54,.T.);
#39=FACE_OUTER_BOUND('',#55,.T.);
#40=FACE_OUTER_BOUND('',#56,.T.);
#41=FACE_OUTER_BOUND('',#57,.T.);
#42=FACE_OUTER_BOUND('',#58,.T.);
#43=EDGE_LOOP('',(#165,#166,#167));
#44=EDGE_LOOP('',(#168,#169,#170,#171));
#45=EDGE_LOOP('',(#172,#173,#174));
#46=EDGE_LOOP('',(#175,#176,#177,#178));
#47=EDGE_LOOP('',(#179,#180,#181,#182));
#48=EDGE_LOOP('',(#183,#184,#185,#186));
#49=EDGE_LOOP('',(#187));
#50=EDGE_LOOP('',(#188));
#51=EDGE_LOOP('',(#189,#190,#191,#192,#193));
#52=EDGE_LOOP('',(#194,#195,#196,#197));
#53=EDGE_LOOP('',(#198,#199,#200,#201));
#54=EDGE_LOOP('',(#202,#203,#204,#205,#206));
#55=EDGE_LOOP('',(#207,#208,#209,#210));
#56=EDGE_LOOP('',(#211,#212,#213,#214));
#57=EDGE_LOOP('',(#215,#216,#217,#218,#219,#220));
#58=EDGE_LOOP('',(#221,#222,#223,#224));
#59=LINE('',#342,#85);
#60=LINE('',#346,#86);
#61=LINE('',#351,#87);
#62=LINE('',#355,#88);
#63=LINE('',#359,#89);
#64=LINE('',#361,#90);
#65=LINE('',#363,#91);
#66=LINE('',#364,#92);
#67=LINE('',#367,#93);
#68=LINE('',#369,#94);
#69=LINE('',#370,#95);
#70=LINE('',#373,#96);
#71=LINE('',#375,#97);
#72=LINE('',#376,#98);
#73=LINE('',#379,#99);
#74=LINE('',#381,#100);
#75=LINE('',#382,#101);
#76=LINE('',#385,#102);
#77=LINE('',#386,#103);
#78=LINE('',#389,#104);
#79=LINE('',#391,#105);
#80=LINE('',#392,#106);
#81=LINE('',#395,#107);
#82=LINE('',#396,#108);
#83=LINE('',#398,#109);
#84=LINE('',#400,#110);
#85=VECTOR('',#279,0.079375);
#86=VECTOR('',#284,0.15875);
#87=VECTOR('',#289,0.079375);
#88=VECTOR('',#294,0.15875);
#89=VECTOR('',#297,1.);
#90=VECTOR('',#298,1.);
#91=VECTOR('',#299,1.);
#92=VECTOR('',#300,1.);
#93=VECTOR('',#303,1.);
#94=VECTOR('',#304,1.);
#95=VECTOR('',#305,1.);
#96=VECTOR('',#308,1.);
#97=VECTOR('',#309,1.);
#98=VECTOR('',#310,1.);
#99=VECTOR('',#313,1.);
#100=VECTOR('',#314,1.);
#101=VECTOR('',#315,1.);
#102=VECTOR('',#318,1.);
#103=VECTOR('',#319,1.);
#104=VECTOR('',#322,1.);
#105=VECTOR('',#323,1.);
#106=VECTOR('',#324,1.);
#107=VECTOR('',#327,1.);
#108=VECTOR('',#328,1.);
#109=VECTOR('',#331,1.);
#110=VECTOR('',#334,1.);
#111=CIRCLE('',#256,0.15875);
#112=CIRCLE('',#258,0.15875);
#113=CIRCLE('',#260,0.15875);
#114=CIRCLE('',#262,0.15875);
#115=VERTEX_POINT('',#339);
#116=VERTEX_POINT('',#341);
#117=VERTEX_POINT('',#344);
#118=VERTEX_POINT('',#348);
#119=VERTEX_POINT('',#350);
#120=VERTEX_POINT('',#353);
#121=VERTEX_POINT('',#357);
#122=VERTEX_POINT('',#358);
#123=VERTEX_POINT('',#360);
#124=VERTEX_POINT('',#362);
#125=VERTEX_POINT('',#366);
#126=VERTEX_POINT('',#368);
#127=VERTEX_POINT('',#372);
#128=VERTEX_POINT('',#374);
#129=VERTEX_POINT('',#378);
#130=VERTEX_POINT('',#380);
#131=VERTEX_POINT('',#384);
#132=VERTEX_POINT('',#388);
#133=VERTEX_POINT('',#390);
#134=VERTEX_POINT('',#394);
#135=EDGE_CURVE('',#115,#115,#111,.T.);
#136=EDGE_CURVE('',#115,#116,#59,.T.);
#137=EDGE_CURVE('',#117,#117,#112,.T.);
#138=EDGE_CURVE('',#117,#115,#60,.T.);
#139=EDGE_CURVE('',#118,#118,#113,.T.);
#140=EDGE_CURVE('',#118,#119,#61,.T.);
#141=EDGE_CURVE('',#120,#120,#114,.T.);
#142=EDGE_CURVE('',#120,#118,#62,.T.);
#143=EDGE_CURVE('',#121,#122,#63,.T.);
#144=EDGE_CURVE('',#122,#123,#64,.T.);
#145=EDGE_CURVE('',#123,#124,#65,.T.);
#146=EDGE_CURVE('',#124,#121,#66,.T.);
#147=EDGE_CURVE('',#125,#122,#67,.T.);
#148=EDGE_CURVE('',#126,#125,#68,.T.);
#149=EDGE_CURVE('',#123,#126,#69,.T.);
#150=EDGE_CURVE('',#121,#127,#70,.T.);
#151=EDGE_CURVE('',#127,#128,#71,.T.);
#152=EDGE_CURVE('',#128,#125,#72,.T.);
#153=EDGE_CURVE('',#121,#129,#73,.T.);
#154=EDGE_CURVE('',#130,#129,#74,.T.);
#155=EDGE_CURVE('',#127,#130,#75,.T.);
#156=EDGE_CURVE('',#124,#131,#76,.T.);
#157=EDGE_CURVE('',#129,#131,#77,.T.);
#158=EDGE_CURVE('',#126,#132,#78,.T.);
#159=EDGE_CURVE('',#132,#133,#79,.T.);
#160=EDGE_CURVE('',#133,#124,#80,.T.);
#161=EDGE_CURVE('',#133,#134,#81,.T.);
#162=EDGE_CURVE('',#131,#134,#82,.T.);
#163=EDGE_CURVE('',#128,#132,#83,.T.);
#164=EDGE_CURVE('',#134,#130,#84,.T.);
#165=ORIENTED_EDGE('',*,*,#135,.F.);
#166=ORIENTED_EDGE('',*,*,#136,.T.);
#167=ORIENTED_EDGE('',*,*,#136,.F.);
#168=ORIENTED_EDGE('',*,*,#137,.F.);
#169=ORIENTED_EDGE('',*,*,#138,.T.);
#170=ORIENTED_EDGE('',*,*,#135,.T.);
#171=ORIENTED_EDGE('',*,*,#138,.F.);
#172=ORIENTED_EDGE('',*,*,#139,.F.);
#173=ORIENTED_EDGE('',*,*,#140,.T.);
#174=ORIENTED_EDGE('',*,*,#140,.F.);
#175=ORIENTED_EDGE('',*,*,#141,.F.);
#176=ORIENTED_EDGE('',*,*,#142,.T.);
#177=ORIENTED_EDGE('',*,*,#139,.T.);
#178=ORIENTED_EDGE('',*,*,#142,.F.);
#179=ORIENTED_EDGE('',*,*,#143,.T.);
#180=ORIENTED_EDGE('',*,*,#144,.T.);
#181=ORIENTED_EDGE('',*,*,#145,.T.);
#182=ORIENTED_EDGE('',*,*,#146,.T.);
#183=ORIENTED_EDGE('',*,*,#144,.F.);
#184=ORIENTED_EDGE('',*,*,#147,.F.);
#185=ORIENTED_EDGE('',*,*,#148,.F.);
#186=ORIENTED_EDGE('',*,*,#149,.F.);
#187=ORIENTED_EDGE('',*,*,#137,.T.);
#188=ORIENTED_EDGE('',*,*,#141,.T.);
#189=ORIENTED_EDGE('',*,*,#143,.F.);
#190=ORIENTED_EDGE('',*,*,#150,.T.);
#191=ORIENTED_EDGE('',*,*,#151,.T.);
#192=ORIENTED_EDGE('',*,*,#152,.T.);
#193=ORIENTED_EDGE('',*,*,#147,.T.);
#194=ORIENTED_EDGE('',*,*,#150,.F.);
#195=ORIENTED_EDGE('',*,*,#153,.T.);
#196=ORIENTED_EDGE('',*,*,#154,.F.);
#197=ORIENTED_EDGE('',*,*,#155,.F.);
#198=ORIENTED_EDGE('',*,*,#146,.F.);
#199=ORIENTED_EDGE('',*,*,#156,.T.);
#200=ORIENTED_EDGE('',*,*,#157,.F.);
#201=ORIENTED_EDGE('',*,*,#153,.F.);
#202=ORIENTED_EDGE('',*,*,#145,.F.);
#203=ORIENTED_EDGE('',*,*,#149,.T.);
#204=ORIENTED_EDGE('',*,*,#158,.T.);
#205=ORIENTED_EDGE('',*,*,#159,.T.);
#206=ORIENTED_EDGE('',*,*,#160,.T.);
#207=ORIENTED_EDGE('',*,*,#160,.F.);
#208=ORIENTED_EDGE('',*,*,#161,.T.);
#209=ORIENTED_EDGE('',*,*,#162,.F.);
#210=ORIENTED_EDGE('',*,*,#156,.F.);
#211=ORIENTED_EDGE('',*,*,#152,.F.);
#212=ORIENTED_EDGE('',*,*,#163,.T.);
#213=ORIENTED_EDGE('',*,*,#158,.F.);
#214=ORIENTED_EDGE('',*,*,#148,.T.);
#215=ORIENTED_EDGE('',*,*,#151,.F.);
#216=ORIENTED_EDGE('',*,*,#155,.T.);
#217=ORIENTED_EDGE('',*,*,#164,.F.);
#218=ORIENTED_EDGE('',*,*,#161,.F.);
#219=ORIENTED_EDGE('',*,*,#159,.F.);
#220=ORIENTED_EDGE('',*,*,#163,.F.);
#221=ORIENTED_EDGE('',*,*,#162,.T.);
#222=ORIENTED_EDGE('',*,*,#164,.T.);
#223=ORIENTED_EDGE('',*,*,#154,.T.);
#224=ORIENTED_EDGE('',*,*,#157,.T.);
#225=CONICAL_SURFACE('',#255,0.079375,1.02974425867665);
#226=CONICAL_SURFACE('',#259,0.079375,1.02974425867665);
#227=ADVANCED_FACE('',(#29),#225,.F.);
#228=ADVANCED_FACE('',(#30),#27,.F.);
#229=ADVANCED_FACE('',(#31),#226,.F.);
#230=ADVANCED_FACE('',(#32),#28,.F.);
#231=ADVANCED_FACE('',(#33),#17,.T.);
#232=ADVANCED_FACE('',(#34,#15,#16),#18,.T.);
#233=ADVANCED_FACE('',(#35),#19,.T.);
#234=ADVANCED_FACE('',(#36),#20,.F.);
#235=ADVANCED_FACE('',(#37),#21,.F.);
#236=ADVANCED_FACE('',(#38),#22,.T.);
#237=ADVANCED_FACE('',(#39),#23,.F.);
#238=ADVANCED_FACE('',(#40),#24,.T.);
#239=ADVANCED_FACE('',(#41),#25,.F.);
#240=ADVANCED_FACE('',(#42),#26,.F.);
#241=CLOSED_SHELL('',(#227,#228,#229,#230,#231,#232,#233,#234,#235,#236,
#237,#238,#239,#240));
#242=DERIVED_UNIT_ELEMENT(#244,1.);
#243=DERIVED_UNIT_ELEMENT(#407,-3.);
#244=(
MASS_UNIT()
NAMED_UNIT(*)
SI_UNIT(.KILO.,.GRAM.)
);
#245=DERIVED_UNIT((#242,#243));
#246=MEASURE_REPRESENTATION_ITEM('density measure',
POSITIVE_RATIO_MEASURE(7850.),#245);
#247=PROPERTY_DEFINITION_REPRESENTATION(#252,#249);
#248=PROPERTY_DEFINITION_REPRESENTATION(#253,#250);
#249=REPRESENTATION('material name',(#251),#404);
#250=REPRESENTATION('density',(#246),#404);
#251=DESCRIPTIVE_REPRESENTATION_ITEM('Steel','Steel');
#252=PROPERTY_DEFINITION('material property','material name',#414);
#253=PROPERTY_DEFINITION('material property','density of part',#414);
#254=AXIS2_PLACEMENT_3D('placement',#337,#273,#274);
#255=AXIS2_PLACEMENT_3D('',#338,#275,#276);
#256=AXIS2_PLACEMENT_3D('',#340,#277,#278);
#257=AXIS2_PLACEMENT_3D('',#343,#280,#281);
#258=AXIS2_PLACEMENT_3D('',#345,#282,#283);
#259=AXIS2_PLACEMENT_3D('',#347,#285,#286);
#260=AXIS2_PLACEMENT_3D('',#349,#287,#288);
#261=AXIS2_PLACEMENT_3D('',#352,#290,#291);
#262=AXIS2_PLACEMENT_3D('',#354,#292,#293);
#263=AXIS2_PLACEMENT_3D('',#356,#295,#296);
#264=AXIS2_PLACEMENT_3D('',#365,#301,#302);
#265=AXIS2_PLACEMENT_3D('',#371,#306,#307);
#266=AXIS2_PLACEMENT_3D('',#377,#311,#312);
#267=AXIS2_PLACEMENT_3D('',#383,#316,#317);
#268=AXIS2_PLACEMENT_3D('',#387,#320,#321);
#269=AXIS2_PLACEMENT_3D('',#393,#325,#326);
#270=AXIS2_PLACEMENT_3D('',#397,#329,#330);
#271=AXIS2_PLACEMENT_3D('',#399,#332,#333);
#272=AXIS2_PLACEMENT_3D('',#401,#335,#336);
#273=DIRECTION('axis',(0.,0.,1.));
#274=DIRECTION('refdir',(1.,0.,0.));
#275=DIRECTION('center_axis',(0.,1.,0.));
#276=DIRECTION('ref_axis',(0.,0.,1.));
#277=DIRECTION('center_axis',(0.,-1.,0.));
#278=DIRECTION('ref_axis',(0.,0.,1.));
#279=DIRECTION('',(-1.04972719113862E-16,-0.515038074910054,0.857167300702112));
#280=DIRECTION('center_axis',(0.,-1.,0.));
#281=DIRECTION('ref_axis',(0.,0.,1.));
#282=DIRECTION('center_axis',(0.,-1.,0.));
#283=DIRECTION('ref_axis',(0.,0.,1.));
#284=DIRECTION('',(0.,-1.,0.));
#285=DIRECTION('center_axis',(0.,1.,0.));
#286=DIRECTION('ref_axis',(0.,0.,1.));
#287=DIRECTION('center_axis',(0.,-1.,0.));
#288=DIRECTION('ref_axis',(0.,0.,1.));
#289=DIRECTION('',(-1.04972719113862E-16,-0.515038074910054,0.857167300702112));
#290=DIRECTION('center_axis',(0.,-1.,0.));
#291=DIRECTION('ref_axis',(0.,0.,1.));
#292=DIRECTION('center_axis',(0.,-1.,0.));
#293=DIRECTION('ref_axis',(0.,0.,1.));
#294=DIRECTION('',(0.,-1.,0.));
#295=DIRECTION('center_axis',(0.707106781186549,0.707106781186546,0.));
#296=DIRECTION('ref_axis',(0.,0.,-1.));
#297=DIRECTION('',(-0.577350269189624,0.577350269189627,0.577350269189627));
#298=DIRECTION('',(0.,0.,1.));
#299=DIRECTION('',(0.577350269189624,-0.577350269189626,0.577350269189627));
#300=DIRECTION('',(0.,0.,-1.));
#301=DIRECTION('center_axis',(0.,1.,0.));
#302=DIRECTION('ref_axis',(0.,0.,1.));
#303=DIRECTION('',(1.,0.,0.));
#304=DIRECTION('',(0.,0.,-1.));
#305=DIRECTION('',(-1.,0.,0.));
#306=DIRECTION('center_axis',(0.,0.707106781186548,-0.707106781186548));
#307=DIRECTION('ref_axis',(-1.,0.,0.));
#308=DIRECTION('',(-1.,0.,0.));
#309=DIRECTION('',(0.,0.707106781186548,0.707106781186548));
#310=DIRECTION('',(0.577350269189626,0.577350269189626,0.577350269189626));
#311=DIRECTION('center_axis',(0.,0.,1.));
#312=DIRECTION('ref_axis',(0.,-1.,0.));
#313=DIRECTION('',(0.,-1.,0.));
#314=DIRECTION('',(1.,0.,0.));
#315=DIRECTION('',(0.,-1.,0.));
#316=DIRECTION('center_axis',(-1.,0.,0.));
#317=DIRECTION('ref_axis',(0.,-1.,0.));
#318=DIRECTION('',(0.,-1.,0.));
#319=DIRECTION('',(0.,0.,1.));
#320=DIRECTION('center_axis',(0.,0.707106781186548,0.707106781186547));
#321=DIRECTION('ref_axis',(1.,0.,0.));
#322=DIRECTION('',(-0.577350269189626,-0.577350269189626,0.577350269189626));
#323=DIRECTION('',(0.,-0.707106781186547,0.707106781186548));
#324=DIRECTION('',(1.,0.,0.));
#325=DIRECTION('center_axis',(0.,0.,-1.));
#326=DIRECTION('ref_axis',(0.,1.,0.));
#327=DIRECTION('',(0.,-1.,0.));
#328=DIRECTION('',(-1.,0.,0.));
#329=DIRECTION('center_axis',(-0.707106781186548,0.707106781186548,0.));
#330=DIRECTION('ref_axis',(0.,0.,1.));
#331=DIRECTION('',(0.,0.,1.));
#332=DIRECTION('center_axis',(1.,0.,0.));
#333=DIRECTION('ref_axis',(0.,1.,0.));
#334=DIRECTION('',(0.,0.,-1.));
#335=DIRECTION('center_axis',(0.,1.,0.));
#336=DIRECTION('ref_axis',(0.,0.,1.));
#337=CARTESIAN_POINT('',(0.,0.,0.));
#338=CARTESIAN_POINT('Origin',(1.904365,1.09530668836469,2.38252));
#339=CARTESIAN_POINT('',(1.904365,1.143,2.22377));
#340=CARTESIAN_POINT('Origin',(1.904365,1.143,2.38252));
#341=CARTESIAN_POINT('',(1.904365,1.04761337672937,2.38252));
#342=CARTESIAN_POINT('',(1.904365,1.09530668836469,2.303145));
#343=CARTESIAN_POINT('Origin',(1.904365,1.524,2.38252));
#344=CARTESIAN_POINT('',(1.904365,1.905,2.22377));
#345=CARTESIAN_POINT('Origin',(1.904365,1.905,2.38252));
#346=CARTESIAN_POINT('',(1.904365,1.524,2.22377));
#347=CARTESIAN_POINT('Origin',(6.984365,1.09530668836469,2.38252));
#348=CARTESIAN_POINT('',(6.984365,1.143,2.22377));
#349=CARTESIAN_POINT('Origin',(6.984365,1.143,2.38252));
#350=CARTESIAN_POINT('',(6.984365,1.04761337672937,2.38252));
#351=CARTESIAN_POINT('',(6.984365,1.09530668836469,2.303145));
#352=CARTESIAN_POINT('Origin',(6.984365,1.524,2.38252));
#353=CARTESIAN_POINT('',(6.984365,1.905,2.22377));
#354=CARTESIAN_POINT('Origin',(6.984365,1.905,2.38252));
#355=CARTESIAN_POINT('',(6.984365,1.524,2.22377));
#356=CARTESIAN_POINT('Origin',(8.80999,1.82499,3.4925));
#357=CARTESIAN_POINT('',(8.89,1.74498,0.));
#358=CARTESIAN_POINT('',(8.72998,1.905,0.16002));
#359=CARTESIAN_POINT('',(7.51374333333334,3.12123666666667,1.37625666666667));
#360=CARTESIAN_POINT('',(8.72998,1.905,6.82498));
#361=CARTESIAN_POINT('',(8.72998,1.905,3.4925));
#362=CARTESIAN_POINT('',(8.89,1.74498,6.985));
#363=CARTESIAN_POINT('',(7.51374333333334,3.12123666666667,5.60874333333333));
#364=CARTESIAN_POINT('',(8.89,1.74498,3.4925));
#365=CARTESIAN_POINT('Origin',(4.445,1.905,3.4925));
#366=CARTESIAN_POINT('',(0.15875,1.905,0.16002));
#367=CARTESIAN_POINT('',(4.445,1.905,0.16002));
#368=CARTESIAN_POINT('',(0.15875,1.905,6.82498));
#369=CARTESIAN_POINT('',(0.15875,1.905,3.4925));
#370=CARTESIAN_POINT('',(4.445,1.905,6.82498));
#371=CARTESIAN_POINT('Origin',(4.445,1.82499,0.08001));
#372=CARTESIAN_POINT('',(0.,1.74498,0.));
#373=CARTESIAN_POINT('',(4.445,1.74498,0.));
#374=CARTESIAN_POINT('',(0.,1.74625,0.00126999999999988));
#375=CARTESIAN_POINT('',(0.,2.45999,0.71501));
#376=CARTESIAN_POINT('',(1.37541,3.12166,1.37668));
#377=CARTESIAN_POINT('Origin',(4.445,0.9525,0.));
#378=CARTESIAN_POINT('',(8.89,0.,0.));
#379=CARTESIAN_POINT('',(8.89,0.9525,0.));
#380=CARTESIAN_POINT('',(0.,0.,0.));
#381=CARTESIAN_POINT('',(4.445,0.,0.));
#382=CARTESIAN_POINT('',(0.,0.9525,0.));
#383=CARTESIAN_POINT('Origin',(8.89,0.9525,3.4925));
#384=CARTESIAN_POINT('',(8.89,0.,6.985));
#385=CARTESIAN_POINT('',(8.89,0.9525,6.985));
#386=CARTESIAN_POINT('',(8.89,0.,3.4925));
#387=CARTESIAN_POINT('Origin',(4.445,1.82499,6.90499));
#388=CARTESIAN_POINT('',(0.,1.74625,6.98373));
#389=CARTESIAN_POINT('',(1.37541,3.12166,5.60832));
#390=CARTESIAN_POINT('',(0.,1.74498,6.985));
#391=CARTESIAN_POINT('',(0.,2.45999,6.26999));
#392=CARTESIAN_POINT('',(4.445,1.74498,6.985));
#393=CARTESIAN_POINT('Origin',(4.445,0.9525,6.985));
#394=CARTESIAN_POINT('',(0.,0.,6.985));
#395=CARTESIAN_POINT('',(0.,0.9525,6.985));
#396=CARTESIAN_POINT('',(4.445,0.,6.985));
#397=CARTESIAN_POINT('Origin',(0.079375,1.825625,3.4925));
#398=CARTESIAN_POINT('',(0.,1.74625,3.4925));
#399=CARTESIAN_POINT('Origin',(0.,0.9525,3.4925));
#400=CARTESIAN_POINT('',(0.,0.,3.4925));
#401=CARTESIAN_POINT('Origin',(4.445,0.,3.4925));
#402=UNCERTAINTY_MEASURE_WITH_UNIT(LENGTH_MEASURE(0.001),#406,
'DISTANCE_ACCURACY_VALUE',
'Maximum model space distance between geometric entities at asserted c
onnectivities');
#403=UNCERTAINTY_MEASURE_WITH_UNIT(LENGTH_MEASURE(0.001),#406,
'DISTANCE_ACCURACY_VALUE',
'Maximum model space distance between geometric entities at asserted c
onnectivities');
#404=(
GEOMETRIC_REPRESENTATION_CONTEXT(3)
GLOBAL_UNCERTAINTY_ASSIGNED_CONTEXT((#402))
GLOBAL_UNIT_ASSIGNED_CONTEXT((#406,#408,#409))
REPRESENTATION_CONTEXT('','3D')
);
#405=(
GEOMETRIC_REPRESENTATION_CONTEXT(3)
GLOBAL_UNCERTAINTY_ASSIGNED_CONTEXT((#403))
GLOBAL_UNIT_ASSIGNED_CONTEXT((#406,#408,#409))
REPRESENTATION_CONTEXT('','3D')
);
#406=(
LENGTH_UNIT()
NAMED_UNIT(*)
SI_UNIT(.CENTI.,.METRE.)
);
#407=(
LENGTH_UNIT()
NAMED_UNIT(*)
SI_UNIT($,.METRE.)
);
#408=(
NAMED_UNIT(*)
PLANE_ANGLE_UNIT()
SI_UNIT($,.RADIAN.)
);
#409=(
NAMED_UNIT(*)
SI_UNIT($,.STERADIAN.)
SOLID_ANGLE_UNIT()
);
#410=SHAPE_DEFINITION_REPRESENTATION(#411,#412);
#411=PRODUCT_DEFINITION_SHAPE('',$,#414);
#412=SHAPE_REPRESENTATION('',(#254),#404);
#413=PRODUCT_DEFINITION_CONTEXT('part definition',#418,'design');
#414=PRODUCT_DEFINITION('temp_body','temp_body',#415,#413);
#415=PRODUCT_DEFINITION_FORMATION('',$,#420);
#416=PRODUCT_RELATED_PRODUCT_CATEGORY('temp_body','temp_body',(#420));
#417=APPLICATION_PROTOCOL_DEFINITION('international standard',
'automotive_design',2009,#418);
#418=APPLICATION_CONTEXT(
'Core Data for Automotive Mechanical Design Process');
#419=PRODUCT_CONTEXT('part definition',#418,'mechanical');
#420=PRODUCT('temp_body','temp_body',$,(#419));
#421=PRESENTATION_STYLE_ASSIGNMENT((#422));
#422=SURFACE_STYLE_USAGE(.BOTH.,#423);
#423=SURFACE_SIDE_STYLE('',(#424));
#424=SURFACE_STYLE_FILL_AREA(#425);
#425=FILL_AREA_STYLE('Steel - Satin',(#426));
#426=FILL_AREA_STYLE_COLOUR('Steel - Satin',#427);
#427=COLOUR_RGB('Steel - Satin',0.627450980392157,0.627450980392157,0.627450980392157);
ENDSEC;
END-ISO-10303-21;
