ISO-10303-21;
HEADER;
/* Generated by software containing ST-Developer
 * from STEP Tools, Inc. (www.steptools.com) 
 */

FILE_DESCRIPTION(
/* description */ (''),
/* implementation_level */ '2;1');

FILE_NAME(
/* name */ 
'C:\\Users\\designnet\\AppData\\Local\\Temp\\derivatives\\23218_02d26a
b4\\AssemblyExtractor\\23218_02d26ab4\\9c254e90-055e-11ec-978d-0acddec
473cb.step',
/* time_stamp */ '2021-08-25T04:40:49+00:00',
/* author */ (''),
/* organization */ (''),
/* preprocessor_version */ 'ST-DEVELOPER v18.1',
/* originating_system */ 'Autodesk Translation Framework v10.6.0.1341',

/* authorisation */ '');

FILE_SCHEMA (('AUTOMOTIVE_DESIGN { 1 0 10303 214 3 1 1 }'));
ENDSEC;

DATA;
#10=MECHANICAL_DESIGN_GEOMETRIC_PRESENTATION_REPRESENTATION('',(#13),#251);
#11=SHAPE_REPRESENTATION_RELATIONSHIP('SRR','None',#258,#12);
#12=ADVANCED_BREP_SHAPE_REPRESENTATION('',(#14),#250);
#13=STYLED_ITEM('',(#267),#14);
#14=MANIFOLD_SOLID_BREP('Body1',#102);
#15=PLANE('',#121);
#16=PLANE('',#123);
#17=FACE_BOUND('',#33,.T.);
#18=B_SPLINE_CURVE_WITH_KNOTS('',3,(#157,#158,#159,#160,#161,#162,#163,
#164,#165,#166),.UNSPECIFIED.,.F.,.F.,(4,2,2,2,4),(0.72329983964135,0.783787613177686,
0.844275386714022,0.904619273966742,0.964963161219463),.UNSPECIFIED.);
#19=B_SPLINE_CURVE_WITH_KNOTS('',3,(#168,#169,#170,#171,#172,#173,#174,
#175,#176,#177),.UNSPECIFIED.,.F.,.F.,(4,2,2,2,4),(0.,0.0603438872527207,
0.120687774505441,0.181175548041777,0.241663321578113),.UNSPECIFIED.);
#20=B_SPLINE_CURVE_WITH_KNOTS('',3,(#181,#182,#183,#184,#185,#186,#187,
#188,#189,#190,#191,#192,#193,#194,#195,#196,#197,#198),.UNSPECIFIED.,.F.,
 .F.,(4,2,2,2,2,2,2,2,4),(0.241663321578113,0.301785330104893,0.361907338631673,
0.422194459620702,0.482481580609732,0.542768701598761,0.60305582258779,
0.66317783111457,0.72329983964135),.UNSPECIFIED.);
#21=B_SPLINE_CURVE_WITH_KNOTS('',3,(#201,#202,#203,#204,#205,#206,#207,
#208,#209,#210,#211,#212,#213,#214,#215,#216,#217,#218),.UNSPECIFIED.,.F.,
 .F.,(4,2,2,2,2,2,2,2,4),(0.25230141219371,0.301785330104893,0.361907338631673,
0.422194459620702,0.482481580609731,0.542768701598761,0.60305582258779,
0.66317783111457,0.712661749025754),.UNSPECIFIED.);
#22=B_SPLINE_CURVE_WITH_KNOTS('',3,(#220,#221,#222,#223,#224,#225,#226,
#227,#228,#229,#230,#231),.UNSPECIFIED.,.F.,.F.,(4,2,2,2,2,4),(0.712661749025754,
0.72329983964135,0.783787613177686,0.844275386714021,0.904619273966742,
0.964963161219463),.UNSPECIFIED.);
#23=B_SPLINE_CURVE_WITH_KNOTS('',3,(#232,#233,#234,#235,#236,#237,#238,
#239,#240,#241,#242,#243),.UNSPECIFIED.,.F.,.F.,(4,2,2,2,2,4),(0.964963161219463,
1.02530704847218,1.0856509357249,1.14613870926124,1.20662648279758,1.21726457341317),
 .UNSPECIFIED.);
#24=CYLINDRICAL_SURFACE('',#119,0.47625);
#25=CYLINDRICAL_SURFACE('',#122,0.15875);
#26=FACE_OUTER_BOUND('',#31,.T.);
#27=FACE_OUTER_BOUND('',#32,.T.);
#28=FACE_OUTER_BOUND('',#34,.T.);
#29=FACE_OUTER_BOUND('',#35,.T.);
#30=FACE_OUTER_BOUND('',#36,.T.);
#31=EDGE_LOOP('',(#70,#71,#72,#73));
#32=EDGE_LOOP('',(#74,#75,#76,#77,#78,#79,#80,#81,#82));
#33=EDGE_LOOP('',(#83,#84,#85));
#34=EDGE_LOOP('',(#86));
#35=EDGE_LOOP('',(#87,#88,#89,#90,#91,#92,#93,#94));
#36=EDGE_LOOP('',(#95));
#37=LINE('',#151,#41);
#38=LINE('',#155,#42);
#39=LINE('',#179,#43);
#40=LINE('',#246,#44);
#41=VECTOR('',#130,0.396875);
#42=VECTOR('',#135,0.47625);
#43=VECTOR('',#136,0.47625);
#44=VECTOR('',#143,0.15875);
#45=CIRCLE('',#117,0.3175);
#46=CIRCLE('',#118,0.47625);
#47=CIRCLE('',#120,0.47625);
#48=VERTEX_POINT('',#148);
#49=VERTEX_POINT('',#150);
#50=VERTEX_POINT('',#154);
#51=VERTEX_POINT('',#156);
#52=VERTEX_POINT('',#167);
#53=VERTEX_POINT('',#178);
#54=VERTEX_POINT('',#199);
#55=VERTEX_POINT('',#200);
#56=VERTEX_POINT('',#219);
#57=EDGE_CURVE('',#48,#48,#45,.T.);
#58=EDGE_CURVE('',#48,#49,#37,.T.);
#59=EDGE_CURVE('',#49,#49,#46,.T.);
#60=EDGE_CURVE('',#49,#50,#38,.T.);
#61=EDGE_CURVE('',#50,#51,#18,.T.);
#62=EDGE_CURVE('',#51,#52,#19,.T.);
#63=EDGE_CURVE('',#52,#53,#39,.T.);
#64=EDGE_CURVE('',#53,#53,#47,.T.);
#65=EDGE_CURVE('',#52,#50,#20,.T.);
#66=EDGE_CURVE('',#54,#55,#21,.T.);
#67=EDGE_CURVE('',#55,#56,#22,.T.);
#68=EDGE_CURVE('',#56,#54,#23,.T.);
#69=EDGE_CURVE('',#56,#51,#40,.T.);
#70=ORIENTED_EDGE('',*,*,#57,.T.);
#71=ORIENTED_EDGE('',*,*,#58,.T.);
#72=ORIENTED_EDGE('',*,*,#59,.T.);
#73=ORIENTED_EDGE('',*,*,#58,.F.);
#74=ORIENTED_EDGE('',*,*,#59,.F.);
#75=ORIENTED_EDGE('',*,*,#60,.T.);
#76=ORIENTED_EDGE('',*,*,#61,.T.);
#77=ORIENTED_EDGE('',*,*,#62,.T.);
#78=ORIENTED_EDGE('',*,*,#63,.T.);
#79=ORIENTED_EDGE('',*,*,#64,.T.);
#80=ORIENTED_EDGE('',*,*,#63,.F.);
#81=ORIENTED_EDGE('',*,*,#65,.T.);
#82=ORIENTED_EDGE('',*,*,#60,.F.);
#83=ORIENTED_EDGE('',*,*,#66,.T.);
#84=ORIENTED_EDGE('',*,*,#67,.T.);
#85=ORIENTED_EDGE('',*,*,#68,.T.);
#86=ORIENTED_EDGE('',*,*,#57,.F.);
#87=ORIENTED_EDGE('',*,*,#66,.F.);
#88=ORIENTED_EDGE('',*,*,#68,.F.);
#89=ORIENTED_EDGE('',*,*,#69,.T.);
#90=ORIENTED_EDGE('',*,*,#61,.F.);
#91=ORIENTED_EDGE('',*,*,#65,.F.);
#92=ORIENTED_EDGE('',*,*,#62,.F.);
#93=ORIENTED_EDGE('',*,*,#69,.F.);
#94=ORIENTED_EDGE('',*,*,#67,.F.);
#95=ORIENTED_EDGE('',*,*,#64,.F.);
#96=CONICAL_SURFACE('',#116,0.396875,0.785398163397448);
#97=ADVANCED_FACE('',(#26),#96,.T.);
#98=ADVANCED_FACE('',(#27,#17),#24,.T.);
#99=ADVANCED_FACE('',(#28),#15,.T.);
#100=ADVANCED_FACE('',(#29),#25,.F.);
#101=ADVANCED_FACE('',(#30),#16,.F.);
#102=CLOSED_SHELL('',(#97,#98,#99,#100,#101));
#103=DERIVED_UNIT_ELEMENT(#105,1.);
#104=DERIVED_UNIT_ELEMENT(#253,-3.);
#105=(
MASS_UNIT()
NAMED_UNIT(*)
SI_UNIT(.KILO.,.GRAM.)
);
#106=DERIVED_UNIT((#103,#104));
#107=MEASURE_REPRESENTATION_ITEM('density measure',
POSITIVE_RATIO_MEASURE(7850.),#106);
#108=PROPERTY_DEFINITION_REPRESENTATION(#113,#110);
#109=PROPERTY_DEFINITION_REPRESENTATION(#114,#111);
#110=REPRESENTATION('material name',(#112),#250);
#111=REPRESENTATION('density',(#107),#250);
#112=DESCRIPTIVE_REPRESENTATION_ITEM('Steel','Steel');
#113=PROPERTY_DEFINITION('material property','material name',#260);
#114=PROPERTY_DEFINITION('material property','density of part',#260);
#115=AXIS2_PLACEMENT_3D('placement',#146,#124,#125);
#116=AXIS2_PLACEMENT_3D('',#147,#126,#127);
#117=AXIS2_PLACEMENT_3D('',#149,#128,#129);
#118=AXIS2_PLACEMENT_3D('',#152,#131,#132);
#119=AXIS2_PLACEMENT_3D('',#153,#133,#134);
#120=AXIS2_PLACEMENT_3D('',#180,#137,#138);
#121=AXIS2_PLACEMENT_3D('',#244,#139,#140);
#122=AXIS2_PLACEMENT_3D('',#245,#141,#142);
#123=AXIS2_PLACEMENT_3D('',#247,#144,#145);
#124=DIRECTION('axis',(0.,0.,1.));
#125=DIRECTION('refdir',(1.,0.,0.));
#126=DIRECTION('center_axis',(0.,0.,-1.));
#127=DIRECTION('ref_axis',(1.,0.,0.));
#128=DIRECTION('center_axis',(0.,0.,-1.));
#129=DIRECTION('ref_axis',(1.,0.,0.));
#130=DIRECTION('',(-0.707106781186547,-8.65956056235493E-17,-0.707106781186547));
#131=DIRECTION('center_axis',(0.,0.,1.));
#132=DIRECTION('ref_axis',(1.,0.,0.));
#133=DIRECTION('center_axis',(0.,0.,1.));
#134=DIRECTION('ref_axis',(1.,0.,0.));
#135=DIRECTION('',(0.,0.,-1.));
#136=DIRECTION('',(0.,0.,-1.));
#137=DIRECTION('center_axis',(0.,0.,1.));
#138=DIRECTION('ref_axis',(1.,0.,0.));
#139=DIRECTION('center_axis',(0.,0.,1.));
#140=DIRECTION('ref_axis',(1.,0.,0.));
#141=DIRECTION('center_axis',(-0.999745746707676,0.0225486571642592,-8.56112728354525E-17));
#142=DIRECTION('ref_axis',(0.0225486571642592,0.999745746707676,0.));
#143=DIRECTION('',(-0.999745746707676,0.0225486571642592,-8.56112728354525E-17));
#144=DIRECTION('center_axis',(0.,0.,1.));
#145=DIRECTION('ref_axis',(1.,0.,0.));
#146=CARTESIAN_POINT('',(0.,0.,0.));
#147=CARTESIAN_POINT('Origin',(-5.08000016212463,6.35000020265579,4.206875));
#148=CARTESIAN_POINT('',(-5.39750016212463,6.35000020265579,4.28625));
#149=CARTESIAN_POINT('Origin',(-5.08000016212463,6.35000020265579,4.28625));
#150=CARTESIAN_POINT('',(-5.55625016212463,6.35000020265579,4.1275));
#151=CARTESIAN_POINT('',(-5.47687516212463,6.35000020265579,4.206875));
#152=CARTESIAN_POINT('Origin',(-5.08000016212463,6.35000020265579,4.1275));
#153=CARTESIAN_POINT('Origin',(-5.08000016212463,6.35000020265579,0.));
#154=CARTESIAN_POINT('',(-5.55625016212463,6.35000020265579,3.730625));
#155=CARTESIAN_POINT('',(-5.55625016212463,6.35000020265579,0.));
#156=CARTESIAN_POINT('',(-5.52877908892239,6.19059023633545,3.571875));
#157=CARTESIAN_POINT('Ctrl Pts',(-5.55625016212463,6.35000020265579,3.730625));
#158=CARTESIAN_POINT('Ctrl Pts',(-5.55625016212463,6.32983761147701,3.730625));
#159=CARTESIAN_POINT('Ctrl Pts',(-5.5548449066195,6.30843849158954,3.72655526724947));
#160=CARTESIAN_POINT('Ctrl Pts',(-5.54976659044978,6.26922638256448,3.7102670056318));
#161=CARTESIAN_POINT('Ctrl Pts',(-5.54615709313213,6.25140133017204,3.69805776559618));
#162=CARTESIAN_POINT('Ctrl Pts',(-5.53930879016792,6.2232776376355,3.6700503891261));
#163=CARTESIAN_POINT('Ctrl Pts',(-5.53560366473733,6.21102760947609,3.65233394090676));
#164=CARTESIAN_POINT('Ctrl Pts',(-5.53029252145311,6.19467883171472,3.61331196004572));
#165=CARTESIAN_POINT('Ctrl Pts',(-5.52877908892239,6.19059023633545,3.59198962908424));
#166=CARTESIAN_POINT('Ctrl Pts',(-5.52877908892239,6.19059023633545,3.571875));
#167=CARTESIAN_POINT('',(-5.55625016212463,6.35000020265579,3.413125));
#168=CARTESIAN_POINT('Ctrl Pts',(-5.52877908892239,6.19059023633545,3.571875));
#169=CARTESIAN_POINT('Ctrl Pts',(-5.52877908892239,6.19059023633545,3.55176037091576));
#170=CARTESIAN_POINT('Ctrl Pts',(-5.53029252145311,6.19467883171472,3.53043803995429));
#171=CARTESIAN_POINT('Ctrl Pts',(-5.53560366473733,6.21102760947609,3.49141605909324));
#172=CARTESIAN_POINT('Ctrl Pts',(-5.53930879016792,6.2232776376355,3.4736996108739));
#173=CARTESIAN_POINT('Ctrl Pts',(-5.54615709313213,6.25140133017204,3.44569223440382));
#174=CARTESIAN_POINT('Ctrl Pts',(-5.54976659044978,6.26922638256448,3.4334829943682));
#175=CARTESIAN_POINT('Ctrl Pts',(-5.5548449066195,6.30843849158953,3.41719473275054));
#176=CARTESIAN_POINT('Ctrl Pts',(-5.55625016212463,6.32983761147701,3.413125));
#177=CARTESIAN_POINT('Ctrl Pts',(-5.55625016212463,6.35000020265579,3.413125));
#178=CARTESIAN_POINT('',(-5.55625016212463,6.35000020265579,0.));
#179=CARTESIAN_POINT('',(-5.55625016212463,6.35000020265579,0.));
#180=CARTESIAN_POINT('Origin',(-5.08000016212463,6.35000020265579,0.));
#181=CARTESIAN_POINT('Ctrl Pts',(-5.55625016212463,6.35000020265579,3.413125));
#182=CARTESIAN_POINT('Ctrl Pts',(-5.55625016212463,6.37004087216472,3.413125));
#183=CARTESIAN_POINT('Ctrl Pts',(-5.55486052793194,6.39132007745462,3.41715071821476));
#184=CARTESIAN_POINT('Ctrl Pts',(-5.54984674987426,6.43027400327302,3.43336560045771));
#185=CARTESIAN_POINT('Ctrl Pts',(-5.54628731381016,6.4479599425299,3.44554775404414));
#186=CARTESIAN_POINT('Ctrl Pts',(-5.53953727335838,6.4758834562879,3.47357707890721));
#187=CARTESIAN_POINT('Ctrl Pts',(-5.53589230329296,6.48801615424478,3.49135058368956));
#188=CARTESIAN_POINT('Ctrl Pts',(-5.53068701748053,6.50416702444877,3.53044500138752));
#189=CARTESIAN_POINT('Ctrl Pts',(-5.52921388039816,6.50818078874294,3.55177929300366));
#190=CARTESIAN_POINT('Ctrl Pts',(-5.52921388039816,6.50818078874294,3.59197070699635));
#191=CARTESIAN_POINT('Ctrl Pts',(-5.53068701748053,6.50416702444877,3.61330499861249));
#192=CARTESIAN_POINT('Ctrl Pts',(-5.53589230329296,6.48801615424478,3.65239941631044));
#193=CARTESIAN_POINT('Ctrl Pts',(-5.53953727335838,6.4758834562879,3.6701729210928));
#194=CARTESIAN_POINT('Ctrl Pts',(-5.54628731381016,6.4479599425299,3.69820224595586));
#195=CARTESIAN_POINT('Ctrl Pts',(-5.54984674987426,6.43027400327302,3.71038439954229));
#196=CARTESIAN_POINT('Ctrl Pts',(-5.55486052793194,6.39132007745462,3.72659928178524));
#197=CARTESIAN_POINT('Ctrl Pts',(-5.55625016212463,6.37004087216472,3.730625));
#198=CARTESIAN_POINT('Ctrl Pts',(-5.55625016212463,6.35000020265579,3.730625));
#199=CARTESIAN_POINT('',(-4.6038712502551,6.33926140468131,3.73026136531616));
#200=CARTESIAN_POINT('',(-4.6038712502551,6.33926140468131,3.41348863468384));
#201=CARTESIAN_POINT('Ctrl Pts',(-4.6038712502551,6.33926140468131,3.73026136531616));
#202=CARTESIAN_POINT('Ctrl Pts',(-4.60349278860853,6.3560413583033,3.72912337367893));
#203=CARTESIAN_POINT('Ctrl Pts',(-4.60404747594688,6.37333135897685,3.72516473734097));
#204=CARTESIAN_POINT('Ctrl Pts',(-4.60701214140799,6.40900894221233,3.71038439954229));
#205=CARTESIAN_POINT('Ctrl Pts',(-4.60977057236654,6.4268373771167,3.69820224595586));
#206=CARTESIAN_POINT('Ctrl Pts',(-4.61525479350883,6.45503682720276,3.6701729210928));
#207=CARTESIAN_POINT('Ctrl Pts',(-4.61834904408476,6.46732152418169,3.65239941631044));
#208=CARTESIAN_POINT('Ctrl Pts',(-4.62282086104383,6.48369065555204,3.61330499861249));
#209=CARTESIAN_POINT('Ctrl Pts',(-4.62411153614922,6.48776675594885,3.59197070699634));
#210=CARTESIAN_POINT('Ctrl Pts',(-4.62411153614922,6.48776675594885,3.55177929300366));
#211=CARTESIAN_POINT('Ctrl Pts',(-4.62282086104383,6.48369065555204,3.53044500138752));
#212=CARTESIAN_POINT('Ctrl Pts',(-4.61834904408476,6.46732152418169,3.49135058368956));
#213=CARTESIAN_POINT('Ctrl Pts',(-4.61525479350883,6.45503682720276,3.47357707890721));
#214=CARTESIAN_POINT('Ctrl Pts',(-4.60977057236654,6.4268373771167,3.44554775404414));
#215=CARTESIAN_POINT('Ctrl Pts',(-4.60701214140799,6.40900894221233,3.43336560045771));
#216=CARTESIAN_POINT('Ctrl Pts',(-4.60404747594688,6.37333135897684,3.41858526265904));
#217=CARTESIAN_POINT('Ctrl Pts',(-4.60349278860853,6.3560413583033,3.41462662632107));
#218=CARTESIAN_POINT('Ctrl Pts',(-4.6038712502551,6.33926140468131,3.41348863468384));
#219=CARTESIAN_POINT('',(-4.63886472492429,6.17051875919696,3.571875));
#220=CARTESIAN_POINT('Ctrl Pts',(-4.6038712502551,6.33926140468131,3.41348863468384));
#221=CARTESIAN_POINT('Ctrl Pts',(-4.60395261223008,6.3356540373852,3.41324398836909));
#222=CARTESIAN_POINT('Ctrl Pts',(-4.6040745772929,6.33207049176056,3.413125));
#223=CARTESIAN_POINT('Ctrl Pts',(-4.60514350059736,6.30838597929148,3.413125));
#224=CARTESIAN_POINT('Ctrl Pts',(-4.60751212459142,6.28707197696043,3.41719473275054));
#225=CARTESIAN_POINT('Ctrl Pts',(-4.61435318789793,6.24812870228881,3.4334829943682));
#226=CARTESIAN_POINT('Ctrl Pts',(-4.61876267238205,6.23048451315291,3.44569223440382));
#227=CARTESIAN_POINT('Ctrl Pts',(-4.62687199194955,6.20269818069374,3.4736996108739));
#228=CARTESIAN_POINT('Ctrl Pts',(-4.63112565260771,6.19062765811317,3.49141605909324));
#229=CARTESIAN_POINT('Ctrl Pts',(-4.63716849358815,6.17453496256018,3.53043803995429));
#230=CARTESIAN_POINT('Ctrl Pts',(-4.63886472492429,6.17051875919696,3.55176037091576));
#231=CARTESIAN_POINT('Ctrl Pts',(-4.63886472492429,6.17051875919696,3.571875));
#232=CARTESIAN_POINT('Ctrl Pts',(-4.63886472492429,6.17051875919696,3.571875));
#233=CARTESIAN_POINT('Ctrl Pts',(-4.63886472492429,6.17051875919696,3.59198962908424));
#234=CARTESIAN_POINT('Ctrl Pts',(-4.63716849358815,6.17453496256018,3.61331196004572));
#235=CARTESIAN_POINT('Ctrl Pts',(-4.63112565260771,6.19062765811317,3.65233394090676));
#236=CARTESIAN_POINT('Ctrl Pts',(-4.62687199194955,6.20269818069374,3.6700503891261));
#237=CARTESIAN_POINT('Ctrl Pts',(-4.61876267238205,6.23048451315291,3.69805776559618));
#238=CARTESIAN_POINT('Ctrl Pts',(-4.61435318789793,6.24812870228881,3.7102670056318));
#239=CARTESIAN_POINT('Ctrl Pts',(-4.60751212459142,6.28707197696043,3.72655526724947));
#240=CARTESIAN_POINT('Ctrl Pts',(-4.60514350059736,6.30838597929148,3.730625));
#241=CARTESIAN_POINT('Ctrl Pts',(-4.6040745772929,6.33207049176056,3.730625));
#242=CARTESIAN_POINT('Ctrl Pts',(-4.60395261223008,6.3356540373852,3.73050601163091));
#243=CARTESIAN_POINT('Ctrl Pts',(-4.6038712502551,6.33926140468131,3.73026136531616));
#244=CARTESIAN_POINT('Origin',(-5.08000016212463,6.35000020265579,4.28625));
#245=CARTESIAN_POINT('Origin',(-9.80216802536149,6.44576429723785,3.571875));
#246=CARTESIAN_POINT('',(-9.80574762468632,6.28705465994801,3.571875));
#247=CARTESIAN_POINT('Origin',(-5.08000016212463,6.35000020265579,0.));
#248=UNCERTAINTY_MEASURE_WITH_UNIT(LENGTH_MEASURE(0.001),#252,
'DISTANCE_ACCURACY_VALUE',
'Maximum model space distance between geometric entities at asserted c
onnectivities');
#249=UNCERTAINTY_MEASURE_WITH_UNIT(LENGTH_MEASURE(0.001),#252,
'DISTANCE_ACCURACY_VALUE',
'Maximum model space distance between geometric entities at asserted c
onnectivities');
#250=(
GEOMETRIC_REPRESENTATION_CONTEXT(3)
GLOBAL_UNCERTAINTY_ASSIGNED_CONTEXT((#248))
GLOBAL_UNIT_ASSIGNED_CONTEXT((#252,#254,#255))
REPRESENTATION_CONTEXT('','3D')
);
#251=(
GEOMETRIC_REPRESENTATION_CONTEXT(3)
GLOBAL_UNCERTAINTY_ASSIGNED_CONTEXT((#249))
GLOBAL_UNIT_ASSIGNED_CONTEXT((#252,#254,#255))
REPRESENTATION_CONTEXT('','3D')
);
#252=(
LENGTH_UNIT()
NAMED_UNIT(*)
SI_UNIT(.CENTI.,.METRE.)
);
#253=(
LENGTH_UNIT()
NAMED_UNIT(*)
SI_UNIT($,.METRE.)
);
#254=(
NAMED_UNIT(*)
PLANE_ANGLE_UNIT()
SI_UNIT($,.RADIAN.)
);
#255=(
NAMED_UNIT(*)
SI_UNIT($,.STERADIAN.)
SOLID_ANGLE_UNIT()
);
#256=SHAPE_DEFINITION_REPRESENTATION(#257,#258);
#257=PRODUCT_DEFINITION_SHAPE('',$,#260);
#258=SHAPE_REPRESENTATION('',(#115),#250);
#259=PRODUCT_DEFINITION_CONTEXT('part definition',#264,'design');
#260=PRODUCT_DEFINITION('temp_body','temp_body',#261,#259);
#261=PRODUCT_DEFINITION_FORMATION('',$,#266);
#262=PRODUCT_RELATED_PRODUCT_CATEGORY('temp_body','temp_body',(#266));
#263=APPLICATION_PROTOCOL_DEFINITION('international standard',
'automotive_design',2009,#264);
#264=APPLICATION_CONTEXT(
'Core Data for Automotive Mechanical Design Process');
#265=PRODUCT_CONTEXT('part definition',#264,'mechanical');
#266=PRODUCT('temp_body','temp_body',$,(#265));
#267=PRESENTATION_STYLE_ASSIGNMENT((#268));
#268=SURFACE_STYLE_USAGE(.BOTH.,#269);
#269=SURFACE_SIDE_STYLE('',(#270));
#270=SURFACE_STYLE_FILL_AREA(#271);
#271=FILL_AREA_STYLE('Steel - Satin',(#272));
#272=FILL_AREA_STYLE_COLOUR('Steel - Satin',#273);
#273=COLOUR_RGB('Steel - Satin',0.627450980392157,0.627450980392157,0.627450980392157);
ENDSEC;
END-ISO-10303-21;
