ISO-10303-21;
HEADER;
/* Generated by software containing ST-Developer
 * from STEP Tools, Inc. (www.steptools.com) 
 */

FILE_DESCRIPTION(
/* description */ (''),
/* implementation_level */ '2;1');

FILE_NAME(
/* name */ 
'C:\\Users\\designnet\\AppData\\Local\\Temp\\derivatives\\23218_02d26a
b4\\AssemblyExtractor\\23218_02d26ab4\\9c263898-055e-11ec-b82d-0acddec
473cb.step',
/* time_stamp */ '2021-08-25T04:40:50+00:00',
/* author */ (''),
/* organization */ (''),
/* preprocessor_version */ 'ST-DEVELOPER v18.1',
/* originating_system */ 'Autodesk Translation Framework v10.6.0.1341',

/* authorisation */ '');

FILE_SCHEMA (('AUTOMOTIVE_DESIGN { 1 0 10303 214 3 1 1 }'));
ENDSEC;

DATA;
#10=MECHANICAL_DESIGN_GEOMETRIC_PRESENTATION_REPRESENTATION('',(#13),#465);
#11=SHAPE_REPRESENTATION_RELATIONSHIP('SRR','None',#472,#12);
#12=ADVANCED_BREP_SHAPE_REPRESENTATION('',(#14),#464);
#13=STYLED_ITEM('',(#481),#14);
#14=MANIFOLD_SOLID_BREP('Body1',#274);
#15=FACE_BOUND('',#59,.T.);
#16=FACE_BOUND('',#60,.T.);
#17=FACE_BOUND('',#64,.T.);
#18=FACE_BOUND('',#65,.T.);
#19=FACE_BOUND('',#67,.T.);
#20=PLANE('',#303);
#21=PLANE('',#304);
#22=PLANE('',#305);
#23=PLANE('',#306);
#24=PLANE('',#307);
#25=PLANE('',#308);
#26=PLANE('',#309);
#27=PLANE('',#310);
#28=PLANE('',#311);
#29=CONICAL_SURFACE('',#291,0.238125,1.02974425867665);
#30=CONICAL_SURFACE('',#295,0.079375,1.02974425867665);
#31=CONICAL_SURFACE('',#299,0.079375,1.02974425867665);
#32=FACE_OUTER_BOUND('',#48,.T.);
#33=FACE_OUTER_BOUND('',#49,.T.);
#34=FACE_OUTER_BOUND('',#50,.T.);
#35=FACE_OUTER_BOUND('',#51,.T.);
#36=FACE_OUTER_BOUND('',#52,.T.);
#37=FACE_OUTER_BOUND('',#53,.T.);
#38=FACE_OUTER_BOUND('',#54,.T.);
#39=FACE_OUTER_BOUND('',#55,.T.);
#40=FACE_OUTER_BOUND('',#56,.T.);
#41=FACE_OUTER_BOUND('',#57,.T.);
#42=FACE_OUTER_BOUND('',#58,.T.);
#43=FACE_OUTER_BOUND('',#61,.T.);
#44=FACE_OUTER_BOUND('',#62,.T.);
#45=FACE_OUTER_BOUND('',#63,.T.);
#46=FACE_OUTER_BOUND('',#66,.T.);
#47=FACE_OUTER_BOUND('',#68,.T.);
#48=EDGE_LOOP('',(#186,#187,#188,#189));
#49=EDGE_LOOP('',(#190,#191,#192));
#50=EDGE_LOOP('',(#193,#194,#195,#196));
#51=EDGE_LOOP('',(#197,#198,#199));
#52=EDGE_LOOP('',(#200,#201,#202,#203));
#53=EDGE_LOOP('',(#204,#205,#206));
#54=EDGE_LOOP('',(#207,#208,#209,#210));
#55=EDGE_LOOP('',(#211,#212,#213,#214));
#56=EDGE_LOOP('',(#215,#216,#217,#218));
#57=EDGE_LOOP('',(#219,#220,#221,#222));
#58=EDGE_LOOP('',(#223,#224,#225,#226,#227,#228));
#59=EDGE_LOOP('',(#229));
#60=EDGE_LOOP('',(#230));
#61=EDGE_LOOP('',(#231,#232,#233,#234));
#62=EDGE_LOOP('',(#235,#236,#237,#238));
#63=EDGE_LOOP('',(#239,#240,#241,#242));
#64=EDGE_LOOP('',(#243));
#65=EDGE_LOOP('',(#244));
#66=EDGE_LOOP('',(#245,#246,#247,#248));
#67=EDGE_LOOP('',(#249));
#68=EDGE_LOOP('',(#250,#251,#252,#253));
#69=LINE('',#393,#95);
#70=LINE('',#399,#96);
#71=LINE('',#403,#97);
#72=LINE('',#408,#98);
#73=LINE('',#412,#99);
#74=LINE('',#417,#100);
#75=LINE('',#421,#101);
#76=LINE('',#425,#102);
#77=LINE('',#427,#103);
#78=LINE('',#429,#104);
#79=LINE('',#430,#105);
#80=LINE('',#433,#106);
#81=LINE('',#435,#107);
#82=LINE('',#436,#108);
#83=LINE('',#439,#109);
#84=LINE('',#441,#110);
#85=LINE('',#442,#111);
#86=LINE('',#445,#112);
#87=LINE('',#447,#113);
#88=LINE('',#448,#114);
#89=LINE('',#449,#115);
#90=LINE('',#452,#116);
#91=LINE('',#453,#117);
#92=LINE('',#456,#118);
#93=LINE('',#457,#119);
#94=LINE('',#460,#120);
#95=VECTOR('',#318,0.32639);
#96=VECTOR('',#325,0.238125);
#97=VECTOR('',#330,0.47625);
#98=VECTOR('',#335,0.079375);
#99=VECTOR('',#340,0.15875);
#100=VECTOR('',#345,0.079375);
#101=VECTOR('',#350,0.15875);
#102=VECTOR('',#353,1.);
#103=VECTOR('',#354,1.);
#104=VECTOR('',#355,1.);
#105=VECTOR('',#356,1.);
#106=VECTOR('',#359,1.);
#107=VECTOR('',#360,1.);
#108=VECTOR('',#361,1.);
#109=VECTOR('',#364,1.);
#110=VECTOR('',#365,1.);
#111=VECTOR('',#366,1.);
#112=VECTOR('',#369,1.);
#113=VECTOR('',#370,1.);
#114=VECTOR('',#371,1.);
#115=VECTOR('',#372,1.);
#116=VECTOR('',#375,1.);
#117=VECTOR('',#376,1.);
#118=VECTOR('',#379,1.);
#119=VECTOR('',#380,1.);
#120=VECTOR('',#385,1.);
#121=CIRCLE('',#289,0.32639);
#122=CIRCLE('',#290,0.32639);
#123=CIRCLE('',#292,0.47625);
#124=CIRCLE('',#294,0.47625);
#125=CIRCLE('',#296,0.15875);
#126=CIRCLE('',#298,0.15875);
#127=CIRCLE('',#300,0.15875);
#128=CIRCLE('',#302,0.15875);
#129=VERTEX_POINT('',#390);
#130=VERTEX_POINT('',#392);
#131=VERTEX_POINT('',#396);
#132=VERTEX_POINT('',#398);
#133=VERTEX_POINT('',#401);
#134=VERTEX_POINT('',#405);
#135=VERTEX_POINT('',#407);
#136=VERTEX_POINT('',#410);
#137=VERTEX_POINT('',#414);
#138=VERTEX_POINT('',#416);
#139=VERTEX_POINT('',#419);
#140=VERTEX_POINT('',#423);
#141=VERTEX_POINT('',#424);
#142=VERTEX_POINT('',#426);
#143=VERTEX_POINT('',#428);
#144=VERTEX_POINT('',#432);
#145=VERTEX_POINT('',#434);
#146=VERTEX_POINT('',#438);
#147=VERTEX_POINT('',#440);
#148=VERTEX_POINT('',#444);
#149=VERTEX_POINT('',#446);
#150=VERTEX_POINT('',#451);
#151=VERTEX_POINT('',#455);
#152=EDGE_CURVE('',#129,#129,#121,.T.);
#153=EDGE_CURVE('',#129,#130,#69,.T.);
#154=EDGE_CURVE('',#130,#130,#122,.T.);
#155=EDGE_CURVE('',#131,#131,#123,.T.);
#156=EDGE_CURVE('',#131,#132,#70,.T.);
#157=EDGE_CURVE('',#133,#133,#124,.T.);
#158=EDGE_CURVE('',#133,#131,#71,.T.);
#159=EDGE_CURVE('',#134,#134,#125,.T.);
#160=EDGE_CURVE('',#134,#135,#72,.T.);
#161=EDGE_CURVE('',#136,#136,#126,.T.);
#162=EDGE_CURVE('',#136,#134,#73,.T.);
#163=EDGE_CURVE('',#137,#137,#127,.T.);
#164=EDGE_CURVE('',#137,#138,#74,.T.);
#165=EDGE_CURVE('',#139,#139,#128,.T.);
#166=EDGE_CURVE('',#139,#137,#75,.T.);
#167=EDGE_CURVE('',#140,#141,#76,.T.);
#168=EDGE_CURVE('',#141,#142,#77,.T.);
#169=EDGE_CURVE('',#142,#143,#78,.T.);
#170=EDGE_CURVE('',#143,#140,#79,.T.);
#171=EDGE_CURVE('',#141,#144,#80,.T.);
#172=EDGE_CURVE('',#144,#145,#81,.T.);
#173=EDGE_CURVE('',#145,#142,#82,.T.);
#174=EDGE_CURVE('',#143,#146,#83,.T.);
#175=EDGE_CURVE('',#146,#147,#84,.T.);
#176=EDGE_CURVE('',#147,#140,#85,.T.);
#177=EDGE_CURVE('',#144,#148,#86,.T.);
#178=EDGE_CURVE('',#149,#148,#87,.T.);
#179=EDGE_CURVE('',#147,#149,#88,.T.);
#180=EDGE_CURVE('',#145,#146,#89,.T.);
#181=EDGE_CURVE('',#141,#150,#90,.T.);
#182=EDGE_CURVE('',#148,#150,#91,.T.);
#183=EDGE_CURVE('',#140,#151,#92,.T.);
#184=EDGE_CURVE('',#150,#151,#93,.T.);
#185=EDGE_CURVE('',#151,#149,#94,.T.);
#186=ORIENTED_EDGE('',*,*,#152,.F.);
#187=ORIENTED_EDGE('',*,*,#153,.T.);
#188=ORIENTED_EDGE('',*,*,#154,.F.);
#189=ORIENTED_EDGE('',*,*,#153,.F.);
#190=ORIENTED_EDGE('',*,*,#155,.F.);
#191=ORIENTED_EDGE('',*,*,#156,.T.);
#192=ORIENTED_EDGE('',*,*,#156,.F.);
#193=ORIENTED_EDGE('',*,*,#157,.F.);
#194=ORIENTED_EDGE('',*,*,#158,.T.);
#195=ORIENTED_EDGE('',*,*,#155,.T.);
#196=ORIENTED_EDGE('',*,*,#158,.F.);
#197=ORIENTED_EDGE('',*,*,#159,.F.);
#198=ORIENTED_EDGE('',*,*,#160,.T.);
#199=ORIENTED_EDGE('',*,*,#160,.F.);
#200=ORIENTED_EDGE('',*,*,#161,.F.);
#201=ORIENTED_EDGE('',*,*,#162,.T.);
#202=ORIENTED_EDGE('',*,*,#159,.T.);
#203=ORIENTED_EDGE('',*,*,#162,.F.);
#204=ORIENTED_EDGE('',*,*,#163,.F.);
#205=ORIENTED_EDGE('',*,*,#164,.T.);
#206=ORIENTED_EDGE('',*,*,#164,.F.);
#207=ORIENTED_EDGE('',*,*,#165,.F.);
#208=ORIENTED_EDGE('',*,*,#166,.T.);
#209=ORIENTED_EDGE('',*,*,#163,.T.);
#210=ORIENTED_EDGE('',*,*,#166,.F.);
#211=ORIENTED_EDGE('',*,*,#167,.T.);
#212=ORIENTED_EDGE('',*,*,#168,.T.);
#213=ORIENTED_EDGE('',*,*,#169,.T.);
#214=ORIENTED_EDGE('',*,*,#170,.T.);
#215=ORIENTED_EDGE('',*,*,#171,.T.);
#216=ORIENTED_EDGE('',*,*,#172,.T.);
#217=ORIENTED_EDGE('',*,*,#173,.T.);
#218=ORIENTED_EDGE('',*,*,#168,.F.);
#219=ORIENTED_EDGE('',*,*,#174,.T.);
#220=ORIENTED_EDGE('',*,*,#175,.T.);
#221=ORIENTED_EDGE('',*,*,#176,.T.);
#222=ORIENTED_EDGE('',*,*,#170,.F.);
#223=ORIENTED_EDGE('',*,*,#172,.F.);
#224=ORIENTED_EDGE('',*,*,#177,.T.);
#225=ORIENTED_EDGE('',*,*,#178,.F.);
#226=ORIENTED_EDGE('',*,*,#179,.F.);
#227=ORIENTED_EDGE('',*,*,#175,.F.);
#228=ORIENTED_EDGE('',*,*,#180,.F.);
#229=ORIENTED_EDGE('',*,*,#161,.T.);
#230=ORIENTED_EDGE('',*,*,#165,.T.);
#231=ORIENTED_EDGE('',*,*,#171,.F.);
#232=ORIENTED_EDGE('',*,*,#181,.T.);
#233=ORIENTED_EDGE('',*,*,#182,.F.);
#234=ORIENTED_EDGE('',*,*,#177,.F.);
#235=ORIENTED_EDGE('',*,*,#167,.F.);
#236=ORIENTED_EDGE('',*,*,#183,.T.);
#237=ORIENTED_EDGE('',*,*,#184,.F.);
#238=ORIENTED_EDGE('',*,*,#181,.F.);
#239=ORIENTED_EDGE('',*,*,#173,.F.);
#240=ORIENTED_EDGE('',*,*,#180,.T.);
#241=ORIENTED_EDGE('',*,*,#174,.F.);
#242=ORIENTED_EDGE('',*,*,#169,.F.);
#243=ORIENTED_EDGE('',*,*,#152,.T.);
#244=ORIENTED_EDGE('',*,*,#157,.T.);
#245=ORIENTED_EDGE('',*,*,#184,.T.);
#246=ORIENTED_EDGE('',*,*,#185,.T.);
#247=ORIENTED_EDGE('',*,*,#178,.T.);
#248=ORIENTED_EDGE('',*,*,#182,.T.);
#249=ORIENTED_EDGE('',*,*,#154,.T.);
#250=ORIENTED_EDGE('',*,*,#176,.F.);
#251=ORIENTED_EDGE('',*,*,#179,.T.);
#252=ORIENTED_EDGE('',*,*,#185,.F.);
#253=ORIENTED_EDGE('',*,*,#183,.F.);
#254=CYLINDRICAL_SURFACE('',#288,0.32639);
#255=CYLINDRICAL_SURFACE('',#293,0.47625);
#256=CYLINDRICAL_SURFACE('',#297,0.15875);
#257=CYLINDRICAL_SURFACE('',#301,0.15875);
#258=ADVANCED_FACE('',(#32),#254,.F.);
#259=ADVANCED_FACE('',(#33),#29,.F.);
#260=ADVANCED_FACE('',(#34),#255,.F.);
#261=ADVANCED_FACE('',(#35),#30,.F.);
#262=ADVANCED_FACE('',(#36),#256,.F.);
#263=ADVANCED_FACE('',(#37),#31,.F.);
#264=ADVANCED_FACE('',(#38),#257,.F.);
#265=ADVANCED_FACE('',(#39),#20,.T.);
#266=ADVANCED_FACE('',(#40),#21,.T.);
#267=ADVANCED_FACE('',(#41),#22,.T.);
#268=ADVANCED_FACE('',(#42,#15,#16),#23,.F.);
#269=ADVANCED_FACE('',(#43),#24,.F.);
#270=ADVANCED_FACE('',(#44),#25,.F.);
#271=ADVANCED_FACE('',(#45,#17,#18),#26,.T.);
#272=ADVANCED_FACE('',(#46,#19),#27,.F.);
#273=ADVANCED_FACE('',(#47),#28,.F.);
#274=CLOSED_SHELL('',(#258,#259,#260,#261,#262,#263,#264,#265,#266,#267,
#268,#269,#270,#271,#272,#273));
#275=DERIVED_UNIT_ELEMENT(#277,1.);
#276=DERIVED_UNIT_ELEMENT(#467,-3.);
#277=(
MASS_UNIT()
NAMED_UNIT(*)
SI_UNIT(.KILO.,.GRAM.)
);
#278=DERIVED_UNIT((#275,#276));
#279=MEASURE_REPRESENTATION_ITEM('density measure',
POSITIVE_RATIO_MEASURE(7850.),#278);
#280=PROPERTY_DEFINITION_REPRESENTATION(#285,#282);
#281=PROPERTY_DEFINITION_REPRESENTATION(#286,#283);
#282=REPRESENTATION('material name',(#284),#464);
#283=REPRESENTATION('density',(#279),#464);
#284=DESCRIPTIVE_REPRESENTATION_ITEM('Steel','Steel');
#285=PROPERTY_DEFINITION('material property','material name',#474);
#286=PROPERTY_DEFINITION('material property','density of part',#474);
#287=AXIS2_PLACEMENT_3D('placement',#388,#312,#313);
#288=AXIS2_PLACEMENT_3D('',#389,#314,#315);
#289=AXIS2_PLACEMENT_3D('',#391,#316,#317);
#290=AXIS2_PLACEMENT_3D('',#394,#319,#320);
#291=AXIS2_PLACEMENT_3D('',#395,#321,#322);
#292=AXIS2_PLACEMENT_3D('',#397,#323,#324);
#293=AXIS2_PLACEMENT_3D('',#400,#326,#327);
#294=AXIS2_PLACEMENT_3D('',#402,#328,#329);
#295=AXIS2_PLACEMENT_3D('',#404,#331,#332);
#296=AXIS2_PLACEMENT_3D('',#406,#333,#334);
#297=AXIS2_PLACEMENT_3D('',#409,#336,#337);
#298=AXIS2_PLACEMENT_3D('',#411,#338,#339);
#299=AXIS2_PLACEMENT_3D('',#413,#341,#342);
#300=AXIS2_PLACEMENT_3D('',#415,#343,#344);
#301=AXIS2_PLACEMENT_3D('',#418,#346,#347);
#302=AXIS2_PLACEMENT_3D('',#420,#348,#349);
#303=AXIS2_PLACEMENT_3D('',#422,#351,#352);
#304=AXIS2_PLACEMENT_3D('',#431,#357,#358);
#305=AXIS2_PLACEMENT_3D('',#437,#362,#363);
#306=AXIS2_PLACEMENT_3D('',#443,#367,#368);
#307=AXIS2_PLACEMENT_3D('',#450,#373,#374);
#308=AXIS2_PLACEMENT_3D('',#454,#377,#378);
#309=AXIS2_PLACEMENT_3D('',#458,#381,#382);
#310=AXIS2_PLACEMENT_3D('',#459,#383,#384);
#311=AXIS2_PLACEMENT_3D('',#461,#386,#387);
#312=DIRECTION('axis',(0.,0.,1.));
#313=DIRECTION('refdir',(1.,0.,0.));
#314=DIRECTION('center_axis',(-4.90910304317659E-14,0.,-1.));
#315=DIRECTION('ref_axis',(1.,0.,-4.90910304317659E-14));
#316=DIRECTION('center_axis',(-4.90910304317659E-14,0.,-1.));
#317=DIRECTION('ref_axis',(1.,0.,-4.90910304317659E-14));
#318=DIRECTION('',(-4.90910304317659E-14,0.,-1.));
#319=DIRECTION('center_axis',(4.90910304317659E-14,0.,1.));
#320=DIRECTION('ref_axis',(1.,0.,-4.90910304317659E-14));
#321=DIRECTION('center_axis',(4.90910304317659E-14,0.,1.));
#322=DIRECTION('ref_axis',(1.,0.,-4.90910304317659E-14));
#323=DIRECTION('center_axis',(-4.90910304317659E-14,0.,-1.));
#324=DIRECTION('ref_axis',(1.,0.,-4.90910304317659E-14));
#325=DIRECTION('',(0.857167300702087,-1.04972719113862E-16,-0.515038074910096));
#326=DIRECTION('center_axis',(-4.90910304317659E-14,0.,-1.));
#327=DIRECTION('ref_axis',(1.,0.,-4.90910304317659E-14));
#328=DIRECTION('center_axis',(-4.90910304317659E-14,0.,-1.));
#329=DIRECTION('ref_axis',(1.,0.,-4.90910304317659E-14));
#330=DIRECTION('',(-4.90910304317659E-14,0.,-1.));
#331=DIRECTION('center_axis',(0.,-1.,0.));
#332=DIRECTION('ref_axis',(0.,0.,-1.));
#333=DIRECTION('center_axis',(0.,1.,0.));
#334=DIRECTION('ref_axis',(0.,0.,-1.));
#335=DIRECTION('',(-1.04972719113862E-16,0.515038074910054,-0.857167300702112));
#336=DIRECTION('center_axis',(0.,1.,0.));
#337=DIRECTION('ref_axis',(0.,0.,-1.));
#338=DIRECTION('center_axis',(0.,1.,0.));
#339=DIRECTION('ref_axis',(0.,0.,-1.));
#340=DIRECTION('',(0.,1.,0.));
#341=DIRECTION('center_axis',(0.,-1.,0.));
#342=DIRECTION('ref_axis',(0.,0.,-1.));
#343=DIRECTION('center_axis',(0.,1.,0.));
#344=DIRECTION('ref_axis',(0.,0.,-1.));
#345=DIRECTION('',(-1.04972719113862E-16,0.515038074910054,-0.857167300702112));
#346=DIRECTION('center_axis',(0.,1.,0.));
#347=DIRECTION('ref_axis',(0.,0.,-1.));
#348=DIRECTION('center_axis',(0.,1.,0.));
#349=DIRECTION('ref_axis',(0.,0.,-1.));
#350=DIRECTION('',(0.,1.,0.));
#351=DIRECTION('center_axis',(3.47126005137368E-14,0.707106781186549,0.707106781186547));
#352=DIRECTION('ref_axis',(1.,0.,-4.90910304317659E-14));
#353=DIRECTION('',(-1.,0.,4.90910304317659E-14));
#354=DIRECTION('',(0.577350269189656,-0.577350269189625,0.577350269189597));
#355=DIRECTION('',(1.,0.,-4.90910304317659E-14));
#356=DIRECTION('',(0.577350269189599,0.577350269189624,-0.577350269189654));
#357=DIRECTION('center_axis',(-0.707106781186511,0.,0.707106781186584));
#358=DIRECTION('ref_axis',(0.707106781186584,0.,0.707106781186511));
#359=DIRECTION('',(0.,-1.,0.));
#360=DIRECTION('',(0.707106781186584,0.,0.707106781186511));
#361=DIRECTION('',(0.,1.,0.));
#362=DIRECTION('center_axis',(0.707106781186582,0.,0.707106781186513));
#363=DIRECTION('ref_axis',(0.707106781186513,0.,-0.707106781186582));
#364=DIRECTION('',(0.,-1.,0.));
#365=DIRECTION('',(0.707106781186513,0.,-0.707106781186582));
#366=DIRECTION('',(0.,1.,0.));
#367=DIRECTION('center_axis',(0.,1.,0.));
#368=DIRECTION('ref_axis',(-4.90910304317659E-14,0.,-1.));
#369=DIRECTION('',(-4.90910304317659E-14,0.,-1.));
#370=DIRECTION('',(-1.,0.,4.90910304317659E-14));
#371=DIRECTION('',(-4.90910304317659E-14,0.,-1.));
#372=DIRECTION('',(1.,0.,-4.90910304317659E-14));
#373=DIRECTION('center_axis',(1.,0.,-4.90910304317659E-14));
#374=DIRECTION('ref_axis',(-4.90910304317659E-14,0.,-1.));
#375=DIRECTION('',(-4.90910304317659E-14,0.,-1.));
#376=DIRECTION('',(0.,1.,0.));
#377=DIRECTION('center_axis',(0.,-1.,0.));
#378=DIRECTION('ref_axis',(4.90910304317659E-14,0.,1.));
#379=DIRECTION('',(-4.90910304317659E-14,0.,-1.));
#380=DIRECTION('',(1.,0.,-4.90910304317659E-14));
#381=DIRECTION('center_axis',(4.90910304317659E-14,0.,1.));
#382=DIRECTION('ref_axis',(0.,1.,0.));
#383=DIRECTION('center_axis',(4.90910304317659E-14,0.,1.));
#384=DIRECTION('ref_axis',(0.,1.,0.));
#385=DIRECTION('',(0.,-1.,0.));
#386=DIRECTION('center_axis',(-1.,0.,4.90910304317659E-14));
#387=DIRECTION('ref_axis',(4.90910304317659E-14,0.,1.));
#388=CARTESIAN_POINT('',(0.,0.,0.));
#389=CARTESIAN_POINT('Origin',(4.1275,7.54062499999997,0.0270827499996174));
#390=CARTESIAN_POINT('',(3.80111000000009,7.54062499999997,1.90499999999981));
#391=CARTESIAN_POINT('Origin',(4.12750000000009,7.54062499999997,1.9049999999998));
#392=CARTESIAN_POINT('',(3.80111,7.54062499999997,-1.86592880571467E-13));
#393=CARTESIAN_POINT('',(3.80111,7.54062499999997,0.0270827499996334));
#394=CARTESIAN_POINT('Origin',(4.1275,7.54062499999997,-2.02615701994091E-13));
#395=CARTESIAN_POINT('Origin',(4.12750000000002,3.17499999999999,0.491920065093862));
#396=CARTESIAN_POINT('',(3.65125000000003,3.17499999999999,0.634999999999823));
#397=CARTESIAN_POINT('Origin',(4.12750000000003,3.17499999999999,0.6349999999998));
#398=CARTESIAN_POINT('',(4.12750000000002,3.17499999999999,0.348840130187924));
#399=CARTESIAN_POINT('',(3.88937500000002,3.17499999999999,0.491920065093874));
#400=CARTESIAN_POINT('Origin',(4.12750000000006,3.17499999999999,1.2699999999998));
#401=CARTESIAN_POINT('',(3.65125000000009,3.17499999999999,1.90499999999982));
#402=CARTESIAN_POINT('Origin',(4.12750000000009,3.17499999999999,1.9049999999998));
#403=CARTESIAN_POINT('',(3.65125000000006,3.17499999999999,1.26999999999982));
#404=CARTESIAN_POINT('Origin',(1.58750000000004,0.841443311635313,0.873124999999933));
#405=CARTESIAN_POINT('',(1.58750000000004,0.79375,1.03187499999993));
#406=CARTESIAN_POINT('Origin',(1.58750000000004,0.79375,0.873124999999933));
#407=CARTESIAN_POINT('',(1.58750000000004,0.889136623270625,0.873124999999933));
#408=CARTESIAN_POINT('',(1.58750000000004,0.841443311635313,0.952499999999933));
#409=CARTESIAN_POINT('Origin',(1.58750000000004,0.396875,0.873124999999933));
#410=CARTESIAN_POINT('',(1.58750000000004,0.,1.03187499999993));
#411=CARTESIAN_POINT('Origin',(1.58750000000004,0.,0.873124999999933));
#412=CARTESIAN_POINT('',(1.58750000000004,0.396875,1.03187499999993));
#413=CARTESIAN_POINT('Origin',(6.66750000000004,0.841443311635313,0.873124999999675));
#414=CARTESIAN_POINT('',(6.66750000000004,0.79375,1.03187499999968));
#415=CARTESIAN_POINT('Origin',(6.66750000000004,0.79375,0.873124999999675));
#416=CARTESIAN_POINT('',(6.66750000000004,0.889136623270625,0.873124999999675));
#417=CARTESIAN_POINT('',(6.66750000000004,0.841443311635313,0.952499999999675));
#418=CARTESIAN_POINT('Origin',(6.66750000000004,0.396875,0.873124999999675));
#419=CARTESIAN_POINT('',(6.66750000000004,0.,1.03187499999968));
#420=CARTESIAN_POINT('Origin',(6.66750000000004,0.,0.873124999999675));
#421=CARTESIAN_POINT('',(6.66750000000004,0.396875,1.03187499999968));
#422=CARTESIAN_POINT('Origin',(4.12750000000009,13.890625,1.8256249999998));
#423=CARTESIAN_POINT('',(8.25500000000009,13.97,1.74624999999959));
#424=CARTESIAN_POINT('',(8.60394616493208E-14,13.97,1.74625));
#425=CARTESIAN_POINT('',(4.12750000000009,13.97,1.7462499999998));
#426=CARTESIAN_POINT('',(0.158750000000094,13.81125,1.90499999999999));
#427=CARTESIAN_POINT('',(8.60394616493208E-14,13.97,1.74625));
#428=CARTESIAN_POINT('',(8.0962500000001,13.81125,1.9049999999996));
#429=CARTESIAN_POINT('',(4.12750000000009,13.81125,1.9049999999998));
#430=CARTESIAN_POINT('',(8.0962500000001,13.81125,1.9049999999996));
#431=CARTESIAN_POINT('Origin',(0.0793750000000901,6.985,1.825625));
#432=CARTESIAN_POINT('',(8.60394616493208E-14,0.,1.74625));
#433=CARTESIAN_POINT('',(8.60422844084496E-14,6.985,1.74625));
#434=CARTESIAN_POINT('',(0.158750000000094,0.,1.90499999999999));
#435=CARTESIAN_POINT('',(0.873125000000134,-4.44089209850063E-16,2.61937499999996));
#436=CARTESIAN_POINT('',(0.158750000000094,6.985,1.90499999999999));
#437=CARTESIAN_POINT('Origin',(8.17562500000009,6.985,1.8256249999996));
#438=CARTESIAN_POINT('',(8.0962500000001,0.,1.9049999999996));
#439=CARTESIAN_POINT('',(8.0962500000001,6.985,1.9049999999996));
#440=CARTESIAN_POINT('',(8.25500000000009,0.,1.74624999999959));
#441=CARTESIAN_POINT('',(7.38187500000013,0.,2.61937499999964));
#442=CARTESIAN_POINT('',(8.25500000000009,6.985,1.74624999999959));
#443=CARTESIAN_POINT('Origin',(4.12750000000005,0.,0.952499999999797));
#444=CARTESIAN_POINT('',(0.,0.,0.));
#445=CARTESIAN_POINT('',(4.70734562441066E-14,0.,0.9525));
#446=CARTESIAN_POINT('',(8.255,0.,-4.05231403988182E-13));
#447=CARTESIAN_POINT('',(4.1275,0.,-2.02615701994091E-13));
#448=CARTESIAN_POINT('',(8.25500000000005,0.,0.952499999999595));
#449=CARTESIAN_POINT('',(4.12750000000009,0.,1.9049999999998));
#450=CARTESIAN_POINT('Origin',(4.70734562441066E-14,6.985,0.9525));
#451=CARTESIAN_POINT('',(0.,13.97,0.));
#452=CARTESIAN_POINT('',(4.70734562441066E-14,13.97,0.9525));
#453=CARTESIAN_POINT('',(0.,6.985,0.));
#454=CARTESIAN_POINT('Origin',(4.12750000000005,13.97,0.952499999999797));
#455=CARTESIAN_POINT('',(8.255,13.97,-4.05231403988182E-13));
#456=CARTESIAN_POINT('',(8.25500000000005,13.97,0.952499999999595));
#457=CARTESIAN_POINT('',(4.1275,13.97,-2.02615701994091E-13));
#458=CARTESIAN_POINT('Origin',(4.12750000000009,6.985,1.9049999999998));
#459=CARTESIAN_POINT('Origin',(4.1275,6.985,-2.02615701994091E-13));
#460=CARTESIAN_POINT('',(8.255,6.985,-4.05231403988182E-13));
#461=CARTESIAN_POINT('Origin',(8.25500000000005,6.985,0.952499999999595));
#462=UNCERTAINTY_MEASURE_WITH_UNIT(LENGTH_MEASURE(0.001),#466,
'DISTANCE_ACCURACY_VALUE',
'Maximum model space distance between geometric entities at asserted c
onnectivities');
#463=UNCERTAINTY_MEASURE_WITH_UNIT(LENGTH_MEASURE(0.001),#466,
'DISTANCE_ACCURACY_VALUE',
'Maximum model space distance between geometric entities at asserted c
onnectivities');
#464=(
GEOMETRIC_REPRESENTATION_CONTEXT(3)
GLOBAL_UNCERTAINTY_ASSIGNED_CONTEXT((#462))
GLOBAL_UNIT_ASSIGNED_CONTEXT((#466,#468,#469))
REPRESENTATION_CONTEXT('','3D')
);
#465=(
GEOMETRIC_REPRESENTATION_CONTEXT(3)
GLOBAL_UNCERTAINTY_ASSIGNED_CONTEXT((#463))
GLOBAL_UNIT_ASSIGNED_CONTEXT((#466,#468,#469))
REPRESENTATION_CONTEXT('','3D')
);
#466=(
LENGTH_UNIT()
NAMED_UNIT(*)
SI_UNIT(.CENTI.,.METRE.)
);
#467=(
LENGTH_UNIT()
NAMED_UNIT(*)
SI_UNIT($,.METRE.)
);
#468=(
NAMED_UNIT(*)
PLANE_ANGLE_UNIT()
SI_UNIT($,.RADIAN.)
);
#469=(
NAMED_UNIT(*)
SI_UNIT($,.STERADIAN.)
SOLID_ANGLE_UNIT()
);
#470=SHAPE_DEFINITION_REPRESENTATION(#471,#472);
#471=PRODUCT_DEFINITION_SHAPE('',$,#474);
#472=SHAPE_REPRESENTATION('',(#287),#464);
#473=PRODUCT_DEFINITION_CONTEXT('part definition',#478,'design');
#474=PRODUCT_DEFINITION('temp_body','temp_body',#475,#473);
#475=PRODUCT_DEFINITION_FORMATION('',$,#480);
#476=PRODUCT_RELATED_PRODUCT_CATEGORY('temp_body','temp_body',(#480));
#477=APPLICATION_PROTOCOL_DEFINITION('international standard',
'automotive_design',2009,#478);
#478=APPLICATION_CONTEXT(
'Core Data for Automotive Mechanical Design Process');
#479=PRODUCT_CONTEXT('part definition',#478,'mechanical');
#480=PRODUCT('temp_body','temp_body',$,(#479));
#481=PRESENTATION_STYLE_ASSIGNMENT((#482));
#482=SURFACE_STYLE_USAGE(.BOTH.,#483);
#483=SURFACE_SIDE_STYLE('',(#484));
#484=SURFACE_STYLE_FILL_AREA(#485);
#485=FILL_AREA_STYLE('Steel - Satin',(#486));
#486=FILL_AREA_STYLE_COLOUR('Steel - Satin',#487);
#487=COLOUR_RGB('Steel - Satin',0.627450980392157,0.627450980392157,0.627450980392157);
ENDSEC;
END-ISO-10303-21;
