ISO-10303-21;
HEADER;
/* Generated by software containing ST-Developer
 * from STEP Tools, Inc. (www.steptools.com) 
 */

FILE_DESCRIPTION(
/* description */ (''),
/* implementation_level */ '2;1');

FILE_NAME(
/* name */ 
'C:\\Users\\designnet\\AppData\\Local\\Temp\\derivatives\\23218_02d26a
b4\\AssemblyExtractor\\23218_02d26ab4\\9c26fbfa-055e-11ec-82ac-0acddec
473cb.step',
/* time_stamp */ '2021-08-25T04:40:50+00:00',
/* author */ (''),
/* organization */ (''),
/* preprocessor_version */ 'ST-DEVELOPER v18.1',
/* originating_system */ 'Autodesk Translation Framework v10.6.0.1341',

/* authorisation */ '');

FILE_SCHEMA (('AUTOMOTIVE_DESIGN { 1 0 10303 214 3 1 1 }'));
ENDSEC;

DATA;
#10=MECHANICAL_DESIGN_GEOMETRIC_PRESENTATION_REPRESENTATION('',(#13),#179);
#11=SHAPE_REPRESENTATION_RELATIONSHIP('SRR','None',#186,#12);
#12=ADVANCED_BREP_SHAPE_REPRESENTATION('',(#14),#178);
#13=STYLED_ITEM('',(#195),#14);
#14=MANIFOLD_SOLID_BREP('Body1',#96);
#15=FACE_BOUND('',#34,.T.);
#16=FACE_BOUND('',#35,.T.);
#17=FACE_BOUND('',#37,.T.);
#18=PLANE('',#120);
#19=PLANE('',#121);
#20=CYLINDRICAL_SURFACE('',#112,0.3175);
#21=CYLINDRICAL_SURFACE('',#114,0.317499999999999);
#22=CYLINDRICAL_SURFACE('',#117,2.8575);
#23=FACE_OUTER_BOUND('',#29,.T.);
#24=FACE_OUTER_BOUND('',#30,.T.);
#25=FACE_OUTER_BOUND('',#31,.T.);
#26=FACE_OUTER_BOUND('',#32,.T.);
#27=FACE_OUTER_BOUND('',#33,.T.);
#28=FACE_OUTER_BOUND('',#36,.T.);
#29=EDGE_LOOP('',(#69,#70,#71));
#30=EDGE_LOOP('',(#72,#73,#74,#75));
#31=EDGE_LOOP('',(#76,#77,#78,#79));
#32=EDGE_LOOP('',(#80,#81,#82,#83));
#33=EDGE_LOOP('',(#84));
#34=EDGE_LOOP('',(#85));
#35=EDGE_LOOP('',(#86));
#36=EDGE_LOOP('',(#87));
#37=EDGE_LOOP('',(#88));
#38=LINE('',#157,#42);
#39=LINE('',#161,#43);
#40=LINE('',#166,#44);
#41=LINE('',#172,#45);
#42=VECTOR('',#128,0.15875);
#43=VECTOR('',#133,0.3175);
#44=VECTOR('',#138,0.317499999999999);
#45=VECTOR('',#145,2.8575);
#46=CIRCLE('',#111,0.3175);
#47=CIRCLE('',#113,0.3175);
#48=CIRCLE('',#115,0.317499999999999);
#49=CIRCLE('',#116,0.317499999999999);
#50=CIRCLE('',#118,2.8575);
#51=CIRCLE('',#119,2.8575);
#52=VERTEX_POINT('',#154);
#53=VERTEX_POINT('',#156);
#54=VERTEX_POINT('',#159);
#55=VERTEX_POINT('',#163);
#56=VERTEX_POINT('',#165);
#57=VERTEX_POINT('',#169);
#58=VERTEX_POINT('',#171);
#59=EDGE_CURVE('',#52,#52,#46,.T.);
#60=EDGE_CURVE('',#52,#53,#38,.T.);
#61=EDGE_CURVE('',#54,#54,#47,.T.);
#62=EDGE_CURVE('',#54,#52,#39,.T.);
#63=EDGE_CURVE('',#55,#55,#48,.T.);
#64=EDGE_CURVE('',#55,#56,#40,.T.);
#65=EDGE_CURVE('',#56,#56,#49,.T.);
#66=EDGE_CURVE('',#57,#57,#50,.T.);
#67=EDGE_CURVE('',#57,#58,#41,.T.);
#68=EDGE_CURVE('',#58,#58,#51,.T.);
#69=ORIENTED_EDGE('',*,*,#59,.F.);
#70=ORIENTED_EDGE('',*,*,#60,.T.);
#71=ORIENTED_EDGE('',*,*,#60,.F.);
#72=ORIENTED_EDGE('',*,*,#61,.F.);
#73=ORIENTED_EDGE('',*,*,#62,.T.);
#74=ORIENTED_EDGE('',*,*,#59,.T.);
#75=ORIENTED_EDGE('',*,*,#62,.F.);
#76=ORIENTED_EDGE('',*,*,#63,.F.);
#77=ORIENTED_EDGE('',*,*,#64,.T.);
#78=ORIENTED_EDGE('',*,*,#65,.T.);
#79=ORIENTED_EDGE('',*,*,#64,.F.);
#80=ORIENTED_EDGE('',*,*,#66,.F.);
#81=ORIENTED_EDGE('',*,*,#67,.T.);
#82=ORIENTED_EDGE('',*,*,#68,.T.);
#83=ORIENTED_EDGE('',*,*,#67,.F.);
#84=ORIENTED_EDGE('',*,*,#66,.T.);
#85=ORIENTED_EDGE('',*,*,#61,.T.);
#86=ORIENTED_EDGE('',*,*,#63,.T.);
#87=ORIENTED_EDGE('',*,*,#68,.F.);
#88=ORIENTED_EDGE('',*,*,#65,.F.);
#89=CONICAL_SURFACE('',#110,0.15875,1.02974425867665);
#90=ADVANCED_FACE('',(#23),#89,.F.);
#91=ADVANCED_FACE('',(#24),#20,.F.);
#92=ADVANCED_FACE('',(#25),#21,.F.);
#93=ADVANCED_FACE('',(#26),#22,.T.);
#94=ADVANCED_FACE('',(#27,#15,#16),#18,.T.);
#95=ADVANCED_FACE('',(#28,#17),#19,.F.);
#96=CLOSED_SHELL('',(#90,#91,#92,#93,#94,#95));
#97=DERIVED_UNIT_ELEMENT(#99,1.);
#98=DERIVED_UNIT_ELEMENT(#181,-3.);
#99=(
MASS_UNIT()
NAMED_UNIT(*)
SI_UNIT(.KILO.,.GRAM.)
);
#100=DERIVED_UNIT((#97,#98));
#101=MEASURE_REPRESENTATION_ITEM('density measure',
POSITIVE_RATIO_MEASURE(7850.),#100);
#102=PROPERTY_DEFINITION_REPRESENTATION(#107,#104);
#103=PROPERTY_DEFINITION_REPRESENTATION(#108,#105);
#104=REPRESENTATION('material name',(#106),#178);
#105=REPRESENTATION('density',(#101),#178);
#106=DESCRIPTIVE_REPRESENTATION_ITEM('Steel','Steel');
#107=PROPERTY_DEFINITION('material property','material name',#188);
#108=PROPERTY_DEFINITION('material property','density of part',#188);
#109=AXIS2_PLACEMENT_3D('placement',#152,#122,#123);
#110=AXIS2_PLACEMENT_3D('',#153,#124,#125);
#111=AXIS2_PLACEMENT_3D('',#155,#126,#127);
#112=AXIS2_PLACEMENT_3D('',#158,#129,#130);
#113=AXIS2_PLACEMENT_3D('',#160,#131,#132);
#114=AXIS2_PLACEMENT_3D('',#162,#134,#135);
#115=AXIS2_PLACEMENT_3D('',#164,#136,#137);
#116=AXIS2_PLACEMENT_3D('',#167,#139,#140);
#117=AXIS2_PLACEMENT_3D('',#168,#141,#142);
#118=AXIS2_PLACEMENT_3D('',#170,#143,#144);
#119=AXIS2_PLACEMENT_3D('',#173,#146,#147);
#120=AXIS2_PLACEMENT_3D('',#174,#148,#149);
#121=AXIS2_PLACEMENT_3D('',#175,#150,#151);
#122=DIRECTION('axis',(0.,0.,1.));
#123=DIRECTION('refdir',(1.,0.,0.));
#124=DIRECTION('center_axis',(0.,0.,1.));
#125=DIRECTION('ref_axis',(1.,0.,0.));
#126=DIRECTION('center_axis',(0.,0.,-1.));
#127=DIRECTION('ref_axis',(1.,0.,0.));
#128=DIRECTION('',(0.857167300702112,-1.04972719113862E-16,-0.515038074910054));
#129=DIRECTION('center_axis',(0.,0.,-1.));
#130=DIRECTION('ref_axis',(1.,0.,0.));
#131=DIRECTION('center_axis',(0.,0.,-1.));
#132=DIRECTION('ref_axis',(1.,0.,0.));
#133=DIRECTION('',(0.,0.,-1.));
#134=DIRECTION('center_axis',(0.,0.,1.));
#135=DIRECTION('ref_axis',(1.,0.,0.));
#136=DIRECTION('center_axis',(0.,0.,-1.));
#137=DIRECTION('ref_axis',(1.,0.,0.));
#138=DIRECTION('',(0.,0.,-1.));
#139=DIRECTION('center_axis',(0.,0.,-1.));
#140=DIRECTION('ref_axis',(1.,0.,0.));
#141=DIRECTION('center_axis',(0.,0.,1.));
#142=DIRECTION('ref_axis',(1.,0.,0.));
#143=DIRECTION('center_axis',(0.,0.,1.));
#144=DIRECTION('ref_axis',(1.,0.,0.));
#145=DIRECTION('',(0.,0.,-1.));
#146=DIRECTION('center_axis',(0.,0.,1.));
#147=DIRECTION('ref_axis',(1.,0.,0.));
#148=DIRECTION('center_axis',(0.,0.,1.));
#149=DIRECTION('ref_axis',(1.,0.,0.));
#150=DIRECTION('center_axis',(0.,0.,1.));
#151=DIRECTION('ref_axis',(1.,0.,0.));
#152=CARTESIAN_POINT('',(0.,0.,0.));
#153=CARTESIAN_POINT('Origin',(14.6050005269051,5.08000016212463,0.142738376729375));
#154=CARTESIAN_POINT('',(14.2875005269051,5.08000016212463,0.238125000000001));
#155=CARTESIAN_POINT('Origin',(14.6050005269051,5.08000016212463,0.238125));
#156=CARTESIAN_POINT('',(14.6050005269051,5.08000016212463,0.0473517534587496));
#157=CARTESIAN_POINT('',(14.4462505269051,5.08000016212463,0.142738376729375));
#158=CARTESIAN_POINT('Origin',(14.6050005269051,5.08000016212463,0.5953125));
#159=CARTESIAN_POINT('',(14.2875005269051,5.08000016212463,0.9525));
#160=CARTESIAN_POINT('Origin',(14.6050005269051,5.08000016212463,0.9525));
#161=CARTESIAN_POINT('',(14.2875005269051,5.08000016212463,0.5953125));
#162=CARTESIAN_POINT('Origin',(16.5100005269051,5.08000016212463,0.));
#163=CARTESIAN_POINT('',(16.1925005269051,5.08000016212463,0.9525));
#164=CARTESIAN_POINT('Origin',(16.5100005269051,5.08000016212463,0.9525));
#165=CARTESIAN_POINT('',(16.1925005269051,5.08000016212463,0.));
#166=CARTESIAN_POINT('',(16.1925005269051,5.08000016212463,0.));
#167=CARTESIAN_POINT('Origin',(16.5100005269051,5.08000016212463,0.));
#168=CARTESIAN_POINT('Origin',(16.5100005269051,5.08000016212463,0.));
#169=CARTESIAN_POINT('',(13.6525005269051,5.08000016212463,0.9525));
#170=CARTESIAN_POINT('Origin',(16.5100005269051,5.08000016212463,0.9525));
#171=CARTESIAN_POINT('',(13.6525005269051,5.08000016212463,0.));
#172=CARTESIAN_POINT('',(13.6525005269051,5.08000016212463,0.));
#173=CARTESIAN_POINT('Origin',(16.5100005269051,5.08000016212463,0.));
#174=CARTESIAN_POINT('Origin',(16.5100005269051,5.08000016212463,0.9525));
#175=CARTESIAN_POINT('Origin',(16.5100005269051,5.08000016212463,0.));
#176=UNCERTAINTY_MEASURE_WITH_UNIT(LENGTH_MEASURE(0.001),#180,
'DISTANCE_ACCURACY_VALUE',
'Maximum model space distance between geometric entities at asserted c
onnectivities');
#177=UNCERTAINTY_MEASURE_WITH_UNIT(LENGTH_MEASURE(0.001),#180,
'DISTANCE_ACCURACY_VALUE',
'Maximum model space distance between geometric entities at asserted c
onnectivities');
#178=(
GEOMETRIC_REPRESENTATION_CONTEXT(3)
GLOBAL_UNCERTAINTY_ASSIGNED_CONTEXT((#176))
GLOBAL_UNIT_ASSIGNED_CONTEXT((#180,#182,#183))
REPRESENTATION_CONTEXT('','3D')
);
#179=(
GEOMETRIC_REPRESENTATION_CONTEXT(3)
GLOBAL_UNCERTAINTY_ASSIGNED_CONTEXT((#177))
GLOBAL_UNIT_ASSIGNED_CONTEXT((#180,#182,#183))
REPRESENTATION_CONTEXT('','3D')
);
#180=(
LENGTH_UNIT()
NAMED_UNIT(*)
SI_UNIT(.CENTI.,.METRE.)
);
#181=(
LENGTH_UNIT()
NAMED_UNIT(*)
SI_UNIT($,.METRE.)
);
#182=(
NAMED_UNIT(*)
PLANE_ANGLE_UNIT()
SI_UNIT($,.RADIAN.)
);
#183=(
NAMED_UNIT(*)
SI_UNIT($,.STERADIAN.)
SOLID_ANGLE_UNIT()
);
#184=SHAPE_DEFINITION_REPRESENTATION(#185,#186);
#185=PRODUCT_DEFINITION_SHAPE('',$,#188);
#186=SHAPE_REPRESENTATION('',(#109),#178);
#187=PRODUCT_DEFINITION_CONTEXT('part definition',#192,'design');
#188=PRODUCT_DEFINITION('temp_body','temp_body',#189,#187);
#189=PRODUCT_DEFINITION_FORMATION('',$,#194);
#190=PRODUCT_RELATED_PRODUCT_CATEGORY('temp_body','temp_body',(#194));
#191=APPLICATION_PROTOCOL_DEFINITION('international standard',
'automotive_design',2009,#192);
#192=APPLICATION_CONTEXT(
'Core Data for Automotive Mechanical Design Process');
#193=PRODUCT_CONTEXT('part definition',#192,'mechanical');
#194=PRODUCT('temp_body','temp_body',$,(#193));
#195=PRESENTATION_STYLE_ASSIGNMENT((#196));
#196=SURFACE_STYLE_USAGE(.BOTH.,#197);
#197=SURFACE_SIDE_STYLE('',(#198));
#198=SURFACE_STYLE_FILL_AREA(#199);
#199=FILL_AREA_STYLE('Steel - Satin',(#200));
#200=FILL_AREA_STYLE_COLOUR('Steel - Satin',#201);
#201=COLOUR_RGB('Steel - Satin',0.627450980392157,0.627450980392157,0.627450980392157);
ENDSEC;
END-ISO-10303-21;
