ISO-10303-21;
HEADER;
/* Generated by software containing ST-Developer
 * from STEP Tools, Inc. (www.steptools.com) 
 */

FILE_DESCRIPTION(
/* description */ (''),
/* implementation_level */ '2;1');

FILE_NAME(
/* name */ 
'C:\\Users\\designnet\\AppData\\Local\\Temp\\derivatives\\23218_02d26a
b4\\AssemblyExtractor\\23218_02d26ab4\\9c27e688-055e-11ec-9a81-0acddec
473cb.step',
/* time_stamp */ '2021-08-25T04:40:52+00:00',
/* author */ (''),
/* organization */ (''),
/* preprocessor_version */ 'ST-DEVELOPER v18.1',
/* originating_system */ 'Autodesk Translation Framework v10.6.0.1341',

/* authorisation */ '');

FILE_SCHEMA (('AUTOMOTIVE_DESIGN { 1 0 10303 214 3 1 1 }'));
ENDSEC;

DATA;
#10=MECHANICAL_DESIGN_GEOMETRIC_PRESENTATION_REPRESENTATION('',(#13),#111);
#11=SHAPE_REPRESENTATION_RELATIONSHIP('SRR','None',#118,#12);
#12=ADVANCED_BREP_SHAPE_REPRESENTATION('',(#14),#110);
#13=STYLED_ITEM('',(#127),#14);
#14=MANIFOLD_SOLID_BREP('Body1',#56);
#15=PLANE('',#75);
#16=PLANE('',#76);
#17=CYLINDRICAL_SURFACE('',#73,0.317499999999999);
#18=FACE_OUTER_BOUND('',#22,.T.);
#19=FACE_OUTER_BOUND('',#23,.T.);
#20=FACE_OUTER_BOUND('',#24,.T.);
#21=FACE_OUTER_BOUND('',#25,.T.);
#22=EDGE_LOOP('',(#41,#42,#43,#44));
#23=EDGE_LOOP('',(#45,#46,#47,#48));
#24=EDGE_LOOP('',(#49));
#25=EDGE_LOOP('',(#50));
#26=LINE('',#100,#28);
#27=LINE('',#104,#29);
#28=VECTOR('',#83,0.237489999999999);
#29=VECTOR('',#88,0.317499999999999);
#30=CIRCLE('',#71,0.15748);
#31=CIRCLE('',#72,0.317499999999999);
#32=CIRCLE('',#74,0.317499999999999);
#33=VERTEX_POINT('',#97);
#34=VERTEX_POINT('',#99);
#35=VERTEX_POINT('',#103);
#36=EDGE_CURVE('',#33,#33,#30,.T.);
#37=EDGE_CURVE('',#33,#34,#26,.T.);
#38=EDGE_CURVE('',#34,#34,#31,.T.);
#39=EDGE_CURVE('',#34,#35,#27,.T.);
#40=EDGE_CURVE('',#35,#35,#32,.T.);
#41=ORIENTED_EDGE('',*,*,#36,.T.);
#42=ORIENTED_EDGE('',*,*,#37,.T.);
#43=ORIENTED_EDGE('',*,*,#38,.T.);
#44=ORIENTED_EDGE('',*,*,#37,.F.);
#45=ORIENTED_EDGE('',*,*,#38,.F.);
#46=ORIENTED_EDGE('',*,*,#39,.T.);
#47=ORIENTED_EDGE('',*,*,#40,.T.);
#48=ORIENTED_EDGE('',*,*,#39,.F.);
#49=ORIENTED_EDGE('',*,*,#36,.F.);
#50=ORIENTED_EDGE('',*,*,#40,.F.);
#51=CONICAL_SURFACE('',#70,0.237489999999999,0.785398163397446);
#52=ADVANCED_FACE('',(#18),#51,.T.);
#53=ADVANCED_FACE('',(#19),#17,.T.);
#54=ADVANCED_FACE('',(#20),#15,.T.);
#55=ADVANCED_FACE('',(#21),#16,.F.);
#56=CLOSED_SHELL('',(#52,#53,#54,#55));
#57=DERIVED_UNIT_ELEMENT(#59,1.);
#58=DERIVED_UNIT_ELEMENT(#113,-3.);
#59=(
MASS_UNIT()
NAMED_UNIT(*)
SI_UNIT(.KILO.,.GRAM.)
);
#60=DERIVED_UNIT((#57,#58));
#61=MEASURE_REPRESENTATION_ITEM('density measure',
POSITIVE_RATIO_MEASURE(7850.),#60);
#62=PROPERTY_DEFINITION_REPRESENTATION(#67,#64);
#63=PROPERTY_DEFINITION_REPRESENTATION(#68,#65);
#64=REPRESENTATION('material name',(#66),#110);
#65=REPRESENTATION('density',(#61),#110);
#66=DESCRIPTIVE_REPRESENTATION_ITEM('Steel','Steel');
#67=PROPERTY_DEFINITION('material property','material name',#120);
#68=PROPERTY_DEFINITION('material property','density of part',#120);
#69=AXIS2_PLACEMENT_3D('placement',#95,#77,#78);
#70=AXIS2_PLACEMENT_3D('',#96,#79,#80);
#71=AXIS2_PLACEMENT_3D('',#98,#81,#82);
#72=AXIS2_PLACEMENT_3D('',#101,#84,#85);
#73=AXIS2_PLACEMENT_3D('',#102,#86,#87);
#74=AXIS2_PLACEMENT_3D('',#105,#89,#90);
#75=AXIS2_PLACEMENT_3D('',#106,#91,#92);
#76=AXIS2_PLACEMENT_3D('',#107,#93,#94);
#77=DIRECTION('axis',(0.,0.,1.));
#78=DIRECTION('refdir',(1.,0.,0.));
#79=DIRECTION('center_axis',(0.,0.,-1.));
#80=DIRECTION('ref_axis',(1.,0.,0.));
#81=DIRECTION('center_axis',(0.,0.,-1.));
#82=DIRECTION('ref_axis',(1.,0.,0.));
#83=DIRECTION('',(-0.707106781186546,-8.65956056235491E-17,-0.707106781186549));
#84=DIRECTION('center_axis',(0.,0.,1.));
#85=DIRECTION('ref_axis',(1.,0.,0.));
#86=DIRECTION('center_axis',(0.,0.,1.));
#87=DIRECTION('ref_axis',(1.,0.,0.));
#88=DIRECTION('',(0.,0.,-1.));
#89=DIRECTION('center_axis',(0.,0.,1.));
#90=DIRECTION('ref_axis',(1.,0.,0.));
#91=DIRECTION('center_axis',(0.,0.,1.));
#92=DIRECTION('ref_axis',(1.,0.,0.));
#93=DIRECTION('center_axis',(0.,0.,1.));
#94=DIRECTION('ref_axis',(1.,0.,0.));
#95=CARTESIAN_POINT('',(0.,0.,0.));
#96=CARTESIAN_POINT('Origin',(14.9860004782677,8.89000028371811,4.68249));
#97=CARTESIAN_POINT('',(14.8285204782677,8.89000028371811,4.7625));
#98=CARTESIAN_POINT('Origin',(14.9860004782677,8.89000028371811,4.7625));
#99=CARTESIAN_POINT('',(14.6685004782677,8.89000028371811,4.60248));
#100=CARTESIAN_POINT('',(14.7485104782677,8.89000028371811,4.68249));
#101=CARTESIAN_POINT('Origin',(14.9860004782677,8.89000028371811,4.60248));
#102=CARTESIAN_POINT('Origin',(14.9860004782677,8.89000028371811,0.));
#103=CARTESIAN_POINT('',(14.6685004782677,8.89000028371811,0.));
#104=CARTESIAN_POINT('',(14.6685004782677,8.89000028371811,0.));
#105=CARTESIAN_POINT('Origin',(14.9860004782677,8.89000028371811,0.));
#106=CARTESIAN_POINT('Origin',(14.9860004782677,8.89000028371811,4.7625));
#107=CARTESIAN_POINT('Origin',(14.9860004782677,8.89000028371811,0.));
#108=UNCERTAINTY_MEASURE_WITH_UNIT(LENGTH_MEASURE(0.001),#112,
'DISTANCE_ACCURACY_VALUE',
'Maximum model space distance between geometric entities at asserted c
onnectivities');
#109=UNCERTAINTY_MEASURE_WITH_UNIT(LENGTH_MEASURE(0.001),#112,
'DISTANCE_ACCURACY_VALUE',
'Maximum model space distance between geometric entities at asserted c
onnectivities');
#110=(
GEOMETRIC_REPRESENTATION_CONTEXT(3)
GLOBAL_UNCERTAINTY_ASSIGNED_CONTEXT((#108))
GLOBAL_UNIT_ASSIGNED_CONTEXT((#112,#114,#115))
REPRESENTATION_CONTEXT('','3D')
);
#111=(
GEOMETRIC_REPRESENTATION_CONTEXT(3)
GLOBAL_UNCERTAINTY_ASSIGNED_CONTEXT((#109))
GLOBAL_UNIT_ASSIGNED_CONTEXT((#112,#114,#115))
REPRESENTATION_CONTEXT('','3D')
);
#112=(
LENGTH_UNIT()
NAMED_UNIT(*)
SI_UNIT(.CENTI.,.METRE.)
);
#113=(
LENGTH_UNIT()
NAMED_UNIT(*)
SI_UNIT($,.METRE.)
);
#114=(
NAMED_UNIT(*)
PLANE_ANGLE_UNIT()
SI_UNIT($,.RADIAN.)
);
#115=(
NAMED_UNIT(*)
SI_UNIT($,.STERADIAN.)
SOLID_ANGLE_UNIT()
);
#116=SHAPE_DEFINITION_REPRESENTATION(#117,#118);
#117=PRODUCT_DEFINITION_SHAPE('',$,#120);
#118=SHAPE_REPRESENTATION('',(#69),#110);
#119=PRODUCT_DEFINITION_CONTEXT('part definition',#124,'design');
#120=PRODUCT_DEFINITION('temp_body','temp_body',#121,#119);
#121=PRODUCT_DEFINITION_FORMATION('',$,#126);
#122=PRODUCT_RELATED_PRODUCT_CATEGORY('temp_body','temp_body',(#126));
#123=APPLICATION_PROTOCOL_DEFINITION('international standard',
'automotive_design',2009,#124);
#124=APPLICATION_CONTEXT(
'Core Data for Automotive Mechanical Design Process');
#125=PRODUCT_CONTEXT('part definition',#124,'mechanical');
#126=PRODUCT('temp_body','temp_body',$,(#125));
#127=PRESENTATION_STYLE_ASSIGNMENT((#128));
#128=SURFACE_STYLE_USAGE(.BOTH.,#129);
#129=SURFACE_SIDE_STYLE('',(#130));
#130=SURFACE_STYLE_FILL_AREA(#131);
#131=FILL_AREA_STYLE('Steel - Satin',(#132));
#132=FILL_AREA_STYLE_COLOUR('Steel - Satin',#133);
#133=COLOUR_RGB('Steel - Satin',0.627450980392157,0.627450980392157,0.627450980392157);
ENDSEC;
END-ISO-10303-21;
