ISO-10303-21;
HEADER;
/* Generated by software containing ST-Developer
 * from STEP Tools, Inc. (www.steptools.com) 
 */

FILE_DESCRIPTION(
/* description */ (''),
/* implementation_level */ '2;1');

FILE_NAME(
/* name */ 
'C:\\Users\\designnet\\AppData\\Local\\Temp\\derivatives\\21224_18ba4a
ba\\AssemblyExtractor\\21224_18ba4aba\\a4778d3e-05a3-11ec-82df-020a4e4
6e3ef.step',
/* time_stamp */ '2021-08-25T12:55:00+00:00',
/* author */ (''),
/* organization */ (''),
/* preprocessor_version */ 'ST-DEVELOPER v18.1',
/* originating_system */ 'Autodesk Translation Framework v10.6.0.1341',

/* authorisation */ '');

FILE_SCHEMA (('AUTOMOTIVE_DESIGN { 1 0 10303 214 3 1 1 }'));
ENDSEC;

DATA;
#10=MECHANICAL_DESIGN_GEOMETRIC_PRESENTATION_REPRESENTATION('',(#13),#248);
#11=SHAPE_REPRESENTATION_RELATIONSHIP('SRR','None',#255,#12);
#12=ADVANCED_BREP_SHAPE_REPRESENTATION('',(#14),#247);
#13=STYLED_ITEM('',(#264),#14);
#14=MANIFOLD_SOLID_BREP('Body1',#112);
#15=ELLIPSE('',#131,2.21468493455286,0.45338810948051);
#16=CIRCLE('',#129,1.5356359725403);
#17=CONICAL_SURFACE('',#128,1.54525935563458,0.92526872266048);
#18=CONICAL_SURFACE('',#132,1.52948273872885,0.401425727958696);
#19=B_SPLINE_SURFACE_WITH_KNOTS('',3,3,((#198,#199,#200,#201),(#202,#203,
#204,#205),(#206,#207,#208,#209),(#210,#211,#212,#213)),.UNSPECIFIED.,.F.,
 .F.,.F.,(4,4),(4,4),(0.,0.761633132125246),(0.000926892815746358,0.005179271747554),
 .UNSPECIFIED.);
#20=B_SPLINE_SURFACE_WITH_KNOTS('',3,3,((#229,#230,#231,#232),(#233,#234,
#235,#236),(#237,#238,#239,#240),(#241,#242,#243,#244)),.UNSPECIFIED.,.F.,
 .F.,.F.,(4,4),(4,4),(0.,1.),(-0.775900262775063,-0.753938110327696),
 .UNSPECIFIED.);
#21=FACE_OUTER_BOUND('',#28,.T.);
#22=FACE_OUTER_BOUND('',#29,.T.);
#23=FACE_OUTER_BOUND('',#30,.T.);
#24=FACE_OUTER_BOUND('',#31,.T.);
#25=FACE_OUTER_BOUND('',#32,.T.);
#26=FACE_OUTER_BOUND('',#33,.T.);
#27=FACE_OUTER_BOUND('',#34,.T.);
#28=EDGE_LOOP('',(#74,#75,#76,#77,#78,#79));
#29=EDGE_LOOP('',(#80,#81,#82,#83));
#30=EDGE_LOOP('',(#84,#85,#86,#87));
#31=EDGE_LOOP('',(#88,#89,#90));
#32=EDGE_LOOP('',(#91,#92,#93));
#33=EDGE_LOOP('',(#94,#95,#96));
#34=EDGE_LOOP('',(#97,#98,#99,#100,#101));
#35=(
BOUNDED_CURVE()
B_SPLINE_CURVE(2,(#177,#178,#179),.UNSPECIFIED.,.F.,.F.)
B_SPLINE_CURVE_WITH_KNOTS((3,3),(0.011579497426474,0.0910353201855462),
 .UNSPECIFIED.)
CURVE()
GEOMETRIC_REPRESENTATION_ITEM()
RATIONAL_B_SPLINE_CURVE((1.00026425684413,1.00113442609369,1.00150416243846))
REPRESENTATION_ITEM('')
);
#36=(
BOUNDED_CURVE()
B_SPLINE_CURVE(2,(#180,#181,#182),.UNSPECIFIED.,.F.,.F.)
B_SPLINE_CURVE_WITH_KNOTS((3,3),(0.025176609836562,0.104009034386764),
 .UNSPECIFIED.)
CURVE()
GEOMETRIC_REPRESENTATION_ITEM()
RATIONAL_B_SPLINE_CURVE((1.0003785695203,1.00086817620855,1.00071227557386))
REPRESENTATION_ITEM('')
);
#37=LINE('',#165,#41);
#38=LINE('',#167,#42);
#39=LINE('',#197,#43);
#40=LINE('',#215,#44);
#41=VECTOR('',#137,1.);
#42=VECTOR('',#138,1.);
#43=VECTOR('',#141,1.);
#44=VECTOR('',#142,1.);
#45=B_SPLINE_CURVE_WITH_KNOTS('',3,(#157,#158,#159,#160,#161,#162,#163),
 .UNSPECIFIED.,.F.,.F.,(4,3,4),(-0.0037323665464963,-0.00339720520385052,
0.),.UNSPECIFIED.);
#46=B_SPLINE_CURVE_WITH_KNOTS('',3,(#169,#170,#171,#172,#173,#174,#175),
 .UNSPECIFIED.,.F.,.F.,(4,3,4),(-0.00621645632930517,-0.00311309917528633,
0.),.UNSPECIFIED.);
#47=B_SPLINE_CURVE_WITH_KNOTS('',3,(#185,#186,#187,#188,#189,#190,#191),
 .UNSPECIFIED.,.F.,.F.,(4,3,4),(0.,0.0114476190139639,0.018082200395207),
 .UNSPECIFIED.);
#48=B_SPLINE_CURVE_WITH_KNOTS('',3,(#193,#194,#195,#196),.UNSPECIFIED.,
 .F.,.F.,(4,4),(0.,0.000172150190623035),.UNSPECIFIED.);
#49=B_SPLINE_CURVE_WITH_KNOTS('',3,(#216,#217,#218,#219),.UNSPECIFIED.,
 .F.,.F.,(4,4),(-0.005179271747554,-0.000926892815746358),.UNSPECIFIED.);
#50=B_SPLINE_CURVE_WITH_KNOTS('',3,(#225,#226,#227,#228),.UNSPECIFIED.,
 .F.,.F.,(4,4),(-0.774708121558872,-0.754110437501699),.UNSPECIFIED.);
#51=VERTEX_POINT('',#155);
#52=VERTEX_POINT('',#156);
#53=VERTEX_POINT('',#164);
#54=VERTEX_POINT('',#166);
#55=VERTEX_POINT('',#168);
#56=VERTEX_POINT('',#176);
#57=VERTEX_POINT('',#184);
#58=VERTEX_POINT('',#192);
#59=VERTEX_POINT('',#214);
#60=EDGE_CURVE('',#51,#52,#45,.T.);
#61=EDGE_CURVE('',#53,#51,#37,.T.);
#62=EDGE_CURVE('',#54,#53,#38,.T.);
#63=EDGE_CURVE('',#55,#54,#46,.T.);
#64=EDGE_CURVE('',#56,#55,#35,.T.);
#65=EDGE_CURVE('',#52,#56,#36,.T.);
#66=EDGE_CURVE('',#57,#51,#47,.T.);
#67=EDGE_CURVE('',#58,#57,#48,.T.);
#68=EDGE_CURVE('',#58,#53,#39,.T.);
#69=EDGE_CURVE('',#59,#52,#40,.T.);
#70=EDGE_CURVE('',#59,#57,#49,.T.);
#71=EDGE_CURVE('',#56,#59,#16,.T.);
#72=EDGE_CURVE('',#54,#58,#15,.T.);
#73=EDGE_CURVE('',#59,#55,#50,.T.);
#74=ORIENTED_EDGE('',*,*,#60,.F.);
#75=ORIENTED_EDGE('',*,*,#61,.F.);
#76=ORIENTED_EDGE('',*,*,#62,.F.);
#77=ORIENTED_EDGE('',*,*,#63,.F.);
#78=ORIENTED_EDGE('',*,*,#64,.F.);
#79=ORIENTED_EDGE('',*,*,#65,.F.);
#80=ORIENTED_EDGE('',*,*,#61,.T.);
#81=ORIENTED_EDGE('',*,*,#66,.F.);
#82=ORIENTED_EDGE('',*,*,#67,.F.);
#83=ORIENTED_EDGE('',*,*,#68,.T.);
#84=ORIENTED_EDGE('',*,*,#60,.T.);
#85=ORIENTED_EDGE('',*,*,#69,.F.);
#86=ORIENTED_EDGE('',*,*,#70,.T.);
#87=ORIENTED_EDGE('',*,*,#66,.T.);
#88=ORIENTED_EDGE('',*,*,#65,.T.);
#89=ORIENTED_EDGE('',*,*,#71,.T.);
#90=ORIENTED_EDGE('',*,*,#69,.T.);
#91=ORIENTED_EDGE('',*,*,#62,.T.);
#92=ORIENTED_EDGE('',*,*,#68,.F.);
#93=ORIENTED_EDGE('',*,*,#72,.F.);
#94=ORIENTED_EDGE('',*,*,#64,.T.);
#95=ORIENTED_EDGE('',*,*,#73,.F.);
#96=ORIENTED_EDGE('',*,*,#71,.F.);
#97=ORIENTED_EDGE('',*,*,#63,.T.);
#98=ORIENTED_EDGE('',*,*,#72,.T.);
#99=ORIENTED_EDGE('',*,*,#67,.T.);
#100=ORIENTED_EDGE('',*,*,#70,.F.);
#101=ORIENTED_EDGE('',*,*,#73,.T.);
#102=PLANE('',#126);
#103=PLANE('',#127);
#104=PLANE('',#130);
#105=ADVANCED_FACE('',(#21),#102,.F.);
#106=ADVANCED_FACE('',(#22),#103,.F.);
#107=ADVANCED_FACE('',(#23),#19,.T.);
#108=ADVANCED_FACE('',(#24),#17,.F.);
#109=ADVANCED_FACE('',(#25),#104,.T.);
#110=ADVANCED_FACE('',(#26),#18,.F.);
#111=ADVANCED_FACE('',(#27),#20,.F.);
#112=CLOSED_SHELL('',(#105,#106,#107,#108,#109,#110,#111));
#113=DERIVED_UNIT_ELEMENT(#115,1.);
#114=DERIVED_UNIT_ELEMENT(#250,-3.);
#115=(
MASS_UNIT()
NAMED_UNIT(*)
SI_UNIT(.KILO.,.GRAM.)
);
#116=DERIVED_UNIT((#113,#114));
#117=MEASURE_REPRESENTATION_ITEM('density measure',
POSITIVE_RATIO_MEASURE(7850.),#116);
#118=PROPERTY_DEFINITION_REPRESENTATION(#123,#120);
#119=PROPERTY_DEFINITION_REPRESENTATION(#124,#121);
#120=REPRESENTATION('material name',(#122),#247);
#121=REPRESENTATION('density',(#117),#247);
#122=DESCRIPTIVE_REPRESENTATION_ITEM('Steel','Steel');
#123=PROPERTY_DEFINITION('material property','material name',#257);
#124=PROPERTY_DEFINITION('material property','density of part',#257);
#125=AXIS2_PLACEMENT_3D('placement',#153,#133,#134);
#126=AXIS2_PLACEMENT_3D('',#154,#135,#136);
#127=AXIS2_PLACEMENT_3D('',#183,#139,#140);
#128=AXIS2_PLACEMENT_3D('',#220,#143,#144);
#129=AXIS2_PLACEMENT_3D('',#221,#145,#146);
#130=AXIS2_PLACEMENT_3D('',#222,#147,#148);
#131=AXIS2_PLACEMENT_3D('',#223,#149,#150);
#132=AXIS2_PLACEMENT_3D('',#224,#151,#152);
#133=DIRECTION('axis',(0.,0.,1.));
#134=DIRECTION('refdir',(1.,0.,0.));
#135=DIRECTION('center_axis',(-8.74191357972566E-17,0.173648177666933,0.984807753012208));
#136=DIRECTION('ref_axis',(1.,1.51801736244117E-17,8.60910426947653E-17));
#137=DIRECTION('',(0.,-0.984807753012208,0.173648177666933));
#138=DIRECTION('',(-1.,1.63632327159691E-16,-1.17620511070957E-16));
#139=DIRECTION('center_axis',(1.,0.,0.));
#140=DIRECTION('ref_axis',(0.,0.,-1.));
#141=DIRECTION('',(0.,0.811992380284334,-0.583668034382714));
#142=DIRECTION('',(-0.161767274322803,-0.728312929771467,-0.665876584124922));
#143=DIRECTION('center_axis',(-3.82938247407859E-15,-0.984807753012208,
0.173648177666932));
#144=DIRECTION('ref_axis',(-0.207586520566995,-0.169865540601191,-0.963355352191056));
#145=DIRECTION('center_axis',(4.11947364614869E-17,0.984807753012208,-0.173648177666932));
#146=DIRECTION('ref_axis',(-0.207586520566995,-0.169865540601191,-0.963355352191056));
#147=DIRECTION('center_axis',(0.,0.583668034382714,0.811992380284334));
#148=DIRECTION('ref_axis',(0.,0.811992380284334,-0.583668034382714));
#149=DIRECTION('center_axis',(0.,0.583668034382714,0.811992380284334));
#150=DIRECTION('ref_axis',(-1.04896618603734E-16,0.811992380284334,-0.583668034382714));
#151=DIRECTION('center_axis',(0.,0.984807753012208,-0.173648177666933));
#152=DIRECTION('ref_axis',(-0.207586520566995,-0.169865540601191,-0.963355352191056));
#153=CARTESIAN_POINT('',(0.,0.,0.));
#154=CARTESIAN_POINT('Origin',(-0.634999999999999,0.362314616188995,-0.541738085277542));
#155=CARTESIAN_POINT('',(-0.634999999999999,0.365700633114317,-0.542335131418611));
#156=CARTESIAN_POINT('',(-0.631317738828169,0.366244268717526,-0.542430989043131));
#157=CARTESIAN_POINT('Ctrl Pts',(-0.635000002369565,0.36570082206127,-0.542335176242694));
#158=CARTESIAN_POINT('Ctrl Pts',(-0.63488922859993,0.365716966715557,-0.542338022951906));
#159=CARTESIAN_POINT('Ctrl Pts',(-0.634778416158061,0.365733128099661,-0.542340872553549));
#160=CARTESIAN_POINT('Ctrl Pts',(-0.634667573029291,0.36574930690771,-0.542343725201198));
#161=CARTESIAN_POINT('Ctrl Pts',(-0.633544063823551,0.365913295780841,-0.542372639721472));
#162=CARTESIAN_POINT('Ctrl Pts',(-0.63243719312458,0.366076112191053,-0.542401338510532));
#163=CARTESIAN_POINT('Ctrl Pts',(-0.631317738828169,0.366244268704066,-0.542430989040758));
#164=CARTESIAN_POINT('',(-0.635,0.405903079324151,-0.549423907375886));
#165=CARTESIAN_POINT('',(-0.635,0.459399446213662,-0.558856760228386));
#166=CARTESIAN_POINT('',(-0.627932985157729,0.405903079324151,-0.549423907375886));
#167=CARTESIAN_POINT('',(-0.317499999999999,0.405903079324151,-0.549423907375886));
#168=CARTESIAN_POINT('',(-0.621929282847909,0.404604746992878,-0.549194976815124));
#169=CARTESIAN_POINT('Ctrl Pts',(-0.62192928329149,0.404604745215913,-0.54919497604221));
#170=CARTESIAN_POINT('Ctrl Pts',(-0.622867857346055,0.405033061645233,-0.549270499736397));
#171=CARTESIAN_POINT('Ctrl Pts',(-0.623843254206381,0.40535944114212,-0.549328144603046));
#172=CARTESIAN_POINT('Ctrl Pts',(-0.624853594236363,0.405577880051707,-0.549366661270442));
#173=CARTESIAN_POINT('Ctrl Pts',(-0.625867105913554,0.405797004682079,-0.549405298848895));
#174=CARTESIAN_POINT('Ctrl Pts',(-0.626895285425296,0.405903079367718,-0.549423907313763));
#175=CARTESIAN_POINT('Ctrl Pts',(-0.62793298515735,0.405903079322577,-0.549423907374755));
#176=CARTESIAN_POINT('',(-0.552970673569039,0.376590498131117,-0.544255308437347));
#177=CARTESIAN_POINT('Ctrl Pts',(-0.552970673569039,0.376590498131117,-0.544255308437347));
#178=CARTESIAN_POINT('Ctrl Pts',(-0.587314952380988,0.38880856640939,-0.546409683986112));
#179=CARTESIAN_POINT('Ctrl Pts',(-0.621929282847909,0.404604746992878,-0.549194976815124));
#180=CARTESIAN_POINT('Ctrl Pts',(-0.631317738828169,0.366244268717526,-0.542430989043131));
#181=CARTESIAN_POINT('Ctrl Pts',(-0.591967096060126,0.372155244164533,-0.543473253496744));
#182=CARTESIAN_POINT('Ctrl Pts',(-0.552970673569039,0.376590498131117,-0.544255308437347));
#183=CARTESIAN_POINT('Origin',(-0.635,0.339245717449884,-1.80799652415607));
#184=CARTESIAN_POINT('',(-0.635,0.378854211716132,-0.529980940856397));
#185=CARTESIAN_POINT('Ctrl Pts',(-0.635,0.378854211716132,-0.529980940856397));
#186=CARTESIAN_POINT('Ctrl Pts',(-0.635,0.376059256404437,-0.532578846088172));
#187=CARTESIAN_POINT('Ctrl Pts',(-0.635000003925251,0.373293539181057,-0.535169887212041));
#188=CARTESIAN_POINT('Ctrl Pts',(-0.635000003985463,0.370515212651422,-0.537787018699975));
#189=CARTESIAN_POINT('Ctrl Pts',(-0.635000004020359,0.368905036618265,-0.539303774326984));
#190=CARTESIAN_POINT('Ctrl Pts',(-0.635000010609672,0.367302364785095,-0.540818262323632));
#191=CARTESIAN_POINT('Ctrl Pts',(-0.635000002377007,0.36570082153398,-0.542335176740902));
#192=CARTESIAN_POINT('',(-0.635,0.378994009995212,-0.530081406160801));
#193=CARTESIAN_POINT('Ctrl Pts',(-0.634999999999929,0.378994009994921,-0.530081406160591));
#194=CARTESIAN_POINT('Ctrl Pts',(-0.635000000000017,0.378947415115794,-0.530047913307996));
#195=CARTESIAN_POINT('Ctrl Pts',(-0.63500000000304,0.378900815664948,-0.530014424880371));
#196=CARTESIAN_POINT('Ctrl Pts',(-0.635000000004276,0.378854211683801,-0.529980940902904));
#197=CARTESIAN_POINT('',(-0.635,0.366015031067773,-0.520751989650487));
#198=CARTESIAN_POINT('Ctrl Pts',(-0.635,0.378854211716132,-0.529980940856397));
#199=CARTESIAN_POINT('Ctrl Pts',(-0.632792774124744,0.37901140555255,-0.530096714897387));
#200=CARTESIAN_POINT('Ctrl Pts',(-0.630624462753773,0.379039038994839,-0.530368943155007));
#201=CARTESIAN_POINT('Ctrl Pts',(-0.62849286486708,0.37896249143308,-0.530803065947667));
#202=CARTESIAN_POINT('Ctrl Pts',(-0.635980664575902,0.374486092556949,-0.533924743678074));
#203=CARTESIAN_POINT('Ctrl Pts',(-0.633786343131671,0.374583296656212,-0.534125014397176));
#204=CARTESIAN_POINT('Ctrl Pts',(-0.631620810780683,0.374584034985405,-0.53444087277084));
#205=CARTESIAN_POINT('Ctrl Pts',(-0.629482430244855,0.374507243852896,-0.534876376922547));
#206=CARTESIAN_POINT('Ctrl Pts',(-0.636961329151805,0.370117973397767,-0.53786854649975));
#207=CARTESIAN_POINT('Ctrl Pts',(-0.634779912138599,0.370155187759873,-0.538153313896966));
#208=CARTESIAN_POINT('Ctrl Pts',(-0.632617158807593,0.370129030975971,-0.538512802386674));
#209=CARTESIAN_POINT('Ctrl Pts',(-0.63047199562263,0.370051996272712,-0.538949687897427));
#210=CARTESIAN_POINT('Ctrl Pts',(-0.637941993727707,0.365749854238584,-0.541812349321427));
#211=CARTESIAN_POINT('Ctrl Pts',(-0.635773481145526,0.365727078863534,-0.542181613396755));
#212=CARTESIAN_POINT('Ctrl Pts',(-0.633613506834503,0.365674026966537,-0.542584732002507));
#213=CARTESIAN_POINT('Ctrl Pts',(-0.631461561000406,0.365596748692528,-0.543022998872306));
#214=CARTESIAN_POINT('',(-0.628492864872287,0.378962491458536,-0.530803065977725));
#215=CARTESIAN_POINT('',(-0.628492864872287,0.378962491458536,-0.530803065977725));
#216=CARTESIAN_POINT('Ctrl Pts',(-0.62849286486708,0.37896249143308,-0.530803065947667));
#217=CARTESIAN_POINT('Ctrl Pts',(-0.630624462753773,0.379039038994839,-0.530368943155007));
#218=CARTESIAN_POINT('Ctrl Pts',(-0.632792774124744,0.37901140555255,-0.530096714897387));
#219=CARTESIAN_POINT('Ctrl Pts',(-0.635,0.378854211716132,-0.529980940856397));
#220=CARTESIAN_POINT('Origin',(-0.317499999999999,0.6329593842932,0.951424781207885));
#221=CARTESIAN_POINT('Origin',(-0.317499999999999,0.640097325264261,0.950166169627982));
#222=CARTESIAN_POINT('Origin',(0.,0.366015031067773,-0.520751989650487));
#223=CARTESIAN_POINT('Origin',(-0.3175,-0.904755174894973,0.392690015811029));
#224=CARTESIAN_POINT('Origin',(-0.317499999999999,0.625821443322139,0.952683392787787));
#225=CARTESIAN_POINT('Ctrl Pts',(-0.628492864869689,0.378962491434019,-0.530803065943711));
#226=CARTESIAN_POINT('Ctrl Pts',(-0.626327463723954,0.387601427105356,-0.536999239894947));
#227=CARTESIAN_POINT('Ctrl Pts',(-0.624139442103075,0.396149449799314,-0.543130313351445));
#228=CARTESIAN_POINT('Ctrl Pts',(-0.62192928288751,0.4046047467614,-0.54919497715073));
#229=CARTESIAN_POINT('Ctrl Pts',(-0.628868621076467,0.377461579730957,-0.529726555925014));
#230=CARTESIAN_POINT('Ctrl Pts',(-0.626562569189829,0.386684005401249,-0.536341218059167));
#231=CARTESIAN_POINT('Ctrl Pts',(-0.62423076885932,0.395803193586642,-0.542881955158985));
#232=CARTESIAN_POINT('Ctrl Pts',(-0.621873805426228,0.404816946890176,-0.549347180275076));
#233=CARTESIAN_POINT('Ctrl Pts',(-0.630898590733957,0.37804068579777,-0.529646568257151));
#234=CARTESIAN_POINT('Ctrl Pts',(-0.628572256097088,0.387260153002621,-0.536268722169373));
#235=CARTESIAN_POINT('Ctrl Pts',(-0.626220218757283,0.396376449138617,-0.542816794531963));
#236=CARTESIAN_POINT('Ctrl Pts',(-0.623843066799773,0.405387358554484,-0.549289226298859));
#237=CARTESIAN_POINT('Ctrl Pts',(-0.632966484072104,0.37850970777282,-0.529733285004673));
#238=CARTESIAN_POINT('Ctrl Pts',(-0.630618737146386,0.387728357688693,-0.53635974675691));
#239=CARTESIAN_POINT('Ctrl Pts',(-0.628245374623897,0.396843852871525,-0.542912041359207));
#240=CARTESIAN_POINT('Ctrl Pts',(-0.625846980214251,0.405853977011942,-0.549388612155454));
#241=CARTESIAN_POINT('Ctrl Pts',(-0.63503442409398,0.37886005471789,-0.529985117802303));
#242=CARTESIAN_POINT('Ctrl Pts',(-0.632665262251886,0.388080210108673,-0.536612655331359));
#243=CARTESIAN_POINT('Ctrl Pts',(-0.630270573004924,0.397197172313715,-0.543166016593068));
#244=CARTESIAN_POINT('Ctrl Pts',(-0.627850933833896,0.406208742771904,-0.549643621240282));
#245=UNCERTAINTY_MEASURE_WITH_UNIT(LENGTH_MEASURE(0.001),#249,
'DISTANCE_ACCURACY_VALUE',
'Maximum model space distance between geometric entities at asserted c
onnectivities');
#246=UNCERTAINTY_MEASURE_WITH_UNIT(LENGTH_MEASURE(0.001),#249,
'DISTANCE_ACCURACY_VALUE',
'Maximum model space distance between geometric entities at asserted c
onnectivities');
#247=(
GEOMETRIC_REPRESENTATION_CONTEXT(3)
GLOBAL_UNCERTAINTY_ASSIGNED_CONTEXT((#245))
GLOBAL_UNIT_ASSIGNED_CONTEXT((#249,#251,#252))
REPRESENTATION_CONTEXT('','3D')
);
#248=(
GEOMETRIC_REPRESENTATION_CONTEXT(3)
GLOBAL_UNCERTAINTY_ASSIGNED_CONTEXT((#246))
GLOBAL_UNIT_ASSIGNED_CONTEXT((#249,#251,#252))
REPRESENTATION_CONTEXT('','3D')
);
#249=(
LENGTH_UNIT()
NAMED_UNIT(*)
SI_UNIT(.CENTI.,.METRE.)
);
#250=(
LENGTH_UNIT()
NAMED_UNIT(*)
SI_UNIT($,.METRE.)
);
#251=(
NAMED_UNIT(*)
PLANE_ANGLE_UNIT()
SI_UNIT($,.RADIAN.)
);
#252=(
NAMED_UNIT(*)
SI_UNIT($,.STERADIAN.)
SOLID_ANGLE_UNIT()
);
#253=SHAPE_DEFINITION_REPRESENTATION(#254,#255);
#254=PRODUCT_DEFINITION_SHAPE('',$,#257);
#255=SHAPE_REPRESENTATION('',(#125),#247);
#256=PRODUCT_DEFINITION_CONTEXT('part definition',#261,'design');
#257=PRODUCT_DEFINITION('temp_body','temp_body',#258,#256);
#258=PRODUCT_DEFINITION_FORMATION('',$,#263);
#259=PRODUCT_RELATED_PRODUCT_CATEGORY('temp_body','temp_body',(#263));
#260=APPLICATION_PROTOCOL_DEFINITION('international standard',
'automotive_design',2009,#261);
#261=APPLICATION_CONTEXT(
'Core Data for Automotive Mechanical Design Process');
#262=PRODUCT_CONTEXT('part definition',#261,'mechanical');
#263=PRODUCT('temp_body','temp_body',$,(#262));
#264=PRESENTATION_STYLE_ASSIGNMENT((#265));
#265=SURFACE_STYLE_USAGE(.BOTH.,#266);
#266=SURFACE_SIDE_STYLE('',(#267));
#267=SURFACE_STYLE_FILL_AREA(#268);
#268=FILL_AREA_STYLE('Steel - Satin',(#269));
#269=FILL_AREA_STYLE_COLOUR('Steel - Satin',#270);
#270=COLOUR_RGB('Steel - Satin',0.627450980392157,0.627450980392157,0.627450980392157);
ENDSEC;
END-ISO-10303-21;
