ISO-10303-21;
HEADER;
/* Generated by software containing ST-Developer
 * from STEP Tools, Inc. (www.steptools.com) 
 */

FILE_DESCRIPTION(
/* description */ (''),
/* implementation_level */ '2;1');

FILE_NAME(
/* name */ 
'C:\\Users\\designnet\\AppData\\Local\\Temp\\derivatives\\21224_18ba4a
ba\\AssemblyExtractor\\21224_18ba4aba\\a478c540-05a3-11ec-9e2a-020a4e4
6e3ef.step',
/* time_stamp */ '2021-08-25T12:55:01+00:00',
/* author */ (''),
/* organization */ (''),
/* preprocessor_version */ 'ST-DEVELOPER v18.1',
/* originating_system */ 'Autodesk Translation Framework v10.6.0.1341',

/* authorisation */ '');

FILE_SCHEMA (('AUTOMOTIVE_DESIGN { 1 0 10303 214 3 1 1 }'));
ENDSEC;

DATA;
#10=MECHANICAL_DESIGN_GEOMETRIC_PRESENTATION_REPRESENTATION('',(#13),#248);
#11=SHAPE_REPRESENTATION_RELATIONSHIP('SRR','None',#255,#12);
#12=ADVANCED_BREP_SHAPE_REPRESENTATION('',(#14),#247);
#13=STYLED_ITEM('',(#264),#14);
#14=MANIFOLD_SOLID_BREP('Body1',#112);
#15=CIRCLE('',#130,1.5356359725403);
#16=(
BOUNDED_CURVE()
B_SPLINE_CURVE(2,(#211,#212,#213),.UNSPECIFIED.,.F.,.F.)
B_SPLINE_CURVE_WITH_KNOTS((3,3),(0.208444487609502,0.287900310869715),
 .UNSPECIFIED.)
CURVE()
GEOMETRIC_REPRESENTATION_ITEM()
RATIONAL_B_SPLINE_CURVE((1.00150416244309,1.00113442609916,1.00026425684412))
REPRESENTATION_ITEM('')
);
#17=(
BOUNDED_CURVE()
B_SPLINE_CURVE(2,(#217,#218,#219),.UNSPECIFIED.,.F.,.F.)
B_SPLINE_CURVE_WITH_KNOTS((3,3),(0.0659303803286795,0.144762804216748),
 .UNSPECIFIED.)
CURVE()
GEOMETRIC_REPRESENTATION_ITEM()
RATIONAL_B_SPLINE_CURVE((1.00071227557376,1.00086817620711,1.00037856952847))
REPRESENTATION_ITEM('')
);
#18=CONICAL_SURFACE('',#129,1.52948273872885,0.401425727958696);
#19=CONICAL_SURFACE('',#131,1.54525935563458,0.92526872266048);
#20=B_SPLINE_SURFACE_WITH_KNOTS('',3,3,((#176,#177,#178,#179),(#180,#181,
#182,#183),(#184,#185,#186,#187),(#188,#189,#190,#191)),.UNSPECIFIED.,.F.,
 .F.,.F.,(4,4),(4,4),(0.,1.),(0.753938112467531,0.775900262775063),
 .UNSPECIFIED.);
#21=B_SPLINE_SURFACE_WITH_KNOTS('',3,3,((#221,#222,#223,#224),(#225,#226,
#227,#228),(#229,#230,#231,#232),(#233,#234,#235,#236)),.UNSPECIFIED.,.F.,
 .F.,.F.,(4,4),(4,4),(0.,0.761633101472838),(0.413034902333119,0.417287281644024),
 .UNSPECIFIED.);
#22=ELLIPSE('',#128,2.21468493455286,0.45338810948051);
#23=FACE_OUTER_BOUND('',#30,.T.);
#24=FACE_OUTER_BOUND('',#31,.T.);
#25=FACE_OUTER_BOUND('',#32,.T.);
#26=FACE_OUTER_BOUND('',#33,.T.);
#27=FACE_OUTER_BOUND('',#34,.T.);
#28=FACE_OUTER_BOUND('',#35,.T.);
#29=FACE_OUTER_BOUND('',#36,.T.);
#30=EDGE_LOOP('',(#74,#75,#76,#77));
#31=EDGE_LOOP('',(#78,#79,#80));
#32=EDGE_LOOP('',(#81,#82,#83,#84,#85));
#33=EDGE_LOOP('',(#86,#87,#88));
#34=EDGE_LOOP('',(#89,#90,#91));
#35=EDGE_LOOP('',(#92,#93,#94,#95));
#36=EDGE_LOOP('',(#96,#97,#98,#99,#100,#101));
#37=B_SPLINE_CURVE_WITH_KNOTS('',3,(#161,#162,#163,#164),.UNSPECIFIED.,
 .F.,.F.,(4,4),(0.03205305882684,0.0322252058594089),.UNSPECIFIED.);
#38=B_SPLINE_CURVE_WITH_KNOTS('',3,(#165,#166,#167,#168,#169,#170,#171),
 .UNSPECIFIED.,.F.,.F.,(4,3,4),(0.00579188098175824,0.0117356396197059,
0.0238934342840725),.UNSPECIFIED.);
#39=B_SPLINE_CURVE_WITH_KNOTS('',3,(#193,#194,#195,#196,#197,#198,#199),
 .UNSPECIFIED.,.F.,.F.,(4,3,4),(-0.00621642232823848,-0.00310327822045589,
0.),.UNSPECIFIED.);
#40=B_SPLINE_CURVE_WITH_KNOTS('',3,(#201,#202,#203,#204),.UNSPECIFIED.,
 .F.,.F.,(4,4),(0.754110435950516,0.774708120760289),.UNSPECIFIED.);
#41=B_SPLINE_CURVE_WITH_KNOTS('',3,(#205,#206,#207,#208),.UNSPECIFIED.,
 .F.,.F.,(4,4),(-0.417287281644024,-0.413034902333119),.UNSPECIFIED.);
#42=B_SPLINE_CURVE_WITH_KNOTS('',3,(#237,#238,#239,#240,#241,#242,#243),
 .UNSPECIFIED.,.F.,.F.,(4,3,4),(-0.00675813797372275,-0.00336565708308186,
-0.00306312449344245),.UNSPECIFIED.);
#43=LINE('',#157,#47);
#44=LINE('',#159,#48);
#45=LINE('',#174,#49);
#46=LINE('',#220,#50);
#47=VECTOR('',#137,1.);
#48=VECTOR('',#138,1.);
#49=VECTOR('',#141,1.);
#50=VECTOR('',#150,1.);
#51=VERTEX_POINT('',#155);
#52=VERTEX_POINT('',#156);
#53=VERTEX_POINT('',#158);
#54=VERTEX_POINT('',#160);
#55=VERTEX_POINT('',#173);
#56=VERTEX_POINT('',#192);
#57=VERTEX_POINT('',#200);
#58=VERTEX_POINT('',#210);
#59=VERTEX_POINT('',#216);
#60=EDGE_CURVE('',#51,#52,#43,.T.);
#61=EDGE_CURVE('',#53,#52,#44,.T.);
#62=EDGE_CURVE('',#54,#53,#37,.T.);
#63=EDGE_CURVE('',#51,#54,#38,.T.);
#64=EDGE_CURVE('',#52,#55,#45,.T.);
#65=EDGE_CURVE('',#53,#55,#22,.T.);
#66=EDGE_CURVE('',#55,#56,#39,.T.);
#67=EDGE_CURVE('',#56,#57,#40,.T.);
#68=EDGE_CURVE('',#54,#57,#41,.T.);
#69=EDGE_CURVE('',#56,#58,#16,.T.);
#70=EDGE_CURVE('',#57,#58,#15,.T.);
#71=EDGE_CURVE('',#58,#59,#17,.T.);
#72=EDGE_CURVE('',#59,#57,#46,.T.);
#73=EDGE_CURVE('',#59,#51,#42,.T.);
#74=ORIENTED_EDGE('',*,*,#60,.T.);
#75=ORIENTED_EDGE('',*,*,#61,.F.);
#76=ORIENTED_EDGE('',*,*,#62,.F.);
#77=ORIENTED_EDGE('',*,*,#63,.F.);
#78=ORIENTED_EDGE('',*,*,#64,.T.);
#79=ORIENTED_EDGE('',*,*,#65,.F.);
#80=ORIENTED_EDGE('',*,*,#61,.T.);
#81=ORIENTED_EDGE('',*,*,#66,.T.);
#82=ORIENTED_EDGE('',*,*,#67,.T.);
#83=ORIENTED_EDGE('',*,*,#68,.F.);
#84=ORIENTED_EDGE('',*,*,#62,.T.);
#85=ORIENTED_EDGE('',*,*,#65,.T.);
#86=ORIENTED_EDGE('',*,*,#69,.T.);
#87=ORIENTED_EDGE('',*,*,#70,.F.);
#88=ORIENTED_EDGE('',*,*,#67,.F.);
#89=ORIENTED_EDGE('',*,*,#71,.T.);
#90=ORIENTED_EDGE('',*,*,#72,.T.);
#91=ORIENTED_EDGE('',*,*,#70,.T.);
#92=ORIENTED_EDGE('',*,*,#73,.T.);
#93=ORIENTED_EDGE('',*,*,#63,.T.);
#94=ORIENTED_EDGE('',*,*,#68,.T.);
#95=ORIENTED_EDGE('',*,*,#72,.F.);
#96=ORIENTED_EDGE('',*,*,#64,.F.);
#97=ORIENTED_EDGE('',*,*,#60,.F.);
#98=ORIENTED_EDGE('',*,*,#73,.F.);
#99=ORIENTED_EDGE('',*,*,#71,.F.);
#100=ORIENTED_EDGE('',*,*,#69,.F.);
#101=ORIENTED_EDGE('',*,*,#66,.F.);
#102=PLANE('',#126);
#103=PLANE('',#127);
#104=PLANE('',#132);
#105=ADVANCED_FACE('',(#23),#102,.T.);
#106=ADVANCED_FACE('',(#24),#103,.T.);
#107=ADVANCED_FACE('',(#25),#20,.F.);
#108=ADVANCED_FACE('',(#26),#18,.F.);
#109=ADVANCED_FACE('',(#27),#19,.F.);
#110=ADVANCED_FACE('',(#28),#21,.T.);
#111=ADVANCED_FACE('',(#29),#104,.F.);
#112=CLOSED_SHELL('',(#105,#106,#107,#108,#109,#110,#111));
#113=DERIVED_UNIT_ELEMENT(#115,1.);
#114=DERIVED_UNIT_ELEMENT(#250,-3.);
#115=(
MASS_UNIT()
NAMED_UNIT(*)
SI_UNIT(.KILO.,.GRAM.)
);
#116=DERIVED_UNIT((#113,#114));
#117=MEASURE_REPRESENTATION_ITEM('density measure',
POSITIVE_RATIO_MEASURE(7850.),#116);
#118=PROPERTY_DEFINITION_REPRESENTATION(#123,#120);
#119=PROPERTY_DEFINITION_REPRESENTATION(#124,#121);
#120=REPRESENTATION('material name',(#122),#247);
#121=REPRESENTATION('density',(#117),#247);
#122=DESCRIPTIVE_REPRESENTATION_ITEM('Steel','Steel');
#123=PROPERTY_DEFINITION('material property','material name',#257);
#124=PROPERTY_DEFINITION('material property','density of part',#257);
#125=AXIS2_PLACEMENT_3D('placement',#153,#133,#134);
#126=AXIS2_PLACEMENT_3D('',#154,#135,#136);
#127=AXIS2_PLACEMENT_3D('',#172,#139,#140);
#128=AXIS2_PLACEMENT_3D('',#175,#142,#143);
#129=AXIS2_PLACEMENT_3D('',#209,#144,#145);
#130=AXIS2_PLACEMENT_3D('',#214,#146,#147);
#131=AXIS2_PLACEMENT_3D('',#215,#148,#149);
#132=AXIS2_PLACEMENT_3D('',#244,#151,#152);
#133=DIRECTION('axis',(0.,0.,1.));
#134=DIRECTION('refdir',(1.,0.,0.));
#135=DIRECTION('center_axis',(1.,0.,0.));
#136=DIRECTION('ref_axis',(0.,0.,-1.));
#137=DIRECTION('',(0.,0.984807753012208,-0.173648177666933));
#138=DIRECTION('',(0.,0.811992380284334,-0.583668034382714));
#139=DIRECTION('center_axis',(0.,0.583668034382714,0.811992380284334));
#140=DIRECTION('ref_axis',(0.,0.811992380284334,-0.583668034382714));
#141=DIRECTION('',(-1.,1.63632327159691E-16,-1.17620511070957E-16));
#142=DIRECTION('center_axis',(0.,0.583668034382714,0.811992380284334));
#143=DIRECTION('ref_axis',(-1.04896618603734E-16,0.811992380284334,-0.583668034382714));
#144=DIRECTION('center_axis',(0.,0.984807753012208,-0.173648177666933));
#145=DIRECTION('ref_axis',(-0.207586520566995,-0.169865540601191,-0.963355352191056));
#146=DIRECTION('center_axis',(4.11947364614869E-17,0.984807753012208,-0.173648177666932));
#147=DIRECTION('ref_axis',(-0.207586520566995,-0.169865540601191,-0.963355352191056));
#148=DIRECTION('center_axis',(-3.82938247407859E-15,-0.984807753012208,
0.173648177666932));
#149=DIRECTION('ref_axis',(-0.207586520566995,-0.169865540601191,-0.963355352191056));
#150=DIRECTION('',(-0.161767267974888,0.728312963771529,0.665876548478974));
#151=DIRECTION('center_axis',(-8.74191357972566E-17,0.173648177666933,0.984807753012208));
#152=DIRECTION('ref_axis',(1.,1.51801736244117E-17,8.60910426947653E-17));
#153=CARTESIAN_POINT('',(0.,0.,0.));
#154=CARTESIAN_POINT('Origin',(0.,0.339245717449884,-1.80799652415607));
#155=CARTESIAN_POINT('',(4.85353293955121E-17,0.365700633114317,-0.542335131418611));
#156=CARTESIAN_POINT('',(4.85353293955121E-17,0.405903079324151,-0.549423907375886));
#157=CARTESIAN_POINT('',(0.,0.459399446213662,-0.558856760228386));
#158=CARTESIAN_POINT('',(5.55111512312579E-17,0.378994009995213,-0.530081406160801));
#159=CARTESIAN_POINT('',(0.,0.366015031067773,-0.520751989650487));
#160=CARTESIAN_POINT('',(-7.71951946809679E-17,0.378854211716132,-0.529980940856398));
#161=CARTESIAN_POINT('Ctrl Pts',(4.27625209548088E-12,0.378854211683802,
-0.529980940902905));
#162=CARTESIAN_POINT('Ctrl Pts',(3.06085909874022E-12,0.378900815673841,
-0.530014424886761));
#163=CARTESIAN_POINT('Ctrl Pts',(1.75282726564419E-14,0.378947415124762,
-0.530047913314443));
#164=CARTESIAN_POINT('Ctrl Pts',(-7.0829626885871E-14,0.378994009994921,
-0.530081406160591));
#165=CARTESIAN_POINT('Ctrl Pts',(2.37700785747294E-9,0.365700822165897,
-0.542335176142449));
#166=CARTESIAN_POINT('Ctrl Pts',(7.94541967065243E-9,0.367134714573087,
-0.540977053850246));
#167=CARTESIAN_POINT('Ctrl Pts',(3.87320728229194E-9,0.368569779209349,
-0.539620623839863));
#168=CARTESIAN_POINT('Ctrl Pts',(3.9732551255188E-9,0.370010509004889,-0.538262596174477));
#169=CARTESIAN_POINT('Ctrl Pts',(4.17790355998155E-9,0.372957531588558,
-0.535484741359838));
#170=CARTESIAN_POINT('Ctrl Pts',(1.48238914765432E-16,0.375888842619616,
-0.532737245351766));
#171=CARTESIAN_POINT('Ctrl Pts',(1.0842021724855E-16,0.378854211716132,
-0.529980940856398));
#172=CARTESIAN_POINT('Origin',(0.,0.366015031067773,-0.520751989650487));
#173=CARTESIAN_POINT('',(-0.00706701484227051,0.405903079324151,-0.549423907375886));
#174=CARTESIAN_POINT('',(-0.317499999999999,0.405903079324151,-0.549423907375886));
#175=CARTESIAN_POINT('Origin',(-0.3175,-0.904755174894973,0.392690015811029));
#176=CARTESIAN_POINT('Ctrl Pts',(-0.013126193884834,0.404816944255468,-0.5493471783853));
#177=CARTESIAN_POINT('Ctrl Pts',(-0.0107692306862914,0.395803191809625,
-0.542881953884421));
#178=CARTESIAN_POINT('Ctrl Pts',(-0.00843743058548573,0.386684004502682,
-0.536341217414682));
#179=CARTESIAN_POINT('Ctrl Pts',(-0.00613137892353205,0.377461579730958,
-0.529726555925014));
#180=CARTESIAN_POINT('Ctrl Pts',(-0.0111569325053882,0.405387355920607,
-0.549289224406978));
#181=CARTESIAN_POINT('Ctrl Pts',(-0.00877978078438525,0.396376447362165,
-0.542816793255968));
#182=CARTESIAN_POINT('Ctrl Pts',(-0.00642774367625015,0.387260152104342,
-0.536268721524158));
#183=CARTESIAN_POINT('Ctrl Pts',(-0.00410140926604236,0.37804068579777,
-0.529646568257151));
#184=CARTESIAN_POINT('Ctrl Pts',(-0.00915301908470083,0.405853974378294,
-0.549388610262363));
#185=CARTESIAN_POINT('Ctrl Pts',(-0.00675462491361541,0.396843851095229,
-0.542912040082388));
#186=CARTESIAN_POINT('Ctrl Pts',(-0.00438126262486619,0.387728356790493,
-0.536359746111275));
#187=CARTESIAN_POINT('Ctrl Pts',(-0.00203351592789576,0.37850970777282,
-0.529733285004674));
#188=CARTESIAN_POINT('Ctrl Pts',(-0.00714906545884641,0.406208740137834,
-0.549643619346888));
#189=CARTESIAN_POINT('Ctrl Pts',(-0.00472942652843309,0.397197170537133,
-0.543166015316043));
#190=CARTESIAN_POINT('Ctrl Pts',(-0.00233473751727965,0.388080209210327,
-0.536612654685619));
#191=CARTESIAN_POINT('Ctrl Pts',(3.44240939802549E-5,0.37886005471789,-0.529985117802303));
#192=CARTESIAN_POINT('',(-0.0130707177005944,0.40460474918832,-0.549194977769785));
#193=CARTESIAN_POINT('Ctrl Pts',(-0.00706701484264995,0.405903079322577,
-0.549423907374755));
#194=CARTESIAN_POINT('Ctrl Pts',(-0.00810473522694085,0.405903079367718,
-0.549423907313763));
#195=CARTESIAN_POINT('Ctrl Pts',(-0.00913293479929103,0.405797000460622,
-0.549405298107102));
#196=CARTESIAN_POINT('Ctrl Pts',(-0.0101464656709201,0.405577867099415,
-0.549366658986605));
#197=CARTESIAN_POINT('Ctrl Pts',(-0.0111567845545924,0.405359428195315,
-0.549328142317621));
#198=CARTESIAN_POINT('Ctrl Pts',(-0.0121321613975186,0.405033053091639,
-0.549270498228169));
#199=CARTESIAN_POINT('Ctrl Pts',(-0.0130707167085094,0.404604745215912,
-0.54919497604221));
#200=CARTESIAN_POINT('',(-0.0065071355406867,0.378962492206121,-0.530803067000736));
#201=CARTESIAN_POINT('Ctrl Pts',(-0.0130707176118217,0.40460474867167,-0.549194978520894));
#202=CARTESIAN_POINT('Ctrl Pts',(-0.010860558312167,0.39614945141461,-0.543130314510021));
#203=CARTESIAN_POINT('Ctrl Pts',(-0.00867253660878053,0.387601428418764,
-0.536999240836982));
#204=CARTESIAN_POINT('Ctrl Pts',(-0.00650713538217213,0.378962492438827,
-0.530803066664398));
#205=CARTESIAN_POINT('Ctrl Pts',(1.0842021724855E-16,0.378854211716132,
-0.529980940856398));
#206=CARTESIAN_POINT('Ctrl Pts',(-0.00220722607202887,0.379011405566564,
-0.530096714907708));
#207=CARTESIAN_POINT('Ctrl Pts',(-0.0043755376328293,0.379039039000528,
-0.530368943203705));
#208=CARTESIAN_POINT('Ctrl Pts',(-0.00650713570301317,0.378962491412607,
-0.530803066063773));
#209=CARTESIAN_POINT('Origin',(-0.317499999999999,0.625821443322139,0.952683392787787));
#210=CARTESIAN_POINT('',(-0.0820293264309588,0.376590498131117,-0.544255308437347));
#211=CARTESIAN_POINT('Ctrl Pts',(-0.0130707177005944,0.40460474918832,-0.549194977769785));
#212=CARTESIAN_POINT('Ctrl Pts',(-0.0476850479627015,0.388808567621652,
-0.546409684522625));
#213=CARTESIAN_POINT('Ctrl Pts',(-0.0820293264309588,0.376590498131117,
-0.544255308437347));
#214=CARTESIAN_POINT('Origin',(-0.317499999999999,0.640097325264261,0.950166169627982));
#215=CARTESIAN_POINT('Origin',(-0.317499999999999,0.6329593842932,0.951424781207885));
#216=CARTESIAN_POINT('',(-0.00368226177170514,0.366244269213774,-0.542430989130633));
#217=CARTESIAN_POINT('Ctrl Pts',(-0.0820293264309588,0.376590498131117,
-0.544255308437347));
#218=CARTESIAN_POINT('Ctrl Pts',(-0.0430329042044507,0.372155244607941,
-0.543473253574929));
#219=CARTESIAN_POINT('Ctrl Pts',(-0.00368226177170514,0.366244269213774,
-0.542430989130633));
#220=CARTESIAN_POINT('',(-0.00260933241338956,0.361413697673222,-0.546847448076999));
#221=CARTESIAN_POINT('Ctrl Pts',(-0.00650713570301317,0.378962491412607,
-0.530803066063773));
#222=CARTESIAN_POINT('Ctrl Pts',(-0.0043755376328293,0.379039039000528,
-0.530368943203705));
#223=CARTESIAN_POINT('Ctrl Pts',(-0.00220722607202887,0.379011405566564,
-0.530096714907708));
#224=CARTESIAN_POINT('Ctrl Pts',(1.0842021724855E-16,0.378854211716132,
-0.529980940856398));
#225=CARTESIAN_POINT('Ctrl Pts',(-0.00551757036687751,0.374507244011662,
-0.534876376875089));
#226=CARTESIAN_POINT('Ctrl Pts',(-0.00337918964552381,0.3745840351654,-0.5344408726634));
#227=CARTESIAN_POINT('Ctrl Pts',(-0.0012136571039381,0.374583296843089,
-0.534125014252909));
#228=CARTESIAN_POINT('Ctrl Pts',(0.000980664536435021,0.374486092732747,
-0.533924743519353));
#229=CARTESIAN_POINT('Ctrl Pts',(-0.00452800503074185,0.370051996610717,
-0.538949687686405));
#230=CARTESIAN_POINT('Ctrl Pts',(-0.00238284165821832,0.370129031330271,
-0.538512802123094));
#231=CARTESIAN_POINT('Ctrl Pts',(-0.000220088135847337,0.370155188119615,
-0.53815331359811));
#232=CARTESIAN_POINT('Ctrl Pts',(0.00196132907286993,0.370117973749362,
-0.537868546182309));
#233=CARTESIAN_POINT('Ctrl Pts',(-0.00353843969460618,0.365596749209772,
-0.543022998497721));
#234=CARTESIAN_POINT('Ctrl Pts',(-0.00138649367091284,0.365674027495143,
-0.542584731582789));
#235=CARTESIAN_POINT('Ctrl Pts',(0.00077348083224343,0.36572707939614,-0.54218161294331));
#236=CARTESIAN_POINT('Ctrl Pts',(0.00294199360930485,0.365749854765977,
-0.541812348845265));
#237=CARTESIAN_POINT('Ctrl Pts',(-0.00368226177170507,0.366244268794175,
-0.542430989056646));
#238=CARTESIAN_POINT('Ctrl Pts',(-0.00255297437865613,0.366074635221702,
-0.542401078080985));
#239=CARTESIAN_POINT('Ctrl Pts',(-0.00143667138401451,0.365910460932051,
-0.542372140013674));
#240=CARTESIAN_POINT('Ctrl Pts',(-0.000303162716678156,0.365745035759563,
-0.542342972110568));
#241=CARTESIAN_POINT('Ctrl Pts',(-0.000202079372788505,0.365730283574529,
-0.542340370993113));
#242=CARTESIAN_POINT('Ctrl Pts',(-0.000101022372087412,0.36571554586001,
-0.542337772407576));
#243=CARTESIAN_POINT('Ctrl Pts',(2.37330610242462E-9,0.365700822071521,
-0.542335176232444));
#244=CARTESIAN_POINT('Origin',(-0.634999999999999,0.362314616188995,-0.541738085277542));
#245=UNCERTAINTY_MEASURE_WITH_UNIT(LENGTH_MEASURE(0.001),#249,
'DISTANCE_ACCURACY_VALUE',
'Maximum model space distance between geometric entities at asserted c
onnectivities');
#246=UNCERTAINTY_MEASURE_WITH_UNIT(LENGTH_MEASURE(0.001),#249,
'DISTANCE_ACCURACY_VALUE',
'Maximum model space distance between geometric entities at asserted c
onnectivities');
#247=(
GEOMETRIC_REPRESENTATION_CONTEXT(3)
GLOBAL_UNCERTAINTY_ASSIGNED_CONTEXT((#245))
GLOBAL_UNIT_ASSIGNED_CONTEXT((#249,#251,#252))
REPRESENTATION_CONTEXT('','3D')
);
#248=(
GEOMETRIC_REPRESENTATION_CONTEXT(3)
GLOBAL_UNCERTAINTY_ASSIGNED_CONTEXT((#246))
GLOBAL_UNIT_ASSIGNED_CONTEXT((#249,#251,#252))
REPRESENTATION_CONTEXT('','3D')
);
#249=(
LENGTH_UNIT()
NAMED_UNIT(*)
SI_UNIT(.CENTI.,.METRE.)
);
#250=(
LENGTH_UNIT()
NAMED_UNIT(*)
SI_UNIT($,.METRE.)
);
#251=(
NAMED_UNIT(*)
PLANE_ANGLE_UNIT()
SI_UNIT($,.RADIAN.)
);
#252=(
NAMED_UNIT(*)
SI_UNIT($,.STERADIAN.)
SOLID_ANGLE_UNIT()
);
#253=SHAPE_DEFINITION_REPRESENTATION(#254,#255);
#254=PRODUCT_DEFINITION_SHAPE('',$,#257);
#255=SHAPE_REPRESENTATION('',(#125),#247);
#256=PRODUCT_DEFINITION_CONTEXT('part definition',#261,'design');
#257=PRODUCT_DEFINITION('temp_body','temp_body',#258,#256);
#258=PRODUCT_DEFINITION_FORMATION('',$,#263);
#259=PRODUCT_RELATED_PRODUCT_CATEGORY('temp_body','temp_body',(#263));
#260=APPLICATION_PROTOCOL_DEFINITION('international standard',
'automotive_design',2009,#261);
#261=APPLICATION_CONTEXT(
'Core Data for Automotive Mechanical Design Process');
#262=PRODUCT_CONTEXT('part definition',#261,'mechanical');
#263=PRODUCT('temp_body','temp_body',$,(#262));
#264=PRESENTATION_STYLE_ASSIGNMENT((#265));
#265=SURFACE_STYLE_USAGE(.BOTH.,#266);
#266=SURFACE_SIDE_STYLE('',(#267));
#267=SURFACE_STYLE_FILL_AREA(#268);
#268=FILL_AREA_STYLE('Steel - Satin',(#269));
#269=FILL_AREA_STYLE_COLOUR('Steel - Satin',#270);
#270=COLOUR_RGB('Steel - Satin',0.627450980392157,0.627450980392157,0.627450980392157);
ENDSEC;
END-ISO-10303-21;
