ISO-10303-21;
HEADER;
/* Generated by software containing ST-Developer
 * from STEP Tools, Inc. (www.steptools.com) 
 */

FILE_DESCRIPTION(
/* description */ (''),
/* implementation_level */ '2;1');

FILE_NAME(
/* name */ 
'C:\\Users\\designnet\\AppData\\Local\\Temp\\derivatives\\21224_18ba4a
ba\\AssemblyExtractor\\21224_18ba4aba\\a47a24ba-05a3-11ec-8b63-020a4e4
6e3ef.step',
/* time_stamp */ '2021-08-25T12:55:01+00:00',
/* author */ (''),
/* organization */ (''),
/* preprocessor_version */ 'ST-DEVELOPER v18.1',
/* originating_system */ 'Autodesk Translation Framework v10.6.0.1341',

/* authorisation */ '');

FILE_SCHEMA (('AUTOMOTIVE_DESIGN { 1 0 10303 214 3 1 1 }'));
ENDSEC;

DATA;
#10=MECHANICAL_DESIGN_GEOMETRIC_PRESENTATION_REPRESENTATION('',(#13),#129);
#11=SHAPE_REPRESENTATION_RELATIONSHIP('SRR','None',#136,#12);
#12=ADVANCED_BREP_SHAPE_REPRESENTATION('',(#14),#128);
#13=STYLED_ITEM('',(#145),#14);
#14=MANIFOLD_SOLID_BREP('Body1',#47);
#15=LINE('',#125,#16);
#16=VECTOR('',#75,0.0577557048140879);
#17=B_SPLINE_CURVE_WITH_KNOTS('',3,(#83,#84,#85,#86,#87,#88,#89,#90,#91,
#92,#93,#94,#95,#96),.UNSPECIFIED.,.F.,.F.,(4,2,2,2,2,2,4),(0.164269020777236,
0.17404701906937,0.195802913892259,0.217558808715149,0.239314779002733,
0.261070749290316,0.270613258708655),.UNSPECIFIED.);
#18=B_SPLINE_CURVE_WITH_KNOTS('',3,(#97,#98,#99,#100,#101,#102,#103,#104,
#105,#106,#107,#108,#109,#110,#111,#112,#113,#114,#115,#116,#117,#118,#119,
#120,#121,#122,#123),.UNSPECIFIED.,.F.,.F.,(4,2,2,2,3,2,2,2,2,2,2,2,4),
(0.270613258708655,0.282826586485727,0.304582423681138,0.326338230909978,
0.348094038138817,0.369849855474223,0.391605672809628,0.41336149989847,
0.435117326987313,0.456873354822191,0.47862938265707,0.500385219932629,
0.512363058916054),.UNSPECIFIED.);
#19=CYLINDRICAL_SURFACE('',#63,14.0295622946925);
#20=CYLINDRICAL_SURFACE('',#64,0.0577557048140879);
#21=FACE_OUTER_BOUND('',#24,.T.);
#22=FACE_OUTER_BOUND('',#25,.T.);
#23=FACE_OUTER_BOUND('',#26,.T.);
#24=EDGE_LOOP('',(#35));
#25=EDGE_LOOP('',(#36,#37));
#26=EDGE_LOOP('',(#38,#39,#40,#41,#42));
#27=CIRCLE('',#62,0.0577557048140879);
#28=VERTEX_POINT('',#78);
#29=VERTEX_POINT('',#81);
#30=VERTEX_POINT('',#82);
#31=EDGE_CURVE('',#28,#28,#27,.T.);
#32=EDGE_CURVE('',#29,#30,#17,.T.);
#33=EDGE_CURVE('',#30,#29,#18,.T.);
#34=EDGE_CURVE('',#30,#28,#15,.T.);
#35=ORIENTED_EDGE('',*,*,#31,.F.);
#36=ORIENTED_EDGE('',*,*,#32,.T.);
#37=ORIENTED_EDGE('',*,*,#33,.T.);
#38=ORIENTED_EDGE('',*,*,#32,.F.);
#39=ORIENTED_EDGE('',*,*,#33,.F.);
#40=ORIENTED_EDGE('',*,*,#34,.T.);
#41=ORIENTED_EDGE('',*,*,#31,.T.);
#42=ORIENTED_EDGE('',*,*,#34,.F.);
#43=PLANE('',#61);
#44=ADVANCED_FACE('',(#21),#43,.T.);
#45=ADVANCED_FACE('',(#22),#19,.T.);
#46=ADVANCED_FACE('',(#23),#20,.T.);
#47=CLOSED_SHELL('',(#44,#45,#46));
#48=DERIVED_UNIT_ELEMENT(#50,1.);
#49=DERIVED_UNIT_ELEMENT(#131,-3.);
#50=(
MASS_UNIT()
NAMED_UNIT(*)
SI_UNIT(.KILO.,.GRAM.)
);
#51=DERIVED_UNIT((#48,#49));
#52=MEASURE_REPRESENTATION_ITEM('density measure',
POSITIVE_RATIO_MEASURE(7850.),#51);
#53=PROPERTY_DEFINITION_REPRESENTATION(#58,#55);
#54=PROPERTY_DEFINITION_REPRESENTATION(#59,#56);
#55=REPRESENTATION('material name',(#57),#128);
#56=REPRESENTATION('density',(#52),#128);
#57=DESCRIPTIVE_REPRESENTATION_ITEM('Steel','Steel');
#58=PROPERTY_DEFINITION('material property','material name',#138);
#59=PROPERTY_DEFINITION('material property','density of part',#138);
#60=AXIS2_PLACEMENT_3D('placement',#76,#65,#66);
#61=AXIS2_PLACEMENT_3D('',#77,#67,#68);
#62=AXIS2_PLACEMENT_3D('',#79,#69,#70);
#63=AXIS2_PLACEMENT_3D('',#80,#71,#72);
#64=AXIS2_PLACEMENT_3D('',#124,#73,#74);
#65=DIRECTION('axis',(0.,0.,1.));
#66=DIRECTION('refdir',(1.,0.,0.));
#67=DIRECTION('center_axis',(-1.,4.93038065763132E-32,1.22464679914735E-16));
#68=DIRECTION('ref_axis',(8.27359385291814E-17,-0.737277336810124,0.675590207615661));
#69=DIRECTION('center_axis',(1.,-4.93038065763132E-32,-1.22464679914735E-16));
#70=DIRECTION('ref_axis',(1.08329581992821E-16,0.466391967923908,0.884578166278178));
#71=DIRECTION('center_axis',(9.71577628780522E-17,0.608761429008721,0.793353340291235));
#72=DIRECTION('ref_axis',(0.98500457854093,-0.136875824817848,0.105028514384615));
#73=DIRECTION('center_axis',(1.,-4.93038065763132E-32,-1.22464679914735E-16));
#74=DIRECTION('ref_axis',(1.08329581992821E-16,0.466391967923908,0.884578166278178));
#75=DIRECTION('',(-1.,4.93038065763132E-32,1.22464679914735E-16));
#76=CARTESIAN_POINT('',(0.,0.,0.));
#77=CARTESIAN_POINT('Origin',(-0.633626124704329,-0.405368271879606,0.0182917198579398));
#78=CARTESIAN_POINT('',(-0.63362612470433,0.510559624717933,-0.59814678270882));
#79=CARTESIAN_POINT('Origin',(-0.63362612470433,0.537496421545008,-0.54705734725227));
#80=CARTESIAN_POINT('Origin',(-14.0281035259324,0.35568457709657,-0.850526994113367));
#81=CARTESIAN_POINT('',(0.00112075140727129,0.498435464524654,-0.504513686440979));
#82=CARTESIAN_POINT('',(0.00142502878509809,0.510559624611792,-0.598146782652857));
#83=CARTESIAN_POINT('Ctrl Pts',(0.00112075140727086,0.498435464524654,-0.50451368644098));
#84=CARTESIAN_POINT('Ctrl Pts',(0.00111666872470374,0.495926647039219,-0.506817127426116));
#85=CARTESIAN_POINT('Ctrl Pts',(0.00111470172779885,0.493659896280931,-0.509312099320765));
#86=CARTESIAN_POINT('Ctrl Pts',(0.00111470172779885,0.487261023669294,-0.517651272465828));
#87=CARTESIAN_POINT('Ctrl Pts',(0.00112508685609896,0.483701872646339,-0.524670405202113));
#88=CARTESIAN_POINT('Ctrl Pts',(0.00116452035095584,0.479715492407195,-0.539547827049864));
#89=CARTESIAN_POINT('Ctrl Pts',(0.00119324729599957,0.479288261376689,-0.547406116525396));
#90=CARTESIAN_POINT('Ctrl Pts',(0.00125270799029925,0.481181391490772,-0.561785867375366));
#91=CARTESIAN_POINT('Ctrl Pts',(0.00128735148296191,0.483627947489496,-0.569265816247965));
#92=CARTESIAN_POINT('Ctrl Pts',(0.00135084735951949,0.491329055529947,-0.582604539932842));
#93=CARTESIAN_POINT('Ctrl Pts',(0.00137937837619081,0.496583609554851,-0.588463315127992));
#94=CARTESIAN_POINT('Ctrl Pts',(0.00140949514704961,0.504860492875002,-0.594814391075897));
#95=CARTESIAN_POINT('Ctrl Pts',(0.00141784836299579,0.507621478599813,-0.596597651364504));
#96=CARTESIAN_POINT('Ctrl Pts',(0.00142502878509809,0.510559624505651,-0.598146782596895));
#97=CARTESIAN_POINT('Ctrl Pts',(0.00142502878509809,0.510559624505651,-0.598146782596895));
#98=CARTESIAN_POINT('Ctrl Pts',(0.00143421890950547,0.514320117414979,-0.600129494552571));
#99=CARTESIAN_POINT('Ctrl Pts',(0.001441468436764,0.518372167664205,-0.601726122587238));
#100=CARTESIAN_POINT('Ctrl Pts',(0.00145603618174381,0.529986833789412,
-0.604838267887185));
#101=CARTESIAN_POINT('Ctrl Pts',(0.0014588888677563,0.537845149443672,-0.605265512867641));
#102=CARTESIAN_POINT('Ctrl Pts',(0.00145864041927638,0.552224948199678,
-0.603372376446608));
#103=CARTESIAN_POINT('Ctrl Pts',(0.00145557638967113,0.559704909838496,
-0.600925813974863));
#104=CARTESIAN_POINT('Ctrl Pts',(0.00145017368268464,0.57304363777022,-0.593224695865171));
#105=CARTESIAN_POINT('Ctrl Pts',(0.00144815638718047,0.578902404114183,
-0.587970140093544));
#106=CARTESIAN_POINT('Ctrl Pts',(0.00144815638718047,0.583317102880139,
-0.5822167926483));
#107=CARTESIAN_POINT('Ctrl Pts',(0.00144815638718047,0.587731803696923,
-0.576463442530364));
#108=CARTESIAN_POINT('Ctrl Pts',(0.00145017368471851,0.591290955499485,
-0.569444326220066));
#109=CARTESIAN_POINT('Ctrl Pts',(0.00145557639470006,0.595277346680431,
-0.554566901246778));
#110=CARTESIAN_POINT('Ctrl Pts',(0.00145864042472331,0.595704586174728,
-0.546708592499871));
#111=CARTESIAN_POINT('Ctrl Pts',(0.00145888886288319,0.593811444741144,
-0.532328794403781));
#112=CARTESIAN_POINT('Ctrl Pts',(0.00145603617089788,0.591364875182424,
-0.524848827512902));
#113=CARTESIAN_POINT('Ctrl Pts',(0.00143737609879085,0.583663750312946,
-0.511510105436303));
#114=CARTESIAN_POINT('Ctrl Pts',(0.00142124733735293,0.578409195666255,
-0.505651350318713));
#115=CARTESIAN_POINT('Ctrl Pts',(0.00137937832081629,0.566902485128528,
-0.496821940780253));
#116=CARTESIAN_POINT('Ctrl Pts',(0.00135084721533215,0.559883344379882,
-0.493262788319577));
#117=CARTESIAN_POINT('Ctrl Pts',(0.00128735115456373,0.545005892605271,
-0.489276409832248));
#118=CARTESIAN_POINT('Ctrl Pts',(0.00125270756959415,0.537147580696184,
-0.488849181989078));
#119=CARTESIAN_POINT('Ctrl Pts',(0.00119324693405502,0.522767833603562,
-0.490742340644585));
#120=CARTESIAN_POINT('Ctrl Pts',(0.00116452011294842,0.515287907225029,
-0.493188893915841));
#121=CARTESIAN_POINT('Ctrl Pts',(0.00113394830421018,0.504946701084498,
-0.499159394567533));
#122=CARTESIAN_POINT('Ctrl Pts',(0.00112575260618175,0.501508712338935,
-0.501692020451327));
#123=CARTESIAN_POINT('Ctrl Pts',(0.00112075140727086,0.498435464524654,
-0.50451368644098));
#124=CARTESIAN_POINT('Origin',(-0.633626124704329,0.537496421545008,-0.54705734725227));
#125=CARTESIAN_POINT('',(-0.633626124704329,0.510559624717933,-0.59814678270882));
#126=UNCERTAINTY_MEASURE_WITH_UNIT(LENGTH_MEASURE(0.001),#130,
'DISTANCE_ACCURACY_VALUE',
'Maximum model space distance between geometric entities at asserted c
onnectivities');
#127=UNCERTAINTY_MEASURE_WITH_UNIT(LENGTH_MEASURE(0.001),#130,
'DISTANCE_ACCURACY_VALUE',
'Maximum model space distance between geometric entities at asserted c
onnectivities');
#128=(
GEOMETRIC_REPRESENTATION_CONTEXT(3)
GLOBAL_UNCERTAINTY_ASSIGNED_CONTEXT((#126))
GLOBAL_UNIT_ASSIGNED_CONTEXT((#130,#132,#133))
REPRESENTATION_CONTEXT('','3D')
);
#129=(
GEOMETRIC_REPRESENTATION_CONTEXT(3)
GLOBAL_UNCERTAINTY_ASSIGNED_CONTEXT((#127))
GLOBAL_UNIT_ASSIGNED_CONTEXT((#130,#132,#133))
REPRESENTATION_CONTEXT('','3D')
);
#130=(
LENGTH_UNIT()
NAMED_UNIT(*)
SI_UNIT(.CENTI.,.METRE.)
);
#131=(
LENGTH_UNIT()
NAMED_UNIT(*)
SI_UNIT($,.METRE.)
);
#132=(
NAMED_UNIT(*)
PLANE_ANGLE_UNIT()
SI_UNIT($,.RADIAN.)
);
#133=(
NAMED_UNIT(*)
SI_UNIT($,.STERADIAN.)
SOLID_ANGLE_UNIT()
);
#134=SHAPE_DEFINITION_REPRESENTATION(#135,#136);
#135=PRODUCT_DEFINITION_SHAPE('',$,#138);
#136=SHAPE_REPRESENTATION('',(#60),#128);
#137=PRODUCT_DEFINITION_CONTEXT('part definition',#142,'design');
#138=PRODUCT_DEFINITION('temp_body','temp_body',#139,#137);
#139=PRODUCT_DEFINITION_FORMATION('',$,#144);
#140=PRODUCT_RELATED_PRODUCT_CATEGORY('temp_body','temp_body',(#144));
#141=APPLICATION_PROTOCOL_DEFINITION('international standard',
'automotive_design',2009,#142);
#142=APPLICATION_CONTEXT(
'Core Data for Automotive Mechanical Design Process');
#143=PRODUCT_CONTEXT('part definition',#142,'mechanical');
#144=PRODUCT('temp_body','temp_body',$,(#143));
#145=PRESENTATION_STYLE_ASSIGNMENT((#146));
#146=SURFACE_STYLE_USAGE(.BOTH.,#147);
#147=SURFACE_SIDE_STYLE('',(#148));
#148=SURFACE_STYLE_FILL_AREA(#149);
#149=FILL_AREA_STYLE('Steel - Satin',(#150));
#150=FILL_AREA_STYLE_COLOUR('Steel - Satin',#151);
#151=COLOUR_RGB('Steel - Satin',0.627450980392157,0.627450980392157,0.627450980392157);
ENDSEC;
END-ISO-10303-21;
