ISO-10303-21;
HEADER;
/* Generated by software containing ST-Developer
 * from STEP Tools, Inc. (www.steptools.com) 
 */

FILE_DESCRIPTION(
/* description */ (''),
/* implementation_level */ '2;1');

FILE_NAME(
/* name */ 
'C:\\Users\\designnet\\AppData\\Local\\Temp\\derivatives\\21224_18ba4a
ba\\AssemblyExtractor\\21224_18ba4aba\\a47a9a50-05a3-11ec-862a-020a4e4
6e3ef.step',
/* time_stamp */ '2021-08-25T12:55:02+00:00',
/* author */ (''),
/* organization */ (''),
/* preprocessor_version */ 'ST-DEVELOPER v18.1',
/* originating_system */ 'Autodesk Translation Framework v10.6.0.1341',

/* authorisation */ '');

FILE_SCHEMA (('AUTOMOTIVE_DESIGN { 1 0 10303 214 3 1 1 }'));
ENDSEC;

DATA;
#10=MECHANICAL_DESIGN_GEOMETRIC_PRESENTATION_REPRESENTATION('',(#13),#1018);
#11=SHAPE_REPRESENTATION_RELATIONSHIP('SRR','None',#1025,#12);
#12=ADVANCED_BREP_SHAPE_REPRESENTATION('',(#14),#1017);
#13=STYLED_ITEM('',(#1034),#14);
#14=MANIFOLD_SOLID_BREP('Body1',#452);
#15=CYLINDRICAL_SURFACE('',#481,0.018796);
#16=CYLINDRICAL_SURFACE('',#484,0.018796);
#17=CYLINDRICAL_SURFACE('',#489,0.220836305977969);
#18=CYLINDRICAL_SURFACE('',#493,0.018796);
#19=CYLINDRICAL_SURFACE('',#500,0.018796);
#20=CYLINDRICAL_SURFACE('',#504,0.158778424089517);
#21=CYLINDRICAL_SURFACE('',#506,0.127000003179221);
#22=FACE_BOUND('',#152,.T.);
#23=FACE_BOUND('',#157,.T.);
#24=CONICAL_SURFACE('',#471,0.227186305977969,0.785398163397444);
#25=CONICAL_SURFACE('',#475,0.227186305977969,0.785398163397444);
#26=B_SPLINE_CURVE_WITH_KNOTS('',3,(#665,#666,#667,#668,#669,#670,#671),
 .UNSPECIFIED.,.F.,.F.,(4,1,1,1,4),(0.0314360507373825,0.0388502486491395,
0.0444108970829572,0.0499715455167749,0.0573857434285318),.UNSPECIFIED.);
#27=B_SPLINE_CURVE_WITH_KNOTS('',3,(#672,#673,#674,#675,#676,#677,#678),
 .UNSPECIFIED.,.F.,.F.,(4,1,1,1,4),(-0.0573857434285318,-0.0499715455167749,
-0.0444108970829572,-0.0388502486491395,-0.0314360507373825),
 .UNSPECIFIED.);
#28=B_SPLINE_CURVE_WITH_KNOTS('',3,(#710,#711,#712,#713,#714,#715,#716),
 .UNSPECIFIED.,.F.,.F.,(4,1,1,1,4),(-0.1407211795482,-0.133306981636444,
-0.127746333202626,-0.122185684768809,-0.114771486857052),.UNSPECIFIED.);
#29=B_SPLINE_CURVE_WITH_KNOTS('',3,(#717,#718,#719,#720,#721,#722,#723),
 .UNSPECIFIED.,.F.,.F.,(4,1,1,1,4),(0.114771486857052,0.122185684768809,
0.127746333202626,0.133306981636444,0.1407211795482),.UNSPECIFIED.);
#30=B_SPLINE_CURVE_WITH_KNOTS('',3,(#749,#750,#751,#752),.UNSPECIFIED.,
 .F.,.F.,(4,4),(0.0288161488707986,0.0314360507373826),.UNSPECIFIED.);
#31=B_SPLINE_CURVE_WITH_KNOTS('',3,(#753,#754,#755,#756),.UNSPECIFIED.,
 .F.,.F.,(4,4),(-0.0314360507373826,-0.0288161488707986),.UNSPECIFIED.);
#32=B_SPLINE_CURVE_WITH_KNOTS('',3,(#789,#790,#791,#792,#793,#794,#795),
 .UNSPECIFIED.,.F.,.F.,(4,1,1,1,4),(-0.146663310736374,-0.128520044387533,
-0.120744358809458,-0.115560568424074,-0.11037677849755),.UNSPECIFIED.);
#33=B_SPLINE_CURVE_WITH_KNOTS('',3,(#798,#799,#800,#801,#802,#803,#804),
 .UNSPECIFIED.,.F.,.F.,(4,1,1,1,4),(0.110376778497534,0.115560568424074,
0.120744358809458,0.128520044387533,0.146663310736374),.UNSPECIFIED.);
#34=B_SPLINE_CURVE_WITH_KNOTS('',3,(#844,#845,#846,#847,#848,#849,#850,
#851,#852,#853,#854,#855,#856,#857,#858,#859,#860,#861,#862,#863,#864,#865,
#866,#867,#868,#869,#870,#871),.UNSPECIFIED.,.F.,.F.,(4,3,3,3,3,3,3,3,3,
4),(-0.184369874596746,-0.184333004881665,-0.178974767403848,-0.178008011422627,
-0.176283461935527,-0.170146911376795,-0.165484569334485,-0.15964962734876,
-0.154718509259345,-0.146622834963523),.UNSPECIFIED.);
#35=B_SPLINE_CURVE_WITH_KNOTS('',3,(#874,#875,#876,#877,#878,#879,#880,
#881),.UNSPECIFIED.,.F.,.F.,(4,1,1,1,1,4),(0.146622834963523,0.154711486313499,
0.165496354780134,0.176281223246769,0.178977440363428,0.184369874596746),
 .UNSPECIFIED.);
#36=B_SPLINE_CURVE_WITH_KNOTS('',3,(#898,#899,#900,#901),.UNSPECIFIED.,
 .F.,.F.,(4,4),(-1.42288461109373,-1.3673746126734),.UNSPECIFIED.);
#37=B_SPLINE_CURVE_WITH_KNOTS('',3,(#902,#903,#904,#905),.UNSPECIFIED.,
 .F.,.F.,(4,4),(1.3673746126734,1.42288461109373),.UNSPECIFIED.);
#38=B_SPLINE_CURVE_WITH_KNOTS('',3,(#931,#932,#933,#934),.UNSPECIFIED.,
 .F.,.F.,(4,4),(1.3673746126734,1.42288461109373),.UNSPECIFIED.);
#39=B_SPLINE_CURVE_WITH_KNOTS('',3,(#935,#936,#937,#938),.UNSPECIFIED.,
 .F.,.F.,(4,4),(-1.42288461109373,-1.3673746126734),.UNSPECIFIED.);
#40=B_SPLINE_CURVE_WITH_KNOTS('',3,(#955,#956,#957,#958),.UNSPECIFIED.,
 .F.,.F.,(4,4),(0.1407211795482,0.143341081414785),.UNSPECIFIED.);
#41=B_SPLINE_CURVE_WITH_KNOTS('',3,(#959,#960,#961,#962),.UNSPECIFIED.,
 .F.,.F.,(4,4),(-0.143341081414785,-0.1407211795482),.UNSPECIFIED.);
#42=B_SPLINE_SURFACE_WITH_KNOTS('',3,3,((#634,#635,#636,#637,#638,#639,
#640),(#641,#642,#643,#644,#645,#646,#647),(#648,#649,#650,#651,#652,#653,
#654),(#655,#656,#657,#658,#659,#660,#661)),.UNSPECIFIED.,.F.,.F.,.F.,(4,
4),(4,1,1,1,4),(0.,1.),(0.0314360507373825,0.0388502486491395,0.0444108970829572,
0.0499715455167749,0.0573857434285318),.UNSPECIFIED.);
#43=B_SPLINE_SURFACE_WITH_KNOTS('',3,3,((#679,#680,#681,#682,#683,#684,
#685),(#686,#687,#688,#689,#690,#691,#692),(#693,#694,#695,#696,#697,#698,
#699),(#700,#701,#702,#703,#704,#705,#706)),.UNSPECIFIED.,.F.,.F.,.F.,(4,
4),(4,1,1,1,4),(0.,1.),(0.114771486857052,0.122185684768809,0.127746333202626,
0.133306981636444,0.1407211795482),.UNSPECIFIED.);
#44=B_SPLINE_SURFACE_WITH_KNOTS('',3,3,((#733,#734,#735,#736),(#737,#738,
#739,#740),(#741,#742,#743,#744),(#745,#746,#747,#748)),.UNSPECIFIED.,.F.,
 .F.,.F.,(4,4),(4,4),(0.,1.),(-0.0314360507373826,-0.0288161488707986),
 .UNSPECIFIED.);
#45=B_SPLINE_SURFACE_WITH_KNOTS('',3,3,((#757,#758,#759,#760,#761,#762,
#763),(#764,#765,#766,#767,#768,#769,#770),(#771,#772,#773,#774,#775,#776,
#777),(#778,#779,#780,#781,#782,#783,#784)),.UNSPECIFIED.,.F.,.F.,.F.,(4,
4),(4,1,1,1,4),(0.,1.),(0.110376778038691,0.115560568424074,0.120744358809458,
0.128520044387533,0.146663310736374),.UNSPECIFIED.);
#46=B_SPLINE_SURFACE_WITH_KNOTS('',3,3,((#811,#812,#813,#814,#815,#816,
#817,#818),(#819,#820,#821,#822,#823,#824,#825,#826),(#827,#828,#829,#830,
#831,#832,#833,#834),(#835,#836,#837,#838,#839,#840,#841,#842)),
 .UNSPECIFIED.,.F.,.F.,.F.,(4,4),(4,1,1,1,1,4),(0.,1.),(0.146622834963523,
0.154711486313499,0.165496354780134,0.176281223246769,0.178977440363428,
0.184369874596746),.UNSPECIFIED.);
#47=B_SPLINE_SURFACE_WITH_KNOTS('',3,3,((#882,#883,#884,#885),(#886,#887,
#888,#889),(#890,#891,#892,#893),(#894,#895,#896,#897)),.UNSPECIFIED.,.F.,
 .F.,.F.,(4,4),(4,4),(0.,1.),(1.3673746126734,1.42288461109373),
 .UNSPECIFIED.);
#48=B_SPLINE_SURFACE_WITH_KNOTS('',3,3,((#915,#916,#917,#918),(#919,#920,
#921,#922),(#923,#924,#925,#926),(#927,#928,#929,#930)),.UNSPECIFIED.,.F.,
 .F.,.F.,(4,4),(4,4),(0.,1.),(-1.42288461109373,-1.3673746126734),
 .UNSPECIFIED.);
#49=B_SPLINE_SURFACE_WITH_KNOTS('',3,3,((#939,#940,#941,#942),(#943,#944,
#945,#946),(#947,#948,#949,#950),(#951,#952,#953,#954)),.UNSPECIFIED.,.F.,
 .F.,.F.,(4,4),(4,4),(0.,1.),(-0.143341081414785,-0.1407211795482),
 .UNSPECIFIED.);
#50=LINE('',#628,#77);
#51=LINE('',#630,#78);
#52=LINE('',#632,#79);
#53=LINE('',#633,#80);
#54=LINE('',#664,#81);
#55=LINE('',#709,#82);
#56=LINE('',#727,#83);
#57=LINE('',#731,#84);
#58=LINE('',#787,#85);
#59=LINE('',#797,#86);
#60=LINE('',#807,#87);
#61=LINE('',#809,#88);
#62=LINE('',#810,#89);
#63=LINE('',#873,#90);
#64=LINE('',#909,#91);
#65=LINE('',#913,#92);
#66=LINE('',#965,#93);
#67=LINE('',#969,#94);
#68=LINE('',#973,#95);
#69=LINE('',#977,#96);
#70=LINE('',#978,#97);
#71=LINE('',#981,#98);
#72=LINE('',#987,#99);
#73=LINE('',#997,#100);
#74=LINE('',#1007,#101);
#75=LINE('',#1011,#102);
#76=LINE('',#1013,#103);
#77=VECTOR('',#519,1.);
#78=VECTOR('',#520,1.);
#79=VECTOR('',#521,1.);
#80=VECTOR('',#522,1.);
#81=VECTOR('',#523,1.);
#82=VECTOR('',#524,1.);
#83=VECTOR('',#527,1.);
#84=VECTOR('',#530,1.);
#85=VECTOR('',#533,1.);
#86=VECTOR('',#534,1.);
#87=VECTOR('',#537,1.);
#88=VECTOR('',#538,1.);
#89=VECTOR('',#539,1.);
#90=VECTOR('',#540,1.);
#91=VECTOR('',#543,1.);
#92=VECTOR('',#546,1.);
#93=VECTOR('',#551,1.);
#94=VECTOR('',#554,1.);
#95=VECTOR('',#559,1.);
#96=VECTOR('',#564,1.);
#97=VECTOR('',#565,1.);
#98=VECTOR('',#568,1.);
#99=VECTOR('',#575,1.);
#100=VECTOR('',#590,1.);
#101=VECTOR('',#605,1.);
#102=VECTOR('',#612,1.);
#103=VECTOR('',#615,1.);
#104=PLANE('',#470);
#105=PLANE('',#474);
#106=PLANE('',#478);
#107=PLANE('',#483);
#108=PLANE('',#486);
#109=PLANE('',#505);
#110=FACE_OUTER_BOUND('',#138,.T.);
#111=FACE_OUTER_BOUND('',#139,.T.);
#112=FACE_OUTER_BOUND('',#140,.T.);
#113=FACE_OUTER_BOUND('',#141,.T.);
#114=FACE_OUTER_BOUND('',#142,.T.);
#115=FACE_OUTER_BOUND('',#143,.T.);
#116=FACE_OUTER_BOUND('',#144,.T.);
#117=FACE_OUTER_BOUND('',#145,.T.);
#118=FACE_OUTER_BOUND('',#146,.T.);
#119=FACE_OUTER_BOUND('',#147,.T.);
#120=FACE_OUTER_BOUND('',#148,.T.);
#121=FACE_OUTER_BOUND('',#149,.T.);
#122=FACE_OUTER_BOUND('',#150,.T.);
#123=FACE_OUTER_BOUND('',#151,.T.);
#124=FACE_OUTER_BOUND('',#153,.T.);
#125=FACE_OUTER_BOUND('',#154,.T.);
#126=FACE_OUTER_BOUND('',#155,.T.);
#127=FACE_OUTER_BOUND('',#156,.T.);
#128=FACE_OUTER_BOUND('',#158,.T.);
#129=FACE_OUTER_BOUND('',#159,.T.);
#130=FACE_OUTER_BOUND('',#160,.T.);
#131=FACE_OUTER_BOUND('',#161,.T.);
#132=FACE_OUTER_BOUND('',#162,.T.);
#133=FACE_OUTER_BOUND('',#163,.T.);
#134=FACE_OUTER_BOUND('',#164,.T.);
#135=FACE_OUTER_BOUND('',#165,.T.);
#136=FACE_OUTER_BOUND('',#166,.T.);
#137=FACE_OUTER_BOUND('',#167,.T.);
#138=EDGE_LOOP('',(#291,#292,#293,#294));
#139=EDGE_LOOP('',(#295,#296,#297,#298));
#140=EDGE_LOOP('',(#299,#300,#301,#302));
#141=EDGE_LOOP('',(#303,#304,#305,#306));
#142=EDGE_LOOP('',(#307,#308,#309,#310));
#143=EDGE_LOOP('',(#311,#312,#313,#314));
#144=EDGE_LOOP('',(#315,#316,#317,#318));
#145=EDGE_LOOP('',(#319,#320,#321,#322));
#146=EDGE_LOOP('',(#323,#324,#325,#326));
#147=EDGE_LOOP('',(#327,#328,#329,#330));
#148=EDGE_LOOP('',(#331,#332,#333,#334));
#149=EDGE_LOOP('',(#335,#336,#337,#338));
#150=EDGE_LOOP('',(#339,#340,#341,#342));
#151=EDGE_LOOP('',(#343,#344,#345,#346,#347,#348));
#152=EDGE_LOOP('',(#349));
#153=EDGE_LOOP('',(#350,#351,#352,#353));
#154=EDGE_LOOP('',(#354,#355,#356,#357));
#155=EDGE_LOOP('',(#358,#359,#360,#361));
#156=EDGE_LOOP('',(#362,#363,#364,#365,#366,#367));
#157=EDGE_LOOP('',(#368));
#158=EDGE_LOOP('',(#369,#370,#371,#372,#373,#374,#375,#376,#377,#378,#379,
#380));
#159=EDGE_LOOP('',(#381,#382,#383,#384,#385));
#160=EDGE_LOOP('',(#386,#387,#388,#389));
#161=EDGE_LOOP('',(#390,#391,#392,#393));
#162=EDGE_LOOP('',(#394,#395,#396,#397));
#163=EDGE_LOOP('',(#398,#399,#400,#401));
#164=EDGE_LOOP('',(#402,#403,#404,#405,#406));
#165=EDGE_LOOP('',(#407,#408,#409,#410));
#166=EDGE_LOOP('',(#411,#412,#413,#414));
#167=EDGE_LOOP('',(#415,#416,#417,#418));
#168=CIRCLE('',#467,0.0915670000000002);
#169=CIRCLE('',#468,0.03048);
#170=CIRCLE('',#469,0.0915670000000002);
#171=CIRCLE('',#472,0.220836305977969);
#172=CIRCLE('',#473,0.233536305977969);
#173=CIRCLE('',#476,0.233536305977969);
#174=CIRCLE('',#477,0.220836305977969);
#175=CIRCLE('',#479,0.108204003179221);
#176=CIRCLE('',#480,0.139982424089517);
#177=CIRCLE('',#482,0.018796);
#178=CIRCLE('',#485,0.018796);
#179=CIRCLE('',#487,0.139982424089517);
#180=CIRCLE('',#488,0.108204003179221);
#181=CIRCLE('',#491,0.158778424089517);
#182=CIRCLE('',#492,0.018796);
#183=CIRCLE('',#494,0.018796);
#184=CIRCLE('',#496,0.127000003179221);
#185=CIRCLE('',#498,0.0187960000000002);
#186=CIRCLE('',#499,0.127000003179221);
#187=CIRCLE('',#501,0.0187960000000001);
#188=CIRCLE('',#503,0.158778424089517);
#189=VERTEX_POINT('',#620);
#190=VERTEX_POINT('',#622);
#191=VERTEX_POINT('',#626);
#192=VERTEX_POINT('',#627);
#193=VERTEX_POINT('',#629);
#194=VERTEX_POINT('',#631);
#195=VERTEX_POINT('',#662);
#196=VERTEX_POINT('',#663);
#197=VERTEX_POINT('',#707);
#198=VERTEX_POINT('',#708);
#199=VERTEX_POINT('',#725);
#200=VERTEX_POINT('',#726);
#201=VERTEX_POINT('',#728);
#202=VERTEX_POINT('',#730);
#203=VERTEX_POINT('',#785);
#204=VERTEX_POINT('',#786);
#205=VERTEX_POINT('',#788);
#206=VERTEX_POINT('',#796);
#207=VERTEX_POINT('',#806);
#208=VERTEX_POINT('',#808);
#209=VERTEX_POINT('',#843);
#210=VERTEX_POINT('',#872);
#211=VERTEX_POINT('',#907);
#212=VERTEX_POINT('',#908);
#213=VERTEX_POINT('',#910);
#214=VERTEX_POINT('',#912);
#215=VERTEX_POINT('',#964);
#216=VERTEX_POINT('',#966);
#217=VERTEX_POINT('',#968);
#218=VERTEX_POINT('',#972);
#219=VERTEX_POINT('',#976);
#220=VERTEX_POINT('',#980);
#221=VERTEX_POINT('',#984);
#222=VERTEX_POINT('',#986);
#223=VERTEX_POINT('',#991);
#224=VERTEX_POINT('',#995);
#225=VERTEX_POINT('',#1001);
#226=VERTEX_POINT('',#1005);
#227=EDGE_CURVE('',#189,#189,#168,.T.);
#228=EDGE_CURVE('',#189,#190,#169,.T.);
#229=EDGE_CURVE('',#190,#190,#170,.T.);
#230=EDGE_CURVE('',#191,#192,#50,.T.);
#231=EDGE_CURVE('',#192,#193,#51,.T.);
#232=EDGE_CURVE('',#193,#194,#52,.T.);
#233=EDGE_CURVE('',#194,#191,#53,.T.);
#234=EDGE_CURVE('',#195,#196,#54,.T.);
#235=EDGE_CURVE('',#196,#192,#26,.T.);
#236=EDGE_CURVE('',#191,#195,#27,.T.);
#237=EDGE_CURVE('',#197,#198,#55,.T.);
#238=EDGE_CURVE('',#198,#194,#28,.T.);
#239=EDGE_CURVE('',#193,#197,#29,.T.);
#240=EDGE_CURVE('',#199,#200,#56,.T.);
#241=EDGE_CURVE('',#200,#201,#171,.T.);
#242=EDGE_CURVE('',#201,#202,#57,.T.);
#243=EDGE_CURVE('',#202,#199,#172,.T.);
#244=EDGE_CURVE('',#201,#196,#30,.T.);
#245=EDGE_CURVE('',#195,#202,#31,.T.);
#246=EDGE_CURVE('',#203,#204,#58,.T.);
#247=EDGE_CURVE('',#204,#205,#32,.T.);
#248=EDGE_CURVE('',#205,#206,#59,.T.);
#249=EDGE_CURVE('',#206,#203,#33,.T.);
#250=EDGE_CURVE('',#205,#207,#60,.T.);
#251=EDGE_CURVE('',#207,#208,#61,.T.);
#252=EDGE_CURVE('',#208,#206,#62,.T.);
#253=EDGE_CURVE('',#207,#209,#34,.T.);
#254=EDGE_CURVE('',#209,#210,#63,.T.);
#255=EDGE_CURVE('',#210,#208,#35,.T.);
#256=EDGE_CURVE('',#203,#200,#36,.T.);
#257=EDGE_CURVE('',#199,#204,#37,.T.);
#258=EDGE_CURVE('',#211,#212,#64,.T.);
#259=EDGE_CURVE('',#212,#213,#173,.T.);
#260=EDGE_CURVE('',#213,#214,#65,.T.);
#261=EDGE_CURVE('',#214,#211,#174,.T.);
#262=EDGE_CURVE('',#211,#210,#38,.T.);
#263=EDGE_CURVE('',#209,#212,#39,.T.);
#264=EDGE_CURVE('',#197,#214,#40,.T.);
#265=EDGE_CURVE('',#213,#198,#41,.T.);
#266=EDGE_CURVE('',#215,#195,#66,.T.);
#267=EDGE_CURVE('',#216,#215,#175,.T.);
#268=EDGE_CURVE('',#217,#216,#67,.T.);
#269=EDGE_CURVE('',#199,#217,#176,.T.);
#270=EDGE_CURVE('',#191,#218,#68,.T.);
#271=EDGE_CURVE('',#218,#215,#177,.T.);
#272=EDGE_CURVE('',#219,#194,#69,.T.);
#273=EDGE_CURVE('',#219,#218,#70,.T.);
#274=EDGE_CURVE('',#198,#220,#71,.T.);
#275=EDGE_CURVE('',#219,#220,#178,.T.);
#276=EDGE_CURVE('',#221,#212,#179,.T.);
#277=EDGE_CURVE('',#222,#221,#72,.T.);
#278=EDGE_CURVE('',#220,#222,#180,.T.);
#279=EDGE_CURVE('',#207,#223,#181,.T.);
#280=EDGE_CURVE('',#223,#221,#182,.T.);
#281=EDGE_CURVE('',#224,#222,#183,.T.);
#282=EDGE_CURVE('',#223,#224,#73,.T.);
#283=EDGE_CURVE('',#224,#219,#184,.T.);
#284=EDGE_CURVE('',#225,#216,#185,.T.);
#285=EDGE_CURVE('',#218,#225,#186,.T.);
#286=EDGE_CURVE('',#226,#217,#187,.T.);
#287=EDGE_CURVE('',#225,#226,#74,.T.);
#288=EDGE_CURVE('',#226,#205,#188,.T.);
#289=EDGE_CURVE('',#223,#226,#75,.T.);
#290=EDGE_CURVE('',#224,#225,#76,.T.);
#291=ORIENTED_EDGE('',*,*,#227,.T.);
#292=ORIENTED_EDGE('',*,*,#228,.T.);
#293=ORIENTED_EDGE('',*,*,#229,.T.);
#294=ORIENTED_EDGE('',*,*,#228,.F.);
#295=ORIENTED_EDGE('',*,*,#230,.T.);
#296=ORIENTED_EDGE('',*,*,#231,.T.);
#297=ORIENTED_EDGE('',*,*,#232,.T.);
#298=ORIENTED_EDGE('',*,*,#233,.T.);
#299=ORIENTED_EDGE('',*,*,#234,.T.);
#300=ORIENTED_EDGE('',*,*,#235,.T.);
#301=ORIENTED_EDGE('',*,*,#230,.F.);
#302=ORIENTED_EDGE('',*,*,#236,.T.);
#303=ORIENTED_EDGE('',*,*,#237,.T.);
#304=ORIENTED_EDGE('',*,*,#238,.T.);
#305=ORIENTED_EDGE('',*,*,#232,.F.);
#306=ORIENTED_EDGE('',*,*,#239,.T.);
#307=ORIENTED_EDGE('',*,*,#240,.T.);
#308=ORIENTED_EDGE('',*,*,#241,.T.);
#309=ORIENTED_EDGE('',*,*,#242,.T.);
#310=ORIENTED_EDGE('',*,*,#243,.T.);
#311=ORIENTED_EDGE('',*,*,#242,.F.);
#312=ORIENTED_EDGE('',*,*,#244,.T.);
#313=ORIENTED_EDGE('',*,*,#234,.F.);
#314=ORIENTED_EDGE('',*,*,#245,.T.);
#315=ORIENTED_EDGE('',*,*,#246,.T.);
#316=ORIENTED_EDGE('',*,*,#247,.T.);
#317=ORIENTED_EDGE('',*,*,#248,.T.);
#318=ORIENTED_EDGE('',*,*,#249,.T.);
#319=ORIENTED_EDGE('',*,*,#248,.F.);
#320=ORIENTED_EDGE('',*,*,#250,.T.);
#321=ORIENTED_EDGE('',*,*,#251,.T.);
#322=ORIENTED_EDGE('',*,*,#252,.T.);
#323=ORIENTED_EDGE('',*,*,#251,.F.);
#324=ORIENTED_EDGE('',*,*,#253,.T.);
#325=ORIENTED_EDGE('',*,*,#254,.T.);
#326=ORIENTED_EDGE('',*,*,#255,.T.);
#327=ORIENTED_EDGE('',*,*,#246,.F.);
#328=ORIENTED_EDGE('',*,*,#256,.T.);
#329=ORIENTED_EDGE('',*,*,#240,.F.);
#330=ORIENTED_EDGE('',*,*,#257,.T.);
#331=ORIENTED_EDGE('',*,*,#258,.T.);
#332=ORIENTED_EDGE('',*,*,#259,.T.);
#333=ORIENTED_EDGE('',*,*,#260,.T.);
#334=ORIENTED_EDGE('',*,*,#261,.T.);
#335=ORIENTED_EDGE('',*,*,#258,.F.);
#336=ORIENTED_EDGE('',*,*,#262,.T.);
#337=ORIENTED_EDGE('',*,*,#254,.F.);
#338=ORIENTED_EDGE('',*,*,#263,.T.);
#339=ORIENTED_EDGE('',*,*,#237,.F.);
#340=ORIENTED_EDGE('',*,*,#264,.T.);
#341=ORIENTED_EDGE('',*,*,#260,.F.);
#342=ORIENTED_EDGE('',*,*,#265,.T.);
#343=ORIENTED_EDGE('',*,*,#243,.F.);
#344=ORIENTED_EDGE('',*,*,#245,.F.);
#345=ORIENTED_EDGE('',*,*,#266,.F.);
#346=ORIENTED_EDGE('',*,*,#267,.F.);
#347=ORIENTED_EDGE('',*,*,#268,.F.);
#348=ORIENTED_EDGE('',*,*,#269,.F.);
#349=ORIENTED_EDGE('',*,*,#227,.F.);
#350=ORIENTED_EDGE('',*,*,#236,.F.);
#351=ORIENTED_EDGE('',*,*,#270,.T.);
#352=ORIENTED_EDGE('',*,*,#271,.T.);
#353=ORIENTED_EDGE('',*,*,#266,.T.);
#354=ORIENTED_EDGE('',*,*,#233,.F.);
#355=ORIENTED_EDGE('',*,*,#272,.F.);
#356=ORIENTED_EDGE('',*,*,#273,.T.);
#357=ORIENTED_EDGE('',*,*,#270,.F.);
#358=ORIENTED_EDGE('',*,*,#238,.F.);
#359=ORIENTED_EDGE('',*,*,#274,.T.);
#360=ORIENTED_EDGE('',*,*,#275,.F.);
#361=ORIENTED_EDGE('',*,*,#272,.T.);
#362=ORIENTED_EDGE('',*,*,#265,.F.);
#363=ORIENTED_EDGE('',*,*,#259,.F.);
#364=ORIENTED_EDGE('',*,*,#276,.F.);
#365=ORIENTED_EDGE('',*,*,#277,.F.);
#366=ORIENTED_EDGE('',*,*,#278,.F.);
#367=ORIENTED_EDGE('',*,*,#274,.F.);
#368=ORIENTED_EDGE('',*,*,#229,.F.);
#369=ORIENTED_EDGE('',*,*,#261,.F.);
#370=ORIENTED_EDGE('',*,*,#264,.F.);
#371=ORIENTED_EDGE('',*,*,#239,.F.);
#372=ORIENTED_EDGE('',*,*,#231,.F.);
#373=ORIENTED_EDGE('',*,*,#235,.F.);
#374=ORIENTED_EDGE('',*,*,#244,.F.);
#375=ORIENTED_EDGE('',*,*,#241,.F.);
#376=ORIENTED_EDGE('',*,*,#256,.F.);
#377=ORIENTED_EDGE('',*,*,#249,.F.);
#378=ORIENTED_EDGE('',*,*,#252,.F.);
#379=ORIENTED_EDGE('',*,*,#255,.F.);
#380=ORIENTED_EDGE('',*,*,#262,.F.);
#381=ORIENTED_EDGE('',*,*,#253,.F.);
#382=ORIENTED_EDGE('',*,*,#279,.T.);
#383=ORIENTED_EDGE('',*,*,#280,.T.);
#384=ORIENTED_EDGE('',*,*,#276,.T.);
#385=ORIENTED_EDGE('',*,*,#263,.F.);
#386=ORIENTED_EDGE('',*,*,#281,.T.);
#387=ORIENTED_EDGE('',*,*,#277,.T.);
#388=ORIENTED_EDGE('',*,*,#280,.F.);
#389=ORIENTED_EDGE('',*,*,#282,.T.);
#390=ORIENTED_EDGE('',*,*,#275,.T.);
#391=ORIENTED_EDGE('',*,*,#278,.T.);
#392=ORIENTED_EDGE('',*,*,#281,.F.);
#393=ORIENTED_EDGE('',*,*,#283,.T.);
#394=ORIENTED_EDGE('',*,*,#284,.T.);
#395=ORIENTED_EDGE('',*,*,#267,.T.);
#396=ORIENTED_EDGE('',*,*,#271,.F.);
#397=ORIENTED_EDGE('',*,*,#285,.T.);
#398=ORIENTED_EDGE('',*,*,#286,.T.);
#399=ORIENTED_EDGE('',*,*,#268,.T.);
#400=ORIENTED_EDGE('',*,*,#284,.F.);
#401=ORIENTED_EDGE('',*,*,#287,.T.);
#402=ORIENTED_EDGE('',*,*,#257,.F.);
#403=ORIENTED_EDGE('',*,*,#269,.T.);
#404=ORIENTED_EDGE('',*,*,#286,.F.);
#405=ORIENTED_EDGE('',*,*,#288,.T.);
#406=ORIENTED_EDGE('',*,*,#247,.F.);
#407=ORIENTED_EDGE('',*,*,#250,.F.);
#408=ORIENTED_EDGE('',*,*,#288,.F.);
#409=ORIENTED_EDGE('',*,*,#289,.F.);
#410=ORIENTED_EDGE('',*,*,#279,.F.);
#411=ORIENTED_EDGE('',*,*,#282,.F.);
#412=ORIENTED_EDGE('',*,*,#289,.T.);
#413=ORIENTED_EDGE('',*,*,#287,.F.);
#414=ORIENTED_EDGE('',*,*,#290,.F.);
#415=ORIENTED_EDGE('',*,*,#283,.F.);
#416=ORIENTED_EDGE('',*,*,#290,.T.);
#417=ORIENTED_EDGE('',*,*,#285,.F.);
#418=ORIENTED_EDGE('',*,*,#273,.F.);
#419=TOROIDAL_SURFACE('',#466,0.115360442373898,0.03048);
#420=TOROIDAL_SURFACE('',#490,0.139982424089517,0.018796);
#421=TOROIDAL_SURFACE('',#495,0.108204003179221,0.018796);
#422=TOROIDAL_SURFACE('',#497,0.108204003179221,0.018796);
#423=TOROIDAL_SURFACE('',#502,0.139982424089517,0.018796);
#424=ADVANCED_FACE('',(#110),#419,.T.);
#425=ADVANCED_FACE('',(#111),#104,.T.);
#426=ADVANCED_FACE('',(#112),#42,.T.);
#427=ADVANCED_FACE('',(#113),#43,.T.);
#428=ADVANCED_FACE('',(#114),#24,.F.);
#429=ADVANCED_FACE('',(#115),#44,.T.);
#430=ADVANCED_FACE('',(#116),#45,.T.);
#431=ADVANCED_FACE('',(#117),#105,.T.);
#432=ADVANCED_FACE('',(#118),#46,.T.);
#433=ADVANCED_FACE('',(#119),#47,.T.);
#434=ADVANCED_FACE('',(#120),#25,.F.);
#435=ADVANCED_FACE('',(#121),#48,.T.);
#436=ADVANCED_FACE('',(#122),#49,.T.);
#437=ADVANCED_FACE('',(#123,#22),#106,.T.);
#438=ADVANCED_FACE('',(#124),#15,.T.);
#439=ADVANCED_FACE('',(#125),#107,.T.);
#440=ADVANCED_FACE('',(#126),#16,.T.);
#441=ADVANCED_FACE('',(#127,#23),#108,.F.);
#442=ADVANCED_FACE('',(#128),#17,.F.);
#443=ADVANCED_FACE('',(#129),#420,.T.);
#444=ADVANCED_FACE('',(#130),#18,.T.);
#445=ADVANCED_FACE('',(#131),#421,.T.);
#446=ADVANCED_FACE('',(#132),#422,.T.);
#447=ADVANCED_FACE('',(#133),#19,.T.);
#448=ADVANCED_FACE('',(#134),#423,.T.);
#449=ADVANCED_FACE('',(#135),#20,.T.);
#450=ADVANCED_FACE('',(#136),#109,.T.);
#451=ADVANCED_FACE('',(#137),#21,.T.);
#452=CLOSED_SHELL('',(#424,#425,#426,#427,#428,#429,#430,#431,#432,#433,
#434,#435,#436,#437,#438,#439,#440,#441,#442,#443,#444,#445,#446,#447,#448,
#449,#450,#451));
#453=DERIVED_UNIT_ELEMENT(#455,1.);
#454=DERIVED_UNIT_ELEMENT(#1020,-3.);
#455=(
MASS_UNIT()
NAMED_UNIT(*)
SI_UNIT(.KILO.,.GRAM.)
);
#456=DERIVED_UNIT((#453,#454));
#457=MEASURE_REPRESENTATION_ITEM('density measure',
POSITIVE_RATIO_MEASURE(7850.),#456);
#458=PROPERTY_DEFINITION_REPRESENTATION(#463,#460);
#459=PROPERTY_DEFINITION_REPRESENTATION(#464,#461);
#460=REPRESENTATION('material name',(#462),#1017);
#461=REPRESENTATION('density',(#457),#1017);
#462=DESCRIPTIVE_REPRESENTATION_ITEM('Steel','Steel');
#463=PROPERTY_DEFINITION('material property','material name',#1027);
#464=PROPERTY_DEFINITION('material property','density of part',#1027);
#465=AXIS2_PLACEMENT_3D('placement',#618,#507,#508);
#466=AXIS2_PLACEMENT_3D('',#619,#509,#510);
#467=AXIS2_PLACEMENT_3D('',#621,#511,#512);
#468=AXIS2_PLACEMENT_3D('',#623,#513,#514);
#469=AXIS2_PLACEMENT_3D('',#624,#515,#516);
#470=AXIS2_PLACEMENT_3D('',#625,#517,#518);
#471=AXIS2_PLACEMENT_3D('',#724,#525,#526);
#472=AXIS2_PLACEMENT_3D('',#729,#528,#529);
#473=AXIS2_PLACEMENT_3D('',#732,#531,#532);
#474=AXIS2_PLACEMENT_3D('',#805,#535,#536);
#475=AXIS2_PLACEMENT_3D('',#906,#541,#542);
#476=AXIS2_PLACEMENT_3D('',#911,#544,#545);
#477=AXIS2_PLACEMENT_3D('',#914,#547,#548);
#478=AXIS2_PLACEMENT_3D('',#963,#549,#550);
#479=AXIS2_PLACEMENT_3D('',#967,#552,#553);
#480=AXIS2_PLACEMENT_3D('',#970,#555,#556);
#481=AXIS2_PLACEMENT_3D('',#971,#557,#558);
#482=AXIS2_PLACEMENT_3D('',#974,#560,#561);
#483=AXIS2_PLACEMENT_3D('',#975,#562,#563);
#484=AXIS2_PLACEMENT_3D('',#979,#566,#567);
#485=AXIS2_PLACEMENT_3D('',#982,#569,#570);
#486=AXIS2_PLACEMENT_3D('',#983,#571,#572);
#487=AXIS2_PLACEMENT_3D('',#985,#573,#574);
#488=AXIS2_PLACEMENT_3D('',#988,#576,#577);
#489=AXIS2_PLACEMENT_3D('',#989,#578,#579);
#490=AXIS2_PLACEMENT_3D('',#990,#580,#581);
#491=AXIS2_PLACEMENT_3D('',#992,#582,#583);
#492=AXIS2_PLACEMENT_3D('',#993,#584,#585);
#493=AXIS2_PLACEMENT_3D('',#994,#586,#587);
#494=AXIS2_PLACEMENT_3D('',#996,#588,#589);
#495=AXIS2_PLACEMENT_3D('',#998,#591,#592);
#496=AXIS2_PLACEMENT_3D('',#999,#593,#594);
#497=AXIS2_PLACEMENT_3D('',#1000,#595,#596);
#498=AXIS2_PLACEMENT_3D('',#1002,#597,#598);
#499=AXIS2_PLACEMENT_3D('',#1003,#599,#600);
#500=AXIS2_PLACEMENT_3D('',#1004,#601,#602);
#501=AXIS2_PLACEMENT_3D('',#1006,#603,#604);
#502=AXIS2_PLACEMENT_3D('',#1008,#606,#607);
#503=AXIS2_PLACEMENT_3D('',#1009,#608,#609);
#504=AXIS2_PLACEMENT_3D('',#1010,#610,#611);
#505=AXIS2_PLACEMENT_3D('',#1012,#613,#614);
#506=AXIS2_PLACEMENT_3D('',#1014,#616,#617);
#507=DIRECTION('axis',(0.,0.,1.));
#508=DIRECTION('refdir',(1.,0.,0.));
#509=DIRECTION('center_axis',(0.,-1.,-1.11022302462516E-16));
#510=DIRECTION('ref_axis',(-1.,0.,0.));
#511=DIRECTION('center_axis',(0.,1.,1.11022302462516E-16));
#512=DIRECTION('ref_axis',(1.,0.,0.));
#513=DIRECTION('center_axis',(0.,-1.11022302462516E-16,1.));
#514=DIRECTION('ref_axis',(1.,0.,0.));
#515=DIRECTION('center_axis',(0.,-1.,-1.11022302462516E-16));
#516=DIRECTION('ref_axis',(1.,0.,0.));
#517=DIRECTION('center_axis',(0.762340776134226,-7.63278329429795E-17,0.647175819266345));
#518=DIRECTION('ref_axis',(0.647175819266346,8.32667268468867E-17,-0.762340776134226));
#519=DIRECTION('',(-0.647175819266345,-9.71445146547012E-17,0.762340776134227));
#520=DIRECTION('',(0.,-1.,-1.11022302462516E-16));
#521=DIRECTION('',(0.647175819266345,9.71445146547012E-17,-0.762340776134227));
#522=DIRECTION('',(0.,1.,1.11022302462516E-16));
#523=DIRECTION('',(0.050941086430312,-0.705417046719032,0.706959543334339));
#524=DIRECTION('',(-0.0509410864303125,-0.705417046719038,-0.706959543334334));
#525=DIRECTION('center_axis',(0.,1.,1.11022302462516E-16));
#526=DIRECTION('ref_axis',(-0.133886859783448,1.06899615094012E-16,-0.990996623998956));
#527=DIRECTION('',(0.705417759865074,-0.707106781186551,0.0488444886034742));
#528=DIRECTION('center_axis',(0.,-1.,-1.11022302462516E-16));
#529=DIRECTION('ref_axis',(-0.133886859783448,1.25683933593772E-16,-0.990996623998955));
#530=DIRECTION('',(-0.154856156488866,0.707106781186552,-0.689941715507542));
#531=DIRECTION('center_axis',(0.,1.,1.11022302462516E-16));
#532=DIRECTION('ref_axis',(-0.133886859783448,1.18849082156191E-16,-0.990996623998956));
#533=DIRECTION('',(-0.765167168825025,0.643747276233149,-0.0104234396768858));
#534=DIRECTION('',(0.886817051833311,-1.09943427764603E-8,-0.46212067317712));
#535=DIRECTION('center_axis',(0.462120673177125,-8.32667268468867E-17,0.886817051833309));
#536=DIRECTION('ref_axis',(0.886817051833309,4.85722573273506E-17,-0.462120673177125));
#537=DIRECTION('',(0.,-1.,-1.11022302462516E-16));
#538=DIRECTION('',(0.886817051833309,4.85722573273506E-17,-0.462120673177125));
#539=DIRECTION('',(0.,1.,1.11022302462516E-16));
#540=DIRECTION('',(0.765167168825024,0.64374727623315,0.0104234396768859));
#541=DIRECTION('center_axis',(0.,-1.,-1.11022302462516E-16));
#542=DIRECTION('ref_axis',(-0.133886859783448,1.06899615094012E-16,-0.990996623998956));
#543=DIRECTION('',(-0.705417759865074,-0.707106781186551,-0.0488444886034743));
#544=DIRECTION('center_axis',(0.,-1.,-1.11022302462516E-16));
#545=DIRECTION('ref_axis',(-0.133886859783448,1.18849082156191E-16,-0.990996623998956));
#546=DIRECTION('',(0.154856156488866,0.707106781186552,0.689941715507542));
#547=DIRECTION('center_axis',(0.,1.,1.11022302462516E-16));
#548=DIRECTION('ref_axis',(-0.133886859783448,1.25683933593772E-16,-0.990996623998955));
#549=DIRECTION('center_axis',(0.,1.,1.11022302462516E-16));
#550=DIRECTION('ref_axis',(1.,0.,0.));
#551=DIRECTION('',(-2.50332382158063E-8,-1.11022302462516E-16,1.));
#552=DIRECTION('center_axis',(0.,-1.,-1.11022302462516E-16));
#553=DIRECTION('ref_axis',(-0.000223780424157784,1.12223799259301E-16,-0.999999974961161));
#554=DIRECTION('',(-0.000223780424334494,1.11022302462516E-16,-0.999999974961161));
#555=DIRECTION('center_axis',(0.,-1.,-1.11022302462516E-16));
#556=DIRECTION('ref_axis',(-0.894347117236163,-4.95697509815224E-17,0.447373707197198));
#557=DIRECTION('center_axis',(2.50332382158063E-8,1.11022302462516E-16,
-1.));
#558=DIRECTION('ref_axis',(0.707106781186548,0.707106781186547,1.77011636527823E-8));
#559=DIRECTION('',(2.50332382158063E-8,1.11022302462516E-16,-1.));
#560=DIRECTION('center_axis',(-2.5033225592935E-8,-1.11022302462516E-16,
1.));
#561=DIRECTION('ref_axis',(1.,-2.75052076423516E-24,2.5033225592935E-8));
#562=DIRECTION('center_axis',(1.,-2.8951321439356E-24,2.50332382158063E-8));
#563=DIRECTION('ref_axis',(2.50332382158063E-8,1.11022302462516E-16,-1.));
#564=DIRECTION('',(-2.50332382158063E-8,-1.11022302462516E-16,1.));
#565=DIRECTION('',(0.,1.,1.11022302462516E-16));
#566=DIRECTION('center_axis',(-2.50332382158063E-8,-1.11022302462516E-16,
1.));
#567=DIRECTION('ref_axis',(0.707106781186548,-0.707106781186547,1.77011634912711E-8));
#568=DIRECTION('',(2.50332382158063E-8,1.11022302462516E-16,-1.));
#569=DIRECTION('center_axis',(-2.50332492197285E-8,1.11022302462516E-16,
-1.));
#570=DIRECTION('ref_axis',(1.,2.75052076423516E-24,-2.50332492197285E-8));
#571=DIRECTION('center_axis',(0.,1.,1.11022302462516E-16));
#572=DIRECTION('ref_axis',(1.,0.,0.));
#573=DIRECTION('center_axis',(0.,1.,1.11022302462516E-16));
#574=DIRECTION('ref_axis',(-0.894347117236163,-4.95697509815224E-17,0.447373707197198));
#575=DIRECTION('',(0.000223780424334494,-1.11022302462516E-16,0.999999974961161));
#576=DIRECTION('center_axis',(0.,1.,1.11022302462516E-16));
#577=DIRECTION('ref_axis',(-0.000223780424157784,1.12223799259301E-16,-0.999999974961161));
#578=DIRECTION('center_axis',(0.,1.,1.11022302462516E-16));
#579=DIRECTION('ref_axis',(-0.133886859783448,1.0997344189455E-16,-0.990996623998955));
#580=DIRECTION('center_axis',(0.,1.,1.11022302462516E-16));
#581=DIRECTION('ref_axis',(0.,-8.74034862569887E-17,1.));
#582=DIRECTION('center_axis',(0.,-1.,-1.11022302462516E-16));
#583=DIRECTION('ref_axis',(-0.894347117236163,-4.91644610195562E-17,0.447373707197198));
#584=DIRECTION('center_axis',(0.000223780424341636,-1.11022302462516E-16,
0.999999974961161));
#585=DIRECTION('ref_axis',(-0.99999997496116,-1.97157328380377E-20,0.000223780424341636));
#586=DIRECTION('center_axis',(-0.000223780424334494,1.11022302462516E-16,
-0.999999974961161));
#587=DIRECTION('ref_axis',(-0.707106763481414,-0.707106781186548,0.000158236655540336));
#588=DIRECTION('center_axis',(0.000223780424329822,-1.11022302462516E-16,
0.999999974961161));
#589=DIRECTION('ref_axis',(-0.999999974961161,-2.53487993631913E-20,0.000223780424329822));
#590=DIRECTION('',(-0.000223780424334494,1.11022302462516E-16,-0.999999974961161));
#591=DIRECTION('center_axis',(0.,1.,1.11022302462516E-16));
#592=DIRECTION('ref_axis',(-0.000243214576823741,1.0927391701109E-16,-0.999999970423334));
#593=DIRECTION('center_axis',(0.,-1.,-1.11022302462516E-16));
#594=DIRECTION('ref_axis',(-0.000223780424157784,9.56146773847043E-17,-0.999999974961161));
#595=DIRECTION('center_axis',(0.,1.,1.11022302462516E-16));
#596=DIRECTION('ref_axis',(-0.000223780424334371,1.09273917011091E-16,-0.999999974961161));
#597=DIRECTION('center_axis',(-0.000447535804234947,1.11022302462516E-16,
-0.999999899855847));
#598=DIRECTION('ref_axis',(-0.999999899855847,-5.0697598726382E-20,0.000447535804234947));
#599=DIRECTION('center_axis',(0.,1.,1.11022302462516E-16));
#600=DIRECTION('ref_axis',(-0.000223780424157784,9.56146773847043E-17,-0.999999974961161));
#601=DIRECTION('center_axis',(0.000223780424334494,-1.11022302462516E-16,
0.999999974961161));
#602=DIRECTION('ref_axis',(-0.707106763481414,0.707106781186548,0.000158236655540497));
#603=DIRECTION('center_axis',(-0.000223780424329822,1.11022302462516E-16,
-0.999999974961161));
#604=DIRECTION('ref_axis',(-0.99999997496116,-2.53487993631912E-20,0.000223780424329822));
#605=DIRECTION('',(0.000223780424334494,-1.11022302462516E-16,0.999999974961161));
#606=DIRECTION('center_axis',(0.,1.,1.11022302462516E-16));
#607=DIRECTION('ref_axis',(0.,-8.74034862569887E-17,1.));
#608=DIRECTION('center_axis',(0.,1.,1.11022302462516E-16));
#609=DIRECTION('ref_axis',(-0.894347117236163,-4.91644610195562E-17,0.447373707197198));
#610=DIRECTION('center_axis',(0.,1.,1.11022302462516E-16));
#611=DIRECTION('ref_axis',(-0.999999974961161,-2.40060844822052E-20,0.000223780424333441));
#612=DIRECTION('',(0.,1.,1.11022302462516E-16));
#613=DIRECTION('center_axis',(-0.999999974961161,-2.71050543121376E-20,
0.000223780424334494));
#614=DIRECTION('ref_axis',(0.000223780424334494,-1.11022302462516E-16,0.999999974961161));
#615=DIRECTION('',(0.,1.,1.11022302462516E-16));
#616=DIRECTION('center_axis',(0.,1.,1.11022302462516E-16));
#617=DIRECTION('ref_axis',(-0.000223780424334444,1.11022300160015E-16,-0.999999974961161));
#618=CARTESIAN_POINT('',(0.,0.,0.));
#619=CARTESIAN_POINT('Origin',(-0.31747019469052,0.0607360584793009,-2.7879379209549));
#620=CARTESIAN_POINT('',(-0.22590319469052,0.0797860584793008,-2.7879379209549));
#621=CARTESIAN_POINT('Origin',(-0.31747019469052,0.0797860584793008,-2.7879379209549));
#622=CARTESIAN_POINT('',(-0.22590319469052,0.0416860584793008,-2.7879379209549));
#623=CARTESIAN_POINT('Origin',(-0.202109752316622,0.0607360584793009,-2.7879379209549));
#624=CARTESIAN_POINT('Origin',(-0.31747019469052,0.0416860584793008,-2.7879379209549));
#625=CARTESIAN_POINT('Origin',(-0.196736008045284,0.0416860584793007,-1.33275714804851));
#626=CARTESIAN_POINT('',(-0.190470227754421,0.0609900584793007,-1.34013792413412));
#627=CARTESIAN_POINT('',(-0.203001788336148,0.0609900584793007,-1.32537637196291));
#628=CARTESIAN_POINT('',(-0.190470227754421,0.0609900584793007,-1.34013792413412));
#629=CARTESIAN_POINT('',(-0.203001788336148,0.0604820584793007,-1.32537637196291));
#630=CARTESIAN_POINT('',(-0.203001788336148,0.0416860584793007,-1.32537637196291));
#631=CARTESIAN_POINT('',(-0.190470227754421,0.0604820584793007,-1.34013792413412));
#632=CARTESIAN_POINT('',(-0.203001788336148,0.0604820584793007,-1.32537637196291));
#633=CARTESIAN_POINT('',(-0.190470227754421,0.0416860584793007,-1.34013792413412));
#634=CARTESIAN_POINT('Ctrl Pts',(-0.2092662278314,0.0797860584793007,-1.33706221103422));
#635=CARTESIAN_POINT('Ctrl Pts',(-0.206561110675361,0.0797860584792984,
-1.3376295955227));
#636=CARTESIAN_POINT('Ctrl Pts',(-0.201461255224452,0.0785912439141145,
-1.3385677036733));
#637=CARTESIAN_POINT('Ctrl Pts',(-0.195812428737152,0.0745933015053032,
-1.33943378760218));
#638=CARTESIAN_POINT('Ctrl Pts',(-0.191588728710957,0.0687614811528981,
-1.34000486823153));
#639=CARTESIAN_POINT('Ctrl Pts',(-0.19047022775442,0.0636870619243554,-1.34013792413412));
#640=CARTESIAN_POINT('Ctrl Pts',(-0.190470227754421,0.0609900584792955,
-1.34013792413412));
#641=CARTESIAN_POINT('Ctrl Pts',(-0.208958978216112,0.0755313569915529,
-1.332798206025));
#642=CARTESIAN_POINT('Ctrl Pts',(-0.20686478766349,0.0754905674440226,-1.33324042251641));
#643=CARTESIAN_POINT('Ctrl Pts',(-0.202962147625156,0.0745048219267462,
-1.33397273255111));
#644=CARTESIAN_POINT('Ctrl Pts',(-0.198682354031444,0.0714003114347138,
-1.33465478118939));
#645=CARTESIAN_POINT('Ctrl Pts',(-0.195491694290075,0.0669263883850019,
-1.33510971205003));
#646=CARTESIAN_POINT('Ctrl Pts',(-0.194647414614996,0.0630504143239201,
-1.33521740674372));
#647=CARTESIAN_POINT('Ctrl Pts',(-0.194647414614997,0.0609900584792973,
-1.33521740674372));
#648=CARTESIAN_POINT('Ctrl Pts',(-0.208651728600823,0.071276655503805,-1.32853420101578));
#649=CARTESIAN_POINT('Ctrl Pts',(-0.207168464651619,0.0711950764087467,
-1.32885124951012));
#650=CARTESIAN_POINT('Ctrl Pts',(-0.204463040025859,0.0704183999393778,
-1.32937776142892));
#651=CARTESIAN_POINT('Ctrl Pts',(-0.201552279325737,0.0682073213641244,
-1.32987577477661));
#652=CARTESIAN_POINT('Ctrl Pts',(-0.199394659869194,0.0650912956171057,
-1.33021455586853));
#653=CARTESIAN_POINT('Ctrl Pts',(-0.198824601475572,0.0624137667234849,
-1.33029688935331));
#654=CARTESIAN_POINT('Ctrl Pts',(-0.198824601475572,0.060990058479299,-1.33029688935331));
#655=CARTESIAN_POINT('Ctrl Pts',(-0.208344478985535,0.0670219540160572,
-1.32427019600655));
#656=CARTESIAN_POINT('Ctrl Pts',(-0.207472141639747,0.0668995853734709,
-1.32446207650383));
#657=CARTESIAN_POINT('Ctrl Pts',(-0.205963932426563,0.0663319779520094,
-1.32478279030673));
#658=CARTESIAN_POINT('Ctrl Pts',(-0.204422204620029,0.065014331293535,-1.32509676836383));
#659=CARTESIAN_POINT('Ctrl Pts',(-0.203297625448312,0.0632562028492095,
-1.32531939968704));
#660=CARTESIAN_POINT('Ctrl Pts',(-0.203001788336148,0.0617771191230497,
-1.32537637196291));
#661=CARTESIAN_POINT('Ctrl Pts',(-0.203001788336148,0.0609900584793007,
-1.32537637196291));
#662=CARTESIAN_POINT('',(-0.209266227831401,0.0797860584793007,-1.33706221103423));
#663=CARTESIAN_POINT('',(-0.208344478985535,0.0670219540160572,-1.32427019600655));
#664=CARTESIAN_POINT('',(-0.209266227831401,0.0797860584793007,-1.33706221103423));
#665=CARTESIAN_POINT('Ctrl Pts',(-0.208344478985535,0.0670219540160572,
-1.32427019600655));
#666=CARTESIAN_POINT('Ctrl Pts',(-0.207472141639747,0.0668995853734709,
-1.32446207650383));
#667=CARTESIAN_POINT('Ctrl Pts',(-0.205963932426563,0.0663319779520094,
-1.32478279030673));
#668=CARTESIAN_POINT('Ctrl Pts',(-0.204422204620029,0.065014331293535,-1.32509676836383));
#669=CARTESIAN_POINT('Ctrl Pts',(-0.203297625448312,0.0632562028492095,
-1.32531939968704));
#670=CARTESIAN_POINT('Ctrl Pts',(-0.203001788336148,0.0617771191230497,
-1.32537637196291));
#671=CARTESIAN_POINT('Ctrl Pts',(-0.203001788336148,0.0609900584793007,
-1.32537637196291));
#672=CARTESIAN_POINT('Ctrl Pts',(-0.190470227754421,0.0609900584792955,
-1.34013792413412));
#673=CARTESIAN_POINT('Ctrl Pts',(-0.19047022775442,0.0636870619243554,-1.34013792413412));
#674=CARTESIAN_POINT('Ctrl Pts',(-0.191588728710957,0.0687614811528981,
-1.34000486823153));
#675=CARTESIAN_POINT('Ctrl Pts',(-0.195812428737152,0.0745933015053032,
-1.33943378760218));
#676=CARTESIAN_POINT('Ctrl Pts',(-0.201461255224452,0.0785912439141145,
-1.3385677036733));
#677=CARTESIAN_POINT('Ctrl Pts',(-0.206561110675361,0.0797860584792984,
-1.3376295955227));
#678=CARTESIAN_POINT('Ctrl Pts',(-0.2092662278314,0.0797860584793007,-1.33706221103422));
#679=CARTESIAN_POINT('Ctrl Pts',(-0.190470227754421,0.0604820584793059,
-1.34013792413412));
#680=CARTESIAN_POINT('Ctrl Pts',(-0.19047022775442,0.0577850550342436,-1.34013792413412));
#681=CARTESIAN_POINT('Ctrl Pts',(-0.191588728653525,0.0527106351982396,
-1.34000486825427));
#682=CARTESIAN_POINT('Ctrl Pts',(-0.195812428812831,0.0468788149111679,
-1.33943378760912));
#683=CARTESIAN_POINT('Ctrl Pts',(-0.201461255481883,0.0428808720265349,
-1.33856770367577));
#684=CARTESIAN_POINT('Ctrl Pts',(-0.206561110675362,0.0416860584793029,
-1.3376295955227));
#685=CARTESIAN_POINT('Ctrl Pts',(-0.2092662278314,0.0416860584793007,-1.33706221103422));
#686=CARTESIAN_POINT('Ctrl Pts',(-0.194647414614997,0.0604820584793042,
-1.33521740674372));
#687=CARTESIAN_POINT('Ctrl Pts',(-0.194647414614996,0.0584217026346794,
-1.33521740674372));
#688=CARTESIAN_POINT('Ctrl Pts',(-0.195491694231016,0.05454572811447,-1.33510971206974));
#689=CARTESIAN_POINT('Ctrl Pts',(-0.198682354076292,0.0500718051138163,
-1.33465478119563));
#690=CARTESIAN_POINT('Ctrl Pts',(-0.202962147798454,0.0469672942619491,
-1.33397273255352));
#691=CARTESIAN_POINT('Ctrl Pts',(-0.206864787663491,0.0459815495145788,
-1.33324042251641));
#692=CARTESIAN_POINT('Ctrl Pts',(-0.208958978216112,0.0459407599670485,
-1.332798206025));
#693=CARTESIAN_POINT('Ctrl Pts',(-0.198824601475572,0.0604820584793024,
-1.33029688935331));
#694=CARTESIAN_POINT('Ctrl Pts',(-0.198824601475572,0.0590583502351152,
-1.33029688935331));
#695=CARTESIAN_POINT('Ctrl Pts',(-0.199394659808506,0.0563808210307004,
-1.3302145558852));
#696=CARTESIAN_POINT('Ctrl Pts',(-0.201552279339753,0.0532647953164646,
-1.32987577478215));
#697=CARTESIAN_POINT('Ctrl Pts',(-0.204463040115024,0.0510537164973633,
-1.32937776143126));
#698=CARTESIAN_POINT('Ctrl Pts',(-0.207168464651619,0.0502770405498546,
-1.32885124951012));
#699=CARTESIAN_POINT('Ctrl Pts',(-0.208651728600823,0.0501954614547964,
-1.32853420101578));
#700=CARTESIAN_POINT('Ctrl Pts',(-0.203001788336148,0.0604820584793007,
-1.32537637196291));
#701=CARTESIAN_POINT('Ctrl Pts',(-0.203001788336148,0.059694997835551,-1.32537637196291));
#702=CARTESIAN_POINT('Ctrl Pts',(-0.203297625385996,0.0582159139469308,
-1.32531939970067));
#703=CARTESIAN_POINT('Ctrl Pts',(-0.204422204603214,0.056457785519113,-1.32509676836866));
#704=CARTESIAN_POINT('Ctrl Pts',(-0.205963932431595,0.0551401387327775,
-1.32478279030901));
#705=CARTESIAN_POINT('Ctrl Pts',(-0.207472141639748,0.0545725315851305,
-1.32446207650383));
#706=CARTESIAN_POINT('Ctrl Pts',(-0.208344478985535,0.0544501629425442,
-1.32427019600655));
#707=CARTESIAN_POINT('',(-0.208344478985535,0.0544501629425442,-1.32427019600655));
#708=CARTESIAN_POINT('',(-0.209266227831401,0.0416860584793007,-1.33706221103423));
#709=CARTESIAN_POINT('',(-0.208344478985535,0.0544501629425442,-1.32427019600655));
#710=CARTESIAN_POINT('Ctrl Pts',(-0.2092662278314,0.0416860584793007,-1.33706221103422));
#711=CARTESIAN_POINT('Ctrl Pts',(-0.206561110675362,0.0416860584793029,
-1.3376295955227));
#712=CARTESIAN_POINT('Ctrl Pts',(-0.201461255481883,0.0428808720265349,
-1.33856770367577));
#713=CARTESIAN_POINT('Ctrl Pts',(-0.195812428812831,0.0468788149111679,
-1.33943378760912));
#714=CARTESIAN_POINT('Ctrl Pts',(-0.191588728653525,0.0527106351982396,
-1.34000486825427));
#715=CARTESIAN_POINT('Ctrl Pts',(-0.19047022775442,0.0577850550342436,-1.34013792413412));
#716=CARTESIAN_POINT('Ctrl Pts',(-0.190470227754421,0.0604820584793059,
-1.34013792413412));
#717=CARTESIAN_POINT('Ctrl Pts',(-0.203001788336148,0.0604820584793007,
-1.32537637196291));
#718=CARTESIAN_POINT('Ctrl Pts',(-0.203001788336148,0.059694997835551,-1.32537637196291));
#719=CARTESIAN_POINT('Ctrl Pts',(-0.203297625385996,0.0582159139469308,
-1.32531939970067));
#720=CARTESIAN_POINT('Ctrl Pts',(-0.204422204603214,0.056457785519113,-1.32509676836866));
#721=CARTESIAN_POINT('Ctrl Pts',(-0.205963932431595,0.0551401387327775,
-1.32478279030901));
#722=CARTESIAN_POINT('Ctrl Pts',(-0.207472141639748,0.0545725315851305,
-1.32446207650383));
#723=CARTESIAN_POINT('Ctrl Pts',(-0.208344478985535,0.0544501629425442,
-1.32427019600655));
#724=CARTESIAN_POINT('Origin',(-0.160903148538776,0.0734360584793006,-1.10858989045355));
#725=CARTESIAN_POINT('',(-0.393881621088147,0.0797860584793006,-1.12472177002158));
#726=CARTESIAN_POINT('',(-0.381211956776269,0.0670860584793007,-1.12384449798606));
#727=CARTESIAN_POINT('',(-0.393881621088147,0.0797860584793006,-1.12472177002158));
#728=CARTESIAN_POINT('',(-0.209266228156769,0.0670860584793007,-1.32406537993637));
#729=CARTESIAN_POINT('Origin',(-0.160903148538776,0.0670860584793006,-1.10858989045355));
#730=CARTESIAN_POINT('',(-0.212047524051157,0.0797860584793007,-1.3364570865641));
#731=CARTESIAN_POINT('',(-0.209266228156769,0.0670860584793007,-1.32406537993637));
#732=CARTESIAN_POINT('Origin',(-0.160903148538776,0.0797860584793006,-1.10858989045355));
#733=CARTESIAN_POINT('Ctrl Pts',(-0.208344478985535,0.0670219540160572,
-1.32427019600655));
#734=CARTESIAN_POINT('Ctrl Pts',(-0.208652730568203,0.0670651945444244,
-1.32420239257334));
#735=CARTESIAN_POINT('Ctrl Pts',(-0.208962257829314,0.0670860584793007,
-1.32413360552056));
#736=CARTESIAN_POINT('Ctrl Pts',(-0.209266228156767,0.0670860584793007,
-1.32406537993637));
#737=CARTESIAN_POINT('Ctrl Pts',(-0.208651728600823,0.071276655503805,-1.32853420101578));
#738=CARTESIAN_POINT('Ctrl Pts',(-0.209175858929607,0.0713054825227165,
-1.3284221678664));
#739=CARTESIAN_POINT('Ctrl Pts',(-0.209690311774238,0.0713193918126341,
-1.32830884961241));
#740=CARTESIAN_POINT('Ctrl Pts',(-0.210193326788231,0.071319391812634,-1.32819594881228));
#741=CARTESIAN_POINT('Ctrl Pts',(-0.208958978216112,0.0755313569915529,
-1.332798206025));
#742=CARTESIAN_POINT('Ctrl Pts',(-0.209698987291011,0.0755457705010086,
-1.33264194315947));
#743=CARTESIAN_POINT('Ctrl Pts',(-0.210418365719162,0.0755527251459674,
-1.33248409370426));
#744=CARTESIAN_POINT('Ctrl Pts',(-0.211120425419694,0.0755527251459674,
-1.33232651768819));
#745=CARTESIAN_POINT('Ctrl Pts',(-0.2092662278314,0.0797860584793007,-1.33706221103422));
#746=CARTESIAN_POINT('Ctrl Pts',(-0.210222115652414,0.0797860584793007,
-1.33686171845254));
#747=CARTESIAN_POINT('Ctrl Pts',(-0.211146419664087,0.0797860584793007,
-1.33665933779611));
#748=CARTESIAN_POINT('Ctrl Pts',(-0.212047524051158,0.0797860584793007,
-1.3364570865641));
#749=CARTESIAN_POINT('Ctrl Pts',(-0.209266228156767,0.0670860584793007,
-1.32406537993637));
#750=CARTESIAN_POINT('Ctrl Pts',(-0.208962257829314,0.0670860584793007,
-1.32413360552056));
#751=CARTESIAN_POINT('Ctrl Pts',(-0.208652730568203,0.0670651945444244,
-1.32420239257334));
#752=CARTESIAN_POINT('Ctrl Pts',(-0.208344478985535,0.0670219540160572,
-1.32427019600655));
#753=CARTESIAN_POINT('Ctrl Pts',(-0.2092662278314,0.0797860584793007,-1.33706221103422));
#754=CARTESIAN_POINT('Ctrl Pts',(-0.210222115652414,0.0797860584793007,
-1.33686171845254));
#755=CARTESIAN_POINT('Ctrl Pts',(-0.211146419664087,0.0797860584793007,
-1.33665933779611));
#756=CARTESIAN_POINT('Ctrl Pts',(-0.212047524051158,0.0797860584793007,
-1.3364570865641));
#757=CARTESIAN_POINT('Ctrl Pts',(-0.39043755852545,0.0609900584793006,-1.09410003539817));
#758=CARTESIAN_POINT('Ctrl Pts',(-0.39043755852545,0.0615315002549575,-1.09410003539817));
#759=CARTESIAN_POINT('Ctrl Pts',(-0.390500669391867,0.0626325475578141,
-1.09421106614952));
#760=CARTESIAN_POINT('Ctrl Pts',(-0.39091812981581,0.0651494038943122,-1.09504611697733));
#761=CARTESIAN_POINT('Ctrl Pts',(-0.392429651648142,0.0707623524594396,
-1.09865418186435));
#762=CARTESIAN_POINT('Ctrl Pts',(-0.393954778219684,0.0755543792086273,
-1.10575104873917));
#763=CARTESIAN_POINT('Ctrl Pts',(-0.394230353723797,0.0776120865930035,
-1.11176837503485));
#764=CARTESIAN_POINT('Ctrl Pts',(-0.387465036040495,0.0609900584793006,
-1.09564901789568));
#765=CARTESIAN_POINT('Ctrl Pts',(-0.387465036040495,0.0613927217861532,
-1.09564901789568));
#766=CARTESIAN_POINT('Ctrl Pts',(-0.387507506954376,0.0622131198538247,
-1.09573087156956));
#767=CARTESIAN_POINT('Ctrl Pts',(-0.387792299444872,0.064251904803683,-1.09645438602603));
#768=CARTESIAN_POINT('Ctrl Pts',(-0.388842495948046,0.068983251200114,-1.09983437488136));
#769=CARTESIAN_POINT('Ctrl Pts',(-0.389893623242766,0.0727316056321851,
-1.10641912778527));
#770=CARTESIAN_POINT('Ctrl Pts',(-0.39005989147974,0.0741034105551026,-1.11171156318589));
#771=CARTESIAN_POINT('Ctrl Pts',(-0.384492513555539,0.0609900584793006,
-1.09719800039318));
#772=CARTESIAN_POINT('Ctrl Pts',(-0.384492513555539,0.0612539433173488,
-1.09719800039318));
#773=CARTESIAN_POINT('Ctrl Pts',(-0.384514344516885,0.0617936921498352,
-1.09725067698959));
#774=CARTESIAN_POINT('Ctrl Pts',(-0.384666469073933,0.0633544057130539,
-1.09786265507473));
#775=CARTESIAN_POINT('Ctrl Pts',(-0.38525534024795,0.0672041499407885,-1.10101456789837));
#776=CARTESIAN_POINT('Ctrl Pts',(-0.385832468265849,0.0699088320557429,
-1.10708720683137));
#777=CARTESIAN_POINT('Ctrl Pts',(-0.385889429235683,0.0705947345172016,
-1.11165475133692));
#778=CARTESIAN_POINT('Ctrl Pts',(-0.381519991070583,0.0609900584793007,
-1.09874698289069));
#779=CARTESIAN_POINT('Ctrl Pts',(-0.381519991070583,0.0611151648485444,
-1.09874698289069));
#780=CARTESIAN_POINT('Ctrl Pts',(-0.381521182079393,0.0613742644458458,
-1.09877048240963));
#781=CARTESIAN_POINT('Ctrl Pts',(-0.381540638702995,0.0624569066224247,
-1.09927092412344));
#782=CARTESIAN_POINT('Ctrl Pts',(-0.381668184547854,0.0654250486814629,
-1.10219476091538));
#783=CARTESIAN_POINT('Ctrl Pts',(-0.381771313288932,0.0670860584793007,
-1.10775528587747));
#784=CARTESIAN_POINT('Ctrl Pts',(-0.381718966991626,0.0670860584793006,
-1.11159793948796));
#785=CARTESIAN_POINT('',(-0.381718966991626,0.0670860584793006,-1.11159793948796));
#786=CARTESIAN_POINT('',(-0.394230353723797,0.0776120865930036,-1.11176837503485));
#787=CARTESIAN_POINT('',(-0.381718966991626,0.0670860584793006,-1.11159793948796));
#788=CARTESIAN_POINT('',(-0.39043755852545,0.0609900586230779,-1.09410003539817));
#789=CARTESIAN_POINT('Ctrl Pts',(-0.394230353723797,0.0776120865930035,
-1.11176837503485));
#790=CARTESIAN_POINT('Ctrl Pts',(-0.393954778219684,0.0755543792086273,
-1.10575104873917));
#791=CARTESIAN_POINT('Ctrl Pts',(-0.392429651648142,0.0707623524594396,
-1.09865418186435));
#792=CARTESIAN_POINT('Ctrl Pts',(-0.39091812981581,0.0651494038943122,-1.09504611697733));
#793=CARTESIAN_POINT('Ctrl Pts',(-0.390500669402425,0.0626325476214675,
-1.09421106617064));
#794=CARTESIAN_POINT('Ctrl Pts',(-0.390437558531037,0.06153150035242,-1.09410003540799));
#795=CARTESIAN_POINT('Ctrl Pts',(-0.39043755852545,0.0609900586230826,-1.09410003539817));
#796=CARTESIAN_POINT('',(-0.381519991070583,0.060990058512522,-1.09874698289069));
#797=CARTESIAN_POINT('',(-0.39043755852545,0.0609900586230779,-1.09410003539817));
#798=CARTESIAN_POINT('Ctrl Pts',(-0.381519991070583,0.060990058512522,-1.09874698289069));
#799=CARTESIAN_POINT('Ctrl Pts',(-0.381519991070689,0.0611151648714786,
-1.09874698289277));
#800=CARTESIAN_POINT('Ctrl Pts',(-0.381521182079885,0.0613742644732258,
-1.09877048242229));
#801=CARTESIAN_POINT('Ctrl Pts',(-0.381540638702995,0.0624569066224247,
-1.09927092412344));
#802=CARTESIAN_POINT('Ctrl Pts',(-0.381668184547854,0.0654250486814629,
-1.10219476091538));
#803=CARTESIAN_POINT('Ctrl Pts',(-0.381771313288932,0.0670860584793007,
-1.10775528587747));
#804=CARTESIAN_POINT('Ctrl Pts',(-0.381718966991626,0.0670860584793006,
-1.11159793948796));
#805=CARTESIAN_POINT('Origin',(-0.385978774798017,0.0416860584793007,-1.09642350914443));
#806=CARTESIAN_POINT('',(-0.39043755852545,0.0604820584793007,-1.09410003539817));
#807=CARTESIAN_POINT('',(-0.39043755852545,0.0416860584793007,-1.09410003539817));
#808=CARTESIAN_POINT('',(-0.381519991070583,0.0604820584793007,-1.09874698289069));
#809=CARTESIAN_POINT('',(-0.39043755852545,0.0604820584793007,-1.09410003539817));
#810=CARTESIAN_POINT('',(-0.381519991070583,0.0416860584793007,-1.09874698289069));
#811=CARTESIAN_POINT('Ctrl Pts',(-0.394230353723797,0.0438600303655977,
-1.11176837503485));
#812=CARTESIAN_POINT('Ctrl Pts',(-0.394107496343515,0.0447773997792677,
-1.10908572387772));
#813=CARTESIAN_POINT('Ctrl Pts',(-0.39349078867018,0.0474418759248461,-1.1033520039559));
#814=CARTESIAN_POINT('Ctrl Pts',(-0.391834039541249,0.0528122192551962,
-1.09702751212595));
#815=CARTESIAN_POINT('Ctrl Pts',(-0.390843625669758,0.056668132328094,-1.09489215027212));
#816=CARTESIAN_POINT('Ctrl Pts',(-0.390491875483424,0.0590587837986733,
-1.09418954257683));
#817=CARTESIAN_POINT('Ctrl Pts',(-0.39043755852545,0.0599075242010058,-1.09410003539817));
#818=CARTESIAN_POINT('Ctrl Pts',(-0.39043755852545,0.0604820584793007,-1.09410003539817));
#819=CARTESIAN_POINT('Ctrl Pts',(-0.39005989147974,0.0473687064034987,-1.11171156318589));
#820=CARTESIAN_POINT('Ctrl Pts',(-0.389986603736437,0.0479813076706507,
-1.10934922826707));
#821=CARTESIAN_POINT('Ctrl Pts',(-0.389576864084543,0.0499071861582747,
-1.10420485243926));
#822=CARTESIAN_POINT('Ctrl Pts',(-0.388428650104143,0.0542472943923551,
-1.09830856092665));
#823=CARTESIAN_POINT('Ctrl Pts',(-0.387741844732292,0.0575094456141045,
-1.0963155878));
#824=CARTESIAN_POINT('Ctrl Pts',(-0.387501689146537,0.0594193958752437,
-1.09571771675455));
#825=CARTESIAN_POINT('Ctrl Pts',(-0.387465029413247,0.0600550659028031,
-1.09564738341854));
#826=CARTESIAN_POINT('Ctrl Pts',(-0.387465036040495,0.0604820584793007,
-1.09564901789568));
#827=CARTESIAN_POINT('Ctrl Pts',(-0.385889429235683,0.0508773824413997,
-1.11165475133692));
#828=CARTESIAN_POINT('Ctrl Pts',(-0.385863196683672,0.0511821505879176,
-1.10962129895673));
#829=CARTESIAN_POINT('Ctrl Pts',(-0.385662713220397,0.0523740381731254,
-1.10506092714576));
#830=CARTESIAN_POINT('Ctrl Pts',(-0.38502165376725,0.0556822977431869,-1.0995907994894));
#831=CARTESIAN_POINT('Ctrl Pts',(-0.384639556461811,0.0583511315772443,
-1.09774519187006));
#832=CARTESIAN_POINT('Ctrl Pts',(-0.384511671681655,0.0597802596909369,
-1.09724297027942));
#833=CARTESIAN_POINT('Ctrl Pts',(-0.384492520182787,0.0602017640037146,
-1.09719963487032));
#834=CARTESIAN_POINT('Ctrl Pts',(-0.384492513555539,0.0604820584793007,
-1.09719800039318));
#835=CARTESIAN_POINT('Ctrl Pts',(-0.381718966991626,0.0543860584793007,
-1.11159793948796));
#836=CARTESIAN_POINT('Ctrl Pts',(-0.381742304076593,0.0543860584793007,
-1.10988480334608));
#837=CARTESIAN_POINT('Ctrl Pts',(-0.38174878863476,0.0548393484065539,-1.10591377562911));
#838=CARTESIAN_POINT('Ctrl Pts',(-0.381616264330144,0.0571173728803458,
-1.1008718482901));
#839=CARTESIAN_POINT('Ctrl Pts',(-0.381537775524345,0.0591924448632549,
-1.09916862939793));
#840=CARTESIAN_POINT('Ctrl Pts',(-0.381521485344769,0.0601408717675073,
-1.09877114445714));
#841=CARTESIAN_POINT('Ctrl Pts',(-0.381519991070583,0.0603493057055119,
-1.09874698289069));
#842=CARTESIAN_POINT('Ctrl Pts',(-0.381519991070583,0.0604820584793007,
-1.09874698289069));
#843=CARTESIAN_POINT('',(-0.394230353723797,0.0438600303655977,-1.11176837503485));
#844=CARTESIAN_POINT('Ctrl Pts',(-0.39043755852545,0.0604820584793006,-1.09410003539817));
#845=CARTESIAN_POINT('Ctrl Pts',(-0.39043755852545,0.0604781302134697,-1.09410003539817));
#846=CARTESIAN_POINT('Ctrl Pts',(-0.390437560105886,0.0604742017391123,
-1.09410003824629));
#847=CARTESIAN_POINT('Ctrl Pts',(-0.390437563273178,0.0604702730141054,
-1.0941000439548));
#848=CARTESIAN_POINT('Ctrl Pts',(-0.390438023572461,0.0598993154808973,
-1.09410087356712));
#849=CARTESIAN_POINT('Ctrl Pts',(-0.390473098988901,0.0593381489099434,
-1.09416115580338));
#850=CARTESIAN_POINT('Ctrl Pts',(-0.390551799598643,0.0586978742816276,
-1.09431394966484));
#851=CARTESIAN_POINT('Ctrl Pts',(-0.390565999097173,0.0585823532116656,
-1.09434151738278));
#852=CARTESIAN_POINT('Ctrl Pts',(-0.390581624209655,0.0584642462545011,
-1.09437210760158));
#853=CARTESIAN_POINT('Ctrl Pts',(-0.390598755108297,0.0583436151148639,
-1.09440591165722));
#854=CARTESIAN_POINT('Ctrl Pts',(-0.390629314094267,0.0581284270280759,
-1.09446621308586));
#855=CARTESIAN_POINT('Ctrl Pts',(-0.390664282752666,0.0579054932156185,
-1.09453685518229));
#856=CARTESIAN_POINT('Ctrl Pts',(-0.390704029459279,0.0576754818045997,
-1.09461879736728));
#857=CARTESIAN_POINT('Ctrl Pts',(-0.390845462150251,0.0568570207146976,
-1.09491037633606));
#858=CARTESIAN_POINT('Ctrl Pts',(-0.391047472114331,0.0559488876178902,
-1.09534565892051));
#859=CARTESIAN_POINT('Ctrl Pts',(-0.391290366051269,0.05498593711509,-1.09596145890231));
#860=CARTESIAN_POINT('Ctrl Pts',(-0.391474908589161,0.0542543201307764,
-1.09642932274818));
#861=CARTESIAN_POINT('Ctrl Pts',(-0.3916851804538,0.0534863661839071,-1.09700321158707));
#862=CARTESIAN_POINT('Ctrl Pts',(-0.391911321024867,0.0526943371173338,
-1.09770428207947));
#863=CARTESIAN_POINT('Ctrl Pts',(-0.392194336964243,0.0517031091867089,
-1.09858167494638));
#864=CARTESIAN_POINT('Ctrl Pts',(-0.392502330748961,0.0506739464394547,
-1.09965838195179));
#865=CARTESIAN_POINT('Ctrl Pts',(-0.392796575050795,0.0496661743356304,
-1.10092058333741));
#866=CARTESIAN_POINT('Ctrl Pts',(-0.393045241344826,0.0488145046423697,
-1.10198727159246));
#867=CARTESIAN_POINT('Ctrl Pts',(-0.39328550252933,0.0479817516877225,-1.10317909272417));
#868=CARTESIAN_POINT('Ctrl Pts',(-0.393496007086186,0.0472012000481964,
-1.1044854672991));
#869=CARTESIAN_POINT('Ctrl Pts',(-0.393841603419348,0.0459197276254942,
-1.10663021071736));
#870=CARTESIAN_POINT('Ctrl Pts',(-0.394107389672985,0.0447781962823477,
-1.10908339467437));
#871=CARTESIAN_POINT('Ctrl Pts',(-0.394230353723797,0.0438600303655977,
-1.11176837503485));
#872=CARTESIAN_POINT('',(-0.381718966991626,0.0543860584793007,-1.11159793948796));
#873=CARTESIAN_POINT('',(-0.394230353723797,0.0438600303655977,-1.11176837503485));
#874=CARTESIAN_POINT('Ctrl Pts',(-0.381718966991626,0.0543860584793007,
-1.11159793948796));
#875=CARTESIAN_POINT('Ctrl Pts',(-0.381742304076593,0.0543860584793007,
-1.10988480334608));
#876=CARTESIAN_POINT('Ctrl Pts',(-0.38174878863476,0.0548393484065539,-1.10591377562911));
#877=CARTESIAN_POINT('Ctrl Pts',(-0.381616264330144,0.0571173728803458,
-1.1008718482901));
#878=CARTESIAN_POINT('Ctrl Pts',(-0.381537775524345,0.0591924448632549,
-1.09916862939793));
#879=CARTESIAN_POINT('Ctrl Pts',(-0.381521485344769,0.0601408717675073,
-1.09877114445714));
#880=CARTESIAN_POINT('Ctrl Pts',(-0.381519991070583,0.0603493057055119,
-1.09874698289069));
#881=CARTESIAN_POINT('Ctrl Pts',(-0.381519991070583,0.0604820584793007,
-1.09874698289069));
#882=CARTESIAN_POINT('Ctrl Pts',(-0.381211956776269,0.0670860584793006,
-1.12384449798606));
#883=CARTESIAN_POINT('Ctrl Pts',(-0.38149421785628,0.0670860584793006,-1.11976805078698));
#884=CARTESIAN_POINT('Ctrl Pts',(-0.381663308059243,0.0670860584793006,
-1.1156837680658));
#885=CARTESIAN_POINT('Ctrl Pts',(-0.381718966991626,0.0670860584793006,
-1.11159793948796));
#886=CARTESIAN_POINT('Ctrl Pts',(-0.385435178213562,0.071319391812634,-1.1241369219979));
#887=CARTESIAN_POINT('Ctrl Pts',(-0.385722850112384,0.071319391812634,-1.11998233112705));
#888=CARTESIAN_POINT('Ctrl Pts',(-0.385918283599286,0.0710872566480864,
-1.11581891296248));
#889=CARTESIAN_POINT('Ctrl Pts',(-0.385889429235683,0.0705947345172016,
-1.11165475133692));
#890=CARTESIAN_POINT('Ctrl Pts',(-0.389658399650854,0.0755527251459673,
-1.12442934600974));
#891=CARTESIAN_POINT('Ctrl Pts',(-0.389951482368489,0.0755527251459673,
-1.12019661146712));
#892=CARTESIAN_POINT('Ctrl Pts',(-0.390173259139329,0.0750884548168721,
-1.11595405785916));
#893=CARTESIAN_POINT('Ctrl Pts',(-0.39005989147974,0.0741034105551026,-1.11171156318589));
#894=CARTESIAN_POINT('Ctrl Pts',(-0.393881621088147,0.0797860584793007,
-1.12472177002158));
#895=CARTESIAN_POINT('Ctrl Pts',(-0.394180114624593,0.0797860584793007,
-1.12041089180719));
#896=CARTESIAN_POINT('Ctrl Pts',(-0.394428234679373,0.0790896529856578,
-1.11608920275585));
#897=CARTESIAN_POINT('Ctrl Pts',(-0.394230353723797,0.0776120865930036,
-1.11176837503485));
#898=CARTESIAN_POINT('Ctrl Pts',(-0.381718966991626,0.0670860584793006,
-1.11159793948796));
#899=CARTESIAN_POINT('Ctrl Pts',(-0.381663308059243,0.0670860584793006,
-1.1156837680658));
#900=CARTESIAN_POINT('Ctrl Pts',(-0.38149421785628,0.0670860584793006,-1.11976805078698));
#901=CARTESIAN_POINT('Ctrl Pts',(-0.381211956776269,0.0670860584793006,
-1.12384449798606));
#902=CARTESIAN_POINT('Ctrl Pts',(-0.393881621088147,0.0797860584793007,
-1.12472177002158));
#903=CARTESIAN_POINT('Ctrl Pts',(-0.394180114624593,0.0797860584793007,
-1.12041089180719));
#904=CARTESIAN_POINT('Ctrl Pts',(-0.394428234679373,0.0790896529856578,
-1.11608920275585));
#905=CARTESIAN_POINT('Ctrl Pts',(-0.394230353723797,0.0776120865930036,
-1.11176837503485));
#906=CARTESIAN_POINT('Origin',(-0.160903148538776,0.0480360584793007,-1.10858989045355));
#907=CARTESIAN_POINT('',(-0.381211956776269,0.0543860584793007,-1.12384449798606));
#908=CARTESIAN_POINT('',(-0.393881621088147,0.0416860584793007,-1.12472177002158));
#909=CARTESIAN_POINT('',(-0.381211956776269,0.0543860584793007,-1.12384449798606));
#910=CARTESIAN_POINT('',(-0.212047524051157,0.0416860584793007,-1.3364570865641));
#911=CARTESIAN_POINT('Origin',(-0.160903148538776,0.0416860584793007,-1.10858989045355));
#912=CARTESIAN_POINT('',(-0.209266228156769,0.0543860584793007,-1.32406537993637));
#913=CARTESIAN_POINT('',(-0.212047524051157,0.0416860584793007,-1.3364570865641));
#914=CARTESIAN_POINT('Origin',(-0.160903148538776,0.0543860584793007,-1.10858989045355));
#915=CARTESIAN_POINT('Ctrl Pts',(-0.381718966991626,0.0543860584793007,
-1.11159793948796));
#916=CARTESIAN_POINT('Ctrl Pts',(-0.381663308059243,0.0543860584793007,
-1.1156837680658));
#917=CARTESIAN_POINT('Ctrl Pts',(-0.38149421785628,0.0543860584793007,-1.11976805078698));
#918=CARTESIAN_POINT('Ctrl Pts',(-0.381211956776269,0.0543860584793007,
-1.12384449798606));
#919=CARTESIAN_POINT('Ctrl Pts',(-0.385889429235683,0.0508773824413997,
-1.11165475133692));
#920=CARTESIAN_POINT('Ctrl Pts',(-0.385918283599286,0.050384860310515,-1.11581891296248));
#921=CARTESIAN_POINT('Ctrl Pts',(-0.385722850112384,0.0501527251459674,
-1.11998233112705));
#922=CARTESIAN_POINT('Ctrl Pts',(-0.385435178213562,0.0501527251459674,
-1.1241369219979));
#923=CARTESIAN_POINT('Ctrl Pts',(-0.39005989147974,0.0473687064034987,-1.11171156318589));
#924=CARTESIAN_POINT('Ctrl Pts',(-0.390173259139329,0.0463836621417292,
-1.11595405785916));
#925=CARTESIAN_POINT('Ctrl Pts',(-0.389951482368489,0.045919391812634,-1.12019661146712));
#926=CARTESIAN_POINT('Ctrl Pts',(-0.389658399650854,0.045919391812634,-1.12442934600974));
#927=CARTESIAN_POINT('Ctrl Pts',(-0.394230353723797,0.0438600303655978,
-1.11176837503485));
#928=CARTESIAN_POINT('Ctrl Pts',(-0.394428234679373,0.0423824639729435,
-1.11608920275585));
#929=CARTESIAN_POINT('Ctrl Pts',(-0.394180114624593,0.0416860584793007,
-1.12041089180719));
#930=CARTESIAN_POINT('Ctrl Pts',(-0.393881621088147,0.0416860584793007,
-1.12472177002158));
#931=CARTESIAN_POINT('Ctrl Pts',(-0.381211956776269,0.0543860584793007,
-1.12384449798606));
#932=CARTESIAN_POINT('Ctrl Pts',(-0.38149421785628,0.0543860584793007,-1.11976805078698));
#933=CARTESIAN_POINT('Ctrl Pts',(-0.381663308059243,0.0543860584793007,
-1.1156837680658));
#934=CARTESIAN_POINT('Ctrl Pts',(-0.381718966991626,0.0543860584793007,
-1.11159793948796));
#935=CARTESIAN_POINT('Ctrl Pts',(-0.394230353723797,0.0438600303655978,
-1.11176837503485));
#936=CARTESIAN_POINT('Ctrl Pts',(-0.394428234679373,0.0423824639729435,
-1.11608920275585));
#937=CARTESIAN_POINT('Ctrl Pts',(-0.394180114624593,0.0416860584793007,
-1.12041089180719));
#938=CARTESIAN_POINT('Ctrl Pts',(-0.393881621088147,0.0416860584793007,
-1.12472177002158));
#939=CARTESIAN_POINT('Ctrl Pts',(-0.209266228156767,0.0543860584793007,
-1.32406537993637));
#940=CARTESIAN_POINT('Ctrl Pts',(-0.208962257829314,0.0543860584793007,
-1.32413360552056));
#941=CARTESIAN_POINT('Ctrl Pts',(-0.208652730568204,0.054406922414177,-1.32420239257334));
#942=CARTESIAN_POINT('Ctrl Pts',(-0.208344478985535,0.0544501629425442,
-1.32427019600655));
#943=CARTESIAN_POINT('Ctrl Pts',(-0.210193326788231,0.0501527251459674,
-1.32819594881228));
#944=CARTESIAN_POINT('Ctrl Pts',(-0.209690311774238,0.0501527251459674,
-1.32830884961241));
#945=CARTESIAN_POINT('Ctrl Pts',(-0.209175858929607,0.0501666344358849,
-1.3284221678664));
#946=CARTESIAN_POINT('Ctrl Pts',(-0.208651728600823,0.0501954614547964,
-1.32853420101578));
#947=CARTESIAN_POINT('Ctrl Pts',(-0.211120425419694,0.045919391812634,-1.33232651768819));
#948=CARTESIAN_POINT('Ctrl Pts',(-0.210418365719163,0.045919391812634,-1.33248409370426));
#949=CARTESIAN_POINT('Ctrl Pts',(-0.209698987291011,0.0459263464575928,
-1.33264194315947));
#950=CARTESIAN_POINT('Ctrl Pts',(-0.208958978216112,0.0459407599670485,
-1.332798206025));
#951=CARTESIAN_POINT('Ctrl Pts',(-0.212047524051157,0.0416860584793007,
-1.3364570865641));
#952=CARTESIAN_POINT('Ctrl Pts',(-0.211146419664087,0.0416860584793007,
-1.33665933779611));
#953=CARTESIAN_POINT('Ctrl Pts',(-0.210222115652415,0.0416860584793007,
-1.33686171845254));
#954=CARTESIAN_POINT('Ctrl Pts',(-0.2092662278314,0.0416860584793007,-1.33706221103422));
#955=CARTESIAN_POINT('Ctrl Pts',(-0.208344478985535,0.0544501629425442,
-1.32427019600655));
#956=CARTESIAN_POINT('Ctrl Pts',(-0.208652730568204,0.054406922414177,-1.32420239257334));
#957=CARTESIAN_POINT('Ctrl Pts',(-0.208962257829314,0.0543860584793007,
-1.32413360552056));
#958=CARTESIAN_POINT('Ctrl Pts',(-0.209266228156767,0.0543860584793007,
-1.32406537993637));
#959=CARTESIAN_POINT('Ctrl Pts',(-0.212047524051157,0.0416860584793007,
-1.3364570865641));
#960=CARTESIAN_POINT('Ctrl Pts',(-0.211146419664087,0.0416860584793007,
-1.33665933779611));
#961=CARTESIAN_POINT('Ctrl Pts',(-0.210222115652415,0.0416860584793007,
-1.33686171845254));
#962=CARTESIAN_POINT('Ctrl Pts',(-0.2092662278314,0.0416860584793007,-1.33706221103422));
#963=CARTESIAN_POINT('Origin',(-0.31747019469052,0.0797860584793008,-2.00050952532578));
#964=CARTESIAN_POINT('',(-0.209266191511299,0.0797860584793008,-2.78793792460464));
#965=CARTESIAN_POINT('',(-0.209266219647762,0.0797860584793007,-1.66397372361086));
#966=CARTESIAN_POINT('',(-0.425674187033743,0.0797860584793009,-2.78788949578931));
#967=CARTESIAN_POINT('Origin',(-0.31747019469052,0.0797860584793008,-2.7879379209549));
#968=CARTESIAN_POINT('',(-0.425321776209821,0.0797860584793006,-1.21308532951436));
#969=CARTESIAN_POINT('',(-0.425586083273593,0.0797860584793008,-2.39418532045226));
#970=CARTESIAN_POINT('Origin',(-0.285339355625302,0.0797860584793007,-1.21311665484062));
#971=CARTESIAN_POINT('Origin',(-0.209266219647762,0.0609900584793007,-1.66397372361086));
#972=CARTESIAN_POINT('',(-0.190470191511299,0.0609900584793008,-2.78793792413412));
#973=CARTESIAN_POINT('',(-0.190470219647762,0.0609900584793007,-1.66397372314034));
#974=CARTESIAN_POINT('Origin',(-0.209266191511299,0.0609900584793008,-2.78793792460464));
#975=CARTESIAN_POINT('Origin',(-0.190470228072343,0.0416860584793007,-1.32743792413412));
#976=CARTESIAN_POINT('',(-0.190470191511299,0.0604820584793009,-2.78793792413412));
#977=CARTESIAN_POINT('',(-0.190470219647762,0.0604820584793007,-1.66397372314034));
#978=CARTESIAN_POINT('',(-0.190470191511299,0.0416860584793008,-2.78793792413412));
#979=CARTESIAN_POINT('Origin',(-0.209266219647762,0.0604820584793007,-1.66397372361086));
#980=CARTESIAN_POINT('',(-0.209266191511299,0.0416860584793008,-2.78793792366359));
#981=CARTESIAN_POINT('',(-0.209266219647762,0.0416860584793007,-1.66397372361086));
#982=CARTESIAN_POINT('Origin',(-0.209266191511299,0.0604820584793009,-2.78793792366359));
#983=CARTESIAN_POINT('Origin',(-0.31747019469052,0.0416860584793008,-2.00050952532578));
#984=CARTESIAN_POINT('',(-0.425321776209821,0.0416860584793007,-1.21308532951436));
#985=CARTESIAN_POINT('Origin',(-0.285339355625302,0.0416860584793007,-1.21311665484062));
#986=CARTESIAN_POINT('',(-0.425674185622063,0.0416860584793008,-2.78788529008319));
#987=CARTESIAN_POINT('',(-0.425586083273593,0.0416860584793008,-2.39418532045226));
#988=CARTESIAN_POINT('Origin',(-0.31747019469052,0.0416860584793008,-2.7879379209549));
#989=CARTESIAN_POINT('Origin',(-0.160903148538776,0.0416860584793007,-1.10858989045355));
#990=CARTESIAN_POINT('Origin',(-0.285339355625302,0.0604820584793007,-1.21311665484062));
#991=CARTESIAN_POINT('',(-0.444117775739191,0.0604820584793007,-1.2130811233375));
#992=CARTESIAN_POINT('Origin',(-0.285339355625302,0.0604820584793007,-1.21311665484062));
#993=CARTESIAN_POINT('Origin',(-0.425321776209821,0.0604820584793007,-1.21308532951436));
#994=CARTESIAN_POINT('Origin',(-0.425586083273593,0.0604820584793008,-2.39418532045226));
#995=CARTESIAN_POINT('',(-0.444470185151433,0.0604820584793009,-2.78788108390634));
#996=CARTESIAN_POINT('Origin',(-0.425674185622063,0.0604820584793008,-2.78788529008319));
#997=CARTESIAN_POINT('',(-0.444382082802963,0.0604820584793008,-2.39418111427541));
#998=CARTESIAN_POINT('Origin',(-0.31747019469052,0.0604820584793009,-2.7879379209549));
#999=CARTESIAN_POINT('Origin',(-0.31747019469052,0.0604820584793009,-2.7879379209549));
#1000=CARTESIAN_POINT('Origin',(-0.31747019469052,0.0609900584793008,-2.7879379209549));
#1001=CARTESIAN_POINT('',(-0.444470185151433,0.0609900584793008,-2.78788108390634));
#1002=CARTESIAN_POINT('Origin',(-0.425674187033743,0.0609900584793008,-2.78788949578931));
#1003=CARTESIAN_POINT('Origin',(-0.31747019469052,0.0609900584793008,-2.7879379209549));
#1004=CARTESIAN_POINT('Origin',(-0.425586083273593,0.0609900584793008,-2.39418532045226));
#1005=CARTESIAN_POINT('',(-0.444117775739191,0.0609900584793007,-1.2130811233375));
#1006=CARTESIAN_POINT('Origin',(-0.425321776209821,0.0609900584793007,-1.21308532951436));
#1007=CARTESIAN_POINT('',(-0.444382082802963,0.0609900584793008,-2.39418111427541));
#1008=CARTESIAN_POINT('Origin',(-0.285339355625302,0.0609900584793007,-1.21311665484062));
#1009=CARTESIAN_POINT('Origin',(-0.285339355625302,0.0609900584793007,-1.21311665484062));
#1010=CARTESIAN_POINT('Origin',(-0.285339355625302,0.0416860584793007,-1.21311665484062));
#1011=CARTESIAN_POINT('',(-0.444117775739191,0.0416860584793007,-1.2130811233375));
#1012=CARTESIAN_POINT('Origin',(-0.444470185151433,0.0416860584793008,-2.78788108390634));
#1013=CARTESIAN_POINT('',(-0.444470185151433,0.0416860584793008,-2.78788108390634));
#1014=CARTESIAN_POINT('Origin',(-0.31747019469052,0.0416860584793008,-2.7879379209549));
#1015=UNCERTAINTY_MEASURE_WITH_UNIT(LENGTH_MEASURE(0.001),#1019,
'DISTANCE_ACCURACY_VALUE',
'Maximum model space distance between geometric entities at asserted c
onnectivities');
#1016=UNCERTAINTY_MEASURE_WITH_UNIT(LENGTH_MEASURE(0.001),#1019,
'DISTANCE_ACCURACY_VALUE',
'Maximum model space distance between geometric entities at asserted c
onnectivities');
#1017=(
GEOMETRIC_REPRESENTATION_CONTEXT(3)
GLOBAL_UNCERTAINTY_ASSIGNED_CONTEXT((#1015))
GLOBAL_UNIT_ASSIGNED_CONTEXT((#1019,#1021,#1022))
REPRESENTATION_CONTEXT('','3D')
);
#1018=(
GEOMETRIC_REPRESENTATION_CONTEXT(3)
GLOBAL_UNCERTAINTY_ASSIGNED_CONTEXT((#1016))
GLOBAL_UNIT_ASSIGNED_CONTEXT((#1019,#1021,#1022))
REPRESENTATION_CONTEXT('','3D')
);
#1019=(
LENGTH_UNIT()
NAMED_UNIT(*)
SI_UNIT(.CENTI.,.METRE.)
);
#1020=(
LENGTH_UNIT()
NAMED_UNIT(*)
SI_UNIT($,.METRE.)
);
#1021=(
NAMED_UNIT(*)
PLANE_ANGLE_UNIT()
SI_UNIT($,.RADIAN.)
);
#1022=(
NAMED_UNIT(*)
SI_UNIT($,.STERADIAN.)
SOLID_ANGLE_UNIT()
);
#1023=SHAPE_DEFINITION_REPRESENTATION(#1024,#1025);
#1024=PRODUCT_DEFINITION_SHAPE('',$,#1027);
#1025=SHAPE_REPRESENTATION('',(#465),#1017);
#1026=PRODUCT_DEFINITION_CONTEXT('part definition',#1031,'design');
#1027=PRODUCT_DEFINITION('temp_body','temp_body',#1028,#1026);
#1028=PRODUCT_DEFINITION_FORMATION('',$,#1033);
#1029=PRODUCT_RELATED_PRODUCT_CATEGORY('temp_body','temp_body',(#1033));
#1030=APPLICATION_PROTOCOL_DEFINITION('international standard',
'automotive_design',2009,#1031);
#1031=APPLICATION_CONTEXT(
'Core Data for Automotive Mechanical Design Process');
#1032=PRODUCT_CONTEXT('part definition',#1031,'mechanical');
#1033=PRODUCT('temp_body','temp_body',$,(#1032));
#1034=PRESENTATION_STYLE_ASSIGNMENT((#1035));
#1035=SURFACE_STYLE_USAGE(.BOTH.,#1036);
#1036=SURFACE_SIDE_STYLE('',(#1037));
#1037=SURFACE_STYLE_FILL_AREA(#1038);
#1038=FILL_AREA_STYLE('Steel - Satin',(#1039));
#1039=FILL_AREA_STYLE_COLOUR('Steel - Satin',#1040);
#1040=COLOUR_RGB('Steel - Satin',0.627450980392157,0.627450980392157,0.627450980392157);
ENDSEC;
END-ISO-10303-21;
