ISO-10303-21;
HEADER;
/* Generated by software containing ST-Developer
 * from STEP Tools, Inc. (www.steptools.com) 
 */

FILE_DESCRIPTION(
/* description */ (''),
/* implementation_level */ '2;1');

FILE_NAME(
/* name */ 
'C:\\Users\\designnet\\AppData\\Local\\Temp\\derivatives\\21224_18ba4a
ba\\AssemblyExtractor\\21224_18ba4aba\\a47bd2f6-05a3-11ec-95f6-020a4e4
6e3ef.step',
/* time_stamp */ '2021-08-25T12:55:02+00:00',
/* author */ (''),
/* organization */ (''),
/* preprocessor_version */ 'ST-DEVELOPER v18.1',
/* originating_system */ 'Autodesk Translation Framework v10.6.0.1341',

/* authorisation */ '');

FILE_SCHEMA (('AUTOMOTIVE_DESIGN { 1 0 10303 214 3 1 1 }'));
ENDSEC;

DATA;
#10=MECHANICAL_DESIGN_GEOMETRIC_PRESENTATION_REPRESENTATION('',(#13),#384);
#11=SHAPE_REPRESENTATION_RELATIONSHIP('SRR','None',#391,#12);
#12=ADVANCED_BREP_SHAPE_REPRESENTATION('',(#14),#383);
#13=STYLED_ITEM('',(#400),#14);
#14=MANIFOLD_SOLID_BREP('Body1',#160);
#15=FACE_BOUND('',#49,.T.);
#16=(
BOUNDED_SURFACE()
B_SPLINE_SURFACE(2,2,((#347,#348,#349,#350,#351,#352,#353,#354,#355),(#356,
#357,#358,#359,#360,#361,#362,#363,#364),(#365,#366,#367,#368,#369,#370,
#371,#372,#373)),.UNSPECIFIED.,.F.,.T.,.F.)
B_SPLINE_SURFACE_WITH_KNOTS((3,3),(3,2,2,2,3),(0.643501108793284,1.5707963267949),
(-3.14159265358979,-1.5707963267949,0.,1.5707963267949,3.14159265358979),
 .UNSPECIFIED.)
GEOMETRIC_REPRESENTATION_ITEM()
RATIONAL_B_SPLINE_SURFACE(((1.,0.707106781186548,1.,0.707106781186548,1.,
0.707106781186548,1.,0.707106781186548,1.),(0.894427190999913,0.632455532033674,
0.894427190999913,0.632455532033674,0.894427190999913,0.632455532033674,
0.894427190999913,0.632455532033674,0.894427190999913),(1.,0.707106781186548,
1.,0.707106781186548,1.,0.707106781186548,1.,0.707106781186548,1.)))
REPRESENTATION_ITEM('')
SURFACE()
);
#17=PLANE('',#185);
#18=PLANE('',#189);
#19=PLANE('',#190);
#20=CIRCLE('',#179,0.0889);
#21=CIRCLE('',#180,0.0381);
#22=CIRCLE('',#181,0.127);
#23=CIRCLE('',#182,0.127);
#24=CIRCLE('',#184,0.127);
#25=CIRCLE('',#186,0.0508);
#26=CIRCLE('',#187,0.127);
#27=CIRCLE('',#188,0.1524);
#28=TOROIDAL_SURFACE('',#178,0.0889,0.0381);
#29=FACE_OUTER_BOUND('',#39,.T.);
#30=FACE_OUTER_BOUND('',#40,.T.);
#31=FACE_OUTER_BOUND('',#41,.T.);
#32=FACE_OUTER_BOUND('',#42,.T.);
#33=FACE_OUTER_BOUND('',#43,.T.);
#34=FACE_OUTER_BOUND('',#44,.T.);
#35=FACE_OUTER_BOUND('',#45,.T.);
#36=FACE_OUTER_BOUND('',#46,.T.);
#37=FACE_OUTER_BOUND('',#47,.T.);
#38=FACE_OUTER_BOUND('',#48,.T.);
#39=EDGE_LOOP('',(#103,#104));
#40=EDGE_LOOP('',(#105,#106,#107,#108,#109,#110));
#41=EDGE_LOOP('',(#111,#112));
#42=EDGE_LOOP('',(#113,#114,#115,#116));
#43=EDGE_LOOP('',(#117,#118,#119,#120,#121));
#44=EDGE_LOOP('',(#122,#123,#124,#125,#126,#127,#128,#129,#130,#131,#132,
#133,#134,#135,#136));
#45=EDGE_LOOP('',(#137));
#46=EDGE_LOOP('',(#138,#139,#140,#141));
#47=EDGE_LOOP('',(#142));
#48=EDGE_LOOP('',(#143));
#49=EDGE_LOOP('',(#144));
#50=LINE('',#251,#55);
#51=LINE('',#260,#56);
#52=LINE('',#307,#57);
#53=LINE('',#342,#58);
#54=LINE('',#344,#59);
#55=VECTOR('',#195,1.);
#56=VECTOR('',#198,1.);
#57=VECTOR('',#201,1.);
#58=VECTOR('',#216,0.127);
#59=VECTOR('',#217,0.127);
#60=B_SPLINE_CURVE_WITH_KNOTS('',3,(#236,#237,#238,#239,#240,#241,#242,
#243,#244,#245,#246,#247,#248,#249,#250),.UNSPECIFIED.,.F.,.F.,(4,2,2,3,
2,2,4),(-0.146477987411916,-0.105480399147185,-0.0527401995735924,0.,0.0527401995735925,
0.105480399147185,0.146477987411916),.UNSPECIFIED.);
#61=B_SPLINE_CURVE_WITH_KNOTS('',3,(#255,#256,#257,#258),.UNSPECIFIED.,
 .F.,.F.,(4,4),(0.914952494165703,0.957621904245653),.UNSPECIFIED.);
#62=B_SPLINE_CURVE_WITH_KNOTS('',3,(#261,#262,#263,#264,#265,#266,#267,
#268,#269,#270),.UNSPECIFIED.,.F.,.F.,(4,2,2,2,4),(0.157280957610373,0.177757741088892,
0.250858329958967,0.323958918829042,0.380883181150466),.UNSPECIFIED.);
#63=B_SPLINE_CURVE_WITH_KNOTS('',3,(#272,#273,#274,#275,#276,#277,#278,
#279),.UNSPECIFIED.,.F.,.F.,(4,2,2,4),(0.986132781954897,1.0449773453572,
1.11807793422728,1.1385547177058),.UNSPECIFIED.);
#64=B_SPLINE_CURVE_WITH_KNOTS('',3,(#280,#281,#282,#283,#284,#285),
 .UNSPECIFIED.,.F.,.F.,(4,2,4),(0.957621904245653,0.971876756487126,0.986132781954897),
 .UNSPECIFIED.);
#65=B_SPLINE_CURVE_WITH_KNOTS('',3,(#289,#290,#291,#292,#293,#294,#295,
#296,#297,#298,#299,#300,#301,#302,#303,#304,#305,#306),.UNSPECIFIED.,.F.,
 .F.,(4,2,2,2,2,2,2,2,4),(0.422079317545674,0.441097085029608,0.498351361797514,
0.526978500181468,0.555605638565421,0.584232776949374,0.612859915333327,
0.670114192101234,0.689131959585168),.UNSPECIFIED.);
#66=B_SPLINE_CURVE_WITH_KNOTS('',3,(#309,#310,#311,#312,#313,#314,#315,
#316,#317,#318,#319,#320),.UNSPECIFIED.,.F.,.F.,(4,2,2,2,2,4),(0.285426422845171,
0.292778991791464,0.314809870933997,0.33684075007653,0.357609324346803,
0.369477432071428),.UNSPECIFIED.);
#67=B_SPLINE_CURVE_WITH_KNOTS('',3,(#321,#322,#323,#324,#325,#326,#327,
#328,#329,#330,#331,#332),.UNSPECIFIED.,.F.,.F.,(4,2,2,2,2,4),(0.00890046654564937,
0.0207685742702739,0.0415371485405478,0.0635680276830807,0.0855989068256136,
0.0929514757719068),.UNSPECIFIED.);
#68=VERTEX_POINT('',#234);
#69=VERTEX_POINT('',#235);
#70=VERTEX_POINT('',#253);
#71=VERTEX_POINT('',#254);
#72=VERTEX_POINT('',#259);
#73=VERTEX_POINT('',#271);
#74=VERTEX_POINT('',#287);
#75=VERTEX_POINT('',#288);
#76=VERTEX_POINT('',#334);
#77=VERTEX_POINT('',#336);
#78=VERTEX_POINT('',#338);
#79=VERTEX_POINT('',#343);
#80=VERTEX_POINT('',#374);
#81=VERTEX_POINT('',#376);
#82=EDGE_CURVE('',#68,#69,#60,.T.);
#83=EDGE_CURVE('',#69,#68,#50,.T.);
#84=EDGE_CURVE('',#70,#71,#61,.T.);
#85=EDGE_CURVE('',#72,#70,#51,.T.);
#86=EDGE_CURVE('',#69,#72,#62,.T.);
#87=EDGE_CURVE('',#73,#68,#63,.T.);
#88=EDGE_CURVE('',#71,#73,#64,.T.);
#89=EDGE_CURVE('',#74,#75,#65,.T.);
#90=EDGE_CURVE('',#74,#75,#52,.T.);
#91=EDGE_CURVE('',#75,#70,#66,.T.);
#92=EDGE_CURVE('',#72,#74,#67,.T.);
#93=EDGE_CURVE('',#76,#76,#20,.T.);
#94=EDGE_CURVE('',#76,#77,#21,.T.);
#95=EDGE_CURVE('',#77,#78,#22,.T.);
#96=EDGE_CURVE('',#78,#77,#23,.T.);
#97=EDGE_CURVE('',#78,#71,#53,.T.);
#98=EDGE_CURVE('',#73,#79,#54,.T.);
#99=EDGE_CURVE('',#79,#79,#24,.T.);
#100=EDGE_CURVE('',#80,#80,#25,.T.);
#101=EDGE_CURVE('',#80,#81,#26,.T.);
#102=EDGE_CURVE('',#81,#81,#27,.T.);
#103=ORIENTED_EDGE('',*,*,#82,.F.);
#104=ORIENTED_EDGE('',*,*,#83,.F.);
#105=ORIENTED_EDGE('',*,*,#84,.F.);
#106=ORIENTED_EDGE('',*,*,#85,.F.);
#107=ORIENTED_EDGE('',*,*,#86,.F.);
#108=ORIENTED_EDGE('',*,*,#83,.T.);
#109=ORIENTED_EDGE('',*,*,#87,.F.);
#110=ORIENTED_EDGE('',*,*,#88,.F.);
#111=ORIENTED_EDGE('',*,*,#89,.F.);
#112=ORIENTED_EDGE('',*,*,#90,.T.);
#113=ORIENTED_EDGE('',*,*,#91,.F.);
#114=ORIENTED_EDGE('',*,*,#90,.F.);
#115=ORIENTED_EDGE('',*,*,#92,.F.);
#116=ORIENTED_EDGE('',*,*,#85,.T.);
#117=ORIENTED_EDGE('',*,*,#93,.T.);
#118=ORIENTED_EDGE('',*,*,#94,.T.);
#119=ORIENTED_EDGE('',*,*,#95,.T.);
#120=ORIENTED_EDGE('',*,*,#96,.T.);
#121=ORIENTED_EDGE('',*,*,#94,.F.);
#122=ORIENTED_EDGE('',*,*,#96,.F.);
#123=ORIENTED_EDGE('',*,*,#97,.T.);
#124=ORIENTED_EDGE('',*,*,#88,.T.);
#125=ORIENTED_EDGE('',*,*,#98,.T.);
#126=ORIENTED_EDGE('',*,*,#99,.F.);
#127=ORIENTED_EDGE('',*,*,#98,.F.);
#128=ORIENTED_EDGE('',*,*,#87,.T.);
#129=ORIENTED_EDGE('',*,*,#82,.T.);
#130=ORIENTED_EDGE('',*,*,#86,.T.);
#131=ORIENTED_EDGE('',*,*,#92,.T.);
#132=ORIENTED_EDGE('',*,*,#89,.T.);
#133=ORIENTED_EDGE('',*,*,#91,.T.);
#134=ORIENTED_EDGE('',*,*,#84,.T.);
#135=ORIENTED_EDGE('',*,*,#97,.F.);
#136=ORIENTED_EDGE('',*,*,#95,.F.);
#137=ORIENTED_EDGE('',*,*,#93,.F.);
#138=ORIENTED_EDGE('',*,*,#100,.T.);
#139=ORIENTED_EDGE('',*,*,#101,.T.);
#140=ORIENTED_EDGE('',*,*,#102,.T.);
#141=ORIENTED_EDGE('',*,*,#101,.F.);
#142=ORIENTED_EDGE('',*,*,#100,.F.);
#143=ORIENTED_EDGE('',*,*,#102,.F.);
#144=ORIENTED_EDGE('',*,*,#99,.T.);
#145=CYLINDRICAL_SURFACE('',#174,0.121316578192213);
#146=CYLINDRICAL_SURFACE('',#175,0.266905041279582);
#147=CYLINDRICAL_SURFACE('',#176,0.0857743218614624);
#148=CYLINDRICAL_SURFACE('',#177,0.0551685993110677);
#149=CYLINDRICAL_SURFACE('',#183,0.127);
#150=ADVANCED_FACE('',(#29),#145,.F.);
#151=ADVANCED_FACE('',(#30),#146,.F.);
#152=ADVANCED_FACE('',(#31),#147,.F.);
#153=ADVANCED_FACE('',(#32),#148,.F.);
#154=ADVANCED_FACE('',(#33),#28,.T.);
#155=ADVANCED_FACE('',(#34),#149,.T.);
#156=ADVANCED_FACE('',(#35),#17,.T.);
#157=ADVANCED_FACE('',(#36),#16,.T.);
#158=ADVANCED_FACE('',(#37),#18,.T.);
#159=ADVANCED_FACE('',(#38,#15),#19,.F.);
#160=CLOSED_SHELL('',(#150,#151,#152,#153,#154,#155,#156,#157,#158,#159));
#161=DERIVED_UNIT_ELEMENT(#163,1.);
#162=DERIVED_UNIT_ELEMENT(#386,-3.);
#163=(
MASS_UNIT()
NAMED_UNIT(*)
SI_UNIT(.KILO.,.GRAM.)
);
#164=DERIVED_UNIT((#161,#162));
#165=MEASURE_REPRESENTATION_ITEM('density measure',
POSITIVE_RATIO_MEASURE(7850.),#164);
#166=PROPERTY_DEFINITION_REPRESENTATION(#171,#168);
#167=PROPERTY_DEFINITION_REPRESENTATION(#172,#169);
#168=REPRESENTATION('material name',(#170),#383);
#169=REPRESENTATION('density',(#165),#383);
#170=DESCRIPTIVE_REPRESENTATION_ITEM('Steel','Steel');
#171=PROPERTY_DEFINITION('material property','material name',#393);
#172=PROPERTY_DEFINITION('material property','density of part',#393);
#173=AXIS2_PLACEMENT_3D('placement',#232,#191,#192);
#174=AXIS2_PLACEMENT_3D('',#233,#193,#194);
#175=AXIS2_PLACEMENT_3D('',#252,#196,#197);
#176=AXIS2_PLACEMENT_3D('',#286,#199,#200);
#177=AXIS2_PLACEMENT_3D('',#308,#202,#203);
#178=AXIS2_PLACEMENT_3D('',#333,#204,#205);
#179=AXIS2_PLACEMENT_3D('',#335,#206,#207);
#180=AXIS2_PLACEMENT_3D('',#337,#208,#209);
#181=AXIS2_PLACEMENT_3D('',#339,#210,#211);
#182=AXIS2_PLACEMENT_3D('',#340,#212,#213);
#183=AXIS2_PLACEMENT_3D('',#341,#214,#215);
#184=AXIS2_PLACEMENT_3D('',#345,#218,#219);
#185=AXIS2_PLACEMENT_3D('',#346,#220,#221);
#186=AXIS2_PLACEMENT_3D('',#375,#222,#223);
#187=AXIS2_PLACEMENT_3D('',#377,#224,#225);
#188=AXIS2_PLACEMENT_3D('',#378,#226,#227);
#189=AXIS2_PLACEMENT_3D('',#379,#228,#229);
#190=AXIS2_PLACEMENT_3D('',#380,#230,#231);
#191=DIRECTION('axis',(0.,0.,1.));
#192=DIRECTION('refdir',(1.,0.,0.));
#193=DIRECTION('center_axis',(-1.,0.,0.));
#194=DIRECTION('ref_axis',(0.,-0.680451099367278,0.732793491626299));
#195=DIRECTION('',(-1.,0.,0.));
#196=DIRECTION('center_axis',(-1.,0.,0.));
#197=DIRECTION('ref_axis',(0.,0.2211487517699,0.975240088178606));
#198=DIRECTION('',(-1.,0.,0.));
#199=DIRECTION('center_axis',(-1.,0.,0.));
#200=DIRECTION('ref_axis',(0.,0.455685857224737,-0.89014066277491));
#201=DIRECTION('',(-1.,0.,0.));
#202=DIRECTION('center_axis',(-1.,0.,0.));
#203=DIRECTION('ref_axis',(0.,0.993193976486895,-0.116471992642646));
#204=DIRECTION('center_axis',(0.,1.,0.));
#205=DIRECTION('ref_axis',(0.,0.,1.));
#206=DIRECTION('center_axis',(0.,-1.,0.));
#207=DIRECTION('ref_axis',(1.,0.,-5.55111512312578E-17));
#208=DIRECTION('center_axis',(-1.,0.,0.));
#209=DIRECTION('ref_axis',(0.,0.,-1.));
#210=DIRECTION('center_axis',(0.,1.,0.));
#211=DIRECTION('ref_axis',(1.,0.,-5.55111512312578E-17));
#212=DIRECTION('center_axis',(0.,1.,0.));
#213=DIRECTION('ref_axis',(1.,0.,-5.55111512312578E-17));
#214=DIRECTION('center_axis',(0.,1.,0.));
#215=DIRECTION('ref_axis',(1.,0.,-5.55111512312578E-17));
#216=DIRECTION('',(0.,-1.,0.));
#217=DIRECTION('',(0.,-1.,0.));
#218=DIRECTION('center_axis',(0.,-1.,0.));
#219=DIRECTION('ref_axis',(1.,0.,-5.55111512312578E-17));
#220=DIRECTION('center_axis',(0.,1.,0.));
#221=DIRECTION('ref_axis',(1.,0.,-5.55111512312578E-17));
#222=DIRECTION('center_axis',(0.,1.,0.));
#223=DIRECTION('ref_axis',(-1.,0.,5.55111512312578E-17));
#224=DIRECTION('center_axis',(0.,0.,1.));
#225=DIRECTION('ref_axis',(1.,0.,0.));
#226=DIRECTION('center_axis',(0.,-1.,0.));
#227=DIRECTION('ref_axis',(1.,0.,-5.55111512312578E-17));
#228=DIRECTION('center_axis',(0.,-1.,0.));
#229=DIRECTION('ref_axis',(1.,0.,-5.55111512312578E-17));
#230=DIRECTION('center_axis',(0.,-1.,0.));
#231=DIRECTION('ref_axis',(1.,0.,-5.55111512312578E-17));
#232=CARTESIAN_POINT('',(0.,0.,0.));
#233=CARTESIAN_POINT('Origin',(0.,0.224789997467548,-1.054099987261));
#234=CARTESIAN_POINT('',(-0.432278229470649,0.14223999846518,-0.965199988335371));
#235=CARTESIAN_POINT('',(-0.202721770529351,0.14223999846518,-0.965199988335371));
#236=CARTESIAN_POINT('Ctrl Pts',(-0.432278229470649,0.14223999846518,-0.965199988335371));
#237=CARTESIAN_POINT('Ctrl Pts',(-0.427962165538207,0.132425764331358,-0.974313205745349));
#238=CARTESIAN_POINT('Ctrl Pts',(-0.420716953941054,0.123877257909233,-0.985905507718388));
#239=CARTESIAN_POINT('Ctrl Pts',(-0.401505579115212,0.111940640788059,-1.00746353048346));
#240=CARTESIAN_POINT('Ctrl Pts',(-0.386893410113312,0.108472326165898,-1.01876270146184));
#241=CARTESIAN_POINT('Ctrl Pts',(-0.353664867473735,0.104905477617848,-1.03394517026385));
#242=CARTESIAN_POINT('Ctrl Pts',(-0.335080066524531,0.104567952893167,-1.03784046258704));
#243=CARTESIAN_POINT('Ctrl Pts',(-0.3175,0.104567952893167,-1.03784046258704));
#244=CARTESIAN_POINT('Ctrl Pts',(-0.299919933475469,0.104567952893167,-1.03784046258704));
#245=CARTESIAN_POINT('Ctrl Pts',(-0.281335132526266,0.104905477617848,-1.03394517026385));
#246=CARTESIAN_POINT('Ctrl Pts',(-0.248106589886689,0.108472326165898,-1.01876270146184));
#247=CARTESIAN_POINT('Ctrl Pts',(-0.233494420884788,0.111940640788059,-1.00746353048346));
#248=CARTESIAN_POINT('Ctrl Pts',(-0.214283046058946,0.123877257909233,-0.985905507718388));
#249=CARTESIAN_POINT('Ctrl Pts',(-0.207037834461793,0.132425764331358,-0.974313205745349));
#250=CARTESIAN_POINT('Ctrl Pts',(-0.202721770529351,0.14223999846518,-0.965199988335371));
#251=CARTESIAN_POINT('',(0.,0.14223999846518,-0.965199988335371));
#252=CARTESIAN_POINT('Origin',(0.,0.304194285454081,-1.1773534940485));
#253=CARTESIAN_POINT('',(-0.444347761851627,0.363220002174154,-0.91705699805569));
#254=CARTESIAN_POINT('',(-0.4445,0.318654753030746,-0.910840462587848));
#255=CARTESIAN_POINT('Ctrl Pts',(-0.444347761851627,0.363220002174154,-0.91705699805569));
#256=CARTESIAN_POINT('Ctrl Pts',(-0.444513163707515,0.348336613484945,-0.913681990331313));
#257=CARTESIAN_POINT('Ctrl Pts',(-0.44449999999999,0.333263425657461,-0.911633100140744));
#258=CARTESIAN_POINT('Ctrl Pts',(-0.4445,0.318654753030746,-0.910840462588653));
#259=CARTESIAN_POINT('',(-0.190652238148373,0.363220002174154,-0.91705699805569));
#260=CARTESIAN_POINT('',(0.,0.363220002174154,-0.91705699805569));
#261=CARTESIAN_POINT('Ctrl Pts',(-0.202721770529351,0.14223999846518,-0.965199988335371));
#262=CARTESIAN_POINT('Ctrl Pts',(-0.200687976064949,0.14786533730585,-0.96090570275216));
#263=CARTESIAN_POINT('Ctrl Pts',(-0.199065265163175,0.153653304227274,-0.956852601184497));
#264=CARTESIAN_POINT('Ctrl Pts',(-0.193179069861256,0.179377326870099,-0.940221402620356));
#265=CARTESIAN_POINT('Ctrl Pts',(-0.191567969622207,0.203238679133595,-0.928893508470006));
#266=CARTESIAN_POINT('Ctrl Pts',(-0.190319991005932,0.253466240558323,-0.914007584589112));
#267=CARTESIAN_POINT('Ctrl Pts',(-0.190500605008124,0.279827422497389,-0.910448452768922));
#268=CARTESIAN_POINT('Ctrl Pts',(-0.190500605008124,0.323169039561222,-0.910448452768922));
#269=CARTESIAN_POINT('Ctrl Pts',(-0.190431579399743,0.343364421316842,-0.912554479162663));
#270=CARTESIAN_POINT('Ctrl Pts',(-0.190652238148373,0.363220002174154,-0.91705699805569));
#271=CARTESIAN_POINT('',(-0.4445,0.289733817543902,-0.910840462596896));
#272=CARTESIAN_POINT('Ctrl Pts',(-0.4445,0.289733817543902,-0.910840462606748));
#273=CARTESIAN_POINT('Ctrl Pts',(-0.44449999999983,0.269590129755391,-0.911933419109785));
#274=CARTESIAN_POINT('Ctrl Pts',(-0.444558319037723,0.248568568693274,-0.915459105795969));
#275=CARTESIAN_POINT('Ctrl Pts',(-0.443432030377793,0.203238679133595,-0.928893508470006));
#276=CARTESIAN_POINT('Ctrl Pts',(-0.441820930138744,0.179377326870099,-0.940221402620356));
#277=CARTESIAN_POINT('Ctrl Pts',(-0.435934734836825,0.153653304227274,-0.956852601184497));
#278=CARTESIAN_POINT('Ctrl Pts',(-0.434312023935051,0.14786533730585,-0.96090570275216));
#279=CARTESIAN_POINT('Ctrl Pts',(-0.432278229470649,0.14223999846518,-0.965199988335371));
#280=CARTESIAN_POINT('Ctrl Pts',(-0.4445,0.318654753030746,-0.910840462588653));
#281=CARTESIAN_POINT('Ctrl Pts',(-0.444500000000003,0.313774337075905,-0.910575660915395));
#282=CARTESIAN_POINT('Ctrl Pts',(-0.444499394991876,0.308945902867905,-0.910448452768922));
#283=CARTESIAN_POINT('Ctrl Pts',(-0.444499394991876,0.299442276964824,-0.910448452768922));
#284=CARTESIAN_POINT('Ctrl Pts',(-0.444500000000041,0.294613944262909,-0.910575676620727));
#285=CARTESIAN_POINT('Ctrl Pts',(-0.4445,0.289733817543902,-0.910840462606748));
#286=CARTESIAN_POINT('Origin',(0.,0.324133856788843,-0.965048794795761));
#287=CARTESIAN_POINT('',(-0.209648157053325,0.408939995242059,-0.977899988181889));
#288=CARTESIAN_POINT('',(-0.425351842946675,0.408939995242059,-0.977899988181889));
#289=CARTESIAN_POINT('Ctrl Pts',(-0.209648157053325,0.408939995242059,-0.977899988181889));
#290=CARTESIAN_POINT('Ctrl Pts',(-0.213185628188073,0.408077858470184,-0.983589303426353));
#291=CARTESIAN_POINT('Ctrl Pts',(-0.217111409915467,0.406681195856802,-0.988870208304612));
#292=CARTESIAN_POINT('Ctrl Pts',(-0.233102226129374,0.400120602658937,-1.00751512556762));
#293=CARTESIAN_POINT('Ctrl Pts',(-0.247985552368221,0.391961263520403,-1.01864040106974));
#294=CARTESIAN_POINT('Ctrl Pts',(-0.272508140673309,0.380477963724467,-1.02994434803962));
#295=CARTESIAN_POINT('Ctrl Pts',(-0.281042881104277,0.376804706431101,-1.03283296069607));
#296=CARTESIAN_POINT('Ctrl Pts',(-0.29875888242167,0.371288065906091,-1.03677770198209));
#297=CARTESIAN_POINT('Ctrl Pts',(-0.307957620538682,0.369505735645215,-1.03784046258704));
#298=CARTESIAN_POINT('Ctrl Pts',(-0.327042379461318,0.369505735645215,-1.03784046258704));
#299=CARTESIAN_POINT('Ctrl Pts',(-0.33624111757833,0.371288065906091,-1.03677770198209));
#300=CARTESIAN_POINT('Ctrl Pts',(-0.353957118895723,0.376804706431101,-1.03283296069607));
#301=CARTESIAN_POINT('Ctrl Pts',(-0.362491859326692,0.380477963724467,-1.02994434803962));
#302=CARTESIAN_POINT('Ctrl Pts',(-0.387014447631779,0.391961263520404,-1.01864040106974));
#303=CARTESIAN_POINT('Ctrl Pts',(-0.401897773870626,0.400120602658937,-1.00751512556762));
#304=CARTESIAN_POINT('Ctrl Pts',(-0.417888590084533,0.406681195856802,-0.988870208304612));
#305=CARTESIAN_POINT('Ctrl Pts',(-0.421814371811927,0.408077858470184,-0.983589303426353));
#306=CARTESIAN_POINT('Ctrl Pts',(-0.425351842946675,0.408939995242059,-0.977899988181889));
#307=CARTESIAN_POINT('',(0.,0.408939995242059,-0.977899988181889));
#308=CARTESIAN_POINT('Origin',(0.,0.354146874715088,-0.971474391488825));
#309=CARTESIAN_POINT('Ctrl Pts',(-0.425351842946675,0.408939995242059,-0.977899988181889));
#310=CARTESIAN_POINT('Ctrl Pts',(-0.426672172142469,0.409189016687257,-0.975776502580113));
#311=CARTESIAN_POINT('Ctrl Pts',(-0.427920771223627,0.409315474026155,-0.973627881542263));
#312=CARTESIAN_POINT('Ctrl Pts',(-0.432596975691625,0.409315474026155,-0.965021778878391));
#313=CARTESIAN_POINT('Ctrl Pts',(-0.43573088829927,0.408099627491324,-0.957776544030643));
#314=CARTESIAN_POINT('Ctrl Pts',(-0.440303364897033,0.402569795356369,-0.944019852721044));
#315=CARTESIAN_POINT('Ctrl Pts',(-0.44177447943642,0.398239958902865,-0.937525616316501));
#316=CARTESIAN_POINT('Ctrl Pts',(-0.443494390968146,0.388204402404925,-0.927532514232606));
#317=CARTESIAN_POINT('Ctrl Pts',(-0.443918408966091,0.382020994488364,-0.923302752483084));
#318=CARTESIAN_POINT('Ctrl Pts',(-0.444254700886366,0.371360367466385,-0.91889235272575));
#319=CARTESIAN_POINT('Ctrl Pts',(-0.444314498141512,0.367290858769621,-0.917735740612582));
#320=CARTESIAN_POINT('Ctrl Pts',(-0.444347761851627,0.363220002174154,-0.91705699805569));
#321=CARTESIAN_POINT('Ctrl Pts',(-0.190652238148373,0.363220002174154,-0.91705699805569));
#322=CARTESIAN_POINT('Ctrl Pts',(-0.190685501858488,0.367290858769621,-0.917735740612582));
#323=CARTESIAN_POINT('Ctrl Pts',(-0.190745299113634,0.371360367466385,-0.91889235272575));
#324=CARTESIAN_POINT('Ctrl Pts',(-0.191081591033909,0.382020994488364,-0.923302752483084));
#325=CARTESIAN_POINT('Ctrl Pts',(-0.191505609031854,0.388204402404925,-0.927532514232606));
#326=CARTESIAN_POINT('Ctrl Pts',(-0.19322552056358,0.398239958902865,-0.9375256163165));
#327=CARTESIAN_POINT('Ctrl Pts',(-0.194696635102967,0.402569795356369,-0.944019852721043));
#328=CARTESIAN_POINT('Ctrl Pts',(-0.19926911170073,0.408099627491324,-0.957776544030643));
#329=CARTESIAN_POINT('Ctrl Pts',(-0.202403024308375,0.409315474026155,-0.96502177887839));
#330=CARTESIAN_POINT('Ctrl Pts',(-0.207079228776373,0.409315474026155,-0.973627881542263));
#331=CARTESIAN_POINT('Ctrl Pts',(-0.208327827857531,0.409189016687257,-0.975776502580113));
#332=CARTESIAN_POINT('Ctrl Pts',(-0.209648157053325,0.408939995242059,-0.977899988181889));
#333=CARTESIAN_POINT('Origin',(-0.3175,0.45974,-0.910840462587044));
#334=CARTESIAN_POINT('',(-0.3175,0.49784,-0.999740462587044));
#335=CARTESIAN_POINT('Origin',(-0.3175,0.49784,-0.910840462587044));
#336=CARTESIAN_POINT('',(-0.3175,0.45974,-1.03784046258704));
#337=CARTESIAN_POINT('Origin',(-0.3175,0.45974,-0.999740462587044));
#338=CARTESIAN_POINT('',(-0.4445,0.45974,-0.910840462587044));
#339=CARTESIAN_POINT('Origin',(-0.3175,0.45974,-0.910840462587044));
#340=CARTESIAN_POINT('Origin',(-0.3175,0.45974,-0.910840462587044));
#341=CARTESIAN_POINT('Origin',(-0.3175,-0.0101600000000001,-0.910840462587044));
#342=CARTESIAN_POINT('',(-0.4445,-0.0101600000000001,-0.910840462587044));
#343=CARTESIAN_POINT('',(-0.4445,-0.28956,-0.910840462587044));
#344=CARTESIAN_POINT('',(-0.4445,-0.0101600000000001,-0.910840462587044));
#345=CARTESIAN_POINT('Origin',(-0.3175,-0.28956,-0.910840462587044));
#346=CARTESIAN_POINT('Origin',(-0.3175,0.49784,-0.910840462587044));
#347=CARTESIAN_POINT('Ctrl Pts',(-0.1651,-0.28956,-0.910840462587044));
#348=CARTESIAN_POINT('Ctrl Pts',(-0.1651,-0.28956,-1.06324046258704));
#349=CARTESIAN_POINT('Ctrl Pts',(-0.3175,-0.28956,-1.06324046258704));
#350=CARTESIAN_POINT('Ctrl Pts',(-0.4699,-0.28956,-1.06324046258704));
#351=CARTESIAN_POINT('Ctrl Pts',(-0.4699,-0.28956,-0.910840462587044));
#352=CARTESIAN_POINT('Ctrl Pts',(-0.4699,-0.28956,-0.758440462587044));
#353=CARTESIAN_POINT('Ctrl Pts',(-0.3175,-0.28956,-0.758440462587044));
#354=CARTESIAN_POINT('Ctrl Pts',(-0.1651,-0.28956,-0.758440462587044));
#355=CARTESIAN_POINT('Ctrl Pts',(-0.1651,-0.28956,-0.910840462587044));
#356=CARTESIAN_POINT('Ctrl Pts',(-0.2032,-0.34036,-0.910840462587044));
#357=CARTESIAN_POINT('Ctrl Pts',(-0.2032,-0.34036,-1.02514046258704));
#358=CARTESIAN_POINT('Ctrl Pts',(-0.3175,-0.34036,-1.02514046258704));
#359=CARTESIAN_POINT('Ctrl Pts',(-0.4318,-0.34036,-1.02514046258704));
#360=CARTESIAN_POINT('Ctrl Pts',(-0.4318,-0.34036,-0.910840462587044));
#361=CARTESIAN_POINT('Ctrl Pts',(-0.4318,-0.34036,-0.796540462587044));
#362=CARTESIAN_POINT('Ctrl Pts',(-0.3175,-0.34036,-0.796540462587044));
#363=CARTESIAN_POINT('Ctrl Pts',(-0.2032,-0.34036,-0.796540462587044));
#364=CARTESIAN_POINT('Ctrl Pts',(-0.2032,-0.34036,-0.910840462587044));
#365=CARTESIAN_POINT('Ctrl Pts',(-0.2667,-0.34036,-0.910840462587044));
#366=CARTESIAN_POINT('Ctrl Pts',(-0.2667,-0.34036,-0.961640462587044));
#367=CARTESIAN_POINT('Ctrl Pts',(-0.3175,-0.34036,-0.961640462587044));
#368=CARTESIAN_POINT('Ctrl Pts',(-0.3683,-0.34036,-0.961640462587044));
#369=CARTESIAN_POINT('Ctrl Pts',(-0.3683,-0.34036,-0.910840462587044));
#370=CARTESIAN_POINT('Ctrl Pts',(-0.3683,-0.34036,-0.860040462587044));
#371=CARTESIAN_POINT('Ctrl Pts',(-0.3175,-0.34036,-0.860040462587044));
#372=CARTESIAN_POINT('Ctrl Pts',(-0.2667,-0.34036,-0.860040462587044));
#373=CARTESIAN_POINT('Ctrl Pts',(-0.2667,-0.34036,-0.910840462587044));
#374=CARTESIAN_POINT('',(-0.2667,-0.34036,-0.910840462587044));
#375=CARTESIAN_POINT('Origin',(-0.3175,-0.34036,-0.910840462587044));
#376=CARTESIAN_POINT('',(-0.1651,-0.28956,-0.910840462587044));
#377=CARTESIAN_POINT('Origin',(-0.2667,-0.21336,-0.910840462587044));
#378=CARTESIAN_POINT('Origin',(-0.3175,-0.28956,-0.910840462587044));
#379=CARTESIAN_POINT('Origin',(-0.3175,-0.34036,-0.910840462587044));
#380=CARTESIAN_POINT('Origin',(-0.3175,-0.28956,-0.910840462587044));
#381=UNCERTAINTY_MEASURE_WITH_UNIT(LENGTH_MEASURE(0.001),#385,
'DISTANCE_ACCURACY_VALUE',
'Maximum model space distance between geometric entities at asserted c
onnectivities');
#382=UNCERTAINTY_MEASURE_WITH_UNIT(LENGTH_MEASURE(0.001),#385,
'DISTANCE_ACCURACY_VALUE',
'Maximum model space distance between geometric entities at asserted c
onnectivities');
#383=(
GEOMETRIC_REPRESENTATION_CONTEXT(3)
GLOBAL_UNCERTAINTY_ASSIGNED_CONTEXT((#381))
GLOBAL_UNIT_ASSIGNED_CONTEXT((#385,#387,#388))
REPRESENTATION_CONTEXT('','3D')
);
#384=(
GEOMETRIC_REPRESENTATION_CONTEXT(3)
GLOBAL_UNCERTAINTY_ASSIGNED_CONTEXT((#382))
GLOBAL_UNIT_ASSIGNED_CONTEXT((#385,#387,#388))
REPRESENTATION_CONTEXT('','3D')
);
#385=(
LENGTH_UNIT()
NAMED_UNIT(*)
SI_UNIT(.CENTI.,.METRE.)
);
#386=(
LENGTH_UNIT()
NAMED_UNIT(*)
SI_UNIT($,.METRE.)
);
#387=(
NAMED_UNIT(*)
PLANE_ANGLE_UNIT()
SI_UNIT($,.RADIAN.)
);
#388=(
NAMED_UNIT(*)
SI_UNIT($,.STERADIAN.)
SOLID_ANGLE_UNIT()
);
#389=SHAPE_DEFINITION_REPRESENTATION(#390,#391);
#390=PRODUCT_DEFINITION_SHAPE('',$,#393);
#391=SHAPE_REPRESENTATION('',(#173),#383);
#392=PRODUCT_DEFINITION_CONTEXT('part definition',#397,'design');
#393=PRODUCT_DEFINITION('temp_body','temp_body',#394,#392);
#394=PRODUCT_DEFINITION_FORMATION('',$,#399);
#395=PRODUCT_RELATED_PRODUCT_CATEGORY('temp_body','temp_body',(#399));
#396=APPLICATION_PROTOCOL_DEFINITION('international standard',
'automotive_design',2009,#397);
#397=APPLICATION_CONTEXT(
'Core Data for Automotive Mechanical Design Process');
#398=PRODUCT_CONTEXT('part definition',#397,'mechanical');
#399=PRODUCT('temp_body','temp_body',$,(#398));
#400=PRESENTATION_STYLE_ASSIGNMENT((#401));
#401=SURFACE_STYLE_USAGE(.BOTH.,#402);
#402=SURFACE_SIDE_STYLE('',(#403));
#403=SURFACE_STYLE_FILL_AREA(#404);
#404=FILL_AREA_STYLE('Steel - Satin',(#405));
#405=FILL_AREA_STYLE_COLOUR('Steel - Satin',#406);
#406=COLOUR_RGB('Steel - Satin',0.627450980392157,0.627450980392157,0.627450980392157);
ENDSEC;
END-ISO-10303-21;
