ISO-10303-21;
HEADER;
/* Generated by software containing ST-Developer
 * from STEP Tools, Inc. (www.steptools.com) 
 */

FILE_DESCRIPTION(
/* description */ (''),
/* implementation_level */ '2;1');

FILE_NAME(
/* name */ 
'C:\\Users\\designnet\\AppData\\Local\\Temp\\derivatives\\21224_18ba4a
ba\\AssemblyExtractor\\21224_18ba4aba\\a47dcf0a-05a3-11ec-9120-020a4e4
6e3ef.step',
/* time_stamp */ '2021-08-25T12:55:04+00:00',
/* author */ (''),
/* organization */ (''),
/* preprocessor_version */ 'ST-DEVELOPER v18.1',
/* originating_system */ 'Autodesk Translation Framework v10.6.0.1341',

/* authorisation */ '');

FILE_SCHEMA (('AUTOMOTIVE_DESIGN { 1 0 10303 214 3 1 1 }'));
ENDSEC;

DATA;
#10=MECHANICAL_DESIGN_GEOMETRIC_PRESENTATION_REPRESENTATION('',(#13),#1256);
#11=SHAPE_REPRESENTATION_RELATIONSHIP('SRR','None',#1263,#12);
#12=ADVANCED_BREP_SHAPE_REPRESENTATION('',(#14),#1255);
#13=STYLED_ITEM('',(#1272),#14);
#14=MANIFOLD_SOLID_BREP('Body1',#696);
#15=FACE_BOUND('',#104,.T.);
#16=FACE_BOUND('',#115,.T.);
#17=TOROIDAL_SURFACE('',#729,0.03302,0.00762);
#18=TOROIDAL_SURFACE('',#736,0.03302,0.00762);
#19=TOROIDAL_SURFACE('',#742,0.03302,0.00762);
#20=TOROIDAL_SURFACE('',#748,0.03302,0.00762);
#21=TOROIDAL_SURFACE('',#762,0.03302,0.00762);
#22=TOROIDAL_SURFACE('',#768,0.03302,0.00762);
#23=TOROIDAL_SURFACE('',#774,0.03302,0.00762);
#24=TOROIDAL_SURFACE('',#780,0.03302,0.00762);
#25=B_SPLINE_SURFACE_WITH_KNOTS('',3,1,((#1086,#1087),(#1088,#1089),(#1090,
#1091),(#1092,#1093)),.UNSPECIFIED.,.F.,.F.,.F.,(4,4),(2,2),(-46.0997460877705,
-45.659178825628),(0.,0.0508),.UNSPECIFIED.);
#26=PLANE('',#716);
#27=PLANE('',#717);
#28=PLANE('',#724);
#29=PLANE('',#725);
#30=PLANE('',#728);
#31=PLANE('',#753);
#32=PLANE('',#756);
#33=PLANE('',#759);
#34=PLANE('',#784);
#35=PLANE('',#785);
#36=PLANE('',#790);
#37=PLANE('',#792);
#38=PLANE('',#798);
#39=FACE_OUTER_BOUND('',#81,.T.);
#40=FACE_OUTER_BOUND('',#82,.T.);
#41=FACE_OUTER_BOUND('',#83,.T.);
#42=FACE_OUTER_BOUND('',#84,.T.);
#43=FACE_OUTER_BOUND('',#85,.T.);
#44=FACE_OUTER_BOUND('',#86,.T.);
#45=FACE_OUTER_BOUND('',#87,.T.);
#46=FACE_OUTER_BOUND('',#88,.T.);
#47=FACE_OUTER_BOUND('',#89,.T.);
#48=FACE_OUTER_BOUND('',#90,.T.);
#49=FACE_OUTER_BOUND('',#91,.T.);
#50=FACE_OUTER_BOUND('',#92,.T.);
#51=FACE_OUTER_BOUND('',#93,.T.);
#52=FACE_OUTER_BOUND('',#94,.T.);
#53=FACE_OUTER_BOUND('',#95,.T.);
#54=FACE_OUTER_BOUND('',#96,.T.);
#55=FACE_OUTER_BOUND('',#97,.T.);
#56=FACE_OUTER_BOUND('',#98,.T.);
#57=FACE_OUTER_BOUND('',#99,.T.);
#58=FACE_OUTER_BOUND('',#100,.T.);
#59=FACE_OUTER_BOUND('',#101,.T.);
#60=FACE_OUTER_BOUND('',#102,.T.);
#61=FACE_OUTER_BOUND('',#103,.T.);
#62=FACE_OUTER_BOUND('',#105,.T.);
#63=FACE_OUTER_BOUND('',#106,.T.);
#64=FACE_OUTER_BOUND('',#107,.T.);
#65=FACE_OUTER_BOUND('',#108,.T.);
#66=FACE_OUTER_BOUND('',#109,.T.);
#67=FACE_OUTER_BOUND('',#110,.T.);
#68=FACE_OUTER_BOUND('',#111,.T.);
#69=FACE_OUTER_BOUND('',#112,.T.);
#70=FACE_OUTER_BOUND('',#113,.T.);
#71=FACE_OUTER_BOUND('',#114,.T.);
#72=FACE_OUTER_BOUND('',#116,.T.);
#73=FACE_OUTER_BOUND('',#117,.T.);
#74=FACE_OUTER_BOUND('',#118,.T.);
#75=FACE_OUTER_BOUND('',#119,.T.);
#76=FACE_OUTER_BOUND('',#120,.T.);
#77=FACE_OUTER_BOUND('',#121,.T.);
#78=FACE_OUTER_BOUND('',#122,.T.);
#79=FACE_OUTER_BOUND('',#123,.T.);
#80=FACE_OUTER_BOUND('',#124,.T.);
#81=EDGE_LOOP('',(#434,#435,#436,#437));
#82=EDGE_LOOP('',(#438,#439,#440,#441));
#83=EDGE_LOOP('',(#442,#443,#444,#445));
#84=EDGE_LOOP('',(#446,#447,#448,#449,#450,#451,#452));
#85=EDGE_LOOP('',(#453,#454,#455,#456));
#86=EDGE_LOOP('',(#457,#458,#459,#460));
#87=EDGE_LOOP('',(#461,#462,#463,#464));
#88=EDGE_LOOP('',(#465,#466,#467,#468));
#89=EDGE_LOOP('',(#469,#470,#471,#472,#473,#474));
#90=EDGE_LOOP('',(#475,#476,#477,#478,#479,#480,#481));
#91=EDGE_LOOP('',(#482,#483,#484,#485));
#92=EDGE_LOOP('',(#486,#487,#488,#489));
#93=EDGE_LOOP('',(#490,#491,#492,#493));
#94=EDGE_LOOP('',(#494,#495,#496,#497));
#95=EDGE_LOOP('',(#498,#499,#500,#501));
#96=EDGE_LOOP('',(#502,#503,#504,#505));
#97=EDGE_LOOP('',(#506,#507,#508,#509));
#98=EDGE_LOOP('',(#510,#511,#512,#513));
#99=EDGE_LOOP('',(#514,#515,#516,#517));
#100=EDGE_LOOP('',(#518,#519,#520,#521));
#101=EDGE_LOOP('',(#522,#523,#524,#525));
#102=EDGE_LOOP('',(#526,#527,#528,#529));
#103=EDGE_LOOP('',(#530,#531,#532,#533,#534,#535));
#104=EDGE_LOOP('',(#536,#537,#538,#539,#540,#541,#542,#543));
#105=EDGE_LOOP('',(#544,#545,#546,#547));
#106=EDGE_LOOP('',(#548,#549,#550,#551));
#107=EDGE_LOOP('',(#552,#553,#554,#555));
#108=EDGE_LOOP('',(#556,#557,#558,#559));
#109=EDGE_LOOP('',(#560,#561,#562,#563));
#110=EDGE_LOOP('',(#564,#565,#566,#567));
#111=EDGE_LOOP('',(#568,#569,#570,#571));
#112=EDGE_LOOP('',(#572,#573,#574,#575));
#113=EDGE_LOOP('',(#576,#577,#578,#579));
#114=EDGE_LOOP('',(#580,#581,#582,#583,#584,#585));
#115=EDGE_LOOP('',(#586,#587,#588,#589,#590,#591,#592,#593));
#116=EDGE_LOOP('',(#594,#595,#596,#597));
#117=EDGE_LOOP('',(#598,#599,#600,#601));
#118=EDGE_LOOP('',(#602,#603,#604,#605));
#119=EDGE_LOOP('',(#606,#607,#608,#609));
#120=EDGE_LOOP('',(#610,#611,#612,#613));
#121=EDGE_LOOP('',(#614,#615,#616,#617));
#122=EDGE_LOOP('',(#618,#619,#620,#621,#622));
#123=EDGE_LOOP('',(#623,#624,#625,#626,#627));
#124=EDGE_LOOP('',(#628,#629,#630,#631,#632,#633));
#125=B_SPLINE_CURVE_WITH_KNOTS('',3,(#1037,#1038,#1039,#1040,#1041,#1042,
#1043,#1044),.UNSPECIFIED.,.F.,.F.,(4,2,2,4),(-0.0381,-0.019799028331763,
-0.000749028331762948,0.),.UNSPECIFIED.);
#126=B_SPLINE_CURVE_WITH_KNOTS('',3,(#1059,#1060,#1061,#1062,#1063,#1064),
 .UNSPECIFIED.,.F.,.F.,(4,2,4),(0.0593150675395731,0.228985031210549,0.457927288042153),
 .UNSPECIFIED.);
#127=B_SPLINE_CURVE_WITH_KNOTS('',3,(#1094,#1095,#1096,#1097),
 .UNSPECIFIED.,.F.,.F.,(4,4),(-46.0997460877705,-45.7162374991213),
 .UNSPECIFIED.);
#128=LINE('',#1034,#177);
#129=LINE('',#1050,#178);
#130=LINE('',#1053,#179);
#131=LINE('',#1055,#180);
#132=LINE('',#1056,#181);
#133=LINE('',#1068,#182);
#134=LINE('',#1072,#183);
#135=LINE('',#1076,#184);
#136=LINE('',#1079,#185);
#137=LINE('',#1082,#186);
#138=LINE('',#1084,#187);
#139=LINE('',#1085,#188);
#140=LINE('',#1102,#189);
#141=LINE('',#1104,#190);
#142=LINE('',#1106,#191);
#143=LINE('',#1109,#192);
#144=LINE('',#1123,#193);
#145=LINE('',#1124,#194);
#146=LINE('',#1135,#195);
#147=LINE('',#1136,#196);
#148=LINE('',#1147,#197);
#149=LINE('',#1148,#198);
#150=LINE('',#1156,#199);
#151=LINE('',#1157,#200);
#152=LINE('',#1160,#201);
#153=LINE('',#1162,#202);
#154=LINE('',#1163,#203);
#155=LINE('',#1166,#204);
#156=LINE('',#1170,#205);
#157=LINE('',#1171,#206);
#158=LINE('',#1174,#207);
#159=LINE('',#1180,#208);
#160=LINE('',#1184,#209);
#161=LINE('',#1185,#210);
#162=LINE('',#1195,#211);
#163=LINE('',#1206,#212);
#164=LINE('',#1207,#213);
#165=LINE('',#1217,#214);
#166=LINE('',#1218,#215);
#167=LINE('',#1224,#216);
#168=LINE('',#1226,#217);
#169=LINE('',#1231,#218);
#170=LINE('',#1233,#219);
#171=LINE('',#1236,#220);
#172=LINE('',#1238,#221);
#173=LINE('',#1240,#222);
#174=LINE('',#1243,#223);
#175=LINE('',#1245,#224);
#176=LINE('',#1247,#225);
#177=VECTOR('',#805,1.);
#178=VECTOR('',#812,1.);
#179=VECTOR('',#815,1.);
#180=VECTOR('',#818,1.);
#181=VECTOR('',#819,1.);
#182=VECTOR('',#824,1.);
#183=VECTOR('',#829,1.);
#184=VECTOR('',#834,1.);
#185=VECTOR('',#837,1.);
#186=VECTOR('',#840,1.);
#187=VECTOR('',#841,1.);
#188=VECTOR('',#842,1.);
#189=VECTOR('',#847,1.);
#190=VECTOR('',#848,1.);
#191=VECTOR('',#849,1.);
#192=VECTOR('',#854,1.);
#193=VECTOR('',#869,1.);
#194=VECTOR('',#870,1.);
#195=VECTOR('',#883,1.);
#196=VECTOR('',#884,1.);
#197=VECTOR('',#897,1.);
#198=VECTOR('',#898,1.);
#199=VECTOR('',#909,1.);
#200=VECTOR('',#910,1.);
#201=VECTOR('',#913,1.);
#202=VECTOR('',#914,1.);
#203=VECTOR('',#915,1.);
#204=VECTOR('',#918,1.);
#205=VECTOR('',#923,1.);
#206=VECTOR('',#924,1.);
#207=VECTOR('',#927,1.);
#208=VECTOR('',#934,1.);
#209=VECTOR('',#937,1.);
#210=VECTOR('',#938,1.);
#211=VECTOR('',#951,1.);
#212=VECTOR('',#964,1.);
#213=VECTOR('',#965,1.);
#214=VECTOR('',#978,1.);
#215=VECTOR('',#979,1.);
#216=VECTOR('',#988,1.);
#217=VECTOR('',#991,1.);
#218=VECTOR('',#996,1.);
#219=VECTOR('',#997,1.);
#220=VECTOR('',#1000,1.);
#221=VECTOR('',#1003,1.);
#222=VECTOR('',#1006,1.);
#223=VECTOR('',#1011,1.);
#224=VECTOR('',#1014,1.);
#225=VECTOR('',#1017,1.);
#226=CIRCLE('',#711,0.0707160938785486);
#227=CIRCLE('',#712,0.0707160938785486);
#228=CIRCLE('',#714,0.0704249569376324);
#229=CIRCLE('',#715,0.0704249569376324);
#230=CIRCLE('',#718,13.9784344996233);
#231=CIRCLE('',#719,13.7706708880589);
#232=CIRCLE('',#721,13.7706708880589);
#233=CIRCLE('',#723,13.9784344996233);
#234=CIRCLE('',#726,0.0967008224812401);
#235=CIRCLE('',#727,0.058571287952203);
#236=CIRCLE('',#730,0.0076199999999999);
#237=CIRCLE('',#731,0.03302);
#238=CIRCLE('',#732,0.00761999999999977);
#239=CIRCLE('',#733,0.0254);
#240=CIRCLE('',#735,0.00762000000000001);
#241=CIRCLE('',#737,0.00761999999999995);
#242=CIRCLE('',#738,0.0254);
#243=CIRCLE('',#739,0.03302);
#244=CIRCLE('',#741,0.00762000000000001);
#245=CIRCLE('',#743,0.00761999999999993);
#246=CIRCLE('',#744,0.0254);
#247=CIRCLE('',#745,0.03302);
#248=CIRCLE('',#747,0.00762000000000001);
#249=CIRCLE('',#749,0.00761999999999977);
#250=CIRCLE('',#750,0.0254);
#251=CIRCLE('',#751,0.03302);
#252=CIRCLE('',#755,0.0254);
#253=CIRCLE('',#758,0.0254);
#254=CIRCLE('',#760,0.0635);
#255=CIRCLE('',#761,0.0635);
#256=CIRCLE('',#763,0.00762000000000011);
#257=CIRCLE('',#764,0.03302);
#258=CIRCLE('',#765,0.00761999999999999);
#259=CIRCLE('',#767,0.00761999999999993);
#260=CIRCLE('',#769,0.00761999999999993);
#261=CIRCLE('',#770,0.0254);
#262=CIRCLE('',#771,0.03302);
#263=CIRCLE('',#773,0.00761999999999999);
#264=CIRCLE('',#775,0.00761999999999993);
#265=CIRCLE('',#776,0.0254);
#266=CIRCLE('',#777,0.03302);
#267=CIRCLE('',#779,0.00762000000000001);
#268=CIRCLE('',#781,0.00761999999999999);
#269=CIRCLE('',#782,0.03302);
#270=CIRCLE('',#786,0.0635);
#271=CIRCLE('',#787,0.0635);
#272=CIRCLE('',#795,0.0967008224812401);
#273=CIRCLE('',#797,0.058571287952203);
#274=VERTEX_POINT('',#1030);
#275=VERTEX_POINT('',#1031);
#276=VERTEX_POINT('',#1033);
#277=VERTEX_POINT('',#1035);
#278=VERTEX_POINT('',#1046);
#279=VERTEX_POINT('',#1047);
#280=VERTEX_POINT('',#1049);
#281=VERTEX_POINT('',#1051);
#282=VERTEX_POINT('',#1058);
#283=VERTEX_POINT('',#1065);
#284=VERTEX_POINT('',#1067);
#285=VERTEX_POINT('',#1071);
#286=VERTEX_POINT('',#1075);
#287=VERTEX_POINT('',#1077);
#288=VERTEX_POINT('',#1081);
#289=VERTEX_POINT('',#1083);
#290=VERTEX_POINT('',#1099);
#291=VERTEX_POINT('',#1101);
#292=VERTEX_POINT('',#1103);
#293=VERTEX_POINT('',#1105);
#294=VERTEX_POINT('',#1111);
#295=VERTEX_POINT('',#1112);
#296=VERTEX_POINT('',#1114);
#297=VERTEX_POINT('',#1116);
#298=VERTEX_POINT('',#1120);
#299=VERTEX_POINT('',#1121);
#300=VERTEX_POINT('',#1126);
#301=VERTEX_POINT('',#1127);
#302=VERTEX_POINT('',#1132);
#303=VERTEX_POINT('',#1133);
#304=VERTEX_POINT('',#1138);
#305=VERTEX_POINT('',#1139);
#306=VERTEX_POINT('',#1144);
#307=VERTEX_POINT('',#1145);
#308=VERTEX_POINT('',#1150);
#309=VERTEX_POINT('',#1151);
#310=VERTEX_POINT('',#1159);
#311=VERTEX_POINT('',#1161);
#312=VERTEX_POINT('',#1165);
#313=VERTEX_POINT('',#1169);
#314=VERTEX_POINT('',#1173);
#315=VERTEX_POINT('',#1177);
#316=VERTEX_POINT('',#1179);
#317=VERTEX_POINT('',#1181);
#318=VERTEX_POINT('',#1183);
#319=VERTEX_POINT('',#1187);
#320=VERTEX_POINT('',#1189);
#321=VERTEX_POINT('',#1193);
#322=VERTEX_POINT('',#1197);
#323=VERTEX_POINT('',#1198);
#324=VERTEX_POINT('',#1203);
#325=VERTEX_POINT('',#1204);
#326=VERTEX_POINT('',#1209);
#327=VERTEX_POINT('',#1210);
#328=VERTEX_POINT('',#1215);
#329=VERTEX_POINT('',#1220);
#330=VERTEX_POINT('',#1228);
#331=VERTEX_POINT('',#1230);
#332=VERTEX_POINT('',#1232);
#333=VERTEX_POINT('',#1234);
#334=EDGE_CURVE('',#274,#275,#226,.T.);
#335=EDGE_CURVE('',#274,#276,#128,.T.);
#336=EDGE_CURVE('',#277,#276,#227,.T.);
#337=EDGE_CURVE('',#275,#277,#125,.T.);
#338=EDGE_CURVE('',#278,#279,#228,.T.);
#339=EDGE_CURVE('',#278,#280,#129,.T.);
#340=EDGE_CURVE('',#281,#280,#229,.T.);
#341=EDGE_CURVE('',#279,#281,#130,.T.);
#342=EDGE_CURVE('',#279,#274,#131,.T.);
#343=EDGE_CURVE('',#281,#276,#132,.T.);
#344=EDGE_CURVE('',#275,#282,#126,.T.);
#345=EDGE_CURVE('',#282,#283,#230,.T.);
#346=EDGE_CURVE('',#284,#283,#133,.T.);
#347=EDGE_CURVE('',#284,#278,#231,.T.);
#348=EDGE_CURVE('',#285,#284,#134,.T.);
#349=EDGE_CURVE('',#280,#285,#232,.T.);
#350=EDGE_CURVE('',#286,#282,#135,.T.);
#351=EDGE_CURVE('',#287,#286,#233,.T.);
#352=EDGE_CURVE('',#287,#283,#136,.T.);
#353=EDGE_CURVE('',#283,#288,#137,.T.);
#354=EDGE_CURVE('',#287,#289,#138,.T.);
#355=EDGE_CURVE('',#288,#289,#139,.T.);
#356=EDGE_CURVE('',#286,#277,#127,.T.);
#357=EDGE_CURVE('',#289,#290,#234,.T.);
#358=EDGE_CURVE('',#290,#291,#140,.T.);
#359=EDGE_CURVE('',#292,#291,#141,.T.);
#360=EDGE_CURVE('',#292,#293,#142,.T.);
#361=EDGE_CURVE('',#293,#288,#235,.T.);
#362=EDGE_CURVE('',#285,#287,#143,.T.);
#363=EDGE_CURVE('',#294,#295,#236,.T.);
#364=EDGE_CURVE('',#295,#296,#237,.T.);
#365=EDGE_CURVE('',#296,#297,#238,.T.);
#366=EDGE_CURVE('',#297,#294,#239,.T.);
#367=EDGE_CURVE('',#298,#299,#240,.T.);
#368=EDGE_CURVE('',#299,#297,#144,.T.);
#369=EDGE_CURVE('',#296,#298,#145,.T.);
#370=EDGE_CURVE('',#300,#301,#241,.T.);
#371=EDGE_CURVE('',#301,#299,#242,.T.);
#372=EDGE_CURVE('',#298,#300,#243,.T.);
#373=EDGE_CURVE('',#302,#303,#244,.T.);
#374=EDGE_CURVE('',#303,#301,#146,.T.);
#375=EDGE_CURVE('',#300,#302,#147,.T.);
#376=EDGE_CURVE('',#304,#305,#245,.T.);
#377=EDGE_CURVE('',#305,#303,#246,.T.);
#378=EDGE_CURVE('',#302,#304,#247,.T.);
#379=EDGE_CURVE('',#306,#307,#248,.T.);
#380=EDGE_CURVE('',#307,#305,#148,.T.);
#381=EDGE_CURVE('',#304,#306,#149,.T.);
#382=EDGE_CURVE('',#308,#309,#249,.T.);
#383=EDGE_CURVE('',#309,#307,#250,.T.);
#384=EDGE_CURVE('',#306,#308,#251,.T.);
#385=EDGE_CURVE('',#308,#295,#150,.T.);
#386=EDGE_CURVE('',#294,#309,#151,.T.);
#387=EDGE_CURVE('',#310,#307,#152,.T.);
#388=EDGE_CURVE('',#311,#310,#153,.T.);
#389=EDGE_CURVE('',#305,#311,#154,.T.);
#390=EDGE_CURVE('',#309,#312,#155,.T.);
#391=EDGE_CURVE('',#310,#312,#252,.T.);
#392=EDGE_CURVE('',#313,#294,#156,.T.);
#393=EDGE_CURVE('',#312,#313,#157,.T.);
#394=EDGE_CURVE('',#297,#314,#158,.T.);
#395=EDGE_CURVE('',#313,#314,#253,.T.);
#396=EDGE_CURVE('',#315,#292,#254,.T.);
#397=EDGE_CURVE('',#316,#315,#159,.T.);
#398=EDGE_CURVE('',#317,#316,#255,.T.);
#399=EDGE_CURVE('',#317,#318,#160,.T.);
#400=EDGE_CURVE('',#318,#293,#161,.T.);
#401=EDGE_CURVE('',#312,#319,#256,.T.);
#402=EDGE_CURVE('',#319,#320,#257,.T.);
#403=EDGE_CURVE('',#320,#310,#258,.T.);
#404=EDGE_CURVE('',#321,#311,#259,.T.);
#405=EDGE_CURVE('',#320,#321,#162,.T.);
#406=EDGE_CURVE('',#322,#323,#260,.T.);
#407=EDGE_CURVE('',#323,#311,#261,.T.);
#408=EDGE_CURVE('',#321,#322,#262,.T.);
#409=EDGE_CURVE('',#324,#325,#263,.T.);
#410=EDGE_CURVE('',#325,#323,#163,.T.);
#411=EDGE_CURVE('',#322,#324,#164,.T.);
#412=EDGE_CURVE('',#326,#327,#264,.T.);
#413=EDGE_CURVE('',#327,#325,#265,.T.);
#414=EDGE_CURVE('',#324,#326,#266,.T.);
#415=EDGE_CURVE('',#328,#314,#267,.T.);
#416=EDGE_CURVE('',#314,#327,#165,.T.);
#417=EDGE_CURVE('',#326,#328,#166,.T.);
#418=EDGE_CURVE('',#329,#313,#268,.T.);
#419=EDGE_CURVE('',#328,#329,#269,.T.);
#420=EDGE_CURVE('',#329,#319,#167,.T.);
#421=EDGE_CURVE('',#327,#299,#168,.T.);
#422=EDGE_CURVE('',#291,#330,#270,.T.);
#423=EDGE_CURVE('',#331,#290,#169,.T.);
#424=EDGE_CURVE('',#332,#331,#170,.T.);
#425=EDGE_CURVE('',#333,#332,#271,.T.);
#426=EDGE_CURVE('',#333,#330,#171,.T.);
#427=EDGE_CURVE('',#301,#325,#172,.T.);
#428=EDGE_CURVE('',#323,#303,#173,.T.);
#429=EDGE_CURVE('',#330,#315,#174,.T.);
#430=EDGE_CURVE('',#316,#333,#175,.T.);
#431=EDGE_CURVE('',#332,#317,#176,.T.);
#432=EDGE_CURVE('',#331,#285,#272,.T.);
#433=EDGE_CURVE('',#318,#284,#273,.T.);
#434=ORIENTED_EDGE('',*,*,#334,.F.);
#435=ORIENTED_EDGE('',*,*,#335,.T.);
#436=ORIENTED_EDGE('',*,*,#336,.F.);
#437=ORIENTED_EDGE('',*,*,#337,.F.);
#438=ORIENTED_EDGE('',*,*,#338,.F.);
#439=ORIENTED_EDGE('',*,*,#339,.T.);
#440=ORIENTED_EDGE('',*,*,#340,.F.);
#441=ORIENTED_EDGE('',*,*,#341,.F.);
#442=ORIENTED_EDGE('',*,*,#335,.F.);
#443=ORIENTED_EDGE('',*,*,#342,.F.);
#444=ORIENTED_EDGE('',*,*,#341,.T.);
#445=ORIENTED_EDGE('',*,*,#343,.T.);
#446=ORIENTED_EDGE('',*,*,#334,.T.);
#447=ORIENTED_EDGE('',*,*,#344,.T.);
#448=ORIENTED_EDGE('',*,*,#345,.T.);
#449=ORIENTED_EDGE('',*,*,#346,.F.);
#450=ORIENTED_EDGE('',*,*,#347,.T.);
#451=ORIENTED_EDGE('',*,*,#338,.T.);
#452=ORIENTED_EDGE('',*,*,#342,.T.);
#453=ORIENTED_EDGE('',*,*,#339,.F.);
#454=ORIENTED_EDGE('',*,*,#347,.F.);
#455=ORIENTED_EDGE('',*,*,#348,.F.);
#456=ORIENTED_EDGE('',*,*,#349,.F.);
#457=ORIENTED_EDGE('',*,*,#345,.F.);
#458=ORIENTED_EDGE('',*,*,#350,.F.);
#459=ORIENTED_EDGE('',*,*,#351,.F.);
#460=ORIENTED_EDGE('',*,*,#352,.T.);
#461=ORIENTED_EDGE('',*,*,#353,.F.);
#462=ORIENTED_EDGE('',*,*,#352,.F.);
#463=ORIENTED_EDGE('',*,*,#354,.T.);
#464=ORIENTED_EDGE('',*,*,#355,.F.);
#465=ORIENTED_EDGE('',*,*,#337,.T.);
#466=ORIENTED_EDGE('',*,*,#356,.F.);
#467=ORIENTED_EDGE('',*,*,#350,.T.);
#468=ORIENTED_EDGE('',*,*,#344,.F.);
#469=ORIENTED_EDGE('',*,*,#355,.T.);
#470=ORIENTED_EDGE('',*,*,#357,.T.);
#471=ORIENTED_EDGE('',*,*,#358,.T.);
#472=ORIENTED_EDGE('',*,*,#359,.F.);
#473=ORIENTED_EDGE('',*,*,#360,.T.);
#474=ORIENTED_EDGE('',*,*,#361,.T.);
#475=ORIENTED_EDGE('',*,*,#336,.T.);
#476=ORIENTED_EDGE('',*,*,#343,.F.);
#477=ORIENTED_EDGE('',*,*,#340,.T.);
#478=ORIENTED_EDGE('',*,*,#349,.T.);
#479=ORIENTED_EDGE('',*,*,#362,.T.);
#480=ORIENTED_EDGE('',*,*,#351,.T.);
#481=ORIENTED_EDGE('',*,*,#356,.T.);
#482=ORIENTED_EDGE('',*,*,#363,.T.);
#483=ORIENTED_EDGE('',*,*,#364,.T.);
#484=ORIENTED_EDGE('',*,*,#365,.T.);
#485=ORIENTED_EDGE('',*,*,#366,.T.);
#486=ORIENTED_EDGE('',*,*,#367,.T.);
#487=ORIENTED_EDGE('',*,*,#368,.T.);
#488=ORIENTED_EDGE('',*,*,#365,.F.);
#489=ORIENTED_EDGE('',*,*,#369,.T.);
#490=ORIENTED_EDGE('',*,*,#370,.T.);
#491=ORIENTED_EDGE('',*,*,#371,.T.);
#492=ORIENTED_EDGE('',*,*,#367,.F.);
#493=ORIENTED_EDGE('',*,*,#372,.T.);
#494=ORIENTED_EDGE('',*,*,#373,.T.);
#495=ORIENTED_EDGE('',*,*,#374,.T.);
#496=ORIENTED_EDGE('',*,*,#370,.F.);
#497=ORIENTED_EDGE('',*,*,#375,.T.);
#498=ORIENTED_EDGE('',*,*,#376,.T.);
#499=ORIENTED_EDGE('',*,*,#377,.T.);
#500=ORIENTED_EDGE('',*,*,#373,.F.);
#501=ORIENTED_EDGE('',*,*,#378,.T.);
#502=ORIENTED_EDGE('',*,*,#379,.T.);
#503=ORIENTED_EDGE('',*,*,#380,.T.);
#504=ORIENTED_EDGE('',*,*,#376,.F.);
#505=ORIENTED_EDGE('',*,*,#381,.T.);
#506=ORIENTED_EDGE('',*,*,#382,.T.);
#507=ORIENTED_EDGE('',*,*,#383,.T.);
#508=ORIENTED_EDGE('',*,*,#379,.F.);
#509=ORIENTED_EDGE('',*,*,#384,.T.);
#510=ORIENTED_EDGE('',*,*,#382,.F.);
#511=ORIENTED_EDGE('',*,*,#385,.T.);
#512=ORIENTED_EDGE('',*,*,#363,.F.);
#513=ORIENTED_EDGE('',*,*,#386,.T.);
#514=ORIENTED_EDGE('',*,*,#380,.F.);
#515=ORIENTED_EDGE('',*,*,#387,.F.);
#516=ORIENTED_EDGE('',*,*,#388,.F.);
#517=ORIENTED_EDGE('',*,*,#389,.F.);
#518=ORIENTED_EDGE('',*,*,#383,.F.);
#519=ORIENTED_EDGE('',*,*,#390,.T.);
#520=ORIENTED_EDGE('',*,*,#391,.F.);
#521=ORIENTED_EDGE('',*,*,#387,.T.);
#522=ORIENTED_EDGE('',*,*,#386,.F.);
#523=ORIENTED_EDGE('',*,*,#392,.F.);
#524=ORIENTED_EDGE('',*,*,#393,.F.);
#525=ORIENTED_EDGE('',*,*,#390,.F.);
#526=ORIENTED_EDGE('',*,*,#366,.F.);
#527=ORIENTED_EDGE('',*,*,#394,.T.);
#528=ORIENTED_EDGE('',*,*,#395,.F.);
#529=ORIENTED_EDGE('',*,*,#392,.T.);
#530=ORIENTED_EDGE('',*,*,#396,.F.);
#531=ORIENTED_EDGE('',*,*,#397,.F.);
#532=ORIENTED_EDGE('',*,*,#398,.F.);
#533=ORIENTED_EDGE('',*,*,#399,.T.);
#534=ORIENTED_EDGE('',*,*,#400,.T.);
#535=ORIENTED_EDGE('',*,*,#360,.F.);
#536=ORIENTED_EDGE('',*,*,#364,.F.);
#537=ORIENTED_EDGE('',*,*,#385,.F.);
#538=ORIENTED_EDGE('',*,*,#384,.F.);
#539=ORIENTED_EDGE('',*,*,#381,.F.);
#540=ORIENTED_EDGE('',*,*,#378,.F.);
#541=ORIENTED_EDGE('',*,*,#375,.F.);
#542=ORIENTED_EDGE('',*,*,#372,.F.);
#543=ORIENTED_EDGE('',*,*,#369,.F.);
#544=ORIENTED_EDGE('',*,*,#401,.T.);
#545=ORIENTED_EDGE('',*,*,#402,.T.);
#546=ORIENTED_EDGE('',*,*,#403,.T.);
#547=ORIENTED_EDGE('',*,*,#391,.T.);
#548=ORIENTED_EDGE('',*,*,#404,.T.);
#549=ORIENTED_EDGE('',*,*,#388,.T.);
#550=ORIENTED_EDGE('',*,*,#403,.F.);
#551=ORIENTED_EDGE('',*,*,#405,.T.);
#552=ORIENTED_EDGE('',*,*,#406,.T.);
#553=ORIENTED_EDGE('',*,*,#407,.T.);
#554=ORIENTED_EDGE('',*,*,#404,.F.);
#555=ORIENTED_EDGE('',*,*,#408,.T.);
#556=ORIENTED_EDGE('',*,*,#409,.T.);
#557=ORIENTED_EDGE('',*,*,#410,.T.);
#558=ORIENTED_EDGE('',*,*,#406,.F.);
#559=ORIENTED_EDGE('',*,*,#411,.T.);
#560=ORIENTED_EDGE('',*,*,#412,.T.);
#561=ORIENTED_EDGE('',*,*,#413,.T.);
#562=ORIENTED_EDGE('',*,*,#409,.F.);
#563=ORIENTED_EDGE('',*,*,#414,.T.);
#564=ORIENTED_EDGE('',*,*,#415,.T.);
#565=ORIENTED_EDGE('',*,*,#416,.T.);
#566=ORIENTED_EDGE('',*,*,#412,.F.);
#567=ORIENTED_EDGE('',*,*,#417,.T.);
#568=ORIENTED_EDGE('',*,*,#418,.T.);
#569=ORIENTED_EDGE('',*,*,#395,.T.);
#570=ORIENTED_EDGE('',*,*,#415,.F.);
#571=ORIENTED_EDGE('',*,*,#419,.T.);
#572=ORIENTED_EDGE('',*,*,#418,.F.);
#573=ORIENTED_EDGE('',*,*,#420,.T.);
#574=ORIENTED_EDGE('',*,*,#401,.F.);
#575=ORIENTED_EDGE('',*,*,#393,.T.);
#576=ORIENTED_EDGE('',*,*,#368,.F.);
#577=ORIENTED_EDGE('',*,*,#421,.F.);
#578=ORIENTED_EDGE('',*,*,#416,.F.);
#579=ORIENTED_EDGE('',*,*,#394,.F.);
#580=ORIENTED_EDGE('',*,*,#422,.F.);
#581=ORIENTED_EDGE('',*,*,#358,.F.);
#582=ORIENTED_EDGE('',*,*,#423,.F.);
#583=ORIENTED_EDGE('',*,*,#424,.F.);
#584=ORIENTED_EDGE('',*,*,#425,.F.);
#585=ORIENTED_EDGE('',*,*,#426,.T.);
#586=ORIENTED_EDGE('',*,*,#402,.F.);
#587=ORIENTED_EDGE('',*,*,#420,.F.);
#588=ORIENTED_EDGE('',*,*,#419,.F.);
#589=ORIENTED_EDGE('',*,*,#417,.F.);
#590=ORIENTED_EDGE('',*,*,#414,.F.);
#591=ORIENTED_EDGE('',*,*,#411,.F.);
#592=ORIENTED_EDGE('',*,*,#408,.F.);
#593=ORIENTED_EDGE('',*,*,#405,.F.);
#594=ORIENTED_EDGE('',*,*,#371,.F.);
#595=ORIENTED_EDGE('',*,*,#427,.T.);
#596=ORIENTED_EDGE('',*,*,#413,.F.);
#597=ORIENTED_EDGE('',*,*,#421,.T.);
#598=ORIENTED_EDGE('',*,*,#377,.F.);
#599=ORIENTED_EDGE('',*,*,#389,.T.);
#600=ORIENTED_EDGE('',*,*,#407,.F.);
#601=ORIENTED_EDGE('',*,*,#428,.T.);
#602=ORIENTED_EDGE('',*,*,#374,.F.);
#603=ORIENTED_EDGE('',*,*,#428,.F.);
#604=ORIENTED_EDGE('',*,*,#410,.F.);
#605=ORIENTED_EDGE('',*,*,#427,.F.);
#606=ORIENTED_EDGE('',*,*,#396,.T.);
#607=ORIENTED_EDGE('',*,*,#359,.T.);
#608=ORIENTED_EDGE('',*,*,#422,.T.);
#609=ORIENTED_EDGE('',*,*,#429,.T.);
#610=ORIENTED_EDGE('',*,*,#429,.F.);
#611=ORIENTED_EDGE('',*,*,#426,.F.);
#612=ORIENTED_EDGE('',*,*,#430,.F.);
#613=ORIENTED_EDGE('',*,*,#397,.T.);
#614=ORIENTED_EDGE('',*,*,#398,.T.);
#615=ORIENTED_EDGE('',*,*,#430,.T.);
#616=ORIENTED_EDGE('',*,*,#425,.T.);
#617=ORIENTED_EDGE('',*,*,#431,.T.);
#618=ORIENTED_EDGE('',*,*,#432,.F.);
#619=ORIENTED_EDGE('',*,*,#423,.T.);
#620=ORIENTED_EDGE('',*,*,#357,.F.);
#621=ORIENTED_EDGE('',*,*,#354,.F.);
#622=ORIENTED_EDGE('',*,*,#362,.F.);
#623=ORIENTED_EDGE('',*,*,#433,.T.);
#624=ORIENTED_EDGE('',*,*,#346,.T.);
#625=ORIENTED_EDGE('',*,*,#353,.T.);
#626=ORIENTED_EDGE('',*,*,#361,.F.);
#627=ORIENTED_EDGE('',*,*,#400,.F.);
#628=ORIENTED_EDGE('',*,*,#348,.T.);
#629=ORIENTED_EDGE('',*,*,#433,.F.);
#630=ORIENTED_EDGE('',*,*,#399,.F.);
#631=ORIENTED_EDGE('',*,*,#431,.F.);
#632=ORIENTED_EDGE('',*,*,#424,.T.);
#633=ORIENTED_EDGE('',*,*,#432,.T.);
#634=CYLINDRICAL_SURFACE('',#710,0.0707160938785486);
#635=CYLINDRICAL_SURFACE('',#713,0.0704249569376324);
#636=CYLINDRICAL_SURFACE('',#720,13.7706708880589);
#637=CYLINDRICAL_SURFACE('',#722,13.9784344996233);
#638=CYLINDRICAL_SURFACE('',#734,0.00762);
#639=CYLINDRICAL_SURFACE('',#740,0.00762);
#640=CYLINDRICAL_SURFACE('',#746,0.00762);
#641=CYLINDRICAL_SURFACE('',#752,0.00762);
#642=CYLINDRICAL_SURFACE('',#754,0.0254);
#643=CYLINDRICAL_SURFACE('',#757,0.0254);
#644=CYLINDRICAL_SURFACE('',#766,0.00762);
#645=CYLINDRICAL_SURFACE('',#772,0.00762);
#646=CYLINDRICAL_SURFACE('',#778,0.00762);
#647=CYLINDRICAL_SURFACE('',#783,0.00762);
#648=CYLINDRICAL_SURFACE('',#788,0.0254);
#649=CYLINDRICAL_SURFACE('',#789,0.0254);
#650=CYLINDRICAL_SURFACE('',#791,0.0635);
#651=CYLINDRICAL_SURFACE('',#793,0.0635);
#652=CYLINDRICAL_SURFACE('',#794,0.0967008224812401);
#653=CYLINDRICAL_SURFACE('',#796,0.058571287952203);
#654=ADVANCED_FACE('',(#39),#634,.T.);
#655=ADVANCED_FACE('',(#40),#635,.T.);
#656=ADVANCED_FACE('',(#41),#26,.T.);
#657=ADVANCED_FACE('',(#42),#27,.T.);
#658=ADVANCED_FACE('',(#43),#636,.T.);
#659=ADVANCED_FACE('',(#44),#637,.T.);
#660=ADVANCED_FACE('',(#45),#28,.F.);
#661=ADVANCED_FACE('',(#46),#25,.F.);
#662=ADVANCED_FACE('',(#47),#29,.F.);
#663=ADVANCED_FACE('',(#48),#30,.T.);
#664=ADVANCED_FACE('',(#49),#17,.T.);
#665=ADVANCED_FACE('',(#50),#638,.T.);
#666=ADVANCED_FACE('',(#51),#18,.T.);
#667=ADVANCED_FACE('',(#52),#639,.T.);
#668=ADVANCED_FACE('',(#53),#19,.T.);
#669=ADVANCED_FACE('',(#54),#640,.T.);
#670=ADVANCED_FACE('',(#55),#20,.T.);
#671=ADVANCED_FACE('',(#56),#641,.T.);
#672=ADVANCED_FACE('',(#57),#31,.F.);
#673=ADVANCED_FACE('',(#58),#642,.F.);
#674=ADVANCED_FACE('',(#59),#32,.F.);
#675=ADVANCED_FACE('',(#60),#643,.F.);
#676=ADVANCED_FACE('',(#61,#15),#33,.T.);
#677=ADVANCED_FACE('',(#62),#21,.T.);
#678=ADVANCED_FACE('',(#63),#644,.T.);
#679=ADVANCED_FACE('',(#64),#22,.T.);
#680=ADVANCED_FACE('',(#65),#645,.T.);
#681=ADVANCED_FACE('',(#66),#23,.T.);
#682=ADVANCED_FACE('',(#67),#646,.T.);
#683=ADVANCED_FACE('',(#68),#24,.T.);
#684=ADVANCED_FACE('',(#69),#647,.T.);
#685=ADVANCED_FACE('',(#70),#34,.F.);
#686=ADVANCED_FACE('',(#71,#16),#35,.T.);
#687=ADVANCED_FACE('',(#72),#648,.F.);
#688=ADVANCED_FACE('',(#73),#649,.F.);
#689=ADVANCED_FACE('',(#74),#36,.F.);
#690=ADVANCED_FACE('',(#75),#650,.T.);
#691=ADVANCED_FACE('',(#76),#37,.T.);
#692=ADVANCED_FACE('',(#77),#651,.T.);
#693=ADVANCED_FACE('',(#78),#652,.T.);
#694=ADVANCED_FACE('',(#79),#653,.F.);
#695=ADVANCED_FACE('',(#80),#38,.T.);
#696=CLOSED_SHELL('',(#654,#655,#656,#657,#658,#659,#660,#661,#662,#663,
#664,#665,#666,#667,#668,#669,#670,#671,#672,#673,#674,#675,#676,#677,#678,
#679,#680,#681,#682,#683,#684,#685,#686,#687,#688,#689,#690,#691,#692,#693,
#694,#695));
#697=DERIVED_UNIT_ELEMENT(#699,1.);
#698=DERIVED_UNIT_ELEMENT(#1258,-3.);
#699=(
MASS_UNIT()
NAMED_UNIT(*)
SI_UNIT(.KILO.,.GRAM.)
);
#700=DERIVED_UNIT((#697,#698));
#701=MEASURE_REPRESENTATION_ITEM('density measure',
POSITIVE_RATIO_MEASURE(7850.),#700);
#702=PROPERTY_DEFINITION_REPRESENTATION(#707,#704);
#703=PROPERTY_DEFINITION_REPRESENTATION(#708,#705);
#704=REPRESENTATION('material name',(#706),#1255);
#705=REPRESENTATION('density',(#701),#1255);
#706=DESCRIPTIVE_REPRESENTATION_ITEM('Steel','Steel');
#707=PROPERTY_DEFINITION('material property','material name',#1265);
#708=PROPERTY_DEFINITION('material property','density of part',#1265);
#709=AXIS2_PLACEMENT_3D('placement',#1028,#799,#800);
#710=AXIS2_PLACEMENT_3D('',#1029,#801,#802);
#711=AXIS2_PLACEMENT_3D('',#1032,#803,#804);
#712=AXIS2_PLACEMENT_3D('',#1036,#806,#807);
#713=AXIS2_PLACEMENT_3D('',#1045,#808,#809);
#714=AXIS2_PLACEMENT_3D('',#1048,#810,#811);
#715=AXIS2_PLACEMENT_3D('',#1052,#813,#814);
#716=AXIS2_PLACEMENT_3D('',#1054,#816,#817);
#717=AXIS2_PLACEMENT_3D('',#1057,#820,#821);
#718=AXIS2_PLACEMENT_3D('',#1066,#822,#823);
#719=AXIS2_PLACEMENT_3D('',#1069,#825,#826);
#720=AXIS2_PLACEMENT_3D('',#1070,#827,#828);
#721=AXIS2_PLACEMENT_3D('',#1073,#830,#831);
#722=AXIS2_PLACEMENT_3D('',#1074,#832,#833);
#723=AXIS2_PLACEMENT_3D('',#1078,#835,#836);
#724=AXIS2_PLACEMENT_3D('',#1080,#838,#839);
#725=AXIS2_PLACEMENT_3D('',#1098,#843,#844);
#726=AXIS2_PLACEMENT_3D('',#1100,#845,#846);
#727=AXIS2_PLACEMENT_3D('',#1107,#850,#851);
#728=AXIS2_PLACEMENT_3D('',#1108,#852,#853);
#729=AXIS2_PLACEMENT_3D('',#1110,#855,#856);
#730=AXIS2_PLACEMENT_3D('',#1113,#857,#858);
#731=AXIS2_PLACEMENT_3D('',#1115,#859,#860);
#732=AXIS2_PLACEMENT_3D('',#1117,#861,#862);
#733=AXIS2_PLACEMENT_3D('',#1118,#863,#864);
#734=AXIS2_PLACEMENT_3D('',#1119,#865,#866);
#735=AXIS2_PLACEMENT_3D('',#1122,#867,#868);
#736=AXIS2_PLACEMENT_3D('',#1125,#871,#872);
#737=AXIS2_PLACEMENT_3D('',#1128,#873,#874);
#738=AXIS2_PLACEMENT_3D('',#1129,#875,#876);
#739=AXIS2_PLACEMENT_3D('',#1130,#877,#878);
#740=AXIS2_PLACEMENT_3D('',#1131,#879,#880);
#741=AXIS2_PLACEMENT_3D('',#1134,#881,#882);
#742=AXIS2_PLACEMENT_3D('',#1137,#885,#886);
#743=AXIS2_PLACEMENT_3D('',#1140,#887,#888);
#744=AXIS2_PLACEMENT_3D('',#1141,#889,#890);
#745=AXIS2_PLACEMENT_3D('',#1142,#891,#892);
#746=AXIS2_PLACEMENT_3D('',#1143,#893,#894);
#747=AXIS2_PLACEMENT_3D('',#1146,#895,#896);
#748=AXIS2_PLACEMENT_3D('',#1149,#899,#900);
#749=AXIS2_PLACEMENT_3D('',#1152,#901,#902);
#750=AXIS2_PLACEMENT_3D('',#1153,#903,#904);
#751=AXIS2_PLACEMENT_3D('',#1154,#905,#906);
#752=AXIS2_PLACEMENT_3D('',#1155,#907,#908);
#753=AXIS2_PLACEMENT_3D('',#1158,#911,#912);
#754=AXIS2_PLACEMENT_3D('',#1164,#916,#917);
#755=AXIS2_PLACEMENT_3D('',#1167,#919,#920);
#756=AXIS2_PLACEMENT_3D('',#1168,#921,#922);
#757=AXIS2_PLACEMENT_3D('',#1172,#925,#926);
#758=AXIS2_PLACEMENT_3D('',#1175,#928,#929);
#759=AXIS2_PLACEMENT_3D('',#1176,#930,#931);
#760=AXIS2_PLACEMENT_3D('',#1178,#932,#933);
#761=AXIS2_PLACEMENT_3D('',#1182,#935,#936);
#762=AXIS2_PLACEMENT_3D('',#1186,#939,#940);
#763=AXIS2_PLACEMENT_3D('',#1188,#941,#942);
#764=AXIS2_PLACEMENT_3D('',#1190,#943,#944);
#765=AXIS2_PLACEMENT_3D('',#1191,#945,#946);
#766=AXIS2_PLACEMENT_3D('',#1192,#947,#948);
#767=AXIS2_PLACEMENT_3D('',#1194,#949,#950);
#768=AXIS2_PLACEMENT_3D('',#1196,#952,#953);
#769=AXIS2_PLACEMENT_3D('',#1199,#954,#955);
#770=AXIS2_PLACEMENT_3D('',#1200,#956,#957);
#771=AXIS2_PLACEMENT_3D('',#1201,#958,#959);
#772=AXIS2_PLACEMENT_3D('',#1202,#960,#961);
#773=AXIS2_PLACEMENT_3D('',#1205,#962,#963);
#774=AXIS2_PLACEMENT_3D('',#1208,#966,#967);
#775=AXIS2_PLACEMENT_3D('',#1211,#968,#969);
#776=AXIS2_PLACEMENT_3D('',#1212,#970,#971);
#777=AXIS2_PLACEMENT_3D('',#1213,#972,#973);
#778=AXIS2_PLACEMENT_3D('',#1214,#974,#975);
#779=AXIS2_PLACEMENT_3D('',#1216,#976,#977);
#780=AXIS2_PLACEMENT_3D('',#1219,#980,#981);
#781=AXIS2_PLACEMENT_3D('',#1221,#982,#983);
#782=AXIS2_PLACEMENT_3D('',#1222,#984,#985);
#783=AXIS2_PLACEMENT_3D('',#1223,#986,#987);
#784=AXIS2_PLACEMENT_3D('',#1225,#989,#990);
#785=AXIS2_PLACEMENT_3D('',#1227,#992,#993);
#786=AXIS2_PLACEMENT_3D('',#1229,#994,#995);
#787=AXIS2_PLACEMENT_3D('',#1235,#998,#999);
#788=AXIS2_PLACEMENT_3D('',#1237,#1001,#1002);
#789=AXIS2_PLACEMENT_3D('',#1239,#1004,#1005);
#790=AXIS2_PLACEMENT_3D('',#1241,#1007,#1008);
#791=AXIS2_PLACEMENT_3D('',#1242,#1009,#1010);
#792=AXIS2_PLACEMENT_3D('',#1244,#1012,#1013);
#793=AXIS2_PLACEMENT_3D('',#1246,#1015,#1016);
#794=AXIS2_PLACEMENT_3D('',#1248,#1018,#1019);
#795=AXIS2_PLACEMENT_3D('',#1249,#1020,#1021);
#796=AXIS2_PLACEMENT_3D('',#1250,#1022,#1023);
#797=AXIS2_PLACEMENT_3D('',#1251,#1024,#1025);
#798=AXIS2_PLACEMENT_3D('',#1252,#1026,#1027);
#799=DIRECTION('axis',(0.,0.,1.));
#800=DIRECTION('refdir',(1.,0.,0.));
#801=DIRECTION('center_axis',(0.,-0.51369370870919,-0.857973643903237));
#802=DIRECTION('ref_axis',(-0.994235368203913,-0.0919915508527932,0.0550780099869955));
#803=DIRECTION('center_axis',(0.,-0.51369370870919,-0.857973643903237));
#804=DIRECTION('ref_axis',(-0.994235368203913,-0.0919915508527932,0.0550780099869955));
#805=DIRECTION('',(0.,0.51369370870919,0.857973643903237));
#806=DIRECTION('center_axis',(0.,0.51369370870919,0.857973643903237));
#807=DIRECTION('ref_axis',(-0.994235368203913,-0.0919915508527932,0.0550780099869955));
#808=DIRECTION('center_axis',(0.,-0.51369370870919,-0.857973643903237));
#809=DIRECTION('ref_axis',(-8.90701302762204E-14,-0.857973643903237,0.51369370870919));
#810=DIRECTION('center_axis',(0.,-0.51369370870919,-0.857973643903237));
#811=DIRECTION('ref_axis',(-8.90701302762204E-14,-0.857973643903237,0.51369370870919));
#812=DIRECTION('',(0.,0.51369370870919,0.857973643903237));
#813=DIRECTION('center_axis',(0.,0.51369370870919,0.857973643903237));
#814=DIRECTION('ref_axis',(-8.90701302762204E-14,-0.857973643903237,0.51369370870919));
#815=DIRECTION('',(0.,0.51369370870919,0.857973643903237));
#816=DIRECTION('center_axis',(0.,-0.857973643903235,0.513693708709193));
#817=DIRECTION('ref_axis',(0.,0.513693708709193,0.857973643903235));
#818=DIRECTION('',(-1.,0.,0.));
#819=DIRECTION('',(-1.,0.,0.));
#820=DIRECTION('center_axis',(0.,-0.51369370870919,-0.857973643903237));
#821=DIRECTION('ref_axis',(0.,-0.857973643903237,0.51369370870919));
#822=DIRECTION('center_axis',(0.,-0.51369370870919,-0.857973643903237));
#823=DIRECTION('ref_axis',(-0.999996121223068,-0.00238965896342989,0.00143075814064622));
#824=DIRECTION('',(-1.,0.,0.));
#825=DIRECTION('center_axis',(0.,-0.51369370870919,-0.857973643903237));
#826=DIRECTION('ref_axis',(0.994426432964388,-0.0904585396208347,0.0541601516928234));
#827=DIRECTION('center_axis',(0.,-0.51369370870919,-0.857973643903237));
#828=DIRECTION('ref_axis',(0.994426432964388,-0.0904585396208347,0.0541601516928234));
#829=DIRECTION('',(0.,-0.51369370870919,-0.857973643903237));
#830=DIRECTION('center_axis',(0.,0.51369370870919,0.857973643903237));
#831=DIRECTION('ref_axis',(0.994426432964388,-0.0904585396208347,0.0541601516928234));
#832=DIRECTION('center_axis',(0.,-0.513693708709189,-0.857973643903237));
#833=DIRECTION('ref_axis',(-0.999996121223068,-0.00238965896342989,0.00143075814064622));
#834=DIRECTION('',(0.,-0.513693708709189,-0.857973643903237));
#835=DIRECTION('center_axis',(0.,0.51369370870919,0.857973643903237));
#836=DIRECTION('ref_axis',(-0.999996121223068,-0.00238965896342989,0.00143075814064622));
#837=DIRECTION('',(0.,-0.513693708709189,-0.857973643903237));
#838=DIRECTION('center_axis',(-8.62816615085482E-32,0.857973643903237,-0.513693708709189));
#839=DIRECTION('ref_axis',(1.,8.98133201596899E-17,1.50006628973688E-16));
#840=DIRECTION('',(-1.,0.,0.));
#841=DIRECTION('',(-1.,0.,0.));
#842=DIRECTION('',(0.,0.513693708709189,0.857973643903237));
#843=DIRECTION('center_axis',(1.,0.,0.));
#844=DIRECTION('ref_axis',(0.,0.,-1.));
#845=DIRECTION('center_axis',(-1.,0.,0.));
#846=DIRECTION('ref_axis',(0.,0.986894257915318,-0.161368285898355));
#847=DIRECTION('',(0.,-0.161368285898354,-0.986894257915318));
#848=DIRECTION('',(0.,0.986894257915318,-0.161368285898355));
#849=DIRECTION('',(0.,0.161368285898355,0.986894257915318));
#850=DIRECTION('center_axis',(1.,0.,0.));
#851=DIRECTION('ref_axis',(0.,0.98689425791532,-0.161368285898342));
#852=DIRECTION('center_axis',(0.,0.51369370870919,0.857973643903237));
#853=DIRECTION('ref_axis',(0.,0.857973643903237,-0.51369370870919));
#854=DIRECTION('',(-1.,0.,0.));
#855=DIRECTION('center_axis',(0.,-0.986894257915318,0.161368285898355));
#856=DIRECTION('ref_axis',(0.,-0.161368285898355,-0.986894257915318));
#857=DIRECTION('center_axis',(-1.,0.,0.));
#858=DIRECTION('ref_axis',(0.,-0.161368285898363,-0.986894257915317));
#859=DIRECTION('center_axis',(0.,-0.986894257915318,0.161368285898355));
#860=DIRECTION('ref_axis',(-0.707106781188676,0.114104609226833,0.697839622083887));
#861=DIRECTION('center_axis',(-6.02411868398031E-12,0.161368285898351,0.986894257915319));
#862=DIRECTION('ref_axis',(0.,-0.986894257915319,0.161368285898351));
#863=DIRECTION('center_axis',(0.,0.986894257915318,-0.161368285898355));
#864=DIRECTION('ref_axis',(-0.707106781188676,0.114104609226833,0.697839622083887));
#865=DIRECTION('center_axis',(-6.01443654301868E-12,0.161368285898355,0.986894257915318));
#866=DIRECTION('ref_axis',(0.707106781186548,-0.697839622085301,0.114104609231374));
#867=DIRECTION('center_axis',(-6.00856422044708E-12,0.161368285898361,0.986894257915317));
#868=DIRECTION('ref_axis',(0.,-0.986894257915317,0.161368285898361));
#869=DIRECTION('',(-6.01443654301868E-12,0.161368285898355,0.986894257915318));
#870=DIRECTION('',(6.01443654301868E-12,-0.161368285898355,-0.986894257915318));
#871=DIRECTION('center_axis',(0.,-0.986894257915318,0.161368285898355));
#872=DIRECTION('ref_axis',(0.,-0.161368285898355,-0.986894257915318));
#873=DIRECTION('center_axis',(-1.,5.99533734178575E-13,3.66662133388485E-12));
#874=DIRECTION('ref_axis',(0.,-0.986894257915317,0.161368285898362));
#875=DIRECTION('center_axis',(0.,0.986894257915318,-0.161368285898355));
#876=DIRECTION('ref_axis',(-0.707106781185735,-0.114104609227307,-0.69783962208679));
#877=DIRECTION('center_axis',(0.,-0.986894257915318,0.161368285898355));
#878=DIRECTION('ref_axis',(-0.707106781185735,-0.114104609227307,-0.69783962208679));
#879=DIRECTION('center_axis',(-1.,5.99569977800659E-13,3.6668429922011E-12));
#880=DIRECTION('ref_axis',(2.62712320842757E-12,-0.583735012858806,0.811944231313167));
#881=DIRECTION('center_axis',(-1.,5.99533734178578E-13,3.6666213338849E-12));
#882=DIRECTION('ref_axis',(0.,-0.986894257915317,0.161368285898361));
#883=DIRECTION('',(-1.,5.99569977800659E-13,3.6668429922011E-12));
#884=DIRECTION('',(1.,-5.99569977800659E-13,-3.6668429922011E-12));
#885=DIRECTION('center_axis',(0.,-0.986894257915318,0.161368285898355));
#886=DIRECTION('ref_axis',(0.,-0.161368285898355,-0.986894257915318));
#887=DIRECTION('center_axis',(0.,-0.161368285898348,-0.986894257915319));
#888=DIRECTION('ref_axis',(0.,-0.986894257915319,0.161368285898348));
#889=DIRECTION('center_axis',(0.,0.986894257915318,-0.161368285898355));
#890=DIRECTION('ref_axis',(0.707106781185232,-0.114104609227388,-0.697839622087286));
#891=DIRECTION('center_axis',(0.,-0.986894257915318,0.161368285898355));
#892=DIRECTION('ref_axis',(0.707106781185232,-0.114104609227388,-0.697839622087286));
#893=DIRECTION('center_axis',(2.25456458575608E-16,-0.161368285898355,-0.986894257915318));
#894=DIRECTION('ref_axis',(-0.707106781186546,-0.697839622085989,0.11410460922717));
#895=DIRECTION('center_axis',(0.,-0.161368285898361,-0.986894257915317));
#896=DIRECTION('ref_axis',(0.,-0.986894257915317,0.161368285898361));
#897=DIRECTION('',(2.25456458575608E-16,-0.161368285898355,-0.986894257915318));
#898=DIRECTION('',(-2.25456458575608E-16,0.161368285898355,0.986894257915318));
#899=DIRECTION('center_axis',(0.,-0.986894257915318,0.161368285898355));
#900=DIRECTION('ref_axis',(0.,-0.161368285898355,-0.986894257915318));
#901=DIRECTION('center_axis',(1.,0.,0.));
#902=DIRECTION('ref_axis',(0.,-0.986894257915319,0.161368285898351));
#903=DIRECTION('center_axis',(0.,0.986894257915318,-0.161368285898355));
#904=DIRECTION('ref_axis',(0.70710678118655,0.114104609227176,0.697839622085985));
#905=DIRECTION('center_axis',(0.,-0.986894257915318,0.161368285898355));
#906=DIRECTION('ref_axis',(0.70710678118655,0.114104609227176,0.697839622085985));
#907=DIRECTION('center_axis',(1.,-4.22666258885071E-33,-2.58493731643759E-32));
#908=DIRECTION('ref_axis',(0.,-0.811944231313167,-0.583735012858806));
#909=DIRECTION('',(-1.,4.22666258885071E-33,2.58493731643759E-32));
#910=DIRECTION('',(1.,-4.22666258885071E-33,-2.58493731643759E-32));
#911=DIRECTION('center_axis',(1.,3.6381522265059E-17,2.22501684378191E-16));
#912=DIRECTION('ref_axis',(-2.25456458575608E-16,0.161368285898354,0.986894257915319));
#913=DIRECTION('',(0.,-0.986894257915319,0.161368285898353));
#914=DIRECTION('',(-2.25456458575608E-16,0.161368285898354,0.986894257915318));
#915=DIRECTION('',(0.,0.986894257915319,-0.161368285898353));
#916=DIRECTION('center_axis',(0.,-0.986894257915319,0.161368285898353));
#917=DIRECTION('ref_axis',(0.707106781186549,0.114104609227175,0.697839622085986));
#918=DIRECTION('',(0.,0.986894257915319,-0.161368285898353));
#919=DIRECTION('center_axis',(0.,-0.986894257915318,0.161368285898354));
#920=DIRECTION('ref_axis',(0.707106781186548,0.114104609227175,0.697839622085987));
#921=DIRECTION('center_axis',(2.61926472436664E-32,0.161368285898353,0.986894257915319));
#922=DIRECTION('ref_axis',(-1.,-5.9228283917571E-17,9.68448906843227E-18));
#923=DIRECTION('',(2.01948391736579E-28,-0.986894257915319,0.161368285898353));
#924=DIRECTION('',(-1.,4.22666258885068E-33,2.58493731643759E-32));
#925=DIRECTION('center_axis',(2.01948391736579E-28,-0.986894257915319,0.161368285898353));
#926=DIRECTION('ref_axis',(-0.707106781188675,0.114104609226832,0.697839622083888));
#927=DIRECTION('',(-2.01948391736579E-28,0.986894257915319,-0.161368285898353));
#928=DIRECTION('center_axis',(0.,-0.986894257915318,0.161368285898354));
#929=DIRECTION('ref_axis',(-0.707106781188675,0.114104609226832,0.697839622083888));
#930=DIRECTION('center_axis',(0.,-0.986894257915318,0.161368285898355));
#931=DIRECTION('ref_axis',(0.,0.161368285898355,0.986894257915318));
#932=DIRECTION('center_axis',(0.,0.986894257915318,-0.161368285898355));
#933=DIRECTION('ref_axis',(-0.707106781186548,-0.114104609227176,-0.697839622085986));
#934=DIRECTION('',(-1.,0.,0.));
#935=DIRECTION('center_axis',(0.,0.986894257915318,-0.161368285898355));
#936=DIRECTION('ref_axis',(0.707106781186547,-0.114104609227176,-0.697839622085987));
#937=DIRECTION('',(0.,0.161368285898355,0.986894257915318));
#938=DIRECTION('',(-1.,0.,0.));
#939=DIRECTION('center_axis',(0.,0.986894257915318,-0.161368285898354));
#940=DIRECTION('ref_axis',(0.,0.161368285898353,0.986894257915319));
#941=DIRECTION('center_axis',(1.,0.,0.));
#942=DIRECTION('ref_axis',(0.,-0.161368285898351,-0.986894257915319));
#943=DIRECTION('center_axis',(0.,0.986894257915318,-0.161368285898354));
#944=DIRECTION('ref_axis',(0.707106781186548,0.114104609227175,0.697839622085987));
#945=DIRECTION('center_axis',(0.,0.161368285898346,0.98689425791532));
#946=DIRECTION('ref_axis',(0.,0.98689425791532,-0.161368285898346));
#947=DIRECTION('center_axis',(-2.25456458575608E-16,0.161368285898354,0.986894257915318));
#948=DIRECTION('ref_axis',(-0.707106781186549,0.697839622085987,-0.11410460922717));
#949=DIRECTION('center_axis',(0.,0.161368285898348,0.98689425791532));
#950=DIRECTION('ref_axis',(0.,0.986894257915319,-0.161368285898348));
#951=DIRECTION('',(2.25456458575608E-16,-0.161368285898354,-0.986894257915318));
#952=DIRECTION('center_axis',(0.,0.986894257915318,-0.161368285898354));
#953=DIRECTION('ref_axis',(0.,0.161368285898353,0.986894257915319));
#954=DIRECTION('center_axis',(1.,-5.99533734178521E-13,-3.66662133388486E-12));
#955=DIRECTION('ref_axis',(0.,0.986894257915319,-0.161368285898348));
#956=DIRECTION('center_axis',(0.,-0.986894257915318,0.161368285898354));
#957=DIRECTION('ref_axis',(0.707106781185233,-0.114104609227387,-0.697839622087284));
#958=DIRECTION('center_axis',(0.,0.986894257915318,-0.161368285898354));
#959=DIRECTION('ref_axis',(0.707106781185233,-0.114104609227387,-0.697839622087284));
#960=DIRECTION('center_axis',(1.,-5.99569977800656E-13,-3.6668429922011E-12));
#961=DIRECTION('ref_axis',(2.62712320842757E-12,0.811944231313167,0.583735012858806));
#962=DIRECTION('center_axis',(1.,-5.99533734178517E-13,-3.66662133388486E-12));
#963=DIRECTION('ref_axis',(0.,0.98689425791532,-0.161368285898346));
#964=DIRECTION('',(1.,-5.99569977800656E-13,-3.6668429922011E-12));
#965=DIRECTION('',(-1.,5.99569977800656E-13,3.6668429922011E-12));
#966=DIRECTION('center_axis',(0.,0.986894257915318,-0.161368285898354));
#967=DIRECTION('ref_axis',(0.,0.161368285898353,0.986894257915319));
#968=DIRECTION('center_axis',(6.02294312763878E-12,-0.161368285898348,-0.986894257915319));
#969=DIRECTION('ref_axis',(0.,0.986894257915319,-0.161368285898348));
#970=DIRECTION('center_axis',(0.,-0.986894257915318,0.161368285898354));
#971=DIRECTION('ref_axis',(-0.707106781185734,-0.114104609227307,-0.69783962208679));
#972=DIRECTION('center_axis',(0.,0.986894257915318,-0.161368285898354));
#973=DIRECTION('ref_axis',(-0.707106781185734,-0.114104609227307,-0.69783962208679));
#974=DIRECTION('center_axis',(6.01443654301868E-12,-0.161368285898354,-0.986894257915318));
#975=DIRECTION('ref_axis',(0.707106781186548,0.697839622086672,-0.114104609222986));
#976=DIRECTION('center_axis',(6.00856422044708E-12,-0.161368285898361,-0.986894257915317));
#977=DIRECTION('ref_axis',(0.,0.986894257915317,-0.161368285898361));
#978=DIRECTION('',(6.01443654301868E-12,-0.161368285898354,-0.986894257915318));
#979=DIRECTION('',(-6.01443654301868E-12,0.161368285898354,0.986894257915318));
#980=DIRECTION('center_axis',(0.,0.986894257915318,-0.161368285898354));
#981=DIRECTION('ref_axis',(0.,0.161368285898353,0.986894257915319));
#982=DIRECTION('center_axis',(-1.,0.,0.));
#983=DIRECTION('ref_axis',(0.,0.98689425791532,-0.161368285898346));
#984=DIRECTION('center_axis',(0.,0.986894257915318,-0.161368285898354));
#985=DIRECTION('ref_axis',(-0.707106781188675,0.114104609226832,0.697839622083888));
#986=DIRECTION('center_axis',(-1.,4.22666258885068E-33,2.58493731643759E-32));
#987=DIRECTION('ref_axis',(0.,0.583735012858813,-0.811944231313162));
#988=DIRECTION('',(1.,-4.22666258885068E-33,-2.58493731643759E-32));
#989=DIRECTION('center_axis',(-1.,-9.70539315591343E-13,-5.93561288890119E-12));
#990=DIRECTION('ref_axis',(6.01443654301868E-12,-0.161368285898353,-0.986894257915319));
#991=DIRECTION('',(2.01948391736579E-28,-0.986894257915319,0.161368285898353));
#992=DIRECTION('center_axis',(0.,0.986894257915318,-0.161368285898354));
#993=DIRECTION('ref_axis',(0.,-0.161368285898354,-0.986894257915318));
#994=DIRECTION('center_axis',(0.,-0.986894257915318,0.161368285898354));
#995=DIRECTION('ref_axis',(-0.707106781186548,-0.114104609227176,-0.697839622085986));
#996=DIRECTION('',(-1.,0.,0.));
#997=DIRECTION('',(0.,0.161368285898354,0.986894257915318));
#998=DIRECTION('center_axis',(0.,-0.986894257915318,0.161368285898354));
#999=DIRECTION('ref_axis',(0.707106781186547,-0.114104609227176,-0.697839622085987));
#1000=DIRECTION('',(-1.,0.,0.));
#1001=DIRECTION('center_axis',(2.01948391736579E-28,-0.986894257915319,
0.161368285898353));
#1002=DIRECTION('ref_axis',(-0.707106781185735,-0.114104609227307,-0.697839622086789));
#1003=DIRECTION('',(-2.01948391736579E-28,0.986894257915319,-0.161368285898353));
#1004=DIRECTION('center_axis',(0.,-0.986894257915319,0.161368285898353));
#1005=DIRECTION('ref_axis',(0.707106781185233,-0.114104609227387,-0.697839622087285));
#1006=DIRECTION('',(0.,-0.986894257915319,0.161368285898353));
#1007=DIRECTION('center_axis',(-3.7155378732741E-12,-0.161368285898353,
-0.986894257915319));
#1008=DIRECTION('ref_axis',(1.,-5.99569977800657E-13,-3.6668429922011E-12));
#1009=DIRECTION('center_axis',(0.,-0.986894257915318,0.161368285898355));
#1010=DIRECTION('ref_axis',(-0.707106781186548,-0.114104609227176,-0.697839622085986));
#1011=DIRECTION('',(0.,-0.986894257915318,0.161368285898355));
#1012=DIRECTION('center_axis',(0.,-0.161368285898355,-0.986894257915318));
#1013=DIRECTION('ref_axis',(0.,-0.986894257915318,0.161368285898355));
#1014=DIRECTION('',(0.,0.986894257915318,-0.161368285898355));
#1015=DIRECTION('center_axis',(0.,-0.986894257915318,0.161368285898355));
#1016=DIRECTION('ref_axis',(0.707106781186547,-0.114104609227176,-0.697839622085987));
#1017=DIRECTION('',(0.,-0.986894257915318,0.161368285898355));
#1018=DIRECTION('center_axis',(-1.,0.,0.));
#1019=DIRECTION('ref_axis',(0.,0.986894257915318,-0.161368285898355));
#1020=DIRECTION('center_axis',(1.,0.,0.));
#1021=DIRECTION('ref_axis',(0.,0.986894257915318,-0.161368285898355));
#1022=DIRECTION('center_axis',(-1.,0.,0.));
#1023=DIRECTION('ref_axis',(0.,0.98689425791532,-0.161368285898342));
#1024=DIRECTION('center_axis',(1.,0.,0.));
#1025=DIRECTION('ref_axis',(0.,0.98689425791532,-0.161368285898342));
#1026=DIRECTION('center_axis',(1.,0.,0.));
#1027=DIRECTION('ref_axis',(0.,0.,-1.));
#1028=CARTESIAN_POINT('',(0.,0.,0.));
#1029=CARTESIAN_POINT('Origin',(-0.489449286840868,-0.736106905461209,0.0693536366202643));
#1030=CARTESIAN_POINT('',(-0.489449286840875,-0.816351180510611,0.0729912533174501));
#1031=CARTESIAN_POINT('',(-0.55918584337326,-0.76574214421759,0.0426901552216068));
#1032=CARTESIAN_POINT('Origin',(-0.489449286840868,-0.75567863576303,0.0366648407875511));
#1033=CARTESIAN_POINT('',(-0.489449286840875,-0.796779450208791,0.105680049150163));
#1034=CARTESIAN_POINT('',(-0.489449286840868,-0.796779450208821,0.105680049150181));
#1035=CARTESIAN_POINT('',(-0.55918584337326,-0.74617041391577,0.07537895105432));
#1036=CARTESIAN_POINT('Origin',(-0.489449286840868,-0.736106905461209,0.0693536366202644));
#1037=CARTESIAN_POINT('Ctrl Pts',(-0.559185843373262,-0.765742144217578,
0.0426901552215994));
#1038=CARTESIAN_POINT('Ctrl Pts',(-0.559185843373262,-0.762608446214498,
0.0479240723379885));
#1039=CARTESIAN_POINT('Ctrl Pts',(-0.559185843373262,-0.759474748211419,
0.0531579894543776));
#1040=CARTESIAN_POINT('Ctrl Pts',(-0.559185843373262,-0.753079095158036,
0.0638400392095522));
#1041=CARTESIAN_POINT('Ctrl Pts',(-0.559185843373262,-0.749817140107733,
0.0692881718483377));
#1042=CARTESIAN_POINT('Ctrl Pts',(-0.559185843373262,-0.746426928010205,
0.0749505200095198));
#1043=CARTESIAN_POINT('Ctrl Pts',(-0.559185843373262,-0.746298670962982,
0.0751647355319162));
#1044=CARTESIAN_POINT('Ctrl Pts',(-0.559185843373262,-0.746170413915758,
0.0753789510543127));
#1045=CARTESIAN_POINT('Origin',(-0.140142400742551,-0.736356693283312,0.0695031918352041));
#1046=CARTESIAN_POINT('',(-0.0700930286756375,-0.76216040967039,0.0405456668492222));
#1047=CARTESIAN_POINT('',(-0.140142400742551,-0.816351180510642,0.0729912533174681));
#1048=CARTESIAN_POINT('Origin',(-0.140142400742551,-0.755928423585132,0.0368143960024908));
#1049=CARTESIAN_POINT('',(-0.0700930286756375,-0.74258867936857,0.0732344626819353));
#1050=CARTESIAN_POINT('',(-0.0700930286758298,-0.742588679370172,0.0732344626828767));
#1051=CARTESIAN_POINT('',(-0.140142400742557,-0.796779450208821,0.105680049150181));
#1052=CARTESIAN_POINT('Origin',(-0.140142400742551,-0.736356693283312,0.0695031918352039));
#1053=CARTESIAN_POINT('',(-0.140142400742551,-0.796779450208821,0.105680049150182));
#1054=CARTESIAN_POINT('Origin',(0.,-0.816351180510642,0.0729912533174681));
#1055=CARTESIAN_POINT('',(0.,-0.816351180510642,0.0729912533174681));
#1056=CARTESIAN_POINT('',(0.,-0.796779450208821,0.105680049150181));
#1057=CARTESIAN_POINT('Origin',(0.,0.38223800002218,-0.64463885774927));
#1058=CARTESIAN_POINT('',(-0.594706628079261,-0.425110862369023,-0.161255674255283));
#1059=CARTESIAN_POINT('Ctrl Pts',(-0.559185843370231,-0.765742144233038,
0.0426901552308561));
#1060=CARTESIAN_POINT('Ctrl Pts',(-0.56501492005826,-0.717475774168474,
0.0137916793620653));
#1061=CARTESIAN_POINT('Ctrl Pts',(-0.570508019456923,-0.669178915078201,
-0.0151250511708433));
#1062=CARTESIAN_POINT('Ctrl Pts',(-0.582623718920549,-0.555654240318925,
-0.0830955670736303));
#1063=CARTESIAN_POINT('Ctrl Pts',(-0.588971031330119,-0.490401145550092,
-0.122164487773873));
#1064=CARTESIAN_POINT('Ctrl Pts',(-0.594706628079261,-0.425110862369023,
-0.161255674255283));
#1065=CARTESIAN_POINT('',(-0.634536481213044,0.38223800002218,-0.64463885774927));
#1066=CARTESIAN_POINT('Origin',(13.343380280394,0.485459274951153,-0.706440429292574));
#1067=CARTESIAN_POINT('',(0.,0.38223800002218,-0.64463885774927));
#1068=CARTESIAN_POINT('',(0.,0.38223800002218,-0.64463885774927));
#1069=CARTESIAN_POINT('Origin',(-13.7705615314815,0.429323597622305,-0.672830370891747));
#1070=CARTESIAN_POINT('Origin',(-13.7705615314815,0.448895327924117,-0.640141575059046));
#1071=CARTESIAN_POINT('',(0.,0.401809730324,-0.611950061916557));
#1072=CARTESIAN_POINT('',(0.,0.40180973032417,-0.611950061916676));
#1073=CARTESIAN_POINT('Origin',(-13.7705615314815,0.448895327924125,-0.640141575059033));
#1074=CARTESIAN_POINT('Origin',(13.343380280394,0.505031005252973,-0.673751633459861));
#1075=CARTESIAN_POINT('',(-0.594706628079261,-0.405539132067203,-0.12856687842257));
#1076=CARTESIAN_POINT('',(-0.594706628079261,-0.405539132067203,-0.12856687842257));
#1077=CARTESIAN_POINT('',(-0.634536481213044,0.401809730324,-0.611950061916557));
#1078=CARTESIAN_POINT('Origin',(13.343380280394,0.505031005252974,-0.67375163345986));
#1079=CARTESIAN_POINT('',(-0.634536481213044,0.401809730324,-0.611950061916557));
#1080=CARTESIAN_POINT('Origin',(-0.635,0.401809730324,-0.611950061916557));
#1081=CARTESIAN_POINT('',(-0.635,0.38223800002218,-0.64463885774927));
#1082=CARTESIAN_POINT('',(0.,0.38223800002218,-0.64463885774927));
#1083=CARTESIAN_POINT('',(-0.635,0.401809730324,-0.611950061916557));
#1084=CARTESIAN_POINT('',(0.,0.401809730324,-0.611950061916557));
#1085=CARTESIAN_POINT('',(-0.635,0.363465715175557,-0.675992416029589));
#1086=CARTESIAN_POINT('Ctrl Pts',(-0.594706628079261,-0.405539132067203,
-0.12856687842257));
#1087=CARTESIAN_POINT('Ctrl Pts',(-0.594706628079261,-0.43163477246963,
-0.172151939532855));
#1088=CARTESIAN_POINT('Ctrl Pts',(-0.583236918963085,-0.536102801193989,
-0.05039462232471));
#1089=CARTESIAN_POINT('Ctrl Pts',(-0.583236918963085,-0.562198441596416,
-0.0939796834349945));
#1090=CARTESIAN_POINT('Ctrl Pts',(-0.56931800902162,-0.666551579582379,
0.0277088453553218));
#1091=CARTESIAN_POINT('Ctrl Pts',(-0.56931800902162,-0.692647219984806,
-0.0158762157549627));
#1092=CARTESIAN_POINT('Ctrl Pts',(-0.552949286840879,-0.796779450208788,
0.105680049150161));
#1093=CARTESIAN_POINT('Ctrl Pts',(-0.552949286840879,-0.822875090611215,
0.062094988039877));
#1094=CARTESIAN_POINT('Ctrl Pts',(-0.594706628079261,-0.405539132067203,
-0.12856687842257));
#1095=CARTESIAN_POINT('Ctrl Pts',(-0.584722382009841,-0.519193261137462,
-0.0605188544685865));
#1096=CARTESIAN_POINT('Ctrl Pts',(-0.572882254873198,-0.632760331790956,
0.00747704508588962));
#1097=CARTESIAN_POINT('Ctrl Pts',(-0.559185843373267,-0.746170413915713,
0.0753789510542863));
#1098=CARTESIAN_POINT('Origin',(-0.635,-0.182931081313387,-0.435848832356106));
#1099=CARTESIAN_POINT('',(-0.635,0.449221681845052,-0.711488894475936));
#1100=CARTESIAN_POINT('Origin',(-0.635,0.353788195402628,-0.695884448507177));
#1101=CARTESIAN_POINT('',(-0.635,0.41599276227897,-0.91470992848477));
#1102=CARTESIAN_POINT('',(-0.635,0.405745876124424,-0.977377713862392));
#1103=CARTESIAN_POINT('',(-0.635,0.378392091052396,-0.908561796792042));
#1104=CARTESIAN_POINT('',(-0.635,0.0861986090168039,-0.860784883542638));
#1105=CARTESIAN_POINT('',(-0.635,0.411626478095551,-0.705307324851477));
#1106=CARTESIAN_POINT('',(-0.635,0.368145204897851,-0.971229582169665));
#1107=CARTESIAN_POINT('Origin',(-0.635,0.353822810336817,-0.695855776511772));
#1108=CARTESIAN_POINT('Origin',(0.,-0.796779450208821,0.105680049150181));
#1109=CARTESIAN_POINT('',(0.,0.401809730324,-0.611950061916557));
#1110=CARTESIAN_POINT('Origin',(-0.430760676367979,0.405778010866742,-0.788296486266703));
#1111=CARTESIAN_POINT('',(-0.430760676367979,0.40987676532856,-0.763229372115654));
#1112=CARTESIAN_POINT('',(-0.430760676367979,0.403586257421791,-0.754479611531794));
#1113=CARTESIAN_POINT('Origin',(-0.430760676367979,0.411106391667106,-0.755709237870339));
#1114=CARTESIAN_POINT('',(-0.463780676367979,0.398257876621395,-0.787066859928354));
#1115=CARTESIAN_POINT('Origin',(-0.430760676367979,0.398257876621427,-0.787066859928158));
#1116=CARTESIAN_POINT('',(-0.456160676367979,0.405778010866717,-0.788296486266854));
#1117=CARTESIAN_POINT('Origin',(-0.463780676367979,0.40577801086671,-0.788296486266899));
#1118=CARTESIAN_POINT('Origin',(-0.430760676367979,0.405778010866742,-0.788296486266703));
#1119=CARTESIAN_POINT('Origin',(-0.463780676367495,0.392771052235634,-0.867844290313331));
#1120=CARTESIAN_POINT('',(-0.463780676367086,0.374293336590697,-0.933628910942364));
#1121=CARTESIAN_POINT('',(-0.456160676367086,0.381813470836019,-0.934858537280864));
#1122=CARTESIAN_POINT('Origin',(-0.463780676367086,0.381813470836012,-0.93485853728091));
#1123=CARTESIAN_POINT('',(-0.456160676367495,0.392771052235642,-0.867844290313286));
#1124=CARTESIAN_POINT('',(-0.463780676367495,0.385250917990319,-0.866614663974786));
#1125=CARTESIAN_POINT('Origin',(-0.430760676367086,0.381813470836044,-0.934858537280714));
#1126=CARTESIAN_POINT('',(-0.430760676367209,0.368964955790365,-0.966216159338532));
#1127=CARTESIAN_POINT('',(-0.430760676367181,0.377714716374225,-0.959925651431763));
#1128=CARTESIAN_POINT('Origin',(-0.430760676367209,0.37648509003568,-0.967445785677077));
#1129=CARTESIAN_POINT('Origin',(-0.430760676367086,0.381813470836044,-0.934858537280714));
#1130=CARTESIAN_POINT('Origin',(-0.430760676367086,0.374293336590729,-0.933628910942168));
#1131=CARTESIAN_POINT('Origin',(-0.228080338183471,0.376485090035559,-0.967445785677821));
#1132=CARTESIAN_POINT('',(-0.204239323632027,0.368964955790229,-0.966216159339362));
#1133=CARTESIAN_POINT('',(-0.204239323631998,0.37771471637409,-0.959925651432593));
#1134=CARTESIAN_POINT('Origin',(-0.204239323632027,0.376485090035544,-0.967445785677908));
#1135=CARTESIAN_POINT('',(-0.228080338183443,0.377714716374104,-0.959925651432506));
#1136=CARTESIAN_POINT('',(-0.228080338183471,0.368964955790244,-0.966216159339275));
#1137=CARTESIAN_POINT('Origin',(-0.204239323631904,0.381813470835908,-0.934858537281544));
#1138=CARTESIAN_POINT('',(-0.171219323631904,0.374293336590593,-0.933628910942999));
#1139=CARTESIAN_POINT('',(-0.178839323631904,0.381813470835908,-0.934858537281544));
#1140=CARTESIAN_POINT('Origin',(-0.171219323631904,0.381813470835908,-0.934858537281544));
#1141=CARTESIAN_POINT('Origin',(-0.204239323631904,0.381813470835908,-0.934858537281544));
#1142=CARTESIAN_POINT('Origin',(-0.204239323631904,0.374293336590593,-0.933628910942999));
#1143=CARTESIAN_POINT('Origin',(-0.171219323631904,0.37669002775862,-0.966192429970449));
#1144=CARTESIAN_POINT('',(-0.171219323631904,0.398257876621427,-0.787066859928158));
#1145=CARTESIAN_POINT('',(-0.178839323631904,0.405778010866742,-0.788296486266703));
#1146=CARTESIAN_POINT('Origin',(-0.171219323631904,0.405778010866742,-0.788296486266703));
#1147=CARTESIAN_POINT('',(-0.178839323631904,0.37669002775862,-0.966192429970449));
#1148=CARTESIAN_POINT('',(-0.171219323631904,0.369169893513305,-0.964962803631903));
#1149=CARTESIAN_POINT('Origin',(-0.204239323631904,0.405778010866742,-0.788296486266703));
#1150=CARTESIAN_POINT('',(-0.204239323631904,0.403586257421791,-0.754479611531794));
#1151=CARTESIAN_POINT('',(-0.204239323631904,0.40987676532856,-0.763229372115654));
#1152=CARTESIAN_POINT('Origin',(-0.204239323631904,0.411106391667106,-0.755709237870339));
#1153=CARTESIAN_POINT('Origin',(-0.204239323631904,0.405778010866742,-0.788296486266703));
#1154=CARTESIAN_POINT('Origin',(-0.204239323631904,0.398257876621427,-0.787066859928158));
#1155=CARTESIAN_POINT('Origin',(-0.0894196618159519,0.411106391667106,-0.755709237870339));
#1156=CARTESIAN_POINT('',(-0.0894196618159519,0.403586257421791,-0.754479611531794));
#1157=CARTESIAN_POINT('',(-0.0894196618159519,0.40987676532856,-0.763229372115654));
#1158=CARTESIAN_POINT('Origin',(-0.178839323631904,0.407795253355333,-0.964844156786868));
#1159=CARTESIAN_POINT('',(-0.178839323631904,0.428338413602686,-0.791985365282339));
#1160=CARTESIAN_POINT('',(-0.178839323631904,0.435858547848001,-0.793214991620885));
#1161=CARTESIAN_POINT('',(-0.178839323631904,0.404373873571852,-0.938547416297181));
#1162=CARTESIAN_POINT('',(-0.178839323631904,0.420988333354878,-0.836936899292857));
#1163=CARTESIAN_POINT('',(-0.178839323631904,0.411894007817167,-0.939777042635726));
#1164=CARTESIAN_POINT('Origin',(-0.204239323631904,0.435858547848001,-0.793214991620885));
#1165=CARTESIAN_POINT('',(-0.204239323631904,0.432437168064504,-0.76691825113129));
#1166=CARTESIAN_POINT('',(-0.204239323631904,0.439957302309819,-0.768147877469836));
#1167=CARTESIAN_POINT('Origin',(-0.204239323631904,0.428338413602686,-0.791985365282339));
#1168=CARTESIAN_POINT('Origin',(-0.178839323631904,0.439957302309819,-0.768147877469836));
#1169=CARTESIAN_POINT('',(-0.430760676367979,0.432437168064504,-0.76691825113129));
#1170=CARTESIAN_POINT('',(-0.430760676367979,0.439957302309819,-0.768147877469836));
#1171=CARTESIAN_POINT('',(-0.0894196618159519,0.432437168064504,-0.76691825113129));
#1172=CARTESIAN_POINT('Origin',(-0.430760676367979,0.435858547848001,-0.793214991620885));
#1173=CARTESIAN_POINT('',(-0.456160676367979,0.428338413602661,-0.79198536528249));
#1174=CARTESIAN_POINT('',(-0.456160676367979,0.435858547847976,-0.793214991621036));
#1175=CARTESIAN_POINT('Origin',(-0.430760676367979,0.428338413602686,-0.79198536528234));
#1176=CARTESIAN_POINT('Origin',(0.,0.368145204897851,-0.971229582169665));
#1177=CARTESIAN_POINT('',(-0.5715,0.368145204897851,-0.971229582169665));
#1178=CARTESIAN_POINT('Origin',(-0.5715,0.378392091052396,-0.908561796792042));
#1179=CARTESIAN_POINT('',(-0.0635,0.368145204897851,-0.971229582169665));
#1180=CARTESIAN_POINT('',(0.,0.368145204897851,-0.971229582169665));
#1181=CARTESIAN_POINT('',(0.,0.378392091052396,-0.908561796792043));
#1182=CARTESIAN_POINT('Origin',(-0.0635,0.378392091052396,-0.908561796792043));
#1183=CARTESIAN_POINT('',(0.,0.411626478095551,-0.705307324851477));
#1184=CARTESIAN_POINT('',(0.,0.368145204897851,-0.971229582169665));
#1185=CARTESIAN_POINT('',(0.,0.411626478095551,-0.705307324851477));
#1186=CARTESIAN_POINT('Origin',(-0.204239323631904,0.428338413602686,-0.791985365282339));
#1187=CARTESIAN_POINT('',(-0.204239323631904,0.441186928648365,-0.760627743224521));
#1188=CARTESIAN_POINT('Origin',(-0.204239323631904,0.43366679440305,-0.759398116885976));
#1189=CARTESIAN_POINT('',(-0.171219323631904,0.435858547848001,-0.793214991620885));
#1190=CARTESIAN_POINT('Origin',(-0.204239323631904,0.435858547848001,-0.793214991620885));
#1191=CARTESIAN_POINT('Origin',(-0.171219323631904,0.428338413602686,-0.791985365282339));
#1192=CARTESIAN_POINT('Origin',(-0.171219323631904,0.420988333354878,-0.836936899292857));
#1193=CARTESIAN_POINT('',(-0.171219323631904,0.411894007817167,-0.939777042635726));
#1194=CARTESIAN_POINT('Origin',(-0.171219323631904,0.404373873571852,-0.938547416297181));
#1195=CARTESIAN_POINT('',(-0.171219323631904,0.428508467600193,-0.838166525631402));
#1196=CARTESIAN_POINT('Origin',(-0.204239323631904,0.404373873571852,-0.938547416297181));
#1197=CARTESIAN_POINT('',(-0.204239323632027,0.406565627016803,-0.97236429103209));
#1198=CARTESIAN_POINT('',(-0.204239323631998,0.400275119110034,-0.96361453044823));
#1199=CARTESIAN_POINT('Origin',(-0.204239323632027,0.399045492771488,-0.971134664693544));
#1200=CARTESIAN_POINT('Origin',(-0.204239323631904,0.404373873571852,-0.938547416297181));
#1201=CARTESIAN_POINT('Origin',(-0.204239323631904,0.411894007817167,-0.939777042635726));
#1202=CARTESIAN_POINT('Origin',(-0.228080338183972,0.399045492771503,-0.971134664693457));
#1203=CARTESIAN_POINT('',(-0.430760676367209,0.406565627016939,-0.972364291031259));
#1204=CARTESIAN_POINT('',(-0.430760676367181,0.40027511911017,-0.963614530447399));
#1205=CARTESIAN_POINT('Origin',(-0.430760676367209,0.399045492771624,-0.971134664692714));
#1206=CARTESIAN_POINT('',(-0.228080338183944,0.400275119110048,-0.963614530448142));
#1207=CARTESIAN_POINT('',(-0.228080338183972,0.406565627016817,-0.972364291032002));
#1208=CARTESIAN_POINT('Origin',(-0.430760676367086,0.404373873571988,-0.93854741629635));
#1209=CARTESIAN_POINT('',(-0.463780676367086,0.411894007817271,-0.939777042635091));
#1210=CARTESIAN_POINT('',(-0.456160676367086,0.404373873571963,-0.938547416296501));
#1211=CARTESIAN_POINT('Origin',(-0.463780676367086,0.404373873571956,-0.938547416296546));
#1212=CARTESIAN_POINT('Origin',(-0.430760676367086,0.404373873571988,-0.93854741629635));
#1213=CARTESIAN_POINT('Origin',(-0.430760676367086,0.411894007817303,-0.939777042634895));
#1214=CARTESIAN_POINT('Origin',(-0.463780676368305,0.437069357831892,-0.738588759635739));
#1215=CARTESIAN_POINT('',(-0.463780676367979,0.435858547847969,-0.793214991621081));
#1216=CARTESIAN_POINT('Origin',(-0.463780676367979,0.428338413602654,-0.791985365282535));
#1217=CARTESIAN_POINT('',(-0.456160676368305,0.437069357831899,-0.738588759635694));
#1218=CARTESIAN_POINT('',(-0.463780676368305,0.444589492077207,-0.739818385974285));
#1219=CARTESIAN_POINT('Origin',(-0.430760676367979,0.428338413602686,-0.79198536528234));
#1220=CARTESIAN_POINT('',(-0.430760676367979,0.441186928648365,-0.760627743224521));
#1221=CARTESIAN_POINT('Origin',(-0.430760676367979,0.43366679440305,-0.759398116885976));
#1222=CARTESIAN_POINT('Origin',(-0.430760676367979,0.435858547848001,-0.793214991620885));
#1223=CARTESIAN_POINT('Origin',(-0.0894196618159519,0.43366679440305,-0.759398116885976));
#1224=CARTESIAN_POINT('',(-0.0894196618159519,0.441186928648365,-0.760627743224521));
#1225=CARTESIAN_POINT('Origin',(-0.456160676368132,0.439957302309819,-0.768147877469836));
#1226=CARTESIAN_POINT('',(-0.456160676367086,0.411894007817278,-0.939777042635046));
#1227=CARTESIAN_POINT('Origin',(0.,0.449221681845052,-0.711488894475936));
#1228=CARTESIAN_POINT('',(-0.5715,0.405745876124424,-0.977377713862392));
#1229=CARTESIAN_POINT('Origin',(-0.5715,0.41599276227897,-0.91470992848477));
#1230=CARTESIAN_POINT('',(0.,0.449221681845052,-0.711488894475936));
#1231=CARTESIAN_POINT('',(0.,0.449221681845052,-0.711488894475936));
#1232=CARTESIAN_POINT('',(0.,0.41599276227897,-0.91470992848477));
#1233=CARTESIAN_POINT('',(0.,0.405745876124424,-0.977377713862392));
#1234=CARTESIAN_POINT('',(-0.0635,0.405745876124424,-0.977377713862392));
#1235=CARTESIAN_POINT('Origin',(-0.0635,0.41599276227897,-0.91470992848477));
#1236=CARTESIAN_POINT('',(0.,0.405745876124424,-0.977377713862392));
#1237=CARTESIAN_POINT('Origin',(-0.430760676367086,0.411894007817302,-0.939777042634895));
#1238=CARTESIAN_POINT('',(-0.430760676367181,0.407795253355484,-0.964844156785944));
#1239=CARTESIAN_POINT('Origin',(-0.204239323631904,0.411894007817167,-0.939777042635726));
#1240=CARTESIAN_POINT('',(-0.204239323631998,0.407795253355348,-0.964844156786775));
#1241=CARTESIAN_POINT('Origin',(-0.456160676366933,0.407795253355499,-0.964844156785851));
#1242=CARTESIAN_POINT('Origin',(-0.5715,0.0861986090168039,-0.860784883542638));
#1243=CARTESIAN_POINT('',(-0.5715,0.0759517228622584,-0.923452668920261));
#1244=CARTESIAN_POINT('Origin',(0.,0.405745876124424,-0.977377713862392));
#1245=CARTESIAN_POINT('',(-0.0635,0.0759517228622584,-0.923452668920261));
#1246=CARTESIAN_POINT('Origin',(-0.0635,0.0861986090168039,-0.860784883542638));
#1247=CARTESIAN_POINT('',(0.,0.0861986090168039,-0.860784883542638));
#1248=CARTESIAN_POINT('Origin',(0.,0.353788195402628,-0.695884448507177));
#1249=CARTESIAN_POINT('Origin',(0.,0.353788195402628,-0.695884448507177));
#1250=CARTESIAN_POINT('Origin',(0.,0.353822810336817,-0.695855776511772));
#1251=CARTESIAN_POINT('Origin',(0.,0.353822810336817,-0.695855776511772));
#1252=CARTESIAN_POINT('Origin',(0.,-0.182931081313387,-0.435848832356106));
#1253=UNCERTAINTY_MEASURE_WITH_UNIT(LENGTH_MEASURE(0.001),#1257,
'DISTANCE_ACCURACY_VALUE',
'Maximum model space distance between geometric entities at asserted c
onnectivities');
#1254=UNCERTAINTY_MEASURE_WITH_UNIT(LENGTH_MEASURE(0.001),#1257,
'DISTANCE_ACCURACY_VALUE',
'Maximum model space distance between geometric entities at asserted c
onnectivities');
#1255=(
GEOMETRIC_REPRESENTATION_CONTEXT(3)
GLOBAL_UNCERTAINTY_ASSIGNED_CONTEXT((#1253))
GLOBAL_UNIT_ASSIGNED_CONTEXT((#1257,#1259,#1260))
REPRESENTATION_CONTEXT('','3D')
);
#1256=(
GEOMETRIC_REPRESENTATION_CONTEXT(3)
GLOBAL_UNCERTAINTY_ASSIGNED_CONTEXT((#1254))
GLOBAL_UNIT_ASSIGNED_CONTEXT((#1257,#1259,#1260))
REPRESENTATION_CONTEXT('','3D')
);
#1257=(
LENGTH_UNIT()
NAMED_UNIT(*)
SI_UNIT(.CENTI.,.METRE.)
);
#1258=(
LENGTH_UNIT()
NAMED_UNIT(*)
SI_UNIT($,.METRE.)
);
#1259=(
NAMED_UNIT(*)
PLANE_ANGLE_UNIT()
SI_UNIT($,.RADIAN.)
);
#1260=(
NAMED_UNIT(*)
SI_UNIT($,.STERADIAN.)
SOLID_ANGLE_UNIT()
);
#1261=SHAPE_DEFINITION_REPRESENTATION(#1262,#1263);
#1262=PRODUCT_DEFINITION_SHAPE('',$,#1265);
#1263=SHAPE_REPRESENTATION('',(#709),#1255);
#1264=PRODUCT_DEFINITION_CONTEXT('part definition',#1269,'design');
#1265=PRODUCT_DEFINITION('temp_body','temp_body',#1266,#1264);
#1266=PRODUCT_DEFINITION_FORMATION('',$,#1271);
#1267=PRODUCT_RELATED_PRODUCT_CATEGORY('temp_body','temp_body',(#1271));
#1268=APPLICATION_PROTOCOL_DEFINITION('international standard',
'automotive_design',2009,#1269);
#1269=APPLICATION_CONTEXT(
'Core Data for Automotive Mechanical Design Process');
#1270=PRODUCT_CONTEXT('part definition',#1269,'mechanical');
#1271=PRODUCT('temp_body','temp_body',$,(#1270));
#1272=PRESENTATION_STYLE_ASSIGNMENT((#1273));
#1273=SURFACE_STYLE_USAGE(.BOTH.,#1274);
#1274=SURFACE_SIDE_STYLE('',(#1275));
#1275=SURFACE_STYLE_FILL_AREA(#1276);
#1276=FILL_AREA_STYLE('Steel - Satin',(#1277));
#1277=FILL_AREA_STYLE_COLOUR('Steel - Satin',#1278);
#1278=COLOUR_RGB('Steel - Satin',0.627450980392157,0.627450980392157,0.627450980392157);
ENDSEC;
END-ISO-10303-21;
