# Created by FreeCAD <https://www.freecad.org>
v 0.01240532 -0.00945898 0.08024885
v 0.0125 -0.009461220000000001 0.0802593
v 0.0125 -0.009461220000000001 0.08800000000000001
v 0.01231085 -0.00945225 0.08021752
v 0.01205496 -0.00941108 0.08800000000000001
v 0.01218634 -0.00943647 0.08014394
v 0.012022330000000001 -0.00940334 0.0799895
v 0.011809050000000001 -0.00933807 0.07968525
v 0.011632229999999999 -0.009263160000000001 0.08800000000000001
v 0.01153848 -0.00921493 0.07911117
v 0.01125302 -0.009024879999999999 0.08800000000000001
v 0.01103188 -0.00881938 0.07726729
v 0.010936340000000001 -0.008708200000000001 0.08800000000000001
v 0.01069806 -0.00832899 0.08800000000000001
v 0.01063771 -0.00819052 0.07433573
v 0.01055014 -0.00790626 0.08800000000000001
v 0.0105 -0.007461219999999999 0.07093599
v 0.0105 -0.007461219999999999 0.08800000000000001
v 0.0125 -0.00941108 0.08844504
v 0.0325 -0.009461220000000001 0.08800000000000001
v 0.0325 -0.00941108 0.08844504
v 0.0125 -0.009263160000000001 0.08886777
v 0.0325 -0.009263160000000001 0.08886777
v 0.0125 -0.009024879999999999 0.08924697999999999
v 0.0325 -0.009024879999999999 0.08924697999999999
v 0.0125 -0.008708200000000001 0.08956367
v 0.0325 -0.008708200000000001 0.08956367
v 0.0125 -0.00832899 0.08980194
v 0.0325 -0.00832899 0.08980194
v 0.0125 -0.00790626 0.08994986
v 0.0325 -0.00790626 0.08994986
v 0.0125 -0.007461219999999999 0.09
v 0.0325 -0.007461219999999999 0.09
v 0.0325 -0.009461220000000001 0.0802593
v 0.03259493 -0.00945897 0.0802488
v 0.03268965 -0.00945221 0.08021729000000001
v 0.03294504 -0.00941108 0.08800000000000001
v 0.03278394 -0.00944096 0.08016487
v 0.03287759 -0.00942525 0.08009164
v 0.0330011 -0.00939743 0.07996193
v 0.03318245 -0.009341180000000001 0.07969975
v 0.033367770000000005 -0.009263160000000001 0.08800000000000001
v 0.033442440000000004 -0.00922525 0.07915932
v 0.03374698 -0.009024879999999999 0.08800000000000001
v 0.0338746 -0.00891396 0.07770818
v 0.034063659999999996 -0.008708200000000001 0.08800000000000001
v 0.03420929 -0.008499640000000001 0.07577677000000001
v 0.03430194 -0.00832899 0.08800000000000001
v 0.03442595 -0.00800039 0.07344944
v 0.03444986 -0.00790626 0.08800000000000001
v 0.0345 -0.007461219999999999 0.08800000000000001
v 0.0345 -0.007461219999999999 0.07093599
v 0.03446595 -0.007798500000000001 0.08814590000000001
v 0.03444986 -0.007461219999999999 0.08844504
v 0.03431643 -0.00797943 0.08865728
v 0.03430194 -0.007461219999999999 0.08886777
v 0.034233820000000005 -0.00844544 0.08815869
v 0.03403036 -0.00807399 0.08913249000000001
v 0.034063659999999996 -0.007461219999999999 0.08924697999999999
v 0.03374698 -0.007461219999999999 0.08956367
v 0.03400351 -0.0085911 0.08868031
v 0.03363249 -0.00807399 0.08953035
v 0.033367770000000005 -0.007461219999999999 0.08980194
v 0.03379749 -0.00897583 0.08814993
v 0.03364191 -0.0086411 0.0891419
v 0.03315728 -0.00797943 0.08981644
v 0.03294504 -0.007461219999999999 0.08994986
v 0.033514270000000006 -0.00906944 0.08862038
v 0.03318031 -0.0085911 0.08950352
v 0.03264591 -0.007798500000000001 0.08996594999999999
v 0.03312038 -0.00906944 0.08901427
v 0.03265869 -0.00844544 0.08973382
v 0.03293582 -0.00936388 0.08843582
v 0.03264993 -0.00897583 0.08929749
v 0.01235409 -0.007798500000000001 0.08996594999999999
v 0.01205496 -0.007461219999999999 0.08994986
v 0.011842720000000001 -0.00797943 0.08981644
v 0.011632229999999999 -0.007461219999999999 0.08980194
v 0.012341310000000001 -0.00844544 0.08973382
v 0.01136751 -0.00807399 0.08953035
v 0.01125302 -0.007461219999999999 0.08956367
v 0.0118197 -0.0085911 0.08950352
v 0.010969640000000001 -0.00807399 0.08913249000000001
v 0.010936340000000001 -0.007461219999999999 0.08924697999999999
v 0.01069806 -0.007461219999999999 0.08886777
v 0.01235007 -0.00897583 0.08929749
v 0.0113581 -0.0086411 0.0891419
v 0.01068357 -0.00797943 0.08865728
v 0.01055014 -0.007461219999999999 0.08844504
v 0.01187962 -0.00906944 0.08901427
v 0.010996490000000001 -0.0085911 0.08868031
v 0.01053405 -0.007798500000000001 0.08814590000000001
v 0.011485730000000001 -0.00906944 0.08862038
v 0.01076618 -0.00844544 0.08815869
v 0.01206418 -0.00936388 0.08843582
v 0.01120251 -0.00897583 0.08814993
v 0.0105 0.00763119 0.08800000000000001
v 0.0105 0.015500000000000002 0.055
v 0.0105 -0.0040706 0.05513010000000001
v 0.0105 -0.0075 0.03925705
v 0.0105 0.0075 0.02166667
v 0.0105 -0.0075 0.012
v 0.0105 0.0075 0.012
v 0.0125 0.007538780000000001 0.09
v 0.012045410000000001 0.007538780000000001 0.08994764999999999
v 0.01161462 0.007538780000000001 0.08979335000000001
v 0.011230180000000001 0.007538780000000001 0.08954516
v 0.0109122 0.007538780000000001 0.08921609999999999
v 0.01067735 0.007538780000000001 0.08882338000000001
v 0.01053791 0.007538780000000001 0.08838755000000001
v 0.01052135 0.00756169 0.08829146
v 0.010509500000000001 0.007584769999999999 0.08819469
v 0.01050238 0.0076079500000000005 0.08809747
v 0.0325 0.007538780000000001 0.09
v 0.03295459 0.007538780000000001 0.08994764999999999
v 0.03338538 0.007538780000000001 0.08979335000000001
v 0.03376982 0.007538780000000001 0.08954516
v 0.0340878 0.007538780000000001 0.08921609999999999
v 0.03432265 0.007538780000000001 0.08882338000000001
v 0.03446209 0.007538780000000001 0.08838755000000001
v 0.03447865 0.00756169 0.08829146
v 0.0344905 0.007584769999999999 0.08819469
v 0.03449762 0.0076079500000000005 0.08809747
v 0.0345 0.00763119 0.08800000000000001
v 0.0345 0.0075 0.02166667
v 0.0345 -0.0075 0.012
v 0.0345 0.0075 0.012
v 0.0345 0.015500000000000002 0.055
v 0.0345 -0.0075 0.03925705
v 0.0345 -0.0040706 0.05513010000000001
v 0.0125 0.00953878 0.08800000000000001
v 0.01237209 0.00953469 0.08001718000000001
v 0.01225002 0.0095231 0.08006577000000001
v 0.012436009999999999 0.00953776 0.08000429
v 0.0125 0.00953878 0.08
v 0.012067840000000002 0.00949153 0.08800000000000001
v 0.0120888 0.00949605 0.08017919
v 0.011878310000000001 0.0094397 0.08041551999999999
v 0.0116561 0.00935202 0.08800000000000001
v 0.01160954 0.00932961 0.0808772
v 0.011284240000000001 0.00912684 0.08800000000000001
v 0.01109566 0.0089628 0.08241553
v 0.01096981 0.00882662 0.08800000000000001
v 0.010673239999999999 0.008353000000000001 0.08497289000000001
v 0.010727690000000002 0.00846556 0.08800000000000001
v 0.0105693 0.0080607 0.08800000000000001
v 0.01050214 0.00763119 0.08800000000000001
v 0.01050517 0.00760023 0.08812986
v 0.010517110000000001 0.0075693800000000006 0.08825924
v 0.01195117 0.00782297 0.08990211000000001
v 0.0125 0.00798382 0.08994986
v 0.011340969999999999 0.00781479 0.08960639000000001
v 0.01222383 0.00819955 0.08986738000000001
v 0.0125 0.00840655 0.08980194
v 0.0108534 0.007685570000000001 0.08912568
v 0.01161136 0.00833043 0.08960736000000001
v 0.01106611 0.008288450000000001 0.08917557000000001
v 0.01201301 0.008742950000000001 0.08952079
v 0.0125 0.00878576 0.08956367
v 0.0125 0.009102440000000002 0.08924697999999999
v 0.01068724 0.00812829 0.08860529
v 0.01144114 0.0088064 0.08912781000000002
v 0.010983290000000001 0.00869287 0.08860636
v 0.011939169999999999 0.00918515 0.08898739000000001
v 0.0125 0.00934072 0.08886777
v 0.0125 0.009488640000000001 0.08844504
v 0.01142307 0.009144560000000001 0.08851156
v 0.01196047 0.009436 0.08833085
v 0.0325 0.00798382 0.08994986
v 0.0325 0.00840655 0.08980194
v 0.0325 0.00878576 0.08956367
v 0.0325 0.009102440000000002 0.08924697999999999
v 0.0325 0.00934072 0.08886777
v 0.0325 0.009488640000000001 0.08844504
v 0.0325 0.00953878 0.08800000000000001
v 0.03259983 0.00953629 0.08001045
v 0.0325 0.00953878 0.08
v 0.0326994 0.00952882 0.08004179
v 0.03279849 0.00951638 0.08009394
v 0.03293216 0.00949153 0.08800000000000001
v 0.03289682 0.00949902 0.08016675
v 0.033026360000000005 0.00946828 0.08029569
v 0.03321611 0.00940618 0.08055609000000001
v 0.0333439 0.00935202 0.08800000000000001
v 0.03348679 0.00927839 0.081092
v 0.033715760000000004 0.00912684 0.08800000000000001
v 0.03393034 0.00893668 0.08252504999999999
v 0.03403018 0.00882662 0.08800000000000001
v 0.034261780000000006 0.00848541 0.08441759
v 0.03427231 0.00846556 0.08800000000000001
v 0.03442774 0.00807154 0.08615327
v 0.0344307 0.0080607 0.08800000000000001
v 0.03449786 0.00763119 0.08800000000000001
v 0.03449483 0.00760023 0.08812986
v 0.03448289 0.0075693800000000006 0.08825924
v 0.03277617 0.00819955 0.08986738000000001
v 0.03298699 0.008742950000000001 0.08952079
v 0.03304883 0.00782297 0.08990211000000001
v 0.03306083 0.00918515 0.08898739000000001
v 0.033388640000000004 0.00833043 0.08960736000000001
v 0.03303953 0.009436 0.08833085
v 0.03355886 0.0088064 0.08912781000000002
v 0.03365903 0.00781479 0.08960639000000001
v 0.03357693 0.009144560000000001 0.08851156
v 0.03393389 0.008288450000000001 0.08917557000000001
v 0.03401671 0.00869287 0.08860636
v 0.0341466 0.007685570000000001 0.08912568
v 0.03431276 0.00812829 0.08860529
v 0.03264591 0.009465949999999999 0.01166272
v 0.0325 0.009449860000000001 0.011554960000000001
v 0.0325 0.0095 0.012
v 0.03294504 0.009449860000000001 0.012
v 0.03315728 0.00931643 0.01148179
v 0.0325 0.00930194 0.011132230000000002
v 0.033367770000000005 0.00930194 0.012
v 0.03265869 0.00923382 0.01101578
v 0.0325 0.00906366 0.01075302
v 0.03363249 0.00903036 0.01138723
v 0.03374698 0.00906366 0.012
v 0.03318031 0.009003510000000001 0.01087012
v 0.03403036 0.008632490000000001 0.01138723
v 0.034063659999999996 0.00874698 0.012
v 0.03430194 0.00836777 0.012
v 0.03264993 0.00879749 0.01048539
v 0.0325 0.00836777 0.01019806
v 0.0325 0.00874698 0.01043634
v 0.03364191 0.008641900000000001 0.01082012
v 0.03431643 0.00815728 0.01148179
v 0.03444986 0.00794504 0.012
v 0.03444986 0.0075 0.011554960000000001
v 0.03430194 0.0075 0.011132230000000002
v 0.03312038 0.00851427 0.01039178
v 0.03400351 0.0081803 0.01087012
v 0.03446595 0.0076459100000000006 0.01166272
v 0.033514270000000006 0.00812038 0.01039178
v 0.034233820000000005 0.00765869 0.01101578
v 0.034063659999999996 0.0075 0.01075302
v 0.03293582 0.00793582 0.01009734
v 0.0325 0.0075 0.01
v 0.0325 0.00794504 0.01005014
v 0.033367770000000005 0.0075 0.01019806
v 0.03294504 0.0075 0.01005014
v 0.03379749 0.00764993 0.01048539
v 0.03374698 0.0075 0.01043634
v 0.03259114 0.00949792 0.029991340000000002
v 0.032682090000000004 0.00949169 0.029965389999999998
v 0.0325 0.0095 0.03
v 0.03297278 0.00944332 0.02976382
v 0.03318769 0.00937805 0.029491879999999998
v 0.03280753 0.00947621 0.0299009
v 0.0334603 0.00925437 0.02897655
v 0.033968120000000004 0.00885816 0.02732569
v 0.034362290000000004 0.0082293 0.02470541
v 0.03446595 -0.0076459100000000006 0.01166272
v 0.03444986 -0.0075 0.011554960000000001
v 0.03444986 -0.00794504 0.012
v 0.03431643 -0.00815728 0.01148179
v 0.03430194 -0.0075 0.011132230000000002
v 0.03430194 -0.00836777 0.012
v 0.034233820000000005 -0.00765869 0.01101578
v 0.034063659999999996 -0.0075 0.01075302
v 0.03403036 -0.008632490000000001 0.01138723
v 0.034063659999999996 -0.00874698 0.012
v 0.03400351 -0.0081803 0.01087012
v 0.03363249 -0.00903036 0.01138723
v 0.03374698 -0.00906366 0.012
v 0.033367770000000005 -0.00930194 0.012
v 0.03379749 -0.00764993 0.01048539
v 0.033367770000000005 -0.0075 0.01019806
v 0.03374698 -0.0075 0.01043634
v 0.03364191 -0.008641900000000001 0.01082012
v 0.03315728 -0.00931643 0.01148179
v 0.0325 -0.009449860000000001 0.011554960000000001
v 0.0325 -0.00930194 0.011132230000000002
v 0.03294504 -0.009449860000000001 0.012
v 0.033514270000000006 -0.00812038 0.01039178
v 0.03318031 -0.009003510000000001 0.01087012
v 0.03264591 -0.009465949999999999 0.01166272
v 0.0325 -0.0095 0.012
v 0.03312038 -0.00851427 0.01039178
v 0.03265869 -0.00923382 0.01101578
v 0.0325 -0.00906366 0.01075302
v 0.03293582 -0.00793582 0.01009734
v 0.0325 -0.00836777 0.01019806
v 0.0325 -0.00794504 0.01005014
v 0.0325 -0.0075 0.01
v 0.03294504 -0.0075 0.01005014
v 0.03264993 -0.00879749 0.01048539
v 0.0325 -0.00874698 0.01043634
v 0.03259448 -0.00949777 0.03001033
v 0.0325 -0.0095 0.03
v 0.03268874 -0.00949107 0.03004131
v 0.032813300000000004 -0.00947531 0.030114290000000002
v 0.03297739 -0.009442190000000001 0.03026757
v 0.03319076 -0.00937692 0.030569660000000002
v 0.03346145 -0.00925374 0.031139800000000002
v 0.033968120000000004 -0.00885816 0.03297075
v 0.034362290000000004 -0.0082293 0.035881470000000006
v 0.01053405 0.0076459100000000006 0.01166272
v 0.01055014 0.0075 0.011554960000000001
v 0.01055014 0.00794504 0.012
v 0.01068357 0.00815728 0.01148179
v 0.01069806 0.0075 0.011132230000000002
v 0.01069806 0.00836777 0.012
v 0.01076618 0.00765869 0.01101578
v 0.010936340000000001 0.0075 0.01075302
v 0.010969640000000001 0.008632490000000001 0.01138723
v 0.010936340000000001 0.00874698 0.012
v 0.010996490000000001 0.0081803 0.01087012
v 0.01136751 0.00903036 0.01138723
v 0.01125302 0.00906366 0.012
v 0.011632229999999999 0.00930194 0.012
v 0.01120251 0.00764993 0.01048539
v 0.011632229999999999 0.0075 0.01019806
v 0.01125302 0.0075 0.01043634
v 0.0113581 0.008641900000000001 0.01082012
v 0.011842720000000001 0.00931643 0.01148179
v 0.01205496 0.009449860000000001 0.012
v 0.0125 0.009449860000000001 0.011554960000000001
v 0.0125 0.00930194 0.011132230000000002
v 0.011485730000000001 0.00812038 0.01039178
v 0.0118197 0.009003510000000001 0.01087012
v 0.01235409 0.009465949999999999 0.01166272
v 0.0125 0.0095 0.012
v 0.01187962 0.00851427 0.01039178
v 0.012341310000000001 0.00923382 0.01101578
v 0.0125 0.00906366 0.01075302
v 0.01206418 0.00793582 0.01009734
v 0.0125 0.0075 0.01
v 0.01205496 0.0075 0.01005014
v 0.0125 0.00836777 0.01019806
v 0.0125 0.00794504 0.01005014
v 0.01235007 0.00879749 0.01048539
v 0.0125 0.00874698 0.01043634
v 0.01239987 0.009497489999999999 0.02998955
v 0.0125 0.0095 0.03
v 0.01229998 0.00948997 0.02995822
v 0.012200599999999999 0.00947746 0.0299061
v 0.012101980000000002 0.00945999 0.029833310000000002
v 0.01197206 0.009429060000000001 0.02970443
v 0.01178179 0.009366590000000001 0.02944414
v 0.01151046 0.00923805 0.028908529999999998
v 0.01114705 0.00897293 0.02780389
v 0.010735090000000001 0.00844079 0.025586639999999997
v 0.01055966 0.00798486 0.02368692
v 0.01235409 -0.009465949999999999 0.01166272
v 0.0125 -0.009449860000000001 0.011554960000000001
v 0.0125 -0.0095 0.012
v 0.01205496 -0.009449860000000001 0.012
v 0.011842720000000001 -0.00931643 0.01148179
v 0.0125 -0.00930194 0.011132230000000002
v 0.011632229999999999 -0.00930194 0.012
v 0.012341310000000001 -0.00923382 0.01101578
v 0.0125 -0.00906366 0.01075302
v 0.01136751 -0.00903036 0.01138723
v 0.01125302 -0.00906366 0.012
v 0.0118197 -0.009003510000000001 0.01087012
v 0.010969640000000001 -0.008632490000000001 0.01138723
v 0.010936340000000001 -0.00874698 0.012
v 0.01069806 -0.00836777 0.012
v 0.01235007 -0.00879749 0.01048539
v 0.0125 -0.00836777 0.01019806
v 0.0125 -0.00874698 0.01043634
v 0.0113581 -0.008641900000000001 0.01082012
v 0.01068357 -0.00815728 0.01148179
v 0.01055014 -0.00794504 0.012
v 0.01055014 -0.0075 0.011554960000000001
v 0.01069806 -0.0075 0.011132230000000002
v 0.01187962 -0.00851427 0.01039178
v 0.010996490000000001 -0.0081803 0.01087012
v 0.01053405 -0.0076459100000000006 0.01166272
v 0.011485730000000001 -0.00812038 0.01039178
v 0.01076618 -0.00765869 0.01101578
v 0.010936340000000001 -0.0075 0.01075302
v 0.01206418 -0.00793582 0.01009734
v 0.0125 -0.0075 0.01
v 0.0125 -0.00794504 0.01005014
v 0.011632229999999999 -0.0075 0.01019806
v 0.01205496 -0.0075 0.01005014
v 0.01120251 -0.00764993 0.01048539
v 0.01125302 -0.0075 0.01043634
v 0.0125 -0.0095 0.03
v 0.012404740000000001 -0.00949773 0.030010500000000002
v 0.0123097 -0.00949093 0.030042
v 0.01221509 -0.009479600000000001 0.03009441
v 0.01212113 -0.00946379 0.030167609999999997
v 0.01199722 -0.00943577 0.03029728
v 0.01181532 -0.009379150000000001 0.03055935
v 0.011554610000000002 -0.00926245 0.03109949
v 0.01112164 -0.00894918 0.032549480000000006
v 0.01078709 -0.00853244 0.034478390000000005
v 0.010573109999999998 -0.0080358 0.03677707
vn -0.023676 -0.999720 0.000000
vn -0.111964 -0.993711 0.001577
vn -0.071170 -0.997464 0.000581
vn -0.126401 -0.991979 0.001093
vn -0.197878 -0.980227 -0.000141
vn -0.330279 -0.943882 0.001481
vn -0.292962 -0.956124 0.000270
vn -0.532031 -0.846724 0.001017
vn -0.413239 -0.910622 -0.000583
vn -0.707106 -0.707107 0.001031
vn -0.846723 -0.532031 -0.002026
vn -0.609458 -0.792814 -0.002622
vn -0.943883 -0.330280 0.000822
vn -0.843702 -0.536809 -0.001713
vn -0.993712 -0.111965 0.000000
vn -0.980698 -0.195518 -0.002217
vn 0.000000 -0.993712 0.111965
vn 0.000000 -0.993712 0.111965
vn 0.000000 -0.943883 0.330280
vn 0.000000 -0.943883 0.330280
vn 0.000000 -0.846723 0.532034
vn 0.000000 -0.846723 0.532034
vn 0.000000 -0.707110 0.707103
vn 0.000000 -0.707110 0.707103
vn 0.000000 -0.532034 0.846723
vn 0.000000 -0.532034 0.846723
vn 0.000000 -0.330273 0.943886
vn 0.000000 -0.330273 0.943886
vn 0.000000 -0.111965 0.993712
vn 0.000000 -0.111965 0.993712
vn 0.023739 -0.999718 0.000000
vn 0.071360 -0.997450 0.000584
vn 0.119166 -0.992873 0.001337
vn 0.165703 -0.986176 0.000355
vn 0.219658 -0.975577 -0.000125
vn 0.296811 -0.954936 0.000449
vn 0.111964 -0.993711 0.001578
vn 0.406412 -0.913690 -0.000485
vn 0.330279 -0.943882 0.001499
vn 0.580994 -0.813906 -0.001567
vn 0.532031 -0.846724 0.000863
vn 0.774304 -0.632812 -0.001572
vn 0.707106 -0.707107 0.001148
vn 0.915103 -0.403219 -0.001306
vn 0.846725 -0.532029 0.001010
vn 0.943882 -0.330282 0.000586
vn 0.990701 -0.136059 0.000000
vn 0.993712 -0.111965 -0.000908
vn 0.993353 -0.111924 -0.026899
vn 0.992377 -0.051819 0.111814
vn 0.932768 -0.326393 0.153009
vn 0.938451 -0.107126 0.328382
vn 0.927637 -0.341934 0.150238
vn 0.961650 -0.154882 0.226363
vn 0.846418 -0.531836 -0.026954
vn 0.930389 -0.331763 0.155917
vn 0.837910 -0.143914 0.526494
vn 0.697045 -0.168121 0.697039
vn 0.858711 -0.172045 0.482717
vn 0.817405 -0.402666 0.411958
vn 0.863440 -0.431913 0.260619
vn 0.775742 -0.606860 0.173046
vn 0.526494 -0.143924 0.837908
vn 0.697035 -0.168131 0.697047
vn 0.707089 -0.707091 -0.006875
vn 0.529506 -0.842704 0.097329
vn 0.745573 -0.642617 0.176533
vn 0.639300 -0.427290 0.639311
vn 0.714662 -0.481095 0.507746
vn 0.328372 -0.107125 0.938454
vn 0.153007 -0.326384 0.932771
vn 0.482725 -0.172050 0.858705
vn 0.612744 -0.677648 0.406617
vn 0.515440 -0.845054 0.142148
vn 0.659484 -0.706635 0.256411
vn 0.411969 -0.402661 0.817401
vn 0.507755 -0.481087 0.714661
vn 0.111814 -0.051805 0.992378
vn -0.026931 -0.111924 0.993352
vn 0.226371 -0.154874 0.961650
vn 0.150228 -0.341964 0.927627
vn 0.482429 -0.731115 0.482423
vn 0.406623 -0.677647 0.612741
vn -0.026958 -0.531840 0.846416
vn 0.173043 -0.606864 0.775740
vn 0.155919 -0.331761 0.930389
vn 0.260619 -0.431911 0.863441
vn 0.328328 -0.938305 0.108555
vn 0.111294 -0.987757 0.109319
vn 0.109319 -0.987757 0.111294
vn 0.108556 -0.938305 0.328328
vn 0.397732 -0.898330 0.186581
vn 0.186580 -0.898331 0.397730
vn 0.338735 -0.877793 0.338731
vn 0.097319 -0.842704 0.529509
vn -0.006885 -0.707093 0.707087
vn 0.176530 -0.642619 0.745572
vn 0.142147 -0.845054 0.515440
vn 0.256408 -0.706637 0.659484
vn 0.026931 -0.111924 0.993352
vn -0.111814 -0.051805 0.992378
vn -0.153007 -0.326384 0.932771
vn -0.328372 -0.107125 0.938454
vn -0.150228 -0.341964 0.927627
vn -0.226371 -0.154874 0.961650
vn 0.026958 -0.531840 0.846416
vn -0.155919 -0.331761 0.930389
vn -0.526494 -0.143924 0.837908
vn -0.482725 -0.172050 0.858705
vn -0.411969 -0.402662 0.817401
vn -0.260619 -0.431911 0.863441
vn -0.173044 -0.606864 0.775740
vn -0.697045 -0.168123 0.697039
vn -0.837909 -0.143915 0.526496
vn -0.697036 -0.168131 0.697046
vn 0.006885 -0.707093 0.707087
vn -0.097319 -0.842704 0.529509
vn -0.176531 -0.642619 0.745572
vn -0.639301 -0.427291 0.639310
vn -0.507754 -0.481088 0.714661
vn -0.938451 -0.107127 0.328379
vn -0.932769 -0.326391 0.153010
vn -0.858710 -0.172047 0.482718
vn -0.256408 -0.706636 0.659484
vn -0.406623 -0.677647 0.612742
vn -0.142147 -0.845054 0.515440
vn -0.817404 -0.402665 0.411960
vn -0.714661 -0.481094 0.507749
vn -0.992377 -0.051819 0.111814
vn -0.993353 -0.111924 -0.026899
vn -0.927637 -0.341934 0.150238
vn -0.961650 -0.154882 0.226364
vn -0.482429 -0.731114 0.482425
vn -0.612743 -0.677648 0.406620
vn -0.846417 -0.531838 -0.026950
vn -0.775743 -0.606859 0.173045
vn -0.930387 -0.331766 0.155921
vn -0.863441 -0.431912 0.260618
vn -0.108556 -0.938305 0.328328
vn -0.109319 -0.987757 0.111294
vn -0.111294 -0.987757 0.109319
vn -0.328328 -0.938305 0.108555
vn -0.397732 -0.898330 0.186580
vn -0.186580 -0.898331 0.397730
vn -0.338734 -0.877793 0.338731
vn -0.529505 -0.842704 0.097333
vn -0.707089 -0.707091 -0.006870
vn -0.745571 -0.642620 0.176532
vn -0.515441 -0.845053 0.142146
vn -0.659485 -0.706636 0.256408
vn -1.000000 -0.000000 0.000000
vn -1.000000 0.000000 0.000000
vn -1.000000 0.000000 -0.000000
vn -1.000000 0.000000 -0.000000
vn -1.000000 0.000000 0.000000
vn -1.000000 0.000000 0.000000
vn -1.000000 0.000000 -0.000000
vn -0.111965 0.000000 0.993712
vn -0.114397 0.000073 0.993435
vn -0.337208 0.000143 0.941430
vn -0.330273 -0.000072 0.943886
vn -0.542367 0.000210 0.840141
vn -0.532034 -0.000140 0.846723
vn -0.719125 0.000274 0.694881
vn -0.707109 -0.000205 0.707104
vn -0.858244 0.000334 0.513242
vn -0.846723 -0.000267 0.532034
vn -0.952438 0.000391 0.304731
vn -0.992601 -0.000661 0.121423
vn -0.985486 -0.000153 0.169758
vn -0.943883 -0.000326 0.330280
vn -0.999703 0.000000 0.024381
vn -0.997333 -0.000315 0.072988
vn -0.993712 -0.000821 0.111965
vn -0.000000 0.000000 1.000000
vn 0.000000 0.000000 1.000000
vn 0.111965 0.000000 0.993712
vn 0.330273 -0.000072 0.943886
vn 0.114397 0.000073 0.993435
vn 0.532034 -0.000140 0.846723
vn 0.337209 0.000143 0.941430
vn 0.707109 -0.000205 0.707104
vn 0.542366 0.000210 0.840142
vn 0.846724 -0.000267 0.532032
vn 0.719125 0.000274 0.694881
vn 0.943882 -0.000326 0.330282
vn 0.858244 0.000334 0.513242
vn 0.952439 0.000391 0.304728
vn 0.985484 -0.000153 0.169770
vn 0.993712 -0.000821 0.111965
vn 0.992602 -0.000661 0.121411
vn 0.997332 -0.000315 0.073001
vn 0.999703 0.000000 0.024381
vn 1.000000 0.000000 0.000000
vn 1.000000 0.000000 0.000000
vn 1.000000 0.000000 0.000000
vn 1.000000 0.000000 0.000000
vn 1.000000 0.000000 0.000000
vn 1.000000 0.000000 0.000000
vn 1.000000 0.000000 0.000000
vn -0.094125 0.995560 0.000998
vn -0.047931 0.998851 0.000256
vn -0.016001 0.999872 0.000000
vn -0.258749 0.965944 -0.000135
vn -0.165343 0.986236 0.000127
vn -0.108683 0.994075 0.001459
vn -0.379669 0.925122 -0.000428
vn -0.320914 0.947107 0.001547
vn -0.588625 0.808397 -0.003869
vn -0.517983 0.855391 0.000695
vn -0.690576 0.723257 0.002075
vn -0.832158 0.554515 -0.005231
vn -0.830530 0.556944 -0.005770
vn -0.931265 0.364329 0.003203
vn -0.987814 0.154472 -0.019002
vn -0.976123 0.172999 0.131355
vn -0.986225 0.154224 0.059788
vn -0.336951 0.039029 0.940713
vn -0.113565 0.120400 0.986208
vn -0.118432 0.111176 0.986719
vn -0.712704 0.133333 0.688677
vn -0.542101 0.031341 0.839729
vn -0.431473 0.172069 0.885564
vn -0.023881 0.330178 0.943616
vn -0.140603 0.191373 0.971394
vn -0.857915 -0.027666 0.513046
vn -0.713639 0.137246 0.686937
vn -0.427586 0.222563 0.876148
vn -0.314504 0.310433 0.897061
vn -0.603957 0.315319 0.731990
vn -0.714305 0.196446 0.671698
vn -0.120433 0.528161 0.840560
vn -0.123460 0.701700 0.701694
vn -0.269027 0.441567 0.855946
vn -0.160496 0.485766 0.859228
vn -0.965194 0.171594 0.197374
vn -0.944646 0.127656 0.302238
vn -0.922177 0.360774 0.139396
vn -0.885372 0.174288 0.430975
vn -0.967266 0.190942 0.167144
vn -0.836853 0.255190 0.484310
vn -0.424930 0.562562 0.709196
vn -0.568836 0.473850 0.672229
vn -0.822373 0.551475 0.139921
vn -0.686558 0.541809 0.484851
vn -0.805400 0.421542 0.416693
vn -0.868679 0.455143 0.195554
vn -0.120511 0.840552 0.528157
vn -0.187968 0.927058 0.324393
vn -0.187622 0.743265 0.642149
vn -0.352739 0.695796 0.625654
vn -0.681652 0.713910 0.160261
vn -0.514824 0.850175 0.110267
vn -0.616412 0.682560 0.392617
vn -0.687779 0.705514 0.170907
vn -0.463293 0.771124 0.436724
vn -0.119774 0.986559 0.111159
vn -0.320433 0.945688 0.054740
vn -0.107754 0.985581 0.130456
vn -0.426246 0.889165 0.166431
vn -0.163619 0.923305 0.347471
vn -0.365440 0.873418 0.321862
vn -0.000000 0.111964 0.993712
vn -0.000000 0.330273 0.943886
vn -0.000000 0.111964 0.993712
vn -0.000000 0.532034 0.846723
vn -0.000000 0.330273 0.943886
vn -0.000000 0.707110 0.707103
vn -0.000000 0.532034 0.846723
vn -0.000000 0.846723 0.532034
vn -0.000000 0.707110 0.707103
vn -0.000000 0.943883 0.330280
vn -0.000000 0.846723 0.532034
vn -0.000000 0.993712 0.111965
vn -0.000000 0.943883 0.330280
vn -0.000000 0.993712 0.111965
vn 0.024968 0.999688 0.000000
vn 0.074632 0.997211 0.000621
vn 0.108683 0.994076 0.001287
vn 0.123550 0.992337 0.001853
vn 0.173770 0.984786 0.000157
vn 0.231028 0.972947 -0.000112
vn 0.320913 0.947108 0.001382
vn 0.309865 0.950780 0.000918
vn 0.517982 0.855390 0.001597
vn 0.428175 0.903695 -0.000775
vn 0.690579 0.723254 0.001945
vn 0.616696 0.787195 -0.003171
vn 0.830544 0.556953 0.000647
vn 0.812080 0.583538 -0.003079
vn 0.931267 0.364335 0.000644
vn 0.929147 0.369709 -0.000681
vn 0.987993 0.154497 -0.000679
vn 0.976124 0.172997 0.131354
vn 0.986226 0.154221 0.059788
vn 0.023881 0.330178 0.943616
vn 0.123460 0.701700 0.701694
vn 0.120433 0.528161 0.840560
vn 0.160496 0.485766 0.859228
vn 0.118432 0.111176 0.986719
vn 0.113565 0.120400 0.986208
vn 0.336952 0.039030 0.940712
vn 0.140603 0.191373 0.971395
vn 0.187968 0.927058 0.324393
vn 0.120511 0.840552 0.528157
vn 0.187622 0.743265 0.642149
vn 0.314505 0.310432 0.897061
vn 0.269027 0.441567 0.855946
vn 0.107754 0.985581 0.130456
vn 0.320433 0.945688 0.054740
vn 0.119774 0.986559 0.111159
vn 0.163619 0.923305 0.347471
vn 0.352740 0.695795 0.625654
vn 0.424930 0.562563 0.709195
vn 0.542100 0.031341 0.839730
vn 0.712704 0.133333 0.688677
vn 0.431472 0.172068 0.885565
vn 0.427586 0.222563 0.876149
vn 0.514824 0.850175 0.110268
vn 0.681654 0.713907 0.160263
vn 0.426246 0.889165 0.166432
vn 0.463293 0.771123 0.436725
vn 0.365440 0.873418 0.321862
vn 0.568836 0.473852 0.672228
vn 0.603957 0.315319 0.731990
vn 0.822374 0.551475 0.139919
vn 0.686557 0.541810 0.484852
vn 0.616412 0.682560 0.392618
vn 0.687779 0.705515 0.170906
vn 0.857915 -0.027659 0.513046
vn 0.714305 0.196445 0.671697
vn 0.713640 0.137251 0.686935
vn 0.965193 0.171589 0.197382
vn 0.922175 0.360778 0.139397
vn 0.944647 0.127655 0.302235
vn 0.868679 0.455143 0.195553
vn 0.967266 0.190940 0.167146
vn 0.805400 0.421542 0.416693
vn 0.885371 0.174289 0.430978
vn 0.836853 0.255188 0.484310
vn 0.000000 1.000000 0.000000
vn 0.000000 1.000000 -0.000000
vn -0.026903 0.993353 -0.111924
vn 0.111814 0.992377 -0.051817
vn 0.153009 0.932769 -0.326389
vn 0.328378 0.938452 -0.107125
vn 0.226364 0.961650 -0.154880
vn 0.150236 0.927635 -0.341938
vn -0.026952 0.846416 -0.531839
vn 0.155920 0.930388 -0.331765
vn 0.526494 0.837909 -0.143918
vn 0.482721 0.858709 -0.172046
vn 0.411963 0.817403 -0.402664
vn 0.173044 0.775742 -0.606861
vn 0.260617 0.863441 -0.431912
vn 0.697040 0.697043 -0.168127
vn 0.837911 0.526491 -0.143917
vn 0.697040 0.697042 -0.168127
vn 0.097333 0.529505 -0.842704
vn -0.006870 0.707090 -0.707090
vn 0.176532 0.745572 -0.642619
vn 0.639305 0.639307 -0.427288
vn 0.507749 0.714663 -0.481090
vn 0.938451 0.328382 -0.107124
vn 0.932768 0.153009 -0.326393
vn 0.858710 0.482721 -0.172044
vn 0.406619 0.612744 -0.677647
vn 0.142145 0.515441 -0.845053
vn 0.256407 0.659486 -0.706635
vn 0.817403 0.411961 -0.402667
vn 0.714664 0.507746 -0.481091
vn 0.992377 0.111814 -0.051818
vn 0.993353 -0.026899 -0.111924
vn 0.961650 0.226364 -0.154881
vn 0.927637 0.150237 -0.341935
vn 0.482427 0.482425 -0.731116
vn 0.612746 0.406616 -0.677647
vn 0.846418 -0.026953 -0.531836
vn 0.775743 0.173046 -0.606859
vn 0.930388 0.155918 -0.331764
vn 0.863440 0.260618 -0.431914
vn 0.109318 0.111294 -0.987757
vn 0.108555 0.328328 -0.938305
vn 0.328328 0.108554 -0.938305
vn 0.111294 0.109318 -0.987757
vn 0.186579 0.397731 -0.898331
vn 0.397732 0.186580 -0.898330
vn 0.338733 0.338732 -0.877793
vn 0.707089 -0.006875 -0.707091
vn 0.529506 0.097329 -0.842704
vn 0.745572 0.176534 -0.642618
vn 0.515440 0.142147 -0.845054
vn 0.659486 0.256410 -0.706635
vn 0.068264 0.997667 -0.000231
vn 0.022792 0.999740 -0.000000
vn 0.290459 0.956887 -0.000101
vn 0.195294 0.980745 0.000056
vn 0.122203 0.992505 -0.000523
vn 0.111965 0.993712 -0.000675
vn 0.413619 0.910450 0.000296
vn 0.330278 0.943883 -0.000707
vn 0.618390 0.785870 0.001614
vn 0.532032 0.846724 -0.000528
vn 0.850077 0.526657 0.001479
vn 0.707105 0.707108 -0.000722
vn 0.846725 0.532028 0.001776
vn 0.984763 0.173879 0.002897
vn 0.943882 0.330282 -0.000884
vn 0.993712 0.111965 -0.000000
vn 0.993353 0.026899 -0.111924
vn 0.992377 -0.111814 -0.051818
vn 0.932768 -0.153009 -0.326393
vn 0.938451 -0.328382 -0.107124
vn 0.927637 -0.150237 -0.341935
vn 0.961650 -0.226364 -0.154881
vn 0.846418 0.026953 -0.531836
vn 0.930388 -0.155918 -0.331764
vn 0.837911 -0.526491 -0.143917
vn 0.858710 -0.482721 -0.172044
vn 0.817403 -0.411961 -0.402667
vn 0.775743 -0.173046 -0.606859
vn 0.863440 -0.260618 -0.431914
vn 0.697040 -0.697043 -0.168126
vn 0.526494 -0.837909 -0.143918
vn 0.697040 -0.697042 -0.168127
vn 0.529506 -0.097329 -0.842704
vn 0.707089 0.006875 -0.707091
vn 0.745572 -0.176534 -0.642618
vn 0.639305 -0.639307 -0.427288
vn 0.714664 -0.507746 -0.481091
vn 0.153009 -0.932769 -0.326389
vn 0.328378 -0.938452 -0.107125
vn 0.482721 -0.858709 -0.172046
vn 0.659486 -0.256410 -0.706635
vn 0.612746 -0.406616 -0.677647
vn 0.515440 -0.142147 -0.845054
vn 0.507749 -0.714663 -0.481090
vn 0.411963 -0.817403 -0.402664
vn -0.026903 -0.993353 -0.111924
vn 0.111814 -0.992377 -0.051817
vn 0.226365 -0.961650 -0.154880
vn 0.150236 -0.927636 -0.341938
vn 0.406619 -0.612744 -0.677647
vn 0.482427 -0.482425 -0.731116
vn -0.026952 -0.846416 -0.531839
vn 0.155920 -0.930388 -0.331765
vn 0.173044 -0.775742 -0.606861
vn 0.260617 -0.863441 -0.431912
vn 0.108555 -0.328328 -0.938305
vn 0.109318 -0.111294 -0.987757
vn 0.111294 -0.109318 -0.987757
vn 0.328328 -0.108554 -0.938305
vn 0.186579 -0.397731 -0.898331
vn 0.397732 -0.186580 -0.898330
vn 0.338733 -0.338732 -0.877793
vn -0.006870 -0.707090 -0.707090
vn 0.097333 -0.529505 -0.842704
vn 0.142145 -0.515441 -0.845053
vn 0.176532 -0.745572 -0.642619
vn 0.256407 -0.659486 -0.706635
vn 0.111965 0.000000 -0.993712
vn 0.111965 0.000000 -0.993712
vn 0.330280 0.000000 -0.943883
vn 0.330280 0.000000 -0.943883
vn 0.532032 0.000000 -0.846725
vn 0.532032 0.000000 -0.846725
vn 0.707105 0.000000 -0.707108
vn 0.707105 0.000000 -0.707108
vn 0.846726 0.000000 -0.532030
vn 0.846726 0.000000 -0.532030
vn 0.943882 0.000000 -0.330282
vn 0.943882 0.000000 -0.330282
vn 0.993712 0.000000 -0.111964
vn 0.993712 0.000000 -0.111964
vn 0.023627 -0.999721 0.000000
vn 0.111965 -0.993712 -0.000680
vn 0.070900 -0.997483 -0.000248
vn 0.125853 -0.992049 -0.000479
vn 0.197787 -0.980245 0.000061
vn 0.330278 -0.943883 -0.000663
vn 0.292645 -0.956221 -0.000117
vn 0.532033 -0.846724 -0.000472
vn 0.413732 -0.910399 0.000267
vn 0.846726 -0.532029 0.001037
vn 0.707105 -0.707108 -0.000528
vn 0.612497 -0.790472 0.001287
vn 0.943882 -0.330282 -0.000470
vn 0.845308 -0.534279 0.000962
vn 0.993712 -0.111965 0.000000
vn 0.981503 -0.191444 0.001320
vn -0.993353 -0.026899 -0.111924
vn -0.992377 0.111814 -0.051818
vn -0.932769 0.153009 -0.326391
vn -0.938452 0.328379 -0.107125
vn -0.961650 0.226364 -0.154881
vn -0.927637 0.150237 -0.341935
vn -0.846417 -0.026948 -0.531838
vn -0.930386 0.155921 -0.331767
vn -0.837910 0.526492 -0.143919
vn -0.858708 0.482722 -0.172046
vn -0.817403 0.411963 -0.402665
vn -0.775744 0.173045 -0.606859
vn -0.863441 0.260617 -0.431913
vn -0.697040 0.697043 -0.168126
vn -0.526494 0.837909 -0.143918
vn -0.697041 0.697041 -0.168128
vn -0.529505 0.097333 -0.842704
vn -0.707089 -0.006869 -0.707091
vn -0.745570 0.176533 -0.642621
vn -0.639306 0.639306 -0.427288
vn -0.714663 0.507749 -0.481090
vn -0.328378 0.938452 -0.107125
vn -0.153009 0.932769 -0.326389
vn -0.482721 0.858709 -0.172046
vn -0.612745 0.406619 -0.677647
vn -0.515442 0.142145 -0.845053
vn -0.659486 0.256407 -0.706635
vn -0.411963 0.817403 -0.402665
vn -0.507749 0.714663 -0.481091
vn -0.111814 0.992377 -0.051817
vn 0.026903 0.993353 -0.111924
vn -0.226365 0.961650 -0.154880
vn -0.150236 0.927636 -0.341938
vn -0.482427 0.482426 -0.731115
vn -0.406619 0.612745 -0.677647
vn 0.026952 0.846416 -0.531839
vn -0.173044 0.775742 -0.606861
vn -0.155920 0.930388 -0.331765
vn -0.260618 0.863441 -0.431913
vn -0.111294 0.109318 -0.987757
vn -0.328328 0.108554 -0.938305
vn -0.108555 0.328328 -0.938305
vn -0.109318 0.111294 -0.987757
vn -0.397731 0.186579 -0.898331
vn -0.186579 0.397731 -0.898331
vn -0.338732 0.338732 -0.877793
vn 0.006870 0.707090 -0.707090
vn -0.097333 0.529505 -0.842704
vn -0.176532 0.745572 -0.642619
vn -0.142145 0.515441 -0.845053
vn -0.256407 0.659486 -0.706635
vn -0.025040 0.999686 0.000000
vn -0.111965 0.993712 -0.000692
vn -0.074975 0.997185 -0.000278
vn -0.124627 0.992204 -0.000516
vn -0.174337 0.984686 -0.000100
vn -0.231671 0.972794 0.000058
vn -0.330279 0.943883 -0.000667
vn -0.311504 0.950245 -0.000342
vn -0.532032 0.846724 -0.000632
vn -0.428672 0.903460 0.000327
vn -0.707105 0.707108 -0.000682
vn -0.590693 0.806896 0.000672
vn -0.846725 0.532031 -0.000552
vn -0.794578 0.607159 0.001913
vn -0.943883 0.330280 -0.000357
vn -0.934173 0.356820 0.000628
vn -0.993712 0.111965 0.000000
vn -0.992714 0.120497 0.000398
vn 0.000000 0.993712 -0.111964
vn 0.000000 0.993712 -0.111964
vn 0.000000 0.943883 -0.330279
vn 0.000000 0.943883 -0.330279
vn 0.000000 0.846724 -0.532033
vn 0.000000 0.846724 -0.532033
vn 0.000000 0.707107 -0.707107
vn 0.000000 0.707107 -0.707107
vn 0.000000 0.532031 -0.846725
vn 0.000000 0.532031 -0.846725
vn 0.000000 0.330280 -0.943883
vn 0.000000 0.330280 -0.943883
vn 0.000000 0.111965 -0.993712
vn 0.000000 0.111965 -0.993712
vn 0.026903 -0.993353 -0.111924
vn -0.111814 -0.992377 -0.051817
vn -0.153009 -0.932769 -0.326389
vn -0.328378 -0.938452 -0.107125
vn -0.226364 -0.961650 -0.154880
vn -0.150236 -0.927635 -0.341938
vn 0.026952 -0.846416 -0.531839
vn -0.155920 -0.930388 -0.331765
vn -0.526494 -0.837909 -0.143918
vn -0.482721 -0.858709 -0.172046
vn -0.411963 -0.817403 -0.402665
vn -0.173044 -0.775742 -0.606861
vn -0.260618 -0.863441 -0.431913
vn -0.697040 -0.697043 -0.168128
vn -0.837910 -0.526492 -0.143919
vn -0.697041 -0.697041 -0.168127
vn -0.097333 -0.529505 -0.842704
vn 0.006870 -0.707090 -0.707090
vn -0.176532 -0.745572 -0.642619
vn -0.639306 -0.639306 -0.427288
vn -0.507749 -0.714663 -0.481091
vn -0.938452 -0.328379 -0.107125
vn -0.932769 -0.153009 -0.326391
vn -0.858708 -0.482722 -0.172046
vn -0.406619 -0.612745 -0.677647
vn -0.142145 -0.515441 -0.845053
vn -0.256407 -0.659486 -0.706635
vn -0.817403 -0.411963 -0.402665
vn -0.714663 -0.507749 -0.481090
vn -0.992377 -0.111814 -0.051818
vn -0.993353 0.026899 -0.111924
vn -0.961650 -0.226364 -0.154881
vn -0.927637 -0.150237 -0.341935
vn -0.482427 -0.482426 -0.731115
vn -0.612745 -0.406619 -0.677647
vn -0.846417 0.026948 -0.531838
vn -0.775744 -0.173045 -0.606859
vn -0.930386 -0.155921 -0.331767
vn -0.863441 -0.260617 -0.431913
vn -0.109318 -0.111294 -0.987757
vn -0.108555 -0.328328 -0.938305
vn -0.328328 -0.108554 -0.938305
vn -0.111294 -0.109318 -0.987757
vn -0.186579 -0.397731 -0.898331
vn -0.397731 -0.186579 -0.898331
vn -0.338732 -0.338732 -0.877793
vn -0.707089 0.006869 -0.707091
vn -0.529505 -0.097333 -0.842704
vn -0.745570 -0.176533 -0.642621
vn -0.515442 -0.142145 -0.845053
vn -0.659486 -0.256407 -0.706635
vn -0.023821 -0.999716 0.000000
vn -0.071489 -0.997441 -0.000252
vn -0.119152 -0.992876 -0.000578
vn -0.166104 -0.986108 -0.000151
vn -0.220467 -0.975394 0.000055
vn -0.297469 -0.954731 -0.000204
vn -0.111965 -0.993712 -0.000681
vn -0.408166 -0.912908 0.000228
vn -0.330278 -0.943883 -0.000669
vn -0.584468 -0.811416 0.000784
vn -0.532032 -0.846724 -0.000412
vn -0.777926 -0.628356 0.000832
vn -0.707105 -0.707108 -0.000581
vn -0.917179 -0.398474 0.000713
vn -0.846725 -0.532031 -0.000544
vn -0.943883 -0.330280 -0.000335
vn -0.990819 -0.135194 0.000000
vn -0.993712 -0.111965 0.000511
vn -0.111965 0.000000 -0.993712
vn -0.111965 -0.000000 -0.993712
vn -0.330280 -0.000000 -0.943883
vn -0.330280 0.000000 -0.943883
vn -0.532032 -0.000000 -0.846725
vn -0.532032 0.000000 -0.846725
vn -0.707105 -0.000000 -0.707108
vn -0.707105 0.000000 -0.707108
vn -0.943883 -0.000000 -0.330280
vn -0.846725 -0.000000 -0.532032
vn -0.846725 0.000000 -0.532032
vn -0.943883 -0.000000 -0.330280
vn -0.993712 -0.000000 -0.111964
vn -0.993712 0.000000 -0.111964
vn 0.000000 -0.111965 -0.993712
vn 0.000000 -0.111965 -0.993712
vn 0.000000 -0.330280 -0.943883
vn 0.000000 -0.330280 -0.943883
vn 0.000000 -0.532031 -0.846725
vn 0.000000 -0.532031 -0.846725
vn 0.000000 -0.707107 -0.707107
vn 0.000000 -0.707107 -0.707107
vn 0.000000 -0.846724 -0.532033
vn 0.000000 -0.846724 -0.532033
vn 0.000000 -0.943883 -0.330279
vn 0.000000 -0.943883 -0.330279
vn 0.000000 -0.993712 -0.111964
vn 0.000000 -0.993712 -0.111964
vn 0.000000 1.000000 0.000000
vn 0.000000 1.000000 -0.000000
vn 0.000000 0.000000 -1.000000
vn 0.000000 0.000000 -1.000000
vn 0.000000 -1.000000 0.000000
vn 0.000000 -1.000000 -0.000000
vn -0.000009 0.972729 0.231945
vn 0.000009 0.972728 0.231947
vn -0.000009 0.972729 0.231945
vn 0.000004 0.972729 0.231946
vn 0.000000 0.972729 0.231946
vn 0.000009 0.972728 0.231947
vn -0.000002 0.972729 0.231946
vn 0.000003 0.972729 0.231946
vn -0.000003 0.972729 0.231946
vn 0.000000 0.972729 0.231946
vn -0.000000 0.972729 0.231945
vn -0.000188 0.972729 0.231945
vn -0.000121 0.972728 0.231950
vn -0.000000 0.972729 0.231946
vn 0.000000 0.972729 0.231946
vn -0.000014 0.972729 0.231947
vn 0.000021 0.972729 0.231944
vn -0.000007 0.972729 0.231947
vn 0.000000 0.972729 0.231946
vn -0.000002 0.972729 0.231946
vn 0.000623 0.972716 0.231997
vn -0.001250 0.972681 0.232144
vn 0.000000 0.972729 0.231946
vn 0.000000 0.972729 0.231946
vn 0.000001 0.972729 0.231946
vn -0.000002 0.972729 0.231946
vn 0.000005 0.972729 0.231946
vn 0.000000 0.972729 0.231945
vn 0.000003 0.972729 0.231946
vn -0.000003 0.972729 0.231946
vn -0.000000 0.972387 -0.233373
vn 0.000001 0.972387 -0.233373
vn -0.000000 0.972387 -0.233373
vn -0.000002 0.972387 -0.233373
vn -0.000001 0.972387 -0.233373
vn 0.000000 0.972387 -0.233373
vn 0.000003 0.972387 -0.233373
vn 0.000002 0.972387 -0.233373
vn -0.000002 0.972387 -0.233373
vn 0.000002 0.972387 -0.233373
vn -0.000003 0.972387 -0.233373
vn 0.000004 0.972387 -0.233373
vn -0.000001 0.972387 -0.233373
vn 0.000000 0.972387 -0.233373
vn 0.000000 0.972387 -0.233373
vn 0.000006 0.972387 -0.233373
vn -0.000000 0.972387 -0.233373
vn 0.000001 0.972387 -0.233373
vn -0.000001 0.972387 -0.233373
vn -0.000000 0.972387 -0.233373
vn 0.000000 0.972387 -0.233373
vn -0.000005 0.972387 -0.233373
vn 0.000000 -1.000000 0.000000
vn 0.000000 -1.000000 -0.000000
vn -0.000000 -0.977447 0.211179
vn -0.000001 -0.977447 0.211179
vn 0.000002 -0.977448 0.211178
vn -0.000001 -0.977447 0.211181
vn 0.000002 -0.977448 0.211174
vn -0.000009 -0.977442 0.211204
vn 0.000010 -0.977459 0.211125
vn 0.000000 -0.977447 0.211179
vn 0.000000 -0.977447 0.211179
vn 0.000000 -0.977447 0.211179
vn 0.000000 -0.977447 0.211179
vn 0.000000 -0.977447 0.211179
vn 0.000000 -0.977447 0.211179
vn 0.000001 -0.977447 0.211179
vn -0.000001 -0.977447 0.211179
vn 0.000000 -0.977447 0.211179
vn -0.000001 -0.977448 0.211178
vn -0.000004 -0.977451 0.211163
vn 0.000000 -0.977447 0.211179
vn 0.000002 -0.977447 0.211181
vn -0.000002 -0.977449 0.211173
vn 0.000002 -0.977447 0.211181
vn 0.000035 -0.977786 -0.209605
vn 0.000001 -0.977755 -0.209752
vn 0.000008 -0.977759 -0.209733
vn 0.000001 -0.977756 -0.209747
vn 0.000006 -0.977757 -0.209739
vn 0.000003 -0.977757 -0.209743
vn 0.000001 -0.977756 -0.209744
vn 0.000003 -0.977757 -0.209744
vn -0.000000 -0.977756 -0.209744
vn 0.000007 -0.977740 -0.209819
vn -0.000020 -0.977765 -0.209703
vn -0.000005 -0.977757 -0.209740
vn -0.000006 -0.977757 -0.209740
vn -0.000002 -0.977756 -0.209744
vn -0.000003 -0.977757 -0.209743
vn 0.000000 -0.977756 -0.209744
vn 0.000000 -0.977756 -0.209744
vn -0.000001 -0.977756 -0.209744
vn 0.000000 -0.977756 -0.209744
vn 0.000000 -0.977756 -0.209744
vn 0.000000 -0.977756 -0.209744
vn 0.000000 -0.977756 -0.209744
f 1//1 2//1 3//1
f 4//2 3//2 5//2
f 4//3 1//3 3//3
f 6//4 4//4 5//4
f 7//5 6//5 5//5
f 8//6 5//6 9//6
f 8//7 7//7 5//7
f 10//8 9//8 11//8
f 10//9 8//9 9//9
f 12//10 11//10 13//10
f 12//11 13//11 14//11
f 12//12 10//12 11//12
f 15//13 14//13 16//13
f 15//14 12//14 14//14
f 17//15 16//15 18//15
f 17//16 15//16 16//16
f 19//17 20//17 21//17
f 19//18 3//18 20//18
f 22//19 21//19 23//19
f 22//20 19//20 21//20
f 24//21 23//21 25//21
f 24//22 22//22 23//22
f 26//23 25//23 27//23
f 26//24 24//24 25//24
f 28//25 27//25 29//25
f 28//26 26//26 27//26
f 30//27 29//27 31//27
f 30//28 28//28 29//28
f 32//29 31//29 33//29
f 32//30 30//30 31//30
f 20//31 34//31 35//31
f 20//32 35//32 36//32
f 37//33 36//33 38//33
f 37//34 38//34 39//34
f 37//35 39//35 40//35
f 37//36 40//36 41//36
f 37//37 20//37 36//37
f 42//38 41//38 43//38
f 42//39 37//39 41//39
f 44//40 43//40 45//40
f 44//41 42//41 43//41
f 46//42 45//42 47//42
f 46//43 44//43 45//43
f 48//44 47//44 49//44
f 48//45 46//45 47//45
f 50//46 48//46 49//46
f 51//47 49//47 52//47
f 51//48 50//48 49//48
f 53//49 50//49 51//49
f 53//50 51//50 54//50
f 55//51 48//51 50//51
f 55//52 54//52 56//52
f 55//53 50//53 53//53
f 55//54 53//54 54//54
f 57//55 46//55 48//55
f 57//56 48//56 55//56
f 58//57 56//57 59//57
f 58//58 59//58 60//58
f 58//59 55//59 56//59
f 61//60 55//60 58//60
f 61//61 57//61 55//61
f 61//62 46//62 57//62
f 62//63 60//63 63//63
f 62//64 58//64 60//64
f 64//65 44//65 46//65
f 64//66 42//66 44//66
f 64//67 46//67 61//67
f 65//68 58//68 62//68
f 65//69 61//69 58//69
f 66//70 63//70 67//70
f 66//71 31//71 29//71
f 66//72 62//72 63//72
f 68//73 61//73 65//73
f 68//74 42//74 64//74
f 68//75 64//75 61//75
f 69//76 62//76 66//76
f 69//77 65//77 62//77
f 70//78 67//78 33//78
f 70//79 33//79 31//79
f 70//80 66//80 67//80
f 70//81 31//81 66//81
f 71//82 68//82 65//82
f 71//83 65//83 69//83
f 72//84 29//84 27//84
f 72//85 27//85 69//85
f 72//86 66//86 29//86
f 72//87 69//87 66//87
f 73//88 37//88 42//88
f 73//89 20//89 37//89
f 73//90 21//90 20//90
f 73//91 23//91 21//91
f 73//92 42//92 68//92
f 73//93 71//93 23//93
f 73//94 68//94 71//94
f 74//95 25//95 23//95
f 74//96 27//96 25//96
f 74//97 69//97 27//97
f 74//98 23//98 71//98
f 74//99 71//99 69//99
f 75//100 30//100 32//100
f 75//101 32//101 76//101
f 77//102 28//102 30//102
f 77//103 76//103 78//103
f 77//104 30//104 75//104
f 77//105 75//105 76//105
f 79//106 26//106 28//106
f 79//107 28//107 77//107
f 80//108 78//108 81//108
f 80//109 77//109 78//109
f 82//110 77//110 80//110
f 82//111 79//111 77//111
f 82//112 26//112 79//112
f 83//113 81//113 84//113
f 83//114 84//114 85//114
f 83//115 80//115 81//115
f 86//116 24//116 26//116
f 86//117 22//117 24//117
f 86//118 26//118 82//118
f 87//119 80//119 83//119
f 87//120 82//120 80//120
f 88//121 85//121 89//121
f 88//122 16//122 14//122
f 88//123 83//123 85//123
f 90//124 86//124 82//124
f 90//125 82//125 87//125
f 90//126 22//126 86//126
f 91//127 83//127 88//127
f 91//128 87//128 83//128
f 92//129 89//129 18//129
f 92//130 18//130 16//130
f 92//131 16//131 88//131
f 92//132 88//132 89//132
f 93//133 90//133 87//133
f 93//134 87//134 91//134
f 94//135 14//135 13//135
f 94//136 13//136 91//136
f 94//137 88//137 14//137
f 94//138 91//138 88//138
f 95//139 19//139 22//139
f 95//140 3//140 19//140
f 95//141 5//141 3//141
f 95//142 9//142 5//142
f 95//143 93//143 9//143
f 95//144 22//144 90//144
f 95//145 90//145 93//145
f 96//146 11//146 9//146
f 96//147 13//147 11//147
f 96//148 91//148 13//148
f 96//149 9//149 93//149
f 96//150 93//150 91//150
f 97//151 17//151 18//151
f 17//152 98//152 99//152
f 99//153 98//153 100//153
f 97//154 98//154 17//154
f 100//155 101//155 102//155
f 98//156 101//156 100//156
f 101//157 103//157 102//157
f 76//158 32//158 104//158
f 76//159 104//159 105//159
f 78//160 105//160 106//160
f 78//161 76//161 105//161
f 81//162 106//162 107//162
f 81//163 78//163 106//163
f 84//164 107//164 108//164
f 84//165 81//165 107//165
f 85//166 108//166 109//166
f 85//167 84//167 108//167
f 89//168 109//168 110//168
f 89//169 111//169 112//169
f 89//170 110//170 111//170
f 89//171 85//171 109//171
f 18//172 113//172 97//172
f 18//173 112//173 113//173
f 18//174 89//174 112//174
f 104//175 32//175 114//175
f 114//176 32//176 33//176
f 114//177 33//177 67//177
f 115//178 67//178 63//178
f 115//179 114//179 67//179
f 116//180 63//180 60//180
f 116//181 115//181 63//181
f 117//182 60//182 59//182
f 117//183 116//183 60//183
f 118//184 59//184 56//184
f 118//185 117//185 59//185
f 119//186 56//186 54//186
f 119//187 118//187 56//187
f 120//188 119//188 54//188
f 121//189 120//189 54//189
f 122//190 54//190 51//190
f 122//191 121//191 54//191
f 123//192 122//192 51//192
f 124//193 123//193 51//193
f 125//194 126//194 127//194
f 128//195 129//195 125//195
f 125//196 129//196 126//196
f 128//197 130//197 129//197
f 128//198 52//198 130//198
f 128//199 124//199 52//199
f 124//200 51//200 52//200
f 131//201 132//201 133//201
f 131//202 134//202 132//202
f 131//203 135//203 134//203
f 136//204 137//204 138//204
f 136//205 133//205 137//205
f 136//206 131//206 133//206
f 139//207 138//207 140//207
f 139//208 136//208 138//208
f 141//209 140//209 142//209
f 141//210 139//210 140//210
f 143//211 141//211 142//211
f 144//212 143//212 142//212
f 145//213 143//213 144//213
f 146//214 145//214 144//214
f 147//215 146//215 144//215
f 146//216 148//216 149//216
f 146//217 147//217 148//217
f 150//218 106//218 105//218
f 150//219 105//219 104//219
f 150//220 104//220 151//220
f 152//221 108//221 107//221
f 152//222 107//222 106//222
f 152//223 106//223 150//223
f 153//224 151//224 154//224
f 153//225 150//225 151//225
f 155//226 109//226 108//226
f 155//227 108//227 152//227
f 156//228 152//228 150//228
f 156//229 150//229 153//229
f 157//230 152//230 156//230
f 157//231 155//231 152//231
f 158//232 154//232 159//232
f 158//233 159//233 160//233
f 158//234 156//234 153//234
f 158//235 153//235 154//235
f 161//236 149//236 110//236
f 161//237 110//237 109//237
f 161//238 145//238 146//238
f 161//239 109//239 155//239
f 161//240 146//240 149//240
f 161//241 155//241 157//241
f 162//242 156//242 158//242
f 162//243 157//243 156//243
f 163//244 143//244 145//244
f 163//245 157//245 162//245
f 163//246 161//246 157//246
f 163//247 145//247 161//247
f 164//248 160//248 165//248
f 164//249 165//249 166//249
f 164//250 158//250 160//250
f 164//251 162//251 158//251
f 167//252 141//252 143//252
f 167//253 139//253 141//253
f 167//254 163//254 162//254
f 167//255 143//255 163//255
f 167//256 162//256 164//256
f 168//257 166//257 131//257
f 168//258 136//258 139//258
f 168//259 131//259 136//259
f 168//260 139//260 167//260
f 168//261 164//261 166//261
f 168//262 167//262 164//262
f 104//263 114//263 169//263
f 151//264 169//264 170//264
f 151//265 104//265 169//265
f 154//266 170//266 171//266
f 154//267 151//267 170//267
f 159//268 171//268 172//268
f 159//269 154//269 171//269
f 160//270 172//270 173//270
f 160//271 159//271 172//271
f 165//272 173//272 174//272
f 165//273 160//273 173//273
f 166//274 174//274 175//274
f 166//275 165//275 174//275
f 131//276 166//276 175//276
f 176//277 177//277 175//277
f 178//278 176//278 175//278
f 179//279 175//279 180//279
f 179//280 178//280 175//280
f 181//281 179//281 180//281
f 182//282 181//282 180//282
f 183//283 180//283 184//283
f 183//284 182//284 180//284
f 185//285 184//285 186//285
f 185//286 183//286 184//286
f 187//287 186//287 188//287
f 187//288 185//288 186//288
f 189//289 188//289 190//289
f 189//290 187//290 188//290
f 191//291 190//291 192//291
f 191//292 189//292 190//292
f 193//293 191//293 192//293
f 194//294 192//294 195//294
f 193//295 192//295 194//295
f 196//296 170//296 169//296
f 197//297 172//297 171//297
f 197//298 171//298 170//298
f 197//299 170//299 196//299
f 198//300 169//300 114//300
f 198//301 114//301 115//301
f 198//302 115//302 116//302
f 198//303 196//303 169//303
f 199//304 174//304 173//304
f 199//305 173//305 172//305
f 199//306 172//306 197//306
f 200//307 196//307 198//307
f 200//308 197//308 196//308
f 201//309 180//309 175//309
f 201//310 184//310 180//310
f 201//311 175//311 174//311
f 201//312 174//312 199//312
f 202//313 199//313 197//313
f 202//314 197//314 200//314
f 203//315 116//315 117//315
f 203//316 117//316 118//316
f 203//317 198//317 116//317
f 203//318 200//318 198//318
f 204//319 186//319 184//319
f 204//320 188//320 186//320
f 204//321 184//321 201//321
f 204//322 199//322 202//322
f 204//323 201//323 199//323
f 205//324 202//324 200//324
f 205//325 200//325 203//325
f 206//326 190//326 188//326
f 206//327 202//327 205//327
f 206//328 204//328 202//328
f 206//329 188//329 204//329
f 207//330 118//330 119//330
f 207//331 205//331 203//331
f 207//332 203//332 118//332
f 208//333 120//333 195//333
f 208//334 192//334 190//334
f 208//335 119//335 120//335
f 208//336 190//336 206//336
f 208//337 195//337 192//337
f 208//338 206//338 205//338
f 208//339 207//339 119//339
f 208//340 205//340 207//340
f 135//341 131//341 177//341
f 177//342 131//342 175//342
f 209//343 210//343 211//343
f 209//344 211//344 212//344
f 213//345 214//345 210//345
f 213//346 212//346 215//346
f 213//347 209//347 212//347
f 213//348 210//348 209//348
f 216//349 217//349 214//349
f 216//350 214//350 213//350
f 218//351 215//351 219//351
f 218//352 213//352 215//352
f 220//353 213//353 218//353
f 220//354 217//354 216//354
f 220//355 216//355 213//355
f 221//356 219//356 222//356
f 221//357 222//357 223//357
f 221//358 218//358 219//358
f 224//359 225//359 226//359
f 224//360 226//360 217//360
f 224//361 217//361 220//361
f 227//362 218//362 221//362
f 227//363 220//363 218//363
f 228//364 223//364 229//364
f 228//365 230//365 231//365
f 228//366 221//366 223//366
f 232//367 220//367 227//367
f 232//368 225//368 224//368
f 232//369 224//369 220//369
f 233//370 221//370 228//370
f 233//371 227//371 221//371
f 234//372 229//372 127//372
f 234//373 127//373 230//373
f 234//374 228//374 229//374
f 234//375 230//375 228//375
f 235//376 232//376 227//376
f 235//377 227//377 233//377
f 236//378 231//378 237//378
f 236//379 237//379 233//379
f 236//380 228//380 231//380
f 236//381 233//381 228//381
f 238//382 239//382 240//382
f 238//383 240//383 225//383
f 238//384 241//384 242//384
f 238//385 242//385 239//385
f 238//386 225//386 232//386
f 238//387 235//387 241//387
f 238//388 232//388 235//388
f 243//389 237//389 244//389
f 243//390 244//390 241//390
f 243//391 233//391 237//391
f 243//392 241//392 235//392
f 243//393 235//393 233//393
f 211//394 245//394 246//394
f 211//395 247//395 245//395
f 212//396 248//396 249//396
f 212//397 250//397 248//397
f 212//398 246//398 250//398
f 212//399 211//399 246//399
f 215//400 249//400 251//400
f 215//401 212//401 249//401
f 219//402 251//402 252//402
f 219//403 215//403 251//403
f 222//404 252//404 253//404
f 222//405 219//405 252//405
f 223//406 222//406 253//406
f 229//407 253//407 125//407
f 229//408 223//408 253//408
f 127//409 229//409 125//409
f 254//410 255//410 126//410
f 254//411 126//411 256//411
f 257//412 258//412 255//412
f 257//413 256//413 259//413
f 257//414 255//414 254//414
f 257//415 254//415 256//415
f 260//416 261//416 258//416
f 260//417 258//417 257//417
f 262//418 259//418 263//418
f 262//419 257//419 259//419
f 264//420 257//420 262//420
f 264//421 261//421 260//421
f 264//422 260//422 257//422
f 265//423 263//423 266//423
f 265//424 266//424 267//424
f 265//425 262//425 263//425
f 268//426 269//426 270//426
f 268//427 270//427 261//427
f 268//428 261//428 264//428
f 271//429 262//429 265//429
f 271//430 264//430 262//430
f 272//431 273//431 274//431
f 272//432 267//432 275//432
f 272//433 265//433 267//433
f 276//434 268//434 264//434
f 276//435 264//435 271//435
f 276//436 269//436 268//436
f 277//437 271//437 265//437
f 277//438 265//438 272//438
f 278//439 279//439 273//439
f 278//440 275//440 279//440
f 278//441 272//441 275//441
f 278//442 273//442 272//442
f 280//443 271//443 277//443
f 280//444 276//444 271//444
f 281//445 274//445 282//445
f 281//446 272//446 274//446
f 281//447 282//447 277//447
f 281//448 277//448 272//448
f 283//449 284//449 285//449
f 283//450 285//450 286//450
f 283//451 286//451 287//451
f 283//452 287//452 269//452
f 283//453 280//453 284//453
f 283//454 269//454 276//454
f 283//455 276//455 280//455
f 288//456 282//456 289//456
f 288//457 289//457 284//457
f 288//458 284//458 280//458
f 288//459 277//459 282//459
f 288//460 280//460 277//460
f 287//461 286//461 239//461
f 287//462 239//462 242//462
f 269//463 242//463 241//463
f 269//464 287//464 242//464
f 270//465 241//465 244//465
f 270//466 269//466 241//466
f 261//467 244//467 237//467
f 261//468 270//468 244//468
f 258//469 237//469 231//469
f 258//470 261//470 237//470
f 255//471 231//471 230//471
f 255//472 258//472 231//472
f 126//473 230//473 127//473
f 126//474 255//474 230//474
f 290//475 291//475 279//475
f 292//476 279//476 275//476
f 292//477 290//477 279//477
f 293//478 292//478 275//478
f 294//479 293//479 275//479
f 295//480 275//480 267//480
f 295//481 294//481 275//481
f 296//482 267//482 266//482
f 296//483 295//483 267//483
f 297//484 263//484 259//484
f 297//485 266//485 263//485
f 297//486 296//486 266//486
f 298//487 259//487 256//487
f 298//488 297//488 259//488
f 129//489 256//489 126//489
f 129//490 298//490 256//490
f 299//491 300//491 103//491
f 299//492 103//492 301//492
f 302//493 303//493 300//493
f 302//494 301//494 304//494
f 302//495 299//495 301//495
f 302//496 300//496 299//496
f 305//497 306//497 303//497
f 305//498 303//498 302//498
f 307//499 304//499 308//499
f 307//500 302//500 304//500
f 309//501 302//501 307//501
f 309//502 306//502 305//502
f 309//503 305//503 302//503
f 310//504 308//504 311//504
f 310//505 311//505 312//505
f 310//506 307//506 308//506
f 313//507 314//507 315//507
f 313//508 315//508 306//508
f 313//509 306//509 309//509
f 316//510 307//510 310//510
f 316//511 309//511 307//511
f 317//512 312//512 318//512
f 317//513 319//513 320//513
f 317//514 310//514 312//514
f 321//515 309//515 316//515
f 321//516 314//516 313//516
f 321//517 313//517 309//517
f 322//518 310//518 317//518
f 322//519 316//519 310//519
f 323//520 318//520 324//520
f 323//521 324//521 319//521
f 323//522 317//522 318//522
f 323//523 319//523 317//523
f 325//524 321//524 316//524
f 325//525 316//525 322//525
f 326//526 320//526 327//526
f 326//527 327//527 322//527
f 326//528 317//528 320//528
f 326//529 322//529 317//529
f 328//530 329//530 330//530
f 328//531 330//531 314//531
f 328//532 331//532 332//532
f 328//533 332//533 329//533
f 328//534 314//534 321//534
f 328//535 325//535 331//535
f 328//536 321//536 325//536
f 333//537 327//537 334//537
f 333//538 334//538 331//538
f 333//539 322//539 327//539
f 333//540 331//540 325//540
f 333//541 325//541 322//541
f 335//542 336//542 324//542
f 337//543 324//543 318//543
f 337//544 335//544 324//544
f 338//545 337//545 318//545
f 339//546 338//546 318//546
f 340//547 339//547 318//547
f 341//548 318//548 312//548
f 341//549 340//549 318//549
f 342//550 312//550 311//550
f 342//551 341//551 312//551
f 343//552 311//552 308//552
f 343//553 342//553 311//553
f 344//554 308//554 304//554
f 344//555 343//555 308//555
f 345//556 304//556 301//556
f 345//557 344//557 304//557
f 101//558 301//558 103//558
f 101//559 345//559 301//559
f 319//560 324//560 211//560
f 319//561 211//561 210//561
f 320//562 210//562 214//562
f 320//563 319//563 210//563
f 327//564 214//564 217//564
f 327//565 320//565 214//565
f 334//566 217//566 226//566
f 334//567 327//567 217//567
f 331//568 226//568 225//568
f 331//569 334//569 226//569
f 332//570 225//570 240//570
f 332//571 331//571 225//571
f 329//572 240//572 239//572
f 329//573 332//573 240//573
f 346//574 347//574 348//574
f 346//575 348//575 349//575
f 350//576 351//576 347//576
f 350//577 349//577 352//577
f 350//578 346//578 349//578
f 350//579 347//579 346//579
f 353//580 354//580 351//580
f 353//581 351//581 350//581
f 355//582 352//582 356//582
f 355//583 350//583 352//583
f 357//584 350//584 355//584
f 357//585 354//585 353//585
f 357//586 353//586 350//586
f 358//587 356//587 359//587
f 358//588 359//588 360//588
f 358//589 355//589 356//589
f 361//590 362//590 363//590
f 361//591 363//591 354//591
f 361//592 354//592 357//592
f 364//593 355//593 358//593
f 364//594 357//594 355//594
f 365//595 360//595 366//595
f 365//596 367//596 368//596
f 365//597 358//597 360//597
f 369//598 357//598 364//598
f 369//599 362//599 361//599
f 369//600 361//600 357//600
f 370//601 358//601 365//601
f 370//602 364//602 358//602
f 371//603 366//603 102//603
f 371//604 102//604 367//604
f 371//605 365//605 366//605
f 371//606 367//606 365//606
f 372//607 369//607 364//607
f 372//608 364//608 370//608
f 373//609 368//609 374//609
f 373//610 374//610 370//610
f 373//611 365//611 368//611
f 373//612 370//612 365//612
f 375//613 376//613 377//613
f 375//614 377//614 362//614
f 375//615 378//615 379//615
f 375//616 379//616 376//616
f 375//617 362//617 369//617
f 375//618 372//618 378//618
f 375//619 369//619 372//619
f 380//620 374//620 381//620
f 380//621 381//621 378//621
f 380//622 370//622 374//622
f 380//623 378//623 372//623
f 380//624 372//624 370//624
f 348//625 382//625 383//625
f 348//626 383//626 384//626
f 349//627 384//627 385//627
f 349//628 385//628 386//628
f 349//629 386//629 387//629
f 349//630 387//630 388//630
f 349//631 348//631 384//631
f 352//632 388//632 389//632
f 352//633 349//633 388//633
f 356//634 389//634 390//634
f 356//635 352//635 389//635
f 359//636 390//636 391//636
f 359//637 356//637 390//637
f 360//638 391//638 392//638
f 360//639 359//639 391//639
f 366//640 360//640 392//640
f 102//641 392//641 100//641
f 102//642 366//642 392//642
f 330//643 329//643 376//643
f 330//644 376//644 379//644
f 314//645 379//645 378//645
f 314//646 330//646 379//646
f 315//647 378//647 381//647
f 315//648 314//648 378//648
f 306//649 381//649 374//649
f 306//650 315//650 381//650
f 303//651 368//651 367//651
f 303//652 374//652 368//652
f 303//653 306//653 374//653
f 300//654 303//654 367//654
f 103//655 367//655 102//655
f 103//656 300//656 367//656
f 377//657 376//657 286//657
f 377//658 286//658 285//658
f 362//659 285//659 284//659
f 362//660 377//660 285//660
f 363//661 284//661 289//661
f 363//662 362//662 284//662
f 354//663 289//663 282//663
f 354//664 363//664 289//664
f 351//665 282//665 274//665
f 351//666 354//666 282//666
f 347//667 274//667 273//667
f 347//668 351//668 274//668
f 348//669 273//669 279//669
f 348//670 347//670 273//670
f 324//671 336//671 211//671
f 211//672 336//672 247//672
f 376//673 329//673 286//673
f 286//674 329//674 239//674
f 3//675 2//675 20//675
f 20//676 2//676 34//676
f 181//677 182//677 128//677
f 128//678 179//678 181//678
f 128//679 178//679 179//679
f 182//680 183//680 128//680
f 128//681 176//681 178//681
f 128//682 177//682 176//682
f 183//683 185//683 128//683
f 185//684 187//684 128//684
f 187//685 189//685 128//685
f 191//686 193//686 124//686
f 193//687 123//687 124//687
f 193//688 194//688 123//688
f 194//689 122//689 123//689
f 98//690 135//690 128//690
f 128//691 135//691 177//691
f 98//692 134//692 135//692
f 98//693 132//693 134//693
f 98//694 133//694 132//694
f 98//695 137//695 133//695
f 98//696 138//696 137//696
f 195//697 122//697 194//697
f 149//698 111//698 110//698
f 98//699 97//699 147//699
f 98//700 147//700 144//700
f 98//701 144//701 142//701
f 98//702 142//702 140//702
f 98//703 140//703 138//703
f 147//704 97//704 113//704
f 124//705 128//705 191//705
f 191//706 128//706 189//706
f 252//707 128//707 253//707
f 251//708 128//708 252//708
f 249//709 128//709 251//709
f 248//710 128//710 249//710
f 250//711 128//711 248//711
f 246//712 128//712 250//712
f 245//713 128//713 246//713
f 247//714 128//714 245//714
f 335//715 98//715 336//715
f 337//716 98//716 335//716
f 338//717 98//717 337//717
f 339//718 98//718 338//718
f 340//719 98//719 339//719
f 336//720 98//720 247//720
f 247//721 98//721 128//721
f 101//722 98//722 345//722
f 345//723 98//723 344//723
f 344//724 98//724 343//724
f 343//725 98//725 342//725
f 342//726 98//726 341//726
f 341//727 98//727 340//727
f 128//728 125//728 253//728
f 382//729 348//729 291//729
f 291//730 348//730 279//730
f 298//731 291//731 297//731
f 297//732 291//732 296//732
f 296//733 291//733 295//733
f 295//734 291//734 294//734
f 294//735 291//735 293//735
f 293//736 291//736 292//736
f 292//737 291//737 290//737
f 99//738 100//738 130//738
f 130//739 100//739 129//739
f 129//740 392//740 298//740
f 100//741 392//741 129//741
f 298//742 391//742 291//742
f 392//743 391//743 298//743
f 389//744 382//744 390//744
f 390//745 382//745 391//745
f 391//746 382//746 291//746
f 389//747 388//747 382//747
f 382//748 384//748 383//748
f 382//749 385//749 384//749
f 388//750 387//750 382//750
f 382//751 386//751 385//751
f 387//752 386//752 382//752
f 35//753 34//753 36//753
f 36//754 34//754 38//754
f 38//755 34//755 39//755
f 39//756 34//756 40//756
f 40//757 34//757 41//757
f 34//758 43//758 41//758
f 34//759 45//759 43//759
f 34//760 47//760 45//760
f 34//761 2//761 47//761
f 1//762 4//762 2//762
f 4//763 6//763 2//763
f 6//764 7//764 2//764
f 7//765 8//765 2//765
f 8//766 10//766 2//766
f 10//767 12//767 2//767
f 47//768 15//768 49//768
f 2//769 15//769 47//769
f 12//770 15//770 2//770
f 49//771 17//771 52//771
f 15//772 17//772 49//772
f 52//773 99//773 130//773
f 17//774 99//774 52//774
