# https://github.com/mikedh/trimesh
v -7.50000000 10.00000000 0.00000000
v -7.50000000 10.00000000 0.50000000
v -6.68652153 10.95832539 0.50000000
v -6.76491213 11.14757729 0.50000000
v -6.73503685 11.04909134 0.50000000
v -6.62123108 10.87876892 0.50000000
v -6.77500010 11.25000000 0.50000000
v -6.76491213 11.35242271 0.50000000
v -6.73503685 11.45090866 0.50000000
v -6.68652153 11.54167461 0.50000000
v -7.50000000 12.50000000 0.00000000
v -7.50000000 12.50000000 0.50000000
v -6.62123108 11.62123108 0.50000000
v -6.52716398 11.13519478 0.00000000
v -6.46213198 11.03786755 0.00000000
v -6.49944067 11.08332920 0.00000000
v -6.36480522 10.97283649 0.00000000
v -6.41667128 11.00055885 0.00000000
v -6.54423571 11.19147301 0.00000000
v -6.55000019 11.25000000 0.00000000
v -6.54423571 11.30852699 0.00000000
v -6.52716398 11.36480522 0.00000000
v -6.49944067 11.41667080 0.00000000
v -6.46213198 11.46213245 0.00000000
v -6.41667128 11.49944115 0.00000000
v -6.36480522 11.52716351 0.00000000
v -6.30852699 10.95576477 0.00000000
v -6.25000000 10.94999981 0.00000000
v -6.19147301 10.95576477 0.00000000
v -6.13519478 10.97283649 0.00000000
v -6.30852699 11.54423523 0.00000000
v -6.25000000 11.55000019 0.00000000
v -6.19147301 11.54423523 0.00000000
v -6.13519478 11.52716351 0.00000000
v -6.52716398 11.13519478 0.27500001
v -6.46213198 11.03786755 0.27500001
v -6.49944067 11.08332920 0.27499998
v -6.36480522 10.97283649 0.27500001
v -6.41667128 11.00055885 0.27500001
v -6.54423571 11.19147301 0.27500001
v -6.55000019 11.25000000 0.27500001
v -6.54423571 11.30852699 0.27500001
v -6.52716398 11.36480522 0.27500001
v -6.49944067 11.41667080 0.27499998
v -6.46213198 11.46213245 0.27500001
v -6.41667128 11.49944115 0.27500001
v -6.36480522 11.52716351 0.27500001
v -6.30852699 10.95576477 0.27500001
v -6.25000000 10.94999981 0.27500001
v -6.19147301 10.95576477 0.27500001
v -6.13519478 10.97283649 0.27500001
v -6.30852699 11.54423523 0.27500001
v -6.25000000 11.55000019 0.27500001
v -6.19147301 11.54423523 0.27500001
v -6.13519478 11.52716351 0.27500001
v -6.08332872 11.00055885 0.00000000
v -6.03786802 11.03786755 0.00000000
v -6.00055933 11.08332920 0.00000000
v -5.97283602 11.13519478 0.00000000
v -6.03786802 11.46213245 0.00000000
v -6.08332872 11.49944115 0.00000000
v -6.00055933 11.41667080 0.00000000
v -5.95576429 11.19147301 0.00000000
v -5.94999981 11.25000000 0.00000000
v -5.95576429 11.30852699 0.00000000
v -5.97283602 11.36480522 0.00000000
v -6.08332872 11.00055885 0.27500001
v -6.03786802 11.03786755 0.27500001
v -6.00055933 11.08332920 0.27499998
v -5.97283602 11.13519478 0.27500001
v -6.03786802 11.46213150 0.27500001
v -6.08332872 11.49944115 0.27500001
v -6.00055933 11.41667080 0.27499998
v -5.95576429 11.19147301 0.27500001
v -5.94999981 11.25000000 0.27500001
v -5.95576429 11.30852699 0.27500001
v -5.97283602 11.36480522 0.27500001
v -6.45090866 10.76496315 0.50000000
v -6.35242224 10.73508739 0.50000000
v -6.25000000 10.72500038 0.50000000
v -6.14757776 10.73508739 0.50000000
v -6.54167461 10.81347847 0.50000000
v -6.04909134 10.76496315 0.50000000
v -5.95832539 10.81347847 0.50000000
v -5.87876892 10.87876892 0.50000000
v -5.81347847 10.95832539 0.50000000
v -5.76496315 11.04909134 0.50000000
v -5.73508787 11.14757729 0.50000000
v -5.81347847 11.54167461 0.50000000
v -5.76496315 11.45090866 0.50000000
v -5.72499990 11.25000000 0.50000000
v -5.73508787 11.35242271 0.50000000
v -6.54167461 11.68652153 0.50000000
v -6.45090866 11.73503685 0.50000000
v -6.35242224 11.76491261 0.50000000
v -6.25000000 11.77499962 0.50000000
v -6.14757776 11.76491261 0.50000000
v -6.04909134 11.73503685 0.50000000
v -5.95832539 11.68652153 0.50000000
v -5.87876892 11.62123108 0.50000000
v -5.00000000 10.00000000 0.00000000
v -5.00000000 10.00000000 0.50000000
v -5.00000000 12.50000000 0.00000000
v -5.00000000 12.50000000 0.50000000
v -4.15959692 10.94139099 0.50000000
v -3.95744228 12.99718475 0.50000000
v -3.95806813 11.14297771 1.30666804
v -4.15959692 15.41639233 0.50000000
v -4.16798115 20.41202354 0.50000000
v -3.78722715 22.32470131 0.81846499
v -4.16798115 20.41202354 2.57077646
v -4.16798115 21.45692062 2.54802012
v -4.16798115 21.43252182 2.57077646
v -4.16798115 21.62243271 2.52077079
v -3.79179430 21.57606697 2.52840447
v -3.80856681 21.62243271 2.52077079
v -3.88767505 21.82571411 2.51949835
v -3.94610405 22.08571434 2.51787090
v -3.96550560 22.35193253 2.51620460
v -3.49464107 21.96737480 0.66564000
v -3.30539346 21.82557297 0.60499299
v -3.09381294 21.71346664 0.55704701
v -2.86537385 21.63396072 0.52304202
v -2.62599850 21.58911324 0.50386101
v -2.38188148 21.58008385 0.50000000
v -2.13934946 21.60710907 0.51155800
v -1.90468121 21.66948891 0.53823698
v -3.65664959 22.13519859 0.73741698
v -1.68395519 21.76560593 0.57934600
v -1.48288894 21.89297295 0.63381898
v -0.72298187 20.41202354 0.50000000
v -1.30668783 22.04828835 0.70024699
v -1.15991831 22.22753143 0.77690703
v -1.04638004 22.42606163 0.86181599
v -3.09626317 20.82894707 2.57077646
v -2.86697578 20.73415947 2.57077646
v -3.72775674 21.45692062 2.54802012
v -3.71945024 21.43252182 2.57077646
v -3.66099834 21.33167458 2.57077646
v -3.49849272 21.13163376 2.57077646
v -3.30860376 20.96259689 2.57077646
v -2.62669516 20.68069077 2.57077646
v -2.38164854 20.66992569 2.57077646
v -2.13819480 20.70214844 2.57077646
v -1.90264583 20.77651787 2.57077646
v -1.68111193 20.89110756 2.57077646
v -1.47934127 21.04294205 2.57077646
v -1.30256820 21.22808266 2.57077646
v -1.15541875 21.44807053 2.55627489
v -1.15292192 21.45692062 2.54802012
v -1.16171777 21.43252182 2.57077646
v -1.07912099 21.62243271 2.52077079
v -1.04174149 21.70039177 2.52028275
v -0.96432602 21.95443153 2.51869273
v -0.72298187 20.41202354 2.57077646
v -0.72298187 21.45692062 2.54802012
v -0.72298187 21.43252373 2.57077646
v -0.72298187 21.62243271 2.52077079
v -0.92525816 22.21870232 2.51703858
v -4.15959692 10.94139099 5.50000000
v -3.95934772 11.14164925 5.50000000
v -3.95778346 12.99518013 5.50000000
v -3.95744228 14.10264301 5.50000000
v -4.15959692 15.41639233 5.50000000
v -3.95959258 15.21196270 5.50000000
v -4.16798115 24.56521034 0.50000000
v -3.88299036 22.53096962 0.90668499
v -3.94145775 22.74866486 0.99979103
v -3.96100569 22.97202301 1.09537303
v -3.94099116 23.19543839 1.19095504
v -3.88201094 23.41314697 1.28406096
v -3.78582835 23.61926651 1.37228096
v -4.16798115 22.93983269 2.51252484
v -4.16798115 23.06652260 2.57077646
v -3.96100569 22.78192711 2.51351333
v -3.96265817 22.93983269 2.51252484
v -3.96299839 22.97043228 2.52659488
v -3.95442915 23.06652069 2.57077646
v -3.94297624 23.19405556 2.57077646
v -3.88390541 23.41218185 2.57077646
v -3.78757000 23.61868286 2.57077646
v -4.16798115 24.56521034 2.57077646
v -7.50000000 32.50000000 0.00000000
v -7.50000000 32.50000000 0.50000000
v -6.62123108 33.37876892 0.50000000
v -7.50000000 35.00000000 0.00000000
v -7.50000000 35.00000000 0.50000000
v -6.68652153 33.45832443 0.50000000
v -6.73503685 33.54909134 0.50000000
v -6.76491213 33.64757919 0.50000000
v -6.77500010 33.75000000 0.50000000
v -6.76491213 33.85242081 0.50000000
v -6.73503685 33.95090866 0.50000000
v -6.68652153 34.04167557 0.50000000
v -6.62123108 34.12123108 0.50000000
v -6.54167461 33.31347656 0.50000000
v -6.45090866 33.26496506 0.50000000
v -6.35242224 33.23508835 0.50000000
v -6.25000000 33.22499847 0.50000000
v -6.14757776 33.23508835 0.50000000
v -6.04909134 33.26496506 0.50000000
v -5.95832539 33.31347656 0.50000000
v -5.87876892 33.37876892 0.50000000
v -6.49944067 33.58332825 0.00000000
v -6.46213198 33.53786850 0.00000000
v -6.54423571 33.69147110 0.00000000
v -6.52716398 33.63519669 0.00000000
v -6.55000019 33.75000000 0.00000000
v -6.54423571 33.80852890 0.00000000
v -6.41667128 33.50056076 0.00000000
v -6.36480522 33.47283554 0.00000000
v -6.52716398 33.86480331 0.00000000
v -6.49944067 33.91667175 0.00000000
v -6.46213198 33.96213150 0.00000000
v -6.41667128 33.99943924 0.00000000
v -6.36480522 34.02716446 0.00000000
v -6.30852699 33.45576477 0.00000000
v -6.25000000 33.45000076 0.00000000
v -6.19147301 33.45576477 0.00000000
v -6.13519478 33.47283554 0.00000000
v -6.30852699 34.04423523 0.00000000
v -6.25000000 34.04999924 0.00000000
v -6.19147301 34.04423523 0.00000000
v -6.13519478 34.02716446 0.00000000
v -6.49944067 33.58332825 0.27499998
v -6.46213198 33.53786850 0.27500001
v -6.54423571 33.69147110 0.27500001
v -6.52716398 33.63519669 0.27500001
v -6.55000019 33.75000000 0.27500001
v -6.54423571 33.80852890 0.27500001
v -6.41667128 33.50056076 0.27500001
v -6.36480522 33.47283554 0.27500001
v -6.52716398 33.86480331 0.27500001
v -6.49944067 33.91667175 0.27499998
v -6.46213198 33.96213150 0.27500001
v -6.41667128 33.99943924 0.27500001
v -6.36480522 34.02716446 0.27500001
v -6.30852699 33.45576477 0.27500001
v -6.25000000 33.45000076 0.27500001
v -6.19147301 33.45576477 0.27500001
v -6.13519478 33.47283554 0.27500001
v -6.30852699 34.04423523 0.27500001
v -6.25000000 34.04999924 0.27500001
v -6.19147301 34.04423523 0.27500001
v -6.13519478 34.02716446 0.27500001
v -6.08332872 33.50056076 0.00000000
v -6.03786802 33.53786850 0.00000000
v -6.00055933 33.58332825 0.00000000
v -5.97283602 33.63519669 0.00000000
v -5.95576429 33.69147110 0.00000000
v -5.94999981 33.75000000 0.00000000
v -5.95576429 33.80852890 0.00000000
v -6.08332872 33.99943924 0.00000000
v -6.03786802 33.96213150 0.00000000
v -6.00055933 33.91667175 0.00000000
v -5.97283602 33.86480331 0.00000000
v -6.08332872 33.50056076 0.27500001
v -6.03786802 33.53786850 0.27500001
v -6.00055933 33.58332825 0.27499998
v -5.97283602 33.63519669 0.27500001
v -5.95576429 33.69147110 0.27500001
v -5.94999981 33.75000000 0.27500001
v -5.95576429 33.80852890 0.27500001
v -6.08332872 33.99943924 0.27500001
v -6.03786802 33.96213150 0.27500001
v -6.00055933 33.91667175 0.27499998
v -5.97283602 33.86480331 0.27500001
v -6.54167461 34.18652344 0.50000000
v -6.45090866 34.23503494 0.50000000
v -6.35242224 34.26491165 0.50000000
v -6.25000000 34.27500153 0.50000000
v -6.14757776 34.26491165 0.50000000
v -5.95832539 34.18652344 0.50000000
v -5.87876892 34.12123108 0.50000000
v -5.81347847 33.45832443 0.50000000
v -5.76496315 33.54909134 0.50000000
v -5.73508787 33.64757919 0.50000000
v -5.72499990 33.75000000 0.50000000
v -5.76496315 33.95090866 0.50000000
v -5.81347847 34.04167557 0.50000000
v -5.73508787 33.85242081 0.50000000
v -6.04909134 34.23503494 0.50000000
v -4.16740894 30.54260826 0.50000000
v -3.76687479 31.38561630 1.01127100
v -3.86262798 31.32545662 1.17518902
v -3.92795253 31.26075745 1.35147202
v -5.00000000 32.50000000 0.00000000
v -5.00000000 32.50000000 0.50000000
v -5.00000000 35.00000000 0.00000000
v -5.00000000 35.00000000 0.50000000
v -4.16740894 34.06496811 0.50000000
v -3.96106648 31.19328690 1.53531301
v -3.92369962 31.05451012 1.90553606
v -3.96069479 31.12486649 1.72169602
v -3.85560417 30.98871613 2.08182001
v -3.75863171 30.92847824 2.24573898
v -4.16740894 30.54260826 2.48385811
v -3.92478156 31.05573082 2.48385811
v -3.85648632 30.98947716 2.48385811
v -3.75916862 30.92887115 2.48385811
v -3.96171618 31.12659645 2.48385811
v -3.96222425 31.18287277 2.48385811
v -3.76992583 33.67083359 1.82729602
v -3.86659646 33.60937119 1.99121404
v -4.16740894 32.47387695 2.22149277
v -4.16740894 32.63938904 2.19424367
v -3.96491528 32.47387695 2.22149277
v -3.96526837 32.63938904 2.19424367
v -3.96616912 33.02603149 2.19182348
v -4.16740894 32.19257736 2.48385811
v -3.96458459 32.19257736 2.48385811
v -4.16740894 33.95678711 2.18599796
v -3.93702102 33.53430939 2.18864226
v -3.93307161 33.54249191 2.16749692
v -3.93303227 33.54253769 2.18859076
v -3.86616421 33.60974503 2.18816996
v -3.76911306 33.67142868 2.18778396
v -4.16740894 34.06496811 2.23573923
v -3.16788602 26.11625481 0.50000000
v -2.88304734 27.63642311 0.67066598
v -2.17190790 27.16997910 0.50000000
v -2.02058053 27.16997910 0.50000000
v -2.71011329 27.40507126 0.58601701
v -2.59418988 27.31395531 0.55267900
v -2.80738544 27.51366043 0.62574899
v -2.46313715 27.24307823 0.52674598
v -2.32093525 27.19459534 0.50900698
v -2.93480539 27.76962662 0.71940398
v -2.96108222 27.90922546 0.77048099
v -2.96089363 28.05070877 0.82234699
v -2.93412757 28.19035912 0.87342501
v -2.88195252 28.32345009 0.92216301
v -2.80599976 28.44595337 0.96708000
v -2.70861244 28.55418968 1.00681102
v -2.59276128 28.64492226 1.04015005
v -2.46196294 28.71544266 1.06608200
v -0.72298187 24.56521034 0.50000000
v -0.96901315 22.63873291 0.95277399
v -0.96974248 23.30539322 1.23796904
v -1.04758227 23.51799393 1.32892704
v -0.92982262 22.86004066 1.04742503
v -0.93001825 23.08398438 1.14331806
v -1.02459931 26.11625481 0.50000000
v -1.87155199 27.19459343 0.50900602
v -1.72935116 27.24307823 0.52674502
v -1.59829748 27.31395340 0.55267799
v -1.48237360 27.40506935 0.58601701
v -1.38510203 27.51365852 0.62574798
v -1.30943871 27.63641930 0.67066503
v -1.48387265 28.55418968 1.00681102
v -1.25768113 27.76962471 0.71940303
v -1.23140252 27.90922165 0.77048099
v -1.23159158 28.05070496 0.82234597
v -1.31053269 28.32344818 0.92216200
v -1.25835776 28.19035721 0.87342399
v -1.38648558 28.44595146 0.96707898
v -1.73052120 28.71544075 1.06608200
v -1.59972215 28.64492226 1.04014897
v -3.65497684 23.80848312 1.45332897
v -3.49287176 23.97593689 1.52510500
v -3.30372167 24.11734200 1.58575201
v -3.09241796 24.22907639 1.63369906
v -2.86440802 24.30829048 1.66770303
v -2.62556267 24.35296249 1.68688297
v -2.38202357 24.36195564 1.69074500
v -2.14005208 24.33503723 1.67918599
v -1.90586996 24.27289391 1.65250695
v -3.65651488 23.80823135 2.57077646
v -3.49416971 23.97596169 2.57077646
v -3.30475688 24.11758232 2.57077646
v -3.09317946 24.22947502 2.57077646
v -2.86489224 24.30879402 2.57077646
v -2.62576985 24.35352325 2.57077646
v -2.38195467 24.36252785 2.57077646
v -2.13970661 24.33557510 2.57077646
v -1.90524709 24.27335167 2.57077646
v -3.16788602 26.11625481 2.35662293
v -3.16788602 26.33601952 2.35662293
v -3.16788602 26.52741623 2.17810607
v -3.16788602 26.69293022 2.15085673
v -2.88702273 27.07787132 2.14844728
v -2.93895292 27.23065567 2.14749098
v -2.96524668 27.39073944 2.14648890
v -2.96104646 27.74798393 2.14425278
v -2.96089363 27.86858749 2.14349794
v -3.16788602 28.01032829 2.14261079
v -2.96233749 28.01032829 2.14261079
v -2.96276140 28.04942894 2.16058946
v -2.93607163 28.18941879 2.22495627
v -3.16788602 28.41774750 2.32994151
v -3.16788602 28.44261551 2.35662293
v -2.88389754 28.32287407 2.28631878
v -2.82510877 28.41774750 2.32994151
v -2.59679723 26.70791245 2.15076303
v -2.81103659 26.93704033 2.14932871
v -2.71330190 26.81245613 2.15010858
v -2.57252574 26.69293022 2.15085673
v -2.46508145 26.62233734 2.16247892
v -2.32213640 26.56313705 2.17222524
v -2.17231417 26.53307915 2.17717361
v -2.02017426 26.53307915 2.17717361
v -2.80980992 28.44261360 2.35662293
v -2.80787778 28.44574738 2.35662293
v -2.71025133 28.55434227 2.35662293
v -2.59410000 28.64537430 2.35662293
v -2.46295333 28.71612740 2.35662293
v -1.48462701 24.05013657 1.55692506
v -1.30842876 23.89521027 1.49049699
v -1.16147292 23.71630096 1.41383600
v -1.68550313 24.17711258 1.61139798
v -1.48345828 24.05027771 2.57077646
v -1.30700696 23.89510345 2.57077646
v -0.96779436 23.30422211 2.57077646
v -1.04575706 23.51722336 2.57077646
v -1.15982747 23.71589088 2.57077646
v -1.68460393 24.17743874 2.57077646
v -0.92986244 22.66342163 2.51425505
v -0.93001825 22.85480309 2.51305699
v -0.92930043 22.93983269 2.51252484
v -0.92814749 23.06652260 2.57077646
v -0.92801344 23.08238411 2.57077646
v -0.72298187 22.93983269 2.51252484
v -0.72298187 23.06652260 2.57077646
v -0.72298187 24.56521034 2.57077646
v -1.87035084 26.56313705 2.17222524
v -1.72740674 26.62233543 2.16247892
v -1.61996377 26.69292831 2.15085673
v -1.59569013 26.70791245 2.15076303
v -1.47918510 26.81245613 2.15010858
v -1.02459931 26.11625481 2.35662293
v -1.02459931 26.33601952 2.35662293
v -1.38145077 26.93703842 2.14932871
v -1.30546331 27.07786942 2.14844728
v -1.02459931 26.52741623 2.17810607
v -1.02459931 26.69292831 2.15085673
v -1.72953093 28.71612549 2.35662293
v -1.59838343 28.64537430 2.35662293
v -1.48223364 28.55434227 2.35662293
v -1.25353336 27.23065376 2.14749098
v -1.22723854 27.39073563 2.14648890
v -1.23143828 27.74798012 2.14425302
v -1.23159158 27.86858368 2.14349794
v -1.23014772 28.01032829 2.14261079
v -1.22972381 28.04942703 2.16058803
v -1.25641382 28.18941689 2.22495532
v -1.02459931 28.01032829 2.14261079
v -1.30858779 28.32287216 2.28631783
v -1.36726880 28.41774750 2.32994127
v -1.38460755 28.44574547 2.35662293
v -1.38266468 28.44261551 2.35662293
v -1.02459931 28.41774750 2.32994127
v -1.02459931 28.44261360 2.35662293
v -3.16788602 28.99177551 0.50000000
v -3.32686663 31.52333832 0.63601500
v -2.94760203 31.56760788 0.51539201
v -3.14262795 31.55081749 0.56114501
v -2.74710560 31.57325745 0.50000000
v -2.54660916 31.56760788 0.51539201
v -2.35158324 31.55081558 0.56114697
v -2.16734457 31.52333832 0.63601500
v -3.49528980 31.48592567 0.73795497
v -3.64330554 31.43959618 0.86418903
v -2.32016492 28.76365089 1.08382201
v -2.17163754 28.78811836 1.09282804
v -2.02084565 28.78811836 1.09282804
v -1.99892139 31.48592377 0.73795700
v -2.94799280 33.85483932 1.33141696
v -2.74710560 33.86052704 1.31602502
v -2.54621840 33.85483932 1.33141696
v -1.02459931 28.99177551 0.50000000
v -1.32680631 30.54260826 0.50000000
v -1.87231827 28.76365089 1.08382106
v -1.85090661 31.43959427 0.86419201
v -1.72733748 31.38561440 1.01127398
v -1.63158512 31.32545471 1.17519295
v -1.56626260 31.26075745 1.35147595
v -1.32680631 34.06496811 0.50000000
v -3.16788602 28.99177551 2.35662293
v -3.63504028 30.87482071 2.39282203
v -3.63523293 30.87495041 2.48385811
v -3.52888322 30.84172058 2.48385811
v -3.43051887 30.84187698 2.48385811
v -3.26289821 30.84298706 2.48385811
v -3.01500082 30.84285927 2.48385811
v -2.32077265 28.76449394 2.35662293
v -2.17184234 28.78903961 2.35662293
v -2.02064085 28.78903961 2.35662293
v -2.47766757 30.84187508 2.48385811
v -1.96533239 30.84172058 2.48385811
v -3.32810569 33.81023788 1.45203996
v -3.64563298 33.72562790 1.68021405
v -3.49702835 33.77248383 1.55397999
v -3.14342570 33.83792877 1.37716997
v -2.35078549 33.83792877 1.37717199
v -2.16610551 33.81023788 1.45203996
v -1.99718285 33.77248001 1.55398202
v -3.64456010 33.72634888 2.18744016
v -3.49586654 33.77326202 2.18714666
v -3.32701921 33.81103516 2.18691015
v -3.14261055 33.83871841 2.18673682
v -2.94755292 33.85561752 2.18663120
v -2.74710560 33.86129761 2.18659568
v -2.54665828 33.85561752 2.18663120
v -2.35160065 33.83871841 2.18673682
v -2.16717505 33.81103134 2.18691015
v -1.99834454 33.77325821 2.18714666
v -1.53314912 31.19328499 1.53531694
v -1.57051539 31.05451012 1.90553999
v -1.53352058 31.12486458 1.72169995
v -1.87171054 28.76449394 2.35662293
v -1.02459931 28.99177551 2.35662293
v -1.63861132 30.98871422 2.08182406
v -1.73558474 30.92847633 2.24574208
v -1.85917723 30.87481880 2.39282393
v -1.85665214 30.87597847 2.48385811
v -1.85898471 30.87494850 2.48385811
v -1.85482180 30.87677383 2.48385811
v -1.73504782 30.92886925 2.48385811
v -1.63772917 30.98947525 2.48385811
v -1.56943357 31.05573082 2.48385811
v -1.53757405 31.11609268 2.48385811
v -1.53249919 31.12659454 2.48385811
v -1.53242528 31.13478470 2.48385811
v -1.53199136 31.18287086 2.48385811
v -1.53196239 31.19521904 2.48385811
v -1.53109217 31.56747055 2.48385811
v -1.32680631 30.54260826 2.48385811
v -1.84857917 33.72562790 1.68021703
v -1.72428632 33.67083359 1.82729900
v -1.62761664 33.60937119 1.99121797
v -1.52930009 32.47387695 2.22149277
v -1.52894711 32.63938904 2.19424367
v -1.52804625 33.02602005 2.19182372
v -1.32680631 32.47387695 2.22149277
v -1.32680631 32.63938904 2.19424367
v -1.53029513 31.90839767 2.48385811
v -1.52977645 32.13024902 2.48385811
v -1.52963078 32.19257736 2.48385811
v -1.32680631 32.19257736 2.48385811
v -1.84965193 33.72634888 2.18744016
v -1.72509909 33.67142868 2.18778396
v -1.62804878 33.60974503 2.18816996
v -1.55719471 33.53430557 2.18864226
v -1.56114340 33.54248810 2.16750097
v -1.56131959 33.54267120 2.18858981
v -1.32680631 33.95678711 2.18599796
v -1.32680631 34.06496811 2.23573875
v 2.27357960 10.94139099 0.50000000
v 2.07142520 12.99718475 0.50000000
v 2.07205081 11.14297771 1.30666804
v 2.27357960 15.41639233 0.50000000
v 1.52561390 20.41149902 0.50000000
v 1.82307816 21.28329659 0.63892001
v 1.73251927 21.63857269 0.60729301
v 1.76302302 21.45718956 0.62343800
v 1.73246586 21.82240486 0.59092402
v 1.76285923 22.00381279 0.57477897
v 1.82282102 22.17776299 0.55929703
v 2.16034675 20.85214615 0.67731899
v 2.31489849 20.75165558 0.68627203
v 1.91103446 21.12163353 0.65331602
v 2.02449107 20.97660065 0.66623300
v 2.29207444 20.95601082 0.66910499
v 1.91071343 22.33951378 0.54490101
v 2.06986928 22.28218269 0.54913098
v 2.02413750 22.48464966 0.53198397
v 3.37863612 20.75165749 0.68627101
v 3.53318810 20.85214806 0.67731899
v 3.66904378 20.97660255 0.66623199
v 3.66939116 22.48465157 0.53198397
v 2.48393345 20.67786026 0.69284701
v 2.66284776 20.63276482 0.69686502
v 2.84676743 20.61759567 0.69821697
v 3.03068805 20.63276672 0.69686502
v 3.20960140 20.67786217 0.69284701
v 1.52561390 20.41149902 2.16776061
v 1.82108521 21.28285217 2.16776061
v 1.73036849 21.63883209 2.16776061
v 1.73250806 21.68480682 2.16776061
v 1.76092172 21.45709229 2.16776061
v 1.73246586 21.82993698 2.16776061
v 1.72794569 21.96649742 2.16776061
v 1.75842452 22.15013313 2.16776061
v 1.81859815 22.32623100 2.16776061
v 2.15899897 20.85083389 2.16776061
v 2.31385231 20.75013924 2.16776061
v 2.48321891 20.67619514 2.16776061
v 2.66248536 20.63100815 2.16776061
v 1.90920651 21.12086487 2.16776061
v 2.02288032 20.97554016 2.16776061
v 1.90682518 22.48999023 2.16776061
v 2.84676743 20.61580849 2.16776061
v 3.03105068 20.63100815 2.16776061
v 3.21031594 20.67619705 2.16776061
v 3.37968230 20.75014114 2.16776061
v 3.53453588 20.85083580 2.16776061
v 3.67065454 20.97554207 2.16776061
v 5.00000000 10.00000000 0.00000000
v 5.00000000 10.00000000 0.50000000
v 5.00000000 12.50000000 0.00000000
v 5.00000000 12.50000000 0.50000000
v 5.97283602 11.13519478 0.00000000
v 6.00055933 11.08332920 0.00000000
v 6.03786802 11.03786755 0.00000000
v 6.08332872 11.00055885 0.00000000
v 5.95576429 11.19147301 0.00000000
v 5.94999981 11.25000000 0.00000000
v 5.95576429 11.30852699 0.00000000
v 5.97283602 11.36480522 0.00000000
v 6.00055933 11.41667080 0.00000000
v 6.03786802 11.46213245 0.00000000
v 6.08332872 11.49944115 0.00000000
v 5.97283602 11.13519478 0.27500001
v 6.00055933 11.08332920 0.27499998
v 6.03786802 11.03786755 0.27500001
v 6.08332872 11.00055885 0.27500001
v 5.95576429 11.19147301 0.27500001
v 5.94999981 11.25000000 0.27500001
v 5.95576429 11.30852699 0.27500001
v 5.97283602 11.36480522 0.27500001
v 6.00055933 11.41667080 0.27499998
v 6.03786802 11.46213245 0.27500001
v 6.08332872 11.49944115 0.27500001
v 6.13519478 10.97283649 0.00000000
v 6.19147301 10.95576477 0.00000000
v 6.25000000 10.94999981 0.00000000
v 6.30852699 10.95576477 0.00000000
v 6.13519478 11.52716351 0.00000000
v 6.19147301 11.54423523 0.00000000
v 6.25000000 11.55000019 0.00000000
v 6.30852699 11.54423523 0.00000000
v 6.36480522 10.97283649 0.00000000
v 6.41667128 11.00055885 0.00000000
v 6.46213198 11.03786755 0.00000000
v 6.49944067 11.08332920 0.00000000
v 6.52716398 11.13519478 0.00000000
v 6.36480522 11.52716351 0.00000000
v 6.41667128 11.49944115 0.00000000
v 6.54423571 11.19147301 0.00000000
v 6.55000019 11.25000000 0.00000000
v 6.52716398 11.36480522 0.00000000
v 6.54423571 11.30852699 0.00000000
v 6.46213198 11.46213245 0.00000000
v 6.49944067 11.41667080 0.00000000
v 6.13519478 10.97283649 0.27500001
v 6.19147301 10.95576477 0.27500001
v 6.25000000 10.94999981 0.27500001
v 6.30852699 10.95576477 0.27500001
v 6.13519478 11.52716351 0.27500001
v 6.19147301 11.54423523 0.27500001
v 6.25000000 11.55000019 0.27500001
v 6.30852699 11.54423523 0.27500001
v 6.36480522 10.97283649 0.27500001
v 6.41667128 11.00055885 0.27500001
v 6.46213198 11.03786755 0.27500001
v 6.49944067 11.08332920 0.27499998
v 6.52716398 11.13519478 0.27500001
v 6.36480522 11.52716351 0.27500001
v 6.41667128 11.49944115 0.27500001
v 6.54423571 11.19147301 0.27500001
v 6.55000019 11.25000000 0.27500001
v 6.52716398 11.36480522 0.27500001
v 6.54423571 11.30852699 0.27500001
v 6.46213198 11.46213150 0.27500001
v 6.49944067 11.41667080 0.27499998
v 6.04909134 10.76496315 0.50000000
v 5.73508787 11.14757729 0.50000000
v 5.81347847 10.95832539 0.50000000
v 5.76496315 11.04909134 0.50000000
v 5.72499990 11.25000000 0.50000000
v 5.73508787 11.35242271 0.50000000
v 5.76496315 11.45090866 0.50000000
v 5.81347847 11.54167461 0.50000000
v 5.87876892 10.87876892 0.50000000
v 5.95832539 10.81347847 0.50000000
v 6.14757776 10.73508739 0.50000000
v 6.25000000 10.72500038 0.50000000
v 6.35242224 10.73508739 0.50000000
v 6.45090866 10.76496315 0.50000000
v 6.54167461 10.81347847 0.50000000
v 5.87876892 11.62123108 0.50000000
v 5.95832539 11.68652153 0.50000000
v 6.04909134 11.73503685 0.50000000
v 6.14757776 11.76491261 0.50000000
v 6.25000000 11.77499962 0.50000000
v 6.35242224 11.76491261 0.50000000
v 6.45090866 11.73503685 0.50000000
v 6.54167461 11.68652153 0.50000000
v 7.50000000 10.00000000 0.00000000
v 6.62123108 10.87876892 0.50000000
v 6.68652153 10.95832539 0.50000000
v 6.73503685 11.04909134 0.50000000
v 6.76491213 11.14757729 0.50000000
v 6.77500010 11.25000000 0.50000000
v 6.76491213 11.35242271 0.50000000
v 6.73503685 11.45090866 0.50000000
v 6.68652153 11.54167461 0.50000000
v 7.50000000 10.00000000 0.50000000
v 7.50000000 12.50000000 0.00000000
v 6.62123108 11.62123108 0.50000000
v 7.50000000 12.50000000 0.50000000
v 4.16791773 20.41149902 0.50000000
v 3.78249836 21.12163544 0.65331501
v 3.87045574 21.28330040 0.63891900
v 3.93051004 21.45719147 0.62343800
v 3.96101236 21.63857651 0.60729200
v 3.96106625 21.82240868 0.59092402
v 3.93067026 22.00381470 0.57477802
v 3.78281736 22.33951569 0.54490101
v 3.87070894 22.17776680 0.55929703
v 4.16791773 20.41149902 2.16776061
v 3.78432631 21.12086868 2.16776061
v 3.87244844 21.28285599 2.16776061
v 3.93261123 21.45709419 2.16776061
v 3.96316338 21.63883591 2.16776061
v 3.96101236 21.72376251 2.16776061
v 3.96105480 21.86912727 2.16776061
v 3.96558619 21.96650124 2.16776061
v 3.78670549 22.48999214 2.16776061
v 3.93510509 22.15013504 2.16776061
v 3.87493181 22.32623482 2.16776061
v 2.07333040 11.14164925 5.50000000
v 2.27357960 10.94139099 5.50000000
v 2.07205081 11.98887157 5.50000000
v 2.07173729 12.99934959 5.50000000
v 2.07357526 15.21196270 5.50000000
v 2.27357960 15.41639233 5.50000000
v 1.52561390 23.26873589 0.50000000
v 2.31459856 22.70980453 0.51194501
v 2.16000104 22.60921097 0.52089798
v 2.48371100 22.78368378 0.50537002
v 2.66272807 22.82883263 0.50135201
v 2.84676433 22.84401894 0.50000000
v 3.03079963 22.82883263 0.50135201
v 3.20981669 22.78368378 0.50537002
v 3.37893033 22.70980644 0.51194501
v 3.53352761 22.60921478 0.52089798
v 1.52561390 23.26873589 2.16776061
v 2.02069902 22.63693428 2.16776061
v 2.15711546 22.76305389 2.16776061
v 2.31235337 22.86490822 2.16776061
v 2.48217487 22.93971634 2.16776061
v 2.66194797 22.98543549 2.16776061
v 2.84676433 23.00081444 2.16776061
v 3.03157997 22.98543549 2.16776061
v 3.21135283 22.93971634 2.16776061
v 3.38117552 22.86491013 2.16776061
v 3.53641295 22.76305771 2.16776061
v 3.67282963 22.63693619 2.16776061
v 1.22387302 30.54237175 0.50000000
v 1.82547784 31.23464584 0.51209301
v 1.83620679 31.21862793 0.51273102
v 1.85318041 31.22160721 0.51001400
v 1.55383158 31.46981239 0.55146098
v 1.63049281 31.37636948 0.53583598
v 1.49431419 31.57468987 0.56900901
v 1.45365882 31.68797302 0.58797598
v 1.43303573 31.80640602 0.60781401
v 1.72208655 31.29705048 0.52258700
v 1.22387302 32.77572250 0.50000000
v 1.43313205 31.92642212 0.62795198
v 1.45396829 32.04481888 0.64780903
v 1.49472570 32.15750122 0.66681302
v 1.49437428 32.17141724 0.67071700
v 1.50799668 32.18459320 0.67119902
v 1.57143784 32.28632355 0.68838698
v 1.65194917 32.37639236 0.70355302
v 1.74671781 32.45173645 0.71625799
v 1.85301208 32.51020432 0.72613698
v 1.96743941 31.18158531 0.50335199
v 2.08760715 31.16124725 0.50000000
v 2.20953059 31.16123962 0.50005603
v 2.32969737 31.18155670 0.50351799
v 2.44464254 31.22161674 0.51028597
v 2.55105448 31.28026199 0.52016503
v 2.64586401 31.35580444 0.53286999
v 2.72633934 31.44606590 0.54803503
v 2.78968310 31.54798508 0.56522298
v 2.80280519 31.55549240 0.56910598
v 2.80290985 31.57528496 0.56961000
v 3.07103348 30.54237175 0.50000000
v 2.84347844 31.68786240 0.58861399
v 2.86410546 31.80628967 0.60847098
v 2.74269009 32.26261520 0.68496197
v 2.80233192 32.15789032 0.66741300
v 2.86400819 31.92629623 0.62860900
v 2.84316945 32.04470062 0.64844698
v 3.07103348 32.77572250 0.50000000
v 1.96777940 32.55012894 0.73290497
v 2.08772826 32.57037354 0.73636597
v 2.20941949 32.57036591 0.73642200
v 2.32936811 32.55009842 0.73307103
v 2.44353771 32.51022339 0.72640800
v 2.57440758 32.43498993 0.71383601
v 2.47100496 32.49736023 0.72432899
v 2.66597724 32.35587311 0.70058602
v 1.22387302 30.72259331 2.22924805
v 1.22387302 30.88810539 2.20199871
v 1.22387302 30.54237175 2.33891344
v 1.22387302 30.60501671 2.33891344
v 1.63960493 31.07094574 2.20085430
v 1.66650331 31.04693031 2.20100451
v 1.74032605 30.98674774 2.20138144
v 1.77012205 30.96820450 2.20149732
v 1.85423279 30.92247009 2.20178366
v 1.85728478 30.91793823 2.20181203
v 1.86212122 30.91864777 2.20180750
v 1.49078381 31.28683472 2.19950318
v 1.50910616 31.25353432 2.19971156
v 1.44746172 31.41133690 2.19872403
v 1.44084537 31.45061874 2.19847822
v 1.55551553 31.17209816 2.20022130
v 1.57853711 31.14316368 2.20040226
v 1.42688286 31.54131317 2.19791031
v 1.42694163 31.58224297 2.19765401
v 1.43262446 31.81629372 2.19618917
v 1.22387302 32.20550537 2.19375324
v 1.22387302 32.52120972 2.33891344
v 1.22387302 32.77572250 2.33891344
v 1.43096197 31.92579651 2.19550371
v 1.45182872 32.04456329 2.19476056
v 1.49259734 32.15752029 2.19405365
v 1.49460125 32.16168976 2.19402742
v 1.49436092 32.17121124 2.19396782
v 1.50368369 32.18038940 2.19391036
v 1.50595856 32.18487549 2.19388223
v 1.51883698 32.20550537 2.19375324
v 1.56956208 32.28689194 2.23117495
v 1.65027392 32.37730408 2.27274632
v 1.74531972 32.45295715 2.30753064
v 1.85195887 32.51167297 2.33452821
v 1.95309865 30.88810539 2.20199871
v 1.98595476 30.87723160 2.20378876
v 1.89452922 30.90694809 2.20188069
v 2.01961493 30.87119293 2.20478320
v 2.11527252 30.85894012 2.20680046
v 2.14920282 30.85894012 2.20680046
v 2.24549747 30.86526108 2.20576000
v 2.27910304 30.87129021 2.20476747
v 2.34281850 30.88810730 2.20199871
v 2.37230182 30.89567375 2.20195127
v 2.40485954 30.90737343 2.20187807
v 2.49167013 30.94804764 2.20162344
v 2.52221560 30.96540451 2.20151496
v 2.59964228 31.02119064 2.20116568
v 2.62734890 31.04395294 2.20102310
v 2.69275641 31.11260223 2.20059347
v 2.71678829 31.14039612 2.20041943
v 2.76808405 31.21919823 2.19992638
v 2.78746581 31.25136185 2.19972515
v 2.79151797 31.25390053 2.19970942
v 2.79155159 31.26004791 2.19967079
v 3.07103348 30.72259331 2.22924805
v 3.07103348 30.88810730 2.20199871
v 3.07103348 30.54237175 2.33891344
v 3.07103348 30.60501480 2.33891344
v 2.82730079 31.34608459 2.19913244
v 2.84008741 31.38270760 2.19890308
v 2.85938668 31.47270012 2.19833970
v 2.86605883 31.51229095 2.19809198
v 2.86872578 31.60181236 2.19753170
v 2.86411285 31.74012184 2.19666600
v 2.86403608 31.83530045 2.19607043
v 1.87934816 32.52120972 2.33891344
v 1.96712983 32.55175781 2.33891344
v 2.08750796 32.57208252 2.33891344
v 2.20963597 32.57207489 2.33891344
v 2.33001328 32.55172729 2.33891344
v 2.74459815 32.26309586 2.22023368
v 2.80437040 32.15800858 2.19405055
v 2.77730918 32.20550537 2.19375324
v 2.57587481 32.43614197 2.29979873
v 2.41750479 32.52120972 2.33891344
v 2.44452929 32.51177597 2.33457685
v 2.47226810 32.49875641 2.32859039
v 2.66770411 32.35670471 2.26327515
v 2.86617470 31.92565727 2.19550490
v 2.84530544 32.04444504 2.19476128
v 3.07103348 32.20550537 2.19375324
v 3.07103348 32.52120590 2.33891344
v 3.07103348 32.77572250 2.33891344
v 4.16791773 23.26873589 0.50000000
v 4.16791773 23.26873589 2.16776061
v 5.00000000 32.50000000 0.00000000
v 5.00000000 32.50000000 0.50000000
v 5.00000000 35.00000000 0.00000000
v 5.00000000 35.00000000 0.50000000
v 5.87876892 33.37876892 0.50000000
v 5.95832539 33.31347656 0.50000000
v 6.04909134 33.26496506 0.50000000
v 6.14757776 33.23508835 0.50000000
v 6.25000000 33.22499847 0.50000000
v 6.35242224 33.23508835 0.50000000
v 6.45090866 33.26496506 0.50000000
v 6.54167461 33.31347656 0.50000000
v 5.97283602 33.63519669 0.00000000
v 5.95576429 33.69147110 0.00000000
v 5.94999981 33.75000000 0.00000000
v 5.95576429 33.80852890 0.00000000
v 6.00055933 33.58332825 0.00000000
v 6.08332872 33.50056076 0.00000000
v 6.03786802 33.53786850 0.00000000
v 5.97283602 33.86480331 0.00000000
v 6.00055933 33.91667175 0.00000000
v 6.03786802 33.96213150 0.00000000
v 6.08332872 33.99943924 0.00000000
v 5.97283602 33.63519669 0.27500001
v 5.95576429 33.69147110 0.27500001
v 5.94999981 33.75000000 0.27500001
v 5.95576429 33.80852890 0.27500001
v 6.00055933 33.58332825 0.27499998
v 6.08332872 33.50056076 0.27500001
v 6.03786802 33.53786850 0.27500001
v 5.97283602 33.86480331 0.27500001
v 6.00055933 33.91667175 0.27499998
v 6.03786802 33.96213150 0.27500001
v 6.08332872 33.99943924 0.27500001
v 6.13519478 33.47283554 0.00000000
v 6.19147301 33.45576477 0.00000000
v 6.25000000 33.45000076 0.00000000
v 6.30852699 33.45576477 0.00000000
v 6.13519478 34.02716446 0.00000000
v 6.19147301 34.04423523 0.00000000
v 6.25000000 34.04999924 0.00000000
v 6.30852699 34.04423523 0.00000000
v 6.36480522 33.47283554 0.00000000
v 6.41667128 33.50056076 0.00000000
v 6.46213198 33.53786850 0.00000000
v 6.49944067 33.58332825 0.00000000
v 6.52716398 33.63519669 0.00000000
v 6.54423571 33.69147110 0.00000000
v 6.55000019 33.75000000 0.00000000
v 6.54423571 33.80852890 0.00000000
v 6.41667128 33.99943924 0.00000000
v 6.36480522 34.02716446 0.00000000
v 6.49944067 33.91667175 0.00000000
v 6.46213198 33.96213150 0.00000000
v 6.52716398 33.86480331 0.00000000
v 6.13519478 33.47283554 0.27500001
v 6.19147301 33.45576477 0.27500001
v 6.25000000 33.45000076 0.27500001
v 6.30852699 33.45576477 0.27500001
v 6.13519478 34.02716446 0.27500001
v 6.19147301 34.04423523 0.27500001
v 6.25000000 34.04999924 0.27500001
v 6.30852699 34.04423523 0.27500001
v 6.36480522 33.47283554 0.27500001
v 6.41667128 33.50056076 0.27500001
v 6.46213198 33.53786850 0.27500001
v 6.49944067 33.58332825 0.27499998
v 6.52716398 33.63519669 0.27500001
v 6.54423571 33.69147110 0.27500001
v 6.55000019 33.75000000 0.27500001
v 6.54423571 33.80852890 0.27500001
v 6.41667128 33.99943924 0.27500001
v 6.36480522 34.02716446 0.27500001
v 6.49944067 33.91667175 0.27499998
v 6.46213198 33.96213150 0.27500001
v 6.52716398 33.86480331 0.27500001
v 5.73508787 33.64757919 0.50000000
v 5.72499990 33.75000000 0.50000000
v 5.76496315 33.54909134 0.50000000
v 5.81347847 33.45832443 0.50000000
v 5.73508787 33.85242081 0.50000000
v 5.76496315 33.95090866 0.50000000
v 5.81347847 34.04167557 0.50000000
v 5.87876892 34.12123108 0.50000000
v 5.95832539 34.18652344 0.50000000
v 6.04909134 34.23503494 0.50000000
v 6.54167461 34.18652344 0.50000000
v 6.14757776 34.26491165 0.50000000
v 6.25000000 34.27500153 0.50000000
v 6.35242224 34.26491165 0.50000000
v 6.45090866 34.23503494 0.50000000
v 7.50000000 32.50000000 0.00000000
v 6.62123108 33.37876892 0.50000000
v 7.50000000 32.50000000 0.50000000
v 7.50000000 35.00000000 0.00000000
v 6.68652153 33.45832443 0.50000000
v 6.73503685 33.54909134 0.50000000
v 6.76491213 33.64757919 0.50000000
v 6.77500010 33.75000000 0.50000000
v 6.62123108 34.12123108 0.50000000
v 6.73503685 33.95090866 0.50000000
v 6.76491213 33.85242081 0.50000000
v 6.68652153 34.04167557 0.50000000
v 7.50000000 35.00000000 0.50000000
f 404 335 405
f 386 380 387
f 396 395 380
f 382 380 381
f 395 381 380
f 380 382 383
f 394 396 380
f 380 379 397
f 485 406 463
f 405 336 406
f 380 383 384
f 403 334 404
f 406 336 463
f 335 336 405
f 334 335 404
f 333 334 403
f 377 319 430
f 425 322 401
f 401 321 400
f 478 391 402
f 397 394 380
f 378 377 431
f 478 404 405
f 478 403 404
f 478 402 403
f 402 393 403
f 402 391 393
f 393 390 392
f 400 327 399
f 391 390 393
f 478 390 391
f 390 386 392
f 386 389 392
f 386 388 389
f 386 387 388
f 387 380 385
f 380 384 385
f 374 373 365
f 386 390 319
f 378 319 377
f 380 386 319
f 379 380 319
f 319 378 379
f 424 182 375
f 375 366 376
f 375 374 366
f 382 329 383
f 372 364 373
f 374 375 182
f 373 374 182
f 372 373 182
f 182 371 372
f 182 370 371
f 182 369 370
f 371 363 372
f 388 331 389
f 398 324 397
f 327 398 399
f 394 397 324
f 394 323 396
f 323 395 396
f 393 333 403
f 392 333 393
f 389 332 392
f 398 397 379
f 478 319 390
f 387 330 388
f 385 330 387
f 332 333 392
f 384 330 385
f 383 329 384
f 395 320 381
f 320 382 381
f 427 345 426
f 439 349 433
f 358 350 438
f 356 449 350
f 358 437 357
f 472 357 436
f 433 348 432
f 432 347 429
f 429 346 428
f 346 427 428
f 440 351 439
f 426 344 425
f 424 414 413
f 413 423 424
f 423 420 422
f 413 421 423
f 421 420 423
f 421 419 420
f 419 422 420
f 446 470 451
f 449 356 448
f 448 354 447
f 447 355 445
f 445 355 444
f 438 350 449
f 437 358 438
f 436 357 437
f 472 436 510
f 419 418 422
f 444 353 443
f 442 443 353
f 356 354 448
f 435 470 446
f 470 434 430
f 435 434 470
f 353 441 442
f 441 352 440
f 339 342 413
f 342 341 417
f 410 407 411
f 410 416 367
f 409 340 414
f 415 408 409
f 407 408 412
f 340 339 414
f 410 409 408
f 423 131 424
f 338 159 341
f 410 408 407
f 367 409 410
f 401 379 434
f 379 378 434
f 400 379 401
f 399 379 400
f 398 379 399
f 412 415 424
f 421 342 419
f 424 411 412
f 416 411 424
f 424 376 416
f 424 375 376
f 416 410 411
f 376 367 416
f 424 415 414
f 370 362 371
f 415 409 414
f 414 339 413
f 412 408 415
f 413 342 421
f 411 407 412
f 342 418 419
f 342 417 418
f 341 159 417
f 315 313 314
f 171 169 361
f 169 110 361
f 361 121 123
f 110 121 361
f 343 166 337
f 319 166 343
f 312 497 498
f 312 317 497
f 312 316 317
f 361 123 134
f 317 316 304
f 315 304 316
f 314 304 315
f 315 316 312
f 312 313 315
f 313 309 314
f 312 306 313
f 313 306 309
f 345 323 321
f 329 330 384
f 382 328 329
f 328 382 320
f 325 320 395
f 332 330 334
f 329 334 330
f 330 332 331
f 320 329 328
f 306 308 309
f 345 321 322
f 321 326 327
f 329 323 345
f 326 321 324
f 323 324 321
f 323 320 325
f 323 329 320
f 283 319 453
f 301 294 302
f 310 301 302
f 310 297 301
f 480 297 481
f 300 297 480
f 300 299 297
f 299 298 297
f 301 297 298
f 302 292 307
f 310 302 311
f 296 299 300
f 296 295 299
f 299 293 298
f 293 301 298
f 295 293 299
f 296 293 295
f 293 294 301
f 294 292 302
f 308 292 309
f 311 302 307
f 305 310 311
f 307 305 311
f 308 305 307
f 306 305 308
f 304 303 317
f 314 286 304
f 309 292 314
f 453 319 478
f 307 292 308
f 304 284 303
f 318 283 312
f 292 286 314
f 306 312 283
f 305 306 283
f 286 285 304
f 285 284 304
f 351 349 439
f 181 172 359
f 360 171 361
f 172 360 359
f 172 171 360
f 354 355 447
f 355 353 444
f 353 352 441
f 352 351 440
f 359 360 368
f 349 348 433
f 472 358 357
f 348 347 432
f 353 356 358
f 354 353 355
f 353 354 356
f 353 351 352
f 353 348 351
f 366 364 367
f 369 361 370
f 369 368 360
f 368 181 359
f 367 376 366
f 365 366 374
f 364 365 373
f 363 364 372
f 367 364 409
f 350 358 356
f 365 364 366
f 364 361 409
f 362 363 371
f 361 362 370
f 182 424 166
f 363 361 364
f 362 361 363
f 360 361 369
f 336 329 345
f 134 341 340
f 361 134 409
f 134 338 341
f 336 358 472
f 334 336 335
f 323 325 395
f 334 329 336
f 332 334 333
f 409 134 340
f 344 322 425
f 322 321 401
f 321 327 400
f 327 326 398
f 324 398 326
f 323 394 324
f 331 332 389
f 330 331 388
f 345 348 353
f 358 336 353
f 336 345 353
f 430 343 470
f 347 346 429
f 346 345 427
f 345 344 426
f 319 343 430
f 348 349 351
f 451 470 452
f 348 346 347
f 345 346 348
f 345 322 344
f 598 287 289
f 131 337 424
f 337 166 424
f 341 339 340
f 341 342 339
f 529 474 530
f 540 528 529
f 546 477 547
f 535 477 546
f 539 477 534
f 530 476 544
f 544 507 533
f 532 533 507
f 507 531 532
f 477 535 534
f 529 530 541
f 528 474 529
f 476 507 544
f 530 475 476
f 474 475 530
f 526 527 539
f 526 525 527
f 525 524 527
f 524 523 527
f 546 532 535
f 542 530 544
f 546 505 506
f 506 540 546
f 541 530 542
f 540 529 541
f 538 537 539
f 537 536 539
f 536 526 539
f 523 522 527
f 539 534 538
f 535 531 534
f 533 532 546
f 544 533 543
f 534 531 538
f 531 537 538
f 532 531 535
f 531 507 537
f 510 436 511
f 520 512 519
f 521 508 520
f 519 513 518
f 513 514 518
f 513 489 514
f 512 513 519
f 508 512 520
f 511 436 437
f 524 525 507
f 527 471 539
f 509 508 521
f 507 509 524
f 512 509 513
f 508 509 512
f 509 466 513
f 511 452 470
f 546 504 505
f 518 514 517
f 522 521 527
f 521 520 527
f 520 519 527
f 519 518 527
f 518 517 527
f 517 515 527
f 515 516 527
f 516 489 527
f 544 545 542
f 515 514 516
f 514 515 517
f 507 536 537
f 507 526 536
f 507 525 526
f 524 509 523
f 509 522 523
f 509 521 522
f 569 567 568
f 562 561 589
f 573 572 592
f 572 571 588
f 571 560 587
f 560 559 586
f 559 562 585
f 572 559 571
f 570 736 708
f 708 565 569
f 566 591 564
f 563 567 569
f 729 565 708
f 565 563 569
f 564 565 729
f 564 556 565
f 556 563 565
f 556 555 563
f 555 562 563
f 569 568 597
f 581 556 582
f 577 553 580
f 579 554 581
f 578 554 579
f 580 555 578
f 738 552 576
f 709 749 570
f 569 712 703
f 562 553 561
f 568 567 596
f 575 595 567
f 711 552 702
f 575 574 594
f 574 573 593
f 567 574 575
f 567 572 574
f 572 573 574
f 549 107 550
f 552 108 702
f 702 108 551
f 548 551 727
f 549 550 725
f 108 727 551
f 726 106 549
f 723 105 548
f 551 548 599
f 598 289 600
f 599 102 598
f 548 102 599
f 545 543 546
f 546 542 545
f 543 533 546
f 546 541 542
f 546 540 541
f 544 543 545
f 728 552 738
f 563 572 567
f 563 559 572
f 559 560 571
f 559 563 562
f 564 584 558
f 558 583 557
f 556 581 554
f 557 582 556
f 546 503 504
f 555 580 553
f 555 554 578
f 561 553 577
f 558 556 564
f 556 558 557
f 555 556 554
f 553 562 555
f 552 728 131
f 461 454 490
f 493 455 467
f 490 456 493
f 461 490 492
f 491 461 492
f 284 462 491
f 462 461 491
f 490 454 456
f 455 457 468
f 493 456 455
f 467 455 468
f 291 477 290
f 527 283 471
f 459 286 466
f 464 472 465
f 464 336 472
f 463 336 464
f 459 461 286
f 462 286 461
f 495 466 496
f 473 476 474
f 466 476 473
f 453 511 470
f 477 471 750
f 471 453 750
f 453 470 750
f 477 291 547
f 496 466 528
f 459 466 460
f 494 460 495
f 466 473 528
f 469 458 494
f 468 458 469
f 460 466 495
f 494 459 460
f 458 459 494
f 468 457 458
f 429 428 435
f 443 442 446
f 442 441 446
f 441 435 446
f 441 440 435
f 440 439 435
f 439 433 435
f 433 432 435
f 432 429 435
f 444 443 451
f 435 425 434
f 434 431 430
f 428 427 435
f 427 426 435
f 426 425 435
f 425 401 434
f 431 377 430
f 434 378 431
f 451 445 444
f 457 459 458
f 455 459 457
f 455 461 459
f 456 461 455
f 454 461 456
f 453 471 283
f 511 450 452
f 451 452 450
f 474 476 475
f 511 449 450
f 450 448 451
f 511 438 449
f 437 438 511
f 449 448 450
f 448 447 451
f 447 445 451
f 451 443 446
f 491 492 497
f 502 468 469
f 501 467 502
f 500 493 501
f 499 490 500
f 498 492 499
f 498 497 492
f 491 497 303
f 499 492 490
f 503 469 494
f 468 502 467
f 493 467 501
f 318 547 291
f 493 500 490
f 303 284 491
f 489 516 514
f 489 488 527
f 488 484 527
f 317 303 497
f 547 318 546
f 546 312 503
f 312 502 503
f 318 312 546
f 312 501 502
f 312 500 501
f 312 499 500
f 312 498 499
f 484 483 527
f 506 528 540
f 505 496 506
f 504 495 505
f 496 528 506
f 505 495 496
f 503 494 504
f 502 469 503
f 494 495 504
f 297 283 527
f 466 484 513
f 487 465 510
f 486 465 487
f 486 485 464
f 511 453 478
f 472 510 465
f 464 465 486
f 485 463 464
f 484 286 483
f 286 296 483
f 466 286 484
f 471 477 539
f 528 473 474
f 887 290 477
f 290 887 289
f 507 466 509
f 476 466 507
f 483 297 527
f 513 488 489
f 513 484 488
f 511 478 510
f 487 510 478
f 486 487 478
f 485 486 478
f 478 406 485
f 478 405 406
f 283 310 305
f 482 479 481
f 479 480 481
f 483 482 297
f 481 297 482
f 483 296 482
f 296 479 482
f 480 296 300
f 296 480 479
f 789 790 865
f 790 765 791
f 769 768 790
f 769 790 789
f 791 765 793
f 791 793 792
f 794 793 796
f 793 794 795
f 796 793 785
f 769 789 831
f 887 760 788
f 790 791 866
f 791 792 867
f 784 785 870
f 796 784 869
f 793 874 792
f 794 872 795
f 795 875 793
f 872 794 796
f 106 162 107
f 112 114 109
f 109 113 112
f 117 167 168
f 110 167 117
f 111 113 109
f 109 166 102
f 287 103 104
f 108 105 164
f 760 881 788
f 102 108 109
f 104 102 166
f 102 105 108
f 793 755 785
f 784 796 785
f 787 783 786
f 785 783 787
f 887 788 781
f 808 810 798
f 811 758 814
f 814 758 815
f 815 761 816
f 759 801 802
f 803 759 802
f 800 750 799
f 799 750 855
f 810 811 798
f 810 757 811
f 798 814 815
f 811 814 798
f 798 815 816
f 798 816 820
f 821 798 820
f 817 798 821
f 798 797 832
f 813 812 798
f 805 751 804
f 787 786 877
f 785 787 878
f 781 788 881
f 750 800 797
f 797 798 750
f 798 817 750
f 817 818 750
f 751 803 804
f 114 173 109
f 807 752 806
f 806 752 805
f 834 753 807
f 754 808 809
f 808 756 810
f 755 812 813
f 801 755 813
f 812 754 809
f 155 109 131
f 120 139 140
f 128 110 139
f 111 109 155
f 133 132 151
f 132 130 148
f 130 129 147
f 129 127 146
f 134 130 133
f 130 132 133
f 139 110 137
f 134 127 130
f 134 126 127
f 127 129 130
f 131 108 552
f 287 598 103
f 127 126 145
f 126 125 144
f 125 124 143
f 135 141 111
f 154 338 134
f 134 133 153
f 144 111 155
f 139 137 138
f 143 111 144
f 143 142 111
f 142 136 111
f 136 135 111
f 124 123 142
f 140 111 141
f 145 126 144
f 144 125 143
f 124 142 143
f 142 123 136
f 136 122 135
f 135 121 141
f 141 120 140
f 114 112 116
f 114 118 119
f 117 118 114
f 116 112 115
f 114 116 117
f 137 113 138
f 137 115 112
f 139 111 140
f 138 111 139
f 114 119 175
f 112 113 137
f 113 111 138
f 118 169 119
f 117 168 118
f 116 110 117
f 110 116 115
f 110 115 137
f 173 174 109
f 121 122 123
f 123 122 136
f 122 121 135
f 120 128 139
f 121 120 141
f 128 121 110
f 123 126 134
f 126 124 125
f 124 126 123
f 813 798 801
f 120 121 128
f 109 108 131
f 107 161 550
f 598 101 103
f 102 101 598
f 106 107 549
f 105 102 548
f 114 175 176
f 859 858 854
f 856 799 855
f 854 840 853
f 848 847 854
f 849 848 854
f 850 849 854
f 851 850 854
f 852 851 854
f 857 852 854
f 858 857 854
f 853 800 856
f 859 854 879
f 860 859 879
f 861 860 879
f 862 861 879
f 871 784 870
f 869 784 871
f 831 789 865
f 865 790 866
f 840 839 853
f 862 783 861
f 786 862 863
f 854 781 879
f 879 781 880
f 855 781 856
f 836 797 853
f 837 836 853
f 838 837 853
f 867 792 868
f 839 838 853
f 841 840 854
f 842 841 854
f 843 842 854
f 844 843 854
f 845 844 854
f 846 845 854
f 847 846 854
f 880 871 879
f 880 875 872
f 878 877 879
f 879 870 878
f 871 870 879
f 863 862 879
f 877 863 879
f 880 869 871
f 876 869 880
f 880 874 875
f 881 873 880
f 882 702 887
f 600 884 885
f 883 748 749
f 883 719 721
f 749 719 883
f 883 721 720
f 702 885 887
f 870 785 878
f 866 791 867
f 868 792 874
f 874 793 875
f 875 795 872
f 872 796 876
f 876 796 869
f 877 786 863
f 878 787 877
f 783 860 861
f 880 781 881
f 864 831 865
f 881 819 867
f 868 874 873
f 881 867 868
f 872 876 880
f 881 868 873
f 873 874 880
f 829 768 830
f 822 763 823
f 824 765 825
f 823 764 824
f 825 765 826
f 765 827 826
f 827 766 828
f 819 750 818
f 828 767 829
f 821 763 822
f 830 769 831
f 881 760 819
f 817 821 822
f 817 823 824
f 823 817 822
f 818 817 830
f 817 824 826
f 817 826 827
f 806 798 834
f 802 801 798
f 803 802 798
f 804 803 798
f 805 804 798
f 832 834 798
f 833 832 797
f 835 833 797
f 806 805 798
f 817 827 828
f 836 835 797
f 807 806 834
f 797 800 853
f 800 799 856
f 812 809 798
f 809 808 798
f 816 761 820
f 820 762 821
f 850 777 849
f 842 773 841
f 774 842 843
f 774 843 844
f 775 844 845
f 846 775 845
f 776 846 847
f 848 776 847
f 777 848 849
f 773 840 841
f 779 850 851
f 852 779 851
f 780 852 857
f 853 856 781
f 853 781 854
f 858 780 857
f 782 858 859
f 860 782 859
f 866 867 819
f 826 824 825
f 817 828 829
f 830 817 829
f 819 818 864
f 818 830 831
f 864 818 831
f 819 864 865
f 865 866 819
f 146 127 145
f 770 834 832
f 833 770 832
f 771 833 835
f 771 835 836
f 837 771 836
f 772 837 838
f 839 772 838
f 839 840 773
f 470 343 781
f 726 549 725
f 722 161 723
f 727 164 726
f 727 722 723
f 724 722 727
f 725 724 727
f 726 725 727
f 337 131 781
f 343 337 781
f 723 548 727
f 600 289 884
f 566 564 729
f 566 729 730
f 731 729 733
f 731 733 732
f 733 735 734
f 735 733 736
f 729 708 733
f 715 714 711
f 707 717 718
f 720 707 718
f 719 710 721
f 721 708 720
f 597 596 711
f 712 597 711
f 713 712 711
f 714 713 711
f 733 708 736
f 716 715 711
f 717 716 711
f 718 717 711
f 718 711 883
f 720 718 883
f 550 161 722
f 550 722 724
f 725 550 724
f 745 735 746
f 591 566 739
f 739 730 740
f 740 729 741
f 741 731 742
f 738 883 728
f 743 742 732
f 744 743 733
f 745 744 734
f 738 591 739
f 746 736 747
f 747 737 748
f 748 737 749
f 739 740 738
f 740 741 738
f 741 742 738
f 742 743 738
f 743 744 738
f 736 746 735
f 736 570 737
f 566 730 739
f 730 729 740
f 731 741 729
f 742 731 732
f 733 743 732
f 733 734 744
f 735 745 734
f 717 706 716
f 737 747 736
f 883 882 728
f 737 570 749
f 728 887 131
f 781 131 887
f 887 728 882
f 738 583 584
f 738 584 591
f 592 572 588
f 462 285 286
f 285 462 284
f 290 166 283
f 166 290 288
f 586 559 585
f 576 552 711
f 587 560 586
f 588 571 587
f 585 562 590
f 590 562 589
f 589 561 577
f 584 564 591
f 593 573 592
f 594 574 593
f 595 575 594
f 596 567 595
f 597 568 596
f 590 589 576
f 286 293 296
f 297 310 283
f 286 294 293
f 286 292 294
f 291 283 318
f 290 283 291
f 582 557 583
f 583 558 584
f 712 569 597
f 589 577 576
f 576 577 580
f 580 578 576
f 738 576 578
f 738 578 579
f 738 579 581
f 738 581 582
f 738 582 583
f 707 706 717
f 708 706 707
f 709 570 708
f 709 708 710
f 885 702 601
f 704 703 713
f 705 704 714
f 706 705 715
f 708 707 720
f 708 704 706
f 710 719 709
f 708 721 710
f 702 882 883
f 713 703 712
f 714 704 713
f 715 705 714
f 706 715 716
f 711 702 883
f 594 593 711
f 749 709 719
f 590 576 585
f 586 585 576
f 587 586 576
f 587 576 588
f 588 576 711
f 592 588 711
f 593 592 711
f 744 745 738
f 595 594 711
f 596 595 711
f 702 551 599
f 702 599 601
f 885 601 600
f 569 703 704
f 708 569 704
f 704 705 706
f 104 166 288
f 170 171 179
f 169 170 177
f 169 118 168
f 166 319 283
f 104 288 287
f 169 171 170
f 166 109 182
f 168 110 169
f 167 110 168
f 182 109 174
f 164 165 726
f 161 160 723
f 164 727 108
f 165 106 726
f 160 105 723
f 164 163 165
f 164 160 163
f 162 163 160
f 173 176 177
f 182 181 368
f 182 180 181
f 182 179 180
f 182 174 179
f 178 177 179
f 179 174 178
f 178 173 177
f 174 173 178
f 161 162 160
f 173 114 176
f 180 172 181
f 179 171 180
f 177 170 179
f 171 172 180
f 176 169 177
f 176 175 169
f 175 119 169
f 338 154 159
f 148 147 155
f 147 146 155
f 146 145 155
f 145 144 155
f 422 131 423
f 158 131 422
f 156 131 158
f 155 131 156
f 151 148 155
f 154 134 153
f 153 133 152
f 133 150 152
f 149 133 151
f 133 149 150
f 151 132 148
f 148 130 147
f 147 129 146
f 154 153 158
f 163 106 165
f 162 106 163
f 164 105 160
f 161 107 162
f 418 158 422
f 158 418 417
f 159 158 417
f 159 154 158
f 182 368 369
f 158 152 156
f 156 149 157
f 157 155 156
f 151 155 157
f 153 152 158
f 152 150 156
f 149 151 157
f 150 149 156
f 289 886 884
f 752 751 805
f 753 752 807
f 750 760 477
f 761 758 765
f 761 765 762
f 762 765 763
f 763 765 764
f 765 755 793
f 759 803 751
f 886 289 887
f 887 477 760
f 766 768 767
f 765 790 766
f 768 766 790
f 760 750 819
f 761 762 820
f 762 763 821
f 756 755 765
f 883 738 745
f 883 745 746
f 883 746 747
f 883 747 748
f 750 470 781
f 751 752 753
f 754 755 756
f 757 756 758
f 763 764 823
f 758 756 765
f 755 759 751
f 754 756 808
f 755 754 812
f 757 758 811
f 756 757 810
f 758 761 815
f 759 755 801
f 775 774 844
f 778 782 783
f 785 778 783
f 771 770 833
f 772 771 837
f 773 772 839
f 770 753 834
f 750 781 855
f 774 773 842
f 785 777 778
f 776 775 846
f 777 776 848
f 778 777 850
f 779 778 850
f 780 779 852
f 782 780 858
f 783 782 860
f 783 862 786
f 772 773 774
f 764 765 824
f 765 766 827
f 766 767 828
f 767 768 829
f 768 769 830
f 751 753 770
f 751 770 771
f 751 771 772
f 755 751 772
f 755 772 777
f 777 772 774
f 774 775 776
f 755 777 785
f 777 774 776
f 778 779 780
f 780 782 778
f 12 1 2
f 50 29 49
f 59 101 58
f 58 101 57
f 101 56 57
f 101 30 56
f 55 34 72
f 54 33 55
f 53 32 54
f 52 31 53
f 67 56 51
f 51 30 50
f 63 101 59
f 49 28 48
f 48 27 38
f 47 26 52
f 46 25 47
f 45 24 46
f 44 23 45
f 43 22 44
f 42 21 43
f 41 20 42
f 65 64 75
f 73 62 77
f 71 60 73
f 72 61 71
f 70 59 69
f 69 58 68
f 68 57 67
f 66 101 65
f 65 101 64
f 64 101 63
f 66 65 76
f 40 19 41
f 64 63 74
f 62 66 77
f 60 62 73
f 61 60 71
f 63 59 70
f 59 58 69
f 58 57 68
f 57 56 67
f 2 101 102
f 93 94 12
f 14 19 40
f 17 18 39
f 27 17 38
f 18 15 36
f 15 16 37
f 16 14 35
f 101 1 30
f 96 97 12
f 95 96 12
f 94 95 12
f 19 20 41
f 13 93 12
f 12 10 13
f 12 9 10
f 12 8 9
f 12 7 8
f 12 4 7
f 104 11 12
f 25 11 26
f 24 11 25
f 56 30 51
f 38 17 39
f 39 18 36
f 36 15 37
f 35 14 40
f 37 16 35
f 61 72 34
f 33 34 55
f 32 33 54
f 31 32 53
f 26 31 52
f 74 63 70
f 30 29 50
f 29 28 49
f 28 27 48
f 25 26 47
f 24 25 46
f 23 24 45
f 22 23 44
f 21 22 43
f 20 21 42
f 103 62 60
f 95 52 96
f 96 53 54
f 52 53 96
f 94 47 95
f 47 52 95
f 47 93 46
f 93 47 94
f 13 46 93
f 103 11 104
f 103 66 62
f 55 97 54
f 61 103 60
f 34 103 61
f 33 103 34
f 32 103 33
f 31 103 32
f 26 103 31
f 11 103 26
f 90 77 92
f 89 77 90
f 84 102 85
f 92 104 90
f 89 104 100
f 90 104 89
f 104 99 100
f 92 102 104
f 102 92 91
f 102 91 88
f 102 88 87
f 102 87 86
f 102 86 85
f 92 76 91
f 103 101 66
f 104 98 99
f 104 97 98
f 99 72 100
f 98 55 99
f 55 72 99
f 104 12 97
f 97 55 98
f 96 54 97
f 48 38 79
f 79 102 80
f 51 81 83
f 81 50 80
f 51 50 81
f 80 48 79
f 50 49 80
f 49 48 80
f 46 13 45
f 10 44 45
f 79 38 78
f 80 102 81
f 39 78 38
f 6 36 37
f 78 39 82
f 39 6 82
f 39 36 6
f 2 102 79
f 77 66 76
f 76 65 75
f 75 64 74
f 74 70 88
f 91 74 88
f 88 70 87
f 70 86 87
f 100 73 89
f 100 71 73
f 77 89 73
f 77 76 92
f 76 75 91
f 75 74 91
f 72 71 100
f 1 11 14
f 70 69 86
f 69 68 86
f 86 68 85
f 85 67 84
f 84 51 83
f 68 67 85
f 67 51 84
f 83 102 84
f 81 102 83
f 9 43 10
f 3 35 5
f 5 35 4
f 4 40 7
f 7 42 8
f 40 41 7
f 7 41 42
f 43 8 42
f 43 44 10
f 8 43 9
f 14 16 1
f 10 45 13
f 11 1 12
f 14 11 19
f 19 11 20
f 20 11 21
f 21 11 22
f 22 11 23
f 23 11 24
f 1 18 17
f 1 16 15
f 35 40 4
f 101 2 1
f 15 18 1
f 17 27 1
f 27 28 1
f 28 29 1
f 29 30 1
f 2 3 5
f 37 35 3
f 6 37 3
f 79 78 2
f 82 2 78
f 82 6 2
f 6 3 2
f 5 4 2
f 12 2 4
f 638 643 664
f 643 644 665
f 641 642 663
f 642 640 661
f 640 639 660
f 638 659 637
f 631 637 658
f 639 636 657
f 636 635 656
f 625 624 645
f 635 634 655
f 634 633 654
f 633 632 653
f 630 631 652
f 629 630 651
f 628 629 650
f 612 628 649
f 632 627 648
f 627 626 647
f 626 625 646
f 624 605 616
f 663 642 661
f 653 632 648
f 610 600 611
f 662 641 663
f 661 640 660
f 660 639 657
f 659 638 664
f 658 637 659
f 657 636 656
f 656 635 655
f 655 634 654
f 654 633 653
f 644 641 662
f 652 631 658
f 651 630 652
f 650 629 651
f 649 628 650
f 623 612 649
f 648 627 647
f 647 626 646
f 645 624 616
f 646 625 645
f 601 672 673
f 627 598 626
f 626 598 625
f 625 598 624
f 624 598 605
f 605 598 604
f 598 602 603
f 598 603 604
f 598 689 599
f 682 601 681
f 601 673 681
f 632 598 627
f 601 671 672
f 601 670 671
f 601 667 670
f 601 599 667
f 668 599 674
f 669 599 668
f 599 675 674
f 667 599 669
f 600 602 598
f 611 612 623
f 622 611 623
f 621 610 622
f 620 609 621
f 619 608 620
f 618 607 619
f 617 606 618
f 616 605 615
f 614 603 613
f 615 604 614
f 613 602 617
f 689 598 632
f 610 611 622
f 609 610 621
f 608 609 620
f 607 608 619
f 606 607 618
f 602 606 617
f 605 604 615
f 603 602 613
f 604 603 614
f 660 657 693
f 689 639 640
f 689 640 642
f 689 642 641
f 689 641 699
f 689 699 698
f 677 676 698
f 678 677 698
f 679 678 698
f 680 679 698
f 690 680 698
f 691 690 698
f 692 691 698
f 693 692 698
f 691 655 690
f 657 656 691
f 599 689 698
f 657 691 692
f 693 657 692
f 662 663 695
f 661 660 694
f 663 661 694
f 665 662 697
f 700 665 697
f 697 662 696
f 696 662 695
f 694 660 693
f 695 663 694
f 694 693 698
f 695 694 698
f 698 701 695
f 684 650 685
f 609 600 610
f 600 612 611
f 600 628 612
f 701 600 601
f 600 699 628
f 683 601 682
f 684 601 683
f 685 601 684
f 681 623 682
f 649 682 623
f 682 649 683
f 686 601 685
f 649 650 684
f 683 649 684
f 665 644 662
f 650 651 685
f 685 651 652
f 685 652 686
f 701 601 686
f 658 686 652
f 658 659 688
f 686 658 687
f 687 658 688
f 688 659 700
f 689 632 633
f 689 633 634
f 689 634 635
f 689 635 636
f 689 636 639
f 616 615 674
f 647 646 677
f 677 646 676
f 676 645 666
f 646 645 676
f 599 698 676
f 623 681 622
f 673 622 681
f 673 621 622
f 620 621 673
f 620 671 619
f 670 618 619
f 617 618 670
f 666 616 675
f 645 616 666
f 629 699 630
f 615 614 674
f 614 613 668
f 613 617 667
f 616 674 675
f 674 614 668
f 673 672 620
f 671 620 672
f 670 619 671
f 667 617 670
f 669 613 667
f 668 613 669
f 599 676 666
f 599 666 675
f 664 643 665
f 678 648 677
f 628 699 629
f 630 699 631
f 631 699 637
f 637 699 638
f 638 699 643
f 643 699 644
f 699 641 644
f 600 701 699
f 698 699 701
f 701 686 687
f 688 700 701
f 700 697 701
f 696 695 701
f 697 696 701
f 701 687 688
f 608 600 609
f 607 600 608
f 606 600 607
f 602 600 606
f 700 664 665
f 659 664 700
f 656 655 691
f 690 654 680
f 680 653 679
f 655 654 690
f 653 678 679
f 654 653 680
f 653 648 678
f 648 647 677
f 290 273 274
f 264 253 265
f 251 250 261
f 252 251 262
f 256 252 263
f 253 254 265
f 255 256 267
f 254 255 266
f 258 247 257
f 259 248 258
f 260 249 259
f 261 250 260
f 262 251 261
f 263 252 262
f 250 249 260
f 266 255 267
f 265 254 266
f 267 256 263
f 216 289 221
f 221 289 222
f 222 289 223
f 223 289 224
f 224 289 253
f 253 289 254
f 289 256 255
f 289 255 254
f 289 186 290
f 238 217 232
f 226 205 225
f 227 206 229
f 228 207 227
f 229 208 230
f 230 209 233
f 231 210 226
f 232 211 231
f 233 212 234
f 234 213 235
f 235 214 236
f 236 215 237
f 237 216 242
f 226 225 185
f 239 218 238
f 240 219 239
f 241 220 240
f 257 246 241
f 242 221 243
f 243 222 244
f 245 224 264
f 244 223 245
f 186 289 216
f 247 246 257
f 248 247 258
f 249 248 259
f 290 282 273
f 274 265 266
f 267 280 266
f 267 263 281
f 273 264 274
f 274 266 280
f 260 275 276
f 277 260 276
f 278 261 277
f 281 263 278
f 267 281 279
f 280 267 279
f 290 272 282
f 282 245 273
f 202 288 203
f 288 275 203
f 288 276 275
f 288 277 276
f 288 278 277
f 288 281 278
f 287 256 289
f 281 288 290
f 280 290 274
f 279 290 280
f 281 290 279
f 187 183 184
f 271 244 272
f 231 226 185
f 194 234 235
f 236 195 235
f 195 236 268
f 268 237 269
f 237 268 236
f 237 242 270
f 269 237 270
f 242 243 271
f 271 243 244
f 270 242 271
f 245 272 244
f 287 184 183
f 272 245 282
f 290 187 272
f 258 257 203
f 259 258 275
f 260 259 275
f 275 258 203
f 261 260 277
f 262 261 278
f 263 262 278
f 245 264 273
f 264 265 274
f 233 192 230
f 187 184 190
f 187 190 191
f 187 191 192
f 190 227 191
f 191 230 192
f 228 188 225
f 228 190 189
f 188 228 189
f 185 225 188
f 227 229 191
f 191 229 230
f 228 227 190
f 290 186 187
f 233 234 194
f 192 233 193
f 193 233 194
f 194 235 195
f 187 192 193
f 193 194 187
f 194 195 187
f 195 268 187
f 268 269 187
f 269 270 187
f 270 271 187
f 271 272 187
f 188 184 185
f 225 204 228
f 183 207 204
f 204 205 183
f 205 210 183
f 210 211 183
f 211 217 183
f 217 218 183
f 218 219 183
f 219 220 183
f 197 196 184
f 184 188 189
f 184 189 190
f 223 224 245
f 196 185 184
f 198 197 184
f 186 183 187
f 207 183 186
f 207 186 206
f 206 186 208
f 208 186 209
f 209 186 212
f 212 186 213
f 213 186 214
f 214 186 215
f 215 186 216
f 212 213 234
f 199 288 200
f 200 288 201
f 201 288 202
f 207 228 204
f 210 205 226
f 205 204 225
f 207 206 227
f 206 208 229
f 208 209 230
f 211 210 231
f 217 211 232
f 209 212 233
f 184 287 288
f 213 214 235
f 214 215 236
f 215 216 237
f 218 217 238
f 219 218 239
f 220 219 240
f 246 220 241
f 216 221 242
f 221 222 243
f 222 223 244
f 253 264 224
f 287 183 220
f 202 241 201
f 203 257 202
f 287 220 246
f 287 246 247
f 248 287 247
f 249 287 248
f 250 287 249
f 251 287 250
f 252 287 251
f 256 287 252
f 231 185 196
f 197 231 196
f 232 231 197
f 198 232 197
f 238 232 198
f 257 241 202
f 198 288 199
f 241 200 201
f 200 240 199
f 241 240 200
f 199 238 198
f 240 239 199
f 239 238 199
f 184 288 198
f 971 944 972
f 969 943 971
f 943 944 971
f 973 887 972
f 972 887 971
f 971 887 969
f 969 887 968
f 968 943 969
f 943 968 917
f 917 967 916
f 967 917 968
f 966 916 967
f 944 945 972
f 972 945 946
f 972 946 973
f 949 948 976
f 950 949 979
f 956 973 946
f 956 955 970
f 973 956 974
f 958 957 983
f 955 958 983
f 974 956 970
f 970 955 983
f 987 887 973
f 960 908 961
f 951 930 950
f 952 931 951
f 953 932 952
f 954 933 953
f 956 935 955
f 955 934 958
f 958 937 957
f 959 938 954
f 957 936 959
f 886 978 922
f 907 960 962
f 963 907 962
f 966 915 916
f 961 910 964
f 964 914 965
f 966 965 914
f 913 911 888
f 911 907 963
f 888 911 963
f 907 908 960
f 908 909 961
f 961 909 910
f 912 913 888
f 914 964 910
f 914 915 966
f 985 954 982
f 936 937 978
f 936 978 938
f 975 938 978
f 977 978 987
f 951 950 979
f 979 949 976
f 951 979 980
f 981 951 980
f 952 951 981
f 953 952 982
f 954 953 982
f 982 952 981
f 886 987 978
f 959 954 985
f 959 986 957
f 959 985 984
f 986 959 984
f 983 957 986
f 987 973 974
f 974 970 987
f 987 970 983
f 987 983 986
f 984 985 987
f 986 984 987
f 985 977 987
f 895 894 977
f 975 926 927
f 975 927 928
f 975 928 929
f 975 929 930
f 975 930 931
f 975 931 932
f 975 932 933
f 975 933 938
f 975 978 977
f 892 891 977
f 893 892 977
f 894 893 977
f 885 975 977
f 976 895 977
f 979 976 977
f 980 979 977
f 981 980 977
f 982 981 977
f 985 982 977
f 922 978 923
f 923 978 924
f 924 978 925
f 925 978 935
f 934 935 978
f 934 978 937
f 976 948 895
f 890 912 889
f 885 977 891
f 940 939 891
f 891 939 890
f 892 940 891
f 941 940 892
f 942 941 892
f 893 942 892
f 947 942 893
f 948 947 895
f 947 893 894
f 895 947 894
f 939 912 890
f 896 886 897
f 897 886 898
f 898 886 899
f 896 897 908
f 897 898 909
f 898 899 910
f 900 896 907
f 902 900 911
f 901 902 913
f 899 903 914
f 903 904 915
f 904 905 916
f 884 975 885
f 960 885 962
f 963 885 888
f 962 885 963
f 885 889 888
f 884 886 896
f 885 960 887
f 887 960 961
f 887 961 964
f 887 964 965
f 887 965 966
f 887 966 967
f 968 887 967
f 905 906 917
f 884 896 900
f 884 900 902
f 901 884 902
f 918 884 901
f 919 884 918
f 920 884 919
f 921 884 920
f 926 884 921
f 975 884 926
f 885 890 889
f 885 891 890
f 912 888 889
f 936 938 959
f 927 926 947
f 928 927 948
f 929 928 949
f 930 929 950
f 931 930 951
f 932 931 952
f 933 932 953
f 938 933 954
f 935 934 955
f 925 935 956
f 934 937 958
f 937 936 957
f 924 925 946
f 939 918 912
f 940 919 939
f 941 920 940
f 942 921 941
f 917 906 943
f 943 922 944
f 944 923 945
f 945 924 946
f 946 925 956
f 947 926 942
f 948 927 947
f 949 928 948
f 904 886 905
f 907 896 908
f 908 897 909
f 909 898 910
f 910 899 914
f 911 900 907
f 913 902 911
f 912 901 913
f 914 903 915
f 915 904 916
f 916 905 917
f 899 886 903
f 903 886 904
f 950 929 949
f 886 906 905
f 886 922 906
f 987 886 887
f 918 901 912
f 919 918 939
f 920 919 940
f 921 920 941
f 926 921 942
f 906 922 943
f 922 923 944
f 923 924 945

