# https://github.com/mikedh/trimesh
v -12.50000000 10.00000000 0.00000000
v -11.52716351 11.13519478 0.00000000
v -11.36480522 10.97283649 0.00000000
v -11.46213245 11.03786755 0.00000000
v -11.49944115 11.08332920 0.00000000
v -11.41667080 11.00055885 0.00000000
v -11.54423523 11.19147301 0.00000000
v -11.55000019 11.25000000 0.00000000
v -11.54423523 11.30852699 0.00000000
v -11.52716351 11.36480522 0.00000000
v -11.49944115 11.41667080 0.00000000
v -11.46213245 11.46213245 0.00000000
v -11.41667080 11.49944115 0.00000000
v -11.36480522 11.52716351 0.00000000
v -11.30852699 10.95576477 0.00000000
v -11.25000000 10.94999981 0.00000000
v -11.19147301 10.95576477 0.00000000
v -11.13519478 10.97283649 0.00000000
v -11.08332920 11.00055885 0.00000000
v -11.03786755 11.03786755 0.00000000
v -11.00055885 11.08332920 0.00000000
v -10.97283649 11.13519478 0.00000000
v -11.30852699 11.54423523 0.00000000
v -11.25000000 11.55000019 0.00000000
v -11.19147301 11.54423523 0.00000000
v -11.13519478 11.52716351 0.00000000
v -10.95576477 11.19147301 0.00000000
v -10.94999981 11.25000000 0.00000000
v -10.95576477 11.30852699 0.00000000
v -10.97283649 11.36480522 0.00000000
v -11.03786755 11.46213245 0.00000000
v -11.08332920 11.49944115 0.00000000
v -11.00055885 11.41667080 0.00000000
v -11.52716351 11.13519478 0.27500001
v -11.36480522 10.97283649 0.27500001
v -11.46213245 11.03786755 0.27500001
v -11.49944115 11.08332920 0.27499998
v -11.41667080 11.00055885 0.27500001
v -11.54423523 11.19147301 0.27500001
v -11.55000019 11.25000000 0.27500001
v -11.54423523 11.30852699 0.27500001
v -11.52716351 11.36480522 0.27500001
v -11.49944115 11.41667080 0.27499998
v -11.46213245 11.46213245 0.27500001
v -11.41667080 11.49944115 0.27500001
v -11.36480522 11.52716351 0.27500001
v -11.30852699 10.95576477 0.27500001
v -11.25000000 10.94999981 0.27500001
v -11.19147301 10.95576477 0.27500001
v -11.13519478 10.97283649 0.27500001
v -11.08332920 11.00055885 0.27500001
v -11.03786755 11.03786755 0.27500001
v -11.00055885 11.08332920 0.27499998
v -10.97283649 11.13519478 0.27500001
v -11.30852699 11.54423523 0.27500001
v -11.25000000 11.55000019 0.27500001
v -11.19147301 11.54423523 0.27500001
v -11.13519478 11.52716351 0.27500001
v -10.95576477 11.19147301 0.27500001
v -10.94999981 11.25000000 0.27500001
v -10.95576477 11.30852699 0.27500001
v -10.97283649 11.36480522 0.27500001
v -11.03786755 11.46213150 0.27500001
v -11.08332920 11.49944115 0.27500001
v -11.00055885 11.41667080 0.27499998
v -12.50000000 12.50000000 0.00000000
v -10.00000000 10.00000000 0.00000000
v -10.00000000 12.50000000 0.00000000
v -12.50000000 10.00000000 0.50000000
v -11.73503685 11.04909134 0.50000000
v -11.76491261 11.14757729 0.50000000
v -11.77499962 11.25000000 0.50000000
v -11.76491261 11.35242271 0.50000000
v -11.73503685 11.45090866 0.50000000
v -11.45090866 10.76496315 0.50000000
v -11.35242271 10.73508739 0.50000000
v -11.25000000 10.72500038 0.50000000
v -11.14757729 10.73508739 0.50000000
v -11.04909134 10.76496315 0.50000000
v -11.62123108 10.87876892 0.50000000
v -11.68652153 10.95832539 0.50000000
v -11.54167461 10.81347847 0.50000000
v -11.68652153 11.54167461 0.50000000
v -10.95832539 10.81347847 0.50000000
v -12.50000000 12.50000000 0.50000000
v -11.62123108 11.62123108 0.50000000
v -11.54167461 11.68652153 0.50000000
v -11.45090866 11.73503685 0.50000000
v -11.35242271 11.76491261 0.50000000
v -11.25000000 11.77499962 0.50000000
v -11.14757729 11.76491261 0.50000000
v -11.04909134 11.73503685 0.50000000
v -10.95832539 11.68652153 0.50000000
v -10.87876892 10.87876892 0.50000000
v -10.81347847 10.95832539 0.50000000
v -10.76496315 11.04909134 0.50000000
v -10.73508739 11.14757729 0.50000000
v -10.76496315 11.45090866 0.50000000
v -10.81347847 11.54167461 0.50000000
v -10.72500038 11.25000000 0.50000000
v -10.73508739 11.35242271 0.50000000
v -10.00000000 10.00000000 0.50000000
v -10.87876892 11.62123108 0.50000000
v -10.00000000 12.50000000 0.50000000
v -7.46700859 10.05657864 0.50000000
v -6.34999990 13.27657127 1.70046902
v -6.34999990 17.63928413 0.59741402
v -7.26443386 18.04115105 0.50000000
v -7.46700859 19.00991821 0.50000000
v -8.47421741 21.06106758 0.50000000
v -2.53299165 10.05657864 0.50000000
v -2.73556614 18.04115105 0.50000000
v -2.53299165 19.00991821 0.50000000
v -2.02578282 21.06106758 0.50000000
v -7.26478767 10.25885677 2.46098709
v -7.46700859 10.05657864 3.50000000
v -7.26555443 10.25807095 3.50000000
v -7.26469707 12.44676971 3.50000000
v -6.51926088 21.32803535 2.07502794
v -6.50115061 21.42575073 1.99549699
v -6.56909609 21.40839577 2.01448894
v -6.50078058 21.38485718 2.01834798
v -6.51815462 21.37849998 2.02312303
v -6.50159883 21.34805679 2.04919600
v -6.62745142 21.39330292 2.05698204
v -6.57659864 21.35432625 2.06105590
v -6.67137718 21.39315414 2.11369896
v -6.70160627 21.42059898 2.17563295
v -6.67575836 21.37989235 2.17466307
v -6.50139475 21.31964493 2.08649611
v -6.57394648 21.31749153 2.12140298
v -6.50122213 21.30242157 2.12837696
v -6.51747274 21.30022049 2.13910794
v -6.59772778 21.31766510 2.17324495
v -6.55021191 21.30097580 2.17286611
v -6.50121880 21.29530716 2.17273808
v -6.62746000 21.34986687 2.11268210
v -6.64031124 21.34447098 2.17385411
v -7.26443386 18.42238998 3.50000000
v -7.46700859 19.00991821 3.50000000
v -7.26699972 18.80736351 3.50000000
v -8.47421741 21.06106758 3.50000000
v -6.70176744 21.38690948 3.50000000
v -6.67590141 21.34601021 3.50000000
v -6.64027691 21.31037903 3.50000000
v -6.59761858 21.28356934 3.50000000
v -6.55006409 21.26692581 3.50000000
v -6.50139999 21.26132202 3.50000000
v -4.19612217 10.70735359 2.35006189
v -2.73521233 10.25885677 2.46098709
v -2.73444581 10.25807095 3.50000000
v -2.53299165 10.05657864 3.50000000
v -3.99876046 21.42572212 1.99549699
v -3.93733525 21.42069244 2.00668311
v -3.99814248 21.38442612 2.01834798
v -3.99812675 21.34794807 2.04919600
v -3.92983723 21.37264061 2.04011703
v -3.99828410 21.32006264 2.08649611
v -3.99861455 21.30220032 2.12837696
v -3.95037794 21.30677414 2.13264489
v -3.99863219 21.29533958 2.17273808
v -3.94994402 21.30093193 2.17286611
v -3.93487883 21.33285332 2.08335209
v -3.90250206 21.31753731 2.17324495
v -3.86906648 21.37189293 2.08233500
v -3.87988520 21.33742905 2.13125610
v -3.82378674 21.38866806 2.13563991
v -3.85959649 21.34449387 2.17385411
v -3.82420301 21.37985992 2.17466307
v -3.79833627 21.42066383 2.17563295
v -3.99859881 21.26132202 3.50000000
v -3.94993663 21.26692390 3.50000000
v -3.90238380 21.28356743 3.50000000
v -3.85972261 21.31037903 3.50000000
v -3.82409811 21.34601021 3.50000000
v -3.79823208 21.38691139 3.50000000
v -2.73300028 18.80736351 3.50000000
v -2.53299165 19.00991821 3.50000000
v -2.02578282 21.06106758 3.50000000
v -8.26694489 24.35729027 0.50000000
v -8.26446724 27.87743378 0.58947200
v -8.47421741 28.08058167 0.50000000
v -12.50000000 32.50000000 0.00000000
v -12.50000000 35.00000000 0.00000000
v -11.52716351 33.63519669 0.00000000
v -11.54423523 33.69147110 0.00000000
v -11.55000019 33.75000000 0.00000000
v -11.54423523 33.80852890 0.00000000
v -11.49944115 33.58332825 0.00000000
v -11.46213245 33.53786850 0.00000000
v -11.41667080 33.50056076 0.00000000
v -11.36480522 33.47283554 0.00000000
v -11.52716351 33.86480331 0.00000000
v -11.49944115 33.91667175 0.00000000
v -11.46213245 33.96213150 0.00000000
v -11.41667080 33.99943924 0.00000000
v -11.36480522 34.02716446 0.00000000
v -11.30852699 33.45576477 0.00000000
v -11.25000000 33.45000076 0.00000000
v -11.19147301 33.45576477 0.00000000
v -11.13519478 33.47283554 0.00000000
v -11.08332920 33.50056076 0.00000000
v -11.03786755 33.53786850 0.00000000
v -11.00055885 33.58332825 0.00000000
v -10.97283649 33.63519669 0.00000000
v -10.95576477 33.69147110 0.00000000
v -10.94999981 33.75000000 0.00000000
v -10.95576477 33.80852890 0.00000000
v -11.30852699 34.04423523 0.00000000
v -11.25000000 34.04999924 0.00000000
v -11.19147301 34.04423523 0.00000000
v -11.13519478 34.02716446 0.00000000
v -11.03786755 33.96213150 0.00000000
v -11.08332920 33.99943924 0.00000000
v -11.00055885 33.91667175 0.00000000
v -10.97283649 33.86480331 0.00000000
v -11.52716351 33.63519669 0.27500001
v -11.54423523 33.69147110 0.27500001
v -11.55000019 33.75000000 0.27500001
v -11.54423523 33.80852890 0.27500001
v -11.49944115 33.58332825 0.27499998
v -11.46213245 33.53786850 0.27500001
v -11.41667080 33.50056076 0.27500001
v -11.36480522 33.47283554 0.27500001
v -11.52716351 33.86480331 0.27500001
v -11.49944115 33.91667175 0.27499998
v -11.46213245 33.96213150 0.27500001
v -11.41667080 33.99943924 0.27500001
v -11.36480522 34.02716446 0.27500001
v -11.30852699 33.45576477 0.27500001
v -11.25000000 33.45000076 0.27500001
v -11.19147301 33.45576477 0.27500001
v -11.13519478 33.47283554 0.27500001
v -11.08332920 33.50056076 0.27500001
v -11.03786755 33.53786850 0.27500001
v -11.00055885 33.58332825 0.27499998
v -10.97283649 33.63519669 0.27500001
v -10.95576477 33.69147110 0.27500001
v -10.94999981 33.75000000 0.27500001
v -10.95576477 33.80852890 0.27500001
v -11.30852699 34.04423523 0.27500001
v -11.25000000 34.04999924 0.27500001
v -11.19147301 34.04423523 0.27500001
v -11.13519478 34.02716446 0.27500001
v -11.03786755 33.96213150 0.27500001
v -11.08332920 33.99943924 0.27500001
v -11.00055885 33.91667175 0.27499998
v -10.97283649 33.86480331 0.27500001
v -10.00000000 32.50000000 0.00000000
v -10.00000000 35.00000000 0.00000000
v -12.50000000 32.50000000 0.50000000
v -11.62123108 33.37876892 0.50000000
v -11.54167461 33.31347656 0.50000000
v -11.35242271 33.23508835 0.50000000
v -11.45090866 33.26496506 0.50000000
v -11.25000000 33.22499847 0.50000000
v -11.14757729 33.23508835 0.50000000
v -11.04909134 33.26496506 0.50000000
v -10.95832539 33.31347656 0.50000000
v -11.73503685 33.54909134 0.50000000
v -11.76491261 33.64757919 0.50000000
v -11.77499962 33.75000000 0.50000000
v -11.76491261 33.85242081 0.50000000
v -11.73503685 33.95090866 0.50000000
v -12.50000000 35.00000000 0.50000000
v -11.68652153 33.45832443 0.50000000
v -11.68652153 34.04167557 0.50000000
v -11.62123108 34.12123108 0.50000000
v -11.54167461 34.18652344 0.50000000
v -10.95832539 34.18652344 0.50000000
v -11.45090866 34.23503494 0.50000000
v -11.35242271 34.26491165 0.50000000
v -11.25000000 34.27500153 0.50000000
v -11.14757729 34.26491165 0.50000000
v -11.04909134 34.23503494 0.50000000
v -10.87876892 33.37876892 0.50000000
v -10.00000000 32.50000000 0.50000000
v -10.81347847 33.45832443 0.50000000
v -10.76496315 33.54909134 0.50000000
v -10.73508739 33.64757919 0.50000000
v -10.72500038 33.75000000 0.50000000
v -10.76496315 33.95090866 0.50000000
v -10.87876892 34.12123108 0.50000000
v -10.81347847 34.04167557 0.50000000
v -10.73508739 33.85242081 0.50000000
v -10.00000000 35.00000000 0.50000000
v -8.47327805 29.64464951 0.50000000
v -8.26478958 29.84692192 0.82020402
v -8.26685905 31.12698555 0.50000000
v -8.47327805 34.94998550 0.50000000
v -8.47327805 29.64464951 1.74792993
v -8.47327805 29.75515747 1.72973669
v -8.26545811 29.84623528 1.72916663
v -8.47327805 31.07255363 1.72149098
v -8.27055550 31.00418472 1.72191894
v -8.27072048 31.07255363 1.72149098
v -2.23305488 24.35729027 0.50000000
v -2.23553228 27.87743378 0.58947200
v -2.02578282 28.08058167 0.50000000
v -4.22501755 29.64464951 0.50000000
v -4.43521070 29.84692192 0.82020402
v -4.43370056 31.12315559 0.50000000
v -4.22501755 34.94998550 0.50000000
v -0.47493324 31.03491592 0.50000000
v -0.11897598 33.12555695 0.51738000
v -0.11897597 33.18808746 0.50954998
v -0.05196807 33.13035202 0.50623298
v -0.05196821 33.18003845 0.50000000
v -0.05172598 33.23018265 0.50379199
v -0.10869406 33.06769943 0.53811598
v -0.18273324 33.16101837 0.54000700
v -0.17708871 33.22691345 0.53890699
v -0.05172605 33.08331299 0.52217799
v -0.10869387 33.25015640 0.51530099
v -0.05137299 33.27817154 0.51741898
v -0.10095381 33.31718826 0.54420203
v -0.08837721 33.30534363 0.53413600
v -0.05103244 33.32070541 0.54019803
v -0.05137334 33.04138947 0.54703599
v -0.08837846 33.02033234 0.56995797
v -0.16049555 33.04215240 0.58290702
v -0.10095620 33.01205444 0.58257902
v -0.14680420 33.02498245 0.59148097
v -0.05102872 33.00738525 0.57956100
v -0.23088357 33.13720703 0.58933800
v -0.23088361 33.19918442 0.58158600
v -0.22021556 33.25960541 0.58727902
v -0.22623651 33.26984406 0.60033602
v -0.17708869 33.09732437 0.55510998
v -0.16049586 33.28828049 0.55190498
v -0.14680578 33.30738831 0.55601501
v -0.19041079 33.29079056 0.57504499
v -0.22021587 33.08068848 0.60986602
v -0.22624087 33.07509232 0.62487900
v -0.25265530 33.10945511 0.64770103
v -0.26383203 33.17656326 0.63889003
v -0.25265527 33.24358749 0.63062102
v -0.19040853 33.04690933 0.60582101
v -0.26932344 33.21533585 0.66438198
v -0.26932362 33.14715195 0.67314100
v -0.27492252 33.18602753 0.69992501
v -0.47493324 34.80913544 0.50000000
v -4.43454170 29.84623528 1.72916675
v -4.43485785 30.10385895 1.72755420
v -4.22501755 29.64464951 1.74792993
v -4.22501755 29.75515747 1.72973680
v -4.43369961 31.07255363 1.72149098
v -4.22501755 31.07255363 1.72149098
v -5.72851467 34.35969925 1.45735395
v -5.72057152 34.39691925 1.46743500
v -5.69841909 34.42782974 1.48232806
v -5.67106295 34.45618439 1.50164497
v -5.63062716 34.48731232 1.53339696
v -5.59123898 34.50848770 1.56639004
v -5.55090189 34.52231979 1.60253000
v -4.42506456 34.25609207 1.45795405
v -4.42789793 34.28534317 1.45306301
v -4.43700933 34.31622696 1.45184600
v -4.45537376 34.35662460 1.45607102
v -4.47976112 34.39890671 1.46850097
v -4.51858425 34.44628906 1.49429500
v -4.57681036 34.49193573 1.53967202
v -4.64834738 34.52208328 1.60253000
v -0.10012048 34.51734543 1.44692600
v -0.05136650 34.52070999 1.44292104
v -0.14761771 34.50758743 1.45873904
v -0.09579486 34.55304718 1.47650194
v -0.05126438 34.55622864 1.47370899
v -0.22585063 34.47015381 1.50305998
v -0.19025010 34.49158096 1.47776902
v -0.15148559 34.55058289 1.50246894
v -0.05154534 34.58412170 1.51096296
v -0.25265539 34.44437408 1.53334498
v -0.20111586 34.53140640 1.53295696
v -0.26930779 34.41552353 1.56710601
v -0.23995879 34.49733734 1.56532705
v -0.09828388 34.59093094 1.53624105
v -0.05151734 34.60215759 1.55281401
v -0.15364459 34.57968140 1.56608903
v -0.27492034 34.38612366 1.60264802
v -0.26461521 34.45135880 1.59677601
v -0.20042206 34.55147171 1.59932303
v -0.26968870 34.42364120 1.62943196
v -0.23458536 34.50879669 1.63306499
v -0.05136276 34.60907364 1.59716403
v -0.09495860 34.60464859 1.60374200
v -0.14387517 34.58602142 1.63392496
v -8.47421741 25.42818832 2.43685484
v -8.47421741 25.59370232 2.40960574
v -8.26950169 25.42818832 2.43685484
v -8.26912308 25.59370232 2.40960574
v -8.26735020 26.52141190 2.40379906
v -8.47421741 26.91110039 2.40135980
v -8.26706314 26.91110039 2.40135980
v -8.47421741 27.31851959 2.58869028
v -8.26696205 27.31851959 2.58869028
v -8.47421741 25.11445045 2.72947764
v -8.27078915 25.11445045 2.72947764
v -8.47421741 25.02889633 2.91965675
v -8.27140141 25.02889633 2.91965675
v -8.26243114 24.25936508 3.50000000
v -8.27419281 24.28105354 3.50000000
v -8.47421741 25.08919525 3.50000000
v -8.27266121 25.08919525 3.50000000
v -8.47421741 27.54291153 2.82945275
v -8.26704884 27.54291153 2.82945275
v -8.47421741 27.51118088 3.50000000
v -8.26807022 27.51118088 3.50000000
v -8.26750183 27.88047600 3.50000000
v -8.47421741 28.08058167 3.50000000
v -8.47327805 31.47997284 1.90882146
v -8.27232456 31.47997284 1.90882146
v -8.27239990 31.49264145 1.92241406
v -8.47327805 31.70436478 2.14958477
v -8.14395618 31.70436478 2.14958477
v -8.14894485 31.70431328 2.17198777
v -8.47327805 31.70358467 2.48675203
v -8.14915943 31.70358467 2.48675203
v -8.47327805 34.94998550 2.48675203
v -6.54264021 33.69104004 2.48675203
v -2.23381114 25.42818832 2.43685484
v -2.23384953 25.46247292 2.43121052
v -2.23368168 25.59370232 2.40960574
v -2.02578282 25.42818832 2.43685484
v -2.02578282 25.59370232 2.40960574
v -2.23264885 26.52141380 2.40379906
v -2.23293614 26.91110039 2.40135980
v -2.02578282 26.91110039 2.40135980
v -2.23303819 27.31851959 2.58869028
v -2.02578282 27.31851959 2.58869028
v -2.23340821 25.11445045 2.72947764
v -2.02578282 25.11445045 2.72947764
v -2.23327518 25.02889633 2.91965675
v -2.02578282 25.02889633 2.91965675
v -2.23756790 24.25936508 3.50000000
v -2.22580695 24.28105354 3.50000000
v -2.23238206 24.31994629 3.50000000
v -2.02578282 24.52096367 3.50000000
v -2.23321843 25.08919525 3.50000000
v -2.02578282 25.08919525 3.50000000
v -2.23295093 27.54291153 2.82945275
v -2.02578282 27.54291153 2.82945275
v -2.23246145 27.52142525 3.28351927
v -2.23269892 27.51118279 3.50000000
v -2.02578282 27.51118279 3.50000000
v -2.23241520 27.76750755 3.50000000
v -2.23249769 27.88047600 3.50000000
v -2.02578282 28.08058167 3.50000000
v -4.43355083 31.19485283 1.77772379
v -4.43276644 31.47997284 1.90882146
v -4.22501755 31.47997284 1.90882146
v -4.43215418 31.70436478 2.14958477
v -4.22501755 31.70436478 2.14958477
v -4.43216896 31.70358467 2.48675203
v -4.22501755 31.70358467 2.48675203
v -5.91493750 34.43521118 2.48675203
v -5.72469950 34.66048050 2.48675203
v -5.72164488 34.66419983 2.48675203
v -5.68640184 34.69948578 2.48675203
v -5.68352556 34.70193863 2.48675203
v -5.62644053 34.73334122 2.48675203
v -5.62424946 34.73458862 2.48675203
v -5.62197447 34.73532104 2.48675203
v -5.55158520 34.74456024 2.47480202
v -5.56415796 34.74538803 2.48675203
v -4.43118286 32.05994415 2.48675203
v -4.43113089 32.07874298 2.48675203
v -4.43009996 32.45121384 2.48675203
v -4.42667627 33.68801498 2.48675203
v -4.42502594 34.51762009 2.48675203
v -4.42675114 34.54285049 2.48675203
v -4.42725468 34.54827499 2.48675203
v -4.43411636 34.57960129 2.48675203
v -4.43257380 34.57431793 2.48675203
v -4.43723631 34.58627701 2.48675203
v -4.64837503 34.74455261 2.47480202
v -4.63580704 34.74538040 2.48675203
v -4.51536417 34.70108032 2.48675203
v -4.57300520 34.73291397 2.48675203
v -4.57615614 34.73475647 2.48675203
v -4.44963980 34.61948776 2.48675203
v -4.47457552 34.65989685 2.48675203
v -4.47998810 34.66556168 2.48675203
v -4.22501755 34.94998550 2.48675203
v -0.19864556 31.81429482 2.25386405
v -0.23504066 31.73270798 2.43299294
v -0.06020708 31.92150879 2.01807904
v -0.05015998 31.92190742 2.01710391
v -0.07038042 31.92016411 2.02100396
v -0.10399805 31.90937233 2.04471207
v -0.08049304 31.91794014 2.02587199
v -0.09060071 31.91483498 2.03266907
v -0.12366742 31.89832306 2.06904888
v -0.15222244 31.87562943 2.11920905
v -0.25913262 31.63553047 2.64646292
v -0.26767895 31.52989960 2.87676811
v -0.47493324 31.03491592 3.50000000
v -0.26522762 31.23951912 3.50000000
v -0.26656297 31.23957443 3.50000000
v -0.27028346 32.55534363 3.50000000
v -0.27493021 34.04480362 3.50000000
v -0.47493324 34.80913544 3.50000000
v -0.27492848 34.38607788 3.50000000
v -0.26946151 34.42456055 3.50000000
v -0.26458812 34.45151138 3.50000000
v -0.23423654 34.50904846 3.50000000
v -0.20030767 34.55159378 3.50000000
v -0.14355563 34.58595657 3.50000000
v -0.09481400 34.60468292 3.50000000
v -0.05121560 34.60911179 3.50000000
v 1.02502346 10.04976463 0.50000000
v 1.34600365 11.41407490 0.63967502
v 1.36444771 11.48785782 0.62947100
v 1.35452795 11.54487228 0.64898801
v 1.40835488 11.34269333 0.64487702
v 1.39280164 11.35405064 0.64281398
v 1.42617989 11.43655682 0.61467499
v 1.41586828 11.38757229 0.62507498
v 1.40562642 11.42525387 0.61859900
v 1.43698275 11.48391914 0.61419898
v 1.42409301 11.49965286 0.61723101
v 1.44856596 11.53170586 0.62367201
v 1.40083098 11.54026604 0.63179702
v 1.34007215 11.34511662 0.67015898
v 1.29702437 11.34028625 0.71036500
v 1.29424179 11.40690422 0.67575002
v 1.31000805 11.47959137 0.65709198
v 1.31304896 11.54517841 0.67438197
v 1.26657748 11.47471809 0.69770300
v 1.27853525 11.54130650 0.70670700
v 1.40121460 11.30477905 0.67308903
v 1.39779019 11.27375793 0.70829701
v 1.35225999 11.28915787 0.71399301
v 1.26852632 11.34010696 0.75994802
v 1.35042906 11.26844406 0.75372398
v 1.30804563 11.29432583 0.76166499
v 1.25599289 11.40397549 0.72370201
v 1.23771572 11.47363853 0.74778903
v 1.25251341 11.53342628 0.74434102
v 1.39646864 11.25264549 0.74873501
v 1.27307761 11.32751656 0.77215999
v 1.23467112 11.40607262 0.77937698
v 1.24647069 11.36856651 0.78468198
v 1.23636484 11.52180767 0.78539801
v 1.23002350 11.41454792 0.79860401
v 1.22506022 11.45986557 0.81322700
v 1.22615385 11.47743702 0.80300701
v 1.23101032 11.50764084 0.82781798
v 2.87807178 11.05822945 0.51087600
v 2.90219116 11.08817005 0.50198400
v 2.88798666 11.10730171 0.50047499
v 2.89845371 11.15474129 0.50000000
v 2.91717887 11.16335392 0.50081003
v 2.86896658 11.01370811 0.53067797
v 2.88731122 11.01743031 0.52633202
v 2.95411634 11.05186749 0.51511699
v 2.96740007 11.12681293 0.50526297
v 2.93509245 10.98585701 0.54651397
v 3.00325894 11.02196884 0.54416400
v 3.01706958 11.09509659 0.52564901
v 3.04464650 11.15388393 0.54119599
v 2.90992332 11.20244026 0.50947303
v 2.95734596 11.18922043 0.51082098
v 3.00338030 11.17258549 0.52157497
v 2.86385083 10.97533798 0.55888999
v 2.85954285 10.94451618 0.59409797
v 2.90762019 10.93883228 0.59315801
v 2.97814035 10.96163559 0.58072197
v 3.06050110 11.07065868 0.56020200
v 3.07908154 11.13420773 0.56869900
v 3.04412699 11.00122070 0.58661002
v 2.85826707 10.92339325 0.63453603
v 2.90690327 10.91786766 0.63274801
v 3.01158762 10.94750309 0.62599301
v 2.95701885 10.92291546 0.63425303
v 3.00424242 10.93759155 0.63897401
v 3.04746842 10.96291351 0.64667398
v 3.09407473 11.05540371 0.60593098
v 3.10470271 11.11468124 0.60270500
v 3.07314610 10.99197769 0.63877797
v 3.12129331 11.09508419 0.64150900
v 3.08414364 10.99692822 0.65696698
v 3.11488700 11.05148697 0.65887398
v 3.11039853 11.03548431 0.66933799
v 5.10062599 10.04976463 0.50000000
v 1.66260326 13.20610619 1.36403894
v 1.70036459 13.29193401 1.34652400
v 1.67492509 13.23552513 1.35479295
v 1.76806819 13.43334007 1.34953594
v 1.65649903 13.19028282 1.37181604
v 1.65305245 13.18044853 1.37847495
v 1.65060699 13.17244911 1.38582504
v 1.85821211 13.61265469 1.37634897
v 1.96553123 13.81958580 1.42574799
v 2.08083725 14.03717518 1.49394500
v 1.02502346 18.86560822 0.50000000
v 5.10062599 18.86560822 0.50000000
v 10.00000000 10.00000000 0.00000000
v 10.00000000 12.50000000 0.00000000
v 10.97283649 11.13519478 0.00000000
v 11.00055885 11.08332920 0.00000000
v 11.08332920 11.00055885 0.00000000
v 11.03786755 11.03786755 0.00000000
v 11.13519478 10.97283649 0.00000000
v 11.19147301 10.95576477 0.00000000
v 11.25000000 10.94999981 0.00000000
v 11.30852699 10.95576477 0.00000000
v 10.95576477 11.19147301 0.00000000
v 10.94999981 11.25000000 0.00000000
v 10.95576477 11.30852699 0.00000000
v 10.97283649 11.36480522 0.00000000
v 11.00055885 11.41667080 0.00000000
v 11.03786755 11.46213245 0.00000000
v 11.08332920 11.49944115 0.00000000
v 11.13519478 11.52716351 0.00000000
v 11.19147301 11.54423523 0.00000000
v 11.25000000 11.55000019 0.00000000
v 11.30852699 11.54423523 0.00000000
v 11.36480522 10.97283649 0.00000000
v 11.41667080 11.00055885 0.00000000
v 11.46213245 11.03786755 0.00000000
v 11.49944115 11.08332920 0.00000000
v 11.52716351 11.13519478 0.00000000
v 11.36480522 11.52716351 0.00000000
v 11.41667080 11.49944115 0.00000000
v 11.46213245 11.46213245 0.00000000
v 11.49944115 11.41667080 0.00000000
v 11.54423523 11.19147301 0.00000000
v 11.55000019 11.25000000 0.00000000
v 11.54423523 11.30852699 0.00000000
v 11.52716351 11.36480522 0.00000000
v 12.50000000 10.00000000 0.00000000
v 10.97283649 11.13519478 0.27500001
v 11.00055885 11.08332920 0.27499998
v 11.08332920 11.00055885 0.27500001
v 11.03786755 11.03786755 0.27500001
v 11.13519478 10.97283649 0.27500001
v 11.19147301 10.95576477 0.27500001
v 11.25000000 10.94999981 0.27500001
v 11.30852699 10.95576477 0.27500001
v 10.95576477 11.19147301 0.27500001
v 10.94999981 11.25000000 0.27500001
v 10.95576477 11.30852699 0.27500001
v 10.97283649 11.36480522 0.27500001
v 11.00055885 11.41667080 0.27499998
v 11.03786755 11.46213245 0.27500001
v 11.08332920 11.49944115 0.27500001
v 11.13519478 11.52716351 0.27500001
v 11.19147301 11.54423523 0.27500001
v 11.25000000 11.55000019 0.27500001
v 11.30852699 11.54423523 0.27500001
v 11.36480522 10.97283649 0.27500001
v 11.41667080 11.00055885 0.27500001
v 11.46213245 11.03786755 0.27500001
v 11.49944115 11.08332920 0.27499998
v 11.52716351 11.13519478 0.27500001
v 11.36480522 11.52716351 0.27500001
v 11.41667080 11.49944115 0.27500001
v 11.46213245 11.46213150 0.27500001
v 11.49944115 11.41667080 0.27499998
v 11.54423523 11.19147301 0.27500001
v 11.55000019 11.25000000 0.27500001
v 11.54423523 11.30852699 0.27500001
v 11.52716351 11.36480522 0.27500001
v 12.50000000 12.50000000 0.00000000
v 10.00000000 10.00000000 0.50000000
v 10.73508739 11.14757729 0.50000000
v 10.81347847 10.95832539 0.50000000
v 10.87876892 10.87876892 0.50000000
v 10.76496315 11.04909134 0.50000000
v 10.72500038 11.25000000 0.50000000
v 10.73508739 11.35242271 0.50000000
v 10.76496315 11.45090866 0.50000000
v 10.81347847 11.54167461 0.50000000
v 10.00000000 12.50000000 0.50000000
v 10.87876892 11.62123108 0.50000000
v 11.04909134 10.76496315 0.50000000
v 11.14757729 10.73508739 0.50000000
v 11.25000000 10.72500038 0.50000000
v 11.35242271 10.73508739 0.50000000
v 11.45090866 10.76496315 0.50000000
v 10.95832539 10.81347847 0.50000000
v 11.54167461 10.81347847 0.50000000
v 11.62123108 10.87876892 0.50000000
v 11.68652153 10.95832539 0.50000000
v 11.68652153 11.54167461 0.50000000
v 12.50000000 10.00000000 0.50000000
v 11.73503685 11.04909134 0.50000000
v 11.76491261 11.14757729 0.50000000
v 11.77499962 11.25000000 0.50000000
v 11.76491261 11.35242271 0.50000000
v 11.73503685 11.45090866 0.50000000
v 10.95832539 11.68652153 0.50000000
v 11.04909134 11.73503685 0.50000000
v 11.14757729 11.76491261 0.50000000
v 11.25000000 11.77499962 0.50000000
v 11.45090866 11.73503685 0.50000000
v 11.35242271 11.76491261 0.50000000
v 11.54167461 11.68652153 0.50000000
v 11.62123108 11.62123108 0.50000000
v 12.50000000 12.50000000 0.50000000
v 2.85826707 10.26601028 2.52372789
v 2.90690327 10.26049995 2.52194095
v 2.85957146 10.25518990 2.56736708
v 2.90763402 10.24991798 2.56468511
v 2.95701885 10.26524925 2.52344489
v 3.00424218 10.28061008 2.52816606
v 3.04746819 10.30539417 2.53586602
v 3.01158762 10.27908325 2.54350996
v 3.08414388 10.33954334 2.54615998
v 3.07314181 10.32288551 2.55795002
v 3.11039853 10.37821293 2.55853009
v 2.97803283 10.25930214 2.58711600
v 3.11484122 10.38345337 2.57563090
v 3.04389715 10.29418564 2.60432506
v 3.09432745 10.35024929 2.61929703
v 2.78396392 15.42021561 1.97463596
v 1.02502346 16.04991722 2.55708814
v 1.02502346 16.09484482 2.54969168
v 2.22114515 15.92933083 2.57694077
v 2.39088035 16.09484482 2.54969168
v 2.34895372 15.92933083 2.57694077
v 4.70269537 14.97308826 1.82148600
v 4.77934933 16.09484482 2.54969168
v 4.77108383 15.92933083 2.57694077
v 5.10062599 16.09484482 2.54969168
v 5.10062599 15.92933083 2.57694077
v 1.30804563 10.63666058 2.65085697
v 1.35042882 10.61107635 2.64291596
v 1.26857221 10.67167568 2.67746496
v 1.24646986 10.71109009 2.67387390
v 1.27307785 10.67053318 2.66135192
v 1.39646876 10.59526253 2.63792706
v 1.23006201 10.75709820 2.68779612
v 1.23482883 10.73644638 2.69854903
v 1.35223329 10.60027885 2.68551993
v 1.29730415 10.63759995 2.71675897
v 1.39781213 10.58444118 2.68156600
v 1.22504163 10.80248356 2.70241904
v 1.02502346 10.04976463 3.40122390
v 1.26844501 10.67181873 3.40122390
v 1.24652493 10.71092415 3.40122390
v 1.23480499 10.73655796 3.40122390
v 1.23003125 10.75726223 3.40122390
v 1.29724085 10.63769817 3.40122390
v 1.35225499 10.60024452 3.40122390
v 1.39784038 10.58439922 3.40122390
v 1.22504234 10.80258942 3.40122390
v 1.22502863 11.46120644 3.40122390
v 1.22610545 11.47815323 3.40122390
v 1.23093009 11.50720596 3.40122390
v 2.85960054 10.25514412 3.40122390
v 2.90761495 10.24987507 3.40122390
v 2.97806740 10.25931358 3.40122390
v 3.04396105 10.29427910 3.40122390
v 3.07328629 10.32299423 3.40122390
v 3.09427047 10.35031319 3.40122390
v 3.11484551 10.38344574 3.40122390
v 1.02502346 15.68955708 2.80057621
v 1.02502346 15.61559296 2.86956263
v 1.02502346 15.59556675 2.91408014
v 2.26947999 15.61559296 2.86956263
v 2.23232794 15.53003979 3.05974293
v 2.24780822 15.53003979 3.05974293
v 1.02502346 15.59974289 3.40122390
v 1.40002799 15.57900143 3.40122390
v 1.65057421 13.17233181 3.40122390
v 2.26010895 15.57860279 3.40122390
v 5.10062599 10.04976463 3.40122390
v 4.76086378 15.61559296 2.86956263
v 5.10062599 15.61559296 2.86956263
v 4.76057196 15.53003979 3.05974293
v 5.10062599 15.53003979 3.05974293
v 4.52339792 13.91379261 3.40122390
v 4.70857763 14.41720963 3.40122390
v 4.77084208 15.57860184 3.40122390
v 5.10062599 15.57860184 3.40122390
v 1.02502346 17.41224289 2.54144478
v 2.49703741 16.51406288 2.54706740
v 2.50650477 16.54918480 2.54684734
v 2.51663041 16.58494949 2.54662347
v 2.52081561 16.59848976 2.54653859
v 2.54378843 16.66530418 2.54612064
v 2.55714774 16.70127487 2.54589534
v 2.56783509 16.72834778 2.54572582
v 2.60283446 16.80413055 2.54525161
v 2.61720014 16.83363342 2.54506683
v 2.62420607 16.84705353 2.54498291
v 2.65326166 16.89583397 2.54467750
v 2.67522693 16.92946243 2.54446697
v 2.66363120 16.91208267 2.54457569
v 2.68607903 16.94416618 2.54437494
v 2.71486425 16.97975922 2.54415226
v 2.72735763 16.99255180 2.54407191
v 2.73557353 17.00061989 2.54402137
v 2.75767612 17.01932716 2.54390430
v 2.78863740 17.04249382 2.54375958
v 2.79283071 17.04445457 2.54374719
v 2.80407715 17.04918289 2.54371762
v 2.81963873 17.05331421 2.54369164
v 2.84706235 17.05865288 2.54365826
v 2.84653282 17.05873871 2.54365778
v 3.01249623 17.05845451 2.54365945
v 3.91135573 17.05790901 2.54366279
v 4.81271696 16.71832848 2.54578876
v 4.81240129 16.79862022 2.54528594
v 4.77475262 16.96568489 2.54424047
v 4.75063086 17.01158905 2.54395294
v 4.79985142 16.88856506 2.54472303
v 4.79235458 16.90925407 2.54459333
v 4.69235706 17.05571747 2.54367661
v 4.72245836 17.04251671 2.54375935
v 5.10062599 17.41224289 2.54144478
v 1.02502346 17.81966209 2.72877645
v 1.02502346 18.04383850 2.96930671
v 3.01687074 17.93615150 2.85376525
v 3.00573754 17.94181061 2.85983706
v 3.03494024 17.93227768 2.84960866
v 3.02923059 17.93309975 2.85048914
v 3.06725764 17.92888069 2.84596324
v 2.97769690 17.95711517 2.87625670
v 2.98404074 17.95327187 2.87213278
v 2.96592832 17.96657562 2.88640690
v 2.94579363 17.98931313 2.91080260
v 2.94397831 17.99175644 2.91342616
v 2.93963671 17.99953270 2.92176843
v 2.93095446 18.01754761 2.94109774
v 2.92253971 18.03661156 2.96155381
v 2.92196918 18.03851891 2.96359944
v 2.92105222 18.04255676 2.96793175
v 2.92080379 18.04405403 2.96953869
v 2.91255116 18.04313469 2.98309612
v 2.90249038 18.04203606 2.99930739
v 2.89937449 18.04171371 3.00405025
v 2.89471436 18.04086494 3.01656246
v 2.88939047 18.03971672 3.03349304
v 2.88516188 18.03869629 3.04855824
v 2.88495731 18.03861809 3.04970121
v 2.88409972 18.03804016 3.05821443
v 1.02502346 18.01478195 3.40122390
v 1.02502346 18.86560822 3.40122390
v 2.88265228 18.03635025 3.08312964
v 2.88120937 18.03065300 3.16714358
v 3.12271547 18.53000259 3.07524705
v 3.11354089 18.54677200 3.08763504
v 3.08034706 18.53078270 3.10064197
v 3.04529929 18.52609634 3.13296604
v 3.05520272 18.54278946 3.13260889
v 3.01985216 18.51897621 3.17059994
v 3.05680799 18.58214188 3.17509508
v 3.00353265 18.50659752 3.21165705
v 3.02002907 18.54935074 3.22608399
v 2.99808645 18.49193764 3.25407791
v 3.11069727 18.59459496 3.12715292
v 3.11723614 18.63014030 3.17642903
v 3.06711841 18.60826111 3.22487807
v 2.87873983 18.02078056 3.31274343
v 2.87721968 18.01478004 3.40122390
v 2.93513346 18.24340630 3.40122390
v 2.96340442 18.35504913 3.40122390
v 2.99808788 18.49193764 3.40122390
v 2.99835205 18.49267769 3.40122390
v 3.00133991 18.50072479 3.40122390
v 3.00352693 18.50661469 3.40122390
v 3.01436973 18.53470230 3.40122390
v 3.02002096 18.54934883 3.40122390
v 3.06710911 18.60826111 3.40122390
v 3.16727448 18.52506447 3.05805612
v 3.21582627 18.51603317 3.04993200
v 3.18327475 18.53785133 3.06037402
v 4.51124048 17.92932701 2.84644175
v 4.68675518 18.18428612 2.93502903
v 4.68705273 18.19452667 2.93854308
v 5.10062599 17.81966209 2.72877645
v 4.68801975 17.92956734 2.84670091
v 4.73101759 17.93876457 2.85656857
v 4.77295685 17.96101189 2.88043976
v 4.81200981 17.99596786 2.91794467
v 4.73325443 18.17295265 2.93830490
v 4.77758455 18.15780258 2.95018411
v 4.68752766 18.20476913 2.94249606
v 4.68777227 18.21134949 2.94539309
v 4.68779230 18.21483994 2.94688106
v 4.68773651 18.22528076 2.95168710
v 4.84483051 18.04244423 2.96781063
v 4.84611702 18.04405403 2.96953869
v 4.81723022 18.14032555 2.97030592
v 4.85842085 18.04329491 2.98072147
v 4.81777620 18.20257378 2.99195790
v 4.84853888 18.12252998 2.99772096
v 4.86464214 18.16595078 3.02703309
v 4.88697004 18.03946114 3.03726411
v 4.69869375 18.26400375 2.97877407
v 4.75617552 18.22724342 2.96825695
v 4.72261381 18.28531265 3.00393796
v 4.70870924 18.29673767 3.01349711
v 4.78836203 18.26817131 3.02103400
v 4.71707916 18.31840324 3.05403996
v 4.84379816 18.23661613 3.05099106
v 5.10062599 18.04405403 2.96953869
v 3.22685647 18.55927086 3.06887698
v 3.17661047 18.58869171 3.09220290
v 3.23753667 18.59752846 3.09634709
v 3.17902112 18.62957191 3.13511705
v 3.24717951 18.62790871 3.13096189
v 3.25540996 18.64886284 3.17098689
v 3.18937778 18.65594101 3.18540311
v 3.26186490 18.65946770 3.21441507
v 3.13215923 18.64918518 3.23119712
v 3.20698380 18.66560936 3.23870611
v 3.26596999 18.65926552 3.25906801
v 3.13215446 18.64918709 3.40122390
v 3.20697665 18.66560936 3.40122390
v 3.26597357 18.65925789 3.40122390
v 4.88154411 18.19437408 3.09066701
v 4.89190245 18.12154007 3.06980705
v 4.89576626 18.03571320 3.09252405
v 4.87931681 18.20311737 3.15256095
v 4.90054989 18.11159515 3.12401605
v 4.89542770 18.15793419 3.13863993
v 4.74869394 18.31383514 3.06435800
v 4.80425739 18.29160881 3.08600497
v 4.72380257 18.32993698 3.09827805
v 4.72684765 18.33035088 3.14389706
v 4.75709963 18.32178688 3.13137698
v 4.84713125 18.25758934 3.11804008
v 4.79737473 18.29899406 3.15315700
v 4.87930870 18.20311928 3.40122390
v 4.90060377 18.01499748 3.39802456
v 4.90060377 18.01478004 3.40122390
v 4.90055418 18.11161423 3.40122390
v 4.89542484 18.15794754 3.40122390
v 4.72690773 18.33032036 3.40122390
v 4.75708055 18.32179260 3.40122390
v 4.79734039 18.29900169 3.40122390
v 4.84712267 18.25760841 3.40122390
v 5.10062599 18.01478195 3.40122390
v 5.10062599 18.86560822 3.40122390
v 0.03314240 22.78911209 0.50000000
v 0.23556624 23.95067215 0.50000000
v 0.03314240 26.08508873 0.50000000
v 3.92506480 28.31297684 0.50000000
v 0.23511985 25.88305092 1.10352695
v 2.37493324 31.03491592 0.50000000
v 1.95187175 33.13026810 0.50623298
v 1.95187175 33.18012238 0.50000000
v 1.95171499 33.23030090 0.50379199
v 1.95171499 33.08320236 0.52217799
v 1.95138454 33.27825928 0.51741898
v 1.95136654 33.32057190 0.54019803
v 2.02037883 33.15655899 0.51178199
v 2.01512122 33.21957397 0.51073200
v 2.01512122 33.09566879 0.52622300
v 2.08131909 33.12851334 0.54586202
v 2.08131909 33.19407654 0.53767198
v 1.99962187 33.27889252 0.52315998
v 2.00005555 33.31728745 0.54420203
v 2.07011485 33.25848770 0.54368597
v 1.95138454 33.04131699 0.54703599
v 1.95136392 33.00749588 0.57956100
v 1.99962199 33.04245758 0.55280000
v 2.00005603 33.01190567 0.58257902
v 2.04749894 33.02533340 0.59148097
v 2.09040308 33.04685211 0.60582101
v 2.07011485 33.06839371 0.56754798
v 2.12675834 33.10794067 0.59809202
v 2.13221383 33.16793060 0.58379602
v 2.12675834 33.22991562 0.58275598
v 2.04749823 33.30707169 0.55601501
v 2.09040356 33.29086304 0.57504499
v 2.12579679 33.26975632 0.60033602
v 2.12580061 33.07497025 0.62487900
v 2.15260744 33.10906219 0.64770103
v 2.16272378 33.20253754 0.63701999
v 2.16272378 33.15100861 0.64358002
v 2.15260983 33.24402237 0.63062102
v 2.16940451 33.21530151 0.66438198
v 2.16940475 33.14728546 0.67314100
v 2.17492175 33.18602753 0.69992501
v 2.37493324 34.80913544 0.50000000
v 4.27683067 30.69818306 0.50445801
v 4.21859837 30.63679886 0.52826703
v 4.34837484 30.77070618 0.50000000
v 4.17976809 30.59397697 0.55975503
v 4.15537643 30.56724930 0.59183401
v 4.13700962 30.55289268 0.62455702
v 4.12789822 30.54917717 0.65042800
v 4.27683067 31.73838425 0.61648703
v 4.21859837 31.79278183 0.65206599
v 4.34837484 31.66865540 0.59734702
v 4.12506485 30.54798126 0.67719400
v 4.17976809 31.82716370 0.69126701
v 4.15566206 31.84692383 0.72802299
v 4.14089298 31.85739517 0.76357698
v 4.13437843 31.86026955 0.79064000
v 4.12817001 31.85371780 0.81780601
v 5.32316923 30.69818306 0.50445801
v 5.38140154 30.63679886 0.52826703
v 5.25162506 30.77070618 0.50000000
v 5.41867781 30.59389305 0.55975503
v 5.43068695 30.55965233 0.59183401
v 5.25162506 31.66865540 0.59734702
v 5.32316923 31.73838425 0.61648703
v 5.38140154 31.79278183 0.65206599
v 5.41904593 31.82755470 0.69126701
v 5.44107151 31.84901237 0.72802299
v 5.45322990 31.86145020 0.76357698
v 5.45710611 31.86582184 0.79064000
v 5.46313477 31.86281395 0.81780601
v 3.92506480 32.06678772 0.50000000
v 1.95136750 34.52070999 1.44292104
v 1.95126438 34.55622864 1.47370899
v 1.95154536 34.58412170 1.51096296
v 2.00011945 34.51734161 1.44692600
v 2.04761887 34.50758743 1.45873904
v 1.99579489 34.55304718 1.47650194
v 2.09024954 34.49158096 1.47776902
v 2.12585044 34.47015381 1.50305998
v 2.05148554 34.55058289 1.50246894
v 1.95151734 34.60215759 1.55281401
v 1.95136273 34.60907364 1.59716403
v 1.99828386 34.59093094 1.53624105
v 2.10111594 34.53140640 1.53295696
v 2.13995886 34.49733734 1.56532705
v 2.05364466 34.57968140 1.56608903
v 2.15265536 34.44437408 1.53334498
v 2.16930771 34.41552353 1.56710601
v 1.99495864 34.60464859 1.60374200
v 2.10042214 34.55147171 1.59932303
v 2.04387522 34.58602142 1.63392496
v 2.13458538 34.50879669 1.63306499
v 2.17492032 34.38612366 1.60264802
v 2.16461515 34.45135880 1.59677601
v 2.16968870 34.42364120 1.62943196
v 8.46685791 22.78911209 0.50000000
v 8.26443386 23.95067215 0.50000000
v 8.46685791 26.08508873 0.50000000
v 8.17184353 28.31297684 0.50000000
v 8.26488018 25.88305092 1.10352695
v 8.17184353 32.06678772 0.50000000
v 10.00000000 32.50000000 0.00000000
v 10.00000000 35.00000000 0.00000000
v 12.50000000 32.50000000 0.00000000
v 11.00055885 33.58332825 0.00000000
v 11.08332920 33.50056076 0.00000000
v 11.03786755 33.53786850 0.00000000
v 10.97283649 33.63519669 0.00000000
v 10.95576477 33.69147110 0.00000000
v 10.94999981 33.75000000 0.00000000
v 10.95576477 33.80852890 0.00000000
v 11.13519478 33.47283554 0.00000000
v 11.19147301 33.45576477 0.00000000
v 11.25000000 33.45000076 0.00000000
v 11.30852699 33.45576477 0.00000000
v 10.97283649 33.86480331 0.00000000
v 11.00055885 33.91667175 0.00000000
v 11.03786755 33.96213150 0.00000000
v 11.08332920 33.99943924 0.00000000
v 11.13519478 34.02716446 0.00000000
v 11.19147301 34.04423523 0.00000000
v 11.25000000 34.04999924 0.00000000
v 11.30852699 34.04423523 0.00000000
v 11.36480522 33.47283554 0.00000000
v 11.41667080 33.50056076 0.00000000
v 11.46213245 33.53786850 0.00000000
v 11.49944115 33.58332825 0.00000000
v 11.52716351 33.63519669 0.00000000
v 11.54423523 33.69147110 0.00000000
v 11.55000019 33.75000000 0.00000000
v 11.54423523 33.80852890 0.00000000
v 11.41667080 33.99943924 0.00000000
v 11.49944115 33.91667175 0.00000000
v 11.46213245 33.96213150 0.00000000
v 11.36480522 34.02716446 0.00000000
v 11.52716351 33.86480331 0.00000000
v 12.50000000 35.00000000 0.00000000
v 11.00055885 33.58332825 0.27499998
v 11.08332920 33.50056076 0.27500001
v 11.03786755 33.53786850 0.27500001
v 10.97283649 33.63519669 0.27500001
v 10.95576477 33.69147110 0.27500001
v 10.94999981 33.75000000 0.27500001
v 10.95576477 33.80852890 0.27500001
v 11.13519478 33.47283554 0.27500001
v 11.19147301 33.45576477 0.27500001
v 11.25000000 33.45000076 0.27500001
v 11.30852699 33.45576477 0.27500001
v 10.97283649 33.86480331 0.27500001
v 11.00055885 33.91667175 0.27499998
v 11.03786755 33.96213150 0.27500001
v 11.08332920 33.99943924 0.27500001
v 11.13519478 34.02716446 0.27500001
v 11.19147301 34.04423523 0.27500001
v 11.25000000 34.04999924 0.27500001
v 11.30852699 34.04423523 0.27500001
v 11.36480522 33.47283554 0.27500001
v 11.41667080 33.50056076 0.27500001
v 11.46213245 33.53786850 0.27500001
v 11.49944115 33.58332825 0.27499998
v 11.52716351 33.63519669 0.27500001
v 11.54423523 33.69147110 0.27500001
v 11.55000019 33.75000000 0.27500001
v 11.54423523 33.80852890 0.27500001
v 11.41667080 33.99943924 0.27500001
v 11.49944115 33.91667175 0.27499998
v 11.46213245 33.96213150 0.27500001
v 11.36480522 34.02716446 0.27500001
v 11.52716351 33.86480331 0.27500001
v 10.00000000 32.50000000 0.50000000
v 10.87876892 33.37876892 0.50000000
v 10.00000000 35.00000000 0.50000000
v 10.73508739 33.64757919 0.50000000
v 10.72500038 33.75000000 0.50000000
v 10.81347847 33.45832443 0.50000000
v 10.76496315 33.54909134 0.50000000
v 10.73508739 33.85242081 0.50000000
v 10.76496315 33.95090866 0.50000000
v 10.81347847 34.04167557 0.50000000
v 10.87876892 34.12123108 0.50000000
v 10.95832539 33.31347656 0.50000000
v 11.04909134 33.26496506 0.50000000
v 11.14757729 33.23508835 0.50000000
v 11.25000000 33.22499847 0.50000000
v 11.35242271 33.23508835 0.50000000
v 11.45090866 33.26496506 0.50000000
v 11.54167461 33.31347656 0.50000000
v 11.62123108 33.37876892 0.50000000
v 12.50000000 32.50000000 0.50000000
v 10.95832539 34.18652344 0.50000000
v 11.68652153 33.45832443 0.50000000
v 11.54167461 34.18652344 0.50000000
v 11.68652153 34.04167557 0.50000000
v 11.62123108 34.12123108 0.50000000
v 11.04909134 34.23503494 0.50000000
v 11.14757729 34.26491165 0.50000000
v 11.25000000 34.27500153 0.50000000
v 11.35242271 34.26491165 0.50000000
v 11.45090866 34.23503494 0.50000000
v 11.73503685 33.54909134 0.50000000
v 11.76491261 33.64757919 0.50000000
v 11.77499962 33.75000000 0.50000000
v 11.76491261 33.85242081 0.50000000
v 11.73503685 33.95090866 0.50000000
v 12.50000000 35.00000000 0.50000000
v 1.75000000 23.48359680 1.93007398
v 0.03314240 25.58580399 2.53612638
v 0.03314240 25.67882538 2.53852320
v 0.03314240 26.08508873 2.52940965
v 0.03314240 25.21318436 2.94664764
v 0.03314240 22.78911209 3.50000000
v 0.23315045 22.99230766 3.50000000
v 0.24274321 22.99224281 3.50000000
v 0.03314240 25.11880302 3.09521723
v 0.23378830 25.54928970 3.12103963
v 0.23362155 25.37804031 3.30925536
v 0.03314240 25.11751938 3.50000000
v 0.16602916 25.12362099 3.50000000
v 0.23345968 25.25654602 3.50000000
v 0.23378876 25.88442230 3.12967587
v 0.24028060 26.08508873 3.15380168
v 0.36061674 25.88467216 3.50000000
v 0.35884815 26.08508873 3.50000000
v 4.13370085 28.53866196 3.27689004
v 3.92506480 28.31297684 3.50000000
v 4.13266850 28.51408005 3.50000000
v 4.13260555 28.52538681 3.50000000
v 4.29710388 28.51417542 3.50000000
v 2.05424356 31.87400436 2.12295294
v 2.10890722 31.79671097 2.29298592
v 2.15215015 31.67365837 2.56329203
v 1.95015836 31.92190933 2.01710391
v 1.96012449 31.92151260 2.01806307
v 1.97029531 31.92021561 2.02094102
v 1.98369634 31.91713142 2.02771807
v 2.00137234 31.91065979 2.04195189
v 2.02434444 31.89789581 2.07000589
v 1.90829968 31.03491592 3.05353594
v 2.16767931 31.52990532 2.87676811
v 1.90609312 31.44618225 3.05096149
v 2.10033607 31.44618797 3.05096173
v 2.10991979 31.44618797 3.05096149
v 2.15956521 31.44765854 3.05095243
v 2.15900207 31.44764137 3.05095243
v 2.16731977 31.44875908 3.05094552
v 2.37493324 31.03491592 3.05353618
v 2.37493324 31.36268425 3.05148435
v 1.84134769 31.03491592 3.24655581
v 1.74643791 31.03491592 3.50000000
v 1.82624626 31.33916283 3.28348207
v 1.79246938 31.29389572 3.38184285
v 1.74784732 31.23951912 3.50000000
v 2.16884017 31.98719406 3.04757500
v 2.37493324 31.98719406 3.04757500
v 2.16987467 32.39461517 3.23490667
v 2.37493324 32.39461517 3.23490667
v 2.17018032 32.53050995 3.50000000
v 2.37493324 32.53050995 3.50000000
v 1.95121551 34.60911179 3.50000000
v 1.99481404 34.60468292 3.50000000
v 2.04355574 34.58595657 3.50000000
v 2.13423657 34.50904846 3.50000000
v 2.10030770 34.55159378 3.50000000
v 2.17492843 34.38607788 3.50000000
v 2.16946149 34.42456055 3.50000000
v 2.16458821 34.45151138 3.50000000
v 2.37493324 34.80913544 3.50000000
v 3.92506480 30.66979408 3.05582166
v 4.13106680 30.66979408 3.05582166
v 4.13100624 31.73964119 3.04912472
v 4.13138723 31.85789871 3.04838419
v 4.14263391 31.86515999 3.04833889
v 4.14157200 31.86404610 3.04834580
v 4.14104319 31.86349106 3.04834938
v 4.47323275 31.86654663 3.04833031
v 5.45523739 31.86654663 3.04833031
v 5.45846605 31.86484528 3.04834080
v 3.92506480 30.19054413 3.37569261
v 4.13157845 30.19054413 3.37569261
v 3.92506480 30.20255470 3.50000000
v 4.13169336 30.20255470 3.50000000
v 3.92506480 30.50427818 3.08307266
v 4.13112116 30.50427818 3.08307266
v 4.13110256 30.53048897 3.07875729
v 3.92506480 31.98719406 3.04757500
v 3.92506480 32.06678772 3.08417177
v 6.75000000 23.48359680 1.93007398
v 8.46685791 22.78911209 3.50000000
v 8.25725651 22.99224281 3.50000000
v 8.26684952 22.99230766 3.50000000
v 8.26684856 23.00113869 3.50000000
v 8.26468277 24.60433769 3.50000000
v 8.26488018 25.54412651 3.50000000
v 8.26645374 25.88467216 3.50000000
v 8.46685791 26.08508873 3.50000000
v 7.96685886 28.54091644 3.27689004
v 8.17184353 28.31297684 3.50000000
v 7.96735573 28.51417542 3.50000000
v 7.96717119 28.66095543 3.50000000
v 6.45457983 31.22897720 3.05232120
v 7.32699490 30.66979408 3.05582166
v 7.37630177 30.63819504 3.06102419
v 7.68974113 30.66979408 3.05582166
v 7.65601969 30.45900536 3.19651103
v 7.73947716 30.40572166 3.48228264
v 7.74180937 30.40423965 3.50000000
v 7.76048803 30.44148827 3.50000000
v 7.97184372 30.25676727 3.46076703
v 7.97183704 30.25679970 3.50000000
v 7.85602617 30.67718697 3.50000000
v 7.85021973 31.52008438 3.50000000
v 7.85243797 31.81439209 3.50000000
v 7.69680929 31.98719406 3.04757500
v 7.69196129 32.06678772 3.08417201
v 7.72659922 32.06678772 3.18260550
v 7.85944223 31.98668671 3.50000000
v 7.84060907 32.06678772 3.50000000
v 8.17184353 32.06678772 3.50000000
f 576 575 706
f 732 536 541
f 731 543 542
f 534 543 730
f 535 536 729
f 522 562 717
f 523 522 595
f 523 594 514
f 583 584 714
f 582 710 584
f 580 711 582
f 577 711 580
f 577 574 708
f 709 574 576
f 541 534 730
f 575 573 706
f 573 572 702
f 544 590 591
f 592 544 591
f 544 586 590
f 586 544 588
f 588 539 587
f 544 592 548
f 544 539 588
f 539 530 587
f 530 528 589
f 528 514 593
f 795 514 594
f 723 581 583
f 723 578 581
f 579 578 723
f 723 570 579
f 723 561 570
f 564 561 723
f 723 563 564
f 562 563 723
f 801 522 717
f 785 588 587
f 595 522 801
f 799 523 595
f 594 523 798
f 585 511 666
f 790 528 593
f 787 530 589
f 587 530 787
f 593 514 795
f 589 528 790
f 596 511 778
f 572 540 733
f 750 547 548
f 546 547 750
f 734 545 546
f 542 545 734
f 540 535 733
f 557 556 560
f 565 567 558
f 572 566 532
f 566 565 532
f 565 554 515
f 554 555 515
f 555 549 518
f 553 563 562
f 561 560 569
f 564 560 561
f 560 559 569
f 556 558 559
f 560 556 559
f 564 557 560
f 567 565 566
f 563 557 564
f 550 556 557
f 553 557 563
f 558 555 565
f 555 554 565
f 556 555 558
f 553 551 557
f 551 553 552
f 551 550 557
f 556 549 555
f 549 556 550
f 562 522 553
f 568 567 575
f 102 598 666
f 598 67 599
f 584 583 582
f 532 540 572
f 583 578 582
f 581 578 583
f 578 580 582
f 580 571 577
f 578 571 580
f 574 575 576
f 571 574 577
f 574 568 575
f 511 585 769
f 575 567 573
f 567 572 573
f 567 566 572
f 579 569 578
f 570 569 579
f 569 571 578
f 561 569 570
f 569 559 571
f 559 568 571
f 559 558 568
f 568 574 571
f 558 567 568
f 924 934 933
f 925 922 927
f 917 892 937
f 919 917 929
f 931 920 919
f 932 918 920
f 934 924 925
f 936 927 926
f 936 926 918
f 934 925 927
f 931 919 929
f 937 929 917
f 920 931 932
f 918 932 928
f 926 915 918
f 927 935 934
f 927 936 935
f 918 928 936
f 929 930 931
f 930 929 937
f 931 930 937
f 933 934 938
f 932 931 938
f 938 931 937
f 934 935 938
f 938 935 936
f 936 928 938
f 919 892 917
f 905 896 898
f 898 923 906
f 908 923 924
f 912 909 910
f 910 911 913
f 913 912 910
f 913 911 914
f 938 913 914
f 924 933 914
f 938 914 933
f 915 891 916
f 916 892 919
f 928 932 938
f 915 916 920
f 920 916 919
f 888 900 937
f 892 888 937
f 915 920 918
f 923 898 921
f 922 899 926
f 926 899 915
f 925 921 922
f 923 921 925
f 924 923 925
f 922 926 927
f 955 951 954
f 950 318 949
f 960 959 319
f 318 950 1011
f 953 945 948
f 953 951 945
f 952 947 946
f 946 945 951
f 951 952 946
f 951 953 954
f 948 961 953
f 961 948 959
f 952 951 955
f 954 953 965
f 309 947 949
f 958 952 955
f 666 1035 585
f 597 596 938
f 1035 596 597
f 1035 597 585
f 599 67 1041
f 114 1035 939
f 596 1035 113
f 114 113 1035
f 562 723 717
f 769 585 597
f 723 583 714
f 941 944 304
f 941 942 944
f 940 1036 1039
f 67 1042 1041
f 1038 942 941
f 941 1037 1038
f 941 939 1148
f 1039 943 940
f 1154 940 943
f 1150 939 1035
f 1226 940 1145
f 940 1226 1036
f 941 1234 1037
f 520 552 553
f 980 944 942
f 948 307 313
f 308 307 945
f 309 308 947
f 948 313 319
f 315 309 949
f 318 315 949
f 319 324 960
f 307 948 945
f 308 945 946
f 308 946 947
f 959 948 319
f 358 473 359
f 481 482 359
f 481 359 475
f 359 473 475
f 474 473 358
f 474 357 472
f 471 356 470
f 357 471 472
f 483 478 361
f 356 469 470
f 356 468 469
f 476 363 362
f 360 482 361
f 361 479 362
f 483 361 482
f 359 482 360
f 357 474 358
f 356 471 357
f 476 464 355
f 464 463 354
f 463 462 354
f 462 461 353
f 461 460 352
f 460 459 352
f 459 458 351
f 458 457 351
f 456 350 457
f 468 467 455
f 482 481 484
f 484 481 475
f 484 474 472
f 484 473 474
f 473 484 475
f 471 484 472
f 470 484 471
f 484 478 483
f 479 478 484
f 477 476 480
f 470 455 484
f 455 470 469
f 469 468 455
f 355 363 476
f 466 455 467
f 484 455 453
f 467 452 466
f 450 467 468
f 477 465 476
f 476 465 464
f 465 463 464
f 477 484 419
f 465 477 419
f 480 362 479
f 480 476 362
f 478 479 361
f 179 424 432
f 434 439 440
f 434 440 438
f 437 438 439
f 437 436 438
f 436 435 438
f 439 433 437
f 439 434 433
f 179 438 435
f 179 432 438
f 432 434 438
f 432 433 434
f 432 431 433
f 432 424 431
f 439 438 440
f 448 410 447
f 298 446 447
f 448 445 299
f 441 446 298
f 445 442 299
f 430 429 427
f 427 428 430
f 428 423 425
f 427 426 428
f 426 423 428
f 442 430 299
f 298 429 441
f 449 451 450
f 354 355 464
f 353 354 462
f 352 353 461
f 351 352 459
f 350 351 457
f 466 454 455
f 454 452 455
f 452 454 466
f 452 453 455
f 450 452 467
f 450 451 453
f 452 450 453
f 484 483 482
f 451 347 348
f 347 451 449
f 444 445 448
f 446 448 447
f 446 444 448
f 446 443 444
f 444 443 445
f 441 443 446
f 443 441 445
f 441 442 445
f 429 442 441
f 429 430 442
f 512 526 524
f 540 533 535
f 533 536 535
f 536 525 534
f 525 536 533
f 525 537 534
f 531 533 532
f 531 516 524
f 529 527 530
f 537 526 529
f 525 526 537
f 527 528 530
f 514 528 527
f 526 527 529
f 536 534 541
f 526 512 527
f 533 524 525
f 533 531 524
f 526 525 524
f 513 523 514
f 512 519 513
f 518 512 516
f 522 523 521
f 521 517 520
f 513 521 523
f 513 517 521
f 519 517 513
f 547 544 548
f 520 551 552
f 550 551 519
f 519 549 550
f 565 531 532
f 515 531 565
f 555 516 515
f 522 521 553
f 521 520 553
f 517 519 551
f 520 517 551
f 549 519 518
f 518 516 555
f 519 512 518
f 545 547 546
f 547 538 544
f 545 538 547
f 542 538 545
f 533 540 532
f 539 544 538
f 537 542 543
f 534 537 543
f 537 538 542
f 538 529 539
f 529 530 539
f 537 529 538
f 341 501 496
f 499 496 500
f 498 486 499
f 486 496 499
f 489 486 498
f 486 495 496
f 386 509 387
f 507 382 387
f 382 507 384
f 505 381 384
f 380 383 504
f 386 385 510
f 381 505 383
f 497 502 304
f 497 498 499
f 341 380 501
f 490 493 494
f 494 492 490
f 492 489 491
f 340 496 495
f 335 495 486
f 486 485 334
f 492 485 486
f 486 489 492
f 485 492 494
f 484 480 479
f 484 477 480
f 497 501 503
f 516 531 515
f 527 513 514
f 512 524 516
f 527 512 513
f 511 105 666
f 502 509 510
f 502 508 509
f 502 507 508
f 502 506 507
f 502 505 506
f 502 504 505
f 502 503 504
f 911 910 908
f 502 497 503
f 500 496 501
f 500 501 497
f 508 387 509
f 507 387 508
f 509 386 510
f 506 384 507
f 505 384 506
f 504 383 505
f 503 380 504
f 501 380 503
f 497 499 500
f 769 726 727
f 773 776 777
f 776 775 777
f 776 772 775
f 773 772 776
f 775 769 777
f 777 769 773
f 771 773 769
f 771 772 773
f 771 770 772
f 727 770 771
f 727 725 770
f 772 723 775
f 769 727 771
f 778 814 596
f 723 774 775
f 774 769 775
f 774 758 769
f 758 757 769
f 757 756 769
f 756 755 769
f 755 754 769
f 754 753 769
f 714 758 774
f 768 763 766
f 766 767 768
f 768 767 764
f 778 787 788
f 797 778 796
f 778 795 796
f 778 794 795
f 778 793 794
f 778 802 803
f 778 800 802
f 778 799 800
f 778 792 793
f 778 790 792
f 791 790 778
f 778 789 791
f 778 788 789
f 787 778 786
f 764 763 768
f 778 785 786
f 778 784 785
f 778 783 784
f 778 782 783
f 778 781 782
f 778 780 781
f 778 779 780
f 778 721 779
f 717 803 801
f 815 841 596
f 719 721 778
f 814 815 596
f 742 735 743
f 746 740 747
f 745 740 746
f 741 740 745
f 742 740 741
f 743 744 740
f 740 744 748
f 740 742 743
f 748 739 749
f 744 739 748
f 737 741 745
f 746 737 745
f 747 736 746
f 743 735 744
f 740 748 765
f 741 730 742
f 714 716 758
f 711 756 716
f 711 715 756
f 713 754 715
f 705 753 713
f 704 753 705
f 704 738 752
f 592 767 751
f 736 747 738
f 737 746 736
f 737 730 741
f 753 740 769
f 766 765 767
f 761 765 766
f 763 761 766
f 765 751 767
f 740 765 761
f 762 763 764
f 762 760 763
f 720 759 762
f 720 762 722
f 761 763 760
f 762 759 760
f 718 759 720
f 778 797 798
f 752 740 753
f 752 747 740
f 758 716 757
f 716 756 757
f 756 715 755
f 715 754 755
f 754 713 753
f 753 704 752
f 752 738 747
f 765 750 751
f 765 749 750
f 765 748 749
f 846 823 845
f 840 839 842
f 840 838 839
f 840 837 838
f 837 840 836
f 840 835 836
f 840 834 835
f 840 833 834
f 832 833 840
f 840 831 832
f 840 815 831
f 841 815 840
f 846 848 827
f 833 832 847
f 840 842 843
f 845 821 844
f 832 831 847
f 831 830 847
f 844 822 868
f 834 833 849
f 830 829 847
f 829 828 847
f 828 827 848
f 827 826 846
f 826 825 846
f 825 824 846
f 824 823 846
f 849 847 848
f 840 843 857
f 909 856 855
f 856 850 855
f 850 854 855
f 865 851 852
f 860 843 853
f 856 852 850
f 852 851 849
f 849 850 852
f 853 842 851
f 849 848 850
f 854 850 848
f 821 822 844
f 848 846 854
f 851 836 849
f 846 845 854
f 849 833 847
f 847 828 848
f 843 842 853
f 842 839 851
f 836 835 849
f 835 834 849
f 839 838 851
f 838 837 851
f 837 836 851
f 808 812 723
f 807 810 813
f 810 809 813
f 809 806 813
f 813 808 807
f 812 808 813
f 813 811 812
f 806 805 813
f 805 724 813
f 724 726 813
f 811 723 812
f 808 723 807
f 723 809 810
f 723 810 807
f 900 597 937
f 778 813 874
f 811 813 778
f 778 804 811
f 811 804 723
f 803 717 804
f 900 874 597
f 874 813 597
f 813 726 597
f 938 596 841
f 803 802 801
f 778 803 804
f 799 778 798
f 825 814 824
f 822 817 868
f 823 821 845
f 819 818 870
f 869 818 820
f 817 816 868
f 816 819 868
f 815 830 831
f 830 814 829
f 814 828 829
f 828 814 827
f 814 826 827
f 814 825 826
f 734 739 744
f 815 814 830
f 820 814 871
f 817 814 816
f 819 814 818
f 814 819 816
f 814 820 818
f 814 823 824
f 814 821 823
f 814 822 821
f 814 817 822
f 814 778 874
f 938 937 597
f 871 874 875
f 870 869 901
f 901 869 881
f 893 903 901
f 869 871 872
f 872 871 875
f 869 872 873
f 881 869 873
f 901 881 882
f 901 882 883
f 901 883 884
f 901 884 893
f 903 893 895
f 896 905 895
f 819 870 868
f 875 874 876
f 876 874 877
f 875 876 879
f 876 877 880
f 874 900 877
f 872 875 879
f 879 876 880
f 877 878 887
f 873 872 879
f 882 881 879
f 881 873 879
f 880 894 879
f 863 853 864
f 841 861 862
f 841 862 863
f 841 863 864
f 857 843 859
f 858 857 859
f 860 859 843
f 851 864 853
f 852 856 866
f 861 860 853
f 862 861 853
f 863 862 853
f 864 851 865
f 866 865 852
f 880 877 887
f 867 866 856
f 867 856 909
f 912 867 909
f 841 864 865
f 866 841 865
f 841 866 867
f 841 867 912
f 841 912 913
f 938 841 913
f 871 814 874
f 820 871 869
f 818 869 870
f 908 924 911
f 897 889 899
f 921 897 922
f 896 921 898
f 922 897 899
f 844 868 870
f 844 870 902
f 902 870 901
f 845 844 902
f 903 902 901
f 902 854 845
f 903 895 905
f 905 898 906
f 906 923 908
f 921 895 897
f 914 911 924
f 902 903 904
f 854 902 904
f 904 903 905
f 855 854 904
f 855 904 907
f 907 904 906
f 904 905 906
f 909 855 907
f 907 906 908
f 910 907 908
f 910 909 907
f 886 885 900
f 887 878 885
f 878 877 900
f 885 878 900
f 882 879 894
f 894 880 889
f 890 885 886
f 885 890 887
f 889 880 887
f 890 886 888
f 889 887 891
f 890 891 887
f 891 890 888
f 841 860 861
f 886 900 888
f 888 892 916
f 891 888 916
f 899 889 891
f 899 891 915
f 884 883 894
f 883 882 894
f 893 884 894
f 895 893 894
f 897 895 894
f 894 889 897
f 896 895 921
f 589 788 787
f 592 722 762
f 767 592 764
f 718 722 719
f 798 797 594
f 796 594 797
f 594 796 795
f 794 593 795
f 793 593 794
f 792 593 793
f 593 792 790
f 791 589 790
f 789 589 791
f 788 589 789
f 800 799 595
f 786 587 787
f 587 786 785
f 784 588 785
f 783 588 784
f 588 783 782
f 590 782 781
f 780 591 781
f 591 780 779
f 721 592 779
f 592 721 722
f 523 799 798
f 781 591 590
f 723 772 770
f 734 744 735
f 731 735 742
f 731 742 730
f 736 728 737
f 737 728 730
f 733 736 738
f 736 729 728
f 733 729 736
f 728 732 730
f 726 725 727
f 724 725 726
f 725 723 770
f 782 586 588
f 723 806 809
f 723 805 806
f 724 805 723
f 723 725 724
f 769 597 726
f 804 717 723
f 723 714 774
f 722 718 720
f 722 721 719
f 764 592 762
f 802 595 801
f 595 802 800
f 730 732 541
f 714 584 712
f 584 710 712
f 710 582 711
f 711 577 708
f 574 709 708
f 576 707 709
f 576 706 707
f 573 703 706
f 573 702 703
f 572 733 702
f 548 592 751
f 739 734 546
f 735 542 734
f 749 739 546
f 732 728 536
f 735 731 542
f 543 731 730
f 536 728 729
f 729 733 535
f 1109 675 599
f 1035 666 1037
f 1037 666 675
f 857 858 840
f 841 840 860
f 840 858 859
f 860 840 859
f 709 715 708
f 782 590 586
f 779 592 591
f 761 760 511
f 760 759 511
f 778 511 719
f 759 718 511
f 718 719 511
f 716 714 710
f 710 711 716
f 715 709 713
f 712 710 714
f 715 711 708
f 298 427 429
f 706 705 713
f 709 706 713
f 707 706 709
f 705 702 704
f 706 703 705
f 703 702 705
f 738 704 702
f 769 740 511
f 702 733 738
f 740 761 511
f 751 750 548
f 750 749 546
f 144 128 143
f 116 105 152
f 149 150 112
f 149 106 115
f 148 147 142
f 147 146 142
f 144 142 145
f 143 142 144
f 146 145 142
f 142 143 401
f 148 136 147
f 147 134 146
f 134 145 146
f 145 138 144
f 149 115 150
f 401 143 128
f 140 139 141
f 136 135 147
f 135 134 147
f 134 138 145
f 129 128 144
f 138 129 144
f 142 110 179
f 142 403 110
f 137 138 134
f 134 131 137
f 126 137 131
f 122 123 155
f 157 155 156
f 154 155 157
f 159 133 161
f 158 132 159
f 156 119 158
f 155 123 156
f 153 120 155
f 133 136 161
f 132 133 159
f 158 130 132
f 119 130 158
f 124 119 156
f 123 124 156
f 119 126 131
f 120 122 155
f 178 109 140
f 141 108 177
f 177 151 178
f 151 152 178
f 177 150 151
f 151 117 152
f 150 117 151
f 117 116 152
f 115 117 150
f 177 112 150
f 152 111 178
f 108 149 107
f 297 154 157
f 297 155 154
f 153 155 297
f 110 114 179
f 178 113 109
f 108 112 177
f 114 109 113
f 109 114 110
f 108 107 112
f 1042 67 68
f 111 113 178
f 149 108 106
f 112 107 149
f 297 157 165
f 105 111 152
f 511 596 113
f 111 511 113
f 105 102 666
f 105 511 111
f 102 67 598
f 128 129 180
f 127 180 129
f 125 180 127
f 180 120 153
f 121 123 180
f 180 123 120
f 121 125 126
f 133 135 136
f 131 134 135
f 133 131 135
f 130 133 132
f 130 131 133
f 119 131 130
f 138 127 129
f 137 127 138
f 137 125 127
f 124 126 119
f 126 125 137
f 123 126 124
f 157 156 163
f 123 121 126
f 120 123 122
f 139 108 141
f 118 108 139
f 140 116 139
f 118 139 116
f 116 117 118
f 117 115 118
f 115 108 118
f 140 105 116
f 297 167 170
f 297 165 167
f 1158 1151 940
f 1006 1005 1247
f 1007 1006 1247
f 1008 1007 1247
f 1009 1008 1247
f 1038 1040 1257
f 1040 1010 1253
f 940 1151 1145
f 1146 1147 939
f 1147 1148 939
f 1146 939 1149
f 1149 939 1153
f 1153 939 1150
f 940 1154 1155
f 1005 1000 1247
f 1158 940 1155
f 1145 1152 1226
f 1148 1162 941
f 1159 1154 943
f 1161 1159 943
f 1234 941 1162
f 1227 1150 1035
f 1233 943 1039
f 1164 942 1236
f 1152 1145 1151
f 1154 1146 1149
f 1152 1151 1150
f 1211 996 995
f 1030 1028 1025
f 1024 1033 1031
f 1031 1029 1024
f 1030 1025 1029
f 1033 1027 1032
f 1034 1033 1032
f 985 986 1163
f 1163 986 987
f 985 1163 1001
f 1163 987 991
f 1010 942 1225
f 1163 991 996
f 1157 1150 1151
f 1214 995 1008
f 1008 1009 1215
f 1109 1037 675
f 599 1041 1109
f 1035 1037 1234
f 1036 1230 1039
f 942 1038 1236
f 1037 1111 1038
f 1111 1040 1038
f 1111 1010 1040
f 1037 1109 1111
f 1000 1001 1235
f 167 166 168
f 173 162 172
f 162 171 172
f 161 148 171
f 178 140 177
f 140 141 177
f 170 169 175
f 169 168 174
f 168 164 173
f 164 162 173
f 162 161 171
f 161 136 148
f 170 167 169
f 167 168 169
f 174 168 173
f 166 164 168
f 167 165 166
f 165 163 166
f 164 160 162
f 160 161 162
f 166 160 164
f 160 159 161
f 163 160 166
f 160 158 159
f 163 158 160
f 165 157 163
f 163 156 158
f 104 277 249
f 1149 1153 1155
f 1155 1154 1149
f 1156 1153 1150
f 1150 1157 1156
f 1151 1158 1157
f 1153 1157 1155
f 1157 1153 1156
f 410 299 182
f 180 181 392
f 182 110 393
f 180 297 181
f 182 287 102
f 121 180 125
f 104 287 277
f 435 176 179
f 176 175 179
f 175 174 179
f 174 173 179
f 173 172 179
f 172 171 179
f 171 148 179
f 148 142 179
f 435 170 176
f 170 175 176
f 175 169 174
f 1221 1217 1222
f 1207 1208 1209
f 1209 1210 1207
f 1224 1207 1210
f 1217 1218 1222
f 1164 1166 1220
f 1217 1164 1219
f 1219 1164 1220
f 1220 1166 1218
f 1218 1217 1219
f 1220 1218 1219
f 1208 1207 1221
f 1223 1208 1221
f 1223 1221 1222
f 1206 1202 1201
f 1212 1211 1224
f 1213 1212 1224
f 1224 1210 1213
f 1224 1211 1252
f 1225 1224 1252
f 1252 1211 1214
f 1252 1214 1215
f 1252 1215 1216
f 1036 1226 1229
f 1230 1036 1229
f 1227 1035 1234
f 1229 1226 1228
f 1192 1193 1195
f 510 385 1198
f 1032 1192 1194
f 1194 1196 1032
f 1203 1032 1196
f 1198 1028 1199
f 1202 1029 1201
f 1199 1030 1200
f 1201 1031 1205
f 1200 1030 1202
f 1034 1203 1204
f 1205 1034 1204
f 502 510 1198
f 1206 502 1198
f 1039 1230 1231
f 1194 1192 1195
f 1194 1195 1197
f 1196 1194 1197
f 1196 1197 1206
f 1197 1195 1206
f 1203 1196 1206
f 1204 1203 1206
f 1206 1205 1204
f 1201 1205 1206
f 1206 1198 1199
f 1206 1199 1200
f 1206 1200 1202
f 1249 1246 1248
f 1247 1244 1243
f 1250 1242 1249
f 1243 1244 1246
f 1249 1243 1246
f 1246 1244 1245
f 1252 1250 1251
f 1247 1235 1238
f 1238 1248 1247
f 1237 1236 1257
f 1238 1237 1257
f 1247 1248 1245
f 1244 1247 1245
f 1245 1248 1246
f 1242 1250 1252
f 1248 1238 1257
f 1249 1248 1257
f 1250 1249 1257
f 1251 1250 1257
f 1253 1225 1252
f 1254 1253 1252
f 1254 1252 1255
f 1252 1251 1255
f 1254 1255 1256
f 1257 1254 1256
f 1255 1251 1257
f 1257 1256 1255
f 1009 1241 1240
f 1039 1231 1232
f 1229 1228 1227
f 1230 1229 1227
f 1231 1230 1227
f 1231 1227 1234
f 1234 1232 1231
f 1233 1039 1232
f 1237 1235 1167
f 1236 1237 1167
f 1232 1234 1233
f 1235 1237 1238
f 1247 1000 1235
f 1191 1188 1187
f 1241 1009 1243
f 1239 1009 1240
f 1243 1009 1247
f 1236 1038 1257
f 1253 1254 1040
f 1257 1040 1254
f 1216 1239 1252
f 1240 1241 1242
f 1252 1239 1240
f 1252 1240 1242
f 1241 1243 1242
f 1242 1243 1249
f 972 1169 1170
f 1167 1165 1236
f 1169 1168 1176
f 304 1177 497
f 489 1179 1174
f 944 1185 1177
f 1170 1176 1174
f 1176 1170 1169
f 1185 944 1186
f 1170 1174 1181
f 487 489 1172
f 487 1172 488
f 1172 1171 488
f 1172 489 1174
f 1165 1164 1236
f 1173 1172 1174
f 1175 1174 1176
f 1178 978 1170
f 385 1021 1198
f 1206 342 502
f 1186 980 1193
f 1193 980 1195
f 1032 1178 1192
f 1198 1021 1028
f 1033 1034 1205
f 1028 1030 1199
f 1029 1202 1030
f 1160 1146 1159
f 110 182 102
f 110 105 109
f 104 102 287
f 249 68 104
f 105 140 109
f 108 115 106
f 102 105 110
f 1155 1157 1158
f 1150 1227 1152
f 1146 1160 1147
f 1147 1160 1148
f 1146 1154 1159
f 1029 1031 1201
f 1148 1160 1162
f 943 1233 1161
f 1160 1159 1161
f 1162 1160 1161
f 1162 1161 1233
f 1226 1152 1228
f 1228 1152 1227
f 1163 1166 1165
f 1163 1165 1167
f 1165 1166 1164
f 1234 1162 1233
f 1163 1167 1235
f 1192 1178 1184
f 1179 1180 1174
f 1181 1174 1180
f 1178 1170 1182
f 1170 1181 1183
f 1182 1170 1183
f 1178 1182 1184
f 1177 1185 1179
f 1180 1179 1185
f 1180 1185 1186
f 1181 1180 1186
f 1183 1181 1186
f 1183 1186 1182
f 1184 1182 1186
f 1189 489 498
f 1184 1186 1193
f 1192 1184 1193
f 498 497 1188
f 1188 497 1177
f 1189 498 1190
f 1190 498 1191
f 1191 498 1188
f 1188 1177 1187
f 1189 1177 1179
f 1187 1177 1189
f 1187 1189 1190
f 1187 1190 1191
f 995 1214 1211
f 1032 1203 1034
f 1033 1205 1031
f 1195 980 1206
f 942 1221 1207
f 1221 942 1217
f 1217 942 1164
f 1166 1163 996
f 1166 996 1218
f 1207 1224 942
f 1224 1225 942
f 1208 1223 996
f 996 1223 1222
f 1024 1026 1033
f 1208 996 1209
f 1209 996 1210
f 996 1211 1212
f 1210 996 1213
f 1213 996 1212
f 1218 996 1222
f 1235 1001 1163
f 1214 1008 1215
f 1215 1009 1216
f 1216 1009 1239
f 1253 1010 1225
f 1179 489 1189
f 321 338 494
f 337 369 373
f 370 330 366
f 366 331 364
f 369 327 370
f 364 317 365
f 380 341 339
f 339 337 375
f 337 328 369
f 328 327 369
f 327 332 370
f 485 333 334
f 486 334 335
f 338 333 485
f 375 337 373
f 323 321 494
f 322 323 493
f 324 320 489
f 320 322 491
f 484 453 303
f 453 451 303
f 468 356 302
f 451 348 303
f 346 303 348
f 354 362 363
f 363 355 354
f 362 354 353
f 366 364 367
f 381 373 376
f 375 373 381
f 376 369 374
f 373 369 376
f 377 367 372
f 371 367 377
f 374 370 371
f 367 368 372
f 371 366 367
f 370 366 371
f 369 370 374
f 367 365 368
f 364 365 367
f 352 361 362
f 502 342 304
f 494 338 485
f 494 493 323
f 493 490 322
f 492 491 322
f 324 487 488
f 489 487 324
f 491 489 320
f 490 492 322
f 496 340 341
f 495 335 340
f 380 339 375
f 336 325 326
f 332 330 370
f 331 316 364
f 330 331 366
f 316 317 364
f 317 318 365
f 342 980 303
f 1111 286 303
f 340 336 341
f 336 339 341
f 337 327 328
f 336 337 339
f 335 336 340
f 336 326 337
f 287 300 345
f 333 325 335
f 333 335 334
f 335 325 336
f 312 330 332
f 321 329 338
f 321 310 329
f 327 312 332
f 326 327 337
f 338 329 333
f 325 333 329
f 326 312 327
f 325 311 326
f 348 347 344
f 360 361 351
f 349 359 360
f 352 362 353
f 361 352 351
f 360 351 350
f 350 349 360
f 358 359 302
f 357 302 356
f 357 358 302
f 484 303 290
f 349 302 359
f 302 450 468
f 376 374 382
f 344 343 348
f 302 449 450
f 347 449 302
f 347 301 344
f 343 346 348
f 301 343 344
f 300 346 345
f 346 291 345
f 346 343 292
f 300 303 346
f 301 347 302
f 343 301 288
f 416 418 414
f 457 419 456
f 419 420 456
f 419 418 420
f 420 413 456
f 418 416 420
f 416 415 420
f 419 417 418
f 419 414 417
f 484 290 419
f 415 413 420
f 419 411 414
f 419 294 411
f 414 418 417
f 458 459 419
f 414 415 416
f 414 413 415
f 411 413 414
f 411 412 413
f 294 412 411
f 294 296 412
f 447 410 409
f 407 408 409
f 410 407 409
f 408 406 409
f 410 405 407
f 407 405 408
f 431 297 433
f 428 299 430
f 425 299 428
f 298 426 427
f 424 299 425
f 424 421 431
f 425 421 424
f 423 422 425
f 422 421 425
f 437 297 436
f 297 435 436
f 433 297 437
f 179 299 424
f 405 406 408
f 421 297 431
f 297 423 426
f 297 422 423
f 297 421 422
f 170 435 297
f 410 448 299
f 419 463 465
f 462 419 461
f 462 463 419
f 419 460 461
f 459 460 419
f 419 457 458
f 387 379 386
f 389 388 391
f 401 180 402
f 400 402 180
f 399 110 403
f 401 128 180
f 398 400 180
f 180 390 398
f 391 180 392
f 180 391 390
f 393 110 389
f 397 110 399
f 388 110 397
f 110 388 389
f 391 388 390
f 387 382 379
f 384 376 382
f 383 380 381
f 384 381 376
f 380 375 381
f 385 386 378
f 377 378 386
f 379 377 386
f 382 374 379
f 377 372 378
f 379 371 377
f 374 371 379
f 406 181 409
f 405 395 406
f 395 396 406
f 404 400 403
f 402 400 404
f 400 399 403
f 403 142 404
f 142 402 404
f 142 401 402
f 400 398 399
f 398 397 399
f 398 390 397
f 409 181 447
f 311 312 326
f 410 182 405
f 395 393 396
f 393 394 396
f 394 389 391
f 393 389 394
f 391 392 394
f 396 181 406
f 395 405 182
f 394 181 396
f 393 395 182
f 392 181 394
f 390 388 397
f 992 1005 1006
f 982 1000 998
f 997 999 981
f 999 997 1003
f 984 1001 1000
f 998 1004 997
f 1004 998 1000
f 990 999 1002
f 1003 990 1002
f 1004 989 1003
f 999 1003 1002
f 1003 997 1004
f 1004 1000 1005
f 989 1004 1005
f 998 997 982
f 994 1006 1007
f 994 1007 1008
f 1111 1042 250
f 1010 1111 980
f 1177 304 944
f 1171 960 324
f 365 318 1011
f 962 960 1173
f 963 962 1176
f 964 963 1168
f 972 964 1169
f 973 972 1170
f 988 990 1003
f 981 982 997
f 981 983 988
f 983 981 999
f 990 983 999
f 989 982 981
f 982 989 984
f 984 993 985
f 1000 982 984
f 1001 984 985
f 989 981 988
f 984 989 992
f 988 983 990
f 978 973 1170
f 989 988 1003
f 986 985 994
f 987 986 994
f 991 987 995
f 993 984 992
f 994 985 993
f 995 987 994
f 996 991 995
f 1005 992 989
f 993 992 1006
f 1006 994 993
f 1008 995 994
f 1018 1023 1017
f 1174 1175 962
f 962 1175 1176
f 963 1176 1168
f 964 1168 1169
f 979 1178 1032
f 1011 1014 1016
f 1016 1014 1015
f 1012 1011 1016
f 1013 1012 1016
f 1019 1016 1015
f 1019 1015 1017
f 1013 1016 1022
f 1022 1016 1019
f 1173 1174 962
f 1019 1017 1023
f 1020 1013 1022
f 1022 1019 1025
f 1023 1018 1024
f 1024 1018 1026
f 1023 1025 1019
f 1020 1022 1028
f 1028 1022 1025
f 1021 1020 1028
f 1025 1023 1029
f 1029 1023 1024
f 1026 1027 1033
f 1011 368 365
f 1018 970 971
f 1018 971 976
f 1027 976 977
f 979 1032 977
f 1014 1011 957
f 1015 1014 957
f 1017 1015 970
f 1018 1017 970
f 1026 1018 976
f 1027 1026 976
f 1032 1027 977
f 1171 324 488
f 980 942 1010
f 1013 372 368
f 368 1011 1012
f 368 1012 1013
f 372 1013 1020
f 342 1206 980
f 378 372 1020
f 1020 385 378
f 385 1020 1021
f 978 1178 979
f 944 980 1186
f 960 1172 1173
f 1172 960 1171
f 181 297 298
f 299 304 342
f 302 349 289
f 286 1111 250
f 1042 249 250
f 303 300 299
f 302 288 301
f 426 298 297
f 299 179 114
f 181 298 447
f 180 153 297
f 299 941 304
f 939 941 299
f 299 114 939
f 342 303 299
f 300 182 299
f 249 1042 68
f 413 289 456
f 289 350 456
f 419 287 294
f 289 349 350
f 290 287 419
f 293 292 343
f 292 291 346
f 343 288 293
f 291 287 345
f 296 292 295
f 314 309 315
f 311 325 329
f 320 323 322
f 319 320 324
f 319 310 320
f 310 321 323
f 320 310 323
f 317 315 318
f 314 315 317
f 331 317 316
f 330 314 331
f 331 314 317
f 312 314 330
f 294 292 296
f 313 310 319
f 313 305 310
f 312 306 314
f 311 305 306
f 306 312 311
f 310 305 329
f 329 305 311
f 306 309 314
f 307 308 305
f 308 306 305
f 309 306 308
f 305 313 307
f 968 974 976
f 965 966 954
f 955 954 967
f 958 955 968
f 968 955 967
f 967 954 966
f 965 964 966
f 968 967 974
f 969 958 970
f 970 958 968
f 970 968 971
f 966 964 972
f 967 966 975
f 966 972 973
f 965 953 961
f 975 966 973
f 971 968 976
f 974 967 975
f 975 973 978
f 974 975 977
f 976 974 977
f 977 975 978
f 977 978 979
f 1111 303 980
f 1011 950 957
f 957 969 1015
f 1015 969 970
f 947 952 956
f 412 289 413
f 296 289 412
f 295 289 296
f 292 293 295
f 288 295 293
f 292 294 287
f 291 292 287
f 288 289 295
f 290 303 286
f 286 287 290
f 288 302 289
f 287 182 300
f 947 956 949
f 949 956 950
f 956 952 958
f 950 956 957
f 969 956 958
f 957 956 969
f 287 286 277
f 961 959 960
f 961 960 962
f 961 963 965
f 961 962 963
f 965 963 964
f 5 1 2
f 28 67 27
f 58 64 93
f 89 55 90
f 90 57 91
f 58 93 92
f 91 58 92
f 93 64 103
f 104 66 85
f 67 18 19
f 67 19 20
f 21 67 20
f 22 67 21
f 27 67 22
f 58 91 57
f 29 67 28
f 30 67 29
f 68 67 30
f 69 67 102
f 54 53 95
f 59 54 97
f 95 52 94
f 54 95 96
f 97 54 96
f 60 59 100
f 61 60 100
f 62 61 101
f 10 66 11
f 53 52 95
f 77 47 76
f 78 49 77
f 50 78 79
f 84 50 79
f 94 51 84
f 64 63 103
f 103 63 65
f 2 66 7
f 7 66 8
f 8 66 9
f 9 66 10
f 65 62 99
f 11 66 12
f 12 66 13
f 13 66 14
f 66 1 85
f 66 68 14
f 46 87 45
f 46 55 89
f 86 45 87
f 87 46 88
f 88 46 89
f 55 56 90
f 90 56 57
f 84 102 94
f 85 74 83
f 85 83 86
f 86 87 85
f 87 88 85
f 88 89 85
f 89 90 85
f 90 91 85
f 104 85 91
f 76 102 77
f 77 102 78
f 78 102 79
f 79 102 84
f 85 73 74
f 102 95 94
f 102 96 95
f 102 97 96
f 102 100 97
f 102 101 100
f 101 102 104
f 104 93 103
f 99 104 103
f 104 91 92
f 104 92 93
f 101 104 98
f 98 104 99
f 68 30 33
f 100 59 97
f 101 61 100
f 99 62 98
f 103 65 99
f 98 62 101
f 14 68 23
f 23 68 24
f 24 68 25
f 25 68 26
f 26 68 32
f 32 68 31
f 68 33 31
f 52 51 94
f 68 66 104
f 81 70 69
f 81 69 80
f 69 70 71
f 82 80 69
f 82 69 75
f 76 75 69
f 85 69 71
f 69 102 76
f 85 71 72
f 85 72 73
f 32 64 26
f 19 18 50
f 20 19 51
f 21 20 52
f 22 21 53
f 27 22 54
f 14 23 55
f 23 24 56
f 24 25 57
f 25 26 58
f 28 27 59
f 29 28 60
f 30 29 61
f 18 17 49
f 32 31 63
f 31 33 65
f 33 30 62
f 34 2 39
f 38 6 36
f 36 4 37
f 37 5 34
f 35 3 38
f 39 7 40
f 40 8 41
f 41 9 42
f 42 10 43
f 6 4 36
f 1 5 4
f 4 6 1
f 1 6 3
f 3 15 1
f 2 1 66
f 15 16 1
f 16 17 1
f 17 18 1
f 67 1 18
f 67 69 1
f 15 3 35
f 4 5 37
f 43 11 44
f 5 2 34
f 3 6 38
f 2 7 39
f 7 8 40
f 8 9 41
f 9 10 42
f 10 11 43
f 11 12 44
f 12 13 45
f 13 14 46
f 16 15 47
f 17 16 48
f 42 73 41
f 34 39 71
f 38 36 80
f 38 75 35
f 47 35 76
f 80 37 81
f 38 80 82
f 81 34 70
f 70 34 71
f 75 38 82
f 76 35 75
f 39 40 72
f 72 40 41
f 37 34 81
f 42 43 83
f 83 43 44
f 45 86 44
f 71 39 72
f 72 41 73
f 73 42 74
f 74 42 83
f 83 44 86
f 48 47 77
f 49 48 77
f 50 49 78
f 51 50 84
f 56 24 57
f 44 12 45
f 45 13 46
f 46 14 55
f 47 15 35
f 48 16 47
f 49 17 48
f 50 18 49
f 51 19 50
f 52 20 51
f 53 21 52
f 54 22 53
f 55 23 56
f 57 25 58
f 59 27 54
f 60 28 59
f 61 29 60
f 62 30 61
f 58 26 64
f 64 32 63
f 65 33 62
f 63 31 65
f 85 1 69
f 37 80 36
f 698 697 701
f 629 628 661
f 642 609 643
f 641 608 642
f 640 607 639
f 639 606 638
f 638 605 637
f 637 604 635
f 635 602 636
f 634 601 633
f 633 600 641
f 636 603 634
f 631 630 663
f 630 629 662
f 643 610 644
f 625 626 659
f 626 627 660
f 627 631 664
f 625 658 624
f 618 624 657
f 628 623 656
f 623 622 655
f 622 621 654
f 621 620 653
f 620 619 652
f 617 618 651
f 616 617 650
f 656 623 655
f 632 622 623
f 632 621 622
f 632 620 621
f 632 619 620
f 664 631 663
f 663 630 662
f 662 629 661
f 661 628 656
f 658 625 659
f 660 627 664
f 659 626 660
f 657 624 658
f 615 616 649
f 655 622 654
f 654 621 653
f 653 620 652
f 652 619 640
f 651 618 657
f 650 617 651
f 649 616 650
f 648 615 649
f 647 614 648
f 646 613 647
f 645 612 646
f 644 611 645
f 669 634 668
f 600 599 608
f 674 646 676
f 673 644 674
f 672 644 673
f 671 643 672
f 667 641 671
f 644 645 674
f 644 672 643
f 671 642 643
f 641 642 671
f 668 633 670
f 633 667 670
f 608 599 609
f 633 641 667
f 634 633 668
f 600 598 599
f 598 632 666
f 619 598 607
f 607 598 606
f 606 598 605
f 605 598 604
f 598 600 601
f 598 601 603
f 604 598 602
f 602 598 603
f 604 602 635
f 614 615 648
f 613 614 647
f 612 613 646
f 611 612 645
f 610 611 644
f 609 610 643
f 608 609 642
f 600 608 641
f 619 607 640
f 607 606 639
f 606 605 638
f 605 604 637
f 701 697 699
f 602 603 636
f 601 600 633
f 603 601 634
f 632 598 619
f 701 599 675
f 599 615 614
f 599 614 613
f 612 599 613
f 611 599 612
f 610 599 611
f 609 599 610
f 698 657 697
f 675 671 672
f 675 667 671
f 675 666 667
f 668 666 669
f 666 678 677
f 666 677 682
f 666 682 669
f 667 666 670
f 670 666 668
f 687 665 701
f 699 658 700
f 697 657 699
f 675 672 673
f 657 658 699
f 657 698 651
f 696 651 698
f 695 649 696
f 694 648 695
f 693 648 694
f 676 647 693
f 696 650 651
f 649 650 696
f 648 649 695
f 648 693 647
f 665 631 627
f 683 681 687
f 700 686 701
f 686 692 701
f 692 691 701
f 699 700 701
f 701 675 698
f 691 687 701
f 691 690 687
f 690 689 687
f 689 688 687
f 688 685 687
f 685 684 687
f 684 683 687
f 632 628 629
f 681 680 687
f 680 679 687
f 679 678 687
f 666 687 678
f 698 675 696
f 696 675 695
f 695 675 694
f 694 675 693
f 693 675 676
f 675 674 676
f 675 673 674
f 677 635 682
f 661 656 689
f 656 655 685
f 655 654 685
f 654 653 684
f 653 652 683
f 652 640 680
f 647 676 646
f 674 645 646
f 680 640 679
f 679 638 678
f 678 637 677
f 682 635 669
f 665 624 618
f 640 639 679
f 639 638 679
f 638 637 678
f 636 634 669
f 637 635 677
f 635 636 669
f 666 632 687
f 632 665 687
f 632 631 665
f 632 630 631
f 632 629 630
f 632 623 628
f 683 652 681
f 652 680 681
f 626 665 627
f 625 665 626
f 624 665 625
f 599 701 665
f 617 665 618
f 616 665 617
f 615 665 616
f 599 665 615
f 692 664 691
f 686 664 692
f 700 660 686
f 690 661 689
f 691 663 690
f 684 653 683
f 685 654 684
f 656 685 688
f 689 656 688
f 658 659 700
f 664 663 691
f 662 661 690
f 663 662 690
f 664 686 660
f 700 659 660
f 233 232 257
f 234 233 259
f 256 230 254
f 257 232 256
f 233 257 258
f 259 233 258
f 276 234 259
f 185 183 184
f 185 184 186
f 186 184 187
f 187 184 188
f 184 183 265
f 188 184 193
f 193 184 194
f 194 184 195
f 195 184 196
f 196 184 197
f 185 186 218
f 200 201 183
f 285 286 282
f 185 189 183
f 189 190 183
f 192 198 183
f 190 191 183
f 192 183 191
f 249 251 183
f 198 199 183
f 199 200 183
f 232 231 256
f 249 183 201
f 265 183 251
f 224 223 255
f 230 224 254
f 223 252 253
f 255 223 253
f 254 224 255
f 231 230 256
f 238 206 237
f 245 213 247
f 248 216 240
f 247 215 248
f 246 214 245
f 244 212 246
f 243 211 244
f 242 210 243
f 241 209 242
f 240 208 239
f 239 207 238
f 184 250 197
f 237 205 236
f 236 204 235
f 235 203 234
f 234 202 233
f 233 201 232
f 232 200 231
f 231 199 230
f 230 198 224
f 229 197 241
f 228 196 229
f 261 218 262
f 267 227 268
f 264 225 267
f 263 225 264
f 229 241 272
f 229 269 228
f 228 268 227
f 267 226 227
f 225 226 267
f 225 263 220
f 262 220 263
f 227 195 228
f 252 221 266
f 266 217 260
f 217 261 260
f 223 222 252
f 217 218 261
f 262 219 220
f 218 219 262
f 221 217 266
f 222 221 252
f 194 195 227
f 206 205 237
f 205 204 236
f 204 203 235
f 203 202 234
f 202 201 233
f 201 200 232
f 200 199 231
f 199 198 230
f 196 197 229
f 195 196 228
f 207 206 238
f 193 194 226
f 188 193 225
f 198 192 224
f 192 191 223
f 189 185 217
f 190 189 221
f 191 190 222
f 187 188 220
f 186 187 219
f 213 215 247
f 226 194 227
f 225 193 226
f 224 192 223
f 222 190 221
f 221 189 217
f 223 191 222
f 220 188 225
f 219 187 220
f 218 186 219
f 217 185 218
f 282 286 284
f 215 216 248
f 214 213 245
f 214 246 212
f 211 212 244
f 210 211 243
f 209 210 242
f 197 209 241
f 216 208 240
f 208 207 239
f 251 252 266
f 267 268 265
f 265 264 267
f 265 263 264
f 265 262 263
f 265 261 262
f 265 251 261
f 251 277 254
f 253 252 251
f 251 260 261
f 266 260 251
f 268 269 265
f 255 251 254
f 255 253 251
f 283 247 284
f 282 248 285
f 284 248 282
f 248 284 247
f 248 240 285
f 285 240 281
f 281 238 280
f 259 277 276
f 286 270 283
f 286 275 270
f 286 274 275
f 284 286 283
f 285 277 286
f 277 285 281
f 277 281 280
f 277 280 279
f 277 279 278
f 277 278 276
f 269 229 271
f 258 277 259
f 257 277 258
f 256 277 257
f 254 277 256
f 286 265 274
f 273 274 265
f 272 273 265
f 271 272 265
f 269 271 265
f 246 245 283
f 205 249 204
f 204 249 203
f 249 202 203
f 249 201 202
f 286 184 265
f 270 246 283
f 275 244 270
f 274 244 275
f 273 243 274
f 272 241 273
f 237 278 279
f 244 246 270
f 247 283 245
f 244 274 243
f 273 242 243
f 241 242 273
f 236 235 278
f 235 234 276
f 271 229 272
f 268 228 269
f 207 249 206
f 280 237 279
f 278 235 276
f 240 239 281
f 239 238 281
f 238 237 280
f 237 236 278
f 250 184 286
f 214 250 213
f 212 250 214
f 250 215 213
f 211 250 212
f 250 216 215
f 206 249 205
f 208 249 207
f 216 249 208
f 251 249 277
f 249 216 250
f 197 250 209
f 209 250 210
f 210 250 211
f 1042 1059 1058
f 1042 1058 1057
f 1056 1042 1057
f 1055 1042 1056
f 1050 1042 1055
f 1049 1042 1050
f 1048 1042 1049
f 1047 1042 1048
f 1047 1041 1042
f 1063 1041 1054
f 1054 1041 1053
f 1053 1041 1052
f 1052 1041 1051
f 1051 1041 1045
f 1045 1041 1046
f 1041 1044 1046
f 1041 1047 1044
f 1041 1043 1109
f 1080 1114 1077
f 1076 1075 1072
f 1129 1092 1134
f 1119 1091 1129
f 1136 1094 1095
f 1093 1094 1136
f 1092 1093 1135
f 1092 1129 1091
f 1091 1119 1090
f 1118 1089 1090
f 1078 1079 1110
f 1079 1077 1110
f 1076 1072 1073
f 1134 1092 1135
f 1071 1076 1073
f 1071 1074 1076
f 1062 1076 1074
f 1075 1076 1043
f 1042 1144 1076
f 1061 1076 1062
f 1060 1076 1061
f 1059 1076 1060
f 1042 1076 1059
f 1108 1075 1103
f 1104 1071 1106
f 1140 1100 1139
f 1108 1142 1143
f 1138 1107 1131
f 1137 1107 1138
f 1106 1105 1133
f 1108 1132 1105
f 1108 1103 1142
f 1104 1106 1133
f 1107 1104 1131
f 1107 1137 1095
f 1142 1103 1141
f 1141 1101 1140
f 1106 1073 1105
f 1100 1130 1139
f 1130 1098 1127
f 1103 1102 1141
f 1102 1101 1141
f 1101 1100 1140
f 1100 1099 1130
f 1099 1098 1130
f 1098 1097 1127
f 1136 1095 1137
f 1135 1093 1136
f 1075 1070 1103
f 1081 1048 1082
f 1080 1047 1081
f 1084 1051 1078
f 1078 1045 1079
f 1077 1044 1080
f 1079 1046 1077
f 1062 1074 1107
f 1073 1072 1105
f 1071 1073 1106
f 1072 1075 1108
f 1074 1071 1104
f 1082 1049 1083
f 1070 1069 1102
f 1069 1068 1101
f 1068 1067 1100
f 1067 1066 1099
f 1066 1065 1098
f 1065 1064 1097
f 1064 1063 1096
f 1061 1062 1095
f 1060 1061 1094
f 1059 1060 1093
f 1058 1059 1092
f 1094 1061 1095
f 1105 1072 1108
f 1107 1074 1104
f 1103 1070 1102
f 1102 1069 1101
f 1101 1068 1100
f 1100 1067 1099
f 1099 1066 1098
f 1098 1065 1097
f 1097 1064 1096
f 1096 1063 1087
f 1095 1062 1107
f 1132 1108 1143
f 1093 1060 1094
f 1092 1059 1093
f 1091 1058 1092
f 1090 1057 1091
f 1089 1056 1090
f 1088 1055 1089
f 1087 1054 1086
f 1086 1053 1085
f 1085 1052 1084
f 1083 1050 1088
f 1096 1087 1124
f 1043 1076 1128
f 1109 1043 1128
f 1084 1078 1121
f 1085 1084 1122
f 1086 1085 1123
f 1087 1086 1123
f 1078 1110 1120
f 1121 1078 1120
f 1122 1084 1121
f 1123 1085 1122
f 1124 1087 1123
f 1070 1075 1043
f 1097 1096 1126
f 1096 1124 1125
f 1126 1096 1125
f 1127 1097 1126
f 1047 1080 1044
f 1046 1044 1077
f 1045 1046 1079
f 1051 1045 1078
f 1047 1048 1081
f 1048 1049 1082
f 1049 1050 1083
f 1117 1088 1118
f 1080 1081 1112
f 1081 1082 1113
f 1113 1082 1083
f 1080 1112 1115
f 1110 1077 1114
f 1114 1080 1115
f 1112 1081 1113
f 1113 1083 1116
f 1088 1116 1083
f 1088 1089 1118
f 1116 1088 1117
f 1052 1051 1084
f 1118 1090 1119
f 1144 1042 1111
f 1043 1041 1063
f 1063 1064 1043
f 1064 1065 1043
f 1043 1065 1066
f 1043 1066 1067
f 1043 1067 1068
f 1068 1069 1043
f 1069 1070 1043
f 1111 1112 1113
f 1123 1122 1128
f 1109 1128 1122
f 1137 1111 1136
f 1136 1111 1135
f 1135 1111 1134
f 1134 1111 1129
f 1129 1111 1119
f 1111 1118 1119
f 1111 1117 1118
f 1111 1116 1117
f 1111 1113 1116
f 1124 1123 1128
f 1109 1112 1111
f 1109 1120 1110
f 1114 1109 1110
f 1109 1122 1121
f 1109 1121 1120
f 1112 1109 1115
f 1115 1109 1114
f 1128 1076 1144
f 1133 1105 1132
f 1131 1104 1133
f 1144 1137 1138
f 1053 1052 1085
f 1054 1053 1086
f 1063 1054 1087
f 1050 1055 1088
f 1055 1056 1089
f 1056 1057 1090
f 1144 1132 1143
f 1133 1132 1144
f 1143 1142 1144
f 1144 1131 1133
f 1138 1131 1144
f 1057 1058 1091
f 1142 1128 1144
f 1144 1111 1137
f 1142 1141 1128
f 1141 1140 1128
f 1140 1139 1128
f 1139 1130 1128
f 1130 1127 1128
f 1127 1126 1128
f 1126 1125 1128
f 1125 1124 1128

