ISO-10303-21;
HEADER;
/* Generated by software containing ST-Developer
 * from STEP Tools, Inc. (www.steptools.com) 
 */

FILE_DESCRIPTION(
/* description */ (''),
/* implementation_level */ '2;1');

FILE_NAME(
/* name */ 
'C:\\Users\\designnet\\AppData\\Local\\Temp\\derivatives\\20755_4b5e61
bf\\AssemblyExtractor\\20755_4b5e61bf\\cb3b7cc0-05ef-11ec-bcda-0288f32
f2721.step',
/* time_stamp */ '2021-08-25T22:00:16+00:00',
/* author */ (''),
/* organization */ (''),
/* preprocessor_version */ 'ST-DEVELOPER v18.1',
/* originating_system */ 'Autodesk Translation Framework v10.6.0.1341',

/* authorisation */ '');

FILE_SCHEMA (('AUTOMOTIVE_DESIGN { 1 0 10303 214 3 1 1 }'));
ENDSEC;

DATA;
#10=MECHANICAL_DESIGN_GEOMETRIC_PRESENTATION_REPRESENTATION('',(#13),#576);
#11=SHAPE_REPRESENTATION_RELATIONSHIP('SRR','None',#583,#12);
#12=ADVANCED_BREP_SHAPE_REPRESENTATION('',(#14),#575);
#13=STYLED_ITEM('',(#592),#14);
#14=MANIFOLD_SOLID_BREP('Body1',#164);
#15=FACE_BOUND('',#43,.T.);
#16=FACE_BOUND('',#46,.T.);
#17=FACE_BOUND('',#49,.T.);
#18=PLANE('',#192);
#19=PLANE('',#196);
#20=PLANE('',#199);
#21=(
BOUNDED_CURVE()
B_SPLINE_CURVE(5,(#533,#534,#535,#536,#537,#538,#539,#540,#541,#542,#543,
#544,#545,#546,#547,#548,#549,#550,#551,#552),.UNSPECIFIED.,.F.,.F.)
B_SPLINE_CURVE_WITH_KNOTS((6,1,1,1,1,1,1,1,1,1,1,1,1,1,1,6),(0.,0.0666666666666667,
0.133333333333333,0.2,0.266666666666667,0.333333333333333,0.4,0.466666666666667,
0.533333333333333,0.6,0.666666666666667,0.733333333333333,0.8,0.866666666666667,
0.933333333333333,1.),.UNSPECIFIED.)
CURVE()
GEOMETRIC_REPRESENTATION_ITEM()
RATIONAL_B_SPLINE_CURVE((1.,1.,1.,1.,1.,1.,1.,1.,1.,1.,1.,1.,1.,1.,1.,1.,
1.,1.,1.,1.))
REPRESENTATION_ITEM('')
);
#22=ELLIPSE('',#185,0.707106781186548,0.5);
#23=ELLIPSE('',#198,0.395979797464467,0.28);
#24=B_SPLINE_CURVE_WITH_KNOTS('',3,(#333,#334,#335,#336,#337,#338,#339,
#340),.UNSPECIFIED.,.F.,.F.,(4,1,1,1,1,4),(0.,0.284985137825535,0.638073889246,
1.14530602977264,1.49678593594891,1.90358804988839),.UNSPECIFIED.);
#25=(
BOUNDED_SURFACE()
B_SPLINE_SURFACE(3,2,((#260,#261,#262,#263,#264,#265,#266,#267,#268),(#269,
#270,#271,#272,#273,#274,#275,#276,#277),(#278,#279,#280,#281,#282,#283,
#284,#285,#286),(#287,#288,#289,#290,#291,#292,#293,#294,#295),(#296,#297,
#298,#299,#300,#301,#302,#303,#304),(#305,#306,#307,#308,#309,#310,#311,
#312,#313),(#314,#315,#316,#317,#318,#319,#320,#321,#322),(#323,#324,#325,
#326,#327,#328,#329,#330,#331)),.UNSPECIFIED.,.F.,.T.,.F.)
B_SPLINE_SURFACE_WITH_KNOTS((4,1,1,1,1,4),(3,2,2,2,3),(0.,0.284985137825535,
0.638073889246,1.14530602977264,1.49678593594891,1.90358804988839),(0.,
1.5707963267949,3.14159265358979,4.71238898038469,6.28318530717959),
 .UNSPECIFIED.)
GEOMETRIC_REPRESENTATION_ITEM()
RATIONAL_B_SPLINE_SURFACE(((1.,0.707106781186548,1.,0.707106781186548,1.,
0.707106781186548,1.,0.707106781186548,1.),(1.,0.707106781186548,1.,0.707106781186548,
1.,0.707106781186548,1.,0.707106781186548,1.),(1.,0.707106781186548,1.,
0.707106781186548,1.,0.707106781186548,1.,0.707106781186548,1.),(1.,0.707106781186548,
1.,0.707106781186548,1.,0.707106781186548,1.,0.707106781186548,1.),(1.,
0.707106781186548,1.,0.707106781186548,1.,0.707106781186548,1.,0.707106781186548,
1.),(1.,0.707106781186548,1.,0.707106781186548,1.,0.707106781186548,1.,
0.707106781186548,1.),(1.,0.707106781186548,1.,0.707106781186548,1.,0.707106781186548,
1.,0.707106781186548,1.),(1.,0.707106781186548,1.,0.707106781186548,1.,
0.707106781186548,1.,0.707106781186548,1.)))
REPRESENTATION_ITEM('')
SURFACE()
);
#26=(
BOUNDED_SURFACE()
B_SPLINE_SURFACE(5,2,((#352,#353,#354,#355,#356,#357,#358,#359,#360),(#361,
#362,#363,#364,#365,#366,#367,#368,#369),(#370,#371,#372,#373,#374,#375,
#376,#377,#378),(#379,#380,#381,#382,#383,#384,#385,#386,#387),(#388,#389,
#390,#391,#392,#393,#394,#395,#396),(#397,#398,#399,#400,#401,#402,#403,
#404,#405),(#406,#407,#408,#409,#410,#411,#412,#413,#414),(#415,#416,#417,
#418,#419,#420,#421,#422,#423),(#424,#425,#426,#427,#428,#429,#430,#431,
#432),(#433,#434,#435,#436,#437,#438,#439,#440,#441),(#442,#443,#444,#445,
#446,#447,#448,#449,#450),(#451,#452,#453,#454,#455,#456,#457,#458,#459),
(#460,#461,#462,#463,#464,#465,#466,#467,#468),(#469,#470,#471,#472,#473,
#474,#475,#476,#477),(#478,#479,#480,#481,#482,#483,#484,#485,#486),(#487,
#488,#489,#490,#491,#492,#493,#494,#495),(#496,#497,#498,#499,#500,#501,
#502,#503,#504),(#505,#506,#507,#508,#509,#510,#511,#512,#513),(#514,#515,
#516,#517,#518,#519,#520,#521,#522),(#523,#524,#525,#526,#527,#528,#529,
#530,#531)),.UNSPECIFIED.,.F.,.T.,.F.)
B_SPLINE_SURFACE_WITH_KNOTS((6,1,1,1,1,1,1,1,1,1,1,1,1,1,1,6),(3,2,2,2,
3),(-1.,-0.933333333333333,-0.866666666666667,-0.8,-0.733333333333333,-0.666666666666667,
-0.6,-0.533333333333333,-0.466666666666667,-0.4,-0.333333333333333,-0.266666666666667,
-0.2,-0.133333333333333,-0.0666666666666667,0.),(0.,1.5707963267949,3.14159265358979,
4.71238898038469,6.28318530717959),.UNSPECIFIED.)
GEOMETRIC_REPRESENTATION_ITEM()
RATIONAL_B_SPLINE_SURFACE(((1.,0.707106781186548,1.,0.707106781186548,1.,
0.707106781186548,1.,0.707106781186548,1.),(1.,0.707106781186548,1.,0.707106781186548,
1.,0.707106781186548,1.,0.707106781186548,1.),(1.,0.707106781186548,1.,
0.707106781186548,1.,0.707106781186548,1.,0.707106781186548,1.),(1.,0.707106781186548,
1.,0.707106781186548,1.,0.707106781186548,1.,0.707106781186548,1.),(1.,
0.707106781186548,1.,0.707106781186548,1.,0.707106781186548,1.,0.707106781186548,
1.),(1.,0.707106781186548,1.,0.707106781186548,1.,0.707106781186548,1.,
0.707106781186548,1.),(1.,0.707106781186548,1.,0.707106781186548,1.,0.707106781186548,
1.,0.707106781186548,1.),(1.,0.707106781186548,1.,0.707106781186548,1.,
0.707106781186548,1.,0.707106781186548,1.),(1.,0.707106781186548,1.,0.707106781186548,
1.,0.707106781186548,1.,0.707106781186548,1.),(1.,0.707106781186548,1.,
0.707106781186548,1.,0.707106781186548,1.,0.707106781186548,1.),(1.,0.707106781186548,
1.,0.707106781186548,1.,0.707106781186548,1.,0.707106781186548,1.),(1.,
0.707106781186548,1.,0.707106781186548,1.,0.707106781186548,1.,0.707106781186548,
1.),(1.,0.707106781186548,1.,0.707106781186548,1.,0.707106781186548,1.,
0.707106781186548,1.),(1.,0.707106781186548,1.,0.707106781186548,1.,0.707106781186548,
1.,0.707106781186548,1.),(1.,0.707106781186548,1.,0.707106781186548,1.,
0.707106781186548,1.,0.707106781186548,1.),(1.,0.707106781186548,1.,0.707106781186548,
1.,0.707106781186548,1.,0.707106781186548,1.),(1.,0.707106781186548,1.,
0.707106781186548,1.,0.707106781186548,1.,0.707106781186548,1.),(1.,0.707106781186548,
1.,0.707106781186548,1.,0.707106781186548,1.,0.707106781186548,1.),(1.,
0.707106781186548,1.,0.707106781186548,1.,0.707106781186548,1.,0.707106781186548,
1.),(1.,0.707106781186548,1.,0.707106781186548,1.,0.707106781186548,1.,
0.707106781186548,1.)))
REPRESENTATION_ITEM('')
SURFACE()
);
#27=FACE_OUTER_BOUND('',#37,.T.);
#28=FACE_OUTER_BOUND('',#38,.T.);
#29=FACE_OUTER_BOUND('',#39,.T.);
#30=FACE_OUTER_BOUND('',#40,.T.);
#31=FACE_OUTER_BOUND('',#41,.T.);
#32=FACE_OUTER_BOUND('',#42,.T.);
#33=FACE_OUTER_BOUND('',#44,.T.);
#34=FACE_OUTER_BOUND('',#45,.T.);
#35=FACE_OUTER_BOUND('',#47,.T.);
#36=FACE_OUTER_BOUND('',#48,.T.);
#37=EDGE_LOOP('',(#107,#108,#109,#110,#111));
#38=EDGE_LOOP('',(#112,#113,#114,#115,#116,#117));
#39=EDGE_LOOP('',(#118,#119,#120,#121,#122));
#40=EDGE_LOOP('',(#123,#124,#125,#126,#127,#128));
#41=EDGE_LOOP('',(#129,#130,#131,#132,#133));
#42=EDGE_LOOP('',(#134));
#43=EDGE_LOOP('',(#135));
#44=EDGE_LOOP('',(#136,#137,#138,#139));
#45=EDGE_LOOP('',(#140));
#46=EDGE_LOOP('',(#141));
#47=EDGE_LOOP('',(#142,#143,#144,#145,#146));
#48=EDGE_LOOP('',(#147));
#49=EDGE_LOOP('',(#148));
#50=LINE('',#257,#55);
#51=LINE('',#348,#56);
#52=LINE('',#558,#57);
#53=LINE('',#566,#58);
#54=LINE('',#571,#59);
#55=VECTOR('',#206,1.57999999999937);
#56=VECTOR('',#219,0.5);
#57=VECTOR('',#230,1.8);
#58=VECTOR('',#241,1.6);
#59=VECTOR('',#248,0.28);
#60=CIRCLE('',#179,1.57999999999895);
#61=CIRCLE('',#180,1.57999999999978);
#62=CIRCLE('',#181,1.57999999999895);
#63=CIRCLE('',#182,0.28);
#64=CIRCLE('',#183,0.28);
#65=CIRCLE('',#186,0.5);
#66=CIRCLE('',#187,0.5);
#67=CIRCLE('',#188,1.8);
#68=CIRCLE('',#189,1.8);
#69=CIRCLE('',#191,1.8);
#70=CIRCLE('',#193,1.6);
#71=CIRCLE('',#195,1.6);
#72=VERTEX_POINT('',#253);
#73=VERTEX_POINT('',#254);
#74=VERTEX_POINT('',#256);
#75=VERTEX_POINT('',#332);
#76=VERTEX_POINT('',#341);
#77=VERTEX_POINT('',#345);
#78=VERTEX_POINT('',#347);
#79=VERTEX_POINT('',#349);
#80=VERTEX_POINT('',#532);
#81=VERTEX_POINT('',#553);
#82=VERTEX_POINT('',#557);
#83=VERTEX_POINT('',#561);
#84=VERTEX_POINT('',#564);
#85=VERTEX_POINT('',#569);
#86=EDGE_CURVE('',#72,#73,#60,.T.);
#87=EDGE_CURVE('',#73,#74,#50,.T.);
#88=EDGE_CURVE('',#74,#74,#61,.T.);
#89=EDGE_CURVE('',#73,#72,#62,.T.);
#90=EDGE_CURVE('',#72,#75,#24,.T.);
#91=EDGE_CURVE('',#75,#76,#63,.T.);
#92=EDGE_CURVE('',#76,#75,#64,.T.);
#93=EDGE_CURVE('',#77,#77,#22,.T.);
#94=EDGE_CURVE('',#77,#78,#51,.T.);
#95=EDGE_CURVE('',#78,#79,#65,.T.);
#96=EDGE_CURVE('',#79,#78,#66,.T.);
#97=EDGE_CURVE('',#80,#79,#21,.T.);
#98=EDGE_CURVE('',#80,#81,#67,.T.);
#99=EDGE_CURVE('',#81,#80,#68,.T.);
#100=EDGE_CURVE('',#81,#82,#52,.T.);
#101=EDGE_CURVE('',#82,#82,#69,.T.);
#102=EDGE_CURVE('',#83,#83,#70,.T.);
#103=EDGE_CURVE('',#84,#84,#71,.T.);
#104=EDGE_CURVE('',#84,#83,#53,.T.);
#105=EDGE_CURVE('',#85,#85,#23,.T.);
#106=EDGE_CURVE('',#85,#76,#54,.T.);
#107=ORIENTED_EDGE('',*,*,#86,.T.);
#108=ORIENTED_EDGE('',*,*,#87,.T.);
#109=ORIENTED_EDGE('',*,*,#88,.F.);
#110=ORIENTED_EDGE('',*,*,#87,.F.);
#111=ORIENTED_EDGE('',*,*,#89,.T.);
#112=ORIENTED_EDGE('',*,*,#90,.T.);
#113=ORIENTED_EDGE('',*,*,#91,.T.);
#114=ORIENTED_EDGE('',*,*,#92,.T.);
#115=ORIENTED_EDGE('',*,*,#90,.F.);
#116=ORIENTED_EDGE('',*,*,#89,.F.);
#117=ORIENTED_EDGE('',*,*,#86,.F.);
#118=ORIENTED_EDGE('',*,*,#93,.F.);
#119=ORIENTED_EDGE('',*,*,#94,.T.);
#120=ORIENTED_EDGE('',*,*,#95,.T.);
#121=ORIENTED_EDGE('',*,*,#96,.T.);
#122=ORIENTED_EDGE('',*,*,#94,.F.);
#123=ORIENTED_EDGE('',*,*,#97,.F.);
#124=ORIENTED_EDGE('',*,*,#98,.T.);
#125=ORIENTED_EDGE('',*,*,#99,.T.);
#126=ORIENTED_EDGE('',*,*,#97,.T.);
#127=ORIENTED_EDGE('',*,*,#95,.F.);
#128=ORIENTED_EDGE('',*,*,#96,.F.);
#129=ORIENTED_EDGE('',*,*,#98,.F.);
#130=ORIENTED_EDGE('',*,*,#99,.F.);
#131=ORIENTED_EDGE('',*,*,#100,.T.);
#132=ORIENTED_EDGE('',*,*,#101,.T.);
#133=ORIENTED_EDGE('',*,*,#100,.F.);
#134=ORIENTED_EDGE('',*,*,#101,.F.);
#135=ORIENTED_EDGE('',*,*,#102,.T.);
#136=ORIENTED_EDGE('',*,*,#103,.T.);
#137=ORIENTED_EDGE('',*,*,#104,.T.);
#138=ORIENTED_EDGE('',*,*,#102,.F.);
#139=ORIENTED_EDGE('',*,*,#104,.F.);
#140=ORIENTED_EDGE('',*,*,#103,.F.);
#141=ORIENTED_EDGE('',*,*,#88,.T.);
#142=ORIENTED_EDGE('',*,*,#105,.F.);
#143=ORIENTED_EDGE('',*,*,#106,.T.);
#144=ORIENTED_EDGE('',*,*,#91,.F.);
#145=ORIENTED_EDGE('',*,*,#92,.F.);
#146=ORIENTED_EDGE('',*,*,#106,.F.);
#147=ORIENTED_EDGE('',*,*,#93,.T.);
#148=ORIENTED_EDGE('',*,*,#105,.T.);
#149=CYLINDRICAL_SURFACE('',#178,1.57999999999937);
#150=CYLINDRICAL_SURFACE('',#184,0.5);
#151=CYLINDRICAL_SURFACE('',#190,1.8);
#152=CYLINDRICAL_SURFACE('',#194,1.6);
#153=CYLINDRICAL_SURFACE('',#197,0.28);
#154=ADVANCED_FACE('',(#27),#149,.F.);
#155=ADVANCED_FACE('',(#28),#25,.T.);
#156=ADVANCED_FACE('',(#29),#150,.T.);
#157=ADVANCED_FACE('',(#30),#26,.T.);
#158=ADVANCED_FACE('',(#31),#151,.T.);
#159=ADVANCED_FACE('',(#32,#15),#18,.T.);
#160=ADVANCED_FACE('',(#33),#152,.F.);
#161=ADVANCED_FACE('',(#34,#16),#19,.T.);
#162=ADVANCED_FACE('',(#35),#153,.F.);
#163=ADVANCED_FACE('',(#36,#17),#20,.T.);
#164=CLOSED_SHELL('',(#154,#155,#156,#157,#158,#159,#160,#161,#162,#163));
#165=DERIVED_UNIT_ELEMENT(#167,1.);
#166=DERIVED_UNIT_ELEMENT(#578,-3.);
#167=(
MASS_UNIT()
NAMED_UNIT(*)
SI_UNIT(.KILO.,.GRAM.)
);
#168=DERIVED_UNIT((#165,#166));
#169=MEASURE_REPRESENTATION_ITEM('density measure',
POSITIVE_RATIO_MEASURE(7850.),#168);
#170=PROPERTY_DEFINITION_REPRESENTATION(#175,#172);
#171=PROPERTY_DEFINITION_REPRESENTATION(#176,#173);
#172=REPRESENTATION('material name',(#174),#575);
#173=REPRESENTATION('density',(#169),#575);
#174=DESCRIPTIVE_REPRESENTATION_ITEM('Steel','Steel');
#175=PROPERTY_DEFINITION('material property','material name',#585);
#176=PROPERTY_DEFINITION('material property','density of part',#585);
#177=AXIS2_PLACEMENT_3D('placement',#251,#200,#201);
#178=AXIS2_PLACEMENT_3D('',#252,#202,#203);
#179=AXIS2_PLACEMENT_3D('',#255,#204,#205);
#180=AXIS2_PLACEMENT_3D('',#258,#207,#208);
#181=AXIS2_PLACEMENT_3D('',#259,#209,#210);
#182=AXIS2_PLACEMENT_3D('',#342,#211,#212);
#183=AXIS2_PLACEMENT_3D('',#343,#213,#214);
#184=AXIS2_PLACEMENT_3D('',#344,#215,#216);
#185=AXIS2_PLACEMENT_3D('',#346,#217,#218);
#186=AXIS2_PLACEMENT_3D('',#350,#220,#221);
#187=AXIS2_PLACEMENT_3D('',#351,#222,#223);
#188=AXIS2_PLACEMENT_3D('',#554,#224,#225);
#189=AXIS2_PLACEMENT_3D('',#555,#226,#227);
#190=AXIS2_PLACEMENT_3D('',#556,#228,#229);
#191=AXIS2_PLACEMENT_3D('',#559,#231,#232);
#192=AXIS2_PLACEMENT_3D('',#560,#233,#234);
#193=AXIS2_PLACEMENT_3D('',#562,#235,#236);
#194=AXIS2_PLACEMENT_3D('',#563,#237,#238);
#195=AXIS2_PLACEMENT_3D('',#565,#239,#240);
#196=AXIS2_PLACEMENT_3D('',#567,#242,#243);
#197=AXIS2_PLACEMENT_3D('',#568,#244,#245);
#198=AXIS2_PLACEMENT_3D('',#570,#246,#247);
#199=AXIS2_PLACEMENT_3D('',#572,#249,#250);
#200=DIRECTION('axis',(0.,0.,1.));
#201=DIRECTION('refdir',(1.,0.,0.));
#202=DIRECTION('center_axis',(0.,-1.,0.));
#203=DIRECTION('ref_axis',(1.,0.,0.));
#204=DIRECTION('center_axis',(0.,-1.,0.));
#205=DIRECTION('ref_axis',(1.,0.,0.));
#206=DIRECTION('',(0.,1.,0.));
#207=DIRECTION('center_axis',(0.,-1.,0.));
#208=DIRECTION('ref_axis',(1.,0.,0.));
#209=DIRECTION('center_axis',(0.,-1.,0.));
#210=DIRECTION('ref_axis',(1.,0.,0.));
#211=DIRECTION('center_axis',(0.,-1.,0.));
#212=DIRECTION('ref_axis',(1.,0.,0.));
#213=DIRECTION('center_axis',(0.,-1.,0.));
#214=DIRECTION('ref_axis',(1.,0.,0.));
#215=DIRECTION('center_axis',(0.,-1.,0.));
#216=DIRECTION('ref_axis',(1.,0.,0.));
#217=DIRECTION('center_axis',(0.707106781186548,-0.707106781186548,0.));
#218=DIRECTION('ref_axis',(0.707106781186547,0.707106781186547,0.));
#219=DIRECTION('',(0.,1.,0.));
#220=DIRECTION('center_axis',(0.,-1.,0.));
#221=DIRECTION('ref_axis',(1.,0.,0.));
#222=DIRECTION('center_axis',(0.,-1.,0.));
#223=DIRECTION('ref_axis',(1.,0.,0.));
#224=DIRECTION('center_axis',(0.,-1.,0.));
#225=DIRECTION('ref_axis',(1.,0.,0.));
#226=DIRECTION('center_axis',(0.,-1.,0.));
#227=DIRECTION('ref_axis',(1.,0.,0.));
#228=DIRECTION('center_axis',(0.,-1.,0.));
#229=DIRECTION('ref_axis',(1.,0.,0.));
#230=DIRECTION('',(0.,1.,0.));
#231=DIRECTION('center_axis',(0.,-1.,0.));
#232=DIRECTION('ref_axis',(1.,0.,0.));
#233=DIRECTION('center_axis',(0.,1.,0.));
#234=DIRECTION('ref_axis',(0.,0.,1.));
#235=DIRECTION('center_axis',(0.,-1.,0.));
#236=DIRECTION('ref_axis',(1.,0.,0.));
#237=DIRECTION('center_axis',(0.,-1.,0.));
#238=DIRECTION('ref_axis',(1.,0.,0.));
#239=DIRECTION('center_axis',(0.,-1.,0.));
#240=DIRECTION('ref_axis',(1.,0.,0.));
#241=DIRECTION('',(0.,1.,0.));
#242=DIRECTION('center_axis',(0.,1.,0.));
#243=DIRECTION('ref_axis',(0.,0.,1.));
#244=DIRECTION('center_axis',(0.,-1.,0.));
#245=DIRECTION('ref_axis',(1.,0.,0.));
#246=DIRECTION('center_axis',(-0.707106781186548,0.707106781186548,0.));
#247=DIRECTION('ref_axis',(0.707106781186548,0.707106781186548,0.));
#248=DIRECTION('',(0.,1.,0.));
#249=DIRECTION('center_axis',(0.707106781186548,-0.707106781186548,0.));
#250=DIRECTION('ref_axis',(0.707106781186548,0.707106781186548,0.));
#251=CARTESIAN_POINT('',(0.,0.,0.));
#252=CARTESIAN_POINT('Origin',(0.,8.14999999999855,0.));
#253=CARTESIAN_POINT('',(1.57999999999895,6.9999999999971,0.));
#254=CARTESIAN_POINT('',(-1.57999999999937,6.9999999999971,-1.93494194265204E-16));
#255=CARTESIAN_POINT('Origin',(0.,6.9999999999971,0.));
#256=CARTESIAN_POINT('',(-1.57999999999937,9.3,-1.93494194265204E-16));
#257=CARTESIAN_POINT('',(-1.57999999999937,8.14999999999855,-1.93494194265204E-16));
#258=CARTESIAN_POINT('Origin',(0.,9.3,0.));
#259=CARTESIAN_POINT('Origin',(0.,6.9999999999971,0.));
#260=CARTESIAN_POINT('Ctrl Pts',(1.57999999999895,6.9999999999971,0.));
#261=CARTESIAN_POINT('Ctrl Pts',(1.57999999999895,6.9999999999971,1.57999999999895));
#262=CARTESIAN_POINT('Ctrl Pts',(0.,6.9999999999971,1.57999999999895));
#263=CARTESIAN_POINT('Ctrl Pts',(-1.57999999999895,6.9999999999971,1.57999999999895));
#264=CARTESIAN_POINT('Ctrl Pts',(-1.57999999999895,6.9999999999971,0.));
#265=CARTESIAN_POINT('Ctrl Pts',(-1.57999999999895,6.9999999999971,-1.57999999999895));
#266=CARTESIAN_POINT('Ctrl Pts',(0.,6.9999999999971,-1.57999999999895));
#267=CARTESIAN_POINT('Ctrl Pts',(1.57999999999895,6.9999999999971,-1.57999999999895));
#268=CARTESIAN_POINT('Ctrl Pts',(1.57999999999895,6.9999999999971,0.));
#269=CARTESIAN_POINT('Ctrl Pts',(1.54642589227907,6.90771235829131,0.));
#270=CARTESIAN_POINT('Ctrl Pts',(1.54642589227907,6.90771235829131,1.54642589227907));
#271=CARTESIAN_POINT('Ctrl Pts',(0.,6.90771235829131,1.54642589227907));
#272=CARTESIAN_POINT('Ctrl Pts',(-1.54642589227907,6.90771235829131,1.54642589227907));
#273=CARTESIAN_POINT('Ctrl Pts',(-1.54642589227907,6.90771235829131,0.));
#274=CARTESIAN_POINT('Ctrl Pts',(-1.54642589227907,6.90771235829131,-1.54642589227907));
#275=CARTESIAN_POINT('Ctrl Pts',(0.,6.90771235829131,-1.54642589227907));
#276=CARTESIAN_POINT('Ctrl Pts',(1.54642589227907,6.90771235829131,-1.54642589227907));
#277=CARTESIAN_POINT('Ctrl Pts',(1.54642589227907,6.90771235829131,0.));
#278=CARTESIAN_POINT('Ctrl Pts',(1.47125438805873,6.70108286553298,0.));
#279=CARTESIAN_POINT('Ctrl Pts',(1.47125438805873,6.70108286553298,1.47125438805873));
#280=CARTESIAN_POINT('Ctrl Pts',(0.,6.70108286553298,1.47125438805873));
#281=CARTESIAN_POINT('Ctrl Pts',(-1.47125438805873,6.70108286553298,1.47125438805873));
#282=CARTESIAN_POINT('Ctrl Pts',(-1.47125438805873,6.70108286553298,0.));
#283=CARTESIAN_POINT('Ctrl Pts',(-1.47125438805873,6.70108286553298,-1.47125438805873));
#284=CARTESIAN_POINT('Ctrl Pts',(0.,6.70108286553298,-1.47125438805873));
#285=CARTESIAN_POINT('Ctrl Pts',(1.47125438805873,6.70108286553298,-1.47125438805873));
#286=CARTESIAN_POINT('Ctrl Pts',(1.47125438805873,6.70108286553298,0.));
#287=CARTESIAN_POINT('Ctrl Pts',(1.10391419873957,6.52381067626066,0.));
#288=CARTESIAN_POINT('Ctrl Pts',(1.10391419873957,6.52381067626066,1.10391419873957));
#289=CARTESIAN_POINT('Ctrl Pts',(0.,6.52381067626066,1.10391419873957));
#290=CARTESIAN_POINT('Ctrl Pts',(-1.10391419873957,6.52381067626066,1.10391419873957));
#291=CARTESIAN_POINT('Ctrl Pts',(-1.10391419873957,6.52381067626066,0.));
#292=CARTESIAN_POINT('Ctrl Pts',(-1.10391419873957,6.52381067626066,-1.10391419873957));
#293=CARTESIAN_POINT('Ctrl Pts',(0.,6.52381067626066,-1.10391419873957));
#294=CARTESIAN_POINT('Ctrl Pts',(1.10391419873957,6.52381067626066,-1.10391419873957));
#295=CARTESIAN_POINT('Ctrl Pts',(1.10391419873957,6.52381067626066,0.));
#296=CARTESIAN_POINT('Ctrl Pts',(0.736923489331505,6.39325919875473,0.));
#297=CARTESIAN_POINT('Ctrl Pts',(0.736923489331505,6.39325919875473,0.736923489331505));
#298=CARTESIAN_POINT('Ctrl Pts',(0.,6.39325919875473,0.736923489331505));
#299=CARTESIAN_POINT('Ctrl Pts',(-0.736923489331505,6.39325919875473,0.736923489331505));
#300=CARTESIAN_POINT('Ctrl Pts',(-0.736923489331505,6.39325919875473,0.));
#301=CARTESIAN_POINT('Ctrl Pts',(-0.736923489331505,6.39325919875473,-0.736923489331505));
#302=CARTESIAN_POINT('Ctrl Pts',(0.,6.39325919875473,-0.736923489331505));
#303=CARTESIAN_POINT('Ctrl Pts',(0.736923489331505,6.39325919875473,-0.736923489331505));
#304=CARTESIAN_POINT('Ctrl Pts',(0.736923489331505,6.39325919875473,0.));
#305=CARTESIAN_POINT('Ctrl Pts',(0.361359925938347,6.14683245498635,0.));
#306=CARTESIAN_POINT('Ctrl Pts',(0.361359925938347,6.14683245498635,0.361359925938347));
#307=CARTESIAN_POINT('Ctrl Pts',(0.,6.14683245498635,0.361359925938347));
#308=CARTESIAN_POINT('Ctrl Pts',(-0.361359925938347,6.14683245498635,0.361359925938347));
#309=CARTESIAN_POINT('Ctrl Pts',(-0.361359925938347,6.14683245498635,0.));
#310=CARTESIAN_POINT('Ctrl Pts',(-0.361359925938347,6.14683245498635,-0.361359925938347));
#311=CARTESIAN_POINT('Ctrl Pts',(0.,6.14683245498635,-0.361359925938347));
#312=CARTESIAN_POINT('Ctrl Pts',(0.361359925938347,6.14683245498635,-0.361359925938347));
#313=CARTESIAN_POINT('Ctrl Pts',(0.361359925938347,6.14683245498635,0.));
#314=CARTESIAN_POINT('Ctrl Pts',(0.30840772515413,5.88856005784075,0.));
#315=CARTESIAN_POINT('Ctrl Pts',(0.30840772515413,5.88856005784075,0.30840772515413));
#316=CARTESIAN_POINT('Ctrl Pts',(0.,5.88856005784075,0.30840772515413));
#317=CARTESIAN_POINT('Ctrl Pts',(-0.30840772515413,5.88856005784075,0.30840772515413));
#318=CARTESIAN_POINT('Ctrl Pts',(-0.30840772515413,5.88856005784075,0.));
#319=CARTESIAN_POINT('Ctrl Pts',(-0.30840772515413,5.88856005784075,-0.30840772515413));
#320=CARTESIAN_POINT('Ctrl Pts',(0.,5.88856005784075,-0.30840772515413));
#321=CARTESIAN_POINT('Ctrl Pts',(0.30840772515413,5.88856005784075,-0.30840772515413));
#322=CARTESIAN_POINT('Ctrl Pts',(0.30840772515413,5.88856005784075,0.));
#323=CARTESIAN_POINT('Ctrl Pts',(0.28,5.75000243106884,0.));
#324=CARTESIAN_POINT('Ctrl Pts',(0.28,5.75000243106884,0.28));
#325=CARTESIAN_POINT('Ctrl Pts',(0.,5.75000243106884,0.28));
#326=CARTESIAN_POINT('Ctrl Pts',(-0.28,5.75000243106884,0.28));
#327=CARTESIAN_POINT('Ctrl Pts',(-0.28,5.75000243106884,0.));
#328=CARTESIAN_POINT('Ctrl Pts',(-0.28,5.75000243106884,-0.28));
#329=CARTESIAN_POINT('Ctrl Pts',(0.,5.75000243106884,-0.28));
#330=CARTESIAN_POINT('Ctrl Pts',(0.28,5.75000243106884,-0.28));
#331=CARTESIAN_POINT('Ctrl Pts',(0.28,5.75000243106884,0.));
#332=CARTESIAN_POINT('',(0.28,5.75000243106884,0.));
#333=CARTESIAN_POINT('Ctrl Pts',(1.57999999999895,6.9999999999971,0.));
#334=CARTESIAN_POINT('Ctrl Pts',(1.54642589227907,6.90771235829131,0.));
#335=CARTESIAN_POINT('Ctrl Pts',(1.47125438805873,6.70108286553298,0.));
#336=CARTESIAN_POINT('Ctrl Pts',(1.10391419873957,6.52381067626066,0.));
#337=CARTESIAN_POINT('Ctrl Pts',(0.736923489331505,6.39325919875473,0.));
#338=CARTESIAN_POINT('Ctrl Pts',(0.361359925938347,6.14683245498635,0.));
#339=CARTESIAN_POINT('Ctrl Pts',(0.30840772515413,5.88856005784075,0.));
#340=CARTESIAN_POINT('Ctrl Pts',(0.28,5.75000243106884,0.));
#341=CARTESIAN_POINT('',(-0.28,5.75000243106884,-3.42901103761259E-17));
#342=CARTESIAN_POINT('Origin',(0.,5.75000243106884,0.));
#343=CARTESIAN_POINT('Origin',(0.,5.75000243106884,0.));
#344=CARTESIAN_POINT('Origin',(0.,3.875,0.));
#345=CARTESIAN_POINT('',(-0.5,2.,0.));
#346=CARTESIAN_POINT('Origin',(0.,2.5,0.));
#347=CARTESIAN_POINT('',(-0.5,5.75,-6.12323399573677E-17));
#348=CARTESIAN_POINT('',(-0.5,3.875,-6.12323399573677E-17));
#349=CARTESIAN_POINT('',(0.5,5.75,0.));
#350=CARTESIAN_POINT('Origin',(0.,5.75,0.));
#351=CARTESIAN_POINT('Origin',(0.,5.75,0.));
#352=CARTESIAN_POINT('Ctrl Pts',(0.5,5.75,0.));
#353=CARTESIAN_POINT('Ctrl Pts',(0.5,5.75,0.5));
#354=CARTESIAN_POINT('Ctrl Pts',(0.,5.75,0.5));
#355=CARTESIAN_POINT('Ctrl Pts',(-0.5,5.75,0.5));
#356=CARTESIAN_POINT('Ctrl Pts',(-0.5,5.75,0.));
#357=CARTESIAN_POINT('Ctrl Pts',(-0.5,5.75,-0.5));
#358=CARTESIAN_POINT('Ctrl Pts',(0.,5.75,-0.5));
#359=CARTESIAN_POINT('Ctrl Pts',(0.5,5.75,-0.5));
#360=CARTESIAN_POINT('Ctrl Pts',(0.5,5.75,0.));
#361=CARTESIAN_POINT('Ctrl Pts',(0.5,5.78130192968809,0.));
#362=CARTESIAN_POINT('Ctrl Pts',(0.5,5.78130192968809,0.5));
#363=CARTESIAN_POINT('Ctrl Pts',(0.,5.78130192968809,0.5));
#364=CARTESIAN_POINT('Ctrl Pts',(-0.5,5.78130192968809,0.5));
#365=CARTESIAN_POINT('Ctrl Pts',(-0.5,5.78130192968809,0.));
#366=CARTESIAN_POINT('Ctrl Pts',(-0.5,5.78130192968809,-0.5));
#367=CARTESIAN_POINT('Ctrl Pts',(0.,5.78130192968809,-0.5));
#368=CARTESIAN_POINT('Ctrl Pts',(0.5,5.78130192968809,-0.5));
#369=CARTESIAN_POINT('Ctrl Pts',(0.5,5.78130192968809,0.));
#370=CARTESIAN_POINT('Ctrl Pts',(0.505131997679205,5.84107331452907,0.));
#371=CARTESIAN_POINT('Ctrl Pts',(0.505131997679205,5.84107331452907,0.505131997679205));
#372=CARTESIAN_POINT('Ctrl Pts',(0.,5.84107331452907,0.505131997679205));
#373=CARTESIAN_POINT('Ctrl Pts',(-0.505131997679205,5.84107331452907,0.505131997679205));
#374=CARTESIAN_POINT('Ctrl Pts',(-0.505131997679205,5.84107331452907,0.));
#375=CARTESIAN_POINT('Ctrl Pts',(-0.505131997679205,5.84107331452907,-0.505131997679205));
#376=CARTESIAN_POINT('Ctrl Pts',(0.,5.84107331452907,-0.505131997679205));
#377=CARTESIAN_POINT('Ctrl Pts',(0.505131997679205,5.84107331452907,-0.505131997679205));
#378=CARTESIAN_POINT('Ctrl Pts',(0.505131997679205,5.84107331452907,0.));
#379=CARTESIAN_POINT('Ctrl Pts',(0.528226098408245,5.92223304756909,0.));
#380=CARTESIAN_POINT('Ctrl Pts',(0.528226098408245,5.92223304756909,0.528226098408245));
#381=CARTESIAN_POINT('Ctrl Pts',(0.,5.92223304756909,0.528226098408245));
#382=CARTESIAN_POINT('Ctrl Pts',(-0.528226098408245,5.92223304756909,0.528226098408245));
#383=CARTESIAN_POINT('Ctrl Pts',(-0.528226098408245,5.92223304756909,0.));
#384=CARTESIAN_POINT('Ctrl Pts',(-0.528226098408245,5.92223304756909,-0.528226098408245));
#385=CARTESIAN_POINT('Ctrl Pts',(0.,5.92223304756909,-0.528226098408245));
#386=CARTESIAN_POINT('Ctrl Pts',(0.528226098408245,5.92223304756909,-0.528226098408245));
#387=CARTESIAN_POINT('Ctrl Pts',(0.528226098408245,5.92223304756909,0.));
#388=CARTESIAN_POINT('Ctrl Pts',(0.587651245000263,6.01403165115707,0.));
#389=CARTESIAN_POINT('Ctrl Pts',(0.587651245000263,6.01403165115707,0.587651245000263));
#390=CARTESIAN_POINT('Ctrl Pts',(0.,6.01403165115707,0.587651245000263));
#391=CARTESIAN_POINT('Ctrl Pts',(-0.587651245000263,6.01403165115707,0.587651245000263));
#392=CARTESIAN_POINT('Ctrl Pts',(-0.587651245000263,6.01403165115707,0.));
#393=CARTESIAN_POINT('Ctrl Pts',(-0.587651245000263,6.01403165115707,-0.587651245000263));
#394=CARTESIAN_POINT('Ctrl Pts',(0.,6.01403165115707,-0.587651245000263));
#395=CARTESIAN_POINT('Ctrl Pts',(0.587651245000263,6.01403165115707,-0.587651245000263));
#396=CARTESIAN_POINT('Ctrl Pts',(0.587651245000263,6.01403165115707,0.));
#397=CARTESIAN_POINT('Ctrl Pts',(0.697354407041117,6.10491159782857,0.));
#398=CARTESIAN_POINT('Ctrl Pts',(0.697354407041117,6.10491159782857,0.697354407041117));
#399=CARTESIAN_POINT('Ctrl Pts',(0.,6.10491159782857,0.697354407041117));
#400=CARTESIAN_POINT('Ctrl Pts',(-0.697354407041117,6.10491159782857,0.697354407041117));
#401=CARTESIAN_POINT('Ctrl Pts',(-0.697354407041117,6.10491159782857,0.));
#402=CARTESIAN_POINT('Ctrl Pts',(-0.697354407041117,6.10491159782857,-0.697354407041117));
#403=CARTESIAN_POINT('Ctrl Pts',(0.,6.10491159782857,-0.697354407041117));
#404=CARTESIAN_POINT('Ctrl Pts',(0.697354407041117,6.10491159782857,-0.697354407041117));
#405=CARTESIAN_POINT('Ctrl Pts',(0.697354407041117,6.10491159782857,0.));
#406=CARTESIAN_POINT('Ctrl Pts',(0.826799284763861,6.17670704292231,0.));
#407=CARTESIAN_POINT('Ctrl Pts',(0.826799284763861,6.17670704292231,0.826799284763861));
#408=CARTESIAN_POINT('Ctrl Pts',(0.,6.17670704292231,0.826799284763861));
#409=CARTESIAN_POINT('Ctrl Pts',(-0.826799284763861,6.17670704292231,0.826799284763861));
#410=CARTESIAN_POINT('Ctrl Pts',(-0.826799284763861,6.17670704292231,0.));
#411=CARTESIAN_POINT('Ctrl Pts',(-0.826799284763861,6.17670704292231,-0.826799284763861));
#412=CARTESIAN_POINT('Ctrl Pts',(0.,6.17670704292231,-0.826799284763861));
#413=CARTESIAN_POINT('Ctrl Pts',(0.826799284763861,6.17670704292231,-0.826799284763861));
#414=CARTESIAN_POINT('Ctrl Pts',(0.826799284763861,6.17670704292231,0.));
#415=CARTESIAN_POINT('Ctrl Pts',(0.960496422970506,6.23481995736543,0.));
#416=CARTESIAN_POINT('Ctrl Pts',(0.960496422970506,6.23481995736543,0.960496422970506));
#417=CARTESIAN_POINT('Ctrl Pts',(0.,6.23481995736543,0.960496422970506));
#418=CARTESIAN_POINT('Ctrl Pts',(-0.960496422970506,6.23481995736543,0.960496422970506));
#419=CARTESIAN_POINT('Ctrl Pts',(-0.960496422970506,6.23481995736543,0.));
#420=CARTESIAN_POINT('Ctrl Pts',(-0.960496422970506,6.23481995736543,-0.960496422970506));
#421=CARTESIAN_POINT('Ctrl Pts',(0.,6.23481995736543,-0.960496422970506));
#422=CARTESIAN_POINT('Ctrl Pts',(0.960496422970506,6.23481995736543,-0.960496422970506));
#423=CARTESIAN_POINT('Ctrl Pts',(0.960496422970506,6.23481995736543,0.));
#424=CARTESIAN_POINT('Ctrl Pts',(1.08620259944396,6.28470103243258,0.));
#425=CARTESIAN_POINT('Ctrl Pts',(1.08620259944396,6.28470103243258,1.08620259944396));
#426=CARTESIAN_POINT('Ctrl Pts',(0.,6.28470103243258,1.08620259944396));
#427=CARTESIAN_POINT('Ctrl Pts',(-1.08620259944396,6.28470103243258,1.08620259944396));
#428=CARTESIAN_POINT('Ctrl Pts',(-1.08620259944396,6.28470103243258,0.));
#429=CARTESIAN_POINT('Ctrl Pts',(-1.08620259944396,6.28470103243258,-1.08620259944396));
#430=CARTESIAN_POINT('Ctrl Pts',(0.,6.28470103243258,-1.08620259944396));
#431=CARTESIAN_POINT('Ctrl Pts',(1.08620259944396,6.28470103243258,-1.08620259944396));
#432=CARTESIAN_POINT('Ctrl Pts',(1.08620259944396,6.28470103243258,0.));
#433=CARTESIAN_POINT('Ctrl Pts',(1.19920444906548,6.33119781431296,0.));
#434=CARTESIAN_POINT('Ctrl Pts',(1.19920444906548,6.33119781431296,1.19920444906548));
#435=CARTESIAN_POINT('Ctrl Pts',(0.,6.33119781431296,1.19920444906548));
#436=CARTESIAN_POINT('Ctrl Pts',(-1.19920444906548,6.33119781431296,1.19920444906548));
#437=CARTESIAN_POINT('Ctrl Pts',(-1.19920444906548,6.33119781431296,0.));
#438=CARTESIAN_POINT('Ctrl Pts',(-1.19920444906548,6.33119781431296,-1.19920444906548));
#439=CARTESIAN_POINT('Ctrl Pts',(0.,6.33119781431296,-1.19920444906548));
#440=CARTESIAN_POINT('Ctrl Pts',(1.19920444906548,6.33119781431296,-1.19920444906548));
#441=CARTESIAN_POINT('Ctrl Pts',(1.19920444906548,6.33119781431296,0.));
#442=CARTESIAN_POINT('Ctrl Pts',(1.30113765865615,6.37847884769794,0.));
#443=CARTESIAN_POINT('Ctrl Pts',(1.30113765865615,6.37847884769794,1.30113765865615));
#444=CARTESIAN_POINT('Ctrl Pts',(0.,6.37847884769794,1.30113765865615));
#445=CARTESIAN_POINT('Ctrl Pts',(-1.30113765865615,6.37847884769794,1.30113765865615));
#446=CARTESIAN_POINT('Ctrl Pts',(-1.30113765865615,6.37847884769794,0.));
#447=CARTESIAN_POINT('Ctrl Pts',(-1.30113765865615,6.37847884769794,-1.30113765865615));
#448=CARTESIAN_POINT('Ctrl Pts',(0.,6.37847884769794,-1.30113765865615));
#449=CARTESIAN_POINT('Ctrl Pts',(1.30113765865615,6.37847884769794,-1.30113765865615));
#450=CARTESIAN_POINT('Ctrl Pts',(1.30113765865615,6.37847884769794,0.));
#451=CARTESIAN_POINT('Ctrl Pts',(1.39640426950422,6.43021416125069,0.));
#452=CARTESIAN_POINT('Ctrl Pts',(1.39640426950422,6.43021416125069,1.39640426950422));
#453=CARTESIAN_POINT('Ctrl Pts',(0.,6.43021416125069,1.39640426950422));
#454=CARTESIAN_POINT('Ctrl Pts',(-1.39640426950422,6.43021416125069,1.39640426950422));
#455=CARTESIAN_POINT('Ctrl Pts',(-1.39640426950422,6.43021416125069,0.));
#456=CARTESIAN_POINT('Ctrl Pts',(-1.39640426950422,6.43021416125069,-1.39640426950422));
#457=CARTESIAN_POINT('Ctrl Pts',(0.,6.43021416125069,-1.39640426950422));
#458=CARTESIAN_POINT('Ctrl Pts',(1.39640426950422,6.43021416125069,-1.39640426950422));
#459=CARTESIAN_POINT('Ctrl Pts',(1.39640426950422,6.43021416125069,0.));
#460=CARTESIAN_POINT('Ctrl Pts',(1.48941764625844,6.48966117560856,0.));
#461=CARTESIAN_POINT('Ctrl Pts',(1.48941764625844,6.48966117560856,1.48941764625844));
#462=CARTESIAN_POINT('Ctrl Pts',(0.,6.48966117560856,1.48941764625844));
#463=CARTESIAN_POINT('Ctrl Pts',(-1.48941764625844,6.48966117560856,1.48941764625844));
#464=CARTESIAN_POINT('Ctrl Pts',(-1.48941764625844,6.48966117560856,0.));
#465=CARTESIAN_POINT('Ctrl Pts',(-1.48941764625844,6.48966117560856,-1.48941764625844));
#466=CARTESIAN_POINT('Ctrl Pts',(0.,6.48966117560856,-1.48941764625844));
#467=CARTESIAN_POINT('Ctrl Pts',(1.48941764625844,6.48966117560856,-1.48941764625844));
#468=CARTESIAN_POINT('Ctrl Pts',(1.48941764625844,6.48966117560856,0.));
#469=CARTESIAN_POINT('Ctrl Pts',(1.58172263823745,6.55976189369186,0.));
#470=CARTESIAN_POINT('Ctrl Pts',(1.58172263823745,6.55976189369186,1.58172263823745));
#471=CARTESIAN_POINT('Ctrl Pts',(0.,6.55976189369186,1.58172263823745));
#472=CARTESIAN_POINT('Ctrl Pts',(-1.58172263823745,6.55976189369186,1.58172263823745));
#473=CARTESIAN_POINT('Ctrl Pts',(-1.58172263823745,6.55976189369186,0.));
#474=CARTESIAN_POINT('Ctrl Pts',(-1.58172263823745,6.55976189369186,-1.58172263823745));
#475=CARTESIAN_POINT('Ctrl Pts',(0.,6.55976189369186,-1.58172263823745));
#476=CARTESIAN_POINT('Ctrl Pts',(1.58172263823745,6.55976189369186,-1.58172263823745));
#477=CARTESIAN_POINT('Ctrl Pts',(1.58172263823745,6.55976189369186,0.));
#478=CARTESIAN_POINT('Ctrl Pts',(1.66867876082857,6.64320892298753,0.));
#479=CARTESIAN_POINT('Ctrl Pts',(1.66867876082857,6.64320892298753,1.66867876082857));
#480=CARTESIAN_POINT('Ctrl Pts',(0.,6.64320892298753,1.66867876082857));
#481=CARTESIAN_POINT('Ctrl Pts',(-1.66867876082857,6.64320892298753,1.66867876082857));
#482=CARTESIAN_POINT('Ctrl Pts',(-1.66867876082857,6.64320892298753,0.));
#483=CARTESIAN_POINT('Ctrl Pts',(-1.66867876082857,6.64320892298753,-1.66867876082857));
#484=CARTESIAN_POINT('Ctrl Pts',(0.,6.64320892298753,-1.66867876082857));
#485=CARTESIAN_POINT('Ctrl Pts',(1.66867876082857,6.64320892298753,-1.66867876082857));
#486=CARTESIAN_POINT('Ctrl Pts',(1.66867876082857,6.64320892298753,0.));
#487=CARTESIAN_POINT('Ctrl Pts',(1.74168958809858,6.74238237323117,0.));
#488=CARTESIAN_POINT('Ctrl Pts',(1.74168958809858,6.74238237323117,1.74168958809858));
#489=CARTESIAN_POINT('Ctrl Pts',(0.,6.74238237323117,1.74168958809858));
#490=CARTESIAN_POINT('Ctrl Pts',(-1.74168958809858,6.74238237323117,1.74168958809858));
#491=CARTESIAN_POINT('Ctrl Pts',(-1.74168958809858,6.74238237323117,0.));
#492=CARTESIAN_POINT('Ctrl Pts',(-1.74168958809858,6.74238237323117,-1.74168958809858));
#493=CARTESIAN_POINT('Ctrl Pts',(0.,6.74238237323117,-1.74168958809858));
#494=CARTESIAN_POINT('Ctrl Pts',(1.74168958809858,6.74238237323117,-1.74168958809858));
#495=CARTESIAN_POINT('Ctrl Pts',(1.74168958809858,6.74238237323117,0.));
#496=CARTESIAN_POINT('Ctrl Pts',(1.78121066651403,6.83586164224129,0.));
#497=CARTESIAN_POINT('Ctrl Pts',(1.78121066651403,6.83586164224129,1.78121066651403));
#498=CARTESIAN_POINT('Ctrl Pts',(0.,6.83586164224129,1.78121066651403));
#499=CARTESIAN_POINT('Ctrl Pts',(-1.78121066651403,6.83586164224129,1.78121066651403));
#500=CARTESIAN_POINT('Ctrl Pts',(-1.78121066651403,6.83586164224129,0.));
#501=CARTESIAN_POINT('Ctrl Pts',(-1.78121066651403,6.83586164224129,-1.78121066651403));
#502=CARTESIAN_POINT('Ctrl Pts',(0.,6.83586164224129,-1.78121066651403));
#503=CARTESIAN_POINT('Ctrl Pts',(1.78121066651403,6.83586164224129,-1.78121066651403));
#504=CARTESIAN_POINT('Ctrl Pts',(1.78121066651403,6.83586164224129,0.));
#505=CARTESIAN_POINT('Ctrl Pts',(1.79658367009358,6.91453618532721,0.));
#506=CARTESIAN_POINT('Ctrl Pts',(1.79658367009358,6.91453618532721,1.79658367009358));
#507=CARTESIAN_POINT('Ctrl Pts',(0.,6.91453618532721,1.79658367009358));
#508=CARTESIAN_POINT('Ctrl Pts',(-1.79658367009358,6.91453618532721,1.79658367009358));
#509=CARTESIAN_POINT('Ctrl Pts',(-1.79658367009358,6.91453618532721,0.));
#510=CARTESIAN_POINT('Ctrl Pts',(-1.79658367009358,6.91453618532721,-1.79658367009358));
#511=CARTESIAN_POINT('Ctrl Pts',(0.,6.91453618532721,-1.79658367009358));
#512=CARTESIAN_POINT('Ctrl Pts',(1.79658367009358,6.91453618532721,-1.79658367009358));
#513=CARTESIAN_POINT('Ctrl Pts',(1.79658367009358,6.91453618532721,0.));
#514=CARTESIAN_POINT('Ctrl Pts',(1.8,6.97086545758511,0.));
#515=CARTESIAN_POINT('Ctrl Pts',(1.8,6.97086545758511,1.8));
#516=CARTESIAN_POINT('Ctrl Pts',(0.,6.97086545758511,1.8));
#517=CARTESIAN_POINT('Ctrl Pts',(-1.8,6.97086545758511,1.8));
#518=CARTESIAN_POINT('Ctrl Pts',(-1.8,6.97086545758511,0.));
#519=CARTESIAN_POINT('Ctrl Pts',(-1.8,6.97086545758511,-1.8));
#520=CARTESIAN_POINT('Ctrl Pts',(0.,6.97086545758511,-1.8));
#521=CARTESIAN_POINT('Ctrl Pts',(1.8,6.97086545758511,-1.8));
#522=CARTESIAN_POINT('Ctrl Pts',(1.8,6.97086545758511,0.));
#523=CARTESIAN_POINT('Ctrl Pts',(1.8,7.,0.));
#524=CARTESIAN_POINT('Ctrl Pts',(1.8,7.,1.8));
#525=CARTESIAN_POINT('Ctrl Pts',(0.,7.,1.8));
#526=CARTESIAN_POINT('Ctrl Pts',(-1.8,7.,1.8));
#527=CARTESIAN_POINT('Ctrl Pts',(-1.8,7.,0.));
#528=CARTESIAN_POINT('Ctrl Pts',(-1.8,7.,-1.8));
#529=CARTESIAN_POINT('Ctrl Pts',(0.,7.,-1.8));
#530=CARTESIAN_POINT('Ctrl Pts',(1.8,7.,-1.8));
#531=CARTESIAN_POINT('Ctrl Pts',(1.8,7.,0.));
#532=CARTESIAN_POINT('',(1.8,7.,0.));
#533=CARTESIAN_POINT('Ctrl Pts',(1.8,7.,0.));
#534=CARTESIAN_POINT('Ctrl Pts',(1.8,6.97086545758511,0.));
#535=CARTESIAN_POINT('Ctrl Pts',(1.79658367009358,6.91453618532721,0.));
#536=CARTESIAN_POINT('Ctrl Pts',(1.78121066651403,6.83586164224129,0.));
#537=CARTESIAN_POINT('Ctrl Pts',(1.74168958809858,6.74238237323117,0.));
#538=CARTESIAN_POINT('Ctrl Pts',(1.66867876082857,6.64320892298753,0.));
#539=CARTESIAN_POINT('Ctrl Pts',(1.58172263823745,6.55976189369186,0.));
#540=CARTESIAN_POINT('Ctrl Pts',(1.48941764625844,6.48966117560856,0.));
#541=CARTESIAN_POINT('Ctrl Pts',(1.39640426950422,6.43021416125069,0.));
#542=CARTESIAN_POINT('Ctrl Pts',(1.30113765865615,6.37847884769794,0.));
#543=CARTESIAN_POINT('Ctrl Pts',(1.19920444906548,6.33119781431296,0.));
#544=CARTESIAN_POINT('Ctrl Pts',(1.08620259944396,6.28470103243258,0.));
#545=CARTESIAN_POINT('Ctrl Pts',(0.960496422970506,6.23481995736543,0.));
#546=CARTESIAN_POINT('Ctrl Pts',(0.826799284763861,6.17670704292231,0.));
#547=CARTESIAN_POINT('Ctrl Pts',(0.697354407041117,6.10491159782857,0.));
#548=CARTESIAN_POINT('Ctrl Pts',(0.587651245000263,6.01403165115707,0.));
#549=CARTESIAN_POINT('Ctrl Pts',(0.528226098408245,5.92223304756909,0.));
#550=CARTESIAN_POINT('Ctrl Pts',(0.505131997679205,5.84107331452907,0.));
#551=CARTESIAN_POINT('Ctrl Pts',(0.5,5.78130192968809,0.));
#552=CARTESIAN_POINT('Ctrl Pts',(0.5,5.75,0.));
#553=CARTESIAN_POINT('',(-1.8,7.,-2.20436423846524E-16));
#554=CARTESIAN_POINT('Origin',(0.,7.,0.));
#555=CARTESIAN_POINT('Origin',(0.,7.,0.));
#556=CARTESIAN_POINT('Origin',(0.,8.45,0.));
#557=CARTESIAN_POINT('',(-1.8,9.9,-2.20436423846524E-16));
#558=CARTESIAN_POINT('',(-1.8,8.45,-2.20436423846524E-16));
#559=CARTESIAN_POINT('Origin',(0.,9.9,0.));
#560=CARTESIAN_POINT('Origin',(1.8,9.9,0.));
#561=CARTESIAN_POINT('',(-1.6,9.9,-1.95943487863577E-16));
#562=CARTESIAN_POINT('Origin',(0.,9.9,0.));
#563=CARTESIAN_POINT('Origin',(0.,9.6,0.));
#564=CARTESIAN_POINT('',(-1.6,9.3,-1.95943487863577E-16));
#565=CARTESIAN_POINT('Origin',(0.,9.3,0.));
#566=CARTESIAN_POINT('',(-1.6,9.6,-1.95943487863577E-16));
#567=CARTESIAN_POINT('Origin',(1.6,9.3,0.));
#568=CARTESIAN_POINT('Origin',(0.,3.87500121553442,0.));
#569=CARTESIAN_POINT('',(-0.28,2.22,3.42901103761259E-17));
#570=CARTESIAN_POINT('Origin',(0.,2.5,0.));
#571=CARTESIAN_POINT('',(-0.28,3.87500121553442,-3.42901103761259E-17));
#572=CARTESIAN_POINT('Origin',(-0.5,2.,0.));
#573=UNCERTAINTY_MEASURE_WITH_UNIT(LENGTH_MEASURE(0.001),#577,
'DISTANCE_ACCURACY_VALUE',
'Maximum model space distance between geometric entities at asserted c
onnectivities');
#574=UNCERTAINTY_MEASURE_WITH_UNIT(LENGTH_MEASURE(0.001),#577,
'DISTANCE_ACCURACY_VALUE',
'Maximum model space distance between geometric entities at asserted c
onnectivities');
#575=(
GEOMETRIC_REPRESENTATION_CONTEXT(3)
GLOBAL_UNCERTAINTY_ASSIGNED_CONTEXT((#573))
GLOBAL_UNIT_ASSIGNED_CONTEXT((#577,#579,#580))
REPRESENTATION_CONTEXT('','3D')
);
#576=(
GEOMETRIC_REPRESENTATION_CONTEXT(3)
GLOBAL_UNCERTAINTY_ASSIGNED_CONTEXT((#574))
GLOBAL_UNIT_ASSIGNED_CONTEXT((#577,#579,#580))
REPRESENTATION_CONTEXT('','3D')
);
#577=(
LENGTH_UNIT()
NAMED_UNIT(*)
SI_UNIT(.CENTI.,.METRE.)
);
#578=(
LENGTH_UNIT()
NAMED_UNIT(*)
SI_UNIT($,.METRE.)
);
#579=(
NAMED_UNIT(*)
PLANE_ANGLE_UNIT()
SI_UNIT($,.RADIAN.)
);
#580=(
NAMED_UNIT(*)
SI_UNIT($,.STERADIAN.)
SOLID_ANGLE_UNIT()
);
#581=SHAPE_DEFINITION_REPRESENTATION(#582,#583);
#582=PRODUCT_DEFINITION_SHAPE('',$,#585);
#583=SHAPE_REPRESENTATION('',(#177),#575);
#584=PRODUCT_DEFINITION_CONTEXT('part definition',#589,'design');
#585=PRODUCT_DEFINITION('temp_body','temp_body',#586,#584);
#586=PRODUCT_DEFINITION_FORMATION('',$,#591);
#587=PRODUCT_RELATED_PRODUCT_CATEGORY('temp_body','temp_body',(#591));
#588=APPLICATION_PROTOCOL_DEFINITION('international standard',
'automotive_design',2009,#589);
#589=APPLICATION_CONTEXT(
'Core Data for Automotive Mechanical Design Process');
#590=PRODUCT_CONTEXT('part definition',#589,'mechanical');
#591=PRODUCT('temp_body','temp_body',$,(#590));
#592=PRESENTATION_STYLE_ASSIGNMENT((#593));
#593=SURFACE_STYLE_USAGE(.BOTH.,#594);
#594=SURFACE_SIDE_STYLE('',(#595));
#595=SURFACE_STYLE_FILL_AREA(#596);
#596=FILL_AREA_STYLE('Steel - Satin',(#597));
#597=FILL_AREA_STYLE_COLOUR('Steel - Satin',#598);
#598=COLOUR_RGB('Steel - Satin',0.627450980392157,0.627450980392157,0.627450980392157);
ENDSEC;
END-ISO-10303-21;
