ISO-10303-21;
HEADER;
/* Generated by software containing ST-Developer
 * from STEP Tools, Inc. (www.steptools.com) 
 */

FILE_DESCRIPTION(
/* description */ (''),
/* implementation_level */ '2;1');

FILE_NAME(
/* name */ 
'C:\\Users\\designnet\\AppData\\Local\\Temp\\derivatives\\20755_4b5e61
bf\\AssemblyExtractor\\20755_4b5e61bf\\cb3e3bdc-05ef-11ec-b49f-0288f32
f2721.step',
/* time_stamp */ '2021-08-25T22:00:18+00:00',
/* author */ (''),
/* organization */ (''),
/* preprocessor_version */ 'ST-DEVELOPER v18.1',
/* originating_system */ 'Autodesk Translation Framework v10.6.0.1341',

/* authorisation */ '');

FILE_SCHEMA (('AUTOMOTIVE_DESIGN { 1 0 10303 214 3 1 1 }'));
ENDSEC;

DATA;
#10=MECHANICAL_DESIGN_GEOMETRIC_PRESENTATION_REPRESENTATION('',(#13),#683);
#11=SHAPE_REPRESENTATION_RELATIONSHIP('SRR','None',#690,#12);
#12=ADVANCED_BREP_SHAPE_REPRESENTATION('',(#14),#682);
#13=STYLED_ITEM('',(#699),#14);
#14=MANIFOLD_SOLID_BREP('Body1',#309);
#15=(
BOUNDED_SURFACE()
B_SPLINE_SURFACE(2,2,((#537,#538,#539,#540,#541,#542,#543,#544,#545),(#546,
#547,#548,#549,#550,#551,#552,#553,#554),(#555,#556,#557,#558,#559,#560,
#561,#562,#563),(#564,#565,#566,#567,#568,#569,#570,#571,#572),(#573,#574,
#575,#576,#577,#578,#579,#580,#581)),.UNSPECIFIED.,.F.,.T.,.F.)
B_SPLINE_SURFACE_WITH_KNOTS((3,2,3),(3,2,2,2,3),(-1.71825600165301,-0.825845120997426,
0.0665657596581627),(-3.14159265358979,-1.5707963267949,0.,1.5707963267949,
3.14159265358979),.UNSPECIFIED.)
GEOMETRIC_REPRESENTATION_ITEM()
RATIONAL_B_SPLINE_SURFACE(((1.,0.707106781186548,1.,0.707106781186548,1.,
0.707106781186548,1.,0.707106781186548,1.),(0.902091118447873,0.637874747102648,
0.902091118447873,0.637874747102648,0.902091118447873,0.637874747102648,
0.902091118447873,0.637874747102648,0.902091118447873),(1.,0.707106781186548,
1.,0.707106781186548,1.,0.707106781186548,1.,0.707106781186548,1.),(0.902091118447887,
0.637874747102658,0.902091118447887,0.637874747102658,0.902091118447887,
0.637874747102658,0.902091118447887,0.637874747102658,0.902091118447887),
(1.,0.707106781186548,1.,0.707106781186548,1.,0.707106781186548,1.,0.707106781186548,
1.)))
REPRESENTATION_ITEM('')
SURFACE()
);
#16=(
BOUNDED_SURFACE()
B_SPLINE_SURFACE(2,2,((#633,#634,#635,#636,#637,#638,#639,#640,#641),(#642,
#643,#644,#645,#646,#647,#648,#649,#650),(#651,#652,#653,#654,#655,#656,
#657,#658,#659),(#660,#661,#662,#663,#664,#665,#666,#667,#668),(#669,#670,
#671,#672,#673,#674,#675,#676,#677)),.UNSPECIFIED.,.F.,.T.,.F.)
B_SPLINE_SURFACE_WITH_KNOTS((3,2,3),(3,2,2,2,3),(-1.68860935914837,-0.811021566595256,
0.0665662259578616),(-3.14159265358979,-1.5707963267949,0.,1.5707963267949,
3.14159265358979),.UNSPECIFIED.)
GEOMETRIC_REPRESENTATION_ITEM()
RATIONAL_B_SPLINE_SURFACE(((1.,0.707106781186548,1.,0.707106781186548,1.,
0.707106781186548,1.,0.707106781186548,1.),(0.905264732205428,0.640118830911482,
0.905264732205428,0.640118830911482,0.905264732205428,0.640118830911482,
0.905264732205428,0.640118830911482,0.905264732205428),(1.,0.707106781186548,
1.,0.707106781186548,1.,0.707106781186548,1.,0.707106781186548,1.),(0.905264732205396,
0.640118830911459,0.905264732205396,0.640118830911459,0.905264732205396,
0.640118830911459,0.905264732205396,0.640118830911459,0.905264732205396),
(1.,0.707106781186548,1.,0.707106781186548,1.,0.707106781186548,1.,0.707106781186548,
1.)))
REPRESENTATION_ITEM('')
SURFACE()
);
#17=FACE_BOUND('',#62,.T.);
#18=FACE_BOUND('',#67,.T.);
#19=FACE_BOUND('',#72,.T.);
#20=FACE_BOUND('',#77,.T.);
#21=FACE_BOUND('',#82,.T.);
#22=PLANE('',#333);
#23=PLANE('',#345);
#24=PLANE('',#354);
#25=PLANE('',#366);
#26=PLANE('',#378);
#27=TOROIDAL_SURFACE('',#326,8.71706123235997,8.27751010229407);
#28=TOROIDAL_SURFACE('',#330,1.36861566966135,0.750000000000804);
#29=TOROIDAL_SURFACE('',#335,1.44999988079071,0.450000000000001);
#30=TOROIDAL_SURFACE('',#342,2.04999988079071,0.150000000000001);
#31=TOROIDAL_SURFACE('',#347,8.71706123235997,8.17751010229407);
#32=TOROIDAL_SURFACE('',#351,1.36861566966135,0.650000000000804);
#33=TOROIDAL_SURFACE('',#356,1.44999988079071,0.550000000000001);
#34=TOROIDAL_SURFACE('',#363,2.04999988079071,0.0500000000000012);
#35=TOROIDAL_SURFACE('',#368,2.45,0.0500000000000012);
#36=TOROIDAL_SURFACE('',#375,2.475,0.0249999999999986);
#37=FACE_OUTER_BOUND('',#58,.T.);
#38=FACE_OUTER_BOUND('',#59,.T.);
#39=FACE_OUTER_BOUND('',#60,.T.);
#40=FACE_OUTER_BOUND('',#61,.T.);
#41=FACE_OUTER_BOUND('',#63,.T.);
#42=FACE_OUTER_BOUND('',#64,.T.);
#43=FACE_OUTER_BOUND('',#65,.T.);
#44=FACE_OUTER_BOUND('',#66,.T.);
#45=FACE_OUTER_BOUND('',#68,.T.);
#46=FACE_OUTER_BOUND('',#69,.T.);
#47=FACE_OUTER_BOUND('',#70,.T.);
#48=FACE_OUTER_BOUND('',#71,.T.);
#49=FACE_OUTER_BOUND('',#73,.T.);
#50=FACE_OUTER_BOUND('',#74,.T.);
#51=FACE_OUTER_BOUND('',#75,.T.);
#52=FACE_OUTER_BOUND('',#76,.T.);
#53=FACE_OUTER_BOUND('',#78,.T.);
#54=FACE_OUTER_BOUND('',#79,.T.);
#55=FACE_OUTER_BOUND('',#80,.T.);
#56=FACE_OUTER_BOUND('',#81,.T.);
#57=FACE_OUTER_BOUND('',#83,.T.);
#58=EDGE_LOOP('',(#200,#201,#202,#203));
#59=EDGE_LOOP('',(#204,#205,#206,#207));
#60=EDGE_LOOP('',(#208,#209,#210,#211));
#61=EDGE_LOOP('',(#212));
#62=EDGE_LOOP('',(#213));
#63=EDGE_LOOP('',(#214,#215,#216,#217,#218));
#64=EDGE_LOOP('',(#219,#220,#221,#222,#223,#224));
#65=EDGE_LOOP('',(#225,#226,#227,#228,#229));
#66=EDGE_LOOP('',(#230));
#67=EDGE_LOOP('',(#231));
#68=EDGE_LOOP('',(#232,#233,#234));
#69=EDGE_LOOP('',(#235,#236,#237,#238));
#70=EDGE_LOOP('',(#239,#240,#241,#242));
#71=EDGE_LOOP('',(#243));
#72=EDGE_LOOP('',(#244));
#73=EDGE_LOOP('',(#245,#246,#247,#248,#249));
#74=EDGE_LOOP('',(#250,#251,#252,#253,#254,#255));
#75=EDGE_LOOP('',(#256,#257,#258,#259,#260));
#76=EDGE_LOOP('',(#261));
#77=EDGE_LOOP('',(#262));
#78=EDGE_LOOP('',(#263,#264,#265,#266,#267));
#79=EDGE_LOOP('',(#268,#269,#270,#271,#272,#273));
#80=EDGE_LOOP('',(#274,#275,#276,#277,#278));
#81=EDGE_LOOP('',(#279));
#82=EDGE_LOOP('',(#280));
#83=EDGE_LOOP('',(#281,#282,#283));
#84=LINE('',#505,#88);
#85=LINE('',#528,#89);
#86=LINE('',#607,#90);
#87=LINE('',#626,#91);
#88=VECTOR('',#386,2.5);
#89=VECTOR('',#417,1.99999988079071);
#90=VECTOR('',#462,1.99999988079071);
#91=VECTOR('',#487,2.5);
#92=CIRCLE('',#324,2.4);
#93=CIRCLE('',#325,2.4);
#94=CIRCLE('',#327,0.636456547256262);
#95=CIRCLE('',#328,8.27751010229407);
#96=CIRCLE('',#329,0.457884468297843);
#97=CIRCLE('',#331,1.36861593093372);
#98=CIRCLE('',#332,0.750000000000804);
#99=CIRCLE('',#334,1.44999988079071);
#100=CIRCLE('',#336,0.450000000000001);
#101=CIRCLE('',#337,1.89999988079071);
#102=CIRCLE('',#338,1.89999988079071);
#103=CIRCLE('',#340,1.89999988079071);
#104=CIRCLE('',#341,1.89999988079071);
#105=CIRCLE('',#343,2.04999988079071);
#106=CIRCLE('',#344,0.150000000000001);
#107=CIRCLE('',#346,0.400000000001821);
#108=CIRCLE('',#348,0.557662984566559);
#109=CIRCLE('',#349,8.17751010229407);
#110=CIRCLE('',#350,0.734077747173186);
#111=CIRCLE('',#352,0.650000000000804);
#112=CIRCLE('',#353,1.36861593093372);
#113=CIRCLE('',#355,1.44999988079071);
#114=CIRCLE('',#357,1.99999988079071);
#115=CIRCLE('',#358,1.99999988079071);
#116=CIRCLE('',#359,0.550000000000001);
#117=CIRCLE('',#361,1.99999988079071);
#118=CIRCLE('',#362,1.99999988079071);
#119=CIRCLE('',#364,0.0500000000000012);
#120=CIRCLE('',#365,2.04999988079071);
#121=CIRCLE('',#367,2.45);
#122=CIRCLE('',#369,2.5);
#123=CIRCLE('',#370,2.5);
#124=CIRCLE('',#371,0.0500000000000012);
#125=CIRCLE('',#373,2.5);
#126=CIRCLE('',#374,2.5);
#127=CIRCLE('',#376,2.475);
#128=CIRCLE('',#377,0.0249999999999986);
#129=CIRCLE('',#379,0.500000000001821);
#130=VERTEX_POINT('',#502);
#131=VERTEX_POINT('',#504);
#132=VERTEX_POINT('',#508);
#133=VERTEX_POINT('',#510);
#134=VERTEX_POINT('',#514);
#135=VERTEX_POINT('',#518);
#136=VERTEX_POINT('',#521);
#137=VERTEX_POINT('',#523);
#138=VERTEX_POINT('',#527);
#139=VERTEX_POINT('',#529);
#140=VERTEX_POINT('',#533);
#141=VERTEX_POINT('',#582);
#142=VERTEX_POINT('',#585);
#143=VERTEX_POINT('',#587);
#144=VERTEX_POINT('',#591);
#145=VERTEX_POINT('',#595);
#146=VERTEX_POINT('',#598);
#147=VERTEX_POINT('',#599);
#148=VERTEX_POINT('',#604);
#149=VERTEX_POINT('',#605);
#150=VERTEX_POINT('',#610);
#151=VERTEX_POINT('',#614);
#152=VERTEX_POINT('',#617);
#153=VERTEX_POINT('',#618);
#154=VERTEX_POINT('',#623);
#155=VERTEX_POINT('',#624);
#156=VERTEX_POINT('',#629);
#157=VERTEX_POINT('',#678);
#158=EDGE_CURVE('',#130,#130,#92,.T.);
#159=EDGE_CURVE('',#130,#131,#84,.T.);
#160=EDGE_CURVE('',#131,#131,#93,.T.);
#161=EDGE_CURVE('',#132,#132,#94,.T.);
#162=EDGE_CURVE('',#132,#133,#95,.T.);
#163=EDGE_CURVE('',#133,#133,#96,.T.);
#164=EDGE_CURVE('',#134,#134,#97,.T.);
#165=EDGE_CURVE('',#134,#132,#98,.T.);
#166=EDGE_CURVE('',#135,#135,#99,.T.);
#167=EDGE_CURVE('',#135,#136,#100,.T.);
#168=EDGE_CURVE('',#136,#137,#101,.T.);
#169=EDGE_CURVE('',#137,#136,#102,.T.);
#170=EDGE_CURVE('',#137,#138,#85,.T.);
#171=EDGE_CURVE('',#138,#139,#103,.T.);
#172=EDGE_CURVE('',#139,#138,#104,.T.);
#173=EDGE_CURVE('',#140,#140,#105,.T.);
#174=EDGE_CURVE('',#140,#139,#106,.T.);
#175=EDGE_CURVE('',#141,#133,#107,.T.);
#176=EDGE_CURVE('',#142,#142,#108,.T.);
#177=EDGE_CURVE('',#142,#143,#109,.T.);
#178=EDGE_CURVE('',#143,#143,#110,.T.);
#179=EDGE_CURVE('',#143,#144,#111,.T.);
#180=EDGE_CURVE('',#144,#144,#112,.T.);
#181=EDGE_CURVE('',#145,#145,#113,.T.);
#182=EDGE_CURVE('',#146,#147,#114,.T.);
#183=EDGE_CURVE('',#147,#146,#115,.T.);
#184=EDGE_CURVE('',#147,#145,#116,.T.);
#185=EDGE_CURVE('',#148,#149,#117,.T.);
#186=EDGE_CURVE('',#148,#146,#86,.T.);
#187=EDGE_CURVE('',#149,#148,#118,.T.);
#188=EDGE_CURVE('',#149,#150,#119,.T.);
#189=EDGE_CURVE('',#150,#150,#120,.T.);
#190=EDGE_CURVE('',#151,#151,#121,.T.);
#191=EDGE_CURVE('',#152,#153,#122,.T.);
#192=EDGE_CURVE('',#153,#152,#123,.T.);
#193=EDGE_CURVE('',#153,#151,#124,.T.);
#194=EDGE_CURVE('',#154,#155,#125,.T.);
#195=EDGE_CURVE('',#154,#152,#87,.T.);
#196=EDGE_CURVE('',#155,#154,#126,.T.);
#197=EDGE_CURVE('',#156,#156,#127,.T.);
#198=EDGE_CURVE('',#156,#155,#128,.T.);
#199=EDGE_CURVE('',#142,#157,#129,.T.);
#200=ORIENTED_EDGE('',*,*,#158,.T.);
#201=ORIENTED_EDGE('',*,*,#159,.T.);
#202=ORIENTED_EDGE('',*,*,#160,.F.);
#203=ORIENTED_EDGE('',*,*,#159,.F.);
#204=ORIENTED_EDGE('',*,*,#161,.T.);
#205=ORIENTED_EDGE('',*,*,#162,.T.);
#206=ORIENTED_EDGE('',*,*,#163,.F.);
#207=ORIENTED_EDGE('',*,*,#162,.F.);
#208=ORIENTED_EDGE('',*,*,#164,.T.);
#209=ORIENTED_EDGE('',*,*,#165,.T.);
#210=ORIENTED_EDGE('',*,*,#161,.F.);
#211=ORIENTED_EDGE('',*,*,#165,.F.);
#212=ORIENTED_EDGE('',*,*,#166,.T.);
#213=ORIENTED_EDGE('',*,*,#164,.F.);
#214=ORIENTED_EDGE('',*,*,#166,.F.);
#215=ORIENTED_EDGE('',*,*,#167,.T.);
#216=ORIENTED_EDGE('',*,*,#168,.T.);
#217=ORIENTED_EDGE('',*,*,#169,.T.);
#218=ORIENTED_EDGE('',*,*,#167,.F.);
#219=ORIENTED_EDGE('',*,*,#169,.F.);
#220=ORIENTED_EDGE('',*,*,#170,.T.);
#221=ORIENTED_EDGE('',*,*,#171,.T.);
#222=ORIENTED_EDGE('',*,*,#172,.T.);
#223=ORIENTED_EDGE('',*,*,#170,.F.);
#224=ORIENTED_EDGE('',*,*,#168,.F.);
#225=ORIENTED_EDGE('',*,*,#173,.T.);
#226=ORIENTED_EDGE('',*,*,#174,.T.);
#227=ORIENTED_EDGE('',*,*,#171,.F.);
#228=ORIENTED_EDGE('',*,*,#172,.F.);
#229=ORIENTED_EDGE('',*,*,#174,.F.);
#230=ORIENTED_EDGE('',*,*,#158,.F.);
#231=ORIENTED_EDGE('',*,*,#173,.F.);
#232=ORIENTED_EDGE('',*,*,#175,.T.);
#233=ORIENTED_EDGE('',*,*,#163,.T.);
#234=ORIENTED_EDGE('',*,*,#175,.F.);
#235=ORIENTED_EDGE('',*,*,#176,.T.);
#236=ORIENTED_EDGE('',*,*,#177,.T.);
#237=ORIENTED_EDGE('',*,*,#178,.F.);
#238=ORIENTED_EDGE('',*,*,#177,.F.);
#239=ORIENTED_EDGE('',*,*,#178,.T.);
#240=ORIENTED_EDGE('',*,*,#179,.T.);
#241=ORIENTED_EDGE('',*,*,#180,.F.);
#242=ORIENTED_EDGE('',*,*,#179,.F.);
#243=ORIENTED_EDGE('',*,*,#181,.F.);
#244=ORIENTED_EDGE('',*,*,#180,.T.);
#245=ORIENTED_EDGE('',*,*,#182,.F.);
#246=ORIENTED_EDGE('',*,*,#183,.F.);
#247=ORIENTED_EDGE('',*,*,#184,.T.);
#248=ORIENTED_EDGE('',*,*,#181,.T.);
#249=ORIENTED_EDGE('',*,*,#184,.F.);
#250=ORIENTED_EDGE('',*,*,#185,.F.);
#251=ORIENTED_EDGE('',*,*,#186,.T.);
#252=ORIENTED_EDGE('',*,*,#182,.T.);
#253=ORIENTED_EDGE('',*,*,#183,.T.);
#254=ORIENTED_EDGE('',*,*,#186,.F.);
#255=ORIENTED_EDGE('',*,*,#187,.F.);
#256=ORIENTED_EDGE('',*,*,#185,.T.);
#257=ORIENTED_EDGE('',*,*,#188,.T.);
#258=ORIENTED_EDGE('',*,*,#189,.F.);
#259=ORIENTED_EDGE('',*,*,#188,.F.);
#260=ORIENTED_EDGE('',*,*,#187,.T.);
#261=ORIENTED_EDGE('',*,*,#190,.F.);
#262=ORIENTED_EDGE('',*,*,#189,.T.);
#263=ORIENTED_EDGE('',*,*,#191,.F.);
#264=ORIENTED_EDGE('',*,*,#192,.F.);
#265=ORIENTED_EDGE('',*,*,#193,.T.);
#266=ORIENTED_EDGE('',*,*,#190,.T.);
#267=ORIENTED_EDGE('',*,*,#193,.F.);
#268=ORIENTED_EDGE('',*,*,#194,.F.);
#269=ORIENTED_EDGE('',*,*,#195,.T.);
#270=ORIENTED_EDGE('',*,*,#191,.T.);
#271=ORIENTED_EDGE('',*,*,#192,.T.);
#272=ORIENTED_EDGE('',*,*,#195,.F.);
#273=ORIENTED_EDGE('',*,*,#196,.F.);
#274=ORIENTED_EDGE('',*,*,#197,.F.);
#275=ORIENTED_EDGE('',*,*,#198,.T.);
#276=ORIENTED_EDGE('',*,*,#196,.T.);
#277=ORIENTED_EDGE('',*,*,#194,.T.);
#278=ORIENTED_EDGE('',*,*,#198,.F.);
#279=ORIENTED_EDGE('',*,*,#197,.T.);
#280=ORIENTED_EDGE('',*,*,#160,.T.);
#281=ORIENTED_EDGE('',*,*,#176,.F.);
#282=ORIENTED_EDGE('',*,*,#199,.T.);
#283=ORIENTED_EDGE('',*,*,#199,.F.);
#284=CYLINDRICAL_SURFACE('',#323,2.4);
#285=CYLINDRICAL_SURFACE('',#339,1.89999988079071);
#286=CYLINDRICAL_SURFACE('',#360,1.99999988079071);
#287=CYLINDRICAL_SURFACE('',#372,2.5);
#288=ADVANCED_FACE('',(#37),#284,.F.);
#289=ADVANCED_FACE('',(#38),#27,.T.);
#290=ADVANCED_FACE('',(#39),#28,.T.);
#291=ADVANCED_FACE('',(#40,#17),#22,.F.);
#292=ADVANCED_FACE('',(#41),#29,.F.);
#293=ADVANCED_FACE('',(#42),#285,.F.);
#294=ADVANCED_FACE('',(#43),#30,.T.);
#295=ADVANCED_FACE('',(#44,#18),#23,.F.);
#296=ADVANCED_FACE('',(#45),#15,.T.);
#297=ADVANCED_FACE('',(#46),#31,.F.);
#298=ADVANCED_FACE('',(#47),#32,.F.);
#299=ADVANCED_FACE('',(#48,#19),#24,.T.);
#300=ADVANCED_FACE('',(#49),#33,.T.);
#301=ADVANCED_FACE('',(#50),#286,.T.);
#302=ADVANCED_FACE('',(#51),#34,.F.);
#303=ADVANCED_FACE('',(#52,#20),#25,.T.);
#304=ADVANCED_FACE('',(#53),#35,.T.);
#305=ADVANCED_FACE('',(#54),#287,.T.);
#306=ADVANCED_FACE('',(#55),#36,.T.);
#307=ADVANCED_FACE('',(#56,#21),#26,.T.);
#308=ADVANCED_FACE('',(#57),#16,.F.);
#309=CLOSED_SHELL('',(#288,#289,#290,#291,#292,#293,#294,#295,#296,#297,
#298,#299,#300,#301,#302,#303,#304,#305,#306,#307,#308));
#310=DERIVED_UNIT_ELEMENT(#312,1.);
#311=DERIVED_UNIT_ELEMENT(#685,-3.);
#312=(
MASS_UNIT()
NAMED_UNIT(*)
SI_UNIT(.KILO.,.GRAM.)
);
#313=DERIVED_UNIT((#310,#311));
#314=MEASURE_REPRESENTATION_ITEM('density measure',
POSITIVE_RATIO_MEASURE(7850.),#313);
#315=PROPERTY_DEFINITION_REPRESENTATION(#320,#317);
#316=PROPERTY_DEFINITION_REPRESENTATION(#321,#318);
#317=REPRESENTATION('material name',(#319),#682);
#318=REPRESENTATION('density',(#314),#682);
#319=DESCRIPTIVE_REPRESENTATION_ITEM('Steel','Steel');
#320=PROPERTY_DEFINITION('material property','material name',#692);
#321=PROPERTY_DEFINITION('material property','density of part',#692);
#322=AXIS2_PLACEMENT_3D('placement',#500,#380,#381);
#323=AXIS2_PLACEMENT_3D('',#501,#382,#383);
#324=AXIS2_PLACEMENT_3D('',#503,#384,#385);
#325=AXIS2_PLACEMENT_3D('',#506,#387,#388);
#326=AXIS2_PLACEMENT_3D('',#507,#389,#390);
#327=AXIS2_PLACEMENT_3D('',#509,#391,#392);
#328=AXIS2_PLACEMENT_3D('',#511,#393,#394);
#329=AXIS2_PLACEMENT_3D('',#512,#395,#396);
#330=AXIS2_PLACEMENT_3D('',#513,#397,#398);
#331=AXIS2_PLACEMENT_3D('',#515,#399,#400);
#332=AXIS2_PLACEMENT_3D('',#516,#401,#402);
#333=AXIS2_PLACEMENT_3D('',#517,#403,#404);
#334=AXIS2_PLACEMENT_3D('',#519,#405,#406);
#335=AXIS2_PLACEMENT_3D('',#520,#407,#408);
#336=AXIS2_PLACEMENT_3D('',#522,#409,#410);
#337=AXIS2_PLACEMENT_3D('',#524,#411,#412);
#338=AXIS2_PLACEMENT_3D('',#525,#413,#414);
#339=AXIS2_PLACEMENT_3D('',#526,#415,#416);
#340=AXIS2_PLACEMENT_3D('',#530,#418,#419);
#341=AXIS2_PLACEMENT_3D('',#531,#420,#421);
#342=AXIS2_PLACEMENT_3D('',#532,#422,#423);
#343=AXIS2_PLACEMENT_3D('',#534,#424,#425);
#344=AXIS2_PLACEMENT_3D('',#535,#426,#427);
#345=AXIS2_PLACEMENT_3D('',#536,#428,#429);
#346=AXIS2_PLACEMENT_3D('',#583,#430,#431);
#347=AXIS2_PLACEMENT_3D('',#584,#432,#433);
#348=AXIS2_PLACEMENT_3D('',#586,#434,#435);
#349=AXIS2_PLACEMENT_3D('',#588,#436,#437);
#350=AXIS2_PLACEMENT_3D('',#589,#438,#439);
#351=AXIS2_PLACEMENT_3D('',#590,#440,#441);
#352=AXIS2_PLACEMENT_3D('',#592,#442,#443);
#353=AXIS2_PLACEMENT_3D('',#593,#444,#445);
#354=AXIS2_PLACEMENT_3D('',#594,#446,#447);
#355=AXIS2_PLACEMENT_3D('',#596,#448,#449);
#356=AXIS2_PLACEMENT_3D('',#597,#450,#451);
#357=AXIS2_PLACEMENT_3D('',#600,#452,#453);
#358=AXIS2_PLACEMENT_3D('',#601,#454,#455);
#359=AXIS2_PLACEMENT_3D('',#602,#456,#457);
#360=AXIS2_PLACEMENT_3D('',#603,#458,#459);
#361=AXIS2_PLACEMENT_3D('',#606,#460,#461);
#362=AXIS2_PLACEMENT_3D('',#608,#463,#464);
#363=AXIS2_PLACEMENT_3D('',#609,#465,#466);
#364=AXIS2_PLACEMENT_3D('',#611,#467,#468);
#365=AXIS2_PLACEMENT_3D('',#612,#469,#470);
#366=AXIS2_PLACEMENT_3D('',#613,#471,#472);
#367=AXIS2_PLACEMENT_3D('',#615,#473,#474);
#368=AXIS2_PLACEMENT_3D('',#616,#475,#476);
#369=AXIS2_PLACEMENT_3D('',#619,#477,#478);
#370=AXIS2_PLACEMENT_3D('',#620,#479,#480);
#371=AXIS2_PLACEMENT_3D('',#621,#481,#482);
#372=AXIS2_PLACEMENT_3D('',#622,#483,#484);
#373=AXIS2_PLACEMENT_3D('',#625,#485,#486);
#374=AXIS2_PLACEMENT_3D('',#627,#488,#489);
#375=AXIS2_PLACEMENT_3D('',#628,#490,#491);
#376=AXIS2_PLACEMENT_3D('',#630,#492,#493);
#377=AXIS2_PLACEMENT_3D('',#631,#494,#495);
#378=AXIS2_PLACEMENT_3D('',#632,#496,#497);
#379=AXIS2_PLACEMENT_3D('',#679,#498,#499);
#380=DIRECTION('axis',(0.,0.,1.));
#381=DIRECTION('refdir',(1.,0.,0.));
#382=DIRECTION('center_axis',(0.,-1.,0.));
#383=DIRECTION('ref_axis',(1.,0.,0.));
#384=DIRECTION('center_axis',(0.,1.,0.));
#385=DIRECTION('ref_axis',(1.,0.,0.));
#386=DIRECTION('',(0.,-1.,0.));
#387=DIRECTION('center_axis',(0.,1.,0.));
#388=DIRECTION('ref_axis',(1.,0.,0.));
#389=DIRECTION('center_axis',(0.,-1.,0.));
#390=DIRECTION('ref_axis',(0.,0.,-1.));
#391=DIRECTION('center_axis',(0.,-1.,0.));
#392=DIRECTION('ref_axis',(1.,0.,0.));
#393=DIRECTION('center_axis',(1.,0.,1.22464679914735E-16));
#394=DIRECTION('ref_axis',(-1.22464679914735E-16,0.,1.));
#395=DIRECTION('center_axis',(0.,-1.,0.));
#396=DIRECTION('ref_axis',(1.,0.,0.));
#397=DIRECTION('center_axis',(0.,-1.,0.));
#398=DIRECTION('ref_axis',(0.,0.,-1.));
#399=DIRECTION('center_axis',(0.,-1.,0.));
#400=DIRECTION('ref_axis',(1.,0.,0.));
#401=DIRECTION('center_axis',(1.,0.,1.22464679914735E-16));
#402=DIRECTION('ref_axis',(-1.22464679914735E-16,0.,1.));
#403=DIRECTION('center_axis',(0.,1.,0.));
#404=DIRECTION('ref_axis',(0.,0.,1.));
#405=DIRECTION('center_axis',(0.,-1.,0.));
#406=DIRECTION('ref_axis',(1.,0.,0.));
#407=DIRECTION('center_axis',(0.,-1.,0.));
#408=DIRECTION('ref_axis',(0.,0.,-1.));
#409=DIRECTION('center_axis',(1.,0.,1.22464679914735E-16));
#410=DIRECTION('ref_axis',(-1.22464679914735E-16,0.,1.));
#411=DIRECTION('center_axis',(0.,-1.,0.));
#412=DIRECTION('ref_axis',(1.,0.,0.));
#413=DIRECTION('center_axis',(0.,-1.,0.));
#414=DIRECTION('ref_axis',(1.,0.,0.));
#415=DIRECTION('center_axis',(0.,-1.,0.));
#416=DIRECTION('ref_axis',(1.,0.,0.));
#417=DIRECTION('',(0.,-1.,0.));
#418=DIRECTION('center_axis',(0.,-1.,0.));
#419=DIRECTION('ref_axis',(1.,0.,0.));
#420=DIRECTION('center_axis',(0.,-1.,0.));
#421=DIRECTION('ref_axis',(1.,0.,0.));
#422=DIRECTION('center_axis',(0.,-1.,0.));
#423=DIRECTION('ref_axis',(0.,0.,-1.));
#424=DIRECTION('center_axis',(0.,-1.,0.));
#425=DIRECTION('ref_axis',(1.,0.,0.));
#426=DIRECTION('center_axis',(1.,0.,1.22464679914735E-16));
#427=DIRECTION('ref_axis',(-1.22464679914735E-16,0.,1.));
#428=DIRECTION('center_axis',(0.,1.,0.));
#429=DIRECTION('ref_axis',(0.,0.,1.));
#430=DIRECTION('center_axis',(1.,0.,1.22464679914735E-16));
#431=DIRECTION('ref_axis',(-1.22464679914735E-16,0.,1.));
#432=DIRECTION('center_axis',(0.,-1.,0.));
#433=DIRECTION('ref_axis',(0.,0.,-1.));
#434=DIRECTION('center_axis',(0.,-1.,0.));
#435=DIRECTION('ref_axis',(1.,0.,0.));
#436=DIRECTION('center_axis',(-1.,0.,-1.22464679914735E-16));
#437=DIRECTION('ref_axis',(-1.22464679914735E-16,0.,1.));
#438=DIRECTION('center_axis',(0.,-1.,0.));
#439=DIRECTION('ref_axis',(1.,0.,0.));
#440=DIRECTION('center_axis',(0.,-1.,0.));
#441=DIRECTION('ref_axis',(0.,0.,-1.));
#442=DIRECTION('center_axis',(-1.,0.,-1.22464679914735E-16));
#443=DIRECTION('ref_axis',(-1.22464679914735E-16,0.,1.));
#444=DIRECTION('center_axis',(0.,-1.,0.));
#445=DIRECTION('ref_axis',(1.,0.,0.));
#446=DIRECTION('center_axis',(0.,1.,0.));
#447=DIRECTION('ref_axis',(0.,0.,1.));
#448=DIRECTION('center_axis',(0.,-1.,0.));
#449=DIRECTION('ref_axis',(1.,0.,0.));
#450=DIRECTION('center_axis',(0.,-1.,0.));
#451=DIRECTION('ref_axis',(0.,0.,-1.));
#452=DIRECTION('center_axis',(0.,-1.,0.));
#453=DIRECTION('ref_axis',(1.,0.,0.));
#454=DIRECTION('center_axis',(0.,-1.,0.));
#455=DIRECTION('ref_axis',(1.,0.,0.));
#456=DIRECTION('center_axis',(-1.,0.,-1.22464679914735E-16));
#457=DIRECTION('ref_axis',(-1.22464679914735E-16,0.,1.));
#458=DIRECTION('center_axis',(0.,-1.,0.));
#459=DIRECTION('ref_axis',(1.,0.,0.));
#460=DIRECTION('center_axis',(0.,-1.,0.));
#461=DIRECTION('ref_axis',(1.,0.,0.));
#462=DIRECTION('',(0.,1.,0.));
#463=DIRECTION('center_axis',(0.,-1.,0.));
#464=DIRECTION('ref_axis',(1.,0.,0.));
#465=DIRECTION('center_axis',(0.,-1.,0.));
#466=DIRECTION('ref_axis',(0.,0.,-1.));
#467=DIRECTION('center_axis',(-1.,0.,-1.22464679914735E-16));
#468=DIRECTION('ref_axis',(-1.22464679914735E-16,0.,1.));
#469=DIRECTION('center_axis',(0.,-1.,0.));
#470=DIRECTION('ref_axis',(1.,0.,0.));
#471=DIRECTION('center_axis',(0.,1.,0.));
#472=DIRECTION('ref_axis',(0.,0.,1.));
#473=DIRECTION('center_axis',(0.,-1.,0.));
#474=DIRECTION('ref_axis',(1.,0.,0.));
#475=DIRECTION('center_axis',(0.,-1.,0.));
#476=DIRECTION('ref_axis',(0.,0.,-1.));
#477=DIRECTION('center_axis',(0.,-1.,0.));
#478=DIRECTION('ref_axis',(1.,0.,0.));
#479=DIRECTION('center_axis',(0.,-1.,0.));
#480=DIRECTION('ref_axis',(1.,0.,0.));
#481=DIRECTION('center_axis',(-1.,0.,-1.22464679914735E-16));
#482=DIRECTION('ref_axis',(-1.22464679914735E-16,0.,1.));
#483=DIRECTION('center_axis',(0.,-1.,0.));
#484=DIRECTION('ref_axis',(1.,0.,0.));
#485=DIRECTION('center_axis',(0.,-1.,0.));
#486=DIRECTION('ref_axis',(1.,0.,0.));
#487=DIRECTION('',(0.,1.,0.));
#488=DIRECTION('center_axis',(0.,-1.,0.));
#489=DIRECTION('ref_axis',(1.,0.,0.));
#490=DIRECTION('center_axis',(0.,-1.,0.));
#491=DIRECTION('ref_axis',(0.,0.,-1.));
#492=DIRECTION('center_axis',(0.,-1.,0.));
#493=DIRECTION('ref_axis',(1.,0.,0.));
#494=DIRECTION('center_axis',(-1.,0.,-1.22464679914735E-16));
#495=DIRECTION('ref_axis',(-1.22464679914735E-16,0.,1.));
#496=DIRECTION('center_axis',(0.,-1.,0.));
#497=DIRECTION('ref_axis',(0.,0.,-1.));
#498=DIRECTION('center_axis',(-1.,0.,-1.22464679914735E-16));
#499=DIRECTION('ref_axis',(-1.22464679914735E-16,0.,1.));
#500=CARTESIAN_POINT('',(0.,0.,0.));
#501=CARTESIAN_POINT('Origin',(-9.43447610151947E-16,12.2124992713332,0.));
#502=CARTESIAN_POINT('',(-2.4,12.1999992668629,2.93915231795365E-16));
#503=CARTESIAN_POINT('Origin',(-9.43447610151947E-16,12.1999992668629,0.));
#504=CARTESIAN_POINT('',(-2.4,12.1499992758036,2.93915231795365E-16));
#505=CARTESIAN_POINT('',(-2.4,12.2124992713332,-2.93915231795365E-16));
#506=CARTESIAN_POINT('Origin',(-9.43447610151947E-16,12.1499992758036,0.));
#507=CARTESIAN_POINT('Origin',(-9.43447610151947E-16,15.2821017591382,0.));
#508=CARTESIAN_POINT('',(-1.02139105749132E-15,13.4873869024953,0.636456547256262));
#509=CARTESIAN_POINT('Origin',(-9.43447610151947E-16,13.4873869024953,0.));
#510=CARTESIAN_POINT('',(-9.99522284999971E-16,15.8327129409686,0.457884468297843));
#511=CARTESIAN_POINT('Origin',(-2.01097972377006E-15,15.2821017591382,8.71706123235997));
#512=CARTESIAN_POINT('Origin',(-9.43447610151947E-16,15.8327129409686,0.));
#513=CARTESIAN_POINT('Origin',(-9.43447610151947E-16,13.6500000000003,0.));
#514=CARTESIAN_POINT('',(-1.11105472205995E-15,12.8999999999995,1.36861593093372));
#515=CARTESIAN_POINT('Origin',(-9.43447610151947E-16,12.8999999999995,0.));
#516=CARTESIAN_POINT('Origin',(-1.11105469006331E-15,13.6500000000003,1.36861566966135));
#517=CARTESIAN_POINT('Origin',(1.44999988079071,12.9,0.));
#518=CARTESIAN_POINT('',(-1.12102138142939E-15,12.9,1.44999988079071));
#519=CARTESIAN_POINT('Origin',(-9.43447610151947E-16,12.9,0.));
#520=CARTESIAN_POINT('Origin',(-9.43447610151947E-16,12.45,0.));
#521=CARTESIAN_POINT('',(-1.17613048739102E-15,12.45,1.89999988079071));
#522=CARTESIAN_POINT('Origin',(-1.12102138142939E-15,12.45,1.44999988079071));
#523=CARTESIAN_POINT('',(-1.89999988079071,12.45,-2.3268287723907E-16));
#524=CARTESIAN_POINT('Origin',(-9.43447610151947E-16,12.45,0.));
#525=CARTESIAN_POINT('Origin',(-9.43447610151947E-16,12.45,0.));
#526=CARTESIAN_POINT('Origin',(-9.43447610151947E-16,12.3999996334314,0.));
#527=CARTESIAN_POINT('',(-1.89999988079071,12.3499992668629,-2.3268287723907E-16));
#528=CARTESIAN_POINT('',(-1.89999988079071,12.3999996334314,-2.3268287723907E-16));
#529=CARTESIAN_POINT('',(-1.17613048739102E-15,12.3499992668629,1.89999988079071));
#530=CARTESIAN_POINT('Origin',(-9.43447610151947E-16,12.3499992668629,0.));
#531=CARTESIAN_POINT('Origin',(-9.43447610151947E-16,12.3499992668629,0.));
#532=CARTESIAN_POINT('Origin',(-9.43447610151947E-16,12.3499992668629,0.));
#533=CARTESIAN_POINT('',(-1.19450018937823E-15,12.1999992668629,2.04999988079071));
#534=CARTESIAN_POINT('Origin',(-9.43447610151947E-16,12.1999992668629,0.));
#535=CARTESIAN_POINT('Origin',(-1.19450018937823E-15,12.3499992668629,2.04999988079071));
#536=CARTESIAN_POINT('Origin',(2.45,12.1999992668629,0.));
#537=CARTESIAN_POINT('Ctrl Pts',(-9.43447610151947E-16,16.2549785890949,
6.93889390390723E-18));
#538=CARTESIAN_POINT('Ctrl Pts',(-9.50386504055854E-16,16.2549785890949,
6.93889390390723E-18));
#539=CARTESIAN_POINT('Ctrl Pts',(-9.50386504055854E-16,16.2549785890949,
0.));
#540=CARTESIAN_POINT('Ctrl Pts',(-9.50386504055854E-16,16.2549785890949,
-6.93889390390723E-18));
#541=CARTESIAN_POINT('Ctrl Pts',(-9.43447610151947E-16,16.2549785890949,
-6.93889390390723E-18));
#542=CARTESIAN_POINT('Ctrl Pts',(-9.36508716248039E-16,16.2549785890949,
-6.93889390390723E-18));
#543=CARTESIAN_POINT('Ctrl Pts',(-9.36508716248039E-16,16.2549785890949,
0.));
#544=CARTESIAN_POINT('Ctrl Pts',(-9.36508716248039E-16,16.2549785890949,
6.93889390390723E-18));
#545=CARTESIAN_POINT('Ctrl Pts',(-9.43447610151947E-16,16.2549785890949,
6.93889390390723E-18));
#546=CARTESIAN_POINT('Ctrl Pts',(-9.43447610151947E-16,16.283093357385,
0.189276784495019));
#547=CARTESIAN_POINT('Ctrl Pts',(-0.18927678449502,16.283093357385,0.189276784495019));
#548=CARTESIAN_POINT('Ctrl Pts',(-0.18927678449502,16.283093357385,0.));
#549=CARTESIAN_POINT('Ctrl Pts',(-0.18927678449502,16.283093357385,-0.189276784495019));
#550=CARTESIAN_POINT('Ctrl Pts',(-9.43447610151947E-16,16.283093357385,
-0.189276784495019));
#551=CARTESIAN_POINT('Ctrl Pts',(0.189276784495018,16.283093357385,-0.189276784495019));
#552=CARTESIAN_POINT('Ctrl Pts',(0.189276784495018,16.283093357385,0.));
#553=CARTESIAN_POINT('Ctrl Pts',(0.189276784495018,16.283093357385,0.189276784495019));
#554=CARTESIAN_POINT('Ctrl Pts',(-9.43447610151947E-16,16.283093357385,
0.189276784495019));
#555=CARTESIAN_POINT('Ctrl Pts',(-9.43447610151947E-16,16.1533679787024,
0.329944717836009));
#556=CARTESIAN_POINT('Ctrl Pts',(-0.32994471783601,16.1533679787024,0.329944717836009));
#557=CARTESIAN_POINT('Ctrl Pts',(-0.32994471783601,16.1533679787024,0.));
#558=CARTESIAN_POINT('Ctrl Pts',(-0.32994471783601,16.1533679787024,-0.329944717836009));
#559=CARTESIAN_POINT('Ctrl Pts',(-9.43447610151947E-16,16.1533679787024,
-0.329944717836009));
#560=CARTESIAN_POINT('Ctrl Pts',(0.329944717836008,16.1533679787024,-0.329944717836009));
#561=CARTESIAN_POINT('Ctrl Pts',(0.329944717836008,16.1533679787024,0.));
#562=CARTESIAN_POINT('Ctrl Pts',(0.329944717836008,16.1533679787024,0.329944717836009));
#563=CARTESIAN_POINT('Ctrl Pts',(-9.43447610151947E-16,16.1533679787024,
0.329944717836009));
#564=CARTESIAN_POINT('Ctrl Pts',(-9.43447610151947E-16,16.0236426000197,
0.470612651177));
#565=CARTESIAN_POINT('Ctrl Pts',(-0.470612651177001,16.0236426000197,0.470612651177));
#566=CARTESIAN_POINT('Ctrl Pts',(-0.470612651177001,16.0236426000197,0.));
#567=CARTESIAN_POINT('Ctrl Pts',(-0.470612651177001,16.0236426000197,-0.470612651177));
#568=CARTESIAN_POINT('Ctrl Pts',(-9.43447610151947E-16,16.0236426000197,
-0.470612651177));
#569=CARTESIAN_POINT('Ctrl Pts',(0.470612651176999,16.0236426000197,-0.470612651177));
#570=CARTESIAN_POINT('Ctrl Pts',(0.470612651177,16.0236426000197,0.));
#571=CARTESIAN_POINT('Ctrl Pts',(0.470612651176999,16.0236426000197,0.470612651177));
#572=CARTESIAN_POINT('Ctrl Pts',(-9.43447610151947E-16,16.0236426000197,
0.470612651177));
#573=CARTESIAN_POINT('Ctrl Pts',(-9.43447610151947E-16,15.8327129409686,
0.457884468297629));
#574=CARTESIAN_POINT('Ctrl Pts',(-0.457884468297629,15.8327129409686,0.457884468297628));
#575=CARTESIAN_POINT('Ctrl Pts',(-0.45788446829763,15.8327129409686,0.));
#576=CARTESIAN_POINT('Ctrl Pts',(-0.457884468297629,15.8327129409686,-0.457884468297628));
#577=CARTESIAN_POINT('Ctrl Pts',(-9.43447610151947E-16,15.8327129409686,
-0.457884468297629));
#578=CARTESIAN_POINT('Ctrl Pts',(0.457884468297628,15.8327129409686,-0.457884468297628));
#579=CARTESIAN_POINT('Ctrl Pts',(0.457884468297628,15.8327129409686,0.));
#580=CARTESIAN_POINT('Ctrl Pts',(0.457884468297628,15.8327129409686,0.457884468297628));
#581=CARTESIAN_POINT('Ctrl Pts',(-9.43447610151947E-16,15.8327129409686,
0.457884468297629));
#582=CARTESIAN_POINT('',(-9.43447610151947E-16,16.2549785890949,-6.93889390390723E-18));
#583=CARTESIAN_POINT('Origin',(-9.50644901173832E-16,15.859319585661,0.0587703411865101));
#584=CARTESIAN_POINT('Origin',(-9.43447610151947E-16,15.2821017591382,0.));
#585=CARTESIAN_POINT('',(-1.01174162905719E-15,15.8260610471621,0.557662984566559));
#586=CARTESIAN_POINT('Origin',(-9.43447610151947E-16,15.8260610471621,0.));
#587=CARTESIAN_POINT('',(-1.03334620649204E-15,13.5090687226859,0.734077747173186));
#588=CARTESIAN_POINT('Origin',(-2.01097972377006E-15,15.2821017591382,8.71706123235997));
#589=CARTESIAN_POINT('Origin',(-9.43447610151947E-16,13.5090687226859,0.));
#590=CARTESIAN_POINT('Origin',(-9.43447610151947E-16,13.6500000000003,0.));
#591=CARTESIAN_POINT('',(-1.11105472205995E-15,12.9999999999995,1.36861593093372));
#592=CARTESIAN_POINT('Origin',(-1.11105469006331E-15,13.6500000000003,1.36861566966135));
#593=CARTESIAN_POINT('Origin',(-9.43447610151947E-16,12.9999999999995,0.));
#594=CARTESIAN_POINT('Origin',(1.44999988079071,13.,0.));
#595=CARTESIAN_POINT('',(-1.12102138142939E-15,13.,1.44999988079071));
#596=CARTESIAN_POINT('Origin',(-9.43447610151947E-16,13.,0.));
#597=CARTESIAN_POINT('Origin',(-9.43447610151947E-16,12.45,0.));
#598=CARTESIAN_POINT('',(-1.99999988079071,12.45,-2.44929345230543E-16));
#599=CARTESIAN_POINT('',(-1.18837695538249E-15,12.45,1.99999988079071));
#600=CARTESIAN_POINT('Origin',(-9.43447610151947E-16,12.45,0.));
#601=CARTESIAN_POINT('Origin',(-9.43447610151947E-16,12.45,0.));
#602=CARTESIAN_POINT('Origin',(-1.12102138142939E-15,12.45,1.44999988079071));
#603=CARTESIAN_POINT('Origin',(-9.43447610151947E-16,12.3999996334314,0.));
#604=CARTESIAN_POINT('',(-1.99999988079071,12.3499992668629,-2.44929345230543E-16));
#605=CARTESIAN_POINT('',(-1.18837695538249E-15,12.3499992668629,1.99999988079071));
#606=CARTESIAN_POINT('Origin',(-9.43447610151947E-16,12.3499992668629,0.));
#607=CARTESIAN_POINT('',(-1.99999988079071,12.3999996334314,-2.44929345230543E-16));
#608=CARTESIAN_POINT('Origin',(-9.43447610151947E-16,12.3499992668629,0.));
#609=CARTESIAN_POINT('Origin',(-9.43447610151947E-16,12.3499992668629,0.));
#610=CARTESIAN_POINT('',(-1.19450018937823E-15,12.2999992668629,2.04999988079071));
#611=CARTESIAN_POINT('Origin',(-1.19450018937823E-15,12.3499992668629,2.04999988079071));
#612=CARTESIAN_POINT('Origin',(-9.43447610151947E-16,12.2999992668629,0.));
#613=CARTESIAN_POINT('Origin',(2.45,12.2999992668629,0.));
#614=CARTESIAN_POINT('',(-1.24348607594305E-15,12.2999992668629,2.45));
#615=CARTESIAN_POINT('Origin',(-9.43447610151947E-16,12.2999992668629,0.));
#616=CARTESIAN_POINT('Origin',(-9.43447610151947E-16,12.2499992668629,0.));
#617=CARTESIAN_POINT('',(-2.5,12.2499992668629,-3.06161699786838E-16));
#618=CARTESIAN_POINT('',(-1.24960930993879E-15,12.2499992668629,2.5));
#619=CARTESIAN_POINT('Origin',(-9.43447610151947E-16,12.2499992668629,0.));
#620=CARTESIAN_POINT('Origin',(-9.43447610151947E-16,12.2499992668629,0.));
#621=CARTESIAN_POINT('Origin',(-1.24348607594305E-15,12.2499992668629,2.45));
#622=CARTESIAN_POINT('Origin',(-9.43447610151947E-16,12.2124992713332,0.));
#623=CARTESIAN_POINT('',(-2.5,12.1749992758036,-3.06161699786838E-16));
#624=CARTESIAN_POINT('',(-1.24960930993879E-15,12.1749992758036,2.5));
#625=CARTESIAN_POINT('Origin',(-9.43447610151947E-16,12.1749992758036,0.));
#626=CARTESIAN_POINT('',(-2.5,12.2124992713332,-3.06161699786838E-16));
#627=CARTESIAN_POINT('Origin',(-9.43447610151947E-16,12.1749992758036,0.));
#628=CARTESIAN_POINT('Origin',(-9.43447610151947E-16,12.1749992758036,0.));
#629=CARTESIAN_POINT('',(-1.24654769294092E-15,12.1499992758036,2.475));
#630=CARTESIAN_POINT('Origin',(-9.43447610151947E-16,12.1499992758036,0.));
#631=CARTESIAN_POINT('Origin',(-1.24654769294092E-15,12.1749992758036,2.475));
#632=CARTESIAN_POINT('Origin',(0.,12.1499992758036,0.));
#633=CARTESIAN_POINT('Ctrl Pts',(-9.43447610151947E-16,16.3558536197399,
2.08166817117217E-17));
#634=CARTESIAN_POINT('Ctrl Pts',(-9.64264291863668E-16,16.3558536197399,
2.08166817117217E-17));
#635=CARTESIAN_POINT('Ctrl Pts',(-9.64264291863668E-16,16.3558536197399,
0.));
#636=CARTESIAN_POINT('Ctrl Pts',(-9.64264291863668E-16,16.3558536197399,
-2.08166817117217E-17));
#637=CARTESIAN_POINT('Ctrl Pts',(-9.43447610151947E-16,16.3558536197399,
-2.08166817117217E-17));
#638=CARTESIAN_POINT('Ctrl Pts',(-9.22630928440225E-16,16.3558536197399,
-2.08166817117217E-17));
#639=CARTESIAN_POINT('Ctrl Pts',(-9.22630928440225E-16,16.3558536197399,
0.));
#640=CARTESIAN_POINT('Ctrl Pts',(-9.22630928440225E-16,16.3558536197399,
2.08166817117217E-17));
#641=CARTESIAN_POINT('Ctrl Pts',(-9.43447610151947E-16,16.3558536197399,
2.08166817117217E-17));
#642=CARTESIAN_POINT('Ctrl Pts',(-9.43447610151947E-16,16.3834350077907,
0.23302736716949));
#643=CARTESIAN_POINT('Ctrl Pts',(-0.233027367169491,16.3834350077907,0.23302736716949));
#644=CARTESIAN_POINT('Ctrl Pts',(-0.233027367169491,16.3834350077907,0.));
#645=CARTESIAN_POINT('Ctrl Pts',(-0.233027367169491,16.3834350077907,-0.23302736716949));
#646=CARTESIAN_POINT('Ctrl Pts',(-9.43447610151947E-16,16.3834350077907,
-0.23302736716949));
#647=CARTESIAN_POINT('Ctrl Pts',(0.233027367169489,16.3834350077907,-0.23302736716949));
#648=CARTESIAN_POINT('Ctrl Pts',(0.233027367169489,16.3834350077907,0.));
#649=CARTESIAN_POINT('Ctrl Pts',(0.233027367169489,16.3834350077907,0.23302736716949));
#650=CARTESIAN_POINT('Ctrl Pts',(-9.43447610151947E-16,16.3834350077907,
0.23302736716949));
#651=CARTESIAN_POINT('Ctrl Pts',(-9.43447610151947E-16,16.2218151681032,
0.403149424046797));
#652=CARTESIAN_POINT('Ctrl Pts',(-0.403149424046798,16.2218151681032,0.403149424046797));
#653=CARTESIAN_POINT('Ctrl Pts',(-0.403149424046798,16.2218151681032,0.));
#654=CARTESIAN_POINT('Ctrl Pts',(-0.403149424046798,16.2218151681032,-0.403149424046797));
#655=CARTESIAN_POINT('Ctrl Pts',(-9.43447610151947E-16,16.2218151681032,
-0.403149424046797));
#656=CARTESIAN_POINT('Ctrl Pts',(0.403149424046796,16.2218151681032,-0.403149424046797));
#657=CARTESIAN_POINT('Ctrl Pts',(0.403149424046796,16.2218151681032,0.));
#658=CARTESIAN_POINT('Ctrl Pts',(0.403149424046796,16.2218151681032,0.403149424046797));
#659=CARTESIAN_POINT('Ctrl Pts',(-9.43447610151947E-16,16.2218151681032,
0.403149424046797));
#660=CARTESIAN_POINT('Ctrl Pts',(-9.43447610151947E-16,16.0601953284158,
0.573271480924101));
#661=CARTESIAN_POINT('Ctrl Pts',(-0.573271480924102,16.0601953284158,0.573271480924101));
#662=CARTESIAN_POINT('Ctrl Pts',(-0.573271480924102,16.0601953284158,0.));
#663=CARTESIAN_POINT('Ctrl Pts',(-0.573271480924102,16.0601953284158,-0.573271480924101));
#664=CARTESIAN_POINT('Ctrl Pts',(-9.43447610151947E-16,16.0601953284158,
-0.573271480924101));
#665=CARTESIAN_POINT('Ctrl Pts',(0.5732714809241,16.0601953284158,-0.573271480924101));
#666=CARTESIAN_POINT('Ctrl Pts',(0.5732714809241,16.0601953284158,0.));
#667=CARTESIAN_POINT('Ctrl Pts',(0.5732714809241,16.0601953284158,0.573271480924101));
#668=CARTESIAN_POINT('Ctrl Pts',(-9.43447610151947E-16,16.0601953284158,
0.573271480924101));
#669=CARTESIAN_POINT('Ctrl Pts',(-9.43447610151947E-16,15.8260610471621,
0.557662984566562));
#670=CARTESIAN_POINT('Ctrl Pts',(-0.557662984566562,15.8260610471621,0.557662984566562));
#671=CARTESIAN_POINT('Ctrl Pts',(-0.557662984566563,15.8260610471621,0.));
#672=CARTESIAN_POINT('Ctrl Pts',(-0.557662984566562,15.8260610471621,-0.557662984566562));
#673=CARTESIAN_POINT('Ctrl Pts',(-9.43447610151947E-16,15.8260610471621,
-0.557662984566562));
#674=CARTESIAN_POINT('Ctrl Pts',(0.557662984566561,15.8260610471621,-0.557662984566562));
#675=CARTESIAN_POINT('Ctrl Pts',(0.557662984566561,15.8260610471621,0.));
#676=CARTESIAN_POINT('Ctrl Pts',(0.557662984566561,15.8260610471621,0.557662984566562));
#677=CARTESIAN_POINT('Ctrl Pts',(-9.43447610151947E-16,15.8260610471621,
0.557662984566562));
#678=CARTESIAN_POINT('',(-1.95444043436278E-15,16.355853619739,0.));
#679=CARTESIAN_POINT('Origin',(-9.50644901173832E-16,15.859319585661,0.0587703411865101));
#680=UNCERTAINTY_MEASURE_WITH_UNIT(LENGTH_MEASURE(0.001),#684,
'DISTANCE_ACCURACY_VALUE',
'Maximum model space distance between geometric entities at asserted c
onnectivities');
#681=UNCERTAINTY_MEASURE_WITH_UNIT(LENGTH_MEASURE(0.001),#684,
'DISTANCE_ACCURACY_VALUE',
'Maximum model space distance between geometric entities at asserted c
onnectivities');
#682=(
GEOMETRIC_REPRESENTATION_CONTEXT(3)
GLOBAL_UNCERTAINTY_ASSIGNED_CONTEXT((#680))
GLOBAL_UNIT_ASSIGNED_CONTEXT((#684,#686,#687))
REPRESENTATION_CONTEXT('','3D')
);
#683=(
GEOMETRIC_REPRESENTATION_CONTEXT(3)
GLOBAL_UNCERTAINTY_ASSIGNED_CONTEXT((#681))
GLOBAL_UNIT_ASSIGNED_CONTEXT((#684,#686,#687))
REPRESENTATION_CONTEXT('','3D')
);
#684=(
LENGTH_UNIT()
NAMED_UNIT(*)
SI_UNIT(.CENTI.,.METRE.)
);
#685=(
LENGTH_UNIT()
NAMED_UNIT(*)
SI_UNIT($,.METRE.)
);
#686=(
NAMED_UNIT(*)
PLANE_ANGLE_UNIT()
SI_UNIT($,.RADIAN.)
);
#687=(
NAMED_UNIT(*)
SI_UNIT($,.STERADIAN.)
SOLID_ANGLE_UNIT()
);
#688=SHAPE_DEFINITION_REPRESENTATION(#689,#690);
#689=PRODUCT_DEFINITION_SHAPE('',$,#692);
#690=SHAPE_REPRESENTATION('',(#322),#682);
#691=PRODUCT_DEFINITION_CONTEXT('part definition',#696,'design');
#692=PRODUCT_DEFINITION('temp_body','temp_body',#693,#691);
#693=PRODUCT_DEFINITION_FORMATION('',$,#698);
#694=PRODUCT_RELATED_PRODUCT_CATEGORY('temp_body','temp_body',(#698));
#695=APPLICATION_PROTOCOL_DEFINITION('international standard',
'automotive_design',2009,#696);
#696=APPLICATION_CONTEXT(
'Core Data for Automotive Mechanical Design Process');
#697=PRODUCT_CONTEXT('part definition',#696,'mechanical');
#698=PRODUCT('temp_body','temp_body',$,(#697));
#699=PRESENTATION_STYLE_ASSIGNMENT((#700));
#700=SURFACE_STYLE_USAGE(.BOTH.,#701);
#701=SURFACE_SIDE_STYLE('',(#702));
#702=SURFACE_STYLE_FILL_AREA(#703);
#703=FILL_AREA_STYLE('Steel - Satin',(#704));
#704=FILL_AREA_STYLE_COLOUR('Steel - Satin',#705);
#705=COLOUR_RGB('Steel - Satin',0.627450980392157,0.627450980392157,0.627450980392157);
ENDSEC;
END-ISO-10303-21;
