# WaveFront *.obj file
# Vertices: 53
# Triangles : 102

v -0.006336261247043295 0.00498435464523558 -0.005045136864403974
v -0.006336261247043296 0.005127107974105133 -0.0049489036272339785
v -0.006336261247043296 0.00529188441770947 -0.004899023045119674
v -0.006336261247043296 0.005464042865932747 -0.004899927226687868
v -0.006336261247043296 0.005628286285145418 -0.00495153583143829
v -0.006336261247043296 0.005770020926780068 -0.005049263208358233
v -0.006336261247043296 0.005876653045935225 -0.005184425851138831
v -0.006336261247043296 0.0059387079108766064 -0.005345013965817538
v -0.006336261247043296 0.005950671674530882 -0.0055167585936758195
v -0.006336261247043296 0.005911481303995256 -0.0056843994708395814
v -0.006336261247043296 0.005824619035675929 -0.0058330409696929495
v -0.006336261247043296 0.005697802963301856 -0.005949475640760331
v -0.006336261247043296 0.005542301251426644 -0.006023357752552249
v -0.006336261247043296 0.0053719309095584256 -0.006048122555209685
v -0.006336261247043296 0.0052018300902301265 -0.0060215695873379795
v -0.006336261247043296 0.005047112997714213 -0.0059460581966583135
v -0.006336261247043296 0.0049215269246455015 -0.005828297901608857
v -0.006336261247043296 0.004836230744741552 -0.005678752221187293
v -0.006336261247043296 0.004798803397902951 -0.0055107089453694915
v -0.006336261247043296 0.004812570468143515 -0.00533909945665763
v -0.006336261247043296 0.004876308690856574 -0.005179172011219597
v 1.1207514072712863e-05 0.00498435464524654 -0.005045136864409795
v 1.1147812291329797e-05 0.004910127915597707 -0.005127801402812311
v 1.1239695486269333e-05 0.004852806230384295 -0.005224103901002226
v 1.1478621470650428e-05 0.004814183538003874 -0.005332404400990753
v 1.1842263227747753e-05 0.004798085072370589 -0.0054459539255756065
v 1.2275234494742446e-05 0.004803898793936549 -0.005556885479194105
v 1.27524672213986e-05 0.004831462008770438 -0.005665513384342577
v 1.3238889790408777e-05 0.004880731106237566 -0.005769403349857403
v 1.3678798774047921e-05 0.004949638971013491 -0.0058610784076538035
v 1.4034504267931656e-05 0.005032190321697315 -0.005935408430022203
v 1.4301867728264567e-05 0.005128492332688246 -0.005992730366085273
v 1.4480718469915679e-05 0.005236792822268736 -0.006031353579412109
v 1.4568102870675393e-05 0.005350342841963178 -0.006047452533910056
v 1.4587236926366309e-05 0.005461275265369127 -0.006041639039458317
v 1.4564373313666312e-05 0.005569904108739207 -0.006014075681198665
v 1.4524707506679226e-05 0.005673794907579664 -0.005964806088263315
v 1.4492578222207729e-05 0.005765470443775713 -0.005895897528308758
v 1.4481716844655147e-05 0.005839800516075339 -0.0058133455412239035
v 1.4497683175707563e-05 0.0058971222627891146 -0.0057170429169348695
v 1.4532871456385137e-05 0.00593574501268866 -0.0056087420544118005
v 1.4571154970498116e-05 0.00595184340462263 -0.005495191936005845
v 1.4587602009536405e-05 0.0059460293579657935 -0.005384259632315468
v 1.455678533246257e-05 0.005918465436967406 -0.005275630829127769
v 1.445238885543417e-05 0.005869195343747869 -0.0051717403249036025
v 1.4254457383142561e-05 0.005800286491788712 -0.005080065305961307
v 1.3970793463485105e-05 0.005717734533810879 -0.005005735883728831
v 1.3595582776762565e-05 0.005621432212945576 -0.004948414740176096
v 1.3142623328983072e-05 0.005513132087149161 -0.004909792500153743
v 1.2653318937811556e-05 0.005399582934429187 -0.004893694291129056
v 1.2184768457004848e-05 0.00528865152421897 -0.004899508154197876
v 1.1761213227635963e-05 0.005180023461810305 -0.004927071570670897
v 1.141884727605087e-05 0.005076133196122473 -0.004976341055002023

vn -1.0000000000000000e+00 4.9303806576313238e-32 1.2246467991473532e-16
vn 9.9997590677843329e-01 -5.5071445236451006e-03 4.2257806196933012e-03
vn 9.9997548111995205e-01 -5.5555787082278516e-03 4.2629454766644004e-03
vn 9.9997741300252918e-01 -5.3322248152724416e-03 4.0915600067295502e-03
vn 9.9997613305206856e-01 -5.4812234102606773e-03 4.2058906498349709e-03
vn 9.9997783922138495e-01 -5.2816759718697613e-03 4.0527725149755531e-03
vn 9.9997985490555552e-01 -5.0357495094556122e-03 3.8640665033069809e-03
vn 9.9998043269809345e-01 -4.9630082926945089e-03 3.8082502045477594e-03
vn 9.9998287252823581e-01 -4.6432965674855376e-03 3.5629267694216021e-03
vn 9.9998351738191205e-01 -4.5550480311809553e-03 3.4952112858654552e-03
vn 9.9998621512778141e-01 -4.1656380160916065e-03 3.1964064718981032e-03
vn 9.9998692190748406e-01 -4.0574430717692615e-03 3.1133855711566868e-03
vn 9.9998969998477827e-01 -3.6008038757677171e-03 2.7629939922956875e-03
vn 9.9999038631335435e-01 -3.4787689879256104e-03 2.6693533293794540e-03
vn 9.9999293604744677e-01 -2.9819803152670785e-03 2.2881539735263167e-03
vn 9.9999352920212337e-01 -2.8540387611067672e-03 2.1899809661351378e-03
vn 9.9999560318339475e-01 -2.3526122316943903e-03 1.8052228576283952e-03
vn 9.9999605730144414e-01 -2.2278092932175092e-03 1.7094581947560063e-03
vn 9.9999763238502892e-01 -1.7263821386828658e-03 1.3246996065760773e-03
vn 9.9999797030976545e-01 -1.5984399050533735e-03 1.2265260778098585e-03
vn 9.9999903589956962e-01 -1.1016475833590105e-03 8.4532392195304801e-04
vn 9.9999923766746046e-01 -9.7961132778742787e-04 7.5168220954107497e-04
vn 9.9999978273707180e-01 -5.2296719023189420e-04 4.0128683889233715e-04
vn 9.9999986333636837e-01 -4.1477074455213204e-04 3.1826478611885601e-04
vn 9.9999999948926366e-01 -2.5355957980405151e-05 1.9456310864302912e-05
vn 9.9999999685768237e-01 6.2893634414557044e-05 -4.8259983058494437e-05
vn 9.9999988370914072e-01 3.8260833743981258e-04 -2.9358570314345163e-04
vn 9.9999983528697800e-01 4.5535027401795788e-04 -3.4940255423771650e-04
vn 9.9999960932312704e-01 7.0127839837294656e-04 -5.3810984115834517e-04
vn 9.9999955097209803e-01 7.5182760511564146e-04 -5.7689761171294304e-04
vn 9.9999931897632421e-01 9.2589701446008424e-04 -7.1046576728449123e-04
vn 9.9999924454523526e-01 9.7518228360009729e-04 -7.4828368440542977e-04
vn 9.9999935535670315e-01 9.0082684116236532e-04 -6.9122874671984189e-04
vn 7.2681809357329478e-17 -8.0483987908001298e-01 5.9349201261893170e-01
vn 9.0209197869314908e-17 -6.7631339875581475e-01 7.3661400113177200e-01
vn 9.0209197868721537e-17 -6.7631339876109187e-01 7.3661400112692688e-01
vn 1.0479761817824693e-16 -5.1741022697348438e-01 8.5573749305686464e-01
vn 1.1061440740806276e-16 -4.2914590366921634e-01 9.0323518164646999e-01
vn 1.1527405947992728e-16 -3.3761544666710874e-01 9.4128412829058605e-01
vn 1.2119104142586603e-16 -1.4384691176055242e-01 9.8959995249441679e-01
vn 1.2108938913325158e-16 -1.4944593588890254e-01 9.8876989853367303e-01
vn 1.2235331476321775e-16 4.2636885433572587e-02 9.9909063452748081e-01
vn 1.2099931957485566e-16 1.5423350951981274e-01 9.8803442477537273e-01
vn 1.1890865151667632e-16 2.3923041896234429e-01 9.7096282454226912e-01
vn 1.1005627718285149e-16 4.3860960663673210e-01 8.9867770249738088e-01
vn 1.1074727888231405e-16 4.2685483363005972e-01 9.0432015957107470e-01
vn 9.8564731826996943e-17 5.9348898232021252e-01 8.0484211362510016e-01
vn 8.9334251589133498e-17 6.8401331539742449e-01 7.2946952257035624e-01
vn 8.2824914598352047e-17 7.3661092204875422e-01 6.7631675235682587e-01
vn 6.0674485704815025e-17 8.6863943934206223e-01 4.9544477433868217e-01
vn 6.3364929339180694e-17 8.5573526384466336e-01 5.1741391381823543e-01
vn 4.1346368588058735e-17 9.4128295389795102e-01 3.3761872089851247e-01
vn 2.6623525500029190e-17 9.7608313713976358e-01 2.1739758368343817e-01
vn 1.8302092400798515e-17 9.8876959776524831e-01 1.4944792583086891e-01
vn -9.7930517808516559e-18 9.9679756473230341e-01 -7.9966336315662662e-02
vn -5.2214583659394060e-18 9.9909065340114012e-01 -4.2636443173450819e-02
vn -2.9297427280993986e-17 9.7096252155793750e-01 -2.3923164867937469e-01
vn -4.5339473434904336e-17 9.2894215432431415e-01 -3.7022489640663325e-01
vn -5.2274947621049270e-17 9.0431897609770795e-01 -4.2685734088755367e-01
vn -7.6857283905263186e-17 7.7854615690911244e-01 -6.2758734974667196e-01
vn -7.2681809140430521e-17 8.0483988038603937e-01 -5.9349201084781733e-01
vn -9.0209198217514907e-17 6.7631339565903814e-01 -7.3661400397504084e-01
vn -1.0154598741800481e-16 5.5897291685899853e-01 -8.2918591294000110e-01
vn -1.0479766014937891e-16 5.1740966015277723e-01 -8.5573783577716578e-01
vn -1.1527412488686277e-16 3.3761395760621415e-01 -9.4128466237874575e-01
vn -1.1721188432143059e-16 2.8973248013372155e-01 -9.5710766894616550e-01
vn -1.2108944173706384e-16 1.4944309390431293e-01 -9.8877032807639753e-01
vn -1.2246299092701518e-16 -5.2519589214845668e-03 -9.9998620836863894e-01
vn -1.2235329073255564e-16 -4.2641483241683965e-02 -9.9909043830223354e-01
vn -1.1890846756525827e-16 -2.3923651535063459e-01 -9.7096132246495037e-01
vn -1.1683272336875059e-16 -2.9976973837867205e-01 -9.5401158481036397e-01
vn -1.1074688972710374e-16 -4.2686156571859474e-01 -9.0431698187763221e-01
vn -1.0082135562721093e-16 -5.6765166106308651e-01 -8.2326884533080602e-01
vn -9.8564173167984026e-17 -5.9349516861335605e-01 -8.0483755182807171e-01
vn -1.0082135562721091e-16 -5.6765166106308673e-01 -8.2326884533080591e-01
vn -9.8564173167984014e-17 -5.9349516861335638e-01 -8.0483755182807160e-01
vn -8.2824229101268715e-17 -7.3661606134246471e-01 -6.7631115484835391e-01
vn -7.5851567990961874e-17 -7.8509524256376251e-01 -6.1937505608778509e-01
vn -6.3364235568477472e-17 -8.5573868915978635e-01 -5.1740824875053015e-01
vn -4.4142035669592197e-17 -9.3277966642892451e-01 -3.6044707502869855e-01
vn -4.1345788869840571e-17 -9.4128465178574761e-01 -3.3761398714002339e-01
vn -1.8301703557009205e-17 -9.8877007766926361e-01 -1.4944475068037180e-01
vn -8.5102897648466612e-18 -9.9758252349573218e-01 -6.9491789557379391e-02
vn 5.2216881621528984e-18 -9.9909057332232065e-01 4.2638319601933317e-02
vn 2.7877632732297144e-17 -9.7374579553114649e-01 2.2763814637580965e-01
vn 2.9297531063618198e-17 -9.7096231275780087e-01 2.3923249612881309e-01
vn 5.2274974766390356e-17 -9.0431887147024381e-01 4.2685756254608487e-01
vn 6.1788505222199942e-17 -8.6338748042057956e-01 5.0454143402995499e-01

g face 0
f 2//1 10//1 1//1
f 1//1 10//1 11//1
f 1//1 11//1 21//1
f 21//1 11//1 12//1
f 21//1 12//1 20//1
f 20//1 12//1 13//1
f 20//1 13//1 19//1
f 19//1 13//1 14//1
f 19//1 14//1 18//1
f 18//1 14//1 15//1
f 18//1 15//1 17//1
f 17//1 15//1 16//1
f 10//1 2//1 9//1
f 9//1 2//1 3//1
f 9//1 3//1 8//1
f 8//1 3//1 4//1
f 8//1 4//1 7//1
f 7//1 4//1 5//1
f 7//1 5//1 6//1

g face 1
f 22//2 23//3 53//4
f 53//4 23//3 24//5
f 53//4 24//5 25//6
f 53//4 25//6 52//7
f 52//7 25//6 26//8
f 52//7 26//8 51//9
f 51//9 26//8 27//10
f 51//9 27//10 50//11
f 50//11 27//10 28//12
f 50//11 28//12 49//13
f 49//13 28//12 29//14
f 49//13 29//14 48//15
f 48//15 29//14 30//16
f 48//15 30//16 47//17
f 47//17 30//16 31//18
f 47//17 31//18 46//19
f 46//19 31//18 32//20
f 46//19 32//20 45//21
f 45//21 32//20 33//22
f 45//21 33//22 44//23
f 44//23 33//22 34//24
f 44//23 34//24 43//25
f 43//25 34//24 35//26
f 43//25 35//26 42//27
f 42//27 35//26 36//28
f 42//27 36//28 41//29
f 41//29 36//28 37//30
f 41//29 37//30 38//31
f 39//32 40//33 38//31
f 38//31 40//33 41//29

g face 2
f 23//34 22//35 1//36
f 1//36 22//35 53//37
f 1//36 53//37 2//38
f 2//38 53//37 52//39
f 2//38 52//39 3//40
f 3//40 52//39 51//41
f 3//40 51//41 50//42
f 3//40 50//42 4//43
f 4//43 50//42 49//44
f 4//43 49//44 5//45
f 5//45 49//44 48//46
f 5//45 48//46 47//47
f 5//45 47//47 6//48
f 6//48 47//47 46//49
f 6//48 46//49 7//50
f 7//50 46//49 45//51
f 7//50 45//51 44//52
f 7//50 44//52 8//53
f 8//53 44//52 43//54
f 8//53 43//54 9//55
f 9//55 43//54 42//56
f 9//55 42//56 41//57
f 9//55 41//57 10//58
f 10//58 41//57 40//59
f 10//58 40//59 11//60
f 11//60 40//59 39//61
f 11//60 39//61 38//62
f 11//60 38//62 12//63
f 12//63 38//62 37//64
f 12//63 37//64 36//65
f 12//63 36//65 13//66
f 13//66 36//65 35//67
f 13//66 35//67 14//68
f 14//68 35//67 34//69
f 14//68 34//69 33//70
f 14//68 33//70 15//71
f 15//71 33//70 32//72
f 15//71 32//72 16//73
f 16//73 32//72 31//74
f 16//75 31//76 30//77
f 16//75 30//77 17//78
f 17//78 30//77 29//79
f 17//78 29//79 18//80
f 18//80 29//79 28//81
f 18//80 28//81 27//82
f 18//80 27//82 19//83
f 19//83 27//82 26//84
f 19//83 26//84 20//85
f 20//85 26//84 25//86
f 20//85 25//86 24//87
f 20//85 24//87 21//88
f 21//88 24//87 23//34
f 21//88 23//34 1//36

g halfedge 0 edge 0
l 1 2 3 4 5 6 7 8 9 10 11 12 13 14 15 16 17 18 19 20 21 1

g halfedge 1 edge 0
l 1 21 20 19 18 17 16 15 14 13 12 11 10 9 8 7 6 5 4 3 2 1

g halfedge 2 edge 1
l 22 53 52 51 50 49 48 47 46 45 44 43 42 41 40 39 38 37 36 35 34 33 32 31 30 29 28 27 26 25 24 23 22

g halfedge 3 edge 1
l 22 23 24 25 26 27 28 29 30 31 32 33 34 35 36 37 38 39 40 41 42 43 44 45 46 47 48 49 50 51 52 53 22

g vertex 0
p 1

g vertex 1
p 22

# End of file
