# WaveFront *.obj file
# Vertices: 355
# Triangles : 706

v -0.0020272177052935102 0.0014223999846518032 -0.00965199988335371
v -0.0021009937113674083 0.0013003178910276731 -0.009784798742884437
v -0.002200353237706853 0.0012044046959624574 -0.009922452079921379
v -0.002320141588025763 0.0011398545505027508 -0.010047195007009933
v -0.002463613225286997 0.0010962377860667483 -0.010159908881494857
v -0.0026266255123467653 0.0010691979118749907 -0.010253897278601846
v -0.0028042329163011992 0.0010542714046164433 -0.010322733795651086
v -0.0029895145500409776 0.0010473637216315793 -0.010364403504382468
v -0.0031750000000000007 0.0010456795289316722 -0.010378404625870433
v -0.0033604854499590243 0.001047363721631579 -0.010364403504382462
v -0.0035457670836988035 0.0010542714046164433 -0.010322733795651086
v -0.0037233744876532383 0.001069197911874991 -0.010253897278601846
v -0.0038863867747130055 0.0010962377860667485 -0.010159908881494855
v -0.0040298584119742385 0.001139854550502751 -0.010047195007009933
v -0.004149646762293149 0.0012044046959624577 -0.009922452079921375
v -0.004249006288632593 0.0013003178910276734 -0.009784798742884437
v -0.004322782294706491 0.0014223999846518032 -0.00965199988335371
v -0.004385415281009512 0.001655609927398096 -0.009492831624459052
v -0.004420306857854035 0.0019086304626774568 -0.00935751083827045
v -0.004437498023507756 0.0021840021497634685 -0.009246226655836135
v -0.0044438794412476 0.002473171598837044 -0.009166031240572596
v -0.00444523673501452 0.00276617953195835 -0.009119134047395325
v -0.004444994598766893 0.003052191671114818 -0.009104504978005341
v -0.004445057413357378 0.0033391119638738575 -0.009121235970538271
v -0.004443477618516271 0.0036322000217415386 -0.009170569980556896
v -0.001906522381483731 0.0036322000217415386 -0.009170569980556896
v -0.0019049425866426233 0.003339111963873859 -0.009121235970538268
v -0.0019050054012331081 0.003052191671114819 -0.009104504978005341
v -0.001904763264985481 0.0027661795319583503 -0.009119134047395323
v -0.0019061205587524008 0.0024731715988370465 -0.009166031240572598
v -0.0019125019764922439 0.0021840021497634703 -0.009246226655836133
v -0.001929693142145967 0.0019086304626774581 -0.00935751083827045
v -0.00196458471899049 0.0016556099273980968 -0.009492831624459056
v -0.004253518429466754 0.004089399952420592 -0.00977899988181889
v -0.004153616511162682 0.004056345560491235 -0.00991784672267717
v -0.004043456835358324 0.004007871109757276 -0.010034995919052223
v -0.0039205332477282116 0.003947735657203845 -0.010136450052799381
v -0.0037868384478008344 0.0038814462458377475 -0.010221278887498157
v -0.003644463997482208 0.0038146600966757526 -0.010288456486537326
v -0.003494856514959116 0.003754929320301731 -0.010337469582365153
v -0.003338409168649956 0.0037116355932944067 -0.010367870028973636
v -0.0031750000000000007 0.003695057356452151 -0.01037840462587044
v -0.0030115908313500432 0.0037116355932944067 -0.010367870028973636
v -0.0028551434850408843 0.003754929320301731 -0.010337469582365153
v -0.0027055360025177917 0.0038146600966757513 -0.01028845648653732
v -0.0025631615521991657 0.003881446245837747 -0.010221278887498155
v -0.0024294667522717877 0.003947735657203845 -0.010136450052799378
v -0.0023065431646416756 0.004007871109757277 -0.010034995919052223
v -0.0021963834888373193 0.004056345560491236 -0.00991784672267717
v -0.0020964815705332472 0.004089399952420592 -0.00977899988181889
v -0.004441720910652011 0.0037389529428480486 -0.009199618150791492
v -0.004437104573590713 0.003837880371850039 -0.009249626227528528
v -0.004427909909652272 0.003922767620300456 -0.00931604403861602
v -0.00441190995795454 0.00399166738606507 -0.00939619136972263
v -0.0043865924130585985 0.0040448716135213034 -0.009489095405064056
v -0.004350700987316001 0.004078337121499391 -0.009588338358508428
v -0.004305723439398833 0.004092397472467042 -0.009686579125532517
v -0.002044276560601168 0.0040923974724670405 -0.009686579125532514
v -0.0019992990126839988 0.004078337121499392 -0.009588338358508431
v -0.001963407586941401 0.004044871613521303 -0.009489095405064055
v -0.0019380900420454606 0.003991667386065069 -0.00939619136972263
v -0.0019220900903477297 0.003922767620300454 -0.00931604403861602
v -0.0019128954264092878 0.0038378803718500387 -0.009249626227528524
v -0.0019082790893479907 0.0037389529428480464 -0.009199618150791492
v -0.004445000000000001 0.0045974 -0.00910840462587044
v -0.004408096108131087 0.0045974 -0.00880447373222524
v -0.004299529152579577 0.0045974 -0.008518206197374853
v -0.004125608650177299 0.0045974 -0.00826623884990463
v -0.0038964422283485683 0.0045974 -0.008063215116185496
v -0.0036253482065440206 0.0045974 -0.007920933997659963
v -0.003328081583924261 0.0045974 -0.00784766435576591
v -0.003021918416075741 0.0045974 -0.00784766435576591
v -0.0027246517934559804 0.0045974 -0.007920933997659963
v -0.0024535577716514327 0.0045974 -0.008063215116185496
v -0.0022243913498227025 0.0045974 -0.008266238849904628
v -0.002050470847420424 0.0045974 -0.008518206197374853
v -0.0019419038918689147 0.0045974 -0.00880447373222524
v -0.0019050000000000007 0.0045974 -0.00910840462587044
v -0.0019419038918689145 0.0045974 -0.009412335519515636
v -0.002050470847420424 0.0045974 -0.009698603054366026
v -0.002224391349822702 0.0045974 -0.009950570401836249
v -0.0024535577716514327 0.0045974 -0.010153594135555381
v -0.00272465179345598 0.0045974 -0.010295875254080916
v -0.00302191841607574 0.0045974 -0.010369144895974966
v -0.00332808158392426 0.0045974 -0.010369144895974966
v -0.0036253482065440206 0.0045974 -0.010295875254080916
v -0.0038964422283485683 0.0045974 -0.010153594135555381
v -0.0041256086501772985 0.0045974 -0.009950570401836249
v -0.004299529152579576 0.0045974 -0.009698603054366026
v -0.004408096108131087 0.0045974 -0.009412335519515638
v -0.004064000000000001 0.0049784 -0.00910840462587044
v -0.004027989253543289 0.0049784 -0.00935886486890247
v -0.003922874390686921 0.0049784 -0.009589034312588465
v -0.003757171192477359 0.0049784 -0.009780265997471374
v -0.0035443039465586777 0.0049784 -0.009917067469740606
v -0.003301517891224951 0.0049784 -0.009988355887702588
v -0.00304848210877505 0.0049784 -0.009988355887702588
v -0.0028056960534413233 0.0049784 -0.009917067469740606
v -0.002592828807522642 0.0049784 -0.009780265997471374
v -0.0024271256093130805 0.0049784 -0.009589034312588465
v -0.0023220107464567126 0.0049784 -0.00935886486890247
v -0.0022860000000000007 0.0049784 -0.00910840462587044
v -0.0023220107464567126 0.0049784 -0.008857944382838408
v -0.0024271256093130805 0.0049784 -0.008627774939152413
v -0.002592828807522642 0.0049784 -0.008436543254269502
v -0.0028056960534413237 0.0049784 -0.008299741782000271
v -0.00304848210877505 0.0049784 -0.00822845336403829
v -0.003301517891224951 0.0049784 -0.00822845336403829
v -0.0035443039465586773 0.0049784 -0.008299741782000271
v -0.0037571711924773593 0.0049784 -0.008436543254269502
v -0.003922874390686921 0.0049784 -0.008627774939152413
v -0.004027989253543289 0.0049784 -0.008857944382838408
v -0.0031750000000000007 0.004743202387731098 -0.01034940272775724
v -0.0031750000000000007 0.0048668076836320745 -0.010266812309502514
v -0.0031750000000000007 0.004949398101886799 -0.010143207013601538
v -0.004026625669490927 0.004949398101886799 -0.009696239382173701
v -0.004026625669490927 0.004949398101886799 -0.008520569869567177
v -0.002323374330509074 0.004949398101886799 -0.008520569869567177
v -0.002323374330509074 0.004949398101886799 -0.009696239382173701
v -0.0044069498284818685 0.004743202387731098 -0.008958818834465846
v -0.004324961587364931 0.0048668076836320745 -0.00896877400930317
v -0.004202257513238518 0.004949398101886799 -0.008983672981333051
v -0.004202257513238518 0.004949398101886799 -0.009233136270407828
v -0.004324961587364931 0.0048668076836320745 -0.009248035242437709
v -0.0044069498284818685 0.004743202387731098 -0.009257990417275031
v -0.004335353382405927 0.004743202387731098 -0.00866834063413087
v -0.004258129999847577 0.0048668076836320745 -0.008697627600066883
v -0.004142557040498228 0.004949398101886799 -0.008741458642057706
v -0.004196321415457489 0.004743202387731098 -0.008403437353428269
v -0.004128350833756441 0.0048668076836320745 -0.00845035405845656
v -0.003997933960194957 0.004743202387731098 -0.008179504208148234
v -0.003943166382496664 0.0048668076836320745 -0.008241324023907842
v -0.003861200910106169 0.004949398101886799 -0.008333843916420593
v -0.0037517205744091306 0.004743202387731098 -0.008009555378730574
v -0.003713338893257373 0.0048668076836320745 -0.008082685562235441
v -0.003655896648064863 0.004949398101886799 -0.008192132616293608
v -0.0034719902851326383 0.004743202387731098 -0.007903467673402189
v -0.0034522251043242213 0.0048668076836320745 -0.00798365816420441
v -0.0034226444208262192 0.004949398101886799 -0.008103671714849988
v -0.0031750000000000007 0.004743202387731098 -0.007867406523983638
v -0.0031750000000000007 0.0048668076836320745 -0.007949996942238365
v -0.0031750000000000007 0.004949398101886799 -0.00807360223813934
v -0.0028780097148673627 0.004743202387731098 -0.007903467673402189
v -0.0028977748956757797 0.0048668076836320745 -0.00798365816420441
v -0.0029273555791737823 0.004949398101886799 -0.008103671714849988
v -0.002598279425590871 0.004743202387731098 -0.008009555378730574
v -0.0026366611067426284 0.0048668076836320745 -0.008082685562235441
v -0.0026941033519351384 0.004949398101886799 -0.008192132616293608
v -0.002352066039805044 0.004743202387731098 -0.008179504208148234
v -0.0024068336175033372 0.0048668076836320745 -0.008241324023907842
v -0.002488799089893832 0.004949398101886799 -0.008333843916420593
v -0.002153678584542512 0.004743202387731098 -0.008403437353428269
v -0.00222164916624356 0.0048668076836320745 -0.00845035405845656
v -0.0020146466175940732 0.004743202387731098 -0.00866834063413087
v -0.0020918700001524237 0.0048668076836320745 -0.008697627600066883
v -0.0022074429595017727 0.004949398101886799 -0.008741458642057706
v -0.0019430501715181332 0.004743202387731098 -0.008958818834465846
v -0.002025038412635069 0.0048668076836320745 -0.00896877400930317
v -0.0021477424867614833 0.004949398101886799 -0.00898367298133305
v -0.0019430501715181332 0.004743202387731098 -0.00925799041727503
v -0.002025038412635069 0.0048668076836320745 -0.009248035242437707
v -0.0021477424867614833 0.004949398101886799 -0.009233136270407826
v -0.0020146466175940732 0.004743202387731098 -0.00954846861761001
v -0.0020918700001524237 0.0048668076836320745 -0.009519181651673996
v -0.0022074429595017727 0.004949398101886799 -0.009475350609683172
v -0.002153678584542512 0.004743202387731098 -0.009813371898312608
v -0.00222164916624356 0.0048668076836320745 -0.009766455193284318
v -0.002352066039805044 0.004743202387731098 -0.010037305043592643
v -0.002406833617503337 0.0048668076836320745 -0.009975485227833035
v -0.002488799089893832 0.004949398101886799 -0.009882965335320286
v -0.0025982794255908705 0.004743202387731098 -0.010207253873010302
v -0.0026366611067426284 0.0048668076836320745 -0.010134123689505437
v -0.0026941033519351384 0.004949398101886799 -0.01002467663544727
v -0.0028780097148673623 0.004743202387731098 -0.010313341578338688
v -0.002897774895675779 0.0048668076836320745 -0.010233151087536467
v -0.002927355579173781 0.004949398101886799 -0.01011313753689089
v -0.0034719902851326383 0.004743202387731098 -0.010313341578338691
v -0.0034522251043242213 0.0048668076836320745 -0.01023315108753647
v -0.0034226444208262192 0.004949398101886799 -0.01011313753689089
v -0.0037517205744091306 0.004743202387731098 -0.010207253873010302
v -0.003713338893257373 0.0048668076836320745 -0.010134123689505437
v -0.003655896648064863 0.004949398101886799 -0.01002467663544727
v -0.003997933960194957 0.004743202387731098 -0.010037305043592643
v -0.003943166382496664 0.0048668076836320745 -0.009975485227833035
v -0.003861200910106169 0.004949398101886799 -0.009882965335320286
v -0.004196321415457489 0.004743202387731098 -0.009813371898312608
v -0.004128350833756441 0.0048668076836320745 -0.009766455193284318
v -0.004335353382405927 0.004743202387731098 -0.00954846861761001
v -0.004258129999847577 0.0048668076836320745 -0.009519181651673996
v -0.004142557040498228 0.004949398101886799 -0.009475350609683172
v -0.004445000000000001 -0.0028956000000000003 -0.00910840462587044
v -0.004408096108131087 -0.0028956000000000003 -0.00880447373222524
v -0.004299529152579576 -0.0028956000000000003 -0.008518206197374853
v -0.0041256086501772985 -0.0028956000000000003 -0.008266238849904628
v -0.0038964422283485683 -0.0028956000000000003 -0.008063215116185496
v -0.0036253482065440206 -0.0028956000000000003 -0.007920933997659963
v -0.00332808158392426 -0.0028956000000000003 -0.00784766435576591
v -0.00302191841607574 -0.0028956000000000003 -0.00784766435576591
v -0.00272465179345598 -0.0028956000000000003 -0.007920933997659963
v -0.0024535577716514327 -0.0028956000000000003 -0.008063215116185496
v -0.002224391349822702 -0.0028956000000000003 -0.00826623884990463
v -0.002050470847420424 -0.0028956000000000003 -0.008518206197374853
v -0.0019419038918689145 -0.0028956000000000003 -0.00880447373222524
v -0.0019050000000000007 -0.0028956000000000003 -0.00910840462587044
v -0.0019419038918689147 -0.0028956000000000003 -0.009412335519515638
v -0.002050470847420424 -0.0028956000000000003 -0.009698603054366026
v -0.0022243913498227025 -0.0028956000000000003 -0.009950570401836249
v -0.0024535577716514327 -0.0028956000000000003 -0.010153594135555381
v -0.0027246517934559804 -0.0028956000000000003 -0.010295875254080916
v -0.003021918416075741 -0.0028956000000000003 -0.010369144895974966
v -0.003328081583924261 -0.0028956000000000003 -0.010369144895974966
v -0.0036253482065440206 -0.0028956000000000003 -0.010295875254080916
v -0.0038964422283485683 -0.0028956000000000003 -0.010153594135555381
v -0.004125608650177299 -0.0028956000000000003 -0.009950570401836249
v -0.004299529152579577 -0.0028956000000000003 -0.009698603054366026
v -0.004408096108131087 -0.0028956000000000003 -0.009412335519515636
v -0.0016510000000000008 -0.0028956000000000003 -0.00910840462587044
v -0.0016866302730978286 -0.0028956000000000003 -0.008780789674988838
v -0.0017918550604214625 -0.0028956000000000003 -0.008468493635092595
v -0.0019617541678646 -0.0028956000000000003 -0.00818611912191514
v -0.002188383301992496 -0.0028956000000000003 -0.00794686965385592
v -0.0024611455363735203 -0.0028956000000000003 -0.0077619322701347
v -0.0027672868120814692 -0.0028956000000000003 -0.007639954437271143
v -0.0030924923033158244 -0.0028956000000000003 -0.007586639703161327
v -0.003421555762746414 -0.0028956000000000003 -0.007604481005517153
v -0.00373909054873803 -0.0028956000000000003 -0.00769264410486965
v -0.004030249087612271 -0.0028956000000000003 -0.007847006592679338
v -0.004281417129690852 -0.0028956000000000003 -0.008060350650577822
v -0.004480850336479407 -0.0028956000000000003 -0.008322700547532657
v -0.004619223432882591 -0.0028956000000000003 -0.008621789093943207
v -0.004690066246703244 -0.0028956000000000003 -0.008943631241792352
v -0.004690066246703244 -0.0028956000000000003 -0.009273178009948526
v -0.004619223432882591 -0.0028956000000000003 -0.009595020157797672
v -0.004480850336479407 -0.0028956000000000003 -0.00989410870420822
v -0.004281417129690852 -0.0028956000000000003 -0.010156458601163057
v -0.004030249087612271 -0.0028956000000000003 -0.01036980265906154
v -0.00373909054873803 -0.0028956000000000003 -0.010524165146871229
v -0.003421555762746414 -0.0028956000000000003 -0.010612328246223726
v -0.0030924923033158235 -0.0028956000000000003 -0.010630169548579552
v -0.0027672868120814675 -0.0028956000000000003 -0.010576854814469735
v -0.00246114553637352 -0.0028956000000000003 -0.010454876981606178
v -0.0021883833019924947 -0.0028956000000000003 -0.010269939597884956
v -0.0019617541678645994 -0.0028956000000000003 -0.010030690129825737
v -0.0017918550604214623 -0.0028956000000000003 -0.009748315616648282
v -0.0016866302730978286 -0.0028956000000000003 -0.009436019576752039
v -0.002667000000000001 -0.0034036000000000005 -0.00910840462587044
v -0.002701304107462588 -0.0034036000000000005 -0.009291915392293513
v -0.0027995834700519063 -0.0034036000000000005 -0.009450642012842889
v -0.002948564915265519 -0.0034036000000000005 -0.00956314757787881
v -0.0031281276733926434 -0.0034036000000000005 -0.009614237587428315
v -0.0033140207989566183 -0.0034036000000000005 -0.00959701205260223
v -0.0034811383952806623 -0.0034036000000000005 -0.0095137973773288
v -0.0036069103049506447 -0.0034036000000000005 -0.009375832164612135
v -0.0036743503346394223 -0.0034036000000000005 -0.009201749380921257
v -0.0036743503346394223 -0.0034036000000000005 -0.009015059870819622
v -0.0036069103049506442 -0.0034036000000000005 -0.008840977087128742
v -0.0034811383952806623 -0.0034036000000000005 -0.008703011874412078
v -0.0033140207989566183 -0.0034036000000000005 -0.008619797199138647
v -0.0031281276733926434 -0.0034036000000000005 -0.008602571664312561
v -0.002948564915265519 -0.0034036000000000005 -0.008653661673862069
v -0.0027995834700519063 -0.0034036000000000005 -0.008766167238897988
v -0.002701304107462588 -0.0034036000000000005 -0.008924893859447365
v -0.0018532507521578762 -0.0031086446972505293 -0.00910840462587044
v -0.0020990387337150545 -0.0032695225325698935 -0.00910840462587044
v -0.0023752137909048526 -0.003369626216624018 -0.00910840462587044
v -0.0025185647187929445 -0.003369626216624018 -0.009565297065997654
v -0.0027519418794328325 -0.003369626216624018 -0.009787138599442533
v -0.00289723004842841 -0.003369626216624018 -0.009858405848711244
v -0.0032155085067393347 -0.003369626216624018 -0.009907164315101523
v -0.0037818442825686195 -0.003369626216624018 -0.009629363354535741
v -0.003938107418825059 -0.003369626216624018 -0.009347831123136186
v -0.004489967779894442 -0.0031086446972505293 -0.0089746854723781
v -0.003970682764700659 -0.003369626216624018 -0.009189317654593285
v -0.003938107418825059 -0.003369626216624018 -0.008868978128604692
v -0.0037818442825686195 -0.003369626216624018 -0.008587445897205137
v -0.0032155085067393347 -0.003369626216624018 -0.008309644936639356
v -0.00289723004842841 -0.003369626216624018 -0.008358403403029633
v -0.0027519418794328325 -0.003369626216624018 -0.008429670652298346
v -0.0025185647187929445 -0.003369626216624018 -0.008651512185743223
v -0.0018803070369106752 -0.0031086446972505293 -0.008842338458351518
v -0.002121063724045947 -0.0032695225325698935 -0.008891815215294557
v -0.002391585461590475 -0.003369626216624018 -0.008947408845592265
v -0.001960368203692316 -0.0031086446972505293 -0.008587165070992272
v -0.0021862369893466543 -0.0032695225325698935 -0.00868409300063583
v -0.0024400302155258833 -0.003369626216624018 -0.008793004251474883
v -0.0020901565389279692 -0.0031086446972505293 -0.008353331292252783
v -0.0022918903284782294 -0.0032695225325698935 -0.008493742153768705
v -0.002264358492923606 -0.0031086446972505293 -0.008150410304508953
v -0.002433698281322887 -0.0032695225325698935 -0.008328555660729198
v -0.0026239737596004935 -0.003369626216624018 -0.008528725350192955
v -0.002475842217214784 -0.0031086446972505293 -0.007986709716841215
v -0.002605855213629438 -0.0032695225325698935 -0.008195296275950939
v -0.0027159495432807403 -0.0031086446972505293 -0.007868931450542687
v -0.0028013130003616744 -0.0032695225325698935 -0.008099419654304057
v -0.0029748504489809213 -0.0031086446972505293 -0.007801897361673993
v -0.003012069576765461 -0.0032695225325698935 -0.008044850995943806
v -0.003053890151877912 -0.003369626216624018 -0.008317841291945426
v -0.003241945500816398 -0.0031086446972505293 -0.007788351833709586
v -0.003229496543839982 -0.0032695225325698935 -0.008033824348154995
v -0.0035062997959826882 -0.0031086446972505293 -0.007828849422155861
v -0.0034446924160066216 -0.0032695225325698935 -0.008066791143193674
v -0.003375468438575302 -0.003369626216624018 -0.008334149896860684
v -0.0037570906385753747 -0.0031086446972505293 -0.007921732150983567
v -0.0036488470489744376 -0.0032695225325698935 -0.00814240171659753
v -0.003527221168981955 -0.003369626216624018 -0.00839035293665874
v -0.003984050622032038 -0.0031086446972505293 -0.008063197390361234
v -0.0038336023280825748 -0.0032695225325698935 -0.00825756056260754
v -0.0036645539233462567 -0.003369626216624018 -0.008475953096980614
v -0.0041778879779633 -0.0031086446972505293 -0.008247453536767283
v -0.003991394350496525 -0.0032695225325698935 -0.008407553064537467
v -0.004330666982242409 -0.0031086446972505293 -0.008466957121918675
v -0.004115763092278884 -0.0032695225325698935 -0.008586238511734927
v -0.003874290365561447 -0.003369626216624018 -0.008720266808991269
v -0.004436132844483409 -0.0031086446972505293 -0.008712721643248735
v -0.004201616882528374 -0.0032695225325698935 -0.00878630150099701
v -0.004245440856984792 -0.0032695225325698935 -0.008999551430036917
v -0.003970682764700659 -0.003369626216624018 -0.009027491597147592
v -0.004436132844483409 -0.0031086446972505293 -0.009504087608492143
v -0.004201616882528374 -0.0032695225325698935 -0.00943050775074387
v -0.004245440856984792 -0.0032695225325698935 -0.00921725782170396
v -0.004489967779894442 -0.0031086446972505293 -0.009242123779362777
v -0.004330666982242409 -0.0031086446972505293 -0.009749852129822201
v -0.004115763092278884 -0.0032695225325698935 -0.00963057074000595
v -0.003874290365561447 -0.003369626216624018 -0.009496542442749608
v -0.0041778879779633 -0.0031086446972505293 -0.009969355714973593
v -0.003991394350496525 -0.0032695225325698935 -0.00980925618720341
v -0.003984050622032039 -0.0031086446972505293 -0.010153611861379643
v -0.0038336023280825756 -0.0032695225325698935 -0.009959248689133336
v -0.003664553923346257 -0.003369626216624018 -0.009740856154760264
v -0.003757090638575375 -0.0031086446972505293 -0.010295077100757314
v -0.003648847048974438 -0.0032695225325698935 -0.010074407535143349
v -0.0035272211689819557 -0.003369626216624018 -0.009826456315082137
v -0.0035062997959826882 -0.0031086446972505293 -0.010387959829585016
v -0.0034446924160066216 -0.0032695225325698935 -0.010150018108547203
v -0.003375468438575302 -0.003369626216624018 -0.009882659354880195
v -0.003241945500816398 -0.0031086446972505293 -0.010428457418031292
v -0.003229496543839982 -0.0032695225325698935 -0.010182984903585884
v -0.002974850448980922 -0.0031086446972505293 -0.010414911890066885
v -0.003012069576765461 -0.0032695225325698935 -0.010171958255797071
v -0.003053890151877912 -0.003369626216624018 -0.009898967959795451
v -0.0027159495432807408 -0.0031086446972505293 -0.010347877801198191
v -0.0028013130003616744 -0.0032695225325698935 -0.01011738959743682
v -0.002475842217214784 -0.0031086446972505293 -0.010230099534899664
v -0.002605855213629438 -0.0032695225325698935 -0.01002151297578994
v -0.002264358492923606 -0.0031086446972505293 -0.010066398947231926
v -0.002433698281322887 -0.0032695225325698935 -0.009888253591011678
v -0.0026239737596004935 -0.003369626216624018 -0.009688083901547923
v -0.0020901565389279692 -0.0031086446972505293 -0.009863477959488094
v -0.0022918903284782294 -0.0032695225325698935 -0.009723067097972174
v -0.001960368203692316 -0.0031086446972505293 -0.009629644180748605
v -0.0021862369893466543 -0.0032695225325698935 -0.009532716251105048
v -0.0024400302155258833 -0.003369626216624018 -0.009423805000265996
v -0.0018803070369106752 -0.0031086446972505293 -0.009374470793389359
v -0.002121063724045947 -0.0032695225325698935 -0.00932499403644632
v -0.002391585461590475 -0.003369626216624018 -0.009269400406148612

vn 0.0000000000000000e+00 6.8045109936727854e-01 -7.3279349162629848e-01
vn 0.0000000000000000e+00 7.8161847759953895e-01 -6.2375680795882216e-01
vn 0.0000000000000000e+00 7.8161847759953906e-01 -6.2375680795882205e-01
vn 0.0000000000000000e+00 8.6022636781181294e-01 -5.0991234160519738e-01
vn 0.0000000000000000e+00 9.1340105361137125e-01 -4.0706082501468627e-01
vn 0.0000000000000000e+00 9.1340105361137114e-01 -4.0706082501468627e-01
vn 0.0000000000000000e+00 8.6022636781181183e-01 -5.0991234160519938e-01
vn 0.0000000000000000e+00 9.4937259431703314e-01 -3.1415231522264159e-01
vn 0.0000000000000000e+00 9.4937259431703247e-01 -3.1415231522264336e-01
vn 0.0000000000000000e+00 9.7159348481852514e-01 -2.3665608012090963e-01
vn 0.0000000000000000e+00 9.7159348481852503e-01 -2.3665608012090972e-01
vn 0.0000000000000000e+00 9.8368916372817750e-01 -1.7987670545059101e-01
vn 0.0000000000000000e+00 9.8935356885710635e-01 -1.4553183771844216e-01
vn 0.0000000000000000e+00 9.8935356885710690e-01 -1.4553183771843858e-01
vn 0.0000000000000000e+00 9.9097787265234261e-01 -1.3402557932513284e-01
vn 0.0000000000000000e+00 6.0678616714194611e-01 -7.9486511268591120e-01
vn 0.0000000000000000e+00 5.1942160900249446e-01 -8.5451810519219529e-01
vn 0.0000000000000000e+00 5.1942160900249412e-01 -8.5451810519219562e-01
vn 0.0000000000000000e+00 4.2467997273565411e-01 -9.0534353742501739e-01
vn 0.0000000000000000e+00 4.2467997273565389e-01 -9.0534353742501761e-01
vn 0.0000000000000000e+00 3.2145127245536004e-01 -9.4692612142491328e-01
vn 0.0000000000000000e+00 3.2145127245535926e-01 -9.4692612142491372e-01
vn 0.0000000000000000e+00 2.1311748645746711e-01 -9.7702657945730997e-01
vn 0.0000000000000000e+00 2.1311748645746795e-01 -9.7702657945730997e-01
vn 0.0000000000000000e+00 1.0333296408623606e-01 -9.9464682100389412e-01
vn 0.0000000000000000e+00 1.0333296408623632e-01 -9.9464682100389412e-01
vn -0.0000000000000000e+00 -3.8398748460136676e-03 -9.9999262765340768e-01
vn -0.0000000000000000e+00 -3.8398748460140835e-03 -9.9999262765340768e-01
vn -0.0000000000000000e+00 -1.1134538252281390e-01 -9.9378176970140086e-01
vn -0.0000000000000000e+00 -1.1134538252281419e-01 -9.9378176970140086e-01
vn -0.0000000000000000e+00 -2.2114875176989973e-01 -9.7524008817860608e-01
vn 0.0000000000000000e+00 -9.8871243296088274e-01 1.4982564836693321e-01
vn 0.0000000000000000e+00 -9.5018004645560328e-01 3.1170158696680988e-01
vn 0.0000000000000000e+00 -9.5018004645560317e-01 3.1170158696680994e-01
vn 0.0000000000000000e+00 -8.9384726640525303e-01 4.4837156950441953e-01
vn 0.0000000000000000e+00 -8.2387086239658258e-01 5.6677755962450682e-01
vn 0.0000000000000000e+00 -8.2387086239658502e-01 5.6677755962450327e-01
vn 0.0000000000000000e+00 -8.9384726640525347e-01 4.4837156950441903e-01
vn 0.0000000000000000e+00 -7.4636256511076327e-01 6.6553957162687294e-01
vn 0.0000000000000000e+00 -7.4636256511076238e-01 6.6553957162687416e-01
vn 0.0000000000000000e+00 -6.6841694279219765e-01 7.4378679108218360e-01
vn 0.0000000000000000e+00 -6.6841694279219610e-01 7.4378679108218515e-01
vn 0.0000000000000000e+00 -5.9877152971484393e-01 8.0091988063909725e-01
vn 0.0000000000000000e+00 -5.4826120630255082e-01 8.3630715031241476e-01
vn 0.0000000000000000e+00 -5.2896808592266309e-01 8.4864171714293779e-01
vn -0.0000000000000000e+00 -1.6446180567151056e-01 -9.8638345204857636e-01
vn -0.0000000000000000e+00 -3.5796654396432209e-01 -9.3373441266895540e-01
vn -0.0000000000000000e+00 -3.5796654396432548e-01 -9.3373441266895407e-01
vn -0.0000000000000000e+00 -5.3742725279164338e-01 -8.4331011375224652e-01
vn -0.0000000000000000e+00 -6.9115995497907368e-01 -7.2270181723399929e-01
vn -0.0000000000000000e+00 -6.9115995497907157e-01 -7.2270181723400118e-01
vn -0.0000000000000000e+00 -5.3742725279164094e-01 -8.4331011375224818e-01
vn -0.0000000000000000e+00 -8.1631359061567910e-01 -5.7760896961191432e-01
vn -0.0000000000000000e+00 -8.1631359061567887e-01 -5.7760896961191477e-01
vn -0.0000000000000000e+00 -9.1251936806772294e-01 -4.0903349850749821e-01
vn -0.0000000000000000e+00 -9.1251936806772216e-01 -4.0903349850750009e-01
vn -0.0000000000000000e+00 -9.7338337005736797e-01 -2.2918292889253619e-01
vn -0.0000000000000000e+00 -9.7338337005736697e-01 -2.2918292889254044e-01
vn -0.0000000000000000e+00 -9.9869580679691783e-01 -5.1055709634215532e-02
vn 0.0000000000000000e+00 -9.9319397648689534e-01 1.1647199264264574e-01
vn -0.0000000000000000e+00 -9.9869580679691761e-01 -5.1055709634221666e-02
vn -9.7094181742605212e-01 -0.0000000000000000e+00 2.3931566428755746e-01
vn -9.1714341052151593e-01 3.8268343236508995e-01 1.1136137180475029e-01
vn -1.0000000000000000e+00 0.0000000000000000e+00 -1.0530111373640582e-16
vn -9.1714341052151593e-01 3.8268343236508995e-01 -1.1136137180475029e-01
vn -9.7094181742605201e-01 0.0000000000000000e+00 -2.3931566428755835e-01
vn -8.6384236918266089e-01 3.8268343236509000e-01 -3.2761219726707541e-01
vn -8.8545602565320969e-01 0.0000000000000000e+00 -4.6472317204376878e-01
vn -7.6033794928616272e-01 3.8268343236508995e-01 -5.2482339264612254e-01
vn -7.4851074817110064e-01 0.0000000000000000e+00 -6.6312265824079564e-01
vn -6.1264545149314764e-01 3.8268343236509000e-01 -6.9153376009999035e-01
vn -5.6806474673115626e-01 0.0000000000000000e+00 -8.2298386589365624e-01
vn -4.2934822693495922e-01 3.8268343236508995e-01 -8.1805469903978933e-01
vn -3.5460488704253545e-01 0.0000000000000000e+00 -9.3501624268541483e-01
vn -2.2109884404461685e-01 3.8268343236508995e-01 -8.9703327237924002e-01
vn -1.2053668025532226e-01 0.0000000000000000e+00 -9.9270887409805419e-01
vn -1.6442822767746786e-16 3.8268343236509000e-01 -9.2387953251128663e-01
vn 1.2053668025532323e-01 -0.0000000000000000e+00 -9.9270887409805397e-01
vn 1.2053668025532345e-01 -0.0000000000000000e+00 -9.9270887409805397e-01
vn 6.1856994780072206e-17 3.8268343236509000e-01 -9.2387953251128663e-01
vn 2.2109884404461755e-01 3.8268343236508989e-01 -8.9703327237923980e-01
vn 3.5460488704253623e-01 -0.0000000000000000e+00 -9.3501624268541461e-01
vn 4.2934822693495961e-01 3.8268343236508984e-01 -8.1805469903978922e-01
vn 5.6806474673115626e-01 -0.0000000000000000e+00 -8.2298386589365624e-01
vn 6.1264545149314786e-01 3.8268343236508989e-01 -6.9153376009999012e-01
vn 7.4851074817110130e-01 -0.0000000000000000e+00 -6.6312265824079497e-01
vn 7.6033794928616272e-01 3.8268343236509000e-01 -5.2482339264612254e-01
vn 8.8545602565320969e-01 -0.0000000000000000e+00 -4.6472317204376890e-01
vn 8.6384236918266089e-01 3.8268343236509000e-01 -3.2761219726707552e-01
vn 9.7094181742605212e-01 -0.0000000000000000e+00 -2.3931566428755732e-01
vn 9.1714341052151593e-01 3.8268343236509000e-01 -1.1136137180474981e-01
vn 1.0000000000000000e+00 -0.0000000000000000e+00 5.7211887261098218e-18
vn 9.1714341052151593e-01 3.8268343236509000e-01 1.1136137180475061e-01
vn 9.7094181742605201e-01 -0.0000000000000000e+00 2.3931566428755821e-01
vn 8.6384236918266077e-01 3.8268343236509000e-01 3.2761219726707558e-01
vn 8.8545602565320991e-01 -0.0000000000000000e+00 4.6472317204376878e-01
vn 7.6033794928616261e-01 3.8268343236509000e-01 5.2482339264612266e-01
vn 7.4851074817110064e-01 -0.0000000000000000e+00 6.6312265824079564e-01
vn 6.1264545149314753e-01 3.8268343236508989e-01 6.9153376009999057e-01
vn 5.6806474673115570e-01 -0.0000000000000000e+00 8.2298386589365657e-01
vn 4.2934822693495917e-01 3.8268343236509000e-01 8.1805469903978945e-01
vn 3.5460488704253557e-01 -0.0000000000000000e+00 9.3501624268541483e-01
vn 2.2109884404461672e-01 3.8268343236509000e-01 8.9703327237924002e-01
vn 1.2053668025532277e-01 -0.0000000000000000e+00 9.9270887409805397e-01
vn 5.1285616448697827e-17 3.8268343236509000e-01 9.2387953251128663e-01
vn -1.2053668025532323e-01 -0.0000000000000000e+00 9.9270887409805397e-01
vn -2.2109884404461702e-01 3.8268343236509000e-01 8.9703327237924002e-01
vn -3.5460488704253557e-01 -0.0000000000000000e+00 9.3501624268541483e-01
vn -4.2934822693495905e-01 3.8268343236508995e-01 8.1805469903978945e-01
vn -5.6806474673115570e-01 -0.0000000000000000e+00 8.2298386589365657e-01
vn -6.1264545149314775e-01 3.8268343236508989e-01 6.9153376009999012e-01
vn -7.4851074817110130e-01 -0.0000000000000000e+00 6.6312265824079497e-01
vn -7.6033794928616261e-01 3.8268343236509000e-01 5.2482339264612266e-01
vn -8.8545602565320969e-01 -0.0000000000000000e+00 4.6472317204376878e-01
vn -8.6384236918266089e-01 3.8268343236509000e-01 3.2761219726707541e-01
vn -5.8751999947068509e-17 1.0000000000000000e+00 -1.7251143697572856e-17
vn -3.7989323927912649e-01 9.2387953251128696e-01 -4.6127390526000296e-02
vn 8.2694607974275766e-16 1.0000000000000000e+00 8.7078343196867041e-32
vn -3.7989323927912649e-01 9.2387953251128696e-01 4.6127390526000303e-02
vn -5.8751999947068509e-17 1.0000000000000000e+00 1.7251143697572856e-17
vn -3.5781522506796382e-01 9.2387953251128707e-01 1.3570141530687230e-01
vn 6.9567131104449067e-16 1.0000000000000000e+00 -4.4708080454382601e-16
vn -3.1494229058127471e-01 9.2387953251128707e-01 2.1738896708468378e-01
vn -4.7632353393505974e-16 1.0000000000000000e+00 5.4970666183875137e-16
vn -2.5376605493464954e-01 9.2387953251128707e-01 2.8644266227227783e-01
vn -1.7784185857730120e-01 9.2387953251128707e-01 3.3884935110532083e-01
vn -4.6889852840051571e-01 7.0710678118654779e-01 5.2927702582280145e-01
vn -3.2860890632667117e-01 7.0710678118654779e-01 6.2611196018187409e-01
vn -3.5781522506796382e-01 9.2387953251128707e-01 -1.3570141530687230e-01
vn 6.9567131104449057e-16 1.0000000000000000e+00 4.4708080454382591e-16
vn -3.1494229058127471e-01 9.2387953251128707e-01 -2.1738896708468375e-01
vn 2.5071793081392468e-16 1.0000000000000000e+00 2.8934391646000791e-16
vn -2.5376605493464943e-01 9.2387953251128707e-01 -2.8644266227227788e-01
vn -1.7784185857730128e-01 9.2387953251128707e-01 -3.3884935110532083e-01
vn -3.2860890632667134e-01 7.0710678118654768e-01 -6.2611196018187398e-01
vn -1.6922172906189528e-01 7.0710678118654779e-01 -6.8655954323955182e-01
vn -3.0215882062531764e-16 1.0000000000000000e+00 -6.6163552668263238e-16
vn -9.1582139828293996e-02 9.2387953251128707e-01 -3.7156334731939938e-01
vn -1.2584791709064368e-16 7.0710678118654779e-01 -7.0710678118654724e-01
vn 4.7343294156454931e-17 7.0710678118654779e-01 -7.0710678118654724e-01
vn -8.7142705581276007e-18 1.0000000000000000e+00 -6.0609083026345122e-17
vn -6.8108401940978209e-17 9.2387953251128707e-01 -3.8268343236508923e-01
vn 2.5622006165547615e-17 9.2387953251128707e-01 -3.8268343236508923e-01
vn 1.6922172906189586e-01 7.0710678118654779e-01 -6.8655954323955193e-01
vn -8.7142705581275853e-18 1.0000000000000000e+00 -6.0609083026345122e-17
vn 8.7142705581275930e-18 1.0000000000000000e+00 -6.0609083026345122e-17
vn 9.1582139828294287e-02 9.2387953251128707e-01 -3.7156334731939927e-01
vn 3.2860890632667156e-01 7.0710678118654779e-01 -6.2611196018187398e-01
vn 3.0215882062531784e-16 1.0000000000000000e+00 -6.6163552668263228e-16
vn 1.7784185857730142e-01 9.2387953251128707e-01 -3.3884935110532072e-01
vn 4.6889852840051571e-01 7.0710678118654768e-01 -5.2927702582280134e-01
vn 4.7632353393505964e-16 1.0000000000000000e+00 -5.4970666183875127e-16
vn 2.5376605493464960e-01 9.2387953251128707e-01 -2.8644266227227783e-01
vn 5.8193747238052451e-01 7.0710678118654779e-01 -4.0168243456661873e-01
vn 3.1494229058127471e-01 9.2387953251128707e-01 -2.1738896708468375e-01
vn -6.9567131104449057e-16 1.0000000000000000e+00 4.4708080454382591e-16
vn 3.5781522506796382e-01 9.2387953251128707e-01 -1.3570141530687233e-01
vn 5.8751999947068496e-17 1.0000000000000000e+00 -1.7251143697572847e-17
vn 3.7989323927912644e-01 9.2387953251128696e-01 -4.6127390526000088e-02
vn 6.1232339957367660e-17 1.0000000000000000e+00 3.5032177303741578e-34
vn 3.7989323927912649e-01 9.2387953251128696e-01 4.6127390526000435e-02
vn 5.8751999947068509e-17 1.0000000000000000e+00 1.7251143697572853e-17
vn 3.5781522506796376e-01 9.2387953251128707e-01 1.3570141530687233e-01
vn -6.9567131104449057e-16 1.0000000000000000e+00 -4.4708080454382611e-16
vn 3.1494229058127471e-01 9.2387953251128707e-01 2.1738896708468378e-01
vn 4.7632353393505964e-16 1.0000000000000000e+00 5.4970666183875137e-16
vn 2.5376605493464943e-01 9.2387953251128707e-01 2.8644266227227794e-01
vn 1.7784185857730125e-01 9.2387953251128707e-01 3.3884935110532083e-01
vn 3.2860890632667122e-01 7.0710678118654779e-01 6.2611196018187409e-01
vn 1.6922172906189517e-01 7.0710678118654791e-01 6.8655954323955182e-01
vn 2.5436833299525790e-17 1.0000000000000000e+00 5.5698895575646569e-17
vn 9.1582139828293926e-02 9.2387953251128696e-01 3.7156334731939933e-01
vn 3.9252311467094373e-17 7.0710678118654779e-01 7.0710678118654724e-01
vn 8.7142705581275868e-18 1.0000000000000000e+00 6.0609083026345110e-17
vn 2.1243197887715300e-17 9.2387953251128707e-01 3.8268343236508923e-01
vn -1.6922172906189542e-01 7.0710678118654791e-01 6.8655954323955182e-01
vn -8.7142705581275868e-18 1.0000000000000000e+00 6.0609083026345110e-17
vn -9.1582139828294037e-02 9.2387953251128696e-01 3.7156334731939933e-01
vn -2.5436833299525790e-17 1.0000000000000000e+00 5.5698895575646569e-17
vn -7.0195117661879625e-01 7.0710678118654768e-01 8.5232303990253541e-02
vn -7.0195117661879625e-01 7.0710678118654768e-01 -8.5232303990253527e-02
vn -6.6115632572242311e-01 7.0710678118654779e-01 -2.5074352026966651e-01
vn -5.8193747238052451e-01 7.0710678118654779e-01 -4.0168243456661873e-01
vn -4.6889852840051549e-01 7.0710678118654779e-01 -5.2927702582280167e-01
vn -6.6115632572242311e-01 7.0710678118654779e-01 2.5074352026966651e-01
vn -5.8193747238052451e-01 7.0710678118654779e-01 4.0168243456661884e-01
vn 4.6889852840051538e-01 7.0710678118654779e-01 5.2927702582280167e-01
vn 5.8193747238052451e-01 7.0710678118654779e-01 4.0168243456661884e-01
vn 6.6115632572242322e-01 7.0710678118654791e-01 2.5074352026966668e-01
vn 7.0195117661879625e-01 7.0710678118654779e-01 8.5232303990253777e-02
vn 7.0195117661879636e-01 7.0710678118654779e-01 -8.5232303990253139e-02
vn 6.6115632572242311e-01 7.0710678118654791e-01 -2.5074352026966662e-01
vn 7.7056733901346586e-01 -0.0000000000000000e+00 -6.3735859298020481e-01
vn 8.4922710981634109e-01 -0.0000000000000000e+00 -5.2802776058933121e-01
vn 8.8545602565320980e-01 -0.0000000000000000e+00 -4.6472317204376884e-01
vn 8.9035515337701976e-01 -0.0000000000000000e+00 -4.5526662611593177e-01
vn 9.2583227496842557e-01 -0.0000000000000000e+00 -3.7793464861903003e-01
vn 9.7094181742605212e-01 -0.0000000000000000e+00 -2.3931566428755738e-01
vn 9.5401520255804484e-01 -0.0000000000000000e+00 -2.9975822472141234e-01
vn 9.7398486999565081e-01 -0.0000000000000000e+00 -2.2661304688732117e-01
vn 9.8654404106388649e-01 -0.0000000000000000e+00 -1.6349573401571271e-01
vn 1.0000000000000000e+00 -0.0000000000000000e+00 -0.0000000000000000e+00
vn 9.9379807210851645e-01 -0.0000000000000000e+00 -1.1119978360318918e-01
vn 9.9741749179204975e-01 -0.0000000000000000e+00 -7.1821633699438225e-02
vn 9.9880127442225963e-01 -0.0000000000000000e+00 -4.8949098178312174e-02
vn 9.9994896896299690e-01 -0.0000000000000000e+00 -1.0102448705123789e-02
vn 9.9999528573523278e-01 -0.0000000000000000e+00 3.0705874536101217e-03
vn 9.7094181742605190e-01 -0.0000000000000000e+00 2.3931566428755829e-01
vn 9.7094181742605212e-01 -0.0000000000000000e+00 2.3931566428755738e-01
vn 8.8545602565320980e-01 -0.0000000000000000e+00 4.6472317204376873e-01
vn 7.4851074817110130e-01 -0.0000000000000000e+00 6.6312265824079497e-01
vn 7.4851074817110064e-01 -0.0000000000000000e+00 6.6312265824079575e-01
vn 5.6806474673115559e-01 -0.0000000000000000e+00 8.2298386589365646e-01
vn 3.5460488704253607e-01 -0.0000000000000000e+00 9.3501624268541472e-01
vn 1.2053668025532327e-01 -0.0000000000000000e+00 9.9270887409805408e-01
vn 1.2053668025532284e-01 -0.0000000000000000e+00 9.9270887409805408e-01
vn -1.2053668025532240e-01 -0.0000000000000000e+00 9.9270887409805408e-01
vn -1.2053668025532327e-01 -0.0000000000000000e+00 9.9270887409805408e-01
vn -5.6806474673115570e-01 -0.0000000000000000e+00 8.2298386589365646e-01
vn -7.4851074817110064e-01 -0.0000000000000000e+00 6.6312265824079597e-01
vn -7.4851074817110119e-01 -0.0000000000000000e+00 6.6312265824079519e-01
vn -8.8545602565320958e-01 -0.0000000000000000e+00 4.6472317204376912e-01
vn -8.8545602565320980e-01 -0.0000000000000000e+00 4.6472317204376873e-01
vn -9.7094181742605190e-01 -0.0000000000000000e+00 2.3931566428755816e-01
vn -9.7094181742605212e-01 -0.0000000000000000e+00 2.3931566428755729e-01
vn -9.9999528573523278e-01 -0.0000000000000000e+00 3.0705874536102349e-03
vn -1.0000000000000000e+00 -0.0000000000000000e+00 1.7797583114599315e-16
vn -9.9994896896299690e-01 0.0000000000000000e+00 -1.0102448705125449e-02
vn -9.9994896896299690e-01 0.0000000000000000e+00 -1.0102448705125696e-02
vn -1.0000000000000000e+00 0.0000000000000000e+00 -6.6953528683477481e-17
vn -9.9880127442225963e-01 0.0000000000000000e+00 -4.8949098178312056e-02
vn -9.9741749179204975e-01 0.0000000000000000e+00 -7.1821633699438114e-02
vn -9.9379807210851623e-01 0.0000000000000000e+00 -1.1119978360319091e-01
vn -9.7094181742605190e-01 0.0000000000000000e+00 -2.3931566428755804e-01
vn -9.8654404106388627e-01 0.0000000000000000e+00 -1.6349573401571374e-01
vn -9.7398486999565081e-01 0.0000000000000000e+00 -2.2661304688732148e-01
vn -9.5401520255804451e-01 0.0000000000000000e+00 -2.9975822472141350e-01
vn -9.2583227496842613e-01 0.0000000000000000e+00 -3.7793464861902881e-01
vn -8.8545602565320969e-01 0.0000000000000000e+00 -4.6472317204376906e-01
vn -8.9035515337701887e-01 0.0000000000000000e+00 -4.5526662611593355e-01
vn -8.4922710981634120e-01 0.0000000000000000e+00 -5.2802776058933121e-01
vn -7.4851074817110064e-01 0.0000000000000000e+00 -6.6312265824079597e-01
vn -7.7056733901346608e-01 0.0000000000000000e+00 -6.3735859298020459e-01
vn -6.8384787517724455e-01 0.0000000000000000e+00 -7.2962461829050662e-01
vn -5.6806474673115603e-01 0.0000000000000000e+00 -8.2298386589365624e-01
vn -5.8707095830009792e-01 0.0000000000000000e+00 -8.0953547786406777e-01
vn -4.8177220415487704e-01 0.0000000000000000e+00 -8.7629649280580335e-01
vn -3.5460488704253573e-01 0.0000000000000000e+00 -9.3501624268541483e-01
vn -3.6965453214057220e-01 0.0000000000000000e+00 -9.2916926707028724e-01
vn -2.5185483204440962e-01 0.0000000000000000e+00 -9.6776502498069339e-01
vn -1.2053668025532249e-01 0.0000000000000000e+00 -9.9270887409805408e-01
vn -1.2866641673866991e-01 0.0000000000000000e+00 -9.9168793135927136e-01
vn 5.7211887261098179e-18 -0.0000000000000000e+00 -1.0000000000000000e+00
vn 1.2053668025532337e-01 -0.0000000000000000e+00 -9.9270887409805386e-01
vn 1.2866641673867102e-01 -0.0000000000000000e+00 -9.9168793135927114e-01
vn 2.5185483204441056e-01 -0.0000000000000000e+00 -9.6776502498069328e-01
vn 3.5460488704253595e-01 -0.0000000000000000e+00 -9.3501624268541472e-01
vn 3.6965453214057475e-01 -0.0000000000000000e+00 -9.2916926707028613e-01
vn 4.8177220415487831e-01 -0.0000000000000000e+00 -8.7629649280580268e-01
vn 5.6806474673115603e-01 -0.0000000000000000e+00 -8.2298386589365624e-01
vn 5.8707095830010048e-01 -0.0000000000000000e+00 -8.0953547786406599e-01
vn 6.8384787517724532e-01 -0.0000000000000000e+00 -7.2962461829050629e-01
vn -9.9999528573523278e-01 -0.0000000000000000e+00 3.0705874536099903e-03
vn -9.9996432778768196e-01 0.0000000000000000e+00 -8.4464875616759201e-03
vn -9.9897031516924706e-01 0.0000000000000000e+00 -4.5368594982159310e-02
vn -9.9409411178475360e-01 0.0000000000000000e+00 -1.0852141224146565e-01
vn -9.7094181742605212e-01 0.0000000000000000e+00 -2.3931566428755760e-01
vn -9.8057388503346044e-01 0.0000000000000000e+00 -1.9615008536930545e-01
vn -9.5308606876977731e-01 0.0000000000000000e+00 -3.0269943098223967e-01
vn -8.8545602565320991e-01 0.0000000000000000e+00 -4.6472317204376873e-01
vn -9.0376558638306337e-01 0.0000000000000000e+00 -4.2802776179785096e-01
vn -8.4617317807706505e-01 0.0000000000000000e+00 -5.3290801523617548e-01
vn -7.4851074817110119e-01 0.0000000000000000e+00 -6.6312265824079519e-01
vn -7.6750750029908987e-01 0.0000000000000000e+00 -6.4103996520079987e-01
vn -6.7328170769650353e-01 0.0000000000000000e+00 -7.3938605753779263e-01
vn -5.6034993578395631e-01 0.0000000000000000e+00 -8.2825596856703421e-01
vn -4.3179521911101354e-01 0.0000000000000000e+00 -9.0197166737812329e-01
vn -2.9201831459247946e-01 0.0000000000000000e+00 -9.5641272677781097e-01
vn -1.2053668025532334e-01 0.0000000000000000e+00 -9.9270887409805386e-01
vn -1.4609510888552840e-01 0.0000000000000000e+00 -9.8927054902070422e-01
vn 1.2053668025532295e-01 -0.0000000000000000e+00 -9.9270887409805408e-01
vn 1.4609510888552757e-01 -0.0000000000000000e+00 -9.8927054902070444e-01
vn 2.9201831459247823e-01 -0.0000000000000000e+00 -9.5641272677781131e-01
vn 3.5460488704253551e-01 -0.0000000000000000e+00 -9.3501624268541506e-01
vn 4.3179521911101243e-01 -0.0000000000000000e+00 -9.0197166737812373e-01
vn 5.6034993578395498e-01 -0.0000000000000000e+00 -8.2825596856703509e-01
vn 6.7328170769650353e-01 -0.0000000000000000e+00 -7.3938605753779263e-01
vn 7.4851074817110064e-01 -0.0000000000000000e+00 -6.6312265824079575e-01
vn 7.6750750029908843e-01 -0.0000000000000000e+00 -6.4103996520080164e-01
vn 8.4617317807706505e-01 -0.0000000000000000e+00 -5.3290801523617526e-01
vn 9.0376558638306337e-01 -0.0000000000000000e+00 -4.2802776179785063e-01
vn 9.5308606876977631e-01 -0.0000000000000000e+00 -3.0269943098224211e-01
vn 9.7094181742605190e-01 -0.0000000000000000e+00 -2.3931566428755827e-01
vn 9.8057388503346044e-01 -0.0000000000000000e+00 -1.9615008536930548e-01
vn 9.9409411178475360e-01 -0.0000000000000000e+00 -1.0852141224146448e-01
vn 9.9897031516924684e-01 -0.0000000000000000e+00 -4.5368594982160289e-02
vn 9.9996432778768196e-01 -0.0000000000000000e+00 -8.4464875616740796e-03
vn 0.0000000000000000e+00 1.0000000000000000e+00 0.0000000000000000e+00
vn 7.8129644456806946e-01 -5.9999999999999998e-01 1.7197635216881937e-01
vn 6.2763130152209312e-01 -7.6775173011852682e-01 1.2898151127077168e-01
vn 8.0000000000000004e-01 -5.9999999999999987e-01 5.3562822946781991e-17
vn 6.4074743924576771e-01 -7.6775173011852671e-01 4.2900302052406244e-17
vn 8.0000000000000004e-01 -5.9999999999999987e-01 -1.4238066491679456e-16
vn 6.4074743924576771e-01 -7.6775173011852671e-01 -1.1403755805443227e-16
vn 6.2763130152209312e-01 -7.6775173011852682e-01 -1.2898151127077176e-01
vn 4.4721359549995809e-01 -8.9442719099991586e-01 -7.9593211358893032e-17
vn 4.3805910692739070e-01 -8.9442719099991586e-01 -9.0023434937670288e-02
vn 2.2975292054736110e-01 -9.7324898946773020e-01 -4.0890466992635924e-17
vn 2.2504986476634561e-01 -9.7324898946773020e-01 -4.6248922892231321e-02
vn -1.6081226496766366e-16 -1.0000000000000000e+00 2.8620696516089620e-32
vn 5.7097456551692022e-17 -1.0000000000000000e+00 -2.2119672510737728e-17
vn 5.8881986457055735e-01 -7.6775173011852671e-01 2.5268250431543388e-01
vn 7.2606033573676565e-01 -5.9999999999999998e-01 3.3591128124821190e-01
vn 5.2590207318010662e-01 -7.6775173011852682e-01 3.6603864594448865e-01
vn 6.3687445256451469e-01 -5.9999999999999976e-01 4.8413937215501268e-01
vn 4.4145378912279232e-01 -7.6775173011852671e-01 4.6440912240086119e-01
vn 5.1790902782546189e-01 -5.9999999999999987e-01 6.0972964410210961e-01
vn 3.3893233507017312e-01 -7.6775173011852682e-01 5.4376663482038756e-01
vn 3.7472675255983240e-01 -5.9999999999999987e-01 7.0680963555681808e-01
vn 2.2253495139692253e-01 -7.6775173011852682e-01 6.0086227732050046e-01
vn 2.1402267082337614e-01 -5.9999999999999987e-01 7.7083999401537873e-01
vn 9.7026960666735496e-02 -7.6775173011852671e-01 6.3335854758879240e-01
vn 4.3311126868334035e-02 -6.0000000000000009e-01 7.9882673108089908e-01
vn -3.2453325233331561e-02 -7.6775173011852693e-01 6.3992504450232957e-01
vn -1.2942559724221164e-01 -5.9999999999999987e-01 7.8946121803322100e-01
vn -1.6060496818524220e-01 -7.6775173011852682e-01 6.2029293490594117e-01
vn -2.9611052427193157e-01 -6.0000000000000020e-01 7.4318137585343291e-01
vn -2.8218142486936654e-01 -7.6775173011852682e-01 5.7526595967317828e-01
vn -4.4894965228990608e-01 -5.9999999999999987e-01 6.6215119852551252e-01
vn -3.9220534086442943e-01 -7.6775173011852682e-01 5.0668752846051535e-01
vn -5.8079639353850487e-01 -5.9999999999999998e-01 5.5015956708273850e-01
vn -4.8617232412233186e-01 -7.6775173011852682e-01 4.1736525029942201e-01
vn -6.8548574093407155e-01 -5.9999999999999987e-01 4.1244308574161737e-01
vn -5.6023535530784319e-01 -7.6775173011852682e-01 3.1095598975273558e-01
vn -7.5812253694624221e-01 -5.9999999999999998e-01 2.5544122410878350e-01
vn -6.1136228522219227e-01 -7.6775173011852671e-01 1.9181615444979494e-01
vn -7.9531036572348779e-01 -5.9999999999999987e-01 8.6495214739153517e-02
vn -6.3745997134752652e-01 -7.6775173011852671e-01 6.4823343246238493e-02
vn -7.9531036572348779e-01 -5.9999999999999987e-01 -8.6495214739153503e-02
vn -6.3745997134752652e-01 -7.6775173011852671e-01 -6.4823343246238424e-02
vn -6.1136228522219227e-01 -7.6775173011852671e-01 -1.9181615444979486e-01
vn -4.2670404746232227e-01 -8.9442719099991586e-01 -1.3387925858501146e-01
vn -3.9101969391924024e-01 -8.9442719099991574e-01 -2.1703363556671057e-01
vn -2.0088368862992018e-01 -9.7324898946773020e-01 -1.1149954323888181e-01
vn -1.7432689467770160e-01 -9.7324898946773020e-01 -1.4965473026961601e-01
vn -2.4084691269614900e-16 -1.0000000000000000e+00 -1.4912609478773087e-16
vn 2.3072281057308444e-16 -1.0000000000000000e+00 3.0552637775695982e-16
vn -1.4063313717483758e-01 -9.7324898946773020e-01 -1.8168303505942793e-01
vn -1.0118184251234372e-01 -9.7324898946773020e-01 -2.0627321504705667e-01
vn -2.7374211728217490e-01 -8.9442719099991597e-01 -3.5364566055003704e-01
vn -1.9695025195524321e-01 -8.9442719099991586e-01 -4.0151039619761575e-01
vn -3.9220534086442971e-01 -7.6775173011852682e-01 -5.0668752846051512e-01
vn -2.8218142486936681e-01 -7.6775173011852671e-01 -5.7526595967317817e-01
vn -4.4894965228990574e-01 -5.9999999999999987e-01 -6.6215119852551252e-01
vn -2.9611052427193135e-01 -5.9999999999999987e-01 -7.4318137585343336e-01
vn -7.5812253694624188e-01 -5.9999999999999998e-01 -2.5544122410878406e-01
vn -5.6023535530784330e-01 -7.6775173011852682e-01 -3.1095598975273558e-01
vn -3.3932694816424136e-01 -8.9442719099991586e-01 -2.9130263000793921e-01
vn -6.8548574093407133e-01 -5.9999999999999998e-01 -4.1244308574161748e-01
vn -4.8617232412233186e-01 -7.6775173011852682e-01 -4.1736525029942201e-01
vn -5.8079639353850443e-01 -5.9999999999999998e-01 -5.5015956708273894e-01
vn -1.6060496818524245e-01 -7.6775173011852682e-01 -6.2029293490594106e-01
vn -1.2942559724221162e-01 -5.9999999999999953e-01 -7.8946121803322133e-01
vn -3.2453325233331783e-02 -7.6775173011852671e-01 -6.3992504450232957e-01
vn 4.3311126868334472e-02 -5.9999999999999998e-01 -7.9882673108089897e-01
vn 9.7026960666735287e-02 -7.6775173011852671e-01 -6.3335854758879240e-01
vn 2.1402267082337700e-01 -5.9999999999999998e-01 -7.7083999401537828e-01
vn 2.2253495139692236e-01 -7.6775173011852682e-01 -6.0086227732050057e-01
vn 3.7472675255983251e-01 -5.9999999999999976e-01 -7.0680963555681853e-01
vn 3.3893233507017312e-01 -7.6775173011852682e-01 -5.4376663482038756e-01
vn 5.1790902782546233e-01 -5.9999999999999987e-01 -6.0972964410210906e-01
vn 4.4145378912279232e-01 -7.6775173011852671e-01 -4.6440912240086119e-01
vn 6.3687445256451514e-01 -5.9999999999999987e-01 -4.8413937215501224e-01
vn 5.2590207318010662e-01 -7.6775173011852682e-01 -3.6603864594448865e-01
vn 7.2606033573676565e-01 -5.9999999999999987e-01 -3.3591128124821162e-01
vn 5.8881986457055735e-01 -7.6775173011852682e-01 -2.5268250431543393e-01
vn 7.8129644456806946e-01 -5.9999999999999987e-01 -1.7197635216881912e-01
vn -2.8293464086989131e-16 -1.0000000000000000e+00 2.5792900538686524e-16
vn 1.8857279769587398e-01 -9.7324898946773020e-01 -1.3125054083390658e-01
vn 2.1113324107955961e-01 -9.7324898946773020e-01 -9.0604409447236939e-02
vn 4.1097042704745640e-01 -8.9442719099991586e-01 -1.7636129987168775e-01
vn -7.1680194575387461e-17 -1.0000000000000000e+00 1.4395323639871617e-16
vn 1.2153102623706408e-01 -9.7324898946773020e-01 -1.9497849666516573e-01
vn 1.5829216181815636e-01 -9.7324898946773020e-01 -1.6652325965755238e-01
vn 3.0811537306036646e-01 -8.9442719099991586e-01 -3.2413718836917083e-01
vn 3.6705656959722444e-01 -8.9442719099991574e-01 -2.5547891246738547e-01
vn 7.9794396162537085e-02 -9.7324898946773020e-01 -2.1545129111030661e-01
vn -1.4837883870144129e-17 -1.0000000000000000e+00 1.6012626819571542e-16
vn 3.4790974133672443e-02 -9.7324898946773020e-01 -2.2710348438293973e-01
vn -1.1636794463990663e-02 -9.7324898946773020e-01 -2.2945803432140885e-01
vn -2.2650996905445194e-02 -8.9442719099991586e-01 -4.4663960005712622e-01
vn -1.1209522017259166e-01 -8.9442719099991586e-01 -4.3293724904939546e-01
vn -1.6757025241843485e-17 -1.0000000000000000e+00 -5.8894834762471860e-17
vn -5.7588151329032694e-02 -9.7324898946773020e-01 -2.2241854537458525e-01
vn -2.1921628076679864e-01 -9.7324898946773020e-01 -6.8779551807307771e-02
vn 1.5807413056245331e-16 -1.0000000000000000e+00 2.9549176146798561e-17
vn -2.2857413261226495e-01 -9.7324898946773020e-01 -2.3243717443488326e-02
vn 1.5807413056245331e-16 -1.0000000000000000e+00 -2.9549176146798549e-17
vn -2.2857413261226495e-01 -9.7324898946773020e-01 2.3243717443488351e-02
vn -2.1921628076679858e-01 -9.7324898946773020e-01 6.8779551807307784e-02
vn -4.2670404746232221e-01 -8.9442719099991586e-01 1.3387925858501151e-01
vn -3.9101969391924019e-01 -8.9442719099991574e-01 2.1703363556671060e-01
vn 1.3672534331099874e-16 -1.0000000000000000e+00 -8.4656748464133717e-17
vn -2.0088368862992018e-01 -9.7324898946773020e-01 1.1149954323888182e-01
vn -3.3932694816424136e-01 -8.9442719099991586e-01 2.9130263000793921e-01
vn -1.7432689467770160e-01 -9.7324898946773020e-01 1.4965473026961601e-01
vn 2.3072281057308449e-16 -1.0000000000000000e+00 -3.0552637775695982e-16
vn -1.4063313717483750e-01 -9.7324898946773020e-01 1.8168303505942801e-01
vn -1.0118184251234356e-01 -9.7324898946773020e-01 2.0627321504705676e-01
vn -1.9695025195524296e-01 -8.9442719099991574e-01 4.0151039619761580e-01
vn -1.1209522017259149e-01 -8.9442719099991574e-01 4.3293724904939546e-01
vn -1.6757025241843479e-17 -1.0000000000000000e+00 5.8894834762471860e-17
vn -5.7588151329032625e-02 -9.7324898946773020e-01 2.2241854537458530e-01
vn -2.2650996905445045e-02 -8.9442719099991586e-01 4.4663960005712616e-01
vn -1.1636794463990584e-02 -9.7324898946773020e-01 2.2945803432140882e-01
vn -1.4837883870144148e-17 -1.0000000000000000e+00 -1.6012626819571542e-16
vn 3.4790974133672513e-02 -9.7324898946773020e-01 2.2710348438293973e-01
vn 7.9794396162537182e-02 -9.7324898946773020e-01 2.1545129111030661e-01
vn 1.5531963086075420e-01 -8.9442719099991586e-01 4.1937550270524759e-01
vn 2.3655989694839780e-01 -8.9442719099991574e-01 3.7952524969461970e-01
vn -7.1680194575387498e-17 -1.0000000000000000e+00 -1.4395323639871617e-16
vn 1.2153102623706408e-01 -9.7324898946773020e-01 1.9497849666516573e-01
vn 3.0811537306036646e-01 -8.9442719099991586e-01 3.2413718836917083e-01
vn -2.8293464086989131e-16 -1.0000000000000000e+00 -2.5792900538686524e-16
vn 1.5829216181815636e-01 -9.7324898946773020e-01 1.6652325965755238e-01
vn 3.6705656959722444e-01 -8.9442719099991574e-01 2.5547891246738547e-01
vn 1.8857279769587398e-01 -9.7324898946773020e-01 1.3125054083390658e-01
vn 5.7097456551692022e-17 -1.0000000000000000e+00 2.2119672510737722e-17
vn 2.1113324107955964e-01 -9.7324898946773020e-01 9.0604409447236911e-02
vn 2.2504986476634561e-01 -9.7324898946773020e-01 4.6248922892231287e-02
vn 4.3805910692739075e-01 -8.9442719099991586e-01 9.0023434937670233e-02
vn 4.4721359549995809e-01 -8.9442719099991586e-01 2.9942528293947536e-17
vn -1.6081226496766366e-16 -1.0000000000000000e+00 -1.0766948595167449e-32
vn 2.2975292054736110e-01 -9.7324898946773020e-01 1.5382768755980463e-17
vn 4.1097042704745640e-01 -8.9442719099991586e-01 1.7636129987168769e-01
vn 6.7720560836389457e-02 -8.9442719099991586e-01 4.4205647336059334e-01
vn -2.7374211728217474e-01 -8.9442719099991586e-01 3.5364566055003727e-01
vn -4.4491908716669998e-01 -8.9442719099991586e-01 4.5243849026697029e-02
vn -4.4491908716669998e-01 -8.9442719099991586e-01 -4.5243849026696974e-02
vn 6.7720560836389332e-02 -8.9442719099991586e-01 -4.4205647336059334e-01
vn 1.5531963086075401e-01 -8.9442719099991574e-01 -4.1937550270524759e-01
vn 2.3655989694839780e-01 -8.9442719099991574e-01 -3.7952524969461970e-01
vn 0.0000000000000000e+00 -1.0000000000000000e+00 0.0000000000000000e+00

g face 0
f 17//1 1//1 16//2
f 16//2 1//1 2//3
f 16//2 2//3 3//4
f 4//5 14//6 3//4
f 3//4 14//6 15//7
f 3//4 15//7 16//2
f 4//5 5//8 14//6
f 14//6 5//8 13//9
f 13//9 5//8 12//10
f 12//10 5//8 6//11
f 12//10 6//11 11//12
f 11//12 6//11 7//12
f 11//12 7//12 10//13
f 10//13 7//12 8//14
f 10//13 8//14 9//15

g face 1
f 1//16 17//16 33//17
f 33//17 17//16 18//18
f 33//17 18//18 19//19
f 33//17 19//19 32//20
f 32//20 19//19 20//21
f 32//20 20//21 31//22
f 31//22 20//21 30//23
f 30//23 20//21 21//24
f 30//23 21//24 29//25
f 29//25 21//24 22//26
f 29//25 22//26 23//27
f 29//25 23//27 28//28
f 28//28 23//27 24//29
f 28//28 24//29 27//30
f 27//30 24//29 26//31
f 26//31 24//29 25//31

g face 2
f 50//32 34//32 49//33
f 49//33 34//32 35//34
f 49//33 35//34 36//35
f 37//36 47//37 36//35
f 36//35 47//37 48//38
f 36//35 48//38 49//33
f 47//37 37//36 46//39
f 46//39 37//36 38//40
f 46//39 38//40 45//41
f 45//41 38//40 39//42
f 45//41 39//42 44//43
f 44//43 39//42 40//43
f 44//43 40//43 43//44
f 43//44 40//43 41//44
f 43//44 41//44 42//45

g face 3
f 26//46 25//46 64//47
f 64//47 25//46 51//48
f 64//47 51//48 52//49
f 53//50 62//51 52//49
f 52//49 62//51 63//52
f 52//49 63//52 64//47
f 53//50 54//53 62//51
f 62//51 54//53 61//54
f 61//54 54//53 55//55
f 61//54 55//55 60//56
f 60//56 55//55 59//57
f 59//57 55//55 56//58
f 59//57 56//58 57//59
f 34//60 50//60 57//59
f 57//59 50//60 58//61
f 57//59 58//61 59//57

g face 4
f 66//62 120//63 65//64
f 65//64 120//63 125//65
f 65//64 125//65 90//66
f 90//66 125//65 188//67
f 90//66 188//67 89//68
f 89//68 188//67 186//69
f 89//68 186//69 88//70
f 88//70 186//69 183//71
f 88//70 183//71 87//72
f 87//72 183//71 180//73
f 87//72 180//73 86//74
f 86//74 180//73 177//75
f 86//74 177//75 85//76
f 85//76 177//75 113//77
f 85//76 113//77 84//78
f 84//79 113//80 174//81
f 84//79 174//81 83//82
f 83//82 174//81 171//83
f 83//82 171//83 82//84
f 82//84 171//83 168//85
f 82//84 168//85 81//86
f 81//86 168//85 166//87
f 81//86 166//87 80//88
f 80//88 166//87 163//89
f 80//88 163//89 79//90
f 79//90 163//89 160//91
f 79//90 160//91 78//92
f 78//92 160//91 157//93
f 78//92 157//93 77//94
f 77//94 157//93 154//95
f 77//94 154//95 76//96
f 76//96 154//95 152//97
f 76//96 152//97 75//98
f 75//98 152//97 149//99
f 75//98 149//99 74//100
f 74//100 149//99 146//101
f 74//100 146//101 73//102
f 73//102 146//101 143//103
f 73//102 143//103 72//104
f 72//104 143//103 140//105
f 72//104 140//105 71//106
f 71//106 140//105 137//107
f 71//106 137//107 70//108
f 70//108 137//107 134//109
f 70//108 134//109 69//110
f 69//110 134//109 131//111
f 69//110 131//111 68//112
f 68//112 131//111 129//113
f 68//112 129//113 67//114
f 67//114 129//113 126//115
f 67//114 126//115 66//62
f 66//62 126//115 120//63
f 92//116 123//117 91//118
f 91//118 123//117 122//119
f 91//118 122//119 112//120
f 112//120 122//119 128//121
f 112//120 128//121 111//122
f 111//122 128//121 117//123
f 111//122 117//123 110//124
f 110//124 117//123 133//125
f 110//124 133//125 136//126
f 136//126 133//125 132//127
f 136//126 132//127 135//128
f 135//128 132//127 131//111
f 135//128 131//111 134//109
f 123//117 92//116 190//129
f 190//129 92//116 93//130
f 190//129 93//130 116//131
f 116//131 93//130 94//132
f 116//131 94//132 185//133
f 185//133 94//132 182//134
f 185//133 182//134 181//135
f 181//135 182//134 178//136
f 181//135 178//136 177//75
f 177//75 178//136 113//77
f 94//132 95//137 182//134
f 182//134 95//137 179//138
f 182//134 179//138 178//136
f 178//136 179//138 114//139
f 178//136 114//139 113//77
f 113//80 114//140 174//81
f 95//137 96//141 179//138
f 179//138 96//141 115//142
f 179//138 115//142 114//139
f 114//140 115//143 175//144
f 114//140 175//144 174//81
f 174//81 175//144 171//83
f 96//145 97//146 115//143
f 115//143 97//146 176//147
f 115//143 176//147 175//144
f 175//144 176//147 172//148
f 175//144 172//148 171//83
f 171//83 172//148 168//85
f 97//146 98//149 176//147
f 176//147 98//149 173//150
f 176//147 173//150 172//148
f 172//148 173//150 169//151
f 172//148 169//151 168//85
f 168//85 169//151 166//87
f 98//149 99//152 173//150
f 173//150 99//152 170//153
f 173//150 170//153 169//151
f 169//151 170//153 167//154
f 169//151 167//154 166//87
f 166//87 167//154 163//89
f 170//153 99//152 119//155
f 119//155 99//152 100//156
f 119//155 100//156 165//157
f 165//157 100//156 101//158
f 165//157 101//158 162//159
f 162//159 101//158 102//160
f 162//159 102//160 159//161
f 159//161 102//160 103//162
f 159//161 103//162 156//163
f 156//163 103//162 104//164
f 156//163 104//164 118//165
f 118//165 104//164 105//166
f 118//165 105//166 151//167
f 151//167 105//166 148//168
f 151//167 148//168 147//169
f 147//169 148//168 144//170
f 147//169 144//170 143//103
f 143//103 144//170 140//105
f 105//166 106//171 148//168
f 148//168 106//171 145//172
f 148//168 145//172 144//170
f 144//170 145//172 141//173
f 144//170 141//173 140//105
f 140//105 141//173 137//107
f 106//171 107//174 145//172
f 145//172 107//174 142//175
f 145//172 142//175 141//173
f 141//173 142//175 138//176
f 141//173 138//176 137//107
f 137//107 138//176 134//109
f 107//174 108//177 142//175
f 142//175 108//177 139//178
f 142//175 139//178 138//176
f 138//176 139//178 135//128
f 138//176 135//128 134//109
f 108//177 109//179 139//178
f 139//178 109//179 136//126
f 139//178 136//126 135//128
f 109//179 110//124 136//126
f 120//63 121//180 125//65
f 125//65 121//180 124//181
f 125//65 124//181 188//67
f 188//67 124//181 189//182
f 188//67 189//182 186//69
f 186//69 189//182 187//183
f 186//69 187//183 183//71
f 183//71 187//183 184//184
f 183//71 184//184 180//73
f 180//73 184//184 181//135
f 180//73 181//135 177//75
f 121//180 122//119 124//181
f 124//181 122//119 123//117
f 124//181 123//117 189//182
f 189//182 123//117 190//129
f 189//182 190//129 187//183
f 187//183 190//129 116//131
f 187//183 116//131 184//184
f 184//184 116//131 185//133
f 184//184 185//133 181//135
f 121//180 120//63 127//185
f 127//185 120//63 126//115
f 127//185 126//115 130//186
f 130//186 126//115 129//113
f 130//186 129//113 132//127
f 132//127 129//113 131//111
f 122//119 121//180 128//121
f 128//121 121//180 127//185
f 128//121 127//185 117//123
f 117//123 127//185 130//186
f 117//123 130//186 133//125
f 133//125 130//186 132//127
f 143//103 146//101 147//169
f 147//169 146//101 150//187
f 147//169 150//187 151//167
f 151//167 150//187 118//165
f 146//101 149//99 150//187
f 150//187 149//99 153//188
f 150//187 153//188 118//165
f 118//165 153//188 156//163
f 149//99 152//97 153//188
f 153//188 152//97 155//189
f 153//188 155//189 156//163
f 156//163 155//189 159//161
f 152//97 154//95 155//189
f 155//189 154//95 158//190
f 155//189 158//190 159//161
f 159//161 158//190 162//159
f 154//95 157//93 158//190
f 158//190 157//93 161//191
f 158//190 161//191 162//159
f 162//159 161//191 165//157
f 157//93 160//91 161//191
f 161//191 160//91 164//192
f 161//191 164//192 165//157
f 165//157 164//192 119//155
f 160//91 163//89 164//192
f 164//192 163//89 167//154
f 164//192 167//154 119//155
f 119//155 167//154 170//153

g face 5
f 49//193 81//86 50//194
f 50//194 81//86 80//195
f 50//194 80//195 58//196
f 58//196 80//195 59//197
f 59//197 80//195 79//198
f 59//197 79//198 60//199
f 60//199 79//198 61//200
f 61//200 79//198 62//201
f 62//201 79//198 78//202
f 62//201 78//202 63//203
f 63//203 78//202 64//204
f 64//204 78//202 26//205
f 26//205 78//202 27//206
f 27//206 78//202 28//207
f 28//207 78//202 77//208
f 28//207 77//208 203//209
f 203//209 77//208 202//210
f 202//210 77//208 76//210
f 202//210 76//210 201//211
f 201//211 76//210 75//212
f 201//211 75//212 200//213
f 200//213 75//212 74//213
f 200//213 74//213 199//214
f 199//214 74//213 73//102
f 199//214 73//102 198//215
f 198//215 73//102 72//216
f 198//215 72//216 197//217
f 197//217 72//216 71//218
f 197//217 71//218 196//108
f 196//108 71//218 70//108
f 196//108 70//108 195//219
f 195//219 70//108 69//219
f 195//219 69//219 194//220
f 194//220 69//219 68//221
f 194//220 68//221 193//222
f 193//222 68//221 67//223
f 193//222 67//223 192//224
f 192//224 67//223 66//225
f 192//224 66//225 23//226
f 23//226 66//225 65//227
f 23//226 65//227 24//228
f 24//229 65//230 25//231
f 25//231 65//230 51//232
f 51//232 65//230 52//233
f 52//233 65//230 90//234
f 52//233 90//234 53//235
f 53//235 90//234 54//236
f 54//236 90//234 55//237
f 55//237 90//234 56//238
f 56//238 90//234 89//239
f 56//238 89//239 57//240
f 57//240 89//239 34//241
f 34//241 89//239 88//242
f 34//241 88//242 35//243
f 35//243 88//242 36//244
f 36//244 88//242 87//245
f 36//244 87//245 37//246
f 37//246 87//245 38//247
f 38//247 87//245 86//248
f 38//247 86//248 39//249
f 39//249 86//248 40//250
f 40//250 86//248 85//251
f 40//250 85//251 41//252
f 41//252 85//251 42//253
f 42//253 85//251 84//254
f 42//253 84//254 43//255
f 43//255 84//254 44//256
f 44//256 84//254 83//257
f 44//256 83//257 45//258
f 45//258 83//257 46//259
f 46//259 83//257 82//260
f 46//259 82//260 47//261
f 47//261 82//260 48//262
f 48//262 82//260 81//86
f 48//262 81//86 49//193
f 192//224 23//226 191//227
f 191//230 23//263 22//264
f 191//230 22//264 21//265
f 21//265 20//266 191//230
f 191//230 20//266 216//267
f 216//267 20//266 19//268
f 216//267 19//268 18//269
f 216//267 18//269 215//270
f 215//270 18//269 17//271
f 215//270 17//271 16//272
f 215//270 16//272 214//273
f 214//273 16//272 15//274
f 214//273 15//274 14//275
f 214//273 14//275 213//245
f 213//245 14//275 13//276
f 213//245 13//276 12//277
f 213//245 12//277 212//248
f 212//248 12//277 11//278
f 212//248 11//278 211//279
f 211//279 11//278 10//280
f 211//279 10//280 9//253
f 211//279 9//253 210//281
f 210//281 9//253 8//282
f 210//281 8//282 7//283
f 210//281 7//283 209//284
f 209//284 7//283 6//285
f 209//284 6//285 208//260
f 208//260 6//285 5//286
f 208//260 5//286 4//287
f 208//260 4//287 207//288
f 207//288 4//287 3//289
f 207//288 3//289 2//290
f 207//288 2//290 206//195
f 206//195 2//290 1//291
f 206//195 1//291 33//292
f 206//195 33//292 205//293
f 205//293 33//292 32//294
f 205//293 32//294 31//295
f 205//293 31//295 204//202
f 204//202 31//295 30//296
f 204//202 30//296 29//297
f 29//297 28//207 204//202
f 204//202 28//207 203//209

g face 6
f 112//298 103//298 91//298
f 91//298 103//298 102//298
f 91//298 102//298 92//298
f 92//298 102//298 101//298
f 92//298 101//298 93//298
f 93//298 101//298 100//298
f 93//298 100//298 94//298
f 94//298 100//298 99//298
f 94//298 99//298 95//298
f 95//298 99//298 98//298
f 95//298 98//298 96//298
f 96//298 98//298 97//298
f 103//298 112//298 104//298
f 104//298 112//298 111//298
f 104//298 111//298 105//298
f 105//298 111//298 110//298
f 105//298 110//298 106//298
f 106//298 110//298 109//298
f 106//298 109//298 107//298
f 107//298 109//298 108//298

g face 7
f 218//299 280//300 217//301
f 217//301 280//300 263//302
f 217//303 263//304 353//305
f 353//305 263//304 264//306
f 353//305 264//306 354//307
f 354//307 264//306 265//308
f 354//307 265//308 355//309
f 355//309 265//308 246//310
f 355//309 246//310 247//311
f 280//300 218//299 283//312
f 283//312 218//299 219//313
f 283//312 219//313 286//314
f 286//314 219//313 220//315
f 286//314 220//315 288//316
f 288//316 220//315 221//317
f 288//316 221//317 291//318
f 291//318 221//317 222//319
f 291//318 222//319 293//320
f 293//320 222//319 223//321
f 293//320 223//321 295//322
f 295//322 223//321 224//323
f 295//322 224//323 298//324
f 298//324 224//323 225//325
f 298//324 225//325 300//326
f 300//326 225//325 226//327
f 300//326 226//327 303//328
f 303//328 226//327 227//329
f 303//328 227//329 306//330
f 306//330 227//329 228//331
f 306//330 228//331 309//332
f 309//332 228//331 229//333
f 309//332 229//333 311//334
f 311//334 229//333 230//335
f 311//334 230//335 314//336
f 314//336 230//335 231//337
f 314//336 231//337 272//338
f 272//338 231//337 232//339
f 272//338 232//339 321//340
f 321//340 232//339 318//341
f 321//340 318//341 319//342
f 319//342 318//341 323//343
f 319//342 323//343 324//344
f 324//344 323//343 270//345
f 324//344 270//345 253//346
f 253//346 270//345 252//347
f 252//347 270//345 329//348
f 252//347 329//348 332//349
f 332//349 329//348 328//350
f 332//349 328//350 331//351
f 331//351 328//350 327//352
f 331//351 327//352 330//353
f 330//353 327//352 236//354
f 330//353 236//354 237//355
f 232//339 233//356 318//341
f 318//341 233//356 322//357
f 318//341 322//357 323//343
f 323//343 322//357 326//358
f 323//343 326//358 270//345
f 270//345 326//358 329//348
f 233//356 234//359 322//357
f 322//357 234//359 325//360
f 322//357 325//360 326//358
f 326//358 325//360 328//350
f 326//358 328//350 329//348
f 234//359 235//361 325//360
f 325//360 235//361 327//352
f 325//360 327//352 328//350
f 235//361 236//354 327//352
f 330//353 237//355 333//362
f 333//362 237//355 238//363
f 333//362 238//363 336//364
f 336//364 238//363 239//365
f 336//364 239//365 338//366
f 338//366 239//365 240//367
f 338//366 240//367 341//368
f 341//368 240//367 241//369
f 341//368 241//369 343//370
f 343//370 241//369 242//371
f 343//370 242//371 345//372
f 345//372 242//371 243//373
f 345//372 243//373 348//374
f 348//374 243//373 244//375
f 348//374 244//375 350//376
f 350//376 244//375 245//377
f 350//376 245//377 353//305
f 353//305 245//377 217//303
f 248//378 266//379 247//311
f 247//311 266//379 352//380
f 247//311 352//380 355//309
f 355//309 352//380 351//381
f 355//309 351//381 354//307
f 354//307 351//381 350//376
f 354//307 350//376 353//305
f 249//382 267//383 248//378
f 248//378 267//383 347//384
f 248//378 347//384 266//379
f 266//379 347//384 346//385
f 266//379 346//385 349//386
f 349//386 346//385 345//372
f 349//386 345//372 348//374
f 267//383 249//382 268//387
f 268//387 249//382 250//388
f 268//387 250//388 340//389
f 340//389 250//388 269//390
f 340//389 269//390 337//391
f 337//391 269//390 334//392
f 337//391 334//392 333//362
f 333//362 334//392 330//353
f 250//388 251//393 269//390
f 269//390 251//393 335//394
f 269//390 335//394 334//392
f 334//392 335//394 331//351
f 334//392 331//351 330//353
f 335//394 251//393 332//349
f 332//349 251//393 252//347
f 324//344 253//346 271//395
f 271//395 253//346 254//396
f 271//395 254//396 273//397
f 273//397 254//396 255//398
f 273//397 255//398 317//399
f 317//399 255//398 274//400
f 317//399 274//400 315//401
f 315//401 274//400 312//402
f 315//401 312//402 311//334
f 311//334 312//402 309//332
f 255//398 256//403 274//400
f 274//400 256//403 313//404
f 274//400 313//404 312//402
f 312//402 313//404 310//405
f 312//402 310//405 309//332
f 309//332 310//405 306//330
f 313//404 256//403 275//406
f 275//406 256//403 257//407
f 275//406 257//407 308//408
f 308//408 257//407 305//409
f 308//408 305//409 304//410
f 304//410 305//409 301//411
f 304//410 301//411 300//326
f 300//326 301//411 298//324
f 257//407 258//412 305//409
f 305//409 258//412 302//413
f 305//409 302//413 301//411
f 301//411 302//413 299//414
f 301//411 299//414 298//324
f 298//324 299//414 295//322
f 302//413 258//412 276//415
f 276//415 258//412 259//416
f 276//415 259//416 297//417
f 297//417 259//416 277//418
f 297//417 277//418 294//419
f 294//419 277//418 292//420
f 294//419 292//420 291//318
f 291//318 292//420 288//316
f 259//416 260//421 277//418
f 277//418 260//421 278//422
f 277//418 278//422 292//420
f 292//420 278//422 289//423
f 292//420 289//423 288//316
f 288//316 289//423 286//314
f 260//421 261//424 278//422
f 278//422 261//424 290//425
f 278//422 290//425 289//423
f 289//423 290//425 287//426
f 289//423 287//426 286//314
f 286//314 287//426 283//312
f 290//425 261//424 279//427
f 279//427 261//424 262//428
f 279//427 262//428 285//429
f 285//429 262//428 282//430
f 285//429 282//430 281//431
f 281//431 282//430 264//432
f 281//431 264//432 263//302
f 262//428 246//433 282//430
f 282//430 246//433 265//434
f 282//430 265//434 264//432
f 281//431 263//302 280//300
f 281//431 280//300 284//435
f 284//435 280//300 283//312
f 284//435 283//312 287//426
f 279//427 285//429 284//435
f 284//435 285//429 281//431
f 279//427 284//435 287//426
f 290//425 279//427 287//426
f 291//318 293//320 294//419
f 294//419 293//320 296//436
f 294//419 296//436 297//417
f 297//417 296//436 276//415
f 293//320 295//322 296//436
f 296//436 295//322 299//414
f 296//436 299//414 276//415
f 276//415 299//414 302//413
f 300//326 303//328 304//410
f 304//410 303//328 307//437
f 304//410 307//437 308//408
f 308//408 307//437 275//406
f 303//328 306//330 307//437
f 307//437 306//330 310//405
f 307//437 310//405 275//406
f 275//406 310//405 313//404
f 311//334 314//336 315//401
f 315//401 314//336 316//438
f 315//401 316//438 317//399
f 317//399 316//438 273//397
f 314//336 272//338 316//438
f 316//438 272//338 320//439
f 316//438 320//439 273//397
f 273//397 320//439 271//395
f 321//340 319//342 320//439
f 320//439 319//342 271//395
f 319//342 324//344 271//395
f 272//338 321//340 320//439
f 335//394 332//349 331//351
f 333//362 336//364 337//391
f 337//391 336//364 339//440
f 337//391 339//440 340//389
f 340//389 339//440 268//387
f 336//364 338//366 339//440
f 339//440 338//366 342//441
f 339//440 342//441 268//387
f 268//387 342//441 267//383
f 338//366 341//368 342//441
f 342//441 341//368 344//442
f 342//441 344//442 267//383
f 267//383 344//442 347//384
f 341//368 343//370 344//442
f 344//442 343//370 346//385
f 344//442 346//385 347//384
f 345//372 346//385 343//370
f 352//380 266//379 349//386
f 350//376 351//381 348//374
f 348//374 351//381 349//386
f 351//381 352//380 349//386

g face 8
f 247//443 246//443 248//443
f 248//443 246//443 262//443
f 248//443 262//443 261//443
f 248//443 261//443 249//443
f 249//443 261//443 260//443
f 249//443 260//443 250//443
f 250//443 260//443 259//443
f 250//443 259//443 251//443
f 251//443 259//443 258//443
f 251//443 258//443 252//443
f 252//443 258//443 257//443
f 252//443 257//443 253//443
f 253//443 257//443 256//443
f 253//443 256//443 254//443
f 254//443 256//443 255//443

g face 9
f 218//298 217//298 204//298
f 204//298 217//298 245//298
f 204//298 245//298 205//298
f 205//298 245//298 244//298
f 205//298 244//298 206//298
f 206//298 244//298 243//298
f 206//298 243//298 207//298
f 207//298 243//298 242//298
f 207//298 242//298 208//298
f 208//298 242//298 241//298
f 208//298 241//298 209//298
f 209//298 241//298 240//298
f 209//298 240//298 210//298
f 210//298 240//298 239//298
f 210//298 239//298 211//298
f 211//298 239//298 238//298
f 211//298 238//298 212//298
f 212//298 238//298 237//298
f 212//298 237//298 213//298
f 213//298 237//298 236//298
f 213//298 236//298 235//298
f 213//298 235//298 214//298
f 214//298 235//298 234//298
f 214//298 234//298 215//298
f 215//298 234//298 233//298
f 215//298 233//298 216//298
f 216//298 233//298 232//298
f 216//298 232//298 191//298
f 191//298 232//298 231//298
f 191//298 231//298 192//298
f 192//298 231//298 230//298
f 192//298 230//298 193//298
f 193//298 230//298 229//298
f 193//298 229//298 194//298
f 194//298 229//298 228//298
f 194//298 228//298 195//298
f 195//298 228//298 227//298
f 195//298 227//298 226//298
f 195//298 226//298 196//298
f 196//298 226//298 225//298
f 196//298 225//298 197//298
f 197//298 225//298 224//298
f 197//298 224//298 198//298
f 198//298 224//298 223//298
f 198//298 223//298 199//298
f 199//298 223//298 222//298
f 199//298 222//298 200//298
f 200//298 222//298 221//298
f 200//298 221//298 201//298
f 201//298 221//298 220//298
f 201//298 220//298 202//298
f 202//298 220//298 219//298
f 202//298 219//298 203//298
f 203//298 219//298 218//298
f 203//298 218//298 204//298

g halfedge 0 edge 0
l 17 16 15 14 13 12 11 10 9 8 7 6 5 4 3 2 1

g halfedge 1 edge 0
l 1 2 3 4 5 6 7 8 9 10 11 12 13 14 15 16 17

g halfedge 2 edge 1
l 17 1

g halfedge 3 edge 1
l 1 17

g halfedge 4 edge 2
l 25 24 23 22 21 20 19 18 17

g halfedge 5 edge 2
l 17 18 19 20 21 22 23 24 25

g halfedge 6 edge 3
l 26 25

g halfedge 7 edge 3
l 25 26

g halfedge 8 edge 4
l 1 33 32 31 30 29 28 27 26

g halfedge 9 edge 4
l 26 27 28 29 30 31 32 33 1

g halfedge 10 edge 5
l 50 49 48 47 46 45 44 43 42 41 40 39 38 37 36 35 34

g halfedge 11 edge 5
l 34 35 36 37 38 39 40 41 42 43 44 45 46 47 48 49 50

g halfedge 12 edge 6
l 34 50

g halfedge 13 edge 6
l 50 34

g halfedge 14 edge 7
l 34 57 56 55 54 53 52 51 25

g halfedge 15 edge 7
l 25 51 52 53 54 55 56 57 34

g halfedge 16 edge 8
l 26 64 63 62 61 60 59 58 50

g halfedge 17 edge 8
l 50 58 59 60 61 62 63 64 26

g halfedge 18 edge 9
l 65 90 89 88 87 86 85 84 83 82 81 80 79 78 77 76 75 74 73 72 71 70 69 68 67 66 65

g halfedge 19 edge 9
l 65 66 67 68 69 70 71 72 73 74 75 76 77 78 79 80 81 82 83 84 85 86 87 88 89 90 65

g halfedge 20 edge 10
l 91 112 111 110 109 108 107 106 105 104 103 102 101 100 99 98 97 96 95 94 93 92 91

g halfedge 21 edge 10
l 91 92 93 94 95 96 97 98 99 100 101 102 103 104 105 106 107 108 109 110 111 112 91

g halfedge 22 edge 11
l 191 192 193 194 195 196 197 198 199 200 201 202 203 204 205 206 207 208 209 210 211 212 213 214 215 216 191

g halfedge 23 edge 11
l 191 216 215 214 213 212 211 210 209 208 207 206 205 204 203 202 201 200 199 198 197 196 195 194 193 192 191

g halfedge 24 edge 12
l 217 245 244 243 242 241 240 239 238 237 236 235 234 233 232 231 230 229 228 227 226 225 224 223 222 221 220 219 218 217

g halfedge 25 edge 12
l 217 218 219 220 221 222 223 224 225 226 227 228 229 230 231 232 233 234 235 236 237 238 239 240 241 242 243 244 245 217

g halfedge 26 edge 13
l 246 262 261 260 259 258 257 256 255 254 253 252 251 250 249 248 247 246

g halfedge 27 edge 13
l 246 247 248 249 250 251 252 253 254 255 256 257 258 259 260 261 262 246

g vertex 0
p 17

g vertex 1
p 1

g vertex 2
p 25

g vertex 3
p 26

g vertex 4
p 34

g vertex 5
p 50

g vertex 6
p 65

g vertex 7
p 91

g vertex 8
p 191

g vertex 9
p 217

g vertex 10
p 246

# End of file
