# WaveFront *.obj file
# Vertices: 206
# Triangles : 412

v -0.005591858433732598 -0.007657421442175901 0.00042690155221606783
v -0.005508995589182947 -0.007857031778929251 0.0005464140511280775
v -0.005351182544702077 -0.008020021522161982 0.0006440007384089077
v -0.00513766757834593 -0.008126510997742399 0.000707759076486214
v -0.004894492868408747 -0.008163511805106112 0.0007299125331745007
v -0.004894492868408747 -0.007967794502087911 0.0010568004915016322
v -0.00513766757834593 -0.007930793694724197 0.001034647034813347
v -0.005351182544702077 -0.007824304219143782 0.0009708886967360408
v -0.005508995589182947 -0.007661314475911051 0.0008733020094552107
v -0.005591858433732598 -0.007461704139157701 0.0007537895105432002
v -0.005591858433732619 -0.007510633464912129 0.000672067520961344
v -0.005591858433732619 -0.007559562790666678 0.0005903455313795606
v -0.005591858433732619 -0.0076084921164212265 0.0005086235417977771
v -0.0014014240074255086 -0.008163511805106417 0.0007299125331746815
v -0.0011488140421651075 -0.008123303646422724 0.000705838742212263
v -0.000929823799291068 -0.008008030452262772 0.0006368213370232304
v -0.0007735985706890752 -0.007833033869114063 0.0005320458063902235
v -0.0007009302867563748 -0.0076216040967039015 0.0004054566684922219
v -0.0007009302867563748 -0.007425886793685701 0.0007323446268193535
v -0.0007735985706890826 -0.007637316566095876 0.0008589337647173619
v -0.0009298237992910917 -0.00781231314924459 0.0009637092953503722
v -0.0011488140421651515 -0.007927586343404538 0.0010327267005394026
v -0.0014014240074255713 -0.007967794502088213 0.0010568004915018142
v -0.005691089909672367 -0.006806661412105083 -8.247315663909996e-05
v -0.0057833670069652775 -0.005955333368866791 -0.0005921879514545664
v -0.005868692626686543 -0.005103465033453468 -0.0011022262348680226
v -0.005947066280792615 -0.004251108623690231 -0.0016125567425528346
v -0.0061502875052649 -0.0015627311448223559 -0.003222166323620165
v -0.00628307601695513 0.001128884450435993 -0.004833714658901771
v -0.006345364812130439 0.0038223800002218033 -0.006446388577492701
v 0.0 0.0038223800002218024 -0.0064463885774927
v -5.382650017519891e-05 0.0009567545327425442 -0.004730655484033077
v -0.00018865120696626145 -0.001906907654668536 -0.0030160978633011104
v -0.0004043947857016713 -0.004766921502169268 -0.0013037246095045341
v 0.0 0.0040180973032400025 -0.006119500619165567
v -5.382650017519891e-05 0.0011524718357607455 -0.004403767525705944
v -0.00018865120696626132 -0.0017111903516503334 -0.002689209904973978
v -0.00040439478570167124 -0.004571204199151065 -0.0009768366511774013
v -0.005947066280792615 -0.004055391320672031 -0.001285668784225702
v -0.0061502875052649 -0.0013670138418041522 -0.0028952783652930266
v -0.00628307601695513 0.0013246017534541976 -0.004506826700574633
v -0.006345364812130439 0.004018097303240003 -0.006119500619165569
v -0.006350000000000001 0.0038223800002218024 -0.0064463885774927
v -0.006350000000000001 0.0040180973032400025 -0.006119500619165567
v -0.006350000000000001 0.004246865764988574 -0.0063012375639948945
v -0.006350000000000001 0.004410912914842838 -0.006543005756343263
v -0.006350000000000001 0.004495263309658787 -0.006822734798634368
v -0.006350000000000001 0.00449221681845052 -0.007114888944759359
v -0.006350000000000001 0.004159927622789697 -0.009147099284847696
v -0.006350000000000001 0.0037839209105239623 -0.009085617967920423
v -0.006350000000000001 0.004116264780955506 -0.007053073248514769
v -0.006350000000000001 0.004106206699830913 -0.006815519689074321
v -0.006350000000000001 0.004002551308468101 -0.006601537403732387
v -0.004307606763679793 0.004098767653285601 -0.00763229372115654
v -0.004307606763679793 0.004062814368981055 -0.0076160705199737845
v -0.004307606763679793 0.004039789512015211 -0.007584044173466539
v -0.004307606763679793 0.004035862574217911 -0.00754479611531794
v -0.004472706763680366 0.004028723897555743 -0.007588454749775057
v -0.0045935683520100775 0.004009220670215907 -0.00770773235730089
v -0.004637806763679793 0.003982578766213953 -0.007870668599283539
v -0.004599706763679794 0.003992653835704019 -0.00787231598620534
v -0.004571815627911421 0.00402017943744059 -0.007876816730975874
v -0.004561606763679793 0.004057780108667173 -0.007882964862668538
v -0.0045275772162415495 0.004078273880976368 -0.007757629291912657
v -0.004434606763680234 0.004093276363545472 -0.007665877286123553
v -0.004453656763680301 0.0040334745288140616 -0.007622665273178604
v -0.004439711195796065 0.004057102371243234 -0.0076510038883075785
v -0.0045605727841258135 0.004016221673859592 -0.007728180079836072
v -0.004536418352009945 0.004041496903210802 -0.00774644362547495
v -0.004637806763670861 0.0037429333659069696 -0.00933628910942364
v -0.004599706763670862 0.0037530084353970357 -0.009337936496345442
v -0.004571815627902488 0.0037805340371336073 -0.009342437241115976
v -0.004561606763670861 0.0038181347083601908 -0.009348585372808643
v -0.0043076067636720885 0.0036896495579036535 -0.009662161593385319
v -0.004307606763671947 0.0037058727590864094 -0.009626208309080772
v -0.004307606763671843 0.0037378991055936547 -0.009603183452114928
v -0.004307606763671805 0.0037771471637422544 -0.009599256514317627
v -0.004434606763670966 0.003782638453482353 -0.009565672949350805
v -0.004527577216231758 0.003797640936051247 -0.009473920943562983
v -0.004593568352000026 0.003716291461905344 -0.00949922535140428
v -0.004472706763670997 0.0036967882345657803 -0.009618502958928452
v -0.004439711195786783 0.003743611103331442 -0.009568250083781333
v -0.004453656763670982 0.003712187742287521 -0.009587587209368928
v -0.004536418352000117 0.0037592165713636566 -0.009472810346615294
v -0.004560572784115892 0.0037294405972417505 -0.009482072402712932
v -0.0020423932363202654 0.003689649557902295 -0.009662161593393625
v -0.002042393236320124 0.003705872759085051 -0.009626208309089078
v -0.0020423932363200204 0.003737899105592297 -0.009603183452123232
v -0.0020423932363199822 0.0037771471637408965 -0.009599256514325933
v -0.0017121932363190386 0.003742933365905932 -0.009336289109429989
v -0.0017502932363190385 0.0037530084353959606 -0.009337936496352015
v -0.0017781843720874125 0.003780534037132505 -0.009342437241122716
v -0.0017883932363190382 0.0038181347083590784 -0.009348585372815443
v -0.0018224227837579485 0.003797640936049944 -0.009473920943570958
v -0.0019153932363195835 0.003782638453480934 -0.009565672949359482
v -0.0018772932363197471 0.003696788234564344 -0.00961850295893724
v -0.0017564316479896217 0.0037162914619040563 -0.009499225351412158
v -0.001813581647989581 0.0037592165713623543 -0.009472810346623254
v -0.0017894272158737851 0.0037294405972404542 -0.009482072402720856
v -0.0019102888042037928 0.0037436111033300207 -0.009568250083790026
v -0.0018963432363196654 0.0037121877422860933 -0.00958758720937766
v -0.0017121932363190386 0.003982578766214274 -0.007870668599281575
v -0.0017502932363190388 0.003992653835704303 -0.007872315986203603
v -0.0017781843720874131 0.004020179437440848 -0.007876816730974302
v -0.0017883932363190387 0.004057780108667422 -0.00788296486266703
v -0.0020423932363190385 0.004035862574217911 -0.007544796115317938
v -0.0020423932363190385 0.004039789512015213 -0.007584044173466537
v -0.0020423932363190385 0.0040628143689810554 -0.007616070519973781
v -0.0020423932363190385 0.004098767653285601 -0.00763229372115654
v -0.0019153932363190388 0.004093276363545513 -0.007665877286123301
v -0.0018224227837577915 0.004078273880976511 -0.007757629291911784
v -0.0017564316479894175 0.004009220670216093 -0.007707732357299756
v -0.001877293236319039 0.004028723897555797 -0.007588454749774729
v -0.001910288804203226 0.0040571023712432765 -0.007651003888307315
v -0.0018963432363190385 0.004033474528814108 -0.007622665273178313
v -0.0018135816479894176 0.00404149690321095 -0.007746443625474042
v -0.0017894272158736047 0.004016221673859755 -0.0077281800798350685
v -0.0017883932363190387 0.004283384136026862 -0.007919853652823394
v -0.0017883932363190382 0.004043738735718521 -0.009385474162971806
v -0.0020423932363190385 0.004324371680645043 -0.007669182511312904
v -0.0019153932363190386 0.004318880390904956 -0.0077027660762796655
v -0.0018224227837577915 0.004303877908335953 -0.007794518082068149
v -0.004307606763679793 0.004324371680645043 -0.007669182511312904
v -0.004561606763679793 0.004283384136026615 -0.007919853652824903
v -0.00452757721624155 0.00430387790833581 -0.007794518082069021
v -0.004434606763680234 0.004318880390904914 -0.007702766076279918
v -0.0063016635031446664 0.0037447077748772053 -0.009325437199990697
v -0.006164012806053458 0.003711464483664706 -0.009528746127945025
v -0.005958003979551832 0.003689252026622384 -0.00966459281050238
v -0.0057150000000000005 0.003681452048978507 -0.009712295821696651
v -0.000635 0.003681452048978507 -0.009712295821696651
v -0.0003919960204481682 0.003689252026622384 -0.009664592810502384
v -0.0001859871939465424 0.003711464483664706 -0.009528746127945027
v -4.833649685533296e-05 0.0037447077748772053 -0.0093254371999907
v 0.0 0.003783920910523962 -0.009085617967920425
v 0.0 0.004116264780955506 -0.007053073248514769
v -0.0020423932363190385 0.0043636197387936435 -0.007665255573515602
v -0.0020423932363190385 0.004395646085300891 -0.007642230716549759
v -0.0020423932363190385 0.0044118692864836455 -0.00760627743224521
v -0.0018772932363190387 0.004404730609821531 -0.007649936066702
v -0.001756431647989417 0.004385227382481828 -0.007769213674227029
v -0.0017121932363190386 0.004358585478480009 -0.007932149916208848
v -0.0017502932363190388 0.00434851040898998 -0.007930502529286822
v -0.0017781843720874127 0.004320984807253435 -0.00792600178451612
v -0.0018963432363190385 0.0043893311020997885 -0.007680851816261534
v -0.0019102888042032257 0.004357907741055866 -0.0077001889418491344
v -0.0017894272158736038 0.004372078247145436 -0.007786366622918289
v -0.0018135816479894172 0.00434230227302354 -0.0077956286790158615
v -0.0017121932363190384 0.004118940078171668 -0.00939777042635726
v -0.0017502932363190383 0.0041088650086816385 -0.009396123039435234
v -0.0017781843720874122 0.004081339406945095 -0.009391622294664533
v -0.0020423932363202654 0.004065656270168031 -0.0097236429103209
v -0.002042393236320124 0.004061729332370729 -0.009684394852172299
v -0.0020423932363200204 0.004038704475404885 -0.009652368505665053
v -0.0020423932363199822 0.004002751191100339 -0.009636145304482297
v -0.0019153932363195835 0.004008242480840376 -0.009602561739515845
v -0.0018224227837579485 0.004023244963409386 -0.00951080973372732
v -0.0017564316479896213 0.004092298174169792 -0.009560706668339428
v -0.0018772932363197471 0.00407279494683008 -0.009679984275864513
v -0.0019102888042037925 0.0040444164731426105 -0.009617435137331844
v -0.0018963432363196654 0.004068044315571773 -0.00964577375246088
v -0.0018135816479895803 0.004060021941174945 -0.009521995400165071
v -0.0017894272158737845 0.004085297170526135 -0.009540258945804075
v -0.0043076067636720885 0.004065656270169389 -0.009723642910312592
v -0.004307606763671947 0.004061729332372087 -0.009684394852163993
v -0.004307606763671843 0.0040387044754062445 -0.009652368505656747
v -0.004307606763671805 0.004002751191101697 -0.009636145304473992
v -0.004637806763670861 0.004118940078172705 -0.009397770426350914
v -0.004599706763670862 0.004108865008682714 -0.009396123039428661
v -0.004571815627902488 0.004081339406946196 -0.009391622294657795
v -0.004561606763670861 0.004043738735719633 -0.009385474162965007
v -0.004527577216231757 0.004023244963410689 -0.009510809733719346
v -0.004434606763670966 0.004008242480841795 -0.00960256173950717
v -0.004472706763670997 0.004072794946831516 -0.009679984275855725
v -0.004593568352000026 0.00409229817417108 -0.009560706668331555
v -0.004536418352000117 0.004060021941176246 -0.009521995400157112
v -0.004560572784115891 0.00408529717052743 -0.009540258945796153
v -0.004439711195786783 0.004044416473144032 -0.009617435137323153
v -0.004453656763670981 0.004068044315573201 -0.009645773752452149
v -0.004637806763679793 0.004358585478479688 -0.00793214991621081
v -0.004599706763679793 0.004348510408989696 -0.007930502529288558
v -0.004571815627911419 0.004320984807253178 -0.00792600178451769
v -0.004307606763679793 0.0044118692864836455 -0.007606277432245211
v -0.004307606763679793 0.004395646085300889 -0.007642230716549759
v -0.004307606763679793 0.0043636197387936435 -0.007665255573515602
v -0.0045935683520100775 0.004385227382481642 -0.0077692136742281625
v -0.004472706763680367 0.004404730609821477 -0.007649936066702329
v -0.004439711195796065 0.004357907741055824 -0.007700188941849397
v -0.004453656763680301 0.004389331102099741 -0.0076808518162618244
v -0.004536418352009945 0.004342302273023391 -0.00779562867901677
v -0.004560572784125814 0.004372078247145271 -0.007786366622919293
v -0.0057150000000000005 0.004057458761244243 -0.009773777138623926
v -0.005958003979551832 0.004065258738888117 -0.009726074127429653
v -0.006164012806053458 0.004087471195930439 -0.009590227444872299
v -0.0063016635031446664 0.004120714487142937 -0.009386918516917971
v 0.0 0.00449221681845052 -0.007114888944759359
v 0.0 0.004159927622789697 -0.009147099284847698
v -4.833649685533268e-05 0.004120714487142937 -0.009386918516917971
v -0.00018598719394654216 0.004087471195930438 -0.009590227444872299
v -0.0003919960204481679 0.004065258738888117 -0.009726074127429655
v -0.000635 0.004057458761244243 -0.009773777138623926
v 0.0 0.004246865764988574 -0.0063012375639948945
v 0.0 0.004410912914842838 -0.006543005756343263
v 0.0 0.004495263309658787 -0.006822734798634368
v 0.0 0.004106206699830913 -0.006815519689074321
v 0.0 0.004002551308468101 -0.006601537403732387

vn -9.8614831090869748e-01 -1.4230860194065786e-01 8.5204288070602999e-02
vn -8.6897152694780089e-01 -4.2457862818980463e-01 2.5420754087648739e-01
vn -9.8614831090873190e-01 -1.4230860194048245e-01 8.5204288070497972e-02
vn -9.8614831090873156e-01 -1.4230860194048417e-01 8.5204288070499012e-02
vn -8.6897152694780089e-01 -4.2457862818980474e-01 2.5420754087648745e-01
vn -9.8614831090873123e-01 -1.4230860194048592e-01 8.5204288070500053e-02
vn -9.8614831090869748e-01 -1.4230860194065847e-01 8.5204288070603387e-02
vn -6.4580727136560412e-01 -6.5506328068299380e-01 3.9220538822426482e-01
vn -3.4387463531977197e-01 -8.0565060775355690e-01 4.8236638917944746e-01
vn -9.1953490849705398e-14 -8.5797364390323672e-01 5.1369370870918984e-01
vn -9.1738933932835270e-14 -8.5797364390323672e-01 5.1369370870918984e-01
vn -8.9070130276220411e-14 -8.5797364390323672e-01 5.1369370870918984e-01
vn -1.5364649074648407e-29 -8.5797364390323672e-01 5.1369370870918984e-01
vn 3.5869381572226727e-01 -8.0088002193726016e-01 4.7951010106605035e-01
vn 3.5869381572232983e-01 -8.0088002193723951e-01 4.7951010106603797e-01
vn 6.6964926730741392e-01 -6.3719771502149813e-01 3.8150875581829741e-01
vn 6.6964926730744712e-01 -6.3719771502147249e-01 3.8150875581828203e-01
vn 8.9148146344260004e-01 -3.8871111203544340e-01 2.3273261850975957e-01
vn 8.9148146344261037e-01 -3.8871111203542608e-01 2.3273261850974922e-01
vn 9.9466687823392430e-01 -8.8491159331155644e-02 5.2982224043613982e-02
vn 0.0000000000000000e+00 -8.5797364390323494e-01 5.1369370870919273e-01
vn -0.0000000000000000e+00 -5.1369370870918984e-01 -8.5797364390323683e-01
vn 9.9490203594118942e-01 -8.6523308630219509e-02 5.1804014745539230e-02
vn 9.9490203594118942e-01 -8.6523308630219509e-02 5.1804014745539244e-02
vn 9.9705542050367924e-01 -6.5793145098317435e-02 3.9392264498288317e-02
vn 9.9705542050367924e-01 -6.5793145098317449e-02 3.9392264498288324e-02
vn 9.9862210945071128e-01 -4.5024267018595299e-02 2.6957334728225701e-02
vn 9.9960118089818883e-01 -2.4228895386452922e-02 1.4506542499803968e-02
vn 9.9960118089818883e-01 -2.4228895386452936e-02 1.4506542499803977e-02
vn 9.9999205873277464e-01 -3.4192667868458630e-03 2.0472142113949379e-03
vn -9.9996296165952980e-01 -7.3843229677654342e-03 4.4212083652836352e-03
vn -9.9951735528510355e-01 -2.6653258626178421e-02 1.5958079097370199e-02
vn -9.9856740261555543e-01 -4.5908745321279323e-02 2.7486897544994209e-02
vn -9.9856740261555543e-01 -4.5908745321279316e-02 2.7486897544994206e-02
vn -9.9711358298734420e-01 -6.5141066930257313e-02 3.9001846383583484e-02
vn -9.9711358298734420e-01 -6.5141066930257313e-02 3.9001846383583491e-02
vn 8.6281661508548166e-32 -8.5797364390323705e-01 5.1369370870918940e-01
vn -9.9467464963280505e-01 -8.8426833643270863e-02 5.2943710388317383e-02
vn -9.9467464963280483e-01 -8.8426833643271294e-02 5.2943710388317640e-02
vn -9.9537301734235284e-01 -8.2439420518861981e-02 4.9358872467819961e-02
vn -9.9602184536556271e-01 -7.6453508855033353e-02 4.5774933515326327e-02
vn -9.9717165446666378e-01 -6.4483392283435928e-02 3.8608077494701638e-02
vn -9.9467464963280572e-01 -8.8426833643266006e-02 5.2943710388314469e-02
vn -9.9662133841839617e-01 -7.0468357320795497e-02 4.2191449674468515e-02
vn -1.0000000000000000e+00 -0.0000000000000000e+00 -0.0000000000000000e+00
vn 0.0000000000000000e+00 5.1369370870918984e-01 8.5797364390323683e-01
vn 1.2246467991473535e-16 -1.6136828589835442e-01 -9.8689425791531837e-01
vn 1.0605752387249070e-16 -6.3319616391078415e-01 -7.7399135525448037e-01
vn 5.0000000000173672e-01 -1.3974903495296326e-01 -8.5467549820266786e-01
vn 4.3301270189372343e-01 -6.1447334338128468e-01 -6.5948655048645466e-01
vn 8.6602540378644377e-01 -8.0684142948616686e-02 -4.9344712895423160e-01
vn 7.5000000000173694e-01 -5.6332164643373595e-01 -3.4665360614968255e-01
vn 1.0000000000000000e+00 9.7068388075405239e-13 5.9357381046394586e-12
vn 8.6602540378443960e-01 -4.9344712895681658e-01 8.0684142954319402e-02
vn 4.3301270189322277e-01 -8.9501756967796553e-01 -1.0697452952399011e-01
vn 4.9999999999999806e-01 -8.5467549820317301e-01 1.3974903495609503e-01
vn 1.7101412219953578e-15 -9.8689425791531848e-01 1.6136828589835356e-01
vn 1.0718754395724392e-15 -9.8689425791531837e-01 1.6136828589835453e-01
vn 6.1232339957368474e-17 -9.3535964115283210e-01 -3.5369809400454111e-01
vn 2.5000000000086858e-01 -9.2455001568013895e-01 -2.8758871414820908e-01
vn 1.7610990177192021e-30 -9.8689425791532071e-01 1.6136828589834035e-01
vn 4.0935663896581840e-15 -9.8689425791531937e-01 1.6136828589834748e-01
vn 8.6010323971077831e-15 -9.8689425791531826e-01 1.6136828589835453e-01
vn -7.5460668955762098e-15 -9.8689425791531826e-01 1.6136828589835453e-01
vn 4.9999999999998868e-01 -8.5467549820317879e-01 1.3974903495609409e-01
vn 4.9999999999999833e-01 -8.5467549820317323e-01 1.3974903495609317e-01
vn 8.6602540378442594e-01 -4.9344712895684051e-01 8.0684142954321220e-02
vn 8.6602540378443837e-01 -4.9344712895681908e-01 8.0684142954317722e-02
vn 1.0000000000000000e+00 9.3588390255509495e-13 5.9412794378287065e-12
vn 1.0000000000000000e+00 9.7750409876233582e-13 5.9344740686953378e-12
vn 1.3814574971782341e-26 -9.8689425791531793e-01 1.6136828589835822e-01
vn 1.8576566356916871e-12 -7.7399135525448171e-01 6.3319616391078259e-01
vn 3.6222676276909600e-15 -9.8689425791531749e-01 1.6136828589836075e-01
vn 2.5000000000020522e-01 -7.8480098072711391e-01 5.6708678405483726e-01
vn 1.4946903593817695e-15 -9.8689425791531815e-01 1.6136828589835533e-01
vn 4.3301270189152696e-01 -8.1433342672887521e-01 3.8647259943313861e-01
vn -6.1232339957384695e-17 -9.8689425791531837e-01 1.6136828589835453e-01
vn 5.0000000000000455e-01 -8.5467549820316968e-01 1.3974903495609270e-01
vn 7.4999999999879974e-01 -4.2357261148076097e-01 5.0802189205305759e-01
vn 8.6602540378444071e-01 -4.9344712895681542e-01 8.0684142954315877e-02
vn 8.6602540378305193e-01 8.0684142949564747e-02 4.9344712896002962e-01
vn 1.0000000000000000e+00 9.7037049946066221e-13 5.9353393593792164e-12
vn 3.2169606037002584e-12 -3.5369809400453844e-01 9.3535964115283310e-01
vn 4.3301270189257468e-01 -3.7242091453392634e-01 8.2085483638546364e-01
vn 3.7153132713833920e-12 1.6136828589835442e-01 9.8689425791531837e-01
vn 5.0000000000041023e-01 1.3974903495308688e-01 8.5467549820342381e-01
vn 3.0250000159842505e-26 -9.8689425791531704e-01 1.6136828589836261e-01
vn 4.1182456357961025e-26 -9.8689425791531660e-01 1.6136828589836547e-01
vn 1.8577689366370421e-12 -7.7399135525448159e-01 6.3319616391078259e-01
vn 1.8577689366370530e-12 -7.7399135525447960e-01 6.3319616391078515e-01
vn 3.2177501869785581e-12 -3.5369809400454316e-01 9.3535964115283132e-01
vn 3.2177501869785828e-12 -3.5369809400453062e-01 9.3535964115283610e-01
vn 3.7155378732740995e-12 1.6136828589834284e-01 9.8689425791532026e-01
vn 3.7155378732740995e-12 1.6136828589835153e-01 9.8689425791531893e-01
vn 9.4941075965749281e-16 -9.8689425791531837e-01 1.6136828589835453e-01
vn -5.0000000000000211e-01 -8.5467549820365607e-01 1.3974903495312649e-01
vn 4.6725905829321924e-15 -9.8689425791531882e-01 1.6136828589835187e-01
vn -4.3301270189190527e-01 -8.1433342672898501e-01 3.8647259943248324e-01
vn 3.6761303433443466e-15 -9.8689425791531937e-01 1.6136828589834826e-01
vn -2.4999999999892500e-01 -7.8480098072699811e-01 5.6708678405556190e-01
vn 5.7609716903603114e-26 -9.8689425791531593e-01 1.6136828589836980e-01
vn 1.8576566356917287e-12 -7.7399135525447504e-01 6.3319616391079081e-01
vn -4.3301270189036067e-01 -3.7242091453372250e-01 8.2085483638672396e-01
vn 3.2178703776267025e-12 -3.5369809400452273e-01 9.3535964115283898e-01
vn -4.9999999999785461e-01 1.3974903495332494e-01 8.5467549820487987e-01
vn 3.7153132713833936e-12 1.6136828589835442e-01 9.8689425791531837e-01
vn -8.6602540378443704e-01 -4.9344712895766152e-01 8.0684142949178653e-02
vn -7.4999999999946176e-01 -4.2357261148094871e-01 5.0802189205192394e-01
vn -1.0000000000000000e+00 -1.1097873166482397e-16 8.0191760183576357e-17
vn -8.6602540378381876e-01 8.0684142949350446e-02 4.9344712895871895e-01
vn 1.4015074449228797e-14 -9.8689425791531826e-01 1.6136828589835453e-01
vn 9.6423055654071694e-14 -9.8689425791531826e-01 1.6136828589835453e-01
vn -4.9999999999999684e-01 -8.5467549820365929e-01 1.3974903495312541e-01
vn -4.9999999999997047e-01 -8.5467549820367439e-01 1.3974903495312785e-01
vn -8.6602540378443826e-01 -4.9344712895765969e-01 8.0684142949177140e-02
vn -8.6602540378445558e-01 -4.9344712895763038e-01 8.0684142949172366e-02
vn -1.0000000000000000e+00 1.0129955203120332e-14 -1.8848118235680956e-15
vn -1.0000000000000000e+00 9.4100526498430597e-14 -1.5614942531241621e-14
vn -5.9799627087239252e-33 -9.8689425791531837e-01 1.6136828589835456e-01
vn 6.1232339957367488e-17 -9.3535964115283532e-01 -3.5369809400453250e-01
vn -5.3997372442530696e-15 -9.8689425791531982e-01 1.6136828589834529e-01
vn -2.4999999999999920e-01 -9.2455001568022066e-01 -2.8758871414870241e-01
vn 2.3699594887494697e-15 -9.8689425791531815e-01 1.6136828589835586e-01
vn -4.3301270189221741e-01 -8.9501756967824697e-01 -1.0697452952570495e-01
vn -8.2694607974275736e-16 -9.8689425791531837e-01 1.6136828589835453e-01
vn -5.0000000000001443e-01 -8.5467549820364941e-01 1.3974903495312288e-01
vn -7.4999999999999822e-01 -5.6332164643422289e-01 -3.4665360615265345e-01
vn -8.6602540378445092e-01 -4.9344712895763881e-01 8.0684142949169882e-02
vn -8.6602540378443704e-01 -8.0684142949177806e-02 -4.9344712895766180e-01
vn -1.0000000000000000e+00 -4.3715022094452404e-16 -1.9146039834397140e-15
vn 1.0605752387249026e-16 -6.3319616391078981e-01 -7.7399135525447582e-01
vn -4.3301270189221819e-01 -6.1447334338142579e-01 -6.5948655048731153e-01
vn 1.2246467991473535e-16 -1.6136828589835467e-01 -9.8689425791531837e-01
vn -4.9999999999999822e-01 -1.3974903495312552e-01 -8.5467549820365862e-01
vn -2.6192647243666408e-32 -1.6136828589839122e-01 -9.8689425791531238e-01
vn -2.2683497905379154e-32 -6.3319616391080880e-01 -7.7399135525446039e-01
vn -2.2683497905378935e-32 -6.3319616391082145e-01 -7.7399135525444995e-01
vn -1.3096323621832886e-32 -9.3535964115283965e-01 -3.5369809400452085e-01
vn -1.3096323621832388e-32 -9.3535964115284753e-01 -3.5369809400450025e-01
vn -2.1720896927803525e-46 -9.8689425791531971e-01 1.6136828589834637e-01
vn 5.3367236822616599e-46 -9.8689425791531504e-01 1.6136828589837462e-01
vn -1.0000000000000000e+00 -3.6381522265059019e-17 -2.2250168437819061e-16
vn -1.0000000000000000e+00 1.9837513263260611e-16 1.2132202943001352e-15
vn -1.0000000000000000e+00 -3.0858353965072062e-16 -1.8872315689113213e-15
vn -8.6602540378443960e-01 -8.0684142949176418e-02 -4.9344712895765747e-01
vn -8.6602540378443693e-01 -8.0684142949177237e-02 -4.9344712895766241e-01
vn -5.0000000000000167e-01 -1.3974903495312413e-01 -8.5467549820365674e-01
vn -4.9999999999999817e-01 -1.3974903495312443e-01 -8.5467549820365873e-01
vn -9.8984522641350002e-17 -1.6136828589835345e-01 -9.8689425791531860e-01
vn 2.5179716554150739e-16 -1.6136828589835345e-01 -9.8689425791531860e-01
vn -2.6192647243666408e-32 -1.6136828589835345e-01 -9.8689425791531860e-01
vn -5.7859413684510111e-17 -1.6136828589835345e-01 -9.8689425791531860e-01
vn -2.6832842659422454e-16 -1.6136828589835345e-01 -9.8689425791531860e-01
vn 5.0000000000173717e-01 -1.3974903495296245e-01 -8.5467549820266786e-01
vn 5.0000000000173594e-01 -1.3974903495296254e-01 -8.5467549820266842e-01
vn 8.6602540378644455e-01 -8.0684142948616103e-02 -4.9344712895423065e-01
vn 8.6602540378644322e-01 -8.0684142948616477e-02 -4.9344712895423298e-01
vn 1.0000000000000000e+00 9.7061646144923620e-13 5.9360846966281777e-12
vn 1.0000000000000000e+00 9.7034094043169088e-13 5.9343996684416477e-12
vn 0.0000000000000000e+00 -9.8689425791531837e-01 1.6136828589835453e-01
vn 0.0000000000000000e+00 -1.6136828589835375e-01 -9.8689425791531848e-01
vn -0.0000000000000000e+00 3.5369809400453650e-01 -9.3535964115283388e-01
vn -5.0000000000000122e-01 -1.3974903495312446e-01 -8.5467549820365685e-01
vn -4.3301270189221852e-01 3.7242091453389775e-01 -8.2085483638566448e-01
vn -8.6602540378443926e-01 -8.0684142949176765e-02 -4.9344712895765830e-01
vn -7.4999999999999833e-01 4.2357261148110070e-01 -5.0802189205100501e-01
vn -1.0000000000000000e+00 -1.3074064714575542e-16 -4.0667929221713498e-17
vn -8.6602540378443837e-01 4.9344712895765969e-01 -8.0684142949177737e-02
vn -4.3301270189221275e-01 8.1433342672907394e-01 -3.8647259943195150e-01
vn -5.0000000000000278e-01 8.5467549820365585e-01 -1.3974903495312563e-01
vn 3.6895960222576960e-15 9.8689425791531882e-01 -1.6136828589835153e-01
vn -1.8369701987210287e-16 9.8689425791531848e-01 -1.6136828589835364e-01
vn -0.0000000000000000e+00 7.7399135525448459e-01 -6.3319616391077926e-01
vn -2.4999999999999595e-01 7.8480098072710069e-01 -5.6708678405494772e-01
vn -0.0000000000000000e+00 9.8689425791532026e-01 -1.6136828589834243e-01
vn 6.1268839055739026e-15 9.8689425791532026e-01 -1.6136828589834318e-01
vn -2.1223863146958800e-14 9.8689425791531848e-01 -1.6136828589835361e-01
vn 5.1668494116189532e-14 9.8689425791531848e-01 -1.6136828589835361e-01
vn -5.0000000000001010e-01 8.5467549820365185e-01 -1.3974903495312360e-01
vn -4.9999999999998612e-01 8.5467549820366551e-01 -1.3974903495312585e-01
vn -8.6602540378443549e-01 4.9344712895766452e-01 -8.0684142949177862e-02
vn -8.6602540378444648e-01 4.9344712895764575e-01 -8.0684142949174809e-02
vn -1.0000000000000000e+00 1.8105755286019370e-14 -3.1889446399491099e-15
vn -1.0000000000000000e+00 -5.0587227118104023e-14 8.0431288419804065e-15
vn 6.1724696682431712e-27 9.8689425791531871e-01 -1.6136828589835195e-01
vn 1.8576863971427843e-12 9.3535964115283277e-01 3.5369809400453917e-01
vn -2.7469984983232542e-15 9.8689425791531915e-01 -1.6136828589834892e-01
vn -2.4999999999892658e-01 9.2455001568032069e-01 2.8758871414931342e-01
vn -5.5074626755598594e-15 9.8689425791531893e-01 -1.6136828589835045e-01
vn -4.3301270189190855e-01 8.9501756967833335e-01 1.0697452952623214e-01
vn 3.6139460187578677e-15 9.8689425791531860e-01 -1.6136828589835361e-01
vn -5.0000000000000033e-01 8.5467549820365740e-01 -1.3974903495312563e-01
vn -7.4999999999946432e-01 5.6332164643437210e-01 3.4665360615356638e-01
vn -8.6602540378443638e-01 4.9344712895766291e-01 -8.0684142949178014e-02
vn -8.6602540378382065e-01 8.0684142949349655e-02 4.9344712895871562e-01
vn -1.0000000000000000e+00 1.5050256262668678e-16 1.6152761862700322e-16
vn 3.2179918169181315e-12 6.3319616391078237e-01 7.7399135525448193e-01
vn -4.3301270189036128e-01 6.1447334338159842e-01 6.5948655048836990e-01
vn 3.7153727942855388e-12 1.6136828589835375e-01 9.8689425791531848e-01
vn -4.9999999999785449e-01 1.3974903495332447e-01 8.5467549820488020e-01
vn -7.2175438977869843e-27 9.8689425791531815e-01 -1.6136828589835553e-01
vn 3.0886842268470770e-26 9.8689425791531982e-01 -1.6136828589834540e-01
vn 1.8577689366370489e-12 9.3535964115283454e-01 3.5369809400453461e-01
vn 1.8577689366370691e-12 9.3535964115283232e-01 3.5369809400454050e-01
vn 3.2177501869785715e-12 6.3319616391078604e-01 7.7399135525447904e-01
vn 3.2177501869785727e-12 6.3319616391078526e-01 7.7399135525447949e-01
vn 3.7155378732740995e-12 1.6136828589835805e-01 9.8689425791531782e-01
vn 3.7155378732740995e-12 1.6136828589835572e-01 9.8689425791531815e-01
vn 8.2694607974290054e-16 9.8689425791531848e-01 -1.6136828589835364e-01
vn 5.0000000000000100e-01 8.5467549820414224e-01 -1.3974903495015742e-01
vn 1.4946903593817695e-15 9.8689425791531848e-01 -1.6136828589835278e-01
vn 4.3301270189152663e-01 8.9501756967843960e-01 1.0697452952688984e-01
vn 3.6357333066043078e-15 9.8689425791531937e-01 -1.6136828589834740e-01
vn 2.5000000000020506e-01 9.2455001568020057e-01 2.8758871414858783e-01
vn 3.4085787439726401e-31 9.8689425791531893e-01 -1.6136828589835087e-01
vn 6.1232339957368252e-17 9.3535964115283243e-01 3.5369809400454005e-01
vn 4.3301270189257463e-01 6.1447334338139126e-01 6.5948655048710958e-01
vn 1.0605752387249083e-16 6.3319616391078193e-01 7.7399135525448226e-01
vn 5.0000000000041045e-01 1.3974903495308635e-01 8.5467549820342392e-01
vn 1.2246467991473535e-16 1.6136828589835375e-01 9.8689425791531848e-01
vn 8.6602540378443649e-01 4.9344712895850357e-01 -8.0684142944036252e-02
vn 7.4999999999879996e-01 5.6332164643455684e-01 3.4665360615470331e-01
vn 1.0000000000000000e+00 9.7066411883856627e-13 5.9356172449500552e-12
vn 8.6602540378305326e-01 8.0684142949564164e-02 4.9344712896002746e-01
vn 1.5272166236253840e-13 9.8689425791531860e-01 -1.6136828589835361e-01
vn 4.0384346656196255e-14 9.8689425791531860e-01 -1.6136828589835361e-01
vn 5.0000000000004430e-01 8.5467549820411770e-01 -1.3974903495015248e-01
vn 5.0000000000001021e-01 8.5467549820413713e-01 -1.3974903495015567e-01
vn 8.6602540378440440e-01 4.9344712895855825e-01 -8.0684142944045967e-02
vn 8.6602540378443371e-01 4.9344712895850812e-01 -8.0684142944037779e-02
vn 1.0000000000000000e+00 1.1310101665550584e-12 5.9093741039969580e-12
vn 1.0000000000000000e+00 1.0081154441509521e-12 5.9294687702099274e-12
vn -0.0000000000000000e+00 9.8689425791532004e-01 -1.6136828589834371e-01
vn -0.0000000000000000e+00 7.7399135525448470e-01 -6.3319616391077893e-01
vn -1.7909352954754507e-15 9.8689425791531893e-01 -1.6136828589835053e-01
vn 2.5000000000086536e-01 7.8480098072718063e-01 -5.6708678405445390e-01
vn -2.3699594887494693e-15 9.8689425791531882e-01 -1.6136828589835228e-01
vn 4.3301270189321678e-01 8.1433342672935349e-01 -3.8647259943023760e-01
vn 1.7151244994429898e-15 9.8689425791531848e-01 -1.6136828589835364e-01
vn 5.0000000000000056e-01 8.5467549820414279e-01 -1.3974903495015559e-01
vn 7.5000000000173539e-01 4.2357261148158554e-01 -5.0802189204803616e-01
vn 8.6602540378444326e-01 4.9344712895849191e-01 -8.0684142944034143e-02
vn 8.6602540378644444e-01 -8.0684142948616089e-02 -4.9344712895423076e-01
vn 1.0000000000000000e+00 9.7073578075314551e-13 5.9360555140412579e-12
vn -0.0000000000000000e+00 3.5369809400453439e-01 -9.3535964115283465e-01
vn 4.3301270189372271e-01 3.7242091453403731e-01 -8.2085483638480761e-01
vn 0.0000000000000000e+00 -1.6136828589835353e-01 -9.8689425791531860e-01
vn 5.0000000000173683e-01 -1.3974903495296248e-01 -8.5467549820266797e-01
vn -2.6192647243666408e-32 -1.6136828589834631e-01 -9.8689425791531971e-01
vn -2.2683497905379392e-32 3.5369809400454705e-01 -9.3535964115282977e-01
vn -2.2683497905379479e-32 3.5369809400454072e-01 -9.3535964115283221e-01
vn -1.3096323621832774e-32 7.7399135525449281e-01 -6.3319616391076905e-01
vn -1.3096323621832982e-32 7.7399135525448692e-01 -6.3319616391077616e-01
vn 5.9912275300862037e-46 9.8689425791532215e-01 -1.6136828589833108e-01
vn 2.2583978924934788e-46 9.8689425791531993e-01 -1.6136828589834512e-01
vn 1.0000000000000000e+00 9.7053931559134281e-13 5.9356128889011935e-12
vn 0.0000000000000000e+00 9.8689425791531848e-01 -1.6136828589835361e-01
vn 1.0000000000000000e+00 9.7056135724572738e-13 5.9357476909908725e-12
vn 1.0000000000000000e+00 9.7023073202467304e-13 5.9337256571670389e-12
vn 8.6602540378305326e-01 8.0684142949563956e-02 4.9344712896002746e-01
vn 8.6602540378305248e-01 8.0684142949564122e-02 4.9344712896002851e-01
vn 5.0000000000041034e-01 1.3974903495308602e-01 8.5467549820342381e-01
vn 5.0000000000041112e-01 1.3974903495308594e-01 8.5467549820342326e-01
vn 3.7153533843418093e-12 1.6136828589835345e-01 9.8689425791531860e-01
vn 3.7154413480237489e-12 1.6136828589835345e-01 9.8689425791531860e-01
vn 3.7159970883044908e-12 1.6136828589835345e-01 9.8689425791531860e-01
vn -4.9999999999785422e-01 1.3974903495332419e-01 8.5467549820488031e-01
vn -4.9999999999785499e-01 1.3974903495332414e-01 8.5467549820487998e-01
vn -8.6602540378382020e-01 8.0684142949349585e-02 4.9344712895871651e-01
vn -8.6602540378381920e-01 8.0684142949349863e-02 4.9344712895871817e-01
vn -1.0000000000000000e+00 9.9187566316303042e-17 6.0661014715006750e-16
vn -1.0000000000000000e+00 -2.6450017684347483e-16 -1.6176270590668469e-15
vn 3.7155378732740995e-12 1.6136828589835345e-01 9.8689425791531860e-01
vn 5.7227154179438349e-16 -1.6136828589835492e-01 -9.8689425791531837e-01
vn -3.8268343236508845e-01 -1.4908485653791986e-01 -9.1177140564087800e-01
vn -3.8268343236508873e-01 -1.4908485653791986e-01 -9.1177140564087800e-01
vn -7.0710678118654791e-01 -1.1410460922717622e-01 -6.9783962208598671e-01
vn -7.0710678118654835e-01 -1.1410460922717615e-01 -6.9783962208598627e-01
vn -9.2387953251128685e-01 -6.1752969522453502e-02 -3.7766808200043173e-01
vn -9.2387953251128729e-01 -6.1752969522453363e-02 -3.7766808200043089e-01
vn -1.0000000000000000e+00 1.7633345122898484e-16 1.0784180393778976e-15
vn -1.0000000000000000e+00 2.2923348659768023e-16 1.4019434511912666e-15
vn -0.0000000000000000e+00 -1.6136828589835492e-01 -9.8689425791531837e-01
vn 1.0000000000000000e+00 -0.0000000000000000e+00 -0.0000000000000000e+00
vn 1.0000000000000000e+00 -2.4686683172057879e-16 -1.5097852551290566e-15
vn 9.2387953251128674e-01 -6.1752969522453537e-02 -3.7766808200043189e-01
vn 9.2387953251128652e-01 -6.1752969522453675e-02 -3.7766808200043273e-01
vn 7.0710678118654779e-01 -1.1410460922717627e-01 -6.9783962208598704e-01
vn 7.0710678118654735e-01 -1.1410460922717634e-01 -6.9783962208598749e-01
vn 3.8268343236509028e-01 -1.4908485653791978e-01 -9.1177140564087733e-01
vn 3.8268343236508950e-01 -1.4908485653791984e-01 -9.1177140564087766e-01
vn 6.8452168201289784e-16 -1.6136828589835492e-01 -9.8689425791531837e-01
vn 4.6002140157586914e-16 -1.6136828589835492e-01 -9.8689425791531837e-01
vn 0.0000000000000000e+00 4.9659903286436624e-01 8.6798006921713122e-01
vn 0.0000000000000000e+00 7.3317247234359362e-01 6.8004273821399075e-01
vn 0.0000000000000000e+00 4.9659903286436802e-01 8.6798006921713022e-01
vn 0.0000000000000000e+00 9.0281647913173635e-01 4.3002605154592100e-01
vn 0.0000000000000000e+00 9.9004468738437212e-01 1.4075339065891354e-01
vn -0.0000000000000000e+00 9.8689425791531815e-01 -1.6136828589835545e-01
vn 0.0000000000000000e+00 -9.8689425791532048e-01 1.6136828589834165e-01
vn -0.0000000000000000e+00 -9.6972188306025431e-01 -2.4421193565031676e-01
vn -0.0000000000000000e+00 -7.9274883878060753e-01 -6.0954842187639069e-01
vn -0.0000000000000000e+00 -4.8513854960047759e-01 -8.7443729774726831e-01
vn -0.0000000000000000e+00 -4.8513854960047537e-01 -8.7443729774726953e-01

g face 0
f 1//1 2//2 13//3
f 13//3 2//2 12//4
f 12//4 2//2 9//5
f 12//4 9//5 11//6
f 11//6 9//5 10//7
f 9//5 2//2 8//8
f 8//8 2//2 3//8
f 8//8 3//8 7//9
f 7//9 3//8 4//9
f 7//9 4//9 6//10
f 6//10 4//9 5//11

g face 1
f 23//12 14//13 22//14
f 22//14 14//13 15//15
f 22//14 15//15 21//16
f 21//16 15//15 16//17
f 21//16 16//17 20//18
f 20//18 16//17 17//19
f 20//18 17//19 19//20
f 19//20 17//19 18//20

g face 2
f 6//21 5//21 23//21
f 23//21 5//21 14//21

g face 3
f 4//22 24//22 5//22
f 5//22 24//22 25//22
f 5//22 25//22 26//22
f 4//22 3//22 24//22
f 24//22 3//22 1//22
f 1//22 3//22 2//22
f 5//22 26//22 34//22
f 34//22 26//22 27//22
f 34//22 27//22 33//22
f 33//22 27//22 28//22
f 33//22 28//22 32//22
f 32//22 28//22 29//22
f 32//22 29//22 31//22
f 31//22 29//22 30//22
f 5//22 34//22 14//22
f 14//22 34//22 18//22
f 14//22 18//22 15//22
f 15//22 18//22 16//22
f 16//22 18//22 17//22

g face 4
f 19//23 18//24 38//25
f 38//25 18//24 34//26
f 38//25 34//26 33//27
f 38//25 33//27 37//27
f 37//27 33//27 32//28
f 37//27 32//28 36//29
f 36//29 32//28 35//30
f 35//30 32//28 31//30

g face 5
f 42//31 30//31 41//32
f 41//32 30//31 29//32
f 41//32 29//32 40//33
f 40//33 29//32 28//34
f 40//33 28//34 39//35
f 39//35 28//34 27//36

g face 6
f 43//37 30//37 44//37
f 44//37 30//37 42//37

g face 7
f 1//38 13//39 24//40
f 24//40 13//39 25//41
f 25//41 13//39 12//38
f 25//41 12//38 39//42
f 39//42 12//38 11//38
f 39//42 11//38 10//43
f 27//42 26//44 39//42
f 39//42 26//44 25//41

g face 8
f 43//45 44//45 53//45
f 53//45 44//45 52//45
f 52//45 44//45 45//45
f 52//45 45//45 51//45
f 51//45 45//45 46//45
f 51//45 46//45 48//45
f 48//45 46//45 47//45
f 48//45 49//45 51//45
f 51//45 49//45 50//45

g face 9
f 9//46 8//46 10//46
f 10//46 8//46 7//46
f 10//46 7//46 6//46
f 10//46 6//46 39//46
f 39//46 6//46 23//46
f 39//46 23//46 38//46
f 38//46 23//46 19//46
f 19//46 23//46 22//46
f 19//46 22//46 21//46
f 21//46 20//46 19//46
f 38//46 37//46 39//46
f 39//46 37//46 40//46
f 40//46 37//46 36//46
f 40//46 36//46 41//46
f 41//46 36//46 35//46
f 41//46 35//46 42//46

g face 10
f 54//47 55//48 65//49
f 65//49 55//48 67//50
f 65//49 67//50 64//51
f 64//51 67//50 69//52
f 64//51 69//52 63//53
f 63//53 69//52 62//54
f 62//54 69//52 68//55
f 62//54 68//55 61//56
f 61//56 68//55 59//57
f 61//56 59//57 60//58
f 55//48 56//59 67//50
f 67//50 56//59 66//60
f 67//50 66//60 69//52
f 69//52 66//60 68//55
f 56//59 57//61 66//60
f 66//60 57//61 58//62
f 66//60 58//62 68//55
f 68//55 58//62 59//57

g face 11
f 60//63 70//64 61//65
f 61//65 70//64 71//66
f 61//65 71//66 62//67
f 62//67 71//66 72//68
f 62//67 72//68 63//69
f 63//69 72//68 73//70

g face 12
f 74//71 75//72 81//73
f 81//73 75//72 83//74
f 81//73 83//74 80//75
f 80//75 83//74 85//76
f 80//75 85//76 70//77
f 70//77 85//76 71//78
f 71//78 85//76 84//79
f 71//78 84//79 72//80
f 72//80 84//79 79//81
f 72//80 79//81 73//82
f 75//72 76//83 83//74
f 83//74 76//83 82//84
f 83//74 82//84 85//76
f 85//76 82//84 84//79
f 76//83 77//85 82//84
f 82//84 77//85 78//86
f 82//84 78//86 84//79
f 84//79 78//86 79//81

g face 13
f 74//87 86//88 75//89
f 75//89 86//88 87//90
f 75//89 87//90 76//91
f 76//91 87//90 88//92
f 76//91 88//92 77//93
f 77//93 88//92 89//94

g face 14
f 90//95 91//96 97//97
f 97//97 91//96 99//98
f 97//97 99//98 96//99
f 96//99 99//98 101//100
f 96//99 101//100 86//101
f 86//101 101//100 87//102
f 87//102 101//100 100//103
f 87//102 100//103 88//104
f 88//104 100//103 95//105
f 88//104 95//105 89//106
f 91//96 92//107 99//98
f 99//98 92//107 98//108
f 99//98 98//108 101//100
f 101//100 98//108 100//103
f 92//107 93//109 98//108
f 98//108 93//109 94//110
f 98//108 94//110 100//103
f 100//103 94//110 95//105

g face 15
f 90//111 102//112 91//113
f 91//113 102//112 103//114
f 91//113 103//114 92//115
f 92//115 103//114 104//116
f 92//115 104//116 93//117
f 93//117 104//116 105//118

g face 16
f 106//119 107//120 113//121
f 113//121 107//120 115//122
f 113//121 115//122 112//123
f 112//123 115//122 117//124
f 112//123 117//124 102//125
f 102//125 117//124 103//126
f 103//126 117//124 116//127
f 103//126 116//127 104//128
f 104//128 116//127 111//129
f 104//128 111//129 105//130
f 107//120 108//131 115//122
f 115//122 108//131 114//132
f 115//122 114//132 117//124
f 117//124 114//132 116//127
f 108//131 109//133 114//132
f 114//132 109//133 110//134
f 114//132 110//134 116//127
f 116//127 110//134 111//129

g face 17
f 54//135 109//135 55//136
f 55//136 109//135 108//137
f 55//136 108//137 56//138
f 56//138 108//137 107//139
f 56//138 107//139 57//140
f 57//140 107//139 106//141

g face 18
f 93//142 105//142 119//142
f 119//142 105//142 118//142

g face 19
f 118//143 105//144 122//145
f 122//145 105//144 111//146
f 122//145 111//146 121//147
f 121//147 111//146 110//148
f 121//147 110//148 120//149
f 120//149 110//148 109//150

g face 20
f 109//151 54//151 120//151
f 120//151 54//151 123//151

g face 21
f 123//152 54//153 126//154
f 126//154 54//153 65//155
f 126//154 65//155 125//156
f 125//156 65//155 64//157
f 125//156 64//157 124//158
f 124//158 64//157 63//159

g face 22
f 127//160 70//160 50//160
f 50//160 70//160 60//160
f 50//160 60//160 51//160
f 51//160 60//160 59//160
f 51//160 59//160 58//160
f 127//160 128//160 70//160
f 70//160 128//160 130//160
f 70//160 130//160 80//160
f 80//160 130//160 81//160
f 81//160 130//160 74//160
f 74//160 130//160 131//160
f 74//160 131//160 86//160
f 86//160 131//160 96//160
f 96//160 131//160 97//160
f 97//160 131//160 90//160
f 90//160 131//160 133//160
f 90//160 133//160 134//160
f 128//160 129//160 130//160
f 131//160 132//160 133//160
f 134//160 135//160 90//160
f 90//160 135//160 102//160
f 102//160 135//160 136//160
f 102//160 136//160 112//160
f 112//160 136//160 113//160
f 113//160 136//160 106//160
f 106//160 136//160 57//160
f 57//160 136//160 51//160
f 57//160 51//160 58//160

g face 23
f 120//161 137//162 121//163
f 121//163 137//162 146//164
f 121//163 146//164 122//165
f 122//165 146//164 148//166
f 122//165 148//166 118//167
f 118//167 148//166 144//168
f 144//168 148//166 147//169
f 144//168 147//169 143//170
f 143//170 147//169 141//171
f 143//170 141//171 142//172
f 137//162 138//173 146//164
f 146//164 138//173 145//174
f 146//164 145//174 148//166
f 148//166 145//174 147//169
f 138//173 139//175 145//174
f 145//174 139//175 140//176
f 145//174 140//176 147//169
f 147//169 140//176 141//171

g face 24
f 142//177 149//178 143//179
f 143//179 149//178 150//180
f 143//179 150//180 144//181
f 144//181 150//180 151//182
f 144//181 151//182 118//183
f 118//183 151//182 119//184

g face 25
f 152//185 153//186 159//187
f 159//187 153//186 161//188
f 159//187 161//188 158//189
f 158//189 161//188 163//190
f 158//189 163//190 149//191
f 149//191 163//190 150//192
f 150//192 163//190 162//193
f 150//192 162//193 151//194
f 151//194 162//193 157//195
f 151//194 157//195 119//196
f 153//186 154//197 161//188
f 161//188 154//197 160//198
f 161//188 160//198 163//190
f 163//190 160//198 162//193
f 154//197 155//199 160//198
f 160//198 155//199 156//200
f 160//198 156//200 162//193
f 162//193 156//200 157//195

g face 26
f 152//201 164//202 153//203
f 153//203 164//202 165//204
f 153//203 165//204 154//205
f 154//205 165//204 166//206
f 154//205 166//206 155//207
f 155//207 166//206 167//208

g face 27
f 168//209 169//210 175//211
f 175//211 169//210 177//212
f 175//211 177//212 174//213
f 174//213 177//212 179//214
f 174//213 179//214 164//215
f 164//215 179//214 165//216
f 165//216 179//214 178//217
f 165//216 178//217 166//218
f 166//218 178//217 173//219
f 166//218 173//219 167//220
f 169//210 170//221 177//212
f 177//212 170//221 176//222
f 177//212 176//222 179//214
f 179//214 176//222 178//217
f 170//221 171//223 176//222
f 176//222 171//223 172//224
f 176//222 172//224 178//217
f 178//217 172//224 173//219

g face 28
f 168//225 180//226 169//227
f 169//227 180//226 181//228
f 169//227 181//228 170//229
f 170//229 181//228 182//230
f 170//229 182//230 171//231
f 171//231 182//230 124//232

g face 29
f 183//233 184//234 187//235
f 187//235 184//234 189//236
f 187//235 189//236 186//237
f 186//237 189//236 191//238
f 186//237 191//238 180//239
f 180//239 191//238 181//240
f 181//240 191//238 190//241
f 181//240 190//241 182//242
f 182//242 190//241 125//243
f 182//242 125//243 124//244
f 184//234 185//245 189//236
f 189//236 185//245 188//246
f 189//236 188//246 191//238
f 191//238 188//246 190//241
f 185//245 123//247 188//246
f 188//246 123//247 126//248
f 188//246 126//248 190//241
f 190//241 126//248 125//243

g face 30
f 120//249 123//249 137//250
f 137//250 123//249 185//251
f 137//250 185//251 138//252
f 138//252 185//251 184//253
f 138//252 184//253 139//254
f 139//254 184//253 183//255

g face 31
f 63//256 73//256 124//256
f 124//256 73//256 171//256

g face 32
f 193//257 194//257 192//257
f 192//257 194//257 168//257
f 192//257 168//257 175//257
f 194//257 195//257 168//257
f 168//257 195//257 49//257
f 168//257 49//257 180//257
f 180//257 49//257 48//257
f 180//257 48//257 186//257
f 186//257 48//257 187//257
f 187//257 48//257 183//257
f 183//257 48//257 196//257
f 183//257 196//257 139//257
f 139//257 196//257 140//257
f 140//257 196//257 141//257
f 141//257 196//257 142//257
f 142//257 196//257 197//257
f 142//257 197//257 149//257
f 149//257 197//257 198//257
f 149//257 198//257 199//257
f 200//257 201//257 199//257
f 199//257 201//257 149//257
f 192//257 164//257 201//257
f 201//257 164//257 152//257
f 201//257 152//257 159//257
f 175//257 174//257 192//257
f 192//257 174//257 164//257
f 159//257 158//257 201//257
f 201//257 158//257 149//257

g face 33
f 171//258 73//259 172//260
f 172//260 73//259 79//261
f 172//260 79//261 173//262
f 173//262 79//261 78//263
f 173//262 78//263 167//264
f 167//264 78//263 77//264

g face 34
f 155//265 89//266 156//267
f 156//267 89//266 95//268
f 156//267 95//268 157//269
f 157//269 95//268 94//270
f 157//269 94//270 119//271
f 119//271 94//270 93//272

g face 35
f 77//273 89//273 167//273
f 167//273 89//273 155//273

g face 36
f 192//274 130//274 193//275
f 193//275 130//274 129//276
f 193//275 129//276 194//277
f 194//277 129//276 128//278
f 194//277 128//278 195//279
f 195//279 128//278 127//280
f 195//279 127//280 49//281
f 49//281 127//280 50//282

g face 37
f 130//283 192//283 131//283
f 131//283 192//283 201//283

g face 38
f 197//284 135//285 198//286
f 198//286 135//285 134//287
f 198//286 134//287 199//288
f 199//288 134//287 133//289
f 199//288 133//289 200//290
f 200//290 133//289 132//291
f 200//290 132//291 201//292
f 201//292 132//291 131//293

g face 39
f 35//294 202//295 42//296
f 42//296 202//295 45//295
f 42//296 45//295 44//294
f 45//295 202//295 46//297
f 46//297 202//295 203//297
f 46//297 203//297 47//298
f 47//298 203//297 204//298
f 47//298 204//298 48//299
f 48//299 204//298 196//299

g face 40
f 51//300 136//300 52//301
f 52//301 136//300 205//301
f 52//301 205//301 53//302
f 53//302 205//301 206//302
f 53//302 206//302 30//303
f 30//303 206//302 31//304
f 30//303 43//304 53//302

g face 41
f 31//284 206//284 35//284
f 35//284 206//284 205//284
f 35//284 205//284 202//284
f 202//284 205//284 136//284
f 202//284 136//284 203//284
f 203//284 136//284 196//284
f 203//284 196//284 204//284
f 135//284 197//284 136//284
f 136//284 197//284 196//284

g halfedge 0 edge 0
l 5 4 3 2 1

g halfedge 1 edge 0
l 1 2 3 4 5

g halfedge 2 edge 1
l 6 5

g halfedge 3 edge 1
l 5 6

g halfedge 4 edge 2
l 10 9 8 7 6

g halfedge 5 edge 2
l 6 7 8 9 10

g halfedge 6 edge 3
l 1 13 12 11 10

g halfedge 7 edge 3
l 10 11 12 13 1

g halfedge 8 edge 4
l 18 17 16 15 14

g halfedge 9 edge 4
l 14 15 16 17 18

g halfedge 10 edge 5
l 19 18

g halfedge 11 edge 5
l 18 19

g halfedge 12 edge 6
l 23 22 21 20 19

g halfedge 13 edge 6
l 19 20 21 22 23

g halfedge 14 edge 7
l 14 23

g halfedge 15 edge 7
l 23 14

g halfedge 16 edge 8
l 14 5

g halfedge 17 edge 8
l 5 14

g halfedge 18 edge 9
l 23 6

g halfedge 19 edge 9
l 6 23

g halfedge 20 edge 10
l 1 24 25 26 27

g halfedge 21 edge 10
l 27 26 25 24 1

g halfedge 22 edge 11
l 27 28 29 30

g halfedge 23 edge 11
l 30 29 28 27

g halfedge 24 edge 12
l 31 30

g halfedge 25 edge 12
l 30 31

g halfedge 26 edge 13
l 31 32 33 34 18

g halfedge 27 edge 13
l 18 34 33 32 31

g halfedge 28 edge 14
l 35 31

g halfedge 29 edge 14
l 31 35

g halfedge 30 edge 15
l 19 38 37 36 35

g halfedge 31 edge 15
l 35 36 37 38 19

g halfedge 32 edge 16
l 27 39

g halfedge 33 edge 16
l 39 27

g halfedge 34 edge 17
l 42 41 40 39

g halfedge 35 edge 17
l 39 40 41 42

g halfedge 36 edge 18
l 30 42

g halfedge 37 edge 18
l 42 30

g halfedge 38 edge 19
l 30 43

g halfedge 39 edge 19
l 43 30

g halfedge 40 edge 20
l 44 42

g halfedge 41 edge 20
l 42 44

g halfedge 42 edge 21
l 43 44

g halfedge 43 edge 21
l 44 43

g halfedge 44 edge 22
l 39 10

g halfedge 45 edge 22
l 10 39

g halfedge 46 edge 23
l 48 47 46 45 44

g halfedge 47 edge 23
l 44 45 46 47 48

g halfedge 48 edge 24
l 49 48

g halfedge 49 edge 24
l 48 49

g halfedge 50 edge 25
l 49 50

g halfedge 51 edge 25
l 50 49

g halfedge 52 edge 26
l 51 50

g halfedge 53 edge 26
l 50 51

g halfedge 54 edge 27
l 43 53 52 51

g halfedge 55 edge 27
l 51 52 53 43

g halfedge 56 edge 28
l 35 42

g halfedge 57 edge 28
l 42 35

g halfedge 58 edge 29
l 54 55 56 57

g halfedge 59 edge 29
l 57 56 55 54

g halfedge 60 edge 30
l 60 59 58 57

g halfedge 61 edge 30
l 57 58 59 60

g halfedge 62 edge 31
l 60 61 62 63

g halfedge 63 edge 31
l 63 62 61 60

g halfedge 64 edge 32
l 54 65 64 63

g halfedge 65 edge 32
l 63 64 65 54

g halfedge 66 edge 33
l 70 71 72 73

g halfedge 67 edge 33
l 73 72 71 70

g halfedge 68 edge 34
l 63 73

g halfedge 69 edge 34
l 73 63

g halfedge 70 edge 35
l 70 60

g halfedge 71 edge 35
l 60 70

g halfedge 72 edge 36
l 74 75 76 77

g halfedge 73 edge 36
l 77 76 75 74

g halfedge 74 edge 37
l 73 79 78 77

g halfedge 75 edge 37
l 77 78 79 73

g halfedge 76 edge 38
l 74 81 80 70

g halfedge 77 edge 38
l 70 80 81 74

g halfedge 78 edge 39
l 86 87 88 89

g halfedge 79 edge 39
l 89 88 87 86

g halfedge 80 edge 40
l 77 89

g halfedge 81 edge 40
l 89 77

g halfedge 82 edge 41
l 86 74

g halfedge 83 edge 41
l 74 86

g halfedge 84 edge 42
l 90 91 92 93

g halfedge 85 edge 42
l 93 92 91 90

g halfedge 86 edge 43
l 89 95 94 93

g halfedge 87 edge 43
l 93 94 95 89

g halfedge 88 edge 44
l 90 97 96 86

g halfedge 89 edge 44
l 86 96 97 90

g halfedge 90 edge 45
l 102 103 104 105

g halfedge 91 edge 45
l 105 104 103 102

g halfedge 92 edge 46
l 93 105

g halfedge 93 edge 46
l 105 93

g halfedge 94 edge 47
l 102 90

g halfedge 95 edge 47
l 90 102

g halfedge 96 edge 48
l 106 107 108 109

g halfedge 97 edge 48
l 109 108 107 106

g halfedge 98 edge 49
l 105 111 110 109

g halfedge 99 edge 49
l 109 110 111 105

g halfedge 100 edge 50
l 106 113 112 102

g halfedge 101 edge 50
l 102 112 113 106

g halfedge 102 edge 51
l 57 106

g halfedge 103 edge 51
l 106 57

g halfedge 104 edge 52
l 109 54

g halfedge 105 edge 52
l 54 109

g halfedge 106 edge 53
l 105 118

g halfedge 107 edge 53
l 118 105

g halfedge 108 edge 54
l 118 119

g halfedge 109 edge 54
l 119 118

g halfedge 110 edge 55
l 119 93

g halfedge 111 edge 55
l 93 119

g halfedge 112 edge 56
l 120 109

g halfedge 113 edge 56
l 109 120

g halfedge 114 edge 57
l 120 121 122 118

g halfedge 115 edge 57
l 118 122 121 120

g halfedge 116 edge 58
l 54 123

g halfedge 117 edge 58
l 123 54

g halfedge 118 edge 59
l 123 120

g halfedge 119 edge 59
l 120 123

g halfedge 120 edge 60
l 124 63

g halfedge 121 edge 60
l 63 124

g halfedge 122 edge 61
l 124 125 126 123

g halfedge 123 edge 61
l 123 126 125 124

g halfedge 124 edge 62
l 50 127 128 129 130

g halfedge 125 edge 62
l 130 129 128 127 50

g halfedge 126 edge 63
l 131 130

g halfedge 127 edge 63
l 130 131

g halfedge 128 edge 64
l 131 132 133 134 135

g halfedge 129 edge 64
l 135 134 133 132 131

g halfedge 130 edge 65
l 136 135

g halfedge 131 edge 65
l 135 136

g halfedge 132 edge 66
l 136 51

g halfedge 133 edge 66
l 51 136

g halfedge 134 edge 67
l 120 137 138 139

g halfedge 135 edge 67
l 139 138 137 120

g halfedge 136 edge 68
l 142 141 140 139

g halfedge 137 edge 68
l 139 140 141 142

g halfedge 138 edge 69
l 142 143 144 118

g halfedge 139 edge 69
l 118 144 143 142

g halfedge 140 edge 70
l 149 150 151 119

g halfedge 141 edge 70
l 119 151 150 149

g halfedge 142 edge 71
l 149 142

g halfedge 143 edge 71
l 142 149

g halfedge 144 edge 72
l 152 153 154 155

g halfedge 145 edge 72
l 155 154 153 152

g halfedge 146 edge 73
l 119 157 156 155

g halfedge 147 edge 73
l 155 156 157 119

g halfedge 148 edge 74
l 152 159 158 149

g halfedge 149 edge 74
l 149 158 159 152

g halfedge 150 edge 75
l 164 165 166 167

g halfedge 151 edge 75
l 167 166 165 164

g halfedge 152 edge 76
l 155 167

g halfedge 153 edge 76
l 167 155

g halfedge 154 edge 77
l 164 152

g halfedge 155 edge 77
l 152 164

g halfedge 156 edge 78
l 168 169 170 171

g halfedge 157 edge 78
l 171 170 169 168

g halfedge 158 edge 79
l 167 173 172 171

g halfedge 159 edge 79
l 171 172 173 167

g halfedge 160 edge 80
l 168 175 174 164

g halfedge 161 edge 80
l 164 174 175 168

g halfedge 162 edge 81
l 180 181 182 124

g halfedge 163 edge 81
l 124 182 181 180

g halfedge 164 edge 82
l 171 124

g halfedge 165 edge 82
l 124 171

g halfedge 166 edge 83
l 180 168

g halfedge 167 edge 83
l 168 180

g halfedge 168 edge 84
l 183 184 185 123

g halfedge 169 edge 84
l 123 185 184 183

g halfedge 170 edge 85
l 183 187 186 180

g halfedge 171 edge 85
l 180 186 187 183

g halfedge 172 edge 86
l 139 183

g halfedge 173 edge 86
l 183 139

g halfedge 174 edge 87
l 73 171

g halfedge 175 edge 87
l 171 73

g halfedge 176 edge 88
l 192 193 194 195 49

g halfedge 177 edge 88
l 49 195 194 193 192

g halfedge 178 edge 89
l 48 196

g halfedge 179 edge 89
l 196 48

g halfedge 180 edge 90
l 197 196

g halfedge 181 edge 90
l 196 197

g halfedge 182 edge 91
l 197 198 199 200 201

g halfedge 183 edge 91
l 201 200 199 198 197

g halfedge 184 edge 92
l 201 192

g halfedge 185 edge 92
l 192 201

g halfedge 186 edge 93
l 167 77

g halfedge 187 edge 93
l 77 167

g halfedge 188 edge 94
l 89 155

g halfedge 189 edge 94
l 155 89

g halfedge 190 edge 95
l 130 192

g halfedge 191 edge 95
l 192 130

g halfedge 192 edge 96
l 201 131

g halfedge 193 edge 96
l 131 201

g halfedge 194 edge 97
l 135 197

g halfedge 195 edge 97
l 197 135

g halfedge 196 edge 98
l 196 204 203 202 35

g halfedge 197 edge 98
l 35 202 203 204 196

g halfedge 198 edge 99
l 31 206 205 136

g halfedge 199 edge 99
l 136 205 206 31

g vertex 0
p 1

g vertex 1
p 5

g vertex 2
p 6

g vertex 3
p 10

g vertex 4
p 14

g vertex 5
p 18

g vertex 6
p 19

g vertex 7
p 23

g vertex 8
p 27

g vertex 9
p 30

g vertex 10
p 31

g vertex 11
p 35

g vertex 12
p 39

g vertex 13
p 42

g vertex 14
p 43

g vertex 15
p 44

g vertex 16
p 48

g vertex 17
p 49

g vertex 18
p 50

g vertex 19
p 51

g vertex 20
p 54

g vertex 21
p 57

g vertex 22
p 60

g vertex 23
p 63

g vertex 24
p 70

g vertex 25
p 73

g vertex 26
p 74

g vertex 27
p 77

g vertex 28
p 86

g vertex 29
p 89

g vertex 30
p 90

g vertex 31
p 93

g vertex 32
p 102

g vertex 33
p 105

g vertex 34
p 106

g vertex 35
p 109

g vertex 36
p 118

g vertex 37
p 119

g vertex 38
p 120

g vertex 39
p 123

g vertex 40
p 124

g vertex 41
p 130

g vertex 42
p 131

g vertex 43
p 135

g vertex 44
p 136

g vertex 45
p 139

g vertex 46
p 142

g vertex 47
p 149

g vertex 48
p 152

g vertex 49
p 155

g vertex 50
p 164

g vertex 51
p 167

g vertex 52
p 168

g vertex 53
p 171

g vertex 54
p 180

g vertex 55
p 183

g vertex 56
p 192

g vertex 57
p 196

g vertex 58
p 197

g vertex 59
p 201

# End of file
