# WaveFront *.obj file
# Vertices: 24
# Triangles : 44

v -0.00631317738828169 0.0036624426871752647 -0.005424309890431312
v -0.006349999999999989 0.003657006331143167 -0.0054233513141861145
v -0.006350000000000001 0.004059030793241514 -0.0054942390737588625
v -0.0062793298515772915 0.004059030793241514 -0.0054942390737588625
v -0.0062485834239824935 0.004055789663552486 -0.005493667575146711
v -0.006219292828479094 0.004046047469928781 -0.005491949768151241
v -0.0060464539359077986 0.003969329875438076 -0.00547842238606079
v -0.005873931338510238 0.003897073201857838 -0.005465681584111973
v -0.005701692946184226 0.003829267625661589 -0.00545372563015138
v -0.005529706735690394 0.0037659049813111673 -0.0054425530843734676
v -0.005920523710457452 0.003717868045592923 -0.005434082876535783
v -0.006116597183724724 0.003691082390702161 -0.005429359842882594
v -0.00634999999999999 0.0037226587085923604 -0.0053613959233805445
v -0.006350000000000001 0.0037885421171613186 -0.005299809408563973
v -0.006349999999999999 0.0037899400999521237 -0.005300814061608006
v -0.006299053018502282 0.0037260338008803105 -0.0053661702751042805
v -0.006284928648722873 0.0037896249145853572 -0.00530803065977725
v -0.006317180621763476 0.0037899519808824796 -0.005302724336179853
v -0.006331323497894844 0.003702561648015824 -0.005383199030427164
v -0.005782194377512837 0.0037730829033259927 -0.005401845065748156
v -0.006033958310183591 0.0037809902793131947 -0.005357000108071056
v -0.006293400701093575 0.0039219509999868975 -0.005396585069418368
v -0.006284144123460534 0.003919904052037941 -0.005396050321846479
v -0.006263068564787918 0.0039146421433059065 -0.005395669427248447

vn 8.7419135797256573e-17 -1.7364817766693263e-01 -9.8480775301220769e-01
vn -1.0000000000000000e+00 -0.0000000000000000e+00 -0.0000000000000000e+00
vn 1.2183845605590589e-01 -6.8434171058346904e-01 7.1891015696094085e-01
vn 1.1416348778268701e-01 -6.8326676160907274e-01 7.2118876207102878e-01
vn 1.1802180862000825e-01 -6.8287501214168711e-01 7.2093867317723548e-01
vn 1.0200776058801429e-01 -6.8235815459394356e-01 7.2386584781917029e-01
vn 1.0502778236981097e-01 -6.8099900235475341e-01 7.2471340799126260e-01
vn 8.6578808389004558e-02 -6.7825897439401095e-01 7.2970464819125591e-01
vn 1.2183845610284667e-01 -6.8434171058515469e-01 7.1891015695138083e-01
vn 1.2183845615021385e-01 -6.8434171058685567e-01 7.1891015694173399e-01
vn 1.2183845602056362e-01 -6.8434171058219539e-01 7.1891015696814287e-01
vn 1.1449159658441692e-01 -6.8408615211015511e-01 7.2035950108447433e-01
vn 1.2183845602056366e-01 -6.8434171058219539e-01 7.1891015696814287e-01
vn 1.2183845602056367e-01 -6.8434171058219539e-01 7.1891015696814276e-01
vn 1.1200612801480404e-01 -6.8400342931670854e-01 7.2082864535901581e-01
vn 1.0711034808956481e-01 -6.8384597956081938e-01 7.2172158729709324e-01
vn 1.0214270917032954e-01 -6.8369364006097544e-01 7.2258554753296778e-01
vn 9.2250937390591634e-02 -6.8341242880678932e-01 7.2418037580630579e-01
vn 0.0000000000000000e+00 5.8366803438271397e-01 8.1199238028433440e-01
vn 1.4114796849116418e-01 5.4274869882096932e-01 8.2794993865508693e-01
vn 1.5118843859899997e-01 5.4246828241811806e-01 8.2635961820767434e-01
vn 1.5628281189743376e-01 5.4231843330423890e-01 8.2550978165244482e-01
vn 1.6118835529966064e-01 5.4216930418455600e-01 8.2466402838721231e-01
vn 1.7137427407283040e-01 5.4184444219537919e-01 8.2282164449410833e-01
vn 1.7114609862086888e-01 5.4185194492236555e-01 8.2286419457326343e-01
vn 1.8106007913500496e-01 5.4151639073797919e-01 8.2096117222785747e-01
vn 1.8641816590534038e-01 5.4132685706559425e-01 8.1988627335745456e-01
vn 1.8641769941016698e-01 5.4132722655351317e-01 8.1988613547156786e-01
vn 1.8105974351821399e-01 5.4151628586423195e-01 8.2096131542291706e-01
vn 1.5616818168490862e-01 5.4913368622857073e-01 8.2101382063778372e-01
vn 9.0758670540429479e-02 5.6507748764043253e-01 8.2003066813608283e-01
vn 9.2347167091106047e-02 5.6506760984782234e-01 8.1986010820817268e-01
vn 6.4308210576028757e-02 5.7126799210363333e-01 8.1824038964743873e-01
vn 9.4557222104858618e-02 5.6489964742360399e-01 8.1972392919110293e-01
vn 1.0427347747537950e-03 5.8349104609603475e-01 8.1211890251978780e-01
vn -1.1350588987671145e-14 5.8366803438271664e-01 8.1199238028433240e-01
vn -1.4641244640182383e-14 5.8366803438271631e-01 8.1199238028433263e-01

g face 0
f 2//1 3//1 1//1
f 1//1 3//1 6//1
f 1//1 6//1 7//1
f 3//1 4//1 6//1
f 6//1 4//1 5//1
f 1//1 7//1 12//1
f 12//1 7//1 8//1
f 12//1 8//1 11//1
f 11//1 8//1 9//1
f 11//1 9//1 10//1

g face 1
f 2//2 13//2 3//2
f 3//2 13//2 15//2
f 15//2 13//2 14//2

g face 2
f 1//3 19//4 2//5
f 2//5 19//4 18//6
f 2//5 18//6 13//7
f 13//7 18//6 14//8
f 1//3 16//9 19//4
f 19//4 16//9 17//10
f 19//4 17//10 18//6

g face 3
f 1//11 12//12 16//13
f 16//13 12//12 17//14
f 17//14 12//12 21//15
f 21//15 12//12 11//16
f 21//15 11//16 20//17
f 20//17 11//16 10//18

g face 4
f 4//19 3//19 15//19

g face 5
f 10//20 9//21 20//22
f 20//22 9//21 8//23
f 20//22 8//23 21//24
f 21//24 8//23 7//25
f 21//24 7//25 6//26
f 6//26 17//27 21//24

g face 6
f 17//28 6//29 24//30
f 24//30 6//29 5//31
f 24//30 5//31 23//32
f 23//32 5//31 22//33
f 23//32 22//33 18//34
f 18//34 22//33 14//35
f 14//35 22//33 15//36
f 15//36 22//33 4//37
f 4//37 22//33 5//31
f 23//32 18//34 24//30
f 24//30 18//34 17//28

g halfedge 0 edge 0
l 2 1

g halfedge 1 edge 0
l 1 2

g halfedge 2 edge 1
l 3 2

g halfedge 3 edge 1
l 2 3

g halfedge 4 edge 2
l 4 3

g halfedge 5 edge 2
l 3 4

g halfedge 6 edge 3
l 6 5 4

g halfedge 7 edge 3
l 4 5 6

g halfedge 8 edge 4
l 10 9 8 7 6

g halfedge 9 edge 4
l 6 7 8 9 10

g halfedge 10 edge 5
l 1 12 11 10

g halfedge 11 edge 5
l 10 11 12 1

g halfedge 12 edge 6
l 2 13 14

g halfedge 13 edge 6
l 14 13 2

g halfedge 14 edge 7
l 14 15

g halfedge 15 edge 7
l 15 14

g halfedge 16 edge 8
l 3 15

g halfedge 17 edge 8
l 15 3

g halfedge 18 edge 9
l 17 16 1

g halfedge 19 edge 9
l 1 16 17

g halfedge 20 edge 10
l 14 18 17

g halfedge 21 edge 10
l 17 18 14

g halfedge 22 edge 11
l 17 21 20 10

g halfedge 23 edge 11
l 10 20 21 17

g halfedge 24 edge 12
l 15 4

g halfedge 25 edge 12
l 4 15

g halfedge 26 edge 13
l 6 17

g halfedge 27 edge 13
l 17 6

g vertex 0
p 1

g vertex 1
p 2

g vertex 2
p 3

g vertex 3
p 4

g vertex 4
p 6

g vertex 5
p 10

g vertex 6
p 14

g vertex 7
p 15

g vertex 8
p 17

# End of file
