# WaveFront *.obj file
# Vertices: 389
# Triangles : 782

v -0.0031750000000000003 0.0031503224607212915 -0.01037840462587044
v -0.002686364371221413 0.0031658086889888764 -0.010280639463149584
v -0.0022743218427146304 0.0032098404300757106 -0.01000376827181362
v -0.002000519487710715 0.003275864602513166 -0.00959161760823714
v -0.0019050000323910818 0.0033540472627669594 -0.009108126097733584
v -0.0020006985014923017 0.0034329987188051704 -0.00862475664262836
v -0.002274480257356706 0.003500895176006033 -0.008212881625233918
v -0.002686414622739573 0.0035468357687738514 -0.007936148838210057
v -0.003174999999999999 0.0035631242196801694 -0.007838404625870439
v -0.003663585377260426 0.0035468357687738514 -0.00793614883821006
v -0.004075519742643294 0.0035008951760060335 -0.008212881625233918
v -0.004349301498507698 0.0034329987188051704 -0.008624756642628358
v -0.004444999967608919 0.003354047262766958 -0.009108126097733583
v -0.004349480512289285 0.003275864602513165 -0.009591617608237138
v -0.00407567815728537 0.00320984043007571 -0.01000376827181362
v -0.0036636356287785875 0.003165808688988876 -0.01028063946314958
v -0.0031750000000000007 0.003542657356452152 -0.01037840462587044
v -0.00366361264110967 0.0035580850413609944 -0.010280649050247252
v -0.004075653790272466 0.0036019479807568346 -0.010003792808933862
v -0.0043494686926738415 0.0036677102577567055 -0.009591646349817181
v -0.004444999969659942 0.0037455691237541994 -0.009108135061238188
v -0.0043492954401203624 0.0038241753553320346 -0.008624741923876642
v -0.0040755004945029275 0.0038917575991365173 -0.008212862245135745
v -0.0036635640184533107 0.0039374757461100585 -0.007936139931322287
v -0.0031750000000000003 0.003953683012015219 -0.007838404625870439
v -0.0026864359815466916 0.003937475746110059 -0.007936139931322288
v -0.0022744995054970736 0.0038917575991365173 -0.008212862245135743
v -0.002000704559879639 0.003824175355332035 -0.008624741923876642
v -0.0019050000303400588 0.0037455691237541994 -0.009108135061238188
v -0.002000531307326159 0.0036677102577567055 -0.009591646349817184
v -0.002274346209727535 0.003601947980756835 -0.010003792808933862
v -0.002686387358890329 0.003558085041360995 -0.010280649050247252
v -0.003143849831126966 0.0009874704891768235 -0.03091940192984233
v -0.0026196640610521046 0.0009690323228123745 -0.030871523283605606
v -0.0020963423984141473 0.0009421534428155373 -0.030733953880151956
v -0.0020963423984141473 0.0006204757534782957 -0.030733953880151956
v -0.002663289468844349 0.0006073370259560501 -0.030879343302750814
v -0.0026780657514519765 0.0006073007827239496 -0.030881676789142238
v -0.0026928528360580634 0.0006072656183310541 -0.03088394081548746
v -0.002707650396148096 0.0006072315335538187 -0.030886135331794382
v -0.002925178013487965 0.000883093678157354 -0.03091027014214314
v -0.003034435423855066 0.0009567676260268777 -0.03091671577737893
v -0.0036721291928866052 0.0006073370259560501 -0.030879343302750814
v -0.003879545098756098 0.0006109835151000454 -0.030838915168918964
v -0.003879545098756098 0.00099571402457574 -0.030838915168918964
v -0.0035610494365521605 0.000990567769609605 -0.030895170251384486
v -0.0035610494365521605 0.0007105011370199354 -0.030895170251384486
v -0.003627832722683101 0.0006072315335538187 -0.030886135331794382
v -0.003642608813332817 0.000607265618242825 -0.03088394082116801
v -0.0036573744124149383 0.0006073007826365168 -0.030881676794771537
v -0.003175000000000001 0.0009883471498673573 -0.030919478627714412
v -0.0032921729531386742 0.0009623621218009931 -0.030917205232337316
v -0.0033950147473094106 0.0008973669857643209 -0.030911518894749763
v -0.004253397683791688 0.0006209721704857253 -0.030728475692161493
v -0.0042533976835511375 0.0010058465112247395 -0.03072847569212168
v -0.0018578011030425954 0.0011373336757756936 -0.02933197904690533
v -0.0014550589230719905 0.0013980418611716208 -0.026739322347720612
v -0.001101062574818281 0.001680945937847555 -0.024141270990866808
v -0.0007958063042802151 0.0019859990363699704 -0.021539235847795872
v -0.0005392843574565242 0.0023131542873053323 -0.018934627789959756
v -0.0003314909803459364 0.0026623648212201114 -0.01632885768881038
v -0.00017242041894718348 0.0030335837686807725 -0.013723336415799686
v 0.0 0.0038415304108779746 -0.008518647072686595
v 0.0 0.0034504357862658397 -0.008518647072686972
v -6.199824293528495e-05 0.0030340456369540095 -0.01111907207061415
v -0.000172381997673464 0.002639935043488211 -0.013722673636838538
v -0.00033141920049197736 0.002268352648698821 -0.016328051414369157
v -0.0005391934530302561 0.001919400456250284 -0.01893379270322179
v -0.0007957117624213797 0.001593120567402344 -0.021538476807149078
v -0.001100981135798427 0.001289555083414748 -0.024140683029903666
v -0.0014550085802944774 0.0010087461055472416 -0.02673899067523819
v -0.0018578011030426012 0.0007507357350595839 -0.029331979046905314
v -0.002095298251357163 0.0006210153888453007 -0.030727998809336698
v -0.0020952982512649726 0.0010058903482595592 -0.030727998809352865
v -0.0031749999999999773 0.0008273503435984612 -0.02853822862771441
v -0.0034793853797752895 0.0008332928343978205 -0.028477546538659197
v -0.003736904043595849 0.0008502458317485423 -0.028305105724691262
v -0.003908608091071818 0.0008757479939315001 -0.028047559784268362
v -0.003968749997045436 0.0009060455209187876 -0.02774441213575611
v -0.003908565364159164 0.0009366427875301059 -0.027441294059659654
v -0.003736866600388872 0.0009628710933438199 -0.027183814002424277
v -0.00347937359088612 0.000980555663542885 -0.027011405821467424
v -0.0031749999999999773 0.0009868028682510047 -0.026950728627714426
v -0.0028706264091138346 0.000980555663542885 -0.02701140582146743
v -0.0026131333996110818 0.0009628710933438199 -0.027183814002424277
v -0.0024414346358407903 0.0009366427875301059 -0.027441294059659654
v -0.0023812500029545183 0.0009060455209187876 -0.027744412135756114
v -0.002441391908928139 0.0008757479939315002 -0.02804755978426838
v -0.0026130959564041063 0.000850245831748542 -0.028305105724691262
v -0.0028706146202246664 0.0008332928343978205 -0.028477546538659197
v 0.0 0.003534468228818185 -0.008010494115237242
v 0.0 0.003619349867927944 -0.007502482317236183
v 0.0 0.0037050804664787067 -0.0069946130978121735
v -0.0006693814095569283 0.0036871210358759873 -0.007100578003513681
v -0.001918202993597757 0.0036621302408210397 -0.007248380394627726
v -0.0031750000211694714 0.003653787273709634 -0.007297852572399093
v -0.004431797027572533 0.0036621302409614383 -0.007248380393795196
v -0.005680618590444632 0.0036871210358759106 -0.0071005780035135815
v -0.006350000000000051 0.0037050804664787193 -0.006994613097812316
v -0.006350000000000068 0.0036960590894296887 -0.007047813325631873
v -0.0063085293361779616 0.003209608066137503 -0.010005248656884768
v -0.006204436564417512 0.0027518871426776173 -0.012967603777334961
v -0.006037327443305198 0.0023232647537337467 -0.015932805161392127
v -0.0058069997186928944 0.0019239538815903664 -0.01889877393254699
v -0.005513447792668478 0.0015540132945325391 -0.021863412646107055
v -0.005156667114387562 0.0012135009509818063 -0.024824623729241754
v -0.004736653133005763 0.0009024748093597074 -0.02778030960912056
v -0.006350000000000001 0.004085939608154404 -0.007047813325631853
v -0.006308517583157203 0.003601638096282438 -0.010005762047277007
v -0.006204397837557437 0.0031452770226786837 -0.01296845386767424
v -0.0060372467795144396 0.0027172275357428863 -0.015933831096260235
v -0.005806899171934603 0.0023176801069214937 -0.018899825551794713
v -0.00551334798603865 0.0019467032326834289 -0.02186435382117657
v -0.005156586193047304 0.0016043654094976148 -0.024825332491304683
v -0.004736606764181288 0.0012907351338329763 -0.027780678149077965
v 0.0 0.003922231413305292 -0.008028241623161176
v 0.0 0.004003701212488294 -0.0075379633057351516
v 0.0 0.004085939608154404 -0.007047813325631853
v 0.0 0.004074170552111441 -0.0068225711660888
v 0.0 0.00397702981800075 -0.006619012282980741
v 0.0 0.0038093321800205886 -0.006468181108047842
v 3.303347179128835e-17 0.001919011241830436 -0.005345391323697717
v 3.303347179128835e-17 0.0013819508281306613 -0.005298404625870441
v 0.0 0.0013796153636108095 -0.0053250991074835895
v -2.755246683097461e-16 0.003523333169698172 -0.006597945595248739
v 5.2666770179714646e-17 0.003612592463704647 -0.0066714492476382435
v -6.813777185836638e-17 0.003675699696197038 -0.006768179916911626
v -6.220235242801475e-17 0.003707364268435587 -0.006879219972234911
v -0.0031749999999999773 0.0011873944356922907 -0.028817010772474252
v -0.0031749999999999773 0.0011757594382602555 -0.028712471745091585
v -0.0031749999999999773 0.0011227693399147771 -0.02862161014215232
v -0.0031749999999999773 0.0010375113572387287 -0.02856000772498086
v -0.0031749999999999773 0.0009346062925741802 -0.02853822862771441
v -0.0028705818988552416 0.0009424732125168939 -0.02847751446179383
v -0.00261302257631796 0.0009649425887186963 -0.028304973806910775
v -0.0024415132412520645 0.0009987892748120186 -0.028047451153918917
v -0.002381414110000094 0.0010390898026669062 -0.02774441486874432
v -0.00244163912728997 0.0010799033825445441 -0.027441372173874733
v -0.0026134151946390783 0.0011149150787100619 -0.027184350914360993
v -0.002870826410379949 0.001138635218102281 -0.027011760377567553
v -0.0031749060851849016 0.0011469784106315863 -0.026951303279446354
v -0.0034792679460317866 0.0011385970833965304 -0.027012000645746614
v -0.0037365419585264383 0.0011149463701699057 -0.027184162498884046
v -0.003907652937573076 0.0010798557098891483 -0.0274417776341978
v -0.0039685989893798995 0.0010390991803198681 -0.027744339546002732
v -0.003906673309929671 0.0009989117017474253 -0.028046701799894845
v -0.003736466096843669 0.0009649797867865012 -0.02830473755309232
v -0.0034793186146654044 0.0009425030610415436 -0.028477264737162295
v -0.003576700571358344 0.0011952848816386963 -0.028736602866848662
v -0.003916135247833654 0.0012177436114692282 -0.028509049319840545
v -0.004140808769107174 0.0012516483589572326 -0.02816871483161762
v -0.004222550665981475 0.0012918036615609133 -0.0277699162090967
v -0.004142101877596469 0.0013325275595526779 -0.02737085424914003
v -0.003916235385254909 0.0013675901246149975 -0.027031074531992126
v -0.003576633688761968 0.0013912219019780892 -0.026804002835713683
v -0.0031748760324440775 0.0013995965187318488 -0.026723946460423434
v -0.002773490861701541 0.0013912600061514162 -0.0268036859356456
v -0.002433708056923594 0.001367558858208554 -0.027031323041294134
v -0.00220696364802277 0.0013325751940391228 -0.02737031947002575
v -0.002127466625200133 0.001291794291416137 -0.02777001555551049
v -0.0022067974784527353 0.0012515260300425375 -0.02816970318697195
v -0.002433189800739718 0.0012177064431839293 -0.028509360925195217
v -0.0027731681064889235 0.0011952550570121646 -0.028736932239439923
v -0.002928626948960993 0.000998724741614172 -0.028506584166112462
v -0.0029218501491638906 0.0010687320030467206 -0.028534261154876214
v -0.002908887485483385 0.0011273414726923148 -0.028579808703614568
v -0.002894891522664345 0.0011617170963603453 -0.028626148997599132
v -0.002873696883399408 0.00118790977323164 -0.0286937844939159
v -0.0027062504613634057 0.001012883577879079 -0.028393754726843676
v -0.002693046622434205 0.0010823255489851747 -0.028418731566744303
v -0.0026683355400109804 0.0011406492576262798 -0.02845841000957861
v -0.0026418463594420167 0.0011750817561289515 -0.028498173023857966
v -0.002601863597793842 0.001201726835211045 -0.028555692853826576
v -0.002529394444906052 0.0010350396060373579 -0.02821801746479534
v -0.002510560045692845 0.0011036171667348385 -0.02823848247817457
v -0.0024764266239476556 0.001161502569972866 -0.028268970368048346
v -0.002440236337319666 0.001196020081129241 -0.028298625610349674
v -0.002385884747309945 0.0012233556805301383 -0.02834072665620123
v -0.0024153365195256392 0.001063176409972728 -0.027996271715003296
v -0.002392234608650769 0.001130690581284405 -0.02801052679532031
v -0.0023519314986652977 0.0011880344911917983 -0.0280293376904001
v -0.0023097747671577793 0.0012226532187544624 -0.02804647127026275
v -0.002246860745277131 0.0012508361070543157 -0.028069686632597346
v -0.0024128175075306514 0.0011264966988463307 -0.027502909186440955
v -0.002387658892251942 0.001191748245465444 -0.0275014221209976
v -0.002346943903531585 0.0012479312455199692 -0.02749397231680496
v -0.0023055570795287093 0.0012827524784202898 -0.02748412397724939
v -0.0022446313758430277 0.0013127298276441124 -0.027467451548437483
v -0.002198044914710533 0.0012815931875544803 -0.0277690093733967
v -0.0022631287683120877 0.001252499478895743 -0.027766057863757382
v -0.0023070400893500497 0.0012177758755911481 -0.02776253758242841
v -0.0023496334452708023 0.0011610187317990504 -0.027756786324809032
v -0.002375016633353598 0.001094651161148797 -0.027750064084629832
v -0.0025249623633924025 0.0011555683525871507 -0.027278901271986133
v -0.0025027718841469883 0.0012198364616225028 -0.027269459889970177
v -0.0024679500618441544 0.0012755110538524906 -0.027249977056584714
v -0.002432993351549461 0.0013104146730049896 -0.027228250471398565
v -0.002381848484963379 0.0013411683073193503 -0.027194363539411365
v -0.0027022670335153606 0.0011788232676097584 -0.027100854721180928
v -0.0026857371059238935 0.001242328851161331 -0.02708474460671403
v -0.0026603628579118803 0.001297607528164277 -0.027055654461045343
v -0.002635124083538859 0.001332572500524617 -0.0270246493019264
v -0.0025983666756050705 0.0013639263919723765 -0.026977466539826734
v -0.002925905839993197 0.0011940134284718236 -0.02698510022418749
v -0.0029170508796520266 0.0012570323409568842 -0.026964490837390775
v -0.002903662568629996 0.0013120575018985895 -0.026929134726400288
v -0.0028904317516684885 0.0013470604086257174 -0.02689217433447864
v -0.002871225275793098 0.0013787966066085156 -0.02683653036836201
v -0.0031747606224462495 0.0013838569696816082 -0.026788651535762913
v -0.0031747706857824334 0.0013519916722825427 -0.026847152139539424
v -0.0031747789794384874 0.0013169760716773865 -0.02688612820372025
v -0.0031747901230020116 0.001262036657204186 -0.02692361516922517
v -0.0031748018072248986 0.0011991821898766492 -0.026945769599546594
v -0.003423985454341697 0.0011939134075609013 -0.026985812038666738
v -0.0034328312805372747 0.0012569344980929242 -0.026965244889309764
v -0.0034462132196570517 0.0013119608686727915 -0.02692992898159207
v -0.003459440818177233 0.0013469637165509827 -0.026892998283998854
v -0.003478644853190273 0.0013786982761025343 -0.026837390024889662
v -0.003648306440222816 0.0011789146256217596 -0.027100168828429343
v -0.0036648783238166865 0.0012424175691698037 -0.027084027319391964
v -0.0036902859006959004 0.0012976948462788812 -0.027054899200640414
v -0.0037155448913420144 0.0013326599883566124 -0.02702386081367588
v -0.0037523223513784482 0.0013640159303782524 -0.02697663308622314
v -0.003824119768590128 0.0011555203758863957 -0.027279331727651037
v -0.0038462530478159786 0.001219791282703412 -0.027269889764403872
v -0.0038810220695635845 0.0012754672432418162 -0.027250428503412367
v -0.003915941306444101 0.0013103705122793114 -0.027228732458425737
v -0.003967042656266571 0.001341121862188791 -0.027194896502546112
v -0.00393682471897214 0.0011264666593169366 -0.027503156397519993
v -0.0039619577323124384 0.0011917194815473174 -0.02750167502908267
v -0.004002651809923371 0.0012479031261011307 -0.027494238398513518
v -0.004044025631920918 0.0012827242297110428 -0.027484404789919994
v -0.004104938101390348 0.0013127005571132925 -0.027467754920946705
v -0.004151978800220428 0.0012816113076041047 -0.027768826430107
v -0.0040868994900333895 0.0012525170183355814 -0.02776588770798788
v -0.004042989578816424 0.0012177933455446283 -0.02776237596056098
v -0.004000394246845819 0.0011610365723484775 -0.02775663272947592
v -0.00397500470525652 0.0010946697293944471 -0.02774991468517616
v -0.003933049784511158 0.0010632843272857322 -0.02799554668979073
v -0.003956140688736858 0.0011307975696416858 -0.028009732677821284
v -0.003996363076703235 0.0011881407837902801 -0.028028497388323068
v -0.0040384124757419535 0.0012227592736237872 -0.028045611688623386
v -0.004101150413556463 0.0012509426909804453 -0.028068818893244443
v -0.003819225642082082 0.001035142394158091 -0.02821730371812679
v -0.0038380566536030227 0.0011037185398054476 -0.02823771003469154
v -0.0038721220782361866 0.0011616030456468866 -0.02826815382299016
v -0.003908217931692811 0.0011961204327594552 -0.028297785842110682
v -0.003962412345551226 0.0012234569923219188 -0.028339868545402873
v -0.0036437688210114393 0.0010128794310704466 -0.028393787855730913
v -0.0036569718341303813 0.0010823215648123059 -0.028418765579054785
v -0.003681683714479522 0.0011406453560792932 -0.02845844577628674
v -0.0037081745968858145 0.001175077838799936 -0.02849821069193335
v -0.0037481605104312476 0.0012017227880854564 -0.028555733399773173
v -0.0034212717364172415 0.0009987576240791678 -0.028506304154372223
v -0.003428052299975067 0.0010687631345375184 -0.028533981058427926
v -0.0034410107426959026 0.0011273717478947818 -0.02857951509053107
v -0.0034549980614924304 0.0011617475900240436 -0.028625836100577073
v -0.003476176801574981 0.001187941695610912 -0.02869343920857389
v -0.003815407005327869 0.004085939608170271 -0.007047813325522921
v -0.002534592928283488 0.004085939608588048 -0.007047813322648271
v -0.0026185881493304415 0.0009929385965223197 -0.030869198274649224
v -0.0031438514874558756 0.0009883618763003633 -0.030919316815614068
v -0.00010520101852595192 0.001961752345957176 -0.005370778163633635
v -0.0001710269886157267 0.0019750382267015964 -0.005385099761723185
v -0.001665888823332799 0.001955904946671514 -0.005603794153063481
v -0.003174999999999999 0.0019495070499073641 -0.00567692244770538
v -0.004684111176667198 0.0019559049466715142 -0.005603794153063477
v -0.006178973011384269 0.001975038226701592 -0.005385099761723182
v -0.0062447989814740455 0.001961752345957171 -0.00537077816363363
v -0.006350000000000001 0.0019190112418304413 -0.00534539132369772
v -0.006350000000000034 0.001381950828130662 -0.0052984046258704376
v -0.006344652400520703 0.0013818536949794017 -0.005299514862869671
v -0.006323906681638485 0.0013814784887787935 -0.00530380348936693
v -0.005621907454326042 0.0013702832336920645 -0.005431765840550995
v -0.004402282738091516 0.0013576255966410763 -0.005576443294073156
v -0.0031750000000000007 0.0013533975902929663 -0.005624769627768459
v -0.0019477172619084843 0.0013576255966410763 -0.005576443294073154
v -0.0007280925456739595 0.0013702832336920643 -0.005431765840550995
v -2.6093324133895647e-05 0.0013814784886747517 -0.005303803490556132
v -5.347599479298108e-06 0.0013818536949794023 -0.005299514862869672
v -0.0006661168203690022 0.0038093321800205912 -0.006468181108047846
v -0.0003769994669465726 0.002931912110930932 -0.005947021832786963
v -0.0006814201967306981 0.003805079314367402 -0.006466106936373578
v -0.0006966875600381883 0.0038004396344262286 -0.006464705733266715
v -0.0007118829819858904 0.003795424058640244 -0.00646398079614361
v -0.00043297250347357804 0.00293039264853193 -0.0059512765285214195
v -0.0003299449270794459 0.002706431183913852 -0.005813756200177023
v -0.0003381454541317387 0.002704350029816844 -0.005813225307112064
v -0.0003568375046070686 0.002699187109473807 -0.005812720961692335
v -0.006349999999999908 0.0037073273487172355 -0.006878935470617242
v -0.006349999999999914 0.003675543232165156 -0.006767836903723714
v -0.006349999999999771 0.0036123824035481666 -0.006671214420612915
v -0.006349999999999775 0.0035233331696981757 -0.006597945595248732
v -0.006350000000000001 0.0013796153636108095 -0.0053250991074835895
v -0.006350000000000001 0.0038093321800205886 -0.006468181108047842
v -0.006350000000000001 0.00397702981800075 -0.006619012282980741
v -0.006350000000000001 0.004074170552111441 -0.0068225711660888
v -0.0007207379783086097 0.0038099570863518177 -0.006473187306289647
v -0.0007344250274091977 0.003821307112117137 -0.00648143921035698
v -0.0007680797830349523 0.00383776738478037 -0.00649553280132518
v -0.0008398569114378854 0.0038595051655006384 -0.006518145524859171
v -0.000990647449765397 0.0038843178669891345 -0.006553335241111335
v -0.001298876937319393 0.003906789831825907 -0.00660545409709265
v -0.0019221873279317556 0.003916807282117971 -0.006673046009779153
v -0.0031749979088792125 0.003912201196078401 -0.006720505457861473
v -0.0044278487047324155 0.003916685099446653 -0.006672979855755448
v -0.005050714260325102 0.003906535969450793 -0.006605370786361702
v -0.005359193453390198 0.0038839221013755704 -0.006553148495302977
v -0.005509907463218702 0.003859260735914366 -0.006518051874459897
v -0.0055819712673677736 0.003837739962140132 -0.006495510192292284
v -0.0056150056039216455 0.0038210708108991523 -0.006481404962975333
v -0.005628806756637053 0.0038098173368004717 -0.0064731859509056045
v -0.005638117018014108 0.0037954240586402406 -0.006463980796143603
v -0.005917028926224438 0.0029304005834857863 -0.005951281279462244
v -0.005653312439961811 0.0038004396344262247 -0.0064647057332667054
v -0.0056685798032693 0.0038050793143673983 -0.006466106936373568
v -0.0056838831796309965 0.0038093321800205843 -0.006468181108047841
v -0.005973000533053425 0.0029319121109309255 -0.005947021832786959
v -0.005903823101023435 0.0030030658564667713 -0.005992929881749707
v -0.005921772116458353 0.0030081965671535367 -0.005993600999023481
v -0.005929645032838597 0.0030102765584717594 -0.005994182379765245
v -0.005656938738341066 0.003681714210406787 -0.006950275899675697
v -0.0056370403106432545 0.003617182770959978 -0.0068138191758638144
v -0.005624100877878378 0.0035038317126425784 -0.006712998541897101
v -0.000693061261660206 0.00368171421040683 -0.00695027589967578
v -0.0007129596893577768 0.003617182770960024 -0.0068138191758638925
v -0.0007258991221224839 0.0035038317126425984 -0.006712998541897264
v -0.0019465517982534453 0.0034804224909754577 -0.006858267959588411
v -0.0031750000206919645 0.003472608803660093 -0.006906892521821376
v -0.00440344822243932 0.003480422491106947 -0.006858267958770148
v -0.004382034666482211 0.0036666426749008456 -0.007177413042225425
v -0.004373723212733215 0.003645944789533257 -0.007064690373998068
v -0.004366687391440789 0.003592486187441797 -0.0069632021144786374
v -0.004364790613779674 0.0035688140555553173 -0.006934278899131951
v -0.003087070687584826 0.0036589435833649033 -0.007223086579867263
v -0.0030876759211188503 0.003638338430073904 -0.007110152510857305
v -0.0030881884442900253 0.003585022563240548 -0.007008469201985068
v -0.00308832667702697 0.0035614040851845497 -0.006979486165948856
v -0.0018803160546102217 0.003667809527535081 -0.007170498083132757
v -0.0018892315651039108 0.003647097586798038 -0.007057807457175648
v -0.00189677833466622 0.0035936173704630547 -0.00695634873321587
v -0.0018988127204752085 0.0035699371179838076 -0.006927434567464736
v -0.0007258991221216543 0.0013690835873611674 -0.005445477860857976
v -0.002355945325366885 0.0013533822112940744 -0.005624945410530165
v -0.003994054674633115 0.0013533822112940744 -0.005624945410530165
v -0.005624100877878346 0.0013690835873611668 -0.005445477860857975
v -0.004769849750121508 0.0040874581463153006 -0.006892900115264726
v -0.005243708938434455 0.004048436286462748 -0.006744821245600655
v -0.005477201907232669 0.003991517024884484 -0.006639294256997287
v -0.005590612070351639 0.00393614926744815 -0.0065701721738670536
v -0.005644055690468607 0.003890395345439959 -0.0065263529235237375
v -0.0007058273464686842 0.0038906894565703767 -0.006526464834135151
v -0.0007592133206079965 0.0039366697617848855 -0.006570385650133084
v -0.0008727070778347618 0.003991518436313454 -0.0066392639595441215
v -0.0011059204639825427 0.004050382973488397 -0.0067457304697895485
v -0.0015800558812466012 0.004087785813812666 -0.00689304886745365
v -0.004849716560363091 0.004050104307448008 -0.0067696725969389575
v -0.00425090650169584 0.004072059365527443 -0.0068661786032103165
v -0.004834751721447096 0.003951658991902923 -0.006657444865657224
v -0.003065929617716869 0.0040766785426972615 -0.006928477298677805
v -0.003066270989492755 0.004055215981951428 -0.006869419336492683
v -0.003066873918138272 0.003964677726082784 -0.006754940895392981
v -0.0018925907958525895 0.003961318831741911 -0.006699246728137689
v -0.0018850420797574224 0.0040438064026476605 -0.006790061191153444
v -0.0018811561276944134 0.004067603990167277 -0.00683706917202196
v -0.004247635364879801 0.004048753298056783 -0.0068153431957745075
v -0.004241452764585204 0.00396342440355092 -0.006717113368583445
v -0.004844809831050958 0.004026237762232125 -0.0067314595171380325
v -0.004577254148278946 0.003959091540870312 -0.006687441115679794
v -0.00458558208203631 0.004039475414819859 -0.006773443520678403
v -0.004589800113113805 0.004063410311748833 -0.006817950028879878
v -0.005472256138362612 0.003953085314836146 -0.006592537611832717
v -0.005465834747590531 0.003936152164419166 -0.006576863589456048
v -0.005451332036448831 0.003892251466171456 -0.0065454204725076725
v -0.005184124600194568 0.003929968865908776 -0.006603505019420276
v -0.005196649283943187 0.003991812483894648 -0.006656690265240354
v -0.0052024367482003476 0.0040137471776776875 -0.006683851377757019
v -0.005579832662888115 0.0039059540544533547 -0.0065418780269448275
v -0.005573166294311403 0.0038935051113057717 -0.0065323897644922625
v -0.005557850752684222 0.003862405123059106 -0.006512969422660724
v -0.0012256761233070327 0.0039358423948217675 -0.006614464320395616
v -0.0012135833546374059 0.004000713809805722 -0.006671820634912126
v -0.0012079425238852581 0.004023336794774226 -0.006701185551831918
v -0.0008480256637941146 0.003880372798045496 -0.006531328049941573
v -0.0008331386376837783 0.0039190723563517086 -0.006557552590938529
v -0.0008266004573612467 0.003934261401871408 -0.006570512681163677
v -0.0007682304464883459 0.0038525299620945563 -0.006503871172026145
v -0.0007527297797999283 0.0038795403200556212 -0.006519913980619947
v -0.000746008665898826 0.003890450039295889 -0.006527706257520551

vn 3.8475254811732512e-01 -0.0000000000000000e+00 9.2301975965697802e-01
vn -6.1232339957367660e-17 0.0000000000000000e+00 1.0000000000000000e+00
vn 3.8285686989269494e-16 -0.0000000000000000e+00 1.0000000000000000e+00
vn -3.8475254811732429e-01 0.0000000000000000e+00 9.2301975965697836e-01
vn -3.8473444614445601e-01 0.0000000000000000e+00 9.2302730509444775e-01
vn -7.0917681776101549e-01 0.0000000000000000e+00 7.0503066681553628e-01
vn -7.0919601469387916e-01 0.0000000000000000e+00 7.0501135646336865e-01
vn -9.2477870634709647e-01 0.0000000000000000e+00 3.8050538010255625e-01
vn -9.2478801707750469e-01 0.0000000000000000e+00 3.8048275055494546e-01
vn -9.9999997747377645e-01 0.0000000000000000e+00 -2.1225561623547089e-04
vn -9.9999997595079548e-01 0.0000000000000000e+00 -2.1931349390542798e-04
vn -9.2464702662330578e-01 0.0000000000000000e+00 -3.8082525672108403e-01
vn -9.2464225368875408e-01 0.0000000000000000e+00 -3.8083684524134703e-01
vn -7.0907126764060724e-01 0.0000000000000000e+00 -7.0513682176336701e-01
vn -7.0905610177906420e-01 0.0000000000000000e+00 -7.0515207191773721e-01
vn -3.8471297865632953e-01 0.0000000000000000e+00 -9.2303625283808566e-01
vn -3.8469615930674750e-01 0.0000000000000000e+00 -9.2304326280767446e-01
vn -9.4941075965749300e-16 0.0000000000000000e+00 -1.0000000000000000e+00
vn -6.1232339957367660e-17 0.0000000000000000e+00 -1.0000000000000000e+00
vn 3.8469615930674844e-01 0.0000000000000000e+00 -9.2304326280767401e-01
vn 3.8471297865632903e-01 0.0000000000000000e+00 -9.2303625283808588e-01
vn 7.0905610177906475e-01 0.0000000000000000e+00 -7.0515207191773643e-01
vn 7.0907126764060713e-01 0.0000000000000000e+00 -7.0513682176336723e-01
vn 9.2464225368875419e-01 0.0000000000000000e+00 -3.8083684524134676e-01
vn 9.2464702662330545e-01 0.0000000000000000e+00 -3.8082525672108503e-01
vn 9.9999997747377645e-01 0.0000000000000000e+00 -2.1225561623535466e-04
vn 9.9999997595079548e-01 0.0000000000000000e+00 -2.1931349390608157e-04
vn 9.9999997747377645e-01 0.0000000000000000e+00 -2.1225561623510974e-04
vn 9.9999997595079548e-01 0.0000000000000000e+00 -2.1931349390583665e-04
vn 9.2478801707750535e-01 -0.0000000000000000e+00 3.8048275055494390e-01
vn 9.2477870634709736e-01 -0.0000000000000000e+00 3.8050538010255402e-01
vn 7.0919601469387916e-01 -0.0000000000000000e+00 7.0501135646336877e-01
vn 7.0917681776101560e-01 -0.0000000000000000e+00 7.0503066681553583e-01
vn 3.8473444614445523e-01 -0.0000000000000000e+00 9.2302730509444808e-01
vn 7.3546080977775902e-03 -0.0000000000000000e+00 -9.9997295450413459e-01
vn 1.7203928593870466e-01 -0.0000000000000000e+00 -9.8509008932873776e-01
vn 4.1723874864419662e-02 -0.0000000000000000e+00 -9.9912917996938622e-01
vn 7.6043825744451149e-02 -0.0000000000000000e+00 -9.9710447625419252e-01
vn 1.4437362705559964e-01 -0.0000000000000000e+00 -9.8952324672582137e-01
vn 1.4902183841012343e-01 -0.0000000000000000e+00 -9.8883390499965529e-01
vn 1.5366675920437092e-01 -0.0000000000000000e+00 -9.8812272877189988e-01
vn 1.5830828687356366e-01 -0.0000000000000000e+00 -9.8738973374608130e-01
vn 3.3639776879854716e-01 -0.0000000000000000e+00 -9.4171999083982449e-01
vn -2.2388031097348318e-01 0.0000000000000000e+00 -9.7461664584513252e-01
vn -1.5853391424204930e-01 0.0000000000000000e+00 -9.8735353244675972e-01
vn -1.2353822866131685e-01 0.0000000000000000e+00 -9.9233981380332825e-01
vn -1.5388541954563692e-01 0.0000000000000000e+00 -9.8808869928324927e-01
vn -1.4923351644518795e-01 0.0000000000000000e+00 -9.8880198096959926e-01
vn -1.4457830797557958e-01 0.0000000000000000e+00 -9.8949336170735303e-01
vn -0.0000000000000000e+00 -0.0000000000000000e+00 -1.0000000000000000e+00
vn -3.8603165631442081e-02 0.0000000000000000e+00 -9.9925462000594789e-01
vn -1.2406573084408647e-01 0.0000000000000000e+00 -9.9227400169011915e-01
vn -7.1687926093494003e-02 0.0000000000000000e+00 -9.9742711074665191e-01
vn -2.2338137594908219e-01 0.0000000000000000e+00 -9.7473112235072024e-01
vn -3.4323845401982556e-01 0.0000000000000000e+00 -9.3924829714089986e-01
vn -3.4323845401982633e-01 0.0000000000000000e+00 -9.3924829714089952e-01
vn 9.8953587750130356e-01 -0.0000000000000000e+00 -1.4428703038639709e-01
vn 9.8953622207344860e-01 -0.0000000000000000e+00 -1.4428466725403105e-01
vn 9.8666838931299694e-01 -0.0000000000000000e+00 -1.6274363130548697e-01
vn 9.8666838931299705e-01 -0.0000000000000000e+00 -1.6274363130548683e-01
vn 9.8497768909716499e-01 -0.0000000000000000e+00 -1.7268164923004559e-01
vn 9.8497025599881916e-01 -0.0000000000000000e+00 -1.7272404232654112e-01
vn 9.9205716370357300e-01 -0.0000000000000000e+00 -1.2578785292873851e-01
vn 9.9205663220643026e-01 -0.0000000000000000e+00 -1.2579204464208202e-01
vn 9.9423065794145205e-01 -0.0000000000000000e+00 -1.0726322207218809e-01
vn 9.9423007393198570e-01 -0.0000000000000000e+00 -1.0726863516050798e-01
vn 9.9605599607519679e-01 -0.0000000000000000e+00 -8.8726843078334769e-02
vn 9.9605652653865651e-01 -0.0000000000000000e+00 -8.8720887843545301e-02
vn 9.9753457238793397e-01 -0.0000000000000000e+00 -7.0176754633011124e-02
vn 9.9753497669032709e-01 -0.0000000000000000e+00 -7.0171007399271290e-02
vn 9.9866636146526055e-01 -0.0000000000000000e+00 -5.1628465769741082e-02
vn 9.9866660545204833e-01 -0.0000000000000000e+00 -5.1623746036904582e-02
vn 9.9945240360659593e-01 -0.0000000000000000e+00 -3.3089166278373300e-02
vn 9.9989374697512001e-01 -0.0000000000000000e+00 -1.4577200007360246e-02
vn 9.9989374697512001e-01 -0.0000000000000000e+00 -1.4577200007362925e-02
vn -0.0000000000000000e+00 -9.8766047338999075e-01 1.5661031033447081e-01
vn -0.0000000000000000e+00 -9.8900366856633060e-01 1.4789098539917725e-01
vn -0.0000000000000000e+00 -9.8771072692472839e-01 1.5629305780432051e-01
vn -0.0000000000000000e+00 -9.8808805476347583e-01 1.5388955790998454e-01
vn -0.0000000000000000e+00 -9.8751758833668402e-01 1.5750877031359095e-01
vn -0.0000000000000000e+00 -9.8730333680409843e-01 1.5884621851178279e-01
vn -0.0000000000000000e+00 -9.8673684513326176e-01 1.6232805813061843e-01
vn -0.0000000000000000e+00 -9.8704963040457327e-01 1.6041517109735992e-01
vn -0.0000000000000000e+00 -9.8679342923923852e-01 1.6198372760948540e-01
vn -0.0000000000000000e+00 -9.8657310206002202e-01 1.6332028132373880e-01
vn -0.0000000000000000e+00 -9.8646415592312531e-01 1.6397703826717919e-01
vn -0.0000000000000000e+00 -9.8642402267795826e-01 1.6421829217183750e-01
vn -0.0000000000000000e+00 -9.8637116589122220e-01 1.6453547671669827e-01
vn -0.0000000000000000e+00 -9.8618871103040417e-01 1.6562556033472056e-01
vn -0.0000000000000000e+00 -9.8607696003642453e-01 1.6628959343664193e-01
vn -0.0000000000000000e+00 -9.8604987396729016e-01 1.6645013081728455e-01
vn -0.0000000000000000e+00 -9.8596879041764474e-01 1.6692975864826090e-01
vn -0.0000000000000000e+00 -9.8591051122455209e-01 1.6727361972810445e-01
vn -0.0000000000000000e+00 -9.8751835424622270e-01 1.5750396828915694e-01
vn -0.0000000000000000e+00 -9.8730333680409843e-01 1.5884621851178282e-01
vn -0.0000000000000000e+00 -9.8704963040457327e-01 1.6041517109735995e-01
vn -0.0000000000000000e+00 -9.8596879041764474e-01 1.6692975864826123e-01
vn -0.0000000000000000e+00 -9.8604987396683419e-01 1.6645013081998608e-01
vn -0.0000000000000000e+00 -9.9522959653602250e-01 9.7560494969766931e-02
vn -0.0000000000000000e+00 -9.9591858703034486e-01 9.0256124487379755e-02
vn -0.0000000000000000e+00 -9.9524888019681479e-01 9.7363578749891003e-02
vn -0.0000000000000000e+00 -9.9549749818830513e-01 9.4787821479478812e-02
vn -0.0000000000000000e+00 -9.9517458326641006e-01 9.8120073484109671e-02
vn -0.0000000000000000e+00 -9.9509182755610437e-01 9.8955822118015027e-02
vn -0.0000000000000000e+00 -9.9499351066222741e-01 9.9939550429526861e-02
vn -0.0000000000000000e+00 -9.9466039664229255e-01 1.0320220613628930e-01
vn -0.0000000000000000e+00 -9.9489422109996806e-01 1.0092318277723822e-01
vn -0.0000000000000000e+00 -9.9480910901987341e-01 1.0175871761714469e-01
vn -0.0000000000000000e+00 -9.9475172176120485e-01 1.0231819023574687e-01
vn -0.0000000000000000e+00 -9.9473144928940427e-01 1.0251509057012705e-01
vn -0.0000000000000000e+00 -9.9399621679620676e-01 1.0941444600613029e-01
vn -0.0000000000000000e+00 -9.9475172176120485e-01 1.0231819023574688e-01
vn -0.0000000000000000e+00 -9.9500520314864482e-01 9.9823072018065742e-02
vn -0.0000000000000000e+00 -9.9499351066222741e-01 9.9939550429526874e-02
vn -0.0000000000000000e+00 -9.9509182755610437e-01 9.8955822118015083e-02
vn -0.0000000000000000e+00 -9.9596283371268512e-01 8.9766552028014895e-02
vn -0.0000000000000000e+00 -9.9595100068469933e-01 8.9897743214978607e-02
vn -0.0000000000000000e+00 -9.9592019792677411e-01 9.0238347510884387e-02
vn -0.0000000000000000e+00 -9.9591844678474473e-01 9.0257671994471905e-02
vn -0.0000000000000000e+00 -9.9374940510994281e-01 1.1163386512897822e-01
vn -0.0000000000000000e+00 -9.9289140873221748e-01 1.1902373908490968e-01
vn -0.0000000000000000e+00 -9.9276444059580271e-01 1.2007816407866564e-01
vn -0.0000000000000000e+00 -9.9169082374251283e-01 1.2864412192127683e-01
vn -0.0000000000000000e+00 -9.9170555910414993e-01 1.2853047903872913e-01
vn -0.0000000000000000e+00 -9.9057295558598613e-01 1.3698620244989548e-01
vn -0.0000000000000000e+00 -9.9039474006089168e-01 1.3826879206718692e-01
vn -0.0000000000000000e+00 -9.8936696351651265e-01 1.4544074911150434e-01
vn -0.0000000000000000e+00 -9.8591051122455209e-01 1.6727361972810401e-01
vn -0.0000000000000000e+00 -9.8593978601541976e-01 1.6710098249821306e-01
vn 0.0000000000000000e+00 -9.9987940349201054e-01 1.5529921843374999e-02
vn -9.9999394895844484e-01 0.0000000000000000e+00 -3.4787995767538008e-03
vn -9.9969829664727483e-01 0.0000000000000000e+00 -2.4562485227218902e-02
vn -9.9999394895844484e-01 0.0000000000000000e+00 -3.4787995767539279e-03
vn -9.9969838654666565e-01 0.0000000000000000e+00 -2.4558826030438373e-02
vn -9.9895612499148112e-01 0.0000000000000000e+00 -4.5679977473771873e-02
vn -9.9895640204790381e-01 0.0000000000000000e+00 -4.5673918241232514e-02
vn -9.9776576073406087e-01 0.0000000000000000e+00 -6.6809330985877977e-02
vn -9.9776527067793785e-01 0.0000000000000000e+00 -6.6816649339676987e-02
vn -9.9612420479476305e-01 0.0000000000000000e+00 -8.7957766126709913e-02
vn -9.9612486706506365e-01 0.0000000000000000e+00 -8.7950265574409020e-02
vn -9.9403205198494693e-01 0.0000000000000000e+00 -1.0908840280522798e-01
vn -9.9403278788295890e-01 0.0000000000000000e+00 -1.0908169696898086e-01
vn -9.9148924675226180e-01 0.0000000000000000e+00 -1.3018860769910909e-01
vn -9.9148858485795466e-01 0.0000000000000000e+00 -1.3019364844864875e-01
vn -9.8849421521243397e-01 0.0000000000000000e+00 -1.5125867410351734e-01
vn -9.8504977413552886e-01 0.0000000000000000e+00 -1.7226996974383993e-01
vn -9.8504977413553163e-01 0.0000000000000000e+00 -1.7226996974382439e-01
vn -9.8849461553774332e-01 0.0000000000000000e+00 -1.5125605790476285e-01
vn 1.0000000000000000e+00 0.0000000000000000e+00 0.0000000000000000e+00
vn -3.7333986039506322e-05 9.9521256948964310e-01 -9.7734027523660130e-02
vn -0.0000000000000000e+00 9.9522890991382051e-01 -9.7567499054493800e-02
vn -9.2636828295552573e-02 9.7775761069073863e-01 1.8817139203311040e-01
vn -0.0000000000000000e+00 9.4929765151845924e-01 3.1437870287527109e-01
vn -0.0000000000000000e+00 7.4079939897872127e-01 6.7172632111058839e-01
vn -0.0000000000000000e+00 4.0549937147961784e-01 9.1409532310893860e-01
vn -2.3005907620939986e-01 7.3887855821633164e-01 6.3334926988339746e-01
vn -1.7389089983292447e-01 8.7731874097395701e-01 4.4729607833197788e-01
vn -1.7449246550689096e-01 9.7420064675221074e-01 1.4312749333688704e-01
vn -1.6177192957887550e-04 9.9514909360959147e-01 -9.8378124183435472e-02
vn -2.3646390283163785e-01 9.6875929876305256e-01 7.4767932415899588e-02
vn -7.8521776704584942e-04 9.9505837687169807e-01 -9.9288519228156763e-02
vn -2.7267304396153869e-01 9.6207344358944102e-01 -8.0062623429166518e-03
vn -9.0356897292172180e-04 9.9489588014753716e-01 -1.0090278107450010e-01
vn -2.8106255179721534e-01 9.5471565116301527e-01 -9.7580056372279567e-02
vn -2.6236533189308209e-01 9.4771710570957735e-01 -1.8164999357581788e-01
vn -5.3127516797628516e-01 8.4272977864633047e-01 -8.6909240443562477e-02
vn -4.9702621742863656e-01 8.3228452622368154e-01 -2.4549420888730430e-01
vn -7.0717516037734474e-01 7.0324667262800689e-01 -7.3125987055997266e-02
vn -6.6284609397100014e-01 6.9258393841319077e-01 -2.8453917825048564e-01
vn -8.7711156731511142e-01 4.7760465989896639e-01 -5.0686165023816843e-02
vn -8.2526921538188414e-01 4.6936970206812312e-01 -3.1404268009850272e-01
vn -9.7462353710981120e-01 2.2242992352574928e-01 -2.5177172833538534e-02
vn -9.2203653189203727e-01 2.1830810993083763e-01 -3.1967202410428297e-01
vn -9.9999699099040007e-01 -2.9307402275655591e-04 -2.4355939240524207e-03
vn -9.2507328564692459e-01 1.5309482328409879e-04 -3.7978861586990570e-01
vn -2.8191879033913803e-01 5.0567929645631349e-01 8.1535896682943576e-01
vn -0.0000000000000000e+00 -0.0000000000000000e+00 1.0000000000000000e+00
vn -3.0792929510964223e-01 2.3738598470020442e-01 9.2131831821645294e-01
vn -3.8337937480262557e-01 3.0200917276306885e-05 9.2359095603186403e-01
vn -5.8372147084899118e-01 2.3508612004817189e-01 7.7717678853050332e-01
vn -7.0772523457651537e-01 7.8383158098117658e-05 7.0648778205974427e-01
vn -7.9894640029739017e-01 2.3157816663263969e-01 5.5502810937006408e-01
vn -9.2424974611476618e-01 9.1488685136001537e-05 3.8178842103527799e-01
vn -9.3267262972451148e-01 2.2742370763513367e-01 2.8000039815731248e-01
vn -7.7847252736601991e-01 2.1405533400601648e-01 -5.9005155547624311e-01
vn -7.0544463935719803e-01 -9.9868677199511121e-04 -7.0876432149687396e-01
vn -5.6469848169032844e-01 2.1061237017109941e-01 -7.9797121145286276e-01
vn -3.8714730711172085e-01 -3.5820080986261922e-04 -9.2201780584125526e-01
vn -2.9952584257327231e-01 2.0939874217626317e-01 -9.3082567455231391e-01
vn 4.2495684429289622e-03 -8.8278918344580448e-04 -9.9999058088129333e-01
vn 4.1712633188685129e-03 2.0824105993228401e-01 -9.7806863845059655e-01
vn 2.9354985959762209e-01 2.0855777853864732e-01 -9.3291593026448039e-01
vn 2.5975540783054374e-01 4.5172795371628272e-01 -8.5350394488490089e-01
vn 5.0176654409582799e-01 4.5616474455722439e-01 -7.3494493742672429e-01
vn 4.0046281662105115e-01 6.7564064941145785e-01 -6.1898242734894982e-01
vn 5.5773639731228031e-01 6.8274236075942096e-01 -4.7200951255008716e-01
vn 4.1752454892084756e-01 8.2277170477931916e-01 -3.8564228614478441e-01
vn 4.9604863880120365e-01 8.3183489706666491e-01 -2.4897078536560061e-01
vn 2.6185442254527719e-01 9.4750292716342221e-01 -1.8349513456826635e-01
vn 5.3128592554650267e-01 8.4309244703096953e-01 -8.3248970417223289e-02
vn 2.8107717758207257e-01 9.5491273644775032e-01 -9.5589152168880420e-02
vn 5.1451125598698799e-01 8.5339871781712495e-01 8.3599018479758869e-02
vn 2.7299357644241712e-01 9.6199251334564417e-01 -6.7016033983554055e-03
vn 2.3799611706904461e-01 9.6847163056164054e-01 7.3624378145658809e-02
vn 1.0803663763323524e-02 9.9540382697279695e-01 -9.5155147507631391e-02
vn 2.3032340437362758e-03 9.9534160662766880e-01 -9.6383511187291104e-02
vn 1.7441781428577613e-01 9.7420895187339007e-01 1.4316195077437049e-01
vn 6.1357943169715638e-04 9.9534467529927051e-01 -9.6377387771565820e-02
vn 9.2630167269513120e-02 9.7773084642869212e-01 1.8831368525270606e-01
vn 1.7385726914900554e-01 8.7722142590663055e-01 4.4749996636244355e-01
vn 2.2998422574468483e-01 7.3875432337717117e-01 6.3352135370495266e-01
vn 4.3402031497614341e-01 7.3338930657839096e-01 5.2322699775955395e-01
vn 5.3283300318152482e-01 5.0136000265607061e-01 6.8170898369998190e-01
vn 7.3008482622659387e-01 4.9368788892438675e-01 4.7249170875589619e-01
vn 8.0247823280969466e-01 2.3094690279696212e-01 5.5017471220978531e-01
vn 9.3151540181510750e-01 2.2779883232020021e-01 2.8352556882015417e-01
vn 9.2364102491483846e-01 1.4704147177549678e-03 3.8325591316354740e-01
vn 9.9999010732039584e-01 5.6529462792502473e-04 4.4119953906420232e-03
vn 9.7459228321517111e-01 2.2321671727313949e-01 -1.8552051833771416e-02
vn 9.2009137132651386e-01 2.1730289602356179e-01 -3.2590078212589202e-01
vn 8.2357251974009493e-01 4.6849854202079361e-01 -3.1974586917322551e-01
vn 7.8209740322024546e-01 2.1399846810008830e-01 -5.8525917978871922e-01
vn 6.9669948362111866e-01 4.6151302612058320e-01 -5.4919537165118959e-01
vn 5.6563049112532204e-01 2.1139187219910474e-01 -7.9710452506398710e-01
vn 3.7964218957424323e-01 -1.0707936521197905e-03 -9.2513278035978641e-01
vn 7.1150509904864756e-01 1.0134363020596183e-05 -7.0268093323006064e-01
vn 9.2289383105708456e-01 -1.1120405875441252e-03 -3.8505290540717807e-01
vn 7.1298773041799923e-01 -1.7374025637163055e-04 7.0117648711840985e-01
vn 5.8350287386994815e-01 2.3509300025294053e-01 7.7733884337371317e-01
vn 2.8178641587559217e-01 5.0562668507437603e-01 8.1543734962821368e-01
vn 3.8238850780106037e-01 4.4857280344339976e-04 9.2400153023905673e-01
vn 3.0776478319575451e-01 2.3750926496098784e-01 9.2134151501067263e-01
vn 8.3160890238164246e-04 9.9490441265438034e-01 -1.0081923480901780e-01
vn 5.1934010305806563e-03 9.9453231863894931e-01 -1.0430002765278144e-01
vn 2.1997275271041791e-01 9.4140664982034161e-01 -2.5566679045007407e-01
vn 1.8859438026704793e-03 9.9447134673219006e-01 -1.0499135080870942e-01
vn 1.5740195798883716e-01 9.3655805597090858e-01 -3.1318306374590671e-01
vn 1.2595581867860413e-03 9.9427346525389637e-01 -1.0685826970891353e-01
vn 8.1242041199595161e-02 9.3334129188097203e-01 -3.4967665580029994e-01
vn -2.3953765820712342e-05 9.9422837851511237e-01 -1.0728434546301639e-01
vn 1.1123405988051063e-03 9.3232244459436864e-01 -3.6162635689890282e-01
vn -8.2830063615909527e-02 9.3344966257214379e-01 -3.4901419456138949e-01
vn -1.5770317752329949e-01 8.1103115981406959e-01 -5.6334551175073699e-01
vn -2.9895205381903101e-01 8.1540048333814963e-01 -4.9573150120735260e-01
vn -3.9994013755261232e-01 6.7517974757546928e-01 -6.1982271242535403e-01
vn -5.5482440074118100e-01 6.8283616606141306e-01 -4.7529428216710079e-01
vn -6.9325768669882504e-01 4.6164686110213610e-01 -5.5342204100264991e-01
vn -8.4934332750719033e-04 9.9437181301346256e-01 -1.0594326831012763e-01
vn -1.5722620992594480e-01 9.3646280851359287e-01 -3.1355593947995369e-01
vn -4.1527237476532924e-01 8.2279040506046719e-01 -3.8802680847745064e-01
vn -2.2393874345488121e-03 9.9442566717856462e-01 -1.0541621127883799e-01
vn -2.1874968410543474e-01 9.4136194707163201e-01 -2.5687790934465043e-01
vn -1.1240139929952805e-03 9.9472658931067715e-01 -1.0255607788371580e-01
vn -5.3302979729641264e-01 5.0133633087644358e-01 6.8157253358501058e-01
vn -7.2663546661861755e-01 4.9472810458546285e-01 4.7670221436995558e-01
vn -8.4401637995857515e-01 4.8668101447495465e-01 2.2533961150062187e-01
vn -4.3418708720461935e-01 7.3336173313281627e-01 5.2312727101652845e-01
vn -5.9020972483820466e-01 7.2495942007456426e-01 3.5508635562572954e-01
vn -6.8315618346075879e-01 7.1465491295318406e-01 1.5021978694967922e-01
vn -3.2788207822000848e-01 8.7197068464803063e-01 3.6353881209105149e-01
vn -4.4506052943715907e-01 8.6380930001830036e-01 2.3612415873647838e-01
vn -5.1424707141299553e-01 8.5378093681907063e-01 8.1289983808016594e-02
vn -5.0102708156424247e-01 4.5549469498578321e-01 -7.3586442119389517e-01
vn -2.1120067400004031e-01 6.7087782803175533e-01 -7.1085667694502486e-01
vn 2.1938555974059188e-03 8.0927600525392773e-01 -5.8742449243954964e-01
vn -2.6508674686192485e-01 4.5241937957907552e-01 -8.5149616653244320e-01
vn 2.9787677136629892e-03 6.6898280557453216e-01 -7.4327191039923990e-01
vn 1.5459348963993033e-01 8.1074259973083318e-01 -5.6462136865570267e-01
vn 3.7484348909856396e-03 4.5074780710543982e-01 -8.9264346949132234e-01
vn 2.0697967584785393e-01 6.7040887201386512e-01 -7.1253867130915371e-01
vn 2.9931129701796982e-01 8.1567832018439945e-01 -4.9505719412869531e-01
vn 6.6151992054422248e-01 6.9193473775382874e-01 -2.8916727583304808e-01
vn 8.7707961059343020e-01 4.7825691255639380e-01 -4.4740163983858966e-02
vn 7.0716721896278967e-01 7.0373921682208929e-01 -6.8305483901854466e-02
vn 6.8307004492383261e-01 7.1412358066134241e-01 1.5311050019896225e-01
vn 4.4767137785934280e-01 8.6307288887136080e-01 2.3387074622697313e-01
vn 8.4330100374420192e-01 4.8637040799936682e-01 2.2866404025677281e-01
vn 5.9335939169921059e-01 7.2393597923770192e-01 3.5191096920598036e-01
vn 3.2774953248140531e-01 8.7199164765696624e-01 3.6360804498073124e-01
vn 3.8347765629560671e-01 -0.0000000000000000e+00 9.2355015409128083e-01
vn -3.8347765629560543e-01 0.0000000000000000e+00 9.2355015409128138e-01
vn -3.8352713069426708e-01 0.0000000000000000e+00 9.2352960971558606e-01
vn -7.0791069960296527e-01 0.0000000000000000e+00 7.0630194774447586e-01
vn -7.0803991059309512e-01 0.0000000000000000e+00 7.0617241875290060e-01
vn -9.2423069801091740e-01 0.0000000000000000e+00 3.8183454120109728e-01
vn -9.2425671165393142e-01 0.0000000000000000e+00 3.8177156908635995e-01
vn -9.9999999649134408e-01 0.0000000000000000e+00 -8.3769396300514449e-05
vn -9.9999999677251150e-01 0.0000000000000000e+00 -8.0342872382072313e-05
vn -9.2417686365239526e-01 0.0000000000000000e+00 -3.8196482127235509e-01
vn -9.2417401539795296e-01 0.0000000000000000e+00 -3.8197171264797120e-01
vn -7.0786352558618926e-01 0.0000000000000000e+00 -7.0634922605230510e-01
vn -7.0802470763103587e-01 0.0000000000000000e+00 -7.0618766159144020e-01
vn -3.8346280396570287e-01 0.0000000000000000e+00 -9.2355632095436446e-01
vn -3.8340604807953532e-01 0.0000000000000000e+00 -9.2357988409018144e-01
vn -1.1840359716493292e-04 0.0000000000000000e+00 -9.9999999299029396e-01
vn 3.8361478104550384e-01 0.0000000000000000e+00 -9.2349320504452559e-01
vn 3.8346280396570087e-01 0.0000000000000000e+00 -9.2355632095436524e-01
vn 7.0787899865403670e-01 0.0000000000000000e+00 -7.0633371947299706e-01
vn 7.0786352558618870e-01 0.0000000000000000e+00 -7.0634922605230566e-01
vn 9.2417686365239526e-01 0.0000000000000000e+00 -3.8196482127235504e-01
vn 9.9999999649134408e-01 0.0000000000000000e+00 -8.3769396306126334e-05
vn 9.9999998464294870e-01 0.0000000000000000e+00 -1.7525439347348650e-04
vn 9.2422426643282640e-01 0.0000000000000000e+00 -3.8185010846758166e-01
vn 9.2423069801092594e-01 -0.0000000000000000e+00 3.8183454120107657e-01
vn 9.2425684296555222e-01 -0.0000000000000000e+00 3.8177125118498711e-01
vn 9.2425684296555211e-01 -0.0000000000000000e+00 3.8177125118498745e-01
vn 9.2423069801092572e-01 -0.0000000000000000e+00 3.8183454120107685e-01
vn 7.0786734131318940e-01 -0.0000000000000000e+00 7.0634540212434060e-01
vn 7.0791069960296549e-01 -0.0000000000000000e+00 7.0630194774447563e-01
vn 3.8353166702780811e-01 -0.0000000000000000e+00 9.2352772583548925e-01
vn 0.0000000000000000e+00 9.8775014484959178e-01 -1.5604374819136638e-01
vn 0.0000000000000000e+00 9.8940479277125026e-01 -1.4518318098622651e-01
vn 0.0000000000000000e+00 9.8779881422402305e-01 -1.5573536084529455e-01
vn 0.0000000000000000e+00 9.8905242115402514e-01 -1.4756458995762123e-01
vn 0.0000000000000000e+00 9.8761275820863181e-01 -1.5691092958598749e-01
vn 0.0000000000000000e+00 9.8761177141502665e-01 -1.5691714043555902e-01
vn 0.0000000000000000e+00 9.8740431261665551e-01 -1.5821732972727734e-01
vn 0.0000000000000000e+00 9.8715869297290360e-01 -1.5974265206271160e-01
vn 0.0000000000000000e+00 9.8691071564315458e-01 -1.6126760167099993e-01
vn 0.0000000000000000e+00 9.8608493375609896e-01 -1.6624230333831991e-01
vn 0.0000000000000000e+00 9.8669751544059592e-01 -1.6256694935734953e-01
vn 0.0000000000000000e+00 9.8608493375604123e-01 -1.6624230333866227e-01
vn 0.0000000000000000e+00 9.8655328940926224e-01 -1.6343991910107059e-01
vn 0.0000000000000000e+00 9.8650216070611751e-01 -1.6374824250098508e-01
vn 0.0000000000000000e+00 9.8608493375451811e-01 -1.6624230334769630e-01
vn 0.0000000000000000e+00 9.8634436939862891e-01 -1.6469603806898653e-01
vn 0.0000000000000000e+00 9.8685596602906678e-01 -1.6160229674369564e-01
vn 0.0000000000000000e+00 9.8660138036688338e-01 -1.6314936793674800e-01
vn 0.0000000000000000e+00 9.9580163512390896e-01 -9.1537443074128741e-02
vn 0.0000000000000000e+00 9.9580149683218733e-01 -9.1538947485620858e-02
vn 0.0000000000000000e+00 9.9583359985476139e-01 -9.1189042106531920e-02
vn 0.0000000000000000e+00 9.9584234338573230e-01 -9.1093507562357817e-02
vn 0.0000000000000000e+00 9.9584983463114474e-01 -9.1011575445773152e-02
vn 0.0000000000000000e+00 9.9585679335993293e-01 -9.0935400801183119e-02
vn 0.0000000000000000e+00 9.9585683997098617e-01 -9.0934890350192976e-02
vn 0.0000000000000000e+00 9.9490297983868758e-01 -1.0083680234963770e-01
vn 0.0000000000000000e+00 9.9502628890455391e-01 -9.9612671828594720e-02
vn 0.0000000000000000e+00 9.9513318782096583e-01 -9.8539020176183170e-02
vn 0.0000000000000000e+00 9.9520400963882805e-01 -9.7821159259127405e-02
vn 0.0000000000000000e+00 9.9391386685148320e-01 -1.1015999854907389e-01
vn 0.0000000000000000e+00 9.9466046431345956e-01 -1.0320155392111534e-01
vn 0.0000000000000000e+00 9.9477109550880705e-01 -1.0212966043323513e-01
vn 0.0000000000000000e+00 9.9489953897878736e-01 -1.0087074570853678e-01
vn 0.0000000000000000e+00 9.9283408536212658e-01 -1.1950095791728806e-01
vn 0.0000000000000000e+00 9.9367231398763134e-01 -1.1231799684140613e-01
vn 0.0000000000000000e+00 9.9456453736900685e-01 -1.0412195257472542e-01
vn 0.0000000000000000e+00 9.9455945993183692e-01 -1.0417044043342069e-01
vn 0.0000000000000000e+00 9.9458577525765668e-01 -1.0391888978970970e-01
vn 0.0000000000000000e+00 9.9466054583825825e-01 -1.0320076817901154e-01
vn 0.0000000000000000e+00 9.9477092254247201e-01 -1.0213134515905967e-01
vn 0.0000000000000000e+00 9.9489957073175284e-01 -1.0087043252496783e-01
vn 0.0000000000000000e+00 9.9538683548264129e-01 -9.5942940062587259e-02
vn 0.0000000000000000e+00 9.9502660177073032e-01 -9.9609546573571017e-02
vn 0.0000000000000000e+00 9.9513328535286771e-01 -9.8538035208785790e-02
vn 0.0000000000000000e+00 9.9520411169361223e-01 -9.7820120977886046e-02
vn 0.0000000000000000e+00 9.9522890991382007e-01 -9.7567499054497298e-02
vn 0.0000000000000000e+00 9.9271009821272493e-01 -1.2052659833614332e-01
vn 0.0000000000000000e+00 9.9166369430497858e-01 -1.2885308454748695e-01
vn 0.0000000000000000e+00 9.9167795411375803e-01 -1.2874329234857723e-01
vn 0.0000000000000000e+00 9.9057607694078331e-01 -1.3696362945178972e-01
vn 0.0000000000000000e+00 9.9040297312990710e-01 -1.3820980723320780e-01
vn 0.0000000000000000e+00 9.9458587988233893e-01 -1.0391788844406663e-01
vn 3.4006354289605745e-01 8.1961474883902125e-02 -9.3682394473446118e-01
vn 3.3973467766483595e-01 8.1971834002280211e-02 -9.3694234999933301e-01
vn 1.7527791941811241e-01 8.5806484233998434e-02 -9.8077260271066824e-01
vn 1.7493675409094664e-01 8.5811772676119752e-02 -9.8083304988071518e-01
vn 9.8110768104052830e-03 8.7151547961602752e-02 -9.9614675146773268e-01
vn 4.3888300660151612e-16 8.7155742747658208e-02 -9.9619469809174555e-01
vn 9.8105771223609382e-03 8.7151548388891539e-02 -9.9614675635166572e-01
vn -1.9742961350156782e-01 8.5440261918608915e-02 9.7658666249130244e-01
vn -2.0251730869694634e-01 8.5349761004962624e-02 9.7555223231487787e-01
vn -2.0419546252064055e-01 8.5319383186485201e-02 9.7520501226083711e-01
vn -2.0385153951306531e-01 8.5325630162469482e-02 9.7527641552307143e-01
vn -1.9319611290051222e-01 8.5513742605315787e-02 9.7742655058360484e-01
vn -1.5736925964765480e-01 8.6069767388971166e-02 9.8378194294241716e-01
vn -9.7056269201455991e-02 8.6744271412569143e-02 9.9149155921056475e-01
vn -7.8930887038800829e-02 8.6883824728198153e-02 9.9308666090722819e-01
vn 6.0908344714105241e-16 8.7155742747660442e-02 9.9619469809174532e-01
vn 7.1655732177252099e-16 8.7155742747660442e-02 9.9619469809174532e-01
vn 7.8930887038802133e-02 8.6883824728198139e-02 9.9308666090722797e-01
vn 9.7056269201457102e-02 8.6744271412569143e-02 9.9149155921056475e-01
vn 1.5736925964765625e-01 8.6069767388971138e-02 9.8378194294241694e-01
vn 1.9319611290051328e-01 8.5513742605315760e-02 9.7742655058360461e-01
vn 1.9742961350156901e-01 8.5440261918608901e-02 9.7658666249130222e-01
vn 2.0251730906818988e-01 8.5349760998271351e-02 9.7555223223839604e-01
vn 2.0419546252063966e-01 8.5319383186485215e-02 9.7520501226083733e-01
vn 2.0385153951306664e-01 8.5325630162469454e-02 9.7527641552307121e-01
vn 2.0419546252064183e-01 8.5319383186485187e-02 9.7520501226083678e-01
vn 0.0000000000000000e+00 5.1067720228857028e-01 8.5977252518484149e-01
vn -1.0171532799338583e-13 5.1067720228855207e-01 8.5977252518485214e-01
vn -8.1786811367215648e-02 4.9118971720561616e-01 8.6720446216440239e-01
vn -1.7783135570291531e-01 4.6796318002944692e-01 8.6567111021772614e-01
vn -1.3839074910213386e-01 4.7555483125284259e-01 8.6873218142016051e-01
vn -1.5801091759992464e-01 4.6828043760464488e-01 8.6933651808493140e-01
vn -1.3860133742236788e-01 4.6855690737536576e-01 8.7249303367738340e-01
vn -9.2584756872786347e-02 4.8374569903286291e-01 8.7029774299489826e-01
vn -5.6947900618717004e-02 4.9749359334119753e-01 8.6559636159100395e-01
vn -1.0239004363966033e-13 5.1067720228854507e-01 8.5977252518485647e-01
vn -7.4079427405602838e-14 5.1067720228855085e-01 8.5977252518485303e-01
vn -4.6343504740323019e-02 4.9779818508629792e-01 8.6605383579380990e-01
vn -1.0000000000000000e+00 -0.0000000000000000e+00 -0.0000000000000000e+00
vn 1.7783795959301421e-01 4.6796009368549596e-01 8.6567142198738156e-01
vn 8.9340766857900350e-02 4.6909280142488491e-01 8.7861833069234097e-01
vn 1.5801234819321441e-01 4.6828071234758373e-01 8.6933611006428690e-01
vn 1.2260092207492251e-01 4.6875679271740051e-01 8.7477773359161071e-01
vn 1.3115443305350491e-01 4.6865304714092376e-01 8.7359191622630106e-01
vn 3.5453566991968921e-16 4.6947156278589286e-01 8.8294759285892599e-01
vn 7.0245294551233933e-02 4.6923762085671694e-01 8.8027362437263690e-01
vn 1.0521193783071875e-01 4.6894579329638469e-01 8.7693802009465260e-01
vn -8.9340766857899642e-02 4.6909280142488491e-01 8.7861833069234108e-01
vn -7.0243050305341656e-02 4.6923763582661598e-01 8.8027379547936635e-01
vn -1.1724690073175013e-07 4.6947156278589219e-01 8.8294759285891855e-01
vn -1.7783795959301360e-01 4.6796009368549585e-01 8.6567142198738178e-01
vn -1.3528137795865144e-01 4.6860043830247494e-01 8.7299059445124438e-01
vn -1.3116682933418877e-01 4.6865289160923762e-01 8.7359013849099509e-01
vn -1.2260857100001943e-01 4.6875670312638335e-01 8.7477670956159836e-01
vn -1.5801230761600657e-01 4.6828071296380652e-01 8.6933611710774639e-01
vn -1.3860133742242678e-01 4.6855690737534700e-01 8.7249303367738429e-01
vn -1.3723566750275881e-01 4.6857494455238730e-01 8.7269919955434794e-01
vn -1.3804833881787545e-01 4.6856423315449058e-01 8.7257676771615289e-01
vn -1.0523418081690490e-01 4.6894557023208677e-01 8.7693547045805942e-01
vn 1.3860133742242764e-01 4.6855690737534711e-01 8.7249303367738407e-01
vn 1.3528434978022272e-01 4.6860039981875934e-01 8.7299015458036033e-01
vn 1.3720447485235243e-01 4.6857535439745485e-01 8.7270388410490640e-01
vn 1.3802321636890949e-01 4.6856456524945422e-01 8.7258056357895741e-01
vn 1.7783671788935052e-01 4.6796019509848391e-01 8.6567162225276428e-01
vn 7.8506953574906335e-02 4.9111262336933070e-01 8.6755117970508311e-01
vn -1.0839284554108415e-14 5.1067720228857261e-01 8.5977252518483993e-01
vn 5.4660534436994243e-02 4.9741278861277960e-01 8.6579024232173030e-01
vn -2.9989658450834391e-14 5.1067720228857671e-01 8.5977252518483760e-01
vn -5.6294390241149416e-16 5.1067720228856894e-01 8.5977252518484215e-01
vn 4.6342321884352021e-02 4.9779840217169119e-01 8.6605377431062458e-01
vn 1.3286131423164263e-01 4.7557544920162453e-01 8.6958372989454780e-01
vn 1.5801210523699416e-01 4.6828044076515868e-01 8.6933630051629729e-01
vn 1.3860003116413799e-01 4.6855695771017136e-01 8.7249321415280290e-01
vn 9.2583513560207983e-02 4.8374583329408177e-01 8.7029780063347351e-01
vn -1.1810780761425783e-13 -9.8591051122455009e-01 1.6727361972811652e-01
vn 4.6873679467135966e-12 -9.8596879041776675e-01 1.6692975864754014e-01
vn -4.6983468331852990e-02 -9.9061179239791519e-01 -1.2837768679057759e-01
vn -6.2155144464115568e-02 -9.7177234381105992e-01 -2.2758569775054888e-01
vn -8.9925916322055377e-02 -9.0596284766927004e-01 -4.1369632366825027e-01
vn -1.1437619843302244e-01 -8.0241727935869989e-01 -5.8570008965219755e-01
vn -1.2480923669835914e-01 -7.3890397610043723e-01 -6.6215071436776207e-01
vn -1.4834045293024442e-01 -5.0489445122225729e-01 -8.5033916947852384e-01
vn -1.4834045293024534e-01 -5.0489445122224541e-01 -8.5033916947853072e-01
vn -1.4834045293024153e-01 -5.0489445122223386e-01 -8.5033916947853816e-01
vn -1.1437617896657774e-01 -8.0241727988111977e-01 -5.8570009273790447e-01
vn -7.4406639576050579e-02 -5.0912404439769376e-01 -8.5747090877949617e-01
vn -6.0315703227979203e-02 -7.4231764686757151e-01 -6.6732790073029746e-01
vn -1.2532987719747429e-09 -5.1054291791161521e-01 -8.5985227159686772e-01
vn 4.4035877049271900e-03 -7.4317627617405702e-01 -6.6908118412296325e-01
vn 7.4406638326976568e-02 -5.0912404441428238e-01 -8.5747090887803434e-01
vn 6.4691523355121683e-02 -7.4218784841002883e-01 -6.6706236925679274e-01
vn 1.4834045293014500e-01 -5.0489445122224785e-01 -8.5033916947854671e-01
vn 5.9321968536539309e-02 -8.0467275764736779e-01 -5.9074754095902116e-01
vn 1.1437617896650291e-01 -8.0241727988112355e-01 -5.8570009273791401e-01
vn 3.9557488866091936e-02 -9.4488839784492906e-01 -3.2499403178004960e-01
vn 6.2155154109418888e-02 -9.7177234355220055e-01 -2.2758569622166136e-01
vn 1.6120065422421271e-02 -9.9945765770641137e-01 -2.8714699071919633e-02
vn 7.2667302135407174e-15 -9.8596879041765306e-01 1.6692975864821094e-01
vn -8.0192691322581781e-09 -9.8604981613456200e-01 1.6645047341776006e-01
vn 1.0956191627986614e-03 -9.9956926255452594e-01 -2.9327273566619641e-02
vn -6.8007905431190668e-16 -9.8607696003643230e-01 1.6628959343659619e-01
vn -1.5028384075424995e-02 -9.9947235073836216e-01 -2.8795273598526797e-02
vn 8.0193755129548754e-09 -9.8604981613410825e-01 1.6645047342044753e-01
vn -7.0026569546448531e-15 -9.8596879041765328e-01 1.6692975864821091e-01
vn -6.2155154109461895e-02 -9.7177234355219599e-01 -2.2758569622166852e-01
vn -3.6880270615209737e-02 -9.4494010474435108e-01 -3.2515849071657926e-01
vn -5.5308762833540318e-02 -8.0478103324622907e-01 -5.9098936477821251e-01
vn 4.0376132696607206e-03 -8.0549704748144346e-01 -5.9258603103495611e-01
vn 2.6912975680127116e-03 -9.4528164137179072e-01 -3.2624434922746742e-01
vn -1.5420966854733478e-13 -9.8591051122456075e-01 1.6727361972805296e-01
vn 4.6870811809265285e-02 -9.9071116073135701e-01 -1.2765000196892926e-01
vn 3.3412241401720391e-15 -9.8596879041764973e-01 1.6692975864823137e-01
vn 6.2155144467729559e-02 -9.7177234381095812e-01 -2.2758569774999607e-01
vn 8.9798513510001149e-02 -9.0637389995415663e-01 -4.1282269856838844e-01
vn 1.1437619843498652e-01 -8.0241727935863605e-01 -5.8570008965190146e-01
vn 1.2472863137677966e-01 -7.3945700633002154e-01 -6.6154826301965153e-01
vn 1.4834045293024281e-01 -5.0489445122225096e-01 -8.5033916947852783e-01
vn 1.4834045293024328e-01 -5.0489445122226062e-01 -8.5033916947852195e-01
vn -1.4834045293024703e-01 -5.0489445122224696e-01 -8.5033916947852939e-01
vn -7.4406463609994936e-02 -5.0912769145566805e-01 -8.5746875859478200e-01
vn -1.4834045293024506e-01 -5.0489445122224708e-01 -8.5033916947852972e-01
vn -4.9609610819691986e-02 -5.0991427885517471e-01 -8.5879352275964771e-01
vn -1.2532988845921058e-09 -5.1054291791161088e-01 -8.5985227159687039e-01
vn 4.9609610819691972e-02 -5.0991427885517471e-01 -8.5879352275964771e-01
vn 7.4406462360120162e-02 -5.0912769150327986e-01 -8.5746875867496941e-01
vn 1.4834045293024500e-01 -5.0489445122224708e-01 -8.5033916947852972e-01
vn 1.4834045293019477e-01 -5.0489445122225096e-01 -8.5033916947853627e-01
vn -1.4834045293024506e-01 -5.0489445122224719e-01 -8.5033916947852972e-01
vn 0.0000000000000000e+00 -9.9619469809174532e-01 8.7155742747660386e-02
vn 1.4834045293024506e-01 -5.0489445122224719e-01 -8.5033916947852972e-01
vn 9.3923623958175640e-06 9.8960376179766640e-01 -1.4382070277846365e-01
vn -2.7176044493455271e-03 9.6816705355926957e-01 2.5029017365533796e-01
vn -1.7590062331776575e-04 9.8963923235156570e-01 -1.4357631716120292e-01
vn -3.0720298341166487e-02 9.2600459357073039e-01 3.7626022372254014e-01
vn 1.2841063034743556e-03 9.9211850065071217e-01 1.2529657512312278e-01
vn -4.6148799153648154e-02 8.2882591945096740e-01 5.5760011081682403e-01
vn -3.4062818066415645e-03 9.2324588308161781e-01 3.8419452965535239e-01
vn 2.3019748127020923e-03 8.2565022976105473e-01 5.6417763072234539e-01
vn -4.9939978151635228e-02 6.8526524534643563e-01 7.2657934329466278e-01
vn 2.5719976034323873e-03 7.2842130727784660e-01 6.8512464846330035e-01
vn -4.6113376654664667e-02 6.1937579148348065e-01 7.8373923304739379e-01
vn -7.9660420325837911e-03 6.5398863604068891e-01 7.5646242874578673e-01
vn -1.2849730765268283e-13 5.1067720228856894e-01 8.5977252518484215e-01
vn -4.6343506667605561e-02 4.9779819046381812e-01 8.6605383259973956e-01
vn -6.6972707732369532e-02 5.8655267366561703e-01 8.0713729775962573e-01
vn -1.1484957135363515e-01 5.0524966051084796e-01 8.5529664825343443e-01
vn -1.1225969514185631e-01 5.2237510968197265e-01 8.4529403501468314e-01
vn -1.3117857528567831e-01 4.6865618663094233e-01 8.7358660710805491e-01
vn -1.2256411270487111e-01 4.6875533236102207e-01 8.7478367420750103e-01
vn -9.6039558249459867e-02 5.6559458775036808e-01 8.1907213696886294e-01
vn -1.0527923214720633e-01 4.6895023467535984e-01 8.7692756866027410e-01
vn -6.4706867561664647e-02 6.0490041845103948e-01 7.9366775482446972e-01
vn -7.0251360447874500e-02 4.6924137585002790e-01 8.8027113865308315e-01
vn -5.5923701587515997e-03 6.2990442055064932e-01 7.7665252614458047e-01
vn 7.0569682478678754e-08 4.6947217449888629e-01 8.8294726760508313e-01
vn 5.4121315604402441e-02 6.1297884329935737e-01 7.8824350353468231e-01
vn 7.0243796044310650e-02 4.6923769318645991e-01 8.8027370539527927e-01
vn 7.0261454961824163e-02 5.9971679998371619e-01 7.9712175215831282e-01
vn 8.2243724515222202e-02 5.8614541332857018e-01 8.0602079638911550e-01
vn 4.5066464336431931e-02 8.4227352730199290e-01 5.3716321448743309e-01
vn 5.1817848363442116e-02 8.1137983472178121e-01 5.8221789254353784e-01
vn 3.2208528369860538e-02 9.1528128064458758e-01 4.0152557577550602e-01
vn 3.6882739732913401e-02 8.8406011021561648e-01 4.6591564154398829e-01
vn -5.2801954293679727e-05 9.9223107315912684e-01 1.2440857956524198e-01
vn -1.1723509173478207e-05 9.2465461447868313e-01 3.8080683264069409e-01
vn 2.5429541878288765e-02 9.4141791635305971e-01 3.3628209165717377e-01
vn 1.5867353760475278e-04 8.2613486867918096e-01 5.6347240711071278e-01
vn 4.6254185362384168e-02 7.1478155584317260e-01 6.9781650723014266e-01
vn 4.2480480281240129e-02 8.1439182982789382e-01 5.7875846110847495e-01
vn 6.0057652165807780e-02 7.4774956369875678e-01 6.6125915373977973e-01
vn 9.7949389632307676e-02 5.6075187353936584e-01 8.2216984461408538e-01
vn 1.0521204733561838e-01 4.6894583375684928e-01 8.7693798532025125e-01
vn 2.4500398005702608e-04 7.3030776580193302e-01 6.8311822343020445e-01
vn 4.7673141236254581e-02 6.4320091107509736e-01 7.6421192060634113e-01
vn 6.7844950061058590e-02 6.0546795033808565e-01 7.9297265013656681e-01
vn 4.6343506667589580e-02 4.9779819046370422e-01 8.6605383259980595e-01
vn 9.2584944290536653e-02 4.8374622194957168e-01 8.7029743239896662e-01
vn -1.8382592132438035e-04 6.5093045316353726e-01 7.5913734683016520e-01
vn -9.6189994067217947e-14 5.1067720228848912e-01 8.5977252518488956e-01
vn 1.3860133742231465e-01 4.6855690737525085e-01 8.7249303367745368e-01
vn 1.3802274965502587e-01 4.6856402799233388e-01 8.7258092590272984e-01
vn 1.3720295079186448e-01 4.6857431767962626e-01 8.7270468035016169e-01
vn 1.1415794677868972e-01 5.1130632247374652e-01 8.5178272334301719e-01
vn 1.3528691161770101e-01 4.6860139744290330e-01 8.7298922207522278e-01
vn 1.3115502809280463e-01 4.6865318912749471e-01 8.7359175072032602e-01
vn 1.0957874869139955e-01 5.3056418081565726e-01 8.4053206236921019e-01
vn 1.2260093135862735e-01 4.6875679379767121e-01 8.7477773171161877e-01
vn -1.3527031095111516e-01 4.6859611453625699e-01 8.7299463023360691e-01
vn -1.3724264802908764e-01 4.6857263116320746e-01 8.7269934392478654e-01
vn -1.3798337748269243e-01 4.6849157808643227e-01 8.7262605324420217e-01
vn -1.3860133742238853e-01 4.6855690737540917e-01 8.7249303367735687e-01
vn -9.2584944290553542e-02 4.8374622194971773e-01 8.7029743239888369e-01
vn -3.7637941981366755e-03 9.0236904445985178e-01 4.3094772473450671e-01
vn -4.2325732417722271e-02 8.5344372930528689e-01 5.1946350524823959e-01
vn -6.1920690784248396e-02 7.6047110737632728e-01 6.4641281152110852e-01
vn -6.8854144098506515e-02 6.3926280283900672e-01 7.6589958594249108e-01
vn 3.5415302713215385e-02 8.7019058158619622e-01 4.9144084898633411e-01
vn 6.5710192665553072e-02 6.6342665341935136e-01 7.4535041833533278e-01
vn -0.0000000000000000e+00 9.8960379396958820e-01 -1.4382048171591125e-01
vn 0.0000000000000000e+00 9.9227253711205909e-01 1.2407744393400849e-01
vn -0.0000000000000000e+00 9.8960379321882452e-01 -1.4382048688178603e-01
vn 0.0000000000000000e+00 9.6922648836057601e-01 2.4617070146592571e-01
vn 0.0000000000000000e+00 9.2569986966156848e-01 3.7825884167928608e-01
vn 0.0000000000000000e+00 8.0103403979920607e-01 5.9861879947339114e-01
vn 0.0000000000000000e+00 8.2609200244847036e-01 5.6353527262335279e-01
vn 0.0000000000000000e+00 7.3085449468052210e-01 6.8253330146248437e-01
vn 0.0000000000000000e+00 6.5142037876659364e-01 7.5871700266145869e-01
vn 0.0000000000000000e+00 5.1067720228857383e-01 8.5977252518483926e-01
vn 0.0000000000000000e+00 5.1067720228857927e-01 8.5977252518483605e-01
vn 0.0000000000000000e+00 5.1067720228856661e-01 8.5977252518484337e-01
vn 0.0000000000000000e+00 6.5103138570466679e-01 7.5905081175601241e-01
vn 0.0000000000000000e+00 7.3025000647308713e-01 6.8318001145090324e-01
vn 0.0000000000000000e+00 8.2611564643359792e-01 5.6350061110667726e-01
vn 0.0000000000000000e+00 9.2466293050282489e-01 3.8078663967362120e-01
vn 0.0000000000000000e+00 9.9223204050751446e-01 1.2440087535983986e-01
vn -0.0000000000000000e+00 9.8960379324623649e-01 -1.4382048669316938e-01
vn -0.0000000000000000e+00 -8.7155742747671072e-02 -9.9619469809174443e-01

g face 0
f 16//1 1//2 17//3
f 17//3 1//2 2//4
f 17//3 2//4 32//5
f 32//5 2//4 31//6
f 31//6 2//4 3//7
f 31//6 3//7 30//8
f 30//8 3//7 4//9
f 30//8 4//9 29//10
f 29//10 4//9 5//11
f 29//10 5//11 6//12
f 29//10 6//12 28//13
f 28//13 6//12 7//14
f 28//13 7//14 27//15
f 27//15 7//14 8//16
f 27//15 8//16 26//17
f 26//17 8//16 9//18
f 26//17 9//18 25//19
f 25//19 9//18 24//20
f 24//20 9//18 10//21
f 24//20 10//21 23//22
f 23//22 10//21 11//23
f 23//22 11//23 22//24
f 22//24 11//23 12//25
f 22//24 12//25 21//26
f 21//26 12//25 13//27
f 21//28 13//29 14//30
f 21//28 14//30 20//31
f 20//31 14//30 15//32
f 20//31 15//32 19//33
f 19//33 15//32 16//1
f 19//33 16//1 18//34
f 18//34 16//1 17//3

g face 1
f 33//35 34//36 42//37
f 42//37 34//36 41//38
f 41//38 34//36 40//39
f 40//39 34//36 39//40
f 39//40 34//36 38//41
f 38//41 34//36 37//42
f 37//42 34//36 35//43
f 37//42 35//43 36//43

g face 2
f 44//44 45//44 43//45
f 43//45 45//44 46//46
f 43//45 46//46 50//47
f 50//47 46//46 49//48
f 49//48 46//46 48//49
f 48//49 46//46 47//46

g face 3
f 51//50 52//51 46//52
f 46//52 52//51 53//53
f 46//52 53//53 47//52

g face 4
f 44//54 54//55 45//54
f 45//54 54//55 55//56

g face 5
f 57//57 71//58 56//59
f 56//59 71//58 72//60
f 56//59 72//60 74//61
f 74//61 72//60 73//61
f 74//61 73//61 35//62
f 35//62 73//61 36//62
f 71//58 57//57 70//63
f 70//63 57//57 58//64
f 70//63 58//64 69//65
f 69//65 58//64 59//66
f 69//65 59//66 60//67
f 69//65 60//67 68//68
f 68//68 60//67 61//69
f 68//68 61//69 67//70
f 67//70 61//69 62//71
f 67//70 62//71 66//72
f 66//72 62//71 65//73
f 65//73 62//71 63//74
f 65//73 63//74 64//75

g face 6
f 16//76 102//77 1//78
f 1//78 102//77 65//79
f 1//78 65//79 2//76
f 2//76 65//79 3//80
f 3//80 65//79 4//81
f 4//81 65//79 64//82
f 4//81 64//82 5//83
f 5//83 64//82 6//84
f 6//84 64//82 7//85
f 7//85 64//82 91//86
f 7//85 91//86 8//87
f 8//87 91//86 9//88
f 9//88 91//86 92//89
f 9//88 92//89 96//90
f 96//90 92//89 95//91
f 95//91 92//89 94//92
f 94//92 92//89 93//93
f 102//77 16//76 101//94
f 101//94 16//76 15//80
f 101//94 15//80 14//95
f 14//95 13//96 101//94
f 101//94 13//96 12//84
f 101//94 12//84 98//97
f 98//97 12//84 11//85
f 98//97 11//85 97//98
f 97//98 11//85 10//87
f 97//98 10//87 96//90
f 96//90 10//87 9//88
f 76//99 54//100 75//101
f 75//101 54//100 72//102
f 75//101 72//102 90//99
f 90//99 72//102 89//103
f 89//103 72//102 88//104
f 88//104 72//102 87//105
f 87//105 72//102 71//106
f 87//105 71//106 86//107
f 86//107 71//106 85//108
f 85//108 71//106 84//109
f 84//109 71//106 83//110
f 83//110 71//106 106//111
f 83//110 106//111 82//112
f 82//112 106//111 107//113
f 82//112 107//113 81//108
f 81//108 107//113 80//107
f 80//107 107//113 79//114
f 79//114 107//113 78//115
f 78//115 107//113 77//103
f 77//103 107//113 54//100
f 77//103 54//100 76//99
f 43//116 37//116 44//117
f 44//117 37//116 36//118
f 44//117 36//118 54//100
f 54//100 36//118 73//119
f 54//100 73//119 72//102
f 71//106 70//120 106//111
f 106//111 70//120 105//121
f 105//121 70//120 69//122
f 105//121 69//122 104//123
f 104//123 69//122 68//124
f 104//123 68//124 67//125
f 104//123 67//125 103//126
f 103//126 67//125 66//127
f 103//126 66//127 102//77
f 102//77 66//127 65//79
f 99//128 100//129 98//97
f 98//97 100//129 101//94

g face 7
f 48//130 40//130 49//130
f 49//130 40//130 39//130
f 49//130 39//130 50//130
f 50//130 39//130 38//130
f 50//130 38//130 43//130
f 43//130 38//130 37//130

g face 8
f 108//131 109//132 100//133
f 100//133 109//132 101//134
f 101//134 109//132 110//135
f 101//134 110//135 102//136
f 102//136 110//135 103//137
f 103//137 110//135 111//138
f 103//137 111//138 112//139
f 103//137 112//139 104//140
f 104//140 112//139 113//141
f 104//140 113//141 105//142
f 105//142 113//141 106//143
f 106//143 113//141 114//144
f 106//143 114//144 115//145
f 55//146 54//147 115//145
f 115//145 54//147 107//148
f 115//145 107//148 106//143

g face 9
f 64//149 63//149 91//149
f 91//149 63//149 116//149
f 91//149 116//149 92//149
f 92//149 116//149 117//149
f 92//149 117//149 93//149
f 93//149 117//149 118//149
f 93//149 118//149 128//149
f 128//149 118//149 119//149
f 128//149 119//149 120//149
f 128//149 120//149 127//149
f 127//149 120//149 121//149
f 127//149 121//149 126//149
f 126//149 121//149 125//149
f 125//149 121//149 122//149
f 125//149 122//149 124//149
f 124//149 122//149 123//149

g face 10
f 163//150 129//151 168//152
f 168//152 129//151 130//153
f 168//152 130//153 131//154
f 132//155 166//156 131//154
f 131//154 166//156 167//157
f 131//154 167//157 168//152
f 168//152 167//157 173//158
f 168//152 173//158 163//150
f 163//150 173//158 162//159
f 162//159 173//158 178//160
f 162//159 178//160 161//161
f 161//161 178//160 183//162
f 161//161 183//162 160//163
f 160//163 183//162 189//164
f 160//163 189//164 188//165
f 188//165 189//164 190//166
f 188//165 190//166 187//167
f 187//167 190//166 191//168
f 187//167 191//168 186//169
f 186//169 191//168 192//170
f 186//169 192//170 185//171
f 185//171 192//170 193//172
f 185//171 193//172 184//173
f 184//173 193//172 137//174
f 184//173 137//174 138//175
f 166//156 132//155 165//176
f 165//176 132//155 133//177
f 165//176 133//177 164//178
f 164//178 133//177 134//179
f 164//178 134//179 169//180
f 169//180 134//179 135//181
f 169//180 135//181 174//182
f 174//182 135//181 136//183
f 174//182 136//183 179//184
f 179//184 136//183 137//174
f 179//184 137//174 193//172
f 184//173 138//175 194//185
f 194//185 138//175 139//186
f 194//185 139//186 199//187
f 199//187 139//186 140//188
f 199//187 140//188 204//189
f 204//189 140//188 141//190
f 204//189 141//190 213//191
f 213//191 141//190 214//192
f 213//191 214//192 215//193
f 215//193 214//192 220//194
f 215//193 220//194 221//195
f 221//195 220//194 226//196
f 221//195 226//196 227//197
f 227//197 226//196 232//198
f 227//197 232//198 233//199
f 233//199 232//198 235//200
f 233//199 235//200 234//201
f 234//201 235//200 242//202
f 234//201 242//202 243//203
f 243//203 242//202 248//204
f 243//203 248//204 151//205
f 151//205 248//204 150//206
f 150//206 248//204 253//207
f 150//206 253//207 149//208
f 149//208 253//207 258//209
f 149//208 258//209 129//151
f 129//151 258//209 130//153
f 130//153 258//209 257//210
f 130//153 257//210 256//211
f 256//211 257//210 251//212
f 256//211 251//212 250//213
f 250//213 251//212 245//214
f 250//213 245//214 244//215
f 244//215 245//214 239//216
f 244//215 239//216 146//217
f 146//217 239//216 145//218
f 145//218 239//216 238//219
f 145//218 238//219 229//220
f 229//220 238//219 230//221
f 229//220 230//221 224//222
f 224//222 230//221 225//223
f 224//222 225//223 219//224
f 219//224 225//223 220//194
f 219//224 220//194 214//192
f 141//190 142//225 214//192
f 214//192 142//225 219//224
f 142//225 143//226 219//224
f 219//224 143//226 224//222
f 143//226 144//227 224//222
f 224//222 144//227 229//220
f 144//227 145//218 229//220
f 146//217 147//228 244//215
f 244//215 147//228 249//229
f 244//215 249//229 250//213
f 250//213 249//229 255//230
f 250//213 255//230 256//211
f 256//211 255//230 131//154
f 256//211 131//154 130//153
f 147//228 148//231 249//229
f 249//229 148//231 254//232
f 249//229 254//232 255//230
f 255//230 254//232 131//154
f 148//231 133//177 254//232
f 254//232 133//177 132//155
f 254//232 132//155 131//154
f 151//205 152//233 243//203
f 243//203 152//233 234//201
f 234//201 152//233 233//199
f 233//199 152//233 153//234
f 233//199 153//234 228//235
f 228//235 153//234 154//236
f 228//235 154//236 223//237
f 223//237 154//236 155//238
f 223//237 155//238 218//239
f 218//239 155//238 156//240
f 218//239 156//240 209//241
f 209//241 156//240 208//242
f 209//241 208//242 207//243
f 207//243 208//242 202//244
f 207//243 202//244 201//245
f 201//245 202//244 196//246
f 201//245 196//246 195//247
f 195//247 196//246 185//171
f 195//247 185//171 184//173
f 156//240 157//248 208//242
f 208//242 157//248 203//249
f 208//242 203//249 202//244
f 202//244 203//249 197//250
f 202//244 197//250 196//246
f 196//246 197//250 186//169
f 196//246 186//169 185//171
f 157//248 158//251 203//249
f 203//249 158//251 198//252
f 203//249 198//252 197//250
f 197//250 198//252 187//167
f 197//250 187//167 186//169
f 158//251 159//253 198//252
f 198//252 159//253 188//165
f 198//252 188//165 187//167
f 159//253 160//163 188//165
f 165//176 164//178 170//254
f 170//254 164//178 169//180
f 170//254 169//180 175//255
f 175//255 169//180 174//182
f 175//255 174//182 180//256
f 180//256 174//182 179//184
f 180//256 179//184 192//170
f 192//170 179//184 193//172
f 166//156 165//176 171//257
f 171//257 165//176 170//254
f 171//257 170//254 176//258
f 176//258 170//254 175//255
f 176//258 175//255 181//259
f 181//259 175//255 180//256
f 181//259 180//256 191//168
f 191//168 180//256 192//170
f 167//157 166//156 172//260
f 172//260 166//156 171//257
f 172//260 171//257 177//261
f 177//261 171//257 176//258
f 177//261 176//258 182//262
f 182//262 176//258 181//259
f 182//262 181//259 190//166
f 190//166 181//259 191//168
f 178//160 173//158 172//260
f 172//260 173//158 167//157
f 178//160 172//260 177//261
f 183//162 178//160 177//261
f 183//162 177//261 182//262
f 189//164 183//162 182//262
f 189//164 182//262 190//166
f 184//173 194//185 195//247
f 195//247 194//185 200//263
f 195//247 200//263 201//245
f 201//245 200//263 206//264
f 201//245 206//264 207//243
f 207//243 206//264 210//265
f 207//243 210//265 209//241
f 209//241 210//265 218//239
f 194//185 199//187 200//263
f 200//263 199//187 205//266
f 200//263 205//266 206//264
f 206//264 205//266 211//267
f 206//264 211//267 210//265
f 210//265 211//267 217//268
f 210//265 217//268 218//239
f 218//239 217//268 223//237
f 199//187 204//189 205//266
f 205//266 204//189 212//269
f 205//266 212//269 211//267
f 211//267 212//269 216//270
f 211//267 216//270 217//268
f 217//268 216//270 222//271
f 217//268 222//271 223//237
f 223//237 222//271 228//235
f 216//270 212//269 215//193
f 215//193 212//269 213//191
f 213//191 212//269 204//189
f 222//271 216//270 221//195
f 221//195 216//270 215//193
f 226//196 220//194 225//223
f 228//235 222//271 227//197
f 227//197 222//271 221//195
f 226//196 225//223 231//272
f 231//272 225//223 230//221
f 231//272 230//221 237//273
f 237//273 230//221 238//219
f 237//273 238//219 239//216
f 233//199 228//235 227//197
f 226//196 231//272 232//198
f 232//198 231//272 236//274
f 232//198 236//274 235//200
f 235//200 236//274 241//275
f 235//200 241//275 242//202
f 242//202 241//275 247//276
f 242//202 247//276 248//204
f 248//204 247//276 253//207
f 236//274 231//272 237//273
f 236//274 237//273 240//277
f 240//277 237//273 239//216
f 240//277 239//216 245//214
f 236//274 240//277 241//275
f 241//275 240//277 246//278
f 241//275 246//278 247//276
f 247//276 246//278 252//279
f 247//276 252//279 253//207
f 253//207 252//279 258//209
f 246//278 240//277 245//214
f 252//279 246//278 251//212
f 251//212 246//278 245//214
f 258//209 252//279 257//210
f 257//210 252//279 251//212

g face 11
f 76//280 75//2 133//2
f 133//2 75//2 90//281
f 133//2 90//281 134//282
f 134//282 90//281 89//283
f 134//282 89//283 135//284
f 135//284 89//283 88//285
f 135//284 88//285 136//286
f 136//286 88//285 87//287
f 136//286 87//287 137//288
f 137//288 87//287 86//289
f 137//288 86//289 138//290
f 138//290 86//289 85//291
f 138//290 85//291 139//292
f 139//292 85//291 84//293
f 139//292 84//293 140//294
f 140//294 84//293 83//19
f 140//294 83//19 141//295
f 141//295 83//19 142//296
f 142//296 83//19 82//297
f 142//296 82//297 143//298
f 143//298 82//297 81//299
f 143//298 81//299 80//300
f 79//301 145//302 80//300
f 80//300 145//302 144//303
f 80//300 144//303 143//298
f 79//301 78//304 145//302
f 145//302 78//304 146//305
f 146//306 78//307 147//308
f 147//308 78//307 77//309
f 147//308 77//309 148//310
f 148//310 77//309 76//280
f 148//310 76//280 133//2

g face 12
f 32//311 62//312 17//313
f 17//313 62//312 110//314
f 17//313 110//314 18//311
f 18//311 110//314 109//315
f 18//311 109//315 19//316
f 19//316 109//315 20//317
f 20//317 109//315 21//318
f 21//318 109//315 22//319
f 22//319 109//315 108//320
f 22//319 108//320 23//321
f 23//321 108//320 259//322
f 23//321 259//322 24//323
f 24//323 259//322 25//324
f 25//324 259//322 260//325
f 25//324 260//325 117//326
f 117//326 260//325 118//320
f 32//311 31//316 62//312
f 62//312 31//316 30//317
f 62//312 30//317 63//327
f 63//327 30//317 29//318
f 63//327 29//318 28//319
f 28//319 27//321 63//327
f 63//327 27//321 116//328
f 116//328 27//321 26//323
f 116//328 26//323 25//324
f 55//329 74//330 45//331
f 45//331 74//330 261//332
f 45//331 261//332 46//333
f 46//333 261//332 262//334
f 46//333 262//334 51//335
f 115//336 151//337 55//329
f 55//329 151//337 150//338
f 55//329 150//338 149//339
f 114//340 154//341 115//336
f 115//336 154//341 153//342
f 115//336 153//342 152//343
f 113//344 58//345 114//340
f 114//340 58//345 57//346
f 114//340 57//346 156//347
f 156//347 57//346 157//348
f 157//348 57//346 158//349
f 158//349 57//346 159//350
f 159//350 57//346 160//351
f 160//351 57//346 56//352
f 160//351 56//352 161//353
f 161//353 56//352 162//354
f 162//354 56//352 163//355
f 163//355 56//352 129//356
f 129//356 56//352 55//329
f 129//356 55//329 149//339
f 58//345 113//344 59//357
f 59//357 113//344 112//358
f 59//357 112//358 60//359
f 60//359 112//358 61//360
f 61//360 112//358 111//361
f 61//360 111//361 62//312
f 62//312 111//361 110//314
f 117//326 116//328 25//324
f 56//352 74//330 55//329
f 156//347 155//362 114//340
f 114//340 155//362 154//341
f 152//343 151//337 115//336

g face 13
f 74//363 35//364 261//365
f 261//365 35//364 34//366
f 261//365 34//366 33//367
f 51//368 262//369 33//367
f 33//367 262//369 261//365

g face 14
f 263//370 279//371 122//372
f 122//372 279//371 280//373
f 122//372 280//373 123//372
f 263//370 264//374 279//371
f 279//371 264//374 278//375
f 278//375 264//374 265//376
f 278//375 265//376 277//377
f 277//377 265//376 266//378
f 277//377 266//378 276//379
f 276//379 266//378 275//380
f 275//380 266//378 267//381
f 275//380 267//381 274//382
f 274//382 267//381 268//383
f 274//382 268//383 269//384
f 274//382 269//384 273//385
f 273//385 269//384 270//386
f 273//385 270//386 272//387
f 272//387 270//386 271//388

g face 15
f 122//389 121//389 263//389
f 263//389 121//389 282//389
f 282//389 121//389 281//389

g face 16
f 263//390 288//391 264//392
f 264//392 288//391 289//393
f 264//392 289//393 286//394
f 286//394 289//393 285//395
f 285//395 289//393 284//396
f 284//396 289//393 288//391
f 284//396 288//391 287//397
f 287//397 288//391 263//390
f 287//397 263//390 282//398
f 281//399 283//400 282//398
f 282//398 283//400 284//396
f 282//398 284//396 287//397

g face 17
f 100//401 99//401 108//401
f 108//401 99//401 297//401
f 297//401 99//401 290//401
f 297//401 290//401 291//401
f 297//401 291//401 296//401
f 296//401 291//401 292//401
f 296//401 292//401 295//401
f 295//401 292//401 293//401
f 295//401 293//401 270//401
f 270//401 293//401 294//401
f 270//401 294//401 271//401

g face 18
f 268//402 267//403 314//404
f 314//404 267//403 308//405
f 314//404 308//405 309//406
f 266//407 306//408 267//403
f 267//403 306//408 307//409
f 267//403 307//409 308//405
f 265//410 304//411 266//407
f 266//407 304//411 305//412
f 266//407 305//412 306//408
f 264//413 300//414 265//410
f 265//410 300//414 301//415
f 265//410 301//415 302//416
f 264//413 286//417 300//414
f 300//414 286//417 285//418
f 300//414 285//418 299//419
f 299//419 285//418 298//420
f 302//416 303//421 265//410
f 265//410 303//421 304//411
f 314//404 309//406 313//422
f 313//422 309//406 310//423
f 313//422 310//423 311//424
f 311//424 312//425 313//422

g face 19
f 268//426 320//427 269//428
f 269//428 320//427 321//429
f 269//428 321//429 318//430
f 318//430 321//429 317//431
f 317//431 321//429 316//432
f 316//432 321//429 320//427
f 316//432 320//427 319//433
f 319//433 320//427 268//426
f 319//433 268//426 314//434
f 314//434 313//435 319//433
f 319//433 313//435 315//436
f 319//433 315//436 316//432

g face 20
f 99//437 98//438 290//439
f 290//439 98//438 322//440
f 290//439 322//440 291//441
f 291//441 322//440 323//442
f 291//441 323//442 292//443
f 292//443 323//442 324//444
f 292//443 324//444 293//445

g face 21
f 324//446 323//447 330//448
f 330//448 323//447 334//449
f 330//448 334//449 329//450
f 329//450 334//449 338//451
f 329//450 338//451 328//452
f 328//452 338//451 342//453
f 328//452 342//453 327//454
f 327//454 342//453 341//455
f 327//454 341//455 326//456
f 326//456 341//455 340//457
f 326//456 340//457 325//458
f 325//458 340//457 339//459
f 325//458 339//459 94//460
f 94//460 339//459 95//461
f 95//461 339//459 335//462
f 95//461 335//462 96//463
f 96//463 335//462 331//464
f 96//463 331//464 97//465
f 97//465 331//464 98//466
f 98//466 331//464 322//467
f 322//467 331//464 332//468
f 322//467 332//468 333//469
f 333//469 332//468 337//470
f 333//469 337//470 338//451
f 338//451 337//470 342//453
f 334//449 323//447 333//469
f 333//469 323//447 322//467
f 332//468 331//464 336//471
f 336//471 331//464 335//462
f 336//471 335//462 340//457
f 340//457 335//462 339//459
f 338//451 334//449 333//469
f 332//468 336//471 337//470
f 337//470 336//471 341//455
f 337//470 341//455 342//453
f 341//455 336//471 340//457

g face 22
f 93//472 128//473 94//474
f 94//474 128//473 325//475
f 325//475 128//473 127//476
f 325//475 127//476 326//477
f 326//477 127//476 126//478
f 326//477 126//478 327//479
f 327//479 126//478 125//480

g face 23
f 324//481 330//482 346//483
f 346//483 330//482 345//484
f 345//484 330//482 329//485
f 345//484 329//485 344//486
f 344//486 329//485 328//487
f 344//486 328//487 343//488
f 343//488 328//487 327//489

g face 24
f 324//490 346//490 293//490
f 293//490 346//490 294//490

g face 25
f 274//491 273//491 294//491
f 294//491 273//491 272//491
f 294//491 272//491 271//491
f 294//491 346//491 274//491
f 274//491 346//491 275//491
f 275//491 346//491 345//491
f 275//491 345//491 276//491
f 276//491 345//491 344//491
f 276//491 344//491 277//491
f 277//491 344//491 343//491
f 277//491 343//491 278//491
f 278//491 343//491 124//491
f 278//491 124//491 279//491
f 279//491 124//491 280//491
f 280//491 124//491 123//491

g face 26
f 327//492 125//492 343//492
f 343//492 125//492 124//492

g face 27
f 259//493 360//494 260//495
f 260//495 360//494 365//496
f 260//495 365//496 356//497
f 356//497 365//496 383//498
f 356//497 383//498 355//499
f 355//499 383//498 354//500
f 354//500 383//498 386//501
f 354//500 386//501 353//502
f 353//502 386//501 389//503
f 353//502 389//503 352//504
f 352//504 389//503 281//505
f 281//505 389//503 283//506
f 283//506 389//503 388//507
f 283//506 388//507 387//508
f 387//508 388//507 384//509
f 387//508 384//509 301//510
f 301//510 384//509 302//511
f 302//511 384//509 381//512
f 302//511 381//512 303//513
f 303//513 381//512 363//514
f 303//513 363//514 304//515
f 304//515 363//514 362//516
f 304//515 362//516 305//517
f 305//517 362//516 367//518
f 305//517 367//518 306//519
f 306//519 367//518 369//520
f 306//519 369//520 359//521
f 359//521 369//520 370//522
f 359//521 370//522 368//523
f 368//523 370//522 371//524
f 368//523 371//524 357//525
f 357//525 371//524 347//526
f 357//525 347//526 348//527
f 360//494 259//493 358//528
f 358//528 259//493 347//526
f 358//528 347//526 371//524
f 349//529 372//530 348//527
f 348//527 372//530 377//531
f 348//527 377//531 357//525
f 357//525 377//531 376//532
f 357//525 376//532 368//523
f 368//523 376//532 375//533
f 368//523 375//533 359//521
f 359//521 375//533 307//534
f 359//521 307//534 306//519
f 349//529 350//535 372//530
f 372//530 350//535 378//536
f 372//530 378//536 379//537
f 379//537 378//536 316//538
f 379//537 316//538 315//539
f 350//535 351//540 378//536
f 378//536 351//540 316//538
f 351//540 317//541 316//538
f 313//542 312//543 315//539
f 315//539 312//543 311//544
f 315//539 311//544 380//545
f 380//545 311//544 310//546
f 380//545 310//546 309//547
f 380//545 309//547 374//548
f 374//548 309//547 308//549
f 374//548 308//549 375//533
f 375//533 308//549 307//534
f 301//510 300//550 387//508
f 387//508 300//550 299//551
f 387//508 299//551 298//552
f 285//553 284//554 298//552
f 298//552 284//554 387//508
f 284//554 283//506 387//508
f 360//494 361//555 365//496
f 365//496 361//555 364//556
f 365//496 364//556 383//498
f 383//498 364//556 382//557
f 383//498 382//557 386//501
f 386//501 382//557 385//558
f 386//501 385//558 389//503
f 389//503 385//558 388//507
f 361//555 362//516 364//556
f 364//556 362//516 363//514
f 364//556 363//514 382//557
f 382//557 363//514 381//512
f 382//557 381//512 385//558
f 385//558 381//512 384//509
f 385//558 384//509 388//507
f 361//555 360//494 366//559
f 366//559 360//494 358//528
f 366//559 358//528 370//522
f 370//522 358//528 371//524
f 362//516 361//555 367//518
f 367//518 361//555 366//559
f 367//518 366//559 369//520
f 369//520 366//559 370//522
f 376//532 377//531 373//560
f 373//560 377//531 372//530
f 373//560 372//530 379//537
f 375//533 376//532 374//548
f 374//548 376//532 373//560
f 374//548 373//560 380//545
f 380//545 373//560 379//537
f 380//545 379//537 315//539

g face 28
f 270//389 269//389 295//389
f 295//389 269//389 318//389
f 295//389 318//389 317//389

g face 29
f 260//561 356//562 118//563
f 118//563 356//562 119//564
f 119//564 356//562 355//565
f 119//564 355//565 120//566
f 120//566 355//565 354//567
f 120//566 354//567 353//568
f 353//568 352//569 120//566
f 120//566 352//569 121//570
f 121//570 352//569 281//571

g face 30
f 317//572 351//573 295//570
f 295//570 351//573 296//566
f 296//566 351//573 350//574
f 296//566 350//574 349//575
f 349//575 348//576 296//566
f 296//566 348//576 297//564
f 297//564 348//576 347//577
f 297//564 347//577 108//563
f 108//563 347//577 259//578

g face 31
f 51//579 33//579 52//579
f 52//579 33//579 42//579
f 52//579 42//579 53//579
f 53//579 42//579 41//579
f 53//579 41//579 47//579
f 47//579 41//579 40//579
f 47//579 40//579 48//579

g halfedge 0 edge 0
l 1 16 15 14 13 12 11 10 9 8 7 6 5 4 3 2 1

g halfedge 1 edge 0
l 1 2 3 4 5 6 7 8 9 10 11 12 13 14 15 16 1

g halfedge 2 edge 1
l 17 32 31 30 29 28 27 26 25 24 23 22 21 20 19 18 17

g halfedge 3 edge 1
l 17 18 19 20 21 22 23 24 25 26 27 28 29 30 31 32 17

g halfedge 4 edge 2
l 35 34 33

g halfedge 5 edge 2
l 33 34 35

g halfedge 6 edge 3
l 36 35

g halfedge 7 edge 3
l 35 36

g halfedge 8 edge 4
l 37 36

g halfedge 9 edge 4
l 36 37

g halfedge 10 edge 5
l 40 39 38 37

g halfedge 11 edge 5
l 37 38 39 40

g halfedge 12 edge 6
l 33 42 41 40

g halfedge 13 edge 6
l 40 41 42 33

g halfedge 14 edge 7
l 44 43

g halfedge 15 edge 7
l 43 44

g halfedge 16 edge 8
l 44 45

g halfedge 17 edge 8
l 45 44

g halfedge 18 edge 9
l 46 45

g halfedge 19 edge 9
l 45 46

g halfedge 20 edge 10
l 46 47

g halfedge 21 edge 10
l 47 46

g halfedge 22 edge 11
l 48 47

g halfedge 23 edge 11
l 47 48

g halfedge 24 edge 12
l 43 50 49 48

g halfedge 25 edge 12
l 48 49 50 43

g halfedge 26 edge 13
l 47 53 52 51

g halfedge 27 edge 13
l 51 52 53 47

g halfedge 28 edge 14
l 51 46

g halfedge 29 edge 14
l 46 51

g halfedge 30 edge 15
l 54 44

g halfedge 31 edge 15
l 44 54

g halfedge 32 edge 16
l 55 54

g halfedge 33 edge 16
l 54 55

g halfedge 34 edge 17
l 45 55

g halfedge 35 edge 17
l 55 45

g halfedge 36 edge 18
l 63 62 61 60 59 58 57 56

g halfedge 37 edge 18
l 56 57 58 59 60 61 62 63

g halfedge 38 edge 19
l 64 63

g halfedge 39 edge 19
l 63 64

g halfedge 40 edge 20
l 72 71 70 69 68 67 66 65 64

g halfedge 41 edge 20
l 64 65 66 67 68 69 70 71 72

g halfedge 42 edge 21
l 73 72

g halfedge 43 edge 21
l 72 73

g halfedge 44 edge 22
l 36 73

g halfedge 45 edge 22
l 73 36

g halfedge 46 edge 23
l 74 35

g halfedge 47 edge 23
l 35 74

g halfedge 48 edge 24
l 56 74

g halfedge 49 edge 24
l 74 56

g halfedge 50 edge 25
l 75 76 77 78 79 80 81 82 83 84 85 86 87 88 89 90 75

g halfedge 51 edge 25
l 75 90 89 88 87 86 85 84 83 82 81 80 79 78 77 76 75

g halfedge 52 edge 26
l 93 92 91 64

g halfedge 53 edge 26
l 64 91 92 93

g halfedge 54 edge 27
l 93 94

g halfedge 55 edge 27
l 94 93

g halfedge 56 edge 28
l 94 95 96 97 98

g halfedge 57 edge 28
l 98 97 96 95 94

g halfedge 58 edge 29
l 98 99

g halfedge 59 edge 29
l 99 98

g halfedge 60 edge 30
l 99 100

g halfedge 61 edge 30
l 100 99

g halfedge 62 edge 31
l 100 101 102 103 104 105 106 107 54

g halfedge 63 edge 31
l 54 107 106 105 104 103 102 101 100

g halfedge 64 edge 32
l 37 43

g halfedge 65 edge 32
l 43 37

g halfedge 66 edge 33
l 40 48

g halfedge 67 edge 33
l 48 40

g halfedge 68 edge 34
l 55 115 114 113 112 111 110 109 108

g halfedge 69 edge 34
l 108 109 110 111 112 113 114 115 55

g halfedge 70 edge 35
l 108 100

g halfedge 71 edge 35
l 100 108

g halfedge 72 edge 36
l 63 116 117 118

g halfedge 73 edge 36
l 118 117 116 63

g halfedge 74 edge 37
l 118 119 120 121

g halfedge 75 edge 37
l 121 120 119 118

g halfedge 76 edge 38
l 121 122

g halfedge 77 edge 38
l 122 121

g halfedge 78 edge 39
l 122 123

g halfedge 79 edge 39
l 123 122

g halfedge 80 edge 40
l 123 124

g halfedge 81 edge 40
l 124 123

g halfedge 82 edge 41
l 124 125

g halfedge 83 edge 41
l 125 124

g halfedge 84 edge 42
l 93 128 127 126 125

g halfedge 85 edge 42
l 125 126 127 128 93

g halfedge 86 edge 43
l 129 130 131 132 133

g halfedge 87 edge 43
l 133 132 131 130 129

g halfedge 88 edge 44
l 133 148 147 146 145 144 143 142 141 140 139 138 137 136 135 134 133

g halfedge 89 edge 44
l 133 134 135 136 137 138 139 140 141 142 143 144 145 146 147 148 133

g halfedge 90 edge 45
l 129 163 162 161 160 159 158 157 156 155 154 153 152 151 150 149 129

g halfedge 91 edge 45
l 129 149 150 151 152 153 154 155 156 157 158 159 160 161 162 163 129

g halfedge 92 edge 46
l 259 108

g halfedge 93 edge 46
l 108 259

g halfedge 94 edge 47
l 259 260

g halfedge 95 edge 47
l 260 259

g halfedge 96 edge 48
l 118 260

g halfedge 97 edge 48
l 260 118

g halfedge 98 edge 49
l 74 261 262 51

g halfedge 99 edge 49
l 51 262 261 74

g halfedge 100 edge 50
l 51 33

g halfedge 101 edge 50
l 33 51

g halfedge 102 edge 51
l 263 122

g halfedge 103 edge 51
l 122 263

g halfedge 104 edge 52
l 264 263

g halfedge 105 edge 52
l 263 264

g halfedge 106 edge 53
l 268 267 266 265 264

g halfedge 107 edge 53
l 264 265 266 267 268

g halfedge 108 edge 54
l 269 268

g halfedge 109 edge 54
l 268 269

g halfedge 110 edge 55
l 270 269

g halfedge 111 edge 55
l 269 270

g halfedge 112 edge 56
l 271 270

g halfedge 113 edge 56
l 270 271

g halfedge 114 edge 57
l 273 272 271

g halfedge 115 edge 57
l 271 272 273

g halfedge 116 edge 58
l 279 278 277 276 275 274 273

g halfedge 117 edge 58
l 273 274 275 276 277 278 279

g halfedge 118 edge 59
l 123 280 279

g halfedge 119 edge 59
l 279 280 123

g halfedge 120 edge 60
l 121 281

g halfedge 121 edge 60
l 281 121

g halfedge 122 edge 61
l 281 282 263

g halfedge 123 edge 61
l 263 282 281

g halfedge 124 edge 62
l 285 284 283 281

g halfedge 125 edge 62
l 281 283 284 285

g halfedge 126 edge 63
l 264 286 285

g halfedge 127 edge 63
l 285 286 264

g halfedge 128 edge 64
l 293 292 291 290 99

g halfedge 129 edge 64
l 99 290 291 292 293

g halfedge 130 edge 65
l 293 294

g halfedge 131 edge 65
l 294 293

g halfedge 132 edge 66
l 271 294

g halfedge 133 edge 66
l 294 271

g halfedge 134 edge 67
l 295 270

g halfedge 135 edge 67
l 270 295

g halfedge 136 edge 68
l 108 297 296 295

g halfedge 137 edge 68
l 295 296 297 108

g halfedge 138 edge 69
l 285 298 299 300 301 302 303 304 305 306 307 308 309 310 311 312 313

g halfedge 139 edge 69
l 313 312 311 310 309 308 307 306 305 304 303 302 301 300 299 298 285

g halfedge 140 edge 70
l 313 314 268

g halfedge 141 edge 70
l 268 314 313

g halfedge 142 edge 71
l 313 315 316 317

g halfedge 143 edge 71
l 317 316 315 313

g halfedge 144 edge 72
l 269 318 317

g halfedge 145 edge 72
l 317 318 269

g halfedge 146 edge 73
l 98 322 323 324

g halfedge 147 edge 73
l 324 323 322 98

g halfedge 148 edge 74
l 293 324

g halfedge 149 edge 74
l 324 293

g halfedge 150 edge 75
l 94 325 326 327

g halfedge 151 edge 75
l 327 326 325 94

g halfedge 152 edge 76
l 324 330 329 328 327

g halfedge 153 edge 76
l 327 328 329 330 324

g halfedge 154 edge 77
l 327 125

g halfedge 155 edge 77
l 125 327

g halfedge 156 edge 78
l 343 327

g halfedge 157 edge 78
l 327 343

g halfedge 158 edge 79
l 346 345 344 343

g halfedge 159 edge 79
l 343 344 345 346

g halfedge 160 edge 80
l 324 346

g halfedge 161 edge 80
l 346 324

g halfedge 162 edge 81
l 294 346

g halfedge 163 edge 81
l 346 294

g halfedge 164 edge 82
l 343 124

g halfedge 165 edge 82
l 124 343

g halfedge 166 edge 83
l 317 351 350 349 348 347 259

g halfedge 167 edge 83
l 259 347 348 349 350 351 317

g halfedge 168 edge 84
l 260 356 355 354 353 352 281

g halfedge 169 edge 84
l 281 352 353 354 355 356 260

g halfedge 170 edge 85
l 317 295

g halfedge 171 edge 85
l 295 317

g vertex 0
p 1

g vertex 1
p 17

g vertex 2
p 33

g vertex 3
p 35

g vertex 4
p 36

g vertex 5
p 37

g vertex 6
p 40

g vertex 7
p 43

g vertex 8
p 44

g vertex 9
p 45

g vertex 10
p 46

g vertex 11
p 47

g vertex 12
p 48

g vertex 13
p 51

g vertex 14
p 54

g vertex 15
p 55

g vertex 16
p 56

g vertex 17
p 63

g vertex 18
p 64

g vertex 19
p 72

g vertex 20
p 73

g vertex 21
p 74

g vertex 22
p 75

g vertex 23
p 93

g vertex 24
p 94

g vertex 25
p 98

g vertex 26
p 99

g vertex 27
p 100

g vertex 28
p 108

g vertex 29
p 118

g vertex 30
p 121

g vertex 31
p 122

g vertex 32
p 123

g vertex 33
p 124

g vertex 34
p 125

g vertex 35
p 129

g vertex 36
p 133

g vertex 37
p 259

g vertex 38
p 260

g vertex 39
p 263

g vertex 40
p 264

g vertex 41
p 268

g vertex 42
p 269

g vertex 43
p 270

g vertex 44
p 271

g vertex 45
p 273

g vertex 46
p 279

g vertex 47
p 281

g vertex 48
p 285

g vertex 49
p 293

g vertex 50
p 294

g vertex 51
p 295

g vertex 52
p 313

g vertex 53
p 317

g vertex 54
p 324

g vertex 55
p 327

g vertex 56
p 343

g vertex 57
p 346

# End of file
