# Created by FreeCAD <https://www.freecad.org>
v 7.200000 -2.200000 4.000000
v 7.200000 2.200000 4.000000
v 7.148236 2.148236 3.993185
v 7.148236 -2.148236 3.993185
v 7.100000 -2.100000 3.973205
v 7.100000 2.100000 3.973205
v 7.058578 -2.058579 3.941421
v 7.058578 2.058579 3.941421
v 7.029472 -2.029472 3.904500
v 7.029472 2.029472 3.904500
v 7.012745 -2.012745 3.870254
v 7.012745 2.012745 3.870254
v 7.003493 2.003493 3.837214
v 7.003493 -2.003493 3.837214
v 7.000875 -2.000875 3.818689
v 7.000875 2.000875 3.818689
v 7.000000 -2.000000 3.800000
v 7.000000 2.000000 3.800000
v 1.830992 2.169008 3.997584
v 1.800000 2.200000 4.000000
v 1.800000 -2.200000 4.000000
v 1.851764 -2.148236 3.993185
v 1.861235 2.138765 3.990395
v 1.900000 -2.100000 3.973205
v 1.902861 2.097139 3.971521
v 1.930664 2.069336 3.951416
v 1.941421 -2.058579 3.941421
v 1.954622 2.045378 3.926854
v 1.970528 -2.029472 3.904500
v 1.974029 2.025971 3.898559
v 1.987255 -2.012745 3.870254
v 1.988314 2.011686 3.867363
v 1.996507 -2.003493 3.837214
v 1.997057 2.002943 3.834185
v 1.999125 -2.000875 3.818689
v 2.000000 2.000000 3.800000
v 2.000000 -2.000000 3.800000
v 2.000000 2.000000 2.000000
v 7.000000 2.000000 2.000000
v 2.000000 -2.000000 2.000000
v -1.800000 -2.200000 4.000000
v -7.200000 -2.200000 4.000000
v -8.000000 -8.000000 4.000000
v 8.000000 -8.000000 4.000000
v -1.800000 2.200000 4.000000
v -8.000000 8.000000 4.000000
v -7.200000 2.200000 4.000000
v 8.000000 8.000000 4.000000
v -7.169008 -2.169008 3.997584
v -1.851764 -2.148236 3.993185
v -7.138764 -2.138765 3.990395
v -1.900000 -2.100000 3.973205
v -7.097139 -2.097139 3.971521
v -7.069335 -2.069336 3.951416
v -1.941421 -2.058579 3.941421
v -7.045378 -2.045378 3.926854
v -1.970528 -2.029472 3.904500
v -7.025971 -2.025971 3.898559
v -1.987255 -2.012745 3.870254
v -7.011686 -2.011686 3.867363
v -1.996507 -2.003493 3.837214
v -7.002943 -2.002943 3.834185
v -1.999125 -2.000875 3.818689
v -7.000000 -2.000000 3.800000
v -2.000000 -2.000000 3.800000
v -1.851764 2.148236 3.993185
v -1.900000 2.100000 3.973205
v -1.941421 2.058579 3.941421
v -1.970528 2.029472 3.904500
v -1.987255 2.012745 3.870254
v -1.996507 2.003493 3.837214
v -1.999125 2.000875 3.818689
v -2.000000 2.000000 3.800000
v -7.148236 2.148236 3.993185
v -7.100000 2.100000 3.973205
v -7.058578 2.058579 3.941421
v -7.029472 2.029472 3.904500
v -7.012745 2.012745 3.870254
v -7.003493 2.003493 3.837214
v -7.000875 2.000875 3.818689
v -7.000000 2.000000 3.800000
v -7.000000 -2.000000 2.000000
v -7.000000 2.000000 2.000000
v -2.000000 -2.000000 2.000000
v 7.000000 -2.000000 2.000000
v -2.000000 2.000000 2.000000
v -8.000000 8.000000 0.000000
v -8.000000 -8.000000 0.000000
v 8.000000 8.000000 0.000000
v 8.000000 -8.000000 0.000000
vn -0.130525 0.000000 0.991445
vn -0.130525 0.000000 0.991445
vn -0.382684 0.000000 0.923879
vn -0.382684 0.000000 0.923879
vn -0.608762 0.000000 0.793353
vn -0.608762 0.000000 0.793353
vn -0.785316 0.000000 0.619095
vn -0.785316 0.000000 0.619095
vn -0.898549 0.000000 0.438874
vn -0.962954 0.000000 0.269666
vn -0.898549 0.000000 0.438874
vn -0.962954 0.000000 0.269666
vn -0.990163 0.000000 0.139921
vn -0.990163 0.000000 0.139921
vn -0.998906 0.000000 0.046768
vn -0.998906 0.000000 0.046768
vn 0.077716 0.000000 0.996976
vn 0.130898 -0.000380 0.991396
vn 0.382894 -0.000245 0.923792
vn 0.231386 0.000122 0.972862
vn 0.413015 0.000084 0.910724
vn 0.608972 -0.000334 0.793192
vn 0.585924 -0.000074 0.810366
vn 0.785443 -0.000330 0.618934
vn 0.715938 0.000175 0.698164
vn 0.898570 -0.000133 0.438829
vn 0.824704 0.000117 0.565564
vn 0.962959 -0.000060 0.269647
vn 0.909219 0.000060 0.416318
vn 0.990165 -0.000030 0.139904
vn 0.966996 0.000060 0.254792
vn 0.998905 0.000000 0.046775
vn 0.996316 0.000183 0.085763
vn 0.000000 0.130524 0.991445
vn -0.000000 0.130524 0.991445
vn -0.000000 0.382686 0.923879
vn -0.000000 0.382686 0.923879
vn -0.000000 0.608762 0.793353
vn 0.000000 0.608762 0.793353
vn -0.000000 0.785316 0.619095
vn -0.000000 0.898544 0.438884
vn 0.000000 0.785316 0.619095
vn -0.000000 0.962956 0.269660
vn -0.000000 0.898544 0.438884
vn -0.000000 0.990164 0.139908
vn -0.000000 0.962956 0.269660
vn -0.000000 0.990164 0.139908
vn -0.000000 0.998905 0.046781
vn 0.000000 0.998905 0.046781
vn 0.000000 -0.077716 0.996976
vn -0.000099 -0.231363 0.972867
vn 0.000309 -0.130828 0.991405
vn 0.000060 -0.585932 0.810360
vn -0.000068 -0.413002 0.910730
vn 0.000198 -0.382855 0.923808
vn -0.000141 -0.715921 0.698181
vn 0.000269 -0.608931 0.793223
vn -0.000093 -0.824697 0.565575
vn 0.000265 -0.785418 0.618966
vn -0.000048 -0.909217 0.416323
vn 0.000107 -0.898564 0.438842
vn -0.000048 -0.966996 0.254791
vn 0.000048 -0.962959 0.269647
vn -0.000146 -0.996315 0.085769
vn 0.000024 -0.990165 0.139905
vn 0.000000 -0.998905 0.046781
vn 0.000000 -1.000000 0.000000
vn 0.000000 -1.000000 0.000000
vn 1.000000 0.000000 0.000000
vn 1.000000 -0.000000 0.000000
vn 0.000000 0.000000 1.000000
vn 0.000000 0.000000 1.000000
vn 0.000000 0.000000 1.000000
vn 0.000000 0.000000 1.000000
vn 0.000000 0.000000 1.000000
vn 0.000000 0.000000 1.000000
vn 0.000000 0.000000 1.000000
vn 0.000000 0.000000 1.000000
vn 0.000000 0.000000 1.000000
vn 0.000000 0.000000 1.000000
vn 0.000000 -0.000000 1.000000
vn 0.000000 0.000000 1.000000
vn 0.000000 0.000000 1.000000
vn 0.000000 0.000000 1.000000
vn 0.000000 0.077716 0.996975
vn 0.000309 0.130828 0.991405
vn 0.000198 0.382855 0.923808
vn -0.000099 0.231363 0.972867
vn -0.000068 0.413003 0.910730
vn 0.000269 0.608931 0.793223
vn 0.000060 0.585932 0.810360
vn 0.000265 0.785418 0.618966
vn -0.000141 0.715921 0.698181
vn 0.000107 0.898564 0.438842
vn -0.000093 0.824697 0.565575
vn 0.000048 0.962959 0.269647
vn -0.000048 0.909217 0.416323
vn 0.000024 0.990165 0.139905
vn -0.000048 0.966996 0.254791
vn -0.000000 0.998905 0.046781
vn -0.000146 0.996315 0.085769
vn -0.130524 0.000000 0.991445
vn -0.130524 0.000000 0.991445
vn -0.382686 0.000000 0.923879
vn -0.608762 0.000000 0.793353
vn -0.382686 0.000000 0.923879
vn -0.785316 0.000000 0.619095
vn -0.608762 0.000000 0.793353
vn -0.785316 0.000000 0.619095
vn -0.898545 0.000000 0.438882
vn -0.898545 0.000000 0.438882
vn -0.962955 0.000000 0.269663
vn -0.990164 0.000000 0.139908
vn -0.962955 0.000000 0.269663
vn -0.990165 0.000000 0.139908
vn -0.998905 0.000000 0.046775
vn -0.998905 0.000000 0.046775
vn 0.000000 -0.130524 0.991445
vn 0.000000 -0.130524 0.991445
vn 0.000000 -0.382686 0.923879
vn 0.000000 -0.382686 0.923879
vn 0.000000 -0.608762 0.793353
vn 0.000000 -0.608762 0.793353
vn 0.000000 -0.785316 0.619095
vn 0.000000 -0.898544 0.438884
vn 0.000000 -0.785316 0.619095
vn 0.000000 -0.962956 0.269660
vn 0.000000 -0.898544 0.438884
vn 0.000000 -0.990164 0.139908
vn 0.000000 -0.962956 0.269660
vn 0.000000 -0.990164 0.139908
vn 0.000000 -0.998905 0.046781
vn 0.000000 -0.998905 0.046781
vn 0.077716 0.000000 0.996975
vn 0.231385 -0.000122 0.972862
vn 0.130899 0.000380 0.991396
vn 0.585923 0.000074 0.810367
vn 0.413016 -0.000084 0.910724
vn 0.382893 0.000245 0.923793
vn 0.715945 -0.000175 0.698157
vn 0.608972 0.000334 0.793192
vn 0.824701 -0.000117 0.565569
vn 0.785443 0.000329 0.618934
vn 0.909219 -0.000060 0.416318
vn 0.898574 0.000133 0.438822
vn 0.966995 -0.000060 0.254795
vn 0.962958 0.000060 0.269650
vn 0.996316 -0.000183 0.085759
vn 0.990163 0.000030 0.139917
vn 0.998906 0.000000 0.046768
vn 1.000000 0.000000 0.000000
vn 1.000000 -0.000000 0.000000
vn 0.000000 1.000000 -0.000000
vn 0.000000 1.000000 0.000000
vn 0.000000 1.000000 -0.000000
vn 0.000000 1.000000 0.000000
vn -1.000000 0.000000 0.000000
vn -1.000000 -0.000000 0.000000
vn 0.000000 0.000000 1.000000
vn 0.000000 0.000000 1.000000
vn -1.000000 0.000000 0.000000
vn -1.000000 -0.000000 0.000000
vn 0.000000 -1.000000 0.000000
vn 0.000000 -1.000000 0.000000
vn 0.000000 0.000000 1.000000
vn 0.000000 0.000000 1.000000
vn -1.000000 0.000000 0.000000
vn -1.000000 0.000000 0.000000
vn 0.000000 1.000000 0.000000
vn -0.000000 1.000000 0.000000
vn 1.000000 0.000000 0.000000
vn 1.000000 0.000000 0.000000
vn 0.000000 -1.000000 -0.000000
vn -0.000000 -1.000000 0.000000
vn 0.000000 0.000000 -1.000000
vn 0.000000 0.000000 -1.000000
f 1//1 2//1 3//1
f 4//2 1//2 3//2
f 5//3 3//3 6//3
f 5//4 4//4 3//4
f 7//5 6//5 8//5
f 7//6 5//6 6//6
f 9//7 8//7 10//7
f 9//8 7//8 8//8
f 11//9 10//9 12//9
f 11//10 12//10 13//10
f 11//11 9//11 10//11
f 14//12 11//12 13//12
f 15//13 13//13 16//13
f 15//14 14//14 13//14
f 17//15 16//15 18//15
f 17//16 15//16 16//16
f 19//17 20//17 21//17
f 19//18 21//18 22//18
f 23//19 22//19 24//19
f 23//20 19//20 22//20
f 25//21 23//21 24//21
f 26//22 24//22 27//22
f 26//23 25//23 24//23
f 28//24 27//24 29//24
f 28//25 26//25 27//25
f 30//26 29//26 31//26
f 30//27 28//27 29//27
f 32//28 31//28 33//28
f 32//29 30//29 31//29
f 34//30 33//30 35//30
f 34//31 32//31 33//31
f 36//32 35//32 37//32
f 36//33 34//33 35//33
f 22//34 21//34 1//34
f 22//35 1//35 4//35
f 22//36 4//36 5//36
f 24//37 22//37 5//37
f 27//38 5//38 7//38
f 27//39 24//39 5//39
f 29//40 7//40 9//40
f 29//41 9//41 11//41
f 29//42 27//42 7//42
f 31//43 11//43 14//43
f 31//44 29//44 11//44
f 33//45 14//45 15//45
f 33//46 31//46 14//46
f 35//47 33//47 15//47
f 37//48 15//48 17//48
f 37//49 35//49 15//49
f 2//50 20//50 19//50
f 3//51 19//51 23//51
f 3//52 2//52 19//52
f 6//53 25//53 26//53
f 6//54 23//54 25//54
f 6//55 3//55 23//55
f 8//56 26//56 28//56
f 8//57 6//57 26//57
f 10//58 28//58 30//58
f 10//59 8//59 28//59
f 12//60 30//60 32//60
f 12//61 10//61 30//61
f 13//62 32//62 34//62
f 13//63 12//63 32//63
f 16//64 34//64 36//64
f 16//65 13//65 34//65
f 18//66 16//66 36//66
f 38//67 39//67 36//67
f 36//68 39//68 18//68
f 40//69 38//69 37//69
f 37//70 38//70 36//70
f 41//71 42//71 43//71
f 21//72 41//72 43//72
f 44//73 21//73 43//73
f 45//74 46//74 47//74
f 20//75 45//75 41//75
f 20//76 41//76 21//76
f 1//77 21//77 44//77
f 48//78 20//78 2//78
f 48//79 46//79 45//79
f 48//80 45//80 20//80
f 44//81 48//81 2//81
f 44//82 2//82 1//82
f 46//83 43//83 42//83
f 46//84 42//84 47//84
f 49//85 42//85 41//85
f 49//86 41//86 50//86
f 51//87 50//87 52//87
f 51//88 49//88 50//88
f 53//89 51//89 52//89
f 54//90 52//90 55//90
f 54//91 53//91 52//91
f 56//92 55//92 57//92
f 56//93 54//93 55//93
f 58//94 57//94 59//94
f 58//95 56//95 57//95
f 60//96 59//96 61//96
f 60//97 58//97 59//97
f 62//98 61//98 63//98
f 62//99 60//99 61//99
f 64//100 63//100 65//100
f 64//101 62//101 63//101
f 50//102 41//102 45//102
f 50//103 45//103 66//103
f 52//104 66//104 67//104
f 52//105 67//105 68//105
f 52//106 50//106 66//106
f 55//107 68//107 69//107
f 55//108 52//108 68//108
f 57//109 55//109 69//109
f 59//110 69//110 70//110
f 59//111 57//111 69//111
f 61//112 70//112 71//112
f 61//113 71//113 72//113
f 61//114 59//114 70//114
f 63//115 61//115 72//115
f 65//116 72//116 73//116
f 65//117 63//117 72//117
f 66//118 45//118 47//118
f 66//119 47//119 74//119
f 66//120 74//120 75//120
f 67//121 66//121 75//121
f 68//122 75//122 76//122
f 68//123 67//123 75//123
f 69//124 76//124 77//124
f 69//125 77//125 78//125
f 69//126 68//126 76//126
f 70//127 78//127 79//127
f 70//128 69//128 78//128
f 71//129 79//129 80//129
f 71//130 70//130 79//130
f 72//131 71//131 80//131
f 73//132 80//132 81//132
f 73//133 72//133 80//133
f 47//134 42//134 49//134
f 74//135 49//135 51//135
f 74//136 47//136 49//136
f 75//137 53//137 54//137
f 75//138 51//138 53//138
f 75//139 74//139 51//139
f 76//140 54//140 56//140
f 76//141 75//141 54//141
f 77//142 56//142 58//142
f 77//143 76//143 56//143
f 78//144 58//144 60//144
f 78//145 77//145 58//145
f 79//146 60//146 62//146
f 79//147 78//147 60//147
f 80//148 62//148 64//148
f 80//149 79//149 62//149
f 81//150 80//150 64//150
f 82//151 83//151 64//151
f 64//152 83//152 81//152
f 84//153 82//153 65//153
f 65//154 82//154 64//154
f 85//155 40//155 17//155
f 17//156 40//156 37//156
f 39//157 85//157 18//157
f 18//158 85//158 17//158
f 39//159 38//159 85//159
f 85//160 38//160 40//160
f 86//161 84//161 73//161
f 73//162 84//162 65//162
f 83//163 86//163 81//163
f 81//164 86//164 73//164
f 86//165 83//165 84//165
f 84//166 83//166 82//166
f 43//167 87//167 88//167
f 43//168 46//168 87//168
f 46//169 89//169 87//169
f 46//170 48//170 89//170
f 48//171 90//171 89//171
f 48//172 44//172 90//172
f 44//173 88//173 90//173
f 44//174 43//174 88//174
f 87//175 89//175 88//175
f 88//176 89//176 90//176
