# Created by FreeCAD <https://www.freecad.org>
v -3.327521 3.827521 25.993380
v -3.400000 3.900000 26.000000
v -3.400000 -2.900000 26.000000
v -3.275341 -2.775341 25.980080
v -3.257442 3.757442 25.973734
v -3.179537 3.679537 25.933760
v -3.163099 -2.663099 25.922300
v -3.127855 3.627855 25.893150
v -3.089030 -2.589030 25.851589
v -3.083521 3.583521 25.844624
v -3.047732 3.547732 25.789492
v -3.042706 -2.542706 25.779837
v -3.021456 3.521456 25.729244
v -3.014897 -2.514897 25.708147
v -3.005400 3.505400 25.665506
v -3.003742 -2.503742 25.654585
v -3.000000 3.500000 25.600000
v -3.000000 -2.500000 25.600000
v 3.400000 -2.900000 26.000000
v 3.275341 -2.775341 25.980080
v 3.163099 -2.663099 25.922300
v 3.089030 -2.589030 25.851589
v 3.042706 -2.542706 25.779837
v 3.014897 -2.514897 25.708147
v 3.003742 -2.503742 25.654585
v 3.000000 -2.500000 25.600000
v 3.400000 3.900000 26.000000
v 3.275341 3.775341 25.980080
v 3.163099 3.663099 25.922300
v 3.089030 3.589030 25.851589
v 3.042706 3.542706 25.779837
v 3.014897 3.514897 25.708147
v 3.003742 3.503742 25.654585
v 3.000000 3.500000 25.600000
v -3.000000 3.500000 23.000000
v 3.000000 3.500000 23.000000
v -3.000000 -2.500000 23.000000
v -8.000000 5.000000 26.000000
v -8.000000 -4.000000 26.000000
v 8.000000 -4.000000 26.000000
v 8.000000 5.000000 26.000000
v 3.000000 -2.500000 23.000000
v 1.851764 2.148236 16.006815
v 1.800000 2.200000 16.000000
v 7.200000 2.200000 16.000000
v 7.148236 2.148236 16.006815
v 7.100000 2.100000 16.026794
v 1.900000 2.100000 16.026794
v 1.941421 2.058578 16.058578
v 7.058578 2.058578 16.058578
v 7.029472 2.029472 16.095501
v 1.970528 2.029472 16.095501
v 7.012745 2.012745 16.129745
v 1.987255 2.012745 16.129745
v 7.003493 2.003493 16.162786
v 1.996507 2.003493 16.162786
v 7.000875 2.000875 16.181311
v 1.999125 2.000875 16.181311
v 2.000000 2.000000 16.200001
v 7.000000 2.000000 16.200001
v 7.169008 -2.169008 16.002417
v 7.200000 -2.200000 16.000000
v 1.800000 -2.200000 16.000000
v 1.851764 -2.148236 16.006815
v 7.138764 -2.138765 16.009605
v 1.900000 -2.100000 16.026794
v 7.097139 -2.097139 16.028479
v 7.069335 -2.069336 16.048584
v 1.941421 -2.058578 16.058578
v 7.045378 -2.045378 16.073145
v 1.970528 -2.029472 16.095501
v 7.025971 -2.025971 16.101440
v 1.987255 -2.012745 16.129745
v 7.011686 -2.011686 16.132637
v 1.996507 -2.003493 16.162786
v 7.002943 -2.002943 16.165815
v 1.999125 -2.000875 16.181311
v 7.000000 -2.000000 16.200001
v 2.000000 -2.000000 16.200001
v 7.000000 -2.000000 18.000000
v 7.000000 2.000000 18.000000
v 2.000000 -2.000000 18.000000
v 8.000000 5.000000 16.000000
v 8.000000 -4.000000 16.000000
v -8.000000 5.000000 16.000000
v -1.800000 2.200000 16.000000
v -1.800000 -2.200000 16.000000
v -7.200000 2.200000 16.000000
v -7.200000 -2.200000 16.000000
v -8.000000 -4.000000 16.000000
v -1.830992 -2.169008 16.002417
v -7.148236 -2.148236 16.006815
v -1.861235 -2.138765 16.009605
v -7.100000 -2.100000 16.026794
v -1.902861 -2.097139 16.028479
v -1.930664 -2.069336 16.048584
v -7.058578 -2.058578 16.058578
v -1.954622 -2.045378 16.073145
v -7.029472 -2.029472 16.095501
v -1.974029 -2.025971 16.101440
v -7.012745 -2.012745 16.129745
v -1.988314 -2.011686 16.132637
v -7.003493 -2.003493 16.162786
v -1.997057 -2.002943 16.165815
v -7.000875 -2.000875 16.181311
v -2.000000 -2.000000 16.200001
v -7.000000 -2.000000 16.200001
v -7.169008 2.169008 16.002417
v -7.138764 2.138765 16.009605
v -7.097139 2.097139 16.028479
v -7.069335 2.069336 16.048584
v -7.045378 2.045378 16.073145
v -7.025971 2.025971 16.101440
v -7.011686 2.011686 16.132637
v -7.002943 2.002943 16.165815
v -7.000000 2.000000 16.200001
v -1.830992 2.169008 16.002417
v -1.861235 2.138765 16.009605
v -1.902861 2.097139 16.028479
v -1.930664 2.069336 16.048584
v -1.954622 2.045378 16.073145
v -1.974029 2.025971 16.101440
v -1.988314 2.011686 16.132637
v -1.997057 2.002943 16.165815
v -2.000000 2.000000 16.200001
v -2.000000 -2.000000 18.000000
v -2.000000 2.000000 18.000000
v -7.000000 -2.000000 18.000000
v -7.000000 2.000000 18.000000
v 2.000000 2.000000 18.000000
v 7.997584 -1.169008 24.169008
v 8.000000 -1.200000 24.200001
v 8.000000 -1.200000 20.799999
v 7.993185 -1.148236 20.851765
v 7.990395 -1.138765 24.138765
v 7.973205 -1.100000 20.900000
v 7.971521 -1.097139 24.097139
v 7.951416 -1.069336 24.069336
v 7.941422 -1.058579 20.941422
v 7.926854 -1.045378 24.045378
v 7.904500 -1.029472 20.970528
v 7.898559 -1.025971 24.025970
v 7.870254 -1.012745 20.987255
v 7.867363 -1.011686 24.011686
v 7.837214 -1.003493 20.996508
v 7.834185 -1.002943 24.002943
v 7.818689 -1.000875 20.999125
v 7.800000 -1.000000 24.000000
v 7.800000 -1.000000 21.000000
v 7.997584 2.169008 24.169008
v 8.000000 2.200000 24.200001
v 7.990395 2.138765 24.138765
v 7.971521 2.097139 24.097139
v 7.951416 2.069336 24.069336
v 7.926854 2.045378 24.045378
v 7.898559 2.025971 24.025970
v 7.867363 2.011686 24.011686
v 7.834185 2.002943 24.002943
v 7.800000 2.000000 24.000000
v 7.997584 2.169008 20.830992
v 8.000000 2.200000 20.799999
v 7.990395 2.138765 20.861235
v 7.971521 2.097139 20.902861
v 7.951416 2.069336 20.930664
v 7.926854 2.045378 20.954622
v 7.898559 2.025971 20.974030
v 7.867363 2.011686 20.988314
v 7.834185 2.002943 20.997057
v 7.800000 2.000000 21.000000
v 4.000000 -1.000000 24.000000
v 4.000000 2.000000 24.000000
v 4.000000 -1.000000 21.000000
v -7.997584 -1.169008 20.830992
v -8.000000 -1.200000 20.799999
v -8.000000 -1.200000 24.200001
v -7.993185 -1.148236 24.148235
v -7.990395 -1.138765 20.861235
v -7.973205 -1.100000 24.100000
v -7.971521 -1.097139 20.902861
v -7.951416 -1.069336 20.930664
v -7.941422 -1.058579 24.058578
v -7.926854 -1.045378 20.954622
v -7.904500 -1.029472 24.029472
v -7.898559 -1.025971 20.974030
v -7.870254 -1.012745 24.012745
v -7.867363 -1.011686 20.988314
v -7.837214 -1.003493 24.003492
v -7.834185 -1.002943 20.997057
v -7.818689 -1.000875 24.000875
v -7.800000 -1.000000 21.000000
v -7.800000 -1.000000 24.000000
v -8.000000 2.200000 24.200001
v -7.993185 2.148236 24.148235
v -7.973205 2.100000 24.100000
v -7.941422 2.058579 24.058578
v -7.904500 2.029472 24.029472
v -7.870254 2.012745 24.012745
v -7.837214 2.003493 24.003492
v -7.818689 2.000875 24.000875
v -7.800000 2.000000 24.000000
v -8.000000 2.200000 20.799999
v -7.993185 2.148236 20.851765
v -7.973205 2.100000 20.900000
v -7.941422 2.058579 20.941422
v -7.904500 2.029472 20.970528
v -7.870254 2.012745 20.987255
v -7.837214 2.003493 20.996508
v -7.818689 2.000875 20.999125
v -7.800000 2.000000 21.000000
v -4.000000 -1.000000 21.000000
v -4.000000 2.000000 21.000000
v -4.000000 -1.000000 24.000000
v 4.000000 2.000000 21.000000
v -4.000000 2.000000 24.000000
vn 0.090964 0.000000 0.995854
vn 0.158514 -0.000736 0.987356
vn 0.270110 0.000195 0.962829
vn 0.458021 -0.000419 0.888941
vn 0.456220 -0.000386 0.889867
vn 0.690793 -0.000520 0.723053
vn 0.617950 0.000181 0.786218
vn 0.738328 0.000102 0.674442
vn 0.840178 -0.000166 0.542310
vn 0.838732 -0.000134 0.544545
vn 0.932345 -0.000251 0.361569
vn 0.916633 0.000123 0.399731
vn 0.978997 -0.000100 0.203874
vn 0.969721 0.000200 0.244215
vn 0.997659 0.000000 0.068389
vn 0.996620 0.000126 0.082153
vn 0.000000 0.157797 0.987472
vn -0.000000 0.157797 0.987472
vn -0.000000 0.457690 0.889112
vn -0.000000 0.457690 0.889112
vn -0.000000 0.690521 0.723312
vn 0.000000 0.690521 0.723312
vn -0.000000 0.840130 0.542386
vn 0.000000 0.840129 0.542386
vn -0.000000 0.932312 0.361654
vn -0.000000 0.978993 0.203894
vn 0.000000 0.932312 0.361654
vn -0.000000 0.978993 0.203894
vn -0.000000 0.997659 0.068389
vn 0.000000 0.997659 0.068389
vn -0.157797 0.000000 0.987472
vn -0.157797 0.000000 0.987472
vn -0.457690 0.000000 0.889112
vn -0.690521 0.000000 0.723312
vn -0.457690 0.000000 0.889112
vn -0.690521 0.000000 0.723312
vn -0.840130 0.000000 0.542386
vn -0.840129 0.000000 0.542386
vn -0.932312 0.000000 0.361654
vn -0.978993 0.000000 0.203894
vn -0.932312 0.000000 0.361654
vn -0.978993 0.000000 0.203894
vn -0.997659 0.000000 0.068389
vn -0.997659 0.000000 0.068389
vn 0.000000 -0.090964 0.995854
vn 0.000386 -0.456220 0.889867
vn -0.000195 -0.270110 0.962829
vn 0.000736 -0.158514 0.987356
vn -0.000181 -0.617950 0.786218
vn 0.000419 -0.458021 0.888941
vn 0.000134 -0.838732 0.544545
vn -0.000102 -0.738328 0.674442
vn 0.000520 -0.690793 0.723053
vn -0.000123 -0.916633 0.399731
vn 0.000166 -0.840178 0.542310
vn -0.000200 -0.969721 0.244215
vn 0.000251 -0.932345 0.361569
vn -0.000126 -0.996620 0.082153
vn 0.000100 -0.978997 0.203874
vn 0.000000 -0.997659 0.068389
vn 0.000000 -1.000000 0.000000
vn 0.000000 -1.000000 0.000000
vn 1.000000 0.000000 0.000000
vn 1.000000 -0.000000 0.000000
vn 0.000000 0.000000 1.000000
vn 0.000000 0.000000 1.000000
vn 0.000000 0.000000 1.000000
vn 0.000000 0.000000 1.000000
vn 0.000000 0.000000 1.000000
vn 0.000000 0.000000 1.000000
vn 0.000000 0.000000 1.000000
vn 0.000000 0.000000 1.000000
vn 0.000000 1.000000 -0.000000
vn 0.000000 1.000000 0.000000
vn -1.000000 0.000000 0.000000
vn -1.000000 -0.000000 0.000000
vn 0.000000 0.000000 1.000000
vn 0.000000 0.000000 1.000000
vn 0.000000 -0.130528 -0.991445
vn 0.000000 -0.130528 -0.991445
vn 0.000000 -0.382674 -0.923883
vn 0.000000 -0.382674 -0.923883
vn 0.000000 -0.608765 -0.793351
vn 0.000000 -0.785324 -0.619085
vn 0.000000 -0.608765 -0.793351
vn 0.000000 -0.898540 -0.438892
vn 0.000000 -0.785324 -0.619085
vn 0.000000 -0.962956 -0.269659
vn 0.000000 -0.898540 -0.438892
vn 0.000000 -0.990163 -0.139917
vn 0.000000 -0.962956 -0.269659
vn 0.000000 -0.990163 -0.139917
vn 0.000000 -0.998906 -0.046765
vn 0.000000 -0.998906 -0.046765
vn 0.000000 0.077739 -0.996974
vn -0.000309 0.130832 -0.991405
vn -0.000198 0.382843 -0.923813
vn 0.000099 0.231350 -0.972871
vn 0.000068 0.412996 -0.910733
vn -0.000269 0.608934 -0.793221
vn -0.000060 0.585935 -0.810358
vn -0.000265 0.785426 -0.618956
vn 0.000141 0.715911 -0.698191
vn -0.000107 0.898561 -0.438850
vn 0.000093 0.824699 -0.565572
vn -0.000048 0.962959 -0.269646
vn 0.000048 0.909220 -0.416315
vn -0.000024 0.990164 -0.139914
vn 0.000048 0.966994 -0.254800
vn 0.000000 0.998906 -0.046765
vn 0.000146 0.996316 -0.085761
vn 0.130528 0.000000 -0.991445
vn 0.130528 0.000000 -0.991445
vn 0.382674 0.000000 -0.923883
vn 0.382674 0.000000 -0.923883
vn 0.608765 0.000000 -0.793351
vn 0.608765 0.000000 -0.793351
vn 0.785324 0.000000 -0.619085
vn 0.785324 0.000000 -0.619085
vn 0.898539 0.000000 -0.438894
vn 0.962957 0.000000 -0.269656
vn 0.898539 0.000000 -0.438894
vn 0.962957 0.000000 -0.269656
vn 0.990163 0.000000 -0.139917
vn 0.998906 0.000000 -0.046771
vn 0.990163 0.000000 -0.139917
vn 0.998906 0.000000 -0.046771
vn -0.077739 -0.000000 -0.996974
vn -0.231370 -0.000122 -0.972866
vn -0.130903 0.000380 -0.991395
vn -0.585923 0.000074 -0.810367
vn -0.413012 -0.000084 -0.910726
vn -0.382881 0.000245 -0.923798
vn -0.715935 -0.000175 -0.698167
vn -0.608975 0.000334 -0.793190
vn -0.824703 -0.000116 -0.565566
vn -0.785450 0.000330 -0.618924
vn -0.909222 -0.000060 -0.416311
vn -0.898568 0.000133 -0.438834
vn -0.966995 -0.000060 -0.254797
vn -0.962960 0.000060 -0.269643
vn -0.996316 -0.000183 -0.085758
vn -0.990162 0.000030 -0.139925
vn -0.998906 -0.000000 -0.046765
vn -1.000000 0.000000 0.000000
vn -1.000000 0.000000 0.000000
vn -0.000000 1.000000 0.000000
vn 0.000000 1.000000 0.000000
vn 0.000000 0.000000 -1.000000
vn 0.000000 0.000000 -1.000000
vn 0.000000 -0.000000 -1.000000
vn 0.000000 0.000000 -1.000000
vn 0.000000 0.000000 -1.000000
vn 0.000000 0.000000 -1.000000
vn 0.000000 0.000000 -1.000000
vn -0.000000 0.000000 -1.000000
vn 0.000000 0.000000 -1.000000
vn -0.000000 0.000000 -1.000000
vn -0.000000 0.000000 -1.000000
vn -0.000000 0.000000 -1.000000
vn 0.000000 0.000000 -1.000000
vn -0.000000 0.000000 -1.000000
vn 0.000000 0.077739 -0.996974
vn -0.000309 0.130832 -0.991405
vn -0.000198 0.382843 -0.923813
vn 0.000099 0.231350 -0.972871
vn 0.000068 0.412996 -0.910733
vn -0.000269 0.608934 -0.793221
vn -0.000060 0.585935 -0.810358
vn -0.000265 0.785426 -0.618956
vn 0.000141 0.715911 -0.698191
vn -0.000107 0.898561 -0.438850
vn 0.000093 0.824699 -0.565572
vn -0.000048 0.962959 -0.269646
vn 0.000048 0.909220 -0.416315
vn -0.000024 0.990164 -0.139914
vn 0.000048 0.966994 -0.254800
vn 0.000000 0.998906 -0.046765
vn 0.000146 0.996316 -0.085761
vn 0.077739 0.000000 -0.996974
vn 0.231370 0.000122 -0.972866
vn 0.130903 -0.000380 -0.991395
vn 0.585923 -0.000074 -0.810367
vn 0.413012 0.000084 -0.910726
vn 0.382881 -0.000245 -0.923798
vn 0.715935 0.000175 -0.698167
vn 0.608975 -0.000334 -0.793190
vn 0.824703 0.000116 -0.565566
vn 0.785450 -0.000330 -0.618924
vn 0.909222 0.000060 -0.416311
vn 0.898568 -0.000133 -0.438834
vn 0.966995 0.000060 -0.254797
vn 0.962960 -0.000060 -0.269643
vn 0.996316 0.000183 -0.085758
vn 0.990162 -0.000030 -0.139925
vn 0.998906 0.000000 -0.046765
vn -0.077739 0.000000 -0.996974
vn -0.077739 -0.000000 -0.996974
vn -0.231256 -0.000000 -0.972893
vn -0.231256 0.000000 -0.972893
vn -0.412941 -0.000000 -0.910758
vn -0.412941 0.000000 -0.910758
vn -0.585973 -0.000000 -0.810331
vn -0.585973 0.000000 -0.810331
vn -0.715842 -0.000000 -0.698262
vn -0.715842 0.000000 -0.698262
vn -0.824669 -0.000000 -0.565615
vn -0.824669 0.000000 -0.565615
vn -0.909212 -0.000000 -0.416333
vn -0.909212 0.000000 -0.416333
vn -0.966992 -0.000000 -0.254808
vn -0.966992 0.000000 -0.254808
vn -0.996314 -0.000000 -0.085777
vn -0.996314 0.000000 -0.085777
vn 0.000000 -0.077739 -0.996974
vn 0.000000 -0.077739 -0.996974
vn 0.000000 -0.231257 -0.972893
vn 0.000000 -0.231257 -0.972893
vn 0.000000 -0.412940 -0.910758
vn 0.000000 -0.412940 -0.910758
vn 0.000000 -0.585975 -0.810329
vn 0.000000 -0.585975 -0.810329
vn 0.000000 -0.715842 -0.698262
vn 0.000000 -0.715842 -0.698262
vn 0.000000 -0.824669 -0.565615
vn 0.000000 -0.824669 -0.565615
vn 0.000000 -0.909212 -0.416333
vn 0.000000 -0.909212 -0.416333
vn 0.000000 -0.996315 -0.085773
vn 0.000000 -0.966991 -0.254811
vn 0.000000 -0.966991 -0.254811
vn 0.000000 -0.996315 -0.085773
vn -1.000000 0.000000 0.000000
vn -1.000000 0.000000 0.000000
vn 0.000000 1.000000 0.000000
vn -0.000000 1.000000 0.000000
vn 0.000000 -1.000000 -0.000000
vn -0.000000 -1.000000 0.000000
vn 1.000000 0.000000 0.000000
vn 1.000000 0.000000 0.000000
vn 0.000000 0.000000 -1.000000
vn 0.000000 0.000000 -1.000000
vn 1.000000 0.000000 0.000000
vn 1.000000 0.000000 0.000000
vn -0.000000 -1.000000 -0.000000
vn 0.000000 -1.000000 0.000000
vn 0.000000 0.000000 -1.000000
vn 0.000000 0.000000 -1.000000
vn 0.996976 0.077708 0.000000
vn 0.991380 0.131014 -0.000494
vn 0.923767 0.382954 -0.000319
vn 0.972854 0.231420 0.000159
vn 0.910712 0.413042 0.000110
vn 0.793143 0.609036 -0.000440
vn 0.810377 0.585909 -0.000098
vn 0.618878 0.785487 -0.000436
vn 0.698132 0.715969 0.000232
vn 0.438815 0.898578 -0.000176
vn 0.565550 0.824714 0.000155
vn 0.269642 0.962961 -0.000080
vn 0.416308 0.909223 0.000079
vn 0.139905 0.990165 -0.000040
vn 0.254788 0.966997 0.000080
vn 0.046775 0.998905 0.000000
vn 0.085758 0.996316 0.000244
vn 0.996976 0.000000 -0.077708
vn 0.996976 0.000000 -0.077708
vn 0.972889 0.000000 -0.231273
vn 0.972889 0.000000 -0.231273
vn 0.910755 0.000000 -0.412947
vn 0.910755 0.000000 -0.412947
vn 0.810332 0.000000 -0.585971
vn 0.810332 0.000000 -0.585971
vn 0.698255 0.000000 -0.715849
vn 0.698255 0.000000 -0.715849
vn 0.416315 0.000000 -0.909220
vn 0.565627 0.000000 -0.824661
vn 0.565627 0.000000 -0.824661
vn 0.416315 0.000000 -0.909220
vn 0.254824 0.000000 -0.966987
vn 0.254824 0.000000 -0.966987
vn 0.085776 0.000000 -0.996314
vn 0.085776 0.000000 -0.996314
vn 0.996976 -0.077709 0.000000
vn 0.972890 -0.231269 0.000000
vn 0.996976 -0.077709 0.000000
vn 0.910753 -0.412951 0.000000
vn 0.972890 -0.231269 0.000000
vn 0.910753 -0.412951 0.000000
vn 0.810332 -0.585971 0.000000
vn 0.810332 -0.585971 0.000000
vn 0.698248 -0.715856 0.000000
vn 0.698248 -0.715856 0.000000
vn 0.565622 -0.824665 0.000000
vn 0.565622 -0.824665 0.000000
vn 0.416338 -0.909210 0.000000
vn 0.416338 -0.909210 0.000000
vn 0.085776 -0.996314 0.000000
vn 0.254811 -0.966991 0.000000
vn 0.254811 -0.966991 0.000000
vn 0.085776 -0.996314 0.000000
vn 0.996976 -0.000000 0.077708
vn 0.972853 0.000159 0.231423
vn 0.991381 -0.000494 0.131010
vn 0.810378 -0.000098 0.585907
vn 0.910714 0.000110 0.413038
vn 0.923764 -0.000319 0.382962
vn 0.698139 0.000232 0.715962
vn 0.793146 -0.000440 0.609031
vn 0.565555 0.000154 0.824711
vn 0.618871 -0.000436 0.785492
vn 0.416285 0.000080 0.909234
vn 0.438827 -0.000177 0.898571
vn 0.254805 0.000080 0.966993
vn 0.269645 -0.000079 0.962960
vn 0.085755 0.000243 0.996316
vn 0.139867 -0.000040 0.990170
vn 0.046794 -0.000000 0.998905
vn 0.000000 0.000000 -1.000000
vn 0.000000 0.000000 -1.000000
vn 0.000000 1.000000 0.000000
vn 0.000000 1.000000 0.000000
vn 1.000000 0.000000 0.000000
vn 1.000000 0.000000 0.000000
vn 1.000000 0.000000 0.000000
vn 1.000000 0.000000 0.000000
vn 1.000000 0.000000 0.000000
vn 1.000000 0.000000 0.000000
vn 1.000000 0.000000 0.000000
vn 1.000000 0.000000 0.000000
vn -0.996976 0.077708 0.000000
vn -0.991380 0.131014 0.000494
vn -0.923767 0.382954 0.000319
vn -0.972854 0.231420 -0.000159
vn -0.910712 0.413042 -0.000110
vn -0.793143 0.609036 0.000440
vn -0.810377 0.585909 0.000098
vn -0.618878 0.785487 0.000436
vn -0.698132 0.715969 -0.000232
vn -0.438815 0.898578 0.000176
vn -0.565550 0.824714 -0.000155
vn -0.269642 0.962961 0.000080
vn -0.416308 0.909223 -0.000079
vn -0.139905 0.990165 0.000040
vn -0.254788 0.966997 -0.000080
vn -0.046775 0.998905 0.000000
vn -0.085758 0.996316 -0.000244
vn -0.991445 0.000000 -0.130524
vn -0.991445 0.000000 -0.130524
vn -0.923877 0.000000 -0.382690
vn -0.793359 0.000000 -0.608755
vn -0.923877 0.000000 -0.382690
vn -0.619083 0.000000 -0.785325
vn -0.793358 0.000000 -0.608755
vn -0.619083 0.000000 -0.785325
vn -0.438897 0.000000 -0.898537
vn -0.438897 0.000000 -0.898537
vn -0.269666 0.000000 -0.962954
vn -0.269666 0.000000 -0.962954
vn -0.139873 0.000000 -0.990170
vn -0.139873 0.000000 -0.990170
vn -0.046794 0.000000 -0.998905
vn -0.046794 0.000000 -0.998905
vn -0.991445 -0.130529 0.000000
vn -0.991445 -0.130529 -0.000000
vn -0.923881 -0.382680 -0.000000
vn -0.923881 -0.382680 -0.000000
vn -0.793353 -0.608761 -0.000000
vn -0.793353 -0.608761 0.000000
vn -0.619093 -0.785318 -0.000000
vn -0.619093 -0.785318 0.000000
vn -0.438882 -0.898545 -0.000000
vn -0.269666 -0.962954 -0.000000
vn -0.438882 -0.898545 0.000000
vn -0.269666 -0.962954 -0.000000
vn -0.139910 -0.990164 -0.000000
vn -0.139910 -0.990164 0.000000
vn -0.046768 -0.998906 -0.000000
vn -0.046768 -0.998906 0.000000
vn -0.996976 0.000000 0.077708
vn -0.972853 -0.000159 0.231423
vn -0.991381 0.000494 0.131010
vn -0.810378 0.000098 0.585907
vn -0.910714 -0.000110 0.413038
vn -0.923764 0.000319 0.382962
vn -0.698139 -0.000232 0.715962
vn -0.793146 0.000440 0.609031
vn -0.565555 -0.000154 0.824711
vn -0.618871 0.000436 0.785492
vn -0.416285 -0.000080 0.909234
vn -0.438827 0.000177 0.898571
vn -0.254805 -0.000080 0.966993
vn -0.269645 0.000079 0.962960
vn -0.085755 -0.000243 0.996316
vn -0.139867 0.000040 0.990170
vn -0.046794 0.000000 0.998905
vn 0.000000 -0.000000 1.000000
vn 0.000000 0.000000 1.000000
vn 0.000000 1.000000 0.000000
vn 0.000000 1.000000 0.000000
vn -1.000000 0.000000 0.000000
vn -1.000000 0.000000 -0.000000
vn -1.000000 0.000000 0.000000
vn -1.000000 0.000000 -0.000000
vn -1.000000 0.000000 0.000000
vn -1.000000 0.000000 0.000000
vn -1.000000 0.000000 0.000000
vn -1.000000 0.000000 0.000000
vn 0.000000 -1.000000 0.000000
vn 0.000000 -1.000000 0.000000
vn -0.000000 0.000000 1.000000
vn 0.000000 0.000000 1.000000
vn 1.000000 0.000000 -0.000000
vn 1.000000 0.000000 0.000000
vn -0.000000 -0.000000 -1.000000
vn 0.000000 0.000000 -1.000000
vn 0.000000 -1.000000 0.000000
vn 0.000000 -1.000000 0.000000
vn -1.000000 -0.000000 -0.000000
vn -1.000000 0.000000 0.000000
vn 0.000000 -1.000000 -0.000000
vn -0.000000 -1.000000 0.000000
vn 0.000000 1.000000 0.000000
vn -0.000000 1.000000 0.000000
f 1//1 2//1 3//1
f 1//2 3//2 4//2
f 5//3 1//3 4//3
f 6//4 4//4 7//4
f 6//5 5//5 4//5
f 8//6 7//6 9//6
f 8//7 6//7 7//7
f 10//8 8//8 9//8
f 11//9 9//9 12//9
f 11//10 10//10 9//10
f 13//11 12//11 14//11
f 13//12 11//12 12//12
f 15//13 14//13 16//13
f 15//14 13//14 14//14
f 17//15 16//15 18//15
f 17//16 15//16 16//16
f 4//17 3//17 19//17
f 4//18 19//18 20//18
f 4//19 20//19 21//19
f 7//20 4//20 21//20
f 9//21 21//21 22//21
f 9//22 7//22 21//22
f 12//23 22//23 23//23
f 12//24 9//24 22//24
f 14//25 23//25 24//25
f 14//26 24//26 25//26
f 14//27 12//27 23//27
f 16//28 14//28 25//28
f 18//29 25//29 26//29
f 18//30 16//30 25//30
f 20//31 19//31 27//31
f 20//32 27//32 28//32
f 20//33 28//33 29//33
f 21//34 29//34 30//34
f 21//35 20//35 29//35
f 22//36 21//36 30//36
f 23//37 30//37 31//37
f 23//38 22//38 30//38
f 24//39 31//39 32//39
f 24//40 32//40 33//40
f 24//41 23//41 31//41
f 25//42 24//42 33//42
f 26//43 33//43 34//43
f 26//44 25//44 33//44
f 27//45 2//45 1//45
f 28//46 5//46 6//46
f 28//47 1//47 5//47
f 28//48 27//48 1//48
f 29//49 6//49 8//49
f 29//50 28//50 6//50
f 30//51 10//51 11//51
f 30//52 8//52 10//52
f 30//53 29//53 8//53
f 31//54 11//54 13//54
f 31//55 30//55 11//55
f 32//56 13//56 15//56
f 32//57 31//57 13//57
f 33//58 15//58 17//58
f 33//59 32//59 15//59
f 34//60 33//60 17//60
f 35//61 36//61 17//61
f 17//62 36//62 34//62
f 37//63 35//63 18//63
f 18//64 35//64 17//64
f 2//65 38//65 39//65
f 2//66 39//66 3//66
f 40//67 19//67 3//67
f 40//68 3//68 39//68
f 27//69 19//69 40//69
f 41//70 27//70 40//70
f 41//71 38//71 2//71
f 41//72 2//72 27//72
f 42//73 37//73 26//73
f 26//74 37//74 18//74
f 36//75 42//75 34//75
f 34//76 42//76 26//76
f 36//77 35//77 42//77
f 42//78 35//78 37//78
f 43//79 44//79 45//79
f 43//80 45//80 46//80
f 43//81 46//81 47//81
f 48//82 43//82 47//82
f 49//83 47//83 50//83
f 49//84 50//84 51//84
f 49//85 48//85 47//85
f 52//86 51//86 53//86
f 52//87 49//87 51//87
f 54//88 53//88 55//88
f 54//89 52//89 53//89
f 56//90 55//90 57//90
f 56//91 54//91 55//91
f 58//92 56//92 57//92
f 59//93 57//93 60//93
f 59//94 58//94 57//94
f 61//95 62//95 63//95
f 61//96 63//96 64//96
f 65//97 64//97 66//97
f 65//98 61//98 64//98
f 67//99 65//99 66//99
f 68//100 66//100 69//100
f 68//101 67//101 66//101
f 70//102 69//102 71//102
f 70//103 68//103 69//103
f 72//104 71//104 73//104
f 72//105 70//105 71//105
f 74//106 73//106 75//106
f 74//107 72//107 73//107
f 76//108 75//108 77//108
f 76//109 74//109 75//109
f 78//110 77//110 79//110
f 78//111 76//111 77//111
f 64//112 63//112 44//112
f 64//113 44//113 43//113
f 66//114 43//114 48//114
f 66//115 64//115 43//115
f 69//116 48//116 49//116
f 69//117 66//117 48//117
f 71//118 49//118 52//118
f 71//119 69//119 49//119
f 73//120 52//120 54//120
f 73//121 54//121 56//121
f 73//122 71//122 52//122
f 75//123 73//123 56//123
f 77//124 56//124 58//124
f 77//125 58//125 59//125
f 77//126 75//126 56//126
f 79//127 77//127 59//127
f 45//128 62//128 61//128
f 46//129 61//129 65//129
f 46//130 45//130 61//130
f 47//131 67//131 68//131
f 47//132 65//132 67//132
f 47//133 46//133 65//133
f 50//134 68//134 70//134
f 50//135 47//135 68//135
f 51//136 70//136 72//136
f 51//137 50//137 70//137
f 53//138 72//138 74//138
f 53//139 51//139 72//139
f 55//140 74//140 76//140
f 55//141 53//141 74//141
f 57//142 76//142 78//142
f 57//143 55//143 76//143
f 60//144 57//144 78//144
f 80//145 81//145 78//145
f 78//146 81//146 60//146
f 82//147 80//147 79//147
f 79//148 80//148 78//148
f 45//149 44//149 83//149
f 45//150 84//150 62//150
f 83//151 84//151 45//151
f 84//152 63//152 62//152
f 44//153 85//153 83//153
f 86//154 85//154 44//154
f 63//155 87//155 44//155
f 44//156 87//156 86//156
f 86//157 88//157 85//157
f 89//158 90//158 88//158
f 87//159 90//159 89//159
f 88//160 90//160 85//160
f 84//161 90//161 63//161
f 63//162 90//162 87//162
f 91//163 87//163 89//163
f 91//164 89//164 92//164
f 93//165 92//165 94//165
f 93//166 91//166 92//166
f 95//167 93//167 94//167
f 96//168 94//168 97//168
f 96//169 95//169 94//169
f 98//170 97//170 99//170
f 98//171 96//171 97//171
f 100//172 99//172 101//172
f 100//173 98//173 99//173
f 102//174 101//174 103//174
f 102//175 100//175 101//175
f 104//176 103//176 105//176
f 104//177 102//177 103//177
f 106//178 105//178 107//178
f 106//179 104//179 105//179
f 89//180 88//180 108//180
f 92//181 108//181 109//181
f 92//182 89//182 108//182
f 94//183 110//183 111//183
f 94//184 109//184 110//184
f 94//185 92//185 109//185
f 97//186 111//186 112//186
f 97//187 94//187 111//187
f 99//188 112//188 113//188
f 99//189 97//189 112//189
f 101//190 113//190 114//190
f 101//191 99//191 113//191
f 103//192 114//192 115//192
f 103//193 101//193 114//193
f 105//194 115//194 116//194
f 105//195 103//195 115//195
f 107//196 105//196 116//196
f 117//197 86//197 87//197
f 117//198 87//198 91//198
f 118//199 91//199 93//199
f 118//200 117//200 91//200
f 119//201 93//201 95//201
f 119//202 118//202 93//202
f 120//203 95//203 96//203
f 120//204 119//204 95//204
f 121//205 96//205 98//205
f 121//206 120//206 96//206
f 122//207 98//207 100//207
f 122//208 121//208 98//208
f 123//209 100//209 102//209
f 123//210 122//210 100//210
f 124//211 102//211 104//211
f 124//212 123//212 102//212
f 125//213 104//213 106//213
f 125//214 124//214 104//214
f 108//215 88//215 86//215
f 108//216 86//216 117//216
f 109//217 117//217 118//217
f 109//218 108//218 117//218
f 110//219 118//219 119//219
f 110//220 109//220 118//220
f 111//221 119//221 120//221
f 111//222 110//222 119//222
f 112//223 120//223 121//223
f 112//224 111//224 120//224
f 113//225 121//225 122//225
f 113//226 112//226 121//226
f 114//227 122//227 123//227
f 114//228 113//228 122//228
f 115//229 124//229 125//229
f 115//230 123//230 124//230
f 115//231 114//231 123//231
f 116//232 115//232 125//232
f 126//233 125//233 106//233
f 126//234 127//234 125//234
f 128//235 106//235 107//235
f 128//236 126//236 106//236
f 127//237 116//237 125//237
f 127//238 129//238 116//238
f 129//239 107//239 116//239
f 129//240 128//240 107//240
f 129//241 127//241 126//241
f 129//242 126//242 128//242
f 130//243 82//243 59//243
f 59//244 82//244 79//244
f 81//245 130//245 60//245
f 60//246 130//246 59//246
f 130//247 81//247 82//247
f 82//248 81//248 80//248
f 131//249 132//249 133//249
f 131//250 133//250 134//250
f 135//251 134//251 136//251
f 135//252 131//252 134//252
f 137//253 135//253 136//253
f 138//254 136//254 139//254
f 138//255 137//255 136//255
f 140//256 139//256 141//256
f 140//257 138//257 139//257
f 142//258 141//258 143//258
f 142//259 140//259 141//259
f 144//260 143//260 145//260
f 144//261 142//261 143//261
f 146//262 145//262 147//262
f 146//263 144//263 145//263
f 148//264 147//264 149//264
f 148//265 146//265 147//265
f 150//266 151//266 132//266
f 150//267 132//267 131//267
f 152//268 131//268 135//268
f 152//269 150//269 131//269
f 153//270 135//270 137//270
f 153//271 152//271 135//271
f 154//272 137//272 138//272
f 154//273 153//273 137//273
f 155//274 138//274 140//274
f 155//275 154//275 138//275
f 156//276 142//276 144//276
f 156//277 140//277 142//277
f 156//278 155//278 140//278
f 157//279 156//279 144//279
f 158//280 144//280 146//280
f 158//281 157//281 144//281
f 159//282 146//282 148//282
f 159//283 158//283 146//283
f 160//284 161//284 151//284
f 160//285 150//285 152//285
f 160//286 151//286 150//286
f 162//287 152//287 153//287
f 162//288 160//288 152//288
f 163//289 162//289 153//289
f 164//290 153//290 154//290
f 164//291 163//291 153//291
f 165//292 154//292 155//292
f 165//293 164//293 154//293
f 166//294 155//294 156//294
f 166//295 165//295 155//295
f 167//296 156//296 157//296
f 167//297 166//297 156//297
f 168//298 158//298 159//298
f 168//299 157//299 158//299
f 168//300 167//300 157//300
f 169//301 168//301 159//301
f 133//302 161//302 160//302
f 134//303 160//303 162//303
f 134//304 133//304 160//304
f 136//305 163//305 164//305
f 136//306 162//306 163//306
f 136//307 134//307 162//307
f 139//308 164//308 165//308
f 139//309 136//309 164//309
f 141//310 165//310 166//310
f 141//311 139//311 165//311
f 143//312 166//312 167//312
f 143//313 141//313 166//313
f 145//314 167//314 168//314
f 145//315 143//315 167//315
f 147//316 168//316 169//316
f 147//317 145//317 168//317
f 149//318 147//318 169//318
f 170//319 159//319 148//319
f 170//320 171//320 159//320
f 172//321 148//321 149//321
f 172//322 170//322 148//322
f 40//323 84//323 133//323
f 132//324 40//324 133//324
f 161//325 84//325 83//325
f 161//326 133//326 84//326
f 151//327 40//327 132//327
f 41//328 151//328 161//328
f 41//329 161//329 83//329
f 41//330 40//330 151//330
f 173//331 174//331 175//331
f 173//332 175//332 176//332
f 177//333 176//333 178//333
f 177//334 173//334 176//334
f 179//335 177//335 178//335
f 180//336 178//336 181//336
f 180//337 179//337 178//337
f 182//338 181//338 183//338
f 182//339 180//339 181//339
f 184//340 183//340 185//340
f 184//341 182//341 183//341
f 186//342 185//342 187//342
f 186//343 184//343 185//343
f 188//344 187//344 189//344
f 188//345 186//345 187//345
f 190//346 189//346 191//346
f 190//347 188//347 189//347
f 176//348 175//348 192//348
f 176//349 192//349 193//349
f 178//350 193//350 194//350
f 178//351 194//351 195//351
f 178//352 176//352 193//352
f 181//353 195//353 196//353
f 181//354 178//354 195//354
f 183//355 181//355 196//355
f 185//356 196//356 197//356
f 185//357 183//357 196//357
f 187//358 197//358 198//358
f 187//359 185//359 197//359
f 189//360 198//360 199//360
f 189//361 187//361 198//361
f 191//362 199//362 200//362
f 191//363 189//363 199//363
f 193//364 192//364 201//364
f 193//365 201//365 202//365
f 193//366 202//366 203//366
f 194//367 193//367 203//367
f 195//368 203//368 204//368
f 195//369 194//369 203//369
f 196//370 204//370 205//370
f 196//371 195//371 204//371
f 197//372 205//372 206//372
f 197//373 206//373 207//373
f 197//374 196//374 205//374
f 198//375 197//375 207//375
f 199//376 207//376 208//376
f 199//377 198//377 207//377
f 200//378 208//378 209//378
f 200//379 199//379 208//379
f 201//380 174//380 173//380
f 202//381 173//381 177//381
f 202//382 201//382 173//382
f 203//383 179//383 180//383
f 203//384 177//384 179//384
f 203//385 202//385 177//385
f 204//386 180//386 182//386
f 204//387 203//387 180//387
f 205//388 182//388 184//388
f 205//389 204//389 182//389
f 206//390 184//390 186//390
f 206//391 205//391 184//391
f 207//392 186//392 188//392
f 207//393 206//393 186//393
f 208//394 188//394 190//394
f 208//395 207//395 188//395
f 209//396 208//396 190//396
f 210//397 211//397 190//397
f 190//398 211//398 209//398
f 212//399 210//399 191//399
f 191//400 210//400 190//400
f 90//401 201//401 85//401
f 38//402 85//402 201//402
f 192//403 38//403 201//403
f 174//404 201//404 90//404
f 39//405 175//405 174//405
f 39//406 192//406 175//406
f 39//407 38//407 192//407
f 39//408 174//408 90//408
f 171//409 169//409 159//409
f 171//410 213//410 169//410
f 213//411 149//411 169//411
f 213//412 172//412 149//412
f 213//413 171//413 170//413
f 213//414 170//414 172//414
f 214//415 212//415 200//415
f 200//416 212//416 191//416
f 211//417 214//417 209//417
f 209//418 214//418 200//418
f 214//419 211//419 212//419
f 212//420 211//420 210//420
f 40//421 90//421 84//421
f 40//422 39//422 90//422
f 38//423 83//423 85//423
f 38//424 41//424 83//424
