# Created by FreeCAD <https://www.freecad.org>
v -4.400000 1.989971 23.689009
v -4.310992 1.989971 23.600000
v -4.400000 2.000000 23.600000
v -4.281518 1.978519 23.651819
v -4.226447 1.960388 23.600000
v -4.165699 1.914559 23.678459
v -4.087267 1.849396 23.600000
v -4.150604 1.912733 23.600000
v -4.348180 1.978519 23.718483
v -4.400000 1.960388 23.773554
v -4.072677 1.813681 23.684851
v -4.039612 1.773554 23.600000
v -4.234156 1.924024 23.765844
v -4.018126 1.687544 23.680676
v -4.039612 1.600000 23.773554
v -4.010029 1.600000 23.689009
v -4.000000 1.600000 23.600000
v -4.010029 1.689008 23.600000
v -4.132519 1.833462 23.784254
v -4.321541 1.914559 23.834301
v -4.400000 1.912733 23.849396
v -4.400000 1.849396 23.912733
v -4.062165 1.715397 23.780420
v -4.087267 1.600000 23.849396
v -4.215746 1.833462 23.867481
v -4.131313 1.724957 23.868687
v -4.150604 1.600000 23.912733
v -4.315149 1.813681 23.927324
v -4.400000 1.773554 23.960388
v -4.219581 1.715397 23.937836
v -4.226447 1.600000 23.960388
v -4.319324 1.687544 23.981874
v -4.400000 1.689008 23.989971
v -4.400000 1.600000 24.000000
v -4.310992 1.600000 23.989971
v -4.310992 1.989971 21.400000
v -4.400000 1.989971 21.310991
v -4.400000 2.000000 21.400000
v -4.348180 1.978519 21.281517
v -4.400000 1.960388 21.226446
v -4.321541 1.914559 21.165699
v -4.400000 1.849396 21.087267
v -4.400000 1.912733 21.150604
v -4.281518 1.978519 21.348181
v -4.226447 1.960388 21.400000
v -4.315149 1.813681 21.072676
v -4.400000 1.773554 21.039612
v -4.234156 1.924024 21.234156
v -4.319324 1.687544 21.018126
v -4.226447 1.600000 21.039612
v -4.310992 1.600000 21.010029
v -4.400000 1.600000 21.000000
v -4.400000 1.689008 21.010029
v -4.215746 1.833462 21.132519
v -4.165699 1.914559 21.321541
v -4.150604 1.912733 21.400000
v -4.087267 1.849396 21.400000
v -4.219581 1.715397 21.062164
v -4.150604 1.600000 21.087267
v -4.132519 1.833462 21.215746
v -4.131313 1.724957 21.131313
v -4.087267 1.600000 21.150604
v -4.072677 1.813681 21.315149
v -4.039612 1.773554 21.400000
v -4.062165 1.715397 21.219580
v -4.039612 1.600000 21.226446
v -4.018126 1.687544 21.319324
v -4.010029 1.689008 21.400000
v -4.000000 1.600000 21.400000
v -4.010029 1.600000 21.310991
v -4.006810 -0.667455 23.629181
v -4.000000 -0.600000 23.600000
v -4.010029 -0.600000 23.689009
v -4.010029 -0.689008 23.600000
v -4.036713 -0.703642 23.731457
v -4.039612 -0.600000 23.773554
v -4.039612 -0.773553 23.600000
v -4.053237 -0.796845 23.631739
v -4.087267 -0.849396 23.600000
v -4.093929 -0.722554 23.826498
v -4.087267 -0.600000 23.849396
v -4.150604 -0.600000 23.912733
v -4.099297 -0.825976 23.736061
v -4.173503 -0.722554 23.906071
v -4.226447 -0.600000 23.960388
v -4.140501 -0.902921 23.629986
v -4.226447 -0.960387 23.600000
v -4.150604 -0.912733 23.600000
v -4.171619 -0.835975 23.828381
v -4.268543 -0.703642 23.963287
v -4.310992 -0.600000 23.989971
v -4.400000 -0.689008 23.989971
v -4.400000 -0.773553 23.960388
v -4.197145 -0.921645 23.724075
v -4.263939 -0.825976 23.900703
v -4.370819 -0.667455 23.993191
v -4.400000 -0.600000 24.000000
v -4.275924 -0.921645 23.802855
v -4.368262 -0.796845 23.946764
v -4.400000 -0.849396 23.912733
v -4.312836 -0.980532 23.687164
v -4.400000 -0.960387 23.773554
v -4.400000 -0.989971 23.689009
v -4.400000 -1.000000 23.600000
v -4.310992 -0.989971 23.600000
v -4.370015 -0.902921 23.859499
v -4.400000 -0.912733 23.849396
v -14.000000 -0.989971 23.689009
v -14.000000 -1.000000 23.600000
v -14.000000 -0.960387 23.773554
v -14.000000 -0.912733 23.849396
v -14.000000 -0.849396 23.912733
v -14.000000 -0.773553 23.960388
v -14.000000 -0.689008 23.989971
v -14.000000 -0.600000 24.000000
v -4.370819 -0.667455 21.006809
v -4.400000 -0.689008 21.010029
v -4.400000 -0.600000 21.000000
v -4.310992 -0.600000 21.010029
v -4.268543 -0.703642 21.036713
v -4.400000 -0.773553 21.039612
v -4.226447 -0.600000 21.039612
v -4.368262 -0.796845 21.053236
v -4.400000 -0.849396 21.087267
v -4.173503 -0.722554 21.093929
v -4.150604 -0.600000 21.087267
v -4.087267 -0.600000 21.150604
v -4.263939 -0.825976 21.099297
v -4.093929 -0.722554 21.173502
v -4.039612 -0.600000 21.226446
v -4.370015 -0.902921 21.140501
v -4.400000 -0.960387 21.226446
v -4.400000 -0.912733 21.150604
v -4.171619 -0.835975 21.171619
v -4.036713 -0.703642 21.268543
v -4.010029 -0.689008 21.400000
v -4.039612 -0.773553 21.400000
v -4.010029 -0.600000 21.310991
v -4.275924 -0.921645 21.197145
v -4.099297 -0.825976 21.263939
v -4.006810 -0.667455 21.370819
v -4.000000 -0.600000 21.400000
v -4.197145 -0.921645 21.275925
v -4.053237 -0.796845 21.368261
v -4.087267 -0.849396 21.400000
v -4.312836 -0.980532 21.312836
v -4.226447 -0.960387 21.400000
v -4.310992 -0.989971 21.400000
v -4.400000 -1.000000 21.400000
v -4.400000 -0.989971 21.310991
v -4.140501 -0.902921 21.370014
v -4.150604 -0.912733 21.400000
v -10.000000 -1.000000 21.400000
v -10.000000 -0.989971 21.310991
v -10.000000 -0.960387 21.226446
v -10.000000 -0.912733 21.150604
v -10.000000 -0.849396 21.087267
v -10.000000 -0.773553 21.039612
v -10.000000 -0.689008 21.010029
v -10.000000 -0.600000 21.000000
v -10.000000 2.000000 21.400000
v -10.000000 1.989971 21.310991
v -10.000000 1.960388 21.226446
v -10.000000 1.912733 21.150604
v -10.000000 1.849396 21.087267
v -10.000000 1.773554 21.039612
v -10.000000 1.689008 21.010029
v -10.000000 1.600000 21.000000
v -10.000000 2.000000 23.600000
v -10.000000 1.989971 23.689009
v -10.000000 1.960388 23.773554
v -10.000000 1.912733 23.849396
v -10.000000 1.849396 23.912733
v -10.000000 1.773554 23.960388
v -10.000000 1.689008 23.989971
v -10.000000 1.600000 24.000000
v -14.000000 -1.000000 21.000000
v -10.000000 -1.000000 21.000000
v -14.000000 3.487671 21.250908
v -14.000000 3.487671 18.250908
v -14.000000 2.000000 24.000000
v -14.000000 7.783994 18.250908
v -14.000000 7.783994 21.250908
v -10.000000 2.000000 24.000000
v -10.000000 3.487671 18.250908
v -10.000000 7.783994 18.250908
v -10.000000 7.783994 21.250908
v -10.000000 3.487671 21.250908
vn 0.111268 0.987542 0.111268
vn 0.330209 0.943680 0.020740
vn 0.138161 0.980726 0.138161
vn 0.702104 0.702105 0.118738
vn 0.530224 0.843847 0.082369
vn 0.446826 0.878825 0.167370
vn 0.020736 0.943680 0.330209
vn 0.138159 0.980727 0.138155
vn 0.844137 0.530409 0.078099
vn 0.720598 0.674628 0.160046
vn 0.304713 0.902389 0.304704
vn 0.426513 0.872152 0.239662
vn 0.937299 0.117917 0.327973
vn 0.988526 0.102038 0.111380
vn 0.988605 0.111389 0.101251
vn 0.939131 0.328614 0.100227
vn 0.906449 0.386366 0.170502
vn 0.695025 0.659107 0.287261
vn 0.578152 0.724961 0.374396
vn 0.082366 0.843846 0.530226
vn 0.118733 0.702108 0.702102
vn 0.167366 0.878824 0.446831
vn 0.239665 0.872150 0.426516
vn 0.839240 0.132642 0.527335
vn 0.797257 0.462483 0.387933
vn 0.918856 0.158066 0.361550
vn 0.882958 0.372389 0.285854
vn 0.515908 0.683871 0.515905
vn 0.374395 0.724962 0.578151
vn 0.700272 0.138728 0.700267
vn 0.783296 0.184451 0.593654
vn 0.735587 0.421100 0.530647
vn 0.617458 0.487335 0.617454
vn 0.078093 0.530409 0.844137
vn 0.160043 0.674631 0.720597
vn 0.287262 0.659109 0.695022
vn 0.527333 0.132641 0.839242
vn 0.593655 0.184454 0.783294
vn 0.530650 0.421098 0.735586
vn 0.387936 0.462482 0.797256
vn 0.100216 0.328610 0.939134
vn 0.101239 0.111389 0.988607
vn 0.111380 0.102027 0.988527
vn 0.327969 0.117905 0.937302
vn 0.170496 0.386367 0.906450
vn 0.361554 0.158063 0.918855
vn 0.285856 0.372388 0.882957
vn 0.111268 0.987542 -0.111268
vn 0.020736 0.943680 -0.330209
vn 0.118733 0.702108 -0.702102
vn 0.082366 0.843846 -0.530226
vn 0.167366 0.878824 -0.446831
vn 0.330209 0.943680 -0.020740
vn 0.138161 0.980726 -0.138161
vn 0.138159 0.980727 -0.138155
vn 0.078093 0.530409 -0.844137
vn 0.160043 0.674631 -0.720597
vn 0.304713 0.902389 -0.304704
vn 0.239665 0.872150 -0.426516
vn 0.327969 0.117905 -0.937302
vn 0.111380 0.102027 -0.988527
vn 0.101239 0.111389 -0.988607
vn 0.100216 0.328610 -0.939134
vn 0.170496 0.386367 -0.906450
vn 0.374395 0.724962 -0.578151
vn 0.287262 0.659109 -0.695022
vn 0.530224 0.843847 -0.082369
vn 0.702104 0.702105 -0.118738
vn 0.446826 0.878825 -0.167370
vn 0.426513 0.872152 -0.239662
vn 0.527333 0.132641 -0.839242
vn 0.387936 0.462482 -0.797256
vn 0.361554 0.158063 -0.918855
vn 0.285856 0.372388 -0.882957
vn 0.515908 0.683871 -0.515905
vn 0.578152 0.724961 -0.374396
vn 0.700272 0.138728 -0.700267
vn 0.530650 0.421098 -0.735586
vn 0.593655 0.184454 -0.783294
vn 0.617458 0.487335 -0.617454
vn 0.844137 0.530409 -0.078099
vn 0.720598 0.674628 -0.160046
vn 0.695025 0.659107 -0.287261
vn 0.839240 0.132642 -0.527335
vn 0.783296 0.184451 -0.593654
vn 0.735587 0.421100 -0.530647
vn 0.797257 0.462483 -0.387933
vn 0.939131 0.328614 -0.100227
vn 0.988605 0.111389 -0.101251
vn 0.988526 0.102038 -0.111380
vn 0.937299 0.117917 -0.327973
vn 0.906449 0.386366 -0.170502
vn 0.918856 0.158066 -0.361550
vn 0.882958 0.372389 -0.285854
vn 0.992377 -0.051819 0.111814
vn 0.993353 -0.111924 -0.026899
vn 0.938452 -0.107128 0.328377
vn 0.932769 -0.326388 0.153010
vn 0.961650 -0.154882 0.226363
vn 0.927637 -0.341934 0.150238
vn 0.846416 -0.531840 -0.026946
vn 0.930385 -0.331769 0.155924
vn 0.837908 -0.143914 0.526497
vn 0.697045 -0.168121 0.697039
vn 0.858711 -0.172048 0.482716
vn 0.863442 -0.431911 0.260616
vn 0.817405 -0.402663 0.411960
vn 0.775744 -0.606859 0.173043
vn 0.526494 -0.143924 0.837908
vn 0.697035 -0.168131 0.697047
vn 0.529506 -0.842704 0.097327
vn 0.707089 -0.707091 -0.006877
vn 0.745572 -0.642618 0.176531
vn 0.639300 -0.427290 0.639311
vn 0.714661 -0.481093 0.507749
vn 0.328372 -0.107125 0.938454
vn 0.153007 -0.326384 0.932771
vn 0.482726 -0.172050 0.858705
vn 0.612743 -0.677648 0.406619
vn 0.659485 -0.706636 0.256409
vn 0.515440 -0.845054 0.142146
vn 0.507755 -0.481087 0.714661
vn 0.411970 -0.402661 0.817401
vn 0.111814 -0.051804 0.992378
vn -0.026931 -0.111924 0.993352
vn 0.150228 -0.341964 0.927627
vn 0.226371 -0.154874 0.961650
vn 0.406622 -0.677648 0.612741
vn 0.482428 -0.731115 0.482425
vn -0.026959 -0.531840 0.846416
vn 0.155919 -0.331760 0.930389
vn 0.173043 -0.606864 0.775740
vn 0.260619 -0.431911 0.863441
vn 0.108556 -0.938305 0.328327
vn 0.109319 -0.987757 0.111294
vn 0.111294 -0.987757 0.109319
vn 0.328327 -0.938305 0.108555
vn 0.186580 -0.898331 0.397730
vn 0.397731 -0.898331 0.186580
vn 0.338733 -0.877793 0.338731
vn -0.006886 -0.707094 0.707086
vn 0.097317 -0.842704 0.529509
vn 0.142147 -0.845054 0.515440
vn 0.176530 -0.642619 0.745572
vn 0.256409 -0.706637 0.659484
vn 0.000000 -0.993712 0.111965
vn 0.000000 -0.993712 0.111965
vn 0.000000 -0.943883 0.330279
vn 0.000000 -0.943883 0.330279
vn 0.000000 -0.846723 0.532034
vn 0.000000 -0.846723 0.532034
vn 0.000000 -0.707110 0.707103
vn 0.000000 -0.707110 0.707103
vn 0.000000 -0.532033 0.846723
vn 0.000000 -0.532033 0.846723
vn 0.000000 -0.330273 0.943886
vn 0.000000 -0.330273 0.943886
vn 0.000000 -0.111965 0.993712
vn 0.000000 -0.111965 0.993712
vn -0.026931 -0.111924 -0.993352
vn 0.111814 -0.051804 -0.992378
vn 0.153007 -0.326384 -0.932771
vn 0.328372 -0.107125 -0.938454
vn 0.150228 -0.341964 -0.927627
vn 0.226371 -0.154874 -0.961650
vn -0.026959 -0.531840 -0.846416
vn 0.155919 -0.331760 -0.930389
vn 0.526494 -0.143924 -0.837908
vn 0.697043 -0.168132 -0.697038
vn 0.482726 -0.172050 -0.858705
vn 0.411970 -0.402661 -0.817401
vn 0.173043 -0.606864 -0.775740
vn 0.260619 -0.431911 -0.863441
vn 0.837908 -0.143914 -0.526497
vn 0.697036 -0.168122 -0.697048
vn 0.097317 -0.842704 -0.529509
vn -0.006886 -0.707094 -0.707086
vn 0.176530 -0.642619 -0.745572
vn 0.639300 -0.427290 -0.639311
vn 0.507755 -0.481087 -0.714661
vn 0.932769 -0.326388 -0.153010
vn 0.938452 -0.107128 -0.328377
vn 0.858711 -0.172048 -0.482716
vn 0.256409 -0.706637 -0.659484
vn 0.406622 -0.677648 -0.612741
vn 0.142147 -0.845054 -0.515440
vn 0.714661 -0.481093 -0.507749
vn 0.817405 -0.402663 -0.411960
vn 0.993353 -0.111924 0.026899
vn 0.992377 -0.051819 -0.111814
vn 0.961650 -0.154882 -0.226363
vn 0.927637 -0.341934 -0.150238
vn 0.612743 -0.677648 -0.406619
vn 0.482428 -0.731115 -0.482425
vn 0.846416 -0.531840 0.026946
vn 0.930385 -0.331769 -0.155924
vn 0.775744 -0.606859 -0.173043
vn 0.863442 -0.431911 -0.260616
vn 0.328327 -0.938305 -0.108555
vn 0.111294 -0.987757 -0.109319
vn 0.109319 -0.987757 -0.111294
vn 0.108556 -0.938305 -0.328327
vn 0.397731 -0.898331 -0.186580
vn 0.186580 -0.898331 -0.397730
vn 0.338733 -0.877793 -0.338731
vn 0.707089 -0.707091 0.006877
vn 0.529506 -0.842704 -0.097327
vn 0.515440 -0.845054 -0.142146
vn 0.745572 -0.642618 -0.176531
vn 0.659485 -0.706636 -0.256409
vn -0.000000 -0.993712 -0.111965
vn 0.000000 -0.993712 -0.111965
vn -0.000000 -0.943883 -0.330279
vn 0.000000 -0.943883 -0.330279
vn -0.000000 -0.846723 -0.532034
vn 0.000000 -0.846723 -0.532034
vn -0.000000 -0.707110 -0.707103
vn 0.000000 -0.707110 -0.707103
vn -0.000000 -0.532033 -0.846723
vn 0.000000 -0.532033 -0.846723
vn -0.000000 -0.111965 -0.993712
vn -0.000000 -0.330273 -0.943886
vn 0.000000 -0.330273 -0.943886
vn -0.000000 -0.111965 -0.993712
vn 0.993712 0.000000 -0.111965
vn 0.993712 0.000000 -0.111965
vn 0.943884 0.000000 -0.330277
vn 0.943884 0.000000 -0.330277
vn 0.846722 0.000000 -0.532036
vn 0.846722 0.000000 -0.532036
vn 0.707109 0.000000 -0.707104
vn 0.707109 0.000000 -0.707104
vn 0.532034 0.000000 -0.846723
vn 0.532034 0.000000 -0.846723
vn 0.330273 0.000000 -0.943886
vn 0.330273 0.000000 -0.943886
vn 0.111965 0.000000 -0.993712
vn 0.111965 0.000000 -0.993712
vn 0.111965 -0.993712 0.000000
vn 0.111965 -0.993712 0.000000
vn 0.330279 -0.943883 0.000000
vn 0.330279 -0.943883 0.000000
vn 0.532032 -0.846724 0.000000
vn 0.532032 -0.846724 0.000000
vn 0.707106 -0.707108 0.000000
vn 0.707106 -0.707108 0.000000
vn 0.846723 -0.532033 0.000000
vn 0.846723 -0.532033 0.000000
vn 0.993712 -0.111965 0.000000
vn 0.943884 -0.330277 0.000000
vn 0.943884 -0.330277 0.000000
vn 0.993712 -0.111965 0.000000
vn 0.111965 0.000000 0.993712
vn 0.330273 0.000000 0.943886
vn 0.111965 0.000000 0.993712
vn 0.532034 0.000000 0.846723
vn 0.330273 0.000000 0.943886
vn 0.707109 0.000000 0.707104
vn 0.532034 0.000000 0.846723
vn 0.846722 0.000000 0.532036
vn 0.707109 0.000000 0.707104
vn 0.943884 0.000000 0.330277
vn 0.846722 0.000000 0.532036
vn 0.993712 0.000000 0.111965
vn 0.943884 0.000000 0.330277
vn 0.993712 0.000000 0.111965
vn 0.000000 0.993712 -0.111963
vn 0.000000 0.943883 -0.330280
vn 0.000000 0.993712 -0.111963
vn 0.000000 0.846723 -0.532034
vn 0.000000 0.943883 -0.330280
vn 0.000000 0.707110 -0.707103
vn 0.000000 0.846723 -0.532034
vn 0.000000 0.532034 -0.846723
vn 0.000000 0.707110 -0.707103
vn 0.000000 0.330273 -0.943886
vn 0.000000 0.532034 -0.846723
vn 0.000000 0.111964 -0.993712
vn 0.000000 0.330273 -0.943886
vn 0.000000 0.111964 -0.993712
vn 0.111963 0.993712 0.000000
vn 0.111963 0.993712 -0.000000
vn 0.330280 0.943883 -0.000000
vn 0.330280 0.943883 0.000000
vn 0.532032 0.846724 -0.000000
vn 0.532032 0.846724 0.000000
vn 0.707106 0.707107 -0.000000
vn 0.707106 0.707107 0.000000
vn 0.846723 0.532034 -0.000000
vn 0.846723 0.532034 0.000000
vn 0.993712 0.111964 -0.000000
vn 0.943884 0.330277 -0.000000
vn 0.943884 0.330277 0.000000
vn 0.993712 0.111964 -0.000000
vn 0.000000 0.993712 0.111963
vn 0.000000 0.943883 0.330280
vn 0.000000 0.993712 0.111963
vn 0.000000 0.846723 0.532034
vn 0.000000 0.943883 0.330280
vn 0.000000 0.707110 0.707103
vn 0.000000 0.846723 0.532034
vn 0.000000 0.532034 0.846723
vn 0.000000 0.707110 0.707103
vn 0.000000 0.330273 0.943886
vn 0.000000 0.532034 0.846723
vn 0.000000 0.111964 0.993712
vn 0.000000 0.330273 0.943886
vn 0.000000 0.111964 0.993712
vn 0.000000 -1.000000 -0.000000
vn 0.000000 -1.000000 -0.000000
vn -0.000000 -1.000000 0.000000
vn -0.000000 -1.000000 0.000000
vn -1.000000 0.000000 0.000000
vn -1.000000 0.000000 0.000000
vn -1.000000 0.000000 0.000000
vn -1.000000 0.000000 0.000000
vn -1.000000 0.000000 0.000000
vn -1.000000 0.000000 0.000000
vn -1.000000 0.000000 0.000000
vn -1.000000 0.000000 -0.000000
vn -1.000000 -0.000000 0.000000
vn -1.000000 0.000000 -0.000000
vn -1.000000 0.000000 0.000000
vn -1.000000 -0.000000 -0.000000
vn 0.000000 0.000000 1.000000
vn 0.000000 0.000000 1.000000
vn 0.000000 0.000000 1.000000
vn 0.000000 0.000000 1.000000
vn 1.000000 0.000000 -0.000000
vn 1.000000 0.000000 0.000000
vn 0.000000 -0.522366 -0.852721
vn 0.000000 -0.522366 -0.852721
vn 0.000000 0.000000 -1.000000
vn 0.000000 0.000000 -1.000000
vn 0.000000 1.000000 0.000000
vn 0.000000 1.000000 0.000000
vn -0.000000 0.000000 1.000000
vn 0.000000 0.000000 1.000000
vn -0.000000 0.879482 0.475932
vn 0.000000 0.879482 0.475932
vn 1.000000 0.000000 0.000000
vn 1.000000 0.000000 0.000000
vn 1.000000 0.000000 0.000000
vn 1.000000 -0.000000 0.000000
vn 1.000000 0.000000 0.000000
vn 1.000000 0.000000 0.000000
vn 1.000000 0.000000 0.000000
vn 1.000000 0.000000 0.000000
vn 1.000000 0.000000 0.000000
vn 1.000000 0.000000 0.000000
vn 1.000000 0.000000 0.000000
vn 1.000000 0.000000 0.000000
vn 1.000000 0.000000 -0.000000
vn 1.000000 0.000000 -0.000000
vn 1.000000 0.000000 -0.000000
vn 1.000000 0.000000 0.000000
vn 1.000000 0.000000 0.000000
vn 1.000000 0.000000 0.000000
vn 1.000000 0.000000 0.000000
vn 1.000000 0.000000 0.000000
vn 1.000000 0.000000 0.000000
vn 1.000000 0.000000 0.000000
vn 1.000000 0.000000 0.000000
vn 1.000000 0.000000 0.000000
vn 1.000000 0.000000 0.000000
vn 1.000000 0.000000 0.000000
vn 1.000000 0.000000 0.000000
vn 1.000000 0.000000 0.000000
vn 0.000000 0.000000 -1.000000
vn 0.000000 0.000000 -1.000000
vn 0.000000 1.000000 0.000000
vn 0.000000 1.000000 0.000000
f 1//1 2//1 3//1
f 4//2 5//2 2//2
f 4//3 2//3 1//3
f 6//4 7//4 8//4
f 6//5 8//5 5//5
f 6//6 5//6 4//6
f 9//7 1//7 10//7
f 9//8 4//8 1//8
f 11//9 12//9 7//9
f 11//10 7//10 6//10
f 13//11 4//11 9//11
f 13//12 6//12 4//12
f 14//13 15//13 16//13
f 14//14 16//14 17//14
f 14//15 17//15 18//15
f 14//16 18//16 12//16
f 14//17 12//17 11//17
f 19//18 11//18 6//18
f 19//19 6//19 13//19
f 20//20 10//20 21//20
f 20//21 21//21 22//21
f 20//22 9//22 10//22
f 20//23 13//23 9//23
f 23//24 24//24 15//24
f 23//25 11//25 19//25
f 23//26 15//26 14//26
f 23//27 14//27 11//27
f 25//28 19//28 13//28
f 25//29 13//29 20//29
f 26//30 27//30 24//30
f 26//31 24//31 23//31
f 26//32 23//32 19//32
f 26//33 19//33 25//33
f 28//34 22//34 29//34
f 28//35 20//35 22//35
f 28//36 25//36 20//36
f 30//37 31//37 27//37
f 30//38 27//38 26//38
f 30//39 26//39 25//39
f 30//40 25//40 28//40
f 32//41 29//41 33//41
f 32//42 33//42 34//42
f 32//43 34//43 35//43
f 32//44 35//44 31//44
f 32//45 28//45 29//45
f 32//46 31//46 30//46
f 32//47 30//47 28//47
f 36//48 37//48 38//48
f 39//49 40//49 37//49
f 41//50 42//50 43//50
f 41//51 43//51 40//51
f 41//52 40//52 39//52
f 44//53 36//53 45//53
f 44//54 37//54 36//54
f 44//55 39//55 37//55
f 46//56 47//56 42//56
f 46//57 42//57 41//57
f 48//58 39//58 44//58
f 48//59 41//59 39//59
f 49//60 50//60 51//60
f 49//61 51//61 52//61
f 49//62 52//62 53//62
f 49//63 53//63 47//63
f 49//64 47//64 46//64
f 54//65 41//65 48//65
f 54//66 46//66 41//66
f 55//67 45//67 56//67
f 55//68 56//68 57//68
f 55//69 44//69 45//69
f 55//70 48//70 44//70
f 58//71 59//71 50//71
f 58//72 46//72 54//72
f 58//73 50//73 49//73
f 58//74 49//74 46//74
f 60//75 54//75 48//75
f 60//76 48//76 55//76
f 61//77 62//77 59//77
f 61//78 58//78 54//78
f 61//79 59//79 58//79
f 61//80 54//80 60//80
f 63//81 57//81 64//81
f 63//82 55//82 57//82
f 63//83 60//83 55//83
f 65//84 66//84 62//84
f 65//85 62//85 61//85
f 65//86 61//86 60//86
f 65//87 60//87 63//87
f 67//88 64//88 68//88
f 67//89 68//89 69//89
f 67//90 69//90 70//90
f 67//91 70//91 66//91
f 67//92 63//92 64//92
f 67//93 66//93 65//93
f 67//94 65//94 63//94
f 71//95 72//95 73//95
f 71//96 74//96 72//96
f 75//97 73//97 76//97
f 75//98 77//98 74//98
f 75//99 71//99 73//99
f 75//100 74//100 71//100
f 78//101 79//101 77//101
f 78//102 77//102 75//102
f 80//103 76//103 81//103
f 80//104 81//104 82//104
f 80//105 75//105 76//105
f 83//106 78//106 75//106
f 83//107 75//107 80//107
f 83//108 79//108 78//108
f 84//109 82//109 85//109
f 84//110 80//110 82//110
f 86//111 87//111 88//111
f 86//112 88//112 79//112
f 86//113 79//113 83//113
f 89//114 80//114 84//114
f 89//115 83//115 80//115
f 90//116 85//116 91//116
f 90//117 92//117 93//117
f 90//118 84//118 85//118
f 94//119 83//119 89//119
f 94//120 86//120 83//120
f 94//121 87//121 86//121
f 95//122 89//122 84//122
f 95//123 84//123 90//123
f 96//124 91//124 97//124
f 96//125 97//125 92//125
f 96//126 92//126 90//126
f 96//127 90//127 91//127
f 98//128 89//128 95//128
f 98//129 94//129 89//129
f 99//130 93//130 100//130
f 99//131 90//131 93//131
f 99//132 100//132 95//132
f 99//133 95//133 90//133
f 101//134 102//134 103//134
f 101//135 103//135 104//135
f 101//136 104//136 105//136
f 101//137 105//137 87//137
f 101//138 98//138 102//138
f 101//139 87//139 94//139
f 101//140 94//140 98//140
f 106//141 100//141 107//141
f 106//142 107//142 102//142
f 106//143 102//143 98//143
f 106//144 95//144 100//144
f 106//145 98//145 95//145
f 108//146 109//146 104//146
f 108//147 104//147 103//147
f 110//148 103//148 102//148
f 110//149 108//149 103//149
f 111//150 102//150 107//150
f 111//151 110//151 102//151
f 112//152 107//152 100//152
f 112//153 111//153 107//153
f 113//154 100//154 93//154
f 113//155 112//155 100//155
f 114//156 93//156 92//156
f 114//157 113//157 93//157
f 115//158 92//158 97//158
f 115//159 114//159 92//159
f 116//160 117//160 118//160
f 116//161 118//161 119//161
f 120//162 121//162 117//162
f 120//163 119//163 122//163
f 120//164 117//164 116//164
f 120//165 116//165 119//165
f 123//166 124//166 121//166
f 123//167 121//167 120//167
f 125//168 122//168 126//168
f 125//169 126//169 127//169
f 125//170 120//170 122//170
f 128//171 120//171 125//171
f 128//172 124//172 123//172
f 128//173 123//173 120//173
f 129//174 127//174 130//174
f 129//175 125//175 127//175
f 131//176 132//176 133//176
f 131//177 133//177 124//177
f 131//178 124//178 128//178
f 134//179 125//179 129//179
f 134//180 128//180 125//180
f 135//181 136//181 137//181
f 135//182 130//182 138//182
f 135//183 129//183 130//183
f 139//184 131//184 128//184
f 139//185 128//185 134//185
f 139//186 132//186 131//186
f 140//187 134//187 129//187
f 140//188 129//188 135//188
f 141//189 142//189 136//189
f 141//190 138//190 142//190
f 141//191 135//191 138//191
f 141//192 136//192 135//192
f 143//193 134//193 140//193
f 143//194 139//194 134//194
f 144//195 137//195 145//195
f 144//196 135//196 137//196
f 144//197 145//197 140//197
f 144//198 140//198 135//198
f 146//199 147//199 148//199
f 146//200 148//200 149//200
f 146//201 149//201 150//201
f 146//202 150//202 132//202
f 146//203 143//203 147//203
f 146//204 132//204 139//204
f 146//205 139//205 143//205
f 151//206 145//206 152//206
f 151//207 152//207 147//207
f 151//208 147//208 143//208
f 151//209 140//209 145//209
f 151//210 143//210 140//210
f 150//211 153//211 154//211
f 150//212 149//212 153//212
f 132//213 154//213 155//213
f 132//214 150//214 154//214
f 133//215 155//215 156//215
f 133//216 132//216 155//216
f 124//217 156//217 157//217
f 124//218 133//218 156//218
f 121//219 157//219 158//219
f 121//220 124//220 157//220
f 117//221 159//221 160//221
f 117//222 158//222 159//222
f 117//223 121//223 158//223
f 118//224 117//224 160//224
f 70//225 69//225 142//225
f 70//226 142//226 138//226
f 66//227 138//227 130//227
f 66//228 70//228 138//228
f 62//229 130//229 127//229
f 62//230 66//230 130//230
f 59//231 127//231 126//231
f 59//232 62//232 127//232
f 50//233 126//233 122//233
f 50//234 59//234 126//234
f 51//235 122//235 119//235
f 51//236 50//236 122//236
f 52//237 119//237 118//237
f 52//238 51//238 119//238
f 105//239 104//239 149//239
f 105//240 149//240 148//240
f 87//241 148//241 147//241
f 87//242 105//242 148//242
f 88//243 147//243 152//243
f 88//244 87//244 147//244
f 79//245 152//245 145//245
f 79//246 88//246 152//246
f 77//247 145//247 137//247
f 77//248 79//248 145//248
f 74//249 136//249 142//249
f 74//250 137//250 136//250
f 74//251 77//251 137//251
f 72//252 74//252 142//252
f 34//253 97//253 91//253
f 35//254 91//254 85//254
f 35//255 34//255 91//255
f 31//256 85//256 82//256
f 31//257 35//257 85//257
f 27//258 82//258 81//258
f 27//259 31//259 82//259
f 24//260 81//260 76//260
f 24//261 27//261 81//261
f 15//262 76//262 73//262
f 15//263 24//263 76//263
f 16//264 73//264 72//264
f 16//265 15//265 73//265
f 17//266 16//266 72//266
f 161//267 38//267 37//267
f 162//268 37//268 40//268
f 162//269 161//269 37//269
f 163//270 40//270 43//270
f 163//271 162//271 40//271
f 164//272 43//272 42//272
f 164//273 163//273 43//273
f 165//274 42//274 47//274
f 165//275 164//275 42//275
f 166//276 47//276 53//276
f 166//277 165//277 47//277
f 167//278 53//278 52//278
f 167//279 166//279 53//279
f 168//280 167//280 52//280
f 36//281 38//281 3//281
f 36//282 3//282 2//282
f 45//283 2//283 5//283
f 45//284 36//284 2//284
f 56//285 5//285 8//285
f 56//286 45//286 5//286
f 57//287 8//287 7//287
f 57//288 56//288 8//288
f 64//289 7//289 12//289
f 64//290 57//290 7//290
f 68//291 18//291 17//291
f 68//292 12//292 18//292
f 68//293 64//293 12//293
f 69//294 68//294 17//294
f 3//295 169//295 170//295
f 1//296 170//296 171//296
f 1//297 3//297 170//297
f 10//298 171//298 172//298
f 10//299 1//299 171//299
f 21//300 172//300 173//300
f 21//301 10//301 172//301
f 22//302 173//302 174//302
f 22//303 21//303 173//303
f 29//304 174//304 175//304
f 29//305 22//305 174//305
f 33//306 175//306 176//306
f 33//307 29//307 175//307
f 34//308 33//308 176//308
f 104//309 153//309 149//309
f 153//310 177//310 178//310
f 153//311 109//311 177//311
f 104//312 109//312 153//312
f 110//313 109//313 108//313
f 112//314 110//314 111//314
f 112//315 109//315 110//315
f 115//316 113//316 114//316
f 115//317 112//317 113//317
f 115//318 177//318 109//318
f 115//319 109//319 112//319
f 179//320 180//320 177//320
f 181//321 177//321 115//321
f 181//322 179//322 177//322
f 182//323 180//323 179//323
f 183//324 182//324 179//324
f 176//325 181//325 115//325
f 184//326 181//326 176//326
f 97//327 176//327 115//327
f 34//328 176//328 97//328
f 69//329 17//329 72//329
f 69//330 72//330 142//330
f 177//331 185//331 178//331
f 177//332 180//332 185//332
f 180//333 186//333 185//333
f 180//334 182//334 186//334
f 182//335 187//335 186//335
f 182//336 183//336 187//336
f 183//337 188//337 187//337
f 183//338 179//338 188//338
f 179//339 184//339 188//339
f 179//340 181//340 184//340
f 187//341 188//341 186//341
f 186//342 188//342 185//342
f 188//343 165//343 185//343
f 164//344 165//344 188//344
f 188//345 163//345 164//345
f 165//346 166//346 185//346
f 166//347 167//347 185//347
f 188//348 162//348 163//348
f 167//349 168//349 185//349
f 188//350 161//350 162//350
f 188//351 169//351 161//351
f 168//352 160//352 185//352
f 171//353 184//353 172//353
f 170//354 184//354 171//354
f 169//355 184//355 170//355
f 188//356 184//356 169//356
f 159//357 178//357 160//357
f 158//358 178//358 159//358
f 157//359 178//359 158//359
f 160//360 178//360 185//360
f 184//361 173//361 172//361
f 157//362 156//362 178//362
f 184//363 174//363 173//363
f 156//364 155//364 178//364
f 184//365 175//365 174//365
f 155//366 154//366 178//366
f 184//367 176//367 175//367
f 154//368 153//368 178//368
f 168//369 118//369 160//369
f 168//370 52//370 118//370
f 3//371 38//371 161//371
f 3//372 161//372 169//372
