# Created by FreeCAD <https://www.freecad.org>
v 4.310992 1.989971 23.600000
v 4.400000 1.989971 23.689009
v 4.400000 2.000000 23.600000
v 4.348180 1.978519 23.718483
v 4.400000 1.960388 23.773554
v 4.321541 1.914559 23.834301
v 4.400000 1.912733 23.849396
v 4.400000 1.849396 23.912733
v 4.281518 1.978519 23.651819
v 4.226447 1.960388 23.600000
v 4.315149 1.813681 23.927324
v 4.400000 1.773554 23.960388
v 4.234156 1.924024 23.765844
v 4.319324 1.687544 23.981874
v 4.400000 1.689008 23.989971
v 4.400000 1.600000 24.000000
v 4.310992 1.600000 23.989971
v 4.226447 1.600000 23.960388
v 4.215746 1.833462 23.867481
v 4.165699 1.914559 23.678459
v 4.150604 1.912733 23.600000
v 4.087267 1.849396 23.600000
v 4.219581 1.715397 23.937836
v 4.150604 1.600000 23.912733
v 4.132519 1.833462 23.784254
v 4.131313 1.724957 23.868687
v 4.087267 1.600000 23.849396
v 4.072677 1.813681 23.684851
v 4.039612 1.773554 23.600000
v 4.062165 1.715397 23.780420
v 4.039612 1.600000 23.773554
v 4.018126 1.687544 23.680676
v 4.010029 1.689008 23.600000
v 4.000000 1.600000 23.600000
v 4.010029 1.600000 23.689009
v 4.400000 1.989971 21.310991
v 4.310992 1.989971 21.400000
v 4.400000 2.000000 21.400000
v 4.281518 1.978519 21.348181
v 4.226447 1.960388 21.400000
v 4.165699 1.914559 21.321541
v 4.150604 1.912733 21.400000
v 4.087267 1.849396 21.400000
v 4.348180 1.978519 21.281517
v 4.400000 1.960388 21.226446
v 4.072677 1.813681 21.315149
v 4.039612 1.773554 21.400000
v 4.234156 1.924024 21.234156
v 4.018126 1.687544 21.319324
v 4.010029 1.689008 21.400000
v 4.000000 1.600000 21.400000
v 4.010029 1.600000 21.310991
v 4.039612 1.600000 21.226446
v 4.132519 1.833462 21.215746
v 4.321541 1.914559 21.165699
v 4.400000 1.912733 21.150604
v 4.400000 1.849396 21.087267
v 4.062165 1.715397 21.219580
v 4.087267 1.600000 21.150604
v 4.215746 1.833462 21.132519
v 4.131313 1.724957 21.131313
v 4.150604 1.600000 21.087267
v 4.315149 1.813681 21.072676
v 4.400000 1.773554 21.039612
v 4.219581 1.715397 21.062164
v 4.226447 1.600000 21.039612
v 4.319324 1.687544 21.018126
v 4.400000 1.689008 21.010029
v 4.400000 1.600000 21.000000
v 4.310992 1.600000 21.010029
v 4.370819 -0.667455 23.993191
v 4.400000 -0.600000 24.000000
v 4.310992 -0.600000 23.989971
v 4.400000 -0.689008 23.989971
v 4.268543 -0.703642 23.963287
v 4.226447 -0.600000 23.960388
v 4.400000 -0.773553 23.960388
v 4.368262 -0.796845 23.946764
v 4.400000 -0.849396 23.912733
v 4.173503 -0.722554 23.906071
v 4.150604 -0.600000 23.912733
v 4.263939 -0.825976 23.900703
v 4.093929 -0.722554 23.826498
v 4.087267 -0.600000 23.849396
v 4.039612 -0.600000 23.773554
v 4.370015 -0.902921 23.859499
v 4.400000 -0.912733 23.849396
v 4.400000 -0.960387 23.773554
v 4.171619 -0.835975 23.828381
v 4.036713 -0.703642 23.731457
v 4.010029 -0.600000 23.689009
v 4.010029 -0.689008 23.600000
v 4.039612 -0.773553 23.600000
v 4.275924 -0.921645 23.802855
v 4.099297 -0.825976 23.736061
v 4.006810 -0.667455 23.629181
v 4.000000 -0.600000 23.600000
v 4.197145 -0.921645 23.724075
v 4.053237 -0.796845 23.631739
v 4.087267 -0.849396 23.600000
v 4.312836 -0.980532 23.687164
v 4.310992 -0.989971 23.600000
v 4.400000 -1.000000 23.600000
v 4.226447 -0.960387 23.600000
v 4.400000 -0.989971 23.689009
v 4.140501 -0.902921 23.629986
v 4.150604 -0.912733 23.600000
v 14.000000 -1.000000 23.600000
v 14.000000 -0.989971 23.689009
v 14.000000 -0.960387 23.773554
v 14.000000 -0.912733 23.849396
v 14.000000 -0.849396 23.912733
v 14.000000 -0.773553 23.960388
v 14.000000 -0.689008 23.989971
v 14.000000 -0.600000 24.000000
v 4.006810 -0.667455 21.370819
v 4.010029 -0.689008 21.400000
v 4.000000 -0.600000 21.400000
v 4.010029 -0.600000 21.310991
v 4.036713 -0.703642 21.268543
v 4.039612 -0.773553 21.400000
v 4.039612 -0.600000 21.226446
v 4.053237 -0.796845 21.368261
v 4.087267 -0.849396 21.400000
v 4.093929 -0.722554 21.173502
v 4.087267 -0.600000 21.150604
v 4.099297 -0.825976 21.263939
v 4.173503 -0.722554 21.093929
v 4.150604 -0.600000 21.087267
v 4.226447 -0.600000 21.039612
v 4.140501 -0.902921 21.370014
v 4.150604 -0.912733 21.400000
v 4.226447 -0.960387 21.400000
v 4.171619 -0.835975 21.171619
v 4.268543 -0.703642 21.036713
v 4.310992 -0.600000 21.010029
v 4.400000 -0.689008 21.010029
v 4.400000 -0.773553 21.039612
v 4.197145 -0.921645 21.275925
v 4.263939 -0.825976 21.099297
v 4.370819 -0.667455 21.006809
v 4.400000 -0.600000 21.000000
v 4.275924 -0.921645 21.197145
v 4.368262 -0.796845 21.053236
v 4.400000 -0.849396 21.087267
v 4.312836 -0.980532 21.312836
v 4.310992 -0.989971 21.400000
v 4.400000 -1.000000 21.400000
v 4.400000 -0.989971 21.310991
v 4.400000 -0.960387 21.226446
v 4.370015 -0.902921 21.140501
v 4.400000 -0.912733 21.150604
v 10.000000 -0.989971 21.310991
v 10.000000 -1.000000 21.400000
v 10.000000 -0.960387 21.226446
v 10.000000 -0.912733 21.150604
v 10.000000 -0.849396 21.087267
v 10.000000 -0.773553 21.039612
v 10.000000 -0.689008 21.010029
v 10.000000 -0.600000 21.000000
v 10.000000 2.000000 21.400000
v 10.000000 1.989971 21.310991
v 10.000000 1.960388 21.226446
v 10.000000 1.912733 21.150604
v 10.000000 1.849396 21.087267
v 10.000000 1.773554 21.039612
v 10.000000 1.689008 21.010029
v 10.000000 1.600000 21.000000
v 10.000000 1.989971 23.689009
v 10.000000 2.000000 23.600000
v 10.000000 1.960388 23.773554
v 10.000000 1.912733 23.849396
v 10.000000 1.849396 23.912733
v 10.000000 1.773554 23.960388
v 10.000000 1.689008 23.989971
v 10.000000 1.600000 24.000000
v 14.000000 -1.000000 21.000000
v 10.000000 -1.000000 21.000000
v 14.000000 3.487671 18.250908
v 14.000000 3.487671 21.250908
v 14.000000 2.000000 24.000000
v 14.000000 7.783994 18.250908
v 14.000000 7.783994 21.250908
v 10.000000 2.000000 24.000000
v 10.000000 3.487671 18.250908
v 10.000000 7.783994 18.250908
v 10.000000 7.783994 21.250908
v 10.000000 3.487671 21.250908
vn -0.111268 0.987542 0.111268
vn -0.020736 0.943680 0.330209
vn -0.082366 0.843846 0.530226
vn -0.118733 0.702108 0.702102
vn -0.167366 0.878824 0.446831
vn -0.330209 0.943680 0.020740
vn -0.138161 0.980726 0.138161
vn -0.138159 0.980727 0.138155
vn -0.078093 0.530409 0.844137
vn -0.160043 0.674631 0.720597
vn -0.304713 0.902389 0.304704
vn -0.239665 0.872150 0.426516
vn -0.100216 0.328610 0.939134
vn -0.101239 0.111389 0.988607
vn -0.111380 0.102027 0.988527
vn -0.327969 0.117905 0.937302
vn -0.170496 0.386367 0.906450
vn -0.374395 0.724962 0.578151
vn -0.287262 0.659109 0.695022
vn -0.702104 0.702105 0.118738
vn -0.530224 0.843847 0.082369
vn -0.426513 0.872152 0.239662
vn -0.446826 0.878825 0.167370
vn -0.527333 0.132641 0.839242
vn -0.361554 0.158063 0.918855
vn -0.285856 0.372388 0.882957
vn -0.387936 0.462482 0.797256
vn -0.515908 0.683871 0.515905
vn -0.578152 0.724961 0.374396
vn -0.700272 0.138728 0.700267
vn -0.530650 0.421098 0.735586
vn -0.593655 0.184454 0.783294
vn -0.617458 0.487335 0.617454
vn -0.844137 0.530409 0.078099
vn -0.720598 0.674628 0.160046
vn -0.695025 0.659107 0.287261
vn -0.839240 0.132642 0.527335
vn -0.783296 0.184451 0.593654
vn -0.735587 0.421100 0.530647
vn -0.797257 0.462483 0.387933
vn -0.988605 0.111389 0.101251
vn -0.939131 0.328614 0.100227
vn -0.937299 0.117917 0.327973
vn -0.988526 0.102038 0.111380
vn -0.882958 0.372389 0.285854
vn -0.906449 0.386366 0.170502
vn -0.918856 0.158066 0.361550
vn -0.111268 0.987542 -0.111268
vn -0.330209 0.943680 -0.020740
vn -0.138161 0.980726 -0.138161
vn -0.530224 0.843847 -0.082369
vn -0.702104 0.702105 -0.118738
vn -0.446826 0.878825 -0.167370
vn -0.020736 0.943680 -0.330209
vn -0.138159 0.980727 -0.138155
vn -0.844137 0.530409 -0.078099
vn -0.720598 0.674628 -0.160046
vn -0.304713 0.902389 -0.304704
vn -0.426513 0.872152 -0.239662
vn -0.939131 0.328614 -0.100227
vn -0.988605 0.111389 -0.101251
vn -0.988526 0.102038 -0.111380
vn -0.937299 0.117917 -0.327973
vn -0.906449 0.386366 -0.170502
vn -0.578152 0.724961 -0.374396
vn -0.695025 0.659107 -0.287261
vn -0.118733 0.702108 -0.702102
vn -0.082366 0.843846 -0.530226
vn -0.239665 0.872150 -0.426516
vn -0.167366 0.878824 -0.446831
vn -0.839240 0.132642 -0.527335
vn -0.918856 0.158066 -0.361550
vn -0.797257 0.462483 -0.387933
vn -0.882958 0.372389 -0.285854
vn -0.374395 0.724962 -0.578151
vn -0.515908 0.683871 -0.515905
vn -0.700272 0.138728 -0.700267
vn -0.735587 0.421100 -0.530647
vn -0.783296 0.184451 -0.593654
vn -0.617458 0.487335 -0.617454
vn -0.078093 0.530409 -0.844137
vn -0.160043 0.674631 -0.720597
vn -0.287262 0.659109 -0.695022
vn -0.527333 0.132641 -0.839242
vn -0.593655 0.184454 -0.783294
vn -0.530650 0.421098 -0.735586
vn -0.387936 0.462482 -0.797256
vn -0.101239 0.111389 -0.988607
vn -0.100216 0.328610 -0.939134
vn -0.327969 0.117905 -0.937302
vn -0.111380 0.102027 -0.988527
vn -0.170496 0.386367 -0.906450
vn -0.285856 0.372388 -0.882957
vn -0.361554 0.158063 -0.918855
vn -0.111814 -0.051804 0.992378
vn 0.026931 -0.111924 0.993352
vn -0.328372 -0.107125 0.938454
vn -0.153007 -0.326384 0.932771
vn -0.150228 -0.341964 0.927627
vn -0.226371 -0.154874 0.961650
vn 0.026959 -0.531840 0.846416
vn -0.155919 -0.331760 0.930389
vn -0.526494 -0.143924 0.837908
vn -0.482726 -0.172050 0.858705
vn -0.411970 -0.402661 0.817401
vn -0.173043 -0.606864 0.775740
vn -0.260619 -0.431911 0.863441
vn -0.837908 -0.143914 0.526497
vn -0.697045 -0.168121 0.697039
vn -0.697035 -0.168131 0.697047
vn 0.006886 -0.707094 0.707086
vn -0.097317 -0.842704 0.529509
vn -0.176530 -0.642619 0.745572
vn -0.639300 -0.427290 0.639311
vn -0.507755 -0.481087 0.714661
vn -0.938452 -0.107128 0.328377
vn -0.932769 -0.326388 0.153010
vn -0.858711 -0.172048 0.482716
vn -0.256409 -0.706637 0.659484
vn -0.406622 -0.677648 0.612741
vn -0.142147 -0.845054 0.515440
vn -0.817405 -0.402663 0.411960
vn -0.714661 -0.481093 0.507749
vn -0.992377 -0.051819 0.111814
vn -0.993353 -0.111924 -0.026899
vn -0.961650 -0.154882 0.226363
vn -0.927637 -0.341934 0.150238
vn -0.482428 -0.731115 0.482425
vn -0.612743 -0.677648 0.406619
vn -0.846416 -0.531840 -0.026946
vn -0.775744 -0.606859 0.173043
vn -0.930385 -0.331769 0.155924
vn -0.863442 -0.431911 0.260616
vn -0.111294 -0.987757 0.109319
vn -0.328327 -0.938305 0.108555
vn -0.108556 -0.938305 0.328327
vn -0.109319 -0.987757 0.111294
vn -0.186580 -0.898331 0.397730
vn -0.397731 -0.898331 0.186580
vn -0.338733 -0.877793 0.338731
vn -0.529506 -0.842704 0.097327
vn -0.707089 -0.707091 -0.006877
vn -0.659485 -0.706636 0.256409
vn -0.745572 -0.642618 0.176531
vn -0.515440 -0.845054 0.142146
vn 0.000000 -0.993712 0.111965
vn 0.000000 -0.943883 0.330279
vn 0.000000 -0.993712 0.111965
vn 0.000000 -0.846723 0.532034
vn 0.000000 -0.943883 0.330279
vn 0.000000 -0.707110 0.707103
vn 0.000000 -0.846723 0.532034
vn 0.000000 -0.532033 0.846723
vn 0.000000 -0.707110 0.707103
vn 0.000000 -0.330273 0.943886
vn 0.000000 -0.532033 0.846723
vn 0.000000 -0.111965 0.993712
vn 0.000000 -0.330273 0.943886
vn 0.000000 -0.111965 0.993712
vn -0.993353 -0.111924 0.026899
vn -0.992377 -0.051819 -0.111814
vn -0.932769 -0.326388 -0.153010
vn -0.938452 -0.107128 -0.328377
vn -0.927637 -0.341934 -0.150238
vn -0.961650 -0.154882 -0.226363
vn -0.846416 -0.531840 0.026946
vn -0.930385 -0.331769 -0.155924
vn -0.837908 -0.143914 -0.526497
vn -0.858711 -0.172048 -0.482716
vn -0.817405 -0.402663 -0.411960
vn -0.863442 -0.431911 -0.260616
vn -0.775744 -0.606859 -0.173043
vn -0.526494 -0.143924 -0.837908
vn -0.697043 -0.168132 -0.697038
vn -0.697036 -0.168122 -0.697048
vn -0.707089 -0.707091 0.006877
vn -0.529506 -0.842704 -0.097327
vn -0.745572 -0.642618 -0.176531
vn -0.639300 -0.427290 -0.639311
vn -0.714661 -0.481093 -0.507749
vn -0.328372 -0.107125 -0.938454
vn -0.153007 -0.326384 -0.932771
vn -0.482726 -0.172050 -0.858705
vn -0.659485 -0.706636 -0.256409
vn -0.612743 -0.677648 -0.406619
vn -0.515440 -0.845054 -0.142146
vn -0.411970 -0.402661 -0.817401
vn -0.507755 -0.481087 -0.714661
vn -0.111814 -0.051804 -0.992378
vn 0.026931 -0.111924 -0.993352
vn -0.150228 -0.341964 -0.927627
vn -0.226371 -0.154874 -0.961650
vn -0.482428 -0.731115 -0.482425
vn -0.406622 -0.677648 -0.612741
vn 0.026959 -0.531840 -0.846416
vn -0.173043 -0.606864 -0.775740
vn -0.155919 -0.331760 -0.930389
vn -0.260619 -0.431911 -0.863441
vn -0.328327 -0.938305 -0.108555
vn -0.111294 -0.987757 -0.109319
vn -0.109319 -0.987757 -0.111294
vn -0.108556 -0.938305 -0.328327
vn -0.397731 -0.898331 -0.186580
vn -0.186580 -0.898331 -0.397730
vn -0.338733 -0.877793 -0.338731
vn -0.097317 -0.842704 -0.529509
vn 0.006886 -0.707094 -0.707086
vn -0.176530 -0.642619 -0.745572
vn -0.142147 -0.845054 -0.515440
vn -0.256409 -0.706637 -0.659484
vn 0.000000 -0.993712 -0.111965
vn -0.000000 -0.993712 -0.111965
vn -0.000000 -0.943883 -0.330279
vn 0.000000 -0.943883 -0.330279
vn -0.000000 -0.846723 -0.532034
vn 0.000000 -0.846723 -0.532034
vn -0.000000 -0.707110 -0.707103
vn 0.000000 -0.707110 -0.707103
vn -0.000000 -0.532033 -0.846723
vn 0.000000 -0.532033 -0.846723
vn -0.000000 -0.330273 -0.943886
vn -0.000000 -0.111965 -0.993712
vn 0.000000 -0.330273 -0.943886
vn -0.000000 -0.111965 -0.993712
vn -0.993712 0.000000 -0.111965
vn -0.943884 0.000000 -0.330277
vn -0.993712 0.000000 -0.111965
vn -0.846722 0.000000 -0.532036
vn -0.943884 0.000000 -0.330277
vn -0.707109 0.000000 -0.707104
vn -0.846722 0.000000 -0.532036
vn -0.532034 0.000000 -0.846723
vn -0.707109 0.000000 -0.707104
vn -0.330273 0.000000 -0.943886
vn -0.532034 0.000000 -0.846723
vn -0.111965 0.000000 -0.993712
vn -0.330273 0.000000 -0.943886
vn -0.111965 0.000000 -0.993712
vn -0.111965 -0.993712 0.000000
vn -0.330279 -0.943883 0.000000
vn -0.111965 -0.993712 0.000000
vn -0.532032 -0.846724 0.000000
vn -0.330279 -0.943883 0.000000
vn -0.707106 -0.707108 0.000000
vn -0.532032 -0.846724 0.000000
vn -0.846723 -0.532033 0.000000
vn -0.707106 -0.707108 0.000000
vn -0.846723 -0.532033 0.000000
vn -0.943884 -0.330277 0.000000
vn -0.993712 -0.111965 0.000000
vn -0.943884 -0.330277 0.000000
vn -0.993712 -0.111965 0.000000
vn -0.111965 0.000000 0.993712
vn -0.111965 0.000000 0.993712
vn -0.330273 0.000000 0.943886
vn -0.330273 0.000000 0.943886
vn -0.532034 0.000000 0.846723
vn -0.532034 0.000000 0.846723
vn -0.707109 0.000000 0.707104
vn -0.707109 0.000000 0.707104
vn -0.846722 0.000000 0.532036
vn -0.846722 0.000000 0.532036
vn -0.943884 0.000000 0.330277
vn -0.943884 0.000000 0.330277
vn -0.993712 0.000000 0.111965
vn -0.993712 0.000000 0.111965
vn 0.000000 0.993712 -0.111963
vn 0.000000 0.993712 -0.111963
vn 0.000000 0.943883 -0.330280
vn 0.000000 0.943883 -0.330280
vn 0.000000 0.846723 -0.532034
vn 0.000000 0.846723 -0.532034
vn 0.000000 0.707110 -0.707103
vn 0.000000 0.707110 -0.707103
vn 0.000000 0.532034 -0.846723
vn 0.000000 0.532034 -0.846723
vn 0.000000 0.330273 -0.943886
vn 0.000000 0.330273 -0.943886
vn 0.000000 0.111964 -0.993712
vn 0.000000 0.111964 -0.993712
vn -0.111963 0.993712 0.000000
vn -0.111963 0.993712 0.000000
vn -0.330280 0.943883 0.000000
vn -0.330280 0.943883 0.000000
vn -0.532032 0.846724 0.000000
vn -0.532032 0.846724 0.000000
vn -0.707106 0.707107 0.000000
vn -0.707106 0.707107 0.000000
vn -0.846723 0.532034 0.000000
vn -0.846723 0.532034 0.000000
vn -0.943884 0.330277 0.000000
vn -0.993712 0.111964 0.000000
vn -0.943884 0.330277 0.000000
vn -0.993712 0.111964 0.000000
vn 0.000000 0.993712 0.111963
vn 0.000000 0.993712 0.111963
vn 0.000000 0.943883 0.330280
vn 0.000000 0.943883 0.330280
vn 0.000000 0.846723 0.532034
vn 0.000000 0.846723 0.532034
vn 0.000000 0.707110 0.707103
vn 0.000000 0.707110 0.707103
vn 0.000000 0.532034 0.846723
vn 0.000000 0.532034 0.846723
vn 0.000000 0.330273 0.943886
vn 0.000000 0.330273 0.943886
vn 0.000000 0.111964 0.993712
vn 0.000000 0.111964 0.993712
vn 0.000000 -1.000000 0.000000
vn 0.000000 -1.000000 0.000000
vn 0.000000 -1.000000 -0.000000
vn -0.000000 -1.000000 0.000000
vn 1.000000 0.000000 0.000000
vn 1.000000 0.000000 0.000000
vn 1.000000 0.000000 0.000000
vn 1.000000 0.000000 0.000000
vn 1.000000 0.000000 0.000000
vn 1.000000 0.000000 0.000000
vn 1.000000 0.000000 -0.000000
vn 1.000000 0.000000 0.000000
vn 1.000000 0.000000 0.000000
vn 1.000000 0.000000 0.000000
vn 1.000000 0.000000 0.000000
vn 1.000000 0.000000 -0.000000
vn 0.000000 0.000000 1.000000
vn 0.000000 0.000000 1.000000
vn 0.000000 0.000000 1.000000
vn 0.000000 0.000000 1.000000
vn -1.000000 -0.000000 -0.000000
vn -1.000000 0.000000 0.000000
vn -0.000000 -0.522366 -0.852721
vn 0.000000 -0.522366 -0.852721
vn -0.000000 -0.000000 -1.000000
vn 0.000000 0.000000 -1.000000
vn 0.000000 1.000000 0.000000
vn 0.000000 1.000000 0.000000
vn 0.000000 -0.000000 1.000000
vn 0.000000 0.000000 1.000000
vn 0.000000 0.879482 0.475932
vn 0.000000 0.879482 0.475932
vn -1.000000 0.000000 0.000000
vn -1.000000 0.000000 0.000000
vn -1.000000 0.000000 0.000000
vn -1.000000 0.000000 -0.000000
vn -1.000000 0.000000 0.000000
vn -1.000000 0.000000 -0.000000
vn -1.000000 0.000000 -0.000000
vn -1.000000 0.000000 0.000000
vn -1.000000 0.000000 -0.000000
vn -1.000000 0.000000 0.000000
vn -1.000000 0.000000 0.000000
vn -1.000000 0.000000 0.000000
vn -1.000000 0.000000 0.000000
vn -1.000000 0.000000 0.000000
vn -1.000000 0.000000 -0.000000
vn -1.000000 0.000000 0.000000
vn -1.000000 0.000000 0.000000
vn -1.000000 0.000000 0.000000
vn -1.000000 0.000000 0.000000
vn -1.000000 0.000000 0.000000
vn -1.000000 0.000000 0.000000
vn -1.000000 0.000000 -0.000000
vn -1.000000 0.000000 0.000000
vn -1.000000 0.000000 -0.000000
vn -1.000000 0.000000 0.000000
vn -1.000000 0.000000 -0.000000
vn -1.000000 0.000000 0.000000
vn -1.000000 0.000000 0.000000
vn 0.000000 0.000000 -1.000000
vn 0.000000 0.000000 -1.000000
vn 0.000000 1.000000 -0.000000
vn 0.000000 1.000000 0.000000
f 1//1 2//1 3//1
f 4//2 5//2 2//2
f 6//3 7//3 5//3
f 6//4 8//4 7//4
f 6//5 5//5 4//5
f 9//6 1//6 10//6
f 9//7 2//7 1//7
f 9//8 4//8 2//8
f 11//9 12//9 8//9
f 11//10 8//10 6//10
f 13//11 4//11 9//11
f 13//12 6//12 4//12
f 14//13 15//13 12//13
f 14//14 16//14 15//14
f 14//15 17//15 16//15
f 14//16 18//16 17//16
f 14//17 12//17 11//17
f 19//18 6//18 13//18
f 19//19 11//19 6//19
f 20//20 21//20 22//20
f 20//21 10//21 21//21
f 20//22 13//22 9//22
f 20//23 9//23 10//23
f 23//24 24//24 18//24
f 23//25 18//25 14//25
f 23//26 14//26 11//26
f 23//27 11//27 19//27
f 25//28 19//28 13//28
f 25//29 13//29 20//29
f 26//30 27//30 24//30
f 26//31 23//31 19//31
f 26//32 24//32 23//32
f 26//33 19//33 25//33
f 28//34 22//34 29//34
f 28//35 20//35 22//35
f 28//36 25//36 20//36
f 30//37 31//37 27//37
f 30//38 27//38 26//38
f 30//39 26//39 25//39
f 30//40 25//40 28//40
f 32//41 33//41 34//41
f 32//42 29//42 33//42
f 32//43 35//43 31//43
f 32//44 34//44 35//44
f 32//45 30//45 28//45
f 32//46 28//46 29//46
f 32//47 31//47 30//47
f 36//48 37//48 38//48
f 39//49 40//49 37//49
f 39//50 37//50 36//50
f 41//51 42//51 40//51
f 41//52 43//52 42//52
f 41//53 40//53 39//53
f 44//54 36//54 45//54
f 44//55 39//55 36//55
f 46//56 47//56 43//56
f 46//57 43//57 41//57
f 48//58 39//58 44//58
f 48//59 41//59 39//59
f 49//60 50//60 47//60
f 49//61 51//61 50//61
f 49//62 52//62 51//62
f 49//63 53//63 52//63
f 49//64 47//64 46//64
f 54//65 41//65 48//65
f 54//66 46//66 41//66
f 55//67 56//67 57//67
f 55//68 45//68 56//68
f 55//69 48//69 44//69
f 55//70 44//70 45//70
f 58//71 59//71 53//71
f 58//72 53//72 49//72
f 58//73 46//73 54//73
f 58//74 49//74 46//74
f 60//75 48//75 55//75
f 60//76 54//76 48//76
f 61//77 62//77 59//77
f 61//78 58//78 54//78
f 61//79 59//79 58//79
f 61//80 54//80 60//80
f 63//81 57//81 64//81
f 63//82 55//82 57//82
f 63//83 60//83 55//83
f 65//84 66//84 62//84
f 65//85 62//85 61//85
f 65//86 61//86 60//86
f 65//87 60//87 63//87
f 67//88 68//88 69//88
f 67//89 64//89 68//89
f 67//90 70//90 66//90
f 67//91 69//91 70//91
f 67//92 63//92 64//92
f 67//93 65//93 63//93
f 67//94 66//94 65//94
f 71//95 72//95 73//95
f 71//96 74//96 72//96
f 75//97 73//97 76//97
f 75//98 77//98 74//98
f 75//99 74//99 71//99
f 75//100 71//100 73//100
f 78//101 79//101 77//101
f 78//102 77//102 75//102
f 80//103 76//103 81//103
f 80//104 75//104 76//104
f 82//105 75//105 80//105
f 82//106 79//106 78//106
f 82//107 78//107 75//107
f 83//108 84//108 85//108
f 83//109 81//109 84//109
f 83//110 80//110 81//110
f 86//111 87//111 79//111
f 86//112 88//112 87//112
f 86//113 79//113 82//113
f 89//114 80//114 83//114
f 89//115 82//115 80//115
f 90//116 85//116 91//116
f 90//117 92//117 93//117
f 90//118 83//118 85//118
f 94//119 86//119 82//119
f 94//120 82//120 89//120
f 94//121 88//121 86//121
f 95//122 83//122 90//122
f 95//123 89//123 83//123
f 96//124 91//124 97//124
f 96//125 97//125 92//125
f 96//126 90//126 91//126
f 96//127 92//127 90//127
f 98//128 94//128 89//128
f 98//129 89//129 95//129
f 99//130 93//130 100//130
f 99//131 100//131 95//131
f 99//132 90//132 93//132
f 99//133 95//133 90//133
f 101//134 102//134 103//134
f 101//135 104//135 102//135
f 101//136 105//136 88//136
f 101//137 103//137 105//137
f 101//138 88//138 94//138
f 101//139 98//139 104//139
f 101//140 94//140 98//140
f 106//141 107//141 104//141
f 106//142 100//142 107//142
f 106//143 98//143 95//143
f 106//144 95//144 100//144
f 106//145 104//145 98//145
f 103//146 108//146 109//146
f 105//147 109//147 110//147
f 105//148 103//148 109//148
f 88//149 110//149 111//149
f 88//150 105//150 110//150
f 87//151 111//151 112//151
f 87//152 88//152 111//152
f 79//153 112//153 113//153
f 79//154 87//154 112//154
f 77//155 113//155 114//155
f 77//156 79//156 113//156
f 74//157 114//157 115//157
f 74//158 77//158 114//158
f 72//159 74//159 115//159
f 116//160 117//160 118//160
f 116//161 118//161 119//161
f 120//162 121//162 117//162
f 120//163 119//163 122//163
f 120//164 117//164 116//164
f 120//165 116//165 119//165
f 123//166 124//166 121//166
f 123//167 121//167 120//167
f 125//168 122//168 126//168
f 125//169 120//169 122//169
f 127//170 120//170 125//170
f 127//171 123//171 120//171
f 127//172 124//172 123//172
f 128//173 129//173 130//173
f 128//174 126//174 129//174
f 128//175 125//175 126//175
f 131//176 132//176 124//176
f 131//177 133//177 132//177
f 131//178 124//178 127//178
f 134//179 125//179 128//179
f 134//180 127//180 125//180
f 135//181 130//181 136//181
f 135//182 137//182 138//182
f 135//183 128//183 130//183
f 139//184 131//184 127//184
f 139//185 127//185 134//185
f 139//186 133//186 131//186
f 140//187 128//187 135//187
f 140//188 134//188 128//188
f 141//189 136//189 142//189
f 141//190 142//190 137//190
f 141//191 137//191 135//191
f 141//192 135//192 136//192
f 143//193 139//193 134//193
f 143//194 134//194 140//194
f 144//195 138//195 145//195
f 144//196 145//196 140//196
f 144//197 135//197 138//197
f 144//198 140//198 135//198
f 146//199 147//199 133//199
f 146//200 148//200 147//200
f 146//201 149//201 148//201
f 146//202 150//202 149//202
f 146//203 133//203 139//203
f 146//204 143//204 150//204
f 146//205 139//205 143//205
f 151//206 152//206 150//206
f 151//207 145//207 152//207
f 151//208 140//208 145//208
f 151//209 150//209 143//209
f 151//210 143//210 140//210
f 153//211 154//211 148//211
f 153//212 148//212 149//212
f 155//213 149//213 150//213
f 155//214 153//214 149//214
f 156//215 150//215 152//215
f 156//216 155//216 150//216
f 157//217 152//217 145//217
f 157//218 156//218 152//218
f 158//219 145//219 138//219
f 158//220 157//220 145//220
f 159//221 138//221 137//221
f 159//222 137//222 142//222
f 159//223 158//223 138//223
f 160//224 159//224 142//224
f 118//225 51//225 52//225
f 119//226 52//226 53//226
f 119//227 118//227 52//227
f 122//228 53//228 59//228
f 122//229 119//229 53//229
f 126//230 59//230 62//230
f 126//231 122//231 59//231
f 129//232 62//232 66//232
f 129//233 126//233 62//233
f 130//234 66//234 70//234
f 130//235 129//235 66//235
f 136//236 70//236 69//236
f 136//237 130//237 70//237
f 142//238 136//238 69//238
f 148//239 103//239 102//239
f 147//240 102//240 104//240
f 147//241 148//241 102//241
f 133//242 104//242 107//242
f 133//243 147//243 104//243
f 132//244 107//244 100//244
f 132//245 133//245 107//245
f 124//246 100//246 93//246
f 124//247 132//247 100//247
f 121//248 124//248 93//248
f 117//249 93//249 92//249
f 117//250 92//250 97//250
f 117//251 121//251 93//251
f 118//252 117//252 97//252
f 73//253 16//253 17//253
f 73//254 72//254 16//254
f 76//255 17//255 18//255
f 76//256 73//256 17//256
f 81//257 18//257 24//257
f 81//258 76//258 18//258
f 84//259 24//259 27//259
f 84//260 81//260 24//260
f 85//261 27//261 31//261
f 85//262 84//262 27//262
f 91//263 31//263 35//263
f 91//264 85//264 31//264
f 97//265 35//265 34//265
f 97//266 91//266 35//266
f 36//267 161//267 162//267
f 36//268 38//268 161//268
f 45//269 162//269 163//269
f 45//270 36//270 162//270
f 56//271 163//271 164//271
f 56//272 45//272 163//272
f 57//273 164//273 165//273
f 57//274 56//274 164//274
f 64//275 165//275 166//275
f 64//276 57//276 165//276
f 68//277 166//277 167//277
f 68//278 64//278 166//278
f 69//279 167//279 168//279
f 69//280 68//280 167//280
f 1//281 38//281 37//281
f 1//282 3//282 38//282
f 10//283 37//283 40//283
f 10//284 1//284 37//284
f 21//285 40//285 42//285
f 21//286 10//286 40//286
f 22//287 42//287 43//287
f 22//288 21//288 42//288
f 29//289 43//289 47//289
f 29//290 22//290 43//290
f 33//291 47//291 50//291
f 33//292 50//292 51//292
f 33//293 29//293 47//293
f 34//294 33//294 51//294
f 169//295 170//295 3//295
f 169//296 3//296 2//296
f 171//297 2//297 5//297
f 171//298 169//298 2//298
f 172//299 5//299 7//299
f 172//300 171//300 5//300
f 173//301 7//301 8//301
f 173//302 172//302 7//302
f 174//303 8//303 12//303
f 174//304 173//304 8//304
f 175//305 12//305 15//305
f 175//306 174//306 12//306
f 176//307 15//307 16//307
f 176//308 175//308 15//308
f 154//309 103//309 148//309
f 177//310 154//310 178//310
f 108//311 154//311 177//311
f 108//312 103//312 154//312
f 109//313 111//313 110//313
f 108//314 111//314 109//314
f 112//315 114//315 113//315
f 111//316 114//316 112//316
f 108//317 114//317 111//317
f 108//318 115//318 114//318
f 179//319 180//319 177//319
f 177//320 181//320 108//320
f 108//321 181//321 115//321
f 180//322 181//322 177//322
f 179//323 182//323 180//323
f 182//324 183//324 180//324
f 181//325 176//325 115//325
f 181//326 184//326 176//326
f 176//327 72//327 115//327
f 176//328 16//328 72//328
f 34//329 51//329 97//329
f 97//330 51//330 118//330
f 179//331 177//331 185//331
f 185//332 177//332 178//332
f 182//333 179//333 186//333
f 186//334 179//334 185//334
f 183//335 182//335 187//335
f 187//336 182//336 186//336
f 180//337 183//337 188//337
f 188//338 183//338 187//338
f 181//339 180//339 184//339
f 184//340 180//340 188//340
f 188//341 187//341 186//341
f 188//342 186//342 185//342
f 165//343 188//343 185//343
f 164//344 188//344 165//344
f 166//345 165//345 185//345
f 163//346 188//346 164//346
f 162//347 188//347 163//347
f 167//348 166//348 185//348
f 161//349 188//349 162//349
f 168//350 167//350 185//350
f 170//351 188//351 161//351
f 160//352 168//352 185//352
f 184//353 171//353 172//353
f 184//354 169//354 171//354
f 184//355 170//355 169//355
f 184//356 188//356 170//356
f 178//357 159//357 160//357
f 178//358 158//358 159//358
f 178//359 157//359 158//359
f 178//360 160//360 185//360
f 173//361 184//361 172//361
f 156//362 157//362 178//362
f 174//363 184//363 173//363
f 155//364 156//364 178//364
f 175//365 184//365 174//365
f 153//366 155//366 178//366
f 176//367 184//367 175//367
f 154//368 153//368 178//368
f 69//369 168//369 142//369
f 142//370 168//370 160//370
f 161//371 3//371 170//371
f 38//372 3//372 161//372
