# WaveFront *.obj file
# Vertices: 401
# Triangles : 798

v -5.5125878962666190e+00 2.8533806113013291e+00 1.7042013217618042e+00
v -5.6625878985017923e+00 2.8033882257985656e+00 1.7050739420966714e+00
v -5.8125879007369701e+00 2.7533958402958030e+00 1.7059465624315402e+00
v -5.9625879029721416e+00 2.7034034547930372e+00 1.7068191827664063e+00
v -6.1125879052073158e+00 2.6534110692902728e+00 1.7076918031012731e+00
v -6.1125879052073149e+00 2.6538707532966099e+00 1.7340270821865853e+00
v -6.1125879052073149e+00 2.6543304373029466e+00 1.7603623612718986e+00
v -6.1125879052073167e+00 2.6547901213092842e+00 1.7866976403572103e+00
v -6.1125879052073158e+00 2.6552498053156204e+00 1.8130329194425225e+00
v -5.9625879029721416e+00 2.7052421908183844e+00 1.8121602991076555e+00
v -5.8125879007369701e+00 2.7552345763211474e+00 1.8112876787727892e+00
v -5.6625878985017923e+00 2.8052269618239127e+00 1.8104150584379206e+00
v -5.5125878962666190e+00 2.8552193473266767e+00 1.8095424381030536e+00
v -5.5125878962666199e+00 2.8547596633203405e+00 1.7832071590177416e+00
v -5.5125878962666235e+00 2.8542999793140038e+00 1.7568718799324301e+00
v -5.5125878962666182e+00 2.8538402953076654e+00 1.7305366008471164e+00
v -5.5509594352050415e+00 2.8408272010571527e+00 1.7178965494853693e+00
v -6.0742163662688888e+00 2.6664347888908875e+00 1.7209405803627198e+00
v -5.5509594352050433e+00 2.8421956277260603e+00 1.7962936608416062e+00
v -6.0742163662688906e+00 2.6678032155597959e+00 1.7993376917189576e+00
v -6.0735075056765808e+00 2.6665556493181910e+00 1.7143257421829678e+00
v -6.0358543191518246e+00 2.6791026275597316e+00 1.7139822423363185e+00
v -5.9375879025996117e+00 2.7118504400450809e+00 1.7132575658152567e+00
v -5.8125879007369665e+00 2.7535107612973824e+00 1.7125303822028686e+00
v -5.6875878988743214e+00 2.7951710825496874e+00 1.7118031985904774e+00
v -5.6130771925549947e+00 2.8200049951733250e+00 1.7114151828743225e+00
v -5.5893214823221067e+00 2.8279242367983444e+00 1.7113845514843360e+00
v -5.5516682957973549e+00 2.8404755597315159e+00 1.7112899588543931e+00
v -6.0750879046485231e+00 2.6664454636733566e+00 1.7381981402837541e+00
v -6.0375879040897296e+00 2.6789435600490474e+00 1.7379799852000368e+00
v -5.9375879025996134e+00 2.7122718170508895e+00 1.7373982383101243e+00
v -5.8125879007369692e+00 2.7539321383031927e+00 1.7366710546977331e+00
v -5.6875878988743231e+00 2.7955924595554977e+00 1.7359438710853465e+00
v -5.6125878977567343e+00 2.8205886523068791e+00 1.7355075609179131e+00
v -5.5875878973842052e+00 2.8289207165573393e+00 1.7353621241954353e+00
v -5.5500878968254117e+00 2.8414188129330311e+00 1.7351439691117185e+00
v -5.5503467586809112e+00 2.8411041962599315e+00 1.7220637402556684e+00
v -5.5878819005887834e+00 2.8285937290150622e+00 1.7222443531235856e+00
v -5.6126692163782543e+00 2.8203319574307368e+00 1.7223546714342062e+00
v -5.6875878988743205e+00 2.7953626175523287e+00 1.7227762315426907e+00
v -5.8125879007369523e+00 2.7537022963000228e+00 1.7235034151550772e+00
v -5.9375879025996072e+00 2.7120419750477214e+00 1.7242305987674686e+00
v -6.0372939008851496e+00 2.6788125447910818e+00 1.7248587934192403e+00
v -6.0748290427930209e+00 2.6663033952866484e+00 1.7251148995861616e+00
v -6.0750879046485231e+00 2.6672116036839197e+00 1.7820902720926084e+00
v -6.0375879040897305e+00 2.6797097000596088e+00 1.7818721170088909e+00
v -5.9375879025996126e+00 2.7130379570614518e+00 1.7812903701189802e+00
v -5.8125879007369683e+00 2.7546982783137572e+00 1.7805631865065923e+00
v -5.6875878988743231e+00 2.7963585995660587e+00 1.7798360028941995e+00
v -5.6125878977567343e+00 2.8213547923174414e+00 1.7793996927267666e+00
v -5.5875878973842052e+00 2.8296868565679003e+00 1.7792542560042897e+00
v -5.5500878968254108e+00 2.8421849529435925e+00 1.7790361009205731e+00
v -6.0365974972989020e+00 2.6803432062184931e+00 1.7992493238127771e+00
v -5.9375879025996117e+00 2.7133444130656756e+00 1.7988472228425203e+00
v -5.8125879007369710e+00 2.7550047343179784e+00 1.7981200392301311e+00
v -5.6875878988743223e+00 2.7966650555702834e+00 1.7973928556177425e+00
v -5.6128621958772973e+00 2.8215689285499943e+00 1.7969065234622086e+00
v -5.5885783041750301e+00 2.8296601920954036e+00 1.7966429861294100e+00
v -5.5516682957973558e+00 2.8420747672987590e+00 1.8029084990213591e+00
v -5.5893214823221085e+00 2.8295277890572157e+00 1.8032519988680080e+00
v -5.6130771925549956e+00 2.8216123026001303e+00 1.8034977636848148e+00
v -5.6875878988743205e+00 2.7967799765718664e+00 1.8039766753890702e+00
v -5.8125879007369701e+00 2.7551196553195614e+00 1.8047038590014590e+00
v -5.9375879025996126e+00 2.7134593340672595e+00 1.8054310426138485e+00
v -6.0358543191518255e+00 2.6807061798186043e+00 1.8058496897199898e+00
v -6.0735075056765799e+00 2.6681548568854341e+00 1.8059442823499336e+00
v -6.0365974972989038e+00 2.6789702245215454e+00 1.7205912550749163e+00
v -5.9375879025996099e+00 2.7119653610466652e+00 1.7198413855865844e+00
v -5.8125879007369603e+00 2.7536256822989653e+00 1.7191142019741941e+00
v -5.6875878988743205e+00 2.7952860035512721e+00 1.7183870183618055e+00
v -5.6128621958772964e+00 2.8201916785119034e+00 1.7180039216239946e+00
v -5.5885783041750310e+00 2.8282872103984551e+00 1.7179849173915491e+00
v -5.7125878992468513e+00 -6.4608637389216084e-01 1.7652847452025104e+00
v -5.7125878992468504e+00 -6.4562668988582406e-01 1.7916200242878229e+00
v -5.7125878992468504e+00 -6.4516700587948805e-01 1.8179553033731346e+00
v -5.7125878992468504e+00 -6.4470732187315050e-01 1.8442905824584475e+00
v -5.7125878992468513e+00 -6.4424763786681349e-01 1.8706258615437599e+00
v -5.8125879007369683e+00 1.8062672292879511e-01 1.8562276260184509e+00
v -5.9125879022270880e+00 1.0055010837244032e+00 1.8418293904931411e+00
v -6.0125879037171988e+00 1.8303754445200116e+00 1.8274311549678317e+00
v -6.0125879037171988e+00 1.8285367084946640e+00 1.7220900386265823e+00
v -5.9125879022270880e+00 1.0036623476990569e+00 1.7364882741518914e+00
v -5.8125879007369683e+00 1.7878798690344777e-01 1.7508865096772008e+00
v -5.7637436232838439e+00 -2.2399833663625560e-01 1.7646560581595301e+00
v -5.7637436232838430e+00 -2.2239478437738411e-01 1.8565235055432010e+00
v -6.0614321811703205e+00 2.2315582158008427e+00 1.7217941591018302e+00
v -6.0614321811703213e+00 2.2331617680597149e+00 1.8136616064855020e+00
v -5.7386414989340082e+00 -4.2945794141457921e-01 1.8600133148667379e+00
v -5.7381689252057999e+00 -4.3347147132550268e-01 1.8534706427387779e+00
v -5.7377604741897130e+00 -4.3691347978267731e-01 1.8493586974803327e+00
v -5.7375878996193777e+00 -4.3933148568586555e-01 1.7924096785873804e+00
v -5.7625878999919085e+00 -2.3311289548696368e-01 1.7888101197060533e+00
v -5.7377604741897112e+00 -4.3813630485304489e-01 1.7793030961178355e+00
v -5.7381689252057981e+00 -4.3483989799441031e-01 1.7750735313825399e+00
v -5.7386414989340091e+00 -4.3105714898182201e-01 1.7683947746997724e+00
v -5.8292545676519865e+00 3.1799086205981264e-01 1.8472441003262381e+00
v -5.8292545676519856e+00 3.1787594105822808e-01 1.8406602805549095e+00
v -5.8292545676519865e+00 3.1779932705717223e-01 1.8362710673740239e+00
v -5.8292545676519865e+00 3.1680334504344237e-01 1.7792112960225142e+00
v -5.8292545676519865e+00 3.1657350304027332e-01 1.7660436564798578e+00
v -5.8292545676519856e+00 3.1649688903921741e-01 1.7616544432989723e+00
v -5.8292545676519865e+00 3.1638196803763330e-01 1.7550706235276441e+00
v -5.7795807634391014e+00 -9.3363707542862565e-02 1.7622682227400708e+00
v -5.7794374323206350e+00 -9.4430980478158899e-02 1.7688788493779202e+00
v -5.7793087793212736e+00 -9.5416243852075588e-02 1.7732492456019313e+00
v -5.7792545669069293e+00 -9.5633835354362262e-02 1.7864104137851686e+00
v -5.7793087793212754e+00 -9.4190918246766328e-02 1.8434481025152885e+00
v -5.7794374323206368e+00 -9.3053730440067678e-02 1.8477814512161350e+00
v -5.7795807634391005e+00 -9.1756400116057638e-02 1.8543508035505627e+00
v -5.9959212368021806e+00 1.6927814633858260e+00 1.8232470411173884e+00
v -5.9959212368021797e+00 1.6926665423842417e+00 1.8166632213460610e+00
v -5.9959212368021815e+00 1.6925899283831853e+00 1.8122740081651763e+00
v -5.9959212368021824e+00 1.6915939463694556e+00 1.7552142368136656e+00
v -5.9959212368021797e+00 1.6913641043662875e+00 1.7420465972710086e+00
v -5.9959212368021788e+00 1.6912874903652313e+00 1.7376573840901228e+00
v -5.9959212368021788e+00 1.6911725693636470e+00 1.7310735643187951e+00
v -5.9125879022270817e+00 1.0037772687006399e+00 1.7430720939232187e+00
v -5.9125879022270817e+00 1.0038921897022239e+00 1.7496559136945462e+00
v -5.9125879022270853e+00 1.0039688037032803e+00 1.7540451268754329e+00
v -5.9125879022270835e+00 1.0041986457064489e+00 1.7672127664180908e+00
v -5.9125879022270800e+00 1.0051946277201786e+00 1.8242725377696023e+00
v -5.9125879022270817e+00 1.0052712417212351e+00 1.8286617509504852e+00
v -5.9125879022270835e+00 1.0053861627228193e+00 1.8352455707218134e+00
v -6.0619276332683736e+00 2.2371333400447120e+00 1.8069855808036670e+00
v -6.0623919023258708e+00 2.2408885569649755e+00 1.8026552472141133e+00
v -6.0625879044622559e+00 2.2415101868998613e+00 1.7456154131301254e+00
v -6.0623919023258699e+00 2.2396644141541717e+00 1.7325241525526132e+00
v -6.0619276332683727e+00 2.2357603583477648e+00 1.7283275120658066e+00
v -6.0865343055201580e+00 2.4386213728380377e+00 1.7183043497782953e+00
v -6.0870068792483663e+00 2.4426349027489618e+00 1.7248470219062544e+00
v -6.0874153302644505e+00 2.4460769112061356e+00 1.7289589671646990e+00
v -6.0875879048347867e+00 2.4477287770987632e+00 1.7420158542487976e+00
v -6.0874153302644531e+00 2.4472997362765039e+00 1.7990145685271963e+00
v -6.0870068792483671e+00 2.4440033294178698e+00 1.8032441332624927e+00
v -6.0865343055201580e+00 2.4402205804052821e+00 1.8099228899452608e+00
v -5.7632481711857917e+00 -2.2659692692430511e-01 1.8499901525792264e+00
v -5.7627839021282945e+00 -2.3050098273071271e-01 1.8457935120924194e+00
v -5.7627839021282945e+00 -2.3172512554151609e-01 1.7756624174309190e+00
v -5.7632481711857926e+00 -2.2796990862125255e-01 1.7713320838413653e+00
v -3.2125878619939483e+00 -1.4616251886451942e-01 1.7565585418538381e+00
v -3.2125878619939479e+00 -1.4570283485818253e-01 1.7828938209391505e+00
v -3.2125878619939501e+00 -1.4524315085184580e-01 1.8092291000244622e+00
v -3.2125878619939487e+00 -1.4478346684550883e-01 1.8355643791097753e+00
v -3.2125878619939483e+00 -1.4432378283917199e-01 1.8618996581950875e+00
v -3.8375878713071740e+00 -2.6930474659608228e-01 1.8640812090322556e+00
v -4.4625878806203980e+00 -3.9428571035299276e-01 1.8662627598694232e+00
v -5.0875878899336264e+00 -5.1926667410990313e-01 1.8684443107065918e+00
v -5.0875878899336264e+00 -5.2110541013525047e-01 1.7631031943653426e+00
v -4.4625878806203989e+00 -3.9612444637834010e-01 1.7609216435281745e+00
v -3.8375878713071732e+00 -2.7114348262142973e-01 1.7587400926910060e+00
v -3.5323111372251574e+00 -2.0997984294683705e-01 1.7644113644419852e+00
v -3.5323111372251570e+00 -2.0837629068796551e-01 1.8562788118256566e+00
v -5.3928646240156404e+00 -5.8203386604336704e-01 1.7709055915719398e+00
v -5.3928646240156404e+00 -5.8043031378449561e-01 1.8627730389556116e+00
v -3.3754228600386829e+00 -1.7700558656538889e-01 1.8556067426215639e+00
v -3.3724692742373823e+00 -1.7653034982338126e-01 1.8489857187802288e+00
v -3.3699164553868393e+00 -1.7609266461387788e-01 1.8448060532169301e+00
v -3.3688378643222534e+00 -1.7687146179635396e-01 1.7878284218293272e+00
v -3.5250878666505607e+00 -2.0811670273558158e-01 1.7883738095386199e+00
v -3.3699164553868397e+00 -1.7731548968424560e-01 1.7747504518544339e+00
v -3.3724692742373823e+00 -1.7789877649228911e-01 1.7705886074239918e+00
v -3.3754228600386829e+00 -1.7860479413263178e-01 1.7639882024545981e+00
v -3.9417545395260443e+00 -2.9024982822381823e-01 1.8578609810671221e+00
v -3.9417545395260438e+00 -2.9036474922540245e-01 1.8512771612957937e+00
v -3.9417545395260452e+00 -2.9044136322645880e-01 1.8468879481149083e+00
v -3.9417545395260452e+00 -2.9143734524018855e-01 1.7898281767633979e+00
v -3.9417545395260438e+00 -2.9166718724335688e-01 1.7766605372207425e+00
v -3.9417545395260447e+00 -2.9174380124441301e-01 1.7722713240398564e+00
v -3.9417545395260443e+00 -2.9185872224599729e-01 1.7656875042685287e+00
v -3.6312932631955244e+00 -2.2977513063343402e-01 1.7646492929870670e+00
v -3.6303974437051099e+00 -2.2948096532852372e-01 1.7712361556320382e+00
v -3.6295933624591052e+00 -2.2924421135602552e-01 1.7755852214639241e+00
v -3.6292545348694314e+00 -2.2894686336173328e-01 1.7887374013448138e+00
v -3.6295933624591057e+00 -2.2801888575071619e-01 1.8457840783772805e+00
v -3.6303974437051099e+00 -2.2810371529043241e-01 1.8501387574702521e+00
v -3.6312932631955244e+00 -2.2816782320662901e-01 1.8567318737975591e+00
v -4.9834212217147549e+00 -4.9855143448533557e-01 1.8614968991290692e+00
v -4.9834212217147558e+00 -4.9866635548691957e-01 1.8549130793577413e+00
v -4.9834212217147540e+00 -4.9874296948797575e-01 1.8505238661768559e+00
v -4.9834212217147549e+00 -4.9973895150170555e-01 1.7934640948253442e+00
v -4.9834212217147549e+00 -4.9996879350487422e-01 1.7802964552826881e+00
v -4.9834212217147540e+00 -5.0004540750593018e-01 1.7759072421018034e+00
v -4.9834212217147531e+00 -5.0016032850751457e-01 1.7693234223304755e+00
v -4.4625878806203971e+00 -3.9600952537675577e-01 1.7675054632995009e+00
v -4.4625878806203998e+00 -3.9589460437517154e-01 1.7740892830708315e+00
v -4.4625878806203989e+00 -3.9581799037411530e-01 1.7784784962517148e+00
v -4.4625878806204007e+00 -3.9558814837094686e-01 1.7916461357943683e+00
v -4.4625878806203945e+00 -3.9459216635721722e-01 1.8487059071458833e+00
v -4.4625878806203980e+00 -3.9451555235616087e-01 1.8530951203267674e+00
v -4.4625878806203998e+00 -3.9440063135457681e-01 1.8596789400980960e+00
v -5.3959611996284682e+00 -5.8116481986333035e-01 1.8561791581719385e+00
v -5.3988628812378252e+00 -5.8181948724024102e-01 1.8519257993991178e+00
v -5.4000878945902384e+00 -5.8305959400631280e-01 1.7949184620501242e+00
v -5.3988628812378243e+00 -5.8304363005104443e-01 1.7817947047376170e+00
v -5.3959611996284673e+00 -5.8253780156027768e-01 1.7775210894340769e+00
v -5.5497529012021181e+00 -6.1340457016594396e-01 1.7715776607760338e+00
v -5.5527064870034160e+00 -6.1387980690795152e-01 1.7781986846173681e+00
v -5.5552593058539586e+00 -6.1431749211745490e-01 1.7823783501806667e+00
v -5.5563378969185431e+00 -6.1430483494554033e-01 1.7954638497594158e+00
v -5.5552593058539577e+00 -6.1309466704708715e-01 1.8524339515431634e+00
v -5.5527064870034151e+00 -6.1251138023904361e-01 1.8565957959736057e+00
v -5.5497529012021163e+00 -6.1180536259870100e-01 1.8631962009429996e+00
v -3.5292145616123323e+00 -2.0787235517105501e-01 1.8496633139635201e+00
v -3.5263128800029735e+00 -2.0736652668028827e-01 1.8453896986599798e+00
v -3.5263128800029735e+00 -2.0859066949109173e-01 1.7752586039984801e+00
v -3.5292145616123305e+00 -2.0924533686800248e-01 1.7710052452256591e+00
v -4.9375878876984514e+00 2.1053335647852145e+00 1.8226317431260619e+00
v -4.3625878791302863e+00 1.3554477822437527e+00 1.8357210481490704e+00
v -3.7875878705621169e+00 6.0556199970229030e-01 1.8488103531720792e+00
v -3.7875878705621169e+00 6.0372326367694296e-01 1.7434692368308298e+00
v -4.3625878791302863e+00 1.3536090462184061e+00 1.7303799318078217e+00
v -4.9375878876984514e+00 2.1034948287598665e+00 1.7172906267848129e+00
v -5.2184424830539031e+00 2.4698887073912328e+00 1.7176340848967464e+00
v -5.2184424830539040e+00 2.4714922596501037e+00 1.8095015322804178e+00
v -3.5067332752066602e+00 2.3756456881205232e-01 1.7565994476764732e+00
v -3.5067332752066611e+00 2.3916812107092381e-01 1.8484668950601453e+00
v -5.3627796980654630e+00 2.6597273461146362e+00 1.8060913850976203e+00
v -5.3654969970026567e+00 2.6631557188125186e+00 1.7994188140764340e+00
v -5.3678455903451558e+00 2.6661458340658899e+00 1.7951945956809954e+00
v -5.3688378941245771e+00 2.6664454636733566e+00 1.7381981402837536e+00
v -5.2250878919825352e+00 2.4789740180379902e+00 1.7414704665395062e+00
v -5.3678455903451585e+00 2.6649230089955225e+00 1.7251389943184989e+00
v -5.3654969970026585e+00 2.6617872921436119e+00 1.7210217027201973e+00
v -5.3627796980654647e+00 2.6581281385473945e+00 1.7144728449306557e+00
v -4.8417545529370898e+00 1.9802376800267196e+00 1.8182294741919018e+00
v -4.8417545529370898e+00 1.9801227590251349e+00 1.8116456544205735e+00
v -4.8417545529370907e+00 1.9800461450240783e+00 1.8072564412396883e+00
v -4.8417545529370924e+00 1.9790501630103492e+00 1.7501966698881786e+00
v -4.8417545529370924e+00 1.9788203210071815e+00 1.7370290303455223e+00
v -4.8417545529370889e+00 1.9787437070061245e+00 1.7326398171646364e+00
v -4.8417545529370898e+00 1.9786287860045408e+00 1.7260559973933083e+00
v -5.1273789271611658e+00 2.3511263691914843e+00 1.7195994897342892e+00
v -5.1282030810923480e+00 2.3523162175491614e+00 1.7261707181734187e+00
v -5.1289428358386724e+00 2.3533569303021968e+00 1.7305057508525914e+00
v -5.1292545572211727e+00 2.3539930542810801e+00 1.7436520173766739e+00
v -5.1289428358386724e+00 2.3545822559075060e+00 1.8007046077659481e+00
v -5.1282030810923498e+00 2.3536934675872536e+00 1.8050733200116331e+00
v -5.1273789271611658e+00 2.3527336766182896e+00 1.8116820705447818e+00
v -3.8834212053234762e+00 7.3042804245761694e-01 1.8400449825635825e+00
v -3.8834212053234793e+00 7.3031312145603189e-01 1.8334611627922546e+00
v -3.8834212053234762e+00 7.3023650745497515e-01 1.8290719496113692e+00
v -3.8834212053234771e+00 7.2924052544124696e-01 1.7720121782598590e+00
v -3.8834212053234776e+00 7.2901068343807718e-01 1.7588445387172029e+00
v -3.8834212053234771e+00 7.2893406943702066e-01 1.7544553255363180e+00
v -3.8834212053234771e+00 7.2881914843543727e-01 1.7478715057649894e+00
v -4.3625878791302846e+00 1.3537239672199890e+00 1.7369637515791476e+00
v -4.3625878791302872e+00 1.3538388882215719e+00 1.7435475713504780e+00
v -4.3625878791302908e+00 1.3539155022226306e+00 1.7479367845313616e+00
v -4.3625878791302881e+00 1.3541453442258016e+00 1.7611044240740166e+00
v -4.3625878791302828e+00 1.3551413262395235e+00 1.8181641954255290e+00
v -4.3625878791302881e+00 1.3552179402405815e+00 1.8225534086064130e+00
v -4.3625878791302846e+00 1.3553328612421705e+00 1.8291372283777423e+00
v -3.6919769175831876e+00 4.8075603470907274e-01 1.8443973358412318e+00
v -3.6918766124910327e+00 4.8051028745468444e-01 1.8378150288451602e+00
v -3.6917907091816771e+00 4.8032172426867942e-01 1.8334324428457951e+00
v -3.6917545358007544e+00 4.7927859792742511e-01 1.7763752799341956e+00
v -3.6917907091816766e+00 4.7909596256597053e-01 1.7632086019291560e+00
v -3.6918766124910323e+00 4.7913146083874408e-01 1.7588221049224801e+00
v -3.6919769175831885e+00 4.7914733918924074e-01 1.7522352312344873e+00
v -3.3623960601951044e+00 4.9329482347520763e-02 1.7600095948592709e+00
v -3.3596787612579080e+00 4.5901109649637284e-02 1.7666821658804568e+00
v -3.3573301679154079e+00 4.2910994396266708e-02 1.7709063842758952e+00
v -3.3563378641359898e+00 4.1845224778239133e-02 1.7840107078642835e+00
v -3.3573301679154084e+00 4.4133819466634451e-02 1.8409619856383921e+00
v -3.5012148785622510e+00 2.3178160395662206e-01 1.8377243395266074e+00
v -3.3596787612579084e+00 4.7269536318545170e-02 1.8450792772366937e+00
v -3.3623960601951040e+00 5.0928689914763473e-02 1.8516281350262367e+00
v -5.2212913326177066e+00 2.4750922991563784e+00 1.8028319917221225e+00
v -5.2239608796983124e+00 2.4784993673163376e+00 1.7985077350917840e+00
v -5.2239608796983150e+00 2.4772752245055343e+00 1.7283766404302836e+00
v -5.2212913326177057e+00 2.4737193174594303e+00 1.7241739229842608e+00
v -3.5038844256428607e+00 2.3533751100272643e-01 1.8419270569726300e+00
v -3.5000878662780321e+00 2.2931667041360462e-01 1.7807383816085316e+00
v -3.5012148785622510e+00 2.3055746114581857e-01 1.7675932448651070e+00
v -3.5038844256428612e+00 2.3396452930577891e-01 1.7632689882347694e+00
v -5.2722432795362986e+00 2.4563854590962131e+00 1.8165041095176897e+00
v -6.0076313846879277e+00 2.2485037523800817e+00 1.8201326982058077e+00
v -4.2776920445319044e+00 1.0820519240255098e+00 1.8404931906053756e+00
v -5.7724837334727006e+00 7.5397689416362046e-01 1.8462197615529423e+00
v -3.6511854299061275e+00 2.0975012816290581e-01 1.8557192750891585e+00
v -5.6192914685843789e+00 -1.9274160770289037e-01 1.8627447944717670e+00
v -6.0393603565538587e+00 2.4546428946566921e+00 1.8165345260931232e+00
v -5.9948440356489039e+00 2.4722482779970441e+00 1.8162272229838308e+00
v -5.8779524850443083e+00 2.5128235820343070e+00 1.8155189784173782e+00
v -5.5784733139150546e+00 2.6039555347737218e+00 1.8139282642652765e+00
v -5.4693587289557870e+00 2.4110161719739911e+00 1.8172960333701556e+00
v -5.5185318325111590e+00 2.6219974468953189e+00 1.8136133415177651e+00
v -5.4576598406021182e+00 2.6353810795897838e+00 1.8133797293401075e+00
v -5.4099536470317613e+00 2.6455445603213312e+00 1.8132023251240419e+00
v -5.9237858190606110e+00 1.7108623979274655e+00 1.8295172629558736e+00
v -5.8516504013190440e+00 1.7288284114675221e+00 1.8292036650230308e+00
v -5.6592892873415330e+00 1.7767377809076699e+00 1.8283674038687829e+00
v -5.1783865023977436e+00 1.8965112045080428e+00 1.8262767509831639e+00
v -5.0822059454089841e+00 1.9204658892281179e+00 1.8258586204060401e+00
v -4.9860253884202264e+00 1.9444205739481921e+00 1.8254404898289156e+00
v -4.9138899706786576e+00 1.9623865874882485e+00 1.8251268918960735e+00
v -5.0954913011348708e+00 2.2136067294083928e+00 1.8207418280075807e+00
v -5.1578337953194069e+00 2.1973326096080066e+00 1.8210258938253459e+00
v -5.2408837335273439e+00 2.1756289763095289e+00 1.8214047321537501e+00
v -5.3238726156767671e+00 2.1537636882410172e+00 1.8217863921766606e+00
v -5.7388031774152664e+00 2.0444053449537201e+00 1.8236952491591807e+00
v -5.9046986903536016e+00 2.0005020905373119e+00 1.8244615833155797e+00
v -5.9669234350821272e+00 1.9839532638517978e+00 1.8247504441598610e+00
v -5.6657128985483576e+00 7.7741082486804347e-01 1.8458107207709720e+00
v -5.3809906720834526e+00 8.3990130674649932e-01 1.8447199453523881e+00
v -4.6691851059211604e+00 9.9612751144263501e-01 1.8419930068059269e+00
v -4.5268239926886977e+00 1.0273727523818630e+00 1.8414476190966353e+00
v -4.3844628794562475e+00 1.0586179933210909e+00 1.8409022313873438e+00
v -5.6588605314081581e+00 3.6990712837425360e-02 1.8587348019006253e+00
v -5.5260397889490616e+00 6.4250264563462833e-02 1.8582589846553337e+00
v -5.1722667106398825e+00 1.3727395112561741e-01 1.8569843514650939e+00
v -4.2872840585637251e+00 3.2083974164357887e-01 1.8537801986730025e+00
v -4.1103049828193798e+00 3.5756290183258377e-01 1.8531391935275332e+00
v -3.9337962666466262e+00 3.9452899506942263e-01 1.8524939479699420e+00
v -3.8012070915867135e+00 4.2232878843293797e-01 1.8520087007717914e+00
v -3.9595930814585274e+00 6.4188459229414219e-01 1.8481763399600273e+00
v -4.0836816249742558e+00 6.1571670300753945e-01 1.8486331021665585e+00
v -4.2491330163285612e+00 5.8082618395873487e-01 1.8492421184419345e+00
v -4.4145844076828702e+00 5.4593566490993106e-01 1.8498511347173110e+00
v -5.2418413644544035e+00 3.7148306966591188e-01 1.8528962160941918e+00
v -5.5727441471630161e+00 3.0170203156830255e-01 1.8541142486449436e+00
v -5.6968326906787476e+00 2.7553414228169892e-01 1.8545710108514764e+00
v -3.5171375088042760e+00 1.9764148870142856e-02 1.8590354926931645e+00
v -3.6639727789451491e+00 -1.3994397454057287e-02 1.8596247503111356e+00
v -3.8527770006740361e+00 -5.6980677894715052e-02 1.8603750786272495e+00
v -4.0508691244853097e+00 -9.7195544422503763e-02 1.8610770317335716e+00
v -5.0430566392700591e+00 -2.9768584044921420e-01 1.8645766028681958e+00
v -5.1026920568253615e+00 -9.6935167414676726e-02 1.8610724868359951e+00
v -5.4338749075185584e+00 -3.7173722819646066e-01 1.8658691746493483e+00
v -5.5839000503248366e+00 -3.9805387191185404e-01 1.8663285333740938e+00
v -5.9556934229638632e+00 2.2674671051894335e+00 1.8198016916512647e+00
v -5.8183170674890068e+00 2.3120729089997702e+00 1.8190230944495802e+00
v -5.3994766388445559e+00 2.4306074069938828e+00 1.8169540670908584e+00
v -5.3275255429222170e+00 2.4452242883400563e+00 1.8166989284779129e+00
v -5.4768652739635098e+00 -1.6782296450587036e-01 1.8623098379368399e+00
v -4.1599837094445800e+00 9.5743818377226536e-02 1.8577092626286937e+00
v -3.9716970005207739e+00 1.3443988499395698e-01 1.8570338202734313e+00
v -3.7902673228651422e+00 1.7702930291269151e-01 1.8562904192184051e+00
v -5.4576598406021182e+00 2.6335423435644354e+00 1.7080386129988585e+00
v -3.6639727789451473e+00 -1.5833133479404526e-02 1.7542836339698853e+00
v -5.9948440356489057e+00 2.4704095419716983e+00 1.7108861066425818e+00
v -5.4338749075185602e+00 -3.7357596422180811e-01 1.7605280583080989e+00
v -3.5171375088042773e+00 1.7925412844795367e-02 1.7536943763519155e+00
v -3.6511854299061262e+00 2.0791139213755838e-01 1.7503781587479084e+00
v -3.8012070915867122e+00 4.2049005240759052e-01 1.7466675844305413e+00
v -3.9595930814585274e+00 6.4004585626879462e-01 1.7428352236187776e+00
v -4.2776920445319044e+00 1.0802131880001620e+00 1.7351520742641262e+00
v -4.9138899706786576e+00 1.9605478514629007e+00 1.7197857755548236e+00
v -4.9860253884202272e+00 1.9425818379228450e+00 1.7200993734876664e+00
v -5.0954913011348708e+00 2.2117679933830448e+00 1.7154007116663312e+00
v -5.2722432795362986e+00 2.4545467230708664e+00 1.7111629931764403e+00
v -5.4099536470317613e+00 2.6437058242959837e+00 1.7078612087827925e+00
v -4.0508691244853123e+00 -9.9034280447851147e-02 1.7557359153923222e+00
v -4.1599837094445808e+00 9.3905082351879082e-02 1.7523681462874443e+00
v -4.2872840585637251e+00 3.1900100561823130e-01 1.7484390823317528e+00
v -4.4145844076828693e+00 5.4409692888458328e-01 1.7445100183760611e+00
v -4.6691851059211622e+00 9.9428877541728755e-01 1.7366518904646784e+00
v -5.1783865023977436e+00 1.8946724684826957e+00 1.7209356346419140e+00
v -5.3238726156767653e+00 2.1519249522156696e+00 1.7164452758354098e+00
v -5.4693587289557879e+00 2.4091774359486435e+00 1.7119549170289059e+00
v -5.5784733139150555e+00 2.6021167987483742e+00 1.7085871479240271e+00
v -5.5185318325111599e+00 2.6201587108699713e+00 1.7082722251765154e+00
v -5.3994766388445559e+00 2.4287686709685352e+00 1.7116129507496094e+00
v -5.2408837335273430e+00 2.1737902402841818e+00 1.7160636158124998e+00
v -5.0822059454089858e+00 1.9186271532027708e+00 1.7205175040647904e+00
v -4.5268239926887022e+00 1.0255340163565136e+00 1.7361065027553875e+00
v -4.2491330163285639e+00 5.7898744793338686e-01 1.7439010021006858e+00
v -4.1103049828193807e+00 3.5572416580723631e-01 1.7477980771862842e+00
v -3.9716970005207743e+00 1.3260114896860964e-01 1.7516927039321823e+00
v -3.8527770006740361e+00 -5.8819413920062451e-02 1.7550339622859998e+00
v -5.0430566392700582e+00 -2.9952457647456143e-01 1.7592354865269457e+00
v -5.1026920568253624e+00 -9.8773903440024152e-02 1.7557313704947448e+00
v -5.1722667106398816e+00 1.3543521510026968e-01 1.7516432351238436e+00
v -5.2418413644544009e+00 3.6964433364056354e-01 1.7475550997529425e+00
v -5.3809906720834499e+00 8.3806257072115020e-01 1.7393788290111398e+00
v -5.6592892873415321e+00 1.7748990448823232e+00 1.7230262875275337e+00
v -5.7388031774152637e+00 2.0425666089283729e+00 1.7183541328179324e+00
v -5.8183170674890059e+00 2.3102341729744222e+00 1.7136819781083308e+00
v -5.8779524850443101e+00 2.5109848460089603e+00 1.7101778620761290e+00
v -5.4768652739635071e+00 -1.6966170053121782e-01 1.7569687215955896e+00
v -5.5260397889490616e+00 6.2411528538115338e-02 1.7529178683140836e+00
v -5.5727441471630170e+00 2.9986329554295466e-01 1.7487731323036939e+00
v -5.6657128985483594e+00 7.7557208884269446e-01 1.7404696044297232e+00
v -5.8516504013190422e+00 1.7269896754421739e+00 1.7238625486817811e+00
v -5.9046986903535998e+00 1.9986633545119639e+00 1.7191204669743299e+00
v -5.9556934229638623e+00 2.2656283691640855e+00 1.7144605753100148e+00
v -6.0393603565538605e+00 2.4528041586313449e+00 1.7111934097518742e+00
v -6.0076313846879268e+00 2.2466650163547350e+00 1.7147915818645592e+00
v -5.9669234350821245e+00 1.9821145278264500e+00 1.7194093278186120e+00
v -5.9237858190606119e+00 1.7090236619021184e+00 1.7241761466146241e+00
v -5.7724837334726979e+00 7.5213815813827312e-01 1.7408786452116920e+00
v -5.6968326906787468e+00 2.7369540625635130e-01 1.7492298945102267e+00
v -5.6588605314081581e+00 3.5151976812077886e-02 1.7533936855593755e+00
v -5.6192914685843771e+00 -1.9458034372823757e-01 1.7574036781305169e+00
v -5.5839000503248366e+00 -3.9989260793720138e-01 1.7609874170328441e+00
v -3.7902673228651440e+00 1.7519056688734422e-01 1.7509493028771561e+00
v -3.9337962666466271e+00 3.9269025904407523e-01 1.7471528316286931e+00
v -4.0836816249742576e+00 6.1387796698219188e-01 1.7432919858253095e+00
v -4.3844628794562484e+00 1.0567792572957435e+00 1.7355611150460950e+00
v -5.1578337953194069e+00 2.1954938735826599e+00 1.7156847774840960e+00
v -5.3275255429222170e+00 2.4433855523147088e+00 1.7113578121366635e+00

vn -3.1622776601681946e-01 9.4853880898917586e-01 -1.6556806497852062e-02
vn -3.1622776601687619e-01 9.4853880898916632e-01 -1.6556806497322749e-02
vn -3.1622776601685471e-01 9.4853880898916410e-01 -1.6556806497850182e-02
vn -3.1622776601685071e-01 9.4853880898916010e-01 -1.6556806498165613e-02
vn -3.1622776601695574e-01 9.4853880898913912e-01 -1.6556806497348461e-02
vn -3.1622776601680730e-01 9.4853880898917253e-01 -1.6556806498278284e-02
vn -3.1622776601682695e-01 9.4853880898918075e-01 -1.6556806497439517e-02
vn -3.1622776601682673e-01 9.4853880898917342e-01 -1.6556806497862800e-02
vn -3.1622776601686037e-01 9.4853880898917176e-01 -1.6556806497307903e-02
vn -3.1622776601684760e-01 9.4853880898917076e-01 -1.6556806497611501e-02
vn -3.1622776601681557e-01 9.4853880898919918e-01 -1.6556806496597336e-02
vn -3.1622776601685715e-01 9.4853880898918408e-01 -1.6556806496656040e-02
vn -3.1622776601681607e-01 9.4853880898918175e-01 -1.6556806497584561e-02
vn -3.1622776601680608e-01 9.4853880898918841e-01 -1.6556806497392790e-02
vn -3.1622776601681019e-01 9.4853880898918219e-01 -1.6556806497669597e-02
vn -3.1622776601683428e-01 9.4853880898917664e-01 -1.6556806497527971e-02
vn -3.1622776601682517e-01 9.4853880898917209e-01 -1.6556806497962762e-02
vn -3.1622776601694030e-01 9.4853880898914111e-01 -1.6556806497539621e-02
vn -3.1622776601682434e-01 9.4853880898917653e-01 -1.6556806497722412e-02
vn -3.1622776601681402e-01 9.4853880898917509e-01 -1.6556806498006355e-02
vn -3.1622776601683450e-01 9.4853880898920129e-01 -1.6556806496109678e-02
vn -3.1622776601684049e-01 9.4853880898917675e-01 -1.6556806497403039e-02
vn -3.1622776601680214e-01 9.4853880898918175e-01 -1.6556806497849651e-02
vn -3.1622776601684632e-01 9.4853880898916421e-01 -1.6556806498010466e-02
vn -3.1622776601685332e-01 9.4853880898916554e-01 -1.6556806497808097e-02
vn -3.1622776601683511e-01 9.4853880898916987e-01 -1.6556806497901443e-02
vn -3.1622776601678698e-01 9.4853880898918552e-01 -1.6556806497925399e-02
vn -3.1622776601685165e-01 9.4853880898916232e-01 -1.6556806498012423e-02
vn -3.1622776601686814e-01 9.4853880898916088e-01 -1.6556806497779471e-02
vn -3.1622776601682595e-01 9.4853880898917498e-01 -1.6556806497785685e-02
vn -3.1622776601687536e-01 9.4853880898915910e-01 -1.6556806497742368e-02
vn -3.1622776601690222e-01 9.4853880898914933e-01 -1.6556806497782527e-02
vn -3.1622776601681024e-01 9.4853880898917498e-01 -1.6556806498072646e-02
vn -3.1622776601679364e-01 9.4853880898918463e-01 -1.6556806497842049e-02
vn -3.1622776601674729e-01 9.4853880898920218e-01 -1.6556806497722617e-02
vn -3.1622776601689501e-01 9.4853880898915000e-01 -1.6556806497889456e-02
vn -3.1622776601690267e-01 9.4853880898914888e-01 -1.6556806497818023e-02
vn -3.1622776601684283e-01 9.4853880898916121e-01 -1.6556806498246250e-02
vn -3.1622776601683222e-01 9.4853880898917520e-01 -1.6556806497647777e-02
vn -3.1622776601683772e-01 9.4853880898916454e-01 -1.6556806498150813e-02
vn -3.1622776601683522e-01 9.4853880898916576e-01 -1.6556806498140956e-02
vn -3.1622776601682140e-01 9.4853880898917753e-01 -1.6556806497727956e-02
vn -3.1622776601684710e-01 9.4853880898916587e-01 -1.6556806497895718e-02
vn -3.1622776601682639e-01 9.4853880898917653e-01 -1.6556806497677025e-02
vn -3.1622776601682978e-01 9.4853880898917131e-01 -1.6556806497927446e-02
vn -3.1622776601680180e-01 9.4853880898918053e-01 -1.6556806497929191e-02
vn -3.1622776601690034e-01 9.4853880898914933e-01 -1.6556806497828768e-02
vn -3.1622776601684627e-01 9.4853880898916643e-01 -1.6556806497884727e-02
vn -3.1622776601684494e-01 9.4853880898916076e-01 -1.6556806498238489e-02
vn -3.1622776601682440e-01 9.4853880898917209e-01 -1.6556806497976626e-02
vn -3.1622776601683728e-01 9.4853880898917775e-01 -1.6556806497403515e-02
vn -3.1622776601678282e-01 9.4853880898919463e-01 -1.6556806497481223e-02
vn -3.1622776601682889e-01 9.4853880898917331e-01 -1.6556806497822842e-02
vn -3.1622776601684049e-01 9.4853880898916620e-01 -1.6556806498011608e-02
vn -3.1622776601683050e-01 9.4853880898917664e-01 -1.6556806497598612e-02
vn -3.1622776601685426e-01 9.4853880898917653e-01 -1.6556806497153822e-02
vn -3.1622776601683444e-01 9.4853880898916654e-01 -1.6556806498100676e-02
vn -3.1622776601684444e-01 9.4853880898919107e-01 -1.6556806496502638e-02
vn -3.1622776601684693e-01 9.4853880898918541e-01 -1.6556806496772998e-02
vn -3.1622776601683411e-01 9.4853880898918252e-01 -1.6556806497196416e-02
vn -3.1622776601683966e-01 9.4853880898916865e-01 -1.6556806497886475e-02
vn -3.1622776601684444e-01 9.4853880898916809e-01 -1.6556806497823647e-02
vn -3.1622776601684843e-01 9.4853880898916998e-01 -1.6556806497635284e-02
vn -3.1622776601683977e-01 9.4853880898916398e-01 -1.6556806498137729e-02
vn -3.1622776601683439e-01 9.4853880898916554e-01 -1.6556806498155777e-02
vn -3.1622776601682079e-01 9.4853880898917464e-01 -1.6556806497899403e-02
vn -3.1622776601686398e-01 9.4853880898916043e-01 -1.6556806497880508e-02
vn -3.1622776601686403e-01 9.4853880898916232e-01 -1.6556806497778104e-02
vn -3.1622776601685926e-01 9.4853880898915699e-01 -1.6556806498179245e-02
vn -3.1622776601685443e-01 9.4853880898916432e-01 -1.6556806497848509e-02
vn -3.1622776601686542e-01 9.4853880898915099e-01 -1.6556806498398979e-02
vn -3.1622776601684377e-01 9.4853880898916754e-01 -1.6556806497859893e-02
vn -9.9273378203371121e-01 -1.2031304046910483e-01 2.1000719328966412e-03
vn -9.9273378203371043e-01 -1.2031304046909831e-01 2.1000719336672674e-03
vn -9.9273378203370766e-01 -1.2031304046913022e-01 2.1000719331012246e-03
vn -9.9273378203370777e-01 -1.2031304046913407e-01 2.1000719329295980e-03
vn -9.9273378203371121e-01 -1.2031304046909043e-01 2.1000719337880449e-03
vn -9.9273378203370954e-01 -1.2031304046911651e-01 2.1000719331231285e-03
vn -9.9273378203370910e-01 -1.2031304046912052e-01 2.1000719330324484e-03
vn -9.9273378203371021e-01 -1.2031304046910797e-01 2.1000719332140640e-03
vn -9.9273378203370788e-01 -1.2031304046913011e-01 2.1000719330620849e-03
vn -9.9273378203370655e-01 -1.2031304046913946e-01 2.1000719331342940e-03
vn -9.9273378203369722e-01 -1.2031304046921765e-01 2.1000719330996013e-03
vn -9.9273378203370810e-01 -1.2031304046913247e-01 2.1000719328449040e-03
vn -9.9273378203370855e-01 -1.2031304046912496e-01 2.1000719330207872e-03
vn -9.9273378203370866e-01 -1.2031304046911941e-01 2.1000719332832040e-03
vn -9.9273378203370866e-01 -1.2031304046912658e-01 2.1000719329359548e-03
vn -9.9273378203370755e-01 -1.2031304046912356e-01 2.1000719335696346e-03
vn -9.9273378203370810e-01 -1.2031304046914107e-01 2.1000719323223407e-03
vn -9.9273378203370888e-01 -1.2031304046912521e-01 2.1000719328886442e-03
vn -9.9273378203370821e-01 -1.2031304046912966e-01 2.1000719329558200e-03
vn -9.9273378203372042e-01 -1.2031304046902576e-01 2.1000719330992951e-03
vn -9.9273378203370743e-01 -1.2031304046913745e-01 2.1000719328896898e-03
vn -9.9273378203371243e-01 -1.2031304046908768e-01 2.1000719333012603e-03
vn -9.9273378203370921e-01 -1.2031304046912041e-01 2.1000719329771853e-03
vn -9.9273378203370899e-01 -1.2031304046912931e-01 2.1000719326025345e-03
vn -9.9273378203370599e-01 -1.2031304046914663e-01 2.1000719330166416e-03
vn -9.9273378203370666e-01 -1.2031304046913728e-01 2.1000719332039909e-03
vn -9.9273378203370877e-01 -1.2031304046912643e-01 2.1000719328485786e-03
vn -9.9273378203370866e-01 -1.2031304046913725e-01 2.1000719323147204e-03
vn -9.9273378203370810e-01 -1.2031304046905648e-01 2.1000719371458607e-03
vn -9.9273378203370832e-01 -1.2031304046914380e-01 2.1000719320626851e-03
vn -9.9273378203370799e-01 -1.2031304046912769e-01 2.1000719331508862e-03
vn -9.9273378203370755e-01 -1.2031304046913102e-01 2.1000719331447587e-03
vn -9.9273378203370888e-01 -1.2031304046911881e-01 2.1000719332460970e-03
vn -9.9273378203370999e-01 -1.2031304046911223e-01 2.1000719330841774e-03
vn -9.9273378203370777e-01 -1.2031304046913287e-01 2.1000719329294904e-03
vn -9.9273378203370921e-01 -1.2031304046911930e-01 2.1000719330354981e-03
vn -9.9273378203370910e-01 -1.2031304046911938e-01 2.1000719330880719e-03
vn -9.9273378203371176e-01 -1.2031304046909864e-01 2.1000719330446010e-03
vn -9.9273378203370899e-01 -1.2031304046912510e-01 2.1000719328188788e-03
vn -9.9273378203370777e-01 -1.2031304046913027e-01 2.1000719331010129e-03
vn -9.9273378203370777e-01 -1.2031304046912870e-01 2.1000719332277150e-03
vn -9.9273378203371032e-01 -1.2031304046910669e-01 2.1000719332420720e-03
vn -9.9273378203370843e-01 -1.2031304046911748e-01 2.1000719335546934e-03
vn -9.9273378203370777e-01 -1.2031304046913931e-01 2.1000719325903788e-03
vn -9.9273378203370777e-01 -1.2031304046913689e-01 2.1000719326993594e-03
vn -9.9273378203370755e-01 -1.2031304046912540e-01 2.1000719334746177e-03
vn -9.9273378203371043e-01 -1.2031304046911137e-01 2.1000719329117585e-03
vn -9.9273378203370555e-01 -1.2031304046914604e-01 2.1000719332606942e-03
vn -9.9273378203370777e-01 -1.2031304046912858e-01 2.1000719331667962e-03
vn -9.9273378203370832e-01 -1.2031304046912683e-01 2.1000719330611082e-03
vn -9.9273378203370855e-01 -1.2031304046912625e-01 2.1000719329700378e-03
vn -9.9273378203370888e-01 -1.2031304046910229e-01 2.1000719342190075e-03
vn -9.9273378203370855e-01 -1.2031304046913435e-01 2.1000719324849558e-03
vn -9.9273378203370855e-01 -1.2031304046912256e-01 2.1000719332046397e-03
vn -9.9273378203370866e-01 -1.2031304046911442e-01 2.1000719336243556e-03
vn -9.9273378203370866e-01 -1.2031304046911004e-01 2.1000719338627283e-03
vn -9.9273378203370821e-01 -1.2031304046918057e-01 2.1000719300379965e-03
vn -9.9273378203370788e-01 -1.2031304046912286e-01 2.1000719335028651e-03
vn -9.9273378203370910e-01 -1.2031304046912758e-01 2.1000719326547887e-03
vn -9.9273378203371354e-01 -1.2031304046908382e-01 2.1000719330011713e-03
vn -9.9273378203370966e-01 -1.2031304046911172e-01 2.1000719332886215e-03
vn -9.9273378203370777e-01 -1.2031304046913745e-01 2.1000719326976351e-03
vn -9.9273378203370777e-01 -1.2031304046912272e-01 2.1000719334637414e-03
vn -9.9273378203370843e-01 -1.2031304046913580e-01 2.1000719324780399e-03
vn -9.9273378203370855e-01 -1.2031304046912056e-01 2.1000719333029608e-03
vn -9.9273378203370855e-01 -1.2031304046913041e-01 2.1000719327505775e-03
vn -9.9273378203370866e-01 -1.2031304046911581e-01 2.1000719334801606e-03
vn -9.9273378203370921e-01 -1.2031304046911361e-01 2.1000719333641770e-03
vn -9.9273378203370799e-01 -1.2031304046913348e-01 2.1000719328147584e-03
vn -9.9273378203370888e-01 -1.2031304046912079e-01 2.1000719331842137e-03
vn -9.9273378203370721e-01 -1.2031304046913688e-01 2.1000719330060732e-03
vn -9.9273378203370832e-01 -1.2031304046912097e-01 2.1000719334050345e-03
vn 1.9611613513818363e-01 -9.8043132850446313e-01 1.7113492496720225e-02
vn 1.9611613513818535e-01 -9.8043132850446435e-01 1.7113492496631223e-02
vn 1.9611613513818460e-01 -9.8043132850446302e-01 1.7113492496712780e-02
vn 1.9611613513818635e-01 -9.8043132850446268e-01 1.7113492496713366e-02
vn 1.9611613513818668e-01 -9.8043132850446324e-01 1.7113492496678075e-02
vn 1.9611613513818657e-01 -9.8043132850446257e-01 1.7113492496714604e-02
vn 1.9611613513818557e-01 -9.8043132850446302e-01 1.7113492496708949e-02
vn 1.9611613513818377e-01 -9.8043132850446346e-01 1.7113492496702038e-02
vn 1.9611613513818851e-01 -9.8043132850446235e-01 1.7113492496710053e-02
vn 1.9611613513818968e-01 -9.8043132850446202e-01 1.7113492496719118e-02
vn 1.9611613513819270e-01 -9.8043132850446169e-01 1.7113492496704321e-02
vn 1.9611613513818479e-01 -9.8043132850446257e-01 1.7113492496730432e-02
vn 1.9611613513818330e-01 -9.8043132850446368e-01 1.7113492496688931e-02
vn 1.9611613513818327e-01 -9.8043132850446235e-01 1.7113492496763964e-02
vn 1.9611613513818546e-01 -9.8043132850446313e-01 1.7113492496691779e-02
vn 1.9611613513818360e-01 -9.8043132850446468e-01 1.7113492496617085e-02
vn 1.9611613513818416e-01 -9.8043132850446202e-01 1.7113492496779712e-02
vn 1.9611613513818521e-01 -9.8043132850446291e-01 1.7113492496708845e-02
vn 1.9611613513818157e-01 -9.8043132850446291e-01 1.7113492496758399e-02
vn 1.9611613513820075e-01 -9.8043132850446024e-01 1.7113492496688799e-02
vn 1.9611613513818743e-01 -9.8043132850446280e-01 1.7113492496690311e-02
vn 1.9611613513819254e-01 -9.8043132850446058e-01 1.7113492496764020e-02
vn 1.9611613513818676e-01 -9.8043132850446280e-01 1.7113492496706101e-02
vn 1.9611613513818565e-01 -9.8043132850446324e-01 1.7113492496690867e-02
vn 1.9611613513818643e-01 -9.8043132850446302e-01 1.7113492496694142e-02
vn 1.9611613513818446e-01 -9.8043132850446346e-01 1.7113492496684861e-02
vn 1.9611613513818388e-01 -9.8043132850446191e-01 1.7113492496780298e-02
vn 1.9611613513818416e-01 -9.8043132850446246e-01 1.7113492496752564e-02
vn 1.9611613513818374e-01 -9.8043132850446291e-01 1.7113492496725259e-02
vn 1.9611613513818324e-01 -9.8043132850446013e-01 1.7113492496891154e-02
vn 1.9611613513818404e-01 -9.8043132850446368e-01 1.7113492496686474e-02
vn 1.9611613513818352e-01 -9.8043132850445724e-01 1.7113492497049809e-02
vn 1.9611613513818396e-01 -9.8043132850446346e-01 1.7113492496693243e-02
vn 1.9611613513818393e-01 -9.8043132850446291e-01 1.7113492496724194e-02
vn 1.9611613513818446e-01 -9.8043132850446368e-01 1.7113492496673981e-02
vn 1.9611613513818479e-01 -9.8043132850446324e-01 1.7113492496700571e-02
vn 1.9611613513818374e-01 -9.8043132850446335e-01 1.7113492496699138e-02
vn 1.9611613513818382e-01 -9.8043132850446235e-01 1.7113492496758219e-02
vn 1.9611613513818418e-01 -9.8043132850446379e-01 1.7113492496676236e-02
vn 1.9611613513818460e-01 -9.8043132850446324e-01 1.7113492496702111e-02
vn 1.9611613513818299e-01 -9.8043132850446357e-01 1.7113492496695418e-02
vn 1.9611613513818685e-01 -9.8043132850446446e-01 1.7113492496605449e-02
vn 1.9611613513818338e-01 -9.8043132850446402e-01 1.7113492496674938e-02
vn 1.9611613513818463e-01 -9.8043132850446335e-01 1.7113492496696105e-02
vn 1.9611613513818402e-01 -9.8043132850446313e-01 1.7113492496712783e-02
vn 1.9611613513818382e-01 -9.8043132850446379e-01 1.7113492496674786e-02
vn 1.9611613513818091e-01 -9.8043132850446346e-01 1.7113492496727670e-02
vn 1.9611613513818205e-01 -9.8043132850446402e-01 1.7113492496684913e-02
vn 1.9611613513818302e-01 -9.8043132850446379e-01 1.7113492496688712e-02
vn 1.9611613513818396e-01 -9.8043132850446391e-01 1.7113492496678574e-02
vn 1.9611613513818466e-01 -9.8043132850446268e-01 1.7113492496730508e-02
vn 1.9611613513818252e-01 -9.8043132850446346e-01 1.7113492496707947e-02
vn 1.9611613513818446e-01 -9.8043132850446402e-01 1.7113492496654756e-02
vn 1.9611613513818155e-01 -9.8043132850446513e-01 1.7113492496631466e-02
vn 1.9611613513818363e-01 -9.8043132850446324e-01 1.7113492496711871e-02
vn 1.9611613513818435e-01 -9.8043132850446457e-01 1.7113492496617002e-02
vn 1.9611613513818399e-01 -9.8043132850446146e-01 1.7113492496803658e-02
vn 1.9611613513818199e-01 -9.8043132850446346e-01 1.7113492496714518e-02
vn 1.9611613513818327e-01 -9.8043132850446335e-01 1.7113492496706424e-02
vn 1.9611613513818626e-01 -9.8043132850446268e-01 1.7113492496709955e-02
vn 1.9611613513818540e-01 -9.8043132850446146e-01 1.7113492496795953e-02
vn 1.9611613513818460e-01 -9.8043132850446180e-01 1.7113492496775545e-02
vn 1.9611613513818410e-01 -9.8043132850446513e-01 1.7113492496594551e-02
vn 1.9611613513818402e-01 -9.8043132850446368e-01 1.7113492496670851e-02
vn 1.9611613513818413e-01 -9.8043132850446602e-01 1.7113492496549698e-02
vn 1.9611613513818371e-01 -9.8043132850446313e-01 1.7113492496718546e-02
vn 1.9611613513818393e-01 -9.8043132850446391e-01 1.7113492496673918e-02
vn 1.9611613513818468e-01 -9.8043132850446257e-01 1.7113492496734918e-02
vn 1.9611613513818404e-01 -9.8043132850446402e-01 1.7113492496667569e-02
vn 1.9611613513818474e-01 -9.8043132850446302e-01 1.7113492496706982e-02
vn 1.9611613513818368e-01 -9.8043132850446391e-01 1.7113492496677134e-02
vn 1.9611613513818379e-01 -9.8043132850446102e-01 1.7113492496843921e-02
vn 7.9360636129191431e-01 6.0833887658603913e-01 -1.0618594588914055e-02
vn 7.9360636129191486e-01 6.0833887658603902e-01 -1.0618594588848864e-02
vn 7.9360636129191275e-01 6.0833887658603614e-01 -1.0618594589174711e-02
vn 7.9360636129191253e-01 6.0833887658603436e-01 -1.0618594589315291e-02
vn 7.9360636129190509e-01 6.0833887658603725e-01 -1.0618594589687416e-02
vn 7.9360636129192086e-01 6.0833887658601726e-01 -1.0618594589675174e-02
vn 7.9360636129191020e-01 6.0833887658604058e-01 -1.0618594589136983e-02
vn 7.9360636129192019e-01 6.0833887658602559e-01 -1.0618594589235402e-02
vn 7.9360636129191686e-01 6.0833887658603070e-01 -1.0618594589189106e-02
vn 7.9360636129191720e-01 6.0833887658602948e-01 -1.0618594589241873e-02
vn 7.9360636129190842e-01 6.0833887658604291e-01 -1.0618594589124505e-02
vn 7.9360636129191753e-01 6.0833887658603114e-01 -1.0618594589127329e-02
vn 7.9360636129191775e-01 6.0833887658603014e-01 -1.0618594589157423e-02
vn 7.9360636129191742e-01 6.0833887658603247e-01 -1.0618594589047084e-02
vn 7.9360636129191864e-01 6.0833887658602659e-01 -1.0618594589299358e-02
vn 7.9360636129191331e-01 6.0833887658600361e-01 -1.0618594591006402e-02
vn 7.9360636129191409e-01 6.0833887658604813e-01 -1.0618594588404664e-02
vn 7.9360636129191575e-01 6.0833887658602248e-01 -1.0618594589743761e-02
vn 7.9360636129191398e-01 6.0833887658604024e-01 -1.0618594588856790e-02
vn 7.9360636129191653e-01 6.0833887658603059e-01 -1.0618594589229912e-02
vn 7.9360636129191542e-01 6.0833887658603447e-01 -1.0618594589070883e-02
vn 7.9360636129194873e-01 6.0833887658598962e-01 -1.0618594589167592e-02
vn 7.9360636129191631e-01 6.0833887658603203e-01 -1.0618594589151832e-02
vn 7.9360636129192197e-01 6.0833887658602293e-01 -1.0618594589257470e-02
vn 7.9360636129191597e-01 6.0833887658603336e-01 -1.0618594589117937e-02
vn 7.9360636129191475e-01 6.0833887658603547e-01 -1.0618594589068395e-02
vn 7.9360636129191708e-01 6.0833887658603625e-01 -1.0618594588866425e-02
vn 7.9360636129191964e-01 6.0833887658602492e-01 -1.0618594589313289e-02
vn 7.9360636129191653e-01 6.0833887658602648e-01 -1.0618594589459891e-02
vn 7.9360636129191431e-01 6.0833887658604779e-01 -1.0618594588400282e-02
vn 7.9360636129191608e-01 6.0833887658603603e-01 -1.0618594588951504e-02
vn 7.9360636129191631e-01 6.0833887658603580e-01 -1.0618594588930653e-02
vn 7.9360636129191464e-01 6.0833887658604424e-01 -1.0618594588592925e-02
vn 7.9360636129191753e-01 6.0833887658603292e-01 -1.0618594589006665e-02
vn 7.9360636129191509e-01 6.0833887658604324e-01 -1.0618594588599784e-02
vn 7.9360636129191975e-01 6.0833887658602159e-01 -1.0618594589496851e-02
vn 7.9360636129191475e-01 6.0833887658603647e-01 -1.0618594589027065e-02
vn 7.9360636129191175e-01 6.0833887658603814e-01 -1.0618594589159884e-02
vn 7.9360636129191120e-01 6.0833887658603969e-01 -1.0618594589110835e-02
vn 7.9360636129190665e-01 6.0833887658604635e-01 -1.0618594589053381e-02
vn 7.9360636129192008e-01 6.0833887658603247e-01 -1.0618594588849509e-02
vn 7.9360636129191520e-01 6.0833887658603580e-01 -1.0618594589014608e-02
vn 7.9360636129191287e-01 6.0833887658603625e-01 -1.0618594589173637e-02
vn 7.9360636129191575e-01 6.0833887658603270e-01 -1.0618594589159780e-02
vn 7.9360636129191298e-01 6.0833887658603125e-01 -1.0618594589453446e-02
vn 7.9360636129191398e-01 6.0833887658602837e-01 -1.0618594589550744e-02
vn 7.9360636129191731e-01 6.0833887658602592e-01 -1.0618594589433126e-02
vn 7.9360636129191797e-01 6.0833887658602981e-01 -1.0618594589159213e-02
vn 7.9360636129191386e-01 6.0833887658603414e-01 -1.0618594589219980e-02
vn 7.9360636129191231e-01 6.0833887658603847e-01 -1.0618594589081843e-02
vn 7.9360636129191831e-01 6.0833887658602992e-01 -1.0618594589137114e-02
vn 7.9360636129191520e-01 6.0833887658603381e-01 -1.0618594589144235e-02
vn 7.9360636129191653e-01 6.0833887658602992e-01 -1.0618594589250650e-02
vn 7.9360636129191486e-01 6.0833887658603292e-01 -1.0618594589206169e-02
vn 7.9360636129191764e-01 6.0833887658602881e-01 -1.0618594589239491e-02
vn 7.9360636129191564e-01 6.0833887658603403e-01 -1.0618594589100526e-02
vn 7.9360636129191675e-01 6.0833887658602792e-01 -1.0618594589362058e-02
vn 7.9360636129191453e-01 6.0833887658603025e-01 -1.0618594589394939e-02
vn 7.9360636129191464e-01 6.0833887658602659e-01 -1.0618594589594764e-02
vn 7.9360636129191542e-01 6.0833887658602481e-01 -1.0618594589641789e-02
vn 7.9360636129191597e-01 6.0833887658603214e-01 -1.0618594589178939e-02
vn 7.9360636129191642e-01 6.0833887658601404e-01 -1.0618594590176162e-02
vn 7.9360636129191797e-01 6.0833887658602748e-01 -1.0618594589296352e-02
vn 7.9360636129191731e-01 6.0833887658603680e-01 -1.0618594588815316e-02
vn 7.9360636129191542e-01 6.0833887658603281e-01 -1.0618594589180236e-02
vn 7.9360636129191675e-01 6.0833887658603070e-01 -1.0618594589193498e-02
vn 7.9360636129191786e-01 6.0833887658602970e-01 -1.0618594589173525e-02
vn 7.9360636129191597e-01 6.0833887658603270e-01 -1.0618594589134670e-02
vn 7.9360636129191697e-01 6.0833887658603181e-01 -1.0618594589119521e-02
vn 7.9360636129191853e-01 6.0833887658603314e-01 -1.0618594588928668e-02
vn 7.9360636129191720e-01 6.0833887658604047e-01 -1.0618594588597161e-02
vn 7.9360636129191531e-01 6.0833887658603147e-01 -1.0618594589268754e-02
vn 7.9360636129191853e-01 6.0833887658603225e-01 -1.0618594588981463e-02
vn 7.9360636129191597e-01 6.0833887658604235e-01 -1.0618594588588043e-02
vn 7.9360636129191275e-01 6.0833887658603925e-01 -1.0618594589020241e-02
vn 7.9360636129191675e-01 6.0833887658602159e-01 -1.0618594589728178e-02
vn 7.9360636129191164e-01 6.0833887658604446e-01 -1.0618594588788097e-02
vn 7.9360636129191475e-01 6.0833887658603714e-01 -1.0618594588971610e-02
vn 7.9360636129191398e-01 6.0833887658603225e-01 -1.0618594589308391e-02
vn 4.4506252559528221e-15 1.7452406437288837e-02 9.9984769515639116e-01
vn -3.4902281712248484e-15 1.7452406437271552e-02 9.9984769515639149e-01
vn -8.7511423717669885e-15 1.7452406437273301e-02 9.9984769515639138e-01
vn -2.3915288618527443e-14 1.7452406437264169e-02 9.9984769515639160e-01
vn -5.1592767447051012e-15 1.7452406437274529e-02 9.9984769515639149e-01
vn -1.9032287429329467e-14 1.7452406437266327e-02 9.9984769515639160e-01
vn 2.9248999808871536e-15 1.7452406437286846e-02 9.9984769515639116e-01
vn -2.2110708126385310e-16 1.7452406437295613e-02 9.9984769515639105e-01
vn -3.6314562608674219e-15 1.7452406437283446e-02 9.9984769515639116e-01
vn 2.8104398496038826e-15 1.7452406437295415e-02 9.9984769515639105e-01
vn -3.0277348655223248e-15 1.7452406437297018e-02 9.9984769515639116e-01
vn -4.0794867100860657e-15 1.7452406437277575e-02 9.9984769515639127e-01
vn 5.7366880187495357e-15 1.7452406437283265e-02 9.9984769515639127e-01
vn 3.5170400413019838e-15 1.7452406437285222e-02 9.9984769515639138e-01
vn -8.2271930363746293e-15 1.7452406437285038e-02 9.9984769515639105e-01
vn 5.9797432212612535e-15 1.7452406437284251e-02 9.9984769515639127e-01
vn -2.5497944303262984e-14 1.7452406437282134e-02 9.9984769515639116e-01
vn -2.1351177696644187e-14 1.7452406437276104e-02 9.9984769515639138e-01
vn -3.5586634504436680e-14 1.7452406437277284e-02 9.9984769515639138e-01
vn 6.0936116926942153e-15 1.7452406437279838e-02 9.9984769515639138e-01
vn -6.0446069988610696e-16 1.7452406437284095e-02 9.9984769515639127e-01
vn -2.7752301339364300e-15 1.7452406437283064e-02 9.9984769515639127e-01
vn 9.8354924496317195e-16 1.7452406437280320e-02 9.9984769515639127e-01
vn 6.9068800199547777e-15 1.7452406437283536e-02 9.9984769515639127e-01
vn -4.9884178458258682e-15 1.7452406437282846e-02 9.9984769515639127e-01
vn -6.3546883074349756e-15 1.7452406437280361e-02 9.9984769515639127e-01
vn 1.6646802900949546e-15 1.7452406437284480e-02 9.9984769515639116e-01
vn 2.5668443972305258e-16 1.7452406437284365e-02 9.9984769515639116e-01
vn 1.2636970493452586e-15 1.7452406437285798e-02 9.9984769515639116e-01
vn 2.3933156920560898e-15 1.7452406437284469e-02 9.9984769515639127e-01
vn 3.9819377230162923e-15 1.7452406437288598e-02 9.9984769515639105e-01
vn 1.2502041418438398e-15 1.7452406437284542e-02 9.9984769515639127e-01
vn 4.4171534278693638e-15 1.7452406437276587e-02 9.9984769515639149e-01
vn -2.8097180846621023e-15 1.7452406437285264e-02 9.9984769515639127e-01
vn -1.0451901325817967e-14 1.7452406437278023e-02 9.9984769515639127e-01
vn -1.2801008143023216e-15 1.7452406437287262e-02 9.9984769515639116e-01
vn -6.9583723827128635e-16 1.7452406437281770e-02 9.9984769515639127e-01
vn 4.2777496860434853e-15 1.7452406437285791e-02 9.9984769515639127e-01
vn 2.4661695850957102e-15 1.7452406437286763e-02 9.9984769515639116e-01
vn -3.8975368967985125e-15 1.7452406437285482e-02 9.9984769515639127e-01
vn -5.9349055142803413e-17 1.7452406437282651e-02 9.9984769515639116e-01
vn 1.1370832252042822e-15 1.7452406437283841e-02 9.9984769515639116e-01
vn 2.7439271941856618e-15 1.7452406437283758e-02 9.9984769515639127e-01
vn -4.8057285652973496e-15 1.7452406437283824e-02 9.9984769515639138e-01
vn 1.1891091123243155e-14 1.7452406437286773e-02 9.9984769515639127e-01
vn -2.5760540221168287e-14 1.7452406437281295e-02 9.9984769515639138e-01
vn 1.0655545020712510e-14 1.7452406437286822e-02 9.9984769515639116e-01
vn 2.4094112002237086e-14 1.7452406437287335e-02 9.9984769515639116e-01
vn -3.6580450172661762e-15 1.7452406437282283e-02 9.9984769515639116e-01
vn 4.2312370070218665e-15 1.7452406437283661e-02 9.9984769515639116e-01
vn -3.8028778338174016e-15 1.7452406437282797e-02 9.9984769515639127e-01
vn 4.7276445369842609e-15 1.7452406437285045e-02 9.9984769515639127e-01
vn 3.4195575683312629e-15 1.7452406437286010e-02 9.9984769515639116e-01
vn -1.4742570881525660e-15 1.7452406437275837e-02 9.9984769515639138e-01
vn -4.1501797206990427e-16 1.7452406437286787e-02 9.9984769515639116e-01
vn 3.6690922110694321e-15 1.7452406437261696e-02 9.9984769515639160e-01
vn 3.5796528072748924e-16 1.7452406437283227e-02 9.9984769515639138e-01
vn 4.7298881909625795e-15 1.7452406437279716e-02 9.9984769515639127e-01
vn 1.3454884405583461e-15 1.7452406437283692e-02 9.9984769515639127e-01
vn 3.3731243638610299e-15 1.7452406437282481e-02 9.9984769515639127e-01
vn 2.8196092451266859e-16 1.7452406437289389e-02 9.9984769515639116e-01
vn 2.5508502817930126e-15 1.7452406437288598e-02 9.9984769515639116e-01
vn -8.0677013409954453e-16 1.7452406437287904e-02 9.9984769515639127e-01
vn -5.3202018722444032e-16 1.7452406437285926e-02 9.9984769515639116e-01
vn 3.3150483220651736e-15 1.7452406437279518e-02 9.9984769515639127e-01
vn -1.9903882690344233e-14 1.7452406437269339e-02 9.9984769515639138e-01
vn 6.5455201176741931e-14 1.7452406437333770e-02 9.9984769515639038e-01
vn 6.1986603896251455e-15 1.7452406437286259e-02 9.9984769515639127e-01
vn 7.3103332491021193e-15 1.7452406437286370e-02 9.9984769515639116e-01
vn 1.3651624607866344e-14 1.7452406437293001e-02 9.9984769515639116e-01
vn 2.3564357078981697e-15 1.7452406437285430e-02 9.9984769515639127e-01
vn -3.8525878920573226e-15 1.7452406437281208e-02 9.9984769515639127e-01
vn -1.6954802303543848e-15 1.7452406437283498e-02 9.9984769515639127e-01
vn -8.0106918943179618e-16 1.7452406437285992e-02 9.9984769515639127e-01
vn -3.3475175408986329e-15 1.7452406437281496e-02 9.9984769515639127e-01
vn -3.1192545847884598e-15 1.7452406437280816e-02 9.9984769515639127e-01
vn 2.3971229967302022e-14 1.7452406437301244e-02 9.9984769515639083e-01
vn 2.2793986078698978e-15 1.7452406437284795e-02 9.9984769515639127e-01
vn -4.1794413886422651e-15 1.7452406437283557e-02 9.9984769515639127e-01
vn -7.8454918625933140e-15 -1.7452406437293188e-02 -9.9984769515639105e-01
vn 1.5600020508823852e-15 -1.7452406437282946e-02 -9.9984769515639127e-01
vn -4.4519450711559102e-15 -1.7452406437286974e-02 -9.9984769515639116e-01
vn 3.2635072136275025e-15 -1.7452406437277537e-02 -9.9984769515639127e-01
vn 6.1209021104771111e-15 -1.7452406437285017e-02 -9.9984769515639127e-01
vn 1.2613023627543882e-14 -1.7452406437261560e-02 -9.9984769515639160e-01
vn 1.0094755615896886e-15 -1.7452406437285416e-02 -9.9984769515639116e-01
vn -1.9263817832907203e-15 -1.7452406437286180e-02 -9.9984769515639116e-01
vn -1.1789157184390768e-15 -1.7452406437284927e-02 -9.9984769515639116e-01
vn -6.6836846151139964e-15 -1.7452406437287803e-02 -9.9984769515639105e-01
vn 3.8121302513063563e-14 -1.7452406437253518e-02 -9.9984769515639182e-01
vn 3.8851985925044310e-15 -1.7452406437280826e-02 -9.9984769515639127e-01
vn -7.1769645268874560e-15 -1.7452406437289427e-02 -9.9984769515639116e-01
vn 2.3824937330849687e-15 -1.7452406437280667e-02 -9.9984769515639127e-01
vn 2.3667506257927164e-15 -1.7452406437280757e-02 -9.9984769515639127e-01
vn 1.0235376439118607e-14 -1.7452406437276049e-02 -9.9984769515639138e-01
vn 1.6915038709740041e-15 -1.7452406437285406e-02 -9.9984769515639127e-01
vn -2.2619712783327513e-15 -1.7452406437285323e-02 -9.9984769515639127e-01
vn -3.5465707800099975e-15 -1.7452406437287068e-02 -9.9984769515639116e-01
vn 1.7901736557971220e-15 -1.7452406437283151e-02 -9.9984769515639127e-01
vn -3.7991818860229489e-17 -1.7452406437281957e-02 -9.9984769515639127e-01
vn 8.8358212465763897e-16 -1.7452406437283238e-02 -9.9984769515639116e-01
vn 1.9499986778602853e-16 -1.7452406437282377e-02 -9.9984769515639127e-01
vn -7.6794481413944553e-15 -1.7452406437252280e-02 -9.9984769515639182e-01
vn 1.8252909595638029e-15 -1.7452406437277475e-02 -9.9984769515639127e-01
vn -1.8117774182401417e-15 -1.7452406437281642e-02 -9.9984769515639138e-01
vn 1.1214602213323820e-15 -1.7452406437283012e-02 -9.9984769515639127e-01
vn 4.7850190293094272e-15 -1.7452406437269533e-02 -9.9984769515639149e-01
vn -1.2321549963889235e-15 -1.7452406437284535e-02 -9.9984769515639127e-01
vn -6.1720623246291335e-15 -1.7452406437290180e-02 -9.9984769515639105e-01
vn 7.1633873167245390e-16 -1.7452406437283033e-02 -9.9984769515639116e-01
vn -4.8539988589000492e-15 -1.7452406437276698e-02 -9.9984769515639138e-01
vn -7.7312993817036731e-16 -1.7452406437282124e-02 -9.9984769515639127e-01
vn 1.4823941207710240e-15 -1.7452406437282988e-02 -9.9984769515639127e-01
vn -2.1845313297308424e-15 -1.7452406437283623e-02 -9.9984769515639127e-01
vn -4.2398563137132733e-15 -1.7452406437282721e-02 -9.9984769515639138e-01
vn 1.0177645361104426e-14 -1.7452406437281805e-02 -9.9984769515639138e-01
vn 4.8088327862458881e-14 -1.7452406437276947e-02 -9.9984769515639127e-01
vn 8.0957978998044358e-15 -1.7452406437280885e-02 -9.9984769515639138e-01
vn 7.1907669554796916e-14 -1.7452406437274894e-02 -9.9984769515639138e-01
vn -3.0094395753232132e-15 -1.7452406437283748e-02 -9.9984769515639127e-01
vn -7.7641704030999132e-16 -1.7452406437286908e-02 -9.9984769515639127e-01
vn 2.1965245174504930e-16 -1.7452406437278786e-02 -9.9984769515639127e-01
vn 5.0479034525821847e-15 -1.7452406437285458e-02 -9.9984769515639127e-01
vn 4.5683151889426307e-15 -1.7452406437281385e-02 -9.9984769515639127e-01
vn 8.3448394558208124e-15 -1.7452406437280566e-02 -9.9984769515639127e-01
vn -2.6712132127227148e-15 -1.7452406437285552e-02 -9.9984769515639116e-01
vn 2.6496041083376555e-14 -1.7452406437278599e-02 -9.9984769515639138e-01
vn 1.4708082366528845e-15 -1.7452406437282943e-02 -9.9984769515639127e-01
vn -1.4909220367009538e-14 -1.7452406437287026e-02 -9.9984769515639116e-01
vn -1.6349477710739035e-14 -1.7452406437287717e-02 -9.9984769515639116e-01
vn 1.0493762330492417e-16 -1.7452406437282204e-02 -9.9984769515639127e-01
vn 8.6419598542722809e-16 -1.7452406437283813e-02 -9.9984769515639127e-01
vn -5.9797432212612535e-15 -1.7452406437284251e-02 -9.9984769515639127e-01
vn -2.4033837380720432e-14 -1.7452406437289139e-02 -9.9984769515639105e-01
vn 1.3264552993687974e-14 -1.7452406437282096e-02 -9.9984769515639116e-01
vn 1.0635252235289468e-14 -1.7452406437278245e-02 -9.9984769515639127e-01
vn -2.3442580836350210e-14 -1.7452406437288206e-02 -9.9984769515639116e-01
vn 9.1839696326181880e-16 -1.7452406437287071e-02 -9.9984769515639116e-01
vn 2.6007409493219594e-15 -1.7452406437276358e-02 -9.9984769515639138e-01
vn 9.6180085952561421e-15 -1.7452406437281655e-02 -9.9984769515639138e-01
vn 5.1012057734148241e-15 -1.7452406437281333e-02 -9.9984769515639127e-01
vn 2.0169767385767364e-15 -1.7452406437283359e-02 -9.9984769515639116e-01
vn -1.0983322154165750e-15 -1.7452406437282270e-02 -9.9984769515639127e-01
vn 1.6858147076355424e-14 -1.7452406437275053e-02 -9.9984769515639138e-01
vn -6.5749786275314559e-15 -1.7452406437286922e-02 -9.9984769515639105e-01
vn 3.7127379597670394e-16 -1.7452406437284775e-02 -9.9984769515639116e-01
vn -2.5025559500127331e-15 -1.7452406437286162e-02 -9.9984769515639116e-01
vn -1.0259342373189998e-14 -1.7452406437276406e-02 -9.9984769515639149e-01
vn -6.8208361307374521e-15 -1.7452406437267476e-02 -9.9984769515639149e-01
vn 1.7667864454323312e-15 -1.7452406437282630e-02 -9.9984769515639116e-01
vn -2.9335881088026570e-15 -1.7452406437281406e-02 -9.9984769515639138e-01
vn -1.4347527337866946e-15 -1.7452406437286679e-02 -9.9984769515639127e-01
vn 4.3368289258465094e-15 -1.7452406437281728e-02 -9.9984769515639127e-01
vn -1.1189205126770988e-15 -1.7452406437284285e-02 -9.9984769515639105e-01
vn 4.7045532532890330e-15 -1.7452406437281555e-02 -9.9984769515639138e-01
vn -1.4260054501745118e-14 -1.7452406437285121e-02 -9.9984769515639116e-01
vn -3.1033368565707714e-15 -1.7452406437286981e-02 -9.9984769515639116e-01
vn -5.8163285737162589e-15 -1.7452406437285357e-02 -9.9984769515639127e-01

g face 0
f 2//1 27//2 1//3
f 1//3 27//2 28//4
f 1//3 28//4 17//5
f 17//5 28//4 27//2
f 17//5 27//2 72//6
f 72//6 27//2 26//7
f 72//6 26//7 71//8
f 71//8 26//7 25//9
f 71//8 25//9 70//10
f 70//10 25//9 24//11
f 70//10 24//11 69//12
f 69//12 24//11 23//13
f 69//12 23//13 68//14
f 68//14 23//13 22//15
f 68//14 22//15 67//16
f 67//16 22//15 21//17
f 67//16 21//17 18//18
f 18//18 21//17 5//19
f 18//18 5//19 6//20
f 3//21 25//9 2//1
f 2//1 25//9 26//7
f 2//1 26//7 27//2
f 4//22 23//13 3//21
f 3//21 23//13 24//11
f 3//21 24//11 25//9
f 23//13 4//22 22//15
f 22//15 4//22 5//19
f 22//15 5//19 21//17
f 7//23 29//24 6//20
f 6//20 29//24 44//25
f 6//20 44//25 18//18
f 18//18 44//25 43//26
f 18//18 43//26 67//16
f 67//16 43//26 42//27
f 67//16 42//27 68//14
f 68//14 42//27 41//28
f 68//14 41//28 69//12
f 69//12 41//28 40//29
f 69//12 40//29 70//10
f 70//10 40//29 39//30
f 70//10 39//30 71//8
f 71//8 39//30 38//31
f 71//8 38//31 72//6
f 72//6 38//31 37//32
f 72//6 37//32 17//5
f 17//5 37//32 16//33
f 17//5 16//33 1//3
f 8//34 45//35 7//23
f 7//23 45//35 46//36
f 7//23 46//36 30//37
f 30//37 46//36 47//38
f 30//37 47//38 31//39
f 31//39 47//38 48//40
f 31//39 48//40 32//41
f 32//41 48//40 49//42
f 32//41 49//42 33//43
f 33//43 49//42 50//44
f 33//43 50//44 34//45
f 34//45 50//44 15//46
f 34//45 15//46 35//47
f 35//47 15//46 36//48
f 35//47 36//48 38//31
f 38//31 36//48 37//32
f 45//35 8//34 20//49
f 20//49 8//34 9//50
f 20//49 9//50 66//51
f 66//51 9//50 65//52
f 66//51 65//52 20//49
f 20//49 65//52 53//53
f 20//49 53//53 45//35
f 45//35 53//53 46//36
f 9//50 10//54 65//52
f 65//52 10//54 64//55
f 65//52 64//55 53//53
f 53//53 64//55 54//56
f 53//53 54//56 46//36
f 46//36 54//56 47//38
f 10//54 11//57 64//55
f 64//55 11//57 63//58
f 64//55 63//58 54//56
f 54//56 63//58 55//59
f 54//56 55//59 47//38
f 47//38 55//59 48//40
f 63//58 11//57 62//60
f 62//60 11//57 12//61
f 62//60 12//61 61//62
f 61//62 12//61 60//63
f 61//62 60//63 57//64
f 57//64 60//63 58//65
f 57//64 58//65 50//44
f 50//44 58//65 51//66
f 50//44 51//66 15//46
f 15//46 51//66 52//67
f 15//46 52//67 14//68
f 14//68 52//67 19//69
f 14//68 19//69 13//70
f 13//70 19//69 59//71
f 13//70 59//71 60//63
f 60//63 59//71 58//65
f 12//61 13//70 60//63
f 15//46 16//33 36//48
f 36//48 16//33 37//32
f 43//26 44//25 30//37
f 30//37 44//25 29//24
f 30//37 29//24 7//23
f 42//27 43//26 31//39
f 31//39 43//26 30//37
f 41//28 42//27 32//41
f 32//41 42//27 31//39
f 40//29 41//28 33//43
f 33//43 41//28 32//41
f 39//30 40//29 34//45
f 34//45 40//29 33//43
f 38//31 39//30 35//47
f 35//47 39//30 34//45
f 57//64 50//44 49//42
f 49//42 48//40 56//72
f 56//72 48//40 55//59
f 56//72 55//59 62//60
f 62//60 55//59 63//58
f 19//69 52//67 51//66
f 19//69 51//66 58//65
f 61//62 57//64 56//72
f 56//72 57//64 49//42
f 61//62 56//72 62//60
f 59//71 19//69 58//65

g face 1
f 74//73 94//74 73//75
f 73//75 94//74 95//76
f 73//75 95//76 84//77
f 84//77 95//76 94//74
f 84//77 94//74 139//78
f 139//78 94//74 93//79
f 139//78 93//79 138//80
f 138//80 93//79 91//81
f 138//80 91//81 92//82
f 92//82 91//81 75//83
f 92//82 75//83 106//84
f 106//84 75//83 107//85
f 106//84 107//85 99//86
f 99//86 107//85 98//87
f 99//86 98//87 120//88
f 120//88 98//87 121//89
f 120//88 121//89 113//90
f 113//90 121//89 112//91
f 113//90 112//91 7//92
f 7//92 112//91 125//93
f 7//92 125//93 8//94
f 8//94 125//93 133//95
f 8//94 133//95 134//96
f 134//96 133//95 124//97
f 134//96 124//97 87//98
f 87//98 124//97 110//99
f 87//98 110//99 80//100
f 80//100 110//99 79//101
f 79//101 110//99 123//102
f 79//101 123//102 96//103
f 96//103 123//102 122//104
f 96//103 122//104 97//105
f 97//105 122//104 121//89
f 97//105 121//89 98//87
f 75//83 91//81 74//73
f 74//73 91//81 93//79
f 74//73 93//79 94//74
f 107//85 75//83 137//106
f 137//106 75//83 76//107
f 137//106 76//107 90//108
f 90//108 76//107 89//109
f 90//108 89//109 137//106
f 137//106 89//109 136//110
f 137//106 136//110 107//85
f 107//85 136//110 108//111
f 107//85 108//111 98//87
f 98//87 108//111 97//105
f 76//107 77//112 89//109
f 89//109 77//112 88//113
f 89//109 88//113 136//110
f 136//110 88//113 85//114
f 136//110 85//114 108//111
f 108//111 85//114 109//115
f 108//111 109//115 97//105
f 97//105 109//115 96//103
f 88//113 77//112 85//114
f 85//114 77//112 78//116
f 85//114 78//116 109//115
f 109//115 78//116 96//103
f 78//116 79//101 96//103
f 80//100 9//117 87//98
f 87//98 9//117 135//118
f 87//98 135//118 134//96
f 134//96 135//118 9//117
f 134//96 9//117 8//94
f 6//119 132//120 7//92
f 7//92 132//120 126//121
f 7//92 126//121 113//90
f 113//90 126//121 127//122
f 113//90 127//122 114//123
f 114//123 127//122 128//124
f 114//123 128//124 115//125
f 115//125 128//124 86//126
f 115//125 86//126 116//127
f 116//127 86//126 81//128
f 116//127 81//128 82//129
f 5//130 130//131 6//119
f 6//119 130//131 131//132
f 6//119 131//132 132//120
f 132//120 131//132 126//121
f 81//128 86//126 5//130
f 5//130 86//126 129//133
f 5//130 129//133 130//131
f 130//131 129//133 128//124
f 130//131 128//124 127//122
f 83//134 102//135 82//129
f 82//129 102//135 117//136
f 82//129 117//136 116//127
f 116//127 117//136 118//137
f 116//127 118//137 115//125
f 115//125 118//137 119//138
f 115//125 119//138 114//123
f 114//123 119//138 120//88
f 114//123 120//88 113//90
f 73//75 84//77 83//134
f 83//134 84//77 103//139
f 83//134 103//139 102//135
f 102//135 103//139 104//140
f 102//135 104//140 101//141
f 101//141 104//140 105//142
f 101//141 105//142 100//143
f 100//143 105//142 106//84
f 100//143 106//84 99//86
f 120//88 119//138 99//86
f 99//86 119//138 100//143
f 117//136 102//135 101//141
f 119//138 118//137 100//143
f 100//143 118//137 101//141
f 118//137 117//136 101//141
f 84//77 139//78 103//139
f 103//139 139//78 104//140
f 92//82 106//84 105//142
f 139//78 138//80 104//140
f 104//140 138//80 105//142
f 138//80 92//82 105//142
f 122//104 123//102 111//144
f 111//144 123//102 110//99
f 111//144 110//99 124//97
f 121//89 122//104 112//91
f 112//91 122//104 111//144
f 112//91 111//144 125//93
f 125//93 111//144 124//97
f 125//93 124//97 133//95
f 130//131 127//122 131//132
f 131//132 127//122 126//121
f 129//133 86//126 128//124

g face 2
f 141//145 161//146 140//147
f 140//147 161//146 162//148
f 140//147 162//148 151//149
f 151//149 162//148 161//146
f 151//149 161//146 206//150
f 206//150 161//146 160//151
f 206//150 160//151 205//152
f 205//152 160//151 158//153
f 205//152 158//153 159//154
f 159//154 158//153 142//155
f 159//154 142//155 173//156
f 173//156 142//155 174//157
f 173//156 174//157 166//158
f 166//158 174//157 165//159
f 166//158 165//159 187//160
f 187//160 165//159 188//161
f 187//160 188//161 180//162
f 180//162 188//161 179//163
f 180//162 179//163 75//164
f 75//164 179//163 192//165
f 75//164 192//165 76//166
f 76//166 192//165 200//167
f 76//166 200//167 201//168
f 201//168 200//167 191//169
f 201//168 191//169 154//170
f 154//170 191//169 177//171
f 154//170 177//171 147//172
f 147//172 177//171 146//173
f 146//173 177//171 190//174
f 146//173 190//174 163//175
f 163//175 190//174 189//176
f 163//175 189//176 164//177
f 164//177 189//176 188//161
f 164//177 188//161 165//159
f 142//155 158//153 141//145
f 141//145 158//153 160//151
f 141//145 160//151 161//146
f 174//157 142//155 204//178
f 204//178 142//155 143//179
f 204//178 143//179 157//180
f 157//180 143//179 156//181
f 157//180 156//181 204//178
f 204//178 156//181 203//182
f 204//178 203//182 174//157
f 174//157 203//182 175//183
f 174//157 175//183 165//159
f 165//159 175//183 164//177
f 143//179 144//184 156//181
f 156//181 144//184 155//185
f 156//181 155//185 203//182
f 203//182 155//185 152//186
f 203//182 152//186 175//183
f 175//183 152//186 176//187
f 175//183 176//187 164//177
f 164//177 176//187 163//175
f 155//185 144//184 152//186
f 152//186 144//184 145//188
f 152//186 145//188 176//187
f 176//187 145//188 163//175
f 145//188 146//173 163//175
f 147//172 77//189 154//170
f 154//170 77//189 202//190
f 154//170 202//190 201//168
f 201//168 202//190 77//189
f 201//168 77//189 76//166
f 74//191 199//192 75//164
f 75//164 199//192 193//193
f 75//164 193//193 180//162
f 180//162 193//193 194//194
f 180//162 194//194 181//195
f 181//195 194//194 195//196
f 181//195 195//196 182//197
f 182//197 195//196 153//198
f 182//197 153//198 183//199
f 183//199 153//198 148//200
f 183//199 148//200 149//201
f 73//202 197//203 74//191
f 74//191 197//203 198//204
f 74//191 198//204 199//192
f 199//192 198//204 193//193
f 148//200 153//198 73//202
f 73//202 153//198 196//205
f 73//202 196//205 197//203
f 197//203 196//205 195//196
f 197//203 195//196 194//194
f 150//206 169//207 149//201
f 149//201 169//207 184//208
f 149//201 184//208 183//199
f 183//199 184//208 185//209
f 183//199 185//209 182//197
f 182//197 185//209 186//210
f 182//197 186//210 181//195
f 181//195 186//210 187//160
f 181//195 187//160 180//162
f 140//147 151//149 150//206
f 150//206 151//149 170//211
f 150//206 170//211 169//207
f 169//207 170//211 171//212
f 169//207 171//212 168//213
f 168//213 171//212 172//214
f 168//213 172//214 167//215
f 167//215 172//214 173//156
f 167//215 173//156 166//158
f 187//160 186//210 166//158
f 166//158 186//210 167//215
f 184//208 169//207 168//213
f 186//210 185//209 167//215
f 167//215 185//209 168//213
f 185//209 184//208 168//213
f 151//149 206//150 170//211
f 170//211 206//150 171//212
f 159//154 173//156 172//214
f 206//150 205//152 171//212
f 171//212 205//152 172//214
f 205//152 159//154 172//214
f 189//176 190//174 178//216
f 178//216 190//174 177//171
f 178//216 177//171 191//169
f 188//161 189//176 179//163
f 179//163 189//176 178//216
f 179//163 178//216 192//165
f 192//165 178//216 191//169
f 192//165 191//169 200//167
f 197//203 194//194 198//204
f 198//204 194//194 193//193
f 196//205 153//198 195//196

g face 3
f 16//217 223//218 1//219
f 1//219 223//218 224//220
f 1//219 224//220 213//221
f 213//221 224//220 223//218
f 213//221 223//218 271//222
f 271//222 223//218 222//223
f 271//222 222//223 270//224
f 270//224 222//223 220//225
f 270//224 220//225 221//226
f 221//226 220//225 15//227
f 221//226 15//227 235//228
f 235//228 15//227 236//229
f 235//228 236//229 228//230
f 228//230 236//229 227//231
f 228//230 227//231 249//232
f 249//232 227//231 250//233
f 249//232 250//233 242//234
f 242//234 250//233 241//235
f 242//234 241//235 256//236
f 256//236 241//235 255//237
f 256//236 255//237 142//238
f 142//238 255//237 265//239
f 142//238 265//239 143//240
f 143//240 265//239 264//241
f 143//240 264//241 266//242
f 266//242 264//241 272//243
f 266//242 272//243 216//244
f 216//244 272//243 253//245
f 216//244 253//245 209//246
f 209//246 253//245 239//247
f 209//246 239//247 208//248
f 208//248 239//247 252//249
f 208//248 252//249 225//250
f 225//250 252//249 251//251
f 225//250 251//251 226//252
f 226//252 251//251 250//233
f 226//252 250//233 227//231
f 15//227 220//225 16//217
f 16//217 220//225 222//223
f 16//217 222//223 223//218
f 236//229 15//227 269//253
f 269//253 15//227 14//254
f 269//253 14//254 219//255
f 219//255 14//254 218//256
f 219//255 218//256 269//253
f 269//253 218//256 268//257
f 269//253 268//257 236//229
f 236//229 268//257 237//258
f 236//229 237//258 227//231
f 227//231 237//258 226//252
f 14//254 13//259 218//256
f 218//256 13//259 217//260
f 218//256 217//260 268//257
f 268//257 217//260 214//261
f 268//257 214//261 237//258
f 237//258 214//261 238//262
f 237//258 238//262 226//252
f 226//252 238//262 225//250
f 217//260 13//259 214//261
f 214//261 13//259 207//263
f 214//261 207//263 238//262
f 238//262 207//263 225//250
f 207//263 208//248 225//250
f 209//246 144//264 216//244
f 216//244 144//264 267//265
f 216//244 267//265 266//242
f 266//242 267//265 144//264
f 266//242 144//264 143//240
f 141//266 263//267 142//238
f 142//238 263//267 273//268
f 142//238 273//268 256//236
f 256//236 273//268 274//269
f 256//236 274//269 257//270
f 257//270 274//269 275//271
f 257//270 275//271 258//272
f 258//272 275//271 215//273
f 258//272 215//273 259//274
f 259//274 215//273 210//275
f 259//274 210//275 245//276
f 245//276 210//275 211//277
f 245//276 211//277 246//278
f 246//278 211//277 231//279
f 246//278 231//279 230//280
f 230//280 231//279 233//281
f 230//280 233//281 234//282
f 234//282 233//281 270//224
f 234//282 270//224 221//226
f 140//283 261//284 141//266
f 141//266 261//284 262//285
f 141//266 262//285 263//267
f 263//267 262//285 273//268
f 210//275 215//273 140//283
f 140//283 215//273 260//286
f 140//283 260//286 261//284
f 261//284 260//286 275//271
f 261//284 275//271 274//269
f 211//277 212//287 231//279
f 231//279 212//287 232//288
f 231//279 232//288 233//281
f 233//281 232//288 271//222
f 233//281 271//222 270//224
f 232//288 212//287 213//221
f 213//221 212//287 1//219
f 234//282 221//226 235//228
f 234//282 235//228 229//289
f 229//289 235//228 228//230
f 229//289 228//230 248//290
f 248//290 228//230 249//232
f 248//290 249//232 243//291
f 243//291 249//232 242//234
f 243//291 242//234 257//270
f 257//270 242//234 256//236
f 234//282 229//289 230//280
f 230//280 229//289 247//292
f 230//280 247//292 246//278
f 246//278 247//292 245//276
f 247//292 229//289 248//290
f 213//221 271//222 232//288
f 251//251 252//249 240//293
f 240//293 252//249 239//247
f 240//293 239//247 254//294
f 254//294 239//247 253//245
f 254//294 253//245 272//243
f 250//233 251//251 241//235
f 241//235 251//251 240//293
f 241//235 240//293 255//237
f 255//237 240//293 254//294
f 255//237 254//294 265//239
f 265//239 254//294 272//243
f 265//239 272//243 264//241
f 247//292 248//290 244//295
f 244//295 248//290 243//291
f 244//295 243//291 258//272
f 258//272 243//291 257//270
f 259//274 245//276 244//295
f 244//295 245//276 247//292
f 259//274 244//295 258//272
f 215//273 275//271 260//286
f 273//268 262//285 274//269
f 274//269 262//285 261//284

g face 4
f 12//296 288//297 13//298
f 13//298 288//297 289//299
f 13//298 289//299 276//300
f 276//300 289//299 288//297
f 276//300 288//297 334//301
f 334//301 288//297 287//302
f 334//301 287//302 333//303
f 333//303 287//302 285//304
f 333//303 285//304 286//305
f 286//305 285//304 11//306
f 286//305 11//306 332//307
f 332//307 11//306 284//308
f 332//307 284//308 283//309
f 283//309 284//308 10//310
f 283//309 10//310 9//311
f 11//306 285//304 12//296
f 12//296 285//304 287//302
f 12//296 287//302 288//297
f 11//306 10//310 284//308
f 80//312 277//313 9//311
f 9//311 277//313 282//314
f 9//311 282//314 283//309
f 283//309 282//314 331//315
f 283//309 331//315 332//307
f 332//307 331//315 301//316
f 332//307 301//316 300//317
f 300//317 301//316 293//318
f 300//317 293//318 294//319
f 294//319 293//318 307//320
f 294//319 307//320 308//321
f 308//321 307//320 317//322
f 308//321 317//322 316//323
f 316//323 317//322 315//324
f 316//323 315//324 209//325
f 209//325 315//324 280//326
f 209//325 280//326 144//327
f 144//327 280//326 323//328
f 144//327 323//328 324//329
f 324//329 323//328 338//330
f 324//329 338//330 337//331
f 337//331 338//330 313//332
f 337//331 313//332 312//333
f 312//333 313//332 319//334
f 312//333 319//334 320//335
f 320//335 319//334 305//336
f 320//335 305//336 304//337
f 304//337 305//336 291//338
f 304//337 291//338 79//339
f 79//339 291//338 290//340
f 79//339 290//340 80//312
f 80//312 290//340 303//341
f 80//312 303//341 277//313
f 277//313 303//341 302//342
f 277//313 302//342 331//315
f 331//315 302//342 301//316
f 304//337 79//339 279//343
f 279//343 79//339 78//344
f 279//343 78//344 322//345
f 322//345 78//344 309//346
f 322//345 309//346 310//347
f 310//347 309//346 335//348
f 310//347 335//348 328//349
f 328//349 335//348 327//350
f 328//349 327//350 146//351
f 146//351 327//350 147//352
f 147//352 327//350 329//353
f 147//352 329//353 77//354
f 77//354 329//353 330//355
f 77//354 330//355 281//356
f 281//356 330//355 329//353
f 281//356 329//353 335//348
f 335//348 329//353 327//350
f 309//346 78//344 281//356
f 281//356 78//344 77//354
f 145//357 326//358 146//351
f 146//351 326//358 336//359
f 146//351 336//359 312//333
f 312//333 336//359 337//331
f 144//327 324//329 145//357
f 145//357 324//329 325//360
f 145//357 325//360 326//358
f 326//358 325//360 336//359
f 316//323 209//325 278//361
f 278//361 209//325 208//362
f 278//361 208//362 308//321
f 308//321 208//362 295//363
f 308//321 295//363 294//319
f 294//319 295//363 299//364
f 294//319 299//364 300//317
f 300//317 299//364 286//305
f 300//317 286//305 332//307
f 295//363 208//362 296//365
f 296//365 208//362 207//366
f 296//365 207//366 297//367
f 297//367 207//366 276//300
f 297//367 276//300 334//301
f 207//366 13//298 276//300
f 277//313 331//315 282//314
f 302//342 303//341 291//338
f 291//338 303//341 290//340
f 301//316 302//342 292//368
f 292//368 302//342 291//338
f 292//368 291//338 305//336
f 301//316 292//368 293//318
f 293//318 292//368 306//369
f 293//318 306//369 307//320
f 307//320 306//369 318//370
f 307//320 318//370 317//322
f 317//322 318//370 314//371
f 317//322 314//371 315//324
f 315//324 314//371 280//326
f 306//369 292//368 305//336
f 295//363 296//365 298//372
f 298//372 296//365 297//367
f 298//372 297//367 334//301
f 295//363 298//372 299//364
f 299//364 298//372 333//303
f 299//364 333//303 286//305
f 333//303 298//372 334//301
f 304//337 279//343 321//373
f 321//373 279//343 322//345
f 321//373 322//345 310//347
f 318//370 306//369 319//334
f 319//334 306//369 305//336
f 316//323 278//361 308//321
f 310//347 311//374 321//373
f 321//373 311//374 320//335
f 321//373 320//335 304//337
f 281//356 335//348 309//346
f 146//351 312//333 311//374
f 311//374 312//333 320//335
f 146//351 311//374 328//349
f 328//349 311//374 310//347
f 318//370 319//334 313//332
f 318//370 313//332 314//371
f 314//371 313//332 338//330
f 314//371 338//330 280//326
f 280//326 338//330 323//328
f 336//359 325//360 337//331
f 337//331 325//360 324//329

g face 5
f 212//375 351//376 1//377
f 1//377 351//376 352//378
f 1//377 352//378 339//379
f 339//379 352//378 351//376
f 339//379 351//376 401//380
f 401//380 351//376 350//381
f 401//380 350//381 400//382
f 400//382 350//381 348//383
f 400//382 348//383 349//384
f 349//384 348//383 211//385
f 349//384 211//385 399//386
f 399//386 211//385 347//387
f 399//386 347//387 346//388
f 346//388 347//387 210//389
f 346//388 210//389 345//390
f 345//390 210//389 344//391
f 345//390 344//391 397//392
f 397//392 344//391 396//393
f 397//392 396//393 368//394
f 368//394 396//393 369//395
f 368//394 369//395 355//396
f 355//396 369//395 354//397
f 355//396 354//397 149//398
f 149//398 354//397 353//399
f 149//398 353//399 150//400
f 150//400 353//399 370//401
f 150//400 370//401 340//402
f 340//402 370//401 369//395
f 340//402 369//395 396//393
f 211//385 348//383 212//375
f 212//375 348//383 350//381
f 212//375 350//381 351//376
f 211//385 210//389 347//387
f 210//389 140//403 344//391
f 344//391 140//403 343//404
f 344//391 343//404 396//393
f 396//393 343//404 340//402
f 343//404 140//403 340//402
f 340//402 140//403 150//400
f 148//405 371//406 149//398
f 149//398 371//406 372//407
f 149//398 372//407 373//408
f 373//408 372//407 381//409
f 373//408 381//409 382//410
f 382//410 381//409 392//411
f 382//410 392//411 391//412
f 391//412 392//411 83//413
f 391//412 83//413 82//414
f 371//406 148//405 342//415
f 342//415 148//405 73//416
f 342//415 73//416 395//417
f 395//417 73//416 394//418
f 395//417 394//418 342//415
f 342//415 394//418 380//419
f 342//415 380//419 371//406
f 371//406 380//419 372//407
f 73//416 83//413 394//418
f 394//418 83//413 393//420
f 394//418 393//420 380//419
f 380//419 393//420 381//409
f 380//419 381//409 372//407
f 81//421 390//422 82//414
f 82//414 390//422 384//423
f 82//414 384//423 383//424
f 383//424 384//423 375//425
f 383//424 375//425 374//426
f 374//426 375//425 356//427
f 374//426 356//427 355//396
f 355//396 356//427 368//394
f 5//428 388//429 81//421
f 81//421 388//429 389//430
f 81//421 389//430 390//422
f 390//422 389//430 384//423
f 4//431 341//432 5//428
f 5//428 341//432 387//433
f 5//428 387//433 388//429
f 388//429 387//433 386//434
f 388//429 386//434 385//435
f 385//435 386//434 377//436
f 385//435 377//436 376//437
f 376//437 377//436 358//438
f 376//437 358//438 357//439
f 357//439 358//438 366//440
f 357//439 366//440 367//441
f 367//441 366//440 398//442
f 367//441 398//442 397//392
f 397//392 398//442 345//390
f 341//432 4//431 379//443
f 379//443 4//431 3//444
f 379//443 3//444 378//445
f 378//445 3//444 360//446
f 378//445 360//446 359//447
f 359//447 360//446 364//448
f 359//447 364//448 365//449
f 365//449 364//448 349//384
f 365//449 349//384 399//386
f 360//446 3//444 361//450
f 361//450 3//444 2//451
f 361//450 2//451 362//452
f 362//452 2//451 339//379
f 362//452 339//379 401//380
f 2//451 1//377 339//379
f 399//386 346//388 398//442
f 398//442 346//388 345//390
f 369//395 370//401 354//397
f 354//397 370//401 353//399
f 368//394 356//427 367//441
f 367//441 356//427 357//439
f 376//437 357//439 375//425
f 375//425 357//439 356//427
f 366//440 358//438 365//449
f 365//449 358//438 359//447
f 378//445 359//447 377//436
f 377//436 359//447 358//438
f 360//446 361//450 363//453
f 363//453 361//450 362//452
f 363//453 362//452 401//380
f 360//446 363//453 364//448
f 364//448 363//453 400//382
f 364//448 400//382 349//384
f 400//382 363//453 401//380
f 398//442 366//440 399//386
f 399//386 366//440 365//449
f 397//392 368//394 367//441
f 355//396 149//398 373//408
f 355//396 373//408 374//426
f 374//426 373//408 382//410
f 374//426 382//410 383//424
f 383//424 382//410 391//412
f 383//424 391//412 82//414
f 385//435 376//437 384//423
f 384//423 376//437 375//425
f 341//432 379//443 378//445
f 341//432 378//445 386//434
f 386//434 378//445 377//436
f 392//411 381//409 393//420
f 388//429 385//435 389//430
f 389//430 385//435 384//423
f 387//433 341//432 386//434
f 393//420 83//413 392//411

g halfedge 0 edge 0
l 5 4 3 2 1

g halfedge 1 edge 0
l 1 2 3 4 5

g halfedge 2 edge 1
l 9 8 7 6 5

g halfedge 3 edge 1
l 5 6 7 8 9

g halfedge 4 edge 2
l 13 12 11 10 9

g halfedge 5 edge 2
l 9 10 11 12 13

g halfedge 6 edge 3
l 1 16 15 14 13

g halfedge 7 edge 3
l 13 14 15 16 1

g halfedge 8 edge 4
l 77 76 75 74 73

g halfedge 9 edge 4
l 73 74 75 76 77

g halfedge 10 edge 5
l 9 80 79 78 77

g halfedge 11 edge 5
l 77 78 79 80 9

g halfedge 12 edge 6
l 73 83 82 81 5

g halfedge 13 edge 6
l 5 81 82 83 73

g halfedge 14 edge 7
l 144 143 142 141 140

g halfedge 15 edge 7
l 140 141 142 143 144

g halfedge 16 edge 8
l 77 147 146 145 144

g halfedge 17 edge 8
l 144 145 146 147 77

g halfedge 18 edge 9
l 140 150 149 148 73

g halfedge 19 edge 9
l 73 148 149 150 140

g halfedge 20 edge 10
l 144 209 208 207 13

g halfedge 21 edge 10
l 13 207 208 209 144

g halfedge 22 edge 11
l 1 212 211 210 140

g halfedge 23 edge 11
l 140 210 211 212 1

g vertex 0
p 1

g vertex 1
p 5

g vertex 2
p 9

g vertex 3
p 13

g vertex 4
p 73

g vertex 5
p 77

g vertex 6
p 140

g vertex 7
p 144

# End of file
