# WaveFront *.obj file
# Vertices: 401
# Triangles : 798

v -5.5125878962666190e+00 2.8533806113013291e+00 -1.7042013217618042e+00
v -5.5125878962666182e+00 2.8538402953076654e+00 -1.7305366008471164e+00
v -5.5125878962666235e+00 2.8542999793140038e+00 -1.7568718799324301e+00
v -5.5125878962666199e+00 2.8547596633203405e+00 -1.7832071590177416e+00
v -5.5125878962666190e+00 2.8552193473266767e+00 -1.8095424381030536e+00
v -5.6625878985017923e+00 2.8052269618239127e+00 -1.8104150584379206e+00
v -5.8125879007369701e+00 2.7552345763211474e+00 -1.8112876787727892e+00
v -5.9625879029721416e+00 2.7052421908183844e+00 -1.8121602991076555e+00
v -6.1125879052073158e+00 2.6552498053156204e+00 -1.8130329194425225e+00
v -6.1125879052073167e+00 2.6547901213092842e+00 -1.7866976403572103e+00
v -6.1125879052073149e+00 2.6543304373029466e+00 -1.7603623612718986e+00
v -6.1125879052073149e+00 2.6538707532966099e+00 -1.7340270821865853e+00
v -6.1125879052073158e+00 2.6534110692902728e+00 -1.7076918031012731e+00
v -5.9625879029721416e+00 2.7034034547930372e+00 -1.7068191827664063e+00
v -5.8125879007369701e+00 2.7533958402958030e+00 -1.7059465624315402e+00
v -5.6625878985017923e+00 2.8033882257985656e+00 -1.7050739420966714e+00
v -5.5893214823221076e+00 2.8279242367983444e+00 -1.7113845514843360e+00
v -5.5893214823221067e+00 2.8295277890572152e+00 -1.8032519988680076e+00
v -6.0358543191518255e+00 2.6791026275597329e+00 -1.7139822423363185e+00
v -6.0358543191518237e+00 2.6807061798186038e+00 -1.8058496897199896e+00
v -5.5516682957973558e+00 2.8420747672987590e+00 -1.8029084990213591e+00
v -5.5509594352050433e+00 2.8421956277260607e+00 -1.7962936608416067e+00
v -5.5500878968254108e+00 2.8421849529435921e+00 -1.7790361009205724e+00
v -5.5500878968254117e+00 2.8414188129330307e+00 -1.7351439691117185e+00
v -5.5875878973842070e+00 2.8289207165573398e+00 -1.7353621241954356e+00
v -5.5503467586809112e+00 2.8411041962599319e+00 -1.7220637402556682e+00
v -5.5509594352050433e+00 2.8408272010571536e+00 -1.7178965494853689e+00
v -5.5516682957973567e+00 2.8404755597315154e+00 -1.7112899588543933e+00
v -5.6875878988743214e+00 2.7967799765718673e+00 -1.8039766753890707e+00
v -5.6875878988743214e+00 2.7966650555702830e+00 -1.7973928556177423e+00
v -5.6875878988743223e+00 2.7963585995660591e+00 -1.7798360028941993e+00
v -5.6875878988743240e+00 2.7955924595554973e+00 -1.7359438710853468e+00
v -5.6875878988743214e+00 2.7953626175523278e+00 -1.7227762315426904e+00
v -5.6875878988743205e+00 2.7952860035512725e+00 -1.7183870183618055e+00
v -5.6875878988743223e+00 2.7951710825496883e+00 -1.7118031985904769e+00
v -5.6130771925549956e+00 2.8200049951733255e+00 -1.7114151828743227e+00
v -5.6128621958772973e+00 2.8201916785119034e+00 -1.7180039216239946e+00
v -5.6126692163782561e+00 2.8203319574307368e+00 -1.7223546714342064e+00
v -5.6125878977567352e+00 2.8205886523068791e+00 -1.7355075609179129e+00
v -5.6125878977567325e+00 2.8213547923174414e+00 -1.7793996927267666e+00
v -5.6128621958772973e+00 2.8215689285499952e+00 -1.7969065234622086e+00
v -5.6130771925549947e+00 2.8216123026001294e+00 -1.8034977636848148e+00
v -5.9375879025996134e+00 2.7134593340672604e+00 -1.8054310426138496e+00
v -5.9375879025996126e+00 2.7133444130656756e+00 -1.7988472228425203e+00
v -5.9375879025996179e+00 2.7130379570614531e+00 -1.7812903701189782e+00
v -5.9375879025996134e+00 2.7122718170508899e+00 -1.7373982383101241e+00
v -5.9375879025996072e+00 2.7120419750477209e+00 -1.7242305987674684e+00
v -5.9375879025996108e+00 2.7119653610466661e+00 -1.7198413855865839e+00
v -5.9375879025996126e+00 2.7118504400450814e+00 -1.7132575658152560e+00
v -5.8125879007369665e+00 2.7535107612973819e+00 -1.7125303822028655e+00
v -5.8125879007369639e+00 2.7536256822989675e+00 -1.7191142019741941e+00
v -5.8125879007369576e+00 2.7537022963000233e+00 -1.7235034151550777e+00
v -5.8125879007369683e+00 2.7539321383031936e+00 -1.7366710546977326e+00
v -5.8125879007369790e+00 2.7546982783137599e+00 -1.7805631865065856e+00
v -5.8125879007369656e+00 2.7550047343179780e+00 -1.7981200392301293e+00
v -5.8125879007369710e+00 2.7551196553195623e+00 -1.8047038590014592e+00
v -6.0365974972989020e+00 2.6803432062184931e+00 -1.7992493238127771e+00
v -6.0375879040897269e+00 2.6797097000596084e+00 -1.7818721170088903e+00
v -6.0375879040897305e+00 2.6789435600490483e+00 -1.7379799852000368e+00
v -6.0372939008851478e+00 2.6788125447910818e+00 -1.7248587934192401e+00
v -6.0365974972989038e+00 2.6789702245215454e+00 -1.7205912550749163e+00
v -6.0735075056765799e+00 2.6665556493181910e+00 -1.7143257421829676e+00
v -6.0742163662688897e+00 2.6664347888908870e+00 -1.7209405803627196e+00
v -6.0748290427930201e+00 2.6663033952866484e+00 -1.7251148995861614e+00
v -6.0750879046485231e+00 2.6664454636733566e+00 -1.7381981402837539e+00
v -6.0750879046485213e+00 2.6672116036839184e+00 -1.7820902720926075e+00
v -6.0742163662688888e+00 2.6678032155597950e+00 -1.7993376917189570e+00
v -6.0735075056765799e+00 2.6681548568854341e+00 -1.8059442823499336e+00
v -5.5885783041750310e+00 2.8296601920954028e+00 -1.7966429861294100e+00
v -5.5875878973842079e+00 2.8296868565679016e+00 -1.7792542560042892e+00
v -5.5878819005887852e+00 2.8285937290150627e+00 -1.7222443531235854e+00
v -5.5885783041750292e+00 2.8282872103984555e+00 -1.7179849173915489e+00
v -5.7125878992468513e+00 -6.4608637389216084e-01 -1.7652847452025104e+00
v -5.8125879007369683e+00 1.7878798690344777e-01 -1.7508865096772008e+00
v -5.9125879022270880e+00 1.0036623476990569e+00 -1.7364882741518914e+00
v -6.0125879037171988e+00 1.8285367084946640e+00 -1.7220900386265823e+00
v -6.0125879037171988e+00 1.8303754445200116e+00 -1.8274311549678317e+00
v -5.9125879022270880e+00 1.0055010837244032e+00 -1.8418293904931411e+00
v -5.8125879007369683e+00 1.8062672292879511e-01 -1.8562276260184509e+00
v -5.7125878992468513e+00 -6.4424763786681349e-01 -1.8706258615437599e+00
v -5.7125878992468504e+00 -6.4470732187315039e-01 -1.8442905824584475e+00
v -5.7125878992468504e+00 -6.4516700587948794e-01 -1.8179553033731346e+00
v -5.7125878992468504e+00 -6.4562668988582406e-01 -1.7916200242878229e+00
v -5.7381689252057999e+00 -4.3483989799441047e-01 -1.7750735313825403e+00
v -6.0870068792483618e+00 2.4426349027489604e+00 -1.7248470219062542e+00
v -5.7381689252057981e+00 -4.3347147132550246e-01 -1.8534706427387777e+00
v -6.0870068792483663e+00 2.4440033294178702e+00 -1.8032441332624920e+00
v -6.0865343055201580e+00 2.4386213728380381e+00 -1.7183043497782953e+00
v -6.0614321811703213e+00 2.2315582158008431e+00 -1.7217941591018306e+00
v -5.9959212368021806e+00 1.6911725693636475e+00 -1.7310735643187956e+00
v -5.9125879022270889e+00 1.0037772687006401e+00 -1.7430720939232196e+00
v -5.8292545676519891e+00 3.1638196803763335e-01 -1.7550706235276443e+00
v -5.7795807634391032e+00 -9.3363707542862620e-02 -1.7622682227400708e+00
v -5.7637436232838457e+00 -2.2399833663625576e-01 -1.7646560581595305e+00
v -5.7386414989340082e+00 -4.3105714898182201e-01 -1.7683947746997719e+00
v -6.0875879048347867e+00 2.4477287770987628e+00 -1.7420158542487980e+00
v -6.0625879044622568e+00 2.2415101868998617e+00 -1.7456154131301254e+00
v -5.9959212368021806e+00 1.6915939463694558e+00 -1.7552142368136647e+00
v -5.9125879022270835e+00 1.0041986457064487e+00 -1.7672127664180894e+00
v -5.8292545676519856e+00 3.1680334504344204e-01 -1.7792112960225133e+00
v -5.7792545669069266e+00 -9.5633835354362262e-02 -1.7864104137851682e+00
v -5.7625878999919076e+00 -2.3311289548696371e-01 -1.7888101197060533e+00
v -5.7375878996193794e+00 -4.3933148568586572e-01 -1.7924096785873807e+00
v -5.7377604741897121e+00 -4.3813630485304489e-01 -1.7793030961178355e+00
v -5.7627839021282945e+00 -2.3172512554151611e-01 -1.7756624174309190e+00
v -5.7793087793212745e+00 -9.5416243852075616e-02 -1.7732492456019315e+00
v -5.8292545676519865e+00 3.1657350304027310e-01 -1.7660436564798574e+00
v -5.9125879022270791e+00 1.0039688037032803e+00 -1.7540451268754285e+00
v -5.9959212368021770e+00 1.6913641043662877e+00 -1.7420465972710077e+00
v -6.0623919023258708e+00 2.2396644141541717e+00 -1.7325241525526132e+00
v -6.0874153302644514e+00 2.4460769112061360e+00 -1.7289589671646994e+00
v -6.0874153302644514e+00 2.4472997362765039e+00 -1.7990145685271959e+00
v -6.0623919023258699e+00 2.2408885569649750e+00 -1.8026552472141131e+00
v -5.9959212368021797e+00 1.6925899283831851e+00 -1.8122740081651763e+00
v -5.9125879022270853e+00 1.0051946277201786e+00 -1.8242725377696025e+00
v -5.8292545676519856e+00 3.1779932705717234e-01 -1.8362710673740237e+00
v -5.7793087793212754e+00 -9.4190918246766314e-02 -1.8434481025152882e+00
v -5.7627839021282936e+00 -2.3050098273071265e-01 -1.8457935120924192e+00
v -5.7377604741897112e+00 -4.3691347978267725e-01 -1.8493586974803327e+00
v -5.7386414989340091e+00 -4.2945794141457910e-01 -1.8600133148667379e+00
v -5.7637436232838422e+00 -2.2239478437738386e-01 -1.8565235055432017e+00
v -5.7795807634391023e+00 -9.1756400116057554e-02 -1.8543508035505629e+00
v -5.8292545676519865e+00 3.1799086205981236e-01 -1.8472441003262376e+00
v -5.9125879022270800e+00 1.0053861627228191e+00 -1.8352455707218134e+00
v -5.9959212368021788e+00 1.6927814633858265e+00 -1.8232470411173887e+00
v -6.0614321811703196e+00 2.2331617680597149e+00 -1.8136616064855018e+00
v -6.0865343055201580e+00 2.4402205804052812e+00 -1.8099228899452606e+00
v -6.0619276332683754e+00 2.2357603583477643e+00 -1.7283275120658066e+00
v -5.9959212368021779e+00 1.6912874903652313e+00 -1.7376573840901228e+00
v -5.9125879022270791e+00 1.0038921897022242e+00 -1.7496559136945460e+00
v -5.8292545676519856e+00 3.1649688903921736e-01 -1.7616544432989725e+00
v -5.7794374323206368e+00 -9.4430980478158968e-02 -1.7688788493779204e+00
v -5.7632481711857917e+00 -2.2796990862125269e-01 -1.7713320838413649e+00
v -6.0619276332683736e+00 2.2371333400447124e+00 -1.8069855808036677e+00
v -5.9959212368021788e+00 1.6926665423842411e+00 -1.8166632213460610e+00
v -5.9125879022270853e+00 1.0052712417212348e+00 -1.8286617509504857e+00
v -5.8292545676519865e+00 3.1787594105822820e-01 -1.8406602805549097e+00
v -5.7794374323206368e+00 -9.3053730440067609e-02 -1.8477814512161350e+00
v -5.7632481711857926e+00 -2.2659692692430503e-01 -1.8499901525792264e+00
v -3.2125878619939483e+00 -1.4616251886451942e-01 -1.7565585418538381e+00
v -3.8375878713071732e+00 -2.7114348262142973e-01 -1.7587400926910060e+00
v -4.4625878806203989e+00 -3.9612444637834010e-01 -1.7609216435281745e+00
v -5.0875878899336264e+00 -5.2110541013525047e-01 -1.7631031943653426e+00
v -5.0875878899336264e+00 -5.1926667410990324e-01 -1.8684443107065918e+00
v -4.4625878806203989e+00 -3.9428571035299276e-01 -1.8662627598694232e+00
v -3.8375878713071732e+00 -2.6930474659608233e-01 -1.8640812090322556e+00
v -3.2125878619939483e+00 -1.4432378283917199e-01 -1.8618996581950875e+00
v -3.2125878619939492e+00 -1.4478346684550886e-01 -1.8355643791097749e+00
v -3.2125878619939501e+00 -1.4524315085184572e-01 -1.8092291000244622e+00
v -3.2125878619939479e+00 -1.4570283485818253e-01 -1.7828938209391505e+00
v -3.3724692742373823e+00 -1.7789877649228908e-01 -1.7705886074239916e+00
v -5.5527064870034151e+00 -6.1387980690795141e-01 -1.7781986846173676e+00
v -3.3724692742373823e+00 -1.7653034982338126e-01 -1.8489857187802288e+00
v -5.5527064870034160e+00 -6.1251138023904372e-01 -1.8565957959736059e+00
v -5.5497529012021163e+00 -6.1340457016594385e-01 -1.7715776607760341e+00
v -5.3928646240156395e+00 -5.8203386604336693e-01 -1.7709055915719396e+00
v -4.9834212217147540e+00 -5.0016032850751457e-01 -1.7693234223304755e+00
v -4.4625878806203989e+00 -3.9600952537675599e-01 -1.7675054632995004e+00
v -3.9417545395260434e+00 -2.9185872224599724e-01 -1.7656875042685281e+00
v -3.6312932631955248e+00 -2.2977513063343408e-01 -1.7646492929870674e+00
v -3.5323111372251579e+00 -2.0997984294683711e-01 -1.7644113644419854e+00
v -3.3754228600386824e+00 -1.7860479413263178e-01 -1.7639882024545981e+00
v -5.5563378969185431e+00 -6.1430483494554022e-01 -1.7954638497594160e+00
v -5.4000878945902384e+00 -5.8305959400631269e-01 -1.7949184620501242e+00
v -4.9834212217147540e+00 -4.9973895150170566e-01 -1.7934640948253449e+00
v -4.4625878806203989e+00 -3.9558814837094708e-01 -1.7916461357943694e+00
v -3.9417545395260447e+00 -2.9143734524018849e-01 -1.7898281767633979e+00
v -3.6292545348694314e+00 -2.2894686336173325e-01 -1.7887374013448143e+00
v -3.5250878666505603e+00 -2.0811670273558158e-01 -1.7883738095386197e+00
v -3.3688378643222538e+00 -1.7687146179635396e-01 -1.7878284218293277e+00
v -3.3699164553868393e+00 -1.7731548968424560e-01 -1.7747504518544339e+00
v -3.5263128800029735e+00 -2.0859066949109176e-01 -1.7752586039984803e+00
v -3.6295933624591052e+00 -2.2924421135602543e-01 -1.7755852214639241e+00
v -3.9417545395260438e+00 -2.9166718724335683e-01 -1.7766605372207418e+00
v -4.4625878806203998e+00 -3.9581799037411552e-01 -1.7784784962517146e+00
v -4.9834212217147558e+00 -4.9996879350487422e-01 -1.7802964552826881e+00
v -5.3988628812378243e+00 -5.8304363005104443e-01 -1.7817947047376175e+00
v -5.5552593058539586e+00 -6.1431749211745490e-01 -1.7823783501806665e+00
v -5.5552593058539586e+00 -6.1309466704708726e-01 -1.8524339515431634e+00
v -5.3988628812378261e+00 -5.8181948724024091e-01 -1.8519257993991169e+00
v -4.9834212217147540e+00 -4.9874296948797570e-01 -1.8505238661768557e+00
v -4.4625878806203962e+00 -3.9459216635721733e-01 -1.8487059071458836e+00
v -3.9417545395260447e+00 -2.9044136322645869e-01 -1.8468879481149081e+00
v -3.6295933624591052e+00 -2.2801888575071610e-01 -1.8457840783772805e+00
v -3.5263128800029735e+00 -2.0736652668028824e-01 -1.8453896986599800e+00
v -3.3699164553868397e+00 -1.7609266461387793e-01 -1.8448060532169306e+00
v -3.3754228600386829e+00 -1.7700558656538887e-01 -1.8556067426215641e+00
v -3.5323111372251579e+00 -2.0837629068796554e-01 -1.8562788118256572e+00
v -3.6312932631955253e+00 -2.2816782320662912e-01 -1.8567318737975600e+00
v -3.9417545395260434e+00 -2.9024982822381817e-01 -1.8578609810671218e+00
v -4.4625878806203971e+00 -3.9440063135457676e-01 -1.8596789400980953e+00
v -4.9834212217147540e+00 -4.9855143448533557e-01 -1.8614968991290690e+00
v -5.3928646240156404e+00 -5.8043031378449550e-01 -1.8627730389556114e+00
v -5.5497529012021181e+00 -6.1180536259870122e-01 -1.8631962009430003e+00
v -5.3959611996284682e+00 -5.8253780156027790e-01 -1.7775210894340778e+00
v -4.9834212217147540e+00 -5.0004540750593029e-01 -1.7759072421018034e+00
v -4.4625878806203971e+00 -3.9589460437517165e-01 -1.7740892830708299e+00
v -3.9417545395260452e+00 -2.9174380124441307e-01 -1.7722713240398571e+00
v -3.6303974437051103e+00 -2.2948096532852372e-01 -1.7712361556320382e+00
v -3.5292145616123314e+00 -2.0924533686800253e-01 -1.7710052452256593e+00
v -5.3959611996284682e+00 -5.8116481986333024e-01 -1.8561791581719376e+00
v -4.9834212217147549e+00 -4.9866635548691951e-01 -1.8549130793577411e+00
v -4.4625878806203998e+00 -3.9451555235616098e-01 -1.8530951203267678e+00
v -3.9417545395260434e+00 -2.9036474922540245e-01 -1.8512771612957939e+00
v -3.6303974437051103e+00 -2.2810371529043236e-01 -1.8501387574702528e+00
v -3.5292145616123305e+00 -2.0787235517105493e-01 -1.8496633139635204e+00
v -4.9375878876984514e+00 2.1034948287598665e+00 -1.7172906267848129e+00
v -4.3625878791302863e+00 1.3536090462184061e+00 -1.7303799318078217e+00
v -3.7875878705621169e+00 6.0372326367694296e-01 -1.7434692368308298e+00
v -3.7875878705621169e+00 6.0556199970229030e-01 -1.8488103531720792e+00
v -4.3625878791302863e+00 1.3554477822437527e+00 -1.8357210481490704e+00
v -4.9375878876984514e+00 2.1053335647852145e+00 -1.8226317431260619e+00
v -5.3654969970026585e+00 2.6617872921436119e+00 -1.7210217027201973e+00
v -3.3596787612579075e+00 4.5901109649637319e-02 -1.7666821658804563e+00
v -5.3654969970026603e+00 2.6631557188125203e+00 -1.7994188140764344e+00
v -3.3596787612579089e+00 4.7269536318545038e-02 -1.8450792772366944e+00
v -3.3623960601951040e+00 4.9329482347520562e-02 -1.7600095948592711e+00
v -3.5067332752066611e+00 2.3756456881205226e-01 -1.7565994476764735e+00
v -3.6919769175831885e+00 4.7914733918924068e-01 -1.7522352312344875e+00
v -3.8834212053234758e+00 7.2881914843543694e-01 -1.7478715057649901e+00
v -4.3625878791302810e+00 1.3537239672199888e+00 -1.7369637515791512e+00
v -4.8417545529370889e+00 1.9786287860045404e+00 -1.7260559973933087e+00
v -5.1273789271611667e+00 2.3511263691914848e+00 -1.7195994897342894e+00
v -5.2184424830539058e+00 2.4698887073912332e+00 -1.7176340848967464e+00
v -5.3627796980654647e+00 2.6581281385473940e+00 -1.7144728449306557e+00
v -3.3563378641359907e+00 4.1845224778239161e-02 -1.7840107078642835e+00
v -3.5000878662780326e+00 2.2931667041360476e-01 -1.7807383816085318e+00
v -3.6917545358007549e+00 4.7927859792742528e-01 -1.7763752799341952e+00
v -3.8834212053234776e+00 7.2924052544124618e-01 -1.7720121782598577e+00
v -4.3625878791302855e+00 1.3541453442257978e+00 -1.7611044240740152e+00
v -4.8417545529370924e+00 1.9790501630103494e+00 -1.7501966698881786e+00
v -5.1292545572211754e+00 2.3539930542810810e+00 -1.7436520173766745e+00
v -5.2250878919825343e+00 2.4789740180379902e+00 -1.7414704665395060e+00
v -5.3688378941245771e+00 2.6664454636733561e+00 -1.7381981402837541e+00
v -5.3678455903451567e+00 2.6649230089955225e+00 -1.7251389943184987e+00
v -5.2239608796983141e+00 2.4772752245055338e+00 -1.7283766404302829e+00
v -5.1289428358386733e+00 2.3533569303021973e+00 -1.7305057508525914e+00
v -4.8417545529370898e+00 1.9788203210071809e+00 -1.7370290303455223e+00
v -4.3625878791302881e+00 1.3539155022226281e+00 -1.7479367845313609e+00
v -3.8834212053234780e+00 7.2901068343807673e-01 -1.7588445387172029e+00
v -3.6917907091816766e+00 4.7909596256597048e-01 -1.7632086019291562e+00
v -3.5012148785622510e+00 2.3055746114581860e-01 -1.7675932448651073e+00
v -3.3573301679154084e+00 4.2910994396266763e-02 -1.7709063842758954e+00
v -3.3573301679154088e+00 4.4133819466634423e-02 -1.8409619856383923e+00
v -3.5012148785622514e+00 2.3178160395662209e-01 -1.8377243395266074e+00
v -3.6917907091816762e+00 4.8032172426867975e-01 -1.8334324428457944e+00
v -3.8834212053234776e+00 7.3023650745497637e-01 -1.8290719496113685e+00
v -4.3625878791302872e+00 1.3551413262395284e+00 -1.8181641954255283e+00
v -4.8417545529370907e+00 1.9800461450240792e+00 -1.8072564412396883e+00
v -5.1289428358386733e+00 2.3545822559075056e+00 -1.8007046077659479e+00
v -5.2239608796983141e+00 2.4784993673163376e+00 -1.7985077350917840e+00
v -5.3678455903451585e+00 2.6661458340658908e+00 -1.7951945956809960e+00
v -5.3627796980654630e+00 2.6597273461146362e+00 -1.8060913850976208e+00
v -5.2184424830539058e+00 2.4714922596501041e+00 -1.8095015322804180e+00
v -5.1273789271611658e+00 2.3527336766182887e+00 -1.8116820705447811e+00
v -4.8417545529370889e+00 1.9802376800267190e+00 -1.8182294741919010e+00
v -4.3625878791302828e+00 1.3553328612421685e+00 -1.8291372283777416e+00
v -3.8834212053234771e+00 7.3042804245761650e-01 -1.8400449825635830e+00
v -3.6919769175831885e+00 4.8075603470907274e-01 -1.8443973358412320e+00
v -3.5067332752066607e+00 2.3916812107092389e-01 -1.8484668950601451e+00
v -3.3623960601951040e+00 5.0928689914763521e-02 -1.8516281350262365e+00
v -3.5038844256428607e+00 2.3396452930577896e-01 -1.7632689882347696e+00
v -3.6918766124910314e+00 4.7913146083874397e-01 -1.7588221049224793e+00
v -3.8834212053234771e+00 7.2893406943702066e-01 -1.7544553255363178e+00
v -4.3625878791302837e+00 1.3538388882215715e+00 -1.7435475713504762e+00
v -4.8417545529370898e+00 1.9787437070061247e+00 -1.7326398171646371e+00
v -5.1282030810923498e+00 2.3523162175491623e+00 -1.7261707181734192e+00
v -5.2212913326177057e+00 2.4737193174594299e+00 -1.7241739229842608e+00
v -3.5038844256428603e+00 2.3533751100272643e-01 -1.8419270569726303e+00
v -3.6918766124910314e+00 4.8051028745468460e-01 -1.8378150288451598e+00
v -3.8834212053234780e+00 7.3031312145603255e-01 -1.8334611627922537e+00
v -4.3625878791302872e+00 1.3552179402405846e+00 -1.8225534086064132e+00
v -4.8417545529370907e+00 1.9801227590251351e+00 -1.8116456544205735e+00
v -5.1282030810923489e+00 2.3536934675872532e+00 -1.8050733200116331e+00
v -5.2212913326177048e+00 2.4750922991563771e+00 -1.8028319917221221e+00
v -5.4576598406021191e+00 2.6353810795897838e+00 -1.8133797293401077e+00
v -3.6639727789451482e+00 -1.3994397454057107e-02 -1.8596247503111349e+00
v -5.9948440356489057e+00 2.4722482779970454e+00 -1.8162272229838314e+00
v -5.4338749075185602e+00 -3.7173722819646066e-01 -1.8658691746493481e+00
v -3.5171375088042760e+00 1.9764148870142922e-02 -1.8590354926931643e+00
v -3.6511854299061262e+00 2.0975012816290595e-01 -1.8557192750891578e+00
v -3.8012070915867122e+00 4.2232878843293803e-01 -1.8520087007717907e+00
v -3.9595930814585261e+00 6.4188459229414219e-01 -1.8481763399600266e+00
v -4.2776920445319027e+00 1.0820519240255102e+00 -1.8404931906053754e+00
v -4.9138899706786567e+00 1.9623865874882480e+00 -1.8251268918960726e+00
v -4.9860253884202264e+00 1.9444205739481919e+00 -1.8254404898289156e+00
v -5.0954913011348708e+00 2.2136067294083923e+00 -1.8207418280075800e+00
v -5.2722432795362977e+00 2.4563854590962126e+00 -1.8165041095176895e+00
v -5.4099536470317631e+00 2.6455445603213308e+00 -1.8132023251240417e+00
v -4.0508691244853123e+00 -9.7195544422503777e-02 -1.8610770317335721e+00
v -4.1599837094445782e+00 9.5743818377226508e-02 -1.8577092626286933e+00
v -4.2872840585637242e+00 3.2083974164357887e-01 -1.8537801986730016e+00
v -4.4145844076828684e+00 5.4593566490993151e-01 -1.8498511347173103e+00
v -4.6691851059211613e+00 9.9612751144263778e-01 -1.8419930068059283e+00
v -5.1783865023977436e+00 1.8965112045080430e+00 -1.8262767509831637e+00
v -5.3238726156767653e+00 2.1537636882410172e+00 -1.8217863921766595e+00
v -5.4693587289557870e+00 2.4110161719739907e+00 -1.8172960333701544e+00
v -5.5784733139150555e+00 2.6039555347737209e+00 -1.8139282642652765e+00
v -5.5185318325111590e+00 2.6219974468953193e+00 -1.8136133415177651e+00
v -5.3994766388445541e+00 2.4306074069938823e+00 -1.8169540670908579e+00
v -5.2408837335273422e+00 2.1756289763095285e+00 -1.8214047321537494e+00
v -5.0822059454089832e+00 1.9204658892281175e+00 -1.8258586204060394e+00
v -4.5268239926886960e+00 1.0273727523818639e+00 -1.8414476190966351e+00
v -4.2491330163285630e+00 5.8082618395873509e-01 -1.8492421184419345e+00
v -4.1103049828193807e+00 3.5756290183258377e-01 -1.8531391935275332e+00
v -3.9716970005207743e+00 1.3443988499395704e-01 -1.8570338202734313e+00
v -3.8527770006740361e+00 -5.6980677894715004e-02 -1.8603750786272490e+00
v -5.0430566392700573e+00 -2.9768584044921403e-01 -1.8645766028681958e+00
v -5.1026920568253624e+00 -9.6935167414676823e-02 -1.8610724868359956e+00
v -5.1722667106398790e+00 1.3727395112561752e-01 -1.8569843514650930e+00
v -5.2418413644543991e+00 3.7148306966591182e-01 -1.8528962160941915e+00
v -5.3809906720834455e+00 8.3990130674649743e-01 -1.8447199453523886e+00
v -5.6592892873415339e+00 1.7767377809076705e+00 -1.8283674038687827e+00
v -5.7388031774152690e+00 2.0444053449537205e+00 -1.8236952491591807e+00
v -5.8183170674890050e+00 2.3120729089997698e+00 -1.8190230944495795e+00
v -5.8779524850443092e+00 2.5128235820343070e+00 -1.8155189784173782e+00
v -5.4768652739635071e+00 -1.6782296450587042e-01 -1.8623098379368395e+00
v -5.5260397889490616e+00 6.4250264563462792e-02 -1.8582589846553335e+00
v -5.5727441471630179e+00 3.0170203156830250e-01 -1.8541142486449445e+00
v -5.6657128985483594e+00 7.7741082486804336e-01 -1.8458107207709737e+00
v -5.8516504013190431e+00 1.7288284114675216e+00 -1.8292036650230303e+00
v -5.9046986903535998e+00 2.0005020905373110e+00 -1.8244615833155791e+00
v -5.9556934229638641e+00 2.2674671051894335e+00 -1.8198016916512645e+00
v -6.0393603565538605e+00 2.4546428946566921e+00 -1.8165345260931234e+00
v -6.0076313846879268e+00 2.2485037523800826e+00 -1.8201326982058084e+00
v -5.9669234350821245e+00 1.9839532638517978e+00 -1.8247504441598610e+00
v -5.9237858190606119e+00 1.7108623979274660e+00 -1.8295172629558740e+00
v -5.7724837334726979e+00 7.5397689416362057e-01 -1.8462197615529421e+00
v -5.6968326906787468e+00 2.7553414228169898e-01 -1.8545710108514764e+00
v -5.6588605314081581e+00 3.6990712837425374e-02 -1.8587348019006256e+00
v -5.6192914685843771e+00 -1.9274160770289017e-01 -1.8627447944717666e+00
v -5.5839000503248366e+00 -3.9805387191185404e-01 -1.8663285333740938e+00
v -3.7902673228651431e+00 1.7702930291269170e-01 -1.8562904192184058e+00
v -3.9337962666466266e+00 3.9452899506942263e-01 -1.8524939479699420e+00
v -4.0836816249742567e+00 6.1571670300753956e-01 -1.8486331021665585e+00
v -4.3844628794562439e+00 1.0586179933210906e+00 -1.8409022313873431e+00
v -5.1578337953194078e+00 2.1973326096080075e+00 -1.8210258938253459e+00
v -5.3275255429222188e+00 2.4452242883400563e+00 -1.8166989284779134e+00
v -5.2722432795362995e+00 2.4545467230708655e+00 -1.7111629931764401e+00
v -6.0076313846879277e+00 2.2466650163547341e+00 -1.7147915818645589e+00
v -4.2776920445318991e+00 1.0802131880001611e+00 -1.7351520742641258e+00
v -5.7724837334727006e+00 7.5213815813827301e-01 -1.7408786452116938e+00
v -3.6511854299061257e+00 2.0791139213755838e-01 -1.7503781587479081e+00
v -5.6192914685843789e+00 -1.9458034372823776e-01 -1.7574036781305173e+00
v -6.0393603565538587e+00 2.4528041586313436e+00 -1.7111934097518740e+00
v -5.9948440356489039e+00 2.4704095419716960e+00 -1.7108861066425813e+00
v -5.8779524850443092e+00 2.5109848460089599e+00 -1.7101778620761292e+00
v -5.5784733139150546e+00 2.6021167987483738e+00 -1.7085871479240271e+00
v -5.4693587289557879e+00 2.4091774359486435e+00 -1.7119549170289057e+00
v -5.5185318325111572e+00 2.6201587108699709e+00 -1.7082722251765154e+00
v -5.4576598406021164e+00 2.6335423435644350e+00 -1.7080386129988583e+00
v -5.4099536470317622e+00 2.6437058242959837e+00 -1.7078612087827927e+00
v -5.9237858190606110e+00 1.7090236619021180e+00 -1.7241761466146241e+00
v -5.8516504013190440e+00 1.7269896754421741e+00 -1.7238625486817816e+00
v -5.6592892873415295e+00 1.7748990448823219e+00 -1.7230262875275337e+00
v -5.1783865023977436e+00 1.8946724684826950e+00 -1.7209356346419136e+00
v -5.0822059454089850e+00 1.9186271532027697e+00 -1.7205175040647906e+00
v -4.9860253884202264e+00 1.9425818379228441e+00 -1.7200993734876662e+00
v -4.9138899706786567e+00 1.9605478514629004e+00 -1.7197857755548234e+00
v -5.0954913011348717e+00 2.2117679933830456e+00 -1.7154007116663312e+00
v -5.1578337953194051e+00 2.1954938735826590e+00 -1.7156847774840960e+00
v -5.2408837335273439e+00 2.1737902402841813e+00 -1.7160636158124993e+00
v -5.3238726156767653e+00 2.1519249522156692e+00 -1.7164452758354094e+00
v -5.7388031774152646e+00 2.0425666089283712e+00 -1.7183541328179310e+00
v -5.9046986903536007e+00 1.9986633545119641e+00 -1.7191204669743307e+00
v -5.9669234350821272e+00 1.9821145278264500e+00 -1.7194093278186118e+00
v -5.6657128985483576e+00 7.7557208884269335e-01 -1.7404696044297214e+00
v -5.3809906720834446e+00 8.3806257072115509e-01 -1.7393788290111423e+00
v -4.6691851059211649e+00 9.9428877541728589e-01 -1.7366518904646795e+00
v -4.5268239926887048e+00 1.0255340163565150e+00 -1.7361065027553888e+00
v -4.3844628794562484e+00 1.0567792572957431e+00 -1.7355611150460959e+00
v -5.6588605314081581e+00 3.5151976812077913e-02 -1.7533936855593755e+00
v -5.5260397889490607e+00 6.2411528538115262e-02 -1.7529178683140838e+00
v -5.1722667106398825e+00 1.3543521510027001e-01 -1.7516432351238436e+00
v -4.2872840585637260e+00 3.1900100561823130e-01 -1.7484390823317533e+00
v -4.1103049828193807e+00 3.5572416580723604e-01 -1.7477980771862849e+00
v -3.9337962666466262e+00 3.9269025904407517e-01 -1.7471528316286931e+00
v -3.8012070915867127e+00 4.2049005240759046e-01 -1.7466675844305413e+00
v -3.9595930814585252e+00 6.4004585626879429e-01 -1.7428352236187772e+00
v -4.0836816249742567e+00 6.1387796698219155e-01 -1.7432919858253095e+00
v -4.2491330163285639e+00 5.7898744793338675e-01 -1.7439010021006864e+00
v -4.4145844076828711e+00 5.4409692888458283e-01 -1.7445100183760620e+00
v -5.2418413644544035e+00 3.6964433364056437e-01 -1.7475550997529423e+00
v -5.5727441471630179e+00 2.9986329554295443e-01 -1.7487731323036939e+00
v -5.6968326906787476e+00 2.7369540625635136e-01 -1.7492298945102271e+00
v -3.5171375088042769e+00 1.7925412844795551e-02 -1.7536943763519153e+00
v -3.6639727789451486e+00 -1.5833133479404609e-02 -1.7542836339698860e+00
v -3.8527770006740361e+00 -5.8819413920062444e-02 -1.7550339622860005e+00
v -4.0508691244853097e+00 -9.9034280447851147e-02 -1.7557359153923222e+00
v -5.0430566392700591e+00 -2.9952457647456154e-01 -1.7592354865269459e+00
v -5.1026920568253615e+00 -9.8773903440023958e-02 -1.7557313704947450e+00
v -5.4338749075185584e+00 -3.7357596422180805e-01 -1.7605280583080987e+00
v -5.5839000503248366e+00 -3.9989260793720144e-01 -1.7609874170328441e+00
v -5.9556934229638632e+00 2.2656283691640859e+00 -1.7144605753100155e+00
v -5.8183170674890059e+00 2.3102341729744222e+00 -1.7136819781083301e+00
v -5.3994766388445568e+00 2.4287686709685352e+00 -1.7116129507496094e+00
v -5.3275255429222179e+00 2.4433855523147088e+00 -1.7113578121366642e+00
v -5.4768652739635098e+00 -1.6966170053121779e-01 -1.7569687215955900e+00
v -4.1599837094445800e+00 9.3905082351879193e-02 -1.7523681462874443e+00
v -3.9716970005207739e+00 1.3260114896860953e-01 -1.7516927039321817e+00
v -3.7902673228651436e+00 1.7519056688734422e-01 -1.7509493028771563e+00

vn -3.1622776601683433e-01 9.4853880898916709e-01 1.6556806498072511e-02
vn -3.1622776601684993e-01 9.4853880898916088e-01 1.6556806498137535e-02
vn -3.1622776601685471e-01 9.4853880898916410e-01 1.6556806497850182e-02
vn -3.1622776601683072e-01 9.4853880898917509e-01 1.6556806497684401e-02
vn -3.1622776601687391e-01 9.4853880898916043e-01 1.6556806497693172e-02
vn -3.1622776601696140e-01 9.4853880898914156e-01 1.6556806497108705e-02
vn -3.1622776601693359e-01 9.4853880898913778e-01 1.6556806497864139e-02
vn -3.1622776601688557e-01 9.4853880898915555e-01 1.6556806497756042e-02
vn -3.1622776601688940e-01 9.4853880898915344e-01 1.6556806497810481e-02
vn -3.1622776601682873e-01 9.4853880898917364e-01 1.6556806497807885e-02
vn -3.1622776601688524e-01 9.4853880898915255e-01 1.6556806497928706e-02
vn -3.1622776601684638e-01 9.4853880898916820e-01 1.6556806497783568e-02
vn -3.1622776601684788e-01 9.4853880898916565e-01 1.6556806497906220e-02
vn -3.1622776601682584e-01 9.4853880898917442e-01 1.6556806497815241e-02
vn -3.1622776601679436e-01 9.4853880898918486e-01 1.6556806497821402e-02
vn -3.1622776601685210e-01 9.4853880898915133e-01 1.6556806498636910e-02
vn -3.1622776601682290e-01 9.4853880898918308e-01 1.6556806497375873e-02
vn -3.1622776601682873e-01 9.4853880898916720e-01 1.6556806498182301e-02
vn -3.1622776601687413e-01 9.4853880898916154e-01 1.6556806497633730e-02
vn -3.1622776601685471e-01 9.4853880898916532e-01 1.6556806497789234e-02
vn -3.1622776601693398e-01 9.4853880898913878e-01 1.6556806497794035e-02
vn -3.1622776601690505e-01 9.4853880898914733e-01 1.6556806497848631e-02
vn -3.1622776601677366e-01 9.4853880898919285e-01 1.6556806497756132e-02
vn -3.1622776601681934e-01 9.4853880898917664e-01 1.6556806497809908e-02
vn -3.1622776601696978e-01 9.4853880898912624e-01 1.6556806497834017e-02
vn -3.1622776601682440e-01 9.4853880898917209e-01 1.6556806497976626e-02
vn -3.1622776601683766e-01 9.4853880898917142e-01 1.6556806497762467e-02
vn -3.1622776601678854e-01 9.4853880898919374e-01 1.6556806497412844e-02
vn -3.1622776601682873e-01 9.4853880898917331e-01 1.6556806497822877e-02
vn -3.1622776601687996e-01 9.4853880898915699e-01 1.6556806497778010e-02
vn -3.1622776601690389e-01 9.4853880898914911e-01 1.6556806497770252e-02
vn -3.1622776601682728e-01 9.4853880898917420e-01 1.6556806497808382e-02
vn -3.1622776601688596e-01 9.4853880898915199e-01 1.6556806497953613e-02
vn -3.1622776601684199e-01 9.4853880898916665e-01 1.6556806497954685e-02
vn -3.1622776601694202e-01 9.4853880898915055e-01 1.6556806496963433e-02
vn -3.1622776601684122e-01 9.4853880898917597e-01 1.6556806497434892e-02
vn -3.1622776601680419e-01 9.4853880898917875e-01 1.6556806497975071e-02
vn -3.1622776601682939e-01 9.4853880898917609e-01 1.6556806497654886e-02
vn -3.1622776601683439e-01 9.4853880898915255e-01 1.6556806498900251e-02
vn -3.1622776601683950e-01 9.4853880898917076e-01 1.6556806497768400e-02
vn -3.1622776601684233e-01 9.4853880898916421e-01 1.6556806498081181e-02
vn -3.1622776601683417e-01 9.4853880898917975e-01 1.6556806497356455e-02
vn -3.1622776601681923e-01 9.4853880898916820e-01 1.6556806498308083e-02
vn -3.1622776601685443e-01 9.4853880898916432e-01 1.6556806497848509e-02
vn -3.1622776601681840e-01 9.4853880898917620e-01 1.6556806497860163e-02
vn -3.1622776601684055e-01 9.4853880898916998e-01 1.6556806497790802e-02
vn -3.1622776601675989e-01 9.4853880898919463e-01 1.6556806497918623e-02
vn -3.1622776601692937e-01 9.4853880898914034e-01 1.6556806497783530e-02
vn -3.1622776601682612e-01 9.4853880898917409e-01 1.6556806497835499e-02
vn -3.1622776601691222e-01 9.4853880898914589e-01 1.6556806497809360e-02
vn -3.1622776601685409e-01 9.4853880898916443e-01 1.6556806497849144e-02
vn -3.1622776601682739e-01 9.4853880898917553e-01 1.6556806497727273e-02
vn -3.1622776601679775e-01 9.4853880898918519e-01 1.6556806497733143e-02
vn -3.1622776601682090e-01 9.4853880898918153e-01 1.6556806497508958e-02
vn -3.1622776601684560e-01 9.4853880898917198e-01 1.6556806497571949e-02
vn -3.1622776601683944e-01 9.4853880898919674e-01 1.6556806496272974e-02
vn -3.1622776601686436e-01 9.4853880898916010e-01 1.6556806497904503e-02
vn -3.1622776601684011e-01 9.4853880898917875e-01 1.6556806497296656e-02
vn -3.1622776601684260e-01 9.4853880898916765e-01 1.6556806497881073e-02
vn -3.1622776601684782e-01 9.4853880898916831e-01 1.6556806497740415e-02
vn -3.1622776601682434e-01 9.4853880898917653e-01 1.6556806497722412e-02
vn -3.1622776601675917e-01 9.4853880898920351e-01 1.6556806497426423e-02
vn -3.1622776601679670e-01 9.4853880898917942e-01 1.6556806498096238e-02
vn -3.1622776601682223e-01 9.4853880898918286e-01 1.6556806497410519e-02
vn -3.1622776601683944e-01 9.4853880898919696e-01 1.6556806496261792e-02
vn -3.1622776601686187e-01 9.4853880898916665e-01 1.6556806497582340e-02
vn -3.1622776601682961e-01 9.4853880898917831e-01 1.6556806497519540e-02
vn -3.1622776601684049e-01 9.4853880898917442e-01 1.6556806497530982e-02
vn -3.1622776601683439e-01 9.4853880898919674e-01 1.6556806496366684e-02
vn -3.1622776601681946e-01 9.4853880898917819e-01 1.6556806497724119e-02
vn -3.1622776601684643e-01 9.4853880898917042e-01 1.6556806497648048e-02
vn -3.1622776601683938e-01 9.4853880898918630e-01 1.6556806496875090e-02
vn -9.9273378203370777e-01 -1.2031304046912653e-01 -2.1000719333230979e-03
vn -9.9273378203370788e-01 -1.2031304046913147e-01 -2.1000719329615689e-03
vn -9.9273378203370766e-01 -1.2031304046913022e-01 -2.1000719331012246e-03
vn -9.9273378203370977e-01 -1.2031304046911612e-01 -2.1000719329707833e-03
vn -9.9273378203370910e-01 -1.2031304046910941e-01 -2.1000719336628066e-03
vn -9.9273378203371188e-01 -1.2031304046908528e-01 -2.1000719337606476e-03
vn -9.9273378203370810e-01 -1.2031304046912226e-01 -2.1000719334170873e-03
vn -9.9273378203370899e-01 -1.2031304046911324e-01 -2.1000719334950718e-03
vn -9.9273378203370766e-01 -1.2031304046914067e-01 -2.1000719325587375e-03
vn -9.9273378203370832e-01 -1.2031304046913059e-01 -2.1000719328022870e-03
vn -9.9273378203370766e-01 -1.2031304046916808e-01 -2.1000719309376206e-03
vn -9.9273378203370899e-01 -1.2031304046910864e-01 -2.1000719337549789e-03
vn -9.9273378203370899e-01 -1.2031304046912887e-01 -2.1000719325955119e-03
vn -9.9273378203370777e-01 -1.2031304046913162e-01 -2.1000719329856816e-03
vn -9.9273378203370710e-01 -1.2031304046914656e-01 -2.1000719324226662e-03
vn -9.9273378203370788e-01 -1.2031304046912929e-01 -2.1000719331541887e-03
vn -9.9273378203370755e-01 -1.2031304046914282e-01 -2.1000719325304363e-03
vn -9.9273378203371176e-01 -1.2031304046907580e-01 -2.1000719343056235e-03
vn -9.9273378203370788e-01 -1.2031304046912286e-01 -2.1000719335028651e-03
vn -9.9273378203371065e-01 -1.2031304046911061e-01 -2.1000719329117455e-03
vn -9.9273378203370821e-01 -1.2031304046920073e-01 -2.1000719288826780e-03
vn -9.9273378203370866e-01 -1.2031304046911807e-01 -2.1000719334035600e-03
vn -9.9273378203372109e-01 -1.2031304046902110e-01 -2.1000719330992131e-03
vn -9.9273378203370921e-01 -1.2031304046911977e-01 -2.1000719330443360e-03
vn -9.9273378203370999e-01 -1.2031304046910973e-01 -2.1000719331881290e-03
vn -9.9273378203370843e-01 -1.2031304046912314e-01 -2.1000719332014070e-03
vn -9.9273378203370777e-01 -1.2031304046913086e-01 -2.1000719330815797e-03
vn -9.9273378203370866e-01 -1.2031304046912449e-01 -2.1000719330214897e-03
vn -9.9273378203370821e-01 -1.2031304046912766e-01 -2.1000719330553468e-03
vn -9.9273378203370888e-01 -1.2031304046911956e-01 -2.1000719331616896e-03
vn -9.9273378203371176e-01 -1.2031304046909307e-01 -2.1000719333463297e-03
vn -9.9273378203370766e-01 -1.2031304046912984e-01 -2.1000719331830549e-03
vn -9.9273378203370921e-01 -1.2031304046912136e-01 -2.1000719328969292e-03
vn -9.9273378203370988e-01 -1.2031304046911151e-01 -2.1000719332289757e-03
vn -9.9273378203370777e-01 -1.2031304046913045e-01 -2.1000719330770972e-03
vn -9.9273378203370921e-01 -1.2031304046911467e-01 -2.1000719333123729e-03
vn -9.9273378203370832e-01 -1.2031304046913387e-01 -2.1000719326705482e-03
vn -9.9273378203370788e-01 -1.2031304046913249e-01 -2.1000719329517287e-03
vn -9.9273378203370777e-01 -1.2031304046913985e-01 -2.1000719325211569e-03
vn -9.9273378203370788e-01 -1.2031304046913076e-01 -2.1000719329830882e-03
vn -9.9273378203370799e-01 -1.2031304046912678e-01 -2.1000719331837905e-03
vn -9.9273378203370877e-01 -1.2031304046912300e-01 -2.1000719330055710e-03
vn -9.9273378203370810e-01 -1.2031304046912768e-01 -2.1000719330772702e-03
vn -9.9273378203370199e-01 -1.2031304046917786e-01 -2.1000719330989065e-03
vn -9.9273378203370810e-01 -1.2031304046912643e-01 -2.1000719331236090e-03
vn -9.9273378203370843e-01 -1.2031304046912497e-01 -2.1000719330288623e-03
vn -9.9273378203370777e-01 -1.2031304046913689e-01 -2.1000719326993594e-03
vn -9.9273378203370755e-01 -1.2031304046913711e-01 -2.1000719328010025e-03
vn -9.9273378203370832e-01 -1.2031304046912863e-01 -2.1000719329334967e-03
vn -9.9273378203370755e-01 -1.2031304046913269e-01 -2.1000719330433494e-03
vn -9.9273378203370921e-01 -1.2031304046911011e-01 -2.1000719335312491e-03
vn -9.9273378203370832e-01 -1.2031304046913627e-01 -2.1000719325222515e-03
vn -9.9273378203370899e-01 -1.2031304046912741e-01 -2.1000719326392265e-03
vn -9.9273378203370821e-01 -1.2031304046907325e-01 -2.1000719361872295e-03
vn -9.9273378203370832e-01 -1.2031304046913192e-01 -2.1000719327627106e-03
vn -9.9273378203370777e-01 -1.2031304046912343e-01 -2.1000719334970008e-03
vn -9.9273378203370743e-01 -1.2031304046912777e-01 -2.1000719333914898e-03
vn -9.9273378203371077e-01 -1.2031304046908629e-01 -2.1000719341336444e-03
vn -9.9273378203370943e-01 -1.2031304046911960e-01 -2.1000719329131593e-03
vn -9.9273378203371021e-01 -1.2031304046911459e-01 -2.1000719328811302e-03
vn -9.9273378203370943e-01 -1.2031304046911738e-01 -2.1000719330068977e-03
vn -9.9273378203370843e-01 -1.2031304046912737e-01 -2.1000719329293950e-03
vn -9.9273378203371010e-01 -1.2031304046911193e-01 -2.1000719330524875e-03
vn -9.9273378203371188e-01 -1.2031304046909266e-01 -2.1000719332812065e-03
vn -9.9273378203370866e-01 -1.2031304046913725e-01 -2.1000719323147204e-03
vn -9.9273378203370721e-01 -1.2031304046913044e-01 -2.1000719333708084e-03
vn -9.9273378203370954e-01 -1.2031304046911036e-01 -2.1000719334024302e-03
vn -9.9273378203370777e-01 -1.2031304046913027e-01 -2.1000719331010129e-03
vn -9.9273378203370766e-01 -1.2031304046913160e-01 -2.1000719330552362e-03
vn -9.9273378203370843e-01 -1.2031304046912228e-01 -2.1000719332950036e-03
vn -9.9273378203370755e-01 -1.2031304046911535e-01 -2.1000719340409455e-03
vn -9.9273378203370866e-01 -1.2031304046912548e-01 -2.1000719329884515e-03
vn 1.9611613513818460e-01 -9.8043132850446346e-01 -1.7113492496686256e-02
vn 1.9611613513818679e-01 -9.8043132850446335e-01 -1.7113492496665935e-02
vn 1.9611613513818460e-01 -9.8043132850446302e-01 -1.7113492496712780e-02
vn 1.9611613513818435e-01 -9.8043132850446335e-01 -1.7113492496699145e-02
vn 1.9611613513818549e-01 -9.8043132850446424e-01 -1.7113492496631143e-02
vn 1.9611613513818343e-01 -9.8043132850446246e-01 -1.7113492496754885e-02
vn 1.9611613513818532e-01 -9.8043132850446435e-01 -1.7113492496630470e-02
vn 1.9611613513818354e-01 -9.8043132850446357e-01 -1.7113492496689673e-02
vn 1.9611613513818354e-01 -9.8043132850446468e-01 -1.7113492496623285e-02
vn 1.9611613513818457e-01 -9.8043132850446302e-01 -1.7113492496716006e-02
vn 1.9611613513818457e-01 -9.8043132850446690e-01 -1.7113492496485194e-02
vn 1.9611613513818407e-01 -9.8043132850446313e-01 -1.7113492496714507e-02
vn 1.9611613513818429e-01 -9.8043132850446280e-01 -1.7113492496726047e-02
vn 1.9611613513818357e-01 -9.8043132850446291e-01 -1.7113492496731223e-02
vn 1.9611613513818327e-01 -9.8043132850446180e-01 -1.7113492496798614e-02
vn 1.9611613513818379e-01 -9.8043132850446468e-01 -1.7113492496629704e-02
vn 1.9611613513818846e-01 -9.8043132850446313e-01 -1.7113492496657241e-02
vn 1.9611613513818466e-01 -9.8043132850446391e-01 -1.7113492496654406e-02
vn 1.9611613513818199e-01 -9.8043132850446346e-01 -1.7113492496714518e-02
vn 1.9611613513818732e-01 -9.8043132850446224e-01 -1.7113492496727646e-02
vn 1.9611613513818402e-01 -9.8043132850445736e-01 -1.7113492497036503e-02
vn 1.9611613513818438e-01 -9.8043132850446335e-01 -1.7113492496694617e-02
vn 1.9611613513820075e-01 -9.8043132850446024e-01 -1.7113492496688799e-02
vn 1.9611613513818260e-01 -9.8043132850446357e-01 -1.7113492496699748e-02
vn 1.9611613513818887e-01 -9.8043132850446280e-01 -1.7113492496676853e-02
vn 1.9611613513818382e-01 -9.8043132850446402e-01 -1.7113492496667340e-02
vn 1.9611613513818435e-01 -9.8043132850446280e-01 -1.7113492496733801e-02
vn 1.9611613513818363e-01 -9.8043132850446157e-01 -1.7113492496806371e-02
vn 1.9611613513818404e-01 -9.8043132850446346e-01 -1.7113492496694936e-02
vn 1.9611613513818396e-01 -9.8043132850446357e-01 -1.7113492496693018e-02
vn 1.9611613513818377e-01 -9.8043132850446357e-01 -1.7113492496696626e-02
vn 1.9611613513818635e-01 -9.8043132850446291e-01 -1.7113492496693018e-02
vn 1.9611613513818202e-01 -9.8043132850446346e-01 -1.7113492496720232e-02
vn 1.9611613513819054e-01 -9.8043132850446124e-01 -1.7113492496751630e-02
vn 1.9611613513818354e-01 -9.8043132850446368e-01 -1.7113492496685482e-02
vn 1.9611613513818274e-01 -9.8043132850446324e-01 -1.7113492496715982e-02
vn 1.9611613513818382e-01 -9.8043132850446446e-01 -1.7113492496634342e-02
vn 1.9611613513818382e-01 -9.8043132850446157e-01 -1.7113492496804189e-02
vn 1.9611613513818416e-01 -9.8043132850446668e-01 -1.7113492496506382e-02
vn 1.9611613513818549e-01 -9.8043132850446357e-01 -1.7113492496677360e-02
vn 1.9611613513818388e-01 -9.8043132850446302e-01 -1.7113492496725422e-02
vn 1.9611613513818338e-01 -9.8043132850446335e-01 -1.7113492496701823e-02
vn 1.9611613513818402e-01 -9.8043132850446313e-01 -1.7113492496711291e-02
vn 1.9611613513818349e-01 -9.8043132850446346e-01 -1.7113492496704349e-02
vn 1.9611613513818679e-01 -9.8043132850446268e-01 -1.7113492496707433e-02
vn 1.9611613513818682e-01 -9.8043132850446268e-01 -1.7113492496699918e-02
vn 1.9611613513818402e-01 -9.8043132850446313e-01 -1.7113492496712783e-02
vn 1.9611613513817960e-01 -9.8043132850446379e-01 -1.7113492496722133e-02
vn 1.9611613513818299e-01 -9.8043132850446335e-01 -1.7113492496708797e-02
vn 1.9611613513818296e-01 -9.8043132850446402e-01 -1.7113492496674307e-02
vn 1.9611613513818502e-01 -9.8043132850446157e-01 -1.7113492496789055e-02
vn 1.9611613513818324e-01 -9.8043132850446368e-01 -1.7113492496687966e-02
vn 1.9611613513818424e-01 -9.8043132850446346e-01 -1.7113492496684531e-02
vn 1.9611613513818399e-01 -9.8043132850446335e-01 -1.7113492496700466e-02
vn 1.9611613513818427e-01 -9.8043132850446435e-01 -1.7113492496644938e-02
vn 1.9611613513818463e-01 -9.8043132850446379e-01 -1.7113492496667913e-02
vn 1.9611613513818441e-01 -9.8043132850446368e-01 -1.7113492496674151e-02
vn 1.9611613513818479e-01 -9.8043132850446346e-01 -1.7113492496683591e-02
vn 1.9611613513818432e-01 -9.8043132850446357e-01 -1.7113492496685579e-02
vn 1.9611613513818721e-01 -9.8043132850446268e-01 -1.7113492496703651e-02
vn 1.9611613513818524e-01 -9.8043132850446313e-01 -1.7113492496702538e-02
vn 1.9611613513818305e-01 -9.8043132850446402e-01 -1.7113492496673984e-02
vn 1.9611613513818463e-01 -9.8043132850446324e-01 -1.7113492496707038e-02
vn 1.9611613513818713e-01 -9.8043132850446246e-01 -1.7113492496716027e-02
vn 1.9611613513818385e-01 -9.8043132850446102e-01 -1.7113492496833641e-02
vn 1.9611613513818230e-01 -9.8043132850446202e-01 -1.7113492496788309e-02
vn 1.9611613513818121e-01 -9.8043132850446391e-01 -1.7113492496702479e-02
vn 1.9611613513818463e-01 -9.8043132850446324e-01 -1.7113492496702114e-02
vn 1.9611613513818243e-01 -9.8043132850446424e-01 -1.7113492496671493e-02
vn 1.9611613513818460e-01 -9.8043132850446313e-01 -1.7113492496706417e-02
vn 1.9611613513818330e-01 -9.8043132850445769e-01 -1.7113492497033238e-02
vn 1.9611613513818388e-01 -9.8043132850446435e-01 -1.7113492496650264e-02
vn 7.9360636129191731e-01 6.0833887658603247e-01 1.0618594589051547e-02
vn 7.9360636129192286e-01 6.0833887658601737e-01 1.0618594589510524e-02
vn 7.9360636129191275e-01 6.0833887658603614e-01 1.0618594589174711e-02
vn 7.9360636129191242e-01 6.0833887658603625e-01 1.0618594589199726e-02
vn 7.9360636129190998e-01 6.0833887658603947e-01 1.0618594589205142e-02
vn 7.9360636129192086e-01 6.0833887658601937e-01 1.0618594589546618e-02
vn 7.9360636129191553e-01 6.0833887658602492e-01 1.0618594589627568e-02
vn 7.9360636129191542e-01 6.0833887658602948e-01 1.0618594589371351e-02
vn 7.9360636129191431e-01 6.0833887658603369e-01 1.0618594589214731e-02
vn 7.9360636129191631e-01 6.0833887658603736e-01 1.0618594588860601e-02
vn 7.9360636129191675e-01 6.0833887658599173e-01 1.0618594591440119e-02
vn 7.9360636129191620e-01 6.0833887658603480e-01 1.0618594589008844e-02
vn 7.9360636129191720e-01 6.0833887658601726e-01 1.0618594589949947e-02
vn 7.9360636129191564e-01 6.0833887658603281e-01 1.0618594589166041e-02
vn 7.9360636129191620e-01 6.0833887658602503e-01 1.0618594589567378e-02
vn 7.9360636129191608e-01 6.0833887658602792e-01 1.0618594589399533e-02
vn 7.9360636129191831e-01 6.0833887658602970e-01 1.0618594589146926e-02
vn 7.9360636129191819e-01 6.0833887658602448e-01 1.0618594589456666e-02
vn 7.9360636129191986e-01 6.0833887658603325e-01 1.0618594588818671e-02
vn 7.9360636129191731e-01 6.0833887658603092e-01 1.0618594589133971e-02
vn 7.9360636129191786e-01 6.0833887658602970e-01 1.0618594589173525e-02
vn 7.9360636129191553e-01 6.0833887658603436e-01 1.0618594589085843e-02
vn 7.9360636129191586e-01 6.0833887658600683e-01 1.0618594590630824e-02
vn 7.9360636129191464e-01 6.0833887658602370e-01 1.0618594589762363e-02
vn 7.9360636129193796e-01 6.0833887658600350e-01 1.0618594589167831e-02
vn 7.9360636129192319e-01 6.0833887658602459e-01 1.0618594589068523e-02
vn 7.9360636129192186e-01 6.0833887658602537e-01 1.0618594589121316e-02
vn 7.9360636129191664e-01 6.0833887658603059e-01 1.0618594589217174e-02
vn 7.9360636129191464e-01 6.0833887658603369e-01 1.0618594589188530e-02
vn 7.9360636129191287e-01 6.0833887658604024e-01 1.0618594588943406e-02
vn 7.9360636129191708e-01 6.0833887658604779e-01 1.0618594588202043e-02
vn 7.9360636129191886e-01 6.0833887658602992e-01 1.0618594589089500e-02
vn 7.9360636129191531e-01 6.0833887658603081e-01 1.0618594589301051e-02
vn 7.9360636129191775e-01 6.0833887658602870e-01 1.0618594589233882e-02
vn 7.9360636129191775e-01 6.0833887658602970e-01 1.0618594589196735e-02
vn 7.9360636129190776e-01 6.0833887658604746e-01 1.0618594588914204e-02
vn 7.9360636129191708e-01 6.0833887658602859e-01 1.0618594589298409e-02
vn 7.9360636129191853e-01 6.0833887658602814e-01 1.0618594589209426e-02
vn 7.9360636129191531e-01 6.0833887658603436e-01 1.0618594589117085e-02
vn 7.9360636129191675e-01 6.0833887658603192e-01 1.0618594589134585e-02
vn 7.9360636129191309e-01 6.0833887658603769e-01 1.0618594589066993e-02
vn 7.9360636129191520e-01 6.0833887658602392e-01 1.0618594589713445e-02
vn 7.9360636129191653e-01 6.0833887658603503e-01 1.0618594588972989e-02
vn 7.9360636129191608e-01 6.0833887658599095e-01 1.0618594591527102e-02
vn 7.9360636129191720e-01 6.0833887658603025e-01 1.0618594589189310e-02
vn 7.9360636129191653e-01 6.0833887658603558e-01 1.0618594588935007e-02
vn 7.9360636129191486e-01 6.0833887658603414e-01 1.0618594589140991e-02
vn 7.9360636129191564e-01 6.0833887658603525e-01 1.0618594589027084e-02
vn 7.9360636129191953e-01 6.0833887658602837e-01 1.0618594589124250e-02
vn 7.9360636129191320e-01 6.0833887658603469e-01 1.0618594589235910e-02
vn 7.9360636129192330e-01 6.0833887658602548e-01 1.0618594589010932e-02
vn 7.9360636129191786e-01 6.0833887658602981e-01 1.0618594589168830e-02
vn 7.9360636129191875e-01 6.0833887658603092e-01 1.0618594589038273e-02
vn 7.9360636129191808e-01 6.0833887658603014e-01 1.0618594589128659e-02
vn 7.9360636129191864e-01 6.0833887658602981e-01 1.0618594589108273e-02
vn 7.9360636129191431e-01 6.0833887658603636e-01 1.0618594589066468e-02
vn 7.9360636129191542e-01 6.0833887658603147e-01 1.0618594589261430e-02
vn 7.9360636129191586e-01 6.0833887658603414e-01 1.0618594589061909e-02
vn 7.9360636129191309e-01 6.0833887658604491e-01 1.0618594588655259e-02
vn 7.9360636129191642e-01 6.0833887658606012e-01 1.0618594587541833e-02
vn 7.9360636129191797e-01 6.0833887658602492e-01 1.0618594589434080e-02
vn 7.9360636129191287e-01 6.0833887658603292e-01 1.0618594589362946e-02
vn 7.9360636129191731e-01 6.0833887658602603e-01 1.0618594589421042e-02
vn 7.9360636129191686e-01 6.0833887658604169e-01 1.0618594588571386e-02
vn 7.9360636129191375e-01 6.0833887658604047e-01 1.0618594588870867e-02
vn 7.9360636129191320e-01 6.0833887658603802e-01 1.0618594589041973e-02
vn 7.9360636129191287e-01 6.0833887658603625e-01 1.0618594589173637e-02
vn 7.9360636129192208e-01 6.0833887658603036e-01 1.0618594588823312e-02
vn 7.9360636129191586e-01 6.0833887658603658e-01 1.0618594588930547e-02
vn 7.9360636129191653e-01 6.0833887658602903e-01 1.0618594589312890e-02
vn 7.9360636129191875e-01 6.0833887658602459e-01 1.0618594589403448e-02
vn 7.9360636129191842e-01 6.0833887658602948e-01 1.0618594589159733e-02
vn 7.9360636129192341e-01 6.0833887658602592e-01 1.0618594588975591e-02
vn 7.9360636129192008e-01 6.0833887658602714e-01 1.0618594589158245e-02
vn 7.9360636129190443e-01 6.0833887658604480e-01 1.0618594589321248e-02
vn 7.9360636129191409e-01 6.0833887658603558e-01 1.0618594589121467e-02
vn 7.9360636129191042e-01 6.0833887658603869e-01 1.0618594589216424e-02
vn 7.9360636129191775e-01 6.0833887658603181e-01 1.0618594589067540e-02
vn 7.9360636129191364e-01 6.0833887658603514e-01 1.0618594589173495e-02
vn 2.0668279605915057e-15 1.7452406437285205e-02 -9.9984769515639116e-01
vn -1.2627119262047425e-14 1.7452406437272711e-02 -9.9984769515639138e-01
vn -8.7511423717669885e-15 1.7452406437273301e-02 -9.9984769515639138e-01
vn -1.6611887049183033e-15 1.7452406437277811e-02 -9.9984769515639127e-01
vn -1.2682531072380547e-14 1.7452406437270900e-02 -9.9984769515639149e-01
vn 1.1753502970632491e-14 1.7452406437294402e-02 -9.9984769515639105e-01
vn -1.3543065613964796e-14 1.7452406437275258e-02 -9.9984769515639127e-01
vn 9.1747599399616409e-15 1.7452406437289708e-02 -9.9984769515639105e-01
vn -5.5958411803649227e-15 1.7452406437279931e-02 -9.9984769515639138e-01
vn 5.5020200099090599e-17 1.7452406437281898e-02 -9.9984769515639127e-01
vn 6.6279473058633491e-14 1.7452406437334398e-02 -9.9984769515639038e-01
vn -2.0192908005945759e-14 1.7452406437271650e-02 -9.9984769515639149e-01
vn -2.6813162698875987e-14 1.7452406437264024e-02 -9.9984769515639160e-01
vn -8.4891722726411894e-15 1.7452406437278110e-02 -9.9984769515639127e-01
vn 2.3933156920560464e-15 1.7452406437284469e-02 -9.9984769515639127e-01
vn -7.2052568801513071e-15 1.7452406437278738e-02 -9.9984769515639127e-01
vn -5.2827748522911617e-15 1.7452406437280230e-02 -9.9984769515639138e-01
vn -3.2991841182921660e-15 1.7452406437282672e-02 -9.9984769515639127e-01
vn 1.2884709114568327e-15 1.7452406437288674e-02 -9.9984769515639105e-01
vn 1.7112301647704169e-16 1.7452406437283879e-02 -9.9984769515639116e-01
vn -7.8576020654450863e-16 1.7452406437283692e-02 -9.9984769515639127e-01
vn -2.3107613978184940e-16 1.7452406437283151e-02 -9.9984769515639127e-01
vn 4.2472573942436369e-16 1.7452406437287741e-02 -9.9984769515639116e-01
vn 5.5701867707752575e-15 1.7452406437252193e-02 -9.9984769515639182e-01
vn 1.0790815231945647e-15 1.7452406437279761e-02 -9.9984769515639127e-01
vn 3.7474060204926884e-15 1.7452406437282617e-02 -9.9984769515639116e-01
vn 3.9440356816975522e-15 1.7452406437273461e-02 -9.9984769515639138e-01
vn -8.9615079860591289e-15 1.7452406437270401e-02 -9.9984769515639149e-01
vn 1.2317539042677026e-15 1.7452406437284528e-02 -9.9984769515639127e-01
vn -2.4096639402714733e-15 1.7452406437274914e-02 -9.9984769515639127e-01
vn 9.4736307476453716e-16 1.7452406437280323e-02 -9.9984769515639116e-01
vn -2.1533870653895283e-15 1.7452406437293150e-02 -9.9984769515639116e-01
vn -5.7422223580057370e-16 1.7452406437287283e-02 -9.9984769515639116e-01
vn -2.5001929920596604e-16 1.7452406437284095e-02 -9.9984769515639116e-01
vn 2.3074598053584898e-15 1.7452406437281940e-02 -9.9984769515639127e-01
vn 4.5083839763871797e-15 1.7452406437283279e-02 -9.9984769515639127e-01
vn 5.1558215612967713e-15 1.7452406437284039e-02 -9.9984769515639116e-01
vn 4.1470657089083841e-14 1.7452406437290777e-02 -9.9984769515639105e-01
vn -3.3208466807265339e-15 1.7452406437282329e-02 -9.9984769515639116e-01
vn -1.2668927797704499e-14 1.7452406437282866e-02 -9.9984769515639116e-01
vn 3.0417316244176230e-15 1.7452406437277128e-02 -9.9984769515639138e-01
vn 1.3816199580344327e-15 1.7452406437283696e-02 -9.9984769515639127e-01
vn 3.4061490331793442e-15 1.7452406437282495e-02 -9.9984769515639127e-01
vn -8.5131418163167964e-15 1.7452406437282526e-02 -9.9984769515639127e-01
vn -3.0806691229744176e-15 1.7452406437282939e-02 -9.9984769515639127e-01
vn 1.0108915760780479e-15 1.7452406437280944e-02 -9.9984769515639127e-01
vn -1.6558486449320921e-14 1.7452406437283217e-02 -9.9984769515639116e-01
vn 6.9631324493088801e-15 1.7452406437285357e-02 -9.9984769515639127e-01
vn -5.8111861871099548e-15 1.7452406437284445e-02 -9.9984769515639116e-01
vn -7.5328033081777278e-16 1.7452406437282460e-02 -9.9984769515639138e-01
vn 1.0531489835089979e-14 1.7452406437287210e-02 -9.9984769515639116e-01
vn -1.1410046943740203e-15 1.7452406437282256e-02 -9.9984769515639127e-01
vn 3.4694257788275038e-15 1.7452406437284469e-02 -9.9984769515639127e-01
vn 5.9797432212612535e-15 1.7452406437284251e-02 -9.9984769515639127e-01
vn 2.6910901812071327e-14 1.7452406437283310e-02 -9.9984769515639116e-01
vn -2.0752813844556219e-14 1.7452406437281281e-02 -9.9984769515639138e-01
vn -7.1107217519340726e-15 1.7452406437281694e-02 -9.9984769515639127e-01
vn 2.7362977780078630e-14 1.7452406437291894e-02 -9.9984769515639116e-01
vn -1.3357934092007771e-14 1.7452406437288296e-02 -9.9984769515639116e-01
vn 5.9983990099958506e-15 1.7452406437282728e-02 -9.9984769515639116e-01
vn 4.4430851549559487e-15 1.7452406437284244e-02 -9.9984769515639116e-01
vn -1.0706296423108022e-15 1.7452406437283168e-02 -9.9984769515639127e-01
vn 4.5096637576127145e-15 1.7452406437285996e-02 -9.9984769515639116e-01
vn -2.6323276755651849e-15 1.7452406437279782e-02 -9.9984769515639127e-01
vn 3.4465285067591922e-16 1.7452406437283519e-02 -9.9984769515639127e-01
vn 1.2471336369029435e-14 1.7452406437292654e-02 -9.9984769515639105e-01
vn 5.8465533904482845e-16 1.7452406437285947e-02 -9.9984769515639116e-01
vn -1.6349898012450337e-15 1.7452406437284615e-02 -9.9984769515639127e-01
vn 9.7942613723907010e-15 1.7452406437280830e-02 -9.9984769515639127e-01
vn 7.1477029981827760e-17 1.7452406437287720e-02 -9.9984769515639116e-01
vn 2.5202426643360012e-15 1.7452406437275404e-02 -9.9984769515639149e-01
vn -3.9025856788368214e-16 1.7452406437286558e-02 -9.9984769515639138e-01
vn -4.1289650028787797e-15 1.7452406437282016e-02 -9.9984769515639127e-01
vn 2.7862854911322575e-16 1.7452406437282634e-02 -9.9984769515639127e-01
vn 7.0135450593327135e-15 1.7452406437285722e-02 -9.9984769515639105e-01
vn -2.3289339325893024e-15 1.7452406437282967e-02 -9.9984769515639116e-01
vn 3.3148131315501201e-15 1.7452406437292244e-02 -9.9984769515639116e-01
vn 4.8078085048910226e-15 1.7452406437287109e-02 -9.9984769515639116e-01
vn -1.0685880089279120e-15 1.7452406437286176e-02 -9.9984769515639127e-01
vn -1.4261624387197007e-14 -1.7452406437285111e-02 9.9984769515639116e-01
vn -8.4627767775233440e-15 -1.7452406437286655e-02 9.9984769515639127e-01
vn -4.4519450711559102e-15 -1.7452406437286974e-02 9.9984769515639116e-01
vn -1.9520424465864447e-15 -1.7452406437287116e-02 9.9984769515639127e-01
vn 5.6628667603705424e-15 -1.7452406437270650e-02 9.9984769515639138e-01
vn -4.8059953295414222e-15 -1.7452406437291141e-02 9.9984769515639105e-01
vn -2.3589621289058105e-15 -1.7452406437285139e-02 9.9984769515639116e-01
vn -1.2712213914961117e-15 -1.7452406437280920e-02 9.9984769515639138e-01
vn -2.6690703316788078e-15 -1.7452406437286072e-02 9.9984769515639116e-01
vn 1.0528308920239732e-15 -1.7452406437276531e-02 9.9984769515639138e-01
vn -4.4315758588731730e-15 -1.7452406437274651e-02 9.9984769515639149e-01
vn -7.3971917181866292e-15 -1.7452406437281458e-02 9.9984769515639127e-01
vn 3.8336454643672487e-15 -1.7452406437278037e-02 9.9984769515639127e-01
vn -6.4014771708846236e-15 -1.7452406437281985e-02 9.9984769515639116e-01
vn 8.6152449113789334e-15 -1.7452406437272184e-02 9.9984769515639149e-01
vn -5.9797432212612535e-15 -1.7452406437284251e-02 9.9984769515639127e-01
vn -3.6852497625809743e-15 -1.7452406437285673e-02 9.9984769515639116e-01
vn -2.1013328669826747e-16 -1.7452406437281982e-02 9.9984769515639116e-01
vn 1.0892237897164055e-14 -1.7452406437281836e-02 9.9984769515639116e-01
vn -7.5465833163374638e-15 -1.7452406437278259e-02 9.9984769515639138e-01
vn -9.8916322518797646e-15 -1.7452406437287144e-02 9.9984769515639127e-01
vn 4.4761142783023186e-15 -1.7452406437282447e-02 9.9984769515639127e-01
vn 5.0734926345389824e-15 -1.7452406437280878e-02 9.9984769515639127e-01
vn -3.0737379674111310e-15 -1.7452406437287543e-02 9.9984769515639127e-01
vn 4.0122074052986014e-15 -1.7452406437279407e-02 9.9984769515639127e-01
vn -9.1541027792846772e-15 -1.7452406437288532e-02 9.9984769515639105e-01
vn 6.5610948072121224e-15 -1.7452406437278009e-02 9.9984769515639138e-01
vn 1.0476341829479750e-14 -1.7452406437274987e-02 9.9984769515639138e-01
vn 6.3782996074392064e-15 -1.7452406437276899e-02 9.9984769515639138e-01
vn 7.4574044349182819e-15 -1.7452406437276857e-02 9.9984769515639138e-01
vn 1.1338109348628135e-14 -1.7452406437276871e-02 9.9984769515639138e-01
vn -1.2321549963889235e-15 -1.7452406437284535e-02 9.9984769515639127e-01
vn -9.3661543796013588e-15 -1.7452406437295044e-02 9.9984769515639105e-01
vn 3.1302751706414091e-15 -1.7452406437282512e-02 9.9984769515639127e-01
vn 7.9705635592343435e-15 -1.7452406437277638e-02 9.9984769515639127e-01
vn -4.6752285326823538e-16 -1.7452406437276784e-02 9.9984769515639138e-01
vn -2.6566611950303158e-16 -1.7452406437282398e-02 9.9984769515639116e-01
vn 9.9438502774975174e-17 -1.7452406437283272e-02 9.9984769515639116e-01
vn 3.6019122318303827e-15 -1.7452406437281725e-02 9.9984769515639127e-01
vn -2.0649676703027582e-15 -1.7452406437280518e-02 9.9984769515639138e-01
vn -7.9052941450208062e-16 -1.7452406437277919e-02 9.9984769515639138e-01
vn -8.3678581281568839e-15 -1.7452406437286808e-02 9.9984769515639116e-01
vn -1.0872910351600186e-14 -1.7452406437283956e-02 9.9984769515639127e-01
vn 7.0968178999992483e-14 -1.7452406437275012e-02 9.9984769515639138e-01
vn 1.4493892404611251e-14 -1.7452406437283616e-02 9.9984769515639127e-01
vn 3.6987547948073895e-14 -1.7452406437277902e-02 9.9984769515639138e-01
vn 1.2656617487124407e-16 -1.7452406437286246e-02 9.9984769515639116e-01
vn -6.1580887020390779e-14 -1.7452406437291627e-02 9.9984769515639105e-01
vn 1.8990443253649795e-14 -1.7452406437279560e-02 9.9984769515639138e-01
vn -9.2174998624343755e-15 -1.7452406437282544e-02 9.9984769515639116e-01
vn 4.3771264876645284e-15 -1.7452406437282721e-02 9.9984769515639127e-01
vn -5.1965219242596871e-15 -1.7452406437284733e-02 9.9984769515639127e-01
vn -1.6988947757016137e-15 -1.7452406437284313e-02 9.9984769515639116e-01
vn -1.5291592141460377e-15 -1.7452406437278817e-02 9.9984769515639138e-01
vn -4.1005487054824210e-15 -1.7452406437278353e-02 9.9984769515639138e-01
vn -4.8470810065499110e-15 -1.7452406437266442e-02 9.9984769515639160e-01
vn 3.6735319572946447e-18 -1.7452406437279473e-02 9.9984769515639138e-01
vn -5.4555622942223411e-15 -1.7452406437279546e-02 9.9984769515639127e-01
vn -7.3987493740804024e-16 -1.7452406437286905e-02 9.9984769515639127e-01
vn 2.6957346350528744e-16 -1.7452406437278765e-02 9.9984769515639127e-01
vn -5.0464865635140072e-15 -1.7452406437290801e-02 9.9984769515639116e-01
vn -1.8884279881500996e-15 -1.7452406437281253e-02 9.9984769515639138e-01
vn 4.5314647952047889e-16 -1.7452406437276399e-02 9.9984769515639149e-01
vn -1.9878411179557417e-15 -1.7452406437282044e-02 9.9984769515639127e-01
vn -1.9945576177659750e-15 -1.7452406437287991e-02 9.9984769515639127e-01
vn 1.6444307071317026e-15 -1.7452406437282998e-02 9.9984769515639127e-01
vn 5.1284212133171259e-14 -1.7452406437243422e-02 9.9984769515639182e-01
vn 1.3853663152642219e-14 -1.7452406437274574e-02 9.9984769515639149e-01
vn -4.9371023614798919e-16 -1.7452406437283508e-02 9.9984769515639127e-01
vn 1.2519122894090501e-14 -1.7452406437274189e-02 9.9984769515639138e-01
vn -8.8649650972890135e-15 -1.7452406437293972e-02 9.9984769515639105e-01
vn 2.1557911437503942e-14 -1.7452406437267875e-02 9.9984769515639149e-01
vn 1.6885101163549389e-15 -1.7452406437289070e-02 9.9984769515639116e-01
vn 1.3698341654199819e-14 -1.7452406437276691e-02 9.9984769515639138e-01
vn -9.8115153963950624e-16 -1.7452406437282235e-02 9.9984769515639127e-01
vn -3.4438893515861860e-15 -1.7452406437286030e-02 9.9984769515639127e-01
vn 1.9918983210979321e-14 -1.7452406437269981e-02 9.9984769515639149e-01
vn -1.7253673958013233e-15 -1.7452406437286044e-02 9.9984769515639105e-01
vn 1.1768149772970669e-15 -1.7452406437284081e-02 9.9984769515639116e-01

g face 0
f 2//1 27//2 1//3
f 1//3 27//2 28//4
f 1//3 28//4 17//5
f 17//5 28//4 27//2
f 17//5 27//2 72//6
f 72//6 27//2 26//7
f 72//6 26//7 71//8
f 71//8 26//7 24//9
f 71//8 24//9 25//10
f 25//10 24//9 3//11
f 25//10 3//11 39//12
f 39//12 3//11 40//13
f 39//12 40//13 32//14
f 32//14 40//13 31//15
f 32//14 31//15 53//16
f 53//16 31//15 54//17
f 53//16 54//17 46//18
f 46//18 54//17 45//19
f 46//18 45//19 59//20
f 59//20 45//19 58//21
f 59//20 58//21 11//22
f 11//22 58//21 66//23
f 11//22 66//23 10//24
f 10//24 66//23 67//25
f 10//24 67//25 9//26
f 9//26 67//25 68//27
f 9//26 68//27 20//28
f 20//28 68//27 67//25
f 20//28 67//25 57//29
f 57//29 67//25 66//23
f 57//29 66//23 58//21
f 3//11 24//9 2//1
f 2//1 24//9 26//7
f 2//1 26//7 27//2
f 4//30 23//31 3//11
f 3//11 23//31 70//32
f 3//11 70//32 40//13
f 40//13 70//32 69//33
f 40//13 69//33 41//34
f 41//34 69//33 18//35
f 41//34 18//35 42//36
f 42//36 18//35 6//37
f 42//36 6//37 29//38
f 29//38 6//37 7//39
f 29//38 7//39 56//40
f 56//40 7//39 43//41
f 56//40 43//41 44//42
f 44//42 43//41 57//29
f 44//42 57//29 58//21
f 23//31 4//30 22//43
f 22//43 4//30 5//44
f 22//43 5//44 21//45
f 21//45 5//44 18//35
f 21//45 18//35 69//33
f 5//44 6//37 18//35
f 7//39 8//46 43//41
f 43//41 8//46 20//28
f 43//41 20//28 57//29
f 8//46 9//26 20//28
f 59//20 11//22 65//47
f 65//47 11//22 12//48
f 65//47 12//48 64//49
f 64//49 12//48 63//50
f 64//49 63//50 60//51
f 60//51 63//50 61//52
f 60//51 61//52 47//53
f 47//53 61//52 48//54
f 47//53 48//54 52//55
f 52//55 48//54 51//56
f 52//55 51//56 33//57
f 33//57 51//56 34//58
f 33//57 34//58 38//59
f 38//59 34//58 37//60
f 38//59 37//60 71//8
f 71//8 37//60 72//6
f 12//48 13//61 63//50
f 63//50 13//61 62//62
f 63//50 62//62 61//52
f 61//52 62//62 19//63
f 61//52 19//63 48//54
f 48//54 19//63 49//64
f 48//54 49//64 51//56
f 51//56 49//64 50//65
f 51//56 50//65 34//58
f 34//58 50//65 35//66
f 34//58 35//66 37//60
f 37//60 35//66 36//67
f 37//60 36//67 72//6
f 72//6 36//67 17//5
f 62//62 13//61 19//63
f 19//63 13//61 14//68
f 19//63 14//68 49//64
f 49//64 14//68 15//69
f 49//64 15//69 50//65
f 50//65 15//69 35//66
f 15//69 16//70 35//66
f 35//66 16//70 36//67
f 36//67 16//70 17//5
f 17//5 16//70 1//3
f 70//32 23//31 22//43
f 70//32 22//43 69//33
f 69//33 22//43 21//45
f 41//34 42//36 30//71
f 30//71 42//36 29//38
f 30//71 29//38 55//72
f 55//72 29//38 56//40
f 55//72 56//40 44//42
f 40//13 41//34 31//15
f 31//15 41//34 30//71
f 31//15 30//71 54//17
f 54//17 30//71 55//72
f 54//17 55//72 45//19
f 45//19 55//72 44//42
f 45//19 44//42 58//21
f 32//14 33//57 39//12
f 39//12 33//57 38//59
f 39//12 38//59 25//10
f 25//10 38//59 71//8
f 33//57 32//14 52//55
f 52//55 32//14 53//16
f 52//55 53//16 47//53
f 47//53 53//16 46//18
f 47//53 46//18 60//51
f 60//51 46//18 59//20
f 60//51 59//20 64//49
f 64//49 59//20 65//47

g face 1
f 74//73 94//74 73//75
f 73//75 94//74 95//76
f 73//75 95//76 84//77
f 84//77 95//76 94//74
f 84//77 94//74 133//78
f 133//78 94//74 93//79
f 133//78 93//79 132//80
f 132//80 93//79 92//81
f 132//80 92//81 131//82
f 131//82 92//81 91//83
f 131//82 91//83 130//84
f 130//84 91//83 90//85
f 130//84 90//85 129//86
f 129//86 90//85 89//87
f 129//86 89//87 128//88
f 128//88 89//87 88//89
f 128//88 88//89 85//90
f 85//90 88//89 13//91
f 85//90 13//91 12//92
f 75//93 92//81 74//73
f 74//73 92//81 93//79
f 74//73 93//79 94//74
f 76//94 90//85 75//93
f 75//93 90//85 91//83
f 75//93 91//83 92//81
f 90//85 76//94 89//87
f 89//87 76//94 13//91
f 89//87 13//91 88//89
f 11//95 96//96 12//92
f 12//92 96//96 111//97
f 12//92 111//97 85//90
f 85//90 111//97 110//98
f 85//90 110//98 128//88
f 128//88 110//98 109//99
f 128//88 109//99 129//86
f 129//86 109//99 108//100
f 129//86 108//100 130//84
f 130//84 108//100 107//101
f 130//84 107//101 131//82
f 131//82 107//101 106//102
f 131//82 106//102 132//80
f 132//80 106//102 105//103
f 132//80 105//103 133//78
f 133//78 105//103 104//104
f 133//78 104//104 84//77
f 84//77 104//104 83//105
f 84//77 83//105 73//75
f 10//106 113//107 11//95
f 11//95 113//107 114//108
f 11//95 114//108 98//109
f 98//109 114//108 115//110
f 98//109 115//110 99//111
f 99//111 115//110 116//112
f 99//111 116//112 100//113
f 100//113 116//112 117//114
f 100//113 117//114 101//115
f 101//115 117//114 82//116
f 101//115 82//116 102//117
f 102//117 82//116 103//118
f 102//117 103//118 105//103
f 105//103 103//118 104//104
f 9//119 87//120 10//106
f 10//106 87//120 112//121
f 10//106 112//121 113//107
f 113//107 112//121 134//122
f 113//107 134//122 135//123
f 135//123 134//122 125//124
f 135//123 125//124 124//125
f 124//125 125//124 78//126
f 124//125 78//126 123//127
f 123//127 78//126 79//128
f 123//127 79//128 122//129
f 122//129 79//128 121//130
f 122//129 121//130 138//131
f 138//131 121//130 139//132
f 138//131 139//132 117//114
f 117//114 139//132 118//133
f 117//114 118//133 82//116
f 82//116 118//133 81//134
f 81//134 118//133 119//135
f 81//134 119//135 86//136
f 86//136 119//135 118//133
f 86//136 118//133 139//132
f 77//137 126//138 9//119
f 9//119 126//138 127//139
f 9//119 127//139 87//120
f 87//120 127//139 126//138
f 87//120 126//138 134//122
f 134//122 126//138 125//124
f 126//138 77//137 125//124
f 125//124 77//137 78//126
f 79//128 80//140 121//130
f 121//130 80//140 120//141
f 121//130 120//141 139//132
f 139//132 120//141 86//136
f 120//141 80//140 86//136
f 86//136 80//140 81//134
f 82//116 83//105 103//118
f 103//118 83//105 104//104
f 110//98 111//97 97//142
f 97//142 111//97 96//96
f 97//142 96//96 11//95
f 109//99 110//98 98//109
f 98//109 110//98 97//142
f 98//109 97//142 11//95
f 108//100 109//99 99//111
f 99//111 109//99 98//109
f 107//101 108//100 100//113
f 100//113 108//100 99//111
f 106//102 107//101 101//115
f 101//115 107//101 100//113
f 105//103 106//102 102//117
f 102//117 106//102 101//115
f 87//120 134//122 112//121
f 113//107 135//123 114//108
f 114//108 135//123 136//143
f 114//108 136//143 115//110
f 115//110 136//143 137//144
f 115//110 137//144 116//112
f 116//112 137//144 138//131
f 116//112 138//131 117//114
f 138//131 137//144 122//129
f 122//129 137//144 123//127
f 137//144 136//143 123//127
f 123//127 136//143 124//125
f 136//143 135//123 124//125

g face 2
f 141//145 161//146 140//147
f 140//147 161//146 162//148
f 140//147 162//148 151//149
f 151//149 162//148 161//146
f 151//149 161//146 200//150
f 200//150 161//146 160//151
f 200//150 160//151 199//152
f 199//152 160//151 159//153
f 199//152 159//153 198//154
f 198//154 159//153 158//155
f 198//154 158//155 197//156
f 197//156 158//155 157//157
f 197//156 157//157 196//158
f 196//158 157//157 156//159
f 196//158 156//159 195//160
f 195//160 156//159 155//161
f 195//160 155//161 152//162
f 152//162 155//161 73//163
f 152//162 73//163 83//164
f 142//165 159//153 141//145
f 141//145 159//153 160//151
f 141//145 160//151 161//146
f 143//166 157//157 142//165
f 142//165 157//157 158//155
f 142//165 158//155 159//153
f 157//157 143//166 156//159
f 156//159 143//166 73//163
f 156//159 73//163 155//161
f 82//167 163//168 83//164
f 83//164 163//168 178//169
f 83//164 178//169 152//162
f 152//162 178//169 177//170
f 152//162 177//170 195//160
f 195//160 177//170 176//171
f 195//160 176//171 196//158
f 196//158 176//171 175//172
f 196//158 175//172 197//156
f 197//156 175//172 174//173
f 197//156 174//173 198//154
f 198//154 174//173 173//174
f 198//154 173//174 199//152
f 199//152 173//174 172//175
f 199//152 172//175 200//150
f 200//150 172//175 171//176
f 200//150 171//176 151//149
f 151//149 171//176 150//177
f 151//149 150//177 140//147
f 81//178 180//179 82//167
f 82//167 180//179 181//180
f 82//167 181//180 165//181
f 165//181 181//180 182//182
f 165//181 182//182 166//183
f 166//183 182//182 183//184
f 166//183 183//184 167//185
f 167//185 183//184 184//186
f 167//185 184//186 168//187
f 168//187 184//186 149//188
f 168//187 149//188 169//189
f 169//189 149//188 170//190
f 169//189 170//190 172//175
f 172//175 170//190 171//176
f 80//191 154//192 81//178
f 81//178 154//192 179//193
f 81//178 179//193 180//179
f 180//179 179//193 201//194
f 180//179 201//194 202//195
f 202//195 201//194 192//196
f 202//195 192//196 191//197
f 191//197 192//196 145//198
f 191//197 145//198 190//199
f 190//199 145//198 146//200
f 190//199 146//200 189//201
f 189//201 146//200 188//202
f 189//201 188//202 205//203
f 205//203 188//202 206//204
f 205//203 206//204 184//186
f 184//186 206//204 185//205
f 184//186 185//205 149//188
f 149//188 185//205 148//206
f 148//206 185//205 186//207
f 148//206 186//207 153//208
f 153//208 186//207 185//205
f 153//208 185//205 206//204
f 144//209 193//210 80//191
f 80//191 193//210 194//211
f 80//191 194//211 154//192
f 154//192 194//211 193//210
f 154//192 193//210 201//194
f 201//194 193//210 192//196
f 193//210 144//209 192//196
f 192//196 144//209 145//198
f 146//200 147//212 188//202
f 188//202 147//212 187//213
f 188//202 187//213 206//204
f 206//204 187//213 153//208
f 187//213 147//212 153//208
f 153//208 147//212 148//206
f 149//188 150//177 170//190
f 170//190 150//177 171//176
f 177//170 178//169 164//214
f 164//214 178//169 163//168
f 164//214 163//168 82//167
f 176//171 177//170 165//181
f 165//181 177//170 164//214
f 165//181 164//214 82//167
f 175//172 176//171 166//183
f 166//183 176//171 165//181
f 174//173 175//172 167//185
f 167//185 175//172 166//183
f 173//174 174//173 168//187
f 168//187 174//173 167//185
f 172//175 173//174 169//189
f 169//189 173//174 168//187
f 154//192 201//194 179//193
f 180//179 202//195 181//180
f 181//180 202//195 203//215
f 181//180 203//215 182//182
f 182//182 203//215 204//216
f 182//182 204//216 183//184
f 183//184 204//216 205//203
f 183//184 205//203 184//186
f 205//203 204//216 189//201
f 189//201 204//216 190//199
f 204//216 203//215 190//199
f 190//199 203//215 191//197
f 203//215 202//195 191//197

g face 3
f 207//217 224//218 1//219
f 1//219 224//218 225//220
f 1//219 225//220 213//221
f 213//221 225//220 224//218
f 213//221 224//218 268//222
f 268//222 224//218 223//223
f 268//222 223//223 267//224
f 267//224 223//223 222//225
f 267//224 222//225 266//226
f 266//226 222//225 221//227
f 266//226 221//227 265//228
f 265//228 221//227 220//229
f 265//228 220//229 264//230
f 264//230 220//229 219//231
f 264//230 219//231 263//232
f 263//232 219//231 218//233
f 263//232 218//233 262//234
f 262//234 218//233 217//235
f 262//234 217//235 214//236
f 214//236 217//235 140//237
f 214//236 140//237 150//238
f 208//239 222//225 207//217
f 207//217 222//225 223//223
f 207//217 223//223 224//218
f 209//240 220//229 208//239
f 208//239 220//229 221//227
f 208//239 221//227 222//225
f 140//237 218//233 209//240
f 209//240 218//233 219//231
f 209//240 219//231 220//229
f 149//241 226//242 150//238
f 150//238 226//242 243//243
f 150//238 243//243 214//236
f 214//236 243//243 242//244
f 214//236 242//244 262//234
f 262//234 242//244 241//245
f 262//234 241//245 263//232
f 263//232 241//245 240//246
f 263//232 240//246 264//230
f 264//230 240//246 239//247
f 264//230 239//247 265//228
f 265//228 239//247 238//248
f 265//228 238//248 266//226
f 266//226 238//248 237//249
f 266//226 237//249 267//224
f 267//224 237//249 236//250
f 267//224 236//250 268//222
f 268//222 236//250 235//251
f 268//222 235//251 213//221
f 213//221 235//251 2//252
f 213//221 2//252 1//219
f 148//253 245//254 149//241
f 149//241 245//254 246//255
f 149//241 246//255 228//256
f 228//256 246//255 247//257
f 228//256 247//257 229//258
f 229//258 247//257 248//259
f 229//258 248//259 230//260
f 230//260 248//259 249//261
f 230//260 249//261 231//262
f 231//262 249//261 250//263
f 231//262 250//263 232//264
f 232//264 250//263 3//265
f 232//264 3//265 233//266
f 233//266 3//265 234//267
f 233//266 234//267 236//250
f 236//250 234//267 235//251
f 147//268 216//269 148//253
f 148//253 216//269 244//270
f 148//253 244//270 245//254
f 245//254 244//270 269//271
f 245//254 269//271 270//272
f 270//272 269//271 259//273
f 270//272 259//273 258//274
f 258//274 259//273 210//275
f 258//274 210//275 211//276
f 210//275 260//277 147//268
f 147//268 260//277 261//278
f 147//268 261//278 216//269
f 216//269 261//278 260//277
f 216//269 260//277 269//271
f 269//271 260//277 259//273
f 212//279 256//280 211//276
f 211//276 256//280 257//281
f 211//276 257//281 258//274
f 258//274 257//281 271//282
f 258//274 271//282 270//272
f 270//272 271//282 246//255
f 270//272 246//255 245//254
f 5//283 254//284 212//279
f 212//279 254//284 255//285
f 212//279 255//285 256//280
f 256//280 255//285 273//286
f 256//280 273//286 272//287
f 272//287 273//286 248//259
f 272//287 248//259 247//257
f 4//288 215//289 5//283
f 5//283 215//289 253//290
f 5//283 253//290 254//284
f 254//284 253//290 275//291
f 254//284 275//291 274//292
f 274//292 275//291 250//263
f 274//292 250//263 249//261
f 3//265 251//293 4//288
f 4//288 251//293 252//294
f 4//288 252//294 215//289
f 215//289 252//294 251//293
f 215//289 251//293 275//291
f 275//291 251//293 250//263
f 3//265 2//252 234//267
f 234//267 2//252 235//251
f 217//235 218//233 140//237
f 242//244 243//243 227//295
f 227//295 243//243 226//242
f 227//295 226//242 149//241
f 241//245 242//244 228//256
f 228//256 242//244 227//295
f 228//256 227//295 149//241
f 240//246 241//245 229//258
f 229//258 241//245 228//256
f 239//247 240//246 230//260
f 230//260 240//246 229//258
f 238//248 239//247 231//262
f 231//262 239//247 230//260
f 237//249 238//248 232//264
f 232//264 238//248 231//262
f 236//250 237//249 233//266
f 233//266 237//249 232//264
f 216//269 269//271 244//270
f 272//287 247//257 271//282
f 271//282 247//257 246//255
f 274//292 249//261 273//286
f 273//286 249//261 248//259
f 250//263 251//293 3//265
f 215//289 275//291 253//290
f 273//286 255//285 274//292
f 274//292 255//285 254//284
f 271//282 257//281 272//287
f 272//287 257//281 256//280
f 260//277 210//275 259//273

g face 4
f 212//296 288//297 5//298
f 5//298 288//297 289//299
f 5//298 289//299 276//300
f 276//300 289//299 288//297
f 276//300 288//297 338//301
f 338//301 288//297 287//302
f 338//301 287//302 337//303
f 337//303 287//302 285//304
f 337//303 285//304 286//305
f 286//305 285//304 211//306
f 286//305 211//306 336//307
f 336//307 211//306 284//308
f 336//307 284//308 283//309
f 283//309 284//308 210//310
f 283//309 210//310 282//311
f 282//311 210//310 281//312
f 282//311 281//312 334//313
f 334//313 281//312 333//314
f 334//313 333//314 305//315
f 305//315 333//314 306//316
f 305//315 306//316 292//317
f 292//317 306//316 291//318
f 292//317 291//318 145//319
f 145//319 291//318 290//320
f 145//319 290//320 146//321
f 146//321 290//320 307//322
f 146//321 307//322 277//323
f 277//323 307//322 306//316
f 277//323 306//316 333//314
f 211//306 285//304 212//296
f 212//296 285//304 287//302
f 212//296 287//302 288//297
f 211//306 210//310 284//308
f 210//310 147//324 281//312
f 281//312 147//324 280//325
f 281//312 280//325 333//314
f 333//314 280//325 277//323
f 280//325 147//324 277//323
f 277//323 147//324 146//321
f 144//326 308//327 145//319
f 145//319 308//327 309//328
f 145//319 309//328 310//329
f 310//329 309//328 318//330
f 310//329 318//330 319//331
f 319//331 318//330 329//332
f 319//331 329//332 328//333
f 328//333 329//332 79//334
f 328//333 79//334 78//335
f 308//327 144//326 279//336
f 279//336 144//326 80//337
f 279//336 80//337 332//338
f 332//338 80//337 331//339
f 332//338 331//339 279//336
f 279//336 331//339 317//340
f 279//336 317//340 308//327
f 308//327 317//340 309//328
f 80//337 79//334 331//339
f 331//339 79//334 330//341
f 331//339 330//341 317//340
f 317//340 330//341 318//330
f 317//340 318//330 309//328
f 77//342 327//343 78//335
f 78//335 327//343 321//344
f 78//335 321//344 320//345
f 320//345 321//344 312//346
f 320//345 312//346 311//347
f 311//347 312//346 293//348
f 311//347 293//348 292//317
f 292//317 293//348 305//315
f 9//349 325//350 77//342
f 77//342 325//350 326//351
f 77//342 326//351 327//343
f 327//343 326//351 321//344
f 8//352 278//353 9//349
f 9//349 278//353 324//354
f 9//349 324//354 325//350
f 325//350 324//354 323//355
f 325//350 323//355 322//356
f 322//356 323//355 314//357
f 322//356 314//357 313//358
f 313//358 314//357 295//359
f 313//358 295//359 294//360
f 294//360 295//359 303//361
f 294//360 303//361 304//362
f 304//362 303//361 335//363
f 304//362 335//363 334//313
f 334//313 335//363 282//311
f 278//353 8//352 316//364
f 316//364 8//352 7//365
f 316//364 7//365 315//366
f 315//366 7//365 297//367
f 315//366 297//367 296//368
f 296//368 297//367 301//369
f 296//368 301//369 302//370
f 302//370 301//369 286//305
f 302//370 286//305 336//307
f 297//367 7//365 298//371
f 298//371 7//365 6//372
f 298//371 6//372 299//373
f 299//373 6//372 276//300
f 299//373 276//300 338//301
f 6//372 5//298 276//300
f 336//307 283//309 335//363
f 335//363 283//309 282//311
f 306//316 307//322 291//318
f 291//318 307//322 290//320
f 305//315 293//348 304//362
f 304//362 293//348 294//360
f 313//358 294//360 312//346
f 312//346 294//360 293//348
f 303//361 295//359 302//370
f 302//370 295//359 296//368
f 315//366 296//368 314//357
f 314//357 296//368 295//359
f 297//367 298//371 300//374
f 300//374 298//371 299//373
f 300//374 299//373 338//301
f 297//367 300//374 301//369
f 301//369 300//374 337//303
f 301//369 337//303 286//305
f 337//303 300//374 338//301
f 335//363 303//361 336//307
f 336//307 303//361 302//370
f 334//313 305//315 304//362
f 292//317 145//319 310//329
f 292//317 310//329 311//347
f 311//347 310//329 319//331
f 311//347 319//331 320//345
f 320//345 319//331 328//333
f 320//345 328//333 78//335
f 322//356 313//358 321//344
f 321//344 313//358 312//346
f 278//353 316//364 315//366
f 278//353 315//366 323//355
f 323//355 315//366 314//357
f 329//332 318//330 330//341
f 325//350 322//356 326//351
f 326//351 322//356 321//344
f 324//354 278//353 323//355
f 330//341 79//334 329//332

g face 5
f 16//375 351//376 1//377
f 1//377 351//376 352//378
f 1//377 352//378 339//379
f 339//379 352//378 351//376
f 339//379 351//376 397//380
f 397//380 351//376 350//381
f 397//380 350//381 396//382
f 396//382 350//381 348//383
f 396//382 348//383 349//384
f 349//384 348//383 15//385
f 349//384 15//385 395//386
f 395//386 15//385 347//387
f 395//386 347//387 346//388
f 346//388 347//387 14//389
f 346//388 14//389 13//390
f 15//385 348//383 16//375
f 16//375 348//383 350//381
f 16//375 350//381 351//376
f 15//385 14//389 347//387
f 76//391 340//392 13//390
f 13//390 340//392 345//393
f 13//390 345//393 346//388
f 346//388 345//393 394//394
f 346//388 394//394 395//386
f 395//386 394//394 364//395
f 395//386 364//395 363//396
f 363//396 364//395 356//397
f 363//396 356//397 357//398
f 357//398 356//397 370//399
f 357//398 370//399 371//400
f 371//400 370//399 380//401
f 371//400 380//401 379//402
f 379//402 380//401 378//403
f 379//402 378//403 209//404
f 209//404 378//403 343//405
f 209//404 343//405 140//406
f 140//406 343//405 386//407
f 140//406 386//407 387//408
f 387//408 386//407 401//409
f 387//408 401//409 400//410
f 400//410 401//409 376//411
f 400//410 376//411 375//412
f 375//412 376//411 382//413
f 375//412 382//413 383//414
f 383//414 382//413 368//415
f 383//414 368//415 367//416
f 367//416 368//415 354//417
f 367//416 354//417 75//418
f 75//418 354//417 353//419
f 75//418 353//419 76//391
f 76//391 353//419 366//420
f 76//391 366//420 340//392
f 340//392 366//420 365//421
f 340//392 365//421 394//394
f 394//394 365//421 364//395
f 367//416 75//418 342//422
f 342//422 75//418 74//423
f 342//422 74//423 385//424
f 385//424 74//423 372//425
f 385//424 372//425 373//426
f 373//426 372//425 398//427
f 373//426 398//427 391//428
f 391//428 398//427 390//429
f 391//428 390//429 142//430
f 142//430 390//429 143//431
f 143//431 390//429 392//432
f 143//431 392//432 73//433
f 73//433 392//432 393//434
f 73//433 393//434 344//435
f 344//435 393//434 392//432
f 344//435 392//432 398//427
f 398//427 392//432 390//429
f 372//425 74//423 344//435
f 344//435 74//423 73//433
f 141//436 389//437 142//430
f 142//430 389//437 399//438
f 142//430 399//438 375//412
f 375//412 399//438 400//410
f 140//406 387//408 141//436
f 141//436 387//408 388//439
f 141//436 388//439 389//437
f 389//437 388//439 399//438
f 379//402 209//404 341//440
f 341//440 209//404 208//441
f 341//440 208//441 371//400
f 371//400 208//441 358//442
f 371//400 358//442 357//398
f 357//398 358//442 362//443
f 357//398 362//443 363//396
f 363//396 362//443 349//384
f 363//396 349//384 395//386
f 358//442 208//441 359//444
f 359//444 208//441 207//445
f 359//444 207//445 360//446
f 360//446 207//445 339//379
f 360//446 339//379 397//380
f 207//445 1//377 339//379
f 340//392 394//394 345//393
f 365//421 366//420 354//417
f 354//417 366//420 353//419
f 364//395 365//421 355//447
f 355//447 365//421 354//417
f 355//447 354//417 368//415
f 364//395 355//447 356//397
f 356//397 355//447 369//448
f 356//397 369//448 370//399
f 370//399 369//448 381//449
f 370//399 381//449 380//401
f 380//401 381//449 377//450
f 380//401 377//450 378//403
f 378//403 377//450 343//405
f 369//448 355//447 368//415
f 358//442 359//444 361//451
f 361//451 359//444 360//446
f 361//451 360//446 397//380
f 358//442 361//451 362//443
f 362//443 361//451 396//382
f 362//443 396//382 349//384
f 396//382 361//451 397//380
f 367//416 342//422 384//452
f 384//452 342//422 385//424
f 384//452 385//424 373//426
f 381//449 369//448 382//413
f 382//413 369//448 368//415
f 379//402 341//440 371//400
f 373//426 374//453 384//452
f 384//452 374//453 383//414
f 384//452 383//414 367//416
f 344//435 398//427 372//425
f 142//430 375//412 374//453
f 374//453 375//412 383//414
f 142//430 374//453 391//428
f 391//428 374//453 373//426
f 381//449 382//413 376//411
f 381//449 376//411 377//450
f 377//450 376//411 401//409
f 377//450 401//409 343//405
f 343//405 401//409 386//407
f 399//438 388//439 400//410
f 400//410 388//439 387//408

g halfedge 0 edge 0
l 5 4 3 2 1

g halfedge 1 edge 0
l 1 2 3 4 5

g halfedge 2 edge 1
l 9 8 7 6 5

g halfedge 3 edge 1
l 5 6 7 8 9

g halfedge 4 edge 2
l 13 12 11 10 9

g halfedge 5 edge 2
l 9 10 11 12 13

g halfedge 6 edge 3
l 1 16 15 14 13

g halfedge 7 edge 3
l 13 14 15 16 1

g halfedge 8 edge 4
l 13 76 75 74 73

g halfedge 9 edge 4
l 73 74 75 76 13

g halfedge 10 edge 5
l 80 79 78 77 9

g halfedge 11 edge 5
l 9 77 78 79 80

g halfedge 12 edge 6
l 73 83 82 81 80

g halfedge 13 edge 6
l 80 81 82 83 73

g halfedge 14 edge 7
l 73 143 142 141 140

g halfedge 15 edge 7
l 140 141 142 143 73

g halfedge 16 edge 8
l 147 146 145 144 80

g halfedge 17 edge 8
l 80 144 145 146 147

g halfedge 18 edge 9
l 140 150 149 148 147

g halfedge 19 edge 9
l 147 148 149 150 140

g halfedge 20 edge 10
l 140 209 208 207 1

g halfedge 21 edge 10
l 1 207 208 209 140

g halfedge 22 edge 11
l 5 212 211 210 147

g halfedge 23 edge 11
l 147 210 211 212 5

g vertex 0
p 1

g vertex 1
p 5

g vertex 2
p 9

g vertex 3
p 13

g vertex 4
p 73

g vertex 5
p 80

g vertex 6
p 140

g vertex 7
p 147

# End of file
