# https://github.com/mikedh/trimesh
v -7.50000000 10.00000000 0.00000000
v -6.46213198 11.03786755 0.00000000
v -6.49944067 11.08332920 0.00000000
v -6.41667128 11.00055885 0.00000000
v -6.36480522 10.97283649 0.00000000
v -6.52716398 11.13519478 0.00000000
v -6.54423571 11.19147301 0.00000000
v -6.30852699 10.95576477 0.00000000
v -6.25000000 10.94999981 0.00000000
v -6.19147301 10.95576477 0.00000000
v -6.13519478 10.97283649 0.00000000
v -6.08332872 11.00055885 0.00000000
v -6.03786802 11.03786755 0.00000000
v -6.00055933 11.08332920 0.00000000
v -5.97283602 11.13519478 0.00000000
v -5.95576429 11.19147301 0.00000000
v -6.46213198 11.03786755 0.27500001
v -6.49944067 11.08332920 0.27499998
v -6.41667128 11.00055885 0.27500001
v -6.36480522 10.97283649 0.27500001
v -6.52716398 11.13519478 0.27500001
v -6.54423571 11.19147301 0.27500001
v -6.30852699 10.95576477 0.27500001
v -6.25000000 10.94999981 0.27500001
v -6.19147301 10.95576477 0.27500001
v -6.13519478 10.97283649 0.27500001
v -6.08332872 11.00055885 0.27500001
v -6.03786802 11.03786755 0.27500001
v -6.00055933 11.08332920 0.27499998
v -5.97283602 11.13519478 0.27500001
v -5.95576429 11.19147301 0.27500001
v -7.50000000 10.00000000 0.50000000
v -6.62123108 10.87876892 0.50000000
v -6.68652153 10.95832539 0.50000000
v -6.73503685 11.04909134 0.50000000
v -6.76491213 11.14757729 0.50000000
v -6.45090866 10.76496315 0.50000000
v -6.35242224 10.73508739 0.50000000
v -6.54167461 10.81347847 0.50000000
v -6.25000000 10.72500038 0.50000000
v -6.14757776 10.73508739 0.50000000
v -6.04909134 10.76496315 0.50000000
v -5.95832539 10.81347847 0.50000000
v -5.87876892 10.87876892 0.50000000
v -5.81347847 10.95832539 0.50000000
v -5.76496315 11.04909134 0.50000000
v -5.73508787 11.14757729 0.50000000
v -6.55000019 11.25000000 0.00000000
v -6.54423571 11.30852699 0.00000000
v -6.52716398 11.36480522 0.00000000
v -6.49944067 11.41667080 0.00000000
v -6.46213198 11.46213245 0.00000000
v -6.41667128 11.49944115 0.00000000
v -6.36480522 11.52716351 0.00000000
v -6.30852699 11.54423523 0.00000000
v -6.25000000 11.55000019 0.00000000
v -6.19147301 11.54423523 0.00000000
v -6.13519478 11.52716351 0.00000000
v -5.94999981 11.25000000 0.00000000
v -5.95576429 11.30852699 0.00000000
v -5.97283602 11.36480522 0.00000000
v -6.03786802 11.46213245 0.00000000
v -6.00055933 11.41667080 0.00000000
v -6.08332872 11.49944115 0.00000000
v -6.55000019 11.25000000 0.27500001
v -6.54423571 11.30852699 0.27500001
v -6.52716398 11.36480522 0.27500001
v -6.49944067 11.41667080 0.27499998
v -6.46213198 11.46213245 0.27500001
v -6.41667128 11.49944115 0.27500001
v -6.36480522 11.52716351 0.27500001
v -6.30852699 11.54423523 0.27500001
v -6.25000000 11.55000019 0.27500001
v -6.19147301 11.54423523 0.27500001
v -6.13519478 11.52716351 0.27500001
v -5.94999981 11.25000000 0.27500001
v -5.95576429 11.30852699 0.27500001
v -5.97283602 11.36480522 0.27500001
v -6.03786802 11.46213150 0.27500001
v -6.00055933 11.41667080 0.27499998
v -6.08332872 11.49944115 0.27500001
v -6.77500010 11.25000000 0.50000000
v -6.76491213 11.35242271 0.50000000
v -6.73503685 11.45090866 0.50000000
v -6.68652153 11.54167461 0.50000000
v -6.62123108 11.62123108 0.50000000
v -6.54167461 11.68652153 0.50000000
v -6.45090866 11.73503685 0.50000000
v -6.35242224 11.76491261 0.50000000
v -6.25000000 11.77499962 0.50000000
v -6.14757776 11.76491261 0.50000000
v -5.72499990 11.25000000 0.50000000
v -5.73508787 11.35242271 0.50000000
v -5.76496315 11.45090866 0.50000000
v -5.81347847 11.54167461 0.50000000
v -5.87876892 11.62123108 0.50000000
v -5.95832539 11.68652153 0.50000000
v -6.04909134 11.73503685 0.50000000
v -5.00000000 10.00000000 0.00000000
v -5.00000000 10.00000000 0.50000000
v -4.91162682 10.15029526 0.50000000
v -4.70932913 12.25106907 0.50000000
v -4.70985699 10.35212517 1.19863200
v -7.50000000 12.50000000 0.00000000
v -7.50000000 12.50000000 0.50000000
v -5.00000000 12.50000000 0.00000000
v -5.00000000 12.50000000 0.50000000
v -4.91162682 13.21019650 0.50000000
v -4.91162682 10.15029526 2.50000000
v -4.71100283 10.35094070 2.50000000
v -4.70985699 10.54564571 2.50000000
v -4.70959187 11.55204487 2.50000000
v -4.71161556 13.00642014 2.50000000
v -4.91162682 13.21019650 2.50000000
v -3.91983914 16.52454758 0.50000000
v -7.50000000 17.50000000 0.00000000
v -6.46213198 18.53786850 0.00000000
v -6.49944067 18.58332825 0.00000000
v -6.41667128 18.50055885 0.00000000
v -6.36480522 18.47283554 0.00000000
v -6.52716398 18.63519478 0.00000000
v -6.54423571 18.69147301 0.00000000
v -6.30852699 18.45576477 0.00000000
v -6.25000000 18.45000076 0.00000000
v -6.19147301 18.45576477 0.00000000
v -6.13519478 18.47283554 0.00000000
v -6.08332872 18.50055885 0.00000000
v -6.03786802 18.53786850 0.00000000
v -6.00055933 18.58332825 0.00000000
v -5.97283602 18.63519478 0.00000000
v -5.95576429 18.69147301 0.00000000
v -6.46213198 18.53786850 0.27500001
v -6.49944067 18.58332825 0.27499998
v -6.41667128 18.50055885 0.27500001
v -6.36480522 18.47283554 0.27500001
v -6.52716398 18.63519478 0.27500001
v -6.54423571 18.69147301 0.27500001
v -6.30852699 18.45576477 0.27500001
v -6.25000000 18.45000076 0.27500001
v -6.19147301 18.45576477 0.27500001
v -6.13519478 18.47283554 0.27500001
v -6.08332872 18.50055885 0.27500001
v -6.03786802 18.53786850 0.27500001
v -6.00055933 18.58332825 0.27499998
v -5.97283602 18.63519478 0.27500001
v -5.95576429 18.69147301 0.27500001
v -7.50000000 17.50000000 0.50000000
v -6.62123108 18.37876892 0.50000000
v -6.68652153 18.45832634 0.50000000
v -6.73503685 18.54909134 0.50000000
v -6.76491213 18.64757729 0.50000000
v -6.45090866 18.26496315 0.50000000
v -6.35242224 18.23508835 0.50000000
v -6.54167461 18.31347847 0.50000000
v -6.25000000 18.22500038 0.50000000
v -6.14757776 18.23508835 0.50000000
v -6.04909134 18.26496315 0.50000000
v -5.95832539 18.31347847 0.50000000
v -5.87876892 18.37876892 0.50000000
v -5.81347847 18.45832634 0.50000000
v -5.76496315 18.54909134 0.50000000
v -5.73508787 18.64757729 0.50000000
v -7.50000000 20.00000000 0.00000000
v -6.55000019 18.75000000 0.00000000
v -6.54423571 18.80852699 0.00000000
v -6.52716398 18.86480522 0.00000000
v -6.49944067 18.91667175 0.00000000
v -6.46213198 18.96213150 0.00000000
v -6.41667128 18.99944115 0.00000000
v -6.36480522 19.02716446 0.00000000
v -6.30852699 19.04423523 0.00000000
v -6.25000000 19.04999924 0.00000000
v -6.19147301 19.04423523 0.00000000
v -6.13519478 19.02716446 0.00000000
v -5.94999981 18.75000000 0.00000000
v -5.95576429 18.80852699 0.00000000
v -5.97283602 18.86480522 0.00000000
v -6.03786802 18.96213150 0.00000000
v -6.00055933 18.91667175 0.00000000
v -6.08332872 18.99944115 0.00000000
v -6.55000019 18.75000000 0.27500001
v -6.54423571 18.80852699 0.27500001
v -6.52716398 18.86480522 0.27500001
v -6.49944067 18.91667175 0.27499998
v -6.46213198 18.96213150 0.27500001
v -6.41667128 18.99944115 0.27500001
v -6.36480522 19.02716446 0.27500001
v -6.30852699 19.04423523 0.27500001
v -6.25000000 19.04999924 0.27500001
v -6.19147301 19.04423523 0.27500001
v -6.13519478 19.02716446 0.27500001
v -5.94999981 18.75000000 0.27500001
v -5.95576429 18.80852699 0.27500001
v -5.97283602 18.86480522 0.27500001
v -6.03786802 18.96213150 0.27500001
v -6.00055933 18.91667175 0.27499998
v -6.08332872 18.99944115 0.27500001
v -6.77500010 18.75000000 0.50000000
v -6.76491213 18.85242271 0.50000000
v -6.73503685 18.95090866 0.50000000
v -6.68652153 19.04167366 0.50000000
v -6.62123108 19.12123108 0.50000000
v -7.50000000 20.00000000 0.50000000
v -6.54167461 19.18652153 0.50000000
v -6.45090866 19.23503685 0.50000000
v -6.35242224 19.26491165 0.50000000
v -6.25000000 19.27499962 0.50000000
v -6.14757776 19.26491165 0.50000000
v -5.72499990 18.75000000 0.50000000
v -5.73508787 18.85242271 0.50000000
v -5.76496315 18.95090866 0.50000000
v -5.81347847 19.04167366 0.50000000
v -5.87876892 19.12123108 0.50000000
v -5.95832539 19.18652153 0.50000000
v -6.04909134 19.23503685 0.50000000
v -5.00000000 17.50000000 0.00000000
v -5.00000000 17.50000000 0.50000000
v -5.00000000 20.00000000 0.00000000
v -5.00000000 20.00000000 0.50000000
v -3.91983914 20.00000000 0.50000000
v -1.07468748 16.52454758 0.50000000
v -3.65457630 17.48607063 1.17184997
v -3.59788537 17.35762215 1.23177803
v -1.33995032 17.48607063 1.17184997
v -1.39664137 17.35762215 1.23177803
v -3.21319580 18.71693611 0.59802097
v -2.94564605 18.84989166 0.53604198
v -3.08404732 18.79102135 0.56348503
v -2.80017209 18.89261627 0.51612502
v -2.64992166 18.91852379 0.50404698
v -2.49726343 18.92720604 0.50000000
v -2.34460497 18.91852379 0.50404698
v -2.19435453 18.89261627 0.51612502
v -2.04888058 18.84989166 0.53604198
v -1.91047931 18.79102135 0.56348503
v -1.78133094 18.71693611 0.59802097
v -1.07468748 20.00000000 0.50000000
v -3.69370723 18.03252220 0.91707498
v -3.52566934 18.41615677 0.73823601
v -3.43576217 18.52801514 0.68609101
v -3.33105421 18.62880325 0.63910598
v -3.65566707 18.16644287 0.85464501
v -3.59935951 18.29499626 0.79471803
v -3.71270967 17.75729942 1.04547501
v -3.71287727 17.89534950 0.98101997
v -3.69306278 17.62000084 1.10941994
v -1.30082047 18.03252220 0.91707498
v -1.46885753 18.41615677 0.73823601
v -1.66347241 18.62880325 0.63910598
v -1.55876446 18.52801514 0.68609101
v -1.33885956 18.16644287 0.85464501
v -1.39516711 18.29499626 0.79471803
v -1.28181708 17.75729942 1.04547501
v -1.28164935 17.89534950 0.98101997
v -1.30146503 17.61999893 1.10941994
v -3.91983914 16.52454758 2.45840955
v -3.91983914 20.00000000 2.45840955
v -3.08235168 16.86306572 1.46300995
v -2.94426870 16.80448151 1.49045300
v -3.32906675 17.02461815 1.38738894
v -3.43382239 17.12508392 1.34040403
v -3.52390504 17.23666382 1.28825998
v -3.21129179 16.93682480 1.42847395
v -2.79920197 16.76197433 1.51037097
v -2.64942050 16.73620605 1.52244794
v -2.34510612 16.73620605 1.52244794
v -2.49726343 16.72757339 1.52649498
v -1.91217506 16.86306572 1.46300995
v -2.19532466 16.76197433 1.51037097
v -2.05025792 16.80448151 1.49045300
v -1.66545987 17.02461815 1.38738894
v -1.56070435 17.12508392 1.34040403
v -1.47062171 17.23666382 1.28825998
v -1.78323495 16.93682480 1.42847395
v -3.08470201 16.86231613 2.45840955
v -2.94604397 16.80344200 2.45840955
v -3.33249235 17.02472115 2.45840955
v -3.47676516 17.17402840 2.45840955
v -3.43772054 17.12575150 2.45840955
v -3.52821088 17.23797989 2.45840955
v -3.57276607 17.31112099 2.45840955
v -3.63832474 17.44119644 2.45840955
v -3.65944004 17.48889732 2.45840955
v -3.65757346 17.48468018 2.45840955
v -3.60251784 17.35966492 2.45840955
v -3.59997129 17.35550880 2.45840955
v -3.21419644 16.93645668 2.45840955
v -2.80039024 16.76073456 2.45840955
v -2.65001583 16.73484421 2.45840955
v -2.49726343 16.72617149 2.45840955
v -2.34451079 16.73484421 2.45840955
v -2.19413638 16.76073456 2.45840955
v -2.04848266 16.80344200 2.45840955
v -1.90982461 16.86231613 2.45840955
v -1.07468748 16.52454758 2.45840955
v -1.78033030 16.93645668 2.45840955
v -1.66203427 17.02472115 2.45840955
v -1.55680609 17.12575150 2.45840955
v -1.51776159 17.17402840 2.45840955
v -1.46631587 17.23797989 2.45840955
v -1.42176080 17.31112099 2.45840955
v -1.39455545 17.35550880 2.45840955
v -1.39200890 17.35966492 2.45840955
v -1.37046838 17.40831375 2.45840955
v -1.33508670 17.48889732 2.45840955
v -3.67295718 17.53569794 2.45840955
v -3.69805169 17.62365532 2.45840955
v -3.71161532 17.71961403 2.45840955
v -3.71711826 17.75768661 2.45840955
v -3.71771264 17.76180077 2.45840955
v -3.71960425 18.60214424 2.45840955
v -3.70100117 18.76469040 2.45840955
v -3.70048404 18.76928329 2.45840955
v -3.70036387 18.77035141 2.45840955
v -3.69052148 18.81284714 2.45840955
v -3.68955660 18.81702995 2.45840955
v -3.66219401 18.93459320 2.45840955
v -3.60601807 19.09136009 2.45840955
v -3.60743523 19.08738708 2.45840955
v -3.60568738 19.09228706 2.45840955
v -3.53351068 19.23734665 2.45840955
v -3.53171849 19.24096298 2.45840955
v -3.53123784 19.24169540 2.45840955
v -3.52918029 19.24483490 2.45840955
v -3.45645905 19.35557747 2.45840955
v -3.44143724 19.37827682 2.45840955
v -3.33624697 19.50206184 2.45840955
v -3.21778727 19.61035538 2.45840955
v -3.08791518 19.70143700 2.45840955
v -2.94867182 19.77384758 2.45840955
v -2.80225348 19.82641983 2.45840955
v -2.65098262 19.85831070 2.45840955
v -2.49726343 19.86899757 2.45840955
v -2.19227314 19.82641983 2.45840955
v -2.34354424 19.85831070 2.45840955
v -2.04585481 19.77384758 2.45840955
v -1.90661132 19.70143700 2.45840955
v -1.30961657 17.57814217 2.45840955
v -1.29768848 17.61945534 2.45840955
v -1.29647613 17.62365532 2.45840955
v -1.28291166 17.71961403 2.45840955
v -1.27740848 17.75768661 2.45840955
v -1.27681398 17.76180077 2.45840955
v -1.28182149 18.04214668 2.45840955
v -1.28172386 18.13013649 2.45840955
v -1.27492249 18.60214424 2.45840955
v -1.28088498 18.65464973 2.45840955
v -1.44874310 19.21286583 2.45840955
v -1.46534646 19.24483490 2.45840955
v -1.46328878 19.24169540 2.45840955
v -1.46280849 19.24096298 2.45840955
v -1.29416394 18.77035141 2.45840955
v -1.33110881 18.92928696 2.45840955
v -1.33210135 18.93359184 2.45840955
v -1.33233249 18.93459320 2.45840955
v -1.38850844 19.09136009 2.45840955
v -1.38709128 19.08738708 2.45840955
v -1.38924360 19.09310341 2.45840955
v -1.38883901 19.09228706 2.45840955
v -1.39097846 19.09660339 2.45840955
v -1.65827954 19.50206184 2.45840955
v -1.77673924 19.61035538 2.45840955
v -1.55308950 19.37827682 2.45840955
v -1.07468748 20.00000000 2.45840955
v 1.52183604 10.15029526 0.50000000
v 1.31953835 12.25106907 0.50000000
v 1.32006645 10.35212517 1.19863200
v 1.52183604 13.21019650 0.50000000
v 5.00000000 10.00000000 0.00000000
v 5.00000000 10.00000000 0.50000000
v 6.08332872 11.00055885 0.00000000
v 6.00055933 11.08332920 0.00000000
v 6.03786802 11.03786755 0.00000000
v 5.97283602 11.13519478 0.00000000
v 5.95576429 11.19147301 0.00000000
v 6.13519478 10.97283649 0.00000000
v 6.19147301 10.95576477 0.00000000
v 6.25000000 10.94999981 0.00000000
v 6.30852699 10.95576477 0.00000000
v 6.36480522 10.97283649 0.00000000
v 6.41667128 11.00055885 0.00000000
v 6.46213198 11.03786755 0.00000000
v 6.49944067 11.08332920 0.00000000
v 6.52716398 11.13519478 0.00000000
v 6.54423571 11.19147301 0.00000000
v 6.08332872 11.00055885 0.27500001
v 6.00055933 11.08332920 0.27499998
v 6.03786802 11.03786755 0.27500001
v 5.97283602 11.13519478 0.27500001
v 5.95576429 11.19147301 0.27500001
v 6.13519478 10.97283649 0.27500001
v 6.19147301 10.95576477 0.27500001
v 6.25000000 10.94999981 0.27500001
v 6.30852699 10.95576477 0.27500001
v 6.36480522 10.97283649 0.27500001
v 6.41667128 11.00055885 0.27500001
v 6.46213198 11.03786755 0.27500001
v 6.49944067 11.08332920 0.27499998
v 6.52716398 11.13519478 0.27500001
v 6.54423571 11.19147301 0.27500001
v 7.50000000 10.00000000 0.00000000
v 6.04909134 10.76496315 0.50000000
v 5.95832539 10.81347847 0.50000000
v 5.87876892 10.87876892 0.50000000
v 5.81347847 10.95832539 0.50000000
v 5.76496315 11.04909134 0.50000000
v 5.73508787 11.14757729 0.50000000
v 6.14757776 10.73508739 0.50000000
v 6.25000000 10.72500038 0.50000000
v 6.35242224 10.73508739 0.50000000
v 6.45090866 10.76496315 0.50000000
v 6.54167461 10.81347847 0.50000000
v 7.50000000 10.00000000 0.50000000
v 6.62123108 10.87876892 0.50000000
v 6.68652153 10.95832539 0.50000000
v 6.73503685 11.04909134 0.50000000
v 6.76491213 11.14757729 0.50000000
v 5.94999981 11.25000000 0.00000000
v 5.95576429 11.30852699 0.00000000
v 5.97283602 11.36480522 0.00000000
v 6.00055933 11.41667080 0.00000000
v 6.03786802 11.46213245 0.00000000
v 6.08332872 11.49944115 0.00000000
v 6.13519478 11.52716351 0.00000000
v 6.19147301 11.54423523 0.00000000
v 6.25000000 11.55000019 0.00000000
v 6.30852699 11.54423523 0.00000000
v 6.55000019 11.25000000 0.00000000
v 6.54423571 11.30852699 0.00000000
v 6.52716398 11.36480522 0.00000000
v 6.36480522 11.52716351 0.00000000
v 6.41667128 11.49944115 0.00000000
v 6.49944067 11.41667080 0.00000000
v 6.46213198 11.46213245 0.00000000
v 5.94999981 11.25000000 0.27500001
v 5.95576429 11.30852699 0.27500001
v 5.97283602 11.36480522 0.27500001
v 6.00055933 11.41667080 0.27499998
v 6.03786802 11.46213245 0.27500001
v 6.08332872 11.49944115 0.27500001
v 6.13519478 11.52716351 0.27500001
v 6.19147301 11.54423523 0.27500001
v 6.25000000 11.55000019 0.27500001
v 6.30852699 11.54423523 0.27500001
v 6.55000019 11.25000000 0.27500001
v 6.54423571 11.30852699 0.27500001
v 6.52716398 11.36480522 0.27500001
v 6.36480522 11.52716351 0.27500001
v 6.41667128 11.49944115 0.27500001
v 6.49944067 11.41667080 0.27499998
v 6.46213198 11.46213150 0.27500001
v 5.72499990 11.25000000 0.50000000
v 5.73508787 11.35242271 0.50000000
v 5.76496315 11.45090866 0.50000000
v 5.81347847 11.54167461 0.50000000
v 5.87876892 11.62123108 0.50000000
v 5.95832539 11.68652153 0.50000000
v 6.04909134 11.73503685 0.50000000
v 6.14757776 11.76491261 0.50000000
v 6.25000000 11.77499962 0.50000000
v 6.54167461 11.68652153 0.50000000
v 6.35242224 11.76491261 0.50000000
v 6.45090866 11.73503685 0.50000000
v 6.77500010 11.25000000 0.50000000
v 6.76491213 11.35242271 0.50000000
v 6.73503685 11.45090866 0.50000000
v 6.68652153 11.54167461 0.50000000
v 6.62123108 11.62123108 0.50000000
v 5.00000000 12.50000000 0.00000000
v 5.00000000 12.50000000 0.50000000
v 7.50000000 12.50000000 0.00000000
v 7.50000000 12.50000000 0.50000000
v 1.32121217 10.35094070 2.50000000
v 1.52183604 10.15029526 2.50000000
v 1.32182264 12.98992729 2.50000000
v 1.32182467 13.00642014 2.50000000
v 1.52183604 13.21019650 2.50000000
v 1.47541976 16.52420998 0.50000000
v 2.12541652 17.15307999 1.19312799
v 2.26259875 17.03629875 1.22567594
v 2.00381684 17.28493690 1.15638900
v 1.89957345 17.42995834 1.11599505
v 1.47541976 20.00000000 0.00000000
v 1.47541976 20.00000000 0.50000000
v 2.12423611 19.21870613 0.61830902
v 2.26144528 19.33571625 0.58576101
v 2.57461810 19.51795387 0.53506798
v 2.74601507 19.58052444 0.51766300
v 2.41230583 19.43595123 0.55787802
v 2.92399812 19.62275314 0.50591701
v 3.10597134 19.64402199 0.50000000
v 3.28928161 19.64402390 0.50000000
v 3.47125411 19.62275505 0.50591600
v 3.64923811 19.58052826 0.51766199
v 1.68250763 18.09739876 0.93026000
v 1.68239653 18.27369690 0.88117701
v 1.70449018 18.44886208 0.83245301
v 1.74835980 18.62018585 0.78479600
v 1.81421578 17.58604622 1.07253397
v 1.74899518 17.75092888 1.02664101
v 1.70487297 17.92221069 0.97898501
v 1.81336057 18.78517342 0.73890299
v 1.89854825 18.94141197 0.69544202
v 2.00268030 19.08662987 0.65504801
v 4.91984463 16.52420998 0.50000000
v 4.13267374 17.03630638 1.22567403
v 4.26985598 17.15308762 1.19312596
v 4.39145470 17.28494453 1.15638697
v 4.49569559 17.42996979 1.11599195
v 5.00000000 17.50000000 0.00000000
v 5.00000000 17.50000000 0.50000000
v 5.00000000 20.00000000 0.00000000
v 4.13381052 19.33572197 0.58575898
v 4.27102041 19.21871376 0.61830699
v 3.82063508 19.51795769 0.53506702
v 3.98294830 19.43595695 0.55787700
v 4.91984463 20.00000000 0.50000000
v 5.00000000 20.00000000 0.50000000
v 6.08332872 18.50055885 0.00000000
v 6.00055933 18.58332825 0.00000000
v 6.03786802 18.53786850 0.00000000
v 5.97283602 18.63519478 0.00000000
v 5.95576429 18.69147301 0.00000000
v 6.13519478 18.47283554 0.00000000
v 6.19147301 18.45576477 0.00000000
v 6.25000000 18.45000076 0.00000000
v 6.30852699 18.45576477 0.00000000
v 6.36480522 18.47283554 0.00000000
v 6.41667128 18.50055885 0.00000000
v 6.46213198 18.53786850 0.00000000
v 6.49944067 18.58332825 0.00000000
v 6.52716398 18.63519478 0.00000000
v 6.54423571 18.69147301 0.00000000
v 6.08332872 18.50055885 0.27500001
v 6.00055933 18.58332825 0.27499998
v 6.03786802 18.53786850 0.27500001
v 5.97283602 18.63519478 0.27500001
v 5.95576429 18.69147301 0.27500001
v 6.13519478 18.47283554 0.27500001
v 6.19147301 18.45576477 0.27500001
v 6.25000000 18.45000076 0.27500001
v 6.30852699 18.45576477 0.27500001
v 6.36480522 18.47283554 0.27500001
v 6.41667128 18.50055885 0.27500001
v 6.46213198 18.53786850 0.27500001
v 6.49944067 18.58332825 0.27499998
v 6.52716398 18.63519478 0.27500001
v 6.54423571 18.69147301 0.27500001
v 7.50000000 17.50000000 0.00000000
v 6.04909134 18.26496315 0.50000000
v 5.95832539 18.31347847 0.50000000
v 5.87876892 18.37876892 0.50000000
v 5.81347847 18.45832634 0.50000000
v 5.76496315 18.54909134 0.50000000
v 5.73508787 18.64757729 0.50000000
v 6.14757776 18.23508835 0.50000000
v 6.25000000 18.22500038 0.50000000
v 6.35242224 18.23508835 0.50000000
v 6.45090866 18.26496315 0.50000000
v 6.54167461 18.31347847 0.50000000
v 7.50000000 17.50000000 0.50000000
v 6.62123108 18.37876892 0.50000000
v 6.68652153 18.45832634 0.50000000
v 6.73503685 18.54909134 0.50000000
v 6.76491213 18.64757729 0.50000000
v 5.94999981 18.75000000 0.00000000
v 5.95576429 18.80852699 0.00000000
v 5.97283602 18.86480522 0.00000000
v 6.00055933 18.91667175 0.00000000
v 6.03786802 18.96213150 0.00000000
v 6.08332872 18.99944115 0.00000000
v 6.13519478 19.02716446 0.00000000
v 6.19147301 19.04423523 0.00000000
v 6.25000000 19.04999924 0.00000000
v 6.30852699 19.04423523 0.00000000
v 6.55000019 18.75000000 0.00000000
v 6.54423571 18.80852699 0.00000000
v 6.52716398 18.86480522 0.00000000
v 6.36480522 19.02716446 0.00000000
v 6.41667128 18.99944115 0.00000000
v 6.49944067 18.91667175 0.00000000
v 6.46213198 18.96213150 0.00000000
v 5.94999981 18.75000000 0.27500001
v 5.95576429 18.80852699 0.27500001
v 5.97283602 18.86480522 0.27500001
v 6.00055933 18.91667175 0.27499998
v 6.03786802 18.96213150 0.27500001
v 6.08332872 18.99944115 0.27500001
v 6.13519478 19.02716446 0.27500001
v 6.19147301 19.04423523 0.27500001
v 6.25000000 19.04999924 0.27500001
v 6.30852699 19.04423523 0.27500001
v 6.55000019 18.75000000 0.27500001
v 6.54423571 18.80852699 0.27500001
v 6.52716398 18.86480522 0.27500001
v 6.36480522 19.02716446 0.27500001
v 6.41667128 18.99944115 0.27500001
v 6.49944067 18.91667175 0.27499998
v 6.46213198 18.96213150 0.27500001
v 7.50000000 20.00000000 0.00000000
v 5.72499990 18.75000000 0.50000000
v 5.73508787 18.85242271 0.50000000
v 5.76496315 18.95090866 0.50000000
v 5.81347847 19.04167366 0.50000000
v 5.87876892 19.12123108 0.50000000
v 5.95832539 19.18652153 0.50000000
v 6.04909134 19.23503685 0.50000000
v 6.14757776 19.26491165 0.50000000
v 6.25000000 19.27499962 0.50000000
v 6.54167461 19.18652153 0.50000000
v 6.35242224 19.26491165 0.50000000
v 6.45090866 19.23503685 0.50000000
v 6.77500010 18.75000000 0.50000000
v 6.76491213 18.85242271 0.50000000
v 6.73503685 18.95090866 0.50000000
v 6.68652153 19.04167366 0.50000000
v 6.62123108 19.12123108 0.50000000
v 7.50000000 20.00000000 0.50000000
v 4.64690161 18.62019730 0.78479302
v 4.71275663 18.09741020 0.93025702
v 4.71286774 18.27370834 0.88117403
v 4.69077063 18.44887352 0.83244902
v 4.58105373 17.58605385 1.07253206
v 4.64627218 17.75093842 1.02663803
v 4.69039249 17.92222214 0.97898197
v 4.49670935 18.94142151 0.69543999
v 4.58189869 18.78518105 0.73890001
v 4.39257669 19.08663750 0.65504497
v 2.57551813 16.85448456 1.27636695
v 2.74670315 16.79207611 1.29377198
v 2.41336417 16.93628502 1.25355804
v 2.92443228 16.74996185 1.30551803
v 3.10612655 16.72875404 1.31143403
v 3.28914785 16.72875595 1.31143403
v 3.47084188 16.74996376 1.30551803
v 3.64857125 16.79207802 1.29377103
v 1.47541976 16.52420998 2.42919087
v 2.57343411 16.85240555 2.42919087
v 2.74520087 16.78977394 2.42919087
v 2.12174582 17.15213013 2.42919087
v 2.25942183 17.03489876 2.42919087
v 1.99970102 17.28450584 2.42919087
v 1.89507139 17.43011284 2.42919087
v 2.41071916 16.93450737 2.42919087
v 2.92352605 16.74751091 2.42919087
v 3.10582352 16.72622681 2.42919087
v 3.28945088 16.72622871 2.42919087
v 3.47174835 16.74751282 2.42919087
v 3.65007329 16.78977585 2.42919087
v 3.10568929 20.00000000 1.73803699
v 2.92310524 20.00000000 1.81813240
v 3.28956366 20.00000000 1.73803043
v 3.47214651 20.00000000 1.81812096
v 1.47541976 17.68729591 2.32910895
v 1.74433517 17.75229454 2.31840801
v 1.77001822 17.68729591 2.32910895
v 1.47541976 17.85280991 2.30185986
v 1.71852076 17.85280991 2.30185986
v 1.70011723 17.92422104 2.30141282
v 1.67767918 18.10008812 2.30031180
v 1.47541976 17.62852669 2.42919087
v 1.80937219 17.58690262 2.42919087
v 1.79291773 17.62852669 2.42919087
v 1.68246877 18.34120750 2.29880238
v 1.68240011 18.45406914 2.29809594
v 1.67633343 18.67671967 2.29670215
v 1.69572651 18.84216881 2.29566646
v 1.69849062 18.86598969 2.29551744
v 1.69871283 18.86692810 2.29551148
v 1.70392466 18.88895226 2.29537368
v 1.74249744 19.05111694 2.29435849
v 1.74281955 19.05200195 2.29435301
v 1.47541976 19.17020798 2.29361296
v 1.75039542 19.07277679 2.29422283
v 1.78604794 19.17020798 2.29361296
v 1.80750299 19.24585152 2.35076380
v 1.47541976 19.34965515 2.42919087
v 1.84835458 19.34965515 2.42919087
v 1.47541976 20.00000000 2.42919087
v 2.74437547 20.00000000 1.97720671
v 3.65087771 20.00000000 1.97719312
v 2.57201314 20.00000000 2.21308064
v 1.89273131 19.43746948 2.42919087
v 1.99727416 19.59475327 2.42919087
v 2.11932564 19.73782921 2.42919087
v 2.25711465 19.86459923 2.42919087
v 2.40863419 19.97321320 2.42919087
v 2.45777225 20.00000000 2.42919087
v 3.81975532 16.85448647 1.27636600
v 3.98190928 16.93629074 1.25355601
v 3.82183933 16.85240936 2.42919087
v 3.98455429 16.93451309 2.42919087
v 4.13585043 17.03490448 2.42919087
v 4.27352667 17.15213776 2.42919087
v 4.39557076 17.28451347 2.42919087
v 4.50019789 17.43012428 2.42919087
v 4.91984463 16.52420998 2.42919087
v 4.62526894 17.68729591 2.32910895
v 4.65093231 17.75230408 2.31840658
v 4.67676878 17.85280991 2.30185986
v 4.58587313 17.58684921 2.42919087
v 4.60234451 17.62849426 2.42919087
v 4.91984463 17.68729591 2.32910895
v 4.69514799 17.92423248 2.30141282
v 4.91984463 17.85280991 2.30185986
v 4.71758509 18.10009956 2.30031180
v 4.91984463 17.62851715 2.42919087
v 4.71275473 18.26881027 2.29925561
v 4.71282244 18.38010025 2.29855895
v 4.71614504 18.70074272 2.29655194
v 4.71881676 18.67771721 2.29669595
v 4.71893072 18.67673302 2.29670215
v 4.65276384 19.05112839 2.29435825
v 4.65299320 19.05015945 2.29436445
v 4.65837622 19.02741623 2.29450679
v 4.64518929 19.07189941 2.29422832
v 4.60921526 19.17020798 2.29361296
v 4.58775663 19.24586296 2.35077310
v 4.54690886 19.34965324 2.42919087
v 3.82323980 20.00000000 2.21306729
v 3.93749070 20.00000000 2.42919087
v 3.98661971 19.97321892 2.42919087
v 4.13814163 19.86460876 2.42919087
v 4.39798307 19.59476280 2.42919087
v 4.50252581 19.43747902 2.42919087
v 4.27593040 19.73783684 2.42919087
v 4.69677067 18.86600113 2.29551744
v 4.91984463 19.17020798 2.29361296
v 4.91984463 19.34965324 2.42919087
v 4.91984463 20.00000000 2.42919087
f 345 253 344
f 344 295 345
f 251 354 355
f 251 353 354
f 357 251 355
f 353 247 352
f 247 347 352
f 347 254 346
f 254 345 346
f 346 345 295
f 253 343 344
f 343 255 342
f 255 341 342
f 255 340 341
f 340 224 339
f 224 338 339
f 224 305 338
f 252 359 358
f 361 363 364
f 357 355 364
f 355 354 364
f 354 353 364
f 353 352 364
f 352 347 364
f 347 346 364
f 360 252 358
f 364 257 335
f 252 356 359
f 252 357 356
f 351 248 348
f 348 248 360
f 349 248 350
f 248 351 350
f 346 295 364
f 317 316 242
f 317 319 257
f 323 239 324
f 322 239 323
f 321 239 322
f 320 243 321
f 319 243 318
f 243 320 318
f 317 242 319
f 319 318 257
f 315 242 316
f 315 314 238
f 312 238 313
f 314 313 238
f 312 311 245
f 310 245 311
f 310 309 246
f 364 336 337
f 318 320 257
f 320 321 257
f 321 322 257
f 322 323 257
f 323 324 257
f 324 325 257
f 325 326 257
f 326 327 257
f 327 328 257
f 328 329 257
f 329 330 257
f 330 331 257
f 331 332 257
f 332 333 257
f 333 335 257
f 485 504 489
f 491 487 628
f 493 491 494
f 491 493 492
f 512 483 652
f 488 491 490
f 487 489 628
f 487 491 488
f 485 489 486
f 494 491 628
f 484 237 478
f 499 633 624
f 499 632 633
f 499 629 632
f 629 479 631
f 499 481 629
f 481 499 482
f 479 480 631
f 496 498 497
f 498 496 503
f 499 496 500
f 495 501 500
f 495 500 496
f 498 503 502
f 483 484 682
f 484 478 679
f 496 499 489
f 628 489 499
f 628 499 624
f 503 496 489
f 503 489 504
f 491 650 490
f 491 492 652
f 356 357 364
f 108 368 505
f 365 368 477
f 370 100 369
f 365 100 370
f 363 349 364
f 359 356 364
f 364 358 359
f 360 358 364
f 368 365 505
f 349 350 364
f 351 348 364
f 364 348 360
f 364 362 361
f 364 337 362
f 364 334 336
f 335 334 364
f 309 308 246
f 370 505 365
f 469 369 483
f 511 470 469
f 517 370 470
f 474 365 477
f 367 475 366
f 475 367 473
f 473 474 477
f 475 473 477
f 476 366 475
f 477 476 475
f 478 108 505
f 369 218 483
f 478 505 637
f 629 481 479
f 291 267 290
f 289 288 256
f 288 276 256
f 276 275 256
f 287 277 256
f 275 287 256
f 294 270 293
f 293 269 292
f 292 266 291
f 280 256 278
f 290 265 289
f 289 264 288
f 275 258 287
f 278 262 280
f 282 223 284
f 285 223 282
f 223 283 284
f 281 262 286
f 256 280 281
f 279 278 256
f 277 279 256
f 281 286 256
f 286 285 256
f 256 285 282
f 284 256 282
f 283 256 284
f 289 256 295
f 290 289 295
f 291 290 295
f 224 304 305
f 298 271 297
f 299 272 298
f 296 268 294
f 258 263 287
f 271 254 266
f 268 270 294
f 270 269 293
f 269 266 292
f 266 267 291
f 267 265 290
f 265 264 289
f 263 260 287
f 225 272 273
f 260 261 277
f 262 223 285
f 223 222 283
f 261 262 278
f 264 259 276
f 259 258 275
f 115 295 256
f 297 274 296
f 272 224 271
f 271 270 274
f 273 272 299
f 225 273 303
f 224 225 304
f 274 268 296
f 271 274 297
f 272 271 298
f 276 259 275
f 264 276 288
f 287 260 277
f 277 261 279
f 261 278 279
f 262 281 280
f 286 262 285
f 330 229 331
f 253 255 343
f 237 257 364
f 336 235 337
f 334 234 336
f 335 233 334
f 333 232 335
f 332 231 333
f 331 230 332
f 254 253 345
f 329 227 330
f 327 226 328
f 328 228 329
f 326 241 327
f 325 240 326
f 324 240 325
f 240 241 326
f 222 246 306
f 250 248 349
f 248 252 360
f 252 251 357
f 254 347 247
f 251 247 353
f 255 224 340
f 249 250 363
f 363 250 349
f 337 236 362
f 362 249 361
f 249 363 361
f 295 237 364
f 283 222 306
f 308 307 246
f 307 306 246
f 294 293 295
f 303 302 295
f 302 301 295
f 301 300 295
f 300 299 295
f 299 298 295
f 298 297 295
f 297 296 295
f 296 294 295
f 304 303 295
f 293 292 295
f 292 291 295
f 304 225 303
f 303 273 302
f 273 301 302
f 273 300 301
f 273 299 300
f 652 492 493
f 305 304 295
f 305 295 338
f 338 295 339
f 339 295 340
f 340 295 341
f 341 295 342
f 342 295 343
f 343 295 344
f 244 245 310
f 246 244 310
f 240 324 239
f 242 243 319
f 243 239 321
f 245 238 312
f 238 242 315
f 696 508 695
f 692 691 697
f 691 649 697
f 649 648 697
f 648 647 697
f 647 646 697
f 693 690 692
f 692 689 691
f 509 696 701
f 693 692 697
f 695 507 694
f 694 506 693
f 509 508 696
f 508 507 695
f 507 506 694
f 690 689 692
f 506 690 693
f 624 623 702
f 697 517 703
f 700 704 625
f 622 621 710
f 621 620 709
f 620 625 706
f 619 622 715
f 625 624 700
f 623 509 701
f 637 505 697
f 702 697 707
f 701 697 702
f 703 707 697
f 701 696 697
f 696 695 697
f 695 694 697
f 694 693 697
f 657 665 666
f 673 672 674
f 673 671 672
f 673 670 671
f 673 669 670
f 673 668 669
f 673 657 668
f 668 657 667
f 657 666 667
f 673 674 675
f 657 664 665
f 656 654 663
f 662 656 663
f 654 661 663
f 657 660 664
f 659 660 657
f 657 658 659
f 706 625 704
f 673 675 676
f 673 676 677
f 676 678 677
f 679 673 677
f 679 677 678
f 679 678 683
f 679 683 684
f 679 684 685
f 682 679 688
f 685 686 679
f 686 687 679
f 688 679 687
f 682 688 687
f 689 690 506
f 689 636 691
f 706 704 728
f 724 725 729
f 725 719 729
f 719 718 729
f 725 718 719
f 712 709 728
f 709 708 728
f 708 706 728
f 728 704 705
f 730 720 721
f 703 698 702
f 707 703 702
f 700 699 705
f 704 700 705
f 699 703 705
f 699 698 703
f 702 623 701
f 698 624 702
f 730 721 722
f 730 723 726
f 730 722 723
f 730 726 724
f 728 711 712
f 710 711 728
f 727 710 728
f 715 727 728
f 714 715 728
f 714 728 713
f 716 713 728
f 717 716 728
f 717 728 729
f 718 717 729
f 724 729 730
f 627 619 716
f 627 716 717
f 713 619 714
f 716 619 713
f 619 715 714
f 720 512 681
f 512 653 681
f 628 626 724
f 627 718 626
f 715 622 727
f 622 710 727
f 711 621 712
f 710 621 711
f 621 709 712
f 709 620 708
f 620 706 708
f 703 517 705
f 658 654 655
f 718 627 717
f 626 718 725
f 724 626 725
f 681 515 720
f 517 720 730
f 720 515 721
f 721 516 722
f 722 513 723
f 514 724 726
f 723 514 726
f 705 517 728
f 728 517 729
f 729 517 730
f 624 698 699
f 700 624 699
f 516 513 722
f 630 629 638
f 636 634 635
f 636 633 634
f 632 629 630
f 654 478 661
f 637 661 478
f 654 657 478
f 512 652 653
f 631 480 641
f 513 514 723
f 515 516 721
f 514 628 724
f 517 512 720
f 628 619 627
f 626 628 627
f 505 517 697
f 624 620 621
f 480 479 640
f 481 642 479
f 481 482 643
f 629 631 644
f 632 630 645
f 633 632 646
f 634 633 647
f 635 634 648
f 636 635 649
f 643 482 662
f 637 640 642
f 643 662 637
f 637 642 643
f 661 637 663
f 663 637 662
f 488 490 651
f 636 689 624
f 633 636 624
f 511 517 470
f 469 483 510
f 505 370 517
f 469 510 511
f 681 494 515
f 493 494 681
f 506 509 689
f 650 483 651
f 652 483 650
f 487 687 489
f 486 489 686
f 485 486 685
f 488 680 487
f 504 485 684
f 630 638 639
f 506 507 508
f 509 506 508
f 689 509 624
f 483 512 510
f 494 628 516
f 513 516 628
f 513 628 514
f 494 516 515
f 517 511 518
f 518 512 517
f 619 628 622
f 628 624 622
f 622 624 621
f 624 509 623
f 624 625 620
f 674 502 675
f 650 491 652
f 680 488 651
f 651 483 680
f 680 483 682
f 503 504 683
f 682 484 679
f 676 502 678
f 675 502 676
f 651 490 650
f 672 498 674
f 671 498 672
f 670 498 671
f 502 503 678
f 502 674 498
f 669 497 670
f 668 497 669
f 667 497 668
f 652 493 653
f 653 493 681
f 678 503 683
f 683 504 684
f 487 680 682
f 684 485 685
f 685 486 686
f 687 487 682
f 686 489 687
f 662 499 656
f 655 500 658
f 656 499 655
f 658 500 659
f 657 654 658
f 654 656 655
f 647 633 646
f 645 637 646
f 639 637 645
f 638 637 639
f 644 637 638
f 644 641 637
f 691 636 649
f 649 635 648
f 648 634 647
f 641 640 637
f 646 632 645
f 629 644 638
f 644 631 641
f 640 479 642
f 642 481 643
f 641 480 640
f 645 630 639
f 364 350 351
f 646 637 697
f 501 495 660
f 500 655 499
f 662 482 499
f 501 659 500
f 496 665 495
f 498 670 497
f 496 497 667
f 657 673 478
f 659 501 660
f 660 495 664
f 664 495 665
f 679 478 673
f 665 496 666
f 666 496 667
f 115 221 295
f 219 101 108
f 216 106 107
f 107 101 217
f 101 114 108
f 107 100 101
f 254 267 266
f 219 115 220
f 220 218 219
f 220 115 257
f 115 108 221
f 369 216 218
f 221 108 478
f 223 261 222
f 222 260 245
f 100 365 101
f 224 272 225
f 224 254 271
f 228 229 227
f 229 228 230
f 230 228 226
f 218 220 237
f 231 230 232
f 232 235 233
f 233 235 234
f 235 232 236
f 221 478 237
f 218 484 483
f 484 218 237
f 238 245 242
f 114 109 111
f 219 108 115
f 101 219 217
f 107 217 216
f 477 114 476
f 114 113 476
f 477 108 114
f 113 102 476
f 473 110 474
f 367 110 473
f 110 109 474
f 474 109 365
f 367 103 110
f 114 112 113
f 114 111 112
f 266 269 270
f 110 111 109
f 111 103 112
f 110 103 111
f 112 102 113
f 103 102 112
f 114 101 109
f 108 477 368
f 102 366 476
f 216 369 106
f 366 103 367
f 102 103 366
f 101 365 109
f 369 99 106
f 100 99 369
f 256 309 310
f 267 245 265
f 260 222 261
f 261 223 262
f 265 260 259
f 259 263 258
f 257 316 317
f 257 315 316
f 257 314 315
f 257 313 314
f 257 312 313
f 257 311 312
f 257 256 311
f 310 311 256
f 257 115 256
f 226 241 242
f 256 308 309
f 256 307 308
f 256 306 307
f 256 283 306
f 235 236 337
f 236 249 362
f 295 221 237
f 254 224 255
f 254 255 253
f 248 251 252
f 254 251 236
f 251 250 249
f 236 251 249
f 236 232 254
f 260 263 259
f 240 242 241
f 245 260 265
f 230 226 245
f 245 226 242
f 242 239 243
f 232 230 267
f 244 246 245
f 222 245 246
f 230 245 267
f 254 232 267
f 241 226 327
f 226 228 328
f 227 229 330
f 228 227 329
f 229 230 331
f 237 220 257
f 265 259 264
f 266 270 271
f 268 274 270
f 239 242 240
f 250 251 248
f 251 254 247
f 234 235 336
f 232 233 335
f 233 234 334
f 232 333 231
f 230 231 332
f 78 61 77
f 79 62 80
f 81 64 79
f 104 106 54
f 82 65 66
f 67 83 66
f 67 68 85
f 82 66 83
f 83 67 84
f 84 67 85
f 85 69 86
f 105 36 82
f 105 82 83
f 105 83 84
f 105 84 85
f 105 85 86
f 105 86 87
f 105 87 88
f 105 88 89
f 105 90 91
f 105 89 90
f 66 49 67
f 1 104 6
f 55 106 56
f 56 106 57
f 57 106 58
f 106 61 63
f 106 63 62
f 64 106 62
f 58 106 64
f 54 106 55
f 65 48 66
f 77 60 76
f 67 50 68
f 68 51 69
f 69 52 70
f 70 53 71
f 71 54 72
f 72 55 73
f 73 56 74
f 74 57 75
f 75 58 81
f 80 63 78
f 100 92 47
f 75 81 97
f 98 75 97
f 97 81 96
f 107 105 91
f 107 91 98
f 107 98 97
f 43 100 44
f 100 45 44
f 100 46 45
f 100 47 46
f 95 78 94
f 100 93 92
f 106 99 61
f 93 100 107
f 94 107 95
f 93 107 94
f 107 97 96
f 95 107 96
f 106 104 107
f 107 104 105
f 90 74 91
f 70 86 69
f 71 87 70
f 71 72 89
f 72 73 90
f 90 73 74
f 75 91 74
f 86 70 87
f 87 71 88
f 88 71 89
f 89 72 90
f 85 68 69
f 91 75 98
f 77 76 92
f 78 77 93
f 81 79 96
f 80 78 95
f 96 79 80
f 96 80 95
f 93 77 92
f 78 93 94
f 28 13 27
f 15 14 29
f 16 15 30
f 59 16 31
f 17 2 18
f 19 4 17
f 20 5 19
f 18 3 21
f 21 6 22
f 22 7 65
f 23 8 20
f 24 9 23
f 25 10 24
f 26 11 25
f 27 12 26
f 14 13 28
f 29 14 28
f 30 15 29
f 31 16 30
f 76 59 31
f 32 33 34
f 37 39 32
f 39 33 32
f 38 37 32
f 105 1 32
f 21 34 18
f 21 22 36
f 22 65 82
f 33 18 34
f 34 21 35
f 6 7 22
f 1 6 3
f 1 3 2
f 4 5 1
f 4 1 2
f 5 8 1
f 8 9 1
f 9 10 1
f 10 11 1
f 99 1 11
f 4 2 17
f 2 3 18
f 5 4 19
f 8 5 20
f 6 21 3
f 36 22 82
f 7 48 65
f 9 8 23
f 10 9 24
f 11 10 25
f 12 11 26
f 99 11 12
f 99 12 13
f 14 99 13
f 15 99 14
f 16 99 15
f 59 99 16
f 60 99 59
f 61 99 60
f 13 12 27
f 48 49 66
f 76 31 92
f 45 28 44
f 30 45 46
f 47 30 46
f 92 31 47
f 7 6 104
f 48 7 104
f 48 104 49
f 49 104 50
f 50 104 51
f 51 104 52
f 52 104 53
f 53 104 54
f 104 1 105
f 31 30 47
f 49 50 67
f 50 51 68
f 51 52 69
f 52 53 70
f 53 54 71
f 54 55 72
f 55 56 73
f 56 57 74
f 57 58 75
f 64 81 58
f 63 61 78
f 60 59 76
f 61 60 77
f 64 62 79
f 26 25 41
f 35 21 36
f 105 32 36
f 32 34 35
f 36 32 35
f 32 99 100
f 32 100 38
f 38 100 40
f 40 100 41
f 41 100 42
f 42 100 43
f 20 19 37
f 23 20 38
f 24 23 40
f 25 24 40
f 62 63 80
f 19 33 39
f 37 19 39
f 38 20 37
f 40 23 38
f 41 25 40
f 26 41 42
f 18 33 17
f 19 17 33
f 27 26 43
f 43 26 42
f 44 27 43
f 28 27 44
f 29 28 45
f 30 29 45
f 99 32 1
f 385 384 399
f 371 373 388
f 374 375 390
f 375 418 435
f 374 389 372
f 376 371 386
f 377 376 391
f 378 377 392
f 379 378 393
f 380 379 394
f 381 380 395
f 382 381 396
f 383 382 397
f 384 383 398
f 373 372 387
f 428 385 400
f 386 371 388
f 388 373 387
f 389 374 390
f 390 375 435
f 387 372 389
f 391 376 386
f 392 377 391
f 393 378 392
f 394 379 393
f 395 380 394
f 396 381 395
f 470 454 455
f 464 400 417
f 417 399 416
f 399 415 416
f 374 369 469
f 405 370 404
f 370 403 404
f 407 370 406
f 406 370 405
f 470 370 407
f 470 407 452
f 470 452 453
f 470 453 454
f 397 382 396
f 470 455 456
f 457 470 456
f 401 369 380
f 369 401 370
f 376 369 371
f 371 369 373
f 369 372 373
f 369 374 372
f 377 369 376
f 378 369 377
f 379 369 378
f 380 369 379
f 397 396 414
f 407 390 452
f 404 387 405
f 392 391 408
f 393 392 409
f 394 393 409
f 395 394 410
f 396 395 412
f 408 391 402
f 409 392 408
f 410 394 409
f 395 410 411
f 412 395 411
f 414 396 412
f 407 406 389
f 398 397 415
f 370 401 413
f 409 408 413
f 410 409 413
f 411 410 413
f 412 411 413
f 414 412 413
f 415 414 413
f 399 398 415
f 400 399 417
f 445 400 464
f 415 397 414
f 401 471 413
f 398 383 397
f 399 384 398
f 400 385 399
f 445 428 400
f 401 380 381
f 401 381 382
f 401 382 383
f 401 383 384
f 401 384 385
f 401 385 428
f 428 429 401
f 429 430 401
f 417 416 413
f 370 402 403
f 370 408 402
f 370 413 408
f 391 386 402
f 404 403 386
f 402 386 403
f 388 387 404
f 389 405 387
f 386 388 404
f 389 390 407
f 390 435 452
f 405 389 406
f 456 440 457
f 462 448 463
f 460 444 462
f 459 442 460
f 458 441 459
f 448 449 461
f 448 462 444
f 460 443 444
f 442 443 460
f 441 442 459
f 451 450 468
f 449 451 468
f 457 441 458
f 461 449 468
f 441 457 440
f 455 439 456
f 455 454 437
f 453 437 454
f 452 436 453
f 440 456 439
f 455 438 439
f 437 438 455
f 437 453 436
f 452 435 436
f 430 471 401
f 433 434 471
f 467 447 466
f 469 472 471
f 472 469 470
f 416 415 413
f 468 467 472
f 463 461 472
f 461 468 472
f 472 462 463
f 465 413 472
f 467 466 472
f 466 465 472
f 413 471 472
f 468 450 467
f 430 433 471
f 465 446 464
f 447 465 466
f 450 447 467
f 447 446 465
f 446 445 464
f 472 470 462
f 462 470 460
f 460 470 459
f 459 470 458
f 458 470 457
f 463 448 461
f 420 469 421
f 432 449 431
f 427 431 448
f 433 430 447
f 430 429 446
f 429 428 445
f 426 427 444
f 425 426 443
f 424 425 442
f 423 424 441
f 469 424 423
f 469 423 422
f 421 469 422
f 434 433 450
f 419 469 420
f 418 469 419
f 375 469 418
f 374 469 375
f 422 423 440
f 421 422 439
f 420 421 438
f 419 420 437
f 418 419 436
f 464 413 465
f 464 417 413
f 447 430 446
f 471 432 431
f 432 471 434
f 427 471 431
f 426 471 427
f 425 471 426
f 424 471 425
f 469 471 424
f 451 434 450
f 449 432 451
f 448 431 449
f 450 433 447
f 446 429 445
f 444 427 448
f 443 426 444
f 442 425 443
f 441 424 442
f 440 423 441
f 439 422 440
f 438 421 439
f 437 420 438
f 436 419 437
f 435 418 436
f 432 434 451
f 134 132 148
f 155 138 153
f 153 135 152
f 152 134 154
f 156 140 155
f 141 156 157
f 133 148 132
f 142 141 158
f 134 148 154
f 141 140 156
f 140 139 155
f 139 138 155
f 138 135 153
f 210 219 211
f 219 214 213
f 135 134 152
f 212 219 213
f 203 151 198
f 187 188 206
f 187 204 186
f 186 202 185
f 201 184 185
f 207 208 203
f 206 207 203
f 205 206 203
f 204 205 203
f 203 202 204
f 203 201 202
f 219 163 203
f 203 200 201
f 203 199 200
f 203 198 199
f 188 189 207
f 201 185 202
f 200 183 201
f 199 183 200
f 198 182 199
f 183 184 201
f 183 199 182
f 198 181 182
f 218 163 219
f 163 218 170
f 197 180 195
f 195 178 196
f 194 177 193
f 193 176 192
f 196 179 194
f 213 196 212
f 217 209 162
f 217 162 161
f 217 161 160
f 217 160 159
f 158 217 159
f 219 215 214
f 219 208 215
f 219 203 208
f 214 197 213
f 215 191 214
f 191 197 214
f 212 194 211
f 194 210 211
f 210 193 209
f 191 174 197
f 213 195 196
f 196 194 212
f 197 195 213
f 194 193 210
f 193 192 209
f 208 191 215
f 207 190 208
f 206 188 207
f 205 187 206
f 204 187 205
f 202 186 204
f 191 208 190
f 207 189 190
f 164 163 165
f 171 172 189
f 170 171 188
f 169 170 187
f 168 169 186
f 167 168 185
f 166 167 184
f 165 166 183
f 164 165 182
f 163 116 203
f 169 163 170
f 168 163 169
f 167 163 168
f 166 163 167
f 165 163 166
f 172 173 190
f 164 122 163
f 122 121 163
f 209 146 162
f 162 145 161
f 145 160 161
f 160 143 159
f 192 146 209
f 146 145 162
f 145 144 160
f 144 143 160
f 143 142 159
f 159 142 158
f 158 141 157
f 218 179 178
f 190 173 191
f 189 172 190
f 188 171 189
f 187 170 188
f 186 169 187
f 185 168 186
f 184 167 185
f 183 166 184
f 182 165 183
f 181 164 182
f 174 218 180
f 180 218 178
f 216 177 218
f 210 217 219
f 217 210 209
f 218 177 179
f 173 218 174
f 172 218 173
f 211 219 212
f 171 218 172
f 170 218 171
f 178 179 196
f 180 178 195
f 177 176 193
f 176 175 192
f 179 177 194
f 180 197 174
f 173 174 191
f 175 216 131
f 124 123 138
f 125 124 139
f 126 125 140
f 127 126 141
f 216 126 127
f 216 127 128
f 129 216 128
f 130 216 129
f 131 216 130
f 122 164 181
f 176 216 175
f 177 216 176
f 128 127 142
f 129 128 143
f 130 129 144
f 131 130 145
f 175 131 146
f 132 117 133
f 124 125 116
f 216 147 116
f 116 163 121
f 116 121 118
f 116 118 117
f 119 120 116
f 119 116 117
f 120 123 116
f 123 124 116
f 157 217 158
f 125 126 116
f 216 116 126
f 119 117 132
f 117 118 133
f 120 119 134
f 123 120 135
f 121 136 118
f 121 122 137
f 203 147 151
f 203 116 147
f 136 149 133
f 136 137 151
f 137 181 198
f 148 133 149
f 149 136 150
f 151 137 198
f 150 136 151
f 135 120 134
f 147 149 150
f 151 147 150
f 147 216 217
f 147 217 153
f 134 119 132
f 153 217 155
f 155 217 156
f 156 217 157
f 154 148 147
f 133 118 136
f 136 121 137
f 153 152 147
f 137 122 181
f 138 123 135
f 139 124 138
f 140 125 139
f 141 126 140
f 142 127 141
f 143 128 142
f 144 129 143
f 145 130 144
f 146 131 145
f 192 175 146
f 147 148 149
f 152 154 147
f 544 529 543
f 543 528 542
f 542 527 541
f 541 526 540
f 545 530 544
f 540 525 539
f 539 524 534
f 535 520 537
f 538 523 583
f 537 522 538
f 536 521 535
f 530 529 544
f 534 519 536
f 576 533 548
f 533 532 547
f 532 531 546
f 531 530 545
f 549 532 533
f 539 534 550
f 511 556 550
f 511 550 551
f 549 600 561
f 577 578 549
f 576 577 549
f 511 561 556
f 549 533 576
f 546 531 545
f 549 531 532
f 549 530 531
f 549 529 530
f 549 528 529
f 593 576 548
f 548 533 547
f 547 532 546
f 518 601 602
f 519 510 521
f 524 510 519
f 510 549 511
f 549 510 528
f 606 518 605
f 518 604 605
f 518 603 604
f 518 602 603
f 510 520 521
f 518 555 601
f 511 555 518
f 554 511 553
f 555 511 554
f 511 551 552
f 553 511 552
f 510 512 522
f 529 528 543
f 510 522 520
f 525 510 524
f 526 510 525
f 527 510 526
f 528 510 527
f 521 520 535
f 519 521 536
f 522 523 538
f 523 566 583
f 522 537 520
f 524 519 534
f 525 524 539
f 526 525 540
f 527 526 541
f 528 527 542
f 585 602 584
f 575 600 579
f 580 600 582
f 600 580 579
f 581 582 600
f 578 581 600
f 578 600 549
f 512 618 600
f 601 583 584
f 574 600 575
f 585 586 604
f 604 586 587
f 588 605 587
f 617 616 618
f 612 610 618
f 610 617 618
f 618 611 612
f 614 561 618
f 595 578 594
f 586 569 587
f 587 570 588
f 588 571 589
f 589 572 590
f 590 573 591
f 591 574 592
f 592 575 596
f 594 577 593
f 616 615 618
f 598 581 595
f 596 579 597
f 597 580 599
f 599 582 598
f 512 600 572
f 572 600 573
f 573 600 574
f 589 590 608
f 611 596 612
f 609 592 611
f 608 590 609
f 607 589 608
f 596 597 610
f 596 611 592
f 609 591 592
f 590 591 609
f 610 597 617
f 599 598 617
f 597 599 617
f 606 589 607
f 605 588 606
f 589 606 588
f 604 587 605
f 604 603 585
f 602 585 603
f 594 593 613
f 615 614 618
f 561 600 618
f 617 598 616
f 616 595 615
f 614 594 613
f 595 614 615
f 598 595 616
f 595 594 614
f 585 568 586
f 618 518 611
f 611 518 609
f 609 518 608
f 608 518 607
f 607 518 606
f 618 512 518
f 612 596 610
f 557 556 561
f 557 540 556
f 558 542 557
f 543 558 559
f 560 543 559
f 562 544 560
f 545 544 562
f 546 545 563
f 511 549 561
f 556 539 550
f 558 557 561
f 559 558 561
f 560 559 561
f 562 560 561
f 563 562 561
f 547 546 563
f 548 547 565
f 593 548 613
f 555 554 537
f 552 551 534
f 550 534 551
f 536 535 552
f 537 553 535
f 534 536 552
f 537 538 555
f 538 583 601
f 553 537 554
f 563 545 562
f 555 538 601
f 552 535 553
f 540 539 556
f 541 540 557
f 542 541 557
f 543 542 558
f 544 543 560
f 578 577 594
f 569 512 570
f 512 571 570
f 512 572 571
f 571 572 589
f 572 573 590
f 573 574 591
f 574 575 592
f 577 576 593
f 568 512 569
f 581 578 595
f 575 579 596
f 580 597 579
f 582 581 598
f 580 582 599
f 583 566 584
f 584 567 585
f 567 568 585
f 547 563 564
f 565 547 564
f 613 548 565
f 564 563 561
f 565 564 561
f 613 565 561
f 613 561 614
f 566 567 584
f 601 584 602
f 568 569 586
f 569 570 587
f 570 571 588
f 522 512 523
f 523 512 566
f 566 512 567
f 567 512 568

