ISO-10303-21;
HEADER;
/* Generated by software containing ST-Developer
 * from STEP Tools, Inc. (www.steptools.com) 
 */

FILE_DESCRIPTION(
/* description */ (''),
/* implementation_level */ '2;1');

FILE_NAME(
/* name */ 
'C:\\Users\\designnet\\AppData\\Local\\Temp\\derivatives\\23211_3aac9c
7e\\AssemblyExtractor\\23211_3aac9c7e\\0a1ede76-05f1-11ec-9094-0ac5158
7b959.step',
/* time_stamp */ '2021-08-25T22:09:02+00:00',
/* author */ (''),
/* organization */ (''),
/* preprocessor_version */ 'ST-DEVELOPER v18.1',
/* originating_system */ 'Autodesk Translation Framework v10.6.0.1341',

/* authorisation */ '');

FILE_SCHEMA (('AUTOMOTIVE_DESIGN { 1 0 10303 214 3 1 1 }'));
ENDSEC;

DATA;
#10=MECHANICAL_DESIGN_GEOMETRIC_PRESENTATION_REPRESENTATION('',(#13),#226);
#11=SHAPE_REPRESENTATION_RELATIONSHIP('SRR','None',#233,#12);
#12=ADVANCED_BREP_SHAPE_REPRESENTATION('',(#14),#225);
#13=STYLED_ITEM('',(#242),#14);
#14=MANIFOLD_SOLID_BREP('Body1',#88);
#15=PLANE('',#106);
#16=PLANE('',#107);
#17=FACE_BOUND('',#26,.T.);
#18=CIRCLE('',#104,0.3175);
#19=CIRCLE('',#105,0.3175);
#20=FACE_OUTER_BOUND('',#24,.T.);
#21=FACE_OUTER_BOUND('',#25,.T.);
#22=FACE_OUTER_BOUND('',#27,.T.);
#23=FACE_OUTER_BOUND('',#28,.T.);
#24=EDGE_LOOP('',(#60,#61,#62,#63,#64,#65,#66,#67));
#25=EDGE_LOOP('',(#68,#69,#70,#71,#72,#73,#74,#75,#76));
#26=EDGE_LOOP('',(#77,#78,#79));
#27=EDGE_LOOP('',(#80));
#28=EDGE_LOOP('',(#81));
#29=LINE('',#159,#32);
#30=LINE('',#217,#33);
#31=LINE('',#219,#34);
#32=VECTOR('',#112,0.15875);
#33=VECTOR('',#117,0.3175);
#34=VECTOR('',#118,0.3175);
#35=B_SPLINE_CURVE_WITH_KNOTS('',3,(#129,#130,#131,#132,#133,#134,#135,
#136,#137,#138,#139,#140,#141,#142,#143,#144,#145,#146),.UNSPECIFIED.,.F.,
 .F.,(4,2,2,2,2,2,2,2,4),(0.244088000585892,0.305026712738905,0.365965424891917,
0.427070713031851,0.488176001171785,0.54928128931172,0.610386577451654,
0.671325289604666,0.732264001757679),.UNSPECIFIED.);
#36=B_SPLINE_CURVE_WITH_KNOTS('',3,(#148,#149,#150,#151,#152,#153,#154,
#155,#156,#157),.UNSPECIFIED.,.F.,.F.,(4,2,2,2,4),(0.976352002343571,1.03745729048351,
1.09856257862344,1.15950129077645,1.22044000292946),.UNSPECIFIED.);
#37=B_SPLINE_CURVE_WITH_KNOTS('',3,(#161,#162,#163,#164,#165,#166,#167,
#168,#169,#170),.UNSPECIFIED.,.F.,.F.,(4,2,2,2,4),(0.748190764630415,0.79320271391069,
0.854141426063703,0.915246714203637,0.976352002343571),.UNSPECIFIED.);
#38=B_SPLINE_CURVE_WITH_KNOTS('',3,(#172,#173,#174,#175,#176,#177,#178,
#179,#180,#181,#182,#183,#184,#185,#186,#187,#188,#189,#190,#191,#192,#193),
 .UNSPECIFIED.,.F.,.F.,(4,2,2,2,2,2,2,2,2,2,4),(0.228161237713166,0.244088000585894,
0.305026712738906,0.365965424891918,0.427070713031852,0.488176001171786,
0.54928128931172,0.610386577451654,0.671325289604666,0.732264001757678,
0.748190764630415),.UNSPECIFIED.);
#39=B_SPLINE_CURVE_WITH_KNOTS('',3,(#194,#195,#196,#197,#198,#199,#200,
#201,#202,#203),.UNSPECIFIED.,.F.,.F.,(4,2,2,2,4),(0.,0.0611052881399344,
0.122210576279869,0.183149288432881,0.228161237713166),.UNSPECIFIED.);
#40=B_SPLINE_CURVE_WITH_KNOTS('',3,(#204,#205,#206,#207,#208,#209,#210,
#211,#212,#213),.UNSPECIFIED.,.F.,.F.,(4,2,2,2,4),(0.732264001757679,0.793202713910691,
0.854141426063702,0.915246714203637,0.976352002343571),.UNSPECIFIED.);
#41=VERTEX_POINT('',#127);
#42=VERTEX_POINT('',#128);
#43=VERTEX_POINT('',#147);
#44=VERTEX_POINT('',#158);
#45=VERTEX_POINT('',#160);
#46=VERTEX_POINT('',#171);
#47=VERTEX_POINT('',#215);
#48=VERTEX_POINT('',#218);
#49=EDGE_CURVE('',#41,#42,#35,.T.);
#50=EDGE_CURVE('',#43,#41,#36,.T.);
#51=EDGE_CURVE('',#43,#44,#29,.T.);
#52=EDGE_CURVE('',#45,#44,#37,.T.);
#53=EDGE_CURVE('',#46,#45,#38,.T.);
#54=EDGE_CURVE('',#44,#46,#39,.T.);
#55=EDGE_CURVE('',#42,#43,#40,.T.);
#56=EDGE_CURVE('',#47,#47,#18,.T.);
#57=EDGE_CURVE('',#47,#45,#30,.T.);
#58=EDGE_CURVE('',#46,#48,#31,.T.);
#59=EDGE_CURVE('',#48,#48,#19,.T.);
#60=ORIENTED_EDGE('',*,*,#49,.F.);
#61=ORIENTED_EDGE('',*,*,#50,.F.);
#62=ORIENTED_EDGE('',*,*,#51,.T.);
#63=ORIENTED_EDGE('',*,*,#52,.F.);
#64=ORIENTED_EDGE('',*,*,#53,.F.);
#65=ORIENTED_EDGE('',*,*,#54,.F.);
#66=ORIENTED_EDGE('',*,*,#51,.F.);
#67=ORIENTED_EDGE('',*,*,#55,.F.);
#68=ORIENTED_EDGE('',*,*,#56,.F.);
#69=ORIENTED_EDGE('',*,*,#57,.T.);
#70=ORIENTED_EDGE('',*,*,#52,.T.);
#71=ORIENTED_EDGE('',*,*,#54,.T.);
#72=ORIENTED_EDGE('',*,*,#58,.T.);
#73=ORIENTED_EDGE('',*,*,#59,.F.);
#74=ORIENTED_EDGE('',*,*,#58,.F.);
#75=ORIENTED_EDGE('',*,*,#53,.T.);
#76=ORIENTED_EDGE('',*,*,#57,.F.);
#77=ORIENTED_EDGE('',*,*,#49,.T.);
#78=ORIENTED_EDGE('',*,*,#55,.T.);
#79=ORIENTED_EDGE('',*,*,#50,.T.);
#80=ORIENTED_EDGE('',*,*,#59,.T.);
#81=ORIENTED_EDGE('',*,*,#56,.T.);
#82=CYLINDRICAL_SURFACE('',#102,0.15875);
#83=CYLINDRICAL_SURFACE('',#103,0.3175);
#84=ADVANCED_FACE('',(#20),#82,.F.);
#85=ADVANCED_FACE('',(#21,#17),#83,.T.);
#86=ADVANCED_FACE('',(#22),#15,.T.);
#87=ADVANCED_FACE('',(#23),#16,.T.);
#88=CLOSED_SHELL('',(#84,#85,#86,#87));
#89=DERIVED_UNIT_ELEMENT(#91,1.);
#90=DERIVED_UNIT_ELEMENT(#228,-3.);
#91=(
MASS_UNIT()
NAMED_UNIT(*)
SI_UNIT(.KILO.,.GRAM.)
);
#92=DERIVED_UNIT((#89,#90));
#93=MEASURE_REPRESENTATION_ITEM('density measure',
POSITIVE_RATIO_MEASURE(7850.),#92);
#94=PROPERTY_DEFINITION_REPRESENTATION(#99,#96);
#95=PROPERTY_DEFINITION_REPRESENTATION(#100,#97);
#96=REPRESENTATION('material name',(#98),#225);
#97=REPRESENTATION('density',(#93),#225);
#98=DESCRIPTIVE_REPRESENTATION_ITEM('Steel','Steel');
#99=PROPERTY_DEFINITION('material property','material name',#235);
#100=PROPERTY_DEFINITION('material property','density of part',#235);
#101=AXIS2_PLACEMENT_3D('placement',#125,#108,#109);
#102=AXIS2_PLACEMENT_3D('',#126,#110,#111);
#103=AXIS2_PLACEMENT_3D('',#214,#113,#114);
#104=AXIS2_PLACEMENT_3D('',#216,#115,#116);
#105=AXIS2_PLACEMENT_3D('',#220,#119,#120);
#106=AXIS2_PLACEMENT_3D('',#221,#121,#122);
#107=AXIS2_PLACEMENT_3D('',#222,#123,#124);
#108=DIRECTION('axis',(0.,0.,1.));
#109=DIRECTION('refdir',(1.,0.,0.));
#110=DIRECTION('center_axis',(-0.998712664129229,0.0507248904178029,-1.23259516440783E-32));
#111=DIRECTION('ref_axis',(0.0507248904178029,0.998712664129229,0.));
#112=DIRECTION('',(-0.998712664129229,0.0507248904178029,-1.23259516440783E-32));
#113=DIRECTION('center_axis',(0.,0.,1.));
#114=DIRECTION('ref_axis',(1.,0.,0.));
#115=DIRECTION('center_axis',(0.,0.,1.));
#116=DIRECTION('ref_axis',(1.,0.,0.));
#117=DIRECTION('',(0.,0.,-1.));
#118=DIRECTION('',(0.,0.,-1.));
#119=DIRECTION('center_axis',(0.,0.,-1.));
#120=DIRECTION('ref_axis',(1.,0.,0.));
#121=DIRECTION('center_axis',(0.,0.,-1.));
#122=DIRECTION('ref_axis',(-1.,0.,0.));
#123=DIRECTION('center_axis',(0.,0.,1.));
#124=DIRECTION('ref_axis',(1.,0.,0.));
#125=CARTESIAN_POINT('',(0.,0.,0.));
#126=CARTESIAN_POINT('Origin',(18.3122880782634,19.1648736107974,0.635000000000007));
#127=CARTESIAN_POINT('',(20.8910919274658,19.0338954552597,0.793750000000007));
#128=CARTESIAN_POINT('',(20.8910919274658,19.0338954552597,0.476250000000007));
#129=CARTESIAN_POINT('Ctrl Pts',(20.8910919274658,19.0338954552597,0.793750000000007));
#130=CARTESIAN_POINT('Ctrl Pts',(20.8921222972979,19.0541822097807,0.793750000000008));
#131=CARTESIAN_POINT('Ctrl Pts',(20.8910835278653,19.075692218535,0.789616770056733));
#132=CARTESIAN_POINT('Ctrl Pts',(20.885400761259,19.1150512091056,0.773297456438038));
#133=CARTESIAN_POINT('Ctrl Pts',(20.8808405528232,19.1329197790109,0.761129556694992));
#134=CARTESIAN_POINT('Ctrl Pts',(20.8717598769519,19.1612074524201,0.733338915310935));
#135=CARTESIAN_POINT('Ctrl Pts',(20.8665880586421,19.1736258489393,0.715737449571874));
#136=CARTESIAN_POINT('Ctrl Pts',(20.8589530389984,19.1903314190187,0.676773252950555));
#137=CARTESIAN_POINT('Ctrl Pts',(20.8566623288425,19.1945987720212,0.655368429379985));
#138=CARTESIAN_POINT('Ctrl Pts',(20.8566623288425,19.1945987720212,0.614631570620029));
#139=CARTESIAN_POINT('Ctrl Pts',(20.8589530389984,19.1903314190187,0.593226747049459));
#140=CARTESIAN_POINT('Ctrl Pts',(20.8665880586421,19.1736258489393,0.554262550428141));
#141=CARTESIAN_POINT('Ctrl Pts',(20.8717598769519,19.1612074524201,0.536661084689079));
#142=CARTESIAN_POINT('Ctrl Pts',(20.8808405528232,19.1329197790109,0.508870443305022));
#143=CARTESIAN_POINT('Ctrl Pts',(20.885400761259,19.1150512091056,0.496702543561976));
#144=CARTESIAN_POINT('Ctrl Pts',(20.8910835278653,19.075692218535,0.480383229943281));
#145=CARTESIAN_POINT('Ctrl Pts',(20.8921222972979,19.0541822097807,0.476250000000007));
#146=CARTESIAN_POINT('Ctrl Pts',(20.8910919274658,19.0338954552597,0.476250000000007));
#147=CARTESIAN_POINT('',(20.8405571761349,18.8775075011602,0.635000000000007));
#148=CARTESIAN_POINT('Ctrl Pts',(20.8405571761349,18.8775075011602,0.635000000000007));
#149=CARTESIAN_POINT('Ctrl Pts',(20.8405571761349,18.8775075011602,0.655368429379986));
#150=CARTESIAN_POINT('Ctrl Pts',(20.8432684629406,18.8815208013637,0.676773252950555));
#151=CARTESIAN_POINT('Ctrl Pts',(20.8525567872285,18.8973668301584,0.715737449571875));
#152=CARTESIAN_POINT('Ctrl Pts',(20.8589602129746,18.9091973168538,0.733338915310934));
#153=CARTESIAN_POINT('Ctrl Pts',(20.8708602433235,18.9364193744337,0.761129556694991));
#154=CARTESIAN_POINT('Ctrl Pts',(20.877207413661,18.9537339555763,0.773297456438032));
#155=CARTESIAN_POINT('Ctrl Pts',(20.8868487572708,18.9923146303816,0.78961677005673));
#156=CARTESIAN_POINT('Ctrl Pts',(20.8900615576337,19.0136087007387,0.793750000000007));
#157=CARTESIAN_POINT('Ctrl Pts',(20.8910919274658,19.0338954552597,0.793750000000007));
#158=CARTESIAN_POINT('',(20.291338984367,18.9054024439135,0.635000000000007));
#159=CARTESIAN_POINT('',(18.3042355019096,19.0063279753669,0.635000000000007));
#160=CARTESIAN_POINT('',(20.2565006566048,19.0500006079662,0.792930955028416));
#161=CARTESIAN_POINT('Ctrl Pts',(20.2565006566048,19.0500006079649,0.792930955028415));
#162=CARTESIAN_POINT('Ctrl Pts',(20.2565006566049,19.0346944497063,0.791372104975843));
#163=CARTESIAN_POINT('Ctrl Pts',(20.2576604009411,19.0191656222973,0.787484186112405));
#164=CARTESIAN_POINT('Ctrl Pts',(20.2626005519505,18.9849500068291,0.773297456438035));
#165=CARTESIAN_POINT('Ctrl Pts',(20.2671607603864,18.9670814369239,0.761129556694992));
#166=CARTESIAN_POINT('Ctrl Pts',(20.2762414362576,18.9387937635146,0.733338915310934));
#167=CARTESIAN_POINT('Ctrl Pts',(20.2814132545675,18.9263753669955,0.715737449571874));
#168=CARTESIAN_POINT('Ctrl Pts',(20.2890482742111,18.9096697969161,0.676773252950555));
#169=CARTESIAN_POINT('Ctrl Pts',(20.291338984367,18.9054024439135,0.655368429379985));
#170=CARTESIAN_POINT('Ctrl Pts',(20.291338984367,18.9054024439135,0.635000000000007));
#171=CARTESIAN_POINT('',(20.2565006566048,19.0500006079662,0.477069044971598));
#172=CARTESIAN_POINT('Ctrl Pts',(20.2565006566048,19.050000607965,0.477069044971599));
#173=CARTESIAN_POINT('Ctrl Pts',(20.2565006566047,19.0554164488022,0.47651747065548));
#174=CARTESIAN_POINT('Ctrl Pts',(20.2566400913099,19.0608036740818,0.476250000000007));
#175=CARTESIAN_POINT('Ctrl Pts',(20.2579397555758,19.086392515196,0.476250000000007));
#176=CARTESIAN_POINT('Ctrl Pts',(20.2611525559387,19.1076865855531,0.480383229943282));
#177=CARTESIAN_POINT('Ctrl Pts',(20.2707938995486,19.1462672603584,0.496702543561979));
#178=CARTESIAN_POINT('Ctrl Pts',(20.277141069886,19.1635818415011,0.508870443305023));
#179=CARTESIAN_POINT('Ctrl Pts',(20.289041100235,19.1908038990809,0.536661084689079));
#180=CARTESIAN_POINT('Ctrl Pts',(20.2954445259811,19.2026343857764,0.55426255042814));
#181=CARTESIAN_POINT('Ctrl Pts',(20.3047328502689,19.218480414571,0.593226747049458));
#182=CARTESIAN_POINT('Ctrl Pts',(20.3074441370746,19.2224937147745,0.614631570620029));
#183=CARTESIAN_POINT('Ctrl Pts',(20.3074441370746,19.2224937147745,0.655368429379985));
#184=CARTESIAN_POINT('Ctrl Pts',(20.3047328502689,19.218480414571,0.676773252950556));
#185=CARTESIAN_POINT('Ctrl Pts',(20.2954445259811,19.2026343857764,0.715737449571874));
#186=CARTESIAN_POINT('Ctrl Pts',(20.289041100235,19.1908038990809,0.733338915310935));
#187=CARTESIAN_POINT('Ctrl Pts',(20.277141069886,19.1635818415011,0.761129556694992));
#188=CARTESIAN_POINT('Ctrl Pts',(20.2707938995486,19.1462672603584,0.773297456438036));
#189=CARTESIAN_POINT('Ctrl Pts',(20.2611525559387,19.1076865855531,0.789616770056732));
#190=CARTESIAN_POINT('Ctrl Pts',(20.2579397555758,19.086392515196,0.793750000000007));
#191=CARTESIAN_POINT('Ctrl Pts',(20.2566400913099,19.0608036740818,0.793750000000007));
#192=CARTESIAN_POINT('Ctrl Pts',(20.2565006566047,19.0554164488022,0.793482529344535));
#193=CARTESIAN_POINT('Ctrl Pts',(20.2565006566048,19.0500006079649,0.792930955028415));
#194=CARTESIAN_POINT('Ctrl Pts',(20.291338984367,18.9054024439135,0.635000000000007));
#195=CARTESIAN_POINT('Ctrl Pts',(20.291338984367,18.9054024439135,0.614631570620028));
#196=CARTESIAN_POINT('Ctrl Pts',(20.2890482742111,18.9096697969161,0.59322674704946));
#197=CARTESIAN_POINT('Ctrl Pts',(20.2814132545675,18.9263753669955,0.554262550428141));
#198=CARTESIAN_POINT('Ctrl Pts',(20.2762414362576,18.9387937635146,0.53666108468908));
#199=CARTESIAN_POINT('Ctrl Pts',(20.2671607603864,18.9670814369239,0.508870443305022));
#200=CARTESIAN_POINT('Ctrl Pts',(20.2626005519505,18.9849500068291,0.496702543561983));
#201=CARTESIAN_POINT('Ctrl Pts',(20.2576604009411,19.0191656222972,0.48251581388761));
#202=CARTESIAN_POINT('Ctrl Pts',(20.2565006566049,19.0346944497063,0.478627895024171));
#203=CARTESIAN_POINT('Ctrl Pts',(20.2565006566048,19.050000607965,0.477069044971598));
#204=CARTESIAN_POINT('Ctrl Pts',(20.8910919274658,19.0338954552597,0.476250000000007));
#205=CARTESIAN_POINT('Ctrl Pts',(20.8900615576337,19.0136087007387,0.476250000000007));
#206=CARTESIAN_POINT('Ctrl Pts',(20.8868487572708,18.9923146303816,0.480383229943284));
#207=CARTESIAN_POINT('Ctrl Pts',(20.877207413661,18.9537339555763,0.496702543561982));
#208=CARTESIAN_POINT('Ctrl Pts',(20.8708602433235,18.9364193744337,0.508870443305022));
#209=CARTESIAN_POINT('Ctrl Pts',(20.8589602129746,18.9091973168538,0.53666108468908));
#210=CARTESIAN_POINT('Ctrl Pts',(20.8525567872285,18.8973668301584,0.554262550428139));
#211=CARTESIAN_POINT('Ctrl Pts',(20.8432684629406,18.8815208013637,0.593226747049459));
#212=CARTESIAN_POINT('Ctrl Pts',(20.8405571761349,18.8775075011602,0.614631570620029));
#213=CARTESIAN_POINT('Ctrl Pts',(20.8405571761349,18.8775075011602,0.635000000000007));
#214=CARTESIAN_POINT('Origin',(20.5740006566048,19.0500006079674,1.82562500000001));
#215=CARTESIAN_POINT('',(20.2565006566048,19.0500006079674,3.65125000000001));
#216=CARTESIAN_POINT('Origin',(20.5740006566048,19.0500006079674,3.65125000000001));
#217=CARTESIAN_POINT('',(20.2565006566048,19.0500006079674,1.82562500000001));
#218=CARTESIAN_POINT('',(20.2565006566048,19.0500006079674,7.105427357601E-15));
#219=CARTESIAN_POINT('',(20.2565006566048,19.0500006079674,1.82562500000001));
#220=CARTESIAN_POINT('Origin',(20.5740006566048,19.0500006079674,7.105427357601E-15));
#221=CARTESIAN_POINT('Origin',(20.5740006566048,19.0500006079674,7.105427357601E-15));
#222=CARTESIAN_POINT('Origin',(20.5740006566048,19.0500006079674,3.65125000000001));
#223=UNCERTAINTY_MEASURE_WITH_UNIT(LENGTH_MEASURE(0.001),#227,
'DISTANCE_ACCURACY_VALUE',
'Maximum model space distance between geometric entities at asserted c
onnectivities');
#224=UNCERTAINTY_MEASURE_WITH_UNIT(LENGTH_MEASURE(0.001),#227,
'DISTANCE_ACCURACY_VALUE',
'Maximum model space distance between geometric entities at asserted c
onnectivities');
#225=(
GEOMETRIC_REPRESENTATION_CONTEXT(3)
GLOBAL_UNCERTAINTY_ASSIGNED_CONTEXT((#223))
GLOBAL_UNIT_ASSIGNED_CONTEXT((#227,#229,#230))
REPRESENTATION_CONTEXT('','3D')
);
#226=(
GEOMETRIC_REPRESENTATION_CONTEXT(3)
GLOBAL_UNCERTAINTY_ASSIGNED_CONTEXT((#224))
GLOBAL_UNIT_ASSIGNED_CONTEXT((#227,#229,#230))
REPRESENTATION_CONTEXT('','3D')
);
#227=(
LENGTH_UNIT()
NAMED_UNIT(*)
SI_UNIT(.CENTI.,.METRE.)
);
#228=(
LENGTH_UNIT()
NAMED_UNIT(*)
SI_UNIT($,.METRE.)
);
#229=(
NAMED_UNIT(*)
PLANE_ANGLE_UNIT()
SI_UNIT($,.RADIAN.)
);
#230=(
NAMED_UNIT(*)
SI_UNIT($,.STERADIAN.)
SOLID_ANGLE_UNIT()
);
#231=SHAPE_DEFINITION_REPRESENTATION(#232,#233);
#232=PRODUCT_DEFINITION_SHAPE('',$,#235);
#233=SHAPE_REPRESENTATION('',(#101),#225);
#234=PRODUCT_DEFINITION_CONTEXT('part definition',#239,'design');
#235=PRODUCT_DEFINITION('temp_body','temp_body',#236,#234);
#236=PRODUCT_DEFINITION_FORMATION('',$,#241);
#237=PRODUCT_RELATED_PRODUCT_CATEGORY('temp_body','temp_body',(#241));
#238=APPLICATION_PROTOCOL_DEFINITION('international standard',
'automotive_design',2009,#239);
#239=APPLICATION_CONTEXT(
'Core Data for Automotive Mechanical Design Process');
#240=PRODUCT_CONTEXT('part definition',#239,'mechanical');
#241=PRODUCT('temp_body','temp_body',$,(#240));
#242=PRESENTATION_STYLE_ASSIGNMENT((#243));
#243=SURFACE_STYLE_USAGE(.BOTH.,#244);
#244=SURFACE_SIDE_STYLE('',(#245));
#245=SURFACE_STYLE_FILL_AREA(#246);
#246=FILL_AREA_STYLE('Steel - Satin',(#247));
#247=FILL_AREA_STYLE_COLOUR('Steel - Satin',#248);
#248=COLOUR_RGB('Steel - Satin',0.627450980392157,0.627450980392157,0.627450980392157);
ENDSEC;
END-ISO-10303-21;
