ISO-10303-21;
HEADER;
/* Generated by software containing ST-Developer
 * from STEP Tools, Inc. (www.steptools.com) 
 */

FILE_DESCRIPTION(
/* description */ (''),
/* implementation_level */ '2;1');

FILE_NAME(
/* name */ 
'C:\\Users\\designnet\\AppData\\Local\\Temp\\derivatives\\23211_3aac9c
7e\\AssemblyExtractor\\23211_3aac9c7e\\0a1fa1b6-05f1-11ec-a441-0ac5158
7b959.step',
/* time_stamp */ '2021-08-25T22:09:03+00:00',
/* author */ (''),
/* organization */ (''),
/* preprocessor_version */ 'ST-DEVELOPER v18.1',
/* originating_system */ 'Autodesk Translation Framework v10.6.0.1341',

/* authorisation */ '');

FILE_SCHEMA (('AUTOMOTIVE_DESIGN { 1 0 10303 214 3 1 1 }'));
ENDSEC;

DATA;
#10=MECHANICAL_DESIGN_GEOMETRIC_PRESENTATION_REPRESENTATION('',(#13),#519);
#11=SHAPE_REPRESENTATION_RELATIONSHIP('SRR','None',#526,#12);
#12=ADVANCED_BREP_SHAPE_REPRESENTATION('',(#14),#518);
#13=STYLED_ITEM('',(#535),#14);
#14=MANIFOLD_SOLID_BREP('Body1',#305);
#15=FACE_BOUND('',#66,.T.);
#16=FACE_BOUND('',#67,.T.);
#17=FACE_BOUND('',#71,.T.);
#18=FACE_BOUND('',#72,.T.);
#19=FACE_BOUND('',#73,.T.);
#20=FACE_BOUND('',#75,.T.);
#21=PLANE('',#338);
#22=PLANE('',#339);
#23=PLANE('',#340);
#24=PLANE('',#341);
#25=PLANE('',#342);
#26=PLANE('',#343);
#27=PLANE('',#344);
#28=PLANE('',#345);
#29=PLANE('',#346);
#30=CYLINDRICAL_SURFACE('',#321,0.15875);
#31=CYLINDRICAL_SURFACE('',#325,0.15875);
#32=CYLINDRICAL_SURFACE('',#327,0.32639);
#33=CYLINDRICAL_SURFACE('',#332,0.15875);
#34=CYLINDRICAL_SURFACE('',#336,0.15875);
#35=FACE_OUTER_BOUND('',#53,.T.);
#36=FACE_OUTER_BOUND('',#54,.T.);
#37=FACE_OUTER_BOUND('',#55,.T.);
#38=FACE_OUTER_BOUND('',#56,.T.);
#39=FACE_OUTER_BOUND('',#57,.T.);
#40=FACE_OUTER_BOUND('',#58,.T.);
#41=FACE_OUTER_BOUND('',#59,.T.);
#42=FACE_OUTER_BOUND('',#60,.T.);
#43=FACE_OUTER_BOUND('',#61,.T.);
#44=FACE_OUTER_BOUND('',#62,.T.);
#45=FACE_OUTER_BOUND('',#63,.T.);
#46=FACE_OUTER_BOUND('',#64,.T.);
#47=FACE_OUTER_BOUND('',#65,.T.);
#48=FACE_OUTER_BOUND('',#68,.T.);
#49=FACE_OUTER_BOUND('',#69,.T.);
#50=FACE_OUTER_BOUND('',#70,.T.);
#51=FACE_OUTER_BOUND('',#74,.T.);
#52=FACE_OUTER_BOUND('',#76,.T.);
#53=EDGE_LOOP('',(#207,#208,#209));
#54=EDGE_LOOP('',(#210,#211,#212,#213));
#55=EDGE_LOOP('',(#214,#215,#216));
#56=EDGE_LOOP('',(#217,#218,#219,#220));
#57=EDGE_LOOP('',(#221,#222,#223,#224));
#58=EDGE_LOOP('',(#225,#226,#227));
#59=EDGE_LOOP('',(#228,#229,#230,#231));
#60=EDGE_LOOP('',(#232,#233,#234));
#61=EDGE_LOOP('',(#235,#236,#237,#238));
#62=EDGE_LOOP('',(#239,#240,#241,#242));
#63=EDGE_LOOP('',(#243,#244,#245,#246));
#64=EDGE_LOOP('',(#247,#248,#249,#250));
#65=EDGE_LOOP('',(#251,#252,#253,#254,#255,#256));
#66=EDGE_LOOP('',(#257));
#67=EDGE_LOOP('',(#258));
#68=EDGE_LOOP('',(#259,#260,#261,#262));
#69=EDGE_LOOP('',(#263,#264,#265,#266));
#70=EDGE_LOOP('',(#267,#268,#269,#270));
#71=EDGE_LOOP('',(#271));
#72=EDGE_LOOP('',(#272));
#73=EDGE_LOOP('',(#273));
#74=EDGE_LOOP('',(#274,#275,#276,#277));
#75=EDGE_LOOP('',(#278));
#76=EDGE_LOOP('',(#279,#280,#281,#282));
#77=LINE('',#438,#105);
#78=LINE('',#442,#106);
#79=LINE('',#447,#107);
#80=LINE('',#451,#108);
#81=LINE('',#456,#109);
#82=LINE('',#462,#110);
#83=LINE('',#466,#111);
#84=LINE('',#471,#112);
#85=LINE('',#475,#113);
#86=LINE('',#479,#114);
#87=LINE('',#481,#115);
#88=LINE('',#483,#116);
#89=LINE('',#484,#117);
#90=LINE('',#487,#118);
#91=LINE('',#489,#119);
#92=LINE('',#490,#120);
#93=LINE('',#493,#121);
#94=LINE('',#495,#122);
#95=LINE('',#496,#123);
#96=LINE('',#499,#124);
#97=LINE('',#501,#125);
#98=LINE('',#502,#126);
#99=LINE('',#503,#127);
#100=LINE('',#506,#128);
#101=LINE('',#507,#129);
#102=LINE('',#510,#130);
#103=LINE('',#511,#131);
#104=LINE('',#514,#132);
#105=VECTOR('',#353,0.079375);
#106=VECTOR('',#358,0.15875);
#107=VECTOR('',#363,0.079375);
#108=VECTOR('',#368,0.15875);
#109=VECTOR('',#373,0.32639);
#110=VECTOR('',#380,0.079375);
#111=VECTOR('',#385,0.15875);
#112=VECTOR('',#390,0.079375);
#113=VECTOR('',#395,0.15875);
#114=VECTOR('',#398,1.);
#115=VECTOR('',#399,1.);
#116=VECTOR('',#400,1.);
#117=VECTOR('',#401,1.);
#118=VECTOR('',#404,1.);
#119=VECTOR('',#405,1.);
#120=VECTOR('',#406,1.);
#121=VECTOR('',#409,1.);
#122=VECTOR('',#410,1.);
#123=VECTOR('',#411,1.);
#124=VECTOR('',#414,1.);
#125=VECTOR('',#415,1.);
#126=VECTOR('',#416,1.);
#127=VECTOR('',#417,1.);
#128=VECTOR('',#420,1.);
#129=VECTOR('',#421,1.);
#130=VECTOR('',#424,1.);
#131=VECTOR('',#425,1.);
#132=VECTOR('',#430,1.);
#133=CIRCLE('',#320,0.15875);
#134=CIRCLE('',#322,0.15875);
#135=CIRCLE('',#324,0.15875);
#136=CIRCLE('',#326,0.15875);
#137=CIRCLE('',#328,0.32639);
#138=CIRCLE('',#329,0.32639);
#139=CIRCLE('',#331,0.15875);
#140=CIRCLE('',#333,0.15875);
#141=CIRCLE('',#335,0.15875);
#142=CIRCLE('',#337,0.15875);
#143=VERTEX_POINT('',#435);
#144=VERTEX_POINT('',#437);
#145=VERTEX_POINT('',#440);
#146=VERTEX_POINT('',#444);
#147=VERTEX_POINT('',#446);
#148=VERTEX_POINT('',#449);
#149=VERTEX_POINT('',#453);
#150=VERTEX_POINT('',#455);
#151=VERTEX_POINT('',#459);
#152=VERTEX_POINT('',#461);
#153=VERTEX_POINT('',#464);
#154=VERTEX_POINT('',#468);
#155=VERTEX_POINT('',#470);
#156=VERTEX_POINT('',#473);
#157=VERTEX_POINT('',#477);
#158=VERTEX_POINT('',#478);
#159=VERTEX_POINT('',#480);
#160=VERTEX_POINT('',#482);
#161=VERTEX_POINT('',#486);
#162=VERTEX_POINT('',#488);
#163=VERTEX_POINT('',#492);
#164=VERTEX_POINT('',#494);
#165=VERTEX_POINT('',#498);
#166=VERTEX_POINT('',#500);
#167=VERTEX_POINT('',#505);
#168=VERTEX_POINT('',#509);
#169=EDGE_CURVE('',#143,#143,#133,.T.);
#170=EDGE_CURVE('',#143,#144,#77,.T.);
#171=EDGE_CURVE('',#145,#145,#134,.T.);
#172=EDGE_CURVE('',#145,#143,#78,.T.);
#173=EDGE_CURVE('',#146,#146,#135,.T.);
#174=EDGE_CURVE('',#146,#147,#79,.T.);
#175=EDGE_CURVE('',#148,#148,#136,.T.);
#176=EDGE_CURVE('',#148,#146,#80,.T.);
#177=EDGE_CURVE('',#149,#149,#137,.T.);
#178=EDGE_CURVE('',#149,#150,#81,.T.);
#179=EDGE_CURVE('',#150,#150,#138,.T.);
#180=EDGE_CURVE('',#151,#151,#139,.T.);
#181=EDGE_CURVE('',#151,#152,#82,.T.);
#182=EDGE_CURVE('',#153,#153,#140,.T.);
#183=EDGE_CURVE('',#153,#151,#83,.T.);
#184=EDGE_CURVE('',#154,#154,#141,.T.);
#185=EDGE_CURVE('',#154,#155,#84,.T.);
#186=EDGE_CURVE('',#156,#156,#142,.T.);
#187=EDGE_CURVE('',#156,#154,#85,.T.);
#188=EDGE_CURVE('',#157,#158,#86,.T.);
#189=EDGE_CURVE('',#158,#159,#87,.T.);
#190=EDGE_CURVE('',#159,#160,#88,.T.);
#191=EDGE_CURVE('',#160,#157,#89,.T.);
#192=EDGE_CURVE('',#158,#161,#90,.T.);
#193=EDGE_CURVE('',#161,#162,#91,.T.);
#194=EDGE_CURVE('',#162,#159,#92,.T.);
#195=EDGE_CURVE('',#160,#163,#93,.T.);
#196=EDGE_CURVE('',#163,#164,#94,.T.);
#197=EDGE_CURVE('',#164,#157,#95,.T.);
#198=EDGE_CURVE('',#161,#165,#96,.T.);
#199=EDGE_CURVE('',#166,#165,#97,.T.);
#200=EDGE_CURVE('',#164,#166,#98,.T.);
#201=EDGE_CURVE('',#162,#163,#99,.T.);
#202=EDGE_CURVE('',#158,#167,#100,.T.);
#203=EDGE_CURVE('',#165,#167,#101,.T.);
#204=EDGE_CURVE('',#157,#168,#102,.T.);
#205=EDGE_CURVE('',#167,#168,#103,.T.);
#206=EDGE_CURVE('',#168,#166,#104,.T.);
#207=ORIENTED_EDGE('',*,*,#169,.F.);
#208=ORIENTED_EDGE('',*,*,#170,.T.);
#209=ORIENTED_EDGE('',*,*,#170,.F.);
#210=ORIENTED_EDGE('',*,*,#171,.F.);
#211=ORIENTED_EDGE('',*,*,#172,.T.);
#212=ORIENTED_EDGE('',*,*,#169,.T.);
#213=ORIENTED_EDGE('',*,*,#172,.F.);
#214=ORIENTED_EDGE('',*,*,#173,.F.);
#215=ORIENTED_EDGE('',*,*,#174,.T.);
#216=ORIENTED_EDGE('',*,*,#174,.F.);
#217=ORIENTED_EDGE('',*,*,#175,.F.);
#218=ORIENTED_EDGE('',*,*,#176,.T.);
#219=ORIENTED_EDGE('',*,*,#173,.T.);
#220=ORIENTED_EDGE('',*,*,#176,.F.);
#221=ORIENTED_EDGE('',*,*,#177,.F.);
#222=ORIENTED_EDGE('',*,*,#178,.T.);
#223=ORIENTED_EDGE('',*,*,#179,.F.);
#224=ORIENTED_EDGE('',*,*,#178,.F.);
#225=ORIENTED_EDGE('',*,*,#180,.F.);
#226=ORIENTED_EDGE('',*,*,#181,.T.);
#227=ORIENTED_EDGE('',*,*,#181,.F.);
#228=ORIENTED_EDGE('',*,*,#182,.F.);
#229=ORIENTED_EDGE('',*,*,#183,.T.);
#230=ORIENTED_EDGE('',*,*,#180,.T.);
#231=ORIENTED_EDGE('',*,*,#183,.F.);
#232=ORIENTED_EDGE('',*,*,#184,.F.);
#233=ORIENTED_EDGE('',*,*,#185,.T.);
#234=ORIENTED_EDGE('',*,*,#185,.F.);
#235=ORIENTED_EDGE('',*,*,#186,.F.);
#236=ORIENTED_EDGE('',*,*,#187,.T.);
#237=ORIENTED_EDGE('',*,*,#184,.T.);
#238=ORIENTED_EDGE('',*,*,#187,.F.);
#239=ORIENTED_EDGE('',*,*,#188,.T.);
#240=ORIENTED_EDGE('',*,*,#189,.T.);
#241=ORIENTED_EDGE('',*,*,#190,.T.);
#242=ORIENTED_EDGE('',*,*,#191,.T.);
#243=ORIENTED_EDGE('',*,*,#192,.T.);
#244=ORIENTED_EDGE('',*,*,#193,.T.);
#245=ORIENTED_EDGE('',*,*,#194,.T.);
#246=ORIENTED_EDGE('',*,*,#189,.F.);
#247=ORIENTED_EDGE('',*,*,#195,.T.);
#248=ORIENTED_EDGE('',*,*,#196,.T.);
#249=ORIENTED_EDGE('',*,*,#197,.T.);
#250=ORIENTED_EDGE('',*,*,#191,.F.);
#251=ORIENTED_EDGE('',*,*,#193,.F.);
#252=ORIENTED_EDGE('',*,*,#198,.T.);
#253=ORIENTED_EDGE('',*,*,#199,.F.);
#254=ORIENTED_EDGE('',*,*,#200,.F.);
#255=ORIENTED_EDGE('',*,*,#196,.F.);
#256=ORIENTED_EDGE('',*,*,#201,.F.);
#257=ORIENTED_EDGE('',*,*,#182,.T.);
#258=ORIENTED_EDGE('',*,*,#186,.T.);
#259=ORIENTED_EDGE('',*,*,#192,.F.);
#260=ORIENTED_EDGE('',*,*,#202,.T.);
#261=ORIENTED_EDGE('',*,*,#203,.F.);
#262=ORIENTED_EDGE('',*,*,#198,.F.);
#263=ORIENTED_EDGE('',*,*,#188,.F.);
#264=ORIENTED_EDGE('',*,*,#204,.T.);
#265=ORIENTED_EDGE('',*,*,#205,.F.);
#266=ORIENTED_EDGE('',*,*,#202,.F.);
#267=ORIENTED_EDGE('',*,*,#194,.F.);
#268=ORIENTED_EDGE('',*,*,#201,.T.);
#269=ORIENTED_EDGE('',*,*,#195,.F.);
#270=ORIENTED_EDGE('',*,*,#190,.F.);
#271=ORIENTED_EDGE('',*,*,#171,.T.);
#272=ORIENTED_EDGE('',*,*,#175,.T.);
#273=ORIENTED_EDGE('',*,*,#177,.T.);
#274=ORIENTED_EDGE('',*,*,#205,.T.);
#275=ORIENTED_EDGE('',*,*,#206,.T.);
#276=ORIENTED_EDGE('',*,*,#199,.T.);
#277=ORIENTED_EDGE('',*,*,#203,.T.);
#278=ORIENTED_EDGE('',*,*,#179,.T.);
#279=ORIENTED_EDGE('',*,*,#197,.F.);
#280=ORIENTED_EDGE('',*,*,#200,.T.);
#281=ORIENTED_EDGE('',*,*,#206,.F.);
#282=ORIENTED_EDGE('',*,*,#204,.F.);
#283=CONICAL_SURFACE('',#319,0.079375,1.02974425867665);
#284=CONICAL_SURFACE('',#323,0.079375,1.02974425867665);
#285=CONICAL_SURFACE('',#330,0.079375,1.02974425867665);
#286=CONICAL_SURFACE('',#334,0.079375,1.02974425867665);
#287=ADVANCED_FACE('',(#35),#283,.F.);
#288=ADVANCED_FACE('',(#36),#30,.F.);
#289=ADVANCED_FACE('',(#37),#284,.F.);
#290=ADVANCED_FACE('',(#38),#31,.F.);
#291=ADVANCED_FACE('',(#39),#32,.F.);
#292=ADVANCED_FACE('',(#40),#285,.F.);
#293=ADVANCED_FACE('',(#41),#33,.F.);
#294=ADVANCED_FACE('',(#42),#286,.F.);
#295=ADVANCED_FACE('',(#43),#34,.F.);
#296=ADVANCED_FACE('',(#44),#21,.T.);
#297=ADVANCED_FACE('',(#45),#22,.T.);
#298=ADVANCED_FACE('',(#46),#23,.T.);
#299=ADVANCED_FACE('',(#47,#15,#16),#24,.F.);
#300=ADVANCED_FACE('',(#48),#25,.F.);
#301=ADVANCED_FACE('',(#49),#26,.F.);
#302=ADVANCED_FACE('',(#50,#17,#18,#19),#27,.T.);
#303=ADVANCED_FACE('',(#51,#20),#28,.F.);
#304=ADVANCED_FACE('',(#52),#29,.F.);
#305=CLOSED_SHELL('',(#287,#288,#289,#290,#291,#292,#293,#294,#295,#296,
#297,#298,#299,#300,#301,#302,#303,#304));
#306=DERIVED_UNIT_ELEMENT(#308,1.);
#307=DERIVED_UNIT_ELEMENT(#521,-3.);
#308=(
MASS_UNIT()
NAMED_UNIT(*)
SI_UNIT(.KILO.,.GRAM.)
);
#309=DERIVED_UNIT((#306,#307));
#310=MEASURE_REPRESENTATION_ITEM('density measure',
POSITIVE_RATIO_MEASURE(7850.),#309);
#311=PROPERTY_DEFINITION_REPRESENTATION(#316,#313);
#312=PROPERTY_DEFINITION_REPRESENTATION(#317,#314);
#313=REPRESENTATION('material name',(#315),#518);
#314=REPRESENTATION('density',(#310),#518);
#315=DESCRIPTIVE_REPRESENTATION_ITEM('Steel','Steel');
#316=PROPERTY_DEFINITION('material property','material name',#528);
#317=PROPERTY_DEFINITION('material property','density of part',#528);
#318=AXIS2_PLACEMENT_3D('placement',#433,#347,#348);
#319=AXIS2_PLACEMENT_3D('',#434,#349,#350);
#320=AXIS2_PLACEMENT_3D('',#436,#351,#352);
#321=AXIS2_PLACEMENT_3D('',#439,#354,#355);
#322=AXIS2_PLACEMENT_3D('',#441,#356,#357);
#323=AXIS2_PLACEMENT_3D('',#443,#359,#360);
#324=AXIS2_PLACEMENT_3D('',#445,#361,#362);
#325=AXIS2_PLACEMENT_3D('',#448,#364,#365);
#326=AXIS2_PLACEMENT_3D('',#450,#366,#367);
#327=AXIS2_PLACEMENT_3D('',#452,#369,#370);
#328=AXIS2_PLACEMENT_3D('',#454,#371,#372);
#329=AXIS2_PLACEMENT_3D('',#457,#374,#375);
#330=AXIS2_PLACEMENT_3D('',#458,#376,#377);
#331=AXIS2_PLACEMENT_3D('',#460,#378,#379);
#332=AXIS2_PLACEMENT_3D('',#463,#381,#382);
#333=AXIS2_PLACEMENT_3D('',#465,#383,#384);
#334=AXIS2_PLACEMENT_3D('',#467,#386,#387);
#335=AXIS2_PLACEMENT_3D('',#469,#388,#389);
#336=AXIS2_PLACEMENT_3D('',#472,#391,#392);
#337=AXIS2_PLACEMENT_3D('',#474,#393,#394);
#338=AXIS2_PLACEMENT_3D('',#476,#396,#397);
#339=AXIS2_PLACEMENT_3D('',#485,#402,#403);
#340=AXIS2_PLACEMENT_3D('',#491,#407,#408);
#341=AXIS2_PLACEMENT_3D('',#497,#412,#413);
#342=AXIS2_PLACEMENT_3D('',#504,#418,#419);
#343=AXIS2_PLACEMENT_3D('',#508,#422,#423);
#344=AXIS2_PLACEMENT_3D('',#512,#426,#427);
#345=AXIS2_PLACEMENT_3D('',#513,#428,#429);
#346=AXIS2_PLACEMENT_3D('',#515,#431,#432);
#347=DIRECTION('axis',(0.,0.,1.));
#348=DIRECTION('refdir',(1.,0.,0.));
#349=DIRECTION('center_axis',(4.90910304317659E-14,0.,1.));
#350=DIRECTION('ref_axis',(1.,0.,-4.90910304317659E-14));
#351=DIRECTION('center_axis',(-4.90910304317659E-14,0.,-1.));
#352=DIRECTION('ref_axis',(1.,0.,-4.90910304317659E-14));
#353=DIRECTION('',(0.857167300702087,-1.04972719113862E-16,-0.515038074910096));
#354=DIRECTION('center_axis',(-4.90910304317659E-14,0.,-1.));
#355=DIRECTION('ref_axis',(1.,0.,-4.90910304317659E-14));
#356=DIRECTION('center_axis',(-4.90910304317659E-14,0.,-1.));
#357=DIRECTION('ref_axis',(1.,0.,-4.90910304317659E-14));
#358=DIRECTION('',(-4.90910304317659E-14,0.,-1.));
#359=DIRECTION('center_axis',(4.90910304317659E-14,0.,1.));
#360=DIRECTION('ref_axis',(1.,0.,-4.90910304317659E-14));
#361=DIRECTION('center_axis',(-4.90910304317659E-14,0.,-1.));
#362=DIRECTION('ref_axis',(1.,0.,-4.90910304317659E-14));
#363=DIRECTION('',(0.857167300702087,-1.04972719113862E-16,-0.515038074910096));
#364=DIRECTION('center_axis',(-4.90910304317659E-14,0.,-1.));
#365=DIRECTION('ref_axis',(1.,0.,-4.90910304317659E-14));
#366=DIRECTION('center_axis',(-4.90910304317659E-14,0.,-1.));
#367=DIRECTION('ref_axis',(1.,0.,-4.90910304317659E-14));
#368=DIRECTION('',(-4.90910304317659E-14,0.,-1.));
#369=DIRECTION('center_axis',(-4.90910304317659E-14,0.,-1.));
#370=DIRECTION('ref_axis',(1.,0.,-4.90910304317659E-14));
#371=DIRECTION('center_axis',(-4.90910304317659E-14,0.,-1.));
#372=DIRECTION('ref_axis',(1.,0.,-4.90910304317659E-14));
#373=DIRECTION('',(-4.90910304317659E-14,0.,-1.));
#374=DIRECTION('center_axis',(4.90910304317659E-14,0.,1.));
#375=DIRECTION('ref_axis',(1.,0.,-4.90910304317659E-14));
#376=DIRECTION('center_axis',(0.,-1.,0.));
#377=DIRECTION('ref_axis',(0.,0.,-1.));
#378=DIRECTION('center_axis',(0.,1.,0.));
#379=DIRECTION('ref_axis',(0.,0.,-1.));
#380=DIRECTION('',(-1.04972719113862E-16,0.515038074910054,-0.857167300702112));
#381=DIRECTION('center_axis',(0.,1.,0.));
#382=DIRECTION('ref_axis',(0.,0.,-1.));
#383=DIRECTION('center_axis',(0.,1.,0.));
#384=DIRECTION('ref_axis',(0.,0.,-1.));
#385=DIRECTION('',(0.,1.,0.));
#386=DIRECTION('center_axis',(0.,-1.,0.));
#387=DIRECTION('ref_axis',(0.,0.,-1.));
#388=DIRECTION('center_axis',(0.,1.,0.));
#389=DIRECTION('ref_axis',(0.,0.,-1.));
#390=DIRECTION('',(-1.04972719113862E-16,0.515038074910054,-0.857167300702112));
#391=DIRECTION('center_axis',(0.,1.,0.));
#392=DIRECTION('ref_axis',(0.,0.,-1.));
#393=DIRECTION('center_axis',(0.,1.,0.));
#394=DIRECTION('ref_axis',(0.,0.,-1.));
#395=DIRECTION('',(0.,1.,0.));
#396=DIRECTION('center_axis',(3.47126005137368E-14,0.707106781186549,0.707106781186547));
#397=DIRECTION('ref_axis',(1.,0.,-4.90910304317659E-14));
#398=DIRECTION('',(-1.,0.,4.90910304317659E-14));
#399=DIRECTION('',(0.577350269189656,-0.577350269189625,0.577350269189597));
#400=DIRECTION('',(1.,0.,-4.90910304317659E-14));
#401=DIRECTION('',(0.577350269189599,0.577350269189624,-0.577350269189654));
#402=DIRECTION('center_axis',(-0.707106781186511,0.,0.707106781186584));
#403=DIRECTION('ref_axis',(0.707106781186584,0.,0.707106781186511));
#404=DIRECTION('',(0.,-1.,0.));
#405=DIRECTION('',(0.707106781186584,0.,0.707106781186511));
#406=DIRECTION('',(0.,1.,0.));
#407=DIRECTION('center_axis',(0.707106781186582,0.,0.707106781186513));
#408=DIRECTION('ref_axis',(0.707106781186513,0.,-0.707106781186582));
#409=DIRECTION('',(0.,-1.,0.));
#410=DIRECTION('',(0.707106781186513,0.,-0.707106781186582));
#411=DIRECTION('',(0.,1.,0.));
#412=DIRECTION('center_axis',(0.,1.,0.));
#413=DIRECTION('ref_axis',(-4.90910304317659E-14,0.,-1.));
#414=DIRECTION('',(-4.90910304317659E-14,0.,-1.));
#415=DIRECTION('',(-1.,0.,4.90910304317659E-14));
#416=DIRECTION('',(-4.90910304317659E-14,0.,-1.));
#417=DIRECTION('',(1.,0.,-4.90910304317659E-14));
#418=DIRECTION('center_axis',(1.,0.,-4.90910304317659E-14));
#419=DIRECTION('ref_axis',(-4.90910304317659E-14,0.,-1.));
#420=DIRECTION('',(-4.90910304317659E-14,0.,-1.));
#421=DIRECTION('',(0.,1.,0.));
#422=DIRECTION('center_axis',(0.,-1.,0.));
#423=DIRECTION('ref_axis',(4.90910304317659E-14,0.,1.));
#424=DIRECTION('',(-4.90910304317659E-14,0.,-1.));
#425=DIRECTION('',(1.,0.,-4.90910304317659E-14));
#426=DIRECTION('center_axis',(4.90910304317659E-14,0.,1.));
#427=DIRECTION('ref_axis',(0.,1.,0.));
#428=DIRECTION('center_axis',(4.90910304317659E-14,0.,1.));
#429=DIRECTION('ref_axis',(0.,1.,0.));
#430=DIRECTION('',(0.,-1.,0.));
#431=DIRECTION('center_axis',(-1.,0.,4.90910304317659E-14));
#432=DIRECTION('ref_axis',(4.90910304317659E-14,0.,1.));
#433=CARTESIAN_POINT('',(0.,0.,0.));
#434=CARTESIAN_POINT('Origin',(4.12750000000005,10.00125,1.14293168836448));
#435=CARTESIAN_POINT('',(3.96875000000005,10.00125,1.1906249999998));
#436=CARTESIAN_POINT('Origin',(4.12750000000005,10.00125,1.1906249999998));
#437=CARTESIAN_POINT('',(4.12750000000005,10.00125,1.09523837672917));
#438=CARTESIAN_POINT('',(4.04812500000005,10.00125,1.14293168836449));
#439=CARTESIAN_POINT('Origin',(4.12750000000007,10.00125,1.5478124999998));
#440=CARTESIAN_POINT('',(3.96875000000009,10.00125,1.90499999999981));
#441=CARTESIAN_POINT('Origin',(4.12750000000009,10.00125,1.9049999999998));
#442=CARTESIAN_POINT('',(3.96875000000007,10.00125,1.5478124999998));
#443=CARTESIAN_POINT('Origin',(4.12750000000005,12.85875,1.14293168836448));
#444=CARTESIAN_POINT('',(3.96875000000005,12.85875,1.1906249999998));
#445=CARTESIAN_POINT('Origin',(4.12750000000005,12.85875,1.19062499999979));
#446=CARTESIAN_POINT('',(4.12750000000004,12.85875,1.09523837672917));
#447=CARTESIAN_POINT('',(4.04812500000005,12.85875,1.14293168836448));
#448=CARTESIAN_POINT('Origin',(4.12750000000007,12.85875,1.54781249999979));
#449=CARTESIAN_POINT('',(3.96875000000008,12.85875,1.90499999999981));
#450=CARTESIAN_POINT('Origin',(4.12750000000008,12.85875,1.9049999999998));
#451=CARTESIAN_POINT('',(3.96875000000007,12.85875,1.5478124999998));
#452=CARTESIAN_POINT('Origin',(4.1275,5.55624999999998,0.0270827499996178));
#453=CARTESIAN_POINT('',(3.80111000000009,5.55624999999998,1.90499999999981));
#454=CARTESIAN_POINT('Origin',(4.12750000000009,5.55624999999998,1.9049999999998));
#455=CARTESIAN_POINT('',(3.80111,5.55624999999998,-1.86592880571467E-13));
#456=CARTESIAN_POINT('',(3.80111,5.55624999999998,0.0270827499996338));
#457=CARTESIAN_POINT('Origin',(4.1275,5.55624999999998,-2.02615701994091E-13));
#458=CARTESIAN_POINT('Origin',(1.58750000000004,0.841443311635313,0.873124999999933));
#459=CARTESIAN_POINT('',(1.58750000000004,0.79375,1.03187499999993));
#460=CARTESIAN_POINT('Origin',(1.58750000000004,0.79375,0.873124999999933));
#461=CARTESIAN_POINT('',(1.58750000000004,0.889136623270625,0.873124999999933));
#462=CARTESIAN_POINT('',(1.58750000000004,0.841443311635313,0.952499999999933));
#463=CARTESIAN_POINT('Origin',(1.58750000000004,0.396875,0.873124999999933));
#464=CARTESIAN_POINT('',(1.58750000000004,0.,1.03187499999993));
#465=CARTESIAN_POINT('Origin',(1.58750000000004,0.,0.873124999999933));
#466=CARTESIAN_POINT('',(1.58750000000004,0.396875,1.03187499999993));
#467=CARTESIAN_POINT('Origin',(6.66750000000004,0.841443311635313,0.873124999999675));
#468=CARTESIAN_POINT('',(6.66750000000004,0.79375,1.03187499999968));
#469=CARTESIAN_POINT('Origin',(6.66750000000004,0.79375,0.873124999999675));
#470=CARTESIAN_POINT('',(6.66750000000004,0.889136623270625,0.873124999999675));
#471=CARTESIAN_POINT('',(6.66750000000004,0.841443311635313,0.952499999999675));
#472=CARTESIAN_POINT('Origin',(6.66750000000004,0.396875,0.873124999999675));
#473=CARTESIAN_POINT('',(6.66750000000004,0.,1.03187499999968));
#474=CARTESIAN_POINT('Origin',(6.66750000000004,0.,0.873124999999675));
#475=CARTESIAN_POINT('',(6.66750000000004,0.396875,1.03187499999968));
#476=CARTESIAN_POINT('Origin',(4.12750000000009,13.890625,1.8256249999998));
#477=CARTESIAN_POINT('',(8.25500000000009,13.97,1.74624999999959));
#478=CARTESIAN_POINT('',(8.60394616493208E-14,13.97,1.74625));
#479=CARTESIAN_POINT('',(4.12750000000009,13.97,1.7462499999998));
#480=CARTESIAN_POINT('',(0.158750000000094,13.81125,1.90499999999999));
#481=CARTESIAN_POINT('',(8.60394616493208E-14,13.97,1.74625));
#482=CARTESIAN_POINT('',(8.0962500000001,13.81125,1.9049999999996));
#483=CARTESIAN_POINT('',(4.12750000000009,13.81125,1.9049999999998));
#484=CARTESIAN_POINT('',(8.0962500000001,13.81125,1.9049999999996));
#485=CARTESIAN_POINT('Origin',(0.0793750000000901,6.985,1.825625));
#486=CARTESIAN_POINT('',(8.60394616493208E-14,0.,1.74625));
#487=CARTESIAN_POINT('',(8.60422844084496E-14,6.985,1.74625));
#488=CARTESIAN_POINT('',(0.158750000000094,0.,1.90499999999999));
#489=CARTESIAN_POINT('',(0.873125000000134,-4.44089209850063E-16,2.61937499999996));
#490=CARTESIAN_POINT('',(0.158750000000094,6.985,1.90499999999999));
#491=CARTESIAN_POINT('Origin',(8.17562500000009,6.985,1.8256249999996));
#492=CARTESIAN_POINT('',(8.0962500000001,0.,1.9049999999996));
#493=CARTESIAN_POINT('',(8.0962500000001,6.985,1.9049999999996));
#494=CARTESIAN_POINT('',(8.25500000000009,0.,1.74624999999959));
#495=CARTESIAN_POINT('',(7.38187500000013,0.,2.61937499999964));
#496=CARTESIAN_POINT('',(8.25500000000009,6.985,1.74624999999959));
#497=CARTESIAN_POINT('Origin',(4.12750000000005,0.,0.952499999999797));
#498=CARTESIAN_POINT('',(0.,0.,0.));
#499=CARTESIAN_POINT('',(4.70734562441066E-14,0.,0.9525));
#500=CARTESIAN_POINT('',(8.255,0.,-4.05231403988182E-13));
#501=CARTESIAN_POINT('',(4.1275,0.,-2.02615701994091E-13));
#502=CARTESIAN_POINT('',(8.25500000000005,0.,0.952499999999595));
#503=CARTESIAN_POINT('',(4.12750000000009,0.,1.9049999999998));
#504=CARTESIAN_POINT('Origin',(4.70734562441066E-14,6.985,0.9525));
#505=CARTESIAN_POINT('',(0.,13.97,0.));
#506=CARTESIAN_POINT('',(4.70734562441066E-14,13.97,0.9525));
#507=CARTESIAN_POINT('',(0.,6.985,0.));
#508=CARTESIAN_POINT('Origin',(4.12750000000005,13.97,0.952499999999797));
#509=CARTESIAN_POINT('',(8.255,13.97,-4.05231403988182E-13));
#510=CARTESIAN_POINT('',(8.25500000000005,13.97,0.952499999999595));
#511=CARTESIAN_POINT('',(4.1275,13.97,-2.02615701994091E-13));
#512=CARTESIAN_POINT('Origin',(4.12750000000009,6.985,1.9049999999998));
#513=CARTESIAN_POINT('Origin',(4.1275,6.985,-2.02615701994091E-13));
#514=CARTESIAN_POINT('',(8.255,6.985,-4.05231403988182E-13));
#515=CARTESIAN_POINT('Origin',(8.25500000000005,6.985,0.952499999999595));
#516=UNCERTAINTY_MEASURE_WITH_UNIT(LENGTH_MEASURE(0.001),#520,
'DISTANCE_ACCURACY_VALUE',
'Maximum model space distance between geometric entities at asserted c
onnectivities');
#517=UNCERTAINTY_MEASURE_WITH_UNIT(LENGTH_MEASURE(0.001),#520,
'DISTANCE_ACCURACY_VALUE',
'Maximum model space distance between geometric entities at asserted c
onnectivities');
#518=(
GEOMETRIC_REPRESENTATION_CONTEXT(3)
GLOBAL_UNCERTAINTY_ASSIGNED_CONTEXT((#516))
GLOBAL_UNIT_ASSIGNED_CONTEXT((#520,#522,#523))
REPRESENTATION_CONTEXT('','3D')
);
#519=(
GEOMETRIC_REPRESENTATION_CONTEXT(3)
GLOBAL_UNCERTAINTY_ASSIGNED_CONTEXT((#517))
GLOBAL_UNIT_ASSIGNED_CONTEXT((#520,#522,#523))
REPRESENTATION_CONTEXT('','3D')
);
#520=(
LENGTH_UNIT()
NAMED_UNIT(*)
SI_UNIT(.CENTI.,.METRE.)
);
#521=(
LENGTH_UNIT()
NAMED_UNIT(*)
SI_UNIT($,.METRE.)
);
#522=(
NAMED_UNIT(*)
PLANE_ANGLE_UNIT()
SI_UNIT($,.RADIAN.)
);
#523=(
NAMED_UNIT(*)
SI_UNIT($,.STERADIAN.)
SOLID_ANGLE_UNIT()
);
#524=SHAPE_DEFINITION_REPRESENTATION(#525,#526);
#525=PRODUCT_DEFINITION_SHAPE('',$,#528);
#526=SHAPE_REPRESENTATION('',(#318),#518);
#527=PRODUCT_DEFINITION_CONTEXT('part definition',#532,'design');
#528=PRODUCT_DEFINITION('temp_body','temp_body',#529,#527);
#529=PRODUCT_DEFINITION_FORMATION('',$,#534);
#530=PRODUCT_RELATED_PRODUCT_CATEGORY('temp_body','temp_body',(#534));
#531=APPLICATION_PROTOCOL_DEFINITION('international standard',
'automotive_design',2009,#532);
#532=APPLICATION_CONTEXT(
'Core Data for Automotive Mechanical Design Process');
#533=PRODUCT_CONTEXT('part definition',#532,'mechanical');
#534=PRODUCT('temp_body','temp_body',$,(#533));
#535=PRESENTATION_STYLE_ASSIGNMENT((#536));
#536=SURFACE_STYLE_USAGE(.BOTH.,#537);
#537=SURFACE_SIDE_STYLE('',(#538));
#538=SURFACE_STYLE_FILL_AREA(#539);
#539=FILL_AREA_STYLE('Steel - Satin',(#540));
#540=FILL_AREA_STYLE_COLOUR('Steel - Satin',#541);
#541=COLOUR_RGB('Steel - Satin',0.627450980392157,0.627450980392157,0.627450980392157);
ENDSEC;
END-ISO-10303-21;
