ISO-10303-21;
HEADER;
/* Generated by software containing ST-Developer
 * from STEP Tools, Inc. (www.steptools.com) 
 */

FILE_DESCRIPTION(
/* description */ (''),
/* implementation_level */ '2;1');

FILE_NAME(
/* name */ 
'C:\\Users\\designnet\\AppData\\Local\\Temp\\derivatives\\23211_3aac9c
7e\\AssemblyExtractor\\23211_3aac9c7e\\0a214f52-05f1-11ec-975a-0ac5158
7b959.step',
/* time_stamp */ '2021-08-25T22:09:03+00:00',
/* author */ (''),
/* organization */ (''),
/* preprocessor_version */ 'ST-DEVELOPER v18.1',
/* originating_system */ 'Autodesk Translation Framework v10.6.0.1341',

/* authorisation */ '');

FILE_SCHEMA (('AUTOMOTIVE_DESIGN { 1 0 10303 214 3 1 1 }'));
ENDSEC;

DATA;
#10=MECHANICAL_DESIGN_GEOMETRIC_PRESENTATION_REPRESENTATION('',(#13),#332);
#11=SHAPE_REPRESENTATION_RELATIONSHIP('SRR','None',#339,#12);
#12=ADVANCED_BREP_SHAPE_REPRESENTATION('',(#14),#331);
#13=STYLED_ITEM('',(#348),#14);
#14=MANIFOLD_SOLID_BREP('Body1',#190);
#15=FACE_BOUND('',#45,.T.);
#16=FACE_BOUND('',#46,.T.);
#17=FACE_BOUND('',#51,.T.);
#18=FACE_BOUND('',#53,.T.);
#19=PLANE('',#215);
#20=PLANE('',#216);
#21=PLANE('',#220);
#22=PLANE('',#221);
#23=PLANE('',#222);
#24=CYLINDRICAL_SURFACE('',#206,0.15875);
#25=CYLINDRICAL_SURFACE('',#210,0.15875);
#26=CYLINDRICAL_SURFACE('',#212,0.41671875);
#27=CYLINDRICAL_SURFACE('',#217,1.349375);
#28=FACE_OUTER_BOUND('',#39,.T.);
#29=FACE_OUTER_BOUND('',#40,.T.);
#30=FACE_OUTER_BOUND('',#41,.T.);
#31=FACE_OUTER_BOUND('',#42,.T.);
#32=FACE_OUTER_BOUND('',#43,.T.);
#33=FACE_OUTER_BOUND('',#44,.T.);
#34=FACE_OUTER_BOUND('',#47,.T.);
#35=FACE_OUTER_BOUND('',#48,.T.);
#36=FACE_OUTER_BOUND('',#49,.T.);
#37=FACE_OUTER_BOUND('',#50,.T.);
#38=FACE_OUTER_BOUND('',#52,.T.);
#39=EDGE_LOOP('',(#131,#132,#133));
#40=EDGE_LOOP('',(#134,#135,#136,#137));
#41=EDGE_LOOP('',(#138,#139,#140));
#42=EDGE_LOOP('',(#141,#142,#143,#144));
#43=EDGE_LOOP('',(#145,#146,#147,#148));
#44=EDGE_LOOP('',(#149,#150,#151,#152));
#45=EDGE_LOOP('',(#153));
#46=EDGE_LOOP('',(#154));
#47=EDGE_LOOP('',(#155,#156,#157,#158));
#48=EDGE_LOOP('',(#159,#160,#161,#162));
#49=EDGE_LOOP('',(#163,#164,#165,#166));
#50=EDGE_LOOP('',(#167,#168,#169,#170));
#51=EDGE_LOOP('',(#171));
#52=EDGE_LOOP('',(#172,#173,#174,#175));
#53=EDGE_LOOP('',(#176));
#54=LINE('',#283,#69);
#55=LINE('',#287,#70);
#56=LINE('',#292,#71);
#57=LINE('',#296,#72);
#58=LINE('',#301,#73);
#59=LINE('',#306,#74);
#60=LINE('',#308,#75);
#61=LINE('',#310,#76);
#62=LINE('',#311,#77);
#63=LINE('',#314,#78);
#64=LINE('',#316,#79);
#65=LINE('',#317,#80);
#66=LINE('',#323,#81);
#67=LINE('',#325,#82);
#68=LINE('',#326,#83);
#69=VECTOR('',#229,0.079375);
#70=VECTOR('',#234,0.15875);
#71=VECTOR('',#239,0.079375);
#72=VECTOR('',#244,0.15875);
#73=VECTOR('',#249,0.41671875);
#74=VECTOR('',#254,1.);
#75=VECTOR('',#255,1.);
#76=VECTOR('',#256,1.);
#77=VECTOR('',#257,1.);
#78=VECTOR('',#260,1.);
#79=VECTOR('',#261,1.);
#80=VECTOR('',#262,1.);
#81=VECTOR('',#269,1.);
#82=VECTOR('',#272,1.);
#83=VECTOR('',#273,1.);
#84=CIRCLE('',#205,0.15875);
#85=CIRCLE('',#207,0.15875);
#86=CIRCLE('',#209,0.15875);
#87=CIRCLE('',#211,0.15875);
#88=CIRCLE('',#213,0.41671875);
#89=CIRCLE('',#214,0.41671875);
#90=CIRCLE('',#218,1.349375);
#91=CIRCLE('',#219,1.349375);
#92=VERTEX_POINT('',#280);
#93=VERTEX_POINT('',#282);
#94=VERTEX_POINT('',#285);
#95=VERTEX_POINT('',#289);
#96=VERTEX_POINT('',#291);
#97=VERTEX_POINT('',#294);
#98=VERTEX_POINT('',#298);
#99=VERTEX_POINT('',#300);
#100=VERTEX_POINT('',#304);
#101=VERTEX_POINT('',#305);
#102=VERTEX_POINT('',#307);
#103=VERTEX_POINT('',#309);
#104=VERTEX_POINT('',#313);
#105=VERTEX_POINT('',#315);
#106=VERTEX_POINT('',#319);
#107=VERTEX_POINT('',#321);
#108=EDGE_CURVE('',#92,#92,#84,.T.);
#109=EDGE_CURVE('',#92,#93,#54,.T.);
#110=EDGE_CURVE('',#94,#94,#85,.T.);
#111=EDGE_CURVE('',#94,#92,#55,.T.);
#112=EDGE_CURVE('',#95,#95,#86,.T.);
#113=EDGE_CURVE('',#95,#96,#56,.T.);
#114=EDGE_CURVE('',#97,#97,#87,.T.);
#115=EDGE_CURVE('',#97,#95,#57,.T.);
#116=EDGE_CURVE('',#98,#98,#88,.T.);
#117=EDGE_CURVE('',#98,#99,#58,.T.);
#118=EDGE_CURVE('',#99,#99,#89,.T.);
#119=EDGE_CURVE('',#100,#101,#59,.T.);
#120=EDGE_CURVE('',#100,#102,#60,.T.);
#121=EDGE_CURVE('',#103,#102,#61,.T.);
#122=EDGE_CURVE('',#101,#103,#62,.T.);
#123=EDGE_CURVE('',#101,#104,#63,.T.);
#124=EDGE_CURVE('',#105,#103,#64,.T.);
#125=EDGE_CURVE('',#104,#105,#65,.T.);
#126=EDGE_CURVE('',#106,#104,#90,.T.);
#127=EDGE_CURVE('',#107,#105,#91,.T.);
#128=EDGE_CURVE('',#106,#107,#66,.T.);
#129=EDGE_CURVE('',#100,#106,#67,.T.);
#130=EDGE_CURVE('',#102,#107,#68,.T.);
#131=ORIENTED_EDGE('',*,*,#108,.F.);
#132=ORIENTED_EDGE('',*,*,#109,.T.);
#133=ORIENTED_EDGE('',*,*,#109,.F.);
#134=ORIENTED_EDGE('',*,*,#110,.F.);
#135=ORIENTED_EDGE('',*,*,#111,.T.);
#136=ORIENTED_EDGE('',*,*,#108,.T.);
#137=ORIENTED_EDGE('',*,*,#111,.F.);
#138=ORIENTED_EDGE('',*,*,#112,.F.);
#139=ORIENTED_EDGE('',*,*,#113,.T.);
#140=ORIENTED_EDGE('',*,*,#113,.F.);
#141=ORIENTED_EDGE('',*,*,#114,.F.);
#142=ORIENTED_EDGE('',*,*,#115,.T.);
#143=ORIENTED_EDGE('',*,*,#112,.T.);
#144=ORIENTED_EDGE('',*,*,#115,.F.);
#145=ORIENTED_EDGE('',*,*,#116,.F.);
#146=ORIENTED_EDGE('',*,*,#117,.T.);
#147=ORIENTED_EDGE('',*,*,#118,.T.);
#148=ORIENTED_EDGE('',*,*,#117,.F.);
#149=ORIENTED_EDGE('',*,*,#119,.F.);
#150=ORIENTED_EDGE('',*,*,#120,.T.);
#151=ORIENTED_EDGE('',*,*,#121,.F.);
#152=ORIENTED_EDGE('',*,*,#122,.F.);
#153=ORIENTED_EDGE('',*,*,#110,.T.);
#154=ORIENTED_EDGE('',*,*,#114,.T.);
#155=ORIENTED_EDGE('',*,*,#123,.F.);
#156=ORIENTED_EDGE('',*,*,#122,.T.);
#157=ORIENTED_EDGE('',*,*,#124,.F.);
#158=ORIENTED_EDGE('',*,*,#125,.F.);
#159=ORIENTED_EDGE('',*,*,#126,.T.);
#160=ORIENTED_EDGE('',*,*,#125,.T.);
#161=ORIENTED_EDGE('',*,*,#127,.F.);
#162=ORIENTED_EDGE('',*,*,#128,.F.);
#163=ORIENTED_EDGE('',*,*,#129,.T.);
#164=ORIENTED_EDGE('',*,*,#128,.T.);
#165=ORIENTED_EDGE('',*,*,#130,.F.);
#166=ORIENTED_EDGE('',*,*,#120,.F.);
#167=ORIENTED_EDGE('',*,*,#130,.T.);
#168=ORIENTED_EDGE('',*,*,#127,.T.);
#169=ORIENTED_EDGE('',*,*,#124,.T.);
#170=ORIENTED_EDGE('',*,*,#121,.T.);
#171=ORIENTED_EDGE('',*,*,#116,.T.);
#172=ORIENTED_EDGE('',*,*,#129,.F.);
#173=ORIENTED_EDGE('',*,*,#119,.T.);
#174=ORIENTED_EDGE('',*,*,#123,.T.);
#175=ORIENTED_EDGE('',*,*,#126,.F.);
#176=ORIENTED_EDGE('',*,*,#118,.F.);
#177=CONICAL_SURFACE('',#204,0.079375,1.02974425867665);
#178=CONICAL_SURFACE('',#208,0.079375,1.02974425867665);
#179=ADVANCED_FACE('',(#28),#177,.F.);
#180=ADVANCED_FACE('',(#29),#24,.F.);
#181=ADVANCED_FACE('',(#30),#178,.F.);
#182=ADVANCED_FACE('',(#31),#25,.F.);
#183=ADVANCED_FACE('',(#32),#26,.F.);
#184=ADVANCED_FACE('',(#33,#15,#16),#19,.T.);
#185=ADVANCED_FACE('',(#34),#20,.T.);
#186=ADVANCED_FACE('',(#35),#27,.T.);
#187=ADVANCED_FACE('',(#36),#21,.T.);
#188=ADVANCED_FACE('',(#37,#17),#22,.T.);
#189=ADVANCED_FACE('',(#38,#18),#23,.F.);
#190=CLOSED_SHELL('',(#179,#180,#181,#182,#183,#184,#185,#186,#187,#188,
#189));
#191=DERIVED_UNIT_ELEMENT(#193,1.);
#192=DERIVED_UNIT_ELEMENT(#334,-3.);
#193=(
MASS_UNIT()
NAMED_UNIT(*)
SI_UNIT(.KILO.,.GRAM.)
);
#194=DERIVED_UNIT((#191,#192));
#195=MEASURE_REPRESENTATION_ITEM('density measure',
POSITIVE_RATIO_MEASURE(7850.),#194);
#196=PROPERTY_DEFINITION_REPRESENTATION(#201,#198);
#197=PROPERTY_DEFINITION_REPRESENTATION(#202,#199);
#198=REPRESENTATION('material name',(#200),#331);
#199=REPRESENTATION('density',(#195),#331);
#200=DESCRIPTIVE_REPRESENTATION_ITEM('Steel','Steel');
#201=PROPERTY_DEFINITION('material property','material name',#341);
#202=PROPERTY_DEFINITION('material property','density of part',#341);
#203=AXIS2_PLACEMENT_3D('placement',#278,#223,#224);
#204=AXIS2_PLACEMENT_3D('',#279,#225,#226);
#205=AXIS2_PLACEMENT_3D('',#281,#227,#228);
#206=AXIS2_PLACEMENT_3D('',#284,#230,#231);
#207=AXIS2_PLACEMENT_3D('',#286,#232,#233);
#208=AXIS2_PLACEMENT_3D('',#288,#235,#236);
#209=AXIS2_PLACEMENT_3D('',#290,#237,#238);
#210=AXIS2_PLACEMENT_3D('',#293,#240,#241);
#211=AXIS2_PLACEMENT_3D('',#295,#242,#243);
#212=AXIS2_PLACEMENT_3D('',#297,#245,#246);
#213=AXIS2_PLACEMENT_3D('',#299,#247,#248);
#214=AXIS2_PLACEMENT_3D('',#302,#250,#251);
#215=AXIS2_PLACEMENT_3D('',#303,#252,#253);
#216=AXIS2_PLACEMENT_3D('',#312,#258,#259);
#217=AXIS2_PLACEMENT_3D('',#318,#263,#264);
#218=AXIS2_PLACEMENT_3D('',#320,#265,#266);
#219=AXIS2_PLACEMENT_3D('',#322,#267,#268);
#220=AXIS2_PLACEMENT_3D('',#324,#270,#271);
#221=AXIS2_PLACEMENT_3D('',#327,#274,#275);
#222=AXIS2_PLACEMENT_3D('',#328,#276,#277);
#223=DIRECTION('axis',(0.,0.,1.));
#224=DIRECTION('refdir',(1.,0.,0.));
#225=DIRECTION('center_axis',(3.94430452610507E-31,0.,-1.));
#226=DIRECTION('ref_axis',(-1.,0.,-3.94430452610507E-31));
#227=DIRECTION('center_axis',(-3.94430452610507E-31,0.,1.));
#228=DIRECTION('ref_axis',(-1.,0.,-3.94430452610507E-31));
#229=DIRECTION('',(-0.857167300702112,-1.04972719113862E-16,0.515038074910054));
#230=DIRECTION('center_axis',(-3.94430452610507E-31,0.,1.));
#231=DIRECTION('ref_axis',(-1.,0.,-3.94430452610507E-31));
#232=DIRECTION('center_axis',(0.,0.,1.));
#233=DIRECTION('ref_axis',(-1.,0.,-3.94430452610507E-31));
#234=DIRECTION('',(-3.94430452610507E-31,0.,1.));
#235=DIRECTION('center_axis',(3.94430452610507E-31,0.,-1.));
#236=DIRECTION('ref_axis',(-1.,0.,-3.94430452610507E-31));
#237=DIRECTION('center_axis',(-3.94430452610507E-31,0.,1.));
#238=DIRECTION('ref_axis',(-1.,0.,-3.94430452610507E-31));
#239=DIRECTION('',(-0.857167300702112,-1.04972719113862E-16,0.515038074910054));
#240=DIRECTION('center_axis',(-3.94430452610507E-31,0.,1.));
#241=DIRECTION('ref_axis',(-1.,0.,-3.94430452610507E-31));
#242=DIRECTION('center_axis',(0.,0.,1.));
#243=DIRECTION('ref_axis',(-1.,0.,-3.94430452610507E-31));
#244=DIRECTION('',(-3.94430452610507E-31,0.,1.));
#245=DIRECTION('center_axis',(0.,1.,0.));
#246=DIRECTION('ref_axis',(1.,0.,0.));
#247=DIRECTION('center_axis',(0.,-1.,0.));
#248=DIRECTION('ref_axis',(1.,0.,0.));
#249=DIRECTION('',(0.,-1.,0.));
#250=DIRECTION('center_axis',(0.,-1.,0.));
#251=DIRECTION('ref_axis',(1.,0.,0.));
#252=DIRECTION('center_axis',(0.,0.,-1.));
#253=DIRECTION('ref_axis',(-1.,0.,0.));
#254=DIRECTION('',(1.,0.,0.));
#255=DIRECTION('',(0.,1.,0.));
#256=DIRECTION('',(-1.,0.,0.));
#257=DIRECTION('',(0.,1.,0.));
#258=DIRECTION('center_axis',(1.,0.,0.));
#259=DIRECTION('ref_axis',(0.,0.,-1.));
#260=DIRECTION('',(0.,0.,1.));
#261=DIRECTION('',(0.,0.,-1.));
#262=DIRECTION('',(0.,1.,0.));
#263=DIRECTION('center_axis',(0.,1.,0.));
#264=DIRECTION('ref_axis',(-1.,0.,0.));
#265=DIRECTION('center_axis',(0.,1.,0.));
#266=DIRECTION('ref_axis',(-1.,0.,0.));
#267=DIRECTION('center_axis',(0.,1.,0.));
#268=DIRECTION('ref_axis',(-1.,0.,0.));
#269=DIRECTION('',(0.,1.,0.));
#270=DIRECTION('center_axis',(-1.,0.,0.));
#271=DIRECTION('ref_axis',(0.,0.,1.));
#272=DIRECTION('',(0.,0.,1.));
#273=DIRECTION('',(0.,0.,1.));
#274=DIRECTION('center_axis',(0.,1.,0.));
#275=DIRECTION('ref_axis',(1.,0.,0.));
#276=DIRECTION('center_axis',(0.,1.,0.));
#277=DIRECTION('ref_axis',(1.,0.,0.));
#278=CARTESIAN_POINT('',(0.,0.,0.));
#279=CARTESIAN_POINT('Origin',(3.63537507295609,4.445,7.11206851429111));
#280=CARTESIAN_POINT('',(3.79412507295609,4.445,7.06437520265579));
#281=CARTESIAN_POINT('Origin',(3.63537507295609,4.445,7.06437520265579));
#282=CARTESIAN_POINT('',(3.63537507295609,4.445,7.15976182592642));
#283=CARTESIAN_POINT('',(3.71475007295609,4.445,7.11206851429111));
#284=CARTESIAN_POINT('Origin',(3.63537507295609,4.445,6.7071877026558));
#285=CARTESIAN_POINT('',(3.79412507295609,4.445,6.35000020265579));
#286=CARTESIAN_POINT('Origin',(3.63537507295609,4.445,6.35000020265579));
#287=CARTESIAN_POINT('',(3.79412507295609,4.445,6.7071877026558));
#288=CARTESIAN_POINT('Origin',(3.63537507295608,1.5875,7.1120685142911));
#289=CARTESIAN_POINT('',(3.79412507295608,1.5875,7.06437520265579));
#290=CARTESIAN_POINT('Origin',(3.63537507295608,1.5875,7.06437520265579));
#291=CARTESIAN_POINT('',(3.63537507295608,1.5875,7.15976182592642));
#292=CARTESIAN_POINT('',(3.71475007295608,1.5875,7.1120685142911));
#293=CARTESIAN_POINT('Origin',(3.63537507295608,1.5875,6.70718770265579));
#294=CARTESIAN_POINT('',(3.79412507295608,1.5875,6.35000020265579));
#295=CARTESIAN_POINT('Origin',(3.63537507295608,1.5875,6.35000020265579));
#296=CARTESIAN_POINT('',(3.79412507295608,1.5875,6.70718770265579));
#297=CARTESIAN_POINT('Origin',(3.63537507295608,0.,7.97718770265579));
#298=CARTESIAN_POINT('',(3.21865632295609,5.08,7.97718770265579));
#299=CARTESIAN_POINT('Origin',(3.63537507295608,5.08,7.97718770265579));
#300=CARTESIAN_POINT('',(3.21865632295609,0.,7.97718770265579));
#301=CARTESIAN_POINT('',(3.21865632295609,0.,7.97718770265579));
#302=CARTESIAN_POINT('Origin',(3.63537507295608,0.,7.97718770265579));
#303=CARTESIAN_POINT('Origin',(4.98475007295608,0.,6.35000020265579));
#304=CARTESIAN_POINT('',(2.28600007295609,0.,6.35000020265579));
#305=CARTESIAN_POINT('',(4.98475007295608,0.,6.35000020265579));
#306=CARTESIAN_POINT('',(2.28600007295609,0.,6.35000020265579));
#307=CARTESIAN_POINT('',(2.28600007295609,5.08,6.35000020265579));
#308=CARTESIAN_POINT('',(2.28600007295609,0.,6.35000020265579));
#309=CARTESIAN_POINT('',(4.98475007295608,5.08,6.35000020265579));
#310=CARTESIAN_POINT('',(2.28600007295609,5.08,6.35000020265579));
#311=CARTESIAN_POINT('',(4.98475007295608,0.,6.35000020265579));
#312=CARTESIAN_POINT('Origin',(4.98475007295608,0.,7.97718770265579));
#313=CARTESIAN_POINT('',(4.98475007295608,0.,7.97718770265579));
#314=CARTESIAN_POINT('',(4.98475007295608,0.,6.35000020265579));
#315=CARTESIAN_POINT('',(4.98475007295608,5.08,7.97718770265579));
#316=CARTESIAN_POINT('',(4.98475007295608,5.08,6.35000020265579));
#317=CARTESIAN_POINT('',(4.98475007295608,0.,7.97718770265579));
#318=CARTESIAN_POINT('Origin',(3.63537507295608,0.,7.97718770265579));
#319=CARTESIAN_POINT('',(2.28600007295609,0.,7.97718770265579));
#320=CARTESIAN_POINT('Origin',(3.63537507295608,0.,7.97718770265579));
#321=CARTESIAN_POINT('',(2.28600007295609,5.08,7.97718770265579));
#322=CARTESIAN_POINT('Origin',(3.63537507295608,5.08,7.97718770265579));
#323=CARTESIAN_POINT('',(2.28600007295609,0.,7.97718770265579));
#324=CARTESIAN_POINT('Origin',(2.28600007295609,0.,6.35000020265579));
#325=CARTESIAN_POINT('',(2.28600007295609,0.,6.35000020265579));
#326=CARTESIAN_POINT('',(2.28600007295609,5.08,6.35000020265579));
#327=CARTESIAN_POINT('Origin',(3.63537507295608,5.08,7.83828145265579));
#328=CARTESIAN_POINT('Origin',(3.63537507295608,0.,7.83828145265579));
#329=UNCERTAINTY_MEASURE_WITH_UNIT(LENGTH_MEASURE(0.001),#333,
'DISTANCE_ACCURACY_VALUE',
'Maximum model space distance between geometric entities at asserted c
onnectivities');
#330=UNCERTAINTY_MEASURE_WITH_UNIT(LENGTH_MEASURE(0.001),#333,
'DISTANCE_ACCURACY_VALUE',
'Maximum model space distance between geometric entities at asserted c
onnectivities');
#331=(
GEOMETRIC_REPRESENTATION_CONTEXT(3)
GLOBAL_UNCERTAINTY_ASSIGNED_CONTEXT((#329))
GLOBAL_UNIT_ASSIGNED_CONTEXT((#333,#335,#336))
REPRESENTATION_CONTEXT('','3D')
);
#332=(
GEOMETRIC_REPRESENTATION_CONTEXT(3)
GLOBAL_UNCERTAINTY_ASSIGNED_CONTEXT((#330))
GLOBAL_UNIT_ASSIGNED_CONTEXT((#333,#335,#336))
REPRESENTATION_CONTEXT('','3D')
);
#333=(
LENGTH_UNIT()
NAMED_UNIT(*)
SI_UNIT(.CENTI.,.METRE.)
);
#334=(
LENGTH_UNIT()
NAMED_UNIT(*)
SI_UNIT($,.METRE.)
);
#335=(
NAMED_UNIT(*)
PLANE_ANGLE_UNIT()
SI_UNIT($,.RADIAN.)
);
#336=(
NAMED_UNIT(*)
SI_UNIT($,.STERADIAN.)
SOLID_ANGLE_UNIT()
);
#337=SHAPE_DEFINITION_REPRESENTATION(#338,#339);
#338=PRODUCT_DEFINITION_SHAPE('',$,#341);
#339=SHAPE_REPRESENTATION('',(#203),#331);
#340=PRODUCT_DEFINITION_CONTEXT('part definition',#345,'design');
#341=PRODUCT_DEFINITION('temp_body','temp_body',#342,#340);
#342=PRODUCT_DEFINITION_FORMATION('',$,#347);
#343=PRODUCT_RELATED_PRODUCT_CATEGORY('temp_body','temp_body',(#347));
#344=APPLICATION_PROTOCOL_DEFINITION('international standard',
'automotive_design',2009,#345);
#345=APPLICATION_CONTEXT(
'Core Data for Automotive Mechanical Design Process');
#346=PRODUCT_CONTEXT('part definition',#345,'mechanical');
#347=PRODUCT('temp_body','temp_body',$,(#346));
#348=PRESENTATION_STYLE_ASSIGNMENT((#349));
#349=SURFACE_STYLE_USAGE(.BOTH.,#350);
#350=SURFACE_SIDE_STYLE('',(#351));
#351=SURFACE_STYLE_FILL_AREA(#352);
#352=FILL_AREA_STYLE('Steel - Satin',(#353));
#353=FILL_AREA_STYLE_COLOUR('Steel - Satin',#354);
#354=COLOUR_RGB('Steel - Satin',0.627450980392157,0.627450980392157,0.627450980392157);
ENDSEC;
END-ISO-10303-21;
