ISO-10303-21;
HEADER;
/* Generated by software containing ST-Developer
 * from STEP Tools, Inc. (www.steptools.com) 
 */

FILE_DESCRIPTION(
/* description */ (''),
/* implementation_level */ '2;1');

FILE_NAME(
/* name */ 
'C:\\Users\\designnet\\AppData\\Local\\Temp\\derivatives\\23211_3aac9c
7e\\AssemblyExtractor\\23211_3aac9c7e\\0a217662-05f1-11ec-a824-0ac5158
7b959.step',
/* time_stamp */ '2021-08-25T22:09:04+00:00',
/* author */ (''),
/* organization */ (''),
/* preprocessor_version */ 'ST-DEVELOPER v18.1',
/* originating_system */ 'Autodesk Translation Framework v10.6.0.1341',

/* authorisation */ '');

FILE_SCHEMA (('AUTOMOTIVE_DESIGN { 1 0 10303 214 3 1 1 }'));
ENDSEC;

DATA;
#10=MECHANICAL_DESIGN_GEOMETRIC_PRESENTATION_REPRESENTATION('',(#13),#688);
#11=SHAPE_REPRESENTATION_RELATIONSHIP('SRR','None',#695,#12);
#12=ADVANCED_BREP_SHAPE_REPRESENTATION('',(#14),#687);
#13=STYLED_ITEM('',(#704),#14);
#14=MANIFOLD_SOLID_BREP('Body1',#371);
#15=PLANE('',#393);
#16=PLANE('',#394);
#17=PLANE('',#395);
#18=PLANE('',#396);
#19=PLANE('',#397);
#20=PLANE('',#401);
#21=PLANE('',#405);
#22=PLANE('',#409);
#23=PLANE('',#413);
#24=PLANE('',#414);
#25=FACE_BOUND('',#54,.T.);
#26=FACE_BOUND('',#62,.T.);
#27=FACE_BOUND('',#69,.T.);
#28=FACE_BOUND('',#70,.T.);
#29=FACE_BOUND('',#72,.T.);
#30=FACE_BOUND('',#73,.T.);
#31=CONICAL_SURFACE('',#389,0.1984375,1.02974425867665);
#32=FACE_OUTER_BOUND('',#50,.T.);
#33=FACE_OUTER_BOUND('',#51,.T.);
#34=FACE_OUTER_BOUND('',#52,.T.);
#35=FACE_OUTER_BOUND('',#53,.T.);
#36=FACE_OUTER_BOUND('',#55,.T.);
#37=FACE_OUTER_BOUND('',#56,.T.);
#38=FACE_OUTER_BOUND('',#57,.T.);
#39=FACE_OUTER_BOUND('',#58,.T.);
#40=FACE_OUTER_BOUND('',#59,.T.);
#41=FACE_OUTER_BOUND('',#60,.T.);
#42=FACE_OUTER_BOUND('',#61,.T.);
#43=FACE_OUTER_BOUND('',#63,.T.);
#44=FACE_OUTER_BOUND('',#64,.T.);
#45=FACE_OUTER_BOUND('',#65,.T.);
#46=FACE_OUTER_BOUND('',#66,.T.);
#47=FACE_OUTER_BOUND('',#67,.T.);
#48=FACE_OUTER_BOUND('',#68,.T.);
#49=FACE_OUTER_BOUND('',#71,.T.);
#50=EDGE_LOOP('',(#244,#245,#246,#247,#248));
#51=EDGE_LOOP('',(#249,#250,#251,#252,#253,#254,#255));
#52=EDGE_LOOP('',(#256,#257,#258));
#53=EDGE_LOOP('',(#259,#260,#261,#262,#263,#264,#265,#266,#267,#268));
#54=EDGE_LOOP('',(#269,#270));
#55=EDGE_LOOP('',(#271,#272,#273,#274));
#56=EDGE_LOOP('',(#275,#276,#277,#278));
#57=EDGE_LOOP('',(#279,#280,#281,#282));
#58=EDGE_LOOP('',(#283,#284,#285,#286));
#59=EDGE_LOOP('',(#287,#288,#289,#290));
#60=EDGE_LOOP('',(#291,#292,#293,#294));
#61=EDGE_LOOP('',(#295,#296,#297,#298));
#62=EDGE_LOOP('',(#299));
#63=EDGE_LOOP('',(#300,#301,#302,#303));
#64=EDGE_LOOP('',(#304,#305,#306,#307));
#65=EDGE_LOOP('',(#308,#309,#310,#311));
#66=EDGE_LOOP('',(#312,#313,#314,#315));
#67=EDGE_LOOP('',(#316,#317,#318,#319));
#68=EDGE_LOOP('',(#320,#321,#322,#323,#324,#325,#326,#327));
#69=EDGE_LOOP('',(#328));
#70=EDGE_LOOP('',(#329,#330,#331,#332));
#71=EDGE_LOOP('',(#333,#334,#335,#336,#337,#338,#339,#340));
#72=EDGE_LOOP('',(#341));
#73=EDGE_LOOP('',(#342,#343,#344,#345));
#74=B_SPLINE_CURVE_WITH_KNOTS('',3,(#517,#518,#519,#520,#521,#522,#523,
#524,#525,#526,#527,#528,#529,#530,#531,#532,#533,#534),.UNSPECIFIED.,.F.,
 .F.,(4,2,2,2,2,2,2,2,4),(0.,0.0605722793588583,0.121144558717717,0.181655561377728,
0.242166564037739,0.302677566697751,0.363188569357762,0.423760848716621,
0.484333128075479),.UNSPECIFIED.);
#75=B_SPLINE_CURVE_WITH_KNOTS('',3,(#535,#536,#537,#538,#539,#540,#541,
#542,#543,#544,#545,#546,#547,#548,#549,#550,#551,#552),.UNSPECIFIED.,.F.,
 .F.,(4,2,2,2,2,2,2,2,4),(0.484333128075479,0.544905407434337,0.605477686793195,
0.665988689453207,0.726499692113219,0.78701069477323,0.847521697433241,
0.908093976792099,0.968666256150958),.UNSPECIFIED.);
#76=B_SPLINE_CURVE_WITH_KNOTS('',3,(#556,#557,#558,#559,#560,#561,#562,
#563,#564,#565),.UNSPECIFIED.,.F.,.F.,(4,2,2,2,4),(0.,0.0605722793588583,
0.121144558717717,0.181655561377728,0.242166564037739),.UNSPECIFIED.);
#77=B_SPLINE_CURVE_WITH_KNOTS('',3,(#567,#568,#569,#570,#571,#572,#573,
#574,#575,#576),.UNSPECIFIED.,.F.,.F.,(4,2,2,2,4),(0.726499692113219,0.78701069477323,
0.847521697433241,0.908093976792099,0.968666256150958),.UNSPECIFIED.);
#78=B_SPLINE_CURVE_WITH_KNOTS('',3,(#578,#579,#580,#581,#582,#583,#584,
#585,#586,#587),.UNSPECIFIED.,.F.,.F.,(4,2,2,2,4),(0.484333128075479,0.544905407434337,
0.605477686793195,0.665988689453207,0.726499692113219),.UNSPECIFIED.);
#79=B_SPLINE_CURVE_WITH_KNOTS('',3,(#591,#592,#593,#594,#595,#596,#597,
#598,#599,#600),.UNSPECIFIED.,.F.,.F.,(4,2,2,2,4),(0.242166564037739,0.302677566697751,
0.363188569357762,0.423760848716621,0.484333128075479),.UNSPECIFIED.);
#80=LINE('',#515,#113);
#81=LINE('',#589,#114);
#82=LINE('',#605,#115);
#83=LINE('',#609,#116);
#84=LINE('',#610,#117);
#85=LINE('',#614,#118);
#86=LINE('',#616,#119);
#87=LINE('',#618,#120);
#88=LINE('',#619,#121);
#89=LINE('',#622,#122);
#90=LINE('',#624,#123);
#91=LINE('',#625,#124);
#92=LINE('',#628,#125);
#93=LINE('',#630,#126);
#94=LINE('',#631,#127);
#95=LINE('',#633,#128);
#96=LINE('',#634,#129);
#97=LINE('',#638,#130);
#98=LINE('',#640,#131);
#99=LINE('',#642,#132);
#100=LINE('',#643,#133);
#101=LINE('',#649,#134);
#102=LINE('',#652,#135);
#103=LINE('',#654,#136);
#104=LINE('',#655,#137);
#105=LINE('',#661,#138);
#106=LINE('',#664,#139);
#107=LINE('',#666,#140);
#108=LINE('',#667,#141);
#109=LINE('',#673,#142);
#110=LINE('',#676,#143);
#111=LINE('',#678,#144);
#112=LINE('',#679,#145);
#113=VECTOR('',#421,0.15875);
#114=VECTOR('',#424,0.15875);
#115=VECTOR('',#431,0.1984375);
#116=VECTOR('',#436,0.396875);
#117=VECTOR('',#437,0.396875);
#118=VECTOR('',#440,1.);
#119=VECTOR('',#441,1.);
#120=VECTOR('',#442,1.);
#121=VECTOR('',#443,1.);
#122=VECTOR('',#446,1.);
#123=VECTOR('',#447,1.);
#124=VECTOR('',#448,1.);
#125=VECTOR('',#451,1.);
#126=VECTOR('',#452,1.);
#127=VECTOR('',#453,1.);
#128=VECTOR('',#456,1.);
#129=VECTOR('',#457,1.);
#130=VECTOR('',#460,1.);
#131=VECTOR('',#461,1.);
#132=VECTOR('',#462,1.);
#133=VECTOR('',#463,1.);
#134=VECTOR('',#470,1.);
#135=VECTOR('',#473,1.);
#136=VECTOR('',#474,1.);
#137=VECTOR('',#475,1.);
#138=VECTOR('',#482,1.);
#139=VECTOR('',#485,1.);
#140=VECTOR('',#486,1.);
#141=VECTOR('',#487,1.);
#142=VECTOR('',#494,1.);
#143=VECTOR('',#497,1.);
#144=VECTOR('',#498,1.);
#145=VECTOR('',#499,1.);
#146=CIRCLE('',#386,0.15875);
#147=CIRCLE('',#388,0.15875);
#148=CIRCLE('',#390,0.396875);
#149=CIRCLE('',#392,0.396875);
#150=CIRCLE('',#399,1.44018);
#151=CIRCLE('',#400,1.44018);
#152=CIRCLE('',#403,1.44018);
#153=CIRCLE('',#404,1.44018);
#154=CIRCLE('',#407,1.44018);
#155=CIRCLE('',#408,1.44018);
#156=CIRCLE('',#411,1.44018);
#157=CIRCLE('',#412,1.44018);
#158=VERTEX_POINT('',#512);
#159=VERTEX_POINT('',#514);
#160=VERTEX_POINT('',#516);
#161=VERTEX_POINT('',#554);
#162=VERTEX_POINT('',#555);
#163=VERTEX_POINT('',#566);
#164=VERTEX_POINT('',#577);
#165=VERTEX_POINT('',#588);
#166=VERTEX_POINT('',#602);
#167=VERTEX_POINT('',#604);
#168=VERTEX_POINT('',#607);
#169=VERTEX_POINT('',#612);
#170=VERTEX_POINT('',#613);
#171=VERTEX_POINT('',#615);
#172=VERTEX_POINT('',#617);
#173=VERTEX_POINT('',#621);
#174=VERTEX_POINT('',#623);
#175=VERTEX_POINT('',#627);
#176=VERTEX_POINT('',#629);
#177=VERTEX_POINT('',#636);
#178=VERTEX_POINT('',#637);
#179=VERTEX_POINT('',#639);
#180=VERTEX_POINT('',#641);
#181=VERTEX_POINT('',#645);
#182=VERTEX_POINT('',#647);
#183=VERTEX_POINT('',#651);
#184=VERTEX_POINT('',#653);
#185=VERTEX_POINT('',#657);
#186=VERTEX_POINT('',#659);
#187=VERTEX_POINT('',#663);
#188=VERTEX_POINT('',#665);
#189=VERTEX_POINT('',#669);
#190=VERTEX_POINT('',#671);
#191=VERTEX_POINT('',#675);
#192=VERTEX_POINT('',#677);
#193=EDGE_CURVE('',#158,#158,#146,.T.);
#194=EDGE_CURVE('',#158,#159,#80,.T.);
#195=EDGE_CURVE('',#160,#159,#74,.T.);
#196=EDGE_CURVE('',#159,#160,#75,.T.);
#197=EDGE_CURVE('',#161,#162,#76,.T.);
#198=EDGE_CURVE('',#163,#161,#77,.T.);
#199=EDGE_CURVE('',#164,#163,#78,.T.);
#200=EDGE_CURVE('',#164,#165,#81,.T.);
#201=EDGE_CURVE('',#165,#165,#147,.T.);
#202=EDGE_CURVE('',#162,#164,#79,.T.);
#203=EDGE_CURVE('',#166,#166,#148,.T.);
#204=EDGE_CURVE('',#166,#167,#82,.T.);
#205=EDGE_CURVE('',#168,#168,#149,.T.);
#206=EDGE_CURVE('',#168,#163,#83,.T.);
#207=EDGE_CURVE('',#162,#166,#84,.T.);
#208=EDGE_CURVE('',#169,#170,#85,.T.);
#209=EDGE_CURVE('',#170,#171,#86,.T.);
#210=EDGE_CURVE('',#172,#171,#87,.T.);
#211=EDGE_CURVE('',#169,#172,#88,.T.);
#212=EDGE_CURVE('',#173,#169,#89,.T.);
#213=EDGE_CURVE('',#174,#172,#90,.T.);
#214=EDGE_CURVE('',#173,#174,#91,.T.);
#215=EDGE_CURVE('',#175,#173,#92,.T.);
#216=EDGE_CURVE('',#176,#174,#93,.T.);
#217=EDGE_CURVE('',#175,#176,#94,.T.);
#218=EDGE_CURVE('',#170,#175,#95,.T.);
#219=EDGE_CURVE('',#171,#176,#96,.T.);
#220=EDGE_CURVE('',#177,#178,#97,.T.);
#221=EDGE_CURVE('',#178,#179,#98,.T.);
#222=EDGE_CURVE('',#180,#179,#99,.T.);
#223=EDGE_CURVE('',#177,#180,#100,.T.);
#224=EDGE_CURVE('',#181,#177,#150,.T.);
#225=EDGE_CURVE('',#182,#180,#151,.T.);
#226=EDGE_CURVE('',#181,#182,#101,.T.);
#227=EDGE_CURVE('',#183,#181,#102,.T.);
#228=EDGE_CURVE('',#184,#182,#103,.T.);
#229=EDGE_CURVE('',#183,#184,#104,.T.);
#230=EDGE_CURVE('',#185,#183,#152,.T.);
#231=EDGE_CURVE('',#186,#184,#153,.T.);
#232=EDGE_CURVE('',#185,#186,#105,.T.);
#233=EDGE_CURVE('',#187,#185,#106,.T.);
#234=EDGE_CURVE('',#188,#186,#107,.T.);
#235=EDGE_CURVE('',#187,#188,#108,.T.);
#236=EDGE_CURVE('',#189,#187,#154,.T.);
#237=EDGE_CURVE('',#190,#188,#155,.T.);
#238=EDGE_CURVE('',#189,#190,#109,.T.);
#239=EDGE_CURVE('',#191,#189,#110,.T.);
#240=EDGE_CURVE('',#192,#190,#111,.T.);
#241=EDGE_CURVE('',#191,#192,#112,.T.);
#242=EDGE_CURVE('',#178,#191,#156,.T.);
#243=EDGE_CURVE('',#179,#192,#157,.T.);
#244=ORIENTED_EDGE('',*,*,#193,.F.);
#245=ORIENTED_EDGE('',*,*,#194,.T.);
#246=ORIENTED_EDGE('',*,*,#195,.F.);
#247=ORIENTED_EDGE('',*,*,#196,.F.);
#248=ORIENTED_EDGE('',*,*,#194,.F.);
#249=ORIENTED_EDGE('',*,*,#197,.F.);
#250=ORIENTED_EDGE('',*,*,#198,.F.);
#251=ORIENTED_EDGE('',*,*,#199,.F.);
#252=ORIENTED_EDGE('',*,*,#200,.T.);
#253=ORIENTED_EDGE('',*,*,#201,.F.);
#254=ORIENTED_EDGE('',*,*,#200,.F.);
#255=ORIENTED_EDGE('',*,*,#202,.F.);
#256=ORIENTED_EDGE('',*,*,#203,.F.);
#257=ORIENTED_EDGE('',*,*,#204,.T.);
#258=ORIENTED_EDGE('',*,*,#204,.F.);
#259=ORIENTED_EDGE('',*,*,#205,.F.);
#260=ORIENTED_EDGE('',*,*,#206,.T.);
#261=ORIENTED_EDGE('',*,*,#198,.T.);
#262=ORIENTED_EDGE('',*,*,#197,.T.);
#263=ORIENTED_EDGE('',*,*,#207,.T.);
#264=ORIENTED_EDGE('',*,*,#203,.T.);
#265=ORIENTED_EDGE('',*,*,#207,.F.);
#266=ORIENTED_EDGE('',*,*,#202,.T.);
#267=ORIENTED_EDGE('',*,*,#199,.T.);
#268=ORIENTED_EDGE('',*,*,#206,.F.);
#269=ORIENTED_EDGE('',*,*,#195,.T.);
#270=ORIENTED_EDGE('',*,*,#196,.T.);
#271=ORIENTED_EDGE('',*,*,#208,.T.);
#272=ORIENTED_EDGE('',*,*,#209,.T.);
#273=ORIENTED_EDGE('',*,*,#210,.F.);
#274=ORIENTED_EDGE('',*,*,#211,.F.);
#275=ORIENTED_EDGE('',*,*,#212,.T.);
#276=ORIENTED_EDGE('',*,*,#211,.T.);
#277=ORIENTED_EDGE('',*,*,#213,.F.);
#278=ORIENTED_EDGE('',*,*,#214,.F.);
#279=ORIENTED_EDGE('',*,*,#215,.T.);
#280=ORIENTED_EDGE('',*,*,#214,.T.);
#281=ORIENTED_EDGE('',*,*,#216,.F.);
#282=ORIENTED_EDGE('',*,*,#217,.F.);
#283=ORIENTED_EDGE('',*,*,#218,.T.);
#284=ORIENTED_EDGE('',*,*,#217,.T.);
#285=ORIENTED_EDGE('',*,*,#219,.F.);
#286=ORIENTED_EDGE('',*,*,#209,.F.);
#287=ORIENTED_EDGE('',*,*,#220,.T.);
#288=ORIENTED_EDGE('',*,*,#221,.T.);
#289=ORIENTED_EDGE('',*,*,#222,.F.);
#290=ORIENTED_EDGE('',*,*,#223,.F.);
#291=ORIENTED_EDGE('',*,*,#224,.T.);
#292=ORIENTED_EDGE('',*,*,#223,.T.);
#293=ORIENTED_EDGE('',*,*,#225,.F.);
#294=ORIENTED_EDGE('',*,*,#226,.F.);
#295=ORIENTED_EDGE('',*,*,#227,.T.);
#296=ORIENTED_EDGE('',*,*,#226,.T.);
#297=ORIENTED_EDGE('',*,*,#228,.F.);
#298=ORIENTED_EDGE('',*,*,#229,.F.);
#299=ORIENTED_EDGE('',*,*,#205,.T.);
#300=ORIENTED_EDGE('',*,*,#230,.T.);
#301=ORIENTED_EDGE('',*,*,#229,.T.);
#302=ORIENTED_EDGE('',*,*,#231,.F.);
#303=ORIENTED_EDGE('',*,*,#232,.F.);
#304=ORIENTED_EDGE('',*,*,#233,.T.);
#305=ORIENTED_EDGE('',*,*,#232,.T.);
#306=ORIENTED_EDGE('',*,*,#234,.F.);
#307=ORIENTED_EDGE('',*,*,#235,.F.);
#308=ORIENTED_EDGE('',*,*,#236,.T.);
#309=ORIENTED_EDGE('',*,*,#235,.T.);
#310=ORIENTED_EDGE('',*,*,#237,.F.);
#311=ORIENTED_EDGE('',*,*,#238,.F.);
#312=ORIENTED_EDGE('',*,*,#239,.T.);
#313=ORIENTED_EDGE('',*,*,#238,.T.);
#314=ORIENTED_EDGE('',*,*,#240,.F.);
#315=ORIENTED_EDGE('',*,*,#241,.F.);
#316=ORIENTED_EDGE('',*,*,#242,.T.);
#317=ORIENTED_EDGE('',*,*,#241,.T.);
#318=ORIENTED_EDGE('',*,*,#243,.F.);
#319=ORIENTED_EDGE('',*,*,#221,.F.);
#320=ORIENTED_EDGE('',*,*,#243,.T.);
#321=ORIENTED_EDGE('',*,*,#240,.T.);
#322=ORIENTED_EDGE('',*,*,#237,.T.);
#323=ORIENTED_EDGE('',*,*,#234,.T.);
#324=ORIENTED_EDGE('',*,*,#231,.T.);
#325=ORIENTED_EDGE('',*,*,#228,.T.);
#326=ORIENTED_EDGE('',*,*,#225,.T.);
#327=ORIENTED_EDGE('',*,*,#222,.T.);
#328=ORIENTED_EDGE('',*,*,#193,.T.);
#329=ORIENTED_EDGE('',*,*,#219,.T.);
#330=ORIENTED_EDGE('',*,*,#216,.T.);
#331=ORIENTED_EDGE('',*,*,#213,.T.);
#332=ORIENTED_EDGE('',*,*,#210,.T.);
#333=ORIENTED_EDGE('',*,*,#242,.F.);
#334=ORIENTED_EDGE('',*,*,#220,.F.);
#335=ORIENTED_EDGE('',*,*,#224,.F.);
#336=ORIENTED_EDGE('',*,*,#227,.F.);
#337=ORIENTED_EDGE('',*,*,#230,.F.);
#338=ORIENTED_EDGE('',*,*,#233,.F.);
#339=ORIENTED_EDGE('',*,*,#236,.F.);
#340=ORIENTED_EDGE('',*,*,#239,.F.);
#341=ORIENTED_EDGE('',*,*,#201,.T.);
#342=ORIENTED_EDGE('',*,*,#218,.F.);
#343=ORIENTED_EDGE('',*,*,#208,.F.);
#344=ORIENTED_EDGE('',*,*,#212,.F.);
#345=ORIENTED_EDGE('',*,*,#215,.F.);
#346=CYLINDRICAL_SURFACE('',#385,0.15875);
#347=CYLINDRICAL_SURFACE('',#387,0.15875);
#348=CYLINDRICAL_SURFACE('',#391,0.396875);
#349=CYLINDRICAL_SURFACE('',#398,1.44018);
#350=CYLINDRICAL_SURFACE('',#402,1.44018);
#351=CYLINDRICAL_SURFACE('',#406,1.44018);
#352=CYLINDRICAL_SURFACE('',#410,1.44018);
#353=ADVANCED_FACE('',(#32),#346,.F.);
#354=ADVANCED_FACE('',(#33),#347,.F.);
#355=ADVANCED_FACE('',(#34),#31,.F.);
#356=ADVANCED_FACE('',(#35,#25),#348,.F.);
#357=ADVANCED_FACE('',(#36),#15,.T.);
#358=ADVANCED_FACE('',(#37),#16,.T.);
#359=ADVANCED_FACE('',(#38),#17,.T.);
#360=ADVANCED_FACE('',(#39),#18,.T.);
#361=ADVANCED_FACE('',(#40),#19,.T.);
#362=ADVANCED_FACE('',(#41),#349,.T.);
#363=ADVANCED_FACE('',(#42,#26),#20,.T.);
#364=ADVANCED_FACE('',(#43),#350,.T.);
#365=ADVANCED_FACE('',(#44),#21,.T.);
#366=ADVANCED_FACE('',(#45),#351,.T.);
#367=ADVANCED_FACE('',(#46),#22,.T.);
#368=ADVANCED_FACE('',(#47),#352,.T.);
#369=ADVANCED_FACE('',(#48,#27,#28),#23,.T.);
#370=ADVANCED_FACE('',(#49,#29,#30),#24,.F.);
#371=CLOSED_SHELL('',(#353,#354,#355,#356,#357,#358,#359,#360,#361,#362,
#363,#364,#365,#366,#367,#368,#369,#370));
#372=DERIVED_UNIT_ELEMENT(#374,1.);
#373=DERIVED_UNIT_ELEMENT(#690,-3.);
#374=(
MASS_UNIT()
NAMED_UNIT(*)
SI_UNIT(.KILO.,.GRAM.)
);
#375=DERIVED_UNIT((#372,#373));
#376=MEASURE_REPRESENTATION_ITEM('density measure',
POSITIVE_RATIO_MEASURE(7850.),#375);
#377=PROPERTY_DEFINITION_REPRESENTATION(#382,#379);
#378=PROPERTY_DEFINITION_REPRESENTATION(#383,#380);
#379=REPRESENTATION('material name',(#381),#687);
#380=REPRESENTATION('density',(#376),#687);
#381=DESCRIPTIVE_REPRESENTATION_ITEM('Steel','Steel');
#382=PROPERTY_DEFINITION('material property','material name',#697);
#383=PROPERTY_DEFINITION('material property','density of part',#697);
#384=AXIS2_PLACEMENT_3D('placement',#510,#415,#416);
#385=AXIS2_PLACEMENT_3D('',#511,#417,#418);
#386=AXIS2_PLACEMENT_3D('',#513,#419,#420);
#387=AXIS2_PLACEMENT_3D('',#553,#422,#423);
#388=AXIS2_PLACEMENT_3D('',#590,#425,#426);
#389=AXIS2_PLACEMENT_3D('',#601,#427,#428);
#390=AXIS2_PLACEMENT_3D('',#603,#429,#430);
#391=AXIS2_PLACEMENT_3D('',#606,#432,#433);
#392=AXIS2_PLACEMENT_3D('',#608,#434,#435);
#393=AXIS2_PLACEMENT_3D('',#611,#438,#439);
#394=AXIS2_PLACEMENT_3D('',#620,#444,#445);
#395=AXIS2_PLACEMENT_3D('',#626,#449,#450);
#396=AXIS2_PLACEMENT_3D('',#632,#454,#455);
#397=AXIS2_PLACEMENT_3D('',#635,#458,#459);
#398=AXIS2_PLACEMENT_3D('',#644,#464,#465);
#399=AXIS2_PLACEMENT_3D('',#646,#466,#467);
#400=AXIS2_PLACEMENT_3D('',#648,#468,#469);
#401=AXIS2_PLACEMENT_3D('',#650,#471,#472);
#402=AXIS2_PLACEMENT_3D('',#656,#476,#477);
#403=AXIS2_PLACEMENT_3D('',#658,#478,#479);
#404=AXIS2_PLACEMENT_3D('',#660,#480,#481);
#405=AXIS2_PLACEMENT_3D('',#662,#483,#484);
#406=AXIS2_PLACEMENT_3D('',#668,#488,#489);
#407=AXIS2_PLACEMENT_3D('',#670,#490,#491);
#408=AXIS2_PLACEMENT_3D('',#672,#492,#493);
#409=AXIS2_PLACEMENT_3D('',#674,#495,#496);
#410=AXIS2_PLACEMENT_3D('',#680,#500,#501);
#411=AXIS2_PLACEMENT_3D('',#681,#502,#503);
#412=AXIS2_PLACEMENT_3D('',#682,#504,#505);
#413=AXIS2_PLACEMENT_3D('',#683,#506,#507);
#414=AXIS2_PLACEMENT_3D('',#684,#508,#509);
#415=DIRECTION('axis',(0.,0.,1.));
#416=DIRECTION('refdir',(1.,0.,0.));
#417=DIRECTION('center_axis',(0.,0.,-1.));
#418=DIRECTION('ref_axis',(1.,0.,0.));
#419=DIRECTION('center_axis',(0.,0.,-1.));
#420=DIRECTION('ref_axis',(1.,0.,0.));
#421=DIRECTION('',(0.,0.,-1.));
#422=DIRECTION('center_axis',(0.,0.,-1.));
#423=DIRECTION('ref_axis',(1.,0.,0.));
#424=DIRECTION('',(0.,0.,-1.));
#425=DIRECTION('center_axis',(0.,0.,1.));
#426=DIRECTION('ref_axis',(1.,0.,0.));
#427=DIRECTION('center_axis',(-1.26796490278053E-15,1.,0.));
#428=DIRECTION('ref_axis',(0.,0.,1.));
#429=DIRECTION('center_axis',(1.26796490278053E-15,-1.,0.));
#430=DIRECTION('ref_axis',(0.,0.,1.));
#431=DIRECTION('',(5.48077483467734E-16,-0.515038074910054,0.857167300702112));
#432=DIRECTION('center_axis',(1.26796490278053E-15,-1.,0.));
#433=DIRECTION('ref_axis',(0.,0.,1.));
#434=DIRECTION('center_axis',(1.26796490278053E-15,-1.,0.));
#435=DIRECTION('ref_axis',(0.,0.,1.));
#436=DIRECTION('',(1.26796490278053E-15,-1.,0.));
#437=DIRECTION('',(1.26796490278053E-15,-1.,0.));
#438=DIRECTION('center_axis',(0.,1.,0.));
#439=DIRECTION('ref_axis',(-1.,0.,0.));
#440=DIRECTION('',(-1.,0.,0.));
#441=DIRECTION('',(0.,0.,1.));
#442=DIRECTION('',(-1.,0.,0.));
#443=DIRECTION('',(0.,0.,1.));
#444=DIRECTION('center_axis',(-1.,-1.31642933906458E-15,0.));
#445=DIRECTION('ref_axis',(1.31642933906458E-15,-1.,0.));
#446=DIRECTION('',(1.31642933906458E-15,-1.,0.));
#447=DIRECTION('',(1.31642933906458E-15,-1.,0.));
#448=DIRECTION('',(0.,0.,1.));
#449=DIRECTION('center_axis',(-1.52586127937029E-15,-1.,0.));
#450=DIRECTION('ref_axis',(1.,-1.52586127937029E-15,0.));
#451=DIRECTION('',(1.,-1.52586127937029E-15,0.));
#452=DIRECTION('',(1.,-1.52586127937029E-15,0.));
#453=DIRECTION('',(0.,0.,1.));
#454=DIRECTION('center_axis',(1.,0.,0.));
#455=DIRECTION('ref_axis',(0.,1.,0.));
#456=DIRECTION('',(0.,1.,0.));
#457=DIRECTION('',(0.,1.,0.));
#458=DIRECTION('center_axis',(-1.,-1.91080078245369E-15,0.));
#459=DIRECTION('ref_axis',(1.91080078245369E-15,-1.,0.));
#460=DIRECTION('',(1.91080078245369E-15,-1.,0.));
#461=DIRECTION('',(0.,0.,1.));
#462=DIRECTION('',(1.91080078245369E-15,-1.,0.));
#463=DIRECTION('',(0.,0.,1.));
#464=DIRECTION('center_axis',(0.,0.,1.));
#465=DIRECTION('ref_axis',(-1.23342696010239E-15,1.,0.));
#466=DIRECTION('center_axis',(0.,0.,1.));
#467=DIRECTION('ref_axis',(-1.23342696010239E-15,1.,0.));
#468=DIRECTION('center_axis',(0.,0.,1.));
#469=DIRECTION('ref_axis',(-1.23342696010239E-15,1.,0.));
#470=DIRECTION('',(0.,0.,1.));
#471=DIRECTION('center_axis',(-1.26796490278053E-15,1.,0.));
#472=DIRECTION('ref_axis',(-1.,-1.26796490278053E-15,0.));
#473=DIRECTION('',(-1.,-1.26796490278053E-15,0.));
#474=DIRECTION('',(-1.,-1.26796490278053E-15,0.));
#475=DIRECTION('',(0.,0.,1.));
#476=DIRECTION('center_axis',(0.,0.,1.));
#477=DIRECTION('ref_axis',(1.,1.54178370012798E-15,0.));
#478=DIRECTION('center_axis',(0.,0.,1.));
#479=DIRECTION('ref_axis',(1.,1.54178370012798E-15,0.));
#480=DIRECTION('center_axis',(0.,0.,1.));
#481=DIRECTION('ref_axis',(1.,1.54178370012798E-15,0.));
#482=DIRECTION('',(0.,0.,1.));
#483=DIRECTION('center_axis',(1.,1.19425048903358E-15,0.));
#484=DIRECTION('ref_axis',(-1.19425048903358E-15,1.,0.));
#485=DIRECTION('',(-1.19425048903358E-15,1.,0.));
#486=DIRECTION('',(-1.19425048903358E-15,1.,0.));
#487=DIRECTION('',(0.,0.,1.));
#488=DIRECTION('center_axis',(0.,0.,1.));
#489=DIRECTION('ref_axis',(7.7089185006399E-17,-1.,0.));
#490=DIRECTION('center_axis',(0.,0.,1.));
#491=DIRECTION('ref_axis',(7.7089185006399E-17,-1.,0.));
#492=DIRECTION('center_axis',(0.,0.,1.));
#493=DIRECTION('ref_axis',(7.7089185006399E-17,-1.,0.));
#494=DIRECTION('',(0.,0.,1.));
#495=DIRECTION('center_axis',(0.,-1.,0.));
#496=DIRECTION('ref_axis',(1.,0.,0.));
#497=DIRECTION('',(1.,0.,0.));
#498=DIRECTION('',(1.,0.,0.));
#499=DIRECTION('',(0.,0.,1.));
#500=DIRECTION('center_axis',(0.,0.,1.));
#501=DIRECTION('ref_axis',(-1.,0.,0.));
#502=DIRECTION('center_axis',(0.,0.,1.));
#503=DIRECTION('ref_axis',(-1.,0.,0.));
#504=DIRECTION('center_axis',(0.,0.,1.));
#505=DIRECTION('ref_axis',(-1.,0.,0.));
#506=DIRECTION('center_axis',(0.,0.,1.));
#507=DIRECTION('ref_axis',(1.,0.,0.));
#508=DIRECTION('center_axis',(0.,0.,1.));
#509=DIRECTION('ref_axis',(1.,0.,0.));
#510=CARTESIAN_POINT('',(0.,0.,0.));
#511=CARTESIAN_POINT('Origin',(-2.06468757158355,-2.16083885424964,0.5715));
#512=CARTESIAN_POINT('',(-2.22343757158355,-2.16083885424964,1.27));
#513=CARTESIAN_POINT('Origin',(-2.06468757158355,-2.16083885424964,1.27));
#514=CARTESIAN_POINT('',(-2.22343757158355,-2.16083885424964,0.998741945787116));
#515=CARTESIAN_POINT('',(-2.22343757158355,-2.16083885424964,0.5715));
#516=CARTESIAN_POINT('',(-1.90593757158355,-2.16083885424964,0.998741945787124));
#517=CARTESIAN_POINT('Ctrl Pts',(-1.90593757158355,-2.16083885424964,0.998741945787124));
#518=CARTESIAN_POINT('Ctrl Pts',(-1.90593757158355,-2.14064809446336,0.998741945787124));
#519=CARTESIAN_POINT('Ctrl Pts',(-1.91001917690135,-2.11929075677451,1.00060091930672));
#520=CARTESIAN_POINT('Ctrl Pts',(-1.9262840898868,-2.08025945573906,1.00706291861392));
#521=CARTESIAN_POINT('Ctrl Pts',(-1.93845794948259,-2.06256207332388,1.01154770557999));
#522=CARTESIAN_POINT('Ctrl Pts',(-1.96639665169976,-2.0346233711067,1.01978637939465));
#523=CARTESIAN_POINT('Ctrl Pts',(-1.98409938577292,-2.02243878872681,1.02410901076884));
#524=CARTESIAN_POINT('Ctrl Pts',(-2.02315156216033,-2.00616566794201,1.03018987577792));
#525=CARTESIAN_POINT('Ctrl Pts',(-2.04451723736355,-2.00208885424964,1.031875));
#526=CARTESIAN_POINT('Ctrl Pts',(-2.08485790580356,-2.00208885424964,1.031875));
#527=CARTESIAN_POINT('Ctrl Pts',(-2.10622358100677,-2.00616566794201,1.03018987577792));
#528=CARTESIAN_POINT('Ctrl Pts',(-2.14527575739418,-2.02243878872681,1.02410901076883));
#529=CARTESIAN_POINT('Ctrl Pts',(-2.16297849146734,-2.0346233711067,1.01978637939465));
#530=CARTESIAN_POINT('Ctrl Pts',(-2.19091719368452,-2.06256207332388,1.01154770557999));
#531=CARTESIAN_POINT('Ctrl Pts',(-2.20309105328031,-2.08025945573906,1.00706291861392));
#532=CARTESIAN_POINT('Ctrl Pts',(-2.21935596626575,-2.11929075677452,1.00060091930672));
#533=CARTESIAN_POINT('Ctrl Pts',(-2.22343757158355,-2.14064809446336,0.998741945787116));
#534=CARTESIAN_POINT('Ctrl Pts',(-2.22343757158355,-2.16083885424964,0.998741945787116));
#535=CARTESIAN_POINT('Ctrl Pts',(-2.22343757158355,-2.16083885424964,0.998741945787116));
#536=CARTESIAN_POINT('Ctrl Pts',(-2.22343757158355,-2.18102961403593,0.998741945787116));
#537=CARTESIAN_POINT('Ctrl Pts',(-2.21935596626575,-2.20238695172477,1.00060091930672));
#538=CARTESIAN_POINT('Ctrl Pts',(-2.20309105328031,-2.24141825276023,1.00706291861392));
#539=CARTESIAN_POINT('Ctrl Pts',(-2.19091719368452,-2.25911563517541,1.01154770557998));
#540=CARTESIAN_POINT('Ctrl Pts',(-2.16297849146734,-2.28705433739258,1.01978637939465));
#541=CARTESIAN_POINT('Ctrl Pts',(-2.14527575739418,-2.29923891977248,1.02410901076883));
#542=CARTESIAN_POINT('Ctrl Pts',(-2.10622358100677,-2.31551204055727,1.03018987577792));
#543=CARTESIAN_POINT('Ctrl Pts',(-2.08485790580356,-2.31958885424964,1.031875));
#544=CARTESIAN_POINT('Ctrl Pts',(-2.04451723736355,-2.31958885424964,1.031875));
#545=CARTESIAN_POINT('Ctrl Pts',(-2.02315156216033,-2.31551204055727,1.03018987577792));
#546=CARTESIAN_POINT('Ctrl Pts',(-1.98409938577292,-2.29923891977248,1.02410901076884));
#547=CARTESIAN_POINT('Ctrl Pts',(-1.96639665169976,-2.28705433739258,1.01978637939465));
#548=CARTESIAN_POINT('Ctrl Pts',(-1.93845794948259,-2.25911563517541,1.01154770557999));
#549=CARTESIAN_POINT('Ctrl Pts',(-1.9262840898868,-2.24141825276023,1.00706291861393));
#550=CARTESIAN_POINT('Ctrl Pts',(-1.91001917690135,-2.20238695172477,1.00060091930672));
#551=CARTESIAN_POINT('Ctrl Pts',(-1.90593757158355,-2.18102961403593,0.998741945787124));
#552=CARTESIAN_POINT('Ctrl Pts',(-1.90593757158355,-2.16083885424964,0.998741945787124));
#553=CARTESIAN_POINT('Origin',(-2.06468757158355,-2.16083885424964,0.5715));
#554=CARTESIAN_POINT('',(-1.90593757158355,-2.16083885424964,0.271258054212876));
#555=CARTESIAN_POINT('',(-2.06468757158355,-2.31958885424964,0.238125));
#556=CARTESIAN_POINT('Ctrl Pts',(-1.90593757158355,-2.16083885424964,0.271258054212876));
#557=CARTESIAN_POINT('Ctrl Pts',(-1.90593757158355,-2.18102961403593,0.271258054212876));
#558=CARTESIAN_POINT('Ctrl Pts',(-1.91001917690135,-2.20238695172477,0.269399080693276));
#559=CARTESIAN_POINT('Ctrl Pts',(-1.9262840898868,-2.24141825276023,0.262937081386075));
#560=CARTESIAN_POINT('Ctrl Pts',(-1.93845794948259,-2.25911563517541,0.258452294420009));
#561=CARTESIAN_POINT('Ctrl Pts',(-1.96639665169976,-2.28705433739258,0.25021362060535));
#562=CARTESIAN_POINT('Ctrl Pts',(-1.98409938577292,-2.29923891977248,0.245890989231162));
#563=CARTESIAN_POINT('Ctrl Pts',(-2.02315156216033,-2.31551204055727,0.239810124222077));
#564=CARTESIAN_POINT('Ctrl Pts',(-2.04451723736355,-2.31958885424964,0.238125));
#565=CARTESIAN_POINT('Ctrl Pts',(-2.06468757158355,-2.31958885424964,0.238125));
#566=CARTESIAN_POINT('',(-2.06468757158355,-2.00208885424964,0.238125));
#567=CARTESIAN_POINT('Ctrl Pts',(-2.06468757158355,-2.00208885424964,0.238125));
#568=CARTESIAN_POINT('Ctrl Pts',(-2.04451723736355,-2.00208885424964,0.238125));
#569=CARTESIAN_POINT('Ctrl Pts',(-2.02315156216033,-2.00616566794201,0.239810124222077));
#570=CARTESIAN_POINT('Ctrl Pts',(-1.98409938577292,-2.02243878872681,0.245890989231162));
#571=CARTESIAN_POINT('Ctrl Pts',(-1.96639665169976,-2.0346233711067,0.25021362060535));
#572=CARTESIAN_POINT('Ctrl Pts',(-1.93845794948259,-2.06256207332388,0.258452294420009));
#573=CARTESIAN_POINT('Ctrl Pts',(-1.9262840898868,-2.08025945573906,0.262937081386075));
#574=CARTESIAN_POINT('Ctrl Pts',(-1.91001917690135,-2.11929075677451,0.269399080693276));
#575=CARTESIAN_POINT('Ctrl Pts',(-1.90593757158355,-2.14064809446336,0.271258054212876));
#576=CARTESIAN_POINT('Ctrl Pts',(-1.90593757158355,-2.16083885424964,0.271258054212876));
#577=CARTESIAN_POINT('',(-2.22343757158355,-2.16083885424964,0.271258054212884));
#578=CARTESIAN_POINT('Ctrl Pts',(-2.22343757158355,-2.16083885424964,0.271258054212884));
#579=CARTESIAN_POINT('Ctrl Pts',(-2.22343757158355,-2.14064809446336,0.271258054212884));
#580=CARTESIAN_POINT('Ctrl Pts',(-2.21935596626575,-2.11929075677452,0.269399080693284));
#581=CARTESIAN_POINT('Ctrl Pts',(-2.20309105328031,-2.08025945573906,0.262937081386082));
#582=CARTESIAN_POINT('Ctrl Pts',(-2.19091719368452,-2.06256207332388,0.258452294420015));
#583=CARTESIAN_POINT('Ctrl Pts',(-2.16297849146734,-2.0346233711067,0.250213620605354));
#584=CARTESIAN_POINT('Ctrl Pts',(-2.14527575739418,-2.02243878872681,0.245890989231165));
#585=CARTESIAN_POINT('Ctrl Pts',(-2.10622358100677,-2.00616566794201,0.239810124222079));
#586=CARTESIAN_POINT('Ctrl Pts',(-2.08485790580356,-2.00208885424964,0.238125));
#587=CARTESIAN_POINT('Ctrl Pts',(-2.06468757158355,-2.00208885424964,0.238125));
#588=CARTESIAN_POINT('',(-2.22343757158355,-2.16083885424964,0.));
#589=CARTESIAN_POINT('',(-2.22343757158355,-2.16083885424964,0.5715));
#590=CARTESIAN_POINT('Origin',(-2.06468757158355,-2.16083885424964,0.));
#591=CARTESIAN_POINT('Ctrl Pts',(-2.06468757158355,-2.31958885424964,0.238125));
#592=CARTESIAN_POINT('Ctrl Pts',(-2.08485790580356,-2.31958885424964,0.238125));
#593=CARTESIAN_POINT('Ctrl Pts',(-2.10622358100677,-2.31551204055727,0.239810124222079));
#594=CARTESIAN_POINT('Ctrl Pts',(-2.14527575739418,-2.29923891977248,0.245890989231166));
#595=CARTESIAN_POINT('Ctrl Pts',(-2.16297849146734,-2.28705433739258,0.250213620605355));
#596=CARTESIAN_POINT('Ctrl Pts',(-2.19091719368452,-2.25911563517541,0.258452294420015));
#597=CARTESIAN_POINT('Ctrl Pts',(-2.20309105328031,-2.24141825276023,0.262937081386082));
#598=CARTESIAN_POINT('Ctrl Pts',(-2.21935596626575,-2.20238695172477,0.269399080693284));
#599=CARTESIAN_POINT('Ctrl Pts',(-2.22343757158355,-2.18102961403593,0.271258054212884));
#600=CARTESIAN_POINT('Ctrl Pts',(-2.22343757158355,-2.16083885424964,0.271258054212884));
#601=CARTESIAN_POINT('Origin',(-2.06468757158354,-2.61741588333793,0.635));
#602=CARTESIAN_POINT('',(-2.06468757158354,-2.49818260424965,0.238125));
#603=CARTESIAN_POINT('Origin',(-2.06468757158354,-2.49818260424965,0.635));
#604=CARTESIAN_POINT('',(-2.06468757158354,-2.73664916242621,0.635));
#605=CARTESIAN_POINT('',(-2.06468757158354,-2.61741588333793,0.4365625));
#606=CARTESIAN_POINT('Origin',(-2.06468757158354,-2.02193260424965,0.635));
#607=CARTESIAN_POINT('',(-2.06468757158354,-1.54568260424965,0.238125));
#608=CARTESIAN_POINT('Origin',(-2.06468757158354,-1.54568260424965,0.635));
#609=CARTESIAN_POINT('',(-2.06468757158354,-2.02193260424965,0.238125));
#610=CARTESIAN_POINT('',(-2.06468757158354,-2.02193260424965,0.238125));
#611=CARTESIAN_POINT('Origin',(-0.318437571583549,-3.45068260424963,0.));
#612=CARTESIAN_POINT('',(-0.318437571583549,-3.45068260424963,0.));
#613=CARTESIAN_POINT('',(-3.81093757158356,-3.45068260424963,0.));
#614=CARTESIAN_POINT('',(-0.318437571583549,-3.45068260424963,0.));
#615=CARTESIAN_POINT('',(-3.81093757158356,-3.45068260424963,1.27));
#616=CARTESIAN_POINT('',(-3.81093757158356,-3.45068260424963,0.));
#617=CARTESIAN_POINT('',(-0.318437571583549,-3.45068260424963,1.27));
#618=CARTESIAN_POINT('',(-0.318437571583549,-3.45068260424963,1.27));
#619=CARTESIAN_POINT('',(-0.318437571583549,-3.45068260424963,0.));
#620=CARTESIAN_POINT('Origin',(-0.31843757158355,-2.77599510424964,0.));
#621=CARTESIAN_POINT('',(-0.31843757158355,-2.77599510424964,0.));
#622=CARTESIAN_POINT('',(-0.318437571583549,-3.45068260424963,0.));
#623=CARTESIAN_POINT('',(-0.31843757158355,-2.77599510424964,1.27));
#624=CARTESIAN_POINT('',(-0.318437571583549,-3.45068260424963,1.27));
#625=CARTESIAN_POINT('',(-0.31843757158355,-2.77599510424964,0.));
#626=CARTESIAN_POINT('Origin',(-3.81093757158356,-2.77599510424963,0.));
#627=CARTESIAN_POINT('',(-3.81093757158356,-2.77599510424963,0.));
#628=CARTESIAN_POINT('',(-3.81093757158356,-2.77599510424963,0.));
#629=CARTESIAN_POINT('',(-3.81093757158356,-2.77599510424963,1.27));
#630=CARTESIAN_POINT('',(-3.81093757158356,-2.77599510424963,1.27));
#631=CARTESIAN_POINT('',(-3.81093757158356,-2.77599510424963,0.));
#632=CARTESIAN_POINT('Origin',(-3.81093757158356,-3.45068260424963,0.));
#633=CARTESIAN_POINT('',(-3.81093757158356,-2.77599510424963,0.));
#634=CARTESIAN_POINT('',(-3.81093757158356,-2.77599510424963,1.27));
#635=CARTESIAN_POINT('Origin',(-5.08093757158356,-2.98586260424965,0.));
#636=CARTESIAN_POINT('',(-5.08093757158352,-2.98586260424965,0.));
#637=CARTESIAN_POINT('',(-5.08093757158356,-3.24081510424963,0.));
#638=CARTESIAN_POINT('',(-5.08093757158356,-2.77599510424963,0.));
#639=CARTESIAN_POINT('',(-5.08093757158356,-3.24081510424963,1.27));
#640=CARTESIAN_POINT('',(-5.08093757158356,-3.24081510424963,0.));
#641=CARTESIAN_POINT('',(-5.08093757158352,-2.98586260424965,1.27));
#642=CARTESIAN_POINT('',(-5.08093757158356,-2.77599510424963,1.27));
#643=CARTESIAN_POINT('',(-5.08093757158352,-2.98586260424965,0.));
#644=CARTESIAN_POINT('Origin',(-3.64075757158352,-2.98586260424965,0.));
#645=CARTESIAN_POINT('',(-3.64075757158353,-1.54568260424965,0.));
#646=CARTESIAN_POINT('Origin',(-3.64075757158352,-2.98586260424965,0.));
#647=CARTESIAN_POINT('',(-3.64075757158353,-1.54568260424965,1.27));
#648=CARTESIAN_POINT('Origin',(-3.64075757158352,-2.98586260424965,1.27));
#649=CARTESIAN_POINT('',(-3.64075757158353,-1.54568260424965,0.));
#650=CARTESIAN_POINT('Origin',(-0.488617571583559,-1.54568260424965,0.));
#651=CARTESIAN_POINT('',(-0.488617571583559,-1.54568260424965,0.));
#652=CARTESIAN_POINT('',(-0.488617571583559,-1.54568260424965,0.));
#653=CARTESIAN_POINT('',(-0.488617571583559,-1.54568260424965,1.27));
#654=CARTESIAN_POINT('',(-0.488617571583559,-1.54568260424965,1.27));
#655=CARTESIAN_POINT('',(-0.488617571583559,-1.54568260424965,0.));
#656=CARTESIAN_POINT('Origin',(-0.488617571583558,-2.98586260424965,0.));
#657=CARTESIAN_POINT('',(0.951562428416442,-2.98586260424964,0.));
#658=CARTESIAN_POINT('Origin',(-0.488617571583558,-2.98586260424965,0.));
#659=CARTESIAN_POINT('',(0.951562428416442,-2.98586260424964,1.27));
#660=CARTESIAN_POINT('Origin',(-0.488617571583558,-2.98586260424965,1.27));
#661=CARTESIAN_POINT('',(0.951562428416442,-2.98586260424964,0.));
#662=CARTESIAN_POINT('Origin',(0.951562428416443,-3.24081510424963,0.));
#663=CARTESIAN_POINT('',(0.951562428416442,-3.24081510424963,0.));
#664=CARTESIAN_POINT('',(0.951562428416443,-3.45068260424964,0.));
#665=CARTESIAN_POINT('',(0.951562428416442,-3.24081510424963,1.27));
#666=CARTESIAN_POINT('',(0.951562428416443,-3.45068260424964,1.27));
#667=CARTESIAN_POINT('',(0.951562428416442,-3.24081510424963,0.));
#668=CARTESIAN_POINT('Origin',(-0.488617571583557,-3.24081510424964,0.));
#669=CARTESIAN_POINT('',(-0.488617571583557,-4.68099510424963,0.));
#670=CARTESIAN_POINT('Origin',(-0.488617571583557,-3.24081510424964,0.));
#671=CARTESIAN_POINT('',(-0.488617571583557,-4.68099510424963,1.27));
#672=CARTESIAN_POINT('Origin',(-0.488617571583557,-3.24081510424964,1.27));
#673=CARTESIAN_POINT('',(-0.488617571583557,-4.68099510424963,0.));
#674=CARTESIAN_POINT('Origin',(-3.64075757158355,-4.68099510424963,0.));
#675=CARTESIAN_POINT('',(-3.64075757158355,-4.68099510424963,0.));
#676=CARTESIAN_POINT('',(-3.64075757158355,-4.68099510424963,0.));
#677=CARTESIAN_POINT('',(-3.64075757158355,-4.68099510424963,1.27));
#678=CARTESIAN_POINT('',(-3.64075757158355,-4.68099510424963,1.27));
#679=CARTESIAN_POINT('',(-3.64075757158355,-4.68099510424963,0.));
#680=CARTESIAN_POINT('Origin',(-3.64075757158355,-3.24081510424963,0.));
#681=CARTESIAN_POINT('Origin',(-3.64075757158355,-3.24081510424963,0.));
#682=CARTESIAN_POINT('Origin',(-3.64075757158355,-3.24081510424963,1.27));
#683=CARTESIAN_POINT('Origin',(-2.06468757158356,-3.11333885424964,1.27));
#684=CARTESIAN_POINT('Origin',(-2.06468757158356,-3.11333885424964,0.));
#685=UNCERTAINTY_MEASURE_WITH_UNIT(LENGTH_MEASURE(0.001),#689,
'DISTANCE_ACCURACY_VALUE',
'Maximum model space distance between geometric entities at asserted c
onnectivities');
#686=UNCERTAINTY_MEASURE_WITH_UNIT(LENGTH_MEASURE(0.001),#689,
'DISTANCE_ACCURACY_VALUE',
'Maximum model space distance between geometric entities at asserted c
onnectivities');
#687=(
GEOMETRIC_REPRESENTATION_CONTEXT(3)
GLOBAL_UNCERTAINTY_ASSIGNED_CONTEXT((#685))
GLOBAL_UNIT_ASSIGNED_CONTEXT((#689,#691,#692))
REPRESENTATION_CONTEXT('','3D')
);
#688=(
GEOMETRIC_REPRESENTATION_CONTEXT(3)
GLOBAL_UNCERTAINTY_ASSIGNED_CONTEXT((#686))
GLOBAL_UNIT_ASSIGNED_CONTEXT((#689,#691,#692))
REPRESENTATION_CONTEXT('','3D')
);
#689=(
LENGTH_UNIT()
NAMED_UNIT(*)
SI_UNIT(.CENTI.,.METRE.)
);
#690=(
LENGTH_UNIT()
NAMED_UNIT(*)
SI_UNIT($,.METRE.)
);
#691=(
NAMED_UNIT(*)
PLANE_ANGLE_UNIT()
SI_UNIT($,.RADIAN.)
);
#692=(
NAMED_UNIT(*)
SI_UNIT($,.STERADIAN.)
SOLID_ANGLE_UNIT()
);
#693=SHAPE_DEFINITION_REPRESENTATION(#694,#695);
#694=PRODUCT_DEFINITION_SHAPE('',$,#697);
#695=SHAPE_REPRESENTATION('',(#384),#687);
#696=PRODUCT_DEFINITION_CONTEXT('part definition',#701,'design');
#697=PRODUCT_DEFINITION('temp_body','temp_body',#698,#696);
#698=PRODUCT_DEFINITION_FORMATION('',$,#703);
#699=PRODUCT_RELATED_PRODUCT_CATEGORY('temp_body','temp_body',(#703));
#700=APPLICATION_PROTOCOL_DEFINITION('international standard',
'automotive_design',2009,#701);
#701=APPLICATION_CONTEXT(
'Core Data for Automotive Mechanical Design Process');
#702=PRODUCT_CONTEXT('part definition',#701,'mechanical');
#703=PRODUCT('temp_body','temp_body',$,(#702));
#704=PRESENTATION_STYLE_ASSIGNMENT((#705));
#705=SURFACE_STYLE_USAGE(.BOTH.,#706);
#706=SURFACE_SIDE_STYLE('',(#707));
#707=SURFACE_STYLE_FILL_AREA(#708);
#708=FILL_AREA_STYLE('Steel - Satin',(#709));
#709=FILL_AREA_STYLE_COLOUR('Steel - Satin',#710);
#710=COLOUR_RGB('Steel - Satin',0.627450980392157,0.627450980392157,0.627450980392157);
ENDSEC;
END-ISO-10303-21;
