ISO-10303-21;
HEADER;
/* Generated by software containing ST-Developer
 * from STEP Tools, Inc. (www.steptools.com) 
 */

FILE_DESCRIPTION(
/* description */ (''),
/* implementation_level */ '2;1');

FILE_NAME(
/* name */ 
'C:\\Users\\designnet\\AppData\\Local\\Temp\\derivatives\\23211_3aac9c
7e\\AssemblyExtractor\\23211_3aac9c7e\\0a2212ba-05f1-11ec-b4cf-0ac5158
7b959.step',
/* time_stamp */ '2021-08-25T22:09:04+00:00',
/* author */ (''),
/* organization */ (''),
/* preprocessor_version */ 'ST-DEVELOPER v18.1',
/* originating_system */ 'Autodesk Translation Framework v10.6.0.1341',

/* authorisation */ '');

FILE_SCHEMA (('AUTOMOTIVE_DESIGN { 1 0 10303 214 3 1 1 }'));
ENDSEC;

DATA;
#10=MECHANICAL_DESIGN_GEOMETRIC_PRESENTATION_REPRESENTATION('',(#13),#221);
#11=SHAPE_REPRESENTATION_RELATIONSHIP('SRR','None',#228,#12);
#12=ADVANCED_BREP_SHAPE_REPRESENTATION('',(#14),#220);
#13=STYLED_ITEM('',(#237),#14);
#14=MANIFOLD_SOLID_BREP('Body1',#83);
#15=PLANE('',#104);
#16=PLANE('',#106);
#17=FACE_BOUND('',#34,.T.);
#18=FACE_BOUND('',#35,.T.);
#19=B_SPLINE_CURVE_WITH_KNOTS('',3,(#145,#146,#147,#148,#149,#150,#151,
#152,#153,#154,#155,#156,#157,#158,#159,#160,#161,#162,#163,#164,#165,#166,
#167,#168,#169,#170,#171,#172,#173,#174,#175,#176,#177,#178),
 .UNSPECIFIED.,.T.,.F.,(4,2,2,2,2,2,2,2,2,2,2,2,2,2,2,2,4),(0.,0.0605722793588581,
0.121144558717716,0.181655561377728,0.242166564037739,0.302677566697751,
0.363188569357763,0.423760848716621,0.484333128075479,0.544905407434337,
0.605477686793196,0.665988689453207,0.726499692113219,0.787010694773231,
0.847521697433242,0.9080939767921,0.968666256150958),.UNSPECIFIED.);
#20=B_SPLINE_CURVE_WITH_KNOTS('',3,(#180,#181,#182,#183,#184,#185,#186,
#187,#188,#189,#190,#191,#192,#193,#194,#195,#196,#197,#198,#199,#200,#201,
#202,#203,#204,#205,#206,#207,#208,#209,#210,#211,#212,#213),
 .UNSPECIFIED.,.T.,.F.,(4,2,2,2,2,2,2,2,2,2,2,2,2,2,2,2,4),(0.,0.0605722793588582,
0.121144558717716,0.181655561377728,0.24216656403774,0.302677566697751,
0.363188569357763,0.423760848716621,0.484333128075479,0.544905407434337,
0.605477686793195,0.665988689453207,0.726499692113219,0.78701069477323,
0.847521697433242,0.9080939767921,0.968666256150958),.UNSPECIFIED.);
#21=LINE('',#142,#23);
#22=LINE('',#216,#24);
#23=VECTOR('',#121,0.396875);
#24=VECTOR('',#128,0.15875);
#25=CYLINDRICAL_SURFACE('',#102,0.396875);
#26=CYLINDRICAL_SURFACE('',#105,0.15875);
#27=FACE_OUTER_BOUND('',#32,.T.);
#28=FACE_OUTER_BOUND('',#33,.T.);
#29=FACE_OUTER_BOUND('',#36,.T.);
#30=FACE_OUTER_BOUND('',#37,.T.);
#31=FACE_OUTER_BOUND('',#38,.T.);
#32=EDGE_LOOP('',(#59,#60,#61,#62,#63));
#33=EDGE_LOOP('',(#64,#65,#66,#67,#68));
#34=EDGE_LOOP('',(#69));
#35=EDGE_LOOP('',(#70));
#36=EDGE_LOOP('',(#71));
#37=EDGE_LOOP('',(#72,#73,#74,#75));
#38=EDGE_LOOP('',(#76));
#39=CIRCLE('',#98,0.227541666666666);
#40=CIRCLE('',#99,0.169333333333333);
#41=CIRCLE('',#100,0.396875);
#42=CIRCLE('',#101,0.396875);
#43=CIRCLE('',#103,0.396875);
#44=VERTEX_POINT('',#133);
#45=VERTEX_POINT('',#135);
#46=VERTEX_POINT('',#137);
#47=VERTEX_POINT('',#141);
#48=VERTEX_POINT('',#144);
#49=VERTEX_POINT('',#179);
#50=EDGE_CURVE('',#44,#44,#39,.T.);
#51=EDGE_CURVE('',#44,#45,#40,.T.);
#52=EDGE_CURVE('',#45,#46,#41,.T.);
#53=EDGE_CURVE('',#46,#45,#42,.T.);
#54=EDGE_CURVE('',#46,#47,#21,.T.);
#55=EDGE_CURVE('',#47,#47,#43,.T.);
#56=EDGE_CURVE('',#48,#48,#19,.T.);
#57=EDGE_CURVE('',#49,#49,#20,.T.);
#58=EDGE_CURVE('',#48,#49,#22,.T.);
#59=ORIENTED_EDGE('',*,*,#50,.T.);
#60=ORIENTED_EDGE('',*,*,#51,.T.);
#61=ORIENTED_EDGE('',*,*,#52,.T.);
#62=ORIENTED_EDGE('',*,*,#53,.T.);
#63=ORIENTED_EDGE('',*,*,#51,.F.);
#64=ORIENTED_EDGE('',*,*,#53,.F.);
#65=ORIENTED_EDGE('',*,*,#54,.T.);
#66=ORIENTED_EDGE('',*,*,#55,.T.);
#67=ORIENTED_EDGE('',*,*,#54,.F.);
#68=ORIENTED_EDGE('',*,*,#52,.F.);
#69=ORIENTED_EDGE('',*,*,#56,.T.);
#70=ORIENTED_EDGE('',*,*,#57,.T.);
#71=ORIENTED_EDGE('',*,*,#50,.F.);
#72=ORIENTED_EDGE('',*,*,#56,.F.);
#73=ORIENTED_EDGE('',*,*,#58,.T.);
#74=ORIENTED_EDGE('',*,*,#57,.F.);
#75=ORIENTED_EDGE('',*,*,#58,.F.);
#76=ORIENTED_EDGE('',*,*,#55,.F.);
#77=TOROIDAL_SURFACE('',#97,0.227541666666666,0.169333333333333);
#78=ADVANCED_FACE('',(#27),#77,.T.);
#79=ADVANCED_FACE('',(#28,#17,#18),#25,.T.);
#80=ADVANCED_FACE('',(#29),#15,.T.);
#81=ADVANCED_FACE('',(#30),#26,.F.);
#82=ADVANCED_FACE('',(#31),#16,.F.);
#83=CLOSED_SHELL('',(#78,#79,#80,#81,#82));
#84=DERIVED_UNIT_ELEMENT(#86,1.);
#85=DERIVED_UNIT_ELEMENT(#223,-3.);
#86=(
MASS_UNIT()
NAMED_UNIT(*)
SI_UNIT(.KILO.,.GRAM.)
);
#87=DERIVED_UNIT((#84,#85));
#88=MEASURE_REPRESENTATION_ITEM('density measure',
POSITIVE_RATIO_MEASURE(7850.),#87);
#89=PROPERTY_DEFINITION_REPRESENTATION(#94,#91);
#90=PROPERTY_DEFINITION_REPRESENTATION(#95,#92);
#91=REPRESENTATION('material name',(#93),#220);
#92=REPRESENTATION('density',(#88),#220);
#93=DESCRIPTIVE_REPRESENTATION_ITEM('Steel','Steel');
#94=PROPERTY_DEFINITION('material property','material name',#230);
#95=PROPERTY_DEFINITION('material property','density of part',#230);
#96=AXIS2_PLACEMENT_3D('placement',#131,#107,#108);
#97=AXIS2_PLACEMENT_3D('',#132,#109,#110);
#98=AXIS2_PLACEMENT_3D('',#134,#111,#112);
#99=AXIS2_PLACEMENT_3D('',#136,#113,#114);
#100=AXIS2_PLACEMENT_3D('',#138,#115,#116);
#101=AXIS2_PLACEMENT_3D('',#139,#117,#118);
#102=AXIS2_PLACEMENT_3D('',#140,#119,#120);
#103=AXIS2_PLACEMENT_3D('',#143,#122,#123);
#104=AXIS2_PLACEMENT_3D('',#214,#124,#125);
#105=AXIS2_PLACEMENT_3D('',#215,#126,#127);
#106=AXIS2_PLACEMENT_3D('',#217,#129,#130);
#107=DIRECTION('axis',(0.,0.,1.));
#108=DIRECTION('refdir',(1.,0.,0.));
#109=DIRECTION('center_axis',(0.,1.,0.));
#110=DIRECTION('ref_axis',(0.,0.,1.));
#111=DIRECTION('center_axis',(0.,-1.,0.));
#112=DIRECTION('ref_axis',(1.,0.,0.));
#113=DIRECTION('center_axis',(-1.,0.,0.));
#114=DIRECTION('ref_axis',(0.,0.,-1.));
#115=DIRECTION('center_axis',(0.,1.,0.));
#116=DIRECTION('ref_axis',(1.,0.,0.));
#117=DIRECTION('center_axis',(0.,1.,0.));
#118=DIRECTION('ref_axis',(1.,0.,0.));
#119=DIRECTION('center_axis',(0.,1.,0.));
#120=DIRECTION('ref_axis',(1.,0.,0.));
#121=DIRECTION('',(0.,-1.,0.));
#122=DIRECTION('center_axis',(0.,1.,0.));
#123=DIRECTION('ref_axis',(1.,0.,0.));
#124=DIRECTION('center_axis',(0.,1.,0.));
#125=DIRECTION('ref_axis',(1.,0.,0.));
#126=DIRECTION('center_axis',(-1.3118340653559E-15,-1.91845331697554E-16,
-1.));
#127=DIRECTION('ref_axis',(1.,0.,-1.3118340653559E-15));
#128=DIRECTION('',(-1.3118340653559E-15,-1.91845331697554E-16,-1.));
#129=DIRECTION('center_axis',(0.,1.,0.));
#130=DIRECTION('ref_axis',(1.,0.,0.));
#131=CARTESIAN_POINT('',(0.,0.,0.));
#132=CARTESIAN_POINT('Origin',(-12.6999998092651,9.35566666666667,0.));
#133=CARTESIAN_POINT('',(-12.6999998092651,9.525,-0.227541666666666));
#134=CARTESIAN_POINT('Origin',(-12.6999998092651,9.525,0.));
#135=CARTESIAN_POINT('',(-12.6999998092651,9.35566666666667,-0.396875));
#136=CARTESIAN_POINT('Origin',(-12.6999998092651,9.35566666666667,-0.227541666666666));
#137=CARTESIAN_POINT('',(-13.0968748092651,9.35566666666667,4.86031698411605E-17));
#138=CARTESIAN_POINT('Origin',(-12.6999998092651,9.35566666666667,0.));
#139=CARTESIAN_POINT('Origin',(-12.6999998092651,9.35566666666667,0.));
#140=CARTESIAN_POINT('Origin',(-12.6999998092651,0.,0.));
#141=CARTESIAN_POINT('',(-13.0968748092651,0.,4.86031698411605E-17));
#142=CARTESIAN_POINT('',(-13.0968748092651,0.,4.86031698411605E-17));
#143=CARTESIAN_POINT('Origin',(-12.6999998092651,0.,0.));
#144=CARTESIAN_POINT('',(-12.8587498092651,0.337343750000008,0.363741945787119));
#145=CARTESIAN_POINT('Ctrl Pts',(-12.8587498092651,0.337343750000008,0.363741945787119));
#146=CARTESIAN_POINT('Ctrl Pts',(-12.8587498092651,0.357534509786294,0.363741945787119));
#147=CARTESIAN_POINT('Ctrl Pts',(-12.8546682039473,0.378891847475137,0.36560091930672));
#148=CARTESIAN_POINT('Ctrl Pts',(-12.8384032909619,0.417923148510594,0.372062918613921));
#149=CARTESIAN_POINT('Ctrl Pts',(-12.8262294313661,0.435620530925772,0.376547705579988));
#150=CARTESIAN_POINT('Ctrl Pts',(-12.7982907291489,0.463559233142949,0.384786379394647));
#151=CARTESIAN_POINT('Ctrl Pts',(-12.7805879950758,0.475743815522846,0.389109010768836));
#152=CARTESIAN_POINT('Ctrl Pts',(-12.7415358186884,0.492016936307639,0.395189875777922));
#153=CARTESIAN_POINT('Ctrl Pts',(-12.7201701434851,0.496093750000008,0.396875));
#154=CARTESIAN_POINT('Ctrl Pts',(-12.6798294750451,0.496093750000008,0.396875));
#155=CARTESIAN_POINT('Ctrl Pts',(-12.6584637998419,0.492016936307639,0.395189875777922));
#156=CARTESIAN_POINT('Ctrl Pts',(-12.6194116234545,0.475743815522846,0.389109010768836));
#157=CARTESIAN_POINT('Ctrl Pts',(-12.6017088893813,0.463559233142949,0.384786379394647));
#158=CARTESIAN_POINT('Ctrl Pts',(-12.5737701871642,0.435620530925772,0.376547705579987));
#159=CARTESIAN_POINT('Ctrl Pts',(-12.5615963275684,0.417923148510594,0.372062918613921));
#160=CARTESIAN_POINT('Ctrl Pts',(-12.5453314145829,0.378891847475137,0.36560091930672));
#161=CARTESIAN_POINT('Ctrl Pts',(-12.5412498092651,0.357534509786294,0.363741945787119));
#162=CARTESIAN_POINT('Ctrl Pts',(-12.5412498092651,0.317152990213722,0.363741945787119));
#163=CARTESIAN_POINT('Ctrl Pts',(-12.5453314145829,0.295795652524879,0.36560091930672));
#164=CARTESIAN_POINT('Ctrl Pts',(-12.5615963275684,0.256764351489422,0.372062918613921));
#165=CARTESIAN_POINT('Ctrl Pts',(-12.5737701871642,0.239066969074244,0.376547705579987));
#166=CARTESIAN_POINT('Ctrl Pts',(-12.6017088893813,0.211128266857067,0.384786379394647));
#167=CARTESIAN_POINT('Ctrl Pts',(-12.6194116234545,0.19894368447717,0.389109010768836));
#168=CARTESIAN_POINT('Ctrl Pts',(-12.6584637998419,0.182670563692377,0.395189875777922));
#169=CARTESIAN_POINT('Ctrl Pts',(-12.6798294750451,0.178593750000008,0.396875));
#170=CARTESIAN_POINT('Ctrl Pts',(-12.7201701434851,0.178593750000008,0.396875));
#171=CARTESIAN_POINT('Ctrl Pts',(-12.7415358186884,0.182670563692377,0.395189875777922));
#172=CARTESIAN_POINT('Ctrl Pts',(-12.7805879950758,0.19894368447717,0.389109010768836));
#173=CARTESIAN_POINT('Ctrl Pts',(-12.7982907291489,0.211128266857067,0.384786379394647));
#174=CARTESIAN_POINT('Ctrl Pts',(-12.8262294313661,0.239066969074244,0.376547705579988));
#175=CARTESIAN_POINT('Ctrl Pts',(-12.8384032909619,0.256764351489422,0.372062918613921));
#176=CARTESIAN_POINT('Ctrl Pts',(-12.8546682039473,0.295795652524879,0.36560091930672));
#177=CARTESIAN_POINT('Ctrl Pts',(-12.8587498092651,0.317152990213722,0.363741945787119));
#178=CARTESIAN_POINT('Ctrl Pts',(-12.8587498092651,0.337343750000008,0.363741945787119));
#179=CARTESIAN_POINT('',(-12.8587498092651,0.337343750000008,-0.363741945787119));
#180=CARTESIAN_POINT('Ctrl Pts',(-12.8587498092651,0.337343750000008,-0.363741945787119));
#181=CARTESIAN_POINT('Ctrl Pts',(-12.8587498092651,0.317152990213722,-0.363741945787119));
#182=CARTESIAN_POINT('Ctrl Pts',(-12.8546682039473,0.295795652524879,-0.36560091930672));
#183=CARTESIAN_POINT('Ctrl Pts',(-12.8384032909619,0.256764351489422,-0.372062918613921));
#184=CARTESIAN_POINT('Ctrl Pts',(-12.8262294313661,0.239066969074244,-0.376547705579987));
#185=CARTESIAN_POINT('Ctrl Pts',(-12.7982907291489,0.211128266857067,-0.384786379394647));
#186=CARTESIAN_POINT('Ctrl Pts',(-12.7805879950758,0.19894368447717,-0.389109010768836));
#187=CARTESIAN_POINT('Ctrl Pts',(-12.7415358186884,0.182670563692377,-0.395189875777922));
#188=CARTESIAN_POINT('Ctrl Pts',(-12.7201701434851,0.178593750000008,-0.396875));
#189=CARTESIAN_POINT('Ctrl Pts',(-12.6798294750451,0.178593750000008,-0.396875));
#190=CARTESIAN_POINT('Ctrl Pts',(-12.6584637998419,0.182670563692377,-0.395189875777922));
#191=CARTESIAN_POINT('Ctrl Pts',(-12.6194116234545,0.19894368447717,-0.389109010768836));
#192=CARTESIAN_POINT('Ctrl Pts',(-12.6017088893813,0.211128266857067,-0.384786379394647));
#193=CARTESIAN_POINT('Ctrl Pts',(-12.5737701871642,0.239066969074244,-0.376547705579988));
#194=CARTESIAN_POINT('Ctrl Pts',(-12.5615963275684,0.256764351489422,-0.372062918613921));
#195=CARTESIAN_POINT('Ctrl Pts',(-12.5453314145829,0.295795652524879,-0.36560091930672));
#196=CARTESIAN_POINT('Ctrl Pts',(-12.5412498092651,0.317152990213722,-0.36374194578712));
#197=CARTESIAN_POINT('Ctrl Pts',(-12.5412498092651,0.357534509786294,-0.36374194578712));
#198=CARTESIAN_POINT('Ctrl Pts',(-12.5453314145829,0.378891847475136,-0.36560091930672));
#199=CARTESIAN_POINT('Ctrl Pts',(-12.5615963275684,0.417923148510594,-0.372062918613921));
#200=CARTESIAN_POINT('Ctrl Pts',(-12.5737701871642,0.435620530925771,-0.376547705579988));
#201=CARTESIAN_POINT('Ctrl Pts',(-12.6017088893813,0.463559233142949,-0.384786379394647));
#202=CARTESIAN_POINT('Ctrl Pts',(-12.6194116234545,0.475743815522846,-0.389109010768836));
#203=CARTESIAN_POINT('Ctrl Pts',(-12.6584637998419,0.492016936307639,-0.395189875777922));
#204=CARTESIAN_POINT('Ctrl Pts',(-12.6798294750451,0.496093750000008,-0.396875));
#205=CARTESIAN_POINT('Ctrl Pts',(-12.7201701434851,0.496093750000008,-0.396875));
#206=CARTESIAN_POINT('Ctrl Pts',(-12.7415358186884,0.492016936307639,-0.395189875777922));
#207=CARTESIAN_POINT('Ctrl Pts',(-12.7805879950758,0.475743815522846,-0.389109010768836));
#208=CARTESIAN_POINT('Ctrl Pts',(-12.7982907291489,0.463559233142949,-0.384786379394647));
#209=CARTESIAN_POINT('Ctrl Pts',(-12.8262294313661,0.435620530925771,-0.376547705579987));
#210=CARTESIAN_POINT('Ctrl Pts',(-12.8384032909619,0.417923148510594,-0.372062918613921));
#211=CARTESIAN_POINT('Ctrl Pts',(-12.8546682039473,0.378891847475137,-0.36560091930672));
#212=CARTESIAN_POINT('Ctrl Pts',(-12.8587498092651,0.357534509786294,-0.363741945787119));
#213=CARTESIAN_POINT('Ctrl Pts',(-12.8587498092651,0.337343750000008,-0.363741945787119));
#214=CARTESIAN_POINT('Origin',(-12.6999998092651,9.525,0.));
#215=CARTESIAN_POINT('Origin',(-12.6999998092651,0.337343750000008,-0.0635000000000017));
#216=CARTESIAN_POINT('',(-12.8587498092651,0.337343750000008,-0.0635000000000015));
#217=CARTESIAN_POINT('Origin',(-12.6999998092651,0.,0.));
#218=UNCERTAINTY_MEASURE_WITH_UNIT(LENGTH_MEASURE(0.001),#222,
'DISTANCE_ACCURACY_VALUE',
'Maximum model space distance between geometric entities at asserted c
onnectivities');
#219=UNCERTAINTY_MEASURE_WITH_UNIT(LENGTH_MEASURE(0.001),#222,
'DISTANCE_ACCURACY_VALUE',
'Maximum model space distance between geometric entities at asserted c
onnectivities');
#220=(
GEOMETRIC_REPRESENTATION_CONTEXT(3)
GLOBAL_UNCERTAINTY_ASSIGNED_CONTEXT((#218))
GLOBAL_UNIT_ASSIGNED_CONTEXT((#222,#224,#225))
REPRESENTATION_CONTEXT('','3D')
);
#221=(
GEOMETRIC_REPRESENTATION_CONTEXT(3)
GLOBAL_UNCERTAINTY_ASSIGNED_CONTEXT((#219))
GLOBAL_UNIT_ASSIGNED_CONTEXT((#222,#224,#225))
REPRESENTATION_CONTEXT('','3D')
);
#222=(
LENGTH_UNIT()
NAMED_UNIT(*)
SI_UNIT(.CENTI.,.METRE.)
);
#223=(
LENGTH_UNIT()
NAMED_UNIT(*)
SI_UNIT($,.METRE.)
);
#224=(
NAMED_UNIT(*)
PLANE_ANGLE_UNIT()
SI_UNIT($,.RADIAN.)
);
#225=(
NAMED_UNIT(*)
SI_UNIT($,.STERADIAN.)
SOLID_ANGLE_UNIT()
);
#226=SHAPE_DEFINITION_REPRESENTATION(#227,#228);
#227=PRODUCT_DEFINITION_SHAPE('',$,#230);
#228=SHAPE_REPRESENTATION('',(#96),#220);
#229=PRODUCT_DEFINITION_CONTEXT('part definition',#234,'design');
#230=PRODUCT_DEFINITION('temp_body','temp_body',#231,#229);
#231=PRODUCT_DEFINITION_FORMATION('',$,#236);
#232=PRODUCT_RELATED_PRODUCT_CATEGORY('temp_body','temp_body',(#236));
#233=APPLICATION_PROTOCOL_DEFINITION('international standard',
'automotive_design',2009,#234);
#234=APPLICATION_CONTEXT(
'Core Data for Automotive Mechanical Design Process');
#235=PRODUCT_CONTEXT('part definition',#234,'mechanical');
#236=PRODUCT('temp_body','temp_body',$,(#235));
#237=PRESENTATION_STYLE_ASSIGNMENT((#238));
#238=SURFACE_STYLE_USAGE(.BOTH.,#239);
#239=SURFACE_SIDE_STYLE('',(#240));
#240=SURFACE_STYLE_FILL_AREA(#241);
#241=FILL_AREA_STYLE('Steel - Satin',(#242));
#242=FILL_AREA_STYLE_COLOUR('Steel - Satin',#243);
#243=COLOUR_RGB('Steel - Satin',0.627450980392157,0.627450980392157,0.627450980392157);
ENDSEC;
END-ISO-10303-21;
