# https://github.com/mikedh/trimesh
v -10.00000000 10.00000000 0.00000000
v -8.99944115 11.08332920 0.00000000
v -8.91667080 11.00055885 0.00000000
v -8.96213245 11.03786755 0.00000000
v -9.02716351 11.13519478 0.00000000
v -9.04423523 11.19147301 0.00000000
v -8.86480522 10.97283649 0.00000000
v -8.80852699 10.95576477 0.00000000
v -8.99944115 11.08332920 0.27499998
v -8.91667080 11.00055885 0.27500001
v -8.96213245 11.03786755 0.27500001
v -9.02716351 11.13519478 0.27500001
v -9.04423523 11.19147301 0.27500001
v -8.86480522 10.97283649 0.27500001
v -8.80852699 10.95576477 0.27500001
v -10.00000000 10.00000000 0.50000000
v -9.12123108 10.87876892 0.50000000
v -9.23503685 11.04909134 0.50000000
v -9.26491261 11.14757729 0.50000000
v -9.18652153 10.95832539 0.50000000
v -8.95090866 10.76496315 0.50000000
v -9.04167461 10.81347847 0.50000000
v -8.85242271 10.73508739 0.50000000
v -9.05000019 11.25000000 0.00000000
v -9.04423523 11.30852699 0.00000000
v -9.02716351 11.36480522 0.00000000
v -8.99944115 11.41667080 0.00000000
v -8.96213245 11.46213245 0.00000000
v -8.91667080 11.49944115 0.00000000
v -8.86480522 11.52716351 0.00000000
v -8.80852699 11.54423523 0.00000000
v -9.05000019 11.25000000 0.27500001
v -9.04423523 11.30852699 0.27500001
v -9.02716351 11.36480522 0.27500001
v -8.99944115 11.41667080 0.27499998
v -8.96213245 11.46213245 0.27500001
v -8.91667080 11.49944115 0.27500001
v -8.86480522 11.52716351 0.27500001
v -8.80852699 11.54423523 0.27500001
v -9.27499962 11.25000000 0.50000000
v -9.26491261 11.35242271 0.50000000
v -9.23503685 11.45090866 0.50000000
v -9.18652153 11.54167461 0.50000000
v -9.12123108 11.62123108 0.50000000
v -9.04167461 11.68652153 0.50000000
v -8.95090866 11.73503685 0.50000000
v -8.85242271 11.76491261 0.50000000
v -8.75000000 10.94999981 0.00000000
v -8.69147301 10.95576477 0.00000000
v -8.63519478 10.97283649 0.00000000
v -8.58332920 11.00055885 0.00000000
v -8.53786755 11.03786755 0.00000000
v -8.50055885 11.08332920 0.00000000
v -8.47283649 11.13519478 0.00000000
v -8.45576477 11.19147301 0.00000000
v -8.75000000 10.94999981 0.27500001
v -8.69147301 10.95576477 0.27500001
v -8.63519478 10.97283649 0.27500001
v -8.58332920 11.00055885 0.27500001
v -8.53786755 11.03786755 0.27500001
v -8.50055885 11.08332920 0.27499998
v -8.47283649 11.13519478 0.27500001
v -8.45576477 11.19147301 0.27500001
v -8.75000000 10.72500038 0.50000000
v -8.64757729 10.73508739 0.50000000
v -8.54909134 10.76496315 0.50000000
v -8.45832539 10.81347847 0.50000000
v -8.37876892 10.87876892 0.50000000
v -8.31347847 10.95832539 0.50000000
v -8.26496315 11.04909134 0.50000000
v -8.23508739 11.14757729 0.50000000
v -8.75000000 11.55000019 0.00000000
v -8.69147301 11.54423523 0.00000000
v -8.63519478 11.52716351 0.00000000
v -8.44999981 11.25000000 0.00000000
v -8.45576477 11.30852699 0.00000000
v -8.47283649 11.36480522 0.00000000
v -8.53786755 11.46213245 0.00000000
v -8.58332920 11.49944115 0.00000000
v -8.50055885 11.41667080 0.00000000
v -8.75000000 11.55000019 0.27500001
v -8.69147301 11.54423523 0.27500001
v -8.63519478 11.52716351 0.27500001
v -8.44999981 11.25000000 0.27500001
v -8.45576477 11.30852699 0.27500001
v -8.47283649 11.36480522 0.27500001
v -8.53786755 11.46213150 0.27500001
v -8.58332920 11.49944115 0.27500001
v -8.50055885 11.41667080 0.27499998
v -8.75000000 11.77499962 0.50000000
v -8.64757729 11.76491261 0.50000000
v -8.45832539 11.68652153 0.50000000
v -8.54909134 11.73503685 0.50000000
v -8.31347847 11.54167461 0.50000000
v -8.22500038 11.25000000 0.50000000
v -8.23508739 11.35242271 0.50000000
v -8.26496315 11.45090866 0.50000000
v -8.37876892 11.62123108 0.50000000
v -10.00000000 12.50000000 0.00000000
v -10.00000000 12.50000000 0.50000000
v -7.50000000 10.00000000 0.00000000
v -7.50000000 10.00000000 0.50000000
v -5.35319567 10.24556255 0.50000000
v -5.15057993 11.90677452 0.50000000
v -7.50000000 12.50000000 0.00000000
v -7.50000000 12.50000000 0.50000000
v -5.35319567 14.59906769 0.50000000
v -5.15190268 10.61041641 1.28869104
v -5.15319586 10.44559097 1.97689402
v -0.91909635 10.24556255 0.50000000
v -1.12171221 11.90677452 0.50000000
v -0.91909635 14.59906769 0.50000000
v -3.28650308 12.46131134 1.37029600
v -2.98579693 12.46131134 1.37029600
v -3.44053102 12.50346947 1.43849802
v -2.83176899 12.50346947 1.43849802
v -3.32749200 12.95492554 2.16885090
v -2.94480801 12.95492554 2.16885090
v -1.12038946 10.61041641 1.28869104
v -1.11909640 10.44559097 1.97689402
v -5.35319567 10.24556255 4.50000000
v -5.15315962 10.44557285 4.50000000
v -5.35319567 14.59906769 4.50000000
v -5.15240574 14.38730621 4.50000000
v -5.15241051 14.38346004 4.50000000
v -5.15240240 14.39285278 4.50000000
v -5.14461184 14.39289951 4.50000000
v -1.11913216 10.44557285 4.50000000
v -1.11954439 10.49773598 4.50000000
v -0.91909635 10.24556255 4.50000000
v -1.12081563 10.83145618 4.50000000
v -1.12097681 12.29119492 4.50000000
v -1.12767982 14.39289951 4.50000000
v -1.11988914 14.39285278 4.50000000
v -1.11988616 14.38730621 4.50000000
v -0.91909635 14.59906769 4.50000000
v -10.00000000 27.50000000 0.00000000
v -8.99944115 28.58332825 0.00000000
v -8.91667080 28.50055885 0.00000000
v -8.96213245 28.53786850 0.00000000
v -9.02716351 28.63519478 0.00000000
v -9.04423523 28.69147301 0.00000000
v -8.86480522 28.47283554 0.00000000
v -8.80852699 28.45576477 0.00000000
v -8.99944115 28.58332825 0.27499998
v -8.91667080 28.50055885 0.27500001
v -8.96213245 28.53786850 0.27500001
v -9.02716351 28.63519478 0.27500001
v -9.04423523 28.69147301 0.27500001
v -8.86480522 28.47283554 0.27500001
v -8.80852699 28.45576477 0.27500001
v -10.00000000 27.50000000 0.50000000
v -9.12123108 28.37876892 0.50000000
v -9.23503685 28.54909134 0.50000000
v -9.26491261 28.64757729 0.50000000
v -9.18652153 28.45832634 0.50000000
v -8.95090866 28.26496315 0.50000000
v -9.04167461 28.31347847 0.50000000
v -8.85242271 28.23508835 0.50000000
v -10.00000000 30.00000000 0.00000000
v -9.05000019 28.75000000 0.00000000
v -9.04423523 28.80852699 0.00000000
v -9.02716351 28.86480522 0.00000000
v -8.99944115 28.91667175 0.00000000
v -8.96213245 28.96213150 0.00000000
v -8.91667080 28.99944115 0.00000000
v -8.86480522 29.02716446 0.00000000
v -8.80852699 29.04423523 0.00000000
v -9.05000019 28.75000000 0.27500001
v -9.04423523 28.80852699 0.27500001
v -9.02716351 28.86480522 0.27500001
v -8.99944115 28.91667175 0.27499998
v -8.96213245 28.96213150 0.27500001
v -8.91667080 28.99944115 0.27500001
v -8.86480522 29.02716446 0.27500001
v -8.80852699 29.04423523 0.27500001
v -10.00000000 30.00000000 0.50000000
v -9.27499962 28.75000000 0.50000000
v -9.26491261 28.85242271 0.50000000
v -9.23503685 28.95090866 0.50000000
v -9.18652153 29.04167366 0.50000000
v -9.12123108 29.12123108 0.50000000
v -9.04167461 29.18652153 0.50000000
v -8.95090866 29.23503685 0.50000000
v -8.85242271 29.26491165 0.50000000
v -8.75000000 28.45000076 0.00000000
v -8.69147301 28.45576477 0.00000000
v -8.63519478 28.47283554 0.00000000
v -8.58332920 28.50055885 0.00000000
v -8.53786755 28.53786850 0.00000000
v -8.50055885 28.58332825 0.00000000
v -8.47283649 28.63519478 0.00000000
v -8.45576477 28.69147301 0.00000000
v -8.75000000 28.45000076 0.27500001
v -8.69147301 28.45576477 0.27500001
v -8.63519478 28.47283554 0.27500001
v -8.58332920 28.50055885 0.27500001
v -8.53786755 28.53786850 0.27500001
v -8.50055885 28.58332825 0.27499998
v -8.47283649 28.63519478 0.27500001
v -8.45576477 28.69147301 0.27500001
v -8.75000000 28.22500038 0.50000000
v -8.64757729 28.23508835 0.50000000
v -8.54909134 28.26496315 0.50000000
v -8.45832539 28.31347847 0.50000000
v -8.37876892 28.37876892 0.50000000
v -8.31347847 28.45832634 0.50000000
v -8.26496315 28.54909134 0.50000000
v -8.23508739 28.64757729 0.50000000
v -8.75000000 29.04999924 0.00000000
v -8.69147301 29.04423523 0.00000000
v -8.63519478 29.02716446 0.00000000
v -8.44999981 28.75000000 0.00000000
v -8.45576477 28.80852699 0.00000000
v -8.47283649 28.86480522 0.00000000
v -8.53786755 28.96213150 0.00000000
v -8.58332920 28.99944115 0.00000000
v -8.50055885 28.91667175 0.00000000
v -8.75000000 29.04999924 0.27500001
v -8.69147301 29.04423523 0.27500001
v -8.63519478 29.02716446 0.27500001
v -8.44999981 28.75000000 0.27500001
v -8.45576477 28.80852699 0.27500001
v -8.47283649 28.86480522 0.27500001
v -8.53786755 28.96213150 0.27500001
v -8.58332920 28.99944115 0.27500001
v -8.50055885 28.91667175 0.27499998
v -8.75000000 29.27499962 0.50000000
v -8.64757729 29.26491165 0.50000000
v -8.45832539 29.18652153 0.50000000
v -8.54909134 29.23503685 0.50000000
v -8.31347847 29.04167366 0.50000000
v -8.22500038 28.75000000 0.50000000
v -8.23508739 28.85242271 0.50000000
v -8.26496315 28.95090866 0.50000000
v -8.37876892 29.12123108 0.50000000
v -7.50000000 27.50000000 0.00000000
v -7.50000000 27.50000000 0.50000000
v -7.50000000 30.00000000 0.00000000
v -7.50000000 30.00000000 0.50000000
v -4.58763647 22.08995819 0.50000000
v -3.18764138 22.08995819 0.50000000
v -4.22023964 22.42027092 0.70221400
v -4.29088831 22.49824142 0.68310702
v -4.27818012 22.48147011 0.68721402
v -4.26474285 22.46525955 0.69118500
v -4.25057983 22.44964218 0.69501299
v -4.23573923 22.43463326 0.69869202
v -4.09600687 22.33978271 0.72197002
v -4.07641268 22.33140945 0.72402799
v -4.20411873 22.40656853 0.70557499
v -4.18740177 22.39356422 0.70876497
v -4.17011499 22.38129234 0.71177799
v -4.15230560 22.36973763 0.71461302
v -4.13398600 22.35897064 0.71725798
v -4.11520910 22.34897232 0.71971297
v -4.05646038 22.32387161 0.72588003
v -4.03619337 22.31718254 0.72752398
v -4.01565027 22.31134987 0.72895700
v -3.99486041 22.30639076 0.73017597
v -3.97387195 22.30231094 0.73117799
v -3.95272303 22.29913139 0.73196101
v -3.93145156 22.29682350 0.73252702
v -3.91009760 22.29544067 0.73286903
v -3.88870025 22.29493332 0.73299301
v -3.86730170 22.29535103 0.73289102
v -3.84594226 22.29664803 0.73257101
v -3.82466125 22.29886436 0.73202699
v -3.80349874 22.30195808 0.73126602
v -3.76168084 22.31082344 0.72908700
v -3.78248954 22.30594444 0.73028600
v -3.55660462 22.41887856 0.70255500
v -3.54105067 22.43318176 0.69904798
v -3.52613664 22.44812202 0.69538498
v -3.48561907 22.49655533 0.68352002
v -3.49839926 22.47983742 0.68761402
v -3.51191401 22.46368599 0.69157100
v -3.74111247 22.31656837 0.72767502
v -3.72081637 22.32317162 0.72605199
v -3.70082688 22.33061981 0.72422099
v -3.68119907 22.33891869 0.72218299
v -3.66195536 22.34802437 0.71994603
v -3.64313197 22.35793877 0.71751100
v -3.62476921 22.36863708 0.71488398
v -3.60690904 22.38011360 0.71206701
v -3.58956409 22.39231110 0.70907199
v -3.57279181 22.40524864 0.70589900
v -4.32426262 22.99247932 0.56247801
v -4.30269337 23.02852440 0.55369002
v -4.31388426 23.01072693 0.55803001
v -4.29070473 23.04582405 0.54947001
v -4.26445723 23.07884026 0.54141903
v -4.21978235 23.12388420 0.53043503
v -4.23534822 23.10951042 0.53394198
v -4.25025606 23.09449196 0.53760600
v -4.27795982 23.06262207 0.54537600
v -4.20359421 23.13760948 0.52709103
v -4.18678808 23.15061188 0.52391797
v -4.16942406 23.16289902 0.52092302
v -4.15152264 23.17444801 0.51810700
v -4.13311577 23.18522835 0.51547998
v -4.11424065 23.19519615 0.51304603
v -4.07524061 23.21273613 0.50876898
v -4.09494209 23.20438194 0.51080698
v -4.05518484 23.22025490 0.50693798
v -4.03480816 23.22690392 0.50531501
v -4.01415682 23.23269272 0.50390297
v -3.99326062 23.23761559 0.50270498
v -3.97216034 23.24163437 0.50172502
v -3.95090604 23.24475288 0.50096297
v -3.92952681 23.24698067 0.50041902
v -3.90806556 23.24829483 0.50009900
v -3.88657236 23.24870110 0.50000000
v -3.86508155 23.24820328 0.50012100
v -3.84362650 23.24679947 0.50046301
v -3.80101728 23.24127197 0.50181198
v -3.82225704 23.24449158 0.50102901
v -3.77993488 23.23716927 0.50281399
v -3.75906134 23.23215866 0.50403303
v -4.58763647 24.47501755 0.50000000
v -3.55391932 23.12249374 0.53077602
v -3.53842425 23.10804558 0.53429800
v -3.52358937 23.09295654 0.53797698
v -3.48334908 23.04413033 0.54988301
v -3.47143745 23.02678299 0.55411500
v -3.46033192 23.00893021 0.55846602
v -3.50944448 23.07726097 0.54180598
v -3.49602342 23.06097603 0.54577601
v -3.73843026 23.22629929 0.50546700
v -3.71809125 23.21953964 0.50711000
v -3.69806719 23.21194458 0.50896198
v -3.67840409 23.20350266 0.51102000
v -3.65914750 23.19424057 0.51327902
v -3.64031506 23.18419456 0.51573199
v -3.60410881 23.16170692 0.52121198
v -3.62195444 23.17333984 0.51837802
v -3.58679771 23.14935493 0.52422500
v -3.57005358 23.13627625 0.52741498
v -3.18764138 24.47501755 0.50000000
v -4.37608957 22.70964241 0.63145202
v -4.37847996 22.73038292 0.62639600
v -4.37992573 22.79282570 0.61116302
v -4.37994337 22.75119972 0.62132400
v -4.38041878 22.77200890 0.61624402
v -4.37848043 22.81362534 0.60609198
v -4.37608147 22.83433533 0.60104001
v -4.33387804 22.57019806 0.66549999
v -4.36338568 22.64836884 0.64640200
v -4.35038614 22.60865402 0.65610099
v -4.34256172 22.58924866 0.66084301
v -4.35733843 22.62836838 0.65128601
v -4.31399536 22.53329659 0.67452598
v -4.30282974 22.51552582 0.67887503
v -4.32436228 22.55153275 0.67006499
v -4.36853504 22.66860580 0.64146203
v -4.37278318 22.68904114 0.63647699
v -4.37277889 22.85494423 0.59601700
v -4.36852407 22.87536621 0.59103501
v -4.35035229 22.93532372 0.57641500
v -4.34252119 22.95474052 0.57168102
v -4.36337185 22.89560318 0.58610100
v -4.35731840 22.91560936 0.58122402
v -4.33382034 22.97380257 0.56703299
v -3.44230986 22.56832886 0.66595697
v -3.46235466 22.53151131 0.67496300
v -3.47359276 22.51378632 0.67930102
v -3.45191574 22.54970551 0.67051202
v -3.44055986 22.97192764 0.56748998
v -3.45002103 22.99065018 0.56292599
v -3.39947486 22.70759392 0.63195199
v -3.39698410 22.72832298 0.62689900
v -3.39526343 22.79076004 0.61166602
v -3.39661574 22.81156540 0.60659403
v -3.39544797 22.74912834 0.62182701
v -3.39486361 22.76994514 0.61674798
v -3.41245365 22.64637375 0.64688897
v -3.42563009 22.60671425 0.65657502
v -3.43353844 22.58734322 0.66130900
v -3.41859007 22.62639809 0.65176702
v -3.40288377 22.68700409 0.63697302
v -3.40720606 22.66658783 0.64195502
v -3.40214229 22.85290146 0.59651297
v -3.40628147 22.87335396 0.59152800
v -3.42419457 22.93338203 0.57688898
v -3.43194032 22.95283127 0.57214701
v -3.41135311 22.89360619 0.58658803
v -3.41732931 22.91363335 0.58170402
v -3.39891815 22.83228493 0.60154003
v -4.58763981 28.36215782 0.50000000
v -4.26564980 28.74543571 0.53395897
v -4.22117376 28.69887161 0.53591800
v -4.25150776 28.72927475 0.53463900
v -4.23668051 28.71373367 0.53529298
v -4.18830919 28.67121315 0.53708202
v -4.17100096 28.65849686 0.53761703
v -4.15315533 28.64653587 0.53811997
v -4.20504236 28.68468285 0.53651500
v -4.11598492 28.62501144 0.53902602
v -4.13480282 28.63536453 0.53859001
v -4.09673500 28.61548424 0.53942698
v -4.07708502 28.60679436 0.53979301
v -4.03674221 28.59203911 0.54041398
v -4.01612854 28.58599663 0.54066801
v -3.99526882 28.58084488 0.54088497
v -3.97420192 28.57661819 0.54106301
v -3.95297694 28.57331467 0.54120201
v -3.93162370 28.57092857 0.54130203
v -3.91018558 28.56948471 0.54136300
v -4.05707216 28.59897804 0.54012197
v -3.88871098 28.56896782 0.54138499
v -3.86723423 28.56939125 0.54136699
v -3.84578967 28.57074356 0.54131001
v -3.82442665 28.57303238 0.54121399
v -3.80318642 28.57623863 0.54107898
v -3.78210330 28.58038521 0.54090399
v -3.76121807 28.58543587 0.54069197
v -4.37632036 28.99774742 0.52334899
v -4.37862682 29.01910210 0.52245098
v -4.38000584 29.04053688 0.52155000
v -4.38043594 29.06200790 0.52064699
v -4.37992477 29.08346748 0.51974499
v -4.37608528 29.12625504 0.51794702
v -4.37848186 29.10490227 0.51884502
v -4.58763981 29.93609619 0.50000000
v -4.30367565 28.79741096 0.53177297
v -4.31479168 28.81578827 0.53100002
v -4.34321451 28.87356567 0.52857000
v -4.35096741 28.89360046 0.52772701
v -4.32510281 28.83461952 0.53020799
v -4.33457899 28.85389900 0.52939701
v -4.27908182 28.76219749 0.53325403
v -4.29175711 28.77954483 0.53252399
v -4.35784864 28.91394043 0.52687198
v -4.36384344 28.93457031 0.52600503
v -4.36891127 28.95544052 0.52512699
v -4.37308359 28.97650528 0.52424198
v -4.37276936 29.14747810 0.51705498
v -4.36852646 29.16852951 0.51617002
v -4.36338186 29.18938446 0.51529402
v -4.35730934 29.20999527 0.51442701
v -4.35035515 29.23031616 0.51357299
v -4.34251881 29.25032425 0.51273203
v -4.33382082 29.26996803 0.51190698
v -4.32426929 29.28921700 0.51109803
v -4.30269575 29.32636452 0.50953698
v -4.31388187 29.30802727 0.51030701
v -4.29070520 29.34418869 0.50878698
v -4.27795839 29.36149597 0.50805998
v -4.26445818 29.37821198 0.50735700
v -4.25025320 29.39433479 0.50668001
v -4.23534727 29.40981674 0.50602901
v -4.21978283 29.42463303 0.50540602
v -4.20358753 29.43876648 0.50481200
v -4.18678999 29.45217896 0.50424898
v -4.16942406 29.46483231 0.50371701
v -4.15152454 29.47673988 0.50321698
v -4.13311529 29.48783684 0.50274998
v -4.11424065 29.49813271 0.50231701
v -4.09493732 29.50758362 0.50191998
v -4.07524109 29.51619530 0.50155801
v -4.03480816 29.53079224 0.50094402
v -4.05518579 29.52394485 0.50123298
v -4.01415873 29.53676987 0.50069398
v -3.99325967 29.54182816 0.50048101
v -3.97216082 29.54597473 0.50030702
v -3.95090437 29.54918480 0.50017101
v -3.92952657 29.55148888 0.50007498
v -3.90806985 29.55283356 0.50001800
v -3.88657236 29.55326843 0.50000000
v -3.86507607 29.55274010 0.50002199
v -3.84362626 29.55130386 0.50008303
v -3.82225823 29.54890633 0.50018299
v -3.80101752 29.54559708 0.50032198
v -3.77993584 29.54136276 0.50050002
v -3.75905943 29.53621483 0.50071698
v -3.74058247 28.59140015 0.54044098
v -3.72021914 28.59824181 0.54015303
v -3.70017552 28.60597992 0.53982699
v -3.68048668 28.61458206 0.53946501
v -3.66119003 28.62401772 0.53906798
v -3.64233494 28.63429832 0.53863502
v -3.62392879 28.64538383 0.53816903
v -3.60603046 28.65726662 0.53766900
v -3.58867669 28.66991806 0.53713602
v -3.55568624 28.69742775 0.53597897
v -3.57187772 28.68330765 0.53657299
v -3.54012418 28.71223068 0.53535599
v -3.52522349 28.72769928 0.53470498
v -3.51100588 28.74379730 0.53402799
v -3.18764424 28.36215782 0.50000000
v -3.49750948 28.76050758 0.53332502
v -3.48475099 28.77779198 0.53259802
v -3.47276497 28.79561234 0.53184801
v -3.46155143 28.81393051 0.53107798
v -3.45117211 28.83272552 0.53028703
v -3.44161153 28.85196304 0.52947801
v -3.44056296 29.26803017 0.51198798
v -3.45002055 29.28732300 0.51117802
v -3.48334861 29.34243774 0.50886101
v -3.49602628 29.35979462 0.50813103
v -3.47144008 29.32456017 0.50961298
v -3.46033120 29.30617523 0.51038498
v -3.43289161 28.87159348 0.52865303
v -3.42504859 28.89159012 0.52781200
v -3.41807437 28.91190147 0.52695799
v -3.41200662 28.93250847 0.52609098
v -3.40683007 28.95335388 0.52521503
v -3.40257955 28.97440338 0.52433002
v -3.39924765 28.99562836 0.52343798
v -3.39684057 29.01697159 0.52254099
v -3.39537406 29.03840065 0.52164000
v -3.39484859 29.05987167 0.52073699
v -3.39892125 29.12413597 0.51803601
v -3.39526415 29.08133316 0.51983500
v -3.39662480 29.10276985 0.51893401
v -3.40213585 29.14537430 0.51714402
v -3.40629363 29.16644287 0.51625800
v -3.41134953 29.18732071 0.51538098
v -3.41732979 29.20795631 0.51451302
v -3.42418861 29.22830963 0.51365799
v -3.43194580 29.24834824 0.51281500
v -3.73843575 29.53015137 0.50097102
v -3.71809006 29.52320480 0.50126302
v -3.69806695 29.51537704 0.50159198
v -3.67840672 29.50668144 0.50195801
v -3.64031625 29.48676872 0.50279498
v -3.65914369 29.49714661 0.50235897
v -3.62195563 29.47558975 0.50326502
v -3.60410833 29.46360588 0.50376803
v -3.58679867 29.45087433 0.50430298
v -3.57005429 29.43739510 0.50487000
v -3.53841972 29.40830994 0.50609303
v -3.52359009 29.39275551 0.50674599
v -3.55392241 29.42318916 0.50546700
v -3.50944877 29.37657738 0.50742602
v -3.18764424 29.93609619 0.50000000
v -4.58763647 22.08995819 4.50000000
v -4.29743242 22.49769402 4.50000000
v -4.22582722 22.41820526 4.50000000
v -4.28456545 22.48060417 4.50000000
v -4.27094460 22.46408272 4.50000000
v -4.24154711 22.43285179 4.50000000
v -4.25659704 22.44815636 4.50000000
v -4.09962225 22.33606720 4.50000000
v -4.07969999 22.32751465 4.50000000
v -4.20946407 22.40422630 4.50000000
v -4.19248724 22.39096069 4.50000000
v -4.17493820 22.37843513 4.50000000
v -4.15683985 22.36664963 4.50000000
v -4.13823032 22.35565186 4.50000000
v -4.11914444 22.34544373 4.50000000
v -4.05940914 22.31981659 4.50000000
v -4.03879499 22.31298447 4.50000000
v -3.99674582 22.30196190 4.50000000
v -4.01789665 22.30702972 4.50000000
v -3.97538853 22.29779816 4.50000000
v -3.95387149 22.29454422 4.50000000
v -3.93222380 22.29219627 4.50000000
v -3.91049504 22.29077530 4.50000000
v -3.88871884 22.29026031 4.50000000
v -3.86694169 22.29068375 4.50000000
v -3.84520698 22.29201317 4.50000000
v -3.82354975 22.29427147 4.50000000
v -3.80201840 22.29743385 4.50000000
v -3.78064036 22.30150795 4.50000000
v -3.75946784 22.30648804 4.50000000
v -3.52470684 22.08995819 4.50000000
v -3.73854518 22.31235504 4.50000000
v -3.71790171 22.31909943 4.50000000
v -3.69757509 22.32671165 4.50000000
v -3.67761421 22.33517838 4.50000000
v -3.65805149 22.34447670 4.50000000
v -3.63892031 22.35460091 4.50000000
v -3.62026191 22.36552238 4.50000000
v -3.60211253 22.37723160 4.50000000
v -3.58450627 22.38968468 4.50000000
v -3.56747031 22.40287971 4.50000000
v -3.55104542 22.41678619 4.50000000
v -3.53526139 22.43136978 4.50000000
v -3.52014303 22.44660950 4.50000000
v -3.50572538 22.46247673 4.50000000
v -3.49203014 22.47893906 4.50000000
v -3.47908902 22.49597359 4.50000000
v -3.18764138 22.08995819 4.50000000
v -4.37572002 22.67107391 4.50000000
v -4.37994480 22.69183922 4.50000000
v -4.38323069 22.71277046 4.50000000
v -4.38557529 22.73383331 4.50000000
v -4.38696957 22.75496864 4.50000000
v -4.38740921 22.77586365 4.50000000
v -4.58763647 22.92510605 4.50000000
v -4.58763647 22.92590332 4.50000000
v -4.34088087 22.57097626 4.50000000
v -4.32080126 22.53340149 4.50000000
v -4.30951548 22.51530075 4.50000000
v -4.33126402 22.55197525 4.50000000
v -4.35751104 22.61010933 4.50000000
v -4.34963512 22.59036446 4.50000000
v -4.36449242 22.63016319 4.50000000
v -4.37056637 22.65050125 4.50000000
v -4.38761759 23.75907707 4.50000000
v -4.38716841 23.77845001 4.50000000
v -4.38709545 23.78128624 4.50000000
v -4.38581514 23.80086708 4.50000000
v -4.38561726 23.80372810 4.50000000
v -4.38320541 23.82596397 4.50000000
v -4.38026762 23.84541130 4.50000000
v -4.37984467 23.84814262 4.50000000
v -4.37608290 23.86744881 4.50000000
v -4.37553692 23.87018776 4.50000000
v -4.58763647 24.47501755 4.50000000
v -4.37033033 23.89190865 4.50000000
v -4.36417341 23.91349602 4.50000000
v -4.35714626 23.93467140 4.50000000
v -4.34921026 23.95557404 4.50000000
v -4.34039497 23.97609901 4.50000000
v -4.33184910 23.99388504 4.50000000
v -4.33069038 23.99626541 4.50000000
v -4.32141590 24.01360893 4.50000000
v -4.32019854 24.01586342 4.50000000
v -4.31016159 24.03284836 4.50000000
v -4.30885744 24.03503418 4.50000000
v -4.29668236 24.05371857 4.50000000
v -4.28379011 24.07176208 4.50000000
v -4.27164268 24.08730507 4.50000000
v -4.27010965 24.08925056 4.50000000
v -4.25570536 24.10610199 4.50000000
v -4.24226141 24.12052727 4.50000000
v -4.24059296 24.12230110 4.50000000
v -4.22654104 24.13611794 4.50000000
v -4.22481251 24.13780022 4.50000000
v -4.20839024 24.15258598 4.50000000
v -4.19130516 24.16665077 4.50000000
v -4.17562056 24.17845726 4.50000000
v -4.17373276 24.17986488 4.50000000
v -4.15751076 24.19099998 4.50000000
v -4.15556669 24.19232368 4.50000000
v -4.13683987 24.20397186 4.50000000
v -4.11768866 24.21473503 4.50000000
v -4.09814882 24.22461510 4.50000000
v -4.08024406 24.23270035 4.50000000
v -4.07809973 24.23365593 4.50000000
v -4.05778646 24.24174309 4.50000000
v -4.03924322 24.24819183 4.50000000
v -4.03709888 24.24892807 4.50000000
v -4.01607943 24.25518990 4.50000000
v -3.99490952 24.26048279 4.50000000
v -3.97348094 24.26482201 4.50000000
v -3.95410085 24.26785851 4.50000000
v -3.95189214 24.26819420 4.50000000
v -3.93012905 24.27060509 4.50000000
v -3.90838456 24.27201843 4.50000000
v -3.88650227 24.27245712 4.50000000
v -3.86694694 24.27198219 4.50000000
v -3.86472416 24.27192116 4.50000000
v -3.84293818 24.27040672 4.50000000
v -3.82118082 24.26789665 4.50000000
v -3.79966331 24.26443481 4.50000000
v -3.75705457 24.25459862 4.50000000
v -3.77820134 24.25998497 4.50000000
v -3.46692538 22.51353073 4.50000000
v -3.45555973 22.53158569 4.50000000
v -3.44501495 22.55011559 4.50000000
v -3.43531442 22.56907272 4.50000000
v -3.42647147 22.58842659 4.50000000
v -3.41850901 22.60813713 4.50000000
v -3.41143847 22.62815857 4.50000000
v -3.40527320 22.64847183 4.50000000
v -3.40002894 22.66902351 4.50000000
v -3.39571142 22.68977165 4.50000000
v -3.39233065 22.71068764 4.50000000
v -3.38989401 22.73174286 4.50000000
v -3.38840508 22.75286674 4.50000000
v -3.38787031 22.77381134 4.50000000
v -3.47732377 24.05184746 4.50000000
v -3.47873378 24.05384445 4.50000000
v -3.44356275 23.99424171 4.50000000
v -3.45525169 24.01607895 4.50000000
v -3.45399737 24.01393127 4.50000000
v -3.46659231 24.03522491 4.50000000
v -3.46525669 24.03314972 4.50000000
v -3.65557504 24.21365356 4.50000000
v -3.63850355 24.20396233 4.50000000
v -3.63651466 24.20283127 4.50000000
v -3.59972906 24.17855263 4.50000000
v -3.61982512 24.19234467 4.50000000
v -3.61787963 24.19112015 4.50000000
v -3.73606110 24.24823761 4.50000000
v -3.71545720 24.24098015 4.50000000
v -3.69721437 24.23362732 4.50000000
v -3.69512177 24.23277855 4.50000000
v -3.67516732 24.22367287 4.50000000
v -3.55060244 24.13787270 4.50000000
v -3.54886341 24.13628769 4.50000000
v -3.53311610 24.12068367 4.50000000
v -3.51811194 24.10445976 4.50000000
v -3.58221269 24.16526031 4.50000000
v -3.56523085 24.15115356 4.50000000
v -3.50374341 24.08749771 4.50000000
v -3.49017096 24.06999588 4.50000000
v -3.38766003 23.75689888 4.50000000
v -3.38808680 23.77900887 4.50000000
v -3.38946390 23.80139542 4.50000000
v -3.38974476 23.80416298 4.50000000
v -3.39179111 23.82375908 4.50000000
v -3.39218020 23.82643127 4.50000000
v -3.39925981 23.86795235 4.50000000
v -3.39986277 23.87053490 4.50000000
v -3.40438890 23.88975716 4.50000000
v -3.40509558 23.89229202 4.50000000
v -3.39505720 23.84594536 4.50000000
v -3.39555550 23.84857750 4.50000000
v -3.41829419 23.93499184 4.50000000
v -3.41124439 23.91379547 4.50000000
v -3.41042280 23.91126442 4.50000000
v -3.41739273 23.93257713 4.50000000
v -3.42623591 23.95586777 4.50000000
v -3.42524004 23.95351219 4.50000000
v -3.43505430 23.97636604 4.50000000
v -3.43396950 23.97407913 4.50000000
v -3.18764138 24.47501755 4.50000000
v -4.58763981 28.36215782 4.50000000
v -4.27143908 28.74164391 4.50000000
v -4.24189711 28.70927811 4.50000000
v -4.22617435 28.69417953 4.50000000
v -4.25694656 28.72504997 4.50000000
v -4.19282246 28.66609383 4.50000000
v -4.17526245 28.65317917 4.50000000
v -4.15715408 28.64102936 4.50000000
v -4.20980597 28.67976952 4.50000000
v -4.13852692 28.62968254 4.50000000
v -4.11942816 28.61916924 4.50000000
v -4.10013103 28.60960770 4.50000000
v -4.07994699 28.60066605 4.50000000
v -4.05963326 28.59272385 4.50000000
v -4.03899670 28.58567810 4.50000000
v -4.01807499 28.57953644 4.50000000
v -3.99689865 28.57430649 4.50000000
v -3.97551227 28.57001305 4.50000000
v -3.95396709 28.56665421 4.50000000
v -3.93229008 28.56423187 4.50000000
v -3.91052604 28.56276512 4.50000000
v -3.88872719 28.56224442 4.50000000
v -3.86692619 28.56266975 4.50000000
v -3.84515548 28.56404305 4.50000000
v -3.82346892 28.56637001 4.50000000
v -3.80190921 28.56963730 4.50000000
v -3.78050470 28.57383728 4.50000000
v -3.75930595 28.57897568 4.50000000
v -4.37595844 28.95463371 4.50000000
v -4.38019848 28.97619247 4.50000000
v -4.38344479 28.99756622 4.50000000
v -4.38577366 29.01923180 4.50000000
v -4.38715887 29.04115105 4.50000000
v -4.38758469 29.06247711 4.50000000
v -4.38762093 29.23654938 4.50000000
v -4.38717461 29.25524902 4.50000000
v -4.38709593 29.25817871 4.50000000
v -4.38562441 29.27990723 4.50000000
v -4.38352728 29.29876137 4.50000000
v -4.38319397 29.30166626 4.50000000
v -4.37983799 29.32318306 4.50000000
v -4.37553501 29.34458160 4.50000000
v -4.58763981 29.93609619 4.50000000
v -4.29777193 28.77609253 4.50000000
v -4.32112598 28.81288910 4.50000000
v -4.30985022 28.79423523 4.50000000
v -4.34126902 28.85176849 4.50000000
v -4.35779142 28.89187431 4.50000000
v -4.34992838 28.87154198 4.50000000
v -4.33157635 28.83200645 4.50000000
v -4.28491068 28.75848389 4.50000000
v -4.36481333 28.91270638 4.50000000
v -4.37081957 28.93345642 4.50000000
v -4.37099552 29.36300468 4.50000000
v -4.37030506 29.36577606 4.50000000
v -4.36415482 29.38672829 4.50000000
v -4.35802460 29.40468979 4.50000000
v -4.35709858 29.40738106 4.50000000
v -4.35019016 29.42506981 4.50000000
v -4.34914732 29.42771912 4.50000000
v -4.34147358 29.44508934 4.50000000
v -4.34029531 29.44773293 4.50000000
v -4.33063030 29.46724510 4.50000000
v -4.32146645 29.48389053 4.50000000
v -4.32009220 29.48637199 4.50000000
v -4.31021452 29.50258827 4.50000000
v -4.30873775 29.50500107 4.50000000
v -4.29655027 29.52316666 4.50000000
v -4.28532362 29.53843880 4.50000000
v -4.28364468 29.54071045 4.50000000
v -4.26991749 29.55774689 4.50000000
v -4.25549841 29.57412720 4.50000000
v -4.24037743 29.58986473 4.50000000
v -4.22462797 29.60488892 4.50000000
v -4.20819616 29.61925507 4.50000000
v -4.19334364 29.63113976 4.50000000
v -4.19110584 29.63291740 4.50000000
v -4.17353487 29.64575195 4.50000000
v -4.15770626 29.65629959 4.50000000
v -4.15532446 29.65787697 4.50000000
v -4.13908863 29.66769409 4.50000000
v -4.13664770 29.66916084 4.50000000
v -4.12000227 29.67826271 4.50000000
v -4.11754560 29.67959785 4.50000000
v -4.09791279 29.68922615 4.50000000
v -4.08053493 29.69684410 4.50000000
v -4.07797670 29.69795799 4.50000000
v -4.06022501 29.70483017 4.50000000
v -4.05762339 29.70582771 4.50000000
v -4.03959513 29.71191597 4.50000000
v -4.03690434 29.71281242 4.50000000
v -4.01867437 29.71809578 4.50000000
v -4.01600122 29.71886253 4.50000000
v -3.99480128 29.72401047 4.50000000
v -3.97611952 29.72769165 4.50000000
v -3.97333598 29.72822952 4.50000000
v -3.95182800 29.73149300 4.50000000
v -3.93008399 29.73383141 4.50000000
v -3.91113281 29.73503304 4.50000000
v -3.90836787 29.73520279 4.50000000
v -3.88655686 29.73563957 4.50000000
v -3.86751294 29.73518181 4.50000000
v -3.86469078 29.73510361 4.50000000
v -3.84576035 29.73383141 4.50000000
v -3.84298396 29.73363686 4.50000000
v -3.82125044 29.73120117 4.50000000
v -3.80249476 29.72827911 4.50000000
v -3.79975247 29.72784424 4.50000000
v -3.78108644 29.72409439 4.50000000
v -3.77835989 29.72353935 4.50000000
v -3.75987720 29.71897125 4.50000000
v -3.75713015 29.71828461 4.50000000
v -3.46123981 28.36215782 4.50000000
v -3.73835778 28.58502769 4.50000000
v -3.71769047 28.59198380 4.50000000
v -3.69734240 28.59983635 4.50000000
v -3.67735720 28.60857201 4.50000000
v -3.65777969 28.61816788 4.50000000
v -3.63863802 28.62859726 4.50000000
v -3.61996031 28.63986206 4.50000000
v -3.60179901 28.65193558 4.50000000
v -3.58418441 28.66477394 4.50000000
v -3.56714082 28.67837524 4.50000000
v -3.55071068 28.69271278 4.50000000
v -3.53492260 28.70774460 4.50000000
v -3.51980495 28.72345161 4.50000000
v -3.50538778 28.73979950 4.50000000
v -3.18764424 28.36215782 4.50000000
v -3.49169493 28.75676346 4.50000000
v -3.47875881 28.77431679 4.50000000
v -3.46660042 28.79240417 4.50000000
v -3.45524430 28.81101036 4.50000000
v -3.44481397 28.82989311 4.50000000
v -3.43501735 28.84960938 4.50000000
v -3.42618728 28.86953735 4.50000000
v -3.41823626 28.88983536 4.50000000
v -3.41117740 28.91044998 4.50000000
v -3.40502644 28.93136215 4.50000000
v -3.39983916 28.95233345 4.50000000
v -3.39548993 28.97387505 4.50000000
v -3.39212394 28.99541473 4.50000000
v -3.38969922 29.01707077 4.50000000
v -3.38822365 29.03881454 4.50000000
v -3.38770413 29.06019592 4.50000000
v -3.38766241 29.23442841 4.50000000
v -3.38808990 29.25595284 4.50000000
v -3.38946891 29.27774239 4.50000000
v -3.39927840 29.34245872 4.50000000
v -3.39994240 29.34522629 4.50000000
v -3.40441680 29.36367607 4.50000000
v -3.39179254 29.29940605 4.50000000
v -3.39222026 29.30228043 4.50000000
v -3.39506865 29.32104111 4.50000000
v -3.39561272 29.32383919 4.50000000
v -3.65830564 29.67983627 4.50000000
v -3.65580988 29.67859268 4.50000000
v -3.63913989 29.66939545 4.50000000
v -3.63670492 29.66804504 4.50000000
v -3.59992838 29.64447212 4.50000000
v -3.62045956 29.65813828 4.50000000
v -3.61807919 29.65667725 4.50000000
v -3.47742653 29.52129936 4.50000000
v -3.47910738 29.52361870 4.50000000
v -3.44362831 29.46527100 4.50000000
v -3.44499850 29.46780014 4.50000000
v -3.45410252 29.48448563 4.50000000
v -3.45555568 29.48690224 4.50000000
v -3.46537995 29.50316811 4.50000000
v -3.54901648 29.60338402 4.50000000
v -3.53333259 29.58829308 4.50000000
v -3.52021003 29.57452011 4.50000000
v -3.51828074 29.57248497 4.50000000
v -3.58241081 29.63156319 4.50000000
v -3.58465600 29.63322449 4.50000000
v -3.56764102 29.61965561 4.50000000
v -3.56542516 29.61785889 4.50000000
v -3.50577569 29.55816078 4.50000000
v -3.50390148 29.55599976 4.50000000
v -3.49206734 29.54118729 4.50000000
v -3.49031687 29.53898621 4.50000000
v -3.73625803 29.71214294 4.50000000
v -3.71824455 29.70598793 4.50000000
v -3.71561503 29.70508385 4.50000000
v -3.69788647 29.69814491 4.50000000
v -3.69529605 29.69712448 4.50000000
v -3.67789173 29.68941689 4.50000000
v -3.67535424 29.68828583 4.50000000
v -3.41045976 29.38459969 4.50000000
v -3.41137552 29.38734436 4.50000000
v -3.41744256 29.40533829 4.50000000
v -3.42528439 29.42565727 4.50000000
v -3.43528438 29.44825363 4.50000000
v -3.43404627 29.44571114 4.50000000
v -3.18764424 29.74927139 4.50000000
v -3.18764424 29.93609619 4.50000000
v 0.63978469 10.00000000 0.00000000
v 0.63978469 10.00000000 0.50000000
v 2.46342254 14.86016464 0.54984999
v 1.85487759 14.97279453 0.73765898
v 1.75990987 14.99927425 0.78181100
v 2.15197921 14.90633678 0.62683600
v 1.95200133 14.94845200 0.69706303
v 2.05108881 14.92628384 0.66009903
v 2.25445080 14.88864803 0.59733802
v 2.35833263 14.87324905 0.57165998
v 2.56952024 14.84943199 0.53194898
v 2.67642379 14.84106445 0.51799101
v 2.78394127 14.83507252 0.50800198
v 2.89187193 14.83147430 0.50200099
v 2.99999404 14.83027172 0.50000000
v 3.10812593 14.83147430 0.50200099
v 3.21604657 14.83507252 0.50800198
v 3.32357430 14.84106350 0.51799101
v 3.43047786 14.84943199 0.53194898
v 3.53657556 14.86016464 0.54984999
v 3.64166546 14.87324905 0.57165998
v 3.74554610 14.88864803 0.59733802
v 3.84802294 14.90633678 0.62683600
v 3.94890428 14.92628384 0.66009903
v 4.04799843 14.94845104 0.69706303
v 4.14512157 14.97279453 0.73765898
v 4.24008703 14.99927425 0.78181100
v 0.63978469 17.43614197 0.50000000
v 1.24506354 15.19985962 1.11628902
v 1.66727805 15.02783298 0.82943499
v 1.48971069 15.09098339 0.93473601
v 1.57715511 15.05842400 0.88044202
v 1.40510666 15.12545300 0.99221599
v 1.32350326 15.16176605 1.05277097
v 0.64738744 19.13849258 0.50000000
v 4.33271980 15.02783298 0.82943499
v 4.42284203 15.05842400 0.88044202
v 4.51028728 15.09098339 0.93473601
v 4.59488964 15.12545300 0.99221599
v 4.67649078 15.16176605 1.05277097
v 4.75493431 15.19985962 1.11628902
v 1.16992521 15.23965168 1.18265104
v 1.09822619 15.28108406 1.25173199
v 1.03010905 15.32405758 1.32339203
v 0.96569932 15.36851120 1.39751697
v 0.90512472 15.41434193 1.47394598
v 0.84558648 15.46233559 1.55255604
v 0.84775305 19.33849144 1.71671104
v 4.83007717 15.23965168 1.18265104
v 4.90177011 15.28108501 1.25173199
v 4.96988630 15.32405758 1.32339203
v 4.87995481 19.33849144 1.71671104
v 5.36021519 10.00000000 0.50000000
v 7.50000000 10.00000000 0.00000000
v 8.50055885 11.08332920 0.00000000
v 8.58332920 11.00055885 0.00000000
v 8.53786755 11.03786755 0.00000000
v 8.47283649 11.13519478 0.00000000
v 8.45576477 11.19147301 0.00000000
v 8.63519478 10.97283649 0.00000000
v 8.69147301 10.95576477 0.00000000
v 8.50055885 11.08332920 0.27499998
v 8.58332920 11.00055885 0.27500001
v 8.53786755 11.03786755 0.27500001
v 8.47283649 11.13519478 0.27500001
v 8.45576477 11.19147301 0.27500001
v 8.63519478 10.97283649 0.27500001
v 8.69147301 10.95576477 0.27500001
v 7.50000000 10.00000000 0.50000000
v 8.37876892 10.87876892 0.50000000
v 8.26496315 11.04909134 0.50000000
v 8.23508739 11.14757729 0.50000000
v 8.31347847 10.95832539 0.50000000
v 8.54909134 10.76496315 0.50000000
v 8.45832539 10.81347847 0.50000000
v 8.64757729 10.73508739 0.50000000
v 8.44999981 11.25000000 0.00000000
v 8.45576477 11.30852699 0.00000000
v 8.47283649 11.36480522 0.00000000
v 8.50055885 11.41667080 0.00000000
v 8.53786755 11.46213245 0.00000000
v 8.58332920 11.49944115 0.00000000
v 8.63519478 11.52716351 0.00000000
v 8.69147301 11.54423523 0.00000000
v 8.44999981 11.25000000 0.27500001
v 8.45576477 11.30852699 0.27500001
v 8.47283649 11.36480522 0.27500001
v 8.50055885 11.41667080 0.27499998
v 8.53786755 11.46213245 0.27500001
v 8.58332920 11.49944115 0.27500001
v 8.63519478 11.52716351 0.27500001
v 8.69147301 11.54423523 0.27500001
v 8.22500038 11.25000000 0.50000000
v 8.23508739 11.35242271 0.50000000
v 8.26496315 11.45090866 0.50000000
v 8.31347847 11.54167461 0.50000000
v 8.37876892 11.62123108 0.50000000
v 8.45832539 11.68652153 0.50000000
v 8.54909134 11.73503685 0.50000000
v 8.64757729 11.76491261 0.50000000
v 8.75000000 10.94999981 0.00000000
v 8.80852699 10.95576477 0.00000000
v 8.86480522 10.97283649 0.00000000
v 8.91667080 11.00055885 0.00000000
v 8.96213245 11.03786755 0.00000000
v 8.99944115 11.08332920 0.00000000
v 9.02716351 11.13519478 0.00000000
v 9.04423523 11.19147301 0.00000000
v 8.75000000 10.94999981 0.27500001
v 8.80852699 10.95576477 0.27500001
v 8.86480522 10.97283649 0.27500001
v 8.91667080 11.00055885 0.27500001
v 8.96213245 11.03786755 0.27500001
v 8.99944115 11.08332920 0.27499998
v 9.02716351 11.13519478 0.27500001
v 9.04423523 11.19147301 0.27500001
v 10.00000000 10.00000000 0.00000000
v 8.75000000 10.72500038 0.50000000
v 8.85242271 10.73508739 0.50000000
v 8.95090866 10.76496315 0.50000000
v 9.04167461 10.81347847 0.50000000
v 9.12123108 10.87876892 0.50000000
v 9.18652153 10.95832539 0.50000000
v 9.23503685 11.04909134 0.50000000
v 9.26491261 11.14757729 0.50000000
v 10.00000000 10.00000000 0.50000000
v 8.75000000 11.55000019 0.00000000
v 8.80852699 11.54423523 0.00000000
v 8.86480522 11.52716351 0.00000000
v 9.05000019 11.25000000 0.00000000
v 9.04423523 11.30852699 0.00000000
v 9.02716351 11.36480522 0.00000000
v 8.96213245 11.46213245 0.00000000
v 8.91667080 11.49944115 0.00000000
v 8.99944115 11.41667080 0.00000000
v 8.75000000 11.55000019 0.27500001
v 8.80852699 11.54423523 0.27500001
v 8.86480522 11.52716351 0.27500001
v 9.05000019 11.25000000 0.27500001
v 9.04423523 11.30852699 0.27500001
v 9.02716351 11.36480522 0.27500001
v 8.96213245 11.46213150 0.27500001
v 8.91667080 11.49944115 0.27500001
v 8.99944115 11.41667080 0.27499998
v 8.75000000 11.77499962 0.50000000
v 8.85242271 11.76491261 0.50000000
v 9.04167461 11.68652153 0.50000000
v 8.95090866 11.73503685 0.50000000
v 9.18652153 11.54167461 0.50000000
v 9.27499962 11.25000000 0.50000000
v 9.26491261 11.35242271 0.50000000
v 9.23503685 11.45090866 0.50000000
v 9.12123108 11.62123108 0.50000000
v 7.50000000 12.50000000 0.00000000
v 7.50000000 12.50000000 0.50000000
v 10.00000000 12.50000000 0.00000000
v 10.00000000 12.50000000 0.50000000
v 5.36021519 17.43614197 0.50000000
v 5.08032036 19.13849258 0.50000000
v 5.03429317 15.36851120 1.39751697
v 5.09487391 15.41434097 1.47394598
v 5.15441370 15.46233559 1.55255604
v 2.92195845 10.00000000 3.36614680
v 2.89111638 10.00000000 3.36692095
v 2.99999380 10.00000000 3.36418891
v 3.00220275 10.00000000 3.36426830
v 3.07803655 10.00000000 3.36614680
v 3.10888124 10.00000000 3.36692095
v 3.11112785 10.00000000 3.36711049
v 3.18692231 10.00000000 3.37280464
v 2.45991611 10.00000000 3.43219805
v 2.24985576 10.00000000 3.49690628
v 2.35425496 10.00000000 3.46192598
v 2.14692044 10.00000000 3.53707004
v 2.04561782 10.00000000 3.58233571
v 1.94616473 10.00000000 3.63261414
v 1.84871888 10.00000000 3.68780613
v 1.75346482 10.00000000 3.74780822
v 1.66057992 10.00000000 3.81250191
v 1.57022941 10.00000000 3.88176584
v 1.23740208 10.00000000 4.20176888
v 1.16210341 10.00000000 4.29174948
v 0.63978469 10.00000000 4.50000000
v 0.89712185 10.31428623 4.50000000
v 0.89692122 10.31489658 4.50000000
v 0.83980429 10.49600601 4.50000000
v 1.09024084 10.00000000 4.38539505
v 1.01071548 10.00000000 4.50000000
v 0.95759702 10.13979244 4.50000000
v 1.02196074 10.00000000 4.48251152
v 1.48257983 10.00000000 3.95546770
v 1.39778757 10.00000000 4.03347015
v 1.31600928 10.00000000 4.11562109
v 2.56663918 10.00000000 3.40778685
v 2.67421484 10.00000000 3.38874578
v 2.78244472 10.00000000 3.37511253
v 3.21754313 10.00000000 3.37511253
v 3.32578301 10.00000000 3.38874578
v 3.40369987 10.00000000 3.40253782
v 3.43335843 10.00000000 3.40778685
v 3.43611479 10.00000000 3.40842104
v 3.46545148 10.00000000 3.41513038
v 3.54008055 10.00000000 3.43219805
v 3.64574313 10.00000000 3.46192598
v 3.75014114 10.00000000 3.49690628
v 3.85308170 10.00000000 3.53707004
v 3.95437527 10.00000000 3.58233571
v 4.05383444 10.00000000 3.63261414
v 4.15128040 10.00000000 3.68780613
v 4.24653196 10.00000000 3.74780822
v 4.33941793 10.00000000 3.81250191
v 4.42976761 10.00000000 3.88176584
v 4.51741838 10.00000000 3.95546770
v 4.60220814 10.00000000 4.03347015
v 4.68398428 10.00000000 4.11562109
v 4.76259565 10.00000000 4.20176888
v 4.83789873 10.00000000 4.29174948
v 4.90975523 10.00000000 4.38539505
v 4.97803450 10.00000000 4.48251200
v 4.98927784 10.00000000 4.50000000
v 0.84622055 16.74600792 3.70062304
v 0.91134548 16.79916382 3.77922511
v 0.97204721 16.84489822 3.85565305
v 1.03653347 16.88923264 3.92977905
v 0.84582579 15.42393494 4.50000000
v 1.10467315 16.93208122 4.00144720
v 1.17634916 16.97336388 4.07051992
v 0.84620923 16.51803207 4.50000000
v 0.84523535 16.74485779 4.50000000
v 0.85684609 16.75482368 4.50000000
v 0.90940821 16.79771423 4.50000000
v 0.97033465 16.84367561 4.50000000
v 0.63978469 17.43614197 4.50000000
v 1.03504193 16.88821411 4.50000000
v 1.10339594 16.93124390 4.50000000
v 1.17527652 16.97268677 4.50000000
v 1.24357486 17.00878334 4.50000000
v 1.25140810 17.01301575 4.13688707
v 1.32973337 17.05095291 4.20040083
v 1.41117680 17.08711624 4.26095915
v 1.49558222 17.12143135 4.31843281
v 1.25755429 17.01590157 4.50000000
v 1.25052869 17.01247787 4.50000000
v 1.32903290 17.05053711 4.50000000
v 1.41064024 17.08680534 4.50000000
v 1.49519312 17.12121010 4.50000000
v 1.58279276 17.15384102 4.37272787
v 1.67264831 17.18428802 4.42373991
v 1.58253396 17.15369606 4.50000000
v 1.67250216 17.18420601 4.50000000
v 1.76498318 17.21270370 4.47135782
v 1.76493180 17.21267509 4.50000000
v 1.82727706 17.23007584 4.50000000
v 1.83144474 17.23015785 4.50000000
v 0.64738744 19.13849258 4.50000000
v 0.84789509 19.33858681 4.50000000
v 2.95092392 16.68697166 3.59229994
v 3.04907393 16.68697166 3.59229994
v 4.96346188 16.88923264 3.92977905
v 4.89532280 16.93208122 4.00144720
v 4.82365322 16.97336388 4.07051992
v 4.67026043 17.05095291 4.20040083
v 4.74858952 17.01301575 4.13688707
v 4.32734966 17.18428802 4.42373991
v 4.32749605 17.18420601 4.50000000
v 4.16855431 17.23015785 4.50000000
v 4.17272139 17.23007584 4.50000000
v 4.23501396 17.21270370 4.47135782
v 4.23506546 17.21267509 4.50000000
v 4.58881950 17.08711624 4.26095915
v 4.50441599 17.12143135 4.31843281
v 4.41720438 17.15384102 4.37272787
v 4.41746330 17.15369606 4.50000000
v 4.50480509 17.12121010 4.50000000
v 4.58935595 17.08680534 4.50000000
v 4.67096090 17.05053711 4.50000000
v 4.74244308 17.01590157 4.50000000
v 4.75642300 17.00878143 4.50000000
v 4.74946880 17.01247787 4.50000000
v 4.82472563 16.97268677 4.50000000
v 4.89660025 16.93124390 4.50000000
v 4.96495342 16.88821411 4.50000000
v 4.87981272 19.33858681 4.50000000
v 5.04239559 10.13979244 4.50000000
v 5.10287714 10.31428623 4.50000000
v 5.11804390 10.36220837 4.50000000
v 5.11784458 10.36160183 4.50000000
v 5.16019583 10.49600601 4.50000000
v 5.16013575 10.55658531 4.50000000
v 5.36021519 10.00000000 4.50000000
v 5.15377951 16.74600792 3.70062304
v 5.08865356 16.79916382 3.77922511
v 5.02794552 16.84489822 3.85565305
v 5.15388060 15.70687389 4.50000000
v 5.15379095 16.51803207 4.50000000
v 5.02965784 16.84367561 4.50000000
v 5.10149956 16.78836060 4.50000000
v 5.15476465 16.74485779 4.50000000
v 5.09059095 16.79771423 4.50000000
v 5.36021519 17.43614197 4.50000000
v 5.08032036 19.13849258 4.50000000
v 0.84942025 20.23070145 0.50000000
v 2.36385798 21.05973053 1.08485103
v 0.64738744 23.99511719 0.50000000
v 4.87828779 20.23070145 0.50000000
v 2.84204793 20.65455055 0.79270601
v 2.88566804 20.65455055 0.79270601
v 3.36385798 21.05973053 1.08485103
v 0.84738743 22.57633018 2.17863989
v 4.88032055 22.57633018 2.17863989
v 5.08032036 23.99511719 0.50000000
v 7.50000000 27.50000000 0.00000000
v 8.50055885 28.58332825 0.00000000
v 8.58332920 28.50055885 0.00000000
v 8.53786755 28.53786850 0.00000000
v 8.47283649 28.63519478 0.00000000
v 8.45576477 28.69147301 0.00000000
v 8.63519478 28.47283554 0.00000000
v 8.69147301 28.45576477 0.00000000
v 8.50055885 28.58332825 0.27499998
v 8.58332920 28.50055885 0.27500001
v 8.53786755 28.53786850 0.27500001
v 8.47283649 28.63519478 0.27500001
v 8.45576477 28.69147301 0.27500001
v 8.63519478 28.47283554 0.27500001
v 8.69147301 28.45576477 0.27500001
v 7.50000000 27.50000000 0.50000000
v 8.37876892 28.37876892 0.50000000
v 8.26496315 28.54909134 0.50000000
v 8.23508739 28.64757729 0.50000000
v 8.31347847 28.45832634 0.50000000
v 8.54909134 28.26496315 0.50000000
v 8.45832539 28.31347847 0.50000000
v 8.64757729 28.23508835 0.50000000
v 7.50000000 30.00000000 0.00000000
v 8.44999981 28.75000000 0.00000000
v 8.45576477 28.80852699 0.00000000
v 8.47283649 28.86480522 0.00000000
v 8.50055885 28.91667175 0.00000000
v 8.53786755 28.96213150 0.00000000
v 8.58332920 28.99944115 0.00000000
v 8.63519478 29.02716446 0.00000000
v 8.69147301 29.04423523 0.00000000
v 8.44999981 28.75000000 0.27500001
v 8.45576477 28.80852699 0.27500001
v 8.47283649 28.86480522 0.27500001
v 8.50055885 28.91667175 0.27499998
v 8.53786755 28.96213150 0.27500001
v 8.58332920 28.99944115 0.27500001
v 8.63519478 29.02716446 0.27500001
v 8.69147301 29.04423523 0.27500001
v 7.50000000 30.00000000 0.50000000
v 8.22500038 28.75000000 0.50000000
v 8.23508739 28.85242271 0.50000000
v 8.26496315 28.95090866 0.50000000
v 8.31347847 29.04167366 0.50000000
v 8.37876892 29.12123108 0.50000000
v 8.45832539 29.18652153 0.50000000
v 8.54909134 29.23503685 0.50000000
v 8.64757729 29.26491165 0.50000000
v 8.75000000 28.45000076 0.00000000
v 8.80852699 28.45576477 0.00000000
v 8.86480522 28.47283554 0.00000000
v 8.91667080 28.50055885 0.00000000
v 8.96213245 28.53786850 0.00000000
v 8.99944115 28.58332825 0.00000000
v 9.02716351 28.63519478 0.00000000
v 9.04423523 28.69147301 0.00000000
v 8.75000000 28.45000076 0.27500001
v 8.80852699 28.45576477 0.27500001
v 8.86480522 28.47283554 0.27500001
v 8.91667080 28.50055885 0.27500001
v 8.96213245 28.53786850 0.27500001
v 8.99944115 28.58332825 0.27499998
v 9.02716351 28.63519478 0.27500001
v 9.04423523 28.69147301 0.27500001
v 10.00000000 27.50000000 0.00000000
v 8.75000000 28.22500038 0.50000000
v 8.85242271 28.23508835 0.50000000
v 8.95090866 28.26496315 0.50000000
v 9.04167461 28.31347847 0.50000000
v 9.12123108 28.37876892 0.50000000
v 9.18652153 28.45832634 0.50000000
v 9.23503685 28.54909134 0.50000000
v 9.26491261 28.64757729 0.50000000
v 10.00000000 27.50000000 0.50000000
v 8.75000000 29.04999924 0.00000000
v 8.80852699 29.04423523 0.00000000
v 8.86480522 29.02716446 0.00000000
v 9.05000019 28.75000000 0.00000000
v 9.04423523 28.80852699 0.00000000
v 9.02716351 28.86480522 0.00000000
v 8.96213245 28.96213150 0.00000000
v 8.91667080 28.99944115 0.00000000
v 8.99944115 28.91667175 0.00000000
v 8.75000000 29.04999924 0.27500001
v 8.80852699 29.04423523 0.27500001
v 8.86480522 29.02716446 0.27500001
v 9.05000019 28.75000000 0.27500001
v 9.04423523 28.80852699 0.27500001
v 9.02716351 28.86480522 0.27500001
v 8.96213245 28.96213150 0.27500001
v 8.91667080 28.99944115 0.27500001
v 8.99944115 28.91667175 0.27499998
v 10.00000000 30.00000000 0.00000000
v 8.75000000 29.27499962 0.50000000
v 8.85242271 29.26491165 0.50000000
v 9.04167461 29.18652153 0.50000000
v 8.95090866 29.23503685 0.50000000
v 9.18652153 29.04167366 0.50000000
v 9.27499962 28.75000000 0.50000000
v 9.26491261 28.85242271 0.50000000
v 9.23503685 28.95090866 0.50000000
v 9.12123108 29.12123108 0.50000000
v 10.00000000 30.00000000 0.50000000
v 0.84794933 20.34244347 4.50000000
v 0.64738744 21.17916870 4.41050482
v 0.84867597 21.17916870 4.41050482
v 0.64738744 21.18996239 4.50000000
v 0.84882796 21.00964737 4.50000000
v 0.84866858 21.18996239 4.50000000
v 0.64738744 21.49290657 4.11788177
v 0.84839165 21.49290657 4.11788177
v 0.64738744 21.65842056 4.09063244
v 0.84824473 21.65842056 4.09063244
v 0.84764177 22.34052086 4.08636332
v 0.64738744 22.97581673 4.08238697
v 0.84752488 22.97581673 4.08238697
v 0.64738744 23.38323784 4.26971722
v 0.84747094 23.38323784 4.26971722
v 0.64738744 23.49920845 4.50000000
v 0.84747511 23.49920845 4.50000000
v 0.64738744 23.99511719 4.50000000
v 0.84742182 23.78989029 4.50000000
v 4.87994719 21.17916870 4.41050482
v 4.87993717 21.18996048 4.50000000
v 4.88000536 21.49290657 4.11788177
v 4.88001966 21.65842056 4.09063244
v 4.88006639 22.34052086 4.08636332
v 4.87971020 22.94110489 4.08260441
v 4.87974215 22.97581673 4.08238697
v 4.88002491 23.38323784 4.26971722
v 4.88001776 23.49920845 4.50000000
v 4.88028622 23.78989029 4.50000000
v 5.08032036 21.17916870 4.41050482
v 5.08032036 21.18996048 4.50000000
v 5.08032036 21.49290657 4.11788177
v 5.08032036 21.65842056 4.09063244
v 5.08032036 22.97581673 4.08238697
v 5.08032036 23.38323784 4.26971722
v 5.08032036 23.49920845 4.50000000
v 5.08032036 23.99511719 4.50000000
f 476 749 835
f 824 471 825
f 825 471 826
f 826 471 827
f 473 830 829
f 473 829 828
f 827 473 828
f 830 474 831
f 831 474 832
f 832 475 833
f 823 470 824
f 836 476 835
f 838 478 837
f 837 478 836
f 480 838 839
f 840 480 839
f 482 840 841
f 842 482 841
f 843 484 842
f 814 463 815
f 807 460 808
f 808 460 809
f 916 424 764
f 809 462 810
f 810 462 811
f 811 461 812
f 812 463 813
f 813 463 814
f 486 843 844
f 815 464 816
f 816 465 817
f 817 466 818
f 818 466 819
f 819 468 820
f 820 468 821
f 821 468 822
f 822 469 823
f 869 517 875
f 862 509 861
f 511 863 864
f 865 511 864
f 849 490 915
f 866 512 865
f 867 514 866
f 515 867 868
f 870 517 869
f 863 509 862
f 516 873 874
f 873 513 872
f 872 515 868
f 875 516 874
f 518 870 871
f 909 518 871
f 910 519 909
f 912 520 911
f 494 852 853
f 845 486 844
f 846 487 845
f 847 488 846
f 850 489 848
f 848 489 847
f 834 490 849
f 852 492 851
f 851 492 850
f 806 460 807
f 854 494 853
f 855 495 854
f 856 503 855
f 504 856 857
f 858 504 857
f 506 858 859
f 860 506 859
f 861 507 860
f 759 423 760
f 752 417 753
f 753 419 754
f 754 420 755
f 755 420 756
f 757 421 758
f 756 420 757
f 758 423 759
f 760 422 761
f 761 437 762
f 751 417 752
f 762 437 763
f 766 426 771
f 425 766 767
f 765 425 767
f 768 427 770
f 769 433 773
f 770 427 769
f 771 430 768
f 743 408 742
f 735 409 734
f 736 409 735
f 737 403 736
f 738 404 737
f 739 405 738
f 406 739 740
f 741 406 740
f 408 741 742
f 723 431 772
f 411 743 744
f 745 411 744
f 413 745 746
f 747 413 746
f 415 747 748
f 749 415 748
f 764 389 722
f 750 436 751
f 797 454 798
f 789 448 790
f 790 448 791
f 791 448 792
f 792 450 793
f 793 451 794
f 794 452 795
f 795 452 796
f 796 453 797
f 788 445 789
f 798 455 799
f 799 455 800
f 800 456 801
f 801 457 802
f 457 803 802
f 803 458 804
f 458 805 804
f 805 458 806
f 778 441 779
f 772 431 765
f 773 434 774
f 774 434 750
f 763 438 775
f 775 439 776
f 776 439 777
f 777 440 778
f 441 780 779
f 911 520 910
f 442 782 781
f 780 442 781
f 782 443 783
f 783 444 784
f 784 444 785
f 785 446 786
f 786 446 787
f 787 445 788
f 791 764 790
f 764 783 784
f 783 764 782
f 764 785 786
f 785 764 784
f 764 787 788
f 787 764 786
f 764 788 789
f 764 789 790
f 764 791 792
f 764 781 782
f 764 792 793
f 764 793 794
f 764 794 795
f 764 795 796
f 764 797 798
f 797 764 796
f 764 798 799
f 764 799 800
f 763 722 762
f 751 752 722
f 753 722 752
f 722 756 757
f 722 757 758
f 722 758 759
f 722 759 760
f 722 760 761
f 722 761 762
f 801 764 800
f 764 722 763
f 764 763 775
f 776 777 764
f 764 775 776
f 764 777 778
f 779 764 778
f 764 779 780
f 764 780 781
f 746 745 834
f 820 764 819
f 764 820 821
f 764 821 822
f 764 823 824
f 823 764 822
f 916 764 824
f 744 743 834
f 745 744 834
f 764 818 819
f 747 746 834
f 748 747 834
f 749 748 834
f 835 749 834
f 836 835 834
f 837 836 834
f 838 837 834
f 839 838 834
f 764 809 810
f 764 801 802
f 764 803 804
f 803 764 802
f 764 804 805
f 764 805 806
f 764 807 808
f 807 764 806
f 809 764 808
f 750 751 722
f 764 810 811
f 764 811 812
f 764 813 814
f 813 764 812
f 764 814 815
f 816 764 815
f 764 816 817
f 764 817 818
f 898 535 899
f 886 498 885
f 501 888 889
f 883 501 889
f 502 886 887
f 888 502 887
f 899 500 900
f 884 499 883
f 500 884 901
f 900 500 901
f 885 497 913
f 530 896 894
f 897 531 890
f 896 530 897
f 880 530 895
f 895 530 894
f 890 532 891
f 913 497 914
f 914 497 912
f 879 526 881
f 903 523 904
f 833 522 902
f 902 522 903
f 523 905 904
f 905 524 906
f 907 525 908
f 906 524 907
f 878 526 879
f 915 536 916
f 881 528 882
f 882 528 880
f 908 525 876
f 876 527 877
f 527 878 877
f 533 898 893
f 532 892 891
f 892 533 893
f 739 738 834
f 734 733 722
f 734 722 735
f 726 723 722
f 724 726 722
f 735 722 834
f 736 735 834
f 737 736 834
f 738 737 834
f 733 732 722
f 740 739 834
f 741 740 834
f 743 742 834
f 742 741 834
f 722 753 754
f 722 754 755
f 722 755 756
f 722 774 750
f 773 722 769
f 772 765 722
f 772 722 723
f 765 767 722
f 766 771 722
f 766 722 767
f 771 768 722
f 768 770 722
f 770 769 722
f 734 400 733
f 773 774 722
f 725 724 722
f 730 725 722
f 729 728 722
f 730 722 727
f 728 727 722
f 729 722 731
f 732 731 722
f 540 538 537
f 695 323 696
f 321 695 694
f 693 321 694
f 685 337 697
f 696 323 699
f 593 598 537
f 596 593 537
f 538 595 537
f 595 594 537
f 698 338 693
f 541 540 537
f 537 594 596
f 599 600 537
f 599 537 597
f 598 597 537
f 537 600 585
f 537 586 587
f 585 586 537
f 690 331 691
f 705 388 704
f 713 384 716
f 717 385 718
f 718 385 713
f 368 717 720
f 719 368 720
f 688 330 689
f 689 330 690
f 546 539 537
f 691 331 692
f 334 684 683
f 692 332 682
f 682 334 683
f 686 336 687
f 684 334 686
f 687 336 685
f 337 698 697
f 568 566 567
f 557 556 567
f 560 559 567
f 561 560 567
f 562 561 567
f 563 562 567
f 564 563 567
f 565 564 567
f 566 565 567
f 559 558 567
f 569 568 567
f 570 569 567
f 571 570 567
f 572 571 567
f 573 572 567
f 574 573 567
f 575 574 567
f 576 575 567
f 552 545 537
f 542 543 537
f 537 543 541
f 537 539 542
f 547 546 537
f 548 547 537
f 549 548 537
f 551 550 537
f 544 551 537
f 706 388 705
f 545 544 537
f 550 549 537
f 552 537 567
f 553 552 567
f 555 553 567
f 554 555 567
f 556 554 567
f 558 557 567
f 654 314 655
f 644 306 645
f 646 308 647
f 647 308 648
f 648 309 649
f 649 310 650
f 310 651 650
f 651 312 652
f 652 312 653
f 653 314 654
f 306 646 645
f 655 314 656
f 656 315 657
f 657 316 658
f 658 316 660
f 660 319 659
f 659 319 688
f 721 320 611
f 365 661 662
f 633 299 634
f 627 295 628
f 628 294 629
f 630 293 631
f 629 294 630
f 631 293 632
f 632 297 633
f 300 638 637
f 636 300 637
f 663 365 662
f 299 636 635
f 634 299 635
f 638 302 639
f 639 304 640
f 640 304 641
f 641 303 642
f 642 305 643
f 643 305 644
f 386 708 709
f 324 680 675
f 680 325 681
f 681 325 678
f 678 326 679
f 679 326 677
f 702 375 701
f 382 706 711
f 383 712 707
f 676 324 675
f 708 383 707
f 386 709 710
f 715 386 710
f 384 714 716
f 714 387 715
f 712 382 711
f 704 373 703
f 703 372 702
f 671 380 670
f 661 366 583
f 664 364 663
f 665 364 664
f 666 378 665
f 379 666 667
f 668 379 667
f 669 381 668
f 380 669 670
f 577 576 567
f 371 671 672
f 674 374 673
f 673 371 672
f 375 674 701
f 584 242 721
f 677 369 719
f 699 328 700
f 328 676 700
f 721 682 683
f 721 690 691
f 721 689 690
f 683 684 721
f 721 684 686
f 686 687 721
f 721 687 685
f 697 698 721
f 721 685 697
f 692 682 721
f 691 692 721
f 702 701 721
f 703 702 721
f 704 703 721
f 705 704 721
f 706 705 721
f 712 711 721
f 711 706 721
f 681 678 721
f 672 671 584
f 611 651 652
f 611 652 653
f 611 654 655
f 654 611 653
f 611 657 658
f 611 655 656
f 611 656 657
f 721 611 658
f 679 677 721
f 674 673 584
f 673 672 584
f 701 674 584
f 701 584 721
f 660 659 721
f 721 658 660
f 721 659 688
f 721 688 689
f 725 393 724
f 721 719 720
f 698 693 721
f 721 693 694
f 721 694 695
f 696 699 721
f 721 695 696
f 389 834 722
f 726 390 723
f 677 719 721
f 724 393 726
f 728 395 727
f 396 728 729
f 731 396 729
f 397 725 730
f 727 397 730
f 398 731 732
f 733 398 732
f 721 707 712
f 721 678 679
f 676 675 721
f 700 676 721
f 721 699 700
f 680 681 721
f 721 675 680
f 709 708 721
f 708 707 721
f 611 650 651
f 714 715 721
f 710 709 721
f 715 710 721
f 716 721 713
f 718 713 721
f 720 717 721
f 721 717 718
f 721 716 714
f 606 537 605
f 537 588 589
f 537 589 590
f 588 537 587
f 590 601 537
f 591 537 606
f 592 591 607
f 537 601 602
f 537 602 603
f 537 603 604
f 670 669 584
f 605 537 604
f 607 591 606
f 592 607 608
f 592 608 609
f 611 592 609
f 610 612 611
f 611 609 610
f 611 612 613
f 663 662 567
f 578 577 567
f 579 578 567
f 580 579 567
f 581 580 567
f 582 581 567
f 583 582 567
f 661 583 567
f 662 661 567
f 611 613 614
f 664 663 567
f 665 664 567
f 666 665 567
f 667 666 567
f 667 567 584
f 668 667 584
f 669 668 584
f 671 670 584
f 641 611 640
f 611 632 633
f 611 633 634
f 611 634 635
f 637 611 636
f 636 611 635
f 611 638 639
f 611 639 640
f 611 641 642
f 611 630 631
f 611 642 643
f 611 644 645
f 644 611 643
f 611 645 646
f 611 646 647
f 611 647 648
f 611 648 649
f 611 649 650
f 611 621 622
f 615 616 611
f 611 614 615
f 617 618 611
f 611 616 617
f 619 620 611
f 611 618 619
f 611 620 621
f 622 623 611
f 840 839 834
f 611 623 624
f 611 624 625
f 611 625 626
f 611 626 627
f 611 627 628
f 611 628 629
f 611 629 630
f 631 632 611
f 1182 1156 1186
f 1169 1168 1167
f 1170 1169 1167
f 1170 1156 1182
f 1170 1182 1149
f 1172 964 1332
f 1171 1172 1332
f 1172 1171 1217
f 1173 1174 1186
f 1156 1173 1186
f 1168 1164 1167
f 1216 1149 1182
f 1186 1174 1178
f 1175 1176 1177
f 1178 1175 1177
f 1177 1179 1178
f 1176 1175 1198
f 1177 1176 1197
f 1184 1182 1186
f 1166 1168 1149
f 1159 1154 1158
f 1158 1155 1160
f 1161 1160 1156
f 1161 1156 1157
f 1157 1163 1165
f 1162 1161 1157
f 1165 1162 1157
f 1165 1166 1149
f 1180 1184 1188
f 1168 1169 1149
f 1169 1170 1149
f 1163 1156 1167
f 1167 1156 1170
f 1164 1163 1167
f 1165 1163 1164
f 1166 1165 1164
f 1168 1166 1164
f 1216 1192 1193
f 1190 1187 1191
f 1216 1182 1183
f 1216 1183 1185
f 1185 1181 1216
f 1179 1194 1195
f 1193 1179 1195
f 1194 1179 1196
f 1192 1178 1193
f 1189 1188 1190
f 1216 1193 1195
f 1195 1194 1216
f 1194 1196 1216
f 1216 1181 1189
f 1216 1189 1190
f 1216 1190 1191
f 1216 1191 1192
f 1172 1199 968
f 1179 1177 1196
f 1180 1189 1181
f 1182 1184 1183
f 1183 1184 1185
f 1184 1180 1181
f 1185 1184 1181
f 1198 1175 1212
f 1187 1188 1186
f 1186 1178 1192
f 1156 1163 1157
f 1179 1193 1178
f 1197 1176 1198
f 1196 1177 1197
f 1184 1186 1188
f 1188 1187 1190
f 1187 1186 1191
f 1191 1186 1192
f 1188 1189 1180
f 959 1173 1155
f 1144 1145 1099
f 1149 1099 1145
f 1135 967 1134
f 1132 1131 1206
f 1133 1132 1206
f 1141 963 1137
f 1137 963 1138
f 1138 959 1140
f 1140 959 1155
f 1141 1144 1099
f 1216 944 1149
f 968 964 1172
f 1171 1335 951
f 1171 951 1217
f 1173 934 1174
f 1174 966 1178
f 966 1208 1175
f 1178 966 1175
f 1105 961 1100
f 1131 956 1130
f 1132 957 1131
f 1133 965 1132
f 966 1133 1134
f 967 966 1134
f 1076 967 1135
f 1106 960 1105
f 1100 962 1101
f 1138 1140 1139
f 1101 963 1102
f 1105 1100 1099
f 1099 1104 1105
f 1099 1100 1101
f 1101 1102 1099
f 1104 1106 1105
f 1102 1141 1099
f 1102 963 1141
f 1149 1159 1158
f 1149 1147 1148
f 1148 1150 1149
f 1150 1151 1149
f 1152 1154 1153
f 1159 1153 1154
f 1151 1152 1149
f 1152 1153 1149
f 1149 1153 1159
f 1149 1146 1147
f 1158 1160 1149
f 1160 1161 1149
f 1161 1162 1149
f 1162 1165 1149
f 1143 1155 1154
f 1156 1155 1173
f 1154 1155 1158
f 1155 1156 1160
f 1145 1144 1137
f 1144 1141 1137
f 1137 1138 1146
f 1148 1138 1139
f 1148 1139 1140
f 1140 1143 1142
f 1143 1140 1155
f 1140 1142 1150
f 1142 1143 1152
f 1199 1172 1217
f 1145 1137 1146
f 1146 1138 1147
f 1147 1138 1148
f 1150 1148 1140
f 1152 1143 1154
f 1151 1150 1142
f 1151 1142 1152
f 1149 1145 1146
f 1343 1344 1346
f 1340 1338 1341
f 1340 1341 1342
f 1340 1342 1344
f 1339 1333 1334
f 1342 1225 1344
f 1344 1225 1346
f 1346 1225 1350
f 1350 1225 1360
f 1343 1340 1344
f 1338 1333 1339
f 1345 1343 1346
f 1345 1346 1348
f 1347 1345 1348
f 1349 1345 1347
f 1348 1346 1350
f 1349 1347 1348
f 1349 1348 1350
f 1349 1350 1360
f 1341 1225 1342
f 1343 1345 951
f 1349 951 1345
f 1368 1220 1349
f 1226 968 1199
f 1225 1226 1360
f 1332 964 1336
f 1225 1339 1334
f 1339 1225 1341
f 1226 1199 1351
f 1336 1225 1334
f 1171 1332 1336
f 1335 1171 1337
f 1171 1336 1337
f 1335 1334 1333
f 1336 1334 1337
f 1334 1335 1337
f 1338 1339 1341
f 1352 1217 1362
f 1368 1360 1359
f 1217 1227 1363
f 1363 1227 1364
f 1364 1227 1365
f 1365 1227 1366
f 1366 1227 1367
f 1367 1227 1368
f 1217 1363 1361
f 1359 1358 1367
f 1362 1217 1361
f 1362 1361 1352
f 1353 1363 1364
f 1354 1364 1365
f 1363 1351 1361
f 1357 1365 1366
f 1358 1366 1367
f 1359 1367 1368
f 1226 1355 1356
f 1226 1351 1353
f 1226 1353 1354
f 1354 1355 1226
f 1351 1199 1352
f 1351 1352 1361
f 1353 1351 1363
f 1354 1353 1364
f 1355 1354 1365
f 1340 1343 951
f 1226 1356 1357
f 1226 1357 1358
f 1360 1226 1358
f 1368 1349 1360
f 1356 1355 1365
f 1357 1356 1365
f 1358 1357 1366
f 1360 1358 1359
f 1208 1207 1214
f 1203 1201 1206
f 1203 1206 1202
f 1204 1202 1206
f 1205 1204 1206
f 1205 1206 1216
f 1207 1205 1210
f 1210 1205 1216
f 1208 1078 1207
f 1175 1208 1209
f 1201 1200 1206
f 1209 1208 1215
f 1175 1209 1212
f 1207 1210 1211
f 1214 1207 1211
f 1212 1209 1215
f 1215 1208 1213
f 1213 1208 1214
f 1211 1210 1216
f 1077 1201 1203
f 1199 1217 1352
f 1131 969 1206
f 1077 1076 1200
f 1078 1077 1202
f 1205 1207 1078
f 1206 1074 1216
f 1200 1076 1135
f 1077 1200 1201
f 1216 1197 1198
f 1202 1077 1203
f 1078 1202 1204
f 1205 1078 1204
f 1134 1133 1206
f 1135 1134 1206
f 1200 1135 1136
f 1136 1135 1206
f 1200 1136 1206
f 1251 239 1268
f 1226 1224 1221
f 1225 1224 1226
f 1220 1368 1227
f 1220 1268 339
f 490 339 1268
f 1268 536 490
f 1268 1220 1227
f 239 1251 1228
f 1221 968 1226
f 1075 1268 1227
f 1070 1228 1243
f 1217 1075 1227
f 1075 1243 1268
f 1336 1218 1225
f 1333 1338 951
f 1338 1340 951
f 1333 951 1335
f 1223 1218 1221
f 1216 1196 1197
f 1198 1212 1216
f 1214 1211 1216
f 1216 1212 1215
f 1216 1215 1213
f 1216 1213 1214
f 1218 1223 1222
f 1218 1222 1219
f 1130 955 1129
f 1223 1221 1224
f 1222 1223 1224
f 1219 1222 1224
f 1070 239 1228
f 1218 1219 1225
f 1225 1219 1224
f 1218 1336 964
f 1220 951 1349
f 934 932 933
f 923 922 925
f 925 928 948
f 923 925 948
f 969 917 970
f 926 927 928
f 928 929 930
f 928 930 932
f 932 930 931
f 928 932 934
f 923 924 922
f 934 935 937
f 937 935 936
f 934 937 938
f 938 939 941
f 934 938 953
f 941 939 940
f 953 938 941
f 941 942 943
f 915 913 914
f 915 890 891
f 893 898 915
f 915 898 899
f 891 892 915
f 915 892 893
f 897 890 915
f 915 899 900
f 915 900 901
f 918 917 1104
f 915 914 912
f 886 885 915
f 885 913 915
f 916 825 915
f 944 112 918
f 925 926 928
f 919 927 926
f 920 923 921
f 929 928 1112
f 946 1095 921
f 947 1107 948
f 946 948 1096
f 923 920 1093
f 949 1108 947
f 950 1109 949
f 1109 950 945
f 917 969 1131
f 920 921 1094
f 927 919 1110
f 928 927 1110
f 930 929 1112
f 931 930 1079
f 932 931 1083
f 933 932 1086
f 934 933 1113
f 935 934 1115
f 1085 917 1086
f 944 918 1099
f 917 1080 1112
f 1080 917 1079
f 1079 917 1081
f 1081 917 1082
f 1082 917 1083
f 1083 917 1084
f 1084 917 1085
f 915 883 889
f 1086 917 1113
f 919 926 1089
f 924 923 1092
f 922 924 1091
f 925 922 1088
f 926 925 1088
f 945 958 1098
f 958 959 1098
f 880 895 915
f 860 859 849
f 859 858 849
f 861 860 849
f 862 861 849
f 863 862 849
f 864 863 849
f 864 849 915
f 865 864 915
f 866 865 915
f 858 857 849
f 882 880 915
f 894 896 915
f 915 896 897
f 895 894 915
f 825 826 915
f 915 826 827
f 827 828 915
f 915 828 829
f 851 850 834
f 842 841 834
f 841 840 834
f 843 842 834
f 844 843 834
f 845 844 834
f 846 845 834
f 847 846 834
f 848 847 834
f 916 824 825
f 850 848 834
f 852 851 834
f 853 852 834
f 854 853 834
f 854 834 849
f 855 854 849
f 857 856 849
f 856 855 849
f 912 911 915
f 868 867 915
f 873 872 915
f 872 868 915
f 869 875 915
f 875 874 915
f 874 873 915
f 871 870 915
f 870 869 915
f 867 866 915
f 909 871 915
f 910 909 915
f 915 911 910
f 887 886 915
f 901 884 915
f 884 883 915
f 889 888 915
f 888 887 915
f 906 907 915
f 829 830 915
f 915 830 831
f 915 831 832
f 833 902 915
f 915 832 833
f 902 903 915
f 915 903 904
f 915 904 905
f 936 935 1117
f 915 905 906
f 908 876 915
f 915 876 877
f 915 907 908
f 878 879 915
f 915 877 878
f 915 879 881
f 881 882 915
f 963 1101 962
f 1106 1103 959
f 1098 959 1103
f 1096 948 1107
f 1095 946 1096
f 1107 947 1108
f 1108 949 1109
f 1109 945 1097
f 1106 959 960
f 961 962 1100
f 1098 1097 945
f 960 961 1105
f 1099 1149 944
f 1116 917 1117
f 1117 917 1118
f 1118 917 1119
f 1119 917 1120
f 1120 917 1121
f 1121 917 1122
f 1088 922 1090
f 1114 917 1115
f 1115 917 1116
f 917 1095 1096
f 1089 926 1088
f 1110 919 1087
f 1089 1087 919
f 1093 920 1094
f 1094 921 1095
f 1122 917 1123
f 1090 922 1091
f 1091 924 1092
f 1092 923 1093
f 917 1097 1098
f 1103 917 1098
f 917 1103 1106
f 1104 917 1106
f 1099 918 1104
f 1121 938 1120
f 1113 933 1086
f 934 1113 1114
f 1115 934 1114
f 935 1115 1116
f 1117 935 1116
f 936 1117 1118
f 1119 936 1118
f 1120 937 1119
f 1086 932 1085
f 1122 939 1121
f 1123 940 1122
f 1124 941 1123
f 1125 942 1124
f 1126 943 1125
f 1127 952 1126
f 1128 953 1127
f 1129 954 1128
f 928 1110 1111
f 1123 917 1124
f 1124 917 1125
f 1125 917 1126
f 1126 917 1127
f 1127 917 1128
f 1128 917 1129
f 1129 917 1130
f 1130 917 1131
f 1113 917 1114
f 1112 928 1111
f 1112 1080 930
f 1079 930 1080
f 931 1079 1081
f 931 1081 1082
f 1083 931 1082
f 932 1083 1084
f 932 1084 1085
f 934 953 966
f 947 948 945
f 948 928 959
f 949 947 945
f 950 949 945
f 945 948 959
f 951 944 1075
f 964 1221 1218
f 953 941 943
f 953 943 952
f 948 921 923
f 953 954 957
f 957 954 955
f 957 955 956
f 966 953 957
f 970 239 1070
f 1075 944 1074
f 959 958 945
f 959 961 960
f 952 1127 953
f 937 936 1119
f 938 937 1120
f 939 938 1121
f 940 939 1122
f 941 940 1123
f 942 941 1124
f 943 942 1125
f 943 1126 952
f 961 959 963
f 953 1128 954
f 954 1129 955
f 955 1130 956
f 956 1131 957
f 957 1132 965
f 965 1133 966
f 917 239 970
f 946 921 948
f 1090 917 1088
f 1078 1076 1077
f 966 1078 1208
f 917 1096 1107
f 917 1107 1108
f 917 1108 1109
f 917 1109 1097
f 917 1089 1088
f 1089 917 1087
f 966 1076 1078
f 917 1090 1091
f 1092 917 1091
f 917 1092 1093
f 917 1094 1095
f 1094 917 1093
f 1087 917 1110
f 1110 917 1111
f 1111 917 1112
f 1221 964 968
f 962 961 963
f 963 959 1138
f 959 928 1173
f 928 934 1173
f 966 957 965
f 966 967 1076
f 966 1174 934
f 1074 944 1216
f 611 637 638
f 1075 1217 951
f 969 985 1074
f 985 969 970
f 1075 985 1071
f 969 1074 1206
f 1075 1074 985
f 1243 1075 1071
f 1243 1071 1070
f 265 264 559
f 276 277 582
f 277 274 580
f 274 273 579
f 273 272 579
f 270 271 565
f 271 269 565
f 269 268 564
f 278 270 566
f 268 267 562
f 267 266 562
f 266 265 560
f 275 276 583
f 264 263 558
f 263 262 557
f 262 261 556
f 260 259 555
f 261 260 554
f 259 258 553
f 258 257 552
f 249 256 551
f 256 255 550
f 255 254 549
f 254 253 548
f 341 588 340
f 353 595 244
f 354 347 593
f 354 596 352
f 353 352 594
f 351 348 600
f 320 241 611
f 346 357 607
f 342 345 604
f 344 342 602
f 344 590 343
f 343 589 341
f 253 252 547
f 356 340 587
f 272 287 577
f 286 285 576
f 287 286 577
f 285 284 574
f 284 283 574
f 283 282 572
f 282 281 572
f 281 280 570
f 280 279 570
f 279 278 569
f 364 276 275
f 378 377 376
f 376 380 378
f 378 372 364
f 370 374 375
f 372 373 388
f 370 371 374
f 372 378 375
f 326 368 369
f 368 326 384
f 364 365 367
f 365 275 366
f 376 377 379
f 275 365 364
f 287 273 372
f 372 276 364
f 273 276 372
f 326 287 372
f 326 358 350
f 326 243 287
f 350 243 326
f 360 288 363
f 292 288 358
f 361 359 362
f 242 951 339
f 251 243 539
f 252 251 546
f 257 250 545
f 250 249 544
f 241 242 567
f 243 248 542
f 248 247 543
f 246 245 540
f 245 244 538
f 246 541 247
f 951 1220 339
f 347 350 598
f 388 387 372
f 387 326 372
f 326 387 384
f 385 368 384
f 386 382 383
f 382 387 388
f 382 386 387
f 380 376 381
f 378 380 370
f 370 375 378
f 323 327 699
f 685 335 337
f 336 335 685
f 331 690 330
f 332 692 331
f 688 329 330
f 319 329 688
f 324 325 680
f 328 324 676
f 369 677 326
f 326 678 325
f 368 719 369
f 332 333 682
f 327 328 699
f 372 375 702
f 374 371 673
f 375 374 674
f 371 370 671
f 370 380 671
f 380 381 669
f 378 364 665
f 377 378 666
f 379 377 666
f 381 376 668
f 384 387 714
f 391 392 393
f 392 391 432
f 432 391 396
f 490 320 339
f 320 490 389
f 721 339 320
f 242 339 721
f 388 706 382
f 388 373 704
f 373 372 703
f 368 385 717
f 376 379 668
f 384 713 385
f 386 383 708
f 387 386 715
f 383 382 712
f 695 322 323
f 322 695 321
f 338 698 337
f 338 321 693
f 336 686 334
f 682 333 334
f 363 288 617
f 299 300 636
f 297 298 633
f 633 298 299
f 293 297 632
f 294 293 630
f 295 294 628
f 623 291 296
f 289 291 623
f 359 360 615
f 288 290 618
f 290 289 621
f 300 301 638
f 360 363 616
f 292 295 627
f 296 292 625
f 362 359 613
f 358 361 610
f 361 362 613
f 357 358 609
f 355 356 586
f 355 585 348
f 351 599 349
f 350 349 597
f 651 311 312
f 365 366 661
f 366 275 583
f 367 365 663
f 364 367 663
f 660 318 319
f 316 318 660
f 657 317 316
f 315 317 657
f 314 315 656
f 653 313 314
f 312 313 653
f 358 359 361
f 310 311 651
f 309 310 649
f 308 309 648
f 646 307 308
f 306 307 646
f 305 306 644
f 303 305 642
f 304 303 641
f 302 304 639
f 638 301 302
f 111 104 119
f 241 320 102
f 101 917 102
f 917 101 105
f 103 102 918
f 108 119 104
f 104 113 115
f 113 104 114
f 114 104 111
f 918 102 917
f 103 918 110
f 110 918 112
f 237 105 106
f 114 111 116
f 119 108 109
f 104 115 117
f 115 113 114
f 115 114 116
f 117 115 116
f 117 116 118
f 116 111 118
f 119 109 120
f 103 110 130
f 119 135 111
f 247 245 246
f 243 260 262
f 243 255 260
f 255 253 254
f 251 253 255
f 243 251 255
f 253 251 252
f 260 255 256
f 256 250 257
f 256 249 250
f 243 247 248
f 243 245 247
f 107 136 112
f 245 353 244
f 245 243 350
f 424 536 240
f 389 424 240
f 240 320 389
f 320 240 238
f 102 103 107
f 108 104 124
f 107 103 123
f 106 102 320
f 102 107 241
f 135 119 132
f 117 118 133
f 134 111 135
f 122 121 128
f 126 117 127
f 127 117 133
f 123 127 133
f 123 133 134
f 120 122 128
f 119 129 131
f 119 131 132
f 129 120 128
f 118 111 134
f 128 121 130
f 129 128 136
f 136 128 130
f 131 129 136
f 133 118 134
f 136 123 134
f 132 131 136
f 135 132 136
f 136 134 135
f 106 320 238
f 106 238 237
f 125 109 124
f 110 112 136
f 237 917 105
f 241 107 242
f 242 107 951
f 107 112 944
f 951 107 944
f 109 108 124
f 123 103 121
f 124 104 126
f 122 109 125
f 121 122 125
f 260 256 257
f 123 121 124
f 125 124 121
f 126 127 123
f 126 123 124
f 120 109 122
f 121 103 130
f 104 117 126
f 136 107 123
f 119 120 129
f 130 110 136
f 321 338 322
f 333 336 334
f 333 332 337
f 332 315 326
f 330 319 331
f 319 330 329
f 331 315 332
f 326 324 323
f 323 328 327
f 323 324 328
f 324 326 325
f 322 337 323
f 332 323 337
f 323 332 326
f 319 315 331
f 316 319 318
f 315 316 317
f 316 315 319
f 314 311 315
f 312 314 313
f 311 314 312
f 310 307 311
f 308 310 309
f 307 310 308
f 348 350 355
f 288 359 358
f 288 360 359
f 346 358 357
f 355 340 356
f 353 347 352
f 347 354 352
f 353 350 347
f 353 245 350
f 349 348 351
f 350 348 349
f 350 340 355
f 307 303 311
f 346 350 358
f 340 350 346
f 342 346 345
f 344 341 340
f 346 344 340
f 341 344 343
f 342 344 346
f 337 322 338
f 335 333 337
f 336 333 335
f 268 271 270
f 285 282 283
f 285 279 282
f 287 262 285
f 279 281 282
f 279 280 281
f 277 273 274
f 273 277 276
f 273 287 272
f 278 268 270
f 262 279 285
f 279 268 278
f 285 283 284
f 268 269 271
f 262 268 279
f 268 266 267
f 268 264 266
f 264 265 266
f 262 264 268
f 243 262 287
f 262 263 264
f 262 260 261
f 260 258 259
f 260 257 258
f 303 358 311
f 306 303 307
f 303 306 305
f 302 303 304
f 300 302 301
f 302 299 298
f 299 302 300
f 302 292 303
f 298 292 302
f 293 298 297
f 315 358 326
f 311 358 315
f 345 346 605
f 292 358 303
f 291 292 296
f 292 294 295
f 293 292 298
f 294 292 293
f 291 288 292
f 290 291 289
f 288 291 290
f 917 237 239
f 287 285 286
f 495 494 854
f 509 508 861
f 508 507 861
f 507 506 860
f 506 505 858
f 505 504 858
f 504 503 856
f 503 496 855
f 502 498 886
f 497 885 498
f 501 502 888
f 496 495 855
f 510 509 863
f 494 493 852
f 493 492 852
f 492 491 850
f 491 489 850
f 489 488 847
f 488 487 846
f 487 485 845
f 485 486 845
f 486 484 843
f 484 483 842
f 483 482 842
f 912 521 520
f 530 531 897
f 531 534 890
f 526 528 881
f 527 526 878
f 525 527 876
f 524 525 907
f 523 524 905
f 522 523 903
f 529 530 880
f 528 529 880
f 490 536 915
f 482 481 840
f 497 521 912
f 519 518 909
f 520 519 910
f 518 517 870
f 515 514 867
f 516 513 873
f 513 515 872
f 517 516 875
f 514 512 866
f 512 511 865
f 511 510 863
f 789 447 448
f 458 459 806
f 458 803 457
f 455 456 800
f 457 801 456
f 455 798 454
f 453 454 797
f 452 453 796
f 452 794 451
f 451 793 450
f 792 449 450
f 448 449 792
f 806 459 460
f 445 447 789
f 446 445 787
f 444 446 785
f 444 783 443
f 442 443 782
f 441 442 780
f 440 441 778
f 439 440 777
f 438 439 775
f 437 438 763
f 434 435 750
f 471 824 470
f 481 480 840
f 480 479 838
f 479 478 838
f 478 477 836
f 477 476 836
f 389 490 834
f 522 833 475
f 474 475 832
f 473 474 830
f 472 473 827
f 471 472 827
f 890 534 532
f 469 470 823
f 468 469 822
f 819 467 468
f 466 467 819
f 466 817 465
f 464 465 816
f 463 464 815
f 463 812 461
f 462 461 811
f 460 462 809
f 590 344 601
f 538 244 595
f 593 347 598
f 606 346 607
f 605 346 606
f 603 342 604
f 604 345 605
f 602 342 603
f 608 357 609
f 607 357 608
f 601 344 602
f 611 241 592
f 595 353 594
f 588 341 589
f 589 343 590
f 587 340 588
f 586 356 587
f 241 591 592
f 577 286 576
f 576 285 575
f 285 574 575
f 573 283 572
f 574 283 573
f 572 281 571
f 359 615 614
f 292 627 626
f 624 296 625
f 623 296 624
f 622 289 623
f 621 289 622
f 290 621 620
f 619 290 620
f 618 290 619
f 617 288 618
f 616 363 617
f 615 360 616
f 281 570 571
f 613 359 614
f 612 361 613
f 609 358 610
f 610 361 612
f 585 355 586
f 600 348 585
f 599 351 600
f 598 350 597
f 597 349 599
f 596 354 593
f 594 352 596
f 542 248 543
f 553 258 552
f 551 256 550
f 548 253 547
f 550 255 549
f 549 254 548
f 547 252 546
f 546 251 539
f 552 257 545
f 545 250 544
f 544 249 551
f 539 243 542
f 555 259 553
f 541 246 540
f 540 245 538
f 543 247 541
f 537 241 567
f 394 395 397
f 536 424 916
f 533 535 898
f 535 500 899
f 500 499 884
f 499 501 883
f 532 533 892
f 565 269 564
f 570 279 569
f 569 278 568
f 278 566 568
f 567 242 584
f 583 276 582
f 582 277 581
f 277 580 581
f 580 274 579
f 579 272 578
f 272 577 578
f 566 270 565
f 537 591 241
f 564 268 563
f 268 562 563
f 562 266 561
f 266 560 561
f 560 265 559
f 559 264 558
f 558 263 557
f 557 262 556
f 556 261 554
f 554 260 555
f 455 453 458
f 464 466 465
f 464 461 466
f 461 464 463
f 460 461 462
f 461 440 530
f 460 458 461
f 458 460 459
f 458 453 461
f 457 455 458
f 455 457 456
f 452 461 453
f 466 468 467
f 452 449 461
f 453 455 454
f 449 442 461
f 451 449 452
f 449 451 450
f 420 407 530
f 440 420 530
f 442 440 461
f 447 449 448
f 446 442 447
f 445 446 447
f 415 478 479
f 488 489 491
f 484 488 493
f 484 487 488
f 487 484 485
f 484 486 485
f 484 482 483
f 484 481 482
f 481 479 480
f 484 415 481
f 415 479 481
f 478 476 477
f 442 449 447
f 415 476 478
f 474 522 475
f 473 522 474
f 470 472 471
f 473 466 522
f 472 466 473
f 468 470 469
f 470 466 472
f 522 461 530
f 468 466 470
f 466 461 522
f 399 403 407
f 421 437 422
f 418 420 419
f 418 435 420
f 407 415 484
f 415 416 476
f 415 413 414
f 415 412 413
f 407 412 415
f 407 411 412
f 411 408 410
f 407 408 411
f 438 421 420
f 409 403 400
f 407 403 406
f 406 404 405
f 403 404 406
f 403 409 402
f 401 409 400
f 399 400 403
f 399 398 400
f 396 399 428
f 396 391 397
f 395 396 397
f 428 435 433
f 444 442 446
f 442 444 443
f 440 442 441
f 438 440 439
f 438 420 440
f 437 421 438
f 420 399 407
f 417 435 418
f 428 420 435
f 435 417 436
f 433 435 434
f 434 773 433
f 428 399 420
f 432 396 428
f 432 390 392
f 390 432 431
f 430 432 428
f 426 430 429
f 428 427 430
f 426 432 430
f 432 426 425
f 421 422 423
f 1268 240 536
f 527 524 526
f 526 529 528
f 529 524 530
f 534 530 533
f 530 534 531
f 530 500 533
f 534 533 532
f 533 500 535
f 240 1268 239
f 526 524 529
f 390 431 723
f 392 390 726
f 391 393 725
f 393 392 726
f 395 394 727
f 396 395 728
f 399 396 731
f 397 391 725
f 727 394 397
f 513 516 517
f 506 504 505
f 506 507 508
f 506 508 512
f 512 508 509
f 509 510 511
f 512 509 511
f 521 506 512
f 512 514 515
f 513 512 515
f 398 399 731
f 521 512 513
f 513 517 519
f 521 513 519
f 519 517 518
f 521 519 520
f 522 524 523
f 524 527 525
f 524 522 530
f 432 425 765
f 418 753 417
f 753 418 419
f 625 292 626
f 419 420 754
f 420 421 757
f 423 422 760
f 437 761 422
f 423 758 421
f 424 389 764
f 417 751 436
f 426 429 771
f 425 426 766
f 430 427 768
f 769 428 433
f 427 428 769
f 771 429 430
f 432 765 431
f 435 436 750
f 408 407 741
f 400 398 733
f 401 400 734
f 409 401 734
f 402 409 736
f 403 402 736
f 404 403 737
f 405 404 738
f 406 405 739
f 407 406 741
f 493 488 491
f 410 408 743
f 411 410 743
f 412 411 745
f 413 412 745
f 414 413 747
f 415 414 747
f 416 415 749
f 476 416 749
f 530 407 484
f 506 496 504
f 496 503 504
f 502 500 497
f 501 499 502
f 502 499 500
f 530 521 500
f 502 497 498
f 497 500 521
f 521 484 506
f 530 484 521
f 506 493 496
f 493 495 496
f 493 494 495
f 484 493 506
f 493 491 492
f 24 25 33
f 105 99 106
f 106 99 100
f 94 106 98
f 106 92 98
f 106 96 102
f 97 106 94
f 96 106 97
f 106 93 92
f 106 91 93
f 106 100 91
f 21 10 22
f 29 99 30
f 28 99 29
f 27 99 28
f 26 99 27
f 25 99 26
f 24 99 25
f 6 99 24
f 5 99 6
f 99 1 100
f 64 15 23
f 23 14 21
f 82 73 83
f 83 91 82
f 81 72 82
f 83 74 88
f 85 76 84
f 89 80 86
f 86 77 85
f 87 78 89
f 88 79 87
f 105 101 77
f 88 87 98
f 98 87 89
f 90 81 82
f 94 86 97
f 83 88 92
f 85 84 95
f 86 85 96
f 89 86 94
f 90 82 91
f 91 83 93
f 93 83 92
f 92 88 98
f 96 85 95
f 86 96 97
f 98 89 94
f 5 12 2
f 14 7 10
f 13 6 32
f 9 2 12
f 12 5 13
f 11 4 9
f 10 3 11
f 48 8 15
f 8 7 14
f 7 3 10
f 6 24 32
f 5 6 13
f 15 8 14
f 3 4 11
f 4 2 9
f 49 50 1
f 48 49 1
f 8 48 1
f 7 8 1
f 3 1 4
f 3 7 1
f 2 4 1
f 1 5 2
f 101 16 1
f 12 20 9
f 19 13 40
f 18 12 19
f 17 9 20
f 20 12 18
f 10 11 17
f 11 9 17
f 56 15 64
f 15 14 23
f 14 10 21
f 13 32 40
f 12 13 19
f 10 17 22
f 16 102 23
f 23 21 16
f 22 16 21
f 19 16 18
f 20 18 16
f 100 16 19
f 100 1 16
f 22 17 16
f 16 17 20
f 56 48 15
f 100 90 91
f 38 39 47
f 39 81 90
f 40 33 41
f 41 34 42
f 42 34 43
f 43 36 44
f 44 37 45
f 45 38 46
f 46 38 47
f 47 39 90
f 100 45 46
f 100 46 47
f 100 47 90
f 38 45 37
f 101 1 50
f 49 48 56
f 50 49 57
f 51 50 58
f 52 51 59
f 53 52 60
f 54 53 61
f 55 54 62
f 75 55 63
f 101 50 51
f 101 51 52
f 53 101 52
f 54 101 53
f 39 31 81
f 26 27 35
f 27 28 36
f 28 29 37
f 29 30 38
f 30 31 39
f 31 72 81
f 32 24 33
f 33 25 34
f 34 26 35
f 35 27 36
f 36 28 37
f 37 29 38
f 38 30 39
f 55 101 54
f 99 105 30
f 100 19 40
f 100 40 41
f 100 41 42
f 100 42 43
f 100 43 44
f 100 44 45
f 40 32 33
f 34 41 33
f 34 35 43
f 43 35 36
f 37 44 36
f 79 88 74
f 68 59 67
f 69 60 68
f 62 69 70
f 71 62 70
f 95 63 71
f 67 102 68
f 102 69 68
f 102 70 69
f 102 71 70
f 102 95 71
f 102 96 95
f 72 73 82
f 73 74 83
f 67 58 66
f 76 75 84
f 77 76 85
f 80 77 86
f 79 78 87
f 78 80 89
f 30 105 31
f 31 105 72
f 72 105 73
f 73 105 74
f 79 105 78
f 74 105 79
f 105 80 78
f 105 77 80
f 64 102 65
f 75 101 55
f 76 101 75
f 77 101 76
f 57 49 56
f 58 50 57
f 59 51 58
f 60 52 59
f 61 53 60
f 62 54 61
f 63 55 62
f 84 75 63
f 16 101 102
f 23 102 64
f 25 26 34
f 65 102 66
f 66 102 67
f 57 56 64
f 58 57 65
f 59 58 67
f 60 59 68
f 61 60 69
f 62 61 69
f 63 62 71
f 84 63 95
f 65 57 64
f 58 65 66
f 1 99 5
f 1015 1071 1014
f 1033 1024 1046
f 1016 1071 1015
f 1061 1071 1016
f 1062 1071 1061
f 1033 970 1019
f 1018 1017 1025
f 1019 1018 1026
f 1020 1019 1027
f 1021 1020 1028
f 1022 1021 1029
f 1023 1022 1030
f 1024 1023 1031
f 1046 1024 1032
f 1033 1019 1020
f 1033 1020 1021
f 1033 1021 1022
f 1033 1022 1023
f 1033 1023 1024
f 1071 1011 1012
f 1007 1008 1016
f 1043 1044 1053
f 1071 1012 1013
f 1014 1071 1013
f 1009 1001 1002
f 1003 1010 1002
f 1003 1004 1012
f 1012 1004 1005
f 1006 1013 1005
f 1007 1014 1006
f 1016 1008 1061
f 1008 1052 1061
f 1009 1002 1010
f 1010 1003 1011
f 1011 1003 1012
f 1012 1005 1013
f 1013 1006 1014
f 1014 1007 1015
f 1015 1007 1016
f 1031 1039 1040
f 1030 1029 1039
f 1031 1030 1039
f 1032 1031 1041
f 1055 1032 1066
f 1035 1026 1034
f 1027 1035 1036
f 1037 1027 1036
f 1038 1028 1037
f 1039 1029 1038
f 1029 1028 1038
f 1041 1031 1040
f 1066 1032 1041
f 1038 1037 1042
f 1039 1038 1042
f 1040 1039 1042
f 1041 1040 1042
f 1066 1041 1042
f 1067 1066 1042
f 970 974 971
f 1033 1072 1042
f 1047 1048 1033
f 1026 1018 1025
f 1027 1019 1026
f 1028 1020 1027
f 1029 1021 1028
f 1030 1022 1029
f 1031 1023 1030
f 1032 1024 1031
f 1055 1046 1032
f 1046 1047 1033
f 985 1033 1042
f 1034 992 1042
f 1035 1034 1042
f 1036 1035 1042
f 1037 1036 1042
f 1026 1025 1034
f 1027 1026 1035
f 1028 1027 1037
f 1071 985 988
f 980 973 978
f 981 974 982
f 978 971 981
f 982 975 1001
f 983 976 979
f 984 977 983
f 1025 1017 984
f 989 985 986
f 985 991 986
f 979 972 980
f 987 985 989
f 988 985 987
f 985 990 991
f 985 992 990
f 985 1042 992
f 981 989 978
f 981 982 988
f 982 1001 1009
f 983 979 990
f 1019 970 1018
f 974 970 1070
f 970 1033 985
f 1069 1058 1060
f 970 971 973
f 976 970 972
f 972 970 973
f 977 970 976
f 1017 970 977
f 1018 970 1017
f 984 983 992
f 973 971 978
f 972 973 980
f 974 981 971
f 974 975 982
f 975 993 1001
f 976 972 979
f 977 976 983
f 1017 977 984
f 1002 994 1003
f 993 994 1002
f 994 995 1003
f 995 996 1004
f 996 997 1005
f 997 998 1006
f 998 999 1007
f 999 1000 1008
f 1000 1043 1052
f 1001 993 1002
f 1070 999 998
f 1003 995 1004
f 1004 996 1005
f 1005 997 1006
f 1006 998 1007
f 1007 999 1008
f 1008 1000 1052
f 1070 1072 999
f 1071 988 1009
f 1071 1009 1010
f 992 983 990
f 1025 984 1034
f 980 978 986
f 979 980 986
f 989 981 987
f 986 978 989
f 987 981 988
f 988 982 1009
f 979 986 991
f 990 979 991
f 1071 1010 1011
f 1034 984 992
f 974 1070 975
f 975 1070 993
f 993 1070 994
f 994 1070 995
f 995 1070 996
f 996 1070 997
f 1070 998 997
f 1069 1060 1065
f 1070 1073 1072
f 1073 1070 1071
f 1069 1065 1073
f 1073 1063 1069
f 1067 1042 1073
f 1065 1068 1073
f 1068 1067 1073
f 1042 1072 1073
f 1064 1063 1073
f 1073 1062 1064
f 1073 1071 1062
f 1065 1057 1068
f 1050 1059 1045
f 1057 1067 1068
f 1067 1056 1066
f 1063 1059 1069
f 1064 1054 1063
f 1062 1054 1064
f 1061 1053 1062
f 1060 1057 1065
f 1057 1056 1067
f 1056 1055 1066
f 1054 1059 1063
f 1054 1062 1053
f 1061 1052 1053
f 1054 1045 1059
f 1047 1046 1055
f 1048 1047 1056
f 1051 1048 1057
f 1050 1049 1058
f 1059 1058 1069
f 1048 1072 1033
f 1059 1050 1058
f 1058 1049 1060
f 1057 1048 1056
f 1060 1051 1057
f 1056 1047 1055
f 1044 1045 1054
f 1053 1044 1054
f 1052 1043 1053
f 1048 1051 1072
f 1049 1072 1051
f 1072 1050 1045
f 1049 1050 1072
f 1044 1072 1045
f 1043 1072 1044
f 1000 1072 1043
f 999 1072 1000
f 1049 1051 1060
f 215 237 214
f 190 189 197
f 191 190 198
f 192 191 199
f 193 192 200
f 213 193 201
f 237 188 189
f 237 189 190
f 191 237 190
f 192 237 191
f 193 237 192
f 213 237 193
f 214 237 213
f 189 188 196
f 195 187 194
f 196 188 195
f 197 189 196
f 198 190 197
f 199 191 198
f 200 192 199
f 201 193 200
f 222 213 201
f 152 237 238
f 159 238 202
f 202 238 203
f 203 238 204
f 234 223 233
f 137 141 138
f 232 240 236
f 240 230 236
f 238 240 234
f 235 240 232
f 234 240 235
f 240 231 230
f 240 229 231
f 240 177 229
f 232 224 235
f 236 227 232
f 224 234 235
f 204 238 205
f 230 226 236
f 231 221 230
f 229 221 231
f 228 220 229
f 227 224 232
f 224 223 234
f 223 222 233
f 221 226 230
f 221 229 220
f 228 219 220
f 188 187 195
f 239 215 218
f 214 213 222
f 215 214 223
f 218 215 224
f 217 216 225
f 216 218 227
f 167 239 168
f 168 239 210
f 210 239 211
f 211 239 212
f 217 239 216
f 212 239 217
f 239 218 216
f 217 226 212
f 219 210 220
f 220 211 221
f 221 212 226
f 223 214 222
f 227 218 224
f 224 215 223
f 225 216 227
f 226 217 225
f 239 160 240
f 237 215 239
f 226 225 236
f 207 198 206
f 195 194 202
f 196 195 203
f 197 196 205
f 198 197 206
f 199 198 207
f 200 199 207
f 201 200 209
f 222 201 233
f 203 195 202
f 196 203 204
f 205 196 204
f 206 197 205
f 236 225 227
f 200 207 208
f 209 200 208
f 233 201 209
f 205 238 206
f 238 207 206
f 238 208 207
f 238 209 208
f 238 233 209
f 238 234 233
f 210 211 220
f 211 212 221
f 202 151 159
f 166 160 167
f 165 160 166
f 164 160 165
f 163 160 164
f 162 160 163
f 161 160 162
f 142 160 161
f 141 160 142
f 160 137 177
f 161 162 170
f 159 150 157
f 157 146 158
f 146 153 158
f 155 149 178
f 154 148 155
f 153 145 156
f 156 148 154
f 146 147 153
f 147 145 153
f 170 162 171
f 177 178 179
f 177 155 178
f 160 239 167
f 176 168 219
f 175 167 176
f 174 166 175
f 173 165 174
f 172 164 173
f 171 163 172
f 194 151 202
f 169 161 170
f 168 210 219
f 167 168 176
f 166 167 175
f 165 166 174
f 164 165 173
f 163 164 172
f 162 163 171
f 139 140 147
f 148 141 149
f 147 140 145
f 146 139 147
f 186 144 151
f 144 143 150
f 143 139 146
f 142 161 169
f 141 142 149
f 141 148 138
f 145 138 148
f 140 138 145
f 187 188 137
f 186 187 137
f 144 186 137
f 143 144 137
f 139 137 140
f 139 143 137
f 138 140 137
f 237 152 137
f 156 154 152
f 151 150 159
f 150 146 157
f 149 169 178
f 148 149 155
f 148 156 145
f 152 238 159
f 159 157 152
f 158 152 157
f 155 152 154
f 187 186 194
f 177 152 155
f 177 137 152
f 158 153 152
f 152 153 156
f 194 186 151
f 151 144 150
f 150 143 146
f 149 142 169
f 137 160 141
f 177 179 180
f 180 181 177
f 181 182 177
f 182 183 177
f 178 169 170
f 171 179 170
f 171 172 181
f 181 172 173
f 174 182 173
f 175 183 174
f 175 176 185
f 176 219 228
f 178 170 179
f 180 171 181
f 179 171 180
f 237 137 188
f 228 229 177
f 185 228 177
f 184 185 177
f 183 184 177
f 185 176 228
f 184 175 185
f 183 175 184
f 182 174 183
f 181 173 182
f 240 160 177
f 1325 1324 1331
f 1331 1323 1325
f 1331 1268 1323
f 1326 1317 1329
f 1330 1320 1326
f 1317 1328 1329
f 1328 1316 1327
f 1324 1319 1330
f 1325 1314 1324
f 1323 1314 1325
f 1322 1313 1323
f 1302 1321 1331
f 1329 1328 1331
f 1326 1329 1331
f 1328 1302 1331
f 1331 1324 1330
f 1330 1326 1331
f 1294 1242 1250
f 1250 1241 1248
f 1248 1237 1249
f 1237 1244 1249
f 1309 1310 1321
f 1246 1240 1269
f 1318 1309 1320
f 1304 1321 1305
f 1321 1310 1305
f 1309 1321 1311
f 1308 1311 1321
f 1312 1303 1313
f 1313 1304 1314
f 1314 1305 1319
f 1316 1307 1315
f 1320 1311 1317
f 1317 1308 1316
f 1320 1317 1326
f 1319 1310 1318
f 1251 1331 1321
f 1308 1321 1293
f 1319 1318 1330
f 1330 1318 1320
f 1322 1312 1313
f 1314 1323 1313
f 1314 1319 1324
f 1316 1315 1327
f 1317 1316 1328
f 1231 1229 1236
f 1236 1229 1239
f 1239 1232 1240
f 1238 1231 1236
f 1237 1230 1238
f 1277 1235 1242
f 1235 1234 1241
f 1234 1230 1237
f 1233 1252 1260
f 1232 1233 1240
f 1232 1239 1229
f 1230 1231 1238
f 1240 1233 1260
f 1279 1228 1278
f 1278 1228 1277
f 1277 1228 1235
f 1235 1228 1234
f 1230 1228 1231
f 1234 1228 1230
f 1228 1229 1231
f 1228 1232 1229
f 1228 1293 1243
f 1232 1228 1251
f 1243 1302 1250
f 1244 1236 1247
f 1247 1239 1245
f 1237 1238 1244
f 1238 1236 1244
f 1285 1242 1294
f 1242 1241 1250
f 1241 1237 1248
f 1240 1260 1269
f 1239 1240 1246
f 1239 1247 1236
f 1245 1239 1246
f 1243 1250 1248
f 1243 1248 1249
f 1246 1243 1245
f 1245 1243 1247
f 1243 1246 1268
f 1243 1249 1244
f 1247 1243 1244
f 1285 1277 1242
f 1242 1235 1241
f 1241 1234 1237
f 1274 1266 1275
f 1274 1268 1273
f 1269 1260 1261
f 1262 1270 1261
f 1262 1263 1272
f 1272 1263 1264
f 1265 1273 1264
f 1266 1274 1265
f 1266 1267 1276
f 1267 1312 1322
f 1269 1261 1270
f 1270 1262 1271
f 1271 1262 1272
f 1272 1264 1273
f 1273 1265 1274
f 1268 1272 1273
f 1275 1266 1276
f 1276 1267 1322
f 1331 1251 1268
f 1275 1268 1274
f 1276 1268 1275
f 1322 1268 1276
f 1323 1268 1322
f 1293 1228 1279
f 1278 1277 1285
f 1279 1278 1286
f 1280 1279 1287
f 1281 1280 1288
f 1282 1281 1289
f 1259 1303 1312
f 1233 1251 1252
f 1252 1251 1253
f 1253 1251 1254
f 1254 1251 1255
f 1255 1251 1256
f 1251 1257 1256
f 1251 1258 1257
f 1252 1253 1261
f 1253 1254 1262
f 1254 1255 1263
f 1255 1256 1264
f 1256 1257 1265
f 1257 1258 1266
f 1258 1259 1267
f 1283 1282 1290
f 1260 1252 1261
f 1261 1253 1262
f 1262 1254 1263
f 1263 1255 1264
f 1264 1256 1265
f 1265 1257 1266
f 1266 1258 1267
f 1267 1259 1312
f 1251 1321 1258
f 1268 1246 1269
f 1268 1269 1270
f 1268 1270 1271
f 1268 1271 1272
f 1301 1300 1302
f 1291 1290 1299
f 1292 1291 1301
f 1315 1292 1327
f 1295 1286 1294
f 1287 1295 1296
f 1297 1287 1296
f 1298 1288 1297
f 1299 1289 1298
f 1291 1299 1300
f 1301 1291 1300
f 1327 1292 1301
f 1298 1297 1302
f 1299 1298 1302
f 1300 1299 1302
f 1290 1289 1299
f 1327 1301 1302
f 1328 1327 1302
f 1303 1304 1313
f 1304 1305 1314
f 1310 1319 1305
f 1307 1306 1315
f 1308 1307 1316
f 1311 1308 1317
f 1310 1309 1318
f 1309 1311 1320
f 1258 1321 1259
f 1259 1321 1303
f 1303 1321 1304
f 1290 1282 1289
f 1284 1283 1291
f 1306 1284 1292
f 1293 1279 1280
f 1293 1280 1281
f 1293 1281 1282
f 1293 1282 1283
f 1293 1283 1284
f 1293 1284 1306
f 1306 1307 1293
f 1307 1308 1293
f 1286 1278 1285
f 1287 1279 1286
f 1288 1280 1287
f 1289 1281 1288
f 1232 1251 1233
f 1291 1283 1290
f 1292 1284 1291
f 1315 1306 1292
f 1293 1321 1302
f 1243 1293 1302
f 1294 1250 1302
f 1295 1294 1302
f 1296 1295 1302
f 1297 1296 1302
f 1286 1285 1294
f 1287 1286 1295
f 1288 1287 1297
f 1289 1288 1298

